  0
SECTION
  2
HEADER
  9
$ACADVER
  1
AC1014
  9
$HANDSEED
  5
FFFF
  9
$MEASUREMENT
 70
     1
  0
ENDSEC
  0
SECTION
  2
TABLES
  0
TABLE
  2
VPORT
  5
8
330
0
100
AcDbSymbolTable
 70
     4
  0
VPORT
  5
2E
330
8
100
AcDbSymbolTableRecord
100
AcDbViewportTableRecord
  2
*ACTIVE
 70
     0
 10
0.0
 20
0.0
 11
1.0
 21
1.0
 12
210.0
 22
148.5
 13
0.0
 23
0.0
 14
10.0
 24
10.0
 15
10.0
 25
10.0
 16
0.0
 26
0.0
 36
1.0
 17
0.0
 27
0.0
 37
0.0
 40
341.0
 41
1.24
 42
50.0
 43
0.0
 44
0.0
 50
0.0
 51
0.0
 71
     0
 72
   100
 73
     1
 74
     3
 75
     0
 76
     0
 77
     0
 78
     0
  0
ENDTAB
  0
TABLE
  2
LTYPE
  5
5
330
0
100
AcDbSymbolTable
 70
     1
  0
LTYPE
  5
14
330
5
100
AcDbSymbolTableRecord
100
AcDbLinetypeTableRecord
  2
BYBLOCK
 70
     0
  3

 72
    65
 73
     0
 40
0.0
  0
LTYPE
  5
15
330
5
100
AcDbSymbolTableRecord
100
AcDbLinetypeTableRecord
  2
BYLAYER
 70
     0
  3

 72
    65
 73
     0
 40
0.0
  0
LTYPE
  5
16
330
5
100
AcDbSymbolTableRecord
100
AcDbLinetypeTableRecord
  2
CONTINUOUS
 70
     0
  3
Solid line
 72
    65
 73
     0
 40
0.0
  0
ENDTAB
  0
TABLE
  2
LAYER
  5
2
100
AcDbSymbolTable
 70
2
  0
LAYER
  5
50
100
AcDbSymbolTableRecord
100
AcDbLayerTableRecord
  2
0
 70
0
  6
CONTINUOUS
  0
LAYER
  5
51
100
AcDbSymbolTableRecord
100
AcDbLayerTableRecord
  2
Layer_1
 70
0
  6
CONTINUOUS
  0
ENDTAB
  0
TABLE
  2
STYLE
  5
3
330
0
100
AcDbSymbolTable
 70
     1
  0
STYLE
  5
11
330
3
100
AcDbSymbolTableRecord
100
AcDbTextStyleTableRecord
  2
STANDARD
 70
     0
 40
0.0
 41
1.0
 50
0.0
 71
     0
 42
2.5
  3
txt
  4

  0
ENDTAB
  0
TABLE
  2
VIEW
  5
6
330
0
100
AcDbSymbolTable
 70
     0
  0
ENDTAB
  0
TABLE
  2
UCS
  5
7
330
0
100
AcDbSymbolTable
 70
     0
  0
ENDTAB
  0
TABLE
  2
APPID
  5
9
330
0
100
AcDbSymbolTable
 70
     2
  0
APPID
  5
12
330
9
100
AcDbSymbolTableRecord
100
AcDbRegAppTableRecord
  2
ACAD
 70
     0
  0
ENDTAB
  0
TABLE
  2
DIMSTYLE
  5
A
330
0
100
AcDbSymbolTable
 70
     1
  0
DIMSTYLE
105
27
330
A
100
AcDbSymbolTableRecord
100
AcDbDimStyleTableRecord
  2
ISO-25
 70
     0
  3

  4

  5

  6

  7

 40
1.0
 41
2.5
 42
0.625
 43
3.75
 44
1.25
 45
0.0
 46
0.0
 47
0.0
 48
0.0
140
2.5
141
2.5
142
0.0
143
0.03937007874016
144
1.0
145
0.0
146
1.0
147
0.625
 71
     0
 72
     0
 73
     0
 74
     0
 75
     0
 76
     0
 77
     1
 78
     8
170
     0
171
     3
172
     1
173
     0
174
     0
175
     0
176
     0
177
     0
178
     0
270
     2
271
     2
272
     2
273
     2
274
     3
340
11
275
     0
280
     0
281
     0
282
     0
283
     0
284
     8
285
     0
286
     0
287
     3
288
     0
  0
ENDTAB
  0
TABLE
  2
BLOCK_RECORD
  5
1
330
0
100
AcDbSymbolTable
 70
     1
  0
BLOCK_RECORD
  5
1F
330
1
100
AcDbSymbolTableRecord
100
AcDbBlockTableRecord
  2
*MODEL_SPACE
  0
BLOCK_RECORD
  5
1B
330
1
100
AcDbSymbolTableRecord
100
AcDbBlockTableRecord
  2
*PAPER_SPACE
  0
ENDTAB
  0
ENDSEC
  0
SECTION
  2
BLOCKS
  0
BLOCK
  5
20
330
1F
100
AcDbEntity
  8
0
100
AcDbBlockBegin
  2
*MODEL_SPACE
 70
     0
 10
0.0
 20
0.0
 30
0.0
  3
*MODEL_SPACE
  1

  0
ENDBLK
  5
21
330
1F
100
AcDbEntity
  8
0
100
AcDbBlockEnd
  0
BLOCK
  5
1C
330
1B
100
AcDbEntity
 67
     1
  8
0
100
AcDbBlockBegin
  2
*PAPER_SPACE
  1

  0
ENDBLK
  5
1D
330
1B
100
AcDbEntity
 67
     1
  8
0
100
AcDbBlockEnd
  0
ENDSEC
  0
SECTION
  2
ENTITIES
  0
SPLINE
  5
100
100
AcDbEntity
  8
Layer_1
 62
7
100
AcDbSpline
 70
8
 71
3
 72
8
 73
4
 74
0
 40
0
 40
0
 40
0
 40
0
 40
1
 40
1
 40
1
 40
1
 10
4.758830
 20
20.506101
 30
0.0
 10
4.741230
 20
20.579134
 30
0.0
 10
4.664595
 20
20.773348
 30
0.0
 10
4.588530
 20
20.937686
 30
0.0
  0
LWPOLYLINE
  5
101
100
AcDbEntity
  8
Layer_1
 62
7
100
AcDbPolyline
 90
5
 70
0
 10
0.193146
 20
19.987022
 30
0.0
 10
0.193146
 20
20.373313
 30
0.0
 10
2.491987
 20
20.373313
 30
0.0
 10
4.790829
 20
20.373313
 30
0.0
 10
4.758830
 20
20.506101
 30
0.0
  0
SPLINE
  5
102
100
AcDbEntity
  8
Layer_1
 62
7
100
AcDbSpline
 70
8
 71
3
 72
8
 73
4
 74
0
 40
0
 40
0
 40
0
 40
0
 40
1
 40
1
 40
1
 40
1
 10
4.878468
 20
21.380106
 30
0.0
 10
5.196083
 20
21.486629
 30
0.0
 10
5.318357
 20
21.509231
 30
0.0
 10
5.351807
 20
21.467601
 30
0.0
  0
SPLINE
  5
103
100
AcDbEntity
  8
Layer_1
 62
7
100
AcDbSpline
 70
8
 71
3
 72
8
 73
4
 74
0
 40
0
 40
0
 40
0
 40
0
 40
1
 40
1
 40
1
 40
1
 10
5.351807
 20
21.467601
 30
0.0
 10
5.427353
 20
21.373586
 30
0.0
 10
5.729015
 20
20.746982
 30
0.0
 10
5.791450
 20
20.554388
 30
0.0
  0
LWPOLYLINE
  5
104
100
AcDbEntity
  8
Layer_1
 62
7
100
AcDbPolyline
 90
3
 70
0
 10
4.588530
 20
20.937686
 30
0.0
 10
4.450230
 20
21.236483
 30
0.0
 10
4.878468
 20
21.380106
 30
0.0
  0
SPLINE
  5
105
100
AcDbEntity
  8
Layer_1
 62
7
100
AcDbSpline
 70
8
 71
3
 72
8
 73
4
 74
0
 40
0
 40
0
 40
0
 40
0
 40
1
 40
1
 40
1
 40
1
 10
3.848036
 20
11.808345
 30
0.0
 10
3.597860
 20
12.255269
 30
0.0
 10
3.595753
 20
12.261016
 30
0.0
 10
3.681843
 20
12.261593
 30
0.0
  0
SPLINE
  5
106
100
AcDbEntity
  8
Layer_1
 62
7
100
AcDbSpline
 70
8
 71
3
 72
8
 73
4
 74
0
 40
0
 40
0
 40
0
 40
0
 40
1
 40
1
 40
1
 40
1
 10
3.681843
 20
12.261593
 30
0.0
 10
3.715040
 20
12.261834
 30
0.0
 10
3.981219
 20
12.365453
 30
0.0
 10
4.273352
 20
12.491900
 30
0.0
  0
SPLINE
  5
107
100
AcDbEntity
  8
Layer_1
 62
7
100
AcDbSpline
 70
8
 71
3
 72
8
 73
4
 74
0
 40
0
 40
0
 40
0
 40
0
 40
1
 40
1
 40
1
 40
1
 10
4.273352
 20
12.491900
 30
0.0
 10
4.793680
 20
12.717118
 30
0.0
 10
5.549373
 20
13.168477
 30
0.0
 10
5.799953
 20
13.403705
 30
0.0
  0
LWPOLYLINE
  5
108
100
AcDbEntity
  8
Layer_1
 62
7
100
AcDbPolyline
 90
10
 70
0
 10
5.791450
 20
20.554388
 30
0.0
 10
5.850151
 20
20.373313
 30
0.0
 10
8.019297
 20
20.373313
 30
0.0
 10
10.188443
 20
20.373313
 30
0.0
 10
10.188443
 20
19.987022
 30
0.0
 10
10.188443
 20
19.600730
 30
0.0
 10
5.190794
 20
19.600730
 30
0.0
 10
0.193146
 20
19.600730
 30
0.0
 10
0.193146
 20
19.987022
 30
0.0
 10
0.193146
 20
19.987022
 30
0.0
  0
SPLINE
  5
109
100
AcDbEntity
  8
Layer_1
 62
7
100
AcDbSpline
 70
8
 71
3
 72
8
 73
4
 74
0
 40
0
 40
0
 40
0
 40
0
 40
1
 40
1
 40
1
 40
1
 10
5.292945
 20
14.162490
 30
0.0
 10
4.944629
 20
14.514615
 30
0.0
 10
4.561863
 20
14.936189
 30
0.0
 10
4.442354
 20
15.099321
 30
0.0
  0
SPLINE
  5
10a
100
AcDbEntity
  8
Layer_1
 62
7
100
AcDbSpline
 70
8
 71
3
 72
8
 73
4
 74
0
 40
0
 40
0
 40
0
 40
0
 40
1
 40
1
 40
1
 40
1
 10
4.442354
 20
15.099321
 30
0.0
 10
4.322845
 20
15.262453
 30
0.0
 10
4.212888
 20
15.396798
 30
0.0
 10
4.198006
 20
15.397867
 30
0.0
  0
SPLINE
  5
10b
100
AcDbEntity
  8
Layer_1
 62
7
100
AcDbSpline
 70
8
 71
3
 72
8
 73
4
 74
0
 40
0
 40
0
 40
0
 40
0
 40
1
 40
1
 40
1
 40
1
 10
4.198006
 20
15.397867
 30
0.0
 10
4.183124
 20
15.398939
 30
0.0
 10
4.044174
 20
15.253138
 30
0.0
 10
3.889229
 20
15.073875
 30
0.0
  0
SPLINE
  5
10c
100
AcDbEntity
  8
Layer_1
 62
7
100
AcDbSpline
 70
8
 71
3
 72
8
 73
4
 74
0
 40
0
 40
0
 40
0
 40
0
 40
1
 40
1
 40
1
 40
1
 10
3.889229
 20
15.073875
 30
0.0
 10
3.734285
 20
14.894611
 30
0.0
 10
3.594359
 20
14.747941
 30
0.0
 10
3.578283
 20
14.747941
 30
0.0
  0
SPLINE
  5
10d
100
AcDbEntity
  8
Layer_1
 62
7
100
AcDbSpline
 70
8
 71
3
 72
8
 73
4
 74
0
 40
0
 40
0
 40
0
 40
0
 40
1
 40
1
 40
1
 40
1
 10
3.578283
 20
14.747941
 30
0.0
 10
3.562208
 20
14.747941
 30
0.0
 10
3.434728
 20
14.869814
 30
0.0
 10
3.294995
 20
15.018770
 30
0.0
  0
LWPOLYLINE
  5
10e
100
AcDbEntity
  8
Layer_1
 62
7
100
AcDbPolyline
 90
3
 70
0
 10
5.799953
 20
13.403705
 30
0.0
 10
5.926247
 20
13.522261
 30
0.0
 10
5.292945
 20
14.162490
 30
0.0
  0
SPLINE
  5
10f
100
AcDbEntity
  8
Layer_1
 62
7
100
AcDbSpline
 70
8
 71
3
 72
8
 73
4
 74
0
 40
0
 40
0
 40
0
 40
0
 40
1
 40
1
 40
1
 40
1
 10
3.307311
 20
15.614574
 30
0.0
 10
3.959273
 20
16.409956
 30
0.0
 10
4.537068
 20
17.427470
 30
0.0
 10
4.974272
 20
18.550137
 30
0.0
  0
SPLINE
  5
110
100
AcDbEntity
  8
Layer_1
 62
7
100
AcDbSpline
 70
8
 71
3
 72
8
 73
4
 74
0
 40
0
 40
0
 40
0
 40
0
 40
1
 40
1
 40
1
 40
1
 10
4.974272
 20
18.550137
 30
0.0
 10
5.111387
 20
18.902224
 30
0.0
 10
5.230016
 20
19.196872
 30
0.0
 10
5.237893
 20
19.204910
 30
0.0
  0
SPLINE
  5
111
100
AcDbEntity
  8
Layer_1
 62
7
100
AcDbSpline
 70
8
 71
3
 72
8
 73
4
 74
0
 40
0
 40
0
 40
0
 40
0
 40
1
 40
1
 40
1
 40
1
 10
5.237893
 20
19.204910
 30
0.0
 10
5.254951
 20
19.222318
 30
0.0
 10
5.986966
 20
19.037943
 30
0.0
 10
6.015978
 20
19.008932
 30
0.0
  0
SPLINE
  5
112
100
AcDbEntity
  8
Layer_1
 62
7
100
AcDbSpline
 70
8
 71
3
 72
8
 73
4
 74
0
 40
0
 40
0
 40
0
 40
0
 40
1
 40
1
 40
1
 40
1
 10
6.015978
 20
19.008932
 30
0.0
 10
6.027021
 20
18.997888
 30
0.0
 10
5.992545
 20
18.862376
 30
0.0
 10
5.939360
 20
18.707794
 30
0.0
  0
SPLINE
  5
113
100
AcDbEntity
  8
Layer_1
 62
7
100
AcDbSpline
 70
8
 71
3
 72
8
 73
4
 74
0
 40
0
 40
0
 40
0
 40
0
 40
1
 40
1
 40
1
 40
1
 10
5.939360
 20
18.707794
 30
0.0
 10
5.886176
 20
18.553212
 30
0.0
 10
5.842662
 20
18.408410
 30
0.0
 10
5.842662
 20
18.386010
 30
0.0
  0
SPLINE
  5
114
100
AcDbEntity
  8
Layer_1
 62
7
100
AcDbSpline
 70
8
 71
3
 72
8
 73
4
 74
0
 40
0
 40
0
 40
0
 40
0
 40
1
 40
1
 40
1
 40
1
 10
5.842662
 20
18.386010
 30
0.0
 10
5.842662
 20
18.363610
 30
0.0
 10
6.657496
 20
18.345282
 30
0.0
 10
7.653404
 20
18.345282
 30
0.0
  0
LWPOLYLINE
  5
115
100
AcDbEntity
  8
Layer_1
 62
7
100
AcDbPolyline
 90
3
 70
0
 10
3.294995
 20
15.018770
 30
0.0
 10
3.040935
 20
15.289599
 30
0.0
 10
3.307311
 20
15.614574
 30
0.0
  0
SPLINE
  5
116
100
AcDbEntity
  8
Layer_1
 62
7
100
AcDbSpline
 70
8
 71
3
 72
8
 73
4
 74
0
 40
0
 40
0
 40
0
 40
0
 40
1
 40
1
 40
1
 40
1
 10
9.464146
 20
18.036506
 30
0.0
 10
9.464146
 20
17.682607
 30
0.0
 10
9.363290
 20
17.324433
 30
0.0
 10
9.023617
 20
16.472030
 30
0.0
  0
SPLINE
  5
117
100
AcDbEntity
  8
Layer_1
 62
7
100
AcDbSpline
 70
8
 71
3
 72
8
 73
4
 74
0
 40
0
 40
0
 40
0
 40
0
 40
1
 40
1
 40
1
 40
1
 10
9.023617
 20
16.472030
 30
0.0
 10
8.579323
 20
15.357085
 30
0.0
 10
8.144969
 20
14.603228
 30
0.0
 10
7.561174
 20
13.933839
 30
0.0
  0
LWPOLYLINE
  5
118
100
AcDbEntity
  8
Layer_1
 62
7
100
AcDbPolyline
 90
3
 70
0
 10
7.653404
 20
18.345282
 30
0.0
 10
9.464146
 20
18.345282
 30
0.0
 10
9.464146
 20
18.036506
 30
0.0
  0
SPLINE
  5
119
100
AcDbEntity
  8
Layer_1
 62
7
100
AcDbSpline
 70
8
 71
3
 72
8
 73
4
 74
0
 40
0
 40
0
 40
0
 40
0
 40
1
 40
1
 40
1
 40
1
 10
7.376434
 20
13.478698
 30
0.0
 10
7.864154
 20
13.139664
 30
0.0
 10
8.938982
 20
12.614491
 30
0.0
 10
9.715068
 20
12.336015
 30
0.0
  0
LWPOLYLINE
  5
11a
100
AcDbEntity
  8
Layer_1
 62
7
100
AcDbPolyline
 90
3
 70
0
 10
7.561174
 20
13.933839
 30
0.0
 10
7.244325
 20
13.570534
 30
0.0
 10
7.376434
 20
13.478698
 30
0.0
  0
SPLINE
  5
11b
100
AcDbEntity
  8
Layer_1
 62
7
100
AcDbSpline
 70
8
 71
3
 72
8
 73
4
 74
0
 40
0
 40
0
 40
0
 40
0
 40
1
 40
1
 40
1
 40
1
 10
9.493195
 20
11.475439
 30
0.0
 10
8.662839
 20
11.797811
 30
0.0
 10
7.704957
 20
12.291701
 30
0.0
 10
7.015421
 20
12.752996
 30
0.0
  0
LWPOLYLINE
  5
11c
100
AcDbEntity
  8
Layer_1
 62
7
100
AcDbPolyline
 90
5
 70
0
 10
9.715068
 20
12.336015
 30
0.0
 10
10.134994
 20
12.185337
 30
0.0
 10
9.913121
 20
11.791943
 30
0.0
 10
9.691247
 20
11.398549
 30
0.0
 10
9.493195
 20
11.475439
 30
0.0
  0
SPLINE
  5
11d
100
AcDbEntity
  8
Layer_1
 62
7
100
AcDbSpline
 70
8
 71
3
 72
8
 73
4
 74
0
 40
0
 40
0
 40
0
 40
0
 40
1
 40
1
 40
1
 40
1
 10
6.202385
 20
12.622671
 30
0.0
 10
5.661026
 20
12.199492
 30
0.0
 10
4.999848
 20
11.799652
 30
0.0
 10
4.457755
 20
11.567627
 30
0.0
  0
LWPOLYLINE
  5
11e
100
AcDbEntity
  8
Layer_1
 62
7
100
AcDbPolyline
 90
3
 70
0
 10
7.015421
 20
12.752996
 30
0.0
 10
6.667157
 20
12.985982
 30
0.0
 10
6.202385
 20
12.622671
 30
0.0
  0
SPLINE
  5
11f
100
AcDbEntity
  8
Layer_1
 62
7
100
AcDbSpline
 70
8
 71
3
 72
8
 73
4
 74
0
 40
0
 40
0
 40
0
 40
0
 40
1
 40
1
 40
1
 40
1
 10
6.742976
 20
14.253005
 30
0.0
 10
7.338459
 20
14.890121
 30
0.0
 10
7.979710
 20
16.010080
 30
0.0
 10
8.375533
 20
17.104302
 30
0.0
  0
SPLINE
  5
120
100
AcDbEntity
  8
Layer_1
 62
7
100
AcDbSpline
 70
8
 71
3
 72
8
 73
4
 74
0
 40
0
 40
0
 40
0
 40
0
 40
1
 40
1
 40
1
 40
1
 10
8.375533
 20
17.104302
 30
0.0
 10
8.469676
 20
17.364555
 30
0.0
 10
8.546703
 20
17.587277
 30
0.0
 10
8.546703
 20
17.599238
 30
0.0
  0
SPLINE
  5
121
100
AcDbEntity
  8
Layer_1
 62
7
100
AcDbSpline
 70
8
 71
3
 72
8
 73
4
 74
0
 40
0
 40
0
 40
0
 40
0
 40
1
 40
1
 40
1
 40
1
 10
8.546703
 20
17.599238
 30
0.0
 10
8.546703
 20
17.611198
 30
0.0
 10
7.862061
 20
17.620986
 30
0.0
 10
7.025275
 20
17.620986
 30
0.0
  0
LWPOLYLINE
  5
122
100
AcDbEntity
  8
Layer_1
 62
7
100
AcDbPolyline
 90
5
 70
0
 10
4.457755
 20
11.567627
 30
0.0
 10
4.074588
 20
11.403624
 30
0.0
 10
3.848036
 20
11.808345
 30
0.0
 10
3.848036
 20
11.808345
 30
0.0
 10
3.848036
 20
11.808345
 30
0.0
  0
SPLINE
  5
123
100
AcDbEntity
  8
Layer_1
 62
7
100
AcDbSpline
 70
8
 71
3
 72
8
 73
4
 74
0
 40
0
 40
0
 40
0
 40
0
 40
1
 40
1
 40
1
 40
1
 10
5.317973
 20
17.218663
 30
0.0
 10
5.215743
 20
16.997385
 30
0.0
 10
5.041204
 20
16.660705
 30
0.0
 10
4.930109
 20
16.470484
 30
0.0
  0
LWPOLYLINE
  5
124
100
AcDbEntity
  8
Layer_1
 62
7
100
AcDbPolyline
 90
3
 70
0
 10
7.025275
 20
17.620986
 30
0.0
 10
5.503847
 20
17.620986
 30
0.0
 10
5.317973
 20
17.218663
 30
0.0
  0
SPLINE
  5
125
100
AcDbEntity
  8
Layer_1
 62
7
100
AcDbSpline
 70
8
 71
3
 72
8
 73
4
 74
0
 40
0
 40
0
 40
0
 40
0
 40
1
 40
1
 40
1
 40
1
 10
4.926835
 20
15.832007
 30
0.0
 10
5.245929
 20
15.362120
 30
0.0
 10
5.803099
 20
14.723478
 30
0.0
 10
6.178023
 20
14.397865
 30
0.0
  0
SPLINE
  5
126
100
AcDbEntity
  8
Layer_1
 62
7
100
AcDbSpline
 70
8
 71
3
 72
8
 73
4
 74
0
 40
0
 40
0
 40
0
 40
0
 40
1
 40
1
 40
1
 40
1
 10
6.178023
 20
14.397865
 30
0.0
 10
6.369144
 20
14.231880
 30
0.0
 10
6.541442
 20
14.096075
 30
0.0
 10
6.560908
 20
14.096075
 30
0.0
  0
SPLINE
  5
127
100
AcDbEntity
  8
Layer_1
 62
7
100
AcDbSpline
 70
8
 71
3
 72
8
 73
4
 74
0
 40
0
 40
0
 40
0
 40
0
 40
1
 40
1
 40
1
 40
1
 10
6.560908
 20
14.096075
 30
0.0
 10
6.580373
 20
14.096075
 30
0.0
 10
6.662305
 20
14.166693
 30
0.0
 10
6.742976
 20
14.253005
 30
0.0
  0
LWPOLYLINE
  5
128
100
AcDbEntity
  8
Layer_1
 62
7
100
AcDbPolyline
 90
3
 70
0
 10
4.930109
 20
16.470484
 30
0.0
 10
4.728119
 20
16.124630
 30
0.0
 10
4.926835
 20
15.832007
 30
0.0
  0
SPLINE
  5
129
100
AcDbEntity
  8
Layer_1
 62
7
100
AcDbSpline
 70
8
 71
3
 72
8
 73
4
 74
0
 40
0
 40
0
 40
0
 40
0
 40
1
 40
1
 40
1
 40
1
 10
6.457978
 20
15.605026
 30
0.0
 10
6.338471
 20
15.744453
 30
0.0
 10
6.086730
 20
15.988903
 30
0.0
 10
5.898554
 20
16.148248
 30
0.0
  0
LWPOLYLINE
  5
12a
100
AcDbEntity
  8
Layer_1
 62
7
100
AcDbPolyline
 90
3
 70
0
 10
6.742976
 20
14.253005
 30
0.0
 10
6.742976
 20
14.253005
 30
0.0
 10
6.742976
 20
14.253005
 30
0.0
  0
SPLINE
  5
12b
100
AcDbEntity
  8
Layer_1
 62
7
100
AcDbSpline
 70
8
 71
3
 72
8
 73
4
 74
0
 40
0
 40
0
 40
0
 40
0
 40
1
 40
1
 40
1
 40
1
 10
6.271658
 20
16.828127
 30
0.0
 10
6.378054
 20
16.754394
 30
0.0
 10
6.631372
 20
16.538665
 30
0.0
 10
6.834587
 20
16.348728
 30
0.0
  0
LWPOLYLINE
  5
12c
100
AcDbEntity
  8
Layer_1
 62
7
100
AcDbPolyline
 90
5
 70
0
 10
5.898554
 20
16.148248
 30
0.0
 10
5.556415
 20
16.437967
 30
0.0
 10
5.817313
 20
16.700076
 30
0.0
 10
6.078211
 20
16.962186
 30
0.0
 10
6.271658
 20
16.828127
 30
0.0
  0
SPLINE
  5
12d
100
AcDbEntity
  8
Layer_1
 62
7
100
AcDbSpline
 70
8
 71
3
 72
8
 73
4
 74
0
 40
0
 40
0
 40
0
 40
0
 40
1
 40
1
 40
1
 40
1
 10
6.956325
 20
15.677455
 30
0.0
 10
6.820065
 20
15.498192
 30
0.0
 10
6.701084
 20
15.351522
 30
0.0
 10
6.691922
 20
15.351522
 30
0.0
  0
SPLINE
  5
12e
100
AcDbEntity
  8
Layer_1
 62
7
100
AcDbSpline
 70
8
 71
3
 72
8
 73
4
 74
0
 40
0
 40
0
 40
0
 40
0
 40
1
 40
1
 40
1
 40
1
 10
6.691922
 20
15.351522
 30
0.0
 10
6.682758
 20
15.351522
 30
0.0
 10
6.577484
 20
15.465599
 30
0.0
 10
6.457978
 20
15.605026
 30
0.0
  0
LWPOLYLINE
  5
12f
100
AcDbEntity
  8
Layer_1
 62
7
100
AcDbPolyline
 90
3
 70
0
 10
6.834587
 20
16.348728
 30
0.0
 10
7.204069
 20
16.003389
 30
0.0
 10
6.956325
 20
15.677455
 30
0.0
  0
LWPOLYLINE
  5
130
100
AcDbEntity
  8
Layer_1
 62
7
100
AcDbPolyline
 90
2
 70
0
 10
6.457978
 20
15.605026
 30
0.0
 10
6.457978
 20
15.605026
 30
0.0
  0
SPLINE
  5
131
100
AcDbEntity
  8
Layer_1
 62
7
100
AcDbSpline
 70
8
 71
3
 72
8
 73
4
 74
0
 40
0
 40
0
 40
0
 40
0
 40
1
 40
1
 40
1
 40
1
 10
1.221505
 20
14.907784
 30
0.0
 10
1.056769
 20
14.687083
 30
0.0
 10
0.836586
 20
14.408729
 30
0.0
 10
0.732208
 20
14.289220
 30
0.0
  0
LWPOLYLINE
  5
132
100
AcDbEntity
  8
Layer_1
 62
7
100
AcDbPolyline
 90
3
 70
0
 10
1.533643
 20
13.374689
 30
0.0
 10
1.521024
 20
15.309059
 30
0.0
 10
1.221505
 20
14.907784
 30
0.0
  0
SPLINE
  5
133
100
AcDbEntity
  8
Layer_1
 62
7
100
AcDbSpline
 70
8
 71
3
 72
8
 73
4
 74
0
 40
0
 40
0
 40
0
 40
0
 40
1
 40
1
 40
1
 40
1
 10
0.373130
 20
15.210975
 30
0.0
 10
1.175523
 20
16.236933
 30
0.0
 10
1.896150
 20
17.518725
 30
0.0
 10
2.342890
 20
18.714621
 30
0.0
  0
SPLINE
  5
134
100
AcDbEntity
  8
Layer_1
 62
7
100
AcDbSpline
 70
8
 71
3
 72
8
 73
4
 74
0
 40
0
 40
0
 40
0
 40
0
 40
1
 40
1
 40
1
 40
1
 10
2.342890
 20
18.714621
 30
0.0
 10
2.440621
 20
18.976242
 30
0.0
 10
2.526907
 20
19.196988
 30
0.0
 10
2.534636
 20
19.205168
 30
0.0
  0
SPLINE
  5
135
100
AcDbEntity
  8
Layer_1
 62
7
100
AcDbSpline
 70
8
 71
3
 72
8
 73
4
 74
0
 40
0
 40
0
 40
0
 40
0
 40
1
 40
1
 40
1
 40
1
 10
2.534636
 20
19.205168
 30
0.0
 10
2.571256
 20
19.243924
 30
0.0
 10
3.282632
 20
18.989744
 30
0.0
 10
3.283027
 20
18.937762
 30
0.0
  0
SPLINE
  5
136
100
AcDbEntity
  8
Layer_1
 62
7
100
AcDbSpline
 70
8
 71
3
 72
8
 73
4
 74
0
 40
0
 40
0
 40
0
 40
0
 40
1
 40
1
 40
1
 40
1
 10
3.283027
 20
18.937762
 30
0.0
 10
3.283705
 20
18.848249
 30
0.0
 10
2.921518
 20
17.957698
 30
0.0
 10
2.652363
 20
17.387088
 30
0.0
  0
LWPOLYLINE
  5
137
100
AcDbEntity
  8
Layer_1
 62
7
100
AcDbPolyline
 90
5
 70
0
 10
0.732208
 20
14.289220
 30
0.0
 10
0.542429
 20
14.071931
 30
0.0
 10
0.336732
 20
14.486678
 30
0.0
 10
0.131034
 20
14.901424
 30
0.0
 10
0.373130
 20
15.210975
 30
0.0
  0
LWPOLYLINE
  5
138
100
AcDbEntity
  8
Layer_1
 62
7
100
AcDbPolyline
 90
8
 70
0
 10
2.652363
 20
17.387088
 30
0.0
 10
2.414323
 20
16.882444
 30
0.0
 10
2.414323
 20
14.161381
 30
0.0
 10
2.414323
 20
11.440319
 30
0.0
 10
1.980293
 20
11.440319
 30
0.0
 10
1.546262
 20
11.440319
 30
0.0
 10
1.533643
 20
13.374689
 30
0.0
 10
1.533643
 20
13.374689
 30
0.0
  0
SPLINE
  5
139
100
AcDbEntity
  8
Layer_1
 62
7
100
AcDbSpline
 70
8
 71
3
 72
8
 73
4
 74
0
 40
0
 40
0
 40
0
 40
0
 40
1
 40
1
 40
1
 40
1
 10
0.256131
 20
23.519378
 30
0.0
 10
0.815932
 20
24.354187
 30
0.0
 10
1.060504
 20
25.528227
 30
0.0
 10
1.061804
 20
27.386921
 30
0.0
  0
LWPOLYLINE
  5
13a
100
AcDbEntity
  8
Layer_1
 62
7
100
AcDbPolyline
 90
3
 70
0
 10
0.322712
 20
22.923552
 30
0.0
 10
0.044867
 20
23.204327
 30
0.0
 10
0.256131
 20
23.519378
 30
0.0
  0
SPLINE
  5
13b
100
AcDbEntity
  8
Layer_1
 62
7
100
AcDbSpline
 70
8
 71
3
 72
8
 73
4
 74
0
 40
0
 40
0
 40
0
 40
0
 40
1
 40
1
 40
1
 40
1
 10
3.138621
 20
26.360834
 30
0.0
 10
3.138621
 20
25.306848
 30
0.0
 10
3.156508
 20
24.622522
 30
0.0
 10
3.184058
 20
24.622522
 30
0.0
  0
SPLINE
  5
13c
100
AcDbEntity
  8
Layer_1
 62
7
100
AcDbSpline
 70
8
 71
3
 72
8
 73
4
 74
0
 40
0
 40
0
 40
0
 40
0
 40
1
 40
1
 40
1
 40
1
 10
3.184058
 20
24.622522
 30
0.0
 10
3.209048
 20
24.622522
 30
0.0
 10
3.420904
 20
24.751034
 30
0.0
 10
3.654851
 20
24.908104
 30
0.0
  0
LWPOLYLINE
  5
13d
100
AcDbEntity
  8
Layer_1
 62
7
100
AcDbPolyline
 90
21
 70
0
 10
1.061804
 20
27.386921
 30
0.0
 10
1.062304
 20
28.099147
 30
0.0
 10
0.603582
 20
28.099147
 30
0.0
 10
0.144861
 20
28.099147
 30
0.0
 10
0.144861
 20
28.461295
 30
0.0
 10
0.144861
 20
28.823444
 30
0.0
 10
0.941587
 20
28.823444
 30
0.0
 10
1.738314
 20
28.823444
 30
0.0
 10
1.738314
 20
30.803188
 30
0.0
 10
1.738314
 20
32.782933
 30
0.0
 10
2.100462
 20
32.782933
 30
0.0
 10
2.462611
 20
32.782933
 30
0.0
 10
2.462611
 20
30.803188
 30
0.0
 10
2.462611
 20
28.823444
 30
0.0
 10
3.283481
 20
28.823444
 30
0.0
 10
4.104350
 20
28.823444
 30
0.0
 10
4.104350
 20
28.461295
 30
0.0
 10
4.104350
 20
28.099147
 30
0.0
 10
3.621486
 20
28.099147
 30
0.0
 10
3.138621
 20
28.099147
 30
0.0
 10
3.138621
 20
26.360834
 30
0.0
  0
SPLINE
  5
13e
100
AcDbEntity
  8
Layer_1
 62
7
100
AcDbSpline
 70
8
 71
3
 72
8
 73
4
 74
0
 40
0
 40
0
 40
0
 40
0
 40
1
 40
1
 40
1
 40
1
 10
4.188509
 20
24.875570
 30
0.0
 10
4.248075
 20
24.700607
 30
0.0
 10
4.291533
 20
24.553234
 30
0.0
 10
4.285082
 20
24.548076
 30
0.0
  0
SPLINE
  5
13f
100
AcDbEntity
  8
Layer_1
 62
7
100
AcDbSpline
 70
8
 71
3
 72
8
 73
4
 74
0
 40
0
 40
0
 40
0
 40
0
 40
1
 40
1
 40
1
 40
1
 10
4.285082
 20
24.548076
 30
0.0
 10
3.896027
 20
24.236977
 30
0.0
 10
3.243063
 20
23.744142
 30
0.0
 10
3.048964
 20
23.615096
 30
0.0
  0
LWPOLYLINE
  5
140
100
AcDbEntity
  8
Layer_1
 62
7
100
AcDbPolyline
 90
3
 70
0
 10
3.654851
 20
24.908104
 30
0.0
 10
4.080207
 20
25.193687
 30
0.0
 10
4.188509
 20
24.875570
 30
0.0
  0
SPLINE
  5
141
100
AcDbEntity
  8
Layer_1
 62
7
100
AcDbSpline
 70
8
 71
3
 72
8
 73
4
 74
0
 40
0
 40
0
 40
0
 40
0
 40
1
 40
1
 40
1
 40
1
 10
1.833961
 20
27.893929
 30
0.0
 10
1.831695
 20
27.391711
 30
0.0
 10
1.731987
 20
25.900920
 30
0.0
 10
1.666835
 20
25.395105
 30
0.0
  0
SPLINE
  5
142
100
AcDbEntity
  8
Layer_1
 62
7
100
AcDbSpline
 70
8
 71
3
 72
8
 73
4
 74
0
 40
0
 40
0
 40
0
 40
0
 40
1
 40
1
 40
1
 40
1
 10
1.666835
 20
25.395105
 30
0.0
 10
1.573407
 20
24.669753
 30
0.0
 10
1.437346
 20
24.161814
 30
0.0
 10
1.201195
 20
23.656793
 30
0.0
  0
SPLINE
  5
143
100
AcDbEntity
  8
Layer_1
 62
7
100
AcDbSpline
 70
8
 71
3
 72
8
 73
4
 74
0
 40
0
 40
0
 40
0
 40
0
 40
1
 40
1
 40
1
 40
1
 10
1.201195
 20
23.656793
 30
0.0
 10
1.048859
 20
23.331012
 30
0.0
 10
0.646564
 20
22.642777
 30
0.0
 10
0.608472
 20
22.642777
 30
0.0
  0
SPLINE
  5
144
100
AcDbEntity
  8
Layer_1
 62
7
100
AcDbSpline
 70
8
 71
3
 72
8
 73
4
 74
0
 40
0
 40
0
 40
0
 40
0
 40
1
 40
1
 40
1
 40
1
 10
0.608472
 20
22.642777
 30
0.0
 10
0.604120
 20
22.642777
 30
0.0
 10
0.475530
 20
22.769126
 30
0.0
 10
0.322715
 20
22.923552
 30
0.0
  0
LWPOLYLINE
  5
145
100
AcDbEntity
  8
Layer_1
 62
7
100
AcDbPolyline
 90
9
 70
0
 10
3.048964
 20
23.615096
 30
0.0
 10
2.790305
 20
23.443128
 30
0.0
 10
2.602315
 20
23.644664
 30
0.0
 10
2.414324
 20
23.846199
 30
0.0
 10
2.414324
 20
25.972673
 30
0.0
 10
2.414324
 20
28.099147
 30
0.0
 10
2.124606
 20
28.099147
 30
0.0
 10
1.834887
 20
28.099147
 30
0.0
 10
1.833961
 20
27.893929
 30
0.0
  0
SPLINE
  5
146
100
AcDbEntity
  8
Layer_1
 62
7
100
AcDbSpline
 70
8
 71
3
 72
8
 73
4
 74
0
 40
0
 40
0
 40
0
 40
0
 40
1
 40
1
 40
1
 40
1
 10
3.033296
 20
29.331937
 30
0.0
 10
2.908974
 20
29.396676
 30
0.0
 10
2.793788
 20
29.471436
 30
0.0
 10
2.777326
 20
29.498071
 30
0.0
  0
SPLINE
  5
147
100
AcDbEntity
  8
Layer_1
 62
7
100
AcDbSpline
 70
8
 71
3
 72
8
 73
4
 74
0
 40
0
 40
0
 40
0
 40
0
 40
1
 40
1
 40
1
 40
1
 10
2.777326
 20
29.498071
 30
0.0
 10
2.760865
 20
29.524706
 30
0.0
 10
2.813542
 20
29.752992
 30
0.0
 10
2.894386
 20
30.005372
 30
0.0
  0
SPLINE
  5
148
100
AcDbEntity
  8
Layer_1
 62
7
100
AcDbSpline
 70
8
 71
3
 72
8
 73
4
 74
0
 40
0
 40
0
 40
0
 40
0
 40
1
 40
1
 40
1
 40
1
 10
2.894386
 20
30.005372
 30
0.0
 10
3.062176
 20
30.529176
 30
0.0
 10
3.330859
 20
31.559723
 30
0.0
 10
3.331402
 20
31.681567
 30
0.0
  0
SPLINE
  5
149
100
AcDbEntity
  8
Layer_1
 62
7
100
AcDbSpline
 70
8
 71
3
 72
8
 73
4
 74
0
 40
0
 40
0
 40
0
 40
0
 40
1
 40
1
 40
1
 40
1
 10
3.331402
 20
31.681567
 30
0.0
 10
3.331602
 20
31.726475
 30
0.0
 10
3.352165
 20
31.775826
 30
0.0
 10
3.377098
 20
31.791235
 30
0.0
  0
SPLINE
  5
14a
100
AcDbEntity
  8
Layer_1
 62
7
100
AcDbSpline
 70
8
 71
3
 72
8
 73
4
 74
0
 40
0
 40
0
 40
0
 40
0
 40
1
 40
1
 40
1
 40
1
 10
3.377098
 20
31.791235
 30
0.0
 10
3.442387
 20
31.831586
 30
0.0
 10
4.013876
 20
31.664346
 30
0.0
 10
4.039578
 20
31.597367
 30
0.0
  0
SPLINE
  5
14b
100
AcDbEntity
  8
Layer_1
 62
7
100
AcDbSpline
 70
8
 71
3
 72
8
 73
4
 74
0
 40
0
 40
0
 40
0
 40
0
 40
1
 40
1
 40
1
 40
1
 10
4.039578
 20
31.597367
 30
0.0
 10
4.105306
 20
31.426085
 30
0.0
 10
3.426198
 20
29.206776
 30
0.0
 10
3.309652
 20
29.211983
 30
0.0
  0
SPLINE
  5
14c
100
AcDbEntity
  8
Layer_1
 62
7
100
AcDbSpline
 70
8
 71
3
 72
8
 73
4
 74
0
 40
0
 40
0
 40
0
 40
0
 40
1
 40
1
 40
1
 40
1
 10
3.309652
 20
29.211983
 30
0.0
 10
3.281977
 20
29.213225
 30
0.0
 10
3.157618
 20
29.267199
 30
0.0
 10
3.033296
 20
29.331937
 30
0.0
  0
LWPOLYLINE
  5
14d
100
AcDbEntity
  8
Layer_1
 62
7
100
AcDbPolyline
 90
2
 70
0
 10
0.322715
 20
22.923552
 30
0.0
 10
0.322712
 20
22.923552
 30
0.0
  0
SPLINE
  5
14e
100
AcDbEntity
  8
Layer_1
 62
7
100
AcDbSpline
 70
8
 71
3
 72
8
 73
4
 74
0
 40
0
 40
0
 40
0
 40
0
 40
1
 40
1
 40
1
 40
1
 10
0.606852
 20
29.823889
 30
0.0
 10
0.560764
 20
30.155303
 30
0.0
 10
0.448826
 20
30.721186
 30
0.0
 10
0.358101
 20
31.081407
 30
0.0
  0
SPLINE
  5
14f
100
AcDbEntity
  8
Layer_1
 62
7
100
AcDbSpline
 70
8
 71
3
 72
8
 73
4
 74
0
 40
0
 40
0
 40
0
 40
0
 40
1
 40
1
 40
1
 40
1
 10
0.358101
 20
31.081407
 30
0.0
 10
0.267376
 20
31.441628
 30
0.0
 10
0.193146
 20
31.742844
 30
0.0
 10
0.193146
 20
31.750775
 30
0.0
  0
SPLINE
  5
150
100
AcDbEntity
  8
Layer_1
 62
7
100
AcDbSpline
 70
8
 71
3
 72
8
 73
4
 74
0
 40
0
 40
0
 40
0
 40
0
 40
1
 40
1
 40
1
 40
1
 10
0.193146
 20
31.750775
 30
0.0
 10
0.193146
 20
31.766496
 30
0.0
 10
0.464631
 20
31.839125
 30
0.0
 10
0.709299
 20
31.888860
 30
0.0
  0
SPLINE
  5
151
100
AcDbEntity
  8
Layer_1
 62
7
100
AcDbSpline
 70
8
 71
3
 72
8
 73
4
 74
0
 40
0
 40
0
 40
0
 40
0
 40
1
 40
1
 40
1
 40
1
 10
0.709299
 20
31.888860
 30
0.0
 10
0.863007
 20
31.920104
 30
0.0
 10
0.863487
 20
31.919569
 30
0.0
 10
0.959074
 20
31.610094
 30
0.0
  0
SPLINE
  5
152
100
AcDbEntity
  8
Layer_1
 62
7
100
AcDbSpline
 70
8
 71
3
 72
8
 73
4
 74
0
 40
0
 40
0
 40
0
 40
0
 40
1
 40
1
 40
1
 40
1
 10
0.959074
 20
31.610094
 30
0.0
 10
1.108753
 20
31.125491
 30
0.0
 10
1.431466
 20
29.461735
 30
0.0
 10
1.383802
 20
29.420401
 30
0.0
  0
SPLINE
  5
153
100
AcDbEntity
  8
Layer_1
 62
7
100
AcDbSpline
 70
8
 71
3
 72
8
 73
4
 74
0
 40
0
 40
0
 40
0
 40
0
 40
1
 40
1
 40
1
 40
1
 10
1.383802
 20
29.420401
 30
0.0
 10
1.379601
 20
29.416757
 30
0.0
 10
1.221923
 20
29.370474
 30
0.0
 10
1.033406
 20
29.317548
 30
0.0
  0
LWPOLYLINE
  5
154
100
AcDbEntity
  8
Layer_1
 62
7
100
AcDbPolyline
 90
2
 70
0
 10
3.033296
 20
29.331937
 30
0.0
 10
3.033296
 20
29.331937
 30
0.0
  0
LWPOLYLINE
  5
155
100
AcDbEntity
  8
Layer_1
 62
7
100
AcDbPolyline
 90
5
 70
0
 10
1.033406
 20
29.317548
 30
0.0
 10
0.690648
 20
29.221319
 30
0.0
 10
0.606852
 20
29.823889
 30
0.0
 10
0.606852
 20
29.823889
 30
0.0
 10
0.606852
 20
29.823889
 30
0.0
  0
LWPOLYLINE
  5
156
100
AcDbEntity
  8
Layer_1
 62
7
100
AcDbPolyline
 90
58
 70
0
 10
6.953250
 20
23.318787
 30
0.0
 10
6.953250
 20
23.946512
 30
0.0
 10
5.746089
 20
23.946512
 30
0.0
 10
4.538927
 20
23.946512
 30
0.0
 10
4.538927
 20
24.332803
 30
0.0
 10
4.538927
 20
24.719095
 30
0.0
 10
5.746089
 20
24.719095
 30
0.0
 10
6.953250
 20
24.719095
 30
0.0
 10
6.953250
 20
25.105387
 30
0.0
 10
6.953250
 20
25.491678
 30
0.0
 10
5.963378
 20
25.491678
 30
0.0
 10
4.973505
 20
25.491678
 30
0.0
 10
4.973505
 20
27.326563
 30
0.0
 10
4.973505
 20
29.161449
 30
0.0
 10
5.963378
 20
29.161449
 30
0.0
 10
6.953250
 20
29.161449
 30
0.0
 10
6.953250
 20
29.571884
 30
0.0
 10
6.953250
 20
29.982319
 30
0.0
 10
5.842662
 20
29.982319
 30
0.0
 10
4.732073
 20
29.982319
 30
0.0
 10
4.732073
 20
30.320324
 30
0.0
 10
4.732073
 20
30.658329
 30
0.0
 10
5.842662
 20
30.658329
 30
0.0
 10
6.953250
 20
30.658329
 30
0.0
 10
6.953250
 20
31.020478
 30
0.0
 10
6.953250
 20
31.382626
 30
0.0
 10
7.339542
 20
31.382626
 30
0.0
 10
7.725833
 20
31.382626
 30
0.0
 10
7.725833
 20
31.020478
 30
0.0
 10
7.725833
 20
30.658329
 30
0.0
 10
8.812279
 20
30.658329
 30
0.0
 10
9.898724
 20
30.658329
 30
0.0
 10
9.898724
 20
30.320324
 30
0.0
 10
9.898724
 20
29.982319
 30
0.0
 10
8.812279
 20
29.982319
 30
0.0
 10
7.725833
 20
29.982319
 30
0.0
 10
7.725833
 20
29.571884
 30
0.0
 10
7.725833
 20
29.161449
 30
0.0
 10
8.715706
 20
29.161449
 30
0.0
 10
9.705578
 20
29.161449
 30
0.0
 10
9.705578
 20
27.326563
 30
0.0
 10
9.705578
 20
25.491678
 30
0.0
 10
8.715706
 20
25.491678
 30
0.0
 10
7.725833
 20
25.491678
 30
0.0
 10
7.725833
 20
25.105387
 30
0.0
 10
7.725833
 20
24.719095
 30
0.0
 10
8.932995
 20
24.719095
 30
0.0
 10
10.140156
 20
24.719095
 30
0.0
 10
10.140156
 20
24.332803
 30
0.0
 10
10.140156
 20
23.946512
 30
0.0
 10
8.932995
 20
23.946512
 30
0.0
 10
7.725833
 20
23.946512
 30
0.0
 10
7.725833
 20
23.318787
 30
0.0
 10
7.725833
 20
22.691063
 30
0.0
 10
7.339542
 20
22.691063
 30
0.0
 10
6.953250
 20
22.691063
 30
0.0
 10
6.953250
 20
23.318787
 30
0.0
 10
6.953250
 20
23.318787
 30
0.0
  0
LWPOLYLINE
  5
157
100
AcDbEntity
  8
Layer_1
 62
7
100
AcDbPolyline
 90
10
 70
0
 10
6.953250
 20
26.650553
 30
0.0
 10
6.953250
 20
27.036845
 30
0.0
 10
6.349669
 20
27.036845
 30
0.0
 10
5.746089
 20
27.036845
 30
0.0
 10
5.746089
 20
26.650553
 30
0.0
 10
5.746089
 20
26.264262
 30
0.0
 10
6.349669
 20
26.264262
 30
0.0
 10
6.953250
 20
26.264262
 30
0.0
 10
6.953250
 20
26.650553
 30
0.0
 10
6.953250
 20
26.650553
 30
0.0
  0
LWPOLYLINE
  5
158
100
AcDbEntity
  8
Layer_1
 62
7
100
AcDbPolyline
 90
10
 70
0
 10
8.932995
 20
26.650553
 30
0.0
 10
8.932995
 20
27.036845
 30
0.0
 10
8.329414
 20
27.036845
 30
0.0
 10
7.725833
 20
27.036845
 30
0.0
 10
7.725833
 20
26.650553
 30
0.0
 10
7.725833
 20
26.264262
 30
0.0
 10
8.329414
 20
26.264262
 30
0.0
 10
8.932995
 20
26.264262
 30
0.0
 10
8.932995
 20
26.650553
 30
0.0
 10
8.932995
 20
26.650553
 30
0.0
  0
LWPOLYLINE
  5
159
100
AcDbEntity
  8
Layer_1
 62
7
100
AcDbPolyline
 90
10
 70
0
 10
6.953250
 20
28.099147
 30
0.0
 10
6.953250
 20
28.485438
 30
0.0
 10
6.349669
 20
28.485438
 30
0.0
 10
5.746089
 20
28.485438
 30
0.0
 10
5.746089
 20
28.099147
 30
0.0
 10
5.746089
 20
27.712855
 30
0.0
 10
6.349669
 20
27.712855
 30
0.0
 10
6.953250
 20
27.712855
 30
0.0
 10
6.953250
 20
28.099147
 30
0.0
 10
6.953250
 20
28.099147
 30
0.0
  0
LWPOLYLINE
  5
15a
100
AcDbEntity
  8
Layer_1
 62
7
100
AcDbPolyline
 90
10
 70
0
 10
8.932995
 20
28.099147
 30
0.0
 10
8.932995
 20
28.485438
 30
0.0
 10
8.329414
 20
28.485438
 30
0.0
 10
7.725833
 20
28.485438
 30
0.0
 10
7.725833
 20
28.099147
 30
0.0
 10
7.725833
 20
27.712855
 30
0.0
 10
8.329414
 20
27.712855
 30
0.0
 10
8.932995
 20
27.712855
 30
0.0
 10
8.932995
 20
28.099147
 30
0.0
 10
8.932995
 20
28.099147
 30
0.0
  0
SPLINE
  5
15b
100
AcDbEntity
  8
Layer_1
 62
7
100
AcDbSpline
 70
8
 71
3
 72
8
 73
4
 74
0
 40
0
 40
0
 40
0
 40
0
 40
1
 40
1
 40
1
 40
1
 10
31.199794
 20
27.459351
 30
0.0
 10
31.058790
 20
27.724460
 30
0.0
 10
30.915813
 20
28.147480
 30
0.0
 10
30.967073
 20
28.147898
 30
0.0
  0
SPLINE
  5
15c
100
AcDbEntity
  8
Layer_1
 62
7
100
AcDbSpline
 70
8
 71
3
 72
8
 73
4
 74
0
 40
0
 40
0
 40
0
 40
0
 40
1
 40
1
 40
1
 40
1
 10
30.967073
 20
28.147898
 30
0.0
 10
31.515953
 20
28.152374
 30
0.0
 10
33.769032
 20
28.534426
 30
0.0
 10
33.875718
 20
28.641111
 30
0.0
  0
SPLINE
  5
15d
100
AcDbEntity
  8
Layer_1
 62
7
100
AcDbSpline
 70
8
 71
3
 72
8
 73
4
 74
0
 40
0
 40
0
 40
0
 40
0
 40
1
 40
1
 40
1
 40
1
 10
33.875718
 20
28.641111
 30
0.0
 10
33.885031
 20
28.650416
 30
0.0
 10
33.637056
 20
28.790660
 30
0.0
 10
33.324681
 20
28.952763
 30
0.0
  0
LWPOLYLINE
  5
15e
100
AcDbEntity
  8
Layer_1
 62
7
100
AcDbPolyline
 90
18
 70
0
 10
4.538927
 20
31.672345
 30
0.0
 10
4.538927
 20
32.444928
 30
0.0
 10
7.315398
 20
32.444928
 30
0.0
 10
10.091870
 20
32.444928
 30
0.0
 10
10.091870
 20
31.696488
 30
0.0
 10
10.091870
 20
30.948048
 30
0.0
 10
9.681435
 20
30.948048
 30
0.0
 10
9.271000
 20
30.948048
 30
0.0
 10
9.271000
 20
31.358483
 30
0.0
 10
9.271000
 20
31.768918
 30
0.0
 10
7.291255
 20
31.768918
 30
0.0
 10
5.311511
 20
31.768918
 30
0.0
 10
5.311511
 20
31.334339
 30
0.0
 10
5.311511
 20
30.899761
 30
0.0
 10
4.925219
 20
30.899761
 30
0.0
 10
4.538927
 20
30.899761
 30
0.0
 10
4.538927
 20
31.672345
 30
0.0
 10
4.538927
 20
31.672345
 30
0.0
  0
SPLINE
  5
15f
100
AcDbEntity
  8
Layer_1
 62
7
100
AcDbSpline
 70
8
 71
3
 72
8
 73
4
 74
0
 40
0
 40
0
 40
0
 40
0
 40
1
 40
1
 40
1
 40
1
 10
32.566398
 20
29.129511
 30
0.0
 10
32.461719
 20
29.064619
 30
0.0
 10
32.255017
 20
28.949128
 30
0.0
 10
32.107062
 20
28.872864
 30
0.0
  0
LWPOLYLINE
  5
160
100
AcDbEntity
  8
Layer_1
 62
7
100
AcDbPolyline
 90
3
 70
0
 10
33.324681
 20
28.952763
 30
0.0
 10
32.756729
 20
29.247496
 30
0.0
 10
32.566398
 20
29.129511
 30
0.0
  0
SPLINE
  5
161
100
AcDbEntity
  8
Layer_1
 62
7
100
AcDbSpline
 70
8
 71
3
 72
8
 73
4
 74
0
 40
0
 40
0
 40
0
 40
0
 40
1
 40
1
 40
1
 40
1
 10
31.733194
 20
29.415213
 30
0.0
 10
32.389264
 20
29.766861
 30
0.0
 10
33.117274
 20
30.277349
 30
0.0
 10
33.511061
 20
30.661872
 30
0.0
  0
LWPOLYLINE
  5
162
100
AcDbEntity
  8
Layer_1
 62
7
100
AcDbPolyline
 90
5
 70
0
 10
32.107062
 20
28.872864
 30
0.0
 10
31.838056
 20
28.734203
 30
0.0
 10
31.560759
 20
28.954182
 30
0.0
 10
31.283461
 20
29.174162
 30
0.0
 10
31.733194
 20
29.415213
 30
0.0
  0
SPLINE
  5
163
100
AcDbEntity
  8
Layer_1
 62
7
100
AcDbSpline
 70
8
 71
3
 72
8
 73
4
 74
0
 40
0
 40
0
 40
0
 40
0
 40
1
 40
1
 40
1
 40
1
 10
34.433321
 20
30.687875
 30
0.0
 10
34.377413
 20
30.628365
 30
0.0
 10
34.331673
 20
30.564779
 30
0.0
 10
34.331673
 20
30.546572
 30
0.0
  0
SPLINE
  5
164
100
AcDbEntity
  8
Layer_1
 62
7
100
AcDbSpline
 70
8
 71
3
 72
8
 73
4
 74
0
 40
0
 40
0
 40
0
 40
0
 40
1
 40
1
 40
1
 40
1
 10
34.331673
 20
30.546572
 30
0.0
 10
34.331673
 20
30.528366
 30
0.0
 10
35.016132
 20
30.513470
 30
0.0
 10
35.852695
 20
30.513470
 30
0.0
  0
LWPOLYLINE
  5
165
100
AcDbEntity
  8
Layer_1
 62
7
100
AcDbPolyline
 90
5
 70
0
 10
33.511061
 20
30.661872
 30
0.0
 10
33.855674
 20
30.998379
 30
0.0
 10
34.195323
 20
30.897227
 30
0.0
 10
34.534969
 20
30.796076
 30
0.0
 10
34.433321
 20
30.687875
 30
0.0
  0
SPLINE
  5
166
100
AcDbEntity
  8
Layer_1
 62
7
100
AcDbSpline
 70
8
 71
3
 72
8
 73
4
 74
0
 40
0
 40
0
 40
0
 40
0
 40
1
 40
1
 40
1
 40
1
 10
37.040236
 20
29.462272
 30
0.0
 10
36.856820
 20
29.280666
 30
0.0
 10
36.550021
 20
29.026925
 30
0.0
 10
36.358463
 20
28.898404
 30
0.0
  0
SPLINE
  5
167
100
AcDbEntity
  8
Layer_1
 62
7
100
AcDbSpline
 70
8
 71
3
 72
8
 73
4
 74
0
 40
0
 40
0
 40
0
 40
0
 40
1
 40
1
 40
1
 40
1
 10
36.358463
 20
28.898404
 30
0.0
 10
36.116376
 20
28.735981
 30
0.0
 10
36.030337
 20
28.653910
 30
0.0
 10
36.076295
 20
28.629252
 30
0.0
  0
SPLINE
  5
168
100
AcDbEntity
  8
Layer_1
 62
7
100
AcDbSpline
 70
8
 71
3
 72
8
 73
4
 74
0
 40
0
 40
0
 40
0
 40
0
 40
1
 40
1
 40
1
 40
1
 10
36.076295
 20
28.629252
 30
0.0
 10
36.181874
 20
28.572603
 30
0.0
 10
36.995075
 20
28.396459
 30
0.0
 10
37.754272
 20
28.265790
 30
0.0
  0
SPLINE
  5
169
100
AcDbEntity
  8
Layer_1
 62
7
100
AcDbSpline
 70
8
 71
3
 72
8
 73
4
 74
0
 40
0
 40
0
 40
0
 40
0
 40
1
 40
1
 40
1
 40
1
 10
37.754272
 20
28.265790
 30
0.0
 10
38.139249
 20
28.199530
 30
0.0
 10
38.460144
 20
28.139404
 30
0.0
 10
38.467371
 20
28.132177
 30
0.0
  0
SPLINE
  5
16a
100
AcDbEntity
  8
Layer_1
 62
7
100
AcDbSpline
 70
8
 71
3
 72
8
 73
4
 74
0
 40
0
 40
0
 40
0
 40
0
 40
1
 40
1
 40
1
 40
1
 10
38.467371
 20
28.132177
 30
0.0
 10
38.474596
 20
28.124949
 30
0.0
 10
38.391705
 20
27.970746
 30
0.0
 10
38.283159
 20
27.789503
 30
0.0
  0
LWPOLYLINE
  5
16b
100
AcDbEntity
  8
Layer_1
 62
7
100
AcDbPolyline
 90
5
 70
0
 10
35.852695
 20
30.513470
 30
0.0
 10
37.373718
 20
30.513470
 30
0.0
 10
37.373718
 20
30.152967
 30
0.0
 10
37.373718
 20
29.792464
 30
0.0
 10
37.040236
 20
29.462272
 30
0.0
  0
SPLINE
  5
16c
100
AcDbEntity
  8
Layer_1
 62
7
100
AcDbSpline
 70
8
 71
3
 72
8
 73
4
 74
0
 40
0
 40
0
 40
0
 40
0
 40
1
 40
1
 40
1
 40
1
 10
37.866568
 20
27.490020
 30
0.0
 10
37.489841
 20
27.541656
 30
0.0
 10
36.167633
 20
27.851544
 30
0.0
 10
35.588533
 20
28.023926
 30
0.0
  0
LWPOLYLINE
  5
16d
100
AcDbEntity
  8
Layer_1
 62
7
100
AcDbPolyline
 90
3
 70
0
 10
38.283159
 20
27.789503
 30
0.0
 10
38.085804
 20
27.459970
 30
0.0
 10
37.866568
 20
27.490020
 30
0.0
  0
SPLINE
  5
16e
100
AcDbEntity
  8
Layer_1
 62
7
100
AcDbSpline
 70
8
 71
3
 72
8
 73
4
 74
0
 40
0
 40
0
 40
0
 40
0
 40
1
 40
1
 40
1
 40
1
 10
34.405514
 20
28.000214
 30
0.0
 10
33.694198
 20
27.786992
 30
0.0
 10
32.923079
 20
27.613811
 30
0.0
 10
32.052500
 20
27.471766
 30
0.0
  0
SPLINE
  5
16f
100
AcDbEntity
  8
Layer_1
 62
7
100
AcDbSpline
 70
8
 71
3
 72
8
 73
4
 74
0
 40
0
 40
0
 40
0
 40
0
 40
1
 40
1
 40
1
 40
1
 10
32.052500
 20
27.471766
 30
0.0
 10
31.327477
 20
27.353470
 30
0.0
 10
31.256656
 20
27.352439
 30
0.0
 10
31.199794
 20
27.459351
 30
0.0
  0
LWPOLYLINE
  5
170
100
AcDbEntity
  8
Layer_1
 62
7
100
AcDbPolyline
 90
3
 70
0
 10
35.588533
 20
28.023926
 30
0.0
 10
35.034649
 20
28.188802
 30
0.0
 10
34.405514
 20
28.000214
 30
0.0
  0
SPLINE
  5
171
100
AcDbEntity
  8
Layer_1
 62
7
100
AcDbSpline
 70
8
 71
3
 72
8
 73
4
 74
0
 40
0
 40
0
 40
0
 40
0
 40
1
 40
1
 40
1
 40
1
 10
35.678909
 20
29.268185
 30
0.0
 10
35.957239
 20
29.437317
 30
0.0
 10
36.359702
 20
29.748738
 30
0.0
 10
36.359702
 20
29.794974
 30
0.0
  0
SPLINE
  5
172
100
AcDbEntity
  8
Layer_1
 62
7
100
AcDbSpline
 70
8
 71
3
 72
8
 73
4
 74
0
 40
0
 40
0
 40
0
 40
0
 40
1
 40
1
 40
1
 40
1
 10
36.359702
 20
29.794974
 30
0.0
 10
36.359702
 20
29.818466
 30
0.0
 10
35.725532
 20
29.837459
 30
0.0
 10
34.941166
 20
29.837459
 30
0.0
  0
SPLINE
  5
173
100
AcDbEntity
  8
Layer_1
 62
7
100
AcDbSpline
 70
8
 71
3
 72
8
 73
4
 74
0
 40
0
 40
0
 40
0
 40
0
 40
1
 40
1
 40
1
 40
1
 10
34.941166
 20
29.837459
 30
0.0
 10
33.800328
 20
29.837459
 30
0.0
 10
33.511899
 20
29.824534
 30
0.0
 10
33.467833
 20
29.771436
 30
0.0
  0
SPLINE
  5
174
100
AcDbEntity
  8
Layer_1
 62
7
100
AcDbSpline
 70
8
 71
3
 72
8
 73
4
 74
0
 40
0
 40
0
 40
0
 40
0
 40
1
 40
1
 40
1
 40
1
 10
33.467833
 20
29.771436
 30
0.0
 10
33.426634
 20
29.721794
 30
0.0
 10
33.428161
 20
29.693230
 30
0.0
 10
33.473985
 20
29.656307
 30
0.0
  0
SPLINE
  5
175
100
AcDbEntity
  8
Layer_1
 62
7
100
AcDbSpline
 70
8
 71
3
 72
8
 73
4
 74
0
 40
0
 40
0
 40
0
 40
0
 40
1
 40
1
 40
1
 40
1
 10
33.473985
 20
29.656307
 30
0.0
 10
33.559397
 20
29.587497
 30
0.0
 10
34.190486
 20
29.272617
 30
0.0
 10
34.617764
 20
29.085619
 30
0.0
  0
LWPOLYLINE
  5
176
100
AcDbEntity
  8
Layer_1
 62
7
100
AcDbPolyline
 90
2
 70
0
 10
31.199794
 20
27.459351
 30
0.0
 10
31.199794
 20
27.459351
 30
0.0
  0
SPLINE
  5
177
100
AcDbEntity
  8
Layer_1
 62
7
100
AcDbSpline
 70
8
 71
3
 72
8
 73
4
 74
0
 40
0
 40
0
 40
0
 40
0
 40
1
 40
1
 40
1
 40
1
 10
35.240705
 20
29.045645
 30
0.0
 10
35.386131
 20
29.109960
 30
0.0
 10
35.583320
 20
29.210102
 30
0.0
 10
35.678903
 20
29.268185
 30
0.0
  0
LWPOLYLINE
  5
178
100
AcDbEntity
  8
Layer_1
 62
7
100
AcDbPolyline
 90
3
 70
0
 10
34.617764
 20
29.085619
 30
0.0
 10
34.976294
 20
28.928711
 30
0.0
 10
35.240705
 20
29.045645
 30
0.0
  0
LWPOLYLINE
  5
179
100
AcDbEntity
  8
Layer_1
 62
7
100
AcDbPolyline
 90
3
 70
0
 10
35.678903
 20
29.268185
 30
0.0
 10
35.678903
 20
29.268185
 30
0.0
 10
35.678909
 20
29.268185
 30
0.0
  0
SPLINE
  5
17a
100
AcDbEntity
  8
Layer_1
 62
7
100
AcDbSpline
 70
8
 71
3
 72
8
 73
4
 74
0
 40
0
 40
0
 40
0
 40
0
 40
1
 40
1
 40
1
 40
1
 10
30.097222
 20
29.348346
 30
0.0
 10
29.932715
 20
29.501740
 30
0.0
 10
29.613846
 20
29.758320
 30
0.0
 10
29.388621
 20
29.918525
 30
0.0
  0
LWPOLYLINE
  5
17b
100
AcDbEntity
  8
Layer_1
 62
7
100
AcDbPolyline
 90
58
 70
0
 10
34.428244
 20
24.163800
 30
0.0
 10
34.428244
 20
24.477662
 30
0.0
 10
32.883077
 20
24.477662
 30
0.0
 10
31.337910
 20
24.477662
 30
0.0
 10
31.337910
 20
24.815668
 30
0.0
 10
31.337910
 20
25.153673
 30
0.0
 10
32.883077
 20
25.153673
 30
0.0
 10
34.428244
 20
25.153673
 30
0.0
 10
34.428244
 20
25.419248
 30
0.0
 10
34.428244
 20
25.684824
 30
0.0
 10
33.293513
 20
25.684824
 30
0.0
 10
32.158782
 20
25.684824
 30
0.0
 10
32.158782
 20
25.998686
 30
0.0
 10
32.158782
 20
26.312548
 30
0.0
 10
33.293513
 20
26.312548
 30
0.0
 10
34.428244
 20
26.312548
 30
0.0
 10
34.428244
 20
26.529837
 30
0.0
 10
34.428244
 20
26.747126
 30
0.0
 10
33.196939
 20
26.747126
 30
0.0
 10
31.965635
 20
26.747126
 30
0.0
 10
31.965635
 20
27.036845
 30
0.0
 10
31.965635
 20
27.326563
 30
0.0
 10
33.196939
 20
27.326563
 30
0.0
 10
34.428244
 20
27.326563
 30
0.0
 10
34.428244
 20
27.592139
 30
0.0
 10
34.428244
 20
27.857714
 30
0.0
 10
34.838680
 20
27.857714
 30
0.0
 10
35.249115
 20
27.857714
 30
0.0
 10
35.249115
 20
27.592139
 30
0.0
 10
35.249115
 20
27.326563
 30
0.0
 10
36.480420
 20
27.326563
 30
0.0
 10
37.711724
 20
27.326563
 30
0.0
 10
37.711724
 20
27.036845
 30
0.0
 10
37.711724
 20
26.747126
 30
0.0
 10
36.480420
 20
26.747126
 30
0.0
 10
35.249115
 20
26.747126
 30
0.0
 10
35.249115
 20
26.529837
 30
0.0
 10
35.249115
 20
26.312548
 30
0.0
 10
36.383846
 20
26.312548
 30
0.0
 10
37.518577
 20
26.312548
 30
0.0
 10
37.518577
 20
25.998686
 30
0.0
 10
37.518577
 20
25.684824
 30
0.0
 10
36.383846
 20
25.684824
 30
0.0
 10
35.249115
 20
25.684824
 30
0.0
 10
35.249115
 20
25.419248
 30
0.0
 10
35.249115
 20
25.153673
 30
0.0
 10
36.794282
 20
25.153673
 30
0.0
 10
38.339449
 20
25.153673
 30
0.0
 10
38.339449
 20
24.815668
 30
0.0
 10
38.339449
 20
24.477662
 30
0.0
 10
36.794282
 20
24.477662
 30
0.0
 10
35.249115
 20
24.477662
 30
0.0
 10
35.249115
 20
24.163800
 30
0.0
 10
35.249115
 20
23.849938
 30
0.0
 10
34.838680
 20
23.849938
 30
0.0
 10
34.428244
 20
23.849938
 30
0.0
 10
34.428244
 20
24.163800
 30
0.0
 10
34.428244
 20
24.163800
 30
0.0
  0
SPLINE
  5
17c
100
AcDbEntity
  8
Layer_1
 62
7
100
AcDbSpline
 70
8
 71
3
 72
8
 73
4
 74
0
 40
0
 40
0
 40
0
 40
0
 40
1
 40
1
 40
1
 40
1
 10
29.730601
 20
30.649088
 30
0.0
 10
29.989605
 20
30.477688
 30
0.0
 10
30.611056
 20
29.971459
 30
0.0
 10
30.776130
 20
29.797409
 30
0.0
  0
LWPOLYLINE
  5
17d
100
AcDbEntity
  8
Layer_1
 62
7
100
AcDbPolyline
 90
5
 70
0
 10
29.388621
 20
29.918525
 30
0.0
 10
28.979125
 20
30.209806
 30
0.0
 10
29.262711
 20
30.490431
 30
0.0
 10
29.546293
 20
30.771056
 30
0.0
 10
29.730601
 20
30.649088
 30
0.0
  0
SPLINE
  5
17e
100
AcDbEntity
  8
Layer_1
 62
7
100
AcDbSpline
 70
8
 71
3
 72
8
 73
4
 74
0
 40
0
 40
0
 40
0
 40
0
 40
1
 40
1
 40
1
 40
1
 10
30.686290
 20
29.370266
 30
0.0
 10
30.560772
 20
29.215580
 30
0.0
 10
30.444183
 20
29.084616
 30
0.0
 10
30.427202
 20
29.079234
 30
0.0
  0
SPLINE
  5
17f
100
AcDbEntity
  8
Layer_1
 62
7
100
AcDbSpline
 70
8
 71
3
 72
8
 73
4
 74
0
 40
0
 40
0
 40
0
 40
0
 40
1
 40
1
 40
1
 40
1
 10
30.427202
 20
29.079234
 30
0.0
 10
30.410212
 20
29.073852
 30
0.0
 10
30.261729
 20
29.194952
 30
0.0
 10
30.097222
 20
29.348346
 30
0.0
  0
LWPOLYLINE
  5
180
100
AcDbEntity
  8
Layer_1
 62
7
100
AcDbPolyline
 90
3
 70
0
 10
30.776130
 20
29.797409
 30
0.0
 10
30.914504
 20
29.651513
 30
0.0
 10
30.686290
 20
29.370266
 30
0.0
  0
LWPOLYLINE
  5
181
100
AcDbEntity
  8
Layer_1
 62
7
100
AcDbPolyline
 90
3
 70
0
 10
30.097222
 20
29.348346
 30
0.0
 10
30.097222
 20
29.348346
 30
0.0
 10
30.097222
 20
29.348346
 30
0.0
  0
LWPOLYLINE
  5
182
100
AcDbEntity
  8
Layer_1
 62
7
100
AcDbPolyline
 90
42
 70
0
 10
31.096478
 20
31.117050
 30
0.0
 10
31.096478
 20
31.430912
 30
0.0
 10
29.792744
 20
31.430912
 30
0.0
 10
28.489010
 20
31.430912
 30
0.0
 10
28.489010
 20
31.793061
 30
0.0
 10
28.489010
 20
32.155209
 30
0.0
 10
29.792744
 20
32.155209
 30
0.0
 10
31.096478
 20
32.155209
 30
0.0
 10
31.096478
 20
32.469071
 30
0.0
 10
31.096478
 20
32.782933
 30
0.0
 10
31.555202
 20
32.782933
 30
0.0
 10
32.013923
 20
32.782933
 30
0.0
 10
32.013923
 20
32.469071
 30
0.0
 10
32.013923
 20
32.155209
 30
0.0
 10
33.462516
 20
32.155209
 30
0.0
 10
34.911109
 20
32.155209
 30
0.0
 10
34.911109
 20
32.469071
 30
0.0
 10
34.911109
 20
32.782933
 30
0.0
 10
35.321545
 20
32.782933
 30
0.0
 10
35.731978
 20
32.782933
 30
0.0
 10
35.731978
 20
32.469071
 30
0.0
 10
35.731978
 20
32.155209
 30
0.0
 10
37.059856
 20
32.155209
 30
0.0
 10
38.387734
 20
32.155209
 30
0.0
 10
38.387734
 20
31.793061
 30
0.0
 10
38.387734
 20
31.430912
 30
0.0
 10
37.059856
 20
31.430912
 30
0.0
 10
35.731978
 20
31.430912
 30
0.0
 10
35.731978
 20
31.141194
 30
0.0
 10
35.731978
 20
30.851475
 30
0.0
 10
35.321545
 20
30.851475
 30
0.0
 10
34.911109
 20
30.851475
 30
0.0
 10
34.911109
 20
31.141194
 30
0.0
 10
34.911109
 20
31.430912
 30
0.0
 10
33.462516
 20
31.430912
 30
0.0
 10
32.013923
 20
31.430912
 30
0.0
 10
32.013923
 20
31.117050
 30
0.0
 10
32.013923
 20
30.803188
 30
0.0
 10
31.555202
 20
30.803188
 30
0.0
 10
31.096478
 20
30.803188
 30
0.0
 10
31.096478
 20
31.117050
 30
0.0
 10
31.096478
 20
31.117050
 30
0.0
  0
SPLINE
  5
183
100
AcDbEntity
  8
Layer_1
 62
7
100
AcDbSpline
 70
8
 71
3
 72
8
 73
4
 74
0
 40
0
 40
0
 40
0
 40
0
 40
1
 40
1
 40
1
 40
1
 10
30.867119
 20
24.109053
 30
0.0
 10
31.145943
 20
23.944356
 30
0.0
 10
31.568153
 20
23.777925
 30
0.0
 10
31.890259
 20
23.705740
 30
0.0
  0
SPLINE
  5
184
100
AcDbEntity
  8
Layer_1
 62
7
100
AcDbSpline
 70
8
 71
3
 72
8
 73
4
 74
0
 40
0
 40
0
 40
0
 40
0
 40
1
 40
1
 40
1
 40
1
 10
31.890259
 20
23.705740
 30
0.0
 10
32.448517
 20
23.580631
 30
0.0
 10
33.179856
 20
23.545310
 30
0.0
 10
35.788064
 20
23.517489
 30
0.0
  0
LWPOLYLINE
  5
185
100
AcDbEntity
  8
Layer_1
 62
7
100
AcDbPolyline
 90
15
 70
0
 10
28.689345
 20
23.017385
 30
0.0
 10
28.446250
 20
23.385474
 30
0.0
 10
29.131570
 20
23.753063
 30
0.0
 10
29.816888
 20
24.120653
 30
0.0
 10
29.829616
 20
25.747752
 30
0.0
 10
29.842316
 20
27.374850
 30
0.0
 10
29.165663
 20
27.374850
 30
0.0
 10
28.489010
 20
27.374850
 30
0.0
 10
28.489010
 20
27.761142
 30
0.0
 10
28.489010
 20
28.147433
 30
0.0
 10
29.551311
 20
28.147433
 30
0.0
 10
30.613615
 20
28.147433
 30
0.0
 10
30.613615
 20
26.203113
 30
0.0
 10
30.613615
 20
24.258793
 30
0.0
 10
30.867119
 20
24.109053
 30
0.0
  0
SPLINE
  5
186
100
AcDbEntity
  8
Layer_1
 62
7
100
AcDbSpline
 70
8
 71
3
 72
8
 73
4
 74
0
 40
0
 40
0
 40
0
 40
0
 40
1
 40
1
 40
1
 40
1
 10
35.611593
 20
22.800118
 30
0.0
 10
33.385862
 20
22.816515
 30
0.0
 10
32.881183
 20
22.832984
 30
0.0
 10
32.496785
 20
22.901760
 30
0.0
  0
SPLINE
  5
187
100
AcDbEntity
  8
Layer_1
 62
7
100
AcDbSpline
 70
8
 71
3
 72
8
 73
4
 74
0
 40
0
 40
0
 40
0
 40
0
 40
1
 40
1
 40
1
 40
1
 10
32.496785
 20
22.901760
 30
0.0
 10
31.593892
 20
23.063307
 30
0.0
 10
30.988686
 20
23.275600
 30
0.0
 10
30.566620
 20
23.578824
 30
0.0
  0
LWPOLYLINE
  5
188
100
AcDbEntity
  8
Layer_1
 62
7
100
AcDbPolyline
 90
5
 70
0
 10
35.788064
 20
23.517489
 30
0.0
 10
38.572333
 20
23.487790
 30
0.0
 10
38.420006
 20
23.134171
 30
0.0
 10
38.267677
 20
22.780552
 30
0.0
 10
35.611593
 20
22.800118
 30
0.0
  0
SPLINE
  5
189
100
AcDbEntity
  8
Layer_1
 62
7
100
AcDbSpline
 70
8
 71
3
 72
8
 73
4
 74
0
 40
0
 40
0
 40
0
 40
0
 40
1
 40
1
 40
1
 40
1
 10
29.861174
 20
23.358013
 30
0.0
 10
29.597799
 20
23.147036
 30
0.0
 10
29.281089
 20
22.901267
 30
0.0
 10
29.157374
 20
22.811858
 30
0.0
  0
LWPOLYLINE
  5
18a
100
AcDbEntity
  8
Layer_1
 62
7
100
AcDbPolyline
 90
3
 70
0
 10
30.566620
 20
23.578824
 30
0.0
 10
30.340038
 20
23.741607
 30
0.0
 10
29.861174
 20
23.358013
 30
0.0
  0
LWPOLYLINE
  5
18b
100
AcDbEntity
  8
Layer_1
 62
7
100
AcDbPolyline
 90
5
 70
0
 10
29.157374
 20
22.811858
 30
0.0
 10
28.932440
 20
22.649297
 30
0.0
 10
28.689345
 20
23.017385
 30
0.0
 10
28.689345
 20
23.017385
 30
0.0
 10
28.689345
 20
23.017385
 30
0.0
  0
SPLINE
  5
18c
100
AcDbEntity
  8
Layer_1
 62
7
100
AcDbSpline
 70
8
 71
3
 72
8
 73
4
 74
0
 40
0
 40
0
 40
0
 40
0
 40
1
 40
1
 40
1
 40
1
 10
33.027936
 20
13.082058
 30
0.0
 10
33.027936
 20
14.011573
 30
0.0
 10
33.010015
 20
14.772084
 30
0.0
 10
32.988083
 20
14.772084
 30
0.0
  0
SPLINE
  5
18d
100
AcDbEntity
  8
Layer_1
 62
7
100
AcDbSpline
 70
8
 71
3
 72
8
 73
4
 74
0
 40
0
 40
0
 40
0
 40
0
 40
1
 40
1
 40
1
 40
1
 10
32.988083
 20
14.772084
 30
0.0
 10
32.966155
 20
14.772084
 30
0.0
 10
32.835477
 20
14.633119
 30
0.0
 10
32.697674
 20
14.463273
 30
0.0
  0
SPLINE
  5
18e
100
AcDbEntity
  8
Layer_1
 62
7
100
AcDbSpline
 70
8
 71
3
 72
8
 73
4
 74
0
 40
0
 40
0
 40
0
 40
0
 40
1
 40
1
 40
1
 40
1
 10
32.697674
 20
14.463273
 30
0.0
 10
31.936216
 20
13.524760
 30
0.0
 10
30.663044
 20
12.535738
 30
0.0
 10
29.384089
 20
11.889224
 30
0.0
  0
LWPOLYLINE
  5
18f
100
AcDbEntity
  8
Layer_1
 62
7
100
AcDbPolyline
 90
42
 70
0
 10
31.096478
 20
19.600730
 30
0.0
 10
31.096478
 20
19.938735
 30
0.0
 10
29.792744
 20
19.938735
 30
0.0
 10
28.489010
 20
19.938735
 30
0.0
 10
28.489010
 20
20.325027
 30
0.0
 10
28.489010
 20
20.711319
 30
0.0
 10
29.792744
 20
20.711319
 30
0.0
 10
31.096478
 20
20.711319
 30
0.0
 10
31.096478
 20
21.097610
 30
0.0
 10
31.096478
 20
21.483902
 30
0.0
 10
31.555202
 20
21.483902
 30
0.0
 10
32.013923
 20
21.483902
 30
0.0
 10
32.013923
 20
21.097610
 30
0.0
 10
32.013923
 20
20.711319
 30
0.0
 10
33.462516
 20
20.711319
 30
0.0
 10
34.911109
 20
20.711319
 30
0.0
 10
34.911109
 20
21.097610
 30
0.0
 10
34.911109
 20
21.483902
 30
0.0
 10
35.321545
 20
21.483902
 30
0.0
 10
35.731978
 20
21.483902
 30
0.0
 10
35.731978
 20
21.097610
 30
0.0
 10
35.731978
 20
20.711319
 30
0.0
 10
37.059856
 20
20.711319
 30
0.0
 10
38.387734
 20
20.711319
 30
0.0
 10
38.387734
 20
20.325027
 30
0.0
 10
38.387734
 20
19.938735
 30
0.0
 10
37.059856
 20
19.938735
 30
0.0
 10
35.731978
 20
19.938735
 30
0.0
 10
35.731978
 20
19.600730
 30
0.0
 10
35.731978
 20
19.262725
 30
0.0
 10
35.321545
 20
19.262725
 30
0.0
 10
34.911109
 20
19.262725
 30
0.0
 10
34.911109
 20
19.600730
 30
0.0
 10
34.911109
 20
19.938735
 30
0.0
 10
33.462516
 20
19.938735
 30
0.0
 10
32.013923
 20
19.938735
 30
0.0
 10
32.013923
 20
19.600730
 30
0.0
 10
32.013923
 20
19.262725
 30
0.0
 10
31.555202
 20
19.262725
 30
0.0
 10
31.096478
 20
19.262725
 30
0.0
 10
31.096478
 20
19.600730
 30
0.0
 10
31.096478
 20
19.600730
 30
0.0
  0
SPLINE
  5
190
100
AcDbEntity
  8
Layer_1
 62
7
100
AcDbSpline
 70
8
 71
3
 72
8
 73
4
 74
0
 40
0
 40
0
 40
0
 40
0
 40
1
 40
1
 40
1
 40
1
 10
28.792520
 20
11.857172
 30
0.0
 10
28.474159
 20
12.231592
 30
0.0
 10
28.361663
 20
12.419896
 30
0.0
 10
28.440724
 20
12.446029
 30
0.0
  0
SPLINE
  5
191
100
AcDbEntity
  8
Layer_1
 62
7
100
AcDbSpline
 70
8
 71
3
 72
8
 73
4
 74
0
 40
0
 40
0
 40
0
 40
0
 40
1
 40
1
 40
1
 40
1
 10
28.440724
 20
12.446029
 30
0.0
 10
28.640281
 20
12.511991
 30
0.0
 10
29.868405
 20
13.155559
 30
0.0
 10
30.234896
 20
13.386220
 30
0.0
  0
SPLINE
  5
192
100
AcDbEntity
  8
Layer_1
 62
7
100
AcDbSpline
 70
8
 71
3
 72
8
 73
4
 74
0
 40
0
 40
0
 40
0
 40
0
 40
1
 40
1
 40
1
 40
1
 10
30.234896
 20
13.386220
 30
0.0
 10
30.938069
 20
13.828782
 30
0.0
 10
32.207067
 20
14.847136
 30
0.0
 10
32.207067
 20
14.968861
 30
0.0
  0
SPLINE
  5
193
100
AcDbEntity
  8
Layer_1
 62
7
100
AcDbSpline
 70
8
 71
3
 72
8
 73
4
 74
0
 40
0
 40
0
 40
0
 40
0
 40
1
 40
1
 40
1
 40
1
 10
32.207067
 20
14.968861
 30
0.0
 10
32.207067
 20
14.995429
 30
0.0
 10
31.463801
 20
15.013517
 30
0.0
 10
30.372183
 20
15.013517
 30
0.0
  0
LWPOLYLINE
  5
194
100
AcDbEntity
  8
Layer_1
 62
7
100
AcDbPolyline
 90
3
 70
0
 10
29.384089
 20
11.889224
 30
0.0
 10
28.951290
 20
11.670444
 30
0.0
 10
28.792520
 20
11.857172
 30
0.0
  0
SPLINE
  5
195
100
AcDbEntity
  8
Layer_1
 62
7
100
AcDbSpline
 70
8
 71
3
 72
8
 73
4
 74
0
 40
0
 40
0
 40
0
 40
0
 40
1
 40
1
 40
1
 40
1
 10
36.383846
 20
15.013517
 30
0.0
 10
35.304719
 20
15.013517
 30
0.0
 10
34.524817
 20
14.995155
 30
0.0
 10
34.524817
 20
14.969751
 30
0.0
  0
SPLINE
  5
196
100
AcDbEntity
  8
Layer_1
 62
7
100
AcDbSpline
 70
8
 71
3
 72
8
 73
4
 74
0
 40
0
 40
0
 40
0
 40
0
 40
1
 40
1
 40
1
 40
1
 10
34.524817
 20
14.969751
 30
0.0
 10
34.524817
 20
14.906302
 30
0.0
 10
35.157379
 20
14.330429
 30
0.0
 10
35.557635
 20
14.029493
 30
0.0
  0
SPLINE
  5
197
100
AcDbEntity
  8
Layer_1
 62
7
100
AcDbSpline
 70
8
 71
3
 72
8
 73
4
 74
0
 40
0
 40
0
 40
0
 40
0
 40
1
 40
1
 40
1
 40
1
 10
35.557635
 20
14.029493
 30
0.0
 10
36.234748
 20
13.520400
 30
0.0
 10
36.897403
 20
13.159666
 30
0.0
 10
37.805126
 20
12.806012
 30
0.0
  0
SPLINE
  5
198
100
AcDbEntity
  8
Layer_1
 62
7
100
AcDbSpline
 70
8
 71
3
 72
8
 73
4
 74
0
 40
0
 40
0
 40
0
 40
0
 40
1
 40
1
 40
1
 40
1
 10
37.805126
 20
12.806012
 30
0.0
 10
38.112282
 20
12.686343
 30
0.0
 10
38.370696
 20
12.581936
 30
0.0
 10
38.379380
 20
12.573999
 30
0.0
  0
SPLINE
  5
199
100
AcDbEntity
  8
Layer_1
 62
7
100
AcDbSpline
 70
8
 71
3
 72
8
 73
4
 74
0
 40
0
 40
0
 40
0
 40
0
 40
1
 40
1
 40
1
 40
1
 10
38.379380
 20
12.573999
 30
0.0
 10
38.405853
 20
12.549801
 30
0.0
 10
37.931685
 20
11.683567
 30
0.0
 10
37.891449
 20
11.682628
 30
0.0
  0
SPLINE
  5
19a
100
AcDbEntity
  8
Layer_1
 62
7
100
AcDbSpline
 70
8
 71
3
 72
8
 73
4
 74
0
 40
0
 40
0
 40
0
 40
0
 40
1
 40
1
 40
1
 40
1
 10
37.891449
 20
11.682628
 30
0.0
 10
37.813739
 20
11.680821
 30
0.0
 10
36.850836
 20
12.166508
 30
0.0
 10
36.456276
 20
12.406537
 30
0.0
  0
SPLINE
  5
19b
100
AcDbEntity
  8
Layer_1
 62
7
100
AcDbSpline
 70
8
 71
3
 72
8
 73
4
 74
0
 40
0
 40
0
 40
0
 40
0
 40
1
 40
1
 40
1
 40
1
 10
36.456276
 20
12.406537
 30
0.0
 10
35.638847
 20
12.903818
 30
0.0
 10
34.808614
 20
13.592228
 30
0.0
 10
34.227711
 20
14.254419
 30
0.0
  0
SPLINE
  5
19c
100
AcDbEntity
  8
Layer_1
 62
7
100
AcDbSpline
 70
8
 71
3
 72
8
 73
4
 74
0
 40
0
 40
0
 40
0
 40
0
 40
1
 40
1
 40
1
 40
1
 10
34.227711
 20
14.254419
 30
0.0
 10
34.036186
 20
14.472741
 30
0.0
 10
33.861719
 20
14.658611
 30
0.0
 10
33.840002
 20
14.667464
 30
0.0
  0
SPLINE
  5
19d
100
AcDbEntity
  8
Layer_1
 62
7
100
AcDbSpline
 70
8
 71
3
 72
8
 73
4
 74
0
 40
0
 40
0
 40
0
 40
0
 40
1
 40
1
 40
1
 40
1
 10
33.840002
 20
14.667464
 30
0.0
 10
33.818299
 20
14.676317
 30
0.0
 10
33.800519
 20
13.942966
 30
0.0
 10
33.800519
 20
13.037796
 30
0.0
  0
LWPOLYLINE
  5
19e
100
AcDbEntity
  8
Layer_1
 62
7
100
AcDbPolyline
 90
33
 70
0
 10
30.372183
 20
15.013517
 30
0.0
 10
28.537298
 20
15.013517
 30
0.0
 10
28.537298
 20
15.375665
 30
0.0
 10
28.537298
 20
15.737813
 30
0.0
 10
30.782618
 20
15.737813
 30
0.0
 10
33.027936
 20
15.737813
 30
0.0
 10
33.027936
 20
16.800116
 30
0.0
 10
33.027936
 20
17.862418
 30
0.0
 10
31.048192
 20
17.862418
 30
0.0
 10
29.068449
 20
17.862418
 30
0.0
 10
29.068449
 20
18.248709
 30
0.0
 10
29.068449
 20
18.635001
 30
0.0
 10
31.048192
 20
18.635001
 30
0.0
 10
33.027936
 20
18.635001
 30
0.0
 10
33.027936
 20
19.093722
 30
0.0
 10
33.027936
 20
19.552444
 30
0.0
 10
33.414228
 20
19.552444
 30
0.0
 10
33.800519
 20
19.552444
 30
0.0
 10
33.800519
 20
19.093722
 30
0.0
 10
33.800519
 20
18.635001
 30
0.0
 10
35.780266
 20
18.635001
 30
0.0
 10
37.760010
 20
18.635001
 30
0.0
 10
37.760010
 20
18.248709
 30
0.0
 10
37.760010
 20
17.862418
 30
0.0
 10
35.780266
 20
17.862418
 30
0.0
 10
33.800519
 20
17.862418
 30
0.0
 10
33.800519
 20
16.800116
 30
0.0
 10
33.800519
 20
15.737813
 30
0.0
 10
36.021699
 20
15.737813
 30
0.0
 10
38.242875
 20
15.737813
 30
0.0
 10
38.242875
 20
15.375665
 30
0.0
 10
38.242875
 20
15.013517
 30
0.0
 10
36.383846
 20
15.013517
 30
0.0
  0
SPLINE
  5
19f
100
AcDbEntity
  8
Layer_1
 62
7
100
AcDbSpline
 70
8
 71
3
 72
8
 73
4
 74
0
 40
0
 40
0
 40
0
 40
0
 40
1
 40
1
 40
1
 40
1
 10
30.762473
 20
16.258428
 30
0.0
 10
30.701796
 20
16.383732
 30
0.0
 10
30.534830
 20
16.653963
 30
0.0
 10
30.391436
 20
16.858941
 30
0.0
  0
LWPOLYLINE
  5
1a0
100
AcDbEntity
  8
Layer_1
 62
7
100
AcDbPolyline
 90
6
 70
0
 10
33.800519
 20
13.037796
 30
0.0
 10
33.800519
 20
11.392032
 30
0.0
 10
33.414228
 20
11.392032
 30
0.0
 10
33.027936
 20
11.392032
 30
0.0
 10
33.027936
 20
13.082058
 30
0.0
 10
33.027936
 20
13.082058
 30
0.0
  0
SPLINE
  5
1a1
100
AcDbEntity
  8
Layer_1
 62
7
100
AcDbSpline
 70
8
 71
3
 72
8
 73
4
 74
0
 40
0
 40
0
 40
0
 40
0
 40
1
 40
1
 40
1
 40
1
 10
30.819316
 20
17.472020
 30
0.0
 10
30.896300
 20
17.381327
 30
0.0
 10
31.088271
 20
17.112673
 30
0.0
 10
31.245914
 20
16.875011
 30
0.0
  0
SPLINE
  5
1a2
100
AcDbEntity
  8
Layer_1
 62
7
100
AcDbSpline
 70
8
 71
3
 72
8
 73
4
 74
0
 40
0
 40
0
 40
0
 40
0
 40
1
 40
1
 40
1
 40
1
 10
31.245914
 20
16.875011
 30
0.0
 10
31.568325
 20
16.388950
 30
0.0
 10
31.573346
 20
16.422340
 30
0.0
 10
31.141571
 20
16.180896
 30
0.0
  0
LWPOLYLINE
  5
1a3
100
AcDbEntity
  8
Layer_1
 62
7
100
AcDbPolyline
 90
5
 70
0
 10
30.391436
 20
16.858941
 30
0.0
 10
30.130725
 20
17.231629
 30
0.0
 10
30.405033
 20
17.434272
 30
0.0
 10
30.679342
 20
17.636916
 30
0.0
 10
30.819316
 20
17.472020
 30
0.0
  0
LWPOLYLINE
  5
1a4
100
AcDbEntity
  8
Layer_1
 62
7
100
AcDbPolyline
 90
5
 70
0
 10
31.141571
 20
16.180896
 30
0.0
 10
30.872800
 20
16.030602
 30
0.0
 10
30.762473
 20
16.258428
 30
0.0
 10
30.762473
 20
16.258428
 30
0.0
 10
30.762473
 20
16.258428
 30
0.0
  0
SPLINE
  5
1a5
100
AcDbEntity
  8
Layer_1
 62
7
100
AcDbSpline
 70
8
 71
3
 72
8
 73
4
 74
0
 40
0
 40
0
 40
0
 40
0
 40
1
 40
1
 40
1
 40
1
 10
35.433423
 20
16.772337
 30
0.0
 10
35.587415
 20
16.933682
 30
0.0
 10
35.806944
 20
17.190407
 30
0.0
 10
35.921264
 20
17.342837
 30
0.0
  0
SPLINE
  5
1a6
100
AcDbEntity
  8
Layer_1
 62
7
100
AcDbSpline
 70
8
 71
3
 72
8
 73
4
 74
0
 40
0
 40
0
 40
0
 40
0
 40
1
 40
1
 40
1
 40
1
 10
35.921264
 20
17.342837
 30
0.0
 10
36.035581
 20
17.495267
 30
0.0
 10
36.142972
 20
17.612724
 30
0.0
 10
36.159908
 20
17.603852
 30
0.0
  0
SPLINE
  5
1a7
100
AcDbEntity
  8
Layer_1
 62
7
100
AcDbSpline
 70
8
 71
3
 72
8
 73
4
 74
0
 40
0
 40
0
 40
0
 40
0
 40
1
 40
1
 40
1
 40
1
 10
36.159908
 20
17.603852
 30
0.0
 10
36.176842
 20
17.594979
 30
0.0
 10
36.325121
 20
17.506056
 30
0.0
 10
36.489417
 20
17.406242
 30
0.0
  0
LWPOLYLINE
  5
1a8
100
AcDbEntity
  8
Layer_1
 62
7
100
AcDbPolyline
 90
3
 70
0
 10
35.454779
 20
16.231291
 30
0.0
 10
35.153436
 20
16.478983
 30
0.0
 10
35.433423
 20
16.772337
 30
0.0
  0
SPLINE
  5
1a9
100
AcDbEntity
  8
Layer_1
 62
7
100
AcDbSpline
 70
8
 71
3
 72
8
 73
4
 74
0
 40
0
 40
0
 40
0
 40
0
 40
1
 40
1
 40
1
 40
1
 10
36.554179
 20
16.903104
 30
0.0
 10
36.425505
 20
16.726192
 30
0.0
 10
36.193301
 20
16.446930
 30
0.0
 10
36.038175
 20
16.282522
 30
0.0
  0
LWPOLYLINE
  5
1aa
100
AcDbEntity
  8
Layer_1
 62
7
100
AcDbPolyline
 90
3
 70
0
 10
36.489417
 20
17.406242
 30
0.0
 10
36.788132
 20
17.224762
 30
0.0
 10
36.554179
 20
16.903104
 30
0.0
  0
LWPOLYLINE
  5
1ab
100
AcDbEntity
  8
Layer_1
 62
7
100
AcDbPolyline
 90
4
 70
0
 10
36.038175
 20
16.282522
 30
0.0
 10
35.756122
 20
15.983598
 30
0.0
 10
35.454779
 20
16.231291
 30
0.0
 10
35.454779
 20
16.231291
 30
0.0
  0
LWPOLYLINE
  5
1ac
100
AcDbEntity
  8
Layer_1
 62
7
100
AcDbPolyline
 90
30
 70
0
 10
36.745994
 20
0.406863
 30
0.0
 10
36.745994
 20
0.817299
 30
0.0
 10
32.931365
 20
0.817299
 30
0.0
 10
29.116734
 20
0.817299
 30
0.0
 10
29.116734
 20
4.293924
 30
0.0
 10
29.116734
 20
7.770548
 30
0.0
 10
29.551311
 20
7.770548
 30
0.0
 10
29.985891
 20
7.770548
 30
0.0
 10
29.985891
 20
4.680215
 30
0.0
 10
29.985891
 20
1.589882
 30
0.0
 10
31.482769
 20
1.589882
 30
0.0
 10
32.979651
 20
1.589882
 30
0.0
 10
32.979651
 20
5.863233
 30
0.0
 10
32.979651
 20
10.136584
 30
0.0
 10
33.390086
 20
10.136584
 30
0.0
 10
33.800519
 20
10.136584
 30
0.0
 10
33.800519
 20
5.863233
 30
0.0
 10
33.800519
 20
1.589882
 30
0.0
 10
35.273257
 20
1.589882
 30
0.0
 10
36.745994
 20
1.589882
 30
0.0
 10
36.745994
 20
4.728501
 30
0.0
 10
36.745994
 20
7.867121
 30
0.0
 10
37.180574
 20
7.867121
 30
0.0
 10
37.615151
 20
7.867121
 30
0.0
 10
37.615151
 20
3.931773
 30
0.0
 10
37.615151
 20
-0.003573
 30
0.0
 10
37.180574
 20
-0.003573
 30
0.0
 10
36.745994
 20
-0.003573
 30
0.0
 10
36.745994
 20
0.406863
 30
0.0
 10
36.745994
 20
0.406863
 30
0.0
  0
ENDSEC
  0
SECTION
  2
OBJECTS
  0
DICTIONARY
  5
C
330
0
100
AcDbDictionary
  3
ACAD_GROUP
350
D
  3
ACAD_MLINESTYLE
350
17
  0
DICTIONARY
  5
D
330
C
100
AcDbDictionary
  0
DICTIONARY
  5
1A
330
C
100
AcDbDictionary
  0
DICTIONARY
  5
17
330
C
100
AcDbDictionary
  3
STANDARD
350
18
  0
DICTIONARY
  5
19
330
C
100
AcDbDictionary
  0
ENDSEC
  0
EOF
