  0
SECTION
  2
HEADER
  9
$ACADVER
  1
AC1014
  9
$HANDSEED
  5
FFFF
  9
$MEASUREMENT
 70
     1
  0
ENDSEC
  0
SECTION
  2
TABLES
  0
TABLE
  2
VPORT
  5
8
330
0
100
AcDbSymbolTable
 70
     4
  0
VPORT
  5
2E
330
8
100
AcDbSymbolTableRecord
100
AcDbViewportTableRecord
  2
*ACTIVE
 70
     0
 10
0.0
 20
0.0
 11
1.0
 21
1.0
 12
210.0
 22
148.5
 13
0.0
 23
0.0
 14
10.0
 24
10.0
 15
10.0
 25
10.0
 16
0.0
 26
0.0
 36
1.0
 17
0.0
 27
0.0
 37
0.0
 40
341.0
 41
1.24
 42
50.0
 43
0.0
 44
0.0
 50
0.0
 51
0.0
 71
     0
 72
   100
 73
     1
 74
     3
 75
     0
 76
     0
 77
     0
 78
     0
  0
ENDTAB
  0
TABLE
  2
LTYPE
  5
5
330
0
100
AcDbSymbolTable
 70
     1
  0
LTYPE
  5
14
330
5
100
AcDbSymbolTableRecord
100
AcDbLinetypeTableRecord
  2
BYBLOCK
 70
     0
  3

 72
    65
 73
     0
 40
0.0
  0
LTYPE
  5
15
330
5
100
AcDbSymbolTableRecord
100
AcDbLinetypeTableRecord
  2
BYLAYER
 70
     0
  3

 72
    65
 73
     0
 40
0.0
  0
LTYPE
  5
16
330
5
100
AcDbSymbolTableRecord
100
AcDbLinetypeTableRecord
  2
CONTINUOUS
 70
     0
  3
Solid line
 72
    65
 73
     0
 40
0.0
  0
ENDTAB
  0
TABLE
  2
LAYER
  5
2
100
AcDbSymbolTable
 70
2
  0
LAYER
  5
50
100
AcDbSymbolTableRecord
100
AcDbLayerTableRecord
  2
0
 70
0
  6
CONTINUOUS
  0
LAYER
  5
51
100
AcDbSymbolTableRecord
100
AcDbLayerTableRecord
  2
Layer_1
 70
0
  6
CONTINUOUS
  0
ENDTAB
  0
TABLE
  2
STYLE
  5
3
330
0
100
AcDbSymbolTable
 70
     1
  0
STYLE
  5
11
330
3
100
AcDbSymbolTableRecord
100
AcDbTextStyleTableRecord
  2
STANDARD
 70
     0
 40
0.0
 41
1.0
 50
0.0
 71
     0
 42
2.5
  3
txt
  4

  0
ENDTAB
  0
TABLE
  2
VIEW
  5
6
330
0
100
AcDbSymbolTable
 70
     0
  0
ENDTAB
  0
TABLE
  2
UCS
  5
7
330
0
100
AcDbSymbolTable
 70
     0
  0
ENDTAB
  0
TABLE
  2
APPID
  5
9
330
0
100
AcDbSymbolTable
 70
     2
  0
APPID
  5
12
330
9
100
AcDbSymbolTableRecord
100
AcDbRegAppTableRecord
  2
ACAD
 70
     0
  0
ENDTAB
  0
TABLE
  2
DIMSTYLE
  5
A
330
0
100
AcDbSymbolTable
 70
     1
  0
DIMSTYLE
105
27
330
A
100
AcDbSymbolTableRecord
100
AcDbDimStyleTableRecord
  2
ISO-25
 70
     0
  3

  4

  5

  6

  7

 40
1.0
 41
2.5
 42
0.625
 43
3.75
 44
1.25
 45
0.0
 46
0.0
 47
0.0
 48
0.0
140
2.5
141
2.5
142
0.0
143
0.03937007874016
144
1.0
145
0.0
146
1.0
147
0.625
 71
     0
 72
     0
 73
     0
 74
     0
 75
     0
 76
     0
 77
     1
 78
     8
170
     0
171
     3
172
     1
173
     0
174
     0
175
     0
176
     0
177
     0
178
     0
270
     2
271
     2
272
     2
273
     2
274
     3
340
11
275
     0
280
     0
281
     0
282
     0
283
     0
284
     8
285
     0
286
     0
287
     3
288
     0
  0
ENDTAB
  0
TABLE
  2
BLOCK_RECORD
  5
1
330
0
100
AcDbSymbolTable
 70
     1
  0
BLOCK_RECORD
  5
1F
330
1
100
AcDbSymbolTableRecord
100
AcDbBlockTableRecord
  2
*MODEL_SPACE
  0
BLOCK_RECORD
  5
1B
330
1
100
AcDbSymbolTableRecord
100
AcDbBlockTableRecord
  2
*PAPER_SPACE
  0
ENDTAB
  0
ENDSEC
  0
SECTION
  2
BLOCKS
  0
BLOCK
  5
20
330
1F
100
AcDbEntity
  8
0
100
AcDbBlockBegin
  2
*MODEL_SPACE
 70
     0
 10
0.0
 20
0.0
 30
0.0
  3
*MODEL_SPACE
  1

  0
ENDBLK
  5
21
330
1F
100
AcDbEntity
  8
0
100
AcDbBlockEnd
  0
BLOCK
  5
1C
330
1B
100
AcDbEntity
 67
     1
  8
0
100
AcDbBlockBegin
  2
*PAPER_SPACE
  1

  0
ENDBLK
  5
1D
330
1B
100
AcDbEntity
 67
     1
  8
0
100
AcDbBlockEnd
  0
ENDSEC
  0
SECTION
  2
ENTITIES
  0
SPLINE
  5
100
100
AcDbEntity
  8
Layer_1
 62
7
100
AcDbSpline
 70
8
 71
3
 72
8
 73
4
 74
0
 40
0
 40
0
 40
0
 40
0
 40
1
 40
1
 40
1
 40
1
 10
0.415672
 20
17.005334
 30
0.0
 10
0.153807
 20
17.474367
 30
0.0
 10
0.136237
 20
17.428402
 30
0.0
 10
0.664869
 20
17.657291
 30
0.0
  0
SPLINE
  5
101
100
AcDbEntity
  8
Layer_1
 62
7
100
AcDbSpline
 70
8
 71
3
 72
8
 73
4
 74
0
 40
0
 40
0
 40
0
 40
0
 40
1
 40
1
 40
1
 40
1
 10
0.664869
 20
17.657291
 30
0.0
 10
1.536836
 20
18.034839
 30
0.0
 10
2.651918
 20
18.725240
 30
0.0
 10
3.313614
 20
19.297255
 30
0.0
  0
SPLINE
  5
102
100
AcDbEntity
  8
Layer_1
 62
7
100
AcDbSpline
 70
8
 71
3
 72
8
 73
4
 74
0
 40
0
 40
0
 40
0
 40
0
 40
1
 40
1
 40
1
 40
1
 10
4.379585
 20
20.481974
 30
0.0
 10
4.460296
 20
20.594844
 30
0.0
 10
4.618650
 20
20.839294
 30
0.0
 10
4.731485
 20
21.025197
 30
0.0
  0
SPLINE
  5
103
100
AcDbEntity
  8
Layer_1
 62
7
100
AcDbSpline
 70
8
 71
3
 72
8
 73
4
 74
0
 40
0
 40
0
 40
0
 40
0
 40
1
 40
1
 40
1
 40
1
 10
4.731485
 20
21.025197
 30
0.0
 10
4.844319
 20
21.211100
 30
0.0
 10
4.942635
 20
21.369958
 30
0.0
 10
4.949965
 20
21.378215
 30
0.0
  0
SPLINE
  5
104
100
AcDbEntity
  8
Layer_1
 62
7
100
AcDbSpline
 70
8
 71
3
 72
8
 73
4
 74
0
 40
0
 40
0
 40
0
 40
0
 40
1
 40
1
 40
1
 40
1
 10
4.949965
 20
21.378215
 30
0.0
 10
4.969582
 20
21.400315
 30
0.0
 10
5.666788
 20
21.187876
 30
0.0
 10
5.713661
 20
21.145516
 30
0.0
  0
SPLINE
  5
105
100
AcDbEntity
  8
Layer_1
 62
7
100
AcDbSpline
 70
8
 71
3
 72
8
 73
4
 74
0
 40
0
 40
0
 40
0
 40
0
 40
1
 40
1
 40
1
 40
1
 10
5.713661
 20
21.145516
 30
0.0
 10
5.754162
 20
21.108915
 30
0.0
 10
5.591750
 20
20.759485
 30
0.0
 10
5.410863
 20
20.494046
 30
0.0
  0
SPLINE
  5
106
100
AcDbEntity
  8
Layer_1
 62
7
100
AcDbSpline
 70
8
 71
3
 72
8
 73
4
 74
0
 40
0
 40
0
 40
0
 40
0
 40
1
 40
1
 40
1
 40
1
 10
5.410863
 20
20.494046
 30
0.0
 10
5.356569
 20
20.414373
 30
0.0
 10
5.312004
 20
20.332890
 30
0.0
 10
5.311829
 20
20.312972
 30
0.0
  0
SPLINE
  5
107
100
AcDbEntity
  8
Layer_1
 62
7
100
AcDbSpline
 70
8
 71
3
 72
8
 73
4
 74
0
 40
0
 40
0
 40
0
 40
0
 40
1
 40
1
 40
1
 40
1
 10
5.311829
 20
20.312972
 30
0.0
 10
5.311654
 20
20.293052
 30
0.0
 10
6.332769
 20
20.276757
 30
0.0
 10
7.580974
 20
20.276757
 30
0.0
  0
LWPOLYLINE
  5
108
100
AcDbEntity
  8
Layer_1
 62
7
100
AcDbPolyline
 90
9
 70
0
 10
3.313614
 20
19.297255
 30
0.0
 10
3.549055
 20
19.500787
 30
0.0
 10
2.064246
 20
19.502480
 30
0.0
 10
0.579438
 20
19.504173
 30
0.0
 10
0.579438
 20
19.890465
 30
0.0
 10
0.579438
 20
20.276757
 30
0.0
 10
2.406138
 20
20.276757
 30
0.0
 10
4.232837
 20
20.276757
 30
0.0
 10
4.379585
 20
20.481974
 30
0.0
  0
SPLINE
  5
109
100
AcDbEntity
  8
Layer_1
 62
7
100
AcDbSpline
 70
8
 71
3
 72
8
 73
4
 74
0
 40
0
 40
0
 40
0
 40
0
 40
1
 40
1
 40
1
 40
1
 10
8.450130
 20
19.504173
 30
0.0
 10
7.679961
 20
19.504173
 30
0.0
 10
7.049899
 20
19.487878
 30
0.0
 10
7.049992
 20
19.467958
 30
0.0
  0
SPLINE
  5
10a
100
AcDbEntity
  8
Layer_1
 62
7
100
AcDbSpline
 70
8
 71
3
 72
8
 73
4
 74
0
 40
0
 40
0
 40
0
 40
0
 40
1
 40
1
 40
1
 40
1
 10
7.049992
 20
19.467958
 30
0.0
 10
7.050275
 20
19.407228
 30
0.0
 10
7.931823
 20
18.774017
 30
0.0
 10
8.459626
 20
18.455425
 30
0.0
  0
SPLINE
  5
10b
100
AcDbEntity
  8
Layer_1
 62
7
100
AcDbSpline
 70
8
 71
3
 72
8
 73
4
 74
0
 40
0
 40
0
 40
0
 40
0
 40
1
 40
1
 40
1
 40
1
 10
8.459626
 20
18.455425
 30
0.0
 10
8.733257
 20
18.290255
 30
0.0
 10
9.245043
 20
18.018644
 30
0.0
 10
9.596926
 20
17.851844
 30
0.0
  0
SPLINE
  5
10c
100
AcDbEntity
  8
Layer_1
 62
7
100
AcDbSpline
 70
8
 71
3
 72
8
 73
4
 74
0
 40
0
 40
0
 40
0
 40
0
 40
1
 40
1
 40
1
 40
1
 10
9.596926
 20
17.851844
 30
0.0
 10
9.948810
 20
17.685044
 30
0.0
 10
10.236718
 20
17.535591
 30
0.0
 10
10.236722
 20
17.519725
 30
0.0
  0
SPLINE
  5
10d
100
AcDbEntity
  8
Layer_1
 62
7
100
AcDbSpline
 70
8
 71
3
 72
8
 73
4
 74
0
 40
0
 40
0
 40
0
 40
0
 40
1
 40
1
 40
1
 40
1
 10
10.236722
 20
17.519725
 30
0.0
 10
10.236726
 20
17.503859
 30
0.0
 10
10.093889
 20
17.323471
 30
0.0
 10
9.919306
 20
17.118861
 30
0.0
  0
LWPOLYLINE
  5
10e
100
AcDbEntity
  8
Layer_1
 62
7
100
AcDbPolyline
 90
5
 70
0
 10
7.580974
 20
20.276757
 30
0.0
 10
9.850437
 20
20.276757
 30
0.0
 10
9.850437
 20
19.890465
 30
0.0
 10
9.850437
 20
19.504173
 30
0.0
 10
8.450130
 20
19.504173
 30
0.0
  0
SPLINE
  5
10f
100
AcDbEntity
  8
Layer_1
 62
7
100
AcDbSpline
 70
8
 71
3
 72
8
 73
4
 74
0
 40
0
 40
0
 40
0
 40
0
 40
1
 40
1
 40
1
 40
1
 10
9.376083
 20
16.876840
 30
0.0
 10
8.405230
 20
17.435780
 30
0.0
 10
7.416022
 20
18.179137
 30
0.0
 10
6.634821
 20
18.936807
 30
0.0
  0
LWPOLYLINE
  5
110
100
AcDbEntity
  8
Layer_1
 62
7
100
AcDbPolyline
 90
3
 70
0
 10
9.919306
 20
17.118861
 30
0.0
 10
9.601882
 20
16.746843
 30
0.0
 10
9.376083
 20
16.876840
 30
0.0
  0
SPLINE
  5
111
100
AcDbEntity
  8
Layer_1
 62
7
100
AcDbSpline
 70
8
 71
3
 72
8
 73
4
 74
0
 40
0
 40
0
 40
0
 40
0
 40
1
 40
1
 40
1
 40
1
 10
4.396348
 20
19.161144
 30
0.0
 10
3.761469
 20
18.452036
 30
0.0
 10
2.801672
 20
17.743550
 30
0.0
 10
1.786537
 20
17.234679
 30
0.0
  0
SPLINE
  5
112
100
AcDbEntity
  8
Layer_1
 62
7
100
AcDbSpline
 70
8
 71
3
 72
8
 73
4
 74
0
 40
0
 40
0
 40
0
 40
0
 40
1
 40
1
 40
1
 40
1
 10
1.786537
 20
17.234679
 30
0.0
 10
1.323331
 20
17.002481
 30
0.0
 10
0.654191
 20
16.703559
 30
0.0
 10
0.597619
 20
16.703559
 30
0.0
  0
SPLINE
  5
113
100
AcDbEntity
  8
Layer_1
 62
7
100
AcDbSpline
 70
8
 71
3
 72
8
 73
4
 74
0
 40
0
 40
0
 40
0
 40
0
 40
1
 40
1
 40
1
 40
1
 10
0.597619
 20
16.703559
 30
0.0
 10
0.590219
 20
16.703559
 30
0.0
 10
0.508342
 20
16.839364
 30
0.0
 10
0.415672
 20
17.005349
 30
0.0
  0
LWPOLYLINE
  5
114
100
AcDbEntity
  8
Layer_1
 62
7
100
AcDbPolyline
 90
5
 70
0
 10
6.634821
 20
18.936807
 30
0.0
 10
6.049835
 20
19.504173
 30
0.0
 10
5.376653
 20
19.504173
 30
0.0
 10
4.703470
 20
19.504173
 30
0.0
 10
4.396348
 20
19.161144
 30
0.0
  0
LWPOLYLINE
  5
115
100
AcDbEntity
  8
Layer_1
 62
7
100
AcDbPolyline
 90
2
 70
0
 10
0.415672
 20
17.005349
 30
0.0
 10
0.415672
 20
17.005334
 30
0.0
  0
LWPOLYLINE
  5
116
100
AcDbEntity
  8
Layer_1
 62
7
100
AcDbPolyline
 90
34
 70
0
 10
6.808391
 20
24.115516
 30
0.0
 10
6.808391
 20
25.636539
 30
0.0
 10
6.035807
 20
25.636539
 30
0.0
 10
5.263224
 20
25.636539
 30
0.0
 10
5.263224
 20
25.250247
 30
0.0
 10
5.263224
 20
24.863956
 30
0.0
 10
4.852789
 20
24.863956
 30
0.0
 10
4.442354
 20
24.863956
 30
0.0
 10
4.442354
 20
27.809429
 30
0.0
 10
4.442354
 20
30.754903
 30
0.0
 10
5.625372
 20
30.754903
 30
0.0
 10
6.808391
 20
30.754903
 30
0.0
 10
6.808391
 20
31.720633
 30
0.0
 10
6.808391
 20
32.686362
 30
0.0
 10
7.218826
 20
32.686362
 30
0.0
 10
7.629261
 20
32.686362
 30
0.0
 10
7.629261
 20
31.720633
 30
0.0
 10
7.629261
 20
30.754903
 30
0.0
 10
8.812279
 20
30.754903
 30
0.0
 10
9.995297
 20
30.754903
 30
0.0
 10
9.995297
 20
27.809429
 30
0.0
 10
9.995297
 20
24.863956
 30
0.0
 10
9.584862
 20
24.863956
 30
0.0
 10
9.174427
 20
24.863956
 30
0.0
 10
9.174427
 20
25.250247
 30
0.0
 10
9.174427
 20
25.636539
 30
0.0
 10
8.401844
 20
25.636539
 30
0.0
 10
7.629261
 20
25.636539
 30
0.0
 10
7.629261
 20
24.115516
 30
0.0
 10
7.629261
 20
22.594492
 30
0.0
 10
7.218826
 20
22.594492
 30
0.0
 10
6.808391
 20
22.594492
 30
0.0
 10
6.808391
 20
24.115516
 30
0.0
 10
6.808391
 20
24.115516
 30
0.0
  0
LWPOLYLINE
  5
117
100
AcDbEntity
  8
Layer_1
 62
7
100
AcDbPolyline
 90
10
 70
0
 10
6.808391
 20
27.109276
 30
0.0
 10
6.808391
 20
27.809429
 30
0.0
 10
6.035807
 20
27.809429
 30
0.0
 10
5.263224
 20
27.809429
 30
0.0
 10
5.263224
 20
27.109276
 30
0.0
 10
5.263224
 20
26.409122
 30
0.0
 10
6.035807
 20
26.409122
 30
0.0
 10
6.808391
 20
26.409122
 30
0.0
 10
6.808391
 20
27.109276
 30
0.0
 10
6.808391
 20
27.109276
 30
0.0
  0
LWPOLYLINE
  5
118
100
AcDbEntity
  8
Layer_1
 62
7
100
AcDbPolyline
 90
11
 70
0
 10
9.150284
 20
27.109276
 30
0.0
 10
9.150284
 20
27.785286
 30
0.0
 10
8.389772
 20
27.798585
 30
0.0
 10
7.629261
 20
27.811883
 30
0.0
 10
7.629261
 20
27.109277
 30
0.0
 10
7.629261
 20
26.406671
 30
0.0
 10
8.389772
 20
26.419969
 30
0.0
 10
9.150284
 20
26.433267
 30
0.0
 10
9.150284
 20
27.109278
 30
0.0
 10
9.150284
 20
27.109278
 30
0.0
 10
9.150284
 20
27.109276
 30
0.0
  0
LWPOLYLINE
  5
119
100
AcDbEntity
  8
Layer_1
 62
7
100
AcDbPolyline
 90
10
 70
0
 10
6.808391
 20
29.258023
 30
0.0
 10
6.808391
 20
29.934033
 30
0.0
 10
6.035807
 20
29.934033
 30
0.0
 10
5.263224
 20
29.934033
 30
0.0
 10
5.263224
 20
29.258023
 30
0.0
 10
5.263224
 20
28.582013
 30
0.0
 10
6.035807
 20
28.582013
 30
0.0
 10
6.808391
 20
28.582013
 30
0.0
 10
6.808391
 20
29.258023
 30
0.0
 10
6.808391
 20
29.258023
 30
0.0
  0
SPLINE
  5
11a
100
AcDbEntity
  8
Layer_1
 62
7
100
AcDbSpline
 70
8
 71
3
 72
8
 73
4
 74
0
 40
0
 40
0
 40
0
 40
0
 40
1
 40
1
 40
1
 40
1
 10
1.834886
 20
24.719096
 30
0.0
 10
1.834886
 20
25.914186
 30
0.0
 10
1.821965
 20
26.891987
 30
0.0
 10
1.806174
 20
26.891987
 30
0.0
  0
SPLINE
  5
11b
100
AcDbEntity
  8
Layer_1
 62
7
100
AcDbSpline
 70
8
 71
3
 72
8
 73
4
 74
0
 40
0
 40
0
 40
0
 40
0
 40
1
 40
1
 40
1
 40
1
 10
1.806174
 20
26.891987
 30
0.0
 10
1.790383
 20
26.891987
 30
0.0
 10
1.624003
 20
26.727664
 30
0.0
 10
1.436441
 20
26.526824
 30
0.0
  0
SPLINE
  5
11c
100
AcDbEntity
  8
Layer_1
 62
7
100
AcDbSpline
 70
8
 71
3
 72
8
 73
4
 74
0
 40
0
 40
0
 40
0
 40
0
 40
1
 40
1
 40
1
 40
1
 10
1.436441
 20
26.526824
 30
0.0
 10
1.248880
 20
26.325986
 30
0.0
 10
0.970979
 20
26.065907
 30
0.0
 10
0.818884
 20
25.948873
 30
0.0
  0
LWPOLYLINE
  5
11d
100
AcDbEntity
  8
Layer_1
 62
7
100
AcDbPolyline
 90
10
 70
0
 10
9.174427
 20
29.258023
 30
0.0
 10
9.174427
 20
29.934033
 30
0.0
 10
8.401844
 20
29.934033
 30
0.0
 10
7.629261
 20
29.934033
 30
0.0
 10
7.629261
 20
29.258023
 30
0.0
 10
7.629261
 20
28.582013
 30
0.0
 10
8.401844
 20
28.582013
 30
0.0
 10
9.174427
 20
28.582013
 30
0.0
 10
9.174427
 20
29.258023
 30
0.0
 10
9.174427
 20
29.258023
 30
0.0
  0
SPLINE
  5
11e
100
AcDbEntity
  8
Layer_1
 62
7
100
AcDbSpline
 70
8
 71
3
 72
8
 73
4
 74
0
 40
0
 40
0
 40
0
 40
0
 40
1
 40
1
 40
1
 40
1
 10
0.156602
 20
26.568941
 30
0.0
 10
1.029142
 20
27.268660
 30
0.0
 10
1.475525
 20
27.748432
 30
0.0
 10
2.052039
 20
28.606156
 30
0.0
  0
SPLINE
  5
11f
100
AcDbEntity
  8
Layer_1
 62
7
100
AcDbSpline
 70
8
 71
3
 72
8
 73
4
 74
0
 40
0
 40
0
 40
0
 40
0
 40
1
 40
1
 40
1
 40
1
 10
2.052039
 20
28.606156
 30
0.0
 10
2.393034
 20
29.113482
 30
0.0
 10
3.090333
 20
30.389560
 30
0.0
 10
3.090333
 20
30.506267
 30
0.0
  0
SPLINE
  5
120
100
AcDbEntity
  8
Layer_1
 62
7
100
AcDbSpline
 70
8
 71
3
 72
8
 73
4
 74
0
 40
0
 40
0
 40
0
 40
0
 40
1
 40
1
 40
1
 40
1
 10
3.090333
 20
30.506267
 30
0.0
 10
3.090333
 20
30.546765
 30
0.0
 10
2.718529
 20
30.561758
 30
0.0
 10
1.714169
 20
30.561758
 30
0.0
  0
LWPOLYLINE
  5
121
100
AcDbEntity
  8
Layer_1
 62
7
100
AcDbPolyline
 90
5
 70
0
 10
0.818884
 20
25.948873
 30
0.0
 10
0.542347
 20
25.736082
 30
0.0
 10
0.294988
 20
26.108817
 30
0.0
 10
0.047628
 20
26.481552
 30
0.0
 10
0.156602
 20
26.568941
 30
0.0
  0
SPLINE
  5
122
100
AcDbEntity
  8
Layer_1
 62
7
100
AcDbSpline
 70
8
 71
3
 72
8
 73
4
 74
0
 40
0
 40
0
 40
0
 40
0
 40
1
 40
1
 40
1
 40
1
 10
1.062302
 20
31.382627
 30
0.0
 10
1.460665
 20
31.382627
 30
0.0
 10
1.786599
 20
31.390848
 30
0.0
 10
1.786599
 20
31.400894
 30
0.0
  0
SPLINE
  5
123
100
AcDbEntity
  8
Layer_1
 62
7
100
AcDbSpline
 70
8
 71
3
 72
8
 73
4
 74
0
 40
0
 40
0
 40
0
 40
0
 40
1
 40
1
 40
1
 40
1
 10
1.786599
 20
31.400894
 30
0.0
 10
1.786599
 20
31.433738
 30
0.0
 10
1.343629
 20
32.226426
 30
0.0
 10
1.298963
 20
32.273512
 30
0.0
  0
SPLINE
  5
124
100
AcDbEntity
  8
Layer_1
 62
7
100
AcDbSpline
 70
8
 71
3
 72
8
 73
4
 74
0
 40
0
 40
0
 40
0
 40
0
 40
1
 40
1
 40
1
 40
1
 10
1.298963
 20
32.273512
 30
0.0
 10
1.275030
 20
32.298742
 30
0.0
 10
1.255448
 20
32.336495
 30
0.0
 10
1.255448
 20
32.357407
 30
0.0
  0
SPLINE
  5
125
100
AcDbEntity
  8
Layer_1
 62
7
100
AcDbSpline
 70
8
 71
3
 72
8
 73
4
 74
0
 40
0
 40
0
 40
0
 40
0
 40
1
 40
1
 40
1
 40
1
 10
1.255448
 20
32.357407
 30
0.0
 10
1.255448
 20
32.419113
 30
0.0
 10
1.935695
 20
32.743355
 30
0.0
 10
2.007414
 20
32.715833
 30
0.0
  0
SPLINE
  5
126
100
AcDbEntity
  8
Layer_1
 62
7
100
AcDbSpline
 70
8
 71
3
 72
8
 73
4
 74
0
 40
0
 40
0
 40
0
 40
0
 40
1
 40
1
 40
1
 40
1
 10
2.007414
 20
32.715833
 30
0.0
 10
2.077652
 20
32.688881
 30
0.0
 10
2.375320
 20
32.116834
 30
0.0
 10
2.556681
 20
31.660274
 30
0.0
  0
LWPOLYLINE
  5
127
100
AcDbEntity
  8
Layer_1
 62
7
100
AcDbPolyline
 90
5
 70
0
 10
1.714169
 20
30.561758
 30
0.0
 10
0.338005
 20
30.561758
 30
0.0
 10
0.338005
 20
30.972192
 30
0.0
 10
0.338005
 20
31.382627
 30
0.0
 10
1.062302
 20
31.382627
 30
0.0
  0
SPLINE
  5
128
100
AcDbEntity
  8
Layer_1
 62
7
100
AcDbSpline
 70
8
 71
3
 72
8
 73
4
 74
0
 40
0
 40
0
 40
0
 40
0
 40
1
 40
1
 40
1
 40
1
 10
3.951613
 20
30.935978
 30
0.0
 10
3.934570
 20
30.493344
 30
0.0
 10
3.931248
 20
30.482815
 30
0.0
 10
3.582226
 20
29.765031
 30
0.0
  0
SPLINE
  5
129
100
AcDbEntity
  8
Layer_1
 62
7
100
AcDbSpline
 70
8
 71
3
 72
8
 73
4
 74
0
 40
0
 40
0
 40
0
 40
0
 40
1
 40
1
 40
1
 40
1
 10
3.582226
 20
29.765031
 30
0.0
 10
3.388523
 20
29.366668
 30
0.0
 10
3.129847
 20
28.869765
 30
0.0
 10
3.007390
 20
28.660804
 30
0.0
  0
SPLINE
  5
12a
100
AcDbEntity
  8
Layer_1
 62
7
100
AcDbSpline
 70
8
 71
3
 72
8
 73
4
 74
0
 40
0
 40
0
 40
0
 40
0
 40
1
 40
1
 40
1
 40
1
 10
3.007390
 20
28.660804
 30
0.0
 10
2.816149
 20
28.334468
 30
0.0
 10
2.795534
 20
28.274833
 30
0.0
 10
2.861253
 20
28.238055
 30
0.0
  0
SPLINE
  5
12b
100
AcDbEntity
  8
Layer_1
 62
7
100
AcDbSpline
 70
8
 71
3
 72
8
 73
4
 74
0
 40
0
 40
0
 40
0
 40
0
 40
1
 40
1
 40
1
 40
1
 10
2.861253
 20
28.238055
 30
0.0
 10
2.976713
 20
28.173440
 30
0.0
 10
3.667890
 20
27.646662
 30
0.0
 10
3.884655
 20
27.458073
 30
0.0
  0
LWPOLYLINE
  5
12c
100
AcDbEntity
  8
Layer_1
 62
7
100
AcDbPolyline
 90
5
 70
0
 10
2.556681
 20
31.660274
 30
0.0
 10
2.666972
 20
31.382627
 30
0.0
 10
3.317892
 20
31.382627
 30
0.0
 10
3.968812
 20
31.382627
 30
0.0
 10
3.951613
 20
30.935978
 30
0.0
  0
SPLINE
  5
12d
100
AcDbEntity
  8
Layer_1
 62
7
100
AcDbSpline
 70
8
 71
3
 72
8
 73
4
 74
0
 40
0
 40
0
 40
0
 40
0
 40
1
 40
1
 40
1
 40
1
 10
3.814912
 20
26.959268
 30
0.0
 10
3.671646
 20
26.776197
 30
0.0
 10
3.548180
 20
26.617751
 30
0.0
 10
3.540544
 20
26.607166
 30
0.0
  0
SPLINE
  5
12e
100
AcDbEntity
  8
Layer_1
 62
7
100
AcDbSpline
 70
8
 71
3
 72
8
 73
4
 74
0
 40
0
 40
0
 40
0
 40
0
 40
1
 40
1
 40
1
 40
1
 10
3.540544
 20
26.607166
 30
0.0
 10
3.532907
 20
26.596580
 30
0.0
 10
3.339530
 20
26.786709
 30
0.0
 10
3.110814
 20
27.029673
 30
0.0
  0
SPLINE
  5
12f
100
AcDbEntity
  8
Layer_1
 62
7
100
AcDbSpline
 70
8
 71
3
 72
8
 73
4
 74
0
 40
0
 40
0
 40
0
 40
0
 40
1
 40
1
 40
1
 40
1
 10
3.110814
 20
27.029673
 30
0.0
 10
2.882098
 20
27.272636
 30
0.0
 10
2.675281
 20
27.471424
 30
0.0
 10
2.651218
 20
27.471424
 30
0.0
  0
SPLINE
  5
130
100
AcDbEntity
  8
Layer_1
 62
7
100
AcDbSpline
 70
8
 71
3
 72
8
 73
4
 74
0
 40
0
 40
0
 40
0
 40
0
 40
1
 40
1
 40
1
 40
1
 10
2.651218
 20
27.471424
 30
0.0
 10
2.625649
 20
27.471424
 30
0.0
 10
2.607469
 20
26.448101
 30
0.0
 10
2.607469
 20
25.008815
 30
0.0
  0
LWPOLYLINE
  5
131
100
AcDbEntity
  8
Layer_1
 62
7
100
AcDbPolyline
 90
3
 70
0
 10
3.884655
 20
27.458073
 30
0.0
 10
4.075396
 20
27.292124
 30
0.0
 10
3.814912
 20
26.959268
 30
0.0
  0
LWPOLYLINE
  5
132
100
AcDbEntity
  8
Layer_1
 62
7
100
AcDbPolyline
 90
6
 70
0
 10
2.607469
 20
25.008815
 30
0.0
 10
2.607469
 20
22.546206
 30
0.0
 10
2.221177
 20
22.546206
 30
0.0
 10
1.834886
 20
22.546206
 30
0.0
 10
1.834886
 20
24.719096
 30
0.0
 10
1.834886
 20
24.719096
 30
0.0
  0
SPLINE
  5
133
100
AcDbEntity
  8
Layer_1
 62
7
100
AcDbSpline
 70
8
 71
3
 72
8
 73
4
 74
0
 40
0
 40
0
 40
0
 40
0
 40
1
 40
1
 40
1
 40
1
 10
28.762325
 20
23.799092
 30
0.0
 10
29.835365
 20
25.036677
 30
0.0
 10
30.561828
 20
26.495188
 30
0.0
 10
31.024381
 20
28.340581
 30
0.0
  0
SPLINE
  5
134
100
AcDbEntity
  8
Layer_1
 62
7
100
AcDbSpline
 70
8
 71
3
 72
8
 73
4
 74
0
 40
0
 40
0
 40
0
 40
0
 40
1
 40
1
 40
1
 40
1
 10
31.024381
 20
28.340581
 30
0.0
 10
31.271839
 20
29.327834
 30
0.0
 10
31.447274
 20
30.446148
 30
0.0
 10
31.512177
 20
31.450051
 30
0.0
  0
SPLINE
  5
135
100
AcDbEntity
  8
Layer_1
 62
7
100
AcDbSpline
 70
8
 71
3
 72
8
 73
4
 74
0
 40
0
 40
0
 40
0
 40
0
 40
1
 40
1
 40
1
 40
1
 10
31.512177
 20
31.450051
 30
0.0
 10
31.549817
 20
32.032249
 30
0.0
 10
31.495328
 20
31.985278
 30
0.0
 10
32.070111
 20
31.930985
 30
0.0
  0
LWPOLYLINE
  5
136
100
AcDbEntity
  8
Layer_1
 62
7
100
AcDbPolyline
 90
3
 70
0
 10
28.698309
 20
22.990294
 30
0.0
 10
28.404239
 20
23.386095
 30
0.0
 10
28.762325
 20
23.799092
 30
0.0
  0
SPLINE
  5
137
100
AcDbEntity
  8
Layer_1
 62
7
100
AcDbSpline
 70
8
 71
3
 72
8
 73
4
 74
0
 40
0
 40
0
 40
0
 40
0
 40
1
 40
1
 40
1
 40
1
 10
32.368987
 20
31.629538
 30
0.0
 10
32.187704
 20
29.481555
 30
0.0
 10
31.898079
 20
27.919146
 30
0.0
 10
31.432322
 20
26.576657
 30
0.0
  0
SPLINE
  5
138
100
AcDbEntity
  8
Layer_1
 62
7
100
AcDbSpline
 70
8
 71
3
 72
8
 73
4
 74
0
 40
0
 40
0
 40
0
 40
0
 40
1
 40
1
 40
1
 40
1
 10
31.432322
 20
26.576657
 30
0.0
 10
31.162639
 20
25.799323
 30
0.0
 10
30.606314
 20
24.662531
 30
0.0
 10
30.192438
 20
24.043086
 30
0.0
  0
SPLINE
  5
139
100
AcDbEntity
  8
Layer_1
 62
7
100
AcDbSpline
 70
8
 71
3
 72
8
 73
4
 74
0
 40
0
 40
0
 40
0
 40
0
 40
1
 40
1
 40
1
 40
1
 10
30.192438
 20
24.043086
 30
0.0
 10
29.858936
 20
23.543936
 30
0.0
 10
29.095198
 20
22.594492
 30
0.0
 10
29.027182
 20
22.594492
 30
0.0
  0
SPLINE
  5
13a
100
AcDbEntity
  8
Layer_1
 62
7
100
AcDbSpline
 70
8
 71
3
 72
8
 73
4
 74
0
 40
0
 40
0
 40
0
 40
0
 40
1
 40
1
 40
1
 40
1
 10
29.027182
 20
22.594492
 30
0.0
 10
29.008019
 20
22.594492
 30
0.0
 10
28.860033
 20
22.772603
 30
0.0
 10
28.698297
 20
22.990294
 30
0.0
  0
LWPOLYLINE
  5
13b
100
AcDbEntity
  8
Layer_1
 62
7
100
AcDbPolyline
 90
3
 70
0
 10
32.070111
 20
31.930985
 30
0.0
 10
32.391875
 20
31.900592
 30
0.0
 10
32.368987
 20
31.629538
 30
0.0
  0
SPLINE
  5
13c
100
AcDbEntity
  8
Layer_1
 62
7
100
AcDbSpline
 70
8
 71
3
 72
8
 73
4
 74
0
 40
0
 40
0
 40
0
 40
0
 40
1
 40
1
 40
1
 40
1
 10
37.756694
 20
22.872232
 30
0.0
 10
37.213605
 20
23.465055
 30
0.0
 10
36.741481
 20
24.184569
 30
0.0
 10
36.259677
 20
25.153674
 30
0.0
  0
SPLINE
  5
13d
100
AcDbEntity
  8
Layer_1
 62
7
100
AcDbSpline
 70
8
 71
3
 72
8
 73
4
 74
0
 40
0
 40
0
 40
0
 40
0
 40
1
 40
1
 40
1
 40
1
 10
36.259677
 20
25.153674
 30
0.0
 10
35.330799
 20
27.022033
 30
0.0
 10
34.714129
 20
29.255033
 30
0.0
 10
34.452436
 20
31.697830
 30
0.0
  0
LWPOLYLINE
  5
13e
100
AcDbEntity
  8
Layer_1
 62
7
100
AcDbPolyline
 90
3
 70
0
 10
28.698297
 20
22.990294
 30
0.0
 10
28.698297
 20
22.990294
 30
0.0
 10
28.698309
 20
22.990294
 30
0.0
  0
SPLINE
  5
13f
100
AcDbEntity
  8
Layer_1
 62
7
100
AcDbSpline
 70
8
 71
3
 72
8
 73
4
 74
0
 40
0
 40
0
 40
0
 40
0
 40
1
 40
1
 40
1
 40
1
 10
35.271673
 20
32.039844
 30
0.0
 10
35.285107
 20
31.957229
 30
0.0
 10
35.330274
 20
31.628888
 30
0.0
 10
35.372057
 20
31.310198
 30
0.0
  0
SPLINE
  5
140
100
AcDbEntity
  8
Layer_1
 62
7
100
AcDbSpline
 70
8
 71
3
 72
8
 73
4
 74
0
 40
0
 40
0
 40
0
 40
0
 40
1
 40
1
 40
1
 40
1
 10
35.372057
 20
31.310198
 30
0.0
 10
35.788809
 20
28.131409
 30
0.0
 10
36.820910
 20
25.494006
 30
0.0
 10
38.267279
 20
23.911828
 30
0.0
  0
LWPOLYLINE
  5
141
100
AcDbEntity
  8
Layer_1
 62
7
100
AcDbPolyline
 90
5
 70
0
 10
34.452436
 20
31.697830
 30
0.0
 10
34.421253
 20
31.988890
 30
0.0
 10
34.834257
 20
32.089471
 30
0.0
 10
35.247261
 20
32.190052
 30
0.0
 10
35.271673
 20
32.039844
 30
0.0
  0
SPLINE
  5
142
100
AcDbEntity
  8
Layer_1
 62
7
100
AcDbSpline
 70
8
 71
3
 72
8
 73
4
 74
0
 40
0
 40
0
 40
0
 40
0
 40
1
 40
1
 40
1
 40
1
 10
38.338015
 20
23.103441
 30
0.0
 10
38.201673
 20
22.850529
 30
0.0
 10
38.072311
 20
22.632593
 30
0.0
 10
38.050541
 20
22.619139
 30
0.0
  0
SPLINE
  5
143
100
AcDbEntity
  8
Layer_1
 62
7
100
AcDbSpline
 70
8
 71
3
 72
8
 73
4
 74
0
 40
0
 40
0
 40
0
 40
0
 40
1
 40
1
 40
1
 40
1
 10
38.050541
 20
22.619139
 30
0.0
 10
38.028781
 20
22.605685
 30
0.0
 10
37.896540
 20
22.719577
 30
0.0
 10
37.756691
 20
22.872232
 30
0.0
  0
LWPOLYLINE
  5
144
100
AcDbEntity
  8
Layer_1
 62
7
100
AcDbPolyline
 90
3
 70
0
 10
38.267279
 20
23.911828
 30
0.0
 10
38.585908
 20
23.563281
 30
0.0
 10
38.338015
 20
23.103441
 30
0.0
  0
SPLINE
  5
145
100
AcDbEntity
  8
Layer_1
 62
7
100
AcDbSpline
 70
8
 71
3
 72
8
 73
4
 74
0
 40
0
 40
0
 40
0
 40
0
 40
1
 40
1
 40
1
 40
1
 10
33.386336
 20
11.622262
 30
0.0
 10
33.304601
 20
11.747933
 30
0.0
 10
33.200546
 20
11.907982
 30
0.0
 10
33.155103
 20
11.977925
 30
0.0
  0
LWPOLYLINE
  5
146
100
AcDbEntity
  8
Layer_1
 62
7
100
AcDbPolyline
 90
3
 70
0
 10
37.756691
 20
22.872232
 30
0.0
 10
37.756691
 20
22.872232
 30
0.0
 10
37.756694
 20
22.872232
 30
0.0
  0
SPLINE
  5
147
100
AcDbEntity
  8
Layer_1
 62
7
100
AcDbSpline
 70
8
 71
3
 72
8
 73
4
 74
0
 40
0
 40
0
 40
0
 40
0
 40
1
 40
1
 40
1
 40
1
 10
33.419167
 20
12.281222
 30
0.0
 10
34.094256
 20
12.624185
 30
0.0
 10
34.954300
 20
13.295756
 30
0.0
 10
35.249699
 20
13.710607
 30
0.0
  0
LWPOLYLINE
  5
148
100
AcDbEntity
  8
Layer_1
 62
7
100
AcDbPolyline
 90
3
 70
0
 10
33.155103
 20
11.977925
 30
0.0
 10
33.072479
 20
12.105095
 30
0.0
 10
33.419167
 20
12.281222
 30
0.0
  0
SPLINE
  5
149
100
AcDbEntity
  8
Layer_1
 62
7
100
AcDbSpline
 70
8
 71
3
 72
8
 73
4
 74
0
 40
0
 40
0
 40
0
 40
0
 40
1
 40
1
 40
1
 40
1
 10
35.108845
 20
14.228861
 30
0.0
 10
34.503470
 20
15.204927
 30
0.0
 10
34.080004
 20
16.235253
 30
0.0
 10
33.828787
 20
17.343340
 30
0.0
  0
SPLINE
  5
14a
100
AcDbEntity
  8
Layer_1
 62
7
100
AcDbSpline
 70
8
 71
3
 72
8
 73
4
 74
0
 40
0
 40
0
 40
0
 40
0
 40
1
 40
1
 40
1
 40
1
 10
33.828787
 20
17.343340
 30
0.0
 10
33.805870
 20
17.444428
 30
0.0
 10
33.770082
 20
17.476127
 30
0.0
 10
33.678884
 20
17.476127
 30
0.0
  0
SPLINE
  5
14b
100
AcDbEntity
  8
Layer_1
 62
7
100
AcDbSpline
 70
8
 71
3
 72
8
 73
4
 74
0
 40
0
 40
0
 40
0
 40
0
 40
1
 40
1
 40
1
 40
1
 10
33.678884
 20
17.476127
 30
0.0
 10
33.561697
 20
17.476127
 30
0.0
 10
33.559078
 20
17.467980
 30
0.0
 10
33.558570
 20
17.101907
 30
0.0
  0
SPLINE
  5
14c
100
AcDbEntity
  8
Layer_1
 62
7
100
AcDbSpline
 70
8
 71
3
 72
8
 73
4
 74
0
 40
0
 40
0
 40
0
 40
0
 40
1
 40
1
 40
1
 40
1
 10
33.558570
 20
17.101907
 30
0.0
 10
33.558006
 20
16.662954
 30
0.0
 10
33.449096
 20
15.587171
 30
0.0
 10
33.341064
 20
14.952646
 30
0.0
  0
SPLINE
  5
14d
100
AcDbEntity
  8
Layer_1
 62
7
100
AcDbSpline
 70
8
 71
3
 72
8
 73
4
 74
0
 40
0
 40
0
 40
0
 40
0
 40
1
 40
1
 40
1
 40
1
 10
33.341064
 20
14.952646
 30
0.0
 10
33.166631
 20
13.928088
 30
0.0
 10
32.822089
 20
12.824829
 30
0.0
 10
32.392414
 20
11.914957
 30
0.0
  0
LWPOLYLINE
  5
14e
100
AcDbEntity
  8
Layer_1
 62
7
100
AcDbPolyline
 90
3
 70
0
 10
35.249699
 20
13.710607
 30
0.0
 10
35.346214
 20
13.846146
 30
0.0
 10
35.108845
 20
14.228861
 30
0.0
  0
SPLINE
  5
14f
100
AcDbEntity
  8
Layer_1
 62
7
100
AcDbSpline
 70
8
 71
3
 72
8
 73
4
 74
0
 40
0
 40
0
 40
0
 40
0
 40
1
 40
1
 40
1
 40
1
 10
31.601737
 20
12.309059
 30
0.0
 10
31.949596
 20
13.006604
 30
0.0
 10
32.263043
 20
13.962640
 30
0.0
 10
32.440928
 20
14.868659
 30
0.0
  0
SPLINE
  5
150
100
AcDbEntity
  8
Layer_1
 62
7
100
AcDbSpline
 70
8
 71
3
 72
8
 73
4
 74
0
 40
0
 40
0
 40
0
 40
0
 40
1
 40
1
 40
1
 40
1
 10
32.440928
 20
14.868659
 30
0.0
 10
32.677204
 20
16.072077
 30
0.0
 10
32.738218
 20
16.909972
 30
0.0
 10
32.738218
 20
18.951345
 30
0.0
  0
LWPOLYLINE
  5
151
100
AcDbEntity
  8
Layer_1
 62
7
100
AcDbPolyline
 90
5
 70
0
 10
32.392414
 20
11.914957
 30
0.0
 10
32.194706
 20
11.496294
 30
0.0
 10
31.819858
 20
11.745537
 30
0.0
 10
31.445008
 20
11.994780
 30
0.0
 10
31.601737
 20
12.309059
 30
0.0
  0
SPLINE
  5
152
100
AcDbEntity
  8
Layer_1
 62
7
100
AcDbSpline
 70
8
 71
3
 72
8
 73
4
 74
0
 40
0
 40
0
 40
0
 40
0
 40
1
 40
1
 40
1
 40
1
 10
32.991721
 20
20.589433
 30
0.0
 10
34.450127
 20
20.773728
 30
0.0
 10
35.711170
 20
20.989404
 30
0.0
 10
36.714565
 20
21.226153
 30
0.0
  0
LWPOLYLINE
  5
153
100
AcDbEntity
  8
Layer_1
 62
7
100
AcDbPolyline
 90
3
 70
0
 10
32.738218
 20
18.951345
 30
0.0
 10
32.738218
 20
20.557399
 30
0.0
 10
32.991721
 20
20.589433
 30
0.0
  0
SPLINE
  5
154
100
AcDbEntity
  8
Layer_1
 62
7
100
AcDbSpline
 70
8
 71
3
 72
8
 73
4
 74
0
 40
0
 40
0
 40
0
 40
0
 40
1
 40
1
 40
1
 40
1
 10
37.454860
 20
21.139183
 30
0.0
 10
37.573895
 20
21.023367
 30
0.0
 10
37.712966
 20
20.870952
 30
0.0
 10
37.763904
 20
20.800482
 30
0.0
  0
LWPOLYLINE
  5
155
100
AcDbEntity
  8
Layer_1
 62
7
100
AcDbPolyline
 90
3
 70
0
 10
36.714565
 20
21.226153
 30
0.0
 10
37.238432
 20
21.349757
 30
0.0
 10
37.454860
 20
21.139183
 30
0.0
  0
SPLINE
  5
156
100
AcDbEntity
  8
Layer_1
 62
7
100
AcDbSpline
 70
8
 71
3
 72
8
 73
4
 74
0
 40
0
 40
0
 40
0
 40
0
 40
1
 40
1
 40
1
 40
1
 10
37.047754
 20
20.476606
 30
0.0
 10
36.111519
 20
20.250004
 30
0.0
 10
35.384147
 20
20.117124
 30
0.0
 10
34.500673
 20
20.011293
 30
0.0
  0
SPLINE
  5
157
100
AcDbEntity
  8
Layer_1
 62
7
100
AcDbSpline
 70
8
 71
3
 72
8
 73
4
 74
0
 40
0
 40
0
 40
0
 40
0
 40
1
 40
1
 40
1
 40
1
 10
34.500673
 20
20.011293
 30
0.0
 10
34.155425
 20
19.969936
 30
0.0
 10
33.802331
 20
19.924843
 30
0.0
 10
33.716019
 20
19.911087
 30
0.0
  0
LWPOLYLINE
  5
158
100
AcDbEntity
  8
Layer_1
 62
7
100
AcDbPolyline
 90
3
 70
0
 10
37.763904
 20
20.800482
 30
0.0
 10
37.856521
 20
20.672356
 30
0.0
 10
37.047754
 20
20.476606
 30
0.0
  0
SPLINE
  5
159
100
AcDbEntity
  8
Layer_1
 62
7
100
AcDbSpline
 70
8
 71
3
 72
8
 73
4
 74
0
 40
0
 40
0
 40
0
 40
0
 40
1
 40
1
 40
1
 40
1
 10
35.683692
 20
18.248710
 30
0.0
 10
37.517886
 20
18.248710
 30
0.0
 10
37.808298
 20
18.239035
 30
0.0
 10
37.808298
 20
18.177940
 30
0.0
  0
SPLINE
  5
15a
100
AcDbEntity
  8
Layer_1
 62
7
100
AcDbSpline
 70
8
 71
3
 72
8
 73
4
 74
0
 40
0
 40
0
 40
0
 40
0
 40
1
 40
1
 40
1
 40
1
 10
37.808298
 20
18.177940
 30
0.0
 10
37.808298
 20
18.139017
 30
0.0
 10
37.774301
 20
17.863439
 30
0.0
 10
37.732753
 20
17.565545
 30
0.0
  0
SPLINE
  5
15b
100
AcDbEntity
  8
Layer_1
 62
7
100
AcDbSpline
 70
8
 71
3
 72
8
 73
4
 74
0
 40
0
 40
0
 40
0
 40
0
 40
1
 40
1
 40
1
 40
1
 10
37.732753
 20
17.565545
 30
0.0
 10
37.576483
 20
16.445130
 30
0.0
 10
37.202226
 20
15.315927
 30
0.0
 10
36.676341
 20
14.378144
 30
0.0
  0
SPLINE
  5
15c
100
AcDbEntity
  8
Layer_1
 62
7
100
AcDbSpline
 70
8
 71
3
 72
8
 73
4
 74
0
 40
0
 40
0
 40
0
 40
0
 40
1
 40
1
 40
1
 40
1
 10
36.676341
 20
14.378144
 30
0.0
 10
36.528748
 20
14.114948
 30
0.0
 10
36.407990
 20
13.888189
 30
0.0
 10
36.407990
 20
13.874234
 30
0.0
  0
SPLINE
  5
15d
100
AcDbEntity
  8
Layer_1
 62
7
100
AcDbSpline
 70
8
 71
3
 72
8
 73
4
 74
0
 40
0
 40
0
 40
0
 40
0
 40
1
 40
1
 40
1
 40
1
 10
36.407990
 20
13.874234
 30
0.0
 10
36.407990
 20
13.860278
 30
0.0
 10
36.522067
 20
13.727338
 30
0.0
 10
36.661494
 20
13.578810
 30
0.0
  0
SPLINE
  5
15e
100
AcDbEntity
  8
Layer_1
 62
7
100
AcDbSpline
 70
8
 71
3
 72
8
 73
4
 74
0
 40
0
 40
0
 40
0
 40
0
 40
1
 40
1
 40
1
 40
1
 10
36.661494
 20
13.578810
 30
0.0
 10
36.987110
 20
13.231938
 30
0.0
 10
37.660004
 20
12.669621
 30
0.0
 10
38.124711
 20
12.356039
 30
0.0
  0
LWPOLYLINE
  5
15f
100
AcDbEntity
  8
Layer_1
 62
7
100
AcDbPolyline
 90
5
 70
0
 10
33.716019
 20
19.911087
 30
0.0
 10
33.559090
 20
19.886073
 30
0.0
 10
33.559090
 20
19.067391
 30
0.0
 10
33.559090
 20
18.248710
 30
0.0
 10
35.683692
 20
18.248710
 30
0.0
  0
SPLINE
  5
160
100
AcDbEntity
  8
Layer_1
 62
7
100
AcDbSpline
 70
8
 71
3
 72
8
 73
4
 74
0
 40
0
 40
0
 40
0
 40
0
 40
1
 40
1
 40
1
 40
1
 10
38.246310
 20
11.830577
 30
0.0
 10
37.858895
 20
11.383376
 30
0.0
 10
37.900142
 20
11.393511
 30
0.0
 10
37.521216
 20
11.652418
 30
0.0
  0
SPLINE
  5
161
100
AcDbEntity
  8
Layer_1
 62
7
100
AcDbSpline
 70
8
 71
3
 72
8
 73
4
 74
0
 40
0
 40
0
 40
0
 40
0
 40
1
 40
1
 40
1
 40
1
 10
37.521216
 20
11.652418
 30
0.0
 10
37.078245
 20
11.955087
 30
0.0
 10
36.434570
 20
12.529289
 30
0.0
 10
36.166558
 20
12.860866
 30
0.0
  0
SPLINE
  5
162
100
AcDbEntity
  8
Layer_1
 62
7
100
AcDbSpline
 70
8
 71
3
 72
8
 73
4
 74
0
 40
0
 40
0
 40
0
 40
0
 40
1
 40
1
 40
1
 40
1
 10
36.166558
 20
12.860866
 30
0.0
 10
36.047048
 20
13.008719
 30
0.0
 10
35.926911
 20
13.129837
 30
0.0
 10
35.899587
 20
13.130017
 30
0.0
  0
SPLINE
  5
163
100
AcDbEntity
  8
Layer_1
 62
7
100
AcDbSpline
 70
8
 71
3
 72
8
 73
4
 74
0
 40
0
 40
0
 40
0
 40
0
 40
1
 40
1
 40
1
 40
1
 10
35.899587
 20
13.130017
 30
0.0
 10
35.872268
 20
13.130210
 30
0.0
 10
35.709296
 20
12.987123
 30
0.0
 10
35.537439
 20
12.812073
 30
0.0
  0
SPLINE
  5
164
100
AcDbEntity
  8
Layer_1
 62
7
100
AcDbSpline
 70
8
 71
3
 72
8
 73
4
 74
0
 40
0
 40
0
 40
0
 40
0
 40
1
 40
1
 40
1
 40
1
 10
35.537439
 20
12.812073
 30
0.0
 10
35.365583
 20
12.637024
 30
0.0
 10
35.044146
 20
12.351525
 30
0.0
 10
34.823138
 20
12.177631
 30
0.0
  0
SPLINE
  5
165
100
AcDbEntity
  8
Layer_1
 62
7
100
AcDbSpline
 70
8
 71
3
 72
8
 73
4
 74
0
 40
0
 40
0
 40
0
 40
0
 40
1
 40
1
 40
1
 40
1
 10
34.823138
 20
12.177631
 30
0.0
 10
34.413715
 20
11.855490
 30
0.0
 10
33.682903
 20
11.391330
 30
0.0
 10
33.587597
 20
11.392900
 30
0.0
  0
SPLINE
  5
166
100
AcDbEntity
  8
Layer_1
 62
7
100
AcDbSpline
 70
8
 71
3
 72
8
 73
4
 74
0
 40
0
 40
0
 40
0
 40
0
 40
1
 40
1
 40
1
 40
1
 10
33.587597
 20
11.392900
 30
0.0
 10
33.558638
 20
11.393380
 30
0.0
 10
33.468070
 20
11.496590
 30
0.0
 10
33.386336
 20
11.622261
 30
0.0
  0
LWPOLYLINE
  5
167
100
AcDbEntity
  8
Layer_1
 62
7
100
AcDbPolyline
 90
3
 70
0
 10
38.124711
 20
12.356039
 30
0.0
 10
38.488727
 20
12.110403
 30
0.0
 10
38.246310
 20
11.830577
 30
0.0
  0
SPLINE
  5
168
100
AcDbEntity
  8
Layer_1
 62
7
100
AcDbSpline
 70
8
 71
3
 72
8
 73
4
 74
0
 40
0
 40
0
 40
0
 40
0
 40
1
 40
1
 40
1
 40
1
 10
36.173608
 20
15.127202
 30
0.0
 10
36.496842
 20
15.764895
 30
0.0
 10
36.726086
 20
16.484365
 30
0.0
 10
36.864349
 20
17.295053
 30
0.0
  0
LWPOLYLINE
  5
169
100
AcDbEntity
  8
Layer_1
 62
7
100
AcDbPolyline
 90
3
 70
0
 10
33.386336
 20
11.622261
 30
0.0
 10
33.386336
 20
11.622261
 30
0.0
 10
33.386336
 20
11.622262
 30
0.0
  0
SPLINE
  5
16a
100
AcDbEntity
  8
Layer_1
 62
7
100
AcDbSpline
 70
8
 71
3
 72
8
 73
4
 74
0
 40
0
 40
0
 40
0
 40
0
 40
1
 40
1
 40
1
 40
1
 10
34.698376
 20
17.174337
 30
0.0
 10
34.860165
 20
16.460699
 30
0.0
 10
35.287275
 20
15.423218
 30
0.0
 10
35.657595
 20
14.844312
 30
0.0
  0
SPLINE
  5
16b
100
AcDbEntity
  8
Layer_1
 62
7
100
AcDbSpline
 70
8
 71
3
 72
8
 73
4
 74
0
 40
0
 40
0
 40
0
 40
0
 40
1
 40
1
 40
1
 40
1
 10
35.657595
 20
14.844312
 30
0.0
 10
35.870902
 20
14.510863
 30
0.0
 10
35.857465
 20
14.503498
 30
0.0
 10
36.173608
 20
15.127202
 30
0.0
  0
LWPOLYLINE
  5
16c
100
AcDbEntity
  8
Layer_1
 62
7
100
AcDbPolyline
 90
5
 70
0
 10
36.864349
 20
17.295053
 30
0.0
 10
36.895230
 20
17.476127
 30
0.0
 10
35.762593
 20
17.476127
 30
0.0
 10
34.629956
 20
17.476127
 30
0.0
 10
34.698376
 20
17.174337
 30
0.0
  0
SPLINE
  5
16d
100
AcDbEntity
  8
Layer_1
 62
7
100
AcDbSpline
 70
8
 71
3
 72
8
 73
4
 74
0
 40
0
 40
0
 40
0
 40
0
 40
1
 40
1
 40
1
 40
1
 10
28.423560
 20
13.380333
 30
0.0
 10
28.379781
 20
13.598607
 30
0.0
 10
28.360302
 20
13.790675
 30
0.0
 10
28.380272
 20
13.807150
 30
0.0
  0
SPLINE
  5
16e
100
AcDbEntity
  8
Layer_1
 62
7
100
AcDbSpline
 70
8
 71
3
 72
8
 73
4
 74
0
 40
0
 40
0
 40
0
 40
0
 40
1
 40
1
 40
1
 40
1
 10
28.380272
 20
13.807150
 30
0.0
 10
28.400254
 20
13.823626
 30
0.0
 10
28.715352
 20
13.919865
 30
0.0
 10
29.080519
 20
14.021016
 30
0.0
  0
LWPOLYLINE
  5
16f
100
AcDbEntity
  8
Layer_1
 62
7
100
AcDbPolyline
 90
3
 70
0
 10
36.173608
 20
15.127202
 30
0.0
 10
36.173608
 20
15.127202
 30
0.0
 10
36.173608
 20
15.127202
 30
0.0
  0
SPLINE
  5
170
100
AcDbEntity
  8
Layer_1
 62
7
100
AcDbSpline
 70
8
 71
3
 72
8
 73
4
 74
0
 40
0
 40
0
 40
0
 40
0
 40
1
 40
1
 40
1
 40
1
 10
30.517042
 20
16.244823
 30
0.0
 10
30.517042
 20
15.275472
 30
0.0
 10
30.535189
 20
14.482367
 30
0.0
 10
30.557343
 20
14.482367
 30
0.0
  0
SPLINE
  5
171
100
AcDbEntity
  8
Layer_1
 62
7
100
AcDbSpline
 70
8
 71
3
 72
8
 73
4
 74
0
 40
0
 40
0
 40
0
 40
0
 40
1
 40
1
 40
1
 40
1
 10
30.557343
 20
14.482367
 30
0.0
 10
30.579497
 20
14.482367
 30
0.0
 10
30.811256
 20
14.569283
 30
0.0
 10
31.072336
 20
14.675513
 30
0.0
  0
SPLINE
  5
172
100
AcDbEntity
  8
Layer_1
 62
7
100
AcDbSpline
 70
8
 71
3
 72
8
 73
4
 74
0
 40
0
 40
0
 40
0
 40
0
 40
1
 40
1
 40
1
 40
1
 10
31.072336
 20
14.675513
 30
0.0
 10
31.333417
 20
14.781743
 30
0.0
 10
31.573230
 20
14.868659
 30
0.0
 10
31.605251
 20
14.868659
 30
0.0
  0
SPLINE
  5
173
100
AcDbEntity
  8
Layer_1
 62
7
100
AcDbSpline
 70
8
 71
3
 72
8
 73
4
 74
0
 40
0
 40
0
 40
0
 40
0
 40
1
 40
1
 40
1
 40
1
 10
31.605251
 20
14.868659
 30
0.0
 10
31.639101
 20
14.868659
 30
0.0
 10
31.677316
 20
14.762529
 30
0.0
 10
31.696539
 20
14.615155
 30
0.0
  0
SPLINE
  5
174
100
AcDbEntity
  8
Layer_1
 62
7
100
AcDbSpline
 70
8
 71
3
 72
8
 73
4
 74
0
 40
0
 40
0
 40
0
 40
0
 40
1
 40
1
 40
1
 40
1
 10
31.696539
 20
14.615155
 30
0.0
 10
31.714714
 20
14.475728
 30
0.0
 10
31.740639
 20
14.316623
 30
0.0
 10
31.754126
 20
14.261590
 30
0.0
  0
SPLINE
  5
175
100
AcDbEntity
  8
Layer_1
 62
7
100
AcDbSpline
 70
8
 71
3
 72
8
 73
4
 74
0
 40
0
 40
0
 40
0
 40
0
 40
1
 40
1
 40
1
 40
1
 10
31.754126
 20
14.261590
 30
0.0
 10
31.775660
 20
14.173759
 30
0.0
 10
31.712222
 20
14.133340
 30
0.0
 10
31.235204
 20
13.930917
 30
0.0
  0
SPLINE
  5
176
100
AcDbEntity
  8
Layer_1
 62
7
100
AcDbSpline
 70
8
 71
3
 72
8
 73
4
 74
0
 40
0
 40
0
 40
0
 40
0
 40
1
 40
1
 40
1
 40
1
 10
31.235204
 20
13.930917
 30
0.0
 10
30.571858
 20
13.649427
 30
0.0
 10
29.785048
 20
13.365240
 30
0.0
 10
29.140878
 20
13.174469
 30
0.0
  0
SPLINE
  5
177
100
AcDbEntity
  8
Layer_1
 62
7
100
AcDbSpline
 70
8
 71
3
 72
8
 73
4
 74
0
 40
0
 40
0
 40
0
 40
0
 40
1
 40
1
 40
1
 40
1
 10
29.140878
 20
13.174469
 30
0.0
 10
28.875301
 20
13.095819
 30
0.0
 10
28.623170
 20
13.020669
 30
0.0
 10
28.580585
 20
13.007469
 30
0.0
  0
SPLINE
  5
178
100
AcDbEntity
  8
Layer_1
 62
7
100
AcDbSpline
 70
8
 71
3
 72
8
 73
4
 74
0
 40
0
 40
0
 40
0
 40
0
 40
1
 40
1
 40
1
 40
1
 10
28.580585
 20
13.007469
 30
0.0
 10
28.517816
 20
12.988013
 30
0.0
 10
28.488092
 20
13.058594
 30
0.0
 10
28.423560
 20
13.380333
 30
0.0
  0
LWPOLYLINE
  5
179
100
AcDbEntity
  8
Layer_1
 62
7
100
AcDbPolyline
 90
23
 70
0
 10
29.080519
 20
14.021016
 30
0.0
 10
29.744458
 20
14.204928
 30
0.0
 10
29.744458
 20
16.106104
 30
0.0
 10
29.744458
 20
18.007278
 30
0.0
 10
29.116734
 20
18.007278
 30
0.0
 10
28.489010
 20
18.007278
 30
0.0
 10
28.489010
 20
18.393570
 30
0.0
 10
28.489010
 20
18.779862
 30
0.0
 10
29.116734
 20
18.779862
 30
0.0
 10
29.744458
 20
18.779862
 30
0.0
 10
29.744458
 20
20.011166
 30
0.0
 10
29.744458
 20
21.242471
 30
0.0
 10
30.130750
 20
21.242471
 30
0.0
 10
30.517042
 20
21.242471
 30
0.0
 10
30.517042
 20
20.011166
 30
0.0
 10
30.517042
 20
18.779862
 30
0.0
 10
31.168910
 20
18.779862
 30
0.0
 10
31.820776
 20
18.779862
 30
0.0
 10
31.820776
 20
18.393570
 30
0.0
 10
31.820776
 20
18.007278
 30
0.0
 10
31.168910
 20
18.007278
 30
0.0
 10
30.517042
 20
18.007278
 30
0.0
 10
30.517042
 20
16.244823
 30
0.0
  0
SPLINE
  5
17a
100
AcDbEntity
  8
Layer_1
 62
7
100
AcDbSpline
 70
8
 71
3
 72
8
 73
4
 74
0
 40
0
 40
0
 40
0
 40
0
 40
1
 40
1
 40
1
 40
1
 10
3.887060
 20
11.316283
 30
0.0
 10
3.860503
 20
11.327323
 30
0.0
 10
3.719077
 20
11.349793
 30
0.0
 10
3.572782
 20
11.366214
 30
0.0
  0
SPLINE
  5
17b
100
AcDbEntity
  8
Layer_1
 62
7
100
AcDbSpline
 70
8
 71
3
 72
8
 73
4
 74
0
 40
0
 40
0
 40
0
 40
0
 40
1
 40
1
 40
1
 40
1
 10
3.572782
 20
11.366214
 30
0.0
 10
3.426487
 20
11.382636
 30
0.0
 10
3.280250
 20
11.412473
 30
0.0
 10
3.247811
 20
11.432522
 30
0.0
  0
SPLINE
  5
17c
100
AcDbEntity
  8
Layer_1
 62
7
100
AcDbSpline
 70
8
 71
3
 72
8
 73
4
 74
0
 40
0
 40
0
 40
0
 40
0
 40
1
 40
1
 40
1
 40
1
 10
3.247811
 20
11.432522
 30
0.0
 10
3.193597
 20
11.466028
 30
0.0
 10
3.012452
 20
12.200812
 30
0.0
 10
3.049812
 20
12.235666
 30
0.0
  0
SPLINE
  5
17d
100
AcDbEntity
  8
Layer_1
 62
7
100
AcDbSpline
 70
8
 71
3
 72
8
 73
4
 74
0
 40
0
 40
0
 40
0
 40
0
 40
1
 40
1
 40
1
 40
1
 10
3.049812
 20
12.235666
 30
0.0
 10
3.058821
 20
12.244071
 30
0.0
 10
3.207428
 20
12.221109
 30
0.0
 10
3.380052
 20
12.184644
 30
0.0
  0
SPLINE
  5
17e
100
AcDbEntity
  8
Layer_1
 62
7
100
AcDbSpline
 70
8
 71
3
 72
8
 73
4
 74
0
 40
0
 40
0
 40
0
 40
0
 40
1
 40
1
 40
1
 40
1
 10
3.380052
 20
12.184644
 30
0.0
 10
3.805331
 20
12.094807
 30
0.0
 10
4.504525
 20
12.096061
 30
0.0
 10
4.680333
 20
12.186987
 30
0.0
  0
SPLINE
  5
17f
100
AcDbEntity
  8
Layer_1
 62
7
100
AcDbSpline
 70
8
 71
3
 72
8
 73
4
 74
0
 40
0
 40
0
 40
0
 40
0
 40
1
 40
1
 40
1
 40
1
 10
4.680333
 20
12.186987
 30
0.0
 10
4.755469
 20
12.225841
 30
0.0
 10
4.830441
 20
12.292804
 30
0.0
 10
4.846938
 20
12.335795
 30
0.0
  0
SPLINE
  5
180
100
AcDbEntity
  8
Layer_1
 62
7
100
AcDbSpline
 70
8
 71
3
 72
8
 73
4
 74
0
 40
0
 40
0
 40
0
 40
0
 40
1
 40
1
 40
1
 40
1
 10
4.846938
 20
12.335795
 30
0.0
 10
4.863434
 20
12.378786
 30
0.0
 10
4.876932
 20
12.998863
 30
0.0
 10
4.876932
 20
13.713745
 30
0.0
  0
LWPOLYLINE
  5
181
100
AcDbEntity
  8
Layer_1
 62
7
100
AcDbPolyline
 90
3
 70
0
 10
28.423560
 20
13.380333
 30
0.0
 10
28.423560
 20
13.380333
 30
0.0
 10
28.423560
 20
13.380333
 30
0.0
  0
SPLINE
  5
182
100
AcDbEntity
  8
Layer_1
 62
7
100
AcDbSpline
 70
8
 71
3
 72
8
 73
4
 74
0
 40
0
 40
0
 40
0
 40
0
 40
1
 40
1
 40
1
 40
1
 10
5.697532
 20
13.552865
 30
0.0
 10
5.697372
 20
12.699710
 30
0.0
 10
5.676577
 20
12.017718
 30
0.0
 10
5.647527
 20
11.913121
 30
0.0
  0
SPLINE
  5
183
100
AcDbEntity
  8
Layer_1
 62
7
100
AcDbSpline
 70
8
 71
3
 72
8
 73
4
 74
0
 40
0
 40
0
 40
0
 40
0
 40
1
 40
1
 40
1
 40
1
 10
5.647527
 20
11.913121
 30
0.0
 10
5.578797
 20
11.665654
 30
0.0
 10
5.361894
 20
11.464484
 30
0.0
 10
5.089977
 20
11.396015
 30
0.0
  0
SPLINE
  5
184
100
AcDbEntity
  8
Layer_1
 62
7
100
AcDbSpline
 70
8
 71
3
 72
8
 73
4
 74
0
 40
0
 40
0
 40
0
 40
0
 40
1
 40
1
 40
1
 40
1
 10
5.089977
 20
11.396015
 30
0.0
 10
4.859884
 20
11.338076
 30
0.0
 10
3.975624
 20
11.279475
 30
0.0
 10
3.887060
 20
11.316295
 30
0.0
  0
LWPOLYLINE
  5
185
100
AcDbEntity
  8
Layer_1
 62
7
100
AcDbPolyline
 90
13
 70
0
 10
4.876932
 20
13.713745
 30
0.0
 10
4.876932
 20
15.013530
 30
0.0
 10
2.993761
 20
15.013530
 30
0.0
 10
1.110589
 20
15.013530
 30
0.0
 10
1.110589
 20
15.399822
 30
0.0
 10
1.110589
 20
15.786114
 30
0.0
 10
5.287367
 20
15.786114
 30
0.0
 10
9.464146
 20
15.786114
 30
0.0
 10
9.464146
 20
15.399822
 30
0.0
 10
9.464146
 20
15.013530
 30
0.0
 10
7.580974
 20
15.013530
 30
0.0
 10
5.697802
 20
15.013530
 30
0.0
 10
5.697532
 20
13.552865
 30
0.0
  0
LWPOLYLINE
  5
186
100
AcDbEntity
  8
Layer_1
 62
7
100
AcDbPolyline
 90
2
 70
0
 10
3.887060
 20
11.316295
 30
0.0
 10
3.887060
 20
11.316283
 30
0.0
  0
SPLINE
  5
187
100
AcDbEntity
  8
Layer_1
 62
7
100
AcDbSpline
 70
8
 71
3
 72
8
 73
4
 74
0
 40
0
 40
0
 40
0
 40
0
 40
1
 40
1
 40
1
 40
1
 10
8.909269
 20
12.176869
 30
0.0
 10
8.776711
 20
12.342754
 30
0.0
 10
8.319414
 20
12.827707
 30
0.0
 10
7.893053
 20
13.254541
 30
0.0
  0
LWPOLYLINE
  5
188
100
AcDbEntity
  8
Layer_1
 62
7
100
AcDbPolyline
 90
10
 70
0
 10
3.042047
 20
17.355411
 30
0.0
 10
3.042047
 20
17.765846
 30
0.0
 10
5.239081
 20
17.765846
 30
0.0
 10
7.436115
 20
17.765846
 30
0.0
 10
7.436115
 20
17.355411
 30
0.0
 10
7.436115
 20
16.944976
 30
0.0
 10
5.239081
 20
16.944976
 30
0.0
 10
3.042047
 20
16.944976
 30
0.0
 10
3.042047
 20
17.355411
 30
0.0
 10
3.042047
 20
17.355411
 30
0.0
  0
SPLINE
  5
189
100
AcDbEntity
  8
Layer_1
 62
7
100
AcDbSpline
 70
8
 71
3
 72
8
 73
4
 74
0
 40
0
 40
0
 40
0
 40
0
 40
1
 40
1
 40
1
 40
1
 10
7.397864
 20
14.232342
 30
0.0
 10
7.551870
 20
14.343298
 30
0.0
 10
7.696926
 20
14.434081
 30
0.0
 10
7.720209
 20
14.434081
 30
0.0
  0
SPLINE
  5
18a
100
AcDbEntity
  8
Layer_1
 62
7
100
AcDbSpline
 70
8
 71
3
 72
8
 73
4
 74
0
 40
0
 40
0
 40
0
 40
0
 40
1
 40
1
 40
1
 40
1
 10
7.720209
 20
14.434081
 30
0.0
 10
7.794578
 20
14.434081
 30
0.0
 10
8.551089
 20
13.764993
 30
0.0
 10
9.182738
 20
13.140563
 30
0.0
  0
LWPOLYLINE
  5
18b
100
AcDbEntity
  8
Layer_1
 62
7
100
AcDbPolyline
 90
3
 70
0
 10
7.893053
 20
13.254541
 30
0.0
 10
7.117853
 20
14.030602
 30
0.0
 10
7.397864
 20
14.232342
 30
0.0
  0
SPLINE
  5
18c
100
AcDbEntity
  8
Layer_1
 62
7
100
AcDbSpline
 70
8
 71
3
 72
8
 73
4
 74
0
 40
0
 40
0
 40
0
 40
0
 40
1
 40
1
 40
1
 40
1
 10
9.498829
 20
12.205282
 30
0.0
 10
9.336139
 20
12.023571
 30
0.0
 10
9.191162
 20
11.874979
 30
0.0
 10
9.176657
 20
11.875079
 30
0.0
  0
SPLINE
  5
18d
100
AcDbEntity
  8
Layer_1
 62
7
100
AcDbSpline
 70
8
 71
3
 72
8
 73
4
 74
0
 40
0
 40
0
 40
0
 40
0
 40
1
 40
1
 40
1
 40
1
 10
9.176657
 20
11.875079
 30
0.0
 10
9.162151
 20
11.875180
 30
0.0
 10
9.041827
 20
12.010983
 30
0.0
 10
8.909269
 20
12.176869
 30
0.0
  0
LWPOLYLINE
  5
18e
100
AcDbEntity
  8
Layer_1
 62
7
100
AcDbPolyline
 90
3
 70
0
 10
9.182738
 20
13.140563
 30
0.0
 10
9.794629
 20
12.535665
 30
0.0
 10
9.498829
 20
12.205282
 30
0.0
  0
SPLINE
  5
18f
100
AcDbEntity
  8
Layer_1
 62
7
100
AcDbSpline
 70
8
 71
3
 72
8
 73
4
 74
0
 40
0
 40
0
 40
0
 40
0
 40
1
 40
1
 40
1
 40
1
 10
3.359872
 20
0.118008
 30
0.0
 10
3.176149
 20
0.155665
 30
0.0
 10
3.010221
 20
0.203471
 30
0.0
 10
2.991144
 20
0.224242
 30
0.0
  0
SPLINE
  5
190
100
AcDbEntity
  8
Layer_1
 62
7
100
AcDbSpline
 70
8
 71
3
 72
8
 73
4
 74
0
 40
0
 40
0
 40
0
 40
0
 40
1
 40
1
 40
1
 40
1
 10
2.991144
 20
0.224242
 30
0.0
 10
2.957173
 20
0.261225
 30
0.0
 10
2.848974
 20
0.924690
 30
0.0
 10
2.872498
 20
0.951763
 30
0.0
  0
SPLINE
  5
191
100
AcDbEntity
  8
Layer_1
 62
7
100
AcDbSpline
 70
8
 71
3
 72
8
 73
4
 74
0
 40
0
 40
0
 40
0
 40
0
 40
1
 40
1
 40
1
 40
1
 10
2.872498
 20
0.951763
 30
0.0
 10
2.879068
 20
0.959327
 30
0.0
 10
2.979658
 20
0.942619
 30
0.0
 10
3.096033
 20
0.914654
 30
0.0
  0
SPLINE
  5
192
100
AcDbEntity
  8
Layer_1
 62
7
100
AcDbSpline
 70
8
 71
3
 72
8
 73
4
 74
0
 40
0
 40
0
 40
0
 40
0
 40
1
 40
1
 40
1
 40
1
 10
3.096033
 20
0.914654
 30
0.0
 10
3.457489
 20
0.827780
 30
0.0
 10
4.511634
 20
0.794278
 30
0.0
 10
4.680663
 20
0.864291
 30
0.0
  0
LWPOLYLINE
  5
193
100
AcDbEntity
  8
Layer_1
 62
7
100
AcDbPolyline
 90
3
 70
0
 10
8.909269
 20
12.176869
 30
0.0
 10
8.909269
 20
12.176869
 30
0.0
 10
8.909269
 20
12.176869
 30
0.0
  0
SPLINE
  5
194
100
AcDbEntity
  8
Layer_1
 62
7
100
AcDbSpline
 70
8
 71
3
 72
8
 73
4
 74
0
 40
0
 40
0
 40
0
 40
0
 40
1
 40
1
 40
1
 40
1
 10
5.494442
 20
7.139259
 30
0.0
 10
6.395172
 20
7.692792
 30
0.0
 10
8.063439
 20
8.800332
 30
0.0
 10
8.063654
 20
8.844923
 30
0.0
  0
SPLINE
  5
195
100
AcDbEntity
  8
Layer_1
 62
7
100
AcDbSpline
 70
8
 71
3
 72
8
 73
4
 74
0
 40
0
 40
0
 40
0
 40
0
 40
1
 40
1
 40
1
 40
1
 10
8.063654
 20
8.844923
 30
0.0
 10
8.063750
 20
8.864842
 30
0.0
 10
6.564534
 20
8.881138
 30
0.0
 10
4.732063
 20
8.881138
 30
0.0
  0
LWPOLYLINE
  5
196
100
AcDbEntity
  8
Layer_1
 62
7
100
AcDbPolyline
 90
13
 70
0
 10
4.680663
 20
0.864291
 30
0.0
 10
4.828646
 20
0.925587
 30
0.0
 10
4.828646
 20
2.827045
 30
0.0
 10
4.828646
 20
4.728503
 30
0.0
 10
2.559182
 20
4.728503
 30
0.0
 10
0.289719
 20
4.728503
 30
0.0
 10
0.289719
 20
5.138937
 30
0.0
 10
0.289719
 20
5.549372
 30
0.0
 10
2.559182
 20
5.549372
 30
0.0
 10
4.828646
 20
5.549372
 30
0.0
 10
4.830508
 20
6.140882
 30
0.0
 10
4.832371
 20
6.732391
 30
0.0
 10
5.494442
 20
7.139259
 30
0.0
  0
SPLINE
  5
197
100
AcDbEntity
  8
Layer_1
 62
7
100
AcDbSpline
 70
8
 71
3
 72
8
 73
4
 74
0
 40
0
 40
0
 40
0
 40
0
 40
1
 40
1
 40
1
 40
1
 10
8.753605
 20
8.398273
 30
0.0
 10
8.021335
 20
7.828842
 30
0.0
 10
7.085627
 20
7.173529
 30
0.0
 10
6.362295
 20
6.723543
 30
0.0
  0
LWPOLYLINE
  5
198
100
AcDbEntity
  8
Layer_1
 62
7
100
AcDbPolyline
 90
9
 70
0
 10
4.732063
 20
8.881138
 30
0.0
 10
1.400297
 20
8.881138
 30
0.0
 10
1.400297
 20
9.291573
 30
0.0
 10
1.400297
 20
9.702008
 30
0.0
 10
5.311500
 20
9.702008
 30
0.0
 10
9.222704
 20
9.702008
 30
0.0
 10
9.221010
 20
9.231215
 30
0.0
 10
9.219317
 20
8.760422
 30
0.0
 10
8.753605
 20
8.398273
 30
0.0
  0
SPLINE
  5
199
100
AcDbEntity
  8
Layer_1
 62
7
100
AcDbSpline
 70
8
 71
3
 72
8
 73
4
 74
0
 40
0
 40
0
 40
0
 40
0
 40
1
 40
1
 40
1
 40
1
 10
5.697766
 20
2.695696
 30
0.0
 10
5.697766
 20
0.379679
 30
0.0
 10
5.705135
 20
0.428021
 30
0.0
 10
5.317263
 20
0.200000
 30
0.0
  0
SPLINE
  5
19a
100
AcDbEntity
  8
Layer_1
 62
7
100
AcDbSpline
 70
8
 71
3
 72
8
 73
4
 74
0
 40
0
 40
0
 40
0
 40
0
 40
1
 40
1
 40
1
 40
1
 10
5.317263
 20
0.200000
 30
0.0
 10
5.105044
 20
0.075243
 30
0.0
 10
5.060106
 20
0.068388
 30
0.0
 10
4.394032
 20
0.059199
 30
0.0
  0
SPLINE
  5
19b
100
AcDbEntity
  8
Layer_1
 62
7
100
AcDbSpline
 70
8
 71
3
 72
8
 73
4
 74
0
 40
0
 40
0
 40
0
 40
0
 40
1
 40
1
 40
1
 40
1
 10
4.394032
 20
0.059199
 30
0.0
 10
3.941953
 20
0.052962
 30
0.0
 10
3.575522
 20
0.073790
 30
0.0
 10
3.359837
 20
0.118008
 30
0.0
  0
LWPOLYLINE
  5
19c
100
AcDbEntity
  8
Layer_1
 62
7
100
AcDbPolyline
 90
11
 70
0
 10
6.362295
 20
6.723543
 30
0.0
 10
5.697766
 20
6.310141
 30
0.0
 10
5.697766
 20
5.929757
 30
0.0
 10
5.697766
 20
5.549372
 30
0.0
 10
7.943087
 20
5.549372
 30
0.0
 10
10.188407
 20
5.549372
 30
0.0
 10
10.188407
 20
5.138937
 30
0.0
 10
10.188407
 20
4.728503
 30
0.0
 10
7.943087
 20
4.728503
 30
0.0
 10
5.697766
 20
4.728503
 30
0.0
 10
5.697766
 20
2.695696
 30
0.0
  0
LWPOLYLINE
  5
19d
100
AcDbEntity
  8
Layer_1
 62
7
100
AcDbPolyline
 90
2
 70
0
 10
3.359837
 20
0.118008
 30
0.0
 10
3.359872
 20
0.118008
 30
0.0
  0
SPLINE
  5
19e
100
AcDbEntity
  8
Layer_1
 62
7
100
AcDbSpline
 70
8
 71
3
 72
8
 73
4
 74
0
 40
0
 40
0
 40
0
 40
0
 40
1
 40
1
 40
1
 40
1
 10
0.854973
 20
12.618486
 30
0.0
 10
1.278596
 20
12.972994
 30
0.0
 10
2.033468
 20
13.729312
 30
0.0
 10
2.329739
 20
14.096075
 30
0.0
  0
SPLINE
  5
19f
100
AcDbEntity
  8
Layer_1
 62
7
100
AcDbSpline
 70
8
 71
3
 72
8
 73
4
 74
0
 40
0
 40
0
 40
0
 40
0
 40
1
 40
1
 40
1
 40
1
 10
2.329739
 20
14.096075
 30
0.0
 10
2.490638
 20
14.295257
 30
0.0
 10
2.646110
 20
14.458224
 30
0.0
 10
2.675234
 20
14.458224
 30
0.0
  0
SPLINE
  5
1a0
100
AcDbEntity
  8
Layer_1
 62
7
100
AcDbSpline
 70
8
 71
3
 72
8
 73
4
 74
0
 40
0
 40
0
 40
0
 40
0
 40
1
 40
1
 40
1
 40
1
 10
2.675234
 20
14.458224
 30
0.0
 10
2.749471
 20
14.458224
 30
0.0
 10
3.330495
 20
14.127847
 30
0.0
 10
3.331193
 20
14.085237
 30
0.0
  0
SPLINE
  5
1a1
100
AcDbEntity
  8
Layer_1
 62
7
100
AcDbSpline
 70
8
 71
3
 72
8
 73
4
 74
0
 40
0
 40
0
 40
0
 40
0
 40
1
 40
1
 40
1
 40
1
 10
3.331193
 20
14.085237
 30
0.0
 10
3.331955
 20
14.038955
 30
0.0
 10
2.766536
 20
13.338896
 30
0.0
 10
2.381828
 20
12.909799
 30
0.0
  0
SPLINE
  5
1a2
100
AcDbEntity
  8
Layer_1
 62
7
100
AcDbSpline
 70
8
 71
3
 72
8
 73
4
 74
0
 40
0
 40
0
 40
0
 40
0
 40
1
 40
1
 40
1
 40
1
 10
2.381828
 20
12.909799
 30
0.0
 10
2.091399
 20
12.585858
 30
0.0
 10
1.358121
 20
11.917228
 30
0.0
 10
1.255863
 20
11.883103
 30
0.0
  0
SPLINE
  5
1a3
100
AcDbEntity
  8
Layer_1
 62
7
100
AcDbSpline
 70
8
 71
3
 72
8
 73
4
 74
0
 40
0
 40
0
 40
0
 40
0
 40
1
 40
1
 40
1
 40
1
 10
1.255863
 20
11.883103
 30
0.0
 10
1.229594
 20
11.874337
 30
0.0
 10
1.076566
 20
11.992627
 30
0.0
 10
0.915801
 20
12.145971
 30
0.0
  0
LWPOLYLINE
  5
1a4
100
AcDbEntity
  8
Layer_1
 62
7
100
AcDbPolyline
 90
3
 70
0
 10
0.915801
 20
12.145971
 30
0.0
 10
0.623500
 20
12.424779
 30
0.0
 10
0.854973
 20
12.618486
 30
0.0
  0
LWPOLYLINE
  5
1a5
100
AcDbEntity
  8
Layer_1
 62
7
100
AcDbPolyline
 90
2
 70
0
 10
0.915801
 20
12.145971
 30
0.0
 10
0.915801
 20
12.145971
 30
0.0
  0
ENDSEC
  0
SECTION
  2
OBJECTS
  0
DICTIONARY
  5
C
330
0
100
AcDbDictionary
  3
ACAD_GROUP
350
D
  3
ACAD_MLINESTYLE
350
17
  0
DICTIONARY
  5
D
330
C
100
AcDbDictionary
  0
DICTIONARY
  5
1A
330
C
100
AcDbDictionary
  0
DICTIONARY
  5
17
330
C
100
AcDbDictionary
  3
STANDARD
350
18
  0
DICTIONARY
  5
19
330
C
100
AcDbDictionary
  0
ENDSEC
  0
EOF
