  0
SECTION
  2
HEADER
  9
$ACADVER
  1
AC1014
  9
$HANDSEED
  5
FFFF
  9
$MEASUREMENT
 70
     1
  0
ENDSEC
  0
SECTION
  2
TABLES
  0
TABLE
  2
VPORT
  5
8
330
0
100
AcDbSymbolTable
 70
     4
  0
VPORT
  5
2E
330
8
100
AcDbSymbolTableRecord
100
AcDbViewportTableRecord
  2
*ACTIVE
 70
     0
 10
0.0
 20
0.0
 11
1.0
 21
1.0
 12
210.0
 22
148.5
 13
0.0
 23
0.0
 14
10.0
 24
10.0
 15
10.0
 25
10.0
 16
0.0
 26
0.0
 36
1.0
 17
0.0
 27
0.0
 37
0.0
 40
341.0
 41
1.24
 42
50.0
 43
0.0
 44
0.0
 50
0.0
 51
0.0
 71
     0
 72
   100
 73
     1
 74
     3
 75
     0
 76
     0
 77
     0
 78
     0
  0
ENDTAB
  0
TABLE
  2
LTYPE
  5
5
330
0
100
AcDbSymbolTable
 70
     1
  0
LTYPE
  5
14
330
5
100
AcDbSymbolTableRecord
100
AcDbLinetypeTableRecord
  2
BYBLOCK
 70
     0
  3

 72
    65
 73
     0
 40
0.0
  0
LTYPE
  5
15
330
5
100
AcDbSymbolTableRecord
100
AcDbLinetypeTableRecord
  2
BYLAYER
 70
     0
  3

 72
    65
 73
     0
 40
0.0
  0
LTYPE
  5
16
330
5
100
AcDbSymbolTableRecord
100
AcDbLinetypeTableRecord
  2
CONTINUOUS
 70
     0
  3
Solid line
 72
    65
 73
     0
 40
0.0
  0
ENDTAB
  0
TABLE
  2
LAYER
  5
2
100
AcDbSymbolTable
 70
2
  0
LAYER
  5
50
100
AcDbSymbolTableRecord
100
AcDbLayerTableRecord
  2
0
 70
0
  6
CONTINUOUS
  0
LAYER
  5
51
100
AcDbSymbolTableRecord
100
AcDbLayerTableRecord
  2
Layer_1
 70
0
  6
CONTINUOUS
  0
ENDTAB
  0
TABLE
  2
STYLE
  5
3
330
0
100
AcDbSymbolTable
 70
     1
  0
STYLE
  5
11
330
3
100
AcDbSymbolTableRecord
100
AcDbTextStyleTableRecord
  2
STANDARD
 70
     0
 40
0.0
 41
1.0
 50
0.0
 71
     0
 42
2.5
  3
txt
  4

  0
ENDTAB
  0
TABLE
  2
VIEW
  5
6
330
0
100
AcDbSymbolTable
 70
     0
  0
ENDTAB
  0
TABLE
  2
UCS
  5
7
330
0
100
AcDbSymbolTable
 70
     0
  0
ENDTAB
  0
TABLE
  2
APPID
  5
9
330
0
100
AcDbSymbolTable
 70
     2
  0
APPID
  5
12
330
9
100
AcDbSymbolTableRecord
100
AcDbRegAppTableRecord
  2
ACAD
 70
     0
  0
ENDTAB
  0
TABLE
  2
DIMSTYLE
  5
A
330
0
100
AcDbSymbolTable
 70
     1
  0
DIMSTYLE
105
27
330
A
100
AcDbSymbolTableRecord
100
AcDbDimStyleTableRecord
  2
ISO-25
 70
     0
  3

  4

  5

  6

  7

 40
1.0
 41
2.5
 42
0.625
 43
3.75
 44
1.25
 45
0.0
 46
0.0
 47
0.0
 48
0.0
140
2.5
141
2.5
142
0.0
143
0.03937007874016
144
1.0
145
0.0
146
1.0
147
0.625
 71
     0
 72
     0
 73
     0
 74
     0
 75
     0
 76
     0
 77
     1
 78
     8
170
     0
171
     3
172
     1
173
     0
174
     0
175
     0
176
     0
177
     0
178
     0
270
     2
271
     2
272
     2
273
     2
274
     3
340
11
275
     0
280
     0
281
     0
282
     0
283
     0
284
     8
285
     0
286
     0
287
     3
288
     0
  0
ENDTAB
  0
TABLE
  2
BLOCK_RECORD
  5
1
330
0
100
AcDbSymbolTable
 70
     1
  0
BLOCK_RECORD
  5
1F
330
1
100
AcDbSymbolTableRecord
100
AcDbBlockTableRecord
  2
*MODEL_SPACE
  0
BLOCK_RECORD
  5
1B
330
1
100
AcDbSymbolTableRecord
100
AcDbBlockTableRecord
  2
*PAPER_SPACE
  0
ENDTAB
  0
ENDSEC
  0
SECTION
  2
BLOCKS
  0
BLOCK
  5
20
330
1F
100
AcDbEntity
  8
0
100
AcDbBlockBegin
  2
*MODEL_SPACE
 70
     0
 10
0.0
 20
0.0
 30
0.0
  3
*MODEL_SPACE
  1

  0
ENDBLK
  5
21
330
1F
100
AcDbEntity
  8
0
100
AcDbBlockEnd
  0
BLOCK
  5
1C
330
1B
100
AcDbEntity
 67
     1
  8
0
100
AcDbBlockBegin
  2
*PAPER_SPACE
  1

  0
ENDBLK
  5
1D
330
1B
100
AcDbEntity
 67
     1
  8
0
100
AcDbBlockEnd
  0
ENDSEC
  0
SECTION
  2
ENTITIES
  0
SPLINE
  5
100
100
AcDbEntity
  8
Layer_1
 62
7
100
AcDbSpline
 70
8
 71
3
 72
8
 73
4
 74
0
 40
0
 40
0
 40
0
 40
0
 40
1
 40
1
 40
1
 40
1
 10
4.678590
 20
37.302241
 30
0.0
 10
4.667411
 20
37.322281
 30
0.0
 10
4.608992
 20
37.503475
 30
0.0
 10
4.548768
 20
37.704893
 30
0.0
  0
SPLINE
  5
101
100
AcDbEntity
  8
Layer_1
 62
7
100
AcDbSpline
 70
8
 71
3
 72
8
 73
4
 74
0
 40
0
 40
0
 40
0
 40
0
 40
1
 40
1
 40
1
 40
1
 10
4.548768
 20
37.704893
 30
0.0
 10
4.488544
 20
37.906311
 30
0.0
 10
4.426268
 20
38.071107
 30
0.0
 10
4.410377
 20
38.071107
 30
0.0
  0
SPLINE
  5
102
100
AcDbEntity
  8
Layer_1
 62
7
100
AcDbSpline
 70
8
 71
3
 72
8
 73
4
 74
0
 40
0
 40
0
 40
0
 40
0
 40
1
 40
1
 40
1
 40
1
 10
4.410377
 20
38.071107
 30
0.0
 10
4.394485
 20
38.071107
 30
0.0
 10
4.148577
 20
38.003260
 30
0.0
 10
3.863914
 20
37.920335
 30
0.0
  0
SPLINE
  5
103
100
AcDbEntity
  8
Layer_1
 62
7
100
AcDbSpline
 70
8
 71
3
 72
8
 73
4
 74
0
 40
0
 40
0
 40
0
 40
0
 40
1
 40
1
 40
1
 40
1
 10
3.863914
 20
37.920335
 30
0.0
 10
3.046913
 20
37.682338
 30
0.0
 10
1.401095
 20
37.313423
 30
0.0
 10
1.156334
 20
37.313423
 30
0.0
  0
SPLINE
  5
104
100
AcDbEntity
  8
Layer_1
 62
7
100
AcDbSpline
 70
8
 71
3
 72
8
 73
4
 74
0
 40
0
 40
0
 40
0
 40
0
 40
1
 40
1
 40
1
 40
1
 10
1.156334
 20
37.313423
 30
0.0
 10
1.086168
 20
37.313423
 30
0.0
 10
1.036126
 20
37.398976
 30
0.0
 10
0.950151
 20
37.665920
 30
0.0
  0
SPLINE
  5
105
100
AcDbEntity
  8
Layer_1
 62
7
100
AcDbSpline
 70
8
 71
3
 72
8
 73
4
 74
0
 40
0
 40
0
 40
0
 40
0
 40
1
 40
1
 40
1
 40
1
 10
1.188418
 20
38.385720
 30
0.0
 10
1.779268
 20
39.002614
 30
0.0
 10
2.769486
 20
40.220111
 30
0.0
 10
2.717059
 20
40.265224
 30
0.0
  0
SPLINE
  5
106
100
AcDbEntity
  8
Layer_1
 62
7
100
AcDbSpline
 70
8
 71
3
 72
8
 73
4
 74
0
 40
0
 40
0
 40
0
 40
0
 40
1
 40
1
 40
1
 40
1
 10
2.717059
 20
40.265224
 30
0.0
 10
2.707404
 20
40.273532
 30
0.0
 10
2.438103
 20
40.227028
 30
0.0
 10
2.118613
 20
40.161880
 30
0.0
  0
SPLINE
  5
107
100
AcDbEntity
  8
Layer_1
 62
7
100
AcDbSpline
 70
8
 71
3
 72
8
 73
4
 74
0
 40
0
 40
0
 40
0
 40
0
 40
1
 40
1
 40
1
 40
1
 10
2.118613
 20
40.161880
 30
0.0
 10
1.799122
 20
40.096733
 30
0.0
 10
1.403358
 20
40.037220
 30
0.0
 10
1.239136
 20
40.029630
 30
0.0
  0
LWPOLYLINE
  5
108
100
AcDbEntity
  8
Layer_1
 62
7
100
AcDbPolyline
 90
3
 70
0
 10
0.950151
 20
37.665920
 30
0.0
 10
0.836622
 20
38.018418
 30
0.0
 10
1.188418
 20
38.385720
 30
0.0
  0
SPLINE
  5
109
100
AcDbEntity
  8
Layer_1
 62
7
100
AcDbSpline
 70
8
 71
3
 72
8
 73
4
 74
0
 40
0
 40
0
 40
0
 40
0
 40
1
 40
1
 40
1
 40
1
 10
1.003241
 20
41.105105
 30
0.0
 10
1.486974
 20
41.702667
 30
0.0
 10
2.081929
 20
42.798070
 30
0.0
 10
2.373229
 20
43.627458
 30
0.0
  0
SPLINE
  5
10a
100
AcDbEntity
  8
Layer_1
 62
7
100
AcDbSpline
 70
8
 71
3
 72
8
 73
4
 74
0
 40
0
 40
0
 40
0
 40
0
 40
1
 40
1
 40
1
 40
1
 10
2.373229
 20
43.627458
 30
0.0
 10
2.436653
 20
43.808039
 30
0.0
 10
2.506517
 20
43.976302
 30
0.0
 10
2.528484
 20
44.001374
 30
0.0
  0
SPLINE
  5
10b
100
AcDbEntity
  8
Layer_1
 62
7
100
AcDbSpline
 70
8
 71
3
 72
8
 73
4
 74
0
 40
0
 40
0
 40
0
 40
0
 40
1
 40
1
 40
1
 40
1
 10
2.528484
 20
44.001374
 30
0.0
 10
2.574573
 20
44.053981
 30
0.0
 10
3.381420
 20
43.838223
 30
0.0
 10
3.381420
 20
43.773291
 30
0.0
  0
SPLINE
  5
10c
100
AcDbEntity
  8
Layer_1
 62
7
100
AcDbSpline
 70
8
 71
3
 72
8
 73
4
 74
0
 40
0
 40
0
 40
0
 40
0
 40
1
 40
1
 40
1
 40
1
 10
3.381420
 20
43.773291
 30
0.0
 10
3.381420
 20
43.692166
 30
0.0
 10
3.077274
 20
42.966414
 30
0.0
 10
2.870309
 20
42.553680
 30
0.0
  0
SPLINE
  5
10d
100
AcDbEntity
  8
Layer_1
 62
7
100
AcDbSpline
 70
8
 71
3
 72
8
 73
4
 74
0
 40
0
 40
0
 40
0
 40
0
 40
1
 40
1
 40
1
 40
1
 10
2.870309
 20
42.553680
 30
0.0
 10
2.626845
 20
42.068157
 30
0.0
 10
2.299513
 20
41.549516
 30
0.0
 10
1.977576
 20
41.139186
 30
0.0
  0
SPLINE
  5
10e
100
AcDbEntity
  8
Layer_1
 62
7
100
AcDbSpline
 70
8
 71
3
 72
8
 73
4
 74
0
 40
0
 40
0
 40
0
 40
0
 40
1
 40
1
 40
1
 40
1
 10
1.977576
 20
41.139186
 30
0.0
 10
1.852009
 20
40.979143
 30
0.0
 10
1.758573
 20
40.838899
 30
0.0
 10
1.769940
 20
40.827532
 30
0.0
  0
SPLINE
  5
10f
100
AcDbEntity
  8
Layer_1
 62
7
100
AcDbSpline
 70
8
 71
3
 72
8
 73
4
 74
0
 40
0
 40
0
 40
0
 40
0
 40
1
 40
1
 40
1
 40
1
 10
1.769940
 20
40.827532
 30
0.0
 10
1.798300
 20
40.799171
 30
0.0
 10
3.170383
 20
40.974994
 30
0.0
 10
3.207080
 20
41.011691
 30
0.0
  0
SPLINE
  5
110
100
AcDbEntity
  8
Layer_1
 62
7
100
AcDbSpline
 70
8
 71
3
 72
8
 73
4
 74
0
 40
0
 40
0
 40
0
 40
0
 40
1
 40
1
 40
1
 40
1
 10
3.207080
 20
41.011691
 30
0.0
 10
3.238854
 20
41.043465
 30
0.0
 10
4.026394
 20
42.456868
 30
0.0
 10
4.049424
 20
42.523451
 30
0.0
  0
SPLINE
  5
111
100
AcDbEntity
  8
Layer_1
 62
7
100
AcDbSpline
 70
8
 71
3
 72
8
 73
4
 74
0
 40
0
 40
0
 40
0
 40
0
 40
1
 40
1
 40
1
 40
1
 10
4.049424
 20
42.523451
 30
0.0
 10
4.057075
 20
42.545572
 30
0.0
 10
4.222449
 20
42.506802
 30
0.0
 10
4.416921
 20
42.437295
 30
0.0
  0
SPLINE
  5
112
100
AcDbEntity
  8
Layer_1
 62
7
100
AcDbSpline
 70
8
 71
3
 72
8
 73
4
 74
0
 40
0
 40
0
 40
0
 40
0
 40
1
 40
1
 40
1
 40
1
 10
4.416921
 20
42.437295
 30
0.0
 10
4.611394
 20
42.367788
 30
0.0
 10
4.800165
 20
42.300513
 30
0.0
 10
4.836413
 20
42.287796
 30
0.0
  0
SPLINE
  5
113
100
AcDbEntity
  8
Layer_1
 62
7
100
AcDbSpline
 70
8
 71
3
 72
8
 73
4
 74
0
 40
0
 40
0
 40
0
 40
0
 40
1
 40
1
 40
1
 40
1
 10
4.836413
 20
42.287796
 30
0.0
 10
4.906072
 20
42.263358
 30
0.0
 10
4.779799
 20
42.008617
 30
0.0
 10
4.273585
 20
41.152356
 30
0.0
  0
SPLINE
  5
114
100
AcDbEntity
  8
Layer_1
 62
7
100
AcDbSpline
 70
8
 71
3
 72
8
 73
4
 74
0
 40
0
 40
0
 40
0
 40
0
 40
1
 40
1
 40
1
 40
1
 10
4.273585
 20
41.152356
 30
0.0
 10
3.688696
 20
40.163018
 30
0.0
 10
3.185006
 20
39.470049
 30
0.0
 10
2.483713
 20
38.689883
 30
0.0
  0
SPLINE
  5
115
100
AcDbEntity
  8
Layer_1
 62
7
100
AcDbSpline
 70
8
 71
3
 72
8
 73
4
 74
0
 40
0
 40
0
 40
0
 40
0
 40
1
 40
1
 40
1
 40
1
 10
2.483713
 20
38.689883
 30
0.0
 10
2.221002
 20
38.397625
 30
0.0
 10
2.135911
 20
38.273156
 30
0.0
 10
2.198824
 20
38.273156
 30
0.0
  0
SPLINE
  5
116
100
AcDbEntity
  8
Layer_1
 62
7
100
AcDbSpline
 70
8
 71
3
 72
8
 73
4
 74
0
 40
0
 40
0
 40
0
 40
0
 40
1
 40
1
 40
1
 40
1
 10
2.198824
 20
38.273156
 30
0.0
 10
2.313320
 20
38.273156
 30
0.0
 10
3.784226
 20
38.614095
 30
0.0
 10
4.016169
 20
38.694396
 30
0.0
  0
LWPOLYLINE
  5
117
100
AcDbEntity
  8
Layer_1
 62
7
100
AcDbPolyline
 90
5
 70
0
 10
1.239136
 20
40.029630
 30
0.0
 10
0.940550
 20
40.015830
 30
0.0
 10
0.840323
 20
40.397933
 30
0.0
 10
0.740095
 20
40.780036
 30
0.0
 10
1.003241
 20
41.105105
 30
0.0
  0
SPLINE
  5
118
100
AcDbEntity
  8
Layer_1
 62
7
100
AcDbSpline
 70
8
 71
3
 72
8
 73
4
 74
0
 40
0
 40
0
 40
0
 40
0
 40
1
 40
1
 40
1
 40
1
 10
4.092342
 20
39.739906
 30
0.0
 10
4.259178
 20
39.824124
 30
0.0
 10
4.418153
 20
39.879141
 30
0.0
 10
4.445621
 20
39.862165
 30
0.0
  0
SPLINE
  5
119
100
AcDbEntity
  8
Layer_1
 62
7
100
AcDbSpline
 70
8
 71
3
 72
8
 73
4
 74
0
 40
0
 40
0
 40
0
 40
0
 40
1
 40
1
 40
1
 40
1
 10
4.445621
 20
39.862165
 30
0.0
 10
4.505353
 20
39.825248
 30
0.0
 10
4.907685
 20
39.033179
 30
0.0
 10
5.054992
 20
38.662497
 30
0.0
  0
SPLINE
  5
11a
100
AcDbEntity
  8
Layer_1
 62
7
100
AcDbSpline
 70
8
 71
3
 72
8
 73
4
 74
0
 40
0
 40
0
 40
0
 40
0
 40
1
 40
1
 40
1
 40
1
 10
5.054992
 20
38.662497
 30
0.0
 10
5.112488
 20
38.517814
 30
0.0
 10
5.223394
 20
38.227251
 30
0.0
 10
5.301448
 20
38.016803
 30
0.0
  0
LWPOLYLINE
  5
11b
100
AcDbEntity
  8
Layer_1
 62
7
100
AcDbPolyline
 90
5
 70
0
 10
4.016169
 20
38.694396
 30
0.0
 10
4.191240
 20
38.755007
 30
0.0
 10
3.990122
 20
39.170894
 30
0.0
 10
3.789004
 20
39.586781
 30
0.0
 10
4.092342
 20
39.739906
 30
0.0
  0
SPLINE
  5
11c
100
AcDbEntity
  8
Layer_1
 62
7
100
AcDbSpline
 70
8
 71
3
 72
8
 73
4
 74
0
 40
0
 40
0
 40
0
 40
0
 40
1
 40
1
 40
1
 40
1
 10
5.071140
 20
37.449986
 30
0.0
 10
4.866415
 20
37.348685
 30
0.0
 10
4.689768
 20
37.282200
 30
0.0
 10
4.678590
 20
37.302241
 30
0.0
  0
LWPOLYLINE
  5
11d
100
AcDbEntity
  8
Layer_1
 62
7
100
AcDbPolyline
 90
3
 70
0
 10
5.301448
 20
38.016803
 30
0.0
 10
5.443366
 20
37.634168
 30
0.0
 10
5.071140
 20
37.449986
 30
0.0
  0
LWPOLYLINE
  5
11e
100
AcDbEntity
  8
Layer_1
 62
7
100
AcDbPolyline
 90
2
 70
0
 10
4.678590
 20
37.302241
 30
0.0
 10
4.678590
 20
37.302241
 30
0.0
  0
SPLINE
  5
11f
100
AcDbEntity
  8
Layer_1
 62
7
100
AcDbSpline
 70
8
 71
3
 72
8
 73
4
 74
0
 40
0
 40
0
 40
0
 40
0
 40
1
 40
1
 40
1
 40
1
 10
2.804838
 20
34.354510
 30
0.0
 10
2.789336
 20
34.412243
 30
0.0
 10
2.776341
 20
34.634859
 30
0.0
 10
2.775962
 20
34.849212
 30
0.0
  0
SPLINE
  5
120
100
AcDbEntity
  8
Layer_1
 62
7
100
AcDbSpline
 70
8
 71
3
 72
8
 73
4
 74
0
 40
0
 40
0
 40
0
 40
0
 40
1
 40
1
 40
1
 40
1
 10
2.775962
 20
34.849212
 30
0.0
 10
2.775583
 20
35.063566
 30
0.0
 10
2.737711
 20
35.495446
 30
0.0
 10
2.691802
 20
35.808946
 30
0.0
  0
SPLINE
  5
121
100
AcDbEntity
  8
Layer_1
 62
7
100
AcDbSpline
 70
8
 71
3
 72
8
 73
4
 74
0
 40
0
 40
0
 40
0
 40
0
 40
1
 40
1
 40
1
 40
1
 10
2.691802
 20
35.808946
 30
0.0
 10
2.562614
 20
36.691149
 30
0.0
 10
2.542014
 20
36.618463
 30
0.0
 10
2.939964
 20
36.684536
 30
0.0
  0
LWPOLYLINE
  5
122
100
AcDbEntity
  8
Layer_1
 62
7
100
AcDbPolyline
 90
26
 70
0
 10
5.755497
 20
34.737296
 30
0.0
 10
5.755497
 20
35.141395
 30
0.0
 10
6.740486
 20
35.141395
 30
0.0
 10
7.725476
 20
35.141395
 30
0.0
 10
7.725476
 20
38.904560
 30
0.0
 10
7.725476
 20
42.667725
 30
0.0
 10
6.841511
 20
42.667725
 30
0.0
 10
5.957546
 20
42.667725
 30
0.0
 10
5.957546
 20
43.071823
 30
0.0
 10
5.957546
 20
43.475921
 30
0.0
 10
8.154830
 20
43.475921
 30
0.0
 10
10.352115
 20
43.475921
 30
0.0
 10
10.352115
 20
43.071823
 30
0.0
 10
10.352115
 20
42.667725
 30
0.0
 10
9.468149
 20
42.667725
 30
0.0
 10
8.584185
 20
42.667725
 30
0.0
 10
8.584185
 20
38.904560
 30
0.0
 10
8.584185
 20
35.141395
 30
0.0
 10
9.619686
 20
35.141395
 30
0.0
 10
10.655188
 20
35.141395
 30
0.0
 10
10.655188
 20
34.737296
 30
0.0
 10
10.655188
 20
34.333198
 30
0.0
 10
8.205342
 20
34.333198
 30
0.0
 10
5.755497
 20
34.333198
 30
0.0
 10
5.755497
 20
34.737296
 30
0.0
 10
5.755497
 20
34.737296
 30
0.0
  0
SPLINE
  5
123
100
AcDbEntity
  8
Layer_1
 62
7
100
AcDbSpline
 70
8
 71
3
 72
8
 73
4
 74
0
 40
0
 40
0
 40
0
 40
0
 40
1
 40
1
 40
1
 40
1
 10
3.383483
 20
36.410884
 30
0.0
 10
3.510779
 20
35.998749
 30
0.0
 10
3.616221
 20
35.400609
 30
0.0
 10
3.662459
 20
34.828345
 30
0.0
  0
SPLINE
  5
124
100
AcDbEntity
  8
Layer_1
 62
7
100
AcDbSpline
 70
8
 71
3
 72
8
 73
4
 74
0
 40
0
 40
0
 40
0
 40
0
 40
1
 40
1
 40
1
 40
1
 10
3.662459
 20
34.828345
 30
0.0
 10
3.703021
 20
34.326317
 30
0.0
 10
3.752552
 20
34.377571
 30
0.0
 10
3.145106
 20
34.292994
 30
0.0
  0
SPLINE
  5
125
100
AcDbEntity
  8
Layer_1
 62
7
100
AcDbSpline
 70
8
 71
3
 72
8
 73
4
 74
0
 40
0
 40
0
 40
0
 40
0
 40
1
 40
1
 40
1
 40
1
 10
3.145106
 20
34.292994
 30
0.0
 10
2.853249
 20
34.252358
 30
0.0
 10
2.831199
 20
34.256344
 30
0.0
 10
2.804838
 20
34.354510
 30
0.0
  0
LWPOLYLINE
  5
126
100
AcDbEntity
  8
Layer_1
 62
7
100
AcDbPolyline
 90
3
 70
0
 10
2.939964
 20
36.684536
 30
0.0
 10
3.281449
 20
36.741234
 30
0.0
 10
3.383483
 20
36.410884
 30
0.0
  0
SPLINE
  5
127
100
AcDbEntity
  8
Layer_1
 62
7
100
AcDbSpline
 70
8
 71
3
 72
8
 73
4
 74
0
 40
0
 40
0
 40
0
 40
0
 40
1
 40
1
 40
1
 40
1
 10
4.723777
 20
34.699412
 30
0.0
 10
4.573061
 20
35.431454
 30
0.0
 10
4.510767
 20
35.683773
 30
0.0
 10
4.390181
 20
36.050616
 30
0.0
  0
SPLINE
  5
128
100
AcDbEntity
  8
Layer_1
 62
7
100
AcDbSpline
 70
8
 71
3
 72
8
 73
4
 74
0
 40
0
 40
0
 40
0
 40
0
 40
1
 40
1
 40
1
 40
1
 10
4.390181
 20
36.050616
 30
0.0
 10
4.312557
 20
36.286761
 30
0.0
 10
4.235038
 20
36.515069
 30
0.0
 10
4.217917
 20
36.557969
 30
0.0
  0
SPLINE
  5
129
100
AcDbEntity
  8
Layer_1
 62
7
100
AcDbSpline
 70
8
 71
3
 72
8
 73
4
 74
0
 40
0
 40
0
 40
0
 40
0
 40
1
 40
1
 40
1
 40
1
 10
4.217917
 20
36.557969
 30
0.0
 10
4.193770
 20
36.618474
 30
0.0
 10
4.264376
 20
36.660956
 30
0.0
 10
4.532743
 20
36.747390
 30
0.0
  0
SPLINE
  5
12a
100
AcDbEntity
  8
Layer_1
 62
7
100
AcDbSpline
 70
8
 71
3
 72
8
 73
4
 74
0
 40
0
 40
0
 40
0
 40
0
 40
1
 40
1
 40
1
 40
1
 10
4.532743
 20
36.747390
 30
0.0
 10
4.723019
 20
36.808672
 30
0.0
 10
4.892482
 20
36.858812
 30
0.0
 10
4.909328
 20
36.858812
 30
0.0
  0
SPLINE
  5
12b
100
AcDbEntity
  8
Layer_1
 62
7
100
AcDbSpline
 70
8
 71
3
 72
8
 73
4
 74
0
 40
0
 40
0
 40
0
 40
0
 40
1
 40
1
 40
1
 40
1
 10
4.909328
 20
36.858812
 30
0.0
 10
4.987701
 20
36.858812
 30
0.0
 10
5.447577
 20
35.479035
 30
0.0
 10
5.525284
 20
35.010748
 30
0.0
  0
LWPOLYLINE
  5
12c
100
AcDbEntity
  8
Layer_1
 62
7
100
AcDbPolyline
 90
2
 70
0
 10
2.804838
 20
34.354510
 30
0.0
 10
2.804838
 20
34.354510
 30
0.0
  0
SPLINE
  5
12d
100
AcDbEntity
  8
Layer_1
 62
7
100
AcDbSpline
 70
8
 71
3
 72
8
 73
4
 74
0
 40
0
 40
0
 40
0
 40
0
 40
1
 40
1
 40
1
 40
1
 10
5.190278
 20
34.694886
 30
0.0
 10
4.737856
 20
34.560790
 30
0.0
 10
4.752346
 20
34.560650
 30
0.0
 10
4.723777
 20
34.699413
 30
0.0
  0
LWPOLYLINE
  5
12e
100
AcDbEntity
  8
Layer_1
 62
7
100
AcDbPolyline
 90
3
 70
0
 10
5.525284
 20
35.010748
 30
0.0
 10
5.559536
 20
34.804333
 30
0.0
 10
5.190278
 20
34.694886
 30
0.0
  0
LWPOLYLINE
  5
12f
100
AcDbEntity
  8
Layer_1
 62
7
100
AcDbPolyline
 90
2
 70
0
 10
4.723777
 20
34.699413
 30
0.0
 10
4.723777
 20
34.699412
 30
0.0
  0
SPLINE
  5
130
100
AcDbEntity
  8
Layer_1
 62
7
100
AcDbSpline
 70
8
 71
3
 72
8
 73
4
 74
0
 40
0
 40
0
 40
0
 40
0
 40
1
 40
1
 40
1
 40
1
 10
0.733938
 20
34.738341
 30
0.0
 10
0.887705
 20
35.162244
 30
0.0
 10
1.084742
 20
35.927697
 30
0.0
 10
1.159500
 20
36.391574
 30
0.0
  0
SPLINE
  5
131
100
AcDbEntity
  8
Layer_1
 62
7
100
AcDbSpline
 70
8
 71
3
 72
8
 73
4
 74
0
 40
0
 40
0
 40
0
 40
0
 40
1
 40
1
 40
1
 40
1
 10
1.159500
 20
36.391574
 30
0.0
 10
1.193410
 20
36.601987
 30
0.0
 10
1.243440
 20
36.757704
 30
0.0
 10
1.277096
 20
36.757591
 30
0.0
  0
SPLINE
  5
132
100
AcDbEntity
  8
Layer_1
 62
7
100
AcDbSpline
 70
8
 71
3
 72
8
 73
4
 74
0
 40
0
 40
0
 40
0
 40
0
 40
1
 40
1
 40
1
 40
1
 10
1.277096
 20
36.757591
 30
0.0
 10
1.309313
 20
36.757482
 30
0.0
 10
1.483421
 20
36.715550
 30
0.0
 10
1.664002
 20
36.664409
 30
0.0
  0
SPLINE
  5
133
100
AcDbEntity
  8
Layer_1
 62
7
100
AcDbSpline
 70
8
 71
3
 72
8
 73
4
 74
0
 40
0
 40
0
 40
0
 40
0
 40
1
 40
1
 40
1
 40
1
 10
1.664002
 20
36.664409
 30
0.0
 10
1.978010
 20
36.575481
 30
0.0
 10
1.991718
 20
36.565024
 30
0.0
 10
1.978265
 20
36.424673
 30
0.0
  0
SPLINE
  5
134
100
AcDbEntity
  8
Layer_1
 62
7
100
AcDbSpline
 70
8
 71
3
 72
8
 73
4
 74
0
 40
0
 40
0
 40
0
 40
0
 40
1
 40
1
 40
1
 40
1
 10
1.978265
 20
36.424673
 30
0.0
 10
1.946218
 20
36.090355
 30
0.0
 10
1.850999
 20
35.545674
 30
0.0
 10
1.758342
 20
35.166651
 30
0.0
  0
SPLINE
  5
135
100
AcDbEntity
  8
Layer_1
 62
7
100
AcDbSpline
 70
8
 71
3
 72
8
 73
4
 74
0
 40
0
 40
0
 40
0
 40
0
 40
1
 40
1
 40
1
 40
1
 10
1.758342
 20
35.166651
 30
0.0
 10
1.669008
 20
34.801218
 30
0.0
 10
1.415522
 20
33.975707
 30
0.0
 10
1.394664
 20
33.982287
 30
0.0
  0
SPLINE
  5
136
100
AcDbEntity
  8
Layer_1
 62
7
100
AcDbSpline
 70
8
 71
3
 72
8
 73
4
 74
0
 40
0
 40
0
 40
0
 40
0
 40
1
 40
1
 40
1
 40
1
 10
1.394664
 20
33.982287
 30
0.0
 10
1.390001
 20
33.983755
 30
0.0
 10
1.212717
 20
34.080834
 30
0.0
 10
1.000701
 20
34.198009
 30
0.0
  0
LWPOLYLINE
  5
137
100
AcDbEntity
  8
Layer_1
 62
7
100
AcDbPolyline
 90
3
 70
0
 10
1.000701
 20
34.198009
 30
0.0
 10
0.615218
 20
34.411056
 30
0.0
 10
0.733938
 20
34.738341
 30
0.0
  0
LWPOLYLINE
  5
138
100
AcDbEntity
  8
Layer_1
 62
7
100
AcDbPolyline
 90
3
 70
0
 10
1.000701
 20
34.198009
 30
0.0
 10
1.000701
 20
34.198009
 30
0.0
 10
1.000701
 20
34.198009
 30
0.0
  0
SPLINE
  5
139
100
AcDbEntity
  8
Layer_1
 62
7
100
AcDbSpline
 70
8
 71
3
 72
8
 73
4
 74
0
 40
0
 40
0
 40
0
 40
0
 40
1
 40
1
 40
1
 40
1
 10
2.371174
 20
20.088735
 30
0.0
 10
3.037936
 20
20.088735
 30
0.0
 10
3.583469
 20
20.102273
 30
0.0
 10
3.583469
 20
20.118821
 30
0.0
  0
SPLINE
  5
13a
100
AcDbEntity
  8
Layer_1
 62
7
100
AcDbSpline
 70
8
 71
3
 72
8
 73
4
 74
0
 40
0
 40
0
 40
0
 40
0
 40
1
 40
1
 40
1
 40
1
 10
3.583469
 20
20.118821
 30
0.0
 10
3.583469
 20
20.165457
 30
0.0
 10
3.386892
 20
20.437912
 30
0.0
 10
3.117389
 20
20.764806
 30
0.0
  0
LWPOLYLINE
  5
13b
100
AcDbEntity
  8
Layer_1
 62
7
100
AcDbPolyline
 90
19
 70
0
 10
0.956830
 20
16.174033
 30
0.0
 10
0.956830
 20
16.552875
 30
0.0
 10
3.078346
 20
16.552875
 30
0.0
 10
5.199862
 20
16.552875
 30
0.0
 10
5.199862
 20
17.032742
 30
0.0
 10
5.199862
 20
17.512608
 30
0.0
 10
3.381420
 20
17.512608
 30
0.0
 10
1.562977
 20
17.512608
 30
0.0
 10
1.562977
 20
17.916706
 30
0.0
 10
1.562977
 20
18.320805
 30
0.0
 10
3.381420
 20
18.320805
 30
0.0
 10
5.199862
 20
18.320805
 30
0.0
 10
5.199862
 20
18.800671
 30
0.0
 10
5.199862
 20
19.280538
 30
0.0
 10
3.179370
 20
19.280538
 30
0.0
 10
1.158879
 20
19.280538
 30
0.0
 10
1.158879
 20
19.684636
 30
0.0
 10
1.158879
 20
20.088735
 30
0.0
 10
2.371174
 20
20.088735
 30
0.0
  0
SPLINE
  5
13c
100
AcDbEntity
  8
Layer_1
 62
7
100
AcDbSpline
 70
8
 71
3
 72
8
 73
4
 74
0
 40
0
 40
0
 40
0
 40
0
 40
1
 40
1
 40
1
 40
1
 10
3.824598
 20
21.221581
 30
0.0
 10
3.973422
 20
21.057819
 30
0.0
 10
4.222820
 20
20.735935
 30
0.0
 10
4.378816
 20
20.506283
 30
0.0
  0
LWPOLYLINE
  5
13d
100
AcDbEntity
  8
Layer_1
 62
7
100
AcDbPolyline
 90
5
 70
0
 10
3.117389
 20
20.764806
 30
0.0
 10
2.872342
 20
21.062035
 30
0.0
 10
3.213176
 20
21.290682
 30
0.0
 10
3.554010
 20
21.519330
 30
0.0
 10
3.824598
 20
21.221581
 30
0.0
  0
SPLINE
  5
13e
100
AcDbEntity
  8
Layer_1
 62
7
100
AcDbSpline
 70
8
 71
3
 72
8
 73
4
 74
0
 40
0
 40
0
 40
0
 40
0
 40
1
 40
1
 40
1
 40
1
 10
6.942535
 20
20.366809
 30
0.0
 10
7.053662
 20
20.519450
 30
0.0
 10
7.258833
 20
20.832495
 30
0.0
 10
7.398470
 20
21.062463
 30
0.0
  0
LWPOLYLINE
  5
13f
100
AcDbEntity
  8
Layer_1
 62
7
100
AcDbPolyline
 90
5
 70
0
 10
4.378816
 20
20.506283
 30
0.0
 10
4.662445
 20
20.088735
 30
0.0
 10
5.701466
 20
20.089007
 30
0.0
 10
6.740486
 20
20.089280
 30
0.0
 10
6.942535
 20
20.366809
 30
0.0
  0
SPLINE
  5
140
100
AcDbEntity
  8
Layer_1
 62
7
100
AcDbSpline
 70
8
 71
3
 72
8
 73
4
 74
0
 40
0
 40
0
 40
0
 40
0
 40
1
 40
1
 40
1
 40
1
 10
8.079801
 20
21.361930
 30
0.0
 10
8.314897
 20
21.296668
 30
0.0
 10
8.515215
 20
21.235304
 30
0.0
 10
8.524953
 20
21.225566
 30
0.0
  0
SPLINE
  5
141
100
AcDbEntity
  8
Layer_1
 62
7
100
AcDbSpline
 70
8
 71
3
 72
8
 73
4
 74
0
 40
0
 40
0
 40
0
 40
0
 40
1
 40
1
 40
1
 40
1
 10
8.524953
 20
21.225566
 30
0.0
 10
8.547613
 20
21.202904
 30
0.0
 10
8.179948
 20
20.697871
 30
0.0
 10
7.890399
 20
20.353924
 30
0.0
  0
LWPOLYLINE
  5
142
100
AcDbEntity
  8
Layer_1
 62
7
100
AcDbPolyline
 90
3
 70
0
 10
7.398470
 20
21.062463
 30
0.0
 10
7.652355
 20
21.480589
 30
0.0
 10
8.079801
 20
21.361930
 30
0.0
  0
SPLINE
  5
143
100
AcDbEntity
  8
Layer_1
 62
7
100
AcDbSpline
 70
8
 71
3
 72
8
 73
4
 74
0
 40
0
 40
0
 40
0
 40
0
 40
1
 40
1
 40
1
 40
1
 10
9.493406
 20
11.596410
 30
0.0
 10
8.442066
 20
11.912487
 30
0.0
 10
7.830920
 20
12.184834
 30
0.0
 10
7.123632
 20
12.652460
 30
0.0
  0
SPLINE
  5
144
100
AcDbEntity
  8
Layer_1
 62
7
100
AcDbSpline
 70
8
 71
3
 72
8
 73
4
 74
0
 40
0
 40
0
 40
0
 40
0
 40
1
 40
1
 40
1
 40
1
 10
7.123632
 20
12.652460
 30
0.0
 10
6.648646
 20
12.966497
 30
0.0
 10
6.095697
 20
13.466013
 30
0.0
 10
5.882502
 20
13.773652
 30
0.0
  0
SPLINE
  5
145
100
AcDbEntity
  8
Layer_1
 62
7
100
AcDbSpline
 70
8
 71
3
 72
8
 73
4
 74
0
 40
0
 40
0
 40
0
 40
0
 40
1
 40
1
 40
1
 40
1
 10
5.882502
 20
13.773652
 30
0.0
 10
5.805093
 20
13.885356
 30
0.0
 10
5.725947
 20
13.976748
 30
0.0
 10
5.706622
 20
13.976748
 30
0.0
  0
SPLINE
  5
146
100
AcDbEntity
  8
Layer_1
 62
7
100
AcDbSpline
 70
8
 71
3
 72
8
 73
4
 74
0
 40
0
 40
0
 40
0
 40
0
 40
1
 40
1
 40
1
 40
1
 10
5.706622
 20
13.976748
 30
0.0
 10
5.687298
 20
13.976748
 30
0.0
 10
5.594759
 20
13.857413
 30
0.0
 10
5.500980
 20
13.711558
 30
0.0
  0
SPLINE
  5
147
100
AcDbEntity
  8
Layer_1
 62
7
100
AcDbSpline
 70
8
 71
3
 72
8
 73
4
 74
0
 40
0
 40
0
 40
0
 40
0
 40
1
 40
1
 40
1
 40
1
 10
5.500980
 20
13.711558
 30
0.0
 10
5.016348
 20
12.957807
 30
0.0
 10
4.102160
 20
12.334703
 30
0.0
 10
2.901553
 20
11.939809
 30
0.0
  0
SPLINE
  5
148
100
AcDbEntity
  8
Layer_1
 62
7
100
AcDbSpline
 70
8
 71
3
 72
8
 73
4
 74
0
 40
0
 40
0
 40
0
 40
0
 40
1
 40
1
 40
1
 40
1
 10
2.901553
 20
11.939809
 30
0.0
 10
2.456843
 20
11.793539
 30
0.0
 10
1.567130
 20
11.576084
 30
0.0
 10
1.205505
 20
11.525278
 30
0.0
  0
LWPOLYLINE
  5
149
100
AcDbEntity
  8
Layer_1
 62
7
100
AcDbPolyline
 90
26
 70
0
 10
7.890399
 20
20.353924
 30
0.0
 10
7.667152
 20
20.088735
 30
0.0
 10
8.858096
 20
20.088735
 30
0.0
 10
10.049041
 20
20.088735
 30
0.0
 10
10.049041
 20
19.684636
 30
0.0
 10
10.049041
 20
19.280538
 30
0.0
 10
8.053806
 20
19.280538
 30
0.0
 10
6.058571
 20
19.280538
 30
0.0
 10
6.058571
 20
18.800671
 30
0.0
 10
6.058571
 20
18.320805
 30
0.0
 10
7.877013
 20
18.320805
 30
0.0
 10
9.695455
 20
18.320805
 30
0.0
 10
9.695455
 20
17.916706
 30
0.0
 10
9.695455
 20
17.512608
 30
0.0
 10
7.877013
 20
17.512608
 30
0.0
 10
6.058571
 20
17.512608
 30
0.0
 10
6.058571
 20
17.032742
 30
0.0
 10
6.058571
 20
16.552875
 30
0.0
 10
8.205342
 20
16.552875
 30
0.0
 10
10.352115
 20
16.552875
 30
0.0
 10
10.352115
 20
16.174033
 30
0.0
 10
10.352115
 20
15.795190
 30
0.0
 10
5.654472
 20
15.795190
 30
0.0
 10
0.956830
 20
15.795190
 30
0.0
 10
0.956830
 20
16.174033
 30
0.0
 10
0.956830
 20
16.174033
 30
0.0
  0
SPLINE
  5
14a
100
AcDbEntity
  8
Layer_1
 62
7
100
AcDbSpline
 70
8
 71
3
 72
8
 73
4
 74
0
 40
0
 40
0
 40
0
 40
0
 40
1
 40
1
 40
1
 40
1
 10
0.814034
 20
11.851253
 30
0.0
 10
0.621053
 20
12.282847
 30
0.0
 10
0.619004
 20
12.309842
 30
0.0
 10
0.779233
 20
12.309842
 30
0.0
  0
SPLINE
  5
14b
100
AcDbEntity
  8
Layer_1
 62
7
100
AcDbSpline
 70
8
 71
3
 72
8
 73
4
 74
0
 40
0
 40
0
 40
0
 40
0
 40
1
 40
1
 40
1
 40
1
 10
0.779233
 20
12.309842
 30
0.0
 10
1.012435
 20
12.309842
 30
0.0
 10
2.140524
 20
12.568044
 30
0.0
 10
2.657080
 20
12.739652
 30
0.0
  0
SPLINE
  5
14c
100
AcDbEntity
  8
Layer_1
 62
7
100
AcDbSpline
 70
8
 71
3
 72
8
 73
4
 74
0
 40
0
 40
0
 40
0
 40
0
 40
1
 40
1
 40
1
 40
1
 10
2.657080
 20
12.739652
 30
0.0
 10
3.502754
 20
13.020596
 30
0.0
 10
4.339390
 20
13.507954
 30
0.0
 10
4.563703
 20
13.850298
 30
0.0
  0
LWPOLYLINE
  5
14d
100
AcDbEntity
  8
Layer_1
 62
7
100
AcDbPolyline
 90
3
 70
0
 10
1.205505
 20
11.525278
 30
0.0
 10
0.974313
 20
11.492797
 30
0.0
 10
0.814034
 20
11.851253
 30
0.0
  0
SPLINE
  5
14e
100
AcDbEntity
  8
Layer_1
 62
7
100
AcDbSpline
 70
8
 71
3
 72
8
 73
4
 74
0
 40
0
 40
0
 40
0
 40
0
 40
1
 40
1
 40
1
 40
1
 10
5.171104
 20
14.990961
 30
0.0
 10
5.213003
 20
15.132050
 30
0.0
 10
5.261137
 20
15.321328
 30
0.0
 10
5.278068
 20
15.411574
 30
0.0
  0
LWPOLYLINE
  5
14f
100
AcDbEntity
  8
Layer_1
 62
7
100
AcDbPolyline
 90
9
 70
0
 10
4.563703
 20
13.850298
 30
0.0
 10
4.646555
 20
13.976748
 30
0.0
 10
2.650156
 20
13.976748
 30
0.0
 10
0.653756
 20
13.976748
 30
0.0
 10
0.653756
 20
14.355592
 30
0.0
 10
0.653756
 20
14.734433
 30
0.0
 10
2.874340
 20
14.734433
 30
0.0
 10
5.094923
 20
14.734433
 30
0.0
 10
5.171104
 20
14.990961
 30
0.0
  0
SPLINE
  5
150
100
AcDbEntity
  8
Layer_1
 62
7
100
AcDbSpline
 70
8
 71
3
 72
8
 73
4
 74
0
 40
0
 40
0
 40
0
 40
0
 40
1
 40
1
 40
1
 40
1
 10
5.620570
 20
15.532267
 30
0.0
 10
6.196515
 20
15.452084
 30
0.0
 10
6.159865
 20
15.480101
 30
0.0
 10
6.085857
 20
15.176587
 30
0.0
  0
SPLINE
  5
151
100
AcDbEntity
  8
Layer_1
 62
7
100
AcDbSpline
 70
8
 71
3
 72
8
 73
4
 74
0
 40
0
 40
0
 40
0
 40
0
 40
1
 40
1
 40
1
 40
1
 10
6.085857
 20
15.176587
 30
0.0
 10
6.050270
 20
15.030639
 30
0.0
 10
6.004409
 20
14.871446
 30
0.0
 10
5.983945
 20
14.822830
 30
0.0
  0
SPLINE
  5
152
100
AcDbEntity
  8
Layer_1
 62
7
100
AcDbSpline
 70
8
 71
3
 72
8
 73
4
 74
0
 40
0
 40
0
 40
0
 40
0
 40
1
 40
1
 40
1
 40
1
 10
5.983945
 20
14.822830
 30
0.0
 10
5.948817
 20
14.739374
 30
0.0
 10
6.078344
 20
14.734433
 30
0.0
 10
8.300963
 20
14.734433
 30
0.0
  0
LWPOLYLINE
  5
153
100
AcDbEntity
  8
Layer_1
 62
7
100
AcDbPolyline
 90
3
 70
0
 10
5.278068
 20
15.411574
 30
0.0
 10
5.308851
 20
15.575664
 30
0.0
 10
5.620570
 20
15.532267
 30
0.0
  0
SPLINE
  5
154
100
AcDbEntity
  8
Layer_1
 62
7
100
AcDbSpline
 70
8
 71
3
 72
8
 73
4
 74
0
 40
0
 40
0
 40
0
 40
0
 40
1
 40
1
 40
1
 40
1
 10
6.745286
 20
13.868919
 30
0.0
 10
7.295487
 20
13.252374
 30
0.0
 10
8.717749
 20
12.605724
 30
0.0
 10
10.124809
 20
12.332372
 30
0.0
  0
SPLINE
  5
155
100
AcDbEntity
  8
Layer_1
 62
7
100
AcDbSpline
 70
8
 71
3
 72
8
 73
4
 74
0
 40
0
 40
0
 40
0
 40
0
 40
1
 40
1
 40
1
 40
1
 10
10.124809
 20
12.332372
 30
0.0
 10
10.374845
 20
12.283798
 30
0.0
 10
10.586539
 20
12.238479
 30
0.0
 10
10.595240
 20
12.231664
 30
0.0
  0
SPLINE
  5
156
100
AcDbEntity
  8
Layer_1
 62
7
100
AcDbSpline
 70
8
 71
3
 72
8
 73
4
 74
0
 40
0
 40
0
 40
0
 40
0
 40
1
 40
1
 40
1
 40
1
 10
10.595240
 20
12.231664
 30
0.0
 10
10.623612
 20
12.209453
 30
0.0
 10
10.200523
 20
11.400536
 30
0.0
 10
10.162130
 20
11.403601
 30
0.0
  0
SPLINE
  5
157
100
AcDbEntity
  8
Layer_1
 62
7
100
AcDbSpline
 70
8
 71
3
 72
8
 73
4
 74
0
 40
0
 40
0
 40
0
 40
0
 40
1
 40
1
 40
1
 40
1
 10
10.162130
 20
11.403601
 30
0.0
 10
10.141604
 20
11.405294
 30
0.0
 10
9.840678
 20
11.492004
 30
0.0
 10
9.493406
 20
11.596410
 30
0.0
  0
LWPOLYLINE
  5
158
100
AcDbEntity
  8
Layer_1
 62
7
100
AcDbPolyline
 90
7
 70
0
 10
8.300963
 20
14.734433
 30
0.0
 10
10.655188
 20
14.734433
 30
0.0
 10
10.655188
 20
14.355592
 30
0.0
 10
10.655188
 20
13.976748
 30
0.0
 10
8.652124
 20
13.976748
 30
0.0
 10
6.649060
 20
13.976748
 30
0.0
 10
6.745286
 20
13.868919
 30
0.0
  0
LWPOLYLINE
  5
159
100
AcDbEntity
  8
Layer_1
 62
7
100
AcDbPolyline
 90
2
 70
0
 10
9.493406
 20
11.596410
 30
0.0
 10
9.493406
 20
11.596410
 30
0.0
  0
SPLINE
  5
15a
100
AcDbEntity
  8
Layer_1
 62
7
100
AcDbSpline
 70
8
 71
3
 72
8
 73
4
 74
0
 40
0
 40
0
 40
0
 40
0
 40
1
 40
1
 40
1
 40
1
 10
5.167515
 20
6.705885
 30
0.0
 10
6.000584
 20
7.582033
 30
0.0
 10
6.735879
 20
8.646499
 30
0.0
 10
7.248319
 20
9.718209
 30
0.0
  0
LWPOLYLINE
  5
15b
100
AcDbEntity
  8
Layer_1
 62
7
100
AcDbPolyline
 90
3
 70
0
 10
4.950237
 20
5.917065
 30
0.0
 10
4.678808
 20
6.191910
 30
0.0
 10
5.167515
 20
6.705885
 30
0.0
  0
SPLINE
  5
15c
100
AcDbEntity
  8
Layer_1
 62
7
100
AcDbSpline
 70
8
 71
3
 72
8
 73
4
 74
0
 40
0
 40
0
 40
0
 40
0
 40
1
 40
1
 40
1
 40
1
 10
7.787335
 20
10.077803
 30
0.0
 10
7.961676
 20
10.020181
 30
0.0
 10
8.125124
 20
9.954074
 30
0.0
 10
8.150553
 20
9.930898
 30
0.0
  0
SPLINE
  5
15d
100
AcDbEntity
  8
Layer_1
 62
7
100
AcDbSpline
 70
8
 71
3
 72
8
 73
4
 74
0
 40
0
 40
0
 40
0
 40
0
 40
1
 40
1
 40
1
 40
1
 10
8.150553
 20
9.930898
 30
0.0
 10
8.178140
 20
9.905752
 30
0.0
 10
8.163284
 20
9.803469
 30
0.0
 10
8.113715
 20
9.677276
 30
0.0
  0
LWPOLYLINE
  5
15e
100
AcDbEntity
  8
Layer_1
 62
7
100
AcDbPolyline
 90
3
 70
0
 10
7.248319
 20
9.718209
 30
0.0
 10
7.470353
 20
10.182566
 30
0.0
 10
7.787335
 20
10.077803
 30
0.0
  0
SPLINE
  5
15f
100
AcDbEntity
  8
Layer_1
 62
7
100
AcDbSpline
 70
8
 71
3
 72
8
 73
4
 74
0
 40
0
 40
0
 40
0
 40
0
 40
1
 40
1
 40
1
 40
1
 10
8.265100
 20
9.132516
 30
0.0
 10
9.013703
 20
8.068389
 30
0.0
 10
9.931096
 20
7.072622
 30
0.0
 10
10.623431
 20
6.572713
 30
0.0
  0
LWPOLYLINE
  5
160
100
AcDbEntity
  8
Layer_1
 62
7
100
AcDbPolyline
 90
3
 70
0
 10
8.113715
 20
9.677276
 30
0.0
 10
8.030643
 20
9.465795
 30
0.0
 10
8.265100
 20
9.132516
 30
0.0
  0
SPLINE
  5
161
100
AcDbEntity
  8
Layer_1
 62
7
100
AcDbSpline
 70
8
 71
3
 72
8
 73
4
 74
0
 40
0
 40
0
 40
0
 40
0
 40
1
 40
1
 40
1
 40
1
 10
10.555726
 20
6.080362
 30
0.0
 10
10.438717
 20
5.867166
 30
0.0
 10
10.313513
 20
5.692735
 30
0.0
 10
10.277494
 20
5.692735
 30
0.0
  0
SPLINE
  5
162
100
AcDbEntity
  8
Layer_1
 62
7
100
AcDbSpline
 70
8
 71
3
 72
8
 73
4
 74
0
 40
0
 40
0
 40
0
 40
0
 40
1
 40
1
 40
1
 40
1
 10
10.277494
 20
5.692735
 30
0.0
 10
10.181738
 20
5.692735
 30
0.0
 10
9.292018
 20
6.549720
 30
0.0
 10
8.863937
 20
7.054286
 30
0.0
  0
SPLINE
  5
163
100
AcDbEntity
  8
Layer_1
 62
7
100
AcDbSpline
 70
8
 71
3
 72
8
 73
4
 74
0
 40
0
 40
0
 40
0
 40
0
 40
1
 40
1
 40
1
 40
1
 10
8.863937
 20
7.054286
 30
0.0
 10
8.660902
 20
7.293596
 30
0.0
 10
8.299916
 20
7.756358
 30
0.0
 10
8.061746
 20
8.082650
 30
0.0
  0
SPLINE
  5
164
100
AcDbEntity
  8
Layer_1
 62
7
100
AcDbSpline
 70
8
 71
3
 72
8
 73
4
 74
0
 40
0
 40
0
 40
0
 40
0
 40
1
 40
1
 40
1
 40
1
 10
8.061746
 20
8.082650
 30
0.0
 10
7.641305
 20
8.658648
 30
0.0
 10
7.626686
 20
8.672556
 30
0.0
 10
7.559138
 20
8.560779
 30
0.0
  0
SPLINE
  5
165
100
AcDbEntity
  8
Layer_1
 62
7
100
AcDbSpline
 70
8
 71
3
 72
8
 73
4
 74
0
 40
0
 40
0
 40
0
 40
0
 40
1
 40
1
 40
1
 40
1
 10
7.559138
 20
8.560779
 30
0.0
 10
7.520874
 20
8.497460
 30
0.0
 10
7.372280
 20
8.245218
 30
0.0
 10
7.228930
 20
8.000238
 30
0.0
  0
SPLINE
  5
166
100
AcDbEntity
  8
Layer_1
 62
7
100
AcDbSpline
 70
8
 71
3
 72
8
 73
4
 74
0
 40
0
 40
0
 40
0
 40
0
 40
1
 40
1
 40
1
 40
1
 10
7.228930
 20
8.000238
 30
0.0
 10
6.850098
 20
7.352834
 30
0.0
 10
6.461684
 20
6.853479
 30
0.0
 10
5.836808
 20
6.210486
 30
0.0
  0
SPLINE
  5
167
100
AcDbEntity
  8
Layer_1
 62
7
100
AcDbSpline
 70
8
 71
3
 72
8
 73
4
 74
0
 40
0
 40
0
 40
0
 40
0
 40
1
 40
1
 40
1
 40
1
 10
5.836808
 20
6.210486
 30
0.0
 10
5.533070
 20
5.897939
 30
0.0
 10
5.270406
 20
5.642221
 30
0.0
 10
5.253111
 20
5.642221
 30
0.0
  0
SPLINE
  5
168
100
AcDbEntity
  8
Layer_1
 62
7
100
AcDbSpline
 70
8
 71
3
 72
8
 73
4
 74
0
 40
0
 40
0
 40
0
 40
0
 40
1
 40
1
 40
1
 40
1
 10
5.253111
 20
5.642221
 30
0.0
 10
5.235817
 20
5.642221
 30
0.0
 10
5.099524
 20
5.765902
 30
0.0
 10
4.950237
 20
5.917065
 30
0.0
  0
LWPOLYLINE
  5
169
100
AcDbEntity
  8
Layer_1
 62
7
100
AcDbPolyline
 90
3
 70
0
 10
10.623431
 20
6.572713
 30
0.0
 10
10.768467
 20
6.467989
 30
0.0
 10
10.555726
 20
6.080362
 30
0.0
  0
SPLINE
  5
16a
100
AcDbEntity
  8
Layer_1
 62
7
100
AcDbSpline
 70
8
 71
3
 72
8
 73
4
 74
0
 40
0
 40
0
 40
0
 40
0
 40
1
 40
1
 40
1
 40
1
 10
7.568911
 20
5.705362
 30
0.0
 10
7.482000
 20
5.878999
 30
0.0
 10
7.322834
 20
6.151104
 30
0.0
 10
7.215209
 20
6.310043
 30
0.0
  0
LWPOLYLINE
  5
16b
100
AcDbEntity
  8
Layer_1
 62
7
100
AcDbPolyline
 90
2
 70
0
 10
4.950237
 20
5.917065
 30
0.0
 10
4.950237
 20
5.917065
 30
0.0
  0
SPLINE
  5
16c
100
AcDbEntity
  8
Layer_1
 62
7
100
AcDbSpline
 70
8
 71
3
 72
8
 73
4
 74
0
 40
0
 40
0
 40
0
 40
0
 40
1
 40
1
 40
1
 40
1
 10
7.838280
 20
6.731731
 30
0.0
 10
7.957475
 20
6.579864
 30
0.0
 10
8.140388
 20
6.297518
 30
0.0
 10
8.244752
 20
6.104295
 30
0.0
  0
LWPOLYLINE
  5
16d
100
AcDbEntity
  8
Layer_1
 62
7
100
AcDbPolyline
 90
5
 70
0
 10
7.215209
 20
6.310043
 30
0.0
 10
7.019527
 20
6.599022
 30
0.0
 10
7.320544
 20
6.803438
 30
0.0
 10
7.621560
 20
7.007854
 30
0.0
 10
7.838280
 20
6.731731
 30
0.0
  0
SPLINE
  5
16e
100
AcDbEntity
  8
Layer_1
 62
7
100
AcDbSpline
 70
8
 71
3
 72
8
 73
4
 74
0
 40
0
 40
0
 40
0
 40
0
 40
1
 40
1
 40
1
 40
1
 10
8.109667
 20
5.571321
 30
0.0
 10
7.931006
 20
5.471408
 30
0.0
 10
7.771802
 20
5.389660
 30
0.0
 10
7.755880
 20
5.389660
 30
0.0
  0
SPLINE
  5
16f
100
AcDbEntity
  8
Layer_1
 62
7
100
AcDbSpline
 70
8
 71
3
 72
8
 73
4
 74
0
 40
0
 40
0
 40
0
 40
0
 40
1
 40
1
 40
1
 40
1
 10
7.755880
 20
5.389660
 30
0.0
 10
7.739957
 20
5.389660
 30
0.0
 10
7.655821
 20
5.531725
 30
0.0
 10
7.568911
 20
5.705362
 30
0.0
  0
LWPOLYLINE
  5
170
100
AcDbEntity
  8
Layer_1
 62
7
100
AcDbPolyline
 90
3
 70
0
 10
8.244752
 20
6.104295
 30
0.0
 10
8.434505
 20
5.752979
 30
0.0
 10
8.109667
 20
5.571321
 30
0.0
  0
SPLINE
  5
171
100
AcDbEntity
  8
Layer_1
 62
7
100
AcDbSpline
 70
8
 71
3
 72
8
 73
4
 74
0
 40
0
 40
0
 40
0
 40
0
 40
1
 40
1
 40
1
 40
1
 10
8.289942
 20
0.389379
 30
0.0
 10
7.759948
 20
0.823222
 30
0.0
 10
7.044538
 20
1.301733
 30
0.0
 10
6.361644
 20
1.679143
 30
0.0
  0
SPLINE
  5
172
100
AcDbEntity
  8
Layer_1
 62
7
100
AcDbSpline
 70
8
 71
3
 72
8
 73
4
 74
0
 40
0
 40
0
 40
0
 40
0
 40
1
 40
1
 40
1
 40
1
 10
6.361644
 20
1.679143
 30
0.0
 10
6.069936
 20
1.840357
 30
0.0
 10
5.822933
 20
1.978564
 30
0.0
 10
5.812750
 20
1.986269
 30
0.0
  0
SPLINE
  5
173
100
AcDbEntity
  8
Layer_1
 62
7
100
AcDbSpline
 70
8
 71
3
 72
8
 73
4
 74
0
 40
0
 40
0
 40
0
 40
0
 40
1
 40
1
 40
1
 40
1
 10
5.812750
 20
1.986269
 30
0.0
 10
5.802567
 20
1.993973
 30
0.0
 10
5.901193
 20
2.145947
 30
0.0
 10
6.031921
 20
2.323990
 30
0.0
  0
LWPOLYLINE
  5
174
100
AcDbEntity
  8
Layer_1
 62
7
100
AcDbPolyline
 90
2
 70
0
 10
7.568911
 20
5.705362
 30
0.0
 10
7.568911
 20
5.705362
 30
0.0
  0
SPLINE
  5
175
100
AcDbEntity
  8
Layer_1
 62
7
100
AcDbSpline
 70
8
 71
3
 72
8
 73
4
 74
0
 40
0
 40
0
 40
0
 40
0
 40
1
 40
1
 40
1
 40
1
 10
6.773589
 20
2.377550
 30
0.0
 10
7.050779
 20
2.228963
 30
0.0
 10
7.326580
 20
2.073066
 30
0.0
 10
7.386482
 20
2.031111
 30
0.0
  0
SPLINE
  5
176
100
AcDbEntity
  8
Layer_1
 62
7
100
AcDbSpline
 70
8
 71
3
 72
8
 73
4
 74
0
 40
0
 40
0
 40
0
 40
0
 40
1
 40
1
 40
1
 40
1
 10
7.386482
 20
2.031111
 30
0.0
 10
7.446383
 20
1.989153
 30
0.0
 10
7.513172
 20
1.954826
 30
0.0
 10
7.534901
 20
1.954826
 30
0.0
  0
SPLINE
  5
177
100
AcDbEntity
  8
Layer_1
 62
7
100
AcDbSpline
 70
8
 71
3
 72
8
 73
4
 74
0
 40
0
 40
0
 40
0
 40
0
 40
1
 40
1
 40
1
 40
1
 10
7.534901
 20
1.954826
 30
0.0
 10
7.648726
 20
1.954826
 30
0.0
 10
8.887258
 20
3.819768
 30
0.0
 10
8.887258
 20
3.991161
 30
0.0
  0
SPLINE
  5
178
100
AcDbEntity
  8
Layer_1
 62
7
100
AcDbSpline
 70
8
 71
3
 72
8
 73
4
 74
0
 40
0
 40
0
 40
0
 40
0
 40
1
 40
1
 40
1
 40
1
 10
8.887258
 20
3.991161
 30
0.0
 10
8.887258
 20
4.010239
 30
0.0
 10
8.103055
 20
4.025829
 30
0.0
 10
7.144585
 20
4.025829
 30
0.0
  0
LWPOLYLINE
  5
179
100
AcDbEntity
  8
Layer_1
 62
7
100
AcDbPolyline
 90
3
 70
0
 10
6.031921
 20
2.323990
 30
0.0
 10
6.269609
 20
2.647704
 30
0.0
 10
6.773589
 20
2.377550
 30
0.0
  0
SPLINE
  5
17a
100
AcDbEntity
  8
Layer_1
 62
7
100
AcDbSpline
 70
8
 71
3
 72
8
 73
4
 74
0
 40
0
 40
0
 40
0
 40
0
 40
1
 40
1
 40
1
 40
1
 10
9.846992
 20
4.428806
 30
0.0
 10
9.846992
 20
4.114354
 30
0.0
 10
9.823556
 20
4.027486
 30
0.0
 10
9.640481
 20
3.663369
 30
0.0
  0
SPLINE
  5
17b
100
AcDbEntity
  8
Layer_1
 62
7
100
AcDbSpline
 70
8
 71
3
 72
8
 73
4
 74
0
 40
0
 40
0
 40
0
 40
0
 40
1
 40
1
 40
1
 40
1
 10
9.640481
 20
3.663369
 30
0.0
 10
9.389370
 20
3.163934
 30
0.0
 10
8.988141
 20
2.510149
 30
0.0
 10
8.605130
 20
1.976312
 30
0.0
  0
SPLINE
  5
17c
100
AcDbEntity
  8
Layer_1
 62
7
100
AcDbSpline
 70
8
 71
3
 72
8
 73
4
 74
0
 40
0
 40
0
 40
0
 40
0
 40
1
 40
1
 40
1
 40
1
 10
8.605130
 20
1.976312
 30
0.0
 10
8.448167
 20
1.757539
 30
0.0
 10
8.310029
 20
1.553230
 30
0.0
 10
8.298158
 20
1.522293
 30
0.0
  0
SPLINE
  5
17d
100
AcDbEntity
  8
Layer_1
 62
7
100
AcDbSpline
 70
8
 71
3
 72
8
 73
4
 74
0
 40
0
 40
0
 40
0
 40
0
 40
1
 40
1
 40
1
 40
1
 10
8.298158
 20
1.522293
 30
0.0
 10
8.286285
 20
1.491355
 30
0.0
 10
8.492892
 20
1.323402
 30
0.0
 10
8.757282
 20
1.149065
 30
0.0
  0
SPLINE
  5
17e
100
AcDbEntity
  8
Layer_1
 62
7
100
AcDbSpline
 70
8
 71
3
 72
8
 73
4
 74
0
 40
0
 40
0
 40
0
 40
0
 40
1
 40
1
 40
1
 40
1
 10
8.757282
 20
1.149065
 30
0.0
 10
9.021672
 20
0.974728
 30
0.0
 10
9.259534
 20
0.806131
 30
0.0
 10
9.285864
 20
0.774404
 30
0.0
  0
SPLINE
  5
17f
100
AcDbEntity
  8
Layer_1
 62
7
100
AcDbSpline
 70
8
 71
3
 72
8
 73
4
 74
0
 40
0
 40
0
 40
0
 40
0
 40
1
 40
1
 40
1
 40
1
 10
9.285864
 20
0.774404
 30
0.0
 10
9.318578
 20
0.734986
 30
0.0
 10
9.235059
 20
0.610399
 30
0.0
 10
9.022101
 20
0.380932
 30
0.0
  0
LWPOLYLINE
  5
180
100
AcDbEntity
  8
Layer_1
 62
7
100
AcDbPolyline
 90
7
 70
0
 10
7.144585
 20
4.025829
 30
0.0
 10
5.401911
 20
4.025829
 30
0.0
 10
5.401911
 20
4.404670
 30
0.0
 10
5.401911
 20
4.783514
 30
0.0
 10
7.624451
 20
4.783514
 30
0.0
 10
9.846992
 20
4.783514
 30
0.0
 10
9.846992
 20
4.428806
 30
0.0
  0
SPLINE
  5
181
100
AcDbEntity
  8
Layer_1
 62
7
100
AcDbSpline
 70
8
 71
3
 72
8
 73
4
 74
0
 40
0
 40
0
 40
0
 40
0
 40
1
 40
1
 40
1
 40
1
 10
0.736735
 20
0.600397
 30
0.0
 10
0.691297
 20
0.826939
 30
0.0
 10
0.659722
 20
1.016909
 30
0.0
 10
0.666567
 20
1.022548
 30
0.0
  0
SPLINE
  5
182
100
AcDbEntity
  8
Layer_1
 62
7
100
AcDbSpline
 70
8
 71
3
 72
8
 73
4
 74
0
 40
0
 40
0
 40
0
 40
0
 40
1
 40
1
 40
1
 40
1
 10
0.666567
 20
1.022548
 30
0.0
 10
0.673412
 20
1.028192
 30
0.0
 10
1.031336
 20
1.081828
 30
0.0
 10
1.461953
 20
1.141753
 30
0.0
  0
SPLINE
  5
183
100
AcDbEntity
  8
Layer_1
 62
7
100
AcDbSpline
 70
8
 71
3
 72
8
 73
4
 74
0
 40
0
 40
0
 40
0
 40
0
 40
1
 40
1
 40
1
 40
1
 10
1.461953
 20
1.141753
 30
0.0
 10
1.892570
 20
1.201677
 30
0.0
 10
2.307402
 20
1.263190
 30
0.0
 10
2.383802
 20
1.278450
 30
0.0
  0
LWPOLYLINE
  5
184
100
AcDbEntity
  8
Layer_1
 62
7
100
AcDbPolyline
 90
4
 70
0
 10
9.022101
 20
0.380932
 30
0.0
 10
8.710465
 20
0.045144
 30
0.0
 10
8.289942
 20
0.389379
 30
0.0
 10
8.289942
 20
0.389379
 30
0.0
  0
SPLINE
  5
185
100
AcDbEntity
  8
Layer_1
 62
7
100
AcDbSpline
 70
8
 71
3
 72
8
 73
4
 74
0
 40
0
 40
0
 40
0
 40
0
 40
1
 40
1
 40
1
 40
1
 10
3.280395
 20
2.939816
 30
0.0
 10
3.280395
 20
1.470217
 30
0.0
 10
3.281834
 20
1.449702
 30
0.0
 10
3.384169
 20
1.449702
 30
0.0
  0
SPLINE
  5
186
100
AcDbEntity
  8
Layer_1
 62
7
100
AcDbSpline
 70
8
 71
3
 72
8
 73
4
 74
0
 40
0
 40
0
 40
0
 40
0
 40
1
 40
1
 40
1
 40
1
 10
3.384169
 20
1.449702
 30
0.0
 10
3.441245
 20
1.449702
 30
0.0
 10
3.773283
 20
1.517893
 30
0.0
 10
4.122031
 20
1.601239
 30
0.0
  0
SPLINE
  5
187
100
AcDbEntity
  8
Layer_1
 62
7
100
AcDbSpline
 70
8
 71
3
 72
8
 73
4
 74
0
 40
0
 40
0
 40
0
 40
0
 40
1
 40
1
 40
1
 40
1
 10
4.122031
 20
1.601239
 30
0.0
 10
4.470780
 20
1.684584
 30
0.0
 10
4.772915
 20
1.752775
 30
0.0
 10
4.793444
 20
1.752775
 30
0.0
  0
SPLINE
  5
188
100
AcDbEntity
  8
Layer_1
 62
7
100
AcDbSpline
 70
8
 71
3
 72
8
 73
4
 74
0
 40
0
 40
0
 40
0
 40
0
 40
1
 40
1
 40
1
 40
1
 10
4.793444
 20
1.752775
 30
0.0
 10
4.845188
 20
1.752775
 30
0.0
 10
5.000106
 20
1.028003
 30
0.0
 10
4.956984
 20
0.987662
 30
0.0
  0
SPLINE
  5
189
100
AcDbEntity
  8
Layer_1
 62
7
100
AcDbSpline
 70
8
 71
3
 72
8
 73
4
 74
0
 40
0
 40
0
 40
0
 40
0
 40
1
 40
1
 40
1
 40
1
 10
4.956984
 20
0.987662
 30
0.0
 10
4.871155
 20
0.907373
 30
0.0
 10
2.663148
 20
0.465226
 30
0.0
 10
1.588234
 20
0.313083
 30
0.0
  0
SPLINE
  5
18a
100
AcDbEntity
  8
Layer_1
 62
7
100
AcDbSpline
 70
8
 71
3
 72
8
 73
4
 74
0
 40
0
 40
0
 40
0
 40
0
 40
1
 40
1
 40
1
 40
1
 10
1.588234
 20
0.313083
 30
0.0
 10
1.282634
 20
0.269830
 30
0.0
 10
0.984618
 20
0.224101
 30
0.0
 10
0.925974
 20
0.211469
 30
0.0
  0
SPLINE
  5
18b
100
AcDbEntity
  8
Layer_1
 62
7
100
AcDbSpline
 70
8
 71
3
 72
8
 73
4
 74
0
 40
0
 40
0
 40
0
 40
0
 40
1
 40
1
 40
1
 40
1
 10
0.925974
 20
0.211469
 30
0.0
 10
0.829119
 20
0.190613
 30
0.0
 10
0.811781
 20
0.226229
 30
0.0
 10
0.736735
 20
0.600397
 30
0.0
  0
LWPOLYLINE
  5
18c
100
AcDbEntity
  8
Layer_1
 62
7
100
AcDbPolyline
 90
31
 70
0
 10
2.383802
 20
1.278450
 30
0.0
 10
2.522711
 20
1.306192
 30
0.0
 10
2.522711
 20
2.868061
 30
0.0
 10
2.522711
 20
4.429927
 30
0.0
 10
1.638746
 20
4.429927
 30
0.0
 10
0.754781
 20
4.429927
 30
0.0
 10
0.754781
 20
4.808770
 30
0.0
 10
0.754781
 20
5.187611
 30
0.0
 10
1.638746
 20
5.187611
 30
0.0
 10
2.522711
 20
5.187611
 30
0.0
 10
2.522711
 20
5.743248
 30
0.0
 10
2.522711
 20
6.298881
 30
0.0
 10
2.017588
 20
6.298881
 30
0.0
 10
1.512465
 20
6.298881
 30
0.0
 10
1.512465
 20
6.652469
 30
0.0
 10
1.512465
 20
7.006054
 30
0.0
 10
2.926809
 20
7.006054
 30
0.0
 10
4.341153
 20
7.006054
 30
0.0
 10
4.341153
 20
6.652469
 30
0.0
 10
4.341153
 20
6.298881
 30
0.0
 10
3.810774
 20
6.298881
 30
0.0
 10
3.280395
 20
6.298881
 30
0.0
 10
3.280395
 20
5.743248
 30
0.0
 10
3.280395
 20
5.187611
 30
0.0
 10
4.113848
 20
5.187611
 30
0.0
 10
4.947300
 20
5.187611
 30
0.0
 10
4.947300
 20
4.808770
 30
0.0
 10
4.947300
 20
4.429927
 30
0.0
 10
4.113848
 20
4.429927
 30
0.0
 10
3.280395
 20
4.429927
 30
0.0
 10
3.280395
 20
2.939816
 30
0.0
  0
LWPOLYLINE
  5
18d
100
AcDbEntity
  8
Layer_1
 62
7
100
AcDbPolyline
 90
3
 70
0
 10
0.736735
 20
0.600397
 30
0.0
 10
0.736735
 20
0.600397
 30
0.0
 10
0.736735
 20
0.600397
 30
0.0
  0
SPLINE
  5
18e
100
AcDbEntity
  8
Layer_1
 62
7
100
AcDbSpline
 70
8
 71
3
 72
8
 73
4
 74
0
 40
0
 40
0
 40
0
 40
0
 40
1
 40
1
 40
1
 40
1
 10
1.074270
 20
7.987078
 30
0.0
 10
1.659291
 20
8.565597
 30
0.0
 10
2.064375
 20
9.078050
 30
0.0
 10
2.394291
 20
9.656978
 30
0.0
  0
SPLINE
  5
18f
100
AcDbEntity
  8
Layer_1
 62
7
100
AcDbSpline
 70
8
 71
3
 72
8
 73
4
 74
0
 40
0
 40
0
 40
0
 40
0
 40
1
 40
1
 40
1
 40
1
 10
2.394291
 20
9.656978
 30
0.0
 10
2.519405
 20
9.876525
 30
0.0
 10
2.629019
 20
10.077899
 30
0.0
 10
2.637878
 20
10.104473
 30
0.0
  0
SPLINE
  5
190
100
AcDbEntity
  8
Layer_1
 62
7
100
AcDbSpline
 70
8
 71
3
 72
8
 73
4
 74
0
 40
0
 40
0
 40
0
 40
0
 40
1
 40
1
 40
1
 40
1
 10
2.637878
 20
10.104473
 30
0.0
 10
2.653052
 20
10.149995
 30
0.0
 10
3.312497
 20
9.962563
 30
0.0
 10
3.393427
 20
9.889724
 30
0.0
  0
SPLINE
  5
191
100
AcDbEntity
  8
Layer_1
 62
7
100
AcDbSpline
 70
8
 71
3
 72
8
 73
4
 74
0
 40
0
 40
0
 40
0
 40
0
 40
1
 40
1
 40
1
 40
1
 10
3.393427
 20
9.889724
 30
0.0
 10
3.413922
 20
9.871267
 30
0.0
 10
3.383504
 20
9.768149
 30
0.0
 10
3.325833
 20
9.660543
 30
0.0
  0
SPLINE
  5
192
100
AcDbEntity
  8
Layer_1
 62
7
100
AcDbSpline
 70
8
 71
3
 72
8
 73
4
 74
0
 40
0
 40
0
 40
0
 40
0
 40
1
 40
1
 40
1
 40
1
 10
3.325833
 20
9.660543
 30
0.0
 10
3.241044
 20
9.502346
 30
0.0
 10
3.234036
 20
9.457591
 30
0.0
 10
3.289219
 20
9.426708
 30
0.0
  0
SPLINE
  5
193
100
AcDbEntity
  8
Layer_1
 62
7
100
AcDbSpline
 70
8
 71
3
 72
8
 73
4
 74
0
 40
0
 40
0
 40
0
 40
0
 40
1
 40
1
 40
1
 40
1
 10
3.289219
 20
9.426708
 30
0.0
 10
3.480796
 20
9.319497
 30
0.0
 10
4.410419
 20
8.591183
 30
0.0
 10
4.718740
 20
8.306751
 30
0.0
  0
LWPOLYLINE
  5
194
100
AcDbEntity
  8
Layer_1
 62
7
100
AcDbPolyline
 90
3
 70
0
 10
0.817763
 20
7.219685
 30
0.0
 10
0.559460
 20
7.477989
 30
0.0
 10
1.074270
 20
7.987078
 30
0.0
  0
SPLINE
  5
195
100
AcDbEntity
  8
Layer_1
 62
7
100
AcDbSpline
 70
8
 71
3
 72
8
 73
4
 74
0
 40
0
 40
0
 40
0
 40
0
 40
1
 40
1
 40
1
 40
1
 10
4.859204
 20
7.728667
 30
0.0
 10
4.499696
 20
7.299274
 30
0.0
 10
4.549714
 20
7.297095
 30
0.0
 10
4.051630
 20
7.763820
 30
0.0
  0
SPLINE
  5
196
100
AcDbEntity
  8
Layer_1
 62
7
100
AcDbSpline
 70
8
 71
3
 72
8
 73
4
 74
0
 40
0
 40
0
 40
0
 40
0
 40
1
 40
1
 40
1
 40
1
 10
4.051630
 20
7.763820
 30
0.0
 10
3.568336
 20
8.216686
 30
0.0
 10
2.894227
 20
8.773984
 30
0.0
 10
2.829733
 20
8.773984
 30
0.0
  0
SPLINE
  5
197
100
AcDbEntity
  8
Layer_1
 62
7
100
AcDbSpline
 70
8
 71
3
 72
8
 73
4
 74
0
 40
0
 40
0
 40
0
 40
0
 40
1
 40
1
 40
1
 40
1
 10
2.829733
 20
8.773984
 30
0.0
 10
2.807419
 20
8.773984
 30
0.0
 10
2.674855
 20
8.620551
 30
0.0
 10
2.535146
 20
8.433026
 30
0.0
  0
SPLINE
  5
198
100
AcDbEntity
  8
Layer_1
 62
7
100
AcDbSpline
 70
8
 71
3
 72
8
 73
4
 74
0
 40
0
 40
0
 40
0
 40
0
 40
1
 40
1
 40
1
 40
1
 10
2.535146
 20
8.433026
 30
0.0
 10
2.244233
 20
8.042540
 30
0.0
 10
1.706210
 20
7.478324
 30
0.0
 10
1.332150
 20
7.171461
 30
0.0
  0
LWPOLYLINE
  5
199
100
AcDbEntity
  8
Layer_1
 62
7
100
AcDbPolyline
 90
3
 70
0
 10
4.718740
 20
8.306751
 30
0.0
 10
5.071070
 20
7.981719
 30
0.0
 10
4.859204
 20
7.728667
 30
0.0
  0
SPLINE
  5
19a
100
AcDbEntity
  8
Layer_1
 62
7
100
AcDbSpline
 70
8
 71
3
 72
8
 73
4
 74
0
 40
0
 40
0
 40
0
 40
0
 40
1
 40
1
 40
1
 40
1
 10
4.012823
 20
2.345713
 30
0.0
 10
3.846133
 20
2.388495
 30
0.0
 10
3.702166
 20
2.429812
 30
0.0
 10
3.692897
 20
2.437531
 30
0.0
  0
SPLINE
  5
19b
100
AcDbEntity
  8
Layer_1
 62
7
100
AcDbSpline
 70
8
 71
3
 72
8
 73
4
 74
0
 40
0
 40
0
 40
0
 40
0
 40
1
 40
1
 40
1
 40
1
 10
3.692897
 20
2.437531
 30
0.0
 10
3.683629
 20
2.445235
 30
0.0
 10
3.756090
 20
2.652339
 30
0.0
 10
3.853925
 20
2.897736
 30
0.0
  0
SPLINE
  5
19c
100
AcDbEntity
  8
Layer_1
 62
7
100
AcDbSpline
 70
8
 71
3
 72
8
 73
4
 74
0
 40
0
 40
0
 40
0
 40
0
 40
1
 40
1
 40
1
 40
1
 10
3.853925
 20
2.897736
 30
0.0
 10
3.951759
 20
3.143134
 30
0.0
 10
4.071425
 20
3.491662
 30
0.0
 10
4.119849
 20
3.672242
 30
0.0
  0
SPLINE
  5
19d
100
AcDbEntity
  8
Layer_1
 62
7
100
AcDbSpline
 70
8
 71
3
 72
8
 73
4
 74
0
 40
0
 40
0
 40
0
 40
0
 40
1
 40
1
 40
1
 40
1
 10
4.119849
 20
3.672242
 30
0.0
 10
4.168272
 20
3.852824
 30
0.0
 10
4.210531
 20
4.005430
 30
0.0
 10
4.213757
 20
4.011366
 30
0.0
  0
SPLINE
  5
19e
100
AcDbEntity
  8
Layer_1
 62
7
100
AcDbSpline
 70
8
 71
3
 72
8
 73
4
 74
0
 40
0
 40
0
 40
0
 40
0
 40
1
 40
1
 40
1
 40
1
 10
4.213757
 20
4.011366
 30
0.0
 10
4.220240
 20
4.023304
 30
0.0
 10
4.913650
 20
3.820448
 30
0.0
 10
4.936064
 20
3.800069
 30
0.0
  0
SPLINE
  5
19f
100
AcDbEntity
  8
Layer_1
 62
7
100
AcDbSpline
 70
8
 71
3
 72
8
 73
4
 74
0
 40
0
 40
0
 40
0
 40
0
 40
1
 40
1
 40
1
 40
1
 10
4.936064
 20
3.800069
 30
0.0
 10
4.987419
 20
3.753375
 30
0.0
 10
4.387652
 20
2.237698
 30
0.0
 10
4.327798
 20
2.262911
 30
0.0
  0
SPLINE
  5
1a0
100
AcDbEntity
  8
Layer_1
 62
7
100
AcDbSpline
 70
8
 71
3
 72
8
 73
4
 74
0
 40
0
 40
0
 40
0
 40
0
 40
1
 40
1
 40
1
 40
1
 10
4.327798
 20
2.262911
 30
0.0
 10
4.321253
 20
2.265734
 30
0.0
 10
4.179514
 20
2.302931
 30
0.0
 10
4.012823
 20
2.345713
 30
0.0
  0
LWPOLYLINE
  5
1a1
100
AcDbEntity
  8
Layer_1
 62
7
100
AcDbPolyline
 90
5
 70
0
 10
1.332150
 20
7.171461
 30
0.0
 10
1.076067
 20
6.961384
 30
0.0
 10
0.817763
 20
7.219685
 30
0.0
 10
0.817763
 20
7.219685
 30
0.0
 10
0.817763
 20
7.219685
 30
0.0
  0
SPLINE
  5
1a2
100
AcDbEntity
  8
Layer_1
 62
7
100
AcDbSpline
 70
8
 71
3
 72
8
 73
4
 74
0
 40
0
 40
0
 40
0
 40
0
 40
1
 40
1
 40
1
 40
1
 10
1.273587
 20
2.185089
 30
0.0
 10
1.184019
 20
2.531564
 30
0.0
 10
0.951888
 20
3.167967
 30
0.0
 10
0.775664
 20
3.550172
 30
0.0
  0
SPLINE
  5
1a3
100
AcDbEntity
  8
Layer_1
 62
7
100
AcDbSpline
 70
8
 71
3
 72
8
 73
4
 74
0
 40
0
 40
0
 40
0
 40
0
 40
1
 40
1
 40
1
 40
1
 10
0.775664
 20
3.550172
 30
0.0
 10
0.753357
 20
3.598553
 30
0.0
 10
1.497553
 20
3.855836
 30
0.0
 10
1.538873
 20
3.814030
 30
0.0
  0
SPLINE
  5
1a4
100
AcDbEntity
  8
Layer_1
 62
7
100
AcDbSpline
 70
8
 71
3
 72
8
 73
4
 74
0
 40
0
 40
0
 40
0
 40
0
 40
1
 40
1
 40
1
 40
1
 10
1.538873
 20
3.814030
 30
0.0
 10
1.547302
 20
3.805507
 30
0.0
 10
1.622612
 20
3.626183
 30
0.0
 10
1.706230
 20
3.415544
 30
0.0
  0
SPLINE
  5
1a5
100
AcDbEntity
  8
Layer_1
 62
7
100
AcDbSpline
 70
8
 71
3
 72
8
 73
4
 74
0
 40
0
 40
0
 40
0
 40
0
 40
1
 40
1
 40
1
 40
1
 10
1.706230
 20
3.415544
 30
0.0
 10
1.909509
 20
2.903466
 30
0.0
 10
2.137848
 20
2.053974
 30
0.0
 10
2.085145
 20
2.005861
 30
0.0
  0
SPLINE
  5
1a6
100
AcDbEntity
  8
Layer_1
 62
7
100
AcDbSpline
 70
8
 71
3
 72
8
 73
4
 74
0
 40
0
 40
0
 40
0
 40
0
 40
1
 40
1
 40
1
 40
1
 10
2.085145
 20
2.005861
 30
0.0
 10
2.061880
 20
1.984609
 30
0.0
 10
1.917826
 20
1.927042
 30
0.0
 10
1.765027
 20
1.877909
 30
0.0
  0
SPLINE
  5
1a7
100
AcDbEntity
  8
Layer_1
 62
7
100
AcDbSpline
 70
8
 71
3
 72
8
 73
4
 74
0
 40
0
 40
0
 40
0
 40
0
 40
1
 40
1
 40
1
 40
1
 10
1.765027
 20
1.877909
 30
0.0
 10
1.612227
 20
1.828775
 30
0.0
 10
1.464366
 20
1.780224
 30
0.0
 10
1.436446
 20
1.770022
 30
0.0
  0
SPLINE
  5
1a8
100
AcDbEntity
  8
Layer_1
 62
7
100
AcDbSpline
 70
8
 71
3
 72
8
 73
4
 74
0
 40
0
 40
0
 40
0
 40
0
 40
1
 40
1
 40
1
 40
1
 10
1.436446
 20
1.770022
 30
0.0
 10
1.408526
 20
1.759805
 30
0.0
 10
1.335240
 20
1.946597
 30
0.0
 10
1.273587
 20
2.185089
 30
0.0
  0
LWPOLYLINE
  5
1a9
100
AcDbEntity
  8
Layer_1
 62
7
100
AcDbPolyline
 90
2
 70
0
 10
4.012823
 20
2.345713
 30
0.0
 10
4.012823
 20
2.345713
 30
0.0
  0
LWPOLYLINE
  5
1aa
100
AcDbEntity
  8
Layer_1
 62
7
100
AcDbPolyline
 90
2
 70
0
 10
1.273587
 20
2.185089
 30
0.0
 10
1.273587
 20
2.185089
 30
0.0
  0
ENDSEC
  0
SECTION
  2
OBJECTS
  0
DICTIONARY
  5
C
330
0
100
AcDbDictionary
  3
ACAD_GROUP
350
D
  3
ACAD_MLINESTYLE
350
17
  0
DICTIONARY
  5
D
330
C
100
AcDbDictionary
  0
DICTIONARY
  5
1A
330
C
100
AcDbDictionary
  0
DICTIONARY
  5
17
330
C
100
AcDbDictionary
  3
STANDARD
350
18
  0
DICTIONARY
  5
19
330
C
100
AcDbDictionary
  0
ENDSEC
  0
EOF
