  0
SECTION
  2
HEADER
  9
$ACADVER
  1
AC1014
  9
$HANDSEED
  5
FFFF
  9
$MEASUREMENT
 70
     1
  0
ENDSEC
  0
SECTION
  2
TABLES
  0
TABLE
  2
VPORT
  5
8
330
0
100
AcDbSymbolTable
 70
     4
  0
VPORT
  5
2E
330
8
100
AcDbSymbolTableRecord
100
AcDbViewportTableRecord
  2
*ACTIVE
 70
     0
 10
0.0
 20
0.0
 11
1.0
 21
1.0
 12
210.0
 22
148.5
 13
0.0
 23
0.0
 14
10.0
 24
10.0
 15
10.0
 25
10.0
 16
0.0
 26
0.0
 36
1.0
 17
0.0
 27
0.0
 37
0.0
 40
341.0
 41
1.24
 42
50.0
 43
0.0
 44
0.0
 50
0.0
 51
0.0
 71
     0
 72
   100
 73
     1
 74
     3
 75
     0
 76
     0
 77
     0
 78
     0
  0
ENDTAB
  0
TABLE
  2
LTYPE
  5
5
330
0
100
AcDbSymbolTable
 70
     1
  0
LTYPE
  5
14
330
5
100
AcDbSymbolTableRecord
100
AcDbLinetypeTableRecord
  2
BYBLOCK
 70
     0
  3

 72
    65
 73
     0
 40
0.0
  0
LTYPE
  5
15
330
5
100
AcDbSymbolTableRecord
100
AcDbLinetypeTableRecord
  2
BYLAYER
 70
     0
  3

 72
    65
 73
     0
 40
0.0
  0
LTYPE
  5
16
330
5
100
AcDbSymbolTableRecord
100
AcDbLinetypeTableRecord
  2
CONTINUOUS
 70
     0
  3
Solid line
 72
    65
 73
     0
 40
0.0
  0
ENDTAB
  0
TABLE
  2
LAYER
  5
2
100
AcDbSymbolTable
 70
2
  0
LAYER
  5
50
100
AcDbSymbolTableRecord
100
AcDbLayerTableRecord
  2
0
 70
0
  6
CONTINUOUS
  0
LAYER
  5
51
100
AcDbSymbolTableRecord
100
AcDbLayerTableRecord
  2
Layer_1
 70
0
  6
CONTINUOUS
  0
ENDTAB
  0
TABLE
  2
STYLE
  5
3
330
0
100
AcDbSymbolTable
 70
     1
  0
STYLE
  5
11
330
3
100
AcDbSymbolTableRecord
100
AcDbTextStyleTableRecord
  2
STANDARD
 70
     0
 40
0.0
 41
1.0
 50
0.0
 71
     0
 42
2.5
  3
txt
  4

  0
ENDTAB
  0
TABLE
  2
VIEW
  5
6
330
0
100
AcDbSymbolTable
 70
     0
  0
ENDTAB
  0
TABLE
  2
UCS
  5
7
330
0
100
AcDbSymbolTable
 70
     0
  0
ENDTAB
  0
TABLE
  2
APPID
  5
9
330
0
100
AcDbSymbolTable
 70
     2
  0
APPID
  5
12
330
9
100
AcDbSymbolTableRecord
100
AcDbRegAppTableRecord
  2
ACAD
 70
     0
  0
ENDTAB
  0
TABLE
  2
DIMSTYLE
  5
A
330
0
100
AcDbSymbolTable
 70
     1
  0
DIMSTYLE
105
27
330
A
100
AcDbSymbolTableRecord
100
AcDbDimStyleTableRecord
  2
ISO-25
 70
     0
  3

  4

  5

  6

  7

 40
1.0
 41
2.5
 42
0.625
 43
3.75
 44
1.25
 45
0.0
 46
0.0
 47
0.0
 48
0.0
140
2.5
141
2.5
142
0.0
143
0.03937007874016
144
1.0
145
0.0
146
1.0
147
0.625
 71
     0
 72
     0
 73
     0
 74
     0
 75
     0
 76
     0
 77
     1
 78
     8
170
     0
171
     3
172
     1
173
     0
174
     0
175
     0
176
     0
177
     0
178
     0
270
     2
271
     2
272
     2
273
     2
274
     3
340
11
275
     0
280
     0
281
     0
282
     0
283
     0
284
     8
285
     0
286
     0
287
     3
288
     0
  0
ENDTAB
  0
TABLE
  2
BLOCK_RECORD
  5
1
330
0
100
AcDbSymbolTable
 70
     1
  0
BLOCK_RECORD
  5
1F
330
1
100
AcDbSymbolTableRecord
100
AcDbBlockTableRecord
  2
*MODEL_SPACE
  0
BLOCK_RECORD
  5
1B
330
1
100
AcDbSymbolTableRecord
100
AcDbBlockTableRecord
  2
*PAPER_SPACE
  0
ENDTAB
  0
ENDSEC
  0
SECTION
  2
BLOCKS
  0
BLOCK
  5
20
330
1F
100
AcDbEntity
  8
0
100
AcDbBlockBegin
  2
*MODEL_SPACE
 70
     0
 10
0.0
 20
0.0
 30
0.0
  3
*MODEL_SPACE
  1

  0
ENDBLK
  5
21
330
1F
100
AcDbEntity
  8
0
100
AcDbBlockEnd
  0
BLOCK
  5
1C
330
1B
100
AcDbEntity
 67
     1
  8
0
100
AcDbBlockBegin
  2
*PAPER_SPACE
  1

  0
ENDBLK
  5
1D
330
1B
100
AcDbEntity
 67
     1
  8
0
100
AcDbBlockEnd
  0
ENDSEC
  0
SECTION
  2
ENTITIES
  0
LWPOLYLINE
  5
100
100
AcDbEntity
  8
Layer_1
 62
7
100
AcDbPolyline
 90
14
 70
0
 10
0.239779
 20
16.477973
 30
0.0
 10
0.239779
 20
20.626144
 30
0.0
 10
1.726406
 20
20.626144
 30
0.0
 10
3.213034
 20
20.626144
 30
0.0
 10
3.213034
 20
17.053442
 30
0.0
 10
3.213034
 20
13.480740
 30
0.0
 10
2.134030
 20
13.480740
 30
0.0
 10
1.055026
 20
13.480740
 30
0.0
 10
1.055026
 20
12.905272
 30
0.0
 10
1.055026
 20
12.329803
 30
0.0
 10
0.647402
 20
12.329803
 30
0.0
 10
0.239779
 20
12.329803
 30
0.0
 10
0.239779
 20
16.477973
 30
0.0
 10
0.239779
 20
16.477973
 30
0.0
  0
LWPOLYLINE
  5
101
100
AcDbEntity
  8
Layer_1
 62
7
100
AcDbPolyline
 90
10
 70
0
 10
2.397787
 20
15.446925
 30
0.0
 10
2.397787
 20
16.693774
 30
0.0
 10
1.726406
 20
16.693774
 30
0.0
 10
1.055026
 20
16.693774
 30
0.0
 10
1.055026
 20
15.446925
 30
0.0
 10
1.055026
 20
14.200076
 30
0.0
 10
1.726406
 20
14.200076
 30
0.0
 10
2.397787
 20
14.200076
 30
0.0
 10
2.397787
 20
15.446925
 30
0.0
 10
2.397787
 20
15.446925
 30
0.0
  0
SPLINE
  5
102
100
AcDbEntity
  8
Layer_1
 62
7
100
AcDbSpline
 70
8
 71
3
 72
8
 73
4
 74
0
 40
0
 40
0
 40
0
 40
0
 40
1
 40
1
 40
1
 40
1
 10
3.667748
 20
11.655159
 30
0.0
 10
3.509970
 20
11.785243
 30
0.0
 10
3.380879
 20
11.911659
 30
0.0
 10
3.380879
 20
11.936084
 30
0.0
  0
SPLINE
  5
103
100
AcDbEntity
  8
Layer_1
 62
7
100
AcDbSpline
 70
8
 71
3
 72
8
 73
4
 74
0
 40
0
 40
0
 40
0
 40
0
 40
1
 40
1
 40
1
 40
1
 10
3.380879
 20
11.936084
 30
0.0
 10
3.380879
 20
11.960510
 30
0.0
 10
3.554137
 20
12.111047
 30
0.0
 10
3.765897
 20
12.270612
 30
0.0
  0
SPLINE
  5
104
100
AcDbEntity
  8
Layer_1
 62
7
100
AcDbSpline
 70
8
 71
3
 72
8
 73
4
 74
0
 40
0
 40
0
 40
0
 40
0
 40
1
 40
1
 40
1
 40
1
 10
3.765897
 20
12.270612
 30
0.0
 10
4.573910
 20
12.879468
 30
0.0
 10
5.189170
 20
13.546989
 30
0.0
 10
5.642226
 20
14.306317
 30
0.0
  0
SPLINE
  5
105
100
AcDbEntity
  8
Layer_1
 62
7
100
AcDbSpline
 70
8
 71
3
 72
8
 73
4
 74
0
 40
0
 40
0
 40
0
 40
0
 40
1
 40
1
 40
1
 40
1
 10
5.642226
 20
14.306317
 30
0.0
 10
5.833180
 20
14.626359
 30
0.0
 10
6.138333
 20
15.326990
 30
0.0
 10
6.138333
 20
15.445378
 30
0.0
  0
SPLINE
  5
106
100
AcDbEntity
  8
Layer_1
 62
7
100
AcDbSpline
 70
8
 71
3
 72
8
 73
4
 74
0
 40
0
 40
0
 40
0
 40
0
 40
1
 40
1
 40
1
 40
1
 10
6.138333
 20
15.445378
 30
0.0
 10
6.138333
 20
15.478189
 30
0.0
 10
5.701738
 20
15.494881
 30
0.0
 10
4.843529
 20
15.494881
 30
0.0
  0
LWPOLYLINE
  5
107
100
AcDbEntity
  8
Layer_1
 62
7
100
AcDbPolyline
 90
10
 70
0
 10
2.397787
 20
18.635981
 30
0.0
 10
2.397787
 20
19.858852
 30
0.0
 10
1.726406
 20
19.858852
 30
0.0
 10
1.055026
 20
19.858852
 30
0.0
 10
1.055026
 20
18.635981
 30
0.0
 10
1.055026
 20
17.413110
 30
0.0
 10
1.726406
 20
17.413110
 30
0.0
 10
2.397787
 20
17.413110
 30
0.0
 10
2.397787
 20
18.635981
 30
0.0
 10
2.397787
 20
18.635981
 30
0.0
  0
SPLINE
  5
108
100
AcDbEntity
  8
Layer_1
 62
7
100
AcDbSpline
 70
8
 71
3
 72
8
 73
4
 74
0
 40
0
 40
0
 40
0
 40
0
 40
1
 40
1
 40
1
 40
1
 10
8.727943
 20
15.494881
 30
0.0
 10
7.963049
 20
15.494881
 30
0.0
 10
7.337227
 20
15.482460
 30
0.0
 10
7.337227
 20
15.467282
 30
0.0
  0
SPLINE
  5
109
100
AcDbEntity
  8
Layer_1
 62
7
100
AcDbSpline
 70
8
 71
3
 72
8
 73
4
 74
0
 40
0
 40
0
 40
0
 40
0
 40
1
 40
1
 40
1
 40
1
 10
7.337227
 20
15.467282
 30
0.0
 10
7.337227
 20
15.414260
 30
0.0
 10
7.738100
 20
14.748061
 30
0.0
 10
8.027604
 20
14.319967
 30
0.0
  0
SPLINE
  5
10a
100
AcDbEntity
  8
Layer_1
 62
7
100
AcDbSpline
 70
8
 71
3
 72
8
 73
4
 74
0
 40
0
 40
0
 40
0
 40
0
 40
1
 40
1
 40
1
 40
1
 10
8.027604
 20
14.319967
 30
0.0
 10
8.402012
 20
13.766324
 30
0.0
 10
9.301298
 20
12.861492
 30
0.0
 10
9.817314
 20
12.519219
 30
0.0
  0
SPLINE
  5
10b
100
AcDbEntity
  8
Layer_1
 62
7
100
AcDbSpline
 70
8
 71
3
 72
8
 73
4
 74
0
 40
0
 40
0
 40
0
 40
0
 40
1
 40
1
 40
1
 40
1
 10
9.817314
 20
12.519219
 30
0.0
 10
10.034022
 20
12.375477
 30
0.0
 10
10.212058
 20
12.244013
 30
0.0
 10
10.212949
 20
12.227076
 30
0.0
  0
SPLINE
  5
10c
100
AcDbEntity
  8
Layer_1
 62
7
100
AcDbSpline
 70
8
 71
3
 72
8
 73
4
 74
0
 40
0
 40
0
 40
0
 40
0
 40
1
 40
1
 40
1
 40
1
 10
10.212949
 20
12.227076
 30
0.0
 10
10.213852
 20
12.210140
 30
0.0
 10
10.115809
 20
12.020660
 30
0.0
 10
9.995100
 20
11.806013
 30
0.0
  0
LWPOLYLINE
  5
10d
100
AcDbEntity
  8
Layer_1
 62
7
100
AcDbPolyline
 90
25
 70
0
 10
4.843529
 20
15.494881
 30
0.0
 10
3.548724
 20
15.494881
 30
0.0
 10
3.548724
 20
15.878527
 30
0.0
 10
3.548724
 20
16.262172
 30
0.0
 10
3.884414
 20
16.262172
 30
0.0
 10
4.220104
 20
16.262172
 30
0.0
 10
4.220104
 20
17.964601
 30
0.0
 10
4.220104
 20
19.667029
 30
0.0
 10
5.323086
 20
19.667029
 30
0.0
 10
6.426068
 20
19.667029
 30
0.0
 10
6.426068
 20
20.554210
 30
0.0
 10
6.426068
 20
21.441391
 30
0.0
 10
6.809713
 20
21.441391
 30
0.0
 10
7.193359
 20
21.441391
 30
0.0
 10
7.193359
 20
20.554210
 30
0.0
 10
7.193359
 20
19.667029
 30
0.0
 10
8.320319
 20
19.667029
 30
0.0
 10
9.447279
 20
19.667029
 30
0.0
 10
9.447279
 20
17.964601
 30
0.0
 10
9.447279
 20
16.262172
 30
0.0
 10
9.782969
 20
16.262172
 30
0.0
 10
10.118659
 20
16.262172
 30
0.0
 10
10.118659
 20
15.878527
 30
0.0
 10
10.118659
 20
15.494881
 30
0.0
 10
8.727943
 20
15.494881
 30
0.0
  0
SPLINE
  5
10e
100
AcDbEntity
  8
Layer_1
 62
7
100
AcDbSpline
 70
8
 71
3
 72
8
 73
4
 74
0
 40
0
 40
0
 40
0
 40
0
 40
1
 40
1
 40
1
 40
1
 10
9.575487
 20
11.561337
 30
0.0
 10
8.663005
 20
12.225116
 30
0.0
 10
7.803147
 20
13.209899
 30
0.0
 10
7.111607
 20
14.383182
 30
0.0
  0
SPLINE
  5
10f
100
AcDbEntity
  8
Layer_1
 62
7
100
AcDbSpline
 70
8
 71
3
 72
8
 73
4
 74
0
 40
0
 40
0
 40
0
 40
0
 40
1
 40
1
 40
1
 40
1
 10
7.111607
 20
14.383182
 30
0.0
 10
6.966747
 20
14.628955
 30
0.0
 10
6.841723
 20
14.823176
 30
0.0
 10
6.833775
 20
14.814784
 30
0.0
  0
SPLINE
  5
110
100
AcDbEntity
  8
Layer_1
 62
7
100
AcDbSpline
 70
8
 71
3
 72
8
 73
4
 74
0
 40
0
 40
0
 40
0
 40
0
 40
1
 40
1
 40
1
 40
1
 10
6.833775
 20
14.814784
 30
0.0
 10
6.825828
 20
14.806390
 30
0.0
 10
6.687933
 20
14.540563
 30
0.0
 10
6.527341
 20
14.224055
 30
0.0
  0
SPLINE
  5
111
100
AcDbEntity
  8
Layer_1
 62
7
100
AcDbSpline
 70
8
 71
3
 72
8
 73
4
 74
0
 40
0
 40
0
 40
0
 40
0
 40
1
 40
1
 40
1
 40
1
 10
6.527341
 20
14.224055
 30
0.0
 10
6.035758
 20
13.255204
 30
0.0
 10
5.316578
 20
12.403499
 30
0.0
 10
4.425109
 20
11.734441
 30
0.0
  0
SPLINE
  5
112
100
AcDbEntity
  8
Layer_1
 62
7
100
AcDbSpline
 70
8
 71
3
 72
8
 73
4
 74
0
 40
0
 40
0
 40
0
 40
0
 40
1
 40
1
 40
1
 40
1
 10
4.425109
 20
11.734441
 30
0.0
 10
4.193684
 20
11.560754
 30
0.0
 10
3.993149
 20
11.418645
 30
0.0
 10
3.979476
 20
11.418645
 30
0.0
  0
SPLINE
  5
113
100
AcDbEntity
  8
Layer_1
 62
7
100
AcDbSpline
 70
8
 71
3
 72
8
 73
4
 74
0
 40
0
 40
0
 40
0
 40
0
 40
1
 40
1
 40
1
 40
1
 10
3.979476
 20
11.418645
 30
0.0
 10
3.965802
 20
11.418645
 30
0.0
 10
3.825526
 20
11.525077
 30
0.0
 10
3.667748
 20
11.655161
 30
0.0
  0
LWPOLYLINE
  5
114
100
AcDbEntity
  8
Layer_1
 62
7
100
AcDbPolyline
 90
3
 70
0
 10
9.995100
 20
11.806013
 30
0.0
 10
9.775629
 20
11.415746
 30
0.0
 10
9.575487
 20
11.561337
 30
0.0
  0
SPLINE
  5
115
100
AcDbEntity
  8
Layer_1
 62
7
100
AcDbSpline
 70
8
 71
3
 72
8
 73
4
 74
0
 40
0
 40
0
 40
0
 40
0
 40
1
 40
1
 40
1
 40
1
 10
6.356979
 20
16.346095
 30
0.0
 10
6.377375
 20
16.392252
 30
0.0
 10
6.403587
 20
16.996495
 30
0.0
 10
6.415227
 20
17.688855
 30
0.0
  0
LWPOLYLINE
  5
116
100
AcDbEntity
  8
Layer_1
 62
7
100
AcDbPolyline
 90
3
 70
0
 10
3.667748
 20
11.655161
 30
0.0
 10
3.667748
 20
11.655161
 30
0.0
 10
3.667748
 20
11.655159
 30
0.0
  0
SPLINE
  5
117
100
AcDbEntity
  8
Layer_1
 62
7
100
AcDbSpline
 70
8
 71
3
 72
8
 73
4
 74
0
 40
0
 40
0
 40
0
 40
0
 40
1
 40
1
 40
1
 40
1
 10
5.653645
 20
16.262172
 30
0.0
 10
6.242070
 20
16.262172
 30
0.0
 10
6.324226
 20
16.271977
 30
0.0
 10
6.356979
 20
16.346095
 30
0.0
  0
LWPOLYLINE
  5
118
100
AcDbEntity
  8
Layer_1
 62
7
100
AcDbPolyline
 90
7
 70
0
 10
6.415227
 20
17.688855
 30
0.0
 10
6.436391
 20
18.947693
 30
0.0
 10
5.711893
 20
18.947693
 30
0.0
 10
4.987395
 20
18.947693
 30
0.0
 10
4.987395
 20
17.604933
 30
0.0
 10
4.987395
 20
16.262172
 30
0.0
 10
5.653645
 20
16.262172
 30
0.0
  0
LWPOLYLINE
  5
119
100
AcDbEntity
  8
Layer_1
 62
7
100
AcDbPolyline
 90
2
 70
0
 10
6.356979
 20
16.346095
 30
0.0
 10
6.356979
 20
16.346095
 30
0.0
  0
LWPOLYLINE
  5
11a
100
AcDbEntity
  8
Layer_1
 62
7
100
AcDbPolyline
 90
10
 70
0
 10
8.679987
 20
17.604933
 30
0.0
 10
8.679987
 20
18.947693
 30
0.0
 10
7.938132
 20
18.947693
 30
0.0
 10
7.196278
 20
18.947693
 30
0.0
 10
7.182830
 20
17.604903
 30
0.0
 10
7.169382
 20
16.262113
 30
0.0
 10
7.924685
 20
16.262142
 30
0.0
 10
8.679988
 20
16.262172
 30
0.0
 10
8.679988
 20
17.604933
 30
0.0
 10
8.679987
 20
17.604933
 30
0.0
  0
LWPOLYLINE
  5
11b
100
AcDbEntity
  8
Layer_1
 62
7
100
AcDbPolyline
 90
26
 70
0
 10
4.555794
 20
5.136443
 30
0.0
 10
4.555794
 20
9.740193
 30
0.0
 10
7.145404
 20
9.740193
 30
0.0
 10
9.735013
 20
9.740193
 30
0.0
 10
9.735013
 20
9.356547
 30
0.0
 10
9.735013
 20
8.972902
 30
0.0
 10
8.847832
 20
8.972902
 30
0.0
 10
7.960651
 20
8.972902
 30
0.0
 10
7.960651
 20
7.941854
 30
0.0
 10
7.960651
 20
6.910805
 30
0.0
 10
8.799876
 20
6.910805
 30
0.0
 10
9.639102
 20
6.910805
 30
0.0
 10
9.639102
 20
5.136443
 30
0.0
 10
9.639102
 20
3.362081
 30
0.0
 10
8.751921
 20
3.362081
 30
0.0
 10
7.864740
 20
3.362081
 30
0.0
 10
7.864740
 20
2.355011
 30
0.0
 10
7.864740
 20
1.347941
 30
0.0
 10
8.823854
 20
1.347941
 30
0.0
 10
9.782969
 20
1.347941
 30
0.0
 10
9.782969
 20
0.940317
 30
0.0
 10
9.782969
 20
0.532693
 30
0.0
 10
7.169382
 20
0.532693
 30
0.0
 10
4.555794
 20
0.532693
 30
0.0
 10
4.555794
 20
5.136443
 30
0.0
 10
4.555794
 20
5.136443
 30
0.0
  0
LWPOLYLINE
  5
11c
100
AcDbEntity
  8
Layer_1
 62
7
100
AcDbPolyline
 90
10
 70
0
 10
7.097448
 20
2.355011
 30
0.0
 10
7.097448
 20
3.362081
 30
0.0
 10
6.258223
 20
3.362081
 30
0.0
 10
5.418997
 20
3.362081
 30
0.0
 10
5.418997
 20
2.355011
 30
0.0
 10
5.418997
 20
1.347941
 30
0.0
 10
6.258223
 20
1.347941
 30
0.0
 10
7.097448
 20
1.347941
 30
0.0
 10
7.097448
 20
2.355011
 30
0.0
 10
7.097448
 20
2.355011
 30
0.0
  0
LWPOLYLINE
  5
11d
100
AcDbEntity
  8
Layer_1
 62
7
100
AcDbPolyline
 90
10
 70
0
 10
8.775898
 20
5.136443
 30
0.0
 10
8.775898
 20
6.095558
 30
0.0
 10
7.097448
 20
6.095558
 30
0.0
 10
5.418997
 20
6.095558
 30
0.0
 10
5.418997
 20
5.136443
 30
0.0
 10
5.418997
 20
4.177329
 30
0.0
 10
7.097448
 20
4.177329
 30
0.0
 10
8.775898
 20
4.177329
 30
0.0
 10
8.775898
 20
5.136443
 30
0.0
 10
8.775898
 20
5.136443
 30
0.0
  0
SPLINE
  5
11e
100
AcDbEntity
  8
Layer_1
 62
7
100
AcDbSpline
 70
8
 71
3
 72
8
 73
4
 74
0
 40
0
 40
0
 40
0
 40
0
 40
1
 40
1
 40
1
 40
1
 10
0.290902
 20
0.375955
 30
0.0
 10
0.159111
 20
0.554476
 30
0.0
 10
0.050681
 20
0.711328
 30
0.0
 10
0.049946
 20
0.724516
 30
0.0
  0
SPLINE
  5
11f
100
AcDbEntity
  8
Layer_1
 62
7
100
AcDbSpline
 70
8
 71
3
 72
8
 73
4
 74
0
 40
0
 40
0
 40
0
 40
0
 40
1
 40
1
 40
1
 40
1
 10
0.049946
 20
0.724516
 30
0.0
 10
0.049212
 20
0.737704
 30
0.0
 10
0.124064
 20
0.799879
 30
0.0
 10
0.216284
 20
0.862682
 30
0.0
  0
SPLINE
  5
120
100
AcDbEntity
  8
Layer_1
 62
7
100
AcDbSpline
 70
8
 71
3
 72
8
 73
4
 74
0
 40
0
 40
0
 40
0
 40
0
 40
1
 40
1
 40
1
 40
1
 10
0.216284
 20
0.862682
 30
0.0
 10
0.641342
 20
1.152156
 30
0.0
 10
1.822318
 20
2.560647
 30
0.0
 10
1.822318
 20
2.778120
 30
0.0
  0
SPLINE
  5
121
100
AcDbEntity
  8
Layer_1
 62
7
100
AcDbSpline
 70
8
 71
3
 72
8
 73
4
 74
0
 40
0
 40
0
 40
0
 40
0
 40
1
 40
1
 40
1
 40
1
 10
1.822318
 20
2.778120
 30
0.0
 10
1.822318
 20
2.807101
 30
0.0
 10
1.500870
 20
3.161150
 30
0.0
 10
1.107989
 20
3.564894
 30
0.0
  0
LWPOLYLINE
  5
122
100
AcDbEntity
  8
Layer_1
 62
7
100
AcDbPolyline
 90
10
 70
0
 10
7.145404
 20
7.941854
 30
0.0
 10
7.145404
 20
8.972902
 30
0.0
 10
6.282201
 20
8.972902
 30
0.0
 10
5.418997
 20
8.972902
 30
0.0
 10
5.418997
 20
7.941854
 30
0.0
 10
5.418997
 20
6.910805
 30
0.0
 10
6.282201
 20
6.910805
 30
0.0
 10
7.145404
 20
6.910805
 30
0.0
 10
7.145404
 20
7.941854
 30
0.0
 10
7.145404
 20
7.941854
 30
0.0
  0
SPLINE
  5
123
100
AcDbEntity
  8
Layer_1
 62
7
100
AcDbSpline
 70
8
 71
3
 72
8
 73
4
 74
0
 40
0
 40
0
 40
0
 40
0
 40
1
 40
1
 40
1
 40
1
 10
0.551117
 20
4.874371
 30
0.0
 10
0.747689
 20
5.592715
 30
0.0
 10
1.043442
 20
6.860860
 30
0.0
 10
1.084843
 20
7.162910
 30
0.0
  0
LWPOLYLINE
  5
124
100
AcDbEntity
  8
Layer_1
 62
7
100
AcDbPolyline
 90
3
 70
0
 10
1.107989
 20
3.564894
 30
0.0
 10
0.393661
 20
4.298975
 30
0.0
 10
0.551117
 20
4.874371
 30
0.0
  0
SPLINE
  5
125
100
AcDbEntity
  8
Layer_1
 62
7
100
AcDbSpline
 70
8
 71
3
 72
8
 73
4
 74
0
 40
0
 40
0
 40
0
 40
0
 40
1
 40
1
 40
1
 40
1
 10
1.385995
 20
8.409422
 30
0.0
 10
1.413514
 20
8.547894
 30
0.0
 10
1.492473
 20
8.984890
 30
0.0
 10
1.561460
 20
9.380525
 30
0.0
  0
SPLINE
  5
126
100
AcDbEntity
  8
Layer_1
 62
7
100
AcDbSpline
 70
8
 71
3
 72
8
 73
4
 74
0
 40
0
 40
0
 40
0
 40
0
 40
1
 40
1
 40
1
 40
1
 10
1.561460
 20
9.380525
 30
0.0
 10
1.630447
 20
9.776160
 30
0.0
 10
1.694735
 20
10.107806
 30
0.0
 10
1.704323
 20
10.117517
 30
0.0
  0
SPLINE
  5
127
100
AcDbEntity
  8
Layer_1
 62
7
100
AcDbSpline
 70
8
 71
3
 72
8
 73
4
 74
0
 40
0
 40
0
 40
0
 40
0
 40
1
 40
1
 40
1
 40
1
 10
1.704323
 20
10.117517
 30
0.0
 10
1.725790
 20
10.139260
 30
0.0
 10
2.331101
 20
10.021186
 30
0.0
 10
2.392404
 20
9.983298
 30
0.0
  0
SPLINE
  5
128
100
AcDbEntity
  8
Layer_1
 62
7
100
AcDbSpline
 70
8
 71
3
 72
8
 73
4
 74
0
 40
0
 40
0
 40
0
 40
0
 40
1
 40
1
 40
1
 40
1
 10
2.392404
 20
9.983298
 30
0.0
 10
2.418190
 20
9.967361
 30
0.0
 10
2.379106
 20
9.625301
 30
0.0
 10
2.298868
 20
9.164689
 30
0.0
  0
SPLINE
  5
129
100
AcDbEntity
  8
Layer_1
 62
7
100
AcDbSpline
 70
8
 71
3
 72
8
 73
4
 74
0
 40
0
 40
0
 40
0
 40
0
 40
1
 40
1
 40
1
 40
1
 10
2.298868
 20
9.164689
 30
0.0
 10
2.223061
 20
8.729510
 30
0.0
 10
2.160355
 20
8.324900
 30
0.0
 10
2.159522
 20
8.265555
 30
0.0
  0
SPLINE
  5
12a
100
AcDbEntity
  8
Layer_1
 62
7
100
AcDbSpline
 70
8
 71
3
 72
8
 73
4
 74
0
 40
0
 40
0
 40
0
 40
0
 40
1
 40
1
 40
1
 40
1
 10
2.159522
 20
8.265555
 30
0.0
 10
2.158007
 20
8.157676
 30
0.0
 10
2.158176
 20
8.157654
 30
0.0
 10
3.004542
 20
8.157654
 30
0.0
  0
LWPOLYLINE
  5
12b
100
AcDbEntity
  8
Layer_1
 62
7
100
AcDbPolyline
 90
9
 70
0
 10
1.084843
 20
7.162910
 30
0.0
 10
1.116019
 20
7.390363
 30
0.0
 10
0.581987
 20
7.390363
 30
0.0
 10
0.047956
 20
7.390363
 30
0.0
 10
0.047956
 20
7.774008
 30
0.0
 10
0.047956
 20
8.157654
 30
0.0
 10
0.691958
 20
8.157654
 30
0.0
 10
1.335961
 20
8.157654
 30
0.0
 10
1.385995
 20
8.409422
 30
0.0
  0
SPLINE
  5
12c
100
AcDbEntity
  8
Layer_1
 62
7
100
AcDbSpline
 70
8
 71
3
 72
8
 73
4
 74
0
 40
0
 40
0
 40
0
 40
0
 40
1
 40
1
 40
1
 40
1
 10
3.818655
 20
7.551212
 30
0.0
 10
3.733408
 20
5.956596
 30
0.0
 10
3.411948
 20
4.295651
 30
0.0
 10
2.960714
 20
3.118331
 30
0.0
  0
LWPOLYLINE
  5
12d
100
AcDbEntity
  8
Layer_1
 62
7
100
AcDbPolyline
 90
3
 70
0
 10
3.004542
 20
8.157654
 30
0.0
 10
3.851075
 20
8.157654
 30
0.0
 10
3.818655
 20
7.551212
 30
0.0
  0
SPLINE
  5
12e
100
AcDbEntity
  8
Layer_1
 62
7
100
AcDbSpline
 70
8
 71
3
 72
8
 73
4
 74
0
 40
0
 40
0
 40
0
 40
0
 40
1
 40
1
 40
1
 40
1
 10
3.102195
 20
2.494906
 30
0.0
 10
3.246556
 20
2.325649
 30
0.0
 10
3.511474
 20
2.002138
 30
0.0
 10
3.690901
 20
1.775994
 30
0.0
  0
LWPOLYLINE
  5
12f
100
AcDbEntity
  8
Layer_1
 62
7
100
AcDbPolyline
 90
3
 70
0
 10
2.960714
 20
3.118331
 30
0.0
 10
2.839721
 20
2.802646
 30
0.0
 10
3.102195
 20
2.494906
 30
0.0
  0
SPLINE
  5
130
100
AcDbEntity
  8
Layer_1
 62
7
100
AcDbSpline
 70
8
 71
3
 72
8
 73
4
 74
0
 40
0
 40
0
 40
0
 40
0
 40
1
 40
1
 40
1
 40
1
 10
3.140452
 20
1.098502
 30
0.0
 10
2.846091
 20
1.548179
 30
0.0
 10
2.478335
 20
2.019526
 30
0.0
 10
2.424352
 20
2.016314
 30
0.0
  0
SPLINE
  5
131
100
AcDbEntity
  8
Layer_1
 62
7
100
AcDbSpline
 70
8
 71
3
 72
8
 73
4
 74
0
 40
0
 40
0
 40
0
 40
0
 40
1
 40
1
 40
1
 40
1
 10
2.424352
 20
2.016314
 30
0.0
 10
2.396553
 20
2.014648
 30
0.0
 10
2.255118
 20
1.847788
 30
0.0
 10
2.110052
 20
1.645487
 30
0.0
  0
SPLINE
  5
132
100
AcDbEntity
  8
Layer_1
 62
7
100
AcDbSpline
 70
8
 71
3
 72
8
 73
4
 74
0
 40
0
 40
0
 40
0
 40
0
 40
1
 40
1
 40
1
 40
1
 10
2.110052
 20
1.645487
 30
0.0
 10
1.835362
 20
1.262421
 30
0.0
 10
0.822003
 20
0.204218
 30
0.0
 10
0.636918
 20
0.107164
 30
0.0
  0
SPLINE
  5
133
100
AcDbEntity
  8
Layer_1
 62
7
100
AcDbSpline
 70
8
 71
3
 72
8
 73
4
 74
0
 40
0
 40
0
 40
0
 40
0
 40
1
 40
1
 40
1
 40
1
 10
0.636918
 20
0.107164
 30
0.0
 10
0.538714
 20
0.055668
 30
0.0
 10
0.512075
 20
0.076362
 30
0.0
 10
0.290902
 20
0.375955
 30
0.0
  0
LWPOLYLINE
  5
134
100
AcDbEntity
  8
Layer_1
 62
7
100
AcDbPolyline
 90
5
 70
0
 10
3.690901
 20
1.775994
 30
0.0
 10
4.017133
 20
1.364821
 30
0.0
 10
3.668282
 20
1.094954
 30
0.0
 10
3.319431
 20
0.825086
 30
0.0
 10
3.140452
 20
1.098502
 30
0.0
  0
SPLINE
  5
135
100
AcDbEntity
  8
Layer_1
 62
7
100
AcDbSpline
 70
8
 71
3
 72
8
 73
4
 74
0
 40
0
 40
0
 40
0
 40
0
 40
1
 40
1
 40
1
 40
1
 10
2.418364
 20
4.077441
 30
0.0
 10
2.700252
 20
4.949409
 30
0.0
 10
2.870933
 20
5.866750
 30
0.0
 10
2.952234
 20
6.946772
 30
0.0
  0
LWPOLYLINE
  5
136
100
AcDbEntity
  8
Layer_1
 62
7
100
AcDbPolyline
 90
3
 70
0
 10
0.290902
 20
0.375955
 30
0.0
 10
0.290902
 20
0.375955
 30
0.0
 10
0.290902
 20
0.375955
 30
0.0
  0
SPLINE
  5
137
100
AcDbEntity
  8
Layer_1
 62
7
100
AcDbSpline
 70
8
 71
3
 72
8
 73
4
 74
0
 40
0
 40
0
 40
0
 40
0
 40
1
 40
1
 40
1
 40
1
 10
1.935474
 20
7.248797
 30
0.0
 10
1.919902
 20
7.170936
 30
0.0
 10
1.761337
 20
6.528929
 30
0.0
 10
1.583107
 20
5.822114
 30
0.0
  0
LWPOLYLINE
  5
138
100
AcDbEntity
  8
Layer_1
 62
7
100
AcDbPolyline
 90
5
 70
0
 10
2.952234
 20
6.946772
 30
0.0
 10
2.985626
 20
7.390363
 30
0.0
 10
2.474707
 20
7.390363
 30
0.0
 10
1.963787
 20
7.390363
 30
0.0
 10
1.935474
 20
7.248797
 30
0.0
  0
SPLINE
  5
139
100
AcDbEntity
  8
Layer_1
 62
7
100
AcDbSpline
 70
8
 71
3
 72
8
 73
4
 74
0
 40
0
 40
0
 40
0
 40
0
 40
1
 40
1
 40
1
 40
1
 10
1.713319
 20
4.045450
 30
0.0
 10
1.963166
 20
3.775100
 30
0.0
 10
2.185930
 20
3.553904
 30
0.0
 10
2.208350
 20
3.553904
 30
0.0
  0
SPLINE
  5
13a
100
AcDbEntity
  8
Layer_1
 62
7
100
AcDbSpline
 70
8
 71
3
 72
8
 73
4
 74
0
 40
0
 40
0
 40
0
 40
0
 40
1
 40
1
 40
1
 40
1
 10
2.208350
 20
3.553904
 30
0.0
 10
2.230771
 20
3.553904
 30
0.0
 10
2.325277
 20
3.789496
 30
0.0
 10
2.418364
 20
4.077441
 30
0.0
  0
LWPOLYLINE
  5
13b
100
AcDbEntity
  8
Layer_1
 62
7
100
AcDbPolyline
 90
3
 70
0
 10
1.583107
 20
5.822114
 30
0.0
 10
1.259054
 20
4.536997
 30
0.0
 10
1.713319
 20
4.045450
 30
0.0
  0
SPLINE
  5
13c
100
AcDbEntity
  8
Layer_1
 62
7
100
AcDbSpline
 70
8
 71
3
 72
8
 73
4
 74
0
 40
0
 40
0
 40
0
 40
0
 40
1
 40
1
 40
1
 40
1
 10
28.539011
 20
5.665806
 30
0.0
 10
28.397431
 20
5.851452
 30
0.0
 10
28.289752
 20
6.008677
 30
0.0
 10
28.299726
 20
6.015195
 30
0.0
  0
SPLINE
  5
13d
100
AcDbEntity
  8
Layer_1
 62
7
100
AcDbSpline
 70
8
 71
3
 72
8
 73
4
 74
0
 40
0
 40
0
 40
0
 40
0
 40
1
 40
1
 40
1
 40
1
 10
28.299726
 20
6.015195
 30
0.0
 10
28.309689
 20
6.021711
 30
0.0
 10
28.638915
 20
6.132985
 30
0.0
 10
29.031317
 20
6.262466
 30
0.0
  0
SPLINE
  5
13e
100
AcDbEntity
  8
Layer_1
 62
7
100
AcDbSpline
 70
8
 71
3
 72
8
 73
4
 74
0
 40
0
 40
0
 40
0
 40
0
 40
1
 40
1
 40
1
 40
1
 10
29.031317
 20
6.262466
 30
0.0
 10
29.734710
 20
6.494566
 30
0.0
 10
30.883877
 20
7.026194
 30
0.0
 10
31.411003
 20
7.363358
 30
0.0
  0
LWPOLYLINE
  5
13f
100
AcDbEntity
  8
Layer_1
 62
7
100
AcDbPolyline
 90
2
 70
0
 10
2.418364
 20
4.077441
 30
0.0
 10
2.418364
 20
4.077441
 30
0.0
  0
SPLINE
  5
140
100
AcDbEntity
  8
Layer_1
 62
7
100
AcDbSpline
 70
8
 71
3
 72
8
 73
4
 74
0
 40
0
 40
0
 40
0
 40
0
 40
1
 40
1
 40
1
 40
1
 10
32.578833
 20
9.116747
 30
0.0
 10
32.429871
 20
9.116747
 30
0.0
 10
31.737419
 20
9.082670
 30
0.0
 10
31.040053
 20
9.041019
 30
0.0
  0
SPLINE
  5
141
100
AcDbEntity
  8
Layer_1
 62
7
100
AcDbSpline
 70
8
 71
3
 72
8
 73
4
 74
0
 40
0
 40
0
 40
0
 40
0
 40
1
 40
1
 40
1
 40
1
 10
31.040053
 20
9.041019
 30
0.0
 10
30.342685
 20
8.999369
 30
0.0
 10
29.761874
 20
8.975529
 30
0.0
 10
29.749361
 20
8.988043
 30
0.0
  0
SPLINE
  5
142
100
AcDbEntity
  8
Layer_1
 62
7
100
AcDbSpline
 70
8
 71
3
 72
8
 73
4
 74
0
 40
0
 40
0
 40
0
 40
0
 40
1
 40
1
 40
1
 40
1
 10
29.749361
 20
8.988043
 30
0.0
 10
29.736858
 20
9.000556
 30
0.0
 10
29.666170
 20
9.172799
 30
0.0
 10
29.592304
 20
9.370806
 30
0.0
  0
LWPOLYLINE
  5
143
100
AcDbEntity
  8
Layer_1
 62
7
100
AcDbPolyline
 90
11
 70
0
 10
31.411003
 20
7.363358
 30
0.0
 10
31.674760
 20
7.532064
 30
0.0
 10
29.984319
 20
7.533136
 30
0.0
 10
28.293881
 20
7.534208
 30
0.0
 10
28.293881
 20
7.941832
 30
0.0
 10
28.293881
 20
8.349456
 30
0.0
 10
30.571779
 20
8.349456
 30
0.0
 10
32.849673
 20
8.349456
 30
0.0
 10
32.849673
 20
8.733102
 30
0.0
 10
32.849673
 20
9.116747
 30
0.0
 10
32.578833
 20
9.116747
 30
0.0
  0
SPLINE
  5
144
100
AcDbEntity
  8
Layer_1
 62
7
100
AcDbSpline
 70
8
 71
3
 72
8
 73
4
 74
0
 40
0
 40
0
 40
0
 40
0
 40
1
 40
1
 40
1
 40
1
 10
29.601267
 20
9.759473
 30
0.0
 10
29.680069
 20
9.775232
 30
0.0
 10
29.920074
 20
9.788128
 30
0.0
 10
30.134611
 20
9.788128
 30
0.0
  0
SPLINE
  5
145
100
AcDbEntity
  8
Layer_1
 62
7
100
AcDbSpline
 70
8
 71
3
 72
8
 73
4
 74
0
 40
0
 40
0
 40
0
 40
0
 40
1
 40
1
 40
1
 40
1
 10
30.134611
 20
9.788128
 30
0.0
 10
30.877126
 20
9.788128
 30
0.0
 10
36.385125
 20
10.088256
 30
0.0
 10
36.642822
 20
10.142757
 30
0.0
  0
SPLINE
  5
146
100
AcDbEntity
  8
Layer_1
 62
7
100
AcDbSpline
 70
8
 71
3
 72
8
 73
4
 74
0
 40
0
 40
0
 40
0
 40
0
 40
1
 40
1
 40
1
 40
1
 10
36.642822
 20
10.142757
 30
0.0
 10
36.696718
 20
10.154156
 30
0.0
 10
36.771176
 20
10.054314
 30
0.0
 10
36.894197
 20
9.805695
 30
0.0
  0
SPLINE
  5
147
100
AcDbEntity
  8
Layer_1
 62
7
100
AcDbSpline
 70
8
 71
3
 72
8
 73
4
 74
0
 40
0
 40
0
 40
0
 40
0
 40
1
 40
1
 40
1
 40
1
 10
36.894197
 20
9.805695
 30
0.0
 10
36.990336
 20
9.611403
 30
0.0
 10
37.052984
 20
9.451146
 30
0.0
 10
37.033420
 20
9.449568
 30
0.0
  0
SPLINE
  5
148
100
AcDbEntity
  8
Layer_1
 62
7
100
AcDbSpline
 70
8
 71
3
 72
8
 73
4
 74
0
 40
0
 40
0
 40
0
 40
0
 40
1
 40
1
 40
1
 40
1
 10
37.033420
 20
9.449568
 30
0.0
 10
37.013862
 20
9.447987
 30
0.0
 10
36.264122
 20
9.388405
 30
0.0
 10
35.367349
 20
9.317159
 30
0.0
  0
LWPOLYLINE
  5
149
100
AcDbEntity
  8
Layer_1
 62
7
100
AcDbPolyline
 90
3
 70
0
 10
29.592304
 20
9.370806
 30
0.0
 10
29.457997
 20
9.730819
 30
0.0
 10
29.601267
 20
9.759473
 30
0.0
  0
SPLINE
  5
14a
100
AcDbEntity
  8
Layer_1
 62
7
100
AcDbSpline
 70
8
 71
3
 72
8
 73
4
 74
0
 40
0
 40
0
 40
0
 40
0
 40
1
 40
1
 40
1
 40
1
 10
35.331005
 20
7.229637
 30
0.0
 10
35.948290
 20
6.876999
 30
0.0
 10
36.821756
 20
6.519813
 30
0.0
 10
37.597289
 20
6.302884
 30
0.0
  0
SPLINE
  5
14b
100
AcDbEntity
  8
Layer_1
 62
7
100
AcDbSpline
 70
8
 71
3
 72
8
 73
4
 74
0
 40
0
 40
0
 40
0
 40
0
 40
1
 40
1
 40
1
 40
1
 10
37.597289
 20
6.302884
 30
0.0
 10
37.926984
 20
6.210664
 30
0.0
 10
38.225264
 20
6.126365
 30
0.0
 10
38.260133
 20
6.115553
 30
0.0
  0
SPLINE
  5
14c
100
AcDbEntity
  8
Layer_1
 62
7
100
AcDbSpline
 70
8
 71
3
 72
8
 73
4
 74
0
 40
0
 40
0
 40
0
 40
0
 40
1
 40
1
 40
1
 40
1
 10
38.260133
 20
6.115553
 30
0.0
 10
38.305732
 20
6.101414
 30
0.0
 10
38.266116
 20
5.988141
 30
0.0
 10
38.119016
 20
5.712069
 30
0.0
  0
SPLINE
  5
14d
100
AcDbEntity
  8
Layer_1
 62
7
100
AcDbSpline
 70
8
 71
3
 72
8
 73
4
 74
0
 40
0
 40
0
 40
0
 40
0
 40
1
 40
1
 40
1
 40
1
 10
38.119016
 20
5.712069
 30
0.0
 10
38.006536
 20
5.500965
 30
0.0
 10
37.899481
 20
5.328243
 30
0.0
 10
37.881117
 20
5.328243
 30
0.0
  0
SPLINE
  5
14e
100
AcDbEntity
  8
Layer_1
 62
7
100
AcDbSpline
 70
8
 71
3
 72
8
 73
4
 74
0
 40
0
 40
0
 40
0
 40
0
 40
1
 40
1
 40
1
 40
1
 10
37.881117
 20
5.328243
 30
0.0
 10
37.862744
 20
5.328243
 30
0.0
 10
37.591763
 20
5.415851
 30
0.0
 10
37.278920
 20
5.522929
 30
0.0
  0
SPLINE
  5
14f
100
AcDbEntity
  8
Layer_1
 62
7
100
AcDbSpline
 70
8
 71
3
 72
8
 73
4
 74
0
 40
0
 40
0
 40
0
 40
0
 40
1
 40
1
 40
1
 40
1
 10
37.278920
 20
5.522929
 30
0.0
 10
36.168417
 20
5.903017
 30
0.0
 10
34.948461
 20
6.574588
 30
0.0
 10
34.156856
 20
7.241586
 30
0.0
  0
SPLINE
  5
150
100
AcDbEntity
  8
Layer_1
 62
7
100
AcDbSpline
 70
8
 71
3
 72
8
 73
4
 74
0
 40
0
 40
0
 40
0
 40
0
 40
1
 40
1
 40
1
 40
1
 10
34.156856
 20
7.241586
 30
0.0
 10
33.965848
 20
7.402527
 30
0.0
 10
33.787814
 20
7.534207
 30
0.0
 10
33.761223
 20
7.534207
 30
0.0
  0
SPLINE
  5
151
100
AcDbEntity
  8
Layer_1
 62
7
100
AcDbSpline
 70
8
 71
3
 72
8
 73
4
 74
0
 40
0
 40
0
 40
0
 40
0
 40
1
 40
1
 40
1
 40
1
 10
33.761223
 20
7.534207
 30
0.0
 10
33.730571
 20
7.534207
 30
0.0
 10
33.712875
 20
7.227029
 30
0.0
 10
33.712875
 20
6.694981
 30
0.0
  0
LWPOLYLINE
  5
152
100
AcDbEntity
  8
Layer_1
 62
7
100
AcDbPolyline
 90
11
 70
0
 10
35.367349
 20
9.317159
 30
0.0
 10
33.736856
 20
9.187619
 30
0.0
 10
33.722999
 20
8.768537
 30
0.0
 10
33.709142
 20
8.349456
 30
0.0
 10
35.988904
 20
8.349456
 30
0.0
 10
38.268670
 20
8.349456
 30
0.0
 10
38.268670
 20
7.942438
 30
0.0
 10
38.268670
 20
7.535420
 30
0.0
 10
36.554252
 20
7.522824
 30
0.0
 10
34.839834
 20
7.510229
 30
0.0
 10
35.331005
 20
7.229637
 30
0.0
  0
SPLINE
  5
153
100
AcDbEntity
  8
Layer_1
 62
7
100
AcDbSpline
 70
8
 71
3
 72
8
 73
4
 74
0
 40
0
 40
0
 40
0
 40
0
 40
1
 40
1
 40
1
 40
1
 10
32.849670
 20
6.694981
 30
0.0
 10
32.849670
 20
7.246229
 30
0.0
 10
32.832483
 20
7.534207
 30
0.0
 10
32.799590
 20
7.534207
 30
0.0
  0
SPLINE
  5
154
100
AcDbEntity
  8
Layer_1
 62
7
100
AcDbSpline
 70
8
 71
3
 72
8
 73
4
 74
0
 40
0
 40
0
 40
0
 40
0
 40
1
 40
1
 40
1
 40
1
 10
32.799590
 20
7.534207
 30
0.0
 10
32.772045
 20
7.534207
 30
0.0
 10
32.572432
 20
7.390031
 30
0.0
 10
32.356002
 20
7.213816
 30
0.0
  0
SPLINE
  5
155
100
AcDbEntity
  8
Layer_1
 62
7
100
AcDbSpline
 70
8
 71
3
 72
8
 73
4
 74
0
 40
0
 40
0
 40
0
 40
0
 40
1
 40
1
 40
1
 40
1
 10
32.356002
 20
7.213816
 30
0.0
 10
31.816252
 20
6.774361
 30
0.0
 10
31.233302
 20
6.398791
 30
0.0
 10
30.562242
 20
6.058176
 30
0.0
  0
SPLINE
  5
156
100
AcDbEntity
  8
Layer_1
 62
7
100
AcDbSpline
 70
8
 71
3
 72
8
 73
4
 74
0
 40
0
 40
0
 40
0
 40
0
 40
1
 40
1
 40
1
 40
1
 10
30.562242
 20
6.058176
 30
0.0
 10
30.041463
 20
5.793839
 30
0.0
 10
28.943046
 20
5.328243
 30
0.0
 10
28.840213
 20
5.328243
 30
0.0
  0
SPLINE
  5
157
100
AcDbEntity
  8
Layer_1
 62
7
100
AcDbSpline
 70
8
 71
3
 72
8
 73
4
 74
0
 40
0
 40
0
 40
0
 40
0
 40
1
 40
1
 40
1
 40
1
 10
28.840213
 20
5.328243
 30
0.0
 10
28.816139
 20
5.328243
 30
0.0
 10
28.680588
 20
5.480136
 30
0.0
 10
28.539008
 20
5.665782
 30
0.0
  0
LWPOLYLINE
  5
158
100
AcDbEntity
  8
Layer_1
 62
7
100
AcDbPolyline
 90
5
 70
0
 10
33.712875
 20
6.694981
 30
0.0
 10
33.712875
 20
5.855756
 30
0.0
 10
33.281273
 20
5.855756
 30
0.0
 10
32.849670
 20
5.855756
 30
0.0
 10
32.849670
 20
6.694981
 30
0.0
  0
SPLINE
  5
159
100
AcDbEntity
  8
Layer_1
 62
7
100
AcDbSpline
 70
8
 71
3
 72
8
 73
4
 74
0
 40
0
 40
0
 40
0
 40
0
 40
1
 40
1
 40
1
 40
1
 10
32.250228
 20
0.080125
 30
0.0
 10
32.197477
 20
0.092175
 30
0.0
 10
32.040943
 20
0.124969
 30
0.0
 10
31.902375
 20
0.152998
 30
0.0
  0
SPLINE
  5
15a
100
AcDbEntity
  8
Layer_1
 62
7
100
AcDbSpline
 70
8
 71
3
 72
8
 73
4
 74
0
 40
0
 40
0
 40
0
 40
0
 40
1
 40
1
 40
1
 40
1
 10
31.902375
 20
0.152998
 30
0.0
 10
31.612507
 20
0.211631
 30
0.0
 10
31.580246
 20
0.254817
 30
0.0
 10
31.532514
 20
0.648112
 30
0.0
  0
SPLINE
  5
15b
100
AcDbEntity
  8
Layer_1
 62
7
100
AcDbSpline
 70
8
 71
3
 72
8
 73
4
 74
0
 40
0
 40
0
 40
0
 40
0
 40
1
 40
1
 40
1
 40
1
 10
31.532514
 20
0.648112
 30
0.0
 10
31.513605
 20
0.803907
 30
0.0
 10
31.488103
 20
0.957517
 30
0.0
 10
31.475841
 20
0.989467
 30
0.0
  0
SPLINE
  5
15c
100
AcDbEntity
  8
Layer_1
 62
7
100
AcDbSpline
 70
8
 71
3
 72
8
 73
4
 74
0
 40
0
 40
0
 40
0
 40
0
 40
1
 40
1
 40
1
 40
1
 10
31.475841
 20
0.989467
 30
0.0
 10
31.458936
 20
1.033493
 30
0.0
 10
31.514796
 20
1.031672
 30
0.0
 10
31.706484
 20
0.981949
 30
0.0
  0
SPLINE
  5
15d
100
AcDbEntity
  8
Layer_1
 62
7
100
AcDbSpline
 70
8
 71
3
 72
8
 73
4
 74
0
 40
0
 40
0
 40
0
 40
0
 40
1
 40
1
 40
1
 40
1
 10
31.706484
 20
0.981949
 30
0.0
 10
32.024757
 20
0.899390
 30
0.0
 10
32.856046
 20
0.893938
 30
0.0
 10
32.935994
 20
0.973886
 30
0.0
  0
SPLINE
  5
15e
100
AcDbEntity
  8
Layer_1
 62
7
100
AcDbSpline
 70
8
 71
3
 72
8
 73
4
 74
0
 40
0
 40
0
 40
0
 40
0
 40
1
 40
1
 40
1
 40
1
 10
32.935994
 20
0.973886
 30
0.0
 10
32.974252
 20
1.012142
 30
0.0
 10
32.993542
 20
1.221124
 30
0.0
 10
32.993542
 20
1.597311
 30
0.0
  0
LWPOLYLINE
  5
15f
100
AcDbEntity
  8
Layer_1
 62
7
100
AcDbPolyline
 90
2
 70
0
 10
28.539008
 20
5.665782
 30
0.0
 10
28.539011
 20
5.665806
 30
0.0
  0
SPLINE
  5
160
100
AcDbEntity
  8
Layer_1
 62
7
100
AcDbSpline
 70
8
 71
3
 72
8
 73
4
 74
0
 40
0
 40
0
 40
0
 40
0
 40
1
 40
1
 40
1
 40
1
 10
34.001343
 20
4.152981
 30
0.0
 10
34.554699
 20
4.390159
 30
0.0
 10
35.007448
 20
4.600564
 30
0.0
 10
35.007448
 20
4.620549
 30
0.0
  0
SPLINE
  5
161
100
AcDbEntity
  8
Layer_1
 62
7
100
AcDbSpline
 70
8
 71
3
 72
8
 73
4
 74
0
 40
0
 40
0
 40
0
 40
0
 40
1
 40
1
 40
1
 40
1
 10
35.007448
 20
4.620549
 30
0.0
 10
35.007448
 20
4.640533
 30
0.0
 10
33.874493
 20
4.656886
 30
0.0
 10
32.489772
 20
4.656886
 30
0.0
  0
LWPOLYLINE
  5
162
100
AcDbEntity
  8
Layer_1
 62
7
100
AcDbPolyline
 90
11
 70
0
 10
32.993542
 20
1.597311
 30
0.0
 10
32.993542
 20
2.163188
 30
0.0
 10
30.619734
 20
2.163188
 30
0.0
 10
28.245923
 20
2.163188
 30
0.0
 10
28.245923
 20
2.570812
 30
0.0
 10
28.245923
 20
2.978436
 30
0.0
 10
30.619734
 20
2.978436
 30
0.0
 10
32.993542
 20
2.978436
 30
0.0
 10
32.994388
 20
3.350092
 30
0.0
 10
32.995235
 20
3.721749
 30
0.0
 10
34.001343
 20
4.152981
 30
0.0
  0
SPLINE
  5
163
100
AcDbEntity
  8
Layer_1
 62
7
100
AcDbSpline
 70
8
 71
3
 72
8
 73
4
 74
0
 40
0
 40
0
 40
0
 40
0
 40
1
 40
1
 40
1
 40
1
 10
35.837173
 20
4.214230
 30
0.0
 10
35.449499
 20
4.026986
 30
0.0
 10
34.861444
 20
3.762052
 30
0.0
 10
34.530380
 20
3.625490
 30
0.0
  0
LWPOLYLINE
  5
164
100
AcDbEntity
  8
Layer_1
 62
7
100
AcDbPolyline
 90
9
 70
0
 10
32.489772
 20
4.656886
 30
0.0
 10
29.972096
 20
4.656886
 30
0.0
 10
29.972096
 20
5.040532
 30
0.0
 10
29.972096
 20
5.424178
 30
0.0
 10
33.257064
 20
5.424178
 30
0.0
 10
36.542032
 20
5.424178
 30
0.0
 10
36.542032
 20
4.989426
 30
0.0
 10
36.542032
 20
4.554675
 30
0.0
 10
35.837173
 20
4.214230
 30
0.0
  0
SPLINE
  5
165
100
AcDbEntity
  8
Layer_1
 62
7
100
AcDbSpline
 70
8
 71
3
 72
8
 73
4
 74
0
 40
0
 40
0
 40
0
 40
0
 40
1
 40
1
 40
1
 40
1
 10
33.903313
 20
1.551753
 30
0.0
 10
33.901620
 20
0.597057
 30
0.0
 10
33.818872
 20
0.381473
 30
0.0
 10
33.379162
 20
0.183910
 30
0.0
  0
SPLINE
  5
166
100
AcDbEntity
  8
Layer_1
 62
7
100
AcDbSpline
 70
8
 71
3
 72
8
 73
4
 74
0
 40
0
 40
0
 40
0
 40
0
 40
1
 40
1
 40
1
 40
1
 10
33.379162
 20
0.183910
 30
0.0
 10
33.170989
 20
0.090377
 30
0.0
 10
32.482242
 20
0.027071
 30
0.0
 10
32.250013
 20
0.080125
 30
0.0
  0
LWPOLYLINE
  5
167
100
AcDbEntity
  8
Layer_1
 62
7
100
AcDbPolyline
 90
11
 70
0
 10
34.530380
 20
3.625490
 30
0.0
 10
33.928445
 20
3.377194
 30
0.0
 10
33.913685
 20
3.177815
 30
0.0
 10
33.898925
 20
2.978436
 30
0.0
 10
36.107647
 20
2.978436
 30
0.0
 10
38.316368
 20
2.978436
 30
0.0
 10
38.316368
 20
2.570812
 30
0.0
 10
38.316368
 20
2.163188
 30
0.0
 10
36.110404
 20
2.163188
 30
0.0
 10
33.904442
 20
2.163188
 30
0.0
 10
33.903313
 20
1.551753
 30
0.0
  0
SPLINE
  5
168
100
AcDbEntity
  8
Layer_1
 62
7
100
AcDbSpline
 70
8
 71
3
 72
8
 73
4
 74
0
 40
0
 40
0
 40
0
 40
0
 40
1
 40
1
 40
1
 40
1
 10
30.129398
 20
13.924331
 30
0.0
 10
30.103829
 20
13.957300
 30
0.0
 10
30.012634
 20
14.114146
 30
0.0
 10
29.926748
 20
14.272877
 30
0.0
  0
LWPOLYLINE
  5
169
100
AcDbEntity
  8
Layer_1
 62
7
100
AcDbPolyline
 90
3
 70
0
 10
32.250013
 20
0.080125
 30
0.0
 10
32.250016
 20
0.080125
 30
0.0
 10
32.250228
 20
0.080125
 30
0.0
  0
SPLINE
  5
16a
100
AcDbEntity
  8
Layer_1
 62
7
100
AcDbSpline
 70
8
 71
3
 72
8
 73
4
 74
0
 40
0
 40
0
 40
0
 40
0
 40
1
 40
1
 40
1
 40
1
 10
30.175302
 20
14.968235
 30
0.0
 10
31.121497
 20
15.919230
 30
0.0
 10
31.420266
 20
16.916929
 30
0.0
 10
31.535723
 20
19.511173
 30
0.0
  0
LWPOLYLINE
  5
16b
100
AcDbEntity
  8
Layer_1
 62
7
100
AcDbPolyline
 90
3
 70
0
 10
29.926748
 20
14.272877
 30
0.0
 10
29.770598
 20
14.561480
 30
0.0
 10
30.175302
 20
14.968235
 30
0.0
  0
SPLINE
  5
16c
100
AcDbEntity
  8
Layer_1
 62
7
100
AcDbSpline
 70
8
 71
3
 72
8
 73
4
 74
0
 40
0
 40
0
 40
0
 40
0
 40
1
 40
1
 40
1
 40
1
 10
32.322048
 20
19.702996
 30
0.0
 10
32.321904
 20
19.033060
 30
0.0
 10
32.249195
 20
18.030690
 30
0.0
 10
32.151966
 20
17.358199
 30
0.0
  0
SPLINE
  5
16d
100
AcDbEntity
  8
Layer_1
 62
7
100
AcDbSpline
 70
8
 71
3
 72
8
 73
4
 74
0
 40
0
 40
0
 40
0
 40
0
 40
1
 40
1
 40
1
 40
1
 10
32.151966
 20
17.358199
 30
0.0
 10
31.934881
 20
15.856708
 30
0.0
 10
31.426531
 20
14.840192
 30
0.0
 10
30.528268
 20
14.111392
 30
0.0
  0
SPLINE
  5
16e
100
AcDbEntity
  8
Layer_1
 62
7
100
AcDbSpline
 70
8
 71
3
 72
8
 73
4
 74
0
 40
0
 40
0
 40
0
 40
0
 40
1
 40
1
 40
1
 40
1
 10
30.528268
 20
14.111392
 30
0.0
 10
30.360826
 20
13.975539
 30
0.0
 10
30.213043
 20
13.864386
 30
0.0
 10
30.199863
 20
13.864386
 30
0.0
  0
SPLINE
  5
16f
100
AcDbEntity
  8
Layer_1
 62
7
100
AcDbSpline
 70
8
 71
3
 72
8
 73
4
 74
0
 40
0
 40
0
 40
0
 40
0
 40
1
 40
1
 40
1
 40
1
 10
30.199863
 20
13.864386
 30
0.0
 10
30.186684
 20
13.864386
 30
0.0
 10
30.154973
 20
13.891361
 30
0.0
 10
30.129398
 20
13.924331
 30
0.0
  0
LWPOLYLINE
  5
170
100
AcDbEntity
  8
Layer_1
 62
7
100
AcDbPolyline
 90
5
 70
0
 10
31.535723
 20
19.511173
 30
0.0
 10
31.568271
 20
20.242498
 30
0.0
 10
31.945216
 20
20.242498
 30
0.0
 10
32.322160
 20
20.242498
 30
0.0
 10
32.322048
 20
19.702996
 30
0.0
  0
SPLINE
  5
171
100
AcDbEntity
  8
Layer_1
 62
7
100
AcDbSpline
 70
8
 71
3
 72
8
 73
4
 74
0
 40
0
 40
0
 40
0
 40
0
 40
1
 40
1
 40
1
 40
1
 10
34.655458
 20
14.590959
 30
0.0
 10
34.354296
 20
14.648597
 30
0.0
 10
34.208633
 20
14.747614
 30
0.0
 10
34.093760
 20
14.972783
 30
0.0
  0
SPLINE
  5
172
100
AcDbEntity
  8
Layer_1
 62
7
100
AcDbSpline
 70
8
 71
3
 72
8
 73
4
 74
0
 40
0
 40
0
 40
0
 40
0
 40
1
 40
1
 40
1
 40
1
 10
34.093760
 20
14.972783
 30
0.0
 10
34.004998
 20
15.146771
 30
0.0
 10
34.000612
 20
15.275152
 30
0.0
 10
34.000612
 20
17.698934
 30
0.0
  0
LWPOLYLINE
  5
173
100
AcDbEntity
  8
Layer_1
 62
7
100
AcDbPolyline
 90
2
 70
0
 10
30.129398
 20
13.924331
 30
0.0
 10
30.129398
 20
13.924331
 30
0.0
  0
SPLINE
  5
174
100
AcDbEntity
  8
Layer_1
 62
7
100
AcDbSpline
 70
8
 71
3
 72
8
 73
4
 74
0
 40
0
 40
0
 40
0
 40
0
 40
1
 40
1
 40
1
 40
1
 10
34.768750
 20
17.880678
 30
0.0
 10
34.769033
 20
16.581677
 30
0.0
 10
34.785345
 20
15.495114
 30
0.0
 10
34.804717
 20
15.466093
 30
0.0
  0
SPLINE
  5
175
100
AcDbEntity
  8
Layer_1
 62
7
100
AcDbSpline
 70
8
 71
3
 72
8
 73
4
 74
0
 40
0
 40
0
 40
0
 40
0
 40
1
 40
1
 40
1
 40
1
 10
34.804717
 20
15.466093
 30
0.0
 10
34.894610
 20
15.331465
 30
0.0
 10
35.095067
 20
15.284461
 30
0.0
 10
35.583264
 20
15.283532
 30
0.0
  0
SPLINE
  5
176
100
AcDbEntity
  8
Layer_1
 62
7
100
AcDbSpline
 70
8
 71
3
 72
8
 73
4
 74
0
 40
0
 40
0
 40
0
 40
0
 40
1
 40
1
 40
1
 40
1
 10
35.583264
 20
15.283532
 30
0.0
 10
35.860208
 20
15.282996
 30
0.0
 10
36.168652
 20
15.299125
 30
0.0
 10
36.268697
 20
15.319354
 30
0.0
  0
LWPOLYLINE
  5
177
100
AcDbEntity
  8
Layer_1
 62
7
100
AcDbPolyline
 90
5
 70
0
 10
34.000612
 20
17.698934
 30
0.0
 10
34.000612
 20
20.242498
 30
0.0
 10
34.384257
 20
20.242498
 30
0.0
 10
34.767904
 20
20.242498
 30
0.0
 10
34.768750
 20
17.880678
 30
0.0
  0
SPLINE
  5
178
100
AcDbEntity
  8
Layer_1
 62
7
100
AcDbSpline
 70
8
 71
3
 72
8
 73
4
 74
0
 40
0
 40
0
 40
0
 40
0
 40
1
 40
1
 40
1
 40
1
 10
36.230664
 20
14.575175
 30
0.0
 10
35.960600
 20
14.527475
 30
0.0
 10
34.933498
 20
14.537767
 30
0.0
 10
34.655565
 20
14.590959
 30
0.0
  0
LWPOLYLINE
  5
179
100
AcDbEntity
  8
Layer_1
 62
7
100
AcDbPolyline
 90
5
 70
0
 10
36.268697
 20
15.319354
 30
0.0
 10
36.450595
 20
15.356134
 30
0.0
 10
36.436540
 20
14.982595
 30
0.0
 10
36.422485
 20
14.609056
 30
0.0
 10
36.230664
 20
14.575175
 30
0.0
  0
LWPOLYLINE
  5
17a
100
AcDbEntity
  8
Layer_1
 62
7
100
AcDbPolyline
 90
3
 70
0
 10
34.655565
 20
14.590959
 30
0.0
 10
34.655568
 20
14.590959
 30
0.0
 10
34.655458
 20
14.590959
 30
0.0
  0
LWPOLYLINE
  5
17b
100
AcDbEntity
  8
Layer_1
 62
7
100
AcDbPolyline
 90
18
 70
0
 10
28.677526
 20
16.238195
 30
0.0
 10
28.677526
 20
21.105701
 30
0.0
 10
33.281276
 20
21.105701
 30
0.0
 10
37.885026
 20
21.105701
 30
0.0
 10
37.885026
 20
16.238195
 30
0.0
 10
37.885026
 20
11.370688
 30
0.0
 10
37.477401
 20
11.370688
 30
0.0
 10
37.069779
 20
11.370688
 30
0.0
 10
37.069779
 20
11.658422
 30
0.0
 10
37.069779
 20
11.946157
 30
0.0
 10
33.305253
 20
11.946157
 30
0.0
 10
29.540728
 20
11.946157
 30
0.0
 10
29.540728
 20
11.658422
 30
0.0
 10
29.540728
 20
11.370688
 30
0.0
 10
29.109128
 20
11.370688
 30
0.0
 10
28.677526
 20
11.370688
 30
0.0
 10
28.677526
 20
16.238195
 30
0.0
 10
28.677526
 20
16.238195
 30
0.0
  0
LWPOLYLINE
  5
17c
100
AcDbEntity
  8
Layer_1
 62
7
100
AcDbPolyline
 90
26
 70
0
 10
37.069779
 20
16.525929
 30
0.0
 10
37.069779
 20
20.290454
 30
0.0
 10
35.942820
 20
20.290454
 30
0.0
 10
34.815859
 20
20.290454
 30
0.0
 10
34.815859
 20
20.506254
 30
0.0
 10
34.815859
 20
20.722055
 30
0.0
 10
34.384257
 20
20.722055
 30
0.0
 10
33.952657
 20
20.722055
 30
0.0
 10
33.952657
 20
20.506254
 30
0.0
 10
33.952657
 20
20.290454
 30
0.0
 10
33.161388
 20
20.290454
 30
0.0
 10
32.370118
 20
20.290454
 30
0.0
 10
32.370118
 20
20.506254
 30
0.0
 10
32.370118
 20
20.722055
 30
0.0
 10
31.938516
 20
20.722055
 30
0.0
 10
31.506914
 20
20.722055
 30
0.0
 10
31.506914
 20
20.506254
 30
0.0
 10
31.506914
 20
20.290454
 30
0.0
 10
30.523821
 20
20.290454
 30
0.0
 10
29.540728
 20
20.290454
 30
0.0
 10
29.540728
 20
16.525929
 30
0.0
 10
29.540728
 20
12.761404
 30
0.0
 10
33.305253
 20
12.761404
 30
0.0
 10
37.069779
 20
12.761404
 30
0.0
 10
37.069779
 20
16.525929
 30
0.0
 10
37.069779
 20
16.525929
 30
0.0
  0
ENDSEC
  0
SECTION
  2
OBJECTS
  0
DICTIONARY
  5
C
330
0
100
AcDbDictionary
  3
ACAD_GROUP
350
D
  3
ACAD_MLINESTYLE
350
17
  0
DICTIONARY
  5
D
330
C
100
AcDbDictionary
  0
DICTIONARY
  5
1A
330
C
100
AcDbDictionary
  0
DICTIONARY
  5
17
330
C
100
AcDbDictionary
  3
STANDARD
350
18
  0
DICTIONARY
  5
19
330
C
100
AcDbDictionary
  0
ENDSEC
  0
EOF
