  0
SECTION
  2
HEADER
  9
$ACADVER
  1
AC1014
  9
$HANDSEED
  5
FFFF
  9
$MEASUREMENT
 70
     1
  0
ENDSEC
  0
SECTION
  2
TABLES
  0
TABLE
  2
VPORT
  5
8
330
0
100
AcDbSymbolTable
 70
     4
  0
VPORT
  5
2E
330
8
100
AcDbSymbolTableRecord
100
AcDbViewportTableRecord
  2
*ACTIVE
 70
     0
 10
0.0
 20
0.0
 11
1.0
 21
1.0
 12
210.0
 22
148.5
 13
0.0
 23
0.0
 14
10.0
 24
10.0
 15
10.0
 25
10.0
 16
0.0
 26
0.0
 36
1.0
 17
0.0
 27
0.0
 37
0.0
 40
341.0
 41
1.24
 42
50.0
 43
0.0
 44
0.0
 50
0.0
 51
0.0
 71
     0
 72
   100
 73
     1
 74
     3
 75
     0
 76
     0
 77
     0
 78
     0
  0
ENDTAB
  0
TABLE
  2
LTYPE
  5
5
330
0
100
AcDbSymbolTable
 70
     1
  0
LTYPE
  5
14
330
5
100
AcDbSymbolTableRecord
100
AcDbLinetypeTableRecord
  2
BYBLOCK
 70
     0
  3

 72
    65
 73
     0
 40
0.0
  0
LTYPE
  5
15
330
5
100
AcDbSymbolTableRecord
100
AcDbLinetypeTableRecord
  2
BYLAYER
 70
     0
  3

 72
    65
 73
     0
 40
0.0
  0
LTYPE
  5
16
330
5
100
AcDbSymbolTableRecord
100
AcDbLinetypeTableRecord
  2
CONTINUOUS
 70
     0
  3
Solid line
 72
    65
 73
     0
 40
0.0
  0
ENDTAB
  0
TABLE
  2
LAYER
  5
2
100
AcDbSymbolTable
 70
2
  0
LAYER
  5
50
100
AcDbSymbolTableRecord
100
AcDbLayerTableRecord
  2
0
 70
0
  6
CONTINUOUS
  0
LAYER
  5
51
100
AcDbSymbolTableRecord
100
AcDbLayerTableRecord
  2
Layer_1
 70
0
  6
CONTINUOUS
  0
ENDTAB
  0
TABLE
  2
STYLE
  5
3
330
0
100
AcDbSymbolTable
 70
     1
  0
STYLE
  5
11
330
3
100
AcDbSymbolTableRecord
100
AcDbTextStyleTableRecord
  2
STANDARD
 70
     0
 40
0.0
 41
1.0
 50
0.0
 71
     0
 42
2.5
  3
txt
  4

  0
ENDTAB
  0
TABLE
  2
VIEW
  5
6
330
0
100
AcDbSymbolTable
 70
     0
  0
ENDTAB
  0
TABLE
  2
UCS
  5
7
330
0
100
AcDbSymbolTable
 70
     0
  0
ENDTAB
  0
TABLE
  2
APPID
  5
9
330
0
100
AcDbSymbolTable
 70
     2
  0
APPID
  5
12
330
9
100
AcDbSymbolTableRecord
100
AcDbRegAppTableRecord
  2
ACAD
 70
     0
  0
ENDTAB
  0
TABLE
  2
DIMSTYLE
  5
A
330
0
100
AcDbSymbolTable
 70
     1
  0
DIMSTYLE
105
27
330
A
100
AcDbSymbolTableRecord
100
AcDbDimStyleTableRecord
  2
ISO-25
 70
     0
  3

  4

  5

  6

  7

 40
1.0
 41
2.5
 42
0.625
 43
3.75
 44
1.25
 45
0.0
 46
0.0
 47
0.0
 48
0.0
140
2.5
141
2.5
142
0.0
143
0.03937007874016
144
1.0
145
0.0
146
1.0
147
0.625
 71
     0
 72
     0
 73
     0
 74
     0
 75
     0
 76
     0
 77
     1
 78
     8
170
     0
171
     3
172
     1
173
     0
174
     0
175
     0
176
     0
177
     0
178
     0
270
     2
271
     2
272
     2
273
     2
274
     3
340
11
275
     0
280
     0
281
     0
282
     0
283
     0
284
     8
285
     0
286
     0
287
     3
288
     0
  0
ENDTAB
  0
TABLE
  2
BLOCK_RECORD
  5
1
330
0
100
AcDbSymbolTable
 70
     1
  0
BLOCK_RECORD
  5
1F
330
1
100
AcDbSymbolTableRecord
100
AcDbBlockTableRecord
  2
*MODEL_SPACE
  0
BLOCK_RECORD
  5
1B
330
1
100
AcDbSymbolTableRecord
100
AcDbBlockTableRecord
  2
*PAPER_SPACE
  0
ENDTAB
  0
ENDSEC
  0
SECTION
  2
BLOCKS
  0
BLOCK
  5
20
330
1F
100
AcDbEntity
  8
0
100
AcDbBlockBegin
  2
*MODEL_SPACE
 70
     0
 10
0.0
 20
0.0
 30
0.0
  3
*MODEL_SPACE
  1

  0
ENDBLK
  5
21
330
1F
100
AcDbEntity
  8
0
100
AcDbBlockEnd
  0
BLOCK
  5
1C
330
1B
100
AcDbEntity
 67
     1
  8
0
100
AcDbBlockBegin
  2
*PAPER_SPACE
  1

  0
ENDBLK
  5
1D
330
1B
100
AcDbEntity
 67
     1
  8
0
100
AcDbBlockEnd
  0
ENDSEC
  0
SECTION
  2
ENTITIES
  0
SPLINE
  5
100
100
AcDbEntity
  8
Layer_1
 62
7
100
AcDbSpline
 70
8
 71
3
 72
8
 73
4
 74
0
 40
0
 40
0
 40
0
 40
0
 40
1
 40
1
 40
1
 40
1
 10
3.763600
 20
11.640536
 30
0.0
 10
3.685941
 20
12.162681
 30
0.0
 10
3.677588
 20
12.137667
 30
0.0
 10
3.914316
 20
12.091872
 30
0.0
  0
SPLINE
  5
101
100
AcDbEntity
  8
Layer_1
 62
7
100
AcDbSpline
 70
8
 71
3
 72
8
 73
4
 74
0
 40
0
 40
0
 40
0
 40
0
 40
1
 40
1
 40
1
 40
1
 10
3.914316
 20
12.091872
 30
0.0
 10
4.296325
 20
12.017970
 30
0.0
 10
4.615612
 20
12.038762
 30
0.0
 10
4.721268
 20
12.144418
 30
0.0
  0
SPLINE
  5
102
100
AcDbEntity
  8
Layer_1
 62
7
100
AcDbSpline
 70
8
 71
3
 72
8
 73
4
 74
0
 40
0
 40
0
 40
0
 40
0
 40
1
 40
1
 40
1
 40
1
 10
4.721268
 20
12.144418
 30
0.0
 10
4.810129
 20
12.233279
 30
0.0
 10
4.817621
 20
12.305005
 30
0.0
 10
4.817621
 20
13.066926
 30
0.0
  0
SPLINE
  5
103
100
AcDbEntity
  8
Layer_1
 62
7
100
AcDbSpline
 70
8
 71
3
 72
8
 73
4
 74
0
 40
0
 40
0
 40
0
 40
0
 40
1
 40
1
 40
1
 40
1
 10
4.251550
 20
13.862107
 30
0.0
 10
3.940211
 20
13.845072
 30
0.0
 10
3.088285
 20
13.816833
 30
0.0
 10
2.358380
 20
13.799355
 30
0.0
  0
LWPOLYLINE
  5
104
100
AcDbEntity
  8
Layer_1
 62
7
100
AcDbPolyline
 90
3
 70
0
 10
4.817621
 20
13.066926
 30
0.0
 10
4.817621
 20
13.893080
 30
0.0
 10
4.251550
 20
13.862107
 30
0.0
  0
SPLINE
  5
105
100
AcDbEntity
  8
Layer_1
 62
7
100
AcDbSpline
 70
8
 71
3
 72
8
 73
4
 74
0
 40
0
 40
0
 40
0
 40
0
 40
1
 40
1
 40
1
 40
1
 10
0.972787
 20
14.143818
 30
0.0
 10
0.940616
 20
14.350751
 30
0.0
 10
0.925262
 20
14.531026
 30
0.0
 10
0.938666
 20
14.544431
 30
0.0
  0
SPLINE
  5
106
100
AcDbEntity
  8
Layer_1
 62
7
100
AcDbSpline
 70
8
 71
3
 72
8
 73
4
 74
0
 40
0
 40
0
 40
0
 40
0
 40
1
 40
1
 40
1
 40
1
 10
0.938666
 20
14.544431
 30
0.0
 10
0.952071
 20
14.557836
 30
0.0
 10
1.282917
 20
14.660657
 30
0.0
 10
1.673880
 20
14.772925
 30
0.0
  0
SPLINE
  5
107
100
AcDbEntity
  8
Layer_1
 62
7
100
AcDbSpline
 70
8
 71
3
 72
8
 73
4
 74
0
 40
0
 40
0
 40
0
 40
0
 40
1
 40
1
 40
1
 40
1
 10
1.673880
 20
14.772925
 30
0.0
 10
2.753502
 20
15.082945
 30
0.0
 10
4.299605
 20
15.665418
 30
0.0
 10
4.229357
 20
15.735665
 30
0.0
  0
SPLINE
  5
108
100
AcDbEntity
  8
Layer_1
 62
7
100
AcDbSpline
 70
8
 71
3
 72
8
 73
4
 74
0
 40
0
 40
0
 40
0
 40
0
 40
1
 40
1
 40
1
 40
1
 10
4.229357
 20
15.735665
 30
0.0
 10
4.216149
 20
15.748873
 30
0.0
 10
3.849901
 20
15.738759
 30
0.0
 10
3.415472
 20
15.713184
 30
0.0
  0
SPLINE
  5
109
100
AcDbEntity
  8
Layer_1
 62
7
100
AcDbSpline
 70
8
 71
3
 72
8
 73
4
 74
0
 40
0
 40
0
 40
0
 40
0
 40
1
 40
1
 40
1
 40
1
 10
3.415472
 20
15.713184
 30
0.0
 10
2.981044
 20
15.687611
 30
0.0
 10
2.406365
 20
15.654717
 30
0.0
 10
2.138409
 20
15.640088
 30
0.0
  0
LWPOLYLINE
  5
10a
100
AcDbEntity
  8
Layer_1
 62
7
100
AcDbPolyline
 90
3
 70
0
 10
2.358380
 20
13.799355
 30
0.0
 10
1.031280
 20
13.767576
 30
0.0
 10
0.972787
 20
14.143818
 30
0.0
  0
SPLINE
  5
10b
100
AcDbEntity
  8
Layer_1
 62
7
100
AcDbSpline
 70
8
 71
3
 72
8
 73
4
 74
0
 40
0
 40
0
 40
0
 40
0
 40
1
 40
1
 40
1
 40
1
 10
1.596159
 20
15.887633
 30
0.0
 10
1.565878
 20
16.038414
 30
0.0
 10
1.557482
 20
16.177073
 30
0.0
 10
1.577502
 20
16.195765
 30
0.0
  0
SPLINE
  5
10c
100
AcDbEntity
  8
Layer_1
 62
7
100
AcDbSpline
 70
8
 71
3
 72
8
 73
4
 74
0
 40
0
 40
0
 40
0
 40
0
 40
1
 40
1
 40
1
 40
1
 10
1.577502
 20
16.195765
 30
0.0
 10
1.597522
 20
16.214457
 30
0.0
 10
1.771016
 20
16.295967
 30
0.0
 10
1.963044
 20
16.376898
 30
0.0
  0
SPLINE
  5
10d
100
AcDbEntity
  8
Layer_1
 62
7
100
AcDbSpline
 70
8
 71
3
 72
8
 73
4
 74
0
 40
0
 40
0
 40
0
 40
0
 40
1
 40
1
 40
1
 40
1
 10
1.963044
 20
16.376898
 30
0.0
 10
2.431619
 20
16.574381
 30
0.0
 10
2.927605
 20
16.868660
 30
0.0
 10
3.264723
 20
17.149213
 30
0.0
  0
LWPOLYLINE
  5
10e
100
AcDbEntity
  8
Layer_1
 62
7
100
AcDbPolyline
 90
3
 70
0
 10
2.138409
 20
15.640088
 30
0.0
 10
1.651215
 20
15.613488
 30
0.0
 10
1.596159
 20
15.887633
 30
0.0
  0
SPLINE
  5
10f
100
AcDbEntity
  8
Layer_1
 62
7
100
AcDbSpline
 70
8
 71
3
 72
8
 73
4
 74
0
 40
0
 40
0
 40
0
 40
0
 40
1
 40
1
 40
1
 40
1
 10
4.083710
 20
16.984457
 30
0.0
 10
3.963678
 20
16.879389
 30
0.0
 10
3.657075
 20
16.665036
 30
0.0
 10
3.402370
 20
16.508119
 30
0.0
  0
SPLINE
  5
110
100
AcDbEntity
  8
Layer_1
 62
7
100
AcDbSpline
 70
8
 71
3
 72
8
 73
4
 74
0
 40
0
 40
0
 40
0
 40
0
 40
1
 40
1
 40
1
 40
1
 10
3.402370
 20
16.508119
 30
0.0
 10
3.147665
 20
16.351202
 30
0.0
 10
2.948274
 20
16.213812
 30
0.0
 10
2.959278
 20
16.202808
 30
0.0
  0
SPLINE
  5
111
100
AcDbEntity
  8
Layer_1
 62
7
100
AcDbSpline
 70
8
 71
3
 72
8
 73
4
 74
0
 40
0
 40
0
 40
0
 40
0
 40
1
 40
1
 40
1
 40
1
 10
2.959278
 20
16.202808
 30
0.0
 10
2.983930
 20
16.178156
 30
0.0
 10
5.057004
 20
16.278289
 30
0.0
 10
5.323471
 20
16.317004
 30
0.0
  0
SPLINE
  5
112
100
AcDbEntity
  8
Layer_1
 62
7
100
AcDbSpline
 70
8
 71
3
 72
8
 73
4
 74
0
 40
0
 40
0
 40
0
 40
0
 40
1
 40
1
 40
1
 40
1
 10
5.323471
 20
16.317004
 30
0.0
 10
5.539167
 20
16.348342
 30
0.0
 10
5.754724
 20
16.462685
 30
0.0
 10
6.373825
 20
16.874164
 30
0.0
  0
LWPOLYLINE
  5
113
100
AcDbEntity
  8
Layer_1
 62
7
100
AcDbPolyline
 90
5
 70
0
 10
3.264723
 20
17.149213
 30
0.0
 10
3.542170
 20
17.380107
 30
0.0
 10
3.922060
 20
17.277799
 30
0.0
 10
4.301949
 20
17.175492
 30
0.0
 10
4.083710
 20
16.984457
 30
0.0
  0
SPLINE
  5
114
100
AcDbEntity
  8
Layer_1
 62
7
100
AcDbSpline
 70
8
 71
3
 72
8
 73
4
 74
0
 40
0
 40
0
 40
0
 40
0
 40
1
 40
1
 40
1
 40
1
 10
7.108512
 20
16.934358
 30
0.0
 10
7.279355
 20
16.812447
 30
0.0
 10
7.419136
 20
16.705881
 30
0.0
 10
7.419136
 20
16.697546
 30
0.0
  0
SPLINE
  5
115
100
AcDbEntity
  8
Layer_1
 62
7
100
AcDbSpline
 70
8
 71
3
 72
8
 73
4
 74
0
 40
0
 40
0
 40
0
 40
0
 40
1
 40
1
 40
1
 40
1
 10
7.419136
 20
16.697546
 30
0.0
 10
7.419136
 20
16.662643
 30
0.0
 10
6.483318
 20
16.086030
 30
0.0
 10
5.995380
 20
15.820286
 30
0.0
  0
SPLINE
  5
116
100
AcDbEntity
  8
Layer_1
 62
7
100
AcDbSpline
 70
8
 71
3
 72
8
 73
4
 74
0
 40
0
 40
0
 40
0
 40
0
 40
1
 40
1
 40
1
 40
1
 10
5.995380
 20
15.820286
 30
0.0
 10
5.096983
 20
15.330995
 30
0.0
 10
4.228116
 20
14.956971
 30
0.0
 10
3.300089
 20
14.660034
 30
0.0
  0
SPLINE
  5
117
100
AcDbEntity
  8
Layer_1
 62
7
100
AcDbSpline
 70
8
 71
3
 72
8
 73
4
 74
0
 40
0
 40
0
 40
0
 40
0
 40
1
 40
1
 40
1
 40
1
 10
3.300089
 20
14.660034
 30
0.0
 10
2.720323
 20
14.474530
 30
0.0
 10
2.560779
 20
14.389310
 30
0.0
 10
2.866484
 20
14.428426
 30
0.0
  0
SPLINE
  5
118
100
AcDbEntity
  8
Layer_1
 62
7
100
AcDbSpline
 70
8
 71
3
 72
8
 73
4
 74
0
 40
0
 40
0
 40
0
 40
0
 40
1
 40
1
 40
1
 40
1
 10
2.866484
 20
14.428426
 30
0.0
 10
2.972471
 20
14.441987
 30
0.0
 10
3.471095
 20
14.465542
 30
0.0
 10
3.974537
 20
14.480768
 30
0.0
  0
SPLINE
  5
119
100
AcDbEntity
  8
Layer_1
 62
7
100
AcDbSpline
 70
8
 71
3
 72
8
 73
4
 74
0
 40
0
 40
0
 40
0
 40
0
 40
1
 40
1
 40
1
 40
1
 10
3.974537
 20
14.480768
 30
0.0
 10
5.459781
 20
14.525690
 30
0.0
 10
7.804596
 20
14.741215
 30
0.0
 10
7.917216
 20
14.843162
 30
0.0
  0
SPLINE
  5
11a
100
AcDbEntity
  8
Layer_1
 62
7
100
AcDbSpline
 70
8
 71
3
 72
8
 73
4
 74
0
 40
0
 40
0
 40
0
 40
0
 40
1
 40
1
 40
1
 40
1
 10
7.917216
 20
14.843162
 30
0.0
 10
7.939438
 20
14.863279
 30
0.0
 10
7.782264
 20
15.026525
 30
0.0
 10
7.567938
 20
15.205931
 30
0.0
  0
SPLINE
  5
11b
100
AcDbEntity
  8
Layer_1
 62
7
100
AcDbSpline
 70
8
 71
3
 72
8
 73
4
 74
0
 40
0
 40
0
 40
0
 40
0
 40
1
 40
1
 40
1
 40
1
 10
7.567938
 20
15.205931
 30
0.0
 10
7.353613
 20
15.385337
 30
0.0
 10
7.178706
 20
15.544924
 30
0.0
 10
7.179258
 20
15.560570
 30
0.0
  0
SPLINE
  5
11c
100
AcDbEntity
  8
Layer_1
 62
7
100
AcDbSpline
 70
8
 71
3
 72
8
 73
4
 74
0
 40
0
 40
0
 40
0
 40
0
 40
1
 40
1
 40
1
 40
1
 10
7.179258
 20
15.560570
 30
0.0
 10
7.179794
 20
15.576217
 30
0.0
 10
7.322288
 20
15.682333
 30
0.0
 10
7.495879
 20
15.796384
 30
0.0
  0
LWPOLYLINE
  5
11d
100
AcDbEntity
  8
Layer_1
 62
7
100
AcDbPolyline
 90
3
 70
0
 10
6.373825
 20
16.874164
 30
0.0
 10
6.797888
 20
17.156014
 30
0.0
 10
7.108512
 20
16.934358
 30
0.0
  0
SPLINE
  5
11e
100
AcDbEntity
  8
Layer_1
 62
7
100
AcDbSpline
 70
8
 71
3
 72
8
 73
4
 74
0
 40
0
 40
0
 40
0
 40
0
 40
1
 40
1
 40
1
 40
1
 10
8.157299
 20
15.724631
 30
0.0
 10
8.656559
 20
15.321644
 30
0.0
 10
9.452108
 20
14.586177
 30
0.0
 10
9.650040
 20
14.344627
 30
0.0
  0
LWPOLYLINE
  5
11f
100
AcDbEntity
  8
Layer_1
 62
7
100
AcDbPolyline
 90
3
 70
0
 10
7.495879
 20
15.796384
 30
0.0
 10
7.811498
 20
16.003751
 30
0.0
 10
8.157299
 20
15.724631
 30
0.0
  0
SPLINE
  5
120
100
AcDbEntity
  8
Layer_1
 62
7
100
AcDbSpline
 70
8
 71
3
 72
8
 73
4
 74
0
 40
0
 40
0
 40
0
 40
0
 40
1
 40
1
 40
1
 40
1
 10
7.929801
 20
14.139989
 30
0.0
 10
7.561492
 20
14.098552
 30
0.0
 10
6.921953
 20
14.038913
 30
0.0
 10
6.508602
 20
14.007458
 30
0.0
  0
LWPOLYLINE
  5
121
100
AcDbEntity
  8
Layer_1
 62
7
100
AcDbPolyline
 90
7
 70
0
 10
9.650040
 20
14.344627
 30
0.0
 10
9.820269
 20
14.136885
 30
0.0
 10
9.480332
 20
13.877639
 30
0.0
 10
9.140395
 20
13.618392
 30
0.0
 10
8.869924
 20
13.916861
 30
0.0
 10
8.599453
 20
14.215330
 30
0.0
 10
7.929801
 20
14.139989
 30
0.0
  0
SPLINE
  5
122
100
AcDbEntity
  8
Layer_1
 62
7
100
AcDbSpline
 70
8
 71
3
 72
8
 73
4
 74
0
 40
0
 40
0
 40
0
 40
0
 40
1
 40
1
 40
1
 40
1
 10
5.728316
 20
12.962067
 30
0.0
 10
5.697476
 20
11.901647
 30
0.0
 10
5.659494
 20
11.699486
 30
0.0
 10
5.454842
 20
11.506474
 30
0.0
  0
SPLINE
  5
123
100
AcDbEntity
  8
Layer_1
 62
7
100
AcDbSpline
 70
8
 71
3
 72
8
 73
4
 74
0
 40
0
 40
0
 40
0
 40
0
 40
1
 40
1
 40
1
 40
1
 10
5.454842
 20
11.506474
 30
0.0
 10
5.268657
 20
11.330880
 30
0.0
 10
5.019083
 20
11.277823
 30
0.0
 10
4.377847
 20
11.277515
 30
0.0
  0
LWPOLYLINE
  5
124
100
AcDbEntity
  8
Layer_1
 62
7
100
AcDbPolyline
 90
3
 70
0
 10
6.508602
 20
14.007458
 30
0.0
 10
5.757057
 20
13.950267
 30
0.0
 10
5.728316
 20
12.962067
 30
0.0
  0
SPLINE
  5
125
100
AcDbEntity
  8
Layer_1
 62
7
100
AcDbSpline
 70
8
 71
3
 72
8
 73
4
 74
0
 40
0
 40
0
 40
0
 40
0
 40
1
 40
1
 40
1
 40
1
 10
0.344048
 20
11.758616
 30
0.0
 10
0.189012
 20
12.105347
 30
0.0
 10
0.184565
 20
12.192594
 30
0.0
 10
0.321930
 20
12.192594
 30
0.0
  0
SPLINE
  5
126
100
AcDbEntity
  8
Layer_1
 62
7
100
AcDbSpline
 70
8
 71
3
 72
8
 73
4
 74
0
 40
0
 40
0
 40
0
 40
0
 40
1
 40
1
 40
1
 40
1
 10
0.321930
 20
12.192594
 30
0.0
 10
0.463807
 20
12.192594
 30
0.0
 10
1.420862
 20
12.535005
 30
0.0
 10
1.858951
 20
12.742502
 30
0.0
  0
SPLINE
  5
127
100
AcDbEntity
  8
Layer_1
 62
7
100
AcDbSpline
 70
8
 71
3
 72
8
 73
4
 74
0
 40
0
 40
0
 40
0
 40
0
 40
1
 40
1
 40
1
 40
1
 10
1.858951
 20
12.742502
 30
0.0
 10
2.099716
 20
12.856539
 30
0.0
 10
2.435549
 20
13.042063
 30
0.0
 10
2.605247
 20
13.154780
 30
0.0
  0
LWPOLYLINE
  5
128
100
AcDbEntity
  8
Layer_1
 62
7
100
AcDbPolyline
 90
4
 70
0
 10
4.377847
 20
11.277515
 30
0.0
 10
3.817633
 20
11.277246
 30
0.0
 10
3.763600
 20
11.640536
 30
0.0
 10
3.763600
 20
11.640536
 30
0.0
  0
SPLINE
  5
129
100
AcDbEntity
  8
Layer_1
 62
7
100
AcDbSpline
 70
8
 71
3
 72
8
 73
4
 74
0
 40
0
 40
0
 40
0
 40
0
 40
1
 40
1
 40
1
 40
1
 10
3.142530
 20
13.101346
 30
0.0
 10
3.268338
 20
12.959241
 30
0.0
 10
3.371510
 20
12.831057
 30
0.0
 10
3.371803
 20
12.816493
 30
0.0
  0
SPLINE
  5
12a
100
AcDbEntity
  8
Layer_1
 62
7
100
AcDbSpline
 70
8
 71
3
 72
8
 73
4
 74
0
 40
0
 40
0
 40
0
 40
0
 40
1
 40
1
 40
1
 40
1
 10
3.371803
 20
12.816493
 30
0.0
 10
3.372790
 20
12.767475
 30
0.0
 10
2.628990
 20
12.301608
 30
0.0
 10
2.240193
 20
12.107724
 30
0.0
  0
SPLINE
  5
12b
100
AcDbEntity
  8
Layer_1
 62
7
100
AcDbSpline
 70
8
 71
3
 72
8
 73
4
 74
0
 40
0
 40
0
 40
0
 40
0
 40
1
 40
1
 40
1
 40
1
 10
2.240193
 20
12.107724
 30
0.0
 10
1.848182
 20
11.912238
 30
0.0
 10
0.845395
 20
11.502596
 30
0.0
 10
0.620990
 20
11.446274
 30
0.0
  0
SPLINE
  5
12c
100
AcDbEntity
  8
Layer_1
 62
7
100
AcDbSpline
 70
8
 71
3
 72
8
 73
4
 74
0
 40
0
 40
0
 40
0
 40
0
 40
1
 40
1
 40
1
 40
1
 10
0.620990
 20
11.446274
 30
0.0
 10
0.505980
 20
11.417408
 30
0.0
 10
0.487085
 20
11.438719
 30
0.0
 10
0.344048
 20
11.758616
 30
0.0
  0
LWPOLYLINE
  5
12d
100
AcDbEntity
  8
Layer_1
 62
7
100
AcDbPolyline
 90
3
 70
0
 10
2.605247
 20
13.154780
 30
0.0
 10
2.913789
 20
13.359719
 30
0.0
 10
3.142530
 20
13.101346
 30
0.0
  0
SPLINE
  5
12e
100
AcDbEntity
  8
Layer_1
 62
7
100
AcDbSpline
 70
8
 71
3
 72
8
 73
4
 74
0
 40
0
 40
0
 40
0
 40
0
 40
1
 40
1
 40
1
 40
1
 10
8.840335
 20
11.783635
 30
0.0
 10
8.314518
 20
12.138464
 30
0.0
 10
7.375860
 20
12.632109
 30
0.0
 10
6.913286
 20
12.797080
 30
0.0
  0
SPLINE
  5
12f
100
AcDbEntity
  8
Layer_1
 62
7
100
AcDbSpline
 70
8
 71
3
 72
8
 73
4
 74
0
 40
0
 40
0
 40
0
 40
0
 40
1
 40
1
 40
1
 40
1
 10
6.913286
 20
12.797080
 30
0.0
 10
6.780801
 20
12.844329
 30
0.0
 10
6.653880
 20
12.899013
 30
0.0
 10
6.631238
 20
12.918599
 30
0.0
  0
SPLINE
  5
130
100
AcDbEntity
  8
Layer_1
 62
7
100
AcDbSpline
 70
8
 71
3
 72
8
 73
4
 74
0
 40
0
 40
0
 40
0
 40
0
 40
1
 40
1
 40
1
 40
1
 10
6.631238
 20
12.918599
 30
0.0
 10
6.608595
 20
12.938186
 30
0.0
 10
6.683600
 20
13.080938
 30
0.0
 10
6.797913
 20
13.235826
 30
0.0
  0
SPLINE
  5
131
100
AcDbEntity
  8
Layer_1
 62
7
100
AcDbSpline
 70
8
 71
3
 72
8
 73
4
 74
0
 40
0
 40
0
 40
0
 40
0
 40
1
 40
1
 40
1
 40
1
 10
6.797913
 20
13.235826
 30
0.0
 10
6.912226
 20
13.390714
 30
0.0
 10
7.009678
 20
13.524103
 30
0.0
 10
7.014472
 20
13.532246
 30
0.0
  0
SPLINE
  5
132
100
AcDbEntity
  8
Layer_1
 62
7
100
AcDbSpline
 70
8
 71
3
 72
8
 73
4
 74
0
 40
0
 40
0
 40
0
 40
0
 40
1
 40
1
 40
1
 40
1
 10
7.014472
 20
13.532246
 30
0.0
 10
7.032453
 20
13.562785
 30
0.0
 10
7.987913
 20
13.184872
 30
0.0
 10
8.358572
 20
13.000613
 30
0.0
  0
SPLINE
  5
133
100
AcDbEntity
  8
Layer_1
 62
7
100
AcDbSpline
 70
8
 71
3
 72
8
 73
4
 74
0
 40
0
 40
0
 40
0
 40
0
 40
1
 40
1
 40
1
 40
1
 10
8.358572
 20
13.000613
 30
0.0
 10
8.716166
 20
12.822849
 30
0.0
 10
9.546046
 20
12.327970
 30
0.0
 10
9.746362
 20
12.173039
 30
0.0
  0
SPLINE
  5
134
100
AcDbEntity
  8
Layer_1
 62
7
100
AcDbSpline
 70
8
 71
3
 72
8
 73
4
 74
0
 40
0
 40
0
 40
0
 40
0
 40
1
 40
1
 40
1
 40
1
 10
9.746362
 20
12.173039
 30
0.0
 10
9.828407
 20
12.109582
 30
0.0
 10
9.820833
 20
12.086129
 30
0.0
 10
9.614193
 20
11.763750
 30
0.0
  0
SPLINE
  5
135
100
AcDbEntity
  8
Layer_1
 62
7
100
AcDbSpline
 70
8
 71
3
 72
8
 73
4
 74
0
 40
0
 40
0
 40
0
 40
0
 40
1
 40
1
 40
1
 40
1
 10
9.614193
 20
11.763750
 30
0.0
 10
9.493633
 20
11.575664
 30
0.0
 10
9.389431
 20
11.422731
 30
0.0
 10
9.382633
 20
11.423900
 30
0.0
  0
SPLINE
  5
136
100
AcDbEntity
  8
Layer_1
 62
7
100
AcDbSpline
 70
8
 71
3
 72
8
 73
4
 74
0
 40
0
 40
0
 40
0
 40
0
 40
1
 40
1
 40
1
 40
1
 10
9.382633
 20
11.423900
 30
0.0
 10
9.375834
 20
11.425057
 30
0.0
 10
9.131801
 20
11.586949
 30
0.0
 10
8.840335
 20
11.783635
 30
0.0
  0
LWPOLYLINE
  5
137
100
AcDbEntity
  8
Layer_1
 62
7
100
AcDbPolyline
 90
2
 70
0
 10
0.344048
 20
11.758616
 30
0.0
 10
0.344048
 20
11.758616
 30
0.0
  0
SPLINE
  5
138
100
AcDbEntity
  8
Layer_1
 62
7
100
AcDbSpline
 70
8
 71
3
 72
8
 73
4
 74
0
 40
0
 40
0
 40
0
 40
0
 40
1
 40
1
 40
1
 40
1
 10
6.537391
 20
17.542238
 30
0.0
 10
6.059106
 20
17.616253
 30
0.0
 10
5.866385
 20
17.769721
 30
0.0
 10
5.779096
 20
18.146086
 30
0.0
  0
SPLINE
  5
139
100
AcDbEntity
  8
Layer_1
 62
7
100
AcDbSpline
 70
8
 71
3
 72
8
 73
4
 74
0
 40
0
 40
0
 40
0
 40
0
 40
1
 40
1
 40
1
 40
1
 10
5.779096
 20
18.146086
 30
0.0
 10
5.754990
 20
18.250022
 30
0.0
 10
5.734750
 20
19.034219
 30
0.0
 10
5.734118
 20
19.888745
 30
0.0
  0
LWPOLYLINE
  5
13a
100
AcDbEntity
  8
Layer_1
 62
7
100
AcDbPolyline
 90
2
 70
0
 10
8.840335
 20
11.783635
 30
0.0
 10
8.840335
 20
11.783635
 30
0.0
  0
SPLINE
  5
13b
100
AcDbEntity
  8
Layer_1
 62
7
100
AcDbSpline
 70
8
 71
3
 72
8
 73
4
 74
0
 40
0
 40
0
 40
0
 40
0
 40
1
 40
1
 40
1
 40
1
 10
6.689738
 20
20.205358
 30
0.0
 10
6.982102
 20
20.263831
 30
0.0
 10
7.856864
 20
20.613271
 30
0.0
 10
8.479005
 20
20.920114
 30
0.0
  0
LWPOLYLINE
  5
13c
100
AcDbEntity
  8
Layer_1
 62
7
100
AcDbPolyline
 90
7
 70
0
 10
5.734118
 20
19.888745
 30
0.0
 10
5.732961
 20
21.442428
 30
0.0
 10
6.142459
 20
21.442428
 30
0.0
 10
6.551957
 20
21.442428
 30
0.0
 10
6.551957
 20
20.810115
 30
0.0
 10
6.551957
 20
20.177802
 30
0.0
 10
6.689738
 20
20.205358
 30
0.0
  0
SPLINE
  5
13d
100
AcDbEntity
  8
Layer_1
 62
7
100
AcDbSpline
 70
8
 71
3
 72
8
 73
4
 74
0
 40
0
 40
0
 40
0
 40
0
 40
1
 40
1
 40
1
 40
1
 10
9.273913
 20
21.129082
 30
0.0
 10
9.353404
 20
21.067590
 30
0.0
 10
9.494319
 20
20.950553
 30
0.0
 10
9.587058
 20
20.869000
 30
0.0
  0
SPLINE
  5
13e
100
AcDbEntity
  8
Layer_1
 62
7
100
AcDbSpline
 70
8
 71
3
 72
8
 73
4
 74
0
 40
0
 40
0
 40
0
 40
0
 40
1
 40
1
 40
1
 40
1
 10
9.587058
 20
20.869000
 30
0.0
 10
9.752319
 20
20.723672
 30
0.0
 10
9.753760
 20
20.719234
 30
0.0
 10
9.659479
 20
20.646029
 30
0.0
  0
SPLINE
  5
13f
100
AcDbEntity
  8
Layer_1
 62
7
100
AcDbSpline
 70
8
 71
3
 72
8
 73
4
 74
0
 40
0
 40
0
 40
0
 40
0
 40
1
 40
1
 40
1
 40
1
 10
9.659479
 20
20.646029
 30
0.0
 10
9.490135
 20
20.514541
 30
0.0
 10
8.567008
 20
20.060145
 30
0.0
 10
8.069507
 20
19.863390
 30
0.0
  0
SPLINE
  5
140
100
AcDbEntity
  8
Layer_1
 62
7
100
AcDbSpline
 70
8
 71
3
 72
8
 73
4
 74
0
 40
0
 40
0
 40
0
 40
0
 40
1
 40
1
 40
1
 40
1
 10
8.069507
 20
19.863390
 30
0.0
 10
7.572246
 20
19.666729
 30
0.0
 10
7.491270
 20
19.639332
 30
0.0
 10
6.901234
 20
19.468120
 30
0.0
  0
LWPOLYLINE
  5
141
100
AcDbEntity
  8
Layer_1
 62
7
100
AcDbPolyline
 90
3
 70
0
 10
8.479005
 20
20.920114
 30
0.0
 10
9.129384
 20
21.240884
 30
0.0
 10
9.273913
 20
21.129082
 30
0.0
  0
SPLINE
  5
142
100
AcDbEntity
  8
Layer_1
 62
7
100
AcDbSpline
 70
8
 71
3
 72
8
 73
4
 74
0
 40
0
 40
0
 40
0
 40
0
 40
1
 40
1
 40
1
 40
1
 10
6.551957
 20
18.894515
 30
0.0
 10
6.551957
 20
18.206167
 30
0.0
 10
6.488183
 20
18.238437
 30
0.0
 10
7.845801
 20
18.239823
 30
0.0
  0
SPLINE
  5
143
100
AcDbEntity
  8
Layer_1
 62
7
100
AcDbSpline
 70
8
 71
3
 72
8
 73
4
 74
0
 40
0
 40
0
 40
0
 40
0
 40
1
 40
1
 40
1
 40
1
 10
7.845801
 20
18.239823
 30
0.0
 10
9.281807
 20
18.241290
 30
0.0
 10
9.307087
 20
18.254284
 30
0.0
 10
9.413160
 20
19.045661
 30
0.0
  0
SPLINE
  5
144
100
AcDbEntity
  8
Layer_1
 62
7
100
AcDbSpline
 70
8
 71
3
 72
8
 73
4
 74
0
 40
0
 40
0
 40
0
 40
0
 40
1
 40
1
 40
1
 40
1
 10
9.413160
 20
19.045661
 30
0.0
 10
9.440911
 20
19.252694
 30
0.0
 10
9.486626
 20
19.419027
 30
0.0
 10
9.515777
 20
19.419027
 30
0.0
  0
SPLINE
  5
145
100
AcDbEntity
  8
Layer_1
 62
7
100
AcDbSpline
 70
8
 71
3
 72
8
 73
4
 74
0
 40
0
 40
0
 40
0
 40
0
 40
1
 40
1
 40
1
 40
1
 10
9.515777
 20
19.419027
 30
0.0
 10
9.587887
 20
19.419027
 30
0.0
 10
10.181833
 20
19.220808
 30
0.0
 10
10.220388
 20
19.183875
 30
0.0
  0
SPLINE
  5
146
100
AcDbEntity
  8
Layer_1
 62
7
100
AcDbSpline
 70
8
 71
3
 72
8
 73
4
 74
0
 40
0
 40
0
 40
0
 40
0
 40
1
 40
1
 40
1
 40
1
 10
10.220388
 20
19.183875
 30
0.0
 10
10.268421
 20
19.137864
 30
0.0
 10
10.175263
 20
18.561538
 30
0.0
 10
10.066910
 20
18.234373
 30
0.0
  0
SPLINE
  5
147
100
AcDbEntity
  8
Layer_1
 62
7
100
AcDbSpline
 70
8
 71
3
 72
8
 73
4
 74
0
 40
0
 40
0
 40
0
 40
0
 40
1
 40
1
 40
1
 40
1
 10
10.066910
 20
18.234373
 30
0.0
 10
9.859638
 20
17.608525
 30
0.0
 10
9.638890
 20
17.531541
 30
0.0
 10
7.997243
 20
17.512598
 30
0.0
  0
SPLINE
  5
148
100
AcDbEntity
  8
Layer_1
 62
7
100
AcDbSpline
 70
8
 71
3
 72
8
 73
4
 74
0
 40
0
 40
0
 40
0
 40
0
 40
1
 40
1
 40
1
 40
1
 10
7.997243
 20
17.512598
 30
0.0
 10
7.348068
 20
17.505108
 30
0.0
 10
6.691132
 20
17.518446
 30
0.0
 10
6.537383
 20
17.542238
 30
0.0
  0
LWPOLYLINE
  5
149
100
AcDbEntity
  8
Layer_1
 62
7
100
AcDbPolyline
 90
3
 70
0
 10
6.901234
 20
19.468120
 30
0.0
 10
6.551957
 20
19.366770
 30
0.0
 10
6.551957
 20
18.894515
 30
0.0
  0
SPLINE
  5
14a
100
AcDbEntity
  8
Layer_1
 62
7
100
AcDbSpline
 70
8
 71
3
 72
8
 73
4
 74
0
 40
0
 40
0
 40
0
 40
0
 40
1
 40
1
 40
1
 40
1
 10
0.102740
 20
17.541456
 30
0.0
 10
0.019307
 20
18.046664
 30
0.0
 10
-0.007871
 20
18.010299
 30
0.0
 10
0.481761
 20
18.048602
 30
0.0
  0
LWPOLYLINE
  5
14b
100
AcDbEntity
  8
Layer_1
 62
7
100
AcDbPolyline
 90
2
 70
0
 10
6.537383
 20
17.542238
 30
0.0
 10
6.537391
 20
17.542238
 30
0.0
  0
SPLINE
  5
14c
100
AcDbEntity
  8
Layer_1
 62
7
100
AcDbSpline
 70
8
 71
3
 72
8
 73
4
 74
0
 40
0
 40
0
 40
0
 40
0
 40
1
 40
1
 40
1
 40
1
 10
1.890915
 20
18.187753
 30
0.0
 10
2.049551
 20
18.213765
 30
0.0
 10
2.783915
 20
18.310973
 30
0.0
 10
2.821794
 20
18.310973
 30
0.0
  0
SPLINE
  5
14d
100
AcDbEntity
  8
Layer_1
 62
7
100
AcDbSpline
 70
8
 71
3
 72
8
 73
4
 74
0
 40
0
 40
0
 40
0
 40
0
 40
1
 40
1
 40
1
 40
1
 10
2.821794
 20
18.310973
 30
0.0
 10
2.833125
 20
18.310973
 30
0.0
 10
2.842396
 20
19.015550
 30
0.0
 10
2.842396
 20
19.876700
 30
0.0
  0
LWPOLYLINE
  5
14e
100
AcDbEntity
  8
Layer_1
 62
7
100
AcDbPolyline
 90
9
 70
0
 10
0.481761
 20
18.048602
 30
0.0
 10
0.915347
 20
18.082521
 30
0.0
 10
0.915347
 20
19.401153
 30
0.0
 10
0.915347
 20
20.719785
 30
0.0
 10
1.324845
 20
20.719785
 30
0.0
 10
1.734343
 20
20.719785
 30
0.0
 10
1.734343
 20
19.440932
 30
0.0
 10
1.734343
 20
18.162079
 30
0.0
 10
1.890915
 20
18.187753
 30
0.0
  0
SPLINE
  5
14f
100
AcDbEntity
  8
Layer_1
 62
7
100
AcDbSpline
 70
8
 71
3
 72
8
 73
4
 74
0
 40
0
 40
0
 40
0
 40
0
 40
1
 40
1
 40
1
 40
1
 10
3.745700
 20
18.455762
 30
0.0
 10
3.818566
 20
18.455906
 30
0.0
 10
4.178971
 20
18.500181
 30
0.0
 10
4.546599
 20
18.554152
 30
0.0
  0
SPLINE
  5
150
100
AcDbEntity
  8
Layer_1
 62
7
100
AcDbSpline
 70
8
 71
3
 72
8
 73
4
 74
0
 40
0
 40
0
 40
0
 40
0
 40
1
 40
1
 40
1
 40
1
 10
4.546599
 20
18.554152
 30
0.0
 10
4.914226
 20
18.608124
 30
0.0
 10
5.220719
 20
18.645945
 30
0.0
 10
5.227693
 20
18.638200
 30
0.0
  0
SPLINE
  5
151
100
AcDbEntity
  8
Layer_1
 62
7
100
AcDbSpline
 70
8
 71
3
 72
8
 73
4
 74
0
 40
0
 40
0
 40
0
 40
0
 40
1
 40
1
 40
1
 40
1
 10
5.227693
 20
18.638200
 30
0.0
 10
5.234666
 20
18.630455
 30
0.0
 10
5.255300
 20
18.492755
 30
0.0
 10
5.273542
 20
18.332201
 30
0.0
  0
LWPOLYLINE
  5
152
100
AcDbEntity
  8
Layer_1
 62
7
100
AcDbPolyline
 90
15
 70
0
 10
2.842396
 20
19.876700
 30
0.0
 10
2.842396
 20
21.442427
 30
0.0
 10
3.227805
 20
21.442427
 30
0.0
 10
3.613215
 20
21.442427
 30
0.0
 10
3.613215
 20
20.912489
 30
0.0
 10
3.613215
 20
20.382550
 30
0.0
 10
4.384035
 20
20.382550
 30
0.0
 10
5.154854
 20
20.382550
 30
0.0
 10
5.154854
 20
20.021229
 30
0.0
 10
5.154854
 20
19.659907
 30
0.0
 10
4.384035
 20
19.659907
 30
0.0
 10
3.613215
 20
19.659907
 30
0.0
 10
3.613215
 20
19.057705
 30
0.0
 10
3.613215
 20
18.455502
 30
0.0
 10
3.745700
 20
18.455762
 30
0.0
  0
SPLINE
  5
153
100
AcDbEntity
  8
Layer_1
 62
7
100
AcDbSpline
 70
8
 71
3
 72
8
 73
4
 74
0
 40
0
 40
0
 40
0
 40
0
 40
1
 40
1
 40
1
 40
1
 10
5.001946
 20
17.981904
 30
0.0
 10
3.554698
 20
17.704672
 30
0.0
 10
2.723228
 20
17.571881
 30
0.0
 10
0.307489
 20
17.232171
 30
0.0
  0
LWPOLYLINE
  5
154
100
AcDbEntity
  8
Layer_1
 62
7
100
AcDbPolyline
 90
3
 70
0
 10
5.273542
 20
18.332201
 30
0.0
 10
5.306711
 20
18.040285
 30
0.0
 10
5.001946
 20
17.981904
 30
0.0
  0
LWPOLYLINE
  5
155
100
AcDbEntity
  8
Layer_1
 62
7
100
AcDbPolyline
 90
4
 70
0
 10
0.307489
 20
17.232171
 30
0.0
 10
0.157305
 20
17.211052
 30
0.0
 10
0.102740
 20
17.541456
 30
0.0
 10
0.102740
 20
17.541456
 30
0.0
  0
SPLINE
  5
156
100
AcDbEntity
  8
Layer_1
 62
7
100
AcDbSpline
 70
8
 71
3
 72
8
 73
4
 74
0
 40
0
 40
0
 40
0
 40
0
 40
1
 40
1
 40
1
 40
1
 10
28.687728
 20
12.564705
 30
0.0
 10
30.272296
 20
14.390692
 30
0.0
 10
31.179197
 20
16.941964
 30
0.0
 10
31.438359
 20
20.302719
 30
0.0
  0
LWPOLYLINE
  5
157
100
AcDbEntity
  8
Layer_1
 62
7
100
AcDbPolyline
 90
3
 70
0
 10
28.625323
 20
11.729768
 30
0.0
 10
28.320831
 20
12.141908
 30
0.0
 10
28.687728
 20
12.564705
 30
0.0
  0
SPLINE
  5
158
100
AcDbEntity
  8
Layer_1
 62
7
100
AcDbSpline
 70
8
 71
3
 72
8
 73
4
 74
0
 40
0
 40
0
 40
0
 40
0
 40
1
 40
1
 40
1
 40
1
 10
31.862593
 20
20.694785
 30
0.0
 10
32.077852
 20
20.676111
 30
0.0
 10
32.263659
 20
20.651767
 30
0.0
 10
32.275492
 20
20.640688
 30
0.0
  0
SPLINE
  5
159
100
AcDbEntity
  8
Layer_1
 62
7
100
AcDbSpline
 70
8
 71
3
 72
8
 73
4
 74
0
 40
0
 40
0
 40
0
 40
0
 40
1
 40
1
 40
1
 40
1
 10
32.275492
 20
20.640688
 30
0.0
 10
32.313781
 20
20.604844
 30
0.0
 10
32.182641
 20
19.213610
 30
0.0
 10
32.064469
 20
18.401985
 30
0.0
  0
SPLINE
  5
15a
100
AcDbEntity
  8
Layer_1
 62
7
100
AcDbSpline
 70
8
 71
3
 72
8
 73
4
 74
0
 40
0
 40
0
 40
0
 40
0
 40
1
 40
1
 40
1
 40
1
 10
32.064469
 20
18.401985
 30
0.0
 10
31.637986
 20
15.472810
 30
0.0
 10
30.689482
 20
13.249202
 30
0.0
 10
29.141838
 20
11.550362
 30
0.0
  0
LWPOLYLINE
  5
15b
100
AcDbEntity
  8
Layer_1
 62
7
100
AcDbPolyline
 90
3
 70
0
 10
31.438359
 20
20.302719
 30
0.0
 10
31.471210
 20
20.728738
 30
0.0
 10
31.862593
 20
20.694785
 30
0.0
  0
SPLINE
  5
15c
100
AcDbEntity
  8
Layer_1
 62
7
100
AcDbSpline
 70
8
 71
3
 72
8
 73
4
 74
0
 40
0
 40
0
 40
0
 40
0
 40
1
 40
1
 40
1
 40
1
 10
37.571155
 20
11.737849
 30
0.0
 10
36.017626
 20
13.542530
 30
0.0
 10
34.857639
 20
16.567888
 30
0.0
 10
34.425760
 20
19.941341
 30
0.0
  0
SPLINE
  5
15d
100
AcDbEntity
  8
Layer_1
 62
7
100
AcDbSpline
 70
8
 71
3
 72
8
 73
4
 74
0
 40
0
 40
0
 40
0
 40
0
 40
1
 40
1
 40
1
 40
1
 10
34.425760
 20
19.941341
 30
0.0
 10
34.313721
 20
20.816494
 30
0.0
 10
34.282623
 20
20.731926
 30
0.0
 10
34.759138
 20
20.847974
 30
0.0
  0
SPLINE
  5
15e
100
AcDbEntity
  8
Layer_1
 62
7
100
AcDbSpline
 70
8
 71
3
 72
8
 73
4
 74
0
 40
0
 40
0
 40
0
 40
0
 40
1
 40
1
 40
1
 40
1
 10
34.759138
 20
20.847974
 30
0.0
 10
34.984363
 20
20.902825
 30
0.0
 10
35.168637
 20
20.928771
 30
0.0
 10
35.168637
 20
20.905634
 30
0.0
  0
SPLINE
  5
15f
100
AcDbEntity
  8
Layer_1
 62
7
100
AcDbSpline
 70
8
 71
3
 72
8
 73
4
 74
0
 40
0
 40
0
 40
0
 40
0
 40
1
 40
1
 40
1
 40
1
 10
35.168637
 20
20.905634
 30
0.0
 10
35.168637
 20
20.767673
 30
0.0
 10
35.386069
 20
19.344790
 30
0.0
 10
35.487830
 20
18.816824
 30
0.0
  0
SPLINE
  5
160
100
AcDbEntity
  8
Layer_1
 62
7
100
AcDbSpline
 70
8
 71
3
 72
8
 73
4
 74
0
 40
0
 40
0
 40
0
 40
0
 40
1
 40
1
 40
1
 40
1
 10
35.487830
 20
18.816824
 30
0.0
 10
36.003622
 20
16.140771
 30
0.0
 10
36.913603
 20
14.045956
 30
0.0
 10
38.128225
 20
12.738534
 30
0.0
  0
SPLINE
  5
161
100
AcDbEntity
  8
Layer_1
 62
7
100
AcDbSpline
 70
8
 71
3
 72
8
 73
4
 74
0
 40
0
 40
0
 40
0
 40
0
 40
1
 40
1
 40
1
 40
1
 10
38.128225
 20
12.738534
 30
0.0
 10
38.328738
 20
12.522700
 30
0.0
 10
38.492794
 20
12.336446
 30
0.0
 10
38.492794
 20
12.324636
 30
0.0
  0
SPLINE
  5
162
100
AcDbEntity
  8
Layer_1
 62
7
100
AcDbSpline
 70
8
 71
3
 72
8
 73
4
 74
0
 40
0
 40
0
 40
0
 40
0
 40
1
 40
1
 40
1
 40
1
 10
38.492794
 20
12.324636
 30
0.0
 10
38.492794
 20
12.292561
 30
0.0
 10
37.959123
 20
11.325423
 30
0.0
 10
37.941425
 20
11.325423
 30
0.0
  0
SPLINE
  5
163
100
AcDbEntity
  8
Layer_1
 62
7
100
AcDbSpline
 70
8
 71
3
 72
8
 73
4
 74
0
 40
0
 40
0
 40
0
 40
0
 40
1
 40
1
 40
1
 40
1
 10
37.941425
 20
11.325423
 30
0.0
 10
37.933043
 20
11.325423
 30
0.0
 10
37.766422
 20
11.511014
 30
0.0
 10
37.571155
 20
11.737849
 30
0.0
  0
LWPOLYLINE
  5
164
100
AcDbEntity
  8
Layer_1
 62
7
100
AcDbPolyline
 90
4
 70
0
 10
29.141838
 20
11.550362
 30
0.0
 10
28.929815
 20
11.317628
 30
0.0
 10
28.625323
 20
11.729768
 30
0.0
 10
28.625323
 20
11.729768
 30
0.0
  0
LWPOLYLINE
  5
165
100
AcDbEntity
  8
Layer_1
 62
7
100
AcDbPolyline
 90
2
 70
0
 10
37.571155
 20
11.737849
 30
0.0
 10
37.571155
 20
11.737849
 30
0.0
  0
LWPOLYLINE
  5
166
100
AcDbEntity
  8
Layer_1
 62
7
100
AcDbPolyline
 90
42
 70
0
 10
32.904354
 20
6.459625
 30
0.0
 10
32.904354
 20
7.808559
 30
0.0
 10
31.121833
 20
7.808559
 30
0.0
 10
29.339314
 20
7.808559
 30
0.0
 10
29.339314
 20
7.182268
 30
0.0
 10
29.339314
 20
6.555977
 30
0.0
 10
28.929815
 20
6.555977
 30
0.0
 10
28.520319
 20
6.555977
 30
0.0
 10
28.520319
 20
7.543590
 30
0.0
 10
28.520319
 20
8.531202
 30
0.0
 10
30.712337
 20
8.531202
 30
0.0
 10
32.904354
 20
8.531202
 30
0.0
 10
32.904354
 20
8.892524
 30
0.0
 10
32.904354
 20
9.253845
 30
0.0
 10
31.025482
 20
9.253845
 30
0.0
 10
29.146610
 20
9.253845
 30
0.0
 10
29.146610
 20
9.591079
 30
0.0
 10
29.146610
 20
9.928312
 30
0.0
 10
33.386116
 20
9.928312
 30
0.0
 10
37.625624
 20
9.928312
 30
0.0
 10
37.625624
 20
9.591079
 30
0.0
 10
37.625624
 20
9.253845
 30
0.0
 10
35.722662
 20
9.253845
 30
0.0
 10
33.819702
 20
9.253845
 30
0.0
 10
33.819702
 20
8.892524
 30
0.0
 10
33.819702
 20
8.531202
 30
0.0
 10
36.011719
 20
8.531202
 30
0.0
 10
38.203736
 20
8.531202
 30
0.0
 10
38.203736
 20
7.543590
 30
0.0
 10
38.203736
 20
6.555977
 30
0.0
 10
37.794240
 20
6.555977
 30
0.0
 10
37.384742
 20
6.555977
 30
0.0
 10
37.384742
 20
7.182268
 30
0.0
 10
37.384742
 20
7.808559
 30
0.0
 10
35.602223
 20
7.808559
 30
0.0
 10
33.819702
 20
7.808559
 30
0.0
 10
33.819702
 20
6.459625
 30
0.0
 10
33.819702
 20
5.110691
 30
0.0
 10
33.362028
 20
5.110691
 30
0.0
 10
32.904354
 20
5.110691
 30
0.0
 10
32.904354
 20
6.459625
 30
0.0
 10
32.904354
 20
6.459625
 30
0.0
  0
LWPOLYLINE
  5
167
100
AcDbEntity
  8
Layer_1
 62
7
100
AcDbPolyline
 90
10
 70
0
 10
29.387490
 20
4.195343
 30
0.0
 10
29.387490
 20
4.532576
 30
0.0
 10
33.337940
 20
4.532576
 30
0.0
 10
37.288388
 20
4.532576
 30
0.0
 10
37.288388
 20
4.195343
 30
0.0
 10
37.288388
 20
3.858109
 30
0.0
 10
33.337940
 20
3.858109
 30
0.0
 10
29.387490
 20
3.858109
 30
0.0
 10
29.387490
 20
4.195343
 30
0.0
 10
29.387490
 20
4.195343
 30
0.0
  0
SPLINE
  5
168
100
AcDbEntity
  8
Layer_1
 62
7
100
AcDbSpline
 70
8
 71
3
 72
8
 73
4
 74
0
 40
0
 40
0
 40
0
 40
0
 40
1
 40
1
 40
1
 40
1
 10
36.258921
 20
0.659199
 30
0.0
 10
35.062168
 20
0.487808
 30
0.0
 10
29.667245
 20
0.081413
 30
0.0
 10
29.605709
 20
0.158018
 30
0.0
  0
SPLINE
  5
169
100
AcDbEntity
  8
Layer_1
 62
7
100
AcDbSpline
 70
8
 71
3
 72
8
 73
4
 74
0
 40
0
 40
0
 40
0
 40
0
 40
1
 40
1
 40
1
 40
1
 10
29.605709
 20
0.158018
 30
0.0
 10
29.599247
 20
0.166053
 30
0.0
 10
29.549296
 20
0.307060
 30
0.0
 10
29.494689
 20
0.471365
 30
0.0
  0
LWPOLYLINE
  5
16a
100
AcDbEntity
  8
Layer_1
 62
7
100
AcDbPolyline
 90
3
 70
0
 10
36.686194
 20
0.367841
 30
0.0
 10
36.457944
 20
0.687702
 30
0.0
 10
36.258921
 20
0.659199
 30
0.0
  0
SPLINE
  5
16b
100
AcDbEntity
  8
Layer_1
 62
7
100
AcDbSpline
 70
8
 71
3
 72
8
 73
4
 74
0
 40
0
 40
0
 40
0
 40
0
 40
1
 40
1
 40
1
 40
1
 10
29.644374
 20
0.911030
 30
0.0
 10
29.781305
 20
0.988541
 30
0.0
 10
30.023415
 20
1.150270
 30
0.0
 10
30.182397
 20
1.270428
 30
0.0
  0
SPLINE
  5
16c
100
AcDbEntity
  8
Layer_1
 62
7
100
AcDbSpline
 70
8
 71
3
 72
8
 73
4
 74
0
 40
0
 40
0
 40
0
 40
0
 40
1
 40
1
 40
1
 40
1
 10
30.182397
 20
1.270428
 30
0.0
 10
30.512360
 20
1.519814
 30
0.0
 10
31.314540
 20
2.324861
 30
0.0
 10
31.314540
 20
2.406619
 30
0.0
  0
SPLINE
  5
16d
100
AcDbEntity
  8
Layer_1
 62
7
100
AcDbSpline
 70
8
 71
3
 72
8
 73
4
 74
0
 40
0
 40
0
 40
0
 40
0
 40
1
 40
1
 40
1
 40
1
 10
31.314540
 20
2.406619
 30
0.0
 10
31.314540
 20
2.445800
 30
0.0
 10
30.910578
 20
2.460999
 30
0.0
 10
29.869251
 20
2.460999
 30
0.0
  0
LWPOLYLINE
  5
16e
100
AcDbEntity
  8
Layer_1
 62
7
100
AcDbPolyline
 90
3
 70
0
 10
29.494689
 20
0.471365
 30
0.0
 10
29.395406
 20
0.770101
 30
0.0
 10
29.644374
 20
0.911030
 30
0.0
  0
SPLINE
  5
16f
100
AcDbEntity
  8
Layer_1
 62
7
100
AcDbSpline
 70
8
 71
3
 72
8
 73
4
 74
0
 40
0
 40
0
 40
0
 40
0
 40
1
 40
1
 40
1
 40
1
 10
32.109447
 20
2.069537
 30
0.0
 10
31.833092
 20
1.699377
 30
0.0
 10
31.435904
 20
1.288386
 30
0.0
 10
31.073657
 20
0.997753
 30
0.0
  0
LWPOLYLINE
  5
170
100
AcDbEntity
  8
Layer_1
 62
7
100
AcDbPolyline
 90
11
 70
0
 10
29.869251
 20
2.460999
 30
0.0
 10
28.423966
 20
2.460999
 30
0.0
 10
28.423966
 20
2.798232
 30
0.0
 10
28.423966
 20
3.135466
 30
0.0
 10
33.386116
 20
3.135466
 30
0.0
 10
38.348265
 20
3.135466
 30
0.0
 10
38.348265
 20
2.798232
 30
0.0
 10
38.348265
 20
2.460999
 30
0.0
 10
35.373386
 20
2.458854
 30
0.0
 10
32.398504
 20
2.456709
 30
0.0
 10
32.109447
 20
2.069537
 30
0.0
  0
SPLINE
  5
171
100
AcDbEntity
  8
Layer_1
 62
7
100
AcDbSpline
 70
8
 71
3
 72
8
 73
4
 74
0
 40
0
 40
0
 40
0
 40
0
 40
1
 40
1
 40
1
 40
1
 10
31.631489
 20
0.891668
 30
0.0
 10
32.670310
 20
0.933422
 30
0.0
 10
35.250193
 20
1.183874
 30
0.0
 10
35.698574
 20
1.286495
 30
0.0
  0
SPLINE
  5
172
100
AcDbEntity
  8
Layer_1
 62
7
100
AcDbSpline
 70
8
 71
3
 72
8
 73
4
 74
0
 40
0
 40
0
 40
0
 40
0
 40
1
 40
1
 40
1
 40
1
 10
35.698574
 20
1.286495
 30
0.0
 10
35.815236
 20
1.313196
 30
0.0
 10
35.810949
 20
1.321208
 30
0.0
 10
35.561891
 20
1.541914
 30
0.0
  0
LWPOLYLINE
  5
173
100
AcDbEntity
  8
Layer_1
 62
7
100
AcDbPolyline
 90
3
 70
0
 10
31.073657
 20
0.997753
 30
0.0
 10
30.905041
 20
0.862469
 30
0.0
 10
31.631489
 20
0.891668
 30
0.0
  0
SPLINE
  5
174
100
AcDbEntity
  8
Layer_1
 62
7
100
AcDbSpline
 70
8
 71
3
 72
8
 73
4
 74
0
 40
0
 40
0
 40
0
 40
0
 40
1
 40
1
 40
1
 40
1
 10
35.623985
 20
1.977745
 30
0.0
 10
35.892370
 20
2.152605
 30
0.0
 10
35.960166
 20
2.177784
 30
0.0
 10
36.049726
 20
2.135865
 30
0.0
  0
SPLINE
  5
175
100
AcDbEntity
  8
Layer_1
 62
7
100
AcDbSpline
 70
8
 71
3
 72
8
 73
4
 74
0
 40
0
 40
0
 40
0
 40
0
 40
1
 40
1
 40
1
 40
1
 10
36.049726
 20
2.135865
 30
0.0
 10
36.313641
 20
2.012340
 30
0.0
 10
37.625624
 20
0.652505
 30
0.0
 10
37.625624
 20
0.502488
 30
0.0
  0
SPLINE
  5
176
100
AcDbEntity
  8
Layer_1
 62
7
100
AcDbSpline
 70
8
 71
3
 72
8
 73
4
 74
0
 40
0
 40
0
 40
0
 40
0
 40
1
 40
1
 40
1
 40
1
 10
37.625624
 20
0.502488
 30
0.0
 10
37.625624
 20
0.467299
 30
0.0
 10
37.104769
 20
0.128989
 30
0.0
 10
36.947692
 20
0.062151
 30
0.0
  0
SPLINE
  5
177
100
AcDbEntity
  8
Layer_1
 62
7
100
AcDbSpline
 70
8
 71
3
 72
8
 73
4
 74
0
 40
0
 40
0
 40
0
 40
0
 40
1
 40
1
 40
1
 40
1
 10
36.947692
 20
0.062151
 30
0.0
 10
36.929404
 20
0.054370
 30
0.0
 10
36.811729
 20
0.191940
 30
0.0
 10
36.686194
 20
0.367864
 30
0.0
  0
LWPOLYLINE
  5
178
100
AcDbEntity
  8
Layer_1
 62
7
100
AcDbPolyline
 90
3
 70
0
 10
35.561891
 20
1.541914
 30
0.0
 10
35.304770
 20
1.769767
 30
0.0
 10
35.623985
 20
1.977745
 30
0.0
  0
LWPOLYLINE
  5
179
100
AcDbEntity
  8
Layer_1
 62
7
100
AcDbPolyline
 90
2
 70
0
 10
36.686194
 20
0.367864
 30
0.0
 10
36.686194
 20
0.367841
 30
0.0
  0
LWPOLYLINE
  5
17a
100
AcDbEntity
  8
Layer_1
 62
7
100
AcDbPolyline
 90
10
 70
0
 10
29.772901
 20
5.520189
 30
0.0
 10
29.772901
 20
5.833334
 30
0.0
 10
31.121833
 20
5.833334
 30
0.0
 10
32.470767
 20
5.833334
 30
0.0
 10
32.470767
 20
5.520189
 30
0.0
 10
32.470767
 20
5.207043
 30
0.0
 10
31.121833
 20
5.207043
 30
0.0
 10
29.772901
 20
5.207043
 30
0.0
 10
29.772901
 20
5.520189
 30
0.0
 10
29.772901
 20
5.520189
 30
0.0
  0
LWPOLYLINE
  5
17b
100
AcDbEntity
  8
Layer_1
 62
7
100
AcDbPolyline
 90
10
 70
0
 10
29.772901
 20
6.845035
 30
0.0
 10
29.772901
 20
7.134092
 30
0.0
 10
31.121833
 20
7.134092
 30
0.0
 10
32.470767
 20
7.134092
 30
0.0
 10
32.470767
 20
6.845035
 30
0.0
 10
32.470767
 20
6.555977
 30
0.0
 10
31.121833
 20
6.555977
 30
0.0
 10
29.772901
 20
6.555977
 30
0.0
 10
29.772901
 20
6.845035
 30
0.0
 10
29.772901
 20
6.845035
 30
0.0
  0
LWPOLYLINE
  5
17c
100
AcDbEntity
  8
Layer_1
 62
7
100
AcDbPolyline
 90
10
 70
0
 10
34.301464
 20
6.845035
 30
0.0
 10
34.301464
 20
7.134092
 30
0.0
 10
35.578133
 20
7.134092
 30
0.0
 10
36.854805
 20
7.134092
 30
0.0
 10
36.854805
 20
6.845035
 30
0.0
 10
36.854805
 20
6.555977
 30
0.0
 10
35.578133
 20
6.555977
 30
0.0
 10
34.301464
 20
6.555977
 30
0.0
 10
34.301464
 20
6.845035
 30
0.0
 10
34.301464
 20
6.845035
 30
0.0
  0
LWPOLYLINE
  5
17d
100
AcDbEntity
  8
Layer_1
 62
7
100
AcDbPolyline
 90
10
 70
0
 10
34.349639
 20
5.520189
 30
0.0
 10
34.349639
 20
5.833334
 30
0.0
 10
35.626311
 20
5.833334
 30
0.0
 10
36.902980
 20
5.833334
 30
0.0
 10
36.902980
 20
5.520189
 30
0.0
 10
36.902980
 20
5.207043
 30
0.0
 10
35.626311
 20
5.207043
 30
0.0
 10
34.349639
 20
5.207043
 30
0.0
 10
34.349639
 20
5.520189
 30
0.0
 10
34.349639
 20
5.520189
 30
0.0
  0
ENDSEC
  0
SECTION
  2
OBJECTS
  0
DICTIONARY
  5
C
330
0
100
AcDbDictionary
  3
ACAD_GROUP
350
D
  3
ACAD_MLINESTYLE
350
17
  0
DICTIONARY
  5
D
330
C
100
AcDbDictionary
  0
DICTIONARY
  5
1A
330
C
100
AcDbDictionary
  0
DICTIONARY
  5
17
330
C
100
AcDbDictionary
  3
STANDARD
350
18
  0
DICTIONARY
  5
19
330
C
100
AcDbDictionary
  0
ENDSEC
  0
EOF
