  0
SECTION
  2
HEADER
  9
$ACADVER
  1
AC1014
  9
$HANDSEED
  5
FFFF
  9
$MEASUREMENT
 70
     1
  0
ENDSEC
  0
SECTION
  2
TABLES
  0
TABLE
  2
VPORT
  5
8
330
0
100
AcDbSymbolTable
 70
     4
  0
VPORT
  5
2E
330
8
100
AcDbSymbolTableRecord
100
AcDbViewportTableRecord
  2
*ACTIVE
 70
     0
 10
0.0
 20
0.0
 11
1.0
 21
1.0
 12
210.0
 22
148.5
 13
0.0
 23
0.0
 14
10.0
 24
10.0
 15
10.0
 25
10.0
 16
0.0
 26
0.0
 36
1.0
 17
0.0
 27
0.0
 37
0.0
 40
341.0
 41
1.24
 42
50.0
 43
0.0
 44
0.0
 50
0.0
 51
0.0
 71
     0
 72
   100
 73
     1
 74
     3
 75
     0
 76
     0
 77
     0
 78
     0
  0
ENDTAB
  0
TABLE
  2
LTYPE
  5
5
330
0
100
AcDbSymbolTable
 70
     1
  0
LTYPE
  5
14
330
5
100
AcDbSymbolTableRecord
100
AcDbLinetypeTableRecord
  2
BYBLOCK
 70
     0
  3

 72
    65
 73
     0
 40
0.0
  0
LTYPE
  5
15
330
5
100
AcDbSymbolTableRecord
100
AcDbLinetypeTableRecord
  2
BYLAYER
 70
     0
  3

 72
    65
 73
     0
 40
0.0
  0
LTYPE
  5
16
330
5
100
AcDbSymbolTableRecord
100
AcDbLinetypeTableRecord
  2
CONTINUOUS
 70
     0
  3
Solid line
 72
    65
 73
     0
 40
0.0
  0
ENDTAB
  0
TABLE
  2
LAYER
  5
2
100
AcDbSymbolTable
 70
2
  0
LAYER
  5
50
100
AcDbSymbolTableRecord
100
AcDbLayerTableRecord
  2
0
 70
0
  6
CONTINUOUS
  0
LAYER
  5
51
100
AcDbSymbolTableRecord
100
AcDbLayerTableRecord
  2
Layer_1
 70
0
  6
CONTINUOUS
  0
ENDTAB
  0
TABLE
  2
STYLE
  5
3
330
0
100
AcDbSymbolTable
 70
     1
  0
STYLE
  5
11
330
3
100
AcDbSymbolTableRecord
100
AcDbTextStyleTableRecord
  2
STANDARD
 70
     0
 40
0.0
 41
1.0
 50
0.0
 71
     0
 42
2.5
  3
txt
  4

  0
ENDTAB
  0
TABLE
  2
VIEW
  5
6
330
0
100
AcDbSymbolTable
 70
     0
  0
ENDTAB
  0
TABLE
  2
UCS
  5
7
330
0
100
AcDbSymbolTable
 70
     0
  0
ENDTAB
  0
TABLE
  2
APPID
  5
9
330
0
100
AcDbSymbolTable
 70
     2
  0
APPID
  5
12
330
9
100
AcDbSymbolTableRecord
100
AcDbRegAppTableRecord
  2
ACAD
 70
     0
  0
ENDTAB
  0
TABLE
  2
DIMSTYLE
  5
A
330
0
100
AcDbSymbolTable
 70
     1
  0
DIMSTYLE
105
27
330
A
100
AcDbSymbolTableRecord
100
AcDbDimStyleTableRecord
  2
ISO-25
 70
     0
  3

  4

  5

  6

  7

 40
1.0
 41
2.5
 42
0.625
 43
3.75
 44
1.25
 45
0.0
 46
0.0
 47
0.0
 48
0.0
140
2.5
141
2.5
142
0.0
143
0.03937007874016
144
1.0
145
0.0
146
1.0
147
0.625
 71
     0
 72
     0
 73
     0
 74
     0
 75
     0
 76
     0
 77
     1
 78
     8
170
     0
171
     3
172
     1
173
     0
174
     0
175
     0
176
     0
177
     0
178
     0
270
     2
271
     2
272
     2
273
     2
274
     3
340
11
275
     0
280
     0
281
     0
282
     0
283
     0
284
     8
285
     0
286
     0
287
     3
288
     0
  0
ENDTAB
  0
TABLE
  2
BLOCK_RECORD
  5
1
330
0
100
AcDbSymbolTable
 70
     1
  0
BLOCK_RECORD
  5
1F
330
1
100
AcDbSymbolTableRecord
100
AcDbBlockTableRecord
  2
*MODEL_SPACE
  0
BLOCK_RECORD
  5
1B
330
1
100
AcDbSymbolTableRecord
100
AcDbBlockTableRecord
  2
*PAPER_SPACE
  0
ENDTAB
  0
ENDSEC
  0
SECTION
  2
BLOCKS
  0
BLOCK
  5
20
330
1F
100
AcDbEntity
  8
0
100
AcDbBlockBegin
  2
*MODEL_SPACE
 70
     0
 10
0.0
 20
0.0
 30
0.0
  3
*MODEL_SPACE
  1

  0
ENDBLK
  5
21
330
1F
100
AcDbEntity
  8
0
100
AcDbBlockEnd
  0
BLOCK
  5
1C
330
1B
100
AcDbEntity
 67
     1
  8
0
100
AcDbBlockBegin
  2
*PAPER_SPACE
  1

  0
ENDBLK
  5
1D
330
1B
100
AcDbEntity
 67
     1
  8
0
100
AcDbBlockEnd
  0
ENDSEC
  0
SECTION
  2
ENTITIES
  0
SPLINE
  5
100
100
AcDbEntity
  8
Layer_1
 62
7
100
AcDbSpline
 70
8
 71
3
 72
8
 73
4
 74
0
 40
0
 40
0
 40
0
 40
0
 40
1
 40
1
 40
1
 40
1
 10
5.918254
 20
12.111741
 30
0.0
 10
5.052160
 20
12.690915
 30
0.0
 10
3.595509
 20
13.484892
 30
0.0
 10
2.631502
 20
13.903253
 30
0.0
  0
SPLINE
  5
101
100
AcDbEntity
  8
Layer_1
 62
7
100
AcDbSpline
 70
8
 71
3
 72
8
 73
4
 74
0
 40
0
 40
0
 40
0
 40
0
 40
1
 40
1
 40
1
 40
1
 10
2.631502
 20
13.903253
 30
0.0
 10
2.434139
 20
13.988904
 30
0.0
 10
2.266208
 20
14.064592
 30
0.0
 10
2.258322
 20
14.071448
 30
0.0
  0
SPLINE
  5
102
100
AcDbEntity
  8
Layer_1
 62
7
100
AcDbSpline
 70
8
 71
3
 72
8
 73
4
 74
0
 40
0
 40
0
 40
0
 40
0
 40
1
 40
1
 40
1
 40
1
 10
2.258322
 20
14.071448
 30
0.0
 10
2.250435
 20
14.078303
 30
0.0
 10
2.325110
 20
14.247867
 30
0.0
 10
2.424266
 20
14.448258
 30
0.0
  0
SPLINE
  5
103
100
AcDbEntity
  8
Layer_1
 62
7
100
AcDbSpline
 70
8
 71
3
 72
8
 73
4
 74
0
 40
0
 40
0
 40
0
 40
0
 40
1
 40
1
 40
1
 40
1
 10
2.424266
 20
14.448258
 30
0.0
 10
2.633855
 20
14.871829
 30
0.0
 10
2.536812
 20
14.867568
 30
0.0
 10
3.397030
 20
14.490971
 30
0.0
  0
SPLINE
  5
104
100
AcDbEntity
  8
Layer_1
 62
7
100
AcDbSpline
 70
8
 71
3
 72
8
 73
4
 74
0
 40
0
 40
0
 40
0
 40
0
 40
1
 40
1
 40
1
 40
1
 10
3.397030
 20
14.490971
 30
0.0
 10
3.725967
 20
14.346965
 30
0.0
 10
4.052438
 20
14.205733
 30
0.0
 10
4.122521
 20
14.177124
 30
0.0
  0
SPLINE
  5
105
100
AcDbEntity
  8
Layer_1
 62
7
100
AcDbSpline
 70
8
 71
3
 72
8
 73
4
 74
0
 40
0
 40
0
 40
0
 40
0
 40
1
 40
1
 40
1
 40
1
 10
4.122521
 20
14.177124
 30
0.0
 10
4.238712
 20
14.129691
 30
0.0
 10
4.282993
 20
14.149940
 30
0.0
 10
4.624899
 20
14.406851
 30
0.0
  0
SPLINE
  5
106
100
AcDbEntity
  8
Layer_1
 62
7
100
AcDbSpline
 70
8
 71
3
 72
8
 73
4
 74
0
 40
0
 40
0
 40
0
 40
0
 40
1
 40
1
 40
1
 40
1
 10
4.624899
 20
14.406851
 30
0.0
 10
5.085160
 20
14.752698
 30
0.0
 10
5.850598
 20
15.487492
 30
0.0
 10
6.219022
 20
15.937156
 30
0.0
  0
SPLINE
  5
107
100
AcDbEntity
  8
Layer_1
 62
7
100
AcDbSpline
 70
8
 71
3
 72
8
 73
4
 74
0
 40
0
 40
0
 40
0
 40
0
 40
1
 40
1
 40
1
 40
1
 10
6.219022
 20
15.937156
 30
0.0
 10
6.719696
 20
16.548231
 30
0.0
 10
7.288289
 20
17.515907
 30
0.0
 10
7.393882
 20
17.936625
 30
0.0
  0
SPLINE
  5
108
100
AcDbEntity
  8
Layer_1
 62
7
100
AcDbSpline
 70
8
 71
3
 72
8
 73
4
 74
0
 40
0
 40
0
 40
0
 40
0
 40
1
 40
1
 40
1
 40
1
 10
2.942164
 20
17.862937
 30
0.0
 10
2.801954
 20
17.648026
 30
0.0
 10
1.806400
 20
16.321104
 30
0.0
 10
1.608635
 20
16.085545
 30
0.0
  0
LWPOLYLINE
  5
109
100
AcDbEntity
  8
Layer_1
 62
7
100
AcDbPolyline
 90
5
 70
0
 10
7.393882
 20
17.936625
 30
0.0
 10
7.426424
 20
18.066280
 30
0.0
 10
5.250626
 20
18.066280
 30
0.0
 10
3.074827
 20
18.066280
 30
0.0
 10
2.942164
 20
17.862937
 30
0.0
  0
SPLINE
  5
10a
100
AcDbEntity
  8
Layer_1
 62
7
100
AcDbSpline
 70
8
 71
3
 72
8
 73
4
 74
0
 40
0
 40
0
 40
0
 40
0
 40
1
 40
1
 40
1
 40
1
 10
1.140826
 20
16.200157
 30
0.0
 10
0.947569
 20
16.339470
 30
0.0
 10
0.781706
 20
16.459860
 30
0.0
 10
0.772241
 20
16.467691
 30
0.0
  0
SPLINE
  5
10b
100
AcDbEntity
  8
Layer_1
 62
7
100
AcDbSpline
 70
8
 71
3
 72
8
 73
4
 74
0
 40
0
 40
0
 40
0
 40
0
 40
1
 40
1
 40
1
 40
1
 10
0.772241
 20
16.467691
 30
0.0
 10
0.762775
 20
16.475521
 30
0.0
 10
0.938381
 20
16.715630
 30
0.0
 10
1.162475
 20
17.001265
 30
0.0
  0
SPLINE
  5
10c
100
AcDbEntity
  8
Layer_1
 62
7
100
AcDbSpline
 70
8
 71
3
 72
8
 73
4
 74
0
 40
0
 40
0
 40
0
 40
0
 40
1
 40
1
 40
1
 40
1
 10
1.162475
 20
17.001265
 30
0.0
 10
1.976797
 20
18.039218
 30
0.0
 10
2.723659
 20
19.209937
 30
0.0
 10
3.280811
 20
20.321793
 30
0.0
  0
LWPOLYLINE
  5
10d
100
AcDbEntity
  8
Layer_1
 62
7
100
AcDbPolyline
 90
3
 70
0
 10
1.608635
 20
16.085545
 30
0.0
 10
1.492202
 20
15.946861
 30
0.0
 10
1.140826
 20
16.200157
 30
0.0
  0
SPLINE
  5
10e
100
AcDbEntity
  8
Layer_1
 62
7
100
AcDbSpline
 70
8
 71
3
 72
8
 73
4
 74
0
 40
0
 40
0
 40
0
 40
0
 40
1
 40
1
 40
1
 40
1
 10
3.948054
 20
20.697241
 30
0.0
 10
4.144976
 20
20.564359
 30
0.0
 10
4.306094
 20
20.435011
 30
0.0
 10
4.306094
 20
20.409800
 30
0.0
  0
SPLINE
  5
10f
100
AcDbEntity
  8
Layer_1
 62
7
100
AcDbSpline
 70
8
 71
3
 72
8
 73
4
 74
0
 40
0
 40
0
 40
0
 40
0
 40
1
 40
1
 40
1
 40
1
 10
4.306094
 20
20.409800
 30
0.0
 10
4.306094
 20
20.384589
 30
0.0
 10
4.149998
 20
20.046140
 30
0.0
 10
3.959214
 20
19.657691
 30
0.0
  0
SPLINE
  5
110
100
AcDbEntity
  8
Layer_1
 62
7
100
AcDbSpline
 70
8
 71
3
 72
8
 73
4
 74
0
 40
0
 40
0
 40
0
 40
0
 40
1
 40
1
 40
1
 40
1
 10
3.959214
 20
19.657691
 30
0.0
 10
3.768430
 20
19.269243
 30
0.0
 10
3.605157
 20
18.935274
 30
0.0
 10
3.596386
 20
18.915537
 30
0.0
  0
SPLINE
  5
111
100
AcDbEntity
  8
Layer_1
 62
7
100
AcDbSpline
 70
8
 71
3
 72
8
 73
4
 74
0
 40
0
 40
0
 40
0
 40
0
 40
1
 40
1
 40
1
 40
1
 10
3.596386
 20
18.915537
 30
0.0
 10
3.587614
 20
18.895802
 30
0.0
 10
4.661633
 20
18.879653
 30
0.0
 10
5.983095
 20
18.879653
 30
0.0
  0
LWPOLYLINE
  5
112
100
AcDbEntity
  8
Layer_1
 62
7
100
AcDbPolyline
 90
3
 70
0
 10
3.280811
 20
20.321793
 30
0.0
 10
3.590015
 20
20.938843
 30
0.0
 10
3.948054
 20
20.697241
 30
0.0
  0
SPLINE
  5
113
100
AcDbEntity
  8
Layer_1
 62
7
100
AcDbSpline
 70
8
 71
3
 72
8
 73
4
 74
0
 40
0
 40
0
 40
0
 40
0
 40
1
 40
1
 40
1
 40
1
 10
8.363117
 20
18.409555
 30
0.0
 10
8.341662
 20
17.964002
 30
0.0
 10
8.327719
 20
17.912743
 30
0.0
 10
8.096064
 20
17.427795
 30
0.0
  0
SPLINE
  5
114
100
AcDbEntity
  8
Layer_1
 62
7
100
AcDbSpline
 70
8
 71
3
 72
8
 73
4
 74
0
 40
0
 40
0
 40
0
 40
0
 40
1
 40
1
 40
1
 40
1
 10
8.096064
 20
17.427795
 30
0.0
 10
7.794041
 20
16.795536
 30
0.0
 10
7.310809
 20
15.988209
 30
0.0
 10
6.955944
 20
15.523016
 30
0.0
  0
SPLINE
  5
115
100
AcDbEntity
  8
Layer_1
 62
7
100
AcDbSpline
 70
8
 71
3
 72
8
 73
4
 74
0
 40
0
 40
0
 40
0
 40
0
 40
1
 40
1
 40
1
 40
1
 10
6.955944
 20
15.523016
 30
0.0
 10
6.625825
 20
15.090264
 30
0.0
 10
5.984304
 20
14.430591
 30
0.0
 10
5.488769
 20
14.014327
 30
0.0
  0
LWPOLYLINE
  5
116
100
AcDbEntity
  8
Layer_1
 62
7
100
AcDbPolyline
 90
3
 70
0
 10
5.983095
 20
18.879653
 30
0.0
 10
8.385754
 20
18.879653
 30
0.0
 10
8.363117
 20
18.409555
 30
0.0
  0
SPLINE
  5
117
100
AcDbEntity
  8
Layer_1
 62
7
100
AcDbSpline
 70
8
 71
3
 72
8
 73
4
 74
0
 40
0
 40
0
 40
0
 40
0
 40
1
 40
1
 40
1
 40
1
 10
6.688039
 20
12.210259
 30
0.0
 10
6.530322
 20
11.996961
 30
0.0
 10
6.397011
 20
11.817715
 30
0.0
 10
6.391791
 20
11.811934
 30
0.0
  0
SPLINE
  5
118
100
AcDbEntity
  8
Layer_1
 62
7
100
AcDbSpline
 70
8
 71
3
 72
8
 73
4
 74
0
 40
0
 40
0
 40
0
 40
0
 40
1
 40
1
 40
1
 40
1
 10
6.391791
 20
11.811934
 30
0.0
 10
6.386570
 20
11.806155
 30
0.0
 10
6.173480
 20
11.941067
 30
0.0
 10
5.918254
 20
12.111741
 30
0.0
  0
LWPOLYLINE
  5
119
100
AcDbEntity
  8
Layer_1
 62
7
100
AcDbPolyline
 90
5
 70
0
 10
5.488769
 20
14.014327
 30
0.0
 10
5.116467
 20
13.701582
 30
0.0
 10
6.045632
 20
13.149828
 30
0.0
 10
6.974796
 20
12.598074
 30
0.0
 10
6.688039
 20
12.210259
 30
0.0
  0
SPLINE
  5
11a
100
AcDbEntity
  8
Layer_1
 62
7
100
AcDbSpline
 70
8
 71
3
 72
8
 73
4
 74
0
 40
0
 40
0
 40
0
 40
0
 40
1
 40
1
 40
1
 40
1
 10
3.191876
 20
0.148759
 30
0.0
 10
2.960623
 20
0.186018
 30
0.0
 10
2.753737
 20
0.227432
 30
0.0
 10
2.732128
 20
0.240786
 30
0.0
  0
SPLINE
  5
11b
100
AcDbEntity
  8
Layer_1
 62
7
100
AcDbSpline
 70
8
 71
3
 72
8
 73
4
 74
0
 40
0
 40
0
 40
0
 40
0
 40
1
 40
1
 40
1
 40
1
 10
2.732128
 20
0.240786
 30
0.0
 10
2.710518
 20
0.254135
 30
0.0
 10
2.678323
 20
0.388575
 30
0.0
 10
2.660581
 20
0.539527
 30
0.0
  0
SPLINE
  5
11c
100
AcDbEntity
  8
Layer_1
 62
7
100
AcDbSpline
 70
8
 71
3
 72
8
 73
4
 74
0
 40
0
 40
0
 40
0
 40
0
 40
1
 40
1
 40
1
 40
1
 10
2.660581
 20
0.539527
 30
0.0
 10
2.642840
 20
0.690479
 30
0.0
 10
2.616778
 20
0.859988
 30
0.0
 10
2.602666
 20
0.916212
 30
0.0
  0
SPLINE
  5
11d
100
AcDbEntity
  8
Layer_1
 62
7
100
AcDbSpline
 70
8
 71
3
 72
8
 73
4
 74
0
 40
0
 40
0
 40
0
 40
0
 40
1
 40
1
 40
1
 40
1
 10
2.602666
 20
0.916212
 30
0.0
 10
2.577257
 20
1.017451
 30
0.0
 10
2.579937
 20
1.017818
 30
0.0
 10
2.879367
 20
0.954182
 30
0.0
  0
SPLINE
  5
11e
100
AcDbEntity
  8
Layer_1
 62
7
100
AcDbSpline
 70
8
 71
3
 72
8
 73
4
 74
0
 40
0
 40
0
 40
0
 40
0
 40
1
 40
1
 40
1
 40
1
 10
2.879367
 20
0.954182
 30
0.0
 10
3.224310
 20
0.880869
 30
0.0
 10
4.216719
 20
0.847525
 30
0.0
 10
4.413746
 20
0.902623
 30
0.0
  0
LWPOLYLINE
  5
11f
100
AcDbEntity
  8
Layer_1
 62
7
100
AcDbPolyline
 90
3
 70
0
 10
5.918254
 20
12.111741
 30
0.0
 10
5.918254
 20
12.111741
 30
0.0
 10
5.918254
 20
12.111741
 30
0.0
  0
SPLINE
  5
120
100
AcDbEntity
  8
Layer_1
 62
7
100
AcDbSpline
 70
8
 71
3
 72
8
 73
4
 74
0
 40
0
 40
0
 40
0
 40
0
 40
1
 40
1
 40
1
 40
1
 10
5.227119
 20
7.179073
 30
0.0
 10
6.196054
 20
7.782080
 30
0.0
 10
7.798436
 20
8.849393
 30
0.0
 10
7.798641
 20
8.891908
 30
0.0
  0
SPLINE
  5
121
100
AcDbEntity
  8
Layer_1
 62
7
100
AcDbSpline
 70
8
 71
3
 72
8
 73
4
 74
0
 40
0
 40
0
 40
0
 40
0
 40
1
 40
1
 40
1
 40
1
 10
7.798641
 20
8.891908
 30
0.0
 10
7.798736
 20
8.911644
 30
0.0
 10
6.302447
 20
8.927792
 30
0.0
 10
4.473553
 20
8.927792
 30
0.0
  0
LWPOLYLINE
  5
122
100
AcDbEntity
  8
Layer_1
 62
7
100
AcDbPolyline
 90
13
 70
0
 10
4.413746
 20
0.902623
 30
0.0
 10
4.545321
 20
0.939419
 30
0.0
 10
4.545321
 20
2.852327
 30
0.0
 10
4.545321
 20
4.765235
 30
0.0
 10
2.272661
 20
4.765235
 30
0.0
 10
-0.000000
 20
4.765235
 30
0.0
 10
-0.000000
 20
5.171921
 30
0.0
 10
-0.000000
 20
5.578608
 30
0.0
 10
2.272661
 20
5.578608
 30
0.0
 10
4.545321
 20
5.578608
 30
0.0
 10
4.545321
 20
6.166685
 30
0.0
 10
4.545321
 20
6.754762
 30
0.0
 10
5.227119
 20
7.179073
 30
0.0
  0
SPLINE
  5
123
100
AcDbEntity
  8
Layer_1
 62
7
100
AcDbSpline
 70
8
 71
3
 72
8
 73
4
 74
0
 40
0
 40
0
 40
0
 40
0
 40
1
 40
1
 40
1
 40
1
 10
8.417599
 20
8.394300
 30
0.0
 10
7.652573
 20
7.801548
 30
0.0
 10
6.863291
 20
7.250418
 30
0.0
 10
6.088338
 20
6.767850
 30
0.0
  0
LWPOLYLINE
  5
124
100
AcDbEntity
  8
Layer_1
 62
7
100
AcDbPolyline
 90
9
 70
0
 10
4.473553
 20
8.927792
 30
0.0
 10
1.148292
 20
8.927792
 30
0.0
 10
1.148292
 20
9.358401
 30
0.0
 10
1.148292
 20
9.789011
 30
0.0
 10
5.071621
 20
9.789011
 30
0.0
 10
8.994951
 20
9.789011
 30
0.0
 10
8.994951
 20
9.315326
 30
0.0
 10
8.994951
 20
8.841640
 30
0.0
 10
8.417599
 20
8.394300
 30
0.0
  0
SPLINE
  5
125
100
AcDbEntity
  8
Layer_1
 62
7
100
AcDbSpline
 70
8
 71
3
 72
8
 73
4
 74
0
 40
0
 40
0
 40
0
 40
0
 40
1
 40
1
 40
1
 40
1
 10
5.454385
 20
2.765862
 30
0.0
 10
5.454385
 20
0.787589
 30
0.0
 10
5.453256
 20
0.764238
 30
0.0
 10
5.346733
 20
0.553009
 30
0.0
  0
SPLINE
  5
126
100
AcDbEntity
  8
Layer_1
 62
7
100
AcDbSpline
 70
8
 71
3
 72
8
 73
4
 74
0
 40
0
 40
0
 40
0
 40
0
 40
1
 40
1
 40
1
 40
1
 10
5.346733
 20
0.553009
 30
0.0
 10
5.264305
 20
0.389549
 30
0.0
 10
5.183026
 20
0.311520
 30
0.0
 10
4.999853
 20
0.220004
 30
0.0
  0
SPLINE
  5
127
100
AcDbEntity
  8
Layer_1
 62
7
100
AcDbSpline
 70
8
 71
3
 72
8
 73
4
 74
0
 40
0
 40
0
 40
0
 40
0
 40
1
 40
1
 40
1
 40
1
 10
4.999853
 20
0.220004
 30
0.0
 10
4.789381
 20
0.114848
 30
0.0
 10
4.691613
 20
0.099311
 30
0.0
 10
4.186480
 20
0.090746
 30
0.0
  0
SPLINE
  5
128
100
AcDbEntity
  8
Layer_1
 62
7
100
AcDbSpline
 70
8
 71
3
 72
8
 73
4
 74
0
 40
0
 40
0
 40
0
 40
0
 40
1
 40
1
 40
1
 40
1
 10
4.186480
 20
0.090746
 30
0.0
 10
3.869375
 20
0.085384
 30
0.0
 10
3.424098
 20
0.111348
 30
0.0
 10
3.191876
 20
0.148759
 30
0.0
  0
LWPOLYLINE
  5
129
100
AcDbEntity
  8
Layer_1
 62
7
100
AcDbPolyline
 90
11
 70
0
 10
6.088338
 20
6.767850
 30
0.0
 10
5.454385
 20
6.373085
 30
0.0
 10
5.454385
 20
5.975846
 30
0.0
 10
5.454385
 20
5.578608
 30
0.0
 10
7.703123
 20
5.578608
 30
0.0
 10
9.951861
 20
5.578608
 30
0.0
 10
9.951861
 20
5.171921
 30
0.0
 10
9.951861
 20
4.765235
 30
0.0
 10
7.703123
 20
4.765235
 30
0.0
 10
5.454385
 20
4.765235
 30
0.0
 10
5.454385
 20
2.765862
 30
0.0
  0
LWPOLYLINE
  5
12a
100
AcDbEntity
  8
Layer_1
 62
7
100
AcDbPolyline
 90
3
 70
0
 10
3.191876
 20
0.148759
 30
0.0
 10
3.191876
 20
0.148759
 30
0.0
 10
3.191876
 20
0.148759
 30
0.0
  0
SPLINE
  5
12b
100
AcDbEntity
  8
Layer_1
 62
7
100
AcDbSpline
 70
8
 71
3
 72
8
 73
4
 74
0
 40
0
 40
0
 40
0
 40
0
 40
1
 40
1
 40
1
 40
1
 10
3.613248
 20
25.036135
 30
0.0
 10
3.579481
 20
25.341736
 30
0.0
 10
3.539436
 20
25.578021
 30
0.0
 10
3.521413
 20
25.578021
 30
0.0
  0
SPLINE
  5
12c
100
AcDbEntity
  8
Layer_1
 62
7
100
AcDbSpline
 70
8
 71
3
 72
8
 73
4
 74
0
 40
0
 40
0
 40
0
 40
0
 40
1
 40
1
 40
1
 40
1
 10
3.521413
 20
25.578021
 30
0.0
 10
3.515060
 20
25.578021
 30
0.0
 10
3.282457
 20
25.492327
 30
0.0
 10
3.004516
 20
25.387589
 30
0.0
  0
SPLINE
  5
12d
100
AcDbEntity
  8
Layer_1
 62
7
100
AcDbSpline
 70
8
 71
3
 72
8
 73
4
 74
0
 40
0
 40
0
 40
0
 40
0
 40
1
 40
1
 40
1
 40
1
 10
3.004516
 20
25.387589
 30
0.0
 10
2.457051
 20
25.181285
 30
0.0
 10
1.566351
 20
24.936291
 30
0.0
 10
1.474766
 20
24.966819
 30
0.0
  0
SPLINE
  5
12e
100
AcDbEntity
  8
Layer_1
 62
7
100
AcDbSpline
 70
8
 71
3
 72
8
 73
4
 74
0
 40
0
 40
0
 40
0
 40
0
 40
1
 40
1
 40
1
 40
1
 10
1.474766
 20
24.966819
 30
0.0
 10
1.443532
 20
24.977230
 30
0.0
 10
1.383910
 20
25.113627
 30
0.0
 10
1.342272
 20
25.269924
 30
0.0
  0
LWPOLYLINE
  5
12f
100
AcDbEntity
  8
Layer_1
 62
7
100
AcDbPolyline
 90
30
 70
0
 10
8.899260
 20
22.994365
 30
0.0
 10
8.899260
 20
23.329284
 30
0.0
 10
4.593167
 20
23.329284
 30
0.0
 10
0.287073
 20
23.329284
 30
0.0
 10
0.287073
 20
27.396150
 30
0.0
 10
0.287073
 20
31.463016
 30
0.0
 10
0.669837
 20
31.463016
 30
0.0
 10
1.052601
 20
31.463016
 30
0.0
 10
1.052601
 20
27.778914
 30
0.0
 10
1.052601
 20
24.094811
 30
0.0
 10
2.798961
 20
24.094811
 30
0.0
 10
4.545321
 20
24.094811
 30
0.0
 10
4.545321
 20
28.424828
 30
0.0
 10
4.545321
 20
32.754844
 30
0.0
 10
4.975931
 20
32.754844
 30
0.0
 10
5.406540
 20
32.754844
 30
0.0
 10
5.406540
 20
28.424828
 30
0.0
 10
5.406540
 20
24.094811
 30
0.0
 10
7.152900
 20
24.094811
 30
0.0
 10
8.899260
 20
24.094811
 30
0.0
 10
8.899260
 20
27.778914
 30
0.0
 10
8.899260
 20
31.463016
 30
0.0
 10
9.282024
 20
31.463016
 30
0.0
 10
9.664788
 20
31.463016
 30
0.0
 10
9.664788
 20
27.061231
 30
0.0
 10
9.664788
 20
22.659447
 30
0.0
 10
9.282024
 20
22.659447
 30
0.0
 10
8.899260
 20
22.659447
 30
0.0
 10
8.899260
 20
22.994365
 30
0.0
 10
8.899260
 20
22.994365
 30
0.0
  0
SPLINE
  5
130
100
AcDbEntity
  8
Layer_1
 62
7
100
AcDbSpline
 70
8
 71
3
 72
8
 73
4
 74
0
 40
0
 40
0
 40
0
 40
0
 40
1
 40
1
 40
1
 40
1
 10
1.523089
 20
25.960785
 30
0.0
 10
1.860422
 20
26.495590
 30
0.0
 10
2.742432
 20
28.276212
 30
0.0
 10
2.680272
 20
28.296932
 30
0.0
  0
SPLINE
  5
131
100
AcDbEntity
  8
Layer_1
 62
7
100
AcDbSpline
 70
8
 71
3
 72
8
 73
4
 74
0
 40
0
 40
0
 40
0
 40
0
 40
1
 40
1
 40
1
 40
1
 10
2.680272
 20
28.296932
 30
0.0
 10
2.653591
 20
28.305825
 30
0.0
 10
2.497137
 20
28.269774
 30
0.0
 10
2.332597
 20
28.216816
 30
0.0
  0
SPLINE
  5
132
100
AcDbEntity
  8
Layer_1
 62
7
100
AcDbSpline
 70
8
 71
3
 72
8
 73
4
 74
0
 40
0
 40
0
 40
0
 40
0
 40
1
 40
1
 40
1
 40
1
 10
2.332597
 20
28.216816
 30
0.0
 10
1.972830
 20
28.101024
 30
0.0
 10
1.565507
 20
28.015720
 30
0.0
 10
1.531664
 20
28.049079
 30
0.0
  0
SPLINE
  5
133
100
AcDbEntity
  8
Layer_1
 62
7
100
AcDbSpline
 70
8
 71
3
 72
8
 73
4
 74
0
 40
0
 40
0
 40
0
 40
0
 40
1
 40
1
 40
1
 40
1
 10
1.531664
 20
28.049079
 30
0.0
 10
1.518172
 20
28.062377
 30
0.0
 10
1.472891
 20
28.227718
 30
0.0
 10
1.431040
 20
28.416503
 30
0.0
  0
LWPOLYLINE
  5
134
100
AcDbEntity
  8
Layer_1
 62
7
100
AcDbPolyline
 90
3
 70
0
 10
1.342272
 20
25.269924
 30
0.0
 10
1.266568
 20
25.554099
 30
0.0
 10
1.523089
 20
25.960785
 30
0.0
  0
SPLINE
  5
135
100
AcDbEntity
  8
Layer_1
 62
7
100
AcDbSpline
 70
8
 71
3
 72
8
 73
4
 74
0
 40
0
 40
0
 40
0
 40
0
 40
1
 40
1
 40
1
 40
1
 10
1.514866
 20
29.081700
 30
0.0
 10
1.874675
 20
29.806081
 30
0.0
 10
2.139134
 20
30.552689
 30
0.0
 10
2.417677
 20
31.630475
 30
0.0
  0
SPLINE
  5
136
100
AcDbEntity
  8
Layer_1
 62
7
100
AcDbSpline
 70
8
 71
3
 72
8
 73
4
 74
0
 40
0
 40
0
 40
0
 40
0
 40
1
 40
1
 40
1
 40
1
 10
2.417677
 20
31.630475
 30
0.0
 10
2.533292
 20
32.077831
 30
0.0
 10
2.644847
 20
32.441305
 30
0.0
 10
2.665578
 20
32.438196
 30
0.0
  0
SPLINE
  5
137
100
AcDbEntity
  8
Layer_1
 62
7
100
AcDbSpline
 70
8
 71
3
 72
8
 73
4
 74
0
 40
0
 40
0
 40
0
 40
0
 40
1
 40
1
 40
1
 40
1
 10
2.665578
 20
32.438196
 30
0.0
 10
2.686309
 20
32.435087
 30
0.0
 10
2.850310
 20
32.393750
 30
0.0
 10
3.030027
 20
32.346336
 30
0.0
  0
LWPOLYLINE
  5
138
100
AcDbEntity
  8
Layer_1
 62
7
100
AcDbPolyline
 90
3
 70
0
 10
1.431040
 20
28.416503
 30
0.0
 10
1.354948
 20
28.759746
 30
0.0
 10
1.514866
 20
29.081700
 30
0.0
  0
SPLINE
  5
139
100
AcDbEntity
  8
Layer_1
 62
7
100
AcDbSpline
 70
8
 71
3
 72
8
 73
4
 74
0
 40
0
 40
0
 40
0
 40
0
 40
1
 40
1
 40
1
 40
1
 10
3.327039
 20
32.101577
 30
0.0
 10
3.182691
 20
31.332141
 30
0.0
 10
2.744631
 20
30.054606
 30
0.0
 10
2.381312
 20
29.343517
 30
0.0
  0
SPLINE
  5
13a
100
AcDbEntity
  8
Layer_1
 62
7
100
AcDbSpline
 70
8
 71
3
 72
8
 73
4
 74
0
 40
0
 40
0
 40
0
 40
0
 40
1
 40
1
 40
1
 40
1
 10
2.381312
 20
29.343517
 30
0.0
 10
2.249565
 20
29.085660
 30
0.0
 10
2.149691
 20
28.868429
 30
0.0
 10
2.159371
 20
28.860780
 30
0.0
  0
SPLINE
  5
13b
100
AcDbEntity
  8
Layer_1
 62
7
100
AcDbSpline
 70
8
 71
3
 72
8
 73
4
 74
0
 40
0
 40
0
 40
0
 40
0
 40
1
 40
1
 40
1
 40
1
 10
2.159371
 20
28.860780
 30
0.0
 10
2.194675
 20
28.832886
 30
0.0
 10
2.976256
 20
28.965895
 30
0.0
 10
3.011266
 20
29.005757
 30
0.0
  0
SPLINE
  5
13c
100
AcDbEntity
  8
Layer_1
 62
7
100
AcDbSpline
 70
8
 71
3
 72
8
 73
4
 74
0
 40
0
 40
0
 40
0
 40
0
 40
1
 40
1
 40
1
 40
1
 10
3.011266
 20
29.005757
 30
0.0
 10
3.031100
 20
29.028341
 30
0.0
 10
3.150309
 20
29.315950
 30
0.0
 10
3.276174
 20
29.644888
 30
0.0
  0
SPLINE
  5
13d
100
AcDbEntity
  8
Layer_1
 62
7
100
AcDbSpline
 70
8
 71
3
 72
8
 73
4
 74
0
 40
0
 40
0
 40
0
 40
0
 40
1
 40
1
 40
1
 40
1
 10
3.276174
 20
29.644888
 30
0.0
 10
3.402039
 20
29.973825
 30
0.0
 10
3.521475
 20
30.261102
 30
0.0
 10
3.541587
 20
30.283281
 30
0.0
  0
SPLINE
  5
13e
100
AcDbEntity
  8
Layer_1
 62
7
100
AcDbSpline
 70
8
 71
3
 72
8
 73
4
 74
0
 40
0
 40
0
 40
0
 40
0
 40
1
 40
1
 40
1
 40
1
 10
3.541587
 20
30.283281
 30
0.0
 10
3.595388
 20
30.342610
 30
0.0
 10
4.162557
 20
30.123309
 30
0.0
 10
4.162557
 20
30.043176
 30
0.0
  0
SPLINE
  5
13f
100
AcDbEntity
  8
Layer_1
 62
7
100
AcDbSpline
 70
8
 71
3
 72
8
 73
4
 74
0
 40
0
 40
0
 40
0
 40
0
 40
1
 40
1
 40
1
 40
1
 10
4.162557
 20
30.043176
 30
0.0
 10
4.162557
 20
29.961800
 30
0.0
 10
3.904517
 20
29.216128
 30
0.0
 10
3.660476
 20
28.592287
 30
0.0
  0
SPLINE
  5
140
100
AcDbEntity
  8
Layer_1
 62
7
100
AcDbSpline
 70
8
 71
3
 72
8
 73
4
 74
0
 40
0
 40
0
 40
0
 40
0
 40
1
 40
1
 40
1
 40
1
 10
3.660476
 20
28.592287
 30
0.0
 10
3.415371
 20
27.965725
 30
0.0
 10
2.886841
 20
26.873347
 30
0.0
 10
2.560545
 20
26.318923
 30
0.0
  0
SPLINE
  5
141
100
AcDbEntity
  8
Layer_1
 62
7
100
AcDbSpline
 70
8
 71
3
 72
8
 73
4
 74
0
 40
0
 40
0
 40
0
 40
0
 40
1
 40
1
 40
1
 40
1
 10
2.560545
 20
26.318923
 30
0.0
 10
2.411033
 20
26.064879
 30
0.0
 10
2.297412
 20
25.848317
 30
0.0
 10
2.308055
 20
25.837674
 30
0.0
  0
SPLINE
  5
142
100
AcDbEntity
  8
Layer_1
 62
7
100
AcDbSpline
 70
8
 71
3
 72
8
 73
4
 74
0
 40
0
 40
0
 40
0
 40
0
 40
1
 40
1
 40
1
 40
1
 10
2.308055
 20
25.837674
 30
0.0
 10
2.318698
 20
25.827031
 30
0.0
 10
2.562689
 20
25.912774
 30
0.0
 10
2.850256
 20
26.028215
 30
0.0
  0
SPLINE
  5
143
100
AcDbEntity
  8
Layer_1
 62
7
100
AcDbSpline
 70
8
 71
3
 72
8
 73
4
 74
0
 40
0
 40
0
 40
0
 40
0
 40
1
 40
1
 40
1
 40
1
 10
2.850256
 20
26.028215
 30
0.0
 10
3.472970
 20
26.278195
 30
0.0
 10
3.477060
 20
26.287300
 30
0.0
 10
3.273976
 20
26.971365
 30
0.0
  0
SPLINE
  5
144
100
AcDbEntity
  8
Layer_1
 62
7
100
AcDbSpline
 70
8
 71
3
 72
8
 73
4
 74
0
 40
0
 40
0
 40
0
 40
0
 40
1
 40
1
 40
1
 40
1
 10
3.273976
 20
26.971365
 30
0.0
 10
3.255798
 20
27.032592
 30
0.0
 10
3.318054
 20
27.065815
 30
0.0
 10
3.569158
 20
27.128891
 30
0.0
  0
SPLINE
  5
145
100
AcDbEntity
  8
Layer_1
 62
7
100
AcDbSpline
 70
8
 71
3
 72
8
 73
4
 74
0
 40
0
 40
0
 40
0
 40
0
 40
1
 40
1
 40
1
 40
1
 10
3.569158
 20
27.128891
 30
0.0
 10
3.744178
 20
27.172854
 30
0.0
 10
3.895945
 20
27.200255
 30
0.0
 10
3.906418
 20
27.189783
 30
0.0
  0
SPLINE
  5
146
100
AcDbEntity
  8
Layer_1
 62
7
100
AcDbSpline
 70
8
 71
3
 72
8
 73
4
 74
0
 40
0
 40
0
 40
0
 40
0
 40
1
 40
1
 40
1
 40
1
 10
3.906418
 20
27.189783
 30
0.0
 10
3.938789
 20
27.157412
 30
0.0
 10
4.155367
 20
26.152795
 30
0.0
 10
4.233258
 20
25.673712
 30
0.0
  0
SPLINE
  5
147
100
AcDbEntity
  8
Layer_1
 62
7
100
AcDbSpline
 70
8
 71
3
 72
8
 73
4
 74
0
 40
0
 40
0
 40
0
 40
0
 40
1
 40
1
 40
1
 40
1
 10
4.233258
 20
25.673712
 30
0.0
 10
4.273902
 20
25.423720
 30
0.0
 10
4.316636
 20
25.162515
 30
0.0
 10
4.328221
 20
25.093257
 30
0.0
  0
SPLINE
  5
148
100
AcDbEntity
  8
Layer_1
 62
7
100
AcDbSpline
 70
8
 71
3
 72
8
 73
4
 74
0
 40
0
 40
0
 40
0
 40
0
 40
1
 40
1
 40
1
 40
1
 10
4.328221
 20
25.093257
 30
0.0
 10
4.347966
 20
24.975235
 30
0.0
 10
4.330818
 20
24.962155
 30
0.0
 10
4.055099
 20
24.884790
 30
0.0
  0
SPLINE
  5
149
100
AcDbEntity
  8
Layer_1
 62
7
100
AcDbSpline
 70
8
 71
3
 72
8
 73
4
 74
0
 40
0
 40
0
 40
0
 40
0
 40
1
 40
1
 40
1
 40
1
 10
4.055099
 20
24.884790
 30
0.0
 10
3.893296
 20
24.839390
 30
0.0
 10
3.734617
 20
24.792155
 30
0.0
 10
3.702480
 20
24.779822
 30
0.0
  0
SPLINE
  5
14a
100
AcDbEntity
  8
Layer_1
 62
7
100
AcDbSpline
 70
8
 71
3
 72
8
 73
4
 74
0
 40
0
 40
0
 40
0
 40
0
 40
1
 40
1
 40
1
 40
1
 10
3.702480
 20
24.779822
 30
0.0
 10
3.662505
 20
24.764484
 30
0.0
 10
3.634319
 20
24.845443
 30
0.0
 10
3.613248
 20
25.036135
 30
0.0
  0
LWPOLYLINE
  5
14b
100
AcDbEntity
  8
Layer_1
 62
7
100
AcDbPolyline
 90
3
 70
0
 10
3.030027
 20
32.346336
 30
0.0
 10
3.356783
 20
32.260130
 30
0.0
 10
3.327039
 20
32.101577
 30
0.0
  0
SPLINE
  5
14c
100
AcDbEntity
  8
Layer_1
 62
7
100
AcDbSpline
 70
8
 71
3
 72
8
 73
4
 74
0
 40
0
 40
0
 40
0
 40
0
 40
1
 40
1
 40
1
 40
1
 10
8.020964
 20
24.984138
 30
0.0
 10
8.004042
 20
25.107599
 30
0.0
 10
7.990196
 20
25.279694
 30
0.0
 10
7.990196
 20
25.366570
 30
0.0
  0
SPLINE
  5
14d
100
AcDbEntity
  8
Layer_1
 62
7
100
AcDbSpline
 70
8
 71
3
 72
8
 73
4
 74
0
 40
0
 40
0
 40
0
 40
0
 40
1
 40
1
 40
1
 40
1
 10
7.990196
 20
25.366570
 30
0.0
 10
7.990196
 20
25.453448
 30
0.0
 10
7.969625
 20
25.537242
 30
0.0
 10
7.944484
 20
25.552780
 30
0.0
  0
SPLINE
  5
14e
100
AcDbEntity
  8
Layer_1
 62
7
100
AcDbSpline
 70
8
 71
3
 72
8
 73
4
 74
0
 40
0
 40
0
 40
0
 40
0
 40
1
 40
1
 40
1
 40
1
 10
7.944484
 20
25.552780
 30
0.0
 10
7.919344
 20
25.568319
 30
0.0
 10
7.774012
 20
25.528904
 30
0.0
 10
7.621527
 20
25.465192
 30
0.0
  0
SPLINE
  5
14f
100
AcDbEntity
  8
Layer_1
 62
7
100
AcDbSpline
 70
8
 71
3
 72
8
 73
4
 74
0
 40
0
 40
0
 40
0
 40
0
 40
1
 40
1
 40
1
 40
1
 10
7.621527
 20
25.465192
 30
0.0
 10
7.023834
 20
25.215464
 30
0.0
 10
5.940586
 20
24.916025
 30
0.0
 10
5.846105
 20
24.974418
 30
0.0
  0
SPLINE
  5
150
100
AcDbEntity
  8
Layer_1
 62
7
100
AcDbSpline
 70
8
 71
3
 72
8
 73
4
 74
0
 40
0
 40
0
 40
0
 40
0
 40
1
 40
1
 40
1
 40
1
 10
5.846105
 20
24.974418
 30
0.0
 10
5.823959
 20
24.988106
 30
0.0
 10
5.767648
 20
25.125438
 30
0.0
 10
5.720971
 20
25.279603
 30
0.0
  0
LWPOLYLINE
  5
151
100
AcDbEntity
  8
Layer_1
 62
7
100
AcDbPolyline
 90
3
 70
0
 10
3.613248
 20
25.036135
 30
0.0
 10
3.613248
 20
25.036135
 30
0.0
 10
3.613248
 20
25.036135
 30
0.0
  0
SPLINE
  5
152
100
AcDbEntity
  8
Layer_1
 62
7
100
AcDbSpline
 70
8
 71
3
 72
8
 73
4
 74
0
 40
0
 40
0
 40
0
 40
0
 40
1
 40
1
 40
1
 40
1
 10
5.898535
 20
25.963687
 30
0.0
 10
6.402378
 20
26.738912
 30
0.0
 10
7.176812
 20
28.264011
 30
0.0
 10
7.082969
 20
28.296205
 30
0.0
  0
SPLINE
  5
153
100
AcDbEntity
  8
Layer_1
 62
7
100
AcDbSpline
 70
8
 71
3
 72
8
 73
4
 74
0
 40
0
 40
0
 40
0
 40
0
 40
1
 40
1
 40
1
 40
1
 10
7.082969
 20
28.296205
 30
0.0
 10
7.059060
 20
28.304406
 30
0.0
 10
6.936698
 20
28.276215
 30
0.0
 10
6.811053
 20
28.233559
 30
0.0
  0
SPLINE
  5
154
100
AcDbEntity
  8
Layer_1
 62
7
100
AcDbSpline
 70
8
 71
3
 72
8
 73
4
 74
0
 40
0
 40
0
 40
0
 40
0
 40
1
 40
1
 40
1
 40
1
 10
6.811053
 20
28.233559
 30
0.0
 10
6.541367
 20
28.141998
 30
0.0
 10
5.966000
 20
28.016878
 30
0.0
 10
5.938964
 20
28.043914
 30
0.0
  0
SPLINE
  5
155
100
AcDbEntity
  8
Layer_1
 62
7
100
AcDbSpline
 70
8
 71
3
 72
8
 73
4
 74
0
 40
0
 40
0
 40
0
 40
0
 40
1
 40
1
 40
1
 40
1
 10
5.938964
 20
28.043914
 30
0.0
 10
5.928581
 20
28.054297
 30
0.0
 10
5.884151
 20
28.219606
 30
0.0
 10
5.840229
 20
28.411268
 30
0.0
  0
LWPOLYLINE
  5
156
100
AcDbEntity
  8
Layer_1
 62
7
100
AcDbPolyline
 90
3
 70
0
 10
5.720971
 20
25.279603
 30
0.0
 10
5.636103
 20
25.559902
 30
0.0
 10
5.898535
 20
25.963687
 30
0.0
  0
SPLINE
  5
157
100
AcDbEntity
  8
Layer_1
 62
7
100
AcDbSpline
 70
8
 71
3
 72
8
 73
4
 74
0
 40
0
 40
0
 40
0
 40
0
 40
1
 40
1
 40
1
 40
1
 10
6.011329
 20
29.286046
 30
0.0
 10
6.318400
 20
29.930023
 30
0.0
 10
6.637299
 20
30.854022
 30
0.0
 10
6.864532
 20
31.758171
 30
0.0
  0
SPLINE
  5
158
100
AcDbEntity
  8
Layer_1
 62
7
100
AcDbSpline
 70
8
 71
3
 72
8
 73
4
 74
0
 40
0
 40
0
 40
0
 40
0
 40
1
 40
1
 40
1
 40
1
 10
6.864532
 20
31.758171
 30
0.0
 10
6.958499
 20
32.132060
 30
0.0
 10
7.040292
 20
32.441480
 30
0.0
 10
7.046295
 20
32.445772
 30
0.0
  0
SPLINE
  5
159
100
AcDbEntity
  8
Layer_1
 62
7
100
AcDbSpline
 70
8
 71
3
 72
8
 73
4
 74
0
 40
0
 40
0
 40
0
 40
0
 40
1
 40
1
 40
1
 40
1
 10
7.046295
 20
32.445772
 30
0.0
 10
7.052298
 20
32.450063
 30
0.0
 10
7.213305
 20
32.410470
 30
0.0
 10
7.404089
 20
32.357787
 30
0.0
  0
SPLINE
  5
15a
100
AcDbEntity
  8
Layer_1
 62
7
100
AcDbSpline
 70
8
 71
3
 72
8
 73
4
 74
0
 40
0
 40
0
 40
0
 40
0
 40
1
 40
1
 40
1
 40
1
 10
7.404089
 20
32.357787
 30
0.0
 10
7.671098
 20
32.284056
 30
0.0
 10
7.750969
 20
32.242128
 30
0.0
 10
7.750969
 20
32.175694
 30
0.0
  0
SPLINE
  5
15b
100
AcDbEntity
  8
Layer_1
 62
7
100
AcDbSpline
 70
8
 71
3
 72
8
 73
4
 74
0
 40
0
 40
0
 40
0
 40
0
 40
1
 40
1
 40
1
 40
1
 10
7.750969
 20
32.175694
 30
0.0
 10
7.750969
 20
32.020365
 30
0.0
 10
7.325967
 20
30.617796
 30
0.0
 10
7.129372
 20
30.124334
 30
0.0
  0
SPLINE
  5
15c
100
AcDbEntity
  8
Layer_1
 62
7
100
AcDbSpline
 70
8
 71
3
 72
8
 73
4
 74
0
 40
0
 40
0
 40
0
 40
0
 40
1
 40
1
 40
1
 40
1
 10
7.129372
 20
30.124334
 30
0.0
 10
7.023683
 20
29.859048
 30
0.0
 10
6.849814
 20
29.468176
 30
0.0
 10
6.742998
 20
29.255727
 30
0.0
  0
SPLINE
  5
15d
100
AcDbEntity
  8
Layer_1
 62
7
100
AcDbSpline
 70
8
 71
3
 72
8
 73
4
 74
0
 40
0
 40
0
 40
0
 40
0
 40
1
 40
1
 40
1
 40
1
 10
6.742998
 20
29.255727
 30
0.0
 10
6.636181
 20
29.043279
 30
0.0
 10
6.555528
 20
28.864377
 30
0.0
 10
6.563770
 20
28.858166
 30
0.0
  0
SPLINE
  5
15e
100
AcDbEntity
  8
Layer_1
 62
7
100
AcDbSpline
 70
8
 71
3
 72
8
 73
4
 74
0
 40
0
 40
0
 40
0
 40
0
 40
1
 40
1
 40
1
 40
1
 10
6.563770
 20
28.858166
 30
0.0
 10
6.599059
 20
28.831575
 30
0.0
 10
7.381002
 20
28.968710
 30
0.0
 10
7.420756
 20
29.008464
 30
0.0
  0
SPLINE
  5
15f
100
AcDbEntity
  8
Layer_1
 62
7
100
AcDbSpline
 70
8
 71
3
 72
8
 73
4
 74
0
 40
0
 40
0
 40
0
 40
0
 40
1
 40
1
 40
1
 40
1
 10
7.420756
 20
29.008464
 30
0.0
 10
7.444830
 20
29.032538
 30
0.0
 10
7.562666
 20
29.330512
 30
0.0
 10
7.682616
 20
29.670632
 30
0.0
  0
SPLINE
  5
160
100
AcDbEntity
  8
Layer_1
 62
7
100
AcDbSpline
 70
8
 71
3
 72
8
 73
4
 74
0
 40
0
 40
0
 40
0
 40
0
 40
1
 40
1
 40
1
 40
1
 10
7.682616
 20
29.670632
 30
0.0
 10
7.802567
 20
30.010751
 30
0.0
 10
7.908702
 20
30.297025
 30
0.0
 10
7.918473
 20
30.306795
 30
0.0
  0
SPLINE
  5
161
100
AcDbEntity
  8
Layer_1
 62
7
100
AcDbSpline
 70
8
 71
3
 72
8
 73
4
 74
0
 40
0
 40
0
 40
0
 40
0
 40
1
 40
1
 40
1
 40
1
 10
7.918473
 20
30.306795
 30
0.0
 10
7.933084
 20
30.321405
 30
0.0
 10
8.561120
 20
30.131786
 30
0.0
 10
8.600147
 20
30.100982
 30
0.0
  0
SPLINE
  5
162
100
AcDbEntity
  8
Layer_1
 62
7
100
AcDbSpline
 70
8
 71
3
 72
8
 73
4
 74
0
 40
0
 40
0
 40
0
 40
0
 40
1
 40
1
 40
1
 40
1
 10
8.600147
 20
30.100982
 30
0.0
 10
8.622332
 20
30.083473
 30
0.0
 10
8.178441
 20
28.912153
 30
0.0
 10
7.914639
 20
28.292090
 30
0.0
  0
SPLINE
  5
163
100
AcDbEntity
  8
Layer_1
 62
7
100
AcDbSpline
 70
8
 71
3
 72
8
 73
4
 74
0
 40
0
 40
0
 40
0
 40
0
 40
1
 40
1
 40
1
 40
1
 10
7.914639
 20
28.292090
 30
0.0
 10
7.587272
 20
27.522619
 30
0.0
 10
7.304175
 20
26.957022
 30
0.0
 10
6.936304
 20
26.337483
 30
0.0
  0
SPLINE
  5
164
100
AcDbEntity
  8
Layer_1
 62
7
100
AcDbSpline
 70
8
 71
3
 72
8
 73
4
 74
0
 40
0
 40
0
 40
0
 40
0
 40
1
 40
1
 40
1
 40
1
 10
6.936304
 20
26.337483
 30
0.0
 10
6.779124
 20
26.072773
 30
0.0
 10
6.650523
 20
25.845979
 30
0.0
 10
6.650523
 20
25.833496
 30
0.0
  0
SPLINE
  5
165
100
AcDbEntity
  8
Layer_1
 62
7
100
AcDbSpline
 70
8
 71
3
 72
8
 73
4
 74
0
 40
0
 40
0
 40
0
 40
0
 40
1
 40
1
 40
1
 40
1
 10
6.650523
 20
25.833496
 30
0.0
 10
6.650523
 20
25.802278
 30
0.0
 10
6.786184
 20
25.847009
 30
0.0
 10
7.354475
 20
26.065613
 30
0.0
  0
LWPOLYLINE
  5
166
100
AcDbEntity
  8
Layer_1
 62
7
100
AcDbPolyline
 90
3
 70
0
 10
5.840229
 20
28.411268
 30
0.0
 10
5.760370
 20
28.759746
 30
0.0
 10
6.011329
 20
29.286046
 30
0.0
  0
SPLINE
  5
167
100
AcDbEntity
  8
Layer_1
 62
7
100
AcDbSpline
 70
8
 71
3
 72
8
 73
4
 74
0
 40
0
 40
0
 40
0
 40
0
 40
1
 40
1
 40
1
 40
1
 10
7.815923
 20
26.406217
 30
0.0
 10
7.800962
 20
26.490167
 30
0.0
 10
7.761256
 20
26.669914
 30
0.0
 10
7.727688
 20
26.805655
 30
0.0
  0
LWPOLYLINE
  5
168
100
AcDbEntity
  8
Layer_1
 62
7
100
AcDbPolyline
 90
3
 70
0
 10
7.354475
 20
26.065613
 30
0.0
 10
7.843123
 20
26.253579
 30
0.0
 10
7.815923
 20
26.406217
 30
0.0
  0
SPLINE
  5
169
100
AcDbEntity
  8
Layer_1
 62
7
100
AcDbSpline
 70
8
 71
3
 72
8
 73
4
 74
0
 40
0
 40
0
 40
0
 40
0
 40
1
 40
1
 40
1
 40
1
 10
7.979586
 20
27.131061
 30
0.0
 10
8.233760
 20
27.194907
 30
0.0
 10
8.299788
 20
27.197978
 30
0.0
 10
8.331239
 20
27.147410
 30
0.0
  0
SPLINE
  5
16a
100
AcDbEntity
  8
Layer_1
 62
7
100
AcDbSpline
 70
8
 71
3
 72
8
 73
4
 74
0
 40
0
 40
0
 40
0
 40
0
 40
1
 40
1
 40
1
 40
1
 10
8.331239
 20
27.147410
 30
0.0
 10
8.420274
 20
27.004259
 30
0.0
 10
8.630187
 20
25.977103
 30
0.0
 10
8.731234
 20
25.190135
 30
0.0
  0
LWPOLYLINE
  5
16b
100
AcDbEntity
  8
Layer_1
 62
7
100
AcDbPolyline
 90
3
 70
0
 10
7.727688
 20
26.805655
 30
0.0
 10
7.666655
 20
27.052456
 30
0.0
 10
7.979586
 20
27.131061
 30
0.0
  0
SPLINE
  5
16c
100
AcDbEntity
  8
Layer_1
 62
7
100
AcDbSpline
 70
8
 71
3
 72
8
 73
4
 74
0
 40
0
 40
0
 40
0
 40
0
 40
1
 40
1
 40
1
 40
1
 10
8.461117
 20
24.885977
 30
0.0
 10
8.296986
 20
24.839924
 30
0.0
 10
8.137730
 20
24.792664
 30
0.0
 10
8.107215
 20
24.780953
 30
0.0
  0
SPLINE
  5
16d
100
AcDbEntity
  8
Layer_1
 62
7
100
AcDbSpline
 70
8
 71
3
 72
8
 73
4
 74
0
 40
0
 40
0
 40
0
 40
0
 40
1
 40
1
 40
1
 40
1
 10
8.107215
 20
24.780953
 30
0.0
 10
8.072311
 20
24.767559
 30
0.0
 10
8.040321
 20
24.842921
 30
0.0
 10
8.020965
 20
24.984138
 30
0.0
  0
LWPOLYLINE
  5
16e
100
AcDbEntity
  8
Layer_1
 62
7
100
AcDbPolyline
 90
3
 70
0
 10
8.731234
 20
25.190135
 30
0.0
 10
8.759537
 20
24.969709
 30
0.0
 10
8.461117
 20
24.885977
 30
0.0
  0
LWPOLYLINE
  5
16f
100
AcDbEntity
  8
Layer_1
 62
7
100
AcDbPolyline
 90
2
 70
0
 10
8.020965
 20
24.984138
 30
0.0
 10
8.020964
 20
24.984138
 30
0.0
  0
LWPOLYLINE
  5
170
100
AcDbEntity
  8
Layer_1
 62
7
100
AcDbPolyline
 90
34
 70
0
 10
28.850827
 20
26.176090
 30
0.0
 10
28.850827
 20
29.692733
 30
0.0
 10
30.214423
 20
29.692733
 30
0.0
 10
31.578022
 20
29.692733
 30
0.0
 10
31.578022
 20
30.649643
 30
0.0
 10
31.578022
 20
31.606553
 30
0.0
 10
29.903428
 20
31.606553
 30
0.0
 10
28.228838
 20
31.606553
 30
0.0
 10
28.228838
 20
31.989317
 30
0.0
 10
28.228838
 20
32.372080
 30
0.0
 10
33.204768
 20
32.372080
 30
0.0
 10
38.180699
 20
32.372080
 30
0.0
 10
38.180699
 20
31.989317
 30
0.0
 10
38.180699
 20
31.606553
 30
0.0
 10
36.530029
 20
31.606553
 30
0.0
 10
34.879359
 20
31.606553
 30
0.0
 10
34.879359
 20
30.649643
 30
0.0
 10
34.879359
 20
29.692733
 30
0.0
 10
36.219034
 20
29.692733
 30
0.0
 10
37.558706
 20
29.692733
 30
0.0
 10
37.558706
 20
26.176090
 30
0.0
 10
37.558706
 20
22.659447
 30
0.0
 10
37.128097
 20
22.659447
 30
0.0
 10
36.697488
 20
22.659447
 30
0.0
 10
36.697488
 20
23.066133
 30
0.0
 10
36.697488
 20
23.472820
 30
0.0
 10
33.204768
 20
23.472820
 30
0.0
 10
29.712048
 20
23.472820
 30
0.0
 10
29.712048
 20
23.066133
 30
0.0
 10
29.712048
 20
22.659447
 30
0.0
 10
29.281439
 20
22.659447
 30
0.0
 10
28.850827
 20
22.659447
 30
0.0
 10
28.850827
 20
26.176090
 30
0.0
 10
28.850827
 20
26.176090
 30
0.0
  0
SPLINE
  5
171
100
AcDbEntity
  8
Layer_1
 62
7
100
AcDbSpline
 70
8
 71
3
 72
8
 73
4
 74
0
 40
0
 40
0
 40
0
 40
0
 40
1
 40
1
 40
1
 40
1
 10
35.876072
 20
26.008631
 30
0.0
 10
34.811490
 20
26.008631
 30
0.0
 10
34.475073
 20
26.064606
 30
0.0
 10
34.275909
 20
26.274879
 30
0.0
  0
SPLINE
  5
172
100
AcDbEntity
  8
Layer_1
 62
7
100
AcDbSpline
 70
8
 71
3
 72
8
 73
4
 74
0
 40
0
 40
0
 40
0
 40
0
 40
1
 40
1
 40
1
 40
1
 10
34.275909
 20
26.274879
 30
0.0
 10
34.055902
 20
26.507154
 30
0.0
 10
34.018141
 20
26.741104
 30
0.0
 10
34.018141
 20
27.871869
 30
0.0
  0
LWPOLYLINE
  5
173
100
AcDbEntity
  8
Layer_1
 62
7
100
AcDbPolyline
 90
3
 70
0
 10
36.697488
 20
25.147412
 30
0.0
 10
36.697488
 20
26.008631
 30
0.0
 10
35.876072
 20
26.008631
 30
0.0
  0
SPLINE
  5
174
100
AcDbEntity
  8
Layer_1
 62
7
100
AcDbSpline
 70
8
 71
3
 72
8
 73
4
 74
0
 40
0
 40
0
 40
0
 40
0
 40
1
 40
1
 40
1
 40
1
 10
32.439240
 20
28.716110
 30
0.0
 10
32.439240
 20
28.626322
 30
0.0
 10
32.407335
 20
28.384104
 30
0.0
 10
32.368340
 20
28.177848
 30
0.0
  0
SPLINE
  5
175
100
AcDbEntity
  8
Layer_1
 62
7
100
AcDbSpline
 70
8
 71
3
 72
8
 73
4
 74
0
 40
0
 40
0
 40
0
 40
0
 40
1
 40
1
 40
1
 40
1
 10
32.368340
 20
28.177848
 30
0.0
 10
32.264858
 20
27.630477
 30
0.0
 10
31.988198
 20
27.103665
 30
0.0
 10
31.567848
 20
26.653561
 30
0.0
  0
SPLINE
  5
176
100
AcDbEntity
  8
Layer_1
 62
7
100
AcDbSpline
 70
8
 71
3
 72
8
 73
4
 74
0
 40
0
 40
0
 40
0
 40
0
 40
1
 40
1
 40
1
 40
1
 10
31.567848
 20
26.653561
 30
0.0
 10
31.243126
 20
26.305851
 30
0.0
 10
30.621794
 20
25.816751
 30
0.0
 10
30.505956
 20
25.817658
 30
0.0
  0
SPLINE
  5
177
100
AcDbEntity
  8
Layer_1
 62
7
100
AcDbSpline
 70
8
 71
3
 72
8
 73
4
 74
0
 40
0
 40
0
 40
0
 40
0
 40
1
 40
1
 40
1
 40
1
 10
30.505956
 20
25.817658
 30
0.0
 10
30.465666
 20
25.817997
 30
0.0
 10
30.084542
 20
26.371403
 30
0.0
 10
30.009344
 20
26.538784
 30
0.0
  0
SPLINE
  5
178
100
AcDbEntity
  8
Layer_1
 62
7
100
AcDbSpline
 70
8
 71
3
 72
8
 73
4
 74
0
 40
0
 40
0
 40
0
 40
0
 40
1
 40
1
 40
1
 40
1
 10
30.009344
 20
26.538784
 30
0.0
 10
30.001808
 20
26.555553
 30
0.0
 10
30.141635
 20
26.663816
 30
0.0
 10
30.320065
 20
26.779368
 30
0.0
  0
SPLINE
  5
179
100
AcDbEntity
  8
Layer_1
 62
7
100
AcDbSpline
 70
8
 71
3
 72
8
 73
4
 74
0
 40
0
 40
0
 40
0
 40
0
 40
1
 40
1
 40
1
 40
1
 10
30.320065
 20
26.779368
 30
0.0
 10
31.074718
 20
27.268089
 30
0.0
 10
31.521022
 20
27.903011
 30
0.0
 10
31.567611
 20
28.554164
 30
0.0
  0
LWPOLYLINE
  5
17a
100
AcDbEntity
  8
Layer_1
 62
7
100
AcDbPolyline
 90
5
 70
0
 10
34.018141
 20
27.871869
 30
0.0
 10
34.018141
 20
28.879360
 30
0.0
 10
33.228689
 20
28.879360
 30
0.0
 10
32.439240
 20
28.879360
 30
0.0
 10
32.439240
 20
28.716110
 30
0.0
  0
LWPOLYLINE
  5
17b
100
AcDbEntity
  8
Layer_1
 62
7
100
AcDbPolyline
 90
10
 70
0
 10
31.567611
 20
28.554164
 30
0.0
 10
31.590866
 20
28.879360
 30
0.0
 10
30.651453
 20
28.879360
 30
0.0
 10
29.712037
 20
28.879360
 30
0.0
 10
29.712037
 20
26.582777
 30
0.0
 10
29.712037
 20
24.286193
 30
0.0
 10
33.204757
 20
24.286193
 30
0.0
 10
36.697477
 20
24.286193
 30
0.0
 10
36.697477
 20
25.147412
 30
0.0
 10
36.697488
 20
25.147412
 30
0.0
  0
SPLINE
  5
17c
100
AcDbEntity
  8
Layer_1
 62
7
100
AcDbSpline
 70
8
 71
3
 72
8
 73
4
 74
0
 40
0
 40
0
 40
0
 40
0
 40
1
 40
1
 40
1
 40
1
 10
34.880206
 20
27.958334
 30
0.0
 10
34.880488
 20
27.451770
 30
0.0
 10
34.898578
 20
27.009482
 30
0.0
 10
34.920166
 20
26.975472
 30
0.0
  0
SPLINE
  5
17d
100
AcDbEntity
  8
Layer_1
 62
7
100
AcDbSpline
 70
8
 71
3
 72
8
 73
4
 74
0
 40
0
 40
0
 40
0
 40
0
 40
1
 40
1
 40
1
 40
1
 10
34.920166
 20
26.975472
 30
0.0
 10
34.941727
 20
26.941462
 30
0.0
 10
35.022152
 20
26.894869
 30
0.0
 10
35.098855
 20
26.871932
 30
0.0
  0
SPLINE
  5
17e
100
AcDbEntity
  8
Layer_1
 62
7
100
AcDbSpline
 70
8
 71
3
 72
8
 73
4
 74
0
 40
0
 40
0
 40
0
 40
0
 40
1
 40
1
 40
1
 40
1
 10
35.098855
 20
26.871932
 30
0.0
 10
35.262112
 20
26.823112
 30
0.0
 10
36.257543
 20
26.809633
 30
0.0
 10
36.518178
 20
26.852713
 30
0.0
  0
LWPOLYLINE
  5
17f
100
AcDbEntity
  8
Layer_1
 62
7
100
AcDbPolyline
 90
7
 70
0
 10
36.518068
 20
26.852713
 30
0.0
 10
36.697488
 20
26.882370
 30
0.0
 10
36.697488
 20
27.880865
 30
0.0
 10
36.697488
 20
28.879360
 30
0.0
 10
35.788425
 20
28.879360
 30
0.0
 10
34.879359
 20
28.879360
 30
0.0
 10
34.880206
 20
27.958334
 30
0.0
  0
LWPOLYLINE
  5
180
100
AcDbEntity
  8
Layer_1
 62
7
100
AcDbPolyline
 90
3
 70
0
 10
36.518178
 20
26.852713
 30
0.0
 10
36.518181
 20
26.852713
 30
0.0
 10
36.518068
 20
26.852713
 30
0.0
  0
LWPOLYLINE
  5
181
100
AcDbEntity
  8
Layer_1
 62
7
100
AcDbPolyline
 90
10
 70
0
 10
34.018141
 20
30.649643
 30
0.0
 10
34.018141
 20
31.606553
 30
0.0
 10
33.228689
 20
31.606553
 30
0.0
 10
32.439240
 20
31.606553
 30
0.0
 10
32.439240
 20
30.649643
 30
0.0
 10
32.439240
 20
29.692733
 30
0.0
 10
33.228689
 20
29.692733
 30
0.0
 10
34.018141
 20
29.692733
 30
0.0
 10
34.018141
 20
30.649643
 30
0.0
 10
34.018141
 20
30.649643
 30
0.0
  0
SPLINE
  5
182
100
AcDbEntity
  8
Layer_1
 62
7
100
AcDbSpline
 70
8
 71
3
 72
8
 73
4
 74
0
 40
0
 40
0
 40
0
 40
0
 40
1
 40
1
 40
1
 40
1
 10
28.401061
 20
19.086728
 30
0.0
 10
28.833386
 20
19.418243
 30
0.0
 10
29.842641
 20
20.492286
 30
0.0
 10
30.117251
 20
20.913086
 30
0.0
  0
SPLINE
  5
183
100
AcDbEntity
  8
Layer_1
 62
7
100
AcDbSpline
 70
8
 71
3
 72
8
 73
4
 74
0
 40
0
 40
0
 40
0
 40
0
 40
1
 40
1
 40
1
 40
1
 10
30.117251
 20
20.913086
 30
0.0
 10
30.271807
 20
21.149922
 30
0.0
 10
30.411522
 20
21.359564
 30
0.0
 10
30.427727
 20
21.378957
 30
0.0
  0
SPLINE
  5
184
100
AcDbEntity
  8
Layer_1
 62
7
100
AcDbSpline
 70
8
 71
3
 72
8
 73
4
 74
0
 40
0
 40
0
 40
0
 40
0
 40
1
 40
1
 40
1
 40
1
 10
30.427727
 20
21.378957
 30
0.0
 10
30.443926
 20
21.398352
 30
0.0
 10
30.612805
 20
21.332335
 30
0.0
 10
30.802998
 20
21.232254
 30
0.0
  0
LWPOLYLINE
  5
185
100
AcDbEntity
  8
Layer_1
 62
7
100
AcDbPolyline
 90
3
 70
0
 10
28.448909
 20
18.626533
 30
0.0
 10
28.214446
 20
18.943628
 30
0.0
 10
28.401061
 20
19.086728
 30
0.0
  0
SPLINE
  5
186
100
AcDbEntity
  8
Layer_1
 62
7
100
AcDbSpline
 70
8
 71
3
 72
8
 73
4
 74
0
 40
0
 40
0
 40
0
 40
0
 40
1
 40
1
 40
1
 40
1
 10
30.919869
 20
20.669376
 30
0.0
 10
30.474536
 20
19.928412
 30
0.0
 10
29.892018
 20
19.257587
 30
0.0
 10
29.171968
 20
18.656503
 30
0.0
  0
SPLINE
  5
187
100
AcDbEntity
  8
Layer_1
 62
7
100
AcDbSpline
 70
8
 71
3
 72
8
 73
4
 74
0
 40
0
 40
0
 40
0
 40
0
 40
1
 40
1
 40
1
 40
1
 10
29.171968
 20
18.656503
 30
0.0
 10
28.940715
 20
18.463456
 30
0.0
 10
28.736174
 20
18.306392
 30
0.0
 10
28.717438
 20
18.307473
 30
0.0
  0
SPLINE
  5
188
100
AcDbEntity
  8
Layer_1
 62
7
100
AcDbSpline
 70
8
 71
3
 72
8
 73
4
 74
0
 40
0
 40
0
 40
0
 40
0
 40
1
 40
1
 40
1
 40
1
 10
28.717438
 20
18.307473
 30
0.0
 10
28.698698
 20
18.308545
 30
0.0
 10
28.577862
 20
18.452131
 30
0.0
 10
28.448909
 20
18.626533
 30
0.0
  0
LWPOLYLINE
  5
189
100
AcDbEntity
  8
Layer_1
 62
7
100
AcDbPolyline
 90
3
 70
0
 10
30.802998
 20
21.232254
 30
0.0
 10
31.148802
 20
21.050288
 30
0.0
 10
30.919869
 20
20.669376
 30
0.0
  0
LWPOLYLINE
  5
18a
100
AcDbEntity
  8
Layer_1
 62
7
100
AcDbPolyline
 90
3
 70
0
 10
28.448909
 20
18.626533
 30
0.0
 10
28.448909
 20
18.626533
 30
0.0
 10
28.448909
 20
18.626533
 30
0.0
  0
SPLINE
  5
18b
100
AcDbEntity
  8
Layer_1
 62
7
100
AcDbSpline
 70
8
 71
3
 72
8
 73
4
 74
0
 40
0
 40
0
 40
0
 40
0
 40
1
 40
1
 40
1
 40
1
 10
34.367196
 20
11.424744
 30
0.0
 10
34.201983
 20
11.454908
 30
0.0
 10
34.110318
 20
11.497275
 30
0.0
 10
34.094812
 20
11.550636
 30
0.0
  0
SPLINE
  5
18c
100
AcDbEntity
  8
Layer_1
 62
7
100
AcDbSpline
 70
8
 71
3
 72
8
 73
4
 74
0
 40
0
 40
0
 40
0
 40
0
 40
1
 40
1
 40
1
 40
1
 10
34.094812
 20
11.550636
 30
0.0
 10
34.036161
 20
11.752471
 30
0.0
 10
33.959840
 20
12.234625
 30
0.0
 10
33.982894
 20
12.257679
 30
0.0
  0
SPLINE
  5
18d
100
AcDbEntity
  8
Layer_1
 62
7
100
AcDbSpline
 70
8
 71
3
 72
8
 73
4
 74
0
 40
0
 40
0
 40
0
 40
0
 40
1
 40
1
 40
1
 40
1
 10
33.982894
 20
12.257679
 30
0.0
 10
33.996977
 20
12.271773
 30
0.0
 10
34.214376
 20
12.260360
 30
0.0
 10
34.465977
 20
12.232296
 30
0.0
  0
SPLINE
  5
18e
100
AcDbEntity
  8
Layer_1
 62
7
100
AcDbSpline
 70
8
 71
3
 72
8
 73
4
 74
0
 40
0
 40
0
 40
0
 40
0
 40
1
 40
1
 40
1
 40
1
 10
34.465977
 20
12.232296
 30
0.0
 10
35.231214
 20
12.146967
 30
0.0
 10
35.486007
 20
12.161594
 30
0.0
 10
35.623139
 20
12.298725
 30
0.0
  0
LWPOLYLINE
  5
18f
100
AcDbEntity
  8
Layer_1
 62
7
100
AcDbPolyline
 90
10
 70
0
 10
32.534931
 20
20.434632
 30
0.0
 10
32.534931
 20
20.841318
 30
0.0
 10
35.166433
 20
20.841318
 30
0.0
 10
37.797935
 20
20.841318
 30
0.0
 10
37.797935
 20
20.434632
 30
0.0
 10
37.797935
 20
20.027945
 30
0.0
 10
35.166433
 20
20.027945
 30
0.0
 10
32.534931
 20
20.027945
 30
0.0
 10
32.534931
 20
20.434632
 30
0.0
 10
32.534931
 20
20.434632
 30
0.0
  0
SPLINE
  5
190
100
AcDbEntity
  8
Layer_1
 62
7
100
AcDbSpline
 70
8
 71
3
 72
8
 73
4
 74
0
 40
0
 40
0
 40
0
 40
0
 40
1
 40
1
 40
1
 40
1
 10
36.600669
 20
14.609445
 30
0.0
 10
36.599822
 20
12.234763
 30
0.0
 10
36.593613
 20
12.048671
 30
0.0
 10
36.511292
 20
11.870291
 30
0.0
  0
SPLINE
  5
191
100
AcDbEntity
  8
Layer_1
 62
7
100
AcDbSpline
 70
8
 71
3
 72
8
 73
4
 74
0
 40
0
 40
0
 40
0
 40
0
 40
1
 40
1
 40
1
 40
1
 10
36.511292
 20
11.870291
 30
0.0
 10
36.397178
 20
11.623039
 30
0.0
 10
36.241996
 20
11.485577
 30
0.0
 10
36.003653
 20
11.420612
 30
0.0
  0
SPLINE
  5
192
100
AcDbEntity
  8
Layer_1
 62
7
100
AcDbSpline
 70
8
 71
3
 72
8
 73
4
 74
0
 40
0
 40
0
 40
0
 40
0
 40
1
 40
1
 40
1
 40
1
 10
36.003653
 20
11.420612
 30
0.0
 10
35.774534
 20
11.358161
 30
0.0
 10
34.717180
 20
11.360832
 30
0.0
 10
34.367120
 20
11.424746
 30
0.0
  0
LWPOLYLINE
  5
193
100
AcDbEntity
  8
Layer_1
 62
7
100
AcDbPolyline
 90
15
 70
0
 10
35.623139
 20
12.298725
 30
0.0
 10
35.740577
 20
12.416164
 30
0.0
 10
35.740577
 20
14.786690
 30
0.0
 10
35.740577
 20
17.157217
 30
0.0
 10
33.922451
 20
17.157217
 30
0.0
 10
32.104322
 20
17.157217
 30
0.0
 10
32.104322
 20
17.563904
 30
0.0
 10
32.104322
 20
17.970590
 30
0.0
 10
35.190354
 20
17.970590
 30
0.0
 10
38.276389
 20
17.970590
 30
0.0
 10
38.276389
 20
17.563904
 30
0.0
 10
38.276389
 20
17.157217
 30
0.0
 10
37.439092
 20
17.157217
 30
0.0
 10
36.601798
 20
17.157217
 30
0.0
 10
36.600669
 20
14.609445
 30
0.0
  0
SPLINE
  5
194
100
AcDbEntity
  8
Layer_1
 62
7
100
AcDbSpline
 70
8
 71
3
 72
8
 73
4
 74
0
 40
0
 40
0
 40
0
 40
0
 40
1
 40
1
 40
1
 40
1
 10
29.568510
 20
13.592727
 30
0.0
 10
29.568510
 20
14.842690
 30
0.0
 10
29.555838
 20
15.865388
 30
0.0
 10
29.540372
 20
15.865388
 30
0.0
  0
SPLINE
  5
195
100
AcDbEntity
  8
Layer_1
 62
7
100
AcDbSpline
 70
8
 71
3
 72
8
 73
4
 74
0
 40
0
 40
0
 40
0
 40
0
 40
1
 40
1
 40
1
 40
1
 10
29.540372
 20
15.865388
 30
0.0
 10
29.524906
 20
15.865388
 30
0.0
 10
29.326436
 20
15.693144
 30
0.0
 10
29.099346
 20
15.482624
 30
0.0
  0
SPLINE
  5
196
100
AcDbEntity
  8
Layer_1
 62
7
100
AcDbSpline
 70
8
 71
3
 72
8
 73
4
 74
0
 40
0
 40
0
 40
0
 40
0
 40
1
 40
1
 40
1
 40
1
 10
29.099346
 20
15.482624
 30
0.0
 10
28.872256
 20
15.272104
 30
0.0
 10
28.664230
 20
15.100744
 30
0.0
 10
28.637063
 20
15.101826
 30
0.0
  0
SPLINE
  5
197
100
AcDbEntity
  8
Layer_1
 62
7
100
AcDbSpline
 70
8
 71
3
 72
8
 73
4
 74
0
 40
0
 40
0
 40
0
 40
0
 40
1
 40
1
 40
1
 40
1
 10
28.637063
 20
15.101826
 30
0.0
 10
28.609885
 20
15.102898
 30
0.0
 10
28.484452
 20
15.243444
 30
0.0
 10
28.358293
 20
15.414131
 30
0.0
  0
LWPOLYLINE
  5
198
100
AcDbEntity
  8
Layer_1
 62
7
100
AcDbPolyline
 90
3
 70
0
 10
34.367120
 20
11.424746
 30
0.0
 10
34.367120
 20
11.424746
 30
0.0
 10
34.367196
 20
11.424744
 30
0.0
  0
SPLINE
  5
199
100
AcDbEntity
  8
Layer_1
 62
7
100
AcDbSpline
 70
8
 71
3
 72
8
 73
4
 74
0
 40
0
 40
0
 40
0
 40
0
 40
1
 40
1
 40
1
 40
1
 10
28.286524
 20
15.850794
 30
0.0
 10
28.373211
 20
15.920272
 30
0.0
 10
28.736155
 20
16.269552
 30
0.0
 10
29.093067
 20
16.626973
 30
0.0
  0
SPLINE
  5
19a
100
AcDbEntity
  8
Layer_1
 62
7
100
AcDbSpline
 70
8
 71
3
 72
8
 73
4
 74
0
 40
0
 40
0
 40
0
 40
0
 40
1
 40
1
 40
1
 40
1
 10
29.093067
 20
16.626973
 30
0.0
 10
29.773804
 20
17.308684
 30
0.0
 10
30.210021
 20
17.854098
 30
0.0
 10
30.606695
 20
18.519514
 30
0.0
  0
LWPOLYLINE
  5
19b
100
AcDbEntity
  8
Layer_1
 62
7
100
AcDbPolyline
 90
3
 70
0
 10
28.358293
 20
15.414131
 30
0.0
 10
28.128912
 20
15.724471
 30
0.0
 10
28.286524
 20
15.850794
 30
0.0
  0
SPLINE
  5
19c
100
AcDbEntity
  8
Layer_1
 62
7
100
AcDbSpline
 70
8
 71
3
 72
8
 73
4
 74
0
 40
0
 40
0
 40
0
 40
0
 40
1
 40
1
 40
1
 40
1
 10
31.427488
 20
18.338123
 30
0.0
 10
31.286052
 20
18.058753
 30
0.0
 10
30.942029
 20
17.530669
 30
0.0
 10
30.638471
 20
17.126961
 30
0.0
  0
LWPOLYLINE
  5
19d
100
AcDbEntity
  8
Layer_1
 62
7
100
AcDbPolyline
 90
5
 70
0
 10
30.606695
 20
18.519514
 30
0.0
 10
30.844180
 20
18.917893
 30
0.0
 10
31.186481
 20
18.728046
 30
0.0
 10
31.528780
 20
18.538198
 30
0.0
 10
31.427488
 20
18.338123
 30
0.0
  0
LWPOLYLINE
  5
19e
100
AcDbEntity
  8
Layer_1
 62
7
100
AcDbPolyline
 90
8
 70
0
 10
30.638471
 20
17.126961
 30
0.0
 10
30.381877
 20
16.785712
 30
0.0
 10
30.381877
 20
14.052889
 30
0.0
 10
30.381877
 20
11.320067
 30
0.0
 10
29.975192
 20
11.320067
 30
0.0
 10
29.568504
 20
11.320067
 30
0.0
 10
29.568504
 20
13.592727
 30
0.0
 10
29.568510
 20
13.592727
 30
0.0
  0
SPLINE
  5
19f
100
AcDbEntity
  8
Layer_1
 62
7
100
AcDbSpline
 70
8
 71
3
 72
8
 73
4
 74
0
 40
0
 40
0
 40
0
 40
0
 40
1
 40
1
 40
1
 40
1
 10
33.635377
 20
0.083820
 30
0.0
 10
33.411699
 20
0.109615
 30
0.0
 10
33.215061
 20
0.145407
 30
0.0
 10
33.198404
 20
0.163356
 30
0.0
  0
SPLINE
  5
1a0
100
AcDbEntity
  8
Layer_1
 62
7
100
AcDbSpline
 70
8
 71
3
 72
8
 73
4
 74
0
 40
0
 40
0
 40
0
 40
0
 40
1
 40
1
 40
1
 40
1
 10
33.198404
 20
0.163356
 30
0.0
 10
33.171057
 20
0.192814
 30
0.0
 10
33.010512
 20
1.001731
 30
0.0
 10
33.029392
 20
1.014874
 30
0.0
  0
SPLINE
  5
1a1
100
AcDbEntity
  8
Layer_1
 62
7
100
AcDbSpline
 70
8
 71
3
 72
8
 73
4
 74
0
 40
0
 40
0
 40
0
 40
0
 40
1
 40
1
 40
1
 40
1
 10
33.029392
 20
1.014874
 30
0.0
 10
33.033739
 20
1.017894
 30
0.0
 10
33.220319
 20
0.993623
 30
0.0
 10
33.443994
 20
0.960922
 30
0.0
  0
SPLINE
  5
1a2
100
AcDbEntity
  8
Layer_1
 62
7
100
AcDbSpline
 70
8
 71
3
 72
8
 73
4
 74
0
 40
0
 40
0
 40
0
 40
0
 40
1
 40
1
 40
1
 40
1
 10
33.443994
 20
0.960922
 30
0.0
 10
33.667672
 20
0.928215
 30
0.0
 10
34.069757
 20
0.886446
 30
0.0
 10
34.337518
 20
0.868099
 30
0.0
  0
SPLINE
  5
1a3
100
AcDbEntity
  8
Layer_1
 62
7
100
AcDbSpline
 70
8
 71
3
 72
8
 73
4
 74
0
 40
0
 40
0
 40
0
 40
0
 40
1
 40
1
 40
1
 40
1
 10
34.337518
 20
0.868099
 30
0.0
 10
35.066170
 20
0.818176
 30
0.0
 10
35.022897
 20
0.726180
 30
0.0
 10
35.022897
 20
2.325116
 30
0.0
  0
LWPOLYLINE
  5
1a4
100
AcDbEntity
  8
Layer_1
 62
7
100
AcDbPolyline
 90
34
 70
0
 10
28.133146
 20
6.248445
 30
0.0
 10
28.133146
 20
6.631209
 30
0.0
 10
30.429731
 20
6.631209
 30
0.0
 10
32.726314
 20
6.631209
 30
0.0
 10
32.726314
 20
7.324968
 30
0.0
 10
32.726314
 20
8.018728
 30
0.0
 10
30.788570
 20
8.018728
 30
0.0
 10
28.850827
 20
8.018728
 30
0.0
 10
28.850827
 20
8.425415
 30
0.0
 10
28.850827
 20
8.832101
 30
0.0
 10
30.788570
 20
8.832101
 30
0.0
 10
32.726314
 20
8.832101
 30
0.0
 10
32.726314
 20
9.501938
 30
0.0
 10
32.726314
 20
10.171775
 30
0.0
 10
33.180844
 20
10.171775
 30
0.0
 10
33.635377
 20
10.171775
 30
0.0
 10
33.635377
 20
9.501938
 30
0.0
 10
33.635377
 20
8.832101
 30
0.0
 10
35.573118
 20
8.832101
 30
0.0
 10
37.510861
 20
8.832101
 30
0.0
 10
37.510861
 20
8.425415
 30
0.0
 10
37.510861
 20
8.018728
 30
0.0
 10
35.573118
 20
8.018728
 30
0.0
 10
33.635377
 20
8.018728
 30
0.0
 10
33.635377
 20
7.324968
 30
0.0
 10
33.635377
 20
6.631209
 30
0.0
 10
35.955882
 20
6.631209
 30
0.0
 10
38.276389
 20
6.631209
 30
0.0
 10
38.276389
 20
6.248445
 30
0.0
 10
38.276389
 20
5.865681
 30
0.0
 10
33.204768
 20
5.865681
 30
0.0
 10
28.133146
 20
5.865681
 30
0.0
 10
28.133146
 20
6.248445
 30
0.0
 10
28.133146
 20
6.248445
 30
0.0
  0
SPLINE
  5
1a5
100
AcDbEntity
  8
Layer_1
 62
7
100
AcDbSpline
 70
8
 71
3
 72
8
 73
4
 74
0
 40
0
 40
0
 40
0
 40
0
 40
1
 40
1
 40
1
 40
1
 10
35.884115
 20
2.307723
 30
0.0
 10
35.884115
 20
0.589658
 30
0.0
 10
35.841782
 20
0.379795
 30
0.0
 10
35.448505
 20
0.148144
 30
0.0
  0
SPLINE
  5
1a6
100
AcDbEntity
  8
Layer_1
 62
7
100
AcDbSpline
 70
8
 71
3
 72
8
 73
4
 74
0
 40
0
 40
0
 40
0
 40
0
 40
1
 40
1
 40
1
 40
1
 10
35.448505
 20
0.148144
 30
0.0
 10
35.310871
 20
0.067079
 30
0.0
 10
35.190994
 20
0.051268
 30
0.0
 10
34.664055
 20
0.044687
 30
0.0
  0
SPLINE
  5
1a7
100
AcDbEntity
  8
Layer_1
 62
7
100
AcDbSpline
 70
8
 71
3
 72
8
 73
4
 74
0
 40
0
 40
0
 40
0
 40
0
 40
1
 40
1
 40
1
 40
1
 10
34.664055
 20
0.044687
 30
0.0
 10
34.321959
 20
0.040426
 30
0.0
 10
33.859055
 20
0.058036
 30
0.0
 10
33.635377
 20
0.083820
 30
0.0
  0
LWPOLYLINE
  5
1a8
100
AcDbEntity
  8
Layer_1
 62
7
100
AcDbPolyline
 90
21
 70
0
 10
35.022897
 20
2.325116
 30
0.0
 10
35.022897
 20
3.616943
 30
0.0
 10
31.769403
 20
3.616943
 30
0.0
 10
28.515911
 20
3.616943
 30
0.0
 10
28.515911
 20
4.023631
 30
0.0
 10
28.515911
 20
4.430316
 30
0.0
 10
31.769403
 20
4.430316
 30
0.0
 10
35.022897
 20
4.430316
 30
0.0
 10
35.022897
 20
4.908771
 30
0.0
 10
35.022897
 20
5.387226
 30
0.0
 10
35.453506
 20
5.387226
 30
0.0
 10
35.884115
 20
5.387226
 30
0.0
 10
35.884115
 20
4.908771
 30
0.0
 10
35.884115
 20
4.430316
 30
0.0
 10
37.008483
 20
4.430316
 30
0.0
 10
38.132853
 20
4.430316
 30
0.0
 10
38.132853
 20
4.023631
 30
0.0
 10
38.132853
 20
3.616943
 30
0.0
 10
37.008483
 20
3.616943
 30
0.0
 10
35.884115
 20
3.616943
 30
0.0
 10
35.884115
 20
2.307723
 30
0.0
  0
SPLINE
  5
1a9
100
AcDbEntity
  8
Layer_1
 62
7
100
AcDbSpline
 70
8
 71
3
 72
8
 73
4
 74
0
 40
0
 40
0
 40
0
 40
0
 40
1
 40
1
 40
1
 40
1
 10
31.112169
 20
1.284249
 30
0.0
 10
30.910649
 20
1.673693
 30
0.0
 10
30.639687
 20
2.083215
 30
0.0
 10
30.332330
 20
2.462871
 30
0.0
  0
SPLINE
  5
1aa
100
AcDbEntity
  8
Layer_1
 62
7
100
AcDbSpline
 70
8
 71
3
 72
8
 73
4
 74
0
 40
0
 40
0
 40
0
 40
0
 40
1
 40
1
 40
1
 40
1
 10
30.332330
 20
2.462871
 30
0.0
 10
30.140995
 20
2.699213
 30
0.0
 10
30.099816
 20
2.777721
 30
0.0
 10
30.149831
 20
2.810792
 30
0.0
  0
SPLINE
  5
1ab
100
AcDbEntity
  8
Layer_1
 62
7
100
AcDbSpline
 70
8
 71
3
 72
8
 73
4
 74
0
 40
0
 40
0
 40
0
 40
0
 40
1
 40
1
 40
1
 40
1
 10
30.149831
 20
2.810792
 30
0.0
 10
30.598892
 20
3.107698
 30
0.0
 10
30.783936
 20
3.197674
 30
0.0
 10
30.855042
 20
3.153687
 30
0.0
  0
SPLINE
  5
1ac
100
AcDbEntity
  8
Layer_1
 62
7
100
AcDbSpline
 70
8
 71
3
 72
8
 73
4
 74
0
 40
0
 40
0
 40
0
 40
0
 40
1
 40
1
 40
1
 40
1
 10
30.855042
 20
3.153687
 30
0.0
 10
30.984117
 20
3.073837
 30
0.0
 10
31.686108
 20
2.117592
 30
0.0
 10
31.878750
 20
1.759198
 30
0.0
  0
LWPOLYLINE
  5
1ad
100
AcDbEntity
  8
Layer_1
 62
7
100
AcDbPolyline
 90
2
 70
0
 10
33.635377
 20
0.083820
 30
0.0
 10
33.635377
 20
0.083820
 30
0.0
  0
SPLINE
  5
1ae
100
AcDbEntity
  8
Layer_1
 62
7
100
AcDbSpline
 70
8
 71
3
 72
8
 73
4
 74
0
 40
0
 40
0
 40
0
 40
0
 40
1
 40
1
 40
1
 40
1
 10
31.726293
 20
1.227435
 30
0.0
 10
31.542826
 20
1.120284
 30
0.0
 10
31.364436
 20
1.021898
 30
0.0
 10
31.329873
 20
1.008801
 30
0.0
  0
SPLINE
  5
1af
100
AcDbEntity
  8
Layer_1
 62
7
100
AcDbSpline
 70
8
 71
3
 72
8
 73
4
 74
0
 40
0
 40
0
 40
0
 40
0
 40
1
 40
1
 40
1
 40
1
 10
31.329873
 20
1.008801
 30
0.0
 10
31.290023
 20
0.993702
 30
0.0
 10
31.210360
 20
1.094492
 30
0.0
 10
31.112169
 20
1.284249
 30
0.0
  0
LWPOLYLINE
  5
1b0
100
AcDbEntity
  8
Layer_1
 62
7
100
AcDbPolyline
 90
3
 70
0
 10
31.878750
 20
1.759198
 30
0.0
 10
32.059866
 20
1.422250
 30
0.0
 10
31.726293
 20
1.227435
 30
0.0
  0
LWPOLYLINE
  5
1b1
100
AcDbEntity
  8
Layer_1
 62
7
100
AcDbPolyline
 90
3
 70
0
 10
31.112169
 20
1.284249
 30
0.0
 10
31.112169
 20
1.284249
 30
0.0
 10
31.112169
 20
1.284249
 30
0.0
  0
ENDSEC
  0
SECTION
  2
OBJECTS
  0
DICTIONARY
  5
C
330
0
100
AcDbDictionary
  3
ACAD_GROUP
350
D
  3
ACAD_MLINESTYLE
350
17
  0
DICTIONARY
  5
D
330
C
100
AcDbDictionary
  0
DICTIONARY
  5
1A
330
C
100
AcDbDictionary
  0
DICTIONARY
  5
17
330
C
100
AcDbDictionary
  3
STANDARD
350
18
  0
DICTIONARY
  5
19
330
C
100
AcDbDictionary
  0
ENDSEC
  0
EOF
