  0
SECTION
  2
HEADER
  9
$ACADVER
  1
AC1014
  9
$HANDSEED
  5
FFFF
  9
$MEASUREMENT
 70
     1
  0
ENDSEC
  0
SECTION
  2
TABLES
  0
TABLE
  2
VPORT
  5
8
330
0
100
AcDbSymbolTable
 70
     4
  0
VPORT
  5
2E
330
8
100
AcDbSymbolTableRecord
100
AcDbViewportTableRecord
  2
*ACTIVE
 70
     0
 10
0.0
 20
0.0
 11
1.0
 21
1.0
 12
210.0
 22
148.5
 13
0.0
 23
0.0
 14
10.0
 24
10.0
 15
10.0
 25
10.0
 16
0.0
 26
0.0
 36
1.0
 17
0.0
 27
0.0
 37
0.0
 40
341.0
 41
1.24
 42
50.0
 43
0.0
 44
0.0
 50
0.0
 51
0.0
 71
     0
 72
   100
 73
     1
 74
     3
 75
     0
 76
     0
 77
     0
 78
     0
  0
ENDTAB
  0
TABLE
  2
LTYPE
  5
5
330
0
100
AcDbSymbolTable
 70
     1
  0
LTYPE
  5
14
330
5
100
AcDbSymbolTableRecord
100
AcDbLinetypeTableRecord
  2
BYBLOCK
 70
     0
  3

 72
    65
 73
     0
 40
0.0
  0
LTYPE
  5
15
330
5
100
AcDbSymbolTableRecord
100
AcDbLinetypeTableRecord
  2
BYLAYER
 70
     0
  3

 72
    65
 73
     0
 40
0.0
  0
LTYPE
  5
16
330
5
100
AcDbSymbolTableRecord
100
AcDbLinetypeTableRecord
  2
CONTINUOUS
 70
     0
  3
Solid line
 72
    65
 73
     0
 40
0.0
  0
ENDTAB
  0
TABLE
  2
LAYER
  5
2
100
AcDbSymbolTable
 70
1
  0
LAYER
  5
50
100
AcDbSymbolTableRecord
100
AcDbLayerTableRecord
  2
0
 70
0
  6
CONTINUOUS
  0
ENDTAB
  0
TABLE
  2
STYLE
  5
3
330
0
100
AcDbSymbolTable
 70
     1
  0
STYLE
  5
11
330
3
100
AcDbSymbolTableRecord
100
AcDbTextStyleTableRecord
  2
STANDARD
 70
     0
 40
0.0
 41
1.0
 50
0.0
 71
     0
 42
2.5
  3
txt
  4

  0
ENDTAB
  0
TABLE
  2
VIEW
  5
6
330
0
100
AcDbSymbolTable
 70
     0
  0
ENDTAB
  0
TABLE
  2
UCS
  5
7
330
0
100
AcDbSymbolTable
 70
     0
  0
ENDTAB
  0
TABLE
  2
APPID
  5
9
330
0
100
AcDbSymbolTable
 70
     2
  0
APPID
  5
12
330
9
100
AcDbSymbolTableRecord
100
AcDbRegAppTableRecord
  2
ACAD
 70
     0
  0
ENDTAB
  0
TABLE
  2
DIMSTYLE
  5
A
330
0
100
AcDbSymbolTable
 70
     1
  0
DIMSTYLE
105
27
330
A
100
AcDbSymbolTableRecord
100
AcDbDimStyleTableRecord
  2
ISO-25
 70
     0
  3

  4

  5

  6

  7

 40
1.0
 41
2.5
 42
0.625
 43
3.75
 44
1.25
 45
0.0
 46
0.0
 47
0.0
 48
0.0
140
2.5
141
2.5
142
0.0
143
0.03937007874016
144
1.0
145
0.0
146
1.0
147
0.625
 71
     0
 72
     0
 73
     0
 74
     0
 75
     0
 76
     0
 77
     1
 78
     8
170
     0
171
     3
172
     1
173
     0
174
     0
175
     0
176
     0
177
     0
178
     0
270
     2
271
     2
272
     2
273
     2
274
     3
340
11
275
     0
280
     0
281
     0
282
     0
283
     0
284
     8
285
     0
286
     0
287
     3
288
     0
  0
ENDTAB
  0
TABLE
  2
BLOCK_RECORD
  5
1
330
0
100
AcDbSymbolTable
 70
     1
  0
BLOCK_RECORD
  5
1F
330
1
100
AcDbSymbolTableRecord
100
AcDbBlockTableRecord
  2
*MODEL_SPACE
  0
BLOCK_RECORD
  5
1B
330
1
100
AcDbSymbolTableRecord
100
AcDbBlockTableRecord
  2
*PAPER_SPACE
  0
ENDTAB
  0
ENDSEC
  0
SECTION
  2
BLOCKS
  0
BLOCK
  5
20
330
1F
100
AcDbEntity
  8
0
100
AcDbBlockBegin
  2
*MODEL_SPACE
 70
     0
 10
0.0
 20
0.0
 30
0.0
  3
*MODEL_SPACE
  1

  0
ENDBLK
  5
21
330
1F
100
AcDbEntity
  8
0
100
AcDbBlockEnd
  0
BLOCK
  5
1C
330
1B
100
AcDbEntity
 67
     1
  8
0
100
AcDbBlockBegin
  2
*PAPER_SPACE
  1

  0
ENDBLK
  5
1D
330
1B
100
AcDbEntity
 67
     1
  8
0
100
AcDbBlockEnd
  0
ENDSEC
  0
SECTION
  2
ENTITIES
  0
SPLINE
  5
100
100
AcDbEntity
  8
0
 62
7
100
AcDbSpline
 70
8
 71
3
 72
8
 73
4
 74
0
 40
0
 40
0
 40
0
 40
0
 40
1
 40
1
 40
1
 40
1
 10
119.556389
 20
246.398999
 30
0.0
 10
118.107339
 20
246.358692
 30
0.0
 10
116.880352
 20
246.000304
 30
0.0
 10
115.323056
 20
245.314208
 30
0.0
  0
SPLINE
  5
101
100
AcDbEntity
  8
0
 62
7
100
AcDbSpline
 70
8
 71
3
 72
8
 73
4
 74
0
 40
0
 40
0
 40
0
 40
0
 40
1
 40
1
 40
1
 40
1
 10
115.323056
 20
245.314208
 30
0.0
 10
113.596380
 20
244.553489
 30
0.0
 10
110.322431
 20
242.093239
 30
0.0
 10
110.322431
 20
241.557124
 30
0.0
  0
SPLINE
  5
102
100
AcDbEntity
  8
0
 62
7
100
AcDbSpline
 70
8
 71
3
 72
8
 73
4
 74
0
 40
0
 40
0
 40
0
 40
0
 40
1
 40
1
 40
1
 40
1
 10
110.322431
 20
241.557124
 30
0.0
 10
110.322431
 20
241.476030
 30
0.0
 10
109.877883
 20
240.684916
 30
0.0
 10
109.334653
 20
239.802055
 30
0.0
  0
SPLINE
  5
103
100
AcDbEntity
  8
0
 62
7
100
AcDbSpline
 70
8
 71
3
 72
8
 73
4
 74
0
 40
0
 40
0
 40
0
 40
0
 40
1
 40
1
 40
1
 40
1
 10
109.334653
 20
239.802055
 30
0.0
 10
107.886065
 20
237.447802
 30
0.0
 10
106.835126
 20
234.261581
 30
0.0
 10
106.618264
 20
231.555874
 30
0.0
  0
SPLINE
  5
104
100
AcDbEntity
  8
0
 62
7
100
AcDbSpline
 70
8
 71
3
 72
8
 73
4
 74
0
 40
0
 40
0
 40
0
 40
0
 40
1
 40
1
 40
1
 40
1
 10
106.618264
 20
231.555874
 30
0.0
 10
106.398173
 20
228.809869
 30
0.0
 10
105.987359
 20
228.275896
 30
0.0
 10
103.028750
 20
226.908027
 30
0.0
  0
SPLINE
  5
105
100
AcDbEntity
  8
0
 62
7
100
AcDbSpline
 70
8
 71
3
 72
8
 73
4
 74
0
 40
0
 40
0
 40
0
 40
0
 40
1
 40
1
 40
1
 40
1
 10
103.028750
 20
226.908027
 30
0.0
 10
101.473206
 20
226.188846
 30
0.0
 10
101.161269
 20
226.140495
 30
0.0
 10
100.118333
 20
226.484694
 30
0.0
  0
SPLINE
  5
106
100
AcDbEntity
  8
0
 62
7
100
AcDbSpline
 70
8
 71
3
 72
8
 73
4
 74
0
 40
0
 40
0
 40
0
 40
0
 40
1
 40
1
 40
1
 40
1
 10
100.118333
 20
226.484694
 30
0.0
 10
98.705983
 20
226.950812
 30
0.0
 10
98.131692
 20
226.674917
 30
0.0
 10
98.389722
 20
225.646846
 30
0.0
  0
SPLINE
  5
107
100
AcDbEntity
  8
0
 62
7
100
AcDbSpline
 70
8
 71
3
 72
8
 73
4
 74
0
 40
0
 40
0
 40
0
 40
0
 40
1
 40
1
 40
1
 40
1
 10
98.389722
 20
225.646846
 30
0.0
 10
98.542292
 20
225.038957
 30
0.0
 10
98.390764
 20
224.768179
 30
0.0
 10
97.631250
 20
224.306291
 30
0.0
  0
SPLINE
  5
108
100
AcDbEntity
  8
0
 62
7
100
AcDbSpline
 70
8
 71
3
 72
8
 73
4
 74
0
 40
0
 40
0
 40
0
 40
0
 40
1
 40
1
 40
1
 40
1
 10
98.504375
 20
221.651638
 30
0.0
 10
99.503385
 20
220.508638
 30
0.0
 10
100.712899
 20
219.113625
 30
0.0
 10
101.194306
 20
218.547194
 30
0.0
  0
SPLINE
  5
109
100
AcDbEntity
  8
0
 62
7
100
AcDbSpline
 70
8
 71
3
 72
8
 73
4
 74
0
 40
0
 40
0
 40
0
 40
0
 40
1
 40
1
 40
1
 40
1
 10
101.194306
 20
218.547194
 30
0.0
 10
102.039434
 20
217.552795
 30
0.0
 10
102.098822
 20
217.533107
 30
0.0
 10
102.852361
 20
218.026846
 30
0.0
  0
SPLINE
  5
10a
100
AcDbEntity
  8
0
 62
7
100
AcDbSpline
 70
8
 71
3
 72
8
 73
4
 74
0
 40
0
 40
0
 40
0
 40
0
 40
1
 40
1
 40
1
 40
1
 10
102.852361
 20
218.026846
 30
0.0
 10
103.831195
 20
218.668198
 30
0.0
 10
104.607431
 20
218.683901
 30
0.0
 10
104.607431
 20
218.062124
 30
0.0
  0
SPLINE
  5
10b
100
AcDbEntity
  8
0
 62
7
100
AcDbSpline
 70
8
 71
3
 72
8
 73
4
 74
0
 40
0
 40
0
 40
0
 40
0
 40
1
 40
1
 40
1
 40
1
 10
104.607431
 20
218.062124
 30
0.0
 10
104.607431
 20
217.800185
 30
0.0
 10
104.726565
 20
217.585874
 30
0.0
 10
104.880833
 20
217.585874
 30
0.0
  0
SPLINE
  5
10c
100
AcDbEntity
  8
0
 62
7
100
AcDbSpline
 70
8
 71
3
 72
8
 73
4
 74
0
 40
0
 40
0
 40
0
 40
0
 40
1
 40
1
 40
1
 40
1
 10
104.880833
 20
217.585874
 30
0.0
 10
105.332417
 20
217.585874
 30
0.0
 10
105.526363
 20
215.899963
 30
0.0
 10
105.154236
 20
215.204624
 30
0.0
  0
SPLINE
  5
10d
100
AcDbEntity
  8
0
 62
7
100
AcDbSpline
 70
8
 71
3
 72
8
 73
4
 74
0
 40
0
 40
0
 40
0
 40
0
 40
1
 40
1
 40
1
 40
1
 10
105.154236
 20
215.204624
 30
0.0
 10
104.966479
 20
214.853797
 30
0.0
 10
104.117445
 20
213.940890
 30
0.0
 10
103.266875
 20
213.176152
 30
0.0
  0
SPLINE
  5
10e
100
AcDbEntity
  8
0
 62
7
100
AcDbSpline
 70
8
 71
3
 72
8
 73
4
 74
0
 40
0
 40
0
 40
0
 40
0
 40
1
 40
1
 40
1
 40
1
 10
103.266875
 20
213.176152
 30
0.0
 10
102.416302
 20
212.411414
 30
0.0
 10
101.769029
 20
211.737129
 30
0.0
 10
101.829306
 20
211.676846
 30
0.0
  0
SPLINE
  5
10f
100
AcDbEntity
  8
0
 62
7
100
AcDbSpline
 70
8
 71
3
 72
8
 73
4
 74
0
 40
0
 40
0
 40
0
 40
0
 40
1
 40
1
 40
1
 40
1
 10
101.829306
 20
211.676846
 30
0.0
 10
101.889585
 20
211.616569
 30
0.0
 10
102.486262
 20
211.722273
 30
0.0
 10
103.152222
 20
211.906152
 30
0.0
  0
SPLINE
  5
110
100
AcDbEntity
  8
0
 62
7
100
AcDbSpline
 70
8
 71
3
 72
8
 73
4
 74
0
 40
0
 40
0
 40
0
 40
0
 40
1
 40
1
 40
1
 40
1
 10
103.152222
 20
211.906152
 30
0.0
 10
104.760003
 20
212.350085
 30
0.0
 10
105.045550
 20
211.992721
 30
0.0
 10
104.448681
 20
210.301013
 30
0.0
  0
SPLINE
  5
111
100
AcDbEntity
  8
0
 62
7
100
AcDbSpline
 70
8
 71
3
 72
8
 73
4
 74
0
 40
0
 40
0
 40
0
 40
0
 40
1
 40
1
 40
1
 40
1
 10
104.448681
 20
210.301013
 30
0.0
 10
103.841194
 20
208.579226
 30
0.0
 10
103.845879
 20
208.195593
 30
0.0
 10
104.448681
 20
208.695874
 30
0.0
  0
SPLINE
  5
112
100
AcDbEntity
  8
0
 62
7
100
AcDbSpline
 70
8
 71
3
 72
8
 73
4
 74
0
 40
0
 40
0
 40
0
 40
0
 40
1
 40
1
 40
1
 40
1
 10
104.448681
 20
208.695874
 30
0.0
 10
104.710617
 20
208.913264
 30
0.0
 10
104.924931
 20
209.298001
 30
0.0
 10
104.924931
 20
209.551360
 30
0.0
  0
SPLINE
  5
113
100
AcDbEntity
  8
0
 62
7
100
AcDbSpline
 70
8
 71
3
 72
8
 73
4
 74
0
 40
0
 40
0
 40
0
 40
0
 40
1
 40
1
 40
1
 40
1
 10
104.924931
 20
209.551360
 30
0.0
 10
104.924931
 20
209.819031
 30
0.0
 10
105.157699
 20
209.966100
 30
0.0
 10
105.480556
 20
209.904138
 30
0.0
  0
SPLINE
  5
114
100
AcDbEntity
  8
0
 62
7
100
AcDbSpline
 70
8
 71
3
 72
8
 73
4
 74
0
 40
0
 40
0
 40
0
 40
0
 40
1
 40
1
 40
1
 40
1
 10
105.480556
 20
209.904138
 30
0.0
 10
105.904817
 20
209.822723
 30
0.0
 10
106.096827
 20
209.316170
 30
0.0
 10
106.309583
 20
207.743374
 30
0.0
  0
SPLINE
  5
115
100
AcDbEntity
  8
0
 62
7
100
AcDbSpline
 70
8
 71
3
 72
8
 73
4
 74
0
 40
0
 40
0
 40
0
 40
0
 40
1
 40
1
 40
1
 40
1
 10
106.309583
 20
207.743374
 30
0.0
 10
106.532107
 20
206.098321
 30
0.0
 10
106.643337
 20
205.823459
 30
0.0
 10
106.856389
 20
206.393999
 30
0.0
  0
SPLINE
  5
116
100
AcDbEntity
  8
0
 62
7
100
AcDbSpline
 70
8
 71
3
 72
8
 73
4
 74
0
 40
0
 40
0
 40
0
 40
0
 40
1
 40
1
 40
1
 40
1
 10
106.856389
 20
206.393999
 30
0.0
 10
107.300965
 20
207.584531
 30
0.0
 10
107.782431
 20
207.195629
 30
0.0
 10
107.782431
 20
205.644346
 30
0.0
  0
SPLINE
  5
117
100
AcDbEntity
  8
0
 62
7
100
AcDbSpline
 70
8
 71
3
 72
8
 73
4
 74
0
 40
0
 40
0
 40
0
 40
0
 40
1
 40
1
 40
1
 40
1
 10
107.782431
 20
205.644346
 30
0.0
 10
107.782431
 20
204.408411
 30
0.0
 10
107.863561
 20
204.211239
 30
0.0
 10
108.311597
 20
204.383166
 30
0.0
  0
SPLINE
  5
118
100
AcDbEntity
  8
0
 62
7
100
AcDbSpline
 70
8
 71
3
 72
8
 73
4
 74
0
 40
0
 40
0
 40
0
 40
0
 40
1
 40
1
 40
1
 40
1
 10
108.311597
 20
204.383166
 30
0.0
 10
108.603903
 20
204.495335
 30
0.0
 10
108.953943
 20
204.405032
 30
0.0
 10
109.096528
 20
204.180319
 30
0.0
  0
SPLINE
  5
119
100
AcDbEntity
  8
0
 62
7
100
AcDbSpline
 70
8
 71
3
 72
8
 73
4
 74
0
 40
0
 40
0
 40
0
 40
0
 40
1
 40
1
 40
1
 40
1
 10
109.096528
 20
204.180319
 30
0.0
 10
109.274221
 20
203.900278
 30
0.0
 10
109.357781
 20
203.998220
 30
0.0
 10
109.361111
 20
204.488999
 30
0.0
  0
SPLINE
  5
11a
100
AcDbEntity
  8
0
 62
7
100
AcDbSpline
 70
8
 71
3
 72
8
 73
4
 74
0
 40
0
 40
0
 40
0
 40
0
 40
1
 40
1
 40
1
 40
1
 10
109.361111
 20
204.488999
 30
0.0
 10
109.363947
 20
204.906062
 30
0.0
 10
109.562849
 20
205.203374
 30
0.0
 10
109.837361
 20
205.203374
 30
0.0
  0
SPLINE
  5
11b
100
AcDbEntity
  8
0
 62
7
100
AcDbSpline
 70
8
 71
3
 72
8
 73
4
 74
0
 40
0
 40
0
 40
0
 40
0
 40
1
 40
1
 40
1
 40
1
 10
109.837361
 20
205.203374
 30
0.0
 10
110.095970
 20
205.203374
 30
0.0
 10
110.368472
 20
204.881906
 30
0.0
 10
110.445903
 20
204.488999
 30
0.0
  0
SPLINE
  5
11c
100
AcDbEntity
  8
0
 62
7
100
AcDbSpline
 70
8
 71
3
 72
8
 73
4
 74
0
 40
0
 40
0
 40
0
 40
0
 40
1
 40
1
 40
1
 40
1
 10
110.445903
 20
204.488999
 30
0.0
 10
110.523336
 20
204.096092
 30
0.0
 10
110.728836
 20
203.131685
 30
0.0
 10
110.895694
 20
202.345874
 30
0.0
  0
LWPOLYLINE
  5
11d
100
AcDbEntity
  8
0
 62
7
100
AcDbPolyline
 90
3
 70
0
 10
97.631250
 20
224.306291
 30
0.0
 10
96.687569
 20
223.733027
 30
0.0
 10
98.504375
 20
221.651638
 30
0.0
  0
SPLINE
  5
11e
100
AcDbEntity
  8
0
 62
7
100
AcDbSpline
 70
8
 71
3
 72
8
 73
4
 74
0
 40
0
 40
0
 40
0
 40
0
 40
1
 40
1
 40
1
 40
1
 10
111.230833
 20
202.425249
 30
0.0
 10
111.258945
 20
203.537191
 30
0.0
 10
111.400042
 20
203.933374
 30
0.0
 10
111.751181
 20
203.933374
 30
0.0
  0
SPLINE
  5
11f
100
AcDbEntity
  8
0
 62
7
100
AcDbSpline
 70
8
 71
3
 72
8
 73
4
 74
0
 40
0
 40
0
 40
0
 40
0
 40
1
 40
1
 40
1
 40
1
 10
111.751181
 20
203.933374
 30
0.0
 10
112.067038
 20
203.933374
 30
0.0
 10
112.239905
 20
203.585860
 30
0.0
 10
112.271528
 20
202.901499
 30
0.0
  0
SPLINE
  5
120
100
AcDbEntity
  8
0
 62
7
100
AcDbSpline
 70
8
 71
3
 72
8
 73
4
 74
0
 40
0
 40
0
 40
0
 40
0
 40
1
 40
1
 40
1
 40
1
 10
112.271528
 20
202.901499
 30
0.0
 10
112.311728
 20
202.031645
 30
0.0
 10
112.349119
 20
202.088284
 30
0.0
 10
112.509653
 20
203.271916
 30
0.0
  0
SPLINE
  5
121
100
AcDbEntity
  8
0
 62
7
100
AcDbSpline
 70
8
 71
3
 72
8
 73
4
 74
0
 40
0
 40
0
 40
0
 40
0
 40
1
 40
1
 40
1
 40
1
 10
112.509653
 20
203.271916
 30
0.0
 10
112.614397
 20
204.044169
 30
0.0
 10
112.882274
 20
204.734733
 30
0.0
 10
113.100556
 20
204.806499
 30
0.0
  0
SPLINE
  5
122
100
AcDbEntity
  8
0
 62
7
100
AcDbSpline
 70
8
 71
3
 72
8
 73
4
 74
0
 40
0
 40
0
 40
0
 40
0
 40
1
 40
1
 40
1
 40
1
 10
113.100556
 20
204.806499
 30
0.0
 10
113.398856
 20
204.904577
 30
0.0
 10
113.497431
 20
204.209342
 30
0.0
 10
113.497431
 20
202.001916
 30
0.0
  0
SPLINE
  5
123
100
AcDbEntity
  8
0
 62
7
100
AcDbSpline
 70
8
 71
3
 72
8
 73
4
 74
0
 40
0
 40
0
 40
0
 40
0
 40
1
 40
1
 40
1
 40
1
 10
113.497431
 20
202.001916
 30
0.0
 10
113.497431
 20
199.052056
 30
0.0
 10
113.697354
 20
198.554535
 30
0.0
 10
114.105972
 20
200.502610
 30
0.0
  0
SPLINE
  5
124
100
AcDbEntity
  8
0
 62
7
100
AcDbSpline
 70
8
 71
3
 72
8
 73
4
 74
0
 40
0
 40
0
 40
0
 40
0
 40
1
 40
1
 40
1
 40
1
 10
114.105972
 20
200.502610
 30
0.0
 10
114.276322
 20
201.314741
 30
0.0
 10
114.483930
 20
201.545196
 30
0.0
 10
115.023194
 20
201.525666
 30
0.0
  0
SPLINE
  5
125
100
AcDbEntity
  8
0
 62
7
100
AcDbSpline
 70
8
 71
3
 72
8
 73
4
 74
0
 40
0
 40
0
 40
0
 40
0
 40
1
 40
1
 40
1
 40
1
 10
115.023194
 20
201.525666
 30
0.0
 10
115.420617
 20
201.511267
 30
0.0
 10
115.719931
 20
201.694646
 30
0.0
 10
115.719931
 20
201.948999
 30
0.0
  0
SPLINE
  5
126
100
AcDbEntity
  8
0
 62
7
100
AcDbSpline
 70
8
 71
3
 72
8
 73
4
 74
0
 40
0
 40
0
 40
0
 40
0
 40
1
 40
1
 40
1
 40
1
 10
115.719931
 20
201.948999
 30
0.0
 10
115.719931
 20
202.201729
 30
0.0
 10
115.960257
 20
202.344076
 30
0.0
 10
116.275556
 20
202.284138
 30
0.0
  0
SPLINE
  5
127
100
AcDbEntity
  8
0
 62
7
100
AcDbSpline
 70
8
 71
3
 72
8
 73
4
 74
0
 40
0
 40
0
 40
0
 40
0
 40
1
 40
1
 40
1
 40
1
 10
116.275556
 20
202.284138
 30
0.0
 10
116.704979
 20
202.202497
 30
0.0
 10
116.845204
 20
201.806229
 30
0.0
 10
116.919375
 20
200.520249
 30
0.0
  0
SPLINE
  5
128
100
AcDbEntity
  8
0
 62
7
100
AcDbSpline
 70
8
 71
3
 72
8
 73
4
 74
0
 40
0
 40
0
 40
0
 40
0
 40
1
 40
1
 40
1
 40
1
 10
116.919375
 20
200.520249
 30
0.0
 10
117.011501
 20
198.922936
 30
0.0
 10
116.982915
 20
198.853374
 30
0.0
 10
116.205000
 20
198.853374
 30
0.0
  0
SPLINE
  5
129
100
AcDbEntity
  8
0
 62
7
100
AcDbSpline
 70
8
 71
3
 72
8
 73
4
 74
0
 40
0
 40
0
 40
0
 40
0
 40
1
 40
1
 40
1
 40
1
 10
116.205000
 20
198.853374
 30
0.0
 10
115.318961
 20
198.853374
 30
0.0
 10
115.211355
 20
198.444784
 30
0.0
 10
115.719931
 20
197.107124
 30
0.0
  0
SPLINE
  5
12a
100
AcDbEntity
  8
0
 62
7
100
AcDbSpline
 70
8
 71
3
 72
8
 73
4
 74
0
 40
0
 40
0
 40
0
 40
0
 40
1
 40
1
 40
1
 40
1
 10
115.719931
 20
197.107124
 30
0.0
 10
116.225879
 20
195.776382
 30
0.0
 10
115.671798
 20
195.235232
 30
0.0
 10
112.959444
 20
194.408374
 30
0.0
  0
SPLINE
  5
12b
100
AcDbEntity
  8
0
 62
7
100
AcDbSpline
 70
8
 71
3
 72
8
 73
4
 74
0
 40
0
 40
0
 40
0
 40
0
 40
1
 40
1
 40
1
 40
1
 10
112.959444
 20
194.408374
 30
0.0
 10
111.593712
 20
193.992032
 30
0.0
 10
109.957540
 20
193.398490
 30
0.0
 10
109.317014
 20
193.085458
 30
0.0
  0
SPLINE
  5
12c
100
AcDbEntity
  8
0
 62
7
100
AcDbSpline
 70
8
 71
3
 72
8
 73
4
 74
0
 40
0
 40
0
 40
0
 40
0
 40
1
 40
1
 40
1
 40
1
 10
109.317014
 20
193.085458
 30
0.0
 10
107.638130
 20
192.264970
 30
0.0
 10
105.242431
 20
190.599210
 30
0.0
 10
105.242431
 20
190.254416
 30
0.0
  0
SPLINE
  5
12d
100
AcDbEntity
  8
0
 62
7
100
AcDbSpline
 70
8
 71
3
 72
8
 73
4
 74
0
 40
0
 40
0
 40
0
 40
0
 40
1
 40
1
 40
1
 40
1
 10
105.242431
 20
190.254416
 30
0.0
 10
105.242431
 20
190.092166
 30
0.0
 10
104.992399
 20
189.966803
 30
0.0
 10
104.686806
 20
189.972194
 30
0.0
  0
SPLINE
  5
12e
100
AcDbEntity
  8
0
 62
7
100
AcDbSpline
 70
8
 71
3
 72
8
 73
4
 74
0
 40
0
 40
0
 40
0
 40
0
 40
1
 40
1
 40
1
 40
1
 10
104.686806
 20
189.972194
 30
0.0
 10
104.003537
 20
189.984267
 30
0.0
 10
102.428091
 20
192.048138
 30
0.0
 10
101.238403
 20
194.487749
 30
0.0
  0
SPLINE
  5
12f
100
AcDbEntity
  8
0
 62
7
100
AcDbSpline
 70
8
 71
3
 72
8
 73
4
 74
0
 40
0
 40
0
 40
0
 40
0
 40
1
 40
1
 40
1
 40
1
 10
101.238403
 20
194.487749
 30
0.0
 10
100.727259
 20
195.535920
 30
0.0
 10
100.134784
 20
196.313405
 30
0.0
 10
99.853750
 20
196.313374
 30
0.0
  0
SPLINE
  5
130
100
AcDbEntity
  8
0
 62
7
100
AcDbSpline
 70
8
 71
3
 72
8
 73
4
 74
0
 40
0
 40
0
 40
0
 40
0
 40
1
 40
1
 40
1
 40
1
 10
99.853750
 20
196.313374
 30
0.0
 10
99.584535
 20
196.313343
 30
0.0
 10
98.225681
 20
196.081520
 30
0.0
 10
96.828681
 20
195.801846
 30
0.0
  0
SPLINE
  5
131
100
AcDbEntity
  8
0
 62
7
100
AcDbSpline
 70
8
 71
3
 72
8
 73
4
 74
0
 40
0
 40
0
 40
0
 40
0
 40
1
 40
1
 40
1
 40
1
 10
96.828681
 20
195.801846
 30
0.0
 10
93.776619
 20
195.190838
 30
0.0
 10
87.239294
 20
195.101837
 30
0.0
 10
85.239931
 20
195.643096
 30
0.0
  0
SPLINE
  5
132
100
AcDbEntity
  8
0
 62
7
100
AcDbSpline
 70
8
 71
3
 72
8
 73
4
 74
0
 40
0
 40
0
 40
0
 40
0
 40
1
 40
1
 40
1
 40
1
 10
85.239931
 20
195.643096
 30
0.0
 10
84.454117
 20
195.855833
 30
0.0
 10
83.280301
 20
196.168182
 30
0.0
 10
82.638194
 20
196.331013
 30
0.0
  0
SPLINE
  5
133
100
AcDbEntity
  8
0
 62
7
100
AcDbSpline
 70
8
 71
3
 72
8
 73
4
 74
0
 40
0
 40
0
 40
0
 40
0
 40
1
 40
1
 40
1
 40
1
 10
82.638194
 20
196.331013
 30
0.0
 10
81.996088
 20
196.493847
 30
0.0
 10
80.638777
 20
197.093002
 30
0.0
 10
79.621944
 20
197.662749
 30
0.0
  0
SPLINE
  5
134
100
AcDbEntity
  8
0
 62
7
100
AcDbSpline
 70
8
 71
3
 72
8
 73
4
 74
0
 40
0
 40
0
 40
0
 40
0
 40
1
 40
1
 40
1
 40
1
 10
79.621944
 20
197.662749
 30
0.0
 10
78.605112
 20
198.232499
 30
0.0
 10
77.397963
 20
198.909172
 30
0.0
 10
76.932014
 20
199.170874
 30
0.0
  0
SPLINE
  5
135
100
AcDbEntity
  8
0
 62
7
100
AcDbSpline
 70
8
 71
3
 72
8
 73
4
 74
0
 40
0
 40
0
 40
0
 40
0
 40
1
 40
1
 40
1
 40
1
 10
76.932014
 20
199.170874
 30
0.0
 10
76.466065
 20
199.432576
 30
0.0
 10
74.648207
 20
200.479539
 30
0.0
 10
72.892708
 20
201.499208
 30
0.0
  0
SPLINE
  5
136
100
AcDbEntity
  8
0
 62
7
100
AcDbSpline
 70
8
 71
3
 72
8
 73
4
 74
0
 40
0
 40
0
 40
0
 40
0
 40
1
 40
1
 40
1
 40
1
 10
72.892708
 20
201.499208
 30
0.0
 10
71.137210
 20
202.518882
 30
0.0
 10
69.015125
 20
203.559506
 30
0.0
 10
68.183125
 20
203.809902
 30
0.0
  0
SPLINE
  5
137
100
AcDbEntity
  8
0
 62
7
100
AcDbSpline
 70
8
 71
3
 72
8
 73
4
 74
0
 40
0
 40
0
 40
0
 40
0
 40
1
 40
1
 40
1
 40
1
 10
68.183125
 20
203.809902
 30
0.0
 10
67.351125
 20
204.060295
 30
0.0
 10
66.163695
 20
204.600652
 30
0.0
 10
65.546111
 20
205.009346
 30
0.0
  0
SPLINE
  5
138
100
AcDbEntity
  8
0
 62
7
100
AcDbSpline
 70
8
 71
3
 72
8
 73
4
 74
0
 40
0
 40
0
 40
0
 40
0
 40
1
 40
1
 40
1
 40
1
 10
65.546111
 20
205.009346
 30
0.0
 10
64.928530
 20
205.418047
 30
0.0
 10
63.859534
 20
206.039599
 30
0.0
 10
63.164861
 20
206.393999
 30
0.0
  0
SPLINE
  5
139
100
AcDbEntity
  8
0
 62
7
100
AcDbSpline
 70
8
 71
3
 72
8
 73
4
 74
0
 40
0
 40
0
 40
0
 40
0
 40
1
 40
1
 40
1
 40
1
 10
63.164861
 20
206.393999
 30
0.0
 10
61.969969
 20
207.003588
 30
0.0
 10
61.841741
 20
207.010979
 30
0.0
 10
60.889444
 20
206.517471
 30
0.0
  0
SPLINE
  5
13a
100
AcDbEntity
  8
0
 62
7
100
AcDbSpline
 70
8
 71
3
 72
8
 73
4
 74
0
 40
0
 40
0
 40
0
 40
0
 40
1
 40
1
 40
1
 40
1
 10
60.889444
 20
206.517471
 30
0.0
 10
59.225654
 20
205.655246
 30
0.0
 10
54.978867
 20
202.948961
 30
0.0
 10
54.019097
 20
202.143027
 30
0.0
  0
SPLINE
  5
13b
100
AcDbEntity
  8
0
 62
7
100
AcDbSpline
 70
8
 71
3
 72
8
 73
4
 74
0
 40
0
 40
0
 40
0
 40
0
 40
1
 40
1
 40
1
 40
1
 10
54.019097
 20
202.143027
 30
0.0
 10
53.525482
 20
201.728527
 30
0.0
 10
52.994975
 20
201.393374
 30
0.0
 10
52.837292
 20
201.393374
 30
0.0
  0
SPLINE
  5
13c
100
AcDbEntity
  8
0
 62
7
100
AcDbSpline
 70
8
 71
3
 72
8
 73
4
 74
0
 40
0
 40
0
 40
0
 40
0
 40
1
 40
1
 40
1
 40
1
 10
52.837292
 20
201.393374
 30
0.0
 10
52.679608
 20
201.393374
 30
0.0
 10
51.790877
 20
200.821123
 30
0.0
 10
50.870556
 20
200.123374
 30
0.0
  0
SPLINE
  5
13d
100
AcDbEntity
  8
0
 62
7
100
AcDbSpline
 70
8
 71
3
 72
8
 73
4
 74
0
 40
0
 40
0
 40
0
 40
0
 40
1
 40
1
 40
1
 40
1
 10
50.870556
 20
200.123374
 30
0.0
 10
49.950229
 20
199.425625
 30
0.0
 10
49.071395
 20
198.853939
 30
0.0
 10
48.912639
 20
198.853374
 30
0.0
  0
SPLINE
  5
13e
100
AcDbEntity
  8
0
 62
7
100
AcDbSpline
 70
8
 71
3
 72
8
 73
4
 74
0
 40
0
 40
0
 40
0
 40
0
 40
1
 40
1
 40
1
 40
1
 10
48.912639
 20
198.853374
 30
0.0
 10
48.753883
 20
198.852623
 30
0.0
 10
47.862239
 20
198.281874
 30
0.0
 10
46.937083
 20
197.583374
 30
0.0
  0
SPLINE
  5
13f
100
AcDbEntity
  8
0
 62
7
100
AcDbSpline
 70
8
 71
3
 72
8
 73
4
 74
0
 40
0
 40
0
 40
0
 40
0
 40
1
 40
1
 40
1
 40
1
 10
46.937083
 20
197.583374
 30
0.0
 10
46.011928
 20
196.884874
 30
0.0
 10
45.176813
 20
196.313374
 30
0.0
 10
45.076181
 20
196.313374
 30
0.0
  0
SPLINE
  5
140
100
AcDbEntity
  8
0
 62
7
100
AcDbSpline
 70
8
 71
3
 72
8
 73
4
 74
0
 40
0
 40
0
 40
0
 40
0
 40
1
 40
1
 40
1
 40
1
 10
45.076181
 20
196.313374
 30
0.0
 10
44.975546
 20
196.313374
 30
0.0
 10
43.168533
 20
195.170374
 30
0.0
 10
41.063333
 20
193.773374
 30
0.0
  0
SPLINE
  5
141
100
AcDbEntity
  8
0
 62
7
100
AcDbSpline
 70
8
 71
3
 72
8
 73
4
 74
0
 40
0
 40
0
 40
0
 40
0
 40
1
 40
1
 40
1
 40
1
 10
41.063333
 20
193.773374
 30
0.0
 10
38.958133
 20
192.376374
 30
0.0
 10
37.173823
 20
191.233374
 30
0.0
 10
37.094583
 20
191.233374
 30
0.0
  0
SPLINE
  5
142
100
AcDbEntity
  8
0
 62
7
100
AcDbSpline
 70
8
 71
3
 72
8
 73
4
 74
0
 40
0
 40
0
 40
0
 40
0
 40
1
 40
1
 40
1
 40
1
 10
37.094583
 20
191.233374
 30
0.0
 10
37.015341
 20
191.233374
 30
0.0
 10
36.179204
 20
190.661874
 30
0.0
 10
35.233681
 20
189.963374
 30
0.0
  0
SPLINE
  5
143
100
AcDbEntity
  8
0
 62
7
100
AcDbSpline
 70
8
 71
3
 72
8
 73
4
 74
0
 40
0
 40
0
 40
0
 40
0
 40
1
 40
1
 40
1
 40
1
 10
35.233681
 20
189.963374
 30
0.0
 10
34.288157
 20
189.264874
 30
0.0
 10
33.425661
 20
188.693374
 30
0.0
 10
33.319861
 20
188.693374
 30
0.0
  0
SPLINE
  5
144
100
AcDbEntity
  8
0
 62
7
100
AcDbSpline
 70
8
 71
3
 72
8
 73
4
 74
0
 40
0
 40
0
 40
0
 40
0
 40
1
 40
1
 40
1
 40
1
 10
33.319861
 20
188.693374
 30
0.0
 10
33.214067
 20
188.693374
 30
0.0
 10
31.487652
 20
187.612373
 30
0.0
 10
29.483403
 20
186.294485
 30
0.0
  0
SPLINE
  5
145
100
AcDbEntity
  8
0
 62
7
100
AcDbSpline
 70
8
 71
3
 72
8
 73
4
 74
0
 40
0
 40
0
 40
0
 40
0
 40
1
 40
1
 40
1
 40
1
 10
29.483403
 20
186.294485
 30
0.0
 10
27.479154
 20
184.976598
 30
0.0
 10
25.595202
 20
183.804885
 30
0.0
 10
25.302986
 20
183.692749
 30
0.0
  0
SPLINE
  5
146
100
AcDbEntity
  8
0
 62
7
100
AcDbSpline
 70
8
 71
3
 72
8
 73
4
 74
0
 40
0
 40
0
 40
0
 40
0
 40
1
 40
1
 40
1
 40
1
 10
25.302986
 20
183.692749
 30
0.0
 10
25.010768
 20
183.580617
 30
0.0
 10
23.958908
 20
182.947115
 30
0.0
 10
22.957014
 20
182.281638
 30
0.0
  0
SPLINE
  5
147
100
AcDbEntity
  8
0
 62
7
100
AcDbSpline
 70
8
 71
3
 72
8
 73
4
 74
0
 40
0
 40
0
 40
0
 40
0
 40
1
 40
1
 40
1
 40
1
 10
22.957014
 20
182.281638
 30
0.0
 10
21.955117
 20
181.616158
 30
0.0
 10
21.018201
 20
181.073374
 30
0.0
 10
20.875625
 20
181.073374
 30
0.0
  0
SPLINE
  5
148
100
AcDbEntity
  8
0
 62
7
100
AcDbSpline
 70
8
 71
3
 72
8
 73
4
 74
0
 40
0
 40
0
 40
0
 40
0
 40
1
 40
1
 40
1
 40
1
 10
20.875625
 20
181.073374
 30
0.0
 10
20.733052
 20
181.073374
 30
0.0
 10
20.112928
 20
180.731538
 30
0.0
 10
19.499792
 20
180.314902
 30
0.0
  0
SPLINE
  5
149
100
AcDbEntity
  8
0
 62
7
100
AcDbSpline
 70
8
 71
3
 72
8
 73
4
 74
0
 40
0
 40
0
 40
0
 40
0
 40
1
 40
1
 40
1
 40
1
 10
19.499792
 20
180.314902
 30
0.0
 10
18.886656
 20
179.898263
 30
0.0
 10
17.392167
 20
179.020134
 30
0.0
 10
16.174861
 20
178.365805
 30
0.0
  0
SPLINE
  5
14a
100
AcDbEntity
  8
0
 62
7
100
AcDbSpline
 70
8
 71
3
 72
8
 73
4
 74
0
 40
0
 40
0
 40
0
 40
0
 40
1
 40
1
 40
1
 40
1
 10
16.174861
 20
178.365805
 30
0.0
 10
14.957554
 20
177.711473
 30
0.0
 10
13.246806
 20
176.787629
 30
0.0
 10
12.373681
 20
176.310874
 30
0.0
  0
SPLINE
  5
14b
100
AcDbEntity
  8
0
 62
7
100
AcDbSpline
 70
8
 71
3
 72
8
 73
4
 74
0
 40
0
 40
0
 40
0
 40
0
 40
1
 40
1
 40
1
 40
1
 10
12.373681
 20
176.310874
 30
0.0
 10
11.500556
 20
175.834122
 30
0.0
 10
9.214556
 20
174.620298
 30
0.0
 10
7.293681
 20
173.612124
 30
0.0
  0
SPLINE
  5
14c
100
AcDbEntity
  8
0
 62
7
100
AcDbSpline
 70
8
 71
3
 72
8
 73
4
 74
0
 40
0
 40
0
 40
0
 40
0
 40
1
 40
1
 40
1
 40
1
 10
7.293681
 20
173.612124
 30
0.0
 10
5.372806
 20
172.603947
 30
0.0
 10
3.574160
 20
171.583632
 30
0.0
 10
3.298472
 20
171.345527
 30
0.0
  0
SPLINE
  5
14d
100
AcDbEntity
  8
0
 62
7
100
AcDbSpline
 70
8
 71
3
 72
8
 73
4
 74
0
 40
0
 40
0
 40
0
 40
0
 40
1
 40
1
 40
1
 40
1
 10
3.298472
 20
171.345527
 30
0.0
 10
3.022785
 20
171.107425
 30
0.0
 10
2.563606
 20
170.913374
 30
0.0
 10
2.284236
 20
170.913374
 30
0.0
  0
SPLINE
  5
14e
100
AcDbEntity
  8
0
 62
7
100
AcDbSpline
 70
8
 71
3
 72
8
 73
4
 74
0
 40
0
 40
0
 40
0
 40
0
 40
1
 40
1
 40
1
 40
1
 10
2.284236
 20
170.913374
 30
0.0
 10
2.004866
 20
170.913374
 30
0.0
 10
1.588949
 20
170.728451
 30
0.0
 10
1.358194
 20
170.498860
 30
0.0
  0
SPLINE
  5
14f
100
AcDbEntity
  8
0
 62
7
100
AcDbSpline
 70
8
 71
3
 72
8
 73
4
 74
0
 40
0
 40
0
 40
0
 40
0
 40
1
 40
1
 40
1
 40
1
 10
1.358194
 20
170.498860
 30
0.0
 10
1.127440
 20
170.269267
 30
0.0
 10
0.657931
 20
169.906851
 30
0.0
 10
0.308681
 20
169.696291
 30
0.0
  0
SPLINE
  5
150
100
AcDbEntity
  8
0
 62
7
100
AcDbSpline
 70
8
 71
3
 72
8
 73
4
 74
0
 40
0
 40
0
 40
0
 40
0
 40
1
 40
1
 40
1
 40
1
 10
0.308681
 20
169.696291
 30
0.0
 10
-0.999898
 20
168.907358
 30
0.0
 10
2.167168
 20
169.716981
 30
0.0
 10
4.753681
 20
170.833999
 30
0.0
  0
SPLINE
  5
151
100
AcDbEntity
  8
0
 62
7
100
AcDbSpline
 70
8
 71
3
 72
8
 73
4
 74
0
 40
0
 40
0
 40
0
 40
0
 40
1
 40
1
 40
1
 40
1
 10
4.753681
 20
170.833999
 30
0.0
 10
6.150681
 20
171.437311
 30
0.0
 10
7.700517
 20
172.059944
 30
0.0
 10
8.202083
 20
172.209833
 30
0.0
  0
LWPOLYLINE
  5
152
100
AcDbEntity
  8
0
 62
7
100
AcDbPolyline
 90
3
 70
0
 10
110.895694
 20
202.345874
 30
0.0
 10
111.195556
 20
200.917124
 30
0.0
 10
111.230833
 20
202.425249
 30
0.0
  0
SPLINE
  5
153
100
AcDbEntity
  8
0
 62
7
100
AcDbSpline
 70
8
 71
3
 72
8
 73
4
 74
0
 40
0
 40
0
 40
0
 40
0
 40
1
 40
1
 40
1
 40
1
 10
8.907639
 20
171.142680
 30
0.0
 10
8.716182
 20
169.884708
 30
0.0
 10
8.143382
 20
168.165966
 30
0.0
 10
4.903611
 20
159.148235
 30
0.0
  0
SPLINE
  5
154
100
AcDbEntity
  8
0
 62
7
100
AcDbSpline
 70
8
 71
3
 72
8
 73
4
 74
0
 40
0
 40
0
 40
0
 40
0
 40
1
 40
1
 40
1
 40
1
 10
4.903611
 20
159.148235
 30
0.0
 10
4.177978
 20
157.128475
 30
0.0
 10
3.636996
 20
155.080468
 30
0.0
 10
3.695347
 20
154.597402
 30
0.0
  0
SPLINE
  5
155
100
AcDbEntity
  8
0
 62
7
100
AcDbSpline
 70
8
 71
3
 72
8
 73
4
 74
0
 40
0
 40
0
 40
0
 40
0
 40
1
 40
1
 40
1
 40
1
 10
3.695347
 20
154.597402
 30
0.0
 10
3.793697
 20
153.783202
 30
0.0
 10
4.299638
 20
154.221609
 30
0.0
 10
10.715625
 20
160.647541
 30
0.0
  0
SPLINE
  5
156
100
AcDbEntity
  8
0
 62
7
100
AcDbSpline
 70
8
 71
3
 72
8
 73
4
 74
0
 40
0
 40
0
 40
0
 40
0
 40
1
 40
1
 40
1
 40
1
 10
10.715625
 20
160.647541
 30
0.0
 10
14.522243
 20
164.460055
 30
0.0
 10
17.776647
 20
167.793938
 30
0.0
 10
17.938750
 20
168.055874
 30
0.0
  0
SPLINE
  5
157
100
AcDbEntity
  8
0
 62
7
100
AcDbSpline
 70
8
 71
3
 72
8
 73
4
 74
0
 40
0
 40
0
 40
0
 40
0
 40
1
 40
1
 40
1
 40
1
 10
17.938750
 20
168.055874
 30
0.0
 10
18.100853
 20
168.317810
 30
0.0
 10
18.461197
 20
169.556537
 30
0.0
 10
18.741319
 20
170.807541
 30
0.0
  0
SPLINE
  5
158
100
AcDbEntity
  8
0
 62
7
100
AcDbSpline
 70
8
 71
3
 72
8
 73
4
 74
0
 40
0
 40
0
 40
0
 40
0
 40
1
 40
1
 40
1
 40
1
 10
18.741319
 20
170.807541
 30
0.0
 10
19.140428
 20
172.589929
 30
0.0
 10
19.164083
 20
173.228124
 30
0.0
 10
18.873611
 20
173.770874
 30
0.0
  0
SPLINE
  5
159
100
AcDbEntity
  8
0
 62
7
100
AcDbSpline
 70
8
 71
3
 72
8
 73
4
 74
0
 40
0
 40
0
 40
0
 40
0
 40
1
 40
1
 40
1
 40
1
 10
18.873611
 20
173.770874
 30
0.0
 10
18.560145
 20
174.356593
 30
0.0
 10
18.604243
 20
174.539870
 30
0.0
 10
19.155833
 20
174.926221
 30
0.0
  0
SPLINE
  5
15a
100
AcDbEntity
  8
0
 62
7
100
AcDbSpline
 70
8
 71
3
 72
8
 73
4
 74
0
 40
0
 40
0
 40
0
 40
0
 40
1
 40
1
 40
1
 40
1
 10
19.155833
 20
174.926221
 30
0.0
 10
19.650616
 20
175.272779
 30
0.0
 10
19.770084
 20
175.603233
 30
0.0
 10
19.632083
 20
176.293235
 30
0.0
  0
SPLINE
  5
15b
100
AcDbEntity
  8
0
 62
7
100
AcDbSpline
 70
8
 71
3
 72
8
 73
4
 74
0
 40
0
 40
0
 40
0
 40
0
 40
1
 40
1
 40
1
 40
1
 10
19.632083
 20
176.293235
 30
0.0
 10
19.489053
 20
177.008389
 30
0.0
 10
19.580654
 20
177.242182
 30
0.0
 10
20.064236
 20
177.395666
 30
0.0
  0
SPLINE
  5
15c
100
AcDbEntity
  8
0
 62
7
100
AcDbSpline
 70
8
 71
3
 72
8
 73
4
 74
0
 40
0
 40
0
 40
0
 40
0
 40
1
 40
1
 40
1
 40
1
 10
20.064236
 20
177.395666
 30
0.0
 10
20.402532
 20
177.503037
 30
0.0
 10
21.501563
 20
178.086549
 30
0.0
 10
22.507222
 20
178.692124
 30
0.0
  0
LWPOLYLINE
  5
15d
100
AcDbEntity
  8
0
 62
7
100
AcDbPolyline
 90
3
 70
0
 10
8.202083
 20
172.209833
 30
0.0
 10
9.110486
 20
172.474416
 30
0.0
 10
8.907639
 20
171.142680
 30
0.0
  0
SPLINE
  5
15e
100
AcDbEntity
  8
0
 62
7
100
AcDbSpline
 70
8
 71
3
 72
8
 73
4
 74
0
 40
0
 40
0
 40
0
 40
0
 40
1
 40
1
 40
1
 40
1
 10
24.121181
 20
178.127680
 30
0.0
 10
23.916547
 20
176.537120
 30
0.0
 10
23.140094
 20
173.546773
 30
0.0
 10
22.189722
 20
170.675249
 30
0.0
  0
SPLINE
  5
15f
100
AcDbEntity
  8
0
 62
7
100
AcDbSpline
 70
8
 71
3
 72
8
 73
4
 74
0
 40
0
 40
0
 40
0
 40
0
 40
1
 40
1
 40
1
 40
1
 10
22.189722
 20
170.675249
 30
0.0
 10
21.944731
 20
169.935011
 30
0.0
 10
21.617886
 20
168.577700
 30
0.0
 10
21.457708
 20
167.658999
 30
0.0
  0
SPLINE
  5
160
100
AcDbEntity
  8
0
 62
7
100
AcDbSpline
 70
8
 71
3
 72
8
 73
4
 74
0
 40
0
 40
0
 40
0
 40
0
 40
1
 40
1
 40
1
 40
1
 10
21.457708
 20
167.658999
 30
0.0
 10
21.297530
 20
166.740298
 30
0.0
 10
20.873209
 20
165.041126
 30
0.0
 10
20.522847
 20
163.875458
 30
0.0
  0
SPLINE
  5
161
100
AcDbEntity
  8
0
 62
7
100
AcDbSpline
 70
8
 71
3
 72
8
 73
4
 74
0
 40
0
 40
0
 40
0
 40
0
 40
1
 40
1
 40
1
 40
1
 10
20.522847
 20
163.875458
 30
0.0
 10
20.172485
 20
162.709784
 30
0.0
 10
19.977963
 20
161.668674
 30
0.0
 10
20.081875
 20
161.564763
 30
0.0
  0
SPLINE
  5
162
100
AcDbEntity
  8
0
 62
7
100
AcDbSpline
 70
8
 71
3
 72
8
 73
4
 74
0
 40
0
 40
0
 40
0
 40
0
 40
1
 40
1
 40
1
 40
1
 10
20.081875
 20
161.564763
 30
0.0
 10
20.339912
 20
161.306724
 30
0.0
 10
22.692431
 20
163.635058
 30
0.0
 10
22.692431
 20
164.148860
 30
0.0
  0
SPLINE
  5
163
100
AcDbEntity
  8
0
 62
7
100
AcDbSpline
 70
8
 71
3
 72
8
 73
4
 74
0
 40
0
 40
0
 40
0
 40
0
 40
1
 40
1
 40
1
 40
1
 10
22.692431
 20
164.148860
 30
0.0
 10
22.692431
 20
164.375358
 30
0.0
 10
22.808150
 20
164.563374
 30
0.0
 10
22.957014
 20
164.563374
 30
0.0
  0
SPLINE
  5
164
100
AcDbEntity
  8
0
 62
7
100
AcDbSpline
 70
8
 71
3
 72
8
 73
4
 74
0
 40
0
 40
0
 40
0
 40
0
 40
1
 40
1
 40
1
 40
1
 10
22.957014
 20
164.563374
 30
0.0
 10
23.105880
 20
164.563374
 30
0.0
 10
23.882350
 20
165.384906
 30
0.0
 10
24.676806
 20
166.388999
 30
0.0
  0
SPLINE
  5
165
100
AcDbEntity
  8
0
 62
7
100
AcDbSpline
 70
8
 71
3
 72
8
 73
4
 74
0
 40
0
 40
0
 40
0
 40
0
 40
1
 40
1
 40
1
 40
1
 10
24.676806
 20
166.388999
 30
0.0
 10
25.471264
 20
167.393092
 30
0.0
 10
26.559267
 20
168.714685
 30
0.0
 10
27.093333
 20
169.325874
 30
0.0
  0
SPLINE
  5
166
100
AcDbEntity
  8
0
 62
7
100
AcDbSpline
 70
8
 71
3
 72
8
 73
4
 74
0
 40
0
 40
0
 40
0
 40
0
 40
1
 40
1
 40
1
 40
1
 10
27.093333
 20
169.325874
 30
0.0
 10
27.627402
 20
169.937063
 30
0.0
 10
28.529712
 20
170.997409
 30
0.0
 10
29.104167
 20
171.680666
 30
0.0
  0
SPLINE
  5
167
100
AcDbEntity
  8
0
 62
7
100
AcDbSpline
 70
8
 71
3
 72
8
 73
4
 74
0
 40
0
 40
0
 40
0
 40
0
 40
1
 40
1
 40
1
 40
1
 10
29.104167
 20
171.680666
 30
0.0
 10
29.678622
 20
172.363926
 30
0.0
 10
30.760899
 20
173.595530
 30
0.0
 10
31.503056
 20
174.414694
 30
0.0
  0
SPLINE
  5
168
100
AcDbEntity
  8
0
 62
7
100
AcDbSpline
 70
8
 71
3
 72
8
 73
4
 74
0
 40
0
 40
0
 40
0
 40
0
 40
1
 40
1
 40
1
 40
1
 10
31.503056
 20
174.414694
 30
0.0
 10
32.852391
 20
175.904042
 30
0.0
 10
32.852431
 20
175.904663
 30
0.0
 10
32.852431
 20
178.427541
 30
0.0
  0
SPLINE
  5
169
100
AcDbEntity
  8
0
 62
7
100
AcDbSpline
 70
8
 71
3
 72
8
 73
4
 74
0
 40
0
 40
0
 40
0
 40
0
 40
1
 40
1
 40
1
 40
1
 10
32.852431
 20
178.427541
 30
0.0
 10
32.852431
 20
179.942496
 30
0.0
 10
32.698123
 20
181.095393
 30
0.0
 10
32.473194
 20
181.320319
 30
0.0
  0
SPLINE
  5
16a
100
AcDbEntity
  8
0
 62
7
100
AcDbSpline
 70
8
 71
3
 72
8
 73
4
 74
0
 40
0
 40
0
 40
0
 40
0
 40
1
 40
1
 40
1
 40
1
 10
32.473194
 20
181.320319
 30
0.0
 10
32.185412
 20
181.608101
 30
0.0
 10
32.203811
 20
181.891567
 30
0.0
 10
32.552569
 20
182.546221
 30
0.0
  0
SPLINE
  5
16b
100
AcDbEntity
  8
0
 62
7
100
AcDbSpline
 70
8
 71
3
 72
8
 73
4
 74
0
 40
0
 40
0
 40
0
 40
0
 40
1
 40
1
 40
1
 40
1
 10
32.552569
 20
182.546221
 30
0.0
 10
32.906600
 20
183.210762
 30
0.0
 10
32.923816
 20
183.430079
 30
0.0
 10
32.614306
 20
183.533999
 30
0.0
  0
SPLINE
  5
16c
100
AcDbEntity
  8
0
 62
7
100
AcDbSpline
 70
8
 71
3
 72
8
 73
4
 74
0
 40
0
 40
0
 40
0
 40
0
 40
1
 40
1
 40
1
 40
1
 10
32.614306
 20
183.533999
 30
0.0
 10
31.852238
 20
183.789870
 30
0.0
 10
32.228643
 20
184.469586
 30
0.0
 10
33.725556
 20
185.536013
 30
0.0
  0
SPLINE
  5
16d
100
AcDbEntity
  8
0
 62
7
100
AcDbSpline
 70
8
 71
3
 72
8
 73
4
 74
0
 40
0
 40
0
 40
0
 40
0
 40
1
 40
1
 40
1
 40
1
 10
33.725556
 20
185.536013
 30
0.0
 10
34.555024
 20
186.126941
 30
0.0
 10
35.417438
 20
186.793192
 30
0.0
 10
35.648194
 20
187.017680
 30
0.0
  0
SPLINE
  5
16e
100
AcDbEntity
  8
0
 62
7
100
AcDbSpline
 70
8
 71
3
 72
8
 73
4
 74
0
 40
0
 40
0
 40
0
 40
0
 40
1
 40
1
 40
1
 40
1
 10
35.648194
 20
187.017680
 30
0.0
 10
36.995230
 20
188.328122
 30
0.0
 10
36.956616
 20
187.119980
 30
0.0
 10
35.427708
 20
180.517749
 30
0.0
  0
SPLINE
  5
16f
100
AcDbEntity
  8
0
 62
7
100
AcDbSpline
 70
8
 71
3
 72
8
 73
4
 74
0
 40
0
 40
0
 40
0
 40
0
 40
1
 40
1
 40
1
 40
1
 10
35.427708
 20
180.517749
 30
0.0
 10
33.939610
 20
174.091758
 30
0.0
 10
33.438355
 20
171.482797
 30
0.0
 10
33.655000
 20
171.266152
 30
0.0
  0
SPLINE
  5
170
100
AcDbEntity
  8
0
 62
7
100
AcDbSpline
 70
8
 71
3
 72
8
 73
4
 74
0
 40
0
 40
0
 40
0
 40
0
 40
1
 40
1
 40
1
 40
1
 10
33.655000
 20
171.266152
 30
0.0
 10
33.811382
 20
171.109770
 30
0.0
 10
34.381228
 20
171.699877
 30
0.0
 10
36.918194
 20
174.652819
 30
0.0
  0
SPLINE
  5
171
100
AcDbEntity
  8
0
 62
7
100
AcDbSpline
 70
8
 71
3
 72
8
 73
4
 74
0
 40
0
 40
0
 40
0
 40
0
 40
1
 40
1
 40
1
 40
1
 10
36.918194
 20
174.652819
 30
0.0
 10
37.561926
 20
175.402099
 30
0.0
 10
38.519806
 20
176.502850
 30
0.0
 10
39.043681
 20
177.095805
 30
0.0
  0
SPLINE
  5
172
100
AcDbEntity
  8
0
 62
7
100
AcDbSpline
 70
8
 71
3
 72
8
 73
4
 74
0
 40
0
 40
0
 40
0
 40
0
 40
1
 40
1
 40
1
 40
1
 10
39.043681
 20
177.095805
 30
0.0
 10
39.567556
 20
177.688759
 30
0.0
 10
40.639117
 20
178.927371
 30
0.0
 10
41.424931
 20
179.847471
 30
0.0
  0
SPLINE
  5
173
100
AcDbEntity
  8
0
 62
7
100
AcDbSpline
 70
8
 71
3
 72
8
 73
4
 74
0
 40
0
 40
0
 40
0
 40
0
 40
1
 40
1
 40
1
 40
1
 10
41.424931
 20
179.847471
 30
0.0
 10
42.210742
 20
180.767575
 30
0.0
 10
43.389463
 20
182.111447
 30
0.0
 10
44.044306
 20
182.837263
 30
0.0
  0
SPLINE
  5
174
100
AcDbEntity
  8
0
 62
7
100
AcDbSpline
 70
8
 71
3
 72
8
 73
4
 74
0
 40
0
 40
0
 40
0
 40
0
 40
1
 40
1
 40
1
 40
1
 10
44.044306
 20
182.837263
 30
0.0
 10
45.185688
 20
184.102358
 30
0.0
 10
45.234931
 20
184.254137
 30
0.0
 10
45.234931
 20
186.426777
 30
0.0
  0
SPLINE
  5
175
100
AcDbEntity
  8
0
 62
7
100
AcDbSpline
 70
8
 71
3
 72
8
 73
4
 74
0
 40
0
 40
0
 40
0
 40
0
 40
1
 40
1
 40
1
 40
1
 10
45.234931
 20
186.426777
 30
0.0
 10
45.234931
 20
187.673279
 30
0.0
 10
45.097926
 20
188.693374
 30
0.0
 10
44.935069
 20
188.693374
 30
0.0
  0
SPLINE
  5
176
100
AcDbEntity
  8
0
 62
7
100
AcDbSpline
 70
8
 71
3
 72
8
 73
4
 74
0
 40
0
 40
0
 40
0
 40
0
 40
1
 40
1
 40
1
 40
1
 10
44.935069
 20
188.693374
 30
0.0
 10
44.470100
 20
188.693374
 30
0.0
 10
44.189263
 20
189.953838
 30
0.0
 10
44.555833
 20
190.395527
 30
0.0
  0
SPLINE
  5
177
100
AcDbEntity
  8
0
 62
7
100
AcDbSpline
 70
8
 71
3
 72
8
 73
4
 74
0
 40
0
 40
0
 40
0
 40
0
 40
1
 40
1
 40
1
 40
1
 10
44.555833
 20
190.395527
 30
0.0
 10
44.737576
 20
190.614517
 30
0.0
 10
44.799775
 20
191.113548
 30
0.0
 10
44.696944
 20
191.506777
 30
0.0
  0
SPLINE
  5
178
100
AcDbEntity
  8
0
 62
7
100
AcDbSpline
 70
8
 71
3
 72
8
 73
4
 74
0
 40
0
 40
0
 40
0
 40
0
 40
1
 40
1
 40
1
 40
1
 10
44.696944
 20
191.506777
 30
0.0
 10
44.498554
 20
192.265410
 30
0.0
 10
44.789302
 20
192.620654
 30
0.0
 10
46.848889
 20
194.179069
 30
0.0
  0
SPLINE
  5
179
100
AcDbEntity
  8
0
 62
7
100
AcDbSpline
 70
8
 71
3
 72
8
 73
4
 74
0
 40
0
 40
0
 40
0
 40
0
 40
1
 40
1
 40
1
 40
1
 10
46.848889
 20
194.179069
 30
0.0
 10
47.884153
 20
194.962416
 30
0.0
 10
49.044931
 20
195.320189
 30
0.0
 10
49.044931
 20
194.858166
 30
0.0
  0
SPLINE
  5
17a
100
AcDbEntity
  8
0
 62
7
100
AcDbSpline
 70
8
 71
3
 72
8
 73
4
 74
0
 40
0
 40
0
 40
0
 40
0
 40
1
 40
1
 40
1
 40
1
 10
49.044931
 20
194.858166
 30
0.0
 10
49.044931
 20
194.757517
 30
0.0
 10
48.557849
 20
192.578671
 30
0.0
 10
47.968958
 20
190.016291
 30
0.0
  0
SPLINE
  5
17b
100
AcDbEntity
  8
0
 62
7
100
AcDbSpline
 70
8
 71
3
 72
8
 73
4
 74
0
 40
0
 40
0
 40
0
 40
0
 40
1
 40
1
 40
1
 40
1
 10
47.968958
 20
190.016291
 30
0.0
 10
46.601484
 20
184.066149
 30
0.0
 10
45.789207
 20
179.769445
 30
0.0
 10
45.993403
 20
179.565249
 30
0.0
  0
SPLINE
  5
17c
100
AcDbEntity
  8
0
 62
7
100
AcDbSpline
 70
8
 71
3
 72
8
 73
4
 74
0
 40
0
 40
0
 40
0
 40
0
 40
1
 40
1
 40
1
 40
1
 10
45.993403
 20
179.565249
 30
0.0
 10
46.162488
 20
179.396164
 30
0.0
 10
47.115216
 20
180.359679
 30
0.0
 10
49.203681
 20
182.810805
 30
0.0
  0
SPLINE
  5
17d
100
AcDbEntity
  8
0
 62
7
100
AcDbSpline
 70
8
 71
3
 72
8
 73
4
 74
0
 40
0
 40
0
 40
0
 40
0
 40
1
 40
1
 40
1
 40
1
 10
49.203681
 20
182.810805
 30
0.0
 10
49.902181
 20
183.630598
 30
0.0
 10
50.766785
 20
184.610079
 30
0.0
 10
51.126319
 20
184.989208
 30
0.0
  0
SPLINE
  5
17e
100
AcDbEntity
  8
0
 62
7
100
AcDbSpline
 70
8
 71
3
 72
8
 73
4
 74
0
 40
0
 40
0
 40
0
 40
0
 40
1
 40
1
 40
1
 40
1
 10
51.126319
 20
184.989208
 30
0.0
 10
51.485854
 20
185.368339
 30
0.0
 10
53.049686
 20
187.159008
 30
0.0
 10
54.601181
 20
188.966777
 30
0.0
  0
SPLINE
  5
17f
100
AcDbEntity
  8
0
 62
7
100
AcDbSpline
 70
8
 71
3
 72
8
 73
4
 74
0
 40
0
 40
0
 40
0
 40
0
 40
1
 40
1
 40
1
 40
1
 10
54.601181
 20
188.966777
 30
0.0
 10
57.339478
 20
192.157392
 30
0.0
 10
57.418969
 20
192.304955
 30
0.0
 10
57.546875
 20
194.073235
 30
0.0
  0
SPLINE
  5
180
100
AcDbEntity
  8
0
 62
7
100
AcDbSpline
 70
8
 71
3
 72
8
 73
4
 74
0
 40
0
 40
0
 40
0
 40
0
 40
1
 40
1
 40
1
 40
1
 10
57.546875
 20
194.073235
 30
0.0
 10
57.640381
 20
195.365963
 30
0.0
 10
57.526600
 20
196.193650
 30
0.0
 10
57.150000
 20
196.921916
 30
0.0
  0
SPLINE
  5
181
100
AcDbEntity
  8
0
 62
7
100
AcDbSpline
 70
8
 71
3
 72
8
 73
4
 74
0
 40
0
 40
0
 40
0
 40
0
 40
1
 40
1
 40
1
 40
1
 10
57.150000
 20
196.921916
 30
0.0
 10
56.748319
 20
197.698679
 30
0.0
 10
56.710329
 20
198.049267
 30
0.0
 10
56.982431
 20
198.377124
 30
0.0
  0
SPLINE
  5
182
100
AcDbEntity
  8
0
 62
7
100
AcDbSpline
 70
8
 71
3
 72
8
 73
4
 74
0
 40
0
 40
0
 40
0
 40
0
 40
1
 40
1
 40
1
 40
1
 10
56.982431
 20
198.377124
 30
0.0
 10
57.238347
 20
198.685497
 30
0.0
 10
57.246483
 20
198.991505
 30
0.0
 10
57.008889
 20
199.435458
 30
0.0
  0
SPLINE
  5
183
100
AcDbEntity
  8
0
 62
7
100
AcDbSpline
 70
8
 71
3
 72
8
 73
4
 74
0
 40
0
 40
0
 40
0
 40
0
 40
1
 40
1
 40
1
 40
1
 10
57.008889
 20
199.435458
 30
0.0
 10
56.727228
 20
199.961740
 30
0.0
 10
56.869220
 20
200.233988
 30
0.0
 10
57.908472
 20
201.172888
 30
0.0
  0
SPLINE
  5
184
100
AcDbEntity
  8
0
 62
7
100
AcDbSpline
 70
8
 71
3
 72
8
 73
4
 74
0
 40
0
 40
0
 40
0
 40
0
 40
1
 40
1
 40
1
 40
1
 10
57.908472
 20
201.172888
 30
0.0
 10
58.585741
 20
201.784763
 30
0.0
 10
59.632545
 20
202.517745
 30
0.0
 10
60.236806
 20
202.804485
 30
0.0
  0
LWPOLYLINE
  5
185
100
AcDbEntity
  8
0
 62
7
100
AcDbPolyline
 90
3
 70
0
 10
22.507222
 20
178.692124
 30
0.0
 10
24.332847
 20
179.794555
 30
0.0
 10
24.121181
 20
178.127680
 30
0.0
  0
SPLINE
  5
186
100
AcDbEntity
  8
0
 62
7
100
AcDbSpline
 70
8
 71
3
 72
8
 73
4
 74
0
 40
0
 40
0
 40
0
 40
0
 40
1
 40
1
 40
1
 40
1
 10
63.940972
 20
201.746152
 30
0.0
 10
65.373735
 20
200.875934
 30
0.0
 10
66.714457
 20
200.095767
 30
0.0
 10
66.921944
 20
200.008721
 30
0.0
  0
SPLINE
  5
187
100
AcDbEntity
  8
0
 62
7
100
AcDbSpline
 70
8
 71
3
 72
8
 73
4
 74
0
 40
0
 40
0
 40
0
 40
0
 40
1
 40
1
 40
1
 40
1
 10
66.921944
 20
200.008721
 30
0.0
 10
67.379071
 20
199.816946
 30
0.0
 10
66.022059
 20
198.535874
 30
0.0
 10
65.360903
 20
198.535874
 30
0.0
  0
SPLINE
  5
188
100
AcDbEntity
  8
0
 62
7
100
AcDbSpline
 70
8
 71
3
 72
8
 73
4
 74
0
 40
0
 40
0
 40
0
 40
0
 40
1
 40
1
 40
1
 40
1
 10
65.360903
 20
198.535874
 30
0.0
 10
65.118310
 20
198.535874
 30
0.0
 10
64.919931
 20
198.382842
 30
0.0
 10
64.919931
 20
198.200735
 30
0.0
  0
SPLINE
  5
189
100
AcDbEntity
  8
0
 62
7
100
AcDbSpline
 70
8
 71
3
 72
8
 73
4
 74
0
 40
0
 40
0
 40
0
 40
0
 40
1
 40
1
 40
1
 40
1
 10
64.919931
 20
198.200735
 30
0.0
 10
64.919931
 20
198.018631
 30
0.0
 10
64.281933
 20
197.201635
 30
0.0
 10
63.508819
 20
196.375110
 30
0.0
  0
LWPOLYLINE
  5
18a
100
AcDbEntity
  8
0
 62
7
100
AcDbPolyline
 90
3
 70
0
 10
60.236806
 20
202.804485
 30
0.0
 10
61.330417
 20
203.324833
 30
0.0
 10
63.940972
 20
201.746152
 30
0.0
  0
SPLINE
  5
18b
100
AcDbEntity
  8
0
 62
7
100
AcDbSpline
 70
8
 71
3
 72
8
 73
4
 74
0
 40
0
 40
0
 40
0
 40
0
 40
1
 40
1
 40
1
 40
1
 10
61.762569
 20
188.225944
 30
0.0
 10
61.575247
 20
184.571403
 30
0.0
 10
61.427431
 20
180.506330
 30
0.0
 10
61.427431
 20
179.194833
 30
0.0
  0
SPLINE
  5
18c
100
AcDbEntity
  8
0
 62
7
100
AcDbSpline
 70
8
 71
3
 72
8
 73
4
 74
0
 40
0
 40
0
 40
0
 40
0
 40
1
 40
1
 40
1
 40
1
 10
61.427431
 20
179.194833
 30
0.0
 10
61.427431
 20
176.380242
 30
0.0
 10
61.622105
 20
176.455838
 30
0.0
 10
63.491181
 20
179.962124
 30
0.0
  0
SPLINE
  5
18d
100
AcDbEntity
  8
0
 62
7
100
AcDbSpline
 70
8
 71
3
 72
8
 73
4
 74
0
 40
0
 40
0
 40
0
 40
0
 40
1
 40
1
 40
1
 40
1
 10
63.491181
 20
179.962124
 30
0.0
 10
64.141793
 20
181.182634
 30
0.0
 10
64.943660
 20
182.515956
 30
0.0
 10
65.272708
 20
182.934277
 30
0.0
  0
SPLINE
  5
18e
100
AcDbEntity
  8
0
 62
7
100
AcDbSpline
 70
8
 71
3
 72
8
 73
4
 74
0
 40
0
 40
0
 40
0
 40
0
 40
1
 40
1
 40
1
 40
1
 10
65.272708
 20
182.934277
 30
0.0
 10
65.601760
 20
183.352592
 30
0.0
 10
65.872431
 20
183.833048
 30
0.0
 10
65.872431
 20
183.992610
 30
0.0
  0
SPLINE
  5
18f
100
AcDbEntity
  8
0
 62
7
100
AcDbSpline
 70
8
 71
3
 72
8
 73
4
 74
0
 40
0
 40
0
 40
0
 40
0
 40
1
 40
1
 40
1
 40
1
 10
65.872431
 20
183.992610
 30
0.0
 10
65.872431
 20
184.152170
 30
0.0
 10
66.443931
 20
185.137041
 30
0.0
 10
67.142431
 20
186.188652
 30
0.0
  0
SPLINE
  5
190
100
AcDbEntity
  8
0
 62
7
100
AcDbSpline
 70
8
 71
3
 72
8
 73
4
 74
0
 40
0
 40
0
 40
0
 40
0
 40
1
 40
1
 40
1
 40
1
 10
67.142431
 20
186.188652
 30
0.0
 10
67.840931
 20
187.240266
 30
0.0
 10
68.412431
 20
188.228309
 30
0.0
 10
68.412431
 20
188.384694
 30
0.0
  0
SPLINE
  5
191
100
AcDbEntity
  8
0
 62
7
100
AcDbSpline
 70
8
 71
3
 72
8
 73
4
 74
0
 40
0
 40
0
 40
0
 40
0
 40
1
 40
1
 40
1
 40
1
 10
68.412431
 20
188.384694
 30
0.0
 10
68.412431
 20
188.541079
 30
0.0
 10
68.964155
 20
189.528828
 30
0.0
 10
69.638333
 20
190.571916
 30
0.0
  0
LWPOLYLINE
  5
192
100
AcDbEntity
  8
0
 62
7
100
AcDbPolyline
 90
3
 70
0
 10
63.508819
 20
196.375110
 30
0.0
 10
62.106528
 20
194.866985
 30
0.0
 10
61.762569
 20
188.225944
 30
0.0
  0
SPLINE
  5
193
100
AcDbEntity
  8
0
 62
7
100
AcDbSpline
 70
8
 71
3
 72
8
 73
4
 74
0
 40
0
 40
0
 40
0
 40
0
 40
1
 40
1
 40
1
 40
1
 10
70.485000
 20
194.628860
 30
0.0
 10
70.279175
 20
195.818136
 30
0.0
 10
69.939086
 20
197.111092
 30
0.0
 10
69.726528
 20
197.503999
 30
0.0
  0
SPLINE
  5
194
100
AcDbEntity
  8
0
 62
7
100
AcDbSpline
 70
8
 71
3
 72
8
 73
4
 74
0
 40
0
 40
0
 40
0
 40
0
 40
1
 40
1
 40
1
 40
1
 10
69.726528
 20
197.503999
 30
0.0
 10
69.346205
 20
198.207003
 30
0.0
 10
69.682363
 20
199.488656
 30
0.0
 10
70.246875
 20
199.488374
 30
0.0
  0
SPLINE
  5
195
100
AcDbEntity
  8
0
 62
7
100
AcDbSpline
 70
8
 71
3
 72
8
 73
4
 74
0
 40
0
 40
0
 40
0
 40
0
 40
1
 40
1
 40
1
 40
1
 10
70.246875
 20
199.488374
 30
0.0
 10
71.018541
 20
199.487827
 30
0.0
 10
74.169101
 20
197.994564
 30
0.0
 10
75.785486
 20
196.860180
 30
0.0
  0
SPLINE
  5
196
100
AcDbEntity
  8
0
 62
7
100
AcDbSpline
 70
8
 71
3
 72
8
 73
4
 74
0
 40
0
 40
0
 40
0
 40
0
 40
1
 40
1
 40
1
 40
1
 10
75.785486
 20
196.860180
 30
0.0
 10
76.833513
 20
196.124672
 30
0.0
 10
77.962142
 20
195.376749
 30
0.0
 10
78.299028
 20
195.202124
 30
0.0
  0
SPLINE
  5
197
100
AcDbEntity
  8
0
 62
7
100
AcDbSpline
 70
8
 71
3
 72
8
 73
4
 74
0
 40
0
 40
0
 40
0
 40
0
 40
1
 40
1
 40
1
 40
1
 10
78.299028
 20
195.202124
 30
0.0
 10
79.198532
 20
194.735865
 30
0.0
 10
79.446064
 20
193.413894
 30
0.0
 10
78.713542
 20
192.997263
 30
0.0
  0
SPLINE
  5
198
100
AcDbEntity
  8
0
 62
7
100
AcDbSpline
 70
8
 71
3
 72
8
 73
4
 74
0
 40
0
 40
0
 40
0
 40
0
 40
1
 40
1
 40
1
 40
1
 10
78.713542
 20
192.997263
 30
0.0
 10
77.813323
 20
192.485258
 30
0.0
 10
76.410092
 20
190.910410
 30
0.0
 10
75.441528
 20
189.328374
 30
0.0
  0
LWPOLYLINE
  5
199
100
AcDbEntity
  8
0
 62
7
100
AcDbPolyline
 90
3
 70
0
 10
69.638333
 20
190.571916
 30
0.0
 10
70.864236
 20
192.468096
 30
0.0
 10
70.485000
 20
194.628860
 30
0.0
  0
SPLINE
  5
19a
100
AcDbEntity
  8
0
 62
7
100
AcDbSpline
 70
8
 71
3
 72
8
 73
4
 74
0
 40
0
 40
0
 40
0
 40
0
 40
1
 40
1
 40
1
 40
1
 10
74.780069
 20
180.279624
 30
0.0
 10
74.894852
 20
176.088624
 30
0.0
 10
75.101114
 20
171.802374
 30
0.0
 10
75.238681
 20
170.754624
 30
0.0
  0
SPLINE
  5
19b
100
AcDbEntity
  8
0
 62
7
100
AcDbSpline
 70
8
 71
3
 72
8
 73
4
 74
0
 40
0
 40
0
 40
0
 40
0
 40
1
 40
1
 40
1
 40
1
 10
75.238681
 20
170.754624
 30
0.0
 10
75.463533
 20
169.042026
 30
0.0
 10
75.517121
 20
168.929792
 30
0.0
 10
75.811944
 20
169.643374
 30
0.0
  0
SPLINE
  5
19c
100
AcDbEntity
  8
0
 62
7
100
AcDbSpline
 70
8
 71
3
 72
8
 73
4
 74
0
 40
0
 40
0
 40
0
 40
0
 40
1
 40
1
 40
1
 40
1
 10
75.811944
 20
169.643374
 30
0.0
 10
76.537907
 20
171.400476
 30
0.0
 10
80.729432
 20
180.360667
 30
0.0
 10
82.435347
 20
183.807402
 30
0.0
  0
LWPOLYLINE
  5
19d
100
AcDbEntity
  8
0
 62
7
100
AcDbPolyline
 90
3
 70
0
 10
75.441528
 20
189.328374
 30
0.0
 10
74.568403
 20
187.899624
 30
0.0
 10
74.780069
 20
180.279624
 30
0.0
  0
SPLINE
  5
19e
100
AcDbEntity
  8
0
 62
7
100
AcDbSpline
 70
8
 71
3
 72
8
 73
4
 74
0
 40
0
 40
0
 40
0
 40
0
 40
1
 40
1
 40
1
 40
1
 10
83.070347
 20
188.649277
 30
0.0
 10
82.718137
 20
189.893866
 30
0.0
 10
82.124400
 20
191.294506
 30
0.0
 10
81.756250
 20
191.762541
 30
0.0
  0
SPLINE
  5
19f
100
AcDbEntity
  8
0
 62
7
100
AcDbSpline
 70
8
 71
3
 72
8
 73
4
 74
0
 40
0
 40
0
 40
0
 40
0
 40
1
 40
1
 40
1
 40
1
 10
81.756250
 20
191.762541
 30
0.0
 10
81.330334
 20
192.304004
 30
0.0
 10
81.201432
 20
192.724667
 30
0.0
 10
81.394653
 20
192.917888
 30
0.0
  0
SPLINE
  5
1a0
100
AcDbEntity
  8
0
 62
7
100
AcDbSpline
 70
8
 71
3
 72
8
 73
4
 74
0
 40
0
 40
0
 40
0
 40
0
 40
1
 40
1
 40
1
 40
1
 10
81.394653
 20
192.917888
 30
0.0
 10
81.741617
 20
193.264852
 30
0.0
 10
92.380460
 20
193.043119
 30
0.0
 10
93.256806
 20
192.670944
 30
0.0
  0
SPLINE
  5
1a1
100
AcDbEntity
  8
0
 62
7
100
AcDbSpline
 70
8
 71
3
 72
8
 73
4
 74
0
 40
0
 40
0
 40
0
 40
0
 40
1
 40
1
 40
1
 40
1
 10
93.256806
 20
192.670944
 30
0.0
 10
93.562399
 20
192.541158
 30
0.0
 10
93.812431
 20
192.178353
 30
0.0
 10
93.812431
 20
191.859555
 30
0.0
  0
SPLINE
  5
1a2
100
AcDbEntity
  8
0
 62
7
100
AcDbSpline
 70
8
 71
3
 72
8
 73
4
 74
0
 40
0
 40
0
 40
0
 40
0
 40
1
 40
1
 40
1
 40
1
 10
93.812431
 20
191.859555
 30
0.0
 10
93.812431
 20
191.540757
 30
0.0
 10
93.562399
 20
191.195297
 30
0.0
 10
93.256806
 20
191.092263
 30
0.0
  0
SPLINE
  5
1a3
100
AcDbEntity
  8
0
 62
7
100
AcDbSpline
 70
8
 71
3
 72
8
 73
4
 74
0
 40
0
 40
0
 40
0
 40
0
 40
1
 40
1
 40
1
 40
1
 10
93.256806
 20
191.092263
 30
0.0
 10
92.699617
 20
190.904402
 30
0.0
 10
90.510933
 20
188.013515
 30
0.0
 10
89.702569
 20
186.400319
 30
0.0
  0
SPLINE
  5
1a4
100
AcDbEntity
  8
0
 62
7
100
AcDbSpline
 70
8
 71
3
 72
8
 73
4
 74
0
 40
0
 40
0
 40
0
 40
0
 40
1
 40
1
 40
1
 40
1
 10
89.702569
 20
186.400319
 30
0.0
 10
89.387200
 20
185.770949
 30
0.0
 10
89.328504
 20
184.917207
 30
0.0
 10
89.490903
 20
183.225319
 30
0.0
  0
SPLINE
  5
1a5
100
AcDbEntity
  8
0
 62
7
100
AcDbSpline
 70
8
 71
3
 72
8
 73
4
 74
0
 40
0
 40
0
 40
0
 40
0
 40
1
 40
1
 40
1
 40
1
 10
89.490903
 20
183.225319
 30
0.0
 10
89.613077
 20
181.952533
 30
0.0
 10
89.840012
 20
178.842935
 30
0.0
 10
89.993611
 20
176.310874
 30
0.0
  0
SPLINE
  5
1a6
100
AcDbEntity
  8
0
 62
7
100
AcDbSpline
 70
8
 71
3
 72
8
 73
4
 74
0
 40
0
 40
0
 40
0
 40
0
 40
1
 40
1
 40
1
 40
1
 10
89.993611
 20
176.310874
 30
0.0
 10
90.358736
 20
170.291791
 30
0.0
 10
90.681463
 20
167.111556
 30
0.0
 10
90.937292
 20
166.953444
 30
0.0
  0
SPLINE
  5
1a7
100
AcDbEntity
  8
0
 62
7
100
AcDbSpline
 70
8
 71
3
 72
8
 73
4
 74
0
 40
0
 40
0
 40
0
 40
0
 40
1
 40
1
 40
1
 40
1
 10
90.937292
 20
166.953444
 30
0.0
 10
91.387521
 20
166.675187
 30
0.0
 10
91.821985
 20
167.374722
 30
0.0
 10
92.833472
 20
169.960874
 30
0.0
  0
SPLINE
  5
1a8
100
AcDbEntity
  8
0
 62
7
100
AcDbSpline
 70
8
 71
3
 72
8
 73
4
 74
0
 40
0
 40
0
 40
0
 40
0
 40
1
 40
1
 40
1
 40
1
 10
92.833472
 20
169.960874
 30
0.0
 10
95.507299
 20
176.797279
 30
0.0
 10
96.323206
 20
178.692124
 30
0.0
 10
96.572917
 20
178.692124
 30
0.0
  0
SPLINE
  5
1a9
100
AcDbEntity
  8
0
 62
7
100
AcDbSpline
 70
8
 71
3
 72
8
 73
4
 74
0
 40
0
 40
0
 40
0
 40
0
 40
1
 40
1
 40
1
 40
1
 10
96.572917
 20
178.692124
 30
0.0
 10
96.720793
 20
178.692124
 30
0.0
 10
97.332786
 20
178.302996
 30
0.0
 10
97.939931
 20
177.827819
 30
0.0
  0
LWPOLYLINE
  5
1aa
100
AcDbEntity
  8
0
 62
7
100
AcDbPolyline
 90
3
 70
0
 10
82.435347
 20
183.807402
 30
0.0
 10
83.714167
 20
186.382680
 30
0.0
 10
83.070347
 20
188.649277
 30
0.0
  0
SPLINE
  5
1ab
100
AcDbEntity
  8
0
 62
7
100
AcDbSpline
 70
8
 71
3
 72
8
 73
4
 74
0
 40
0
 40
0
 40
0
 40
0
 40
1
 40
1
 40
1
 40
1
 10
96.520000
 20
173.135874
 30
0.0
 10
97.093972
 20
172.946449
 30
0.0
 10
97.639076
 20
172.579888
 30
0.0
 10
97.737083
 20
172.324485
 30
0.0
  0
SPLINE
  5
1ac
100
AcDbEntity
  8
0
 62
7
100
AcDbSpline
 70
8
 71
3
 72
8
 73
4
 74
0
 40
0
 40
0
 40
0
 40
0
 40
1
 40
1
 40
1
 40
1
 10
97.737083
 20
172.324485
 30
0.0
 10
97.994955
 20
171.652483
 30
0.0
 10
97.632952
 20
170.093369
 30
0.0
 10
96.661111
 20
167.729555
 30
0.0
  0
SPLINE
  5
1ad
100
AcDbEntity
  8
0
 62
7
100
AcDbSpline
 70
8
 71
3
 72
8
 73
4
 74
0
 40
0
 40
0
 40
0
 40
0
 40
1
 40
1
 40
1
 40
1
 10
96.661111
 20
167.729555
 30
0.0
 10
96.192919
 20
166.590774
 30
0.0
 10
95.643999
 20
164.947710
 30
0.0
 10
95.444028
 20
164.078305
 30
0.0
  0
SPLINE
  5
1ae
100
AcDbEntity
  8
0
 62
7
100
AcDbSpline
 70
8
 71
3
 72
8
 73
4
 74
0
 40
0
 40
0
 40
0
 40
0
 40
1
 40
1
 40
1
 40
1
 10
95.444028
 20
164.078305
 30
0.0
 10
94.176545
 20
158.567727
 30
0.0
 10
93.828514
 20
156.937360
 30
0.0
 10
93.636042
 20
155.602819
 30
0.0
  0
SPLINE
  5
1af
100
AcDbEntity
  8
0
 62
7
100
AcDbSpline
 70
8
 71
3
 72
8
 73
4
 74
0
 40
0
 40
0
 40
0
 40
0
 40
1
 40
1
 40
1
 40
1
 10
93.636042
 20
155.602819
 30
0.0
 10
93.404010
 20
153.993966
 30
0.0
 10
93.158620
 20
153.686629
 30
0.0
 10
91.263611
 20
152.674763
 30
0.0
  0
SPLINE
  5
1b0
100
AcDbEntity
  8
0
 62
7
100
AcDbSpline
 70
8
 71
3
 72
8
 73
4
 74
0
 40
0
 40
0
 40
0
 40
0
 40
1
 40
1
 40
1
 40
1
 10
91.263611
 20
152.674763
 30
0.0
 10
90.588409
 20
152.314227
 30
0.0
 10
88.858674
 20
151.307749
 30
0.0
 10
87.418333
 20
150.434624
 30
0.0
  0
SPLINE
  5
1b1
100
AcDbEntity
  8
0
 62
7
100
AcDbSpline
 70
8
 71
3
 72
8
 73
4
 74
0
 40
0
 40
0
 40
0
 40
0
 40
1
 40
1
 40
1
 40
1
 10
87.418333
 20
150.434624
 30
0.0
 10
85.977992
 20
149.561499
 30
0.0
 10
84.434502
 20
148.623525
 30
0.0
 10
83.987569
 20
148.353235
 30
0.0
  0
SPLINE
  5
1b2
100
AcDbEntity
  8
0
 62
7
100
AcDbSpline
 70
8
 71
3
 72
8
 73
4
 74
0
 40
0
 40
0
 40
0
 40
0
 40
1
 40
1
 40
1
 40
1
 10
83.987569
 20
148.353235
 30
0.0
 10
81.786736
 20
147.022247
 30
0.0
 10
77.441721
 20
144.105478
 30
0.0
 10
76.870278
 20
143.573096
 30
0.0
  0
SPLINE
  5
1b3
100
AcDbEntity
  8
0
 62
7
100
AcDbSpline
 70
8
 71
3
 72
8
 73
4
 74
0
 40
0
 40
0
 40
0
 40
0
 40
1
 40
1
 40
1
 40
1
 10
76.870278
 20
143.573096
 30
0.0
 10
76.515434
 20
143.242510
 30
0.0
 10
76.013318
 20
142.973374
 30
0.0
 10
75.750208
 20
142.973374
 30
0.0
  0
SPLINE
  5
1b4
100
AcDbEntity
  8
0
 62
7
100
AcDbSpline
 70
8
 71
3
 72
8
 73
4
 74
0
 40
0
 40
0
 40
0
 40
0
 40
1
 40
1
 40
1
 40
1
 10
75.750208
 20
142.973374
 30
0.0
 10
75.152377
 20
142.973374
 30
0.0
 10
73.492431
 20
144.537074
 30
0.0
 10
73.492431
 20
145.098860
 30
0.0
  0
SPLINE
  5
1b5
100
AcDbEntity
  8
0
 62
7
100
AcDbSpline
 70
8
 71
3
 72
8
 73
4
 74
0
 40
0
 40
0
 40
0
 40
0
 40
1
 40
1
 40
1
 40
1
 10
73.492431
 20
145.098860
 30
0.0
 10
73.492431
 20
145.328126
 30
0.0
 10
73.285847
 20
145.513374
 30
0.0
 10
73.042639
 20
145.513374
 30
0.0
  0
SPLINE
  5
1b6
100
AcDbEntity
  8
0
 62
7
100
AcDbSpline
 70
8
 71
3
 72
8
 73
4
 74
0
 40
0
 40
0
 40
0
 40
0
 40
1
 40
1
 40
1
 40
1
 10
73.042639
 20
145.513374
 30
0.0
 10
72.799425
 20
145.513374
 30
0.0
 10
71.474307
 20
146.637451
 30
0.0
 10
70.096944
 20
148.009277
 30
0.0
  0
SPLINE
  5
1b7
100
AcDbEntity
  8
0
 62
7
100
AcDbSpline
 70
8
 71
3
 72
8
 73
4
 74
0
 40
0
 40
0
 40
0
 40
0
 40
1
 40
1
 40
1
 40
1
 10
70.096944
 20
148.009277
 30
0.0
 10
67.625987
 20
150.470291
 30
0.0
 10
65.831559
 20
151.528566
 30
0.0
 10
64.796458
 20
151.131360
 30
0.0
  0
SPLINE
  5
1b8
100
AcDbEntity
  8
0
 62
7
100
AcDbSpline
 70
8
 71
3
 72
8
 73
4
 74
0
 40
0
 40
0
 40
0
 40
0
 40
1
 40
1
 40
1
 40
1
 10
64.796458
 20
151.131360
 30
0.0
 10
63.887068
 20
150.782393
 30
0.0
 10
64.225294
 20
149.759461
 30
0.0
 10
65.537292
 20
148.891221
 30
0.0
  0
SPLINE
  5
1b9
100
AcDbEntity
  8
0
 62
7
100
AcDbSpline
 70
8
 71
3
 72
8
 73
4
 74
0
 40
0
 40
0
 40
0
 40
0
 40
1
 40
1
 40
1
 40
1
 10
65.537292
 20
148.891221
 30
0.0
 10
66.717034
 20
148.110504
 30
0.0
 10
66.771066
 20
148.010081
 30
0.0
 10
66.463333
 20
147.127333
 30
0.0
  0
SPLINE
  5
1ba
100
AcDbEntity
  8
0
 62
7
100
AcDbSpline
 70
8
 71
3
 72
8
 73
4
 74
0
 40
0
 40
0
 40
0
 40
0
 40
1
 40
1
 40
1
 40
1
 10
66.463333
 20
147.127333
 30
0.0
 10
66.283245
 20
146.610722
 30
0.0
 10
65.971330
 20
146.050672
 30
0.0
 10
65.766597
 20
145.883791
 30
0.0
  0
SPLINE
  5
1bb
100
AcDbEntity
  8
0
 62
7
100
AcDbSpline
 70
8
 71
3
 72
8
 73
4
 74
0
 40
0
 40
0
 40
0
 40
0
 40
1
 40
1
 40
1
 40
1
 10
65.766597
 20
145.883791
 30
0.0
 10
65.561868
 20
145.716913
 30
0.0
 10
63.646075
 20
145.530818
 30
0.0
 10
61.515625
 20
145.469277
 30
0.0
  0
SPLINE
  5
1bc
100
AcDbEntity
  8
0
 62
7
100
AcDbSpline
 70
8
 71
3
 72
8
 73
4
 74
0
 40
0
 40
0
 40
0
 40
0
 40
1
 40
1
 40
1
 40
1
 10
61.515625
 20
145.469277
 30
0.0
 10
58.975577
 20
145.395908
 30
0.0
 10
57.507231
 20
145.217998
 30
0.0
 10
57.247014
 20
144.957749
 30
0.0
  0
SPLINE
  5
1bd
100
AcDbEntity
  8
0
 62
7
100
AcDbSpline
 70
8
 71
3
 72
8
 73
4
 74
0
 40
0
 40
0
 40
0
 40
0
 40
1
 40
1
 40
1
 40
1
 10
57.247014
 20
144.957749
 30
0.0
 10
56.791530
 20
144.502206
 30
0.0
 10
55.394931
 20
144.414714
 30
0.0
 10
55.394931
 20
144.843096
 30
0.0
  0
SPLINE
  5
1be
100
AcDbEntity
  8
0
 62
7
100
AcDbSpline
 70
8
 71
3
 72
8
 73
4
 74
0
 40
0
 40
0
 40
0
 40
0
 40
1
 40
1
 40
1
 40
1
 10
55.394931
 20
144.843096
 30
0.0
 10
55.394931
 20
145.000475
 30
0.0
 10
54.894867
 20
145.426165
 30
0.0
 10
54.283681
 20
145.786777
 30
0.0
  0
SPLINE
  5
1bf
100
AcDbEntity
  8
0
 62
7
100
AcDbSpline
 70
8
 71
3
 72
8
 73
4
 74
0
 40
0
 40
0
 40
0
 40
0
 40
1
 40
1
 40
1
 40
1
 10
54.283681
 20
145.786777
 30
0.0
 10
53.320939
 20
146.354808
 30
0.0
 10
53.172431
 20
146.610778
 30
0.0
 10
53.172431
 20
147.665319
 30
0.0
  0
SPLINE
  5
1c0
100
AcDbEntity
  8
0
 62
7
100
AcDbSpline
 70
8
 71
3
 72
8
 73
4
 74
0
 40
0
 40
0
 40
0
 40
0
 40
1
 40
1
 40
1
 40
1
 10
53.172431
 20
147.665319
 30
0.0
 10
53.172431
 20
148.764633
 30
0.0
 10
52.738302
 20
149.640874
 30
0.0
 10
52.202292
 20
149.640874
 30
0.0
  0
SPLINE
  5
1c1
100
AcDbEntity
  8
0
 62
7
100
AcDbSpline
 70
8
 71
3
 72
8
 73
4
 74
0
 40
0
 40
0
 40
0
 40
0
 40
1
 40
1
 40
1
 40
1
 10
52.202292
 20
149.640874
 30
0.0
 10
51.921723
 20
149.640874
 30
0.0
 10
51.267219
 20
148.139065
 30
0.0
 10
51.258611
 20
147.480110
 30
0.0
  0
SPLINE
  5
1c2
100
AcDbEntity
  8
0
 62
7
100
AcDbSpline
 70
8
 71
3
 72
8
 73
4
 74
0
 40
0
 40
0
 40
0
 40
0
 40
1
 40
1
 40
1
 40
1
 10
51.258611
 20
147.480110
 30
0.0
 10
51.254728
 20
147.182733
 30
0.0
 10
50.973914
 20
146.584935
 30
0.0
 10
50.632431
 20
146.148374
 30
0.0
  0
SPLINE
  5
1c3
100
AcDbEntity
  8
0
 62
7
100
AcDbSpline
 70
8
 71
3
 72
8
 73
4
 74
0
 40
0
 40
0
 40
0
 40
0
 40
1
 40
1
 40
1
 40
1
 10
50.632431
 20
146.148374
 30
0.0
 10
50.290947
 20
145.711810
 30
0.0
 10
50.001297
 20
145.160015
 30
0.0
 10
49.997431
 20
144.922471
 30
0.0
  0
SPLINE
  5
1c4
100
AcDbEntity
  8
0
 62
7
100
AcDbSpline
 70
8
 71
3
 72
8
 73
4
 74
0
 40
0
 40
0
 40
0
 40
0
 40
1
 40
1
 40
1
 40
1
 10
49.997431
 20
144.922471
 30
0.0
 10
49.993547
 20
144.684928
 30
0.0
 10
50.682539
 20
143.541928
 30
0.0
 10
51.523194
 20
142.382471
 30
0.0
  0
SPLINE
  5
1c5
100
AcDbEntity
  8
0
 62
7
100
AcDbSpline
 70
8
 71
3
 72
8
 73
4
 74
0
 40
0
 40
0
 40
0
 40
0
 40
1
 40
1
 40
1
 40
1
 10
51.523194
 20
142.382471
 30
0.0
 10
52.363844
 20
141.223015
 30
0.0
 10
53.399687
 20
139.523329
 30
0.0
 10
53.825069
 20
138.607749
 30
0.0
  0
SPLINE
  5
1c6
100
AcDbEntity
  8
0
 62
7
100
AcDbSpline
 70
8
 71
3
 72
8
 73
4
 74
0
 40
0
 40
0
 40
0
 40
0
 40
1
 40
1
 40
1
 40
1
 10
53.825069
 20
138.607749
 30
0.0
 10
54.703836
 20
136.716307
 30
0.0
 10
55.448968
 20
136.338829
 30
0.0
 10
57.238194
 20
136.887958
 30
0.0
  0
SPLINE
  5
1c7
100
AcDbEntity
  8
0
 62
7
100
AcDbSpline
 70
8
 71
3
 72
8
 73
4
 74
0
 40
0
 40
0
 40
0
 40
0
 40
1
 40
1
 40
1
 40
1
 10
57.238194
 20
136.887958
 30
0.0
 10
58.143569
 20
137.165822
 30
0.0
 10
58.438649
 20
137.155363
 30
0.0
 10
58.622847
 20
136.826221
 30
0.0
  0
SPLINE
  5
1c8
100
AcDbEntity
  8
0
 62
7
100
AcDbSpline
 70
8
 71
3
 72
8
 73
4
 74
0
 40
0
 40
0
 40
0
 40
0
 40
1
 40
1
 40
1
 40
1
 10
58.622847
 20
136.826221
 30
0.0
 10
58.751374
 20
136.596555
 30
0.0
 10
59.124178
 20
136.075558
 30
0.0
 10
59.451875
 20
135.670874
 30
0.0
  0
LWPOLYLINE
  5
1c9
100
AcDbEntity
  8
0
 62
7
100
AcDbPolyline
 90
5
 70
0
 10
97.939931
 20
177.827819
 30
0.0
 10
99.051181
 20
176.963513
 30
0.0
 10
97.260833
 20
175.217263
 30
0.0
 10
95.479306
 20
173.479833
 30
0.0
 10
96.520000
 20
173.135874
 30
0.0
  0
SPLINE
  5
1ca
100
AcDbEntity
  8
0
 62
7
100
AcDbSpline
 70
8
 71
3
 72
8
 73
4
 74
0
 40
0
 40
0
 40
0
 40
0
 40
1
 40
1
 40
1
 40
1
 10
68.306597
 20
135.591499
 30
0.0
 10
71.004345
 20
134.686985
 30
0.0
 10
73.554613
 20
134.050143
 30
0.0
 10
74.921181
 20
133.933444
 30
0.0
  0
SPLINE
  5
1cb
100
AcDbEntity
  8
0
 62
7
100
AcDbSpline
 70
8
 71
3
 72
8
 73
4
 74
0
 40
0
 40
0
 40
0
 40
0
 40
1
 40
1
 40
1
 40
1
 10
74.921181
 20
133.933444
 30
0.0
 10
77.038553
 20
133.752624
 30
0.0
 10
77.241298
 20
133.798708
 30
0.0
 10
79.207431
 20
134.877124
 30
0.0
  0
SPLINE
  5
1cc
100
AcDbEntity
  8
0
 62
7
100
AcDbSpline
 70
8
 71
3
 72
8
 73
4
 74
0
 40
0
 40
0
 40
0
 40
0
 40
1
 40
1
 40
1
 40
1
 10
79.207431
 20
134.877124
 30
0.0
 10
80.342492
 20
135.499704
 30
0.0
 10
81.628367
 20
136.161455
 30
0.0
 10
82.064931
 20
136.349971
 30
0.0
  0
SPLINE
  5
1cd
100
AcDbEntity
  8
0
 62
7
100
AcDbSpline
 70
8
 71
3
 72
8
 73
4
 74
0
 40
0
 40
0
 40
0
 40
0
 40
1
 40
1
 40
1
 40
1
 10
82.064931
 20
136.349971
 30
0.0
 10
82.932674
 20
136.724675
 30
0.0
 10
83.038673
 20
136.779446
 30
0.0
 10
85.469236
 20
138.193235
 30
0.0
  0
SPLINE
  5
1ce
100
AcDbEntity
  8
0
 62
7
100
AcDbSpline
 70
8
 71
3
 72
8
 73
4
 74
0
 40
0
 40
0
 40
0
 40
0
 40
1
 40
1
 40
1
 40
1
 10
85.469236
 20
138.193235
 30
0.0
 10
86.383371
 20
138.724962
 30
0.0
 10
87.271050
 20
139.163374
 30
0.0
 10
87.435972
 20
139.163374
 30
0.0
  0
SPLINE
  5
1cf
100
AcDbEntity
  8
0
 62
7
100
AcDbSpline
 70
8
 71
3
 72
8
 73
4
 74
0
 40
0
 40
0
 40
0
 40
0
 40
1
 40
1
 40
1
 40
1
 10
87.435972
 20
139.163374
 30
0.0
 10
87.600894
 20
139.163374
 30
0.0
 10
88.589217
 20
139.734874
 30
0.0
 10
89.640833
 20
140.433374
 30
0.0
  0
SPLINE
  5
1d0
100
AcDbEntity
  8
0
 62
7
100
AcDbSpline
 70
8
 71
3
 72
8
 73
4
 74
0
 40
0
 40
0
 40
0
 40
0
 40
1
 40
1
 40
1
 40
1
 10
89.640833
 20
140.433374
 30
0.0
 10
90.692444
 20
141.131874
 30
0.0
 10
91.742401
 20
141.709273
 30
0.0
 10
91.969167
 20
141.721013
 30
0.0
  0
SPLINE
  5
1d1
100
AcDbEntity
  8
0
 62
7
100
AcDbSpline
 70
8
 71
3
 72
8
 73
4
 74
0
 40
0
 40
0
 40
0
 40
0
 40
1
 40
1
 40
1
 40
1
 10
91.969167
 20
141.721013
 30
0.0
 10
92.195935
 20
141.732773
 30
0.0
 10
93.662901
 20
142.643185
 30
0.0
 10
95.232361
 20
143.740666
 30
0.0
  0
SPLINE
  5
1d2
100
AcDbEntity
  8
0
 62
7
100
AcDbSpline
 70
8
 71
3
 72
8
 73
4
 74
0
 40
0
 40
0
 40
0
 40
0
 40
1
 40
1
 40
1
 40
1
 10
95.232361
 20
143.740666
 30
0.0
 10
97.825399
 20
145.553907
 30
0.0
 10
98.234079
 20
145.986695
 30
0.0
 10
99.721458
 20
148.494346
 30
0.0
  0
SPLINE
  5
1d3
100
AcDbEntity
  8
0
 62
7
100
AcDbSpline
 70
8
 71
3
 72
8
 73
4
 74
0
 40
0
 40
0
 40
0
 40
0
 40
1
 40
1
 40
1
 40
1
 10
99.721458
 20
148.494346
 30
0.0
 10
100.621702
 20
150.012126
 30
0.0
 10
101.428155
 20
151.646565
 30
0.0
 10
101.511806
 20
152.119138
 30
0.0
  0
SPLINE
  5
1d4
100
AcDbEntity
  8
0
 62
7
100
AcDbSpline
 70
8
 71
3
 72
8
 73
4
 74
0
 40
0
 40
0
 40
0
 40
0
 40
1
 40
1
 40
1
 40
1
 10
101.511806
 20
152.119138
 30
0.0
 10
101.595453
 20
152.591714
 30
0.0
 10
102.040656
 20
153.975506
 30
0.0
 10
102.499583
 20
155.197124
 30
0.0
  0
SPLINE
  5
1d5
100
AcDbEntity
  8
0
 62
7
100
AcDbSpline
 70
8
 71
3
 72
8
 73
4
 74
0
 40
0
 40
0
 40
0
 40
0
 40
1
 40
1
 40
1
 40
1
 10
102.499583
 20
155.197124
 30
0.0
 10
102.958508
 20
156.418740
 30
0.0
 10
103.337431
 20
157.661568
 30
0.0
 10
103.337431
 20
157.957610
 30
0.0
  0
SPLINE
  5
1d6
100
AcDbEntity
  8
0
 62
7
100
AcDbSpline
 70
8
 71
3
 72
8
 73
4
 74
0
 40
0
 40
0
 40
0
 40
0
 40
1
 40
1
 40
1
 40
1
 10
103.337431
 20
157.957610
 30
0.0
 10
103.337431
 20
158.951255
 30
0.0
 10
103.979492
 20
158.904062
 30
0.0
 10
104.334028
 20
157.887055
 30
0.0
  0
SPLINE
  5
1d7
100
AcDbEntity
  8
0
 62
7
100
AcDbSpline
 70
8
 71
3
 72
8
 73
4
 74
0
 40
0
 40
0
 40
0
 40
0
 40
1
 40
1
 40
1
 40
1
 10
104.334028
 20
157.887055
 30
0.0
 10
104.587204
 20
157.160804
 30
0.0
 10
104.762018
 20
156.998563
 30
0.0
 10
104.951389
 20
157.304971
 30
0.0
  0
SPLINE
  5
1d8
100
AcDbEntity
  8
0
 62
7
100
AcDbSpline
 70
8
 71
3
 72
8
 73
4
 74
0
 40
0
 40
0
 40
0
 40
0
 40
1
 40
1
 40
1
 40
1
 10
104.951389
 20
157.304971
 30
0.0
 10
105.147996
 20
157.623087
 30
0.0
 10
105.306396
 20
157.637881
 30
0.0
 10
105.577569
 20
157.366708
 30
0.0
  0
SPLINE
  5
1d9
100
AcDbEntity
  8
0
 62
7
100
AcDbSpline
 70
8
 71
3
 72
8
 73
4
 74
0
 40
0
 40
0
 40
0
 40
0
 40
1
 40
1
 40
1
 40
1
 10
105.577569
 20
157.366708
 30
0.0
 10
105.836376
 20
157.107901
 30
0.0
 10
105.887215
 20
155.348311
 30
0.0
 10
105.753958
 20
151.184277
 30
0.0
  0
SPLINE
  5
1da
100
AcDbEntity
  8
0
 62
7
100
AcDbSpline
 70
8
 71
3
 72
8
 73
4
 74
0
 40
0
 40
0
 40
0
 40
0
 40
1
 40
1
 40
1
 40
1
 10
105.753958
 20
151.184277
 30
0.0
 10
105.651404
 20
147.979720
 30
0.0
 10
105.566492
 20
144.997435
 30
0.0
 10
105.568750
 20
144.560874
 30
0.0
  0
SPLINE
  5
1db
100
AcDbEntity
  8
0
 62
7
100
AcDbSpline
 70
8
 71
3
 72
8
 73
4
 74
0
 40
0
 40
0
 40
0
 40
0
 40
1
 40
1
 40
1
 40
1
 10
105.568750
 20
144.560874
 30
0.0
 10
105.586036
 20
141.171244
 30
0.0
 10
105.499752
 20
140.835256
 30
0.0
 10
103.751944
 20
137.099624
 30
0.0
  0
SPLINE
  5
1dc
100
AcDbEntity
  8
0
 62
7
100
AcDbSpline
 70
8
 71
3
 72
8
 73
4
 74
0
 40
0
 40
0
 40
0
 40
0
 40
1
 40
1
 40
1
 40
1
 10
103.751944
 20
137.099624
 30
0.0
 10
102.771284
 20
135.003627
 30
0.0
 10
101.560870
 20
132.770592
 30
0.0
 10
101.062014
 20
132.134277
 30
0.0
  0
SPLINE
  5
1dd
100
AcDbEntity
  8
0
 62
7
100
AcDbSpline
 70
8
 71
3
 72
8
 73
4
 74
0
 40
0
 40
0
 40
0
 40
0
 40
1
 40
1
 40
1
 40
1
 10
101.062014
 20
132.134277
 30
0.0
 10
100.563158
 20
131.497959
 30
0.0
 10
100.162431
 20
130.819302
 30
0.0
 10
100.162431
 20
130.626152
 30
0.0
  0
SPLINE
  5
1de
100
AcDbEntity
  8
0
 62
7
100
AcDbSpline
 70
8
 71
3
 72
8
 73
4
 74
0
 40
0
 40
0
 40
0
 40
0
 40
1
 40
1
 40
1
 40
1
 10
100.162431
 20
130.626152
 30
0.0
 10
100.162431
 20
130.432996
 30
0.0
 10
100.048356
 20
130.273374
 30
0.0
 10
99.915486
 20
130.273374
 30
0.0
  0
SPLINE
  5
1df
100
AcDbEntity
  8
0
 62
7
100
AcDbSpline
 70
8
 71
3
 72
8
 73
4
 74
0
 40
0
 40
0
 40
0
 40
0
 40
1
 40
1
 40
1
 40
1
 10
99.915486
 20
130.273374
 30
0.0
 10
99.782613
 20
130.273374
 30
0.0
 10
98.760478
 20
129.130374
 30
0.0
 10
97.640069
 20
127.733374
 30
0.0
  0
SPLINE
  5
1e0
100
AcDbEntity
  8
0
 62
7
100
AcDbSpline
 70
8
 71
3
 72
8
 73
4
 74
0
 40
0
 40
0
 40
0
 40
0
 40
1
 40
1
 40
1
 40
1
 10
97.640069
 20
127.733374
 30
0.0
 10
96.519664
 20
126.336374
 30
0.0
 10
95.481919
 20
125.193374
 30
0.0
 10
95.338194
 20
125.193374
 30
0.0
  0
SPLINE
  5
1e1
100
AcDbEntity
  8
0
 62
7
100
AcDbSpline
 70
8
 71
3
 72
8
 73
4
 74
0
 40
0
 40
0
 40
0
 40
0
 40
1
 40
1
 40
1
 40
1
 10
95.338194
 20
125.193374
 30
0.0
 10
95.194473
 20
125.193374
 30
0.0
 10
95.082431
 20
125.004867
 30
0.0
 10
95.082431
 20
124.778860
 30
0.0
  0
SPLINE
  5
1e2
100
AcDbEntity
  8
0
 62
7
100
AcDbSpline
 70
8
 71
3
 72
8
 73
4
 74
0
 40
0
 40
0
 40
0
 40
0
 40
1
 40
1
 40
1
 40
1
 10
95.082431
 20
124.778860
 30
0.0
 10
95.082431
 20
124.552854
 30
0.0
 10
94.510931
 20
123.755223
 30
0.0
 10
93.812431
 20
123.006152
 30
0.0
  0
SPLINE
  5
1e3
100
AcDbEntity
  8
0
 62
7
100
AcDbSpline
 70
8
 71
3
 72
8
 73
4
 74
0
 40
0
 40
0
 40
0
 40
0
 40
1
 40
1
 40
1
 40
1
 10
93.812431
 20
123.006152
 30
0.0
 10
93.113931
 20
122.257078
 30
0.0
 10
92.542431
 20
121.543456
 30
0.0
 10
92.542431
 20
121.418652
 30
0.0
  0
SPLINE
  5
1e4
100
AcDbEntity
  8
0
 62
7
100
AcDbSpline
 70
8
 71
3
 72
8
 73
4
 74
0
 40
0
 40
0
 40
0
 40
0
 40
1
 40
1
 40
1
 40
1
 10
92.542431
 20
121.418652
 30
0.0
 10
92.542431
 20
121.293848
 30
0.0
 10
92.006651
 20
120.607701
 30
0.0
 10
91.351806
 20
119.892888
 30
0.0
  0
SPLINE
  5
1e5
100
AcDbEntity
  8
0
 62
7
100
AcDbSpline
 70
8
 71
3
 72
8
 73
4
 74
0
 40
0
 40
0
 40
0
 40
0
 40
1
 40
1
 40
1
 40
1
 10
91.351806
 20
119.892888
 30
0.0
 10
90.696963
 20
119.178078
 30
0.0
 10
89.483300
 20
117.687050
 30
0.0
 10
88.661875
 20
116.576777
 30
0.0
  0
SPLINE
  5
1e6
100
AcDbEntity
  8
0
 62
7
100
AcDbSpline
 70
8
 71
3
 72
8
 73
4
 74
0
 40
0
 40
0
 40
0
 40
0
 40
1
 40
1
 40
1
 40
1
 10
88.661875
 20
116.576777
 30
0.0
 10
87.840456
 20
115.466506
 30
0.0
 10
86.661738
 20
113.879977
 30
0.0
 10
86.042500
 20
113.048999
 30
0.0
  0
SPLINE
  5
1e7
100
AcDbEntity
  8
0
 62
7
100
AcDbSpline
 70
8
 71
3
 72
8
 73
4
 74
0
 40
0
 40
0
 40
0
 40
0
 40
1
 40
1
 40
1
 40
1
 10
86.042500
 20
113.048999
 30
0.0
 10
85.423268
 20
112.218018
 30
0.0
 10
84.922642
 20
111.432205
 30
0.0
 10
84.922431
 20
111.302749
 30
0.0
  0
SPLINE
  5
1e8
100
AcDbEntity
  8
0
 62
7
100
AcDbSpline
 70
8
 71
3
 72
8
 73
4
 74
0
 40
0
 40
0
 40
0
 40
0
 40
1
 40
1
 40
1
 40
1
 10
84.922431
 20
111.302749
 30
0.0
 10
84.922219
 20
111.173291
 30
0.0
 10
84.546130
 20
110.635999
 30
0.0
 10
84.093403
 20
110.112124
 30
0.0
  0
SPLINE
  5
1e9
100
AcDbEntity
  8
0
 62
7
100
AcDbSpline
 70
8
 71
3
 72
8
 73
4
 74
0
 40
0
 40
0
 40
0
 40
0
 40
1
 40
1
 40
1
 40
1
 10
84.093403
 20
110.112124
 30
0.0
 10
83.374890
 20
109.280689
 30
0.0
 10
80.919083
 20
105.805402
 30
0.0
 10
80.001181
 20
104.326569
 30
0.0
  0
SPLINE
  5
1ea
100
AcDbEntity
  8
0
 62
7
100
AcDbSpline
 70
8
 71
3
 72
8
 73
4
 74
0
 40
0
 40
0
 40
0
 40
0
 40
1
 40
1
 40
1
 40
1
 10
80.001181
 20
104.326569
 30
0.0
 10
79.826556
 20
104.045233
 30
0.0
 10
78.931127
 20
102.675086
 30
0.0
 10
78.016806
 20
101.283860
 30
0.0
  0
SPLINE
  5
1eb
100
AcDbEntity
  8
0
 62
7
100
AcDbSpline
 70
8
 71
3
 72
8
 73
4
 74
0
 40
0
 40
0
 40
0
 40
0
 40
1
 40
1
 40
1
 40
1
 10
78.016806
 20
101.283860
 30
0.0
 10
76.866919
 20
99.534201
 30
0.0
 10
76.409220
 20
98.548958
 30
0.0
 10
76.526319
 20
98.082402
 30
0.0
  0
SPLINE
  5
1ec
100
AcDbEntity
  8
0
 62
7
100
AcDbSpline
 70
8
 71
3
 72
8
 73
4
 74
0
 40
0
 40
0
 40
0
 40
0
 40
1
 40
1
 40
1
 40
1
 10
76.526319
 20
98.082402
 30
0.0
 10
76.651618
 20
97.583176
 30
0.0
 10
76.460466
 20
97.267401
 30
0.0
 10
75.803125
 20
96.865319
 30
0.0
  0
SPLINE
  5
1ed
100
AcDbEntity
  8
0
 62
7
100
AcDbSpline
 70
8
 71
3
 72
8
 73
4
 74
0
 40
0
 40
0
 40
0
 40
0
 40
1
 40
1
 40
1
 40
1
 10
75.803125
 20
96.865319
 30
0.0
 10
75.314652
 20
96.566530
 30
0.0
 10
74.457142
 20
95.901626
 30
0.0
 10
73.889306
 20
95.392471
 30
0.0
  0
LWPOLYLINE
  5
1ee
100
AcDbEntity
  8
0
 62
7
100
AcDbPolyline
 90
5
 70
0
 10
59.451875
 20
135.670874
 30
0.0
 10
60.051597
 20
134.938860
 30
0.0
 10
61.983056
 20
135.997194
 30
0.0
 10
63.923333
 20
137.064346
 30
0.0
 10
68.306597
 20
135.591499
 30
0.0
  0
SPLINE
  5
1ef
100
AcDbEntity
  8
0
 62
7
100
AcDbSpline
 70
8
 71
3
 72
8
 73
4
 74
0
 40
0
 40
0
 40
0
 40
0
 40
1
 40
1
 40
1
 40
1
 10
74.206806
 20
93.143513
 30
0.0
 10
75.915040
 20
91.463083
 30
0.0
 10
78.316492
 20
89.994446
 30
0.0
 10
78.493056
 20
90.524138
 30
0.0
  0
SPLINE
  5
1f0
100
AcDbEntity
  8
0
 62
7
100
AcDbSpline
 70
8
 71
3
 72
8
 73
4
 74
0
 40
0
 40
0
 40
0
 40
0
 40
1
 40
1
 40
1
 40
1
 10
78.493056
 20
90.524138
 30
0.0
 10
78.702510
 20
91.152506
 30
0.0
 10
81.376390
 20
90.989063
 30
0.0
 10
82.258958
 20
90.294833
 30
0.0
  0
SPLINE
  5
1f1
100
AcDbEntity
  8
0
 62
7
100
AcDbSpline
 70
8
 71
3
 72
8
 73
4
 74
0
 40
0
 40
0
 40
0
 40
0
 40
1
 40
1
 40
1
 40
1
 10
82.258958
 20
90.294833
 30
0.0
 10
82.684547
 20
89.960063
 30
0.0
 10
83.608517
 20
89.584979
 30
0.0
 10
84.313889
 20
89.465805
 30
0.0
  0
SPLINE
  5
1f2
100
AcDbEntity
  8
0
 62
7
100
AcDbSpline
 70
8
 71
3
 72
8
 73
4
 74
0
 40
0
 40
0
 40
0
 40
0
 40
1
 40
1
 40
1
 40
1
 10
84.313889
 20
89.465805
 30
0.0
 10
85.231184
 20
89.310831
 30
0.0
 10
85.547180
 20
89.122380
 30
0.0
 10
85.425139
 20
88.804346
 30
0.0
  0
SPLINE
  5
1f3
100
AcDbEntity
  8
0
 62
7
100
AcDbSpline
 70
8
 71
3
 72
8
 73
4
 74
0
 40
0
 40
0
 40
0
 40
0
 40
1
 40
1
 40
1
 40
1
 10
85.425139
 20
88.804346
 30
0.0
 10
85.286726
 20
88.443647
 30
0.0
 10
85.793907
 20
88.363374
 30
0.0
 10
88.088611
 20
88.363374
 30
0.0
  0
SPLINE
  5
1f4
100
AcDbEntity
  8
0
 62
7
100
AcDbSpline
 70
8
 71
3
 72
8
 73
4
 74
0
 40
0
 40
0
 40
0
 40
0
 40
1
 40
1
 40
1
 40
1
 10
88.088611
 20
88.363374
 30
0.0
 10
89.644449
 20
88.363374
 30
0.0
 10
91.005756
 20
88.506249
 30
0.0
 10
91.113681
 20
88.680874
 30
0.0
  0
SPLINE
  5
1f5
100
AcDbEntity
  8
0
 62
7
100
AcDbSpline
 70
8
 71
3
 72
8
 73
4
 74
0
 40
0
 40
0
 40
0
 40
0
 40
1
 40
1
 40
1
 40
1
 10
91.113681
 20
88.680874
 30
0.0
 10
91.221605
 20
88.855499
 30
0.0
 10
91.593458
 20
88.998374
 30
0.0
 10
91.942708
 20
88.998374
 30
0.0
  0
SPLINE
  5
1f6
100
AcDbEntity
  8
0
 62
7
100
AcDbSpline
 70
8
 71
3
 72
8
 73
4
 74
0
 40
0
 40
0
 40
0
 40
0
 40
1
 40
1
 40
1
 40
1
 10
91.942708
 20
88.998374
 30
0.0
 10
92.291958
 20
88.998374
 30
0.0
 10
92.497013
 20
88.870990
 30
0.0
 10
92.401319
 20
88.716152
 30
0.0
  0
SPLINE
  5
1f7
100
AcDbEntity
  8
0
 62
7
100
AcDbSpline
 70
8
 71
3
 72
8
 73
4
 74
0
 40
0
 40
0
 40
0
 40
0
 40
1
 40
1
 40
1
 40
1
 10
92.401319
 20
88.716152
 30
0.0
 10
92.004190
 20
88.073586
 30
0.0
 10
93.175726
 20
87.666827
 30
0.0
 10
94.835486
 20
87.869485
 30
0.0
  0
SPLINE
  5
1f8
100
AcDbEntity
  8
0
 62
7
100
AcDbSpline
 70
8
 71
3
 72
8
 73
4
 74
0
 40
0
 40
0
 40
0
 40
0
 40
1
 40
1
 40
1
 40
1
 10
94.835486
 20
87.869485
 30
0.0
 10
95.757317
 20
87.982044
 30
0.0
 10
97.154119
 20
88.066970
 30
0.0
 10
97.939931
 20
88.054694
 30
0.0
  0
SPLINE
  5
1f9
100
AcDbEntity
  8
0
 62
7
100
AcDbSpline
 70
8
 71
3
 72
8
 73
4
 74
0
 40
0
 40
0
 40
0
 40
0
 40
1
 40
1
 40
1
 40
1
 10
97.939931
 20
88.054694
 30
0.0
 10
98.725744
 20
88.042397
 30
0.0
 10
100.118776
 20
88.022280
 30
0.0
 10
101.035556
 20
88.010596
 30
0.0
  0
LWPOLYLINE
  5
1fa
100
AcDbEntity
  8
0
 62
7
100
AcDbPolyline
 90
3
 70
0
 10
73.889306
 20
95.392471
 30
0.0
 10
72.848611
 20
94.466430
 30
0.0
 10
74.206806
 20
93.143513
 30
0.0
  0
SPLINE
  5
1fb
100
AcDbEntity
  8
0
 62
7
100
AcDbSpline
 70
8
 71
3
 72
8
 73
4
 74
0
 40
0
 40
0
 40
0
 40
0
 40
1
 40
1
 40
1
 40
1
 10
102.702431
 20
84.350527
 30
0.0
 10
102.702431
 20
80.988560
 30
0.0
 10
102.615921
 20
80.491440
 30
0.0
 10
101.608819
 20
77.788860
 30
0.0
  0
SPLINE
  5
1fc
100
AcDbEntity
  8
0
 62
7
100
AcDbSpline
 70
8
 71
3
 72
8
 73
4
 74
0
 40
0
 40
0
 40
0
 40
0
 40
1
 40
1
 40
1
 40
1
 10
101.608819
 20
77.788860
 30
0.0
 10
99.883654
 20
73.159360
 30
0.0
 10
98.303063
 20
68.129556
 30
0.0
 10
97.957569
 20
66.182471
 30
0.0
  0
SPLINE
  5
1fd
100
AcDbEntity
  8
0
 62
7
100
AcDbSpline
 70
8
 71
3
 72
8
 73
4
 74
0
 40
0
 40
0
 40
0
 40
0
 40
1
 40
1
 40
1
 40
1
 10
97.957569
 20
66.182471
 30
0.0
 10
97.782713
 20
65.197039
 30
0.0
 10
97.407462
 20
58.819999
 30
0.0
 10
97.128542
 20
52.009624
 30
0.0
  0
SPLINE
  5
1fe
100
AcDbEntity
  8
0
 62
7
100
AcDbSpline
 70
8
 71
3
 72
8
 73
4
 74
0
 40
0
 40
0
 40
0
 40
0
 40
1
 40
1
 40
1
 40
1
 10
97.128542
 20
52.009624
 30
0.0
 10
96.849619
 20
45.199249
 30
0.0
 10
96.563273
 20
39.448531
 30
0.0
 10
96.493542
 20
39.230249
 30
0.0
  0
SPLINE
  5
1ff
100
AcDbEntity
  8
0
 62
7
100
AcDbSpline
 70
8
 71
3
 72
8
 73
4
 74
0
 40
0
 40
0
 40
0
 40
0
 40
1
 40
1
 40
1
 40
1
 10
96.493542
 20
39.230249
 30
0.0
 10
96.423810
 20
39.011967
 30
0.0
 10
96.080981
 20
38.833374
 30
0.0
 10
95.726250
 20
38.833374
 30
0.0
  0
SPLINE
  5
200
100
AcDbEntity
  8
0
 62
7
100
AcDbSpline
 70
8
 71
3
 72
8
 73
4
 74
0
 40
0
 40
0
 40
0
 40
0
 40
1
 40
1
 40
1
 40
1
 10
95.726250
 20
38.833374
 30
0.0
 10
95.165943
 20
38.833374
 30
0.0
 10
95.071111
 20
38.614579
 30
0.0
 10
95.029514
 20
37.166499
 30
0.0
  0
SPLINE
  5
201
100
AcDbEntity
  8
0
 62
7
100
AcDbSpline
 70
8
 71
3
 72
8
 73
4
 74
0
 40
0
 40
0
 40
0
 40
0
 40
1
 40
1
 40
1
 40
1
 10
95.029514
 20
37.166499
 30
0.0
 10
95.003166
 20
36.249717
 30
0.0
 10
95.016749
 20
35.093103
 30
0.0
 10
95.055972
 20
34.600041
 30
0.0
  0
SPLINE
  5
202
100
AcDbEntity
  8
0
 62
7
100
AcDbSpline
 70
8
 71
3
 72
8
 73
4
 74
0
 40
0
 40
0
 40
0
 40
0
 40
1
 40
1
 40
1
 40
1
 10
95.055972
 20
34.600041
 30
0.0
 10
95.120373
 20
33.790486
 30
0.0
 10
95.036584
 20
33.713527
 30
0.0
 10
94.226944
 20
33.806291
 30
0.0
  0
SPLINE
  5
203
100
AcDbEntity
  8
0
 62
7
100
AcDbSpline
 70
8
 71
3
 72
8
 73
4
 74
0
 40
0
 40
0
 40
0
 40
0
 40
1
 40
1
 40
1
 40
1
 10
94.226944
 20
33.806291
 30
0.0
 10
93.578237
 20
33.880620
 30
0.0
 10
93.303756
 20
34.109615
 30
0.0
 10
93.230347
 20
34.626499
 30
0.0
  0
SPLINE
  5
204
100
AcDbEntity
  8
0
 62
7
100
AcDbSpline
 70
8
 71
3
 72
8
 73
4
 74
0
 40
0
 40
0
 40
0
 40
0
 40
1
 40
1
 40
1
 40
1
 10
93.230347
 20
34.626499
 30
0.0
 10
93.173815
 20
35.024537
 30
0.0
 10
93.292882
 20
35.340874
 30
0.0
 10
93.503750
 20
35.340874
 30
0.0
  0
SPLINE
  5
205
100
AcDbEntity
  8
0
 62
7
100
AcDbSpline
 70
8
 71
3
 72
8
 73
4
 74
0
 40
0
 40
0
 40
0
 40
0
 40
1
 40
1
 40
1
 40
1
 10
93.503750
 20
35.340874
 30
0.0
 10
93.789235
 20
35.340874
 30
0.0
 10
93.793079
 20
35.457875
 30
0.0
 10
93.494931
 20
35.817124
 30
0.0
  0
SPLINE
  5
206
100
AcDbEntity
  8
0
 62
7
100
AcDbSpline
 70
8
 71
3
 72
8
 73
4
 74
0
 40
0
 40
0
 40
0
 40
0
 40
1
 40
1
 40
1
 40
1
 10
93.494931
 20
35.817124
 30
0.0
 10
93.277540
 20
36.079063
 30
0.0
 10
92.861920
 20
36.280688
 30
0.0
 10
92.577708
 20
36.266916
 30
0.0
  0
SPLINE
  5
207
100
AcDbEntity
  8
0
 62
7
100
AcDbSpline
 70
8
 71
3
 72
8
 73
4
 74
0
 40
0
 40
0
 40
0
 40
0
 40
1
 40
1
 40
1
 40
1
 10
92.577708
 20
36.266916
 30
0.0
 10
92.248674
 20
36.250956
 30
0.0
 10
92.210351
 20
36.183677
 30
0.0
 10
92.463056
 20
36.081708
 30
0.0
  0
SPLINE
  5
208
100
AcDbEntity
  8
0
 62
7
100
AcDbSpline
 70
8
 71
3
 72
8
 73
4
 74
0
 40
0
 40
0
 40
0
 40
0
 40
1
 40
1
 40
1
 40
1
 10
92.463056
 20
36.081708
 30
0.0
 10
92.681338
 20
35.993632
 30
0.0
 10
92.859931
 20
35.434801
 30
0.0
 10
92.859931
 20
34.838166
 30
0.0
  0
SPLINE
  5
209
100
AcDbEntity
  8
0
 62
7
100
AcDbSpline
 70
8
 71
3
 72
8
 73
4
 74
0
 40
0
 40
0
 40
0
 40
0
 40
1
 40
1
 40
1
 40
1
 10
92.859931
 20
34.838166
 30
0.0
 10
92.859931
 20
33.851396
 30
0.0
 10
92.776254
 20
33.753374
 30
0.0
 10
91.933889
 20
33.753374
 30
0.0
  0
SPLINE
  5
20a
100
AcDbEntity
  8
0
 62
7
100
AcDbSpline
 70
8
 71
3
 72
8
 73
4
 74
0
 40
0
 40
0
 40
0
 40
0
 40
1
 40
1
 40
1
 40
1
 10
91.933889
 20
33.753374
 30
0.0
 10
91.424568
 20
33.753374
 30
0.0
 10
90.928357
 20
33.931967
 30
0.0
 10
90.840278
 20
34.150249
 30
0.0
  0
SPLINE
  5
20b
100
AcDbEntity
  8
0
 62
7
100
AcDbSpline
 70
8
 71
3
 72
8
 73
4
 74
0
 40
0
 40
0
 40
0
 40
0
 40
1
 40
1
 40
1
 40
1
 10
90.840278
 20
34.150249
 30
0.0
 10
90.744610
 20
34.387338
 30
0.0
 10
90.670055
 20
34.323426
 30
0.0
 10
90.655069
 20
33.991499
 30
0.0
  0
SPLINE
  5
20c
100
AcDbEntity
  8
0
 62
7
100
AcDbSpline
 70
8
 71
3
 72
8
 73
4
 74
0
 40
0
 40
0
 40
0
 40
0
 40
1
 40
1
 40
1
 40
1
 10
90.655069
 20
33.991499
 30
0.0
 10
90.641283
 20
33.685906
 30
0.0
 10
90.788081
 20
33.435874
 30
0.0
 10
90.981389
 20
33.435874
 30
0.0
  0
SPLINE
  5
20d
100
AcDbEntity
  8
0
 62
7
100
AcDbSpline
 70
8
 71
3
 72
8
 73
4
 74
0
 40
0
 40
0
 40
0
 40
0
 40
1
 40
1
 40
1
 40
1
 10
90.981389
 20
33.435874
 30
0.0
 10
91.174714
 20
33.435874
 30
0.0
 10
91.258294
 20
33.221563
 30
0.0
 10
91.157778
 20
32.959624
 30
0.0
  0
SPLINE
  5
20e
100
AcDbEntity
  8
0
 62
7
100
AcDbSpline
 70
8
 71
3
 72
8
 73
4
 74
0
 40
0
 40
0
 40
0
 40
0
 40
1
 40
1
 40
1
 40
1
 10
91.157778
 20
32.959624
 30
0.0
 10
91.057262
 20
32.697688
 30
0.0
 10
91.127016
 20
32.483374
 30
0.0
 10
91.316528
 20
32.483374
 30
0.0
  0
SPLINE
  5
20f
100
AcDbEntity
  8
0
 62
7
100
AcDbSpline
 70
8
 71
3
 72
8
 73
4
 74
0
 40
0
 40
0
 40
0
 40
0
 40
1
 40
1
 40
1
 40
1
 10
91.316528
 20
32.483374
 30
0.0
 10
91.508382
 20
32.483374
 30
0.0
 10
91.588359
 20
32.195711
 30
0.0
 10
91.492917
 20
31.830735
 30
0.0
  0
SPLINE
  5
210
100
AcDbEntity
  8
0
 62
7
100
AcDbSpline
 70
8
 71
3
 72
8
 73
4
 74
0
 40
0
 40
0
 40
0
 40
0
 40
1
 40
1
 40
1
 40
1
 10
91.492917
 20
31.830735
 30
0.0
 10
91.282416
 20
31.025781
 30
0.0
 10
92.769281
 20
29.493760
 30
0.0
 10
94.306319
 20
28.937958
 30
0.0
  0
LWPOLYLINE
  5
211
100
AcDbEntity
  8
0
 62
7
100
AcDbPolyline
 90
3
 70
0
 10
101.035556
 20
88.010596
 30
0.0
 10
102.702431
 20
87.984138
 30
0.0
 10
102.702431
 20
84.350527
 30
0.0
  0
SPLINE
  5
212
100
AcDbEntity
  8
0
 62
7
100
AcDbSpline
 70
8
 71
3
 72
8
 73
4
 74
0
 40
0
 40
0
 40
0
 40
0
 40
1
 40
1
 40
1
 40
1
 10
95.214722
 20
26.397958
 30
0.0
 10
95.140125
 20
25.206065
 30
0.0
 10
95.017164
 20
23.239115
 30
0.0
 10
94.941319
 20
22.032333
 30
0.0
  0
SPLINE
  5
213
100
AcDbEntity
  8
0
 62
7
100
AcDbSpline
 70
8
 71
3
 72
8
 73
4
 74
0
 40
0
 40
0
 40
0
 40
0
 40
1
 40
1
 40
1
 40
1
 10
94.941319
 20
22.032333
 30
0.0
 10
94.861705
 20
20.765587
 30
0.0
 10
94.525708
 20
19.228788
 30
0.0
 10
94.147569
 20
18.398721
 30
0.0
  0
SPLINE
  5
214
100
AcDbEntity
  8
0
 62
7
100
AcDbSpline
 70
8
 71
3
 72
8
 73
4
 74
0
 40
0
 40
0
 40
0
 40
0
 40
1
 40
1
 40
1
 40
1
 10
94.147569
 20
18.398721
 30
0.0
 10
93.783020
 20
17.598477
 30
0.0
 10
93.475133
 20
16.215168
 30
0.0
 10
93.450833
 20
15.276638
 30
0.0
  0
SPLINE
  5
215
100
AcDbEntity
  8
0
 62
7
100
AcDbSpline
 70
8
 71
3
 72
8
 73
4
 74
0
 40
0
 40
0
 40
0
 40
0
 40
1
 40
1
 40
1
 40
1
 10
93.450833
 20
15.276638
 30
0.0
 10
93.426828
 20
14.349228
 30
0.0
 10
93.225820
 20
12.449124
 30
0.0
 10
93.009861
 20
11.052124
 30
0.0
  0
SPLINE
  5
216
100
AcDbEntity
  8
0
 62
7
100
AcDbSpline
 70
8
 71
3
 72
8
 73
4
 74
0
 40
0
 40
0
 40
0
 40
0
 40
1
 40
1
 40
1
 40
1
 10
93.009861
 20
11.052124
 30
0.0
 10
92.762973
 20
9.455057
 30
0.0
 10
92.691771
 20
7.222905
 30
0.0
 10
92.815833
 20
5.037263
 30
0.0
  0
LWPOLYLINE
  5
217
100
AcDbEntity
  8
0
 62
7
100
AcDbPolyline
 90
3
 70
0
 10
94.306319
 20
28.937958
 30
0.0
 10
95.347014
 20
28.558721
 30
0.0
 10
95.214722
 20
26.397958
 30
0.0
  0
SPLINE
  5
218
100
AcDbEntity
  8
0
 62
7
100
AcDbSpline
 70
8
 71
3
 72
8
 73
4
 74
0
 40
0
 40
0
 40
0
 40
0
 40
1
 40
1
 40
1
 40
1
 10
94.059375
 20
0.953860
 30
0.0
 10
94.633395
 20
0.619371
 30
0.0
 10
95.847831
 20
0.244467
 30
0.0
 10
96.758125
 20
0.124833
 30
0.0
  0
SPLINE
  5
219
100
AcDbEntity
  8
0
 62
7
100
AcDbSpline
 70
8
 71
3
 72
8
 73
4
 74
0
 40
0
 40
0
 40
0
 40
0
 40
1
 40
1
 40
1
 40
1
 10
96.758125
 20
0.124833
 30
0.0
 10
98.957951
 20
-0.164276
 30
0.0
 10
100.979921
 20
0.049776
 30
0.0
 10
102.570139
 20
0.733374
 30
0.0
  0
LWPOLYLINE
  5
21a
100
AcDbEntity
  8
0
 62
7
100
AcDbPolyline
 90
3
 70
0
 10
92.815833
 20
5.037263
 30
0.0
 10
93.018681
 20
1.562402
 30
0.0
 10
94.059375
 20
0.953860
 30
0.0
  0
SPLINE
  5
21b
100
AcDbEntity
  8
0
 62
7
100
AcDbSpline
 70
8
 71
3
 72
8
 73
4
 74
0
 40
0
 40
0
 40
0
 40
0
 40
1
 40
1
 40
1
 40
1
 10
104.104722
 20
5.733999
 30
0.0
 10
104.288858
 20
9.361401
 30
0.0
 10
104.240765
 20
10.396635
 30
0.0
 10
103.848958
 20
11.334346
 30
0.0
  0
SPLINE
  5
21c
100
AcDbEntity
  8
0
 62
7
100
AcDbSpline
 70
8
 71
3
 72
8
 73
4
 74
0
 40
0
 40
0
 40
0
 40
0
 40
1
 40
1
 40
1
 40
1
 10
103.848958
 20
11.334346
 30
0.0
 10
103.584900
 20
11.966327
 30
0.0
 10
103.205018
 20
13.659166
 30
0.0
 10
103.011111
 20
15.100249
 30
0.0
  0
SPLINE
  5
21d
100
AcDbEntity
  8
0
 62
7
100
AcDbSpline
 70
8
 71
3
 72
8
 73
4
 74
0
 40
0
 40
0
 40
0
 40
0
 40
1
 40
1
 40
1
 40
1
 10
103.011111
 20
15.100249
 30
0.0
 10
102.817205
 20
16.541296
 30
0.0
 10
102.520273
 20
18.171645
 30
0.0
 10
102.349653
 20
18.725041
 30
0.0
  0
SPLINE
  5
21e
100
AcDbEntity
  8
0
 62
7
100
AcDbSpline
 70
8
 71
3
 72
8
 73
4
 74
0
 40
0
 40
0
 40
0
 40
0
 40
1
 40
1
 40
1
 40
1
 10
102.349653
 20
18.725041
 30
0.0
 10
102.179038
 20
19.278439
 30
0.0
 10
101.979651
 20
21.885907
 30
0.0
 10
101.899861
 20
24.519416
 30
0.0
  0
SPLINE
  5
21f
100
AcDbEntity
  8
0
 62
7
100
AcDbSpline
 70
8
 71
3
 72
8
 73
4
 74
0
 40
0
 40
0
 40
0
 40
0
 40
1
 40
1
 40
1
 40
1
 10
101.899861
 20
24.519416
 30
0.0
 10
101.775683
 20
28.617881
 30
0.0
 10
101.820602
 20
29.308374
 30
0.0
 10
102.226181
 20
29.308374
 30
0.0
  0
SPLINE
  5
220
100
AcDbEntity
  8
0
 62
7
100
AcDbSpline
 70
8
 71
3
 72
8
 73
4
 74
0
 40
0
 40
0
 40
0
 40
0
 40
1
 40
1
 40
1
 40
1
 10
102.226181
 20
29.308374
 30
0.0
 10
102.486787
 20
29.308374
 30
0.0
 10
102.702431
 20
29.094063
 30
0.0
 10
102.702431
 20
28.832124
 30
0.0
  0
SPLINE
  5
221
100
AcDbEntity
  8
0
 62
7
100
AcDbSpline
 70
8
 71
3
 72
8
 73
4
 74
0
 40
0
 40
0
 40
0
 40
0
 40
1
 40
1
 40
1
 40
1
 10
102.702431
 20
28.832124
 30
0.0
 10
102.702431
 20
28.567541
 30
0.0
 10
102.984653
 20
28.355874
 30
0.0
 10
103.337431
 20
28.355874
 30
0.0
  0
SPLINE
  5
222
100
AcDbEntity
  8
0
 62
7
100
AcDbSpline
 70
8
 71
3
 72
8
 73
4
 74
0
 40
0
 40
0
 40
0
 40
0
 40
1
 40
1
 40
1
 40
1
 10
103.337431
 20
28.355874
 30
0.0
 10
103.686681
 20
28.355874
 30
0.0
 10
103.972431
 20
28.498749
 30
0.0
 10
103.972431
 20
28.673374
 30
0.0
  0
SPLINE
  5
223
100
AcDbEntity
  8
0
 62
7
100
AcDbSpline
 70
8
 71
3
 72
8
 73
4
 74
0
 40
0
 40
0
 40
0
 40
0
 40
1
 40
1
 40
1
 40
1
 10
103.972431
 20
28.673374
 30
0.0
 10
103.972431
 20
28.847999
 30
0.0
 10
104.135823
 20
28.990874
 30
0.0
 10
104.342847
 20
28.990874
 30
0.0
  0
SPLINE
  5
224
100
AcDbEntity
  8
0
 62
7
100
AcDbSpline
 70
8
 71
3
 72
8
 73
4
 74
0
 40
0
 40
0
 40
0
 40
0
 40
1
 40
1
 40
1
 40
1
 10
104.342847
 20
28.990874
 30
0.0
 10
104.832839
 20
28.990874
 30
0.0
 10
106.194931
 20
30.267061
 30
0.0
 10
106.194931
 20
30.728305
 30
0.0
  0
SPLINE
  5
225
100
AcDbEntity
  8
0
 62
7
100
AcDbSpline
 70
8
 71
3
 72
8
 73
4
 74
0
 40
0
 40
0
 40
0
 40
0
 40
1
 40
1
 40
1
 40
1
 10
106.194931
 20
30.728305
 30
0.0
 10
106.194931
 20
30.924720
 30
0.0
 10
105.730588
 20
31.257861
 30
0.0
 10
105.163056
 20
31.469138
 30
0.0
  0
SPLINE
  5
226
100
AcDbEntity
  8
0
 62
7
100
AcDbSpline
 70
8
 71
3
 72
8
 73
4
 74
0
 40
0
 40
0
 40
0
 40
0
 40
1
 40
1
 40
1
 40
1
 10
105.163056
 20
31.469138
 30
0.0
 10
104.595524
 20
31.680415
 30
0.0
 10
103.781575
 20
32.126801
 30
0.0
 10
103.355069
 20
32.456916
 30
0.0
  0
LWPOLYLINE
  5
227
100
AcDbEntity
  8
0
 62
7
100
AcDbPolyline
 90
3
 70
0
 10
102.570139
 20
0.733374
 30
0.0
 10
103.875417
 20
1.288999
 30
0.0
 10
104.104722
 20
5.733999
 30
0.0
  0
SPLINE
  5
228
100
AcDbEntity
  8
0
 62
7
100
AcDbSpline
 70
8
 71
3
 72
8
 73
4
 74
0
 40
0
 40
0
 40
0
 40
0
 40
1
 40
1
 40
1
 40
1
 10
103.187500
 20
35.490805
 30
0.0
 10
103.760216
 20
37.790704
 30
0.0
 10
103.764376
 20
37.954184
 30
0.0
 10
103.249236
 20
38.242471
 30
0.0
  0
SPLINE
  5
229
100
AcDbEntity
  8
0
 62
7
100
AcDbSpline
 70
8
 71
3
 72
8
 73
4
 74
0
 40
0
 40
0
 40
0
 40
0
 40
1
 40
1
 40
1
 40
1
 10
103.249236
 20
38.242471
 30
0.0
 10
102.568990
 20
38.623155
 30
0.0
 10
102.549339
 20
39.688702
 30
0.0
 10
103.187500
 20
42.705110
 30
0.0
  0
SPLINE
  5
22a
100
AcDbEntity
  8
0
 62
7
100
AcDbSpline
 70
8
 71
3
 72
8
 73
4
 74
0
 40
0
 40
0
 40
0
 40
0
 40
1
 40
1
 40
1
 40
1
 10
103.187500
 20
42.705110
 30
0.0
 10
103.457759
 20
43.982561
 30
0.0
 10
103.806526
 20
46.028827
 30
0.0
 10
103.963611
 20
47.255944
 30
0.0
  0
SPLINE
  5
22b
100
AcDbEntity
  8
0
 62
7
100
AcDbSpline
 70
8
 71
3
 72
8
 73
4
 74
0
 40
0
 40
0
 40
0
 40
0
 40
1
 40
1
 40
1
 40
1
 10
103.963611
 20
47.255944
 30
0.0
 10
104.120693
 20
48.483063
 30
0.0
 10
104.736113
 20
51.340563
 30
0.0
 10
105.330625
 20
53.605944
 30
0.0
  0
SPLINE
  5
22c
100
AcDbEntity
  8
0
 62
7
100
AcDbSpline
 70
8
 71
3
 72
8
 73
4
 74
0
 40
0
 40
0
 40
0
 40
0
 40
1
 40
1
 40
1
 40
1
 10
105.330625
 20
53.605944
 30
0.0
 10
107.110090
 20
60.386589
 30
0.0
 10
108.492219
 20
66.985075
 30
0.0
 10
109.052431
 20
71.403583
 30
0.0
  0
SPLINE
  5
22d
100
AcDbEntity
  8
0
 62
7
100
AcDbSpline
 70
8
 71
3
 72
8
 73
4
 74
0
 40
0
 40
0
 40
0
 40
0
 40
1
 40
1
 40
1
 40
1
 10
109.052431
 20
71.403583
 30
0.0
 10
109.265003
 20
73.080172
 30
0.0
 10
109.710282
 20
74.580696
 30
0.0
 10
110.454722
 20
76.113166
 30
0.0
  0
SPLINE
  5
22e
100
AcDbEntity
  8
0
 62
7
100
AcDbSpline
 70
8
 71
3
 72
8
 73
4
 74
0
 40
0
 40
0
 40
0
 40
0
 40
1
 40
1
 40
1
 40
1
 10
110.454722
 20
76.113166
 30
0.0
 10
111.674089
 20
78.623298
 30
0.0
 10
112.049981
 20
79.876661
 30
0.0
 10
112.553750
 20
83.151083
 30
0.0
  0
LWPOLYLINE
  5
22f
100
AcDbEntity
  8
0
 62
7
100
AcDbPolyline
 90
3
 70
0
 10
103.355069
 20
32.456916
 30
0.0
 10
102.578958
 20
33.056638
 30
0.0
 10
103.187500
 20
35.490805
 30
0.0
  0
SPLINE
  5
230
100
AcDbEntity
  8
0
 62
7
100
AcDbSpline
 70
8
 71
3
 72
8
 73
4
 74
0
 40
0
 40
0
 40
0
 40
0
 40
1
 40
1
 40
1
 40
1
 10
115.384792
 20
85.373583
 30
0.0
 10
117.389267
 20
85.356835
 30
0.0
 10
118.006269
 20
85.469860
 30
0.0
 10
118.533333
 20
85.946846
 30
0.0
  0
SPLINE
  5
231
100
AcDbEntity
  8
0
 62
7
100
AcDbSpline
 70
8
 71
3
 72
8
 73
4
 74
0
 40
0
 40
0
 40
0
 40
0
 40
1
 40
1
 40
1
 40
1
 10
118.533333
 20
85.946846
 30
0.0
 10
119.022662
 20
86.389681
 30
0.0
 10
119.407043
 20
86.471800
 30
0.0
 10
120.067917
 20
86.290805
 30
0.0
  0
SPLINE
  5
232
100
AcDbEntity
  8
0
 62
7
100
AcDbSpline
 70
8
 71
3
 72
8
 73
4
 74
0
 40
0
 40
0
 40
0
 40
0
 40
1
 40
1
 40
1
 40
1
 10
120.067917
 20
86.290805
 30
0.0
 10
120.554253
 20
86.157607
 30
0.0
 10
122.415012
 20
85.994390
 30
0.0
 10
124.195417
 20
85.920388
 30
0.0
  0
LWPOLYLINE
  5
233
100
AcDbEntity
  8
0
 62
7
100
AcDbPolyline
 90
3
 70
0
 10
112.553750
 20
83.151083
 30
0.0
 10
112.897708
 20
85.391221
 30
0.0
 10
115.384792
 20
85.373583
 30
0.0
  0
SPLINE
  5
234
100
AcDbEntity
  8
0
 62
7
100
AcDbSpline
 70
8
 71
3
 72
8
 73
4
 74
0
 40
0
 40
0
 40
0
 40
0
 40
1
 40
1
 40
1
 40
1
 10
127.529167
 20
84.456360
 30
0.0
 10
127.608398
 20
83.368574
 30
0.0
 10
127.783534
 20
83.051608
 30
0.0
 10
128.499306
 20
82.710110
 30
0.0
  0
SPLINE
  5
235
100
AcDbEntity
  8
0
 62
7
100
AcDbSpline
 70
8
 71
3
 72
8
 73
4
 74
0
 40
0
 40
0
 40
0
 40
0
 40
1
 40
1
 40
1
 40
1
 10
128.499306
 20
82.710110
 30
0.0
 10
129.011632
 20
82.465678
 30
0.0
 10
129.372431
 20
82.042141
 30
0.0
 10
129.372431
 20
81.678235
 30
0.0
  0
SPLINE
  5
236
100
AcDbEntity
  8
0
 62
7
100
AcDbSpline
 70
8
 71
3
 72
8
 73
4
 74
0
 40
0
 40
0
 40
0
 40
0
 40
1
 40
1
 40
1
 40
1
 10
129.372431
 20
81.678235
 30
0.0
 10
129.372431
 20
81.337136
 30
0.0
 10
130.166051
 20
79.380715
 30
0.0
 10
131.145139
 20
77.330249
 30
0.0
  0
SPLINE
  5
237
100
AcDbEntity
  8
0
 62
7
100
AcDbSpline
 70
8
 71
3
 72
8
 73
4
 74
0
 40
0
 40
0
 40
0
 40
0
 40
1
 40
1
 40
1
 40
1
 10
131.145139
 20
77.330249
 30
0.0
 10
132.292671
 20
74.927003
 30
0.0
 10
133.031131
 20
72.922638
 30
0.0
 10
133.208889
 20
71.694624
 30
0.0
  0
SPLINE
  5
238
100
AcDbEntity
  8
0
 62
7
100
AcDbSpline
 70
8
 71
3
 72
8
 73
4
 74
0
 40
0
 40
0
 40
0
 40
0
 40
1
 40
1
 40
1
 40
1
 10
133.208889
 20
71.694624
 30
0.0
 10
133.360555
 20
70.646874
 30
0.0
 10
133.922451
 20
67.717938
 30
0.0
 10
134.461250
 20
65.185874
 30
0.0
  0
SPLINE
  5
239
100
AcDbEntity
  8
0
 62
7
100
AcDbSpline
 70
8
 71
3
 72
8
 73
4
 74
0
 40
0
 40
0
 40
0
 40
0
 40
1
 40
1
 40
1
 40
1
 10
134.461250
 20
65.185874
 30
0.0
 10
135.000046
 20
62.653810
 30
0.0
 10
135.580301
 20
59.653438
 30
0.0
 10
135.748889
 20
58.518374
 30
0.0
  0
SPLINE
  5
23a
100
AcDbEntity
  8
0
 62
7
100
AcDbSpline
 70
8
 71
3
 72
8
 73
4
 74
0
 40
0
 40
0
 40
0
 40
0
 40
1
 40
1
 40
1
 40
1
 10
135.748889
 20
58.518374
 30
0.0
 10
135.917477
 20
57.383313
 30
0.0
 10
136.489257
 20
54.882999
 30
0.0
 10
137.027708
 20
52.962124
 30
0.0
  0
SPLINE
  5
23b
100
AcDbEntity
  8
0
 62
7
100
AcDbSpline
 70
8
 71
3
 72
8
 73
4
 74
0
 40
0
 40
0
 40
0
 40
0
 40
1
 40
1
 40
1
 40
1
 10
137.027708
 20
52.962124
 30
0.0
 10
137.566160
 20
51.041249
 30
0.0
 10
138.135913
 20
48.540938
 30
0.0
 10
138.288889
 20
47.405874
 30
0.0
  0
SPLINE
  5
23c
100
AcDbEntity
  8
0
 62
7
100
AcDbSpline
 70
8
 71
3
 72
8
 73
4
 74
0
 40
0
 40
0
 40
0
 40
0
 40
1
 40
1
 40
1
 40
1
 10
138.288889
 20
47.405874
 30
0.0
 10
138.441865
 20
46.270813
 30
0.0
 10
138.906764
 20
43.770499
 30
0.0
 10
139.320764
 20
41.849624
 30
0.0
  0
SPLINE
  5
23d
100
AcDbEntity
  8
0
 62
7
100
AcDbSpline
 70
8
 71
3
 72
8
 73
4
 74
0
 40
0
 40
0
 40
0
 40
0
 40
1
 40
1
 40
1
 40
1
 10
139.320764
 20
41.849624
 30
0.0
 10
139.971413
 20
38.830750
 30
0.0
 10
140.015174
 20
38.284912
 30
0.0
 10
139.629444
 20
37.836777
 30
0.0
  0
SPLINE
  5
23e
100
AcDbEntity
  8
0
 62
7
100
AcDbSpline
 70
8
 71
3
 72
8
 73
4
 74
0
 40
0
 40
0
 40
0
 40
0
 40
1
 40
1
 40
1
 40
1
 10
139.629444
 20
37.836777
 30
0.0
 10
139.245461
 20
37.390663
 30
0.0
 10
139.252889
 20
37.016326
 30
0.0
 10
139.682361
 20
35.164485
 30
0.0
  0
SPLINE
  5
23f
100
AcDbEntity
  8
0
 62
7
100
AcDbSpline
 70
8
 71
3
 72
8
 73
4
 74
0
 40
0
 40
0
 40
0
 40
0
 40
1
 40
1
 40
1
 40
1
 10
139.682361
 20
35.164485
 30
0.0
 10
140.175691
 20
33.037280
 30
0.0
 10
140.169849
 20
33.007673
 30
0.0
 10
139.461875
 20
32.254069
 30
0.0
  0
SPLINE
  5
240
100
AcDbEntity
  8
0
 62
7
100
AcDbSpline
 70
8
 71
3
 72
8
 73
4
 74
0
 40
0
 40
0
 40
0
 40
0
 40
1
 40
1
 40
1
 40
1
 10
139.461875
 20
32.254069
 30
0.0
 10
139.067938
 20
31.834740
 30
0.0
 10
138.264355
 20
31.195075
 30
0.0
 10
137.680347
 20
30.834138
 30
0.0
  0
LWPOLYLINE
  5
241
100
AcDbEntity
  8
0
 62
7
100
AcDbPolyline
 90
3
 70
0
 10
124.195417
 20
85.920388
 30
0.0
 10
127.432153
 20
85.779277
 30
0.0
 10
127.529167
 20
84.456360
 30
0.0
  0
SPLINE
  5
242
100
AcDbEntity
  8
0
 62
7
100
AcDbSpline
 70
8
 71
3
 72
8
 73
4
 74
0
 40
0
 40
0
 40
0
 40
0
 40
1
 40
1
 40
1
 40
1
 10
137.477500
 20
29.617055
 30
0.0
 10
137.945935
 20
29.309768
 30
0.0
 10
138.892097
 20
28.969439
 30
0.0
 10
139.585347
 20
28.858583
 30
0.0
  0
LWPOLYLINE
  5
243
100
AcDbEntity
  8
0
 62
7
100
AcDbPolyline
 90
3
 70
0
 10
137.680347
 20
30.834138
 30
0.0
 10
136.622014
 20
30.181499
 30
0.0
 10
137.477500
 20
29.617055
 30
0.0
  0
SPLINE
  5
244
100
AcDbEntity
  8
0
 62
7
100
AcDbSpline
 70
8
 71
3
 72
8
 73
4
 74
0
 40
0
 40
0
 40
0
 40
0
 40
1
 40
1
 40
1
 40
1
 10
140.740694
 20
24.254833
 30
0.0
 10
140.657222
 20
20.693340
 30
0.0
 10
140.542010
 20
19.738365
 30
0.0
 10
140.114514
 20
19.263027
 30
0.0
  0
SPLINE
  5
245
100
AcDbEntity
  8
0
 62
7
100
AcDbSpline
 70
8
 71
3
 72
8
 73
4
 74
0
 40
0
 40
0
 40
0
 40
0
 40
1
 40
1
 40
1
 40
1
 10
140.114514
 20
19.263027
 30
0.0
 10
139.823695
 20
18.939662
 30
0.0
 10
139.476604
 20
18.098860
 30
0.0
 10
139.347222
 20
17.402124
 30
0.0
  0
SPLINE
  5
246
100
AcDbEntity
  8
0
 62
7
100
AcDbSpline
 70
8
 71
3
 72
8
 73
4
 74
0
 40
0
 40
0
 40
0
 40
0
 40
1
 40
1
 40
1
 40
1
 10
139.347222
 20
17.402124
 30
0.0
 10
138.979783
 20
15.423416
 30
0.0
 10
138.213242
 20
13.996676
 30
0.0
 10
136.833681
 20
12.736638
 30
0.0
  0
LWPOLYLINE
  5
247
100
AcDbEntity
  8
0
 62
7
100
AcDbPolyline
 90
3
 70
0
 10
139.585347
 20
28.858583
 30
0.0
 10
140.846528
 20
28.655735
 30
0.0
 10
140.740694
 20
24.254833
 30
0.0
  0
SPLINE
  5
248
100
AcDbEntity
  8
0
 62
7
100
AcDbSpline
 70
8
 71
3
 72
8
 73
4
 74
0
 40
0
 40
0
 40
0
 40
0
 40
1
 40
1
 40
1
 40
1
 10
135.466667
 20
7.824208
 30
0.0
 10
135.344879
 20
2.767604
 30
0.0
 10
135.625730
 20
1.344244
 30
0.0
 10
136.842500
 20
0.733374
 30
0.0
  0
SPLINE
  5
249
100
AcDbEntity
  8
0
 62
7
100
AcDbSpline
 70
8
 71
3
 72
8
 73
4
 74
0
 40
0
 40
0
 40
0
 40
0
 40
1
 40
1
 40
1
 40
1
 10
136.842500
 20
0.733374
 30
0.0
 10
138.163687
 20
0.070096
 30
0.0
 10
143.467732
 20
0.124437
 30
0.0
 10
144.771181
 20
0.812749
 30
0.0
  0
SPLINE
  5
24a
100
AcDbEntity
  8
0
 62
7
100
AcDbSpline
 70
8
 71
3
 72
8
 73
4
 74
0
 40
0
 40
0
 40
0
 40
0
 40
1
 40
1
 40
1
 40
1
 10
144.771181
 20
0.812749
 30
0.0
 10
146.347386
 20
1.645079
 30
0.0
 10
147.152431
 20
2.584117
 30
0.0
 10
147.152431
 20
3.599694
 30
0.0
  0
SPLINE
  5
24b
100
AcDbEntity
  8
0
 62
7
100
AcDbSpline
 70
8
 71
3
 72
8
 73
4
 74
0
 40
0
 40
0
 40
0
 40
0
 40
1
 40
1
 40
1
 40
1
 10
147.152431
 20
3.599694
 30
0.0
 10
147.152431
 20
4.296387
 30
0.0
 10
147.298452
 20
4.543374
 30
0.0
 10
147.725694
 20
4.543374
 30
0.0
  0
SPLINE
  5
24c
100
AcDbEntity
  8
0
 62
7
100
AcDbSpline
 70
8
 71
3
 72
8
 73
4
 74
0
 40
0
 40
0
 40
0
 40
0
 40
1
 40
1
 40
1
 40
1
 10
147.725694
 20
4.543374
 30
0.0
 10
148.069083
 20
4.543374
 30
0.0
 10
148.590762
 20
5.063453
 30
0.0
 10
149.022153
 20
5.831013
 30
0.0
  0
SPLINE
  5
24d
100
AcDbEntity
  8
0
 62
7
100
AcDbSpline
 70
8
 71
3
 72
8
 73
4
 74
0
 40
0
 40
0
 40
0
 40
0
 40
1
 40
1
 40
1
 40
1
 10
149.022153
 20
5.831013
 30
0.0
 10
149.727706
 20
7.086394
 30
0.0
 10
149.746095
 20
7.297793
 30
0.0
 10
149.613056
 20
14.006638
 30
0.0
  0
SPLINE
  5
24e
100
AcDbEntity
  8
0
 62
7
100
AcDbSpline
 70
8
 71
3
 72
8
 73
4
 74
0
 40
0
 40
0
 40
0
 40
0
 40
1
 40
1
 40
1
 40
1
 10
149.613056
 20
14.006638
 30
0.0
 10
149.472286
 20
21.105475
 30
0.0
 10
149.203269
 20
23.041511
 30
0.0
 10
147.708056
 20
27.756152
 30
0.0
  0
SPLINE
  5
24f
100
AcDbEntity
  8
0
 62
7
100
AcDbSpline
 70
8
 71
3
 72
8
 73
4
 74
0
 40
0
 40
0
 40
0
 40
0
 40
1
 40
1
 40
1
 40
1
 10
147.708056
 20
27.756152
 30
0.0
 10
147.342324
 20
28.909371
 30
0.0
 10
147.139144
 20
30.088089
 30
0.0
 10
147.249444
 20
30.375527
 30
0.0
  0
SPLINE
  5
250
100
AcDbEntity
  8
0
 62
7
100
AcDbSpline
 70
8
 71
3
 72
8
 73
4
 74
0
 40
0
 40
0
 40
0
 40
0
 40
1
 40
1
 40
1
 40
1
 10
147.249444
 20
30.375527
 30
0.0
 10
147.499282
 20
31.026594
 30
0.0
 10
148.211797
 20
31.045362
 30
0.0
 10
148.731111
 20
30.419624
 30
0.0
  0
SPLINE
  5
251
100
AcDbEntity
  8
0
 62
7
100
AcDbSpline
 70
8
 71
3
 72
8
 73
4
 74
0
 40
0
 40
0
 40
0
 40
0
 40
1
 40
1
 40
1
 40
1
 10
148.731111
 20
30.419624
 30
0.0
 10
149.073582
 20
30.006973
 30
0.0
 10
149.252494
 20
30.047839
 30
0.0
 10
150.071667
 20
30.737124
 30
0.0
  0
SPLINE
  5
252
100
AcDbEntity
  8
0
 62
7
100
AcDbSpline
 70
8
 71
3
 72
8
 73
4
 74
0
 40
0
 40
0
 40
0
 40
0
 40
1
 40
1
 40
1
 40
1
 10
150.071667
 20
30.737124
 30
0.0
 10
150.588766
 20
31.172235
 30
0.0
 10
151.121432
 20
31.530874
 30
0.0
 10
151.262292
 20
31.530874
 30
0.0
  0
SPLINE
  5
253
100
AcDbEntity
  8
0
 62
7
100
AcDbSpline
 70
8
 71
3
 72
8
 73
4
 74
0
 40
0
 40
0
 40
0
 40
0
 40
1
 40
1
 40
1
 40
1
 10
151.262292
 20
31.530874
 30
0.0
 10
151.403154
 20
31.530874
 30
0.0
 10
151.589159
 20
31.804246
 30
0.0
 10
151.676806
 20
32.139416
 30
0.0
  0
SPLINE
  5
254
100
AcDbEntity
  8
0
 62
7
100
AcDbSpline
 70
8
 71
3
 72
8
 73
4
 74
0
 40
0
 40
0
 40
0
 40
0
 40
1
 40
1
 40
1
 40
1
 10
151.676806
 20
32.139416
 30
0.0
 10
151.934305
 20
33.124098
 30
0.0
 10
150.568575
 20
34.070874
 30
0.0
 10
148.889861
 20
34.070874
 30
0.0
  0
SPLINE
  5
255
100
AcDbEntity
  8
0
 62
7
100
AcDbSpline
 70
8
 71
3
 72
8
 73
4
 74
0
 40
0
 40
0
 40
0
 40
0
 40
1
 40
1
 40
1
 40
1
 10
148.889861
 20
34.070874
 30
0.0
 10
148.011602
 20
34.070874
 30
0.0
 10
147.469931
 20
34.212310
 30
0.0
 10
147.469931
 20
34.441291
 30
0.0
  0
SPLINE
  5
256
100
AcDbEntity
  8
0
 62
7
100
AcDbSpline
 70
8
 71
3
 72
8
 73
4
 74
0
 40
0
 40
0
 40
0
 40
0
 40
1
 40
1
 40
1
 40
1
 10
147.469931
 20
34.441291
 30
0.0
 10
147.469931
 20
34.979449
 30
0.0
 10
148.442268
 20
35.975874
 30
0.0
 10
148.969236
 20
35.975874
 30
0.0
  0
SPLINE
  5
257
100
AcDbEntity
  8
0
 62
7
100
AcDbSpline
 70
8
 71
3
 72
8
 73
4
 74
0
 40
0
 40
0
 40
0
 40
0
 40
1
 40
1
 40
1
 40
1
 10
148.969236
 20
35.975874
 30
0.0
 10
149.510504
 20
35.975874
 30
0.0
 10
149.384577
 20
36.978285
 30
0.0
 10
148.819306
 20
37.166499
 30
0.0
  0
SPLINE
  5
258
100
AcDbEntity
  8
0
 62
7
100
AcDbSpline
 70
8
 71
3
 72
8
 73
4
 74
0
 40
0
 40
0
 40
0
 40
0
 40
1
 40
1
 40
1
 40
1
 10
148.819306
 20
37.166499
 30
0.0
 10
148.601024
 20
37.239177
 30
0.0
 10
148.422431
 20
37.072573
 30
0.0
 10
148.422431
 20
36.796083
 30
0.0
  0
SPLINE
  5
259
100
AcDbEntity
  8
0
 62
7
100
AcDbSpline
 70
8
 71
3
 72
8
 73
4
 74
0
 40
0
 40
0
 40
0
 40
0
 40
1
 40
1
 40
1
 40
1
 10
148.422431
 20
36.796083
 30
0.0
 10
148.422431
 20
36.505041
 30
0.0
 10
148.155062
 20
36.293374
 30
0.0
 10
147.787431
 20
36.293374
 30
0.0
  0
SPLINE
  5
25a
100
AcDbEntity
  8
0
 62
7
100
AcDbSpline
 70
8
 71
3
 72
8
 73
4
 74
0
 40
0
 40
0
 40
0
 40
0
 40
1
 40
1
 40
1
 40
1
 10
147.787431
 20
36.293374
 30
0.0
 10
147.261442
 20
36.293374
 30
0.0
 10
147.152431
 20
36.506793
 30
0.0
 10
147.152431
 20
37.528096
 30
0.0
  0
SPLINE
  5
25b
100
AcDbEntity
  8
0
 62
7
100
AcDbSpline
 70
8
 71
3
 72
8
 73
4
 74
0
 40
0
 40
0
 40
0
 40
0
 40
1
 40
1
 40
1
 40
1
 10
147.152431
 20
37.528096
 30
0.0
 10
147.152431
 20
38.494047
 30
0.0
 10
147.014912
 20
38.791473
 30
0.0
 10
146.517431
 20
38.921569
 30
0.0
  0
SPLINE
  5
25c
100
AcDbEntity
  8
0
 62
7
100
AcDbSpline
 70
8
 71
3
 72
8
 73
4
 74
0
 40
0
 40
0
 40
0
 40
0
 40
1
 40
1
 40
1
 40
1
 10
146.517431
 20
38.921569
 30
0.0
 10
145.933812
 20
39.074189
 30
0.0
 10
145.882431
 20
39.354619
 30
0.0
 10
145.882431
 20
42.387610
 30
0.0
  0
SPLINE
  5
25d
100
AcDbEntity
  8
0
 62
7
100
AcDbSpline
 70
8
 71
3
 72
8
 73
4
 74
0
 40
0
 40
0
 40
0
 40
0
 40
1
 40
1
 40
1
 40
1
 10
145.882431
 20
42.387610
 30
0.0
 10
145.882431
 20
44.202615
 30
0.0
 10
145.739683
 20
47.543387
 30
0.0
 10
145.573750
 20
49.804763
 30
0.0
  0
SPLINE
  5
25e
100
AcDbEntity
  8
0
 62
7
100
AcDbSpline
 70
8
 71
3
 72
8
 73
4
 74
0
 40
0
 40
0
 40
0
 40
0
 40
1
 40
1
 40
1
 40
1
 10
145.573750
 20
49.804763
 30
0.0
 10
145.407817
 20
52.066139
 30
0.0
 10
145.103652
 20
56.843563
 30
0.0
 10
144.894653
 20
60.423374
 30
0.0
  0
SPLINE
  5
25f
100
AcDbEntity
  8
0
 62
7
100
AcDbSpline
 70
8
 71
3
 72
8
 73
4
 74
0
 40
0
 40
0
 40
0
 40
0
 40
1
 40
1
 40
1
 40
1
 10
144.894653
 20
60.423374
 30
0.0
 10
144.591030
 20
65.623824
 30
0.0
 10
144.362500
 20
67.442681
 30
0.0
 10
143.748125
 20
69.472124
 30
0.0
  0
SPLINE
  5
260
100
AcDbEntity
  8
0
 62
7
100
AcDbSpline
 70
8
 71
3
 72
8
 73
4
 74
0
 40
0
 40
0
 40
0
 40
0
 40
1
 40
1
 40
1
 40
1
 10
143.748125
 20
69.472124
 30
0.0
 10
143.325212
 20
70.869124
 30
0.0
 10
142.709381
 20
72.940813
 30
0.0
 10
142.381111
 20
74.075874
 30
0.0
  0
SPLINE
  5
261
100
AcDbEntity
  8
0
 62
7
100
AcDbSpline
 70
8
 71
3
 72
8
 73
4
 74
0
 40
0
 40
0
 40
0
 40
0
 40
1
 40
1
 40
1
 40
1
 10
142.381111
 20
74.075874
 30
0.0
 10
142.052844
 20
75.210938
 30
0.0
 10
141.272633
 20
77.459589
 30
0.0
 10
140.652500
 20
79.076499
 30
0.0
  0
SPLINE
  5
262
100
AcDbEntity
  8
0
 62
7
100
AcDbSpline
 70
8
 71
3
 72
8
 73
4
 74
0
 40
0
 40
0
 40
0
 40
0
 40
1
 40
1
 40
1
 40
1
 10
140.652500
 20
79.076499
 30
0.0
 10
140.032367
 20
80.693407
 30
0.0
 10
139.532431
 20
82.520141
 30
0.0
 10
139.532431
 20
83.133444
 30
0.0
  0
SPLINE
  5
263
100
AcDbEntity
  8
0
 62
7
100
AcDbSpline
 70
8
 71
3
 72
8
 73
4
 74
0
 40
0
 40
0
 40
0
 40
0
 40
1
 40
1
 40
1
 40
1
 10
139.532431
 20
83.133444
 30
0.0
 10
139.532431
 20
84.407398
 30
0.0
 10
139.582226
 20
84.437858
 30
0.0
 10
143.457083
 20
85.541152
 30
0.0
  0
LWPOLYLINE
  5
264
100
AcDbEntity
  8
0
 62
7
100
AcDbPolyline
 90
3
 70
0
 10
136.833681
 20
12.736638
 30
0.0
 10
135.563681
 20
11.581291
 30
0.0
 10
135.466667
 20
7.824208
 30
0.0
  0
SPLINE
  5
265
100
AcDbEntity
  8
0
 62
7
100
AcDbSpline
 70
8
 71
3
 72
8
 73
4
 74
0
 40
0
 40
0
 40
0
 40
0
 40
1
 40
1
 40
1
 40
1
 10
146.790833
 20
85.276569
 30
0.0
 10
148.029120
 20
83.814547
 30
0.0
 10
149.218258
 20
83.700002
 30
0.0
 10
151.050625
 20
84.862055
 30
0.0
  0
SPLINE
  5
266
100
AcDbEntity
  8
0
 62
7
100
AcDbSpline
 70
8
 71
3
 72
8
 73
4
 74
0
 40
0
 40
0
 40
0
 40
0
 40
1
 40
1
 40
1
 40
1
 10
151.050625
 20
84.862055
 30
0.0
 10
153.806881
 20
86.610021
 30
0.0
 10
155.087930
 20
87.147276
 30
0.0
 10
156.015972
 20
86.943444
 30
0.0
  0
SPLINE
  5
267
100
AcDbEntity
  8
0
 62
7
100
AcDbSpline
 70
8
 71
3
 72
8
 73
4
 74
0
 40
0
 40
0
 40
0
 40
0
 40
1
 40
1
 40
1
 40
1
 10
156.015972
 20
86.943444
 30
0.0
 10
156.615491
 20
86.811767
 30
0.0
 10
157.024124
 20
86.904734
 30
0.0
 10
157.312431
 20
87.252124
 30
0.0
  0
SPLINE
  5
268
100
AcDbEntity
  8
0
 62
7
100
AcDbSpline
 70
8
 71
3
 72
8
 73
4
 74
0
 40
0
 40
0
 40
0
 40
0
 40
1
 40
1
 40
1
 40
1
 10
157.312431
 20
87.252124
 30
0.0
 10
158.226006
 20
88.352912
 30
0.0
 10
158.843627
 20
88.428618
 30
0.0
 10
159.958264
 20
87.578444
 30
0.0
  0
SPLINE
  5
269
100
AcDbEntity
  8
0
 62
7
100
AcDbSpline
 70
8
 71
3
 72
8
 73
4
 74
0
 40
0
 40
0
 40
0
 40
0
 40
1
 40
1
 40
1
 40
1
 10
159.958264
 20
87.578444
 30
0.0
 10
160.540167
 20
87.134607
 30
0.0
 10
161.272051
 20
86.775874
 30
0.0
 10
161.581042
 20
86.775874
 30
0.0
  0
SPLINE
  5
26a
100
AcDbEntity
  8
0
 62
7
100
AcDbSpline
 70
8
 71
3
 72
8
 73
4
 74
0
 40
0
 40
0
 40
0
 40
0
 40
1
 40
1
 40
1
 40
1
 10
161.581042
 20
86.775874
 30
0.0
 10
162.514599
 20
86.775874
 30
0.0
 10
164.575284
 20
88.101836
 30
0.0
 10
164.676667
 20
88.769069
 30
0.0
  0
SPLINE
  5
26b
100
AcDbEntity
  8
0
 62
7
100
AcDbSpline
 70
8
 71
3
 72
8
 73
4
 74
0
 40
0
 40
0
 40
0
 40
0
 40
1
 40
1
 40
1
 40
1
 10
164.676667
 20
88.769069
 30
0.0
 10
164.735648
 20
89.157248
 30
0.0
 10
165.178229
 20
89.526056
 30
0.0
 10
165.849653
 20
89.748027
 30
0.0
  0
SPLINE
  5
26c
100
AcDbEntity
  8
0
 62
7
100
AcDbSpline
 70
8
 71
3
 72
8
 73
4
 74
0
 40
0
 40
0
 40
0
 40
0
 40
1
 40
1
 40
1
 40
1
 10
165.849653
 20
89.748027
 30
0.0
 10
166.444095
 20
89.944547
 30
0.0
 10
167.087034
 20
90.371955
 30
0.0
 10
167.278403
 20
90.691708
 30
0.0
  0
SPLINE
  5
26d
100
AcDbEntity
  8
0
 62
7
100
AcDbSpline
 70
8
 71
3
 72
8
 73
4
 74
0
 40
0
 40
0
 40
0
 40
0
 40
1
 40
1
 40
1
 40
1
 10
167.278403
 20
90.691708
 30
0.0
 10
167.469778
 20
91.011457
 30
0.0
 10
168.095524
 20
91.766757
 30
0.0
 10
168.663056
 20
92.376221
 30
0.0
  0
SPLINE
  5
26e
100
AcDbEntity
  8
0
 62
7
100
AcDbSpline
 70
8
 71
3
 72
8
 73
4
 74
0
 40
0
 40
0
 40
0
 40
0
 40
1
 40
1
 40
1
 40
1
 10
168.663056
 20
92.376221
 30
0.0
 10
169.364383
 20
93.129365
 30
0.0
 10
169.694931
 20
93.801269
 30
0.0
 10
169.694931
 20
94.466430
 30
0.0
  0
SPLINE
  5
26f
100
AcDbEntity
  8
0
 62
7
100
AcDbSpline
 70
8
 71
3
 72
8
 73
4
 74
0
 40
0
 40
0
 40
0
 40
0
 40
1
 40
1
 40
1
 40
1
 10
169.694931
 20
94.466430
 30
0.0
 10
169.694931
 20
95.198207
 30
0.0
 10
170.005564
 20
95.739478
 30
0.0
 10
170.938472
 20
96.600735
 30
0.0
  0
SPLINE
  5
270
100
AcDbEntity
  8
0
 62
7
100
AcDbSpline
 70
8
 71
3
 72
8
 73
4
 74
0
 40
0
 40
0
 40
0
 40
0
 40
1
 40
1
 40
1
 40
1
 10
170.938472
 20
96.600735
 30
0.0
 10
171.982328
 20
97.564414
 30
0.0
 10
173.410443
 20
100.302382
 30
0.0
 10
173.055139
 20
100.657680
 30
0.0
  0
SPLINE
  5
271
100
AcDbEntity
  8
0
 62
7
100
AcDbSpline
 70
8
 71
3
 72
8
 73
4
 74
0
 40
0
 40
0
 40
0
 40
0
 40
1
 40
1
 40
1
 40
1
 10
173.055139
 20
100.657680
 30
0.0
 10
172.864066
 20
100.848758
 30
0.0
 10
169.330757
 20
101.698374
 30
0.0
 10
168.724792
 20
101.698374
 30
0.0
  0
SPLINE
  5
272
100
AcDbEntity
  8
0
 62
7
100
AcDbSpline
 70
8
 71
3
 72
8
 73
4
 74
0
 40
0
 40
0
 40
0
 40
0
 40
1
 40
1
 40
1
 40
1
 10
168.724792
 20
101.698374
 30
0.0
 10
168.301856
 20
101.698374
 30
0.0
 10
168.107431
 20
101.918592
 30
0.0
 10
168.107431
 20
102.386291
 30
0.0
  0
SPLINE
  5
273
100
AcDbEntity
  8
0
 62
7
100
AcDbSpline
 70
8
 71
3
 72
8
 73
4
 74
0
 40
0
 40
0
 40
0
 40
0
 40
1
 40
1
 40
1
 40
1
 10
168.107431
 20
102.386291
 30
0.0
 10
168.107431
 20
102.814021
 30
0.0
 10
167.271810
 20
103.887420
 30
0.0
 10
165.893750
 20
105.243791
 30
0.0
  0
SPLINE
  5
274
100
AcDbEntity
  8
0
 62
7
100
AcDbSpline
 70
8
 71
3
 72
8
 73
4
 74
0
 40
0
 40
0
 40
0
 40
0
 40
1
 40
1
 40
1
 40
1
 10
165.893750
 20
105.243791
 30
0.0
 10
164.679813
 20
106.438624
 30
0.0
 10
163.612045
 20
107.413374
 30
0.0
 10
163.512500
 20
107.413374
 30
0.0
  0
SPLINE
  5
275
100
AcDbEntity
  8
0
 62
7
100
AcDbSpline
 70
8
 71
3
 72
8
 73
4
 74
0
 40
0
 40
0
 40
0
 40
0
 40
1
 40
1
 40
1
 40
1
 10
163.512500
 20
107.413374
 30
0.0
 10
163.042456
 20
107.413374
 30
0.0
 10
159.852431
 20
110.964833
 30
0.0
 10
159.852431
 20
111.487958
 30
0.0
  0
SPLINE
  5
276
100
AcDbEntity
  8
0
 62
7
100
AcDbSpline
 70
8
 71
3
 72
8
 73
4
 74
0
 40
0
 40
0
 40
0
 40
0
 40
1
 40
1
 40
1
 40
1
 10
159.852431
 20
111.487958
 30
0.0
 10
159.852431
 20
111.814805
 30
0.0
 10
160.273114
 20
112.665521
 30
0.0
 10
160.787292
 20
113.375319
 30
0.0
  0
SPLINE
  5
277
100
AcDbEntity
  8
0
 62
7
100
AcDbSpline
 70
8
 71
3
 72
8
 73
4
 74
0
 40
0
 40
0
 40
0
 40
0
 40
1
 40
1
 40
1
 40
1
 10
160.787292
 20
113.375319
 30
0.0
 10
161.301467
 20
114.085113
 30
0.0
 10
162.237629
 20
115.685279
 30
0.0
 10
162.868681
 20
116.938374
 30
0.0
  0
SPLINE
  5
278
100
AcDbEntity
  8
0
 62
7
100
AcDbSpline
 70
8
 71
3
 72
8
 73
4
 74
0
 40
0
 40
0
 40
0
 40
0
 40
1
 40
1
 40
1
 40
1
 10
162.868681
 20
116.938374
 30
0.0
 10
163.499729
 20
118.191472
 30
0.0
 10
164.420925
 20
119.612969
 30
0.0
 10
164.914792
 20
120.095735
 30
0.0
  0
LWPOLYLINE
  5
279
100
AcDbEntity
  8
0
 62
7
100
AcDbPolyline
 90
3
 70
0
 10
143.457083
 20
85.541152
 30
0.0
 10
145.961806
 20
86.255527
 30
0.0
 10
146.790833
 20
85.276569
 30
0.0
  0
SPLINE
  5
27a
100
AcDbEntity
  8
0
 62
7
100
AcDbSpline
 70
8
 71
3
 72
8
 73
4
 74
0
 40
0
 40
0
 40
0
 40
0
 40
1
 40
1
 40
1
 40
1
 10
163.265556
 20
122.212402
 30
0.0
 10
161.867906
 20
122.892535
 30
0.0
 10
160.398830
 20
123.751642
 30
0.0
 10
159.993542
 20
124.126221
 30
0.0
  0
SPLINE
  5
27b
100
AcDbEntity
  8
0
 62
7
100
AcDbSpline
 70
8
 71
3
 72
8
 73
4
 74
0
 40
0
 40
0
 40
0
 40
0
 40
1
 40
1
 40
1
 40
1
 10
159.993542
 20
124.126221
 30
0.0
 10
159.588254
 20
124.500801
 30
0.0
 10
159.187842
 20
124.749269
 30
0.0
 10
159.111597
 20
124.673027
 30
0.0
  0
SPLINE
  5
27c
100
AcDbEntity
  8
0
 62
7
100
AcDbSpline
 70
8
 71
3
 72
8
 73
4
 74
0
 40
0
 40
0
 40
0
 40
0
 40
1
 40
1
 40
1
 40
1
 10
159.111597
 20
124.673027
 30
0.0
 10
158.864904
 20
124.426331
 30
0.0
 10
155.566181
 20
126.403944
 30
0.0
 10
155.566181
 20
126.798513
 30
0.0
  0
SPLINE
  5
27d
100
AcDbEntity
  8
0
 62
7
100
AcDbSpline
 70
8
 71
3
 72
8
 73
4
 74
0
 40
0
 40
0
 40
0
 40
0
 40
1
 40
1
 40
1
 40
1
 10
155.566181
 20
126.798513
 30
0.0
 10
155.566181
 20
127.008653
 30
0.0
 10
156.060148
 20
127.451149
 30
0.0
 10
156.668611
 20
127.777471
 30
0.0
  0
SPLINE
  5
27e
100
AcDbEntity
  8
0
 62
7
100
AcDbSpline
 70
8
 71
3
 72
8
 73
4
 74
0
 40
0
 40
0
 40
0
 40
0
 40
1
 40
1
 40
1
 40
1
 10
156.668611
 20
127.777471
 30
0.0
 10
157.765696
 20
128.365817
 30
0.0
 10
157.767678
 20
128.368374
 30
0.0
 10
156.906736
 20
128.368374
 30
0.0
  0
SPLINE
  5
27f
100
AcDbEntity
  8
0
 62
7
100
AcDbSpline
 70
8
 71
3
 72
8
 73
4
 74
0
 40
0
 40
0
 40
0
 40
0
 40
1
 40
1
 40
1
 40
1
 10
156.906736
 20
128.368374
 30
0.0
 10
156.429242
 20
128.368374
 30
0.0
 10
156.042431
 20
128.225499
 30
0.0
 10
156.042431
 20
128.050874
 30
0.0
  0
SPLINE
  5
280
100
AcDbEntity
  8
0
 62
7
100
AcDbSpline
 70
8
 71
3
 72
8
 73
4
 74
0
 40
0
 40
0
 40
0
 40
0
 40
1
 40
1
 40
1
 40
1
 10
156.042431
 20
128.050874
 30
0.0
 10
156.042431
 20
127.876249
 30
0.0
 10
155.838229
 20
127.733374
 30
0.0
 10
155.592639
 20
127.733374
 30
0.0
  0
SPLINE
  5
281
100
AcDbEntity
  8
0
 62
7
100
AcDbSpline
 70
8
 71
3
 72
8
 73
4
 74
0
 40
0
 40
0
 40
0
 40
0
 40
1
 40
1
 40
1
 40
1
 10
155.592639
 20
127.733374
 30
0.0
 10
155.291536
 20
127.733374
 30
0.0
 10
155.207239
 20
127.959282
 30
0.0
 10
155.328056
 20
128.421291
 30
0.0
  0
LWPOLYLINE
  5
282
100
AcDbEntity
  8
0
 62
7
100
AcDbPolyline
 90
3
 70
0
 10
164.914792
 20
120.095735
 30
0.0
 10
165.805556
 20
120.977680
 30
0.0
 10
163.265556
 20
122.212402
 30
0.0
  0
SPLINE
  5
283
100
AcDbEntity
  8
0
 62
7
100
AcDbSpline
 70
8
 71
3
 72
8
 73
4
 74
0
 40
0
 40
0
 40
0
 40
0
 40
1
 40
1
 40
1
 40
1
 10
154.816528
 20
128.421291
 30
0.0
 10
154.026689
 20
127.631452
 30
0.0
 10
152.702867
 20
127.512304
 30
0.0
 10
152.435278
 20
128.209624
 30
0.0
  0
SPLINE
  5
284
100
AcDbEntity
  8
0
 62
7
100
AcDbSpline
 70
8
 71
3
 72
8
 73
4
 74
0
 40
0
 40
0
 40
0
 40
0
 40
1
 40
1
 40
1
 40
1
 10
152.435278
 20
128.209624
 30
0.0
 10
152.334762
 20
128.471560
 30
0.0
 10
151.987795
 20
128.685874
 30
0.0
 10
151.667986
 20
128.685874
 30
0.0
  0
SPLINE
  5
285
100
AcDbEntity
  8
0
 62
7
100
AcDbSpline
 70
8
 71
3
 72
8
 73
4
 74
0
 40
0
 40
0
 40
0
 40
0
 40
1
 40
1
 40
1
 40
1
 10
151.667986
 20
128.685874
 30
0.0
 10
151.348180
 20
128.685874
 30
0.0
 10
150.951935
 20
128.799717
 30
0.0
 10
150.786042
 20
128.941638
 30
0.0
  0
SPLINE
  5
286
100
AcDbEntity
  8
0
 62
7
100
AcDbSpline
 70
8
 71
3
 72
8
 73
4
 74
0
 40
0
 40
0
 40
0
 40
0
 40
1
 40
1
 40
1
 40
1
 10
150.786042
 20
128.941638
 30
0.0
 10
150.620149
 20
129.083554
 30
0.0
 10
149.200306
 20
129.756315
 30
0.0
 10
147.628681
 20
130.432124
 30
0.0
  0
SPLINE
  5
287
100
AcDbEntity
  8
0
 62
7
100
AcDbSpline
 70
8
 71
3
 72
8
 73
4
 74
0
 40
0
 40
0
 40
0
 40
0
 40
1
 40
1
 40
1
 40
1
 10
147.628681
 20
130.432124
 30
0.0
 10
146.057056
 20
131.107934
 30
0.0
 10
144.374492
 20
131.933752
 30
0.0
 10
143.889236
 20
132.266569
 30
0.0
  0
SPLINE
  5
288
100
AcDbEntity
  8
0
 62
7
100
AcDbSpline
 70
8
 71
3
 72
8
 73
4
 74
0
 40
0
 40
0
 40
0
 40
0
 40
1
 40
1
 40
1
 40
1
 10
143.889236
 20
132.266569
 30
0.0
 10
143.293984
 20
132.674823
 30
0.0
 10
142.273754
 20
134.344912
 30
0.0
 10
140.767153
 20
137.408305
 30
0.0
  0
SPLINE
  5
289
100
AcDbEntity
  8
0
 62
7
100
AcDbSpline
 70
8
 71
3
 72
8
 73
4
 74
0
 40
0
 40
0
 40
0
 40
0
 40
1
 40
1
 40
1
 40
1
 10
140.767153
 20
137.408305
 30
0.0
 10
138.578548
 20
141.858424
 30
0.0
 10
138.544444
 20
141.987589
 30
0.0
 10
138.738681
 20
143.811221
 30
0.0
  0
SPLINE
  5
28a
100
AcDbEntity
  8
0
 62
7
100
AcDbSpline
 70
8
 71
3
 72
8
 73
4
 74
0
 40
0
 40
0
 40
0
 40
0
 40
1
 40
1
 40
1
 40
1
 10
138.738681
 20
143.811221
 30
0.0
 10
138.849408
 20
144.850826
 30
0.0
 10
138.739716
 20
147.143239
 30
0.0
 10
138.491736
 20
149.005874
 30
0.0
  0
SPLINE
  5
28b
100
AcDbEntity
  8
0
 62
7
100
AcDbSpline
 70
8
 71
3
 72
8
 73
4
 74
0
 40
0
 40
0
 40
0
 40
0
 40
1
 40
1
 40
1
 40
1
 10
138.491736
 20
149.005874
 30
0.0
 10
138.144391
 20
151.614861
 30
0.0
 10
138.124912
 20
152.960852
 30
0.0
 10
138.394722
 20
155.197124
 30
0.0
  0
SPLINE
  5
28c
100
AcDbEntity
  8
0
 62
7
100
AcDbSpline
 70
8
 71
3
 72
8
 73
4
 74
0
 40
0
 40
0
 40
0
 40
0
 40
1
 40
1
 40
1
 40
1
 10
138.394722
 20
155.197124
 30
0.0
 10
138.834695
 20
158.843797
 30
0.0
 10
139.400703
 20
159.039794
 30
0.0
 10
140.246806
 20
155.832124
 30
0.0
  0
SPLINE
  5
28d
100
AcDbEntity
  8
0
 62
7
100
AcDbSpline
 70
8
 71
3
 72
8
 73
4
 74
0
 40
0
 40
0
 40
0
 40
0
 40
1
 40
1
 40
1
 40
1
 10
140.246806
 20
155.832124
 30
0.0
 10
141.479908
 20
151.157308
 30
0.0
 10
144.744889
 20
145.733745
 30
0.0
 10
147.028958
 20
144.560874
 30
0.0
  0
SPLINE
  5
28e
100
AcDbEntity
  8
0
 62
7
100
AcDbSpline
 70
8
 71
3
 72
8
 73
4
 74
0
 40
0
 40
0
 40
0
 40
0
 40
1
 40
1
 40
1
 40
1
 10
147.028958
 20
144.560874
 30
0.0
 10
147.530227
 20
144.303473
 30
0.0
 10
148.731992
 20
143.595494
 30
0.0
 10
149.692431
 20
142.991013
 30
0.0
  0
SPLINE
  5
28f
100
AcDbEntity
  8
0
 62
7
100
AcDbSpline
 70
8
 71
3
 72
8
 73
4
 74
0
 40
0
 40
0
 40
0
 40
0
 40
1
 40
1
 40
1
 40
1
 10
149.692431
 20
142.991013
 30
0.0
 10
150.652867
 20
142.386530
 30
0.0
 10
152.010181
 20
141.582741
 30
0.0
 10
152.708681
 20
141.209485
 30
0.0
  0
SPLINE
  5
290
100
AcDbEntity
  8
0
 62
7
100
AcDbSpline
 70
8
 71
3
 72
8
 73
4
 74
0
 40
0
 40
0
 40
0
 40
0
 40
1
 40
1
 40
1
 40
1
 10
152.708681
 20
141.209485
 30
0.0
 10
153.407181
 20
140.836229
 30
0.0
 10
155.407431
 20
139.742277
 30
0.0
 10
157.153681
 20
138.775319
 30
0.0
  0
SPLINE
  5
291
100
AcDbEntity
  8
0
 62
7
100
AcDbSpline
 70
8
 71
3
 72
8
 73
4
 74
0
 40
0
 40
0
 40
0
 40
0
 40
1
 40
1
 40
1
 40
1
 10
157.153681
 20
138.775319
 30
0.0
 10
158.899931
 20
137.808363
 30
0.0
 10
161.987828
 20
136.205773
 30
0.0
 10
164.024028
 20
135.212263
 30
0.0
  0
LWPOLYLINE
  5
292
100
AcDbEntity
  8
0
 62
7
100
AcDbPolyline
 90
3
 70
0
 10
155.328056
 20
128.421291
 30
0.0
 10
155.504444
 20
129.100388
 30
0.0
 10
154.816528
 20
128.421291
 30
0.0
  0
SPLINE
  5
293
100
AcDbEntity
  8
0
 62
7
100
AcDbSpline
 70
8
 71
3
 72
8
 73
4
 74
0
 40
0
 40
0
 40
0
 40
0
 40
1
 40
1
 40
1
 40
1
 10
171.644028
 20
133.765874
 30
0.0
 10
176.233729
 20
134.191556
 30
0.0
 10
177.840730
 20
134.510757
 30
0.0
 10
179.652083
 20
135.362194
 30
0.0
  0
LWPOLYLINE
  5
294
100
AcDbEntity
  8
0
 62
7
100
AcDbPolyline
 90
3
 70
0
 10
164.024028
 20
135.212263
 30
0.0
 10
167.728194
 20
133.404277
 30
0.0
 10
171.644028
 20
133.765874
 30
0.0
  0
SPLINE
  5
295
100
AcDbEntity
  8
0
 62
7
100
AcDbSpline
 70
8
 71
3
 72
8
 73
4
 74
0
 40
0
 40
0
 40
0
 40
0
 40
1
 40
1
 40
1
 40
1
 10
182.712431
 20
135.088791
 30
0.0
 10
185.768750
 20
133.509520
 30
0.0
 10
186.231445
 20
133.570701
 30
0.0
 10
186.663542
 20
135.591499
 30
0.0
  0
SPLINE
  5
296
100
AcDbEntity
  8
0
 62
7
100
AcDbSpline
 70
8
 71
3
 72
8
 73
4
 74
0
 40
0
 40
0
 40
0
 40
0
 40
1
 40
1
 40
1
 40
1
 10
186.663542
 20
135.591499
 30
0.0
 10
186.877678
 20
136.592968
 30
0.0
 10
186.931170
 20
136.625618
 30
0.0
 10
188.524444
 20
136.632194
 30
0.0
  0
SPLINE
  5
297
100
AcDbEntity
  8
0
 62
7
100
AcDbSpline
 70
8
 71
3
 72
8
 73
4
 74
0
 40
0
 40
0
 40
0
 40
0
 40
1
 40
1
 40
1
 40
1
 10
188.524444
 20
136.632194
 30
0.0
 10
190.067438
 20
136.638566
 30
0.0
 10
190.226151
 20
136.715353
 30
0.0
 10
191.046806
 20
137.875735
 30
0.0
  0
SPLINE
  5
298
100
AcDbEntity
  8
0
 62
7
100
AcDbSpline
 70
8
 71
3
 72
8
 73
4
 74
0
 40
0
 40
0
 40
0
 40
0
 40
1
 40
1
 40
1
 40
1
 10
191.046806
 20
137.875735
 30
0.0
 10
191.650741
 20
138.729683
 30
0.0
 10
191.919931
 20
139.503971
 30
0.0
 10
191.919931
 20
140.389277
 30
0.0
  0
SPLINE
  5
299
100
AcDbEntity
  8
0
 62
7
100
AcDbSpline
 70
8
 71
3
 72
8
 73
4
 74
0
 40
0
 40
0
 40
0
 40
0
 40
1
 40
1
 40
1
 40
1
 10
191.919931
 20
140.389277
 30
0.0
 10
191.919931
 20
141.093227
 30
0.0
 10
192.050357
 20
141.745219
 30
0.0
 10
192.210972
 20
141.844485
 30
0.0
  0
SPLINE
  5
29a
100
AcDbEntity
  8
0
 62
7
100
AcDbSpline
 70
8
 71
3
 72
8
 73
4
 74
0
 40
0
 40
0
 40
0
 40
0
 40
1
 40
1
 40
1
 40
1
 10
192.210972
 20
141.844485
 30
0.0
 10
192.679148
 20
142.133836
 30
0.0
 10
194.142431
 20
144.906819
 30
0.0
 10
194.142431
 20
145.504555
 30
0.0
  0
SPLINE
  5
29b
100
AcDbEntity
  8
0
 62
7
100
AcDbSpline
 70
8
 71
3
 72
8
 73
4
 74
0
 40
0
 40
0
 40
0
 40
0
 40
1
 40
1
 40
1
 40
1
 10
194.142431
 20
145.504555
 30
0.0
 10
194.142431
 20
145.804746
 30
0.0
 10
193.856681
 20
146.308555
 30
0.0
 10
193.507431
 20
146.624624
 30
0.0
  0
SPLINE
  5
29c
100
AcDbEntity
  8
0
 62
7
100
AcDbSpline
 70
8
 71
3
 72
8
 73
4
 74
0
 40
0
 40
0
 40
0
 40
0
 40
1
 40
1
 40
1
 40
1
 10
193.507431
 20
146.624624
 30
0.0
 10
193.135826
 20
146.960923
 30
0.0
 10
192.866151
 20
147.610601
 30
0.0
 10
192.863611
 20
148.185666
 30
0.0
  0
SPLINE
  5
29d
100
AcDbEntity
  8
0
 62
7
100
AcDbSpline
 70
8
 71
3
 72
8
 73
4
 74
0
 40
0
 40
0
 40
0
 40
0
 40
1
 40
1
 40
1
 40
1
 10
192.863611
 20
148.185666
 30
0.0
 10
192.857219
 20
149.634572
 30
0.0
 10
192.552571
 20
150.527611
 30
0.0
 10
191.990486
 20
150.743305
 30
0.0
  0
SPLINE
  5
29e
100
AcDbEntity
  8
0
 62
7
100
AcDbSpline
 70
8
 71
3
 72
8
 73
4
 74
0
 40
0
 40
0
 40
0
 40
0
 40
1
 40
1
 40
1
 40
1
 10
191.990486
 20
150.743305
 30
0.0
 10
191.292536
 20
151.011131
 30
0.0
 10
190.940523
 20
150.547366
 30
0.0
 10
190.746944
 20
149.120527
 30
0.0
  0
SPLINE
  5
29f
100
AcDbEntity
  8
0
 62
7
100
AcDbSpline
 70
8
 71
3
 72
8
 73
4
 74
0
 40
0
 40
0
 40
0
 40
0
 40
1
 40
1
 40
1
 40
1
 10
190.746944
 20
149.120527
 30
0.0
 10
190.645215
 20
148.370705
 30
0.0
 10
190.192132
 20
147.447686
 30
0.0
 10
189.582778
 20
146.748096
 30
0.0
  0
LWPOLYLINE
  5
2a0
100
AcDbEntity
  8
0
 62
7
100
AcDbPolyline
 90
3
 70
0
 10
179.652083
 20
135.362194
 30
0.0
 10
180.975000
 20
135.988374
 30
0.0
 10
182.712431
 20
135.088791
 30
0.0
  0
SPLINE
  5
2a1
100
AcDbEntity
  8
0
 62
7
100
AcDbSpline
 70
8
 71
3
 72
8
 73
4
 74
0
 40
0
 40
0
 40
0
 40
0
 40
1
 40
1
 40
1
 40
1
 10
183.753125
 20
145.795596
 30
0.0
 10
178.379117
 20
146.011525
 30
0.0
 10
177.905297
 20
146.201364
 30
0.0
 10
177.517778
 20
148.300319
 30
0.0
  0
SPLINE
  5
2a2
100
AcDbEntity
  8
0
 62
7
100
AcDbSpline
 70
8
 71
3
 72
8
 73
4
 74
0
 40
0
 40
0
 40
0
 40
0
 40
1
 40
1
 40
1
 40
1
 10
177.517778
 20
148.300319
 30
0.0
 10
177.342453
 20
149.249963
 30
0.0
 10
177.420194
 20
149.381642
 30
0.0
 10
178.426181
 20
149.861360
 30
0.0
  0
SPLINE
  5
2a3
100
AcDbEntity
  8
0
 62
7
100
AcDbSpline
 70
8
 71
3
 72
8
 73
4
 74
0
 40
0
 40
0
 40
0
 40
0
 40
1
 40
1
 40
1
 40
1
 10
178.426181
 20
149.861360
 30
0.0
 10
180.391827
 20
150.798713
 30
0.0
 10
180.210818
 20
152.304346
 30
0.0
 10
178.135139
 20
152.304346
 30
0.0
  0
SPLINE
  5
2a4
100
AcDbEntity
  8
0
 62
7
100
AcDbSpline
 70
8
 71
3
 72
8
 73
4
 74
0
 40
0
 40
0
 40
0
 40
0
 40
1
 40
1
 40
1
 40
1
 10
178.135139
 20
152.304346
 30
0.0
 10
176.709953
 20
152.304346
 30
0.0
 10
175.118756
 20
151.062634
 30
0.0
 10
174.210486
 20
149.243999
 30
0.0
  0
SPLINE
  5
2a5
100
AcDbEntity
  8
0
 62
7
100
AcDbSpline
 70
8
 71
3
 72
8
 73
4
 74
0
 40
0
 40
0
 40
0
 40
0
 40
1
 40
1
 40
1
 40
1
 10
174.210486
 20
149.243999
 30
0.0
 10
173.816871
 20
148.455863
 30
0.0
 10
173.021323
 20
147.483088
 30
0.0
 10
172.437778
 20
147.083235
 30
0.0
  0
SPLINE
  5
2a6
100
AcDbEntity
  8
0
 62
7
100
AcDbSpline
 70
8
 71
3
 72
8
 73
4
 74
0
 40
0
 40
0
 40
0
 40
0
 40
1
 40
1
 40
1
 40
1
 10
172.437778
 20
147.083235
 30
0.0
 10
171.854233
 20
146.683383
 30
0.0
 10
170.959729
 20
145.718355
 30
0.0
 10
170.453403
 20
144.931291
 30
0.0
  0
SPLINE
  5
2a7
100
AcDbEntity
  8
0
 62
7
100
AcDbSpline
 70
8
 71
3
 72
8
 73
4
 74
0
 40
0
 40
0
 40
0
 40
0
 40
1
 40
1
 40
1
 40
1
 10
170.453403
 20
144.931291
 30
0.0
 10
169.947079
 20
144.144227
 30
0.0
 10
169.443646
 20
143.358627
 30
0.0
 10
169.333333
 20
143.193860
 30
0.0
  0
SPLINE
  5
2a8
100
AcDbEntity
  8
0
 62
7
100
AcDbSpline
 70
8
 71
3
 72
8
 73
4
 74
0
 40
0
 40
0
 40
0
 40
0
 40
1
 40
1
 40
1
 40
1
 10
169.333333
 20
143.193860
 30
0.0
 10
169.223024
 20
143.029093
 30
0.0
 10
168.266674
 20
143.489062
 30
0.0
 10
167.207847
 20
144.208096
 30
0.0
  0
SPLINE
  5
2a9
100
AcDbEntity
  8
0
 62
7
100
AcDbSpline
 70
8
 71
3
 72
8
 73
4
 74
0
 40
0
 40
0
 40
0
 40
0
 40
1
 40
1
 40
1
 40
1
 10
167.207847
 20
144.208096
 30
0.0
 10
166.149017
 20
144.927134
 30
0.0
 10
165.184091
 20
145.513374
 30
0.0
 10
165.064722
 20
145.513374
 30
0.0
  0
SPLINE
  5
2aa
100
AcDbEntity
  8
0
 62
7
100
AcDbSpline
 70
8
 71
3
 72
8
 73
4
 74
0
 40
0
 40
0
 40
0
 40
0
 40
1
 40
1
 40
1
 40
1
 10
165.064722
 20
145.513374
 30
0.0
 10
164.945356
 20
145.513374
 30
0.0
 10
164.044331
 20
146.055506
 30
0.0
 10
163.062708
 20
146.721638
 30
0.0
  0
SPLINE
  5
2ab
100
AcDbEntity
  8
0
 62
7
100
AcDbSpline
 70
8
 71
3
 72
8
 73
4
 74
0
 40
0
 40
0
 40
0
 40
0
 40
1
 40
1
 40
1
 40
1
 10
163.062708
 20
146.721638
 30
0.0
 10
162.081089
 20
147.387770
 30
0.0
 10
161.030703
 20
148.027540
 30
0.0
 10
160.725556
 20
148.141569
 30
0.0
  0
SPLINE
  5
2ac
100
AcDbEntity
  8
0
 62
7
100
AcDbSpline
 70
8
 71
3
 72
8
 73
4
 74
0
 40
0
 40
0
 40
0
 40
0
 40
1
 40
1
 40
1
 40
1
 10
160.725556
 20
148.141569
 30
0.0
 10
160.420408
 20
148.255598
 30
0.0
 10
159.379138
 20
148.856466
 30
0.0
 10
158.414861
 20
149.473305
 30
0.0
  0
SPLINE
  5
2ad
100
AcDbEntity
  8
0
 62
7
100
AcDbSpline
 70
8
 71
3
 72
8
 73
4
 74
0
 40
0
 40
0
 40
0
 40
0
 40
1
 40
1
 40
1
 40
1
 10
158.414861
 20
149.473305
 30
0.0
 10
157.450587
 20
150.090144
 30
0.0
 10
156.554043
 20
150.593374
 30
0.0
 10
156.421667
 20
150.593374
 30
0.0
  0
SPLINE
  5
2ae
100
AcDbEntity
  8
0
 62
7
100
AcDbSpline
 70
8
 71
3
 72
8
 73
4
 74
0
 40
0
 40
0
 40
0
 40
0
 40
1
 40
1
 40
1
 40
1
 10
156.421667
 20
150.593374
 30
0.0
 10
156.289288
 20
150.593374
 30
0.0
 10
155.830013
 20
150.843406
 30
0.0
 10
155.407431
 20
151.148999
 30
0.0
  0
SPLINE
  5
2af
100
AcDbEntity
  8
0
 62
7
100
AcDbSpline
 70
8
 71
3
 72
8
 73
4
 74
0
 40
0
 40
0
 40
0
 40
0
 40
1
 40
1
 40
1
 40
1
 10
155.407431
 20
151.148999
 30
0.0
 10
154.984848
 20
151.454592
 30
0.0
 10
153.566185
 20
152.289375
 30
0.0
 10
152.250069
 20
153.001083
 30
0.0
  0
SPLINE
  5
2b0
100
AcDbEntity
  8
0
 62
7
100
AcDbSpline
 70
8
 71
3
 72
8
 73
4
 74
0
 40
0
 40
0
 40
0
 40
0
 40
1
 40
1
 40
1
 40
1
 10
152.250069
 20
153.001083
 30
0.0
 10
150.336160
 20
154.036051
 30
0.0
 10
149.815513
 20
154.480966
 30
0.0
 10
149.630694
 20
155.223583
 30
0.0
  0
SPLINE
  5
2b1
100
AcDbEntity
  8
0
 62
7
100
AcDbSpline
 70
8
 71
3
 72
8
 73
4
 74
0
 40
0
 40
0
 40
0
 40
0
 40
1
 40
1
 40
1
 40
1
 10
149.630694
 20
155.223583
 30
0.0
 10
149.503604
 20
155.734247
 30
0.0
 10
148.807012
 20
158.578499
 30
0.0
 10
148.087292
 20
161.547124
 30
0.0
  0
SPLINE
  5
2b2
100
AcDbEntity
  8
0
 62
7
100
AcDbSpline
 70
8
 71
3
 72
8
 73
4
 74
0
 40
0
 40
0
 40
0
 40
0
 40
1
 40
1
 40
1
 40
1
 10
148.087292
 20
161.547124
 30
0.0
 10
147.367571
 20
164.515749
 30
0.0
 10
146.293815
 20
168.089258
 30
0.0
 10
145.697222
 20
169.493444
 30
0.0
  0
SPLINE
  5
2b3
100
AcDbEntity
  8
0
 62
7
100
AcDbSpline
 70
8
 71
3
 72
8
 73
4
 74
0
 40
0
 40
0
 40
0
 40
0
 40
1
 40
1
 40
1
 40
1
 10
145.697222
 20
169.493444
 30
0.0
 10
144.540241
 20
172.216603
 30
0.0
 10
144.403671
 20
172.818374
 30
0.0
 10
144.956389
 20
172.818374
 30
0.0
  0
SPLINE
  5
2b4
100
AcDbEntity
  8
0
 62
7
100
AcDbSpline
 70
8
 71
3
 72
8
 73
4
 74
0
 40
0
 40
0
 40
0
 40
0
 40
1
 40
1
 40
1
 40
1
 10
144.956389
 20
172.818374
 30
0.0
 10
145.500604
 20
172.818374
 30
0.0
 10
147.146462
 20
174.085337
 30
0.0
 10
147.143611
 20
174.502888
 30
0.0
  0
SPLINE
  5
2b5
100
AcDbEntity
  8
0
 62
7
100
AcDbSpline
 70
8
 71
3
 72
8
 73
4
 74
0
 40
0
 40
0
 40
0
 40
0
 40
1
 40
1
 40
1
 40
1
 10
147.143611
 20
174.502888
 30
0.0
 10
147.142265
 20
174.709280
 30
0.0
 10
146.594266
 20
175.201411
 30
0.0
 10
145.917708
 20
175.587680
 30
0.0
  0
SPLINE
  5
2b6
100
AcDbEntity
  8
0
 62
7
100
AcDbSpline
 70
8
 71
3
 72
8
 73
4
 74
0
 40
0
 40
0
 40
0
 40
0
 40
1
 40
1
 40
1
 40
1
 10
145.917708
 20
175.587680
 30
0.0
 10
145.147620
 20
176.027342
 30
0.0
 10
144.605048
 20
176.607083
 30
0.0
 10
144.471319
 20
177.139902
 30
0.0
  0
SPLINE
  5
2b7
100
AcDbEntity
  8
0
 62
7
100
AcDbSpline
 70
8
 71
3
 72
8
 73
4
 74
0
 40
0
 40
0
 40
0
 40
0
 40
1
 40
1
 40
1
 40
1
 10
144.471319
 20
177.139902
 30
0.0
 10
144.290248
 20
177.861341
 30
0.0
 10
144.435703
 20
178.138054
 30
0.0
 10
145.450278
 20
178.974346
 30
0.0
  0
SPLINE
  5
2b8
100
AcDbEntity
  8
0
 62
7
100
AcDbSpline
 70
8
 71
3
 72
8
 73
4
 74
0
 40
0
 40
0
 40
0
 40
0
 40
1
 40
1
 40
1
 40
1
 10
145.450278
 20
178.974346
 30
0.0
 10
146.108578
 20
179.516978
 30
0.0
 10
146.792335
 20
179.962124
 30
0.0
 10
146.967222
 20
179.962124
 30
0.0
  0
SPLINE
  5
2b9
100
AcDbEntity
  8
0
 62
7
100
AcDbSpline
 70
8
 71
3
 72
8
 73
4
 74
0
 40
0
 40
0
 40
0
 40
0
 40
1
 40
1
 40
1
 40
1
 10
146.967222
 20
179.962124
 30
0.0
 10
147.142110
 20
179.962124
 30
0.0
 10
147.528653
 20
179.319185
 30
0.0
 10
147.822708
 20
178.533374
 30
0.0
  0
SPLINE
  5
2ba
100
AcDbEntity
  8
0
 62
7
100
AcDbSpline
 70
8
 71
3
 72
8
 73
4
 74
0
 40
0
 40
0
 40
0
 40
0
 40
1
 40
1
 40
1
 40
1
 10
147.822708
 20
178.533374
 30
0.0
 10
148.116767
 20
177.747563
 30
0.0
 10
148.750508
 20
176.104499
 30
0.0
 10
149.233819
 20
174.882124
 30
0.0
  0
SPLINE
  5
2bb
100
AcDbEntity
  8
0
 62
7
100
AcDbSpline
 70
8
 71
3
 72
8
 73
4
 74
0
 40
0
 40
0
 40
0
 40
0
 40
1
 40
1
 40
1
 40
1
 10
149.233819
 20
174.882124
 30
0.0
 10
149.717131
 20
173.659749
 30
0.0
 10
150.349921
 20
172.016685
 30
0.0
 10
150.636111
 20
171.230874
 30
0.0
  0
SPLINE
  5
2bc
100
AcDbEntity
  8
0
 62
7
100
AcDbSpline
 70
8
 71
3
 72
8
 73
4
 74
0
 40
0
 40
0
 40
0
 40
0
 40
1
 40
1
 40
1
 40
1
 10
150.636111
 20
171.230874
 30
0.0
 10
151.363499
 20
169.233619
 30
0.0
 10
152.480171
 20
167.493422
 30
0.0
 10
152.664583
 20
168.073513
 30
0.0
  0
SPLINE
  5
2bd
100
AcDbEntity
  8
0
 62
7
100
AcDbSpline
 70
8
 71
3
 72
8
 73
4
 74
0
 40
0
 40
0
 40
0
 40
0
 40
1
 40
1
 40
1
 40
1
 10
152.664583
 20
168.073513
 30
0.0
 10
152.744740
 20
168.325645
 30
0.0
 10
152.961284
 20
170.460935
 30
0.0
 10
153.149653
 20
172.818374
 30
0.0
  0
SPLINE
  5
2be
100
AcDbEntity
  8
0
 62
7
100
AcDbSpline
 70
8
 71
3
 72
8
 73
4
 74
0
 40
0
 40
0
 40
0
 40
0
 40
1
 40
1
 40
1
 40
1
 10
153.149653
 20
172.818374
 30
0.0
 10
153.959230
 20
182.950079
 30
0.0
 10
154.184641
 20
186.817968
 30
0.0
 10
153.996319
 20
187.308721
 30
0.0
  0
SPLINE
  5
2bf
100
AcDbEntity
  8
0
 62
7
100
AcDbSpline
 70
8
 71
3
 72
8
 73
4
 74
0
 40
0
 40
0
 40
0
 40
0
 40
1
 40
1
 40
1
 40
1
 10
153.996319
 20
187.308721
 30
0.0
 10
153.885920
 20
187.596419
 30
0.0
 10
153.999861
 20
188.418208
 30
0.0
 10
154.243264
 20
189.134346
 30
0.0
  0
SPLINE
  5
2c0
100
AcDbEntity
  8
0
 62
7
100
AcDbSpline
 70
8
 71
3
 72
8
 73
4
 74
0
 40
0
 40
0
 40
0
 40
0
 40
1
 40
1
 40
1
 40
1
 10
154.243264
 20
189.134346
 30
0.0
 10
154.486672
 20
189.850480
 30
0.0
 10
155.024288
 20
191.475467
 30
0.0
 10
155.433889
 20
192.741499
 30
0.0
  0
LWPOLYLINE
  5
2c1
100
AcDbEntity
  8
0
 62
7
100
AcDbPolyline
 90
3
 70
0
 10
189.582778
 20
146.748096
 30
0.0
 10
188.586181
 20
145.601569
 30
0.0
 10
183.753125
 20
145.795596
 30
0.0
  0
SPLINE
  5
2c2
100
AcDbEntity
  8
0
 62
7
100
AcDbSpline
 70
8
 71
3
 72
8
 73
4
 74
0
 40
0
 40
0
 40
0
 40
0
 40
1
 40
1
 40
1
 40
1
 10
157.488819
 20
195.043374
 30
0.0
 10
158.212948
 20
195.043374
 30
0.0
 10
159.474397
 20
195.135175
 30
0.0
 10
160.284583
 20
195.246221
 30
0.0
  0
SPLINE
  5
2c3
100
AcDbEntity
  8
0
 62
7
100
AcDbSpline
 70
8
 71
3
 72
8
 73
4
 74
0
 40
0
 40
0
 40
0
 40
0
 40
1
 40
1
 40
1
 40
1
 10
160.284583
 20
195.246221
 30
0.0
 10
161.640246
 20
195.432039
 30
0.0
 10
161.757431
 20
195.394080
 30
0.0
 10
161.757431
 20
194.769971
 30
0.0
  0
SPLINE
  5
2c4
100
AcDbEntity
  8
0
 62
7
100
AcDbSpline
 70
8
 71
3
 72
8
 73
4
 74
0
 40
0
 40
0
 40
0
 40
0
 40
1
 40
1
 40
1
 40
1
 10
161.757431
 20
194.769971
 30
0.0
 10
161.757431
 20
194.396989
 30
0.0
 10
161.614556
 20
194.090874
 30
0.0
 10
161.439931
 20
194.090874
 30
0.0
  0
SPLINE
  5
2c5
100
AcDbEntity
  8
0
 62
7
100
AcDbSpline
 70
8
 71
3
 72
8
 73
4
 74
0
 40
0
 40
0
 40
0
 40
0
 40
1
 40
1
 40
1
 40
1
 10
161.439931
 20
194.090874
 30
0.0
 10
161.265306
 20
194.090874
 30
0.0
 10
161.122431
 20
193.716862
 30
0.0
 10
161.122431
 20
193.261846
 30
0.0
  0
SPLINE
  5
2c6
100
AcDbEntity
  8
0
 62
7
100
AcDbSpline
 70
8
 71
3
 72
8
 73
4
 74
0
 40
0
 40
0
 40
0
 40
0
 40
1
 40
1
 40
1
 40
1
 10
161.122431
 20
193.261846
 30
0.0
 10
161.122431
 20
192.806834
 30
0.0
 10
160.904205
 20
191.592866
 30
0.0
 10
160.637361
 20
190.563096
 30
0.0
  0
SPLINE
  5
2c7
100
AcDbEntity
  8
0
 62
7
100
AcDbSpline
 70
8
 71
3
 72
8
 73
4
 74
0
 40
0
 40
0
 40
0
 40
0
 40
1
 40
1
 40
1
 40
1
 10
160.637361
 20
190.563096
 30
0.0
 10
160.165675
 20
188.742783
 30
0.0
 10
160.168931
 20
188.646252
 30
0.0
 10
160.910764
 20
187.026499
 30
0.0
  0
SPLINE
  5
2c8
100
AcDbEntity
  8
0
 62
7
100
AcDbSpline
 70
8
 71
3
 72
8
 73
4
 74
0
 40
0
 40
0
 40
0
 40
0
 40
1
 40
1
 40
1
 40
1
 10
160.910764
 20
187.026499
 30
0.0
 10
161.330426
 20
186.110191
 30
0.0
 10
162.096839
 20
184.646384
 30
0.0
 10
162.612917
 20
183.772124
 30
0.0
  0
SPLINE
  5
2c9
100
AcDbEntity
  8
0
 62
7
100
AcDbSpline
 70
8
 71
3
 72
8
 73
4
 74
0
 40
0
 40
0
 40
0
 40
0
 40
1
 40
1
 40
1
 40
1
 10
162.612917
 20
183.772124
 30
0.0
 10
163.128991
 20
182.897865
 30
0.0
 10
163.651082
 20
181.796013
 30
0.0
 10
163.768264
 20
181.329138
 30
0.0
  0
SPLINE
  5
2ca
100
AcDbEntity
  8
0
 62
7
100
AcDbSpline
 70
8
 71
3
 72
8
 73
4
 74
0
 40
0
 40
0
 40
0
 40
0
 40
1
 40
1
 40
1
 40
1
 10
163.768264
 20
181.329138
 30
0.0
 10
163.885440
 20
180.862264
 30
0.0
 10
164.165819
 20
180.298451
 30
0.0
 10
164.394444
 20
180.067958
 30
0.0
  0
SPLINE
  5
2cb
100
AcDbEntity
  8
0
 62
7
100
AcDbSpline
 70
8
 71
3
 72
8
 73
4
 74
0
 40
0
 40
0
 40
0
 40
0
 40
1
 40
1
 40
1
 40
1
 10
164.394444
 20
180.067958
 30
0.0
 10
164.623073
 20
179.837467
 30
0.0
 10
165.223794
 20
178.787374
 30
0.0
 10
165.726181
 20
177.739624
 30
0.0
  0
SPLINE
  5
2cc
100
AcDbEntity
  8
0
 62
7
100
AcDbSpline
 70
8
 71
3
 72
8
 73
4
 74
0
 40
0
 40
0
 40
0
 40
0
 40
1
 40
1
 40
1
 40
1
 10
165.726181
 20
177.739624
 30
0.0
 10
166.228570
 20
176.691874
 30
0.0
 10
167.212845
 20
174.844727
 30
0.0
 10
167.922222
 20
173.638583
 30
0.0
  0
LWPOLYLINE
  5
2cd
100
AcDbEntity
  8
0
 62
7
100
AcDbPolyline
 90
3
 70
0
 10
155.433889
 20
192.741499
 30
0.0
 10
156.174722
 20
195.043374
 30
0.0
 10
157.488819
 20
195.043374
 30
0.0
  0
SPLINE
  5
2ce
100
AcDbEntity
  8
0
 62
7
100
AcDbSpline
 70
8
 71
3
 72
8
 73
4
 74
0
 40
0
 40
0
 40
0
 40
0
 40
1
 40
1
 40
1
 40
1
 10
168.424931
 20
191.806638
 30
0.0
 10
167.898476
 20
192.445318
 30
0.0
 10
167.472431
 20
193.081399
 30
0.0
 10
167.472431
 20
193.217749
 30
0.0
  0
SPLINE
  5
2cf
100
AcDbEntity
  8
0
 62
7
100
AcDbSpline
 70
8
 71
3
 72
8
 73
4
 74
0
 40
0
 40
0
 40
0
 40
0
 40
1
 40
1
 40
1
 40
1
 10
167.472431
 20
193.217749
 30
0.0
 10
167.472431
 20
193.641591
 30
0.0
 10
165.793203
 20
195.360874
 30
0.0
 10
165.382222
 20
195.360874
 30
0.0
  0
SPLINE
  5
2d0
100
AcDbEntity
  8
0
 62
7
100
AcDbSpline
 70
8
 71
3
 72
8
 73
4
 74
0
 40
0
 40
0
 40
0
 40
0
 40
1
 40
1
 40
1
 40
1
 10
165.382222
 20
195.360874
 30
0.0
 10
164.990264
 20
195.360874
 30
0.0
 10
164.614931
 20
196.039218
 30
0.0
 10
164.614931
 20
196.736708
 30
0.0
  0
SPLINE
  5
2d1
100
AcDbEntity
  8
0
 62
7
100
AcDbSpline
 70
8
 71
3
 72
8
 73
4
 74
0
 40
0
 40
0
 40
0
 40
0
 40
1
 40
1
 40
1
 40
1
 10
164.614931
 20
196.736708
 30
0.0
 10
164.614931
 20
197.660093
 30
0.0
 10
171.922544
 20
202.345874
 30
0.0
 10
173.363819
 20
202.345874
 30
0.0
  0
SPLINE
  5
2d2
100
AcDbEntity
  8
0
 62
7
100
AcDbSpline
 70
8
 71
3
 72
8
 73
4
 74
0
 40
0
 40
0
 40
0
 40
0
 40
1
 40
1
 40
1
 40
1
 10
173.363819
 20
202.345874
 30
0.0
 10
173.826159
 20
202.345874
 30
0.0
 10
173.871913
 20
202.148082
 30
0.0
 10
173.672500
 20
200.996499
 30
0.0
  0
SPLINE
  5
2d3
100
AcDbEntity
  8
0
 62
7
100
AcDbSpline
 70
8
 71
3
 72
8
 73
4
 74
0
 40
0
 40
0
 40
0
 40
0
 40
1
 40
1
 40
1
 40
1
 10
173.672500
 20
200.996499
 30
0.0
 10
173.134237
 20
197.888106
 30
0.0
 10
173.013311
 20
194.998952
 30
0.0
 10
173.416736
 20
194.664138
 30
0.0
  0
SPLINE
  5
2d4
100
AcDbEntity
  8
0
 62
7
100
AcDbSpline
 70
8
 71
3
 72
8
 73
4
 74
0
 40
0
 40
0
 40
0
 40
0
 40
1
 40
1
 40
1
 40
1
 10
173.416736
 20
194.664138
 30
0.0
 10
173.635718
 20
194.482398
 30
0.0
 10
173.822431
 20
194.157388
 30
0.0
 10
173.822431
 20
193.949763
 30
0.0
  0
SPLINE
  5
2d5
100
AcDbEntity
  8
0
 62
7
100
AcDbSpline
 70
8
 71
3
 72
8
 73
4
 74
0
 40
0
 40
0
 40
0
 40
0
 40
1
 40
1
 40
1
 40
1
 10
173.822431
 20
193.949763
 30
0.0
 10
173.822431
 20
193.742132
 30
0.0
 10
174.080825
 20
193.300508
 30
0.0
 10
174.395694
 20
192.961985
 30
0.0
  0
SPLINE
  5
2d6
100
AcDbEntity
  8
0
 62
7
100
AcDbSpline
 70
8
 71
3
 72
8
 73
4
 74
0
 40
0
 40
0
 40
0
 40
0
 40
1
 40
1
 40
1
 40
1
 10
174.395694
 20
192.961985
 30
0.0
 10
175.019829
 20
192.290968
 30
0.0
 10
178.065413
 20
187.930257
 30
0.0
 10
179.017083
 20
186.347402
 30
0.0
  0
SPLINE
  5
2d7
100
AcDbEntity
  8
0
 62
7
100
AcDbSpline
 70
8
 71
3
 72
8
 73
4
 74
0
 40
0
 40
0
 40
0
 40
0
 40
1
 40
1
 40
1
 40
1
 10
179.017083
 20
186.347402
 30
0.0
 10
179.343259
 20
185.804895
 30
0.0
 10
180.021916
 20
184.892538
 30
0.0
 10
180.525208
 20
184.318930
 30
0.0
  0
SPLINE
  5
2d8
100
AcDbEntity
  8
0
 62
7
100
AcDbSpline
 70
8
 71
3
 72
8
 73
4
 74
0
 40
0
 40
0
 40
0
 40
0
 40
1
 40
1
 40
1
 40
1
 10
180.525208
 20
184.318930
 30
0.0
 10
181.028495
 20
183.745324
 30
0.0
 10
181.442431
 20
183.066667
 30
0.0
 10
181.442431
 20
182.810805
 30
0.0
  0
SPLINE
  5
2d9
100
AcDbEntity
  8
0
 62
7
100
AcDbSpline
 70
8
 71
3
 72
8
 73
4
 74
0
 40
0
 40
0
 40
0
 40
0
 40
1
 40
1
 40
1
 40
1
 10
181.442431
 20
182.810805
 30
0.0
 10
181.442431
 20
182.554945
 30
0.0
 10
181.567178
 20
182.343374
 30
0.0
 10
181.724653
 20
182.343374
 30
0.0
  0
SPLINE
  5
2da
100
AcDbEntity
  8
0
 62
7
100
AcDbSpline
 70
8
 71
3
 72
8
 73
4
 74
0
 40
0
 40
0
 40
0
 40
0
 40
1
 40
1
 40
1
 40
1
 10
181.724653
 20
182.343374
 30
0.0
 10
181.882130
 20
182.343374
 30
0.0
 10
182.289004
 20
181.898973
 30
0.0
 10
182.633056
 20
181.355596
 30
0.0
  0
SPLINE
  5
2db
100
AcDbEntity
  8
0
 62
7
100
AcDbSpline
 70
8
 71
3
 72
8
 73
4
 74
0
 40
0
 40
0
 40
0
 40
0
 40
1
 40
1
 40
1
 40
1
 10
182.633056
 20
181.355596
 30
0.0
 10
182.977096
 20
180.812220
 30
0.0
 10
183.341572
 20
180.489039
 30
0.0
 10
183.435625
 20
180.641221
 30
0.0
  0
SPLINE
  5
2dc
100
AcDbEntity
  8
0
 62
7
100
AcDbSpline
 70
8
 71
3
 72
8
 73
4
 74
0
 40
0
 40
0
 40
0
 40
0
 40
1
 40
1
 40
1
 40
1
 10
183.435625
 20
180.641221
 30
0.0
 10
183.529678
 20
180.793401
 30
0.0
 10
183.478729
 20
181.987898
 30
0.0
 10
183.320972
 20
183.295874
 30
0.0
  0
SPLINE
  5
2dd
100
AcDbEntity
  8
0
 62
7
100
AcDbSpline
 70
8
 71
3
 72
8
 73
4
 74
0
 40
0
 40
0
 40
0
 40
0
 40
1
 40
1
 40
1
 40
1
 10
183.320972
 20
183.295874
 30
0.0
 10
183.163216
 20
184.603847
 30
0.0
 10
182.882786
 20
187.748813
 30
0.0
 10
182.703611
 20
190.280874
 30
0.0
  0
SPLINE
  5
2de
100
AcDbEntity
  8
0
 62
7
100
AcDbSpline
 70
8
 71
3
 72
8
 73
4
 74
0
 40
0
 40
0
 40
0
 40
0
 40
1
 40
1
 40
1
 40
1
 10
182.703611
 20
190.280874
 30
0.0
 10
182.193503
 20
197.489699
 30
0.0
 10
182.167530
 20
197.600031
 30
0.0
 10
180.207708
 20
199.797055
 30
0.0
  0
SPLINE
  5
2df
100
AcDbEntity
  8
0
 62
7
100
AcDbSpline
 70
8
 71
3
 72
8
 73
4
 74
0
 40
0
 40
0
 40
0
 40
0
 40
1
 40
1
 40
1
 40
1
 10
180.207708
 20
199.797055
 30
0.0
 10
179.268041
 20
200.850452
 30
0.0
 10
178.320666
 20
201.710874
 30
0.0
 10
178.108681
 20
201.710874
 30
0.0
  0
SPLINE
  5
2e0
100
AcDbEntity
  8
0
 62
7
100
AcDbSpline
 70
8
 71
3
 72
8
 73
4
 74
0
 40
0
 40
0
 40
0
 40
0
 40
1
 40
1
 40
1
 40
1
 10
178.108681
 20
201.710874
 30
0.0
 10
177.896695
 20
201.710874
 30
0.0
 10
177.464254
 20
202.003601
 30
0.0
 10
177.138542
 20
202.363513
 30
0.0
  0
SPLINE
  5
2e1
100
AcDbEntity
  8
0
 62
7
100
AcDbSpline
 70
8
 71
3
 72
8
 73
4
 74
0
 40
0
 40
0
 40
0
 40
0
 40
1
 40
1
 40
1
 40
1
 10
177.138542
 20
202.363513
 30
0.0
 10
176.455126
 20
203.118680
 30
0.0
 10
176.207093
 20
202.887859
 30
0.0
 10
179.969583
 20
205.079902
 30
0.0
  0
SPLINE
  5
2e2
100
AcDbEntity
  8
0
 62
7
100
AcDbSpline
 70
8
 71
3
 72
8
 73
4
 74
0
 40
0
 40
0
 40
0
 40
0
 40
1
 40
1
 40
1
 40
1
 10
179.969583
 20
205.079902
 30
0.0
 10
182.221282
 20
206.391753
 30
0.0
 10
182.545914
 20
206.501114
 30
0.0
 10
183.223958
 20
206.138235
 30
0.0
  0
SPLINE
  5
2e3
100
AcDbEntity
  8
0
 62
7
100
AcDbSpline
 70
8
 71
3
 72
8
 73
4
 74
0
 40
0
 40
0
 40
0
 40
0
 40
1
 40
1
 40
1
 40
1
 10
183.223958
 20
206.138235
 30
0.0
 10
183.638207
 20
205.916538
 30
0.0
 10
183.982431
 20
205.629423
 30
0.0
 10
183.982431
 20
205.503235
 30
0.0
  0
SPLINE
  5
2e4
100
AcDbEntity
  8
0
 62
7
100
AcDbSpline
 70
8
 71
3
 72
8
 73
4
 74
0
 40
0
 40
0
 40
0
 40
0
 40
1
 40
1
 40
1
 40
1
 10
183.982431
 20
205.503235
 30
0.0
 10
183.982431
 20
205.377048
 30
0.0
 10
184.303901
 20
205.190451
 30
0.0
 10
184.696806
 20
205.088721
 30
0.0
  0
SPLINE
  5
2e5
100
AcDbEntity
  8
0
 62
7
100
AcDbSpline
 70
8
 71
3
 72
8
 73
4
 74
0
 40
0
 40
0
 40
0
 40
0
 40
1
 40
1
 40
1
 40
1
 10
184.696806
 20
205.088721
 30
0.0
 10
185.089713
 20
204.986992
 30
0.0
 10
185.815867
 20
204.548935
 30
0.0
 10
186.310764
 20
204.118583
 30
0.0
  0
SPLINE
  5
2e6
100
AcDbEntity
  8
0
 62
7
100
AcDbSpline
 70
8
 71
3
 72
8
 73
4
 74
0
 40
0
 40
0
 40
0
 40
0
 40
1
 40
1
 40
1
 40
1
 10
186.310764
 20
204.118583
 30
0.0
 10
187.025325
 20
203.497220
 30
0.0
 10
187.144798
 20
203.219414
 30
0.0
 10
186.892847
 20
202.769208
 30
0.0
  0
SPLINE
  5
2e7
100
AcDbEntity
  8
0
 62
7
100
AcDbSpline
 70
8
 71
3
 72
8
 73
4
 74
0
 40
0
 40
0
 40
0
 40
0
 40
1
 40
1
 40
1
 40
1
 10
186.892847
 20
202.769208
 30
0.0
 10
186.680656
 20
202.390025
 30
0.0
 10
186.676651
 20
202.000186
 30
0.0
 10
186.892847
 20
201.596221
 30
0.0
  0
SPLINE
  5
2e8
100
AcDbEntity
  8
0
 62
7
100
AcDbSpline
 70
8
 71
3
 72
8
 73
4
 74
0
 40
0
 40
0
 40
0
 40
0
 40
1
 40
1
 40
1
 40
1
 10
186.892847
 20
201.596221
 30
0.0
 10
187.115648
 20
201.179910
 30
0.0
 10
187.107748
 20
200.758933
 30
0.0
 10
186.866389
 20
200.229208
 30
0.0
  0
SPLINE
  5
2e9
100
AcDbEntity
  8
0
 62
7
100
AcDbSpline
 70
8
 71
3
 72
8
 73
4
 74
0
 40
0
 40
0
 40
0
 40
0
 40
1
 40
1
 40
1
 40
1
 10
186.866389
 20
200.229208
 30
0.0
 10
186.673800
 20
199.806518
 30
0.0
 10
186.522431
 20
198.539058
 30
0.0
 10
186.522431
 20
197.415805
 30
0.0
  0
SPLINE
  5
2ea
100
AcDbEntity
  8
0
 62
7
100
AcDbSpline
 70
8
 71
3
 72
8
 73
4
 74
0
 40
0
 40
0
 40
0
 40
0
 40
1
 40
1
 40
1
 40
1
 10
186.522431
 20
197.415805
 30
0.0
 10
186.522431
 20
195.391301
 30
0.0
 10
186.530739
 20
195.364422
 30
0.0
 10
187.995278
 20
194.020319
 30
0.0
  0
SPLINE
  5
2eb
100
AcDbEntity
  8
0
 62
7
100
AcDbSpline
 70
8
 71
3
 72
8
 73
4
 74
0
 40
0
 40
0
 40
0
 40
0
 40
1
 40
1
 40
1
 40
1
 10
187.995278
 20
194.020319
 30
0.0
 10
188.807849
 20
193.274563
 30
0.0
 10
191.736788
 20
190.434685
 30
0.0
 10
194.504028
 20
187.714416
 30
0.0
  0
SPLINE
  5
2ec
100
AcDbEntity
  8
0
 62
7
100
AcDbSpline
 70
8
 71
3
 72
8
 73
4
 74
0
 40
0
 40
0
 40
0
 40
0
 40
1
 40
1
 40
1
 40
1
 10
194.504028
 20
187.714416
 30
0.0
 10
198.228720
 20
184.052952
 30
0.0
 10
199.539084
 20
182.939797
 30
0.0
 10
199.539931
 20
183.428166
 30
0.0
  0
SPLINE
  5
2ed
100
AcDbEntity
  8
0
 62
7
100
AcDbSpline
 70
8
 71
3
 72
8
 73
4
 74
0
 40
0
 40
0
 40
0
 40
0
 40
1
 40
1
 40
1
 40
1
 10
199.539931
 20
183.428166
 30
0.0
 10
199.541367
 20
184.100236
 30
0.0
 10
198.821904
 20
186.618172
 30
0.0
 10
196.770625
 20
193.138374
 30
0.0
  0
SPLINE
  5
2ee
100
AcDbEntity
  8
0
 62
7
100
AcDbSpline
 70
8
 71
3
 72
8
 73
4
 74
0
 40
0
 40
0
 40
0
 40
0
 40
1
 40
1
 40
1
 40
1
 10
196.770625
 20
193.138374
 30
0.0
 10
195.491075
 20
197.205566
 30
0.0
 10
195.143684
 20
199.170874
 30
0.0
 10
195.703472
 20
199.170874
 30
0.0
  0
SPLINE
  5
2ef
100
AcDbEntity
  8
0
 62
7
100
AcDbSpline
 70
8
 71
3
 72
8
 73
4
 74
0
 40
0
 40
0
 40
0
 40
0
 40
1
 40
1
 40
1
 40
1
 10
195.703472
 20
199.170874
 30
0.0
 10
196.093120
 20
199.170874
 30
0.0
 10
200.492431
 20
196.351325
 30
0.0
 10
200.492431
 20
196.101708
 30
0.0
  0
SPLINE
  5
2f0
100
AcDbEntity
  8
0
 62
7
100
AcDbSpline
 70
8
 71
3
 72
8
 73
4
 74
0
 40
0
 40
0
 40
0
 40
0
 40
1
 40
1
 40
1
 40
1
 10
200.492431
 20
196.101708
 30
0.0
 10
200.492431
 20
196.018692
 30
0.0
 10
200.335207
 20
195.665711
 30
0.0
 10
200.148472
 20
195.316777
 30
0.0
  0
SPLINE
  5
2f1
100
AcDbEntity
  8
0
 62
7
100
AcDbSpline
 70
8
 71
3
 72
8
 73
4
 74
0
 40
0
 40
0
 40
0
 40
0
 40
1
 40
1
 40
1
 40
1
 10
200.148472
 20
195.316777
 30
0.0
 10
199.904116
 20
194.860181
 30
0.0
 10
199.907392
 20
194.561361
 30
0.0
 10
200.166111
 20
194.249624
 30
0.0
  0
SPLINE
  5
2f2
100
AcDbEntity
  8
0
 62
7
100
AcDbSpline
 70
8
 71
3
 72
8
 73
4
 74
0
 40
0
 40
0
 40
0
 40
0
 40
1
 40
1
 40
1
 40
1
 10
200.166111
 20
194.249624
 30
0.0
 10
200.436534
 20
193.923787
 30
0.0
 10
200.417851
 20
193.600682
 30
0.0
 10
200.077917
 20
192.926708
 30
0.0
  0
SPLINE
  5
2f3
100
AcDbEntity
  8
0
 62
7
100
AcDbSpline
 70
8
 71
3
 72
8
 73
4
 74
0
 40
0
 40
0
 40
0
 40
0
 40
1
 40
1
 40
1
 40
1
 10
200.077917
 20
192.926708
 30
0.0
 10
199.767413
 20
192.311113
 30
0.0
 10
199.671336
 20
191.396834
 30
0.0
 10
199.778056
 20
190.007471
 30
0.0
  0
LWPOLYLINE
  5
2f4
100
AcDbEntity
  8
0
 62
7
100
AcDbPolyline
 90
5
 70
0
 10
167.922222
 20
173.638583
 30
0.0
 10
169.218681
 20
171.451360
 30
0.0
 10
169.298056
 20
181.046916
 30
0.0
 10
169.386250
 20
190.642471
 30
0.0
 10
168.424931
 20
191.806638
 30
0.0
  0
SPLINE
  5
2f5
100
AcDbEntity
  8
0
 62
7
100
AcDbSpline
 70
8
 71
3
 72
8
 73
4
 74
0
 40
0
 40
0
 40
0
 40
0
 40
1
 40
1
 40
1
 40
1
 10
204.126042
 20
183.816221
 30
0.0
 10
206.430674
 20
181.523169
 30
0.0
 10
209.266561
 20
178.754464
 30
0.0
 10
210.431944
 20
177.669069
 30
0.0
  0
SPLINE
  5
2f6
100
AcDbEntity
  8
0
 62
7
100
AcDbSpline
 70
8
 71
3
 72
8
 73
4
 74
0
 40
0
 40
0
 40
0
 40
0
 40
1
 40
1
 40
1
 40
1
 10
210.431944
 20
177.669069
 30
0.0
 10
212.948032
 20
175.325676
 30
0.0
 10
213.037708
 20
175.501512
 30
0.0
 10
211.622569
 20
180.103235
 30
0.0
  0
SPLINE
  5
2f7
100
AcDbEntity
  8
0
 62
7
100
AcDbSpline
 70
8
 71
3
 72
8
 73
4
 74
0
 40
0
 40
0
 40
0
 40
0
 40
1
 40
1
 40
1
 40
1
 10
211.622569
 20
180.103235
 30
0.0
 10
209.575290
 20
186.760553
 30
0.0
 10
208.413209
 20
190.776648
 30
0.0
 10
208.421111
 20
191.153999
 30
0.0
  0
SPLINE
  5
2f8
100
AcDbEntity
  8
0
 62
7
100
AcDbSpline
 70
8
 71
3
 72
8
 73
4
 74
0
 40
0
 40
0
 40
0
 40
0
 40
1
 40
1
 40
1
 40
1
 10
208.421111
 20
191.153999
 30
0.0
 10
208.436986
 20
191.910524
 30
0.0
 10
209.741880
 20
191.540714
 30
0.0
 10
211.649028
 20
190.245596
 30
0.0
  0
SPLINE
  5
2f9
100
AcDbEntity
  8
0
 62
7
100
AcDbSpline
 70
8
 71
3
 72
8
 73
4
 74
0
 40
0
 40
0
 40
0
 40
0
 40
1
 40
1
 40
1
 40
1
 10
211.649028
 20
190.245596
 30
0.0
 10
213.168013
 20
189.214074
 30
0.0
 10
213.527970
 20
188.812746
 30
0.0
 10
213.395278
 20
188.305319
 30
0.0
  0
SPLINE
  5
2fa
100
AcDbEntity
  8
0
 62
7
100
AcDbSpline
 70
8
 71
3
 72
8
 73
4
 74
0
 40
0
 40
0
 40
0
 40
0
 40
1
 40
1
 40
1
 40
1
 10
213.395278
 20
188.305319
 30
0.0
 10
213.303200
 20
187.953218
 30
0.0
 10
213.381257
 20
187.419592
 30
0.0
 10
213.571667
 20
187.114694
 30
0.0
  0
SPLINE
  5
2fb
100
AcDbEntity
  8
0
 62
7
100
AcDbSpline
 70
8
 71
3
 72
8
 73
4
 74
0
 40
0
 40
0
 40
0
 40
0
 40
1
 40
1
 40
1
 40
1
 10
213.571667
 20
187.114694
 30
0.0
 10
213.831001
 20
186.699432
 30
0.0
 10
213.808544
 20
186.399294
 30
0.0
 10
213.474653
 20
185.924069
 30
0.0
  0
SPLINE
  5
2fc
100
AcDbEntity
  8
0
 62
7
100
AcDbSpline
 70
8
 71
3
 72
8
 73
4
 74
0
 40
0
 40
0
 40
0
 40
0
 40
1
 40
1
 40
1
 40
1
 10
213.474653
 20
185.924069
 30
0.0
 10
213.163872
 20
185.481728
 30
0.0
 10
213.065761
 20
184.600647
 30
0.0
 10
213.139514
 20
183.013652
 30
0.0
  0
LWPOLYLINE
  5
2fd
100
AcDbEntity
  8
0
 62
7
100
AcDbPolyline
 90
3
 70
0
 10
199.778056
 20
190.007471
 30
0.0
 10
199.936806
 20
187.978999
 30
0.0
 10
204.126042
 20
183.816221
 30
0.0
  0
SPLINE
  5
2fe
100
AcDbEntity
  8
0
 62
7
100
AcDbSpline
 70
8
 71
3
 72
8
 73
4
 74
0
 40
0
 40
0
 40
0
 40
0
 40
1
 40
1
 40
1
 40
1
 10
215.564861
 20
178.286430
 30
0.0
 10
216.840974
 20
176.937997
 30
0.0
 10
218.793568
 20
174.832780
 30
0.0
 10
219.904028
 20
173.612124
 30
0.0
  0
SPLINE
  5
2ff
100
AcDbEntity
  8
0
 62
7
100
AcDbSpline
 70
8
 71
3
 72
8
 73
4
 74
0
 40
0
 40
0
 40
0
 40
0
 40
1
 40
1
 40
1
 40
1
 10
219.904028
 20
173.612124
 30
0.0
 10
221.014490
 20
172.391471
 30
0.0
 10
222.566617
 20
170.740400
 30
0.0
 10
223.352431
 20
169.934416
 30
0.0
  0
SPLINE
  5
300
100
AcDbEntity
  8
0
 62
7
100
AcDbSpline
 70
8
 71
3
 72
8
 73
4
 74
0
 40
0
 40
0
 40
0
 40
0
 40
1
 40
1
 40
1
 40
1
 10
223.352431
 20
169.934416
 30
0.0
 10
224.138242
 20
169.128434
 30
0.0
 10
225.187617
 20
168.012590
 30
0.0
 10
225.689583
 20
167.456152
 30
0.0
  0
SPLINE
  5
301
100
AcDbEntity
  8
0
 62
7
100
AcDbSpline
 70
8
 71
3
 72
8
 73
4
 74
0
 40
0
 40
0
 40
0
 40
0
 40
1
 40
1
 40
1
 40
1
 10
225.689583
 20
167.456152
 30
0.0
 10
226.191549
 20
166.899714
 30
0.0
 10
226.662499
 20
166.497615
 30
0.0
 10
226.730278
 20
166.565388
 30
0.0
  0
SPLINE
  5
302
100
AcDbEntity
  8
0
 62
7
100
AcDbSpline
 70
8
 71
3
 72
8
 73
4
 74
0
 40
0
 40
0
 40
0
 40
0
 40
1
 40
1
 40
1
 40
1
 10
226.730278
 20
166.565388
 30
0.0
 10
226.882412
 20
166.717528
 30
0.0
 10
226.158998
 20
169.207375
 30
0.0
 10
224.878194
 20
172.977124
 30
0.0
  0
SPLINE
  5
303
100
AcDbEntity
  8
0
 62
7
100
AcDbSpline
 70
8
 71
3
 72
8
 73
4
 74
0
 40
0
 40
0
 40
0
 40
0
 40
1
 40
1
 40
1
 40
1
 10
224.878194
 20
172.977124
 30
0.0
 10
224.344219
 20
174.548749
 30
0.0
 10
223.766882
 20
176.406124
 30
0.0
 10
223.590556
 20
177.104624
 30
0.0
  0
SPLINE
  5
304
100
AcDbEntity
  8
0
 62
7
100
AcDbSpline
 70
8
 71
3
 72
8
 73
4
 74
0
 40
0
 40
0
 40
0
 40
0
 40
1
 40
1
 40
1
 40
1
 10
223.590556
 20
177.104624
 30
0.0
 10
223.414226
 20
177.803124
 30
0.0
 10
222.786236
 20
179.781025
 30
0.0
 10
222.197083
 20
181.496708
 30
0.0
  0
SPLINE
  5
305
100
AcDbEntity
  8
0
 62
7
100
AcDbSpline
 70
8
 71
3
 72
8
 73
4
 74
0
 40
0
 40
0
 40
0
 40
0
 40
1
 40
1
 40
1
 40
1
 10
222.197083
 20
181.496708
 30
0.0
 10
221.607928
 20
183.212387
 30
0.0
 10
221.129931
 20
184.676858
 30
0.0
 10
221.129931
 20
184.751083
 30
0.0
  0
SPLINE
  5
306
100
AcDbEntity
  8
0
 62
7
100
AcDbSpline
 70
8
 71
3
 72
8
 73
4
 74
0
 40
0
 40
0
 40
0
 40
0
 40
1
 40
1
 40
1
 40
1
 10
221.129931
 20
184.751083
 30
0.0
 10
221.129931
 20
185.137222
 30
0.0
 10
222.316551
 20
184.759634
 30
0.0
 10
224.454861
 20
183.701569
 30
0.0
  0
SPLINE
  5
307
100
AcDbEntity
  8
0
 62
7
100
AcDbSpline
 70
8
 71
3
 72
8
 73
4
 74
0
 40
0
 40
0
 40
0
 40
0
 40
1
 40
1
 40
1
 40
1
 10
224.454861
 20
183.701569
 30
0.0
 10
226.206815
 20
182.834678
 30
0.0
 10
226.844931
 20
182.357367
 30
0.0
 10
226.844931
 20
181.902402
 30
0.0
  0
SPLINE
  5
308
100
AcDbEntity
  8
0
 62
7
100
AcDbSpline
 70
8
 71
3
 72
8
 73
4
 74
0
 40
0
 40
0
 40
0
 40
0
 40
1
 40
1
 40
1
 40
1
 10
226.844931
 20
181.902402
 30
0.0
 10
226.844931
 20
181.561537
 30
0.0
 10
227.075622
 20
181.023009
 30
0.0
 10
227.365278
 20
180.702958
 30
0.0
  0
SPLINE
  5
309
100
AcDbEntity
  8
0
 62
7
100
AcDbSpline
 70
8
 71
3
 72
8
 73
4
 74
0
 40
0
 40
0
 40
0
 40
0
 40
1
 40
1
 40
1
 40
1
 10
227.365278
 20
180.702958
 30
0.0
 10
227.797007
 20
180.225900
 30
0.0
 10
227.824832
 20
179.969676
 30
0.0
 10
227.524028
 20
179.309485
 30
0.0
  0
SPLINE
  5
30a
100
AcDbEntity
  8
0
 62
7
100
AcDbSpline
 70
8
 71
3
 72
8
 73
4
 74
0
 40
0
 40
0
 40
0
 40
0
 40
1
 40
1
 40
1
 40
1
 10
227.524028
 20
179.309485
 30
0.0
 10
227.224929
 20
178.653031
 30
0.0
 10
227.278895
 20
178.147286
 30
0.0
 10
227.815069
 20
176.540180
 30
0.0
  0
SPLINE
  5
30b
100
AcDbEntity
  8
0
 62
7
100
AcDbSpline
 70
8
 71
3
 72
8
 73
4
 74
0
 40
0
 40
0
 40
0
 40
0
 40
1
 40
1
 40
1
 40
1
 10
227.815069
 20
176.540180
 30
0.0
 10
228.666458
 20
173.988284
 30
0.0
 10
229.122255
 20
173.307691
 30
0.0
 10
231.245833
 20
171.389624
 30
0.0
  0
SPLINE
  5
30c
100
AcDbEntity
  8
0
 62
7
100
AcDbSpline
 70
8
 71
3
 72
8
 73
4
 74
0
 40
0
 40
0
 40
0
 40
0
 40
1
 40
1
 40
1
 40
1
 10
231.245833
 20
171.389624
 30
0.0
 10
232.212507
 20
170.516499
 30
0.0
 10
233.652884
 20
169.208453
 30
0.0
 10
234.447292
 20
168.479208
 30
0.0
  0
SPLINE
  5
30d
100
AcDbEntity
  8
0
 62
7
100
AcDbSpline
 70
8
 71
3
 72
8
 73
4
 74
0
 40
0
 40
0
 40
0
 40
0
 40
1
 40
1
 40
1
 40
1
 10
234.447292
 20
168.479208
 30
0.0
 10
235.241696
 20
167.749968
 30
0.0
 10
236.502583
 20
166.606968
 30
0.0
 10
237.251875
 20
165.939208
 30
0.0
  0
SPLINE
  5
30e
100
AcDbEntity
  8
0
 62
7
100
AcDbSpline
 70
8
 71
3
 72
8
 73
4
 74
0
 40
0
 40
0
 40
0
 40
0
 40
1
 40
1
 40
1
 40
1
 10
237.251875
 20
165.939208
 30
0.0
 10
238.001172
 20
165.271453
 30
0.0
 10
239.210187
 20
164.114906
 30
0.0
 10
239.932986
 20
163.372749
 30
0.0
  0
SPLINE
  5
30f
100
AcDbEntity
  8
0
 62
7
100
AcDbSpline
 70
8
 71
3
 72
8
 73
4
 74
0
 40
0
 40
0
 40
0
 40
0
 40
1
 40
1
 40
1
 40
1
 10
239.932986
 20
163.372749
 30
0.0
 10
240.655780
 20
162.630592
 30
0.0
 10
241.381636
 20
162.023374
 30
0.0
 10
241.555764
 20
162.023374
 30
0.0
  0
SPLINE
  5
310
100
AcDbEntity
  8
0
 62
7
100
AcDbSpline
 70
8
 71
3
 72
8
 73
4
 74
0
 40
0
 40
0
 40
0
 40
0
 40
1
 40
1
 40
1
 40
1
 10
241.555764
 20
162.023374
 30
0.0
 10
241.729892
 20
162.023374
 30
0.0
 10
242.278191
 20
161.559031
 30
0.0
 10
242.764028
 20
160.991499
 30
0.0
  0
LWPOLYLINE
  5
311
100
AcDbEntity
  8
0
 62
7
100
AcDbPolyline
 90
3
 70
0
 10
213.139514
 20
183.013652
 30
0.0
 10
213.245347
 20
180.738235
 30
0.0
 10
215.564861
 20
178.286430
 30
0.0
  0
SPLINE
  5
312
100
AcDbEntity
  8
0
 62
7
100
AcDbSpline
 70
8
 71
3
 72
8
 73
4
 74
0
 40
0
 40
0
 40
0
 40
0
 40
1
 40
1
 40
1
 40
1
 10
243.654792
 20
161.017958
 30
0.0
 10
243.661887
 20
161.600902
 30
0.0
 10
243.250980
 20
162.986717
 30
0.0
 10
242.737569
 20
164.095944
 30
0.0
  0
SPLINE
  5
313
100
AcDbEntity
  8
0
 62
7
100
AcDbSpline
 70
8
 71
3
 72
8
 73
4
 74
0
 40
0
 40
0
 40
0
 40
0
 40
1
 40
1
 40
1
 40
1
 10
242.737569
 20
164.095944
 30
0.0
 10
242.224156
 20
165.205176
 30
0.0
 10
241.571441
 20
166.801467
 30
0.0
 10
241.291181
 20
167.641360
 30
0.0
  0
SPLINE
  5
314
100
AcDbEntity
  8
0
 62
7
100
AcDbSpline
 70
8
 71
3
 72
8
 73
4
 74
0
 40
0
 40
0
 40
0
 40
0
 40
1
 40
1
 40
1
 40
1
 10
241.291181
 20
167.641360
 30
0.0
 10
241.010920
 20
168.481251
 30
0.0
 10
240.273013
 20
170.452999
 30
0.0
 10
239.650764
 20
172.024624
 30
0.0
  0
SPLINE
  5
315
100
AcDbEntity
  8
0
 62
7
100
AcDbSpline
 70
8
 71
3
 72
8
 73
4
 74
0
 40
0
 40
0
 40
0
 40
0
 40
1
 40
1
 40
1
 40
1
 10
239.650764
 20
172.024624
 30
0.0
 10
237.063822
 20
178.558512
 30
0.0
 10
236.923213
 20
179.060156
 30
0.0
 10
237.719306
 20
178.771499
 30
0.0
  0
SPLINE
  5
316
100
AcDbEntity
  8
0
 62
7
100
AcDbSpline
 70
8
 71
3
 72
8
 73
4
 74
0
 40
0
 40
0
 40
0
 40
0
 40
1
 40
1
 40
1
 40
1
 10
237.719306
 20
178.771499
 30
0.0
 10
240.705925
 20
177.688584
 30
0.0
 10
246.893018
 20
175.933128
 30
0.0
 10
247.076736
 20
176.116846
 30
0.0
  0
SPLINE
  5
317
100
AcDbEntity
  8
0
 62
7
100
AcDbSpline
 70
8
 71
3
 72
8
 73
4
 74
0
 40
0
 40
0
 40
0
 40
0
 40
1
 40
1
 40
1
 40
1
 10
247.076736
 20
176.116846
 30
0.0
 10
247.243383
 20
176.283493
 30
0.0
 10
243.006905
 20
178.533374
 30
0.0
 10
242.525903
 20
178.533374
 30
0.0
  0
SPLINE
  5
318
100
AcDbEntity
  8
0
 62
7
100
AcDbSpline
 70
8
 71
3
 72
8
 73
4
 74
0
 40
0
 40
0
 40
0
 40
0
 40
1
 40
1
 40
1
 40
1
 10
242.525903
 20
178.533374
 30
0.0
 10
242.321227
 20
178.533374
 30
0.0
 10
240.994720
 20
179.104874
 30
0.0
 10
239.580208
 20
179.803374
 30
0.0
  0
SPLINE
  5
319
100
AcDbEntity
  8
0
 62
7
100
AcDbSpline
 70
8
 71
3
 72
8
 73
4
 74
0
 40
0
 40
0
 40
0
 40
0
 40
1
 40
1
 40
1
 40
1
 10
239.580208
 20
179.803374
 30
0.0
 10
238.165702
 20
180.501874
 30
0.0
 10
236.858923
 20
181.073374
 30
0.0
 10
236.678611
 20
181.073374
 30
0.0
  0
SPLINE
  5
31a
100
AcDbEntity
  8
0
 62
7
100
AcDbSpline
 70
8
 71
3
 72
8
 73
4
 74
0
 40
0
 40
0
 40
0
 40
0
 40
1
 40
1
 40
1
 40
1
 10
236.678611
 20
181.073374
 30
0.0
 10
236.498299
 20
181.073374
 30
0.0
 10
235.219178
 20
181.644874
 30
0.0
 10
233.829931
 20
182.343374
 30
0.0
  0
SPLINE
  5
31b
100
AcDbEntity
  8
0
 62
7
100
AcDbSpline
 70
8
 71
3
 72
8
 73
4
 74
0
 40
0
 40
0
 40
0
 40
0
 40
1
 40
1
 40
1
 40
1
 10
233.829931
 20
182.343374
 30
0.0
 10
232.440683
 20
183.041874
 30
0.0
 10
231.147891
 20
183.613374
 30
0.0
 10
230.963611
 20
183.613374
 30
0.0
  0
SPLINE
  5
31c
100
AcDbEntity
  8
0
 62
7
100
AcDbSpline
 70
8
 71
3
 72
8
 73
4
 74
0
 40
0
 40
0
 40
0
 40
0
 40
1
 40
1
 40
1
 40
1
 10
230.963611
 20
183.613374
 30
0.0
 10
230.661004
 20
183.613374
 30
0.0
 10
221.872700
 20
187.783755
 30
0.0
 10
218.748681
 20
189.407749
 30
0.0
  0
SPLINE
  5
31d
100
AcDbEntity
  8
0
 62
7
100
AcDbSpline
 70
8
 71
3
 72
8
 73
4
 74
0
 40
0
 40
0
 40
0
 40
0
 40
1
 40
1
 40
1
 40
1
 10
218.748681
 20
189.407749
 30
0.0
 10
218.050181
 20
189.770856
 30
0.0
 10
216.478556
 20
190.581480
 30
0.0
 10
215.256181
 20
191.215735
 30
0.0
  0
SPLINE
  5
31e
100
AcDbEntity
  8
0
 62
7
100
AcDbSpline
 70
8
 71
3
 72
8
 73
4
 74
0
 40
0
 40
0
 40
0
 40
0
 40
1
 40
1
 40
1
 40
1
 10
215.256181
 20
191.215735
 30
0.0
 10
212.436840
 20
192.678606
 30
0.0
 10
209.451967
 20
194.357162
 30
0.0
 10
208.412292
 20
195.069833
 30
0.0
  0
SPLINE
  5
31f
100
AcDbEntity
  8
0
 62
7
100
AcDbSpline
 70
8
 71
3
 72
8
 73
4
 74
0
 40
0
 40
0
 40
0
 40
0
 40
1
 40
1
 40
1
 40
1
 10
208.412292
 20
195.069833
 30
0.0
 10
207.968748
 20
195.373865
 30
0.0
 10
206.754312
 20
196.086530
 30
0.0
 10
205.713542
 20
196.648513
 30
0.0
  0
SPLINE
  5
320
100
AcDbEntity
  8
0
 62
7
100
AcDbSpline
 70
8
 71
3
 72
8
 73
4
 74
0
 40
0
 40
0
 40
0
 40
0
 40
1
 40
1
 40
1
 40
1
 10
205.713542
 20
196.648513
 30
0.0
 10
204.672765
 20
197.210499
 30
0.0
 10
203.525227
 20
197.937106
 30
0.0
 10
203.164722
 20
198.262471
 30
0.0
  0
SPLINE
  5
321
100
AcDbEntity
  8
0
 62
7
100
AcDbSpline
 70
8
 71
3
 72
8
 73
4
 74
0
 40
0
 40
0
 40
0
 40
0
 40
1
 40
1
 40
1
 40
1
 10
203.164722
 20
198.262471
 30
0.0
 10
202.804217
 20
198.587837
 30
0.0
 10
202.288984
 20
198.853374
 30
0.0
 10
202.018194
 20
198.853374
 30
0.0
  0
SPLINE
  5
322
100
AcDbEntity
  8
0
 62
7
100
AcDbSpline
 70
8
 71
3
 72
8
 73
4
 74
0
 40
0
 40
0
 40
0
 40
0
 40
1
 40
1
 40
1
 40
1
 10
202.018194
 20
198.853374
 30
0.0
 10
201.747405
 20
198.853374
 30
0.0
 10
201.182289
 20
199.114421
 30
0.0
 10
200.765833
 20
199.435458
 30
0.0
  0
SPLINE
  5
323
100
AcDbEntity
  8
0
 62
7
100
AcDbSpline
 70
8
 71
3
 72
8
 73
4
 74
0
 40
0
 40
0
 40
0
 40
0
 40
1
 40
1
 40
1
 40
1
 10
200.765833
 20
199.435458
 30
0.0
 10
200.349378
 20
199.756497
 30
0.0
 10
199.016056
 20
200.568481
 30
0.0
 10
197.793681
 20
201.234624
 30
0.0
  0
SPLINE
  5
324
100
AcDbEntity
  8
0
 62
7
100
AcDbSpline
 70
8
 71
3
 72
8
 73
4
 74
0
 40
0
 40
0
 40
0
 40
0
 40
1
 40
1
 40
1
 40
1
 10
197.793681
 20
201.234624
 30
0.0
 10
196.571306
 20
201.900765
 30
0.0
 10
195.071117
 20
202.750172
 30
0.0
 10
194.459931
 20
203.130805
 30
0.0
  0
SPLINE
  5
325
100
AcDbEntity
  8
0
 62
7
100
AcDbSpline
 70
8
 71
3
 72
8
 73
4
 74
0
 40
0
 40
0
 40
0
 40
0
 40
1
 40
1
 40
1
 40
1
 10
194.459931
 20
203.130805
 30
0.0
 10
191.658957
 20
204.875167
 30
0.0
 10
189.472903
 20
206.100959
 30
0.0
 10
188.744931
 20
206.323444
 30
0.0
  0
SPLINE
  5
326
100
AcDbEntity
  8
0
 62
7
100
AcDbSpline
 70
8
 71
3
 72
8
 73
4
 74
0
 40
0
 40
0
 40
0
 40
0
 40
1
 40
1
 40
1
 40
1
 10
188.744931
 20
206.323444
 30
0.0
 10
188.308367
 20
206.456861
 30
0.0
 10
187.115537
 20
207.113615
 30
0.0
 10
186.099097
 20
207.787471
 30
0.0
  0
SPLINE
  5
327
100
AcDbEntity
  8
0
 62
7
100
AcDbSpline
 70
8
 71
3
 72
8
 73
4
 74
0
 40
0
 40
0
 40
0
 40
0
 40
1
 40
1
 40
1
 40
1
 10
186.099097
 20
207.787471
 30
0.0
 10
185.082654
 20
208.461331
 30
0.0
 10
184.138796
 20
209.013374
 30
0.0
 10
184.000069
 20
209.013374
 30
0.0
  0
SPLINE
  5
328
100
AcDbEntity
  8
0
 62
7
100
AcDbSpline
 70
8
 71
3
 72
8
 73
4
 74
0
 40
0
 40
0
 40
0
 40
0
 40
1
 40
1
 40
1
 40
1
 10
184.000069
 20
209.013374
 30
0.0
 10
183.861343
 20
209.013374
 30
0.0
 10
183.352079
 20
209.323014
 30
0.0
 10
182.871181
 20
209.701291
 30
0.0
  0
SPLINE
  5
329
100
AcDbEntity
  8
0
 62
7
100
AcDbSpline
 70
8
 71
3
 72
8
 73
4
 74
0
 40
0
 40
0
 40
0
 40
0
 40
1
 40
1
 40
1
 40
1
 10
182.871181
 20
209.701291
 30
0.0
 10
182.196856
 20
210.231713
 30
0.0
 10
181.875343
 20
210.313408
 30
0.0
 10
181.460069
 20
210.054069
 30
0.0
  0
SPLINE
  5
32a
100
AcDbEntity
  8
0
 62
7
100
AcDbSpline
 70
8
 71
3
 72
8
 73
4
 74
0
 40
0
 40
0
 40
0
 40
0
 40
1
 40
1
 40
1
 40
1
 10
181.460069
 20
210.054069
 30
0.0
 10
180.287524
 20
209.321801
 30
0.0
 10
174.702981
 20
206.473374
 30
0.0
 10
174.439792
 20
206.473374
 30
0.0
  0
SPLINE
  5
32b
100
AcDbEntity
  8
0
 62
7
100
AcDbSpline
 70
8
 71
3
 72
8
 73
4
 74
0
 40
0
 40
0
 40
0
 40
0
 40
1
 40
1
 40
1
 40
1
 10
174.439792
 20
206.473374
 30
0.0
 10
174.285698
 20
206.473374
 30
0.0
 10
173.262801
 20
205.900218
 30
0.0
 10
172.164375
 20
205.203374
 30
0.0
  0
SPLINE
  5
32c
100
AcDbEntity
  8
0
 62
7
100
AcDbSpline
 70
8
 71
3
 72
8
 73
4
 74
0
 40
0
 40
0
 40
0
 40
0
 40
1
 40
1
 40
1
 40
1
 10
172.164375
 20
205.203374
 30
0.0
 10
171.065952
 20
204.506534
 30
0.0
 10
169.997749
 20
203.935068
 30
0.0
 10
169.791944
 20
203.933374
 30
0.0
  0
SPLINE
  5
32d
100
AcDbEntity
  8
0
 62
7
100
AcDbSpline
 70
8
 71
3
 72
8
 73
4
 74
0
 40
0
 40
0
 40
0
 40
0
 40
1
 40
1
 40
1
 40
1
 10
169.791944
 20
203.933374
 30
0.0
 10
169.586134
 20
203.931718
 30
0.0
 10
169.225739
 20
203.737583
 30
0.0
 10
168.989375
 20
203.501221
 30
0.0
  0
SPLINE
  5
32e
100
AcDbEntity
  8
0
 62
7
100
AcDbSpline
 70
8
 71
3
 72
8
 73
4
 74
0
 40
0
 40
0
 40
0
 40
0
 40
1
 40
1
 40
1
 40
1
 10
168.989375
 20
203.501221
 30
0.0
 10
168.094460
 20
202.606306
 30
0.0
 10
162.802849
 20
199.361160
 30
0.0
 10
161.281181
 20
198.773999
 30
0.0
  0
SPLINE
  5
32f
100
AcDbEntity
  8
0
 62
7
100
AcDbSpline
 70
8
 71
3
 72
8
 73
4
 74
0
 40
0
 40
0
 40
0
 40
0
 40
1
 40
1
 40
1
 40
1
 10
161.281181
 20
198.773999
 30
0.0
 10
158.492108
 20
197.697784
 30
0.0
 10
156.693402
 20
197.144067
 30
0.0
 10
156.527500
 20
197.309971
 30
0.0
  0
SPLINE
  5
330
100
AcDbEntity
  8
0
 62
7
100
AcDbSpline
 70
8
 71
3
 72
8
 73
4
 74
0
 40
0
 40
0
 40
0
 40
0
 40
1
 40
1
 40
1
 40
1
 10
156.527500
 20
197.309971
 30
0.0
 10
156.438803
 20
197.398668
 30
0.0
 10
156.268042
 20
197.928157
 30
0.0
 10
156.157083
 20
198.482958
 30
0.0
  0
SPLINE
  5
331
100
AcDbEntity
  8
0
 62
7
100
AcDbSpline
 70
8
 71
3
 72
8
 73
4
 74
0
 40
0
 40
0
 40
0
 40
0
 40
1
 40
1
 40
1
 40
1
 10
156.157083
 20
198.482958
 30
0.0
 10
155.996634
 20
199.285185
 30
0.0
 10
156.064263
 20
199.488374
 30
0.0
 10
156.474583
 20
199.488374
 30
0.0
  0
SPLINE
  5
332
100
AcDbEntity
  8
0
 62
7
100
AcDbSpline
 70
8
 71
3
 72
8
 73
4
 74
0
 40
0
 40
0
 40
0
 40
0
 40
1
 40
1
 40
1
 40
1
 10
156.474583
 20
199.488374
 30
0.0
 10
156.758349
 20
199.488374
 30
0.0
 10
156.994931
 20
199.321685
 30
0.0
 10
156.994931
 20
199.117958
 30
0.0
  0
SPLINE
  5
333
100
AcDbEntity
  8
0
 62
7
100
AcDbSpline
 70
8
 71
3
 72
8
 73
4
 74
0
 40
0
 40
0
 40
0
 40
0
 40
1
 40
1
 40
1
 40
1
 10
156.994931
 20
199.117958
 30
0.0
 10
156.994931
 20
198.914224
 30
0.0
 10
157.066307
 20
198.827737
 30
0.0
 10
157.162500
 20
198.923930
 30
0.0
  0
SPLINE
  5
334
100
AcDbEntity
  8
0
 62
7
100
AcDbSpline
 70
8
 71
3
 72
8
 73
4
 74
0
 40
0
 40
0
 40
0
 40
0
 40
1
 40
1
 40
1
 40
1
 10
157.162500
 20
198.923930
 30
0.0
 10
157.398875
 20
199.160308
 30
0.0
 10
156.482582
 20
204.489781
 30
0.0
 10
155.707292
 20
207.364138
 30
0.0
  0
SPLINE
  5
335
100
AcDbEntity
  8
0
 62
7
100
AcDbSpline
 70
8
 71
3
 72
8
 73
4
 74
0
 40
0
 40
0
 40
0
 40
0
 40
1
 40
1
 40
1
 40
1
 10
155.707292
 20
207.364138
 30
0.0
 10
155.069292
 20
209.729502
 30
0.0
 10
155.101970
 20
210.283374
 30
0.0
 10
155.883681
 20
210.283374
 30
0.0
  0
SPLINE
  5
336
100
AcDbEntity
  8
0
 62
7
100
AcDbSpline
 70
8
 71
3
 72
8
 73
4
 74
0
 40
0
 40
0
 40
0
 40
0
 40
1
 40
1
 40
1
 40
1
 10
155.883681
 20
210.283374
 30
0.0
 10
156.596080
 20
210.283374
 30
0.0
 10
156.705337
 20
210.789565
 30
0.0
 10
156.201181
 20
211.756221
 30
0.0
  0
SPLINE
  5
337
100
AcDbEntity
  8
0
 62
7
100
AcDbSpline
 70
8
 71
3
 72
8
 73
4
 74
0
 40
0
 40
0
 40
0
 40
0
 40
1
 40
1
 40
1
 40
1
 10
156.201181
 20
211.756221
 30
0.0
 10
155.526319
 20
213.050182
 30
0.0
 10
155.611093
 20
213.881360
 30
0.0
 10
156.518681
 20
214.860666
 30
0.0
  0
SPLINE
  5
338
100
AcDbEntity
  8
0
 62
7
100
AcDbSpline
 70
8
 71
3
 72
8
 73
4
 74
0
 40
0
 40
0
 40
0
 40
0
 40
1
 40
1
 40
1
 40
1
 10
156.518681
 20
214.860666
 30
0.0
 10
156.955242
 20
215.331723
 30
0.0
 10
157.312431
 20
215.842726
 30
0.0
 10
157.312431
 20
215.998374
 30
0.0
  0
SPLINE
  5
339
100
AcDbEntity
  8
0
 62
7
100
AcDbSpline
 70
8
 71
3
 72
8
 73
4
 74
0
 40
0
 40
0
 40
0
 40
0
 40
1
 40
1
 40
1
 40
1
 10
157.312431
 20
215.998374
 30
0.0
 10
157.312431
 20
216.154020
 30
0.0
 10
157.578704
 20
216.752596
 30
0.0
 10
157.912153
 20
217.330110
 30
0.0
  0
SPLINE
  5
33a
100
AcDbEntity
  8
0
 62
7
100
AcDbSpline
 70
8
 71
3
 72
8
 73
4
 74
0
 40
0
 40
0
 40
0
 40
0
 40
1
 40
1
 40
1
 40
1
 10
157.912153
 20
217.330110
 30
0.0
 10
159.975787
 20
220.904199
 30
0.0
 10
159.222841
 20
228.154820
 30
0.0
 10
156.589236
 20
230.030110
 30
0.0
  0
SPLINE
  5
33b
100
AcDbEntity
  8
0
 62
7
100
AcDbSpline
 70
8
 71
3
 72
8
 73
4
 74
0
 40
0
 40
0
 40
0
 40
0
 40
1
 40
1
 40
1
 40
1
 10
156.589236
 20
230.030110
 30
0.0
 10
154.666487
 20
231.399230
 30
0.0
 10
150.943550
 20
230.803721
 30
0.0
 10
147.690417
 20
228.601360
 30
0.0
  0
SPLINE
  5
33c
100
AcDbEntity
  8
0
 62
7
100
AcDbSpline
 70
8
 71
3
 72
8
 73
4
 74
0
 40
0
 40
0
 40
0
 40
0
 40
1
 40
1
 40
1
 40
1
 10
147.690417
 20
228.601360
 30
0.0
 10
147.200146
 20
228.269447
 30
0.0
 10
146.747811
 20
228.044764
 30
0.0
 10
146.693819
 20
228.107471
 30
0.0
  0
SPLINE
  5
33d
100
AcDbEntity
  8
0
 62
7
100
AcDbSpline
 70
8
 71
3
 72
8
 73
4
 74
0
 40
0
 40
0
 40
0
 40
0
 40
1
 40
1
 40
1
 40
1
 10
146.693819
 20
228.107471
 30
0.0
 10
146.639828
 20
228.170178
 30
0.0
 10
146.439300
 20
229.322241
 30
0.0
 10
146.244028
 20
230.665110
 30
0.0
  0
SPLINE
  5
33e
100
AcDbEntity
  8
0
 62
7
100
AcDbSpline
 70
8
 71
3
 72
8
 73
4
 74
0
 40
0
 40
0
 40
0
 40
0
 40
1
 40
1
 40
1
 40
1
 10
146.244028
 20
230.665110
 30
0.0
 10
145.691403
 20
234.465427
 30
0.0
 10
144.768310
 20
236.424326
 30
0.0
 10
142.389931
 20
238.831916
 30
0.0
  0
SPLINE
  5
33f
100
AcDbEntity
  8
0
 62
7
100
AcDbSpline
 70
8
 71
3
 72
8
 73
4
 74
0
 40
0
 40
0
 40
0
 40
0
 40
1
 40
1
 40
1
 40
1
 10
142.389931
 20
238.831916
 30
0.0
 10
140.288670
 20
240.958982
 30
0.0
 10
138.977237
 20
242.033374
 30
0.0
 10
138.491736
 20
242.033374
 30
0.0
  0
SPLINE
  5
340
100
AcDbEntity
  8
0
 62
7
100
AcDbSpline
 70
8
 71
3
 72
8
 73
4
 74
0
 40
0
 40
0
 40
0
 40
0
 40
1
 40
1
 40
1
 40
1
 10
138.491736
 20
242.033374
 30
0.0
 10
138.343045
 20
242.033374
 30
0.0
 10
137.627992
 20
242.305400
 30
0.0
 10
136.895417
 20
242.633096
 30
0.0
  0
SPLINE
  5
341
100
AcDbEntity
  8
0
 62
7
100
AcDbSpline
 70
8
 71
3
 72
8
 73
4
 74
0
 40
0
 40
0
 40
0
 40
0
 40
1
 40
1
 40
1
 40
1
 10
136.895417
 20
242.633096
 30
0.0
 10
136.162841
 20
242.960796
 30
0.0
 10
134.134931
 20
243.538722
 30
0.0
 10
132.388681
 20
243.920735
 30
0.0
  0
SPLINE
  5
342
100
AcDbEntity
  8
0
 62
7
100
AcDbSpline
 70
8
 71
3
 72
8
 73
4
 74
0
 40
0
 40
0
 40
0
 40
0
 40
1
 40
1
 40
1
 40
1
 10
132.388681
 20
243.920735
 30
0.0
 10
130.642431
 20
244.302748
 30
0.0
 10
127.360962
 20
245.053477
 30
0.0
 10
125.103819
 20
245.587610
 30
0.0
  0
SPLINE
  5
343
100
AcDbEntity
  8
0
 62
7
100
AcDbSpline
 70
8
 71
3
 72
8
 73
4
 74
0
 40
0
 40
0
 40
0
 40
0
 40
1
 40
1
 40
1
 40
1
 10
125.103819
 20
245.587610
 30
0.0
 10
122.673282
 20
246.162779
 30
0.0
 10
121.005439
 20
246.439307
 30
0.0
 10
119.556389
 20
246.398999
 30
0.0
  0
LWPOLYLINE
  5
344
100
AcDbEntity
  8
0
 62
7
100
AcDbPolyline
 90
3
 70
0
 10
242.764028
 20
160.991499
 30
0.0
 10
243.645972
 20
159.959624
 30
0.0
 10
243.654792
 20
161.017958
 30
0.0
  0
SPLINE
  5
345
100
AcDbEntity
  8
0
 62
7
100
AcDbSpline
 70
8
 71
3
 72
8
 73
4
 74
0
 40
0
 40
0
 40
0
 40
0
 40
1
 40
1
 40
1
 40
1
 10
145.547292
 20
215.627958
 30
0.0
 10
145.909575
 20
215.748718
 30
0.0
 10
145.940958
 20
214.682174
 30
0.0
 10
145.723681
 20
209.136846
 30
0.0
  0
SPLINE
  5
346
100
AcDbEntity
  8
0
 62
7
100
AcDbSpline
 70
8
 71
3
 72
8
 73
4
 74
0
 40
0
 40
0
 40
0
 40
0
 40
1
 40
1
 40
1
 40
1
 10
145.723681
 20
209.136846
 30
0.0
 10
145.395270
 20
200.755270
 30
0.0
 10
145.398165
 20
200.919309
 30
0.0
 10
145.706042
 20
198.932749
 30
0.0
  0
LWPOLYLINE
  5
347
100
AcDbEntity
  8
0
 62
7
100
AcDbPolyline
 90
2
 70
0
 10
119.556389
 20
246.398999
 30
0.0
 10
119.556389
 20
246.398999
 30
0.0
  0
SPLINE
  5
348
100
AcDbEntity
  8
0
 62
7
100
AcDbSpline
 70
8
 71
3
 72
8
 73
4
 74
0
 40
0
 40
0
 40
0
 40
0
 40
1
 40
1
 40
1
 40
1
 10
144.488958
 20
197.265874
 30
0.0
 10
143.142566
 20
197.265874
 30
0.0
 10
142.943707
 20
197.163777
 30
0.0
 10
142.204722
 20
196.075249
 30
0.0
  0
SPLINE
  5
349
100
AcDbEntity
  8
0
 62
7
100
AcDbSpline
 70
8
 71
3
 72
8
 73
4
 74
0
 40
0
 40
0
 40
0
 40
0
 40
1
 40
1
 40
1
 40
1
 10
142.204722
 20
196.075249
 30
0.0
 10
140.819815
 20
194.035274
 30
0.0
 10
138.749055
 20
190.834710
 30
0.0
 10
138.421181
 20
190.227958
 30
0.0
  0
SPLINE
  5
34a
100
AcDbEntity
  8
0
 62
7
100
AcDbSpline
 70
8
 71
3
 72
8
 73
4
 74
0
 40
0
 40
0
 40
0
 40
0
 40
1
 40
1
 40
1
 40
1
 10
138.421181
 20
190.227958
 30
0.0
 10
138.054867
 20
189.550077
 30
0.0
 10
137.441655
 20
189.473411
 30
0.0
 10
137.080625
 20
190.060388
 30
0.0
  0
SPLINE
  5
34b
100
AcDbEntity
  8
0
 62
7
100
AcDbSpline
 70
8
 71
3
 72
8
 73
4
 74
0
 40
0
 40
0
 40
0
 40
0
 40
1
 40
1
 40
1
 40
1
 10
137.080625
 20
190.060388
 30
0.0
 10
136.940979
 20
190.287433
 30
0.0
 10
136.333617
 20
190.820142
 30
0.0
 10
135.722431
 20
191.242194
 30
0.0
  0
SPLINE
  5
34c
100
AcDbEntity
  8
0
 62
7
100
AcDbSpline
 70
8
 71
3
 72
8
 73
4
 74
0
 40
0
 40
0
 40
0
 40
0
 40
1
 40
1
 40
1
 40
1
 10
135.722431
 20
191.242194
 30
0.0
 10
135.111242
 20
191.664246
 30
0.0
 10
134.454683
 20
192.155431
 30
0.0
 10
134.267222
 20
192.335805
 30
0.0
  0
SPLINE
  5
34d
100
AcDbEntity
  8
0
 62
7
100
AcDbSpline
 70
8
 71
3
 72
8
 73
4
 74
0
 40
0
 40
0
 40
0
 40
0
 40
1
 40
1
 40
1
 40
1
 10
134.267222
 20
192.335805
 30
0.0
 10
133.778368
 20
192.806165
 30
0.0
 10
132.088915
 20
193.605390
 30
0.0
 10
129.531181
 20
194.575944
 30
0.0
  0
SPLINE
  5
34e
100
AcDbEntity
  8
0
 62
7
100
AcDbSpline
 70
8
 71
3
 72
8
 73
4
 74
0
 40
0
 40
0
 40
0
 40
0
 40
1
 40
1
 40
1
 40
1
 10
129.531181
 20
194.575944
 30
0.0
 10
126.464232
 20
195.739721
 30
0.0
 10
126.461210
 20
195.740472
 30
0.0
 10
126.682500
 20
198.024346
 30
0.0
  0
SPLINE
  5
34f
100
AcDbEntity
  8
0
 62
7
100
AcDbSpline
 70
8
 71
3
 72
8
 73
4
 74
0
 40
0
 40
0
 40
0
 40
0
 40
1
 40
1
 40
1
 40
1
 10
126.682500
 20
198.024346
 30
0.0
 10
126.956160
 20
200.848730
 30
0.0
 10
127.102269
 20
201.393374
 30
0.0
 10
127.626181
 20
201.393374
 30
0.0
  0
SPLINE
  5
350
100
AcDbEntity
  8
0
 62
7
100
AcDbSpline
 70
8
 71
3
 72
8
 73
4
 74
0
 40
0
 40
0
 40
0
 40
0
 40
1
 40
1
 40
1
 40
1
 10
127.626181
 20
201.393374
 30
0.0
 10
127.978862
 20
201.393374
 30
0.0
 10
128.102431
 20
200.998619
 30
0.0
 10
128.102431
 20
199.805874
 30
0.0
  0
SPLINE
  5
351
100
AcDbEntity
  8
0
 62
7
100
AcDbSpline
 70
8
 71
3
 72
8
 73
4
 74
0
 40
0
 40
0
 40
0
 40
0
 40
1
 40
1
 40
1
 40
1
 10
128.102431
 20
199.805874
 30
0.0
 10
128.102431
 20
198.369623
 30
0.0
 10
128.156219
 20
198.245936
 30
0.0
 10
128.658056
 20
198.562333
 30
0.0
  0
SPLINE
  5
352
100
AcDbEntity
  8
0
 62
7
100
AcDbSpline
 70
8
 71
3
 72
8
 73
4
 74
0
 40
0
 40
0
 40
0
 40
0
 40
1
 40
1
 40
1
 40
1
 10
128.658056
 20
198.562333
 30
0.0
 10
128.963649
 20
198.755000
 30
0.0
 10
129.561779
 20
199.467896
 30
0.0
 10
129.989792
 20
200.149833
 30
0.0
  0
SPLINE
  5
353
100
AcDbEntity
  8
0
 62
7
100
AcDbSpline
 70
8
 71
3
 72
8
 73
4
 74
0
 40
0
 40
0
 40
0
 40
0
 40
1
 40
1
 40
1
 40
1
 10
129.989792
 20
200.149833
 30
0.0
 10
130.417801
 20
200.831769
 30
0.0
 10
130.871239
 20
201.393374
 30
0.0
 10
131.004028
 20
201.393374
 30
0.0
  0
SPLINE
  5
354
100
AcDbEntity
  8
0
 62
7
100
AcDbSpline
 70
8
 71
3
 72
8
 73
4
 74
0
 40
0
 40
0
 40
0
 40
0
 40
1
 40
1
 40
1
 40
1
 10
131.004028
 20
201.393374
 30
0.0
 10
131.240282
 20
201.393374
 30
0.0
 10
131.737362
 20
199.797543
 30
0.0
 10
131.991806
 20
198.218374
 30
0.0
  0
SPLINE
  5
355
100
AcDbEntity
  8
0
 62
7
100
AcDbSpline
 70
8
 71
3
 72
8
 73
4
 74
0
 40
0
 40
0
 40
0
 40
0
 40
1
 40
1
 40
1
 40
1
 10
131.991806
 20
198.218374
 30
0.0
 10
132.094537
 20
197.580778
 30
0.0
 10
132.169947
 20
197.686081
 30
0.0
 10
132.371042
 20
198.765180
 30
0.0
  0
SPLINE
  5
356
100
AcDbEntity
  8
0
 62
7
100
AcDbSpline
 70
8
 71
3
 72
8
 73
4
 74
0
 40
0
 40
0
 40
0
 40
0
 40
1
 40
1
 40
1
 40
1
 10
132.371042
 20
198.765180
 30
0.0
 10
132.508735
 20
199.504040
 30
0.0
 10
132.836322
 20
200.288562
 30
0.0
 10
133.094236
 20
200.502610
 30
0.0
  0
SPLINE
  5
357
100
AcDbEntity
  8
0
 62
7
100
AcDbSpline
 70
8
 71
3
 72
8
 73
4
 74
0
 40
0
 40
0
 40
0
 40
0
 40
1
 40
1
 40
1
 40
1
 10
133.094236
 20
200.502610
 30
0.0
 10
133.503345
 20
200.842141
 30
0.0
 10
133.531311
 20
200.614133
 30
0.0
 10
133.332361
 20
198.756360
 30
0.0
  0
SPLINE
  5
358
100
AcDbEntity
  8
0
 62
7
100
AcDbSpline
 70
8
 71
3
 72
8
 73
4
 74
0
 40
0
 40
0
 40
0
 40
0
 40
1
 40
1
 40
1
 40
1
 10
133.332361
 20
198.756360
 30
0.0
 10
133.206939
 20
197.585169
 30
0.0
 10
133.184169
 20
196.630874
 30
0.0
 10
133.279444
 20
196.630874
 30
0.0
  0
SPLINE
  5
359
100
AcDbEntity
  8
0
 62
7
100
AcDbSpline
 70
8
 71
3
 72
8
 73
4
 74
0
 40
0
 40
0
 40
0
 40
0
 40
1
 40
1
 40
1
 40
1
 10
133.279444
 20
196.630874
 30
0.0
 10
133.374714
 20
196.630874
 30
0.0
 10
133.618043
 20
197.416685
 30
0.0
 10
133.817431
 20
198.377124
 30
0.0
  0
SPLINE
  5
35a
100
AcDbEntity
  8
0
 62
7
100
AcDbSpline
 70
8
 71
3
 72
8
 73
4
 74
0
 40
0
 40
0
 40
0
 40
0
 40
1
 40
1
 40
1
 40
1
 10
133.817431
 20
198.377124
 30
0.0
 10
134.016818
 20
199.337563
 30
0.0
 10
134.307826
 20
200.123374
 30
0.0
 10
134.470069
 20
200.123374
 30
0.0
  0
SPLINE
  5
35b
100
AcDbEntity
  8
0
 62
7
100
AcDbSpline
 70
8
 71
3
 72
8
 73
4
 74
0
 40
0
 40
0
 40
0
 40
0
 40
1
 40
1
 40
1
 40
1
 10
134.470069
 20
200.123374
 30
0.0
 10
134.632313
 20
200.123374
 30
0.0
 10
134.769931
 20
199.980499
 30
0.0
 10
134.769931
 20
199.805874
 30
0.0
  0
SPLINE
  5
35c
100
AcDbEntity
  8
0
 62
7
100
AcDbSpline
 70
8
 71
3
 72
8
 73
4
 74
0
 40
0
 40
0
 40
0
 40
0
 40
1
 40
1
 40
1
 40
1
 10
134.769931
 20
199.805874
 30
0.0
 10
134.769931
 20
199.053560
 30
0.0
 10
135.285257
 20
199.596725
 30
0.0
 10
135.828264
 20
200.917124
 30
0.0
  0
SPLINE
  5
35d
100
AcDbEntity
  8
0
 62
7
100
AcDbSpline
 70
8
 71
3
 72
8
 73
4
 74
0
 40
0
 40
0
 40
0
 40
0
 40
1
 40
1
 40
1
 40
1
 10
135.828264
 20
200.917124
 30
0.0
 10
136.385616
 20
202.272412
 30
0.0
 10
136.991584
 20
202.808132
 30
0.0
 10
136.992431
 20
201.948999
 30
0.0
  0
SPLINE
  5
35e
100
AcDbEntity
  8
0
 62
7
100
AcDbSpline
 70
8
 71
3
 72
8
 73
4
 74
0
 40
0
 40
0
 40
0
 40
0
 40
1
 40
1
 40
1
 40
1
 10
136.992431
 20
201.948999
 30
0.0
 10
136.992645
 20
201.730717
 30
0.0
 10
137.350020
 20
201.971007
 30
0.0
 10
137.786181
 20
202.478166
 30
0.0
  0
LWPOLYLINE
  5
35f
100
AcDbEntity
  8
0
 62
7
100
AcDbPolyline
 90
3
 70
0
 10
145.706042
 20
198.932749
 30
0.0
 10
145.961806
 20
197.265874
 30
0.0
 10
144.488958
 20
197.265874
 30
0.0
  0
SPLINE
  5
360
100
AcDbEntity
  8
0
 62
7
100
AcDbSpline
 70
8
 71
3
 72
8
 73
4
 74
0
 40
0
 40
0
 40
0
 40
0
 40
1
 40
1
 40
1
 40
1
 10
141.305139
 20
205.344485
 30
0.0
 10
142.731292
 20
205.130620
 30
0.0
 10
142.749897
 20
205.133152
 30
0.0
 10
142.337014
 20
205.794277
 30
0.0
  0
SPLINE
  5
361
100
AcDbEntity
  8
0
 62
7
100
AcDbSpline
 70
8
 71
3
 72
8
 73
4
 74
0
 40
0
 40
0
 40
0
 40
0
 40
1
 40
1
 40
1
 40
1
 10
142.337014
 20
205.794277
 30
0.0
 10
142.105092
 20
206.165645
 30
0.0
 10
141.808175
 20
206.473374
 30
0.0
 10
141.675556
 20
206.473374
 30
0.0
  0
SPLINE
  5
362
100
AcDbEntity
  8
0
 62
7
100
AcDbSpline
 70
8
 71
3
 72
8
 73
4
 74
0
 40
0
 40
0
 40
0
 40
0
 40
1
 40
1
 40
1
 40
1
 10
141.675556
 20
206.473374
 30
0.0
 10
141.542934
 20
206.473374
 30
0.0
 10
141.437431
 20
207.184241
 30
0.0
 10
141.437431
 20
208.052055
 30
0.0
  0
SPLINE
  5
363
100
AcDbEntity
  8
0
 62
7
100
AcDbSpline
 70
8
 71
3
 72
8
 73
4
 74
0
 40
0
 40
0
 40
0
 40
0
 40
1
 40
1
 40
1
 40
1
 10
141.437431
 20
208.052055
 30
0.0
 10
141.437431
 20
209.636834
 30
0.0
 10
142.136523
 20
211.330134
 30
0.0
 10
143.342431
 20
212.664624
 30
0.0
  0
SPLINE
  5
364
100
AcDbEntity
  8
0
 62
7
100
AcDbSpline
 70
8
 71
3
 72
8
 73
4
 74
0
 40
0
 40
0
 40
0
 40
0
 40
1
 40
1
 40
1
 40
1
 10
143.342431
 20
212.664624
 30
0.0
 10
143.658028
 20
213.013874
 30
0.0
 10
144.184743
 20
213.793781
 30
0.0
 10
144.515417
 20
214.393235
 30
0.0
  0
SPLINE
  5
365
100
AcDbEntity
  8
0
 62
7
100
AcDbSpline
 70
8
 71
3
 72
8
 73
4
 74
0
 40
0
 40
0
 40
0
 40
0
 40
1
 40
1
 40
1
 40
1
 10
144.515417
 20
214.393235
 30
0.0
 10
144.846088
 20
214.992689
 30
0.0
 10
145.308992
 20
215.548523
 30
0.0
 10
145.547292
 20
215.627958
 30
0.0
  0
LWPOLYLINE
  5
366
100
AcDbEntity
  8
0
 62
7
100
AcDbPolyline
 90
7
 70
0
 10
137.786181
 20
202.478166
 30
0.0
 10
138.579931
 20
203.395388
 30
0.0
 10
139.214931
 20
202.663374
 30
0.0
 10
139.849931
 20
201.931360
 30
0.0
 10
139.849931
 20
203.748166
 30
0.0
 10
139.849931
 20
205.556152
 30
0.0
 10
141.305139
 20
205.344485
 30
0.0
  0
SPLINE
  5
367
100
AcDbEntity
  8
0
 62
7
100
AcDbSpline
 70
8
 71
3
 72
8
 73
4
 74
0
 40
0
 40
0
 40
0
 40
0
 40
1
 40
1
 40
1
 40
1
 10
115.825764
 20
208.695874
 30
0.0
 10
116.084917
 20
208.695874
 30
0.0
 10
116.349639
 20
208.583386
 30
0.0
 10
116.407847
 20
208.448930
 30
0.0
  0
SPLINE
  5
368
100
AcDbEntity
  8
0
 62
7
100
AcDbSpline
 70
8
 71
3
 72
8
 73
4
 74
0
 40
0
 40
0
 40
0
 40
0
 40
1
 40
1
 40
1
 40
1
 10
116.407847
 20
208.448930
 30
0.0
 10
116.517996
 20
208.194504
 30
0.0
 10
119.485977
 20
206.196796
 30
0.0
 10
120.694097
 20
205.564971
 30
0.0
  0
SPLINE
  5
369
100
AcDbEntity
  8
0
 62
7
100
AcDbSpline
 70
8
 71
3
 72
8
 73
4
 74
0
 40
0
 40
0
 40
0
 40
0
 40
1
 40
1
 40
1
 40
1
 10
120.694097
 20
205.564971
 30
0.0
 10
121.075523
 20
205.365494
 30
0.0
 10
121.647023
 20
205.204221
 30
0.0
 10
121.964097
 20
205.203374
 30
0.0
  0
SPLINE
  5
36a
100
AcDbEntity
  8
0
 62
7
100
AcDbSpline
 70
8
 71
3
 72
8
 73
4
 74
0
 40
0
 40
0
 40
0
 40
0
 40
1
 40
1
 40
1
 40
1
 10
121.964097
 20
205.203374
 30
0.0
 10
122.281171
 20
205.202299
 30
0.0
 10
122.954404
 20
204.987985
 30
0.0
 10
123.454583
 20
204.727124
 30
0.0
  0
SPLINE
  5
36b
100
AcDbEntity
  8
0
 62
7
100
AcDbSpline
 70
8
 71
3
 72
8
 73
4
 74
0
 40
0
 40
0
 40
0
 40
0
 40
1
 40
1
 40
1
 40
1
 10
123.454583
 20
204.727124
 30
0.0
 10
123.954763
 20
204.466263
 30
0.0
 10
124.847731
 20
204.250874
 30
0.0
 10
125.438958
 20
204.250874
 30
0.0
  0
SPLINE
  5
36c
100
AcDbEntity
  8
0
 62
7
100
AcDbSpline
 70
8
 71
3
 72
8
 73
4
 74
0
 40
0
 40
0
 40
0
 40
0
 40
1
 40
1
 40
1
 40
1
 10
125.438958
 20
204.250874
 30
0.0
 10
126.030183
 20
204.250874
 30
0.0
 10
126.514931
 20
204.107999
 30
0.0
 10
126.514931
 20
203.933374
 30
0.0
  0
SPLINE
  5
36d
100
AcDbEntity
  8
0
 62
7
100
AcDbSpline
 70
8
 71
3
 72
8
 73
4
 74
0
 40
0
 40
0
 40
0
 40
0
 40
1
 40
1
 40
1
 40
1
 10
126.514931
 20
203.933374
 30
0.0
 10
126.514931
 20
203.758749
 30
0.0
 10
126.479213
 20
203.606081
 30
0.0
 10
126.435556
 20
203.598235
 30
0.0
  0
SPLINE
  5
36e
100
AcDbEntity
  8
0
 62
7
100
AcDbSpline
 70
8
 71
3
 72
8
 73
4
 74
0
 40
0
 40
0
 40
0
 40
0
 40
1
 40
1
 40
1
 40
1
 10
126.435556
 20
203.598235
 30
0.0
 10
123.950911
 20
203.152474
 30
0.0
 10
119.942096
 20
203.748426
 30
0.0
 10
118.215833
 20
204.815319
 30
0.0
  0
SPLINE
  5
36f
100
AcDbEntity
  8
0
 62
7
100
AcDbSpline
 70
8
 71
3
 72
8
 73
4
 74
0
 40
0
 40
0
 40
0
 40
0
 40
1
 40
1
 40
1
 40
1
 10
118.215833
 20
204.815319
 30
0.0
 10
116.447387
 20
205.908278
 30
0.0
 10
114.729350
 20
208.695874
 30
0.0
 10
115.825764
 20
208.695874
 30
0.0
  0
LWPOLYLINE
  5
370
100
AcDbEntity
  8
0
 62
7
100
AcDbPolyline
 90
2
 70
0
 10
145.547292
 20
215.627958
 30
0.0
 10
145.547292
 20
215.627958
 30
0.0
  0
SPLINE
  5
371
100
AcDbEntity
  8
0
 62
7
100
AcDbSpline
 70
8
 71
3
 72
8
 73
4
 74
0
 40
0
 40
0
 40
0
 40
0
 40
1
 40
1
 40
1
 40
1
 10
145.609028
 20
193.773374
 30
0.0
 10
145.733539
 20
193.773374
 30
0.0
 10
145.930332
 20
193.487624
 30
0.0
 10
146.041181
 20
193.138374
 30
0.0
  0
SPLINE
  5
372
100
AcDbEntity
  8
0
 62
7
100
AcDbSpline
 70
8
 71
3
 72
8
 73
4
 74
0
 40
0
 40
0
 40
0
 40
0
 40
1
 40
1
 40
1
 40
1
 10
146.041181
 20
193.138374
 30
0.0
 10
146.152029
 20
192.789124
 30
0.0
 10
146.372213
 20
192.503374
 30
0.0
 10
146.535069
 20
192.503374
 30
0.0
  0
SPLINE
  5
373
100
AcDbEntity
  8
0
 62
7
100
AcDbSpline
 70
8
 71
3
 72
8
 73
4
 74
0
 40
0
 40
0
 40
0
 40
0
 40
1
 40
1
 40
1
 40
1
 10
146.535069
 20
192.503374
 30
0.0
 10
146.986394
 20
192.503374
 30
0.0
 10
146.886645
 20
191.324092
 30
0.0
 10
146.420417
 20
191.145180
 30
0.0
  0
SPLINE
  5
374
100
AcDbEntity
  8
0
 62
7
100
AcDbSpline
 70
8
 71
3
 72
8
 73
4
 74
0
 40
0
 40
0
 40
0
 40
0
 40
1
 40
1
 40
1
 40
1
 10
146.420417
 20
191.145180
 30
0.0
 10
145.830423
 20
190.918781
 30
0.0
 10
145.024218
 20
185.291795
 30
0.0
 10
145.512014
 20
184.803999
 30
0.0
  0
SPLINE
  5
375
100
AcDbEntity
  8
0
 62
7
100
AcDbSpline
 70
8
 71
3
 72
8
 73
4
 74
0
 40
0
 40
0
 40
0
 40
0
 40
1
 40
1
 40
1
 40
1
 10
145.512014
 20
184.803999
 30
0.0
 10
145.712349
 20
184.603664
 30
0.0
 10
145.882431
 20
184.112027
 30
0.0
 10
145.882431
 20
183.710388
 30
0.0
  0
SPLINE
  5
376
100
AcDbEntity
  8
0
 62
7
100
AcDbSpline
 70
8
 71
3
 72
8
 73
4
 74
0
 40
0
 40
0
 40
0
 40
0
 40
1
 40
1
 40
1
 40
1
 10
145.882431
 20
183.710388
 30
0.0
 10
145.882431
 20
183.308752
 30
0.0
 10
145.775274
 20
182.988252
 30
0.0
 10
145.644306
 20
182.996013
 30
0.0
  0
SPLINE
  5
377
100
AcDbEntity
  8
0
 62
7
100
AcDbSpline
 70
8
 71
3
 72
8
 73
4
 74
0
 40
0
 40
0
 40
0
 40
0
 40
1
 40
1
 40
1
 40
1
 10
145.644306
 20
182.996013
 30
0.0
 10
145.513338
 20
183.003777
 30
0.0
 10
144.275878
 20
184.056014
 30
0.0
 10
142.901458
 20
185.341985
 30
0.0
  0
SPLINE
  5
378
100
AcDbEntity
  8
0
 62
7
100
AcDbSpline
 70
8
 71
3
 72
8
 73
4
 74
0
 40
0
 40
0
 40
0
 40
0
 40
1
 40
1
 40
1
 40
1
 10
142.901458
 20
185.341985
 30
0.0
 10
140.611598
 20
187.484481
 30
0.0
 10
140.438926
 20
187.736579
 30
0.0
 10
140.837708
 20
188.296499
 30
0.0
  0
SPLINE
  5
379
100
AcDbEntity
  8
0
 62
7
100
AcDbSpline
 70
8
 71
3
 72
8
 73
4
 74
0
 40
0
 40
0
 40
0
 40
0
 40
1
 40
1
 40
1
 40
1
 10
140.837708
 20
188.296499
 30
0.0
 10
141.792923
 20
189.637695
 30
0.0
 10
145.396757
 20
193.773374
 30
0.0
 10
145.609028
 20
193.773374
 30
0.0
  0
LWPOLYLINE
  5
37a
100
AcDbEntity
  8
0
 62
7
100
AcDbPolyline
 90
2
 70
0
 10
115.825764
 20
208.695874
 30
0.0
 10
115.825764
 20
208.695874
 30
0.0
  0
LWPOLYLINE
  5
37b
100
AcDbEntity
  8
0
 62
7
100
AcDbPolyline
 90
2
 70
0
 10
145.609028
 20
193.773374
 30
0.0
 10
145.609028
 20
193.773374
 30
0.0
  0
SPLINE
  5
37c
100
AcDbEntity
  8
0
 62
7
100
AcDbSpline
 70
8
 71
3
 72
8
 73
4
 74
0
 40
0
 40
0
 40
0
 40
0
 40
1
 40
1
 40
1
 40
1
 10
99.792014
 20
190.245596
 30
0.0
 10
102.657097
 20
187.165375
 30
0.0
 10
102.621927
 20
187.265375
 30
0.0
 10
101.379514
 20
185.932888
 30
0.0
  0
SPLINE
  5
37d
100
AcDbEntity
  8
0
 62
7
100
AcDbSpline
 70
8
 71
3
 72
8
 73
4
 74
0
 40
0
 40
0
 40
0
 40
0
 40
1
 40
1
 40
1
 40
1
 10
101.379514
 20
185.932888
 30
0.0
 10
100.797538
 20
185.308720
 30
0.0
 10
100.000593
 20
184.458796
 30
0.0
 10
99.615625
 20
184.045527
 30
0.0
  0
SPLINE
  5
37e
100
AcDbEntity
  8
0
 62
7
100
AcDbSpline
 70
8
 71
3
 72
8
 73
4
 74
0
 40
0
 40
0
 40
0
 40
0
 40
1
 40
1
 40
1
 40
1
 10
99.615625
 20
184.045527
 30
0.0
 10
98.629560
 20
182.986959
 30
0.0
 10
98.016684
 20
183.062310
 30
0.0
 10
98.186875
 20
184.221916
 30
0.0
  0
SPLINE
  5
37f
100
AcDbEntity
  8
0
 62
7
100
AcDbSpline
 70
8
 71
3
 72
8
 73
4
 74
0
 40
0
 40
0
 40
0
 40
0
 40
1
 40
1
 40
1
 40
1
 10
98.186875
 20
184.221916
 30
0.0
 10
98.337604
 20
185.248869
 30
0.0
 10
97.047383
 20
189.963374
 30
0.0
 10
96.617014
 20
189.963374
 30
0.0
  0
SPLINE
  5
380
100
AcDbEntity
  8
0
 62
7
100
AcDbSpline
 70
8
 71
3
 72
8
 73
4
 74
0
 40
0
 40
0
 40
0
 40
0
 40
1
 40
1
 40
1
 40
1
 10
96.617014
 20
189.963374
 30
0.0
 10
96.157607
 20
189.963374
 30
0.0
 10
96.319862
 20
190.611481
 30
0.0
 10
97.013889
 20
191.586152
 30
0.0
  0
LWPOLYLINE
  5
381
100
AcDbEntity
  8
0
 62
7
100
AcDbPolyline
 90
2
 70
0
 10
97.675347
 20
192.521013
 30
0.0
 10
99.792014
 20
190.245596
 30
0.0
  0
SPLINE
  5
382
100
AcDbEntity
  8
0
 62
7
100
AcDbSpline
 70
8
 71
3
 72
8
 73
4
 74
0
 40
0
 40
0
 40
0
 40
0
 40
1
 40
1
 40
1
 40
1
 10
188.127569
 20
140.433374
 30
0.0
 10
188.883530
 20
140.433374
 30
0.0
 10
189.083047
 20
140.305381
 30
0.0
 10
189.000694
 20
139.877749
 30
0.0
  0
SPLINE
  5
383
100
AcDbEntity
  8
0
 62
7
100
AcDbSpline
 70
8
 71
3
 72
8
 73
4
 74
0
 40
0
 40
0
 40
0
 40
0
 40
1
 40
1
 40
1
 40
1
 10
189.000694
 20
139.877749
 30
0.0
 10
188.869551
 20
139.196784
 30
0.0
 10
188.070329
 20
139.008948
 30
0.0
 10
187.545486
 20
139.533791
 30
0.0
  0
SPLINE
  5
384
100
AcDbEntity
  8
0
 62
7
100
AcDbSpline
 70
8
 71
3
 72
8
 73
4
 74
0
 40
0
 40
0
 40
0
 40
0
 40
1
 40
1
 40
1
 40
1
 10
187.545486
 20
139.533791
 30
0.0
 10
186.915267
 20
140.164010
 30
0.0
 10
187.086562
 20
140.433374
 30
0.0
 10
188.127569
 20
140.433374
 30
0.0
  0
LWPOLYLINE
  5
385
100
AcDbEntity
  8
0
 62
7
100
AcDbPolyline
 90
3
 70
0
 10
97.013889
 20
191.586152
 30
0.0
 10
97.675347
 20
192.521013
 30
0.0
 10
97.675347
 20
192.521013
 30
0.0
  0
LWPOLYLINE
  5
386
100
AcDbEntity
  8
0
 62
7
100
AcDbPolyline
 90
2
 70
0
 10
188.127569
 20
140.433374
 30
0.0
 10
188.127569
 20
140.433374
 30
0.0
  0
ENDSEC
  0
SECTION
  2
OBJECTS
  0
DICTIONARY
  5
C
330
0
100
AcDbDictionary
  3
ACAD_GROUP
350
D
  3
ACAD_MLINESTYLE
350
17
  0
DICTIONARY
  5
D
330
C
100
AcDbDictionary
  0
DICTIONARY
  5
1A
330
C
100
AcDbDictionary
  0
DICTIONARY
  5
17
330
C
100
AcDbDictionary
  3
STANDARD
350
18
  0
DICTIONARY
  5
19
330
C
100
AcDbDictionary
  0
ENDSEC
  0
EOF
