999
dxfrw 0.5.10
0
SECTION
2
HEADER
9
$ACADVER
1
AC1021
9
$HANDSEED
5
20000
9
$DWGCODEPAGE
3
ANSI_1252
9
$INSBASE
10
0
20
0
30
0
9
$EXTMIN
10
2.5
20
2.5
30
0
9
$EXTMAX
10
155
20
155
30
0
9
$LIMMIN
10
0
20
0
9
$LIMMAX
10
420
20
297
9
$ORTHOMODE
70
0
9
$LTSCALE
40
1
9
$TEXTSTYLE
7
STANDARD
9
$CLAYER
8
kaguya
9
$DIMASZ
40
2.5
9
$DIMLFAC
40
1
9
$DIMSCALE
40
1
9
$DIMEXO
40
0.625
9
$DIMEXE
40
1.25
9
$DIMTXT
40
2.5
9
$DIMTSZ
40
0
9
$DIMAUNIT
70
0
9
$DIMADEC
70
0
9
$DIMLUNIT
70
2
9
$DIMSTYLE
2
Standard
9
$DIMGAP
40
0.625
9
$DIMTIH
70
0
9
$LUNITS
70
2
9
$LUPREC
70
4
9
$AUNITS
70
0
9
$AUPREC
70
2
9
$SPLINESEGS
70
8
9
$GRIDMODE
70
0
9
$SNAPSTYLE
70
0
9
$PINSBASE
10
0
20
0
30
0
9
$PLIMMIN
10
0
20
0
9
$PLIMMAX
10
210
20
297
9
$INSUNITS
70
4
9
$PSVPSCALE
40
1
0
ENDSEC
0
SECTION
2
CLASSES
0
ENDSEC
0
SECTION
2
TABLES
0
TABLE
2
VPORT
5
8
330
0
100
AcDbSymbolTable
70
1
0
VPORT
5
31
330
2
100
AcDbSymbolTableRecord
100
AcDbViewportTableRecord
2
*ACTIVE
70
0
10
0
20
0
11
1
21
1
12
169.824185205
22
107.8975986
13
0
23
0
14
10
24
10
15
10
25
10
16
0
26
0
36
1
17
0
27
0
37
0
40
236.963979356
41
2.08533333333
42
50
43
0
44
0
50
0
51
0
71
0
72
100
73
1
74
3
75
0
76
0
77
0
78
0
281
0
65
1
110
0
120
0
130
0
111
1
121
0
131
0
112
0
122
1
132
0
79
0
146
0
348
10020
60
7
61
5
292
1
282
1
141
0
142
0
63
250
421
3358443
0
ENDTAB
0
TABLE
2
LTYPE
5
5
330
0
100
AcDbSymbolTable
70
4
0
LTYPE
5
14
330
5
100
AcDbSymbolTableRecord
100
AcDbLinetypeTableRecord
2
ByBlock
70
0
3

72
65
73
0
40
0
0
LTYPE
5
15
330
5
100
AcDbSymbolTableRecord
100
AcDbLinetypeTableRecord
2
ByLayer
70
0
3

72
65
73
0
40
0
0
LTYPE
5
16
330
5
100
AcDbSymbolTableRecord
100
AcDbLinetypeTableRecord
2
Continuous
70
0
3
Solid line
72
65
73
0
40
0
0
LTYPE
5
32
330
5
100
AcDbSymbolTableRecord
100
AcDbLinetypeTableRecord
2
DOT
70
0
3
Dot . . . . . . . . . . . . . . . . . . . . . .
72
65
73
2
40
6.35
49
0
74
0
49
-6.35
74
0
0
LTYPE
5
33
330
5
100
AcDbSymbolTableRecord
100
AcDbLinetypeTableRecord
2
DOT2
70
0
3
Dot (.5x) .....................................
72
65
73
2
40
3.175
49
0
74
0
49
-3.175
74
0
0
LTYPE
5
34
330
5
100
AcDbSymbolTableRecord
100
AcDbLinetypeTableRecord
2
DOTX2
70
0
3
Dot (2x) .  .  .  .  .  .  .  .  .  .  .  .  .
72
65
73
2
40
12.7
49
0
74
0
49
-12.7
74
0
0
LTYPE
5
35
330
5
100
AcDbSymbolTableRecord
100
AcDbLinetypeTableRecord
2
DASHED
70
0
3
Dot . . . . . . . . . . . . . . . . . . . . . .
72
65
73
2
40
19.05
49
12.7
74
0
49
-6.35
74
0
0
LTYPE
5
36
330
5
100
AcDbSymbolTableRecord
100
AcDbLinetypeTableRecord
2
DASHED2
70
0
3
Dashed (.5x) _ _ _ _ _ _ _ _ _ _ _ _ _ _ _ _ _
72
65
73
2
40
9.525
49
6.35
74
0
49
-3.175
74
0
0
LTYPE
5
37
330
5
100
AcDbSymbolTableRecord
100
AcDbLinetypeTableRecord
2
DASHEDX2
70
0
3
Dashed (2x) ____  ____  ____  ____  ____  ___
72
65
73
2
40
38.1
49
25.4
74
0
49
-12.7
74
0
0
LTYPE
5
38
330
5
100
AcDbSymbolTableRecord
100
AcDbLinetypeTableRecord
2
DASHDOT
70
0
3
Dash dot __ . __ . __ . __ . __ . __ . __ . __
72
65
73
4
40
25.4
49
12.7
74
0
49
-6.35
74
0
49
0
74
0
49
-6.35
74
0
0
LTYPE
5
39
330
5
100
AcDbSymbolTableRecord
100
AcDbLinetypeTableRecord
2
DASHDOT2
70
0
3
Dash dot (.5x) _._._._._._._._._._._._._._._.
72
65
73
4
40
12.7
49
6.35
74
0
49
-3.175
74
0
49
0
74
0
49
-3.175
74
0
0
LTYPE
5
3A
330
5
100
AcDbSymbolTableRecord
100
AcDbLinetypeTableRecord
2
DASHDOTX2
70
0
3
Dash dot (2x) ____  .  ____  .  ____  .  ___
72
65
73
4
40
50.8
49
25.4
74
0
49
-12.7
74
0
49
0
74
0
49
-12.7
74
0
0
LTYPE
5
3B
330
5
100
AcDbSymbolTableRecord
100
AcDbLinetypeTableRecord
2
DIVIDE
70
0
3
Divide ____ . . ____ . . ____ . . ____ . . ____
72
65
73
6
40
31.75
49
12.7
74
0
49
-6.35
74
0
49
0
74
0
49
-6.35
74
0
49
0
74
0
49
-6.35
74
0
0
LTYPE
5
3C
330
5
100
AcDbSymbolTableRecord
100
AcDbLinetypeTableRecord
2
DIVIDE2
70
0
3
Divide (.5x) __..__..__..__..__..__..__..__.._
72
65
73
6
40
15.875
49
6.35
74
0
49
-3.175
74
0
49
0
74
0
49
-3.175
74
0
49
0
74
0
49
-3.175
74
0
0
LTYPE
5
3D
330
5
100
AcDbSymbolTableRecord
100
AcDbLinetypeTableRecord
2
DIVIDEX2
70
0
3
Divide (2x) ________  .  .  ________  .  .  _
72
65
73
6
40
63.5
49
25.4
74
0
49
-12.7
74
0
49
0
74
0
49
-12.7
74
0
49
0
74
0
49
-12.7
74
0
0
LTYPE
5
3E
330
5
100
AcDbSymbolTableRecord
100
AcDbLinetypeTableRecord
2
BORDER
70
0
3
Border __ __ . __ __ . __ __ . __ __ . __ __ .
72
65
73
6
40
44.45
49
12.7
74
0
49
-6.35
74
0
49
12.7
74
0
49
-6.35
74
0
49
0
74
0
49
-6.35
74
0
0
LTYPE
5
3F
330
5
100
AcDbSymbolTableRecord
100
AcDbLinetypeTableRecord
2
BORDER2
70
0
3
Border (.5x) __.__.__.__.__.__.__.__.__.__.__.
72
65
73
6
40
22.225
49
6.35
74
0
49
-3.175
74
0
49
6.35
74
0
49
-3.175
74
0
49
0
74
0
49
-3.175
74
0
0
LTYPE
5
40
330
5
100
AcDbSymbolTableRecord
100
AcDbLinetypeTableRecord
2
BORDERX2
70
0
3
Border (2x) ____  ____  .  ____  ____  .  ___
72
65
73
6
40
88.9
49
25.4
74
0
49
-12.7
74
0
49
25.4
74
0
49
-12.7
74
0
49
0
74
0
49
-12.7
74
0
0
LTYPE
5
41
330
5
100
AcDbSymbolTableRecord
100
AcDbLinetypeTableRecord
2
CENTER
70
0
3
Center ____ _ ____ _ ____ _ ____ _ ____ _ ____
72
65
73
4
40
50.8
49
31.75
74
0
49
-6.35
74
0
49
6.35
74
0
49
-6.35
74
0
0
LTYPE
5
42
330
5
100
AcDbSymbolTableRecord
100
AcDbLinetypeTableRecord
2
CENTER2
70
0
3
Center (.5x) ___ _ ___ _ ___ _ ___ _ ___ _ ___
72
65
73
4
40
28.575
49
19.05
74
0
49
-3.175
74
0
49
3.175
74
0
49
-3.175
74
0
0
LTYPE
5
43
330
5
100
AcDbSymbolTableRecord
100
AcDbLinetypeTableRecord
2
CENTERX2
70
0
3
Center (2x) ________  __  ________  __  _____
72
65
73
4
40
101.6
49
63.5
74
0
49
-12.7
74
0
49
12.7
74
0
49
-12.7
74
0
0
ENDTAB
0
TABLE
2
LAYER
5
2
330
0
100
AcDbSymbolTable
70
1
0
LAYER
5
10
330
2
100
AcDbSymbolTableRecord
100
AcDbLayerTableRecord
2
0
70
0
62
7
6
CONTINUOUS
370
-3
390
F
0
LAYER
5
44
330
2
100
AcDbSymbolTableRecord
100
AcDbLayerTableRecord
2
kaguya
70
0
62
7
6
CONTINUOUS
370
0
390
F
0
ENDTAB
0
TABLE
2
STYLE
5
3
330
0
100
AcDbSymbolTable
70
3
0
STYLE
5
45
330
2
100
AcDbSymbolTableRecord
100
AcDbTextStyleTableRecord
2
Standard
70
0
40
0
41
1
50
0
71
0
42
1
3
txt
4

0
ENDTAB
0
TABLE
2
VIEW
5
6
330
0
100
AcDbSymbolTable
70
0
0
ENDTAB
0
TABLE
2
UCS
5
7
330
0
100
AcDbSymbolTable
70
0
0
ENDTAB
0
TABLE
2
APPID
5
9
330
0
100
AcDbSymbolTable
70
1
0
APPID
5
12
330
9
100
AcDbSymbolTableRecord
100
AcDbRegAppTableRecord
2
ACAD
70
0
0
ENDTAB
0
TABLE
2
DIMSTYLE
5
A
330
0
100
AcDbSymbolTable
70
1
100
AcDbDimStyleTable
71
1
0
DIMSTYLE
105
46
330
A
100
AcDbSymbolTableRecord
100
AcDbDimStyleTableRecord
2
Standard
70
0
40
1
41
2.5
42
0.625
43
0.38
44
1.25
45
0
46
0
47
0
48
0
140
2.5
141
0.09
142
0
143
25.4
144
1
145
0
146
1
147
0.625
148
0
71
0
72
0
73
0
74
1
75
0
76
0
77
0
78
0
79
0
170
0
171
2
172
0
173
0
174
0
175
0
176
0
177
0
178
0
179
0
271
4
272
4
273
2
274
2
275
0
276
0
277
2
278
46
279
0
280
0
281
0
282
0
283
1
284
0
285
0
286
0
288
0
289
3
340
Standard
341

371
-2
372
-2
0
ENDTAB
0
TABLE
2
BLOCK_RECORD
5
1
330
0
100
AcDbSymbolTable
70
2
0
BLOCK_RECORD
5
1F
330
1
100
AcDbSymbolTableRecord
100
AcDbBlockTableRecord
2
*Model_Space
70
0
280
1
281
0
0
BLOCK_RECORD
5
1E
330
1
100
AcDbSymbolTableRecord
100
AcDbBlockTableRecord
2
*Paper_Space
70
0
280
1
281
0
0
ENDTAB
0
ENDSEC
0
SECTION
2
BLOCKS
0
BLOCK
5
20
330
1F
100
AcDbEntity
8
0
100
AcDbBlockBegin
2
*Model_Space
70
0
10
0
20
0
30
0
3
*Model_Space
1

0
ENDBLK
5
21
330
1F
100
AcDbEntity
8
0
100
AcDbBlockEnd
0
BLOCK
5
1C
330
1B
100
AcDbEntity
8
0
100
AcDbBlockBegin
2
*Paper_Space
70
0
10
0
20
0
30
0
3
*Paper_Space
1

0
ENDBLK
5
1D
330
1F
100
AcDbEntity
8
0
100
AcDbBlockEnd
0
ENDSEC
0
SECTION
2
ENTITIES
0
CIRCLE
5
47
100
AcDbEntity
8
0
6
ByLayer
62
256
370
-1
100
AcDbCircle
10
40
20
40
40
37.5
0
SPLINE
5
48
100
AcDbEntity
8
kaguya
6
ByLayer
62
7
370
-1
100
AcDbSpline
210
0
220
0
230
1
70
8
71
3
72
8
73
4
74
0
42
1e-07
43
1e-07
40
0
40
0
40
0
40
0
40
1
40
1
40
1
40
1
10
38.73603136
20
71.18987872
30
0
10
38.53656385
20
71.19028396
30
0
10
38.3349619
20
71.1741727
30
0
10
38.08118761
20
71.14040149
30
0
0
SPLINE
5
49
100
AcDbEntity
8
kaguya
6
ByLayer
62
7
370
-1
100
AcDbSpline
210
0
220
0
230
1
70
8
71
3
72
8
73
4
74
0
42
1e-07
43
1e-07
40
0
40
0
40
0
40
0
40
1
40
1
40
1
40
1
10
38.08118761
20
71.14040149
30
0
10
37.71835855
20
71.0921182
30
0
10
37.40407546
20
71.02646272
30
0
10
37.3826875
20
70.99488073
30
0
0
SPLINE
5
4A
100
AcDbEntity
8
kaguya
6
ByLayer
62
7
370
-1
100
AcDbSpline
210
0
220
0
230
1
70
8
71
3
72
8
73
4
74
0
42
1e-07
43
1e-07
40
0
40
0
40
0
40
0
40
1
40
1
40
1
40
1
10
37.3826875
20
70.99488073
30
0
10
37.36129954
20
70.96329841
30
0
10
37.12962106
20
70.89246094
30
0
10
36.86754364
20
70.83771823
30
0
0
SPLINE
5
4B
100
AcDbEntity
8
kaguya
6
ByLayer
62
7
370
-1
100
AcDbSpline
210
0
220
0
230
1
70
8
71
3
72
8
73
4
74
0
42
1e-07
43
1e-07
40
0
40
0
40
0
40
0
40
1
40
1
40
1
40
1
10
36.86754364
20
70.83771823
30
0
10
36.60546655
20
70.78297552
30
0
10
36.35122729
20
70.69896907
30
0
10
36.30292288
20
70.65145138
30
0
0
SPLINE
5
4C
100
AcDbEntity
8
kaguya
6
ByLayer
62
7
370
-1
100
AcDbSpline
210
0
220
0
230
1
70
8
71
3
72
8
73
4
74
0
42
1e-07
43
1e-07
40
0
40
0
40
0
40
0
40
1
40
1
40
1
40
1
10
36.30292288
20
70.65145138
30
0
10
36.25461847
20
70.60393402
30
0
10
36.07078801
20
70.50868546
30
0
10
35.89546462
20
70.43899111
30
0
0
SPLINE
5
4D
100
AcDbEntity
8
kaguya
6
ByLayer
62
7
370
-1
100
AcDbSpline
210
0
220
0
230
1
70
8
71
3
72
8
73
4
74
0
42
1e-07
43
1e-07
40
0
40
0
40
0
40
0
40
1
40
1
40
1
40
1
10
35.89546462
20
70.43899111
30
0
10
35.72014024
20
70.36929676
30
0
10
35.51733016
20
70.25843623
30
0
10
35.44435
20
70.19451622
30
0
0
SPLINE
5
4E
100
AcDbEntity
8
kaguya
6
ByLayer
62
7
370
-1
100
AcDbSpline
210
0
220
0
230
1
70
8
71
3
72
8
73
4
74
0
42
1e-07
43
1e-07
40
0
40
0
40
0
40
0
40
1
40
1
40
1
40
1
10
35.44435
20
70.19451622
30
0
10
35.37136885
20
70.13059588
30
0
10
35.15197462
20
69.94021162
30
0
10
34.95539989
20
69.76959535
30
0
0
SPLINE
5
4F
100
AcDbEntity
8
kaguya
6
ByLayer
62
7
370
-1
100
AcDbSpline
210
0
220
0
230
1
70
8
71
3
72
8
73
4
74
0
42
1e-07
43
1e-07
40
0
40
0
40
0
40
0
40
1
40
1
40
1
40
1
10
34.95539989
20
69.76959535
30
0
10
34.75882549
20
69.59897908
30
0
10
34.59741886
20
69.41633134
30
0
10
34.59741886
20
69.36504736
30
0
0
SPLINE
5
50
100
AcDbEntity
8
kaguya
6
ByLayer
62
7
370
-1
100
AcDbSpline
210
0
220
0
230
1
70
8
71
3
72
8
73
4
74
0
42
1e-07
43
1e-07
40
0
40
0
40
0
40
0
40
1
40
1
40
1
40
1
10
34.59741886
20
69.36504736
30
0
10
34.59741886
20
69.31376338
30
0
10
34.55246527
20
69.25480063
30
0
10
34.49846473
20
69.23407861
30
0
0
SPLINE
5
51
100
AcDbEntity
8
kaguya
6
ByLayer
62
7
370
-1
100
AcDbSpline
210
0
220
0
230
1
70
8
71
3
72
8
73
4
74
0
42
1e-07
43
1e-07
40
0
40
0
40
0
40
0
40
1
40
1
40
1
40
1
10
34.49846473
20
69.23407861
30
0
10
34.4444632
20
69.21335626
30
0
10
34.35372871
20
69.05767315
30
0
10
34.29764587
20
68.88773899
30
0
0
SPLINE
5
52
100
AcDbEntity
8
kaguya
6
ByLayer
62
7
370
-1
100
AcDbSpline
210
0
220
0
230
1
70
8
71
3
72
8
73
4
74
0
42
1e-07
43
1e-07
40
0
40
0
40
0
40
0
40
1
40
1
40
1
40
1
10
34.29764587
20
68.88773899
30
0
10
34.2415627
20
68.7178045
30
0
10
34.17191785
20
68.57923486
30
0
10
34.14048337
20
68.57923486
30
0
0
SPLINE
5
53
100
AcDbEntity
8
kaguya
6
ByLayer
62
7
370
-1
100
AcDbSpline
210
0
220
0
230
1
70
8
71
3
72
8
73
4
74
0
42
1e-07
43
1e-07
40
0
40
0
40
0
40
0
40
1
40
1
40
1
40
1
10
34.14048337
20
68.57923486
30
0
10
34.10904889
20
68.57923486
30
0
10
34.02281131
20
68.40068506
30
0
10
33.95130625
20
68.18341801
30
0
0
SPLINE
5
54
100
AcDbEntity
8
kaguya
6
ByLayer
62
7
370
-1
100
AcDbSpline
210
0
220
0
230
1
70
8
71
3
72
8
73
4
74
0
42
1e-07
43
1e-07
40
0
40
0
40
0
40
0
40
1
40
1
40
1
40
1
10
33.95130625
20
68.18341801
30
0
10
33.87980218
20
67.96615129
30
0
10
33.79936303
20
67.77336859
30
0
10
33.77086027
20
67.7526766
30
0
0
SPLINE
5
55
100
AcDbEntity
8
kaguya
6
ByLayer
62
7
370
-1
100
AcDbSpline
210
0
220
0
230
1
70
8
71
3
72
8
73
4
74
0
42
1e-07
43
1e-07
40
0
40
0
40
0
40
0
40
1
40
1
40
1
40
1
10
33.77086027
20
67.7526766
30
0
10
33.67548433
20
67.68343699
30
0
10
33.55279528
20
67.22845477
30
0
10
33.50019163
20
66.7544035
30
0
0
SPLINE
5
56
100
AcDbEntity
8
kaguya
6
ByLayer
62
7
370
-1
100
AcDbSpline
210
0
220
0
230
1
70
8
71
3
72
8
73
4
74
0
42
1e-07
43
1e-07
40
0
40
0
40
0
40
0
40
1
40
1
40
1
40
1
10
33.50019163
20
66.7544035
30
0
10
33.47153641
20
66.49616794
30
0
10
33.41712139
20
66.26581672
30
0
10
33.38086462
20
66.24217024
30
0
0
SPLINE
5
57
100
AcDbEntity
8
kaguya
6
ByLayer
62
7
370
-1
100
AcDbSpline
210
0
220
0
230
1
70
8
71
3
72
8
73
4
74
0
42
1e-07
43
1e-07
40
0
40
0
40
0
40
0
40
1
40
1
40
1
40
1
10
33.38086462
20
66.24217024
30
0
10
33.34460686
20
66.21852376
30
0
10
33.30118513
20
65.08447282
30
0
10
33.28482076
20
63.72174937
30
0
0
SPLINE
5
58
100
AcDbEntity
8
kaguya
6
ByLayer
62
7
370
-1
100
AcDbSpline
210
0
220
0
230
1
70
8
71
3
72
8
73
4
74
0
42
1e-07
43
1e-07
40
0
40
0
40
0
40
0
40
1
40
1
40
1
40
1
10
33.28482076
20
63.72174937
30
0
10
33.25459441
20
61.20459484
30
0
10
33.12761635
20
59.00581738
30
0
10
33.00833125
20
58.96030774
30
0
0
SPLINE
5
59
100
AcDbEntity
8
kaguya
6
ByLayer
62
7
370
-1
100
AcDbSpline
210
0
220
0
230
1
70
8
71
3
72
8
73
4
74
0
42
1e-07
43
1e-07
40
0
40
0
40
0
40
0
40
1
40
1
40
1
40
1
10
33.00833125
20
58.96030774
30
0
10
32.97217414
20
58.94651275
30
0
10
32.94139174
20
58.82104543
30
0
10
32.94139174
20
58.68090763
30
0
0
SPLINE
5
5A
100
AcDbEntity
8
kaguya
6
ByLayer
62
7
370
-1
100
AcDbSpline
210
0
220
0
230
1
70
8
71
3
72
8
73
4
74
0
42
1e-07
43
1e-07
40
0
40
0
40
0
40
0
40
1
40
1
40
1
40
1
10
32.94139174
20
58.68090763
30
0
10
32.94139174
20
58.45268359
30
0
10
32.70977827
20
57.9166603
30
0
10
32.56885837
20
57.81942448
30
0
0
SPLINE
5
5B
100
AcDbEntity
8
kaguya
6
ByLayer
62
7
370
-1
100
AcDbSpline
210
0
220
0
230
1
70
8
71
3
72
8
73
4
74
0
42
1e-07
43
1e-07
40
0
40
0
40
0
40
0
40
1
40
1
40
1
40
1
10
32.56885837
20
57.81942448
30
0
10
32.4870715
20
57.76299118
30
0
10
32.26326451
20
57.06480985
30
0
10
32.26326451
20
56.86480774
30
0
0
SPLINE
5
5C
100
AcDbEntity
8
kaguya
6
ByLayer
62
7
370
-1
100
AcDbSpline
210
0
220
0
230
1
70
8
71
3
72
8
73
4
74
0
42
1e-07
43
1e-07
40
0
40
0
40
0
40
0
40
1
40
1
40
1
40
1
10
32.26326451
20
56.86480774
30
0
10
32.26326451
20
56.76871933
30
0
10
32.23573525
20
56.69018263
30
0
10
32.20214587
20
56.69018263
30
0
0
SPLINE
5
5D
100
AcDbEntity
8
kaguya
6
ByLayer
62
7
370
-1
100
AcDbSpline
210
0
220
0
230
1
70
8
71
3
72
8
73
4
74
0
42
1e-07
43
1e-07
40
0
40
0
40
0
40
0
40
1
40
1
40
1
40
1
10
32.20214587
20
56.69018263
30
0
10
32.16855649
20
56.69018263
30
0
10
32.07986272
20
56.35313614
30
0
10
32.00423761
20
55.93929535
30
0
0
SPLINE
5
5E
100
AcDbEntity
8
kaguya
6
ByLayer
62
7
370
-1
100
AcDbSpline
210
0
220
0
230
1
70
8
71
3
72
8
73
4
74
0
42
1e-07
43
1e-07
40
0
40
0
40
0
40
0
40
1
40
1
40
1
40
1
10
32.00423761
20
55.93929535
30
0
10
31.92861217
20
55.52545357
30
0
10
31.84562311
20
55.18549747
30
0
10
31.81797076
20
55.18549747
30
0
0
SPLINE
5
5F
100
AcDbEntity
8
kaguya
6
ByLayer
62
7
370
-1
100
AcDbSpline
210
0
220
0
230
1
70
8
71
3
72
8
73
4
74
0
42
1e-07
43
1e-07
40
0
40
0
40
0
40
0
40
1
40
1
40
1
40
1
10
31.81797076
20
55.18549747
30
0
10
31.7903194
20
55.18549747
30
0
10
31.70283376
20
54.94128493
30
0
10
31.62588337
20
54.64124926
30
0
0
SPLINE
5
60
100
AcDbEntity
8
kaguya
6
ByLayer
62
7
370
-1
100
AcDbSpline
210
0
220
0
230
1
70
8
71
3
72
8
73
4
74
0
42
1e-07
43
1e-07
40
0
40
0
40
0
40
0
40
1
40
1
40
1
40
1
10
31.62588337
20
54.64124926
30
0
10
31.54893364
20
54.34121491
30
0
10
31.45595449
20
54.07494286
30
0
10
31.41924364
20
54.05043475
30
0
0
SPLINE
5
61
100
AcDbEntity
8
kaguya
6
ByLayer
62
7
370
-1
100
AcDbSpline
210
0
220
0
230
1
70
8
71
3
72
8
73
4
74
0
42
1e-07
43
1e-07
40
0
40
0
40
0
40
0
40
1
40
1
40
1
40
1
10
31.41924364
20
54.05043475
30
0
10
31.38253213
20
54.02592499
30
0
10
31.30263352
20
53.80597273
30
0
10
31.23879799
20
53.56148497
30
0
0
SPLINE
5
62
100
AcDbEntity
8
kaguya
6
ByLayer
62
7
370
-1
100
AcDbSpline
210
0
220
0
230
1
70
8
71
3
72
8
73
4
74
0
42
1e-07
43
1e-07
40
0
40
0
40
0
40
0
40
1
40
1
40
1
40
1
10
31.23879799
20
53.56148497
30
0
10
31.1749618
20
53.31699589
30
0
10
31.09766788
20
53.09904805
30
0
10
31.06708348
20
53.07835573
30
0
0
SPLINE
5
63
100
AcDbEntity
8
kaguya
6
ByLayer
62
7
370
-1
100
AcDbSpline
210
0
220
0
230
1
70
8
71
3
72
8
73
4
74
0
42
1e-07
43
1e-07
40
0
40
0
40
0
40
0
40
1
40
1
40
1
40
1
10
31.06708348
20
53.07835573
30
0
10
31.03649974
20
53.05766341
30
0
10
30.96976384
20
52.89625678
30
0
10
30.92156239
20
52.72037437
30
0
0
SPLINE
5
64
100
AcDbEntity
8
kaguya
6
ByLayer
62
7
370
-1
100
AcDbSpline
210
0
220
0
230
1
70
8
71
3
72
8
73
4
74
0
42
1e-07
43
1e-07
40
0
40
0
40
0
40
0
40
1
40
1
40
1
40
1
10
30.74693761
20
52.08299323
30
0
10
30.69873616
20
51.90711082
30
0
10
30.63477919
20
51.74570419
30
0
10
30.60432712
20
51.72501187
30
0
0
SPLINE
5
65
100
AcDbEntity
8
kaguya
6
ByLayer
62
7
370
-1
100
AcDbSpline
210
0
220
0
230
1
70
8
71
3
72
8
73
4
74
0
42
1e-07
43
1e-07
40
0
40
0
40
0
40
0
40
1
40
1
40
1
40
1
10
30.60432712
20
51.72501187
30
0
10
30.57387472
20
51.70431955
30
0
10
30.49300888
20
51.49148374
30
0
10
30.42388114
20
51.25352437
30
0
0
SPLINE
5
66
100
AcDbEntity
8
kaguya
6
ByLayer
62
7
370
-1
100
AcDbSpline
210
0
220
0
230
1
70
8
71
3
72
8
73
4
74
0
42
1e-07
43
1e-07
40
0
40
0
40
0
40
0
40
1
40
1
40
1
40
1
10
30.42388114
20
51.25352437
30
0
10
30.35475373
20
51.01556599
30
0
10
30.27496435
20
50.82278263
30
0
10
30.24634576
20
50.82278263
30
0
0
SPLINE
5
67
100
AcDbEntity
8
kaguya
6
ByLayer
62
7
370
-1
100
AcDbSpline
210
0
220
0
230
1
70
8
71
3
72
8
73
4
74
0
42
1e-07
43
1e-07
40
0
40
0
40
0
40
0
40
1
40
1
40
1
40
1
10
30.24634576
20
50.82278263
30
0
10
30.2177275
20
50.82278263
30
0
10
30.12819058
20
50.59280299
30
0
10
30.0484375
20
50.31345997
30
0
0
SPLINE
5
68
100
AcDbEntity
8
kaguya
6
ByLayer
62
7
370
-1
100
AcDbSpline
210
0
220
0
230
1
70
8
71
3
72
8
73
4
74
0
42
1e-07
43
1e-07
40
0
40
0
40
0
40
0
40
1
40
1
40
1
40
1
10
30.0484375
20
50.31345997
30
0
10
29.96868475
20
50.03411662
30
0
10
29.86314646
20
49.76482441
30
0
10
29.81269375
20
49.71391399
30
0
0
SPLINE
5
69
100
AcDbEntity
8
kaguya
6
ByLayer
62
7
370
-1
100
AcDbSpline
210
0
220
0
230
1
70
8
71
3
72
8
73
4
74
0
42
1e-07
43
1e-07
40
0
40
0
40
0
40
0
40
1
40
1
40
1
40
1
10
29.81269375
20
49.71391399
30
0
10
29.76224104
20
49.66300456
30
0
10
29.69832763
20
49.48527448
30
0
10
29.67008326
20
49.31809747
30
0
0
SPLINE
5
6A
100
AcDbEntity
8
kaguya
6
ByLayer
62
7
370
-1
100
AcDbSpline
210
0
220
0
230
1
70
8
71
3
72
8
73
4
74
0
42
1e-07
43
1e-07
40
0
40
0
40
0
40
0
40
1
40
1
40
1
40
1
10
29.67008326
20
49.31809747
30
0
10
29.64183889
20
49.15092013
30
0
10
29.57739616
20
48.97027978
30
0
10
29.52747277
20
48.91937035
30
0
0
SPLINE
5
6B
100
AcDbEntity
8
kaguya
6
ByLayer
62
7
370
-1
100
AcDbSpline
210
0
220
0
230
1
70
8
71
3
72
8
73
4
74
0
42
1e-07
43
1e-07
40
0
40
0
40
0
40
0
40
1
40
1
40
1
40
1
10
29.52747277
20
48.91937035
30
0
10
29.47754971
20
48.86845993
30
0
10
29.37476527
20
48.63345373
30
0
10
29.30046049
20
48.39549535
30
0
0
SPLINE
5
6C
100
AcDbEntity
8
kaguya
6
ByLayer
62
7
370
-1
100
AcDbSpline
210
0
220
0
230
1
70
8
71
3
72
8
73
4
74
0
42
1e-07
43
1e-07
40
0
40
0
40
0
40
0
40
1
40
1
40
1
40
1
10
29.30046049
20
48.39549535
30
0
10
29.22615538
20
48.15753598
30
0
10
29.14429063
20
47.96212252
30
0
10
29.11710424
20
47.96184301
30
0
0
SPLINE
5
6D
100
AcDbEntity
8
kaguya
6
ByLayer
62
7
370
-1
100
AcDbSpline
210
0
220
0
230
1
70
8
71
3
72
8
73
4
74
0
42
1e-07
43
1e-07
40
0
40
0
40
0
40
0
40
1
40
1
40
1
40
1
10
29.11710424
20
47.96184301
30
0
10
29.02624831
20
47.96076358
30
0
10
28.87844989
20
47.55761842
30
0
10
28.87844989
20
47.30990986
30
0
0
SPLINE
5
6E
100
AcDbEntity
8
kaguya
6
ByLayer
62
7
370
-1
100
AcDbSpline
210
0
220
0
230
1
70
8
71
3
72
8
73
4
74
0
42
1e-07
43
1e-07
40
0
40
0
40
0
40
0
40
1
40
1
40
1
40
1
10
28.87844989
20
47.30990986
30
0
10
28.87844989
20
47.04330715
30
0
10
28.74073363
20
46.68417013
30
0
10
28.63979587
20
46.68417013
30
0
0
SPLINE
5
6F
100
AcDbEntity
8
kaguya
6
ByLayer
62
7
370
-1
100
AcDbSpline
210
0
220
0
230
1
70
8
71
3
72
8
73
4
74
0
42
1e-07
43
1e-07
40
0
40
0
40
0
40
0
40
1
40
1
40
1
40
1
10
28.63979587
20
46.68417013
30
0
10
28.60505446
20
46.68417013
30
0
10
28.57867723
20
46.5828169
30
0
10
28.57867723
20
46.46006812
30
0
0
SPLINE
5
70
100
AcDbEntity
8
kaguya
6
ByLayer
62
7
370
-1
100
AcDbSpline
210
0
220
0
230
1
70
8
71
3
72
8
73
4
74
0
42
1e-07
43
1e-07
40
0
40
0
40
0
40
0
40
1
40
1
40
1
40
1
10
28.57867723
20
46.46006812
30
0
10
28.57867723
20
46.23635155
30
0
10
28.36442902
20
45.68930692
30
0
10
28.25853136
20
45.642241
30
0
0
SPLINE
5
71
100
AcDbEntity
8
kaguya
6
ByLayer
62
7
370
-1
100
AcDbSpline
210
0
220
0
230
1
70
8
71
3
72
8
73
4
74
0
42
1e-07
43
1e-07
40
0
40
0
40
0
40
0
40
1
40
1
40
1
40
1
10
28.25853136
20
45.642241
30
0
10
28.22749321
20
45.62844601
30
0
10
28.20055564
20
45.51135244
30
0
10
28.20032299
20
45.3803035
30
0
0
SPLINE
5
72
100
AcDbEntity
8
kaguya
6
ByLayer
62
7
370
-1
100
AcDbSpline
210
0
220
0
230
1
70
8
71
3
72
8
73
4
74
0
42
1e-07
43
1e-07
40
0
40
0
40
0
40
0
40
1
40
1
40
1
40
1
10
28.20032299
20
45.3803035
30
0
10
28.19975968
20
45.06044935
30
0
10
28.06543285
20
44.5939927
30
0
10
27.9529375
20
44.52173062
30
0
0
SPLINE
5
73
100
AcDbEntity
8
kaguya
6
ByLayer
62
7
370
-1
100
AcDbSpline
210
0
220
0
230
1
70
8
71
3
72
8
73
4
74
0
42
1e-07
43
1e-07
40
0
40
0
40
0
40
0
40
1
40
1
40
1
40
1
10
27.9529375
20
44.52173062
30
0
10
27.90283657
20
44.48954836
30
0
10
27.7977682
20
44.34642934
30
0
10
27.71719375
20
44.20158475
30
0
0
SPLINE
5
74
100
AcDbEntity
8
kaguya
6
ByLayer
62
7
370
-1
100
AcDbSpline
210
0
220
0
230
1
70
8
71
3
72
8
73
4
74
0
42
1e-07
43
1e-07
40
0
40
0
40
0
40
0
40
1
40
1
40
1
40
1
10
27.71719375
20
44.20158475
30
0
10
27.6366193
20
44.05674016
30
0
10
27.49235617
20
43.87537315
30
0
10
27.39704788
20
43.79994736
30
0
0
SPLINE
5
75
100
AcDbEntity
8
kaguya
6
ByLayer
62
7
370
-1
100
AcDbSpline
210
0
220
0
230
1
70
8
71
3
72
8
73
4
74
0
42
1e-07
43
1e-07
40
0
40
0
40
0
40
0
40
1
40
1
40
1
40
1
10
27.39704788
20
43.79994736
30
0
10
27.30173959
20
43.72452157
30
0
10
27.22242277
20
43.63295185
30
0
10
27.22242277
20
43.59621823
30
0
0
SPLINE
5
76
100
AcDbEntity
8
kaguya
6
ByLayer
62
7
370
-1
100
AcDbSpline
210
0
220
0
230
1
70
8
71
3
72
8
73
4
74
0
42
1e-07
43
1e-07
40
0
40
0
40
0
40
0
40
1
40
1
40
1
40
1
10
27.22242277
20
43.59621823
30
0
10
27.22242277
20
43.50539068
30
0
10
26.55897295
20
42.83882632
30
0
10
26.30273125
20
42.67361611
30
0
0
SPLINE
5
77
100
AcDbEntity
8
kaguya
6
ByLayer
62
7
370
-1
100
AcDbSpline
210
0
220
0
230
1
70
8
71
3
72
8
73
4
74
0
42
1e-07
43
1e-07
40
0
40
0
40
0
40
0
40
1
40
1
40
1
40
1
10
26.30273125
20
42.67361611
30
0
10
26.04545104
20
42.50773534
30
0
10
26.04012319
20
42.41208748
30
0
10
26.28526864
20
42.35055997
30
0
0
SPLINE
5
78
100
AcDbEntity
8
kaguya
6
ByLayer
62
7
370
-1
100
AcDbSpline
210
0
220
0
230
1
70
8
71
3
72
8
73
4
74
0
42
1e-07
43
1e-07
40
0
40
0
40
0
40
0
40
1
40
1
40
1
40
1
10
26.28526864
20
42.35055997
30
0
10
26.48189815
20
42.30120847
30
0
10
26.90495386
20
42.42835879
30
0
10
27.03615625
20
42.57757225
30
0
0
SPLINE
5
79
100
AcDbEntity
8
kaguya
6
ByLayer
62
7
370
-1
100
AcDbSpline
210
0
220
0
230
1
70
8
71
3
72
8
73
4
74
0
42
1e-07
43
1e-07
40
0
40
0
40
0
40
0
40
1
40
1
40
1
40
1
10
27.03615625
20
42.57757225
30
0
10
27.07754056
20
42.62463718
30
0
10
27.24606331
20
42.74548615
30
0
10
27.41159989
20
42.84533062
30
0
0
SPLINE
5
7A
100
AcDbEntity
8
kaguya
6
ByLayer
62
7
370
-1
100
AcDbSpline
210
0
220
0
230
1
70
8
71
3
72
8
73
4
74
0
42
1e-07
43
1e-07
40
0
40
0
40
0
40
0
40
1
40
1
40
1
40
1
10
27.41159989
20
42.84533062
30
0
10
27.5771368
20
42.94517509
30
0
10
27.75625024
20
43.0882522
30
0
10
27.81032701
20
43.16256622
30
0
0
SPLINE
5
7B
100
AcDbEntity
8
kaguya
6
ByLayer
62
7
370
-1
100
AcDbSpline
210
0
220
0
230
1
70
8
71
3
72
8
73
4
74
0
42
1e-07
43
1e-07
40
0
40
0
40
0
40
0
40
1
40
1
40
1
40
1
10
27.81032701
20
43.16256622
30
0
10
27.95247121
20
43.35790477
30
0
10
28.11603439
20
43.32709432
30
0
10
28.17412924
20
43.09562638
30
0
0
SPLINE
5
7C
100
AcDbEntity
8
kaguya
6
ByLayer
62
7
370
-1
100
AcDbSpline
210
0
220
0
230
1
70
8
71
3
72
8
73
4
74
0
42
1e-07
43
1e-07
40
0
40
0
40
0
40
0
40
1
40
1
40
1
40
1
10
28.17412924
20
43.09562638
30
0
10
28.20182152
20
42.98528857
30
0
10
28.2020677
20
42.32542948
30
0
10
28.17703951
20
41.62877638
30
0
0
SPLINE
5
7D
100
AcDbEntity
8
kaguya
6
ByLayer
62
7
370
-1
100
AcDbSpline
210
0
220
0
230
1
70
8
71
3
72
8
73
4
74
0
42
1e-07
43
1e-07
40
0
40
0
40
0
40
0
40
1
40
1
40
1
40
1
10
28.17703951
20
41.62877638
30
0
10
28.13012704
20
40.32296902
30
0
10
28.1410309
20
40.28498635
30
0
10
28.43315614
20
40.44132649
30
0
0
SPLINE
5
7E
100
AcDbEntity
8
kaguya
6
ByLayer
62
7
370
-1
100
AcDbSpline
210
0
220
0
230
1
70
8
71
3
72
8
73
4
74
0
42
1e-07
43
1e-07
40
0
40
0
40
0
40
0
40
1
40
1
40
1
40
1
10
28.43315614
20
40.44132649
30
0
10
28.55488852
20
40.50647608
30
0
10
28.57867723
20
40.49373907
30
0
10
28.57867723
20
40.36565551
30
0
0
SPLINE
5
7F
100
AcDbEntity
8
kaguya
6
ByLayer
62
7
370
-1
100
AcDbSpline
210
0
220
0
230
1
70
8
71
3
72
8
73
4
74
0
42
1e-07
43
1e-07
40
0
40
0
40
0
40
0
40
1
40
1
40
1
40
1
10
28.57867723
20
40.36565551
30
0
10
28.57867723
20
40.28143159
30
0
10
28.60507492
20
40.21140361
30
0
10
28.63979587
20
40.21140361
30
0
0
SPLINE
5
80
100
AcDbEntity
8
kaguya
6
ByLayer
62
7
370
-1
100
AcDbSpline
210
0
220
0
230
1
70
8
71
3
72
8
73
4
74
0
42
1e-07
43
1e-07
40
0
40
0
40
0
40
0
40
1
40
1
40
1
40
1
10
28.63979587
20
40.21140361
30
0
10
28.67451649
20
40.21140361
30
0
10
28.74480781
20
39.91576024
30
0
10
28.79404777
20
39.55364926
30
0
0
SPLINE
5
81
100
AcDbEntity
8
kaguya
6
ByLayer
62
7
370
-1
100
AcDbSpline
210
0
220
0
230
1
70
8
71
3
72
8
73
4
74
0
42
1e-07
43
1e-07
40
0
40
0
40
0
40
0
40
1
40
1
40
1
40
1
10
28.79404777
20
39.55364926
30
0
10
29.00762938
20
37.9829773
30
0
10
29.05089865
20
37.72881823
30
0
10
29.10837277
20
37.72881823
30
0
0
SPLINE
5
82
100
AcDbEntity
8
kaguya
6
ByLayer
62
7
370
-1
100
AcDbSpline
210
0
220
0
230
1
70
8
71
3
72
8
73
4
74
0
42
1e-07
43
1e-07
40
0
40
0
40
0
40
0
40
1
40
1
40
1
40
1
10
29.10837277
20
37.72881823
30
0
10
29.14181959
20
37.72881823
30
0
10
29.17955047
20
37.65312778
30
0
10
29.19277489
20
37.56001399
30
0
0
SPLINE
5
83
100
AcDbEntity
8
kaguya
6
ByLayer
62
7
370
-1
100
AcDbSpline
210
0
220
0
230
1
70
8
71
3
72
8
73
4
74
0
42
1e-07
43
1e-07
40
0
40
0
40
0
40
0
40
1
40
1
40
1
40
1
10
29.19277489
20
37.56001399
30
0
10
29.20599931
20
37.46689921
30
0
10
29.29465843
20
37.35639013
30
0
10
29.38777288
20
37.3155391
30
0
0
SPLINE
5
84
100
AcDbEntity
8
kaguya
6
ByLayer
62
7
370
-1
100
AcDbSpline
210
0
220
0
230
1
70
8
71
3
72
8
73
4
74
0
42
1e-07
43
1e-07
40
0
40
0
40
0
40
0
40
1
40
1
40
1
40
1
10
29.38777288
20
37.3155391
30
0
10
29.48088733
20
37.27468708
30
0
10
29.55657712
20
37.21614046
30
0
10
29.55657712
20
37.18457035
30
0
0
SPLINE
5
85
100
AcDbEntity
8
kaguya
6
ByLayer
62
7
370
-1
100
AcDbSpline
210
0
220
0
230
1
70
8
71
3
72
8
73
4
74
0
42
1e-07
43
1e-07
40
0
40
0
40
0
40
0
40
1
40
1
40
1
40
1
10
29.55657712
20
37.18457035
30
0
10
29.55657712
20
37.15299892
30
0
10
29.77653004
20
37.12636198
30
0
10
30.04552723
20
37.12636198
30
0
0
SPLINE
5
86
100
AcDbEntity
8
kaguya
6
ByLayer
62
7
370
-1
100
AcDbSpline
210
0
220
0
230
1
70
8
71
3
72
8
73
4
74
0
42
1e-07
43
1e-07
40
0
40
0
40
0
40
0
40
1
40
1
40
1
40
1
10
30.04552723
20
37.12636198
30
0
10
30.5984056
20
37.12636198
30
0
10
30.6960295
20
37.19027374
30
0
10
30.99432277
20
37.73754937
30
0
0
SPLINE
5
87
100
AcDbEntity
8
kaguya
6
ByLayer
62
7
370
-1
100
AcDbSpline
210
0
220
0
230
1
70
8
71
3
72
8
73
4
74
0
42
1e-07
43
1e-07
40
0
40
0
40
0
40
0
40
1
40
1
40
1
40
1
10
30.99432277
20
37.73754937
30
0
10
31.09348315
20
37.91947804
30
0
10
31.21617187
20
38.09445031
30
0
10
31.26790201
20
38.12754535
30
0
0
SPLINE
5
88
100
AcDbEntity
8
kaguya
6
ByLayer
62
7
370
-1
100
AcDbSpline
210
0
220
0
230
1
70
8
71
3
72
8
73
4
74
0
42
1e-07
43
1e-07
40
0
40
0
40
0
40
0
40
1
40
1
40
1
40
1
10
31.26790201
20
38.12754535
30
0
10
31.31963215
20
38.16063907
30
0
10
31.36103527
20
38.23632952
30
0
10
31.36103527
20
38.29634926
30
0
0
SPLINE
5
89
100
AcDbEntity
8
kaguya
6
ByLayer
62
7
370
-1
100
AcDbSpline
210
0
220
0
230
1
70
8
71
3
72
8
73
4
74
0
42
1e-07
43
1e-07
40
0
40
0
40
0
40
0
40
1
40
1
40
1
40
1
10
31.36103527
20
38.29634926
30
0
10
31.36103527
20
38.35636933
30
0
10
31.41958189
20
38.46763741
30
0
10
31.49200402
20
38.54082448
30
0
0
SPLINE
5
8A
100
AcDbEntity
8
kaguya
6
ByLayer
62
7
370
-1
100
AcDbSpline
210
0
220
0
230
1
70
8
71
3
72
8
73
4
74
0
42
1e-07
43
1e-07
40
0
40
0
40
0
40
0
40
1
40
1
40
1
40
1
10
31.49200402
20
38.54082448
30
0
10
31.56442648
20
38.61401122
30
0
10
31.69154611
20
38.81438491
30
0
10
31.77431473
20
38.9890285
30
0
0
SPLINE
5
8B
100
AcDbEntity
8
kaguya
6
ByLayer
62
7
370
-1
100
AcDbSpline
210
0
220
0
230
1
70
8
71
3
72
8
73
4
74
0
42
1e-07
43
1e-07
40
0
40
0
40
0
40
0
40
1
40
1
40
1
40
1
10
31.77431473
20
38.9890285
30
0
10
31.85708302
20
39.1636711
30
0
10
31.94680771
20
39.30870874
30
0
10
31.97222299
20
39.30917437
30
0
0
SPLINE
5
8C
100
AcDbEntity
8
kaguya
6
ByLayer
62
7
370
-1
100
AcDbSpline
210
0
220
0
230
1
70
8
71
3
72
8
73
4
74
0
42
1e-07
43
1e-07
40
0
40
0
40
0
40
0
40
1
40
1
40
1
40
1
10
31.97222299
20
39.30917437
30
0
10
31.99763893
20
39.30964924
30
0
10
32.0757265
20
39.46055428
30
0
10
32.14684777
20
39.64678285
30
0
0
SPLINE
5
8D
100
AcDbEntity
8
kaguya
6
ByLayer
62
7
370
-1
100
AcDbSpline
210
0
220
0
230
1
70
8
71
3
72
8
73
4
74
0
42
1e-07
43
1e-07
40
0
40
0
40
0
40
0
40
1
40
1
40
1
40
1
10
32.14684777
20
39.64678285
30
0
10
32.21796904
20
39.83301109
30
0
10
32.3031097
20
39.9873016
30
0
10
32.33602489
20
39.9873016
30
0
0
SPLINE
5
8E
100
AcDbEntity
8
kaguya
6
ByLayer
62
7
370
-1
100
AcDbSpline
210
0
220
0
230
1
70
8
71
3
72
8
73
4
74
0
42
1e-07
43
1e-07
40
0
40
0
40
0
40
0
40
1
40
1
40
1
40
1
10
32.33602489
20
39.9873016
30
0
10
32.36894107
20
39.9873016
30
0
10
32.47308742
20
40.19011135
30
0
10
32.56594777
20
40.43841622
30
0
0
SPLINE
5
8F
100
AcDbEntity
8
kaguya
6
ByLayer
62
7
370
-1
100
AcDbSpline
210
0
220
0
230
1
70
8
71
3
72
8
73
4
74
0
42
1e-07
43
1e-07
40
0
40
0
40
0
40
0
40
1
40
1
40
1
40
1
10
32.56594777
20
40.43841622
30
0
10
32.65880746
20
40.68672175
30
0
10
32.76246871
20
40.88953051
30
0
10
32.79587098
20
40.88953051
30
0
0
SPLINE
5
90
100
AcDbEntity
8
kaguya
6
ByLayer
62
7
370
-1
100
AcDbSpline
210
0
220
0
230
1
70
8
71
3
72
8
73
4
74
0
42
1e-07
43
1e-07
40
0
40
0
40
0
40
0
40
1
40
1
40
1
40
1
10
32.79587098
20
40.88953051
30
0
10
32.82927226
20
40.88953051
30
0
10
32.91014833
20
41.07519676
30
0
10
32.97631663
20
41.30280997
30
0
0
SPLINE
5
91
100
AcDbEntity
8
kaguya
6
ByLayer
62
7
370
-1
100
AcDbSpline
210
0
220
0
230
1
70
8
71
3
72
8
73
4
74
0
42
1e-07
43
1e-07
40
0
40
0
40
0
40
0
40
1
40
1
40
1
40
1
10
32.97631663
20
41.30280997
30
0
10
33.04248526
20
41.53042219
30
0
10
33.12105232
20
41.7160891
30
0
10
33.15094174
20
41.7160891
30
0
0
SPLINE
5
92
100
AcDbEntity
8
kaguya
6
ByLayer
62
7
370
-1
100
AcDbSpline
210
0
220
0
230
1
70
8
71
3
72
8
73
4
74
0
42
1e-07
43
1e-07
40
0
40
0
40
0
40
0
40
1
40
1
40
1
40
1
10
33.15094174
20
41.7160891
30
0
10
33.18083281
20
41.7160891
30
0
10
33.2705806
20
41.92892557
30
0
10
33.35176027
20
42.1875766
30
0
0
SPLINE
5
93
100
AcDbEntity
8
kaguya
6
ByLayer
62
7
370
-1
100
AcDbSpline
210
0
220
0
230
1
70
8
71
3
72
8
73
4
74
0
42
1e-07
43
1e-07
40
0
40
0
40
0
40
0
40
1
40
1
40
1
40
1
10
33.35176027
20
42.1875766
30
0
10
33.43293928
20
42.44622829
30
0
10
33.52374703
20
42.67610563
30
0
10
33.55257913
20
42.69689926
30
0
0
SPLINE
5
94
100
AcDbEntity
8
kaguya
6
ByLayer
62
7
370
-1
100
AcDbSpline
210
0
220
0
230
1
70
8
71
3
72
8
73
4
74
0
42
1e-07
43
1e-07
40
0
40
0
40
0
40
0
40
1
40
1
40
1
40
1
10
33.55257913
20
42.69689926
30
0
10
33.58141123
20
42.71769223
30
0
10
33.66337333
20
42.95198035
30
0
10
33.73302511
20
43.22077426
30
0
0
SPLINE
5
95
100
AcDbEntity
8
kaguya
6
ByLayer
62
7
370
-1
100
AcDbSpline
210
0
220
0
230
1
70
8
71
3
72
8
73
4
74
0
42
1e-07
43
1e-07
40
0
40
0
40
0
40
0
40
1
40
1
40
1
40
1
10
33.73302511
20
43.22077426
30
0
10
33.80267656
20
43.4895685
30
0
10
33.89610319
20
43.73339131
30
0
10
33.94257511
20
43.76211187
30
0
0
SPLINE
5
96
100
AcDbEntity
8
kaguya
6
ByLayer
62
7
370
-1
100
AcDbSpline
210
0
220
0
230
1
70
8
71
3
72
8
73
4
74
0
42
1e-07
43
1e-07
40
0
40
0
40
0
40
0
40
1
40
1
40
1
40
1
10
33.94257511
20
43.76211187
30
0
10
33.99661756
20
43.79551216
30
0
10
34.02818305
20
44.1162682
30
0
10
34.0298875
20
44.65269937
30
0
0
SPLINE
5
97
100
AcDbEntity
8
kaguya
6
ByLayer
62
7
370
-1
100
AcDbSpline
210
0
220
0
230
1
70
8
71
3
72
8
73
4
74
0
42
1e-07
43
1e-07
40
0
40
0
40
0
40
0
40
1
40
1
40
1
40
1
10
34.0298875
20
44.65269937
30
0
10
34.03244665
20
45.45497128
30
0
10
34.04203381
20
45.49937641
30
0
10
34.22197489
20
45.6451516
30
0
0
SPLINE
5
98
100
AcDbEntity
8
kaguya
6
ByLayer
62
7
370
-1
100
AcDbSpline
210
0
220
0
230
1
70
8
71
3
72
8
73
4
74
0
42
1e-07
43
1e-07
40
0
40
0
40
0
40
0
40
1
40
1
40
1
40
1
10
34.22197489
20
45.6451516
30
0
10
34.38641851
20
45.77837326
30
0
10
34.406665
20
45.85006609
30
0
10
34.39077913
20
46.20977236
30
0
0
SPLINE
5
99
100
AcDbEntity
8
kaguya
6
ByLayer
62
7
370
-1
100
AcDbSpline
210
0
220
0
230
1
70
8
71
3
72
8
73
4
74
0
42
1e-07
43
1e-07
40
0
40
0
40
0
40
0
40
1
40
1
40
1
40
1
10
34.39077913
20
46.20977236
30
0
10
34.38078508
20
46.43608075
30
0
10
34.40965909
20
46.69003126
30
0
10
34.45480837
20
46.77439312
30
0
0
SPLINE
5
9A
100
AcDbEntity
8
kaguya
6
ByLayer
62
7
370
-1
100
AcDbSpline
210
0
220
0
230
1
70
8
71
3
72
8
73
4
74
0
42
1e-07
43
1e-07
40
0
40
0
40
0
40
0
40
1
40
1
40
1
40
1
10
34.45480837
20
46.77439312
30
0
10
34.5459217
20
46.94464078
30
0
10
34.3960951
20
48.11318497
30
0
10
34.28309386
20
48.11318497
30
0
0
SPLINE
5
9B
100
AcDbEntity
8
kaguya
6
ByLayer
62
7
370
-1
100
AcDbSpline
210
0
220
0
230
1
70
8
71
3
72
8
73
4
74
0
42
1e-07
43
1e-07
40
0
40
0
40
0
40
0
40
1
40
1
40
1
40
1
10
34.28309386
20
48.11318497
30
0
10
34.24916623
20
48.11318497
30
0
10
34.22197489
20
48.19890181
30
0
10
34.22197489
20
48.30236176
30
0
0
SPLINE
5
9C
100
AcDbEntity
8
kaguya
6
ByLayer
62
7
370
-1
100
AcDbSpline
210
0
220
0
230
1
70
8
71
3
72
8
73
4
74
0
42
1e-07
43
1e-07
40
0
40
0
40
0
40
0
40
1
40
1
40
1
40
1
10
34.22197489
20
48.30236176
30
0
10
34.22197489
20
48.4058227
30
0
10
34.25116867
20
48.48862861
30
0
10
34.28891473
20
48.48862861
30
0
0
SPLINE
5
9D
100
AcDbEntity
8
kaguya
6
ByLayer
62
7
370
-1
100
AcDbSpline
210
0
220
0
230
1
70
8
71
3
72
8
73
4
74
0
42
1e-07
43
1e-07
40
0
40
0
40
0
40
0
40
1
40
1
40
1
40
1
10
34.28891473
20
48.48862861
30
0
10
34.32666145
20
48.48862861
30
0
10
34.38194536
20
48.63008146
30
0
10
34.41115201
20
48.80295361
30
0
0
SPLINE
5
9E
100
AcDbEntity
8
kaguya
6
ByLayer
62
7
370
-1
100
AcDbSpline
210
0
220
0
230
1
70
8
71
3
72
8
73
4
74
0
42
1e-07
43
1e-07
40
0
40
0
40
0
40
0
40
1
40
1
40
1
40
1
10
34.41115201
20
48.80295361
30
0
10
34.45271089
20
49.04894089
30
0
10
34.4365729
20
49.13783761
30
0
10
34.34130223
20
49.2075016
30
0
0
SPLINE
5
9F
100
AcDbEntity
8
kaguya
6
ByLayer
62
7
370
-1
100
AcDbSpline
210
0
220
0
230
1
70
8
71
3
72
8
73
4
74
0
42
1e-07
43
1e-07
40
0
40
0
40
0
40
0
40
1
40
1
40
1
40
1
10
34.34130223
20
49.2075016
30
0
10
34.21522474
20
49.29969139
30
0
10
34.16908183
20
49.76921176
30
0
10
34.28600413
20
49.76921176
30
0
0
SPLINE
5
A0
100
AcDbEntity
8
kaguya
6
ByLayer
62
7
370
-1
100
AcDbSpline
210
0
220
0
230
1
70
8
71
3
72
8
73
4
74
0
42
1e-07
43
1e-07
40
0
40
0
40
0
40
0
40
1
40
1
40
1
40
1
10
34.28600413
20
49.76921176
30
0
10
34.32228532
20
49.76921176
30
0
10
34.42800379
20
50.07969886
30
0
10
34.51883761
20
50.461891
30
0
0
SPLINE
5
A1
100
AcDbEntity
8
kaguya
6
ByLayer
62
7
370
-1
100
AcDbSpline
210
0
220
0
230
1
70
8
71
3
72
8
73
4
74
0
42
1e-07
43
1e-07
40
0
40
0
40
0
40
0
40
1
40
1
40
1
40
1
10
34.51883761
20
50.461891
30
0
10
34.60967143
20
50.84408314
30
0
10
34.70749597
20
51.17401285
30
0
10
34.73711875
20
51.195316
30
0
0
SPLINE
5
A2
100
AcDbEntity
8
kaguya
6
ByLayer
62
7
370
-1
100
AcDbSpline
210
0
220
0
230
1
70
8
71
3
72
8
73
4
74
0
42
1e-07
43
1e-07
40
0
40
0
40
0
40
0
40
1
40
1
40
1
40
1
10
34.73711875
20
51.195316
30
0
10
34.76674153
20
51.21661948
30
0
10
34.82969035
20
51.46801975
30
0
10
34.87681864
20
51.75120562
30
0
0
SPLINE
5
A3
100
AcDbEntity
8
kaguya
6
ByLayer
62
7
370
-1
100
AcDbSpline
210
0
220
0
230
1
70
8
71
3
72
8
73
4
74
0
42
1e-07
43
1e-07
40
0
40
0
40
0
40
0
40
1
40
1
40
1
40
1
10
34.87681864
20
51.75120562
30
0
10
34.92394693
20
52.03439248
30
0
10
34.98470059
20
52.2869197
30
0
10
35.01069799
20
52.31291611
30
0
0
SPLINE
5
A4
100
AcDbEntity
8
kaguya
6
ByLayer
62
7
370
-1
100
AcDbSpline
210
0
220
0
230
1
70
8
71
3
72
8
73
4
74
0
42
1e-07
43
1e-07
40
0
40
0
40
0
40
0
40
1
40
1
40
1
40
1
10
35.01069799
20
52.31291611
30
0
10
35.07935944
20
52.38157756
30
0
10
35.17989691
20
52.18743394
30
0
10
35.23771027
20
51.8792641
30
0
0
SPLINE
5
A5
100
AcDbEntity
8
kaguya
6
ByLayer
62
7
370
-1
100
AcDbSpline
210
0
220
0
230
1
70
8
71
3
72
8
73
4
74
0
42
1e-07
43
1e-07
40
0
40
0
40
0
40
0
40
1
40
1
40
1
40
1
10
35.23771027
20
51.8792641
30
0
10
35.26536823
20
51.73183033
30
0
10
35.32265095
20
51.59158726
30
0
10
35.36576875
20
51.5649391
30
0
0
SPLINE
5
A6
100
AcDbEntity
8
kaguya
6
ByLayer
62
7
370
-1
100
AcDbSpline
210
0
220
0
230
1
70
8
71
3
72
8
73
4
74
0
42
1e-07
43
1e-07
40
0
40
0
40
0
40
0
40
1
40
1
40
1
40
1
10
35.36576875
20
51.5649391
30
0
10
35.40888655
20
51.53829061
30
0
10
35.46227527
20
51.19842955
30
0
10
35.48218549
20
50.81114122
30
0
0
SPLINE
5
A7
100
AcDbEntity
8
kaguya
6
ByLayer
62
7
370
-1
100
AcDbSpline
210
0
220
0
230
1
70
8
71
3
72
8
73
4
74
0
42
1e-07
43
1e-07
40
0
40
0
40
0
40
0
40
1
40
1
40
1
40
1
10
35.48218549
20
50.81114122
30
0
10
35.51827825
20
50.10903586
30
0
10
35.51676124
20
50.10746671
30
0
10
35.28427723
20
49.84488274
30
0
0
SPLINE
5
A8
100
AcDbEntity
8
kaguya
6
ByLayer
62
7
370
-1
100
AcDbSpline
210
0
220
0
230
1
70
8
71
3
72
8
73
4
74
0
42
1e-07
43
1e-07
40
0
40
0
40
0
40
0
40
1
40
1
40
1
40
1
10
35.28427723
20
49.84488274
30
0
10
35.15603626
20
49.70003815
30
0
10
35.04918523
20
49.55841304
30
0
10
35.04853348
20
49.53055774
30
0
0
SPLINE
5
A9
100
AcDbEntity
8
kaguya
6
ByLayer
62
7
370
-1
100
AcDbSpline
210
0
220
0
230
1
70
8
71
3
72
8
73
4
74
0
42
1e-07
43
1e-07
40
0
40
0
40
0
40
0
40
1
40
1
40
1
40
1
10
35.04853348
20
49.53055774
30
0
10
35.04787315
20
49.50270244
30
0
10
35.14478854
20
49.38270025
30
0
10
35.26099375
20
49.26570997
30
0
0
SPLINE
5
AA
100
AcDbEntity
8
kaguya
6
ByLayer
62
7
370
-1
100
AcDbSpline
210
0
220
0
230
1
70
8
71
3
72
8
73
4
74
0
42
1e-07
43
1e-07
40
0
40
0
40
0
40
0
40
1
40
1
40
1
40
1
10
35.26099375
20
49.26570997
30
0
10
35.37719797
20
49.14872035
30
0
10
35.49244123
20
48.99241486
30
0
10
35.52002098
20
48.91937035
30
0
0
SPLINE
5
AB
100
AcDbEntity
8
kaguya
6
ByLayer
62
7
370
-1
100
AcDbSpline
210
0
220
0
230
1
70
8
71
3
72
8
73
4
74
0
42
1e-07
43
1e-07
40
0
40
0
40
0
40
0
40
1
40
1
40
1
40
1
10
35.52002098
20
48.91937035
30
0
10
35.54759941
20
48.84632749
30
0
10
35.6570647
20
48.75538015
30
0
10
35.76158527
20
48.71564122
30
0
0
SPLINE
5
AC
100
AcDbEntity
8
kaguya
6
ByLayer
62
7
370
-1
100
AcDbSpline
210
0
220
0
230
1
70
8
71
3
72
8
73
4
74
0
42
1e-07
43
1e-07
40
0
40
0
40
0
40
0
40
1
40
1
40
1
40
1
10
35.76158527
20
48.71564122
30
0
10
35.86610617
20
48.67590295
30
0
10
35.95076239
20
48.6118021
30
0
10
35.95076239
20
48.57303073
30
0
0
SPLINE
5
AD
100
AcDbEntity
8
kaguya
6
ByLayer
62
7
370
-1
100
AcDbSpline
210
0
220
0
230
1
70
8
71
3
72
8
73
4
74
0
42
1e-07
43
1e-07
40
0
40
0
40
0
40
0
40
1
40
1
40
1
40
1
10
35.95076239
20
48.57303073
30
0
10
35.95076239
20
48.53426002
30
0
10
36.07994584
20
48.48006577
30
0
10
36.23598337
20
48.45370372
30
0
0
SPLINE
5
AE
100
AcDbEntity
8
kaguya
6
ByLayer
62
7
370
-1
100
AcDbSpline
210
0
220
0
230
1
70
8
71
3
72
8
73
4
74
0
42
1e-07
43
1e-07
40
0
40
0
40
0
40
0
40
1
40
1
40
1
40
1
10
36.23598337
20
48.45370372
30
0
10
36.57559792
20
48.39632596
30
0
10
36.78870169
20
48.27280894
30
0
10
36.64635223
20
48.21504937
30
0
0
SPLINE
5
AF
100
AcDbEntity
8
kaguya
6
ByLayer
62
7
370
-1
100
AcDbSpline
210
0
220
0
230
1
70
8
71
3
72
8
73
4
74
0
42
1e-07
43
1e-07
40
0
40
0
40
0
40
0
40
1
40
1
40
1
40
1
10
36.64635223
20
48.21504937
30
0
10
36.59462209
20
48.19405807
30
0
10
36.55321864
20
48.05958208
30
0
10
36.55321864
20
47.91818698
30
0
0
SPLINE
5
B0
100
AcDbEntity
8
kaguya
6
ByLayer
62
7
370
-1
100
AcDbSpline
210
0
220
0
230
1
70
8
71
3
72
8
73
4
74
0
42
1e-07
43
1e-07
40
0
40
0
40
0
40
0
40
1
40
1
40
1
40
1
10
36.55321864
20
47.91818698
30
0
10
36.55321864
20
47.77679089
30
0
10
36.51893164
20
47.66207035
30
0
10
36.47754799
20
47.66207035
30
0
0
SPLINE
5
B1
100
AcDbEntity
8
kaguya
6
ByLayer
62
7
370
-1
100
AcDbSpline
210
0
220
0
230
1
70
8
71
3
72
8
73
4
74
0
42
1e-07
43
1e-07
40
0
40
0
40
0
40
0
40
1
40
1
40
1
40
1
10
36.47754799
20
47.66207035
30
0
10
36.43616401
20
47.66207035
30
0
10
36.40187701
20
47.61345739
30
0
10
36.40187701
20
47.55438475
30
0
0
SPLINE
5
B2
100
AcDbEntity
8
kaguya
6
ByLayer
62
7
370
-1
100
AcDbSpline
210
0
220
0
230
1
70
8
71
3
72
8
73
4
74
0
42
1e-07
43
1e-07
40
0
40
0
40
0
40
0
40
1
40
1
40
1
40
1
10
36.40187701
20
47.55438475
30
0
10
36.40187701
20
47.49531211
30
0
10
36.32594731
20
47.38533565
30
0
10
36.2301625
20
47.30990986
30
0
0
SPLINE
5
B3
100
AcDbEntity
8
kaguya
6
ByLayer
62
7
370
-1
100
AcDbSpline
210
0
220
0
230
1
70
8
71
3
72
8
73
4
74
0
42
1e-07
43
1e-07
40
0
40
0
40
0
40
0
40
1
40
1
40
1
40
1
10
36.2301625
20
47.30990986
30
0
10
36.13437868
20
47.23448407
30
0
10
35.98990633
20
47.0702599
30
0
10
35.91001663
20
46.94610763
30
0
0
SPLINE
5
B4
100
AcDbEntity
8
kaguya
6
ByLayer
62
7
370
-1
100
AcDbSpline
210
0
220
0
230
1
70
8
71
3
72
8
73
4
74
0
42
1e-07
43
1e-07
40
0
40
0
40
0
40
0
40
1
40
1
40
1
40
1
10
35.91001663
20
46.94610763
30
0
10
35.83012693
20
46.82195536
30
0
10
35.68694851
20
46.65839548
30
0
10
35.59278136
20
46.58230573
30
0
0
SPLINE
5
B5
100
AcDbEntity
8
kaguya
6
ByLayer
62
7
370
-1
100
AcDbSpline
210
0
220
0
230
1
70
8
71
3
72
8
73
4
74
0
42
1e-07
43
1e-07
40
0
40
0
40
0
40
0
40
1
40
1
40
1
40
1
10
35.59278136
20
46.58230573
30
0
10
35.49861421
20
46.50621664
30
0
10
35.24458351
20
46.25552884
30
0
10
35.02816027
20
46.02641611
30
0
0
SPLINE
5
B6
100
AcDbEntity
8
kaguya
6
ByLayer
62
7
370
-1
100
AcDbSpline
210
0
220
0
230
1
70
8
71
3
72
8
73
4
74
0
42
1e-07
43
1e-07
40
0
40
0
40
0
40
0
40
1
40
1
40
1
40
1
10
35.02816027
20
46.02641611
30
0
10
34.81173802
20
45.79730437
30
0
10
34.57545703
20
45.55884571
30
0
10
34.50428527
20
45.49380997
30
0
0
SPLINE
5
B7
100
AcDbEntity
8
kaguya
6
ByLayer
62
7
370
-1
100
AcDbSpline
210
0
220
0
230
1
70
8
71
3
72
8
73
4
74
0
42
1e-07
43
1e-07
40
0
40
0
40
0
40
0
40
1
40
1
40
1
40
1
10
34.50428527
20
45.49380997
30
0
10
34.35184474
20
45.35451037
30
0
10
34.39763191
20
45.07463803
30
0
10
34.60906027
20
44.84769736
30
0
0
SPLINE
5
B8
100
AcDbEntity
8
kaguya
6
ByLayer
62
7
370
-1
100
AcDbSpline
210
0
220
0
230
1
70
8
71
3
72
8
73
4
74
0
42
1e-07
43
1e-07
40
0
40
0
40
0
40
0
40
1
40
1
40
1
40
1
10
34.60906027
20
44.84769736
30
0
10
34.68509359
20
44.76608473
30
0
10
34.74876049
20
44.6542342
30
0
10
34.74876049
20
44.60031187
30
0
0
SPLINE
5
B9
100
AcDbEntity
8
kaguya
6
ByLayer
62
7
370
-1
100
AcDbSpline
210
0
220
0
230
1
70
8
71
3
72
8
73
4
74
0
42
1e-07
43
1e-07
40
0
40
0
40
0
40
0
40
1
40
1
40
1
40
1
10
34.74876049
20
44.60031187
30
0
10
34.74876049
20
44.54639053
30
0
10
34.81442323
20
44.45991337
30
0
10
34.89719152
20
44.40822448
30
0
0
SPLINE
5
BA
100
AcDbEntity
8
kaguya
6
ByLayer
62
7
370
-1
100
AcDbSpline
210
0
220
0
230
1
70
8
71
3
72
8
73
4
74
0
42
1e-07
43
1e-07
40
0
40
0
40
0
40
0
40
1
40
1
40
1
40
1
10
34.89719152
20
44.40822448
30
0
10
35.04420355
20
44.31641353
30
0
10
35.10772129
20
44.1259141
30
0
10
34.99032511
20
44.1259141
30
0
0
SPLINE
5
BB
100
AcDbEntity
8
kaguya
6
ByLayer
62
7
370
-1
100
AcDbSpline
210
0
220
0
230
1
70
8
71
3
72
8
73
4
74
0
42
1e-07
43
1e-07
40
0
40
0
40
0
40
0
40
1
40
1
40
1
40
1
10
34.99032511
20
44.1259141
30
0
10
34.95785509
20
44.1259141
30
0
10
34.84935835
20
43.90596085
30
0
10
34.74876049
20
43.63696399
30
0
0
SPLINE
5
BC
100
AcDbEntity
8
kaguya
6
ByLayer
62
7
370
-1
100
AcDbSpline
210
0
220
0
230
1
70
8
71
3
72
8
73
4
74
0
42
1e-07
43
1e-07
40
0
40
0
40
0
40
0
40
1
40
1
40
1
40
1
10
34.74876049
20
43.63696399
30
0
10
34.6481623
20
43.36796713
30
0
10
34.54277449
20
43.14801388
30
0
10
34.51592701
20
43.14801388
30
0
0
SPLINE
5
BD
100
AcDbEntity
8
kaguya
6
ByLayer
62
7
370
-1
100
AcDbSpline
210
0
220
0
230
1
70
8
71
3
72
8
73
4
74
0
42
1e-07
43
1e-07
40
0
40
0
40
0
40
0
40
1
40
1
40
1
40
1
10
34.51592701
20
43.14801388
30
0
10
34.48908052
20
43.14801388
30
0
10
34.4095129
20
42.9937237
30
0
10
34.33839163
20
42.80749513
30
0
0
SPLINE
5
BE
100
AcDbEntity
8
kaguya
6
ByLayer
62
7
370
-1
100
AcDbSpline
210
0
220
0
230
1
70
8
71
3
72
8
73
4
74
0
42
1e-07
43
1e-07
40
0
40
0
40
0
40
0
40
1
40
1
40
1
40
1
10
34.33839163
20
42.80749513
30
0
10
34.26727036
20
42.62126689
30
0
10
34.18482118
20
42.46988698
30
0
10
34.15503538
20
42.46988698
30
0
0
SPLINE
5
BF
100
AcDbEntity
8
kaguya
6
ByLayer
62
7
370
-1
100
AcDbSpline
210
0
220
0
230
1
70
8
71
3
72
8
73
4
74
0
42
1e-07
43
1e-07
40
0
40
0
40
0
40
0
40
1
40
1
40
1
40
1
10
34.15503538
20
42.46988698
30
0
10
34.12524958
20
42.46988698
30
0
10
34.04026633
20
42.3013639
30
0
10
33.96585826
20
42.09444301
30
0
0
SPLINE
5
C0
100
AcDbEntity
8
kaguya
6
ByLayer
62
7
370
-1
100
AcDbSpline
210
0
220
0
230
1
70
8
71
3
72
8
73
4
74
0
42
1e-07
43
1e-07
40
0
40
0
40
0
40
0
40
1
40
1
40
1
40
1
10
33.96585826
20
42.09444301
30
0
10
33.89145118
20
41.88752245
30
0
10
33.805735
20
41.7160891
30
0
10
33.77668114
20
41.7160891
30
0
0
SPLINE
5
C1
100
AcDbEntity
8
kaguya
6
ByLayer
62
7
370
-1
100
AcDbSpline
210
0
220
0
230
1
70
8
71
3
72
8
73
4
74
0
42
1e-07
43
1e-07
40
0
40
0
40
0
40
0
40
1
40
1
40
1
40
1
10
33.77668114
20
41.7160891
30
0
10
33.74762926
20
41.7160891
30
0
10
33.66191209
20
41.54756602
30
0
10
33.58750402
20
41.34064513
30
0
0
SPLINE
5
C2
100
AcDbEntity
8
kaguya
6
ByLayer
62
7
370
-1
100
AcDbSpline
210
0
220
0
230
1
70
8
71
3
72
8
73
4
74
0
42
1e-07
43
1e-07
40
0
40
0
40
0
40
0
40
1
40
1
40
1
40
1
10
33.58750402
20
41.34064513
30
0
10
33.51309727
20
41.13372424
30
0
10
33.42799753
20
40.96520149
30
0
10
33.39832723
20
40.96520149
30
0
0
SPLINE
5
C3
100
AcDbEntity
8
kaguya
6
ByLayer
62
7
370
-1
100
AcDbSpline
210
0
220
0
230
1
70
8
71
3
72
8
73
4
74
0
42
1e-07
43
1e-07
40
0
40
0
40
0
40
0
40
1
40
1
40
1
40
1
10
33.39832723
20
40.96520149
30
0
10
33.3686566
20
40.96520149
30
0
10
33.28671991
20
40.77953458
30
0
10
33.21497098
20
40.55192236
30
0
0
SPLINE
5
C4
100
AcDbEntity
8
kaguya
6
ByLayer
62
7
370
-1
100
AcDbSpline
210
0
220
0
230
1
70
8
71
3
72
8
73
4
74
0
42
1e-07
43
1e-07
40
0
40
0
40
0
40
0
40
1
40
1
40
1
40
1
10
33.21497098
20
40.55192236
30
0
10
33.14322172
20
40.32430915
30
0
10
33.05905819
20
40.13573263
30
0
10
33.02870413
20
40.13573263
30
0
0
SPLINE
5
C5
100
AcDbEntity
8
kaguya
6
ByLayer
62
7
370
-1
100
AcDbSpline
210
0
220
0
230
1
70
8
71
3
72
8
73
4
74
0
42
1e-07
43
1e-07
40
0
40
0
40
0
40
0
40
1
40
1
40
1
40
1
10
33.02870413
20
40.13573263
30
0
10
32.99834908
20
40.13573263
30
0
10
32.89064797
20
39.91577971
30
0
10
32.79005011
20
39.64678285
30
0
0
SPLINE
5
C6
100
AcDbEntity
8
kaguya
6
ByLayer
62
7
370
-1
100
AcDbSpline
210
0
220
0
230
1
70
8
71
3
72
8
73
4
74
0
42
1e-07
43
1e-07
40
0
40
0
40
0
40
0
40
1
40
1
40
1
40
1
10
32.79005011
20
39.64678285
30
0
10
32.68945126
20
39.37778566
30
0
10
32.58095452
20
39.15783274
30
0
10
32.54848549
20
39.15783274
30
0
0
SPLINE
5
C7
100
AcDbEntity
8
kaguya
6
ByLayer
62
7
370
-1
100
AcDbSpline
210
0
220
0
230
1
70
8
71
3
72
8
73
4
74
0
42
1e-07
43
1e-07
40
0
40
0
40
0
40
0
40
1
40
1
40
1
40
1
10
32.54848549
20
39.15783274
30
0
10
32.51601547
20
39.15783274
30
0
10
32.49027712
20
39.10790869
30
0
10
32.49027712
20
39.04723687
30
0
0
SPLINE
5
C8
100
AcDbEntity
8
kaguya
6
ByLayer
62
7
370
-1
100
AcDbSpline
210
0
220
0
230
1
70
8
71
3
72
8
73
4
74
0
42
1e-07
43
1e-07
40
0
40
0
40
0
40
0
40
1
40
1
40
1
40
1
10
32.49027712
20
39.04723687
30
0
10
32.49027712
20
38.92043602
30
0
10
32.25396346
20
38.38798795
30
0
10
32.17013125
20
38.32545361
30
0
0
SPLINE
5
C9
100
AcDbEntity
8
kaguya
6
ByLayer
62
7
370
-1
100
AcDbSpline
210
0
220
0
230
1
70
8
71
3
72
8
73
4
74
0
42
1e-07
43
1e-07
40
0
40
0
40
0
40
0
40
1
40
1
40
1
40
1
10
32.17013125
20
38.32545361
30
0
10
32.13923533
20
38.30240773
30
0
10
32.06223907
20
38.10962536
30
0
10
31.99841674
20
37.89471187
30
0
0
SPLINE
5
CA
100
AcDbEntity
8
kaguya
6
ByLayer
62
7
370
-1
100
AcDbSpline
210
0
220
0
230
1
70
8
71
3
72
8
73
4
74
0
42
1e-07
43
1e-07
40
0
40
0
40
0
40
0
40
1
40
1
40
1
40
1
10
31.99841674
20
37.89471187
30
0
10
31.93459441
20
37.67979937
30
0
10
31.85499676
20
37.50471622
30
0
10
31.82088136
20
37.50471622
30
0
0
SPLINE
5
CB
100
AcDbEntity
8
kaguya
6
ByLayer
62
7
370
-1
100
AcDbSpline
210
0
220
0
230
1
70
8
71
3
72
8
73
4
74
0
42
1e-07
43
1e-07
40
0
40
0
40
0
40
0
40
1
40
1
40
1
40
1
10
31.82088136
20
37.50471622
30
0
10
31.78676563
20
37.50471622
30
0
10
31.70038615
20
37.3161397
30
0
10
31.62879364
20
37.08852649
30
0
0
SPLINE
5
CC
100
AcDbEntity
8
kaguya
6
ByLayer
62
7
370
-1
100
AcDbSpline
210
0
220
0
230
1
70
8
71
3
72
8
73
4
74
0
42
1e-07
43
1e-07
40
0
40
0
40
0
40
0
40
1
40
1
40
1
40
1
10
31.62879364
20
37.08852649
30
0
10
31.55720014
20
36.86091427
30
0
10
31.47177073
20
36.67524736
30
0
10
31.43961652
20
36.67524736
30
0
0
SPLINE
5
CD
100
AcDbEntity
8
kaguya
6
ByLayer
62
7
370
-1
100
AcDbSpline
210
0
220
0
230
1
70
8
71
3
72
8
73
4
74
0
42
1e-07
43
1e-07
40
0
40
0
40
0
40
0
40
1
40
1
40
1
40
1
10
31.43961652
20
36.67524736
30
0
10
31.40746264
20
36.67524736
30
0
10
31.3384471
20
36.52141159
30
0
10
31.28536462
20
36.33181801
30
0
0
SPLINE
5
CE
100
AcDbEntity
8
kaguya
6
ByLayer
62
7
370
-1
100
AcDbSpline
210
0
220
0
230
1
70
8
71
3
72
8
73
4
74
0
42
1e-07
43
1e-07
40
0
40
0
40
0
40
0
40
1
40
1
40
1
40
1
10
31.28536462
20
36.33181801
30
0
10
31.23228148
20
36.14222575
30
0
10
31.15125691
20
35.94653212
30
0
10
31.10491864
20
35.898166
30
0
0
SPLINE
5
CF
100
AcDbEntity
8
kaguya
6
ByLayer
62
7
370
-1
100
AcDbSpline
210
0
220
0
230
1
70
8
71
3
72
8
73
4
74
0
42
1e-07
43
1e-07
40
0
40
0
40
0
40
0
40
1
40
1
40
1
40
1
10
31.10491864
20
35.898166
30
0
10
31.05857971
20
35.84980021
30
0
10
30.93954244
20
35.54949724
30
0
10
30.84007087
20
35.22877024
30
0
0
SPLINE
5
D0
100
AcDbEntity
8
kaguya
6
ByLayer
62
7
370
-1
100
AcDbSpline
210
0
220
0
230
1
70
8
71
3
72
8
73
4
74
0
42
1e-07
43
1e-07
40
0
40
0
40
0
40
0
40
1
40
1
40
1
40
1
10
30.84007087
20
35.22877024
30
0
10
30.74059897
20
34.90804225
30
0
10
30.63641401
20
34.6437766
30
0
10
30.61014799
20
34.6437766
30
0
0
SPLINE
5
D1
100
AcDbEntity
8
kaguya
6
ByLayer
62
7
370
-1
100
AcDbSpline
210
0
220
0
230
1
70
8
71
3
72
8
73
4
74
0
42
1e-07
43
1e-07
40
0
40
0
40
0
40
0
40
1
40
1
40
1
40
1
10
30.61014799
20
34.6437766
30
0
10
30.58388164
20
34.6437766
30
0
10
30.50052199
20
34.43385007
30
0
10
30.42388114
20
34.17519937
30
0
0
SPLINE
5
D2
100
AcDbEntity
8
kaguya
6
ByLayer
62
7
370
-1
100
AcDbSpline
210
0
220
0
230
1
70
8
71
3
72
8
73
4
74
0
42
1e-07
43
1e-07
40
0
40
0
40
0
40
0
40
1
40
1
40
1
40
1
10
30.42388114
20
34.17519937
30
0
10
30.34724062
20
33.91654867
30
0
10
30.26159407
20
33.68656804
30
0
10
30.23470402
20
33.66587638
30
0
0
SPLINE
5
D3
100
AcDbEntity
8
kaguya
6
ByLayer
62
7
370
-1
100
AcDbSpline
210
0
220
0
230
1
70
8
71
3
72
8
73
4
74
0
42
1e-07
43
1e-07
40
0
40
0
40
0
40
0
40
1
40
1
40
1
40
1
10
30.23470402
20
33.66587638
30
0
10
30.20781463
20
33.64518406
30
0
10
30.12503776
20
33.43234759
30
0
10
30.05134777
20
33.19438888
30
0
0
SPLINE
5
D4
100
AcDbEntity
8
kaguya
6
ByLayer
62
7
370
-1
100
AcDbSpline
210
0
220
0
230
1
70
8
71
3
72
8
73
4
74
0
42
1e-07
43
1e-07
40
0
40
0
40
0
40
0
40
1
40
1
40
1
40
1
10
30.05134777
20
33.19438888
30
0
10
29.97765778
20
32.95642951
30
0
10
29.89440538
20
32.76364747
30
0
10
29.86508125
20
32.76364747
30
0
0
SPLINE
5
D5
100
AcDbEntity
8
kaguya
6
ByLayer
62
7
370
-1
100
AcDbSpline
210
0
220
0
230
1
70
8
71
3
72
8
73
4
74
0
42
1e-07
43
1e-07
40
0
40
0
40
0
40
0
40
1
40
1
40
1
40
1
10
29.86508125
20
32.76364747
30
0
10
29.83575679
20
32.76364747
30
0
10
29.74701055
20
32.54369422
30
0
10
29.67008326
20
32.27469736
30
0
0
SPLINE
5
D6
100
AcDbEntity
8
kaguya
6
ByLayer
62
7
370
-1
100
AcDbSpline
210
0
220
0
230
1
70
8
71
3
72
8
73
4
74
0
42
1e-07
43
1e-07
40
0
40
0
40
0
40
0
40
1
40
1
40
1
40
1
10
29.67008326
20
32.27469736
30
0
10
29.59315597
20
32.00570017
30
0
10
29.5090954
20
31.78574725
30
0
10
29.48090614
20
31.78574725
30
0
0
SPLINE
5
D7
100
AcDbEntity
8
kaguya
6
ByLayer
62
7
370
-1
100
AcDbSpline
210
0
220
0
230
1
70
8
71
3
72
8
73
4
74
0
42
1e-07
43
1e-07
40
0
40
0
40
0
40
0
40
1
40
1
40
1
40
1
10
29.48090614
20
31.78574725
30
0
10
29.45271721
20
31.78574725
30
0
10
29.36690995
20
31.58293816
30
0
10
29.29172902
20
31.33463263
30
0
0
SPLINE
5
D8
100
AcDbEntity
8
kaguya
6
ByLayer
62
7
370
-1
100
AcDbSpline
210
0
220
0
230
1
70
8
71
3
72
8
73
4
74
0
42
1e-07
43
1e-07
40
0
40
0
40
0
40
0
40
1
40
1
40
1
40
1
10
29.29172902
20
31.33463263
30
0
10
29.21654842
20
31.08632809
30
0
10
29.13281323
20
30.88060774
30
0
10
29.1054625
20
30.88060774
30
0
0
SPLINE
5
D9
100
AcDbEntity
8
kaguya
6
ByLayer
62
7
370
-1
100
AcDbSpline
210
0
220
0
230
1
70
8
71
3
72
8
73
4
74
0
42
1e-07
43
1e-07
40
0
40
0
40
0
40
0
40
1
40
1
40
1
40
1
10
29.1054625
20
30.88060774
30
0
10
29.07811177
20
30.88060774
30
0
10
29.00827057
20
30.71179624
30
0
10
28.95121027
20
30.5022535
30
0
0
SPLINE
5
DA
100
AcDbEntity
8
kaguya
6
ByLayer
62
7
370
-1
100
AcDbSpline
210
0
220
0
230
1
70
8
71
3
72
8
73
4
74
0
42
1e-07
43
1e-07
40
0
40
0
40
0
40
0
40
1
40
1
40
1
40
1
10
28.95121027
20
30.5022535
30
0
10
28.89414997
20
30.2927101
30
0
10
28.82141599
20
30.10366531
30
0
10
28.78822723
20
30.0831535
30
0
0
SPLINE
5
DB
100
AcDbEntity
8
kaguya
6
ByLayer
62
7
370
-1
100
AcDbSpline
210
0
220
0
230
1
70
8
71
3
72
8
73
4
74
0
42
1e-07
43
1e-07
40
0
40
0
40
0
40
0
40
1
40
1
40
1
40
1
10
28.78822723
20
30.0831535
30
0
10
28.75503814
20
30.06264202
30
0
10
28.72710826
20
29.99440231
30
0
10
28.72710826
20
29.93181187
30
0
0
SPLINE
5
DC
100
AcDbEntity
8
kaguya
6
ByLayer
62
7
370
-1
100
AcDbSpline
210
0
220
0
230
1
70
8
71
3
72
8
73
4
74
0
42
1e-07
43
1e-07
40
0
40
0
40
0
40
0
40
1
40
1
40
1
40
1
10
28.72710826
20
29.93181187
30
0
10
28.72710826
20
29.86922242
30
0
10
28.68207679
20
29.77036432
30
0
10
28.62524386
20
29.71353073
30
0
0
SPLINE
5
DD
100
AcDbEntity
8
kaguya
6
ByLayer
62
7
370
-1
100
AcDbSpline
210
0
220
0
230
1
70
8
71
3
72
8
73
4
74
0
42
1e-07
43
1e-07
40
0
40
0
40
0
40
0
40
1
40
1
40
1
40
1
10
28.62524386
20
29.71353073
30
0
10
28.5684106
20
29.6566978
30
0
10
28.47717649
20
29.45675278
30
0
10
28.42151473
20
29.26823698
30
0
0
SPLINE
5
DE
100
AcDbEntity
8
kaguya
6
ByLayer
62
7
370
-1
100
AcDbSpline
210
0
220
0
230
1
70
8
71
3
72
8
73
4
74
0
42
1e-07
43
1e-07
40
0
40
0
40
0
40
0
40
1
40
1
40
1
40
1
10
28.42151473
20
29.26823698
30
0
10
28.36585264
20
29.07972118
30
0
10
28.2968998
20
28.92480763
30
0
10
28.27017277
20
28.92480763
30
0
0
SPLINE
5
DF
100
AcDbEntity
8
kaguya
6
ByLayer
62
7
370
-1
100
AcDbSpline
210
0
220
0
230
1
70
8
71
3
72
8
73
4
74
0
42
1e-07
43
1e-07
40
0
40
0
40
0
40
0
40
1
40
1
40
1
40
1
10
28.27017277
20
28.92480763
30
0
10
28.24344574
20
28.92480763
30
0
10
28.16156548
20
28.76340199
30
0
10
28.08681652
20
28.5668266
30
0
0
SPLINE
5
E0
100
AcDbEntity
8
kaguya
6
ByLayer
62
7
370
-1
100
AcDbSpline
210
0
220
0
230
1
70
8
71
3
72
8
73
4
74
0
42
1e-07
43
1e-07
40
0
40
0
40
0
40
0
40
1
40
1
40
1
40
1
10
28.08681652
20
28.5668266
30
0
10
28.01206789
20
28.37025187
30
0
10
27.91135189
20
28.17746851
30
0
10
27.86271451
20
28.13608486
30
0
0
SPLINE
5
E1
100
AcDbEntity
8
kaguya
6
ByLayer
62
7
370
-1
100
AcDbSpline
210
0
220
0
230
1
70
8
71
3
72
8
73
4
74
0
42
1e-07
43
1e-07
40
0
40
0
40
0
40
0
40
1
40
1
40
1
40
1
10
27.86271451
20
28.13608486
30
0
10
27.81407713
20
28.09470022
30
0
10
27.72697066
20
27.9444565
30
0
10
27.67062712
20
27.80138698
30
0
0
SPLINE
5
E2
100
AcDbEntity
8
kaguya
6
ByLayer
62
7
370
-1
100
AcDbSpline
210
0
220
0
230
1
70
8
71
3
72
8
73
4
74
0
42
1e-07
43
1e-07
40
0
40
0
40
0
40
0
40
1
40
1
40
1
40
1
10
27.67062712
20
27.80138698
30
0
10
27.61428325
20
27.65831746
30
0
10
27.51619735
20
27.48477277
30
0
10
27.45234598
20
27.41721187
30
0
0
SPLINE
5
E3
100
AcDbEntity
8
kaguya
6
ByLayer
62
7
370
-1
100
AcDbSpline
210
0
220
0
230
1
70
8
71
3
72
8
73
4
74
0
42
1e-07
43
1e-07
40
0
40
0
40
0
40
0
40
1
40
1
40
1
40
1
10
27.45234598
20
27.41721187
30
0
10
27.38849461
20
27.34964932
30
0
10
27.2502124
20
27.18331117
30
0
10
27.14675212
20
27.0475891
30
0
0
SPLINE
5
E4
100
AcDbEntity
8
kaguya
6
ByLayer
62
7
370
-1
100
AcDbSpline
210
0
220
0
230
1
70
8
71
3
72
8
73
4
74
0
42
1e-07
43
1e-07
40
0
40
0
40
0
40
0
40
1
40
1
40
1
40
1
10
27.14675212
20
27.0475891
30
0
10
27.04329151
20
26.9118667
30
0
10
26.59626922
20
26.43362344
30
0
10
26.15138962
20
25.98528676
30
0
0
SPLINE
5
E5
100
AcDbEntity
8
kaguya
6
ByLayer
62
7
370
-1
100
AcDbSpline
210
0
220
0
230
1
70
8
71
3
72
8
73
4
74
0
42
1e-07
43
1e-07
40
0
40
0
40
0
40
0
40
1
40
1
40
1
40
1
10
26.15138962
20
25.98528676
30
0
10
25.70651002
20
25.53695041
30
0
10
25.34229364
20
25.15141207
30
0
10
25.34229364
20
25.12671388
30
0
0
SPLINE
5
E6
100
AcDbEntity
8
kaguya
6
ByLayer
62
7
370
-1
100
AcDbSpline
210
0
220
0
230
1
70
8
71
3
72
8
73
4
74
0
42
1e-07
43
1e-07
40
0
40
0
40
0
40
0
40
1
40
1
40
1
40
1
10
25.34229364
20
25.12671388
30
0
10
25.34229364
20
25.10201503
30
0
10
25.22229046
20
24.95862046
30
0
10
25.07744587
20
24.80947861
30
0
0
SPLINE
5
E7
100
AcDbEntity
8
kaguya
6
ByLayer
62
7
370
-1
100
AcDbSpline
210
0
220
0
230
1
70
8
71
3
72
8
73
4
74
0
42
1e-07
43
1e-07
40
0
40
0
40
0
40
0
40
1
40
1
40
1
40
1
10
25.07744587
20
24.80947861
30
0
10
24.93260128
20
24.66033676
30
0
10
24.81550837
20
24.51392071
30
0
10
24.81550837
20
24.48351187
30
0
0
SPLINE
5
E8
100
AcDbEntity
8
kaguya
6
ByLayer
62
7
370
-1
100
AcDbSpline
210
0
220
0
230
1
70
8
71
3
72
8
73
4
74
0
42
1e-07
43
1e-07
40
0
40
0
40
0
40
0
40
1
40
1
40
1
40
1
10
24.81550837
20
24.48351187
30
0
10
24.81550837
20
24.45310303
30
0
10
24.67124524
20
24.27344674
30
0
10
24.4953625
20
24.08478475
30
0
0
SPLINE
5
E9
100
AcDbEntity
8
kaguya
6
ByLayer
62
7
370
-1
100
AcDbSpline
210
0
220
0
230
1
70
8
71
3
72
8
73
4
74
0
42
1e-07
43
1e-07
40
0
40
0
40
0
40
0
40
1
40
1
40
1
40
1
10
24.4953625
20
24.08478475
30
0
10
24.31947976
20
23.89612474
30
0
10
24.09977599
20
23.647807
30
0
10
24.00641239
20
23.53180573
30
0
0
SPLINE
5
EA
100
AcDbEntity
8
kaguya
6
ByLayer
62
7
370
-1
100
AcDbSpline
210
0
220
0
230
1
70
8
71
3
72
8
73
4
74
0
42
1e-07
43
1e-07
40
0
40
0
40
0
40
0
40
1
40
1
40
1
40
1
10
24.00641239
20
23.53180573
30
0
10
23.91304879
20
23.41580446
30
0
10
23.75270773
20
23.22474403
30
0
10
23.65134163
20
23.10688486
30
0
0
SPLINE
5
EB
100
AcDbEntity
8
kaguya
6
ByLayer
62
7
370
-1
100
AcDbSpline
210
0
220
0
230
1
70
8
71
3
72
8
73
4
74
0
42
1e-07
43
1e-07
40
0
40
0
40
0
40
0
40
1
40
1
40
1
40
1
10
23.65134163
20
23.10688486
30
0
10
23.50727584
20
22.93937983
30
0
10
23.47844242
20
22.83825562
30
0
10
23.51455201
20
22.65285997
30
0
0
SPLINE
5
EC
100
AcDbEntity
8
kaguya
6
ByLayer
62
7
370
-1
100
AcDbSpline
210
0
220
0
230
1
70
8
71
3
72
8
73
4
74
0
42
1e-07
43
1e-07
40
0
40
0
40
0
40
0
40
1
40
1
40
1
40
1
10
23.51455201
20
22.65285997
30
0
10
23.53995904
20
22.5224146
30
0
10
23.58741337
20
22.40471713
30
0
10
23.62223761
20
22.39092247
30
0
0
SPLINE
5
ED
100
AcDbEntity
8
kaguya
6
ByLayer
62
7
370
-1
100
AcDbSpline
210
0
220
0
230
1
70
8
71
3
72
8
73
4
74
0
42
1e-07
43
1e-07
40
0
40
0
40
0
40
0
40
1
40
1
40
1
40
1
10
23.62223761
20
22.39092247
30
0
10
23.65706185
20
22.37712748
30
0
10
23.68626652
20
22.3054165
30
0
10
23.68626652
20
22.23084937
30
0
0
SPLINE
5
EE
100
AcDbEntity
8
kaguya
6
ByLayer
62
7
370
-1
100
AcDbSpline
210
0
220
0
230
1
70
8
71
3
72
8
73
4
74
0
42
1e-07
43
1e-07
40
0
40
0
40
0
40
0
40
1
40
1
40
1
40
1
10
23.68626652
20
22.23084937
30
0
10
23.68626652
20
22.03143796
30
0
10
23.92433149
20
21.32570986
30
0
10
23.99186038
20
21.32570986
30
0
0
SPLINE
5
EF
100
AcDbEntity
8
kaguya
6
ByLayer
62
7
370
-1
100
AcDbSpline
210
0
220
0
230
1
70
8
71
3
72
8
73
4
74
0
42
1e-07
43
1e-07
40
0
40
0
40
0
40
0
40
1
40
1
40
1
40
1
10
23.99186038
20
21.32570986
30
0
10
24.02374861
20
21.32570986
30
0
10
24.08818936
20
21.21273733
30
0
10
24.13447087
20
21.0725035
30
0
0
SPLINE
5
F0
100
AcDbEntity
8
kaguya
6
ByLayer
62
7
370
-1
100
AcDbSpline
210
0
220
0
230
1
70
8
71
3
72
8
73
4
74
0
42
1e-07
43
1e-07
40
0
40
0
40
0
40
0
40
1
40
1
40
1
40
1
10
24.13447087
20
21.0725035
30
0
10
24.25003687
20
20.72233324
30
0
10
24.78087586
20
20.19335479
30
0
10
25.13565424
20
20.07423073
30
0
0
SPLINE
5
F1
100
AcDbEntity
8
kaguya
6
ByLayer
62
7
370
-1
100
AcDbSpline
210
0
220
0
230
1
70
8
71
3
72
8
73
4
74
0
42
1e-07
43
1e-07
40
0
40
0
40
0
40
0
40
1
40
1
40
1
40
1
10
25.13565424
20
20.07423073
30
0
10
25.20807637
20
20.04991369
30
0
10
25.26662299
20
19.99935142
30
0
10
25.26662299
20
19.96363486
30
0
0
SPLINE
5
F2
100
AcDbEntity
8
kaguya
6
ByLayer
62
7
370
-1
100
AcDbSpline
210
0
220
0
230
1
70
8
71
3
72
8
73
4
74
0
42
1e-07
43
1e-07
40
0
40
0
40
0
40
0
40
1
40
1
40
1
40
1
10
25.26662299
20
19.96363486
30
0
10
25.26662299
20
19.92791896
30
0
10
25.40085907
20
19.82980501
30
0
10
25.56639598
20
19.74535372
30
0
0
SPLINE
5
F3
100
AcDbEntity
8
kaguya
6
ByLayer
62
7
370
-1
100
AcDbSpline
210
0
220
0
230
1
70
8
71
3
72
8
73
4
74
0
42
1e-07
43
1e-07
40
0
40
0
40
0
40
0
40
1
40
1
40
1
40
1
10
25.56639598
20
19.74535372
30
0
10
25.73193256
20
19.66090309
30
0
10
25.86907924
20
19.56244165
30
0
10
25.86907924
20
19.52707225
30
0
0
SPLINE
5
F4
100
AcDbEntity
8
kaguya
6
ByLayer
62
7
370
-1
100
AcDbSpline
210
0
220
0
230
1
70
8
71
3
72
8
73
4
74
0
42
1e-07
43
1e-07
40
0
40
0
40
0
40
0
40
1
40
1
40
1
40
1
10
25.86907924
20
19.52707225
30
0
10
25.86907924
20
19.46175337
30
0
10
26.0579158
20
19.41265135
30
0
10
26.73347299
20
19.29714937
30
0
0
SPLINE
5
F5
100
AcDbEntity
8
kaguya
6
ByLayer
62
7
370
-1
100
AcDbSpline
210
0
220
0
230
1
70
8
71
3
72
8
73
4
74
0
42
1e-07
43
1e-07
40
0
40
0
40
0
40
0
40
1
40
1
40
1
40
1
10
26.73347299
20
19.29714937
30
0
10
27.06077491
20
19.24118929
30
0
10
27.18185851
20
19.16472499
30
0
10
27.65316451
20
18.70633486
30
0
0
SPLINE
5
F6
100
AcDbEntity
8
kaguya
6
ByLayer
62
7
370
-1
100
AcDbSpline
210
0
220
0
230
1
70
8
71
3
72
8
73
4
74
0
42
1e-07
43
1e-07
40
0
40
0
40
0
40
0
40
1
40
1
40
1
40
1
10
27.65316451
20
18.70633486
30
0
10
27.95112481
20
18.41654008
30
0
10
28.26391102
20
18.15700102
30
0
10
28.34875402
20
18.13007236
30
0
0
SPLINE
5
F7
100
AcDbEntity
8
kaguya
6
ByLayer
62
7
370
-1
100
AcDbSpline
210
0
220
0
230
1
70
8
71
3
72
8
73
4
74
0
42
1e-07
43
1e-07
40
0
40
0
40
0
40
0
40
1
40
1
40
1
40
1
10
28.34875402
20
18.13007236
30
0
10
28.43359735
20
18.1031437
30
0
10
28.50300625
20
18.05435848
30
0
10
28.50300625
20
18.02238676
30
0
0
SPLINE
5
F8
100
AcDbEntity
8
kaguya
6
ByLayer
62
7
370
-1
100
AcDbSpline
210
0
220
0
230
1
70
8
71
3
72
8
73
4
74
0
42
1e-07
43
1e-07
40
0
40
0
40
0
40
0
40
1
40
1
40
1
40
1
10
28.50300625
20
18.02238676
30
0
10
28.50300625
20
17.99041603
30
0
10
28.63799275
20
17.91960859
30
0
10
28.80277924
20
17.86522426
30
0
0
SPLINE
5
F9
100
AcDbEntity
8
kaguya
6
ByLayer
62
7
370
-1
100
AcDbSpline
210
0
220
0
230
1
70
8
71
3
72
8
73
4
74
0
42
1e-07
43
1e-07
40
0
40
0
40
0
40
0
40
1
40
1
40
1
40
1
10
28.80277924
20
17.86522426
30
0
10
29.04200284
20
17.7862744
30
0
10
29.22573661
20
17.78417032
30
0
10
29.72247076
20
17.85358285
30
0
0
SPLINE
5
FA
100
AcDbEntity
8
kaguya
6
ByLayer
62
7
370
-1
100
AcDbSpline
210
0
220
0
230
1
70
8
71
3
72
8
73
4
74
0
42
1e-07
43
1e-07
40
0
40
0
40
0
40
0
40
1
40
1
40
1
40
1
10
29.72247076
20
17.85358285
30
0
10
30.58504753
20
17.97411502
30
0
10
30.53447701
20
17.99188651
30
0
10
30.53447701
20
17.5654516
30
0
0
SPLINE
5
FB
100
AcDbEntity
8
kaguya
6
ByLayer
62
7
370
-1
100
AcDbSpline
210
0
220
0
230
1
70
8
71
3
72
8
73
4
74
0
42
1e-07
43
1e-07
40
0
40
0
40
0
40
0
40
1
40
1
40
1
40
1
10
30.53447701
20
17.5654516
30
0
10
30.53447701
20
17.1412729
30
0
10
30.31489435
20
16.05785551
30
0
10
30.22888348
20
16.05785551
30
0
0
SPLINE
5
FC
100
AcDbEntity
8
kaguya
6
ByLayer
62
7
370
-1
100
AcDbSpline
210
0
220
0
230
1
70
8
71
3
72
8
73
4
74
0
42
1e-07
43
1e-07
40
0
40
0
40
0
40
0
40
1
40
1
40
1
40
1
10
30.22888348
20
16.05785551
30
0
10
30.19773412
20
16.05785551
30
0
10
30.11048575
20
15.86507347
30
0
10
30.03679576
20
15.6271141
30
0
0
SPLINE
5
FD
100
AcDbEntity
8
kaguya
6
ByLayer
62
7
370
-1
100
AcDbSpline
210
0
220
0
230
1
70
8
71
3
72
8
73
4
74
0
42
1e-07
43
1e-07
40
0
40
0
40
0
40
0
40
1
40
1
40
1
40
1
10
30.03679576
20
15.6271141
30
0
10
29.96310577
20
15.38915539
30
0
10
29.8683037
20
15.17060332
30
0
10
29.82433549
20
15.14107426
30
0
0
SPLINE
5
FE
100
AcDbEntity
8
kaguya
6
ByLayer
62
7
370
-1
100
AcDbSpline
210
0
220
0
230
1
70
8
71
3
72
8
73
4
74
0
42
1e-07
43
1e-07
40
0
40
0
40
0
40
0
40
1
40
1
40
1
40
1
10
29.82433549
20
15.14107426
30
0
10
29.70459235
20
15.06065557
30
0
10
29.71813984
20
13.48455082
30
0
10
29.8388875
20
13.44430138
30
0
0
SPLINE
5
FF
100
AcDbEntity
8
kaguya
6
ByLayer
62
7
370
-1
100
AcDbSpline
210
0
220
0
230
1
70
8
71
3
72
8
73
4
74
0
42
1e-07
43
1e-07
40
0
40
0
40
0
40
0
40
1
40
1
40
1
40
1
10
29.8388875
20
13.44430138
30
0
10
29.89061764
20
13.42705789
30
0
10
29.93202076
20
13.36237393
30
0
10
29.93202076
20
13.30169122
30
0
0
SPLINE
5
100
100
AcDbEntity
8
kaguya
6
ByLayer
62
7
370
-1
100
AcDbSpline
210
0
220
0
230
1
70
8
71
3
72
8
73
4
74
0
42
1e-07
43
1e-07
40
0
40
0
40
0
40
0
40
1
40
1
40
1
40
1
10
29.93202076
20
13.30169122
30
0
10
29.93202076
20
13.24100917
30
0
10
29.982388
20
13.0920013
30
0
10
30.04552723
20
12.96990361
30
0
0
SPLINE
5
101
100
AcDbEntity
8
kaguya
6
ByLayer
62
7
370
-1
100
AcDbSpline
210
0
220
0
230
1
70
8
71
3
72
8
73
4
74
0
42
1e-07
43
1e-07
40
0
40
0
40
0
40
0
40
1
40
1
40
1
40
1
10
30.04552723
20
12.96990361
30
0
10
30.13810312
20
12.79088158
30
0
10
30.21122287
20
12.74871187
30
0
10
30.41515
20
12.74871187
30
0
0
SPLINE
5
102
100
AcDbEntity
8
kaguya
6
ByLayer
62
7
370
-1
100
AcDbSpline
210
0
220
0
230
1
70
8
71
3
72
8
73
4
74
0
42
1e-07
43
1e-07
40
0
40
0
40
0
40
0
40
1
40
1
40
1
40
1
10
30.41515
20
12.74871187
30
0
10
30.65748814
20
12.74871187
30
0
10
30.66876028
20
12.73543663
30
0
10
30.71783326
20
12.40819312
30
0
0
SPLINE
5
103
100
AcDbEntity
8
kaguya
6
ByLayer
62
7
370
-1
100
AcDbSpline
210
0
220
0
230
1
70
8
71
3
72
8
73
4
74
0
42
1e-07
43
1e-07
40
0
40
0
40
0
40
0
40
1
40
1
40
1
40
1
10
30.71783326
20
12.40819312
30
0
10
30.77655379
20
12.01661677
30
0
10
30.95803927
20
11.54379937
30
0
10
31.04962087
20
11.54379937
30
0
0
SPLINE
5
104
100
AcDbEntity
8
kaguya
6
ByLayer
62
7
370
-1
100
AcDbSpline
210
0
220
0
230
1
70
8
71
3
72
8
73
4
74
0
42
1e-07
43
1e-07
40
0
40
0
40
0
40
0
40
1
40
1
40
1
40
1
10
31.04962087
20
11.54379937
30
0
10
31.08380623
20
11.54379937
30
0
10
31.14588385
20
11.46810892
30
0
10
31.18932076
20
11.37499513
30
0
0
SPLINE
5
105
100
AcDbEntity
8
kaguya
6
ByLayer
62
7
370
-1
100
AcDbSpline
210
0
220
0
230
1
70
8
71
3
72
8
73
4
74
0
42
1e-07
43
1e-07
40
0
40
0
40
0
40
0
40
1
40
1
40
1
40
1
10
31.18932076
20
11.37499513
30
0
10
31.2966493
20
11.14491781
30
0
10
31.73836519
20
10.64157013
30
0
10
31.83252277
20
10.64157013
30
0
0
SPLINE
5
106
100
AcDbEntity
8
kaguya
6
ByLayer
62
7
370
-1
100
AcDbSpline
210
0
220
0
230
1
70
8
71
3
72
8
73
4
74
0
42
1e-07
43
1e-07
40
0
40
0
40
0
40
0
40
1
40
1
40
1
40
1
10
31.83252277
20
10.64157013
30
0
10
31.87442452
20
10.64157013
30
0
10
31.94664931
20
10.59062902
30
0
10
31.99259587
20
10.52806399
30
0
0
SPLINE
5
107
100
AcDbEntity
8
kaguya
6
ByLayer
62
7
370
-1
100
AcDbSpline
210
0
220
0
230
1
70
8
71
3
72
8
73
4
74
0
42
1e-07
43
1e-07
40
0
40
0
40
0
40
0
40
1
40
1
40
1
40
1
10
31.99259587
20
10.52806399
30
0
10
32.0385421
20
10.46549896
30
0
10
32.22837691
20
10.38091039
30
0
10
32.41460614
20
10.34179747
30
0
0
SPLINE
5
108
100
AcDbEntity
8
kaguya
6
ByLayer
62
7
370
-1
100
AcDbSpline
210
0
220
0
230
1
70
8
71
3
72
8
73
4
74
0
42
1e-07
43
1e-07
40
0
40
0
40
0
40
0
40
1
40
1
40
1
40
1
10
32.41460614
20
10.34179747
30
0
10
32.80617787
20
10.25955586
30
0
10
33.90501715
20
10.30435963
30
0
10
34.30637701
20
10.41746812
30
0
0
SPLINE
5
109
100
AcDbEntity
8
kaguya
6
ByLayer
62
7
370
-1
100
AcDbSpline
210
0
220
0
230
1
70
8
71
3
72
8
73
4
74
0
42
1e-07
43
1e-07
40
0
40
0
40
0
40
0
40
1
40
1
40
1
40
1
10
34.30637701
20
10.41746812
30
0
10
34.45745068
20
10.46004109
30
0
10
34.60306912
20
10.54958164
30
0
10
34.62943348
20
10.61828698
30
0
0
SPLINE
5
10A
100
AcDbEntity
8
kaguya
6
ByLayer
62
7
370
-1
100
AcDbSpline
210
0
220
0
230
1
70
8
71
3
72
8
73
4
74
0
42
1e-07
43
1e-07
40
0
40
0
40
0
40
0
40
1
40
1
40
1
40
1
10
34.62943348
20
10.61828698
30
0
10
34.69417783
20
10.78700641
30
0
10
34.59461815
20
11.99820541
30
0
10
34.501375
20
12.17827024
30
0
0
SPLINE
5
10B
100
AcDbEntity
8
kaguya
6
ByLayer
62
7
370
-1
100
AcDbSpline
210
0
220
0
230
1
70
8
71
3
72
8
73
4
74
0
42
1e-07
43
1e-07
40
0
40
0
40
0
40
0
40
1
40
1
40
1
40
1
10
34.501375
20
12.17827024
30
0
10
34.46037217
20
12.25745407
30
0
10
34.2466051
20
12.4994302
30
0
10
34.02406663
20
12.71669725
30
0
0
SPLINE
5
10C
100
AcDbEntity
8
kaguya
6
ByLayer
62
7
370
-1
100
AcDbSpline
210
0
220
0
230
1
70
8
71
3
72
8
73
4
74
0
42
1e-07
43
1e-07
40
0
40
0
40
0
40
0
40
1
40
1
40
1
40
1
10
34.02406663
20
12.71669725
30
0
10
33.80152816
20
12.93396331
30
0
10
33.61951864
20
13.16617936
30
0
10
33.61951864
20
13.23184111
30
0
0
SPLINE
5
10D
100
AcDbEntity
8
kaguya
6
ByLayer
62
7
370
-1
100
AcDbSpline
210
0
220
0
230
1
70
8
71
3
72
8
73
4
74
0
42
1e-07
43
1e-07
40
0
40
0
40
0
40
0
40
1
40
1
40
1
40
1
10
33.61951864
20
13.23184111
30
0
10
33.61951864
20
13.29750187
30
0
10
33.58523164
20
13.35116812
30
0
10
33.54384799
20
13.35116812
30
0
0
SPLINE
5
10E
100
AcDbEntity
8
kaguya
6
ByLayer
62
7
370
-1
100
AcDbSpline
210
0
220
0
230
1
70
8
71
3
72
8
73
4
74
0
42
1e-07
43
1e-07
40
0
40
0
40
0
40
0
40
1
40
1
40
1
40
1
10
33.54384799
20
13.35116812
30
0
10
33.50246335
20
13.35116812
30
0
10
33.46817701
20
13.45542337
30
0
10
33.46817701
20
13.5840016
30
0
0
SPLINE
5
10F
100
AcDbEntity
8
kaguya
6
ByLayer
62
7
370
-1
100
AcDbSpline
210
0
220
0
230
1
70
8
71
3
72
8
73
4
74
0
42
1e-07
43
1e-07
40
0
40
0
40
0
40
0
40
1
40
1
40
1
40
1
10
33.46817701
20
13.5840016
30
0
10
33.46817701
20
13.88063596
30
0
10
33.23636818
20
14.85585361
30
0
10
33.16549375
20
14.85585361
30
0
0
SPLINE
5
110
100
AcDbEntity
8
kaguya
6
ByLayer
62
7
370
-1
100
AcDbSpline
210
0
220
0
230
1
70
8
71
3
72
8
73
4
74
0
42
1e-07
43
1e-07
40
0
40
0
40
0
40
0
40
1
40
1
40
1
40
1
10
33.16549375
20
14.85585361
30
0
10
33.13616137
20
14.85585361
30
0
10
33.05188696
20
15.13826827
30
0
10
32.97922723
20
15.48450361
30
0
0
SPLINE
5
111
100
AcDbEntity
8
kaguya
6
ByLayer
62
7
370
-1
100
AcDbSpline
210
0
220
0
230
1
70
8
71
3
72
8
73
4
74
0
42
1e-07
43
1e-07
40
0
40
0
40
0
40
0
40
1
40
1
40
1
40
1
10
32.97922723
20
15.48450361
30
0
10
32.87295271
20
15.99091699
30
0
10
32.85664675
20
16.28500771
30
0
10
32.90064598
20
16.9891891
30
0
0
LWPOLYLINE
5
112
100
AcDbEntity
8
kaguya
6
ByLayer
62
7
370
-1
100
AcDbPolyline
90
2
70
0
43
0
10
30.92156239
20
52.72037437
10
30.74693761
20
52.08299323
0
SPLINE
5
113
100
AcDbEntity
8
kaguya
6
ByLayer
62
7
370
-1
100
AcDbSpline
210
0
220
0
230
1
70
8
71
3
72
8
73
4
74
0
42
1e-07
43
1e-07
40
0
40
0
40
0
40
0
40
1
40
1
40
1
40
1
10
33.18877723
20
17.86522426
30
0
10
33.44158
20
17.86522426
30
0
10
34.30961992
20
17.64262375
30
0
10
34.37040625
20
17.562541
30
0
0
SPLINE
5
114
100
AcDbEntity
8
kaguya
6
ByLayer
62
7
370
-1
100
AcDbSpline
210
0
220
0
230
1
70
8
71
3
72
8
73
4
74
0
42
1e-07
43
1e-07
40
0
40
0
40
0
40
0
40
1
40
1
40
1
40
1
10
34.37040625
20
17.562541
30
0
10
34.45684612
20
17.4486613
30
0
10
34.9514884
20
17.33843899
30
0
10
35.37158962
20
17.33843899
30
0
0
SPLINE
5
115
100
AcDbEntity
8
kaguya
6
ByLayer
62
7
370
-1
100
AcDbSpline
210
0
220
0
230
1
70
8
71
3
72
8
73
4
74
0
42
1e-07
43
1e-07
40
0
40
0
40
0
40
0
40
1
40
1
40
1
40
1
10
35.37158962
20
17.33843899
30
0
10
35.80948675
20
17.33843899
30
0
10
36.40010194
20
17.46496066
30
0
10
36.47754799
20
17.57418274
30
0
0
SPLINE
5
116
100
AcDbEntity
8
kaguya
6
ByLayer
62
7
370
-1
100
AcDbSpline
210
0
220
0
230
1
70
8
71
3
72
8
73
4
74
0
42
1e-07
43
1e-07
40
0
40
0
40
0
40
0
40
1
40
1
40
1
40
1
10
36.47754799
20
17.57418274
30
0
10
36.49863037
20
17.60391475
30
0
10
36.70182985
20
17.70014572
30
0
10
36.92866261
20
17.78955361
30
0
0
SPLINE
5
117
100
AcDbEntity
8
kaguya
6
ByLayer
62
7
370
-1
100
AcDbSpline
210
0
220
0
230
1
70
8
71
3
72
8
73
4
74
0
42
1e-07
43
1e-07
40
0
40
0
40
0
40
0
40
1
40
1
40
1
40
1
10
36.92866261
20
17.78955361
30
0
10
37.15549438
20
17.87896249
30
0
10
37.35869452
20
17.9779615
30
0
10
37.37977723
20
18.00783475
30
0
0
SPLINE
5
118
100
AcDbEntity
8
kaguya
6
ByLayer
62
7
370
-1
100
AcDbSpline
210
0
220
0
230
1
70
8
71
3
72
8
73
4
74
0
42
1e-07
43
1e-07
40
0
40
0
40
0
40
0
40
1
40
1
40
1
40
1
10
37.37977723
20
18.00783475
30
0
10
37.40085961
20
18.03770932
30
0
10
37.54473202
20
18.11898304
30
0
10
37.69992277
20
18.191191
30
0
0
SPLINE
5
119
100
AcDbEntity
8
kaguya
6
ByLayer
62
7
370
-1
100
AcDbSpline
210
0
220
0
230
1
70
8
71
3
72
8
73
4
74
0
42
1e-07
43
1e-07
40
0
40
0
40
0
40
0
40
1
40
1
40
1
40
1
10
37.69992277
20
18.191191
30
0
10
37.85511286
20
18.26339929
30
0
10
37.98223348
20
18.35370511
30
0
10
37.98223348
20
18.38909926
30
0
0
SPLINE
5
11A
100
AcDbEntity
8
kaguya
6
ByLayer
62
7
370
-1
100
AcDbSpline
210
0
220
0
230
1
70
8
71
3
72
8
73
4
74
0
42
1e-07
43
1e-07
40
0
40
0
40
0
40
0
40
1
40
1
40
1
40
1
10
37.98223348
20
18.38909926
30
0
10
37.98223348
20
18.42449374
30
0
10
38.07838426
20
18.48534244
30
0
10
38.19469375
20
18.52588888
30
0
0
SPLINE
5
11B
100
AcDbEntity
8
kaguya
6
ByLayer
62
7
370
-1
100
AcDbSpline
210
0
220
0
230
1
70
8
71
3
72
8
73
4
74
0
42
1e-07
43
1e-07
40
0
40
0
40
0
40
0
40
1
40
1
40
1
40
1
10
38.19469375
20
18.52588888
30
0
10
38.31100423
20
18.56643466
30
0
10
38.4552667
20
18.64814695
30
0
10
38.51483962
20
18.70633486
30
0
0
SPLINE
5
11C
100
AcDbEntity
8
kaguya
6
ByLayer
62
7
370
-1
100
AcDbSpline
210
0
220
0
230
1
70
8
71
3
72
8
73
4
74
0
42
1e-07
43
1e-07
40
0
40
0
40
0
40
0
40
1
40
1
40
1
40
1
10
38.51483962
20
18.70633486
30
0
10
38.57441221
20
18.76452178
30
0
10
38.75676097
20
18.87383989
30
0
10
38.92229788
20
18.95080975
30
0
0
SPLINE
5
11D
100
AcDbEntity
8
kaguya
6
ByLayer
62
7
370
-1
100
AcDbSpline
210
0
220
0
230
1
70
8
71
3
72
8
73
4
74
0
42
1e-07
43
1e-07
40
0
40
0
40
0
40
0
40
1
40
1
40
1
40
1
10
38.92229788
20
18.95080975
30
0
10
39.08783413
20
19.02777994
30
0
10
39.24372151
20
19.11818905
30
0
10
39.26572723
20
19.15162861
30
0
0
SPLINE
5
11E
100
AcDbEntity
8
kaguya
6
ByLayer
62
7
370
-1
100
AcDbSpline
210
0
220
0
230
1
70
8
71
3
72
8
73
4
74
0
42
1e-07
43
1e-07
40
0
40
0
40
0
40
0
40
1
40
1
40
1
40
1
10
39.26572723
20
19.15162861
30
0
10
39.33414481
20
19.25559709
30
0
10
40.17624145
20
19.44587575
30
0
10
40.36295413
20
19.3990141
30
0
0
SPLINE
5
11F
100
AcDbEntity
8
kaguya
6
ByLayer
62
7
370
-1
100
AcDbSpline
210
0
220
0
230
1
70
8
71
3
72
8
73
4
74
0
42
1e-07
43
1e-07
40
0
40
0
40
0
40
0
40
1
40
1
40
1
40
1
10
40.36295413
20
19.3990141
30
0
10
40.53615892
20
19.3555432
30
0
10
40.54048951
20
19.33432816
30
0
10
40.54048951
20
18.49678486
30
0
0
SPLINE
5
120
100
AcDbEntity
8
kaguya
6
ByLayer
62
7
370
-1
100
AcDbSpline
210
0
220
0
230
1
70
8
71
3
72
8
73
4
74
0
42
1e-07
43
1e-07
40
0
40
0
40
0
40
0
40
1
40
1
40
1
40
1
10
40.54048951
20
18.49678486
30
0
10
40.54048951
20
18.02535412
30
0
10
40.51184188
20
17.63821198
30
0
10
40.47646027
20
17.63821198
30
0
0
SPLINE
5
121
100
AcDbEntity
8
kaguya
6
ByLayer
62
7
370
-1
100
AcDbSpline
210
0
220
0
230
1
70
8
71
3
72
8
73
4
74
0
42
1e-07
43
1e-07
40
0
40
0
40
0
40
0
40
1
40
1
40
1
40
1
10
40.47646027
20
17.63821198
30
0
10
40.441078
20
17.63821198
30
0
10
40.39234789
20
17.41007242
30
0
10
40.368775
20
17.12888899
30
0
0
SPLINE
5
122
100
AcDbEntity
8
kaguya
6
ByLayer
62
7
370
-1
100
AcDbSpline
210
0
220
0
230
1
70
8
71
3
72
8
73
4
74
0
42
1e-07
43
1e-07
40
0
40
0
40
0
40
0
40
1
40
1
40
1
40
1
10
40.368775
20
17.12888899
30
0
10
40.32303997
20
16.58336137
30
0
10
40.09344115
20
15.52079767
30
0
10
40.00788337
20
15.45830986
30
0
0
SPLINE
5
123
100
AcDbEntity
8
kaguya
6
ByLayer
62
7
370
-1
100
AcDbSpline
210
0
220
0
230
1
70
8
71
3
72
8
73
4
74
0
42
1e-07
43
1e-07
40
0
40
0
40
0
40
0
40
1
40
1
40
1
40
1
10
40.00788337
20
15.45830986
30
0
10
39.97955122
20
15.43761754
30
0
10
39.91345156
20
15.2207257
30
0
10
39.85945201
20
14.97809122
30
0
0
SPLINE
5
124
100
AcDbEntity
8
kaguya
6
ByLayer
62
7
370
-1
100
AcDbSpline
210
0
220
0
230
1
70
8
71
3
72
8
73
4
74
0
42
1e-07
43
1e-07
40
0
40
0
40
0
40
0
40
1
40
1
40
1
40
1
10
39.85945201
20
14.97809122
30
0
10
39.80545246
20
14.73545641
30
0
10
39.72435661
20
14.49836032
30
0
10
39.67900636
20
14.45130562
30
0
0
SPLINE
5
125
100
AcDbEntity
8
kaguya
6
ByLayer
62
7
370
-1
100
AcDbSpline
210
0
220
0
230
1
70
8
71
3
72
8
73
4
74
0
42
1e-07
43
1e-07
40
0
40
0
40
0
40
0
40
1
40
1
40
1
40
1
10
39.67900636
20
14.45130562
30
0
10
39.63365512
20
14.40425191
30
0
10
39.54873787
20
14.21647366
30
0
10
39.48982924
20
14.03511622
30
0
0
SPLINE
5
126
100
AcDbEntity
8
kaguya
6
ByLayer
62
7
370
-1
100
AcDbSpline
210
0
220
0
230
1
70
8
71
3
72
8
73
4
74
0
42
1e-07
43
1e-07
40
0
40
0
40
0
40
0
40
1
40
1
40
1
40
1
10
39.48982924
20
14.03511622
30
0
10
39.43092061
20
13.85375845
30
0
10
39.34686103
20
13.66872382
30
0
10
39.30356239
20
13.62183676
30
0
0
SPLINE
5
127
100
AcDbEntity
8
kaguya
6
ByLayer
62
7
370
-1
100
AcDbSpline
210
0
220
0
230
1
70
8
71
3
72
8
73
4
74
0
42
1e-07
43
1e-07
40
0
40
0
40
0
40
0
40
1
40
1
40
1
40
1
10
39.30356239
20
13.62183676
30
0
10
39.26026309
20
13.57495069
30
0
10
39.15630946
20
13.399657
30
0
10
39.07363951
20
13.23475138
30
0
0
SPLINE
5
128
100
AcDbEntity
8
kaguya
6
ByLayer
62
7
370
-1
100
AcDbSpline
210
0
220
0
230
1
70
8
71
3
72
8
73
4
74
0
42
1e-07
43
1e-07
40
0
40
0
40
0
40
0
40
1
40
1
40
1
40
1
10
39.07363951
20
13.23475138
30
0
10
38.99097154
20
13.06984675
30
0
10
38.88435448
20
12.89406961
30
0
10
38.83498549
20
12.84184513
30
0
0
SPLINE
5
129
100
AcDbEntity
8
kaguya
6
ByLayer
62
7
370
-1
100
AcDbSpline
210
0
220
0
230
1
70
8
71
3
72
8
73
4
74
0
42
1e-07
43
1e-07
40
0
40
0
40
0
40
0
40
1
40
1
40
1
40
1
10
38.83498549
20
12.84184513
30
0
10
38.59710334
20
12.5902
30
0
10
38.61907078
20
11.28462133
30
0
10
38.86408951
20
11.11596823
30
0
0
SPLINE
5
12A
100
AcDbEntity
8
kaguya
6
ByLayer
62
7
370
-1
100
AcDbSpline
210
0
220
0
230
1
70
8
71
3
72
8
73
4
74
0
42
1e-07
43
1e-07
40
0
40
0
40
0
40
0
40
1
40
1
40
1
40
1
10
38.86408951
20
11.11596823
30
0
10
38.93852827
20
11.06472979
30
0
10
39.04834732
20
10.979932
30
0
10
39.10856473
20
10.92679111
30
0
0
SPLINE
5
12B
100
AcDbEntity
8
kaguya
6
ByLayer
62
7
370
-1
100
AcDbSpline
210
0
220
0
230
1
70
8
71
3
72
8
73
4
74
0
42
1e-07
43
1e-07
40
0
40
0
40
0
40
0
40
1
40
1
40
1
40
1
10
39.10856473
20
10.92679111
30
0
10
39.32468899
20
10.7360587
30
0
10
39.66356863
20
10.64157013
30
0
10
40.13594152
20
10.64157013
30
0
0
SPLINE
5
12C
100
AcDbEntity
8
kaguya
6
ByLayer
62
7
370
-1
100
AcDbSpline
210
0
220
0
230
1
70
8
71
3
72
8
73
4
74
0
42
1e-07
43
1e-07
40
0
40
0
40
0
40
0
40
1
40
1
40
1
40
1
10
40.13594152
20
10.64157013
30
0
10
40.40607688
20
10.64157013
30
0
10
40.61616049
20
10.60820614
30
0
10
40.61616049
20
10.56589948
30
0
0
SPLINE
5
12D
100
AcDbEntity
8
kaguya
6
ByLayer
62
7
370
-1
100
AcDbSpline
210
0
220
0
230
1
70
8
71
3
72
8
73
4
74
0
42
1e-07
43
1e-07
40
0
40
0
40
0
40
0
40
1
40
1
40
1
40
1
10
40.61616049
20
10.56589948
30
0
10
40.61616049
20
10.52451451
30
0
10
40.66759066
20
10.4902285
30
0
10
40.72966663
20
10.4902285
30
0
0
SPLINE
5
12E
100
AcDbEntity
8
kaguya
6
ByLayer
62
7
370
-1
100
AcDbSpline
210
0
220
0
230
1
70
8
71
3
72
8
73
4
74
0
42
1e-07
43
1e-07
40
0
40
0
40
0
40
0
40
1
40
1
40
1
40
1
10
40.72966663
20
10.4902285
30
0
10
40.79174293
20
10.4902285
30
0
10
40.84317277
20
10.52451451
30
0
10
40.84317277
20
10.56589948
30
0
0
SPLINE
5
12F
100
AcDbEntity
8
kaguya
6
ByLayer
62
7
370
-1
100
AcDbSpline
210
0
220
0
230
1
70
8
71
3
72
8
73
4
74
0
42
1e-07
43
1e-07
40
0
40
0
40
0
40
0
40
1
40
1
40
1
40
1
10
40.84317277
20
10.56589948
30
0
10
40.84317277
20
10.60728313
30
0
10
40.96184704
20
10.64157013
30
0
10
41.10802087
20
10.64157013
30
0
0
SPLINE
5
130
100
AcDbEntity
8
kaguya
6
ByLayer
62
7
370
-1
100
AcDbSpline
210
0
220
0
230
1
70
8
71
3
72
8
73
4
74
0
42
1e-07
43
1e-07
40
0
40
0
40
0
40
0
40
1
40
1
40
1
40
1
10
41.10802087
20
10.64157013
30
0
10
41.45143504
20
10.64157013
30
0
10
41.85004006
20
10.81021135
30
0
10
42.07136875
20
11.04902872
30
0
0
SPLINE
5
131
100
AcDbEntity
8
kaguya
6
ByLayer
62
7
370
-1
100
AcDbSpline
210
0
220
0
230
1
70
8
71
3
72
8
73
4
74
0
42
1e-07
43
1e-07
40
0
40
0
40
0
40
0
40
1
40
1
40
1
40
1
10
42.07136875
20
11.04902872
30
0
10
42.22051423
20
11.20995916
30
0
10
42.26724685
20
11.39779615
30
0
10
42.37987288
20
12.31214926
30
0
0
SPLINE
5
132
100
AcDbEntity
8
kaguya
6
ByLayer
62
7
370
-1
100
AcDbSpline
210
0
220
0
230
1
70
8
71
3
72
8
73
4
74
0
42
1e-07
43
1e-07
40
0
40
0
40
0
40
0
40
1
40
1
40
1
40
1
10
42.37987288
20
12.31214926
30
0
10
42.45268276
20
12.9032545
30
0
10
42.53532367
20
13.40309461
30
0
10
42.56613973
20
13.4239285
30
0
0
SPLINE
5
133
100
AcDbEntity
8
kaguya
6
ByLayer
62
7
370
-1
100
AcDbSpline
210
0
220
0
230
1
70
8
71
3
72
8
73
4
74
0
42
1e-07
43
1e-07
40
0
40
0
40
0
40
0
40
1
40
1
40
1
40
1
10
42.56613973
20
13.4239285
30
0
10
42.62986966
20
13.46701561
30
0
10
42.77689489
20
14.63039068
30
0
10
42.84845011
20
15.66494926
30
0
0
SPLINE
5
134
100
AcDbEntity
8
kaguya
6
ByLayer
62
7
370
-1
100
AcDbSpline
210
0
220
0
230
1
70
8
71
3
72
8
73
4
74
0
42
1e-07
43
1e-07
40
0
40
0
40
0
40
0
40
1
40
1
40
1
40
1
10
42.84845011
20
15.66494926
30
0
10
42.874927
20
16.04775256
30
0
10
42.92234008
20
16.3605391
30
0
10
42.95322511
20
16.3605391
30
0
0
SPLINE
5
135
100
AcDbEntity
8
kaguya
6
ByLayer
62
7
370
-1
100
AcDbSpline
210
0
220
0
230
1
70
8
71
3
72
8
73
4
74
0
42
1e-07
43
1e-07
40
0
40
0
40
0
40
0
40
1
40
1
40
1
40
1
10
42.95322511
20
16.3605391
30
0
10
42.98410981
20
16.3605391
30
0
10
43.033789
20
16.85120455
30
0
10
43.06382098
20
17.45194513
30
0
0
SPLINE
5
136
100
AcDbEntity
8
kaguya
6
ByLayer
62
7
370
-1
100
AcDbSpline
210
0
220
0
230
1
70
8
71
3
72
8
73
4
74
0
42
1e-07
43
1e-07
40
0
40
0
40
0
40
0
40
1
40
1
40
1
40
1
10
43.06382098
20
17.45194513
30
0
10
43.09385065
20
18.05268604
30
0
10
43.14601276
20
18.56294491
30
0
10
43.18023739
20
18.58409725
30
0
0
SPLINE
5
137
100
AcDbEntity
8
kaguya
6
ByLayer
62
7
370
-1
100
AcDbSpline
210
0
220
0
230
1
70
8
71
3
72
8
73
4
74
0
42
1e-07
43
1e-07
40
0
40
0
40
0
40
0
40
1
40
1
40
1
40
1
10
43.18023739
20
18.58409725
30
0
10
43.2565258
20
18.63124501
30
0
10
43.95142066
20
18.46412377
30
0
10
44.00388538
20
18.38618899
30
0
0
SPLINE
5
138
100
AcDbEntity
8
kaguya
6
ByLayer
62
7
370
-1
100
AcDbSpline
210
0
220
0
230
1
70
8
71
3
72
8
73
4
74
0
42
1e-07
43
1e-07
40
0
40
0
40
0
40
0
40
1
40
1
40
1
40
1
10
44.00388538
20
18.38618899
30
0
10
44.02467835
20
18.35530033
30
0
10
44.26187674
20
18.27248419
30
0
10
44.53067098
20
18.20283274
30
0
0
SPLINE
5
139
100
AcDbEntity
8
kaguya
6
ByLayer
62
7
370
-1
100
AcDbSpline
210
0
220
0
230
1
70
8
71
3
72
8
73
4
74
0
42
1e-07
43
1e-07
40
0
40
0
40
0
40
0
40
1
40
1
40
1
40
1
10
44.53067098
20
18.20283274
30
0
10
44.79946489
20
18.13318096
30
0
10
45.03375202
20
18.05207323
30
0
10
45.05454598
20
18.02238676
30
0
0
SPLINE
5
13A
100
AcDbEntity
8
kaguya
6
ByLayer
62
7
370
-1
100
AcDbSpline
210
0
220
0
230
1
70
8
71
3
72
8
73
4
74
0
42
1e-07
43
1e-07
40
0
40
0
40
0
40
0
40
1
40
1
40
1
40
1
10
45.05454598
20
18.02238676
30
0
10
45.13256359
20
17.9110012
30
0
10
46.23716599
20
17.63802553
30
0
10
46.60870837
20
17.63821198
30
0
0
SPLINE
5
13B
100
AcDbEntity
8
kaguya
6
ByLayer
62
7
370
-1
100
AcDbSpline
210
0
220
0
230
1
70
8
71
3
72
8
73
4
74
0
42
1e-07
43
1e-07
40
0
40
0
40
0
40
0
40
1
40
1
40
1
40
1
10
46.60870837
20
17.63821198
30
0
10
47.05324213
20
17.63848654
30
0
10
47.76353842
20
17.84469133
30
0
10
47.81944174
20
17.99037247
30
0
0
SPLINE
5
13C
100
AcDbEntity
8
kaguya
6
ByLayer
62
7
370
-1
100
AcDbSpline
210
0
220
0
230
1
70
8
71
3
72
8
73
4
74
0
42
1e-07
43
1e-07
40
0
40
0
40
0
40
0
40
1
40
1
40
1
40
1
10
47.81944174
20
17.99037247
30
0
10
47.84032579
20
18.04479376
30
0
10
47.89437682
20
18.09149173
30
0
10
47.94167902
20
18.09223687
30
0
0
SPLINE
5
13D
100
AcDbEntity
8
kaguya
6
ByLayer
62
7
370
-1
100
AcDbSpline
210
0
220
0
230
1
70
8
71
3
72
8
73
4
74
0
42
1e-07
43
1e-07
40
0
40
0
40
0
40
0
40
1
40
1
40
1
40
1
10
47.94167902
20
18.09223687
30
0
10
47.98898155
20
18.09303118
30
0
10
48.16322749
20
18.2117632
30
0
10
48.32876473
20
18.35708497
30
0
0
SPLINE
5
13E
100
AcDbEntity
8
kaguya
6
ByLayer
62
7
370
-1
100
AcDbSpline
210
0
220
0
230
1
70
8
71
3
72
8
73
4
74
0
42
1e-07
43
1e-07
40
0
40
0
40
0
40
0
40
1
40
1
40
1
40
1
10
48.32876473
20
18.35708497
30
0
10
48.49430065
20
18.50240806
30
0
10
48.70713844
20
18.64168258
30
0
10
48.80025223
20
18.6655891
30
0
0
SPLINE
5
13F
100
AcDbEntity
8
kaguya
6
ByLayer
62
7
370
-1
100
AcDbSpline
210
0
220
0
230
1
70
8
71
3
72
8
73
4
74
0
42
1e-07
43
1e-07
40
0
40
0
40
0
40
0
40
1
40
1
40
1
40
1
10
48.80025223
20
18.6655891
30
0
10
48.89336668
20
18.6894943
30
0
10
48.96905614
20
18.73640281
30
0
10
48.96905614
20
18.7703641
30
0
0
SPLINE
5
140
100
AcDbEntity
8
kaguya
6
ByLayer
62
7
370
-1
100
AcDbSpline
210
0
220
0
230
1
70
8
71
3
72
8
73
4
74
0
42
1e-07
43
1e-07
40
0
40
0
40
0
40
0
40
1
40
1
40
1
40
1
10
48.96905614
20
18.7703641
30
0
10
48.96905614
20
18.80432506
30
0
10
49.16474977
20
18.88750321
30
0
10
49.40270848
20
18.95663062
30
0
0
SPLINE
5
141
100
AcDbEntity
8
kaguya
6
ByLayer
62
7
370
-1
100
AcDbSpline
210
0
220
0
230
1
70
8
71
3
72
8
73
4
74
0
42
1e-07
43
1e-07
40
0
40
0
40
0
40
0
40
1
40
1
40
1
40
1
10
49.40270848
20
18.95663062
30
0
10
49.64066785
20
19.02575902
30
0
10
49.85059306
20
19.10760826
30
0
10
49.87128538
20
19.1370766
30
0
0
SPLINE
5
142
100
AcDbEntity
8
kaguya
6
ByLayer
62
7
370
-1
100
AcDbSpline
210
0
220
0
230
1
70
8
71
3
72
8
73
4
74
0
42
1e-07
43
1e-07
40
0
40
0
40
0
40
0
40
1
40
1
40
1
40
1
10
49.87128538
20
19.1370766
30
0
10
49.89197671
20
19.16654494
30
0
10
50.14621696
20
19.25267824
30
0
10
50.43590614
20
19.32916399
30
0
0
SPLINE
5
143
100
AcDbEntity
8
kaguya
6
ByLayer
62
7
370
-1
100
AcDbSpline
210
0
220
0
230
1
70
8
71
3
72
8
73
4
74
0
42
1e-07
43
1e-07
40
0
40
0
40
0
40
0
40
1
40
1
40
1
40
1
10
50.43590614
20
19.32916399
30
0
10
50.72559565
20
19.40564974
30
0
10
50.97983458
20
19.48957303
30
0
10
51.00052723
20
19.51543051
30
0
0
SPLINE
5
144
100
AcDbEntity
8
kaguya
6
ByLayer
62
7
370
-1
100
AcDbSpline
210
0
220
0
230
1
70
8
71
3
72
8
73
4
74
0
42
1e-07
43
1e-07
40
0
40
0
40
0
40
0
40
1
40
1
40
1
40
1
10
51.00052723
20
19.51543051
30
0
10
51.02121955
20
19.54128832
30
0
10
51.28257493
20
19.64376751
30
0
10
51.58261027
20
19.74244312
30
0
0
SPLINE
5
145
100
AcDbEntity
8
kaguya
6
ByLayer
62
7
370
-1
100
AcDbSpline
210
0
220
0
230
1
70
8
71
3
72
8
73
4
74
0
42
1e-07
43
1e-07
40
0
40
0
40
0
40
0
40
1
40
1
40
1
40
1
10
51.58261027
20
19.74244312
30
0
10
51.88264594
20
19.84111807
30
0
10
52.12976875
20
19.94302438
30
0
10
52.12976875
20
19.96945573
30
0
0
SPLINE
5
146
100
AcDbEntity
8
kaguya
6
ByLayer
62
7
370
-1
100
AcDbSpline
210
0
220
0
230
1
70
8
71
3
72
8
73
4
74
0
42
1e-07
43
1e-07
40
0
40
0
40
0
40
0
40
1
40
1
40
1
40
1
10
52.12976875
20
19.96945573
30
0
10
52.12976875
20
19.99588774
30
0
10
52.26940825
20
20.07993511
30
0
10
52.44118348
20
20.15572225
30
0
0
SPLINE
5
147
100
AcDbEntity
8
kaguya
6
ByLayer
62
7
370
-1
100
AcDbSpline
210
0
220
0
230
1
70
8
71
3
72
8
73
4
74
0
42
1e-07
43
1e-07
40
0
40
0
40
0
40
0
40
1
40
1
40
1
40
1
10
52.44118348
20
20.15572225
30
0
10
52.84143586
20
20.33231251
30
0
10
53.03199799
20
20.49826126
30
0
10
53.03199799
20
20.66795551
30
0
0
SPLINE
5
148
100
AcDbEntity
8
kaguya
6
ByLayer
62
7
370
-1
100
AcDbSpline
210
0
220
0
230
1
70
8
71
3
72
8
73
4
74
0
42
1e-07
43
1e-07
40
0
40
0
40
0
40
0
40
1
40
1
40
1
40
1
10
53.03199799
20
20.66795551
30
0
10
53.03199799
20
20.85774643
30
0
10
52.78674628
20
21.73287277
30
0
10
52.72058326
20
21.77973475
30
0
0
SPLINE
5
149
100
AcDbEntity
8
kaguya
6
ByLayer
62
7
370
-1
100
AcDbSpline
210
0
220
0
230
1
70
8
71
3
72
8
73
4
74
0
42
1e-07
43
1e-07
40
0
40
0
40
0
40
0
40
1
40
1
40
1
40
1
10
52.72058326
20
21.77973475
30
0
10
52.69044733
20
21.80107816
30
0
10
52.60608514
20
22.05531808
30
0
10
52.53431674
20
22.34435551
30
0
0
SPLINE
5
14A
100
AcDbEntity
8
kaguya
6
ByLayer
62
7
370
-1
100
AcDbSpline
210
0
220
0
230
1
70
8
71
3
72
8
73
4
74
0
42
1e-07
43
1e-07
40
0
40
0
40
0
40
0
40
1
40
1
40
1
40
1
10
52.53431674
20
22.34435551
30
0
10
52.46254801
20
22.63339294
30
0
10
52.37054368
20
22.89236902
30
0
10
52.32767701
20
22.92061801
30
0
0
SPLINE
5
14B
100
AcDbEntity
8
kaguya
6
ByLayer
62
7
370
-1
100
AcDbSpline
210
0
220
0
230
1
70
8
71
3
72
8
73
4
74
0
42
1e-07
43
1e-07
40
0
40
0
40
0
40
0
40
1
40
1
40
1
40
1
10
52.32767701
20
22.92061801
30
0
10
52.22441638
20
22.9886716
30
0
10
52.22657623
20
23.50415239
30
0
10
52.33058761
20
23.56964122
30
0
0
SPLINE
5
14C
100
AcDbEntity
8
kaguya
6
ByLayer
62
7
370
-1
100
AcDbSpline
210
0
220
0
230
1
70
8
71
3
72
8
73
4
74
0
42
1e-07
43
1e-07
40
0
40
0
40
0
40
0
40
1
40
1
40
1
40
1
10
52.33058761
20
23.56964122
30
0
10
52.37545441
20
23.59789021
30
0
10
52.47072508
20
23.83195492
30
0
10
52.54304788
20
24.09060562
30
0
0
SPLINE
5
14D
100
AcDbEntity
8
kaguya
6
ByLayer
62
7
370
-1
100
AcDbSpline
210
0
220
0
230
1
70
8
71
3
72
8
73
4
74
0
42
1e-07
43
1e-07
40
0
40
0
40
0
40
0
40
1
40
1
40
1
40
1
10
52.54304788
20
24.09060562
30
0
10
52.61537167
20
24.34925632
30
0
10
52.69904713
20
24.56209312
30
0
10
52.72931473
20
24.56209312
30
0
0
SPLINE
5
14E
100
AcDbEntity
8
kaguya
6
ByLayer
62
7
370
-1
100
AcDbSpline
210
0
220
0
230
1
70
8
71
3
72
8
73
4
74
0
42
1e-07
43
1e-07
40
0
40
0
40
0
40
0
40
1
40
1
40
1
40
1
10
52.72931473
20
24.56209312
30
0
10
52.759582
20
24.56209312
30
0
10
52.84371583
20
24.85773649
30
0
10
52.91558125
20
25.21984747
30
0
0
SPLINE
5
14F
100
AcDbEntity
8
kaguya
6
ByLayer
62
7
370
-1
100
AcDbSpline
210
0
220
0
230
1
70
8
71
3
72
8
73
4
74
0
42
1e-07
43
1e-07
40
0
40
0
40
0
40
0
40
1
40
1
40
1
40
1
10
52.91558125
20
25.21984747
30
0
10
52.98744568
20
25.58195911
30
0
10
53.07213655
20
25.89474466
30
0
10
53.10184777
20
25.91543698
30
0
0
SPLINE
5
150
100
AcDbEntity
8
kaguya
6
ByLayer
62
7
370
-1
100
AcDbSpline
210
0
220
0
230
1
70
8
71
3
72
8
73
4
74
0
42
1e-07
43
1e-07
40
0
40
0
40
0
40
0
40
1
40
1
40
1
40
1
10
53.10184777
20
25.91543698
30
0
10
53.16815335
20
25.96161322
30
0
10
53.40744163
20
27.30388525
30
0
10
53.40744163
20
27.62676187
30
0
0
SPLINE
5
151
100
AcDbEntity
8
kaguya
6
ByLayer
62
7
370
-1
100
AcDbSpline
210
0
220
0
230
1
70
8
71
3
72
8
73
4
74
0
42
1e-07
43
1e-07
40
0
40
0
40
0
40
0
40
1
40
1
40
1
40
1
10
53.40744163
20
27.62676187
30
0
10
53.40744163
20
27.75543019
30
0
10
53.45175535
20
27.87431863
30
0
10
53.50348549
20
27.89160997
30
0
0
SPLINE
5
152
100
AcDbEntity
8
kaguya
6
ByLayer
62
7
370
-1
100
AcDbSpline
210
0
220
0
230
1
70
8
71
3
72
8
73
4
74
0
42
1e-07
43
1e-07
40
0
40
0
40
0
40
0
40
1
40
1
40
1
40
1
10
53.50348549
20
27.89160997
30
0
10
53.63763643
20
27.93645169
30
0
10
53.63187067
20
33.97912294
30
0
10
53.49766462
20
34.02385774
30
0
0
SPLINE
5
153
100
AcDbEntity
8
kaguya
6
ByLayer
62
7
370
-1
100
AcDbSpline
210
0
220
0
230
1
70
8
71
3
72
8
73
4
74
0
42
1e-07
43
1e-07
40
0
40
0
40
0
40
0
40
1
40
1
40
1
40
1
10
53.49766462
20
34.02385774
30
0
10
53.44294864
20
34.04209618
30
0
10
53.40744163
20
34.20517888
30
0
10
53.40744163
20
34.4342266
30
0
0
SPLINE
5
154
100
AcDbEntity
8
kaguya
6
ByLayer
62
7
370
-1
100
AcDbSpline
210
0
220
0
230
1
70
8
71
3
72
8
73
4
74
0
42
1e-07
43
1e-07
40
0
40
0
40
0
40
0
40
1
40
1
40
1
40
1
10
53.40744163
20
34.4342266
30
0
10
53.40744163
20
34.86458917
30
0
10
53.18802892
20
36.24260581
30
0
10
53.11057924
20
36.29980372
30
0
0
SPLINE
5
155
100
AcDbEntity
8
kaguya
6
ByLayer
62
7
370
-1
100
AcDbSpline
210
0
220
0
230
1
70
8
71
3
72
8
73
4
74
0
42
1e-07
43
1e-07
40
0
40
0
40
0
40
0
40
1
40
1
40
1
40
1
10
53.11057924
20
36.29980372
30
0
10
53.08256092
20
36.32049604
30
0
10
52.99649923
20
36.62616514
30
0
10
52.91849152
20
36.97793062
30
0
0
SPLINE
5
156
100
AcDbEntity
8
kaguya
6
ByLayer
62
7
370
-1
100
AcDbSpline
210
0
220
0
230
1
70
8
71
3
72
8
73
4
74
0
42
1e-07
43
1e-07
40
0
40
0
40
0
40
0
40
1
40
1
40
1
40
1
10
52.91849152
20
36.97793062
30
0
10
52.84048513
20
37.3296961
30
0
10
52.7564305
20
37.63245592
30
0
10
52.72931473
20
37.65314725
30
0
0
SPLINE
5
157
100
AcDbEntity
8
kaguya
6
ByLayer
62
7
370
-1
100
AcDbSpline
210
0
220
0
230
1
70
8
71
3
72
8
73
4
74
0
42
1e-07
43
1e-07
40
0
40
0
40
0
40
0
40
1
40
1
40
1
40
1
10
52.72931473
20
37.65314725
30
0
10
52.70219962
20
37.67383957
30
0
10
52.61879608
20
37.93810654
30
0
10
52.54595848
20
38.23814122
30
0
0
SPLINE
5
158
100
AcDbEntity
8
kaguya
6
ByLayer
62
7
370
-1
100
AcDbSpline
210
0
220
0
230
1
70
8
71
3
72
8
73
4
74
0
42
1e-07
43
1e-07
40
0
40
0
40
0
40
0
40
1
40
1
40
1
40
1
10
52.54595848
20
38.23814122
30
0
10
52.47311956
20
38.53817656
30
0
10
52.39124161
20
38.7823891
30
0
10
52.36260223
20
38.7823891
30
0
0
SPLINE
5
159
100
AcDbEntity
8
kaguya
6
ByLayer
62
7
370
-1
100
AcDbSpline
210
0
220
0
230
1
70
8
71
3
72
8
73
4
74
0
42
1e-07
43
1e-07
40
0
40
0
40
0
40
0
40
1
40
1
40
1
40
1
10
52.36260223
20
38.7823891
30
0
10
52.33396252
20
38.7823891
30
0
10
52.24489453
20
39.03662803
30
0
10
52.16760424
20
39.34700986
30
0
0
SPLINE
5
15A
100
AcDbEntity
8
kaguya
6
ByLayer
62
7
370
-1
100
AcDbSpline
210
0
220
0
230
1
70
8
71
3
72
8
73
4
74
0
42
1e-07
43
1e-07
40
0
40
0
40
0
40
0
40
1
40
1
40
1
40
1
10
52.16760424
20
39.34700986
30
0
10
52.09031362
20
39.6573907
30
0
10
52.00559767
20
39.91163062
30
0
10
51.97842712
20
39.91163062
30
0
0
SPLINE
5
15B
100
AcDbEntity
8
kaguya
6
ByLayer
62
7
370
-1
100
AcDbSpline
210
0
220
0
230
1
70
8
71
3
72
8
73
4
74
0
42
1e-07
43
1e-07
40
0
40
0
40
0
40
0
40
1
40
1
40
1
40
1
10
51.97842712
20
39.91163062
30
0
10
51.95125558
20
39.91163062
30
0
10
51.84875461
20
40.16587054
30
0
10
51.75141451
20
40.47625138
30
0
0
SPLINE
5
15C
100
AcDbEntity
8
kaguya
6
ByLayer
62
7
370
-1
100
AcDbSpline
210
0
220
0
230
1
70
8
71
3
72
8
73
4
74
0
42
1e-07
43
1e-07
40
0
40
0
40
0
40
0
40
1
40
1
40
1
40
1
10
51.75141451
20
40.47625138
30
0
10
51.6540754
20
40.78663222
30
0
10
51.55053823
20
41.04087247
30
0
10
51.51858136
20
41.04087247
30
0
0
SPLINE
5
15D
100
AcDbEntity
8
kaguya
6
ByLayer
62
7
370
-1
100
AcDbSpline
210
0
220
0
230
1
70
8
71
3
72
8
73
4
74
0
42
1e-07
43
1e-07
40
0
40
0
40
0
40
0
40
1
40
1
40
1
40
1
10
51.51858136
20
41.04087247
30
0
10
51.48662449
20
41.04087247
30
0
10
51.40198576
20
41.24368222
30
0
10
51.33231451
20
41.49198676
30
0
0
SPLINE
5
15E
100
AcDbEntity
8
kaguya
6
ByLayer
62
7
370
-1
100
AcDbSpline
210
0
220
0
230
1
70
8
71
3
72
8
73
4
74
0
42
1e-07
43
1e-07
40
0
40
0
40
0
40
0
40
1
40
1
40
1
40
1
10
51.33231451
20
41.49198676
30
0
10
51.26264425
20
41.74029163
30
0
10
51.17615785
20
41.94310138
30
0
10
51.14022712
20
41.94310138
30
0
0
SPLINE
5
15F
100
AcDbEntity
8
kaguya
6
ByLayer
62
7
370
-1
100
AcDbSpline
210
0
220
0
230
1
70
8
71
3
72
8
73
4
74
0
42
1e-07
43
1e-07
40
0
40
0
40
0
40
0
40
1
40
1
40
1
40
1
10
51.14022712
20
41.94310138
30
0
10
51.10429639
20
41.94310138
30
0
10
51.07619788
20
41.97738838
30
0
10
51.07619788
20
42.01877236
30
0
0
SPLINE
5
160
100
AcDbEntity
8
kaguya
6
ByLayer
62
7
370
-1
100
AcDbSpline
210
0
220
0
230
1
70
8
71
3
72
8
73
4
74
0
42
1e-07
43
1e-07
40
0
40
0
40
0
40
0
40
1
40
1
40
1
40
1
10
51.07619788
20
42.01877236
30
0
10
51.07619788
20
42.15674008
30
0
10
51.23999536
20
42.09580294
30
0
10
51.27992701
20
41.94310138
30
0
0
SPLINE
5
161
100
AcDbEntity
8
kaguya
6
ByLayer
62
7
370
-1
100
AcDbSpline
210
0
220
0
230
1
70
8
71
3
72
8
73
4
74
0
42
1e-07
43
1e-07
40
0
40
0
40
0
40
0
40
1
40
1
40
1
40
1
10
51.27992701
20
41.94310138
30
0
10
51.30157204
20
41.86033309
30
0
10
51.34920721
20
41.79175975
30
0
10
51.38470201
20
41.79175975
30
0
0
SPLINE
5
162
100
AcDbEntity
8
kaguya
6
ByLayer
62
7
370
-1
100
AcDbSpline
210
0
220
0
230
1
70
8
71
3
72
8
73
4
74
0
42
1e-07
43
1e-07
40
0
40
0
40
0
40
0
40
1
40
1
40
1
40
1
10
51.38470201
20
41.79175975
30
0
10
51.42019714
20
41.79175975
30
0
10
51.50513386
20
41.68178329
30
0
10
51.57387913
20
41.54728486
30
0
0
SPLINE
5
163
100
AcDbEntity
8
kaguya
6
ByLayer
62
7
370
-1
100
AcDbSpline
210
0
220
0
230
1
70
8
71
3
72
8
73
4
74
0
42
1e-07
43
1e-07
40
0
40
0
40
0
40
0
40
1
40
1
40
1
40
1
10
51.57387913
20
41.54728486
30
0
10
51.64262539
20
41.41278643
30
0
10
51.73716247
20
41.27943607
30
0
10
51.78633973
20
41.25042247
30
0
0
SPLINE
5
164
100
AcDbEntity
8
kaguya
6
ByLayer
62
7
370
-1
100
AcDbSpline
210
0
220
0
230
1
70
8
71
3
72
8
73
4
74
0
42
1e-07
43
1e-07
40
0
40
0
40
0
40
0
40
1
40
1
40
1
40
1
10
51.78633973
20
41.25042247
30
0
10
51.83551666
20
41.22140854
30
0
10
51.92458498
20
41.05566835
30
0
10
51.98133739
20
40.88370997
30
0
0
SPLINE
5
165
100
AcDbEntity
8
kaguya
6
ByLayer
62
7
370
-1
100
AcDbSpline
210
0
220
0
230
1
70
8
71
3
72
8
73
4
74
0
42
1e-07
43
1e-07
40
0
40
0
40
0
40
0
40
1
40
1
40
1
40
1
10
51.98133739
20
40.88370997
30
0
10
52.03808815
20
40.71175126
30
0
10
52.12175371
20
40.55608168
30
0
10
52.17051451
20
40.53737035
30
0
0
SPLINE
5
166
100
AcDbEntity
8
kaguya
6
ByLayer
62
7
370
-1
100
AcDbSpline
210
0
220
0
230
1
70
8
71
3
72
8
73
4
74
0
42
1e-07
43
1e-07
40
0
40
0
40
0
40
0
40
1
40
1
40
1
40
1
10
52.17051451
20
40.53737035
30
0
10
52.2192763
20
40.51865869
30
0
10
52.32172678
20
40.35447049
30
0
10
52.39752712
20
40.17065785
30
0
0
SPLINE
5
167
100
AcDbEntity
8
kaguya
6
ByLayer
62
7
370
-1
100
AcDbSpline
210
0
220
0
230
1
70
8
71
3
72
8
73
4
74
0
42
1e-07
43
1e-07
40
0
40
0
40
0
40
0
40
1
40
1
40
1
40
1
10
52.39752712
20
40.17065785
30
0
10
52.47332746
20
39.9868462
30
0
10
52.56087184
20
39.83595997
30
0
10
52.58961451
20
39.83595997
30
0
0
SPLINE
5
168
100
AcDbEntity
8
kaguya
6
ByLayer
62
7
370
-1
100
AcDbSpline
210
0
220
0
230
1
70
8
71
3
72
8
73
4
74
0
42
1e-07
43
1e-07
40
0
40
0
40
0
40
0
40
1
40
1
40
1
40
1
10
52.58961451
20
39.83595997
30
0
10
52.61835817
20
39.83595997
30
0
10
52.70147428
20
39.66743689
30
0
10
52.77588136
20
39.460516
30
0
0
SPLINE
5
169
100
AcDbEntity
8
kaguya
6
ByLayer
62
7
370
-1
100
AcDbSpline
210
0
220
0
230
1
70
8
71
3
72
8
73
4
74
0
42
1e-07
43
1e-07
40
0
40
0
40
0
40
0
40
1
40
1
40
1
40
1
10
52.77588136
20
39.460516
30
0
10
52.8502891
20
39.25359511
30
0
10
52.93527235
20
39.08216176
30
0
10
52.96505848
20
39.08216176
30
0
0
SPLINE
5
16A
100
AcDbEntity
8
kaguya
6
ByLayer
62
7
370
-1
100
AcDbSpline
210
0
220
0
230
1
70
8
71
3
72
8
73
4
74
0
42
1e-07
43
1e-07
40
0
40
0
40
0
40
0
40
1
40
1
40
1
40
1
10
52.96505848
20
39.08216176
30
0
10
52.99484527
20
39.08216176
30
0
10
53.07729346
20
38.93078218
30
0
10
53.14841473
20
38.74455361
30
0
0
SPLINE
5
16B
100
AcDbEntity
8
kaguya
6
ByLayer
62
7
370
-1
100
AcDbSpline
210
0
220
0
230
1
70
8
71
3
72
8
73
4
74
0
42
1e-07
43
1e-07
40
0
40
0
40
0
40
0
40
1
40
1
40
1
40
1
10
53.14841473
20
38.74455361
30
0
10
53.219536
20
38.55832504
30
0
10
53.30272999
20
38.40694513
30
0
10
53.33177098
20
38.40694513
30
0
0
SPLINE
5
16C
100
AcDbEntity
8
kaguya
6
ByLayer
62
7
370
-1
100
AcDbSpline
210
0
220
0
230
1
70
8
71
3
72
8
73
4
74
0
42
1e-07
43
1e-07
40
0
40
0
40
0
40
0
40
1
40
1
40
1
40
1
10
53.33177098
20
38.40694513
30
0
10
53.36080966
20
38.40694513
30
0
10
53.44762507
20
38.2112515
30
0
10
53.52676864
20
37.97329312
30
0
0
SPLINE
5
16D
100
AcDbEntity
8
kaguya
6
ByLayer
62
7
370
-1
100
AcDbSpline
210
0
220
0
230
1
70
8
71
3
72
8
73
4
74
0
42
1e-07
43
1e-07
40
0
40
0
40
0
40
0
40
1
40
1
40
1
40
1
10
53.52676864
20
37.97329312
30
0
10
53.60591254
20
37.73533375
30
0
10
53.70829042
20
37.50826537
30
0
10
53.75378125
20
37.46688073
30
0
0
SPLINE
5
16E
100
AcDbEntity
8
kaguya
6
ByLayer
62
7
370
-1
100
AcDbSpline
210
0
220
0
230
1
70
8
71
3
72
8
73
4
74
0
42
1e-07
43
1e-07
40
0
40
0
40
0
40
0
40
1
40
1
40
1
40
1
10
53.75378125
20
37.46688073
30
0
10
53.79927142
20
37.42549675
30
0
10
53.89698508
20
37.19551612
30
0
10
53.96915212
20
36.95755774
30
0
0
SPLINE
5
16F
100
AcDbEntity
8
kaguya
6
ByLayer
62
7
370
-1
100
AcDbSpline
210
0
220
0
230
1
70
8
71
3
72
8
73
4
74
0
42
1e-07
43
1e-07
40
0
40
0
40
0
40
0
40
1
40
1
40
1
40
1
10
53.96915212
20
36.95755774
30
0
10
54.04132015
20
36.71959837
30
0
10
54.12123691
20
36.52390573
30
0
10
54.14959777
20
36.52390573
30
0
0
SPLINE
5
170
100
AcDbEntity
8
kaguya
6
ByLayer
62
7
370
-1
100
AcDbSpline
210
0
220
0
230
1
70
8
71
3
72
8
73
4
74
0
42
1e-07
43
1e-07
40
0
40
0
40
0
40
0
40
1
40
1
40
1
40
1
10
54.14959777
20
36.52390573
30
0
10
54.2023057
20
36.52390573
30
0
10
54.4610125
20
35.7268762
30
0
10
54.4610125
20
35.56346812
30
0
0
SPLINE
5
171
100
AcDbEntity
8
kaguya
6
ByLayer
62
7
370
-1
100
AcDbSpline
210
0
220
0
230
1
70
8
71
3
72
8
73
4
74
0
42
1e-07
43
1e-07
40
0
40
0
40
0
40
0
40
1
40
1
40
1
40
1
10
54.4610125
20
35.56346812
30
0
10
54.4610125
20
35.5137853
30
0
10
54.48895525
20
35.47324513
30
0
10
54.52213114
20
35.47324513
30
0
0
SPLINE
5
172
100
AcDbEntity
8
kaguya
6
ByLayer
62
7
370
-1
100
AcDbSpline
210
0
220
0
230
1
70
8
71
3
72
8
73
4
74
0
42
1e-07
43
1e-07
40
0
40
0
40
0
40
0
40
1
40
1
40
1
40
1
10
54.52213114
20
35.47324513
30
0
10
54.55530736
20
35.47324513
30
0
10
54.64602271
20
35.25038194
30
0
10
54.72295
20
34.98138475
30
0
0
SPLINE
5
173
100
AcDbEntity
8
kaguya
6
ByLayer
62
7
370
-1
100
AcDbSpline
210
0
220
0
230
1
70
8
71
3
72
8
73
4
74
0
42
1e-07
43
1e-07
40
0
40
0
40
0
40
0
40
1
40
1
40
1
40
1
10
54.72295
20
34.98138475
30
0
10
54.79987729
20
34.71238789
30
0
10
54.88415533
20
34.49243497
30
0
10
54.91212712
20
34.49243497
30
0
0
SPLINE
5
174
100
AcDbEntity
8
kaguya
6
ByLayer
62
7
370
-1
100
AcDbSpline
210
0
220
0
230
1
70
8
71
3
72
8
73
4
74
0
42
1e-07
43
1e-07
40
0
40
0
40
0
40
0
40
1
40
1
40
1
40
1
10
54.91212712
20
34.49243497
30
0
10
54.94009891
20
34.49243497
30
0
10
55.02740371
20
34.21393543
30
0
10
55.10421451
20
33.87251611
30
0
0
SPLINE
5
175
100
AcDbEntity
8
kaguya
6
ByLayer
62
7
370
-1
100
AcDbSpline
210
0
220
0
230
1
70
8
71
3
72
8
73
4
74
0
42
1e-07
43
1e-07
40
0
40
0
40
0
40
0
40
1
40
1
40
1
40
1
10
55.10421451
20
33.87251611
30
0
10
55.18102531
20
33.53109679
30
0
10
55.27128658
20
33.23227849
30
0
10
55.30503337
20
33.20894122
30
0
0
SPLINE
5
176
100
AcDbEntity
8
kaguya
6
ByLayer
62
7
370
-1
100
AcDbSpline
210
0
220
0
230
1
70
8
71
3
72
8
73
4
74
0
42
1e-07
43
1e-07
40
0
40
0
40
0
40
0
40
1
40
1
40
1
40
1
10
55.30503337
20
33.20894122
30
0
10
55.33878115
20
33.18560362
30
0
10
55.42418911
20
32.89998796
30
0
10
55.49421049
20
32.57155975
30
0
0
SPLINE
5
177
100
AcDbEntity
8
kaguya
6
ByLayer
62
7
370
-1
100
AcDbSpline
210
0
220
0
230
1
70
8
71
3
72
8
73
4
74
0
42
1e-07
43
1e-07
40
0
40
0
40
0
40
0
40
1
40
1
40
1
40
1
10
55.49421049
20
32.57155975
30
0
10
55.56423088
20
32.24313154
30
0
10
55.64366056
20
31.95487093
30
0
10
55.67174587
20
31.93417861
30
0
0
SPLINE
5
178
100
AcDbEntity
8
kaguya
6
ByLayer
62
7
370
-1
100
AcDbSpline
210
0
220
0
230
1
70
8
71
3
72
8
73
4
74
0
42
1e-07
43
1e-07
40
0
40
0
40
0
40
0
40
1
40
1
40
1
40
1
10
55.67174587
20
31.93417861
30
0
10
55.69983118
20
31.91348728
30
0
10
55.80213052
20
31.45643728
30
0
10
55.89875848
20
30.91844323
30
0
0
SPLINE
5
179
100
AcDbEntity
8
kaguya
6
ByLayer
62
7
370
-1
100
AcDbSpline
210
0
220
0
230
1
70
8
71
3
72
8
73
4
74
0
42
1e-07
43
1e-07
40
0
40
0
40
0
40
0
40
1
40
1
40
1
40
1
10
55.89875848
20
30.91844323
30
0
10
55.9953871
20
30.38044819
30
0
10
56.09590477
20
29.92339918
30
0
10
56.12286049
20
29.90270785
30
0
0
SPLINE
5
17A
100
AcDbEntity
8
kaguya
6
ByLayer
62
7
370
-1
100
AcDbSpline
210
0
220
0
230
1
70
8
71
3
72
8
73
4
74
0
42
1e-07
43
1e-07
40
0
40
0
40
0
40
0
40
1
40
1
40
1
40
1
10
56.12286049
20
29.90270785
30
0
10
56.22737182
20
29.82247891
30
0
10
56.37367303
20
27.99984205
30
0
10
56.37024598
20
26.81766622
30
0
0
SPLINE
5
17B
100
AcDbEntity
8
kaguya
6
ByLayer
62
7
370
-1
100
AcDbSpline
210
0
220
0
230
1
70
8
71
3
72
8
73
4
74
0
42
1e-07
43
1e-07
40
0
40
0
40
0
40
0
40
1
40
1
40
1
40
1
10
56.37024598
20
26.81766622
30
0
10
56.36679979
20
25.62791458
30
0
10
56.25280294
20
24.42502597
30
0
10
56.13450223
20
24.33799111
30
0
0
SPLINE
5
17C
100
AcDbEntity
8
kaguya
6
ByLayer
62
7
370
-1
100
AcDbSpline
210
0
220
0
230
1
70
8
71
3
72
8
73
4
74
0
42
1e-07
43
1e-07
40
0
40
0
40
0
40
0
40
1
40
1
40
1
40
1
10
56.13450223
20
24.33799111
30
0
10
56.06792671
20
24.28901053
30
0
10
55.81016074
20
23.33809309
30
0
10
55.85219152
20
23.29606198
30
0
0
SPLINE
5
17D
100
AcDbEntity
8
kaguya
6
ByLayer
62
7
370
-1
100
AcDbSpline
210
0
220
0
230
1
70
8
71
3
72
8
73
4
74
0
42
1e-07
43
1e-07
40
0
40
0
40
0
40
0
40
1
40
1
40
1
40
1
10
55.85219152
20
23.29606198
30
0
10
55.92030385
20
23.22795064
30
0
10
56.02187884
20
23.3724022
30
0
10
56.11994989
20
23.67441622
30
0
0
SPLINE
5
17E
100
AcDbEntity
8
kaguya
6
ByLayer
62
7
370
-1
100
AcDbSpline
210
0
220
0
230
1
70
8
71
3
72
8
73
4
74
0
42
1e-07
43
1e-07
40
0
40
0
40
0
40
0
40
1
40
1
40
1
40
1
10
56.11994989
20
23.67441622
30
0
10
56.17773652
20
23.85237334
30
0
10
56.26414372
20
24.03809602
30
0
10
56.31203761
20
24.08769535
30
0
0
SPLINE
5
17F
100
AcDbEntity
8
kaguya
6
ByLayer
62
7
370
-1
100
AcDbSpline
210
0
220
0
230
1
70
8
71
3
72
8
73
4
74
0
42
1e-07
43
1e-07
40
0
40
0
40
0
40
0
40
1
40
1
40
1
40
1
10
56.31203761
20
24.08769535
30
0
10
56.35993216
20
24.13729237
30
0
10
56.44288063
20
24.40867546
30
0
10
56.49539386
20
24.6901516
30
0
0
SPLINE
5
180
100
AcDbEntity
8
kaguya
6
ByLayer
62
7
370
-1
100
AcDbSpline
210
0
220
0
230
1
70
8
71
3
72
8
73
4
74
0
42
1e-07
43
1e-07
40
0
40
0
40
0
40
0
40
1
40
1
40
1
40
1
10
56.49539386
20
24.6901516
30
0
10
56.54790709
20
24.97162543
30
0
10
56.61770671
20
25.22030188
30
0
10
56.65255636
20
25.24313062
30
0
0
SPLINE
5
181
100
AcDbEntity
8
kaguya
6
ByLayer
62
7
370
-1
100
AcDbSpline
210
0
220
0
230
1
70
8
71
3
72
8
73
4
74
0
42
1e-07
43
1e-07
40
0
40
0
40
0
40
0
40
1
40
1
40
1
40
1
10
56.65255636
20
25.24313062
30
0
10
56.74791811
20
25.30560061
30
0
10
56.94275968
20
27.20005471
30
0
10
56.94359788
20
28.07787649
30
0
0
SPLINE
5
182
100
AcDbEntity
8
kaguya
6
ByLayer
62
7
370
-1
100
AcDbSpline
210
0
220
0
230
1
70
8
71
3
72
8
73
4
74
0
42
1e-07
43
1e-07
40
0
40
0
40
0
40
0
40
1
40
1
40
1
40
1
10
56.94359788
20
28.07787649
30
0
10
56.94419485
20
28.71294796
30
0
10
56.96416744
20
28.84913698
30
0
10
57.05710402
20
28.84913698
30
0
0
SPLINE
5
183
100
AcDbEntity
8
kaguya
6
ByLayer
62
7
370
-1
100
AcDbSpline
210
0
220
0
230
1
70
8
71
3
72
8
73
4
74
0
42
1e-07
43
1e-07
40
0
40
0
40
0
40
0
40
1
40
1
40
1
40
1
10
57.05710402
20
28.84913698
30
0
10
57.14570374
20
28.84913698
30
0
10
57.17061049
20
28.74792433
30
0
10
57.17061049
20
28.36891801
30
0
0
SPLINE
5
184
100
AcDbEntity
8
kaguya
6
ByLayer
62
7
370
-1
100
AcDbSpline
210
0
220
0
230
1
70
8
71
3
72
8
73
4
74
0
42
1e-07
43
1e-07
40
0
40
0
40
0
40
0
40
1
40
1
40
1
40
1
10
57.17061049
20
28.36891801
30
0
10
57.17061049
20
28.06718581
30
0
10
57.2029099
20
27.87502186
30
0
10
57.25792288
20
27.85668475
30
0
0
SPLINE
5
185
100
AcDbEntity
8
kaguya
6
ByLayer
62
7
370
-1
100
AcDbSpline
210
0
220
0
230
1
70
8
71
3
72
8
73
4
74
0
42
1e-07
43
1e-07
40
0
40
0
40
0
40
0
40
1
40
1
40
1
40
1
10
57.25792288
20
27.85668475
30
0
10
57.38946253
20
27.81283765
30
0
10
57.39517813
20
23.04305758
30
0
10
57.26374375
20
22.99919926
30
0
0
SPLINE
5
186
100
AcDbEntity
8
kaguya
6
ByLayer
62
7
370
-1
100
AcDbSpline
210
0
220
0
230
1
70
8
71
3
72
8
73
4
74
0
42
1e-07
43
1e-07
40
0
40
0
40
0
40
0
40
1
40
1
40
1
40
1
10
57.26374375
20
22.99919926
30
0
10
57.21201361
20
22.98193795
30
0
10
57.17061049
20
22.8555793
30
0
10
57.17061049
20
22.71688888
30
0
0
SPLINE
5
187
100
AcDbEntity
8
kaguya
6
ByLayer
62
7
370
-1
100
AcDbSpline
210
0
220
0
230
1
70
8
71
3
72
8
73
4
74
0
42
1e-07
43
1e-07
40
0
40
0
40
0
40
0
40
1
40
1
40
1
40
1
10
57.17061049
20
22.71688888
30
0
10
57.17061049
20
22.36098652
30
0
10
56.95213828
20
21.36939031
30
0
10
56.86792723
20
21.34026187
30
0
0
SPLINE
5
188
100
AcDbEntity
8
kaguya
6
ByLayer
62
7
370
-1
100
AcDbSpline
210
0
220
0
230
1
70
8
71
3
72
8
73
4
74
0
42
1e-07
43
1e-07
40
0
40
0
40
0
40
0
40
1
40
1
40
1
40
1
10
56.86792723
20
21.34026187
30
0
10
56.82930832
20
21.3269038
30
0
10
56.77744717
20
21.20202421
30
0
10
56.75151049
20
21.06377236
30
0
0
SPLINE
5
189
100
AcDbEntity
8
kaguya
6
ByLayer
62
7
370
-1
100
AcDbSpline
210
0
220
0
230
1
70
8
71
3
72
8
73
4
74
0
42
1e-07
43
1e-07
40
0
40
0
40
0
40
0
40
1
40
1
40
1
40
1
10
56.75151049
20
21.06377236
30
0
10
56.7255748
20
20.9255215
30
0
10
56.64116806
20
20.74384429
30
0
10
56.56233337
20
20.65922437
30
0
0
SPLINE
5
18A
100
AcDbEntity
8
kaguya
6
ByLayer
62
7
370
-1
100
AcDbSpline
210
0
220
0
230
1
70
8
71
3
72
8
73
4
74
0
42
1e-07
43
1e-07
40
0
40
0
40
0
40
0
40
1
40
1
40
1
40
1
10
56.56233337
20
20.65922437
30
0
10
56.48349868
20
20.5746061
30
0
10
56.41681261
20
20.47425046
30
0
10
56.41681261
20
20.43803263
30
0
0
SPLINE
5
18B
100
AcDbEntity
8
kaguya
6
ByLayer
62
7
370
-1
100
AcDbSpline
210
0
220
0
230
1
70
8
71
3
72
8
73
4
74
0
42
1e-07
43
1e-07
40
0
40
0
40
0
40
0
40
1
40
1
40
1
40
1
10
56.41681261
20
20.43803263
30
0
10
56.41681261
20
20.33714965
30
0
10
55.88761405
20
19.83031816
30
0
10
55.72995424
20
19.78027861
30
0
0
SPLINE
5
18C
100
AcDbEntity
8
kaguya
6
ByLayer
62
7
370
-1
100
AcDbSpline
210
0
220
0
230
1
70
8
71
3
72
8
73
4
74
0
42
1e-07
43
1e-07
40
0
40
0
40
0
40
0
40
1
40
1
40
1
40
1
10
55.72995424
20
19.78027861
30
0
10
55.58415958
20
19.73400436
30
0
10
55.53637459
20
19.59401176
30
0
10
55.665925
20
19.59401176
30
0
0
SPLINE
5
18D
100
AcDbEntity
8
kaguya
6
ByLayer
62
7
370
-1
100
AcDbSpline
210
0
220
0
230
1
70
8
71
3
72
8
73
4
74
0
42
1e-07
43
1e-07
40
0
40
0
40
0
40
0
40
1
40
1
40
1
40
1
10
55.665925
20
19.59401176
30
0
10
55.83363298
20
19.59401176
30
0
10
56.3358052
20
19.86145729
30
0
10
56.37315625
20
19.96945573
30
0
0
SPLINE
5
18E
100
AcDbEntity
8
kaguya
6
ByLayer
62
7
370
-1
100
AcDbSpline
210
0
220
0
230
1
70
8
71
3
72
8
73
4
74
0
42
1e-07
43
1e-07
40
0
40
0
40
0
40
0
40
1
40
1
40
1
40
1
10
56.37315625
20
19.96945573
30
0
10
56.41820191
20
20.09970739
30
0
10
56.56591519
20
20.33559073
30
0
10
56.68457098
20
20.46713698
30
0
0
SPLINE
5
18F
100
AcDbEntity
8
kaguya
6
ByLayer
62
7
370
-1
100
AcDbSpline
210
0
220
0
230
1
70
8
71
3
72
8
73
4
74
0
42
1e-07
43
1e-07
40
0
40
0
40
0
40
0
40
1
40
1
40
1
40
1
10
56.68457098
20
20.46713698
30
0
10
56.72787028
20
20.51513977
30
0
10
56.81241232
20
20.70196993
30
0
10
56.8708375
20
20.88332638
30
0
0
SPLINE
5
190
100
AcDbEntity
8
kaguya
6
ByLayer
62
7
370
-1
100
AcDbSpline
210
0
220
0
230
1
70
8
71
3
72
8
73
4
74
0
42
1e-07
43
1e-07
40
0
40
0
40
0
40
0
40
1
40
1
40
1
40
1
10
56.8708375
20
20.88332638
30
0
10
56.92926367
20
21.06468415
30
0
10
56.99788816
20
21.22934656
30
0
10
57.02508973
20
21.25003888
30
0
0
SPLINE
5
191
100
AcDbEntity
8
kaguya
6
ByLayer
62
7
370
-1
100
AcDbSpline
210
0
220
0
230
1
70
8
71
3
72
8
73
4
74
0
42
1e-07
43
1e-07
40
0
40
0
40
0
40
0
40
1
40
1
40
1
40
1
10
57.02508973
20
21.25003888
30
0
10
57.08242624
20
21.29365531
30
0
10
57.32195212
20
22.2179599
30
0
10
57.32195212
20
22.39674301
30
0
0
SPLINE
5
192
100
AcDbEntity
8
kaguya
6
ByLayer
62
7
370
-1
100
AcDbSpline
210
0
220
0
230
1
70
8
71
3
72
8
73
4
74
0
42
1e-07
43
1e-07
40
0
40
0
40
0
40
0
40
1
40
1
40
1
40
1
10
57.32195212
20
22.39674301
30
0
10
57.32195212
20
22.46307268
30
0
10
57.3525286
20
22.52846812
30
0
10
57.39180223
20
22.5422641
30
0
0
SPLINE
5
193
100
AcDbEntity
8
kaguya
6
ByLayer
62
7
370
-1
100
AcDbSpline
210
0
220
0
230
1
70
8
71
3
72
8
73
4
74
0
42
1e-07
43
1e-07
40
0
40
0
40
0
40
0
40
1
40
1
40
1
40
1
10
57.39180223
20
22.5422641
30
0
10
57.43107652
20
22.5560581
30
0
10
57.52102462
20
23.02550686
30
0
10
57.58971049
20
23.58419323
30
0
0
SPLINE
5
194
100
AcDbEntity
8
kaguya
6
ByLayer
62
7
370
-1
100
AcDbSpline
210
0
220
0
230
1
70
8
71
3
72
8
73
4
74
0
42
1e-07
43
1e-07
40
0
40
0
40
0
40
0
40
1
40
1
40
1
40
1
10
57.58971049
20
23.58419323
30
0
10
57.77602552
20
25.09966444
30
0
10
57.64983715
20
28.35508771
30
0
10
57.39762277
20
28.54936399
30
0
0
SPLINE
5
195
100
AcDbEntity
8
kaguya
6
ByLayer
62
7
370
-1
100
AcDbSpline
210
0
220
0
230
1
70
8
71
3
72
8
73
4
74
0
42
1e-07
43
1e-07
40
0
40
0
40
0
40
0
40
1
40
1
40
1
40
1
10
57.39762277
20
28.54936399
30
0
10
57.37075846
20
28.57005532
30
0
10
57.28998601
20
28.9247182
30
0
10
57.21717712
20
29.33808676
30
0
0
SPLINE
5
196
100
AcDbEntity
8
kaguya
6
ByLayer
62
7
370
-1
100
AcDbSpline
210
0
220
0
230
1
70
8
71
3
72
8
73
4
74
0
42
1e-07
43
1e-07
40
0
40
0
40
0
40
0
40
1
40
1
40
1
40
1
10
57.21717712
20
29.33808676
30
0
10
57.14436724
20
29.75145532
30
0
10
57.05639716
20
30.10855459
30
0
10
57.02508973
20
30.12972013
30
0
0
SPLINE
5
197
100
AcDbEntity
8
kaguya
6
ByLayer
62
7
370
-1
100
AcDbSpline
210
0
220
0
230
1
70
8
71
3
72
8
73
4
74
0
42
1e-07
43
1e-07
40
0
40
0
40
0
40
0
40
1
40
1
40
1
40
1
10
57.02508973
20
30.12972013
30
0
10
56.99378296
20
30.15088468
30
0
10
56.90695732
20
30.48034117
30
0
10
56.83009174
20
30.86314513
30
0
0
SPLINE
5
198
100
AcDbEntity
8
kaguya
6
ByLayer
62
7
370
-1
100
AcDbSpline
210
0
220
0
230
1
70
8
71
3
72
8
73
4
74
0
42
1e-07
43
1e-07
40
0
40
0
40
0
40
0
40
1
40
1
40
1
40
1
10
56.83009174
20
30.86314513
30
0
10
56.75322583
20
31.24594843
30
0
10
56.66575603
20
31.55873497
30
0
10
56.63509375
20
31.55873497
30
0
0
SPLINE
5
199
100
AcDbEntity
8
kaguya
6
ByLayer
62
7
370
-1
100
AcDbSpline
210
0
220
0
230
1
70
8
71
3
72
8
73
4
74
0
42
1e-07
43
1e-07
40
0
40
0
40
0
40
0
40
1
40
1
40
1
40
1
10
56.63509375
20
31.55873497
30
0
10
56.60443147
20
31.55873497
30
0
10
56.51961949
20
31.82300161
30
0
10
56.44882723
20
32.14372861
30
0
0
SPLINE
5
19A
100
AcDbEntity
8
kaguya
6
ByLayer
62
7
370
-1
100
AcDbSpline
210
0
220
0
230
1
70
8
71
3
72
8
73
4
74
0
42
1e-07
43
1e-07
40
0
40
0
40
0
40
0
40
1
40
1
40
1
40
1
10
56.44882723
20
32.14372861
30
0
10
56.37803464
20
32.4644566
30
0
10
56.29756843
20
32.74295482
30
0
10
56.26838125
20
32.76364747
30
0
0
SPLINE
5
19B
100
AcDbEntity
8
kaguya
6
ByLayer
62
7
370
-1
100
AcDbSpline
210
0
220
0
230
1
70
8
71
3
72
8
73
4
74
0
42
1e-07
43
1e-07
40
0
40
0
40
0
40
0
40
1
40
1
40
1
40
1
10
56.26838125
20
32.76364747
30
0
10
56.23919341
20
32.78433979
30
0
10
56.15388874
20
33.05572288
30
0
10
56.07920413
20
33.36610372
30
0
0
SPLINE
5
19C
100
AcDbEntity
8
kaguya
6
ByLayer
62
7
370
-1
100
AcDbSpline
210
0
220
0
230
1
70
8
71
3
72
8
73
4
74
0
42
1e-07
43
1e-07
40
0
40
0
40
0
40
0
40
1
40
1
40
1
40
1
10
56.07920413
20
33.36610372
30
0
10
56.00452051
20
33.67648522
30
0
10
55.91909407
20
33.94495705
30
0
10
55.89002701
20
33.96564937
30
0
0
SPLINE
5
19D
100
AcDbEntity
8
kaguya
6
ByLayer
62
7
370
-1
100
AcDbSpline
210
0
220
0
230
1
70
8
71
3
72
8
73
4
74
0
42
1e-07
43
1e-07
40
0
40
0
40
0
40
0
40
1
40
1
40
1
40
1
10
55.89002701
20
33.96564937
30
0
10
55.86096094
20
33.98634169
30
0
10
55.7609749
20
34.30203784
30
0
10
55.665925
20
34.66414948
30
0
0
SPLINE
5
19E
100
AcDbEntity
8
kaguya
6
ByLayer
62
7
370
-1
100
AcDbSpline
210
0
220
0
230
1
70
8
71
3
72
8
73
4
74
0
42
1e-07
43
1e-07
40
0
40
0
40
0
40
0
40
1
40
1
40
1
40
1
10
55.665925
20
34.66414948
30
0
10
55.57087411
20
35.02626013
30
0
10
55.46738512
20
35.3219035
30
0
10
55.43891239
20
35.3219035
30
0
0
SPLINE
5
19F
100
AcDbEntity
8
kaguya
6
ByLayer
62
7
370
-1
100
AcDbSpline
210
0
220
0
230
1
70
8
71
3
72
8
73
4
74
0
42
1e-07
43
1e-07
40
0
40
0
40
0
40
0
40
1
40
1
40
1
40
1
10
55.43891239
20
35.3219035
30
0
10
55.410439
20
35.3219035
30
0
10
55.32666256
20
35.54185642
30
0
10
55.24973527
20
35.81085361
30
0
0
SPLINE
5
1A0
100
AcDbEntity
8
kaguya
6
ByLayer
62
7
370
-1
100
AcDbSpline
210
0
220
0
230
1
70
8
71
3
72
8
73
4
74
0
42
1e-07
43
1e-07
40
0
40
0
40
0
40
0
40
1
40
1
40
1
40
1
10
55.24973527
20
35.81085361
30
0
10
55.17280831
20
36.07985047
30
0
10
55.08520156
20
36.29980372
30
0
10
55.05764788
20
36.29980372
30
0
0
SPLINE
5
1A1
100
AcDbEntity
8
kaguya
6
ByLayer
62
7
370
-1
100
AcDbSpline
210
0
220
0
230
1
70
8
71
3
72
8
73
4
74
0
42
1e-07
43
1e-07
40
0
40
0
40
0
40
0
40
1
40
1
40
1
40
1
10
55.05764788
20
36.29980372
30
0
10
55.03009453
20
36.29980372
30
0
10
54.94644382
20
36.46123609
30
0
10
54.87138136
20
36.65778475
30
0
0
SPLINE
5
1A2
100
AcDbEntity
8
kaguya
6
ByLayer
62
7
370
-1
100
AcDbSpline
210
0
220
0
230
1
70
8
71
3
72
8
73
4
74
0
42
1e-07
43
1e-07
40
0
40
0
40
0
40
0
40
1
40
1
40
1
40
1
10
54.87138136
20
36.65778475
30
0
10
54.79631857
20
36.85433341
30
0
10
54.69034963
20
37.06000822
30
0
10
54.63563761
20
37.11472024
30
0
0
SPLINE
5
1A3
100
AcDbEntity
8
kaguya
6
ByLayer
62
7
370
-1
100
AcDbSpline
210
0
220
0
230
1
70
8
71
3
72
8
73
4
74
0
42
1e-07
43
1e-07
40
0
40
0
40
0
40
0
40
1
40
1
40
1
40
1
10
54.63563761
20
37.11472024
30
0
10
54.58092526
20
37.16943226
30
0
10
54.53668348
20
37.27600477
30
0
10
54.53668348
20
37.35337426
30
0
0
SPLINE
5
1A4
100
AcDbEntity
8
kaguya
6
ByLayer
62
7
370
-1
100
AcDbSpline
210
0
220
0
230
1
70
8
71
3
72
8
73
4
74
0
42
1e-07
43
1e-07
40
0
40
0
40
0
40
0
40
1
40
1
40
1
40
1
10
54.53668348
20
37.35337426
30
0
10
54.53668348
20
37.43074408
30
0
10
54.50239615
20
37.5140638
30
0
10
54.4610125
20
37.53964111
30
0
0
SPLINE
5
1A5
100
AcDbEntity
8
kaguya
6
ByLayer
62
7
370
-1
100
AcDbSpline
210
0
220
0
230
1
70
8
71
3
72
8
73
4
74
0
42
1e-07
43
1e-07
40
0
40
0
40
0
40
0
40
1
40
1
40
1
40
1
10
54.4610125
20
37.53964111
30
0
10
54.41962786
20
37.56521842
30
0
10
54.38534152
20
37.65000961
30
0
10
54.38534152
20
37.72590763
30
0
0
SPLINE
5
1A6
100
AcDbEntity
8
kaguya
6
ByLayer
62
7
370
-1
100
AcDbSpline
210
0
220
0
230
1
70
8
71
3
72
8
73
4
74
0
42
1e-07
43
1e-07
40
0
40
0
40
0
40
0
40
1
40
1
40
1
40
1
10
54.38534152
20
37.72590763
30
0
10
54.38534152
20
37.80180664
30
0
10
54.34329952
20
37.87981072
30
0
10
54.28929799
20
37.90053274
30
0
0
SPLINE
5
1A7
100
AcDbEntity
8
kaguya
6
ByLayer
62
7
370
-1
100
AcDbSpline
210
0
220
0
230
1
70
8
71
3
72
8
73
4
74
0
42
1e-07
43
1e-07
40
0
40
0
40
0
40
0
40
1
40
1
40
1
40
1
10
54.28929799
20
37.90053274
30
0
10
54.23529745
20
37.92125476
30
0
10
54.1445623
20
38.07693853
30
0
10
54.08847913
20
38.24687236
30
0
0
SPLINE
5
1A8
100
AcDbEntity
8
kaguya
6
ByLayer
62
7
370
-1
100
AcDbSpline
210
0
220
0
230
1
70
8
71
3
72
8
73
4
74
0
42
1e-07
43
1e-07
40
0
40
0
40
0
40
0
40
1
40
1
40
1
40
1
10
54.08847913
20
38.24687236
30
0
10
54.03239629
20
38.41680619
30
0
10
53.96451958
20
38.55828676
30
0
10
53.9371375
20
38.55828676
30
0
0
SPLINE
5
1A9
100
AcDbEntity
8
kaguya
6
ByLayer
62
7
370
-1
100
AcDbSpline
210
0
220
0
230
1
70
8
71
3
72
8
73
4
74
0
42
1e-07
43
1e-07
40
0
40
0
40
0
40
0
40
1
40
1
40
1
40
1
10
53.9371375
20
38.55828676
30
0
10
53.90975344
20
38.55828676
30
0
10
53.80515928
20
38.73392596
30
0
10
53.70721462
20
38.95119301
30
0
0
SPLINE
5
1AA
100
AcDbEntity
8
kaguya
6
ByLayer
62
7
370
-1
100
AcDbSpline
210
0
220
0
230
1
70
8
71
3
72
8
73
4
74
0
42
1e-07
43
1e-07
40
0
40
0
40
0
40
0
40
1
40
1
40
1
40
1
10
53.70721462
20
38.95119301
30
0
10
53.60926897
20
39.16846006
30
0
10
53.4850012
20
39.39127804
30
0
10
53.43072511
20
39.44596399
30
0
0
SPLINE
5
1AB
100
AcDbEntity
8
kaguya
6
ByLayer
62
7
370
-1
100
AcDbSpline
210
0
220
0
230
1
70
8
71
3
72
8
73
4
74
0
42
1e-07
43
1e-07
40
0
40
0
40
0
40
0
40
1
40
1
40
1
40
1
10
53.43072511
20
39.44596399
30
0
10
53.37644869
20
39.50064994
30
0
10
53.33177098
20
39.59348356
30
0
10
53.33177098
20
39.65260372
30
0
0
SPLINE
5
1AC
100
AcDbEntity
8
kaguya
6
ByLayer
62
7
370
-1
100
AcDbSpline
210
0
220
0
230
1
70
8
71
3
72
8
73
4
74
0
42
1e-07
43
1e-07
40
0
40
0
40
0
40
0
40
1
40
1
40
1
40
1
10
53.33177098
20
39.65260372
30
0
10
53.33177098
20
39.71172355
30
0
10
53.27322436
20
39.82140664
30
0
10
53.20080223
20
39.89416801
30
0
0
SPLINE
5
1AD
100
AcDbEntity
8
kaguya
6
ByLayer
62
7
370
-1
100
AcDbSpline
210
0
220
0
230
1
70
8
71
3
72
8
73
4
74
0
42
1e-07
43
1e-07
40
0
40
0
40
0
40
0
40
1
40
1
40
1
40
1
10
53.20080223
20
39.89416801
30
0
10
53.12837977
20
39.96692872
30
0
10
53.00592997
20
40.16973847
30
0
10
52.92722299
20
40.34528263
30
0
0
SPLINE
5
1AE
100
AcDbEntity
8
kaguya
6
ByLayer
62
7
370
-1
100
AcDbSpline
210
0
220
0
230
1
70
8
71
3
72
8
73
4
74
0
42
1e-07
43
1e-07
40
0
40
0
40
0
40
0
40
1
40
1
40
1
40
1
10
52.92722299
20
40.34528263
30
0
10
52.84851403
20
40.52082613
30
0
10
52.75939291
20
40.66251823
30
0
10
52.72931473
20
40.66251823
30
0
0
SPLINE
5
1AF
100
AcDbEntity
8
kaguya
6
ByLayer
62
7
370
-1
100
AcDbSpline
210
0
220
0
230
1
70
8
71
3
72
8
73
4
74
0
42
1e-07
43
1e-07
40
0
40
0
40
0
40
0
40
1
40
1
40
1
40
1
10
52.72931473
20
40.66251823
30
0
10
52.69923622
20
40.66251823
30
0
10
52.63271581
20
40.76730709
30
0
10
52.58088337
20
40.89244111
30
0
0
SPLINE
5
1B0
100
AcDbEntity
8
kaguya
6
ByLayer
62
7
370
-1
100
AcDbSpline
210
0
220
0
230
1
70
8
71
3
72
8
73
4
74
0
42
1e-07
43
1e-07
40
0
40
0
40
0
40
0
40
1
40
1
40
1
40
1
10
52.58088337
20
40.89244111
30
0
10
52.52905192
20
41.01757414
30
0
10
52.44606352
20
41.14469377
30
0
10
52.39752712
20
41.17475149
30
0
0
SPLINE
5
1B1
100
AcDbEntity
8
kaguya
6
ByLayer
62
7
370
-1
100
AcDbSpline
210
0
220
0
230
1
70
8
71
3
72
8
73
4
74
0
42
1e-07
43
1e-07
40
0
40
0
40
0
40
0
40
1
40
1
40
1
40
1
10
52.39752712
20
41.17475149
30
0
10
52.34899171
20
41.20480855
30
0
10
52.24846612
20
41.35425862
30
0
10
52.17633538
20
41.50944937
30
0
0
SPLINE
5
1B2
100
AcDbEntity
8
kaguya
6
ByLayer
62
7
370
-1
100
AcDbSpline
210
0
220
0
230
1
70
8
71
3
72
8
73
4
74
0
42
1e-07
43
1e-07
40
0
40
0
40
0
40
0
40
1
40
1
40
1
40
1
10
52.17633538
20
41.50944937
30
0
10
52.10420365
20
41.66464012
30
0
10
52.02175645
20
41.79175975
30
0
10
51.99006886
20
41.79175975
30
0
0
SPLINE
5
1B3
100
AcDbEntity
8
kaguya
6
ByLayer
62
7
370
-1
100
AcDbSpline
210
0
220
0
230
1
70
8
71
3
72
8
73
4
74
0
42
1e-07
43
1e-07
40
0
40
0
40
0
40
0
40
1
40
1
40
1
40
1
10
51.99006886
20
41.79175975
30
0
10
51.95838094
20
41.79175975
30
0
10
51.85631821
20
41.96028349
30
0
10
51.76596652
20
42.16720372
30
0
0
SPLINE
5
1B4
100
AcDbEntity
8
kaguya
6
ByLayer
62
7
370
-1
100
AcDbSpline
210
0
220
0
230
1
70
8
71
3
72
8
73
4
74
0
42
1e-07
43
1e-07
40
0
40
0
40
0
40
0
40
1
40
1
40
1
40
1
10
51.76596652
20
42.16720372
30
0
10
51.67561615
20
42.37412428
30
0
10
51.57288451
20
42.54555763
30
0
10
51.53604364
20
42.54555763
30
0
0
SPLINE
5
1B5
100
AcDbEntity
8
kaguya
6
ByLayer
62
7
370
-1
100
AcDbSpline
210
0
220
0
230
1
70
8
71
3
72
8
73
4
74
0
42
1e-07
43
1e-07
40
0
40
0
40
0
40
0
40
1
40
1
40
1
40
1
10
51.53604364
20
42.54555763
30
0
10
51.49920211
20
42.54555763
30
0
10
51.41269063
20
42.66265054
30
0
10
51.34395625
20
42.80749513
30
0
0
SPLINE
5
1B6
100
AcDbEntity
8
kaguya
6
ByLayer
62
7
370
-1
100
AcDbSpline
210
0
220
0
230
1
70
8
71
3
72
8
73
4
74
0
42
1e-07
43
1e-07
40
0
40
0
40
0
40
0
40
1
40
1
40
1
40
1
10
51.34395625
20
42.80749513
30
0
10
51.27522286
20
42.95234005
30
0
10
51.19551763
20
43.0718776
30
0
10
51.16642087
20
43.07234323
30
0
0
SPLINE
5
1B7
100
AcDbEntity
8
kaguya
6
ByLayer
62
7
370
-1
100
AcDbSpline
210
0
220
0
230
1
70
8
71
3
72
8
73
4
74
0
42
1e-07
43
1e-07
40
0
40
0
40
0
40
0
40
1
40
1
40
1
40
1
10
51.16642087
20
43.07234323
30
0
10
51.13732411
20
43.07281711
30
0
10
51.04759216
20
43.20705385
30
0
10
50.96851261
20
43.37211622
30
0
0
SPLINE
5
1B8
100
AcDbEntity
8
kaguya
6
ByLayer
62
7
370
-1
100
AcDbSpline
210
0
220
0
230
1
70
8
71
3
72
8
73
4
74
0
42
1e-07
43
1e-07
40
0
40
0
40
0
40
0
40
1
40
1
40
1
40
1
10
50.96851261
20
43.37211622
30
0
10
50.88943108
20
43.53717826
30
0
10
50.80172368
20
43.67479948
30
0
10
50.77351462
20
43.67479948
30
0
0
SPLINE
5
1B9
100
AcDbEntity
8
kaguya
6
ByLayer
62
7
370
-1
100
AcDbSpline
210
0
220
0
230
1
70
8
71
3
72
8
73
4
74
0
42
1e-07
43
1e-07
40
0
40
0
40
0
40
0
40
1
40
1
40
1
40
1
10
50.77351462
20
43.67479948
30
0
10
50.74530457
20
43.67479948
30
0
10
50.65943098
20
43.79189305
30
0
10
50.58142723
20
43.93673698
30
0
0
SPLINE
5
1BA
100
AcDbEntity
8
kaguya
6
ByLayer
62
7
370
-1
100
AcDbSpline
210
0
220
0
230
1
70
8
71
3
72
8
73
4
74
0
42
1e-07
43
1e-07
40
0
40
0
40
0
40
0
40
1
40
1
40
1
40
1
10
50.58142723
20
43.93673698
30
0
10
50.50342315
20
44.08158157
30
0
10
50.41493629
20
44.20158475
30
0
10
50.38351864
20
44.20158475
30
0
0
SPLINE
5
1BB
100
AcDbEntity
8
kaguya
6
ByLayer
62
7
370
-1
100
AcDbSpline
210
0
220
0
230
1
70
8
71
3
72
8
73
4
74
0
42
1e-07
43
1e-07
40
0
40
0
40
0
40
0
40
1
40
1
40
1
40
1
10
50.38351864
20
44.20158475
30
0
10
50.35210099
20
44.20158475
30
0
10
50.27523442
20
44.31867766
30
0
10
50.21471473
20
44.46352225
30
0
0
SPLINE
5
1BC
100
AcDbEntity
8
kaguya
6
ByLayer
62
7
370
-1
100
AcDbSpline
210
0
220
0
230
1
70
8
71
3
72
8
73
4
74
0
42
1e-07
43
1e-07
40
0
40
0
40
0
40
0
40
1
40
1
40
1
40
1
10
50.21471473
20
44.46352225
30
0
10
50.15419471
20
44.60836684
30
0
10
50.07625036
20
44.72545975
30
0
10
50.04008962
20
44.72545975
30
0
0
SPLINE
5
1BD
100
AcDbEntity
8
kaguya
6
ByLayer
62
7
370
-1
100
AcDbSpline
210
0
220
0
230
1
70
8
71
3
72
8
73
4
74
0
42
1e-07
43
1e-07
40
0
40
0
40
0
40
0
40
1
40
1
40
1
40
1
10
50.04008962
20
44.72545975
30
0
10
50.00392954
20
44.72545975
30
0
10
49.8973534
20
44.87974927
30
0
10
49.80434587
20
45.0659785
30
0
0
SPLINE
5
1BE
100
AcDbEntity
8
kaguya
6
ByLayer
62
7
370
-1
100
AcDbSpline
210
0
220
0
230
1
70
8
71
3
72
8
73
4
74
0
42
1e-07
43
1e-07
40
0
40
0
40
0
40
0
40
1
40
1
40
1
40
1
10
49.80434587
20
45.0659785
30
0
10
49.711339
20
45.25220707
30
0
10
49.61128894
20
45.40312135
30
0
10
49.58315413
20
45.40358698
30
0
0
SPLINE
5
1BF
100
AcDbEntity
8
kaguya
6
ByLayer
62
7
370
-1
100
AcDbSpline
210
0
220
0
230
1
70
8
71
3
72
8
73
4
74
0
42
1e-07
43
1e-07
40
0
40
0
40
0
40
0
40
1
40
1
40
1
40
1
10
49.58315413
20
45.40358698
30
0
10
49.55501866
20
45.40406185
30
0
10
49.46723569
20
45.5412082
30
0
10
49.38815614
20
45.70627024
30
0
0
SPLINE
5
1C0
100
AcDbEntity
8
kaguya
6
ByLayer
62
7
370
-1
100
AcDbSpline
210
0
220
0
230
1
70
8
71
3
72
8
73
4
74
0
42
1e-07
43
1e-07
40
0
40
0
40
0
40
0
40
1
40
1
40
1
40
1
10
49.38815614
20
45.70627024
30
0
10
49.30907494
20
45.87133228
30
0
10
49.22025907
20
46.00604323
30
0
10
49.19024788
20
46.00604323
30
0
0
SPLINE
5
1C1
100
AcDbEntity
8
kaguya
6
ByLayer
62
7
370
-1
100
AcDbSpline
210
0
220
0
230
1
70
8
71
3
72
8
73
4
74
0
42
1e-07
43
1e-07
40
0
40
0
40
0
40
0
40
1
40
1
40
1
40
1
10
49.19024788
20
46.00604323
30
0
10
49.16023669
20
46.00604323
30
0
10
49.08144688
20
46.12313581
30
0
10
49.0127125
20
46.26798073
30
0
0
SPLINE
5
1C2
100
AcDbEntity
8
kaguya
6
ByLayer
62
7
370
-1
100
AcDbSpline
210
0
220
0
230
1
70
8
71
3
72
8
73
4
74
0
42
1e-07
43
1e-07
40
0
40
0
40
0
40
0
40
1
40
1
40
1
40
1
10
49.0127125
20
46.26798073
30
0
10
48.94397911
20
46.41282532
30
0
10
48.85965157
20
46.5328285
30
0
10
48.82644598
20
46.5328285
30
0
0
SPLINE
5
1C3
100
AcDbEntity
8
kaguya
6
ByLayer
62
7
370
-1
100
AcDbSpline
210
0
220
0
230
1
70
8
71
3
72
8
73
4
74
0
42
1e-07
43
1e-07
40
0
40
0
40
0
40
0
40
1
40
1
40
1
40
1
10
48.82644598
20
46.5328285
30
0
10
48.79324006
20
46.5328285
30
0
10
48.70242406
20
46.68420742
30
0
10
48.62562712
20
46.87043698
30
0
0
SPLINE
5
1C4
100
AcDbEntity
8
kaguya
6
ByLayer
62
7
370
-1
100
AcDbSpline
210
0
220
0
230
1
70
8
71
3
72
8
73
4
74
0
42
1e-07
43
1e-07
40
0
40
0
40
0
40
0
40
1
40
1
40
1
40
1
10
48.62562712
20
46.87043698
30
0
10
48.54882919
20
47.05666522
30
0
10
48.46306747
20
47.21095573
30
0
10
48.43353973
20
47.21095573
30
0
0
SPLINE
5
1C5
100
AcDbEntity
8
kaguya
6
ByLayer
62
7
370
-1
100
AcDbSpline
210
0
220
0
230
1
70
8
71
3
72
8
73
4
74
0
42
1e-07
43
1e-07
40
0
40
0
40
0
40
0
40
1
40
1
40
1
40
1
10
48.43353973
20
47.21095573
30
0
10
48.40401067
20
47.21095573
30
0
10
48.30295444
20
47.37947848
30
0
10
48.20943739
20
47.58639937
30
0
0
SPLINE
5
1C6
100
AcDbEntity
8
kaguya
6
ByLayer
62
7
370
-1
100
AcDbSpline
210
0
220
0
230
1
70
8
71
3
72
8
73
4
74
0
42
1e-07
43
1e-07
40
0
40
0
40
0
40
0
40
1
40
1
40
1
40
1
10
48.20943739
20
47.58639937
30
0
10
48.11592133
20
47.79332026
30
0
10
48.01663093
20
47.96184301
30
0
10
47.98824598
20
47.96184301
30
0
0
SPLINE
5
1C7
100
AcDbEntity
8
kaguya
6
ByLayer
62
7
370
-1
100
AcDbSpline
210
0
220
0
230
1
70
8
71
3
72
8
73
4
74
0
42
1e-07
43
1e-07
40
0
40
0
40
0
40
0
40
1
40
1
40
1
40
1
10
47.98824598
20
47.96184301
30
0
10
47.9598607
20
47.96184301
30
0
10
47.87892127
20
48.11613352
30
0
10
47.8078
20
48.30236176
30
0
0
SPLINE
5
1C8
100
AcDbEntity
8
kaguya
6
ByLayer
62
7
370
-1
100
AcDbSpline
210
0
220
0
230
1
70
8
71
3
72
8
73
4
74
0
42
1e-07
43
1e-07
40
0
40
0
40
0
40
0
40
1
40
1
40
1
40
1
10
47.8078
20
48.30236176
30
0
10
47.73667774
20
48.48859132
30
0
10
47.65131928
20
48.63997024
30
0
10
47.62153348
20
48.63997024
30
0
0
SPLINE
5
1C9
100
AcDbEntity
8
kaguya
6
ByLayer
62
7
370
-1
100
AcDbSpline
210
0
220
0
230
1
70
8
71
3
72
8
73
4
74
0
42
1e-07
43
1e-07
40
0
40
0
40
0
40
0
40
1
40
1
40
1
40
1
10
47.62153348
20
48.63997024
30
0
10
47.59174636
20
48.63997024
30
0
10
47.5067641
20
48.80849299
30
0
10
47.43235636
20
49.01541388
30
0
0
SPLINE
5
1CA
100
AcDbEntity
8
kaguya
6
ByLayer
62
7
370
-1
100
AcDbSpline
210
0
220
0
230
1
70
8
71
3
72
8
73
4
74
0
42
1e-07
43
1e-07
40
0
40
0
40
0
40
0
40
1
40
1
40
1
40
1
10
47.43235636
20
49.01541388
30
0
10
47.35794928
20
49.22233477
30
0
10
47.27514238
20
49.39085785
30
0
10
47.24608951
20
49.39085785
30
0
0
SPLINE
5
1CB
100
AcDbEntity
8
kaguya
6
ByLayer
62
7
370
-1
100
AcDbSpline
210
0
220
0
230
1
70
8
71
3
72
8
73
4
74
0
42
1e-07
43
1e-07
40
0
40
0
40
0
40
0
40
1
40
1
40
1
40
1
10
47.24608951
20
49.39085785
30
0
10
47.21703763
20
49.39085785
30
0
10
47.13132046
20
49.5622912
30
0
10
47.05691239
20
49.76921176
30
0
0
SPLINE
5
1CC
100
AcDbEntity
8
kaguya
6
ByLayer
62
7
370
-1
100
AcDbSpline
210
0
220
0
230
1
70
8
71
3
72
8
73
4
74
0
42
1e-07
43
1e-07
40
0
40
0
40
0
40
0
40
1
40
1
40
1
40
1
10
47.05691239
20
49.76921176
30
0
10
46.98250564
20
49.97613265
30
0
10
46.89678847
20
50.14465573
30
0
10
46.86773527
20
50.14465573
30
0
0
SPLINE
5
1CD
100
AcDbEntity
8
kaguya
6
ByLayer
62
7
370
-1
100
AcDbSpline
210
0
220
0
230
1
70
8
71
3
72
8
73
4
74
0
42
1e-07
43
1e-07
40
0
40
0
40
0
40
0
40
1
40
1
40
1
40
1
10
46.86773527
20
50.14465573
30
0
10
46.8386824
20
50.14465573
30
0
10
46.75587682
20
50.31317848
30
0
10
46.68146875
20
50.52009937
30
0
0
SPLINE
5
1CE
100
AcDbEntity
8
kaguya
6
ByLayer
62
7
370
-1
100
AcDbSpline
210
0
220
0
230
1
70
8
71
3
72
8
73
4
74
0
42
1e-07
43
1e-07
40
0
40
0
40
0
40
0
40
1
40
1
40
1
40
1
10
46.68146875
20
50.52009937
30
0
10
46.60706167
20
50.72702026
30
0
10
46.52351557
20
50.89554301
30
0
10
46.49520223
20
50.89554301
30
0
0
SPLINE
5
1CF
100
AcDbEntity
8
kaguya
6
ByLayer
62
7
370
-1
100
AcDbSpline
210
0
220
0
230
1
70
8
71
3
72
8
73
4
74
0
42
1e-07
43
1e-07
40
0
40
0
40
0
40
0
40
1
40
1
40
1
40
1
10
46.49520223
20
50.89554301
30
0
10
46.46688955
20
50.89554301
30
0
10
46.36005634
20
51.11840653
30
0
10
46.25945848
20
51.38740372
30
0
0
SPLINE
5
1D0
100
AcDbEntity
8
kaguya
6
ByLayer
62
7
370
-1
100
AcDbSpline
210
0
220
0
230
1
70
8
71
3
72
8
73
4
74
0
42
1e-07
43
1e-07
40
0
40
0
40
0
40
0
40
1
40
1
40
1
40
1
10
46.25945848
20
51.38740372
30
0
10
46.15886029
20
51.65640058
30
0
10
46.05233167
20
51.8763535
30
0
10
46.02371473
20
51.8763535
30
0
0
SPLINE
5
1D1
100
AcDbEntity
8
kaguya
6
ByLayer
62
7
370
-1
100
AcDbSpline
210
0
220
0
230
1
70
8
71
3
72
8
73
4
74
0
42
1e-07
43
1e-07
40
0
40
0
40
0
40
0
40
1
40
1
40
1
40
1
10
46.02371473
20
51.8763535
30
0
10
45.99509647
20
51.8763535
30
0
10
45.91486225
20
52.06201942
30
0
10
45.84326875
20
52.28963263
30
0
0
SPLINE
5
1D2
100
AcDbEntity
8
kaguya
6
ByLayer
62
7
370
-1
100
AcDbSpline
210
0
220
0
230
1
70
8
71
3
72
8
73
4
74
0
42
1e-07
43
1e-07
40
0
40
0
40
0
40
0
40
1
40
1
40
1
40
1
10
45.84326875
20
52.28963263
30
0
10
45.77167525
20
52.51724584
30
0
10
45.68726752
20
52.70291176
30
0
10
45.65700223
20
52.70291176
30
0
0
SPLINE
5
1D3
100
AcDbEntity
8
kaguya
6
ByLayer
62
7
370
-1
100
AcDbSpline
210
0
220
0
230
1
70
8
71
3
72
8
73
4
74
0
42
1e-07
43
1e-07
40
0
40
0
40
0
40
0
40
1
40
1
40
1
40
1
10
45.65700223
20
52.70291176
30
0
10
45.62673661
20
52.70291176
30
0
10
45.54622651
20
52.90572085
30
0
10
45.47655625
20
53.15402638
30
0
0
SPLINE
5
1D4
100
AcDbEntity
8
kaguya
6
ByLayer
62
7
370
-1
100
AcDbSpline
210
0
220
0
230
1
70
8
71
3
72
8
73
4
74
0
42
1e-07
43
1e-07
40
0
40
0
40
0
40
0
40
1
40
1
40
1
40
1
10
45.47655625
20
53.15402638
30
0
10
45.406885
20
53.40233125
30
0
10
45.32326993
20
53.605141
30
0
10
45.2932
20
53.605141
30
0
0
SPLINE
5
1D5
100
AcDbEntity
8
kaguya
6
ByLayer
62
7
370
-1
100
AcDbSpline
210
0
220
0
230
1
70
8
71
3
72
8
73
4
74
0
42
1e-07
43
1e-07
40
0
40
0
40
0
40
0
40
1
40
1
40
1
40
1
10
45.2932
20
53.605141
30
0
10
45.26312809
20
53.605141
30
0
10
45.18064558
20
53.80795108
30
0
10
45.10693348
20
54.05625562
30
0
0
SPLINE
5
1D6
100
AcDbEntity
8
kaguya
6
ByLayer
62
7
370
-1
100
AcDbSpline
210
0
220
0
230
1
70
8
71
3
72
8
73
4
74
0
42
1e-07
43
1e-07
40
0
40
0
40
0
40
0
40
1
40
1
40
1
40
1
10
45.10693348
20
54.05625562
30
0
10
45.03322204
20
54.30456016
30
0
10
44.93921428
20
54.50737024
30
0
10
44.90029375
20
54.50737024
30
0
0
SPLINE
5
1D7
100
AcDbEntity
8
kaguya
6
ByLayer
62
7
370
-1
100
AcDbSpline
210
0
220
0
230
1
70
8
71
3
72
8
73
4
74
0
42
1e-07
43
1e-07
40
0
40
0
40
0
40
0
40
1
40
1
40
1
40
1
10
44.90029375
20
54.50737024
30
0
10
44.86137256
20
54.50737024
30
0
10
44.83044364
20
54.55482061
30
0
10
44.83044364
20
54.61214524
30
0
0
SPLINE
5
1D8
100
AcDbEntity
8
kaguya
6
ByLayer
62
7
370
-1
100
AcDbSpline
210
0
220
0
230
1
70
8
71
3
72
8
73
4
74
0
42
1e-07
43
1e-07
40
0
40
0
40
0
40
0
40
1
40
1
40
1
40
1
10
44.83044364
20
54.61214524
30
0
10
44.83044364
20
54.75494746
30
0
10
44.58571168
20
55.51441903
30
0
10
44.52485011
20
55.56094111
30
0
0
SPLINE
5
1D9
100
AcDbEntity
8
kaguya
6
ByLayer
62
7
370
-1
100
AcDbSpline
210
0
220
0
230
1
70
8
71
3
72
8
73
4
74
0
42
1e-07
43
1e-07
40
0
40
0
40
0
40
0
40
1
40
1
40
1
40
1
10
44.52485011
20
55.56094111
30
0
10
44.49777988
20
55.58163343
30
0
10
44.39737936
20
55.9044457
30
0
10
44.30074777
20
56.2769035
30
0
0
SPLINE
5
1DA
100
AcDbEntity
8
kaguya
6
ByLayer
62
7
370
-1
100
AcDbSpline
210
0
220
0
230
1
70
8
71
3
72
8
73
4
74
0
42
1e-07
43
1e-07
40
0
40
0
40
0
40
0
40
1
40
1
40
1
40
1
10
44.30074777
20
56.2769035
30
0
10
44.20411651
20
56.64936064
30
0
10
44.09878183
20
56.97138025
30
0
10
44.06791462
20
56.99286622
30
0
0
SPLINE
5
1DB
100
AcDbEntity
8
kaguya
6
ByLayer
62
7
370
-1
100
AcDbSpline
210
0
220
0
230
1
70
8
71
3
72
8
73
4
74
0
42
1e-07
43
1e-07
40
0
40
0
40
0
40
0
40
1
40
1
40
1
40
1
10
44.06791462
20
56.99286622
30
0
10
44.03704741
20
57.01435087
30
0
10
43.95458635
20
57.28573396
30
0
10
43.88455837
20
57.59532247
30
0
0
SPLINE
5
1DC
100
AcDbEntity
8
kaguya
6
ByLayer
62
7
370
-1
100
AcDbSpline
210
0
220
0
230
1
70
8
71
3
72
8
73
4
74
0
42
1e-07
43
1e-07
40
0
40
0
40
0
40
0
40
1
40
1
40
1
40
1
10
43.88455837
20
57.59532247
30
0
10
43.81453138
20
57.90490966
30
0
10
43.73505517
20
58.1741758
30
0
10
43.70702299
20
58.19486812
30
0
0
SPLINE
5
1DD
100
AcDbEntity
8
kaguya
6
ByLayer
62
7
370
-1
100
AcDbSpline
210
0
220
0
230
1
70
8
71
3
72
8
73
4
74
0
42
1e-07
43
1e-07
40
0
40
0
40
0
40
0
40
1
40
1
40
1
40
1
10
43.70702299
20
58.19486812
30
0
10
43.64992276
20
58.23701737
30
0
10
43.40142913
20
59.2408942
30
0
10
43.40142913
20
59.42888497
30
0
0
SPLINE
5
1DE
100
AcDbEntity
8
kaguya
6
ByLayer
62
7
370
-1
100
AcDbSpline
210
0
220
0
230
1
70
8
71
3
72
8
73
4
74
0
42
1e-07
43
1e-07
40
0
40
0
40
0
40
0
40
1
40
1
40
1
40
1
10
43.40142913
20
59.42888497
30
0
10
43.40142913
20
59.49538558
30
0
10
43.37271979
20
59.55112225
30
0
10
43.33739989
20
59.55112225
30
0
0
SPLINE
5
1DF
100
AcDbEntity
8
kaguya
6
ByLayer
62
7
370
-1
100
AcDbSpline
210
0
220
0
230
1
70
8
71
3
72
8
73
4
74
0
42
1e-07
43
1e-07
40
0
40
0
40
0
40
0
40
1
40
1
40
1
40
1
10
43.33739989
20
59.55112225
30
0
10
43.30208098
20
59.55112225
30
0
10
43.23255427
20
59.79533545
30
0
10
43.18314799
20
60.09537013
30
0
0
SPLINE
5
1E0
100
AcDbEntity
8
kaguya
6
ByLayer
62
7
370
-1
100
AcDbSpline
210
0
220
0
230
1
70
8
71
3
72
8
73
4
74
0
42
1e-07
43
1e-07
40
0
40
0
40
0
40
0
40
1
40
1
40
1
40
1
10
43.18314799
20
60.09537013
30
0
10
43.1337427
20
60.3954058
30
0
10
43.0726069
20
60.71775046
30
0
10
43.04926864
20
60.81133285
30
0
0
SPLINE
5
1E1
100
AcDbEntity
8
kaguya
6
ByLayer
62
7
370
-1
100
AcDbSpline
210
0
220
0
230
1
70
8
71
3
72
8
73
4
74
0
42
1e-07
43
1e-07
40
0
40
0
40
0
40
0
40
1
40
1
40
1
40
1
10
43.04926864
20
60.81133285
30
0
10
42.97173712
20
61.12221001
30
0
10
43.22366473
20
60.91981639
30
0
10
43.36068337
20
60.56103676
30
0
0
SPLINE
5
1E2
100
AcDbEntity
8
kaguya
6
ByLayer
62
7
370
-1
100
AcDbSpline
210
0
220
0
230
1
70
8
71
3
72
8
73
4
74
0
42
1e-07
43
1e-07
40
0
40
0
40
0
40
0
40
1
40
1
40
1
40
1
10
43.36068337
20
60.56103676
30
0
10
43.43078956
20
60.37746733
30
0
10
43.51532203
20
60.22633888
30
0
10
43.54986049
20
60.22633888
30
0
0
SPLINE
5
1E3
100
AcDbEntity
8
kaguya
6
ByLayer
62
7
370
-1
100
AcDbSpline
210
0
220
0
230
1
70
8
71
3
72
8
73
4
74
0
42
1e-07
43
1e-07
40
0
40
0
40
0
40
0
40
1
40
1
40
1
40
1
10
43.54986049
20
60.22633888
30
0
10
43.58439895
20
60.22633888
30
0
10
43.67082661
20
60.07495897
30
0
10
43.74194788
20
59.88873073
30
0
0
SPLINE
5
1E4
100
AcDbEntity
8
kaguya
6
ByLayer
62
7
370
-1
100
AcDbSpline
210
0
220
0
230
1
70
8
71
3
72
8
73
4
74
0
42
1e-07
43
1e-07
40
0
40
0
40
0
40
0
40
1
40
1
40
1
40
1
10
43.74194788
20
59.88873073
30
0
10
43.81306915
20
59.70250117
30
0
10
43.89406732
20
59.5483981
30
0
10
43.91948326
20
59.54821198
30
0
0
SPLINE
5
1E5
100
AcDbEntity
8
kaguya
6
ByLayer
62
7
370
-1
100
AcDbSpline
210
0
220
0
230
1
70
8
71
3
72
8
73
4
74
0
42
1e-07
43
1e-07
40
0
40
0
40
0
40
0
40
1
40
1
40
1
40
1
10
43.91948326
20
59.54821198
30
0
10
43.94489854
20
59.54803411
30
0
10
44.0488558
20
59.34504517
30
0
10
44.15231674
20
59.09709736
30
0
0
SPLINE
5
1E6
100
AcDbEntity
8
kaguya
6
ByLayer
62
7
370
-1
100
AcDbSpline
210
0
220
0
230
1
70
8
71
3
72
8
73
4
74
0
42
1e-07
43
1e-07
40
0
40
0
40
0
40
0
40
1
40
1
40
1
40
1
10
44.15231674
20
59.09709736
30
0
10
44.25577669
20
58.84914856
30
0
10
44.36264521
20
58.64616886
30
0
10
44.38806049
20
58.64598274
30
0
0
SPLINE
5
1E7
100
AcDbEntity
8
kaguya
6
ByLayer
62
7
370
-1
100
AcDbSpline
210
0
220
0
230
1
70
8
71
3
72
8
73
4
74
0
42
1e-07
43
1e-07
40
0
40
0
40
0
40
0
40
1
40
1
40
1
40
1
10
44.38806049
20
58.64598274
30
0
10
44.41347643
20
58.64580487
30
0
10
44.491564
20
58.49460283
30
0
10
44.56268527
20
58.30837426
30
0
0
SPLINE
5
1E8
100
AcDbEntity
8
kaguya
6
ByLayer
62
7
370
-1
100
AcDbSpline
210
0
220
0
230
1
70
8
71
3
72
8
73
4
74
0
42
1e-07
43
1e-07
40
0
40
0
40
0
40
0
40
1
40
1
40
1
40
1
10
44.56268527
20
58.30837426
30
0
10
44.63380654
20
58.12214503
30
0
10
44.71625572
20
57.97076611
30
0
10
44.74604152
20
57.97076611
30
0
0
SPLINE
5
1E9
100
AcDbEntity
8
kaguya
6
ByLayer
62
7
370
-1
100
AcDbSpline
210
0
220
0
230
1
70
8
71
3
72
8
73
4
74
0
42
1e-07
43
1e-07
40
0
40
0
40
0
40
0
40
1
40
1
40
1
40
1
10
44.74604152
20
57.97076611
30
0
10
44.77582765
20
57.97076611
30
0
10
44.8608109
20
57.79933276
30
0
10
44.93521864
20
57.59241187
30
0
0
SPLINE
5
1EA
100
AcDbEntity
8
kaguya
6
ByLayer
62
7
370
-1
100
AcDbSpline
210
0
220
0
230
1
70
8
71
3
72
8
73
4
74
0
42
1e-07
43
1e-07
40
0
40
0
40
0
40
0
40
1
40
1
40
1
40
1
10
44.93521864
20
57.59241187
30
0
10
45.00962572
20
57.38549098
30
0
10
45.09679951
20
57.21696823
30
0
10
45.12730636
20
57.21696823
30
0
0
SPLINE
5
1EB
100
AcDbEntity
8
kaguya
6
ByLayer
62
7
370
-1
100
AcDbSpline
210
0
220
0
230
1
70
8
71
3
72
8
73
4
74
0
42
1e-07
43
1e-07
40
0
40
0
40
0
40
0
40
1
40
1
40
1
40
1
10
45.12730636
20
57.21696823
30
0
10
45.15781222
20
57.21696823
30
0
10
45.24607072
20
57.02127559
30
0
10
45.32521462
20
56.78331622
30
0
0
SPLINE
5
1EC
100
AcDbEntity
8
kaguya
6
ByLayer
62
7
370
-1
100
AcDbSpline
210
0
220
0
230
1
70
8
71
3
72
8
73
4
74
0
42
1e-07
43
1e-07
40
0
40
0
40
0
40
0
40
1
40
1
40
1
40
1
10
45.32521462
20
56.78331622
30
0
10
45.40435852
20
56.54535751
30
0
10
45.50965195
20
56.31079285
30
0
10
45.55804777
20
56.25944122
30
0
0
SPLINE
5
1ED
100
AcDbEntity
8
kaguya
6
ByLayer
62
7
370
-1
100
AcDbSpline
210
0
220
0
230
1
70
8
71
3
72
8
73
4
74
0
42
1e-07
43
1e-07
40
0
40
0
40
0
40
0
40
1
40
1
40
1
40
1
10
45.55804777
20
56.25944122
30
0
10
45.60644458
20
56.20809025
30
0
10
45.68474566
20
56.04668263
30
0
10
45.73267288
20
55.90145986
30
0
0
SPLINE
5
1EE
100
AcDbEntity
8
kaguya
6
ByLayer
62
7
370
-1
100
AcDbSpline
210
0
220
0
230
1
70
8
71
3
72
8
73
4
74
0
42
1e-07
43
1e-07
40
0
40
0
40
0
40
0
40
1
40
1
40
1
40
1
10
45.73267288
20
55.90145986
30
0
10
45.78060109
20
55.75623709
30
0
10
45.84338062
20
55.63661176
30
0
10
45.87237277
20
55.63661176
30
0
0
SPLINE
5
1EF
100
AcDbEntity
8
kaguya
6
ByLayer
62
7
370
-1
100
AcDbSpline
210
0
220
0
230
1
70
8
71
3
72
8
73
4
74
0
42
1e-07
43
1e-07
40
0
40
0
40
0
40
0
40
1
40
1
40
1
40
1
10
45.87237277
20
55.63661176
30
0
10
45.90136525
20
55.63661176
30
0
10
46.00679893
20
55.38237184
30
0
10
46.10520625
20
55.071991
30
0
0
SPLINE
5
1F0
100
AcDbEntity
8
kaguya
6
ByLayer
62
7
370
-1
100
AcDbSpline
210
0
220
0
230
1
70
8
71
3
72
8
73
4
74
0
42
1e-07
43
1e-07
40
0
40
0
40
0
40
0
40
1
40
1
40
1
40
1
10
46.10520625
20
55.071991
30
0
10
46.20361291
20
54.76161016
30
0
10
46.30675507
20
54.50737024
30
0
10
46.33512913
20
54.50737024
30
0
0
SPLINE
5
1F1
100
AcDbEntity
8
kaguya
6
ByLayer
62
7
370
-1
100
AcDbSpline
210
0
220
0
230
1
70
8
71
3
72
8
73
4
74
0
42
1e-07
43
1e-07
40
0
40
0
40
0
40
0
40
1
40
1
40
1
40
1
10
46.33512913
20
54.50737024
30
0
10
46.36350517
20
54.50737024
30
0
10
46.4502328
20
54.29744404
30
0
10
46.52721652
20
54.03879301
30
0
0
SPLINE
5
1F2
100
AcDbEntity
8
kaguya
6
ByLayer
62
7
370
-1
100
AcDbSpline
210
0
220
0
230
1
70
8
71
3
72
8
73
4
74
0
42
1e-07
43
1e-07
40
0
40
0
40
0
40
0
40
1
40
1
40
1
40
1
10
46.52721652
20
54.03879301
30
0
10
46.60420057
20
53.78014231
30
0
10
46.69379788
20
53.54753158
30
0
10
46.72803538
20
53.52364948
30
0
0
SPLINE
5
1F3
100
AcDbEntity
8
kaguya
6
ByLayer
62
7
370
-1
100
AcDbSpline
210
0
220
0
230
1
70
8
71
3
72
8
73
4
74
0
42
1e-07
43
1e-07
40
0
40
0
40
0
40
0
40
1
40
1
40
1
40
1
10
46.72803538
20
53.52364948
30
0
10
46.76227222
20
53.49976903
30
0
10
46.84498309
20
53.21415337
30
0
10
46.91139163
20
52.88626801
30
0
0
SPLINE
5
1F4
100
AcDbEntity
8
kaguya
6
ByLayer
62
7
370
-1
100
AcDbSpline
210
0
220
0
230
1
70
8
71
3
72
8
73
4
74
0
42
1e-07
43
1e-07
40
0
40
0
40
0
40
0
40
1
40
1
40
1
40
1
10
46.91139163
20
52.88626801
30
0
10
46.97779951
20
52.55838463
30
0
10
47.05677016
20
52.27248979
30
0
10
47.08601674
20
52.25179747
30
0
0
SPLINE
5
1F5
100
AcDbEntity
8
kaguya
6
ByLayer
62
7
370
-1
100
AcDbSpline
210
0
220
0
230
1
70
8
71
3
72
8
73
4
74
0
42
1e-07
43
1e-07
40
0
40
0
40
0
40
0
40
1
40
1
40
1
40
1
10
47.08601674
20
52.25179747
30
0
10
47.15072578
20
52.20601657
30
0
10
47.29253338
20
51.29689198
30
0
10
47.35959598
20
50.50263676
30
0
0
SPLINE
5
1F6
100
AcDbEntity
8
kaguya
6
ByLayer
62
7
370
-1
100
AcDbSpline
210
0
220
0
230
1
70
8
71
3
72
8
73
4
74
0
42
1e-07
43
1e-07
40
0
40
0
40
0
40
0
40
1
40
1
40
1
40
1
10
47.35959598
20
50.50263676
30
0
10
47.38667512
20
50.18190976
30
0
10
47.43742549
20
49.91764312
30
0
10
47.47310212
20
49.91764312
30
0
0
SPLINE
5
1F7
100
AcDbEntity
8
kaguya
6
ByLayer
62
7
370
-1
100
AcDbSpline
210
0
220
0
230
1
70
8
71
3
72
8
73
4
74
0
42
1e-07
43
1e-07
40
0
40
0
40
0
40
0
40
1
40
1
40
1
40
1
10
47.47310212
20
49.91764312
30
0
10
47.50877776
20
49.91764312
30
0
10
47.54004163
20
49.98384409
30
0
10
47.54004163
20
50.06316388
30
0
0
SPLINE
5
1F8
100
AcDbEntity
8
kaguya
6
ByLayer
62
7
370
-1
100
AcDbSpline
210
0
220
0
230
1
70
8
71
3
72
8
73
4
74
0
42
1e-07
43
1e-07
40
0
40
0
40
0
40
0
40
1
40
1
40
1
40
1
10
47.54004163
20
50.06316388
30
0
10
47.54004163
20
50.14248268
30
0
10
47.58144508
20
50.2205455
30
0
10
47.63317489
20
50.23778899
30
0
0
SPLINE
5
1F9
100
AcDbEntity
8
kaguya
6
ByLayer
62
7
370
-1
100
AcDbSpline
210
0
220
0
230
1
70
8
71
3
72
8
73
4
74
0
42
1e-07
43
1e-07
40
0
40
0
40
0
40
0
40
1
40
1
40
1
40
1
10
47.63317489
20
50.23778899
30
0
10
47.70518287
20
50.2617922
30
0
10
47.72630848
20
50.72580487
30
0
10
47.72630848
20
52.21396198
30
0
0
SPLINE
5
1FA
100
AcDbEntity
8
kaguya
6
ByLayer
62
7
370
-1
100
AcDbSpline
210
0
220
0
230
1
70
8
71
3
72
8
73
4
74
0
42
1e-07
43
1e-07
40
0
40
0
40
0
40
0
40
1
40
1
40
1
40
1
10
47.72630848
20
52.21396198
30
0
10
47.72630848
20
53.70211975
30
0
10
47.70518287
20
54.16613242
30
0
10
47.63317489
20
54.19013497
30
0
0
SPLINE
5
1FB
100
AcDbEntity
8
kaguya
6
ByLayer
62
7
370
-1
100
AcDbSpline
210
0
220
0
230
1
70
8
71
3
72
8
73
4
74
0
42
1e-07
43
1e-07
40
0
40
0
40
0
40
0
40
1
40
1
40
1
40
1
10
47.63317489
20
54.19013497
30
0
10
47.52183322
20
54.22724941
30
0
10
47.50655455
20
54.50737024
30
0
10
47.61571261
20
54.50737024
30
0
0
SPLINE
5
1FC
100
AcDbEntity
8
kaguya
6
ByLayer
62
7
370
-1
100
AcDbSpline
210
0
220
0
230
1
70
8
71
3
72
8
73
4
74
0
42
1e-07
43
1e-07
40
0
40
0
40
0
40
0
40
1
40
1
40
1
40
1
10
47.61571261
20
54.50737024
30
0
10
47.65709725
20
54.50737024
30
0
10
47.68847299
20
54.4588048
30
0
10
47.68847299
20
54.39968497
30
0
0
SPLINE
5
1FD
100
AcDbEntity
8
kaguya
6
ByLayer
62
7
370
-1
100
AcDbSpline
210
0
220
0
230
1
70
8
71
3
72
8
73
4
74
0
42
1e-07
43
1e-07
40
0
40
0
40
0
40
0
40
1
40
1
40
1
40
1
10
47.68847299
20
54.39968497
30
0
10
47.68847299
20
54.34056481
30
0
10
47.73289924
20
54.24773119
30
0
10
47.78742712
20
54.19304524
30
0
0
SPLINE
5
1FE
100
AcDbEntity
8
kaguya
6
ByLayer
62
7
370
-1
100
AcDbSpline
210
0
220
0
230
1
70
8
71
3
72
8
73
4
74
0
42
1e-07
43
1e-07
40
0
40
0
40
0
40
0
40
1
40
1
40
1
40
1
10
47.78742712
20
54.19304524
30
0
10
47.84195401
20
54.13835929
30
0
10
47.9691238
20
53.77418845
30
0
10
48.0697375
20
53.38103899
30
0
0
SPLINE
5
1FF
100
AcDbEntity
8
kaguya
6
ByLayer
62
7
370
-1
100
AcDbSpline
210
0
220
0
230
1
70
8
71
3
72
8
73
4
74
0
42
1e-07
43
1e-07
40
0
40
0
40
0
40
0
40
1
40
1
40
1
40
1
10
48.0697375
20
53.38103899
30
0
10
48.17035219
20
52.98788887
30
0
10
48.27735766
20
52.64854525
30
0
10
48.30548125
20
52.62724111
30
0
0
SPLINE
5
200
100
AcDbEntity
8
kaguya
6
ByLayer
62
7
370
-1
100
AcDbSpline
210
0
220
0
230
1
70
8
71
3
72
8
73
4
74
0
42
1e-07
43
1e-07
40
0
40
0
40
0
40
0
40
1
40
1
40
1
40
1
10
48.30548125
20
52.62724111
30
0
10
48.33360649
20
52.60593763
30
0
10
48.41377669
20
52.26598054
30
0
10
48.48301663
20
51.87344323
30
0
0
SPLINE
5
201
100
AcDbEntity
8
kaguya
6
ByLayer
62
7
370
-1
100
AcDbSpline
210
0
220
0
230
1
70
8
71
3
72
8
73
4
74
0
42
1e-07
43
1e-07
40
0
40
0
40
0
40
0
40
1
40
1
40
1
40
1
10
48.48301663
20
51.87344323
30
0
10
48.60379861
20
51.18871105
30
0
10
48.59674453
20
50.24847505
30
0
10
48.46846462
20
49.70227225
30
0
0
SPLINE
5
202
100
AcDbEntity
8
kaguya
6
ByLayer
62
7
370
-1
100
AcDbSpline
210
0
220
0
230
1
70
8
71
3
72
8
73
4
74
0
42
1e-07
43
1e-07
40
0
40
0
40
0
40
0
40
1
40
1
40
1
40
1
10
48.46846462
20
49.70227225
30
0
10
48.43792147
20
49.57222288
30
0
10
48.44802739
20
49.53015151
30
0
10
48.49756864
20
49.58003497
30
0
0
SPLINE
5
203
100
AcDbEntity
8
kaguya
6
ByLayer
62
7
370
-1
100
AcDbSpline
210
0
220
0
230
1
70
8
71
3
72
8
73
4
74
0
42
1e-07
43
1e-07
40
0
40
0
40
0
40
0
40
1
40
1
40
1
40
1
10
48.49756864
20
49.58003497
30
0
10
48.63952177
20
49.72296556
30
0
10
48.74185741
20
50.36390641
30
0
10
48.74204386
20
51.09927247
30
0
0
SPLINE
5
204
100
AcDbEntity
8
kaguya
6
ByLayer
62
7
370
-1
100
AcDbSpline
210
0
220
0
230
1
70
8
71
3
72
8
73
4
74
0
42
1e-07
43
1e-07
40
0
40
0
40
0
40
0
40
1
40
1
40
1
40
1
10
48.74204386
20
51.09927247
30
0
10
48.74220391
20
51.87069004
30
0
10
48.54969082
20
53.15402638
30
0
10
48.43353973
20
53.15402638
30
0
0
SPLINE
5
205
100
AcDbEntity
8
kaguya
6
ByLayer
62
7
370
-1
100
AcDbSpline
210
0
220
0
230
1
70
8
71
3
72
8
73
4
74
0
42
1e-07
43
1e-07
40
0
40
0
40
0
40
0
40
1
40
1
40
1
40
1
10
48.43353973
20
53.15402638
30
0
10
48.39645466
20
53.15402638
30
0
10
48.36659989
20
53.21822887
30
0
10
48.36659989
20
53.29663687
30
0
0
SPLINE
5
206
100
AcDbEntity
8
kaguya
6
ByLayer
62
7
370
-1
100
AcDbSpline
210
0
220
0
230
1
70
8
71
3
72
8
73
4
74
0
42
1e-07
43
1e-07
40
0
40
0
40
0
40
0
40
1
40
1
40
1
40
1
10
48.36659989
20
53.29663687
30
0
10
48.36659989
20
53.48141344
30
0
10
48.06605701
20
54.4583131
30
0
10
47.99406652
20
54.50737024
30
0
0
SPLINE
5
207
100
AcDbEntity
8
kaguya
6
ByLayer
62
7
370
-1
100
AcDbSpline
210
0
220
0
230
1
70
8
71
3
72
8
73
4
74
0
42
1e-07
43
1e-07
40
0
40
0
40
0
40
0
40
1
40
1
40
1
40
1
10
47.99406652
20
54.50737024
30
0
10
47.96370157
20
54.52806256
30
0
10
47.87900146
20
54.74089936
30
0
10
47.80488973
20
54.97885774
30
0
0
SPLINE
5
208
100
AcDbEntity
8
kaguya
6
ByLayer
62
7
370
-1
100
AcDbSpline
210
0
220
0
230
1
70
8
71
3
72
8
73
4
74
0
42
1e-07
43
1e-07
40
0
40
0
40
0
40
0
40
1
40
1
40
1
40
1
10
47.80488973
20
54.97885774
30
0
10
47.73077701
20
55.21681711
30
0
10
47.64577132
20
55.41250975
30
0
10
47.61862288
20
55.41250975
30
0
0
SPLINE
5
209
100
AcDbEntity
8
kaguya
6
ByLayer
62
7
370
-1
100
AcDbSpline
210
0
220
0
230
1
70
8
71
3
72
8
73
4
74
0
42
1e-07
43
1e-07
40
0
40
0
40
0
40
0
40
1
40
1
40
1
40
1
10
47.61862288
20
55.41250975
30
0
10
47.59147378
20
55.41250975
30
0
10
47.5068136
20
55.59817666
30
0
10
47.42944576
20
55.82578888
30
0
0
SPLINE
5
20A
100
AcDbEntity
8
kaguya
6
ByLayer
62
7
370
-1
100
AcDbSpline
210
0
220
0
230
1
70
8
71
3
72
8
73
4
74
0
42
1e-07
43
1e-07
40
0
40
0
40
0
40
0
40
1
40
1
40
1
40
1
10
47.42944576
20
55.82578888
30
0
10
47.35207726
20
56.05340209
30
0
10
47.26639837
20
56.23906801
30
0
10
47.23735837
20
56.23906801
30
0
0
SPLINE
5
20B
100
AcDbEntity
8
kaguya
6
ByLayer
62
7
370
-1
100
AcDbSpline
210
0
220
0
230
1
70
8
71
3
72
8
73
4
74
0
42
1e-07
43
1e-07
40
0
40
0
40
0
40
0
40
1
40
1
40
1
40
1
10
47.23735837
20
56.23906801
30
0
10
47.20831837
20
56.23906801
30
0
10
47.12432809
20
56.39655193
30
0
10
47.05109152
20
56.58831823
30
0
0
SPLINE
5
20C
100
AcDbEntity
8
kaguya
6
ByLayer
62
7
370
-1
100
AcDbSpline
210
0
220
0
230
1
70
8
71
3
72
8
73
4
74
0
42
1e-07
43
1e-07
40
0
40
0
40
0
40
0
40
1
40
1
40
1
40
1
10
47.05109152
20
56.58831823
30
0
10
46.97785528
20
56.78008519
30
0
10
46.85474251
20
57.00003745
30
0
10
46.77751261
20
57.07726801
30
0
0
SPLINE
5
20D
100
AcDbEntity
8
kaguya
6
ByLayer
62
7
370
-1
100
AcDbSpline
210
0
220
0
230
1
70
8
71
3
72
8
73
4
74
0
42
1e-07
43
1e-07
40
0
40
0
40
0
40
0
40
1
40
1
40
1
40
1
10
46.77751261
20
57.07726801
30
0
10
46.70028172
20
57.15449791
30
0
10
46.63490212
20
57.26553334
30
0
10
46.63490212
20
57.3246535
30
0
0
SPLINE
5
20E
100
AcDbEntity
8
kaguya
6
ByLayer
62
7
370
-1
100
AcDbSpline
210
0
220
0
230
1
70
8
71
3
72
8
73
4
74
0
42
1e-07
43
1e-07
40
0
40
0
40
0
40
0
40
1
40
1
40
1
40
1
10
46.63490212
20
57.3246535
30
0
10
46.63490212
20
57.38377366
30
0
10
46.59273406
20
57.47660695
30
0
10
46.53885826
20
57.53129323
30
0
0
SPLINE
5
20F
100
AcDbEntity
8
kaguya
6
ByLayer
62
7
370
-1
100
AcDbSpline
210
0
220
0
230
1
70
8
71
3
72
8
73
4
74
0
42
1e-07
43
1e-07
40
0
40
0
40
0
40
0
40
1
40
1
40
1
40
1
10
46.53885826
20
57.53129323
30
0
10
46.48498147
20
57.58597918
30
0
10
46.36285045
20
57.79165399
30
0
10
46.26818962
20
57.98822872
30
0
0
SPLINE
5
210
100
AcDbEntity
8
kaguya
6
ByLayer
62
7
370
-1
100
AcDbSpline
210
0
220
0
230
1
70
8
71
3
72
8
73
4
74
0
42
1e-07
43
1e-07
40
0
40
0
40
0
40
0
40
1
40
1
40
1
40
1
10
46.26818962
20
57.98822872
30
0
10
46.17352978
20
58.18480312
30
0
10
46.07458786
20
58.34620975
30
0
10
46.04699788
20
58.34620975
30
0
0
SPLINE
5
211
100
AcDbEntity
8
kaguya
6
ByLayer
62
7
370
-1
100
AcDbSpline
210
0
220
0
230
1
70
8
71
3
72
8
73
4
74
0
42
1e-07
43
1e-07
40
0
40
0
40
0
40
0
40
1
40
1
40
1
40
1
10
46.04699788
20
58.34620975
30
0
10
46.01940724
20
58.34620975
30
0
10
45.95141437
20
58.44510349
30
0
10
45.89856652
20
58.56449122
30
0
0
SPLINE
5
212
100
AcDbEntity
8
kaguya
6
ByLayer
62
7
370
-1
100
AcDbSpline
210
0
220
0
230
1
70
8
71
3
72
8
73
4
74
0
42
1e-07
43
1e-07
40
0
40
0
40
0
40
0
40
1
40
1
40
1
40
1
10
45.89856652
20
58.56449122
30
0
10
45.84572098
20
58.68387961
30
0
10
45.73549966
20
58.85771206
30
0
10
45.65409163
20
58.9515766
30
0
0
SPLINE
5
213
100
AcDbEntity
8
kaguya
6
ByLayer
62
7
370
-1
100
AcDbSpline
210
0
220
0
230
1
70
8
71
3
72
8
73
4
74
0
42
1e-07
43
1e-07
40
0
40
0
40
0
40
0
40
1
40
1
40
1
40
1
10
45.65409163
20
58.9515766
30
0
10
45.57268294
20
59.0454418
30
0
10
45.50857087
20
59.15975182
30
0
10
45.50857087
20
59.20769323
30
0
0
SPLINE
5
214
100
AcDbEntity
8
kaguya
6
ByLayer
62
7
370
-1
100
AcDbSpline
210
0
220
0
230
1
70
8
71
3
72
8
73
4
74
0
42
1e-07
43
1e-07
40
0
40
0
40
0
40
0
40
1
40
1
40
1
40
1
10
45.50857087
20
59.20769323
30
0
10
45.50857087
20
59.25563365
30
0
10
45.44711398
20
59.36030041
30
0
10
45.37469152
20
59.44052638
30
0
0
SPLINE
5
215
100
AcDbEntity
8
kaguya
6
ByLayer
62
7
370
-1
100
AcDbSpline
210
0
220
0
230
1
70
8
71
3
72
8
73
4
74
0
42
1e-07
43
1e-07
40
0
40
0
40
0
40
0
40
1
40
1
40
1
40
1
10
45.37469152
20
59.44052638
30
0
10
45.30226939
20
59.52075169
30
0
10
45.17712514
20
59.71316677
30
0
10
45.09529174
20
59.86835785
30
0
0
SPLINE
5
216
100
AcDbEntity
8
kaguya
6
ByLayer
62
7
370
-1
100
AcDbSpline
210
0
220
0
230
1
70
8
71
3
72
8
73
4
74
0
42
1e-07
43
1e-07
40
0
40
0
40
0
40
0
40
1
40
1
40
1
40
1
10
45.09529174
20
59.86835785
30
0
10
45.01345834
20
60.02354761
30
0
10
44.92373464
20
60.15066823
30
0
10
44.89738348
20
60.15066823
30
0
0
SPLINE
5
217
100
AcDbEntity
8
kaguya
6
ByLayer
62
7
370
-1
100
AcDbSpline
210
0
220
0
230
1
70
8
71
3
72
8
73
4
74
0
42
1e-07
43
1e-07
40
0
40
0
40
0
40
0
40
1
40
1
40
1
40
1
10
44.89738348
20
60.15066823
30
0
10
44.87103232
20
60.15066823
30
0
10
44.79105946
20
60.31207486
30
0
10
44.7169375
20
60.50864926
30
0
0
SPLINE
5
218
100
AcDbEntity
8
kaguya
6
ByLayer
62
7
370
-1
100
AcDbSpline
210
0
220
0
230
1
70
8
71
3
72
8
73
4
74
0
42
1e-07
43
1e-07
40
0
40
0
40
0
40
0
40
1
40
1
40
1
40
1
10
44.7169375
20
60.50864926
30
0
10
44.64281719
20
60.70522399
30
0
10
44.53838968
20
60.89122717
30
0
10
44.48701462
20
60.92192872
30
0
0
SPLINE
5
219
100
AcDbEntity
8
kaguya
6
ByLayer
62
7
370
-1
100
AcDbSpline
210
0
220
0
230
1
70
8
71
3
72
8
73
4
74
0
42
1e-07
43
1e-07
40
0
40
0
40
0
40
0
40
1
40
1
40
1
40
1
10
44.48701462
20
60.92192872
30
0
10
44.43563758
20
60.95262895
30
0
10
44.33453218
20
61.14832159
30
0
10
44.26000201
20
61.35558073
30
0
0
SPLINE
5
21A
100
AcDbEntity
8
kaguya
6
ByLayer
62
7
370
-1
100
AcDbSpline
210
0
220
0
230
1
70
8
71
3
72
8
73
4
74
0
42
1e-07
43
1e-07
40
0
40
0
40
0
40
0
40
1
40
1
40
1
40
1
10
44.26000201
20
61.35558073
30
0
10
44.18547316
20
61.56283855
30
0
10
44.1013225
20
61.73102437
30
0
10
44.07373549
20
61.73102437
30
0
0
SPLINE
5
21B
100
AcDbEntity
8
kaguya
6
ByLayer
62
7
370
-1
100
AcDbSpline
210
0
220
0
230
1
70
8
71
3
72
8
73
4
74
0
42
1e-07
43
1e-07
40
0
40
0
40
0
40
0
40
1
40
1
40
1
40
1
10
44.07373549
20
61.73102437
30
0
10
44.04614947
20
61.73102437
30
0
10
43.96253143
20
61.89245806
30
0
10
43.88746864
20
62.08900573
30
0
0
SPLINE
5
21C
100
AcDbEntity
8
kaguya
6
ByLayer
62
7
370
-1
100
AcDbSpline
210
0
220
0
230
1
70
8
71
3
72
8
73
4
74
0
42
1e-07
43
1e-07
40
0
40
0
40
0
40
0
40
1
40
1
40
1
40
1
10
43.88746864
20
62.08900573
30
0
10
43.81240618
20
62.28555505
30
0
10
43.70992501
20
62.48774011
30
0
10
43.66045636
20
62.53720975
30
0
0
SPLINE
5
21D
100
AcDbEntity
8
kaguya
6
ByLayer
62
7
370
-1
100
AcDbSpline
210
0
220
0
230
1
70
8
71
3
72
8
73
4
74
0
42
1e-07
43
1e-07
40
0
40
0
40
0
40
0
40
1
40
1
40
1
40
1
10
43.66045636
20
62.53720975
30
0
10
43.61098672
20
62.5866784
30
0
10
43.52403073
20
62.77943569
30
0
10
43.46836864
20
62.96795149
30
0
0
SPLINE
5
21E
100
AcDbEntity
8
kaguya
6
ByLayer
62
7
370
-1
100
AcDbSpline
210
0
220
0
230
1
70
8
71
3
72
8
73
4
74
0
42
1e-07
43
1e-07
40
0
40
0
40
0
40
0
40
1
40
1
40
1
40
1
10
43.46836864
20
62.96795149
30
0
10
43.41270655
20
63.15646729
30
0
10
43.34064478
20
63.31138051
30
0
10
43.30829587
20
63.31138051
30
0
0
SPLINE
5
21F
100
AcDbEntity
8
kaguya
6
ByLayer
62
7
370
-1
100
AcDbSpline
210
0
220
0
230
1
70
8
71
3
72
8
73
4
74
0
42
1e-07
43
1e-07
40
0
40
0
40
0
40
0
40
1
40
1
40
1
40
1
10
43.30829587
20
63.31138051
30
0
10
43.20463462
20
63.31138051
30
0
10
43.24512727
20
63.59523793
30
0
10
43.3548625
20
63.63734725
30
0
0
SPLINE
5
220
100
AcDbEntity
8
kaguya
6
ByLayer
62
7
370
-1
100
AcDbSpline
210
0
220
0
230
1
70
8
71
3
72
8
73
4
74
0
42
1e-07
43
1e-07
40
0
40
0
40
0
40
0
40
1
40
1
40
1
40
1
10
43.3548625
20
63.63734725
30
0
10
43.41303721
20
63.65967142
30
0
10
43.48434196
20
63.79109392
30
0
10
43.512025
20
63.9283891
30
0
0
SPLINE
5
221
100
AcDbEntity
8
kaguya
6
ByLayer
62
7
370
-1
100
AcDbSpline
210
0
220
0
230
1
70
8
71
3
72
8
73
4
74
0
42
1e-07
43
1e-07
40
0
40
0
40
0
40
0
40
1
40
1
40
1
40
1
10
43.512025
20
63.9283891
30
0
10
43.59713497
20
64.35047857
30
0
10
43.63215688
20
64.44062236
30
0
10
43.71575413
20
64.44062236
30
0
0
SPLINE
5
222
100
AcDbEntity
8
kaguya
6
ByLayer
62
7
370
-1
100
AcDbSpline
210
0
220
0
230
1
70
8
71
3
72
8
73
4
74
0
42
1e-07
43
1e-07
40
0
40
0
40
0
40
0
40
1
40
1
40
1
40
1
10
43.71575413
20
64.44062236
30
0
10
43.7703358
20
64.44062236
30
0
10
43.78140565
20
64.25366845
30
0
10
43.74776875
20
63.85853899
30
0
0
SPLINE
5
223
100
AcDbEntity
8
kaguya
6
ByLayer
62
7
370
-1
100
AcDbSpline
210
0
220
0
230
1
70
8
71
3
72
8
73
4
74
0
42
1e-07
43
1e-07
40
0
40
0
40
0
40
0
40
1
40
1
40
1
40
1
10
43.74776875
20
63.85853899
30
0
10
43.695901
20
63.24927055
30
0
10
43.77441526
20
63.21687445
30
0
10
43.931125
20
63.78286801
30
0
0
SPLINE
5
224
100
AcDbEntity
8
kaguya
6
ByLayer
62
7
370
-1
100
AcDbSpline
210
0
220
0
230
1
70
8
71
3
72
8
73
4
74
0
42
1e-07
43
1e-07
40
0
40
0
40
0
40
0
40
1
40
1
40
1
40
1
10
43.931125
20
63.78286801
30
0
10
43.97409298
20
63.93805843
30
0
10
44.03976694
20
64.06517872
30
0
10
44.07955636
20
64.06517872
30
0
0
SPLINE
5
225
100
AcDbEntity
8
kaguya
6
ByLayer
62
7
370
-1
100
AcDbSpline
210
0
220
0
230
1
70
8
71
3
72
8
73
4
74
0
42
1e-07
43
1e-07
40
0
40
0
40
0
40
0
40
1
40
1
40
1
40
1
10
44.07955636
20
64.06517872
30
0
10
44.12228014
20
64.06517872
30
0
10
44.15231674
20
64.48102954
30
0
10
44.15231674
20
65.0809141
30
0
0
SPLINE
5
226
100
AcDbEntity
8
kaguya
6
ByLayer
62
7
370
-1
100
AcDbSpline
210
0
220
0
230
1
70
8
71
3
72
8
73
4
74
0
42
1e-07
43
1e-07
40
0
40
0
40
0
40
0
40
1
40
1
40
1
40
1
10
44.15231674
20
65.0809141
30
0
10
44.15231674
20
65.70794677
30
0
10
44.12309227
20
66.09664948
30
0
10
44.07664576
20
66.09664948
30
0
0
SPLINE
5
227
100
AcDbEntity
8
kaguya
6
ByLayer
62
7
370
-1
100
AcDbSpline
210
0
220
0
230
1
70
8
71
3
72
8
73
4
74
0
42
1e-07
43
1e-07
40
0
40
0
40
0
40
0
40
1
40
1
40
1
40
1
10
44.07664576
20
66.09664948
30
0
10
44.03526211
20
66.09664948
30
0
10
44.00388538
20
66.21374239
30
0
10
44.00388538
20
66.35858698
30
0
0
SPLINE
5
228
100
AcDbEntity
8
kaguya
6
ByLayer
62
7
370
-1
100
AcDbSpline
210
0
220
0
230
1
70
8
71
3
72
8
73
4
74
0
42
1e-07
43
1e-07
40
0
40
0
40
0
40
0
40
1
40
1
40
1
40
1
10
44.00388538
20
66.35858698
30
0
10
44.00388538
20
66.73626142
30
0
10
44.10825349
20
66.68400955
30
0
10
44.21925625
20
66.25090138
30
0
0
SPLINE
5
229
100
AcDbEntity
8
kaguya
6
ByLayer
62
7
370
-1
100
AcDbSpline
210
0
220
0
230
1
70
8
71
3
72
8
73
4
74
0
42
1e-07
43
1e-07
40
0
40
0
40
0
40
0
40
1
40
1
40
1
40
1
10
44.21925625
20
66.25090138
30
0
10
44.27167906
20
66.04635781
30
0
10
44.34589804
20
65.86780801
30
0
10
44.38223962
20
65.85508486
30
0
0
SPLINE
5
22A
100
AcDbEntity
8
kaguya
6
ByLayer
62
7
370
-1
100
AcDbSpline
210
0
220
0
230
1
70
8
71
3
72
8
73
4
74
0
42
1e-07
43
1e-07
40
0
40
0
40
0
40
0
40
1
40
1
40
1
40
1
10
44.38223962
20
65.85508486
30
0
10
44.47571014
20
65.82236107
30
0
10
44.67910201
20
64.58340412
30
0
10
44.67910201
20
64.05062638
30
0
0
SPLINE
5
22B
100
AcDbEntity
8
kaguya
6
ByLayer
62
7
370
-1
100
AcDbSpline
210
0
220
0
230
1
70
8
71
3
72
8
73
4
74
0
42
1e-07
43
1e-07
40
0
40
0
40
0
40
0
40
1
40
1
40
1
40
1
10
44.67910201
20
64.05062638
30
0
10
44.67910201
20
63.77242219
30
0
10
44.70784204
20
63.62289589
30
0
10
44.75477299
20
63.65189926
30
0
0
SPLINE
5
22C
100
AcDbEntity
8
kaguya
6
ByLayer
62
7
370
-1
100
AcDbSpline
210
0
220
0
230
1
70
8
71
3
72
8
73
4
74
0
42
1e-07
43
1e-07
40
0
40
0
40
0
40
0
40
1
40
1
40
1
40
1
10
44.75477299
20
63.65189926
30
0
10
44.95414612
20
63.77511961
30
0
10
44.75125981
20
66.70788967
30
0
10
44.53358125
20
66.84753676
30
0
0
SPLINE
5
22D
100
AcDbEntity
8
kaguya
6
ByLayer
62
7
370
-1
100
AcDbSpline
210
0
220
0
230
1
70
8
71
3
72
8
73
4
74
0
42
1e-07
43
1e-07
40
0
40
0
40
0
40
0
40
1
40
1
40
1
40
1
10
44.53358125
20
66.84753676
30
0
10
44.50089508
20
66.86850529
30
0
10
44.39671705
20
67.06392205
30
0
10
44.30365837
20
67.2811891
30
0
0
SPLINE
5
22E
100
AcDbEntity
8
kaguya
6
ByLayer
62
7
370
-1
100
AcDbSpline
210
0
220
0
230
1
70
8
71
3
72
8
73
4
74
0
42
1e-07
43
1e-07
40
0
40
0
40
0
40
0
40
1
40
1
40
1
40
1
10
44.30365837
20
67.2811891
30
0
10
44.21059936
20
67.49845582
30
0
10
44.10522673
20
67.67700562
30
0
10
44.06791462
20
67.67700562
30
0
0
SPLINE
5
22F
100
AcDbEntity
8
kaguya
6
ByLayer
62
7
370
-1
100
AcDbSpline
210
0
220
0
230
1
70
8
71
3
72
8
73
4
74
0
42
1e-07
43
1e-07
40
0
40
0
40
0
40
0
40
1
40
1
40
1
40
1
10
44.06791462
20
67.67700562
30
0
10
44.03060152
20
67.67700562
30
0
10
43.96504339
20
67.76166184
30
0
10
43.92530413
20
67.86618274
30
0
0
SPLINE
5
230
100
AcDbEntity
8
kaguya
6
ByLayer
62
7
370
-1
100
AcDbSpline
210
0
220
0
230
1
70
8
71
3
72
8
73
4
74
0
42
1e-07
43
1e-07
40
0
40
0
40
0
40
0
40
1
40
1
40
1
40
1
10
43.92530413
20
67.86618274
30
0
10
43.8855652
20
67.97070364
30
0
10
43.80173398
20
68.07495691
30
0
10
43.73903761
20
68.09901622
30
0
0
SPLINE
5
231
100
AcDbEntity
8
kaguya
6
ByLayer
62
7
370
-1
100
AcDbSpline
210
0
220
0
230
1
70
8
71
3
72
8
73
4
74
0
42
1e-07
43
1e-07
40
0
40
0
40
0
40
0
40
1
40
1
40
1
40
1
10
43.73903761
20
68.09901622
30
0
10
43.67633926
20
68.1230752
30
0
10
43.62553114
20
68.18989195
30
0
10
43.62553114
20
68.24453698
30
0
0
SPLINE
5
232
100
AcDbEntity
8
kaguya
6
ByLayer
62
7
370
-1
100
AcDbSpline
210
0
220
0
230
1
70
8
71
3
72
8
73
4
74
0
42
1e-07
43
1e-07
40
0
40
0
40
0
40
0
40
1
40
1
40
1
40
1
10
43.62553114
20
68.24453698
30
0
10
43.62553114
20
68.29918201
30
0
10
43.54770889
20
68.40413554
30
0
10
43.45090636
20
68.48028073
30
0
0
SPLINE
5
233
100
AcDbEntity
8
kaguya
6
ByLayer
62
7
370
-1
100
AcDbSpline
210
0
220
0
230
1
70
8
71
3
72
8
73
4
74
0
42
1e-07
43
1e-07
40
0
40
0
40
0
40
0
40
1
40
1
40
1
40
1
10
43.45090636
20
68.48028073
30
0
10
43.3541035
20
68.55642559
30
0
10
43.26127087
20
68.65621165
30
0
10
43.24426663
20
68.70147247
30
0
0
SPLINE
5
234
100
AcDbEntity
8
kaguya
6
ByLayer
62
7
370
-1
100
AcDbSpline
210
0
220
0
230
1
70
8
71
3
72
8
73
4
74
0
42
1e-07
43
1e-07
40
0
40
0
40
0
40
0
40
1
40
1
40
1
40
1
10
43.24426663
20
68.70147247
30
0
10
43.16361595
20
68.91614836
30
0
10
42.47591575
20
69.67047094
30
0
10
41.91129598
20
70.1625016
30
0
0
SPLINE
5
235
100
AcDbEntity
8
kaguya
6
ByLayer
62
7
370
-1
100
AcDbSpline
210
0
220
0
230
1
70
8
71
3
72
8
73
4
74
0
42
1e-07
43
1e-07
40
0
40
0
40
0
40
0
40
1
40
1
40
1
40
1
10
41.91129598
20
70.1625016
30
0
10
41.75632204
20
70.29755047
30
0
10
41.27116528
20
70.53503497
30
0
10
41.15167723
20
70.53503497
30
0
0
SPLINE
5
236
100
AcDbEntity
8
kaguya
6
ByLayer
62
7
370
-1
100
AcDbSpline
210
0
220
0
230
1
70
8
71
3
72
8
73
4
74
0
42
1e-07
43
1e-07
40
0
40
0
40
0
40
0
40
1
40
1
40
1
40
1
10
41.15167723
20
70.53503497
30
0
10
41.10620092
20
70.53503497
30
0
10
41.06727511
20
70.5639664
30
0
10
41.06727511
20
70.59906388
30
0
0
SPLINE
5
237
100
AcDbEntity
8
kaguya
6
ByLayer
62
7
370
-1
100
AcDbSpline
210
0
220
0
230
1
70
8
71
3
72
8
73
4
74
0
42
1e-07
43
1e-07
40
0
40
0
40
0
40
0
40
1
40
1
40
1
40
1
10
41.06727511
20
70.59906388
30
0
10
41.06727511
20
70.6721371
30
0
10
40.369534
20
70.91047861
30
0
10
40.15631473
20
70.91047861
30
0
0
SPLINE
5
238
100
AcDbEntity
8
kaguya
6
ByLayer
62
7
370
-1
100
AcDbSpline
210
0
220
0
230
1
70
8
71
3
72
8
73
4
74
0
42
1e-07
43
1e-07
40
0
40
0
40
0
40
0
40
1
40
1
40
1
40
1
10
40.15631473
20
70.91047861
30
0
10
40.07829778
20
70.91047861
30
0
10
40.01370424
20
70.9432189
30
0
10
40.01370424
20
70.98032872
30
0
0
SPLINE
5
239
100
AcDbEntity
8
kaguya
6
ByLayer
62
7
370
-1
100
AcDbSpline
210
0
220
0
230
1
70
8
71
3
72
8
73
4
74
0
42
1e-07
43
1e-07
40
0
40
0
40
0
40
0
40
1
40
1
40
1
40
1
10
40.01370424
20
70.98032872
30
0
10
40.01370424
20
71.01743821
30
0
10
39.72667552
20
71.08775857
30
0
10
39.37632277
20
71.13749122
30
0
0
SPLINE
5
23A
100
AcDbEntity
8
kaguya
6
ByLayer
62
7
370
-1
100
AcDbSpline
210
0
220
0
230
1
70
8
71
3
72
8
73
4
74
0
42
1e-07
43
1e-07
40
0
40
0
40
0
40
0
40
1
40
1
40
1
40
1
10
39.37632277
20
71.13749122
30
0
10
39.131275
20
71.17227586
30
0
10
38.93549854
20
71.18947315
30
0
10
38.73603136
20
71.18987872
30
0
0
LWPOLYLINE
5
23B
100
AcDbEntity
8
kaguya
6
ByLayer
62
7
370
-1
100
AcDbPolyline
90
3
70
0
43
0
10
32.90064598
20
16.9891891
10
32.95594375
20
17.86522426
10
33.18877723
20
17.86522426
0
SPLINE
5
23C
100
AcDbEntity
8
kaguya
6
ByLayer
62
7
370
-1
100
AcDbSpline
210
0
220
0
230
1
70
8
71
3
72
8
73
4
74
0
42
1e-07
43
1e-07
40
0
40
0
40
0
40
0
40
1
40
1
40
1
40
1
10
33.84362098
20
62.10937861
30
0
10
33.87380707
20
62.10937861
30
0
10
33.94343839
20
61.58375626
30
0
10
33.99787288
20
60.9423016
30
0
0
SPLINE
5
23D
100
AcDbEntity
8
kaguya
6
ByLayer
62
7
370
-1
100
AcDbSpline
210
0
220
0
230
1
70
8
71
3
72
8
73
4
74
0
42
1e-07
43
1e-07
40
0
40
0
40
0
40
0
40
1
40
1
40
1
40
1
10
33.99787288
20
60.9423016
30
0
10
34.05230671
20
60.3008476
30
0
10
34.12374742
20
59.77522426
30
0
10
34.15794598
20
59.77522426
30
0
0
SPLINE
5
23E
100
AcDbEntity
8
kaguya
6
ByLayer
62
7
370
-1
100
AcDbSpline
210
0
220
0
230
1
70
8
71
3
72
8
73
4
74
0
42
1e-07
43
1e-07
40
0
40
0
40
0
40
0
40
1
40
1
40
1
40
1
10
34.15794598
20
59.77522426
30
0
10
34.19214454
20
59.77522426
30
0
10
34.22197489
20
59.67527452
30
0
10
34.22197489
20
59.55112225
30
0
0
SPLINE
5
23F
100
AcDbEntity
8
kaguya
6
ByLayer
62
7
370
-1
100
AcDbSpline
210
0
220
0
230
1
70
8
71
3
72
8
73
4
74
0
42
1e-07
43
1e-07
40
0
40
0
40
0
40
0
40
1
40
1
40
1
40
1
10
34.22197489
20
59.55112225
30
0
10
34.22197489
20
59.34930514
30
0
10
34.19576365
20
59.32410997
30
0
10
33.98914174
20
59.32410997
30
0
0
SPLINE
5
240
100
AcDbEntity
8
kaguya
6
ByLayer
62
7
370
-1
100
AcDbSpline
210
0
220
0
230
1
70
8
71
3
72
8
73
4
74
0
42
1e-07
43
1e-07
40
0
40
0
40
0
40
0
40
1
40
1
40
1
40
1
10
33.98914174
20
59.32410997
30
0
10
33.86203333
20
59.32410997
30
0
10
33.70778869
20
59.2726798
30
0
10
33.64571239
20
59.2106035
30
0
0
SPLINE
5
241
100
AcDbEntity
8
kaguya
6
ByLayer
62
7
370
-1
100
AcDbSpline
210
0
220
0
230
1
70
8
71
3
72
8
73
4
74
0
42
1e-07
43
1e-07
40
0
40
0
40
0
40
0
40
1
40
1
40
1
40
1
10
33.64571239
20
59.2106035
30
0
10
33.46767508
20
59.03256619
30
0
10
33.2910637
20
59.06754718
30
0
10
33.34593973
20
59.26881187
30
0
0
SPLINE
5
242
100
AcDbEntity
8
kaguya
6
ByLayer
62
7
370
-1
100
AcDbSpline
210
0
220
0
230
1
70
8
71
3
72
8
73
4
74
0
42
1e-07
43
1e-07
40
0
40
0
40
0
40
0
40
1
40
1
40
1
40
1
10
33.34593973
20
59.26881187
30
0
10
33.37132762
20
59.36192566
30
0
10
33.41546347
20
59.61616558
30
0
10
33.44198326
20
59.83343263
30
0
0
SPLINE
5
243
100
AcDbEntity
8
kaguya
6
ByLayer
62
7
370
-1
100
AcDbSpline
210
0
220
0
230
1
70
8
71
3
72
8
73
4
74
0
42
1e-07
43
1e-07
40
0
40
0
40
0
40
0
40
1
40
1
40
1
40
1
10
33.44198326
20
59.83343263
30
0
10
33.46850503
20
60.05069968
30
0
10
33.51386914
20
60.22633888
30
0
10
33.54384799
20
60.22633888
30
0
0
SPLINE
5
244
100
AcDbEntity
8
kaguya
6
ByLayer
62
7
370
-1
100
AcDbSpline
210
0
220
0
230
1
70
8
71
3
72
8
73
4
74
0
42
1e-07
43
1e-07
40
0
40
0
40
0
40
0
40
1
40
1
40
1
40
1
10
33.54384799
20
60.22633888
30
0
10
33.57382552
20
60.22633888
30
0
10
33.62091124
20
60.49060585
30
0
10
33.64862299
20
60.81133285
30
0
0
SPLINE
5
245
100
AcDbEntity
8
kaguya
6
ByLayer
62
7
370
-1
100
AcDbSpline
210
0
220
0
230
1
70
8
71
3
72
8
73
4
74
0
42
1e-07
43
1e-07
40
0
40
0
40
0
40
0
40
1
40
1
40
1
40
1
10
33.64862299
20
60.81133285
30
0
10
33.72846979
20
61.73546023
30
0
10
33.78453415
20
62.10937861
30
0
10
33.84362098
20
62.10937861
30
0
0
LWPOLYLINE
5
246
100
AcDbEntity
8
kaguya
6
ByLayer
62
7
370
-1
100
AcDbPolyline
90
2
70
0
43
0
10
38.73603136
20
71.18987872
10
38.73603136
20
71.18987872
0
LWPOLYLINE
5
247
100
AcDbEntity
8
kaguya
6
ByLayer
62
7
370
-1
100
AcDbPolyline
90
2
70
0
43
0
10
33.84362098
20
62.10937861
10
33.84362098
20
62.10937861
0
ENDSEC
0
SECTION
2
OBJECTS
0
DICTIONARY
5
C
330
0
100
AcDbDictionary
281
1
3
ACAD_GROUP
350
D
0
DICTIONARY
5
D
330
C
100
AcDbDictionary
281
1
0
ENDSEC
0
EOF
