  0
SECTION
  2
HEADER
  9
$ACADVER
  1
AC1014
  9
$HANDSEED
  5
FFFF
  9
$MEASUREMENT
 70
     1
  0
ENDSEC
  0
SECTION
  2
TABLES
  0
TABLE
  2
VPORT
  5
8
330
0
100
AcDbSymbolTable
 70
     4
  0
VPORT
  5
2E
330
8
100
AcDbSymbolTableRecord
100
AcDbViewportTableRecord
  2
*ACTIVE
 70
     0
 10
0.0
 20
0.0
 11
1.0
 21
1.0
 12
210.0
 22
148.5
 13
0.0
 23
0.0
 14
10.0
 24
10.0
 15
10.0
 25
10.0
 16
0.0
 26
0.0
 36
1.0
 17
0.0
 27
0.0
 37
0.0
 40
341.0
 41
1.24
 42
50.0
 43
0.0
 44
0.0
 50
0.0
 51
0.0
 71
     0
 72
   100
 73
     1
 74
     3
 75
     0
 76
     0
 77
     0
 78
     0
  0
ENDTAB
  0
TABLE
  2
LTYPE
  5
5
330
0
100
AcDbSymbolTable
 70
     1
  0
LTYPE
  5
14
330
5
100
AcDbSymbolTableRecord
100
AcDbLinetypeTableRecord
  2
BYBLOCK
 70
     0
  3

 72
    65
 73
     0
 40
0.0
  0
LTYPE
  5
15
330
5
100
AcDbSymbolTableRecord
100
AcDbLinetypeTableRecord
  2
BYLAYER
 70
     0
  3

 72
    65
 73
     0
 40
0.0
  0
LTYPE
  5
16
330
5
100
AcDbSymbolTableRecord
100
AcDbLinetypeTableRecord
  2
CONTINUOUS
 70
     0
  3
Solid line
 72
    65
 73
     0
 40
0.0
  0
ENDTAB
  0
TABLE
  2
LAYER
  5
2
100
AcDbSymbolTable
 70
1
  0
LAYER
  5
50
100
AcDbSymbolTableRecord
100
AcDbLayerTableRecord
  2
0
 70
0
  6
CONTINUOUS
  0
ENDTAB
  0
TABLE
  2
STYLE
  5
3
330
0
100
AcDbSymbolTable
 70
     1
  0
STYLE
  5
11
330
3
100
AcDbSymbolTableRecord
100
AcDbTextStyleTableRecord
  2
STANDARD
 70
     0
 40
0.0
 41
1.0
 50
0.0
 71
     0
 42
2.5
  3
txt
  4

  0
ENDTAB
  0
TABLE
  2
VIEW
  5
6
330
0
100
AcDbSymbolTable
 70
     0
  0
ENDTAB
  0
TABLE
  2
UCS
  5
7
330
0
100
AcDbSymbolTable
 70
     0
  0
ENDTAB
  0
TABLE
  2
APPID
  5
9
330
0
100
AcDbSymbolTable
 70
     2
  0
APPID
  5
12
330
9
100
AcDbSymbolTableRecord
100
AcDbRegAppTableRecord
  2
ACAD
 70
     0
  0
ENDTAB
  0
TABLE
  2
DIMSTYLE
  5
A
330
0
100
AcDbSymbolTable
 70
     1
  0
DIMSTYLE
105
27
330
A
100
AcDbSymbolTableRecord
100
AcDbDimStyleTableRecord
  2
ISO-25
 70
     0
  3

  4

  5

  6

  7

 40
1.0
 41
2.5
 42
0.625
 43
3.75
 44
1.25
 45
0.0
 46
0.0
 47
0.0
 48
0.0
140
2.5
141
2.5
142
0.0
143
0.03937007874016
144
1.0
145
0.0
146
1.0
147
0.625
 71
     0
 72
     0
 73
     0
 74
     0
 75
     0
 76
     0
 77
     1
 78
     8
170
     0
171
     3
172
     1
173
     0
174
     0
175
     0
176
     0
177
     0
178
     0
270
     2
271
     2
272
     2
273
     2
274
     3
340
11
275
     0
280
     0
281
     0
282
     0
283
     0
284
     8
285
     0
286
     0
287
     3
288
     0
  0
ENDTAB
  0
TABLE
  2
BLOCK_RECORD
  5
1
330
0
100
AcDbSymbolTable
 70
     1
  0
BLOCK_RECORD
  5
1F
330
1
100
AcDbSymbolTableRecord
100
AcDbBlockTableRecord
  2
*MODEL_SPACE
  0
BLOCK_RECORD
  5
1B
330
1
100
AcDbSymbolTableRecord
100
AcDbBlockTableRecord
  2
*PAPER_SPACE
  0
ENDTAB
  0
ENDSEC
  0
SECTION
  2
BLOCKS
  0
BLOCK
  5
20
330
1F
100
AcDbEntity
  8
0
100
AcDbBlockBegin
  2
*MODEL_SPACE
 70
     0
 10
0.0
 20
0.0
 30
0.0
  3
*MODEL_SPACE
  1

  0
ENDBLK
  5
21
330
1F
100
AcDbEntity
  8
0
100
AcDbBlockEnd
  0
BLOCK
  5
1C
330
1B
100
AcDbEntity
 67
     1
  8
0
100
AcDbBlockBegin
  2
*PAPER_SPACE
  1

  0
ENDBLK
  5
1D
330
1B
100
AcDbEntity
 67
     1
  8
0
100
AcDbBlockEnd
  0
ENDSEC
  0
SECTION
  2
ENTITIES
  0
SPLINE
  5
100
100
AcDbEntity
  8
0
 62
7
100
AcDbSpline
 70
8
 71
3
 72
8
 73
4
 74
0
 40
0
 40
0
 40
0
 40
0
 40
1
 40
1
 40
1
 40
1
 10
46.169792
 20
184.514784
 30
0.0
 10
45.565345
 20
184.516012
 30
0.0
 10
44.954430
 20
184.467190
 30
0.0
 10
44.185417
 20
184.364853
 30
0.0
  0
SPLINE
  5
101
100
AcDbEntity
  8
0
 62
7
100
AcDbSpline
 70
8
 71
3
 72
8
 73
4
 74
0
 40
0
 40
0
 40
0
 40
0
 40
1
 40
1
 40
1
 40
1
 10
44.185417
 20
184.364853
 30
0.0
 10
43.085935
 20
184.218540
 30
0.0
 10
42.133562
 20
184.019584
 30
0.0
 10
42.068750
 20
183.923881
 30
0.0
  0
SPLINE
  5
102
100
AcDbEntity
  8
0
 62
7
100
AcDbSpline
 70
8
 71
3
 72
8
 73
4
 74
0
 40
0
 40
0
 40
0
 40
0
 40
1
 40
1
 40
1
 40
1
 10
42.068750
 20
183.923881
 30
0.0
 10
42.003938
 20
183.828177
 30
0.0
 10
41.301882
 20
183.613518
 30
0.0
 10
40.507708
 20
183.447631
 30
0.0
  0
SPLINE
  5
103
100
AcDbEntity
  8
0
 62
7
100
AcDbSpline
 70
8
 71
3
 72
8
 73
4
 74
0
 40
0
 40
0
 40
0
 40
0
 40
1
 40
1
 40
1
 40
1
 10
40.507708
 20
183.447631
 30
0.0
 10
39.713535
 20
183.281744
 30
0.0
 10
38.943113
 20
183.027179
 30
0.0
 10
38.796736
 20
182.883186
 30
0.0
  0
SPLINE
  5
104
100
AcDbEntity
  8
0
 62
7
100
AcDbSpline
 70
8
 71
3
 72
8
 73
4
 74
0
 40
0
 40
0
 40
0
 40
0
 40
1
 40
1
 40
1
 40
1
 10
38.796736
 20
182.883186
 30
0.0
 10
38.650359
 20
182.739194
 30
0.0
 10
38.093297
 20
182.450562
 30
0.0
 10
37.562014
 20
182.239367
 30
0.0
  0
SPLINE
  5
105
100
AcDbEntity
  8
0
 62
7
100
AcDbSpline
 70
8
 71
3
 72
8
 73
4
 74
0
 40
0
 40
0
 40
0
 40
0
 40
1
 40
1
 40
1
 40
1
 10
37.562014
 20
182.239367
 30
0.0
 10
37.030728
 20
182.028172
 30
0.0
 10
36.416152
 20
181.692231
 30
0.0
 10
36.195000
 20
181.498534
 30
0.0
  0
SPLINE
  5
106
100
AcDbEntity
  8
0
 62
7
100
AcDbSpline
 70
8
 71
3
 72
8
 73
4
 74
0
 40
0
 40
0
 40
0
 40
0
 40
1
 40
1
 40
1
 40
1
 10
36.195000
 20
181.498534
 30
0.0
 10
35.973845
 20
181.304836
 30
0.0
 10
35.309014
 20
180.727914
 30
0.0
 10
34.713333
 20
180.210895
 30
0.0
  0
SPLINE
  5
107
100
AcDbEntity
  8
0
 62
7
100
AcDbSpline
 70
8
 71
3
 72
8
 73
4
 74
0
 40
0
 40
0
 40
0
 40
0
 40
1
 40
1
 40
1
 40
1
 10
34.713333
 20
180.210895
 30
0.0
 10
34.117653
 20
179.693876
 30
0.0
 10
33.628542
 20
179.140398
 30
0.0
 10
33.628542
 20
178.984992
 30
0.0
  0
SPLINE
  5
108
100
AcDbEntity
  8
0
 62
7
100
AcDbSpline
 70
8
 71
3
 72
8
 73
4
 74
0
 40
0
 40
0
 40
0
 40
0
 40
1
 40
1
 40
1
 40
1
 10
33.628542
 20
178.984992
 30
0.0
 10
33.628542
 20
178.829586
 30
0.0
 10
33.492319
 20
178.650911
 30
0.0
 10
33.328681
 20
178.588117
 30
0.0
  0
SPLINE
  5
109
100
AcDbEntity
  8
0
 62
7
100
AcDbSpline
 70
8
 71
3
 72
8
 73
4
 74
0
 40
0
 40
0
 40
0
 40
0
 40
1
 40
1
 40
1
 40
1
 10
33.328681
 20
178.588117
 30
0.0
 10
33.165040
 20
178.525322
 30
0.0
 10
32.890087
 20
178.053555
 30
0.0
 10
32.720139
 20
177.538603
 30
0.0
  0
SPLINE
  5
10a
100
AcDbEntity
  8
0
 62
7
100
AcDbSpline
 70
8
 71
3
 72
8
 73
4
 74
0
 40
0
 40
0
 40
0
 40
0
 40
1
 40
1
 40
1
 40
1
 10
32.720139
 20
177.538603
 30
0.0
 10
32.550190
 20
177.023650
 30
0.0
 10
32.339145
 20
176.603742
 30
0.0
 10
32.243889
 20
176.603742
 30
0.0
  0
SPLINE
  5
10b
100
AcDbEntity
  8
0
 62
7
100
AcDbSpline
 70
8
 71
3
 72
8
 73
4
 74
0
 40
0
 40
0
 40
0
 40
0
 40
1
 40
1
 40
1
 40
1
 10
32.243889
 20
176.603742
 30
0.0
 10
32.148633
 20
176.603742
 30
0.0
 10
31.887307
 20
176.062682
 30
0.0
 10
31.670625
 20
175.404297
 30
0.0
  0
SPLINE
  5
10c
100
AcDbEntity
  8
0
 62
7
100
AcDbSpline
 70
8
 71
3
 72
8
 73
4
 74
0
 40
0
 40
0
 40
0
 40
0
 40
1
 40
1
 40
1
 40
1
 10
31.670625
 20
175.404297
 30
0.0
 10
31.453946
 20
174.745913
 30
0.0
 10
31.210191
 20
174.161723
 30
0.0
 10
31.123819
 20
174.099020
 30
0.0
  0
SPLINE
  5
10d
100
AcDbEntity
  8
0
 62
7
100
AcDbSpline
 70
8
 71
3
 72
8
 73
4
 74
0
 40
0
 40
0
 40
0
 40
0
 40
1
 40
1
 40
1
 40
1
 10
31.123819
 20
174.099020
 30
0.0
 10
30.834801
 20
173.889203
 30
0.0
 10
30.463016
 20
172.510469
 30
0.0
 10
30.303611
 20
171.073950
 30
0.0
  0
SPLINE
  5
10e
100
AcDbEntity
  8
0
 62
7
100
AcDbSpline
 70
8
 71
3
 72
8
 73
4
 74
0
 40
0
 40
0
 40
0
 40
0
 40
1
 40
1
 40
1
 40
1
 10
30.303611
 20
171.073950
 30
0.0
 10
30.216777
 20
170.291418
 30
0.0
 10
30.051883
 20
169.593384
 30
0.0
 10
29.942014
 20
169.521728
 30
0.0
  0
SPLINE
  5
10f
100
AcDbEntity
  8
0
 62
7
100
AcDbSpline
 70
8
 71
3
 72
8
 73
4
 74
0
 40
0
 40
0
 40
0
 40
0
 40
1
 40
1
 40
1
 40
1
 10
29.942014
 20
169.521728
 30
0.0
 10
29.832142
 20
169.450072
 30
0.0
 10
29.700561
 20
166.013554
 30
0.0
 10
29.650972
 20
161.884089
 30
0.0
  0
SPLINE
  5
110
100
AcDbEntity
  8
0
 62
7
100
AcDbSpline
 70
8
 71
3
 72
8
 73
4
 74
0
 40
0
 40
0
 40
0
 40
0
 40
1
 40
1
 40
1
 40
1
 10
29.650972
 20
161.884089
 30
0.0
 10
29.559377
 20
154.256348
 30
0.0
 10
29.174595
 20
147.593386
 30
0.0
 10
28.813125
 20
147.455478
 30
0.0
  0
SPLINE
  5
111
100
AcDbEntity
  8
0
 62
7
100
AcDbSpline
 70
8
 71
3
 72
8
 73
4
 74
0
 40
0
 40
0
 40
0
 40
0
 40
1
 40
1
 40
1
 40
1
 10
28.813125
 20
147.455478
 30
0.0
 10
28.703558
 20
147.413675
 30
0.0
 10
28.610278
 20
147.033471
 30
0.0
 10
28.610278
 20
146.608811
 30
0.0
  0
SPLINE
  5
112
100
AcDbEntity
  8
0
 62
7
100
AcDbSpline
 70
8
 71
3
 72
8
 73
4
 74
0
 40
0
 40
0
 40
0
 40
0
 40
1
 40
1
 40
1
 40
1
 10
28.610278
 20
146.608811
 30
0.0
 10
28.610278
 20
145.917223
 30
0.0
 10
27.908419
 20
144.292910
 30
0.0
 10
27.481389
 20
143.998256
 30
0.0
  0
SPLINE
  5
113
100
AcDbEntity
  8
0
 62
7
100
AcDbSpline
 70
8
 71
3
 72
8
 73
4
 74
0
 40
0
 40
0
 40
0
 40
0
 40
1
 40
1
 40
1
 40
1
 10
27.481389
 20
143.998256
 30
0.0
 10
27.233550
 20
143.827246
 30
0.0
 10
26.555347
 20
141.711545
 30
0.0
 10
26.555347
 20
141.105478
 30
0.0
  0
SPLINE
  5
114
100
AcDbEntity
  8
0
 62
7
100
AcDbSpline
 70
8
 71
3
 72
8
 73
4
 74
0
 40
0
 40
0
 40
0
 40
0
 40
1
 40
1
 40
1
 40
1
 10
26.555347
 20
141.105478
 30
0.0
 10
26.555347
 20
140.814301
 30
0.0
 10
26.471925
 20
140.576311
 30
0.0
 10
26.370139
 20
140.576311
 30
0.0
  0
SPLINE
  5
115
100
AcDbEntity
  8
0
 62
7
100
AcDbSpline
 70
8
 71
3
 72
8
 73
4
 74
0
 40
0
 40
0
 40
0
 40
0
 40
1
 40
1
 40
1
 40
1
 10
26.370139
 20
140.576311
 30
0.0
 10
26.268353
 20
140.576311
 30
0.0
 10
25.999584
 20
139.554958
 30
0.0
 10
25.770417
 20
138.300895
 30
0.0
  0
SPLINE
  5
116
100
AcDbEntity
  8
0
 62
7
100
AcDbSpline
 70
8
 71
3
 72
8
 73
4
 74
0
 40
0
 40
0
 40
0
 40
0
 40
1
 40
1
 40
1
 40
1
 10
25.770417
 20
138.300895
 30
0.0
 10
25.541249
 20
137.046829
 30
0.0
 10
25.289767
 20
136.016659
 30
0.0
 10
25.205972
 20
136.016659
 30
0.0
  0
SPLINE
  5
117
100
AcDbEntity
  8
0
 62
7
100
AcDbSpline
 70
8
 71
3
 72
8
 73
4
 74
0
 40
0
 40
0
 40
0
 40
0
 40
1
 40
1
 40
1
 40
1
 10
25.205972
 20
136.016659
 30
0.0
 10
25.122180
 20
136.016659
 30
0.0
 10
24.857072
 20
135.276621
 30
0.0
 10
24.623889
 20
134.367422
 30
0.0
  0
SPLINE
  5
118
100
AcDbEntity
  8
0
 62
7
100
AcDbSpline
 70
8
 71
3
 72
8
 73
4
 74
0
 40
0
 40
0
 40
0
 40
0
 40
1
 40
1
 40
1
 40
1
 10
24.623889
 20
134.367422
 30
0.0
 10
24.390708
 20
133.458227
 30
0.0
 10
24.108953
 20
132.651342
 30
0.0
 10
23.997708
 20
132.577075
 30
0.0
  0
SPLINE
  5
119
100
AcDbEntity
  8
0
 62
7
100
AcDbSpline
 70
8
 71
3
 72
8
 73
4
 74
0
 40
0
 40
0
 40
0
 40
0
 40
1
 40
1
 40
1
 40
1
 10
23.997708
 20
132.577075
 30
0.0
 10
23.886461
 20
132.502803
 30
0.0
 10
23.644344
 20
131.836281
 30
0.0
 10
23.450903
 20
131.095409
 30
0.0
  0
SPLINE
  5
11a
100
AcDbEntity
  8
0
 62
7
100
AcDbSpline
 70
8
 71
3
 72
8
 73
4
 74
0
 40
0
 40
0
 40
0
 40
0
 40
1
 40
1
 40
1
 40
1
 10
23.450903
 20
131.095409
 30
0.0
 10
23.257460
 20
130.354533
 30
0.0
 10
23.023236
 20
129.694085
 30
0.0
 10
22.930556
 20
129.631381
 30
0.0
  0
SPLINE
  5
11b
100
AcDbEntity
  8
0
 62
7
100
AcDbSpline
 70
8
 71
3
 72
8
 73
4
 74
0
 40
0
 40
0
 40
0
 40
0
 40
1
 40
1
 40
1
 40
1
 10
22.930556
 20
129.631381
 30
0.0
 10
22.837878
 20
129.568677
 30
0.0
 10
22.635648
 20
129.079566
 30
0.0
 10
22.489583
 20
128.546589
 30
0.0
  0
SPLINE
  5
11c
100
AcDbEntity
  8
0
 62
7
100
AcDbSpline
 70
8
 71
3
 72
8
 73
4
 74
0
 40
0
 40
0
 40
0
 40
0
 40
1
 40
1
 40
1
 40
1
 10
21.960417
 20
126.615131
 30
0.0
 10
21.814352
 20
126.082154
 30
0.0
 10
21.620543
 20
125.593043
 30
0.0
 10
21.528264
 20
125.530339
 30
0.0
  0
SPLINE
  5
11d
100
AcDbEntity
  8
0
 62
7
100
AcDbSpline
 70
8
 71
3
 72
8
 73
4
 74
0
 40
0
 40
0
 40
0
 40
0
 40
1
 40
1
 40
1
 40
1
 10
21.528264
 20
125.530339
 30
0.0
 10
21.435984
 20
125.467635
 30
0.0
 10
21.190936
 20
124.822678
 30
0.0
 10
20.981458
 20
124.101589
 30
0.0
  0
SPLINE
  5
11e
100
AcDbEntity
  8
0
 62
7
100
AcDbSpline
 70
8
 71
3
 72
8
 73
4
 74
0
 40
0
 40
0
 40
0
 40
0
 40
1
 40
1
 40
1
 40
1
 10
20.981458
 20
124.101589
 30
0.0
 10
20.771981
 20
123.380503
 30
0.0
 10
20.530195
 20
122.796311
 30
0.0
 10
20.443472
 20
122.796311
 30
0.0
  0
SPLINE
  5
11f
100
AcDbEntity
  8
0
 62
7
100
AcDbSpline
 70
8
 71
3
 72
8
 73
4
 74
0
 40
0
 40
0
 40
0
 40
0
 40
1
 40
1
 40
1
 40
1
 10
20.443472
 20
122.796311
 30
0.0
 10
20.356750
 20
122.796311
 30
0.0
 10
20.085426
 20
122.099403
 30
0.0
 10
19.843750
 20
121.252909
 30
0.0
  0
SPLINE
  5
120
100
AcDbEntity
  8
0
 62
7
100
AcDbSpline
 70
8
 71
3
 72
8
 73
4
 74
0
 40
0
 40
0
 40
0
 40
0
 40
1
 40
1
 40
1
 40
1
 10
19.843750
 20
121.252909
 30
0.0
 10
19.602075
 20
120.406414
 30
0.0
 10
19.282262
 20
119.590377
 30
0.0
 10
19.129375
 20
119.436103
 30
0.0
  0
SPLINE
  5
121
100
AcDbEntity
  8
0
 62
7
100
AcDbSpline
 70
8
 71
3
 72
8
 73
4
 74
0
 40
0
 40
0
 40
0
 40
0
 40
1
 40
1
 40
1
 40
1
 10
19.129375
 20
119.436103
 30
0.0
 10
18.976488
 20
119.281832
 30
0.0
 10
18.782811
 20
118.743256
 30
0.0
 10
18.697222
 20
118.236659
 30
0.0
  0
SPLINE
  5
122
100
AcDbEntity
  8
0
 62
7
100
AcDbSpline
 70
8
 71
3
 72
8
 73
4
 74
0
 40
0
 40
0
 40
0
 40
0
 40
1
 40
1
 40
1
 40
1
 10
18.697222
 20
118.236659
 30
0.0
 10
18.611633
 20
117.730061
 30
0.0
 10
18.416352
 20
117.182666
 30
0.0
 10
18.265069
 20
117.028395
 30
0.0
  0
SPLINE
  5
123
100
AcDbEntity
  8
0
 62
7
100
AcDbSpline
 70
8
 71
3
 72
8
 73
4
 74
0
 40
0
 40
0
 40
0
 40
0
 40
1
 40
1
 40
1
 40
1
 10
18.265069
 20
117.028395
 30
0.0
 10
18.113787
 20
116.874121
 30
0.0
 10
17.802319
 20
116.161981
 30
0.0
 10
17.577153
 20
115.440895
 30
0.0
  0
SPLINE
  5
124
100
AcDbEntity
  8
0
 62
7
100
AcDbSpline
 70
8
 71
3
 72
8
 73
4
 74
0
 40
0
 40
0
 40
0
 40
0
 40
1
 40
1
 40
1
 40
1
 10
17.577153
 20
115.440895
 30
0.0
 10
17.351986
 20
114.719806
 30
0.0
 10
17.103911
 20
114.127644
 30
0.0
 10
17.021528
 20
114.126797
 30
0.0
  0
SPLINE
  5
125
100
AcDbEntity
  8
0
 62
7
100
AcDbSpline
 70
8
 71
3
 72
8
 73
4
 74
0
 40
0
 40
0
 40
0
 40
0
 40
1
 40
1
 40
1
 40
1
 10
17.021528
 20
114.126797
 30
0.0
 10
16.746207
 20
114.123526
 30
0.0
 10
16.298333
 20
112.901874
 30
0.0
 10
16.298333
 20
112.151242
 30
0.0
  0
SPLINE
  5
126
100
AcDbEntity
  8
0
 62
7
100
AcDbSpline
 70
8
 71
3
 72
8
 73
4
 74
0
 40
0
 40
0
 40
0
 40
0
 40
1
 40
1
 40
1
 40
1
 10
16.298333
 20
112.151242
 30
0.0
 10
16.298333
 20
111.343355
 30
0.0
 10
15.881011
 20
110.255061
 30
0.0
 10
15.575139
 20
110.255061
 30
0.0
  0
SPLINE
  5
127
100
AcDbEntity
  8
0
 62
7
100
AcDbSpline
 70
8
 71
3
 72
8
 73
4
 74
0
 40
0
 40
0
 40
0
 40
0
 40
1
 40
1
 40
1
 40
1
 10
15.575139
 20
110.255061
 30
0.0
 10
15.469862
 20
110.255061
 30
0.0
 10
15.389931
 20
109.947930
 30
0.0
 10
15.389931
 20
109.575964
 30
0.0
  0
SPLINE
  5
128
100
AcDbEntity
  8
0
 62
7
100
AcDbSpline
 70
8
 71
3
 72
8
 73
4
 74
0
 40
0
 40
0
 40
0
 40
0
 40
1
 40
1
 40
1
 40
1
 10
15.389931
 20
109.575964
 30
0.0
 10
15.389931
 20
108.898035
 30
0.0
 10
14.740694
 20
107.240324
 30
0.0
 10
14.419792
 20
107.097700
 30
0.0
  0
SPLINE
  5
129
100
AcDbEntity
  8
0
 62
7
100
AcDbSpline
 70
8
 71
3
 72
8
 73
4
 74
0
 40
0
 40
0
 40
0
 40
0
 40
1
 40
1
 40
1
 40
1
 10
14.419792
 20
107.097700
 30
0.0
 10
14.325737
 20
107.055897
 30
0.0
 10
14.244108
 20
106.701068
 30
0.0
 10
14.243403
 20
106.303950
 30
0.0
  0
SPLINE
  5
12a
100
AcDbEntity
  8
0
 62
7
100
AcDbSpline
 70
8
 71
3
 72
8
 73
4
 74
0
 40
0
 40
0
 40
0
 40
0
 40
1
 40
1
 40
1
 40
1
 10
14.243403
 20
106.303950
 30
0.0
 10
14.241696
 20
105.334695
 30
0.0
 10
13.834645
 20
103.921190
 30
0.0
 10
13.493750
 20
103.702214
 30
0.0
  0
SPLINE
  5
12b
100
AcDbEntity
  8
0
 62
7
100
AcDbSpline
 70
8
 71
3
 72
8
 73
4
 74
0
 40
0
 40
0
 40
0
 40
0
 40
1
 40
1
 40
1
 40
1
 10
13.493750
 20
103.702214
 30
0.0
 10
13.341929
 20
103.604692
 30
0.0
 10
13.023540
 20
103.170998
 30
0.0
 10
12.779375
 20
102.732075
 30
0.0
  0
SPLINE
  5
12c
100
AcDbEntity
  8
0
 62
7
100
AcDbSpline
 70
8
 71
3
 72
8
 73
4
 74
0
 40
0
 40
0
 40
0
 40
0
 40
1
 40
1
 40
1
 40
1
 10
12.779375
 20
102.732075
 30
0.0
 10
12.535210
 20
102.293152
 30
0.0
 10
12.098049
 20
101.743555
 30
0.0
 10
11.809236
 20
101.514992
 30
0.0
  0
SPLINE
  5
12d
100
AcDbEntity
  8
0
 62
7
100
AcDbSpline
 70
8
 71
3
 72
8
 73
4
 74
0
 40
0
 40
0
 40
0
 40
0
 40
1
 40
1
 40
1
 40
1
 10
11.809236
 20
101.514992
 30
0.0
 10
11.520423
 20
101.286429
 30
0.0
 10
11.280069
 20
101.008945
 30
0.0
 10
11.280069
 20
100.897631
 30
0.0
  0
SPLINE
  5
12e
100
AcDbEntity
  8
0
 62
7
100
AcDbSpline
 70
8
 71
3
 72
8
 73
4
 74
0
 40
0
 40
0
 40
0
 40
0
 40
1
 40
1
 40
1
 40
1
 10
11.280069
 20
100.897631
 30
0.0
 10
11.280069
 20
100.622396
 30
0.0
 10
9.269615
 20
98.602504
 30
0.0
 10
8.493125
 20
98.101867
 30
0.0
  0
SPLINE
  5
12f
100
AcDbEntity
  8
0
 62
7
100
AcDbSpline
 70
8
 71
3
 72
8
 73
4
 74
0
 40
0
 40
0
 40
0
 40
0
 40
1
 40
1
 40
1
 40
1
 10
8.493125
 20
98.101867
 30
0.0
 10
7.713488
 20
97.599198
 30
0.0
 10
7.697343
 20
97.309356
 30
0.0
 10
8.440208
 20
97.122909
 30
0.0
  0
SPLINE
  5
130
100
AcDbEntity
  8
0
 62
7
100
AcDbSpline
 70
8
 71
3
 72
8
 73
4
 74
0
 40
0
 40
0
 40
0
 40
0
 40
1
 40
1
 40
1
 40
1
 10
8.440208
 20
97.122909
 30
0.0
 10
9.036055
 20
96.973359
 30
0.0
 10
10.318042
 20
97.358663
 30
0.0
 10
10.715625
 20
97.810825
 30
0.0
  0
SPLINE
  5
131
100
AcDbEntity
  8
0
 62
7
100
AcDbSpline
 70
8
 71
3
 72
8
 73
4
 74
0
 40
0
 40
0
 40
0
 40
0
 40
1
 40
1
 40
1
 40
1
 10
10.715625
 20
97.810825
 30
0.0
 10
10.841032
 20
97.953446
 30
0.0
 10
11.351707
 20
98.319655
 30
0.0
 10
11.853333
 20
98.622214
 30
0.0
  0
SPLINE
  5
132
100
AcDbEntity
  8
0
 62
7
100
AcDbSpline
 70
8
 71
3
 72
8
 73
4
 74
0
 40
0
 40
0
 40
0
 40
0
 40
1
 40
1
 40
1
 40
1
 10
11.853333
 20
98.622214
 30
0.0
 10
12.354960
 20
98.924773
 30
0.0
 10
12.897728
 20
99.358340
 30
0.0
 10
13.061597
 20
99.583534
 30
0.0
  0
SPLINE
  5
133
100
AcDbEntity
  8
0
 62
7
100
AcDbSpline
 70
8
 71
3
 72
8
 73
4
 74
0
 40
0
 40
0
 40
0
 40
0
 40
1
 40
1
 40
1
 40
1
 10
13.061597
 20
99.583534
 30
0.0
 10
13.492337
 20
100.175469
 30
0.0
 10
13.987983
 20
100.082104
 30
0.0
 10
14.164028
 20
99.380686
 30
0.0
  0
SPLINE
  5
134
100
AcDbEntity
  8
0
 62
7
100
AcDbSpline
 70
8
 71
3
 72
8
 73
4
 74
0
 40
0
 40
0
 40
0
 40
0
 40
1
 40
1
 40
1
 40
1
 10
14.164028
 20
99.380686
 30
0.0
 10
14.247944
 20
99.046329
 30
0.0
 10
14.248690
 20
97.046756
 30
0.0
 10
14.172847
 20
94.935686
 30
0.0
  0
SPLINE
  5
135
100
AcDbEntity
  8
0
 62
7
100
AcDbSpline
 70
8
 71
3
 72
8
 73
4
 74
0
 40
0
 40
0
 40
0
 40
0
 40
1
 40
1
 40
1
 40
1
 10
14.172847
 20
94.935686
 30
0.0
 10
14.030688
 20
90.978694
 30
0.0
 10
14.063730
 20
90.863595
 30
0.0
 10
14.948958
 20
91.337353
 30
0.0
  0
SPLINE
  5
136
100
AcDbEntity
  8
0
 62
7
100
AcDbSpline
 70
8
 71
3
 72
8
 73
4
 74
0
 40
0
 40
0
 40
0
 40
0
 40
1
 40
1
 40
1
 40
1
 10
14.948958
 20
91.337353
 30
0.0
 10
15.317844
 20
91.534776
 30
0.0
 10
15.389931
 20
91.496179
 30
0.0
 10
15.389931
 20
91.108047
 30
0.0
  0
SPLINE
  5
137
100
AcDbEntity
  8
0
 62
7
100
AcDbSpline
 70
8
 71
3
 72
8
 73
4
 74
0
 40
0
 40
0
 40
0
 40
0
 40
1
 40
1
 40
1
 40
1
 10
15.389931
 20
91.108047
 30
0.0
 10
15.389931
 20
90.852823
 30
0.0
 10
15.469924
 20
90.640617
 30
0.0
 10
15.575139
 20
90.640617
 30
0.0
  0
SPLINE
  5
138
100
AcDbEntity
  8
0
 62
7
100
AcDbSpline
 70
8
 71
3
 72
8
 73
4
 74
0
 40
0
 40
0
 40
0
 40
0
 40
1
 40
1
 40
1
 40
1
 10
15.575139
 20
90.640617
 30
0.0
 10
15.680353
 20
90.640617
 30
0.0
 10
15.893357
 20
89.744728
 30
0.0
 10
16.042569
 20
88.647422
 30
0.0
  0
SPLINE
  5
139
100
AcDbEntity
  8
0
 62
7
100
AcDbSpline
 70
8
 71
3
 72
8
 73
4
 74
0
 40
0
 40
0
 40
0
 40
0
 40
1
 40
1
 40
1
 40
1
 10
16.042569
 20
88.647422
 30
0.0
 10
16.689786
 20
83.887810
 30
0.0
 10
16.820905
 20
83.117631
 30
0.0
 10
16.995069
 20
83.117631
 30
0.0
  0
SPLINE
  5
13a
100
AcDbEntity
  8
0
 62
7
100
AcDbSpline
 70
8
 71
3
 72
8
 73
4
 74
0
 40
0
 40
0
 40
0
 40
0
 40
1
 40
1
 40
1
 40
1
 10
16.995069
 20
83.117631
 30
0.0
 10
17.096423
 20
83.117631
 30
0.0
 10
17.210759
 20
82.888266
 30
0.0
 10
17.250833
 20
82.606103
 30
0.0
  0
SPLINE
  5
13b
100
AcDbEntity
  8
0
 62
7
100
AcDbSpline
 70
8
 71
3
 72
8
 73
4
 74
0
 40
0
 40
0
 40
0
 40
0
 40
1
 40
1
 40
1
 40
1
 10
17.250833
 20
82.606103
 30
0.0
 10
17.290907
 20
82.323937
 30
0.0
 10
17.559571
 20
81.989061
 30
0.0
 10
17.841736
 20
81.865270
 30
0.0
  0
SPLINE
  5
13c
100
AcDbEntity
  8
0
 62
7
100
AcDbSpline
 70
8
 71
3
 72
8
 73
4
 74
0
 40
0
 40
0
 40
0
 40
0
 40
1
 40
1
 40
1
 40
1
 10
17.841736
 20
81.865270
 30
0.0
 10
18.123901
 20
81.741476
 30
0.0
 10
18.353264
 20
81.564062
 30
0.0
 10
18.353264
 20
81.468395
 30
0.0
  0
SPLINE
  5
13d
100
AcDbEntity
  8
0
 62
7
100
AcDbSpline
 70
8
 71
3
 72
8
 73
4
 74
0
 40
0
 40
0
 40
0
 40
0
 40
1
 40
1
 40
1
 40
1
 10
18.353264
 20
81.468395
 30
0.0
 10
18.353264
 20
81.372724
 30
0.0
 10
19.019788
 20
81.292006
 30
0.0
 10
19.834931
 20
81.292006
 30
0.0
  0
SPLINE
  5
13e
100
AcDbEntity
  8
0
 62
7
100
AcDbSpline
 70
8
 71
3
 72
8
 73
4
 74
0
 40
0
 40
0
 40
0
 40
0
 40
1
 40
1
 40
1
 40
1
 10
19.834931
 20
81.292006
 30
0.0
 10
21.510320
 20
81.292006
 30
0.0
 10
21.806150
 20
81.485678
 30
0.0
 10
22.710069
 20
83.144089
 30
0.0
  0
SPLINE
  5
13f
100
AcDbEntity
  8
0
 62
7
100
AcDbSpline
 70
8
 71
3
 72
8
 73
4
 74
0
 40
0
 40
0
 40
0
 40
0
 40
1
 40
1
 40
1
 40
1
 10
22.710069
 20
83.144089
 30
0.0
 10
23.010555
 20
83.695388
 30
0.0
 10
23.382339
 20
84.225607
 30
0.0
 10
23.539097
 20
84.325895
 30
0.0
  0
SPLINE
  5
140
100
AcDbEntity
  8
0
 62
7
100
AcDbSpline
 70
8
 71
3
 72
8
 73
4
 74
0
 40
0
 40
0
 40
0
 40
0
 40
1
 40
1
 40
1
 40
1
 10
23.539097
 20
84.325895
 30
0.0
 10
23.695855
 20
84.426179
 30
0.0
 10
23.821319
 20
84.655544
 30
0.0
 10
23.821319
 20
84.837422
 30
0.0
  0
SPLINE
  5
141
100
AcDbEntity
  8
0
 62
7
100
AcDbSpline
 70
8
 71
3
 72
8
 73
4
 74
0
 40
0
 40
0
 40
0
 40
0
 40
1
 40
1
 40
1
 40
1
 10
23.821319
 20
84.837422
 30
0.0
 10
23.821319
 20
85.019301
 30
0.0
 10
23.998733
 20
85.356477
 30
0.0
 10
24.218194
 20
85.578256
 30
0.0
  0
SPLINE
  5
142
100
AcDbEntity
  8
0
 62
7
100
AcDbSpline
 70
8
 71
3
 72
8
 73
4
 74
0
 40
0
 40
0
 40
0
 40
0
 40
1
 40
1
 40
1
 40
1
 10
24.218194
 20
85.578256
 30
0.0
 10
24.437656
 20
85.800034
 30
0.0
 10
24.822867
 20
86.407227
 30
0.0
 10
25.073681
 20
86.936450
 30
0.0
  0
SPLINE
  5
143
100
AcDbEntity
  8
0
 62
7
100
AcDbSpline
 70
8
 71
3
 72
8
 73
4
 74
0
 40
0
 40
0
 40
0
 40
0
 40
1
 40
1
 40
1
 40
1
 10
25.073681
 20
86.936450
 30
0.0
 10
25.324494
 20
87.465670
 30
0.0
 10
25.596387
 20
87.905178
 30
0.0
 10
25.673403
 20
87.906589
 30
0.0
  0
SPLINE
  5
144
100
AcDbEntity
  8
0
 62
7
100
AcDbSpline
 70
8
 71
3
 72
8
 73
4
 74
0
 40
0
 40
0
 40
0
 40
0
 40
1
 40
1
 40
1
 40
1
 10
25.673403
 20
87.906589
 30
0.0
 10
25.750421
 20
87.908028
 30
0.0
 10
25.987050
 20
88.365316
 30
0.0
 10
26.202569
 20
88.929645
 30
0.0
  0
SPLINE
  5
145
100
AcDbEntity
  8
0
 62
7
100
AcDbSpline
 70
8
 71
3
 72
8
 73
4
 74
0
 40
0
 40
0
 40
0
 40
0
 40
1
 40
1
 40
1
 40
1
 10
26.202569
 20
88.929645
 30
0.0
 10
26.418088
 20
89.493973
 30
0.0
 10
26.676090
 20
89.961520
 30
0.0
 10
26.775833
 20
89.961520
 30
0.0
  0
SPLINE
  5
146
100
AcDbEntity
  8
0
 62
7
100
AcDbSpline
 70
8
 71
3
 72
8
 73
4
 74
0
 40
0
 40
0
 40
0
 40
0
 40
1
 40
1
 40
1
 40
1
 10
26.775833
 20
89.961520
 30
0.0
 10
26.875579
 20
89.961520
 30
0.0
 10
27.191174
 20
90.576095
 30
0.0
 10
27.472569
 20
91.328534
 30
0.0
  0
SPLINE
  5
147
100
AcDbEntity
  8
0
 62
7
100
AcDbSpline
 70
8
 71
3
 72
8
 73
4
 74
0
 40
0
 40
0
 40
0
 40
0
 40
1
 40
1
 40
1
 40
1
 10
27.472569
 20
91.328534
 30
0.0
 10
27.753962
 20
92.080975
 30
0.0
 10
28.068087
 20
92.695547
 30
0.0
 10
28.169306
 20
92.695547
 30
0.0
  0
SPLINE
  5
148
100
AcDbEntity
  8
0
 62
7
100
AcDbSpline
 70
8
 71
3
 72
8
 73
4
 74
0
 40
0
 40
0
 40
0
 40
0
 40
1
 40
1
 40
1
 40
1
 10
28.169306
 20
92.695547
 30
0.0
 10
28.270522
 20
92.695547
 30
0.0
 10
28.515601
 20
93.258172
 30
0.0
 10
28.716111
 20
93.947909
 30
0.0
  0
SPLINE
  5
149
100
AcDbEntity
  8
0
 62
7
100
AcDbSpline
 70
8
 71
3
 72
8
 73
4
 74
0
 40
0
 40
0
 40
0
 40
0
 40
1
 40
1
 40
1
 40
1
 10
28.716111
 20
93.947909
 30
0.0
 10
28.916622
 20
94.637643
 30
0.0
 10
29.154704
 20
95.200270
 30
0.0
 10
29.245278
 20
95.200270
 30
0.0
  0
SPLINE
  5
14a
100
AcDbEntity
  8
0
 62
7
100
AcDbSpline
 70
8
 71
3
 72
8
 73
4
 74
0
 40
0
 40
0
 40
0
 40
0
 40
1
 40
1
 40
1
 40
1
 10
29.245278
 20
95.200270
 30
0.0
 10
29.335857
 20
95.200270
 30
0.0
 10
29.607820
 20
95.845229
 30
0.0
 10
29.853819
 20
96.629020
 30
0.0
  0
SPLINE
  5
14b
100
AcDbEntity
  8
0
 62
7
100
AcDbSpline
 70
8
 71
3
 72
8
 73
4
 74
0
 40
0
 40
0
 40
0
 40
0
 40
1
 40
1
 40
1
 40
1
 10
29.853819
 20
96.629020
 30
0.0
 10
30.099816
 20
97.412813
 30
0.0
 10
30.374991
 20
98.109411
 30
0.0
 10
30.462361
 20
98.172422
 30
0.0
  0
SPLINE
  5
14c
100
AcDbEntity
  8
0
 62
7
100
AcDbSpline
 70
8
 71
3
 72
8
 73
4
 74
0
 40
0
 40
0
 40
0
 40
0
 40
1
 40
1
 40
1
 40
1
 10
30.462361
 20
98.172422
 30
0.0
 10
30.549731
 20
98.235431
 30
0.0
 10
30.798101
 20
98.945395
 30
0.0
 10
31.009167
 20
99.759922
 30
0.0
  0
SPLINE
  5
14d
100
AcDbEntity
  8
0
 62
7
100
AcDbSpline
 70
8
 71
3
 72
8
 73
4
 74
0
 40
0
 40
0
 40
0
 40
0
 40
1
 40
1
 40
1
 40
1
 10
31.009167
 20
99.759922
 30
0.0
 10
31.220232
 20
100.574450
 30
0.0
 10
31.503343
 20
101.313307
 30
0.0
 10
31.644167
 20
101.400339
 30
0.0
  0
SPLINE
  5
14e
100
AcDbEntity
  8
0
 62
7
100
AcDbSpline
 70
8
 71
3
 72
8
 73
4
 74
0
 40
0
 40
0
 40
0
 40
0
 40
1
 40
1
 40
1
 40
1
 10
31.644167
 20
101.400339
 30
0.0
 10
31.807932
 20
101.501552
 30
0.0
 10
31.903585
 20
102.473540
 30
0.0
 10
31.908750
 20
104.099089
 30
0.0
  0
SPLINE
  5
14f
100
AcDbEntity
  8
0
 62
7
100
AcDbSpline
 70
8
 71
3
 72
8
 73
4
 74
0
 40
0
 40
0
 40
0
 40
0
 40
1
 40
1
 40
1
 40
1
 10
31.908750
 20
104.099089
 30
0.0
 10
31.916505
 20
106.530216
 30
0.0
 10
31.945557
 20
106.664777
 30
0.0
 10
32.490833
 20
107.106520
 30
0.0
  0
SPLINE
  5
150
100
AcDbEntity
  8
0
 62
7
100
AcDbSpline
 70
8
 71
3
 72
8
 73
4
 74
0
 40
0
 40
0
 40
0
 40
0
 40
1
 40
1
 40
1
 40
1
 10
32.490833
 20
107.106520
 30
0.0
 10
32.989147
 20
107.510222
 30
0.0
 10
33.050500
 20
107.727473
 30
0.0
 10
33.002361
 20
108.817492
 30
0.0
  0
SPLINE
  5
151
100
AcDbEntity
  8
0
 62
7
100
AcDbSpline
 70
8
 71
3
 72
8
 73
4
 74
0
 40
0
 40
0
 40
0
 40
0
 40
1
 40
1
 40
1
 40
1
 10
33.002361
 20
108.817492
 30
0.0
 10
32.972076
 20
109.503275
 30
0.0
 10
33.059573
 20
110.272822
 30
0.0
 10
33.196389
 20
110.528464
 30
0.0
  0
SPLINE
  5
152
100
AcDbEntity
  8
0
 62
7
100
AcDbSpline
 70
8
 71
3
 72
8
 73
4
 74
0
 40
0
 40
0
 40
0
 40
0
 40
1
 40
1
 40
1
 40
1
 10
33.196389
 20
110.528464
 30
0.0
 10
33.472490
 20
111.044366
 30
0.0
 10
33.018470
 20
114.585409
 30
0.0
 10
32.676042
 20
114.585409
 30
0.0
  0
SPLINE
  5
153
100
AcDbEntity
  8
0
 62
7
100
AcDbSpline
 70
8
 71
3
 72
8
 73
4
 74
0
 40
0
 40
0
 40
0
 40
0
 40
1
 40
1
 40
1
 40
1
 10
32.676042
 20
114.585409
 30
0.0
 10
32.573231
 20
114.585409
 30
0.0
 10
32.490833
 20
114.845157
 30
0.0
 10
32.490833
 20
115.158672
 30
0.0
  0
SPLINE
  5
154
100
AcDbEntity
  8
0
 62
7
100
AcDbSpline
 70
8
 71
3
 72
8
 73
4
 74
0
 40
0
 40
0
 40
0
 40
0
 40
1
 40
1
 40
1
 40
1
 10
32.490833
 20
115.158672
 30
0.0
 10
32.490833
 20
115.472190
 30
0.0
 10
32.579299
 20
115.723117
 30
0.0
 10
32.693681
 20
115.723117
 30
0.0
  0
SPLINE
  5
155
100
AcDbEntity
  8
0
 62
7
100
AcDbSpline
 70
8
 71
3
 72
8
 73
4
 74
0
 40
0
 40
0
 40
0
 40
0
 40
1
 40
1
 40
1
 40
1
 10
32.693681
 20
115.723117
 30
0.0
 10
32.808065
 20
115.723117
 30
0.0
 10
32.975592
 20
116.151762
 30
0.0
 10
33.064097
 20
116.675617
 30
0.0
  0
SPLINE
  5
156
100
AcDbEntity
  8
0
 62
7
100
AcDbSpline
 70
8
 71
3
 72
8
 73
4
 74
0
 40
0
 40
0
 40
0
 40
0
 40
1
 40
1
 40
1
 40
1
 10
33.064097
 20
116.675617
 30
0.0
 10
33.190033
 20
117.421033
 30
0.0
 10
33.141130
 20
117.690417
 30
0.0
 10
32.852431
 20
117.901520
 30
0.0
  0
SPLINE
  5
157
100
AcDbEntity
  8
0
 62
7
100
AcDbSpline
 70
8
 71
3
 72
8
 73
4
 74
0
 40
0
 40
0
 40
0
 40
0
 40
1
 40
1
 40
1
 40
1
 10
32.852431
 20
117.901520
 30
0.0
 10
32.470378
 20
118.180883
 30
0.0
 10
32.330551
 20
119.603672
 30
0.0
 10
32.684861
 20
119.603672
 30
0.0
  0
SPLINE
  5
158
100
AcDbEntity
  8
0
 62
7
100
AcDbSpline
 70
8
 71
3
 72
8
 73
4
 74
0
 40
0
 40
0
 40
0
 40
0
 40
1
 40
1
 40
1
 40
1
 10
32.684861
 20
119.603672
 30
0.0
 10
32.794804
 20
119.603672
 30
0.0
 10
33.115163
 20
120.544542
 30
0.0
 10
33.390417
 20
121.702700
 30
0.0
  0
SPLINE
  5
159
100
AcDbEntity
  8
0
 62
7
100
AcDbSpline
 70
8
 71
3
 72
8
 73
4
 74
0
 40
0
 40
0
 40
0
 40
0
 40
1
 40
1
 40
1
 40
1
 10
33.390417
 20
121.702700
 30
0.0
 10
33.665671
 20
122.860858
 30
0.0
 10
33.962109
 20
123.860645
 30
0.0
 10
34.051875
 20
123.925200
 30
0.0
  0
SPLINE
  5
15a
100
AcDbEntity
  8
0
 62
7
100
AcDbSpline
 70
8
 71
3
 72
8
 73
4
 74
0
 40
0
 40
0
 40
0
 40
0
 40
1
 40
1
 40
1
 40
1
 10
34.051875
 20
123.925200
 30
0.0
 10
34.141641
 20
123.989756
 30
0.0
 10
34.332395
 20
124.751575
 30
0.0
 10
34.475208
 20
125.609714
 30
0.0
  0
SPLINE
  5
15b
100
AcDbEntity
  8
0
 62
7
100
AcDbSpline
 70
8
 71
3
 72
8
 73
4
 74
0
 40
0
 40
0
 40
0
 40
0
 40
1
 40
1
 40
1
 40
1
 10
34.475208
 20
125.609714
 30
0.0
 10
34.618021
 20
126.467856
 30
0.0
 10
34.802123
 20
127.233090
 30
0.0
 10
34.880903
 20
127.311867
 30
0.0
  0
SPLINE
  5
15c
100
AcDbEntity
  8
0
 62
7
100
AcDbSpline
 70
8
 71
3
 72
8
 73
4
 74
0
 40
0
 40
0
 40
0
 40
0
 40
1
 40
1
 40
1
 40
1
 10
34.880903
 20
127.311867
 30
0.0
 10
35.088968
 20
127.519932
 30
0.0
 10
35.393627
 20
126.931618
 30
0.0
 10
35.568819
 20
125.997770
 30
0.0
  0
SPLINE
  5
15d
100
AcDbEntity
  8
0
 62
7
100
AcDbSpline
 70
8
 71
3
 72
8
 73
4
 74
0
 40
0
 40
0
 40
0
 40
0
 40
1
 40
1
 40
1
 40
1
 10
35.568819
 20
125.997770
 30
0.0
 10
35.652631
 20
125.551001
 30
0.0
 10
35.826215
 20
125.126022
 30
0.0
 10
35.956875
 20
125.045270
 30
0.0
  0
SPLINE
  5
15e
100
AcDbEntity
  8
0
 62
7
100
AcDbSpline
 70
8
 71
3
 72
8
 73
4
 74
0
 40
0
 40
0
 40
0
 40
0
 40
1
 40
1
 40
1
 40
1
 10
35.956875
 20
125.045270
 30
0.0
 10
36.087535
 20
124.964517
 30
0.0
 10
36.249319
 20
123.934635
 30
0.0
 10
36.309653
 20
122.761034
 30
0.0
  0
SPLINE
  5
15f
100
AcDbEntity
  8
0
 62
7
100
AcDbSpline
 70
8
 71
3
 72
8
 73
4
 74
0
 40
0
 40
0
 40
0
 40
0
 40
1
 40
1
 40
1
 40
1
 10
36.309653
 20
122.761034
 30
0.0
 10
36.419025
 20
120.633442
 30
0.0
 10
36.414428
 20
120.628687
 30
0.0
 10
35.709931
 20
119.832978
 30
0.0
  0
SPLINE
  5
160
100
AcDbEntity
  8
0
 62
7
100
AcDbSpline
 70
8
 71
3
 72
8
 73
4
 74
0
 40
0
 40
0
 40
0
 40
0
 40
1
 40
1
 40
1
 40
1
 10
35.709931
 20
119.832978
 30
0.0
 10
35.321322
 20
119.394055
 30
0.0
 10
34.997531
 20
118.964888
 30
0.0
 10
34.995556
 20
118.880478
 30
0.0
  0
SPLINE
  5
161
100
AcDbEntity
  8
0
 62
7
100
AcDbSpline
 70
8
 71
3
 72
8
 73
4
 74
0
 40
0
 40
0
 40
0
 40
0
 40
1
 40
1
 40
1
 40
1
 10
34.995556
 20
118.880478
 30
0.0
 10
34.993555
 20
118.796068
 30
0.0
 10
35.287238
 20
118.432425
 30
0.0
 10
35.639375
 20
118.077909
 30
0.0
  0
SPLINE
  5
162
100
AcDbEntity
  8
0
 62
7
100
AcDbSpline
 70
8
 71
3
 72
8
 73
4
 74
0
 40
0
 40
0
 40
0
 40
0
 40
1
 40
1
 40
1
 40
1
 10
35.639375
 20
118.077909
 30
0.0
 10
35.991509
 20
117.723395
 30
0.0
 10
36.340731
 20
117.249742
 30
0.0
 10
36.424306
 20
117.028395
 30
0.0
  0
SPLINE
  5
163
100
AcDbEntity
  8
0
 62
7
100
AcDbSpline
 70
8
 71
3
 72
8
 73
4
 74
0
 40
0
 40
0
 40
0
 40
0
 40
1
 40
1
 40
1
 40
1
 10
36.424306
 20
117.028395
 30
0.0
 10
36.507877
 20
116.807053
 30
0.0
 10
36.839590
 20
116.531455
 30
0.0
 10
37.156319
 20
116.411034
 30
0.0
  0
SPLINE
  5
164
100
AcDbEntity
  8
0
 62
7
100
AcDbSpline
 70
8
 71
3
 72
8
 73
4
 74
0
 40
0
 40
0
 40
0
 40
0
 40
1
 40
1
 40
1
 40
1
 10
37.156319
 20
116.411034
 30
0.0
 10
37.473049
 20
116.290615
 30
0.0
 10
37.729583
 20
116.096370
 30
0.0
 10
37.729583
 20
115.978881
 30
0.0
  0
SPLINE
  5
165
100
AcDbEntity
  8
0
 62
7
100
AcDbSpline
 70
8
 71
3
 72
8
 73
4
 74
0
 40
0
 40
0
 40
0
 40
0
 40
1
 40
1
 40
1
 40
1
 10
37.729583
 20
115.978881
 30
0.0
 10
37.729583
 20
115.861394
 30
0.0
 10
38.121048
 20
115.697169
 30
0.0
 10
38.593889
 20
115.617284
 30
0.0
  0
SPLINE
  5
166
100
AcDbEntity
  8
0
 62
7
100
AcDbSpline
 70
8
 71
3
 72
8
 73
4
 74
0
 40
0
 40
0
 40
0
 40
0
 40
1
 40
1
 40
1
 40
1
 10
38.593889
 20
115.617284
 30
0.0
 10
39.623024
 20
115.443412
 30
0.0
 10
40.268793
 20
115.069118
 30
0.0
 10
39.837431
 20
114.894089
 30
0.0
  0
SPLINE
  5
167
100
AcDbEntity
  8
0
 62
7
100
AcDbSpline
 70
8
 71
3
 72
8
 73
4
 74
0
 40
0
 40
0
 40
0
 40
0
 40
1
 40
1
 40
1
 40
1
 10
39.837431
 20
114.894089
 30
0.0
 10
39.680673
 20
114.830479
 30
0.0
 10
39.555208
 20
114.422976
 30
0.0
 10
39.555208
 20
113.994506
 30
0.0
  0
SPLINE
  5
168
100
AcDbEntity
  8
0
 62
7
100
AcDbSpline
 70
8
 71
3
 72
8
 73
4
 74
0
 40
0
 40
0
 40
0
 40
0
 40
1
 40
1
 40
1
 40
1
 10
39.555208
 20
113.994506
 30
0.0
 10
39.555208
 20
113.566033
 30
0.0
 10
39.451308
 20
113.218395
 30
0.0
 10
39.325903
 20
113.218395
 30
0.0
  0
SPLINE
  5
169
100
AcDbEntity
  8
0
 62
7
100
AcDbSpline
 70
8
 71
3
 72
8
 73
4
 74
0
 40
0
 40
0
 40
0
 40
0
 40
1
 40
1
 40
1
 40
1
 10
39.325903
 20
113.218395
 30
0.0
 10
39.200497
 20
113.218395
 30
0.0
 10
39.096597
 20
113.071083
 30
0.0
 10
39.096597
 20
112.892075
 30
0.0
  0
SPLINE
  5
16a
100
AcDbEntity
  8
0
 62
7
100
AcDbSpline
 70
8
 71
3
 72
8
 73
4
 74
0
 40
0
 40
0
 40
0
 40
0
 40
1
 40
1
 40
1
 40
1
 10
39.096597
 20
112.892075
 30
0.0
 10
39.096597
 20
112.713067
 30
0.0
 10
38.866507
 20
112.379805
 30
0.0
 10
38.576250
 20
112.151242
 30
0.0
  0
SPLINE
  5
16b
100
AcDbEntity
  8
0
 62
7
100
AcDbSpline
 70
8
 71
3
 72
8
 73
4
 74
0
 40
0
 40
0
 40
0
 40
0
 40
1
 40
1
 40
1
 40
1
 10
38.576250
 20
112.151242
 30
0.0
 10
38.285996
 20
111.922679
 30
0.0
 10
37.848201
 20
111.425030
 30
0.0
 10
37.606111
 20
111.048811
 30
0.0
  0
SPLINE
  5
16c
100
AcDbEntity
  8
0
 62
7
100
AcDbSpline
 70
8
 71
3
 72
8
 73
4
 74
0
 40
0
 40
0
 40
0
 40
0
 40
1
 40
1
 40
1
 40
1
 10
37.606111
 20
111.048811
 30
0.0
 10
37.364021
 20
110.672592
 30
0.0
 10
36.930147
 20
110.176956
 30
0.0
 10
36.644792
 20
109.946381
 30
0.0
  0
SPLINE
  5
16d
100
AcDbEntity
  8
0
 62
7
100
AcDbSpline
 70
8
 71
3
 72
8
 73
4
 74
0
 40
0
 40
0
 40
0
 40
0
 40
1
 40
1
 40
1
 40
1
 10
36.644792
 20
109.946381
 30
0.0
 10
36.359437
 20
109.715808
 30
0.0
 10
35.589647
 20
108.956148
 30
0.0
 10
34.933819
 20
108.261867
 30
0.0
  0
SPLINE
  5
16e
100
AcDbEntity
  8
0
 62
7
100
AcDbSpline
 70
8
 71
3
 72
8
 73
4
 74
0
 40
0
 40
0
 40
0
 40
0
 40
1
 40
1
 40
1
 40
1
 10
34.933819
 20
108.261867
 30
0.0
 10
34.277994
 20
107.567589
 30
0.0
 10
33.561991
 20
106.844987
 30
0.0
 10
33.346319
 20
106.647909
 30
0.0
  0
SPLINE
  5
16f
100
AcDbEntity
  8
0
 62
7
100
AcDbSpline
 70
8
 71
3
 72
8
 73
4
 74
0
 40
0
 40
0
 40
0
 40
0
 40
1
 40
1
 40
1
 40
1
 10
33.346319
 20
106.647909
 30
0.0
 10
32.884378
 20
106.225789
 30
0.0
 10
33.023127
 20
105.377691
 30
0.0
 10
33.663819
 20
104.689992
 30
0.0
  0
SPLINE
  5
170
100
AcDbEntity
  8
0
 62
7
100
AcDbSpline
 70
8
 71
3
 72
8
 73
4
 74
0
 40
0
 40
0
 40
0
 40
0
 40
1
 40
1
 40
1
 40
1
 10
33.663819
 20
104.689992
 30
0.0
 10
33.894223
 20
104.442681
 30
0.0
 10
34.087153
 20
104.103740
 30
0.0
 10
34.087153
 20
103.940339
 30
0.0
  0
SPLINE
  5
171
100
AcDbEntity
  8
0
 62
7
100
AcDbSpline
 70
8
 71
3
 72
8
 73
4
 74
0
 40
0
 40
0
 40
0
 40
0
 40
1
 40
1
 40
1
 40
1
 10
34.087153
 20
103.940339
 30
0.0
 10
34.087153
 20
103.776941
 30
0.0
 10
34.286131
 20
103.514889
 30
0.0
 10
34.536944
 20
103.358256
 30
0.0
  0
SPLINE
  5
172
100
AcDbEntity
  8
0
 62
7
100
AcDbSpline
 70
8
 71
3
 72
8
 73
4
 74
0
 40
0
 40
0
 40
0
 40
0
 40
1
 40
1
 40
1
 40
1
 10
34.536944
 20
103.358256
 30
0.0
 10
34.982435
 20
103.080041
 30
0.0
 10
35.174913
 20
102.502770
 30
0.0
 10
34.819167
 20
102.502770
 30
0.0
  0
SPLINE
  5
173
100
AcDbEntity
  8
0
 62
7
100
AcDbSpline
 70
8
 71
3
 72
8
 73
4
 74
0
 40
0
 40
0
 40
0
 40
0
 40
1
 40
1
 40
1
 40
1
 10
34.819167
 20
102.502770
 30
0.0
 10
34.720773
 20
102.502770
 30
0.0
 10
34.391995
 20
101.836245
 30
0.0
 10
34.087153
 20
101.021103
 30
0.0
  0
SPLINE
  5
174
100
AcDbEntity
  8
0
 62
7
100
AcDbSpline
 70
8
 71
3
 72
8
 73
4
 74
0
 40
0
 40
0
 40
0
 40
0
 40
1
 40
1
 40
1
 40
1
 10
34.087153
 20
101.021103
 30
0.0
 10
33.782310
 20
100.205961
 30
0.0
 10
33.462953
 20
99.539436
 30
0.0
 10
33.381597
 20
99.539436
 30
0.0
  0
SPLINE
  5
175
100
AcDbEntity
  8
0
 62
7
100
AcDbSpline
 70
8
 71
3
 72
8
 73
4
 74
0
 40
0
 40
0
 40
0
 40
0
 40
1
 40
1
 40
1
 40
1
 10
33.381597
 20
99.539436
 30
0.0
 10
33.300244
 20
99.539436
 30
0.0
 10
33.059130
 20
99.071890
 30
0.0
 10
32.843611
 20
98.507561
 30
0.0
  0
SPLINE
  5
176
100
AcDbEntity
  8
0
 62
7
100
AcDbSpline
 70
8
 71
3
 72
8
 73
4
 74
0
 40
0
 40
0
 40
0
 40
0
 40
1
 40
1
 40
1
 40
1
 10
32.843611
 20
98.507561
 30
0.0
 10
32.628092
 20
97.943233
 30
0.0
 10
32.378246
 20
97.484506
 30
0.0
 10
32.287986
 20
97.484506
 30
0.0
  0
SPLINE
  5
177
100
AcDbEntity
  8
0
 62
7
100
AcDbSpline
 70
8
 71
3
 72
8
 73
4
 74
0
 40
0
 40
0
 40
0
 40
0
 40
1
 40
1
 40
1
 40
1
 10
32.287986
 20
97.484506
 30
0.0
 10
32.197726
 20
97.484506
 30
0.0
 10
31.940201
 20
96.973830
 30
0.0
 10
31.714722
 20
96.346797
 30
0.0
  0
SPLINE
  5
178
100
AcDbEntity
  8
0
 62
7
100
AcDbSpline
 70
8
 71
3
 72
8
 73
4
 74
0
 40
0
 40
0
 40
0
 40
0
 40
1
 40
1
 40
1
 40
1
 10
31.714722
 20
96.346797
 30
0.0
 10
31.489246
 20
95.719765
 30
0.0
 10
31.229500
 20
95.200270
 30
0.0
 10
31.141458
 20
95.200270
 30
0.0
  0
SPLINE
  5
179
100
AcDbEntity
  8
0
 62
7
100
AcDbSpline
 70
8
 71
3
 72
8
 73
4
 74
0
 40
0
 40
0
 40
0
 40
0
 40
1
 40
1
 40
1
 40
1
 10
31.141458
 20
95.200270
 30
0.0
 10
31.053422
 20
95.200270
 30
0.0
 10
30.793673
 20
94.689594
 30
0.0
 10
30.568194
 20
94.062561
 30
0.0
  0
SPLINE
  5
17a
100
AcDbEntity
  8
0
 62
7
100
AcDbSpline
 70
8
 71
3
 72
8
 73
4
 74
0
 40
0
 40
0
 40
0
 40
0
 40
1
 40
1
 40
1
 40
1
 10
30.568194
 20
94.062561
 30
0.0
 10
30.342719
 20
93.435528
 30
0.0
 10
30.084841
 20
92.924853
 30
0.0
 10
29.994931
 20
92.924853
 30
0.0
  0
SPLINE
  5
17b
100
AcDbEntity
  8
0
 62
7
100
AcDbSpline
 70
8
 71
3
 72
8
 73
4
 74
0
 40
0
 40
0
 40
0
 40
0
 40
1
 40
1
 40
1
 40
1
 10
29.994931
 20
92.924853
 30
0.0
 10
29.905020
 20
92.924853
 30
0.0
 10
29.656727
 20
92.362226
 30
0.0
 10
29.439306
 20
91.672492
 30
0.0
  0
SPLINE
  5
17c
100
AcDbEntity
  8
0
 62
7
100
AcDbSpline
 70
8
 71
3
 72
8
 73
4
 74
0
 40
0
 40
0
 40
0
 40
0
 40
1
 40
1
 40
1
 40
1
 10
29.439306
 20
91.672492
 30
0.0
 10
29.221884
 20
90.982755
 30
0.0
 10
28.966843
 20
90.411311
 30
0.0
 10
28.874861
 20
90.411311
 30
0.0
  0
SPLINE
  5
17d
100
AcDbEntity
  8
0
 62
7
100
AcDbSpline
 70
8
 71
3
 72
8
 73
4
 74
0
 40
0
 40
0
 40
0
 40
0
 40
1
 40
1
 40
1
 40
1
 10
28.874861
 20
90.411311
 30
0.0
 10
28.782876
 20
90.411311
 30
0.0
 10
28.456509
 20
89.744787
 30
0.0
 10
28.151667
 20
88.929645
 30
0.0
  0
SPLINE
  5
17e
100
AcDbEntity
  8
0
 62
7
100
AcDbSpline
 70
8
 71
3
 72
8
 73
4
 74
0
 40
0
 40
0
 40
0
 40
0
 40
1
 40
1
 40
1
 40
1
 10
28.151667
 20
88.929645
 30
0.0
 10
27.846822
 20
88.114502
 30
0.0
 10
27.518044
 20
87.447978
 30
0.0
 10
27.419653
 20
87.447978
 30
0.0
  0
SPLINE
  5
17f
100
AcDbEntity
  8
0
 62
7
100
AcDbSpline
 70
8
 71
3
 72
8
 73
4
 74
0
 40
0
 40
0
 40
0
 40
0
 40
1
 40
1
 40
1
 40
1
 10
27.419653
 20
87.447978
 30
0.0
 10
27.321259
 20
87.447978
 30
0.0
 10
27.243264
 20
87.296693
 30
0.0
 10
27.243264
 20
87.112839
 30
0.0
  0
SPLINE
  5
180
100
AcDbEntity
  8
0
 62
7
100
AcDbSpline
 70
8
 71
3
 72
8
 73
4
 74
0
 40
0
 40
0
 40
0
 40
0
 40
1
 40
1
 40
1
 40
1
 10
27.243264
 20
87.112839
 30
0.0
 10
27.243264
 20
86.728594
 30
0.0
 10
26.527162
 20
85.115115
 30
0.0
 10
26.273125
 20
84.925617
 30
0.0
  0
SPLINE
  5
181
100
AcDbEntity
  8
0
 62
7
100
AcDbSpline
 70
8
 71
3
 72
8
 73
4
 74
0
 40
0
 40
0
 40
0
 40
0
 40
1
 40
1
 40
1
 40
1
 10
26.273125
 20
84.925617
 30
0.0
 10
26.179501
 20
84.855781
 30
0.0
 10
25.946179
 20
84.271592
 30
0.0
 10
25.752778
 20
83.620339
 30
0.0
  0
SPLINE
  5
182
100
AcDbEntity
  8
0
 62
7
100
AcDbSpline
 70
8
 71
3
 72
8
 73
4
 74
0
 40
0
 40
0
 40
0
 40
0
 40
1
 40
1
 40
1
 40
1
 10
25.752778
 20
83.620339
 30
0.0
 10
25.559377
 20
82.969089
 30
0.0
 10
25.318172
 20
82.438534
 30
0.0
 10
25.214792
 20
82.438534
 30
0.0
  0
SPLINE
  5
183
100
AcDbEntity
  8
0
 62
7
100
AcDbSpline
 70
8
 71
3
 72
8
 73
4
 74
0
 40
0
 40
0
 40
0
 40
0
 40
1
 40
1
 40
1
 40
1
 10
25.214792
 20
82.438534
 30
0.0
 10
25.111411
 20
82.438534
 30
0.0
 10
24.849655
 20
81.867090
 30
0.0
 10
24.632708
 20
81.177353
 30
0.0
  0
SPLINE
  5
184
100
AcDbEntity
  8
0
 62
7
100
AcDbSpline
 70
8
 71
3
 72
8
 73
4
 74
0
 40
0
 40
0
 40
0
 40
0
 40
1
 40
1
 40
1
 40
1
 10
24.632708
 20
81.177353
 30
0.0
 10
24.415758
 20
80.487619
 30
0.0
 10
24.156881
 20
79.924992
 30
0.0
 10
24.059444
 20
79.924992
 30
0.0
  0
SPLINE
  5
185
100
AcDbEntity
  8
0
 62
7
100
AcDbSpline
 70
8
 71
3
 72
8
 73
4
 74
0
 40
0
 40
0
 40
0
 40
0
 40
1
 40
1
 40
1
 40
1
 10
24.059444
 20
79.924992
 30
0.0
 10
23.962008
 20
79.924992
 30
0.0
 10
23.752870
 20
79.458823
 30
0.0
 10
23.592014
 20
78.884297
 30
0.0
  0
SPLINE
  5
186
100
AcDbEntity
  8
0
 62
7
100
AcDbSpline
 70
8
 71
3
 72
8
 73
4
 74
0
 40
0
 40
0
 40
0
 40
0
 40
1
 40
1
 40
1
 40
1
 10
23.592014
 20
78.884297
 30
0.0
 10
23.431156
 20
78.309775
 30
0.0
 10
23.185627
 20
77.716764
 30
0.0
 10
23.045208
 20
77.570200
 30
0.0
  0
SPLINE
  5
187
100
AcDbEntity
  8
0
 62
7
100
AcDbSpline
 70
8
 71
3
 72
8
 73
4
 74
0
 40
0
 40
0
 40
0
 40
0
 40
1
 40
1
 40
1
 40
1
 10
23.045208
 20
77.570200
 30
0.0
 10
22.904787
 20
77.423637
 30
0.0
 10
22.544068
 20
76.513628
 30
0.0
 10
22.242639
 20
75.541728
 30
0.0
  0
SPLINE
  5
188
100
AcDbEntity
  8
0
 62
7
100
AcDbSpline
 70
8
 71
3
 72
8
 73
4
 74
0
 40
0
 40
0
 40
0
 40
0
 40
1
 40
1
 40
1
 40
1
 10
22.242639
 20
75.541728
 30
0.0
 10
21.941209
 20
74.569825
 30
0.0
 10
21.625497
 20
73.769020
 30
0.0
 10
21.545903
 20
73.769020
 30
0.0
  0
SPLINE
  5
189
100
AcDbEntity
  8
0
 62
7
100
AcDbSpline
 70
8
 71
3
 72
8
 73
4
 74
0
 40
0
 40
0
 40
0
 40
0
 40
1
 40
1
 40
1
 40
1
 10
21.545903
 20
73.769020
 30
0.0
 10
21.466308
 20
73.769020
 30
0.0
 10
21.213703
 20
73.132879
 30
0.0
 10
20.981458
 20
72.349089
 30
0.0
  0
SPLINE
  5
18a
100
AcDbEntity
  8
0
 62
7
100
AcDbSpline
 70
8
 71
3
 72
8
 73
4
 74
0
 40
0
 40
0
 40
0
 40
0
 40
1
 40
1
 40
1
 40
1
 10
20.981458
 20
72.349089
 30
0.0
 10
20.749214
 20
71.565299
 30
0.0
 10
20.489679
 20
70.868388
 30
0.0
 10
20.408194
 20
70.805686
 30
0.0
  0
SPLINE
  5
18b
100
AcDbEntity
  8
0
 62
7
100
AcDbSpline
 70
8
 71
3
 72
8
 73
4
 74
0
 40
0
 40
0
 40
0
 40
0
 40
1
 40
1
 40
1
 40
1
 10
20.408194
 20
70.805686
 30
0.0
 10
20.326711
 20
70.742982
 30
0.0
 10
20.075872
 20
70.098023
 30
0.0
 10
19.852569
 20
69.376936
 30
0.0
  0
SPLINE
  5
18c
100
AcDbEntity
  8
0
 62
7
100
AcDbSpline
 70
8
 71
3
 72
8
 73
4
 74
0
 40
0
 40
0
 40
0
 40
0
 40
1
 40
1
 40
1
 40
1
 10
19.852569
 20
69.376936
 30
0.0
 10
19.629266
 20
68.655847
 30
0.0
 10
19.376986
 20
68.071659
 30
0.0
 10
19.288125
 20
68.071659
 30
0.0
  0
SPLINE
  5
18d
100
AcDbEntity
  8
0
 62
7
100
AcDbSpline
 70
8
 71
3
 72
8
 73
4
 74
0
 40
0
 40
0
 40
0
 40
0
 40
1
 40
1
 40
1
 40
1
 10
19.288125
 20
68.071659
 30
0.0
 10
19.199263
 20
68.071659
 30
0.0
 10
18.930335
 20
67.405134
 30
0.0
 10
18.697222
 20
66.589992
 30
0.0
  0
SPLINE
  5
18e
100
AcDbEntity
  8
0
 62
7
100
AcDbSpline
 70
8
 71
3
 72
8
 73
4
 74
0
 40
0
 40
0
 40
0
 40
0
 40
1
 40
1
 40
1
 40
1
 10
18.697222
 20
66.589992
 30
0.0
 10
18.464109
 20
65.774849
 30
0.0
 10
18.209380
 20
65.108325
 30
0.0
 10
18.123958
 20
65.108325
 30
0.0
  0
SPLINE
  5
18f
100
AcDbEntity
  8
0
 62
7
100
AcDbSpline
 70
8
 71
3
 72
8
 73
4
 74
0
 40
0
 40
0
 40
0
 40
0
 40
1
 40
1
 40
1
 40
1
 10
18.123958
 20
65.108325
 30
0.0
 10
18.038537
 20
65.108325
 30
0.0
 10
17.778515
 20
64.493752
 30
0.0
 10
17.550694
 20
63.741311
 30
0.0
  0
SPLINE
  5
190
100
AcDbEntity
  8
0
 62
7
100
AcDbSpline
 70
8
 71
3
 72
8
 73
4
 74
0
 40
0
 40
0
 40
0
 40
0
 40
1
 40
1
 40
1
 40
1
 10
17.550694
 20
63.741311
 30
0.0
 10
17.322874
 20
62.988873
 30
0.0
 10
17.069131
 20
62.365478
 30
0.0
 10
16.986250
 20
62.365478
 30
0.0
  0
SPLINE
  5
191
100
AcDbEntity
  8
0
 62
7
100
AcDbSpline
 70
8
 71
3
 72
8
 73
4
 74
0
 40
0
 40
0
 40
0
 40
0
 40
1
 40
1
 40
1
 40
1
 10
16.986250
 20
62.365478
 30
0.0
 10
16.903369
 20
62.365478
 30
0.0
 10
16.691729
 20
61.853928
 30
0.0
 10
16.518819
 20
61.218950
 30
0.0
  0
SPLINE
  5
192
100
AcDbEntity
  8
0
 62
7
100
AcDbSpline
 70
8
 71
3
 72
8
 73
4
 74
0
 40
0
 40
0
 40
0
 40
0
 40
1
 40
1
 40
1
 40
1
 10
16.518819
 20
61.218950
 30
0.0
 10
16.345909
 20
60.583970
 30
0.0
 10
16.125503
 20
60.011107
 30
0.0
 10
16.024931
 20
59.948950
 30
0.0
  0
SPLINE
  5
193
100
AcDbEntity
  8
0
 62
7
100
AcDbSpline
 70
8
 71
3
 72
8
 73
4
 74
0
 40
0
 40
0
 40
0
 40
0
 40
1
 40
1
 40
1
 40
1
 10
16.024931
 20
59.948950
 30
0.0
 10
15.924358
 20
59.886794
 30
0.0
 10
15.839722
 20
59.680007
 30
0.0
 10
15.839722
 20
59.490339
 30
0.0
  0
SPLINE
  5
194
100
AcDbEntity
  8
0
 62
7
100
AcDbSpline
 70
8
 71
3
 72
8
 73
4
 74
0
 40
0
 40
0
 40
0
 40
0
 40
1
 40
1
 40
1
 40
1
 10
15.839722
 20
59.490339
 30
0.0
 10
15.839722
 20
59.300674
 30
0.0
 10
15.703263
 20
59.001104
 30
0.0
 10
15.531042
 20
58.828881
 30
0.0
  0
SPLINE
  5
195
100
AcDbEntity
  8
0
 62
7
100
AcDbSpline
 70
8
 71
3
 72
8
 73
4
 74
0
 40
0
 40
0
 40
0
 40
0
 40
1
 40
1
 40
1
 40
1
 10
15.531042
 20
58.828881
 30
0.0
 10
15.358820
 20
58.656660
 30
0.0
 10
15.082353
 20
58.050766
 30
0.0
 10
14.913681
 20
57.479506
 30
0.0
  0
SPLINE
  5
196
100
AcDbEntity
  8
0
 62
7
100
AcDbSpline
 70
8
 71
3
 72
8
 73
4
 74
0
 40
0
 40
0
 40
0
 40
0
 40
1
 40
1
 40
1
 40
1
 10
14.913681
 20
57.479506
 30
0.0
 10
14.745008
 20
56.908246
 30
0.0
 10
14.536060
 20
56.438811
 30
0.0
 10
14.455069
 20
56.438811
 30
0.0
  0
SPLINE
  5
197
100
AcDbEntity
  8
0
 62
7
100
AcDbSpline
 70
8
 71
3
 72
8
 73
4
 74
0
 40
0
 40
0
 40
0
 40
0
 40
1
 40
1
 40
1
 40
1
 10
14.455069
 20
56.438811
 30
0.0
 10
14.374078
 20
56.438811
 30
0.0
 10
14.125956
 20
55.949703
 30
0.0
 10
13.899444
 20
55.354020
 30
0.0
  0
SPLINE
  5
198
100
AcDbEntity
  8
0
 62
7
100
AcDbSpline
 70
8
 71
3
 72
8
 73
4
 74
0
 40
0
 40
0
 40
0
 40
0
 40
1
 40
1
 40
1
 40
1
 10
13.899444
 20
55.354020
 30
0.0
 10
13.672933
 20
54.758339
 30
0.0
 10
13.367733
 20
54.174147
 30
0.0
 10
13.220347
 20
54.048742
 30
0.0
  0
SPLINE
  5
199
100
AcDbEntity
  8
0
 62
7
100
AcDbSpline
 70
8
 71
3
 72
8
 73
4
 74
0
 40
0
 40
0
 40
0
 40
0
 40
1
 40
1
 40
1
 40
1
 10
13.220347
 20
54.048742
 30
0.0
 10
13.072961
 20
53.923334
 30
0.0
 10
12.809002
 20
53.468050
 30
0.0
 10
12.638264
 20
53.034506
 30
0.0
  0
SPLINE
  5
19a
100
AcDbEntity
  8
0
 62
7
100
AcDbSpline
 70
8
 71
3
 72
8
 73
4
 74
0
 40
0
 40
0
 40
0
 40
0
 40
1
 40
1
 40
1
 40
1
 10
12.638264
 20
53.034506
 30
0.0
 10
12.467525
 20
52.600962
 30
0.0
 10
12.170295
 20
52.075069
 30
0.0
 10
11.976806
 20
51.870339
 30
0.0
  0
SPLINE
  5
19b
100
AcDbEntity
  8
0
 62
7
100
AcDbSpline
 70
8
 71
3
 72
8
 73
4
 74
0
 40
0
 40
0
 40
0
 40
0
 40
1
 40
1
 40
1
 40
1
 10
11.976806
 20
51.870339
 30
0.0
 10
11.783317
 20
51.665604
 30
0.0
 10
11.364280
 20
51.161549
 30
0.0
 10
11.050764
 20
50.750270
 30
0.0
  0
SPLINE
  5
19c
100
AcDbEntity
  8
0
 62
7
100
AcDbSpline
 70
8
 71
3
 72
8
 73
4
 74
0
 40
0
 40
0
 40
0
 40
0
 40
1
 40
1
 40
1
 40
1
 10
11.050764
 20
50.750270
 30
0.0
 10
10.737247
 20
50.338990
 30
0.0
 10
9.382634
 20
48.889768
 30
0.0
 10
8.034514
 20
47.531172
 30
0.0
  0
SPLINE
  5
19d
100
AcDbEntity
  8
0
 62
7
100
AcDbSpline
 70
8
 71
3
 72
8
 73
4
 74
0
 40
0
 40
0
 40
0
 40
0
 40
1
 40
1
 40
1
 40
1
 10
8.034514
 20
47.531172
 30
0.0
 10
6.686394
 20
46.172577
 30
0.0
 10
5.582708
 20
45.004279
 30
0.0
 10
5.582708
 20
44.929436
 30
0.0
  0
SPLINE
  5
19e
100
AcDbEntity
  8
0
 62
7
100
AcDbSpline
 70
8
 71
3
 72
8
 73
4
 74
0
 40
0
 40
0
 40
0
 40
0
 40
1
 40
1
 40
1
 40
1
 10
5.582708
 20
44.929436
 30
0.0
 10
5.582708
 20
44.854591
 30
0.0
 10
5.219062
 20
44.420062
 30
0.0
 10
4.780139
 20
43.968117
 30
0.0
  0
SPLINE
  5
19f
100
AcDbEntity
  8
0
 62
7
100
AcDbSpline
 70
8
 71
3
 72
8
 73
4
 74
0
 40
0
 40
0
 40
0
 40
0
 40
1
 40
1
 40
1
 40
1
 10
4.780139
 20
43.968117
 30
0.0
 10
4.341216
 20
43.516172
 30
0.0
 10
3.986389
 20
43.072487
 30
0.0
 10
3.986389
 20
42.980339
 30
0.0
  0
SPLINE
  5
1a0
100
AcDbEntity
  8
0
 62
7
100
AcDbSpline
 70
8
 71
3
 72
8
 73
4
 74
0
 40
0
 40
0
 40
0
 40
0
 40
1
 40
1
 40
1
 40
1
 10
3.986389
 20
42.980339
 30
0.0
 10
3.986389
 20
42.888191
 30
0.0
 10
3.549228
 20
42.343778
 30
0.0
 10
3.016250
 20
41.772075
 30
0.0
  0
SPLINE
  5
1a1
100
AcDbEntity
  8
0
 62
7
100
AcDbSpline
 70
8
 71
3
 72
8
 73
4
 74
0
 40
0
 40
0
 40
0
 40
0
 40
1
 40
1
 40
1
 40
1
 10
3.016250
 20
41.772075
 30
0.0
 10
2.483272
 20
41.200378
 30
0.0
 10
1.817503
 20
40.447900
 30
0.0
 10
1.534583
 20
40.096381
 30
0.0
  0
SPLINE
  5
1a2
100
AcDbEntity
  8
0
 62
7
100
AcDbSpline
 70
8
 71
3
 72
8
 73
4
 74
0
 40
0
 40
0
 40
0
 40
0
 40
1
 40
1
 40
1
 40
1
 10
1.534583
 20
40.096381
 30
0.0
 10
1.251663
 20
39.744862
 30
0.0
 10
0.765781
 20
39.165891
 30
0.0
 10
0.458611
 20
38.808742
 30
0.0
  0
SPLINE
  5
1a3
100
AcDbEntity
  8
0
 62
7
100
AcDbSpline
 70
8
 71
3
 72
8
 73
4
 74
0
 40
0
 40
0
 40
0
 40
0
 40
1
 40
1
 40
1
 40
1
 10
0.458611
 20
38.808742
 30
0.0
 10
0.022048
 20
38.301151
 30
0.0
 10
-0.065326
 20
37.994714
 30
0.0
 10
0.044097
 20
37.432909
 30
0.0
  0
SPLINE
  5
1a4
100
AcDbEntity
  8
0
 62
7
100
AcDbSpline
 70
8
 71
3
 72
8
 73
4
 74
0
 40
0
 40
0
 40
0
 40
0
 40
1
 40
1
 40
1
 40
1
 10
0.044097
 20
37.432909
 30
0.0
 10
0.121088
 20
37.037620
 30
0.0
 10
0.264889
 20
36.680961
 30
0.0
 10
0.370417
 20
36.639159
 30
0.0
  0
SPLINE
  5
1a5
100
AcDbEntity
  8
0
 62
7
100
AcDbSpline
 70
8
 71
3
 72
8
 73
4
 74
0
 40
0
 40
0
 40
0
 40
0
 40
1
 40
1
 40
1
 40
1
 10
0.370417
 20
36.639159
 30
0.0
 10
0.475945
 20
36.597356
 30
0.0
 10
0.564444
 20
36.380050
 30
0.0
 10
0.564444
 20
36.154089
 30
0.0
  0
SPLINE
  5
1a6
100
AcDbEntity
  8
0
 62
7
100
AcDbSpline
 70
8
 71
3
 72
8
 73
4
 74
0
 40
0
 40
0
 40
0
 40
0
 40
1
 40
1
 40
1
 40
1
 10
0.564444
 20
36.154089
 30
0.0
 10
0.564444
 20
35.549812
 30
0.0
 10
1.285853
 20
33.411242
 30
0.0
 10
1.490486
 20
33.411242
 30
0.0
  0
SPLINE
  5
1a7
100
AcDbEntity
  8
0
 62
7
100
AcDbSpline
 70
8
 71
3
 72
8
 73
4
 74
0
 40
0
 40
0
 40
0
 40
0
 40
1
 40
1
 40
1
 40
1
 10
1.490486
 20
33.411242
 30
0.0
 10
1.587117
 20
33.411242
 30
0.0
 10
1.782392
 20
33.068901
 30
0.0
 10
1.922639
 20
32.643950
 30
0.0
  0
SPLINE
  5
1a8
100
AcDbEntity
  8
0
 62
7
100
AcDbSpline
 70
8
 71
3
 72
8
 73
4
 74
0
 40
0
 40
0
 40
0
 40
0
 40
1
 40
1
 40
1
 40
1
 10
1.922639
 20
32.643950
 30
0.0
 10
2.272839
 20
31.582828
 30
0.0
 10
3.881442
 20
29.979863
 30
0.0
 10
4.956528
 20
29.618881
 30
0.0
  0
SPLINE
  5
1a9
100
AcDbEntity
  8
0
 62
7
100
AcDbSpline
 70
8
 71
3
 72
8
 73
4
 74
0
 40
0
 40
0
 40
0
 40
0
 40
1
 40
1
 40
1
 40
1
 10
4.956528
 20
29.618881
 30
0.0
 10
5.175989
 20
29.545193
 30
0.0
 10
5.353403
 20
29.391974
 30
0.0
 10
5.353403
 20
29.283742
 30
0.0
  0
SPLINE
  5
1aa
100
AcDbEntity
  8
0
 62
7
100
AcDbSpline
 70
8
 71
3
 72
8
 73
4
 74
0
 40
0
 40
0
 40
0
 40
0
 40
1
 40
1
 40
1
 40
1
 10
5.353403
 20
29.283742
 30
0.0
 10
5.353403
 20
29.175512
 30
0.0
 10
5.760179
 20
28.878197
 30
0.0
 10
6.261806
 20
28.622284
 30
0.0
  0
SPLINE
  5
1ab
100
AcDbEntity
  8
0
 62
7
100
AcDbSpline
 70
8
 71
3
 72
8
 73
4
 74
0
 40
0
 40
0
 40
0
 40
0
 40
1
 40
1
 40
1
 40
1
 10
6.261806
 20
28.622284
 30
0.0
 10
6.763432
 20
28.366373
 30
0.0
 10
7.179028
 20
28.068005
 30
0.0
 10
7.179028
 20
27.960825
 30
0.0
  0
SPLINE
  5
1ac
100
AcDbEntity
  8
0
 62
7
100
AcDbSpline
 70
8
 71
3
 72
8
 73
4
 74
0
 40
0
 40
0
 40
0
 40
0
 40
1
 40
1
 40
1
 40
1
 10
7.179028
 20
27.960825
 30
0.0
 10
7.179028
 20
27.762889
 30
0.0
 10
7.751260
 20
27.614095
 30
0.0
 10
9.798403
 20
27.264089
 30
0.0
  0
SPLINE
  5
1ad
100
AcDbEntity
  8
0
 62
7
100
AcDbSpline
 70
8
 71
3
 72
8
 73
4
 74
0
 40
0
 40
0
 40
0
 40
0
 40
1
 40
1
 40
1
 40
1
 10
9.798403
 20
27.264089
 30
0.0
 10
10.790227
 20
27.094513
 30
0.0
 10
11.157147
 20
26.862803
 30
0.0
 10
12.585347
 20
25.473742
 30
0.0
  0
SPLINE
  5
1ae
100
AcDbEntity
  8
0
 62
7
100
AcDbSpline
 70
8
 71
3
 72
8
 73
4
 74
0
 40
0
 40
0
 40
0
 40
0
 40
1
 40
1
 40
1
 40
1
 10
12.585347
 20
25.473742
 30
0.0
 10
13.488257
 20
24.595576
 30
0.0
 10
14.436094
 20
23.809094
 30
0.0
 10
14.693194
 20
23.727492
 30
0.0
  0
SPLINE
  5
1af
100
AcDbEntity
  8
0
 62
7
100
AcDbSpline
 70
8
 71
3
 72
8
 73
4
 74
0
 40
0
 40
0
 40
0
 40
0
 40
1
 40
1
 40
1
 40
1
 10
14.693194
 20
23.727492
 30
0.0
 10
14.950295
 20
23.645890
 30
0.0
 10
15.160625
 20
23.498056
 30
0.0
 10
15.160625
 20
23.401172
 30
0.0
  0
SPLINE
  5
1b0
100
AcDbEntity
  8
0
 62
7
100
AcDbSpline
 70
8
 71
3
 72
8
 73
4
 74
0
 40
0
 40
0
 40
0
 40
0
 40
1
 40
1
 40
1
 40
1
 10
15.160625
 20
23.401172
 30
0.0
 10
15.160625
 20
23.304291
 30
0.0
 10
15.569675
 20
23.089723
 30
0.0
 10
16.069028
 20
22.924922
 30
0.0
  0
SPLINE
  5
1b1
100
AcDbEntity
  8
0
 62
7
100
AcDbSpline
 70
8
 71
3
 72
8
 73
4
 74
0
 40
0
 40
0
 40
0
 40
0
 40
1
 40
1
 40
1
 40
1
 10
16.069028
 20
22.924922
 30
0.0
 10
16.793948
 20
22.685680
 30
0.0
 10
17.350717
 20
22.679304
 30
0.0
 10
18.855972
 20
22.889645
 30
0.0
  0
SPLINE
  5
1b2
100
AcDbEntity
  8
0
 62
7
100
AcDbSpline
 70
8
 71
3
 72
8
 73
4
 74
0
 40
0
 40
0
 40
0
 40
0
 40
1
 40
1
 40
1
 40
1
 10
18.855972
 20
22.889645
 30
0.0
 10
21.469841
 20
23.254894
 30
0.0
 10
21.316597
 20
23.308747
 30
0.0
 10
21.316597
 20
22.016520
 30
0.0
  0
SPLINE
  5
1b3
100
AcDbEntity
  8
0
 62
7
100
AcDbSpline
 70
8
 71
3
 72
8
 73
4
 74
0
 40
0
 40
0
 40
0
 40
0
 40
1
 40
1
 40
1
 40
1
 10
21.316597
 20
22.016520
 30
0.0
 10
21.316597
 20
20.731130
 30
0.0
 10
20.651195
 20
17.448047
 30
0.0
 10
20.390556
 20
17.448047
 30
0.0
  0
SPLINE
  5
1b4
100
AcDbEntity
  8
0
 62
7
100
AcDbSpline
 70
8
 71
3
 72
8
 73
4
 74
0
 40
0
 40
0
 40
0
 40
0
 40
1
 40
1
 40
1
 40
1
 10
20.390556
 20
17.448047
 30
0.0
 10
20.296164
 20
17.448047
 30
0.0
 10
20.031775
 20
16.863859
 30
0.0
 10
19.808472
 20
16.142770
 30
0.0
  0
SPLINE
  5
1b5
100
AcDbEntity
  8
0
 62
7
100
AcDbSpline
 70
8
 71
3
 72
8
 73
4
 74
0
 40
0
 40
0
 40
0
 40
0
 40
1
 40
1
 40
1
 40
1
 10
19.808472
 20
16.142770
 30
0.0
 10
19.585169
 20
15.421683
 30
0.0
 10
19.297890
 20
14.759404
 30
0.0
 10
19.164653
 20
14.669922
 30
0.0
  0
SPLINE
  5
1b6
100
AcDbEntity
  8
0
 62
7
100
AcDbSpline
 70
8
 71
3
 72
8
 73
4
 74
0
 40
0
 40
0
 40
0
 40
0
 40
1
 40
1
 40
1
 40
1
 10
19.164653
 20
14.669922
 30
0.0
 10
18.801795
 20
14.426229
 30
0.0
 10
18.842848
 20
9.650154
 30
0.0
 10
19.208750
 20
9.528186
 30
0.0
  0
SPLINE
  5
1b7
100
AcDbEntity
  8
0
 62
7
100
AcDbSpline
 70
8
 71
3
 72
8
 73
4
 74
0
 40
0
 40
0
 40
0
 40
0
 40
1
 40
1
 40
1
 40
1
 10
19.208750
 20
9.528186
 30
0.0
 10
19.365508
 20
9.475933
 30
0.0
 10
19.490972
 20
9.279921
 30
0.0
 10
19.490972
 20
9.096034
 30
0.0
  0
SPLINE
  5
1b8
100
AcDbEntity
  8
0
 62
7
100
AcDbSpline
 70
8
 71
3
 72
8
 73
4
 74
0
 40
0
 40
0
 40
0
 40
0
 40
1
 40
1
 40
1
 40
1
 10
19.490972
 20
9.096034
 30
0.0
 10
19.490972
 20
8.912149
 30
0.0
 10
19.643600
 20
8.460610
 30
0.0
 10
19.834931
 20
8.090617
 30
0.0
  0
SPLINE
  5
1b9
100
AcDbEntity
  8
0
 62
7
100
AcDbSpline
 70
8
 71
3
 72
8
 73
4
 74
0
 40
0
 40
0
 40
0
 40
0
 40
1
 40
1
 40
1
 40
1
 10
19.834931
 20
8.090617
 30
0.0
 10
20.115464
 20
7.548126
 30
0.0
 10
20.337039
 20
7.420339
 30
0.0
 10
20.955000
 20
7.420339
 30
0.0
  0
SPLINE
  5
1ba
100
AcDbEntity
  8
0
 62
7
100
AcDbSpline
 70
8
 71
3
 72
8
 73
4
 74
0
 40
0
 40
0
 40
0
 40
0
 40
1
 40
1
 40
1
 40
1
 10
20.955000
 20
7.420339
 30
0.0
 10
21.689358
 20
7.420339
 30
0.0
 10
21.723516
 20
7.380111
 30
0.0
 10
21.872222
 20
6.388464
 30
0.0
  0
SPLINE
  5
1bb
100
AcDbEntity
  8
0
 62
7
100
AcDbSpline
 70
8
 71
3
 72
8
 73
4
 74
0
 40
0
 40
0
 40
0
 40
0
 40
1
 40
1
 40
1
 40
1
 10
21.872222
 20
6.388464
 30
0.0
 10
22.050163
 20
5.201869
 30
0.0
 10
22.600119
 20
3.769089
 30
0.0
 10
22.877639
 20
3.769089
 30
0.0
  0
SPLINE
  5
1bc
100
AcDbEntity
  8
0
 62
7
100
AcDbSpline
 70
8
 71
3
 72
8
 73
4
 74
0
 40
0
 40
0
 40
0
 40
0
 40
1
 40
1
 40
1
 40
1
 10
22.877639
 20
3.769089
 30
0.0
 10
22.981231
 20
3.769089
 30
0.0
 10
23.169345
 20
3.539724
 30
0.0
 10
23.300972
 20
3.257561
 30
0.0
  0
SPLINE
  5
1bd
100
AcDbEntity
  8
0
 62
7
100
AcDbSpline
 70
8
 71
3
 72
8
 73
4
 74
0
 40
0
 40
0
 40
0
 40
0
 40
1
 40
1
 40
1
 40
1
 10
23.300972
 20
3.257561
 30
0.0
 10
23.626210
 20
2.560357
 30
0.0
 10
24.964743
 20
1.035061
 30
0.0
 10
25.250069
 20
1.035061
 30
0.0
  0
SPLINE
  5
1be
100
AcDbEntity
  8
0
 62
7
100
AcDbSpline
 70
8
 71
3
 72
8
 73
4
 74
0
 40
0
 40
0
 40
0
 40
0
 40
1
 40
1
 40
1
 40
1
 10
25.250069
 20
1.035061
 30
0.0
 10
25.377044
 20
1.035061
 30
0.0
 10
25.595907
 20
0.880694
 30
0.0
 10
25.735139
 20
0.691103
 30
0.0
  0
SPLINE
  5
1bf
100
AcDbEntity
  8
0
 62
7
100
AcDbSpline
 70
8
 71
3
 72
8
 73
4
 74
0
 40
0
 40
0
 40
0
 40
0
 40
1
 40
1
 40
1
 40
1
 10
25.735139
 20
0.691103
 30
0.0
 10
25.874370
 20
0.501512
 30
0.0
 10
26.449627
 20
0.245183
 30
0.0
 10
27.013958
 20
0.126659
 30
0.0
  0
SPLINE
  5
1c0
100
AcDbEntity
  8
0
 62
7
100
AcDbSpline
 70
8
 71
3
 72
8
 73
4
 74
0
 40
0
 40
0
 40
0
 40
0
 40
1
 40
1
 40
1
 40
1
 10
27.013958
 20
0.126659
 30
0.0
 10
28.200539
 20
-0.122558
 30
0.0
 10
31.530355
 20
0.013211
 30
0.0
 10
32.746597
 20
0.355964
 30
0.0
  0
SPLINE
  5
1c1
100
AcDbEntity
  8
0
 62
7
100
AcDbSpline
 70
8
 71
3
 72
8
 73
4
 74
0
 40
0
 40
0
 40
0
 40
0
 40
1
 40
1
 40
1
 40
1
 10
32.746597
 20
0.355964
 30
0.0
 10
33.204396
 20
0.484973
 30
0.0
 10
33.645664
 20
0.756308
 30
0.0
 10
33.725556
 20
0.964506
 30
0.0
  0
SPLINE
  5
1c2
100
AcDbEntity
  8
0
 62
7
100
AcDbSpline
 70
8
 71
3
 72
8
 73
4
 74
0
 40
0
 40
0
 40
0
 40
0
 40
1
 40
1
 40
1
 40
1
 10
33.725556
 20
0.964506
 30
0.0
 10
33.921751
 20
1.475777
 30
0.0
 10
33.620055
 20
5.146077
 30
0.0
 10
33.337500
 20
5.691728
 30
0.0
  0
SPLINE
  5
1c3
100
AcDbEntity
  8
0
 62
7
100
AcDbSpline
 70
8
 71
3
 72
8
 73
4
 74
0
 40
0
 40
0
 40
0
 40
0
 40
1
 40
1
 40
1
 40
1
 10
33.337500
 20
5.691728
 30
0.0
 10
33.213249
 20
5.931679
 30
0.0
 10
32.565470
 20
6.664940
 30
0.0
 10
31.891111
 20
7.323325
 30
0.0
  0
SPLINE
  5
1c4
100
AcDbEntity
  8
0
 62
7
100
AcDbSpline
 70
8
 71
3
 72
8
 73
4
 74
0
 40
0
 40
0
 40
0
 40
0
 40
1
 40
1
 40
1
 40
1
 10
31.891111
 20
7.323325
 30
0.0
 10
31.216752
 20
7.981707
 30
0.0
 10
30.665208
 20
8.685392
 30
0.0
 10
30.665208
 20
8.884367
 30
0.0
  0
SPLINE
  5
1c5
100
AcDbEntity
  8
0
 62
7
100
AcDbSpline
 70
8
 71
3
 72
8
 73
4
 74
0
 40
0
 40
0
 40
0
 40
0
 40
1
 40
1
 40
1
 40
1
 10
30.665208
 20
8.884367
 30
0.0
 10
30.665208
 20
9.083339
 30
0.0
 10
30.561308
 20
9.245964
 30
0.0
 10
30.435903
 20
9.245964
 30
0.0
  0
SPLINE
  5
1c6
100
AcDbEntity
  8
0
 62
7
100
AcDbSpline
 70
8
 71
3
 72
8
 73
4
 74
0
 40
0
 40
0
 40
0
 40
0
 40
1
 40
1
 40
1
 40
1
 10
30.435903
 20
9.245964
 30
0.0
 10
30.310495
 20
9.245964
 30
0.0
 10
30.206597
 20
9.561889
 30
0.0
 10
30.206597
 20
9.951520
 30
0.0
  0
SPLINE
  5
1c7
100
AcDbEntity
  8
0
 62
7
100
AcDbSpline
 70
8
 71
3
 72
8
 73
4
 74
0
 40
0
 40
0
 40
0
 40
0
 40
1
 40
1
 40
1
 40
1
 10
30.206597
 20
9.951520
 30
0.0
 10
30.206597
 20
10.850412
 30
0.0
 10
29.504146
 20
13.805617
 30
0.0
 10
29.289375
 20
13.805617
 30
0.0
  0
SPLINE
  5
1c8
100
AcDbEntity
  8
0
 62
7
100
AcDbSpline
 70
8
 71
3
 72
8
 73
4
 74
0
 40
0
 40
0
 40
0
 40
0
 40
1
 40
1
 40
1
 40
1
 10
29.289375
 20
13.805617
 30
0.0
 10
29.200489
 20
13.805617
 30
0.0
 10
28.945112
 20
14.661419
 30
0.0
 10
28.724931
 20
15.710617
 30
0.0
  0
SPLINE
  5
1c9
100
AcDbEntity
  8
0
 62
7
100
AcDbSpline
 70
8
 71
3
 72
8
 73
4
 74
0
 40
0
 40
0
 40
0
 40
0
 40
1
 40
1
 40
1
 40
1
 10
28.724931
 20
15.710617
 30
0.0
 10
28.402887
 20
17.245203
 30
0.0
 10
28.353475
 20
18.136387
 30
0.0
 10
28.486806
 20
20.270270
 30
0.0
  0
LWPOLYLINE
  5
1ca
100
AcDbEntity
  8
0
 62
7
100
AcDbPolyline
 90
2
 70
0
 10
22.489583
 20
128.546589
 30
0.0
 10
21.960417
 20
126.615131
 30
0.0
  0
SPLINE
  5
1cb
100
AcDbEntity
  8
0
 62
7
100
AcDbSpline
 70
8
 71
3
 72
8
 73
4
 74
0
 40
0
 40
0
 40
0
 40
0
 40
1
 40
1
 40
1
 40
1
 10
29.359931
 20
22.924922
 30
0.0
 10
30.126000
 20
22.924922
 30
0.0
 10
32.756424
 20
22.250375
 30
0.0
 10
32.940625
 20
22.007700
 30
0.0
  0
SPLINE
  5
1cc
100
AcDbEntity
  8
0
 62
7
100
AcDbSpline
 70
8
 71
3
 72
8
 73
4
 74
0
 40
0
 40
0
 40
0
 40
0
 40
1
 40
1
 40
1
 40
1
 10
32.940625
 20
22.007700
 30
0.0
 10
33.202564
 20
21.662610
 30
0.0
 10
34.701480
 20
21.328603
 30
0.0
 10
35.974514
 20
21.328603
 30
0.0
  0
SPLINE
  5
1cd
100
AcDbEntity
  8
0
 62
7
100
AcDbSpline
 70
8
 71
3
 72
8
 73
4
 74
0
 40
0
 40
0
 40
0
 40
0
 40
1
 40
1
 40
1
 40
1
 10
35.974514
 20
21.328603
 30
0.0
 10
37.301475
 20
21.328603
 30
0.0
 10
39.091218
 20
21.712002
 30
0.0
 10
39.325903
 20
22.042978
 30
0.0
  0
SPLINE
  5
1ce
100
AcDbEntity
  8
0
 62
7
100
AcDbSpline
 70
8
 71
3
 72
8
 73
4
 74
0
 40
0
 40
0
 40
0
 40
0
 40
1
 40
1
 40
1
 40
1
 10
39.325903
 20
22.042978
 30
0.0
 10
39.389789
 20
22.133075
 30
0.0
 10
40.005545
 20
22.424684
 30
0.0
 10
40.692917
 20
22.695617
 30
0.0
  0
SPLINE
  5
1cf
100
AcDbEntity
  8
0
 62
7
100
AcDbSpline
 70
8
 71
3
 72
8
 73
4
 74
0
 40
0
 40
0
 40
0
 40
0
 40
1
 40
1
 40
1
 40
1
 10
40.692917
 20
22.695617
 30
0.0
 10
41.380286
 20
22.966553
 30
0.0
 10
41.996044
 20
23.266550
 30
0.0
 10
42.059931
 20
23.357075
 30
0.0
  0
SPLINE
  5
1d0
100
AcDbEntity
  8
0
 62
7
100
AcDbSpline
 70
8
 71
3
 72
8
 73
4
 74
0
 40
0
 40
0
 40
0
 40
0
 40
1
 40
1
 40
1
 40
1
 10
42.059931
 20
23.357075
 30
0.0
 10
42.123817
 20
23.447604
 30
0.0
 10
42.559794
 20
23.693888
 30
0.0
 10
43.030069
 20
23.912700
 30
0.0
  0
SPLINE
  5
1d1
100
AcDbEntity
  8
0
 62
7
100
AcDbSpline
 70
8
 71
3
 72
8
 73
4
 74
0
 40
0
 40
0
 40
0
 40
0
 40
1
 40
1
 40
1
 40
1
 10
43.030069
 20
23.912700
 30
0.0
 10
43.500342
 20
24.131513
 30
0.0
 10
43.885556
 20
24.405167
 30
0.0
 10
43.885556
 20
24.512422
 30
0.0
  0
SPLINE
  5
1d2
100
AcDbEntity
  8
0
 62
7
100
AcDbSpline
 70
8
 71
3
 72
8
 73
4
 74
0
 40
0
 40
0
 40
0
 40
0
 40
1
 40
1
 40
1
 40
1
 10
43.885556
 20
24.512422
 30
0.0
 10
43.885556
 20
24.619678
 30
0.0
 10
44.176922
 20
24.804068
 30
0.0
 10
44.529375
 20
24.926936
 30
0.0
  0
SPLINE
  5
1d3
100
AcDbEntity
  8
0
 62
7
100
AcDbSpline
 70
8
 71
3
 72
8
 73
4
 74
0
 40
0
 40
0
 40
0
 40
0
 40
1
 40
1
 40
1
 40
1
 10
44.529375
 20
24.926936
 30
0.0
 10
44.881831
 20
25.049802
 30
0.0
 10
45.318990
 20
25.297415
 30
0.0
 10
45.499514
 20
25.473742
 30
0.0
  0
SPLINE
  5
1d4
100
AcDbEntity
  8
0
 62
7
100
AcDbSpline
 70
8
 71
3
 72
8
 73
4
 74
0
 40
0
 40
0
 40
0
 40
0
 40
1
 40
1
 40
1
 40
1
 10
45.499514
 20
25.473742
 30
0.0
 10
45.680037
 20
25.650066
 30
0.0
 10
46.232609
 20
25.981333
 30
0.0
 10
46.734236
 20
26.214575
 30
0.0
  0
SPLINE
  5
1d5
100
AcDbEntity
  8
0
 62
7
100
AcDbSpline
 70
8
 71
3
 72
8
 73
4
 74
0
 40
0
 40
0
 40
0
 40
0
 40
1
 40
1
 40
1
 40
1
 10
46.734236
 20
26.214575
 30
0.0
 10
47.235861
 20
26.447818
 30
0.0
 10
47.708247
 20
26.721785
 30
0.0
 10
47.774931
 20
26.823117
 30
0.0
  0
SPLINE
  5
1d6
100
AcDbEntity
  8
0
 62
7
100
AcDbSpline
 70
8
 71
3
 72
8
 73
4
 74
0
 40
0
 40
0
 40
0
 40
0
 40
1
 40
1
 40
1
 40
1
 10
47.774931
 20
26.823117
 30
0.0
 10
47.982257
 20
27.138173
 30
0.0
 10
50.534065
 20
27.714775
 30
0.0
 10
51.099861
 20
27.572770
 30
0.0
  0
SPLINE
  5
1d7
100
AcDbEntity
  8
0
 62
7
100
AcDbSpline
 70
8
 71
3
 72
8
 73
4
 74
0
 40
0
 40
0
 40
0
 40
0
 40
1
 40
1
 40
1
 40
1
 10
51.099861
 20
27.572770
 30
0.0
 10
51.624724
 20
27.441040
 30
0.0
 10
51.637847
 20
27.376752
 30
0.0
 10
51.637847
 20
24.838742
 30
0.0
  0
SPLINE
  5
1d8
100
AcDbEntity
  8
0
 62
7
100
AcDbSpline
 70
8
 71
3
 72
8
 73
4
 74
0
 40
0
 40
0
 40
0
 40
0
 40
1
 40
1
 40
1
 40
1
 10
51.637847
 20
24.838742
 30
0.0
 10
51.637847
 20
23.410164
 30
0.0
 10
51.551036
 20
22.237006
 30
0.0
 10
51.443819
 20
22.237006
 30
0.0
  0
SPLINE
  5
1d9
100
AcDbEntity
  8
0
 62
7
100
AcDbSpline
 70
8
 71
3
 72
8
 73
4
 74
0
 40
0
 40
0
 40
0
 40
0
 40
1
 40
1
 40
1
 40
1
 10
51.443819
 20
22.237006
 30
0.0
 10
51.336600
 20
22.237006
 30
0.0
 10
51.188933
 20
21.545674
 30
0.0
 10
51.117500
 20
20.693603
 30
0.0
  0
SPLINE
  5
1da
100
AcDbEntity
  8
0
 62
7
100
AcDbSpline
 70
8
 71
3
 72
8
 73
4
 74
0
 40
0
 40
0
 40
0
 40
0
 40
1
 40
1
 40
1
 40
1
 10
51.117500
 20
20.693603
 30
0.0
 10
50.978909
 20
19.040489
 30
0.0
 10
50.283155
 20
15.820599
 30
0.0
 10
50.023889
 20
15.631242
 30
0.0
  0
SPLINE
  5
1db
100
AcDbEntity
  8
0
 62
7
100
AcDbSpline
 70
8
 71
3
 72
8
 73
4
 74
0
 40
0
 40
0
 40
0
 40
0
 40
1
 40
1
 40
1
 40
1
 10
50.023889
 20
15.631242
 30
0.0
 10
49.938034
 20
15.568538
 30
0.0
 10
49.737732
 20
14.911290
 30
0.0
 10
49.574097
 20
14.176034
 30
0.0
  0
SPLINE
  5
1dc
100
AcDbEntity
  8
0
 62
7
100
AcDbSpline
 70
8
 71
3
 72
8
 73
4
 74
0
 40
0
 40
0
 40
0
 40
0
 40
1
 40
1
 40
1
 40
1
 10
49.574097
 20
14.176034
 30
0.0
 10
49.410462
 20
13.440777
 30
0.0
 10
49.164717
 20
12.722304
 30
0.0
 10
49.027292
 20
12.579714
 30
0.0
  0
SPLINE
  5
1dd
100
AcDbEntity
  8
0
 62
7
100
AcDbSpline
 70
8
 71
3
 72
8
 73
4
 74
0
 40
0
 40
0
 40
0
 40
0
 40
1
 40
1
 40
1
 40
1
 10
49.027292
 20
12.579714
 30
0.0
 10
48.889864
 20
12.437127
 30
0.0
 10
48.632539
 20
11.868102
 30
0.0
 10
48.454028
 20
11.318534
 30
0.0
  0
SPLINE
  5
1de
100
AcDbEntity
  8
0
 62
7
100
AcDbSpline
 70
8
 71
3
 72
8
 73
4
 74
0
 40
0
 40
0
 40
0
 40
0
 40
1
 40
1
 40
1
 40
1
 10
48.454028
 20
11.318534
 30
0.0
 10
48.275517
 20
10.768965
 30
0.0
 10
48.020791
 20
10.208254
 30
0.0
 10
47.889583
 20
10.066172
 30
0.0
  0
SPLINE
  5
1df
100
AcDbEntity
  8
0
 62
7
100
AcDbSpline
 70
8
 71
3
 72
8
 73
4
 74
0
 40
0
 40
0
 40
0
 40
0
 40
1
 40
1
 40
1
 40
1
 10
47.889583
 20
10.066172
 30
0.0
 10
47.758373
 20
9.924093
 30
0.0
 10
47.443362
 20
9.392900
 30
0.0
 10
47.192847
 20
8.893186
 30
0.0
  0
SPLINE
  5
1e0
100
AcDbEntity
  8
0
 62
7
100
AcDbSpline
 70
8
 71
3
 72
8
 73
4
 74
0
 40
0
 40
0
 40
0
 40
0
 40
1
 40
1
 40
1
 40
1
 10
47.192847
 20
8.893186
 30
0.0
 10
46.942338
 20
8.393475
 30
0.0
 10
46.619256
 20
7.860817
 30
0.0
 10
46.469653
 20
7.702561
 30
0.0
  0
SPLINE
  5
1e1
100
AcDbEntity
  8
0
 62
7
100
AcDbSpline
 70
8
 71
3
 72
8
 73
4
 74
0
 40
0
 40
0
 40
0
 40
0
 40
1
 40
1
 40
1
 40
1
 10
46.469653
 20
7.702561
 30
0.0
 10
45.748798
 20
6.940000
 30
0.0
 10
45.815366
 20
2.983701
 30
0.0
 10
46.557847
 20
2.472631
 30
0.0
  0
SPLINE
  5
1e2
100
AcDbEntity
  8
0
 62
7
100
AcDbSpline
 70
8
 71
3
 72
8
 73
4
 74
0
 40
0
 40
0
 40
0
 40
0
 40
1
 40
1
 40
1
 40
1
 10
46.557847
 20
2.472631
 30
0.0
 10
46.783419
 20
2.317363
 30
0.0
 10
47.116204
 20
2.060400
 30
0.0
 10
47.298681
 20
1.899367
 30
0.0
  0
SPLINE
  5
1e3
100
AcDbEntity
  8
0
 62
7
100
AcDbSpline
 70
8
 71
3
 72
8
 73
4
 74
0
 40
0
 40
0
 40
0
 40
0
 40
1
 40
1
 40
1
 40
1
 10
47.298681
 20
1.899367
 30
0.0
 10
47.953603
 20
1.321390
 30
0.0
 10
48.980511
 20
1.035061
 30
0.0
 10
50.411944
 20
1.035061
 30
0.0
  0
SPLINE
  5
1e4
100
AcDbEntity
  8
0
 62
7
100
AcDbSpline
 70
8
 71
3
 72
8
 73
4
 74
0
 40
0
 40
0
 40
0
 40
0
 40
1
 40
1
 40
1
 40
1
 10
50.411944
 20
1.035061
 30
0.0
 10
51.230536
 20
1.035061
 30
0.0
 10
51.867153
 20
0.933958
 30
0.0
 10
51.867153
 20
0.805756
 30
0.0
  0
SPLINE
  5
1e5
100
AcDbEntity
  8
0
 62
7
100
AcDbSpline
 70
8
 71
3
 72
8
 73
4
 74
0
 40
0
 40
0
 40
0
 40
0
 40
1
 40
1
 40
1
 40
1
 10
51.867153
 20
0.805756
 30
0.0
 10
51.867153
 20
0.680347
 30
0.0
 10
52.023002
 20
0.576450
 30
0.0
 10
52.211111
 20
0.576450
 30
0.0
  0
SPLINE
  5
1e6
100
AcDbEntity
  8
0
 62
7
100
AcDbSpline
 70
8
 71
3
 72
8
 73
4
 74
0
 40
0
 40
0
 40
0
 40
0
 40
1
 40
1
 40
1
 40
1
 10
52.211111
 20
0.576450
 30
0.0
 10
52.399221
 20
0.576450
 30
0.0
 10
52.555069
 20
0.680347
 30
0.0
 10
52.555069
 20
0.805756
 30
0.0
  0
SPLINE
  5
1e7
100
AcDbEntity
  8
0
 62
7
100
AcDbSpline
 70
8
 71
3
 72
8
 73
4
 74
0
 40
0
 40
0
 40
0
 40
0
 40
1
 40
1
 40
1
 40
1
 10
52.555069
 20
0.805756
 30
0.0
 10
52.555069
 20
0.931161
 30
0.0
 10
52.914688
 20
1.035061
 30
0.0
 10
53.357639
 20
1.035061
 30
0.0
  0
SPLINE
  5
1e8
100
AcDbEntity
  8
0
 62
7
100
AcDbSpline
 70
8
 71
3
 72
8
 73
4
 74
0
 40
0
 40
0
 40
0
 40
0
 40
1
 40
1
 40
1
 40
1
 10
53.357639
 20
1.035061
 30
0.0
 10
54.398288
 20
1.035061
 30
0.0
 10
55.606182
 20
1.546095
 30
0.0
 10
56.276875
 20
2.269784
 30
0.0
  0
SPLINE
  5
1e9
100
AcDbEntity
  8
0
 62
7
100
AcDbSpline
 70
8
 71
3
 72
8
 73
4
 74
0
 40
0
 40
0
 40
0
 40
0
 40
1
 40
1
 40
1
 40
1
 10
56.276875
 20
2.269784
 30
0.0
 10
56.728831
 20
2.757452
 30
0.0
 10
56.870445
 20
3.326655
 30
0.0
 10
57.211736
 20
6.097422
 30
0.0
  0
SPLINE
  5
1ea
100
AcDbEntity
  8
0
 62
7
100
AcDbSpline
 70
8
 71
3
 72
8
 73
4
 74
0
 40
0
 40
0
 40
0
 40
0
 40
1
 40
1
 40
1
 40
1
 10
57.211736
 20
6.097422
 30
0.0
 10
57.432372
 20
7.888650
 30
0.0
 10
57.682799
 20
9.403317
 30
0.0
 10
57.776181
 20
9.466450
 30
0.0
  0
SPLINE
  5
1eb
100
AcDbEntity
  8
0
 62
7
100
AcDbSpline
 70
8
 71
3
 72
8
 73
4
 74
0
 40
0
 40
0
 40
0
 40
0
 40
1
 40
1
 40
1
 40
1
 10
57.776181
 20
9.466450
 30
0.0
 10
57.969302
 20
9.597017
 30
0.0
 10
58.414833
 20
13.122396
 30
0.0
 10
58.631667
 20
16.257422
 30
0.0
  0
SPLINE
  5
1ec
100
AcDbEntity
  8
0
 62
7
100
AcDbSpline
 70
8
 71
3
 72
8
 73
4
 74
0
 40
0
 40
0
 40
0
 40
0
 40
1
 40
1
 40
1
 40
1
 10
58.631667
 20
16.257422
 30
0.0
 10
58.711900
 20
17.417432
 30
0.0
 10
58.855576
 20
18.365270
 30
0.0
 10
58.949167
 20
18.365270
 30
0.0
  0
SPLINE
  5
1ed
100
AcDbEntity
  8
0
 62
7
100
AcDbSpline
 70
8
 71
3
 72
8
 73
4
 74
0
 40
0
 40
0
 40
0
 40
0
 40
1
 40
1
 40
1
 40
1
 10
58.949167
 20
18.365270
 30
0.0
 10
59.042757
 20
18.365270
 30
0.0
 10
59.193300
 20
19.852135
 30
0.0
 10
59.284306
 20
21.672561
 30
0.0
  0
SPLINE
  5
1ee
100
AcDbEntity
  8
0
 62
7
100
AcDbSpline
 70
8
 71
3
 72
8
 73
4
 74
0
 40
0
 40
0
 40
0
 40
0
 40
1
 40
1
 40
1
 40
1
 10
59.284306
 20
21.672561
 30
0.0
 10
59.375305
 20
23.492988
 30
0.0
 10
59.533372
 20
25.039227
 30
0.0
 10
59.637083
 20
25.103325
 30
0.0
  0
SPLINE
  5
1ef
100
AcDbEntity
  8
0
 62
7
100
AcDbSpline
 70
8
 71
3
 72
8
 73
4
 74
0
 40
0
 40
0
 40
0
 40
0
 40
1
 40
1
 40
1
 40
1
 10
59.637083
 20
25.103325
 30
0.0
 10
59.868260
 20
25.246197
 30
0.0
 10
61.974002
 20
24.739769
 30
0.0
 10
62.132986
 20
24.503603
 30
0.0
  0
SPLINE
  5
1f0
100
AcDbEntity
  8
0
 62
7
100
AcDbSpline
 70
8
 71
3
 72
8
 73
4
 74
0
 40
0
 40
0
 40
0
 40
0
 40
1
 40
1
 40
1
 40
1
 10
62.132986
 20
24.503603
 30
0.0
 10
62.195995
 20
24.410001
 30
0.0
 10
62.914778
 20
24.159043
 30
0.0
 10
63.729306
 20
23.947978
 30
0.0
  0
SPLINE
  5
1f1
100
AcDbEntity
  8
0
 62
7
100
AcDbSpline
 70
8
 71
3
 72
8
 73
4
 74
0
 40
0
 40
0
 40
0
 40
0
 40
1
 40
1
 40
1
 40
1
 10
63.729306
 20
23.947978
 30
0.0
 10
64.543833
 20
23.736912
 30
0.0
 10
65.253794
 20
23.491131
 30
0.0
 10
65.316806
 20
23.401172
 30
0.0
  0
SPLINE
  5
1f2
100
AcDbEntity
  8
0
 62
7
100
AcDbSpline
 70
8
 71
3
 72
8
 73
4
 74
0
 40
0
 40
0
 40
0
 40
0
 40
1
 40
1
 40
1
 40
1
 10
65.316806
 20
23.401172
 30
0.0
 10
65.553223
 20
23.063640
 30
0.0
 10
68.900503
 20
22.236441
 30
0.0
 10
70.026389
 20
22.237006
 30
0.0
  0
SPLINE
  5
1f3
100
AcDbEntity
  8
0
 62
7
100
AcDbSpline
 70
8
 71
3
 72
8
 73
4
 74
0
 40
0
 40
0
 40
0
 40
0
 40
1
 40
1
 40
1
 40
1
 10
70.026389
 20
22.237006
 30
0.0
 10
71.373461
 20
22.237838
 30
0.0
 10
73.525874
 20
22.862701
 30
0.0
 10
73.695278
 20
23.304159
 30
0.0
  0
SPLINE
  5
1f4
100
AcDbEntity
  8
0
 62
7
100
AcDbSpline
 70
8
 71
3
 72
8
 73
4
 74
0
 40
0
 40
0
 40
0
 40
0
 40
1
 40
1
 40
1
 40
1
 10
73.695278
 20
23.304159
 30
0.0
 10
73.758563
 20
23.469072
 30
0.0
 10
73.922354
 20
23.610581
 30
0.0
 10
74.065694
 20
23.612839
 30
0.0
  0
SPLINE
  5
1f5
100
AcDbEntity
  8
0
 62
7
100
AcDbSpline
 70
8
 71
3
 72
8
 73
4
 74
0
 40
0
 40
0
 40
0
 40
0
 40
1
 40
1
 40
1
 40
1
 10
74.065694
 20
23.612839
 30
0.0
 10
74.209035
 20
23.615246
 30
0.0
 10
74.737053
 20
23.975040
 30
0.0
 10
75.238681
 20
24.415409
 30
0.0
  0
SPLINE
  5
1f6
100
AcDbEntity
  8
0
 62
7
100
AcDbSpline
 70
8
 71
3
 72
8
 73
4
 74
0
 40
0
 40
0
 40
0
 40
0
 40
1
 40
1
 40
1
 40
1
 10
75.238681
 20
24.415409
 30
0.0
 10
75.740305
 20
24.855782
 30
0.0
 10
76.385268
 20
25.277826
 30
0.0
 10
76.667431
 20
25.350270
 30
0.0
  0
SPLINE
  5
1f7
100
AcDbEntity
  8
0
 62
7
100
AcDbSpline
 70
8
 71
3
 72
8
 73
4
 74
0
 40
0
 40
0
 40
0
 40
0
 40
1
 40
1
 40
1
 40
1
 10
76.667431
 20
25.350270
 30
0.0
 10
76.949596
 20
25.422710
 30
0.0
 10
77.178958
 20
25.564857
 30
0.0
 10
77.178958
 20
25.667770
 30
0.0
  0
SPLINE
  5
1f8
100
AcDbEntity
  8
0
 62
7
100
AcDbSpline
 70
8
 71
3
 72
8
 73
4
 74
0
 40
0
 40
0
 40
0
 40
0
 40
1
 40
1
 40
1
 40
1
 10
77.178958
 20
25.667770
 30
0.0
 10
77.178958
 20
25.770682
 30
0.0
 10
77.771969
 20
26.022737
 30
0.0
 10
78.493056
 20
26.232214
 30
0.0
  0
SPLINE
  5
1f9
100
AcDbEntity
  8
0
 62
7
100
AcDbSpline
 70
8
 71
3
 72
8
 73
4
 74
0
 40
0
 40
0
 40
0
 40
0
 40
1
 40
1
 40
1
 40
1
 10
78.493056
 20
26.232214
 30
0.0
 10
79.214145
 20
26.441694
 30
0.0
 10
79.850282
 20
26.689722
 30
0.0
 10
79.912986
 20
26.779020
 30
0.0
  0
SPLINE
  5
1fa
100
AcDbEntity
  8
0
 62
7
100
AcDbSpline
 70
8
 71
3
 72
8
 73
4
 74
0
 40
0
 40
0
 40
0
 40
0
 40
1
 40
1
 40
1
 40
1
 10
79.912986
 20
26.779020
 30
0.0
 10
79.975687
 20
26.868318
 30
0.0
 10
80.746112
 20
27.129328
 30
0.0
 10
81.623958
 20
27.361103
 30
0.0
  0
SPLINE
  5
1fb
100
AcDbEntity
  8
0
 62
7
100
AcDbSpline
 70
8
 71
3
 72
8
 73
4
 74
0
 40
0
 40
0
 40
0
 40
0
 40
1
 40
1
 40
1
 40
1
 10
81.623958
 20
27.361103
 30
0.0
 10
82.501805
 20
27.592878
 30
0.0
 10
83.272226
 20
27.847191
 30
0.0
 10
83.334931
 20
27.925547
 30
0.0
  0
SPLINE
  5
1fc
100
AcDbEntity
  8
0
 62
7
100
AcDbSpline
 70
8
 71
3
 72
8
 73
4
 74
0
 40
0
 40
0
 40
0
 40
0
 40
1
 40
1
 40
1
 40
1
 10
83.334931
 20
27.925547
 30
0.0
 10
83.397635
 20
28.003904
 30
0.0
 10
84.189621
 20
28.314447
 30
0.0
 10
85.098819
 20
28.613464
 30
0.0
  0
SPLINE
  5
1fd
100
AcDbEntity
  8
0
 62
7
100
AcDbSpline
 70
8
 71
3
 72
8
 73
4
 74
0
 40
0
 40
0
 40
0
 40
0
 40
1
 40
1
 40
1
 40
1
 10
85.098819
 20
28.613464
 30
0.0
 10
86.008018
 20
28.912479
 30
0.0
 10
86.756875
 20
29.221286
 30
0.0
 10
86.756875
 20
29.301381
 30
0.0
  0
SPLINE
  5
1fe
100
AcDbEntity
  8
0
 62
7
100
AcDbSpline
 70
8
 71
3
 72
8
 73
4
 74
0
 40
0
 40
0
 40
0
 40
0
 40
1
 40
1
 40
1
 40
1
 10
86.756875
 20
29.301381
 30
0.0
 10
86.756875
 20
29.381478
 30
0.0
 10
87.180025
 20
29.636167
 30
0.0
 10
87.700556
 20
29.865825
 30
0.0
  0
SPLINE
  5
1ff
100
AcDbEntity
  8
0
 62
7
100
AcDbSpline
 70
8
 71
3
 72
8
 73
4
 74
0
 40
0
 40
0
 40
0
 40
0
 40
1
 40
1
 40
1
 40
1
 10
87.700556
 20
29.865825
 30
0.0
 10
88.913442
 20
30.400947
 30
0.0
 10
89.490903
 20
30.903822
 30
0.0
 10
89.490903
 20
31.418047
 30
0.0
  0
SPLINE
  5
200
100
AcDbEntity
  8
0
 62
7
100
AcDbSpline
 70
8
 71
3
 72
8
 73
4
 74
0
 40
0
 40
0
 40
0
 40
0
 40
1
 40
1
 40
1
 40
1
 10
89.490903
 20
31.418047
 30
0.0
 10
89.490903
 20
31.993171
 30
0.0
 10
88.747716
 20
34.645069
 30
0.0
 10
88.547222
 20
34.787075
 30
0.0
  0
SPLINE
  5
201
100
AcDbEntity
  8
0
 62
7
100
AcDbSpline
 70
8
 71
3
 72
8
 73
4
 74
0
 40
0
 40
0
 40
0
 40
0
 40
1
 40
1
 40
1
 40
1
 10
88.547222
 20
34.787075
 30
0.0
 10
88.455901
 20
34.851752
 30
0.0
 10
88.200258
 20
35.622176
 30
0.0
 10
87.982778
 20
36.498047
 30
0.0
  0
SPLINE
  5
202
100
AcDbEntity
  8
0
 62
7
100
AcDbSpline
 70
8
 71
3
 72
8
 73
4
 74
0
 40
0
 40
0
 40
0
 40
0
 40
1
 40
1
 40
1
 40
1
 10
87.982778
 20
36.498047
 30
0.0
 10
87.765297
 20
37.373918
 30
0.0
 10
87.486496
 20
38.158694
 30
0.0
 10
87.356597
 20
38.244297
 30
0.0
  0
SPLINE
  5
203
100
AcDbEntity
  8
0
 62
7
100
AcDbSpline
 70
8
 71
3
 72
8
 73
4
 74
0
 40
0
 40
0
 40
0
 40
0
 40
1
 40
1
 40
1
 40
1
 10
87.356597
 20
38.244297
 30
0.0
 10
87.043686
 20
38.450520
 30
0.0
 10
87.050231
 20
40.012583
 30
0.0
 10
87.365417
 20
40.211034
 30
0.0
  0
SPLINE
  5
204
100
AcDbEntity
  8
0
 62
7
100
AcDbSpline
 70
8
 71
3
 72
8
 73
4
 74
0
 40
0
 40
0
 40
0
 40
0
 40
1
 40
1
 40
1
 40
1
 10
87.365417
 20
40.211034
 30
0.0
 10
87.501377
 20
40.296637
 30
0.0
 10
87.790076
 20
41.005924
 30
0.0
 10
88.009236
 20
41.789714
 30
0.0
  0
SPLINE
  5
205
100
AcDbEntity
  8
0
 62
7
100
AcDbSpline
 70
8
 71
3
 72
8
 73
4
 74
0
 40
0
 40
0
 40
0
 40
0
 40
1
 40
1
 40
1
 40
1
 10
88.009236
 20
41.789714
 30
0.0
 10
88.228399
 20
42.573504
 30
0.0
 10
88.481961
 20
43.218464
 30
0.0
 10
88.573681
 20
43.218464
 30
0.0
  0
SPLINE
  5
206
100
AcDbEntity
  8
0
 62
7
100
AcDbSpline
 70
8
 71
3
 72
8
 73
4
 74
0
 40
0
 40
0
 40
0
 40
0
 40
1
 40
1
 40
1
 40
1
 10
88.573681
 20
43.218464
 30
0.0
 10
88.665400
 20
43.218464
 30
0.0
 10
88.920351
 20
44.114353
 30
0.0
 10
89.138125
 20
45.211659
 30
0.0
  0
SPLINE
  5
207
100
AcDbEntity
  8
0
 62
7
100
AcDbSpline
 70
8
 71
3
 72
8
 73
4
 74
0
 40
0
 40
0
 40
0
 40
0
 40
1
 40
1
 40
1
 40
1
 10
89.138125
 20
45.211659
 30
0.0
 10
89.355896
 20
46.308967
 30
0.0
 10
89.612535
 20
47.256802
 30
0.0
 10
89.702569
 20
47.319506
 30
0.0
  0
SPLINE
  5
208
100
AcDbEntity
  8
0
 62
7
100
AcDbSpline
 70
8
 71
3
 72
8
 73
4
 74
0
 40
0
 40
0
 40
0
 40
0
 40
1
 40
1
 40
1
 40
1
 10
89.702569
 20
47.319506
 30
0.0
 10
89.903495
 20
47.459434
 30
0.0
 10
90.628611
 20
51.526925
 30
0.0
 10
90.628611
 20
52.505339
 30
0.0
  0
SPLINE
  5
209
100
AcDbEntity
  8
0
 62
7
100
AcDbSpline
 70
8
 71
3
 72
8
 73
4
 74
0
 40
0
 40
0
 40
0
 40
0
 40
1
 40
1
 40
1
 40
1
 10
90.628611
 20
52.505339
 30
0.0
 10
90.628611
 20
52.895243
 30
0.0
 10
90.762895
 20
53.255511
 30
0.0
 10
90.919653
 20
53.307909
 30
0.0
  0
SPLINE
  5
20a
100
AcDbEntity
  8
0
 62
7
100
AcDbSpline
 70
8
 71
3
 72
8
 73
4
 74
0
 40
0
 40
0
 40
0
 40
0
 40
1
 40
1
 40
1
 40
1
 10
90.919653
 20
53.307909
 30
0.0
 10
91.326171
 20
53.443793
 30
0.0
 10
91.308699
 20
71.754918
 30
0.0
 10
90.902014
 20
71.890478
 30
0.0
  0
SPLINE
  5
20b
100
AcDbEntity
  8
0
 62
7
100
AcDbSpline
 70
8
 71
3
 72
8
 73
4
 74
0
 40
0
 40
0
 40
0
 40
0
 40
1
 40
1
 40
1
 40
1
 10
90.902014
 20
71.890478
 30
0.0
 10
90.736208
 20
71.945746
 30
0.0
 10
90.628611
 20
72.439936
 30
0.0
 10
90.628611
 20
73.134020
 30
0.0
  0
SPLINE
  5
20c
100
AcDbEntity
  8
0
 62
7
100
AcDbSpline
 70
8
 71
3
 72
8
 73
4
 74
0
 40
0
 40
0
 40
0
 40
0
 40
1
 40
1
 40
1
 40
1
 10
90.628611
 20
73.134020
 30
0.0
 10
90.628611
 20
74.438149
 30
0.0
 10
89.963724
 20
78.613957
 30
0.0
 10
89.729028
 20
78.787284
 30
0.0
  0
SPLINE
  5
20d
100
AcDbEntity
  8
0
 62
7
100
AcDbSpline
 70
8
 71
3
 72
8
 73
4
 74
0
 40
0
 40
0
 40
0
 40
0
 40
1
 40
1
 40
1
 40
1
 10
89.729028
 20
78.787284
 30
0.0
 10
89.644124
 20
78.849988
 30
0.0
 10
89.383331
 20
79.776258
 30
0.0
 10
89.146944
 20
80.842214
 30
0.0
  0
SPLINE
  5
20e
100
AcDbEntity
  8
0
 62
7
100
AcDbSpline
 70
8
 71
3
 72
8
 73
4
 74
0
 40
0
 40
0
 40
0
 40
0
 40
1
 40
1
 40
1
 40
1
 10
89.146944
 20
80.842214
 30
0.0
 10
88.910561
 20
81.908170
 30
0.0
 10
88.655850
 20
82.825624
 30
0.0
 10
88.573681
 20
82.888325
 30
0.0
  0
SPLINE
  5
20f
100
AcDbEntity
  8
0
 62
7
100
AcDbSpline
 70
8
 71
3
 72
8
 73
4
 74
0
 40
0
 40
0
 40
0
 40
0
 40
1
 40
1
 40
1
 40
1
 10
88.573681
 20
82.888325
 30
0.0
 10
88.491514
 20
82.951029
 30
0.0
 10
88.238776
 20
83.751838
 30
0.0
 10
88.018056
 20
84.661034
 30
0.0
  0
SPLINE
  5
210
100
AcDbEntity
  8
0
 62
7
100
AcDbSpline
 70
8
 71
3
 72
8
 73
4
 74
0
 40
0
 40
0
 40
0
 40
0
 40
1
 40
1
 40
1
 40
1
 10
88.018056
 20
84.661034
 30
0.0
 10
87.797332
 20
85.570232
 30
0.0
 10
87.549217
 20
86.310270
 30
0.0
 10
87.462431
 20
86.310270
 30
0.0
  0
SPLINE
  5
211
100
AcDbEntity
  8
0
 62
7
100
AcDbSpline
 70
8
 71
3
 72
8
 73
4
 74
0
 40
0
 40
0
 40
0
 40
0
 40
1
 40
1
 40
1
 40
1
 10
87.462431
 20
86.310270
 30
0.0
 10
87.375644
 20
86.310270
 30
0.0
 10
87.105741
 20
87.080691
 30
0.0
 10
86.871528
 20
88.021242
 30
0.0
  0
SPLINE
  5
212
100
AcDbEntity
  8
0
 62
7
100
AcDbSpline
 70
8
 71
3
 72
8
 73
4
 74
0
 40
0
 40
0
 40
0
 40
0
 40
1
 40
1
 40
1
 40
1
 10
86.871528
 20
88.021242
 30
0.0
 10
86.637314
 20
88.961790
 30
0.0
 10
86.380599
 20
89.732214
 30
0.0
 10
86.298264
 20
89.732214
 30
0.0
  0
SPLINE
  5
213
100
AcDbEntity
  8
0
 62
7
100
AcDbSpline
 70
8
 71
3
 72
8
 73
4
 74
0
 40
0
 40
0
 40
0
 40
0
 40
1
 40
1
 40
1
 40
1
 10
86.298264
 20
89.732214
 30
0.0
 10
86.215926
 20
89.732214
 30
0.0
 10
85.905317
 20
90.502638
 30
0.0
 10
85.610347
 20
91.443186
 30
0.0
  0
SPLINE
  5
214
100
AcDbEntity
  8
0
 62
7
100
AcDbSpline
 70
8
 71
3
 72
8
 73
4
 74
0
 40
0
 40
0
 40
0
 40
0
 40
1
 40
1
 40
1
 40
1
 10
85.610347
 20
91.443186
 30
0.0
 10
85.315380
 20
92.383734
 30
0.0
 10
85.001631
 20
93.154159
 30
0.0
 10
84.904792
 20
93.154159
 30
0.0
  0
SPLINE
  5
215
100
AcDbEntity
  8
0
 62
7
100
AcDbSpline
 70
8
 71
3
 72
8
 73
4
 74
0
 40
0
 40
0
 40
0
 40
0
 40
1
 40
1
 40
1
 40
1
 10
84.904792
 20
93.154159
 30
0.0
 10
84.807953
 20
93.154159
 30
0.0
 10
84.551472
 20
93.768734
 30
0.0
 10
84.340347
 20
94.521172
 30
0.0
  0
SPLINE
  5
216
100
AcDbEntity
  8
0
 62
7
100
AcDbSpline
 70
8
 71
3
 72
8
 73
4
 74
0
 40
0
 40
0
 40
0
 40
0
 40
1
 40
1
 40
1
 40
1
 10
84.340347
 20
94.521172
 30
0.0
 10
84.129225
 20
95.273611
 30
0.0
 10
83.867145
 20
95.888186
 30
0.0
 10
83.758264
 20
95.888186
 30
0.0
  0
SPLINE
  5
217
100
AcDbEntity
  8
0
 62
7
100
AcDbSpline
 70
8
 71
3
 72
8
 73
4
 74
0
 40
0
 40
0
 40
0
 40
0
 40
1
 40
1
 40
1
 40
1
 10
83.758264
 20
95.888186
 30
0.0
 10
83.649383
 20
95.888186
 30
0.0
 10
83.564236
 20
95.992086
 30
0.0
 10
83.564236
 20
96.117492
 30
0.0
  0
SPLINE
  5
218
100
AcDbEntity
  8
0
 62
7
100
AcDbSpline
 70
8
 71
3
 72
8
 73
4
 74
0
 40
0
 40
0
 40
0
 40
0
 40
1
 40
1
 40
1
 40
1
 10
83.564236
 20
96.117492
 30
0.0
 10
83.564236
 20
96.535576
 30
0.0
 10
84.060592
 20
96.350918
 30
0.0
 10
84.181597
 20
95.888186
 30
0.0
  0
SPLINE
  5
219
100
AcDbEntity
  8
0
 62
7
100
AcDbSpline
 70
8
 71
3
 72
8
 73
4
 74
0
 40
0
 40
0
 40
0
 40
0
 40
1
 40
1
 40
1
 40
1
 10
84.181597
 20
95.888186
 30
0.0
 10
84.247188
 20
95.637373
 30
0.0
 10
84.391537
 20
95.429575
 30
0.0
 10
84.499097
 20
95.429575
 30
0.0
  0
SPLINE
  5
21a
100
AcDbEntity
  8
0
 62
7
100
AcDbSpline
 70
8
 71
3
 72
8
 73
4
 74
0
 40
0
 40
0
 40
0
 40
0
 40
1
 40
1
 40
1
 40
1
 10
84.499097
 20
95.429575
 30
0.0
 10
84.606658
 20
95.429575
 30
0.0
 10
84.864042
 20
95.096313
 30
0.0
 10
85.072361
 20
94.688742
 30
0.0
  0
SPLINE
  5
21b
100
AcDbEntity
  8
0
 62
7
100
AcDbSpline
 70
8
 71
3
 72
8
 73
4
 74
0
 40
0
 40
0
 40
0
 40
0
 40
1
 40
1
 40
1
 40
1
 10
85.072361
 20
94.688742
 30
0.0
 10
85.280683
 20
94.281171
 30
0.0
 10
85.567159
 20
93.877079
 30
0.0
 10
85.716181
 20
93.789159
 30
0.0
  0
SPLINE
  5
21c
100
AcDbEntity
  8
0
 62
7
100
AcDbSpline
 70
8
 71
3
 72
8
 73
4
 74
0
 40
0
 40
0
 40
0
 40
0
 40
1
 40
1
 40
1
 40
1
 10
85.716181
 20
93.789159
 30
0.0
 10
85.865202
 20
93.701238
 30
0.0
 10
86.135106
 20
93.198995
 30
0.0
 10
86.307083
 20
92.677909
 30
0.0
  0
SPLINE
  5
21d
100
AcDbEntity
  8
0
 62
7
100
AcDbSpline
 70
8
 71
3
 72
8
 73
4
 74
0
 40
0
 40
0
 40
0
 40
0
 40
1
 40
1
 40
1
 40
1
 10
86.307083
 20
92.677909
 30
0.0
 10
86.479055
 20
92.156822
 30
0.0
 10
86.732587
 20
91.685096
 30
0.0
 10
86.880347
 20
91.628395
 30
0.0
  0
SPLINE
  5
21e
100
AcDbEntity
  8
0
 62
7
100
AcDbSpline
 70
8
 71
3
 72
8
 73
4
 74
0
 40
0
 40
0
 40
0
 40
0
 40
1
 40
1
 40
1
 40
1
 10
86.880347
 20
91.628395
 30
0.0
 10
87.028110
 20
91.571693
 30
0.0
 10
87.338566
 20
91.074153
 30
0.0
 10
87.568264
 20
90.517145
 30
0.0
  0
SPLINE
  5
21f
100
AcDbEntity
  8
0
 62
7
100
AcDbSpline
 70
8
 71
3
 72
8
 73
4
 74
0
 40
0
 40
0
 40
0
 40
0
 40
1
 40
1
 40
1
 40
1
 10
87.568264
 20
90.517145
 30
0.0
 10
87.797962
 20
89.960140
 30
0.0
 10
88.063248
 20
89.502909
 30
0.0
 10
88.150347
 20
89.502909
 30
0.0
  0
SPLINE
  5
220
100
AcDbEntity
  8
0
 62
7
100
AcDbSpline
 70
8
 71
3
 72
8
 73
4
 74
0
 40
0
 40
0
 40
0
 40
0
 40
1
 40
1
 40
1
 40
1
 10
88.150347
 20
89.502909
 30
0.0
 10
88.237449
 20
89.502909
 30
0.0
 10
88.489316
 20
88.992233
 30
0.0
 10
88.714792
 20
88.365200
 30
0.0
  0
SPLINE
  5
221
100
AcDbEntity
  8
0
 62
7
100
AcDbSpline
 70
8
 71
3
 72
8
 73
4
 74
0
 40
0
 40
0
 40
0
 40
0
 40
1
 40
1
 40
1
 40
1
 10
88.714792
 20
88.365200
 30
0.0
 10
88.940270
 20
87.738167
 30
0.0
 10
89.197795
 20
87.218672
 30
0.0
 10
89.288056
 20
87.218672
 30
0.0
  0
SPLINE
  5
222
100
AcDbEntity
  8
0
 62
7
100
AcDbSpline
 70
8
 71
3
 72
8
 73
4
 74
0
 40
0
 40
0
 40
0
 40
0
 40
1
 40
1
 40
1
 40
1
 10
89.288056
 20
87.218672
 30
0.0
 10
89.378319
 20
87.218672
 30
0.0
 10
89.628162
 20
86.759946
 30
0.0
 10
89.843681
 20
86.195617
 30
0.0
  0
SPLINE
  5
223
100
AcDbEntity
  8
0
 62
7
100
AcDbSpline
 70
8
 71
3
 72
8
 73
4
 74
0
 40
0
 40
0
 40
0
 40
0
 40
1
 40
1
 40
1
 40
1
 10
89.843681
 20
86.195617
 30
0.0
 10
90.059200
 20
85.631288
 30
0.0
 10
90.311303
 20
85.172561
 30
0.0
 10
90.399306
 20
85.172561
 30
0.0
  0
SPLINE
  5
224
100
AcDbEntity
  8
0
 62
7
100
AcDbSpline
 70
8
 71
3
 72
8
 73
4
 74
0
 40
0
 40
0
 40
0
 40
0
 40
1
 40
1
 40
1
 40
1
 10
90.399306
 20
85.172561
 30
0.0
 10
90.487302
 20
85.172561
 30
0.0
 10
90.750379
 20
84.579550
 30
0.0
 10
90.990208
 20
83.858464
 30
0.0
  0
SPLINE
  5
225
100
AcDbEntity
  8
0
 62
7
100
AcDbSpline
 70
8
 71
3
 72
8
 73
4
 74
0
 40
0
 40
0
 40
0
 40
0
 40
1
 40
1
 40
1
 40
1
 10
90.990208
 20
83.858464
 30
0.0
 10
91.230038
 20
83.137375
 30
0.0
 10
91.540274
 20
82.449289
 30
0.0
 10
91.678125
 20
82.323881
 30
0.0
  0
SPLINE
  5
226
100
AcDbEntity
  8
0
 62
7
100
AcDbSpline
 70
8
 71
3
 72
8
 73
4
 74
0
 40
0
 40
0
 40
0
 40
0
 40
1
 40
1
 40
1
 40
1
 10
91.678125
 20
82.323881
 30
0.0
 10
91.815974
 20
82.198475
 30
0.0
 10
92.112076
 20
81.501564
 30
0.0
 10
92.330764
 20
80.780478
 30
0.0
  0
SPLINE
  5
227
100
AcDbEntity
  8
0
 62
7
100
AcDbSpline
 70
8
 71
3
 72
8
 73
4
 74
0
 40
0
 40
0
 40
0
 40
0
 40
1
 40
1
 40
1
 40
1
 10
92.330764
 20
80.780478
 30
0.0
 10
92.549455
 20
80.059389
 30
0.0
 10
92.791627
 20
79.466381
 30
0.0
 10
92.877569
 20
79.466381
 30
0.0
  0
SPLINE
  5
228
100
AcDbEntity
  8
0
 62
7
100
AcDbSpline
 70
8
 71
3
 72
8
 73
4
 74
0
 40
0
 40
0
 40
0
 40
0
 40
1
 40
1
 40
1
 40
1
 10
92.877569
 20
79.466381
 30
0.0
 10
93.037290
 20
79.466381
 30
0.0
 10
93.821250
 20
77.051140
 30
0.0
 10
93.821250
 20
76.555964
 30
0.0
  0
SPLINE
  5
229
100
AcDbEntity
  8
0
 62
7
100
AcDbSpline
 70
8
 71
3
 72
8
 73
4
 74
0
 40
0
 40
0
 40
0
 40
0
 40
1
 40
1
 40
1
 40
1
 10
93.821250
 20
76.555964
 30
0.0
 10
93.821250
 20
76.405410
 30
0.0
 10
93.905925
 20
76.282561
 30
0.0
 10
94.006458
 20
76.282561
 30
0.0
  0
SPLINE
  5
22a
100
AcDbEntity
  8
0
 62
7
100
AcDbSpline
 70
8
 71
3
 72
8
 73
4
 74
0
 40
0
 40
0
 40
0
 40
0
 40
1
 40
1
 40
1
 40
1
 10
94.006458
 20
76.282561
 30
0.0
 10
94.106992
 20
76.282561
 30
0.0
 10
94.381887
 20
75.607218
 30
0.0
 10
94.615000
 20
74.792075
 30
0.0
  0
SPLINE
  5
22b
100
AcDbEntity
  8
0
 62
7
100
AcDbSpline
 70
8
 71
3
 72
8
 73
4
 74
0
 40
0
 40
0
 40
0
 40
0
 40
1
 40
1
 40
1
 40
1
 10
94.615000
 20
74.792075
 30
0.0
 10
94.848113
 20
73.976933
 30
0.0
 10
95.103501
 20
73.310409
 30
0.0
 10
95.188264
 20
73.310409
 30
0.0
  0
SPLINE
  5
22c
100
AcDbEntity
  8
0
 62
7
100
AcDbSpline
 70
8
 71
3
 72
8
 73
4
 74
0
 40
0
 40
0
 40
0
 40
0
 40
1
 40
1
 40
1
 40
1
 10
95.188264
 20
73.310409
 30
0.0
 10
95.273027
 20
73.310409
 30
0.0
 10
95.537587
 20
72.466471
 30
0.0
 10
95.770347
 20
71.431867
 30
0.0
  0
SPLINE
  5
22d
100
AcDbEntity
  8
0
 62
7
100
AcDbSpline
 70
8
 71
3
 72
8
 73
4
 74
0
 40
0
 40
0
 40
0
 40
0
 40
1
 40
1
 40
1
 40
1
 10
95.770347
 20
71.431867
 30
0.0
 10
96.003107
 20
70.397263
 30
0.0
 10
96.276626
 20
69.491753
 30
0.0
 10
96.378889
 20
69.421034
 30
0.0
  0
SPLINE
  5
22e
100
AcDbEntity
  8
0
 62
7
100
AcDbSpline
 70
8
 71
3
 72
8
 73
4
 74
0
 40
0
 40
0
 40
0
 40
0
 40
1
 40
1
 40
1
 40
1
 10
96.378889
 20
69.421034
 30
0.0
 10
96.481155
 20
69.350314
 30
0.0
 10
96.739967
 20
68.484812
 30
0.0
 10
96.952153
 20
67.489575
 30
0.0
  0
SPLINE
  5
22f
100
AcDbEntity
  8
0
 62
7
100
AcDbSpline
 70
8
 71
3
 72
8
 73
4
 74
0
 40
0
 40
0
 40
0
 40
0
 40
1
 40
1
 40
1
 40
1
 10
96.952153
 20
67.489575
 30
0.0
 10
97.164336
 20
66.494338
 30
0.0
 10
97.405032
 20
65.620821
 30
0.0
 10
97.490139
 20
65.558117
 30
0.0
  0
SPLINE
  5
230
100
AcDbEntity
  8
0
 62
7
100
AcDbSpline
 70
8
 71
3
 72
8
 73
4
 74
0
 40
0
 40
0
 40
0
 40
0
 40
1
 40
1
 40
1
 40
1
 10
97.490139
 20
65.558117
 30
0.0
 10
97.575246
 20
65.495416
 30
0.0
 10
97.885244
 20
64.110416
 30
0.0
 10
98.178056
 20
62.480131
 30
0.0
  0
SPLINE
  5
231
100
AcDbEntity
  8
0
 62
7
100
AcDbSpline
 70
8
 71
3
 72
8
 73
4
 74
0
 40
0
 40
0
 40
0
 40
0
 40
1
 40
1
 40
1
 40
1
 10
98.178056
 20
62.480131
 30
0.0
 10
98.470870
 20
60.849843
 30
0.0
 10
98.775469
 20
59.464846
 30
0.0
 10
98.857153
 20
59.402145
 30
0.0
  0
SPLINE
  5
232
100
AcDbEntity
  8
0
 62
7
100
AcDbSpline
 70
8
 71
3
 72
8
 73
4
 74
0
 40
0
 40
0
 40
0
 40
0
 40
1
 40
1
 40
1
 40
1
 10
98.857153
 20
59.402145
 30
0.0
 10
99.173854
 20
59.159027
 30
0.0
 10
99.617191
 20
53.635885
 30
0.0
 10
99.606806
 20
50.053534
 30
0.0
  0
SPLINE
  5
233
100
AcDbEntity
  8
0
 62
7
100
AcDbSpline
 70
8
 71
3
 72
8
 73
4
 74
0
 40
0
 40
0
 40
0
 40
0
 40
1
 40
1
 40
1
 40
1
 10
99.606806
 20
50.053534
 30
0.0
 10
99.596363
 20
46.448226
 30
0.0
 10
99.250918
 20
42.803109
 30
0.0
 10
98.892431
 20
42.539367
 30
0.0
  0
SPLINE
  5
234
100
AcDbEntity
  8
0
 62
7
100
AcDbSpline
 70
8
 71
3
 72
8
 73
4
 74
0
 40
0
 40
0
 40
0
 40
0
 40
1
 40
1
 40
1
 40
1
 10
98.892431
 20
42.539367
 30
0.0
 10
98.690687
 20
42.390941
 30
0.0
 10
97.909578
 20
39.509373
 30
0.0
 10
98.036944
 20
39.382006
 30
0.0
  0
SPLINE
  5
235
100
AcDbEntity
  8
0
 62
7
100
AcDbSpline
 70
8
 71
3
 72
8
 73
4
 74
0
 40
0
 40
0
 40
0
 40
0
 40
1
 40
1
 40
1
 40
1
 10
98.036944
 20
39.382006
 30
0.0
 10
98.243345
 20
39.175608
 30
0.0
 10
98.551148
 20
39.613340
 30
0.0
 10
98.848333
 20
40.528534
 30
0.0
  0
SPLINE
  5
236
100
AcDbEntity
  8
0
 62
7
100
AcDbSpline
 70
8
 71
3
 72
8
 73
4
 74
0
 40
0
 40
0
 40
0
 40
0
 40
1
 40
1
 40
1
 40
1
 10
98.848333
 20
40.528534
 30
0.0
 10
99.023444
 20
41.067798
 30
0.0
 10
99.285284
 20
41.630594
 30
0.0
 10
99.430417
 20
41.780895
 30
0.0
  0
SPLINE
  5
237
100
AcDbEntity
  8
0
 62
7
100
AcDbSpline
 70
8
 71
3
 72
8
 73
4
 74
0
 40
0
 40
0
 40
0
 40
0
 40
1
 40
1
 40
1
 40
1
 10
99.430417
 20
41.780895
 30
0.0
 10
99.575552
 20
41.931189
 30
0.0
 10
99.826911
 20
42.753562
 30
0.0
 10
99.986042
 20
43.606520
 30
0.0
  0
SPLINE
  5
238
100
AcDbEntity
  8
0
 62
7
100
AcDbSpline
 70
8
 71
3
 72
8
 73
4
 74
0
 40
0
 40
0
 40
0
 40
0
 40
1
 40
1
 40
1
 40
1
 10
99.986042
 20
43.606520
 30
0.0
 10
100.145173
 20
44.459471
 30
0.0
 10
100.356687
 20
45.213036
 30
0.0
 10
100.462292
 20
45.282214
 30
0.0
  0
SPLINE
  5
239
100
AcDbEntity
  8
0
 62
7
100
AcDbSpline
 70
8
 71
3
 72
8
 73
4
 74
0
 40
0
 40
0
 40
0
 40
0
 40
1
 40
1
 40
1
 40
1
 10
100.462292
 20
45.282214
 30
0.0
 10
100.751267
 20
45.471517
 30
0.0
 10
101.341696
 20
51.212287
 30
0.0
 10
101.344236
 20
53.872353
 30
0.0
  0
SPLINE
  5
23a
100
AcDbEntity
  8
0
 62
7
100
AcDbSpline
 70
8
 71
3
 72
8
 73
4
 74
0
 40
0
 40
0
 40
0
 40
0
 40
1
 40
1
 40
1
 40
1
 10
101.344236
 20
53.872353
 30
0.0
 10
101.346045
 20
55.796812
 30
0.0
 10
101.406568
 20
56.209506
 30
0.0
 10
101.688194
 20
56.209506
 30
0.0
  0
SPLINE
  5
23b
100
AcDbEntity
  8
0
 62
7
100
AcDbSpline
 70
8
 71
3
 72
8
 73
4
 74
0
 40
0
 40
0
 40
0
 40
0
 40
1
 40
1
 40
1
 40
1
 10
101.688194
 20
56.209506
 30
0.0
 10
101.956678
 20
56.209506
 30
0.0
 10
102.032153
 20
55.902801
 30
0.0
 10
102.032153
 20
54.754297
 30
0.0
  0
SPLINE
  5
23c
100
AcDbEntity
  8
0
 62
7
100
AcDbSpline
 70
8
 71
3
 72
8
 73
4
 74
0
 40
0
 40
0
 40
0
 40
0
 40
1
 40
1
 40
1
 40
1
 10
102.032153
 20
54.754297
 30
0.0
 10
102.032153
 20
53.839957
 30
0.0
 10
102.130030
 20
53.257642
 30
0.0
 10
102.296736
 20
53.202075
 30
0.0
  0
SPLINE
  5
23d
100
AcDbEntity
  8
0
 62
7
100
AcDbSpline
 70
8
 71
3
 72
8
 73
4
 74
0
 40
0
 40
0
 40
0
 40
0
 40
1
 40
1
 40
1
 40
1
 10
102.296736
 20
53.202075
 30
0.0
 10
102.695341
 20
53.069205
 30
0.0
 10
102.712661
 20
38.615326
 30
0.0
 10
102.314375
 20
38.482422
 30
0.0
  0
SPLINE
  5
23e
100
AcDbEntity
  8
0
 62
7
100
AcDbSpline
 70
8
 71
3
 72
8
 73
4
 74
0
 40
0
 40
0
 40
0
 40
0
 40
1
 40
1
 40
1
 40
1
 10
102.314375
 20
38.482422
 30
0.0
 10
102.157617
 20
38.430115
 30
0.0
 10
102.032153
 20
38.047210
 30
0.0
 10
102.032153
 20
37.626936
 30
0.0
  0
SPLINE
  5
23f
100
AcDbEntity
  8
0
 62
7
100
AcDbSpline
 70
8
 71
3
 72
8
 73
4
 74
0
 40
0
 40
0
 40
0
 40
0
 40
1
 40
1
 40
1
 40
1
 10
102.032153
 20
37.626936
 30
0.0
 10
102.032153
 20
36.548444
 30
0.0
 10
101.370116
 20
33.543607
 30
0.0
 10
101.114931
 20
33.455339
 30
0.0
  0
SPLINE
  5
240
100
AcDbEntity
  8
0
 62
7
100
AcDbSpline
 70
8
 71
3
 72
8
 73
4
 74
0
 40
0
 40
0
 40
0
 40
0
 40
1
 40
1
 40
1
 40
1
 10
101.114931
 20
33.455339
 30
0.0
 10
100.997904
 20
33.414860
 30
0.0
 10
100.840749
 20
33.036437
 30
0.0
 10
100.762153
 20
32.617492
 30
0.0
  0
SPLINE
  5
241
100
AcDbEntity
  8
0
 62
7
100
AcDbSpline
 70
8
 71
3
 72
8
 73
4
 74
0
 40
0
 40
0
 40
0
 40
0
 40
1
 40
1
 40
1
 40
1
 10
100.762153
 20
32.617492
 30
0.0
 10
100.683560
 20
32.198550
 30
0.0
 10
100.427782
 20
31.648013
 30
0.0
 10
100.188889
 20
31.391589
 30
0.0
  0
SPLINE
  5
242
100
AcDbEntity
  8
0
 62
7
100
AcDbSpline
 70
8
 71
3
 72
8
 73
4
 74
0
 40
0
 40
0
 40
0
 40
0
 40
1
 40
1
 40
1
 40
1
 10
100.188889
 20
31.391589
 30
0.0
 10
99.949996
 20
31.135170
 30
0.0
 10
99.747917
 20
30.831062
 30
0.0
 10
99.747917
 20
30.721311
 30
0.0
  0
SPLINE
  5
243
100
AcDbEntity
  8
0
 62
7
100
AcDbSpline
 70
8
 71
3
 72
8
 73
4
 74
0
 40
0
 40
0
 40
0
 40
0
 40
1
 40
1
 40
1
 40
1
 10
99.747917
 20
30.721311
 30
0.0
 10
99.747917
 20
30.415605
 30
0.0
 10
98.144285
 20
28.879752
 30
0.0
 10
97.666528
 20
28.728117
 30
0.0
  0
SPLINE
  5
244
100
AcDbEntity
  8
0
 62
7
100
AcDbSpline
 70
8
 71
3
 72
8
 73
4
 74
0
 40
0
 40
0
 40
0
 40
0
 40
1
 40
1
 40
1
 40
1
 10
97.666528
 20
28.728117
 30
0.0
 10
97.224726
 20
28.587892
 30
0.0
 10
97.079923
 20
28.163672
 30
0.0
 10
97.472500
 20
28.163672
 30
0.0
  0
SPLINE
  5
245
100
AcDbEntity
  8
0
 62
7
100
AcDbSpline
 70
8
 71
3
 72
8
 73
4
 74
0
 40
0
 40
0
 40
0
 40
0
 40
1
 40
1
 40
1
 40
1
 10
97.472500
 20
28.163672
 30
0.0
 10
97.980706
 20
28.163672
 30
0.0
 10
99.502440
 20
28.974113
 30
0.0
 10
99.615625
 20
29.301381
 30
0.0
  0
SPLINE
  5
246
100
AcDbEntity
  8
0
 62
7
100
AcDbSpline
 70
8
 71
3
 72
8
 73
4
 74
0
 40
0
 40
0
 40
0
 40
0
 40
1
 40
1
 40
1
 40
1
 10
99.615625
 20
29.301381
 30
0.0
 10
99.752127
 20
29.696083
 30
0.0
 10
100.199743
 20
30.410881
 30
0.0
 10
100.559306
 20
30.809506
 30
0.0
  0
SPLINE
  5
247
100
AcDbEntity
  8
0
 62
7
100
AcDbSpline
 70
8
 71
3
 72
8
 73
4
 74
0
 40
0
 40
0
 40
0
 40
0
 40
1
 40
1
 40
1
 40
1
 10
100.559306
 20
30.809506
 30
0.0
 10
100.690516
 20
30.954969
 30
0.0
 10
100.946704
 20
31.521121
 30
0.0
 10
101.123750
 20
32.070686
 30
0.0
  0
SPLINE
  5
248
100
AcDbEntity
  8
0
 62
7
100
AcDbSpline
 70
8
 71
3
 72
8
 73
4
 74
0
 40
0
 40
0
 40
0
 40
0
 40
1
 40
1
 40
1
 40
1
 10
101.123750
 20
32.070686
 30
0.0
 10
101.300799
 20
32.620255
 30
0.0
 10
101.508752
 20
33.119232
 30
0.0
 10
101.591181
 20
33.181936
 30
0.0
  0
SPLINE
  5
249
100
AcDbEntity
  8
0
 62
7
100
AcDbSpline
 70
8
 71
3
 72
8
 73
4
 74
0
 40
0
 40
0
 40
0
 40
0
 40
1
 40
1
 40
1
 40
1
 10
101.591181
 20
33.181936
 30
0.0
 10
101.764928
 20
33.314107
 30
0.0
 10
102.490764
 20
36.115030
 30
0.0
 10
102.490764
 20
36.656797
 30
0.0
  0
SPLINE
  5
24a
100
AcDbEntity
  8
0
 62
7
100
AcDbSpline
 70
8
 71
3
 72
8
 73
4
 74
0
 40
0
 40
0
 40
0
 40
0
 40
1
 40
1
 40
1
 40
1
 10
102.490764
 20
36.656797
 30
0.0
 10
102.490764
 20
36.857796
 30
0.0
 10
102.583420
 20
37.055964
 30
0.0
 10
102.702431
 20
37.097770
 30
0.0
  0
SPLINE
  5
24b
100
AcDbEntity
  8
0
 62
7
100
AcDbSpline
 70
8
 71
3
 72
8
 73
4
 74
0
 40
0
 40
0
 40
0
 40
0
 40
1
 40
1
 40
1
 40
1
 10
102.702431
 20
37.097770
 30
0.0
 10
102.821444
 20
37.139570
 30
0.0
 10
103.094014
 20
38.562142
 30
0.0
 10
103.302153
 20
40.255131
 30
0.0
  0
SPLINE
  5
24c
100
AcDbEntity
  8
0
 62
7
100
AcDbSpline
 70
8
 71
3
 72
8
 73
4
 74
0
 40
0
 40
0
 40
0
 40
0
 40
1
 40
1
 40
1
 40
1
 10
103.302153
 20
40.255131
 30
0.0
 10
103.866744
 20
44.847468
 30
0.0
 10
103.484355
 20
54.712387
 30
0.0
 10
102.720069
 20
55.301103
 30
0.0
  0
SPLINE
  5
24d
100
AcDbEntity
  8
0
 62
7
100
AcDbSpline
 70
8
 71
3
 72
8
 73
4
 74
0
 40
0
 40
0
 40
0
 40
0
 40
1
 40
1
 40
1
 40
1
 10
102.720069
 20
55.301103
 30
0.0
 10
102.638662
 20
55.363804
 30
0.0
 10
102.393897
 20
56.438540
 30
0.0
 10
102.173264
 20
57.691172
 30
0.0
  0
SPLINE
  5
24e
100
AcDbEntity
  8
0
 62
7
100
AcDbSpline
 70
8
 71
3
 72
8
 73
4
 74
0
 40
0
 40
0
 40
0
 40
0
 40
1
 40
1
 40
1
 40
1
 10
102.173264
 20
57.691172
 30
0.0
 10
101.952628
 20
58.943804
 30
0.0
 10
101.686052
 20
60.025923
 30
0.0
 10
101.591181
 20
60.090061
 30
0.0
  0
SPLINE
  5
24f
100
AcDbEntity
  8
0
 62
7
100
AcDbSpline
 70
8
 71
3
 72
8
 73
4
 74
0
 40
0
 40
0
 40
0
 40
0
 40
1
 40
1
 40
1
 40
1
 10
101.591181
 20
60.090061
 30
0.0
 10
101.496312
 20
60.154196
 30
0.0
 10
101.233204
 20
61.152549
 30
0.0
 10
101.000278
 20
62.312561
 30
0.0
  0
SPLINE
  5
250
100
AcDbEntity
  8
0
 62
7
100
AcDbSpline
 70
8
 71
3
 72
8
 73
4
 74
0
 40
0
 40
0
 40
0
 40
0
 40
1
 40
1
 40
1
 40
1
 10
101.000278
 20
62.312561
 30
0.0
 10
100.767351
 20
63.472571
 30
0.0
 10
100.502291
 20
64.420409
 30
0.0
 10
100.409375
 20
64.420409
 30
0.0
  0
SPLINE
  5
251
100
AcDbEntity
  8
0
 62
7
100
AcDbSpline
 70
8
 71
3
 72
8
 73
4
 74
0
 40
0
 40
0
 40
0
 40
0
 40
1
 40
1
 40
1
 40
1
 10
100.409375
 20
64.420409
 30
0.0
 10
100.316459
 20
64.420409
 30
0.0
 10
100.059453
 20
65.221217
 30
0.0
 10
99.844931
 20
66.193117
 30
0.0
  0
SPLINE
  5
252
100
AcDbEntity
  8
0
 62
7
100
AcDbSpline
 70
8
 71
3
 72
8
 73
4
 74
0
 40
0
 40
0
 40
0
 40
0
 40
1
 40
1
 40
1
 40
1
 10
99.844931
 20
66.193117
 30
0.0
 10
99.630408
 20
67.165020
 30
0.0
 10
99.386571
 20
68.008954
 30
0.0
 10
99.298125
 20
68.071659
 30
0.0
  0
SPLINE
  5
253
100
AcDbEntity
  8
0
 62
7
100
AcDbSpline
 70
8
 71
3
 72
8
 73
4
 74
0
 40
0
 40
0
 40
0
 40
0
 40
1
 40
1
 40
1
 40
1
 10
99.298125
 20
68.071659
 30
0.0
 10
99.209677
 20
68.134363
 30
0.0
 10
98.951178
 20
68.956736
 30
0.0
 10
98.724861
 20
69.897284
 30
0.0
  0
SPLINE
  5
254
100
AcDbEntity
  8
0
 62
7
100
AcDbSpline
 70
8
 71
3
 72
8
 73
4
 74
0
 40
0
 40
0
 40
0
 40
0
 40
1
 40
1
 40
1
 40
1
 10
98.724861
 20
69.897284
 30
0.0
 10
98.498547
 20
70.837834
 30
0.0
 10
98.239679
 20
71.651385
 30
0.0
 10
98.151597
 20
71.714089
 30
0.0
  0
SPLINE
  5
255
100
AcDbEntity
  8
0
 62
7
100
AcDbSpline
 70
8
 71
3
 72
8
 73
4
 74
0
 40
0
 40
0
 40
0
 40
0
 40
1
 40
1
 40
1
 40
1
 10
98.151597
 20
71.714089
 30
0.0
 10
98.063518
 20
71.776793
 30
0.0
 10
97.760530
 20
72.733448
 30
0.0
 10
97.472500
 20
73.830756
 30
0.0
  0
SPLINE
  5
256
100
AcDbEntity
  8
0
 62
7
100
AcDbSpline
 70
8
 71
3
 72
8
 73
4
 74
0
 40
0
 40
0
 40
0
 40
0
 40
1
 40
1
 40
1
 40
1
 10
97.472500
 20
73.830756
 30
0.0
 10
97.184467
 20
74.928061
 30
0.0
 10
96.870864
 20
75.823950
 30
0.0
 10
96.784583
 20
75.823950
 30
0.0
  0
SPLINE
  5
257
100
AcDbEntity
  8
0
 62
7
100
AcDbSpline
 70
8
 71
3
 72
8
 73
4
 74
0
 40
0
 40
0
 40
0
 40
0
 40
1
 40
1
 40
1
 40
1
 10
96.784583
 20
75.823950
 30
0.0
 10
96.698300
 20
75.823950
 30
0.0
 10
96.444432
 20
76.490474
 30
0.0
 10
96.211319
 20
77.305617
 30
0.0
  0
SPLINE
  5
258
100
AcDbEntity
  8
0
 62
7
100
AcDbSpline
 70
8
 71
3
 72
8
 73
4
 74
0
 40
0
 40
0
 40
0
 40
0
 40
1
 40
1
 40
1
 40
1
 10
96.211319
 20
77.305617
 30
0.0
 10
95.978207
 20
78.120759
 30
0.0
 10
95.712732
 20
78.787284
 30
0.0
 10
95.629236
 20
78.787284
 30
0.0
  0
SPLINE
  5
259
100
AcDbEntity
  8
0
 62
7
100
AcDbSpline
 70
8
 71
3
 72
8
 73
4
 74
0
 40
0
 40
0
 40
0
 40
0
 40
1
 40
1
 40
1
 40
1
 10
95.629236
 20
78.787284
 30
0.0
 10
95.545741
 20
78.787284
 30
0.0
 10
95.292254
 20
79.276473
 30
0.0
 10
95.064792
 20
79.872075
 30
0.0
  0
SPLINE
  5
25a
100
AcDbEntity
  8
0
 62
7
100
AcDbSpline
 70
8
 71
3
 72
8
 73
4
 74
0
 40
0
 40
0
 40
0
 40
0
 40
1
 40
1
 40
1
 40
1
 10
95.064792
 20
79.872075
 30
0.0
 10
94.837329
 20
80.467677
 30
0.0
 10
94.516211
 20
81.090934
 30
0.0
 10
94.350417
 20
81.256728
 30
0.0
  0
SPLINE
  5
25b
100
AcDbEntity
  8
0
 62
7
100
AcDbSpline
 70
8
 71
3
 72
8
 73
4
 74
0
 40
0
 40
0
 40
0
 40
0
 40
1
 40
1
 40
1
 40
1
 10
94.350417
 20
81.256728
 30
0.0
 10
94.184622
 20
81.422522
 30
0.0
 10
94.050556
 20
81.745469
 30
0.0
 10
94.050556
 20
81.979922
 30
0.0
  0
SPLINE
  5
25c
100
AcDbEntity
  8
0
 62
7
100
AcDbSpline
 70
8
 71
3
 72
8
 73
4
 74
0
 40
0
 40
0
 40
0
 40
0
 40
1
 40
1
 40
1
 40
1
 10
94.050556
 20
81.979922
 30
0.0
 10
94.050556
 20
82.214376
 30
0.0
 10
93.946655
 20
82.466860
 30
0.0
 10
93.821250
 20
82.544367
 30
0.0
  0
SPLINE
  5
25d
100
AcDbEntity
  8
0
 62
7
100
AcDbSpline
 70
8
 71
3
 72
8
 73
4
 74
0
 40
0
 40
0
 40
0
 40
0
 40
1
 40
1
 40
1
 40
1
 10
93.821250
 20
82.544367
 30
0.0
 10
93.695842
 20
82.621874
 30
0.0
 10
93.591944
 20
82.878817
 30
0.0
 10
93.591944
 20
83.108811
 30
0.0
  0
SPLINE
  5
25e
100
AcDbEntity
  8
0
 62
7
100
AcDbSpline
 70
8
 71
3
 72
8
 73
4
 74
0
 40
0
 40
0
 40
0
 40
0
 40
1
 40
1
 40
1
 40
1
 10
93.591944
 20
83.108811
 30
0.0
 10
93.591944
 20
83.338808
 30
0.0
 10
93.464544
 20
83.575184
 30
0.0
 10
93.300903
 20
83.637978
 30
0.0
  0
SPLINE
  5
25f
100
AcDbEntity
  8
0
 62
7
100
AcDbSpline
 70
8
 71
3
 72
8
 73
4
 74
0
 40
0
 40
0
 40
0
 40
0
 40
1
 40
1
 40
1
 40
1
 10
93.300903
 20
83.637978
 30
0.0
 10
93.137265
 20
83.700772
 30
0.0
 10
92.862310
 20
84.172541
 30
0.0
 10
92.692361
 20
84.687492
 30
0.0
  0
SPLINE
  5
260
100
AcDbEntity
  8
0
 62
7
100
AcDbSpline
 70
8
 71
3
 72
8
 73
4
 74
0
 40
0
 40
0
 40
0
 40
0
 40
1
 40
1
 40
1
 40
1
 10
92.692361
 20
84.687492
 30
0.0
 10
92.522413
 20
85.202443
 30
0.0
 10
92.316726
 20
85.631172
 30
0.0
 10
92.233750
 20
85.631172
 30
0.0
  0
SPLINE
  5
261
100
AcDbEntity
  8
0
 62
7
100
AcDbSpline
 70
8
 71
3
 72
8
 73
4
 74
0
 40
0
 40
0
 40
0
 40
0
 40
1
 40
1
 40
1
 40
1
 10
92.233750
 20
85.631172
 30
0.0
 10
92.150768
 20
85.631172
 30
0.0
 10
91.833816
 20
86.163412
 30
0.0
 10
91.537014
 20
86.821797
 30
0.0
  0
SPLINE
  5
262
100
AcDbEntity
  8
0
 62
7
100
AcDbSpline
 70
8
 71
3
 72
8
 73
4
 74
0
 40
0
 40
0
 40
0
 40
0
 40
1
 40
1
 40
1
 40
1
 10
91.537014
 20
86.821797
 30
0.0
 10
91.240209
 20
87.480182
 30
0.0
 10
90.863640
 20
88.155388
 30
0.0
 10
90.699167
 20
88.321103
 30
0.0
  0
SPLINE
  5
263
100
AcDbEntity
  8
0
 62
7
100
AcDbSpline
 70
8
 71
3
 72
8
 73
4
 74
0
 40
0
 40
0
 40
0
 40
0
 40
1
 40
1
 40
1
 40
1
 10
90.699167
 20
88.321103
 30
0.0
 10
90.534693
 20
88.486818
 30
0.0
 10
90.399306
 20
88.768132
 30
0.0
 10
90.399306
 20
88.947284
 30
0.0
  0
SPLINE
  5
264
100
AcDbEntity
  8
0
 62
7
100
AcDbSpline
 70
8
 71
3
 72
8
 73
4
 74
0
 40
0
 40
0
 40
0
 40
0
 40
1
 40
1
 40
1
 40
1
 10
90.399306
 20
88.947284
 30
0.0
 10
90.399306
 20
89.126435
 30
0.0
 10
90.221892
 20
89.458808
 30
0.0
 10
90.002431
 20
89.679297
 30
0.0
  0
SPLINE
  5
265
100
AcDbEntity
  8
0
 62
7
100
AcDbSpline
 70
8
 71
3
 72
8
 73
4
 74
0
 40
0
 40
0
 40
0
 40
0
 40
1
 40
1
 40
1
 40
1
 10
90.002431
 20
89.679297
 30
0.0
 10
89.782969
 20
89.899784
 30
0.0
 10
89.411909
 20
90.514359
 30
0.0
 10
89.173403
 20
91.046311
 30
0.0
  0
SPLINE
  5
266
100
AcDbEntity
  8
0
 62
7
100
AcDbSpline
 70
8
 71
3
 72
8
 73
4
 74
0
 40
0
 40
0
 40
0
 40
0
 40
1
 40
1
 40
1
 40
1
 10
89.173403
 20
91.046311
 30
0.0
 10
88.934891
 20
91.578261
 30
0.0
 10
88.664827
 20
92.007631
 30
0.0
 10
88.573681
 20
92.007631
 30
0.0
  0
SPLINE
  5
267
100
AcDbEntity
  8
0
 62
7
100
AcDbSpline
 70
8
 71
3
 72
8
 73
4
 74
0
 40
0
 40
0
 40
0
 40
0
 40
1
 40
1
 40
1
 40
1
 10
88.573681
 20
92.007631
 30
0.0
 10
88.482534
 20
92.007631
 30
0.0
 10
88.280957
 20
92.325173
 30
0.0
 10
88.123889
 20
92.704367
 30
0.0
  0
SPLINE
  5
268
100
AcDbEntity
  8
0
 62
7
100
AcDbSpline
 70
8
 71
3
 72
8
 73
4
 74
0
 40
0
 40
0
 40
0
 40
0
 40
1
 40
1
 40
1
 40
1
 10
88.123889
 20
92.704367
 30
0.0
 10
87.966824
 20
93.083558
 30
0.0
 10
87.715344
 20
93.468769
 30
0.0
 10
87.568264
 20
93.559853
 30
0.0
  0
SPLINE
  5
269
100
AcDbEntity
  8
0
 62
7
100
AcDbSpline
 70
8
 71
3
 72
8
 73
4
 74
0
 40
0
 40
0
 40
0
 40
0
 40
1
 40
1
 40
1
 40
1
 10
87.568264
 20
93.559853
 30
0.0
 10
87.421187
 20
93.650935
 30
0.0
 10
87.116564
 20
94.103814
 30
0.0
 10
86.897986
 20
94.574089
 30
0.0
  0
SPLINE
  5
26a
100
AcDbEntity
  8
0
 62
7
100
AcDbSpline
 70
8
 71
3
 72
8
 73
4
 74
0
 40
0
 40
0
 40
0
 40
0
 40
1
 40
1
 40
1
 40
1
 10
86.897986
 20
94.574089
 30
0.0
 10
86.679405
 20
95.044364
 30
0.0
 10
86.429565
 20
95.429575
 30
0.0
 10
86.333542
 20
95.429575
 30
0.0
  0
SPLINE
  5
26b
100
AcDbEntity
  8
0
 62
7
100
AcDbSpline
 70
8
 71
3
 72
8
 73
4
 74
0
 40
0
 40
0
 40
0
 40
0
 40
1
 40
1
 40
1
 40
1
 10
86.333542
 20
95.429575
 30
0.0
 10
86.237518
 20
95.429575
 30
0.0
 10
85.928237
 20
95.940253
 30
0.0
 10
85.654444
 20
96.567284
 30
0.0
  0
SPLINE
  5
26c
100
AcDbEntity
  8
0
 62
7
100
AcDbSpline
 70
8
 71
3
 72
8
 73
4
 74
0
 40
0
 40
0
 40
0
 40
0
 40
1
 40
1
 40
1
 40
1
 10
85.654444
 20
96.567284
 30
0.0
 10
85.380655
 20
97.194316
 30
0.0
 10
85.069347
 20
97.713811
 30
0.0
 10
84.957708
 20
97.713811
 30
0.0
  0
SPLINE
  5
26d
100
AcDbEntity
  8
0
 62
7
100
AcDbSpline
 70
8
 71
3
 72
8
 73
4
 74
0
 40
0
 40
0
 40
0
 40
0
 40
1
 40
1
 40
1
 40
1
 10
84.957708
 20
97.713811
 30
0.0
 10
84.846067
 20
97.713811
 30
0.0
 10
84.583911
 20
98.068638
 30
0.0
 10
84.375625
 20
98.507561
 30
0.0
  0
SPLINE
  5
26e
100
AcDbEntity
  8
0
 62
7
100
AcDbSpline
 70
8
 71
3
 72
8
 73
4
 74
0
 40
0
 40
0
 40
0
 40
0
 40
1
 40
1
 40
1
 40
1
 10
84.375625
 20
98.507561
 30
0.0
 10
84.167342
 20
98.946485
 30
0.0
 10
83.925811
 20
99.308720
 30
0.0
 10
83.837639
 20
99.310131
 30
0.0
  0
SPLINE
  5
26f
100
AcDbEntity
  8
0
 62
7
100
AcDbSpline
 70
8
 71
3
 72
8
 73
4
 74
0
 40
0
 40
0
 40
0
 40
0
 40
1
 40
1
 40
1
 40
1
 10
83.837639
 20
99.310131
 30
0.0
 10
83.749467
 20
99.311567
 30
0.0
 10
83.477552
 20
99.718345
 30
0.0
 10
83.237917
 20
100.218534
 30
0.0
  0
SPLINE
  5
270
100
AcDbEntity
  8
0
 62
7
100
AcDbSpline
 70
8
 71
3
 72
8
 73
4
 74
0
 40
0
 40
0
 40
0
 40
0
 40
1
 40
1
 40
1
 40
1
 10
83.237917
 20
100.218534
 30
0.0
 10
82.998276
 20
100.718722
 30
0.0
 10
82.732496
 20
101.135756
 30
0.0
 10
82.647014
 20
101.135756
 30
0.0
  0
SPLINE
  5
271
100
AcDbEntity
  8
0
 62
7
100
AcDbSpline
 70
8
 71
3
 72
8
 73
4
 74
0
 40
0
 40
0
 40
0
 40
0
 40
1
 40
1
 40
1
 40
1
 10
82.647014
 20
101.135756
 30
0.0
 10
82.561529
 20
101.135756
 30
0.0
 10
82.301306
 20
101.490585
 30
0.0
 10
82.064931
 20
101.929506
 30
0.0
  0
SPLINE
  5
272
100
AcDbEntity
  8
0
 62
7
100
AcDbSpline
 70
8
 71
3
 72
8
 73
4
 74
0
 40
0
 40
0
 40
0
 40
0
 40
1
 40
1
 40
1
 40
1
 10
82.064931
 20
101.929506
 30
0.0
 10
81.828555
 20
102.368429
 30
0.0
 10
81.560413
 20
102.732075
 30
0.0
 10
81.465208
 20
102.732075
 30
0.0
  0
SPLINE
  5
273
100
AcDbEntity
  8
0
 62
7
100
AcDbSpline
 70
8
 71
3
 72
8
 73
4
 74
0
 40
0
 40
0
 40
0
 40
0
 40
1
 40
1
 40
1
 40
1
 10
81.465208
 20
102.732075
 30
0.0
 10
81.370003
 20
102.732075
 30
0.0
 10
81.137074
 20
103.086902
 30
0.0
 10
80.953681
 20
103.525825
 30
0.0
  0
SPLINE
  5
274
100
AcDbEntity
  8
0
 62
7
100
AcDbSpline
 70
8
 71
3
 72
8
 73
4
 74
0
 40
0
 40
0
 40
0
 40
0
 40
1
 40
1
 40
1
 40
1
 10
80.953681
 20
103.525825
 30
0.0
 10
80.770287
 20
103.964748
 30
0.0
 10
80.534092
 20
104.319575
 30
0.0
 10
80.424514
 20
104.319575
 30
0.0
  0
SPLINE
  5
275
100
AcDbEntity
  8
0
 62
7
100
AcDbSpline
 70
8
 71
3
 72
8
 73
4
 74
0
 40
0
 40
0
 40
0
 40
0
 40
1
 40
1
 40
1
 40
1
 10
80.424514
 20
104.319575
 30
0.0
 10
80.314938
 20
104.319575
 30
0.0
 10
79.991980
 20
104.787119
 30
0.0
 10
79.710139
 20
105.351450
 30
0.0
  0
SPLINE
  5
276
100
AcDbEntity
  8
0
 62
7
100
AcDbSpline
 70
8
 71
3
 72
8
 73
4
 74
0
 40
0
 40
0
 40
0
 40
0
 40
1
 40
1
 40
1
 40
1
 10
79.710139
 20
105.351450
 30
0.0
 10
79.428300
 20
105.915779
 30
0.0
 10
79.125118
 20
106.373095
 30
0.0
 10
79.039861
 20
106.374506
 30
0.0
  0
SPLINE
  5
277
100
AcDbEntity
  8
0
 62
7
100
AcDbSpline
 70
8
 71
3
 72
8
 73
4
 74
0
 40
0
 40
0
 40
0
 40
0
 40
1
 40
1
 40
1
 40
1
 10
79.039861
 20
106.374506
 30
0.0
 10
78.954602
 20
106.375945
 30
0.0
 10
78.688593
 20
106.791540
 30
0.0
 10
78.448958
 20
107.291728
 30
0.0
  0
SPLINE
  5
278
100
AcDbEntity
  8
0
 62
7
100
AcDbSpline
 70
8
 71
3
 72
8
 73
4
 74
0
 40
0
 40
0
 40
0
 40
0
 40
1
 40
1
 40
1
 40
1
 10
78.448958
 20
107.291728
 30
0.0
 10
78.209318
 20
107.791916
 30
0.0
 10
77.940179
 20
108.200131
 30
0.0
 10
77.849236
 20
108.200131
 30
0.0
  0
SPLINE
  5
279
100
AcDbEntity
  8
0
 62
7
100
AcDbSpline
 70
8
 71
3
 72
8
 73
4
 74
0
 40
0
 40
0
 40
0
 40
0
 40
1
 40
1
 40
1
 40
1
 10
77.849236
 20
108.200131
 30
0.0
 10
77.758293
 20
108.200131
 30
0.0
 10
77.519536
 20
108.554957
 30
0.0
 10
77.311250
 20
108.993881
 30
0.0
  0
SPLINE
  5
27a
100
AcDbEntity
  8
0
 62
7
100
AcDbSpline
 70
8
 71
3
 72
8
 73
4
 74
0
 40
0
 40
0
 40
0
 40
0
 40
1
 40
1
 40
1
 40
1
 10
77.311250
 20
108.993881
 30
0.0
 10
77.102967
 20
109.432804
 30
0.0
 10
76.847429
 20
109.796450
 30
0.0
 10
76.746806
 20
109.796450
 30
0.0
  0
SPLINE
  5
27b
100
AcDbEntity
  8
0
 62
7
100
AcDbSpline
 70
8
 71
3
 72
8
 73
4
 74
0
 40
0
 40
0
 40
0
 40
0
 40
1
 40
1
 40
1
 40
1
 10
76.746806
 20
109.796450
 30
0.0
 10
76.646182
 20
109.796450
 30
0.0
 10
76.370982
 20
110.255174
 30
0.0
 10
76.138264
 20
110.819506
 30
0.0
  0
SPLINE
  5
27c
100
AcDbEntity
  8
0
 62
7
100
AcDbSpline
 70
8
 71
3
 72
8
 73
4
 74
0
 40
0
 40
0
 40
0
 40
0
 40
1
 40
1
 40
1
 40
1
 10
76.138264
 20
110.819506
 30
0.0
 10
75.905543
 20
111.383834
 30
0.0
 10
75.645659
 20
111.851381
 30
0.0
 10
75.556181
 20
111.851381
 30
0.0
  0
SPLINE
  5
27d
100
AcDbEntity
  8
0
 62
7
100
AcDbSpline
 70
8
 71
3
 72
8
 73
4
 74
0
 40
0
 40
0
 40
0
 40
0
 40
1
 40
1
 40
1
 40
1
 10
75.556181
 20
111.851381
 30
0.0
 10
75.466699
 20
111.851381
 30
0.0
 10
75.160468
 20
112.362056
 30
0.0
 10
74.877083
 20
112.989089
 30
0.0
  0
SPLINE
  5
27e
100
AcDbEntity
  8
0
 62
7
100
AcDbSpline
 70
8
 71
3
 72
8
 73
4
 74
0
 40
0
 40
0
 40
0
 40
0
 40
1
 40
1
 40
1
 40
1
 10
74.877083
 20
112.989089
 30
0.0
 10
74.593701
 20
113.616122
 30
0.0
 10
74.292821
 20
114.126797
 30
0.0
 10
74.206806
 20
114.126797
 30
0.0
  0
SPLINE
  5
27f
100
AcDbEntity
  8
0
 62
7
100
AcDbSpline
 70
8
 71
3
 72
8
 73
4
 74
0
 40
0
 40
0
 40
0
 40
0
 40
1
 40
1
 40
1
 40
1
 10
74.206806
 20
114.126797
 30
0.0
 10
74.120790
 20
114.126797
 30
0.0
 10
73.875519
 20
114.594344
 30
0.0
 10
73.660000
 20
115.158672
 30
0.0
  0
SPLINE
  5
280
100
AcDbEntity
  8
0
 62
7
100
AcDbSpline
 70
8
 71
3
 72
8
 73
4
 74
0
 40
0
 40
0
 40
0
 40
0
 40
1
 40
1
 40
1
 40
1
 10
73.660000
 20
115.158672
 30
0.0
 10
73.444478
 20
115.723004
 30
0.0
 10
73.185816
 20
116.181728
 30
0.0
 10
73.095556
 20
116.181728
 30
0.0
  0
SPLINE
  5
281
100
AcDbEntity
  8
0
 62
7
100
AcDbSpline
 70
8
 71
3
 72
8
 73
4
 74
0
 40
0
 40
0
 40
0
 40
0
 40
1
 40
1
 40
1
 40
1
 10
73.095556
 20
116.181728
 30
0.0
 10
73.005292
 20
116.181728
 30
0.0
 10
72.747770
 20
116.692403
 30
0.0
 10
72.522292
 20
117.319436
 30
0.0
  0
SPLINE
  5
282
100
AcDbEntity
  8
0
 62
7
100
AcDbSpline
 70
8
 71
3
 72
8
 73
4
 74
0
 40
0
 40
0
 40
0
 40
0
 40
1
 40
1
 40
1
 40
1
 10
72.522292
 20
117.319436
 30
0.0
 10
72.296816
 20
117.946469
 30
0.0
 10
72.045886
 20
118.457145
 30
0.0
 10
71.957847
 20
118.457145
 30
0.0
  0
SPLINE
  5
283
100
AcDbEntity
  8
0
 62
7
100
AcDbSpline
 70
8
 71
3
 72
8
 73
4
 74
0
 40
0
 40
0
 40
0
 40
0
 40
1
 40
1
 40
1
 40
1
 10
71.957847
 20
118.457145
 30
0.0
 10
71.869811
 20
118.457145
 30
0.0
 10
71.610062
 20
118.976640
 30
0.0
 10
71.384583
 20
119.603672
 30
0.0
  0
SPLINE
  5
284
100
AcDbEntity
  8
0
 62
7
100
AcDbSpline
 70
8
 71
3
 72
8
 73
4
 74
0
 40
0
 40
0
 40
0
 40
0
 40
1
 40
1
 40
1
 40
1
 10
71.384583
 20
119.603672
 30
0.0
 10
71.159108
 20
120.230705
 30
0.0
 10
70.899359
 20
120.741381
 30
0.0
 10
70.811319
 20
120.741381
 30
0.0
  0
SPLINE
  5
285
100
AcDbEntity
  8
0
 62
7
100
AcDbSpline
 70
8
 71
3
 72
8
 73
4
 74
0
 40
0
 40
0
 40
0
 40
0
 40
1
 40
1
 40
1
 40
1
 10
70.811319
 20
120.741381
 30
0.0
 10
70.723280
 20
120.741381
 30
0.0
 10
70.472354
 20
121.252056
 30
0.0
 10
70.246875
 20
121.879089
 30
0.0
  0
SPLINE
  5
286
100
AcDbEntity
  8
0
 62
7
100
AcDbSpline
 70
8
 71
3
 72
8
 73
4
 74
0
 40
0
 40
0
 40
0
 40
0
 40
1
 40
1
 40
1
 40
1
 10
70.246875
 20
121.879089
 30
0.0
 10
70.021399
 20
122.506122
 30
0.0
 10
69.768229
 20
123.016797
 30
0.0
 10
69.682431
 20
123.016797
 30
0.0
  0
SPLINE
  5
287
100
AcDbEntity
  8
0
 62
7
100
AcDbSpline
 70
8
 71
3
 72
8
 73
4
 74
0
 40
0
 40
0
 40
0
 40
0
 40
1
 40
1
 40
1
 40
1
 10
69.682431
 20
123.016797
 30
0.0
 10
69.596635
 20
123.016797
 30
0.0
 10
69.272898
 20
123.692141
 30
0.0
 10
68.968056
 20
124.507284
 30
0.0
  0
SPLINE
  5
288
100
AcDbEntity
  8
0
 62
7
100
AcDbSpline
 70
8
 71
3
 72
8
 73
4
 74
0
 40
0
 40
0
 40
0
 40
0
 40
1
 40
1
 40
1
 40
1
 10
68.968056
 20
124.507284
 30
0.0
 10
68.663213
 20
125.322426
 30
0.0
 10
68.340399
 20
125.988950
 30
0.0
 10
68.253681
 20
125.988950
 30
0.0
  0
SPLINE
  5
289
100
AcDbEntity
  8
0
 62
7
100
AcDbSpline
 70
8
 71
3
 72
8
 73
4
 74
0
 40
0
 40
0
 40
0
 40
0
 40
1
 40
1
 40
1
 40
1
 10
68.253681
 20
125.988950
 30
0.0
 10
68.166959
 20
125.988950
 30
0.0
 10
67.923825
 20
126.551574
 30
0.0
 10
67.706875
 20
127.241311
 30
0.0
  0
SPLINE
  5
28a
100
AcDbEntity
  8
0
 62
7
100
AcDbSpline
 70
8
 71
3
 72
8
 73
4
 74
0
 40
0
 40
0
 40
0
 40
0
 40
1
 40
1
 40
1
 40
1
 10
67.706875
 20
127.241311
 30
0.0
 10
67.489925
 20
127.931048
 30
0.0
 10
67.234144
 20
128.493672
 30
0.0
 10
67.142431
 20
128.493672
 30
0.0
  0
SPLINE
  5
28b
100
AcDbEntity
  8
0
 62
7
100
AcDbSpline
 70
8
 71
3
 72
8
 73
4
 74
0
 40
0
 40
0
 40
0
 40
0
 40
1
 40
1
 40
1
 40
1
 10
67.142431
 20
128.493672
 30
0.0
 10
67.050717
 20
128.493672
 30
0.0
 10
66.806747
 20
129.108245
 30
0.0
 10
66.595625
 20
129.860686
 30
0.0
  0
SPLINE
  5
28c
100
AcDbEntity
  8
0
 62
7
100
AcDbSpline
 70
8
 71
3
 72
8
 73
4
 74
0
 40
0
 40
0
 40
0
 40
0
 40
1
 40
1
 40
1
 40
1
 10
66.595625
 20
129.860686
 30
0.0
 10
66.384500
 20
130.613125
 30
0.0
 10
66.131121
 20
131.227700
 30
0.0
 10
66.040000
 20
131.227700
 30
0.0
  0
SPLINE
  5
28d
100
AcDbEntity
  8
0
 62
7
100
AcDbSpline
 70
8
 71
3
 72
8
 73
4
 74
0
 40
0
 40
0
 40
0
 40
0
 40
1
 40
1
 40
1
 40
1
 10
66.040000
 20
131.227700
 30
0.0
 10
65.948873
 20
131.227700
 30
0.0
 10
65.698926
 20
131.842276
 30
0.0
 10
65.475556
 20
132.594714
 30
0.0
  0
SPLINE
  5
28e
100
AcDbEntity
  8
0
 62
7
100
AcDbSpline
 70
8
 71
3
 72
8
 73
4
 74
0
 40
0
 40
0
 40
0
 40
0
 40
1
 40
1
 40
1
 40
1
 10
65.475556
 20
132.594714
 30
0.0
 10
65.252188
 20
133.347152
 30
0.0
 10
64.967316
 20
133.961728
 30
0.0
 10
64.849375
 20
133.961728
 30
0.0
  0
SPLINE
  5
28f
100
AcDbEntity
  8
0
 62
7
100
AcDbSpline
 70
8
 71
3
 72
8
 73
4
 74
0
 40
0
 40
0
 40
0
 40
0
 40
1
 40
1
 40
1
 40
1
 10
64.849375
 20
133.961728
 30
0.0
 10
64.731432
 20
133.961728
 30
0.0
 10
64.637708
 20
134.105517
 30
0.0
 10
64.637708
 20
134.279228
 30
0.0
  0
SPLINE
  5
290
100
AcDbEntity
  8
0
 62
7
100
AcDbSpline
 70
8
 71
3
 72
8
 73
4
 74
0
 40
0
 40
0
 40
0
 40
0
 40
1
 40
1
 40
1
 40
1
 10
64.637708
 20
134.279228
 30
0.0
 10
64.637708
 20
134.711962
 30
0.0
 10
63.896096
 20
137.013391
 30
0.0
 10
63.711667
 20
137.154367
 30
0.0
  0
SPLINE
  5
291
100
AcDbEntity
  8
0
 62
7
100
AcDbSpline
 70
8
 71
3
 72
8
 73
4
 74
0
 40
0
 40
0
 40
0
 40
0
 40
1
 40
1
 40
1
 40
1
 10
63.711667
 20
137.154367
 30
0.0
 10
63.629636
 20
137.217071
 30
0.0
 10
63.325392
 20
138.195290
 30
0.0
 10
63.032569
 20
139.323950
 30
0.0
  0
SPLINE
  5
292
100
AcDbEntity
  8
0
 62
7
100
AcDbSpline
 70
8
 71
3
 72
8
 73
4
 74
0
 40
0
 40
0
 40
0
 40
0
 40
1
 40
1
 40
1
 40
1
 10
63.032569
 20
139.323950
 30
0.0
 10
62.739747
 20
140.452608
 30
0.0
 10
62.420551
 20
141.428425
 30
0.0
 10
62.327014
 20
141.493534
 30
0.0
  0
SPLINE
  5
293
100
AcDbEntity
  8
0
 62
7
100
AcDbSpline
 70
8
 71
3
 72
8
 73
4
 74
0
 40
0
 40
0
 40
0
 40
0
 40
1
 40
1
 40
1
 40
1
 10
62.327014
 20
141.493534
 30
0.0
 10
62.233477
 20
141.558639
 30
0.0
 10
61.983595
 20
142.381012
 30
0.0
 10
61.771389
 20
143.319159
 30
0.0
  0
SPLINE
  5
294
100
AcDbEntity
  8
0
 62
7
100
AcDbSpline
 70
8
 71
3
 72
8
 73
4
 74
0
 40
0
 40
0
 40
0
 40
0
 40
1
 40
1
 40
1
 40
1
 10
61.771389
 20
143.319159
 30
0.0
 10
61.559186
 20
144.257302
 30
0.0
 10
61.318349
 20
145.073260
 30
0.0
 10
61.233403
 20
145.135964
 30
0.0
  0
SPLINE
  5
295
100
AcDbEntity
  8
0
 62
7
100
AcDbSpline
 70
8
 71
3
 72
8
 73
4
 74
0
 40
0
 40
0
 40
0
 40
0
 40
1
 40
1
 40
1
 40
1
 10
61.233403
 20
145.135964
 30
0.0
 10
61.060372
 20
145.263689
 30
0.0
 10
60.307361
 20
148.305740
 30
0.0
 10
60.307361
 20
148.875409
 30
0.0
  0
SPLINE
  5
296
100
AcDbEntity
  8
0
 62
7
100
AcDbSpline
 70
8
 71
3
 72
8
 73
4
 74
0
 40
0
 40
0
 40
0
 40
0
 40
1
 40
1
 40
1
 40
1
 10
60.307361
 20
148.875409
 30
0.0
 10
60.307361
 20
149.076926
 30
0.0
 10
60.220363
 20
149.245825
 30
0.0
 10
60.113333
 20
149.245825
 30
0.0
  0
SPLINE
  5
297
100
AcDbEntity
  8
0
 62
7
100
AcDbSpline
 70
8
 71
3
 72
8
 73
4
 74
0
 40
0
 40
0
 40
0
 40
0
 40
1
 40
1
 40
1
 40
1
 10
60.113333
 20
149.245825
 30
0.0
 10
60.006306
 20
149.245825
 30
0.0
 10
59.795619
 20
149.985865
 30
0.0
 10
59.645903
 20
150.895061
 30
0.0
  0
SPLINE
  5
298
100
AcDbEntity
  8
0
 62
7
100
AcDbSpline
 70
8
 71
3
 72
8
 73
4
 74
0
 40
0
 40
0
 40
0
 40
0
 40
1
 40
1
 40
1
 40
1
 10
59.645903
 20
150.895061
 30
0.0
 10
59.496190
 20
151.804260
 30
0.0
 10
59.310930
 20
152.781062
 30
0.0
 10
59.240208
 20
153.064645
 30
0.0
  0
SPLINE
  5
299
100
AcDbEntity
  8
0
 62
7
100
AcDbSpline
 70
8
 71
3
 72
8
 73
4
 74
0
 40
0
 40
0
 40
0
 40
0
 40
1
 40
1
 40
1
 40
1
 10
59.240208
 20
153.064645
 30
0.0
 10
59.005264
 20
154.006697
 30
0.0
 10
59.768681
 20
153.393383
 30
0.0
 10
60.183889
 20
152.306172
 30
0.0
  0
SPLINE
  5
29a
100
AcDbEntity
  8
0
 62
7
100
AcDbSpline
 70
8
 71
3
 72
8
 73
4
 74
0
 40
0
 40
0
 40
0
 40
0
 40
1
 40
1
 40
1
 40
1
 10
60.183889
 20
152.306172
 30
0.0
 10
60.396332
 20
151.749901
 30
0.0
 10
60.652491
 20
151.291936
 30
0.0
 10
60.757153
 20
151.291936
 30
0.0
  0
SPLINE
  5
29b
100
AcDbEntity
  8
0
 62
7
100
AcDbSpline
 70
8
 71
3
 72
8
 73
4
 74
0
 40
0
 40
0
 40
0
 40
0
 40
1
 40
1
 40
1
 40
1
 10
60.757153
 20
151.291936
 30
0.0
 10
60.861815
 20
151.291936
 30
0.0
 10
61.123717
 20
150.833209
 30
0.0
 10
61.339236
 20
150.268881
 30
0.0
  0
SPLINE
  5
29c
100
AcDbEntity
  8
0
 62
7
100
AcDbSpline
 70
8
 71
3
 72
8
 73
4
 74
0
 40
0
 40
0
 40
0
 40
0
 40
1
 40
1
 40
1
 40
1
 10
61.339236
 20
150.268881
 30
0.0
 10
61.554755
 20
149.704549
 30
0.0
 10
61.800204
 20
149.237570
 30
0.0
 10
61.877222
 20
149.237006
 30
0.0
  0
SPLINE
  5
29d
100
AcDbEntity
  8
0
 62
7
100
AcDbSpline
 70
8
 71
3
 72
8
 73
4
 74
0
 40
0
 40
0
 40
0
 40
0
 40
1
 40
1
 40
1
 40
1
 10
61.877222
 20
149.237006
 30
0.0
 10
61.954238
 20
149.236467
 30
0.0
 10
62.269260
 20
148.621349
 30
0.0
 10
62.582778
 20
147.869992
 30
0.0
  0
SPLINE
  5
29e
100
AcDbEntity
  8
0
 62
7
100
AcDbSpline
 70
8
 71
3
 72
8
 73
4
 74
0
 40
0
 40
0
 40
0
 40
0
 40
1
 40
1
 40
1
 40
1
 10
62.582778
 20
147.869992
 30
0.0
 10
62.896293
 20
147.118632
 30
0.0
 10
63.220137
 20
146.503542
 30
0.0
 10
63.297153
 20
146.502978
 30
0.0
  0
SPLINE
  5
29f
100
AcDbEntity
  8
0
 62
7
100
AcDbSpline
 70
8
 71
3
 72
8
 73
4
 74
0
 40
0
 40
0
 40
0
 40
0
 40
1
 40
1
 40
1
 40
1
 10
63.297153
 20
146.502978
 30
0.0
 10
63.374171
 20
146.502439
 30
0.0
 10
63.610800
 20
146.044251
 30
0.0
 10
63.826319
 20
145.479922
 30
0.0
  0
SPLINE
  5
2a0
100
AcDbEntity
  8
0
 62
7
100
AcDbSpline
 70
8
 71
3
 72
8
 73
4
 74
0
 40
0
 40
0
 40
0
 40
0
 40
1
 40
1
 40
1
 40
1
 10
63.826319
 20
145.479922
 30
0.0
 10
64.041838
 20
144.915591
 30
0.0
 10
64.291684
 20
144.456867
 30
0.0
 10
64.381944
 20
144.456867
 30
0.0
  0
SPLINE
  5
2a1
100
AcDbEntity
  8
0
 62
7
100
AcDbSpline
 70
8
 71
3
 72
8
 73
4
 74
0
 40
0
 40
0
 40
0
 40
0
 40
1
 40
1
 40
1
 40
1
 10
64.381944
 20
144.456867
 30
0.0
 10
64.472205
 20
144.456867
 30
0.0
 10
64.729730
 20
143.937372
 30
0.0
 10
64.955208
 20
143.310339
 30
0.0
  0
SPLINE
  5
2a2
100
AcDbEntity
  8
0
 62
7
100
AcDbSpline
 70
8
 71
3
 72
8
 73
4
 74
0
 40
0
 40
0
 40
0
 40
0
 40
1
 40
1
 40
1
 40
1
 10
64.955208
 20
143.310339
 30
0.0
 10
65.180684
 20
142.683306
 30
0.0
 10
65.444847
 20
142.172631
 30
0.0
 10
65.537292
 20
142.172631
 30
0.0
  0
SPLINE
  5
2a3
100
AcDbEntity
  8
0
 62
7
100
AcDbSpline
 70
8
 71
3
 72
8
 73
4
 74
0
 40
0
 40
0
 40
0
 40
0
 40
1
 40
1
 40
1
 40
1
 10
65.537292
 20
142.172631
 30
0.0
 10
65.629734
 20
142.172631
 30
0.0
 10
65.897184
 20
141.579623
 30
0.0
 10
66.137014
 20
140.858534
 30
0.0
  0
SPLINE
  5
2a4
100
AcDbEntity
  8
0
 62
7
100
AcDbSpline
 70
8
 71
3
 72
8
 73
4
 74
0
 40
0
 40
0
 40
0
 40
0
 40
1
 40
1
 40
1
 40
1
 10
66.137014
 20
140.858534
 30
0.0
 10
66.376844
 20
140.137447
 30
0.0
 10
66.695915
 20
139.426645
 30
0.0
 10
66.842569
 20
139.271034
 30
0.0
  0
SPLINE
  5
2a5
100
AcDbEntity
  8
0
 62
7
100
AcDbSpline
 70
8
 71
3
 72
8
 73
4
 74
0
 40
0
 40
0
 40
0
 40
0
 40
1
 40
1
 40
1
 40
1
 10
66.842569
 20
139.271034
 30
0.0
 10
66.989226
 20
139.115425
 30
0.0
 10
67.226502
 20
138.626311
 30
0.0
 10
67.371736
 20
138.186242
 30
0.0
  0
SPLINE
  5
2a6
100
AcDbEntity
  8
0
 62
7
100
AcDbSpline
 70
8
 71
3
 72
8
 73
4
 74
0
 40
0
 40
0
 40
0
 40
0
 40
1
 40
1
 40
1
 40
1
 10
67.371736
 20
138.186242
 30
0.0
 10
67.516973
 20
137.746173
 30
0.0
 10
67.707214
 20
137.383672
 30
0.0
 10
67.795069
 20
137.383672
 30
0.0
  0
SPLINE
  5
2a7
100
AcDbEntity
  8
0
 62
7
100
AcDbSpline
 70
8
 71
3
 72
8
 73
4
 74
0
 40
0
 40
0
 40
0
 40
0
 40
1
 40
1
 40
1
 40
1
 10
67.795069
 20
137.383672
 30
0.0
 10
67.882925
 20
137.383672
 30
0.0
 10
68.202421
 20
136.613248
 30
0.0
 10
68.500625
 20
135.672700
 30
0.0
  0
SPLINE
  5
2a8
100
AcDbEntity
  8
0
 62
7
100
AcDbSpline
 70
8
 71
3
 72
8
 73
4
 74
0
 40
0
 40
0
 40
0
 40
0
 40
1
 40
1
 40
1
 40
1
 10
68.500625
 20
135.672700
 30
0.0
 10
68.798827
 20
134.732152
 30
0.0
 10
69.111379
 20
133.961728
 30
0.0
 10
69.197361
 20
133.961728
 30
0.0
  0
SPLINE
  5
2a9
100
AcDbEntity
  8
0
 62
7
100
AcDbSpline
 70
8
 71
3
 72
8
 73
4
 74
0
 40
0
 40
0
 40
0
 40
0
 40
1
 40
1
 40
1
 40
1
 10
69.197361
 20
133.961728
 30
0.0
 10
69.283349
 20
133.961728
 30
0.0
 10
69.546160
 20
133.325588
 30
0.0
 10
69.779444
 20
132.541797
 30
0.0
  0
SPLINE
  5
2aa
100
AcDbEntity
  8
0
 62
7
100
AcDbSpline
 70
8
 71
3
 72
8
 73
4
 74
0
 40
0
 40
0
 40
0
 40
0
 40
1
 40
1
 40
1
 40
1
 10
69.779444
 20
132.541797
 30
0.0
 10
70.012729
 20
131.758007
 30
0.0
 10
70.284236
 20
131.053126
 30
0.0
 10
70.387986
 20
130.980756
 30
0.0
  0
SPLINE
  5
2ab
100
AcDbEntity
  8
0
 62
7
100
AcDbSpline
 70
8
 71
3
 72
8
 73
4
 74
0
 40
0
 40
0
 40
0
 40
0
 40
1
 40
1
 40
1
 40
1
 10
70.387986
 20
130.980756
 30
0.0
 10
70.491734
 20
130.908391
 30
0.0
 10
70.742373
 20
130.042889
 30
0.0
 10
70.943611
 20
129.049297
 30
0.0
  0
SPLINE
  5
2ac
100
AcDbEntity
  8
0
 62
7
100
AcDbSpline
 70
8
 71
3
 72
8
 73
4
 74
0
 40
0
 40
0
 40
0
 40
0
 40
1
 40
1
 40
1
 40
1
 10
70.943611
 20
129.049297
 30
0.0
 10
71.144847
 20
128.055711
 30
0.0
 10
71.384152
 20
127.189363
 30
0.0
 10
71.472778
 20
127.126659
 30
0.0
  0
SPLINE
  5
2ad
100
AcDbEntity
  8
0
 62
7
100
AcDbSpline
 70
8
 71
3
 72
8
 73
4
 74
0
 40
0
 40
0
 40
0
 40
0
 40
1
 40
1
 40
1
 40
1
 10
71.472778
 20
127.126659
 30
0.0
 10
71.668866
 20
126.987929
 30
0.0
 10
72.098586
 20
124.233006
 30
0.0
 10
72.301806
 20
121.826172
 30
0.0
  0
SPLINE
  5
2ae
100
AcDbEntity
  8
0
 62
7
100
AcDbSpline
 70
8
 71
3
 72
8
 73
4
 74
0
 40
0
 40
0
 40
0
 40
0
 40
1
 40
1
 40
1
 40
1
 10
72.301806
 20
121.826172
 30
0.0
 10
72.383864
 20
120.854272
 30
0.0
 10
72.537653
 20
120.053464
 30
0.0
 10
72.645764
 20
120.053464
 30
0.0
  0
SPLINE
  5
2af
100
AcDbEntity
  8
0
 62
7
100
AcDbSpline
 70
8
 71
3
 72
8
 73
4
 74
0
 40
0
 40
0
 40
0
 40
0
 40
1
 40
1
 40
1
 40
1
 10
72.645764
 20
120.053464
 30
0.0
 10
72.753872
 20
120.053464
 30
0.0
 10
72.848611
 20
120.254073
 30
0.0
 10
72.848611
 20
120.494436
 30
0.0
  0
SPLINE
  5
2b0
100
AcDbEntity
  8
0
 62
7
100
AcDbSpline
 70
8
 71
3
 72
8
 73
4
 74
0
 40
0
 40
0
 40
0
 40
0
 40
1
 40
1
 40
1
 40
1
 10
72.848611
 20
120.494436
 30
0.0
 10
72.848611
 20
120.734796
 30
0.0
 10
72.974076
 20
120.971350
 30
0.0
 10
73.130833
 20
121.023603
 30
0.0
  0
SPLINE
  5
2b1
100
AcDbEntity
  8
0
 62
7
100
AcDbSpline
 70
8
 71
3
 72
8
 73
4
 74
0
 40
0
 40
0
 40
0
 40
0
 40
1
 40
1
 40
1
 40
1
 10
73.130833
 20
121.023603
 30
0.0
 10
73.349039
 20
121.096340
 30
0.0
 10
73.413056
 20
122.502439
 30
0.0
 10
73.413056
 20
127.012006
 30
0.0
  0
SPLINE
  5
2b2
100
AcDbEntity
  8
0
 62
7
100
AcDbSpline
 70
8
 71
3
 72
8
 73
4
 74
0
 40
0
 40
0
 40
0
 40
0
 40
1
 40
1
 40
1
 40
1
 10
73.413056
 20
127.012006
 30
0.0
 10
73.413056
 20
131.521575
 30
0.0
 10
73.349039
 20
132.927674
 30
0.0
 10
73.130833
 20
133.000409
 30
0.0
  0
SPLINE
  5
2b3
100
AcDbEntity
  8
0
 62
7
100
AcDbSpline
 70
8
 71
3
 72
8
 73
4
 74
0
 40
0
 40
0
 40
0
 40
0
 40
1
 40
1
 40
1
 40
1
 10
73.130833
 20
133.000409
 30
0.0
 10
72.793434
 20
133.112877
 30
0.0
 10
72.747135
 20
133.961728
 30
0.0
 10
73.077917
 20
133.961728
 30
0.0
  0
SPLINE
  5
2b4
100
AcDbEntity
  8
0
 62
7
100
AcDbSpline
 70
8
 71
3
 72
8
 73
4
 74
0
 40
0
 40
0
 40
0
 40
0
 40
1
 40
1
 40
1
 40
1
 10
73.077917
 20
133.961728
 30
0.0
 10
73.203325
 20
133.961728
 30
0.0
 10
73.298403
 20
133.814560
 30
0.0
 10
73.298403
 20
133.635409
 30
0.0
  0
SPLINE
  5
2b5
100
AcDbEntity
  8
0
 62
7
100
AcDbSpline
 70
8
 71
3
 72
8
 73
4
 74
0
 40
0
 40
0
 40
0
 40
0
 40
1
 40
1
 40
1
 40
1
 10
73.298403
 20
133.635409
 30
0.0
 10
73.298403
 20
133.456257
 30
0.0
 10
73.433028
 20
133.174943
 30
0.0
 10
73.598264
 20
133.009228
 30
0.0
  0
SPLINE
  5
2b6
100
AcDbEntity
  8
0
 62
7
100
AcDbSpline
 70
8
 71
3
 72
8
 73
4
 74
0
 40
0
 40
0
 40
0
 40
0
 40
1
 40
1
 40
1
 40
1
 10
73.598264
 20
133.009228
 30
0.0
 10
73.763497
 20
132.843513
 30
0.0
 10
74.148860
 20
131.739965
 30
0.0
 10
74.453750
 20
130.548603
 30
0.0
  0
SPLINE
  5
2b7
100
AcDbEntity
  8
0
 62
7
100
AcDbSpline
 70
8
 71
3
 72
8
 73
4
 74
0
 40
0
 40
0
 40
0
 40
0
 40
1
 40
1
 40
1
 40
1
 10
74.453750
 20
130.548603
 30
0.0
 10
74.758643
 20
129.357239
 30
0.0
 10
75.082902
 20
128.328925
 30
0.0
 10
75.168125
 20
128.264367
 30
0.0
  0
SPLINE
  5
2b8
100
AcDbEntity
  8
0
 62
7
100
AcDbSpline
 70
8
 71
3
 72
8
 73
4
 74
0
 40
0
 40
0
 40
0
 40
0
 40
1
 40
1
 40
1
 40
1
 10
75.168125
 20
128.264367
 30
0.0
 10
75.253353
 20
128.199811
 30
0.0
 10
75.496293
 20
127.169638
 30
0.0
 10
75.706111
 20
125.980131
 30
0.0
  0
SPLINE
  5
2b9
100
AcDbEntity
  8
0
 62
7
100
AcDbSpline
 70
8
 71
3
 72
8
 73
4
 74
0
 40
0
 40
0
 40
0
 40
0
 40
1
 40
1
 40
1
 40
1
 10
75.706111
 20
125.980131
 30
0.0
 10
76.072117
 20
123.905185
 30
0.0
 10
76.050741
 20
121.055985
 30
0.0
 10
75.662014
 20
119.400825
 30
0.0
  0
SPLINE
  5
2ba
100
AcDbEntity
  8
0
 62
7
100
AcDbSpline
 70
8
 71
3
 72
8
 73
4
 74
0
 40
0
 40
0
 40
0
 40
0
 40
1
 40
1
 40
1
 40
1
 10
75.662014
 20
119.400825
 30
0.0
 10
75.569459
 20
119.006736
 30
0.0
 10
75.600083
 20
118.879247
 30
0.0
 10
75.750208
 20
119.030409
 30
0.0
  0
SPLINE
  5
2bb
100
AcDbEntity
  8
0
 62
7
100
AcDbSpline
 70
8
 71
3
 72
8
 73
4
 74
0
 40
0
 40
0
 40
0
 40
0
 40
1
 40
1
 40
1
 40
1
 10
75.750208
 20
119.030409
 30
0.0
 10
76.180369
 20
119.463532
 30
0.0
 10
76.490477
 20
121.405777
 30
0.0
 10
76.491042
 20
123.634159
 30
0.0
  0
SPLINE
  5
2bc
100
AcDbEntity
  8
0
 62
7
100
AcDbSpline
 70
8
 71
3
 72
8
 73
4
 74
0
 40
0
 40
0
 40
0
 40
0
 40
1
 40
1
 40
1
 40
1
 10
76.491042
 20
123.634159
 30
0.0
 10
76.491527
 20
125.971788
 30
0.0
 10
75.908154
 20
129.860686
 30
0.0
 10
75.556181
 20
129.860686
 30
0.0
  0
SPLINE
  5
2bd
100
AcDbEntity
  8
0
 62
7
100
AcDbSpline
 70
8
 71
3
 72
8
 73
4
 74
0
 40
0
 40
0
 40
0
 40
0
 40
1
 40
1
 40
1
 40
1
 10
75.556181
 20
129.860686
 30
0.0
 10
75.443802
 20
129.860686
 30
0.0
 10
75.353333
 20
130.055239
 30
0.0
 10
75.353333
 20
130.292839
 30
0.0
  0
SPLINE
  5
2be
100
AcDbEntity
  8
0
 62
7
100
AcDbSpline
 70
8
 71
3
 72
8
 73
4
 74
0
 40
0
 40
0
 40
0
 40
0
 40
1
 40
1
 40
1
 40
1
 10
75.353333
 20
130.292839
 30
0.0
 10
75.353333
 20
130.852768
 30
0.0
 10
74.442597
 20
133.813070
 30
0.0
 10
74.224444
 20
133.961728
 30
0.0
  0
SPLINE
  5
2bf
100
AcDbEntity
  8
0
 62
7
100
AcDbSpline
 70
8
 71
3
 72
8
 73
4
 74
0
 40
0
 40
0
 40
0
 40
0
 40
1
 40
1
 40
1
 40
1
 10
74.224444
 20
133.961728
 30
0.0
 10
74.132429
 20
134.024432
 30
0.0
 10
73.875762
 20
134.669392
 30
0.0
 10
73.651181
 20
135.390478
 30
0.0
  0
SPLINE
  5
2c0
100
AcDbEntity
  8
0
 62
7
100
AcDbSpline
 70
8
 71
3
 72
8
 73
4
 74
0
 40
0
 40
0
 40
0
 40
0
 40
1
 40
1
 40
1
 40
1
 10
73.651181
 20
135.390478
 30
0.0
 10
73.426597
 20
136.111567
 30
0.0
 10
73.169004
 20
136.704575
 30
0.0
 10
73.086736
 20
136.704575
 30
0.0
  0
SPLINE
  5
2c1
100
AcDbEntity
  8
0
 62
7
100
AcDbSpline
 70
8
 71
3
 72
8
 73
4
 74
0
 40
0
 40
0
 40
0
 40
0
 40
1
 40
1
 40
1
 40
1
 10
73.086736
 20
136.704575
 30
0.0
 10
73.004466
 20
136.704575
 30
0.0
 10
72.747920
 20
137.267202
 30
0.0
 10
72.513472
 20
137.956936
 30
0.0
  0
SPLINE
  5
2c2
100
AcDbEntity
  8
0
 62
7
100
AcDbSpline
 70
8
 71
3
 72
8
 73
4
 74
0
 40
0
 40
0
 40
0
 40
0
 40
1
 40
1
 40
1
 40
1
 10
72.513472
 20
137.956936
 30
0.0
 10
72.279022
 20
138.646673
 30
0.0
 10
72.019389
 20
139.209297
 30
0.0
 10
71.931389
 20
139.209297
 30
0.0
  0
SPLINE
  5
2c3
100
AcDbEntity
  8
0
 62
7
100
AcDbSpline
 70
8
 71
3
 72
8
 73
4
 74
0
 40
0
 40
0
 40
0
 40
0
 40
1
 40
1
 40
1
 40
1
 10
71.931389
 20
139.209297
 30
0.0
 10
71.843389
 20
139.209297
 30
0.0
 10
71.588873
 20
139.686521
 30
0.0
 10
71.366944
 20
140.267631
 30
0.0
  0
SPLINE
  5
2c4
100
AcDbEntity
  8
0
 62
7
100
AcDbSpline
 70
8
 71
3
 72
8
 73
4
 74
0
 40
0
 40
0
 40
0
 40
0
 40
1
 40
1
 40
1
 40
1
 10
71.366944
 20
140.267631
 30
0.0
 10
71.145016
 20
140.848743
 30
0.0
 10
70.771947
 20
141.515265
 30
0.0
 10
70.537917
 20
141.749297
 30
0.0
  0
SPLINE
  5
2c5
100
AcDbEntity
  8
0
 62
7
100
AcDbSpline
 70
8
 71
3
 72
8
 73
4
 74
0
 40
0
 40
0
 40
0
 40
0
 40
1
 40
1
 40
1
 40
1
 10
70.537917
 20
141.749297
 30
0.0
 10
70.303884
 20
141.983327
 30
0.0
 10
70.105764
 20
142.319798
 30
0.0
 10
70.105764
 20
142.498950
 30
0.0
  0
SPLINE
  5
2c6
100
AcDbEntity
  8
0
 62
7
100
AcDbSpline
 70
8
 71
3
 72
8
 73
4
 74
0
 40
0
 40
0
 40
0
 40
0
 40
1
 40
1
 40
1
 40
1
 10
70.105764
 20
142.498950
 30
0.0
 10
70.105764
 20
142.678102
 30
0.0
 10
69.977982
 20
142.959415
 30
0.0
 10
69.814722
 20
143.125131
 30
0.0
  0
SPLINE
  5
2c7
100
AcDbEntity
  8
0
 62
7
100
AcDbSpline
 70
8
 71
3
 72
8
 73
4
 74
0
 40
0
 40
0
 40
0
 40
0
 40
1
 40
1
 40
1
 40
1
 10
69.814722
 20
143.125131
 30
0.0
 10
69.651459
 20
143.290846
 30
0.0
 10
69.281365
 20
143.914103
 30
0.0
 10
68.994514
 20
144.509784
 30
0.0
  0
SPLINE
  5
2c8
100
AcDbEntity
  8
0
 62
7
100
AcDbSpline
 70
8
 71
3
 72
8
 73
4
 74
0
 40
0
 40
0
 40
0
 40
0
 40
1
 40
1
 40
1
 40
1
 10
68.994514
 20
144.509784
 30
0.0
 10
68.707666
 20
145.105464
 30
0.0
 10
68.407842
 20
145.594575
 30
0.0
 10
68.324236
 20
145.594575
 30
0.0
  0
SPLINE
  5
2c9
100
AcDbEntity
  8
0
 62
7
100
AcDbSpline
 70
8
 71
3
 72
8
 73
4
 74
0
 40
0
 40
0
 40
0
 40
0
 40
1
 40
1
 40
1
 40
1
 10
68.324236
 20
145.594575
 30
0.0
 10
68.240628
 20
145.594575
 30
0.0
 10
68.034589
 20
145.894253
 30
0.0
 10
67.874444
 20
146.256034
 30
0.0
  0
SPLINE
  5
2ca
100
AcDbEntity
  8
0
 62
7
100
AcDbSpline
 70
8
 71
3
 72
8
 73
4
 74
0
 40
0
 40
0
 40
0
 40
0
 40
1
 40
1
 40
1
 40
1
 10
67.874444
 20
146.256034
 30
0.0
 10
67.714306
 20
146.617817
 30
0.0
 10
67.380302
 20
147.144582
 30
0.0
 10
67.133611
 20
147.429020
 30
0.0
  0
SPLINE
  5
2cb
100
AcDbEntity
  8
0
 62
7
100
AcDbSpline
 70
8
 71
3
 72
8
 73
4
 74
0
 40
0
 40
0
 40
0
 40
0
 40
1
 40
1
 40
1
 40
1
 10
67.133611
 20
147.429020
 30
0.0
 10
66.886918
 20
147.713460
 30
0.0
 10
66.692639
 20
148.059854
 30
0.0
 10
66.692639
 20
148.205131
 30
0.0
  0
SPLINE
  5
2cc
100
AcDbEntity
  8
0
 62
7
100
AcDbSpline
 70
8
 71
3
 72
8
 73
4
 74
0
 40
0
 40
0
 40
0
 40
0
 40
1
 40
1
 40
1
 40
1
 10
66.692639
 20
148.205131
 30
0.0
 10
66.692639
 20
148.350405
 30
0.0
 10
66.506406
 20
148.667577
 30
0.0
 10
66.286944
 20
148.910686
 30
0.0
  0
SPLINE
  5
2cd
100
AcDbEntity
  8
0
 62
7
100
AcDbSpline
 70
8
 71
3
 72
8
 73
4
 74
0
 40
0
 40
0
 40
0
 40
0
 40
1
 40
1
 40
1
 40
1
 10
66.286944
 20
148.910686
 30
0.0
 10
66.067483
 20
149.153793
 30
0.0
 10
65.688258
 20
149.736869
 30
0.0
 10
65.440278
 20
150.207145
 30
0.0
  0
SPLINE
  5
2ce
100
AcDbEntity
  8
0
 62
7
100
AcDbSpline
 70
8
 71
3
 72
8
 73
4
 74
0
 40
0
 40
0
 40
0
 40
0
 40
1
 40
1
 40
1
 40
1
 10
65.440278
 20
150.207145
 30
0.0
 10
65.192298
 20
150.677417
 30
0.0
 10
64.920408
 20
151.062631
 30
0.0
 10
64.840556
 20
151.062631
 30
0.0
  0
SPLINE
  5
2cf
100
AcDbEntity
  8
0
 62
7
100
AcDbSpline
 70
8
 71
3
 72
8
 73
4
 74
0
 40
0
 40
0
 40
0
 40
0
 40
1
 40
1
 40
1
 40
1
 10
64.840556
 20
151.062631
 30
0.0
 10
64.760704
 20
151.062631
 30
0.0
 10
64.518362
 20
151.551742
 30
0.0
 10
64.293750
 20
152.147422
 30
0.0
  0
SPLINE
  5
2d0
100
AcDbEntity
  8
0
 62
7
100
AcDbSpline
 70
8
 71
3
 72
8
 73
4
 74
0
 40
0
 40
0
 40
0
 40
0
 40
1
 40
1
 40
1
 40
1
 10
64.293750
 20
152.147422
 30
0.0
 10
64.069143
 20
152.743103
 30
0.0
 10
63.752696
 20
153.306749
 30
0.0
 10
63.597014
 20
153.399784
 30
0.0
  0
SPLINE
  5
2d1
100
AcDbEntity
  8
0
 62
7
100
AcDbSpline
 70
8
 71
3
 72
8
 73
4
 74
0
 40
0
 40
0
 40
0
 40
0
 40
1
 40
1
 40
1
 40
1
 10
63.597014
 20
153.399784
 30
0.0
 10
63.441326
 20
153.492815
 30
0.0
 10
63.134946
 20
154.085823
 30
0.0
 10
62.909097
 20
154.713881
 30
0.0
  0
SPLINE
  5
2d2
100
AcDbEntity
  8
0
 62
7
100
AcDbSpline
 70
8
 71
3
 72
8
 73
4
 74
0
 40
0
 40
0
 40
0
 40
0
 40
1
 40
1
 40
1
 40
1
 10
62.909097
 20
154.713881
 30
0.0
 10
62.683252
 20
155.341935
 30
0.0
 10
62.428250
 20
155.851589
 30
0.0
 10
62.344653
 20
155.851589
 30
0.0
  0
SPLINE
  5
2d3
100
AcDbEntity
  8
0
 62
7
100
AcDbSpline
 70
8
 71
3
 72
8
 73
4
 74
0
 40
0
 40
0
 40
0
 40
0
 40
1
 40
1
 40
1
 40
1
 10
62.344653
 20
155.851589
 30
0.0
 10
62.261059
 20
155.851589
 30
0.0
 10
62.007671
 20
156.340782
 30
0.0
 10
61.780208
 20
156.936381
 30
0.0
  0
SPLINE
  5
2d4
100
AcDbEntity
  8
0
 62
7
100
AcDbSpline
 70
8
 71
3
 72
8
 73
4
 74
0
 40
0
 40
0
 40
0
 40
0
 40
1
 40
1
 40
1
 40
1
 10
61.780208
 20
156.936381
 30
0.0
 10
61.552746
 20
157.531985
 30
0.0
 10
61.242197
 20
158.144667
 30
0.0
 10
61.092292
 20
158.294575
 30
0.0
  0
SPLINE
  5
2d5
100
AcDbEntity
  8
0
 62
7
100
AcDbSpline
 70
8
 71
3
 72
8
 73
4
 74
0
 40
0
 40
0
 40
0
 40
0
 40
1
 40
1
 40
1
 40
1
 10
61.092292
 20
158.294575
 30
0.0
 10
60.942384
 20
158.444480
 30
0.0
 10
60.678881
 20
159.028593
 30
0.0
 10
60.510208
 20
159.599853
 30
0.0
  0
SPLINE
  5
2d6
100
AcDbEntity
  8
0
 62
7
100
AcDbSpline
 70
8
 71
3
 72
8
 73
4
 74
0
 40
0
 40
0
 40
0
 40
0
 40
1
 40
1
 40
1
 40
1
 10
60.510208
 20
159.599853
 30
0.0
 10
60.341535
 20
160.171113
 30
0.0
 10
60.123166
 20
160.640547
 30
0.0
 10
60.025139
 20
160.640547
 30
0.0
  0
SPLINE
  5
2d7
100
AcDbEntity
  8
0
 62
7
100
AcDbSpline
 70
8
 71
3
 72
8
 73
4
 74
0
 40
0
 40
0
 40
0
 40
0
 40
1
 40
1
 40
1
 40
1
 10
60.025139
 20
160.640547
 30
0.0
 10
59.711014
 20
160.640547
 30
0.0
 10
59.833719
 20
161.500721
 30
0.0
 10
60.166250
 20
161.628325
 30
0.0
  0
SPLINE
  5
2d8
100
AcDbEntity
  8
0
 62
7
100
AcDbSpline
 70
8
 71
3
 72
8
 73
4
 74
0
 40
0
 40
0
 40
0
 40
0
 40
1
 40
1
 40
1
 40
1
 10
60.166250
 20
161.628325
 30
0.0
 10
60.342537
 20
161.695974
 30
0.0
 10
60.558612
 20
162.094224
 30
0.0
 10
60.642500
 20
162.510270
 30
0.0
  0
SPLINE
  5
2d9
100
AcDbEntity
  8
0
 62
7
100
AcDbSpline
 70
8
 71
3
 72
8
 73
4
 74
0
 40
0
 40
0
 40
0
 40
0
 40
1
 40
1
 40
1
 40
1
 10
60.642500
 20
162.510270
 30
0.0
 10
60.900409
 20
163.789329
 30
0.0
 10
61.006536
 20
164.062492
 30
0.0
 10
61.259861
 20
164.062492
 30
0.0
  0
SPLINE
  5
2da
100
AcDbEntity
  8
0
 62
7
100
AcDbSpline
 70
8
 71
3
 72
8
 73
4
 74
0
 40
0
 40
0
 40
0
 40
0
 40
1
 40
1
 40
1
 40
1
 10
61.259861
 20
164.062492
 30
0.0
 10
61.425260
 20
164.062492
 30
0.0
 10
61.458805
 20
163.495965
 30
0.0
 10
61.356875
 20
162.298603
 30
0.0
  0
SPLINE
  5
2db
100
AcDbEntity
  8
0
 62
7
100
AcDbSpline
 70
8
 71
3
 72
8
 73
4
 74
0
 40
0
 40
0
 40
0
 40
0
 40
1
 40
1
 40
1
 40
1
 10
61.356875
 20
162.298603
 30
0.0
 10
61.199700
 20
160.452335
 30
0.0
 10
61.437622
 20
160.354165
 30
0.0
 10
61.912500
 20
162.069297
 30
0.0
  0
SPLINE
  5
2dc
100
AcDbEntity
  8
0
 62
7
100
AcDbSpline
 70
8
 71
3
 72
8
 73
4
 74
0
 40
0
 40
0
 40
0
 40
0
 40
1
 40
1
 40
1
 40
1
 10
61.912500
 20
162.069297
 30
0.0
 10
62.042706
 20
162.539571
 30
0.0
 10
62.241718
 20
162.924784
 30
0.0
 10
62.362292
 20
162.924784
 30
0.0
  0
SPLINE
  5
2dd
100
AcDbEntity
  8
0
 62
7
100
AcDbSpline
 70
8
 71
3
 72
8
 73
4
 74
0
 40
0
 40
0
 40
0
 40
0
 40
1
 40
1
 40
1
 40
1
 10
62.362292
 20
162.924784
 30
0.0
 10
62.491758
 20
162.924784
 30
0.0
 10
62.582778
 20
164.184938
 30
0.0
 10
62.582778
 20
166.002770
 30
0.0
  0
SPLINE
  5
2de
100
AcDbEntity
  8
0
 62
7
100
AcDbSpline
 70
8
 71
3
 72
8
 73
4
 74
0
 40
0
 40
0
 40
0
 40
0
 40
1
 40
1
 40
1
 40
1
 10
62.582778
 20
166.002770
 30
0.0
 10
62.582778
 20
167.902869
 30
0.0
 10
62.494219
 20
169.080756
 30
0.0
 10
62.353472
 20
169.080756
 30
0.0
  0
SPLINE
  5
2df
100
AcDbEntity
  8
0
 62
7
100
AcDbSpline
 70
8
 71
3
 72
8
 73
4
 74
0
 40
0
 40
0
 40
0
 40
0
 40
1
 40
1
 40
1
 40
1
 10
62.353472
 20
169.080756
 30
0.0
 10
62.228067
 20
169.080756
 30
0.0
 10
62.132986
 20
169.435583
 30
0.0
 10
62.132986
 20
169.874506
 30
0.0
  0
SPLINE
  5
2e0
100
AcDbEntity
  8
0
 62
7
100
AcDbSpline
 70
8
 71
3
 72
8
 73
4
 74
0
 40
0
 40
0
 40
0
 40
0
 40
1
 40
1
 40
1
 40
1
 10
62.132986
 20
169.874506
 30
0.0
 10
62.132986
 20
171.018974
 30
0.0
 10
62.449253
 20
170.860635
 30
0.0
 10
62.785625
 20
169.548186
 30
0.0
  0
SPLINE
  5
2e1
100
AcDbEntity
  8
0
 62
7
100
AcDbSpline
 70
8
 71
3
 72
8
 73
4
 74
0
 40
0
 40
0
 40
0
 40
0
 40
1
 40
1
 40
1
 40
1
 10
62.785625
 20
169.548186
 30
0.0
 10
62.944482
 20
168.928357
 30
0.0
 10
63.169388
 20
168.387297
 30
0.0
 10
63.279514
 20
168.348742
 30
0.0
  0
SPLINE
  5
2e2
100
AcDbEntity
  8
0
 62
7
100
AcDbSpline
 70
8
 71
3
 72
8
 73
4
 74
0
 40
0
 40
0
 40
0
 40
0
 40
1
 40
1
 40
1
 40
1
 10
63.279514
 20
168.348742
 30
0.0
 10
63.562758
 20
168.249579
 30
0.0
 10
64.179097
 20
164.495164
 30
0.0
 10
64.179097
 20
162.880686
 30
0.0
  0
SPLINE
  5
2e3
100
AcDbEntity
  8
0
 62
7
100
AcDbSpline
 70
8
 71
3
 72
8
 73
4
 74
0
 40
0
 40
0
 40
0
 40
0
 40
1
 40
1
 40
1
 40
1
 10
64.179097
 20
162.880686
 30
0.0
 10
64.179097
 20
162.037643
 30
0.0
 10
64.266188
 20
161.584533
 30
0.0
 10
64.408403
 20
161.672422
 30
0.0
  0
SPLINE
  5
2e4
100
AcDbEntity
  8
0
 62
7
100
AcDbSpline
 70
8
 71
3
 72
8
 73
4
 74
0
 40
0
 40
0
 40
0
 40
0
 40
1
 40
1
 40
1
 40
1
 10
64.408403
 20
161.672422
 30
0.0
 10
65.012564
 20
162.045817
 30
0.0
 10
64.397757
 20
170.932999
 30
0.0
 10
63.738125
 20
171.356172
 30
0.0
  0
SPLINE
  5
2e5
100
AcDbEntity
  8
0
 62
7
100
AcDbSpline
 70
8
 71
3
 72
8
 73
4
 74
0
 40
0
 40
0
 40
0
 40
0
 40
1
 40
1
 40
1
 40
1
 10
63.738125
 20
171.356172
 30
0.0
 10
63.639076
 20
171.419713
 30
0.0
 10
63.323385
 20
172.011885
 30
0.0
 10
63.041389
 20
172.670270
 30
0.0
  0
SPLINE
  5
2e6
100
AcDbEntity
  8
0
 62
7
100
AcDbSpline
 70
8
 71
3
 72
8
 73
4
 74
0
 40
0
 40
0
 40
0
 40
0
 40
1
 40
1
 40
1
 40
1
 10
63.041389
 20
172.670270
 30
0.0
 10
62.759392
 20
173.328654
 30
0.0
 10
62.440081
 20
173.869714
 30
0.0
 10
62.327014
 20
173.869714
 30
0.0
  0
SPLINE
  5
2e7
100
AcDbEntity
  8
0
 62
7
100
AcDbSpline
 70
8
 71
3
 72
8
 73
4
 74
0
 40
0
 40
0
 40
0
 40
0
 40
1
 40
1
 40
1
 40
1
 10
62.327014
 20
173.869714
 30
0.0
 10
62.213944
 20
173.869714
 30
0.0
 10
62.015283
 20
174.126248
 30
0.0
 10
61.894861
 20
174.442978
 30
0.0
  0
SPLINE
  5
2e8
100
AcDbEntity
  8
0
 62
7
100
AcDbSpline
 70
8
 71
3
 72
8
 73
4
 74
0
 40
0
 40
0
 40
0
 40
0
 40
1
 40
1
 40
1
 40
1
 10
61.894861
 20
174.442978
 30
0.0
 10
61.774440
 20
174.759708
 30
0.0
 10
61.520406
 20
175.075627
 30
0.0
 10
61.330417
 20
175.148534
 30
0.0
  0
SPLINE
  5
2e9
100
AcDbEntity
  8
0
 62
7
100
AcDbSpline
 70
8
 71
3
 72
8
 73
4
 74
0
 40
0
 40
0
 40
0
 40
0
 40
1
 40
1
 40
1
 40
1
 10
61.330417
 20
175.148534
 30
0.0
 10
61.140422
 20
175.221440
 30
0.0
 10
60.986458
 20
175.423915
 30
0.0
 10
60.986458
 20
175.589506
 30
0.0
  0
SPLINE
  5
2ea
100
AcDbEntity
  8
0
 62
7
100
AcDbSpline
 70
8
 71
3
 72
8
 73
4
 74
0
 40
0
 40
0
 40
0
 40
0
 40
1
 40
1
 40
1
 40
1
 10
60.986458
 20
175.589506
 30
0.0
 10
60.986458
 20
175.755097
 30
0.0
 10
60.750633
 20
176.073138
 30
0.0
 10
60.457292
 20
176.303881
 30
0.0
  0
SPLINE
  5
2eb
100
AcDbEntity
  8
0
 62
7
100
AcDbSpline
 70
8
 71
3
 72
8
 73
4
 74
0
 40
0
 40
0
 40
0
 40
0
 40
1
 40
1
 40
1
 40
1
 10
60.457292
 20
176.303881
 30
0.0
 10
60.163950
 20
176.534623
 30
0.0
 10
59.882639
 20
176.837005
 30
0.0
 10
59.831111
 20
176.974159
 30
0.0
  0
SPLINE
  5
2ec
100
AcDbEntity
  8
0
 62
7
100
AcDbSpline
 70
8
 71
3
 72
8
 73
4
 74
0
 40
0
 40
0
 40
0
 40
0
 40
1
 40
1
 40
1
 40
1
 10
59.831111
 20
176.974159
 30
0.0
 10
59.586715
 20
177.624692
 30
0.0
 10
57.502775
 20
179.910518
 30
0.0
 10
55.791806
 20
181.401520
 30
0.0
  0
SPLINE
  5
2ed
100
AcDbEntity
  8
0
 62
7
100
AcDbSpline
 70
8
 71
3
 72
8
 73
4
 74
0
 40
0
 40
0
 40
0
 40
0
 40
1
 40
1
 40
1
 40
1
 10
55.791806
 20
181.401520
 30
0.0
 10
55.322188
 20
181.810759
 30
0.0
 10
53.852016
 20
182.530409
 30
0.0
 10
53.489931
 20
182.530409
 30
0.0
  0
SPLINE
  5
2ee
100
AcDbEntity
  8
0
 62
7
100
AcDbSpline
 70
8
 71
3
 72
8
 73
4
 74
0
 40
0
 40
0
 40
0
 40
0
 40
1
 40
1
 40
1
 40
1
 10
53.489931
 20
182.530409
 30
0.0
 10
53.352124
 20
182.530409
 30
0.0
 10
53.234167
 20
182.618080
 30
0.0
 10
53.234167
 20
182.724436
 30
0.0
  0
SPLINE
  5
2ef
100
AcDbEntity
  8
0
 62
7
100
AcDbSpline
 70
8
 71
3
 72
8
 73
4
 74
0
 40
0
 40
0
 40
0
 40
0
 40
1
 40
1
 40
1
 40
1
 10
53.234167
 20
182.724436
 30
0.0
 10
53.234167
 20
182.945870
 30
0.0
 10
51.119800
 20
183.668117
 30
0.0
 10
50.473681
 20
183.668117
 30
0.0
  0
SPLINE
  5
2f0
100
AcDbEntity
  8
0
 62
7
100
AcDbSpline
 70
8
 71
3
 72
8
 73
4
 74
0
 40
0
 40
0
 40
0
 40
0
 40
1
 40
1
 40
1
 40
1
 10
50.473681
 20
183.668117
 30
0.0
 10
50.237266
 20
183.668117
 30
0.0
 10
50.041528
 20
183.767330
 30
0.0
 10
50.041528
 20
183.879784
 30
0.0
  0
SPLINE
  5
2f1
100
AcDbEntity
  8
0
 62
7
100
AcDbSpline
 70
8
 71
3
 72
8
 73
4
 74
0
 40
0
 40
0
 40
0
 40
0
 40
1
 40
1
 40
1
 40
1
 10
50.041528
 20
183.879784
 30
0.0
 10
50.041528
 20
183.992237
 30
0.0
 10
49.171744
 20
184.205329
 30
0.0
 10
48.110069
 20
184.356034
 30
0.0
  0
SPLINE
  5
2f2
100
AcDbEntity
  8
0
 62
7
100
AcDbSpline
 70
8
 71
3
 72
8
 73
4
 74
0
 40
0
 40
0
 40
0
 40
0
 40
1
 40
1
 40
1
 40
1
 10
48.110069
 20
184.356034
 30
0.0
 10
47.367500
 20
184.461442
 30
0.0
 10
46.774238
 20
184.513555
 30
0.0
 10
46.169792
 20
184.514784
 30
0.0
  0
LWPOLYLINE
  5
2f3
100
AcDbEntity
  8
0
 62
7
100
AcDbPolyline
 90
3
 70
0
 10
28.486806
 20
20.270270
 30
0.0
 10
28.654375
 20
22.924922
 30
0.0
 10
29.359931
 20
22.924922
 30
0.0
  0
SPLINE
  5
2f4
100
AcDbEntity
  8
0
 62
7
100
AcDbSpline
 70
8
 71
3
 72
8
 73
4
 74
0
 40
0
 40
0
 40
0
 40
0
 40
1
 40
1
 40
1
 40
1
 10
31.344306
 20
156.998117
 30
0.0
 10
31.435779
 20
156.998117
 30
0.0
 10
31.646783
 20
155.405322
 30
0.0
 10
31.811736
 20
153.461520
 30
0.0
  0
SPLINE
  5
2f5
100
AcDbEntity
  8
0
 62
7
100
AcDbSpline
 70
8
 71
3
 72
8
 73
4
 74
0
 40
0
 40
0
 40
0
 40
0
 40
1
 40
1
 40
1
 40
1
 10
31.811736
 20
153.461520
 30
0.0
 10
31.976687
 20
151.517720
 30
0.0
 10
32.193174
 20
149.924922
 30
0.0
 10
32.296806
 20
149.924922
 30
0.0
  0
SPLINE
  5
2f6
100
AcDbEntity
  8
0
 62
7
100
AcDbSpline
 70
8
 71
3
 72
8
 73
4
 74
0
 40
0
 40
0
 40
0
 40
0
 40
1
 40
1
 40
1
 40
1
 10
32.296806
 20
149.924922
 30
0.0
 10
32.400438
 20
149.924922
 30
0.0
 10
32.490833
 20
149.622044
 30
0.0
 10
32.490833
 20
149.245825
 30
0.0
  0
SPLINE
  5
2f7
100
AcDbEntity
  8
0
 62
7
100
AcDbSpline
 70
8
 71
3
 72
8
 73
4
 74
0
 40
0
 40
0
 40
0
 40
0
 40
1
 40
1
 40
1
 40
1
 10
32.490833
 20
149.245825
 30
0.0
 10
32.490833
 20
148.634258
 30
0.0
 10
32.411405
 20
148.557909
 30
0.0
 10
31.785278
 20
148.557909
 30
0.0
  0
SPLINE
  5
2f8
100
AcDbEntity
  8
0
 62
7
100
AcDbSpline
 70
8
 71
3
 72
8
 73
4
 74
0
 40
0
 40
0
 40
0
 40
0
 40
1
 40
1
 40
1
 40
1
 10
31.785278
 20
148.557909
 30
0.0
 10
31.400101
 20
148.557909
 30
0.0
 10
30.932693
 20
148.402060
 30
0.0
 10
30.744583
 20
148.213950
 30
0.0
  0
SPLINE
  5
2f9
100
AcDbEntity
  8
0
 62
7
100
AcDbSpline
 70
8
 71
3
 72
8
 73
4
 74
0
 40
0
 40
0
 40
0
 40
0
 40
1
 40
1
 40
1
 40
1
 10
30.744583
 20
148.213950
 30
0.0
 10
30.205076
 20
147.674443
 30
0.0
 10
29.669890
 20
147.780446
 30
0.0
 10
29.836181
 20
148.390339
 30
0.0
  0
SPLINE
  5
2fa
100
AcDbEntity
  8
0
 62
7
100
AcDbSpline
 70
8
 71
3
 72
8
 73
4
 74
0
 40
0
 40
0
 40
0
 40
0
 40
1
 40
1
 40
1
 40
1
 10
29.836181
 20
148.390339
 30
0.0
 10
29.913114
 20
148.672502
 30
0.0
 10
30.046859
 20
149.442926
 30
0.0
 10
30.127222
 20
150.101311
 30
0.0
  0
SPLINE
  5
2fb
100
AcDbEntity
  8
0
 62
7
100
AcDbSpline
 70
8
 71
3
 72
8
 73
4
 74
0
 40
0
 40
0
 40
0
 40
0
 40
1
 40
1
 40
1
 40
1
 10
30.127222
 20
150.101311
 30
0.0
 10
30.207591
 20
150.759696
 30
0.0
 10
30.345058
 20
151.291936
 30
0.0
 10
30.435903
 20
151.291936
 30
0.0
  0
SPLINE
  5
2fc
100
AcDbEntity
  8
0
 62
7
100
AcDbSpline
 70
8
 71
3
 72
8
 73
4
 74
0
 40
0
 40
0
 40
0
 40
0
 40
1
 40
1
 40
1
 40
1
 10
30.435903
 20
151.291936
 30
0.0
 10
30.526744
 20
151.291936
 30
0.0
 10
30.669428
 20
152.092745
 30
0.0
 10
30.753403
 20
153.064645
 30
0.0
  0
SPLINE
  5
2fd
100
AcDbEntity
  8
0
 62
7
100
AcDbSpline
 70
8
 71
3
 72
8
 73
4
 74
0
 40
0
 40
0
 40
0
 40
0
 40
1
 40
1
 40
1
 40
1
 10
30.753403
 20
153.064645
 30
0.0
 10
30.995363
 20
155.865031
 30
0.0
 10
31.165255
 20
156.998117
 30
0.0
 10
31.344306
 20
156.998117
 30
0.0
  0
LWPOLYLINE
  5
2fe
100
AcDbEntity
  8
0
 62
7
100
AcDbPolyline
 90
2
 70
0
 10
46.169792
 20
184.514784
 30
0.0
 10
46.169792
 20
184.514784
 30
0.0
  0
LWPOLYLINE
  5
2ff
100
AcDbEntity
  8
0
 62
7
100
AcDbPolyline
 90
2
 70
0
 10
31.344306
 20
156.998117
 30
0.0
 10
31.344306
 20
156.998117
 30
0.0
  0
ENDSEC
  0
SECTION
  2
OBJECTS
  0
DICTIONARY
  5
C
330
0
100
AcDbDictionary
  3
ACAD_GROUP
350
D
  3
ACAD_MLINESTYLE
350
17
  0
DICTIONARY
  5
D
330
C
100
AcDbDictionary
  0
DICTIONARY
  5
1A
330
C
100
AcDbDictionary
  0
DICTIONARY
  5
17
330
C
100
AcDbDictionary
  3
STANDARD
350
18
  0
DICTIONARY
  5
19
330
C
100
AcDbDictionary
  0
ENDSEC
  0
EOF
