999
dxfrw 0.5.10
0
SECTION
2
HEADER
9
$ACADVER
1
AC1021
9
$HANDSEED
5
20000
9
$DWGCODEPAGE
3
ANSI_1252
9
$INSBASE
10
0
20
0
30
0
9
$EXTMIN
10
7.5
20
2.5
30
0
9
$EXTMAX
10
82.5
20
77.5
30
0
9
$LIMMIN
10
0
20
0
9
$LIMMAX
10
420
20
297
9
$ORTHOMODE
70
0
9
$LTSCALE
40
1
9
$TEXTSTYLE
7
STANDARD
9
$CLAYER
8
kanako
9
$DIMASZ
40
2.5
9
$DIMLFAC
40
1
9
$DIMSCALE
40
1
9
$DIMEXO
40
0.625
9
$DIMEXE
40
1.25
9
$DIMTXT
40
2.5
9
$DIMTSZ
40
0
9
$DIMAUNIT
70
0
9
$DIMADEC
70
0
9
$DIMLUNIT
70
2
9
$DIMSTYLE
2
Standard
9
$DIMGAP
40
0.625
9
$DIMTIH
70
0
9
$LUNITS
70
2
9
$LUPREC
70
4
9
$AUNITS
70
0
9
$AUPREC
70
2
9
$SPLINESEGS
70
8
9
$GRIDMODE
70
0
9
$SNAPSTYLE
70
0
9
$PINSBASE
10
0
20
0
30
0
9
$PLIMMIN
10
0
20
0
9
$PLIMMAX
10
210
20
297
9
$INSUNITS
70
4
9
$PSVPSCALE
40
1
0
ENDSEC
0
SECTION
2
CLASSES
0
ENDSEC
0
SECTION
2
TABLES
0
TABLE
2
VPORT
5
8
330
0
100
AcDbSymbolTable
70
1
0
VPORT
5
31
330
2
100
AcDbSymbolTableRecord
100
AcDbViewportTableRecord
2
*ACTIVE
70
0
10
0
20
0
11
1
21
1
12
62.6712328767
22
39.2465753425
13
0
23
0
14
10
24
10
15
10
25
10
16
0
26
0
36
1
17
0
27
0
37
0
40
77.0547945205
41
2.08533333333
42
50
43
0
44
0
50
0
51
0
71
0
72
100
73
1
74
3
75
0
76
0
77
0
78
0
281
0
65
1
110
0
120
0
130
0
111
1
121
0
131
0
112
0
122
1
132
0
79
0
146
0
348
10020
60
7
61
5
292
1
282
1
141
0
142
0
63
250
421
3358443
0
ENDTAB
0
TABLE
2
LTYPE
5
5
330
0
100
AcDbSymbolTable
70
4
0
LTYPE
5
14
330
5
100
AcDbSymbolTableRecord
100
AcDbLinetypeTableRecord
2
ByBlock
70
0
3

72
65
73
0
40
0
0
LTYPE
5
15
330
5
100
AcDbSymbolTableRecord
100
AcDbLinetypeTableRecord
2
ByLayer
70
0
3

72
65
73
0
40
0
0
LTYPE
5
16
330
5
100
AcDbSymbolTableRecord
100
AcDbLinetypeTableRecord
2
Continuous
70
0
3
Solid line
72
65
73
0
40
0
0
LTYPE
5
32
330
5
100
AcDbSymbolTableRecord
100
AcDbLinetypeTableRecord
2
DOT
70
0
3
Dot . . . . . . . . . . . . . . . . . . . . . .
72
65
73
2
40
6.35
49
0
74
0
49
-6.35
74
0
0
LTYPE
5
33
330
5
100
AcDbSymbolTableRecord
100
AcDbLinetypeTableRecord
2
DOT2
70
0
3
Dot (.5x) .....................................
72
65
73
2
40
3.175
49
0
74
0
49
-3.175
74
0
0
LTYPE
5
34
330
5
100
AcDbSymbolTableRecord
100
AcDbLinetypeTableRecord
2
DOTX2
70
0
3
Dot (2x) .  .  .  .  .  .  .  .  .  .  .  .  .
72
65
73
2
40
12.7
49
0
74
0
49
-12.7
74
0
0
LTYPE
5
35
330
5
100
AcDbSymbolTableRecord
100
AcDbLinetypeTableRecord
2
DASHED
70
0
3
Dot . . . . . . . . . . . . . . . . . . . . . .
72
65
73
2
40
19.05
49
12.7
74
0
49
-6.35
74
0
0
LTYPE
5
36
330
5
100
AcDbSymbolTableRecord
100
AcDbLinetypeTableRecord
2
DASHED2
70
0
3
Dashed (.5x) _ _ _ _ _ _ _ _ _ _ _ _ _ _ _ _ _
72
65
73
2
40
9.525
49
6.35
74
0
49
-3.175
74
0
0
LTYPE
5
37
330
5
100
AcDbSymbolTableRecord
100
AcDbLinetypeTableRecord
2
DASHEDX2
70
0
3
Dashed (2x) ____  ____  ____  ____  ____  ___
72
65
73
2
40
38.1
49
25.4
74
0
49
-12.7
74
0
0
LTYPE
5
38
330
5
100
AcDbSymbolTableRecord
100
AcDbLinetypeTableRecord
2
DASHDOT
70
0
3
Dash dot __ . __ . __ . __ . __ . __ . __ . __
72
65
73
4
40
25.4
49
12.7
74
0
49
-6.35
74
0
49
0
74
0
49
-6.35
74
0
0
LTYPE
5
39
330
5
100
AcDbSymbolTableRecord
100
AcDbLinetypeTableRecord
2
DASHDOT2
70
0
3
Dash dot (.5x) _._._._._._._._._._._._._._._.
72
65
73
4
40
12.7
49
6.35
74
0
49
-3.175
74
0
49
0
74
0
49
-3.175
74
0
0
LTYPE
5
3A
330
5
100
AcDbSymbolTableRecord
100
AcDbLinetypeTableRecord
2
DASHDOTX2
70
0
3
Dash dot (2x) ____  .  ____  .  ____  .  ___
72
65
73
4
40
50.8
49
25.4
74
0
49
-12.7
74
0
49
0
74
0
49
-12.7
74
0
0
LTYPE
5
3B
330
5
100
AcDbSymbolTableRecord
100
AcDbLinetypeTableRecord
2
DIVIDE
70
0
3
Divide ____ . . ____ . . ____ . . ____ . . ____
72
65
73
6
40
31.75
49
12.7
74
0
49
-6.35
74
0
49
0
74
0
49
-6.35
74
0
49
0
74
0
49
-6.35
74
0
0
LTYPE
5
3C
330
5
100
AcDbSymbolTableRecord
100
AcDbLinetypeTableRecord
2
DIVIDE2
70
0
3
Divide (.5x) __..__..__..__..__..__..__..__.._
72
65
73
6
40
15.875
49
6.35
74
0
49
-3.175
74
0
49
0
74
0
49
-3.175
74
0
49
0
74
0
49
-3.175
74
0
0
LTYPE
5
3D
330
5
100
AcDbSymbolTableRecord
100
AcDbLinetypeTableRecord
2
DIVIDEX2
70
0
3
Divide (2x) ________  .  .  ________  .  .  _
72
65
73
6
40
63.5
49
25.4
74
0
49
-12.7
74
0
49
0
74
0
49
-12.7
74
0
49
0
74
0
49
-12.7
74
0
0
LTYPE
5
3E
330
5
100
AcDbSymbolTableRecord
100
AcDbLinetypeTableRecord
2
BORDER
70
0
3
Border __ __ . __ __ . __ __ . __ __ . __ __ .
72
65
73
6
40
44.45
49
12.7
74
0
49
-6.35
74
0
49
12.7
74
0
49
-6.35
74
0
49
0
74
0
49
-6.35
74
0
0
LTYPE
5
3F
330
5
100
AcDbSymbolTableRecord
100
AcDbLinetypeTableRecord
2
BORDER2
70
0
3
Border (.5x) __.__.__.__.__.__.__.__.__.__.__.
72
65
73
6
40
22.225
49
6.35
74
0
49
-3.175
74
0
49
6.35
74
0
49
-3.175
74
0
49
0
74
0
49
-3.175
74
0
0
LTYPE
5
40
330
5
100
AcDbSymbolTableRecord
100
AcDbLinetypeTableRecord
2
BORDERX2
70
0
3
Border (2x) ____  ____  .  ____  ____  .  ___
72
65
73
6
40
88.9
49
25.4
74
0
49
-12.7
74
0
49
25.4
74
0
49
-12.7
74
0
49
0
74
0
49
-12.7
74
0
0
LTYPE
5
41
330
5
100
AcDbSymbolTableRecord
100
AcDbLinetypeTableRecord
2
CENTER
70
0
3
Center ____ _ ____ _ ____ _ ____ _ ____ _ ____
72
65
73
4
40
50.8
49
31.75
74
0
49
-6.35
74
0
49
6.35
74
0
49
-6.35
74
0
0
LTYPE
5
42
330
5
100
AcDbSymbolTableRecord
100
AcDbLinetypeTableRecord
2
CENTER2
70
0
3
Center (.5x) ___ _ ___ _ ___ _ ___ _ ___ _ ___
72
65
73
4
40
28.575
49
19.05
74
0
49
-3.175
74
0
49
3.175
74
0
49
-3.175
74
0
0
LTYPE
5
43
330
5
100
AcDbSymbolTableRecord
100
AcDbLinetypeTableRecord
2
CENTERX2
70
0
3
Center (2x) ________  __  ________  __  _____
72
65
73
4
40
101.6
49
63.5
74
0
49
-12.7
74
0
49
12.7
74
0
49
-12.7
74
0
0
ENDTAB
0
TABLE
2
LAYER
5
2
330
0
100
AcDbSymbolTable
70
1
0
LAYER
5
10
330
2
100
AcDbSymbolTableRecord
100
AcDbLayerTableRecord
2
0
70
0
62
7
6
CONTINUOUS
370
-3
390
F
0
LAYER
5
44
330
2
100
AcDbSymbolTableRecord
100
AcDbLayerTableRecord
2
kanako
70
0
62
7
6
CONTINUOUS
370
0
390
F
0
ENDTAB
0
TABLE
2
STYLE
5
3
330
0
100
AcDbSymbolTable
70
3
0
STYLE
5
45
330
2
100
AcDbSymbolTableRecord
100
AcDbTextStyleTableRecord
2
Standard
70
0
40
0
41
1
50
0
71
0
42
1
3
txt
4

0
ENDTAB
0
TABLE
2
VIEW
5
6
330
0
100
AcDbSymbolTable
70
0
0
ENDTAB
0
TABLE
2
UCS
5
7
330
0
100
AcDbSymbolTable
70
0
0
ENDTAB
0
TABLE
2
APPID
5
9
330
0
100
AcDbSymbolTable
70
1
0
APPID
5
12
330
9
100
AcDbSymbolTableRecord
100
AcDbRegAppTableRecord
2
ACAD
70
0
0
ENDTAB
0
TABLE
2
DIMSTYLE
5
A
330
0
100
AcDbSymbolTable
70
1
100
AcDbDimStyleTable
71
1
0
DIMSTYLE
105
46
330
A
100
AcDbSymbolTableRecord
100
AcDbDimStyleTableRecord
2
Standard
70
0
40
1
41
2.5
42
0.625
43
0.38
44
1.25
45
0
46
0
47
0
48
0
140
2.5
141
0.09
142
0
143
25.4
144
1
145
0
146
1
147
0.625
148
0
71
0
72
0
73
0
74
1
75
0
76
0
77
0
78
0
79
0
170
0
171
2
172
0
173
0
174
0
175
0
176
0
177
0
178
0
179
0
271
4
272
4
273
2
274
2
275
0
276
0
277
2
278
46
279
0
280
0
281
0
282
0
283
1
284
0
285
0
286
0
288
0
289
3
340
Standard
341

371
-2
372
-2
0
ENDTAB
0
TABLE
2
BLOCK_RECORD
5
1
330
0
100
AcDbSymbolTable
70
2
0
BLOCK_RECORD
5
1F
330
1
100
AcDbSymbolTableRecord
100
AcDbBlockTableRecord
2
*Model_Space
70
0
280
1
281
0
0
BLOCK_RECORD
5
1E
330
1
100
AcDbSymbolTableRecord
100
AcDbBlockTableRecord
2
*Paper_Space
70
0
280
1
281
0
0
ENDTAB
0
ENDSEC
0
SECTION
2
BLOCKS
0
BLOCK
5
20
330
1F
100
AcDbEntity
8
0
100
AcDbBlockBegin
2
*Model_Space
70
0
10
0
20
0
30
0
3
*Model_Space
1

0
ENDBLK
5
21
330
1F
100
AcDbEntity
8
0
100
AcDbBlockEnd
0
BLOCK
5
1C
330
1B
100
AcDbEntity
8
0
100
AcDbBlockBegin
2
*Paper_Space
70
0
10
0
20
0
30
0
3
*Paper_Space
1

0
ENDBLK
5
1D
330
1F
100
AcDbEntity
8
0
100
AcDbBlockEnd
0
ENDSEC
0
SECTION
2
ENTITIES
0
CIRCLE
5
47
100
AcDbEntity
8
0
6
ByLayer
62
256
370
-1
100
AcDbCircle
10
45
20
40
40
37.5
0
SPLINE
5
48
100
AcDbEntity
8
0
6
ByLayer
62
7
370
-1
100
AcDbSpline
210
0
220
0
230
1
70
8
71
3
72
8
73
4
74
0
42
1e-07
43
1e-07
40
0
40
0
40
0
40
0
40
1
40
1
40
1
40
1
10
42.6890948834
20
73.5197186165
30
0
10
42.6194319334
20
73.5197186165
30
0
10
42.5367895834
20
73.4847109165
30
0
10
42.4637582333
20
73.4116802665
30
0
0
SPLINE
5
49
100
AcDbEntity
8
0
6
ByLayer
62
7
370
-1
100
AcDbSpline
210
0
220
0
230
1
70
8
71
3
72
8
73
4
74
0
42
1e-07
43
1e-07
40
0
40
0
40
0
40
0
40
1
40
1
40
1
40
1
10
42.4637582333
20
73.4116802665
30
0
10
42.4010511833
20
73.3489725165
30
0
10
42.3119089834
20
73.2974686165
30
0
10
42.2631158333
20
73.2974686165
30
0
0
SPLINE
5
4A
100
AcDbEntity
8
0
6
ByLayer
62
7
370
-1
100
AcDbSpline
210
0
220
0
230
1
70
8
71
3
72
8
73
4
74
0
42
1e-07
43
1e-07
40
0
40
0
40
0
40
0
40
1
40
1
40
1
40
1
10
42.2631158333
20
73.2974686165
30
0
10
42.1678069833
20
73.2974686165
30
0
10
41.7179729834
20
73.0620019165
30
0
10
41.6550149834
20
72.9795275665
30
0
0
SPLINE
5
4B
100
AcDbEntity
8
0
6
ByLayer
62
7
370
-1
100
AcDbSpline
210
0
220
0
230
1
70
8
71
3
72
8
73
4
74
0
42
1e-07
43
1e-07
40
0
40
0
40
0
40
0
40
1
40
1
40
1
40
1
10
41.6550149834
20
72.9795275665
30
0
10
41.6340464833
20
72.9520602665
30
0
10
41.5037467333
20
72.9013060665
30
0
10
41.3648555334
20
72.8653155665
30
0
0
SPLINE
5
4C
100
AcDbEntity
8
0
6
ByLayer
62
7
370
-1
100
AcDbSpline
210
0
220
0
230
1
70
8
71
3
72
8
73
4
74
0
42
1e-07
43
1e-07
40
0
40
0
40
0
40
0
40
1
40
1
40
1
40
1
10
41.3648555334
20
72.8653155665
30
0
10
41.2042517333
20
72.8236991665
30
0
10
41.0662026334
20
72.7159765165
30
0
10
40.9851783333
20
72.5720691165
30
0
0
SPLINE
5
4D
100
AcDbEntity
8
0
6
ByLayer
62
7
370
-1
100
AcDbSpline
210
0
220
0
230
1
70
8
71
3
72
8
73
4
74
0
42
1e-07
43
1e-07
40
0
40
0
40
0
40
0
40
1
40
1
40
1
40
1
10
40.9851783333
20
72.5720691165
30
0
10
40.9151093833
20
72.4476171665
30
0
10
40.7990455333
20
72.3027955665
30
0
10
40.7258867833
20
72.2479544165
30
0
0
SPLINE
5
4E
100
AcDbEntity
8
0
6
ByLayer
62
7
370
-1
100
AcDbSpline
210
0
220
0
230
1
70
8
71
3
72
8
73
4
74
0
42
1e-07
43
1e-07
40
0
40
0
40
0
40
0
40
1
40
1
40
1
40
1
10
40.7258867833
20
72.2479544165
30
0
10
40.6527280334
20
72.1931136165
30
0
10
40.5931541834
20
72.1031769165
30
0
10
40.5931541834
20
72.0473123665
30
0
0
SPLINE
5
4F
100
AcDbEntity
8
0
6
ByLayer
62
7
370
-1
100
AcDbSpline
210
0
220
0
230
1
70
8
71
3
72
8
73
4
74
0
42
1e-07
43
1e-07
40
0
40
0
40
0
40
0
40
1
40
1
40
1
40
1
10
40.5931541834
20
72.0473123665
30
0
10
40.5931541834
20
71.9525029665
30
0
10
40.4371661834
20
71.8528436165
30
0
10
40.2875604334
20
71.8528436165
30
0
0
SPLINE
5
50
100
AcDbEntity
8
0
6
ByLayer
62
7
370
-1
100
AcDbSpline
210
0
220
0
230
1
70
8
71
3
72
8
73
4
74
0
42
1e-07
43
1e-07
40
0
40
0
40
0
40
0
40
1
40
1
40
1
40
1
10
40.2875604334
20
71.8528436165
30
0
10
40.2515776334
20
71.8528436165
30
0
10
40.2108978334
20
71.9954511165
30
0
10
40.1980430333
20
72.1707843165
30
0
0
SPLINE
5
51
100
AcDbEntity
8
0
6
ByLayer
62
7
370
-1
100
AcDbSpline
210
0
220
0
230
1
70
8
71
3
72
8
73
4
74
0
42
1e-07
43
1e-07
40
0
40
0
40
0
40
0
40
1
40
1
40
1
40
1
10
40.0220948834
20
72.1893052665
30
0
10
39.9384844333
20
72.0244230665
30
0
10
39.8459496833
20
71.8738838665
30
0
10
39.8183658334
20
71.8528436165
30
0
0
SPLINE
5
52
100
AcDbEntity
8
0
6
ByLayer
62
7
370
-1
100
AcDbSpline
210
0
220
0
230
1
70
8
71
3
72
8
73
4
74
0
42
1e-07
43
1e-07
40
0
40
0
40
0
40
0
40
1
40
1
40
1
40
1
10
39.8183658334
20
71.8528436165
30
0
10
39.7907812834
20
71.8318030165
30
0
10
39.7241377834
20
71.5984916165
30
0
10
39.6701992834
20
71.3373468165
30
0
0
SPLINE
5
53
100
AcDbEntity
8
0
6
ByLayer
62
7
370
-1
100
AcDbSpline
210
0
220
0
230
1
70
8
71
3
72
8
73
4
74
0
42
1e-07
43
1e-07
40
0
40
0
40
0
40
0
40
1
40
1
40
1
40
1
10
39.6701992834
20
71.3373468165
30
0
10
39.6162604333
20
71.0762023665
30
0
10
39.5500736833
20
70.8650655665
30
0
10
39.5220323834
20
70.8650655665
30
0
0
SPLINE
5
54
100
AcDbEntity
8
0
6
ByLayer
62
7
370
-1
100
AcDbSpline
210
0
220
0
230
1
70
8
71
3
72
8
73
4
74
0
42
1e-07
43
1e-07
40
0
40
0
40
0
40
0
40
1
40
1
40
1
40
1
10
39.5220323834
20
70.8650655665
30
0
10
39.4939914333
20
70.8650655665
30
0
10
39.4484291333
20
70.6580234165
30
0
10
39.4201680334
20
70.4082186165
30
0
0
SPLINE
5
55
100
AcDbEntity
8
0
6
ByLayer
62
7
370
-1
100
AcDbSpline
210
0
220
0
230
1
70
8
71
3
72
8
73
4
74
0
42
1e-07
43
1e-07
40
0
40
0
40
0
40
0
40
1
40
1
40
1
40
1
10
39.4201680334
20
70.4082186165
30
0
10
39.3919055333
20
70.1584134665
30
0
10
39.3204022833
20
69.9071677165
30
0
10
39.2596541834
20
69.8464199665
30
0
0
SPLINE
5
56
100
AcDbEntity
8
0
6
ByLayer
62
7
370
-1
100
AcDbSpline
210
0
220
0
230
1
70
8
71
3
72
8
73
4
74
0
42
1e-07
43
1e-07
40
0
40
0
40
0
40
0
40
1
40
1
40
1
40
1
10
39.2596541834
20
69.8464199665
30
0
10
39.1989067833
20
69.7856718665
30
0
10
39.1485291833
20
69.6980595165
30
0
10
39.1485291833
20
69.6550378665
30
0
0
SPLINE
5
57
100
AcDbEntity
8
0
6
ByLayer
62
7
370
-1
100
AcDbSpline
210
0
220
0
230
1
70
8
71
3
72
8
73
4
74
0
42
1e-07
43
1e-07
40
0
40
0
40
0
40
0
40
1
40
1
40
1
40
1
10
39.1485291833
20
69.6550378665
30
0
10
39.1485291833
20
69.6120165665
30
0
10
38.9627624833
20
69.3978302165
30
0
10
38.7379837333
20
69.1765829665
30
0
0
SPLINE
5
58
100
AcDbEntity
8
0
6
ByLayer
62
7
370
-1
100
AcDbSpline
210
0
220
0
230
1
70
8
71
3
72
8
73
4
74
0
42
1e-07
43
1e-07
40
0
40
0
40
0
40
0
40
1
40
1
40
1
40
1
10
38.7379837333
20
69.1765829665
30
0
10
38.2523636334
20
68.6985907665
30
0
10
38.1729118833
20
68.4993725165
30
0
10
38.3521332334
20
68.2258468165
30
0
0
SPLINE
5
59
100
AcDbEntity
8
0
6
ByLayer
62
7
370
-1
100
AcDbSpline
210
0
220
0
230
1
70
8
71
3
72
8
73
4
74
0
42
1e-07
43
1e-07
40
0
40
0
40
0
40
0
40
1
40
1
40
1
40
1
10
38.3521332334
20
68.2258468165
30
0
10
38.4779977833
20
68.0337489665
30
0
10
38.4744655834
20
67.7096661165
30
0
10
38.3428729334
20
67.2411561165
30
0
0
SPLINE
5
5A
100
AcDbEntity
8
0
6
ByLayer
62
7
370
-1
100
AcDbSpline
210
0
220
0
230
1
70
8
71
3
72
8
73
4
74
0
42
1e-07
43
1e-07
40
0
40
0
40
0
40
0
40
1
40
1
40
1
40
1
10
38.3428729334
20
67.2411561165
30
0
10
38.3120788833
20
67.1315235165
30
0
10
38.3496972333
20
67.0244294665
30
0
10
38.4539979334
20
66.9201280665
30
0
0
SPLINE
5
5B
100
AcDbEntity
8
0
6
ByLayer
62
7
370
-1
100
AcDbSpline
210
0
220
0
230
1
70
8
71
3
72
8
73
4
74
0
42
1e-07
43
1e-07
40
0
40
0
40
0
40
0
40
1
40
1
40
1
40
1
10
38.4539979334
20
66.9201280665
30
0
10
38.5885872834
20
66.7855390665
30
0
10
38.6208502834
20
66.6042793165
30
0
10
38.6947685334
20
65.6020623665
30
0
0
SPLINE
5
5C
100
AcDbEntity
8
0
6
ByLayer
62
7
370
-1
100
AcDbSpline
210
0
220
0
230
1
70
8
71
3
72
8
73
4
74
0
42
1e-07
43
1e-07
40
0
40
0
40
0
40
0
40
1
40
1
40
1
40
1
10
38.6947685334
20
65.6020623665
30
0
10
38.7442473334
20
64.9312079165
30
0
10
38.8162731334
20
64.4187806165
30
0
10
38.8645430334
20
64.3889476665
30
0
0
SPLINE
5
5D
100
AcDbEntity
8
0
6
ByLayer
62
7
370
-1
100
AcDbSpline
210
0
220
0
230
1
70
8
71
3
72
8
73
4
74
0
42
1e-07
43
1e-07
40
0
40
0
40
0
40
0
40
1
40
1
40
1
40
1
10
38.8645430334
20
64.3889476665
30
0
10
38.9799184334
20
64.3176439165
30
0
10
38.9854617334
20
62.9700613165
30
0
10
38.8707166833
20
62.8980204665
30
0
0
SPLINE
5
5E
100
AcDbEntity
8
0
6
ByLayer
62
7
370
-1
100
AcDbSpline
210
0
220
0
230
1
70
8
71
3
72
8
73
4
74
0
42
1e-07
43
1e-07
40
0
40
0
40
0
40
0
40
1
40
1
40
1
40
1
10
38.8707166833
20
62.8980204665
30
0
10
38.8230799334
20
62.8681126165
30
0
10
38.7416377333
20
62.6991028665
30
0
10
38.6885948833
20
62.5214302665
30
0
0
SPLINE
5
5F
100
AcDbEntity
8
0
6
ByLayer
62
7
370
-1
100
AcDbSpline
210
0
220
0
230
1
70
8
71
3
72
8
73
4
74
0
42
1e-07
43
1e-07
40
0
40
0
40
0
40
0
40
1
40
1
40
1
40
1
10
38.6885948833
20
62.5214302665
30
0
10
38.6355523834
20
62.3437587165
30
0
10
38.5686215333
20
62.1973155665
30
0
10
38.5404283334
20
62.1973155665
30
0
0
SPLINE
5
60
100
AcDbEntity
8
0
6
ByLayer
62
7
370
-1
100
AcDbSpline
210
0
220
0
230
1
70
8
71
3
72
8
73
4
74
0
42
1e-07
43
1e-07
40
0
40
0
40
0
40
0
40
1
40
1
40
1
40
1
10
38.5404283334
20
62.1973155665
30
0
10
38.5122361833
20
62.1973155665
30
0
10
38.4230190833
20
61.9943866165
30
0
10
38.3428729334
20
61.7435552665
30
0
0
SPLINE
5
61
100
AcDbEntity
8
0
6
ByLayer
62
7
370
-1
100
AcDbSpline
210
0
220
0
230
1
70
8
71
3
72
8
73
4
74
0
42
1e-07
43
1e-07
40
0
40
0
40
0
40
0
40
1
40
1
40
1
40
1
10
38.3428729334
20
61.7435552665
30
0
10
38.2627274833
20
61.4927239165
30
0
10
38.1748032834
20
61.2867079665
30
0
10
38.1484041834
20
61.2867079665
30
0
0
SPLINE
5
62
100
AcDbEntity
8
0
6
ByLayer
62
7
370
-1
100
AcDbSpline
210
0
220
0
230
1
70
8
71
3
72
8
73
4
74
0
42
1e-07
43
1e-07
40
0
40
0
40
0
40
0
40
1
40
1
40
1
40
1
10
38.1484041834
20
61.2867079665
30
0
10
38.1220057833
20
61.2867079665
30
0
10
38.0630412834
20
61.1321959165
30
0
10
38.0156712333
20
60.9440726665
30
0
0
SPLINE
5
63
100
AcDbEntity
8
0
6
ByLayer
62
7
370
-1
100
AcDbSpline
210
0
220
0
230
1
70
8
71
3
72
8
73
4
74
0
42
1e-07
43
1e-07
40
0
40
0
40
0
40
0
40
1
40
1
40
1
40
1
10
38.0156712333
20
60.9440726665
30
0
10
37.9683015334
20
60.7559494165
30
0
10
37.9020304333
20
60.6014373665
30
0
10
37.8675046833
20
60.6014373665
30
0
0
SPLINE
5
64
100
AcDbEntity
8
0
6
ByLayer
62
7
370
-1
100
AcDbSpline
210
0
220
0
230
1
70
8
71
3
72
8
73
4
74
0
42
1e-07
43
1e-07
40
0
40
0
40
0
40
0
40
1
40
1
40
1
40
1
10
37.8675046833
20
60.6014373665
30
0
10
37.8329778833
20
60.6014373665
30
0
10
37.7590624334
20
60.4146476165
30
0
10
37.7039041833
20
60.1847186165
30
0
0
SPLINE
5
65
100
AcDbEntity
8
0
6
ByLayer
62
7
370
-1
100
AcDbSpline
210
0
220
0
230
1
70
8
71
3
72
8
73
4
74
0
42
1e-07
43
1e-07
40
0
40
0
40
0
40
0
40
1
40
1
40
1
40
1
10
37.7039041833
20
60.1847186165
30
0
10
37.6487445333
20
59.9547903165
30
0
10
37.5785432834
20
59.7679998665
30
0
10
37.5495636333
20
59.7679998665
30
0
0
SPLINE
5
66
100
AcDbEntity
8
0
6
ByLayer
62
7
370
-1
100
AcDbSpline
210
0
220
0
230
1
70
8
71
3
72
8
73
4
74
0
42
1e-07
43
1e-07
40
0
40
0
40
0
40
0
40
1
40
1
40
1
40
1
10
37.5495636333
20
59.7679998665
30
0
10
37.5205853834
20
59.7679998665
30
0
10
37.4342435333
20
59.4236110665
30
0
10
37.3550948833
20
59.0055588165
30
0
0
SPLINE
5
67
100
AcDbEntity
8
0
6
ByLayer
62
7
370
-1
100
AcDbSpline
210
0
220
0
230
1
70
8
71
3
72
8
73
4
74
0
42
1e-07
43
1e-07
40
0
40
0
40
0
40
0
40
1
40
1
40
1
40
1
10
37.3550948833
20
59.0055588165
30
0
10
37.2759451833
20
58.5875076165
30
0
10
37.1859657833
20
58.2462044165
30
0
10
37.1544524833
20
58.2462044165
30
0
0
SPLINE
5
68
100
AcDbEntity
8
0
6
ByLayer
62
7
370
-1
100
AcDbSpline
210
0
220
0
230
1
70
8
71
3
72
8
73
4
74
0
42
1e-07
43
1e-07
40
0
40
0
40
0
40
0
40
1
40
1
40
1
40
1
10
37.1544524833
20
58.2462044165
30
0
10
37.1229405834
20
58.2462044165
30
0
10
37.0958033333
20
58.1576355165
30
0
10
37.0958033333
20
58.0486490165
30
0
0
SPLINE
5
69
100
AcDbEntity
8
0
6
ByLayer
62
7
370
-1
100
AcDbSpline
210
0
220
0
230
1
70
8
71
3
72
8
73
4
74
0
42
1e-07
43
1e-07
40
0
40
0
40
0
40
0
40
1
40
1
40
1
40
1
10
37.0958033333
20
58.0486490165
30
0
10
37.0958033333
20
57.8961816665
30
0
10
37.1233070334
20
57.8605681165
30
0
10
37.2192756334
20
57.8973954665
30
0
0
SPLINE
5
6A
100
AcDbEntity
8
0
6
ByLayer
62
7
370
-1
100
AcDbSpline
210
0
220
0
230
1
70
8
71
3
72
8
73
4
74
0
42
1e-07
43
1e-07
40
0
40
0
40
0
40
0
40
1
40
1
40
1
40
1
10
37.2192756334
20
57.8973954665
30
0
10
37.4401644834
20
57.9821577665
30
0
10
37.6016324333
20
57.8708203165
30
0
10
37.7039041833
20
57.5609338165
30
0
0
SPLINE
5
6B
100
AcDbEntity
8
0
6
ByLayer
62
7
370
-1
100
AcDbSpline
210
0
220
0
230
1
70
8
71
3
72
8
73
4
74
0
42
1e-07
43
1e-07
40
0
40
0
40
0
40
0
40
1
40
1
40
1
40
1
10
37.7039041833
20
57.5609338165
30
0
10
37.7588363333
20
57.3944871165
30
0
10
37.8282021333
20
57.2584267165
30
0
10
37.8582443833
20
57.2584267165
30
0
0
SPLINE
5
6C
100
AcDbEntity
8
0
6
ByLayer
62
7
370
-1
100
AcDbSpline
210
0
220
0
230
1
70
8
71
3
72
8
73
4
74
0
42
1e-07
43
1e-07
40
0
40
0
40
0
40
0
40
1
40
1
40
1
40
1
10
37.8582443833
20
57.2584267165
30
0
10
37.8882866333
20
57.2584267165
30
0
10
37.9544618334
20
57.1554182165
30
0
10
38.0064109333
20
57.0300030665
30
0
0
SPLINE
5
6D
100
AcDbEntity
8
0
6
ByLayer
62
7
370
-1
100
AcDbSpline
210
0
220
0
230
1
70
8
71
3
72
8
73
4
74
0
42
1e-07
43
1e-07
40
0
40
0
40
0
40
0
40
1
40
1
40
1
40
1
10
38.0064109333
20
57.0300030665
30
0
10
38.0583593333
20
56.9045868665
30
0
10
38.1332782333
20
56.8015794165
30
0
10
38.1700117833
20
56.8015794165
30
0
0
SPLINE
5
6E
100
AcDbEntity
8
0
6
ByLayer
62
7
370
-1
100
AcDbSpline
210
0
220
0
230
1
70
8
71
3
72
8
73
4
74
0
42
1e-07
43
1e-07
40
0
40
0
40
0
40
0
40
1
40
1
40
1
40
1
10
38.1700117833
20
56.8015794165
30
0
10
38.2067449833
20
56.8015794165
30
0
10
38.2348345834
20
56.7413804665
30
0
10
38.2348345834
20
56.6657601665
30
0
0
SPLINE
5
6F
100
AcDbEntity
8
0
6
ByLayer
62
7
370
-1
100
AcDbSpline
210
0
220
0
230
1
70
8
71
3
72
8
73
4
74
0
42
1e-07
43
1e-07
40
0
40
0
40
0
40
0
40
1
40
1
40
1
40
1
10
38.2348345834
20
56.6657601665
30
0
10
38.2348345834
20
56.5901398665
30
0
10
38.2861445834
20
56.4598369665
30
0
10
38.3459595834
20
56.3786873665
30
0
0
SPLINE
5
70
100
AcDbEntity
8
0
6
ByLayer
62
7
370
-1
100
AcDbSpline
210
0
220
0
230
1
70
8
71
3
72
8
73
4
74
0
42
1e-07
43
1e-07
40
0
40
0
40
0
40
0
40
1
40
1
40
1
40
1
10
38.3459595834
20
56.3786873665
30
0
10
38.4444310333
20
56.2450930665
30
0
10
38.4476611834
20
56.2634530165
30
0
10
38.4076957334
20
56.5731561165
30
0
0
SPLINE
5
71
100
AcDbEntity
8
0
6
ByLayer
62
7
370
-1
100
AcDbSpline
210
0
220
0
230
1
70
8
71
3
72
8
73
4
74
0
42
1e-07
43
1e-07
40
0
40
0
40
0
40
0
40
1
40
1
40
1
40
1
10
38.4076957334
20
56.5731561165
30
0
10
38.3834200834
20
56.7612793665
30
0
10
38.3368137333
20
56.9334587165
30
0
10
38.3027443834
20
56.9559199665
30
0
0
SPLINE
5
72
100
AcDbEntity
8
0
6
ByLayer
62
7
370
-1
100
AcDbSpline
210
0
220
0
230
1
70
8
71
3
72
8
73
4
74
0
42
1e-07
43
1e-07
40
0
40
0
40
0
40
0
40
1
40
1
40
1
40
1
10
38.3027443834
20
56.9559199665
30
0
10
38.2024977334
20
57.0220122165
30
0
10
38.1227967833
20
58.4746280665
30
0
10
38.2194006333
20
58.4746280665
30
0
0
SPLINE
5
73
100
AcDbEntity
8
0
6
ByLayer
62
7
370
-1
100
AcDbSpline
210
0
220
0
230
1
70
8
71
3
72
8
73
4
74
0
42
1e-07
43
1e-07
40
0
40
0
40
0
40
0
40
1
40
1
40
1
40
1
10
38.2194006333
20
58.4746280665
30
0
10
38.3116294834
20
58.4746280665
30
0
10
38.3533046833
20
58.3538791165
30
0
10
38.4262166833
20
57.8850481665
30
0
0
SPLINE
5
74
100
AcDbEntity
8
0
6
ByLayer
62
7
370
-1
100
AcDbSpline
210
0
220
0
230
1
70
8
71
3
72
8
73
4
74
0
42
1e-07
43
1e-07
40
0
40
0
40
0
40
0
40
1
40
1
40
1
40
1
10
38.4262166833
20
57.8850481665
30
0
10
38.4538477833
20
57.7073759165
30
0
10
38.5021638834
20
57.5609338165
30
0
10
38.5311680333
20
57.5609338165
30
0
0
SPLINE
5
75
100
AcDbEntity
8
0
6
ByLayer
62
7
370
-1
100
AcDbSpline
210
0
220
0
230
1
70
8
71
3
72
8
73
4
74
0
42
1e-07
43
1e-07
40
0
40
0
40
0
40
0
40
1
40
1
40
1
40
1
10
38.5311680333
20
57.5609338165
30
0
10
38.5601711334
20
57.5609338165
30
0
10
38.6268755334
20
57.4095084165
30
0
10
38.6824212333
20
57.2213851665
30
0
0
SPLINE
5
76
100
AcDbEntity
8
0
6
ByLayer
62
7
370
-1
100
AcDbSpline
210
0
220
0
230
1
70
8
71
3
72
8
73
4
74
0
42
1e-07
43
1e-07
40
0
40
0
40
0
40
0
40
1
40
1
40
1
40
1
10
38.6824212333
20
57.2213851665
30
0
10
38.7379679834
20
57.0332619165
30
0
10
38.7961117334
20
56.8787498665
30
0
10
38.8089805334
20
56.8787498665
30
0
0
SPLINE
5
77
100
AcDbEntity
8
0
6
ByLayer
62
7
370
-1
100
AcDbSpline
210
0
220
0
230
1
70
8
71
3
72
8
73
4
74
0
42
1e-07
43
1e-07
40
0
40
0
40
0
40
0
40
1
40
1
40
1
40
1
10
38.8089805334
20
56.8787498665
30
0
10
38.9502968833
20
56.8787498665
30
0
10
39.0713587334
20
57.0066381165
30
0
10
39.0713587334
20
57.1534753665
30
0
0
SPLINE
5
78
100
AcDbEntity
8
0
6
ByLayer
62
7
370
-1
100
AcDbSpline
210
0
220
0
230
1
70
8
71
3
72
8
73
4
74
0
42
1e-07
43
1e-07
40
0
40
0
40
0
40
0
40
1
40
1
40
1
40
1
10
39.0713587334
20
57.1534753665
30
0
10
39.0713587334
20
57.2920802665
30
0
10
39.1123052333
20
57.3355968165
30
0
10
39.2442198833
20
57.3355968165
30
0
0
SPLINE
5
79
100
AcDbEntity
8
0
6
ByLayer
62
7
370
-1
100
AcDbSpline
210
0
220
0
230
1
70
8
71
3
72
8
73
4
74
0
42
1e-07
43
1e-07
40
0
40
0
40
0
40
0
40
1
40
1
40
1
40
1
10
39.2442198833
20
57.3355968165
30
0
10
39.4453641834
20
57.3355968165
30
0
10
39.7531772833
20
57.1371958165
30
0
10
39.7597166833
20
57.0053088165
30
0
0
SPLINE
5
7A
100
AcDbEntity
8
0
6
ByLayer
62
7
370
-1
100
AcDbSpline
210
0
220
0
230
1
70
8
71
3
72
8
73
4
74
0
42
1e-07
43
1e-07
40
0
40
0
40
0
40
0
40
1
40
1
40
1
40
1
10
39.7597166833
20
57.0053088165
30
0
10
39.7621880334
20
56.9554229665
30
0
10
39.9177906833
20
56.7805052165
30
0
10
40.1054386333
20
56.6132843165
30
0
0
SPLINE
5
7B
100
AcDbEntity
8
0
6
ByLayer
62
7
370
-1
100
AcDbSpline
210
0
220
0
230
1
70
8
71
3
72
8
73
4
74
0
42
1e-07
43
1e-07
40
0
40
0
40
0
40
0
40
1
40
1
40
1
40
1
10
40.1054386333
20
56.6132843165
30
0
10
40.2930858834
20
56.4460634165
30
0
10
40.5929585334
20
56.1724047165
30
0
10
40.7721886333
20
56.0051838165
30
0
0
SPLINE
5
7C
100
AcDbEntity
8
0
6
ByLayer
62
7
370
-1
100
AcDbSpline
210
0
220
0
230
1
70
8
71
3
72
8
73
4
74
0
42
1e-07
43
1e-07
40
0
40
0
40
0
40
0
40
1
40
1
40
1
40
1
10
40.7721886333
20
56.0051838165
30
0
10
40.9514180334
20
55.8379629165
30
0
10
41.1997780334
20
55.6480200165
30
0
10
41.3216399834
20
55.5853780665
30
0
0
SPLINE
5
7D
100
AcDbEntity
8
0
6
ByLayer
62
7
370
-1
100
AcDbSpline
210
0
220
0
230
1
70
8
71
3
72
8
73
4
74
0
42
1e-07
43
1e-07
40
0
40
0
40
0
40
0
40
1
40
1
40
1
40
1
10
41.3216399834
20
55.5853780665
30
0
10
41.4435012333
20
55.5227371665
30
0
10
41.5600295333
20
55.4529723665
30
0
10
41.5809318833
20
55.4310378665
30
0
0
SPLINE
5
7E
100
AcDbEntity
8
0
6
ByLayer
62
7
370
-1
100
AcDbSpline
210
0
220
0
230
1
70
8
71
3
72
8
73
4
74
0
42
1e-07
43
1e-07
40
0
40
0
40
0
40
0
40
1
40
1
40
1
40
1
10
41.5809318833
20
55.4310378665
30
0
10
41.7238344333
20
55.2810775665
30
0
10
42.0422259333
20
55.1443721165
30
0
10
42.1705117834
20
55.1779199665
30
0
0
SPLINE
5
7F
100
AcDbEntity
8
0
6
ByLayer
62
7
370
-1
100
AcDbSpline
210
0
220
0
230
1
70
8
71
3
72
8
73
4
74
0
42
1e-07
43
1e-07
40
0
40
0
40
0
40
0
40
1
40
1
40
1
40
1
10
42.1705117834
20
55.1779199665
30
0
10
42.2547256333
20
55.1999423165
30
0
10
42.3453976834
20
55.1856392165
30
0
10
42.3711541834
20
55.1439650665
30
0
0
SPLINE
5
80
100
AcDbEntity
8
0
6
ByLayer
62
7
370
-1
100
AcDbSpline
210
0
220
0
230
1
70
8
71
3
72
8
73
4
74
0
42
1e-07
43
1e-07
40
0
40
0
40
0
40
0
40
1
40
1
40
1
40
1
10
42.3711541834
20
55.1439650665
30
0
10
42.4639993834
20
54.9937366665
30
0
10
42.3314008334
20
54.8566588165
30
0
10
41.9976506333
20
54.7581142165
30
0
0
SPLINE
5
81
100
AcDbEntity
8
0
6
ByLayer
62
7
370
-1
100
AcDbSpline
210
0
220
0
230
1
70
8
71
3
72
8
73
4
74
0
42
1e-07
43
1e-07
40
0
40
0
40
0
40
0
40
1
40
1
40
1
40
1
10
41.9976506333
20
54.7581142165
30
0
10
41.8106218333
20
54.7028905165
30
0
10
41.6550149834
20
54.6219285165
30
0
10
41.6550149834
20
54.5790794165
30
0
0
SPLINE
5
82
100
AcDbEntity
8
0
6
ByLayer
62
7
370
-1
100
AcDbSpline
210
0
220
0
230
1
70
8
71
3
72
8
73
4
74
0
42
1e-07
43
1e-07
40
0
40
0
40
0
40
0
40
1
40
1
40
1
40
1
10
41.6550149834
20
54.5790794165
30
0
10
41.6550149834
20
54.5362317165
30
0
10
41.5793029833
20
54.4239667665
30
0
10
41.4852408333
20
54.3290481665
30
0
0
SPLINE
5
83
100
AcDbEntity
8
0
6
ByLayer
62
7
370
-1
100
AcDbSpline
210
0
220
0
230
1
70
8
71
3
72
8
73
4
74
0
42
1e-07
43
1e-07
40
0
40
0
40
0
40
0
40
1
40
1
40
1
40
1
10
41.4852408333
20
54.3290481665
30
0
10
41.1718791834
20
54.0128329665
30
0
10
41.1008844834
20
53.8986052165
30
0
10
41.1796470833
20
53.8475066165
30
0
0
SPLINE
5
84
100
AcDbEntity
8
0
6
ByLayer
62
7
370
-1
100
AcDbSpline
210
0
220
0
230
1
70
8
71
3
72
8
73
4
74
0
42
1e-07
43
1e-07
40
0
40
0
40
0
40
0
40
1
40
1
40
1
40
1
10
41.1796470833
20
53.8475066165
30
0
10
41.2211672334
20
53.8205688665
30
0
10
41.2952289834
20
53.6709008165
30
0
10
41.3463345834
20
53.5141316165
30
0
0
SPLINE
5
85
100
AcDbEntity
8
0
6
ByLayer
62
7
370
-1
100
AcDbSpline
210
0
220
0
230
1
70
8
71
3
72
8
73
4
74
0
42
1e-07
43
1e-07
40
0
40
0
40
0
40
0
40
1
40
1
40
1
40
1
10
41.3463345834
20
53.5141316165
30
0
10
41.3974401833
20
53.3573624165
30
0
10
41.4630574833
20
53.2301454665
30
0
10
41.4914144833
20
53.2301454665
30
0
0
SPLINE
5
86
100
AcDbEntity
8
0
6
ByLayer
62
7
370
-1
100
AcDbSpline
210
0
220
0
230
1
70
8
71
3
72
8
73
4
74
0
42
1e-07
43
1e-07
40
0
40
0
40
0
40
0
40
1
40
1
40
1
40
1
10
41.4914144833
20
53.2301454665
30
0
10
41.5197725334
20
53.2301454665
30
0
10
41.5923257833
20
53.1190680665
30
0
10
41.6519283333
20
52.9832012165
30
0
0
SPLINE
5
87
100
AcDbEntity
8
0
6
ByLayer
62
7
370
-1
100
AcDbSpline
210
0
220
0
230
1
70
8
71
3
72
8
73
4
74
0
42
1e-07
43
1e-07
40
0
40
0
40
0
40
0
40
1
40
1
40
1
40
1
10
41.6519283333
20
52.9832012165
30
0
10
41.7115319334
20
52.8473343665
30
0
10
41.8126497333
20
52.6949300165
30
0
10
41.8772649834
20
52.6467392165
30
0
0
SPLINE
5
88
100
AcDbEntity
8
0
6
ByLayer
62
7
370
-1
100
AcDbSpline
210
0
220
0
230
1
70
8
71
3
72
8
73
4
74
0
42
1e-07
43
1e-07
40
0
40
0
40
0
40
0
40
1
40
1
40
1
40
1
10
41.8772649834
20
52.6467392165
30
0
10
41.9489134833
20
52.5933026165
30
0
10
41.9945636333
20
52.4424669665
30
0
10
41.9945636333
20
52.2578017165
30
0
0
SPLINE
5
89
100
AcDbEntity
8
0
6
ByLayer
62
7
370
-1
100
AcDbSpline
210
0
220
0
230
1
70
8
71
3
72
8
73
4
74
0
42
1e-07
43
1e-07
40
0
40
0
40
0
40
0
40
1
40
1
40
1
40
1
10
41.9945636333
20
52.2578017165
30
0
10
41.9945636333
20
52.0141072165
30
0
10
41.9466958834
20
51.9097494665
30
0
10
41.7476193833
20
51.7237843165
30
0
0
SPLINE
5
8A
100
AcDbEntity
8
0
6
ByLayer
62
7
370
-1
100
AcDbSpline
210
0
220
0
230
1
70
8
71
3
72
8
73
4
74
0
42
1e-07
43
1e-07
40
0
40
0
40
0
40
0
40
1
40
1
40
1
40
1
10
41.7476193833
20
51.7237843165
30
0
10
41.6115715833
20
51.5966958165
30
0
10
41.3956996333
20
51.4706772665
30
0
10
41.2691644834
20
51.4428851665
30
0
0
SPLINE
5
8B
100
AcDbEntity
8
0
6
ByLayer
62
7
370
-1
100
AcDbSpline
210
0
220
0
230
1
70
8
71
3
72
8
73
4
74
0
42
1e-07
43
1e-07
40
0
40
0
40
0
40
0
40
1
40
1
40
1
40
1
10
41.2691644834
20
51.4428851665
30
0
10
41.1426282833
20
51.4150930665
30
0
10
40.9087943334
20
51.2655503165
30
0
10
40.7474943834
20
51.1125968165
30
0
0
SPLINE
5
8C
100
AcDbEntity
8
0
6
ByLayer
62
7
370
-1
100
AcDbSpline
210
0
220
0
230
1
70
8
71
3
72
8
73
4
74
0
42
1e-07
43
1e-07
40
0
40
0
40
0
40
0
40
1
40
1
40
1
40
1
10
40.7474943834
20
51.1125968165
30
0
10
40.5861951334
20
50.9596436665
30
0
10
40.3295110833
20
50.7263137165
30
0
10
40.1795220834
20
50.5940137165
30
0
0
SPLINE
5
8D
100
AcDbEntity
8
0
6
ByLayer
62
7
370
-1
100
AcDbSpline
210
0
220
0
230
1
70
8
71
3
72
8
73
4
74
0
42
1e-07
43
1e-07
40
0
40
0
40
0
40
0
40
1
40
1
40
1
40
1
10
40.1795220834
20
50.5940137165
30
0
10
40.0295348333
20
50.4617147665
30
0
10
39.9078832333
20
50.3183593165
30
0
10
39.9078832333
20
50.2729856665
30
0
0
SPLINE
5
8E
100
AcDbEntity
8
0
6
ByLayer
62
7
370
-1
100
AcDbSpline
210
0
220
0
230
1
70
8
71
3
72
8
73
4
74
0
42
1e-07
43
1e-07
40
0
40
0
40
0
40
0
40
1
40
1
40
1
40
1
10
39.9078832333
20
50.2729856665
30
0
10
39.9078832333
20
50.2276130665
30
0
10
39.8644664334
20
50.1896419165
30
0
10
39.8121921833
20
50.1896419165
30
0
0
SPLINE
5
8F
100
AcDbEntity
8
0
6
ByLayer
62
7
370
-1
100
AcDbSpline
210
0
220
0
230
1
70
8
71
3
72
8
73
4
74
0
42
1e-07
43
1e-07
40
0
40
0
40
0
40
0
40
1
40
1
40
1
40
1
10
39.8121921833
20
50.1896419165
30
0
10
39.6938445833
20
50.1896419165
30
0
10
39.0713587334
20
49.6266214167
30
0
10
39.0713587334
20
49.5198052667
30
0
0
SPLINE
5
90
100
AcDbEntity
8
0
6
ByLayer
62
7
370
-1
100
AcDbSpline
210
0
220
0
230
1
70
8
71
3
72
8
73
4
74
0
42
1e-07
43
1e-07
40
0
40
0
40
0
40
0
40
1
40
1
40
1
40
1
10
39.0713587334
20
49.5198052667
30
0
10
39.0713587334
20
49.4767136167
30
0
10
38.9683505834
20
49.3449309167
30
0
10
38.8429354334
20
49.2265588166
30
0
0
SPLINE
5
91
100
AcDbEntity
8
0
6
ByLayer
62
7
370
-1
100
AcDbSpline
210
0
220
0
230
1
70
8
71
3
72
8
73
4
74
0
42
1e-07
43
1e-07
40
0
40
0
40
0
40
0
40
1
40
1
40
1
40
1
10
38.8429354334
20
49.2265588166
30
0
10
38.7175199333
20
49.1081863667
30
0
10
38.6145117833
20
48.9756494167
30
0
10
38.6145117833
20
48.9333123667
30
0
0
SPLINE
5
92
100
AcDbEntity
8
0
6
ByLayer
62
7
370
-1
100
AcDbSpline
210
0
220
0
230
1
70
8
71
3
72
8
73
4
74
0
42
1e-07
43
1e-07
40
0
40
0
40
0
40
0
40
1
40
1
40
1
40
1
10
38.6145117833
20
48.9333123667
30
0
10
38.6145117833
20
48.8909770667
30
0
10
38.5508600834
20
48.8186362667
30
0
10
38.4725185333
20
48.7697115166
30
0
0
SPLINE
5
93
100
AcDbEntity
8
0
6
ByLayer
62
7
370
-1
100
AcDbSpline
210
0
220
0
230
1
70
8
71
3
72
8
73
4
74
0
42
1e-07
43
1e-07
40
0
40
0
40
0
40
0
40
1
40
1
40
1
40
1
10
38.4725185333
20
48.7697115166
30
0
10
38.3941769834
20
48.7207860666
30
0
10
38.3069926834
20
48.5856104667
30
0
10
38.2780497833
20
48.4702914166
30
0
0
SPLINE
5
94
100
AcDbEntity
8
0
6
ByLayer
62
7
370
-1
100
AcDbSpline
210
0
220
0
230
1
70
8
71
3
72
8
73
4
74
0
42
1e-07
43
1e-07
40
0
40
0
40
0
40
0
40
1
40
1
40
1
40
1
10
38.2780497833
20
48.4702914166
30
0
10
38.2491058334
20
48.3549734166
30
0
10
38.1751263334
20
48.2245182667
30
0
10
38.1144492833
20
48.1801316167
30
0
0
SPLINE
5
95
100
AcDbEntity
8
0
6
ByLayer
62
7
370
-1
100
AcDbSpline
210
0
220
0
230
1
70
8
71
3
72
8
73
4
74
0
42
1e-07
43
1e-07
40
0
40
0
40
0
40
0
40
1
40
1
40
1
40
1
10
38.1144492833
20
48.1801316167
30
0
10
38.0537718834
20
48.1357439167
30
0
10
37.9833809333
20
47.9181384167
30
0
10
37.9570220833
20
47.6955030666
30
0
0
SPLINE
5
96
100
AcDbEntity
8
0
6
ByLayer
62
7
370
-1
100
AcDbSpline
210
0
220
0
230
1
70
8
71
3
72
8
73
4
74
0
42
1e-07
43
1e-07
40
0
40
0
40
0
40
0
40
1
40
1
40
1
40
1
10
37.9570220833
20
47.6955030666
30
0
10
37.9114608333
20
47.3106787666
30
0
10
37.8783385834
20
47.2599179166
30
0
10
37.2748381334
20
46.6645101666
30
0
0
SPLINE
5
97
100
AcDbEntity
8
0
6
ByLayer
62
7
370
-1
100
AcDbSpline
210
0
220
0
230
1
70
8
71
3
72
8
73
4
74
0
42
1e-07
43
1e-07
40
0
40
0
40
0
40
0
40
1
40
1
40
1
40
1
10
37.2748381334
20
46.6645101666
30
0
10
36.9256910834
20
46.3200454166
30
0
10
36.6389560333
20
45.9948117667
30
0
10
36.6389560333
20
45.9452843167
30
0
0
SPLINE
5
98
100
AcDbEntity
8
0
6
ByLayer
62
7
370
-1
100
AcDbSpline
210
0
220
0
230
1
70
8
71
3
72
8
73
4
74
0
42
1e-07
43
1e-07
40
0
40
0
40
0
40
0
40
1
40
1
40
1
40
1
10
36.6389560333
20
45.9452843167
30
0
10
36.6389560333
20
45.8957582666
30
0
10
36.6078035833
20
45.8557669166
30
0
10
36.5679595834
20
45.8557669166
30
0
0
SPLINE
5
99
100
AcDbEntity
8
0
6
ByLayer
62
7
370
-1
100
AcDbSpline
210
0
220
0
230
1
70
8
71
3
72
8
73
4
74
0
42
1e-07
43
1e-07
40
0
40
0
40
0
40
0
40
1
40
1
40
1
40
1
10
36.5679595834
20
45.8557669166
30
0
10
36.5281155834
20
45.8557669166
30
0
10
36.4346778334
20
45.7285503167
30
0
10
36.3611435334
20
45.5717811167
30
0
0
SPLINE
5
9A
100
AcDbEntity
8
0
6
ByLayer
62
7
370
-1
100
AcDbSpline
210
0
220
0
230
1
70
8
71
3
72
8
73
4
74
0
42
1e-07
43
1e-07
40
0
40
0
40
0
40
0
40
1
40
1
40
1
40
1
10
36.3611435334
20
45.5717811167
30
0
10
36.2876095833
20
45.4150115667
30
0
10
36.1862327834
20
45.2439305167
30
0
10
36.1358068833
20
45.1921039166
30
0
0
SPLINE
5
9B
100
AcDbEntity
8
0
6
ByLayer
62
7
370
-1
100
AcDbSpline
210
0
220
0
230
1
70
8
71
3
72
8
73
4
74
0
42
1e-07
43
1e-07
40
0
40
0
40
0
40
0
40
1
40
1
40
1
40
1
10
36.1358068833
20
45.1921039166
30
0
10
36.0853799333
20
45.1402773166
30
0
10
36.0202970834
20
44.9857638666
30
0
10
35.9907269834
20
44.8494686167
30
0
0
SPLINE
5
9C
100
AcDbEntity
8
0
6
ByLayer
62
7
370
-1
100
AcDbSpline
210
0
220
0
230
1
70
8
71
3
72
8
73
4
74
0
42
1e-07
43
1e-07
40
0
40
0
40
0
40
0
40
1
40
1
40
1
40
1
10
35.9907269834
20
44.8494686167
30
0
10
35.9611558333
20
44.7131709167
30
0
10
35.8988250334
20
44.5767913167
30
0
10
35.8518207334
20
44.5469615167
30
0
0
SPLINE
5
9D
100
AcDbEntity
8
0
6
ByLayer
62
7
370
-1
100
AcDbSpline
210
0
220
0
230
1
70
8
71
3
72
8
73
4
74
0
42
1e-07
43
1e-07
40
0
40
0
40
0
40
0
40
1
40
1
40
1
40
1
10
35.8518207334
20
44.5469615167
30
0
10
35.7402876334
20
44.4761813667
30
0
10
35.7346239334
20
42.8326436667
30
0
10
35.8456470834
20
42.7566142167
30
0
0
SPLINE
5
9E
100
AcDbEntity
8
0
6
ByLayer
62
7
370
-1
100
AcDbSpline
210
0
220
0
230
1
70
8
71
3
72
8
73
4
74
0
42
1e-07
43
1e-07
40
0
40
0
40
0
40
0
40
1
40
1
40
1
40
1
10
35.8456470834
20
42.7566142167
30
0
10
35.8892059834
20
42.7267854666
30
0
10
35.9705743334
20
42.5576955666
30
0
10
36.0277685333
20
42.3800240166
30
0
0
SPLINE
5
9F
100
AcDbEntity
8
0
6
ByLayer
62
7
370
-1
100
AcDbSpline
210
0
220
0
230
1
70
8
71
3
72
8
73
4
74
0
42
1e-07
43
1e-07
40
0
40
0
40
0
40
0
40
1
40
1
40
1
40
1
10
36.0277685333
20
42.3800240166
30
0
10
36.0849637833
20
42.2023514166
30
0
10
36.1582173833
20
42.0559093167
30
0
10
36.1913693834
20
42.0559093167
30
0
0
SPLINE
5
A0
100
AcDbEntity
8
0
6
ByLayer
62
7
370
-1
100
AcDbSpline
210
0
220
0
230
1
70
8
71
3
72
8
73
4
74
0
42
1e-07
43
1e-07
40
0
40
0
40
0
40
0
40
1
40
1
40
1
40
1
10
36.1913693834
20
42.0559093167
30
0
10
36.2245220834
20
42.0559093167
30
0
10
36.3065946334
20
41.9406774166
30
0
10
36.3734908333
20
41.7997044167
30
0
0
SPLINE
5
A1
100
AcDbEntity
8
0
6
ByLayer
62
7
370
-1
100
AcDbSpline
210
0
220
0
230
1
70
8
71
3
72
8
73
4
74
0
42
1e-07
43
1e-07
40
0
40
0
40
0
40
0
40
1
40
1
40
1
40
1
10
36.3734908333
20
41.7997044167
30
0
10
36.4527343334
20
41.6327110166
30
0
10
36.6009355333
20
41.4958148166
30
0
10
36.7963832333
20
41.4076802666
30
0
0
SPLINE
5
A2
100
AcDbEntity
8
0
6
ByLayer
62
7
370
-1
100
AcDbSpline
210
0
220
0
230
1
70
8
71
3
72
8
73
4
74
0
42
1e-07
43
1e-07
40
0
40
0
40
0
40
0
40
1
40
1
40
1
40
1
10
36.7963832333
20
41.4076802666
30
0
10
36.9613767334
20
41.3332790167
30
0
10
37.0958033333
20
41.2471398166
30
0
10
37.0958033333
20
41.2162981666
30
0
0
SPLINE
5
A3
100
AcDbEntity
8
0
6
ByLayer
62
7
370
-1
100
AcDbSpline
210
0
220
0
230
1
70
8
71
3
72
8
73
4
74
0
42
1e-07
43
1e-07
40
0
40
0
40
0
40
0
40
1
40
1
40
1
40
1
10
37.0958033333
20
41.2162981666
30
0
10
37.0958033333
20
41.1854558166
30
0
10
37.2503153833
20
41.1144180667
30
0
10
37.4384386334
20
41.0588713166
30
0
0
SPLINE
5
A4
100
AcDbEntity
8
0
6
ByLayer
62
7
370
-1
100
AcDbSpline
210
0
220
0
230
1
70
8
71
3
72
8
73
4
74
0
42
1e-07
43
1e-07
40
0
40
0
40
0
40
0
40
1
40
1
40
1
40
1
10
37.4384386334
20
41.0588713166
30
0
10
37.6265618833
20
41.0033256167
30
0
10
37.7810742834
20
40.9367661166
30
0
10
37.7810742834
20
40.9107044166
30
0
0
SPLINE
5
A5
100
AcDbEntity
8
0
6
ByLayer
62
7
370
-1
100
AcDbSpline
210
0
220
0
230
1
70
8
71
3
72
8
73
4
74
0
42
1e-07
43
1e-07
40
0
40
0
40
0
40
0
40
1
40
1
40
1
40
1
10
37.7810742834
20
40.9107044166
30
0
10
37.7810742834
20
40.8846430666
30
0
10
37.9157980334
20
40.8242285167
30
0
10
38.0804943834
20
40.7748851667
30
0
0
SPLINE
5
A6
100
AcDbEntity
8
0
6
ByLayer
62
7
370
-1
100
AcDbSpline
210
0
220
0
230
1
70
8
71
3
72
8
73
4
74
0
42
1e-07
43
1e-07
40
0
40
0
40
0
40
0
40
1
40
1
40
1
40
1
10
38.0804943834
20
40.7748851667
30
0
10
38.2610352334
20
40.7207933666
30
0
10
38.3974473833
20
40.6247586166
30
0
10
38.4262166833
20
40.5341142167
30
0
0
SPLINE
5
A7
100
AcDbEntity
8
0
6
ByLayer
62
7
370
-1
100
AcDbSpline
210
0
220
0
230
1
70
8
71
3
72
8
73
4
74
0
42
1e-07
43
1e-07
40
0
40
0
40
0
40
0
40
1
40
1
40
1
40
1
10
38.4262166833
20
40.5341142167
30
0
10
38.4524607334
20
40.4514253167
30
0
10
38.5045267333
20
40.3828606666
30
0
10
38.5435149834
20
40.3828606666
30
0
0
SPLINE
5
A8
100
AcDbEntity
8
0
6
ByLayer
62
7
370
-1
100
AcDbSpline
210
0
220
0
230
1
70
8
71
3
72
8
73
4
74
0
42
1e-07
43
1e-07
40
0
40
0
40
0
40
0
40
1
40
1
40
1
40
1
10
38.5435149834
20
40.3828606666
30
0
10
38.5847330834
20
40.3828606666
30
0
10
38.6145117833
20
39.8109393166
30
0
10
38.6145117833
20
39.0154061166
30
0
0
SPLINE
5
A9
100
AcDbEntity
8
0
6
ByLayer
62
7
370
-1
100
AcDbSpline
210
0
220
0
230
1
70
8
71
3
72
8
73
4
74
0
42
1e-07
43
1e-07
40
0
40
0
40
0
40
0
40
1
40
1
40
1
40
1
10
38.6145117833
20
39.0154061166
30
0
10
38.6145117833
20
38.2629120667
30
0
10
38.5882663333
20
37.6479512167
30
0
10
38.5527756334
20
37.6479512167
30
0
0
SPLINE
5
AA
100
AcDbEntity
8
0
6
ByLayer
62
7
370
-1
100
AcDbSpline
210
0
220
0
230
1
70
8
71
3
72
8
73
4
74
0
42
1e-07
43
1e-07
40
0
40
0
40
0
40
0
40
1
40
1
40
1
40
1
10
38.5527756334
20
37.6479512167
30
0
10
38.5172856333
20
37.6479512167
30
0
10
38.4669811834
20
37.3074680667
30
0
10
38.4416506334
20
36.8916838167
30
0
0
SPLINE
5
AB
100
AcDbEntity
8
0
6
ByLayer
62
7
370
-1
100
AcDbSpline
210
0
220
0
230
1
70
8
71
3
72
8
73
4
74
0
42
1e-07
43
1e-07
40
0
40
0
40
0
40
0
40
1
40
1
40
1
40
1
10
38.4416506334
20
36.8916838167
30
0
10
38.3820550833
20
35.9134628667
30
0
10
38.2293829833
20
34.8358713166
30
0
10
38.1514908334
20
34.8358713166
30
0
0
SPLINE
5
AC
100
AcDbEntity
8
0
6
ByLayer
62
7
370
-1
100
AcDbSpline
210
0
220
0
230
1
70
8
71
3
72
8
73
4
74
0
42
1e-07
43
1e-07
40
0
40
0
40
0
40
0
40
1
40
1
40
1
40
1
10
38.1514908334
20
34.8358713166
30
0
10
38.1179153333
20
34.8358713166
30
0
10
38.0679248333
20
34.7142263667
30
0
10
38.0403658334
20
34.5673191166
30
0
0
SPLINE
5
AD
100
AcDbEntity
8
0
6
ByLayer
62
7
370
-1
100
AcDbSpline
210
0
220
0
230
1
70
8
71
3
72
8
73
4
74
0
42
1e-07
43
1e-07
40
0
40
0
40
0
40
0
40
1
40
1
40
1
40
1
10
38.0403658334
20
34.5673191166
30
0
10
38.0128057833
20
34.4204129167
30
0
10
37.9521077333
20
34.2770567666
30
0
10
37.9045462333
20
34.2462914167
30
0
0
SPLINE
5
AE
100
AcDbEntity
8
0
6
ByLayer
62
7
370
-1
100
AcDbSpline
210
0
220
0
230
1
70
8
71
3
72
8
73
4
74
0
42
1e-07
43
1e-07
40
0
40
0
40
0
40
0
40
1
40
1
40
1
40
1
10
37.9045462333
20
34.2462914167
30
0
10
37.8569840334
20
34.2155260666
30
0
10
37.7665440334
20
34.0877204167
30
0
10
37.7039041833
20
33.9623052666
30
0
0
SPLINE
5
AF
100
AcDbEntity
8
0
6
ByLayer
62
7
370
-1
100
AcDbSpline
210
0
220
0
230
1
70
8
71
3
72
8
73
4
74
0
42
1e-07
43
1e-07
40
0
40
0
40
0
40
0
40
1
40
1
40
1
40
1
10
37.7039041833
20
33.9623052666
30
0
10
37.6412650334
20
33.8368890667
30
0
10
37.5301183334
20
33.6897308667
30
0
10
37.4569595833
20
33.6351039167
30
0
0
SPLINE
5
B0
100
AcDbEntity
8
0
6
ByLayer
62
7
370
-1
100
AcDbSpline
210
0
220
0
230
1
70
8
71
3
72
8
73
4
74
0
42
1e-07
43
1e-07
40
0
40
0
40
0
40
0
40
1
40
1
40
1
40
1
10
37.4569595833
20
33.6351039167
30
0
10
37.3837997833
20
33.5804769666
30
0
10
37.3242269834
20
33.4914887667
30
0
10
37.3242269834
20
33.4375481666
30
0
0
SPLINE
5
B1
100
AcDbEntity
8
0
6
ByLayer
62
7
370
-1
100
AcDbSpline
210
0
220
0
230
1
70
8
71
3
72
8
73
4
74
0
42
1e-07
43
1e-07
40
0
40
0
40
0
40
0
40
1
40
1
40
1
40
1
10
37.3242269834
20
33.4375481666
30
0
10
37.3242269834
20
33.3836079166
30
0
10
37.2534317834
20
33.2565351667
30
0
10
37.1667997834
20
33.1566490167
30
0
0
SPLINE
5
B2
100
AcDbEntity
8
0
6
ByLayer
62
7
370
-1
100
AcDbSpline
210
0
220
0
230
1
70
8
71
3
72
8
73
4
74
0
42
1e-07
43
1e-07
40
0
40
0
40
0
40
0
40
1
40
1
40
1
40
1
10
37.1667997834
20
33.1566490167
30
0
10
37.0801688334
20
33.0567618167
30
0
10
36.9892647333
20
32.8801602166
30
0
10
36.9661573834
20
32.7646248667
30
0
0
SPLINE
5
B3
100
AcDbEntity
8
0
6
ByLayer
62
7
370
-1
100
AcDbSpline
210
0
220
0
230
1
70
8
71
3
72
8
73
4
74
0
42
1e-07
43
1e-07
40
0
40
0
40
0
40
0
40
1
40
1
40
1
40
1
10
36.9661573834
20
32.7646248667
30
0
10
36.9430503833
20
32.6490884666
30
0
10
36.8975503834
20
32.5547218167
30
0
10
36.8642930334
20
32.5547218167
30
0
0
SPLINE
5
B4
100
AcDbEntity
8
0
6
ByLayer
62
7
370
-1
100
AcDbSpline
210
0
220
0
230
1
70
8
71
3
72
8
73
4
74
0
42
1e-07
43
1e-07
40
0
40
0
40
0
40
0
40
1
40
1
40
1
40
1
10
36.8642930334
20
32.5547218167
30
0
10
36.8310342834
20
32.5547218167
30
0
10
36.7794911833
20
32.4447665166
30
0
10
36.7500810333
20
32.3108642167
30
0
0
SPLINE
5
B5
100
AcDbEntity
8
0
6
ByLayer
62
7
370
-1
100
AcDbSpline
210
0
220
0
230
1
70
8
71
3
72
8
73
4
74
0
42
1e-07
43
1e-07
40
0
40
0
40
0
40
0
40
1
40
1
40
1
40
1
10
36.7500810333
20
32.3108642167
30
0
10
36.7198945833
20
32.1734258666
30
0
10
36.5511011334
20
31.9205032667
30
0
10
36.3611435334
20
31.7305449667
30
0
0
SPLINE
5
B6
100
AcDbEntity
8
0
6
ByLayer
62
7
370
-1
100
AcDbSpline
210
0
220
0
230
1
70
8
71
3
72
8
73
4
74
0
42
1e-07
43
1e-07
40
0
40
0
40
0
40
0
40
1
40
1
40
1
40
1
10
36.3611435334
20
31.7305449667
30
0
10
36.1760736833
20
31.5454758167
30
0
10
36.0054637333
20
31.2979890667
30
0
10
35.9814666833
20
31.1780066166
30
0
0
SPLINE
5
B7
100
AcDbEntity
8
0
6
ByLayer
62
7
370
-1
100
AcDbSpline
210
0
220
0
230
1
70
8
71
3
72
8
73
4
74
0
42
1e-07
43
1e-07
40
0
40
0
40
0
40
0
40
1
40
1
40
1
40
1
10
35.9814666833
20
31.1780066166
30
0
10
35.9574692834
20
31.0580224167
30
0
10
35.9069208833
20
30.9588436167
30
0
10
35.8703416833
20
30.9588436167
30
0
0
SPLINE
5
B8
100
AcDbEntity
8
0
6
ByLayer
62
7
370
-1
100
AcDbSpline
210
0
220
0
230
1
70
8
71
3
72
8
73
4
74
0
42
1e-07
43
1e-07
40
0
40
0
40
0
40
0
40
1
40
1
40
1
40
1
10
35.8703416833
20
30.9588436167
30
0
10
35.8337610833
20
30.9588436167
30
0
10
35.8024318834
20
30.8719743167
30
0
10
35.8024318834
20
30.7674615166
30
0
0
SPLINE
5
B9
100
AcDbEntity
8
0
6
ByLayer
62
7
370
-1
100
AcDbSpline
210
0
220
0
230
1
70
8
71
3
72
8
73
4
74
0
42
1e-07
43
1e-07
40
0
40
0
40
0
40
0
40
1
40
1
40
1
40
1
10
35.8024318834
20
30.7674615166
30
0
10
35.8024318834
20
30.6629487166
30
0
10
35.8377972833
20
30.5791664167
30
0
10
35.8796019833
20
30.5791664167
30
0
0
SPLINE
5
BA
100
AcDbEntity
8
0
6
ByLayer
62
7
370
-1
100
AcDbSpline
210
0
220
0
230
1
70
8
71
3
72
8
73
4
74
0
42
1e-07
43
1e-07
40
0
40
0
40
0
40
0
40
1
40
1
40
1
40
1
10
35.8796019833
20
30.5791664167
30
0
10
35.9214077334
20
30.5791664167
30
0
10
35.9567720834
20
30.5347619167
30
0
10
35.9567720834
20
30.4803887167
30
0
0
SPLINE
5
BB
100
AcDbEntity
8
0
6
ByLayer
62
7
370
-1
100
AcDbSpline
210
0
220
0
230
1
70
8
71
3
72
8
73
4
74
0
42
1e-07
43
1e-07
40
0
40
0
40
0
40
0
40
1
40
1
40
1
40
1
10
35.9567720834
20
30.4803887167
30
0
10
35.9567720834
20
30.3405528667
30
0
10
36.1354551333
20
29.9717571667
30
0
10
36.2037166834
20
29.9710655667
30
0
0
SPLINE
5
BC
100
AcDbEntity
8
0
6
ByLayer
62
7
370
-1
100
AcDbSpline
210
0
220
0
230
1
70
8
71
3
72
8
73
4
74
0
42
1e-07
43
1e-07
40
0
40
0
40
0
40
0
40
1
40
1
40
1
40
1
10
36.2037166834
20
29.9710655667
30
0
10
36.2350696833
20
29.9707397167
30
0
10
36.2592791834
20
29.9195609666
30
0
10
36.2592791834
20
29.8568539166
30
0
0
SPLINE
5
BD
100
AcDbEntity
8
0
6
ByLayer
62
7
370
-1
100
AcDbSpline
210
0
220
0
230
1
70
8
71
3
72
8
73
4
74
0
42
1e-07
43
1e-07
40
0
40
0
40
0
40
0
40
1
40
1
40
1
40
1
10
36.2592791834
20
29.8568539166
30
0
10
36.2592791834
20
29.7941458167
30
0
10
36.2316785333
20
29.7426419167
30
0
10
36.1975430334
20
29.7426419167
30
0
0
SPLINE
5
BE
100
AcDbEntity
8
0
6
ByLayer
62
7
370
-1
100
AcDbSpline
210
0
220
0
230
1
70
8
71
3
72
8
73
4
74
0
42
1e-07
43
1e-07
40
0
40
0
40
0
40
0
40
1
40
1
40
1
40
1
10
36.1975430334
20
29.7426419167
30
0
10
36.1634071834
20
29.7426419167
30
0
10
36.0910415334
20
29.5204867666
30
0
10
36.0370291834
20
29.2487530666
30
0
0
SPLINE
5
BF
100
AcDbEntity
8
0
6
ByLayer
62
7
370
-1
100
AcDbSpline
210
0
220
0
230
1
70
8
71
3
72
8
73
4
74
0
42
1e-07
43
1e-07
40
0
40
0
40
0
40
0
40
1
40
1
40
1
40
1
10
36.0370291834
20
29.2487530666
30
0
10
35.9830171834
20
28.9770193667
30
0
10
35.9143727333
20
28.7548642166
30
0
10
35.8857756334
20
28.7548642166
30
0
0
SPLINE
5
C0
100
AcDbEntity
8
0
6
ByLayer
62
7
370
-1
100
AcDbSpline
210
0
220
0
230
1
70
8
71
3
72
8
73
4
74
0
42
1e-07
43
1e-07
40
0
40
0
40
0
40
0
40
1
40
1
40
1
40
1
10
35.8857756334
20
28.7548642166
30
0
10
35.8293773334
20
28.7548642166
30
0
10
35.6511783334
20
28.1418682667
30
0
10
35.6511783334
20
27.9492079667
30
0
0
SPLINE
5
C1
100
AcDbEntity
8
0
6
ByLayer
62
7
370
-1
100
AcDbSpline
210
0
220
0
230
1
70
8
71
3
72
8
73
4
74
0
42
1e-07
43
1e-07
40
0
40
0
40
0
40
0
40
1
40
1
40
1
40
1
10
35.6511783334
20
27.9492079667
30
0
10
35.6511783334
20
27.8841146166
30
0
10
35.6028471834
20
27.7835774667
30
0
10
35.5431399834
20
27.7238713167
30
0
0
SPLINE
5
C2
100
AcDbEntity
8
0
6
ByLayer
62
7
370
-1
100
AcDbSpline
210
0
220
0
230
1
70
8
71
3
72
8
73
4
74
0
42
1e-07
43
1e-07
40
0
40
0
40
0
40
0
40
1
40
1
40
1
40
1
10
35.5431399834
20
27.7238713167
30
0
10
35.4834348834
20
27.6641651667
30
0
10
35.3908703833
20
27.4259712666
30
0
10
35.3394109334
20
27.1960275666
30
0
0
SPLINE
5
C3
100
AcDbEntity
8
0
6
ByLayer
62
7
370
-1
100
AcDbSpline
210
0
220
0
230
1
70
8
71
3
72
8
73
4
74
0
42
1e-07
43
1e-07
40
0
40
0
40
0
40
0
40
1
40
1
40
1
40
1
10
35.3394109334
20
27.1960275666
30
0
10
35.2879518334
20
26.9660835166
30
0
10
35.2196213333
20
26.7793088167
30
0
10
35.1850707334
20
26.7793088167
30
0
0
SPLINE
5
C4
100
AcDbEntity
8
0
6
ByLayer
62
7
370
-1
100
AcDbSpline
210
0
220
0
230
1
70
8
71
3
72
8
73
4
74
0
42
1e-07
43
1e-07
40
0
40
0
40
0
40
0
40
1
40
1
40
1
40
1
10
35.1850707334
20
26.7793088167
30
0
10
35.1505190833
20
26.7793088167
30
0
10
35.0842738834
20
26.6247964166
30
0
10
35.0369041834
20
26.4366731666
30
0
0
SPLINE
5
C5
100
AcDbEntity
8
0
6
ByLayer
62
7
370
-1
100
AcDbSpline
210
0
220
0
230
1
70
8
71
3
72
8
73
4
74
0
42
1e-07
43
1e-07
40
0
40
0
40
0
40
0
40
1
40
1
40
1
40
1
10
35.0369041834
20
26.4366731666
30
0
10
34.9895341333
20
26.2485499166
30
0
10
34.9241964834
20
26.0940378667
30
0
10
34.8949109333
20
26.0940378667
30
0
0
SPLINE
5
C6
100
AcDbEntity
8
0
6
ByLayer
62
7
370
-1
100
AcDbSpline
210
0
220
0
230
1
70
8
71
3
72
8
73
4
74
0
42
1e-07
43
1e-07
40
0
40
0
40
0
40
0
40
1
40
1
40
1
40
1
10
34.8949109333
20
26.0940378667
30
0
10
34.8656264334
20
26.0940378667
30
0
10
34.7974905334
20
25.9233866166
30
0
10
34.7405707333
20
25.7143606666
30
0
0
SPLINE
5
C7
100
AcDbEntity
8
0
6
ByLayer
62
7
370
-1
100
AcDbSpline
210
0
220
0
230
1
70
8
71
3
72
8
73
4
74
0
42
1e-07
43
1e-07
40
0
40
0
40
0
40
0
40
1
40
1
40
1
40
1
10
34.7405707333
20
25.7143606666
30
0
10
34.6836509334
20
25.5053350667
30
0
10
34.6081314334
20
25.3346838166
30
0
10
34.5738832334
20
25.3346838166
30
0
0
SPLINE
5
C8
100
AcDbEntity
8
0
6
ByLayer
62
7
370
-1
100
AcDbSpline
210
0
220
0
230
1
70
8
71
3
72
8
73
4
74
0
42
1e-07
43
1e-07
40
0
40
0
40
0
40
0
40
1
40
1
40
1
40
1
10
34.5738832334
20
25.3346838166
30
0
10
34.5396350334
20
25.3346838166
30
0
10
34.5121470834
20
25.1283035166
30
0
10
34.5121470834
20
24.8778365166
30
0
0
SPLINE
5
C9
100
AcDbEntity
8
0
6
ByLayer
62
7
370
-1
100
AcDbSpline
210
0
220
0
230
1
70
8
71
3
72
8
73
4
74
0
42
1e-07
43
1e-07
40
0
40
0
40
0
40
0
40
1
40
1
40
1
40
1
10
34.5121470834
20
24.8778365166
30
0
10
34.5121470834
20
24.4709391167
30
0
10
34.5368276833
20
24.3996217166
30
0
10
34.7405707333
20
24.2049128667
30
0
0
SPLINE
5
CA
100
AcDbEntity
8
0
6
ByLayer
62
7
370
-1
100
AcDbSpline
210
0
220
0
230
1
70
8
71
3
72
8
73
4
74
0
42
1e-07
43
1e-07
40
0
40
0
40
0
40
0
40
1
40
1
40
1
40
1
10
34.7405707333
20
24.2049128667
30
0
10
34.9533133334
20
24.0016045167
30
0
10
35.0538788333
20
23.6616351667
30
0
10
34.9010845833
20
23.6616351667
30
0
0
SPLINE
5
CB
100
AcDbEntity
8
0
6
ByLayer
62
7
370
-1
100
AcDbSpline
210
0
220
0
230
1
70
8
71
3
72
8
73
4
74
0
42
1e-07
43
1e-07
40
0
40
0
40
0
40
0
40
1
40
1
40
1
40
1
10
34.9010845833
20
23.6616351667
30
0
10
34.8638116834
20
23.6616351667
30
0
10
34.8100173834
20
23.5778528667
30
0
10
34.7837859334
20
23.4733400666
30
0
0
SPLINE
5
CC
100
AcDbEntity
8
0
6
ByLayer
62
7
370
-1
100
AcDbSpline
210
0
220
0
230
1
70
8
71
3
72
8
73
4
74
0
42
1e-07
43
1e-07
40
0
40
0
40
0
40
0
40
1
40
1
40
1
40
1
10
34.7837859334
20
23.4733400666
30
0
10
34.7575544833
20
23.3688262166
30
0
10
34.6932521334
20
23.2821557166
30
0
10
34.6417930333
20
23.2819579667
30
0
0
SPLINE
5
CD
100
AcDbEntity
8
0
6
ByLayer
62
7
370
-1
100
AcDbSpline
210
0
220
0
230
1
70
8
71
3
72
8
73
4
74
0
42
1e-07
43
1e-07
40
0
40
0
40
0
40
0
40
1
40
1
40
1
40
1
10
34.6417930333
20
23.2819579667
30
0
10
34.5903325334
20
23.2818386166
30
0
10
34.4815458834
20
23.1787097167
30
0
10
34.3979354333
20
23.0535343167
30
0
0
SPLINE
5
CE
100
AcDbEntity
8
0
6
ByLayer
62
7
370
-1
100
AcDbSpline
210
0
220
0
230
1
70
8
71
3
72
8
73
4
74
0
42
1e-07
43
1e-07
40
0
40
0
40
0
40
0
40
1
40
1
40
1
40
1
10
34.3979354333
20
23.0535343167
30
0
10
34.3143249833
20
22.9283592666
30
0
10
34.2014727334
20
22.8252097167
30
0
10
34.1479041834
20
22.8251106667
30
0
0
SPLINE
5
CF
100
AcDbEntity
8
0
6
ByLayer
62
7
370
-1
100
AcDbSpline
210
0
220
0
230
1
70
8
71
3
72
8
73
4
74
0
42
1e-07
43
1e-07
40
0
40
0
40
0
40
0
40
1
40
1
40
1
40
1
10
34.1479041834
20
22.8251106667
30
0
10
34.0943356333
20
22.8249892166
30
0
10
34.0274401333
20
22.7655368166
30
0
10
33.9997372834
20
22.6923780667
30
0
0
SPLINE
5
D0
100
AcDbEntity
8
0
6
ByLayer
62
7
370
-1
100
AcDbSpline
210
0
220
0
230
1
70
8
71
3
72
8
73
4
74
0
42
1e-07
43
1e-07
40
0
40
0
40
0
40
0
40
1
40
1
40
1
40
1
10
33.9997372834
20
22.6923780667
30
0
10
33.9720347833
20
22.6192182667
30
0
10
33.9103892833
20
22.5172461166
30
0
10
33.8608310334
20
22.4670414167
30
0
0
SPLINE
5
D1
100
AcDbEntity
8
0
6
ByLayer
62
7
370
-1
100
AcDbSpline
210
0
220
0
230
1
70
8
71
3
72
8
73
4
74
0
42
1e-07
43
1e-07
40
0
40
0
40
0
40
0
40
1
40
1
40
1
40
1
10
33.8608310334
20
22.4670414167
30
0
10
33.8112727833
20
22.4168356667
30
0
10
33.7455280834
20
22.2460892166
30
0
10
33.7157511333
20
22.0873642166
30
0
0
SPLINE
5
D2
100
AcDbEntity
8
0
6
ByLayer
62
7
370
-1
100
AcDbSpline
210
0
220
0
230
1
70
8
71
3
72
8
73
4
74
0
42
1e-07
43
1e-07
40
0
40
0
40
0
40
0
40
1
40
1
40
1
40
1
10
33.7157511333
20
22.0873642166
30
0
10
33.6859741833
20
21.9286392167
30
0
10
33.6369545833
20
21.7842477667
30
0
10
33.6077131334
20
21.7632498666
30
0
0
SPLINE
5
D3
100
AcDbEntity
8
0
6
ByLayer
62
7
370
-1
100
AcDbSpline
210
0
220
0
230
1
70
8
71
3
72
8
73
4
74
0
42
1e-07
43
1e-07
40
0
40
0
40
0
40
0
40
1
40
1
40
1
40
1
10
33.6077131334
20
21.7632498666
30
0
10
33.5784713334
20
21.7422516167
30
0
10
33.4938301334
20
21.4612138666
30
0
10
33.4194180333
20
21.1397150667
30
0
0
SPLINE
5
D4
100
AcDbEntity
8
0
6
ByLayer
62
7
370
-1
100
AcDbSpline
210
0
220
0
230
1
70
8
71
3
72
8
73
4
74
0
42
1e-07
43
1e-07
40
0
40
0
40
0
40
0
40
1
40
1
40
1
40
1
10
33.4194180333
20
21.1397150667
30
0
10
33.3450055834
20
20.8182159167
30
0
10
33.2433596334
20
20.5418664166
30
0
10
33.1940810334
20
20.5254405667
30
0
0
SPLINE
5
D5
100
AcDbEntity
8
0
6
ByLayer
62
7
370
-1
100
AcDbSpline
210
0
220
0
230
1
70
8
71
3
72
8
73
4
74
0
42
1e-07
43
1e-07
40
0
40
0
40
0
40
0
40
1
40
1
40
1
40
1
10
33.1940810334
20
20.5254405667
30
0
10
33.1341519333
20
20.5054650166
30
0
10
33.1045636333
20
20.2693483667
30
0
10
33.1045636333
20
19.8123887166
30
0
0
SPLINE
5
D6
100
AcDbEntity
8
0
6
ByLayer
62
7
370
-1
100
AcDbSpline
210
0
220
0
230
1
70
8
71
3
72
8
73
4
74
0
42
1e-07
43
1e-07
40
0
40
0
40
0
40
0
40
1
40
1
40
1
40
1
10
33.1045636333
20
19.8123887166
30
0
10
33.1045636333
20
19.2633097666
30
0
10
33.1304814834
20
19.1012006167
30
0
10
33.2372962334
20
18.9943851667
30
0
0
SPLINE
5
D7
100
AcDbEntity
8
0
6
ByLayer
62
7
370
-1
100
AcDbSpline
210
0
220
0
230
1
70
8
71
3
72
8
73
4
74
0
42
1e-07
43
1e-07
40
0
40
0
40
0
40
0
40
1
40
1
40
1
40
1
10
33.2372962334
20
18.9943851667
30
0
10
33.3103926834
20
18.9212887167
30
0
10
33.3911040834
20
18.7800441167
30
0
10
33.4163310333
20
18.6795311167
30
0
0
SPLINE
5
D8
100
AcDbEntity
8
0
6
ByLayer
62
7
370
-1
100
AcDbSpline
210
0
220
0
230
1
70
8
71
3
72
8
73
4
74
0
42
1e-07
43
1e-07
40
0
40
0
40
0
40
0
40
1
40
1
40
1
40
1
10
33.4163310333
20
18.6795311167
30
0
10
33.4716138834
20
18.4592673666
30
0
10
33.2957010833
20
16.8984441167
30
0
10
33.2156886333
20
16.8984441167
30
0
0
SPLINE
5
D9
100
AcDbEntity
8
0
6
ByLayer
62
7
370
-1
100
AcDbSpline
210
0
220
0
230
1
70
8
71
3
72
8
73
4
74
0
42
1e-07
43
1e-07
40
0
40
0
40
0
40
0
40
1
40
1
40
1
40
1
10
33.2156886333
20
16.8984441167
30
0
10
33.1846688334
20
16.8984441167
30
0
10
33.1187333833
20
16.5540553167
30
0
10
33.0675220833
20
16.1360030667
30
0
0
SPLINE
5
DA
100
AcDbEntity
8
0
6
ByLayer
62
7
370
-1
100
AcDbSpline
210
0
220
0
230
1
70
8
71
3
72
8
73
4
74
0
42
1e-07
43
1e-07
40
0
40
0
40
0
40
0
40
1
40
1
40
1
40
1
10
33.0675220833
20
16.1360030667
30
0
10
33.0163111334
20
15.7179518667
30
0
10
32.9486092333
20
15.3766490166
30
0
10
32.9193555334
20
15.3766490166
30
0
0
SPLINE
5
DB
100
AcDbEntity
8
0
6
ByLayer
62
7
370
-1
100
AcDbSpline
210
0
220
0
230
1
70
8
71
3
72
8
73
4
74
0
42
1e-07
43
1e-07
40
0
40
0
40
0
40
0
40
1
40
1
40
1
40
1
10
32.9193555334
20
15.3766490166
30
0
10
32.8901018334
20
15.3766490166
30
0
10
32.8207969334
20
14.9677041166
30
0
10
32.7650149833
20
14.4660414167
30
0
0
SPLINE
5
DC
100
AcDbEntity
8
0
6
ByLayer
62
7
370
-1
100
AcDbSpline
210
0
220
0
230
1
70
8
71
3
72
8
73
4
74
0
42
1e-07
43
1e-07
40
0
40
0
40
0
40
0
40
1
40
1
40
1
40
1
10
32.7650149833
20
14.4660414167
30
0
10
32.7092333834
20
13.9643797666
30
0
10
32.6431117333
20
13.5523468166
30
0
10
32.6168484334
20
13.5523468166
30
0
0
SPLINE
5
DD
100
AcDbEntity
8
0
6
ByLayer
62
7
370
-1
100
AcDbSpline
210
0
220
0
230
1
70
8
71
3
72
8
73
4
74
0
42
1e-07
43
1e-07
40
0
40
0
40
0
40
0
40
1
40
1
40
1
40
1
10
32.6168484334
20
13.5523468166
30
0
10
32.5905851333
20
13.5523468166
30
0
10
32.5044056834
20
13.0050290666
30
0
10
32.4254666834
20
12.3361454667
30
0
0
SPLINE
5
DE
100
AcDbEntity
8
0
6
ByLayer
62
7
370
-1
100
AcDbSpline
210
0
220
0
230
1
70
8
71
3
72
8
73
4
74
0
42
1e-07
43
1e-07
40
0
40
0
40
0
40
0
40
1
40
1
40
1
40
1
10
32.4254666834
20
12.3361454667
30
0
10
32.3465273333
20
11.6672629166
30
0
10
32.2571429334
20
11.1199441167
30
0
10
32.2279109334
20
11.1199441167
30
0
0
SPLINE
5
DF
100
AcDbEntity
8
0
6
ByLayer
62
7
370
-1
100
AcDbSpline
210
0
220
0
230
1
70
8
71
3
72
8
73
4
74
0
42
1e-07
43
1e-07
40
0
40
0
40
0
40
0
40
1
40
1
40
1
40
1
10
32.2279109334
20
11.1199441167
30
0
10
32.1986789334
20
11.1199441167
30
0
10
32.1551875833
20
10.9403433666
30
0
10
32.1291332333
20
10.7186593166
30
0
0
SPLINE
5
E0
100
AcDbEntity
8
0
6
ByLayer
62
7
370
-1
100
AcDbSpline
210
0
220
0
230
1
70
8
71
3
72
8
73
4
74
0
42
1e-07
43
1e-07
40
0
40
0
40
0
40
0
40
1
40
1
40
1
40
1
10
32.1291332333
20
10.7186593166
30
0
10
32.1030785334
20
10.4969763167
30
0
10
32.0601741334
20
10.2040903667
30
0
10
32.0334421833
20
10.0704302666
30
0
0
LWPOLYLINE
5
E1
100
AcDbEntity
8
0
6
ByLayer
62
7
370
-1
100
AcDbPolyline
90
3
70
0
43
0
10
40.1980430333
20
72.1707843165
10
40.1733484334
20
72.4887253665
10
40.0220948834
20
72.1893052665
0
SPLINE
5
E2
100
AcDbEntity
8
0
6
ByLayer
62
7
370
-1
100
AcDbSpline
210
0
220
0
230
1
70
8
71
3
72
8
73
4
74
0
42
1e-07
43
1e-07
40
0
40
0
40
0
40
0
40
1
40
1
40
1
40
1
10
55.0023622835
20
10.1506873667
30
0
10
54.9740752835
20
10.3283596166
30
0
10
54.9311306335
20
10.6212438167
30
0
10
54.9066712335
20
10.7989164167
30
0
0
SPLINE
5
E3
100
AcDbEntity
8
0
6
ByLayer
62
7
370
-1
100
AcDbSpline
210
0
220
0
230
1
70
8
71
3
72
8
73
4
74
0
42
1e-07
43
1e-07
40
0
40
0
40
0
40
0
40
1
40
1
40
1
40
1
10
54.9066712335
20
10.7989164167
30
0
10
54.8822111335
20
10.9765879666
30
0
10
54.8357055835
20
11.1199441167
30
0
10
54.8048068835
20
11.1199441167
30
0
0
SPLINE
5
E4
100
AcDbEntity
8
0
6
ByLayer
62
7
370
-1
100
AcDbSpline
210
0
220
0
230
1
70
8
71
3
72
8
73
4
74
0
42
1e-07
43
1e-07
40
0
40
0
40
0
40
0
40
1
40
1
40
1
40
1
10
54.8048068835
20
11.1199441167
30
0
10
54.7739071335
20
11.1199441167
30
0
10
54.7091742835
20
11.4350750166
30
0
10
54.6597269835
20
11.8206490167
30
0
0
SPLINE
5
E5
100
AcDbEntity
8
0
6
ByLayer
62
7
370
-1
100
AcDbSpline
210
0
220
0
230
1
70
8
71
3
72
8
73
4
74
0
42
1e-07
43
1e-07
40
0
40
0
40
0
40
0
40
1
40
1
40
1
40
1
10
54.6597269835
20
11.8206490167
30
0
10
54.6102786335
20
12.2062230167
30
0
10
54.5430219335
20
12.5394559167
30
0
10
54.5084734335
20
12.5614824667
30
0
0
SPLINE
5
E6
100
AcDbEntity
8
0
6
ByLayer
62
7
370
-1
100
AcDbSpline
210
0
220
0
230
1
70
8
71
3
72
8
73
4
74
0
42
1e-07
43
1e-07
40
0
40
0
40
0
40
0
40
1
40
1
40
1
40
1
10
54.5084734335
20
12.5614824667
30
0
10
54.4739238835
20
12.5835086666
30
0
10
54.4268555335
20
12.7399835166
30
0
10
54.4066087335
20
12.9072044166
30
0
0
SPLINE
5
E7
100
AcDbEntity
8
0
6
ByLayer
62
7
370
-1
100
AcDbSpline
210
0
220
0
230
1
70
8
71
3
72
8
73
4
74
0
42
1e-07
43
1e-07
40
0
40
0
40
0
40
0
40
1
40
1
40
1
40
1
10
54.4066087335
20
12.9072044166
30
0
10
54.3272556835
20
13.5626434666
30
0
10
54.1671380335
20
14.3888713167
30
0
10
54.1195359335
20
14.3888713167
30
0
0
SPLINE
5
E8
100
AcDbEntity
8
0
6
ByLayer
62
7
370
-1
100
AcDbSpline
210
0
220
0
230
1
70
8
71
3
72
8
73
4
74
0
42
1e-07
43
1e-07
40
0
40
0
40
0
40
0
40
1
40
1
40
1
40
1
10
54.1195359335
20
14.3888713167
30
0
10
54.0919622335
20
14.3888713167
30
0
10
54.0235606835
20
14.6786695666
30
0
10
53.9682823835
20
15.0340137166
30
0
0
SPLINE
5
E9
100
AcDbEntity
8
0
6
ByLayer
62
7
370
-1
100
AcDbSpline
210
0
220
0
230
1
70
8
71
3
72
8
73
4
74
0
42
1e-07
43
1e-07
40
0
40
0
40
0
40
0
40
1
40
1
40
1
40
1
10
53.9682823835
20
15.0340137166
30
0
10
53.9130054835
20
15.3893578667
30
0
10
53.8463619835
20
15.6822427667
30
0
10
53.8170291835
20
15.6822427667
30
0
0
SPLINE
5
EA
100
AcDbEntity
8
0
6
ByLayer
62
7
370
-1
100
AcDbSpline
210
0
220
0
230
1
70
8
71
3
72
8
73
4
74
0
42
1e-07
43
1e-07
40
0
40
0
40
0
40
0
40
1
40
1
40
1
40
1
10
53.8170291835
20
15.6822427667
30
0
10
53.7876970835
20
15.6822427667
30
0
10
53.7225284835
20
15.9366766666
30
0
10
53.6719492835
20
16.2502150667
30
0
0
SPLINE
5
EB
100
AcDbEntity
8
0
6
ByLayer
62
7
370
-1
100
AcDbSpline
210
0
220
0
230
1
70
8
71
3
72
8
73
4
74
0
42
1e-07
43
1e-07
40
0
40
0
40
0
40
0
40
1
40
1
40
1
40
1
10
53.6719492835
20
16.2502150667
30
0
10
53.6213700835
20
16.5637545167
30
0
10
53.5517928835
20
16.8212740167
30
0
10
53.5206957335
20
16.8212740167
30
0
0
SPLINE
5
EC
100
AcDbEntity
8
0
6
ByLayer
62
7
370
-1
100
AcDbSpline
210
0
220
0
230
1
70
8
71
3
72
8
73
4
74
0
42
1e-07
43
1e-07
40
0
40
0
40
0
40
0
40
1
40
1
40
1
40
1
10
53.5206957335
20
16.8212740167
30
0
10
53.4645375335
20
16.8212740167
30
0
10
53.3321269335
20
17.4415765666
30
0
10
53.2397962335
20
18.1331664166
30
0
0
SPLINE
5
ED
100
AcDbEntity
8
0
6
ByLayer
62
7
370
-1
100
AcDbSpline
210
0
220
0
230
1
70
8
71
3
72
8
73
4
74
0
42
1e-07
43
1e-07
40
0
40
0
40
0
40
0
40
1
40
1
40
1
40
1
10
53.2397962335
20
18.1331664166
30
0
10
53.2132854835
20
18.3317413667
30
0
10
53.1657239835
20
18.4943226666
30
0
10
53.1348448835
20
18.4943226666
30
0
0
SPLINE
5
EE
100
AcDbEntity
8
0
6
ByLayer
62
7
370
-1
100
AcDbSpline
210
0
220
0
230
1
70
8
71
3
72
8
73
4
74
0
42
1e-07
43
1e-07
40
0
40
0
40
0
40
0
40
1
40
1
40
1
40
1
10
53.1348448835
20
18.4943226666
30
0
10
53.1039671835
20
18.4943226666
30
0
10
53.0421025835
20
18.7219668666
30
0
10
52.9959386335
20
19.0005588166
30
0
0
SPLINE
5
EF
100
AcDbEntity
8
0
6
ByLayer
62
7
370
-1
100
AcDbSpline
210
0
220
0
230
1
70
8
71
3
72
8
73
4
74
0
42
1e-07
43
1e-07
40
0
40
0
40
0
40
0
40
1
40
1
40
1
40
1
10
52.9959386335
20
19.0005588166
30
0
10
52.9497739835
20
19.2791514666
30
0
10
52.8838507835
20
19.5255161166
30
0
10
52.8477720835
20
19.5500101667
30
0
0
SPLINE
5
F0
100
AcDbEntity
8
0
6
ByLayer
62
7
370
-1
100
AcDbSpline
210
0
220
0
230
1
70
8
71
3
72
8
73
4
74
0
42
1e-07
43
1e-07
40
0
40
0
40
0
40
0
40
1
40
1
40
1
40
1
10
52.8477720835
20
19.5500101667
30
0
10
52.8116954835
20
19.5745059667
30
0
10
52.7373218835
20
19.8426759666
30
0
10
52.6841712335
20
20.1457637166
30
0
0
SPLINE
5
F1
100
AcDbEntity
8
0
6
ByLayer
62
7
370
-1
100
AcDbSpline
210
0
220
0
230
1
70
8
71
3
72
8
73
4
74
0
42
1e-07
43
1e-07
40
0
40
0
40
0
40
0
40
1
40
1
40
1
40
1
10
52.6841712335
20
20.1457637166
30
0
10
52.6310209335
20
20.4488514667
30
0
10
52.5639420335
20
20.6983017167
30
0
10
52.5360046835
20
20.6983017167
30
0
0
SPLINE
5
F2
100
AcDbEntity
8
0
6
ByLayer
62
7
370
-1
100
AcDbSpline
210
0
220
0
230
1
70
8
71
3
72
8
73
4
74
0
42
1e-07
43
1e-07
40
0
40
0
40
0
40
0
40
1
40
1
40
1
40
1
10
52.5360046835
20
20.6983017167
30
0
10
52.4676258835
20
20.6983017167
30
0
10
52.2211030335
20
21.8129162666
30
0
10
52.2211506335
20
22.1213191166
30
0
0
SPLINE
5
F3
100
AcDbEntity
8
0
6
ByLayer
62
7
370
-1
100
AcDbSpline
210
0
220
0
230
1
70
8
71
3
72
8
73
4
74
0
42
1e-07
43
1e-07
40
0
40
0
40
0
40
0
40
1
40
1
40
1
40
1
10
52.2211506335
20
22.1213191166
30
0
10
52.2211733835
20
22.2738470166
30
0
10
52.2910270835
20
22.4475989167
30
0
10
52.4063587335
20
22.5781664166
30
0
0
SPLINE
5
F4
100
AcDbEntity
8
0
6
ByLayer
62
7
370
-1
100
AcDbSpline
210
0
220
0
230
1
70
8
71
3
72
8
73
4
74
0
42
1e-07
43
1e-07
40
0
40
0
40
0
40
0
40
1
40
1
40
1
40
1
10
52.4063587335
20
22.5781664166
30
0
10
52.5085475335
20
22.6938529666
30
0
10
52.6805354335
20
22.8845196667
30
0
10
52.7860359335
20
23.0041454667
30
0
0
SPLINE
5
F5
100
AcDbEntity
8
0
6
ByLayer
62
7
370
-1
100
AcDbSpline
210
0
220
0
230
1
70
8
71
3
72
8
73
4
74
0
42
1e-07
43
1e-07
40
0
40
0
40
0
40
0
40
1
40
1
40
1
40
1
10
52.7860359335
20
23.0041454667
30
0
10
52.8915357335
20
23.1237702167
30
0
10
52.9968010335
20
23.2840411666
30
0
10
53.0206332335
20
23.3591280667
30
0
0
SPLINE
5
F6
100
AcDbEntity
8
0
6
ByLayer
62
7
370
-1
100
AcDbSpline
210
0
220
0
230
1
70
8
71
3
72
8
73
4
74
0
42
1e-07
43
1e-07
40
0
40
0
40
0
40
0
40
1
40
1
40
1
40
1
10
53.0206332335
20
23.3591280667
30
0
10
53.0444643835
20
23.4342160167
30
0
10
53.1138557335
20
23.5147111166
30
0
10
53.1749734335
20
23.5381628667
30
0
0
SPLINE
5
F7
100
AcDbEntity
8
0
6
ByLayer
62
7
370
-1
100
AcDbSpline
210
0
220
0
230
1
70
8
71
3
72
8
73
4
74
0
42
1e-07
43
1e-07
40
0
40
0
40
0
40
0
40
1
40
1
40
1
40
1
10
53.1749734335
20
23.5381628667
30
0
10
53.2360893835
20
23.5616156666
30
0
10
53.2860984335
20
23.6308540666
30
0
10
53.2860984335
20
23.6925030667
30
0
0
SPLINE
5
F8
100
AcDbEntity
8
0
6
ByLayer
62
7
370
-1
100
AcDbSpline
210
0
220
0
230
1
70
8
71
3
72
8
73
4
74
0
42
1e-07
43
1e-07
40
0
40
0
40
0
40
0
40
1
40
1
40
1
40
1
10
53.2860984335
20
23.6925030667
30
0
10
53.2860984335
20
23.7541524167
30
0
10
53.3466550835
20
23.8508658166
30
0
10
53.4219180335
20
23.9054927666
30
0
0
SPLINE
5
F9
100
AcDbEntity
8
0
6
ByLayer
62
7
370
-1
100
AcDbSpline
210
0
220
0
230
1
70
8
71
3
72
8
73
4
74
0
42
1e-07
43
1e-07
40
0
40
0
40
0
40
0
40
1
40
1
40
1
40
1
10
53.4219180335
20
23.9054927666
30
0
10
53.4971795835
20
23.9601190167
30
0
10
53.6043772335
20
24.1153482166
30
0
10
53.6596019835
20
24.2512150667
30
0
0
SPLINE
5
FA
100
AcDbEntity
8
0
6
ByLayer
62
7
370
-1
100
AcDbSpline
210
0
220
0
230
1
70
8
71
3
72
8
73
4
74
0
42
1e-07
43
1e-07
40
0
40
0
40
0
40
0
40
1
40
1
40
1
40
1
10
53.6596019835
20
24.2512150667
30
0
10
53.7148277835
20
24.3870819167
30
0
10
53.7874716835
20
24.4981593166
30
0
10
53.8201158335
20
24.4981593166
30
0
0
SPLINE
5
FB
100
AcDbEntity
8
0
6
ByLayer
62
7
370
-1
100
AcDbSpline
210
0
220
0
230
1
70
8
71
3
72
8
73
4
74
0
42
1e-07
43
1e-07
40
0
40
0
40
0
40
0
40
1
40
1
40
1
40
1
10
53.8201158335
20
24.4981593166
30
0
10
53.8527599835
20
24.4981593166
30
0
10
53.9148685335
20
24.6030081166
30
0
10
53.9590220835
20
24.7296699667
30
0
0
SPLINE
5
FC
100
AcDbEntity
8
0
6
ByLayer
62
7
370
-1
100
AcDbSpline
210
0
220
0
230
1
70
8
71
3
72
8
73
4
74
0
42
1e-07
43
1e-07
40
0
40
0
40
0
40
0
40
1
40
1
40
1
40
1
10
53.9590220835
20
24.7296699667
30
0
10
54.0031766835
20
24.8563307667
30
0
10
54.0840599335
20
25.0036181166
30
0
10
54.1380568835
20
25.0599579666
30
0
0
SPLINE
5
FD
100
AcDbEntity
8
0
6
ByLayer
62
7
370
-1
100
AcDbSpline
210
0
220
0
230
1
70
8
71
3
72
8
73
4
74
0
42
1e-07
43
1e-07
40
0
40
0
40
0
40
0
40
1
40
1
40
1
40
1
10
54.1380568835
20
25.0599579666
30
0
10
54.1920545335
20
25.1162978167
30
0
10
54.2864743835
20
25.2366911667
30
0
10
54.3479595835
20
25.3254231667
30
0
0
SPLINE
5
FE
100
AcDbEntity
8
0
6
ByLayer
62
7
370
-1
100
AcDbSpline
210
0
220
0
230
1
70
8
71
3
72
8
73
4
74
0
42
1e-07
43
1e-07
40
0
40
0
40
0
40
0
40
1
40
1
40
1
40
1
10
54.3479595835
20
25.3254231667
30
0
10
54.4622366835
20
25.4903428166
30
0
10
54.8819769835
20
25.5554361667
30
0
10
54.8819769835
20
25.4087669166
30
0
0
SPLINE
5
FF
100
AcDbEntity
8
0
6
ByLayer
62
7
370
-1
100
AcDbSpline
210
0
220
0
230
1
70
8
71
3
72
8
73
4
74
0
42
1e-07
43
1e-07
40
0
40
0
40
0
40
0
40
1
40
1
40
1
40
1
10
54.8819769835
20
25.4087669166
30
0
10
54.8819769835
20
25.3669622166
30
0
10
54.9173413335
20
25.3346838166
30
0
10
54.9591470835
20
25.3346838166
30
0
0
SPLINE
5
100
100
AcDbEntity
8
0
6
ByLayer
62
7
370
-1
100
AcDbSpline
210
0
220
0
230
1
70
8
71
3
72
8
73
4
74
0
42
1e-07
43
1e-07
40
0
40
0
40
0
40
0
40
1
40
1
40
1
40
1
10
54.9591470835
20
25.3346838166
30
0
10
55.0009517835
20
25.3346838166
30
0
10
55.0332305335
20
25.3861873666
30
0
10
55.0332305335
20
25.4488954667
30
0
0
SPLINE
5
101
100
AcDbEntity
8
0
6
ByLayer
62
7
370
-1
100
AcDbSpline
210
0
220
0
230
1
70
8
71
3
72
8
73
4
74
0
42
1e-07
43
1e-07
40
0
40
0
40
0
40
0
40
1
40
1
40
1
40
1
10
55.0332305335
20
25.4488954667
30
0
10
55.0332305335
20
25.5116035666
30
0
10
55.0622927835
20
25.5631074666
30
0
10
55.0980533335
20
25.5631074666
30
0
0
SPLINE
5
102
100
AcDbEntity
8
0
6
ByLayer
62
7
370
-1
100
AcDbSpline
210
0
220
0
230
1
70
8
71
3
72
8
73
4
74
0
42
1e-07
43
1e-07
40
0
40
0
40
0
40
0
40
1
40
1
40
1
40
1
10
55.0980533335
20
25.5631074666
30
0
10
55.1338117835
20
25.5631074666
30
0
10
55.1847297835
20
25.7766788666
30
0
10
55.2091783335
20
26.0384753667
30
0
0
SPLINE
5
103
100
AcDbEntity
8
0
6
ByLayer
62
7
370
-1
100
AcDbSpline
210
0
220
0
230
1
70
8
71
3
72
8
73
4
74
0
42
1e-07
43
1e-07
40
0
40
0
40
0
40
0
40
1
40
1
40
1
40
1
10
55.2091783335
20
26.0384753667
30
0
10
55.2606405835
20
26.5895794167
30
0
10
55.3187111835
20
26.7793088167
30
0
10
55.4406886335
20
26.7793088167
30
0
0
SPLINE
5
104
100
AcDbEntity
8
0
6
ByLayer
62
7
370
-1
100
AcDbSpline
210
0
220
0
230
1
70
8
71
3
72
8
73
4
74
0
42
1e-07
43
1e-07
40
0
40
0
40
0
40
0
40
1
40
1
40
1
40
1
10
55.4406886335
20
26.7793088167
30
0
10
55.4886039835
20
26.7793088167
30
0
10
55.7044976335
20
26.9418911666
30
0
10
55.9191435335
20
27.1404650666
30
0
0
SPLINE
5
105
100
AcDbEntity
8
0
6
ByLayer
62
7
370
-1
100
AcDbSpline
210
0
220
0
230
1
70
8
71
3
72
8
73
4
74
0
42
1e-07
43
1e-07
40
0
40
0
40
0
40
0
40
1
40
1
40
1
40
1
10
55.9191435335
20
27.1404650666
30
0
10
56.1337897835
20
27.3390400166
30
0
10
56.4272773835
20
27.6060018167
30
0
10
56.5735462335
20
27.7362186166
30
0
0
SPLINE
5
106
100
AcDbEntity
8
0
6
ByLayer
62
7
370
-1
100
AcDbSpline
210
0
220
0
230
1
70
8
71
3
72
8
73
4
74
0
42
1e-07
43
1e-07
40
0
40
0
40
0
40
0
40
1
40
1
40
1
40
1
10
56.5735462335
20
27.7362186166
30
0
10
56.7198143835
20
27.8664350666
30
0
10
56.8871798335
20
28.1078164166
30
0
10
56.9439631335
20
28.2702356666
30
0
0
SPLINE
5
107
100
AcDbEntity
8
0
6
ByLayer
62
7
370
-1
100
AcDbSpline
210
0
220
0
230
1
70
8
71
3
72
8
73
4
74
0
42
1e-07
43
1e-07
40
0
40
0
40
0
40
0
40
1
40
1
40
1
40
1
10
56.9439631335
20
28.2702356666
30
0
10
57.0007443335
20
28.4326552666
30
0
10
57.0645192335
20
28.5827076167
30
0
10
57.0859560335
20
28.6036106666
30
0
0
SPLINE
5
108
100
AcDbEntity
8
0
6
ByLayer
62
7
370
-1
100
AcDbSpline
210
0
220
0
230
1
70
8
71
3
72
8
73
4
74
0
42
1e-07
43
1e-07
40
0
40
0
40
0
40
0
40
1
40
1
40
1
40
1
10
57.0859560335
20
28.6036106666
30
0
10
57.1399431835
20
28.6562513667
30
0
10
57.3923400835
20
29.6751710167
30
0
10
57.3915497835
20
29.8383329667
30
0
0
SPLINE
5
109
100
AcDbEntity
8
0
6
ByLayer
62
7
370
-1
100
AcDbSpline
210
0
220
0
230
1
70
8
71
3
72
8
73
4
74
0
42
1e-07
43
1e-07
40
0
40
0
40
0
40
0
40
1
40
1
40
1
40
1
10
57.3915497835
20
29.8383329667
30
0
10
57.3911983835
20
29.9114927666
30
0
10
57.4202795335
20
29.9710655667
30
0
10
57.4563729335
20
29.9710655667
30
0
0
SPLINE
5
10A
100
AcDbEntity
8
0
6
ByLayer
62
7
370
-1
100
AcDbSpline
210
0
220
0
230
1
70
8
71
3
72
8
73
4
74
0
42
1e-07
43
1e-07
40
0
40
0
40
0
40
0
40
1
40
1
40
1
40
1
10
57.4563729335
20
29.9710655667
30
0
10
57.4924652835
20
29.9710655667
30
0
10
57.5636573835
20
30.1770815166
30
0
10
57.6168867835
20
30.4279128667
30
0
0
SPLINE
5
10B
100
AcDbEntity
8
0
6
ByLayer
62
7
370
-1
100
AcDbSpline
210
0
220
0
230
1
70
8
71
3
72
8
73
4
74
0
42
1e-07
43
1e-07
40
0
40
0
40
0
40
0
40
1
40
1
40
1
40
1
10
57.6168867835
20
30.4279128667
30
0
10
57.6701168835
20
30.6787442166
30
0
10
57.7408469835
20
30.8816731666
30
0
10
57.7712269835
20
30.8816731666
30
0
0
SPLINE
5
10C
100
AcDbEntity
8
0
6
ByLayer
62
7
370
-1
100
AcDbSpline
210
0
220
0
230
1
70
8
71
3
72
8
73
4
74
0
42
1e-07
43
1e-07
40
0
40
0
40
0
40
0
40
1
40
1
40
1
40
1
10
57.7712269835
20
30.8816731666
30
0
10
57.8016069835
20
30.8816731666
30
0
10
57.8692500835
20
31.0876891167
30
0
10
57.9224805335
20
31.3385204666
30
0
0
SPLINE
5
10D
100
AcDbEntity
8
0
6
ByLayer
62
7
370
-1
100
AcDbSpline
210
0
220
0
230
1
70
8
71
3
72
8
73
4
74
0
42
1e-07
43
1e-07
40
0
40
0
40
0
40
0
40
1
40
1
40
1
40
1
10
57.9224805335
20
31.3385204666
30
0
10
57.9757106335
20
31.5893507666
30
0
10
58.0388247335
20
31.7953677666
30
0
10
58.0644734335
20
31.7953677666
30
0
0
SPLINE
5
10E
100
AcDbEntity
8
0
6
ByLayer
62
7
370
-1
100
AcDbSpline
210
0
220
0
230
1
70
8
71
3
72
8
73
4
74
0
42
1e-07
43
1e-07
40
0
40
0
40
0
40
0
40
1
40
1
40
1
40
1
10
58.0644734335
20
31.7953677666
30
0
10
58.0901242335
20
31.7953677666
30
0
10
58.1787960335
20
32.0013837166
30
0
10
58.2589421835
20
32.2522150667
30
0
0
SPLINE
5
10F
100
AcDbEntity
8
0
6
ByLayer
62
7
370
-1
100
AcDbSpline
210
0
220
0
230
1
70
8
71
3
72
8
73
4
74
0
42
1e-07
43
1e-07
40
0
40
0
40
0
40
0
40
1
40
1
40
1
40
1
10
58.2589421835
20
32.2522150667
30
0
10
58.3390876335
20
32.5030464167
30
0
10
58.4271213835
20
32.7059753667
30
0
10
58.4564979335
20
32.7059753667
30
0
0
SPLINE
5
110
100
AcDbEntity
8
0
6
ByLayer
62
7
370
-1
100
AcDbSpline
210
0
220
0
230
1
70
8
71
3
72
8
73
4
74
0
42
1e-07
43
1e-07
40
0
40
0
40
0
40
0
40
1
40
1
40
1
40
1
10
58.4564979335
20
32.7059753667
30
0
10
58.4858751835
20
32.7059753667
30
0
10
58.5562437335
20
32.8685566667
30
0
10
58.6108381335
20
33.0671316167
30
0
0
SPLINE
5
111
100
AcDbEntity
8
0
6
ByLayer
62
7
370
-1
100
AcDbSpline
210
0
220
0
230
1
70
8
71
3
72
8
73
4
74
0
42
1e-07
43
1e-07
40
0
40
0
40
0
40
0
40
1
40
1
40
1
40
1
10
58.6108381335
20
33.0671316167
30
0
10
58.6654325335
20
33.2657055167
30
0
10
58.7311730335
20
33.4475140667
30
0
10
58.7590046835
20
33.4684164167
30
0
0
SPLINE
5
112
100
AcDbEntity
8
0
6
ByLayer
62
7
370
-1
100
AcDbSpline
210
0
220
0
230
1
70
8
71
3
72
8
73
4
74
0
42
1e-07
43
1e-07
40
0
40
0
40
0
40
0
40
1
40
1
40
1
40
1
10
58.7590046835
20
33.4684164167
30
0
10
58.7868352835
20
33.4893187667
30
0
10
58.8722947835
20
33.6680392666
30
0
10
58.9472997835
20
33.8666142166
30
0
0
SPLINE
5
113
100
AcDbEntity
8
0
6
ByLayer
62
7
370
-1
100
AcDbSpline
210
0
220
0
230
1
70
8
71
3
72
8
73
4
74
0
42
1e-07
43
1e-07
40
0
40
0
40
0
40
0
40
1
40
1
40
1
40
1
10
58.9472997835
20
33.8666142166
30
0
10
59.0223047835
20
34.0651891667
30
0
10
59.1060870835
20
34.2277704667
30
0
10
59.1355948835
20
34.2277704667
30
0
0
SPLINE
5
114
100
AcDbEntity
8
0
6
ByLayer
62
7
370
-1
100
AcDbSpline
210
0
220
0
230
1
70
8
71
3
72
8
73
4
74
0
42
1e-07
43
1e-07
40
0
40
0
40
0
40
0
40
1
40
1
40
1
40
1
10
59.1355948835
20
34.2277704667
30
0
10
59.1651037335
20
34.2277704667
30
0
10
59.2305747335
20
34.3630566667
30
0
10
59.2806747835
20
34.5302775666
30
0
0
SPLINE
5
115
100
AcDbEntity
8
0
6
ByLayer
62
7
370
-1
100
AcDbSpline
210
0
220
0
230
1
70
8
71
3
72
8
73
4
74
0
42
1e-07
43
1e-07
40
0
40
0
40
0
40
0
40
1
40
1
40
1
40
1
10
59.2806747835
20
34.5302775666
30
0
10
59.3307758835
20
34.6974984667
30
0
10
59.3984931835
20
34.8358713166
30
0
10
59.4319283335
20
34.8358713166
30
0
0
SPLINE
5
116
100
AcDbEntity
8
0
6
ByLayer
62
7
370
-1
100
AcDbSpline
210
0
220
0
230
1
70
8
71
3
72
8
73
4
74
0
42
1e-07
43
1e-07
40
0
40
0
40
0
40
0
40
1
40
1
40
1
40
1
10
59.4319283335
20
34.8358713166
30
0
10
59.4653645335
20
34.8358713166
30
0
10
59.5403408335
20
34.9711571667
30
0
10
59.5955291835
20
35.1383780666
30
0
0
SPLINE
5
117
100
AcDbEntity
8
0
6
ByLayer
62
7
370
-1
100
AcDbSpline
210
0
220
0
230
1
70
8
71
3
72
8
73
4
74
0
42
1e-07
43
1e-07
40
0
40
0
40
0
40
0
40
1
40
1
40
1
40
1
10
59.5955291835
20
35.1383780666
30
0
10
59.6507171835
20
35.3055989667
30
0
10
59.7168398835
20
35.4439718166
30
0
10
59.7436957335
20
35.4439718166
30
0
0
SPLINE
5
118
100
AcDbEntity
8
0
6
ByLayer
62
7
370
-1
100
AcDbSpline
210
0
220
0
230
1
70
8
71
3
72
8
73
4
74
0
42
1e-07
43
1e-07
40
0
40
0
40
0
40
0
40
1
40
1
40
1
40
1
10
59.7436957335
20
35.4439718166
30
0
10
59.7705505335
20
35.4439718166
30
0
10
59.8537392335
20
35.6146234166
30
0
10
59.9289041835
20
35.8236490167
30
0
0
SPLINE
5
119
100
AcDbEntity
8
0
6
ByLayer
62
7
370
-1
100
AcDbSpline
210
0
220
0
230
1
70
8
71
3
72
8
73
4
74
0
42
1e-07
43
1e-07
40
0
40
0
40
0
40
0
40
1
40
1
40
1
40
1
10
59.9289041835
20
35.8236490167
30
0
10
60.0040680835
20
36.0326746166
30
0
10
60.0923842835
20
36.2033262166
30
0
10
60.1233729335
20
36.2033262166
30
0
0
SPLINE
5
11A
100
AcDbEntity
8
0
6
ByLayer
62
7
370
-1
100
AcDbSpline
210
0
220
0
230
1
70
8
71
3
72
8
73
4
74
0
42
1e-07
43
1e-07
40
0
40
0
40
0
40
0
40
1
40
1
40
1
40
1
10
60.1233729335
20
36.2033262166
30
0
10
60.1543622835
20
36.2033262166
30
0
10
60.2183524335
20
36.3416990667
30
0
10
60.2684524835
20
36.5089199666
30
0
0
SPLINE
5
11B
100
AcDbEntity
8
0
6
ByLayer
62
7
370
-1
100
AcDbSpline
210
0
220
0
230
1
70
8
71
3
72
8
73
4
74
0
42
1e-07
43
1e-07
40
0
40
0
40
0
40
0
40
1
40
1
40
1
40
1
10
60.2684524835
20
36.5089199666
30
0
10
60.3185535835
20
36.6761398167
30
0
10
60.3873821335
20
36.8114267166
30
0
10
60.4197060335
20
36.8114267166
30
0
0
SPLINE
5
11C
100
AcDbEntity
8
0
6
ByLayer
62
7
370
-1
100
AcDbSpline
210
0
220
0
230
1
70
8
71
3
72
8
73
4
74
0
42
1e-07
43
1e-07
40
0
40
0
40
0
40
0
40
1
40
1
40
1
40
1
10
60.4197060335
20
36.8114267166
30
0
10
60.4520302835
20
36.8114267166
30
0
10
60.5258960335
20
36.9305744167
30
0
10
60.5833068835
20
37.0768919166
30
0
0
SPLINE
5
11D
100
AcDbEntity
8
0
6
ByLayer
62
7
370
-1
100
AcDbSpline
210
0
220
0
230
1
70
8
71
3
72
8
73
4
74
0
42
1e-07
43
1e-07
40
0
40
0
40
0
40
0
40
1
40
1
40
1
40
1
10
60.5833068835
20
37.0768919166
30
0
10
60.6407173835
20
37.2232104667
30
0
10
60.7086023335
20
37.3423574667
30
0
10
60.7345604335
20
37.3423574667
30
0
0
SPLINE
5
11E
100
AcDbEntity
8
0
6
ByLayer
62
7
370
-1
100
AcDbSpline
210
0
220
0
230
1
70
8
71
3
72
8
73
4
74
0
42
1e-07
43
1e-07
40
0
40
0
40
0
40
0
40
1
40
1
40
1
40
1
10
60.7345604335
20
37.3423574667
30
0
10
60.7892724335
20
37.3423574667
30
0
10
61.0401541835
20
37.8867968166
30
0
10
61.0401541835
20
38.0060204666
30
0
0
SPLINE
5
11F
100
AcDbEntity
8
0
6
ByLayer
62
7
370
-1
100
AcDbSpline
210
0
220
0
230
1
70
8
71
3
72
8
73
4
74
0
42
1e-07
43
1e-07
40
0
40
0
40
0
40
0
40
1
40
1
40
1
40
1
10
61.0401541835
20
38.0060204666
30
0
10
61.0401541835
20
38.0502086667
30
0
10
61.0885710835
20
38.1085151667
30
0
10
61.1512791835
20
38.1325794167
30
0
0
SPLINE
5
120
100
AcDbEntity
8
0
6
ByLayer
62
7
370
-1
100
AcDbSpline
210
0
220
0
230
1
70
8
71
3
72
8
73
4
74
0
42
1e-07
43
1e-07
40
0
40
0
40
0
40
0
40
1
40
1
40
1
40
1
10
61.1512791835
20
38.1325794167
30
0
10
61.2139862335
20
38.1566429666
30
0
10
61.2654908335
20
38.2231233667
30
0
10
61.2654908335
20
38.2807463167
30
0
0
SPLINE
5
121
100
AcDbEntity
8
0
6
ByLayer
62
7
370
-1
100
AcDbSpline
210
0
220
0
230
1
70
8
71
3
72
8
73
4
74
0
42
1e-07
43
1e-07
40
0
40
0
40
0
40
0
40
1
40
1
40
1
40
1
10
61.2654908335
20
38.2807463167
30
0
10
61.2654908335
20
38.3383692666
30
0
10
61.3350816835
20
38.4639296667
30
0
10
61.4198310335
20
38.5616454666
30
0
0
SPLINE
5
122
100
AcDbEntity
8
0
6
ByLayer
62
7
370
-1
100
AcDbSpline
210
0
220
0
230
1
70
8
71
3
72
8
73
4
74
0
42
1e-07
43
1e-07
40
0
40
0
40
0
40
0
40
1
40
1
40
1
40
1
10
61.4198310335
20
38.5616454666
30
0
10
61.5045793335
20
38.6593623166
30
0
10
61.5973594335
20
38.8278932667
30
0
10
61.6235604335
20
38.9351490167
30
0
0
SPLINE
5
123
100
AcDbEntity
8
0
6
ByLayer
62
7
370
-1
100
AcDbSpline
210
0
220
0
230
1
70
8
71
3
72
8
73
4
74
0
42
1e-07
43
1e-07
40
0
40
0
40
0
40
0
40
1
40
1
40
1
40
1
10
61.6235604335
20
38.9351490167
30
0
10
61.6497610835
20
39.0424030166
30
0
10
61.7073871835
20
39.1552762666
30
0
10
61.7532060335
20
39.1851802667
30
0
0
SPLINE
5
124
100
AcDbEntity
8
0
6
ByLayer
62
7
370
-1
100
AcDbSpline
210
0
220
0
230
1
70
8
71
3
72
8
73
4
74
0
42
1e-07
43
1e-07
40
0
40
0
40
0
40
0
40
1
40
1
40
1
40
1
10
61.7532060335
20
39.1851802667
30
0
10
61.8618624835
20
39.2560958666
30
0
10
61.8646719335
20
40.4458820167
30
0
10
61.7562930335
20
40.5186802667
30
0
0
SPLINE
5
125
100
AcDbEntity
8
0
6
ByLayer
62
7
370
-1
100
AcDbSpline
210
0
220
0
230
1
70
8
71
3
72
8
73
4
74
0
42
1e-07
43
1e-07
40
0
40
0
40
0
40
0
40
1
40
1
40
1
40
1
10
61.7562930335
20
40.5186802667
30
0
10
61.7119032335
20
40.5484964167
30
0
10
61.6330153335
20
40.7721884167
30
0
10
61.5803448835
20
41.0125691166
30
0
0
SPLINE
5
126
100
AcDbEntity
8
0
6
ByLayer
62
7
370
-1
100
AcDbSpline
210
0
220
0
230
1
70
8
71
3
72
8
73
4
74
0
42
1e-07
43
1e-07
40
0
40
0
40
0
40
0
40
1
40
1
40
1
40
1
10
61.5803448835
20
41.0125691166
30
0
10
61.5276758335
20
41.2529487667
30
0
10
61.4553959335
20
41.4478088167
30
0
10
61.4198310335
20
41.4478088167
30
0
0
SPLINE
5
127
100
AcDbEntity
8
0
6
ByLayer
62
7
370
-1
100
AcDbSpline
210
0
220
0
230
1
70
8
71
3
72
8
73
4
74
0
42
1e-07
43
1e-07
40
0
40
0
40
0
40
0
40
1
40
1
40
1
40
1
10
61.4198310335
20
41.4478088167
30
0
10
61.3842650835
20
41.4478088167
30
0
10
61.3137803335
20
41.5669554667
30
0
10
61.2654908335
20
41.7132740166
30
0
0
SPLINE
5
128
100
AcDbEntity
8
0
6
ByLayer
62
7
370
-1
100
AcDbSpline
210
0
220
0
230
1
70
8
71
3
72
8
73
4
74
0
42
1e-07
43
1e-07
40
0
40
0
40
0
40
0
40
1
40
1
40
1
40
1
10
61.2654908335
20
41.7132740166
30
0
10
61.2172013335
20
41.8595915166
30
0
10
61.1494791335
20
41.9787392166
30
0
10
61.1142372835
20
41.9787392166
30
0
0
SPLINE
5
129
100
AcDbEntity
8
0
6
ByLayer
62
7
370
-1
100
AcDbSpline
210
0
220
0
230
1
70
8
71
3
72
8
73
4
74
0
42
1e-07
43
1e-07
40
0
40
0
40
0
40
0
40
1
40
1
40
1
40
1
10
61.1142372835
20
41.9787392166
30
0
10
61.0789964835
20
41.9787392166
30
0
10
61.0275597835
20
42.0817991667
30
0
10
61.0000256335
20
42.2071628667
30
0
0
SPLINE
5
12A
100
AcDbEntity
8
0
6
ByLayer
62
7
370
-1
100
AcDbSpline
210
0
220
0
230
1
70
8
71
3
72
8
73
4
74
0
42
1e-07
43
1e-07
40
0
40
0
40
0
40
0
40
1
40
1
40
1
40
1
10
61.0000256335
20
42.2071628667
30
0
10
60.9724911335
20
42.3325258667
30
0
10
60.8929424335
20
42.4789686666
30
0
10
60.8209908335
20
42.5312775666
30
0
0
SPLINE
5
12B
100
AcDbEntity
8
0
6
ByLayer
62
7
370
-1
100
AcDbSpline
210
0
220
0
230
1
70
8
71
3
72
8
73
4
74
0
42
1e-07
43
1e-07
40
0
40
0
40
0
40
0
40
1
40
1
40
1
40
1
10
60.8209908335
20
42.5312775666
30
0
10
60.7490392335
20
42.5835854167
30
0
10
60.6434624335
20
42.7348764167
30
0
10
60.5894805335
20
42.8677392167
30
0
0
SPLINE
5
12C
100
AcDbEntity
8
0
6
ByLayer
62
7
370
-1
100
AcDbSpline
210
0
220
0
230
1
70
8
71
3
72
8
73
4
74
0
42
1e-07
43
1e-07
40
0
40
0
40
0
40
0
40
1
40
1
40
1
40
1
10
60.5894805335
20
42.8677392167
30
0
10
60.5354993335
20
43.0006023666
30
0
10
60.4446316335
20
43.1291311167
30
0
10
60.3857511335
20
43.1517253666
30
0
0
SPLINE
5
12D
100
AcDbEntity
8
0
6
ByLayer
62
7
370
-1
100
AcDbSpline
210
0
220
0
230
1
70
8
71
3
72
8
73
4
74
0
42
1e-07
43
1e-07
40
0
40
0
40
0
40
0
40
1
40
1
40
1
40
1
10
60.3857511335
20
43.1517253666
30
0
10
60.3268706335
20
43.1743199667
30
0
10
60.2777131335
20
43.2435167166
30
0
10
60.2777131335
20
43.3060655666
30
0
0
SPLINE
5
12E
100
AcDbEntity
8
0
6
ByLayer
62
7
370
-1
100
AcDbSpline
210
0
220
0
230
1
70
8
71
3
72
8
73
4
74
0
42
1e-07
43
1e-07
40
0
40
0
40
0
40
0
40
1
40
1
40
1
40
1
10
60.2777131335
20
43.3060655666
30
0
10
60.2777131335
20
43.3686147666
30
0
10
60.2100700335
20
43.4557882166
30
0
10
60.1264595835
20
43.5005343166
30
0
0
SPLINE
5
12F
100
AcDbEntity
8
0
6
ByLayer
62
7
370
-1
100
AcDbSpline
210
0
220
0
230
1
70
8
71
3
72
8
73
4
74
0
42
1e-07
43
1e-07
40
0
40
0
40
0
40
0
40
1
40
1
40
1
40
1
10
60.1264595835
20
43.5005343166
30
0
10
60.0428491335
20
43.5452818166
30
0
10
59.9728106335
20
43.6226097667
30
0
10
59.9721193835
20
43.6733954666
30
0
0
SPLINE
5
130
100
AcDbEntity
8
0
6
ByLayer
62
7
370
-1
100
AcDbSpline
210
0
220
0
230
1
70
8
71
3
72
8
73
4
74
0
42
1e-07
43
1e-07
40
0
40
0
40
0
40
0
40
1
40
1
40
1
40
1
10
59.9721193835
20
43.6733954666
30
0
10
59.9714704835
20
43.7241811666
30
0
10
59.8008188835
20
43.9337314166
30
0
10
59.5924421835
20
44.1364164167
30
0
0
SPLINE
5
131
100
AcDbEntity
8
0
6
ByLayer
62
7
370
-1
100
AcDbSpline
210
0
220
0
230
1
70
8
71
3
72
8
73
4
74
0
42
1e-07
43
1e-07
40
0
40
0
40
0
40
0
40
1
40
1
40
1
40
1
10
59.5924421835
20
44.1364164167
30
0
10
59.3840644335
20
44.3391024666
30
0
10
59.2158519835
20
44.5387865667
30
0
10
59.2158519835
20
44.5809164166
30
0
0
SPLINE
5
132
100
AcDbEntity
8
0
6
ByLayer
62
7
370
-1
100
AcDbSpline
210
0
220
0
230
1
70
8
71
3
72
8
73
4
74
0
42
1e-07
43
1e-07
40
0
40
0
40
0
40
0
40
1
40
1
40
1
40
1
10
59.2158519835
20
44.5809164166
30
0
10
59.2158519835
20
44.6230452166
30
0
10
59.1289826835
20
44.7240433166
30
0
10
59.0244698835
20
44.8062530667
30
0
0
SPLINE
5
133
100
AcDbEntity
8
0
6
ByLayer
62
7
370
-1
100
AcDbSpline
210
0
220
0
230
1
70
8
71
3
72
8
73
4
74
0
42
1e-07
43
1e-07
40
0
40
0
40
0
40
0
40
1
40
1
40
1
40
1
10
59.0244698835
20
44.8062530667
30
0
10
58.9199560335
20
44.8884638666
30
0
10
58.8330881335
20
44.9865394667
30
0
10
58.8330881335
20
45.0254164167
30
0
0
SPLINE
5
134
100
AcDbEntity
8
0
6
ByLayer
62
7
370
-1
100
AcDbSpline
210
0
220
0
230
1
70
8
71
3
72
8
73
4
74
0
42
1e-07
43
1e-07
40
0
40
0
40
0
40
0
40
1
40
1
40
1
40
1
10
58.8330881335
20
45.0254164167
30
0
10
58.8330881335
20
45.0642923166
30
0
10
58.6109329835
20
45.3203134666
30
0
10
58.3391992835
20
45.5933887166
30
0
0
SPLINE
5
135
100
AcDbEntity
8
0
6
ByLayer
62
7
370
-1
100
AcDbSpline
210
0
220
0
230
1
70
8
71
3
72
8
73
4
74
0
42
1e-07
43
1e-07
40
0
40
0
40
0
40
0
40
1
40
1
40
1
40
1
10
58.3391992835
20
45.5933887166
30
0
10
58.0674655835
20
45.8664625667
30
0
10
57.8453104335
20
46.1331282666
30
0
10
57.8453104335
20
46.1860552667
30
0
0
SPLINE
5
136
100
AcDbEntity
8
0
6
ByLayer
62
7
370
-1
100
AcDbSpline
210
0
220
0
230
1
70
8
71
3
72
8
73
4
74
0
42
1e-07
43
1e-07
40
0
40
0
40
0
40
0
40
1
40
1
40
1
40
1
10
57.8453104335
20
46.1860552667
30
0
10
57.8453104335
20
46.3238285667
30
0
10
58.0246483335
20
46.6915998166
30
0
10
58.0922546835
20
46.6922914167
30
0
0
SPLINE
5
137
100
AcDbEntity
8
0
6
ByLayer
62
7
370
-1
100
AcDbSpline
210
0
220
0
230
1
70
8
71
3
72
8
73
4
74
0
42
1e-07
43
1e-07
40
0
40
0
40
0
40
0
40
1
40
1
40
1
40
1
10
58.0922546835
20
46.6922914167
30
0
10
58.1236087335
20
46.6926172666
30
0
10
58.1509041835
20
46.8426153667
30
0
10
58.1509041835
20
47.0256664166
30
0
0
SPLINE
5
138
100
AcDbEntity
8
0
6
ByLayer
62
7
370
-1
100
AcDbSpline
210
0
220
0
230
1
70
8
71
3
72
8
73
4
74
0
42
1e-07
43
1e-07
40
0
40
0
40
0
40
0
40
1
40
1
40
1
40
1
10
58.1509041835
20
47.0256664166
30
0
10
58.1509041835
20
47.3299879166
30
0
10
58.1298366335
20
47.3664565166
30
0
10
57.9039595835
20
47.4578191167
30
0
0
SPLINE
5
139
100
AcDbEntity
8
0
6
ByLayer
62
7
370
-1
100
AcDbSpline
210
0
220
0
230
1
70
8
71
3
72
8
73
4
74
0
42
1e-07
43
1e-07
40
0
40
0
40
0
40
0
40
1
40
1
40
1
40
1
10
57.9039595835
20
47.4578191167
30
0
10
57.7680927335
20
47.5127733166
30
0
10
57.6377891335
20
47.5763130166
30
0
10
57.6168867835
20
47.5998123666
30
0
0
SPLINE
5
13A
100
AcDbEntity
8
0
6
ByLayer
62
7
370
-1
100
AcDbSpline
210
0
220
0
230
1
70
8
71
3
72
8
73
4
74
0
42
1e-07
43
1e-07
40
0
40
0
40
0
40
0
40
1
40
1
40
1
40
1
10
57.6168867835
20
47.5998123666
30
0
10
57.5959833835
20
47.6233113667
30
0
10
57.4445590335
20
47.6910612166
30
0
10
57.2773381335
20
47.7479789166
30
0
0
SPLINE
5
13B
100
AcDbEntity
8
0
6
ByLayer
62
7
370
-1
100
AcDbSpline
210
0
220
0
230
1
70
8
71
3
72
8
73
4
74
0
42
1e-07
43
1e-07
40
0
40
0
40
0
40
0
40
1
40
1
40
1
40
1
10
57.2773381335
20
47.7479789166
30
0
10
56.9668114835
20
47.8536729667
30
0
10
56.6291087335
20
48.1576339667
30
0
10
56.6291087335
20
48.3344718167
30
0
0
SPLINE
5
13C
100
AcDbEntity
8
0
6
ByLayer
62
7
370
-1
100
AcDbSpline
210
0
220
0
230
1
70
8
71
3
72
8
73
4
74
0
42
1e-07
43
1e-07
40
0
40
0
40
0
40
0
40
1
40
1
40
1
40
1
10
56.6291087335
20
48.3344718167
30
0
10
56.6291087335
20
48.3885993167
30
0
10
56.5851112835
20
48.4615543666
30
0
10
56.5303310335
20
48.4949856667
30
0
0
SPLINE
5
13D
100
AcDbEntity
8
0
6
ByLayer
62
7
370
-1
100
AcDbSpline
210
0
220
0
230
1
70
8
71
3
72
8
73
4
74
0
42
1e-07
43
1e-07
40
0
40
0
40
0
40
0
40
1
40
1
40
1
40
1
10
56.5303310335
20
48.4949856667
30
0
10
56.3323122335
20
48.6158343666
30
0
10
56.1753484335
20
48.9360738666
30
0
10
56.1753484335
20
49.2172981666
30
0
0
SPLINE
5
13E
100
AcDbEntity
8
0
6
ByLayer
62
7
370
-1
100
AcDbSpline
210
0
220
0
230
1
70
8
71
3
72
8
73
4
74
0
42
1e-07
43
1e-07
40
0
40
0
40
0
40
0
40
1
40
1
40
1
40
1
10
56.1753484335
20
49.2172981666
30
0
10
56.1753484335
20
49.3752174666
30
0
10
56.1399830335
20
49.5043713167
30
0
10
56.0981783335
20
49.5043713167
30
0
0
SPLINE
5
13F
100
AcDbEntity
8
0
6
ByLayer
62
7
370
-1
100
AcDbSpline
210
0
220
0
230
1
70
8
71
3
72
8
73
4
74
0
42
1e-07
43
1e-07
40
0
40
0
40
0
40
0
40
1
40
1
40
1
40
1
10
56.0981783335
20
49.5043713167
30
0
10
56.0563725835
20
49.5043713167
30
0
10
56.0210082335
20
49.6111629666
30
0
10
56.0210082335
20
49.7389686166
30
0
0
SPLINE
5
140
100
AcDbEntity
8
0
6
ByLayer
62
7
370
-1
100
AcDbSpline
210
0
220
0
230
1
70
8
71
3
72
8
73
4
74
0
42
1e-07
43
1e-07
40
0
40
0
40
0
40
0
40
1
40
1
40
1
40
1
10
56.0210082335
20
49.7389686166
30
0
10
56.0210082335
20
50.0495218665
30
0
10
55.8695513335
20
50.6464892165
30
0
10
55.7894979335
20
50.6464892165
30
0
0
SPLINE
5
141
100
AcDbEntity
8
0
6
ByLayer
62
7
370
-1
100
AcDbSpline
210
0
220
0
230
1
70
8
71
3
72
8
73
4
74
0
42
1e-07
43
1e-07
40
0
40
0
40
0
40
0
40
1
40
1
40
1
40
1
10
55.7894979335
20
50.6464892165
30
0
10
55.7543337835
20
50.6464892165
30
0
10
55.6812985835
20
50.7867331665
30
0
10
55.6289837335
20
50.9613436165
30
0
0
SPLINE
5
142
100
AcDbEntity
8
0
6
ByLayer
62
7
370
-1
100
AcDbSpline
210
0
220
0
230
1
70
8
71
3
72
8
73
4
74
0
42
1e-07
43
1e-07
40
0
40
0
40
0
40
0
40
1
40
1
40
1
40
1
10
55.6289837335
20
50.9613436165
30
0
10
55.5594068835
20
51.1935728165
30
0
10
55.3813944335
20
51.4282404665
30
0
10
54.9622337335
20
51.8318226665
30
0
0
SPLINE
5
143
100
AcDbEntity
8
0
6
ByLayer
62
7
370
-1
100
AcDbSpline
210
0
220
0
230
1
70
8
71
3
72
8
73
4
74
0
42
1e-07
43
1e-07
40
0
40
0
40
0
40
0
40
1
40
1
40
1
40
1
10
54.9622337335
20
51.8318226665
30
0
10
54.1708175835
20
52.5938279665
30
0
10
54.1985582335
20
52.5721374165
30
0
10
53.7769006335
20
52.7331699665
30
0
0
SPLINE
5
144
100
AcDbEntity
8
0
6
ByLayer
62
7
370
-1
100
AcDbSpline
210
0
220
0
230
1
70
8
71
3
72
8
73
4
74
0
42
1e-07
43
1e-07
40
0
40
0
40
0
40
0
40
1
40
1
40
1
40
1
10
53.7769006335
20
52.7331699665
30
0
10
53.5691630335
20
52.8125051665
30
0
10
53.3551590335
20
52.9203142665
30
0
10
53.3015323835
20
52.9739405665
30
0
0
SPLINE
5
145
100
AcDbEntity
8
0
6
ByLayer
62
7
370
-1
100
AcDbSpline
210
0
220
0
230
1
70
8
71
3
72
8
73
4
74
0
42
1e-07
43
1e-07
40
0
40
0
40
0
40
0
40
1
40
1
40
1
40
1
10
53.3015323835
20
52.9739405665
30
0
10
53.2479060835
20
53.0275672165
30
0
10
53.0853503335
20
53.0949100165
30
0
10
52.9403761335
20
53.1221074665
30
0
0
SPLINE
5
146
100
AcDbEntity
8
0
6
ByLayer
62
7
370
-1
100
AcDbSpline
210
0
220
0
230
1
70
8
71
3
72
8
73
4
74
0
42
1e-07
43
1e-07
40
0
40
0
40
0
40
0
40
1
40
1
40
1
40
1
10
52.9403761335
20
53.1221074665
30
0
10
52.7954019335
20
53.1493038665
30
0
10
52.6779979335
20
53.1975300165
30
0
10
52.6779979335
20
53.2301454665
30
0
0
SPLINE
5
147
100
AcDbEntity
8
0
6
ByLayer
62
7
370
-1
100
AcDbSpline
210
0
220
0
230
1
70
8
71
3
72
8
73
4
74
0
42
1e-07
43
1e-07
40
0
40
0
40
0
40
0
40
1
40
1
40
1
40
1
10
52.6779979335
20
53.2301454665
30
0
10
52.6779979335
20
53.2627609165
30
0
10
52.4558424335
20
53.3335610165
30
0
10
52.1841087335
20
53.3875726665
30
0
0
SPLINE
5
148
100
AcDbEntity
8
0
6
ByLayer
62
7
370
-1
100
AcDbSpline
210
0
220
0
230
1
70
8
71
3
72
8
73
4
74
0
42
1e-07
43
1e-07
40
0
40
0
40
0
40
0
40
1
40
1
40
1
40
1
10
52.1841087335
20
53.3875726665
30
0
10
51.9123750335
20
53.4415843165
30
0
10
51.6902198835
20
53.5069149665
30
0
10
51.6902198835
20
53.5326525665
30
0
0
SPLINE
5
149
100
AcDbEntity
8
0
6
ByLayer
62
7
370
-1
100
AcDbSpline
210
0
220
0
230
1
70
8
71
3
72
8
73
4
74
0
42
1e-07
43
1e-07
40
0
40
0
40
0
40
0
40
1
40
1
40
1
40
1
10
51.6902198835
20
53.5326525665
30
0
10
51.6902198835
20
53.5583901665
30
0
10
51.5599162835
20
53.6245811165
30
0
10
51.4031470835
20
53.6808191165
30
0
0
SPLINE
5
14A
100
AcDbEntity
8
0
6
ByLayer
62
7
370
-1
100
AcDbSpline
210
0
220
0
230
1
70
8
71
3
72
8
73
4
74
0
42
1e-07
43
1e-07
40
0
40
0
40
0
40
0
40
1
40
1
40
1
40
1
10
51.4031470835
20
53.6808191165
30
0
10
51.1198308335
20
53.7824535165
30
0
10
50.7765256335
20
54.0801946665
30
0
10
50.7765256335
20
54.2240968165
30
0
0
SPLINE
5
14B
100
AcDbEntity
8
0
6
ByLayer
62
7
370
-1
100
AcDbSpline
210
0
220
0
230
1
70
8
71
3
72
8
73
4
74
0
42
1e-07
43
1e-07
40
0
40
0
40
0
40
0
40
1
40
1
40
1
40
1
10
50.7765256335
20
54.2240968165
30
0
10
50.7765256335
20
54.2654955165
30
0
10
50.8499304335
20
54.3756408665
30
0
10
50.9370394835
20
54.4679544165
30
0
0
SPLINE
5
14C
100
AcDbEntity
8
0
6
ByLayer
62
7
370
-1
100
AcDbSpline
210
0
220
0
230
1
70
8
71
3
72
8
73
4
74
0
42
1e-07
43
1e-07
40
0
40
0
40
0
40
0
40
1
40
1
40
1
40
1
10
50.9370394835
20
54.4679544165
30
0
10
51.0613206335
20
54.5996580165
30
0
10
51.0851962335
20
54.7006690665
30
0
10
51.0543381335
20
54.9371490165
30
0
0
SPLINE
5
14D
100
AcDbEntity
8
0
6
ByLayer
62
7
370
-1
100
AcDbSpline
210
0
220
0
230
1
70
8
71
3
72
8
73
4
74
0
42
1e-07
43
1e-07
40
0
40
0
40
0
40
0
40
1
40
1
40
1
40
1
10
51.0543381335
20
54.9371490165
30
0
10
51.0327088335
20
55.1029041165
30
0
10
50.9623917335
20
55.2782058165
30
0
10
50.8969109335
20
55.3260865165
30
0
0
SPLINE
5
14E
100
AcDbEntity
8
0
6
ByLayer
62
7
370
-1
100
AcDbSpline
210
0
220
0
230
1
70
8
71
3
72
8
73
4
74
0
42
1e-07
43
1e-07
40
0
40
0
40
0
40
0
40
1
40
1
40
1
40
1
10
50.8969109335
20
55.3260865165
30
0
10
50.8314301335
20
55.3739672165
30
0
10
50.7765256335
20
55.4516171665
30
0
10
50.7765256335
20
55.4989476665
30
0
0
SPLINE
5
14F
100
AcDbEntity
8
0
6
ByLayer
62
7
370
-1
100
AcDbSpline
210
0
220
0
230
1
70
8
71
3
72
8
73
4
74
0
42
1e-07
43
1e-07
40
0
40
0
40
0
40
0
40
1
40
1
40
1
40
1
10
50.7765256335
20
55.4989476665
30
0
10
50.7765256335
20
55.6444797665
30
0
10
51.0994062335
20
55.9650552665
30
0
10
51.2457198835
20
55.9650552665
30
0
0
SPLINE
5
150
100
AcDbEntity
8
0
6
ByLayer
62
7
370
-1
100
AcDbSpline
210
0
220
0
230
1
70
8
71
3
72
8
73
4
74
0
42
1e-07
43
1e-07
40
0
40
0
40
0
40
0
40
1
40
1
40
1
40
1
10
51.2457198835
20
55.9650552665
30
0
10
51.3217906335
20
55.9650552665
30
0
10
51.3846261335
20
56.0004196165
30
0
10
51.3846261335
20
56.0422253665
30
0
0
SPLINE
5
151
100
AcDbEntity
8
0
6
ByLayer
62
7
370
-1
100
AcDbSpline
210
0
220
0
230
1
70
8
71
3
72
8
73
4
74
0
42
1e-07
43
1e-07
40
0
40
0
40
0
40
0
40
1
40
1
40
1
40
1
10
51.3846261335
20
56.0422253665
30
0
10
51.3846261335
20
56.0840300665
30
0
10
51.4714954335
20
56.1193954665
30
0
10
51.5760082335
20
56.1193954665
30
0
0
SPLINE
5
152
100
AcDbEntity
8
0
6
ByLayer
62
7
370
-1
100
AcDbSpline
210
0
220
0
230
1
70
8
71
3
72
8
73
4
74
0
42
1e-07
43
1e-07
40
0
40
0
40
0
40
0
40
1
40
1
40
1
40
1
10
51.5760082335
20
56.1193954665
30
0
10
51.6805210335
20
56.1193954665
30
0
10
51.7643033335
20
56.0840300665
30
0
10
51.7643033335
20
56.0422253665
30
0
0
SPLINE
5
153
100
AcDbEntity
8
0
6
ByLayer
62
7
370
-1
100
AcDbSpline
210
0
220
0
230
1
70
8
71
3
72
8
73
4
74
0
42
1e-07
43
1e-07
40
0
40
0
40
0
40
0
40
1
40
1
40
1
40
1
10
51.7643033335
20
56.0422253665
30
0
10
51.7643033335
20
56.0004196165
30
0
10
51.8201916835
20
55.9650552665
30
0
10
51.8877756335
20
55.9650552665
30
0
0
SPLINE
5
154
100
AcDbEntity
8
0
6
ByLayer
62
7
370
-1
100
AcDbSpline
210
0
220
0
230
1
70
8
71
3
72
8
73
4
74
0
42
1e-07
43
1e-07
40
0
40
0
40
0
40
0
40
1
40
1
40
1
40
1
10
51.8877756335
20
55.9650552665
30
0
10
51.9732323335
20
55.9650552665
30
0
10
51.9987662335
20
55.9195244665
30
0
10
51.9711193835
20
55.8138017165
30
0
0
SPLINE
5
155
100
AcDbEntity
8
0
6
ByLayer
62
7
370
-1
100
AcDbSpline
210
0
220
0
230
1
70
8
71
3
72
8
73
4
74
0
42
1e-07
43
1e-07
40
0
40
0
40
0
40
0
40
1
40
1
40
1
40
1
10
51.9711193835
20
55.8138017165
30
0
10
51.9416322335
20
55.7010418665
30
0
10
51.9685895835
20
55.6625481665
30
0
10
52.0760707335
20
55.6625481665
30
0
0
SPLINE
5
156
100
AcDbEntity
8
0
6
ByLayer
62
7
370
-1
100
AcDbSpline
210
0
220
0
230
1
70
8
71
3
72
8
73
4
74
0
42
1e-07
43
1e-07
40
0
40
0
40
0
40
0
40
1
40
1
40
1
40
1
10
52.0760707335
20
55.6625481665
30
0
10
52.1557674835
20
55.6625481665
30
0
10
52.2234469835
20
55.6867576665
30
0
10
52.2242372835
20
55.7181106665
30
0
0
SPLINE
5
157
100
AcDbEntity
8
0
6
ByLayer
62
7
370
-1
100
AcDbSpline
210
0
220
0
230
1
70
8
71
3
72
8
73
4
74
0
42
1e-07
43
1e-07
40
0
40
0
40
0
40
0
40
1
40
1
40
1
40
1
10
52.2242372835
20
55.7181106665
30
0
10
52.2250394835
20
55.7494647165
30
0
10
52.3441871835
20
55.9125024165
30
0
10
52.4897024835
20
56.0792669165
30
0
0
SPLINE
5
158
100
AcDbEntity
8
0
6
ByLayer
62
7
370
-1
100
AcDbSpline
210
0
220
0
230
1
70
8
71
3
72
8
73
4
74
0
42
1e-07
43
1e-07
40
0
40
0
40
0
40
0
40
1
40
1
40
1
40
1
10
52.4897024835
20
56.0792669165
30
0
10
52.6352191835
20
56.2460307165
30
0
10
52.7551680335
20
56.4086120165
30
0
10
52.7551680335
20
56.4404231665
30
0
0
SPLINE
5
159
100
AcDbEntity
8
0
6
ByLayer
62
7
370
-1
100
AcDbSpline
210
0
220
0
230
1
70
8
71
3
72
8
73
4
74
0
42
1e-07
43
1e-07
40
0
40
0
40
0
40
0
40
1
40
1
40
1
40
1
10
52.7551680335
20
56.4404231665
30
0
10
52.7551680335
20
56.5369125665
30
0
10
52.9088453335
20
56.5059088665
30
0
10
53.0298935335
20
56.3848606665
30
0
0
SPLINE
5
15A
100
AcDbEntity
8
0
6
ByLayer
62
7
370
-1
100
AcDbSpline
210
0
220
0
230
1
70
8
71
3
72
8
73
4
74
0
42
1e-07
43
1e-07
40
0
40
0
40
0
40
0
40
1
40
1
40
1
40
1
10
53.0298935335
20
56.3848606665
30
0
10
53.0926016335
20
56.3221536165
30
0
10
53.1086393335
20
56.2706490165
30
0
10
53.0638484335
20
56.2706490165
30
0
0
SPLINE
5
15B
100
AcDbEntity
8
0
6
ByLayer
62
7
370
-1
100
AcDbSpline
210
0
220
0
230
1
70
8
71
3
72
8
73
4
74
0
42
1e-07
43
1e-07
40
0
40
0
40
0
40
0
40
1
40
1
40
1
40
1
10
53.0638484335
20
56.2706490165
30
0
10
53.0190568335
20
56.2706490165
30
0
10
52.9805046835
20
56.1370627665
30
0
10
52.9805046835
20
55.9743155665
30
0
0
SPLINE
5
15C
100
AcDbEntity
8
0
6
ByLayer
62
7
370
-1
100
AcDbSpline
210
0
220
0
230
1
70
8
71
3
72
8
73
4
74
0
42
1e-07
43
1e-07
40
0
40
0
40
0
40
0
40
1
40
1
40
1
40
1
10
52.9805046835
20
55.9743155665
30
0
10
52.9805046835
20
55.5420956665
30
0
10
53.1625274335
20
55.5081103165
30
0
10
53.5052617835
20
55.8786248665
30
0
0
SPLINE
5
15D
100
AcDbEntity
8
0
6
ByLayer
62
7
370
-1
100
AcDbSpline
210
0
220
0
230
1
70
8
71
3
72
8
73
4
74
0
42
1e-07
43
1e-07
40
0
40
0
40
0
40
0
40
1
40
1
40
1
40
1
10
53.5052617835
20
55.8786248665
30
0
10
53.6703686835
20
56.0571122665
30
0
10
53.8979239835
20
56.2092201665
30
0
10
54.0763207335
20
56.2583017165
30
0
0
SPLINE
5
15E
100
AcDbEntity
8
0
6
ByLayer
62
7
370
-1
100
AcDbSpline
210
0
220
0
230
1
70
8
71
3
72
8
73
4
74
0
42
1e-07
43
1e-07
40
0
40
0
40
0
40
0
40
1
40
1
40
1
40
1
10
54.0763207335
20
56.2583017165
30
0
10
54.4212478335
20
56.3532007165
30
0
10
54.5022997835
20
56.3241402165
30
0
10
54.5022997835
20
56.0977878665
30
0
0
SPLINE
5
15F
100
AcDbEntity
8
0
6
ByLayer
62
7
370
-1
100
AcDbSpline
210
0
220
0
230
1
70
8
71
3
72
8
73
4
74
0
42
1e-07
43
1e-07
40
0
40
0
40
0
40
0
40
1
40
1
40
1
40
1
10
54.5022997835
20
56.0977878665
30
0
10
54.5022997835
20
55.9383299665
30
0
10
54.5055428835
20
55.9371623665
30
0
10
54.6319457335
20
56.1193954665
30
0
0
SPLINE
5
160
100
AcDbEntity
8
0
6
ByLayer
62
7
370
-1
100
AcDbSpline
210
0
220
0
230
1
70
8
71
3
72
8
73
4
74
0
42
1e-07
43
1e-07
40
0
40
0
40
0
40
0
40
1
40
1
40
1
40
1
10
54.6319457335
20
56.1193954665
30
0
10
54.7036425335
20
56.2227595665
30
0
10
54.8227891835
20
56.3748149665
30
0
10
54.8974109335
20
56.4558574665
30
0
0
SPLINE
5
161
100
AcDbEntity
8
0
6
ByLayer
62
7
370
-1
100
AcDbSpline
210
0
220
0
230
1
70
8
71
3
72
8
73
4
74
0
42
1e-07
43
1e-07
40
0
40
0
40
0
40
0
40
1
40
1
40
1
40
1
10
54.8974109335
20
56.4558574665
30
0
10
54.9720316335
20
56.5368985665
30
0
10
55.0332305335
20
56.6395119165
30
0
10
55.0332305335
20
56.6842811165
30
0
0
SPLINE
5
162
100
AcDbEntity
8
0
6
ByLayer
62
7
370
-1
100
AcDbSpline
210
0
220
0
230
1
70
8
71
3
72
8
73
4
74
0
42
1e-07
43
1e-07
40
0
40
0
40
0
40
0
40
1
40
1
40
1
40
1
10
55.0332305335
20
56.6842811165
30
0
10
55.0332305335
20
56.7290499665
30
0
10
55.1037716335
20
56.8090550665
30
0
10
55.1906573835
20
56.8633155665
30
0
0
SPLINE
5
163
100
AcDbEntity
8
0
6
ByLayer
62
7
370
-1
100
AcDbSpline
210
0
220
0
230
1
70
8
71
3
72
8
73
4
74
0
42
1e-07
43
1e-07
40
0
40
0
40
0
40
0
40
1
40
1
40
1
40
1
10
55.1906573835
20
56.8633155665
30
0
10
55.3130411835
20
56.9397499665
30
0
10
55.3750706335
20
56.9424061165
30
0
10
55.4592095835
20
56.8725762165
30
0
0
SPLINE
5
164
100
AcDbEntity
8
0
6
ByLayer
62
7
370
-1
100
AcDbSpline
210
0
220
0
230
1
70
8
71
3
72
8
73
4
74
0
42
1e-07
43
1e-07
40
0
40
0
40
0
40
0
40
1
40
1
40
1
40
1
10
55.4592095835
20
56.8725762165
30
0
10
55.5478845335
20
56.7989827665
30
0
10
55.5815587335
20
56.8253958665
30
0
10
55.6475046835
20
57.0145691165
30
0
0
SPLINE
5
165
100
AcDbEntity
8
0
6
ByLayer
62
7
370
-1
100
AcDbSpline
210
0
220
0
230
1
70
8
71
3
72
8
73
4
74
0
42
1e-07
43
1e-07
40
0
40
0
40
0
40
0
40
1
40
1
40
1
40
1
10
55.6475046835
20
57.0145691165
30
0
10
55.6919291335
20
57.1420023665
30
0
10
55.7760134835
20
57.2632658165
30
0
10
55.8357997835
20
57.2862079665
30
0
0
SPLINE
5
166
100
AcDbEntity
8
0
6
ByLayer
62
7
370
-1
100
AcDbSpline
210
0
220
0
230
1
70
8
71
3
72
8
73
4
74
0
42
1e-07
43
1e-07
40
0
40
0
40
0
40
0
40
1
40
1
40
1
40
1
10
55.8357997835
20
57.2862079665
30
0
10
55.8955860835
20
57.3091501165
30
0
10
55.9469247835
20
57.3956536665
30
0
10
55.9469247835
20
57.4775900665
30
0
0
SPLINE
5
167
100
AcDbEntity
8
0
6
ByLayer
62
7
370
-1
100
AcDbSpline
210
0
220
0
230
1
70
8
71
3
72
8
73
4
74
0
42
1e-07
43
1e-07
40
0
40
0
40
0
40
0
40
1
40
1
40
1
40
1
10
55.9469247835
20
57.4775900665
30
0
10
55.9469247835
20
57.5595261165
30
0
10
55.9967689835
20
57.6786888665
30
0
10
56.0580497835
20
57.7399686165
30
0
0
SPLINE
5
168
100
AcDbEntity
8
0
6
ByLayer
62
7
370
-1
100
AcDbSpline
210
0
220
0
230
1
70
8
71
3
72
8
73
4
74
0
42
1e-07
43
1e-07
40
0
40
0
40
0
40
0
40
1
40
1
40
1
40
1
10
56.0580497835
20
57.7399686165
30
0
10
56.1193295335
20
57.8012490665
30
0
10
56.2271130835
20
57.9992955165
30
0
10
56.2988207335
20
58.1813816165
30
0
0
SPLINE
5
169
100
AcDbEntity
8
0
6
ByLayer
62
7
370
-1
100
AcDbSpline
210
0
220
0
230
1
70
8
71
3
72
8
73
4
74
0
42
1e-07
43
1e-07
40
0
40
0
40
0
40
0
40
1
40
1
40
1
40
1
10
56.2988207335
20
58.1813816165
30
0
10
56.3705294335
20
58.3634666665
30
0
10
56.4517000335
20
58.5308951165
30
0
10
56.4778555335
20
58.5517981665
30
0
0
SPLINE
5
16A
100
AcDbEntity
8
0
6
ByLayer
62
7
370
-1
100
AcDbSpline
210
0
220
0
230
1
70
8
71
3
72
8
73
4
74
0
42
1e-07
43
1e-07
40
0
40
0
40
0
40
0
40
1
40
1
40
1
40
1
10
56.4778555335
20
58.5517981665
30
0
10
56.5040096335
20
58.5727005165
30
0
10
56.5736274335
20
58.7079877665
30
0
10
56.6321957335
20
58.8543052665
30
0
0
SPLINE
5
16B
100
AcDbEntity
8
0
6
ByLayer
62
7
370
-1
100
AcDbSpline
210
0
220
0
230
1
70
8
71
3
72
8
73
4
74
0
42
1e-07
43
1e-07
40
0
40
0
40
0
40
0
40
1
40
1
40
1
40
1
10
56.6321957335
20
58.8543052665
30
0
10
56.6907650835
20
59.0006238165
30
0
10
56.7783956335
20
59.1597982165
30
0
10
56.8266644835
20
59.2092878665
30
0
0
SPLINE
5
16C
100
AcDbEntity
8
0
6
ByLayer
62
7
370
-1
100
AcDbSpline
210
0
220
0
230
1
70
8
71
3
72
8
73
4
74
0
42
1e-07
43
1e-07
40
0
40
0
40
0
40
0
40
1
40
1
40
1
40
1
10
56.8266644835
20
59.2092878665
30
0
10
56.8749333335
20
59.2587775165
30
0
10
56.9361931335
20
59.4817180665
30
0
10
56.9655707335
20
59.7031767165
30
0
0
SPLINE
5
16D
100
AcDbEntity
8
0
6
ByLayer
62
7
370
-1
100
AcDbSpline
210
0
220
0
230
1
70
8
71
3
72
8
73
4
74
0
42
1e-07
43
1e-07
40
0
40
0
40
0
40
0
40
1
40
1
40
1
40
1
10
56.9655707335
20
59.7031767165
30
0
10
56.9949483335
20
59.9246357165
30
0
10
57.0611165335
20
60.1293090665
30
0
10
57.1106506335
20
60.1600240165
30
0
0
SPLINE
5
16E
100
AcDbEntity
8
0
6
ByLayer
62
7
370
-1
100
AcDbSpline
210
0
220
0
230
1
70
8
71
3
72
8
73
4
74
0
42
1e-07
43
1e-07
40
0
40
0
40
0
40
0
40
1
40
1
40
1
40
1
10
57.1106506335
20
60.1600240165
30
0
10
57.2199104835
20
60.2277717665
30
0
10
57.2170184335
20
61.5071117165
30
0
10
57.1075636335
20
61.5799544165
30
0
0
SPLINE
5
16F
100
AcDbEntity
8
0
6
ByLayer
62
7
370
-1
100
AcDbSpline
210
0
220
0
230
1
70
8
71
3
72
8
73
4
74
0
42
1e-07
43
1e-07
40
0
40
0
40
0
40
0
40
1
40
1
40
1
40
1
10
57.1075636335
20
61.5799544165
30
0
10
57.0677731835
20
61.6064350665
30
0
10
56.9923551835
20
61.8434295165
30
0
10
56.9377894835
20
62.1047115165
30
0
0
SPLINE
5
170
100
AcDbEntity
8
0
6
ByLayer
62
7
370
-1
100
AcDbSpline
210
0
220
0
230
1
70
8
71
3
72
8
73
4
74
0
42
1e-07
43
1e-07
40
0
40
0
40
0
40
0
40
1
40
1
40
1
40
1
10
56.9377894835
20
62.1047115165
30
0
10
56.8832244835
20
62.3659945665
30
0
10
56.8138292835
20
62.5800794165
30
0
10
56.7834492835
20
62.5800794165
30
0
0
SPLINE
5
171
100
AcDbEntity
8
0
6
ByLayer
62
7
370
-1
100
AcDbSpline
210
0
220
0
230
1
70
8
71
3
72
8
73
4
74
0
42
1e-07
43
1e-07
40
0
40
0
40
0
40
0
40
1
40
1
40
1
40
1
10
56.7834492835
20
62.5800794165
30
0
10
56.7530689335
20
62.5800794165
30
0
10
56.6813108835
20
62.7910779665
30
0
10
56.6260220835
20
63.0523606665
30
0
0
SPLINE
5
172
100
AcDbEntity
8
0
6
ByLayer
62
7
370
-1
100
AcDbSpline
210
0
220
0
230
1
70
8
71
3
72
8
73
4
74
0
42
1e-07
43
1e-07
40
0
40
0
40
0
40
0
40
1
40
1
40
1
40
1
10
56.6260220835
20
63.0523606665
30
0
10
56.5707350335
20
63.3136430165
30
0
10
56.4862170335
20
63.5684510665
30
0
10
56.4377269835
20
63.6172463165
30
0
0
SPLINE
5
173
100
AcDbEntity
8
0
6
ByLayer
62
7
370
-1
100
AcDbSpline
210
0
220
0
230
1
70
8
71
3
72
8
73
4
74
0
42
1e-07
43
1e-07
40
0
40
0
40
0
40
0
40
1
40
1
40
1
40
1
10
56.4377269835
20
63.6172463165
30
0
10
56.3892358835
20
63.6660426165
30
0
10
56.3064829335
20
63.9154928665
30
0
10
56.2525185335
20
64.1697843165
30
0
0
SPLINE
5
174
100
AcDbEntity
8
0
6
ByLayer
62
7
370
-1
100
AcDbSpline
210
0
220
0
230
1
70
8
71
3
72
8
73
4
74
0
42
1e-07
43
1e-07
40
0
40
0
40
0
40
0
40
1
40
1
40
1
40
1
10
56.2525185335
20
64.1697843165
30
0
10
56.1985544835
20
64.4240768165
30
0
10
56.1295551335
20
64.6297186165
30
0
10
56.1012649835
20
64.6297186165
30
0
0
SPLINE
5
175
100
AcDbEntity
8
0
6
ByLayer
62
7
370
-1
100
AcDbSpline
210
0
220
0
230
1
70
8
71
3
72
8
73
4
74
0
42
1e-07
43
1e-07
40
0
40
0
40
0
40
0
40
1
40
1
40
1
40
1
10
56.1012649835
20
64.6297186165
30
0
10
56.0729751835
20
64.6297186165
30
0
10
56.0043356335
20
64.7519519165
30
0
10
55.9469247835
20
64.8982704665
30
0
0
SPLINE
5
176
100
AcDbEntity
8
0
6
ByLayer
62
7
370
-1
100
AcDbSpline
210
0
220
0
230
1
70
8
71
3
72
8
73
4
74
0
42
1e-07
43
1e-07
40
0
40
0
40
0
40
0
40
1
40
1
40
1
40
1
10
55.9469247835
20
64.8982704665
30
0
10
55.8895142835
20
65.0445879665
30
0
10
55.8171703335
20
65.1637356665
30
0
10
55.7864109335
20
65.1637356665
30
0
0
SPLINE
5
177
100
AcDbEntity
8
0
6
ByLayer
62
7
370
-1
100
AcDbSpline
210
0
220
0
230
1
70
8
71
3
72
8
73
4
74
0
42
1e-07
43
1e-07
40
0
40
0
40
0
40
0
40
1
40
1
40
1
40
1
10
55.7864109335
20
65.1637356665
30
0
10
55.7556494335
20
65.1637356665
30
0
10
55.6896205335
20
65.2828830165
30
0
10
55.6413310335
20
65.4292012165
30
0
0
SPLINE
5
178
100
AcDbEntity
8
0
6
ByLayer
62
7
370
-1
100
AcDbSpline
210
0
220
0
230
1
70
8
71
3
72
8
73
4
74
0
42
1e-07
43
1e-07
40
0
40
0
40
0
40
0
40
1
40
1
40
1
40
1
10
55.6413310335
20
65.4292012165
30
0
10
55.5930415335
20
65.5755194165
30
0
10
55.5284654835
20
65.6946664165
30
0
10
55.4962511335
20
65.6946664165
30
0
0
SPLINE
5
179
100
AcDbEntity
8
0
6
ByLayer
62
7
370
-1
100
AcDbSpline
210
0
220
0
230
1
70
8
71
3
72
8
73
4
74
0
42
1e-07
43
1e-07
40
0
40
0
40
0
40
0
40
1
40
1
40
1
40
1
10
55.4962511335
20
65.6946664165
30
0
10
55.4640378335
20
65.6946664165
30
0
10
55.3760782835
20
65.8293275165
30
0
10
55.3017823835
20
65.9940865165
30
0
0
SPLINE
5
17A
100
AcDbEntity
8
0
6
ByLayer
62
7
370
-1
100
AcDbSpline
210
0
220
0
230
1
70
8
71
3
72
8
73
4
74
0
42
1e-07
43
1e-07
40
0
40
0
40
0
40
0
40
1
40
1
40
1
40
1
10
55.3017823835
20
65.9940865165
30
0
10
55.2274868335
20
66.1588448165
30
0
10
55.1184807335
20
66.3115823665
30
0
10
55.0610117835
20
66.3336351665
30
0
0
SPLINE
5
17B
100
AcDbEntity
8
0
6
ByLayer
62
7
370
-1
100
AcDbSpline
210
0
220
0
230
1
70
8
71
3
72
8
73
4
74
0
42
1e-07
43
1e-07
40
0
40
0
40
0
40
0
40
1
40
1
40
1
40
1
10
55.0610117835
20
66.3336351665
30
0
10
55.0035428335
20
66.3556879665
30
0
10
54.9568503835
20
66.4189728665
30
0
10
54.9560604335
20
66.4725414165
30
0
0
SPLINE
5
17C
100
AcDbEntity
8
0
6
ByLayer
62
7
370
-1
100
AcDbSpline
210
0
220
0
230
1
70
8
71
3
72
8
73
4
74
0
42
1e-07
43
1e-07
40
0
40
0
40
0
40
0
40
1
40
1
40
1
40
1
10
54.9560604335
20
66.4725414165
30
0
10
54.9553383835
20
66.5261099665
30
0
10
54.8715557335
20
66.6488175165
30
0
10
54.7677649835
20
66.7472669165
30
0
0
SPLINE
5
17D
100
AcDbEntity
8
0
6
ByLayer
62
7
370
-1
100
AcDbSpline
210
0
220
0
230
1
70
8
71
3
72
8
73
4
74
0
42
1e-07
43
1e-07
40
0
40
0
40
0
40
0
40
1
40
1
40
1
40
1
10
54.7677649835
20
66.7472669165
30
0
10
54.6639752835
20
66.8457166665
30
0
10
54.5763832335
20
66.9760199165
30
0
10
54.5763832335
20
67.0343400665
30
0
0
SPLINE
5
17E
100
AcDbEntity
8
0
6
ByLayer
62
7
370
-1
100
AcDbSpline
210
0
220
0
230
1
70
8
71
3
72
8
73
4
74
0
42
1e-07
43
1e-07
40
0
40
0
40
0
40
0
40
1
40
1
40
1
40
1
10
54.5763832335
20
67.0343400665
30
0
10
54.5763832335
20
67.0926598665
30
0
10
54.5441044835
20
67.1392914165
30
0
10
54.5022997835
20
67.1392914165
30
0
0
SPLINE
5
17F
100
AcDbEntity
8
0
6
ByLayer
62
7
370
-1
100
AcDbSpline
210
0
220
0
230
1
70
8
71
3
72
8
73
4
74
0
42
1e-07
43
1e-07
40
0
40
0
40
0
40
0
40
1
40
1
40
1
40
1
10
54.5022997835
20
67.1392914165
30
0
10
54.4604950835
20
67.1392914165
30
0
10
54.4251296835
20
67.2069345165
30
0
10
54.4251296835
20
67.2905449665
30
0
0
SPLINE
5
180
100
AcDbEntity
8
0
6
ByLayer
62
7
370
-1
100
AcDbSpline
210
0
220
0
230
1
70
8
71
3
72
8
73
4
74
0
42
1e-07
43
1e-07
40
0
40
0
40
0
40
0
40
1
40
1
40
1
40
1
10
54.4251296835
20
67.2905449665
30
0
10
54.4251296835
20
67.3741550665
30
0
10
54.4604950835
20
67.4448851665
30
0
10
54.5022997835
20
67.4448851665
30
0
0
SPLINE
5
181
100
AcDbEntity
8
0
6
ByLayer
62
7
370
-1
100
AcDbSpline
210
0
220
0
230
1
70
8
71
3
72
8
73
4
74
0
42
1e-07
43
1e-07
40
0
40
0
40
0
40
0
40
1
40
1
40
1
40
1
10
54.5022997835
20
67.4448851665
30
0
10
54.5441044835
20
67.4448851665
30
0
10
54.5763832335
20
67.5640321665
30
0
10
54.5763832335
20
67.7103503665
30
0
0
SPLINE
5
182
100
AcDbEntity
8
0
6
ByLayer
62
7
370
-1
100
AcDbSpline
210
0
220
0
230
1
70
8
71
3
72
8
73
4
74
0
42
1e-07
43
1e-07
40
0
40
0
40
0
40
0
40
1
40
1
40
1
40
1
10
54.5763832335
20
67.7103503665
30
0
10
54.5763832335
20
67.8566685665
30
0
10
54.5441044835
20
67.9758155665
30
0
10
54.5022997835
20
67.9758155665
30
0
0
SPLINE
5
183
100
AcDbEntity
8
0
6
ByLayer
62
7
370
-1
100
AcDbSpline
210
0
220
0
230
1
70
8
71
3
72
8
73
4
74
0
42
1e-07
43
1e-07
40
0
40
0
40
0
40
0
40
1
40
1
40
1
40
1
10
54.5022997835
20
67.9758155665
30
0
10
54.4604950835
20
67.9758155665
30
0
10
54.4251296835
20
68.0746685165
30
0
10
54.4251296835
20
68.1949789165
30
0
0
SPLINE
5
184
100
AcDbEntity
8
0
6
ByLayer
62
7
370
-1
100
AcDbSpline
210
0
220
0
230
1
70
8
71
3
72
8
73
4
74
0
42
1e-07
43
1e-07
40
0
40
0
40
0
40
0
40
1
40
1
40
1
40
1
10
54.4251296835
20
68.1949789165
30
0
10
54.4251296835
20
68.4411675165
30
0
10
54.2280443335
20
68.9635936165
30
0
10
54.1349698835
20
68.9635936165
30
0
0
SPLINE
5
185
100
AcDbEntity
8
0
6
ByLayer
62
7
370
-1
100
AcDbSpline
210
0
220
0
230
1
70
8
71
3
72
8
73
4
74
0
42
1e-07
43
1e-07
40
0
40
0
40
0
40
0
40
1
40
1
40
1
40
1
10
54.1349698835
20
68.9635936165
30
0
10
54.1015287835
20
68.9635936165
30
0
10
54.0273455835
20
69.0802230665
30
0
10
53.9713693835
20
69.2228851665
30
0
0
SPLINE
5
186
100
AcDbEntity
8
0
6
ByLayer
62
7
370
-1
100
AcDbSpline
210
0
220
0
230
1
70
8
71
3
72
8
73
4
74
0
42
1e-07
43
1e-07
40
0
40
0
40
0
40
0
40
1
40
1
40
1
40
1
10
53.9713693835
20
69.2228851665
30
0
10
53.9153928335
20
69.3655472665
30
0
10
53.7823620335
20
69.5281289165
30
0
10
53.6750359335
20
69.5840414165
30
0
0
SPLINE
5
187
100
AcDbEntity
8
0
6
ByLayer
62
7
370
-1
100
AcDbSpline
210
0
220
0
230
1
70
8
71
3
72
8
73
4
74
0
42
1e-07
43
1e-07
40
0
40
0
40
0
40
0
40
1
40
1
40
1
40
1
10
53.6750359335
20
69.5840414165
30
0
10
53.5677098335
20
69.6399539165
30
0
10
53.4191768335
20
69.7454796165
30
0
10
53.3447479335
20
69.8186387165
30
0
0
SPLINE
5
188
100
AcDbEntity
8
0
6
ByLayer
62
7
370
-1
100
AcDbSpline
210
0
220
0
230
1
70
8
71
3
72
8
73
4
74
0
42
1e-07
43
1e-07
40
0
40
0
40
0
40
0
40
1
40
1
40
1
40
1
10
53.3447479335
20
69.8186387165
30
0
10
53.2703186835
20
69.8917978165
30
0
10
53.1574247835
20
69.9513713165
30
0
10
53.0947166835
20
69.9513713165
30
0
0
SPLINE
5
189
100
AcDbEntity
8
0
6
ByLayer
62
7
370
-1
100
AcDbSpline
210
0
220
0
230
1
70
8
71
3
72
8
73
4
74
0
42
1e-07
43
1e-07
40
0
40
0
40
0
40
0
40
1
40
1
40
1
40
1
10
53.0947166835
20
69.9513713165
30
0
10
53.0320085835
20
69.9513713165
30
0
10
52.9805046835
20
69.9795606665
30
0
10
52.9805046835
20
70.0131074665
30
0
0
SPLINE
5
18A
100
AcDbEntity
8
0
6
ByLayer
62
7
370
-1
100
AcDbSpline
210
0
220
0
230
1
70
8
71
3
72
8
73
4
74
0
42
1e-07
43
1e-07
40
0
40
0
40
0
40
0
40
1
40
1
40
1
40
1
10
52.9805046835
20
70.0131074665
30
0
10
52.9805046835
20
70.0466542665
30
0
10
52.8098541335
20
70.1354982665
30
0
10
52.6008274835
20
70.2106628665
30
0
0
SPLINE
5
18B
100
AcDbEntity
8
0
6
ByLayer
62
7
370
-1
100
AcDbSpline
210
0
220
0
230
1
70
8
71
3
72
8
73
4
74
0
42
1e-07
43
1e-07
40
0
40
0
40
0
40
0
40
1
40
1
40
1
40
1
10
52.6008274835
20
70.2106628665
30
0
10
52.3918018835
20
70.2858274665
30
0
10
52.2211506335
20
70.3739333165
30
0
10
52.2211506335
20
70.4082186165
30
0
0
SPLINE
5
18C
100
AcDbEntity
8
0
6
ByLayer
62
7
370
-1
100
AcDbSpline
210
0
220
0
230
1
70
8
71
3
72
8
73
4
74
0
42
1e-07
43
1e-07
40
0
40
0
40
0
40
0
40
1
40
1
40
1
40
1
10
52.2211506335
20
70.4082186165
30
0
10
52.2211506335
20
70.4425035665
30
0
10
52.1178803335
20
70.4942640165
30
0
10
51.9896399835
20
70.5224302665
30
0
0
SPLINE
5
18D
100
AcDbEntity
8
0
6
ByLayer
62
7
370
-1
100
AcDbSpline
210
0
220
0
230
1
70
8
71
3
72
8
73
4
74
0
42
1e-07
43
1e-07
40
0
40
0
40
0
40
0
40
1
40
1
40
1
40
1
10
51.9896399835
20
70.5224302665
30
0
10
51.8614010335
20
70.5505965165
30
0
10
51.7374642835
20
70.6210914165
30
0
10
51.7149144835
20
70.6798574665
30
0
0
SPLINE
5
18E
100
AcDbEntity
8
0
6
ByLayer
62
7
370
-1
100
AcDbSpline
210
0
220
0
230
1
70
8
71
3
72
8
73
4
74
0
42
1e-07
43
1e-07
40
0
40
0
40
0
40
0
40
1
40
1
40
1
40
1
10
51.7149144835
20
70.6798574665
30
0
10
51.6923636335
20
70.7386231665
30
0
10
51.6271057835
20
70.7878954665
30
0
10
51.5698345835
20
70.7878954665
30
0
0
SPLINE
5
18F
100
AcDbEntity
8
0
6
ByLayer
62
7
370
-1
100
AcDbSpline
210
0
220
0
230
1
70
8
71
3
72
8
73
4
74
0
42
1e-07
43
1e-07
40
0
40
0
40
0
40
0
40
1
40
1
40
1
40
1
10
51.5698345835
20
70.7878954665
30
0
10
51.5125640835
20
70.7878954665
30
0
10
51.4098905335
20
70.8747644165
30
0
10
51.3414109335
20
70.9792775665
30
0
0
SPLINE
5
190
100
AcDbEntity
8
0
6
ByLayer
62
7
370
-1
100
AcDbSpline
210
0
220
0
230
1
70
8
71
3
72
8
73
4
74
0
42
1e-07
43
1e-07
40
0
40
0
40
0
40
0
40
1
40
1
40
1
40
1
10
51.3414109335
20
70.9792775665
30
0
10
51.2729323835
20
71.0837903665
30
0
10
51.1726738335
20
71.1675726665
30
0
10
51.1191609335
20
71.1675726665
30
0
0
SPLINE
5
191
100
AcDbEntity
8
0
6
ByLayer
62
7
370
-1
100
AcDbSpline
210
0
220
0
230
1
70
8
71
3
72
8
73
4
74
0
42
1e-07
43
1e-07
40
0
40
0
40
0
40
0
40
1
40
1
40
1
40
1
10
51.1191609335
20
71.1675726665
30
0
10
51.0656490835
20
71.1675726665
30
0
10
50.9397981835
20
71.2520770165
30
0
10
50.8413484335
20
71.3558677665
30
0
0
SPLINE
5
192
100
AcDbEntity
8
0
6
ByLayer
62
7
370
-1
100
AcDbSpline
210
0
220
0
230
1
70
8
71
3
72
8
73
4
74
0
42
1e-07
43
1e-07
40
0
40
0
40
0
40
0
40
1
40
1
40
1
40
1
10
50.8413484335
20
71.3558677665
30
0
10
50.7428986835
20
71.4596585165
30
0
10
50.6201907835
20
71.5465285165
30
0
10
50.5666229335
20
71.5472498665
30
0
0
SPLINE
5
193
100
AcDbEntity
8
0
6
ByLayer
62
7
370
-1
100
AcDbSpline
210
0
220
0
230
1
70
8
71
3
72
8
73
4
74
0
42
1e-07
43
1e-07
40
0
40
0
40
0
40
0
40
1
40
1
40
1
40
1
10
50.5666229335
20
71.5472498665
30
0
10
50.5130536835
20
71.5479719165
30
0
10
50.4503109335
20
71.5964077165
30
0
10
50.4277166835
20
71.6552878665
30
0
0
SPLINE
5
194
100
AcDbEntity
8
0
6
ByLayer
62
7
370
-1
100
AcDbSpline
210
0
220
0
230
1
70
8
71
3
72
8
73
4
74
0
42
1e-07
43
1e-07
40
0
40
0
40
0
40
0
40
1
40
1
40
1
40
1
10
50.4277166835
20
71.6552878665
30
0
10
50.4051220835
20
71.7141680165
30
0
10
50.2877492335
20
71.8021391165
30
0
10
50.1653381335
20
71.8528436165
30
0
0
SPLINE
5
195
100
AcDbEntity
8
0
6
ByLayer
62
7
370
-1
100
AcDbSpline
210
0
220
0
230
1
70
8
71
3
72
8
73
4
74
0
42
1e-07
43
1e-07
40
0
40
0
40
0
40
0
40
1
40
1
40
1
40
1
10
50.1653381335
20
71.8528436165
30
0
10
50.0429266835
20
71.9035481165
30
0
10
49.9400011334
20
71.9712720665
30
0
10
49.9400011334
20
72.0010101665
30
0
0
SPLINE
5
196
100
AcDbEntity
8
0
6
ByLayer
62
7
370
-1
100
AcDbSpline
210
0
220
0
230
1
70
8
71
3
72
8
73
4
74
0
42
1e-07
43
1e-07
40
0
40
0
40
0
40
0
40
1
40
1
40
1
40
1
10
49.9400011334
20
72.0010101665
30
0
10
49.9400011334
20
72.0307482665
30
0
10
49.7370721834
20
72.1215064165
30
0
10
49.4862408334
20
72.2016525665
30
0
0
SPLINE
5
197
100
AcDbEntity
8
0
6
ByLayer
62
7
370
-1
100
AcDbSpline
210
0
220
0
230
1
70
8
71
3
72
8
73
4
74
0
42
1e-07
43
1e-07
40
0
40
0
40
0
40
0
40
1
40
1
40
1
40
1
10
49.4862408334
20
72.2016525665
30
0
10
49.2354094833
20
72.2817987165
30
0
10
49.0293935334
20
72.3699497165
30
0
10
49.0293935334
20
72.3992079665
30
0
0
SPLINE
5
198
100
AcDbEntity
8
0
6
ByLayer
62
7
370
-1
100
AcDbSpline
210
0
220
0
230
1
70
8
71
3
72
8
73
4
74
0
42
1e-07
43
1e-07
40
0
40
0
40
0
40
0
40
1
40
1
40
1
40
1
10
49.0293935334
20
72.3992079665
30
0
10
49.0293935334
20
72.4284665665
30
0
10
48.8233768834
20
72.4918529665
30
0
10
48.5725462334
20
72.5412012165
30
0
0
SPLINE
5
199
100
AcDbEntity
8
0
6
ByLayer
62
7
370
-1
100
AcDbSpline
210
0
220
0
230
1
70
8
71
3
72
8
73
4
74
0
42
1e-07
43
1e-07
40
0
40
0
40
0
40
0
40
1
40
1
40
1
40
1
10
48.5725462334
20
72.5412012165
30
0
10
48.3217148833
20
72.5905491165
30
0
10
48.1156992833
20
72.6622620165
30
0
10
48.1156992833
20
72.6986280665
30
0
0
SPLINE
5
19A
100
AcDbEntity
8
0
6
ByLayer
62
7
370
-1
100
AcDbSpline
210
0
220
0
230
1
70
8
71
3
72
8
73
4
74
0
42
1e-07
43
1e-07
40
0
40
0
40
0
40
0
40
1
40
1
40
1
40
1
10
48.1156992833
20
72.6986280665
30
0
10
48.1156992833
20
72.8042241165
30
0
10
45.2463033834
20
72.7828846165
30
0
10
45.2110149833
20
72.6770204665
30
0
0
SPLINE
5
19B
100
AcDbEntity
8
0
6
ByLayer
62
7
370
-1
100
AcDbSpline
210
0
220
0
230
1
70
8
71
3
72
8
73
4
74
0
42
1e-07
43
1e-07
40
0
40
0
40
0
40
0
40
1
40
1
40
1
40
1
10
45.2110149833
20
72.6770204665
30
0
10
45.1928349333
20
72.6224803165
30
0
10
44.9834330834
20
72.5855423665
30
0
10
44.6615636333
20
72.5813294165
30
0
0
SPLINE
5
19C
100
AcDbEntity
8
0
6
ByLayer
62
7
370
-1
100
AcDbSpline
210
0
220
0
230
1
70
8
71
3
72
8
73
4
74
0
42
1e-07
43
1e-07
40
0
40
0
40
0
40
0
40
1
40
1
40
1
40
1
10
44.6615636333
20
72.5813294165
30
0
10
44.1485595334
20
72.5746160665
30
0
10
44.1411027834
20
72.5788402165
30
0
10
44.0658104334
20
72.8035794165
30
0
0
SPLINE
5
19D
100
AcDbEntity
8
0
6
ByLayer
62
7
370
-1
100
AcDbSpline
210
0
220
0
230
1
70
8
71
3
72
8
73
4
74
0
42
1e-07
43
1e-07
40
0
40
0
40
0
40
0
40
1
40
1
40
1
40
1
10
44.0658104334
20
72.8035794165
30
0
10
44.0237932834
20
72.9289952665
30
0
10
43.9156453833
20
73.0892648165
30
0
10
43.8281261333
20
73.1616490165
30
0
0
SPLINE
5
19E
100
AcDbEntity
8
0
6
ByLayer
62
7
370
-1
100
AcDbSpline
210
0
220
0
230
1
70
8
71
3
72
8
73
4
74
0
42
1e-07
43
1e-07
40
0
40
0
40
0
40
0
40
1
40
1
40
1
40
1
10
43.8281261333
20
73.1616490165
30
0
10
43.7406089834
20
73.2340332165
30
0
10
43.6285862333
20
73.3289717665
30
0
10
43.5780948833
20
73.3715517165
30
0
0
SPLINE
5
19F
100
AcDbEntity
8
0
6
ByLayer
62
7
370
-1
100
AcDbSpline
210
0
220
0
230
1
70
8
71
3
72
8
73
4
74
0
42
1e-07
43
1e-07
40
0
40
0
40
0
40
0
40
1
40
1
40
1
40
1
10
43.5780948833
20
73.3715517165
30
0
10
43.4598561334
20
73.4712632165
30
0
10
43.0996399834
20
73.4709142665
30
0
10
43.0996399834
20
73.3715517165
30
0
0
SPLINE
5
1A0
100
AcDbEntity
8
0
6
ByLayer
62
7
370
-1
100
AcDbSpline
210
0
220
0
230
1
70
8
71
3
72
8
73
4
74
0
42
1e-07
43
1e-07
40
0
40
0
40
0
40
0
40
1
40
1
40
1
40
1
10
43.0996399834
20
73.3715517165
30
0
10
43.0996399834
20
73.2520463165
30
0
10
42.8920693334
20
73.2849410665
30
0
10
42.8434354334
20
73.4116802665
30
0
0
SPLINE
5
1A1
100
AcDbEntity
8
0
6
ByLayer
62
7
370
-1
100
AcDbSpline
210
0
220
0
230
1
70
8
71
3
72
8
73
4
74
0
42
1e-07
43
1e-07
40
0
40
0
40
0
40
0
40
1
40
1
40
1
40
1
10
42.8434354334
20
73.4116802665
30
0
10
42.8154098834
20
73.4847109165
30
0
10
42.7587581833
20
73.5197186165
30
0
10
42.6890948834
20
73.5197186165
30
0
0
LWPOLYLINE
5
1A2
100
AcDbEntity
8
0
6
ByLayer
62
7
370
-1
100
AcDbPolyline
90
5
70
0
43
0
10
32.0334421833
20
10.0704302666
10
31.9840533334
20
9.82965931665
10
43.5194457333
20
9.82965931665
10
55.0548381335
20
9.82965931665
10
55.0023622835
20
10.1506873667
0
SPLINE
5
1A3
100
AcDbEntity
8
0
6
ByLayer
62
7
370
-1
100
AcDbSpline
210
0
220
0
230
1
70
8
71
3
72
8
73
4
74
0
42
1e-07
43
1e-07
40
0
40
0
40
0
40
0
40
1
40
1
40
1
40
1
10
40.8833136333
20
71.1644856665
30
0
10
40.9496225334
20
71.1623002665
30
0
10
40.9728310333
20
71.1156676665
30
0
10
40.9728310333
20
71.0163191165
30
0
0
SPLINE
5
1A4
100
AcDbEntity
8
0
6
ByLayer
62
7
370
-1
100
AcDbSpline
210
0
220
0
230
1
70
8
71
3
72
8
73
4
74
0
42
1e-07
43
1e-07
40
0
40
0
40
0
40
0
40
1
40
1
40
1
40
1
10
40.9728310333
20
71.0163191165
30
0
10
40.9728310333
20
70.9048385165
30
0
10
40.9207989833
20
70.8650655665
30
0
10
40.7814492833
20
70.8650655665
30
0
0
SPLINE
5
1A5
100
AcDbEntity
8
0
6
ByLayer
62
7
370
-1
100
AcDbSpline
210
0
220
0
230
1
70
8
71
3
72
8
73
4
74
0
42
1e-07
43
1e-07
40
0
40
0
40
0
40
0
40
1
40
1
40
1
40
1
10
40.7814492833
20
70.8650655665
30
0
10
40.5692498833
20
70.8650655665
30
0
10
40.5213030334
20
71.0475027165
30
0
10
40.7135394833
20
71.1212704665
30
0
0
SPLINE
5
1A6
100
AcDbEntity
8
0
6
ByLayer
62
7
370
-1
100
AcDbSpline
210
0
220
0
230
1
70
8
71
3
72
8
73
4
74
0
42
1e-07
43
1e-07
40
0
40
0
40
0
40
0
40
1
40
1
40
1
40
1
10
40.7135394833
20
71.1212704665
30
0
10
40.7888738334
20
71.1501790665
30
0
10
40.8435284334
20
71.1657971165
30
0
10
40.8833136333
20
71.1644856665
30
0
0
LWPOLYLINE
5
1A7
100
AcDbEntity
8
0
6
ByLayer
62
7
370
-1
100
AcDbPolyline
90
2
70
0
43
0
10
42.6890948834
20
73.5197186165
10
42.6890948834
20
73.5197186165
0
SPLINE
5
1A8
100
AcDbEntity
8
0
6
ByLayer
62
7
370
-1
100
AcDbSpline
210
0
220
0
230
1
70
8
71
3
72
8
73
4
74
0
42
1e-07
43
1e-07
40
0
40
0
40
0
40
0
40
1
40
1
40
1
40
1
10
43.5009247834
20
55.2705240165
30
0
10
43.5685885334
20
55.2764673665
30
0
10
43.6336573833
20
55.2320975165
30
0
10
43.6336573833
20
55.1347044165
30
0
0
SPLINE
5
1A9
100
AcDbEntity
8
0
6
ByLayer
62
7
370
-1
100
AcDbSpline
210
0
220
0
230
1
70
8
71
3
72
8
73
4
74
0
42
1e-07
43
1e-07
40
0
40
0
40
0
40
0
40
1
40
1
40
1
40
1
10
43.6336573833
20
55.1347044165
30
0
10
43.6336573833
20
55.0259286165
30
0
10
43.5850073834
20
54.9772775665
30
0
10
43.4762305333
20
54.9772775665
30
0
0
SPLINE
5
1AA
100
AcDbEntity
8
0
6
ByLayer
62
7
370
-1
100
AcDbSpline
210
0
220
0
230
1
70
8
71
3
72
8
73
4
74
0
42
1e-07
43
1e-07
40
0
40
0
40
0
40
0
40
1
40
1
40
1
40
1
10
43.4762305333
20
54.9772775665
30
0
10
43.3674533333
20
54.9772775665
30
0
10
43.3259321334
20
55.0187998165
30
0
10
43.3434979334
20
55.1100101665
30
0
0
SPLINE
5
1AB
100
AcDbEntity
8
0
6
ByLayer
62
7
370
-1
100
AcDbSpline
210
0
220
0
230
1
70
8
71
3
72
8
73
4
74
0
42
1e-07
43
1e-07
40
0
40
0
40
0
40
0
40
1
40
1
40
1
40
1
10
43.3434979334
20
55.1100101665
30
0
10
43.3625767834
20
55.2090783665
30
0
10
43.4332610333
20
55.2645806665
30
0
10
43.5009247834
20
55.2705240165
30
0
0
LWPOLYLINE
5
1AC
100
AcDbEntity
8
0
6
ByLayer
62
7
370
-1
100
AcDbPolyline
90
2
70
0
43
0
10
40.8833136333
20
71.1644856665
10
40.8833136333
20
71.1644856665
0
SPLINE
5
1AD
100
AcDbEntity
8
0
6
ByLayer
62
7
370
-1
100
AcDbSpline
210
0
220
0
230
1
70
8
71
3
72
8
73
4
74
0
42
1e-07
43
1e-07
40
0
40
0
40
0
40
0
40
1
40
1
40
1
40
1
10
50.6530533335
20
43.0436873666
30
0
10
50.7199880335
20
43.0591192166
30
0
10
50.7733339835
20
42.9700533167
30
0
10
50.8104805335
20
42.7720481667
30
0
0
SPLINE
5
1AE
100
AcDbEntity
8
0
6
ByLayer
62
7
370
-1
100
AcDbSpline
210
0
220
0
230
1
70
8
71
3
72
8
73
4
74
0
42
1e-07
43
1e-07
40
0
40
0
40
0
40
0
40
1
40
1
40
1
40
1
10
50.8104805335
20
42.7720481667
30
0
10
50.8803419335
20
42.3996530667
30
0
10
51.2419122335
20
42.0559093167
30
0
10
51.5636609335
20
42.0559093167
30
0
0
SPLINE
5
1AF
100
AcDbEntity
8
0
6
ByLayer
62
7
370
-1
100
AcDbSpline
210
0
220
0
230
1
70
8
71
3
72
8
73
4
74
0
42
1e-07
43
1e-07
40
0
40
0
40
0
40
0
40
1
40
1
40
1
40
1
10
51.5636609335
20
42.0559093167
30
0
10
51.8289899835
20
42.0559093167
30
0
10
52.2983207335
20
41.7347857167
30
0
10
52.2983207335
20
41.5527601667
30
0
0
SPLINE
5
1B0
100
AcDbEntity
8
0
6
ByLayer
62
7
370
-1
100
AcDbSpline
210
0
220
0
230
1
70
8
71
3
72
8
73
4
74
0
42
1e-07
43
1e-07
40
0
40
0
40
0
40
0
40
1
40
1
40
1
40
1
10
52.2983207335
20
41.5527601667
30
0
10
52.2983207335
20
41.4969120666
30
0
10
52.3828408335
20
41.4306392167
30
0
10
52.4866158335
20
41.4045936166
30
0
0
SPLINE
5
1B1
100
AcDbEntity
8
0
6
ByLayer
62
7
370
-1
100
AcDbSpline
210
0
220
0
230
1
70
8
71
3
72
8
73
4
74
0
42
1e-07
43
1e-07
40
0
40
0
40
0
40
0
40
1
40
1
40
1
40
1
10
52.4866158335
20
41.4045936166
30
0
10
52.7047883335
20
41.3498361167
30
0
10
53.4373519835
20
41.5067733166
30
0
10
53.4373519835
20
41.6083226666
30
0
0
SPLINE
5
1B2
100
AcDbEntity
8
0
6
ByLayer
62
7
370
-1
100
AcDbSpline
210
0
220
0
230
1
70
8
71
3
72
8
73
4
74
0
42
1e-07
43
1e-07
40
0
40
0
40
0
40
0
40
1
40
1
40
1
40
1
10
53.4373519835
20
41.6083226666
30
0
10
53.4373519835
20
41.6459578166
30
0
10
53.5403594335
20
41.6762324666
30
0
10
53.6657756335
20
41.6762324666
30
0
0
SPLINE
5
1B3
100
AcDbEntity
8
0
6
ByLayer
62
7
370
-1
100
AcDbSpline
210
0
220
0
230
1
70
8
71
3
72
8
73
4
74
0
42
1e-07
43
1e-07
40
0
40
0
40
0
40
0
40
1
40
1
40
1
40
1
10
53.6657756335
20
41.6762324666
30
0
10
53.7911907835
20
41.6762324666
30
0
10
53.8941992835
20
41.6450796666
30
0
10
53.8941992835
20
41.6052356667
30
0
0
SPLINE
5
1B4
100
AcDbEntity
8
0
6
ByLayer
62
7
370
-1
100
AcDbSpline
210
0
220
0
230
1
70
8
71
3
72
8
73
4
74
0
42
1e-07
43
1e-07
40
0
40
0
40
0
40
0
40
1
40
1
40
1
40
1
10
53.8941992835
20
41.6052356667
30
0
10
53.8941992835
20
41.5653916667
30
0
10
54.0197152335
20
41.4721544666
30
0
10
54.1750984335
20
41.3984199667
30
0
0
SPLINE
5
1B5
100
AcDbEntity
8
0
6
ByLayer
62
7
370
-1
100
AcDbSpline
210
0
220
0
230
1
70
8
71
3
72
8
73
4
74
0
42
1e-07
43
1e-07
40
0
40
0
40
0
40
0
40
1
40
1
40
1
40
1
10
54.1750984335
20
41.3984199667
30
0
10
54.3304819835
20
41.3246861666
30
0
10
54.5154877835
20
41.2093958167
30
0
10
54.5856435335
20
41.1453017167
30
0
0
SPLINE
5
1B6
100
AcDbEntity
8
0
6
ByLayer
62
7
370
-1
100
AcDbSpline
210
0
220
0
230
1
70
8
71
3
72
8
73
4
74
0
42
1e-07
43
1e-07
40
0
40
0
40
0
40
0
40
1
40
1
40
1
40
1
10
54.5856435335
20
41.1453017167
30
0
10
54.7545822335
20
40.9909625666
30
0
10
55.0472756835
20
40.7607353667
30
0
10
55.2925220835
20
40.5835030667
30
0
0
SPLINE
5
1B7
100
AcDbEntity
8
0
6
ByLayer
62
7
370
-1
100
AcDbSpline
210
0
220
0
230
1
70
8
71
3
72
8
73
4
74
0
42
1e-07
43
1e-07
40
0
40
0
40
0
40
0
40
1
40
1
40
1
40
1
10
55.2925220835
20
40.5835030667
30
0
10
55.5199825335
20
40.4191220666
30
0
10
55.5654461335
20
40.0137293167
30
0
10
55.3789524835
20
39.8272356666
30
0
0
SPLINE
5
1B8
100
AcDbEntity
8
0
6
ByLayer
62
7
370
-1
100
AcDbSpline
210
0
220
0
230
1
70
8
71
3
72
8
73
4
74
0
42
1e-07
43
1e-07
40
0
40
0
40
0
40
0
40
1
40
1
40
1
40
1
10
55.3789524835
20
39.8272356666
30
0
10
55.3180542335
20
39.7663374167
30
0
10
55.2299749835
20
39.5602206666
30
0
10
55.1813970835
20
39.3673017166
30
0
0
SPLINE
5
1B9
100
AcDbEntity
8
0
6
ByLayer
62
7
370
-1
100
AcDbSpline
210
0
220
0
230
1
70
8
71
3
72
8
73
4
74
0
42
1e-07
43
1e-07
40
0
40
0
40
0
40
0
40
1
40
1
40
1
40
1
10
55.1813970835
20
39.3673017166
30
0
10
55.1328191835
20
39.1743827666
30
0
10
55.0658743335
20
39.0154061166
30
0
10
55.0332305335
20
39.0154061166
30
0
0
SPLINE
5
1BA
100
AcDbEntity
8
0
6
ByLayer
62
7
370
-1
100
AcDbSpline
210
0
220
0
230
1
70
8
71
3
72
8
73
4
74
0
42
1e-07
43
1e-07
40
0
40
0
40
0
40
0
40
1
40
1
40
1
40
1
10
55.0332305335
20
39.0154061166
30
0
10
55.0005863835
20
39.0154061166
30
0
10
54.9108386835
20
38.8447545166
30
0
10
54.8356747835
20
38.6357289167
30
0
0
SPLINE
5
1BB
100
AcDbEntity
8
0
6
ByLayer
62
7
370
-1
100
AcDbSpline
210
0
220
0
230
1
70
8
71
3
72
8
73
4
74
0
42
1e-07
43
1e-07
40
0
40
0
40
0
40
0
40
1
40
1
40
1
40
1
10
54.8356747835
20
38.6357289167
30
0
10
54.7605098335
20
38.4267033166
30
0
10
54.6716661835
20
38.2560517166
30
0
10
54.6381193835
20
38.2560517166
30
0
0
SPLINE
5
1BC
100
AcDbEntity
8
0
6
ByLayer
62
7
370
-1
100
AcDbSpline
210
0
220
0
230
1
70
8
71
3
72
8
73
4
74
0
42
1e-07
43
1e-07
40
0
40
0
40
0
40
0
40
1
40
1
40
1
40
1
10
54.6381193835
20
38.2560517166
30
0
10
54.6045722335
20
38.2560517166
30
0
10
54.5763832335
20
38.1890281167
30
0
10
54.5763832335
20
38.1078851667
30
0
0
SPLINE
5
1BD
100
AcDbEntity
8
0
6
ByLayer
62
7
370
-1
100
AcDbSpline
210
0
220
0
230
1
70
8
71
3
72
8
73
4
74
0
42
1e-07
43
1e-07
40
0
40
0
40
0
40
0
40
1
40
1
40
1
40
1
10
54.5763832335
20
38.1078851667
30
0
10
54.5763832335
20
38.0267422166
30
0
10
54.5441044835
20
37.9392527167
30
0
10
54.5022997835
20
37.9134164167
30
0
0
SPLINE
5
1BE
100
AcDbEntity
8
0
6
ByLayer
62
7
370
-1
100
AcDbSpline
210
0
220
0
230
1
70
8
71
3
72
8
73
4
74
0
42
1e-07
43
1e-07
40
0
40
0
40
0
40
0
40
1
40
1
40
1
40
1
10
54.5022997835
20
37.9134164167
30
0
10
54.4604950835
20
37.8875790666
30
0
10
54.4251296835
20
37.8000906167
30
0
10
54.4251296835
20
37.7189476667
30
0
0
SPLINE
5
1BF
100
AcDbEntity
8
0
6
ByLayer
62
7
370
-1
100
AcDbSpline
210
0
220
0
230
1
70
8
71
3
72
8
73
4
74
0
42
1e-07
43
1e-07
40
0
40
0
40
0
40
0
40
1
40
1
40
1
40
1
10
54.4251296835
20
37.7189476667
30
0
10
54.4251296835
20
37.6378047167
30
0
10
54.3985072835
20
37.5707811166
30
0
10
54.3633935335
20
37.5707811166
30
0
0
SPLINE
5
1C0
100
AcDbEntity
8
0
6
ByLayer
62
7
370
-1
100
AcDbSpline
210
0
220
0
230
1
70
8
71
3
72
8
73
4
74
0
42
1e-07
43
1e-07
40
0
40
0
40
0
40
0
40
1
40
1
40
1
40
1
10
54.3633935335
20
37.5707811166
30
0
10
54.3282790835
20
37.5707811166
30
0
10
54.2518943835
20
37.4354949167
30
0
10
54.1967060335
20
37.2682740166
30
0
0
SPLINE
5
1C1
100
AcDbEntity
8
0
6
ByLayer
62
7
370
-1
100
AcDbSpline
210
0
220
0
230
1
70
8
71
3
72
8
73
4
74
0
42
1e-07
43
1e-07
40
0
40
0
40
0
40
0
40
1
40
1
40
1
40
1
10
54.1967060335
20
37.2682740166
30
0
10
54.1415180335
20
37.1010531167
30
0
10
54.0710332835
20
36.9626802666
30
0
10
54.0392791835
20
36.9626802666
30
0
0
SPLINE
5
1C2
100
AcDbEntity
8
0
6
ByLayer
62
7
370
-1
100
AcDbSpline
210
0
220
0
230
1
70
8
71
3
72
8
73
4
74
0
42
1e-07
43
1e-07
40
0
40
0
40
0
40
0
40
1
40
1
40
1
40
1
10
54.0392791835
20
36.9626802666
30
0
10
54.0075250835
20
36.9626802666
30
0
10
53.9265844335
20
36.7920286666
30
0
10
53.8571573835
20
36.5830030667
30
0
0
SPLINE
5
1C3
100
AcDbEntity
8
0
6
ByLayer
62
7
370
-1
100
AcDbSpline
210
0
220
0
230
1
70
8
71
3
72
8
73
4
74
0
42
1e-07
43
1e-07
40
0
40
0
40
0
40
0
40
1
40
1
40
1
40
1
10
53.8571573835
20
36.5830030667
30
0
10
53.7877296335
20
36.3739764167
30
0
10
53.7026551335
20
36.2033262166
30
0
10
53.6688622835
20
36.2033262166
30
0
0
SPLINE
5
1C4
100
AcDbEntity
8
0
6
ByLayer
62
7
370
-1
100
AcDbSpline
210
0
220
0
230
1
70
8
71
3
72
8
73
4
74
0
42
1e-07
43
1e-07
40
0
40
0
40
0
40
0
40
1
40
1
40
1
40
1
10
53.6688622835
20
36.2033262166
30
0
10
53.6350704835
20
36.2033262166
30
0
10
53.5825116835
20
36.0832895166
30
0
10
53.5546506335
20
35.9347740167
30
0
0
SPLINE
5
1C5
100
AcDbEntity
8
0
6
ByLayer
62
7
370
-1
100
AcDbSpline
210
0
220
0
230
1
70
8
71
3
72
8
73
4
74
0
42
1e-07
43
1e-07
40
0
40
0
40
0
40
0
40
1
40
1
40
1
40
1
10
53.5546506335
20
35.9347740167
30
0
10
53.5267881835
20
35.7862585167
30
0
10
53.4609132835
20
35.6469798666
30
0
10
53.4064837335
20
35.6260936167
30
0
0
SPLINE
5
1C6
100
AcDbEntity
8
0
6
ByLayer
62
7
370
-1
100
AcDbSpline
210
0
220
0
230
1
70
8
71
3
72
8
73
4
74
0
42
1e-07
43
1e-07
40
0
40
0
40
0
40
0
40
1
40
1
40
1
40
1
10
53.4064837335
20
35.6260936167
30
0
10
53.3520534835
20
35.6052070166
30
0
10
53.2633963835
20
35.4515846666
30
0
10
53.2089283335
20
35.2865449666
30
0
0
SPLINE
5
1C7
100
AcDbEntity
8
0
6
ByLayer
62
7
370
-1
100
AcDbSpline
210
0
220
0
230
1
70
8
71
3
72
8
73
4
74
0
42
1e-07
43
1e-07
40
0
40
0
40
0
40
0
40
1
40
1
40
1
40
1
10
53.2089283335
20
35.2865449666
30
0
10
53.1544602835
20
35.1215059666
30
0
10
53.0864398835
20
34.9871248666
30
0
10
53.0576747835
20
34.9871248666
30
0
0
SPLINE
5
1C8
100
AcDbEntity
8
0
6
ByLayer
62
7
370
-1
100
AcDbSpline
210
0
220
0
230
1
70
8
71
3
72
8
73
4
74
0
42
1e-07
43
1e-07
40
0
40
0
40
0
40
0
40
1
40
1
40
1
40
1
10
53.0576747835
20
34.9871248666
30
0
10
53.0289107335
20
34.9871248666
30
0
10
52.9415209835
20
34.8406827666
30
0
10
52.8632060335
20
34.6630101666
30
0
0
SPLINE
5
1C9
100
AcDbEntity
8
0
6
ByLayer
62
7
370
-1
100
AcDbSpline
210
0
220
0
230
1
70
8
71
3
72
8
73
4
74
0
42
1e-07
43
1e-07
40
0
40
0
40
0
40
0
40
1
40
1
40
1
40
1
10
52.8632060335
20
34.6630101666
30
0
10
52.7848921335
20
34.4853386166
30
0
10
52.6758849835
20
34.3136776166
30
0
10
52.6224354335
20
34.2802463167
30
0
0
SPLINE
5
1CA
100
AcDbEntity
8
0
6
ByLayer
62
7
370
-1
100
AcDbSpline
210
0
220
0
230
1
70
8
71
3
72
8
73
4
74
0
42
1e-07
43
1e-07
40
0
40
0
40
0
40
0
40
1
40
1
40
1
40
1
10
52.6224354335
20
34.2802463167
30
0
10
52.5689844835
20
34.2468150166
30
0
10
52.5267443835
20
34.1739653166
30
0
10
52.5267443835
20
34.1197324666
30
0
0
SPLINE
5
1CB
100
AcDbEntity
8
0
6
ByLayer
62
7
370
-1
100
AcDbSpline
210
0
220
0
230
1
70
8
71
3
72
8
73
4
74
0
42
1e-07
43
1e-07
40
0
40
0
40
0
40
0
40
1
40
1
40
1
40
1
10
52.5267443835
20
34.1197324666
30
0
10
52.5267443835
20
34.0654985666
30
0
10
52.4560146335
20
33.9444965667
30
0
10
52.3724041835
20
33.8480936166
30
0
0
SPLINE
5
1CC
100
AcDbEntity
8
0
6
ByLayer
62
7
370
-1
100
AcDbSpline
210
0
220
0
230
1
70
8
71
3
72
8
73
4
74
0
42
1e-07
43
1e-07
40
0
40
0
40
0
40
0
40
1
40
1
40
1
40
1
10
52.3724041835
20
33.8480936166
30
0
10
52.2887937335
20
33.7516892666
30
0
10
52.2211506335
20
33.6485771666
30
0
10
52.2211506335
20
33.6196699667
30
0
0
SPLINE
5
1CD
100
AcDbEntity
8
0
6
ByLayer
62
7
370
-1
100
AcDbSpline
210
0
220
0
230
1
70
8
71
3
72
8
73
4
74
0
42
1e-07
43
1e-07
40
0
40
0
40
0
40
0
40
1
40
1
40
1
40
1
10
52.2211506335
20
33.6196699667
30
0
10
52.2211506335
20
33.5907634667
30
0
10
52.1378166835
20
33.4696757167
30
0
10
52.0359421835
20
33.3511177666
30
0
0
SPLINE
5
1CE
100
AcDbEntity
8
0
6
ByLayer
62
7
370
-1
100
AcDbSpline
210
0
220
0
230
1
70
8
71
3
72
8
73
4
74
0
42
1e-07
43
1e-07
40
0
40
0
40
0
40
0
40
1
40
1
40
1
40
1
10
52.0359421835
20
33.3511177666
30
0
10
51.9340687335
20
33.2325587667
30
0
10
51.8309230335
20
33.0492105666
30
0
10
51.8044318835
20
32.9436593166
30
0
0
SPLINE
5
1CF
100
AcDbEntity
8
0
6
ByLayer
62
7
370
-1
100
AcDbSpline
210
0
220
0
230
1
70
8
71
3
72
8
73
4
74
0
42
1e-07
43
1e-07
40
0
40
0
40
0
40
0
40
1
40
1
40
1
40
1
10
51.8044318835
20
32.9436593166
30
0
10
51.7779396835
20
32.8381073667
30
0
10
51.6875360835
20
32.7069109167
30
0
10
51.6068761335
20
32.6504128667
30
0
0
SPLINE
5
1D0
100
AcDbEntity
8
0
6
ByLayer
62
7
370
-1
100
AcDbSpline
210
0
220
0
230
1
70
8
71
3
72
8
73
4
74
0
42
1e-07
43
1e-07
40
0
40
0
40
0
40
0
40
1
40
1
40
1
40
1
10
51.6068761335
20
32.6504128667
30
0
10
51.5262151335
20
32.5939169167
30
0
10
51.4617962335
20
32.4994617167
30
0
10
51.4617962335
20
32.4435968167
30
0
0
SPLINE
5
1D1
100
AcDbEntity
8
0
6
ByLayer
62
7
370
-1
100
AcDbSpline
210
0
220
0
230
1
70
8
71
3
72
8
73
4
74
0
42
1e-07
43
1e-07
40
0
40
0
40
0
40
0
40
1
40
1
40
1
40
1
10
51.4617962335
20
32.4435968167
30
0
10
51.4617962335
20
32.3877333166
30
0
10
51.4102926835
20
32.3225811666
30
0
10
51.3475845835
20
32.2985169167
30
0
0
SPLINE
5
1D2
100
AcDbEntity
8
0
6
ByLayer
62
7
370
-1
100
AcDbSpline
210
0
220
0
230
1
70
8
71
3
72
8
73
4
74
0
42
1e-07
43
1e-07
40
0
40
0
40
0
40
0
40
1
40
1
40
1
40
1
10
51.3475845835
20
32.2985169167
30
0
10
51.2848775335
20
32.2744547667
30
0
10
51.2333729335
20
32.2036389167
30
0
10
51.2333729335
20
32.1410900667
30
0
0
SPLINE
5
1D3
100
AcDbEntity
8
0
6
ByLayer
62
7
370
-1
100
AcDbSpline
210
0
220
0
230
1
70
8
71
3
72
8
73
4
74
0
42
1e-07
43
1e-07
40
0
40
0
40
0
40
0
40
1
40
1
40
1
40
1
10
51.2333729335
20
32.1410900667
30
0
10
51.2333729335
20
32.0785419167
30
0
10
51.1688707335
20
31.9928325167
30
0
10
51.0882930335
20
31.9497079666
30
0
0
SPLINE
5
1D4
100
AcDbEntity
8
0
6
ByLayer
62
7
370
-1
100
AcDbSpline
210
0
220
0
230
1
70
8
71
3
72
8
73
4
74
0
42
1e-07
43
1e-07
40
0
40
0
40
0
40
0
40
1
40
1
40
1
40
1
10
51.0882930335
20
31.9497079666
30
0
10
50.9924567335
20
31.8984175667
30
0
10
50.9071186835
20
31.7202896166
30
0
10
50.8444354335
20
31.4342115166
30
0
0
SPLINE
5
1D5
100
AcDbEntity
8
0
6
ByLayer
62
7
370
-1
100
AcDbSpline
210
0
220
0
230
1
70
8
71
3
72
8
73
4
74
0
42
1e-07
43
1e-07
40
0
40
0
40
0
40
0
40
1
40
1
40
1
40
1
10
50.8444354335
20
31.4342115166
30
0
10
50.7917303335
20
31.1936796167
30
0
10
50.7262467335
20
30.9797459667
30
0
10
50.6993555335
20
30.9588436167
30
0
0
SPLINE
5
1D6
100
AcDbEntity
8
0
6
ByLayer
62
7
370
-1
100
AcDbSpline
210
0
220
0
230
1
70
8
71
3
72
8
73
4
74
0
42
1e-07
43
1e-07
40
0
40
0
40
0
40
0
40
1
40
1
40
1
40
1
10
50.6993555335
20
30.9588436167
30
0
10
50.6724650335
20
30.9379412667
30
0
10
50.6057546835
20
30.7077158167
30
0
10
50.5511886335
20
30.4464338166
30
0
0
SPLINE
5
1D7
100
AcDbEntity
8
0
6
ByLayer
62
7
370
-1
100
AcDbSpline
210
0
220
0
230
1
70
8
71
3
72
8
73
4
74
0
42
1e-07
43
1e-07
40
0
40
0
40
0
40
0
40
1
40
1
40
1
40
1
10
50.5511886335
20
30.4464338166
30
0
10
50.4966239835
20
30.1851507667
30
0
10
50.4236804835
20
29.9710655667
30
0
10
50.3875881335
20
29.9710655667
30
0
0
SPLINE
5
1D8
100
AcDbEntity
8
0
6
ByLayer
62
7
370
-1
100
AcDbSpline
210
0
220
0
230
1
70
8
71
3
72
8
73
4
74
0
42
1e-07
43
1e-07
40
0
40
0
40
0
40
0
40
1
40
1
40
1
40
1
10
50.3875881335
20
29.9710655667
30
0
10
50.3514947335
20
29.9710655667
30
0
10
50.3227649835
20
29.8646326666
30
0
10
50.3227649835
20
29.7364686167
30
0
0
SPLINE
5
1D9
100
AcDbEntity
8
0
6
ByLayer
62
7
370
-1
100
AcDbSpline
210
0
220
0
230
1
70
8
71
3
72
8
73
4
74
0
42
1e-07
43
1e-07
40
0
40
0
40
0
40
0
40
1
40
1
40
1
40
1
10
50.3227649835
20
29.7364686167
30
0
10
50.3227649835
20
29.4520498667
30
0
10
50.2019687835
20
29.2117115166
30
0
10
50.0603867835
20
29.2117115166
30
0
0
SPLINE
5
1DA
100
AcDbEntity
8
0
6
ByLayer
62
7
370
-1
100
AcDbSpline
210
0
220
0
230
1
70
8
71
3
72
8
73
4
74
0
42
1e-07
43
1e-07
40
0
40
0
40
0
40
0
40
1
40
1
40
1
40
1
10
50.0603867835
20
29.2117115166
30
0
10
50.0026322335
20
29.2117115166
30
0
10
49.9426268333
20
29.1732839667
30
0
10
49.9276541834
20
29.1283677667
30
0
0
SPLINE
5
1DB
100
AcDbEntity
8
0
6
ByLayer
62
7
370
-1
100
AcDbSpline
210
0
220
0
230
1
70
8
71
3
72
8
73
4
74
0
42
1e-07
43
1e-07
40
0
40
0
40
0
40
0
40
1
40
1
40
1
40
1
10
49.9276541834
20
29.1283677667
30
0
10
49.9126822333
20
29.0834526166
30
0
10
49.6906079334
20
29.0279058666
30
0
10
49.4368519834
20
29.0048954667
30
0
0
SPLINE
5
1DC
100
AcDbEntity
8
0
6
ByLayer
62
7
370
-1
100
AcDbSpline
210
0
220
0
230
1
70
8
71
3
72
8
73
4
74
0
42
1e-07
43
1e-07
40
0
40
0
40
0
40
0
40
1
40
1
40
1
40
1
10
49.4368519834
20
29.0048954667
30
0
10
49.0234274334
20
28.9674083667
30
0
10
48.9601099834
20
28.9831506667
30
0
10
48.8133171834
20
29.1407150666
30
0
0
SPLINE
5
1DD
100
AcDbEntity
8
0
6
ByLayer
62
7
370
-1
100
AcDbSpline
210
0
220
0
230
1
70
8
71
3
72
8
73
4
74
0
42
1e-07
43
1e-07
40
0
40
0
40
0
40
0
40
1
40
1
40
1
40
1
10
48.8133171834
20
29.1407150666
30
0
10
48.7232170333
20
29.2374253167
30
0
10
48.6497166834
20
29.3545066166
30
0
10
48.6497166834
20
29.4030936167
30
0
0
SPLINE
5
1DE
100
AcDbEntity
8
0
6
ByLayer
62
7
370
-1
100
AcDbSpline
210
0
220
0
230
1
70
8
71
3
72
8
73
4
74
0
42
1e-07
43
1e-07
40
0
40
0
40
0
40
0
40
1
40
1
40
1
40
1
10
48.6497166834
20
29.4030936167
30
0
10
48.6497166834
20
29.5687300667
30
0
10
48.8155386334
20
29.9710655667
30
0
10
48.8843136333
20
29.9710655667
30
0
0
SPLINE
5
1DF
100
AcDbEntity
8
0
6
ByLayer
62
7
370
-1
100
AcDbSpline
210
0
220
0
230
1
70
8
71
3
72
8
73
4
74
0
42
1e-07
43
1e-07
40
0
40
0
40
0
40
0
40
1
40
1
40
1
40
1
10
48.8843136333
20
29.9710655667
30
0
10
48.9220289333
20
29.9710655667
30
0
10
48.9522234333
20
30.1063517667
30
0
10
48.9522234333
20
30.2735726667
30
0
0
SPLINE
5
1E0
100
AcDbEntity
8
0
6
ByLayer
62
7
370
-1
100
AcDbSpline
210
0
220
0
230
1
70
8
71
3
72
8
73
4
74
0
42
1e-07
43
1e-07
40
0
40
0
40
0
40
0
40
1
40
1
40
1
40
1
10
48.9522234333
20
30.2735726667
30
0
10
48.9522234333
20
30.4407935667
30
0
10
48.9193433833
20
30.5791664167
30
0
10
48.8781399834
20
30.5791664167
30
0
0
SPLINE
5
1E1
100
AcDbEntity
8
0
6
ByLayer
62
7
370
-1
100
AcDbSpline
210
0
220
0
230
1
70
8
71
3
72
8
73
4
74
0
42
1e-07
43
1e-07
40
0
40
0
40
0
40
0
40
1
40
1
40
1
40
1
10
48.8781399834
20
30.5791664167
30
0
10
48.8369369334
20
30.5791664167
30
0
10
48.7649972334
20
30.7336784667
30
0
10
48.7176261334
20
30.9218017166
30
0
0
SPLINE
5
1E2
100
AcDbEntity
8
0
6
ByLayer
62
7
370
-1
100
AcDbSpline
210
0
220
0
230
1
70
8
71
3
72
8
73
4
74
0
42
1e-07
43
1e-07
40
0
40
0
40
0
40
0
40
1
40
1
40
1
40
1
10
48.7176261334
20
30.9218017166
30
0
10
48.6702564333
20
31.1099249666
30
0
10
48.6015367334
20
31.2644373667
30
0
10
48.5663729334
20
31.2644373667
30
0
0
SPLINE
5
1E3
100
AcDbEntity
8
0
6
ByLayer
62
7
370
-1
100
AcDbSpline
210
0
220
0
230
1
70
8
71
3
72
8
73
4
74
0
42
1e-07
43
1e-07
40
0
40
0
40
0
40
0
40
1
40
1
40
1
40
1
10
48.5663729334
20
31.2644373667
30
0
10
48.5312077334
20
31.2644373667
30
0
10
48.4623707834
20
31.4077924667
30
0
10
48.4120323834
20
31.5854650666
30
0
0
SPLINE
5
1E4
100
AcDbEntity
8
0
6
ByLayer
62
7
370
-1
100
AcDbSpline
210
0
220
0
230
1
70
8
71
3
72
8
73
4
74
0
42
1e-07
43
1e-07
40
0
40
0
40
0
40
0
40
1
40
1
40
1
40
1
10
48.4120323834
20
31.5854650666
30
0
10
48.3616943334
20
31.7631366167
30
0
10
48.2796802333
20
31.9447838166
30
0
10
48.2299109333
20
31.9867498667
30
0
0
SPLINE
5
1E5
100
AcDbEntity
8
0
6
ByLayer
62
7
370
-1
100
AcDbSpline
210
0
220
0
230
1
70
8
71
3
72
8
73
4
74
0
42
1e-07
43
1e-07
40
0
40
0
40
0
40
0
40
1
40
1
40
1
40
1
10
48.2299109333
20
31.9867498667
30
0
10
48.1801409334
20
32.0287145166
30
0
10
48.1145554834
20
32.1369541167
30
0
10
48.0848310333
20
32.2306074666
30
0
0
SPLINE
5
1E6
100
AcDbEntity
8
0
6
ByLayer
62
7
370
-1
100
AcDbSpline
210
0
220
0
230
1
70
8
71
3
72
8
73
4
74
0
42
1e-07
43
1e-07
40
0
40
0
40
0
40
0
40
1
40
1
40
1
40
1
10
48.0848310333
20
32.2306074666
30
0
10
48.0551058834
20
32.3242615166
30
0
10
47.9731292334
20
32.4596068666
30
0
10
47.9027095834
20
32.5300275666
30
0
0
SPLINE
5
1E7
100
AcDbEntity
8
0
6
ByLayer
62
7
370
-1
100
AcDbSpline
210
0
220
0
230
1
70
8
71
3
72
8
73
4
74
0
42
1e-07
43
1e-07
40
0
40
0
40
0
40
0
40
1
40
1
40
1
40
1
10
47.9027095834
20
32.5300275666
30
0
10
47.7976969834
20
32.6350412167
30
0
10
47.7761506333
20
32.8128303666
30
0
10
47.7761506333
20
33.5208919167
30
0
0
SPLINE
5
1E8
100
AcDbEntity
8
0
6
ByLayer
62
7
370
-1
100
AcDbSpline
210
0
220
0
230
1
70
8
71
3
72
8
73
4
74
0
42
1e-07
43
1e-07
40
0
40
0
40
0
40
0
40
1
40
1
40
1
40
1
10
47.7761506333
20
33.5208919167
30
0
10
47.7761506333
20
34.0668940166
30
0
10
47.8064546833
20
34.4033728166
30
0
10
47.8594943833
20
34.4376731667
30
0
0
SPLINE
5
1E9
100
AcDbEntity
8
0
6
ByLayer
62
7
370
-1
100
AcDbSpline
210
0
220
0
230
1
70
8
71
3
72
8
73
4
74
0
42
1e-07
43
1e-07
40
0
40
0
40
0
40
0
40
1
40
1
40
1
40
1
10
47.8594943833
20
34.4376731667
30
0
10
47.9056194834
20
34.4675022667
30
0
10
47.9854824833
20
34.7749650167
30
0
10
48.0385291834
20
35.1198574666
30
0
0
SPLINE
5
1EA
100
AcDbEntity
8
0
6
ByLayer
62
7
370
-1
100
AcDbSpline
210
0
220
0
230
1
70
8
71
3
72
8
73
4
74
0
42
1e-07
43
1e-07
40
0
40
0
40
0
40
0
40
1
40
1
40
1
40
1
10
48.0385291834
20
35.1198574666
30
0
10
48.0915755334
20
35.4647509667
30
0
10
48.1654356833
20
35.7464789166
30
0
10
48.2021296834
20
35.7464789166
30
0
0
SPLINE
5
1EB
100
AcDbEntity
8
0
6
ByLayer
62
7
370
-1
100
AcDbSpline
210
0
220
0
230
1
70
8
71
3
72
8
73
4
74
0
42
1e-07
43
1e-07
40
0
40
0
40
0
40
0
40
1
40
1
40
1
40
1
10
48.2021296834
20
35.7464789166
30
0
10
48.2388236833
20
35.7464789166
30
0
10
48.2700601334
20
35.8060517167
30
0
10
48.2700394833
20
35.8792115167
30
0
0
SPLINE
5
1EC
100
AcDbEntity
8
0
6
ByLayer
62
7
370
-1
100
AcDbSpline
210
0
220
0
230
1
70
8
71
3
72
8
73
4
74
0
42
1e-07
43
1e-07
40
0
40
0
40
0
40
0
40
1
40
1
40
1
40
1
10
48.2700394833
20
35.8792115167
30
0
10
48.2699722834
20
36.1191396666
30
0
10
48.5320071333
20
37.1911039167
30
0
10
48.5910671833
20
37.1911039167
30
0
0
SPLINE
5
1ED
100
AcDbEntity
8
0
6
ByLayer
62
7
370
-1
100
AcDbSpline
210
0
220
0
230
1
70
8
71
3
72
8
73
4
74
0
42
1e-07
43
1e-07
40
0
40
0
40
0
40
0
40
1
40
1
40
1
40
1
10
48.5910671833
20
37.1911039167
30
0
10
48.6228006334
20
37.1911039167
30
0
10
48.6497166834
20
37.2654925667
30
0
10
48.6497166834
20
37.3547044167
30
0
0
SPLINE
5
1EE
100
AcDbEntity
8
0
6
ByLayer
62
7
370
-1
100
AcDbSpline
210
0
220
0
230
1
70
8
71
3
72
8
73
4
74
0
42
1e-07
43
1e-07
40
0
40
0
40
0
40
0
40
1
40
1
40
1
40
1
10
48.6497166834
20
37.3547044167
30
0
10
48.6497166834
20
37.5464155167
30
0
10
48.8094115334
20
38.1243446166
30
0
10
48.8781399834
20
38.1788816167
30
0
0
SPLINE
5
1EF
100
AcDbEntity
8
0
6
ByLayer
62
7
370
-1
100
AcDbSpline
210
0
220
0
230
1
70
8
71
3
72
8
73
4
74
0
42
1e-07
43
1e-07
40
0
40
0
40
0
40
0
40
1
40
1
40
1
40
1
10
48.8781399834
20
38.1788816167
30
0
10
48.9044820333
20
38.1997850166
30
0
10
48.9717418833
20
38.4330960667
30
0
10
49.0263068834
20
38.6943780667
30
0
0
SPLINE
5
1F0
100
AcDbEntity
8
0
6
ByLayer
62
7
370
-1
100
AcDbSpline
210
0
220
0
230
1
70
8
71
3
72
8
73
4
74
0
42
1e-07
43
1e-07
40
0
40
0
40
0
40
0
40
1
40
1
40
1
40
1
10
49.0263068834
20
38.6943780667
30
0
10
49.0808715333
20
38.9556611166
30
0
10
49.1513919834
20
39.1666593166
30
0
10
49.1806470834
20
39.1666593166
30
0
0
SPLINE
5
1F1
100
AcDbEntity
8
0
6
ByLayer
62
7
370
-1
100
AcDbSpline
210
0
220
0
230
1
70
8
71
3
72
8
73
4
74
0
42
1e-07
43
1e-07
40
0
40
0
40
0
40
0
40
1
40
1
40
1
40
1
10
49.1806470834
20
39.1666593166
30
0
10
49.2099011334
20
39.1666593166
30
0
10
49.2956451833
20
39.4403183666
30
0
10
49.3720291834
20
39.7747601666
30
0
0
SPLINE
5
1F2
100
AcDbEntity
8
0
6
ByLayer
62
7
370
-1
100
AcDbSpline
210
0
220
0
230
1
70
8
71
3
72
8
73
4
74
0
42
1e-07
43
1e-07
40
0
40
0
40
0
40
0
40
1
40
1
40
1
40
1
10
49.3720291834
20
39.7747601666
30
0
10
49.4484128333
20
40.1092019666
30
0
10
49.5352058333
20
40.3828606666
30
0
10
49.5664979333
20
40.3828606666
30
0
0
SPLINE
5
1F3
100
AcDbEntity
8
0
6
ByLayer
62
7
370
-1
100
AcDbSpline
210
0
220
0
230
1
70
8
71
3
72
8
73
4
74
0
42
1e-07
43
1e-07
40
0
40
0
40
0
40
0
40
1
40
1
40
1
40
1
10
49.5664979333
20
40.3828606666
30
0
10
49.5977907334
20
40.3828606666
30
0
10
49.6461432334
20
40.5204050666
30
0
10
49.6745359334
20
40.6884544167
30
0
0
SPLINE
5
1F4
100
AcDbEntity
8
0
6
ByLayer
62
7
370
-1
100
AcDbSpline
210
0
220
0
230
1
70
8
71
3
72
8
73
4
74
0
42
1e-07
43
1e-07
40
0
40
0
40
0
40
0
40
1
40
1
40
1
40
1
10
49.6745359334
20
40.6884544167
30
0
10
49.7029275833
20
40.8565030666
30
0
10
49.7687678333
20
41.0383105666
30
0
10
49.8196158333
20
41.0897392167
30
0
0
SPLINE
5
1F5
100
AcDbEntity
8
0
6
ByLayer
62
7
370
-1
100
AcDbSpline
210
0
220
0
230
1
70
8
71
3
72
8
73
4
74
0
42
1e-07
43
1e-07
40
0
40
0
40
0
40
0
40
1
40
1
40
1
40
1
10
49.8196158333
20
41.0897392167
30
0
10
49.8704627833
20
41.1411668166
30
0
10
49.9599640834
20
41.3529938166
30
0
10
50.0171712335
20
41.5620204666
30
0
0
SPLINE
5
1F6
100
AcDbEntity
8
0
6
ByLayer
62
7
370
-1
100
AcDbSpline
210
0
220
0
230
1
70
8
71
3
72
8
73
4
74
0
42
1e-07
43
1e-07
40
0
40
0
40
0
40
0
40
1
40
1
40
1
40
1
10
50.0171712335
20
41.5620204666
30
0
10
50.0743783835
20
41.7710460667
30
0
10
50.1402021835
20
41.9578368666
30
0
10
50.1653381335
20
41.9787392166
30
0
0
SPLINE
5
1F7
100
AcDbEntity
8
0
6
ByLayer
62
7
370
-1
100
AcDbSpline
210
0
220
0
230
1
70
8
71
3
72
8
73
4
74
0
42
1e-07
43
1e-07
40
0
40
0
40
0
40
0
40
1
40
1
40
1
40
1
10
50.1653381335
20
41.9787392166
30
0
10
50.1904740835
20
41.9996426167
30
0
10
50.2734307335
20
42.2248837166
30
0
10
50.3505462335
20
42.4757150666
30
0
0
SPLINE
5
1F8
100
AcDbEntity
8
0
6
ByLayer
62
7
370
-1
100
AcDbSpline
210
0
220
0
230
1
70
8
71
3
72
8
73
4
74
0
42
1e-07
43
1e-07
40
0
40
0
40
0
40
0
40
1
40
1
40
1
40
1
10
50.3505462335
20
42.4757150666
30
0
10
50.4599901835
20
42.8316993666
30
0
10
50.5669942835
20
43.0238458666
30
0
10
50.6530533335
20
43.0436873666
30
0
0
LWPOLYLINE
5
1F9
100
AcDbEntity
8
0
6
ByLayer
62
7
370
-1
100
AcDbPolyline
90
2
70
0
43
0
10
43.5009247834
20
55.2705240165
10
43.5009247834
20
55.2705240165
0
LWPOLYLINE
5
1FA
100
AcDbEntity
8
0
6
ByLayer
62
7
370
-1
100
AcDbPolyline
90
2
70
0
43
0
10
50.6530533335
20
43.0436873666
10
50.6530533335
20
43.0436873666
0
ENDSEC
0
SECTION
2
OBJECTS
0
DICTIONARY
5
C
330
0
100
AcDbDictionary
281
1
3
ACAD_GROUP
350
D
0
DICTIONARY
5
D
330
C
100
AcDbDictionary
281
1
0
ENDSEC
0
EOF
