  0
SECTION
  2
HEADER
  9
$ACADVER
  1
AC1014
  9
$HANDSEED
  5
FFFF
  9
$MEASUREMENT
 70
     1
  0
ENDSEC
  0
SECTION
  2
TABLES
  0
TABLE
  2
VPORT
  5
8
330
0
100
AcDbSymbolTable
 70
     4
  0
VPORT
  5
2E
330
8
100
AcDbSymbolTableRecord
100
AcDbViewportTableRecord
  2
*ACTIVE
 70
     0
 10
0.0
 20
0.0
 11
1.0
 21
1.0
 12
210.0
 22
148.5
 13
0.0
 23
0.0
 14
10.0
 24
10.0
 15
10.0
 25
10.0
 16
0.0
 26
0.0
 36
1.0
 17
0.0
 27
0.0
 37
0.0
 40
341.0
 41
1.24
 42
50.0
 43
0.0
 44
0.0
 50
0.0
 51
0.0
 71
     0
 72
   100
 73
     1
 74
     3
 75
     0
 76
     0
 77
     0
 78
     0
  0
ENDTAB
  0
TABLE
  2
LTYPE
  5
5
330
0
100
AcDbSymbolTable
 70
     1
  0
LTYPE
  5
14
330
5
100
AcDbSymbolTableRecord
100
AcDbLinetypeTableRecord
  2
BYBLOCK
 70
     0
  3

 72
    65
 73
     0
 40
0.0
  0
LTYPE
  5
15
330
5
100
AcDbSymbolTableRecord
100
AcDbLinetypeTableRecord
  2
BYLAYER
 70
     0
  3

 72
    65
 73
     0
 40
0.0
  0
LTYPE
  5
16
330
5
100
AcDbSymbolTableRecord
100
AcDbLinetypeTableRecord
  2
CONTINUOUS
 70
     0
  3
Solid line
 72
    65
 73
     0
 40
0.0
  0
ENDTAB
  0
TABLE
  2
LAYER
  5
2
100
AcDbSymbolTable
 70
1
  0
LAYER
  5
50
100
AcDbSymbolTableRecord
100
AcDbLayerTableRecord
  2
0
 70
0
  6
CONTINUOUS
  0
ENDTAB
  0
TABLE
  2
STYLE
  5
3
330
0
100
AcDbSymbolTable
 70
     1
  0
STYLE
  5
11
330
3
100
AcDbSymbolTableRecord
100
AcDbTextStyleTableRecord
  2
STANDARD
 70
     0
 40
0.0
 41
1.0
 50
0.0
 71
     0
 42
2.5
  3
txt
  4

  0
ENDTAB
  0
TABLE
  2
VIEW
  5
6
330
0
100
AcDbSymbolTable
 70
     0
  0
ENDTAB
  0
TABLE
  2
UCS
  5
7
330
0
100
AcDbSymbolTable
 70
     0
  0
ENDTAB
  0
TABLE
  2
APPID
  5
9
330
0
100
AcDbSymbolTable
 70
     2
  0
APPID
  5
12
330
9
100
AcDbSymbolTableRecord
100
AcDbRegAppTableRecord
  2
ACAD
 70
     0
  0
ENDTAB
  0
TABLE
  2
DIMSTYLE
  5
A
330
0
100
AcDbSymbolTable
 70
     1
  0
DIMSTYLE
105
27
330
A
100
AcDbSymbolTableRecord
100
AcDbDimStyleTableRecord
  2
ISO-25
 70
     0
  3

  4

  5

  6

  7

 40
1.0
 41
2.5
 42
0.625
 43
3.75
 44
1.25
 45
0.0
 46
0.0
 47
0.0
 48
0.0
140
2.5
141
2.5
142
0.0
143
0.03937007874016
144
1.0
145
0.0
146
1.0
147
0.625
 71
     0
 72
     0
 73
     0
 74
     0
 75
     0
 76
     0
 77
     1
 78
     8
170
     0
171
     3
172
     1
173
     0
174
     0
175
     0
176
     0
177
     0
178
     0
270
     2
271
     2
272
     2
273
     2
274
     3
340
11
275
     0
280
     0
281
     0
282
     0
283
     0
284
     8
285
     0
286
     0
287
     3
288
     0
  0
ENDTAB
  0
TABLE
  2
BLOCK_RECORD
  5
1
330
0
100
AcDbSymbolTable
 70
     1
  0
BLOCK_RECORD
  5
1F
330
1
100
AcDbSymbolTableRecord
100
AcDbBlockTableRecord
  2
*MODEL_SPACE
  0
BLOCK_RECORD
  5
1B
330
1
100
AcDbSymbolTableRecord
100
AcDbBlockTableRecord
  2
*PAPER_SPACE
  0
ENDTAB
  0
ENDSEC
  0
SECTION
  2
BLOCKS
  0
BLOCK
  5
20
330
1F
100
AcDbEntity
  8
0
100
AcDbBlockBegin
  2
*MODEL_SPACE
 70
     0
 10
0.0
 20
0.0
 30
0.0
  3
*MODEL_SPACE
  1

  0
ENDBLK
  5
21
330
1F
100
AcDbEntity
  8
0
100
AcDbBlockEnd
  0
BLOCK
  5
1C
330
1B
100
AcDbEntity
 67
     1
  8
0
100
AcDbBlockBegin
  2
*PAPER_SPACE
  1

  0
ENDBLK
  5
1D
330
1B
100
AcDbEntity
 67
     1
  8
0
100
AcDbBlockEnd
  0
ENDSEC
  0
SECTION
  2
ENTITIES
  0
SPLINE
  5
100
100
AcDbEntity
  8
0
 62
7
100
AcDbSpline
 70
8
 71
3
 72
8
 73
4
 74
0
 40
0
 40
0
 40
0
 40
0
 40
1
 40
1
 40
1
 40
1
 10
30.585833
 20
181.975577
 30
0.0
 10
30.386796
 20
181.975577
 30
0.0
 10
30.150675
 20
181.875555
 30
0.0
 10
29.942014
 20
181.666896
 30
0.0
  0
SPLINE
  5
101
100
AcDbEntity
  8
0
 62
7
100
AcDbSpline
 70
8
 71
3
 72
8
 73
4
 74
0
 40
0
 40
0
 40
0
 40
0
 40
1
 40
1
 40
1
 40
1
 10
29.942014
 20
181.666896
 30
0.0
 10
29.762851
 20
181.487731
 30
0.0
 10
29.508159
 20
181.340577
 30
0.0
 10
29.368750
 20
181.340577
 30
0.0
  0
SPLINE
  5
102
100
AcDbEntity
  8
0
 62
7
100
AcDbSpline
 70
8
 71
3
 72
8
 73
4
 74
0
 40
0
 40
0
 40
0
 40
0
 40
1
 40
1
 40
1
 40
1
 10
29.368750
 20
181.340577
 30
0.0
 10
29.096439
 20
181.340577
 30
0.0
 10
27.811199
 20
180.667815
 30
0.0
 10
27.631319
 20
180.432174
 30
0.0
  0
SPLINE
  5
103
100
AcDbEntity
  8
0
 62
7
100
AcDbSpline
 70
8
 71
3
 72
8
 73
4
 74
0
 40
0
 40
0
 40
0
 40
0
 40
1
 40
1
 40
1
 40
1
 10
27.631319
 20
180.432174
 30
0.0
 10
27.571409
 20
180.353696
 30
0.0
 10
27.199124
 20
180.208684
 30
0.0
 10
26.802292
 20
180.105854
 30
0.0
  0
SPLINE
  5
104
100
AcDbEntity
  8
0
 62
7
100
AcDbSpline
 70
8
 71
3
 72
8
 73
4
 74
0
 40
0
 40
0
 40
0
 40
0
 40
1
 40
1
 40
1
 40
1
 10
26.802292
 20
180.105854
 30
0.0
 10
26.343424
 20
179.986950
 30
0.0
 10
25.948998
 20
179.679171
 30
0.0
 10
25.717500
 20
179.268007
 30
0.0
  0
SPLINE
  5
105
100
AcDbEntity
  8
0
 62
7
100
AcDbSpline
 70
8
 71
3
 72
8
 73
4
 74
0
 40
0
 40
0
 40
0
 40
0
 40
1
 40
1
 40
1
 40
1
 10
25.717500
 20
179.268007
 30
0.0
 10
25.517303
 20
178.912430
 30
0.0
 10
25.185692
 20
178.498654
 30
0.0
 10
24.976667
 20
178.341965
 30
0.0
  0
SPLINE
  5
106
100
AcDbEntity
  8
0
 62
7
100
AcDbSpline
 70
8
 71
3
 72
8
 73
4
 74
0
 40
0
 40
0
 40
0
 40
0
 40
1
 40
1
 40
1
 40
1
 10
24.976667
 20
178.341965
 30
0.0
 10
24.767642
 20
178.185277
 30
0.0
 10
24.597431
 20
177.928315
 30
0.0
 10
24.597431
 20
177.768702
 30
0.0
  0
SPLINE
  5
107
100
AcDbEntity
  8
0
 62
7
100
AcDbSpline
 70
8
 71
3
 72
8
 73
4
 74
0
 40
0
 40
0
 40
0
 40
0
 40
1
 40
1
 40
1
 40
1
 10
24.597431
 20
177.768702
 30
0.0
 10
24.597431
 20
177.497818
 30
0.0
 10
24.151751
 20
177.213077
 30
0.0
 10
23.724306
 20
177.213077
 30
0.0
  0
SPLINE
  5
108
100
AcDbEntity
  8
0
 62
7
100
AcDbSpline
 70
8
 71
3
 72
8
 73
4
 74
0
 40
0
 40
0
 40
0
 40
0
 40
1
 40
1
 40
1
 40
1
 10
23.724306
 20
177.213077
 30
0.0
 10
23.621498
 20
177.213077
 30
0.0
 10
23.505270
 20
177.620527
 30
0.0
 10
23.468542
 20
178.121479
 30
0.0
  0
SPLINE
  5
109
100
AcDbEntity
  8
0
 62
7
100
AcDbSpline
 70
8
 71
3
 72
8
 73
4
 74
0
 40
0
 40
0
 40
0
 40
0
 40
1
 40
1
 40
1
 40
1
 10
22.965833
 20
178.174396
 30
0.0
 10
22.726946
 20
177.703304
 30
0.0
 10
22.462561
 20
177.273192
 30
0.0
 10
22.383750
 20
177.213077
 30
0.0
  0
SPLINE
  5
10a
100
AcDbEntity
  8
0
 62
7
100
AcDbSpline
 70
8
 71
3
 72
8
 73
4
 74
0
 40
0
 40
0
 40
0
 40
0
 40
1
 40
1
 40
1
 40
1
 10
22.383750
 20
177.213077
 30
0.0
 10
22.304937
 20
177.152961
 30
0.0
 10
22.114527
 20
176.486357
 30
0.0
 10
21.960417
 20
175.740229
 30
0.0
  0
SPLINE
  5
10b
100
AcDbEntity
  8
0
 62
7
100
AcDbSpline
 70
8
 71
3
 72
8
 73
4
 74
0
 40
0
 40
0
 40
0
 40
0
 40
1
 40
1
 40
1
 40
1
 10
21.960417
 20
175.740229
 30
0.0
 10
21.806306
 20
174.994102
 30
0.0
 10
21.617201
 20
174.390854
 30
0.0
 10
21.537083
 20
174.390854
 30
0.0
  0
SPLINE
  5
10c
100
AcDbEntity
  8
0
 62
7
100
AcDbSpline
 70
8
 71
3
 72
8
 73
4
 74
0
 40
0
 40
0
 40
0
 40
0
 40
1
 40
1
 40
1
 40
1
 10
21.537083
 20
174.390854
 30
0.0
 10
21.456966
 20
174.390854
 30
0.0
 10
21.326788
 20
173.799305
 30
0.0
 10
21.246042
 20
173.085577
 30
0.0
  0
SPLINE
  5
10d
100
AcDbEntity
  8
0
 62
7
100
AcDbSpline
 70
8
 71
3
 72
8
 73
4
 74
0
 40
0
 40
0
 40
0
 40
0
 40
1
 40
1
 40
1
 40
1
 10
21.246042
 20
173.085577
 30
0.0
 10
21.165292
 20
172.371848
 30
0.0
 10
20.960997
 20
171.654003
 30
0.0
 10
20.787431
 20
171.480438
 30
0.0
  0
SPLINE
  5
10e
100
AcDbEntity
  8
0
 62
7
100
AcDbSpline
 70
8
 71
3
 72
8
 73
4
 74
0
 40
0
 40
0
 40
0
 40
0
 40
1
 40
1
 40
1
 40
1
 10
20.787431
 20
171.480438
 30
0.0
 10
20.613867
 20
171.306872
 30
0.0
 10
20.469931
 20
171.056551
 30
0.0
 10
20.469931
 20
170.933632
 30
0.0
  0
SPLINE
  5
10f
100
AcDbEntity
  8
0
 62
7
100
AcDbSpline
 70
8
 71
3
 72
8
 73
4
 74
0
 40
0
 40
0
 40
0
 40
0
 40
1
 40
1
 40
1
 40
1
 10
20.469931
 20
170.933632
 30
0.0
 10
20.469931
 20
170.810714
 30
0.0
 10
19.939169
 20
170.198753
 30
0.0
 10
19.296944
 20
169.566618
 30
0.0
  0
SPLINE
  5
110
100
AcDbEntity
  8
0
 62
7
100
AcDbSpline
 70
8
 71
3
 72
8
 73
4
 74
0
 40
0
 40
0
 40
0
 40
0
 40
1
 40
1
 40
1
 40
1
 10
19.296944
 20
169.566618
 30
0.0
 10
17.909458
 20
168.200926
 30
0.0
 10
17.682453
 20
167.631731
 30
0.0
 10
18.194514
 20
166.850229
 30
0.0
  0
SPLINE
  5
111
100
AcDbEntity
  8
0
 62
7
100
AcDbSpline
 70
8
 71
3
 72
8
 73
4
 74
0
 40
0
 40
0
 40
0
 40
0
 40
1
 40
1
 40
1
 40
1
 10
18.194514
 20
166.850229
 30
0.0
 10
18.554127
 20
166.301378
 30
0.0
 10
18.544035
 20
165.375427
 30
0.0
 10
18.168056
 20
164.036827
 30
0.0
  0
SPLINE
  5
112
100
AcDbEntity
  8
0
 62
7
100
AcDbSpline
 70
8
 71
3
 72
8
 73
4
 74
0
 40
0
 40
0
 40
0
 40
0
 40
1
 40
1
 40
1
 40
1
 10
18.168056
 20
164.036827
 30
0.0
 10
18.080073
 20
163.723591
 30
0.0
 10
18.187554
 20
163.417608
 30
0.0
 10
18.485556
 20
163.119604
 30
0.0
  0
SPLINE
  5
113
100
AcDbEntity
  8
0
 62
7
100
AcDbSpline
 70
8
 71
3
 72
8
 73
4
 74
0
 40
0
 40
0
 40
0
 40
0
 40
1
 40
1
 40
1
 40
1
 10
18.485556
 20
163.119604
 30
0.0
 10
18.870097
 20
162.735064
 30
0.0
 10
18.962277
 20
162.217179
 30
0.0
 10
19.173472
 20
159.353702
 30
0.0
  0
SPLINE
  5
114
100
AcDbEntity
  8
0
 62
7
100
AcDbSpline
 70
8
 71
3
 72
8
 73
4
 74
0
 40
0
 40
0
 40
0
 40
0
 40
1
 40
1
 40
1
 40
1
 10
19.173472
 20
159.353702
 30
0.0
 10
19.314840
 20
157.436975
 30
0.0
 10
19.520628
 20
155.972897
 30
0.0
 10
19.658542
 20
155.887660
 30
0.0
  0
SPLINE
  5
115
100
AcDbEntity
  8
0
 62
7
100
AcDbSpline
 70
8
 71
3
 72
8
 73
4
 74
0
 40
0
 40
0
 40
0
 40
0
 40
1
 40
1
 40
1
 40
1
 10
19.658542
 20
155.887660
 30
0.0
 10
19.988186
 20
155.683935
 30
0.0
 10
20.004024
 20
151.833699
 30
0.0
 10
19.676181
 20
151.627868
 30
0.0
  0
SPLINE
  5
116
100
AcDbEntity
  8
0
 62
7
100
AcDbSpline
 70
8
 71
3
 72
8
 73
4
 74
0
 40
0
 40
0
 40
0
 40
0
 40
1
 40
1
 40
1
 40
1
 10
19.676181
 20
151.627868
 30
0.0
 10
19.540076
 20
151.542417
 30
0.0
 10
19.307384
 20
151.059532
 30
0.0
 10
19.155833
 20
150.551896
 30
0.0
  0
SPLINE
  5
117
100
AcDbEntity
  8
0
 62
7
100
AcDbSpline
 70
8
 71
3
 72
8
 73
4
 74
0
 40
0
 40
0
 40
0
 40
0
 40
1
 40
1
 40
1
 40
1
 10
19.155833
 20
150.551896
 30
0.0
 10
19.004283
 20
150.044263
 30
0.0
 10
18.813052
 20
149.625854
 30
0.0
 10
18.732500
 20
149.625854
 30
0.0
  0
SPLINE
  5
118
100
AcDbEntity
  8
0
 62
7
100
AcDbSpline
 70
8
 71
3
 72
8
 73
4
 74
0
 40
0
 40
0
 40
0
 40
0
 40
1
 40
1
 40
1
 40
1
 10
18.732500
 20
149.625854
 30
0.0
 10
18.651951
 20
149.625854
 30
0.0
 10
18.397045
 20
149.046057
 30
0.0
 10
18.168056
 20
148.329396
 30
0.0
  0
SPLINE
  5
119
100
AcDbEntity
  8
0
 62
7
100
AcDbSpline
 70
8
 71
3
 72
8
 73
4
 74
0
 40
0
 40
0
 40
0
 40
0
 40
1
 40
1
 40
1
 40
1
 10
18.168056
 20
148.329396
 30
0.0
 10
17.939069
 20
147.612735
 30
0.0
 10
17.687857
 20
147.024118
 30
0.0
 10
17.612431
 20
147.024118
 30
0.0
  0
SPLINE
  5
11a
100
AcDbEntity
  8
0
 62
7
100
AcDbSpline
 70
8
 71
3
 72
8
 73
4
 74
0
 40
0
 40
0
 40
0
 40
0
 40
1
 40
1
 40
1
 40
1
 10
17.612431
 20
147.024118
 30
0.0
 10
17.537007
 20
147.024118
 30
0.0
 10
17.368537
 20
146.582655
 30
0.0
 10
17.233194
 20
146.045160
 30
0.0
  0
SPLINE
  5
11b
100
AcDbEntity
  8
0
 62
7
100
AcDbSpline
 70
8
 71
3
 72
8
 73
4
 74
0
 40
0
 40
0
 40
0
 40
0
 40
1
 40
1
 40
1
 40
1
 10
17.233194
 20
146.045160
 30
0.0
 10
17.097852
 20
145.507665
 30
0.0
 10
16.908506
 20
145.066202
 30
0.0
 10
16.809861
 20
145.066202
 30
0.0
  0
SPLINE
  5
11c
100
AcDbEntity
  8
0
 62
7
100
AcDbSpline
 70
8
 71
3
 72
8
 73
4
 74
0
 40
0
 40
0
 40
0
 40
0
 40
1
 40
1
 40
1
 40
1
 10
16.809861
 20
145.066202
 30
0.0
 10
16.711213
 20
145.066202
 30
0.0
 10
16.500026
 20
144.532517
 30
0.0
 10
16.342431
 20
143.875577
 30
0.0
  0
SPLINE
  5
11d
100
AcDbEntity
  8
0
 62
7
100
AcDbSpline
 70
8
 71
3
 72
8
 73
4
 74
0
 40
0
 40
0
 40
0
 40
0
 40
1
 40
1
 40
1
 40
1
 10
16.342431
 20
143.875577
 30
0.0
 10
16.184832
 20
143.218639
 30
0.0
 10
15.984257
 20
142.684952
 30
0.0
 10
15.901458
 20
142.684952
 30
0.0
  0
SPLINE
  5
11e
100
AcDbEntity
  8
0
 62
7
100
AcDbSpline
 70
8
 71
3
 72
8
 73
4
 74
0
 40
0
 40
0
 40
0
 40
0
 40
1
 40
1
 40
1
 40
1
 10
15.901458
 20
142.684952
 30
0.0
 10
15.818663
 20
142.684952
 30
0.0
 10
15.571972
 20
141.700984
 30
0.0
 10
15.345833
 20
140.506549
 30
0.0
  0
SPLINE
  5
11f
100
AcDbEntity
  8
0
 62
7
100
AcDbSpline
 70
8
 71
3
 72
8
 73
4
 74
0
 40
0
 40
0
 40
0
 40
0
 40
1
 40
1
 40
1
 40
1
 10
15.345833
 20
140.506549
 30
0.0
 10
15.119691
 20
139.312117
 30
0.0
 10
14.862607
 20
138.336965
 30
0.0
 10
14.772569
 20
138.336965
 30
0.0
  0
SPLINE
  5
120
100
AcDbEntity
  8
0
 62
7
100
AcDbSpline
 70
8
 71
3
 72
8
 73
4
 74
0
 40
0
 40
0
 40
0
 40
0
 40
1
 40
1
 40
1
 40
1
 10
14.772569
 20
138.336965
 30
0.0
 10
14.682535
 20
138.336965
 30
0.0
 10
14.605000
 20
138.083911
 30
0.0
 10
14.605000
 20
137.772521
 30
0.0
  0
SPLINE
  5
121
100
AcDbEntity
  8
0
 62
7
100
AcDbSpline
 70
8
 71
3
 72
8
 73
4
 74
0
 40
0
 40
0
 40
0
 40
0
 40
1
 40
1
 40
1
 40
1
 10
14.605000
 20
137.772521
 30
0.0
 10
14.605000
 20
137.336900
 30
0.0
 10
14.683582
 20
137.235147
 30
0.0
 10
14.957778
 20
137.340368
 30
0.0
  0
SPLINE
  5
122
100
AcDbEntity
  8
0
 62
7
100
AcDbSpline
 70
8
 71
3
 72
8
 73
4
 74
0
 40
0
 40
0
 40
0
 40
0
 40
1
 40
1
 40
1
 40
1
 10
14.957778
 20
137.340368
 30
0.0
 10
15.588889
 20
137.582546
 30
0.0
 10
16.050226
 20
137.264439
 30
0.0
 10
16.342431
 20
136.379049
 30
0.0
  0
SPLINE
  5
123
100
AcDbEntity
  8
0
 62
7
100
AcDbSpline
 70
8
 71
3
 72
8
 73
4
 74
0
 40
0
 40
0
 40
0
 40
0
 40
1
 40
1
 40
1
 40
1
 10
16.342431
 20
136.379049
 30
0.0
 10
16.499380
 20
135.903487
 30
0.0
 10
16.697568
 20
135.514743
 30
0.0
 10
16.783403
 20
135.514743
 30
0.0
  0
SPLINE
  5
124
100
AcDbEntity
  8
0
 62
7
100
AcDbSpline
 70
8
 71
3
 72
8
 73
4
 74
0
 40
0
 40
0
 40
0
 40
0
 40
1
 40
1
 40
1
 40
1
 10
16.783403
 20
135.514743
 30
0.0
 10
16.869238
 20
135.514743
 30
0.0
 10
17.058310
 20
135.220433
 30
0.0
 10
17.206736
 20
134.862104
 30
0.0
  0
SPLINE
  5
125
100
AcDbEntity
  8
0
 62
7
100
AcDbSpline
 70
8
 71
3
 72
8
 73
4
 74
0
 40
0
 40
0
 40
0
 40
0
 40
1
 40
1
 40
1
 40
1
 10
17.206736
 20
134.862104
 30
0.0
 10
17.355160
 20
134.503772
 30
0.0
 10
17.569214
 20
134.209465
 30
0.0
 10
17.674167
 20
134.209465
 30
0.0
  0
SPLINE
  5
126
100
AcDbEntity
  8
0
 62
7
100
AcDbSpline
 70
8
 71
3
 72
8
 73
4
 74
0
 40
0
 40
0
 40
0
 40
0
 40
1
 40
1
 40
1
 40
1
 10
17.674167
 20
134.209465
 30
0.0
 10
17.779119
 20
134.209465
 30
0.0
 10
17.859375
 20
134.037468
 30
0.0
 10
17.859375
 20
133.821410
 30
0.0
  0
SPLINE
  5
127
100
AcDbEntity
  8
0
 62
7
100
AcDbSpline
 70
8
 71
3
 72
8
 73
4
 74
0
 40
0
 40
0
 40
0
 40
0
 40
1
 40
1
 40
1
 40
1
 10
17.859375
 20
133.821410
 30
0.0
 10
17.859375
 20
133.605352
 30
0.0
 10
18.005975
 20
133.233058
 30
0.0
 10
18.176875
 20
133.001202
 30
0.0
  0
SPLINE
  5
128
100
AcDbEntity
  8
0
 62
7
100
AcDbSpline
 70
8
 71
3
 72
8
 73
4
 74
0
 40
0
 40
0
 40
0
 40
0
 40
1
 40
1
 40
1
 40
1
 10
18.176875
 20
133.001202
 30
0.0
 10
18.458222
 20
132.619504
 30
0.0
 10
18.467451
 20
132.671961
 30
0.0
 10
18.353264
 20
133.556827
 30
0.0
  0
SPLINE
  5
129
100
AcDbEntity
  8
0
 62
7
100
AcDbSpline
 70
8
 71
3
 72
8
 73
4
 74
0
 40
0
 40
0
 40
0
 40
0
 40
1
 40
1
 40
1
 40
1
 10
18.353264
 20
133.556827
 30
0.0
 10
18.283905
 20
134.094322
 30
0.0
 10
18.150744
 20
134.586263
 30
0.0
 10
18.053403
 20
134.650438
 30
0.0
  0
SPLINE
  5
12a
100
AcDbEntity
  8
0
 62
7
100
AcDbSpline
 70
8
 71
3
 72
8
 73
4
 74
0
 40
0
 40
0
 40
0
 40
0
 40
1
 40
1
 40
1
 40
1
 10
18.053403
 20
134.650438
 30
0.0
 10
17.766984
 20
134.839273
 30
0.0
 10
17.539267
 20
138.989604
 30
0.0
 10
17.815278
 20
138.989604
 30
0.0
  0
SPLINE
  5
12b
100
AcDbEntity
  8
0
 62
7
100
AcDbSpline
 70
8
 71
3
 72
8
 73
4
 74
0
 40
0
 40
0
 40
0
 40
0
 40
1
 40
1
 40
1
 40
1
 10
17.815278
 20
138.989604
 30
0.0
 10
18.078789
 20
138.989604
 30
0.0
 10
18.197861
 20
138.644607
 30
0.0
 10
18.406181
 20
137.305090
 30
0.0
  0
SPLINE
  5
12c
100
AcDbEntity
  8
0
 62
7
100
AcDbSpline
 70
8
 71
3
 72
8
 73
4
 74
0
 40
0
 40
0
 40
0
 40
0
 40
1
 40
1
 40
1
 40
1
 10
18.406181
 20
137.305090
 30
0.0
 10
18.485127
 20
136.797455
 30
0.0
 10
18.623173
 20
136.379049
 30
0.0
 10
18.706042
 20
136.379049
 30
0.0
  0
SPLINE
  5
12d
100
AcDbEntity
  8
0
 62
7
100
AcDbSpline
 70
8
 71
3
 72
8
 73
4
 74
0
 40
0
 40
0
 40
0
 40
0
 40
1
 40
1
 40
1
 40
1
 10
18.706042
 20
136.379049
 30
0.0
 10
18.788908
 20
136.379049
 30
0.0
 10
18.979492
 20
135.946405
 30
0.0
 10
19.138194
 20
135.408910
 30
0.0
  0
SPLINE
  5
12e
100
AcDbEntity
  8
0
 62
7
100
AcDbSpline
 70
8
 71
3
 72
8
 73
4
 74
0
 40
0
 40
0
 40
0
 40
0
 40
1
 40
1
 40
1
 40
1
 10
19.138194
 20
135.408910
 30
0.0
 10
19.296899
 20
134.871415
 30
0.0
 10
19.463024
 20
134.429952
 30
0.0
 10
19.499792
 20
134.429952
 30
0.0
  0
SPLINE
  5
12f
100
AcDbEntity
  8
0
 62
7
100
AcDbSpline
 70
8
 71
3
 72
8
 73
4
 74
0
 40
0
 40
0
 40
0
 40
0
 40
1
 40
1
 40
1
 40
1
 10
19.499792
 20
134.429952
 30
0.0
 10
19.903553
 20
134.429952
 30
0.0
 10
20.249444
 20
134.795347
 30
0.0
 10
20.249444
 20
135.214882
 30
0.0
  0
SPLINE
  5
130
100
AcDbEntity
  8
0
 62
7
100
AcDbSpline
 70
8
 71
3
 72
8
 73
4
 74
0
 40
0
 40
0
 40
0
 40
0
 40
1
 40
1
 40
1
 40
1
 10
20.249444
 20
135.214882
 30
0.0
 10
20.249444
 20
135.610896
 30
0.0
 10
20.366434
 20
135.735229
 30
0.0
 10
20.743333
 20
135.735229
 30
0.0
  0
SPLINE
  5
131
100
AcDbEntity
  8
0
 62
7
100
AcDbSpline
 70
8
 71
3
 72
8
 73
4
 74
0
 40
0
 40
0
 40
0
 40
0
 40
1
 40
1
 40
1
 40
1
 10
20.743333
 20
135.735229
 30
0.0
 10
21.318031
 20
135.735229
 30
0.0
 10
22.197497
 20
135.168369
 30
0.0
 10
22.216181
 20
134.791549
 30
0.0
  0
SPLINE
  5
132
100
AcDbEntity
  8
0
 62
7
100
AcDbSpline
 70
8
 71
3
 72
8
 73
4
 74
0
 40
0
 40
0
 40
0
 40
0
 40
1
 40
1
 40
1
 40
1
 10
22.216181
 20
134.791549
 30
0.0
 10
22.223242
 20
134.649018
 30
0.0
 10
22.667821
 20
134.149253
 30
0.0
 10
23.203958
 20
133.671479
 30
0.0
  0
SPLINE
  5
133
100
AcDbEntity
  8
0
 62
7
100
AcDbSpline
 70
8
 71
3
 72
8
 73
4
 74
0
 40
0
 40
0
 40
0
 40
0
 40
1
 40
1
 40
1
 40
1
 10
23.203958
 20
133.671479
 30
0.0
 10
23.740093
 20
133.193705
 30
0.0
 10
24.596872
 20
132.411823
 30
0.0
 10
25.108958
 20
131.934049
 30
0.0
  0
SPLINE
  5
134
100
AcDbEntity
  8
0
 62
7
100
AcDbSpline
 70
8
 71
3
 72
8
 73
4
 74
0
 40
0
 40
0
 40
0
 40
0
 40
1
 40
1
 40
1
 40
1
 10
25.108958
 20
131.934049
 30
0.0
 10
25.621042
 20
131.456275
 30
0.0
 10
26.330642
 20
130.913581
 30
0.0
 10
26.678819
 20
130.734604
 30
0.0
  0
SPLINE
  5
135
100
AcDbEntity
  8
0
 62
7
100
AcDbSpline
 70
8
 71
3
 72
8
 73
4
 74
0
 40
0
 40
0
 40
0
 40
0
 40
1
 40
1
 40
1
 40
1
 10
26.678819
 20
130.734604
 30
0.0
 10
27.026994
 20
130.555630
 30
0.0
 10
27.359932
 20
130.356302
 30
0.0
 10
27.419653
 20
130.293632
 30
0.0
  0
SPLINE
  5
136
100
AcDbEntity
  8
0
 62
7
100
AcDbSpline
 70
8
 71
3
 72
8
 73
4
 74
0
 40
0
 40
0
 40
0
 40
0
 40
1
 40
1
 40
1
 40
1
 10
27.419653
 20
130.293632
 30
0.0
 10
27.827946
 20
129.865174
 30
0.0
 10
28.737636
 20
129.474587
 30
0.0
 10
29.104167
 20
129.570438
 30
0.0
  0
SPLINE
  5
137
100
AcDbEntity
  8
0
 62
7
100
AcDbSpline
 70
8
 71
3
 72
8
 73
4
 74
0
 40
0
 40
0
 40
0
 40
0
 40
1
 40
1
 40
1
 40
1
 10
29.104167
 20
129.570438
 30
0.0
 10
29.344778
 20
129.633359
 30
0.0
 10
29.603841
 20
129.592493
 30
0.0
 10
29.677431
 20
129.473424
 30
0.0
  0
SPLINE
  5
138
100
AcDbEntity
  8
0
 62
7
100
AcDbSpline
 70
8
 71
3
 72
8
 73
4
 74
0
 40
0
 40
0
 40
0
 40
0
 40
1
 40
1
 40
1
 40
1
 10
29.677431
 20
129.473424
 30
0.0
 10
29.942703
 20
129.044200
 30
0.0
 10
29.563850
 20
128.652549
 30
0.0
 10
28.610278
 20
128.370993
 30
0.0
  0
SPLINE
  5
139
100
AcDbEntity
  8
0
 62
7
100
AcDbSpline
 70
8
 71
3
 72
8
 73
4
 74
0
 40
0
 40
0
 40
0
 40
0
 40
1
 40
1
 40
1
 40
1
 10
28.610278
 20
128.370993
 30
0.0
 10
28.075910
 20
128.213211
 30
0.0
 10
27.631319
 20
127.981891
 30
0.0
 10
27.631319
 20
127.859465
 30
0.0
  0
SPLINE
  5
13a
100
AcDbEntity
  8
0
 62
7
100
AcDbSpline
 70
8
 71
3
 72
8
 73
4
 74
0
 40
0
 40
0
 40
0
 40
0
 40
1
 40
1
 40
1
 40
1
 10
27.631319
 20
127.859465
 30
0.0
 10
27.631319
 20
127.737043
 30
0.0
 10
27.414999
 20
127.416286
 30
0.0
 10
27.146250
 20
127.145090
 30
0.0
  0
SPLINE
  5
13b
100
AcDbEntity
  8
0
 62
7
100
AcDbSpline
 70
8
 71
3
 72
8
 73
4
 74
0
 40
0
 40
0
 40
0
 40
0
 40
1
 40
1
 40
1
 40
1
 10
27.146250
 20
127.145090
 30
0.0
 10
26.250931
 20
126.241618
 30
0.0
 10
26.048089
 20
125.915253
 30
0.0
 10
26.273125
 20
125.769257
 30
0.0
  0
SPLINE
  5
13c
100
AcDbEntity
  8
0
 62
7
100
AcDbSpline
 70
8
 71
3
 72
8
 73
4
 74
0
 40
0
 40
0
 40
0
 40
0
 40
1
 40
1
 40
1
 40
1
 10
26.273125
 20
125.769257
 30
0.0
 10
26.391754
 20
125.692292
 30
0.0
 10
26.603359
 20
125.264669
 30
0.0
 10
26.749375
 20
124.816757
 30
0.0
  0
SPLINE
  5
13d
100
AcDbEntity
  8
0
 62
7
100
AcDbSpline
 70
8
 71
3
 72
8
 73
4
 74
0
 40
0
 40
0
 40
0
 40
0
 40
1
 40
1
 40
1
 40
1
 10
26.749375
 20
124.816757
 30
0.0
 10
26.895391
 20
124.368845
 30
0.0
 10
27.082869
 20
124.005368
 30
0.0
 10
27.163889
 20
124.005368
 30
0.0
  0
SPLINE
  5
13e
100
AcDbEntity
  8
0
 62
7
100
AcDbSpline
 70
8
 71
3
 72
8
 73
4
 74
0
 40
0
 40
0
 40
0
 40
0
 40
1
 40
1
 40
1
 40
1
 10
27.163889
 20
124.005368
 30
0.0
 10
27.244912
 20
124.005368
 30
0.0
 10
27.452207
 20
123.688004
 30
0.0
 10
27.622500
 20
123.299813
 30
0.0
  0
SPLINE
  5
13f
100
AcDbEntity
  8
0
 62
7
100
AcDbSpline
 70
8
 71
3
 72
8
 73
4
 74
0
 40
0
 40
0
 40
0
 40
0
 40
1
 40
1
 40
1
 40
1
 10
27.622500
 20
123.299813
 30
0.0
 10
27.792796
 20
122.911622
 30
0.0
 10
28.081704
 20
122.476181
 30
0.0
 10
28.266319
 20
122.338493
 30
0.0
  0
SPLINE
  5
140
100
AcDbEntity
  8
0
 62
7
100
AcDbSpline
 70
8
 71
3
 72
8
 73
4
 74
0
 40
0
 40
0
 40
0
 40
0
 40
1
 40
1
 40
1
 40
1
 10
28.266319
 20
122.338493
 30
0.0
 10
28.471029
 20
122.185817
 30
0.0
 10
28.601458
 20
121.754858
 30
0.0
 10
28.601458
 20
121.227243
 30
0.0
  0
SPLINE
  5
141
100
AcDbEntity
  8
0
 62
7
100
AcDbSpline
 70
8
 71
3
 72
8
 73
4
 74
0
 40
0
 40
0
 40
0
 40
0
 40
1
 40
1
 40
1
 40
1
 10
28.601458
 20
121.227243
 30
0.0
 10
28.601458
 20
120.530973
 30
0.0
 10
28.464693
 20
120.232808
 30
0.0
 10
27.895903
 20
119.701479
 30
0.0
  0
SPLINE
  5
142
100
AcDbEntity
  8
0
 62
7
100
AcDbSpline
 70
8
 71
3
 72
8
 73
4
 74
0
 40
0
 40
0
 40
0
 40
0
 40
1
 40
1
 40
1
 40
1
 10
27.895903
 20
119.701479
 30
0.0
 10
27.507195
 20
119.338369
 30
0.0
 10
26.890418
 20
118.978316
 30
0.0
 10
26.528889
 20
118.898910
 30
0.0
  0
SPLINE
  5
143
100
AcDbEntity
  8
0
 62
7
100
AcDbSpline
 70
8
 71
3
 72
8
 73
4
 74
0
 40
0
 40
0
 40
0
 40
0
 40
1
 40
1
 40
1
 40
1
 10
26.528889
 20
118.898910
 30
0.0
 10
26.167357
 20
118.819504
 30
0.0
 10
25.499260
 20
118.392239
 30
0.0
 10
25.038403
 20
117.955229
 30
0.0
  0
SPLINE
  5
144
100
AcDbEntity
  8
0
 62
7
100
AcDbSpline
 70
8
 71
3
 72
8
 73
4
 74
0
 40
0
 40
0
 40
0
 40
0
 40
1
 40
1
 40
1
 40
1
 10
25.038403
 20
117.955229
 30
0.0
 10
24.577548
 20
117.518220
 30
0.0
 10
23.844165
 20
116.851563
 30
0.0
 10
23.415625
 20
116.473563
 30
0.0
  0
SPLINE
  5
145
100
AcDbEntity
  8
0
 62
7
100
AcDbSpline
 70
8
 71
3
 72
8
 73
4
 74
0
 40
0
 40
0
 40
0
 40
0
 40
1
 40
1
 40
1
 40
1
 10
23.415625
 20
116.473563
 30
0.0
 10
22.987090
 20
116.095566
 30
0.0
 10
22.639514
 20
115.685979
 30
0.0
 10
22.639514
 20
115.556340
 30
0.0
  0
SPLINE
  5
146
100
AcDbEntity
  8
0
 62
7
100
AcDbSpline
 70
8
 71
3
 72
8
 73
4
 74
0
 40
0
 40
0
 40
0
 40
0
 40
1
 40
1
 40
1
 40
1
 10
22.639514
 20
115.556340
 30
0.0
 10
22.639514
 20
115.426704
 30
0.0
 10
22.515466
 20
115.318215
 30
0.0
 10
22.366111
 20
115.318215
 30
0.0
  0
SPLINE
  5
147
100
AcDbEntity
  8
0
 62
7
100
AcDbSpline
 70
8
 71
3
 72
8
 73
4
 74
0
 40
0
 40
0
 40
0
 40
0
 40
1
 40
1
 40
1
 40
1
 10
22.366111
 20
115.318215
 30
0.0
 10
22.027975
 20
115.318215
 30
0.0
 10
20.249444
 20
113.709585
 30
0.0
 10
20.249444
 20
113.404396
 30
0.0
  0
SPLINE
  5
148
100
AcDbEntity
  8
0
 62
7
100
AcDbSpline
 70
8
 71
3
 72
8
 73
4
 74
0
 40
0
 40
0
 40
0
 40
0
 40
1
 40
1
 40
1
 40
1
 10
20.249444
 20
113.404396
 30
0.0
 10
20.249444
 20
113.281277
 30
0.0
 10
19.955135
 20
112.904755
 30
0.0
 10
19.596806
 20
112.566549
 30
0.0
  0
SPLINE
  5
149
100
AcDbEntity
  8
0
 62
7
100
AcDbSpline
 70
8
 71
3
 72
8
 73
4
 74
0
 40
0
 40
0
 40
0
 40
0
 40
1
 40
1
 40
1
 40
1
 10
19.596806
 20
112.566549
 30
0.0
 10
19.238476
 20
112.228342
 30
0.0
 10
18.944167
 20
111.849665
 30
0.0
 10
18.944167
 20
111.728702
 30
0.0
  0
SPLINE
  5
14a
100
AcDbEntity
  8
0
 62
7
100
AcDbSpline
 70
8
 71
3
 72
8
 73
4
 74
0
 40
0
 40
0
 40
0
 40
0
 40
1
 40
1
 40
1
 40
1
 10
18.944167
 20
111.728702
 30
0.0
 10
18.944167
 20
111.607744
 30
0.0
 10
18.762305
 20
111.401056
 30
0.0
 10
18.538472
 20
111.261271
 30
0.0
  0
SPLINE
  5
14b
100
AcDbEntity
  8
0
 62
7
100
AcDbSpline
 70
8
 71
3
 72
8
 73
4
 74
0
 40
0
 40
0
 40
0
 40
0
 40
1
 40
1
 40
1
 40
1
 10
18.538472
 20
111.261271
 30
0.0
 10
18.314639
 20
111.121484
 30
0.0
 10
18.065541
 20
110.735268
 30
0.0
 10
17.982847
 20
110.405785
 30
0.0
  0
SPLINE
  5
14c
100
AcDbEntity
  8
0
 62
7
100
AcDbSpline
 70
8
 71
3
 72
8
 73
4
 74
0
 40
0
 40
0
 40
0
 40
0
 40
1
 40
1
 40
1
 40
1
 10
17.982847
 20
110.405785
 30
0.0
 10
17.900150
 20
110.076305
 30
0.0
 10
17.688780
 20
109.703576
 30
0.0
 10
17.515417
 20
109.576757
 30
0.0
  0
SPLINE
  5
14d
100
AcDbEntity
  8
0
 62
7
100
AcDbSpline
 70
8
 71
3
 72
8
 73
4
 74
0
 40
0
 40
0
 40
0
 40
0
 40
1
 40
1
 40
1
 40
1
 10
17.515417
 20
109.576757
 30
0.0
 10
17.342053
 20
109.449935
 30
0.0
 10
17.140936
 20
108.828205
 30
0.0
 10
17.065625
 20
108.192104
 30
0.0
  0
SPLINE
  5
14e
100
AcDbEntity
  8
0
 62
7
100
AcDbSpline
 70
8
 71
3
 72
8
 73
4
 74
0
 40
0
 40
0
 40
0
 40
0
 40
1
 40
1
 40
1
 40
1
 10
17.065625
 20
108.192104
 30
0.0
 10
16.935450
 20
107.092606
 30
0.0
 10
16.840815
 20
106.947575
 30
0.0
 10
15.116528
 20
105.246410
 30
0.0
  0
SPLINE
  5
14f
100
AcDbEntity
  8
0
 62
7
100
AcDbSpline
 70
8
 71
3
 72
8
 73
4
 74
0
 40
0
 40
0
 40
0
 40
0
 40
1
 40
1
 40
1
 40
1
 10
15.116528
 20
105.246410
 30
0.0
 10
14.118965
 20
104.262225
 30
0.0
 10
13.299722
 20
103.332986
 30
0.0
 10
13.299722
 20
103.191479
 30
0.0
  0
SPLINE
  5
150
100
AcDbEntity
  8
0
 62
7
100
AcDbSpline
 70
8
 71
3
 72
8
 73
4
 74
0
 40
0
 40
0
 40
0
 40
0
 40
1
 40
1
 40
1
 40
1
 10
13.299722
 20
103.191479
 30
0.0
 10
13.299722
 20
103.049976
 30
0.0
 10
13.210715
 20
102.935715
 30
0.0
 10
13.096875
 20
102.935715
 30
0.0
  0
SPLINE
  5
151
100
AcDbEntity
  8
0
 62
7
100
AcDbSpline
 70
8
 71
3
 72
8
 73
4
 74
0
 40
0
 40
0
 40
0
 40
0
 40
1
 40
1
 40
1
 40
1
 10
13.096875
 20
102.935715
 30
0.0
 10
12.983035
 20
102.935715
 30
0.0
 10
12.716070
 20
102.572239
 30
0.0
 10
12.505972
 20
102.124327
 30
0.0
  0
SPLINE
  5
152
100
AcDbEntity
  8
0
 62
7
100
AcDbSpline
 70
8
 71
3
 72
8
 73
4
 74
0
 40
0
 40
0
 40
0
 40
0
 40
1
 40
1
 40
1
 40
1
 10
12.505972
 20
102.124327
 30
0.0
 10
12.295875
 20
101.676414
 30
0.0
 10
12.006227
 20
101.187611
 30
0.0
 10
11.862153
 20
101.039535
 30
0.0
  0
SPLINE
  5
153
100
AcDbEntity
  8
0
 62
7
100
AcDbSpline
 70
8
 71
3
 72
8
 73
4
 74
0
 40
0
 40
0
 40
0
 40
0
 40
1
 40
1
 40
1
 40
1
 10
11.862153
 20
101.039535
 30
0.0
 10
11.718076
 20
100.891459
 30
0.0
 10
11.532125
 20
100.449992
 30
0.0
 10
11.447639
 20
100.060577
 30
0.0
  0
SPLINE
  5
154
100
AcDbEntity
  8
0
 62
7
100
AcDbSpline
 70
8
 71
3
 72
8
 73
4
 74
0
 40
0
 40
0
 40
0
 40
0
 40
1
 40
1
 40
1
 40
1
 10
11.447639
 20
100.060577
 30
0.0
 10
11.363150
 20
99.671155
 30
0.0
 10
11.185062
 20
99.281499
 30
0.0
 10
11.050764
 20
99.196271
 30
0.0
  0
SPLINE
  5
155
100
AcDbEntity
  8
0
 62
7
100
AcDbSpline
 70
8
 71
3
 72
8
 73
4
 74
0
 40
0
 40
0
 40
0
 40
0
 40
1
 40
1
 40
1
 40
1
 10
11.050764
 20
99.196271
 30
0.0
 10
10.732098
 20
98.994042
 30
0.0
 10
10.715916
 20
94.298220
 30
0.0
 10
11.033125
 20
94.080993
 30
0.0
  0
SPLINE
  5
156
100
AcDbEntity
  8
0
 62
7
100
AcDbSpline
 70
8
 71
3
 72
8
 73
4
 74
0
 40
0
 40
0
 40
0
 40
0
 40
1
 40
1
 40
1
 40
1
 10
11.033125
 20
94.080993
 30
0.0
 10
11.157579
 20
93.995768
 30
0.0
 10
11.390060
 20
93.512654
 30
0.0
 10
11.553472
 20
93.005021
 30
0.0
  0
SPLINE
  5
157
100
AcDbEntity
  8
0
 62
7
100
AcDbSpline
 70
8
 71
3
 72
8
 73
4
 74
0
 40
0
 40
0
 40
0
 40
0
 40
1
 40
1
 40
1
 40
1
 10
11.553472
 20
93.005021
 30
0.0
 10
11.716887
 20
92.497385
 30
0.0
 10
11.926183
 20
92.078979
 30
0.0
 10
12.020903
 20
92.078979
 30
0.0
  0
SPLINE
  5
158
100
AcDbEntity
  8
0
 62
7
100
AcDbSpline
 70
8
 71
3
 72
8
 73
4
 74
0
 40
0
 40
0
 40
0
 40
0
 40
1
 40
1
 40
1
 40
1
 10
12.020903
 20
92.078979
 30
0.0
 10
12.115625
 20
92.078979
 30
0.0
 10
12.350118
 20
91.749745
 30
0.0
 10
12.541250
 20
91.346965
 30
0.0
  0
SPLINE
  5
159
100
AcDbEntity
  8
0
 62
7
100
AcDbSpline
 70
8
 71
3
 72
8
 73
4
 74
0
 40
0
 40
0
 40
0
 40
0
 40
1
 40
1
 40
1
 40
1
 10
12.541250
 20
91.346965
 30
0.0
 10
12.767660
 20
90.869841
 30
0.0
 10
13.191092
 20
90.478709
 30
0.0
 10
13.749514
 20
90.226896
 30
0.0
  0
SPLINE
  5
15a
100
AcDbEntity
  8
0
 62
7
100
AcDbSpline
 70
8
 71
3
 72
8
 73
4
 74
0
 40
0
 40
0
 40
0
 40
0
 40
1
 40
1
 40
1
 40
1
 10
13.749514
 20
90.226896
 30
0.0
 10
14.220924
 20
90.014321
 30
0.0
 10
14.605000
 20
89.768209
 30
0.0
 10
14.605000
 20
89.680090
 30
0.0
  0
SPLINE
  5
15b
100
AcDbEntity
  8
0
 62
7
100
AcDbSpline
 70
8
 71
3
 72
8
 73
4
 74
0
 40
0
 40
0
 40
0
 40
0
 40
1
 40
1
 40
1
 40
1
 10
14.605000
 20
89.680090
 30
0.0
 10
14.605000
 20
89.591969
 30
0.0
 10
15.046463
 20
89.389004
 30
0.0
 10
15.583958
 20
89.230299
 30
0.0
  0
SPLINE
  5
15c
100
AcDbEntity
  8
0
 62
7
100
AcDbSpline
 70
8
 71
3
 72
8
 73
4
 74
0
 40
0
 40
0
 40
0
 40
0
 40
1
 40
1
 40
1
 40
1
 10
15.583958
 20
89.230299
 30
0.0
 10
16.121453
 20
89.071597
 30
0.0
 10
16.562917
 20
88.881427
 30
0.0
 10
16.562917
 20
88.806965
 30
0.0
  0
SPLINE
  5
15d
100
AcDbEntity
  8
0
 62
7
100
AcDbSpline
 70
8
 71
3
 72
8
 73
4
 74
0
 40
0
 40
0
 40
0
 40
0
 40
1
 40
1
 40
1
 40
1
 10
16.562917
 20
88.806965
 30
0.0
 10
16.562917
 20
88.732504
 30
0.0
 10
16.947842
 20
88.559891
 30
0.0
 10
17.418403
 20
88.418910
 30
0.0
  0
SPLINE
  5
15e
100
AcDbEntity
  8
0
 62
7
100
AcDbSpline
 70
8
 71
3
 72
8
 73
4
 74
0
 40
0
 40
0
 40
0
 40
0
 40
1
 40
1
 40
1
 40
1
 10
17.418403
 20
88.418910
 30
0.0
 10
17.934234
 20
88.264362
 30
0.0
 10
18.323983
 20
87.989977
 30
0.0
 10
18.406181
 20
87.730993
 30
0.0
  0
SPLINE
  5
15f
100
AcDbEntity
  8
0
 62
7
100
AcDbSpline
 70
8
 71
3
 72
8
 73
4
 74
0
 40
0
 40
0
 40
0
 40
0
 40
1
 40
1
 40
1
 40
1
 10
18.406181
 20
87.730993
 30
0.0
 10
18.481164
 20
87.494739
 30
0.0
 10
18.629924
 20
87.298840
 30
0.0
 10
18.741319
 20
87.298840
 30
0.0
  0
SPLINE
  5
160
100
AcDbEntity
  8
0
 62
7
100
AcDbSpline
 70
8
 71
3
 72
8
 73
4
 74
0
 40
0
 40
0
 40
0
 40
0
 40
1
 40
1
 40
1
 40
1
 10
18.741319
 20
87.298840
 30
0.0
 10
18.859085
 20
87.298840
 30
0.0
 10
18.944167
 20
85.664779
 30
0.0
 10
18.944167
 20
83.391827
 30
0.0
  0
SPLINE
  5
161
100
AcDbEntity
  8
0
 62
7
100
AcDbSpline
 70
8
 71
3
 72
8
 73
4
 74
0
 40
0
 40
0
 40
0
 40
0
 40
1
 40
1
 40
1
 40
1
 10
18.944167
 20
83.391827
 30
0.0
 10
18.944167
 20
81.241844
 30
0.0
 10
18.869180
 20
79.484813
 30
0.0
 10
18.767778
 20
79.484813
 30
0.0
  0
SPLINE
  5
162
100
AcDbEntity
  8
0
 62
7
100
AcDbSpline
 70
8
 71
3
 72
8
 73
4
 74
0
 40
0
 40
0
 40
0
 40
0
 40
1
 40
1
 40
1
 40
1
 10
18.767778
 20
79.484813
 30
0.0
 10
18.666378
 20
79.484813
 30
0.0
 10
18.522651
 20
78.512004
 30
0.0
 10
18.450278
 20
77.324049
 30
0.0
  0
SPLINE
  5
163
100
AcDbEntity
  8
0
 62
7
100
AcDbSpline
 70
8
 71
3
 72
8
 73
4
 74
0
 40
0
 40
0
 40
0
 40
0
 40
1
 40
1
 40
1
 40
1
 10
18.450278
 20
77.324049
 30
0.0
 10
18.280005
 20
74.529132
 30
0.0
 10
17.843799
 20
71.450299
 30
0.0
 10
17.621250
 20
71.450299
 30
0.0
  0
SPLINE
  5
164
100
AcDbEntity
  8
0
 62
7
100
AcDbSpline
 70
8
 71
3
 72
8
 73
4
 74
0
 40
0
 40
0
 40
0
 40
0
 40
1
 40
1
 40
1
 40
1
 10
17.621250
 20
71.450299
 30
0.0
 10
17.525320
 20
71.450299
 30
0.0
 10
17.382490
 20
71.102742
 30
0.0
 10
17.303750
 20
70.683007
 30
0.0
  0
SPLINE
  5
165
100
AcDbEntity
  8
0
 62
7
100
AcDbSpline
 70
8
 71
3
 72
8
 73
4
 74
0
 40
0
 40
0
 40
0
 40
0
 40
1
 40
1
 40
1
 40
1
 10
17.303750
 20
70.683007
 30
0.0
 10
17.225007
 20
70.263275
 30
0.0
 10
17.051584
 20
69.853686
 30
0.0
 10
16.915694
 20
69.765785
 30
0.0
  0
SPLINE
  5
166
100
AcDbEntity
  8
0
 62
7
100
AcDbSpline
 70
8
 71
3
 72
8
 73
4
 74
0
 40
0
 40
0
 40
0
 40
0
 40
1
 40
1
 40
1
 40
1
 10
16.915694
 20
69.765785
 30
0.0
 10
16.779802
 20
69.677884
 30
0.0
 10
16.521402
 20
69.312725
 30
0.0
 10
16.342431
 20
68.954396
 30
0.0
  0
SPLINE
  5
167
100
AcDbEntity
  8
0
 62
7
100
AcDbSpline
 70
8
 71
3
 72
8
 73
4
 74
0
 40
0
 40
0
 40
0
 40
0
 40
1
 40
1
 40
1
 40
1
 10
16.342431
 20
68.954396
 30
0.0
 10
16.163462
 20
68.596064
 30
0.0
 10
15.845900
 20
68.175612
 30
0.0
 10
15.636875
 20
68.019535
 30
0.0
  0
SPLINE
  5
168
100
AcDbEntity
  8
0
 62
7
100
AcDbSpline
 70
8
 71
3
 72
8
 73
4
 74
0
 40
0
 40
0
 40
0
 40
0
 40
1
 40
1
 40
1
 40
1
 10
15.636875
 20
68.019535
 30
0.0
 10
15.427847
 20
67.863458
 30
0.0
 10
15.257639
 20
67.609206
 30
0.0
 10
15.257639
 20
67.455090
 30
0.0
  0
SPLINE
  5
169
100
AcDbEntity
  8
0
 62
7
100
AcDbSpline
 70
8
 71
3
 72
8
 73
4
 74
0
 40
0
 40
0
 40
0
 40
0
 40
1
 40
1
 40
1
 40
1
 10
15.257639
 20
67.455090
 30
0.0
 10
15.257639
 20
67.300975
 30
0.0
 10
15.055367
 20
66.937910
 30
0.0
 10
14.807847
 20
66.652521
 30
0.0
  0
SPLINE
  5
16a
100
AcDbEntity
  8
0
 62
7
100
AcDbSpline
 70
8
 71
3
 72
8
 73
4
 74
0
 40
0
 40
0
 40
0
 40
0
 40
1
 40
1
 40
1
 40
1
 10
14.807847
 20
66.652521
 30
0.0
 10
14.560330
 20
66.367129
 30
0.0
 10
14.300604
 20
65.862553
 30
0.0
 10
14.234583
 20
65.532452
 30
0.0
  0
SPLINE
  5
16b
100
AcDbEntity
  8
0
 62
7
100
AcDbSpline
 70
8
 71
3
 72
8
 73
4
 74
0
 40
0
 40
0
 40
0
 40
0
 40
1
 40
1
 40
1
 40
1
 10
14.234583
 20
65.532452
 30
0.0
 10
14.168563
 20
65.202348
 30
0.0
 10
14.038563
 20
64.932729
 30
0.0
 10
13.943542
 20
64.932729
 30
0.0
  0
SPLINE
  5
16c
100
AcDbEntity
  8
0
 62
7
100
AcDbSpline
 70
8
 71
3
 72
8
 73
4
 74
0
 40
0
 40
0
 40
0
 40
0
 40
1
 40
1
 40
1
 40
1
 10
13.943542
 20
64.932729
 30
0.0
 10
13.848517
 20
64.932729
 30
0.0
 10
13.701251
 20
64.618571
 30
0.0
 10
13.617222
 20
64.235993
 30
0.0
  0
SPLINE
  5
16d
100
AcDbEntity
  8
0
 62
7
100
AcDbSpline
 70
8
 71
3
 72
8
 73
4
 74
0
 40
0
 40
0
 40
0
 40
0
 40
1
 40
1
 40
1
 40
1
 10
13.617222
 20
64.235993
 30
0.0
 10
13.530975
 20
63.843312
 30
0.0
 10
13.048708
 20
63.120676
 30
0.0
 10
12.505972
 20
62.577938
 30
0.0
  0
SPLINE
  5
16e
100
AcDbEntity
  8
0
 62
7
100
AcDbSpline
 70
8
 71
3
 72
8
 73
4
 74
0
 40
0
 40
0
 40
0
 40
0
 40
1
 40
1
 40
1
 40
1
 10
12.505972
 20
62.577938
 30
0.0
 10
11.977201
 20
62.049169
 30
0.0
 10
11.489744
 20
61.342064
 30
0.0
 10
11.421181
 20
60.999257
 30
0.0
  0
SPLINE
  5
16f
100
AcDbEntity
  8
0
 62
7
100
AcDbSpline
 70
8
 71
3
 72
8
 73
4
 74
0
 40
0
 40
0
 40
0
 40
0
 40
1
 40
1
 40
1
 40
1
 10
11.421181
 20
60.999257
 30
0.0
 10
11.352617
 20
60.656445
 30
0.0
 10
11.208193
 20
60.373077
 30
0.0
 10
11.103681
 20
60.373077
 30
0.0
  0
SPLINE
  5
170
100
AcDbEntity
  8
0
 62
7
100
AcDbSpline
 70
8
 71
3
 72
8
 73
4
 74
0
 40
0
 40
0
 40
0
 40
0
 40
1
 40
1
 40
1
 40
1
 10
11.103681
 20
60.373077
 30
0.0
 10
10.999165
 20
60.373077
 30
0.0
 10
10.909653
 20
60.124879
 30
0.0
 10
10.909653
 20
59.826271
 30
0.0
  0
SPLINE
  5
171
100
AcDbEntity
  8
0
 62
7
100
AcDbSpline
 70
8
 71
3
 72
8
 73
4
 74
0
 40
0
 40
0
 40
0
 40
0
 40
1
 40
1
 40
1
 40
1
 10
10.909653
 20
59.826271
 30
0.0
 10
10.909653
 20
59.527663
 30
0.0
 10
11.010697
 20
59.288285
 30
0.0
 10
11.130139
 20
59.288285
 30
0.0
  0
SPLINE
  5
172
100
AcDbEntity
  8
0
 62
7
100
AcDbSpline
 70
8
 71
3
 72
8
 73
4
 74
0
 40
0
 40
0
 40
0
 40
0
 40
1
 40
1
 40
1
 40
1
 10
11.130139
 20
59.288285
 30
0.0
 10
11.249584
 20
59.288285
 30
0.0
 10
11.350625
 20
59.161415
 30
0.0
 10
11.350625
 20
59.006063
 30
0.0
  0
SPLINE
  5
173
100
AcDbEntity
  8
0
 62
7
100
AcDbSpline
 70
8
 71
3
 72
8
 73
4
 74
0
 40
0
 40
0
 40
0
 40
0
 40
1
 40
1
 40
1
 40
1
 10
11.350625
 20
59.006063
 30
0.0
 10
11.350625
 20
58.606532
 30
0.0
 10
11.861148
 20
57.552830
 30
0.0
 10
12.056181
 20
57.550854
 30
0.0
  0
SPLINE
  5
174
100
AcDbEntity
  8
0
 62
7
100
AcDbSpline
 70
8
 71
3
 72
8
 73
4
 74
0
 40
0
 40
0
 40
0
 40
0
 40
1
 40
1
 40
1
 40
1
 10
12.056181
 20
57.550854
 30
0.0
 10
12.145761
 20
57.549923
 30
0.0
 10
12.214931
 20
57.403698
 30
0.0
 10
12.214931
 20
57.224535
 30
0.0
  0
SPLINE
  5
175
100
AcDbEntity
  8
0
 62
7
100
AcDbSpline
 70
8
 71
3
 72
8
 73
4
 74
0
 40
0
 40
0
 40
0
 40
0
 40
1
 40
1
 40
1
 40
1
 10
12.214931
 20
57.224535
 30
0.0
 10
12.214931
 20
57.045369
 30
0.0
 10
12.136072
 20
56.898215
 30
0.0
 10
12.038542
 20
56.898215
 30
0.0
  0
SPLINE
  5
176
100
AcDbEntity
  8
0
 62
7
100
AcDbSpline
 70
8
 71
3
 72
8
 73
4
 74
0
 40
0
 40
0
 40
0
 40
0
 40
1
 40
1
 40
1
 40
1
 10
12.038542
 20
56.898215
 30
0.0
 10
11.941011
 20
56.898215
 30
0.0
 10
11.734252
 20
56.263486
 30
0.0
 10
11.579931
 20
55.487104
 30
0.0
  0
SPLINE
  5
177
100
AcDbEntity
  8
0
 62
7
100
AcDbSpline
 70
8
 71
3
 72
8
 73
4
 74
0
 40
0
 40
0
 40
0
 40
0
 40
1
 40
1
 40
1
 40
1
 10
11.579931
 20
55.487104
 30
0.0
 10
11.425611
 20
54.710722
 30
0.0
 10
11.229484
 20
54.075993
 30
0.0
 10
11.147778
 20
54.075993
 30
0.0
  0
SPLINE
  5
178
100
AcDbEntity
  8
0
 62
7
100
AcDbSpline
 70
8
 71
3
 72
8
 73
4
 74
0
 40
0
 40
0
 40
0
 40
0
 40
1
 40
1
 40
1
 40
1
 10
11.147778
 20
54.075993
 30
0.0
 10
10.986640
 20
54.075993
 30
0.0
 10
10.477500
 20
52.324576
 30
0.0
 10
10.477500
 20
51.774118
 30
0.0
  0
SPLINE
  5
179
100
AcDbEntity
  8
0
 62
7
100
AcDbSpline
 70
8
 71
3
 72
8
 73
4
 74
0
 40
0
 40
0
 40
0
 40
0
 40
1
 40
1
 40
1
 40
1
 10
10.477500
 20
51.774118
 30
0.0
 10
10.477500
 20
51.588137
 30
0.0
 10
10.339411
 20
51.300888
 30
0.0
 10
10.168819
 20
51.130299
 30
0.0
  0
SPLINE
  5
17a
100
AcDbEntity
  8
0
 62
7
100
AcDbSpline
 70
8
 71
3
 72
8
 73
4
 74
0
 40
0
 40
0
 40
0
 40
0
 40
1
 40
1
 40
1
 40
1
 10
10.168819
 20
51.130299
 30
0.0
 10
9.998233
 20
50.959710
 30
0.0
 10
9.733763
 20
50.279156
 30
0.0
 10
9.586736
 20
49.622174
 30
0.0
  0
SPLINE
  5
17b
100
AcDbEntity
  8
0
 62
7
100
AcDbSpline
 70
8
 71
3
 72
8
 73
4
 74
0
 40
0
 40
0
 40
0
 40
0
 40
1
 40
1
 40
1
 40
1
 10
9.586736
 20
49.622174
 30
0.0
 10
9.439710
 20
48.965191
 30
0.0
 10
9.244480
 20
48.431549
 30
0.0
 10
9.145764
 20
48.431549
 30
0.0
  0
SPLINE
  5
17c
100
AcDbEntity
  8
0
 62
7
100
AcDbSpline
 70
8
 71
3
 72
8
 73
4
 74
0
 40
0
 40
0
 40
0
 40
0
 40
1
 40
1
 40
1
 40
1
 10
9.145764
 20
48.431549
 30
0.0
 10
9.047045
 20
48.431549
 30
0.0
 10
8.857773
 20
47.990085
 30
0.0
 10
8.722431
 20
47.452590
 30
0.0
  0
SPLINE
  5
17d
100
AcDbEntity
  8
0
 62
7
100
AcDbSpline
 70
8
 71
3
 72
8
 73
4
 74
0
 40
0
 40
0
 40
0
 40
0
 40
1
 40
1
 40
1
 40
1
 10
8.722431
 20
47.452590
 30
0.0
 10
8.587088
 20
46.915095
 30
0.0
 10
8.400409
 20
46.473632
 30
0.0
 10
8.316736
 20
46.473632
 30
0.0
  0
SPLINE
  5
17e
100
AcDbEntity
  8
0
 62
7
100
AcDbSpline
 70
8
 71
3
 72
8
 73
4
 74
0
 40
0
 40
0
 40
0
 40
0
 40
1
 40
1
 40
1
 40
1
 10
8.316736
 20
46.473632
 30
0.0
 10
8.233066
 20
46.473632
 30
0.0
 10
8.038392
 20
45.986057
 30
0.0
 10
7.875764
 20
45.388840
 30
0.0
  0
SPLINE
  5
17f
100
AcDbEntity
  8
0
 62
7
100
AcDbSpline
 70
8
 71
3
 72
8
 73
4
 74
0
 40
0
 40
0
 40
0
 40
0
 40
1
 40
1
 40
1
 40
1
 10
7.875764
 20
45.388840
 30
0.0
 10
7.713136
 20
44.791624
 30
0.0
 10
7.497366
 20
44.304049
 30
0.0
 10
7.399514
 20
44.304049
 30
0.0
  0
SPLINE
  5
180
100
AcDbEntity
  8
0
 62
7
100
AcDbSpline
 70
8
 71
3
 72
8
 73
4
 74
0
 40
0
 40
0
 40
0
 40
0
 40
1
 40
1
 40
1
 40
1
 10
7.399514
 20
44.304049
 30
0.0
 10
7.301662
 20
44.304049
 30
0.0
 10
7.223125
 20
43.714391
 30
0.0
 10
7.223125
 20
42.998771
 30
0.0
  0
SPLINE
  5
181
100
AcDbEntity
  8
0
 62
7
100
AcDbSpline
 70
8
 71
3
 72
8
 73
4
 74
0
 40
0
 40
0
 40
0
 40
0
 40
1
 40
1
 40
1
 40
1
 10
7.223125
 20
42.998771
 30
0.0
 10
7.223125
 20
41.836207
 30
0.0
 10
7.293641
 20
41.632443
 30
0.0
 10
7.875764
 20
41.076132
 30
0.0
  0
SPLINE
  5
182
100
AcDbEntity
  8
0
 62
7
100
AcDbSpline
 70
8
 71
3
 72
8
 73
4
 74
0
 40
0
 40
0
 40
0
 40
0
 40
1
 40
1
 40
1
 40
1
 10
7.875764
 20
41.076132
 30
0.0
 10
8.483600
 20
40.495251
 30
0.0
 10
8.770930
 20
39.523910
 30
0.0
 10
8.334375
 20
39.523910
 30
0.0
  0
SPLINE
  5
183
100
AcDbEntity
  8
0
 62
7
100
AcDbSpline
 70
8
 71
3
 72
8
 73
4
 74
0
 40
0
 40
0
 40
0
 40
0
 40
1
 40
1
 40
1
 40
1
 10
8.334375
 20
39.523910
 30
0.0
 10
8.227881
 20
39.523910
 30
0.0
 10
8.074183
 20
39.284532
 30
0.0
 10
7.999236
 20
38.985924
 30
0.0
  0
SPLINE
  5
184
100
AcDbEntity
  8
0
 62
7
100
AcDbSpline
 70
8
 71
3
 72
8
 73
4
 74
0
 40
0
 40
0
 40
0
 40
0
 40
1
 40
1
 40
1
 40
1
 10
7.999236
 20
38.985924
 30
0.0
 10
7.924289
 20
38.687313
 30
0.0
 10
7.740568
 20
38.439683
 30
0.0
 10
7.593542
 20
38.439118
 30
0.0
  0
SPLINE
  5
185
100
AcDbEntity
  8
0
 62
7
100
AcDbSpline
 70
8
 71
3
 72
8
 73
4
 74
0
 40
0
 40
0
 40
0
 40
0
 40
1
 40
1
 40
1
 40
1
 10
7.593542
 20
38.439118
 30
0.0
 10
7.446512
 20
38.438777
 30
0.0
 10
7.135693
 20
38.144123
 30
0.0
 10
6.896806
 20
37.786479
 30
0.0
  0
SPLINE
  5
186
100
AcDbEntity
  8
0
 62
7
100
AcDbSpline
 70
8
 71
3
 72
8
 73
4
 74
0
 40
0
 40
0
 40
0
 40
0
 40
1
 40
1
 40
1
 40
1
 10
6.896806
 20
37.786479
 30
0.0
 10
6.657919
 20
37.428836
 30
0.0
 10
6.335484
 20
37.134123
 30
0.0
 10
6.182431
 20
37.133840
 30
0.0
  0
SPLINE
  5
187
100
AcDbEntity
  8
0
 62
7
100
AcDbSpline
 70
8
 71
3
 72
8
 73
4
 74
0
 40
0
 40
0
 40
0
 40
0
 40
1
 40
1
 40
1
 40
1
 10
6.182431
 20
37.133840
 30
0.0
 10
6.029378
 20
37.133493
 30
0.0
 10
5.838248
 20
36.963629
 30
0.0
 10
5.759097
 20
36.754604
 30
0.0
  0
SPLINE
  5
188
100
AcDbEntity
  8
0
 62
7
100
AcDbSpline
 70
8
 71
3
 72
8
 73
4
 74
0
 40
0
 40
0
 40
0
 40
0
 40
1
 40
1
 40
1
 40
1
 10
5.759097
 20
36.754604
 30
0.0
 10
5.679947
 20
36.545576
 30
0.0
 10
5.503817
 20
36.254227
 30
0.0
 10
5.362222
 20
36.110785
 30
0.0
  0
SPLINE
  5
189
100
AcDbEntity
  8
0
 62
7
100
AcDbSpline
 70
8
 71
3
 72
8
 73
4
 74
0
 40
0
 40
0
 40
0
 40
0
 40
1
 40
1
 40
1
 40
1
 10
5.362222
 20
36.110785
 30
0.0
 10
5.220627
 20
35.967340
 30
0.0
 10
5.032785
 20
35.479493
 30
0.0
 10
4.947708
 20
35.025993
 30
0.0
  0
SPLINE
  5
18a
100
AcDbEntity
  8
0
 62
7
100
AcDbSpline
 70
8
 71
3
 72
8
 73
4
 74
0
 40
0
 40
0
 40
0
 40
0
 40
1
 40
1
 40
1
 40
1
 10
4.947708
 20
35.025993
 30
0.0
 10
4.862631
 20
34.572493
 30
0.0
 10
4.722575
 20
34.159946
 30
0.0
 10
4.639028
 20
34.099952
 30
0.0
  0
SPLINE
  5
18b
100
AcDbEntity
  8
0
 62
7
100
AcDbSpline
 70
8
 71
3
 72
8
 73
4
 74
0
 40
0
 40
0
 40
0
 40
0
 40
1
 40
1
 40
1
 40
1
 10
4.639028
 20
34.099952
 30
0.0
 10
4.555480
 20
34.039957
 30
0.0
 10
4.313648
 20
33.236992
 30
0.0
 10
4.101042
 20
32.318424
 30
0.0
  0
SPLINE
  5
18c
100
AcDbEntity
  8
0
 62
7
100
AcDbSpline
 70
8
 71
3
 72
8
 73
4
 74
0
 40
0
 40
0
 40
0
 40
0
 40
1
 40
1
 40
1
 40
1
 10
4.101042
 20
32.318424
 30
0.0
 10
3.888435
 20
31.399855
 30
0.0
 10
3.598018
 20
30.610285
 30
0.0
 10
3.457222
 20
30.563354
 30
0.0
  0
SPLINE
  5
18d
100
AcDbEntity
  8
0
 62
7
100
AcDbSpline
 70
8
 71
3
 72
8
 73
4
 74
0
 40
0
 40
0
 40
0
 40
0
 40
1
 40
1
 40
1
 40
1
 10
3.457222
 20
30.563354
 30
0.0
 10
3.285996
 20
30.506281
 30
0.0
 10
3.201458
 20
29.831662
 30
0.0
 10
3.201458
 20
28.526063
 30
0.0
  0
SPLINE
  5
18e
100
AcDbEntity
  8
0
 62
7
100
AcDbSpline
 70
8
 71
3
 72
8
 73
4
 74
0
 40
0
 40
0
 40
0
 40
0
 40
1
 40
1
 40
1
 40
1
 10
3.201458
 20
28.526063
 30
0.0
 10
3.201458
 20
26.957266
 30
0.0
 10
3.275509
 20
26.494097
 30
0.0
 10
3.580694
 20
26.188910
 30
0.0
  0
SPLINE
  5
18f
100
AcDbEntity
  8
0
 62
7
100
AcDbSpline
 70
8
 71
3
 72
8
 73
4
 74
0
 40
0
 40
0
 40
0
 40
0
 40
1
 40
1
 40
1
 40
1
 10
3.580694
 20
26.188910
 30
0.0
 10
3.789541
 20
25.980063
 30
0.0
 10
4.020145
 20
25.576507
 30
0.0
 10
4.092222
 20
25.289327
 30
0.0
  0
SPLINE
  5
190
100
AcDbEntity
  8
0
 62
7
100
AcDbSpline
 70
8
 71
3
 72
8
 73
4
 74
0
 40
0
 40
0
 40
0
 40
0
 40
1
 40
1
 40
1
 40
1
 10
4.092222
 20
25.289327
 30
0.0
 10
4.250173
 20
24.660002
 30
0.0
 10
3.747565
 20
20.200507
 30
0.0
 10
3.518958
 20
20.200507
 30
0.0
  0
SPLINE
  5
191
100
AcDbEntity
  8
0
 62
7
100
AcDbSpline
 70
8
 71
3
 72
8
 73
4
 74
0
 40
0
 40
0
 40
0
 40
0
 40
1
 40
1
 40
1
 40
1
 10
3.518958
 20
20.200507
 30
0.0
 10
3.430330
 20
20.200507
 30
0.0
 10
3.241943
 20
19.216539
 30
0.0
 10
3.095625
 20
18.022104
 30
0.0
  0
SPLINE
  5
192
100
AcDbEntity
  8
0
 62
7
100
AcDbSpline
 70
8
 71
3
 72
8
 73
4
 74
0
 40
0
 40
0
 40
0
 40
0
 40
1
 40
1
 40
1
 40
1
 10
3.095625
 20
18.022104
 30
0.0
 10
2.949308
 20
16.827672
 30
0.0
 10
2.755874
 20
15.852521
 30
0.0
 10
2.672292
 20
15.852521
 30
0.0
  0
SPLINE
  5
193
100
AcDbEntity
  8
0
 62
7
100
AcDbSpline
 70
8
 71
3
 72
8
 73
4
 74
0
 40
0
 40
0
 40
0
 40
0
 40
1
 40
1
 40
1
 40
1
 10
2.672292
 20
15.852521
 30
0.0
 10
2.588710
 20
15.852521
 30
0.0
 10
2.390696
 20
14.684107
 30
0.0
 10
2.231319
 20
13.250785
 30
0.0
  0
SPLINE
  5
194
100
AcDbEntity
  8
0
 62
7
100
AcDbSpline
 70
8
 71
3
 72
8
 73
4
 74
0
 40
0
 40
0
 40
0
 40
0
 40
1
 40
1
 40
1
 40
1
 10
2.231319
 20
13.250785
 30
0.0
 10
2.071943
 20
11.817466
 30
0.0
 10
1.883024
 20
10.640229
 30
0.0
 10
1.807986
 20
10.640229
 30
0.0
  0
SPLINE
  5
195
100
AcDbEntity
  8
0
 62
7
100
AcDbSpline
 70
8
 71
3
 72
8
 73
4
 74
0
 40
0
 40
0
 40
0
 40
0
 40
1
 40
1
 40
1
 40
1
 10
1.807986
 20
10.640229
 30
0.0
 10
1.732948
 20
10.640229
 30
0.0
 10
1.486721
 20
9.076464
 30
0.0
 10
1.261181
 20
7.165368
 30
0.0
  0
SPLINE
  5
196
100
AcDbEntity
  8
0
 62
7
100
AcDbSpline
 70
8
 71
3
 72
8
 73
4
 74
0
 40
0
 40
0
 40
0
 40
0
 40
1
 40
1
 40
1
 40
1
 10
1.261181
 20
7.165368
 30
0.0
 10
1.035640
 20
5.254275
 30
0.0
 10
0.780256
 20
3.690507
 30
0.0
 10
0.696736
 20
3.690507
 30
0.0
  0
SPLINE
  5
197
100
AcDbEntity
  8
0
 62
7
100
AcDbSpline
 70
8
 71
3
 72
8
 73
4
 74
0
 40
0
 40
0
 40
0
 40
0
 40
1
 40
1
 40
1
 40
1
 10
0.696736
 20
3.690507
 30
0.0
 10
0.613216
 20
3.690507
 30
0.0
 10
0.488955
 20
3.177362
 30
0.0
 10
0.414514
 20
2.543979
 30
0.0
  0
SPLINE
  5
198
100
AcDbEntity
  8
0
 62
7
100
AcDbSpline
 70
8
 71
3
 72
8
 73
4
 74
0
 40
0
 40
0
 40
0
 40
0
 40
1
 40
1
 40
1
 40
1
 10
0.414514
 20
2.543979
 30
0.0
 10
0.340072
 20
1.910599
 30
0.0
 10
0.217488
 20
1.073782
 30
0.0
 10
0.141111
 20
0.691896
 30
0.0
  0
LWPOLYLINE
  5
199
100
AcDbEntity
  8
0
 62
7
100
AcDbPolyline
 90
3
 70
0
 10
23.468542
 20
178.121479
 30
0.0
 10
23.397986
 20
179.029882
 30
0.0
 10
22.965833
 20
178.174396
 30
0.0
  0
SPLINE
  5
19a
100
AcDbEntity
  8
0
 62
7
100
AcDbSpline
 70
8
 71
3
 72
8
 73
4
 74
0
 40
0
 40
0
 40
0
 40
0
 40
1
 40
1
 40
1
 40
1
 10
65.766597
 20
0.921202
 30
0.0
 10
65.685777
 20
1.428837
 30
0.0
 10
65.563078
 20
2.265649
 30
0.0
 10
65.493194
 20
2.773285
 30
0.0
  0
SPLINE
  5
19b
100
AcDbEntity
  8
0
 62
7
100
AcDbSpline
 70
8
 71
3
 72
8
 73
4
 74
0
 40
0
 40
0
 40
0
 40
0
 40
1
 40
1
 40
1
 40
1
 10
65.493194
 20
2.773285
 30
0.0
 10
65.423308
 20
3.280918
 30
0.0
 10
65.290435
 20
3.690507
 30
0.0
 10
65.202153
 20
3.690507
 30
0.0
  0
SPLINE
  5
19c
100
AcDbEntity
  8
0
 62
7
100
AcDbSpline
 70
8
 71
3
 72
8
 73
4
 74
0
 40
0
 40
0
 40
0
 40
0
 40
1
 40
1
 40
1
 40
1
 10
65.202153
 20
3.690507
 30
0.0
 10
65.113868
 20
3.690507
 30
0.0
 10
64.928917
 20
4.590881
 30
0.0
 10
64.787639
 20
5.692521
 30
0.0
  0
SPLINE
  5
19d
100
AcDbEntity
  8
0
 62
7
100
AcDbSpline
 70
8
 71
3
 72
8
 73
4
 74
0
 40
0
 40
0
 40
0
 40
0
 40
1
 40
1
 40
1
 40
1
 10
64.787639
 20
5.692521
 30
0.0
 10
64.646358
 20
6.794161
 30
0.0
 10
64.454196
 20
7.746255
 30
0.0
 10
64.355486
 20
7.809188
 30
0.0
  0
SPLINE
  5
19e
100
AcDbEntity
  8
0
 62
7
100
AcDbSpline
 70
8
 71
3
 72
8
 73
4
 74
0
 40
0
 40
0
 40
0
 40
0
 40
1
 40
1
 40
1
 40
1
 10
64.355486
 20
7.809188
 30
0.0
 10
64.256773
 20
7.872120
 30
0.0
 10
64.122292
 20
8.319191
 30
0.0
 10
64.064444
 20
8.796965
 30
0.0
  0
SPLINE
  5
19f
100
AcDbEntity
  8
0
 62
7
100
AcDbSpline
 70
8
 71
3
 72
8
 73
4
 74
0
 40
0
 40
0
 40
0
 40
0
 40
1
 40
1
 40
1
 40
1
 10
64.064444
 20
8.796965
 30
0.0
 10
63.837721
 20
10.669648
 30
0.0
 10
63.380242
 20
13.030299
 30
0.0
 10
63.244236
 20
13.030299
 30
0.0
  0
SPLINE
  5
1a0
100
AcDbEntity
  8
0
 62
7
100
AcDbSpline
 70
8
 71
3
 72
8
 73
4
 74
0
 40
0
 40
0
 40
0
 40
0
 40
1
 40
1
 40
1
 40
1
 10
63.244236
 20
13.030299
 30
0.0
 10
63.165454
 20
13.030299
 30
0.0
 10
62.970021
 20
13.858294
 30
0.0
 10
62.812083
 20
14.873563
 30
0.0
  0
SPLINE
  5
1a1
100
AcDbEntity
  8
0
 62
7
100
AcDbSpline
 70
8
 71
3
 72
8
 73
4
 74
0
 40
0
 40
0
 40
0
 40
0
 40
1
 40
1
 40
1
 40
1
 10
62.812083
 20
14.873563
 30
0.0
 10
62.654149
 20
15.888832
 30
0.0
 10
62.463739
 20
16.725646
 30
0.0
 10
62.379931
 20
16.725646
 30
0.0
  0
SPLINE
  5
1a2
100
AcDbEntity
  8
0
 62
7
100
AcDbSpline
 70
8
 71
3
 72
8
 73
4
 74
0
 40
0
 40
0
 40
0
 40
0
 40
1
 40
1
 40
1
 40
1
 10
62.379931
 20
16.725646
 30
0.0
 10
62.296125
 20
16.725646
 30
0.0
 10
62.109929
 20
17.452600
 30
0.0
 10
61.965417
 20
18.348424
 30
0.0
  0
SPLINE
  5
1a3
100
AcDbEntity
  8
0
 62
7
100
AcDbSpline
 70
8
 71
3
 72
8
 73
4
 74
0
 40
0
 40
0
 40
0
 40
0
 40
1
 40
1
 40
1
 40
1
 10
61.965417
 20
18.348424
 30
0.0
 10
61.820905
 20
19.244251
 30
0.0
 10
61.622113
 20
19.980021
 30
0.0
 10
61.533264
 20
19.980021
 30
0.0
  0
SPLINE
  5
1a4
100
AcDbEntity
  8
0
 62
7
100
AcDbSpline
 70
8
 71
3
 72
8
 73
4
 74
0
 40
0
 40
0
 40
0
 40
0
 40
1
 40
1
 40
1
 40
1
 10
61.533264
 20
19.980021
 30
0.0
 10
61.372812
 20
19.980021
 30
0.0
 10
60.994496
 20
21.752314
 30
0.0
 10
60.730694
 20
23.728285
 30
0.0
  0
SPLINE
  5
1a5
100
AcDbEntity
  8
0
 62
7
100
AcDbSpline
 70
8
 71
3
 72
8
 73
4
 74
0
 40
0
 40
0
 40
0
 40
0
 40
1
 40
1
 40
1
 40
1
 10
60.730694
 20
23.728285
 30
0.0
 10
60.654949
 20
24.295642
 30
0.0
 10
60.519059
 20
24.760160
 30
0.0
 10
60.430833
 20
24.760160
 30
0.0
  0
SPLINE
  5
1a6
100
AcDbEntity
  8
0
 62
7
100
AcDbSpline
 70
8
 71
3
 72
8
 73
4
 74
0
 40
0
 40
0
 40
0
 40
0
 40
1
 40
1
 40
1
 40
1
 10
60.430833
 20
24.760160
 30
0.0
 10
60.342611
 20
24.760160
 30
0.0
 10
60.165855
 20
25.410572
 30
0.0
 10
60.033958
 20
26.206549
 30
0.0
  0
SPLINE
  5
1a7
100
AcDbEntity
  8
0
 62
7
100
AcDbSpline
 70
8
 71
3
 72
8
 73
4
 74
0
 40
0
 40
0
 40
0
 40
0
 40
1
 40
1
 40
1
 40
1
 10
60.033958
 20
26.206549
 30
0.0
 10
59.902059
 20
27.002528
 30
0.0
 10
59.713707
 20
27.706427
 30
0.0
 10
59.610625
 20
27.776410
 30
0.0
  0
SPLINE
  5
1a8
100
AcDbEntity
  8
0
 62
7
100
AcDbSpline
 70
8
 71
3
 72
8
 73
4
 74
0
 40
0
 40
0
 40
0
 40
0
 40
1
 40
1
 40
1
 40
1
 10
59.610625
 20
27.776410
 30
0.0
 10
59.507549
 20
27.846398
 30
0.0
 10
59.295053
 20
28.612598
 30
0.0
 10
59.143194
 20
29.478563
 30
0.0
  0
SPLINE
  5
1a9
100
AcDbEntity
  8
0
 62
7
100
AcDbSpline
 70
8
 71
3
 72
8
 73
4
 74
0
 40
0
 40
0
 40
0
 40
0
 40
1
 40
1
 40
1
 40
1
 10
59.143194
 20
29.478563
 30
0.0
 10
58.991336
 20
30.344528
 30
0.0
 10
58.799682
 20
31.057243
 30
0.0
 10
58.719861
 20
31.057243
 30
0.0
  0
SPLINE
  5
1aa
100
AcDbEntity
  8
0
 62
7
100
AcDbSpline
 70
8
 71
3
 72
8
 73
4
 74
0
 40
0
 40
0
 40
0
 40
0
 40
1
 40
1
 40
1
 40
1
 10
58.719861
 20
31.057243
 30
0.0
 10
58.524493
 20
31.057243
 30
0.0
 10
57.820142
 20
34.241856
 30
0.0
 10
57.820278
 20
35.123007
 30
0.0
  0
SPLINE
  5
1ab
100
AcDbEntity
  8
0
 62
7
100
AcDbSpline
 70
8
 71
3
 72
8
 73
4
 74
0
 40
0
 40
0
 40
0
 40
0
 40
1
 40
1
 40
1
 40
1
 10
57.820278
 20
35.123007
 30
0.0
 10
57.820343
 20
35.558801
 30
0.0
 10
58.019925
 20
36.055235
 30
0.0
 10
58.349444
 20
36.428285
 30
0.0
  0
SPLINE
  5
1ac
100
AcDbEntity
  8
0
 62
7
100
AcDbSpline
 70
8
 71
3
 72
8
 73
4
 74
0
 40
0
 40
0
 40
0
 40
0
 40
1
 40
1
 40
1
 40
1
 10
58.349444
 20
36.428285
 30
0.0
 10
58.641412
 20
36.758818
 30
0.0
 10
59.132806
 20
37.303580
 30
0.0
 10
59.434236
 20
37.645368
 30
0.0
  0
SPLINE
  5
1ad
100
AcDbEntity
  8
0
 62
7
100
AcDbSpline
 70
8
 71
3
 72
8
 73
4
 74
0
 40
0
 40
0
 40
0
 40
0
 40
1
 40
1
 40
1
 40
1
 10
59.434236
 20
37.645368
 30
0.0
 10
59.735664
 20
37.987153
 30
0.0
 10
60.036422
 20
38.445070
 30
0.0
 10
60.104514
 20
38.659604
 30
0.0
  0
SPLINE
  5
1ae
100
AcDbEntity
  8
0
 62
7
100
AcDbSpline
 70
8
 71
3
 72
8
 73
4
 74
0
 40
0
 40
0
 40
0
 40
0
 40
1
 40
1
 40
1
 40
1
 10
60.104514
 20
38.659604
 30
0.0
 10
60.172603
 20
38.874141
 30
0.0
 10
60.370864
 20
39.104127
 30
0.0
 10
60.545486
 20
39.171132
 30
0.0
  0
SPLINE
  5
1af
100
AcDbEntity
  8
0
 62
7
100
AcDbSpline
 70
8
 71
3
 72
8
 73
4
 74
0
 40
0
 40
0
 40
0
 40
0
 40
1
 40
1
 40
1
 40
1
 10
60.545486
 20
39.171132
 30
0.0
 10
60.720103
 20
39.238140
 30
0.0
 10
60.862986
 20
39.435964
 30
0.0
 10
60.862986
 20
39.612104
 30
0.0
  0
SPLINE
  5
1b0
100
AcDbEntity
  8
0
 62
7
100
AcDbSpline
 70
8
 71
3
 72
8
 73
4
 74
0
 40
0
 40
0
 40
0
 40
0
 40
1
 40
1
 40
1
 40
1
 10
60.862986
 20
39.612104
 30
0.0
 10
60.862986
 20
39.788245
 30
0.0
 10
61.036005
 20
40.064569
 30
0.0
 10
61.251042
 20
40.220646
 30
0.0
  0
SPLINE
  5
1b1
100
AcDbEntity
  8
0
 62
7
100
AcDbSpline
 70
8
 71
3
 72
8
 73
4
 74
0
 40
0
 40
0
 40
0
 40
0
 40
1
 40
1
 40
1
 40
1
 10
61.251042
 20
40.220646
 30
0.0
 10
61.466075
 20
40.376721
 30
0.0
 10
61.772354
 20
40.820233
 30
0.0
 10
61.930139
 20
41.208424
 30
0.0
  0
SPLINE
  5
1b2
100
AcDbEntity
  8
0
 62
7
100
AcDbSpline
 70
8
 71
3
 72
8
 73
4
 74
0
 40
0
 40
0
 40
0
 40
0
 40
1
 40
1
 40
1
 40
1
 10
61.930139
 20
41.208424
 30
0.0
 10
62.087927
 20
41.596615
 30
0.0
 10
62.295481
 20
41.913979
 30
0.0
 10
62.388750
 20
41.913979
 30
0.0
  0
SPLINE
  5
1b3
100
AcDbEntity
  8
0
 62
7
100
AcDbSpline
 70
8
 71
3
 72
8
 73
4
 74
0
 40
0
 40
0
 40
0
 40
0
 40
1
 40
1
 40
1
 40
1
 10
62.388750
 20
41.913979
 30
0.0
 10
62.482019
 20
41.913979
 30
0.0
 10
62.659472
 20
42.213547
 30
0.0
 10
62.785625
 20
42.575438
 30
0.0
  0
SPLINE
  5
1b4
100
AcDbEntity
  8
0
 62
7
100
AcDbSpline
 70
8
 71
3
 72
8
 73
4
 74
0
 40
0
 40
0
 40
0
 40
0
 40
1
 40
1
 40
1
 40
1
 10
62.785625
 20
42.575438
 30
0.0
 10
62.911781
 20
42.937326
 30
0.0
 10
63.142876
 20
43.358147
 30
0.0
 10
63.297153
 20
43.519118
 30
0.0
  0
SPLINE
  5
1b5
100
AcDbEntity
  8
0
 62
7
100
AcDbSpline
 70
8
 71
3
 72
8
 73
4
 74
0
 40
0
 40
0
 40
0
 40
0
 40
1
 40
1
 40
1
 40
1
 10
63.297153
 20
43.519118
 30
0.0
 10
63.451432
 20
43.680089
 30
0.0
 10
63.721203
 20
44.024070
 30
0.0
 10
63.896875
 20
44.277590
 30
0.0
  0
SPLINE
  5
1b6
100
AcDbEntity
  8
0
 62
7
100
AcDbSpline
 70
8
 71
3
 72
8
 73
4
 74
0
 40
0
 40
0
 40
0
 40
0
 40
1
 40
1
 40
1
 40
1
 10
63.896875
 20
44.277590
 30
0.0
 10
64.223381
 20
44.748789
 30
0.0
 10
65.422639
 20
44.934770
 30
0.0
 10
65.422639
 20
44.515715
 30
0.0
  0
SPLINE
  5
1b7
100
AcDbEntity
  8
0
 62
7
100
AcDbSpline
 70
8
 71
3
 72
8
 73
4
 74
0
 40
0
 40
0
 40
0
 40
0
 40
1
 40
1
 40
1
 40
1
 10
65.422639
 20
44.515715
 30
0.0
 10
65.422639
 20
44.396273
 30
0.0
 10
65.523680
 20
44.304049
 30
0.0
 10
65.643125
 20
44.304049
 30
0.0
  0
SPLINE
  5
1b8
100
AcDbEntity
  8
0
 62
7
100
AcDbSpline
 70
8
 71
3
 72
8
 73
4
 74
0
 40
0
 40
0
 40
0
 40
0
 40
1
 40
1
 40
1
 40
1
 10
65.643125
 20
44.304049
 30
0.0
 10
65.762567
 20
44.304049
 30
0.0
 10
65.854792
 20
44.451202
 30
0.0
 10
65.854792
 20
44.630368
 30
0.0
  0
SPLINE
  5
1b9
100
AcDbEntity
  8
0
 62
7
100
AcDbSpline
 70
8
 71
3
 72
8
 73
4
 74
0
 40
0
 40
0
 40
0
 40
0
 40
1
 40
1
 40
1
 40
1
 10
65.854792
 20
44.630368
 30
0.0
 10
65.854792
 20
44.809534
 30
0.0
 10
65.937827
 20
44.956688
 30
0.0
 10
66.040000
 20
44.956688
 30
0.0
  0
SPLINE
  5
1ba
100
AcDbEntity
  8
0
 62
7
100
AcDbSpline
 70
8
 71
3
 72
8
 73
4
 74
0
 40
0
 40
0
 40
0
 40
0
 40
1
 40
1
 40
1
 40
1
 10
66.040000
 20
44.956688
 30
0.0
 10
66.142167
 20
44.956688
 30
0.0
 10
66.287647
 20
45.566892
 30
0.0
 10
66.357500
 20
46.314882
 30
0.0
  0
SPLINE
  5
1bb
100
AcDbEntity
  8
0
 62
7
100
AcDbSpline
 70
8
 71
3
 72
8
 73
4
 74
0
 40
0
 40
0
 40
0
 40
0
 40
1
 40
1
 40
1
 40
1
 10
66.357500
 20
46.314882
 30
0.0
 10
66.504535
 20
47.889465
 30
0.0
 10
66.670451
 20
48.431549
 30
0.0
 10
67.018958
 20
48.431549
 30
0.0
  0
SPLINE
  5
1bc
100
AcDbEntity
  8
0
 62
7
100
AcDbSpline
 70
8
 71
3
 72
8
 73
4
 74
0
 40
0
 40
0
 40
0
 40
0
 40
1
 40
1
 40
1
 40
1
 10
67.018958
 20
48.431549
 30
0.0
 10
67.155859
 20
48.431549
 30
0.0
 10
67.772698
 20
48.896070
 30
0.0
 10
68.385972
 20
49.463424
 30
0.0
  0
SPLINE
  5
1bd
100
AcDbEntity
  8
0
 62
7
100
AcDbSpline
 70
8
 71
3
 72
8
 73
4
 74
0
 40
0
 40
0
 40
0
 40
0
 40
1
 40
1
 40
1
 40
1
 10
68.385972
 20
49.463424
 30
0.0
 10
68.999247
 20
50.030781
 30
0.0
 10
69.837783
 20
50.793529
 30
0.0
 10
70.255694
 20
51.165577
 30
0.0
  0
SPLINE
  5
1be
100
AcDbEntity
  8
0
 62
7
100
AcDbSpline
 70
8
 71
3
 72
8
 73
4
 74
0
 40
0
 40
0
 40
0
 40
0
 40
1
 40
1
 40
1
 40
1
 10
70.255694
 20
51.165577
 30
0.0
 10
70.673603
 20
51.537624
 30
0.0
 10
71.151790
 20
52.227285
 30
0.0
 10
71.314028
 20
52.691340
 30
0.0
  0
SPLINE
  5
1bf
100
AcDbEntity
  8
0
 62
7
100
AcDbSpline
 70
8
 71
3
 72
8
 73
4
 74
0
 40
0
 40
0
 40
0
 40
0
 40
1
 40
1
 40
1
 40
1
 10
71.314028
 20
52.691340
 30
0.0
 10
71.476260
 20
53.155396
 30
0.0
 10
71.658474
 20
53.584117
 30
0.0
 10
71.719722
 20
53.643840
 30
0.0
  0
SPLINE
  5
1c0
100
AcDbEntity
  8
0
 62
7
100
AcDbSpline
 70
8
 71
3
 72
8
 73
4
 74
0
 40
0
 40
0
 40
0
 40
0
 40
1
 40
1
 40
1
 40
1
 10
71.719722
 20
53.643840
 30
0.0
 10
71.873971
 20
53.794242
 30
0.0
 10
72.595105
 20
56.705441
 30
0.0
 10
72.592847
 20
57.171618
 30
0.0
  0
SPLINE
  5
1c1
100
AcDbEntity
  8
0
 62
7
100
AcDbSpline
 70
8
 71
3
 72
8
 73
4
 74
0
 40
0
 40
0
 40
0
 40
0
 40
1
 40
1
 40
1
 40
1
 10
72.592847
 20
57.171618
 30
0.0
 10
72.591843
 20
57.380646
 30
0.0
 10
72.674932
 20
57.550854
 30
0.0
 10
72.778056
 20
57.550854
 30
0.0
  0
SPLINE
  5
1c2
100
AcDbEntity
  8
0
 62
7
100
AcDbSpline
 70
8
 71
3
 72
8
 73
4
 74
0
 40
0
 40
0
 40
0
 40
0
 40
1
 40
1
 40
1
 40
1
 10
72.778056
 20
57.550854
 30
0.0
 10
72.881177
 20
57.550854
 30
0.0
 10
73.084583
 20
58.139471
 30
0.0
 10
73.236667
 20
58.856132
 30
0.0
  0
SPLINE
  5
1c3
100
AcDbEntity
  8
0
 62
7
100
AcDbSpline
 70
8
 71
3
 72
8
 73
4
 74
0
 40
0
 40
0
 40
0
 40
0
 40
1
 40
1
 40
1
 40
1
 10
73.236667
 20
58.856132
 30
0.0
 10
73.388753
 20
59.572793
 30
0.0
 10
73.590839
 20
60.152590
 30
0.0
 10
73.677639
 20
60.152590
 30
0.0
  0
SPLINE
  5
1c4
100
AcDbEntity
  8
0
 62
7
100
AcDbSpline
 70
8
 71
3
 72
8
 73
4
 74
0
 40
0
 40
0
 40
0
 40
0
 40
1
 40
1
 40
1
 40
1
 10
73.677639
 20
60.152590
 30
0.0
 10
73.764439
 20
60.152590
 30
0.0
 10
73.957705
 20
60.741207
 30
0.0
 10
74.109792
 20
61.457868
 30
0.0
  0
SPLINE
  5
1c5
100
AcDbEntity
  8
0
 62
7
100
AcDbSpline
 70
8
 71
3
 72
8
 73
4
 74
0
 40
0
 40
0
 40
0
 40
0
 40
1
 40
1
 40
1
 40
1
 10
74.109792
 20
61.457868
 30
0.0
 10
74.261878
 20
62.174526
 30
0.0
 10
74.442204
 20
62.763146
 30
0.0
 10
74.515486
 20
62.763146
 30
0.0
  0
SPLINE
  5
1c6
100
AcDbEntity
  8
0
 62
7
100
AcDbSpline
 70
8
 71
3
 72
8
 73
4
 74
0
 40
0
 40
0
 40
0
 40
0
 40
1
 40
1
 40
1
 40
1
 10
74.515486
 20
62.763146
 30
0.0
 10
74.588774
 20
62.763146
 30
0.0
 10
74.842122
 20
63.351763
 30
0.0
 10
75.071111
 20
64.068424
 30
0.0
  0
SPLINE
  5
1c7
100
AcDbEntity
  8
0
 62
7
100
AcDbSpline
 70
8
 71
3
 72
8
 73
4
 74
0
 40
0
 40
0
 40
0
 40
0
 40
1
 40
1
 40
1
 40
1
 10
75.071111
 20
64.068424
 30
0.0
 10
75.300098
 20
64.785085
 30
0.0
 10
75.551623
 20
65.364882
 30
0.0
 10
75.635556
 20
65.364882
 30
0.0
  0
SPLINE
  5
1c8
100
AcDbEntity
  8
0
 62
7
100
AcDbSpline
 70
8
 71
3
 72
8
 73
4
 74
0
 40
0
 40
0
 40
0
 40
0
 40
1
 40
1
 40
1
 40
1
 10
75.635556
 20
65.364882
 30
0.0
 10
75.719491
 20
65.364882
 30
0.0
 10
75.920544
 20
65.829400
 30
0.0
 10
76.076528
 20
66.396757
 30
0.0
  0
SPLINE
  5
1c9
100
AcDbEntity
  8
0
 62
7
100
AcDbSpline
 70
8
 71
3
 72
8
 73
4
 74
0
 40
0
 40
0
 40
0
 40
0
 40
1
 40
1
 40
1
 40
1
 10
76.076528
 20
66.396757
 30
0.0
 10
76.232512
 20
66.964111
 30
0.0
 10
76.420342
 20
67.483564
 30
0.0
 10
76.499861
 20
67.543285
 30
0.0
  0
SPLINE
  5
1ca
100
AcDbEntity
  8
0
 62
7
100
AcDbSpline
 70
8
 71
3
 72
8
 73
4
 74
0
 40
0
 40
0
 40
0
 40
0
 40
1
 40
1
 40
1
 40
1
 10
76.499861
 20
67.543285
 30
0.0
 10
76.579377
 20
67.603006
 30
0.0
 10
76.823547
 20
68.113636
 30
0.0
 10
77.037847
 20
68.680993
 30
0.0
  0
SPLINE
  5
1cb
100
AcDbEntity
  8
0
 62
7
100
AcDbSpline
 70
8
 71
3
 72
8
 73
4
 74
0
 40
0
 40
0
 40
0
 40
0
 40
1
 40
1
 40
1
 40
1
 10
77.037847
 20
68.680993
 30
0.0
 10
77.252147
 20
69.248350
 30
0.0
 10
77.491525
 20
69.712868
 30
0.0
 10
77.575833
 20
69.712868
 30
0.0
  0
SPLINE
  5
1cc
100
AcDbEntity
  8
0
 62
7
100
AcDbSpline
 70
8
 71
3
 72
8
 73
4
 74
0
 40
0
 40
0
 40
0
 40
0
 40
1
 40
1
 40
1
 40
1
 10
77.575833
 20
69.712868
 30
0.0
 10
77.660144
 20
69.712868
 30
0.0
 10
77.847204
 20
70.099400
 30
0.0
 10
77.990347
 20
70.577174
 30
0.0
  0
SPLINE
  5
1cd
100
AcDbEntity
  8
0
 62
7
100
AcDbSpline
 70
8
 71
3
 72
8
 73
4
 74
0
 40
0
 40
0
 40
0
 40
0
 40
1
 40
1
 40
1
 40
1
 10
77.990347
 20
70.577174
 30
0.0
 10
78.133493
 20
71.054948
 30
0.0
 10
78.326971
 20
71.450299
 30
0.0
 10
78.422500
 20
71.450299
 30
0.0
  0
SPLINE
  5
1ce
100
AcDbEntity
  8
0
 62
7
100
AcDbSpline
 70
8
 71
3
 72
8
 73
4
 74
0
 40
0
 40
0
 40
0
 40
0
 40
1
 40
1
 40
1
 40
1
 10
78.422500
 20
71.450299
 30
0.0
 10
78.518032
 20
71.450299
 30
0.0
 10
78.732250
 20
71.836830
 30
0.0
 10
78.889931
 20
72.314604
 30
0.0
  0
SPLINE
  5
1cf
100
AcDbEntity
  8
0
 62
7
100
AcDbSpline
 70
8
 71
3
 72
8
 73
4
 74
0
 40
0
 40
0
 40
0
 40
0
 40
1
 40
1
 40
1
 40
1
 10
78.889931
 20
72.314604
 30
0.0
 10
79.047611
 20
72.792378
 30
0.0
 10
79.236533
 20
73.187729
 30
0.0
 10
79.313264
 20
73.187729
 30
0.0
  0
SPLINE
  5
1d0
100
AcDbEntity
  8
0
 62
7
100
AcDbSpline
 70
8
 71
3
 72
8
 73
4
 74
0
 40
0
 40
0
 40
0
 40
0
 40
1
 40
1
 40
1
 40
1
 10
79.313264
 20
73.187729
 30
0.0
 10
79.389992
 20
73.187729
 30
0.0
 10
79.627674
 20
73.675305
 30
0.0
 10
79.842431
 20
74.272521
 30
0.0
  0
SPLINE
  5
1d1
100
AcDbEntity
  8
0
 62
7
100
AcDbSpline
 70
8
 71
3
 72
8
 73
4
 74
0
 40
0
 40
0
 40
0
 40
0
 40
1
 40
1
 40
1
 40
1
 10
79.842431
 20
74.272521
 30
0.0
 10
80.057185
 20
74.869737
 30
0.0
 10
80.309517
 20
75.357313
 30
0.0
 10
80.398056
 20
75.357313
 30
0.0
  0
SPLINE
  5
1d2
100
AcDbEntity
  8
0
 62
7
100
AcDbSpline
 70
8
 71
3
 72
8
 73
4
 74
0
 40
0
 40
0
 40
0
 40
0
 40
1
 40
1
 40
1
 40
1
 10
80.398056
 20
75.357313
 30
0.0
 10
80.486597
 20
75.357313
 30
0.0
 10
80.669426
 20
75.752664
 30
0.0
 10
80.812569
 20
76.230438
 30
0.0
  0
SPLINE
  5
1d3
100
AcDbEntity
  8
0
 62
7
100
AcDbSpline
 70
8
 71
3
 72
8
 73
4
 74
0
 40
0
 40
0
 40
0
 40
0
 40
1
 40
1
 40
1
 40
1
 10
80.812569
 20
76.230438
 30
0.0
 10
80.955715
 20
76.708209
 30
0.0
 10
81.152368
 20
77.094743
 30
0.0
 10
81.244722
 20
77.094743
 30
0.0
  0
SPLINE
  5
1d4
100
AcDbEntity
  8
0
 62
7
100
AcDbSpline
 70
8
 71
3
 72
8
 73
4
 74
0
 40
0
 40
0
 40
0
 40
0
 40
1
 40
1
 40
1
 40
1
 10
81.244722
 20
77.094743
 30
0.0
 10
81.337077
 20
77.094743
 30
0.0
 10
81.548122
 20
77.435165
 30
0.0
 10
81.712153
 20
77.853215
 30
0.0
  0
SPLINE
  5
1d5
100
AcDbEntity
  8
0
 62
7
100
AcDbSpline
 70
8
 71
3
 72
8
 73
4
 74
0
 40
0
 40
0
 40
0
 40
0
 40
1
 40
1
 40
1
 40
1
 10
81.712153
 20
77.853215
 30
0.0
 10
81.876183
 20
78.271268
 30
0.0
 10
82.070140
 20
78.611688
 30
0.0
 10
82.144306
 20
78.611688
 30
0.0
  0
SPLINE
  5
1d6
100
AcDbEntity
  8
0
 62
7
100
AcDbSpline
 70
8
 71
3
 72
8
 73
4
 74
0
 40
0
 40
0
 40
0
 40
0
 40
1
 40
1
 40
1
 40
1
 10
82.144306
 20
78.611688
 30
0.0
 10
82.300626
 20
78.611688
 30
0.0
 10
83.017431
 20
80.167229
 30
0.0
 10
83.017431
 20
80.507868
 30
0.0
  0
SPLINE
  5
1d7
100
AcDbEntity
  8
0
 62
7
100
AcDbSpline
 70
8
 71
3
 72
8
 73
4
 74
0
 40
0
 40
0
 40
0
 40
0
 40
1
 40
1
 40
1
 40
1
 10
83.017431
 20
80.507868
 30
0.0
 10
83.017431
 20
80.634120
 30
0.0
 10
83.155765
 20
80.800710
 30
0.0
 10
83.334931
 20
80.869465
 30
0.0
  0
SPLINE
  5
1d8
100
AcDbEntity
  8
0
 62
7
100
AcDbSpline
 70
8
 71
3
 72
8
 73
4
 74
0
 40
0
 40
0
 40
0
 40
0
 40
1
 40
1
 40
1
 40
1
 10
83.334931
 20
80.869465
 30
0.0
 10
83.514094
 20
80.938218
 30
0.0
 10
83.661250
 20
81.128162
 30
0.0
 10
83.661250
 20
81.292799
 30
0.0
  0
SPLINE
  5
1d9
100
AcDbEntity
  8
0
 62
7
100
AcDbSpline
 70
8
 71
3
 72
8
 73
4
 74
0
 40
0
 40
0
 40
0
 40
0
 40
1
 40
1
 40
1
 40
1
 10
83.661250
 20
81.292799
 30
0.0
 10
83.661250
 20
81.457436
 30
0.0
 10
83.860081
 20
81.816180
 30
0.0
 10
84.102222
 20
82.095368
 30
0.0
  0
SPLINE
  5
1da
100
AcDbEntity
  8
0
 62
7
100
AcDbSpline
 70
8
 71
3
 72
8
 73
4
 74
0
 40
0
 40
0
 40
0
 40
0
 40
1
 40
1
 40
1
 40
1
 10
84.102222
 20
82.095368
 30
0.0
 10
84.344360
 20
82.374559
 30
0.0
 10
84.609446
 20
82.856076
 30
0.0
 10
84.684306
 20
83.162521
 30
0.0
  0
SPLINE
  5
1db
100
AcDbEntity
  8
0
 62
7
100
AcDbSpline
 70
8
 71
3
 72
8
 73
4
 74
0
 40
0
 40
0
 40
0
 40
0
 40
1
 40
1
 40
1
 40
1
 10
84.684306
 20
83.162521
 30
0.0
 10
84.759165
 20
83.468961
 30
0.0
 10
84.923811
 20
83.791456
 30
0.0
 10
85.054722
 20
83.876896
 30
0.0
  0
SPLINE
  5
1dc
100
AcDbEntity
  8
0
 62
7
100
AcDbSpline
 70
8
 71
3
 72
8
 73
4
 74
0
 40
0
 40
0
 40
0
 40
0
 40
1
 40
1
 40
1
 40
1
 10
85.054722
 20
83.876896
 30
0.0
 10
85.365169
 20
84.079512
 30
0.0
 10
85.373196
 20
87.478901
 30
0.0
 10
85.063542
 20
87.686896
 30
0.0
  0
SPLINE
  5
1dd
100
AcDbEntity
  8
0
 62
7
100
AcDbSpline
 70
8
 71
3
 72
8
 73
4
 74
0
 40
0
 40
0
 40
0
 40
0
 40
1
 40
1
 40
1
 40
1
 10
85.063542
 20
87.686896
 30
0.0
 10
84.936714
 20
87.772085
 30
0.0
 10
84.711320
 20
88.411205
 30
0.0
 10
84.560833
 20
89.098007
 30
0.0
  0
SPLINE
  5
1de
100
AcDbEntity
  8
0
 62
7
100
AcDbSpline
 70
8
 71
3
 72
8
 73
4
 74
0
 40
0
 40
0
 40
0
 40
0
 40
1
 40
1
 40
1
 40
1
 10
84.560833
 20
89.098007
 30
0.0
 10
84.410350
 20
89.784806
 30
0.0
 10
84.203836
 20
90.341549
 30
0.0
 10
84.102222
 20
90.341549
 30
0.0
  0
SPLINE
  5
1df
100
AcDbEntity
  8
0
 62
7
100
AcDbSpline
 70
8
 71
3
 72
8
 73
4
 74
0
 40
0
 40
0
 40
0
 40
0
 40
1
 40
1
 40
1
 40
1
 10
84.102222
 20
90.341549
 30
0.0
 10
84.000605
 20
90.341549
 30
0.0
 10
83.799220
 20
90.681968
 30
0.0
 10
83.661250
 20
91.100021
 30
0.0
  0
SPLINE
  5
1e0
100
AcDbEntity
  8
0
 62
7
100
AcDbSpline
 70
8
 71
3
 72
8
 73
4
 74
0
 40
0
 40
0
 40
0
 40
0
 40
1
 40
1
 40
1
 40
1
 10
83.661250
 20
91.100021
 30
0.0
 10
83.523280
 20
91.518071
 30
0.0
 10
83.329788
 20
91.858493
 30
0.0
 10
83.229097
 20
91.858493
 30
0.0
  0
SPLINE
  5
1e1
100
AcDbEntity
  8
0
 62
7
100
AcDbSpline
 70
8
 71
3
 72
8
 73
4
 74
0
 40
0
 40
0
 40
0
 40
0
 40
1
 40
1
 40
1
 40
1
 10
83.229097
 20
91.858493
 30
0.0
 10
83.128409
 20
91.858493
 30
0.0
 10
82.981447
 20
92.152950
 30
0.0
 10
82.902778
 20
92.511132
 30
0.0
  0
SPLINE
  5
1e2
100
AcDbEntity
  8
0
 62
7
100
AcDbSpline
 70
8
 71
3
 72
8
 73
4
 74
0
 40
0
 40
0
 40
0
 40
0
 40
1
 40
1
 40
1
 40
1
 10
82.902778
 20
92.511132
 30
0.0
 10
82.824108
 20
92.869312
 30
0.0
 10
82.596826
 20
93.287720
 30
0.0
 10
82.391250
 20
93.437174
 30
0.0
  0
SPLINE
  5
1e3
100
AcDbEntity
  8
0
 62
7
100
AcDbSpline
 70
8
 71
3
 72
8
 73
4
 74
0
 40
0
 40
0
 40
0
 40
0
 40
1
 40
1
 40
1
 40
1
 10
82.391250
 20
93.437174
 30
0.0
 10
82.185674
 20
93.586625
 30
0.0
 10
81.884026
 20
94.018885
 30
0.0
 10
81.729792
 20
94.398493
 30
0.0
  0
SPLINE
  5
1e4
100
AcDbEntity
  8
0
 62
7
100
AcDbSpline
 70
8
 71
3
 72
8
 73
4
 74
0
 40
0
 40
0
 40
0
 40
0
 40
1
 40
1
 40
1
 40
1
 10
81.729792
 20
94.398493
 30
0.0
 10
81.575560
 20
94.778102
 30
0.0
 10
81.315938
 20
95.145327
 30
0.0
 10
81.147708
 20
95.209882
 30
0.0
  0
SPLINE
  5
1e5
100
AcDbEntity
  8
0
 62
7
100
AcDbSpline
 70
8
 71
3
 72
8
 73
4
 74
0
 40
0
 40
0
 40
0
 40
0
 40
1
 40
1
 40
1
 40
1
 10
81.147708
 20
95.209882
 30
0.0
 10
80.979478
 20
95.274438
 30
0.0
 10
80.839028
 20
95.472143
 30
0.0
 10
80.839028
 20
95.650854
 30
0.0
  0
SPLINE
  5
1e6
100
AcDbEntity
  8
0
 62
7
100
AcDbSpline
 70
8
 71
3
 72
8
 73
4
 74
0
 40
0
 40
0
 40
0
 40
0
 40
1
 40
1
 40
1
 40
1
 10
80.839028
 20
95.650854
 30
0.0
 10
80.839028
 20
95.829566
 30
0.0
 10
80.645762
 20
96.078633
 30
0.0
 10
80.406875
 20
96.206479
 30
0.0
  0
SPLINE
  5
1e7
100
AcDbEntity
  8
0
 62
7
100
AcDbSpline
 70
8
 71
3
 72
8
 73
4
 74
0
 40
0
 40
0
 40
0
 40
0
 40
1
 40
1
 40
1
 40
1
 10
80.406875
 20
96.206479
 30
0.0
 10
80.167988
 20
96.334329
 30
0.0
 10
79.967878
 20
96.555266
 30
0.0
 10
79.965903
 20
96.700368
 30
0.0
  0
SPLINE
  5
1e8
100
AcDbEntity
  8
0
 62
7
100
AcDbSpline
 70
8
 71
3
 72
8
 73
4
 74
0
 40
0
 40
0
 40
0
 40
0
 40
1
 40
1
 40
1
 40
1
 10
79.965903
 20
96.700368
 30
0.0
 10
79.964049
 20
96.845470
 30
0.0
 10
79.476473
 20
97.444185
 30
0.0
 10
78.881111
 20
98.023285
 30
0.0
  0
SPLINE
  5
1e9
100
AcDbEntity
  8
0
 62
7
100
AcDbSpline
 70
8
 71
3
 72
8
 73
4
 74
0
 40
0
 40
0
 40
0
 40
0
 40
1
 40
1
 40
1
 40
1
 10
78.881111
 20
98.023285
 30
0.0
 10
78.285746
 20
98.602388
 30
0.0
 10
77.805139
 20
99.172914
 30
0.0
 10
77.805139
 20
99.293285
 30
0.0
  0
SPLINE
  5
1ea
100
AcDbEntity
  8
0
 62
7
100
AcDbSpline
 70
8
 71
3
 72
8
 73
4
 74
0
 40
0
 40
0
 40
0
 40
0
 40
1
 40
1
 40
1
 40
1
 10
77.805139
 20
99.293285
 30
0.0
 10
77.805139
 20
99.413653
 30
0.0
 10
77.556941
 20
99.702219
 30
0.0
 10
77.258333
 20
99.937104
 30
0.0
  0
SPLINE
  5
1eb
100
AcDbEntity
  8
0
 62
7
100
AcDbSpline
 70
8
 71
3
 72
8
 73
4
 74
0
 40
0
 40
0
 40
0
 40
0
 40
1
 40
1
 40
1
 40
1
 10
77.258333
 20
99.937104
 30
0.0
 10
76.959722
 20
100.171992
 30
0.0
 10
76.711528
 20
100.452208
 30
0.0
 10
76.711528
 20
100.563285
 30
0.0
  0
SPLINE
  5
1ec
100
AcDbEntity
  8
0
 62
7
100
AcDbSpline
 70
8
 71
3
 72
8
 73
4
 74
0
 40
0
 40
0
 40
0
 40
0
 40
1
 40
1
 40
1
 40
1
 10
76.711528
 20
100.563285
 30
0.0
 10
76.711528
 20
100.674359
 30
0.0
 10
76.076799
 20
101.405848
 30
0.0
 10
75.300417
 20
102.186063
 30
0.0
  0
SPLINE
  5
1ed
100
AcDbEntity
  8
0
 62
7
100
AcDbSpline
 70
8
 71
3
 72
8
 73
4
 74
0
 40
0
 40
0
 40
0
 40
0
 40
1
 40
1
 40
1
 40
1
 10
75.300417
 20
102.186063
 30
0.0
 10
74.524035
 20
102.966274
 30
0.0
 10
73.889306
 20
103.728176
 30
0.0
 10
73.889306
 20
103.879396
 30
0.0
  0
SPLINE
  5
1ee
100
AcDbEntity
  8
0
 62
7
100
AcDbSpline
 70
8
 71
3
 72
8
 73
4
 74
0
 40
0
 40
0
 40
0
 40
0
 40
1
 40
1
 40
1
 40
1
 10
73.889306
 20
103.879396
 30
0.0
 10
73.889306
 20
104.273034
 30
0.0
 10
74.401700
 20
105.323809
 30
0.0
 10
74.594861
 20
105.325785
 30
0.0
  0
SPLINE
  5
1ef
100
AcDbEntity
  8
0
 62
7
100
AcDbSpline
 70
8
 71
3
 72
8
 73
4
 74
0
 40
0
 40
0
 40
0
 40
0
 40
1
 40
1
 40
1
 40
1
 10
74.594861
 20
105.325785
 30
0.0
 10
74.684444
 20
105.326716
 30
0.0
 10
74.762431
 20
105.755282
 30
0.0
 10
74.762431
 20
106.278285
 30
0.0
  0
SPLINE
  5
1f0
100
AcDbEntity
  8
0
 62
7
100
AcDbSpline
 70
8
 71
3
 72
8
 73
4
 74
0
 40
0
 40
0
 40
0
 40
0
 40
1
 40
1
 40
1
 40
1
 10
74.762431
 20
106.278285
 30
0.0
 10
74.762431
 20
107.147775
 30
0.0
 10
74.702238
 20
107.251971
 30
0.0
 10
74.056875
 20
107.513007
 30
0.0
  0
SPLINE
  5
1f1
100
AcDbEntity
  8
0
 62
7
100
AcDbSpline
 70
8
 71
3
 72
8
 73
4
 74
0
 40
0
 40
0
 40
0
 40
0
 40
1
 40
1
 40
1
 40
1
 10
74.056875
 20
107.513007
 30
0.0
 10
73.668684
 20
107.670019
 30
0.0
 10
73.296388
 20
107.851561
 30
0.0
 10
73.236667
 20
107.918702
 30
0.0
  0
SPLINE
  5
1f2
100
AcDbEntity
  8
0
 62
7
100
AcDbSpline
 70
8
 71
3
 72
8
 73
4
 74
0
 40
0
 40
0
 40
0
 40
0
 40
1
 40
1
 40
1
 40
1
 10
73.236667
 20
107.918702
 30
0.0
 10
73.176943
 20
107.985842
 30
0.0
 10
72.744302
 20
108.179413
 30
0.0
 10
72.266528
 20
108.342035
 30
0.0
  0
SPLINE
  5
1f3
100
AcDbEntity
  8
0
 62
7
100
AcDbSpline
 70
8
 71
3
 72
8
 73
4
 74
0
 40
0
 40
0
 40
0
 40
0
 40
1
 40
1
 40
1
 40
1
 10
72.266528
 20
108.342035
 30
0.0
 10
71.379309
 20
108.644018
 30
0.0
 10
70.414444
 20
109.512478
 30
0.0
 10
70.414444
 20
110.017729
 30
0.0
  0
SPLINE
  5
1f4
100
AcDbEntity
  8
0
 62
7
100
AcDbSpline
 70
8
 71
3
 72
8
 73
4
 74
0
 40
0
 40
0
 40
0
 40
0
 40
1
 40
1
 40
1
 40
1
 10
70.414444
 20
110.017729
 30
0.0
 10
70.414444
 20
110.172379
 30
0.0
 10
70.288737
 20
110.380822
 30
0.0
 10
70.132222
 20
110.476340
 30
0.0
  0
SPLINE
  5
1f5
100
AcDbEntity
  8
0
 62
7
100
AcDbSpline
 70
8
 71
3
 72
8
 73
4
 74
0
 40
0
 40
0
 40
0
 40
0
 40
1
 40
1
 40
1
 40
1
 10
70.132222
 20
110.476340
 30
0.0
 10
69.566454
 20
110.821622
 30
0.0
 10
69.117986
 20
111.736592
 30
0.0
 10
69.117986
 20
112.540090
 30
0.0
  0
SPLINE
  5
1f6
100
AcDbEntity
  8
0
 62
7
100
AcDbSpline
 70
8
 71
3
 72
8
 73
4
 74
0
 40
0
 40
0
 40
0
 40
0
 40
1
 40
1
 40
1
 40
1
 10
69.117986
 20
112.540090
 30
0.0
 10
69.117986
 20
112.991288
 30
0.0
 10
69.016942
 20
113.360299
 30
0.0
 10
68.897500
 20
113.360299
 30
0.0
  0
SPLINE
  5
1f7
100
AcDbEntity
  8
0
 62
7
100
AcDbSpline
 70
8
 71
3
 72
8
 73
4
 74
0
 40
0
 40
0
 40
0
 40
0
 40
1
 40
1
 40
1
 40
1
 10
68.897500
 20
113.360299
 30
0.0
 10
68.778055
 20
113.360299
 30
0.0
 10
68.677014
 20
113.665418
 30
0.0
 10
68.677014
 20
114.030577
 30
0.0
  0
SPLINE
  5
1f8
100
AcDbEntity
  8
0
 62
7
100
AcDbSpline
 70
8
 71
3
 72
8
 73
4
 74
0
 40
0
 40
0
 40
0
 40
0
 40
1
 40
1
 40
1
 40
1
 10
68.677014
 20
114.030577
 30
0.0
 10
68.677014
 20
114.917872
 30
0.0
 10
68.244280
 20
116.623493
 30
0.0
 10
68.015556
 20
116.623493
 30
0.0
  0
SPLINE
  5
1f9
100
AcDbEntity
  8
0
 62
7
100
AcDbSpline
 70
8
 71
3
 72
8
 73
4
 74
0
 40
0
 40
0
 40
0
 40
0
 40
1
 40
1
 40
1
 40
1
 10
68.015556
 20
116.623493
 30
0.0
 10
67.915087
 20
116.623493
 30
0.0
 10
67.706415
 20
117.024190
 30
0.0
 10
67.556944
 20
117.523077
 30
0.0
  0
SPLINE
  5
1fa
100
AcDbEntity
  8
0
 62
7
100
AcDbSpline
 70
8
 71
3
 72
8
 73
4
 74
0
 40
0
 40
0
 40
0
 40
0
 40
1
 40
1
 40
1
 40
1
 10
67.556944
 20
117.523077
 30
0.0
 10
67.358153
 20
118.186589
 30
0.0
 10
66.849546
 20
118.857068
 30
0.0
 10
65.651944
 20
120.010160
 30
0.0
  0
SPLINE
  5
1fb
100
AcDbEntity
  8
0
 62
7
100
AcDbSpline
 70
8
 71
3
 72
8
 73
4
 74
0
 40
0
 40
0
 40
0
 40
0
 40
1
 40
1
 40
1
 40
1
 10
65.651944
 20
120.010160
 30
0.0
 10
63.390755
 20
122.187318
 30
0.0
 10
63.470014
 20
122.125345
 30
0.0
 10
62.265278
 20
122.585438
 30
0.0
  0
SPLINE
  5
1fc
100
AcDbEntity
  8
0
 62
7
100
AcDbSpline
 70
8
 71
3
 72
8
 73
4
 74
0
 40
0
 40
0
 40
0
 40
0
 40
1
 40
1
 40
1
 40
1
 10
62.265278
 20
122.585438
 30
0.0
 10
61.671742
 20
122.812110
 30
0.0
 10
61.060302
 20
123.120136
 30
0.0
 10
60.907083
 20
123.273354
 30
0.0
  0
SPLINE
  5
1fd
100
AcDbEntity
  8
0
 62
7
100
AcDbSpline
 70
8
 71
3
 72
8
 73
4
 74
0
 40
0
 40
0
 40
0
 40
0
 40
1
 40
1
 40
1
 40
1
 10
60.907083
 20
123.273354
 30
0.0
 10
60.753865
 20
123.426573
 30
0.0
 10
60.289420
 20
123.618981
 30
0.0
 10
59.875208
 20
123.696688
 30
0.0
  0
SPLINE
  5
1fe
100
AcDbEntity
  8
0
 62
7
100
AcDbSpline
 70
8
 71
3
 72
8
 73
4
 74
0
 40
0
 40
0
 40
0
 40
0
 40
1
 40
1
 40
1
 40
1
 10
59.875208
 20
123.696688
 30
0.0
 10
59.460996
 20
123.774392
 30
0.0
 10
59.125556
 20
123.912181
 30
0.0
 10
59.125556
 20
124.005368
 30
0.0
  0
SPLINE
  5
1ff
100
AcDbEntity
  8
0
 62
7
100
AcDbSpline
 70
8
 71
3
 72
8
 73
4
 74
0
 40
0
 40
0
 40
0
 40
0
 40
1
 40
1
 40
1
 40
1
 10
59.125556
 20
124.005368
 30
0.0
 10
59.125556
 20
124.098555
 30
0.0
 10
58.490826
 20
124.300841
 30
0.0
 10
57.714444
 20
124.455160
 30
0.0
  0
SPLINE
  5
200
100
AcDbEntity
  8
0
 62
7
100
AcDbSpline
 70
8
 71
3
 72
8
 73
4
 74
0
 40
0
 40
0
 40
0
 40
0
 40
1
 40
1
 40
1
 40
1
 10
57.714444
 20
124.455160
 30
0.0
 10
56.938062
 20
124.609479
 30
0.0
 10
56.303333
 20
124.796138
 30
0.0
 10
56.303333
 20
124.869674
 30
0.0
  0
SPLINE
  5
201
100
AcDbEntity
  8
0
 62
7
100
AcDbSpline
 70
8
 71
3
 72
8
 73
4
 74
0
 40
0
 40
0
 40
0
 40
0
 40
1
 40
1
 40
1
 40
1
 10
56.303333
 20
124.869674
 30
0.0
 10
56.303333
 20
124.943210
 30
0.0
 10
55.931037
 20
125.132327
 30
0.0
 10
55.483125
 20
125.293007
 30
0.0
  0
SPLINE
  5
202
100
AcDbEntity
  8
0
 62
7
100
AcDbSpline
 70
8
 71
3
 72
8
 73
4
 74
0
 40
0
 40
0
 40
0
 40
0
 40
1
 40
1
 40
1
 40
1
 10
55.483125
 20
125.293007
 30
0.0
 10
54.673650
 20
125.583391
 30
0.0
 10
53.692778
 20
126.434080
 30
0.0
 10
53.692778
 20
126.845229
 30
0.0
  0
SPLINE
  5
203
100
AcDbEntity
  8
0
 62
7
100
AcDbSpline
 70
8
 71
3
 72
8
 73
4
 74
0
 40
0
 40
0
 40
0
 40
0
 40
1
 40
1
 40
1
 40
1
 10
53.692778
 20
126.845229
 30
0.0
 10
53.692778
 20
126.963511
 30
0.0
 10
53.902506
 20
127.278212
 30
0.0
 10
54.151389
 20
127.541965
 30
0.0
  0
SPLINE
  5
204
100
AcDbEntity
  8
0
 62
7
100
AcDbSpline
 70
8
 71
3
 72
8
 73
4
 74
0
 40
0
 40
0
 40
0
 40
0
 40
1
 40
1
 40
1
 40
1
 10
54.151389
 20
127.541965
 30
0.0
 10
54.506478
 20
127.918261
 30
0.0
 10
54.574694
 20
128.206864
 30
0.0
 10
54.486528
 20
128.882521
 30
0.0
  0
SPLINE
  5
205
100
AcDbEntity
  8
0
 62
7
100
AcDbSpline
 70
8
 71
3
 72
8
 73
4
 74
0
 40
0
 40
0
 40
0
 40
0
 40
1
 40
1
 40
1
 40
1
 10
54.486528
 20
128.882521
 30
0.0
 10
54.424730
 20
129.356107
 30
0.0
 10
54.223824
 20
129.856969
 30
0.0
 10
54.036736
 20
129.993771
 30
0.0
  0
SPLINE
  5
206
100
AcDbEntity
  8
0
 62
7
100
AcDbSpline
 70
8
 71
3
 72
8
 73
4
 74
0
 40
0
 40
0
 40
0
 40
0
 40
1
 40
1
 40
1
 40
1
 10
54.036736
 20
129.993771
 30
0.0
 10
53.849648
 20
130.130573
 30
0.0
 10
53.692778
 20
130.352430
 30
0.0
 10
53.692778
 20
130.487660
 30
0.0
  0
SPLINE
  5
207
100
AcDbEntity
  8
0
 62
7
100
AcDbSpline
 70
8
 71
3
 72
8
 73
4
 74
0
 40
0
 40
0
 40
0
 40
0
 40
1
 40
1
 40
1
 40
1
 10
53.692778
 20
130.487660
 30
0.0
 10
53.692778
 20
130.903466
 30
0.0
 10
54.615294
 20
131.819396
 30
0.0
 10
55.033333
 20
131.819396
 30
0.0
  0
SPLINE
  5
208
100
AcDbEntity
  8
0
 62
7
100
AcDbSpline
 70
8
 71
3
 72
8
 73
4
 74
0
 40
0
 40
0
 40
0
 40
0
 40
1
 40
1
 40
1
 40
1
 10
55.033333
 20
131.819396
 30
0.0
 10
55.250678
 20
131.819396
 30
0.0
 10
55.430208
 20
131.920437
 30
0.0
 10
55.430208
 20
132.039882
 30
0.0
  0
SPLINE
  5
209
100
AcDbEntity
  8
0
 62
7
100
AcDbSpline
 70
8
 71
3
 72
8
 73
4
 74
0
 40
0
 40
0
 40
0
 40
0
 40
1
 40
1
 40
1
 40
1
 10
55.430208
 20
132.039882
 30
0.0
 10
55.430208
 20
132.159324
 30
0.0
 10
55.678406
 20
132.260368
 30
0.0
 10
55.977014
 20
132.260368
 30
0.0
  0
SPLINE
  5
20a
100
AcDbEntity
  8
0
 62
7
100
AcDbSpline
 70
8
 71
3
 72
8
 73
4
 74
0
 40
0
 40
0
 40
0
 40
0
 40
1
 40
1
 40
1
 40
1
 10
55.977014
 20
132.260368
 30
0.0
 10
56.275622
 20
132.260368
 30
0.0
 10
56.515000
 20
132.159324
 30
0.0
 10
56.515000
 20
132.039882
 30
0.0
  0
SPLINE
  5
20b
100
AcDbEntity
  8
0
 62
7
100
AcDbSpline
 70
8
 71
3
 72
8
 73
4
 74
0
 40
0
 40
0
 40
0
 40
0
 40
1
 40
1
 40
1
 40
1
 10
56.515000
 20
132.039882
 30
0.0
 10
56.515000
 20
131.920437
 30
0.0
 10
56.674681
 20
131.819396
 30
0.0
 10
56.867778
 20
131.819396
 30
0.0
  0
SPLINE
  5
20c
100
AcDbEntity
  8
0
 62
7
100
AcDbSpline
 70
8
 71
3
 72
8
 73
4
 74
0
 40
0
 40
0
 40
0
 40
0
 40
1
 40
1
 40
1
 40
1
 10
56.867778
 20
131.819396
 30
0.0
 10
57.111940
 20
131.819396
 30
0.0
 10
57.184894
 20
131.689308
 30
0.0
 10
57.105903
 20
131.387243
 30
0.0
  0
SPLINE
  5
20d
100
AcDbEntity
  8
0
 62
7
100
AcDbSpline
 70
8
 71
3
 72
8
 73
4
 74
0
 40
0
 40
0
 40
0
 40
0
 40
1
 40
1
 40
1
 40
1
 10
57.105903
 20
131.387243
 30
0.0
 10
57.021654
 20
131.065072
 30
0.0
 10
57.098675
 20
130.955090
 30
0.0
 10
57.405764
 20
130.955090
 30
0.0
  0
SPLINE
  5
20e
100
AcDbEntity
  8
0
 62
7
100
AcDbSpline
 70
8
 71
3
 72
8
 73
4
 74
0
 40
0
 40
0
 40
0
 40
0
 40
1
 40
1
 40
1
 40
1
 10
57.405764
 20
130.955090
 30
0.0
 10
57.633469
 20
130.955090
 30
0.0
 10
57.826839
 20
131.024260
 30
0.0
 10
57.829097
 20
131.113840
 30
0.0
  0
SPLINE
  5
20f
100
AcDbEntity
  8
0
 62
7
100
AcDbSpline
 70
8
 71
3
 72
8
 73
4
 74
0
 40
0
 40
0
 40
0
 40
0
 40
1
 40
1
 40
1
 40
1
 10
57.829097
 20
131.113840
 30
0.0
 10
57.831389
 20
131.203423
 30
0.0
 10
58.171811
 20
131.669245
 30
0.0
 10
58.587569
 20
132.145715
 30
0.0
  0
SPLINE
  5
210
100
AcDbEntity
  8
0
 62
7
100
AcDbSpline
 70
8
 71
3
 72
8
 73
4
 74
0
 40
0
 40
0
 40
0
 40
0
 40
1
 40
1
 40
1
 40
1
 10
58.587569
 20
132.145715
 30
0.0
 10
59.003331
 20
132.622183
 30
0.0
 10
59.346042
 20
133.086701
 30
0.0
 10
59.346042
 20
133.177590
 30
0.0
  0
SPLINE
  5
211
100
AcDbEntity
  8
0
 62
7
100
AcDbSpline
 70
8
 71
3
 72
8
 73
4
 74
0
 40
0
 40
0
 40
0
 40
0
 40
1
 40
1
 40
1
 40
1
 10
59.346042
 20
133.177590
 30
0.0
 10
59.346042
 20
133.453274
 30
0.0
 10
59.785120
 20
133.364692
 30
0.0
 10
60.130972
 20
133.018840
 30
0.0
  0
SPLINE
  5
212
100
AcDbEntity
  8
0
 62
7
100
AcDbSpline
 70
8
 71
3
 72
8
 73
4
 74
0
 40
0
 40
0
 40
0
 40
0
 40
1
 40
1
 40
1
 40
1
 10
60.130972
 20
133.018840
 30
0.0
 10
60.310138
 20
132.839677
 30
0.0
 10
60.355960
 20
132.692521
 30
0.0
 10
60.227986
 20
132.692521
 30
0.0
  0
SPLINE
  5
213
100
AcDbEntity
  8
0
 62
7
100
AcDbSpline
 70
8
 71
3
 72
8
 73
4
 74
0
 40
0
 40
0
 40
0
 40
0
 40
1
 40
1
 40
1
 40
1
 10
60.227986
 20
132.692521
 30
0.0
 10
60.100010
 20
132.692521
 30
0.0
 10
59.989861
 20
132.310846
 30
0.0
 10
59.989861
 20
131.845854
 30
0.0
  0
SPLINE
  5
214
100
AcDbEntity
  8
0
 62
7
100
AcDbSpline
 70
8
 71
3
 72
8
 73
4
 74
0
 40
0
 40
0
 40
0
 40
0
 40
1
 40
1
 40
1
 40
1
 10
59.989861
 20
131.845854
 30
0.0
 10
59.989861
 20
130.610940
 30
0.0
 10
60.509926
 20
130.513839
 30
0.0
 10
61.489167
 20
131.572452
 30
0.0
  0
SPLINE
  5
215
100
AcDbEntity
  8
0
 62
7
100
AcDbSpline
 70
8
 71
3
 72
8
 73
4
 74
0
 40
0
 40
0
 40
0
 40
0
 40
1
 40
1
 40
1
 40
1
 10
61.489167
 20
131.572452
 30
0.0
 10
61.960901
 20
132.082416
 30
0.0
 10
62.611059
 20
132.517010
 30
0.0
 10
63.120764
 20
132.657243
 30
0.0
  0
SPLINE
  5
216
100
AcDbEntity
  8
0
 62
7
100
AcDbSpline
 70
8
 71
3
 72
8
 73
4
 74
0
 40
0
 40
0
 40
0
 40
0
 40
1
 40
1
 40
1
 40
1
 10
63.120764
 20
132.657243
 30
0.0
 10
64.106270
 20
132.928383
 30
0.0
 10
64.337847
 20
132.845353
 30
0.0
 10
64.337847
 20
132.198632
 30
0.0
  0
SPLINE
  5
217
100
AcDbEntity
  8
0
 62
7
100
AcDbSpline
 70
8
 71
3
 72
8
 73
4
 74
0
 40
0
 40
0
 40
0
 40
0
 40
1
 40
1
 40
1
 40
1
 10
64.337847
 20
132.198632
 30
0.0
 10
64.337847
 20
131.743038
 30
0.0
 10
64.347113
 20
131.739702
 30
0.0
 10
64.708264
 20
132.260368
 30
0.0
  0
SPLINE
  5
218
100
AcDbEntity
  8
0
 62
7
100
AcDbSpline
 70
8
 71
3
 72
8
 73
4
 74
0
 40
0
 40
0
 40
0
 40
0
 40
1
 40
1
 40
1
 40
1
 10
64.708264
 20
132.260368
 30
0.0
 10
64.913112
 20
132.555694
 30
0.0
 10
65.253531
 20
132.990138
 30
0.0
 10
65.466736
 20
133.221688
 30
0.0
  0
SPLINE
  5
219
100
AcDbEntity
  8
0
 62
7
100
AcDbSpline
 70
8
 71
3
 72
8
 73
4
 74
0
 40
0
 40
0
 40
0
 40
0
 40
1
 40
1
 40
1
 40
1
 10
65.466736
 20
133.221688
 30
0.0
 10
65.679938
 20
133.453234
 30
0.0
 10
65.854792
 20
133.746415
 30
0.0
 10
65.854792
 20
133.874327
 30
0.0
  0
SPLINE
  5
21a
100
AcDbEntity
  8
0
 62
7
100
AcDbSpline
 70
8
 71
3
 72
8
 73
4
 74
0
 40
0
 40
0
 40
0
 40
0
 40
1
 40
1
 40
1
 40
1
 10
65.854792
 20
133.874327
 30
0.0
 10
65.854792
 20
134.002238
 30
0.0
 10
66.056338
 20
134.230824
 30
0.0
 10
66.304583
 20
134.385854
 30
0.0
  0
SPLINE
  5
21b
100
AcDbEntity
  8
0
 62
7
100
AcDbSpline
 70
8
 71
3
 72
8
 73
4
 74
0
 40
0
 40
0
 40
0
 40
0
 40
1
 40
1
 40
1
 40
1
 10
66.304583
 20
134.385854
 30
0.0
 10
66.654251
 20
134.604238
 30
0.0
 10
66.831478
 20
134.611827
 30
0.0
 10
67.071875
 20
134.412313
 30
0.0
  0
SPLINE
  5
21c
100
AcDbEntity
  8
0
 62
7
100
AcDbSpline
 70
8
 71
3
 72
8
 73
4
 74
0
 40
0
 40
0
 40
0
 40
0
 40
1
 40
1
 40
1
 40
1
 10
67.071875
 20
134.412313
 30
0.0
 10
67.325232
 20
134.202046
 30
0.0
 10
67.421444
 20
134.277512
 30
0.0
 10
67.609861
 20
134.818007
 30
0.0
  0
SPLINE
  5
21d
100
AcDbEntity
  8
0
 62
7
100
AcDbSpline
 70
8
 71
3
 72
8
 73
4
 74
0
 40
0
 40
0
 40
0
 40
0
 40
1
 40
1
 40
1
 40
1
 10
67.609861
 20
134.818007
 30
0.0
 10
67.736788
 20
135.182102
 30
0.0
 10
67.977029
 20
135.528569
 30
0.0
 10
68.147847
 20
135.594118
 30
0.0
  0
SPLINE
  5
21e
100
AcDbEntity
  8
0
 62
7
100
AcDbSpline
 70
8
 71
3
 72
8
 73
4
 74
0
 40
0
 40
0
 40
0
 40
0
 40
1
 40
1
 40
1
 40
1
 10
68.147847
 20
135.594118
 30
0.0
 10
68.318665
 20
135.659667
 30
0.0
 10
68.465347
 20
135.906820
 30
0.0
 10
68.465347
 20
136.140924
 30
0.0
  0
SPLINE
  5
21f
100
AcDbEntity
  8
0
 62
7
100
AcDbSpline
 70
8
 71
3
 72
8
 73
4
 74
0
 40
0
 40
0
 40
0
 40
0
 40
1
 40
1
 40
1
 40
1
 10
68.465347
 20
136.140924
 30
0.0
 10
68.465347
 20
136.375027
 30
0.0
 10
68.607759
 20
136.715492
 30
0.0
 10
68.782847
 20
136.890577
 30
0.0
  0
SPLINE
  5
220
100
AcDbEntity
  8
0
 62
7
100
AcDbSpline
 70
8
 71
3
 72
8
 73
4
 74
0
 40
0
 40
0
 40
0
 40
0
 40
1
 40
1
 40
1
 40
1
 10
68.782847
 20
136.890577
 30
0.0
 10
68.957932
 20
137.065664
 30
0.0
 10
69.265885
 20
137.631511
 30
0.0
 10
69.470764
 20
138.151757
 30
0.0
  0
SPLINE
  5
221
100
AcDbEntity
  8
0
 62
7
100
AcDbSpline
 70
8
 71
3
 72
8
 73
4
 74
0
 40
0
 40
0
 40
0
 40
0
 40
1
 40
1
 40
1
 40
1
 10
69.470764
 20
138.151757
 30
0.0
 10
69.675646
 20
138.672000
 30
0.0
 10
69.907562
 20
139.150367
 30
0.0
 10
69.982292
 20
139.210090
 30
0.0
  0
SPLINE
  5
222
100
AcDbEntity
  8
0
 62
7
100
AcDbSpline
 70
8
 71
3
 72
8
 73
4
 74
0
 40
0
 40
0
 40
0
 40
0
 40
1
 40
1
 40
1
 40
1
 10
69.982292
 20
139.210090
 30
0.0
 10
70.057018
 20
139.269811
 30
0.0
 10
70.255926
 20
139.656346
 30
0.0
 10
70.423264
 20
140.074396
 30
0.0
  0
SPLINE
  5
223
100
AcDbEntity
  8
0
 62
7
100
AcDbSpline
 70
8
 71
3
 72
8
 73
4
 74
0
 40
0
 40
0
 40
0
 40
0
 40
1
 40
1
 40
1
 40
1
 10
70.423264
 20
140.074396
 30
0.0
 10
70.590605
 20
140.492449
 30
0.0
 10
70.840978
 20
140.947233
 30
0.0
 10
70.978889
 20
141.088632
 30
0.0
  0
SPLINE
  5
224
100
AcDbEntity
  8
0
 62
7
100
AcDbSpline
 70
8
 71
3
 72
8
 73
4
 74
0
 40
0
 40
0
 40
0
 40
0
 40
1
 40
1
 40
1
 40
1
 10
70.978889
 20
141.088632
 30
0.0
 10
71.116800
 20
141.230031
 30
0.0
 10
71.291828
 20
141.867004
 30
0.0
 10
71.375764
 20
142.499743
 30
0.0
  0
SPLINE
  5
225
100
AcDbEntity
  8
0
 62
7
100
AcDbSpline
 70
8
 71
3
 72
8
 73
4
 74
0
 40
0
 40
0
 40
0
 40
0
 40
1
 40
1
 40
1
 40
1
 10
71.375764
 20
142.499743
 30
0.0
 10
71.459700
 20
143.132483
 30
0.0
 10
71.648752
 20
143.717264
 30
0.0
 10
71.790278
 20
143.805021
 30
0.0
  0
SPLINE
  5
226
100
AcDbEntity
  8
0
 62
7
100
AcDbSpline
 70
8
 71
3
 72
8
 73
4
 74
0
 40
0
 40
0
 40
0
 40
0
 40
1
 40
1
 40
1
 40
1
 10
71.790278
 20
143.805021
 30
0.0
 10
72.102449
 20
143.998586
 30
0.0
 10
72.094186
 20
147.653843
 30
0.0
 10
71.781458
 20
147.861965
 30
0.0
  0
SPLINE
  5
227
100
AcDbEntity
  8
0
 62
7
100
AcDbSpline
 70
8
 71
3
 72
8
 73
4
 74
0
 40
0
 40
0
 40
0
 40
0
 40
1
 40
1
 40
1
 40
1
 10
71.781458
 20
147.861965
 30
0.0
 10
71.667771
 20
147.937624
 30
0.0
 10
71.452291
 20
148.614751
 30
0.0
 10
71.296389
 20
149.361271
 30
0.0
  0
SPLINE
  5
228
100
AcDbEntity
  8
0
 62
7
100
AcDbSpline
 70
8
 71
3
 72
8
 73
4
 74
0
 40
0
 40
0
 40
0
 40
0
 40
1
 40
1
 40
1
 40
1
 10
71.296389
 20
149.361271
 30
0.0
 10
71.140489
 20
150.107794
 30
0.0
 10
70.942217
 20
150.719465
 30
0.0
 10
70.855417
 20
150.719465
 30
0.0
  0
SPLINE
  5
229
100
AcDbEntity
  8
0
 62
7
100
AcDbSpline
 70
8
 71
3
 72
8
 73
4
 74
0
 40
0
 40
0
 40
0
 40
0
 40
1
 40
1
 40
1
 40
1
 10
70.855417
 20
150.719465
 30
0.0
 10
70.768616
 20
150.719465
 30
0.0
 10
70.563593
 20
151.322318
 30
0.0
 10
70.405625
 20
152.068840
 30
0.0
  0
SPLINE
  5
22a
100
AcDbEntity
  8
0
 62
7
100
AcDbSpline
 70
8
 71
3
 72
8
 73
4
 74
0
 40
0
 40
0
 40
0
 40
0
 40
1
 40
1
 40
1
 40
1
 10
70.405625
 20
152.068840
 30
0.0
 10
70.247662
 20
152.815361
 30
0.0
 10
70.006182
 20
153.543384
 30
0.0
 10
69.867639
 20
153.682799
 30
0.0
  0
SPLINE
  5
22b
100
AcDbEntity
  8
0
 62
7
100
AcDbSpline
 70
8
 71
3
 72
8
 73
4
 74
0
 40
0
 40
0
 40
0
 40
0
 40
1
 40
1
 40
1
 40
1
 10
69.867639
 20
153.682799
 30
0.0
 10
69.729093
 20
153.822217
 30
0.0
 10
69.492656
 20
154.534932
 30
0.0
 10
69.338472
 20
155.261479
 30
0.0
  0
SPLINE
  5
22c
100
AcDbEntity
  8
0
 62
7
100
AcDbSpline
 70
8
 71
3
 72
8
 73
4
 74
0
 40
0
 40
0
 40
0
 40
0
 40
1
 40
1
 40
1
 40
1
 10
69.338472
 20
155.261479
 30
0.0
 10
69.184289
 20
155.988029
 30
0.0
 10
68.987148
 20
156.575577
 30
0.0
 10
68.906319
 20
156.575577
 30
0.0
  0
SPLINE
  5
22d
100
AcDbEntity
  8
0
 62
7
100
AcDbSpline
 70
8
 71
3
 72
8
 73
4
 74
0
 40
0
 40
0
 40
0
 40
0
 40
1
 40
1
 40
1
 40
1
 10
68.906319
 20
156.575577
 30
0.0
 10
68.825491
 20
156.575577
 30
0.0
 10
68.629378
 20
156.924815
 30
0.0
 10
68.465347
 20
157.342868
 30
0.0
  0
SPLINE
  5
22e
100
AcDbEntity
  8
0
 62
7
100
AcDbSpline
 70
8
 71
3
 72
8
 73
4
 74
0
 40
0
 40
0
 40
0
 40
0
 40
1
 40
1
 40
1
 40
1
 10
68.465347
 20
157.342868
 30
0.0
 10
68.301317
 20
157.760918
 30
0.0
 10
68.094620
 20
158.101340
 30
0.0
 10
68.006736
 20
158.101340
 30
0.0
  0
SPLINE
  5
22f
100
AcDbEntity
  8
0
 62
7
100
AcDbSpline
 70
8
 71
3
 72
8
 73
4
 74
0
 40
0
 40
0
 40
0
 40
0
 40
1
 40
1
 40
1
 40
1
 10
68.006736
 20
158.101340
 30
0.0
 10
67.918846
 20
158.101340
 30
0.0
 10
67.730192
 20
158.441761
 30
0.0
 10
67.592222
 20
158.859813
 30
0.0
  0
SPLINE
  5
230
100
AcDbEntity
  8
0
 62
7
100
AcDbSpline
 70
8
 71
3
 72
8
 73
4
 74
0
 40
0
 40
0
 40
0
 40
0
 40
1
 40
1
 40
1
 40
1
 10
67.592222
 20
158.859813
 30
0.0
 10
67.454252
 20
159.277865
 30
0.0
 10
67.269749
 20
159.618285
 30
0.0
 10
67.177708
 20
159.618285
 30
0.0
  0
SPLINE
  5
231
100
AcDbEntity
  8
0
 62
7
100
AcDbSpline
 70
8
 71
3
 72
8
 73
4
 74
0
 40
0
 40
0
 40
0
 40
0
 40
1
 40
1
 40
1
 40
1
 10
67.177708
 20
159.618285
 30
0.0
 10
67.085670
 20
159.618285
 30
0.0
 10
66.834357
 20
160.003031
 30
0.0
 10
66.622083
 20
160.473771
 30
0.0
  0
SPLINE
  5
232
100
AcDbEntity
  8
0
 62
7
100
AcDbSpline
 70
8
 71
3
 72
8
 73
4
 74
0
 40
0
 40
0
 40
0
 40
0
 40
1
 40
1
 40
1
 40
1
 10
66.622083
 20
160.473771
 30
0.0
 10
66.409810
 20
160.944509
 30
0.0
 10
66.098364
 20
161.380902
 30
0.0
 10
65.934167
 20
161.443910
 30
0.0
  0
SPLINE
  5
233
100
AcDbEntity
  8
0
 62
7
100
AcDbSpline
 70
8
 71
3
 72
8
 73
4
 74
0
 40
0
 40
0
 40
0
 40
0
 40
1
 40
1
 40
1
 40
1
 10
65.934167
 20
161.443910
 30
0.0
 10
65.769970
 20
161.506918
 30
0.0
 10
65.636563
 20
161.687732
 30
0.0
 10
65.634306
 20
161.840785
 30
0.0
  0
SPLINE
  5
234
100
AcDbEntity
  8
0
 62
7
100
AcDbSpline
 70
8
 71
3
 72
8
 73
4
 74
0
 40
0
 40
0
 40
0
 40
0
 40
1
 40
1
 40
1
 40
1
 10
65.634306
 20
161.840785
 30
0.0
 10
65.632243
 20
161.993838
 30
0.0
 10
65.392864
 20
162.344431
 30
0.0
 10
65.096319
 20
162.625715
 30
0.0
  0
SPLINE
  5
235
100
AcDbEntity
  8
0
 62
7
100
AcDbSpline
 70
8
 71
3
 72
8
 73
4
 74
0
 40
0
 40
0
 40
0
 40
0
 40
1
 40
1
 40
1
 40
1
 10
65.096319
 20
162.625715
 30
0.0
 10
64.799777
 20
162.907000
 30
0.0
 10
64.549514
 20
163.279295
 30
0.0
 10
64.549514
 20
163.445924
 30
0.0
  0
SPLINE
  5
236
100
AcDbEntity
  8
0
 62
7
100
AcDbSpline
 70
8
 71
3
 72
8
 73
4
 74
0
 40
0
 40
0
 40
0
 40
0
 40
1
 40
1
 40
1
 40
1
 10
64.549514
 20
163.445924
 30
0.0
 10
64.549514
 20
163.612552
 30
0.0
 10
64.457289
 20
163.745785
 30
0.0
 10
64.337847
 20
163.745785
 30
0.0
  0
SPLINE
  5
237
100
AcDbEntity
  8
0
 62
7
100
AcDbSpline
 70
8
 71
3
 72
8
 73
4
 74
0
 40
0
 40
0
 40
0
 40
0
 40
1
 40
1
 40
1
 40
1
 10
64.337847
 20
163.745785
 30
0.0
 10
64.218405
 20
163.745785
 30
0.0
 10
64.117361
 20
163.939051
 30
0.0
 10
64.117361
 20
164.177938
 30
0.0
  0
SPLINE
  5
238
100
AcDbEntity
  8
0
 62
7
100
AcDbSpline
 70
8
 71
3
 72
8
 73
4
 74
0
 40
0
 40
0
 40
0
 40
0
 40
1
 40
1
 40
1
 40
1
 10
64.117361
 20
164.177938
 30
0.0
 10
64.117361
 20
164.416824
 30
0.0
 10
64.218405
 20
164.618910
 30
0.0
 10
64.337847
 20
164.618910
 30
0.0
  0
SPLINE
  5
239
100
AcDbEntity
  8
0
 62
7
100
AcDbSpline
 70
8
 71
3
 72
8
 73
4
 74
0
 40
0
 40
0
 40
0
 40
0
 40
1
 40
1
 40
1
 40
1
 10
64.337847
 20
164.618910
 30
0.0
 10
64.457289
 20
164.618910
 30
0.0
 10
64.549514
 20
164.959330
 30
0.0
 10
64.549514
 20
165.377382
 30
0.0
  0
SPLINE
  5
23a
100
AcDbEntity
  8
0
 62
7
100
AcDbSpline
 70
8
 71
3
 72
8
 73
4
 74
0
 40
0
 40
0
 40
0
 40
0
 40
1
 40
1
 40
1
 40
1
 10
64.549514
 20
165.377382
 30
0.0
 10
64.549514
 20
165.795434
 30
0.0
 10
64.457289
 20
166.135854
 30
0.0
 10
64.337847
 20
166.135854
 30
0.0
  0
SPLINE
  5
23b
100
AcDbEntity
  8
0
 62
7
100
AcDbSpline
 70
8
 71
3
 72
8
 73
4
 74
0
 40
0
 40
0
 40
0
 40
0
 40
1
 40
1
 40
1
 40
1
 10
64.337847
 20
166.135854
 30
0.0
 10
64.218405
 20
166.135854
 30
0.0
 10
64.117361
 20
166.418291
 30
0.0
 10
64.117361
 20
166.762035
 30
0.0
  0
SPLINE
  5
23c
100
AcDbEntity
  8
0
 62
7
100
AcDbSpline
 70
8
 71
3
 72
8
 73
4
 74
0
 40
0
 40
0
 40
0
 40
0
 40
1
 40
1
 40
1
 40
1
 10
64.117361
 20
166.762035
 30
0.0
 10
64.117361
 20
167.465431
 30
0.0
 10
63.554260
 20
168.958077
 30
0.0
 10
63.288333
 20
168.958077
 30
0.0
  0
SPLINE
  5
23d
100
AcDbEntity
  8
0
 62
7
100
AcDbSpline
 70
8
 71
3
 72
8
 73
4
 74
0
 40
0
 40
0
 40
0
 40
0
 40
1
 40
1
 40
1
 40
1
 10
63.288333
 20
168.958077
 30
0.0
 10
63.192787
 20
168.958077
 30
0.0
 10
62.980835
 20
169.291304
 30
0.0
 10
62.820903
 20
169.698910
 30
0.0
  0
SPLINE
  5
23e
100
AcDbEntity
  8
0
 62
7
100
AcDbSpline
 70
8
 71
3
 72
8
 73
4
 74
0
 40
0
 40
0
 40
0
 40
0
 40
1
 40
1
 40
1
 40
1
 10
62.820903
 20
169.698910
 30
0.0
 10
62.660970
 20
170.106516
 30
0.0
 10
62.280882
 20
170.571035
 30
0.0
 10
61.974236
 20
170.730785
 30
0.0
  0
SPLINE
  5
23f
100
AcDbEntity
  8
0
 62
7
100
AcDbSpline
 70
8
 71
3
 72
8
 73
4
 74
0
 40
0
 40
0
 40
0
 40
0
 40
1
 40
1
 40
1
 40
1
 10
61.974236
 20
170.730785
 30
0.0
 10
61.667590
 20
170.890535
 30
0.0
 10
61.243210
 20
171.192037
 30
0.0
 10
61.030556
 20
171.401063
 30
0.0
  0
SPLINE
  5
240
100
AcDbEntity
  8
0
 62
7
100
AcDbSpline
 70
8
 71
3
 72
8
 73
4
 74
0
 40
0
 40
0
 40
0
 40
0
 40
1
 40
1
 40
1
 40
1
 10
61.030556
 20
171.401063
 30
0.0
 10
60.817901
 20
171.610089
 30
0.0
 10
60.495347
 20
171.780299
 30
0.0
 10
60.316181
 20
171.780299
 30
0.0
  0
SPLINE
  5
241
100
AcDbEntity
  8
0
 62
7
100
AcDbSpline
 70
8
 71
3
 72
8
 73
4
 74
0
 40
0
 40
0
 40
0
 40
0
 40
1
 40
1
 40
1
 40
1
 10
60.316181
 20
171.780299
 30
0.0
 10
60.137015
 20
171.780299
 30
0.0
 10
59.989861
 20
171.860840
 30
0.0
 10
59.989861
 20
171.956688
 30
0.0
  0
SPLINE
  5
242
100
AcDbEntity
  8
0
 62
7
100
AcDbSpline
 70
8
 71
3
 72
8
 73
4
 74
0
 40
0
 40
0
 40
0
 40
0
 40
1
 40
1
 40
1
 40
1
 10
59.989861
 20
171.956688
 30
0.0
 10
59.989861
 20
172.052536
 30
0.0
 10
59.502288
 20
172.306376
 30
0.0
 10
58.905069
 20
172.521132
 30
0.0
  0
SPLINE
  5
243
100
AcDbEntity
  8
0
 62
7
100
AcDbSpline
 70
8
 71
3
 72
8
 73
4
 74
0
 40
0
 40
0
 40
0
 40
0
 40
1
 40
1
 40
1
 40
1
 10
58.905069
 20
172.521132
 30
0.0
 10
58.307853
 20
172.735888
 30
0.0
 10
57.820278
 20
172.987619
 30
0.0
 10
57.820278
 20
173.085577
 30
0.0
  0
SPLINE
  5
244
100
AcDbEntity
  8
0
 62
7
100
AcDbSpline
 70
8
 71
3
 72
8
 73
4
 74
0
 40
0
 40
0
 40
0
 40
0
 40
1
 40
1
 40
1
 40
1
 10
57.820278
 20
173.085577
 30
0.0
 10
57.820278
 20
173.183534
 30
0.0
 10
57.525220
 20
173.331421
 30
0.0
 10
57.158819
 20
173.411896
 30
0.0
  0
SPLINE
  5
245
100
AcDbEntity
  8
0
 62
7
100
AcDbSpline
 70
8
 71
3
 72
8
 73
4
 74
0
 40
0
 40
0
 40
0
 40
0
 40
1
 40
1
 40
1
 40
1
 10
57.158819
 20
173.411896
 30
0.0
 10
56.792422
 20
173.492371
 30
0.0
 10
56.438317
 20
173.693785
 30
0.0
 10
56.373889
 20
173.861688
 30
0.0
  0
SPLINE
  5
246
100
AcDbEntity
  8
0
 62
7
100
AcDbSpline
 70
8
 71
3
 72
8
 73
4
 74
0
 40
0
 40
0
 40
0
 40
0
 40
1
 40
1
 40
1
 40
1
 10
56.373889
 20
173.861688
 30
0.0
 10
56.309458
 20
174.029590
 30
0.0
 10
56.123007
 20
174.170368
 30
0.0
 10
55.959375
 20
174.170368
 30
0.0
  0
SPLINE
  5
247
100
AcDbEntity
  8
0
 62
7
100
AcDbSpline
 70
8
 71
3
 72
8
 73
4
 74
0
 40
0
 40
0
 40
0
 40
0
 40
1
 40
1
 40
1
 40
1
 10
55.959375
 20
174.170368
 30
0.0
 10
55.795745
 20
174.170368
 30
0.0
 10
55.502392
 20
174.418565
 30
0.0
 10
55.306736
 20
174.717174
 30
0.0
  0
SPLINE
  5
248
100
AcDbEntity
  8
0
 62
7
100
AcDbSpline
 70
8
 71
3
 72
8
 73
4
 74
0
 40
0
 40
0
 40
0
 40
0
 40
1
 40
1
 40
1
 40
1
 10
55.306736
 20
174.717174
 30
0.0
 10
55.111083
 20
175.015782
 30
0.0
 10
54.824630
 20
175.255160
 30
0.0
 10
54.671736
 20
175.255160
 30
0.0
  0
SPLINE
  5
249
100
AcDbEntity
  8
0
 62
7
100
AcDbSpline
 70
8
 71
3
 72
8
 73
4
 74
0
 40
0
 40
0
 40
0
 40
0
 40
1
 40
1
 40
1
 40
1
 10
54.671736
 20
175.255160
 30
0.0
 10
54.518845
 20
175.255160
 30
0.0
 10
54.159271
 20
175.496601
 30
0.0
 10
53.877986
 20
175.793146
 30
0.0
  0
SPLINE
  5
24a
100
AcDbEntity
  8
0
 62
7
100
AcDbSpline
 70
8
 71
3
 72
8
 73
4
 74
0
 40
0
 40
0
 40
0
 40
0
 40
1
 40
1
 40
1
 40
1
 10
53.877986
 20
175.793146
 30
0.0
 10
53.596701
 20
176.089691
 30
0.0
 10
53.246107
 20
176.337891
 30
0.0
 10
53.093056
 20
176.339952
 30
0.0
  0
SPLINE
  5
24b
100
AcDbEntity
  8
0
 62
7
100
AcDbSpline
 70
8
 71
3
 72
8
 73
4
 74
0
 40
0
 40
0
 40
0
 40
0
 40
1
 40
1
 40
1
 40
1
 10
53.093056
 20
176.339952
 30
0.0
 10
52.940001
 20
176.342015
 30
0.0
 10
52.760736
 20
176.480403
 30
0.0
 10
52.696181
 20
176.648632
 30
0.0
  0
SPLINE
  5
24c
100
AcDbEntity
  8
0
 62
7
100
AcDbSpline
 70
8
 71
3
 72
8
 73
4
 74
0
 40
0
 40
0
 40
0
 40
0
 40
1
 40
1
 40
1
 40
1
 10
52.696181
 20
176.648632
 30
0.0
 10
52.631625
 20
176.816861
 30
0.0
 10
52.296274
 20
177.068207
 30
0.0
 10
51.946528
 20
177.213077
 30
0.0
  0
SPLINE
  5
24d
100
AcDbEntity
  8
0
 62
7
100
AcDbSpline
 70
8
 71
3
 72
8
 73
4
 74
0
 40
0
 40
0
 40
0
 40
0
 40
1
 40
1
 40
1
 40
1
 10
51.946528
 20
177.213077
 30
0.0
 10
51.596781
 20
177.357947
 30
0.0
 10
51.302708
 20
177.551444
 30
0.0
 10
51.302708
 20
177.636410
 30
0.0
  0
SPLINE
  5
24e
100
AcDbEntity
  8
0
 62
7
100
AcDbSpline
 70
8
 71
3
 72
8
 73
4
 74
0
 40
0
 40
0
 40
0
 40
0
 40
1
 40
1
 40
1
 40
1
 10
51.302708
 20
177.636410
 30
0.0
 10
51.302708
 20
177.721376
 30
0.0
 10
50.722911
 20
177.980685
 30
0.0
 10
50.006250
 20
178.209674
 30
0.0
  0
SPLINE
  5
24f
100
AcDbEntity
  8
0
 62
7
100
AcDbSpline
 70
8
 71
3
 72
8
 73
4
 74
0
 40
0
 40
0
 40
0
 40
0
 40
1
 40
1
 40
1
 40
1
 10
50.006250
 20
178.209674
 30
0.0
 10
49.289589
 20
178.438663
 30
0.0
 10
48.700972
 20
178.690523
 30
0.0
 10
48.700972
 20
178.774118
 30
0.0
  0
SPLINE
  5
250
100
AcDbEntity
  8
0
 62
7
100
AcDbSpline
 70
8
 71
3
 72
8
 73
4
 74
0
 40
0
 40
0
 40
0
 40
0
 40
1
 40
1
 40
1
 40
1
 10
48.700972
 20
178.774118
 30
0.0
 10
48.700972
 20
178.857714
 30
0.0
 10
48.112353
 20
179.038818
 30
0.0
 10
47.395694
 20
179.179813
 30
0.0
  0
SPLINE
  5
251
100
AcDbEntity
  8
0
 62
7
100
AcDbSpline
 70
8
 71
3
 72
8
 73
4
 74
0
 40
0
 40
0
 40
0
 40
0
 40
1
 40
1
 40
1
 40
1
 10
47.395694
 20
179.179813
 30
0.0
 10
46.679033
 20
179.320807
 30
0.0
 10
46.090417
 20
179.525701
 30
0.0
 10
46.090417
 20
179.629604
 30
0.0
  0
SPLINE
  5
252
100
AcDbEntity
  8
0
 62
7
100
AcDbSpline
 70
8
 71
3
 72
8
 73
4
 74
0
 40
0
 40
0
 40
0
 40
0
 40
1
 40
1
 40
1
 40
1
 10
46.090417
 20
179.629604
 30
0.0
 10
46.090417
 20
179.931307
 30
0.0
 10
37.892143
 20
179.870337
 30
0.0
 10
37.791319
 20
179.567868
 30
0.0
  0
SPLINE
  5
253
100
AcDbEntity
  8
0
 62
7
100
AcDbSpline
 70
8
 71
3
 72
8
 73
4
 74
0
 40
0
 40
0
 40
0
 40
0
 40
1
 40
1
 40
1
 40
1
 10
37.791319
 20
179.567868
 30
0.0
 10
37.739376
 20
179.412039
 30
0.0
 10
37.141085
 20
179.306502
 30
0.0
 10
36.221458
 20
179.294465
 30
0.0
  0
SPLINE
  5
254
100
AcDbEntity
  8
0
 62
7
100
AcDbSpline
 70
8
 71
3
 72
8
 73
4
 74
0
 40
0
 40
0
 40
0
 40
0
 40
1
 40
1
 40
1
 40
1
 10
36.221458
 20
179.294465
 30
0.0
 10
34.755732
 20
179.275284
 30
0.0
 10
34.734427
 20
179.287353
 30
0.0
 10
34.519306
 20
179.929465
 30
0.0
  0
SPLINE
  5
255
100
AcDbEntity
  8
0
 62
7
100
AcDbSpline
 70
8
 71
3
 72
8
 73
4
 74
0
 40
0
 40
0
 40
0
 40
0
 40
1
 40
1
 40
1
 40
1
 10
34.519306
 20
179.929465
 30
0.0
 10
34.399257
 20
180.287796
 30
0.0
 10
34.090263
 20
180.745709
 30
0.0
 10
33.840208
 20
180.952521
 30
0.0
  0
SPLINE
  5
256
100
AcDbEntity
  8
0
 62
7
100
AcDbSpline
 70
8
 71
3
 72
8
 73
4
 74
0
 40
0
 40
0
 40
0
 40
0
 40
1
 40
1
 40
1
 40
1
 10
33.840208
 20
180.952521
 30
0.0
 10
33.590159
 20
181.159333
 30
0.0
 10
33.270094
 20
181.430586
 30
0.0
 10
33.125833
 20
181.552243
 30
0.0
  0
SPLINE
  5
257
100
AcDbEntity
  8
0
 62
7
100
AcDbSpline
 70
8
 71
3
 72
8
 73
4
 74
0
 40
0
 40
0
 40
0
 40
0
 40
1
 40
1
 40
1
 40
1
 10
33.125833
 20
181.552243
 30
0.0
 10
32.788008
 20
181.837133
 30
0.0
 10
31.758819
 20
181.836136
 30
0.0
 10
31.758819
 20
181.552243
 30
0.0
  0
SPLINE
  5
258
100
AcDbEntity
  8
0
 62
7
100
AcDbSpline
 70
8
 71
3
 72
8
 73
4
 74
0
 40
0
 40
0
 40
0
 40
0
 40
1
 40
1
 40
1
 40
1
 10
31.758819
 20
181.552243
 30
0.0
 10
31.758819
 20
181.210799
 30
0.0
 10
31.165760
 20
181.304784
 30
0.0
 10
31.026806
 20
181.666896
 30
0.0
  0
SPLINE
  5
259
100
AcDbEntity
  8
0
 62
7
100
AcDbSpline
 70
8
 71
3
 72
8
 73
4
 74
0
 40
0
 40
0
 40
0
 40
0
 40
1
 40
1
 40
1
 40
1
 10
31.026806
 20
181.666896
 30
0.0
 10
30.946733
 20
181.875555
 30
0.0
 10
30.784871
 20
181.975577
 30
0.0
 10
30.585833
 20
181.975577
 30
0.0
  0
LWPOLYLINE
  5
25a
100
AcDbEntity
  8
0
 62
7
100
AcDbPolyline
 90
5
 70
0
 10
0.141111
 20
0.691896
 30
0.0
 10
0.000000
 20
0.003979
 30
0.0
 10
32.958264
 20
0.003979
 30
0.0
 10
65.916528
 20
0.003979
 30
0.0
 10
65.766597
 20
0.921202
 30
0.0
  0
SPLINE
  5
25b
100
AcDbEntity
  8
0
 62
7
100
AcDbSpline
 70
8
 71
3
 72
8
 73
4
 74
0
 40
0
 40
0
 40
0
 40
0
 40
1
 40
1
 40
1
 40
1
 10
25.426458
 20
175.246340
 30
0.0
 10
25.615912
 20
175.240096
 30
0.0
 10
25.682222
 20
175.106860
 30
0.0
 10
25.682222
 20
174.823007
 30
0.0
  0
SPLINE
  5
25c
100
AcDbEntity
  8
0
 62
7
100
AcDbSpline
 70
8
 71
3
 72
8
 73
4
 74
0
 40
0
 40
0
 40
0
 40
0
 40
1
 40
1
 40
1
 40
1
 10
25.682222
 20
174.823007
 30
0.0
 10
25.682222
 20
174.504491
 30
0.0
 10
25.533559
 20
174.390854
 30
0.0
 10
25.135417
 20
174.390854
 30
0.0
  0
SPLINE
  5
25d
100
AcDbEntity
  8
0
 62
7
100
AcDbSpline
 70
8
 71
3
 72
8
 73
4
 74
0
 40
0
 40
0
 40
0
 40
0
 40
1
 40
1
 40
1
 40
1
 10
25.135417
 20
174.390854
 30
0.0
 10
24.529133
 20
174.390854
 30
0.0
 10
24.392142
 20
174.912103
 30
0.0
 10
24.941389
 20
175.122868
 30
0.0
  0
SPLINE
  5
25e
100
AcDbEntity
  8
0
 62
7
100
AcDbSpline
 70
8
 71
3
 72
8
 73
4
 74
0
 40
0
 40
0
 40
0
 40
0
 40
1
 40
1
 40
1
 40
1
 10
24.941389
 20
175.122868
 30
0.0
 10
25.156630
 20
175.205464
 30
0.0
 10
25.312786
 20
175.250087
 30
0.0
 10
25.426458
 20
175.246340
 30
0.0
  0
LWPOLYLINE
  5
25f
100
AcDbEntity
  8
0
 62
7
100
AcDbPolyline
 90
2
 70
0
 10
30.585833
 20
181.975577
 30
0.0
 10
30.585833
 20
181.975577
 30
0.0
  0
SPLINE
  5
260
100
AcDbEntity
  8
0
 62
7
100
AcDbSpline
 70
8
 71
3
 72
8
 73
4
 74
0
 40
0
 40
0
 40
0
 40
0
 40
1
 40
1
 40
1
 40
1
 10
32.905347
 20
129.835021
 30
0.0
 10
33.098672
 20
129.852002
 30
0.0
 10
33.284583
 20
129.725231
 30
0.0
 10
33.284583
 20
129.446965
 30
0.0
  0
SPLINE
  5
261
100
AcDbEntity
  8
0
 62
7
100
AcDbSpline
 70
8
 71
3
 72
8
 73
4
 74
0
 40
0
 40
0
 40
0
 40
0
 40
1
 40
1
 40
1
 40
1
 10
33.284583
 20
129.446965
 30
0.0
 10
33.284583
 20
129.136177
 30
0.0
 10
33.145583
 20
128.997174
 30
0.0
 10
32.834792
 20
128.997174
 30
0.0
  0
SPLINE
  5
262
100
AcDbEntity
  8
0
 62
7
100
AcDbSpline
 70
8
 71
3
 72
8
 73
4
 74
0
 40
0
 40
0
 40
0
 40
0
 40
1
 40
1
 40
1
 40
1
 10
32.834792
 20
128.997174
 30
0.0
 10
32.524000
 20
128.997174
 30
0.0
 10
32.405368
 20
129.115809
 30
0.0
 10
32.455556
 20
129.376410
 30
0.0
  0
SPLINE
  5
263
100
AcDbEntity
  8
0
 62
7
100
AcDbSpline
 70
8
 71
3
 72
8
 73
4
 74
0
 40
0
 40
0
 40
0
 40
0
 40
1
 40
1
 40
1
 40
1
 10
32.455556
 20
129.376410
 30
0.0
 10
32.510067
 20
129.659462
 30
0.0
 10
32.712022
 20
129.818040
 30
0.0
 10
32.905347
 20
129.835021
 30
0.0
  0
LWPOLYLINE
  5
264
100
AcDbEntity
  8
0
 62
7
100
AcDbPolyline
 90
2
 70
0
 10
25.426458
 20
175.246340
 30
0.0
 10
25.426458
 20
175.246340
 30
0.0
  0
SPLINE
  5
265
100
AcDbEntity
  8
0
 62
7
100
AcDbSpline
 70
8
 71
3
 72
8
 73
4
 74
0
 40
0
 40
0
 40
0
 40
0
 40
1
 40
1
 40
1
 40
1
 10
53.340000
 20
94.901202
 30
0.0
 10
53.531242
 20
94.945293
 30
0.0
 10
53.683659
 20
94.690819
 30
0.0
 10
53.789792
 20
94.125090
 30
0.0
  0
SPLINE
  5
266
100
AcDbEntity
  8
0
 62
7
100
AcDbSpline
 70
8
 71
3
 72
8
 73
4
 74
0
 40
0
 40
0
 40
0
 40
0
 40
1
 40
1
 40
1
 40
1
 10
53.789792
 20
94.125090
 30
0.0
 10
53.989396
 20
93.061104
 30
0.0
 10
55.022454
 20
92.078979
 30
0.0
 10
55.941736
 20
92.078979
 30
0.0
  0
SPLINE
  5
267
100
AcDbEntity
  8
0
 62
7
100
AcDbSpline
 70
8
 71
3
 72
8
 73
4
 74
0
 40
0
 40
0
 40
0
 40
0
 40
1
 40
1
 40
1
 40
1
 10
55.941736
 20
92.078979
 30
0.0
 10
56.699819
 20
92.078979
 30
0.0
 10
58.040764
 20
91.161483
 30
0.0
 10
58.040764
 20
90.641410
 30
0.0
  0
SPLINE
  5
268
100
AcDbEntity
  8
0
 62
7
100
AcDbSpline
 70
8
 71
3
 72
8
 73
4
 74
0
 40
0
 40
0
 40
0
 40
0
 40
1
 40
1
 40
1
 40
1
 10
58.040764
 20
90.641410
 30
0.0
 10
58.040764
 20
90.481844
 30
0.0
 10
58.282250
 20
90.292493
 30
0.0
 10
58.578750
 20
90.218077
 30
0.0
  0
SPLINE
  5
269
100
AcDbEntity
  8
0
 62
7
100
AcDbSpline
 70
8
 71
3
 72
8
 73
4
 74
0
 40
0
 40
0
 40
0
 40
0
 40
1
 40
1
 40
1
 40
1
 10
58.578750
 20
90.218077
 30
0.0
 10
59.202100
 20
90.061627
 30
0.0
 10
61.295139
 20
90.510019
 30
0.0
 10
61.295139
 20
90.800160
 30
0.0
  0
SPLINE
  5
26a
100
AcDbEntity
  8
0
 62
7
100
AcDbSpline
 70
8
 71
3
 72
8
 73
4
 74
0
 40
0
 40
0
 40
0
 40
0
 40
1
 40
1
 40
1
 40
1
 10
61.295139
 20
90.800160
 30
0.0
 10
61.295139
 20
90.907689
 30
0.0
 10
61.589446
 20
90.994188
 30
0.0
 10
61.947778
 20
90.994188
 30
0.0
  0
SPLINE
  5
26b
100
AcDbEntity
  8
0
 62
7
100
AcDbSpline
 70
8
 71
3
 72
8
 73
4
 74
0
 40
0
 40
0
 40
0
 40
0
 40
1
 40
1
 40
1
 40
1
 10
61.947778
 20
90.994188
 30
0.0
 10
62.306107
 20
90.994188
 30
0.0
 10
62.600417
 20
90.905180
 30
0.0
 10
62.600417
 20
90.791340
 30
0.0
  0
SPLINE
  5
26c
100
AcDbEntity
  8
0
 62
7
100
AcDbSpline
 70
8
 71
3
 72
8
 73
4
 74
0
 40
0
 40
0
 40
0
 40
0
 40
1
 40
1
 40
1
 40
1
 10
62.600417
 20
90.791340
 30
0.0
 10
62.600417
 20
90.677500
 30
0.0
 10
62.959034
 20
90.411108
 30
0.0
 10
63.402986
 20
90.200438
 30
0.0
  0
SPLINE
  5
26d
100
AcDbEntity
  8
0
 62
7
100
AcDbSpline
 70
8
 71
3
 72
8
 73
4
 74
0
 40
0
 40
0
 40
0
 40
0
 40
1
 40
1
 40
1
 40
1
 10
63.402986
 20
90.200438
 30
0.0
 10
63.846939
 20
89.989770
 30
0.0
 10
64.375527
 20
89.660369
 30
0.0
 10
64.575972
 20
89.477243
 30
0.0
  0
SPLINE
  5
26e
100
AcDbEntity
  8
0
 62
7
100
AcDbSpline
 70
8
 71
3
 72
8
 73
4
 74
0
 40
0
 40
0
 40
0
 40
0
 40
1
 40
1
 40
1
 40
1
 10
64.575972
 20
89.477243
 30
0.0
 10
65.058654
 20
89.036274
 30
0.0
 10
65.894921
 20
88.378482
 30
0.0
 10
66.595625
 20
87.872104
 30
0.0
  0
SPLINE
  5
26f
100
AcDbEntity
  8
0
 62
7
100
AcDbSpline
 70
8
 71
3
 72
8
 73
4
 74
0
 40
0
 40
0
 40
0
 40
0
 40
1
 40
1
 40
1
 40
1
 10
66.595625
 20
87.872104
 30
0.0
 10
67.245512
 20
87.402444
 30
0.0
 10
67.375408
 20
86.244179
 30
0.0
 10
66.842569
 20
85.711340
 30
0.0
  0
SPLINE
  5
270
100
AcDbEntity
  8
0
 62
7
100
AcDbSpline
 70
8
 71
3
 72
8
 73
4
 74
0
 40
0
 40
0
 40
0
 40
0
 40
1
 40
1
 40
1
 40
1
 10
66.842569
 20
85.711340
 30
0.0
 10
66.668574
 20
85.537345
 30
0.0
 10
66.416919
 20
84.948440
 30
0.0
 10
66.278125
 20
84.397243
 30
0.0
  0
SPLINE
  5
271
100
AcDbEntity
  8
0
 62
7
100
AcDbSpline
 70
8
 71
3
 72
8
 73
4
 74
0
 40
0
 40
0
 40
0
 40
0
 40
1
 40
1
 40
1
 40
1
 10
66.278125
 20
84.397243
 30
0.0
 10
66.139331
 20
83.846046
 30
0.0
 10
65.948060
 20
83.391827
 30
0.0
 10
65.854792
 20
83.391827
 30
0.0
  0
SPLINE
  5
272
100
AcDbEntity
  8
0
 62
7
100
AcDbSpline
 70
8
 71
3
 72
8
 73
4
 74
0
 40
0
 40
0
 40
0
 40
0
 40
1
 40
1
 40
1
 40
1
 10
65.854792
 20
83.391827
 30
0.0
 10
65.761523
 20
83.391827
 30
0.0
 10
65.505101
 20
82.904251
 30
0.0
 10
65.290347
 20
82.307035
 30
0.0
  0
SPLINE
  5
273
100
AcDbEntity
  8
0
 62
7
100
AcDbSpline
 70
8
 71
3
 72
8
 73
4
 74
0
 40
0
 40
0
 40
0
 40
0
 40
1
 40
1
 40
1
 40
1
 10
65.290347
 20
82.307035
 30
0.0
 10
65.075590
 20
81.709819
 30
0.0
 10
64.821751
 20
81.222243
 30
0.0
 10
64.725903
 20
81.222243
 30
0.0
  0
SPLINE
  5
274
100
AcDbEntity
  8
0
 62
7
100
AcDbSpline
 70
8
 71
3
 72
8
 73
4
 74
0
 40
0
 40
0
 40
0
 40
0
 40
1
 40
1
 40
1
 40
1
 10
64.725903
 20
81.222243
 30
0.0
 10
64.630054
 20
81.222243
 30
0.0
 10
64.549514
 20
81.030747
 30
0.0
 10
64.549514
 20
80.798910
 30
0.0
  0
SPLINE
  5
275
100
AcDbEntity
  8
0
 62
7
100
AcDbSpline
 70
8
 71
3
 72
8
 73
4
 74
0
 40
0
 40
0
 40
0
 40
0
 40
1
 40
1
 40
1
 40
1
 10
64.549514
 20
80.798910
 30
0.0
 10
64.549514
 20
80.567073
 30
0.0
 10
64.457289
 20
80.317103
 30
0.0
 10
64.337847
 20
80.243285
 30
0.0
  0
SPLINE
  5
276
100
AcDbEntity
  8
0
 62
7
100
AcDbSpline
 70
8
 71
3
 72
8
 73
4
 74
0
 40
0
 40
0
 40
0
 40
0
 40
1
 40
1
 40
1
 40
1
 10
64.337847
 20
80.243285
 30
0.0
 10
64.218405
 20
80.169464
 30
0.0
 10
64.117361
 20
79.919497
 30
0.0
 10
64.117361
 20
79.687660
 30
0.0
  0
SPLINE
  5
277
100
AcDbEntity
  8
0
 62
7
100
AcDbSpline
 70
8
 71
3
 72
8
 73
4
 74
0
 40
0
 40
0
 40
0
 40
0
 40
1
 40
1
 40
1
 40
1
 10
64.117361
 20
79.687660
 30
0.0
 10
64.117361
 20
79.455823
 30
0.0
 10
64.041297
 20
79.264327
 30
0.0
 10
63.940972
 20
79.264327
 30
0.0
  0
SPLINE
  5
278
100
AcDbEntity
  8
0
 62
7
100
AcDbSpline
 70
8
 71
3
 72
8
 73
4
 74
0
 40
0
 40
0
 40
0
 40
0
 40
1
 40
1
 40
1
 40
1
 10
63.940972
 20
79.264327
 30
0.0
 10
63.840645
 20
79.264327
 30
0.0
 10
63.622403
 20
78.877795
 30
0.0
 10
63.464722
 20
78.400021
 30
0.0
  0
SPLINE
  5
279
100
AcDbEntity
  8
0
 62
7
100
AcDbSpline
 70
8
 71
3
 72
8
 73
4
 74
0
 40
0
 40
0
 40
0
 40
0
 40
1
 40
1
 40
1
 40
1
 10
63.464722
 20
78.400021
 30
0.0
 10
63.307042
 20
77.922247
 30
0.0
 10
63.105657
 20
77.526896
 30
0.0
 10
63.014931
 20
77.526896
 30
0.0
  0
SPLINE
  5
27a
100
AcDbEntity
  8
0
 62
7
100
AcDbSpline
 70
8
 71
3
 72
8
 73
4
 74
0
 40
0
 40
0
 40
0
 40
0
 40
1
 40
1
 40
1
 40
1
 10
63.014931
 20
77.526896
 30
0.0
 10
62.924205
 20
77.526896
 30
0.0
 10
62.692946
 20
77.039320
 30
0.0
 10
62.494583
 20
76.442104
 30
0.0
  0
SPLINE
  5
27b
100
AcDbEntity
  8
0
 62
7
100
AcDbSpline
 70
8
 71
3
 72
8
 73
4
 74
0
 40
0
 40
0
 40
0
 40
0
 40
1
 40
1
 40
1
 40
1
 10
62.494583
 20
76.442104
 30
0.0
 10
62.296218
 20
75.844885
 30
0.0
 10
62.053148
 20
75.357313
 30
0.0
 10
61.956597
 20
75.357313
 30
0.0
  0
SPLINE
  5
27c
100
AcDbEntity
  8
0
 62
7
100
AcDbSpline
 70
8
 71
3
 72
8
 73
4
 74
0
 40
0
 40
0
 40
0
 40
0
 40
1
 40
1
 40
1
 40
1
 10
61.956597
 20
75.357313
 30
0.0
 10
61.860049
 20
75.357313
 30
0.0
 10
61.709881
 20
75.014351
 30
0.0
 10
61.630278
 20
74.590021
 30
0.0
  0
SPLINE
  5
27d
100
AcDbEntity
  8
0
 62
7
100
AcDbSpline
 70
8
 71
3
 72
8
 73
4
 74
0
 40
0
 40
0
 40
0
 40
0
 40
1
 40
1
 40
1
 40
1
 10
61.630278
 20
74.590021
 30
0.0
 10
61.550671
 20
74.165691
 30
0.0
 10
61.362457
 20
73.767752
 30
0.0
 10
61.206944
 20
73.708077
 30
0.0
  0
SPLINE
  5
27e
100
AcDbEntity
  8
0
 62
7
100
AcDbSpline
 70
8
 71
3
 72
8
 73
4
 74
0
 40
0
 40
0
 40
0
 40
0
 40
1
 40
1
 40
1
 40
1
 10
61.206944
 20
73.708077
 30
0.0
 10
61.051429
 20
73.648401
 30
0.0
 10
60.798123
 20
73.209480
 30
0.0
 10
60.642500
 20
72.737938
 30
0.0
  0
SPLINE
  5
27f
100
AcDbEntity
  8
0
 62
7
100
AcDbSpline
 70
8
 71
3
 72
8
 73
4
 74
0
 40
0
 40
0
 40
0
 40
0
 40
1
 40
1
 40
1
 40
1
 10
60.642500
 20
72.737938
 30
0.0
 10
60.486877
 20
72.266398
 30
0.0
 10
60.292533
 20
71.882452
 30
0.0
 10
60.210347
 20
71.882452
 30
0.0
  0
SPLINE
  5
280
100
AcDbEntity
  8
0
 62
7
100
AcDbSpline
 70
8
 71
3
 72
8
 73
4
 74
0
 40
0
 40
0
 40
0
 40
0
 40
1
 40
1
 40
1
 40
1
 10
60.210347
 20
71.882452
 30
0.0
 10
60.128164
 20
71.882452
 30
0.0
 10
59.878479
 20
71.464046
 30
0.0
 10
59.654722
 20
70.956410
 30
0.0
  0
SPLINE
  5
281
100
AcDbEntity
  8
0
 62
7
100
AcDbSpline
 70
8
 71
3
 72
8
 73
4
 74
0
 40
0
 40
0
 40
0
 40
0
 40
1
 40
1
 40
1
 40
1
 10
59.654722
 20
70.956410
 30
0.0
 10
59.430968
 20
70.448777
 30
0.0
 10
59.119519
 20
69.958317
 30
0.0
 10
58.966806
 20
69.862799
 30
0.0
  0
SPLINE
  5
282
100
AcDbEntity
  8
0
 62
7
100
AcDbSpline
 70
8
 71
3
 72
8
 73
4
 74
0
 40
0
 40
0
 40
0
 40
0
 40
1
 40
1
 40
1
 40
1
 10
58.966806
 20
69.862799
 30
0.0
 10
58.814089
 20
69.767281
 30
0.0
 10
58.693403
 20
69.559139
 30
0.0
 10
58.693403
 20
69.404188
 30
0.0
  0
SPLINE
  5
283
100
AcDbEntity
  8
0
 62
7
100
AcDbSpline
 70
8
 71
3
 72
8
 73
4
 74
0
 40
0
 40
0
 40
0
 40
0
 40
1
 40
1
 40
1
 40
1
 10
58.693403
 20
69.404188
 30
0.0
 10
58.693403
 20
69.249234
 30
0.0
 10
58.491318
 20
68.903514
 30
0.0
 10
58.252431
 20
68.628077
 30
0.0
  0
SPLINE
  5
284
100
AcDbEntity
  8
0
 62
7
100
AcDbSpline
 70
8
 71
3
 72
8
 73
4
 74
0
 40
0
 40
0
 40
0
 40
0
 40
1
 40
1
 40
1
 40
1
 10
58.252431
 20
68.628077
 30
0.0
 10
58.013544
 20
68.352636
 30
0.0
 10
57.820278
 20
68.058030
 30
0.0
 10
57.820278
 20
67.975438
 30
0.0
  0
SPLINE
  5
285
100
AcDbEntity
  8
0
 62
7
100
AcDbSpline
 70
8
 71
3
 72
8
 73
4
 74
0
 40
0
 40
0
 40
0
 40
0
 40
1
 40
1
 40
1
 40
1
 10
57.820278
 20
67.975438
 30
0.0
 10
57.820278
 20
67.892848
 30
0.0
 10
57.582181
 20
67.546883
 30
0.0
 10
57.291111
 20
67.208146
 30
0.0
  0
SPLINE
  5
286
100
AcDbEntity
  8
0
 62
7
100
AcDbSpline
 70
8
 71
3
 72
8
 73
4
 74
0
 40
0
 40
0
 40
0
 40
0
 40
1
 40
1
 40
1
 40
1
 10
57.291111
 20
67.208146
 30
0.0
 10
57.000044
 20
66.869406
 30
0.0
 10
56.705342
 20
66.345554
 30
0.0
 10
56.629653
 20
66.043979
 30
0.0
  0
SPLINE
  5
287
100
AcDbEntity
  8
0
 62
7
100
AcDbSpline
 70
8
 71
3
 72
8
 73
4
 74
0
 40
0
 40
0
 40
0
 40
0
 40
1
 40
1
 40
1
 40
1
 10
56.629653
 20
66.043979
 30
0.0
 10
56.553961
 20
65.742402
 30
0.0
 10
56.295665
 20
65.367555
 30
0.0
 10
56.065208
 20
65.206132
 30
0.0
  0
SPLINE
  5
288
100
AcDbEntity
  8
0
 62
7
100
AcDbSpline
 70
8
 71
3
 72
8
 73
4
 74
0
 40
0
 40
0
 40
0
 40
0
 40
1
 40
1
 40
1
 40
1
 10
56.065208
 20
65.206132
 30
0.0
 10
55.834748
 20
65.044715
 30
0.0
 10
55.650694
 20
64.774843
 30
0.0
 10
55.650694
 20
64.615229
 30
0.0
  0
SPLINE
  5
289
100
AcDbEntity
  8
0
 62
7
100
AcDbSpline
 70
8
 71
3
 72
8
 73
4
 74
0
 40
0
 40
0
 40
0
 40
0
 40
1
 40
1
 40
1
 40
1
 10
55.650694
 20
64.615229
 30
0.0
 10
55.650694
 20
64.455619
 30
0.0
 10
55.503541
 20
64.269470
 30
0.0
 10
55.324375
 20
64.200715
 30
0.0
  0
SPLINE
  5
28a
100
AcDbEntity
  8
0
 62
7
100
AcDbSpline
 70
8
 71
3
 72
8
 73
4
 74
0
 40
0
 40
0
 40
0
 40
0
 40
1
 40
1
 40
1
 40
1
 10
55.324375
 20
64.200715
 30
0.0
 10
55.145212
 20
64.131966
 30
0.0
 10
54.998056
 20
63.929635
 30
0.0
 10
54.998056
 20
63.750924
 30
0.0
  0
SPLINE
  5
28b
100
AcDbEntity
  8
0
 62
7
100
AcDbSpline
 70
8
 71
3
 72
8
 73
4
 74
0
 40
0
 40
0
 40
0
 40
0
 40
1
 40
1
 40
1
 40
1
 10
54.998056
 20
63.750924
 30
0.0
 10
54.998056
 20
63.572215
 30
0.0
 10
54.813764
 20
63.327331
 30
0.0
 10
54.583542
 20
63.204118
 30
0.0
  0
SPLINE
  5
28c
100
AcDbEntity
  8
0
 62
7
100
AcDbSpline
 70
8
 71
3
 72
8
 73
4
 74
0
 40
0
 40
0
 40
0
 40
0
 40
1
 40
1
 40
1
 40
1
 10
54.583542
 20
63.204118
 30
0.0
 10
54.309724
 20
63.057574
 30
0.0
 10
54.065901
 20
62.548637
 30
0.0
 10
53.886806
 20
61.731271
 30
0.0
  0
SPLINE
  5
28d
100
AcDbEntity
  8
0
 62
7
100
AcDbSpline
 70
8
 71
3
 72
8
 73
4
 74
0
 40
0
 40
0
 40
0
 40
0
 40
1
 40
1
 40
1
 40
1
 10
53.886806
 20
61.731271
 30
0.0
 10
53.736220
 20
61.044037
 30
0.0
 10
53.549124
 20
60.432798
 30
0.0
 10
53.472292
 20
60.373077
 30
0.0
  0
SPLINE
  5
28e
100
AcDbEntity
  8
0
 62
7
100
AcDbSpline
 70
8
 71
3
 72
8
 73
4
 74
0
 40
0
 40
0
 40
0
 40
0
 40
1
 40
1
 40
1
 40
1
 10
53.472292
 20
60.373077
 30
0.0
 10
53.395462
 20
60.313356
 30
0.0
 10
53.204861
 20
59.655569
 30
0.0
 10
53.048958
 20
58.909049
 30
0.0
  0
SPLINE
  5
28f
100
AcDbEntity
  8
0
 62
7
100
AcDbSpline
 70
8
 71
3
 72
8
 73
4
 74
0
 40
0
 40
0
 40
0
 40
0
 40
1
 40
1
 40
1
 40
1
 10
53.048958
 20
58.909049
 30
0.0
 10
52.893059
 20
58.162526
 30
0.0
 10
52.684649
 20
57.550854
 30
0.0
 10
52.581528
 20
57.550854
 30
0.0
  0
SPLINE
  5
290
100
AcDbEntity
  8
0
 62
7
100
AcDbSpline
 70
8
 71
3
 72
8
 73
4
 74
0
 40
0
 40
0
 40
0
 40
0
 40
1
 40
1
 40
1
 40
1
 10
52.581528
 20
57.550854
 30
0.0
 10
52.478404
 20
57.550854
 30
0.0
 10
52.396319
 20
57.246760
 30
0.0
 10
52.396319
 20
56.880577
 30
0.0
  0
SPLINE
  5
291
100
AcDbEntity
  8
0
 62
7
100
AcDbSpline
 70
8
 71
3
 72
8
 73
4
 74
0
 40
0
 40
0
 40
0
 40
0
 40
1
 40
1
 40
1
 40
1
 10
52.396319
 20
56.880577
 30
0.0
 10
52.396319
 20
56.067952
 30
0.0
 10
52.051187
 20
55.381271
 30
0.0
 10
51.646667
 20
55.381271
 30
0.0
  0
SPLINE
  5
292
100
AcDbEntity
  8
0
 62
7
100
AcDbSpline
 70
8
 71
3
 72
8
 73
4
 74
0
 40
0
 40
0
 40
0
 40
0
 40
1
 40
1
 40
1
 40
1
 10
51.646667
 20
55.381271
 30
0.0
 10
51.481654
 20
55.381271
 30
0.0
 10
51.310210
 20
55.271478
 30
0.0
 10
51.267431
 20
55.143146
 30
0.0
  0
SPLINE
  5
293
100
AcDbEntity
  8
0
 62
7
100
AcDbSpline
 70
8
 71
3
 72
8
 73
4
 74
0
 40
0
 40
0
 40
0
 40
0
 40
1
 40
1
 40
1
 40
1
 10
51.267431
 20
55.143146
 30
0.0
 10
51.224654
 20
55.014817
 30
0.0
 10
50.590156
 20
54.856112
 30
0.0
 10
49.865139
 20
54.790368
 30
0.0
  0
SPLINE
  5
294
100
AcDbEntity
  8
0
 62
7
100
AcDbSpline
 70
8
 71
3
 72
8
 73
4
 74
0
 40
0
 40
0
 40
0
 40
0
 40
1
 40
1
 40
1
 40
1
 10
49.865139
 20
54.790368
 30
0.0
 10
48.683926
 20
54.683262
 30
0.0
 10
48.503019
 20
54.728240
 30
0.0
 10
48.083611
 20
55.178424
 30
0.0
  0
SPLINE
  5
295
100
AcDbEntity
  8
0
 62
7
100
AcDbSpline
 70
8
 71
3
 72
8
 73
4
 74
0
 40
0
 40
0
 40
0
 40
0
 40
1
 40
1
 40
1
 40
1
 10
48.083611
 20
55.178424
 30
0.0
 10
47.826182
 20
55.454739
 30
0.0
 10
47.616181
 20
55.789257
 30
0.0
 10
47.616181
 20
55.928077
 30
0.0
  0
SPLINE
  5
296
100
AcDbEntity
  8
0
 62
7
100
AcDbSpline
 70
8
 71
3
 72
8
 73
4
 74
0
 40
0
 40
0
 40
0
 40
0
 40
1
 40
1
 40
1
 40
1
 10
47.616181
 20
55.928077
 30
0.0
 10
47.616181
 20
56.401324
 30
0.0
 10
48.089958
 20
57.550854
 30
0.0
 10
48.286458
 20
57.550854
 30
0.0
  0
SPLINE
  5
297
100
AcDbEntity
  8
0
 62
7
100
AcDbSpline
 70
8
 71
3
 72
8
 73
4
 74
0
 40
0
 40
0
 40
0
 40
0
 40
1
 40
1
 40
1
 40
1
 10
48.286458
 20
57.550854
 30
0.0
 10
48.394216
 20
57.550854
 30
0.0
 10
48.480486
 20
57.937386
 30
0.0
 10
48.480486
 20
58.415160
 30
0.0
  0
SPLINE
  5
298
100
AcDbEntity
  8
0
 62
7
100
AcDbSpline
 70
8
 71
3
 72
8
 73
4
 74
0
 40
0
 40
0
 40
0
 40
0
 40
1
 40
1
 40
1
 40
1
 10
48.480486
 20
58.415160
 30
0.0
 10
48.480486
 20
58.892934
 30
0.0
 10
48.386543
 20
59.288285
 30
0.0
 10
48.268819
 20
59.288285
 30
0.0
  0
SPLINE
  5
299
100
AcDbEntity
  8
0
 62
7
100
AcDbSpline
 70
8
 71
3
 72
8
 73
4
 74
0
 40
0
 40
0
 40
0
 40
0
 40
1
 40
1
 40
1
 40
1
 10
48.268819
 20
59.288285
 30
0.0
 10
48.151096
 20
59.288285
 30
0.0
 10
47.945554
 20
59.729748
 30
0.0
 10
47.810208
 20
60.267243
 30
0.0
  0
SPLINE
  5
29a
100
AcDbEntity
  8
0
 62
7
100
AcDbSpline
 70
8
 71
3
 72
8
 73
4
 74
0
 40
0
 40
0
 40
0
 40
0
 40
1
 40
1
 40
1
 40
1
 10
47.810208
 20
60.267243
 30
0.0
 10
47.674866
 20
60.804738
 30
0.0
 10
47.478524
 20
61.246202
 30
0.0
 10
47.378056
 20
61.246202
 30
0.0
  0
SPLINE
  5
29b
100
AcDbEntity
  8
0
 62
7
100
AcDbSpline
 70
8
 71
3
 72
8
 73
4
 74
0
 40
0
 40
0
 40
0
 40
0
 40
1
 40
1
 40
1
 40
1
 10
47.378056
 20
61.246202
 30
0.0
 10
47.277584
 20
61.246202
 30
0.0
 10
47.080907
 20
61.655788
 30
0.0
 10
46.937083
 20
62.163424
 30
0.0
  0
SPLINE
  5
29c
100
AcDbEntity
  8
0
 62
7
100
AcDbSpline
 70
8
 71
3
 72
8
 73
4
 74
0
 40
0
 40
0
 40
0
 40
0
 40
1
 40
1
 40
1
 40
1
 10
46.937083
 20
62.163424
 30
0.0
 10
46.793260
 20
62.671057
 30
0.0
 10
46.558934
 20
63.190049
 30
0.0
 10
46.416736
 20
63.309952
 30
0.0
  0
SPLINE
  5
29d
100
AcDbEntity
  8
0
 62
7
100
AcDbSpline
 70
8
 71
3
 72
8
 73
4
 74
0
 40
0
 40
0
 40
0
 40
0
 40
1
 40
1
 40
1
 40
1
 10
46.416736
 20
63.309952
 30
0.0
 10
46.274536
 20
63.429851
 30
0.0
 10
46.087149
 20
63.739107
 30
0.0
 10
46.002222
 20
64.006688
 30
0.0
  0
SPLINE
  5
29e
100
AcDbEntity
  8
0
 62
7
100
AcDbSpline
 70
8
 71
3
 72
8
 73
4
 74
0
 40
0
 40
0
 40
0
 40
0
 40
1
 40
1
 40
1
 40
1
 10
46.002222
 20
64.006688
 30
0.0
 10
45.917293
 20
64.274271
 30
0.0
 10
45.683074
 20
64.660972
 30
0.0
 10
45.481875
 20
64.862174
 30
0.0
  0
SPLINE
  5
29f
100
AcDbEntity
  8
0
 62
7
100
AcDbSpline
 70
8
 71
3
 72
8
 73
4
 74
0
 40
0
 40
0
 40
0
 40
0
 40
1
 40
1
 40
1
 40
1
 10
45.481875
 20
64.862174
 30
0.0
 10
45.181839
 20
65.162213
 30
0.0
 10
45.120278
 20
65.670182
 30
0.0
 10
45.120278
 20
67.693215
 30
0.0
  0
SPLINE
  5
2a0
100
AcDbEntity
  8
0
 62
7
100
AcDbSpline
 70
8
 71
3
 72
8
 73
4
 74
0
 40
0
 40
0
 40
0
 40
0
 40
1
 40
1
 40
1
 40
1
 10
45.120278
 20
67.693215
 30
0.0
 10
45.120278
 20
69.253221
 30
0.0
 10
45.206861
 20
70.214589
 30
0.0
 10
45.358403
 20
70.312590
 30
0.0
  0
SPLINE
  5
2a1
100
AcDbEntity
  8
0
 62
7
100
AcDbSpline
 70
8
 71
3
 72
8
 73
4
 74
0
 40
0
 40
0
 40
0
 40
0
 40
1
 40
1
 40
1
 40
1
 10
45.358403
 20
70.312590
 30
0.0
 10
45.490189
 20
70.397816
 30
0.0
 10
45.718369
 20
71.276281
 30
0.0
 10
45.869931
 20
72.261688
 30
0.0
  0
SPLINE
  5
2a2
100
AcDbEntity
  8
0
 62
7
100
AcDbSpline
 70
8
 71
3
 72
8
 73
4
 74
0
 40
0
 40
0
 40
0
 40
0
 40
1
 40
1
 40
1
 40
1
 10
45.869931
 20
72.261688
 30
0.0
 10
46.021492
 20
73.247098
 30
0.0
 10
46.232521
 20
74.052035
 30
0.0
 10
46.337361
 20
74.052035
 30
0.0
  0
SPLINE
  5
2a3
100
AcDbEntity
  8
0
 62
7
100
AcDbSpline
 70
8
 71
3
 72
8
 73
4
 74
0
 40
0
 40
0
 40
0
 40
0
 40
1
 40
1
 40
1
 40
1
 10
46.337361
 20
74.052035
 30
0.0
 10
46.442201
 20
74.052035
 30
0.0
 10
46.531448
 20
74.222243
 30
0.0
 10
46.531389
 20
74.431271
 30
0.0
  0
SPLINE
  5
2a4
100
AcDbEntity
  8
0
 62
7
100
AcDbSpline
 70
8
 71
3
 72
8
 73
4
 74
0
 40
0
 40
0
 40
0
 40
0
 40
1
 40
1
 40
1
 40
1
 10
46.531389
 20
74.431271
 30
0.0
 10
46.531197
 20
75.116780
 30
0.0
 10
47.279868
 20
78.179535
 30
0.0
 10
47.448611
 20
78.179535
 30
0.0
  0
SPLINE
  5
2a5
100
AcDbEntity
  8
0
 62
7
100
AcDbSpline
 70
8
 71
3
 72
8
 73
4
 74
0
 40
0
 40
0
 40
0
 40
0
 40
1
 40
1
 40
1
 40
1
 10
47.448611
 20
78.179535
 30
0.0
 10
47.539278
 20
78.179535
 30
0.0
 10
47.616181
 20
78.392074
 30
0.0
 10
47.616181
 20
78.646965
 30
0.0
  0
SPLINE
  5
2a6
100
AcDbEntity
  8
0
 62
7
100
AcDbSpline
 70
8
 71
3
 72
8
 73
4
 74
0
 40
0
 40
0
 40
0
 40
0
 40
1
 40
1
 40
1
 40
1
 10
47.616181
 20
78.646965
 30
0.0
 10
47.616181
 20
79.194711
 30
0.0
 10
48.072452
 20
80.845937
 30
0.0
 10
48.268819
 20
81.001757
 30
0.0
  0
SPLINE
  5
2a7
100
AcDbEntity
  8
0
 62
7
100
AcDbSpline
 70
8
 71
3
 72
8
 73
4
 74
0
 40
0
 40
0
 40
0
 40
0
 40
1
 40
1
 40
1
 40
1
 10
48.268819
 20
81.001757
 30
0.0
 10
48.344082
 20
81.061481
 30
0.0
 10
48.536253
 20
81.728084
 30
0.0
 10
48.692153
 20
82.474604
 30
0.0
  0
SPLINE
  5
2a8
100
AcDbEntity
  8
0
 62
7
100
AcDbSpline
 70
8
 71
3
 72
8
 73
4
 74
0
 40
0
 40
0
 40
0
 40
0
 40
1
 40
1
 40
1
 40
1
 10
48.692153
 20
82.474604
 30
0.0
 10
48.848052
 20
83.221127
 30
0.0
 10
49.049539
 20
83.823979
 30
0.0
 10
49.133125
 20
83.823979
 30
0.0
  0
SPLINE
  5
2a9
100
AcDbEntity
  8
0
 62
7
100
AcDbSpline
 70
8
 71
3
 72
8
 73
4
 74
0
 40
0
 40
0
 40
0
 40
0
 40
1
 40
1
 40
1
 40
1
 10
49.133125
 20
83.823979
 30
0.0
 10
49.216708
 20
83.823979
 30
0.0
 10
49.461691
 20
84.605862
 30
0.0
 10
49.679931
 20
85.561410
 30
0.0
  0
SPLINE
  5
2aa
100
AcDbEntity
  8
0
 62
7
100
AcDbSpline
 70
8
 71
3
 72
8
 73
4
 74
0
 40
0
 40
0
 40
0
 40
0
 40
1
 40
1
 40
1
 40
1
 10
49.679931
 20
85.561410
 30
0.0
 10
49.898170
 20
86.516958
 30
0.0
 10
50.146150
 20
87.298840
 30
0.0
 10
50.235556
 20
87.298840
 30
0.0
  0
SPLINE
  5
2ab
100
AcDbEntity
  8
0
 62
7
100
AcDbSpline
 70
8
 71
3
 72
8
 73
4
 74
0
 40
0
 40
0
 40
0
 40
0
 40
1
 40
1
 40
1
 40
1
 10
50.235556
 20
87.298840
 30
0.0
 10
50.324964
 20
87.298840
 30
0.0
 10
50.463114
 20
87.691824
 30
0.0
 10
50.544236
 20
88.171965
 30
0.0
  0
SPLINE
  5
2ac
100
AcDbEntity
  8
0
 62
7
100
AcDbSpline
 70
8
 71
3
 72
8
 73
4
 74
0
 40
0
 40
0
 40
0
 40
0
 40
1
 40
1
 40
1
 40
1
 10
50.544236
 20
88.171965
 30
0.0
 10
50.625355
 20
88.652104
 30
0.0
 10
50.813470
 20
89.171554
 30
0.0
 10
50.958750
 20
89.318493
 30
0.0
  0
SPLINE
  5
2ad
100
AcDbEntity
  8
0
 62
7
100
AcDbSpline
 70
8
 71
3
 72
8
 73
4
 74
0
 40
0
 40
0
 40
0
 40
0
 40
1
 40
1
 40
1
 40
1
 10
50.958750
 20
89.318493
 30
0.0
 10
51.104027
 20
89.465429
 30
0.0
 10
51.359745
 20
90.070649
 30
0.0
 10
51.523194
 20
90.667868
 30
0.0
  0
SPLINE
  5
2ae
100
AcDbEntity
  8
0
 62
7
100
AcDbSpline
 70
8
 71
3
 72
8
 73
4
 74
0
 40
0
 40
0
 40
0
 40
0
 40
1
 40
1
 40
1
 40
1
 10
51.523194
 20
90.667868
 30
0.0
 10
51.686643
 20
91.265084
 30
0.0
 10
51.874711
 20
91.798772
 30
0.0
 10
51.946528
 20
91.858493
 30
0.0
  0
SPLINE
  5
2af
100
AcDbEntity
  8
0
 62
7
100
AcDbSpline
 70
8
 71
3
 72
8
 73
4
 74
0
 40
0
 40
0
 40
0
 40
0
 40
1
 40
1
 40
1
 40
1
 10
51.946528
 20
91.858493
 30
0.0
 10
52.018345
 20
91.918217
 30
0.0
 10
52.255364
 20
92.561763
 30
0.0
 10
52.475694
 20
93.278424
 30
0.0
  0
SPLINE
  5
2b0
100
AcDbEntity
  8
0
 62
7
100
AcDbSpline
 70
8
 71
3
 72
8
 73
4
 74
0
 40
0
 40
0
 40
0
 40
0
 40
1
 40
1
 40
1
 40
1
 10
52.475694
 20
93.278424
 30
0.0
 10
52.788391
 20
94.295522
 30
0.0
 10
53.094117
 20
94.844512
 30
0.0
 10
53.340000
 20
94.901202
 30
0.0
  0
LWPOLYLINE
  5
2b1
100
AcDbEntity
  8
0
 62
7
100
AcDbPolyline
 90
2
 70
0
 10
32.905347
 20
129.835021
 30
0.0
 10
32.905347
 20
129.835021
 30
0.0
  0
LWPOLYLINE
  5
2b2
100
AcDbEntity
  8
0
 62
7
100
AcDbPolyline
 90
2
 70
0
 10
53.340000
 20
94.901202
 30
0.0
 10
53.340000
 20
94.901202
 30
0.0
  0
ENDSEC
  0
SECTION
  2
OBJECTS
  0
DICTIONARY
  5
C
330
0
100
AcDbDictionary
  3
ACAD_GROUP
350
D
  3
ACAD_MLINESTYLE
350
17
  0
DICTIONARY
  5
D
330
C
100
AcDbDictionary
  0
DICTIONARY
  5
1A
330
C
100
AcDbDictionary
  0
DICTIONARY
  5
17
330
C
100
AcDbDictionary
  3
STANDARD
350
18
  0
DICTIONARY
  5
19
330
C
100
AcDbDictionary
  0
ENDSEC
  0
EOF
