  0
SECTION
  2
HEADER
  9
$ACADVER
  1
AC1014
  9
$HANDSEED
  5
FFFF
  9
$MEASUREMENT
 70
     1
  0
ENDSEC
  0
SECTION
  2
TABLES
  0
TABLE
  2
VPORT
  5
8
330
0
100
AcDbSymbolTable
 70
     4
  0
VPORT
  5
2E
330
8
100
AcDbSymbolTableRecord
100
AcDbViewportTableRecord
  2
*ACTIVE
 70
     0
 10
0.0
 20
0.0
 11
1.0
 21
1.0
 12
210.0
 22
148.5
 13
0.0
 23
0.0
 14
10.0
 24
10.0
 15
10.0
 25
10.0
 16
0.0
 26
0.0
 36
1.0
 17
0.0
 27
0.0
 37
0.0
 40
341.0
 41
1.24
 42
50.0
 43
0.0
 44
0.0
 50
0.0
 51
0.0
 71
     0
 72
   100
 73
     1
 74
     3
 75
     0
 76
     0
 77
     0
 78
     0
  0
ENDTAB
  0
TABLE
  2
LTYPE
  5
5
330
0
100
AcDbSymbolTable
 70
     1
  0
LTYPE
  5
14
330
5
100
AcDbSymbolTableRecord
100
AcDbLinetypeTableRecord
  2
BYBLOCK
 70
     0
  3

 72
    65
 73
     0
 40
0.0
  0
LTYPE
  5
15
330
5
100
AcDbSymbolTableRecord
100
AcDbLinetypeTableRecord
  2
BYLAYER
 70
     0
  3

 72
    65
 73
     0
 40
0.0
  0
LTYPE
  5
16
330
5
100
AcDbSymbolTableRecord
100
AcDbLinetypeTableRecord
  2
CONTINUOUS
 70
     0
  3
Solid line
 72
    65
 73
     0
 40
0.0
  0
ENDTAB
  0
TABLE
  2
LAYER
  5
2
100
AcDbSymbolTable
 70
1
  0
LAYER
  5
50
100
AcDbSymbolTableRecord
100
AcDbLayerTableRecord
  2
0
 70
0
  6
CONTINUOUS
  0
ENDTAB
  0
TABLE
  2
STYLE
  5
3
330
0
100
AcDbSymbolTable
 70
     1
  0
STYLE
  5
11
330
3
100
AcDbSymbolTableRecord
100
AcDbTextStyleTableRecord
  2
STANDARD
 70
     0
 40
0.0
 41
1.0
 50
0.0
 71
     0
 42
2.5
  3
txt
  4

  0
ENDTAB
  0
TABLE
  2
VIEW
  5
6
330
0
100
AcDbSymbolTable
 70
     0
  0
ENDTAB
  0
TABLE
  2
UCS
  5
7
330
0
100
AcDbSymbolTable
 70
     0
  0
ENDTAB
  0
TABLE
  2
APPID
  5
9
330
0
100
AcDbSymbolTable
 70
     2
  0
APPID
  5
12
330
9
100
AcDbSymbolTableRecord
100
AcDbRegAppTableRecord
  2
ACAD
 70
     0
  0
ENDTAB
  0
TABLE
  2
DIMSTYLE
  5
A
330
0
100
AcDbSymbolTable
 70
     1
  0
DIMSTYLE
105
27
330
A
100
AcDbSymbolTableRecord
100
AcDbDimStyleTableRecord
  2
ISO-25
 70
     0
  3

  4

  5

  6

  7

 40
1.0
 41
2.5
 42
0.625
 43
3.75
 44
1.25
 45
0.0
 46
0.0
 47
0.0
 48
0.0
140
2.5
141
2.5
142
0.0
143
0.03937007874016
144
1.0
145
0.0
146
1.0
147
0.625
 71
     0
 72
     0
 73
     0
 74
     0
 75
     0
 76
     0
 77
     1
 78
     8
170
     0
171
     3
172
     1
173
     0
174
     0
175
     0
176
     0
177
     0
178
     0
270
     2
271
     2
272
     2
273
     2
274
     3
340
11
275
     0
280
     0
281
     0
282
     0
283
     0
284
     8
285
     0
286
     0
287
     3
288
     0
  0
ENDTAB
  0
TABLE
  2
BLOCK_RECORD
  5
1
330
0
100
AcDbSymbolTable
 70
     1
  0
BLOCK_RECORD
  5
1F
330
1
100
AcDbSymbolTableRecord
100
AcDbBlockTableRecord
  2
*MODEL_SPACE
  0
BLOCK_RECORD
  5
1B
330
1
100
AcDbSymbolTableRecord
100
AcDbBlockTableRecord
  2
*PAPER_SPACE
  0
ENDTAB
  0
ENDSEC
  0
SECTION
  2
BLOCKS
  0
BLOCK
  5
20
330
1F
100
AcDbEntity
  8
0
100
AcDbBlockBegin
  2
*MODEL_SPACE
 70
     0
 10
0.0
 20
0.0
 30
0.0
  3
*MODEL_SPACE
  1

  0
ENDBLK
  5
21
330
1F
100
AcDbEntity
  8
0
100
AcDbBlockEnd
  0
BLOCK
  5
1C
330
1B
100
AcDbEntity
 67
     1
  8
0
100
AcDbBlockBegin
  2
*PAPER_SPACE
  1

  0
ENDBLK
  5
1D
330
1B
100
AcDbEntity
 67
     1
  8
0
100
AcDbBlockEnd
  0
ENDSEC
  0
SECTION
  2
ENTITIES
  0
SPLINE
  5
100
100
AcDbEntity
  8
0
 62
7
100
AcDbSpline
 70
8
 71
3
 72
8
 73
4
 74
0
 40
0
 40
0
 40
0
 40
0
 40
1
 40
1
 40
1
 40
1
 10
73.889306
 20
201.411428
 30
0.0
 10
73.095790
 20
201.443559
 30
0.0
 10
68.064913
 20
198.994015
 30
0.0
 10
67.071875
 20
198.068859
 30
0.0
  0
SPLINE
  5
101
100
AcDbEntity
  8
0
 62
7
100
AcDbSpline
 70
8
 71
3
 72
8
 73
4
 74
0
 40
0
 40
0
 40
0
 40
0
 40
1
 40
1
 40
1
 40
1
 10
67.071875
 20
198.068859
 30
0.0
 10
66.702037
 20
197.724302
 30
0.0
 10
66.244106
 20
197.442678
 30
0.0
 10
66.048819
 20
197.442678
 30
0.0
  0
SPLINE
  5
102
100
AcDbEntity
  8
0
 62
7
100
AcDbSpline
 70
8
 71
3
 72
8
 73
4
 74
0
 40
0
 40
0
 40
0
 40
0
 40
1
 40
1
 40
1
 40
1
 10
66.048819
 20
197.442678
 30
0.0
 10
65.853533
 20
197.442678
 30
0.0
 10
65.360101
 20
197.061678
 30
0.0
 10
64.955208
 20
196.596011
 30
0.0
  0
SPLINE
  5
103
100
AcDbEntity
  8
0
 62
7
100
AcDbSpline
 70
8
 71
3
 72
8
 73
4
 74
0
 40
0
 40
0
 40
0
 40
0
 40
1
 40
1
 40
1
 40
1
 10
64.955208
 20
196.596011
 30
0.0
 10
64.550315
 20
196.130345
 30
0.0
 10
64.060843
 20
195.742289
 30
0.0
 10
63.861597
 20
195.731706
 30
0.0
  0
SPLINE
  5
104
100
AcDbEntity
  8
0
 62
7
100
AcDbSpline
 70
8
 71
3
 72
8
 73
4
 74
0
 40
0
 40
0
 40
0
 40
0
 40
1
 40
1
 40
1
 40
1
 10
63.861597
 20
195.731706
 30
0.0
 10
63.328045
 20
195.703373
 30
0.0
 10
60.340133
 20
191.920520
 30
0.0
 10
59.425417
 20
190.113720
 30
0.0
  0
SPLINE
  5
105
100
AcDbEntity
  8
0
 62
7
100
AcDbSpline
 70
8
 71
3
 72
8
 73
4
 74
0
 40
0
 40
0
 40
0
 40
0
 40
1
 40
1
 40
1
 40
1
 10
59.425417
 20
190.113720
 30
0.0
 10
58.990405
 20
189.254463
 30
0.0
 10
58.283783
 20
187.503658
 30
0.0
 10
57.864375
 20
186.224345
 30
0.0
  0
SPLINE
  5
106
100
AcDbEntity
  8
0
 62
7
100
AcDbSpline
 70
8
 71
3
 72
8
 73
4
 74
0
 40
0
 40
0
 40
0
 40
0
 40
1
 40
1
 40
1
 40
1
 10
57.864375
 20
186.224345
 30
0.0
 10
57.444967
 20
184.945028
 30
0.0
 10
57.009561
 20
183.896011
 30
0.0
 10
56.894236
 20
183.896011
 30
0.0
  0
SPLINE
  5
107
100
AcDbEntity
  8
0
 62
7
100
AcDbSpline
 70
8
 71
3
 72
8
 73
4
 74
0
 40
0
 40
0
 40
0
 40
0
 40
1
 40
1
 40
1
 40
1
 10
56.894236
 20
183.896011
 30
0.0
 10
56.580651
 20
183.896011
 30
0.0
 10
55.867963
 20
191.757133
 30
0.0
 10
55.871181
 20
195.176081
 30
0.0
  0
SPLINE
  5
108
100
AcDbEntity
  8
0
 62
7
100
AcDbSpline
 70
8
 71
3
 72
8
 73
4
 74
0
 40
0
 40
0
 40
0
 40
0
 40
1
 40
1
 40
1
 40
1
 10
55.871181
 20
195.176081
 30
0.0
 10
55.874511
 20
198.715102
 30
0.0
 10
55.527784
 20
199.633467
 30
0.0
 10
54.283681
 20
199.321220
 30
0.0
  0
SPLINE
  5
109
100
AcDbEntity
  8
0
 62
7
100
AcDbSpline
 70
8
 71
3
 72
8
 73
4
 74
0
 40
0
 40
0
 40
0
 40
0
 40
1
 40
1
 40
1
 40
1
 10
54.283681
 20
199.321220
 30
0.0
 10
52.948552
 20
198.986123
 30
0.0
 10
50.154693
 20
196.119208
 30
0.0
 10
49.203681
 20
194.108928
 30
0.0
  0
SPLINE
  5
10a
100
AcDbEntity
  8
0
 62
7
100
AcDbSpline
 70
8
 71
3
 72
8
 73
4
 74
0
 40
0
 40
0
 40
0
 40
0
 40
1
 40
1
 40
1
 40
1
 10
49.203681
 20
194.108928
 30
0.0
 10
48.312324
 20
192.224750
 30
0.0
 10
48.283698
 20
191.153844
 30
0.0
 10
48.974375
 20
185.545247
 30
0.0
  0
SPLINE
  5
10b
100
AcDbEntity
  8
0
 62
7
100
AcDbSpline
 70
8
 71
3
 72
8
 73
4
 74
0
 40
0
 40
0
 40
0
 40
0
 40
1
 40
1
 40
1
 40
1
 10
47.810208
 20
184.019484
 30
0.0
 10
46.378156
 20
184.057033
 30
0.0
 10
45.542440
 20
183.522310
 30
0.0
 10
44.300069
 20
181.779345
 30
0.0
  0
LWPOLYLINE
  5
10c
100
AcDbEntity
  8
0
 62
7
100
AcDbPolyline
 90
3
 70
0
 10
48.974375
 20
185.545247
 30
0.0
 10
49.159583
 20
183.984206
 30
0.0
 10
47.810208
 20
184.019484
 30
0.0
  0
SPLINE
  5
10d
100
AcDbEntity
  8
0
 62
7
100
AcDbSpline
 70
8
 71
3
 72
8
 73
4
 74
0
 40
0
 40
0
 40
0
 40
0
 40
1
 40
1
 40
1
 40
1
 10
44.555833
 20
179.653859
 30
0.0
 10
45.058612
 20
178.994681
 30
0.0
 10
45.401684
 20
178.383043
 30
0.0
 10
45.314306
 20
178.295664
 30
0.0
  0
SPLINE
  5
10e
100
AcDbEntity
  8
0
 62
7
100
AcDbSpline
 70
8
 71
3
 72
8
 73
4
 74
0
 40
0
 40
0
 40
0
 40
0
 40
1
 40
1
 40
1
 40
1
 10
45.314306
 20
178.295664
 30
0.0
 10
45.226930
 20
178.208288
 30
0.0
 10
43.030053
 20
177.847331
 30
0.0
 10
40.437153
 20
177.493095
 30
0.0
  0
SPLINE
  5
10f
100
AcDbEntity
  8
0
 62
7
100
AcDbSpline
 70
8
 71
3
 72
8
 73
4
 74
0
 40
0
 40
0
 40
0
 40
0
 40
1
 40
1
 40
1
 40
1
 10
40.437153
 20
177.493095
 30
0.0
 10
36.375066
 20
176.938141
 30
0.0
 10
32.229803
 20
175.852015
 30
0.0
 10
31.423681
 20
175.129484
 30
0.0
  0
SPLINE
  5
110
100
AcDbEntity
  8
0
 62
7
100
AcDbSpline
 70
8
 71
3
 72
8
 73
4
 74
0
 40
0
 40
0
 40
0
 40
0
 40
1
 40
1
 40
1
 40
1
 10
31.423681
 20
175.129484
 30
0.0
 10
31.291663
 20
175.011156
 30
0.0
 10
30.964999
 20
174.079750
 30
0.0
 10
30.700486
 20
173.056914
 30
0.0
  0
SPLINE
  5
111
100
AcDbEntity
  8
0
 62
7
100
AcDbSpline
 70
8
 71
3
 72
8
 73
4
 74
0
 40
0
 40
0
 40
0
 40
0
 40
1
 40
1
 40
1
 40
1
 10
30.700486
 20
173.056914
 30
0.0
 10
30.131218
 20
170.855640
 30
0.0
 10
30.368886
 20
170.184959
 30
0.0
 10
32.393819
 20
168.294414
 30
0.0
  0
SPLINE
  5
112
100
AcDbEntity
  8
0
 62
7
100
AcDbSpline
 70
8
 71
3
 72
8
 73
4
 74
0
 40
0
 40
0
 40
0
 40
0
 40
1
 40
1
 40
1
 40
1
 10
32.393819
 20
168.294414
 30
0.0
 10
33.759541
 20
167.019337
 30
0.0
 10
37.087669
 20
164.590247
 30
0.0
 10
37.473819
 20
164.590247
 30
0.0
  0
SPLINE
  5
113
100
AcDbEntity
  8
0
 62
7
100
AcDbSpline
 70
8
 71
3
 72
8
 73
4
 74
0
 40
0
 40
0
 40
0
 40
0
 40
1
 40
1
 40
1
 40
1
 10
37.473819
 20
164.590247
 30
0.0
 10
37.598423
 20
164.590247
 30
0.0
 10
37.979852
 20
164.342894
 30
0.0
 10
38.320486
 20
164.034622
 30
0.0
  0
SPLINE
  5
114
100
AcDbEntity
  8
0
 62
7
100
AcDbSpline
 70
8
 71
3
 72
8
 73
4
 74
0
 40
0
 40
0
 40
0
 40
0
 40
1
 40
1
 40
1
 40
1
 10
38.320486
 20
164.034622
 30
0.0
 10
39.319649
 20
163.130397
 30
0.0
 10
39.079845
 20
162.308382
 30
0.0
 10
37.588472
 20
161.547539
 30
0.0
  0
SPLINE
  5
115
100
AcDbEntity
  8
0
 62
7
100
AcDbSpline
 70
8
 71
3
 72
8
 73
4
 74
0
 40
0
 40
0
 40
0
 40
0
 40
1
 40
1
 40
1
 40
1
 10
37.588472
 20
161.547539
 30
0.0
 10
36.843406
 20
161.167434
 30
0.0
 10
36.230278
 20
160.706963
 30
0.0
 10
36.230278
 20
160.524484
 30
0.0
  0
SPLINE
  5
116
100
AcDbEntity
  8
0
 62
7
100
AcDbSpline
 70
8
 71
3
 72
8
 73
4
 74
0
 40
0
 40
0
 40
0
 40
0
 40
1
 40
1
 40
1
 40
1
 10
36.230278
 20
160.524484
 30
0.0
 10
36.230278
 20
160.341999
 30
0.0
 10
36.090773
 20
160.189345
 30
0.0
 10
35.912778
 20
160.189345
 30
0.0
  0
SPLINE
  5
117
100
AcDbEntity
  8
0
 62
7
100
AcDbSpline
 70
8
 71
3
 72
8
 73
4
 74
0
 40
0
 40
0
 40
0
 40
0
 40
1
 40
1
 40
1
 40
1
 10
35.912778
 20
160.189345
 30
0.0
 10
35.734783
 20
160.189345
 30
0.0
 10
35.020298
 20
159.808345
 30
0.0
 10
34.334097
 20
159.342678
 30
0.0
  0
SPLINE
  5
118
100
AcDbEntity
  8
0
 62
7
100
AcDbSpline
 70
8
 71
3
 72
8
 73
4
 74
0
 40
0
 40
0
 40
0
 40
0
 40
1
 40
1
 40
1
 40
1
 10
34.334097
 20
159.342678
 30
0.0
 10
33.647902
 20
158.877011
 30
0.0
 10
32.845990
 20
158.496011
 30
0.0
 10
32.552569
 20
158.496011
 30
0.0
  0
SPLINE
  5
119
100
AcDbEntity
  8
0
 62
7
100
AcDbSpline
 70
8
 71
3
 72
8
 73
4
 74
0
 40
0
 40
0
 40
0
 40
0
 40
1
 40
1
 40
1
 40
1
 10
32.552569
 20
158.496011
 30
0.0
 10
32.259146
 20
158.496011
 30
0.0
 10
31.714570
 20
158.191505
 30
0.0
 10
31.335486
 20
157.816914
 30
0.0
  0
SPLINE
  5
11a
100
AcDbEntity
  8
0
 62
7
100
AcDbSpline
 70
8
 71
3
 72
8
 73
4
 74
0
 40
0
 40
0
 40
0
 40
0
 40
1
 40
1
 40
1
 40
1
 10
31.335486
 20
157.816914
 30
0.0
 10
30.956402
 20
157.442323
 30
0.0
 10
29.715059
 20
156.467672
 30
0.0
 10
28.583819
 20
155.656150
 30
0.0
  0
SPLINE
  5
11b
100
AcDbEntity
  8
0
 62
7
100
AcDbSpline
 70
8
 71
3
 72
8
 73
4
 74
0
 40
0
 40
0
 40
0
 40
0
 40
1
 40
1
 40
1
 40
1
 10
28.583819
 20
155.656150
 30
0.0
 10
27.452581
 20
154.844634
 30
0.0
 10
26.206865
 20
153.666769
 30
0.0
 10
25.805694
 20
153.036775
 30
0.0
  0
SPLINE
  5
11c
100
AcDbEntity
  8
0
 62
7
100
AcDbSpline
 70
8
 71
3
 72
8
 73
4
 74
0
 40
0
 40
0
 40
0
 40
0
 40
1
 40
1
 40
1
 40
1
 10
25.805694
 20
153.036775
 30
0.0
 10
25.404521
 20
152.406785
 30
0.0
 10
24.878651
 20
151.591030
 30
0.0
 10
24.641528
 20
151.219970
 30
0.0
  0
SPLINE
  5
11d
100
AcDbEntity
  8
0
 62
7
100
AcDbSpline
 70
8
 71
3
 72
8
 73
4
 74
0
 40
0
 40
0
 40
0
 40
0
 40
1
 40
1
 40
1
 40
1
 10
24.641528
 20
151.219970
 30
0.0
 10
24.404407
 20
150.848909
 30
0.0
 10
23.870003
 20
150.107551
 30
0.0
 10
23.450903
 20
149.579553
 30
0.0
  0
SPLINE
  5
11e
100
AcDbEntity
  8
0
 62
7
100
AcDbSpline
 70
8
 71
3
 72
8
 73
4
 74
0
 40
0
 40
0
 40
0
 40
0
 40
1
 40
1
 40
1
 40
1
 10
23.450903
 20
149.579553
 30
0.0
 10
23.031803
 20
149.051558
 30
0.0
 10
22.683611
 20
148.396873
 30
0.0
 10
22.683611
 20
148.124345
 30
0.0
  0
SPLINE
  5
11f
100
AcDbEntity
  8
0
 62
7
100
AcDbSpline
 70
8
 71
3
 72
8
 73
4
 74
0
 40
0
 40
0
 40
0
 40
0
 40
1
 40
1
 40
1
 40
1
 10
22.683611
 20
148.124345
 30
0.0
 10
22.683611
 20
147.851811
 30
0.0
 10
22.368959
 20
147.021206
 30
0.0
 10
21.986875
 20
146.272261
 30
0.0
  0
SPLINE
  5
120
100
AcDbEntity
  8
0
 62
7
100
AcDbSpline
 70
8
 71
3
 72
8
 73
4
 74
0
 40
0
 40
0
 40
0
 40
0
 40
1
 40
1
 40
1
 40
1
 10
21.986875
 20
146.272261
 30
0.0
 10
20.063364
 20
142.501863
 30
0.0
 10
18.349682
 20
133.872292
 30
0.0
 10
17.612431
 20
124.311845
 30
0.0
  0
SPLINE
  5
121
100
AcDbEntity
  8
0
 62
7
100
AcDbSpline
 70
8
 71
3
 72
8
 73
4
 74
0
 40
0
 40
0
 40
0
 40
0
 40
1
 40
1
 40
1
 40
1
 10
17.612431
 20
124.311845
 30
0.0
 10
17.224965
 20
119.287338
 30
0.0
 10
16.067543
 20
110.220946
 30
0.0
 10
15.363472
 20
106.681775
 30
0.0
  0
SPLINE
  5
122
100
AcDbEntity
  8
0
 62
7
100
AcDbSpline
 70
8
 71
3
 72
8
 73
4
 74
0
 40
0
 40
0
 40
0
 40
0
 40
1
 40
1
 40
1
 40
1
 10
15.363472
 20
106.681775
 30
0.0
 10
15.085557
 20
105.284775
 30
0.0
 10
14.700857
 20
103.147647
 30
0.0
 10
14.507986
 20
101.936914
 30
0.0
  0
SPLINE
  5
123
100
AcDbEntity
  8
0
 62
7
100
AcDbSpline
 70
8
 71
3
 72
8
 73
4
 74
0
 40
0
 40
0
 40
0
 40
0
 40
1
 40
1
 40
1
 40
1
 10
14.507986
 20
101.936914
 30
0.0
 10
13.977075
 20
98.604180
 30
0.0
 10
12.657274
 20
93.403268
 30
0.0
 10
11.597569
 20
90.427539
 30
0.0
  0
SPLINE
  5
124
100
AcDbEntity
  8
0
 62
7
100
AcDbSpline
 70
8
 71
3
 72
8
 73
4
 74
0
 40
0
 40
0
 40
0
 40
0
 40
1
 40
1
 40
1
 40
1
 10
11.597569
 20
90.427539
 30
0.0
 10
11.232741
 20
89.403072
 30
0.0
 10
10.519749
 20
87.191509
 30
0.0
 10
10.010069
 20
85.515109
 30
0.0
  0
SPLINE
  5
125
100
AcDbEntity
  8
0
 62
7
100
AcDbSpline
 70
8
 71
3
 72
8
 73
4
 74
0
 40
0
 40
0
 40
0
 40
0
 40
1
 40
1
 40
1
 40
1
 10
10.010069
 20
85.515109
 30
0.0
 10
9.129547
 20
82.618969
 30
0.0
 10
8.164743
 20
80.252621
 30
0.0
 10
6.746875
 20
77.507053
 30
0.0
  0
SPLINE
  5
126
100
AcDbEntity
  8
0
 62
7
100
AcDbSpline
 70
8
 71
3
 72
8
 73
4
 74
0
 40
0
 40
0
 40
0
 40
0
 40
1
 40
1
 40
1
 40
1
 10
6.746875
 20
77.507053
 30
0.0
 10
6.183633
 20
76.416388
 30
0.0
 10
5.875110
 20
75.651219
 30
0.0
 10
4.921250
 20
72.982678
 30
0.0
  0
SPLINE
  5
127
100
AcDbEntity
  8
0
 62
7
100
AcDbSpline
 70
8
 71
3
 72
8
 73
4
 74
0
 40
0
 40
0
 40
0
 40
0
 40
1
 40
1
 40
1
 40
1
 10
4.921250
 20
72.982678
 30
0.0
 10
4.750384
 20
72.504661
 30
0.0
 10
4.932499
 20
72.601314
 30
0.0
 10
5.538611
 20
73.308997
 30
0.0
  0
SPLINE
  5
128
100
AcDbEntity
  8
0
 62
7
100
AcDbSpline
 70
8
 71
3
 72
8
 73
4
 74
0
 40
0
 40
0
 40
0
 40
0
 40
1
 40
1
 40
1
 40
1
 10
5.538611
 20
73.308997
 30
0.0
 10
6.676150
 20
74.637169
 30
0.0
 10
6.968614
 20
74.230315
 30
0.0
 10
6.297083
 20
72.259484
 30
0.0
  0
SPLINE
  5
129
100
AcDbEntity
  8
0
 62
7
100
AcDbSpline
 70
8
 71
3
 72
8
 73
4
 74
0
 40
0
 40
0
 40
0
 40
0
 40
1
 40
1
 40
1
 40
1
 10
6.297083
 20
72.259484
 30
0.0
 10
5.996734
 20
71.378005
 30
0.0
 10
5.750278
 20
70.351698
 30
0.0
 10
5.750278
 20
69.975247
 30
0.0
  0
SPLINE
  5
12a
100
AcDbEntity
  8
0
 62
7
100
AcDbSpline
 70
8
 71
3
 72
8
 73
4
 74
0
 40
0
 40
0
 40
0
 40
0
 40
1
 40
1
 40
1
 40
1
 10
5.750278
 20
69.975247
 30
0.0
 10
5.750278
 20
69.334039
 30
0.0
 10
4.894272
 20
65.961720
 30
0.0
 10
3.324931
 20
60.450247
 30
0.0
  0
SPLINE
  5
12b
100
AcDbEntity
  8
0
 62
7
100
AcDbSpline
 70
8
 71
3
 72
8
 73
4
 74
0
 40
0
 40
0
 40
0
 40
0
 40
1
 40
1
 40
1
 40
1
 10
3.324931
 20
60.450247
 30
0.0
 10
1.983001
 20
55.737407
 30
0.0
 10
1.245418
 20
45.040011
 30
0.0
 10
1.993194
 20
41.082747
 30
0.0
  0
SPLINE
  5
12c
100
AcDbEntity
  8
0
 62
7
100
AcDbSpline
 70
8
 71
3
 72
8
 73
4
 74
0
 40
0
 40
0
 40
0
 40
0
 40
1
 40
1
 40
1
 40
1
 10
1.993194
 20
41.082747
 30
0.0
 10
2.162116
 20
40.188814
 30
0.0
 10
2.488492
 20
37.965470
 30
0.0
 10
2.716389
 20
36.143859
 30
0.0
  0
SPLINE
  5
12d
100
AcDbEntity
  8
0
 62
7
100
AcDbSpline
 70
8
 71
3
 72
8
 73
4
 74
0
 40
0
 40
0
 40
0
 40
0
 40
1
 40
1
 40
1
 40
1
 10
2.716389
 20
36.143859
 30
0.0
 10
3.154347
 20
32.643202
 30
0.0
 10
3.111751
 20
32.242232
 30
0.0
 10
1.666875
 20
25.736914
 30
0.0
  0
SPLINE
  5
12e
100
AcDbEntity
  8
0
 62
7
100
AcDbSpline
 70
8
 71
3
 72
8
 73
4
 74
0
 40
0
 40
0
 40
0
 40
0
 40
1
 40
1
 40
1
 40
1
 10
1.666875
 20
25.736914
 30
0.0
 10
1.315153
 20
24.153340
 30
0.0
 10
1.113065
 20
22.536353
 30
0.0
 10
1.217083
 20
22.138581
 30
0.0
  0
SPLINE
  5
12f
100
AcDbEntity
  8
0
 62
7
100
AcDbSpline
 70
8
 71
3
 72
8
 73
4
 74
0
 40
0
 40
0
 40
0
 40
0
 40
1
 40
1
 40
1
 40
1
 10
1.217083
 20
22.138581
 30
0.0
 10
1.321102
 20
21.740811
 30
0.0
 10
1.262307
 20
21.322244
 30
0.0
 10
1.084792
 20
21.212539
 30
0.0
  0
SPLINE
  5
130
100
AcDbEntity
  8
0
 62
7
100
AcDbSpline
 70
8
 71
3
 72
8
 73
4
 74
0
 40
0
 40
0
 40
0
 40
0
 40
1
 40
1
 40
1
 40
1
 10
1.084792
 20
21.212539
 30
0.0
 10
0.907285
 20
21.102828
 30
0.0
 10
0.841691
 20
20.615148
 30
0.0
 10
0.934861
 20
20.127747
 30
0.0
  0
SPLINE
  5
131
100
AcDbEntity
  8
0
 62
7
100
AcDbSpline
 70
8
 71
3
 72
8
 73
4
 74
0
 40
0
 40
0
 40
0
 40
0
 40
1
 40
1
 40
1
 40
1
 10
0.934861
 20
20.127747
 30
0.0
 10
1.078450
 20
19.376616
 30
0.0
 10
1.233331
 20
19.592234
 30
0.0
 10
1.940278
 20
21.556497
 30
0.0
  0
SPLINE
  5
132
100
AcDbEntity
  8
0
 62
7
100
AcDbSpline
 70
8
 71
3
 72
8
 73
4
 74
0
 40
0
 40
0
 40
0
 40
0
 40
1
 40
1
 40
1
 40
1
 10
1.940278
 20
21.556497
 30
0.0
 10
2.399005
 20
22.831086
 30
0.0
 10
2.899455
 20
24.413583
 30
0.0
 10
3.060347
 20
25.075456
 30
0.0
  0
SPLINE
  5
133
100
AcDbEntity
  8
0
 62
7
100
AcDbSpline
 70
8
 71
3
 72
8
 73
4
 74
0
 40
0
 40
0
 40
0
 40
0
 40
1
 40
1
 40
1
 40
1
 10
3.060347
 20
25.075456
 30
0.0
 10
3.221242
 20
25.737329
 30
0.0
 10
3.663572
 20
26.963584
 30
0.0
 10
4.039306
 20
27.791845
 30
0.0
  0
SPLINE
  5
134
100
AcDbEntity
  8
0
 62
7
100
AcDbSpline
 70
8
 71
3
 72
8
 73
4
 74
0
 40
0
 40
0
 40
0
 40
0
 40
1
 40
1
 40
1
 40
1
 10
4.039306
 20
27.791845
 30
0.0
 10
4.415036
 20
28.620105
 30
0.0
 10
4.723130
 20
29.552787
 30
0.0
 10
4.727222
 20
29.873234
 30
0.0
  0
SPLINE
  5
135
100
AcDbEntity
  8
0
 62
7
100
AcDbSpline
 70
8
 71
3
 72
8
 73
4
 74
0
 40
0
 40
0
 40
0
 40
0
 40
1
 40
1
 40
1
 40
1
 10
4.727222
 20
29.873234
 30
0.0
 10
4.731312
 20
30.193683
 30
0.0
 10
5.117042
 20
31.289348
 30
0.0
 10
5.582708
 20
32.307400
 30
0.0
  0
SPLINE
  5
136
100
AcDbEntity
  8
0
 62
7
100
AcDbSpline
 70
8
 71
3
 72
8
 73
4
 74
0
 40
0
 40
0
 40
0
 40
0
 40
1
 40
1
 40
1
 40
1
 10
5.582708
 20
32.307400
 30
0.0
 10
6.048375
 20
33.325449
 30
0.0
 10
6.429375
 20
34.555009
 30
0.0
 10
6.429375
 20
35.032609
 30
0.0
  0
SPLINE
  5
137
100
AcDbEntity
  8
0
 62
7
100
AcDbSpline
 70
8
 71
3
 72
8
 73
4
 74
0
 40
0
 40
0
 40
0
 40
0
 40
1
 40
1
 40
1
 40
1
 10
6.429375
 20
35.032609
 30
0.0
 10
6.429375
 20
35.510213
 30
0.0
 10
6.563061
 20
35.896914
 30
0.0
 10
6.729236
 20
35.896914
 30
0.0
  0
SPLINE
  5
138
100
AcDbEntity
  8
0
 62
7
100
AcDbSpline
 70
8
 71
3
 72
8
 73
4
 74
0
 40
0
 40
0
 40
0
 40
0
 40
1
 40
1
 40
1
 40
1
 10
6.729236
 20
35.896914
 30
0.0
 10
6.895409
 20
35.896914
 30
0.0
 10
7.158378
 20
34.340106
 30
0.0
 10
7.311319
 20
32.430872
 30
0.0
  0
SPLINE
  5
139
100
AcDbEntity
  8
0
 62
7
100
AcDbSpline
 70
8
 71
3
 72
8
 73
4
 74
0
 40
0
 40
0
 40
0
 40
0
 40
1
 40
1
 40
1
 40
1
 10
7.311319
 20
32.430872
 30
0.0
 10
7.464264
 20
30.521639
 30
0.0
 10
7.641339
 20
29.385189
 30
0.0
 10
7.708194
 20
29.908511
 30
0.0
  0
SPLINE
  5
13a
100
AcDbEntity
  8
0
 62
7
100
AcDbSpline
 70
8
 71
3
 72
8
 73
4
 74
0
 40
0
 40
0
 40
0
 40
0
 40
1
 40
1
 40
1
 40
1
 10
7.708194
 20
29.908511
 30
0.0
 10
7.856223
 20
31.067161
 30
0.0
 10
8.909129
 20
31.046135
 30
0.0
 10
9.075208
 20
29.882053
 30
0.0
  0
SPLINE
  5
13b
100
AcDbEntity
  8
0
 62
7
100
AcDbSpline
 70
8
 71
3
 72
8
 73
4
 74
0
 40
0
 40
0
 40
0
 40
0
 40
1
 40
1
 40
1
 40
1
 10
9.075208
 20
29.882053
 30
0.0
 10
9.134729
 20
29.464855
 30
0.0
 10
9.321193
 20
29.123581
 30
0.0
 10
9.489722
 20
29.123581
 30
0.0
  0
SPLINE
  5
13c
100
AcDbEntity
  8
0
 62
7
100
AcDbSpline
 70
8
 71
3
 72
8
 73
4
 74
0
 40
0
 40
0
 40
0
 40
0
 40
1
 40
1
 40
1
 40
1
 10
9.489722
 20
29.123581
 30
0.0
 10
10.043595
 20
29.123581
 30
0.0
 10
10.906853
 20
27.019383
 30
0.0
 10
10.724444
 20
26.107331
 30
0.0
  0
SPLINE
  5
13d
100
AcDbEntity
  8
0
 62
7
100
AcDbSpline
 70
8
 71
3
 72
8
 73
4
 74
0
 40
0
 40
0
 40
0
 40
0
 40
1
 40
1
 40
1
 40
1
 10
10.724444
 20
26.107331
 30
0.0
 10
10.626649
 20
25.618355
 30
0.0
 10
9.847495
 20
23.979341
 30
0.0
 10
8.995833
 20
22.464900
 30
0.0
  0
SPLINE
  5
13e
100
AcDbEntity
  8
0
 62
7
100
AcDbSpline
 70
8
 71
3
 72
8
 73
4
 74
0
 40
0
 40
0
 40
0
 40
0
 40
1
 40
1
 40
1
 40
1
 10
8.995833
 20
22.464900
 30
0.0
 10
8.144171
 20
20.950456
 30
0.0
 10
7.443611
 20
19.548704
 30
0.0
 10
7.443611
 20
19.342817
 30
0.0
  0
SPLINE
  5
13f
100
AcDbEntity
  8
0
 62
7
100
AcDbSpline
 70
8
 71
3
 72
8
 73
4
 74
0
 40
0
 40
0
 40
0
 40
0
 40
1
 40
1
 40
1
 40
1
 10
7.443611
 20
19.342817
 30
0.0
 10
7.443611
 20
19.136930
 30
0.0
 10
7.069627
 20
18.243307
 30
0.0
 10
6.614583
 20
17.358442
 30
0.0
  0
SPLINE
  5
140
100
AcDbEntity
  8
0
 62
7
100
AcDbSpline
 70
8
 71
3
 72
8
 73
4
 74
0
 40
0
 40
0
 40
0
 40
0
 40
1
 40
1
 40
1
 40
1
 10
6.614583
 20
17.358442
 30
0.0
 10
5.530486
 20
15.250349
 30
0.0
 10
4.056944
 20
11.708175
 30
0.0
 10
4.056944
 20
11.211289
 30
0.0
  0
SPLINE
  5
141
100
AcDbEntity
  8
0
 62
7
100
AcDbSpline
 70
8
 71
3
 72
8
 73
4
 74
0
 40
0
 40
0
 40
0
 40
0
 40
1
 40
1
 40
1
 40
1
 10
4.056944
 20
11.211289
 30
0.0
 10
4.056944
 20
10.995556
 30
0.0
 10
3.675944
 20
10.066488
 30
0.0
 10
3.210278
 20
9.147539
 30
0.0
  0
SPLINE
  5
142
100
AcDbEntity
  8
0
 62
7
100
AcDbSpline
 70
8
 71
3
 72
8
 73
4
 74
0
 40
0
 40
0
 40
0
 40
0
 40
1
 40
1
 40
1
 40
1
 10
3.210278
 20
9.147539
 30
0.0
 10
2.744611
 20
8.228590
 30
0.0
 10
2.363611
 20
7.263841
 30
0.0
 10
2.363611
 20
7.013234
 30
0.0
  0
SPLINE
  5
143
100
AcDbEntity
  8
0
 62
7
100
AcDbSpline
 70
8
 71
3
 72
8
 73
4
 74
0
 40
0
 40
0
 40
0
 40
0
 40
1
 40
1
 40
1
 40
1
 10
2.363611
 20
7.013234
 30
0.0
 10
2.363611
 20
6.762631
 30
0.0
 10
2.067077
 20
5.942911
 30
0.0
 10
1.702153
 20
5.187609
 30
0.0
  0
SPLINE
  5
144
100
AcDbEntity
  8
0
 62
7
100
AcDbSpline
 70
8
 71
3
 72
8
 73
4
 74
0
 40
0
 40
0
 40
0
 40
0
 40
1
 40
1
 40
1
 40
1
 10
1.702153
 20
5.187609
 30
0.0
 10
0.913988
 20
3.556291
 30
0.0
 10
0.006914
 20
1.019570
 30
0.0
 10
0.000000
 20
0.425109
 30
0.0
  0
SPLINE
  5
145
100
AcDbEntity
  8
0
 62
7
100
AcDbSpline
 70
8
 71
3
 72
8
 73
4
 74
0
 40
0
 40
0
 40
0
 40
0
 40
1
 40
1
 40
1
 40
1
 10
0.000000
 20
0.425109
 30
0.0
 10
-0.003906
 20
0.089490
 30
0.0
 10
6.415457
 20
0.001775
 30
0.0
 10
30.982708
 20
0.001775
 30
0.0
  0
LWPOLYLINE
  5
146
100
AcDbEntity
  8
0
 62
7
100
AcDbPolyline
 90
3
 70
0
 10
44.300069
 20
181.779345
 30
0.0
 10
43.638611
 20
180.853303
 30
0.0
 10
44.555833
 20
179.653859
 30
0.0
  0
SPLINE
  5
147
100
AcDbEntity
  8
0
 62
7
100
AcDbSpline
 70
8
 71
3
 72
8
 73
4
 74
0
 40
0
 40
0
 40
0
 40
0
 40
1
 40
1
 40
1
 40
1
 10
61.974236
 20
0.936636
 30
0.0
 10
61.974236
 20
1.451500
 30
0.0
 10
61.667672
 20
2.704375
 30
0.0
 10
61.295139
 20
3.723581
 30
0.0
  0
SPLINE
  5
148
100
AcDbEntity
  8
0
 62
7
100
AcDbSpline
 70
8
 71
3
 72
8
 73
4
 74
0
 40
0
 40
0
 40
0
 40
0
 40
1
 40
1
 40
1
 40
1
 10
61.295139
 20
3.723581
 30
0.0
 10
60.922606
 20
4.742787
 30
0.0
 10
60.615477
 20
5.805162
 30
0.0
 10
60.616042
 20
6.087192
 30
0.0
  0
SPLINE
  5
149
100
AcDbEntity
  8
0
 62
7
100
AcDbSpline
 70
8
 71
3
 72
8
 73
4
 74
0
 40
0
 40
0
 40
0
 40
0
 40
1
 40
1
 40
1
 40
1
 10
60.616042
 20
6.087192
 30
0.0
 10
60.616790
 20
6.369222
 30
0.0
 10
60.248128
 20
7.824975
 30
0.0
 10
59.795833
 20
9.315109
 30
0.0
  0
SPLINE
  5
14a
100
AcDbEntity
  8
0
 62
7
100
AcDbSpline
 70
8
 71
3
 72
8
 73
4
 74
0
 40
0
 40
0
 40
0
 40
0
 40
1
 40
1
 40
1
 40
1
 10
59.795833
 20
9.315109
 30
0.0
 10
56.899601
 20
18.856985
 30
0.0
 10
55.207100
 20
27.842204
 30
0.0
 10
55.068611
 20
34.371150
 30
0.0
  0
LWPOLYLINE
  5
14b
100
AcDbEntity
  8
0
 62
7
100
AcDbPolyline
 90
3
 70
0
 10
30.982708
 20
0.001775
 30
0.0
 10
61.974236
 20
0.001775
 30
0.0
 10
61.974236
 20
0.936636
 30
0.0
  0
SPLINE
  5
14c
100
AcDbEntity
  8
0
 62
7
100
AcDbSpline
 70
8
 71
3
 72
8
 73
4
 74
0
 40
0
 40
0
 40
0
 40
0
 40
1
 40
1
 40
1
 40
1
 10
56.303333
 20
35.993928
 30
0.0
 10
57.634220
 20
35.915481
 30
0.0
 10
60.308180
 20
37.211573
 30
0.0
 10
63.156042
 20
39.318859
 30
0.0
  0
SPLINE
  5
14d
100
AcDbEntity
  8
0
 62
7
100
AcDbSpline
 70
8
 71
3
 72
8
 73
4
 74
0
 40
0
 40
0
 40
0
 40
0
 40
1
 40
1
 40
1
 40
1
 10
63.156042
 20
39.318859
 30
0.0
 10
63.901108
 20
39.870174
 30
0.0
 10
64.895236
 20
40.582754
 30
0.0
 10
65.360903
 20
40.897539
 30
0.0
  0
SPLINE
  5
14e
100
AcDbEntity
  8
0
 62
7
100
AcDbSpline
 70
8
 71
3
 72
8
 73
4
 74
0
 40
0
 40
0
 40
0
 40
0
 40
1
 40
1
 40
1
 40
1
 10
65.360903
 20
40.897539
 30
0.0
 10
66.313355
 20
41.541392
 30
0.0
 10
68.823431
 20
43.427026
 30
0.0
 10
69.082708
 20
43.693303
 30
0.0
  0
SPLINE
  5
14f
100
AcDbEntity
  8
0
 62
7
100
AcDbSpline
 70
8
 71
3
 72
8
 73
4
 74
0
 40
0
 40
0
 40
0
 40
0
 40
1
 40
1
 40
1
 40
1
 10
69.082708
 20
43.693303
 30
0.0
 10
69.175842
 20
43.788954
 30
0.0
 10
70.126773
 20
44.453017
 30
0.0
 10
71.190556
 20
45.174970
 30
0.0
  0
SPLINE
  5
150
100
AcDbEntity
  8
0
 62
7
100
AcDbSpline
 70
8
 71
3
 72
8
 73
4
 74
0
 40
0
 40
0
 40
0
 40
0
 40
1
 40
1
 40
1
 40
1
 10
71.190556
 20
45.174970
 30
0.0
 10
72.254341
 20
45.896925
 30
0.0
 10
73.397124
 20
46.735876
 30
0.0
 10
73.739375
 20
47.035872
 30
0.0
  0
SPLINE
  5
151
100
AcDbEntity
  8
0
 62
7
100
AcDbSpline
 70
8
 71
3
 72
8
 73
4
 74
0
 40
0
 40
0
 40
0
 40
0
 40
1
 40
1
 40
1
 40
1
 10
73.739375
 20
47.035872
 30
0.0
 10
74.081623
 20
47.335875
 30
0.0
 10
74.763986
 20
47.814806
 30
0.0
 10
75.247500
 20
48.094206
 30
0.0
  0
SPLINE
  5
152
100
AcDbEntity
  8
0
 62
7
100
AcDbSpline
 70
8
 71
3
 72
8
 73
4
 74
0
 40
0
 40
0
 40
0
 40
0
 40
1
 40
1
 40
1
 40
1
 10
75.247500
 20
48.094206
 30
0.0
 10
76.119948
 20
48.598351
 30
0.0
 10
77.597294
 20
49.546595
 30
0.0
 10
82.320694
 20
52.618581
 30
0.0
  0
SPLINE
  5
153
100
AcDbEntity
  8
0
 62
7
100
AcDbSpline
 70
8
 71
3
 72
8
 73
4
 74
0
 40
0
 40
0
 40
0
 40
0
 40
1
 40
1
 40
1
 40
1
 10
82.320694
 20
52.618581
 30
0.0
 10
85.625387
 20
54.767867
 30
0.0
 10
87.709375
 20
57.963201
 30
0.0
 10
87.709375
 20
60.900039
 30
0.0
  0
SPLINE
  5
154
100
AcDbEntity
  8
0
 62
7
100
AcDbSpline
 70
8
 71
3
 72
8
 73
4
 74
0
 40
0
 40
0
 40
0
 40
0
 40
1
 40
1
 40
1
 40
1
 10
87.709375
 20
60.900039
 30
0.0
 10
87.709375
 20
61.359898
 30
0.0
 10
88.076653
 20
62.516597
 30
0.0
 10
88.529583
 20
63.466497
 30
0.0
  0
SPLINE
  5
155
100
AcDbEntity
  8
0
 62
7
100
AcDbSpline
 70
8
 71
3
 72
8
 73
4
 74
0
 40
0
 40
0
 40
0
 40
0
 40
1
 40
1
 40
1
 40
1
 10
88.529583
 20
63.466497
 30
0.0
 10
88.982510
 20
64.416395
 30
0.0
 10
89.405138
 20
65.481829
 30
0.0
 10
89.464444
 20
65.838928
 30
0.0
  0
SPLINE
  5
156
100
AcDbEntity
  8
0
 62
7
100
AcDbSpline
 70
8
 71
3
 72
8
 73
4
 74
0
 40
0
 40
0
 40
0
 40
0
 40
1
 40
1
 40
1
 40
1
 10
89.464444
 20
65.838928
 30
0.0
 10
89.805648
 20
67.893421
 30
0.0
 10
91.317284
 20
65.018152
 30
0.0
 10
92.965764
 20
59.180247
 30
0.0
  0
SPLINE
  5
157
100
AcDbEntity
  8
0
 62
7
100
AcDbSpline
 70
8
 71
3
 72
8
 73
4
 74
0
 40
0
 40
0
 40
0
 40
0
 40
1
 40
1
 40
1
 40
1
 10
92.965764
 20
59.180247
 30
0.0
 10
93.737145
 20
56.448486
 30
0.0
 10
94.116618
 20
55.671220
 30
0.0
 10
95.126528
 20
54.708789
 30
0.0
  0
SPLINE
  5
158
100
AcDbEntity
  8
0
 62
7
100
AcDbSpline
 70
8
 71
3
 72
8
 73
4
 74
0
 40
0
 40
0
 40
0
 40
0
 40
1
 40
1
 40
1
 40
1
 10
95.126528
 20
54.708789
 30
0.0
 10
96.146787
 20
53.736494
 30
0.0
 10
99.739865
 20
51.136914
 30
0.0
 10
100.065417
 20
51.136914
 30
0.0
  0
SPLINE
  5
159
100
AcDbEntity
  8
0
 62
7
100
AcDbSpline
 70
8
 71
3
 72
8
 73
4
 74
0
 40
0
 40
0
 40
0
 40
0
 40
1
 40
1
 40
1
 40
1
 10
100.065417
 20
51.136914
 30
0.0
 10
100.118830
 20
51.136914
 30
0.0
 10
101.872677
 20
49.993914
 30
0.0
 10
103.963611
 20
48.596914
 30
0.0
  0
SPLINE
  5
15a
100
AcDbEntity
  8
0
 62
7
100
AcDbSpline
 70
8
 71
3
 72
8
 73
4
 74
0
 40
0
 40
0
 40
0
 40
0
 40
1
 40
1
 40
1
 40
1
 10
103.963611
 20
48.596914
 30
0.0
 10
106.054545
 20
47.199914
 30
0.0
 10
107.871243
 20
46.056914
 30
0.0
 10
108.002917
 20
46.056914
 30
0.0
  0
SPLINE
  5
15b
100
AcDbEntity
  8
0
 62
7
100
AcDbSpline
 70
8
 71
3
 72
8
 73
4
 74
0
 40
0
 40
0
 40
0
 40
0
 40
1
 40
1
 40
1
 40
1
 10
108.002917
 20
46.056914
 30
0.0
 10
108.134593
 20
46.056914
 30
0.0
 10
108.576982
 20
45.675914
 30
0.0
 10
108.981875
 20
45.210247
 30
0.0
  0
SPLINE
  5
15c
100
AcDbEntity
  8
0
 62
7
100
AcDbSpline
 70
8
 71
3
 72
8
 73
4
 74
0
 40
0
 40
0
 40
0
 40
0
 40
1
 40
1
 40
1
 40
1
 10
108.981875
 20
45.210247
 30
0.0
 10
109.386768
 20
44.744581
 30
0.0
 10
109.933850
 20
44.363581
 30
0.0
 10
110.198958
 20
44.363581
 30
0.0
  0
SPLINE
  5
15d
100
AcDbEntity
  8
0
 62
7
100
AcDbSpline
 70
8
 71
3
 72
8
 73
4
 74
0
 40
0
 40
0
 40
0
 40
0
 40
1
 40
1
 40
1
 40
1
 10
110.198958
 20
44.363581
 30
0.0
 10
110.464069
 20
44.363581
 30
0.0
 10
110.736592
 20
44.240718
 30
0.0
 10
110.798681
 20
44.090178
 30
0.0
  0
SPLINE
  5
15e
100
AcDbEntity
  8
0
 62
7
100
AcDbSpline
 70
8
 71
3
 72
8
 73
4
 74
0
 40
0
 40
0
 40
0
 40
0
 40
1
 40
1
 40
1
 40
1
 10
110.798681
 20
44.090178
 30
0.0
 10
110.898971
 20
43.847007
 30
0.0
 10
112.812508
 20
42.416637
 30
0.0
 10
114.970278
 20
40.976914
 30
0.0
  0
SPLINE
  5
15f
100
AcDbEntity
  8
0
 62
7
100
AcDbSpline
 70
8
 71
3
 72
8
 73
4
 74
0
 40
0
 40
0
 40
0
 40
0
 40
1
 40
1
 40
1
 40
1
 10
114.970278
 20
40.976914
 30
0.0
 10
116.441948
 20
39.994978
 30
0.0
 10
119.036107
 20
38.141458
 30
0.0
 10
119.203611
 20
37.951845
 30
0.0
  0
SPLINE
  5
160
100
AcDbEntity
  8
0
 62
7
100
AcDbSpline
 70
8
 71
3
 72
8
 73
4
 74
0
 40
0
 40
0
 40
0
 40
0
 40
1
 40
1
 40
1
 40
1
 10
119.203611
 20
37.951845
 30
0.0
 10
119.296744
 20
37.846418
 30
0.0
 10
120.169892
 20
37.334921
 30
0.0
 10
121.143889
 20
36.814136
 30
0.0
  0
SPLINE
  5
161
100
AcDbEntity
  8
0
 62
7
100
AcDbSpline
 70
8
 71
3
 72
8
 73
4
 74
0
 40
0
 40
0
 40
0
 40
0
 40
1
 40
1
 40
1
 40
1
 10
121.143889
 20
36.814136
 30
0.0
 10
122.382147
 20
36.152054
 30
0.0
 10
123.302432
 20
35.897399
 30
0.0
 10
124.195417
 20
35.967470
 30
0.0
  0
LWPOLYLINE
  5
162
100
AcDbEntity
  8
0
 62
7
100
AcDbPolyline
 90
3
 70
0
 10
55.068611
 20
34.371150
 30
0.0
 10
55.024514
 20
36.064484
 30
0.0
 10
56.303333
 20
35.993928
 30
0.0
  0
SPLINE
  5
163
100
AcDbEntity
  8
0
 62
7
100
AcDbSpline
 70
8
 71
3
 72
8
 73
4
 74
0
 40
0
 40
0
 40
0
 40
0
 40
1
 40
1
 40
1
 40
1
 10
125.580069
 20
34.212400
 30
0.0
 10
125.637883
 20
33.190877
 30
0.0
 10
125.435450
 20
30.236098
 30
0.0
 10
125.139097
 20
27.650734
 30
0.0
  0
SPLINE
  5
164
100
AcDbEntity
  8
0
 62
7
100
AcDbSpline
 70
8
 71
3
 72
8
 73
4
 74
0
 40
0
 40
0
 40
0
 40
0
 40
1
 40
1
 40
1
 40
1
 10
125.139097
 20
27.650734
 30
0.0
 10
124.842744
 20
25.065366
 30
0.0
 10
124.459802
 20
20.115313
 30
0.0
 10
124.283611
 20
16.644067
 30
0.0
  0
SPLINE
  5
165
100
AcDbEntity
  8
0
 62
7
100
AcDbSpline
 70
8
 71
3
 72
8
 73
4
 74
0
 40
0
 40
0
 40
0
 40
0
 40
1
 40
1
 40
1
 40
1
 10
124.283611
 20
16.644067
 30
0.0
 10
124.107420
 20
13.172821
 30
0.0
 10
123.742300
 20
8.219011
 30
0.0
 10
123.472222
 20
5.637400
 30
0.0
  0
SPLINE
  5
166
100
AcDbEntity
  8
0
 62
7
100
AcDbSpline
 70
8
 71
3
 72
8
 73
4
 74
0
 40
0
 40
0
 40
0
 40
0
 40
1
 40
1
 40
1
 40
1
 10
123.472222
 20
5.637400
 30
0.0
 10
123.202147
 20
3.055787
 30
0.0
 10
123.064171
 20
0.728159
 30
0.0
 10
123.163542
 20
0.469206
 30
0.0
  0
SPLINE
  5
167
100
AcDbEntity
  8
0
 62
7
100
AcDbSpline
 70
8
 71
3
 72
8
 73
4
 74
0
 40
0
 40
0
 40
0
 40
0
 40
1
 40
1
 40
1
 40
1
 10
123.163542
 20
0.469206
 30
0.0
 10
123.316455
 20
0.070708
 30
0.0
 10
129.809432
 20
0.001775
 30
0.0
 10
165.435139
 20
0.001775
 30
0.0
  0
LWPOLYLINE
  5
168
100
AcDbEntity
  8
0
 62
7
100
AcDbPolyline
 90
3
 70
0
 10
124.195417
 20
35.967470
 30
0.0
 10
125.474236
 20
36.064484
 30
0.0
 10
125.580069
 20
34.212400
 30
0.0
  0
SPLINE
  5
169
100
AcDbEntity
  8
0
 62
7
100
AcDbSpline
 70
8
 71
3
 72
8
 73
4
 74
0
 40
0
 40
0
 40
0
 40
0
 40
1
 40
1
 40
1
 40
1
 10
207.256944
 20
1.174761
 30
0.0
 10
207.111078
 20
1.821521
 30
0.0
 10
205.980038
 20
4.372458
 30
0.0
 10
204.743403
 20
6.845664
 30
0.0
  0
SPLINE
  5
16a
100
AcDbEntity
  8
0
 62
7
100
AcDbSpline
 70
8
 71
3
 72
8
 73
4
 74
0
 40
0
 40
0
 40
0
 40
0
 40
1
 40
1
 40
1
 40
1
 10
204.743403
 20
6.845664
 30
0.0
 10
201.713668
 20
12.905003
 30
0.0
 10
201.039919
 20
14.100305
 30
0.0
 10
199.919167
 20
15.356428
 30
0.0
  0
SPLINE
  5
16b
100
AcDbEntity
  8
0
 62
7
100
AcDbSpline
 70
8
 71
3
 72
8
 73
4
 74
0
 40
0
 40
0
 40
0
 40
0
 40
1
 40
1
 40
1
 40
1
 10
199.919167
 20
15.356428
 30
0.0
 10
199.392927
 20
15.946233
 30
0.0
 10
198.128235
 20
17.419642
 30
0.0
 10
197.105764
 20
18.628442
 30
0.0
  0
SPLINE
  5
16c
100
AcDbEntity
  8
0
 62
7
100
AcDbSpline
 70
8
 71
3
 72
8
 73
4
 74
0
 40
0
 40
0
 40
0
 40
0
 40
1
 40
1
 40
1
 40
1
 10
197.105764
 20
18.628442
 30
0.0
 10
193.782682
 20
22.557099
 30
0.0
 10
189.936354
 20
26.010212
 30
0.0
 10
187.104514
 20
27.615456
 30
0.0
  0
SPLINE
  5
16d
100
AcDbEntity
  8
0
 62
7
100
AcDbSpline
 70
8
 71
3
 72
8
 73
4
 74
0
 40
0
 40
0
 40
0
 40
0
 40
1
 40
1
 40
1
 40
1
 10
187.104514
 20
27.615456
 30
0.0
 10
185.614381
 20
28.460147
 30
0.0
 10
184.173636
 20
29.286437
 30
0.0
 10
183.894236
 20
29.449900
 30
0.0
  0
SPLINE
  5
16e
100
AcDbEntity
  8
0
 62
7
100
AcDbSpline
 70
8
 71
3
 72
8
 73
4
 74
0
 40
0
 40
0
 40
0
 40
0
 40
1
 40
1
 40
1
 40
1
 10
183.894236
 20
29.449900
 30
0.0
 10
183.614836
 20
29.613369
 30
0.0
 10
182.820934
 20
29.987861
 30
0.0
 10
182.130347
 20
30.287747
 30
0.0
  0
SPLINE
  5
16f
100
AcDbEntity
  8
0
 62
7
100
AcDbSpline
 70
8
 71
3
 72
8
 73
4
 74
0
 40
0
 40
0
 40
0
 40
0
 40
1
 40
1
 40
1
 40
1
 10
182.130347
 20
30.287747
 30
0.0
 10
181.439758
 20
30.587634
 30
0.0
 10
180.778359
 20
30.988412
 30
0.0
 10
180.666319
 20
31.169692
 30
0.0
  0
SPLINE
  5
170
100
AcDbEntity
  8
0
 62
7
100
AcDbSpline
 70
8
 71
3
 72
8
 73
4
 74
0
 40
0
 40
0
 40
0
 40
0
 40
1
 40
1
 40
1
 40
1
 10
180.666319
 20
31.169692
 30
0.0
 10
180.554283
 20
31.350974
 30
0.0
 10
180.028590
 20
31.496011
 30
0.0
 10
179.493333
 20
31.496011
 30
0.0
  0
SPLINE
  5
171
100
AcDbEntity
  8
0
 62
7
100
AcDbSpline
 70
8
 71
3
 72
8
 73
4
 74
0
 40
0
 40
0
 40
0
 40
0
 40
1
 40
1
 40
1
 40
1
 10
179.493333
 20
31.496011
 30
0.0
 10
178.770325
 20
31.496011
 30
0.0
 10
178.463092
 20
31.688371
 30
0.0
 10
178.311528
 20
32.254484
 30
0.0
  0
SPLINE
  5
172
100
AcDbEntity
  8
0
 62
7
100
AcDbSpline
 70
8
 71
3
 72
8
 73
4
 74
0
 40
0
 40
0
 40
0
 40
0
 40
1
 40
1
 40
1
 40
1
 10
178.311528
 20
32.254484
 30
0.0
 10
178.029701
 20
33.307124
 30
0.0
 10
177.607663
 20
34.983310
 30
0.0
 10
176.935694
 20
37.678442
 30
0.0
  0
SPLINE
  5
173
100
AcDbEntity
  8
0
 62
7
100
AcDbSpline
 70
8
 71
3
 72
8
 73
4
 74
0
 40
0
 40
0
 40
0
 40
0
 40
1
 40
1
 40
1
 40
1
 10
176.935694
 20
37.678442
 30
0.0
 10
176.621677
 20
38.937892
 30
0.0
 10
176.227568
 20
40.054730
 30
0.0
 10
176.062569
 20
40.156706
 30
0.0
  0
SPLINE
  5
174
100
AcDbEntity
  8
0
 62
7
100
AcDbSpline
 70
8
 71
3
 72
8
 73
4
 74
0
 40
0
 40
0
 40
0
 40
0
 40
1
 40
1
 40
1
 40
1
 10
176.062569
 20
40.156706
 30
0.0
 10
175.666434
 20
40.401519
 30
0.0
 10
175.675076
 20
48.094206
 30
0.0
 10
176.071389
 20
48.094206
 30
0.0
  0
SPLINE
  5
175
100
AcDbEntity
  8
0
 62
7
100
AcDbSpline
 70
8
 71
3
 72
8
 73
4
 74
0
 40
0
 40
0
 40
0
 40
0
 40
1
 40
1
 40
1
 40
1
 10
176.071389
 20
48.094206
 30
0.0
 10
176.239955
 20
48.094206
 30
0.0
 10
176.756557
 20
47.432479
 30
0.0
 10
177.226736
 20
46.630178
 30
0.0
  0
SPLINE
  5
176
100
AcDbEntity
  8
0
 62
7
100
AcDbSpline
 70
8
 71
3
 72
8
 73
4
 74
0
 40
0
 40
0
 40
0
 40
0
 40
1
 40
1
 40
1
 40
1
 10
177.226736
 20
46.630178
 30
0.0
 10
177.889665
 20
45.498975
 30
0.0
 10
178.206392
 20
44.190807
 30
0.0
 10
178.637847
 20
40.791706
 30
0.0
  0
SPLINE
  5
177
100
AcDbEntity
  8
0
 62
7
100
AcDbSpline
 70
8
 71
3
 72
8
 73
4
 74
0
 40
0
 40
0
 40
0
 40
0
 40
1
 40
1
 40
1
 40
1
 10
178.637847
 20
40.791706
 30
0.0
 10
179.165242
 20
36.636762
 30
0.0
 10
180.055108
 20
32.631053
 30
0.0
 10
180.375278
 20
32.951220
 30
0.0
  0
SPLINE
  5
178
100
AcDbEntity
  8
0
 62
7
100
AcDbSpline
 70
8
 71
3
 72
8
 73
4
 74
0
 40
0
 40
0
 40
0
 40
0
 40
1
 40
1
 40
1
 40
1
 10
180.375278
 20
32.951220
 30
0.0
 10
180.696218
 20
33.272157
 30
0.0
 10
181.333761
 20
41.021135
 30
0.0
 10
181.327778
 20
44.531150
 30
0.0
  0
SPLINE
  5
179
100
AcDbEntity
  8
0
 62
7
100
AcDbSpline
 70
8
 71
3
 72
8
 73
4
 74
0
 40
0
 40
0
 40
0
 40
0
 40
1
 40
1
 40
1
 40
1
 10
181.327778
 20
44.531150
 30
0.0
 10
181.318899
 20
49.736113
 30
0.0
 10
180.701594
 20
55.674522
 30
0.0
 10
179.916667
 20
58.077817
 30
0.0
  0
SPLINE
  5
17a
100
AcDbEntity
  8
0
 62
7
100
AcDbSpline
 70
8
 71
3
 72
8
 73
4
 74
0
 40
0
 40
0
 40
0
 40
0
 40
1
 40
1
 40
1
 40
1
 10
179.916667
 20
58.077817
 30
0.0
 10
179.551655
 20
59.195417
 30
0.0
 10
178.863755
 20
61.406981
 30
0.0
 10
178.390903
 20
62.990247
 30
0.0
  0
SPLINE
  5
17b
100
AcDbEntity
  8
0
 62
7
100
AcDbSpline
 70
8
 71
3
 72
8
 73
4
 74
0
 40
0
 40
0
 40
0
 40
0
 40
1
 40
1
 40
1
 40
1
 10
178.390903
 20
62.990247
 30
0.0
 10
177.918051
 20
64.573514
 30
0.0
 10
177.131743
 20
67.166078
 30
0.0
 10
176.644653
 20
68.749345
 30
0.0
  0
SPLINE
  5
17c
100
AcDbEntity
  8
0
 62
7
100
AcDbSpline
 70
8
 71
3
 72
8
 73
4
 74
0
 40
0
 40
0
 40
0
 40
0
 40
1
 40
1
 40
1
 40
1
 10
176.644653
 20
68.749345
 30
0.0
 10
175.620471
 20
72.078401
 30
0.0
 10
175.568274
 20
72.627403
 30
0.0
 10
176.274236
 20
72.356497
 30
0.0
  0
SPLINE
  5
17d
100
AcDbEntity
  8
0
 62
7
100
AcDbSpline
 70
8
 71
3
 72
8
 73
4
 74
0
 40
0
 40
0
 40
0
 40
0
 40
1
 40
1
 40
1
 40
1
 10
176.274236
 20
72.356497
 30
0.0
 10
176.918744
 20
72.109183
 30
0.0
 10
176.921058
 20
72.500758
 30
0.0
 10
176.283056
 20
73.344275
 30
0.0
  0
SPLINE
  5
17e
100
AcDbEntity
  8
0
 62
7
100
AcDbSpline
 70
8
 71
3
 72
8
 73
4
 74
0
 40
0
 40
0
 40
0
 40
0
 40
1
 40
1
 40
1
 40
1
 10
176.283056
 20
73.344275
 30
0.0
 10
176.009582
 20
73.705844
 30
0.0
 10
175.777454
 20
74.345106
 30
0.0
 10
175.771528
 20
74.764206
 30
0.0
  0
SPLINE
  5
17f
100
AcDbEntity
  8
0
 62
7
100
AcDbSpline
 70
8
 71
3
 72
8
 73
4
 74
0
 40
0
 40
0
 40
0
 40
0
 40
1
 40
1
 40
1
 40
1
 10
175.771528
 20
74.764206
 30
0.0
 10
175.765604
 20
75.183306
 30
0.0
 10
175.646644
 20
75.521549
 30
0.0
 10
175.506944
 20
75.522678
 30
0.0
  0
SPLINE
  5
180
100
AcDbEntity
  8
0
 62
7
100
AcDbSpline
 70
8
 71
3
 72
8
 73
4
 74
0
 40
0
 40
0
 40
0
 40
0
 40
1
 40
1
 40
1
 40
1
 10
175.506944
 20
75.522678
 30
0.0
 10
175.217130
 20
75.525125
 30
0.0
 10
174.069375
 20
77.449042
 30
0.0
 10
174.069375
 20
77.930386
 30
0.0
  0
SPLINE
  5
181
100
AcDbEntity
  8
0
 62
7
100
AcDbSpline
 70
8
 71
3
 72
8
 73
4
 74
0
 40
0
 40
0
 40
0
 40
0
 40
1
 40
1
 40
1
 40
1
 10
174.069375
 20
77.930386
 30
0.0
 10
174.069375
 20
78.105260
 30
0.0
 10
173.712189
 20
78.814270
 30
0.0
 10
173.275625
 20
79.509067
 30
0.0
  0
SPLINE
  5
182
100
AcDbEntity
  8
0
 62
7
100
AcDbSpline
 70
8
 71
3
 72
8
 73
4
 74
0
 40
0
 40
0
 40
0
 40
0
 40
1
 40
1
 40
1
 40
1
 10
173.275625
 20
79.509067
 30
0.0
 10
172.839058
 20
80.203867
 30
0.0
 10
172.396390
 20
81.151247
 30
0.0
 10
172.296667
 20
81.616914
 30
0.0
  0
SPLINE
  5
183
100
AcDbEntity
  8
0
 62
7
100
AcDbSpline
 70
8
 71
3
 72
8
 73
4
 74
0
 40
0
 40
0
 40
0
 40
0
 40
1
 40
1
 40
1
 40
1
 10
172.296667
 20
81.616914
 30
0.0
 10
172.196946
 20
82.082581
 30
0.0
 10
171.807660
 20
83.383272
 30
0.0
 10
171.423542
 20
84.500872
 30
0.0
  0
SPLINE
  5
184
100
AcDbEntity
  8
0
 62
7
100
AcDbSpline
 70
8
 71
3
 72
8
 73
4
 74
0
 40
0
 40
0
 40
0
 40
0
 40
1
 40
1
 40
1
 40
1
 10
171.423542
 20
84.500872
 30
0.0
 10
171.039420
 20
85.618472
 30
0.0
 10
170.331511
 20
87.821217
 30
0.0
 10
169.853681
 20
89.404484
 30
0.0
  0
SPLINE
  5
185
100
AcDbEntity
  8
0
 62
7
100
AcDbSpline
 70
8
 71
3
 72
8
 73
4
 74
0
 40
0
 40
0
 40
0
 40
0
 40
1
 40
1
 40
1
 40
1
 10
169.853681
 20
89.404484
 30
0.0
 10
169.375850
 20
90.987750
 30
0.0
 10
168.611508
 20
93.505878
 30
0.0
 10
168.151528
 20
94.996011
 30
0.0
  0
SPLINE
  5
186
100
AcDbEntity
  8
0
 62
7
100
AcDbSpline
 70
8
 71
3
 72
8
 73
4
 74
0
 40
0
 40
0
 40
0
 40
0
 40
1
 40
1
 40
1
 40
1
 10
168.151528
 20
94.996011
 30
0.0
 10
167.075985
 20
98.480287
 30
0.0
 10
165.602708
 20
104.667832
 30
0.0
 10
165.602708
 20
105.711636
 30
0.0
  0
SPLINE
  5
187
100
AcDbEntity
  8
0
 62
7
100
AcDbSpline
 70
8
 71
3
 72
8
 73
4
 74
0
 40
0
 40
0
 40
0
 40
0
 40
1
 40
1
 40
1
 40
1
 10
165.602708
 20
105.711636
 30
0.0
 10
165.602708
 20
106.156543
 30
0.0
 10
165.220023
 20
108.199298
 30
0.0
 10
164.756042
 20
110.244831
 30
0.0
  0
SPLINE
  5
188
100
AcDbEntity
  8
0
 62
7
100
AcDbSpline
 70
8
 71
3
 72
8
 73
4
 74
0
 40
0
 40
0
 40
0
 40
0
 40
1
 40
1
 40
1
 40
1
 10
164.756042
 20
110.244831
 30
0.0
 10
164.292063
 20
112.290366
 30
0.0
 10
163.913975
 20
114.645381
 30
0.0
 10
163.909375
 20
115.483581
 30
0.0
  0
SPLINE
  5
189
100
AcDbEntity
  8
0
 62
7
100
AcDbSpline
 70
8
 71
3
 72
8
 73
4
 74
0
 40
0
 40
0
 40
0
 40
0
 40
1
 40
1
 40
1
 40
1
 10
163.909375
 20
115.483581
 30
0.0
 10
163.904775
 20
116.321781
 30
0.0
 10
163.590464
 20
119.146472
 30
0.0
 10
163.212639
 20
121.754206
 30
0.0
  0
SPLINE
  5
18a
100
AcDbEntity
  8
0
 62
7
100
AcDbSpline
 70
8
 71
3
 72
8
 73
4
 74
0
 40
0
 40
0
 40
0
 40
0
 40
1
 40
1
 40
1
 40
1
 10
163.212639
 20
121.754206
 30
0.0
 10
162.834817
 20
124.361939
 30
0.0
 10
162.380351
 20
128.246375
 30
0.0
 10
162.207222
 20
130.388442
 30
0.0
  0
SPLINE
  5
18b
100
AcDbEntity
  8
0
 62
7
100
AcDbSpline
 70
8
 71
3
 72
8
 73
4
 74
0
 40
0
 40
0
 40
0
 40
0
 40
1
 40
1
 40
1
 40
1
 10
162.207222
 20
130.388442
 30
0.0
 10
162.034093
 20
132.530509
 30
0.0
 10
161.656878
 20
135.123072
 30
0.0
 10
161.369375
 20
136.147539
 30
0.0
  0
SPLINE
  5
18c
100
AcDbEntity
  8
0
 62
7
100
AcDbSpline
 70
8
 71
3
 72
8
 73
4
 74
0
 40
0
 40
0
 40
0
 40
0
 40
1
 40
1
 40
1
 40
1
 10
161.369375
 20
136.147539
 30
0.0
 10
161.081870
 20
137.172006
 30
0.0
 10
160.716987
 20
138.844878
 30
0.0
 10
160.549167
 20
139.869345
 30
0.0
  0
SPLINE
  5
18d
100
AcDbEntity
  8
0
 62
7
100
AcDbSpline
 70
8
 71
3
 72
8
 73
4
 74
0
 40
0
 40
0
 40
0
 40
0
 40
1
 40
1
 40
1
 40
1
 10
160.549167
 20
139.869345
 30
0.0
 10
160.243156
 20
141.737444
 30
0.0
 10
159.153454
 20
144.875047
 30
0.0
 10
157.762222
 20
147.903859
 30
0.0
  0
SPLINE
  5
18e
100
AcDbEntity
  8
0
 62
7
100
AcDbSpline
 70
8
 71
3
 72
8
 73
4
 74
0
 40
0
 40
0
 40
0
 40
0
 40
1
 40
1
 40
1
 40
1
 10
157.762222
 20
147.903859
 30
0.0
 10
156.784635
 20
150.032127
 30
0.0
 10
153.149489
 20
155.109345
 30
0.0
 10
152.602847
 20
155.109345
 30
0.0
  0
SPLINE
  5
18f
100
AcDbEntity
  8
0
 62
7
100
AcDbSpline
 70
8
 71
3
 72
8
 73
4
 74
0
 40
0
 40
0
 40
0
 40
0
 40
1
 40
1
 40
1
 40
1
 10
152.602847
 20
155.109345
 30
0.0
 10
151.722023
 20
155.109345
 30
0.0
 10
151.263336
 20
156.676386
 30
0.0
 10
151.553333
 20
158.734136
 30
0.0
  0
SPLINE
  5
190
100
AcDbEntity
  8
0
 62
7
100
AcDbSpline
 70
8
 71
3
 72
8
 73
4
 74
0
 40
0
 40
0
 40
0
 40
0
 40
1
 40
1
 40
1
 40
1
 10
151.553333
 20
158.734136
 30
0.0
 10
151.907610
 20
161.246388
 30
0.0
 10
151.915509
 20
164.779489
 30
0.0
 10
151.562153
 20
167.897539
 30
0.0
  0
SPLINE
  5
191
100
AcDbEntity
  8
0
 62
7
100
AcDbSpline
 70
8
 71
3
 72
8
 73
4
 74
0
 40
0
 40
0
 40
0
 40
0
 40
1
 40
1
 40
1
 40
1
 10
151.562153
 20
167.897539
 30
0.0
 10
151.250040
 20
170.651638
 30
0.0
 10
151.418541
 20
170.840575
 30
0.0
 10
153.008542
 20
169.502678
 30
0.0
  0
SPLINE
  5
192
100
AcDbEntity
  8
0
 62
7
100
AcDbSpline
 70
8
 71
3
 72
8
 73
4
 74
0
 40
0
 40
0
 40
0
 40
0
 40
1
 40
1
 40
1
 40
1
 10
153.008542
 20
169.502678
 30
0.0
 10
153.561957
 20
169.037011
 30
0.0
 10
154.164230
 20
168.656011
 30
0.0
 10
154.340278
 20
168.656011
 30
0.0
  0
SPLINE
  5
193
100
AcDbEntity
  8
0
 62
7
100
AcDbSpline
 70
8
 71
3
 72
8
 73
4
 74
0
 40
0
 40
0
 40
0
 40
0
 40
1
 40
1
 40
1
 40
1
 10
154.340278
 20
168.656011
 30
0.0
 10
154.516322
 20
168.656011
 30
0.0
 10
154.838287
 20
168.250661
 30
0.0
 10
155.063472
 20
167.756428
 30
0.0
  0
SPLINE
  5
194
100
AcDbEntity
  8
0
 62
7
100
AcDbSpline
 70
8
 71
3
 72
8
 73
4
 74
0
 40
0
 40
0
 40
0
 40
0
 40
1
 40
1
 40
1
 40
1
 10
155.063472
 20
167.756428
 30
0.0
 10
155.454268
 20
166.898729
 30
0.0
 10
155.495594
 20
166.885406
 30
0.0
 10
155.910139
 20
167.500664
 30
0.0
  0
SPLINE
  5
195
100
AcDbEntity
  8
0
 62
7
100
AcDbSpline
 70
8
 71
3
 72
8
 73
4
 74
0
 40
0
 40
0
 40
0
 40
0
 40
1
 40
1
 40
1
 40
1
 10
155.910139
 20
167.500664
 30
0.0
 10
156.149015
 20
167.855197
 30
0.0
 10
156.587865
 20
168.775552
 30
0.0
 10
156.889097
 20
169.546775
 30
0.0
  0
SPLINE
  5
196
100
AcDbEntity
  8
0
 62
7
100
AcDbSpline
 70
8
 71
3
 72
8
 73
4
 74
0
 40
0
 40
0
 40
0
 40
0
 40
1
 40
1
 40
1
 40
1
 10
156.889097
 20
169.546775
 30
0.0
 10
157.190324
 20
170.317995
 30
0.0
 10
157.751125
 20
171.460995
 30
0.0
 10
158.132639
 20
172.086775
 30
0.0
  0
SPLINE
  5
197
100
AcDbEntity
  8
0
 62
7
100
AcDbSpline
 70
8
 71
3
 72
8
 73
4
 74
0
 40
0
 40
0
 40
0
 40
0
 40
1
 40
1
 40
1
 40
1
 10
158.132639
 20
172.086775
 30
0.0
 10
158.514153
 20
172.712552
 30
0.0
 10
158.828811
 20
173.436678
 30
0.0
 10
158.829375
 20
173.691914
 30
0.0
  0
SPLINE
  5
198
100
AcDbEntity
  8
0
 62
7
100
AcDbSpline
 70
8
 71
3
 72
8
 73
4
 74
0
 40
0
 40
0
 40
0
 40
0
 40
1
 40
1
 40
1
 40
1
 10
158.829375
 20
173.691914
 30
0.0
 10
158.832065
 20
174.677409
 30
0.0
 10
156.963293
 20
176.982408
 30
0.0
 10
155.654375
 20
177.607747
 30
0.0
  0
SPLINE
  5
199
100
AcDbEntity
  8
0
 62
7
100
AcDbSpline
 70
8
 71
3
 72
8
 73
4
 74
0
 40
0
 40
0
 40
0
 40
0
 40
1
 40
1
 40
1
 40
1
 10
155.654375
 20
177.607747
 30
0.0
 10
154.447810
 20
178.184183
 30
0.0
 10
154.106948
 20
178.205977
 30
0.0
 10
152.417639
 20
177.828234
 30
0.0
  0
SPLINE
  5
19a
100
AcDbEntity
  8
0
 62
7
100
AcDbSpline
 70
8
 71
3
 72
8
 73
4
 74
0
 40
0
 40
0
 40
0
 40
0
 40
1
 40
1
 40
1
 40
1
 10
152.417639
 20
177.828234
 30
0.0
 10
151.380221
 20
177.596261
 30
0.0
 10
150.311849
 20
177.384242
 30
0.0
 10
150.045208
 20
177.351984
 30
0.0
  0
SPLINE
  5
19b
100
AcDbEntity
  8
0
 62
7
100
AcDbSpline
 70
8
 71
3
 72
8
 73
4
 74
0
 40
0
 40
0
 40
0
 40
0
 40
1
 40
1
 40
1
 40
1
 10
150.045208
 20
177.351984
 30
0.0
 10
149.485161
 20
177.284225
 30
0.0
 10
149.109498
 20
177.957680
 30
0.0
 10
147.628681
 20
181.691150
 30
0.0
  0
SPLINE
  5
19c
100
AcDbEntity
  8
0
 62
7
100
AcDbSpline
 70
8
 71
3
 72
8
 73
4
 74
0
 40
0
 40
0
 40
0
 40
0
 40
1
 40
1
 40
1
 40
1
 10
147.628681
 20
181.691150
 30
0.0
 10
147.037645
 20
183.181284
 30
0.0
 10
146.267351
 20
184.812703
 30
0.0
 10
145.917708
 20
185.307122
 30
0.0
  0
SPLINE
  5
19d
100
AcDbEntity
  8
0
 62
7
100
AcDbSpline
 70
8
 71
3
 72
8
 73
4
 74
0
 40
0
 40
0
 40
0
 40
0
 40
1
 40
1
 40
1
 40
1
 10
145.917708
 20
185.307122
 30
0.0
 10
145.568069
 20
185.801545
 30
0.0
 10
145.282708
 20
186.432015
 30
0.0
 10
145.282708
 20
186.718234
 30
0.0
  0
SPLINE
  5
19e
100
AcDbEntity
  8
0
 62
7
100
AcDbSpline
 70
8
 71
3
 72
8
 73
4
 74
0
 40
0
 40
0
 40
0
 40
0
 40
1
 40
1
 40
1
 40
1
 10
145.282708
 20
186.718234
 30
0.0
 10
145.282708
 20
187.004455
 30
0.0
 10
145.133836
 20
187.335129
 30
0.0
 10
144.947569
 20
187.450247
 30
0.0
  0
SPLINE
  5
19f
100
AcDbEntity
  8
0
 62
7
100
AcDbSpline
 70
8
 71
3
 72
8
 73
4
 74
0
 40
0
 40
0
 40
0
 40
0
 40
1
 40
1
 40
1
 40
1
 10
144.947569
 20
187.450247
 30
0.0
 10
144.482696
 20
187.737547
 30
0.0
 10
144.503100
 20
181.029494
 30
0.0
 10
144.974028
 20
178.833650
 30
0.0
  0
SPLINE
  5
1a0
100
AcDbEntity
  8
0
 62
7
100
AcDbSpline
 70
8
 71
3
 72
8
 73
4
 74
0
 40
0
 40
0
 40
0
 40
0
 40
1
 40
1
 40
1
 40
1
 10
144.974028
 20
178.833650
 30
0.0
 10
145.241775
 20
177.585158
 30
0.0
 10
145.238591
 20
176.813583
 30
0.0
 10
144.956389
 20
175.958511
 30
0.0
  0
SPLINE
  5
1a1
100
AcDbEntity
  8
0
 62
7
100
AcDbSpline
 70
8
 71
3
 72
8
 73
4
 74
0
 40
0
 40
0
 40
0
 40
0
 40
1
 40
1
 40
1
 40
1
 10
144.956389
 20
175.958511
 30
0.0
 10
144.490443
 20
174.546669
 30
0.0
 10
143.611995
 20
174.207099
 30
0.0
 10
139.602986
 20
173.877122
 30
0.0
  0
SPLINE
  5
1a2
100
AcDbEntity
  8
0
 62
7
100
AcDbSpline
 70
8
 71
3
 72
8
 73
4
 74
0
 40
0
 40
0
 40
0
 40
0
 40
1
 40
1
 40
1
 40
1
 10
139.602986
 20
173.877122
 30
0.0
 10
137.280283
 20
173.685942
 30
0.0
 10
136.538197
 20
173.468872
 30
0.0
 10
135.263819
 20
172.624761
 30
0.0
  0
SPLINE
  5
1a3
100
AcDbEntity
  8
0
 62
7
100
AcDbSpline
 70
8
 71
3
 72
8
 73
4
 74
0
 40
0
 40
0
 40
0
 40
0
 40
1
 40
1
 40
1
 40
1
 10
135.263819
 20
172.624761
 30
0.0
 10
134.417929
 20
172.064463
 30
0.0
 10
133.488156
 20
171.247635
 30
0.0
 10
133.200069
 20
170.807956
 30
0.0
  0
SPLINE
  5
1a4
100
AcDbEntity
  8
0
 62
7
100
AcDbSpline
 70
8
 71
3
 72
8
 73
4
 74
0
 40
0
 40
0
 40
0
 40
0
 40
1
 40
1
 40
1
 40
1
 10
133.200069
 20
170.807956
 30
0.0
 10
132.591375
 20
169.878976
 30
0.0
 10
132.812251
 20
169.417021
 30
0.0
 10
134.919861
 20
167.218442
 30
0.0
  0
SPLINE
  5
1a5
100
AcDbEntity
  8
0
 62
7
100
AcDbSpline
 70
8
 71
3
 72
8
 73
4
 74
0
 40
0
 40
0
 40
0
 40
0
 40
1
 40
1
 40
1
 40
1
 10
134.919861
 20
167.218442
 30
0.0
 10
135.589871
 20
166.519507
 30
0.0
 10
136.136944
 20
165.845374
 30
0.0
 10
136.136944
 20
165.727956
 30
0.0
  0
SPLINE
  5
1a6
100
AcDbEntity
  8
0
 62
7
100
AcDbSpline
 70
8
 71
3
 72
8
 73
4
 74
0
 40
0
 40
0
 40
0
 40
0
 40
1
 40
1
 40
1
 40
1
 10
136.136944
 20
165.727956
 30
0.0
 10
136.136944
 20
165.610532
 30
0.0
 10
136.461692
 20
165.245677
 30
0.0
 10
136.851319
 20
164.907747
 30
0.0
  0
SPLINE
  5
1a7
100
AcDbEntity
  8
0
 62
7
100
AcDbSpline
 70
8
 71
3
 72
8
 73
4
 74
0
 40
0
 40
0
 40
0
 40
0
 40
1
 40
1
 40
1
 40
1
 10
136.851319
 20
164.907747
 30
0.0
 10
137.240955
 20
164.569817
 30
0.0
 10
137.466736
 20
164.149800
 30
0.0
 10
137.362847
 20
163.981706
 30
0.0
  0
SPLINE
  5
1a8
100
AcDbEntity
  8
0
 62
7
100
AcDbSpline
 70
8
 71
3
 72
8
 73
4
 74
0
 40
0
 40
0
 40
0
 40
0
 40
1
 40
1
 40
1
 40
1
 10
137.362847
 20
163.981706
 30
0.0
 10
137.258958
 20
163.813609
 30
0.0
 10
135.456391
 20
163.670076
 30
0.0
 10
133.350000
 20
163.664206
 30
0.0
  0
SPLINE
  5
1a9
100
AcDbEntity
  8
0
 62
7
100
AcDbSpline
 70
8
 71
3
 72
8
 73
4
 74
0
 40
0
 40
0
 40
0
 40
0
 40
1
 40
1
 40
1
 40
1
 10
133.350000
 20
163.664206
 30
0.0
 10
129.996153
 20
163.654890
 30
0.0
 10
129.100447
 20
163.520634
 30
0.0
 10
126.162153
 20
162.579414
 30
0.0
  0
SPLINE
  5
1aa
100
AcDbEntity
  8
0
 62
7
100
AcDbSpline
 70
8
 71
3
 72
8
 73
4
 74
0
 40
0
 40
0
 40
0
 40
0
 40
1
 40
1
 40
1
 40
1
 10
126.162153
 20
162.579414
 30
0.0
 10
123.053712
 20
161.583689
 30
0.0
 10
118.258666
 20
159.288728
 30
0.0
 10
116.081528
 20
157.755178
 30
0.0
  0
LWPOLYLINE
  5
1ab
100
AcDbEntity
  8
0
 62
7
100
AcDbPolyline
 90
3
 70
0
 10
165.435139
 20
0.001775
 30
0.0
 10
207.530347
 20
0.001775
 30
0.0
 10
207.256944
 20
1.174761
 30
0.0
  0
SPLINE
  5
1ac
100
AcDbEntity
  8
0
 62
7
100
AcDbSpline
 70
8
 71
3
 72
8
 73
4
 74
0
 40
0
 40
0
 40
0
 40
0
 40
1
 40
1
 40
1
 40
1
 10
114.141250
 20
158.222609
 30
0.0
 10
113.582588
 20
158.836868
 30
0.0
 10
113.123641
 20
159.511887
 30
0.0
 10
113.118194
 20
159.721914
 30
0.0
  0
SPLINE
  5
1ad
100
AcDbEntity
  8
0
 62
7
100
AcDbSpline
 70
8
 71
3
 72
8
 73
4
 74
0
 40
0
 40
0
 40
0
 40
0
 40
1
 40
1
 40
1
 40
1
 10
113.118194
 20
159.721914
 30
0.0
 10
113.112733
 20
159.931938
 30
0.0
 10
112.900505
 20
160.283440
 30
0.0
 10
112.641944
 20
160.498025
 30
0.0
  0
SPLINE
  5
1ae
100
AcDbEntity
  8
0
 62
7
100
AcDbSpline
 70
8
 71
3
 72
8
 73
4
 74
0
 40
0
 40
0
 40
0
 40
0
 40
1
 40
1
 40
1
 40
1
 10
112.641944
 20
160.498025
 30
0.0
 10
112.057361
 20
160.983185
 30
0.0
 10
108.029375
 20
169.030610
 30
0.0
 10
108.029375
 20
169.714345
 30
0.0
  0
SPLINE
  5
1af
100
AcDbEntity
  8
0
 62
7
100
AcDbSpline
 70
8
 71
3
 72
8
 73
4
 74
0
 40
0
 40
0
 40
0
 40
0
 40
1
 40
1
 40
1
 40
1
 10
108.029375
 20
169.714345
 30
0.0
 10
108.029375
 20
169.989161
 30
0.0
 10
107.898582
 20
170.357600
 30
0.0
 10
107.738333
 20
170.534553
 30
0.0
  0
SPLINE
  5
1b0
100
AcDbEntity
  8
0
 62
7
100
AcDbSpline
 70
8
 71
3
 72
8
 73
4
 74
0
 40
0
 40
0
 40
0
 40
0
 40
1
 40
1
 40
1
 40
1
 10
107.738333
 20
170.534553
 30
0.0
 10
107.578085
 20
170.711506
 30
0.0
 10
107.178435
 20
171.697309
 30
0.0
 10
106.847569
 20
172.721775
 30
0.0
  0
SPLINE
  5
1b1
100
AcDbEntity
  8
0
 62
7
100
AcDbSpline
 70
8
 71
3
 72
8
 73
4
 74
0
 40
0
 40
0
 40
0
 40
0
 40
1
 40
1
 40
1
 40
1
 10
106.847569
 20
172.721775
 30
0.0
 10
106.516701
 20
173.746242
 30
0.0
 10
106.116416
 20
174.889242
 30
0.0
 10
105.965625
 20
175.261775
 30
0.0
  0
SPLINE
  5
1b2
100
AcDbEntity
  8
0
 62
7
100
AcDbSpline
 70
8
 71
3
 72
8
 73
4
 74
0
 40
0
 40
0
 40
0
 40
0
 40
1
 40
1
 40
1
 40
1
 10
105.965625
 20
175.261775
 30
0.0
 10
105.814834
 20
175.634309
 30
0.0
 10
105.469041
 20
176.777309
 30
0.0
 10
105.189514
 20
177.801775
 30
0.0
  0
SPLINE
  5
1b3
100
AcDbEntity
  8
0
 62
7
100
AcDbSpline
 70
8
 71
3
 72
8
 73
4
 74
0
 40
0
 40
0
 40
0
 40
0
 40
1
 40
1
 40
1
 40
1
 10
105.189514
 20
177.801775
 30
0.0
 10
103.408446
 20
184.329423
 30
0.0
 10
102.946256
 20
186.258779
 30
0.0
 10
102.922917
 20
187.300317
 30
0.0
  0
SPLINE
  5
1b4
100
AcDbEntity
  8
0
 62
7
100
AcDbSpline
 70
8
 71
3
 72
8
 73
4
 74
0
 40
0
 40
0
 40
0
 40
0
 40
1
 40
1
 40
1
 40
1
 10
102.922917
 20
187.300317
 30
0.0
 10
102.889705
 20
188.782799
 30
0.0
 10
101.737513
 20
192.046358
 30
0.0
 10
101.494167
 20
191.348442
 30
0.0
  0
SPLINE
  5
1b5
100
AcDbEntity
  8
0
 62
7
100
AcDbSpline
 70
8
 71
3
 72
8
 73
4
 74
0
 40
0
 40
0
 40
0
 40
0
 40
1
 40
1
 40
1
 40
1
 10
101.494167
 20
191.348442
 30
0.0
 10
100.342835
 20
188.046436
 30
0.0
 10
100.382987
 20
179.952833
 30
0.0
 10
101.573542
 20
174.071150
 30
0.0
  0
SPLINE
  5
1b6
100
AcDbEntity
  8
0
 62
7
100
AcDbSpline
 70
8
 71
3
 72
8
 73
4
 74
0
 40
0
 40
0
 40
0
 40
0
 40
1
 40
1
 40
1
 40
1
 10
101.573542
 20
174.071150
 30
0.0
 10
102.661525
 20
168.696191
 30
0.0
 10
104.687714
 20
162.421861
 30
0.0
 10
106.168472
 20
159.854206
 30
0.0
  0
SPLINE
  5
1b7
100
AcDbEntity
  8
0
 62
7
100
AcDbSpline
 70
8
 71
3
 72
8
 73
4
 74
0
 40
0
 40
0
 40
0
 40
0
 40
1
 40
1
 40
1
 40
1
 10
106.168472
 20
159.854206
 30
0.0
 10
106.437018
 20
159.388539
 30
0.0
 10
106.945594
 20
158.388231
 30
0.0
 10
107.297361
 20
157.640525
 30
0.0
  0
SPLINE
  5
1b8
100
AcDbEntity
  8
0
 62
7
100
AcDbSpline
 70
8
 71
3
 72
8
 73
4
 74
0
 40
0
 40
0
 40
0
 40
0
 40
1
 40
1
 40
1
 40
1
 10
107.297361
 20
157.640525
 30
0.0
 10
107.649134
 20
156.892820
 30
0.0
 10
108.183138
 20
156.076723
 30
0.0
 10
108.487986
 20
155.823720
 30
0.0
  0
SPLINE
  5
1b9
100
AcDbEntity
  8
0
 62
7
100
AcDbSpline
 70
8
 71
3
 72
8
 73
4
 74
0
 40
0
 40
0
 40
0
 40
0
 40
1
 40
1
 40
1
 40
1
 10
108.487986
 20
155.823720
 30
0.0
 10
108.792837
 20
155.570719
 30
0.0
 10
109.043611
 20
155.175560
 30
0.0
 10
109.043611
 20
154.941775
 30
0.0
  0
SPLINE
  5
1ba
100
AcDbEntity
  8
0
 62
7
100
AcDbSpline
 70
8
 71
3
 72
8
 73
4
 74
0
 40
0
 40
0
 40
0
 40
0
 40
1
 40
1
 40
1
 40
1
 10
109.043611
 20
154.941775
 30
0.0
 10
109.043611
 20
154.707991
 30
0.0
 10
109.275739
 20
154.326991
 30
0.0
 10
109.555139
 20
154.095109
 30
0.0
  0
SPLINE
  5
1bb
100
AcDbEntity
  8
0
 62
7
100
AcDbSpline
 70
8
 71
3
 72
8
 73
4
 74
0
 40
0
 40
0
 40
0
 40
0
 40
1
 40
1
 40
1
 40
1
 10
109.555139
 20
154.095109
 30
0.0
 10
110.350170
 20
153.435296
 30
0.0
 10
110.160342
 20
152.420447
 30
0.0
 10
108.955417
 20
150.911289
 30
0.0
  0
SPLINE
  5
1bc
100
AcDbEntity
  8
0
 62
7
100
AcDbSpline
 70
8
 71
3
 72
8
 73
4
 74
0
 40
0
 40
0
 40
0
 40
0
 40
1
 40
1
 40
1
 40
1
 10
108.955417
 20
150.911289
 30
0.0
 10
108.345235
 20
150.147040
 30
0.0
 10
107.389876
 20
148.839072
 30
0.0
 10
106.838750
 20
148.000872
 30
0.0
  0
SPLINE
  5
1bd
100
AcDbEntity
  8
0
 62
7
100
AcDbSpline
 70
8
 71
3
 72
8
 73
4
 74
0
 40
0
 40
0
 40
0
 40
0
 40
1
 40
1
 40
1
 40
1
 10
106.838750
 20
148.000872
 30
0.0
 10
103.644217
 20
143.142332
 30
0.0
 10
103.044605
 20
141.539945
 30
0.0
 10
102.561319
 20
136.667886
 30
0.0
  0
SPLINE
  5
1be
100
AcDbEntity
  8
0
 62
7
100
AcDbSpline
 70
8
 71
3
 72
8
 73
4
 74
0
 40
0
 40
0
 40
0
 40
0
 40
1
 40
1
 40
1
 40
1
 10
102.561319
 20
136.667886
 30
0.0
 10
102.012059
 20
131.130788
 30
0.0
 10
102.375984
 20
129.719578
 30
0.0
 10
104.775000
 20
128.104206
 30
0.0
  0
SPLINE
  5
1bf
100
AcDbEntity
  8
0
 62
7
100
AcDbSpline
 70
8
 71
3
 72
8
 73
4
 74
0
 40
0
 40
0
 40
0
 40
0
 40
1
 40
1
 40
1
 40
1
 10
104.775000
 20
128.104206
 30
0.0
 10
105.672574
 20
127.499832
 30
0.0
 10
106.848543
 20
126.431269
 30
0.0
 10
107.385556
 20
125.731775
 30
0.0
  0
SPLINE
  5
1c0
100
AcDbEntity
  8
0
 62
7
100
AcDbSpline
 70
8
 71
3
 72
8
 73
4
 74
0
 40
0
 40
0
 40
0
 40
0
 40
1
 40
1
 40
1
 40
1
 10
107.385556
 20
125.731775
 30
0.0
 10
107.922565
 20
125.032287
 30
0.0
 10
108.522197
 20
124.270482
 30
0.0
 10
108.717292
 20
124.038442
 30
0.0
  0
SPLINE
  5
1c1
100
AcDbEntity
  8
0
 62
7
100
AcDbSpline
 70
8
 71
3
 72
8
 73
4
 74
0
 40
0
 40
0
 40
0
 40
0
 40
1
 40
1
 40
1
 40
1
 10
108.717292
 20
124.038442
 30
0.0
 10
108.920971
 20
123.796188
 30
0.0
 10
109.203992
 20
120.191135
 30
0.0
 10
109.387569
 20
115.571775
 30
0.0
  0
SPLINE
  5
1c2
100
AcDbEntity
  8
0
 62
7
100
AcDbSpline
 70
8
 71
3
 72
8
 73
4
 74
0
 40
0
 40
0
 40
0
 40
0
 40
1
 40
1
 40
1
 40
1
 10
109.387569
 20
115.571775
 30
0.0
 10
109.973031
 20
100.839803
 30
0.0
 10
110.755831
 20
91.660534
 30
0.0
 10
111.760000
 20
87.631775
 30
0.0
  0
SPLINE
  5
1c3
100
AcDbEntity
  8
0
 62
7
100
AcDbSpline
 70
8
 71
3
 72
8
 73
4
 74
0
 40
0
 40
0
 40
0
 40
0
 40
1
 40
1
 40
1
 40
1
 10
111.760000
 20
87.631775
 30
0.0
 10
112.143052
 20
86.094971
 30
0.0
 10
112.546725
 20
83.693011
 30
0.0
 10
112.659583
 20
82.296011
 30
0.0
  0
SPLINE
  5
1c4
100
AcDbEntity
  8
0
 62
7
100
AcDbSpline
 70
8
 71
3
 72
8
 73
4
 74
0
 40
0
 40
0
 40
0
 40
0
 40
1
 40
1
 40
1
 40
1
 10
112.659583
 20
82.296011
 30
0.0
 10
112.772438
 20
80.899011
 30
0.0
 10
113.008475
 20
79.577373
 30
0.0
 10
113.179931
 20
79.359136
 30
0.0
  0
SPLINE
  5
1c5
100
AcDbEntity
  8
0
 62
7
100
AcDbSpline
 70
8
 71
3
 72
8
 73
4
 74
0
 40
0
 40
0
 40
0
 40
0
 40
1
 40
1
 40
1
 40
1
 10
113.179931
 20
79.359136
 30
0.0
 10
113.371336
 20
79.115519
 30
0.0
 10
113.360781
 20
78.725068
 30
0.0
 10
113.153472
 20
78.344900
 30
0.0
  0
SPLINE
  5
1c6
100
AcDbEntity
  8
0
 62
7
100
AcDbSpline
 70
8
 71
3
 72
8
 73
4
 74
0
 40
0
 40
0
 40
0
 40
0
 40
1
 40
1
 40
1
 40
1
 10
113.153472
 20
78.344900
 30
0.0
 10
112.967764
 20
78.004337
 30
0.0
 10
112.723419
 20
77.304911
 30
0.0
 10
112.615486
 20
76.792678
 30
0.0
  0
SPLINE
  5
1c7
100
AcDbEntity
  8
0
 62
7
100
AcDbSpline
 70
8
 71
3
 72
8
 73
4
 74
0
 40
0
 40
0
 40
0
 40
0
 40
1
 40
1
 40
1
 40
1
 10
112.615486
 20
76.792678
 30
0.0
 10
112.507553
 20
76.280445
 30
0.0
 10
112.297695
 20
75.857817
 30
0.0
 10
112.148056
 20
75.857817
 30
0.0
  0
SPLINE
  5
1c8
100
AcDbEntity
  8
0
 62
7
100
AcDbSpline
 70
8
 71
3
 72
8
 73
4
 74
0
 40
0
 40
0
 40
0
 40
0
 40
1
 40
1
 40
1
 40
1
 10
112.148056
 20
75.857817
 30
0.0
 10
111.808254
 20
75.857817
 30
0.0
 10
108.877667
 20
77.494105
 30
0.0
 10
106.045000
 20
79.262122
 30
0.0
  0
SPLINE
  5
1c9
100
AcDbEntity
  8
0
 62
7
100
AcDbSpline
 70
8
 71
3
 72
8
 73
4
 74
0
 40
0
 40
0
 40
0
 40
0
 40
1
 40
1
 40
1
 40
1
 10
106.045000
 20
79.262122
 30
0.0
 10
104.862130
 20
80.000410
 30
0.0
 10
103.782046
 20
80.602678
 30
0.0
 10
103.637292
 20
80.602678
 30
0.0
  0
SPLINE
  5
1ca
100
AcDbEntity
  8
0
 62
7
100
AcDbSpline
 70
8
 71
3
 72
8
 73
4
 74
0
 40
0
 40
0
 40
0
 40
0
 40
1
 40
1
 40
1
 40
1
 10
103.637292
 20
80.602678
 30
0.0
 10
103.492534
 20
80.602678
 30
0.0
 10
103.189648
 20
80.819487
 30
0.0
 10
102.967014
 20
81.087747
 30
0.0
  0
SPLINE
  5
1cb
100
AcDbEntity
  8
0
 62
7
100
AcDbSpline
 70
8
 71
3
 72
8
 73
4
 74
0
 40
0
 40
0
 40
0
 40
0
 40
1
 40
1
 40
1
 40
1
 10
102.967014
 20
81.087747
 30
0.0
 10
102.744377
 20
81.356008
 30
0.0
 10
101.513124
 20
81.987794
 30
0.0
 10
100.232986
 20
82.490039
 30
0.0
  0
SPLINE
  5
1cc
100
AcDbEntity
  8
0
 62
7
100
AcDbSpline
 70
8
 71
3
 72
8
 73
4
 74
0
 40
0
 40
0
 40
0
 40
0
 40
1
 40
1
 40
1
 40
1
 10
100.232986
 20
82.490039
 30
0.0
 10
98.952849
 20
82.992287
 30
0.0
 10
97.800448
 20
83.653543
 30
0.0
 10
97.675347
 20
83.954067
 30
0.0
  0
SPLINE
  5
1cd
100
AcDbEntity
  8
0
 62
7
100
AcDbSpline
 70
8
 71
3
 72
8
 73
4
 74
0
 40
0
 40
0
 40
0
 40
0
 40
1
 40
1
 40
1
 40
1
 10
97.675347
 20
83.954067
 30
0.0
 10
97.550249
 20
84.254597
 30
0.0
 10
97.343172
 20
86.480309
 30
0.0
 10
97.207917
 20
88.901775
 30
0.0
  0
SPLINE
  5
1ce
100
AcDbEntity
  8
0
 62
7
100
AcDbSpline
 70
8
 71
3
 72
8
 73
4
 74
0
 40
0
 40
0
 40
0
 40
0
 40
1
 40
1
 40
1
 40
1
 10
97.207917
 20
88.901775
 30
0.0
 10
97.072667
 20
91.323242
 30
0.0
 10
96.779580
 20
93.730818
 30
0.0
 10
96.564097
 20
94.255178
 30
0.0
  0
SPLINE
  5
1cf
100
AcDbEntity
  8
0
 62
7
100
AcDbSpline
 70
8
 71
3
 72
8
 73
4
 74
0
 40
0
 40
0
 40
0
 40
0
 40
1
 40
1
 40
1
 40
1
 10
96.564097
 20
94.255178
 30
0.0
 10
96.348615
 20
94.779536
 30
0.0
 10
96.176042
 20
95.882720
 30
0.0
 10
96.176042
 20
96.706984
 30
0.0
  0
SPLINE
  5
1d0
100
AcDbEntity
  8
0
 62
7
100
AcDbSpline
 70
8
 71
3
 72
8
 73
4
 74
0
 40
0
 40
0
 40
0
 40
0
 40
1
 40
1
 40
1
 40
1
 10
96.176042
 20
96.706984
 30
0.0
 10
96.176042
 20
98.102259
 30
0.0
 10
96.068591
 20
98.290276
 30
0.0
 10
94.570903
 20
99.396914
 30
0.0
  0
SPLINE
  5
1d1
100
AcDbEntity
  8
0
 62
7
100
AcDbSpline
 70
8
 71
3
 72
8
 73
4
 74
0
 40
0
 40
0
 40
0
 40
0
 40
1
 40
1
 40
1
 40
1
 10
94.570903
 20
99.396914
 30
0.0
 10
92.495610
 20
100.930340
 30
0.0
 10
91.757071
 20
101.099558
 30
0.0
 10
89.508542
 20
100.596359
 30
0.0
  0
SPLINE
  5
1d2
100
AcDbEntity
  8
0
 62
7
100
AcDbSpline
 70
8
 71
3
 72
8
 73
4
 74
0
 40
0
 40
0
 40
0
 40
0
 40
1
 40
1
 40
1
 40
1
 10
89.508542
 20
100.596359
 30
0.0
 10
87.297048
 20
100.101451
 30
0.0
 10
85.832620
 20
99.363073
 30
0.0
 10
84.798958
 20
98.215109
 30
0.0
  0
SPLINE
  5
1d3
100
AcDbEntity
  8
0
 62
7
100
AcDbSpline
 70
8
 71
3
 72
8
 73
4
 74
0
 40
0
 40
0
 40
0
 40
0
 40
1
 40
1
 40
1
 40
1
 10
84.798958
 20
98.215109
 30
0.0
 10
83.945674
 20
97.267466
 30
0.0
 10
83.532571
 20
94.808898
 30
0.0
 10
83.070347
 20
87.913997
 30
0.0
  0
LWPOLYLINE
  5
1d4
100
AcDbEntity
  8
0
 62
7
100
AcDbPolyline
 90
3
 70
0
 10
116.081528
 20
157.755178
 30
0.0
 10
115.164306
 20
157.111359
 30
0.0
 10
114.141250
 20
158.222609
 30
0.0
  0
SPLINE
  5
1d5
100
AcDbEntity
  8
0
 62
7
100
AcDbSpline
 70
8
 71
3
 72
8
 73
4
 74
0
 40
0
 40
0
 40
0
 40
0
 40
1
 40
1
 40
1
 40
1
 10
80.680278
 20
82.983928
 30
0.0
 10
79.516712
 20
82.491323
 30
0.0
 10
78.118874
 20
81.751517
 30
0.0
 10
77.567014
 20
81.343511
 30
0.0
  0
SPLINE
  5
1d6
100
AcDbEntity
  8
0
 62
7
100
AcDbSpline
 70
8
 71
3
 72
8
 73
4
 74
0
 40
0
 40
0
 40
0
 40
0
 40
1
 40
1
 40
1
 40
1
 10
77.567014
 20
81.343511
 30
0.0
 10
77.015157
 20
80.935505
 30
0.0
 10
76.415784
 20
80.602678
 30
0.0
 10
76.235278
 20
80.602678
 30
0.0
  0
SPLINE
  5
1d7
100
AcDbEntity
  8
0
 62
7
100
AcDbSpline
 70
8
 71
3
 72
8
 73
4
 74
0
 40
0
 40
0
 40
0
 40
0
 40
1
 40
1
 40
1
 40
1
 10
76.235278
 20
80.602678
 30
0.0
 10
76.054777
 20
80.602678
 30
0.0
 10
75.690521
 20
80.393063
 30
0.0
 10
75.432708
 20
80.135247
 30
0.0
  0
SPLINE
  5
1d8
100
AcDbEntity
  8
0
 62
7
100
AcDbSpline
 70
8
 71
3
 72
8
 73
4
 74
0
 40
0
 40
0
 40
0
 40
0
 40
1
 40
1
 40
1
 40
1
 10
75.432708
 20
80.135247
 30
0.0
 10
75.174896
 20
79.877432
 30
0.0
 10
74.292497
 20
79.319665
 30
0.0
 10
73.465972
 20
78.900525
 30
0.0
  0
SPLINE
  5
1d9
100
AcDbEntity
  8
0
 62
7
100
AcDbSpline
 70
8
 71
3
 72
8
 73
4
 74
0
 40
0
 40
0
 40
0
 40
0
 40
1
 40
1
 40
1
 40
1
 10
73.465972
 20
78.900525
 30
0.0
 10
72.639451
 20
78.481386
 30
0.0
 10
71.883411
 20
78.036908
 30
0.0
 10
71.790278
 20
77.912747
 30
0.0
  0
SPLINE
  5
1da
100
AcDbEntity
  8
0
 62
7
100
AcDbSpline
 70
8
 71
3
 72
8
 73
4
 74
0
 40
0
 40
0
 40
0
 40
0
 40
1
 40
1
 40
1
 40
1
 10
71.790278
 20
77.912747
 30
0.0
 10
71.391413
 20
77.380981
 30
0.0
 10
68.001487
 20
75.856784
 30
0.0
 10
67.671597
 20
76.060664
 30
0.0
  0
SPLINE
  5
1db
100
AcDbEntity
  8
0
 62
7
100
AcDbSpline
 70
8
 71
3
 72
8
 73
4
 74
0
 40
0
 40
0
 40
0
 40
0
 40
1
 40
1
 40
1
 40
1
 10
67.671597
 20
76.060664
 30
0.0
 10
67.448323
 20
76.198659
 30
0.0
 10
67.385455
 20
76.948335
 30
0.0
 10
67.504028
 20
78.018581
 30
0.0
  0
SPLINE
  5
1dc
100
AcDbEntity
  8
0
 62
7
100
AcDbSpline
 70
8
 71
3
 72
8
 73
4
 74
0
 40
0
 40
0
 40
0
 40
0
 40
1
 40
1
 40
1
 40
1
 10
67.504028
 20
78.018581
 30
0.0
 10
67.609726
 20
78.972613
 30
0.0
 10
67.613234
 20
79.565511
 30
0.0
 10
67.512847
 20
79.332678
 30
0.0
  0
SPLINE
  5
1dd
100
AcDbEntity
  8
0
 62
7
100
AcDbSpline
 70
8
 71
3
 72
8
 73
4
 74
0
 40
0
 40
0
 40
0
 40
0
 40
1
 40
1
 40
1
 40
1
 10
67.512847
 20
79.332678
 30
0.0
 10
67.261077
 20
78.748743
 30
0.0
 10
66.825616
 20
78.802021
 30
0.0
 10
66.577986
 20
79.447331
 30
0.0
  0
SPLINE
  5
1de
100
AcDbEntity
  8
0
 62
7
100
AcDbSpline
 70
8
 71
3
 72
8
 73
4
 74
0
 40
0
 40
0
 40
0
 40
0
 40
1
 40
1
 40
1
 40
1
 10
66.577986
 20
79.447331
 30
0.0
 10
66.295919
 20
80.182379
 30
0.0
 10
66.713425
 20
80.808167
 30
0.0
 10
67.089514
 20
80.214622
 30
0.0
  0
SPLINE
  5
1df
100
AcDbEntity
  8
0
 62
7
100
AcDbSpline
 70
8
 71
3
 72
8
 73
4
 74
0
 40
0
 40
0
 40
0
 40
0
 40
1
 40
1
 40
1
 40
1
 10
67.089514
 20
80.214622
 30
0.0
 10
67.269318
 20
79.930854
 30
0.0
 10
67.378862
 20
80.601377
 30
0.0
 10
67.380556
 20
81.960872
 30
0.0
  0
SPLINE
  5
1e0
100
AcDbEntity
  8
0
 62
7
100
AcDbSpline
 70
8
 71
3
 72
8
 73
4
 74
0
 40
0
 40
0
 40
0
 40
0
 40
1
 40
1
 40
1
 40
1
 10
67.380556
 20
81.960872
 30
0.0
 10
67.381984
 20
83.171606
 30
0.0
 10
67.754669
 20
85.680914
 30
0.0
 10
68.209583
 20
87.543581
 30
0.0
  0
SPLINE
  5
1e1
100
AcDbEntity
  8
0
 62
7
100
AcDbSpline
 70
8
 71
3
 72
8
 73
4
 74
0
 40
0
 40
0
 40
0
 40
0
 40
1
 40
1
 40
1
 40
1
 10
68.209583
 20
87.543581
 30
0.0
 10
69.704980
 20
93.666558
 30
0.0
 10
70.801461
 20
105.725392
 30
0.0
 10
70.899514
 20
117.185734
 30
0.0
  0
SPLINE
  5
1e2
100
AcDbEntity
  8
0
 62
7
100
AcDbSpline
 70
8
 71
3
 72
8
 73
4
 74
0
 40
0
 40
0
 40
0
 40
0
 40
1
 40
1
 40
1
 40
1
 10
70.899514
 20
117.185734
 30
0.0
 10
70.944452
 20
122.438010
 30
0.0
 10
70.995721
 20
122.838021
 30
0.0
 10
71.710903
 20
123.747400
 30
0.0
  0
SPLINE
  5
1e3
100
AcDbEntity
  8
0
 62
7
100
AcDbSpline
 70
8
 71
3
 72
8
 73
4
 74
0
 40
0
 40
0
 40
0
 40
0
 40
1
 40
1
 40
1
 40
1
 10
71.710903
 20
123.747400
 30
0.0
 10
72.130003
 20
124.280303
 30
0.0
 10
72.469375
 20
124.930690
 30
0.0
 10
72.469375
 20
125.184970
 30
0.0
  0
SPLINE
  5
1e4
100
AcDbEntity
  8
0
 62
7
100
AcDbSpline
 70
8
 71
3
 72
8
 73
4
 74
0
 40
0
 40
0
 40
0
 40
0
 40
1
 40
1
 40
1
 40
1
 10
72.469375
 20
125.184970
 30
0.0
 10
72.469375
 20
125.439252
 30
0.0
 10
72.615724
 20
125.643581
 30
0.0
 10
72.795694
 20
125.643581
 30
0.0
  0
SPLINE
  5
1e5
100
AcDbEntity
  8
0
 62
7
100
AcDbSpline
 70
8
 71
3
 72
8
 73
4
 74
0
 40
0
 40
0
 40
0
 40
0
 40
1
 40
1
 40
1
 40
1
 10
72.795694
 20
125.643581
 30
0.0
 10
73.470891
 20
125.643581
 30
0.0
 10
75.856042
 20
128.172518
 30
0.0
 10
75.856042
 20
128.889136
 30
0.0
  0
SPLINE
  5
1e6
100
AcDbEntity
  8
0
 62
7
100
AcDbSpline
 70
8
 71
3
 72
8
 73
4
 74
0
 40
0
 40
0
 40
0
 40
0
 40
1
 40
1
 40
1
 40
1
 10
75.856042
 20
128.889136
 30
0.0
 10
75.856042
 20
129.293394
 30
0.0
 10
76.263748
 20
130.520801
 30
0.0
 10
76.764444
 20
131.614345
 30
0.0
  0
SPLINE
  5
1e7
100
AcDbEntity
  8
0
 62
7
100
AcDbSpline
 70
8
 71
3
 72
8
 73
4
 74
0
 40
0
 40
0
 40
0
 40
0
 40
1
 40
1
 40
1
 40
1
 10
76.764444
 20
131.614345
 30
0.0
 10
77.583769
 20
133.403792
 30
0.0
 10
77.676319
 20
133.973886
 30
0.0
 10
77.655208
 20
137.329345
 30
0.0
  0
SPLINE
  5
1e8
100
AcDbEntity
  8
0
 62
7
100
AcDbSpline
 70
8
 71
3
 72
8
 73
4
 74
0
 40
0
 40
0
 40
0
 40
0
 40
1
 40
1
 40
1
 40
1
 10
77.655208
 20
137.329345
 30
0.0
 10
77.633045
 20
140.855852
 30
0.0
 10
77.571236
 20
141.169161
 30
0.0
 10
76.543958
 20
143.088442
 30
0.0
  0
SPLINE
  5
1e9
100
AcDbEntity
  8
0
 62
7
100
AcDbSpline
 70
8
 71
3
 72
8
 73
4
 74
0
 40
0
 40
0
 40
0
 40
0
 40
1
 40
1
 40
1
 40
1
 10
76.543958
 20
143.088442
 30
0.0
 10
75.946632
 20
144.204433
 30
0.0
 10
74.939528
 20
145.804478
 30
0.0
 10
74.303819
 20
146.642678
 30
0.0
  0
SPLINE
  5
1ea
100
AcDbEntity
  8
0
 62
7
100
AcDbSpline
 70
8
 71
3
 72
8
 73
4
 74
0
 40
0
 40
0
 40
0
 40
0
 40
1
 40
1
 40
1
 40
1
 10
74.303819
 20
146.642678
 30
0.0
 10
73.668108
 20
147.480878
 30
0.0
 10
72.962838
 20
148.549442
 30
0.0
 10
72.733958
 20
149.015109
 30
0.0
  0
SPLINE
  5
1eb
100
AcDbEntity
  8
0
 62
7
100
AcDbSpline
 70
8
 71
3
 72
8
 73
4
 74
0
 40
0
 40
0
 40
0
 40
0
 40
1
 40
1
 40
1
 40
1
 10
72.733958
 20
149.015109
 30
0.0
 10
72.505079
 20
149.480775
 30
0.0
 10
72.233567
 20
149.936211
 30
0.0
 10
72.134236
 20
150.029345
 30
0.0
  0
SPLINE
  5
1ec
100
AcDbEntity
  8
0
 62
7
100
AcDbSpline
 70
8
 71
3
 72
8
 73
4
 74
0
 40
0
 40
0
 40
0
 40
0
 40
1
 40
1
 40
1
 40
1
 10
72.134236
 20
150.029345
 30
0.0
 10
72.034905
 20
150.122478
 30
0.0
 10
71.157440
 20
151.191042
 30
0.0
 10
70.185139
 20
152.401775
 30
0.0
  0
SPLINE
  5
1ed
100
AcDbEntity
  8
0
 62
7
100
AcDbSpline
 70
8
 71
3
 72
8
 73
4
 74
0
 40
0
 40
0
 40
0
 40
0
 40
1
 40
1
 40
1
 40
1
 10
70.185139
 20
152.401775
 30
0.0
 10
69.212833
 20
153.612509
 30
0.0
 10
67.876928
 20
155.030142
 30
0.0
 10
67.221806
 20
155.550317
 30
0.0
  0
SPLINE
  5
1ee
100
AcDbEntity
  8
0
 62
7
100
AcDbSpline
 70
8
 71
3
 72
8
 73
4
 74
0
 40
0
 40
0
 40
0
 40
0
 40
1
 40
1
 40
1
 40
1
 10
67.221806
 20
155.550317
 30
0.0
 10
65.298086
 20
157.077774
 30
0.0
 10
65.868615
 20
159.210138
 30
0.0
 10
68.315417
 20
159.668997
 30
0.0
  0
SPLINE
  5
1ef
100
AcDbEntity
  8
0
 62
7
100
AcDbSpline
 70
8
 71
3
 72
8
 73
4
 74
0
 40
0
 40
0
 40
0
 40
0
 40
1
 40
1
 40
1
 40
1
 10
68.315417
 20
159.668997
 30
0.0
 10
70.230966
 20
160.028230
 30
0.0
 10
74.546096
 20
161.496076
 30
0.0
 10
75.459167
 20
162.094345
 30
0.0
  0
SPLINE
  5
1f0
100
AcDbEntity
  8
0
 62
7
100
AcDbSpline
 70
8
 71
3
 72
8
 73
4
 74
0
 40
0
 40
0
 40
0
 40
0
 40
1
 40
1
 40
1
 40
1
 10
75.459167
 20
162.094345
 30
0.0
 10
76.500220
 20
162.776467
 30
0.0
 10
77.674704
 20
165.416024
 30
0.0
 10
77.408264
 20
166.477609
 30
0.0
  0
SPLINE
  5
1f1
100
AcDbEntity
  8
0
 62
7
100
AcDbSpline
 70
8
 71
3
 72
8
 73
4
 74
0
 40
0
 40
0
 40
0
 40
0
 40
1
 40
1
 40
1
 40
1
 10
77.408264
 20
166.477609
 30
0.0
 10
77.140209
 20
167.545611
 30
0.0
 10
75.367047
 20
169.528388
 30
0.0
 10
73.695278
 20
170.640386
 30
0.0
  0
SPLINE
  5
1f2
100
AcDbEntity
  8
0
 62
7
100
AcDbSpline
 70
8
 71
3
 72
8
 73
4
 74
0
 40
0
 40
0
 40
0
 40
0
 40
1
 40
1
 40
1
 40
1
 10
73.695278
 20
170.640386
 30
0.0
 10
69.903442
 20
173.162567
 30
0.0
 10
67.012521
 20
174.738501
 30
0.0
 10
64.223194
 20
175.782122
 30
0.0
  0
SPLINE
  5
1f3
100
AcDbEntity
  8
0
 62
7
100
AcDbSpline
 70
8
 71
3
 72
8
 73
4
 74
0
 40
0
 40
0
 40
0
 40
0
 40
1
 40
1
 40
1
 40
1
 10
64.223194
 20
175.782122
 30
0.0
 10
63.223546
 20
176.156137
 30
0.0
 10
62.137022
 20
176.749747
 30
0.0
 10
61.815486
 20
177.105039
 30
0.0
  0
SPLINE
  5
1f4
100
AcDbEntity
  8
0
 62
7
100
AcDbSpline
 70
8
 71
3
 72
8
 73
4
 74
0
 40
0
 40
0
 40
0
 40
0
 40
1
 40
1
 40
1
 40
1
 10
61.815486
 20
177.105039
 30
0.0
 10
61.254104
 20
177.725364
 30
0.0
 10
61.292001
 20
177.790633
 30
0.0
 10
62.670972
 20
178.789553
 30
0.0
  0
SPLINE
  5
1f5
100
AcDbEntity
  8
0
 62
7
100
AcDbSpline
 70
8
 71
3
 72
8
 73
4
 74
0
 40
0
 40
0
 40
0
 40
0
 40
1
 40
1
 40
1
 40
1
 10
62.670972
 20
178.789553
 30
0.0
 10
63.460788
 20
179.361691
 30
0.0
 10
64.348507
 20
179.829401
 30
0.0
 10
64.646528
 20
179.830247
 30
0.0
  0
SPLINE
  5
1f6
100
AcDbEntity
  8
0
 62
7
100
AcDbSpline
 70
8
 71
3
 72
8
 73
4
 74
0
 40
0
 40
0
 40
0
 40
0
 40
1
 40
1
 40
1
 40
1
 10
64.646528
 20
179.830247
 30
0.0
 10
64.944546
 20
179.831026
 30
0.0
 10
65.935053
 20
180.212026
 30
0.0
 10
66.851389
 20
180.676914
 30
0.0
  0
SPLINE
  5
1f7
100
AcDbEntity
  8
0
 62
7
100
AcDbSpline
 70
8
 71
3
 72
8
 73
4
 74
0
 40
0
 40
0
 40
0
 40
0
 40
1
 40
1
 40
1
 40
1
 10
66.851389
 20
180.676914
 30
0.0
 10
67.767722
 20
181.141802
 30
0.0
 10
68.731672
 20
181.523581
 30
0.0
 10
68.985694
 20
181.523581
 30
0.0
  0
SPLINE
  5
1f8
100
AcDbEntity
  8
0
 62
7
100
AcDbSpline
 70
8
 71
3
 72
8
 73
4
 74
0
 40
0
 40
0
 40
0
 40
0
 40
1
 40
1
 40
1
 40
1
 10
68.985694
 20
181.523581
 30
0.0
 10
69.239720
 20
181.523581
 30
0.0
 10
70.192231
 20
181.904581
 30
0.0
 10
71.111181
 20
182.370247
 30
0.0
  0
SPLINE
  5
1f9
100
AcDbEntity
  8
0
 62
7
100
AcDbSpline
 70
8
 71
3
 72
8
 73
4
 74
0
 40
0
 40
0
 40
0
 40
0
 40
1
 40
1
 40
1
 40
1
 10
71.111181
 20
182.370247
 30
0.0
 10
72.030130
 20
182.835914
 30
0.0
 10
72.953107
 20
183.216914
 30
0.0
 10
73.157292
 20
183.216914
 30
0.0
  0
SPLINE
  5
1fa
100
AcDbEntity
  8
0
 62
7
100
AcDbSpline
 70
8
 71
3
 72
8
 73
4
 74
0
 40
0
 40
0
 40
0
 40
0
 40
1
 40
1
 40
1
 40
1
 10
73.157292
 20
183.216914
 30
0.0
 10
73.361474
 20
183.216914
 30
0.0
 10
74.316601
 20
183.587616
 30
0.0
 10
75.282778
 20
184.037122
 30
0.0
  0
SPLINE
  5
1fb
100
AcDbEntity
  8
0
 62
7
100
AcDbSpline
 70
8
 71
3
 72
8
 73
4
 74
0
 40
0
 40
0
 40
0
 40
0
 40
1
 40
1
 40
1
 40
1
 10
75.282778
 20
184.037122
 30
0.0
 10
76.248954
 20
184.486629
 30
0.0
 10
78.106411
 20
185.336990
 30
0.0
 10
79.410278
 20
185.924484
 30
0.0
  0
SPLINE
  5
1fc
100
AcDbEntity
  8
0
 62
7
100
AcDbSpline
 70
8
 71
3
 72
8
 73
4
 74
0
 40
0
 40
0
 40
0
 40
0
 40
1
 40
1
 40
1
 40
1
 10
79.410278
 20
185.924484
 30
0.0
 10
81.237368
 20
186.747743
 30
0.0
 10
81.657709
 20
187.059581
 30
0.0
 10
81.244722
 20
187.291497
 30
0.0
  0
SPLINE
  5
1fd
100
AcDbEntity
  8
0
 62
7
100
AcDbSpline
 70
8
 71
3
 72
8
 73
4
 74
0
 40
0
 40
0
 40
0
 40
0
 40
1
 40
1
 40
1
 40
1
 10
81.244722
 20
187.291497
 30
0.0
 10
80.478797
 20
187.721610
 30
0.0
 10
75.428340
 20
187.125060
 30
0.0
 10
72.804514
 20
186.294900
 30
0.0
  0
SPLINE
  5
1fe
100
AcDbEntity
  8
0
 62
7
100
AcDbSpline
 70
8
 71
3
 72
8
 73
4
 74
0
 40
0
 40
0
 40
0
 40
0
 40
1
 40
1
 40
1
 40
1
 10
72.804514
 20
186.294900
 30
0.0
 10
71.593781
 20
185.911831
 30
0.0
 10
70.339410
 20
185.591602
 30
0.0
 10
70.017569
 20
185.589345
 30
0.0
  0
SPLINE
  5
1ff
100
AcDbEntity
  8
0
 62
7
100
AcDbSpline
 70
8
 71
3
 72
8
 73
4
 74
0
 40
0
 40
0
 40
0
 40
0
 40
1
 40
1
 40
1
 40
1
 10
70.017569
 20
185.589345
 30
0.0
 10
69.695732
 20
185.586943
 30
0.0
 10
68.635987
 20
185.223060
 30
0.0
 10
67.653958
 20
184.777956
 30
0.0
  0
SPLINE
  5
200
100
AcDbEntity
  8
0
 62
7
100
AcDbSpline
 70
8
 71
3
 72
8
 73
4
 74
0
 40
0
 40
0
 40
0
 40
0
 40
1
 40
1
 40
1
 40
1
 10
67.653958
 20
184.777956
 30
0.0
 10
63.235419
 20
182.775253
 30
0.0
 10
62.324003
 20
182.287119
 30
0.0
 10
61.295139
 20
181.356011
 30
0.0
  0
SPLINE
  5
201
100
AcDbEntity
  8
0
 62
7
100
AcDbSpline
 70
8
 71
3
 72
8
 73
4
 74
0
 40
0
 40
0
 40
0
 40
0
 40
1
 40
1
 40
1
 40
1
 10
61.295139
 20
181.356011
 30
0.0
 10
60.305349
 20
180.460266
 30
0.0
 10
60.079836
 20
180.977424
 30
0.0
 10
60.898264
 20
182.273234
 30
0.0
  0
SPLINE
  5
202
100
AcDbEntity
  8
0
 62
7
100
AcDbSpline
 70
8
 71
3
 72
8
 73
4
 74
0
 40
0
 40
0
 40
0
 40
0
 40
1
 40
1
 40
1
 40
1
 10
60.898264
 20
182.273234
 30
0.0
 10
61.286153
 20
182.887374
 30
0.0
 10
61.992408
 20
184.113675
 30
0.0
 10
62.468125
 20
184.998442
 30
0.0
  0
SPLINE
  5
203
100
AcDbEntity
  8
0
 62
7
100
AcDbSpline
 70
8
 71
3
 72
8
 73
4
 74
0
 40
0
 40
0
 40
0
 40
0
 40
1
 40
1
 40
1
 40
1
 10
62.468125
 20
184.998442
 30
0.0
 10
62.943844
 20
185.883209
 30
0.0
 10
63.449234
 20
186.603581
 30
0.0
 10
63.588194
 20
186.603581
 30
0.0
  0
SPLINE
  5
204
100
AcDbEntity
  8
0
 62
7
100
AcDbSpline
 70
8
 71
3
 72
8
 73
4
 74
0
 40
0
 40
0
 40
0
 40
0
 40
1
 40
1
 40
1
 40
1
 10
63.588194
 20
186.603581
 30
0.0
 10
63.727155
 20
186.603581
 30
0.0
 10
63.995229
 20
186.896135
 30
0.0
 10
64.179097
 20
187.247400
 30
0.0
  0
SPLINE
  5
205
100
AcDbEntity
  8
0
 62
7
100
AcDbSpline
 70
8
 71
3
 72
8
 73
4
 74
0
 40
0
 40
0
 40
0
 40
0
 40
1
 40
1
 40
1
 40
1
 10
64.179097
 20
187.247400
 30
0.0
 10
64.616615
 20
188.083238
 30
0.0
 10
67.782844
 20
192.741240
 30
0.0
 10
68.421250
 20
193.491567
 30
0.0
  0
SPLINE
  5
206
100
AcDbEntity
  8
0
 62
7
100
AcDbSpline
 70
8
 71
3
 72
8
 73
4
 74
0
 40
0
 40
0
 40
0
 40
0
 40
1
 40
1
 40
1
 40
1
 10
68.421250
 20
193.491567
 30
0.0
 10
68.694306
 20
193.812490
 30
0.0
 10
70.079915
 20
195.317446
 30
0.0
 10
71.508056
 20
196.834136
 30
0.0
  0
SPLINE
  5
207
100
AcDbEntity
  8
0
 62
7
100
AcDbSpline
 70
8
 71
3
 72
8
 73
4
 74
0
 40
0
 40
0
 40
0
 40
0
 40
1
 40
1
 40
1
 40
1
 10
71.508056
 20
196.834136
 30
0.0
 10
74.077960
 20
199.563392
 30
0.0
 10
74.871560
 20
201.049371
 30
0.0
 10
73.951042
 20
201.402609
 30
0.0
  0
SPLINE
  5
208
100
AcDbEntity
  8
0
 62
7
100
AcDbSpline
 70
8
 71
3
 72
8
 73
4
 74
0
 40
0
 40
0
 40
0
 40
0
 40
1
 40
1
 40
1
 40
1
 10
73.951042
 20
201.402609
 30
0.0
 10
73.934534
 20
201.408943
 30
0.0
 10
73.914903
 20
201.410391
 30
0.0
 10
73.889306
 20
201.411428
 30
0.0
  0
LWPOLYLINE
  5
209
100
AcDbEntity
  8
0
 62
7
100
AcDbPolyline
 90
3
 70
0
 10
83.070347
 20
87.913997
 30
0.0
 10
82.796944
 20
83.874692
 30
0.0
 10
80.680278
 20
82.983928
 30
0.0
  0
SPLINE
  5
20a
100
AcDbEntity
  8
0
 62
7
100
AcDbSpline
 70
8
 71
3
 72
8
 73
4
 74
0
 40
0
 40
0
 40
0
 40
0
 40
1
 40
1
 40
1
 40
1
 10
145.150417
 20
166.874484
 30
0.0
 10
145.460125
 20
166.958806
 30
0.0
 10
145.609050
 20
166.345681
 30
0.0
 10
145.582569
 20
165.040039
 30
0.0
  0
SPLINE
  5
20b
100
AcDbEntity
  8
0
 62
7
100
AcDbSpline
 70
8
 71
3
 72
8
 73
4
 74
0
 40
0
 40
0
 40
0
 40
0
 40
1
 40
1
 40
1
 40
1
 10
145.582569
 20
165.040039
 30
0.0
 10
145.560528
 20
163.953484
 30
0.0
 10
145.445666
 20
162.609047
 30
0.0
 10
145.326806
 20
162.050247
 30
0.0
  0
SPLINE
  5
20c
100
AcDbEntity
  8
0
 62
7
100
AcDbSpline
 70
8
 71
3
 72
8
 73
4
 74
0
 40
0
 40
0
 40
0
 40
0
 40
1
 40
1
 40
1
 40
1
 10
145.326806
 20
162.050247
 30
0.0
 10
145.064881
 20
160.818853
 30
0.0
 10
143.991807
 20
160.544106
 30
0.0
 10
143.139583
 20
161.485803
 30
0.0
  0
SPLINE
  5
20d
100
AcDbEntity
  8
0
 62
7
100
AcDbSpline
 70
8
 71
3
 72
8
 73
4
 74
0
 40
0
 40
0
 40
0
 40
0
 40
1
 40
1
 40
1
 40
1
 10
143.139583
 20
161.485803
 30
0.0
 10
142.621449
 20
162.058330
 30
0.0
 10
142.606595
 20
162.242407
 30
0.0
 10
143.024931
 20
163.108581
 30
0.0
  0
SPLINE
  5
20e
100
AcDbEntity
  8
0
 62
7
100
AcDbSpline
 70
8
 71
3
 72
8
 73
4
 74
0
 40
0
 40
0
 40
0
 40
0
 40
1
 40
1
 40
1
 40
1
 10
143.024931
 20
163.108581
 30
0.0
 10
143.284575
 20
163.646194
 30
0.0
 10
143.784560
 20
164.686784
 30
0.0
 10
144.136181
 20
165.419275
 30
0.0
  0
SPLINE
  5
20f
100
AcDbEntity
  8
0
 62
7
100
AcDbSpline
 70
8
 71
3
 72
8
 73
4
 74
0
 40
0
 40
0
 40
0
 40
0
 40
1
 40
1
 40
1
 40
1
 10
144.136181
 20
165.419275
 30
0.0
 10
144.572301
 20
166.327799
 30
0.0
 10
144.909532
 20
166.808898
 30
0.0
 10
145.150417
 20
166.874484
 30
0.0
  0
LWPOLYLINE
  5
210
100
AcDbEntity
  8
0
 62
7
100
AcDbPolyline
 90
2
 70
0
 10
73.889306
 20
201.411428
 30
0.0
 10
73.889306
 20
201.411428
 30
0.0
  0
SPLINE
  5
211
100
AcDbEntity
  8
0
 62
7
100
AcDbSpline
 70
8
 71
3
 72
8
 73
4
 74
0
 40
0
 40
0
 40
0
 40
0
 40
1
 40
1
 40
1
 40
1
 10
114.864444
 20
119.134831
 30
0.0
 10
115.083968
 20
119.061659
 30
0.0
 10
115.423340
 20
118.702528
 30
0.0
 10
115.622917
 20
118.341081
 30
0.0
  0
SPLINE
  5
212
100
AcDbEntity
  8
0
 62
7
100
AcDbSpline
 70
8
 71
3
 72
8
 73
4
 74
0
 40
0
 40
0
 40
0
 40
0
 40
1
 40
1
 40
1
 40
1
 10
115.622917
 20
118.341081
 30
0.0
 10
115.822490
 20
117.979633
 30
0.0
 10
116.813471
 20
116.722968
 30
0.0
 10
117.818958
 20
115.545317
 30
0.0
  0
SPLINE
  5
213
100
AcDbEntity
  8
0
 62
7
100
AcDbSpline
 70
8
 71
3
 72
8
 73
4
 74
0
 40
0
 40
0
 40
0
 40
0
 40
1
 40
1
 40
1
 40
1
 10
117.818958
 20
115.545317
 30
0.0
 10
119.798431
 20
113.226915
 30
0.0
 10
120.322910
 20
111.755685
 30
0.0
 10
120.764653
 20
107.272678
 30
0.0
  0
SPLINE
  5
214
100
AcDbEntity
  8
0
 62
7
100
AcDbSpline
 70
8
 71
3
 72
8
 73
4
 74
0
 40
0
 40
0
 40
0
 40
0
 40
1
 40
1
 40
1
 40
1
 10
120.764653
 20
107.272678
 30
0.0
 10
120.944406
 20
105.448473
 30
0.0
 10
120.883175
 20
104.851002
 30
0.0
 10
120.473611
 20
104.388720
 30
0.0
  0
SPLINE
  5
215
100
AcDbEntity
  8
0
 62
7
100
AcDbSpline
 70
8
 71
3
 72
8
 73
4
 74
0
 40
0
 40
0
 40
0
 40
0
 40
1
 40
1
 40
1
 40
1
 10
120.473611
 20
104.388720
 30
0.0
 10
119.737251
 20
103.557575
 30
0.0
 10
117.510278
 20
99.084971
 30
0.0
 10
117.510278
 20
98.435595
 30
0.0
  0
SPLINE
  5
216
100
AcDbEntity
  8
0
 62
7
100
AcDbSpline
 70
8
 71
3
 72
8
 73
4
 74
0
 40
0
 40
0
 40
0
 40
0
 40
1
 40
1
 40
1
 40
1
 10
117.510278
 20
98.435595
 30
0.0
 10
117.510278
 20
98.136321
 30
0.0
 10
117.179096
 20
97.206206
 30
0.0
 10
116.769444
 20
96.363025
 30
0.0
  0
SPLINE
  5
217
100
AcDbEntity
  8
0
 62
7
100
AcDbSpline
 70
8
 71
3
 72
8
 73
4
 74
0
 40
0
 40
0
 40
0
 40
0
 40
1
 40
1
 40
1
 40
1
 10
116.769444
 20
96.363025
 30
0.0
 10
115.393078
 20
93.530047
 30
0.0
 10
115.127837
 20
94.321139
 30
0.0
 10
114.785069
 20
102.280872
 30
0.0
  0
SPLINE
  5
218
100
AcDbEntity
  8
0
 62
7
100
AcDbSpline
 70
8
 71
3
 72
8
 73
4
 74
0
 40
0
 40
0
 40
0
 40
0
 40
1
 40
1
 40
1
 40
1
 10
114.785069
 20
102.280872
 30
0.0
 10
114.359622
 20
112.160660
 30
0.0
 10
114.392690
 20
119.292085
 30
0.0
 10
114.864444
 20
119.134831
 30
0.0
  0
LWPOLYLINE
  5
219
100
AcDbEntity
  8
0
 62
7
100
AcDbPolyline
 90
2
 70
0
 10
145.150417
 20
166.874484
 30
0.0
 10
145.150417
 20
166.874484
 30
0.0
  0
SPLINE
  5
21a
100
AcDbEntity
  8
0
 62
7
100
AcDbSpline
 70
8
 71
3
 72
8
 73
4
 74
0
 40
0
 40
0
 40
0
 40
0
 40
1
 40
1
 40
1
 40
1
 10
65.669583
 20
119.011359
 30
0.0
 10
65.708033
 20
119.016817
 30
0.0
 10
65.740475
 20
119.009863
 30
0.0
 10
65.766597
 20
118.993720
 30
0.0
  0
SPLINE
  5
21b
100
AcDbEntity
  8
0
 62
7
100
AcDbSpline
 70
8
 71
3
 72
8
 73
4
 74
0
 40
0
 40
0
 40
0
 40
0
 40
1
 40
1
 40
1
 40
1
 10
65.766597
 20
118.993720
 30
0.0
 10
66.107866
 20
118.782801
 30
0.0
 10
65.944417
 20
106.696614
 30
0.0
 10
65.554931
 20
103.295109
 30
0.0
  0
SPLINE
  5
21c
100
AcDbEntity
  8
0
 62
7
100
AcDbSpline
 70
8
 71
3
 72
8
 73
4
 74
0
 40
0
 40
0
 40
0
 40
0
 40
1
 40
1
 40
1
 40
1
 10
65.554931
 20
103.295109
 30
0.0
 10
65.480283
 20
102.643175
 30
0.0
 10
65.305206
 20
100.547675
 30
0.0
 10
65.166875
 20
98.638442
 30
0.0
  0
SPLINE
  5
21d
100
AcDbEntity
  8
0
 62
7
100
AcDbSpline
 70
8
 71
3
 72
8
 73
4
 74
0
 40
0
 40
0
 40
0
 40
0
 40
1
 40
1
 40
1
 40
1
 10
65.166875
 20
98.638442
 30
0.0
 10
65.010871
 20
96.485287
 30
0.0
 10
64.781156
 20
95.163016
 30
0.0
 10
64.549514
 20
95.163581
 30
0.0
  0
SPLINE
  5
21e
100
AcDbEntity
  8
0
 62
7
100
AcDbSpline
 70
8
 71
3
 72
8
 73
4
 74
0
 40
0
 40
0
 40
0
 40
0
 40
1
 40
1
 40
1
 40
1
 10
64.549514
 20
95.163581
 30
0.0
 10
64.344113
 20
95.164188
 30
0.0
 10
63.745220
 20
96.274379
 30
0.0
 10
63.217778
 20
97.624206
 30
0.0
  0
SPLINE
  5
21f
100
AcDbEntity
  8
0
 62
7
100
AcDbSpline
 70
8
 71
3
 72
8
 73
4
 74
0
 40
0
 40
0
 40
0
 40
0
 40
1
 40
1
 40
1
 40
1
 10
63.217778
 20
97.624206
 30
0.0
 10
62.106827
 20
100.467346
 30
0.0
 10
61.600523
 20
101.545057
 30
0.0
 10
60.448472
 20
103.586150
 30
0.0
  0
SPLINE
  5
220
100
AcDbEntity
  8
0
 62
7
100
AcDbSpline
 70
8
 71
3
 72
8
 73
4
 74
0
 40
0
 40
0
 40
0
 40
0
 40
1
 40
1
 40
1
 40
1
 10
60.448472
 20
103.586150
 30
0.0
 10
59.668317
 20
104.968365
 30
0.0
 10
59.641130
 20
105.218134
 30
0.0
 10
59.963403
 20
107.316775
 30
0.0
  0
SPLINE
  5
221
100
AcDbEntity
  8
0
 62
7
100
AcDbSpline
 70
8
 71
3
 72
8
 73
4
 74
0
 40
0
 40
0
 40
0
 40
0
 40
1
 40
1
 40
1
 40
1
 10
59.963403
 20
107.316775
 30
0.0
 10
60.153098
 20
108.552099
 30
0.0
 10
60.398090
 20
110.439169
 30
0.0
 10
60.510208
 20
111.514831
 30
0.0
  0
SPLINE
  5
222
100
AcDbEntity
  8
0
 62
7
100
AcDbSpline
 70
8
 71
3
 72
8
 73
4
 74
0
 40
0
 40
0
 40
0
 40
0
 40
1
 40
1
 40
1
 40
1
 10
60.510208
 20
111.514831
 30
0.0
 10
60.683002
 20
113.172553
 30
0.0
 10
60.904303
 20
113.666981
 30
0.0
 10
61.965417
 20
114.760386
 30
0.0
  0
SPLINE
  5
223
100
AcDbEntity
  8
0
 62
7
100
AcDbSpline
 70
8
 71
3
 72
8
 73
4
 74
0
 40
0
 40
0
 40
0
 40
0
 40
1
 40
1
 40
1
 40
1
 10
61.965417
 20
114.760386
 30
0.0
 10
62.653949
 20
115.469876
 30
0.0
 10
63.710764
 20
116.762544
 30
0.0
 10
64.311389
 20
117.635525
 30
0.0
  0
SPLINE
  5
224
100
AcDbEntity
  8
0
 62
7
100
AcDbSpline
 70
8
 71
3
 72
8
 73
4
 74
0
 40
0
 40
0
 40
0
 40
0
 40
1
 40
1
 40
1
 40
1
 10
64.311389
 20
117.635525
 30
0.0
 10
64.854294
 20
118.424616
 30
0.0
 10
65.400439
 20
118.973146
 30
0.0
 10
65.669583
 20
119.011359
 30
0.0
  0
LWPOLYLINE
  5
225
100
AcDbEntity
  8
0
 62
7
100
AcDbPolyline
 90
2
 70
0
 10
114.864444
 20
119.134831
 30
0.0
 10
114.864444
 20
119.134831
 30
0.0
  0
SPLINE
  5
226
100
AcDbEntity
  8
0
 62
7
100
AcDbSpline
 70
8
 71
3
 72
8
 73
4
 74
0
 40
0
 40
0
 40
0
 40
0
 40
1
 40
1
 40
1
 40
1
 10
99.395139
 20
72.056636
 30
0.0
 10
99.697275
 20
72.106355
 30
0.0
 10
100.997560
 20
71.308053
 30
0.0
 10
102.437847
 20
70.186914
 30
0.0
  0
SPLINE
  5
227
100
AcDbEntity
  8
0
 62
7
100
AcDbSpline
 70
8
 71
3
 72
8
 73
4
 74
0
 40
0
 40
0
 40
0
 40
0
 40
1
 40
1
 40
1
 40
1
 10
102.437847
 20
70.186914
 30
0.0
 10
102.996647
 20
69.751933
 30
0.0
 10
103.758647
 20
69.171174
 30
0.0
 10
104.131181
 20
68.890456
 30
0.0
  0
SPLINE
  5
228
100
AcDbEntity
  8
0
 62
7
100
AcDbSpline
 70
8
 71
3
 72
8
 73
4
 74
0
 40
0
 40
0
 40
0
 40
0
 40
1
 40
1
 40
1
 40
1
 10
104.131181
 20
68.890456
 30
0.0
 10
108.018309
 20
65.961347
 30
0.0
 10
108.893534
 20
65.258448
 30
0.0
 10
108.990694
 20
64.992261
 30
0.0
  0
SPLINE
  5
229
100
AcDbEntity
  8
0
 62
7
100
AcDbSpline
 70
8
 71
3
 72
8
 73
4
 74
0
 40
0
 40
0
 40
0
 40
0
 40
1
 40
1
 40
1
 40
1
 10
108.990694
 20
64.992261
 30
0.0
 10
109.052783
 20
64.822163
 30
0.0
 10
109.288456
 20
64.683581
 30
0.0
 10
109.519861
 20
64.683581
 30
0.0
  0
SPLINE
  5
22a
100
AcDbEntity
  8
0
 62
7
100
AcDbSpline
 70
8
 71
3
 72
8
 73
4
 74
0
 40
0
 40
0
 40
0
 40
0
 40
1
 40
1
 40
1
 40
1
 10
109.519861
 20
64.683581
 30
0.0
 10
109.751269
 20
64.683581
 30
0.0
 10
110.299472
 20
64.302581
 30
0.0
 10
110.736944
 20
63.836914
 30
0.0
  0
SPLINE
  5
22b
100
AcDbEntity
  8
0
 62
7
100
AcDbSpline
 70
8
 71
3
 72
8
 73
4
 74
0
 40
0
 40
0
 40
0
 40
0
 40
1
 40
1
 40
1
 40
1
 10
110.736944
 20
63.836914
 30
0.0
 10
111.174417
 20
63.371247
 30
0.0
 10
111.710862
 20
62.990247
 30
0.0
 10
111.927569
 20
62.990247
 30
0.0
  0
SPLINE
  5
22c
100
AcDbEntity
  8
0
 62
7
100
AcDbSpline
 70
8
 71
3
 72
8
 73
4
 74
0
 40
0
 40
0
 40
0
 40
0
 40
1
 40
1
 40
1
 40
1
 10
111.927569
 20
62.990247
 30
0.0
 10
112.363919
 20
62.990247
 30
0.0
 10
114.123611
 20
59.619828
 30
0.0
 10
114.123611
 20
58.783372
 30
0.0
  0
SPLINE
  5
22d
100
AcDbEntity
  8
0
 62
7
100
AcDbSpline
 70
8
 71
3
 72
8
 73
4
 74
0
 40
0
 40
0
 40
0
 40
0
 40
1
 40
1
 40
1
 40
1
 10
114.123611
 20
58.783372
 30
0.0
 10
114.123611
 20
58.492249
 30
0.0
 10
114.007547
 20
58.255744
 30
0.0
 10
113.867847
 20
58.263025
 30
0.0
  0
SPLINE
  5
22e
100
AcDbEntity
  8
0
 62
7
100
AcDbSpline
 70
8
 71
3
 72
8
 73
4
 74
0
 40
0
 40
0
 40
0
 40
0
 40
1
 40
1
 40
1
 40
1
 10
113.867847
 20
58.263025
 30
0.0
 10
113.482831
 20
58.283117
 30
0.0
 10
111.779414
 20
59.136212
 30
0.0
 10
109.890278
 20
60.256220
 30
0.0
  0
SPLINE
  5
22f
100
AcDbEntity
  8
0
 62
7
100
AcDbSpline
 70
8
 71
3
 72
8
 73
4
 74
0
 40
0
 40
0
 40
0
 40
0
 40
1
 40
1
 40
1
 40
1
 10
109.890278
 20
60.256220
 30
0.0
 10
108.958944
 20
60.808376
 30
0.0
 10
107.559165
 20
61.586378
 30
0.0
 10
106.777014
 20
61.984831
 30
0.0
  0
SPLINE
  5
230
100
AcDbEntity
  8
0
 62
7
100
AcDbSpline
 70
8
 71
3
 72
8
 73
4
 74
0
 40
0
 40
0
 40
0
 40
0
 40
1
 40
1
 40
1
 40
1
 10
106.777014
 20
61.984831
 30
0.0
 10
105.994863
 20
62.383286
 30
0.0
 10
105.178767
 20
62.929750
 30
0.0
 10
104.960208
 20
63.193095
 30
0.0
  0
SPLINE
  5
231
100
AcDbEntity
  8
0
 62
7
100
AcDbSpline
 70
8
 71
3
 72
8
 73
4
 74
0
 40
0
 40
0
 40
0
 40
0
 40
1
 40
1
 40
1
 40
1
 10
104.960208
 20
63.193095
 30
0.0
 10
104.741653
 20
63.456439
 30
0.0
 10
104.368758
 20
63.669345
 30
0.0
 10
104.131181
 20
63.669345
 30
0.0
  0
SPLINE
  5
232
100
AcDbEntity
  8
0
 62
7
100
AcDbSpline
 70
8
 71
3
 72
8
 73
4
 74
0
 40
0
 40
0
 40
0
 40
0
 40
1
 40
1
 40
1
 40
1
 10
104.131181
 20
63.669345
 30
0.0
 10
103.893597
 20
63.669345
 30
0.0
 10
103.036827
 20
64.052591
 30
0.0
 10
102.226181
 20
64.516011
 30
0.0
  0
SPLINE
  5
233
100
AcDbEntity
  8
0
 62
7
100
AcDbSpline
 70
8
 71
3
 72
8
 73
4
 74
0
 40
0
 40
0
 40
0
 40
0
 40
1
 40
1
 40
1
 40
1
 10
102.226181
 20
64.516011
 30
0.0
 10
101.415537
 20
64.979437
 30
0.0
 10
100.495044
 20
65.360420
 30
0.0
 10
100.180069
 20
65.362678
 30
0.0
  0
SPLINE
  5
234
100
AcDbEntity
  8
0
 62
7
100
AcDbSpline
 70
8
 71
3
 72
8
 73
4
 74
0
 40
0
 40
0
 40
0
 40
0
 40
1
 40
1
 40
1
 40
1
 10
100.180069
 20
65.362678
 30
0.0
 10
99.865098
 20
65.364924
 30
0.0
 10
99.508581
 20
65.514268
 30
0.0
 10
99.395139
 20
65.697817
 30
0.0
  0
SPLINE
  5
235
100
AcDbEntity
  8
0
 62
7
100
AcDbSpline
 70
8
 71
3
 72
8
 73
4
 74
0
 40
0
 40
0
 40
0
 40
0
 40
1
 40
1
 40
1
 40
1
 10
99.395139
 20
65.697817
 30
0.0
 10
99.156150
 20
66.084509
 30
0.0
 10
99.116888
 20
71.796029
 30
0.0
 10
99.351042
 20
72.030178
 30
0.0
  0
SPLINE
  5
236
100
AcDbEntity
  8
0
 62
7
100
AcDbSpline
 70
8
 71
3
 72
8
 73
4
 74
0
 40
0
 40
0
 40
0
 40
0
 40
1
 40
1
 40
1
 40
1
 10
99.351042
 20
72.030178
 30
0.0
 10
99.362012
 20
72.041148
 30
0.0
 10
99.374997
 20
72.053323
 30
0.0
 10
99.395139
 20
72.056636
 30
0.0
  0
LWPOLYLINE
  5
237
100
AcDbEntity
  8
0
 62
7
100
AcDbPolyline
 90
2
 70
0
 10
65.669583
 20
119.011359
 30
0.0
 10
65.669583
 20
119.011359
 30
0.0
  0
SPLINE
  5
238
100
AcDbEntity
  8
0
 62
7
100
AcDbSpline
 70
8
 71
3
 72
8
 73
4
 74
0
 40
0
 40
0
 40
0
 40
0
 40
1
 40
1
 40
1
 40
1
 10
80.830208
 20
71.986081
 30
0.0
 10
80.880565
 20
71.985528
 30
0.0
 10
80.914802
 20
71.978201
 30
0.0
 10
80.944861
 20
71.959622
 30
0.0
  0
SPLINE
  5
239
100
AcDbEntity
  8
0
 62
7
100
AcDbSpline
 70
8
 71
3
 72
8
 73
4
 74
0
 40
0
 40
0
 40
0
 40
0
 40
1
 40
1
 40
1
 40
1
 10
80.944861
 20
71.959622
 30
0.0
 10
81.417391
 20
71.667584
 30
0.0
 10
81.335739
 20
67.376133
 30
0.0
 10
80.839028
 20
66.394553
 30
0.0
  0
SPLINE
  5
23a
100
AcDbEntity
  8
0
 62
7
100
AcDbSpline
 70
8
 71
3
 72
8
 73
4
 74
0
 40
0
 40
0
 40
0
 40
0
 40
1
 40
1
 40
1
 40
1
 10
80.839028
 20
66.394553
 30
0.0
 10
80.577103
 20
65.876949
 30
0.0
 10
80.007039
 20
65.474503
 30
0.0
 10
79.330903
 20
65.336220
 30
0.0
  0
SPLINE
  5
23b
100
AcDbEntity
  8
0
 62
7
100
AcDbSpline
 70
8
 71
3
 72
8
 73
4
 74
0
 40
0
 40
0
 40
0
 40
0
 40
1
 40
1
 40
1
 40
1
 10
79.330903
 20
65.336220
 30
0.0
 10
78.732089
 20
65.213746
 30
0.0
 10
77.819332
 20
64.827954
 30
0.0
 10
77.302431
 20
64.480734
 30
0.0
  0
SPLINE
  5
23c
100
AcDbEntity
  8
0
 62
7
100
AcDbSpline
 70
8
 71
3
 72
8
 73
4
 74
0
 40
0
 40
0
 40
0
 40
0
 40
1
 40
1
 40
1
 40
1
 10
77.302431
 20
64.480734
 30
0.0
 10
76.785529
 20
64.133510
 30
0.0
 10
76.029848
 20
63.670149
 30
0.0
 10
75.617917
 20
63.448859
 30
0.0
  0
SPLINE
  5
23d
100
AcDbEntity
  8
0
 62
7
100
AcDbSpline
 70
8
 71
3
 72
8
 73
4
 74
0
 40
0
 40
0
 40
0
 40
0
 40
1
 40
1
 40
1
 40
1
 10
75.617917
 20
63.448859
 30
0.0
 10
73.620080
 20
62.375607
 30
0.0
 10
72.598277
 20
61.778713
 30
0.0
 10
72.134236
 20
61.420386
 30
0.0
  0
SPLINE
  5
23e
100
AcDbEntity
  8
0
 62
7
100
AcDbSpline
 70
8
 71
3
 72
8
 73
4
 74
0
 40
0
 40
0
 40
0
 40
0
 40
1
 40
1
 40
1
 40
1
 10
72.134236
 20
61.420386
 30
0.0
 10
71.854836
 20
61.204642
 30
0.0
 10
70.584785
 20
60.477510
 30
0.0
 10
69.312014
 20
59.806428
 30
0.0
  0
SPLINE
  5
23f
100
AcDbEntity
  8
0
 62
7
100
AcDbSpline
 70
8
 71
3
 72
8
 73
4
 74
0
 40
0
 40
0
 40
0
 40
0
 40
1
 40
1
 40
1
 40
1
 10
69.312014
 20
59.806428
 30
0.0
 10
66.974963
 20
58.574195
 30
0.0
 10
66.374857
 20
58.382044
 30
0.0
 10
66.375139
 20
58.845109
 30
0.0
  0
SPLINE
  5
240
100
AcDbEntity
  8
0
 62
7
100
AcDbSpline
 70
8
 71
3
 72
8
 73
4
 74
0
 40
0
 40
0
 40
0
 40
0
 40
1
 40
1
 40
1
 40
1
 10
66.375139
 20
58.845109
 30
0.0
 10
66.376022
 20
59.659108
 30
0.0
 10
67.758375
 20
62.522758
 30
0.0
 10
68.288958
 20
62.813859
 30
0.0
  0
SPLINE
  5
241
100
AcDbEntity
  8
0
 62
7
100
AcDbSpline
 70
8
 71
3
 72
8
 73
4
 74
0
 40
0
 40
0
 40
0
 40
0
 40
1
 40
1
 40
1
 40
1
 10
68.288958
 20
62.813859
 30
0.0
 10
68.634957
 20
63.003690
 30
0.0
 10
68.989575
 20
63.249714
 30
0.0
 10
69.082708
 20
63.360664
 30
0.0
  0
SPLINE
  5
242
100
AcDbEntity
  8
0
 62
7
100
AcDbSpline
 70
8
 71
3
 72
8
 73
4
 74
0
 40
0
 40
0
 40
0
 40
0
 40
1
 40
1
 40
1
 40
1
 10
69.082708
 20
63.360664
 30
0.0
 10
69.512301
 20
63.872440
 30
0.0
 10
74.889515
 20
68.070247
 30
0.0
 10
75.115208
 20
68.070247
 30
0.0
  0
SPLINE
  5
243
100
AcDbEntity
  8
0
 62
7
100
AcDbSpline
 70
8
 71
3
 72
8
 73
4
 74
0
 40
0
 40
0
 40
0
 40
0
 40
1
 40
1
 40
1
 40
1
 10
75.115208
 20
68.070247
 30
0.0
 10
75.255320
 20
68.070247
 30
0.0
 10
75.605953
 20
68.335184
 30
0.0
 10
75.900139
 20
68.661150
 30
0.0
  0
SPLINE
  5
244
100
AcDbEntity
  8
0
 62
7
100
AcDbSpline
 70
8
 71
3
 72
8
 73
4
 74
0
 40
0
 40
0
 40
0
 40
0
 40
1
 40
1
 40
1
 40
1
 10
75.900139
 20
68.661150
 30
0.0
 10
77.158554
 20
70.055520
 30
0.0
 10
80.074835
 20
71.994392
 30
0.0
 10
80.830208
 20
71.986081
 30
0.0
  0
LWPOLYLINE
  5
245
100
AcDbEntity
  8
0
 62
7
100
AcDbPolyline
 90
2
 70
0
 10
99.395139
 20
72.056636
 30
0.0
 10
99.395139
 20
72.056636
 30
0.0
  0
SPLINE
  5
246
100
AcDbEntity
  8
0
 62
7
100
AcDbSpline
 70
8
 71
3
 72
8
 73
4
 74
0
 40
0
 40
0
 40
0
 40
0
 40
1
 40
1
 40
1
 40
1
 10
5.794375
 20
46.056914
 30
0.0
 10
6.136869
 20
46.056914
 30
0.0
 10
6.184409
 20
44.558672
 30
0.0
 10
5.882569
 20
43.049484
 30
0.0
  0
SPLINE
  5
247
100
AcDbEntity
  8
0
 62
7
100
AcDbSpline
 70
8
 71
3
 72
8
 73
4
 74
0
 40
0
 40
0
 40
0
 40
0
 40
1
 40
1
 40
1
 40
1
 10
5.882569
 20
43.049484
 30
0.0
 10
5.673304
 20
42.003156
 30
0.0
 10
5.071181
 20
41.567729
 30
0.0
 10
5.071181
 20
42.458581
 30
0.0
  0
SPLINE
  5
248
100
AcDbEntity
  8
0
 62
7
100
AcDbSpline
 70
8
 71
3
 72
8
 73
4
 74
0
 40
0
 40
0
 40
0
 40
0
 40
1
 40
1
 40
1
 40
1
 10
5.071181
 20
42.458581
 30
0.0
 10
5.071181
 20
43.738117
 30
0.0
 10
5.537505
 20
46.056914
 30
0.0
 10
5.794375
 20
46.056914
 30
0.0
  0
LWPOLYLINE
  5
249
100
AcDbEntity
  8
0
 62
7
100
AcDbPolyline
 90
2
 70
0
 10
80.830208
 20
71.986081
 30
0.0
 10
80.830208
 20
71.986081
 30
0.0
  0
LWPOLYLINE
  5
24a
100
AcDbEntity
  8
0
 62
7
100
AcDbPolyline
 90
2
 70
0
 10
5.794375
 20
46.056914
 30
0.0
 10
5.794375
 20
46.056914
 30
0.0
  0
ENDSEC
  0
SECTION
  2
OBJECTS
  0
DICTIONARY
  5
C
330
0
100
AcDbDictionary
  3
ACAD_GROUP
350
D
  3
ACAD_MLINESTYLE
350
17
  0
DICTIONARY
  5
D
330
C
100
AcDbDictionary
  0
DICTIONARY
  5
1A
330
C
100
AcDbDictionary
  0
DICTIONARY
  5
17
330
C
100
AcDbDictionary
  3
STANDARD
350
18
  0
DICTIONARY
  5
19
330
C
100
AcDbDictionary
  0
ENDSEC
  0
EOF
