999
dxfrw 0.5.10
0
SECTION
2
HEADER
9
$ACADVER
1
AC1021
9
$HANDSEED
5
20000
9
$DWGCODEPAGE
3
ANSI_1252
9
$INSBASE
10
0
20
0
30
0
9
$EXTMIN
10
2.5
20
2.5
30
0
9
$EXTMAX
10
77.5
20
77.5
30
0
9
$LIMMIN
10
0
20
0
9
$LIMMAX
10
420
20
297
9
$ORTHOMODE
70
0
9
$LTSCALE
40
1
9
$TEXTSTYLE
7
STANDARD
9
$CLAYER
8
keine
9
$DIMASZ
40
2.5
9
$DIMLFAC
40
1
9
$DIMSCALE
40
1
9
$DIMEXO
40
0.625
9
$DIMEXE
40
1.25
9
$DIMTXT
40
2.5
9
$DIMTSZ
40
0
9
$DIMAUNIT
70
0
9
$DIMADEC
70
0
9
$DIMLUNIT
70
2
9
$DIMSTYLE
2
Standard
9
$DIMGAP
40
0.625
9
$DIMTIH
70
0
9
$LUNITS
70
2
9
$LUPREC
70
4
9
$AUNITS
70
0
9
$AUPREC
70
2
9
$SPLINESEGS
70
8
9
$GRIDMODE
70
0
9
$SNAPSTYLE
70
0
9
$PINSBASE
10
0
20
0
30
0
9
$PLIMMIN
10
0
20
0
9
$PLIMMAX
10
210
20
297
9
$INSUNITS
70
4
9
$PSVPSCALE
40
1
0
ENDSEC
0
SECTION
2
CLASSES
0
ENDSEC
0
SECTION
2
TABLES
0
TABLE
2
VPORT
5
8
330
0
100
AcDbSymbolTable
70
1
0
VPORT
5
31
330
2
100
AcDbSymbolTableRecord
100
AcDbViewportTableRecord
2
*ACTIVE
70
0
10
0
20
0
11
1
21
1
12
60.2054794521
22
39.2465753425
13
0
23
0
14
10
24
10
15
10
25
10
16
0
26
0
36
1
17
0
27
0
37
0
40
77.0547945205
41
2.08533333333
42
50
43
0
44
0
50
0
51
0
71
0
72
100
73
1
74
3
75
0
76
0
77
0
78
0
281
0
65
1
110
0
120
0
130
0
111
1
121
0
131
0
112
0
122
1
132
0
79
0
146
0
348
10020
60
7
61
5
292
1
282
1
141
0
142
0
63
250
421
3358443
0
ENDTAB
0
TABLE
2
LTYPE
5
5
330
0
100
AcDbSymbolTable
70
4
0
LTYPE
5
14
330
5
100
AcDbSymbolTableRecord
100
AcDbLinetypeTableRecord
2
ByBlock
70
0
3

72
65
73
0
40
0
0
LTYPE
5
15
330
5
100
AcDbSymbolTableRecord
100
AcDbLinetypeTableRecord
2
ByLayer
70
0
3

72
65
73
0
40
0
0
LTYPE
5
16
330
5
100
AcDbSymbolTableRecord
100
AcDbLinetypeTableRecord
2
Continuous
70
0
3
Solid line
72
65
73
0
40
0
0
LTYPE
5
32
330
5
100
AcDbSymbolTableRecord
100
AcDbLinetypeTableRecord
2
DOT
70
0
3
Dot . . . . . . . . . . . . . . . . . . . . . .
72
65
73
2
40
6.35
49
0
74
0
49
-6.35
74
0
0
LTYPE
5
33
330
5
100
AcDbSymbolTableRecord
100
AcDbLinetypeTableRecord
2
DOT2
70
0
3
Dot (.5x) .....................................
72
65
73
2
40
3.175
49
0
74
0
49
-3.175
74
0
0
LTYPE
5
34
330
5
100
AcDbSymbolTableRecord
100
AcDbLinetypeTableRecord
2
DOTX2
70
0
3
Dot (2x) .  .  .  .  .  .  .  .  .  .  .  .  .
72
65
73
2
40
12.7
49
0
74
0
49
-12.7
74
0
0
LTYPE
5
35
330
5
100
AcDbSymbolTableRecord
100
AcDbLinetypeTableRecord
2
DASHED
70
0
3
Dot . . . . . . . . . . . . . . . . . . . . . .
72
65
73
2
40
19.05
49
12.7
74
0
49
-6.35
74
0
0
LTYPE
5
36
330
5
100
AcDbSymbolTableRecord
100
AcDbLinetypeTableRecord
2
DASHED2
70
0
3
Dashed (.5x) _ _ _ _ _ _ _ _ _ _ _ _ _ _ _ _ _
72
65
73
2
40
9.525
49
6.35
74
0
49
-3.175
74
0
0
LTYPE
5
37
330
5
100
AcDbSymbolTableRecord
100
AcDbLinetypeTableRecord
2
DASHEDX2
70
0
3
Dashed (2x) ____  ____  ____  ____  ____  ___
72
65
73
2
40
38.1
49
25.4
74
0
49
-12.7
74
0
0
LTYPE
5
38
330
5
100
AcDbSymbolTableRecord
100
AcDbLinetypeTableRecord
2
DASHDOT
70
0
3
Dash dot __ . __ . __ . __ . __ . __ . __ . __
72
65
73
4
40
25.4
49
12.7
74
0
49
-6.35
74
0
49
0
74
0
49
-6.35
74
0
0
LTYPE
5
39
330
5
100
AcDbSymbolTableRecord
100
AcDbLinetypeTableRecord
2
DASHDOT2
70
0
3
Dash dot (.5x) _._._._._._._._._._._._._._._.
72
65
73
4
40
12.7
49
6.35
74
0
49
-3.175
74
0
49
0
74
0
49
-3.175
74
0
0
LTYPE
5
3A
330
5
100
AcDbSymbolTableRecord
100
AcDbLinetypeTableRecord
2
DASHDOTX2
70
0
3
Dash dot (2x) ____  .  ____  .  ____  .  ___
72
65
73
4
40
50.8
49
25.4
74
0
49
-12.7
74
0
49
0
74
0
49
-12.7
74
0
0
LTYPE
5
3B
330
5
100
AcDbSymbolTableRecord
100
AcDbLinetypeTableRecord
2
DIVIDE
70
0
3
Divide ____ . . ____ . . ____ . . ____ . . ____
72
65
73
6
40
31.75
49
12.7
74
0
49
-6.35
74
0
49
0
74
0
49
-6.35
74
0
49
0
74
0
49
-6.35
74
0
0
LTYPE
5
3C
330
5
100
AcDbSymbolTableRecord
100
AcDbLinetypeTableRecord
2
DIVIDE2
70
0
3
Divide (.5x) __..__..__..__..__..__..__..__.._
72
65
73
6
40
15.875
49
6.35
74
0
49
-3.175
74
0
49
0
74
0
49
-3.175
74
0
49
0
74
0
49
-3.175
74
0
0
LTYPE
5
3D
330
5
100
AcDbSymbolTableRecord
100
AcDbLinetypeTableRecord
2
DIVIDEX2
70
0
3
Divide (2x) ________  .  .  ________  .  .  _
72
65
73
6
40
63.5
49
25.4
74
0
49
-12.7
74
0
49
0
74
0
49
-12.7
74
0
49
0
74
0
49
-12.7
74
0
0
LTYPE
5
3E
330
5
100
AcDbSymbolTableRecord
100
AcDbLinetypeTableRecord
2
BORDER
70
0
3
Border __ __ . __ __ . __ __ . __ __ . __ __ .
72
65
73
6
40
44.45
49
12.7
74
0
49
-6.35
74
0
49
12.7
74
0
49
-6.35
74
0
49
0
74
0
49
-6.35
74
0
0
LTYPE
5
3F
330
5
100
AcDbSymbolTableRecord
100
AcDbLinetypeTableRecord
2
BORDER2
70
0
3
Border (.5x) __.__.__.__.__.__.__.__.__.__.__.
72
65
73
6
40
22.225
49
6.35
74
0
49
-3.175
74
0
49
6.35
74
0
49
-3.175
74
0
49
0
74
0
49
-3.175
74
0
0
LTYPE
5
40
330
5
100
AcDbSymbolTableRecord
100
AcDbLinetypeTableRecord
2
BORDERX2
70
0
3
Border (2x) ____  ____  .  ____  ____  .  ___
72
65
73
6
40
88.9
49
25.4
74
0
49
-12.7
74
0
49
25.4
74
0
49
-12.7
74
0
49
0
74
0
49
-12.7
74
0
0
LTYPE
5
41
330
5
100
AcDbSymbolTableRecord
100
AcDbLinetypeTableRecord
2
CENTER
70
0
3
Center ____ _ ____ _ ____ _ ____ _ ____ _ ____
72
65
73
4
40
50.8
49
31.75
74
0
49
-6.35
74
0
49
6.35
74
0
49
-6.35
74
0
0
LTYPE
5
42
330
5
100
AcDbSymbolTableRecord
100
AcDbLinetypeTableRecord
2
CENTER2
70
0
3
Center (.5x) ___ _ ___ _ ___ _ ___ _ ___ _ ___
72
65
73
4
40
28.575
49
19.05
74
0
49
-3.175
74
0
49
3.175
74
0
49
-3.175
74
0
0
LTYPE
5
43
330
5
100
AcDbSymbolTableRecord
100
AcDbLinetypeTableRecord
2
CENTERX2
70
0
3
Center (2x) ________  __  ________  __  _____
72
65
73
4
40
101.6
49
63.5
74
0
49
-12.7
74
0
49
12.7
74
0
49
-12.7
74
0
0
ENDTAB
0
TABLE
2
LAYER
5
2
330
0
100
AcDbSymbolTable
70
1
0
LAYER
5
10
330
2
100
AcDbSymbolTableRecord
100
AcDbLayerTableRecord
2
0
70
0
62
7
6
CONTINUOUS
370
-3
390
F
0
LAYER
5
44
330
2
100
AcDbSymbolTableRecord
100
AcDbLayerTableRecord
2
keine
70
0
62
7
6
CONTINUOUS
370
0
390
F
0
ENDTAB
0
TABLE
2
STYLE
5
3
330
0
100
AcDbSymbolTable
70
3
0
STYLE
5
45
330
2
100
AcDbSymbolTableRecord
100
AcDbTextStyleTableRecord
2
Standard
70
0
40
0
41
1
50
0
71
0
42
1
3
txt
4

0
ENDTAB
0
TABLE
2
VIEW
5
6
330
0
100
AcDbSymbolTable
70
0
0
ENDTAB
0
TABLE
2
UCS
5
7
330
0
100
AcDbSymbolTable
70
0
0
ENDTAB
0
TABLE
2
APPID
5
9
330
0
100
AcDbSymbolTable
70
1
0
APPID
5
12
330
9
100
AcDbSymbolTableRecord
100
AcDbRegAppTableRecord
2
ACAD
70
0
0
ENDTAB
0
TABLE
2
DIMSTYLE
5
A
330
0
100
AcDbSymbolTable
70
1
100
AcDbDimStyleTable
71
1
0
DIMSTYLE
105
46
330
A
100
AcDbSymbolTableRecord
100
AcDbDimStyleTableRecord
2
Standard
70
0
40
1
41
2.5
42
0.625
43
0.38
44
1.25
45
0
46
0
47
0
48
0
140
2.5
141
0.09
142
0
143
25.4
144
1
145
0
146
1
147
0.625
148
0
71
0
72
0
73
0
74
1
75
0
76
0
77
0
78
0
79
0
170
0
171
2
172
0
173
0
174
0
175
0
176
0
177
0
178
0
179
0
271
4
272
4
273
2
274
2
275
0
276
0
277
2
278
46
279
0
280
0
281
0
282
0
283
1
284
0
285
0
286
0
288
0
289
3
340
Standard
341

371
-2
372
-2
0
ENDTAB
0
TABLE
2
BLOCK_RECORD
5
1
330
0
100
AcDbSymbolTable
70
2
0
BLOCK_RECORD
5
1F
330
1
100
AcDbSymbolTableRecord
100
AcDbBlockTableRecord
2
*Model_Space
70
0
280
1
281
0
0
BLOCK_RECORD
5
1E
330
1
100
AcDbSymbolTableRecord
100
AcDbBlockTableRecord
2
*Paper_Space
70
0
280
1
281
0
0
ENDTAB
0
ENDSEC
0
SECTION
2
BLOCKS
0
BLOCK
5
20
330
1F
100
AcDbEntity
8
0
100
AcDbBlockBegin
2
*Model_Space
70
0
10
0
20
0
30
0
3
*Model_Space
1

0
ENDBLK
5
21
330
1F
100
AcDbEntity
8
0
100
AcDbBlockEnd
0
BLOCK
5
1C
330
1B
100
AcDbEntity
8
0
100
AcDbBlockBegin
2
*Paper_Space
70
0
10
0
20
0
30
0
3
*Paper_Space
1

0
ENDBLK
5
1D
330
1F
100
AcDbEntity
8
0
100
AcDbBlockEnd
0
ENDSEC
0
SECTION
2
ENTITIES
0
CIRCLE
5
47
100
AcDbEntity
8
0
6
ByLayer
62
256
370
-1
100
AcDbCircle
10
40
20
40
40
37.5
0
SPLINE
5
48
100
AcDbEntity
8
0
6
ByLayer
62
7
370
-1
100
AcDbSpline
210
0
220
0
230
1
70
8
71
3
72
8
73
4
74
0
42
1e-07
43
1e-07
40
0
40
0
40
0
40
0
40
1
40
1
40
1
40
1
10
33.9484442062
20
70.2606876198
30
0
10
33.7411381512
20
70.2690818435
30
0
10
32.4268215349
20
69.6291384735
30
0
10
32.1673903574
20
69.3874414685
30
0
0
SPLINE
5
49
100
AcDbEntity
8
0
6
ByLayer
62
7
370
-1
100
AcDbSpline
210
0
220
0
230
1
70
8
71
3
72
8
73
4
74
0
42
1e-07
43
1e-07
40
0
40
0
40
0
40
0
40
1
40
1
40
1
40
1
10
32.1673903574
20
69.3874414685
30
0
10
32.0707701799
20
69.2974259523
30
0
10
31.9511357062
20
69.2238516823
30
0
10
31.9001169774
20
69.2238516823
30
0
0
SPLINE
5
4A
100
AcDbEntity
8
0
6
ByLayer
62
7
370
-1
100
AcDbSpline
210
0
220
0
230
1
70
8
71
3
72
8
73
4
74
0
42
1e-07
43
1e-07
40
0
40
0
40
0
40
0
40
1
40
1
40
1
40
1
10
31.9001169774
20
69.2238516823
30
0
10
31.8490985099
20
69.2238516823
30
0
10
31.7201893999
20
69.1243154323
30
0
10
31.6144111037
20
69.0026599285
30
0
0
SPLINE
5
4B
100
AcDbEntity
8
0
6
ByLayer
62
7
370
-1
100
AcDbSpline
210
0
220
0
230
1
70
8
71
3
72
8
73
4
74
0
42
1e-07
43
1e-07
40
0
40
0
40
0
40
0
40
1
40
1
40
1
40
1
10
31.6144111037
20
69.0026599285
30
0
10
31.5086328074
20
68.881004686
30
0
10
31.3807582474
20
68.779625056
30
0
10
31.3287052299
20
68.7768602473
30
0
0
SPLINE
5
4C
100
AcDbEntity
8
0
6
ByLayer
62
7
370
-1
100
AcDbSpline
210
0
220
0
230
1
70
8
71
3
72
8
73
4
74
0
42
1e-07
43
1e-07
40
0
40
0
40
0
40
0
40
1
40
1
40
1
40
1
10
31.3287052299
20
68.7768602473
30
0
10
31.1893147699
20
68.769458251
30
0
10
30.4087227599
20
67.7811879048
30
0
10
30.1697532049
20
67.3091614048
30
0
0
SPLINE
5
4D
100
AcDbEntity
8
0
6
ByLayer
62
7
370
-1
100
AcDbSpline
210
0
220
0
230
1
70
8
71
3
72
8
73
4
74
0
42
1e-07
43
1e-07
40
0
40
0
40
0
40
0
40
1
40
1
40
1
40
1
10
30.1697532049
20
67.3091614048
30
0
10
30.0561063199
20
67.0846805135
30
0
10
29.8715013224
20
66.6272827073
30
0
10
29.7619309824
20
66.293062186
30
0
0
SPLINE
5
4E
100
AcDbEntity
8
0
6
ByLayer
62
7
370
-1
100
AcDbSpline
210
0
220
0
230
1
70
8
71
3
72
8
73
4
74
0
42
1e-07
43
1e-07
40
0
40
0
40
0
40
0
40
1
40
1
40
1
40
1
10
29.7619309824
20
66.293062186
30
0
10
29.6523606424
20
65.9588406198
30
0
10
29.5386108249
20
65.6847849285
30
0
10
29.5084821687
20
65.6847849285
30
0
0
SPLINE
5
4F
100
AcDbEntity
8
0
6
ByLayer
62
7
370
-1
100
AcDbSpline
210
0
220
0
230
1
70
8
71
3
72
8
73
4
74
0
42
1e-07
43
1e-07
40
0
40
0
40
0
40
0
40
1
40
1
40
1
40
1
10
29.5084821687
20
65.6847849285
30
0
10
29.4265580874
20
65.6847849285
30
0
10
29.2403683474
20
67.738503051
30
0
10
29.2412090499
20
68.631703216
30
0
0
SPLINE
5
50
100
AcDbEntity
8
0
6
ByLayer
62
7
370
-1
100
AcDbSpline
210
0
220
0
230
1
70
8
71
3
72
8
73
4
74
0
42
1e-07
43
1e-07
40
0
40
0
40
0
40
0
40
1
40
1
40
1
40
1
10
29.2412090499
20
68.631703216
30
0
10
29.2420790124
20
69.5562724523
30
0
10
29.1514965837
20
69.7961953085
30
0
10
28.8264746749
20
69.7146207798
30
0
0
SPLINE
5
51
100
AcDbEntity
8
0
6
ByLayer
62
7
370
-1
100
AcDbSpline
210
0
220
0
230
1
70
8
71
3
72
8
73
4
74
0
42
1e-07
43
1e-07
40
0
40
0
40
0
40
0
40
1
40
1
40
1
40
1
10
28.8264746749
20
69.7146207798
30
0
10
28.4776722237
20
69.6270766885
30
0
10
27.7477765599
20
68.8780951448
30
0
10
27.4993246749
20
68.3529094948
30
0
0
SPLINE
5
52
100
AcDbEntity
8
0
6
ByLayer
62
7
370
-1
100
AcDbSpline
210
0
220
0
230
1
70
8
71
3
72
8
73
4
74
0
42
1e-07
43
1e-07
40
0
40
0
40
0
40
0
40
1
40
1
40
1
40
1
10
27.4993246749
20
68.3529094948
30
0
10
27.2664576587
20
67.8606679923
30
0
10
27.2589791162
20
67.5808937998
30
0
10
27.4394184824
20
66.1156478335
30
0
0
SPLINE
5
53
100
AcDbEntity
8
0
6
ByLayer
62
7
370
-1
100
AcDbSpline
210
0
220
0
230
1
70
8
71
3
72
8
73
4
74
0
42
1e-07
43
1e-07
40
0
40
0
40
0
40
0
40
1
40
1
40
1
40
1
10
27.1352798537
20
65.7170422498
30
0
10
26.7611562687
20
65.726851926
30
0
10
26.5428254637
20
65.5871555423
30
0
10
26.2182560399
20
65.131805936
30
0
0
LWPOLYLINE
5
54
100
AcDbEntity
8
0
6
ByLayer
62
7
370
-1
100
AcDbPolyline
90
3
70
0
43
0
10
27.4394184824
20
66.1156478335
10
27.4878040724
20
65.7078258723
10
27.1352798537
20
65.7170422498
0
SPLINE
5
55
100
AcDbEntity
8
0
6
ByLayer
62
7
370
-1
100
AcDbSpline
210
0
220
0
230
1
70
8
71
3
72
8
73
4
74
0
42
1e-07
43
1e-07
40
0
40
0
40
0
40
0
40
1
40
1
40
1
40
1
10
26.2850743849
20
64.5765227185
30
0
10
26.4164253987
20
64.404312466
30
0
10
26.5060529587
20
64.2445220385
30
0
10
26.4832254562
20
64.2216942748
30
0
0
SPLINE
5
56
100
AcDbEntity
8
0
6
ByLayer
62
7
370
-1
100
AcDbSpline
210
0
220
0
230
1
70
8
71
3
72
8
73
4
74
0
42
1e-07
43
1e-07
40
0
40
0
40
0
40
0
40
1
40
1
40
1
40
1
10
26.4832254562
20
64.2216942748
30
0
10
26.4603984762
20
64.1988672948
30
0
10
25.8864643599
20
64.1045672785
30
0
10
25.2090692349
20
64.0120231235
30
0
0
SPLINE
5
57
100
AcDbEntity
8
0
6
ByLayer
62
7
370
-1
100
AcDbSpline
210
0
220
0
230
1
70
8
71
3
72
8
73
4
74
0
42
1e-07
43
1e-07
40
0
40
0
40
0
40
0
40
1
40
1
40
1
40
1
10
25.2090692349
20
64.0120231235
30
0
10
24.1478490062
20
63.867041391
30
0
10
23.0648990474
20
63.5832909735
30
0
10
22.8542996749
20
63.3945297498
30
0
0
SPLINE
5
58
100
AcDbEntity
8
0
6
ByLayer
62
7
370
-1
100
AcDbSpline
210
0
220
0
230
1
70
8
71
3
72
8
73
4
74
0
42
1e-07
43
1e-07
40
0
40
0
40
0
40
0
40
1
40
1
40
1
40
1
10
22.8542996749
20
63.3945297498
30
0
10
22.8198099724
20
63.3636165598
30
0
10
22.7344690024
20
63.1202867423
30
0
10
22.6653649812
20
62.8530708373
30
0
0
SPLINE
5
59
100
AcDbEntity
8
0
6
ByLayer
62
7
370
-1
100
AcDbSpline
210
0
220
0
230
1
70
8
71
3
72
8
73
4
74
0
42
1e-07
43
1e-07
40
0
40
0
40
0
40
0
40
1
40
1
40
1
40
1
10
22.6653649812
20
62.8530708373
30
0
10
22.5166437162
20
62.2779880048
30
0
10
22.5787344812
20
62.1027725935
30
0
10
23.1077482274
20
61.6088677123
30
0
0
SPLINE
5
5A
100
AcDbEntity
8
0
6
ByLayer
62
7
370
-1
100
AcDbSpline
210
0
220
0
230
1
70
8
71
3
72
8
73
4
74
0
42
1e-07
43
1e-07
40
0
40
0
40
0
40
0
40
1
40
1
40
1
40
1
10
23.1077482274
20
61.6088677123
30
0
10
23.4645430999
20
61.275753846
30
0
10
24.3340165399
20
60.6411540835
30
0
10
24.4348982274
20
60.6411540835
30
0
0
SPLINE
5
5B
100
AcDbEntity
8
0
6
ByLayer
62
7
370
-1
100
AcDbSpline
210
0
220
0
230
1
70
8
71
3
72
8
73
4
74
0
42
1e-07
43
1e-07
40
0
40
0
40
0
40
0
40
1
40
1
40
1
40
1
10
24.4348982274
20
60.6411540835
30
0
10
24.4674510224
20
60.6411540835
30
0
10
24.5670993487
20
60.5765331123
30
0
10
24.6560899812
20
60.4959970523
30
0
0
SPLINE
5
5C
100
AcDbEntity
8
0
6
ByLayer
62
7
370
-1
100
AcDbSpline
210
0
220
0
230
1
70
8
71
3
72
8
73
4
74
0
42
1e-07
43
1e-07
40
0
40
0
40
0
40
0
40
1
40
1
40
1
40
1
10
24.6560899812
20
60.4959970523
30
0
10
24.9171213149
20
60.259768271
30
0
10
24.8544725199
20
60.0450168523
30
0
10
24.4648513237
20
59.8462466185
30
0
0
SPLINE
5
5D
100
AcDbEntity
8
0
6
ByLayer
62
7
370
-1
100
AcDbSpline
210
0
220
0
230
1
70
8
71
3
72
8
73
4
74
0
42
1e-07
43
1e-07
40
0
40
0
40
0
40
0
40
1
40
1
40
1
40
1
10
24.4648513237
20
59.8462466185
30
0
10
24.2702028312
20
59.7469441873
30
0
10
24.1100231412
20
59.6266461385
30
0
10
24.1100231412
20
59.5789734998
30
0
0
SPLINE
5
5E
100
AcDbEntity
8
0
6
ByLayer
62
7
370
-1
100
AcDbSpline
210
0
220
0
230
1
70
8
71
3
72
8
73
4
74
0
42
1e-07
43
1e-07
40
0
40
0
40
0
40
0
40
1
40
1
40
1
40
1
10
24.1100231412
20
59.5789734998
30
0
10
24.1100231412
20
59.5312992935
30
0
10
24.0735774599
20
59.491418436
30
0
10
24.0270762662
20
59.491418436
30
0
0
SPLINE
5
5F
100
AcDbEntity
8
0
6
ByLayer
62
7
370
-1
100
AcDbSpline
210
0
220
0
230
1
70
8
71
3
72
8
73
4
74
0
42
1e-07
43
1e-07
40
0
40
0
40
0
40
0
40
1
40
1
40
1
40
1
10
24.0270762662
20
59.491418436
30
0
10
23.9805750724
20
59.491418436
30
0
10
23.7939158662
20
59.391882186
30
0
10
23.6146458549
20
59.2702266823
30
0
0
SPLINE
5
60
100
AcDbEntity
8
0
6
ByLayer
62
7
370
-1
100
AcDbSpline
210
0
220
0
230
1
70
8
71
3
72
8
73
4
74
0
42
1e-07
43
1e-07
40
0
40
0
40
0
40
0
40
1
40
1
40
1
40
1
10
23.6146458549
20
59.2702266823
30
0
10
23.4353774112
20
59.1485711785
30
0
10
23.2258779012
20
59.0490349285
30
0
10
23.1492216649
20
59.0490349285
30
0
0
SPLINE
5
61
100
AcDbEntity
8
0
6
ByLayer
62
7
370
-1
100
AcDbSpline
210
0
220
0
230
1
70
8
71
3
72
8
73
4
74
0
42
1e-07
43
1e-07
40
0
40
0
40
0
40
0
40
1
40
1
40
1
40
1
10
23.1492216649
20
59.0490349285
30
0
10
23.0725649062
20
59.0490349285
30
0
10
22.9302944262
20
58.969482736
30
0
10
22.8312587312
20
58.8716208373
30
0
0
SPLINE
5
62
100
AcDbEntity
8
0
6
ByLayer
62
7
370
-1
100
AcDbSpline
210
0
220
0
230
1
70
8
71
3
72
8
73
4
74
0
42
1e-07
43
1e-07
40
0
40
0
40
0
40
0
40
1
40
1
40
1
40
1
10
22.8312587312
20
58.8716208373
30
0
10
22.7322230362
20
58.7737589385
30
0
10
22.4079221774
20
58.5191313648
30
0
10
22.1123857274
20
58.3071212423
30
0
0
SPLINE
5
63
100
AcDbEntity
8
0
6
ByLayer
62
7
370
-1
100
AcDbSpline
210
0
220
0
230
1
70
8
71
3
72
8
73
4
74
0
42
1e-07
43
1e-07
40
0
40
0
40
0
40
0
40
1
40
1
40
1
40
1
10
22.1123857274
20
58.3071212423
30
0
10
21.8168497999
20
58.0951126873
30
0
10
21.4914064949
20
57.787395456
30
0
10
21.3866005712
20
57.6228095235
30
0
0
SPLINE
5
64
100
AcDbEntity
8
0
6
ByLayer
62
7
370
-1
100
AcDbSpline
210
0
220
0
230
1
70
8
71
3
72
8
73
4
74
0
42
1e-07
43
1e-07
40
0
40
0
40
0
40
0
40
1
40
1
40
1
40
1
10
21.3866005712
20
57.6228095235
30
0
10
21.2817941249
20
57.458224636
30
0
10
21.1444105874
20
57.2451086423
30
0
10
21.0824622037
20
57.1481692173
30
0
0
SPLINE
5
65
100
AcDbEntity
8
0
6
ByLayer
62
7
370
-1
100
AcDbSpline
210
0
220
0
230
1
70
8
71
3
72
8
73
4
74
0
42
1e-07
43
1e-07
40
0
40
0
40
0
40
0
40
1
40
1
40
1
40
1
10
21.0824622037
20
57.1481692173
30
0
10
21.0205143424
20
57.051229531
30
0
10
20.8809012974
20
56.8575497535
30
0
10
20.7714114224
20
56.719610276
30
0
0
SPLINE
5
66
100
AcDbEntity
8
0
6
ByLayer
62
7
370
-1
100
AcDbSpline
210
0
220
0
230
1
70
8
71
3
72
8
73
4
74
0
42
1e-07
43
1e-07
40
0
40
0
40
0
40
0
40
1
40
1
40
1
40
1
10
20.7714114224
20
56.719610276
30
0
10
20.6619215474
20
56.5816715823
30
0
10
20.5709563874
20
56.410635126
30
0
10
20.5709563874
20
56.339437186
30
0
0
SPLINE
5
67
100
AcDbEntity
8
0
6
ByLayer
62
7
370
-1
100
AcDbSpline
210
0
220
0
230
1
70
8
71
3
72
8
73
4
74
0
42
1e-07
43
1e-07
40
0
40
0
40
0
40
0
40
1
40
1
40
1
40
1
10
20.5709563874
20
56.339437186
30
0
10
20.5709563874
20
56.2682376785
30
0
10
20.4887535524
20
56.0512421223
30
0
10
20.3889341074
20
55.855580241
30
0
0
SPLINE
5
68
100
AcDbEntity
8
0
6
ByLayer
62
7
370
-1
100
AcDbSpline
210
0
220
0
230
1
70
8
71
3
72
8
73
4
74
0
42
1e-07
43
1e-07
40
0
40
0
40
0
40
0
40
1
40
1
40
1
40
1
10
20.3889341074
20
55.855580241
30
0
10
19.8864168587
20
54.8705637635
30
0
10
19.4387174362
20
52.6160883398
30
0
10
19.2461106124
20
50.118421561
30
0
0
SPLINE
5
69
100
AcDbEntity
8
0
6
ByLayer
62
7
370
-1
100
AcDbSpline
210
0
220
0
230
1
70
8
71
3
72
8
73
4
74
0
42
1e-07
43
1e-07
40
0
40
0
40
0
40
0
40
1
40
1
40
1
40
1
10
19.2461106124
20
50.118421561
30
0
10
19.1448851199
20
48.8057691073
30
0
10
18.8425086224
20
46.4371741973
30
0
10
18.6585700737
20
45.5125657735
30
0
0
SPLINE
5
6A
100
AcDbEntity
8
0
6
ByLayer
62
7
370
-1
100
AcDbSpline
210
0
220
0
230
1
70
8
71
3
72
8
73
4
74
0
42
1e-07
43
1e-07
40
0
40
0
40
0
40
0
40
1
40
1
40
1
40
1
10
18.6585700737
20
45.5125657735
30
0
10
18.5859647799
20
45.1475995235
30
0
10
18.4854619049
20
44.5892748335
30
0
10
18.4350743562
20
44.2729708373
30
0
0
SPLINE
5
6B
100
AcDbEntity
8
0
6
ByLayer
62
7
370
-1
100
AcDbSpline
210
0
220
0
230
1
70
8
71
3
72
8
73
4
74
0
42
1e-07
43
1e-07
40
0
40
0
40
0
40
0
40
1
40
1
40
1
40
1
10
18.4350743562
20
44.2729708373
30
0
10
18.2963738574
20
43.4022940798
30
0
10
17.9515758462
20
42.0435558198
30
0
10
17.6747279149
20
41.2661466185
30
0
0
SPLINE
5
6C
100
AcDbEntity
8
0
6
ByLayer
62
7
370
-1
100
AcDbSpline
210
0
220
0
230
1
70
8
71
3
72
8
73
4
74
0
42
1e-07
43
1e-07
40
0
40
0
40
0
40
0
40
1
40
1
40
1
40
1
10
17.6747279149
20
41.2661466185
30
0
10
17.5794165999
20
40.9985046148
30
0
10
17.3931474399
20
40.420733781
30
0
10
17.2599935399
20
39.982774281
30
0
0
SPLINE
5
6D
100
AcDbEntity
8
0
6
ByLayer
62
7
370
-1
100
AcDbSpline
210
0
220
0
230
1
70
8
71
3
72
8
73
4
74
0
42
1e-07
43
1e-07
40
0
40
0
40
0
40
0
40
1
40
1
40
1
40
1
10
17.2599935399
20
39.982774281
30
0
10
17.0299571674
20
39.226157706
30
0
10
16.7779021224
20
38.607949291
30
0
10
16.4074841074
20
37.890669651
30
0
0
SPLINE
5
6E
100
AcDbEntity
8
0
6
ByLayer
62
7
370
-1
100
AcDbSpline
210
0
220
0
230
1
70
8
71
3
72
8
73
4
74
0
42
1e-07
43
1e-07
40
0
40
0
40
0
40
0
40
1
40
1
40
1
40
1
10
16.4074841074
20
37.890669651
30
0
10
16.2603371349
20
37.6057334198
30
0
10
16.1797355012
20
37.4058330185
30
0
10
15.9305395762
20
36.7086766823
30
0
0
SPLINE
5
6F
100
AcDbEntity
8
0
6
ByLayer
62
7
370
-1
100
AcDbSpline
210
0
220
0
230
1
70
8
71
3
72
8
73
4
74
0
42
1e-07
43
1e-07
40
0
40
0
40
0
40
0
40
1
40
1
40
1
40
1
10
15.9305395762
20
36.7086766823
30
0
10
15.8859008337
20
36.583794741
30
0
10
15.9334783774
20
36.6090453373
30
0
10
16.0918251374
20
36.793927521
30
0
0
SPLINE
5
70
100
AcDbEntity
8
0
6
ByLayer
62
7
370
-1
100
AcDbSpline
210
0
220
0
230
1
70
8
71
3
72
8
73
4
74
0
42
1e-07
43
1e-07
40
0
40
0
40
0
40
0
40
1
40
1
40
1
40
1
10
16.0918251374
20
36.793927521
30
0
10
16.3890072012
20
37.140912456
30
0
10
16.4654134212
20
37.0346218485
30
0
10
16.2899759474
20
36.5197422498
30
0
0
SPLINE
5
71
100
AcDbEntity
8
0
6
ByLayer
62
7
370
-1
100
AcDbSpline
210
0
220
0
230
1
70
8
71
3
72
8
73
4
74
0
42
1e-07
43
1e-07
40
0
40
0
40
0
40
0
40
1
40
1
40
1
40
1
10
16.2899759474
20
36.5197422498
30
0
10
16.2115097712
20
36.289455861
30
0
10
16.1471231412
20
36.0213331573
30
0
10
16.1471231412
20
35.9229853335
30
0
0
SPLINE
5
72
100
AcDbEntity
8
0
6
ByLayer
62
7
370
-1
100
AcDbSpline
210
0
220
0
230
1
70
8
71
3
72
8
73
4
74
0
42
1e-07
43
1e-07
40
0
40
0
40
0
40
0
40
1
40
1
40
1
40
1
10
16.1471231412
20
35.9229853335
30
0
10
16.1471231412
20
35.7554697435
30
0
10
15.9234915737
20
34.8744514048
30
0
10
15.5135012374
20
33.4345790835
30
0
0
SPLINE
5
73
100
AcDbEntity
8
0
6
ByLayer
62
7
370
-1
100
AcDbSpline
210
0
220
0
230
1
70
8
71
3
72
8
73
4
74
0
42
1e-07
43
1e-07
40
0
40
0
40
0
40
0
40
1
40
1
40
1
40
1
10
15.5135012374
20
33.4345790835
30
0
10
15.1629220249
20
32.2033496335
30
0
10
14.9702284662
20
29.4086549285
30
0
10
15.1655849462
20
28.3748197085
30
0
0
SPLINE
5
74
100
AcDbEntity
8
0
6
ByLayer
62
7
370
-1
100
AcDbSpline
210
0
220
0
230
1
70
8
71
3
72
8
73
4
74
0
42
1e-07
43
1e-07
40
0
40
0
40
0
40
0
40
1
40
1
40
1
40
1
10
15.1655849462
20
28.3748197085
30
0
10
15.2097158187
20
28.1412797123
30
0
10
15.2949815487
20
27.5604310923
30
0
10
15.3545196399
20
27.0845352185
30
0
0
SPLINE
5
75
100
AcDbEntity
8
0
6
ByLayer
62
7
370
-1
100
AcDbSpline
210
0
220
0
230
1
70
8
71
3
72
8
73
4
74
0
42
1e-07
43
1e-07
40
0
40
0
40
0
40
0
40
1
40
1
40
1
40
1
10
15.3545196399
20
27.0845352185
30
0
10
15.4689361674
20
26.1699885773
30
0
10
15.4578079624
20
26.0652351648
30
0
10
15.0803341074
20
24.3657208373
30
0
0
SPLINE
5
76
100
AcDbEntity
8
0
6
ByLayer
62
7
370
-1
100
AcDbSpline
210
0
220
0
230
1
70
8
71
3
72
8
73
4
74
0
42
1e-07
43
1e-07
40
0
40
0
40
0
40
0
40
1
40
1
40
1
40
1
10
15.0803341074
20
24.3657208373
30
0
10
14.9884467349
20
23.9520121298
30
0
10
14.9356512449
20
23.529574276
30
0
10
14.9628259474
20
23.425656341
30
0
0
SPLINE
5
77
100
AcDbEntity
8
0
6
ByLayer
62
7
370
-1
100
AcDbSpline
210
0
220
0
230
1
70
8
71
3
72
8
73
4
74
0
42
1e-07
43
1e-07
40
0
40
0
40
0
40
0
40
1
40
1
40
1
40
1
10
14.9628259474
20
23.425656341
30
0
10
14.9900009112
20
23.3217389285
30
0
10
14.9746407174
20
23.2123882998
30
0
10
14.9282649237
20
23.1837278685
30
0
0
SPLINE
5
78
100
AcDbEntity
8
0
6
ByLayer
62
7
370
-1
100
AcDbSpline
210
0
220
0
230
1
70
8
71
3
72
8
73
4
74
0
42
1e-07
43
1e-07
40
0
40
0
40
0
40
0
40
1
40
1
40
1
40
1
10
14.9282649237
20
23.1837278685
30
0
10
14.8818912199
20
23.1550658698
30
0
10
14.8647547874
20
23.0276594698
30
0
10
14.8890954499
20
22.9003259585
30
0
0
SPLINE
5
79
100
AcDbEntity
8
0
6
ByLayer
62
7
370
-1
100
AcDbSpline
210
0
220
0
230
1
70
8
71
3
72
8
73
4
74
0
42
1e-07
43
1e-07
40
0
40
0
40
0
40
0
40
1
40
1
40
1
40
1
10
14.8890954499
20
22.9003259585
30
0
10
14.9266080762
20
22.7040929848
30
0
10
14.9670707374
20
22.7604231873
30
0
10
15.1517606412
20
23.273586896
30
0
0
SPLINE
5
7A
100
AcDbEntity
8
0
6
ByLayer
62
7
370
-1
100
AcDbSpline
210
0
220
0
230
1
70
8
71
3
72
8
73
4
74
0
42
1e-07
43
1e-07
40
0
40
0
40
0
40
0
40
1
40
1
40
1
40
1
10
15.1517606412
20
23.273586896
30
0
10
15.2716030699
20
23.6065732723
30
0
10
15.4023456324
20
24.0200006135
30
0
10
15.4443786674
20
24.1929149348
30
0
0
SPLINE
5
7B
100
AcDbEntity
8
0
6
ByLayer
62
7
370
-1
100
AcDbSpline
210
0
220
0
230
1
70
8
71
3
72
8
73
4
74
0
42
1e-07
43
1e-07
40
0
40
0
40
0
40
0
40
1
40
1
40
1
40
1
10
15.4443786674
20
24.1929149348
30
0
10
15.4864124862
20
24.365829256
30
0
10
15.6019711987
20
24.6861883748
30
0
10
15.7001317062
20
24.902571561
30
0
0
SPLINE
5
7C
100
AcDbEntity
8
0
6
ByLayer
62
7
370
-1
100
AcDbSpline
210
0
220
0
230
1
70
8
71
3
72
8
73
4
74
0
42
1e-07
43
1e-07
40
0
40
0
40
0
40
0
40
1
40
1
40
1
40
1
10
15.7001317062
20
24.902571561
30
0
10
15.7982911687
20
25.118954486
30
0
10
15.8787807262
20
25.3626176585
30
0
10
15.8798497612
20
25.4463344373
30
0
0
SPLINE
5
7D
100
AcDbEntity
8
0
6
ByLayer
62
7
370
-1
100
AcDbSpline
210
0
220
0
230
1
70
8
71
3
72
8
73
4
74
0
42
1e-07
43
1e-07
40
0
40
0
40
0
40
0
40
1
40
1
40
1
40
1
10
15.8798497612
20
25.4463344373
30
0
10
15.8809182737
20
25.5300517385
30
0
10
15.9816902362
20
25.8162942198
30
0
10
16.1033454787
20
26.0822603048
30
0
0
SPLINE
5
7E
100
AcDbEntity
8
0
6
ByLayer
62
7
370
-1
100
AcDbSpline
210
0
220
0
230
1
70
8
71
3
72
8
73
4
74
0
42
1e-07
43
1e-07
40
0
40
0
40
0
40
0
40
1
40
1
40
1
40
1
10
16.1033454787
20
26.0822603048
30
0
10
16.2250009824
20
26.348225606
30
0
10
16.3245372324
20
26.669448156
30
0
10
16.3245372324
20
26.794221156
30
0
0
SPLINE
5
7F
100
AcDbEntity
8
0
6
ByLayer
62
7
370
-1
100
AcDbSpline
210
0
220
0
230
1
70
8
71
3
72
8
73
4
74
0
42
1e-07
43
1e-07
40
0
40
0
40
0
40
0
40
1
40
1
40
1
40
1
10
16.3245372324
20
26.794221156
30
0
10
16.3245372324
20
26.918995201
30
0
10
16.3594626999
20
27.0200208373
30
0
10
16.4028759187
20
27.0200208373
30
0
0
SPLINE
5
80
100
AcDbEntity
8
0
6
ByLayer
62
7
370
-1
100
AcDbSpline
210
0
220
0
230
1
70
8
71
3
72
8
73
4
74
0
42
1e-07
43
1e-07
40
0
40
0
40
0
40
0
40
1
40
1
40
1
40
1
10
16.4028759187
20
27.0200208373
30
0
10
16.4462886149
20
27.0200208373
30
0
10
16.5149892662
20
26.6133047473
30
0
10
16.5549451024
20
26.1145173648
30
0
0
SPLINE
5
81
100
AcDbEntity
8
0
6
ByLayer
62
7
370
-1
100
AcDbSpline
210
0
220
0
230
1
70
8
71
3
72
8
73
4
74
0
42
1e-07
43
1e-07
40
0
40
0
40
0
40
0
40
1
40
1
40
1
40
1
10
16.5549451024
20
26.1145173648
30
0
10
16.5949019837
20
25.6157302435
30
0
10
16.6411628274
20
25.318832681
30
0
10
16.6586286962
20
25.4555505535
30
0
0
SPLINE
5
82
100
AcDbEntity
8
0
6
ByLayer
62
7
370
-1
100
AcDbSpline
210
0
220
0
230
1
70
8
71
3
72
8
73
4
74
0
42
1e-07
43
1e-07
40
0
40
0
40
0
40
0
40
1
40
1
40
1
40
1
10
16.6586286962
20
25.4555505535
30
0
10
16.6973012724
20
25.758247866
30
0
10
16.9723729649
20
25.7527548235
30
0
10
17.0157611037
20
25.448638401
30
0
0
SPLINE
5
83
100
AcDbEntity
8
0
6
ByLayer
62
7
370
-1
100
AcDbSpline
210
0
220
0
230
1
70
8
71
3
72
8
73
4
74
0
42
1e-07
43
1e-07
40
0
40
0
40
0
40
0
40
1
40
1
40
1
40
1
10
17.0157611037
20
25.448638401
30
0
10
17.0313109649
20
25.3396454235
30
0
10
17.0800246849
20
25.250487591
30
0
10
17.1240528862
20
25.250487591
30
0
0
SPLINE
5
84
100
AcDbEntity
8
0
6
ByLayer
62
7
370
-1
100
AcDbSpline
210
0
220
0
230
1
70
8
71
3
72
8
73
4
74
0
42
1e-07
43
1e-07
40
0
40
0
40
0
40
0
40
1
40
1
40
1
40
1
10
17.1240528862
20
25.250487591
30
0
10
17.2687522074
20
25.250487591
30
0
10
17.4942783599
20
24.7007658635
30
0
10
17.4466240087
20
24.4624922785
30
0
0
SPLINE
5
85
100
AcDbEntity
8
0
6
ByLayer
62
7
370
-1
100
AcDbSpline
210
0
220
0
230
1
70
8
71
3
72
8
73
4
74
0
42
1e-07
43
1e-07
40
0
40
0
40
0
40
0
40
1
40
1
40
1
40
1
10
17.4466240087
20
24.4624922785
30
0
10
17.4210750649
20
24.3347472985
30
0
10
17.2175210824
20
23.906554891
30
0
10
16.9950243849
20
23.5109071798
30
0
0
SPLINE
5
86
100
AcDbEntity
8
0
6
ByLayer
62
7
370
-1
100
AcDbSpline
210
0
220
0
230
1
70
8
71
3
72
8
73
4
74
0
42
1e-07
43
1e-07
40
0
40
0
40
0
40
0
40
1
40
1
40
1
40
1
10
16.9950243849
20
23.5109071798
30
0
10
16.7725276874
20
23.1152586848
30
0
10
16.5895063874
20
22.7490509748
30
0
10
16.5895063874
20
22.695262996
30
0
0
SPLINE
5
87
100
AcDbEntity
8
0
6
ByLayer
62
7
370
-1
100
AcDbSpline
210
0
220
0
230
1
70
8
71
3
72
8
73
4
74
0
42
1e-07
43
1e-07
40
0
40
0
40
0
40
0
40
1
40
1
40
1
40
1
10
16.5895063874
20
22.695262996
30
0
10
16.5895063874
20
22.6414750173
30
0
10
16.4918030674
20
22.4080160085
30
0
10
16.3729228224
20
22.1768450273
30
0
0
SPLINE
5
88
100
AcDbEntity
8
0
6
ByLayer
62
7
370
-1
100
AcDbSpline
210
0
220
0
230
1
70
8
71
3
72
8
73
4
74
0
42
1e-07
43
1e-07
40
0
40
0
40
0
40
0
40
1
40
1
40
1
40
1
10
16.3729228224
20
22.1768450273
30
0
10
16.0897024812
20
21.626105731
30
0
10
15.7047396337
20
20.7007127735
30
0
10
15.7047396337
20
20.570901306
30
0
0
SPLINE
5
89
100
AcDbEntity
8
0
6
ByLayer
62
7
370
-1
100
AcDbSpline
210
0
220
0
230
1
70
8
71
3
72
8
73
4
74
0
42
1e-07
43
1e-07
40
0
40
0
40
0
40
0
40
1
40
1
40
1
40
1
10
15.7047396337
20
20.570901306
30
0
10
15.7047396337
20
20.5145410598
30
0
10
15.6052033837
20
20.2718220448
30
0
10
15.4835481412
20
20.0317466185
30
0
0
SPLINE
5
8A
100
AcDbEntity
8
0
6
ByLayer
62
7
370
-1
100
AcDbSpline
210
0
220
0
230
1
70
8
71
3
72
8
73
4
74
0
42
1e-07
43
1e-07
40
0
40
0
40
0
40
0
40
1
40
1
40
1
40
1
10
15.4835481412
20
20.0317466185
30
0
10
15.3618926374
20
19.7916711923
30
0
10
15.2623563874
20
19.539630516
30
0
10
15.2623563874
20
19.4741594373
30
0
0
SPLINE
5
8B
100
AcDbEntity
8
0
6
ByLayer
62
7
370
-1
100
AcDbSpline
210
0
220
0
230
1
70
8
71
3
72
8
73
4
74
0
42
1e-07
43
1e-07
40
0
40
0
40
0
40
0
40
1
40
1
40
1
40
1
10
15.2623563874
20
19.4741594373
30
0
10
15.2623563874
20
19.4086894035
30
0
10
15.1848868799
20
19.1945375535
30
0
10
15.0895504849
20
18.997214906
30
0
0
SPLINE
5
8C
100
AcDbEntity
8
0
6
ByLayer
62
7
370
-1
100
AcDbSpline
210
0
220
0
230
1
70
8
71
3
72
8
73
4
74
0
42
1e-07
43
1e-07
40
0
40
0
40
0
40
0
40
1
40
1
40
1
40
1
10
15.0895504849
20
18.997214906
30
0
10
14.8836423787
20
18.5710330785
30
0
10
14.6466692962
20
17.9083147173
30
0
10
14.6448630137
20
17.753011781
30
0
0
SPLINE
5
8D
100
AcDbEntity
8
0
6
ByLayer
62
7
370
-1
100
AcDbSpline
210
0
220
0
230
1
70
8
71
3
72
8
73
4
74
0
42
1e-07
43
1e-07
40
0
40
0
40
0
40
0
40
1
40
1
40
1
40
1
10
14.6448630137
20
17.753011781
30
0
10
14.6438425712
20
17.6653313173
30
0
10
16.3209011549
20
17.6424157735
30
0
10
22.7390954787
20
17.6424157735
30
0
0
LWPOLYLINE
5
8E
100
AcDbEntity
8
0
6
ByLayer
62
7
370
-1
100
AcDbPolyline
90
3
70
0
43
0
10
26.2182560399
20
65.131805936
10
26.0454501374
20
64.8898774635
10
26.2850743849
20
64.5765227185
0
SPLINE
5
8F
100
AcDbEntity
8
0
6
ByLayer
62
7
370
-1
100
AcDbSpline
210
0
220
0
230
1
70
8
71
3
72
8
73
4
74
0
42
1e-07
43
1e-07
40
0
40
0
40
0
40
0
40
1
40
1
40
1
40
1
10
30.8356321687
20
17.8866482098
30
0
10
30.8356321687
20
18.0211564298
30
0
10
30.7555423237
20
18.3484700235
30
0
10
30.6582180774
20
18.614737591
30
0
0
SPLINE
5
90
100
AcDbEntity
8
0
6
ByLayer
62
7
370
-1
100
AcDbSpline
210
0
220
0
230
1
70
8
71
3
72
8
73
4
74
0
42
1e-07
43
1e-07
40
0
40
0
40
0
40
0
40
1
40
1
40
1
40
1
10
30.6582180774
20
18.614737591
30
0
10
30.5608938312
20
18.8810051585
30
0
10
30.4806563799
20
19.1585506273
30
0
10
30.4808039862
20
19.2322309648
30
0
0
SPLINE
5
91
100
AcDbEntity
8
0
6
ByLayer
62
7
370
-1
100
AcDbSpline
210
0
220
0
230
1
70
8
71
3
72
8
73
4
74
0
42
1e-07
43
1e-07
40
0
40
0
40
0
40
0
40
1
40
1
40
1
40
1
10
30.4808039862
20
19.2322309648
30
0
10
30.4809994012
20
19.3059113023
30
0
10
30.3846864537
20
19.6862267735
30
0
10
30.2665243849
20
20.075524281
30
0
0
SPLINE
5
92
100
AcDbEntity
8
0
6
ByLayer
62
7
370
-1
100
AcDbSpline
210
0
220
0
230
1
70
8
71
3
72
8
73
4
74
0
42
1e-07
43
1e-07
40
0
40
0
40
0
40
0
40
1
40
1
40
1
40
1
10
30.2665243849
20
20.075524281
30
0
10
29.5098837749
20
22.568339386
30
0
10
29.0677178887
20
24.9157278498
30
0
10
29.0315376374
20
26.6214149923
30
0
0
LWPOLYLINE
5
93
100
AcDbEntity
8
0
6
ByLayer
62
7
370
-1
100
AcDbPolyline
90
3
70
0
43
0
10
22.7390954787
20
17.6424157735
10
30.8356321687
20
17.6424157735
10
30.8356321687
20
17.8866482098
0
SPLINE
5
94
100
AcDbEntity
8
0
6
ByLayer
62
7
370
-1
100
AcDbSpline
210
0
220
0
230
1
70
8
71
3
72
8
73
4
74
0
42
1e-07
43
1e-07
40
0
40
0
40
0
40
0
40
1
40
1
40
1
40
1
10
29.3541087599
20
27.0453657448
30
0
10
29.7018029887
20
27.024871466
30
0
10
30.4003750387
20
27.363475501
30
0
10
31.1443789862
20
27.9140039685
30
0
0
SPLINE
5
95
100
AcDbEntity
8
0
6
ByLayer
62
7
370
-1
100
AcDbSpline
210
0
220
0
230
1
70
8
71
3
72
8
73
4
74
0
42
1e-07
43
1e-07
40
0
40
0
40
0
40
0
40
1
40
1
40
1
40
1
10
31.1443789862
20
27.9140039685
30
0
10
31.3390274787
20
28.0580350123
30
0
10
31.5987434187
20
28.2441965373
30
0
10
31.7203989224
20
28.3264341185
30
0
0
SPLINE
5
96
100
AcDbEntity
8
0
6
ByLayer
62
7
370
-1
100
AcDbSpline
210
0
220
0
230
1
70
8
71
3
72
8
73
4
74
0
42
1e-07
43
1e-07
40
0
40
0
40
0
40
0
40
1
40
1
40
1
40
1
10
31.7203989224
20
28.3264341185
30
0
10
31.9692270074
20
28.4946407148
30
0
10
32.6249843624
20
28.9872625973
30
0
10
32.6927204787
20
29.0568274635
30
0
0
SPLINE
5
97
100
AcDbEntity
8
0
6
ByLayer
62
7
370
-1
100
AcDbSpline
210
0
220
0
230
1
70
8
71
3
72
8
73
4
74
0
42
1e-07
43
1e-07
40
0
40
0
40
0
40
0
40
1
40
1
40
1
40
1
10
32.6927204787
20
29.0568274635
30
0
10
32.7170517362
20
29.0818162873
30
0
10
32.9654824599
20
29.255302746
30
0
10
33.2433957687
20
29.4439129673
30
0
0
SPLINE
5
98
100
AcDbEntity
8
0
6
ByLayer
62
7
370
-1
100
AcDbSpline
210
0
220
0
230
1
70
8
71
3
72
8
73
4
74
0
42
1e-07
43
1e-07
40
0
40
0
40
0
40
0
40
1
40
1
40
1
40
1
10
33.2433957687
20
29.4439129673
30
0
10
33.5213095999
20
29.632523711
30
0
10
33.8198616587
20
29.8516996598
30
0
10
33.9092747324
20
29.9300736148
30
0
0
SPLINE
5
99
100
AcDbEntity
8
0
6
ByLayer
62
7
370
-1
100
AcDbSpline
210
0
220
0
230
1
70
8
71
3
72
8
73
4
74
0
42
1e-07
43
1e-07
40
0
40
0
40
0
40
0
40
1
40
1
40
1
40
1
10
33.9092747324
20
29.9300736148
30
0
10
33.9986870224
20
30.0084493985
30
0
10
34.1769543562
20
30.1335701223
30
0
10
34.3032723887
20
30.2065633723
30
0
0
SPLINE
5
9A
100
AcDbEntity
8
0
6
ByLayer
62
7
370
-1
100
AcDbSpline
210
0
220
0
230
1
70
8
71
3
72
8
73
4
74
0
42
1e-07
43
1e-07
40
0
40
0
40
0
40
0
40
1
40
1
40
1
40
1
10
34.3032723887
20
30.2065633723
30
0
10
34.5311994287
20
30.3382712535
30
0
10
34.9171560712
20
30.5859999985
30
0
10
36.1511443212
20
31.388556341
30
0
0
SPLINE
5
9B
100
AcDbEntity
8
0
6
ByLayer
62
7
370
-1
100
AcDbSpline
210
0
220
0
230
1
70
8
71
3
72
8
73
4
74
0
42
1e-07
43
1e-07
40
0
40
0
40
0
40
0
40
1
40
1
40
1
40
1
10
36.1511443212
20
31.388556341
30
0
10
37.0144953674
20
31.9500573085
30
0
10
37.5589372324
20
32.784838316
30
0
10
37.5589372324
20
33.5520872435
30
0
0
SPLINE
5
9C
100
AcDbEntity
8
0
6
ByLayer
62
7
370
-1
100
AcDbSpline
210
0
220
0
230
1
70
8
71
3
72
8
73
4
74
0
42
1e-07
43
1e-07
40
0
40
0
40
0
40
0
40
1
40
1
40
1
40
1
10
37.5589372324
20
33.5520872435
30
0
10
37.5589372324
20
33.6722254073
30
0
10
37.6548886099
20
33.974413021
30
0
10
37.7732165724
20
34.222574396
30
0
0
SPLINE
5
9D
100
AcDbEntity
8
0
6
ByLayer
62
7
370
-1
100
AcDbSpline
210
0
220
0
230
1
70
8
71
3
72
8
73
4
74
0
42
1e-07
43
1e-07
40
0
40
0
40
0
40
0
40
1
40
1
40
1
40
1
10
37.7732165724
20
34.222574396
30
0
10
37.8915437512
20
34.4707352485
30
0
10
38.0019553162
20
34.749079881
30
0
10
38.0174490087
20
34.8423719948
30
0
0
SPLINE
5
9E
100
AcDbEntity
8
0
6
ByLayer
62
7
370
-1
100
AcDbSpline
210
0
220
0
230
1
70
8
71
3
72
8
73
4
74
0
42
1e-07
43
1e-07
40
0
40
0
40
0
40
0
40
1
40
1
40
1
40
1
10
38.0174490087
20
34.8423719948
30
0
10
38.1065885537
20
35.379108291
30
0
10
38.5015034587
20
34.6279442648
30
0
10
38.9321688587
20
33.1027915835
30
0
0
SPLINE
5
9F
100
AcDbEntity
8
0
6
ByLayer
62
7
370
-1
100
AcDbSpline
210
0
220
0
230
1
70
8
71
3
72
8
73
4
74
0
42
1e-07
43
1e-07
40
0
40
0
40
0
40
0
40
1
40
1
40
1
40
1
10
38.9321688587
20
33.1027915835
30
0
10
39.1336921449
20
32.3891190223
30
0
10
39.2328294662
20
32.1860582798
30
0
10
39.4966684537
20
31.934623181
30
0
0
SPLINE
5
A0
100
AcDbEntity
8
0
6
ByLayer
62
7
370
-1
100
AcDbSpline
210
0
220
0
230
1
70
8
71
3
72
8
73
4
74
0
42
1e-07
43
1e-07
40
0
40
0
40
0
40
0
40
1
40
1
40
1
40
1
10
39.4966684537
20
31.934623181
30
0
10
39.7632111174
20
31.6806111123
30
0
10
40.7019027449
20
31.0014708373
30
0
10
40.7869532049
20
31.0014708373
30
0
0
SPLINE
5
A1
100
AcDbEntity
8
0
6
ByLayer
62
7
370
-1
100
AcDbSpline
210
0
220
0
230
1
70
8
71
3
72
8
73
4
74
0
42
1e-07
43
1e-07
40
0
40
0
40
0
40
0
40
1
40
1
40
1
40
1
10
40.7869532049
20
31.0014708373
30
0
10
40.8009073512
20
31.0014708373
30
0
10
41.2590998799
20
30.7028620873
30
0
10
41.8053563874
20
30.3378958373
30
0
0
SPLINE
5
A2
100
AcDbEntity
8
0
6
ByLayer
62
7
370
-1
100
AcDbSpline
210
0
220
0
230
1
70
8
71
3
72
8
73
4
74
0
42
1e-07
43
1e-07
40
0
40
0
40
0
40
0
40
1
40
1
40
1
40
1
10
41.8053563874
20
30.3378958373
30
0
10
42.3516128949
20
29.9729295873
30
0
10
42.8262252474
20
29.6743208373
30
0
10
42.8606250799
20
29.6743208373
30
0
0
SPLINE
5
A3
100
AcDbEntity
8
0
6
ByLayer
62
7
370
-1
100
AcDbSpline
210
0
220
0
230
1
70
8
71
3
72
8
73
4
74
0
42
1e-07
43
1e-07
40
0
40
0
40
0
40
0
40
1
40
1
40
1
40
1
10
42.8606250799
20
29.6743208373
30
0
10
42.8950254349
20
29.6743208373
30
0
10
43.0105995612
20
29.5747845873
30
0
10
43.1163778574
20
29.4531290835
30
0
0
SPLINE
5
A4
100
AcDbEntity
8
0
6
ByLayer
62
7
370
-1
100
AcDbSpline
210
0
220
0
230
1
70
8
71
3
72
8
73
4
74
0
42
1e-07
43
1e-07
40
0
40
0
40
0
40
0
40
1
40
1
40
1
40
1
10
43.1163778574
20
29.4531290835
30
0
10
43.2221561537
20
29.331473841
30
0
10
43.3650813262
20
29.231937591
30
0
10
43.4343407912
20
29.231937591
30
0
0
SPLINE
5
A5
100
AcDbEntity
8
0
6
ByLayer
62
7
370
-1
100
AcDbSpline
210
0
220
0
230
1
70
8
71
3
72
8
73
4
74
0
42
1e-07
43
1e-07
40
0
40
0
40
0
40
0
40
1
40
1
40
1
40
1
10
43.4343407912
20
29.231937591
30
0
10
43.5036010399
20
29.231937591
30
0
10
43.5747976737
20
29.1998396323
30
0
10
43.5910184249
20
29.1605110573
30
0
0
SPLINE
5
A6
100
AcDbEntity
8
0
6
ByLayer
62
7
370
-1
100
AcDbSpline
210
0
220
0
230
1
70
8
71
3
72
8
73
4
74
0
42
1e-07
43
1e-07
40
0
40
0
40
0
40
0
40
1
40
1
40
1
40
1
10
43.5910184249
20
29.1605110573
30
0
10
43.6172191874
20
29.0969826335
30
0
10
44.1171307287
20
28.723298471
30
0
10
44.6808481412
20
28.3471708373
30
0
0
SPLINE
5
A7
100
AcDbEntity
8
0
6
ByLayer
62
7
370
-1
100
AcDbSpline
210
0
220
0
230
1
70
8
71
3
72
8
73
4
74
0
42
1e-07
43
1e-07
40
0
40
0
40
0
40
0
40
1
40
1
40
1
40
1
10
44.6808481412
20
28.3471708373
30
0
10
45.0653219287
20
28.0906400573
30
0
10
45.7430459674
20
27.6064079573
30
0
10
45.7868063874
20
27.556871561
30
0
0
SPLINE
5
A8
100
AcDbEntity
8
0
6
ByLayer
62
7
370
-1
100
AcDbSpline
210
0
220
0
230
1
70
8
71
3
72
8
73
4
74
0
42
1e-07
43
1e-07
40
0
40
0
40
0
40
0
40
1
40
1
40
1
40
1
10
45.7868063874
20
27.556871561
30
0
10
45.8111373837
20
27.5293287573
30
0
10
46.0392472987
20
27.395700166
30
0
10
46.2937040149
20
27.2596450848
30
0
0
SPLINE
5
A9
100
AcDbEntity
8
0
6
ByLayer
62
7
370
-1
100
AcDbSpline
210
0
220
0
230
1
70
8
71
3
72
8
73
4
74
0
42
1e-07
43
1e-07
40
0
40
0
40
0
40
0
40
1
40
1
40
1
40
1
10
46.2937040149
20
27.2596450848
30
0
10
46.6171989174
20
27.0866761623
30
0
10
46.8576233737
20
27.0201475435
30
0
10
47.0909157049
20
27.0384535923
30
0
0
LWPOLYLINE
5
AA
100
AcDbEntity
8
0
6
ByLayer
62
7
370
-1
100
AcDbPolyline
90
3
70
0
43
0
10
29.0315376374
20
26.6214149923
10
29.0200172962
20
27.0637984998
10
29.3541087599
20
27.0453657448
0
SPLINE
5
AB
100
AcDbEntity
8
0
6
ByLayer
62
7
370
-1
100
AcDbSpline
210
0
220
0
230
1
70
8
71
3
72
8
73
4
74
0
42
1e-07
43
1e-07
40
0
40
0
40
0
40
0
40
1
40
1
40
1
40
1
10
47.4526560399
20
26.5799415548
30
0
10
47.4677599474
20
26.313068671
30
0
10
47.4148743262
20
25.5411326573
30
0
10
47.3374521049
20
24.8657063123
30
0
0
SPLINE
5
AC
100
AcDbEntity
8
0
6
ByLayer
62
7
370
-1
100
AcDbSpline
210
0
220
0
230
1
70
8
71
3
72
8
73
4
74
0
42
1e-07
43
1e-07
40
0
40
0
40
0
40
0
40
1
40
1
40
1
40
1
10
47.3374521049
20
24.8657063123
30
0
10
47.2600298837
20
24.1902789223
30
0
10
47.1599862862
20
22.897077576
30
0
10
47.1139563874
20
21.9902145585
30
0
0
SPLINE
5
AD
100
AcDbEntity
8
0
6
ByLayer
62
7
370
-1
100
AcDbSpline
210
0
220
0
230
1
70
8
71
3
72
8
73
4
74
0
42
1e-07
43
1e-07
40
0
40
0
40
0
40
0
40
1
40
1
40
1
40
1
10
47.1139563874
20
21.9902145585
30
0
10
47.0679264887
20
21.083351541
30
0
10
46.9725388887
20
19.7891686785
30
0
10
46.9019810112
20
19.1147228048
30
0
0
SPLINE
5
AE
100
AcDbEntity
8
0
6
ByLayer
62
7
370
-1
100
AcDbSpline
210
0
220
0
230
1
70
8
71
3
72
8
73
4
74
0
42
1e-07
43
1e-07
40
0
40
0
40
0
40
0
40
1
40
1
40
1
40
1
10
46.9019810112
20
19.1147228048
30
0
10
46.8314239174
20
18.4402764085
30
0
10
46.7953776874
20
17.8321835935
30
0
10
46.8213383612
20
17.7645321223
30
0
0
SPLINE
5
AF
100
AcDbEntity
8
0
6
ByLayer
62
7
370
-1
100
AcDbSpline
210
0
220
0
230
1
70
8
71
3
72
8
73
4
74
0
42
1e-07
43
1e-07
40
0
40
0
40
0
40
0
40
1
40
1
40
1
40
1
10
46.8213383612
20
17.7645321223
30
0
10
46.8612868824
20
17.6604245198
30
0
10
48.5575771237
20
17.6424157735
30
0
10
57.8647930774
20
17.6424157735
30
0
0
LWPOLYLINE
5
B0
100
AcDbEntity
8
0
6
ByLayer
62
7
370
-1
100
AcDbPolyline
90
3
70
0
43
0
10
47.0909157049
20
27.0384535923
10
47.4250071687
20
27.0637984998
10
47.4526560399
20
26.5799415548
0
SPLINE
5
B1
100
AcDbEntity
8
0
6
ByLayer
62
7
370
-1
100
AcDbSpline
210
0
220
0
230
1
70
8
71
3
72
8
73
4
74
0
42
1e-07
43
1e-07
40
0
40
0
40
0
40
0
40
1
40
1
40
1
40
1
10
68.7907396337
20
17.948858366
30
0
10
68.7526321412
20
18.117824416
30
0
10
68.4571479412
20
18.7842567073
30
0
10
68.1340770474
20
19.4303817748
30
0
0
SPLINE
5
B2
100
AcDbEntity
8
0
6
ByLayer
62
7
370
-1
100
AcDbSpline
210
0
220
0
230
1
70
8
71
3
72
8
73
4
74
0
42
1e-07
43
1e-07
40
0
40
0
40
0
40
0
40
1
40
1
40
1
40
1
10
68.1340770474
20
19.4303817748
30
0
10
67.3425587787
20
21.0133840885
30
0
10
67.1665418524
20
21.325656736
30
0
10
66.8737453924
20
21.6538188698
30
0
0
SPLINE
5
B3
100
AcDbEntity
8
0
6
ByLayer
62
7
370
-1
100
AcDbSpline
210
0
220
0
230
1
70
8
71
3
72
8
73
4
74
0
42
1e-07
43
1e-07
40
0
40
0
40
0
40
0
40
1
40
1
40
1
40
1
10
66.8737453924
20
21.6538188698
30
0
10
66.7362651924
20
21.807905426
30
0
10
66.4058644074
20
22.1928335273
30
0
10
66.1387438587
20
22.5086325273
30
0
0
SPLINE
5
B4
100
AcDbEntity
8
0
6
ByLayer
62
7
370
-1
100
AcDbSpline
210
0
220
0
230
1
70
8
71
3
72
8
73
4
74
0
42
1e-07
43
1e-07
40
0
40
0
40
0
40
0
40
1
40
1
40
1
40
1
10
66.1387438587
20
22.5086325273
30
0
10
65.2705886862
20
23.5349941685
30
0
10
64.2657354962
20
24.4371199398
30
0
10
63.5259172962
20
24.8564899348
30
0
0
SPLINE
5
B5
100
AcDbEntity
8
0
6
ByLayer
62
7
370
-1
100
AcDbSpline
210
0
220
0
230
1
70
8
71
3
72
8
73
4
74
0
42
1e-07
43
1e-07
40
0
40
0
40
0
40
0
40
1
40
1
40
1
40
1
10
63.5259172962
20
24.8564899348
30
0
10
63.1366200499
20
25.0771654585
30
0
10
62.7602254187
20
25.293033721
30
0
10
62.6872321687
20
25.3357384298
30
0
0
SPLINE
5
B6
100
AcDbEntity
8
0
6
ByLayer
62
7
370
-1
100
AcDbSpline
210
0
220
0
230
1
70
8
71
3
72
8
73
4
74
0
42
1e-07
43
1e-07
40
0
40
0
40
0
40
0
40
1
40
1
40
1
40
1
10
62.6872321687
20
25.3357384298
30
0
10
62.6142389187
20
25.378444706
30
0
10
62.4068320212
20
25.476280741
30
0
10
62.2264161674
20
25.5546259585
30
0
0
SPLINE
5
B7
100
AcDbEntity
8
0
6
ByLayer
62
7
370
-1
100
AcDbSpline
210
0
220
0
230
1
70
8
71
3
72
8
73
4
74
0
42
1e-07
43
1e-07
40
0
40
0
40
0
40
0
40
1
40
1
40
1
40
1
10
62.2264161674
20
25.5546259585
30
0
10
62.0459997912
20
25.6329714373
30
0
10
61.8732093024
20
25.7376746898
30
0
10
61.8439388524
20
25.7850340898
30
0
0
SPLINE
5
B8
100
AcDbEntity
8
0
6
ByLayer
62
7
370
-1
100
AcDbSpline
210
0
220
0
230
1
70
8
71
3
72
8
73
4
74
0
42
1e-07
43
1e-07
40
0
40
0
40
0
40
0
40
1
40
1
40
1
40
1
10
61.8439388524
20
25.7850340898
30
0
10
61.8146694474
20
25.8323940123
30
0
10
61.6773321512
20
25.8702849285
30
0
10
61.5374962599
20
25.8702849285
30
0
0
SPLINE
5
B9
100
AcDbEntity
8
0
6
ByLayer
62
7
370
-1
100
AcDbSpline
210
0
220
0
230
1
70
8
71
3
72
8
73
4
74
0
42
1e-07
43
1e-07
40
0
40
0
40
0
40
0
40
1
40
1
40
1
40
1
10
61.5374962599
20
25.8702849285
30
0
10
61.3486104199
20
25.8702849285
30
0
10
61.2683457987
20
25.9205389785
30
0
10
61.2287497037
20
26.0684359998
30
0
0
SPLINE
5
BA
100
AcDbEntity
8
0
6
ByLayer
62
7
370
-1
100
AcDbSpline
210
0
220
0
230
1
70
8
71
3
72
8
73
4
74
0
42
1e-07
43
1e-07
40
0
40
0
40
0
40
0
40
1
40
1
40
1
40
1
10
61.2287497037
20
26.0684359998
30
0
10
61.1551223999
20
26.3434381998
30
0
10
61.0448649724
20
26.7813417923
30
0
10
60.8693130712
20
27.4854450273
30
0
0
SPLINE
5
BB
100
AcDbEntity
8
0
6
ByLayer
62
7
370
-1
100
AcDbSpline
210
0
220
0
230
1
70
8
71
3
72
8
73
4
74
0
42
1e-07
43
1e-07
40
0
40
0
40
0
40
0
40
1
40
1
40
1
40
1
10
60.8693130712
20
27.4854450273
30
0
10
60.7872761299
20
27.8144763398
30
0
10
60.6843151537
20
28.1062502673
30
0
10
60.6412091649
20
28.1328914973
30
0
0
SPLINE
5
BC
100
AcDbEntity
8
0
6
ByLayer
62
7
370
-1
100
AcDbSpline
210
0
220
0
230
1
70
8
71
3
72
8
73
4
74
0
42
1e-07
43
1e-07
40
0
40
0
40
0
40
0
40
1
40
1
40
1
40
1
10
60.6412091649
20
28.1328914973
30
0
10
60.5377188962
20
28.1968488935
30
0
10
60.5399766187
20
30.2065633723
30
0
10
60.6435133899
20
30.2065633723
30
0
0
SPLINE
5
BD
100
AcDbEntity
8
0
6
ByLayer
62
7
370
-1
100
AcDbSpline
210
0
220
0
230
1
70
8
71
3
72
8
73
4
74
0
42
1e-07
43
1e-07
40
0
40
0
40
0
40
0
40
1
40
1
40
1
40
1
10
60.6435133899
20
30.2065633723
30
0
10
60.6875512574
20
30.2065633723
30
0
10
60.8225135299
20
30.0336871935
30
0
10
60.9453477937
20
29.8240860573
30
0
0
SPLINE
5
BE
100
AcDbEntity
8
0
6
ByLayer
62
7
370
-1
100
AcDbSpline
210
0
220
0
230
1
70
8
71
3
72
8
73
4
74
0
42
1e-07
43
1e-07
40
0
40
0
40
0
40
0
40
1
40
1
40
1
40
1
10
60.9453477937
20
29.8240860573
30
0
10
61.1185379949
20
29.5285592735
30
0
10
61.2012829237
20
29.1868003835
30
0
10
61.3140005424
20
28.2987852473
30
0
0
SPLINE
5
BF
100
AcDbEntity
8
0
6
ByLayer
62
7
370
-1
100
AcDbSpline
210
0
220
0
230
1
70
8
71
3
72
8
73
4
74
0
42
1e-07
43
1e-07
40
0
40
0
40
0
40
0
40
1
40
1
40
1
40
1
10
61.3140005424
20
28.2987852473
30
0
10
61.4517824862
20
27.2133061273
30
0
10
61.6842599787
20
26.166814651
30
0
10
61.7679043912
20
26.2504582798
30
0
0
SPLINE
5
C0
100
AcDbEntity
8
0
6
ByLayer
62
7
370
-1
100
AcDbSpline
210
0
220
0
230
1
70
8
71
3
72
8
73
4
74
0
42
1e-07
43
1e-07
40
0
40
0
40
0
40
0
40
1
40
1
40
1
40
1
10
61.7679043912
20
26.2504582798
30
0
10
61.8517499662
20
26.334303071
30
0
10
62.0183080749
20
28.3587235735
30
0
10
62.0167450162
20
29.2757149923
30
0
0
SPLINE
5
C1
100
AcDbEntity
8
0
6
ByLayer
62
7
370
-1
100
AcDbSpline
210
0
220
0
230
1
70
8
71
3
72
8
73
4
74
0
42
1e-07
43
1e-07
40
0
40
0
40
0
40
0
40
1
40
1
40
1
40
1
10
62.0167450162
20
29.2757149923
30
0
10
62.0144253774
20
30.635511576
30
0
10
61.8531544462
20
32.1869209273
30
0
10
61.6480922674
20
32.814781746
30
0
0
SPLINE
5
C2
100
AcDbEntity
8
0
6
ByLayer
62
7
370
-1
100
AcDbSpline
210
0
220
0
230
1
70
8
71
3
72
8
73
4
74
0
42
1e-07
43
1e-07
40
0
40
0
40
0
40
0
40
1
40
1
40
1
40
1
10
61.6480922674
20
32.814781746
30
0
10
61.5527328824
20
33.106754746
30
0
10
61.3730190074
20
33.684525841
30
0
10
61.2494864224
20
34.0981540835
30
0
0
SPLINE
5
C3
100
AcDbEntity
8
0
6
ByLayer
62
7
370
-1
100
AcDbSpline
210
0
220
0
230
1
70
8
71
3
72
8
73
4
74
0
42
1e-07
43
1e-07
40
0
40
0
40
0
40
0
40
1
40
1
40
1
40
1
10
61.2494864224
20
34.0981540835
30
0
10
61.1259538374
20
34.5117825873
30
0
10
60.9205308724
20
35.1890899323
30
0
10
60.7932786099
20
35.602718436
30
0
0
SPLINE
5
C4
100
AcDbEntity
8
0
6
ByLayer
62
7
370
-1
100
AcDbSpline
210
0
220
0
230
1
70
8
71
3
72
8
73
4
74
0
42
1e-07
43
1e-07
40
0
40
0
40
0
40
0
40
1
40
1
40
1
40
1
10
60.7932786099
20
35.602718436
30
0
10
60.5257110624
20
36.472434316
30
0
10
60.5120745962
20
36.6158610885
30
0
10
60.6965071687
20
36.545086896
30
0
0
SPLINE
5
C5
100
AcDbEntity
8
0
6
ByLayer
62
7
370
-1
100
AcDbSpline
210
0
220
0
230
1
70
8
71
3
72
8
73
4
74
0
42
1e-07
43
1e-07
40
0
40
0
40
0
40
0
40
1
40
1
40
1
40
1
10
60.6965071687
20
36.545086896
30
0
10
60.8648848837
20
36.4804761135
30
0
10
60.8654894162
20
36.5827750823
30
0
10
60.6988113937
20
36.8031438985
30
0
0
SPLINE
5
C6
100
AcDbEntity
8
0
6
ByLayer
62
7
370
-1
100
AcDbSpline
210
0
220
0
230
1
70
8
71
3
72
8
73
4
74
0
42
1e-07
43
1e-07
40
0
40
0
40
0
40
0
40
1
40
1
40
1
40
1
10
60.6988113937
20
36.8031438985
30
0
10
60.6273663112
20
36.8976037998
30
0
10
60.5667228712
20
37.0646109973
30
0
10
60.5651747037
20
37.1741008723
30
0
0
SPLINE
5
C7
100
AcDbEntity
8
0
6
ByLayer
62
7
370
-1
100
AcDbSpline
210
0
220
0
230
1
70
8
71
3
72
8
73
4
74
0
42
1e-07
43
1e-07
40
0
40
0
40
0
40
0
40
1
40
1
40
1
40
1
10
60.5651747037
20
37.1741008723
30
0
10
60.5636270587
20
37.2835907473
30
0
10
60.5325487587
20
37.371956731
30
0
10
60.4960521337
20
37.3722516823
30
0
0
SPLINE
5
C8
100
AcDbEntity
8
0
6
ByLayer
62
7
370
-1
100
AcDbSpline
210
0
220
0
230
1
70
8
71
3
72
8
73
4
74
0
42
1e-07
43
1e-07
40
0
40
0
40
0
40
0
40
1
40
1
40
1
40
1
10
60.4960521337
20
37.3722516823
30
0
10
60.4203382262
20
37.372890961
30
0
10
60.1204872324
20
37.8755142773
30
0
10
60.1204872324
20
38.0012653973
30
0
0
SPLINE
5
C9
100
AcDbEntity
8
0
6
ByLayer
62
7
370
-1
100
AcDbSpline
210
0
220
0
230
1
70
8
71
3
72
8
73
4
74
0
42
1e-07
43
1e-07
40
0
40
0
40
0
40
0
40
1
40
1
40
1
40
1
10
60.1204872324
20
38.0012653973
30
0
10
60.1204872324
20
38.0469512298
30
0
10
60.0271723899
20
38.2321800923
30
0
10
59.9131200449
20
38.4136958085
30
0
0
SPLINE
5
CA
100
AcDbEntity
8
0
6
ByLayer
62
7
370
-1
100
AcDbSpline
210
0
220
0
230
1
70
8
71
3
72
8
73
4
74
0
42
1e-07
43
1e-07
40
0
40
0
40
0
40
0
40
1
40
1
40
1
40
1
10
59.9131200449
20
38.4136958085
30
0
10
59.7990669162
20
38.5952123085
30
0
10
59.6834199012
20
38.8427153335
30
0
10
59.6573672674
20
38.9643708373
30
0
0
SPLINE
5
CB
100
AcDbEntity
8
0
6
ByLayer
62
7
370
-1
100
AcDbSpline
210
0
220
0
230
1
70
8
71
3
72
8
73
4
74
0
42
1e-07
43
1e-07
40
0
40
0
40
0
40
0
40
1
40
1
40
1
40
1
10
59.6573672674
20
38.9643708373
30
0
10
59.6313151562
20
39.086026341
30
0
10
59.5296141887
20
39.4258318648
30
0
10
59.4292633612
20
39.7178048648
30
0
0
SPLINE
5
CC
100
AcDbEntity
8
0
6
ByLayer
62
7
370
-1
100
AcDbSpline
210
0
220
0
230
1
70
8
71
3
72
8
73
4
74
0
42
1e-07
43
1e-07
40
0
40
0
40
0
40
0
40
1
40
1
40
1
40
1
10
59.4292633612
20
39.7178048648
30
0
10
59.3289114887
20
40.0097778648
30
0
10
59.1439702624
20
40.585244996
30
0
10
59.0191371749
20
40.9988734998
30
0
0
SPLINE
5
CD
100
AcDbEntity
8
0
6
ByLayer
62
7
370
-1
100
AcDbSpline
210
0
220
0
230
1
70
8
71
3
72
8
73
4
74
0
42
1e-07
43
1e-07
40
0
40
0
40
0
40
0
40
1
40
1
40
1
40
1
10
59.0191371749
20
40.9988734998
30
0
10
58.8943038262
20
41.4125017423
30
0
10
58.6946194787
20
42.0703626823
30
0
10
58.5744497037
20
42.4596599285
30
0
0
SPLINE
5
CE
100
AcDbEntity
8
0
6
ByLayer
62
7
370
-1
100
AcDbSpline
210
0
220
0
230
1
70
8
71
3
72
8
73
4
74
0
42
1e-07
43
1e-07
40
0
40
0
40
0
40
0
40
1
40
1
40
1
40
1
10
58.5744497037
20
42.4596599285
30
0
10
58.2934640949
20
43.3699270335
30
0
10
57.9085704787
20
44.9864231648
30
0
10
57.9085704787
20
45.2591169598
30
0
0
SPLINE
5
CF
100
AcDbEntity
8
0
6
ByLayer
62
7
370
-1
100
AcDbSpline
210
0
220
0
230
1
70
8
71
3
72
8
73
4
74
0
42
1e-07
43
1e-07
40
0
40
0
40
0
40
0
40
1
40
1
40
1
40
1
10
57.9085704787
20
45.2591169598
30
0
10
57.9085704787
20
45.3753489135
30
0
10
57.8085940224
20
45.9090186573
30
0
10
57.6873789862
20
46.4434141535
30
0
0
SPLINE
5
D0
100
AcDbEntity
8
0
6
ByLayer
62
7
370
-1
100
AcDbSpline
210
0
220
0
230
1
70
8
71
3
72
8
73
4
74
0
42
1e-07
43
1e-07
40
0
40
0
40
0
40
0
40
1
40
1
40
1
40
1
10
57.6873789862
20
46.4434141535
30
0
10
57.5661644724
20
46.9778101723
30
0
10
57.4673889824
20
47.593057841
30
0
10
57.4661872324
20
47.812037591
30
0
0
SPLINE
5
D1
100
AcDbEntity
8
0
6
ByLayer
62
7
370
-1
100
AcDbSpline
210
0
220
0
230
1
70
8
71
3
72
8
73
4
74
0
42
1e-07
43
1e-07
40
0
40
0
40
0
40
0
40
1
40
1
40
1
40
1
10
57.4661872324
20
47.812037591
30
0
10
57.4649854824
20
48.031017341
30
0
10
57.3828717337
20
48.7689678648
30
0
10
57.2841649524
20
49.4502383723
30
0
0
SPLINE
5
D2
100
AcDbEntity
8
0
6
ByLayer
62
7
370
-1
100
AcDbSpline
210
0
220
0
230
1
70
8
71
3
72
8
73
4
74
0
42
1e-07
43
1e-07
40
0
40
0
40
0
40
0
40
1
40
1
40
1
40
1
10
57.2841649524
20
49.4502383723
30
0
10
57.1854589549
20
50.1315086185
30
0
10
57.0667297124
20
51.1463175235
30
0
10
57.0214997612
20
51.7059325273
30
0
0
SPLINE
5
D3
100
AcDbEntity
8
0
6
ByLayer
62
7
370
-1
100
AcDbSpline
210
0
220
0
230
1
70
8
71
3
72
8
73
4
74
0
42
1e-07
43
1e-07
40
0
40
0
40
0
40
0
40
1
40
1
40
1
40
1
10
57.0214997612
20
51.7059325273
30
0
10
56.9762698099
20
52.265547531
30
0
10
56.8777223912
20
52.9428546148
30
0
10
56.8026122324
20
53.2104966185
30
0
0
SPLINE
5
D4
100
AcDbEntity
8
0
6
ByLayer
62
7
370
-1
100
AcDbSpline
210
0
220
0
230
1
70
8
71
3
72
8
73
4
74
0
42
1e-07
43
1e-07
40
0
40
0
40
0
40
0
40
1
40
1
40
1
40
1
10
56.8026122324
20
53.2104966185
30
0
10
56.7275015512
20
53.4781386223
30
0
10
56.6321758674
20
53.9151764323
30
0
10
56.5883328924
20
54.182818436
30
0
0
SPLINE
5
D5
100
AcDbEntity
8
0
6
ByLayer
62
7
370
-1
100
AcDbSpline
210
0
220
0
230
1
70
8
71
3
72
8
73
4
74
0
42
1e-07
43
1e-07
40
0
40
0
40
0
40
0
40
1
40
1
40
1
40
1
10
56.5883328924
20
54.182818436
30
0
10
56.5083875187
20
54.6708592998
30
0
10
56.2237028712
20
55.4905580835
30
0
10
55.8602435112
20
56.2818352185
30
0
0
SPLINE
5
D6
100
AcDbEntity
8
0
6
ByLayer
62
7
370
-1
100
AcDbSpline
210
0
220
0
230
1
70
8
71
3
72
8
73
4
74
0
42
1e-07
43
1e-07
40
0
40
0
40
0
40
0
40
1
40
1
40
1
40
1
10
55.8602435112
20
56.2818352185
30
0
10
55.6048489074
20
56.8378452335
30
0
10
54.6551670149
20
58.164268436
30
0
10
54.5123567924
20
58.164268436
30
0
0
SPLINE
5
D7
100
AcDbEntity
8
0
6
ByLayer
62
7
370
-1
100
AcDbSpline
210
0
220
0
230
1
70
8
71
3
72
8
73
4
74
0
42
1e-07
43
1e-07
40
0
40
0
40
0
40
0
40
1
40
1
40
1
40
1
10
54.5123567924
20
58.164268436
30
0
10
54.2822415224
20
58.164268436
30
0
10
54.1624095437
20
58.5736578973
30
0
10
54.2381712599
20
59.1112450848
30
0
0
SPLINE
5
D8
100
AcDbEntity
8
0
6
ByLayer
62
7
370
-1
100
AcDbSpline
210
0
220
0
230
1
70
8
71
3
72
8
73
4
74
0
42
1e-07
43
1e-07
40
0
40
0
40
0
40
0
40
1
40
1
40
1
40
1
10
54.2381712599
20
59.1112450848
30
0
10
54.3307261262
20
59.7675709198
30
0
10
54.3327897399
20
60.690593556
30
0
10
54.2404754849
20
61.5051841185
30
0
0
SPLINE
5
D9
100
AcDbEntity
8
0
6
ByLayer
62
7
370
-1
100
AcDbSpline
210
0
220
0
230
1
70
8
71
3
72
8
73
4
74
0
42
1e-07
43
1e-07
40
0
40
0
40
0
40
0
40
1
40
1
40
1
40
1
10
54.2404754849
20
61.5051841185
30
0
10
54.1589359637
20
62.2246924823
30
0
10
54.2029568499
20
62.2740522735
30
0
10
54.6183446112
20
61.9245266823
30
0
0
SPLINE
5
DA
100
AcDbEntity
8
0
6
ByLayer
62
7
370
-1
100
AcDbSpline
210
0
220
0
230
1
70
8
71
3
72
8
73
4
74
0
42
1e-07
43
1e-07
40
0
40
0
40
0
40
0
40
1
40
1
40
1
40
1
10
54.6183446112
20
61.9245266823
30
0
10
54.7629242799
20
61.8028711785
30
0
10
54.9202681012
20
61.7033349285
30
0
10
54.9662606412
20
61.7033349285
30
0
0
SPLINE
5
DB
100
AcDbEntity
8
0
6
ByLayer
62
7
370
-1
100
AcDbSpline
210
0
220
0
230
1
70
8
71
3
72
8
73
4
74
0
42
1e-07
43
1e-07
40
0
40
0
40
0
40
0
40
1
40
1
40
1
40
1
10
54.9662606412
20
61.7033349285
30
0
10
55.0122521362
20
61.7033349285
30
0
10
55.0963654924
20
61.597437241
30
0
10
55.1551950737
20
61.4683188698
30
0
0
SPLINE
5
DC
100
AcDbEntity
8
0
6
ByLayer
62
7
370
-1
100
AcDbSpline
210
0
220
0
230
1
70
8
71
3
72
8
73
4
74
0
42
1e-07
43
1e-07
40
0
40
0
40
0
40
0
40
1
40
1
40
1
40
1
10
55.1551950737
20
61.4683188698
30
0
10
55.2572905287
20
61.244245006
30
0
10
55.2680869462
20
61.2407643723
30
0
10
55.3763868274
20
61.4015005248
30
0
0
SPLINE
5
DD
100
AcDbEntity
8
0
6
ByLayer
62
7
370
-1
100
AcDbSpline
210
0
220
0
230
1
70
8
71
3
72
8
73
4
74
0
42
1e-07
43
1e-07
40
0
40
0
40
0
40
0
40
1
40
1
40
1
40
1
10
55.3763868274
20
61.4015005248
30
0
10
55.4387931824
20
61.494122271
30
0
10
55.5534427449
20
61.7345650148
30
0
10
55.6321396049
20
61.9360470235
30
0
0
SPLINE
5
DE
100
AcDbEntity
8
0
6
ByLayer
62
7
370
-1
100
AcDbSpline
210
0
220
0
230
1
70
8
71
3
72
8
73
4
74
0
42
1e-07
43
1e-07
40
0
40
0
40
0
40
0
40
1
40
1
40
1
40
1
10
55.6321396049
20
61.9360470235
30
0
10
55.7108351587
20
62.1375282485
30
0
10
55.8573444199
20
62.4361369985
30
0
10
55.9570149524
20
62.5996220235
30
0
0
SPLINE
5
DF
100
AcDbEntity
8
0
6
ByLayer
62
7
370
-1
100
AcDbSpline
210
0
220
0
230
1
70
8
71
3
72
8
73
4
74
0
42
1e-07
43
1e-07
40
0
40
0
40
0
40
0
40
1
40
1
40
1
40
1
10
55.9570149524
20
62.5996220235
30
0
10
56.0566854849
20
62.7631062648
30
0
10
56.1388898874
20
62.9522841823
30
0
10
56.1390372324
20
63.0189645873
30
0
0
SPLINE
5
E0
100
AcDbEntity
8
0
6
ByLayer
62
7
370
-1
100
AcDbSpline
210
0
220
0
230
1
70
8
71
3
72
8
73
4
74
0
42
1e-07
43
1e-07
40
0
40
0
40
0
40
0
40
1
40
1
40
1
40
1
10
56.1390372324
20
63.0189645873
30
0
10
56.1397399949
20
63.276425156
30
0
10
55.6515233099
20
63.8786061448
30
0
10
55.3095684824
20
64.0419759585
30
0
0
SPLINE
5
E1
100
AcDbEntity
8
0
6
ByLayer
62
7
370
-1
100
AcDbSpline
210
0
220
0
230
1
70
8
71
3
72
8
73
4
74
0
42
1e-07
43
1e-07
40
0
40
0
40
0
40
0
40
1
40
1
40
1
40
1
10
55.3095684824
20
64.0419759585
30
0
10
54.9943533762
20
64.1925698635
30
0
10
54.9053031787
20
64.198263546
30
0
10
54.4639712024
20
64.0995781873
30
0
0
SPLINE
5
E2
100
AcDbEntity
8
0
6
ByLayer
62
7
370
-1
100
AcDbSpline
210
0
220
0
230
1
70
8
71
3
72
8
73
4
74
0
42
1e-07
43
1e-07
40
0
40
0
40
0
40
0
40
1
40
1
40
1
40
1
10
54.4639712024
20
64.0995781873
30
0
10
54.1929457499
20
64.038975241
30
0
10
53.9138335649
20
63.9835852773
30
0
10
53.8441736037
20
63.9751578748
30
0
0
SPLINE
5
E3
100
AcDbEntity
8
0
6
ByLayer
62
7
370
-1
100
AcDbSpline
210
0
220
0
230
1
70
8
71
3
72
8
73
4
74
0
42
1e-07
43
1e-07
40
0
40
0
40
0
40
0
40
1
40
1
40
1
40
1
10
53.8441736037
20
63.9751578748
30
0
10
53.6978613249
20
63.957455836
30
0
10
53.5997193662
20
64.1333959548
30
0
10
53.2128559249
20
65.1087649923
30
0
0
SPLINE
5
E4
100
AcDbEntity
8
0
6
ByLayer
62
7
370
-1
100
AcDbSpline
210
0
220
0
230
1
70
8
71
3
72
8
73
4
74
0
42
1e-07
43
1e-07
40
0
40
0
40
0
40
0
40
1
40
1
40
1
40
1
10
53.2128559249
20
65.1087649923
30
0
10
53.0584477699
20
65.4980624998
30
0
10
52.8572084624
20
65.9242707135
30
0
10
52.7658642287
20
66.0534376773
30
0
0
SPLINE
5
E5
100
AcDbEntity
8
0
6
ByLayer
62
7
370
-1
100
AcDbSpline
210
0
220
0
230
1
70
8
71
3
72
8
73
4
74
0
42
1e-07
43
1e-07
40
0
40
0
40
0
40
0
40
1
40
1
40
1
40
1
10
52.7658642287
20
66.0534376773
30
0
10
52.6745210399
20
66.182605686
30
0
10
52.5999704787
20
66.3473159735
30
0
10
52.5999704787
20
66.4220906873
30
0
0
SPLINE
5
E6
100
AcDbEntity
8
0
6
ByLayer
62
7
370
-1
100
AcDbSpline
210
0
220
0
230
1
70
8
71
3
72
8
73
4
74
0
42
1e-07
43
1e-07
40
0
40
0
40
0
40
0
40
1
40
1
40
1
40
1
10
52.5999704787
20
66.4220906873
30
0
10
52.5999704787
20
66.4968659235
30
0
10
52.5610776687
20
66.583254506
30
0
10
52.5124154149
20
66.6133290835
30
0
0
SPLINE
5
E7
100
AcDbEntity
8
0
6
ByLayer
62
7
370
-1
100
AcDbSpline
210
0
220
0
230
1
70
8
71
3
72
8
73
4
74
0
42
1e-07
43
1e-07
40
0
40
0
40
0
40
0
40
1
40
1
40
1
40
1
10
52.5124154149
20
66.6133290835
30
0
10
52.3909673437
20
66.6883862085
30
0
10
52.3962978887
20
64.9359073623
30
0
10
52.5193278287
20
64.3622431173
30
0
0
SPLINE
5
E8
100
AcDbEntity
8
0
6
ByLayer
62
7
370
-1
100
AcDbSpline
210
0
220
0
230
1
70
8
71
3
72
8
73
4
74
0
42
1e-07
43
1e-07
40
0
40
0
40
0
40
0
40
1
40
1
40
1
40
1
10
52.5193278287
20
64.3622431173
30
0
10
52.5892767324
20
64.0360745823
30
0
10
52.5884449124
20
63.8345006135
30
0
10
52.5147196399
20
63.6111130535
30
0
0
SPLINE
5
E9
100
AcDbEntity
8
0
6
ByLayer
62
7
370
-1
100
AcDbSpline
210
0
220
0
230
1
70
8
71
3
72
8
73
4
74
0
42
1e-07
43
1e-07
40
0
40
0
40
0
40
0
40
1
40
1
40
1
40
1
10
52.5147196399
20
63.6111130535
30
0
10
52.3929912474
20
63.242269331
30
0
10
52.1634967074
20
63.1535566685
30
0
10
51.1161431062
20
63.0673501773
30
0
0
SPLINE
5
EA
100
AcDbEntity
8
0
6
ByLayer
62
7
370
-1
100
AcDbSpline
210
0
220
0
230
1
70
8
71
3
72
8
73
4
74
0
42
1e-07
43
1e-07
40
0
40
0
40
0
40
0
40
1
40
1
40
1
40
1
10
51.1161431062
20
63.0673501773
30
0
10
50.5093369474
20
63.0174044023
30
0
10
50.3154669799
20
62.9606948648
30
0
10
49.9825357274
20
62.740170866
30
0
0
SPLINE
5
EB
100
AcDbEntity
8
0
6
ByLayer
62
7
370
-1
100
AcDbSpline
210
0
220
0
230
1
70
8
71
3
72
8
73
4
74
0
42
1e-07
43
1e-07
40
0
40
0
40
0
40
0
40
1
40
1
40
1
40
1
10
49.9825357274
20
62.740170866
30
0
10
49.7615469649
20
62.5937930135
30
0
10
49.5186437687
20
62.3803966985
30
0
10
49.4433810399
20
62.2655305598
30
0
0
SPLINE
5
EC
100
AcDbEntity
8
0
6
ByLayer
62
7
370
-1
100
AcDbSpline
210
0
220
0
230
1
70
8
71
3
72
8
73
4
74
0
42
1e-07
43
1e-07
40
0
40
0
40
0
40
0
40
1
40
1
40
1
40
1
10
49.4433810399
20
62.2655305598
30
0
10
49.2843597324
20
62.0228345348
30
0
10
49.3420635874
20
61.902148791
30
0
10
49.8926766999
20
61.3277700273
30
0
0
SPLINE
5
ED
100
AcDbEntity
8
0
6
ByLayer
62
7
370
-1
100
AcDbSpline
210
0
220
0
230
1
70
8
71
3
72
8
73
4
74
0
42
1e-07
43
1e-07
40
0
40
0
40
0
40
0
40
1
40
1
40
1
40
1
10
49.8926766999
20
61.3277700273
30
0
10
50.0677168124
20
61.1451732585
30
0
10
50.2106396337
20
60.9690560123
30
0
10
50.2106396337
20
60.9383805598
30
0
0
SPLINE
5
EE
100
AcDbEntity
8
0
6
ByLayer
62
7
370
-1
100
AcDbSpline
210
0
220
0
230
1
70
8
71
3
72
8
73
4
74
0
42
1e-07
43
1e-07
40
0
40
0
40
0
40
0
40
1
40
1
40
1
40
1
10
50.2106396337
20
60.9383805598
30
0
10
50.2106396337
20
60.9077035398
30
0
10
50.2954800487
20
60.812385171
30
0
10
50.3972701024
20
60.7241009585
30
0
0
SPLINE
5
EF
100
AcDbEntity
8
0
6
ByLayer
62
7
370
-1
100
AcDbSpline
210
0
220
0
230
1
70
8
71
3
72
8
73
4
74
0
42
1e-07
43
1e-07
40
0
40
0
40
0
40
0
40
1
40
1
40
1
40
1
10
50.3972701024
20
60.7241009585
30
0
10
50.4990625074
20
60.635816746
30
0
10
50.5580477937
20
60.5260873048
30
0
10
50.5309067924
20
60.4821727473
30
0
0
SPLINE
5
F0
100
AcDbEntity
8
0
6
ByLayer
62
7
370
-1
100
AcDbSpline
210
0
220
0
230
1
70
8
71
3
72
8
73
4
74
0
42
1e-07
43
1e-07
40
0
40
0
40
0
40
0
40
1
40
1
40
1
40
1
10
50.5309067924
20
60.4821727473
30
0
10
50.5037657912
20
60.438257406
30
0
10
50.0328451624
20
60.4007594098
30
0
10
49.4825505137
20
60.3992258723
30
0
0
SPLINE
5
F1
100
AcDbEntity
8
0
6
ByLayer
62
7
370
-1
100
AcDbSpline
210
0
220
0
230
1
70
8
71
3
72
8
73
4
74
0
42
1e-07
43
1e-07
40
0
40
0
40
0
40
0
40
1
40
1
40
1
40
1
10
49.4825505137
20
60.3992258723
30
0
10
48.6063579849
20
60.3967920673
30
0
10
48.3723547924
20
60.3617176873
30
0
10
47.6047254849
20
60.1158239623
30
0
0
SPLINE
5
F2
100
AcDbEntity
8
0
6
ByLayer
62
7
370
-1
100
AcDbSpline
210
0
220
0
230
1
70
8
71
3
72
8
73
4
74
0
42
1e-07
43
1e-07
40
0
40
0
40
0
40
0
40
1
40
1
40
1
40
1
10
47.6047254849
20
60.1158239623
30
0
10
46.7926452737
20
59.855690806
30
0
10
45.5399395062
20
59.2561322448
30
0
10
44.9711622037
20
58.8554923073
30
0
0
LWPOLYLINE
5
F3
100
AcDbEntity
8
0
6
ByLayer
62
7
370
-1
100
AcDbPolyline
90
3
70
0
43
0
10
57.8647930774
20
17.6424157735
10
68.8621661674
20
17.6424157735
10
68.7907396337
20
17.948858366
0
SPLINE
5
F4
100
AcDbEntity
8
0
6
ByLayer
62
7
370
-1
100
AcDbSpline
210
0
220
0
230
1
70
8
71
3
72
8
73
4
74
0
42
1e-07
43
1e-07
40
0
40
0
40
0
40
0
40
1
40
1
40
1
40
1
10
44.4642645762
20
58.977608656
30
0
10
44.3183141287
20
59.1380838198
30
0
10
44.1984142249
20
59.3144325335
30
0
10
44.1969911962
20
59.3693020873
30
0
0
SPLINE
5
F5
100
AcDbEntity
8
0
6
ByLayer
62
7
370
-1
100
AcDbSpline
210
0
220
0
230
1
70
8
71
3
72
8
73
4
74
0
42
1e-07
43
1e-07
40
0
40
0
40
0
40
0
40
1
40
1
40
1
40
1
10
44.1969911962
20
59.3693020873
30
0
10
44.1955645099
20
59.4241708573
30
0
10
44.1401199449
20
59.5160007548
30
0
10
44.0725708837
20
59.572061086
30
0
0
SPLINE
5
F6
100
AcDbEntity
8
0
6
ByLayer
62
7
370
-1
100
AcDbSpline
210
0
220
0
230
1
70
8
71
3
72
8
73
4
74
0
42
1e-07
43
1e-07
40
0
40
0
40
0
40
0
40
1
40
1
40
1
40
1
10
44.0725708837
20
59.572061086
30
0
10
43.9198485749
20
59.698809136
30
0
10
42.8675372324
20
61.8011989173
30
0
10
42.8675372324
20
61.979824686
30
0
0
SPLINE
5
F7
100
AcDbEntity
8
0
6
ByLayer
62
7
370
-1
100
AcDbSpline
210
0
220
0
230
1
70
8
71
3
72
8
73
4
74
0
42
1e-07
43
1e-07
40
0
40
0
40
0
40
0
40
1
40
1
40
1
40
1
10
42.8675372324
20
61.979824686
30
0
10
42.8675372324
20
62.051620366
30
0
10
42.8333675612
20
62.1478750548
30
0
10
42.7915025099
20
62.194104026
30
0
0
SPLINE
5
F8
100
AcDbEntity
8
0
6
ByLayer
62
7
370
-1
100
AcDbSpline
210
0
220
0
230
1
70
8
71
3
72
8
73
4
74
0
42
1e-07
43
1e-07
40
0
40
0
40
0
40
0
40
1
40
1
40
1
40
1
10
42.7915025099
20
62.194104026
30
0
10
42.7496377199
20
62.2403329973
30
0
10
42.6452291574
20
62.497874031
30
0
10
42.5587904149
20
62.7655157735
30
0
0
SPLINE
5
F9
100
AcDbEntity
8
0
6
ByLayer
62
7
370
-1
100
AcDbSpline
210
0
220
0
230
1
70
8
71
3
72
8
73
4
74
0
42
1e-07
43
1e-07
40
0
40
0
40
0
40
0
40
1
40
1
40
1
40
1
10
42.5587904149
20
62.7655157735
30
0
10
42.4723511499
20
63.0331577773
30
0
10
42.3677766937
20
63.3317665273
30
0
10
42.3283825449
20
63.4290907735
30
0
0
SPLINE
5
FA
100
AcDbEntity
8
0
6
ByLayer
62
7
370
-1
100
AcDbSpline
210
0
220
0
230
1
70
8
71
3
72
8
73
4
74
0
42
1e-07
43
1e-07
40
0
40
0
40
0
40
0
40
1
40
1
40
1
40
1
10
42.3283825449
20
63.4290907735
30
0
10
42.2889883962
20
63.526415281
30
0
10
42.1986499749
20
63.825024031
30
0
10
42.1256235462
20
64.0926657735
30
0
0
SPLINE
5
FB
100
AcDbEntity
8
0
6
ByLayer
62
7
370
-1
100
AcDbSpline
210
0
220
0
230
1
70
8
71
3
72
8
73
4
74
0
42
1e-07
43
1e-07
40
0
40
0
40
0
40
0
40
1
40
1
40
1
40
1
10
42.1256235462
20
64.0926657735
30
0
10
41.6603195312
20
65.7980138135
30
0
10
41.5395723937
20
66.3020580685
30
0
10
41.5334750799
20
66.574159871
30
0
0
SPLINE
5
FC
100
AcDbEntity
8
0
6
ByLayer
62
7
370
-1
100
AcDbSpline
210
0
220
0
230
1
70
8
71
3
72
8
73
4
74
0
42
1e-07
43
1e-07
40
0
40
0
40
0
40
0
40
1
40
1
40
1
40
1
10
41.5334750799
20
66.574159871
30
0
10
41.5247984449
20
66.9614582935
30
0
10
41.2237882849
20
67.8140630823
30
0
10
41.1602141424
20
67.6317325273
30
0
0
SPLINE
5
FD
100
AcDbEntity
8
0
6
ByLayer
62
7
370
-1
100
AcDbSpline
210
0
220
0
230
1
70
8
71
3
72
8
73
4
74
0
42
1e-07
43
1e-07
40
0
40
0
40
0
40
0
40
1
40
1
40
1
40
1
10
41.1602141424
20
67.6317325273
30
0
10
40.8594286574
20
66.7690834598
30
0
10
40.8699183674
20
64.654629676
30
0
10
41.1809508612
20
63.1180399923
30
0
0
SPLINE
5
FE
100
AcDbEntity
8
0
6
ByLayer
62
7
370
-1
100
AcDbSpline
210
0
220
0
230
1
70
8
71
3
72
8
73
4
74
0
42
1e-07
43
1e-07
40
0
40
0
40
0
40
0
40
1
40
1
40
1
40
1
10
41.1809508612
20
63.1180399923
30
0
10
41.4651864199
20
61.7138319535
30
0
10
41.9945282962
20
60.074663241
30
0
10
42.3813763237
20
59.4038633723
30
0
0
SPLINE
5
FF
100
AcDbEntity
8
0
6
ByLayer
62
7
370
-1
100
AcDbSpline
210
0
220
0
230
1
70
8
71
3
72
8
73
4
74
0
42
1e-07
43
1e-07
40
0
40
0
40
0
40
0
40
1
40
1
40
1
40
1
10
42.3813763237
20
59.4038633723
30
0
10
42.4515339662
20
59.2822078685
30
0
10
42.5843994462
20
59.0208774035
30
0
10
42.6762985749
20
58.825539211
30
0
0
SPLINE
5
100
100
AcDbEntity
8
0
6
ByLayer
62
7
370
-1
100
AcDbSpline
210
0
220
0
230
1
70
8
71
3
72
8
73
4
74
0
42
1e-07
43
1e-07
40
0
40
0
40
0
40
0
40
1
40
1
40
1
40
1
10
42.6762985749
20
58.825539211
30
0
10
42.7681992712
20
58.6302012798
30
0
10
42.9077078162
20
58.4169959385
30
0
10
42.9873493562
20
58.3508989048
30
0
0
SPLINE
5
101
100
AcDbEntity
8
0
6
ByLayer
62
7
370
-1
100
AcDbSpline
210
0
220
0
230
1
70
8
71
3
72
8
73
4
74
0
42
1e-07
43
1e-07
40
0
40
0
40
0
40
0
40
1
40
1
40
1
40
1
10
42.9873493562
20
58.3508989048
30
0
10
43.0669916799
20
58.2848023935
30
0
10
43.1325063874
20
58.1815671048
30
0
10
43.1325063874
20
58.1204907735
30
0
0
SPLINE
5
102
100
AcDbEntity
8
0
6
ByLayer
62
7
370
-1
100
AcDbSpline
210
0
220
0
230
1
70
8
71
3
72
8
73
4
74
0
42
1e-07
43
1e-07
40
0
40
0
40
0
40
0
40
1
40
1
40
1
40
1
10
43.1325063874
20
58.1204907735
30
0
10
43.1325063874
20
58.0594147035
30
0
10
43.1931498274
20
57.9598784535
30
0
10
43.2661430774
20
57.899299281
30
0
0
SPLINE
5
103
100
AcDbEntity
8
0
6
ByLayer
62
7
370
-1
100
AcDbSpline
210
0
220
0
230
1
70
8
71
3
72
8
73
4
74
0
42
1e-07
43
1e-07
40
0
40
0
40
0
40
0
40
1
40
1
40
1
40
1
10
43.2661430774
20
57.899299281
30
0
10
43.4738449262
20
57.7269231348
30
0
10
43.4242523612
20
57.4617938335
30
0
10
43.1094657049
20
57.067526306
30
0
0
SPLINE
5
104
100
AcDbEntity
8
0
6
ByLayer
62
7
370
-1
100
AcDbSpline
210
0
220
0
230
1
70
8
71
3
72
8
73
4
74
0
42
1e-07
43
1e-07
40
0
40
0
40
0
40
0
40
1
40
1
40
1
40
1
10
43.1094657049
20
57.067526306
30
0
10
42.9500556574
20
56.8678662548
30
0
10
42.7004681187
20
56.5261596148
30
0
10
42.5564864512
20
56.3071798648
30
0
0
SPLINE
5
105
100
AcDbEntity
8
0
6
ByLayer
62
7
370
-1
100
AcDbSpline
210
0
220
0
230
1
70
8
71
3
72
8
73
4
74
0
42
1e-07
43
1e-07
40
0
40
0
40
0
40
0
40
1
40
1
40
1
40
1
10
42.5564864512
20
56.3071798648
30
0
10
41.7219147049
20
55.0378862898
30
0
10
41.5652660699
20
54.619262686
30
0
10
41.4390076024
20
53.3464372723
30
0
0
SPLINE
5
106
100
AcDbEntity
8
0
6
ByLayer
62
7
370
-1
100
AcDbSpline
210
0
220
0
230
1
70
8
71
3
72
8
73
4
74
0
42
1e-07
43
1e-07
40
0
40
0
40
0
40
0
40
1
40
1
40
1
40
1
10
41.4390076024
20
53.3464372723
30
0
10
41.2955134274
20
51.8998704198
30
0
10
41.3905888337
20
51.5311918073
30
0
10
42.0173317637
20
51.1091758723
30
0
0
SPLINE
5
107
100
AcDbEntity
8
0
6
ByLayer
62
7
370
-1
100
AcDbSpline
210
0
220
0
230
1
70
8
71
3
72
8
73
4
74
0
42
1e-07
43
1e-07
40
0
40
0
40
0
40
0
40
1
40
1
40
1
40
1
10
42.0173317637
20
51.1091758723
30
0
10
42.2518229712
20
50.9512831648
30
0
10
42.5590448724
20
50.672121081
30
0
10
42.6993395187
20
50.4893782735
30
0
0
SPLINE
5
108
100
AcDbEntity
8
0
6
ByLayer
62
7
370
-1
100
AcDbSpline
210
0
220
0
230
1
70
8
71
3
72
8
73
4
74
0
42
1e-07
43
1e-07
40
0
40
0
40
0
40
0
40
1
40
1
40
1
40
1
10
42.6993395187
20
50.4893782735
30
0
10
42.8396331199
20
50.3066370335
30
0
10
42.9962869799
20
50.1076154773
30
0
10
43.0472555487
20
50.0469950273
30
0
0
SPLINE
5
109
100
AcDbEntity
8
0
6
ByLayer
62
7
370
-1
100
AcDbSpline
210
0
220
0
230
1
70
8
71
3
72
8
73
4
74
0
42
1e-07
43
1e-07
40
0
40
0
40
0
40
0
40
1
40
1
40
1
40
1
10
43.0472555487
20
50.0469950273
30
0
10
43.1004666874
20
49.9837061698
30
0
10
43.1744059237
20
49.0418860735
30
0
10
43.2223654149
20
47.8350782735
30
0
0
SPLINE
5
10A
100
AcDbEntity
8
0
6
ByLayer
62
7
370
-1
100
AcDbSpline
210
0
220
0
230
1
70
8
71
3
72
8
73
4
74
0
42
1e-07
43
1e-07
40
0
40
0
40
0
40
0
40
1
40
1
40
1
40
1
10
43.2223654149
20
47.8350782735
30
0
10
43.3753173624
20
43.9863505885
30
0
10
43.5798238624
20
41.5882665623
30
0
10
43.8421630137
20
40.5357532735
30
0
0
SPLINE
5
10B
100
AcDbEntity
8
0
6
ByLayer
62
7
370
-1
100
AcDbSpline
210
0
220
0
230
1
70
8
71
3
72
8
73
4
74
0
42
1e-07
43
1e-07
40
0
40
0
40
0
40
0
40
1
40
1
40
1
40
1
10
43.8421630137
20
40.5357532735
30
0
10
43.9422353487
20
40.1342632285
30
0
10
44.0476949199
20
39.5067511785
30
0
10
44.0771790724
20
39.1417849285
30
0
0
SPLINE
5
10C
100
AcDbEntity
8
0
6
ByLayer
62
7
370
-1
100
AcDbSpline
210
0
220
0
230
1
70
8
71
3
72
8
73
4
74
0
42
1e-07
43
1e-07
40
0
40
0
40
0
40
0
40
1
40
1
40
1
40
1
10
44.0771790724
20
39.1417849285
30
0
10
44.1066624412
20
38.7768186785
30
0
10
44.1683271074
20
38.431540751
30
0
10
44.2131199874
20
38.3745263348
30
0
0
SPLINE
5
10D
100
AcDbEntity
8
0
6
ByLayer
62
7
370
-1
100
AcDbSpline
210
0
220
0
230
1
70
8
71
3
72
8
73
4
74
0
42
1e-07
43
1e-07
40
0
40
0
40
0
40
0
40
1
40
1
40
1
40
1
10
44.2131199874
20
38.3745263348
30
0
10
44.2631245437
20
38.3108813935
30
0
10
44.2603670499
20
38.2088760698
30
0
10
44.2062075737
20
38.1095571798
30
0
0
SPLINE
5
10E
100
AcDbEntity
8
0
6
ByLayer
62
7
370
-1
100
AcDbSpline
210
0
220
0
230
1
70
8
71
3
72
8
73
4
74
0
42
1e-07
43
1e-07
40
0
40
0
40
0
40
0
40
1
40
1
40
1
40
1
10
44.2062075737
20
38.1095571798
30
0
10
44.1576913587
20
38.020585096
30
0
10
44.0938562274
20
37.8378600535
30
0
10
44.0656587312
20
37.7040391823
30
0
0
SPLINE
5
10F
100
AcDbEntity
8
0
6
ByLayer
62
7
370
-1
100
AcDbSpline
210
0
220
0
230
1
70
8
71
3
72
8
73
4
74
0
42
1e-07
43
1e-07
40
0
40
0
40
0
40
0
40
1
40
1
40
1
40
1
10
44.0656587312
20
37.7040391823
30
0
10
44.0374612349
20
37.570218311
30
0
10
43.9826358324
20
37.459806746
30
0
10
43.9435426437
20
37.459806746
30
0
0
SPLINE
5
110
100
AcDbEntity
8
0
6
ByLayer
62
7
370
-1
100
AcDbSpline
210
0
220
0
230
1
70
8
71
3
72
8
73
4
74
0
42
1e-07
43
1e-07
40
0
40
0
40
0
40
0
40
1
40
1
40
1
40
1
10
43.9435426437
20
37.459806746
30
0
10
43.8547693712
20
37.459806746
30
0
10
43.0891535174
20
37.887286986
30
0
10
42.3491192637
20
38.3491814273
30
0
0
SPLINE
5
111
100
AcDbEntity
8
0
6
ByLayer
62
7
370
-1
100
AcDbSpline
210
0
220
0
230
1
70
8
71
3
72
8
73
4
74
0
42
1e-07
43
1e-07
40
0
40
0
40
0
40
0
40
1
40
1
40
1
40
1
10
42.3491192637
20
38.3491814273
30
0
10
42.0400944762
20
38.5420591673
30
0
10
41.7579225312
20
38.6994016823
30
0
10
41.7201055487
20
38.6994016823
30
0
0
SPLINE
5
112
100
AcDbEntity
8
0
6
ByLayer
62
7
370
-1
100
AcDbSpline
210
0
220
0
230
1
70
8
71
3
72
8
73
4
74
0
42
1e-07
43
1e-07
40
0
40
0
40
0
40
0
40
1
40
1
40
1
40
1
10
41.7201055487
20
38.6994016823
30
0
10
41.6822875212
20
38.6994016823
30
0
10
41.6031585537
20
38.7560430335
30
0
10
41.5449954212
20
38.8261259585
30
0
0
SPLINE
5
113
100
AcDbEntity
8
0
6
ByLayer
62
7
370
-1
100
AcDbSpline
210
0
220
0
230
1
70
8
71
3
72
8
73
4
74
0
42
1e-07
43
1e-07
40
0
40
0
40
0
40
0
40
1
40
1
40
1
40
1
10
41.5449954212
20
38.8261259585
30
0
10
41.4868315049
20
38.8962091448
30
0
10
41.1651666587
20
39.0612632373
30
0
10
40.8307306062
20
39.1924747435
30
0
0
SPLINE
5
114
100
AcDbEntity
8
0
6
ByLayer
62
7
370
-1
100
AcDbSpline
210
0
220
0
230
1
70
8
71
3
72
8
73
4
74
0
42
1e-07
43
1e-07
40
0
40
0
40
0
40
0
40
1
40
1
40
1
40
1
10
40.8307306062
20
39.1924747435
30
0
10
40.4962948149
20
39.3236870335
30
0
10
40.1952300537
20
39.4964401635
30
0
10
40.1625474174
20
39.5749520585
30
0
0
SPLINE
5
115
100
AcDbEntity
8
0
6
ByLayer
62
7
370
-1
100
AcDbSpline
210
0
220
0
230
1
70
8
71
3
72
8
73
4
74
0
42
1e-07
43
1e-07
40
0
40
0
40
0
40
0
40
1
40
1
40
1
40
1
10
40.1625474174
20
39.5749520585
30
0
10
40.1298655649
20
39.653465521
30
0
10
40.0757666987
20
40.234932781
30
0
10
40.0404313299
20
40.8675407735
30
0
0
SPLINE
5
116
100
AcDbEntity
8
0
6
ByLayer
62
7
370
-1
100
AcDbSpline
210
0
220
0
230
1
70
8
71
3
72
8
73
4
74
0
42
1e-07
43
1e-07
40
0
40
0
40
0
40
0
40
1
40
1
40
1
40
1
10
40.0404313299
20
40.8675407735
30
0
10
40.0050972674
20
41.5001490273
30
0
10
39.9285282887
20
42.1291282573
30
0
10
39.8722333549
20
42.2661173073
30
0
0
SPLINE
5
117
100
AcDbEntity
8
0
6
ByLayer
62
7
370
-1
100
AcDbSpline
210
0
220
0
230
1
70
8
71
3
72
8
73
4
74
0
42
1e-07
43
1e-07
40
0
40
0
40
0
40
0
40
1
40
1
40
1
40
1
10
39.8722333549
20
42.2661173073
30
0
10
39.8159386824
20
42.4031058348
30
0
10
39.7708539862
20
42.6913126548
30
0
10
39.7708539862
20
42.9066516248
30
0
0
SPLINE
5
118
100
AcDbEntity
8
0
6
ByLayer
62
7
370
-1
100
AcDbSpline
210
0
220
0
230
1
70
8
71
3
72
8
73
4
74
0
42
1e-07
43
1e-07
40
0
40
0
40
0
40
0
40
1
40
1
40
1
40
1
10
39.7708539862
20
42.9066516248
30
0
10
39.7708539862
20
43.2711672185
30
0
10
39.7427824124
20
43.3202866598
30
0
10
39.3515114224
20
43.6093958373
30
0
0
SPLINE
5
119
100
AcDbEntity
8
0
6
ByLayer
62
7
370
-1
100
AcDbSpline
210
0
220
0
230
1
70
8
71
3
72
8
73
4
74
0
42
1e-07
43
1e-07
40
0
40
0
40
0
40
0
40
1
40
1
40
1
40
1
10
39.3515114224
20
43.6093958373
30
0
10
38.8093411262
20
44.0100033798
30
0
10
38.6163978124
20
44.0542115823
30
0
10
38.0289696112
20
43.9227508435
30
0
0
SPLINE
5
11A
100
AcDbEntity
8
0
6
ByLayer
62
7
370
-1
100
AcDbSpline
210
0
220
0
230
1
70
8
71
3
72
8
73
4
74
0
42
1e-07
43
1e-07
40
0
40
0
40
0
40
0
40
1
40
1
40
1
40
1
10
38.0289696112
20
43.9227508435
30
0
10
37.4512168037
20
43.7934561285
30
0
10
37.0686349887
20
43.600554876
30
0
10
36.7985907912
20
43.300649281
30
0
0
SPLINE
5
11B
100
AcDbEntity
8
0
6
ByLayer
62
7
370
-1
100
AcDbSpline
210
0
220
0
230
1
70
8
71
3
72
8
73
4
74
0
42
1e-07
43
1e-07
40
0
40
0
40
0
40
0
40
1
40
1
40
1
40
1
10
36.7985907912
20
43.300649281
30
0
10
36.5756703462
20
43.0530775473
30
0
10
36.4677471874
20
42.4107766573
30
0
10
36.3469911674
20
40.609483771
30
0
0
LWPOLYLINE
5
11C
100
AcDbEntity
8
0
6
ByLayer
62
7
370
-1
100
AcDbPolyline
90
3
70
0
43
0
10
44.9711622037
20
58.8554923073
10
44.7315379562
20
58.6872945935
10
44.4642645762
20
58.977608656
0
SPLINE
5
11D
100
AcDbEntity
8
0
6
ByLayer
62
7
370
-1
100
AcDbSpline
210
0
220
0
230
1
70
8
71
3
72
8
73
4
74
0
42
1e-07
43
1e-07
40
0
40
0
40
0
40
0
40
1
40
1
40
1
40
1
10
35.7225856412
20
39.3215032448
30
0
10
35.4186040237
20
39.1928101885
30
0
10
35.0534188462
20
38.999535871
30
0
10
34.9092454212
20
38.8929443035
30
0
0
SPLINE
5
11E
100
AcDbEntity
8
0
6
ByLayer
62
7
370
-1
100
AcDbSpline
210
0
220
0
230
1
70
8
71
3
72
8
73
4
74
0
42
1e-07
43
1e-07
40
0
40
0
40
0
40
0
40
1
40
1
40
1
40
1
10
34.9092454212
20
38.8929443035
30
0
10
34.7650727799
20
38.786352736
30
0
10
34.6084865837
20
38.6994016823
30
0
10
34.5613293912
20
38.6994016823
30
0
0
SPLINE
5
11F
100
AcDbEntity
8
0
6
ByLayer
62
7
370
-1
100
AcDbSpline
210
0
220
0
230
1
70
8
71
3
72
8
73
4
74
0
42
1e-07
43
1e-07
40
0
40
0
40
0
40
0
40
1
40
1
40
1
40
1
10
34.5613293912
20
38.6994016823
30
0
10
34.5141735049
20
38.6994016823
30
0
10
34.4190116249
20
38.6446397635
30
0
10
34.3516579787
20
38.5772853335
30
0
0
SPLINE
5
120
100
AcDbEntity
8
0
6
ByLayer
62
7
370
-1
100
AcDbSpline
210
0
220
0
230
1
70
8
71
3
72
8
73
4
74
0
42
1e-07
43
1e-07
40
0
40
0
40
0
40
0
40
1
40
1
40
1
40
1
10
34.3516579787
20
38.5772853335
30
0
10
34.2843045937
20
38.5099311648
30
0
10
34.0537778549
20
38.364214536
30
0
10
33.8378481987
20
38.254714211
30
0
0
SPLINE
5
121
100
AcDbEntity
8
0
6
ByLayer
62
7
370
-1
100
AcDbSpline
210
0
220
0
230
1
70
8
71
3
72
8
73
4
74
0
42
1e-07
43
1e-07
40
0
40
0
40
0
40
0
40
1
40
1
40
1
40
1
10
33.8378481987
20
38.254714211
30
0
10
33.6219195874
20
38.1452141473
30
0
10
33.4244041374
20
38.0290942698
30
0
10
33.4000731412
20
37.9966572085
30
0
0
SPLINE
5
122
100
AcDbEntity
8
0
6
ByLayer
62
7
370
-1
100
AcDbSpline
210
0
220
0
230
1
70
8
71
3
72
8
73
4
74
0
42
1e-07
43
1e-07
40
0
40
0
40
0
40
0
40
1
40
1
40
1
40
1
10
33.4000731412
20
37.9966572085
30
0
10
33.2958696599
20
37.857733341
30
0
10
32.4102514924
20
37.4595368748
30
0
10
32.3240677299
20
37.5128005248
30
0
0
SPLINE
5
123
100
AcDbEntity
8
0
6
ByLayer
62
7
370
-1
100
AcDbSpline
210
0
220
0
230
1
70
8
71
3
72
8
73
4
74
0
42
1e-07
43
1e-07
40
0
40
0
40
0
40
0
40
1
40
1
40
1
40
1
10
32.3240677299
20
37.5128005248
30
0
10
32.2657373974
20
37.5488517185
30
0
10
32.2493131324
20
37.7447045735
30
0
10
32.2802903287
20
38.024306341
30
0
0
SPLINE
5
124
100
AcDbEntity
8
0
6
ByLayer
62
7
370
-1
100
AcDbSpline
210
0
220
0
230
1
70
8
71
3
72
8
73
4
74
0
42
1e-07
43
1e-07
40
0
40
0
40
0
40
0
40
1
40
1
40
1
40
1
10
32.2802903287
20
38.024306341
30
0
10
32.3079039312
20
38.273547201
30
0
10
32.3088203962
20
38.4284418035
30
0
10
32.2825942924
20
38.3676141823
30
0
0
SPLINE
5
125
100
AcDbEntity
8
0
6
ByLayer
62
7
370
-1
100
AcDbSpline
210
0
220
0
230
1
70
8
71
3
72
8
73
4
74
0
42
1e-07
43
1e-07
40
0
40
0
40
0
40
0
40
1
40
1
40
1
40
1
10
32.2825942924
20
38.3676141823
30
0
10
32.2168193799
20
38.2150611635
30
0
10
32.1030551937
20
38.228980041
30
0
10
32.0383618562
20
38.3975672785
30
0
0
SPLINE
5
126
100
AcDbEntity
8
0
6
ByLayer
62
7
370
-1
100
AcDbSpline
210
0
220
0
230
1
70
8
71
3
72
8
73
4
74
0
42
1e-07
43
1e-07
40
0
40
0
40
0
40
0
40
1
40
1
40
1
40
1
10
32.0383618562
20
38.3975672785
30
0
10
31.9646718524
20
38.5895985685
30
0
10
32.0737452949
20
38.7530856835
30
0
10
32.1719985462
20
38.5980220523
30
0
0
SPLINE
5
127
100
AcDbEntity
8
0
6
ByLayer
62
7
370
-1
100
AcDbSpline
210
0
220
0
230
1
70
8
71
3
72
8
73
4
74
0
42
1e-07
43
1e-07
40
0
40
0
40
0
40
0
40
1
40
1
40
1
40
1
10
32.1719985462
20
38.5980220523
30
0
10
32.2189723412
20
38.5238876623
30
0
10
32.2475907112
20
38.699061796
30
0
10
32.2480332687
20
39.0542298648
30
0
0
SPLINE
5
128
100
AcDbEntity
8
0
6
ByLayer
62
7
370
-1
100
AcDbSpline
210
0
220
0
230
1
70
8
71
3
72
8
73
4
74
0
42
1e-07
43
1e-07
40
0
40
0
40
0
40
0
40
1
40
1
40
1
40
1
10
32.2480332687
20
39.0542298648
30
0
10
32.2484063337
20
39.3705341223
30
0
10
32.3457702899
20
40.0260908373
30
0
10
32.4646165724
20
40.512712591
30
0
0
SPLINE
5
129
100
AcDbEntity
8
0
6
ByLayer
62
7
370
-1
100
AcDbSpline
210
0
220
0
230
1
70
8
71
3
72
8
73
4
74
0
42
1e-07
43
1e-07
40
0
40
0
40
0
40
0
40
1
40
1
40
1
40
1
10
32.4646165724
20
40.512712591
30
0
10
32.8552890387
20
42.1123403323
30
0
10
33.1417446999
20
45.2627107148
30
0
10
33.1673610462
20
48.2567250623
30
0
0
SPLINE
5
12A
100
AcDbEntity
8
0
6
ByLayer
62
7
370
-1
100
AcDbSpline
210
0
220
0
230
1
70
8
71
3
72
8
73
4
74
0
42
1e-07
43
1e-07
40
0
40
0
40
0
40
0
40
1
40
1
40
1
40
1
10
33.1673610462
20
48.2567250623
30
0
10
33.1791010987
20
49.6288821673
30
0
10
33.1924951249
20
49.733385041
30
0
10
33.3793364224
20
49.9709603048
30
0
0
SPLINE
5
12B
100
AcDbEntity
8
0
6
ByLayer
62
7
370
-1
100
AcDbSpline
210
0
220
0
230
1
70
8
71
3
72
8
73
4
74
0
42
1e-07
43
1e-07
40
0
40
0
40
0
40
0
40
1
40
1
40
1
40
1
10
33.3793364224
20
49.9709603048
30
0
10
33.4888262974
20
50.1101812135
30
0
10
33.5774872324
20
50.2800948173
30
0
10
33.5774872324
20
50.3465254673
30
0
0
SPLINE
5
12C
100
AcDbEntity
8
0
6
ByLayer
62
7
370
-1
100
AcDbSpline
210
0
220
0
230
1
70
8
71
3
72
8
73
4
74
0
42
1e-07
43
1e-07
40
0
40
0
40
0
40
0
40
1
40
1
40
1
40
1
10
33.5774872324
20
50.3465254673
30
0
10
33.5774872324
20
50.4129566398
30
0
10
33.6157209087
20
50.466337591
30
0
10
33.6627380712
20
50.466337591
30
0
0
SPLINE
5
12D
100
AcDbEntity
8
0
6
ByLayer
62
7
370
-1
100
AcDbSpline
210
0
220
0
230
1
70
8
71
3
72
8
73
4
74
0
42
1e-07
43
1e-07
40
0
40
0
40
0
40
0
40
1
40
1
40
1
40
1
10
33.6627380712
20
50.466337591
30
0
10
33.8391332874
20
50.466337591
30
0
10
34.4622539862
20
51.1270223823
30
0
10
34.4622539862
20
51.3142388348
30
0
0
SPLINE
5
12E
100
AcDbEntity
8
0
6
ByLayer
62
7
370
-1
100
AcDbSpline
210
0
220
0
230
1
70
8
71
3
72
8
73
4
74
0
42
1e-07
43
1e-07
40
0
40
0
40
0
40
0
40
1
40
1
40
1
40
1
10
34.4622539862
20
51.3142388348
30
0
10
34.4622539862
20
51.4198512373
30
0
10
34.5687671787
20
51.740511316
30
0
10
34.6995740087
20
52.026199686
30
0
0
SPLINE
5
12F
100
AcDbEntity
8
0
6
ByLayer
62
7
370
-1
100
AcDbSpline
210
0
220
0
230
1
70
8
71
3
72
8
73
4
74
0
42
1e-07
43
1e-07
40
0
40
0
40
0
40
0
40
1
40
1
40
1
40
1
10
34.6995740087
20
52.026199686
30
0
10
34.9136226649
20
52.4936927148
30
0
10
34.9378013524
20
52.6426297723
30
0
10
34.9322861037
20
53.519243436
30
0
0
SPLINE
5
130
100
AcDbEntity
8
0
6
ByLayer
62
7
370
-1
100
AcDbSpline
210
0
220
0
230
1
70
8
71
3
72
8
73
4
74
0
42
1e-07
43
1e-07
40
0
40
0
40
0
40
0
40
1
40
1
40
1
40
1
10
34.9322861037
20
53.519243436
30
0
10
34.9264960199
20
54.4405433898
30
0
10
34.9103484187
20
54.522395366
30
0
10
34.6419720412
20
55.0238075273
30
0
0
SPLINE
5
131
100
AcDbEntity
8
0
6
ByLayer
62
7
370
-1
100
AcDbSpline
210
0
220
0
230
1
70
8
71
3
72
8
73
4
74
0
42
1e-07
43
1e-07
40
0
40
0
40
0
40
0
40
1
40
1
40
1
40
1
10
34.6419720412
20
55.0238075273
30
0
10
34.4859206237
20
55.315360176
30
0
10
34.2228147037
20
55.7333719323
30
0
10
34.0567357274
20
55.9523516823
30
0
0
SPLINE
5
132
100
AcDbEntity
8
0
6
ByLayer
62
7
370
-1
100
AcDbSpline
210
0
220
0
230
1
70
8
71
3
72
8
73
4
74
0
42
1e-07
43
1e-07
40
0
40
0
40
0
40
0
40
1
40
1
40
1
40
1
10
34.0567357274
20
55.9523516823
30
0
10
33.8906562287
20
56.1713314323
30
0
10
33.7064044412
20
56.4504937773
30
0
10
33.6466095412
20
56.572149281
30
0
0
SPLINE
5
133
100
AcDbEntity
8
0
6
ByLayer
62
7
370
-1
100
AcDbSpline
210
0
220
0
230
1
70
8
71
3
72
8
73
4
74
0
42
1e-07
43
1e-07
40
0
40
0
40
0
40
0
40
1
40
1
40
1
40
1
10
33.6466095412
20
56.572149281
30
0
10
33.5868149024
20
56.6938045235
30
0
10
33.5158823924
20
56.8127871785
30
0
10
33.4899321687
20
56.837118436
30
0
0
SPLINE
5
134
100
AcDbEntity
8
0
6
ByLayer
62
7
370
-1
100
AcDbSpline
210
0
220
0
230
1
70
8
71
3
72
8
73
4
74
0
42
1e-07
43
1e-07
40
0
40
0
40
0
40
0
40
1
40
1
40
1
40
1
10
33.4899321687
20
56.837118436
30
0
10
33.4639819449
20
56.8614494323
30
0
10
33.2347442137
20
57.1406117773
30
0
10
32.9807305774
20
57.4569157735
30
0
0
SPLINE
5
135
100
AcDbEntity
8
0
6
ByLayer
62
7
370
-1
100
AcDbSpline
210
0
220
0
230
1
70
8
71
3
72
8
73
4
74
0
42
1e-07
43
1e-07
40
0
40
0
40
0
40
0
40
1
40
1
40
1
40
1
10
32.9807305774
20
57.4569157735
30
0
10
32.7267156349
20
57.773220031
30
0
10
32.3777104537
20
58.1435766523
30
0
10
32.2065598312
20
58.279472371
30
0
0
SPLINE
5
136
100
AcDbEntity
8
0
6
ByLayer
62
7
370
-1
100
AcDbSpline
210
0
220
0
230
1
70
8
71
3
72
8
73
4
74
0
42
1e-07
43
1e-07
40
0
40
0
40
0
40
0
40
1
40
1
40
1
40
1
10
32.2065598312
20
58.279472371
30
0
10
31.7039879812
20
58.6785205123
30
0
10
31.8530386824
20
59.2356006073
30
0
10
32.4922657049
20
59.355477521
30
0
0
SPLINE
5
137
100
AcDbEntity
8
0
6
ByLayer
62
7
370
-1
100
AcDbSpline
210
0
220
0
230
1
70
8
71
3
72
8
73
4
74
0
42
1e-07
43
1e-07
40
0
40
0
40
0
40
0
40
1
40
1
40
1
40
1
10
32.4922657049
20
59.355477521
30
0
10
32.9927028812
20
59.4493271423
30
0
10
34.1200305937
20
59.8328019098
30
0
10
34.3585703924
20
59.989099686
30
0
0
SPLINE
5
138
100
AcDbEntity
8
0
6
ByLayer
62
7
370
-1
100
AcDbSpline
210
0
220
0
230
1
70
8
71
3
72
8
73
4
74
0
42
1e-07
43
1e-07
40
0
40
0
40
0
40
0
40
1
40
1
40
1
40
1
10
34.3585703924
20
59.989099686
30
0
10
34.6305454887
20
60.1673040585
30
0
10
34.9373794337
20
60.8568883248
30
0
10
34.8677719837
20
61.134227406
30
0
0
SPLINE
5
139
100
AcDbEntity
8
0
6
ByLayer
62
7
370
-1
100
AcDbSpline
210
0
220
0
230
1
70
8
71
3
72
8
73
4
74
0
42
1e-07
43
1e-07
40
0
40
0
40
0
40
0
40
1
40
1
40
1
40
1
10
34.8677719837
20
61.134227406
30
0
10
34.7977426149
20
61.4132429285
30
0
10
34.3345040424
20
61.9312434198
30
0
10
33.8977543912
20
62.2217528973
30
0
0
SPLINE
5
13A
100
AcDbEntity
8
0
6
ByLayer
62
7
370
-1
100
AcDbSpline
210
0
220
0
230
1
70
8
71
3
72
8
73
4
74
0
42
1e-07
43
1e-07
40
0
40
0
40
0
40
0
40
1
40
1
40
1
40
1
10
33.8977543912
20
62.2217528973
30
0
10
32.9071372362
20
62.8806726835
30
0
10
32.1518841249
20
63.292385441
30
0
10
31.4231724462
20
63.5650314273
30
0
0
SPLINE
5
13B
100
AcDbEntity
8
0
6
ByLayer
62
7
370
-1
100
AcDbSpline
210
0
220
0
230
1
70
8
71
3
72
8
73
4
74
0
42
1e-07
43
1e-07
40
0
40
0
40
0
40
0
40
1
40
1
40
1
40
1
10
31.4231724462
20
63.5650314273
30
0
10
31.1620144062
20
63.662742846
30
0
10
30.8781600112
20
63.8178234585
30
0
10
30.7941587312
20
63.9106434935
30
0
0
SPLINE
5
13C
100
AcDbEntity
8
0
6
ByLayer
62
7
370
-1
100
AcDbSpline
210
0
220
0
230
1
70
8
71
3
72
8
73
4
74
0
42
1e-07
43
1e-07
40
0
40
0
40
0
40
0
40
1
40
1
40
1
40
1
10
30.7941587312
20
63.9106434935
30
0
10
30.6474976837
20
64.0727033998
30
0
10
30.6573982749
20
64.089754926
30
0
10
31.0176544487
20
64.350722776
30
0
0
SPLINE
5
13D
100
AcDbEntity
8
0
6
ByLayer
62
7
370
-1
100
AcDbSpline
210
0
220
0
230
1
70
8
71
3
72
8
73
4
74
0
42
1e-07
43
1e-07
40
0
40
0
40
0
40
0
40
1
40
1
40
1
40
1
10
31.0176544487
20
64.350722776
30
0
10
31.2239938787
20
64.5001938285
30
0
10
31.4559104674
20
64.622383066
30
0
10
31.5337684537
20
64.6226040835
30
0
0
SPLINE
5
13E
100
AcDbEntity
8
0
6
ByLayer
62
7
370
-1
100
AcDbSpline
210
0
220
0
230
1
70
8
71
3
72
8
73
4
74
0
42
1e-07
43
1e-07
40
0
40
0
40
0
40
0
40
1
40
1
40
1
40
1
10
31.5337684537
20
64.6226040835
30
0
10
31.6116256562
20
64.6228075973
30
0
10
31.8703956099
20
64.7223438473
30
0
10
32.1097883899
20
64.8437958373
30
0
0
SPLINE
5
13F
100
AcDbEntity
8
0
6
ByLayer
62
7
370
-1
100
AcDbSpline
210
0
220
0
230
1
70
8
71
3
72
8
73
4
74
0
42
1e-07
43
1e-07
40
0
40
0
40
0
40
0
40
1
40
1
40
1
40
1
10
32.1097883899
20
64.8437958373
30
0
10
32.3491803862
20
64.9652478273
30
0
10
32.6010123237
20
65.064987591
30
0
10
32.6673755712
20
65.064987591
30
0
0
SPLINE
5
140
100
AcDbEntity
8
0
6
ByLayer
62
7
370
-1
100
AcDbSpline
210
0
220
0
230
1
70
8
71
3
72
8
73
4
74
0
42
1e-07
43
1e-07
40
0
40
0
40
0
40
0
40
1
40
1
40
1
40
1
10
32.6673755712
20
65.064987591
30
0
10
32.7337398637
20
65.064987591
30
0
10
32.9825833624
20
65.164523841
30
0
10
33.2226590499
20
65.2861790835
30
0
0
SPLINE
5
141
100
AcDbEntity
8
0
6
ByLayer
62
7
370
-1
100
AcDbSpline
210
0
220
0
230
1
70
8
71
3
72
8
73
4
74
0
42
1e-07
43
1e-07
40
0
40
0
40
0
40
0
40
1
40
1
40
1
40
1
10
33.2226590499
20
65.2861790835
30
0
10
33.4627344762
20
65.4078345873
30
0
10
33.7038622174
20
65.5073708373
30
0
10
33.7572055487
20
65.5073708373
30
0
0
SPLINE
5
142
100
AcDbEntity
8
0
6
ByLayer
62
7
370
-1
100
AcDbSpline
210
0
220
0
230
1
70
8
71
3
72
8
73
4
74
0
42
1e-07
43
1e-07
40
0
40
0
40
0
40
0
40
1
40
1
40
1
40
1
10
33.7572055487
20
65.5073708373
30
0
10
33.8105480962
20
65.5073708373
30
0
10
34.0600750249
20
65.6042167348
30
0
10
34.3124887662
20
65.7216501773
30
0
0
SPLINE
5
143
100
AcDbEntity
8
0
6
ByLayer
62
7
370
-1
100
AcDbSpline
210
0
220
0
230
1
70
8
71
3
72
8
73
4
74
0
42
1e-07
43
1e-07
40
0
40
0
40
0
40
0
40
1
40
1
40
1
40
1
10
34.3124887662
20
65.7216501773
30
0
10
34.5649022462
20
65.839083881
30
0
10
35.0501628874
20
66.0612406923
30
0
10
35.3907981412
20
66.2147234998
30
0
0
SPLINE
5
144
100
AcDbEntity
8
0
6
ByLayer
62
7
370
-1
100
AcDbSpline
210
0
220
0
230
1
70
8
71
3
72
8
73
4
74
0
42
1e-07
43
1e-07
40
0
40
0
40
0
40
0
40
1
40
1
40
1
40
1
10
35.3907981412
20
66.2147234998
30
0
10
35.8681254037
20
66.4297999135
30
0
10
35.9779394899
20
66.511267591
30
0
10
35.8700466362
20
66.571855646
30
0
0
SPLINE
5
145
100
AcDbEntity
8
0
6
ByLayer
62
7
370
-1
100
AcDbSpline
210
0
220
0
230
1
70
8
71
3
72
8
73
4
74
0
42
1e-07
43
1e-07
40
0
40
0
40
0
40
0
40
1
40
1
40
1
40
1
10
35.8700466362
20
66.571855646
30
0
10
35.6699487299
20
66.6842226673
30
0
10
34.3505168387
20
66.5283739798
30
0
10
33.6650422962
20
66.3114946798
30
0
0
SPLINE
5
146
100
AcDbEntity
8
0
6
ByLayer
62
7
370
-1
100
AcDbSpline
210
0
220
0
230
1
70
8
71
3
72
8
73
4
74
0
42
1e-07
43
1e-07
40
0
40
0
40
0
40
0
40
1
40
1
40
1
40
1
10
33.6650422962
20
66.3114946798
30
0
10
33.3487382999
20
66.2114179035
30
0
10
33.0210338762
20
66.1277580773
30
0
10
32.9369529149
20
66.127168436
30
0
0
SPLINE
5
147
100
AcDbEntity
8
0
6
ByLayer
62
7
370
-1
100
AcDbSpline
210
0
220
0
230
1
70
8
71
3
72
8
73
4
74
0
42
1e-07
43
1e-07
40
0
40
0
40
0
40
0
40
1
40
1
40
1
40
1
10
32.9369529149
20
66.127168436
30
0
10
32.8528729987
20
66.1265409135
30
0
10
32.5760146174
20
66.0314764798
30
0
10
32.3194595412
20
65.9151930598
30
0
0
SPLINE
5
148
100
AcDbEntity
8
0
6
ByLayer
62
7
370
-1
100
AcDbSpline
210
0
220
0
230
1
70
8
71
3
72
8
73
4
74
0
42
1e-07
43
1e-07
40
0
40
0
40
0
40
0
40
1
40
1
40
1
40
1
10
32.3194595412
20
65.9151930598
30
0
10
31.1651162274
20
65.391986901
30
0
10
30.9270087974
20
65.2644618935
30
0
10
30.6582180774
20
65.0212099285
30
0
0
SPLINE
5
149
100
AcDbEntity
8
0
6
ByLayer
62
7
370
-1
100
AcDbSpline
210
0
220
0
230
1
70
8
71
3
72
8
73
4
74
0
42
1e-07
43
1e-07
40
0
40
0
40
0
40
0
40
1
40
1
40
1
40
1
10
30.6582180774
20
65.0212099285
30
0
10
30.3996354399
20
64.7871965473
30
0
10
30.3407201687
20
64.9223040748
30
0
10
30.5545344837
20
65.2608344373
30
0
0
SPLINE
5
14A
100
AcDbEntity
8
0
6
ByLayer
62
7
370
-1
100
AcDbSpline
210
0
220
0
230
1
70
8
71
3
72
8
73
4
74
0
42
1e-07
43
1e-07
40
0
40
0
40
0
40
0
40
1
40
1
40
1
40
1
10
30.5545344837
20
65.2608344373
30
0
10
30.6558704849
20
65.4212785123
30
0
10
30.8403796037
20
65.7416496485
30
0
10
30.9646606699
20
65.9727950273
30
0
0
SPLINE
5
14B
100
AcDbEntity
8
0
6
ByLayer
62
7
370
-1
100
AcDbSpline
210
0
220
0
230
1
70
8
71
3
72
8
73
4
74
0
42
1e-07
43
1e-07
40
0
40
0
40
0
40
0
40
1
40
1
40
1
40
1
10
30.9646606699
20
65.9727950273
30
0
10
31.0889422587
20
66.203940406
30
0
10
31.2209753962
20
66.392137591
30
0
10
31.2572786962
20
66.392137591
30
0
0
SPLINE
5
14C
100
AcDbEntity
8
0
6
ByLayer
62
7
370
-1
100
AcDbSpline
210
0
220
0
230
1
70
8
71
3
72
8
73
4
74
0
42
1e-07
43
1e-07
40
0
40
0
40
0
40
0
40
1
40
1
40
1
40
1
10
31.2572786962
20
66.392137591
30
0
10
31.2935822574
20
66.392137591
30
0
10
31.3636165899
20
66.4685673235
30
0
10
31.4116521049
20
66.5603353048
30
0
0
SPLINE
5
14D
100
AcDbEntity
8
0
6
ByLayer
62
7
370
-1
100
AcDbSpline
210
0
220
0
230
1
70
8
71
3
72
8
73
4
74
0
42
1e-07
43
1e-07
40
0
40
0
40
0
40
0
40
1
40
1
40
1
40
1
10
31.4116521049
20
66.5603353048
30
0
10
31.5259536824
20
66.7786979823
30
0
10
32.3531310087
20
67.9956010048
30
0
10
32.5199145762
20
68.1916239335
30
0
0
SPLINE
5
14E
100
AcDbEntity
8
0
6
ByLayer
62
7
370
-1
100
AcDbSpline
210
0
220
0
230
1
70
8
71
3
72
8
73
4
74
0
42
1e-07
43
1e-07
40
0
40
0
40
0
40
0
40
1
40
1
40
1
40
1
10
32.5199145762
20
68.1916239335
30
0
10
32.5912504562
20
68.2754650673
30
0
10
32.9532408074
20
68.6686348223
30
0
10
33.3263426437
20
69.0648700848
30
0
0
SPLINE
5
14F
100
AcDbEntity
8
0
6
ByLayer
62
7
370
-1
100
AcDbSpline
210
0
220
0
230
1
70
8
71
3
72
8
73
4
74
0
42
1e-07
43
1e-07
40
0
40
0
40
0
40
0
40
1
40
1
40
1
40
1
10
33.3263426437
20
69.0648700848
30
0
10
33.9977300637
20
69.7778882148
30
0
10
34.2050580637
20
70.1661002285
30
0
10
33.9645727362
20
70.258383656
30
0
0
SPLINE
5
150
100
AcDbEntity
8
0
6
ByLayer
62
7
370
-1
100
AcDbSpline
210
0
220
0
230
1
70
8
71
3
72
8
73
4
74
0
42
1e-07
43
1e-07
40
0
40
0
40
0
40
0
40
1
40
1
40
1
40
1
10
33.9645727362
20
70.258383656
30
0
10
33.9602600212
20
70.2600384135
30
0
10
33.9551314224
20
70.2604167035
30
0
10
33.9484442062
20
70.2606876198
30
0
0
LWPOLYLINE
5
151
100
AcDbEntity
8
0
6
ByLayer
62
7
370
-1
100
AcDbPolyline
90
3
70
0
43
0
10
36.3469911674
20
40.609483771
10
36.2755646337
20
39.5542153398
10
35.7225856412
20
39.3215032448
0
SPLINE
5
152
100
AcDbEntity
8
0
6
ByLayer
62
7
370
-1
100
AcDbSpline
210
0
220
0
230
1
70
8
71
3
72
8
73
4
74
0
42
1e-07
43
1e-07
40
0
40
0
40
0
40
0
40
1
40
1
40
1
40
1
10
52.5654094549
20
61.2379109998
30
0
10
52.6463206699
20
61.2599401223
30
0
10
52.6852273262
20
61.099761216
30
0
10
52.6783091649
20
60.7586622435
30
0
0
SPLINE
5
153
100
AcDbEntity
8
0
6
ByLayer
62
7
370
-1
100
AcDbSpline
210
0
220
0
230
1
70
8
71
3
72
8
73
4
74
0
42
1e-07
43
1e-07
40
0
40
0
40
0
40
0
40
1
40
1
40
1
40
1
10
52.6783091649
20
60.7586622435
30
0
10
52.6725509537
20
60.4747997498
30
0
10
52.6425432562
20
60.1235655835
30
0
10
52.6114910812
20
59.9775790835
30
0
0
SPLINE
5
154
100
AcDbEntity
8
0
6
ByLayer
62
7
370
-1
100
AcDbSpline
210
0
220
0
230
1
70
8
71
3
72
8
73
4
74
0
42
1e-07
43
1e-07
40
0
40
0
40
0
40
0
40
1
40
1
40
1
40
1
10
52.6114910812
20
59.9775790835
30
0
10
52.5430631749
20
59.655877401
30
0
10
52.2627225924
20
59.5840997473
30
0
10
52.0400790724
20
59.8301180885
30
0
0
SPLINE
5
155
100
AcDbEntity
8
0
6
ByLayer
62
7
370
-1
100
AcDbSpline
210
0
220
0
230
1
70
8
71
3
72
8
73
4
74
0
42
1e-07
43
1e-07
40
0
40
0
40
0
40
0
40
1
40
1
40
1
40
1
10
52.0400790724
20
59.8301180885
30
0
10
51.9047165649
20
59.9796907673
30
0
10
51.9008359574
20
60.0277808835
30
0
10
52.0101262374
20
60.254068841
30
0
0
SPLINE
5
156
100
AcDbEntity
8
0
6
ByLayer
62
7
370
-1
100
AcDbSpline
210
0
220
0
230
1
70
8
71
3
72
8
73
4
74
0
42
1e-07
43
1e-07
40
0
40
0
40
0
40
0
40
1
40
1
40
1
40
1
10
52.0101262374
20
60.254068841
30
0
10
52.0779582324
20
60.3945202373
30
0
10
52.2085793137
20
60.6663743748
30
0
10
52.3004402999
20
60.8577376485
30
0
0
SPLINE
5
157
100
AcDbEntity
8
0
6
ByLayer
62
7
370
-1
100
AcDbSpline
210
0
220
0
230
1
70
8
71
3
72
8
73
4
74
0
42
1e-07
43
1e-07
40
0
40
0
40
0
40
0
40
1
40
1
40
1
40
1
10
52.3004402999
20
60.8577376485
30
0
10
52.4143766499
20
61.0950895435
30
0
10
52.5024782487
20
61.2207766573
30
0
10
52.5654094549
20
61.2379109998
30
0
0
LWPOLYLINE
5
158
100
AcDbEntity
8
0
6
ByLayer
62
7
370
-1
100
AcDbPolyline
90
2
70
0
43
0
10
33.9484442062
20
70.2606876198
10
33.9484442062
20
70.2606876198
0
SPLINE
5
159
100
AcDbEntity
8
0
6
ByLayer
62
7
370
-1
100
AcDbSpline
210
0
220
0
230
1
70
8
71
3
72
8
73
4
74
0
42
1e-07
43
1e-07
40
0
40
0
40
0
40
0
40
1
40
1
40
1
40
1
10
44.6531990087
20
48.7659266535
30
0
10
44.7105496537
20
48.7468104685
30
0
10
44.7992105887
20
48.6529874948
30
0
10
44.8513500799
20
48.558559466
30
0
0
SPLINE
5
15A
100
AcDbEntity
8
0
6
ByLayer
62
7
370
-1
100
AcDbSpline
210
0
220
0
230
1
70
8
71
3
72
8
73
4
74
0
42
1e-07
43
1e-07
40
0
40
0
40
0
40
0
40
1
40
1
40
1
40
1
10
44.8513500799
20
48.558559466
30
0
10
44.9034885262
20
48.464131176
30
0
10
45.1623823124
20
48.1358274448
30
0
10
45.4250657912
20
47.828166121
30
0
0
SPLINE
5
15B
100
AcDbEntity
8
0
6
ByLayer
62
7
370
-1
100
AcDbSpline
210
0
220
0
230
1
70
8
71
3
72
8
73
4
74
0
42
1e-07
43
1e-07
40
0
40
0
40
0
40
0
40
1
40
1
40
1
40
1
10
45.4250657912
20
47.828166121
30
0
10
45.9422031124
20
47.2224835985
30
0
10
46.0792232512
20
46.838124761
30
0
10
46.1946286099
20
45.6669391823
30
0
0
SPLINE
5
15C
100
AcDbEntity
8
0
6
ByLayer
62
7
370
-1
100
AcDbSpline
210
0
220
0
230
1
70
8
71
3
72
8
73
4
74
0
42
1e-07
43
1e-07
40
0
40
0
40
0
40
0
40
1
40
1
40
1
40
1
10
46.1946286099
20
45.6669391823
30
0
10
46.2415890812
20
45.190365626
30
0
10
46.2255924824
20
45.0342763273
30
0
10
46.1185938874
20
44.9135051548
30
0
0
SPLINE
5
15D
100
AcDbEntity
8
0
6
ByLayer
62
7
370
-1
100
AcDbSpline
210
0
220
0
230
1
70
8
71
3
72
8
73
4
74
0
42
1e-07
43
1e-07
40
0
40
0
40
0
40
0
40
1
40
1
40
1
40
1
10
46.1185938874
20
44.9135051548
30
0
10
45.9262198374
20
44.6963685235
30
0
10
45.3444231412
20
43.5279007285
30
0
10
45.3444231412
20
43.3582512485
30
0
0
SPLINE
5
15E
100
AcDbEntity
8
0
6
ByLayer
62
7
370
-1
100
AcDbSpline
210
0
220
0
230
1
70
8
71
3
72
8
73
4
74
0
42
1e-07
43
1e-07
40
0
40
0
40
0
40
0
40
1
40
1
40
1
40
1
10
45.3444231412
20
43.3582512485
30
0
10
45.3444231412
20
43.280065916
30
0
10
45.2579018437
20
43.0370733723
30
0
10
45.1508802587
20
42.816792336
30
0
0
SPLINE
5
15F
100
AcDbEntity
8
0
6
ByLayer
62
7
370
-1
100
AcDbSpline
210
0
220
0
230
1
70
8
71
3
72
8
73
4
74
0
42
1e-07
43
1e-07
40
0
40
0
40
0
40
0
40
1
40
1
40
1
40
1
10
45.1508802587
20
42.816792336
30
0
10
44.7913046412
20
42.0766768335
30
0
10
44.7220104299
20
42.2833496185
30
0
10
44.6324622899
20
44.3628298648
30
0
0
SPLINE
5
160
100
AcDbEntity
8
0
6
ByLayer
62
7
370
-1
100
AcDbSpline
210
0
220
0
230
1
70
8
71
3
72
8
73
4
74
0
42
1e-07
43
1e-07
40
0
40
0
40
0
40
0
40
1
40
1
40
1
40
1
10
44.6324622899
20
44.3628298648
30
0
10
44.5213142612
20
46.9439244798
30
0
10
44.5299532762
20
48.807009261
30
0
10
44.6531990087
20
48.7659266535
30
0
0
LWPOLYLINE
5
161
100
AcDbEntity
8
0
6
ByLayer
62
7
370
-1
100
AcDbPolyline
90
2
70
0
43
0
10
52.5654094549
20
61.2379109998
10
52.5654094549
20
61.2379109998
0
SPLINE
5
162
100
AcDbEntity
8
0
6
ByLayer
62
7
370
-1
100
AcDbSpline
210
0
220
0
230
1
70
8
71
3
72
8
73
4
74
0
42
1e-07
43
1e-07
40
0
40
0
40
0
40
0
40
1
40
1
40
1
40
1
10
31.8010415724
20
48.7336695935
30
0
10
31.8110866349
20
48.735095496
30
0
10
31.8195621074
20
48.7332787635
30
0
10
31.8263864799
20
48.7290614048
30
0
0
SPLINE
5
163
100
AcDbEntity
8
0
6
ByLayer
62
7
370
-1
100
AcDbSpline
210
0
220
0
230
1
70
8
71
3
72
8
73
4
74
0
42
1e-07
43
1e-07
40
0
40
0
40
0
40
0
40
1
40
1
40
1
40
1
10
31.8263864799
20
48.7290614048
30
0
10
31.9155430062
20
48.673958816
30
0
10
31.8728419549
20
45.5164424623
30
0
10
31.7710887374
20
44.627799281
30
0
0
SPLINE
5
164
100
AcDbEntity
8
0
6
ByLayer
62
7
370
-1
100
AcDbSpline
210
0
220
0
230
1
70
8
71
3
72
8
73
4
74
0
42
1e-07
43
1e-07
40
0
40
0
40
0
40
0
40
1
40
1
40
1
40
1
10
31.7710887374
20
44.627799281
30
0
10
31.7515869474
20
44.4574815235
30
0
10
31.7058480812
20
43.9100321485
30
0
10
31.6697091074
20
43.4112450273
30
0
0
SPLINE
5
165
100
AcDbEntity
8
0
6
ByLayer
62
7
370
-1
100
AcDbSpline
210
0
220
0
230
1
70
8
71
3
72
8
73
4
74
0
42
1e-07
43
1e-07
40
0
40
0
40
0
40
0
40
1
40
1
40
1
40
1
10
31.6697091074
20
43.4112450273
30
0
10
31.6289530624
20
42.8487332835
30
0
10
31.5689400187
20
42.5032899848
30
0
10
31.5084235462
20
42.503437591
30
0
0
SPLINE
5
166
100
AcDbEntity
8
0
6
ByLayer
62
7
370
-1
100
AcDbSpline
210
0
220
0
230
1
70
8
71
3
72
8
73
4
74
0
42
1e-07
43
1e-07
40
0
40
0
40
0
40
0
40
1
40
1
40
1
40
1
10
31.5084235462
20
42.503437591
30
0
10
31.4547625349
20
42.5035961698
30
0
10
31.2983017387
20
42.7936335685
30
0
10
31.1605075162
20
43.1462758723
30
0
0
SPLINE
5
167
100
AcDbEntity
8
0
6
ByLayer
62
7
370
-1
100
AcDbSpline
210
0
220
0
230
1
70
8
71
3
72
8
73
4
74
0
42
1e-07
43
1e-07
40
0
40
0
40
0
40
0
40
1
40
1
40
1
40
1
10
31.1605075162
20
43.1462758723
30
0
10
30.8702715674
20
43.8890461973
30
0
10
30.7379996474
20
44.170598196
30
0
10
30.4370263237
20
44.7038337423
30
0
0
SPLINE
5
168
100
AcDbEntity
8
0
6
ByLayer
62
7
370
-1
100
AcDbSpline
210
0
220
0
230
1
70
8
71
3
72
8
73
4
74
0
42
1e-07
43
1e-07
40
0
40
0
40
0
40
0
40
1
40
1
40
1
40
1
10
30.4370263237
20
44.7038337423
30
0
10
30.2332108299
20
45.064937411
30
0
10
30.2261082262
20
45.1301895623
30
0
10
30.3103020474
20
45.6784595235
30
0
0
SPLINE
5
169
100
AcDbEntity
8
0
6
ByLayer
62
7
370
-1
100
AcDbSpline
210
0
220
0
230
1
70
8
71
3
72
8
73
4
74
0
42
1e-07
43
1e-07
40
0
40
0
40
0
40
0
40
1
40
1
40
1
40
1
10
30.3103020474
20
45.6784595235
30
0
10
30.3598598662
20
46.0011879185
30
0
10
30.4238640262
20
46.494184956
30
0
10
30.4531548537
20
46.7752016535
30
0
0
SPLINE
5
16A
100
AcDbEntity
8
0
6
ByLayer
62
7
370
-1
100
AcDbSpline
210
0
220
0
230
1
70
8
71
3
72
8
73
4
74
0
42
1e-07
43
1e-07
40
0
40
0
40
0
40
0
40
1
40
1
40
1
40
1
10
30.4531548537
20
46.7752016535
30
0
10
30.4982972862
20
47.208281526
30
0
10
30.5561121724
20
47.337450841
30
0
10
30.8333282049
20
47.6231028973
30
0
0
SPLINE
5
16B
100
AcDbEntity
8
0
6
ByLayer
62
7
370
-1
100
AcDbSpline
210
0
220
0
230
1
70
8
71
3
72
8
73
4
74
0
42
1e-07
43
1e-07
40
0
40
0
40
0
40
0
40
1
40
1
40
1
40
1
10
30.8333282049
20
47.6231028973
30
0
10
31.0132071899
20
47.8084571598
30
0
10
31.2893001087
20
48.1461666748
30
0
10
31.4462133899
20
48.374232961
30
0
0
SPLINE
5
16C
100
AcDbEntity
8
0
6
ByLayer
62
7
370
-1
100
AcDbSpline
210
0
220
0
230
1
70
8
71
3
72
8
73
4
74
0
42
1e-07
43
1e-07
40
0
40
0
40
0
40
0
40
1
40
1
40
1
40
1
10
31.4462133899
20
48.374232961
30
0
10
31.5880473212
20
48.5803829848
30
0
10
31.7307277024
20
48.7236864473
30
0
10
31.8010415724
20
48.7336695935
30
0
0
LWPOLYLINE
5
16D
100
AcDbEntity
8
0
6
ByLayer
62
7
370
-1
100
AcDbPolyline
90
2
70
0
43
0
10
44.6531990087
20
48.7659266535
10
44.6531990087
20
48.7659266535
0
SPLINE
5
16E
100
AcDbEntity
8
0
6
ByLayer
62
7
370
-1
100
AcDbSpline
210
0
220
0
230
1
70
8
71
3
72
8
73
4
74
0
42
1e-07
43
1e-07
40
0
40
0
40
0
40
0
40
1
40
1
40
1
40
1
10
40.6118430774
20
36.4667482098
30
0
10
40.6907761074
20
36.4797372985
30
0
10
41.0304755637
20
36.271180901
30
0
10
41.4067505424
20
35.9782833373
30
0
0
SPLINE
5
16F
100
AcDbEntity
8
0
6
ByLayer
62
7
370
-1
100
AcDbSpline
210
0
220
0
230
1
70
8
71
3
72
8
73
4
74
0
42
1e-07
43
1e-07
40
0
40
0
40
0
40
0
40
1
40
1
40
1
40
1
10
41.4067505424
20
35.9782833373
30
0
10
41.5527370424
20
35.864644551
30
0
10
41.7518095424
20
35.7129212623
30
0
10
41.8491340499
20
35.6395836848
30
0
0
SPLINE
5
170
100
AcDbEntity
8
0
6
ByLayer
62
7
370
-1
100
AcDbSpline
210
0
220
0
230
1
70
8
71
3
72
8
73
4
74
0
42
1e-07
43
1e-07
40
0
40
0
40
0
40
0
40
1
40
1
40
1
40
1
10
41.8491340499
20
35.6395836848
30
0
10
42.8646462399
20
34.8743539585
30
0
10
43.0932987712
20
34.6907215948
30
0
10
43.1186818212
20
34.621180241
30
0
0
SPLINE
5
171
100
AcDbEntity
8
0
6
ByLayer
62
7
370
-1
100
AcDbSpline
210
0
220
0
230
1
70
8
71
3
72
8
73
4
74
0
42
1e-07
43
1e-07
40
0
40
0
40
0
40
0
40
1
40
1
40
1
40
1
10
43.1186818212
20
34.621180241
30
0
10
43.1349025724
20
34.5767421385
30
0
10
43.1964721437
20
34.540537591
30
0
10
43.2569266999
20
34.540537591
30
0
0
SPLINE
5
172
100
AcDbEntity
8
0
6
ByLayer
62
7
370
-1
100
AcDbSpline
210
0
220
0
230
1
70
8
71
3
72
8
73
4
74
0
42
1e-07
43
1e-07
40
0
40
0
40
0
40
0
40
1
40
1
40
1
40
1
10
43.2569266999
20
34.540537591
30
0
10
43.3173820399
20
34.540537591
30
0
10
43.4606000737
20
34.441001341
30
0
10
43.5748896337
20
34.3193458373
30
0
0
SPLINE
5
173
100
AcDbEntity
8
0
6
ByLayer
62
7
370
-1
100
AcDbSpline
210
0
220
0
230
1
70
8
71
3
72
8
73
4
74
0
42
1e-07
43
1e-07
40
0
40
0
40
0
40
0
40
1
40
1
40
1
40
1
10
43.5748896337
20
34.3193458373
30
0
10
43.6891794549
20
34.1976903335
30
0
10
43.8293257112
20
34.0981540835
30
0
10
43.8859404149
20
34.0981540835
30
0
0
SPLINE
5
174
100
AcDbEntity
8
0
6
ByLayer
62
7
370
-1
100
AcDbSpline
210
0
220
0
230
1
70
8
71
3
72
8
73
4
74
0
42
1e-07
43
1e-07
40
0
40
0
40
0
40
0
40
1
40
1
40
1
40
1
10
43.8859404149
20
34.0981540835
30
0
10
43.9999368524
20
34.0981540835
30
0
10
44.4596563874
20
33.2176321198
30
0
10
44.4596563874
20
32.9991079898
30
0
0
SPLINE
5
175
100
AcDbEntity
8
0
6
ByLayer
62
7
370
-1
100
AcDbSpline
210
0
220
0
230
1
70
8
71
3
72
8
73
4
74
0
42
1e-07
43
1e-07
40
0
40
0
40
0
40
0
40
1
40
1
40
1
40
1
10
44.4596563874
20
32.9991079898
30
0
10
44.4596563874
20
32.923052106
30
0
10
44.4293346674
20
32.8612651748
30
0
10
44.3928380424
20
32.863167336
30
0
0
SPLINE
5
176
100
AcDbEntity
8
0
6
ByLayer
62
7
370
-1
100
AcDbSpline
210
0
220
0
230
1
70
8
71
3
72
8
73
4
74
0
42
1e-07
43
1e-07
40
0
40
0
40
0
40
0
40
1
40
1
40
1
40
1
10
44.3928380424
20
32.863167336
30
0
10
44.2922526124
20
32.868416371
30
0
10
43.8472349212
20
33.0912874398
30
0
10
43.3536981412
20
33.3838895298
30
0
0
SPLINE
5
177
100
AcDbEntity
8
0
6
ByLayer
62
7
370
-1
100
AcDbSpline
210
0
220
0
230
1
70
8
71
3
72
8
73
4
74
0
42
1e-07
43
1e-07
40
0
40
0
40
0
40
0
40
1
40
1
40
1
40
1
10
43.3536981412
20
33.3838895298
30
0
10
43.1103871337
20
33.5281402848
30
0
10
42.7446948699
20
33.7313933073
30
0
10
42.5403579212
20
33.8354891535
30
0
0
SPLINE
5
178
100
AcDbEntity
8
0
6
ByLayer
62
7
370
-1
100
AcDbSpline
210
0
220
0
230
1
70
8
71
3
72
8
73
4
74
0
42
1e-07
43
1e-07
40
0
40
0
40
0
40
0
40
1
40
1
40
1
40
1
10
42.5403579212
20
33.8354891535
30
0
10
42.3360209724
20
33.9395855223
30
0
10
42.1228158924
20
34.0823492423
30
0
10
42.0657173537
20
34.1511481235
30
0
0
SPLINE
5
179
100
AcDbEntity
8
0
6
ByLayer
62
7
370
-1
100
AcDbSpline
210
0
220
0
230
1
70
8
71
3
72
8
73
4
74
0
42
1e-07
43
1e-07
40
0
40
0
40
0
40
0
40
1
40
1
40
1
40
1
10
42.0657173537
20
34.1511481235
30
0
10
42.0086198599
20
34.2199467435
30
0
10
41.9112010412
20
34.275568436
30
0
10
41.8491340499
20
34.275568436
30
0
0
SPLINE
5
17A
100
AcDbEntity
8
0
6
ByLayer
62
7
370
-1
100
AcDbSpline
210
0
220
0
230
1
70
8
71
3
72
8
73
4
74
0
42
1e-07
43
1e-07
40
0
40
0
40
0
40
0
40
1
40
1
40
1
40
1
10
41.8491340499
20
34.275568436
30
0
10
41.7870652299
20
34.275568436
30
0
10
41.5632340674
20
34.3756914535
30
0
10
41.3514527999
20
34.4967599285
30
0
0
SPLINE
5
17B
100
AcDbEntity
8
0
6
ByLayer
62
7
370
-1
100
AcDbSpline
210
0
220
0
230
1
70
8
71
3
72
8
73
4
74
0
42
1e-07
43
1e-07
40
0
40
0
40
0
40
0
40
1
40
1
40
1
40
1
10
41.3514527999
20
34.4967599285
30
0
10
41.1396720549
20
34.617829971
30
0
10
40.8991932587
20
34.7173617798
30
0
10
40.8169060399
20
34.7179516823
30
0
0
SPLINE
5
17C
100
AcDbEntity
8
0
6
ByLayer
62
7
370
-1
100
AcDbSpline
210
0
220
0
230
1
70
8
71
3
72
8
73
4
74
0
42
1e-07
43
1e-07
40
0
40
0
40
0
40
0
40
1
40
1
40
1
40
1
10
40.8169060399
20
34.7179516823
30
0
10
40.7346198662
20
34.7185384498
30
0
10
40.6414797999
20
34.7575545698
30
0
10
40.6118430774
20
34.805506746
30
0
0
SPLINE
5
17D
100
AcDbEntity
8
0
6
ByLayer
62
7
370
-1
100
AcDbSpline
210
0
220
0
230
1
70
8
71
3
72
8
73
4
74
0
42
1e-07
43
1e-07
40
0
40
0
40
0
40
0
40
1
40
1
40
1
40
1
10
40.6118430774
20
34.805506746
30
0
10
40.5494072012
20
34.906530031
30
0
10
40.5391500037
20
36.398664631
30
0
10
40.6003227362
20
36.4598360573
30
0
0
SPLINE
5
17E
100
AcDbEntity
8
0
6
ByLayer
62
7
370
-1
100
AcDbSpline
210
0
220
0
230
1
70
8
71
3
72
8
73
4
74
0
42
1e-07
43
1e-07
40
0
40
0
40
0
40
0
40
1
40
1
40
1
40
1
10
40.6003227362
20
36.4598360573
30
0
10
40.6031886487
20
36.4627019698
30
0
10
40.6065809799
20
36.4658826885
30
0
10
40.6118430774
20
36.4667482098
30
0
0
LWPOLYLINE
5
17F
100
AcDbEntity
8
0
6
ByLayer
62
7
370
-1
100
AcDbPolyline
90
2
70
0
43
0
10
31.8010415724
20
48.7336695935
10
31.8010415724
20
48.7336695935
0
SPLINE
5
180
100
AcDbEntity
8
0
6
ByLayer
62
7
370
-1
100
AcDbSpline
210
0
220
0
230
1
70
8
71
3
72
8
73
4
74
0
42
1e-07
43
1e-07
40
0
40
0
40
0
40
0
40
1
40
1
40
1
40
1
10
35.7617548537
20
36.448315716
30
0
10
35.7749106199
20
36.4481712448
30
0
10
35.7838550362
20
36.446257066
30
0
10
35.7917079499
20
36.4414033023
30
0
0
SPLINE
5
181
100
AcDbEntity
8
0
6
ByLayer
62
7
370
-1
100
AcDbSpline
210
0
220
0
230
1
70
8
71
3
72
8
73
4
74
0
42
1e-07
43
1e-07
40
0
40
0
40
0
40
0
40
1
40
1
40
1
40
1
10
35.7917079499
20
36.4414033023
30
0
10
35.9151564124
20
36.3651083748
30
0
10
35.8938248274
20
35.243966801
30
0
10
35.7640590787
20
34.987529026
30
0
0
SPLINE
5
182
100
AcDbEntity
8
0
6
ByLayer
62
7
370
-1
100
AcDbSpline
210
0
220
0
230
1
70
8
71
3
72
8
73
4
74
0
42
1e-07
43
1e-07
40
0
40
0
40
0
40
0
40
1
40
1
40
1
40
1
10
35.7640590787
20
34.987529026
30
0
10
35.6956311724
20
34.852304981
30
0
10
35.5467019524
20
34.7471659635
30
0
10
35.3700614224
20
34.7110395298
30
0
0
SPLINE
5
183
100
AcDbEntity
8
0
6
ByLayer
62
7
370
-1
100
AcDbSpline
210
0
220
0
230
1
70
8
71
3
72
8
73
4
74
0
42
1e-07
43
1e-07
40
0
40
0
40
0
40
0
40
1
40
1
40
1
40
1
10
35.3700614224
20
34.7110395298
30
0
10
35.2136212649
20
34.6790431973
30
0
10
34.9751634987
20
34.5782550373
30
0
10
34.8401231124
20
34.4875438123
30
0
0
SPLINE
5
184
100
AcDbEntity
8
0
6
ByLayer
62
7
370
-1
100
AcDbSpline
210
0
220
0
230
1
70
8
71
3
72
8
73
4
74
0
42
1e-07
43
1e-07
40
0
40
0
40
0
40
0
40
1
40
1
40
1
40
1
10
34.8401231124
20
34.4875438123
30
0
10
34.7050824649
20
34.3968315423
30
0
10
34.5076608037
20
34.275778481
30
0
10
34.4000438299
20
34.2179664685
30
0
0
SPLINE
5
185
100
AcDbEntity
8
0
6
ByLayer
62
7
370
-1
100
AcDbSpline
210
0
220
0
230
1
70
8
71
3
72
8
73
4
74
0
42
1e-07
43
1e-07
40
0
40
0
40
0
40
0
40
1
40
1
40
1
40
1
10
34.4000438299
20
34.2179664685
30
0
10
33.8781089137
20
33.9375793835
30
0
10
33.6111628799
20
33.781640826
30
0
10
33.4899321687
20
33.6880278973
30
0
0
SPLINE
5
186
100
AcDbEntity
8
0
6
ByLayer
62
7
370
-1
100
AcDbSpline
210
0
220
0
230
1
70
8
71
3
72
8
73
4
74
0
42
1e-07
43
1e-07
40
0
40
0
40
0
40
0
40
1
40
1
40
1
40
1
10
33.4899321687
20
33.6880278973
30
0
10
33.4169389187
20
33.6316647773
30
0
10
33.0851380949
20
33.4417015423
30
0
10
32.7526266712
20
33.2663813698
30
0
0
SPLINE
5
187
100
AcDbEntity
8
0
6
ByLayer
62
7
370
-1
100
AcDbSpline
210
0
220
0
230
1
70
8
71
3
72
8
73
4
74
0
42
1e-07
43
1e-07
40
0
40
0
40
0
40
0
40
1
40
1
40
1
40
1
10
32.7526266712
20
33.2663813698
30
0
10
32.1420720974
20
32.9444604985
30
0
10
31.9852944049
20
32.8942610498
30
0
10
31.9853680774
20
33.015236781
30
0
0
SPLINE
5
188
100
AcDbEntity
8
0
6
ByLayer
62
7
370
-1
100
AcDbSpline
210
0
220
0
230
1
70
8
71
3
72
8
73
4
74
0
42
1e-07
43
1e-07
40
0
40
0
40
0
40
0
40
1
40
1
40
1
40
1
10
31.9853680774
20
33.015236781
30
0
10
31.9855987612
20
33.2278940198
30
0
10
32.3467384824
20
33.9760225823
30
0
10
32.4853532912
20
34.0520727185
30
0
0
SPLINE
5
189
100
AcDbEntity
8
0
6
ByLayer
62
7
370
-1
100
AcDbSpline
210
0
220
0
230
1
70
8
71
3
72
8
73
4
74
0
42
1e-07
43
1e-07
40
0
40
0
40
0
40
0
40
1
40
1
40
1
40
1
10
32.4853532912
20
34.0520727185
30
0
10
32.5757455299
20
34.1016660673
30
0
10
32.6683894824
20
34.1659398373
30
0
10
32.6927204787
20
34.1949255248
30
0
0
SPLINE
5
18A
100
AcDbEntity
8
0
6
ByLayer
62
7
370
-1
100
AcDbSpline
210
0
220
0
230
1
70
8
71
3
72
8
73
4
74
0
42
1e-07
43
1e-07
40
0
40
0
40
0
40
0
40
1
40
1
40
1
40
1
10
32.6927204787
20
34.1949255248
30
0
10
32.8049516499
20
34.3286270048
30
0
10
34.2097488074
20
35.4253040835
30
0
10
34.2687111037
20
35.4253040835
30
0
0
SPLINE
5
18B
100
AcDbEntity
8
0
6
ByLayer
62
7
370
-1
100
AcDbSpline
210
0
220
0
230
1
70
8
71
3
72
8
73
4
74
0
42
1e-07
43
1e-07
40
0
40
0
40
0
40
0
40
1
40
1
40
1
40
1
10
34.2687111037
20
35.4253040835
30
0
10
34.3053153637
20
35.4253040835
30
0
10
34.3969182349
20
35.4945188748
30
0
10
34.4737743274
20
35.5796774923
30
0
0
SPLINE
5
18C
100
AcDbEntity
8
0
6
ByLayer
62
7
370
-1
100
AcDbSpline
210
0
220
0
230
1
70
8
71
3
72
8
73
4
74
0
42
1e-07
43
1e-07
40
0
40
0
40
0
40
0
40
1
40
1
40
1
40
1
10
34.4737743274
20
35.5796774923
30
0
10
34.8025352462
20
35.9439566548
30
0
10
35.5644136574
20
36.4504869648
30
0
10
35.7617548537
20
36.448315716
30
0
0
LWPOLYLINE
5
18D
100
AcDbEntity
8
0
6
ByLayer
62
7
370
-1
100
AcDbPolyline
90
2
70
0
43
0
10
40.6118430774
20
36.4667482098
10
40.6118430774
20
36.4667482098
0
SPLINE
5
18E
100
AcDbEntity
8
0
6
ByLayer
62
7
370
-1
100
AcDbSpline
210
0
220
0
230
1
70
8
71
3
72
8
73
4
74
0
42
1e-07
43
1e-07
40
0
40
0
40
0
40
0
40
1
40
1
40
1
40
1
10
16.1586434824
20
29.6743208373
30
0
10
16.2481200399
20
29.6743208373
30
0
10
16.2605398649
20
29.2829051148
30
0
10
16.1816841649
20
28.8886297498
30
0
0
SPLINE
5
18F
100
AcDbEntity
8
0
6
ByLayer
62
7
370
-1
100
AcDbSpline
210
0
220
0
230
1
70
8
71
3
72
8
73
4
74
0
42
1e-07
43
1e-07
40
0
40
0
40
0
40
0
40
1
40
1
40
1
40
1
10
16.1816841649
20
28.8886297498
30
0
10
16.1270136837
20
28.6152765598
30
0
10
15.9697090499
20
28.501521256
30
0
10
15.9697090499
20
28.734256341
30
0
0
SPLINE
5
190
100
AcDbEntity
8
0
6
ByLayer
62
7
370
-1
100
AcDbSpline
210
0
220
0
230
1
70
8
71
3
72
8
73
4
74
0
42
1e-07
43
1e-07
40
0
40
0
40
0
40
0
40
1
40
1
40
1
40
1
10
15.9697090499
20
28.734256341
30
0
10
15.9697090499
20
29.068535121
30
0
10
16.0915361949
20
29.6743208373
30
0
10
16.1586434824
20
29.6743208373
30
0
0
LWPOLYLINE
5
191
100
AcDbEntity
8
0
6
ByLayer
62
7
370
-1
100
AcDbPolyline
90
2
70
0
43
0
10
35.7617548537
20
36.448315716
10
35.7617548537
20
36.448315716
0
LWPOLYLINE
5
192
100
AcDbEntity
8
0
6
ByLayer
62
7
370
-1
100
AcDbPolyline
90
2
70
0
43
0
10
16.1586434824
20
29.6743208373
10
16.1586434824
20
29.6743208373
0
ENDSEC
0
SECTION
2
OBJECTS
0
DICTIONARY
5
C
330
0
100
AcDbDictionary
281
1
3
ACAD_GROUP
350
D
0
DICTIONARY
5
D
330
C
100
AcDbDictionary
281
1
0
ENDSEC
0
EOF
