999
dxfrw 0.5.10
0
SECTION
2
HEADER
9
$ACADVER
1
AC1021
9
$HANDSEED
5
20000
9
$DWGCODEPAGE
3
ANSI_1252
9
$INSBASE
10
0
20
0
30
0
9
$EXTMIN
10
2.5
20
2.5
30
0
9
$EXTMAX
10
114.348785
20
77.5
30
0
9
$LIMMIN
10
0
20
0
9
$LIMMAX
10
420
20
297
9
$ORTHOMODE
70
0
9
$LTSCALE
40
1
9
$TEXTSTYLE
7
STANDARD
9
$CLAYER
8
keine
9
$DIMASZ
40
2.5
9
$DIMLFAC
40
1
9
$DIMSCALE
40
1
9
$DIMEXO
40
0.625
9
$DIMEXE
40
1.25
9
$DIMTXT
40
2.5
9
$DIMTSZ
40
0
9
$DIMAUNIT
70
0
9
$DIMADEC
70
0
9
$DIMLUNIT
70
2
9
$DIMSTYLE
2
Standard
9
$DIMGAP
40
0.625
9
$DIMTIH
70
0
9
$LUNITS
70
2
9
$LUPREC
70
4
9
$AUNITS
70
0
9
$AUPREC
70
2
9
$SPLINESEGS
70
8
9
$GRIDMODE
70
0
9
$SNAPSTYLE
70
0
9
$PINSBASE
10
0
20
0
30
0
9
$PLIMMIN
10
0
20
0
9
$PLIMMAX
10
210
20
297
9
$INSUNITS
70
4
9
$PSVPSCALE
40
1
0
ENDSEC
0
SECTION
2
CLASSES
0
ENDSEC
0
SECTION
2
TABLES
0
TABLE
2
VPORT
5
8
330
0
100
AcDbSymbolTable
70
1
0
VPORT
5
31
330
2
100
AcDbSymbolTableRecord
100
AcDbViewportTableRecord
2
*ACTIVE
70
0
10
0
20
0
11
1
21
1
12
60.2568493149
22
39.2465753424
13
0
23
0
14
10
24
10
15
10
25
10
16
0
26
0
36
1
17
0
27
0
37
0
40
77.6712328765
41
2.06878306878
42
50
43
0
44
0
50
0
51
0
71
0
72
100
73
1
74
3
75
0
76
0
77
0
78
0
281
0
65
1
110
0
120
0
130
0
111
1
121
0
131
0
112
0
122
1
132
0
79
0
146
0
348
10020
60
7
61
5
292
1
282
1
141
0
142
0
63
250
421
3358443
0
ENDTAB
0
TABLE
2
LTYPE
5
5
330
0
100
AcDbSymbolTable
70
4
0
LTYPE
5
14
330
5
100
AcDbSymbolTableRecord
100
AcDbLinetypeTableRecord
2
ByBlock
70
0
3

72
65
73
0
40
0
0
LTYPE
5
15
330
5
100
AcDbSymbolTableRecord
100
AcDbLinetypeTableRecord
2
ByLayer
70
0
3

72
65
73
0
40
0
0
LTYPE
5
16
330
5
100
AcDbSymbolTableRecord
100
AcDbLinetypeTableRecord
2
Continuous
70
0
3
Solid line
72
65
73
0
40
0
0
LTYPE
5
32
330
5
100
AcDbSymbolTableRecord
100
AcDbLinetypeTableRecord
2
DOT
70
0
3
Dot . . . . . . . . . . . . . . . . . . . . . .
72
65
73
2
40
6.35
49
0
74
0
49
-6.35
74
0
0
LTYPE
5
33
330
5
100
AcDbSymbolTableRecord
100
AcDbLinetypeTableRecord
2
DOT2
70
0
3
Dot (.5x) .....................................
72
65
73
2
40
3.175
49
0
74
0
49
-3.175
74
0
0
LTYPE
5
34
330
5
100
AcDbSymbolTableRecord
100
AcDbLinetypeTableRecord
2
DOTX2
70
0
3
Dot (2x) .  .  .  .  .  .  .  .  .  .  .  .  .
72
65
73
2
40
12.7
49
0
74
0
49
-12.7
74
0
0
LTYPE
5
35
330
5
100
AcDbSymbolTableRecord
100
AcDbLinetypeTableRecord
2
DASHED
70
0
3
Dot . . . . . . . . . . . . . . . . . . . . . .
72
65
73
2
40
19.05
49
12.7
74
0
49
-6.35
74
0
0
LTYPE
5
36
330
5
100
AcDbSymbolTableRecord
100
AcDbLinetypeTableRecord
2
DASHED2
70
0
3
Dashed (.5x) _ _ _ _ _ _ _ _ _ _ _ _ _ _ _ _ _
72
65
73
2
40
9.525
49
6.35
74
0
49
-3.175
74
0
0
LTYPE
5
37
330
5
100
AcDbSymbolTableRecord
100
AcDbLinetypeTableRecord
2
DASHEDX2
70
0
3
Dashed (2x) ____  ____  ____  ____  ____  ___
72
65
73
2
40
38.1
49
25.4
74
0
49
-12.7
74
0
0
LTYPE
5
38
330
5
100
AcDbSymbolTableRecord
100
AcDbLinetypeTableRecord
2
DASHDOT
70
0
3
Dash dot __ . __ . __ . __ . __ . __ . __ . __
72
65
73
4
40
25.4
49
12.7
74
0
49
-6.35
74
0
49
0
74
0
49
-6.35
74
0
0
LTYPE
5
39
330
5
100
AcDbSymbolTableRecord
100
AcDbLinetypeTableRecord
2
DASHDOT2
70
0
3
Dash dot (.5x) _._._._._._._._._._._._._._._.
72
65
73
4
40
12.7
49
6.35
74
0
49
-3.175
74
0
49
0
74
0
49
-3.175
74
0
0
LTYPE
5
3A
330
5
100
AcDbSymbolTableRecord
100
AcDbLinetypeTableRecord
2
DASHDOTX2
70
0
3
Dash dot (2x) ____  .  ____  .  ____  .  ___
72
65
73
4
40
50.8
49
25.4
74
0
49
-12.7
74
0
49
0
74
0
49
-12.7
74
0
0
LTYPE
5
3B
330
5
100
AcDbSymbolTableRecord
100
AcDbLinetypeTableRecord
2
DIVIDE
70
0
3
Divide ____ . . ____ . . ____ . . ____ . . ____
72
65
73
6
40
31.75
49
12.7
74
0
49
-6.35
74
0
49
0
74
0
49
-6.35
74
0
49
0
74
0
49
-6.35
74
0
0
LTYPE
5
3C
330
5
100
AcDbSymbolTableRecord
100
AcDbLinetypeTableRecord
2
DIVIDE2
70
0
3
Divide (.5x) __..__..__..__..__..__..__..__.._
72
65
73
6
40
15.875
49
6.35
74
0
49
-3.175
74
0
49
0
74
0
49
-3.175
74
0
49
0
74
0
49
-3.175
74
0
0
LTYPE
5
3D
330
5
100
AcDbSymbolTableRecord
100
AcDbLinetypeTableRecord
2
DIVIDEX2
70
0
3
Divide (2x) ________  .  .  ________  .  .  _
72
65
73
6
40
63.5
49
25.4
74
0
49
-12.7
74
0
49
0
74
0
49
-12.7
74
0
49
0
74
0
49
-12.7
74
0
0
LTYPE
5
3E
330
5
100
AcDbSymbolTableRecord
100
AcDbLinetypeTableRecord
2
BORDER
70
0
3
Border __ __ . __ __ . __ __ . __ __ . __ __ .
72
65
73
6
40
44.45
49
12.7
74
0
49
-6.35
74
0
49
12.7
74
0
49
-6.35
74
0
49
0
74
0
49
-6.35
74
0
0
LTYPE
5
3F
330
5
100
AcDbSymbolTableRecord
100
AcDbLinetypeTableRecord
2
BORDER2
70
0
3
Border (.5x) __.__.__.__.__.__.__.__.__.__.__.
72
65
73
6
40
22.225
49
6.35
74
0
49
-3.175
74
0
49
6.35
74
0
49
-3.175
74
0
49
0
74
0
49
-3.175
74
0
0
LTYPE
5
40
330
5
100
AcDbSymbolTableRecord
100
AcDbLinetypeTableRecord
2
BORDERX2
70
0
3
Border (2x) ____  ____  .  ____  ____  .  ___
72
65
73
6
40
88.9
49
25.4
74
0
49
-12.7
74
0
49
25.4
74
0
49
-12.7
74
0
49
0
74
0
49
-12.7
74
0
0
LTYPE
5
41
330
5
100
AcDbSymbolTableRecord
100
AcDbLinetypeTableRecord
2
CENTER
70
0
3
Center ____ _ ____ _ ____ _ ____ _ ____ _ ____
72
65
73
4
40
50.8
49
31.75
74
0
49
-6.35
74
0
49
6.35
74
0
49
-6.35
74
0
0
LTYPE
5
42
330
5
100
AcDbSymbolTableRecord
100
AcDbLinetypeTableRecord
2
CENTER2
70
0
3
Center (.5x) ___ _ ___ _ ___ _ ___ _ ___ _ ___
72
65
73
4
40
28.575
49
19.05
74
0
49
-3.175
74
0
49
3.175
74
0
49
-3.175
74
0
0
LTYPE
5
43
330
5
100
AcDbSymbolTableRecord
100
AcDbLinetypeTableRecord
2
CENTERX2
70
0
3
Center (2x) ________  __  ________  __  _____
72
65
73
4
40
101.6
49
63.5
74
0
49
-12.7
74
0
49
12.7
74
0
49
-12.7
74
0
0
ENDTAB
0
TABLE
2
LAYER
5
2
330
0
100
AcDbSymbolTable
70
1
0
LAYER
5
10
330
2
100
AcDbSymbolTableRecord
100
AcDbLayerTableRecord
2
0
70
0
62
7
6
CONTINUOUS
370
-3
390
F
0
LAYER
5
44
330
2
100
AcDbSymbolTableRecord
100
AcDbLayerTableRecord
2
keine
70
0
62
7
6
CONTINUOUS
370
0
390
F
0
LAYER
5
45
330
2
100
AcDbSymbolTableRecord
100
AcDbLayerTableRecord
2
name
70
0
62
7
6
CONTINUOUS
370
-3
390
F
0
ENDTAB
0
TABLE
2
STYLE
5
3
330
0
100
AcDbSymbolTable
70
3
0
STYLE
5
46
330
2
100
AcDbSymbolTableRecord
100
AcDbTextStyleTableRecord
2
Standard
70
0
40
0
41
1
50
0
71
0
42
1
3
txt
4

0
ENDTAB
0
TABLE
2
VIEW
5
6
330
0
100
AcDbSymbolTable
70
0
0
ENDTAB
0
TABLE
2
UCS
5
7
330
0
100
AcDbSymbolTable
70
0
0
ENDTAB
0
TABLE
2
APPID
5
9
330
0
100
AcDbSymbolTable
70
1
0
APPID
5
12
330
9
100
AcDbSymbolTableRecord
100
AcDbRegAppTableRecord
2
ACAD
70
0
0
ENDTAB
0
TABLE
2
DIMSTYLE
5
A
330
0
100
AcDbSymbolTable
70
1
100
AcDbDimStyleTable
71
1
0
DIMSTYLE
105
47
330
A
100
AcDbSymbolTableRecord
100
AcDbDimStyleTableRecord
2
Standard
70
0
40
1
41
2.5
42
0.625
43
0.38
44
1.25
45
0
46
0
47
0
48
0
140
2.5
141
0.09
142
0
143
25.4
144
1
145
0
146
1
147
0.625
148
0
71
0
72
0
73
0
74
1
75
0
76
0
77
0
78
0
79
0
170
0
171
2
172
0
173
0
174
0
175
0
176
0
177
0
178
0
179
0
271
4
272
4
273
2
274
2
275
0
276
0
277
2
278
46
279
0
280
0
281
0
282
0
283
1
284
0
285
0
286
0
288
0
289
3
340
Standard
341

371
-2
372
-2
0
ENDTAB
0
TABLE
2
BLOCK_RECORD
5
1
330
0
100
AcDbSymbolTable
70
2
0
BLOCK_RECORD
5
1F
330
1
100
AcDbSymbolTableRecord
100
AcDbBlockTableRecord
2
*Model_Space
70
0
280
1
281
0
0
BLOCK_RECORD
5
1E
330
1
100
AcDbSymbolTableRecord
100
AcDbBlockTableRecord
2
*Paper_Space
70
0
280
1
281
0
0
ENDTAB
0
ENDSEC
0
SECTION
2
BLOCKS
0
BLOCK
5
20
330
1F
100
AcDbEntity
8
0
100
AcDbBlockBegin
2
*Model_Space
70
0
10
0
20
0
30
0
3
*Model_Space
1

0
ENDBLK
5
21
330
1F
100
AcDbEntity
8
0
100
AcDbBlockEnd
0
BLOCK
5
1C
330
1B
100
AcDbEntity
8
0
100
AcDbBlockBegin
2
*Paper_Space
70
0
10
0
20
0
30
0
3
*Paper_Space
1

0
ENDBLK
5
1D
330
1F
100
AcDbEntity
8
0
100
AcDbBlockEnd
0
ENDSEC
0
SECTION
2
ENTITIES
0
CIRCLE
5
48
100
AcDbEntity
8
0
6
ByLayer
62
256
370
-1
100
AcDbCircle
10
40
20
40
40
37.5
0
SPLINE
5
49
100
AcDbEntity
8
keine
6
ByLayer
62
7
370
-1
100
AcDbSpline
210
0
220
0
230
1
70
8
71
3
72
8
73
4
74
0
42
1e-07
43
1e-07
40
0
40
0
40
0
40
0
40
1
40
1
40
1
40
1
10
34.5535997856
20
67.2346188578
30
0
10
34.3670243361
20
67.2421736592
30
0
10
33.1841393814
20
66.6662246262
30
0
10
32.9506513217
20
66.4486973217
30
0
0
SPLINE
5
4A
100
AcDbEntity
8
keine
6
ByLayer
62
7
370
-1
100
AcDbSpline
210
0
220
0
230
1
70
8
71
3
72
8
73
4
74
0
42
1e-07
43
1e-07
40
0
40
0
40
0
40
0
40
1
40
1
40
1
40
1
10
32.9506513217
20
66.4486973217
30
0
10
32.8636931619
20
66.3676833571
30
0
10
32.7560221356
20
66.3014665141
30
0
10
32.7101052797
20
66.3014665141
30
0
0
SPLINE
5
4B
100
AcDbEntity
8
keine
6
ByLayer
62
7
370
-1
100
AcDbSpline
210
0
220
0
230
1
70
8
71
3
72
8
73
4
74
0
42
1e-07
43
1e-07
40
0
40
0
40
0
40
0
40
1
40
1
40
1
40
1
10
32.7101052797
20
66.3014665141
30
0
10
32.6641886589
20
66.3014665141
30
0
10
32.5481704599
20
66.2118838891
30
0
10
32.4529699933
20
66.1023939356
30
0
0
SPLINE
5
4C
100
AcDbEntity
8
keine
6
ByLayer
62
7
370
-1
100
AcDbSpline
210
0
220
0
230
1
70
8
71
3
72
8
73
4
74
0
42
1e-07
43
1e-07
40
0
40
0
40
0
40
0
40
1
40
1
40
1
40
1
10
32.4529699933
20
66.1023939356
30
0
10
32.3577695267
20
65.9929042174
30
0
10
32.2426824227
20
65.9016625504
30
0
10
32.1958347069
20
65.8991742226
30
0
0
SPLINE
5
4D
100
AcDbEntity
8
keine
6
ByLayer
62
7
370
-1
100
AcDbSpline
210
0
220
0
230
1
70
8
71
3
72
8
73
4
74
0
42
1e-07
43
1e-07
40
0
40
0
40
0
40
0
40
1
40
1
40
1
40
1
10
32.1958347069
20
65.8991742226
30
0
10
32.0703832929
20
65.8925124259
30
0
10
31.3678504839
20
65.0030691143
30
0
10
31.1527778844
20
64.5782452643
30
0
0
SPLINE
5
4E
100
AcDbEntity
8
keine
6
ByLayer
62
7
370
-1
100
AcDbSpline
210
0
220
0
230
1
70
8
71
3
72
8
73
4
74
0
42
1e-07
43
1e-07
40
0
40
0
40
0
40
0
40
1
40
1
40
1
40
1
10
31.1527778844
20
64.5782452643
30
0
10
31.0504956879
20
64.3762124622
30
0
10
30.8843511902
20
63.9645544366
30
0
10
30.7857378842
20
63.6637559674
30
0
0
SPLINE
5
4F
100
AcDbEntity
8
keine
6
ByLayer
62
7
370
-1
100
AcDbSpline
210
0
220
0
230
1
70
8
71
3
72
8
73
4
74
0
42
1e-07
43
1e-07
40
0
40
0
40
0
40
0
40
1
40
1
40
1
40
1
10
30.7857378842
20
63.6637559674
30
0
10
30.6871245782
20
63.3629565578
30
0
10
30.5847497424
20
63.1163064356
30
0
10
30.5576339518
20
63.1163064356
30
0
0
SPLINE
5
50
100
AcDbEntity
8
keine
6
ByLayer
62
7
370
-1
100
AcDbSpline
210
0
220
0
230
1
70
8
71
3
72
8
73
4
74
0
42
1e-07
43
1e-07
40
0
40
0
40
0
40
0
40
1
40
1
40
1
40
1
10
30.5576339518
20
63.1163064356
30
0
10
30.4839022787
20
63.1163064356
30
0
10
30.3163315127
20
64.9646527459
30
0
10
30.3170881449
20
65.7685328944
30
0
0
SPLINE
5
51
100
AcDbEntity
8
keine
6
ByLayer
62
7
370
-1
100
AcDbSpline
210
0
220
0
230
1
70
8
71
3
72
8
73
4
74
0
42
1e-07
43
1e-07
40
0
40
0
40
0
40
0
40
1
40
1
40
1
40
1
10
30.3170881449
20
65.7685328944
30
0
10
30.3178711112
20
66.6006452071
30
0
10
30.2363469253
20
66.8165757777
30
0
10
29.9438272074
20
66.7431587018
30
0
0
SPLINE
5
52
100
AcDbEntity
8
keine
6
ByLayer
62
7
370
-1
100
AcDbSpline
210
0
220
0
230
1
70
8
71
3
72
8
73
4
74
0
42
1e-07
43
1e-07
40
0
40
0
40
0
40
0
40
1
40
1
40
1
40
1
10
29.9438272074
20
66.7431587018
30
0
10
29.6299050013
20
66.6643690196
30
0
10
28.9729989039
20
65.9902856303
30
0
10
28.7493922074
20
65.5176185453
30
0
0
SPLINE
5
53
100
AcDbEntity
8
keine
6
ByLayer
62
7
370
-1
100
AcDbSpline
210
0
220
0
230
1
70
8
71
3
72
8
73
4
74
0
42
1e-07
43
1e-07
40
0
40
0
40
0
40
0
40
1
40
1
40
1
40
1
10
28.7493922074
20
65.5176185453
30
0
10
28.5398118928
20
65.0746011931
30
0
10
28.5330812046
20
64.8228044198
30
0
10
28.6954766342
20
63.5040830502
30
0
0
SPLINE
5
54
100
AcDbEntity
8
keine
6
ByLayer
62
7
370
-1
100
AcDbSpline
210
0
220
0
230
1
70
8
71
3
72
8
73
4
74
0
42
1e-07
43
1e-07
40
0
40
0
40
0
40
0
40
1
40
1
40
1
40
1
10
28.4217518683
20
63.1453380248
30
0
10
28.0850406418
20
63.1541667334
30
0
10
27.8885429173
20
63.0284399881
30
0
10
27.5964304359
20
62.6186253424
30
0
0
LWPOLYLINE
5
55
100
AcDbEntity
8
keine
6
ByLayer
62
7
370
-1
100
AcDbPolyline
90
3
70
0
43
0
10
28.6954766342
20
63.5040830502
10
28.7390236652
20
63.1370432851
10
28.4217518683
20
63.1453380248
0
SPLINE
5
56
100
AcDbEntity
8
keine
6
ByLayer
62
7
370
-1
100
AcDbSpline
210
0
220
0
230
1
70
8
71
3
72
8
73
4
74
0
42
1e-07
43
1e-07
40
0
40
0
40
0
40
0
40
1
40
1
40
1
40
1
10
27.6565669464
20
62.1188704467
30
0
10
27.7747828588
20
61.9638812194
30
0
10
27.8554476628
20
61.8200698346
30
0
10
27.8349029106
20
61.7995248473
30
0
0
SPLINE
5
57
100
AcDbEntity
8
keine
6
ByLayer
62
7
370
-1
100
AcDbSpline
210
0
220
0
230
1
70
8
71
3
72
8
73
4
74
0
42
1e-07
43
1e-07
40
0
40
0
40
0
40
0
40
1
40
1
40
1
40
1
10
27.8349029106
20
61.7995248473
30
0
10
27.8143586286
20
61.7789805653
30
0
10
27.2978179239
20
61.6941105506
30
0
10
26.6881623114
20
61.6108208112
30
0
0
SPLINE
5
58
100
AcDbEntity
8
keine
6
ByLayer
62
7
370
-1
100
AcDbSpline
210
0
220
0
230
1
70
8
71
3
72
8
73
4
74
0
42
1e-07
43
1e-07
40
0
40
0
40
0
40
0
40
1
40
1
40
1
40
1
10
26.6881623114
20
61.6108208112
30
0
10
25.7330641056
20
61.4803372519
30
0
10
24.7584091427
20
61.2249618762
30
0
10
24.5688697074
20
61.0550767748
30
0
0
SPLINE
5
59
100
AcDbEntity
8
keine
6
ByLayer
62
7
370
-1
100
AcDbSpline
210
0
220
0
230
1
70
8
71
3
72
8
73
4
74
0
42
1e-07
43
1e-07
40
0
40
0
40
0
40
0
40
1
40
1
40
1
40
1
10
24.5688697074
20
61.0550767748
30
0
10
24.5378289752
20
61.0272549038
30
0
10
24.4610221022
20
60.8082580681
30
0
10
24.3988284831
20
60.5677637536
30
0
0
SPLINE
5
5A
100
AcDbEntity
8
keine
6
ByLayer
62
7
370
-1
100
AcDbSpline
210
0
220
0
230
1
70
8
71
3
72
8
73
4
74
0
42
1e-07
43
1e-07
40
0
40
0
40
0
40
0
40
1
40
1
40
1
40
1
10
24.3988284831
20
60.5677637536
30
0
10
24.2649793446
20
60.0501892043
30
0
10
24.3208610331
20
59.8924953341
30
0
10
24.7969734047
20
59.4479809411
30
0
0
SPLINE
5
5B
100
AcDbEntity
8
keine
6
ByLayer
62
7
370
-1
100
AcDbSpline
210
0
220
0
230
1
70
8
71
3
72
8
73
4
74
0
42
1e-07
43
1e-07
40
0
40
0
40
0
40
0
40
1
40
1
40
1
40
1
10
24.7969734047
20
59.4479809411
30
0
10
25.1180887899
20
59.1481784614
30
0
10
25.9006148859
20
58.5770386751
30
0
10
25.9914084047
20
58.5770386751
30
0
0
SPLINE
5
5C
100
AcDbEntity
8
keine
6
ByLayer
62
7
370
-1
100
AcDbSpline
210
0
220
0
230
1
70
8
71
3
72
8
73
4
74
0
42
1e-07
43
1e-07
40
0
40
0
40
0
40
0
40
1
40
1
40
1
40
1
10
25.9914084047
20
58.5770386751
30
0
10
26.0207059202
20
58.5770386751
30
0
10
26.1103894138
20
58.5188798011
30
0
10
26.1904809831
20
58.4463973471
30
0
0
SPLINE
5
5D
100
AcDbEntity
8
keine
6
ByLayer
62
7
370
-1
100
AcDbSpline
210
0
220
0
230
1
70
8
71
3
72
8
73
4
74
0
42
1e-07
43
1e-07
40
0
40
0
40
0
40
0
40
1
40
1
40
1
40
1
10
26.1904809831
20
58.4463973471
30
0
10
26.4254091834
20
58.2337914439
30
0
10
26.3690252679
20
58.0405151671
30
0
10
26.0183661913
20
57.8616219566
30
0
0
SPLINE
5
5E
100
AcDbEntity
8
keine
6
ByLayer
62
7
370
-1
100
AcDbSpline
210
0
220
0
230
1
70
8
71
3
72
8
73
4
74
0
42
1e-07
43
1e-07
40
0
40
0
40
0
40
0
40
1
40
1
40
1
40
1
10
26.0183661913
20
57.8616219566
30
0
10
25.8431825481
20
57.7722497686
30
0
10
25.6990208271
20
57.6639815246
30
0
10
25.6990208271
20
57.6210761498
30
0
0
SPLINE
5
5F
100
AcDbEntity
8
keine
6
ByLayer
62
7
370
-1
100
AcDbSpline
210
0
220
0
230
1
70
8
71
3
72
8
73
4
74
0
42
1e-07
43
1e-07
40
0
40
0
40
0
40
0
40
1
40
1
40
1
40
1
10
25.6990208271
20
57.6210761498
30
0
10
25.6990208271
20
57.5781693641
30
0
10
25.6662197139
20
57.5422765924
30
0
10
25.6243686396
20
57.5422765924
30
0
0
SPLINE
5
60
100
AcDbEntity
8
keine
6
ByLayer
62
7
370
-1
100
AcDbSpline
210
0
220
0
230
1
70
8
71
3
72
8
73
4
74
0
42
1e-07
43
1e-07
40
0
40
0
40
0
40
0
40
1
40
1
40
1
40
1
10
25.6243686396
20
57.5422765924
30
0
10
25.5825175652
20
57.5422765924
30
0
10
25.4145242796
20
57.4526939674
30
0
10
25.2531812694
20
57.3432040141
30
0
0
SPLINE
5
61
100
AcDbEntity
8
keine
6
ByLayer
62
7
370
-1
100
AcDbSpline
210
0
220
0
230
1
70
8
71
3
72
8
73
4
74
0
42
1e-07
43
1e-07
40
0
40
0
40
0
40
0
40
1
40
1
40
1
40
1
10
25.2531812694
20
57.3432040141
30
0
10
25.0918396701
20
57.2337140607
30
0
10
24.9032901111
20
57.1441314356
30
0
10
24.8342994984
20
57.1441314356
30
0
0
SPLINE
5
62
100
AcDbEntity
8
keine
6
ByLayer
62
7
370
-1
100
AcDbSpline
210
0
220
0
230
1
70
8
71
3
72
8
73
4
74
0
42
1e-07
43
1e-07
40
0
40
0
40
0
40
0
40
1
40
1
40
1
40
1
10
24.8342994984
20
57.1441314356
30
0
10
24.7653084156
20
57.1441314356
30
0
10
24.6372649836
20
57.0725344624
30
0
10
24.5481328581
20
56.9844587536
30
0
0
SPLINE
5
63
100
AcDbEntity
8
keine
6
ByLayer
62
7
370
-1
100
AcDbSpline
210
0
220
0
230
1
70
8
71
3
72
8
73
4
74
0
42
1e-07
43
1e-07
40
0
40
0
40
0
40
0
40
1
40
1
40
1
40
1
10
24.5481328581
20
56.9844587536
30
0
10
24.4590007326
20
56.8963830447
30
0
10
24.1671299597
20
56.6672182283
30
0
10
23.9011471547
20
56.4764091181
30
0
0
SPLINE
5
64
100
AcDbEntity
8
keine
6
ByLayer
62
7
370
-1
100
AcDbSpline
210
0
220
0
230
1
70
8
71
3
72
8
73
4
74
0
42
1e-07
43
1e-07
40
0
40
0
40
0
40
0
40
1
40
1
40
1
40
1
10
23.9011471547
20
56.4764091181
30
0
10
23.6351648199
20
56.2856014186
30
0
10
23.3422658454
20
56.0086559104
30
0
10
23.2479405141
20
55.8605285711
30
0
0
SPLINE
5
65
100
AcDbEntity
8
keine
6
ByLayer
62
7
370
-1
100
AcDbSpline
210
0
220
0
230
1
70
8
71
3
72
8
73
4
74
0
42
1e-07
43
1e-07
40
0
40
0
40
0
40
0
40
1
40
1
40
1
40
1
10
23.2479405141
20
55.8605285711
30
0
10
23.1536147124
20
55.7124021724
30
0
10
23.0299695287
20
55.5205977781
30
0
10
22.9742159833
20
55.4333522956
30
0
0
SPLINE
5
66
100
AcDbEntity
8
keine
6
ByLayer
62
7
370
-1
100
AcDbSpline
210
0
220
0
230
1
70
8
71
3
72
8
73
4
74
0
42
1e-07
43
1e-07
40
0
40
0
40
0
40
0
40
1
40
1
40
1
40
1
10
22.9742159833
20
55.4333522956
30
0
10
22.9184629082
20
55.3461065779
30
0
10
22.7928111677
20
55.1717947782
30
0
10
22.6942702802
20
55.0476492484
30
0
0
SPLINE
5
67
100
AcDbEntity
8
keine
6
ByLayer
62
7
370
-1
100
AcDbSpline
210
0
220
0
230
1
70
8
71
3
72
8
73
4
74
0
42
1e-07
43
1e-07
40
0
40
0
40
0
40
0
40
1
40
1
40
1
40
1
10
22.6942702802
20
55.0476492484
30
0
10
22.5957293927
20
54.9235044241
30
0
10
22.5138607487
20
54.7695716134
30
0
10
22.5138607487
20
54.7054934674
30
0
0
SPLINE
5
68
100
AcDbEntity
8
keine
6
ByLayer
62
7
370
-1
100
AcDbSpline
210
0
220
0
230
1
70
8
71
3
72
8
73
4
74
0
42
1e-07
43
1e-07
40
0
40
0
40
0
40
0
40
1
40
1
40
1
40
1
10
22.5138607487
20
54.7054934674
30
0
10
22.5138607487
20
54.6414139107
30
0
10
22.4398781972
20
54.4461179101
30
0
10
22.3500406967
20
54.2700222169
30
0
0
SPLINE
5
69
100
AcDbEntity
8
keine
6
ByLayer
62
7
370
-1
100
AcDbSpline
210
0
220
0
230
1
70
8
71
3
72
8
73
4
74
0
42
1e-07
43
1e-07
40
0
40
0
40
0
40
0
40
1
40
1
40
1
40
1
10
22.3500406967
20
54.2700222169
30
0
10
21.8977751728
20
53.3835073872
30
0
10
21.4948456926
20
51.3544795058
30
0
10
21.3214995512
20
49.1065794049
30
0
0
SPLINE
5
6A
100
AcDbEntity
8
keine
6
ByLayer
62
7
370
-1
100
AcDbSpline
210
0
220
0
230
1
70
8
71
3
72
8
73
4
74
0
42
1e-07
43
1e-07
40
0
40
0
40
0
40
0
40
1
40
1
40
1
40
1
10
21.3214995512
20
49.1065794049
30
0
10
21.2303966079
20
47.9251921966
30
0
10
20.9582577602
20
45.7934567776
30
0
10
20.7927130663
20
44.9613091961
30
0
0
SPLINE
5
6B
100
AcDbEntity
8
keine
6
ByLayer
62
7
370
-1
100
AcDbSpline
210
0
220
0
230
1
70
8
71
3
72
8
73
4
74
0
42
1e-07
43
1e-07
40
0
40
0
40
0
40
0
40
1
40
1
40
1
40
1
10
20.7927130663
20
44.9613091961
30
0
10
20.7273683019
20
44.6328395712
30
0
10
20.6369157144
20
44.1303473501
30
0
10
20.5915669206
20
43.8456737536
30
0
0
SPLINE
5
6C
100
AcDbEntity
8
keine
6
ByLayer
62
7
370
-1
100
AcDbSpline
210
0
220
0
230
1
70
8
71
3
72
8
73
4
74
0
42
1e-07
43
1e-07
40
0
40
0
40
0
40
0
40
1
40
1
40
1
40
1
10
20.5915669206
20
43.8456737536
30
0
10
20.4667364717
20
43.0620646718
30
0
10
20.1564182616
20
41.8392002378
30
0
10
19.9072551234
20
41.1395319567
30
0
0
SPLINE
5
6D
100
AcDbEntity
8
keine
6
ByLayer
62
7
370
-1
100
AcDbSpline
210
0
220
0
230
1
70
8
71
3
72
8
73
4
74
0
42
1e-07
43
1e-07
40
0
40
0
40
0
40
0
40
1
40
1
40
1
40
1
10
19.9072551234
20
41.1395319567
30
0
10
19.8214749399
20
40.8986541533
30
0
10
19.6538326959
20
40.3786604029
30
0
10
19.5339941859
20
39.9844968529
30
0
0
SPLINE
5
6E
100
AcDbEntity
8
keine
6
ByLayer
62
7
370
-1
100
AcDbSpline
210
0
220
0
230
1
70
8
71
3
72
8
73
4
74
0
42
1e-07
43
1e-07
40
0
40
0
40
0
40
0
40
1
40
1
40
1
40
1
10
19.5339941859
20
39.9844968529
30
0
10
19.3269614507
20
39.3035419354
30
0
10
19.1001119102
20
38.7471543619
30
0
10
18.7667356967
20
38.1016026859
30
0
0
SPLINE
5
6F
100
AcDbEntity
8
keine
6
ByLayer
62
7
370
-1
100
AcDbSpline
210
0
220
0
230
1
70
8
71
3
72
8
73
4
74
0
42
1e-07
43
1e-07
40
0
40
0
40
0
40
0
40
1
40
1
40
1
40
1
10
18.7667356967
20
38.1016026859
30
0
10
18.6343034214
20
37.8451600778
30
0
10
18.5617619511
20
37.6652497166
30
0
10
18.3374856186
20
37.0378090141
30
0
0
SPLINE
5
70
100
AcDbEntity
8
keine
6
ByLayer
62
7
370
-1
100
AcDbSpline
210
0
220
0
230
1
70
8
71
3
72
8
73
4
74
0
42
1e-07
43
1e-07
40
0
40
0
40
0
40
0
40
1
40
1
40
1
40
1
10
18.3374856186
20
37.0378090141
30
0
10
18.2973107503
20
36.9254152669
30
0
10
18.3401305397
20
36.9481408036
30
0
10
18.4826426237
20
37.1145347689
30
0
0
SPLINE
5
71
100
AcDbEntity
8
keine
6
ByLayer
62
7
370
-1
100
AcDbSpline
210
0
220
0
230
1
70
8
71
3
72
8
73
4
74
0
42
1e-07
43
1e-07
40
0
40
0
40
0
40
0
40
1
40
1
40
1
40
1
10
18.4826426237
20
37.1145347689
30
0
10
18.7501064811
20
37.4268212104
30
0
10
18.8188720791
20
37.3311596636
30
0
10
18.6609783527
20
36.8677680248
30
0
0
SPLINE
5
72
100
AcDbEntity
8
keine
6
ByLayer
62
7
370
-1
100
AcDbSpline
210
0
220
0
230
1
70
8
71
3
72
8
73
4
74
0
42
1e-07
43
1e-07
40
0
40
0
40
0
40
0
40
1
40
1
40
1
40
1
10
18.6609783527
20
36.8677680248
30
0
10
18.5903587941
20
36.6605102749
30
0
10
18.5324108271
20
36.4191998416
30
0
10
18.5324108271
20
36.3306868002
30
0
0
SPLINE
5
73
100
AcDbEntity
8
keine
6
ByLayer
62
7
370
-1
100
AcDbSpline
210
0
220
0
230
1
70
8
71
3
72
8
73
4
74
0
42
1e-07
43
1e-07
40
0
40
0
40
0
40
0
40
1
40
1
40
1
40
1
10
18.5324108271
20
36.3306868002
30
0
10
18.5324108271
20
36.1799227692
30
0
10
18.3311424163
20
35.3870062643
30
0
10
17.9621511137
20
34.0911211752
30
0
0
SPLINE
5
74
100
AcDbEntity
8
keine
6
ByLayer
62
7
370
-1
100
AcDbSpline
210
0
220
0
230
1
70
8
71
3
72
8
73
4
74
0
42
1e-07
43
1e-07
40
0
40
0
40
0
40
0
40
1
40
1
40
1
40
1
10
17.9621511137
20
34.0911211752
30
0
10
17.6466298224
20
32.9830146701
30
0
10
17.4732056196
20
30.4677894356
30
0
10
17.6490264516
20
29.5373377376
30
0
0
SPLINE
5
75
100
AcDbEntity
8
keine
6
ByLayer
62
7
370
-1
100
AcDbSpline
210
0
220
0
230
1
70
8
71
3
72
8
73
4
74
0
42
1e-07
43
1e-07
40
0
40
0
40
0
40
0
40
1
40
1
40
1
40
1
10
17.6490264516
20
29.5373377376
30
0
10
17.6887442368
20
29.3271517411
30
0
10
17.7654833938
20
28.8043879831
30
0
10
17.8190676759
20
28.3760816967
30
0
0
SPLINE
5
76
100
AcDbEntity
8
keine
6
ByLayer
62
7
370
-1
100
AcDbSpline
210
0
220
0
230
1
70
8
71
3
72
8
73
4
74
0
42
1e-07
43
1e-07
40
0
40
0
40
0
40
0
40
1
40
1
40
1
40
1
10
17.8190676759
20
28.3760816967
30
0
10
17.9220425507
20
27.5529897196
30
0
10
17.9120271662
20
27.4587116483
30
0
10
17.5723006967
20
25.9291487536
30
0
0
SPLINE
5
77
100
AcDbEntity
8
keine
6
ByLayer
62
7
370
-1
100
AcDbSpline
210
0
220
0
230
1
70
8
71
3
72
8
73
4
74
0
42
1e-07
43
1e-07
40
0
40
0
40
0
40
0
40
1
40
1
40
1
40
1
10
17.5723006967
20
25.9291487536
30
0
10
17.4896020614
20
25.5568109168
30
0
10
17.4420861204
20
25.1766168484
30
0
10
17.4665433527
20
25.0830907069
30
0
0
SPLINE
5
78
100
AcDbEntity
8
keine
6
ByLayer
62
7
370
-1
100
AcDbSpline
210
0
220
0
230
1
70
8
71
3
72
8
73
4
74
0
42
1e-07
43
1e-07
40
0
40
0
40
0
40
0
40
1
40
1
40
1
40
1
10
17.4665433527
20
25.0830907069
30
0
10
17.4910008201
20
24.9895650356
30
0
10
17.4771766457
20
24.8911494698
30
0
10
17.4354384313
20
24.8653550817
30
0
0
SPLINE
5
79
100
AcDbEntity
8
keine
6
ByLayer
62
7
370
-1
100
AcDbSpline
210
0
220
0
230
1
70
8
71
3
72
8
73
4
74
0
42
1e-07
43
1e-07
40
0
40
0
40
0
40
0
40
1
40
1
40
1
40
1
10
17.4354384313
20
24.8653550817
30
0
10
17.3937020979
20
24.8395592828
30
0
10
17.3782793087
20
24.7248935228
30
0
10
17.4001859049
20
24.6102933627
30
0
0
SPLINE
5
7A
100
AcDbEntity
8
keine
6
ByLayer
62
7
370
-1
100
AcDbSpline
210
0
220
0
230
1
70
8
71
3
72
8
73
4
74
0
42
1e-07
43
1e-07
40
0
40
0
40
0
40
0
40
1
40
1
40
1
40
1
10
17.4001859049
20
24.6102933627
30
0
10
17.4339472686
20
24.4336836863
30
0
10
17.4703636637
20
24.4843808686
30
0
10
17.6365845771
20
24.9462282064
30
0
0
SPLINE
5
7B
100
AcDbEntity
8
keine
6
ByLayer
62
7
370
-1
100
AcDbSpline
210
0
220
0
230
1
70
8
71
3
72
8
73
4
74
0
42
1e-07
43
1e-07
40
0
40
0
40
0
40
0
40
1
40
1
40
1
40
1
10
17.6365845771
20
24.9462282064
30
0
10
17.7444427629
20
25.2459159451
30
0
10
17.8621110692
20
25.6180005522
30
0
10
17.8999408007
20
25.7736234413
30
0
0
SPLINE
5
7C
100
AcDbEntity
8
keine
6
ByLayer
62
7
370
-1
100
AcDbSpline
210
0
220
0
230
1
70
8
71
3
72
8
73
4
74
0
42
1e-07
43
1e-07
40
0
40
0
40
0
40
0
40
1
40
1
40
1
40
1
10
17.8999408007
20
25.7736234413
30
0
10
17.9377712376
20
25.9292463304
30
0
10
18.0417740788
20
26.2175695373
30
0
10
18.1301185356
20
26.4123144049
30
0
0
SPLINE
5
7D
100
AcDbEntity
8
keine
6
ByLayer
62
7
370
-1
100
AcDbSpline
210
0
220
0
230
1
70
8
71
3
72
8
73
4
74
0
42
1e-07
43
1e-07
40
0
40
0
40
0
40
0
40
1
40
1
40
1
40
1
10
18.1301185356
20
26.4123144049
30
0
10
18.2184620518
20
26.6070590374
30
0
10
18.2909026536
20
26.8263558926
30
0
10
18.2918647851
20
26.9017009936
30
0
0
SPLINE
5
7E
100
AcDbEntity
8
keine
6
ByLayer
62
7
370
-1
100
AcDbSpline
210
0
220
0
230
1
70
8
71
3
72
8
73
4
74
0
42
1e-07
43
1e-07
40
0
40
0
40
0
40
0
40
1
40
1
40
1
40
1
10
18.2918647851
20
26.9017009936
30
0
10
18.2928264463
20
26.9770465646
30
0
10
18.3835212126
20
27.2346647978
30
0
10
18.4930109308
20
27.4740342743
30
0
0
SPLINE
5
7F
100
AcDbEntity
8
keine
6
ByLayer
62
7
370
-1
100
AcDbSpline
210
0
220
0
230
1
70
8
71
3
72
8
73
4
74
0
42
1e-07
43
1e-07
40
0
40
0
40
0
40
0
40
1
40
1
40
1
40
1
10
18.4930109308
20
27.4740342743
30
0
10
18.6025008842
20
27.7134030454
30
0
10
18.6920835092
20
28.0025033404
30
0
10
18.6920835092
20
28.1147990404
30
0
0
SPLINE
5
80
100
AcDbEntity
8
keine
6
ByLayer
62
7
370
-1
100
AcDbSpline
210
0
220
0
230
1
70
8
71
3
72
8
73
4
74
0
42
1e-07
43
1e-07
40
0
40
0
40
0
40
0
40
1
40
1
40
1
40
1
10
18.6920835092
20
28.1147990404
30
0
10
18.6920835092
20
28.2270956809
30
0
10
18.7235164299
20
28.3180187536
30
0
10
18.7625883268
20
28.3180187536
30
0
0
SPLINE
5
81
100
AcDbEntity
8
keine
6
ByLayer
62
7
370
-1
100
AcDbSpline
210
0
220
0
230
1
70
8
71
3
72
8
73
4
74
0
42
1e-07
43
1e-07
40
0
40
0
40
0
40
0
40
1
40
1
40
1
40
1
10
18.7625883268
20
28.3180187536
30
0
10
18.8016597534
20
28.3180187536
30
0
10
18.8634903396
20
27.9519742726
30
0
10
18.8994505922
20
27.5030656283
30
0
0
SPLINE
5
82
100
AcDbEntity
8
keine
6
ByLayer
62
7
370
-1
100
AcDbSpline
210
0
220
0
230
1
70
8
71
3
72
8
73
4
74
0
42
1e-07
43
1e-07
40
0
40
0
40
0
40
0
40
1
40
1
40
1
40
1
10
18.8994505922
20
27.5030656283
30
0
10
18.9354117853
20
27.0541572191
30
0
10
18.9770465447
20
26.7869494129
30
0
10
18.9927658266
20
26.9099954981
30
0
0
SPLINE
5
83
100
AcDbEntity
8
keine
6
ByLayer
62
7
370
-1
100
AcDbSpline
210
0
220
0
230
1
70
8
71
3
72
8
73
4
74
0
42
1e-07
43
1e-07
40
0
40
0
40
0
40
0
40
1
40
1
40
1
40
1
10
18.9927658266
20
26.9099954981
30
0
10
19.0275711452
20
27.1824230794
30
0
10
19.2751356684
20
27.1774793411
30
0
10
19.3141849933
20
26.9037745609
30
0
0
SPLINE
5
84
100
AcDbEntity
8
keine
6
ByLayer
62
7
370
-1
100
AcDbSpline
210
0
220
0
230
1
70
8
71
3
72
8
73
4
74
0
42
1e-07
43
1e-07
40
0
40
0
40
0
40
0
40
1
40
1
40
1
40
1
10
19.3141849933
20
26.9037745609
30
0
10
19.3281798684
20
26.8056808811
30
0
10
19.3720222164
20
26.7254388319
30
0
10
19.4116475976
20
26.7254388319
30
0
0
SPLINE
5
85
100
AcDbEntity
8
keine
6
ByLayer
62
7
370
-1
100
AcDbSpline
210
0
220
0
230
1
70
8
71
3
72
8
73
4
74
0
42
1e-07
43
1e-07
40
0
40
0
40
0
40
0
40
1
40
1
40
1
40
1
10
19.4116475976
20
26.7254388319
30
0
10
19.5418769867
20
26.7254388319
30
0
10
19.7448505239
20
26.2306892771
30
0
10
19.7019616078
20
26.0162430507
30
0
0
SPLINE
5
86
100
AcDbEntity
8
keine
6
ByLayer
62
7
370
-1
100
AcDbSpline
210
0
220
0
230
1
70
8
71
3
72
8
73
4
74
0
42
1e-07
43
1e-07
40
0
40
0
40
0
40
0
40
1
40
1
40
1
40
1
10
19.7019616078
20
26.0162430507
30
0
10
19.6789675584
20
25.9012725687
30
0
10
19.4957689742
20
25.5158994019
30
0
10
19.2955219464
20
25.1598164618
30
0
0
SPLINE
5
87
100
AcDbEntity
8
keine
6
ByLayer
62
7
370
-1
100
AcDbSpline
210
0
220
0
230
1
70
8
71
3
72
8
73
4
74
0
42
1e-07
43
1e-07
40
0
40
0
40
0
40
0
40
1
40
1
40
1
40
1
10
19.2955219464
20
25.1598164618
30
0
10
19.0952749187
20
24.8037328163
30
0
10
18.9305557487
20
24.4741458773
30
0
10
18.9305557487
20
24.4257366964
30
0
0
SPLINE
5
88
100
AcDbEntity
8
keine
6
ByLayer
62
7
370
-1
100
AcDbSpline
210
0
220
0
230
1
70
8
71
3
72
8
73
4
74
0
42
1e-07
43
1e-07
40
0
40
0
40
0
40
0
40
1
40
1
40
1
40
1
10
18.9305557487
20
24.4257366964
30
0
10
18.9305557487
20
24.3773275156
30
0
10
18.8426227607
20
24.1672144077
30
0
10
18.7356305402
20
23.9591605246
30
0
0
SPLINE
5
89
100
AcDbEntity
8
keine
6
ByLayer
62
7
370
-1
100
AcDbSpline
210
0
220
0
230
1
70
8
71
3
72
8
73
4
74
0
42
1e-07
43
1e-07
40
0
40
0
40
0
40
0
40
1
40
1
40
1
40
1
10
18.7356305402
20
23.9591605246
30
0
10
18.4807322331
20
23.4634951579
30
0
10
18.1342656703
20
22.6306414962
30
0
10
18.1342656703
20
22.5138111754
30
0
0
SPLINE
5
8A
100
AcDbEntity
8
keine
6
ByLayer
62
7
370
-1
100
AcDbSpline
210
0
220
0
230
1
70
8
71
3
72
8
73
4
74
0
42
1e-07
43
1e-07
40
0
40
0
40
0
40
0
40
1
40
1
40
1
40
1
10
18.1342656703
20
22.5138111754
30
0
10
18.1342656703
20
22.4630869538
30
0
10
18.0446830453
20
22.2446398403
30
0
10
17.9351933271
20
22.0285719567
30
0
0
SPLINE
5
8B
100
AcDbEntity
8
keine
6
ByLayer
62
7
370
-1
100
AcDbSpline
210
0
220
0
230
1
70
8
71
3
72
8
73
4
74
0
42
1e-07
43
1e-07
40
0
40
0
40
0
40
0
40
1
40
1
40
1
40
1
10
17.9351933271
20
22.0285719567
30
0
10
17.8257033737
20
21.8125040731
30
0
10
17.7361207487
20
21.5856674644
30
0
10
17.7361207487
20
21.5267434936
30
0
0
SPLINE
5
8C
100
AcDbEntity
8
keine
6
ByLayer
62
7
370
-1
100
AcDbSpline
210
0
220
0
230
1
70
8
71
3
72
8
73
4
74
0
42
1e-07
43
1e-07
40
0
40
0
40
0
40
0
40
1
40
1
40
1
40
1
10
17.7361207487
20
21.5267434936
30
0
10
17.7361207487
20
21.4678204631
30
0
10
17.6663981919
20
21.2750837981
30
0
10
17.5805954364
20
21.0974934154
30
0
0
SPLINE
5
8D
100
AcDbEntity
8
keine
6
ByLayer
62
7
370
-1
100
AcDbSpline
210
0
220
0
230
1
70
8
71
3
72
8
73
4
74
0
42
1e-07
43
1e-07
40
0
40
0
40
0
40
0
40
1
40
1
40
1
40
1
10
17.5805954364
20
21.0974934154
30
0
10
17.3952781408
20
20.7139297707
30
0
10
17.1820023666
20
20.1174832456
30
0
10
17.1803767123
20
19.9777106029
30
0
0
SPLINE
5
8E
100
AcDbEntity
8
keine
6
ByLayer
62
7
370
-1
100
AcDbSpline
210
0
220
0
230
1
70
8
71
3
72
8
73
4
74
0
42
1e-07
43
1e-07
40
0
40
0
40
0
40
0
40
1
40
1
40
1
40
1
10
17.1803767123
20
19.9777106029
30
0
10
17.1794583141
20
19.8987981856
30
0
10
18.6888110394
20
19.8781741962
30
0
10
24.4651859308
20
19.8781741962
30
0
0
LWPOLYLINE
5
8F
100
AcDbEntity
8
keine
6
ByLayer
62
7
370
-1
100
AcDbPolyline
90
3
70
0
43
0
10
27.5964304359
20
62.6186253424
10
27.4409051237
20
62.4008897172
10
27.6565669464
20
62.1188704467
0
SPLINE
5
90
100
AcDbEntity
8
keine
6
ByLayer
62
7
370
-1
100
AcDbSpline
210
0
220
0
230
1
70
8
71
3
72
8
73
4
74
0
42
1e-07
43
1e-07
40
0
40
0
40
0
40
0
40
1
40
1
40
1
40
1
10
31.7520689518
20
20.0979833888
30
0
10
31.7520689518
20
20.2190407868
30
0
10
31.6799880913
20
20.5136230211
30
0
10
31.5923962697
20
20.7532638319
30
0
0
SPLINE
5
91
100
AcDbEntity
8
keine
6
ByLayer
62
7
370
-1
100
AcDbSpline
210
0
220
0
230
1
70
8
71
3
72
8
73
4
74
0
42
1e-07
43
1e-07
40
0
40
0
40
0
40
0
40
1
40
1
40
1
40
1
10
31.5923962697
20
20.7532638319
30
0
10
31.5048044481
20
20.9929046427
30
0
10
31.4325907419
20
21.2426955646
30
0
10
31.4327235876
20
21.3090078683
30
0
0
SPLINE
5
92
100
AcDbEntity
8
keine
6
ByLayer
62
7
370
-1
100
AcDbSpline
210
0
220
0
230
1
70
8
71
3
72
8
73
4
74
0
42
1e-07
43
1e-07
40
0
40
0
40
0
40
0
40
1
40
1
40
1
40
1
10
31.4327235876
20
21.3090078683
30
0
10
31.4328994611
20
21.3753201721
30
0
10
31.3462178083
20
21.7176040961
30
0
10
31.2398719464
20
22.0679718529
30
0
0
SPLINE
5
93
100
AcDbEntity
8
keine
6
ByLayer
62
7
370
-1
100
AcDbSpline
210
0
220
0
230
1
70
8
71
3
72
8
73
4
74
0
42
1e-07
43
1e-07
40
0
40
0
40
0
40
0
40
1
40
1
40
1
40
1
10
31.2398719464
20
22.0679718529
30
0
10
30.5588953974
20
24.3115054474
30
0
10
30.1609460998
20
26.4241550648
30
0
10
30.1283838737
20
27.9592734931
30
0
0
LWPOLYLINE
5
94
100
AcDbEntity
8
keine
6
ByLayer
62
7
370
-1
100
AcDbPolyline
90
3
70
0
43
0
10
24.4651859308
20
19.8781741962
10
31.7520689518
20
19.8781741962
10
31.7520689518
20
20.0979833888
0
SPLINE
5
95
100
AcDbEntity
8
keine
6
ByLayer
62
7
370
-1
100
AcDbSpline
210
0
220
0
230
1
70
8
71
3
72
8
73
4
74
0
42
1e-07
43
1e-07
40
0
40
0
40
0
40
0
40
1
40
1
40
1
40
1
10
30.4186978839
20
28.3408291703
30
0
10
30.7316226898
20
28.3223843194
30
0
10
31.3603375348
20
28.6271279509
30
0
10
32.0299410876
20
29.1226035717
30
0
0
SPLINE
5
96
100
AcDbEntity
8
keine
6
ByLayer
62
7
370
-1
100
AcDbSpline
210
0
220
0
230
1
70
8
71
3
72
8
73
4
74
0
42
1e-07
43
1e-07
40
0
40
0
40
0
40
0
40
1
40
1
40
1
40
1
10
32.0299410876
20
29.1226035717
30
0
10
32.2051247308
20
29.2522315111
30
0
10
32.4388690768
20
29.4197768836
30
0
10
32.5483590302
20
29.4937907066
30
0
0
SPLINE
5
97
100
AcDbEntity
8
keine
6
ByLayer
62
7
370
-1
100
AcDbSpline
210
0
220
0
230
1
70
8
71
3
72
8
73
4
74
0
42
1e-07
43
1e-07
40
0
40
0
40
0
40
0
40
1
40
1
40
1
40
1
10
32.5483590302
20
29.4937907066
30
0
10
32.7723043067
20
29.6451766433
30
0
10
33.3624859262
20
30.0885363376
30
0
10
33.4234484308
20
30.1511447171
30
0
0
SPLINE
5
98
100
AcDbEntity
8
keine
6
ByLayer
62
7
370
-1
100
AcDbSpline
210
0
220
0
230
1
70
8
71
3
72
8
73
4
74
0
42
1e-07
43
1e-07
40
0
40
0
40
0
40
0
40
1
40
1
40
1
40
1
10
33.4234484308
20
30.1511447171
30
0
10
33.4453465626
20
30.1736346586
30
0
10
33.6689342139
20
30.3297724714
30
0
10
33.9190561918
20
30.4995216706
30
0
0
SPLINE
5
99
100
AcDbEntity
8
keine
6
ByLayer
62
7
370
-1
100
AcDbSpline
210
0
220
0
230
1
70
8
71
3
72
8
73
4
74
0
42
1e-07
43
1e-07
40
0
40
0
40
0
40
0
40
1
40
1
40
1
40
1
10
33.9190561918
20
30.4995216706
30
0
10
34.1691786399
20
30.6692713399
30
0
10
34.4378754928
20
30.8665296938
30
0
10
34.5183472592
20
30.9370662533
30
0
0
SPLINE
5
9A
100
AcDbEntity
8
keine
6
ByLayer
62
7
370
-1
100
AcDbSpline
210
0
220
0
230
1
70
8
71
3
72
8
73
4
74
0
42
1e-07
43
1e-07
40
0
40
0
40
0
40
0
40
1
40
1
40
1
40
1
10
34.5183472592
20
30.9370662533
30
0
10
34.5988183202
20
31.0076044587
30
0
10
34.7592589206
20
31.1202131101
30
0
10
34.8729451498
20
31.1859070351
30
0
0
SPLINE
5
9B
100
AcDbEntity
8
keine
6
ByLayer
62
7
370
-1
100
AcDbSpline
210
0
220
0
230
1
70
8
71
3
72
8
73
4
74
0
42
1e-07
43
1e-07
40
0
40
0
40
0
40
0
40
1
40
1
40
1
40
1
10
34.8729451498
20
31.1859070351
30
0
10
35.0780794858
20
31.3044441281
30
0
10
35.4254404641
20
31.5273999986
30
0
10
36.5360298891
20
32.2497007069
30
0
0
SPLINE
5
9C
100
AcDbEntity
8
keine
6
ByLayer
62
7
370
-1
100
AcDbSpline
210
0
220
0
230
1
70
8
71
3
72
8
73
4
74
0
42
1e-07
43
1e-07
40
0
40
0
40
0
40
0
40
1
40
1
40
1
40
1
10
36.5360298891
20
32.2497007069
30
0
10
37.3130458307
20
32.7550515777
30
0
10
37.8030435092
20
33.5063544844
30
0
10
37.8030435092
20
34.1968785191
30
0
0
SPLINE
5
9D
100
AcDbEntity
8
keine
6
ByLayer
62
7
370
-1
100
AcDbSpline
210
0
220
0
230
1
70
8
71
3
72
8
73
4
74
0
42
1e-07
43
1e-07
40
0
40
0
40
0
40
0
40
1
40
1
40
1
40
1
10
37.8030435092
20
34.1968785191
30
0
10
37.8030435092
20
34.3050028666
30
0
10
37.8893997489
20
34.5769717189
30
0
10
37.9958949152
20
34.8003169564
30
0
0
SPLINE
5
9E
100
AcDbEntity
8
keine
6
ByLayer
62
7
370
-1
100
AcDbSpline
210
0
220
0
230
1
70
8
71
3
72
8
73
4
74
0
42
1e-07
43
1e-07
40
0
40
0
40
0
40
0
40
1
40
1
40
1
40
1
10
37.9958949152
20
34.8003169564
30
0
10
38.1023893761
20
35.0236617237
30
0
10
38.2017597846
20
35.2741718929
30
0
10
38.2157041078
20
35.3581347953
30
0
0
SPLINE
5
9F
100
AcDbEntity
8
keine
6
ByLayer
62
7
370
-1
100
AcDbSpline
210
0
220
0
230
1
70
8
71
3
72
8
73
4
74
0
42
1e-07
43
1e-07
40
0
40
0
40
0
40
0
40
1
40
1
40
1
40
1
10
38.2157041078
20
35.3581347953
30
0
10
38.2959296983
20
35.8411974619
30
0
10
38.6513531128
20
35.1651498383
30
0
10
39.0389519728
20
33.7925124252
30
0
0
SPLINE
5
A0
100
AcDbEntity
8
keine
6
ByLayer
62
7
370
-1
100
AcDbSpline
210
0
220
0
230
1
70
8
71
3
72
8
73
4
74
0
42
1e-07
43
1e-07
40
0
40
0
40
0
40
0
40
1
40
1
40
1
40
1
10
39.0389519728
20
33.7925124252
30
0
10
39.2203229304
20
33.1502071201
30
0
10
39.3095465196
20
32.9674524518
30
0
10
39.5470016083
20
32.7411608629
30
0
0
SPLINE
5
A1
100
AcDbEntity
8
keine
6
ByLayer
62
7
370
-1
100
AcDbSpline
210
0
220
0
230
1
70
8
71
3
72
8
73
4
74
0
42
1e-07
43
1e-07
40
0
40
0
40
0
40
0
40
1
40
1
40
1
40
1
10
39.5470016083
20
32.7411608629
30
0
10
39.7868900057
20
32.5125500011
30
0
10
40.6317124704
20
31.9013237536
30
0
10
40.7082578844
20
31.9013237536
30
0
0
SPLINE
5
A2
100
AcDbEntity
8
keine
6
ByLayer
62
7
370
-1
100
AcDbSpline
210
0
220
0
230
1
70
8
71
3
72
8
73
4
74
0
42
1e-07
43
1e-07
40
0
40
0
40
0
40
0
40
1
40
1
40
1
40
1
10
40.7082578844
20
31.9013237536
30
0
10
40.7208166161
20
31.9013237536
30
0
10
41.1331898919
20
31.6325758786
30
0
10
41.6248207487
20
31.3041062536
30
0
0
SPLINE
5
A3
100
AcDbEntity
8
keine
6
ByLayer
62
7
370
-1
100
AcDbSpline
210
0
220
0
230
1
70
8
71
3
72
8
73
4
74
0
42
1e-07
43
1e-07
40
0
40
0
40
0
40
0
40
1
40
1
40
1
40
1
10
41.6248207487
20
31.3041062536
30
0
10
42.1164516054
20
30.9756366286
30
0
10
42.5436027227
20
30.7068887536
30
0
10
42.5745625719
20
30.7068887536
30
0
0
SPLINE
5
A4
100
AcDbEntity
8
keine
6
ByLayer
62
7
370
-1
100
AcDbSpline
210
0
220
0
230
1
70
8
71
3
72
8
73
4
74
0
42
1e-07
43
1e-07
40
0
40
0
40
0
40
0
40
1
40
1
40
1
40
1
10
42.5745625719
20
30.7068887536
30
0
10
42.6055228914
20
30.7068887536
30
0
10
42.7095396051
20
30.6173061286
30
0
10
42.8047400717
20
30.5078161751
30
0
0
SPLINE
5
A5
100
AcDbEntity
8
keine
6
ByLayer
62
7
370
-1
100
AcDbSpline
210
0
220
0
230
1
70
8
71
3
72
8
73
4
74
0
42
1e-07
43
1e-07
40
0
40
0
40
0
40
0
40
1
40
1
40
1
40
1
10
42.8047400717
20
30.5078161751
30
0
10
42.8999405383
20
30.3983264569
30
0
10
43.0285731936
20
30.3087438319
30
0
10
43.0909067121
20
30.3087438319
30
0
0
SPLINE
5
A6
100
AcDbEntity
8
keine
6
ByLayer
62
7
370
-1
100
AcDbSpline
210
0
220
0
230
1
70
8
71
3
72
8
73
4
74
0
42
1e-07
43
1e-07
40
0
40
0
40
0
40
0
40
1
40
1
40
1
40
1
10
43.0909067121
20
30.3087438319
30
0
10
43.1532409359
20
30.3087438319
30
0
10
43.2173179063
20
30.2798556691
30
0
10
43.2319165824
20
30.2444599516
30
0
0
SPLINE
5
A7
100
AcDbEntity
8
keine
6
ByLayer
62
7
370
-1
100
AcDbSpline
210
0
220
0
230
1
70
8
71
3
72
8
73
4
74
0
42
1e-07
43
1e-07
40
0
40
0
40
0
40
0
40
1
40
1
40
1
40
1
10
43.2319165824
20
30.2444599516
30
0
10
43.2554972687
20
30.1872843702
30
0
10
43.7054176558
20
29.8509686239
30
0
10
44.2127633271
20
29.5124537536
30
0
0
SPLINE
5
A8
100
AcDbEntity
8
keine
6
ByLayer
62
7
370
-1
100
AcDbSpline
210
0
220
0
230
1
70
8
71
3
72
8
73
4
74
0
42
1e-07
43
1e-07
40
0
40
0
40
0
40
0
40
1
40
1
40
1
40
1
10
44.2127633271
20
29.5124537536
30
0
10
44.5587897358
20
29.2815760516
30
0
10
45.1687413707
20
28.8457671616
30
0
10
45.2081257487
20
28.8011844049
30
0
0
SPLINE
5
A9
100
AcDbEntity
8
keine
6
ByLayer
62
7
370
-1
100
AcDbSpline
210
0
220
0
230
1
70
8
71
3
72
8
73
4
74
0
42
1e-07
43
1e-07
40
0
40
0
40
0
40
0
40
1
40
1
40
1
40
1
10
45.2081257487
20
28.8011844049
30
0
10
45.2300236453
20
28.7763958816
30
0
10
45.4353225688
20
28.6561301494
30
0
10
45.6643336134
20
28.5336805763
30
0
0
SPLINE
5
AA
100
AcDbEntity
8
keine
6
ByLayer
62
7
370
-1
100
AcDbSpline
210
0
220
0
230
1
70
8
71
3
72
8
73
4
74
0
42
1e-07
43
1e-07
40
0
40
0
40
0
40
0
40
1
40
1
40
1
40
1
10
45.6643336134
20
28.5336805763
30
0
10
45.9554790257
20
28.3780085461
30
0
10
46.1718610363
20
28.3181327891
30
0
10
46.3818241344
20
28.3346082331
30
0
0
LWPOLYLINE
5
AB
100
AcDbEntity
8
keine
6
ByLayer
62
7
370
-1
100
AcDbPolyline
90
3
70
0
43
0
10
30.1283838737
20
27.9592734931
10
30.1180155666
20
28.3574186498
10
30.4186978839
20
28.3408291703
0
SPLINE
5
AC
100
AcDbEntity
8
keine
6
ByLayer
62
7
370
-1
100
AcDbSpline
210
0
220
0
230
1
70
8
71
3
72
8
73
4
74
0
42
1e-07
43
1e-07
40
0
40
0
40
0
40
0
40
1
40
1
40
1
40
1
10
46.7073904359
20
27.9219473993
30
0
10
46.7209839527
20
27.6817618039
30
0
10
46.6733868936
20
26.9870193916
30
0
10
46.6037068944
20
26.3791356811
30
0
0
SPLINE
5
AD
100
AcDbEntity
8
keine
6
ByLayer
62
7
370
-1
100
AcDbSpline
210
0
220
0
230
1
70
8
71
3
72
8
73
4
74
0
42
1e-07
43
1e-07
40
0
40
0
40
0
40
0
40
1
40
1
40
1
40
1
10
46.6037068944
20
26.3791356811
30
0
10
46.5340268953
20
25.7712510301
30
0
10
46.4439876576
20
24.6073698184
30
0
10
46.4025607487
20
23.7911931026
30
0
0
SPLINE
5
AE
100
AcDbEntity
8
keine
6
ByLayer
62
7
370
-1
100
AcDbSpline
210
0
220
0
230
1
70
8
71
3
72
8
73
4
74
0
42
1e-07
43
1e-07
40
0
40
0
40
0
40
0
40
1
40
1
40
1
40
1
10
46.4025607487
20
23.7911931026
30
0
10
46.3611338398
20
22.9750163869
30
0
10
46.2752849998
20
21.8102518107
30
0
10
46.2117829101
20
21.2032505243
30
0
0
SPLINE
5
AF
100
AcDbEntity
8
keine
6
ByLayer
62
7
370
-1
100
AcDbSpline
210
0
220
0
230
1
70
8
71
3
72
8
73
4
74
0
42
1e-07
43
1e-07
40
0
40
0
40
0
40
0
40
1
40
1
40
1
40
1
10
46.2117829101
20
21.2032505243
30
0
10
46.1482815257
20
20.5962487676
30
0
10
46.1158399187
20
20.0489652341
30
0
10
46.1392045251
20
19.9880789101
30
0
0
SPLINE
5
B0
100
AcDbEntity
8
keine
6
ByLayer
62
7
370
-1
100
AcDbSpline
210
0
220
0
230
1
70
8
71
3
72
8
73
4
74
0
42
1e-07
43
1e-07
40
0
40
0
40
0
40
0
40
1
40
1
40
1
40
1
10
46.1392045251
20
19.9880789101
30
0
10
46.1751581942
20
19.8943820678
30
0
10
47.7018194113
20
19.8781741962
30
0
10
56.0783137697
20
19.8781741962
30
0
0
LWPOLYLINE
5
B1
100
AcDbEntity
8
keine
6
ByLayer
62
7
370
-1
100
AcDbPolyline
90
3
70
0
43
0
10
46.3818241344
20
28.3346082331
10
46.6825064518
20
28.3574186498
10
46.7073904359
20
27.9219473993
0
SPLINE
5
B2
100
AcDbEntity
8
keine
6
ByLayer
62
7
370
-1
100
AcDbSpline
210
0
220
0
230
1
70
8
71
3
72
8
73
4
74
0
42
1e-07
43
1e-07
40
0
40
0
40
0
40
0
40
1
40
1
40
1
40
1
10
65.9116656703
20
20.1539725294
30
0
10
65.8773689271
20
20.3060419744
30
0
10
65.6114331471
20
20.9058310366
30
0
10
65.3206693427
20
21.4873435973
30
0
0
SPLINE
5
B3
100
AcDbEntity
8
keine
6
ByLayer
62
7
370
-1
100
AcDbSpline
210
0
220
0
230
1
70
8
71
3
72
8
73
4
74
0
42
1e-07
43
1e-07
40
0
40
0
40
0
40
0
40
1
40
1
40
1
40
1
10
65.3206693427
20
21.4873435973
30
0
10
64.6083029008
20
22.9120456796
30
0
10
64.4498876672
20
23.1930910624
30
0
10
64.1863708532
20
23.4884369828
30
0
0
SPLINE
5
B4
100
AcDbEntity
8
keine
6
ByLayer
62
7
370
-1
100
AcDbSpline
210
0
220
0
230
1
70
8
71
3
72
8
73
4
74
0
42
1e-07
43
1e-07
40
0
40
0
40
0
40
0
40
1
40
1
40
1
40
1
10
64.1863708532
20
23.4884369828
30
0
10
64.0626386732
20
23.6271148834
30
0
10
63.7652779667
20
23.9735501746
30
0
10
63.5248694728
20
24.2577692746
30
0
0
SPLINE
5
B5
100
AcDbEntity
8
keine
6
ByLayer
62
7
370
-1
100
AcDbSpline
210
0
220
0
230
1
70
8
71
3
72
8
73
4
74
0
42
1e-07
43
1e-07
40
0
40
0
40
0
40
0
40
1
40
1
40
1
40
1
10
63.5248694728
20
24.2577692746
30
0
10
62.7435298176
20
25.1814947516
30
0
10
61.8391619466
20
25.9934079458
30
0
10
61.1733255666
20
26.3708409413
30
0
0
SPLINE
5
B6
100
AcDbEntity
8
keine
6
ByLayer
62
7
370
-1
100
AcDbSpline
210
0
220
0
230
1
70
8
71
3
72
8
73
4
74
0
42
1e-07
43
1e-07
40
0
40
0
40
0
40
0
40
1
40
1
40
1
40
1
10
61.1733255666
20
26.3708409413
30
0
10
60.8229580449
20
26.5694489127
30
0
10
60.4842028768
20
26.7637303489
30
0
10
60.4185089518
20
26.8021645868
30
0
0
SPLINE
5
B7
100
AcDbEntity
8
keine
6
ByLayer
62
7
370
-1
100
AcDbSpline
210
0
220
0
230
1
70
8
71
3
72
8
73
4
74
0
42
1e-07
43
1e-07
40
0
40
0
40
0
40
0
40
1
40
1
40
1
40
1
10
60.4185089518
20
26.8021645868
30
0
10
60.3528150268
20
26.8406002354
30
0
10
60.1661488191
20
26.9286526669
30
0
10
60.0037745507
20
26.9991633627
30
0
0
SPLINE
5
B8
100
AcDbEntity
8
keine
6
ByLayer
62
7
370
-1
100
AcDbSpline
210
0
220
0
230
1
70
8
71
3
72
8
73
4
74
0
42
1e-07
43
1e-07
40
0
40
0
40
0
40
0
40
1
40
1
40
1
40
1
10
60.0037745507
20
26.9991633627
30
0
10
59.8413998121
20
27.0696742936
30
0
10
59.6858883722
20
27.1639072208
30
0
10
59.6595449672
20
27.2065306808
30
0
0
SPLINE
5
B9
100
AcDbEntity
8
keine
6
ByLayer
62
7
370
-1
100
AcDbSpline
210
0
220
0
230
1
70
8
71
3
72
8
73
4
74
0
42
1e-07
43
1e-07
40
0
40
0
40
0
40
0
40
1
40
1
40
1
40
1
10
59.6595449672
20
27.2065306808
30
0
10
59.6332025027
20
27.2491546111
30
0
10
59.5095989361
20
27.2832564356
30
0
10
59.3837466339
20
27.2832564356
30
0
0
SPLINE
5
BA
100
AcDbEntity
8
keine
6
ByLayer
62
7
370
-1
100
AcDbSpline
210
0
220
0
230
1
70
8
71
3
72
8
73
4
74
0
42
1e-07
43
1e-07
40
0
40
0
40
0
40
0
40
1
40
1
40
1
40
1
10
59.3837466339
20
27.2832564356
30
0
10
59.2137493779
20
27.2832564356
30
0
10
59.1415112188
20
27.3284850807
30
0
10
59.1058747333
20
27.4615923998
30
0
0
SPLINE
5
BB
100
AcDbEntity
8
keine
6
ByLayer
62
7
370
-1
100
AcDbSpline
210
0
220
0
230
1
70
8
71
3
72
8
73
4
74
0
42
1e-07
43
1e-07
40
0
40
0
40
0
40
0
40
1
40
1
40
1
40
1
10
59.1058747333
20
27.4615923998
30
0
10
59.0396101599
20
27.7090943798
30
0
10
58.9403784752
20
28.1032076131
30
0
10
58.7823817641
20
28.7369005246
30
0
0
SPLINE
5
BC
100
AcDbEntity
8
keine
6
ByLayer
62
7
370
-1
100
AcDbSpline
210
0
220
0
230
1
70
8
71
3
72
8
73
4
74
0
42
1e-07
43
1e-07
40
0
40
0
40
0
40
0
40
1
40
1
40
1
40
1
10
58.7823817641
20
28.7369005246
30
0
10
58.7085485169
20
29.0330287058
30
0
10
58.6158836383
20
29.2956252406
30
0
10
58.5770882484
20
29.3196023476
30
0
0
SPLINE
5
BD
100
AcDbEntity
8
keine
6
ByLayer
62
7
370
-1
100
AcDbSpline
210
0
220
0
230
1
70
8
71
3
72
8
73
4
74
0
42
1e-07
43
1e-07
40
0
40
0
40
0
40
0
40
1
40
1
40
1
40
1
10
58.5770882484
20
29.3196023476
30
0
10
58.4839470066
20
29.3771640041
30
0
10
58.4859789568
20
31.1859070351
30
0
10
58.5791620509
20
31.1859070351
30
0
0
SPLINE
5
BE
100
AcDbEntity
8
keine
6
ByLayer
62
7
370
-1
100
AcDbSpline
210
0
220
0
230
1
70
8
71
3
72
8
73
4
74
0
42
1e-07
43
1e-07
40
0
40
0
40
0
40
0
40
1
40
1
40
1
40
1
10
58.5791620509
20
31.1859070351
30
0
10
58.6187961317
20
31.1859070351
30
0
10
58.7402621769
20
31.0303184742
30
0
10
58.8508130143
20
30.8416774516
30
0
0
SPLINE
5
BF
100
AcDbEntity
8
keine
6
ByLayer
62
7
370
-1
100
AcDbSpline
210
0
220
0
230
1
70
8
71
3
72
8
73
4
74
0
42
1e-07
43
1e-07
40
0
40
0
40
0
40
0
40
1
40
1
40
1
40
1
10
58.8508130143
20
30.8416774516
30
0
10
59.0066841954
20
30.5757033462
30
0
10
59.0811546313
20
30.2681203451
30
0
10
59.1826004882
20
29.4689067226
30
0
0
SPLINE
5
C0
100
AcDbEntity
8
keine
6
ByLayer
62
7
370
-1
100
AcDbSpline
210
0
220
0
230
1
70
8
71
3
72
8
73
4
74
0
42
1e-07
43
1e-07
40
0
40
0
40
0
40
0
40
1
40
1
40
1
40
1
10
59.1826004882
20
29.4689067226
30
0
10
59.3066042376
20
28.4919755146
30
0
10
59.5158339808
20
27.5501331859
30
0
10
59.5911139521
20
27.6254124518
30
0
0
SPLINE
5
C1
100
AcDbEntity
8
keine
6
ByLayer
62
7
370
-1
100
AcDbSpline
210
0
220
0
230
1
70
8
71
3
72
8
73
4
74
0
42
1e-07
43
1e-07
40
0
40
0
40
0
40
0
40
1
40
1
40
1
40
1
10
59.5911139521
20
27.6254124518
30
0
10
59.6665749696
20
27.7008727639
30
0
10
59.8164772674
20
29.5228512162
30
0
10
59.8150705146
20
30.3481434931
30
0
0
SPLINE
5
C2
100
AcDbEntity
8
keine
6
ByLayer
62
7
370
-1
100
AcDbSpline
210
0
220
0
230
1
70
8
71
3
72
8
73
4
74
0
42
1e-07
43
1e-07
40
0
40
0
40
0
40
0
40
1
40
1
40
1
40
1
10
59.8150705146
20
30.3481434931
30
0
10
59.8129828397
20
31.5719604184
30
0
10
59.6678390016
20
32.9682288346
30
0
10
59.4832830407
20
33.5333035714
30
0
0
SPLINE
5
C3
100
AcDbEntity
8
keine
6
ByLayer
62
7
370
-1
100
AcDbSpline
210
0
220
0
230
1
70
8
71
3
72
8
73
4
74
0
42
1e-07
43
1e-07
40
0
40
0
40
0
40
0
40
1
40
1
40
1
40
1
10
59.4832830407
20
33.5333035714
30
0
10
59.3974595942
20
33.7960792714
30
0
10
59.2357171067
20
34.3160732569
30
0
10
59.1245377802
20
34.6883386751
30
0
0
SPLINE
5
C4
100
AcDbEntity
8
keine
6
ByLayer
62
7
370
-1
100
AcDbSpline
210
0
220
0
230
1
70
8
71
3
72
8
73
4
74
0
42
1e-07
43
1e-07
40
0
40
0
40
0
40
0
40
1
40
1
40
1
40
1
10
59.1245377802
20
34.6883386751
30
0
10
59.0133584537
20
35.0606043286
30
0
10
58.8284777852
20
35.6701809391
30
0
10
58.7139507489
20
36.0424465924
30
0
0
SPLINE
5
C5
100
AcDbEntity
8
keine
6
ByLayer
62
7
370
-1
100
AcDbSpline
210
0
220
0
230
1
70
8
71
3
72
8
73
4
74
0
42
1e-07
43
1e-07
40
0
40
0
40
0
40
0
40
1
40
1
40
1
40
1
10
58.7139507489
20
36.0424465924
30
0
10
58.4731399562
20
36.8251908844
30
0
10
58.4608671366
20
36.9542749796
30
0
10
58.6268564518
20
36.8905782064
30
0
0
SPLINE
5
C6
100
AcDbEntity
8
keine
6
ByLayer
62
7
370
-1
100
AcDbSpline
210
0
220
0
230
1
70
8
71
3
72
8
73
4
74
0
42
1e-07
43
1e-07
40
0
40
0
40
0
40
0
40
1
40
1
40
1
40
1
10
58.6268564518
20
36.8905782064
30
0
10
58.7783963953
20
36.8324285022
30
0
10
58.7789404746
20
36.9244975741
30
0
10
58.6289302543
20
37.1228295086
30
0
0
SPLINE
5
C7
100
AcDbEntity
8
keine
6
ByLayer
62
7
370
-1
100
AcDbSpline
210
0
220
0
230
1
70
8
71
3
72
8
73
4
74
0
42
1e-07
43
1e-07
40
0
40
0
40
0
40
0
40
1
40
1
40
1
40
1
10
58.6289302543
20
37.1228295086
30
0
10
58.5646296801
20
37.2078434198
30
0
10
58.5100505841
20
37.3581498976
30
0
10
58.5086572333
20
37.4566907851
30
0
0
SPLINE
5
C8
100
AcDbEntity
8
keine
6
ByLayer
62
7
370
-1
100
AcDbSpline
210
0
220
0
230
1
70
8
71
3
72
8
73
4
74
0
42
1e-07
43
1e-07
40
0
40
0
40
0
40
0
40
1
40
1
40
1
40
1
10
58.5086572333
20
37.4566907851
30
0
10
58.5072643528
20
37.5552316726
30
0
10
58.4792938828
20
37.6347610579
30
0
10
58.4464469203
20
37.6350265141
30
0
0
SPLINE
5
C9
100
AcDbEntity
8
keine
6
ByLayer
62
7
370
-1
100
AcDbSpline
210
0
220
0
230
1
70
8
71
3
72
8
73
4
74
0
42
1e-07
43
1e-07
40
0
40
0
40
0
40
0
40
1
40
1
40
1
40
1
10
58.4464469203
20
37.6350265141
30
0
10
58.3783044036
20
37.6356018649
30
0
10
58.1084385092
20
38.0879628496
30
0
10
58.1084385092
20
38.2011388576
30
0
0
SPLINE
5
CA
100
AcDbEntity
8
keine
6
ByLayer
62
7
370
-1
100
AcDbSpline
210
0
220
0
230
1
70
8
71
3
72
8
73
4
74
0
42
1e-07
43
1e-07
40
0
40
0
40
0
40
0
40
1
40
1
40
1
40
1
10
58.1084385092
20
38.2011388576
30
0
10
58.1084385092
20
38.2422561068
30
0
10
58.0244551509
20
38.4089620831
30
0
10
57.9218080404
20
38.5723262277
30
0
0
SPLINE
5
CB
100
AcDbEntity
8
keine
6
ByLayer
62
7
370
-1
100
AcDbSpline
210
0
220
0
230
1
70
8
71
3
72
8
73
4
74
0
42
1e-07
43
1e-07
40
0
40
0
40
0
40
0
40
1
40
1
40
1
40
1
10
57.9218080404
20
38.5723262277
30
0
10
57.8191602246
20
38.7356910777
30
0
10
57.7150779111
20
38.9584438002
30
0
10
57.6916305407
20
39.0679337536
30
0
0
SPLINE
5
CC
100
AcDbEntity
8
keine
6
ByLayer
62
7
370
-1
100
AcDbSpline
210
0
220
0
230
1
70
8
71
3
72
8
73
4
74
0
42
1e-07
43
1e-07
40
0
40
0
40
0
40
0
40
1
40
1
40
1
40
1
10
57.6916305407
20
39.0679337536
30
0
10
57.6681836406
20
39.1774237069
30
0
10
57.5766527698
20
39.4832486783
30
0
10
57.4863370251
20
39.7460243783
30
0
0
SPLINE
5
CD
100
AcDbEntity
8
keine
6
ByLayer
62
7
370
-1
100
AcDbSpline
210
0
220
0
230
1
70
8
71
3
72
8
73
4
74
0
42
1e-07
43
1e-07
40
0
40
0
40
0
40
0
40
1
40
1
40
1
40
1
10
57.4863370251
20
39.7460243783
30
0
10
57.3960203398
20
40.0088000783
30
0
10
57.2295732362
20
40.5267204964
30
0
10
57.1172234574
20
40.8989861498
30
0
0
SPLINE
5
CE
100
AcDbEntity
8
keine
6
ByLayer
62
7
370
-1
100
AcDbSpline
210
0
220
0
230
1
70
8
71
3
72
8
73
4
74
0
42
1e-07
43
1e-07
40
0
40
0
40
0
40
0
40
1
40
1
40
1
40
1
10
57.1172234574
20
40.8989861498
30
0
10
57.0048734436
20
41.2712515681
30
0
10
56.8251575308
20
41.8633264141
30
0
10
56.7170047333
20
42.2136939356
30
0
0
SPLINE
5
CF
100
AcDbEntity
8
keine
6
ByLayer
62
7
370
-1
100
AcDbSpline
210
0
220
0
230
1
70
8
71
3
72
8
73
4
74
0
42
1e-07
43
1e-07
40
0
40
0
40
0
40
0
40
1
40
1
40
1
40
1
10
56.7170047333
20
42.2136939356
30
0
10
56.4641176854
20
43.0329343301
30
0
10
56.1177134308
20
44.4877808483
30
0
10
56.1177134308
20
44.7332052638
30
0
0
SPLINE
5
D0
100
AcDbEntity
8
keine
6
ByLayer
62
7
370
-1
100
AcDbSpline
210
0
220
0
230
1
70
8
71
3
72
8
73
4
74
0
42
1e-07
43
1e-07
40
0
40
0
40
0
40
0
40
1
40
1
40
1
40
1
10
56.1177134308
20
44.7332052638
30
0
10
56.1177134308
20
44.8378140221
30
0
10
56.0277346202
20
45.3181167916
30
0
10
55.9186410876
20
45.7990727382
30
0
0
SPLINE
5
D1
100
AcDbEntity
8
keine
6
ByLayer
62
7
370
-1
100
AcDbSpline
210
0
220
0
230
1
70
8
71
3
72
8
73
4
74
0
42
1e-07
43
1e-07
40
0
40
0
40
0
40
0
40
1
40
1
40
1
40
1
10
55.9186410876
20
45.7990727382
30
0
10
55.8095480252
20
46.2800291551
30
0
10
55.7206500842
20
46.8337520569
30
0
10
55.7195685092
20
47.0308338319
30
0
0
SPLINE
5
D2
100
AcDbEntity
8
keine
6
ByLayer
62
7
370
-1
100
AcDbSpline
210
0
220
0
230
1
70
8
71
3
72
8
73
4
74
0
42
1e-07
43
1e-07
40
0
40
0
40
0
40
0
40
1
40
1
40
1
40
1
10
55.7195685092
20
47.0308338319
30
0
10
55.7184869342
20
47.2279156069
30
0
10
55.6445845603
20
47.8920710783
30
0
10
55.5557484572
20
48.5052145351
30
0
0
SPLINE
5
D3
100
AcDbEntity
8
keine
6
ByLayer
62
7
370
-1
100
AcDbSpline
210
0
220
0
230
1
70
8
71
3
72
8
73
4
74
0
42
1e-07
43
1e-07
40
0
40
0
40
0
40
0
40
1
40
1
40
1
40
1
10
55.5557484572
20
48.5052145351
30
0
10
55.4669130594
20
49.1183577566
30
0
10
55.3600567412
20
50.0316857712
30
0
10
55.3193497851
20
50.5353392746
30
0
0
SPLINE
5
D4
100
AcDbEntity
8
keine
6
ByLayer
62
7
370
-1
100
AcDbSpline
210
0
220
0
230
1
70
8
71
3
72
8
73
4
74
0
42
1e-07
43
1e-07
40
0
40
0
40
0
40
0
40
1
40
1
40
1
40
1
10
55.3193497851
20
50.5353392746
30
0
10
55.2786428289
20
51.0389927779
30
0
10
55.1899501521
20
51.6485691533
30
0
10
55.1223510092
20
51.8894469567
30
0
0
SPLINE
5
D5
100
AcDbEntity
8
keine
6
ByLayer
62
7
370
-1
100
AcDbSpline
210
0
220
0
230
1
70
8
71
3
72
8
73
4
74
0
42
1e-07
43
1e-07
40
0
40
0
40
0
40
0
40
1
40
1
40
1
40
1
10
55.1223510092
20
51.8894469567
30
0
10
55.0547513961
20
52.1303247601
30
0
10
54.9689582807
20
52.5236587891
30
0
10
54.9294996032
20
52.7645365924
30
0
0
SPLINE
5
D6
100
AcDbEntity
8
keine
6
ByLayer
62
7
370
-1
100
AcDbSpline
210
0
220
0
230
1
70
8
71
3
72
8
73
4
74
0
42
1e-07
43
1e-07
40
0
40
0
40
0
40
0
40
1
40
1
40
1
40
1
10
54.9294996032
20
52.7645365924
30
0
10
54.8575487668
20
53.2037733698
30
0
10
54.6013325841
20
53.9415022752
30
0
10
54.2742191601
20
54.6536516967
30
0
0
SPLINE
5
D7
100
AcDbEntity
8
keine
6
ByLayer
62
7
370
-1
100
AcDbSpline
210
0
220
0
230
1
70
8
71
3
72
8
73
4
74
0
42
1e-07
43
1e-07
40
0
40
0
40
0
40
0
40
1
40
1
40
1
40
1
10
54.2742191601
20
54.6536516967
30
0
10
54.0443640167
20
55.1540607101
30
0
10
53.1896503134
20
56.3478415924
30
0
10
53.0611211132
20
56.3478415924
30
0
0
SPLINE
5
D8
100
AcDbEntity
8
keine
6
ByLayer
62
7
370
-1
100
AcDbSpline
210
0
220
0
230
1
70
8
71
3
72
8
73
4
74
0
42
1e-07
43
1e-07
40
0
40
0
40
0
40
0
40
1
40
1
40
1
40
1
10
53.0611211132
20
56.3478415924
30
0
10
52.8540173702
20
56.3478415924
30
0
10
52.7461685893
20
56.7162921076
30
0
10
52.8143541339
20
57.2001205763
30
0
0
SPLINE
5
D9
100
AcDbEntity
8
keine
6
ByLayer
62
7
370
-1
100
AcDbSpline
210
0
220
0
230
1
70
8
71
3
72
8
73
4
74
0
42
1e-07
43
1e-07
40
0
40
0
40
0
40
0
40
1
40
1
40
1
40
1
10
52.8143541339
20
57.2001205763
30
0
10
52.8976535136
20
57.7908138278
30
0
10
52.8995107659
20
58.6215342004
30
0
10
52.8164279364
20
59.3546657066
30
0
0
SPLINE
5
DA
100
AcDbEntity
8
keine
6
ByLayer
62
7
370
-1
100
AcDbSpline
210
0
220
0
230
1
70
8
71
3
72
8
73
4
74
0
42
1e-07
43
1e-07
40
0
40
0
40
0
40
0
40
1
40
1
40
1
40
1
10
52.8164279364
20
59.3546657066
30
0
10
52.7430423673
20
60.0022232341
30
0
10
52.7826611649
20
60.0466470461
30
0
10
53.1565101501
20
59.7320740141
30
0
0
SPLINE
5
DB
100
AcDbEntity
8
keine
6
ByLayer
62
7
370
-1
100
AcDbSpline
210
0
220
0
230
1
70
8
71
3
72
8
73
4
74
0
42
1e-07
43
1e-07
40
0
40
0
40
0
40
0
40
1
40
1
40
1
40
1
10
53.1565101501
20
59.7320740141
30
0
10
53.2866318519
20
59.6225840606
30
0
10
53.4282412911
20
59.5330014357
30
0
10
53.4696345771
20
59.5330014357
30
0
0
SPLINE
5
DC
100
AcDbEntity
8
keine
6
ByLayer
62
7
370
-1
100
AcDbSpline
210
0
220
0
230
1
70
8
71
3
72
8
73
4
74
0
42
1e-07
43
1e-07
40
0
40
0
40
0
40
0
40
1
40
1
40
1
40
1
10
53.4696345771
20
59.5330014357
30
0
10
53.5110269226
20
59.5330014357
30
0
10
53.5867289432
20
59.4376935169
30
0
10
53.6396755663
20
59.3214869828
30
0
0
SPLINE
5
DD
100
AcDbEntity
8
keine
6
ByLayer
62
7
370
-1
100
AcDbSpline
210
0
220
0
230
1
70
8
71
3
72
8
73
4
74
0
42
1e-07
43
1e-07
40
0
40
0
40
0
40
0
40
1
40
1
40
1
40
1
10
53.6396755663
20
59.3214869828
30
0
10
53.7315614758
20
59.1198205054
30
0
10
53.7412782516
20
59.1166879351
30
0
10
53.8387481447
20
59.2613504723
30
0
0
SPLINE
5
DE
100
AcDbEntity
8
keine
6
ByLayer
62
7
370
-1
100
AcDbSpline
210
0
220
0
230
1
70
8
71
3
72
8
73
4
74
0
42
1e-07
43
1e-07
40
0
40
0
40
0
40
0
40
1
40
1
40
1
40
1
10
53.8387481447
20
59.2613504723
30
0
10
53.8949138642
20
59.3447100439
30
0
10
53.9980984704
20
59.5611085133
30
0
10
54.0689256444
20
59.7424423212
30
0
0
SPLINE
5
DF
100
AcDbEntity
8
keine
6
ByLayer
62
7
370
-1
100
AcDbSpline
210
0
220
0
230
1
70
8
71
3
72
8
73
4
74
0
42
1e-07
43
1e-07
40
0
40
0
40
0
40
0
40
1
40
1
40
1
40
1
10
54.0689256444
20
59.7424423212
30
0
10
54.1397516428
20
59.9237754236
30
0
10
54.2716099779
20
60.1925232987
30
0
10
54.3613134572
20
60.3396598211
30
0
0
SPLINE
5
E0
100
AcDbEntity
8
keine
6
ByLayer
62
7
370
-1
100
AcDbSpline
210
0
220
0
230
1
70
8
71
3
72
8
73
4
74
0
42
1e-07
43
1e-07
40
0
40
0
40
0
40
0
40
1
40
1
40
1
40
1
10
54.3613134572
20
60.3396598211
30
0
10
54.4510169364
20
60.4867956383
30
0
10
54.5250008987
20
60.6570557641
30
0
10
54.5251335092
20
60.7170681286
30
0
0
SPLINE
5
E1
100
AcDbEntity
8
keine
6
ByLayer
62
7
370
-1
100
AcDbSpline
210
0
220
0
230
1
70
8
71
3
72
8
73
4
74
0
42
1e-07
43
1e-07
40
0
40
0
40
0
40
0
40
1
40
1
40
1
40
1
10
54.5251335092
20
60.7170681286
30
0
10
54.5257659954
20
60.9487826404
30
0
10
54.0863709789
20
61.4907455303
30
0
10
53.7786116342
20
61.6377783627
30
0
0
SPLINE
5
E2
100
AcDbEntity
8
keine
6
ByLayer
62
7
370
-1
100
AcDbSpline
210
0
220
0
230
1
70
8
71
3
72
8
73
4
74
0
42
1e-07
43
1e-07
40
0
40
0
40
0
40
0
40
1
40
1
40
1
40
1
10
53.7786116342
20
61.6377783627
30
0
10
53.4949180386
20
61.7733128771
30
0
10
53.4147728608
20
61.7784371914
30
0
10
53.0175740822
20
61.6896203686
30
0
0
SPLINE
5
E3
100
AcDbEntity
8
keine
6
ByLayer
62
7
370
-1
100
AcDbSpline
210
0
220
0
230
1
70
8
71
3
72
8
73
4
74
0
42
1e-07
43
1e-07
40
0
40
0
40
0
40
0
40
1
40
1
40
1
40
1
10
53.0175740822
20
61.6896203686
30
0
10
52.7736511749
20
61.6350777169
30
0
10
52.5224502084
20
61.5852267496
30
0
10
52.4597562433
20
61.5776420873
30
0
0
SPLINE
5
E4
100
AcDbEntity
8
keine
6
ByLayer
62
7
370
-1
100
AcDbSpline
210
0
220
0
230
1
70
8
71
3
72
8
73
4
74
0
42
1e-07
43
1e-07
40
0
40
0
40
0
40
0
40
1
40
1
40
1
40
1
10
52.4597562433
20
61.5776420873
30
0
10
52.3280751924
20
61.5617102524
30
0
10
52.2397474296
20
61.7200563593
30
0
10
51.8915703324
20
62.5978884931
30
0
0
SPLINE
5
E5
100
AcDbEntity
8
keine
6
ByLayer
62
7
370
-1
100
AcDbSpline
210
0
220
0
230
1
70
8
71
3
72
8
73
4
74
0
42
1e-07
43
1e-07
40
0
40
0
40
0
40
0
40
1
40
1
40
1
40
1
10
51.8915703324
20
62.5978884931
30
0
10
51.7526029929
20
62.9482562498
30
0
10
51.5714876162
20
63.3318436421
30
0
10
51.4892778058
20
63.4480939096
30
0
0
SPLINE
5
E6
100
AcDbEntity
8
keine
6
ByLayer
62
7
370
-1
100
AcDbSpline
210
0
220
0
230
1
70
8
71
3
72
8
73
4
74
0
42
1e-07
43
1e-07
40
0
40
0
40
0
40
0
40
1
40
1
40
1
40
1
10
51.4892778058
20
63.4480939096
30
0
10
51.4070689359
20
63.5643451174
30
0
10
51.3399734308
20
63.7125843762
30
0
10
51.3399734308
20
63.7798816186
30
0
0
SPLINE
5
E7
100
AcDbEntity
8
keine
6
ByLayer
62
7
370
-1
100
AcDbSpline
210
0
220
0
230
1
70
8
71
3
72
8
73
4
74
0
42
1e-07
43
1e-07
40
0
40
0
40
0
40
0
40
1
40
1
40
1
40
1
10
51.3399734308
20
63.7798816186
30
0
10
51.3399734308
20
63.8471793312
30
0
10
51.3049699018
20
63.9249290554
30
0
10
51.2611738734
20
63.9519961752
30
0
0
SPLINE
5
E8
100
AcDbEntity
8
keine
6
ByLayer
62
7
370
-1
100
AcDbSpline
210
0
220
0
230
1
70
8
71
3
72
8
73
4
74
0
42
1e-07
43
1e-07
40
0
40
0
40
0
40
0
40
1
40
1
40
1
40
1
10
51.2611738734
20
63.9519961752
30
0
10
51.1518706093
20
64.0195475877
30
0
10
51.1566680998
20
62.4423166261
30
0
10
51.2673950458
20
61.9260188056
30
0
0
SPLINE
5
E9
100
AcDbEntity
8
keine
6
ByLayer
62
7
370
-1
100
AcDbSpline
210
0
220
0
230
1
70
8
71
3
72
8
73
4
74
0
42
1e-07
43
1e-07
40
0
40
0
40
0
40
0
40
1
40
1
40
1
40
1
10
51.2673950458
20
61.9260188056
30
0
10
51.3303490592
20
61.6324671241
30
0
10
51.3296004212
20
61.4510505521
30
0
10
51.2632476759
20
61.2500017481
30
0
0
SPLINE
5
EA
100
AcDbEntity
8
keine
6
ByLayer
62
7
370
-1
100
AcDbSpline
210
0
220
0
230
1
70
8
71
3
72
8
73
4
74
0
42
1e-07
43
1e-07
40
0
40
0
40
0
40
0
40
1
40
1
40
1
40
1
10
51.2632476759
20
61.2500017481
30
0
10
51.1536921227
20
60.9180423979
30
0
10
50.9471470367
20
60.8382010017
30
0
10
50.0045287956
20
60.7606151596
30
0
0
SPLINE
5
EB
100
AcDbEntity
8
keine
6
ByLayer
62
7
370
-1
100
AcDbSpline
210
0
220
0
230
1
70
8
71
3
72
8
73
4
74
0
42
1e-07
43
1e-07
40
0
40
0
40
0
40
0
40
1
40
1
40
1
40
1
10
50.0045287956
20
60.7606151596
30
0
10
49.4584032527
20
60.7156639621
30
0
10
49.2839202819
20
60.6646253783
30
0
10
48.9842821547
20
60.4661537794
30
0
0
SPLINE
5
EC
100
AcDbEntity
8
keine
6
ByLayer
62
7
370
-1
100
AcDbSpline
210
0
220
0
230
1
70
8
71
3
72
8
73
4
74
0
42
1e-07
43
1e-07
40
0
40
0
40
0
40
0
40
1
40
1
40
1
40
1
10
48.9842821547
20
60.4661537794
30
0
10
48.7853922684
20
60.3344137121
30
0
10
48.5667793918
20
60.1423570286
30
0
10
48.4990429359
20
60.0389775038
30
0
0
SPLINE
5
ED
100
AcDbEntity
8
keine
6
ByLayer
62
7
370
-1
100
AcDbSpline
210
0
220
0
230
1
70
8
71
3
72
8
73
4
74
0
42
1e-07
43
1e-07
40
0
40
0
40
0
40
0
40
1
40
1
40
1
40
1
10
48.4990429359
20
60.0389775038
30
0
10
48.3559237592
20
59.8205510813
30
0
10
48.4078572287
20
59.7119339119
30
0
10
48.9034090299
20
59.1949930246
30
0
0
SPLINE
5
EE
100
AcDbEntity
8
keine
6
ByLayer
62
7
370
-1
100
AcDbSpline
210
0
220
0
230
1
70
8
71
3
72
8
73
4
74
0
42
1e-07
43
1e-07
40
0
40
0
40
0
40
0
40
1
40
1
40
1
40
1
10
48.9034090299
20
59.1949930246
30
0
10
49.0609451312
20
59.0306559327
30
0
10
49.1895756703
20
58.8721504111
30
0
10
49.1895756703
20
58.8445425038
30
0
0
SPLINE
5
EF
100
AcDbEntity
8
keine
6
ByLayer
62
7
370
-1
100
AcDbSpline
210
0
220
0
230
1
70
8
71
3
72
8
73
4
74
0
42
1e-07
43
1e-07
40
0
40
0
40
0
40
0
40
1
40
1
40
1
40
1
10
49.1895756703
20
58.8445425038
30
0
10
49.1895756703
20
58.8169331858
30
0
10
49.2659320438
20
58.7311466539
30
0
10
49.3575430922
20
58.6516908626
30
0
0
SPLINE
5
F0
100
AcDbEntity
8
keine
6
ByLayer
62
7
370
-1
100
AcDbSpline
210
0
220
0
230
1
70
8
71
3
72
8
73
4
74
0
42
1e-07
43
1e-07
40
0
40
0
40
0
40
0
40
1
40
1
40
1
40
1
10
49.3575430922
20
58.6516908626
30
0
10
49.4491562567
20
58.5722350714
30
0
10
49.5022430143
20
58.4734785743
30
0
10
49.4778161132
20
58.4339554726
30
0
0
SPLINE
5
F1
100
AcDbEntity
8
keine
6
ByLayer
62
7
370
-1
100
AcDbSpline
210
0
220
0
230
1
70
8
71
3
72
8
73
4
74
0
42
1e-07
43
1e-07
40
0
40
0
40
0
40
0
40
1
40
1
40
1
40
1
10
49.4778161132
20
58.4339554726
30
0
10
49.4533892121
20
58.3944316654
30
0
10
49.0295606462
20
58.3606834688
30
0
10
48.5342954623
20
58.3593032851
30
0
0
SPLINE
5
F2
100
AcDbEntity
8
keine
6
ByLayer
62
7
370
-1
100
AcDbSpline
210
0
220
0
230
1
70
8
71
3
72
8
73
4
74
0
42
1e-07
43
1e-07
40
0
40
0
40
0
40
0
40
1
40
1
40
1
40
1
10
48.5342954623
20
58.3593032851
30
0
10
47.7457221864
20
58.3571128606
30
0
10
47.5351193132
20
58.3255459186
30
0
10
46.8442529364
20
58.1042415661
30
0
0
SPLINE
5
F3
100
AcDbEntity
8
keine
6
ByLayer
62
7
370
-1
100
AcDbSpline
210
0
220
0
230
1
70
8
71
3
72
8
73
4
74
0
42
1e-07
43
1e-07
40
0
40
0
40
0
40
0
40
1
40
1
40
1
40
1
10
46.8442529364
20
58.1042415661
30
0
10
46.1133807463
20
57.8701217254
30
0
10
44.9859455556
20
57.3305190203
30
0
10
44.4740459833
20
56.9699430766
30
0
0
LWPOLYLINE
5
F4
100
AcDbEntity
8
keine
6
ByLayer
62
7
370
-1
100
AcDbPolyline
90
3
70
0
43
0
10
56.0783137697
20
19.8781741962
10
65.9759495507
20
19.8781741962
10
65.9116656703
20
20.1539725294
0
SPLINE
5
F5
100
AcDbEntity
8
keine
6
ByLayer
62
7
370
-1
100
AcDbSpline
210
0
220
0
230
1
70
8
71
3
72
8
73
4
74
0
42
1e-07
43
1e-07
40
0
40
0
40
0
40
0
40
1
40
1
40
1
40
1
10
44.0178381186
20
57.0798477904
30
0
10
43.8864827158
20
57.2242754378
30
0
10
43.7785728024
20
57.3829892801
30
0
10
43.7772920766
20
57.4323718786
30
0
0
SPLINE
5
F6
100
AcDbEntity
8
keine
6
ByLayer
62
7
370
-1
100
AcDbSpline
210
0
220
0
230
1
70
8
71
3
72
8
73
4
74
0
42
1e-07
43
1e-07
40
0
40
0
40
0
40
0
40
1
40
1
40
1
40
1
10
43.7772920766
20
57.4323718786
30
0
10
43.7760080589
20
57.4817537716
30
0
10
43.7261079504
20
57.5644006793
30
0
10
43.6653137953
20
57.6148549774
30
0
0
SPLINE
5
F7
100
AcDbEntity
8
keine
6
ByLayer
62
7
370
-1
100
AcDbSpline
210
0
220
0
230
1
70
8
71
3
72
8
73
4
74
0
42
1e-07
43
1e-07
40
0
40
0
40
0
40
0
40
1
40
1
40
1
40
1
10
43.6653137953
20
57.6148549774
30
0
10
43.5278637174
20
57.7289282224
30
0
10
42.5807835092
20
59.6210790256
30
0
10
42.5807835092
20
59.7818422174
30
0
0
SPLINE
5
F8
100
AcDbEntity
8
keine
6
ByLayer
62
7
370
-1
100
AcDbSpline
210
0
220
0
230
1
70
8
71
3
72
8
73
4
74
0
42
1e-07
43
1e-07
40
0
40
0
40
0
40
0
40
1
40
1
40
1
40
1
10
42.5807835092
20
59.7818422174
30
0
10
42.5807835092
20
59.8464583294
30
0
10
42.5500308051
20
59.9330875493
30
0
10
42.5123522589
20
59.9746936234
30
0
0
SPLINE
5
F9
100
AcDbEntity
8
keine
6
ByLayer
62
7
370
-1
100
AcDbSpline
210
0
220
0
230
1
70
8
71
3
72
8
73
4
74
0
42
1e-07
43
1e-07
40
0
40
0
40
0
40
0
40
1
40
1
40
1
40
1
10
42.5123522589
20
59.9746936234
30
0
10
42.4746739479
20
60.0162996976
30
0
10
42.3807062417
20
60.2480866279
30
0
10
42.3029113734
20
60.4889641962
30
0
0
SPLINE
5
FA
100
AcDbEntity
8
keine
6
ByLayer
62
7
370
-1
100
AcDbSpline
210
0
220
0
230
1
70
8
71
3
72
8
73
4
74
0
42
1e-07
43
1e-07
40
0
40
0
40
0
40
0
40
1
40
1
40
1
40
1
10
42.3029113734
20
60.4889641962
30
0
10
42.2251160349
20
60.7298419996
30
0
10
42.1309990243
20
60.9985898746
30
0
10
42.0955442904
20
61.0861816961
30
0
0
SPLINE
5
FB
100
AcDbEntity
8
keine
6
ByLayer
62
7
370
-1
100
AcDbSpline
210
0
220
0
230
1
70
8
71
3
72
8
73
4
74
0
42
1e-07
43
1e-07
40
0
40
0
40
0
40
0
40
1
40
1
40
1
40
1
10
42.0955442904
20
61.0861816961
30
0
10
42.0600895566
20
61.1737737529
30
0
10
41.9787849774
20
61.4425216279
30
0
10
41.9130611916
20
61.6833991962
30
0
0
SPLINE
5
FC
100
AcDbEntity
8
keine
6
ByLayer
62
7
370
-1
100
AcDbSpline
210
0
220
0
230
1
70
8
71
3
72
8
73
4
74
0
42
1e-07
43
1e-07
40
0
40
0
40
0
40
0
40
1
40
1
40
1
40
1
10
41.9130611916
20
61.6833991962
30
0
10
41.4942875781
20
63.2182124322
30
0
10
41.3856151543
20
63.6718522617
30
0
10
41.3801275719
20
63.9167438839
30
0
0
SPLINE
5
FD
100
AcDbEntity
8
keine
6
ByLayer
62
7
370
-1
100
AcDbSpline
210
0
220
0
230
1
70
8
71
3
72
8
73
4
74
0
42
1e-07
43
1e-07
40
0
40
0
40
0
40
0
40
1
40
1
40
1
40
1
10
41.3801275719
20
63.9167438839
30
0
10
41.3723186004
20
64.2653124641
30
0
10
41.1014094564
20
65.0326567741
30
0
10
41.0441927282
20
64.8685592746
30
0
0
SPLINE
5
FE
100
AcDbEntity
8
keine
6
ByLayer
62
7
370
-1
100
AcDbSpline
210
0
220
0
230
1
70
8
71
3
72
8
73
4
74
0
42
1e-07
43
1e-07
40
0
40
0
40
0
40
0
40
1
40
1
40
1
40
1
10
41.0441927282
20
64.8685592746
30
0
10
40.7734857917
20
64.0921751138
30
0
10
40.7829265307
20
62.1891667084
30
0
10
41.0628557751
20
60.8062359931
30
0
0
SPLINE
5
FF
100
AcDbEntity
8
keine
6
ByLayer
62
7
370
-1
100
AcDbSpline
210
0
220
0
230
1
70
8
71
3
72
8
73
4
74
0
42
1e-07
43
1e-07
40
0
40
0
40
0
40
0
40
1
40
1
40
1
40
1
10
41.0628557751
20
60.8062359931
30
0
10
41.3186677779
20
59.5424487582
30
0
10
41.7950754666
20
58.0671969169
30
0
10
42.1432386913
20
57.4634770351
30
0
0
SPLINE
5
100
100
AcDbEntity
8
keine
6
ByLayer
62
7
370
-1
100
AcDbSpline
210
0
220
0
230
1
70
8
71
3
72
8
73
4
74
0
42
1e-07
43
1e-07
40
0
40
0
40
0
40
0
40
1
40
1
40
1
40
1
10
42.1432386913
20
57.4634770351
30
0
10
42.2063805696
20
57.3539870817
30
0
10
42.3259595016
20
57.1187896632
30
0
10
42.4086687174
20
56.9429852899
30
0
0
SPLINE
5
101
100
AcDbEntity
8
keine
6
ByLayer
62
7
370
-1
100
AcDbSpline
210
0
220
0
230
1
70
8
71
3
72
8
73
4
74
0
42
1e-07
43
1e-07
40
0
40
0
40
0
40
0
40
1
40
1
40
1
40
1
10
42.4086687174
20
56.9429852899
30
0
10
42.4913793441
20
56.7671811518
30
0
10
42.6169370346
20
56.5752963446
30
0
10
42.6886144206
20
56.5158090143
30
0
0
SPLINE
5
102
100
AcDbEntity
8
keine
6
ByLayer
62
7
370
-1
100
AcDbSpline
210
0
220
0
230
1
70
8
71
3
72
8
73
4
74
0
42
1e-07
43
1e-07
40
0
40
0
40
0
40
0
40
1
40
1
40
1
40
1
10
42.6886144206
20
56.5158090143
30
0
10
42.7602925119
20
56.4563221542
30
0
10
42.8192557487
20
56.3634103943
30
0
10
42.8192557487
20
56.3084416961
30
0
0
SPLINE
5
103
100
AcDbEntity
8
keine
6
ByLayer
62
7
370
-1
100
AcDbSpline
210
0
220
0
230
1
70
8
71
3
72
8
73
4
74
0
42
1e-07
43
1e-07
40
0
40
0
40
0
40
0
40
1
40
1
40
1
40
1
10
42.8192557487
20
56.3084416961
30
0
10
42.8192557487
20
56.2534732332
30
0
10
42.8738348447
20
56.1638906081
30
0
10
42.9395287697
20
56.1093693529
30
0
0
SPLINE
5
104
100
AcDbEntity
8
keine
6
ByLayer
62
7
370
-1
100
AcDbSpline
210
0
220
0
230
1
70
8
71
3
72
8
73
4
74
0
42
1e-07
43
1e-07
40
0
40
0
40
0
40
0
40
1
40
1
40
1
40
1
10
42.9395287697
20
56.1093693529
30
0
10
43.1264604336
20
55.9542308213
30
0
10
43.0818271251
20
55.7156144501
30
0
10
42.7985191344
20
55.3607736754
30
0
0
SPLINE
5
105
100
AcDbEntity
8
keine
6
ByLayer
62
7
370
-1
100
AcDbSpline
210
0
220
0
230
1
70
8
71
3
72
8
73
4
74
0
42
1e-07
43
1e-07
40
0
40
0
40
0
40
0
40
1
40
1
40
1
40
1
10
42.7985191344
20
55.3607736754
30
0
10
42.6550500917
20
55.1810796293
30
0
10
42.4304213068
20
54.8735436533
30
0
10
42.3008378061
20
54.6764618783
30
0
0
SPLINE
5
106
100
AcDbEntity
8
keine
6
ByLayer
62
7
370
-1
100
AcDbSpline
210
0
220
0
230
1
70
8
71
3
72
8
73
4
74
0
42
1e-07
43
1e-07
40
0
40
0
40
0
40
0
40
1
40
1
40
1
40
1
10
42.3008378061
20
54.6764618783
30
0
10
41.5497232344
20
53.5340976608
30
0
10
41.4087394629
20
53.1573364174
30
0
10
41.2951068422
20
52.0117935451
30
0
0
SPLINE
5
107
100
AcDbEntity
8
keine
6
ByLayer
62
7
370
-1
100
AcDbSpline
210
0
220
0
230
1
70
8
71
3
72
8
73
4
74
0
42
1e-07
43
1e-07
40
0
40
0
40
0
40
0
40
1
40
1
40
1
40
1
10
41.2951068422
20
52.0117935451
30
0
10
41.1659620847
20
50.7098833778
30
0
10
41.2515299503
20
50.3780726266
30
0
10
41.8155985873
20
49.9982582851
30
0
0
SPLINE
5
108
100
AcDbEntity
8
keine
6
ByLayer
62
7
370
-1
100
AcDbSpline
210
0
220
0
230
1
70
8
71
3
72
8
73
4
74
0
42
1e-07
43
1e-07
40
0
40
0
40
0
40
0
40
1
40
1
40
1
40
1
10
41.8155985873
20
49.9982582851
30
0
10
42.0266406741
20
49.8561548483
30
0
10
42.3031403852
20
49.6049089729
30
0
10
42.4294055668
20
49.4404404461
30
0
0
SPLINE
5
109
100
AcDbEntity
8
keine
6
ByLayer
62
7
370
-1
100
AcDbSpline
210
0
220
0
230
1
70
8
71
3
72
8
73
4
74
0
42
1e-07
43
1e-07
40
0
40
0
40
0
40
0
40
1
40
1
40
1
40
1
10
42.4294055668
20
49.4404404461
30
0
10
42.5556698079
20
49.2759733302
30
0
10
42.6966582819
20
49.0968539296
30
0
10
42.7425299938
20
49.0422955246
30
0
0
SPLINE
5
10A
100
AcDbEntity
8
keine
6
ByLayer
62
7
370
-1
100
AcDbSpline
210
0
220
0
230
1
70
8
71
3
72
8
73
4
74
0
42
1e-07
43
1e-07
40
0
40
0
40
0
40
0
40
1
40
1
40
1
40
1
10
42.7425299938
20
49.0422955246
30
0
10
42.7904200187
20
48.9853355528
30
0
10
42.8569653313
20
48.1376974662
30
0
10
42.9001288734
20
47.0515704462
30
0
0
SPLINE
5
10B
100
AcDbEntity
8
keine
6
ByLayer
62
7
370
-1
100
AcDbSpline
210
0
220
0
230
1
70
8
71
3
72
8
73
4
74
0
42
1e-07
43
1e-07
40
0
40
0
40
0
40
0
40
1
40
1
40
1
40
1
10
42.9001288734
20
47.0515704462
30
0
10
43.0377856262
20
43.5877155297
30
0
10
43.2218414762
20
41.4294399061
30
0
10
43.4579467123
20
40.4821779462
30
0
0
SPLINE
5
10C
100
AcDbEntity
8
keine
6
ByLayer
62
7
370
-1
100
AcDbSpline
210
0
220
0
230
1
70
8
71
3
72
8
73
4
74
0
42
1e-07
43
1e-07
40
0
40
0
40
0
40
0
40
1
40
1
40
1
40
1
10
43.4579467123
20
40.4821779462
30
0
10
43.5480118138
20
40.1208369056
30
0
10
43.6429254279
20
39.5560760606
30
0
10
43.6694611652
20
39.2276064357
30
0
0
SPLINE
5
10D
100
AcDbEntity
8
keine
6
ByLayer
62
7
370
-1
100
AcDbSpline
210
0
220
0
230
1
70
8
71
3
72
8
73
4
74
0
42
1e-07
43
1e-07
40
0
40
0
40
0
40
0
40
1
40
1
40
1
40
1
10
43.6694611652
20
39.2276064357
30
0
10
43.6959961971
20
38.8991368106
30
0
10
43.7514943967
20
38.5883866759
30
0
10
43.7918079887
20
38.5370737013
30
0
0
SPLINE
5
10E
100
AcDbEntity
8
keine
6
ByLayer
62
7
370
-1
100
AcDbSpline
210
0
220
0
230
1
70
8
71
3
72
8
73
4
74
0
42
1e-07
43
1e-07
40
0
40
0
40
0
40
0
40
1
40
1
40
1
40
1
10
43.7918079887
20
38.5370737013
30
0
10
43.8368120893
20
38.4797932541
30
0
10
43.8343303449
20
38.3879884628
30
0
10
43.7855868163
20
38.2986014618
30
0
0
SPLINE
5
10F
100
AcDbEntity
8
keine
6
ByLayer
62
7
370
-1
100
AcDbSpline
210
0
220
0
230
1
70
8
71
3
72
8
73
4
74
0
42
1e-07
43
1e-07
40
0
40
0
40
0
40
0
40
1
40
1
40
1
40
1
10
43.7855868163
20
38.2986014618
30
0
10
43.7419222228
20
38.2185265864
30
0
10
43.6844706047
20
38.0540740481
30
0
10
43.6590928581
20
37.9336352641
30
0
0
SPLINE
5
110
100
AcDbEntity
8
keine
6
ByLayer
62
7
370
-1
100
AcDbSpline
210
0
220
0
230
1
70
8
71
3
72
8
73
4
74
0
42
1e-07
43
1e-07
40
0
40
0
40
0
40
0
40
1
40
1
40
1
40
1
10
43.6590928581
20
37.9336352641
30
0
10
43.6337151114
20
37.8131964799
30
0
10
43.5843722492
20
37.7138260714
30
0
10
43.5491883793
20
37.7138260714
30
0
0
SPLINE
5
111
100
AcDbEntity
8
keine
6
ByLayer
62
7
370
-1
100
AcDbSpline
210
0
220
0
230
1
70
8
71
3
72
8
73
4
74
0
42
1e-07
43
1e-07
40
0
40
0
40
0
40
0
40
1
40
1
40
1
40
1
10
43.5491883793
20
37.7138260714
30
0
10
43.4692924341
20
37.7138260714
30
0
10
42.7802381657
20
38.0985582874
30
0
10
42.1142073373
20
38.5142632846
30
0
0
SPLINE
5
112
100
AcDbEntity
8
keine
6
ByLayer
62
7
370
-1
100
AcDbSpline
210
0
220
0
230
1
70
8
71
3
72
8
73
4
74
0
42
1e-07
43
1e-07
40
0
40
0
40
0
40
0
40
1
40
1
40
1
40
1
10
42.1142073373
20
38.5142632846
30
0
10
41.8360850286
20
38.6878532506
30
0
10
41.5821302781
20
38.8294615141
30
0
10
41.5480949938
20
38.8294615141
30
0
0
SPLINE
5
113
100
AcDbEntity
8
keine
6
ByLayer
62
7
370
-1
100
AcDbSpline
210
0
220
0
230
1
70
8
71
3
72
8
73
4
74
0
42
1e-07
43
1e-07
40
0
40
0
40
0
40
0
40
1
40
1
40
1
40
1
10
41.5480949938
20
38.8294615141
30
0
10
41.5140587691
20
38.8294615141
30
0
10
41.4428426983
20
38.8804387301
30
0
10
41.3904958791
20
38.9435133627
30
0
0
SPLINE
5
114
100
AcDbEntity
8
keine
6
ByLayer
62
7
370
-1
100
AcDbSpline
210
0
220
0
230
1
70
8
71
3
72
8
73
4
74
0
42
1e-07
43
1e-07
40
0
40
0
40
0
40
0
40
1
40
1
40
1
40
1
10
41.3904958791
20
38.9435133627
30
0
10
41.3381483544
20
39.0065882303
30
0
10
41.0486499928
20
39.1551369136
30
0
10
40.7476575456
20
39.2732272691
30
0
0
SPLINE
5
115
100
AcDbEntity
8
keine
6
ByLayer
62
7
370
-1
100
AcDbSpline
210
0
220
0
230
1
70
8
71
3
72
8
73
4
74
0
42
1e-07
43
1e-07
40
0
40
0
40
0
40
0
40
1
40
1
40
1
40
1
10
40.7476575456
20
39.2732272691
30
0
10
40.4466653334
20
39.3913183301
30
0
10
40.1757070483
20
39.5467961471
30
0
10
40.1462926757
20
39.6174568527
30
0
0
SPLINE
5
116
100
AcDbEntity
8
keine
6
ByLayer
62
7
370
-1
100
AcDbSpline
210
0
220
0
230
1
70
8
71
3
72
8
73
4
74
0
42
1e-07
43
1e-07
40
0
40
0
40
0
40
0
40
1
40
1
40
1
40
1
10
40.1462926757
20
39.6174568527
30
0
10
40.1168790084
20
39.6881189689
30
0
10
40.0681900288
20
40.2114395029
30
0
10
40.0363881969
20
40.7807866961
30
0
0
SPLINE
5
117
100
AcDbEntity
8
keine
6
ByLayer
62
7
370
-1
100
AcDbSpline
210
0
220
0
230
1
70
8
71
3
72
8
73
4
74
0
42
1e-07
43
1e-07
40
0
40
0
40
0
40
0
40
1
40
1
40
1
40
1
10
40.0363881969
20
40.7807866961
30
0
10
40.0045875407
20
41.3501341246
30
0
10
39.9356754598
20
41.9162154316
30
0
10
39.8850100194
20
42.0395055766
30
0
0
SPLINE
5
118
100
AcDbEntity
8
keine
6
ByLayer
62
7
370
-1
100
AcDbSpline
210
0
220
0
230
1
70
8
71
3
72
8
73
4
74
0
42
1e-07
43
1e-07
40
0
40
0
40
0
40
0
40
1
40
1
40
1
40
1
10
39.8850100194
20
42.0395055766
30
0
10
39.8343448142
20
42.1627952513
30
0
10
39.7937685876
20
42.4221813893
30
0
10
39.7937685876
20
42.6159864623
30
0
0
SPLINE
5
119
100
AcDbEntity
8
keine
6
ByLayer
62
7
370
-1
100
AcDbSpline
210
0
220
0
230
1
70
8
71
3
72
8
73
4
74
0
42
1e-07
43
1e-07
40
0
40
0
40
0
40
0
40
1
40
1
40
1
40
1
10
39.7937685876
20
42.6159864623
30
0
10
39.7937685876
20
42.9440504967
30
0
10
39.7685041712
20
42.9882579938
30
0
10
39.4163602802
20
43.2484562536
30
0
0
SPLINE
5
11A
100
AcDbEntity
8
keine
6
ByLayer
62
7
370
-1
100
AcDbSpline
210
0
220
0
230
1
70
8
71
3
72
8
73
4
74
0
42
1e-07
43
1e-07
40
0
40
0
40
0
40
0
40
1
40
1
40
1
40
1
10
39.4163602802
20
43.2484562536
30
0
10
38.9284070136
20
43.6090030418
30
0
10
38.7547580312
20
43.6487904241
30
0
10
38.2260726501
20
43.5304757592
30
0
0
SPLINE
5
11B
100
AcDbEntity
8
keine
6
ByLayer
62
7
370
-1
100
AcDbSpline
210
0
220
0
230
1
70
8
71
3
72
8
73
4
74
0
42
1e-07
43
1e-07
40
0
40
0
40
0
40
0
40
1
40
1
40
1
40
1
10
38.2260726501
20
43.5304757592
30
0
10
37.7060951233
20
43.4141105156
30
0
10
37.3617714898
20
43.2404993884
30
0
10
37.1187317121
20
42.9705843529
30
0
0
SPLINE
5
11C
100
AcDbEntity
8
keine
6
ByLayer
62
7
370
-1
100
AcDbSpline
210
0
220
0
230
1
70
8
71
3
72
8
73
4
74
0
42
1e-07
43
1e-07
40
0
40
0
40
0
40
0
40
1
40
1
40
1
40
1
10
37.1187317121
20
42.9705843529
30
0
10
36.9181033116
20
42.7477697926
30
0
10
36.8209724687
20
42.1696989916
30
0
10
36.7122920507
20
40.5485353939
30
0
0
LWPOLYLINE
5
11D
100
AcDbEntity
8
keine
6
ByLayer
62
7
370
-1
100
AcDbPolyline
90
3
70
0
43
0
10
44.4740459833
20
56.9699430766
10
44.2583841606
20
56.8185651341
10
44.0178381186
20
57.0798477904
0
SPLINE
5
11E
100
AcDbEntity
8
keine
6
ByLayer
62
7
370
-1
100
AcDbSpline
210
0
220
0
230
1
70
8
71
3
72
8
73
4
74
0
42
1e-07
43
1e-07
40
0
40
0
40
0
40
0
40
1
40
1
40
1
40
1
10
36.1503270771
20
39.3893529203
30
0
10
35.8767436213
20
39.2735291696
30
0
10
35.5480769616
20
39.0995822839
30
0
10
35.4183208791
20
39.0036498732
30
0
0
SPLINE
5
11F
100
AcDbEntity
8
keine
6
ByLayer
62
7
370
-1
100
AcDbSpline
210
0
220
0
230
1
70
8
71
3
72
8
73
4
74
0
42
1e-07
43
1e-07
40
0
40
0
40
0
40
0
40
1
40
1
40
1
40
1
10
35.4183208791
20
39.0036498732
30
0
10
35.2885655019
20
38.9077174624
30
0
10
35.1476379253
20
38.8294615141
30
0
10
35.1051964521
20
38.8294615141
30
0
0
SPLINE
5
120
100
AcDbEntity
8
keine
6
ByLayer
62
7
370
-1
100
AcDbSpline
210
0
220
0
230
1
70
8
71
3
72
8
73
4
74
0
42
1e-07
43
1e-07
40
0
40
0
40
0
40
0
40
1
40
1
40
1
40
1
10
35.1051964521
20
38.8294615141
30
0
10
35.0627561544
20
38.8294615141
30
0
10
34.9771104624
20
38.7801757872
30
0
10
34.9164921808
20
38.7195568002
30
0
0
SPLINE
5
121
100
AcDbEntity
8
keine
6
ByLayer
62
7
370
-1
100
AcDbSpline
210
0
220
0
230
1
70
8
71
3
72
8
73
4
74
0
42
1e-07
43
1e-07
40
0
40
0
40
0
40
0
40
1
40
1
40
1
40
1
10
34.9164921808
20
38.7195568002
30
0
10
34.8558741343
20
38.6589380483
30
0
10
34.6484000694
20
38.5277930824
30
0
10
34.4540633788
20
38.4292427899
30
0
0
SPLINE
5
122
100
AcDbEntity
8
keine
6
ByLayer
62
7
370
-1
100
AcDbSpline
210
0
220
0
230
1
70
8
71
3
72
8
73
4
74
0
42
1e-07
43
1e-07
40
0
40
0
40
0
40
0
40
1
40
1
40
1
40
1
10
34.4540633788
20
38.4292427899
30
0
10
34.2597276287
20
38.3306927326
30
0
10
34.0819637237
20
38.2261848428
30
0
10
34.0600658271
20
38.1969914876
30
0
0
SPLINE
5
123
100
AcDbEntity
8
keine
6
ByLayer
62
7
370
-1
100
AcDbSpline
210
0
220
0
230
1
70
8
71
3
72
8
73
4
74
0
42
1e-07
43
1e-07
40
0
40
0
40
0
40
0
40
1
40
1
40
1
40
1
10
34.0600658271
20
38.1969914876
30
0
10
33.9662826939
20
38.0719600069
30
0
10
33.1692263432
20
37.7135831873
30
0
10
33.0916609569
20
37.7615204723
30
0
0
SPLINE
5
124
100
AcDbEntity
8
keine
6
ByLayer
62
7
370
-1
100
AcDbSpline
210
0
220
0
230
1
70
8
71
3
72
8
73
4
74
0
42
1e-07
43
1e-07
40
0
40
0
40
0
40
0
40
1
40
1
40
1
40
1
10
33.0916609569
20
37.7615204723
30
0
10
33.0391636577
20
37.7939665467
30
0
10
33.0243818192
20
37.9702341162
30
0
10
33.0522612958
20
38.2218757069
30
0
0
SPLINE
5
125
100
AcDbEntity
8
keine
6
ByLayer
62
7
370
-1
100
AcDbSpline
210
0
220
0
230
1
70
8
71
3
72
8
73
4
74
0
42
1e-07
43
1e-07
40
0
40
0
40
0
40
0
40
1
40
1
40
1
40
1
10
33.0522612958
20
38.2218757069
30
0
10
33.0771135381
20
38.4461924809
30
0
10
33.0779383566
20
38.5855976232
30
0
10
33.0543348632
20
38.5308527641
30
0
0
SPLINE
5
126
100
AcDbEntity
8
keine
6
ByLayer
62
7
370
-1
100
AcDbSpline
210
0
220
0
230
1
70
8
71
3
72
8
73
4
74
0
42
1e-07
43
1e-07
40
0
40
0
40
0
40
0
40
1
40
1
40
1
40
1
10
33.0543348632
20
38.5308527641
30
0
10
32.9951374419
20
38.3935550472
30
0
10
32.8927496743
20
38.4060820369
30
0
10
32.8345256706
20
38.5578105506
30
0
0
SPLINE
5
127
100
AcDbEntity
8
keine
6
ByLayer
62
7
370
-1
100
AcDbSpline
210
0
220
0
230
1
70
8
71
3
72
8
73
4
74
0
42
1e-07
43
1e-07
40
0
40
0
40
0
40
0
40
1
40
1
40
1
40
1
10
32.8345256706
20
38.5578105506
30
0
10
32.7682046672
20
38.7306387117
30
0
10
32.8663707654
20
38.8777771151
30
0
10
32.9547986916
20
38.7382198471
30
0
0
SPLINE
5
128
100
AcDbEntity
8
keine
6
ByLayer
62
7
370
-1
100
AcDbSpline
210
0
220
0
230
1
70
8
71
3
72
8
73
4
74
0
42
1e-07
43
1e-07
40
0
40
0
40
0
40
0
40
1
40
1
40
1
40
1
10
32.9547986916
20
38.7382198471
30
0
10
32.9970751071
20
38.6714988961
30
0
10
33.0228316401
20
38.8291556164
30
0
10
33.0232299418
20
39.1488068783
30
0
0
SPLINE
5
129
100
AcDbEntity
8
keine
6
ByLayer
62
7
370
-1
100
AcDbSpline
210
0
220
0
230
1
70
8
71
3
72
8
73
4
74
0
42
1e-07
43
1e-07
40
0
40
0
40
0
40
0
40
1
40
1
40
1
40
1
10
33.0232299418
20
39.1488068783
30
0
10
33.0235657003
20
39.4334807101
30
0
10
33.1111932609
20
40.0234817536
30
0
10
33.2181549152
20
40.4614413319
30
0
0
SPLINE
5
12A
100
AcDbEntity
8
keine
6
ByLayer
62
7
370
-1
100
AcDbSpline
210
0
220
0
230
1
70
8
71
3
72
8
73
4
74
0
42
1e-07
43
1e-07
40
0
40
0
40
0
40
0
40
1
40
1
40
1
40
1
10
33.2181549152
20
40.4614413319
30
0
10
33.5697601348
20
41.9011062991
30
0
10
33.8275702299
20
44.7364396433
30
0
10
33.8506249416
20
47.4310525561
30
0
0
SPLINE
5
12B
100
AcDbEntity
8
keine
6
ByLayer
62
7
370
-1
100
AcDbSpline
210
0
220
0
230
1
70
8
71
3
72
8
73
4
74
0
42
1e-07
43
1e-07
40
0
40
0
40
0
40
0
40
1
40
1
40
1
40
1
10
33.8506249416
20
47.4310525561
30
0
10
33.8611909888
20
48.6659939506
30
0
10
33.8732456124
20
48.7600465369
30
0
10
34.0414027802
20
48.9738642743
30
0
0
SPLINE
5
12C
100
AcDbEntity
8
keine
6
ByLayer
62
7
370
-1
100
AcDbSpline
210
0
220
0
230
1
70
8
71
3
72
8
73
4
74
0
42
1e-07
43
1e-07
40
0
40
0
40
0
40
0
40
1
40
1
40
1
40
1
10
34.0414027802
20
48.9738642743
30
0
10
34.1399436677
20
49.0991630922
30
0
10
34.2197385092
20
49.2520853356
30
0
10
34.2197385092
20
49.3118729206
30
0
0
SPLINE
5
12D
100
AcDbEntity
8
keine
6
ByLayer
62
7
370
-1
100
AcDbSpline
210
0
220
0
230
1
70
8
71
3
72
8
73
4
74
0
42
1e-07
43
1e-07
40
0
40
0
40
0
40
0
40
1
40
1
40
1
40
1
10
34.2197385092
20
49.3118729206
30
0
10
34.2197385092
20
49.3716609758
30
0
10
34.2541488178
20
49.4197038319
30
0
10
34.2964642641
20
49.4197038319
30
0
0
SPLINE
5
12E
100
AcDbEntity
8
keine
6
ByLayer
62
7
370
-1
100
AcDbSpline
210
0
220
0
230
1
70
8
71
3
72
8
73
4
74
0
42
1e-07
43
1e-07
40
0
40
0
40
0
40
0
40
1
40
1
40
1
40
1
10
34.2964642641
20
49.4197038319
30
0
10
34.4552199587
20
49.4197038319
30
0
10
35.0160285876
20
50.0143201441
30
0
10
35.0160285876
20
50.1828149513
30
0
0
SPLINE
5
12F
100
AcDbEntity
8
keine
6
ByLayer
62
7
370
-1
100
AcDbSpline
210
0
220
0
230
1
70
8
71
3
72
8
73
4
74
0
42
1e-07
43
1e-07
40
0
40
0
40
0
40
0
40
1
40
1
40
1
40
1
10
35.0160285876
20
50.1828149513
30
0
10
35.0160285876
20
50.2778661136
30
0
10
35.1118904608
20
50.5664601844
30
0
10
35.2296166078
20
50.8235797174
30
0
0
SPLINE
5
130
100
AcDbEntity
8
keine
6
ByLayer
62
7
370
-1
100
AcDbSpline
210
0
220
0
230
1
70
8
71
3
72
8
73
4
74
0
42
1e-07
43
1e-07
40
0
40
0
40
0
40
0
40
1
40
1
40
1
40
1
10
35.2296166078
20
50.8235797174
30
0
10
35.4222603984
20
51.2443234433
30
0
10
35.4440212172
20
51.3783667951
30
0
10
35.4390574933
20
52.1673190924
30
0
0
SPLINE
5
131
100
AcDbEntity
8
keine
6
ByLayer
62
7
370
-1
100
AcDbSpline
210
0
220
0
230
1
70
8
71
3
72
8
73
4
74
0
42
1e-07
43
1e-07
40
0
40
0
40
0
40
0
40
1
40
1
40
1
40
1
10
35.4390574933
20
52.1673190924
30
0
10
35.4338464179
20
52.9964890508
30
0
10
35.4193135768
20
53.0701558294
30
0
10
35.1777748371
20
53.5214267746
30
0
0
SPLINE
5
132
100
AcDbEntity
8
keine
6
ByLayer
62
7
370
-1
100
AcDbSpline
210
0
220
0
230
1
70
8
71
3
72
8
73
4
74
0
42
1e-07
43
1e-07
40
0
40
0
40
0
40
0
40
1
40
1
40
1
40
1
10
35.1777748371
20
53.5214267746
30
0
10
35.0373285613
20
53.7838241584
30
0
10
34.8005332333
20
54.1600347391
30
0
10
34.6510621547
20
54.3571165141
30
0
0
SPLINE
5
133
100
AcDbEntity
8
keine
6
ByLayer
62
7
370
-1
100
AcDbSpline
210
0
220
0
230
1
70
8
71
3
72
8
73
4
74
0
42
1e-07
43
1e-07
40
0
40
0
40
0
40
0
40
1
40
1
40
1
40
1
10
34.6510621547
20
54.3571165141
30
0
10
34.5015906058
20
54.5541982891
30
0
10
34.3357639971
20
54.8054443996
30
0
10
34.2819485871
20
54.9149343529
30
0
0
SPLINE
5
134
100
AcDbEntity
8
keine
6
ByLayer
62
7
370
-1
100
AcDbSpline
210
0
220
0
230
1
70
8
71
3
72
8
73
4
74
0
42
1e-07
43
1e-07
40
0
40
0
40
0
40
0
40
1
40
1
40
1
40
1
10
34.2819485871
20
54.9149343529
30
0
10
34.2281334122
20
55.0244240712
30
0
10
34.1642941532
20
55.1315084607
30
0
10
34.1409389518
20
55.1534065924
30
0
0
SPLINE
5
135
100
AcDbEntity
8
keine
6
ByLayer
62
7
370
-1
100
AcDbSpline
210
0
220
0
230
1
70
8
71
3
72
8
73
4
74
0
42
1e-07
43
1e-07
40
0
40
0
40
0
40
0
40
1
40
1
40
1
40
1
10
34.1409389518
20
55.1534065924
30
0
10
34.1175837504
20
55.1753044891
30
0
10
33.9112697923
20
55.4265505996
30
0
10
33.6826575197
20
55.7112241961
30
0
0
SPLINE
5
136
100
AcDbEntity
8
keine
6
ByLayer
62
7
370
-1
100
AcDbSpline
210
0
220
0
230
1
70
8
71
3
72
8
73
4
74
0
42
1e-07
43
1e-07
40
0
40
0
40
0
40
0
40
1
40
1
40
1
40
1
10
33.6826575197
20
55.7112241961
30
0
10
33.4540440714
20
55.9958980279
30
0
10
33.1399394083
20
56.3292189871
30
0
10
32.9859038481
20
56.4515251339
30
0
0
SPLINE
5
137
100
AcDbEntity
8
keine
6
ByLayer
62
7
370
-1
100
AcDbSpline
210
0
220
0
230
1
70
8
71
3
72
8
73
4
74
0
42
1e-07
43
1e-07
40
0
40
0
40
0
40
0
40
1
40
1
40
1
40
1
10
32.9859038481
20
56.4515251339
30
0
10
32.5335891831
20
56.8106684611
30
0
10
32.6677348142
20
57.3120405466
30
0
10
33.2430391344
20
57.4199297689
30
0
0
SPLINE
5
138
100
AcDbEntity
8
keine
6
ByLayer
62
7
370
-1
100
AcDbSpline
210
0
220
0
230
1
70
8
71
3
72
8
73
4
74
0
42
1e-07
43
1e-07
40
0
40
0
40
0
40
0
40
1
40
1
40
1
40
1
10
33.2430391344
20
57.4199297689
30
0
10
33.6934325931
20
57.5043944281
30
0
10
34.7080275343
20
57.8495217188
30
0
10
34.9227133532
20
57.9901897174
30
0
0
SPLINE
5
139
100
AcDbEntity
8
keine
6
ByLayer
62
7
370
-1
100
AcDbSpline
210
0
220
0
230
1
70
8
71
3
72
8
73
4
74
0
42
1e-07
43
1e-07
40
0
40
0
40
0
40
0
40
1
40
1
40
1
40
1
10
34.9227133532
20
57.9901897174
30
0
10
35.1674909398
20
58.1505736527
30
0
10
35.4436414903
20
58.7711994923
30
0
10
35.3809947853
20
59.0208046654
30
0
0
SPLINE
5
13A
100
AcDbEntity
8
keine
6
ByLayer
62
7
370
-1
100
AcDbSpline
210
0
220
0
230
1
70
8
71
3
72
8
73
4
74
0
42
1e-07
43
1e-07
40
0
40
0
40
0
40
0
40
1
40
1
40
1
40
1
10
35.3809947853
20
59.0208046654
30
0
10
35.3179683534
20
59.2719186356
30
0
10
34.9010536382
20
59.7381190778
30
0
10
34.5079789521
20
59.9995776076
30
0
0
SPLINE
5
13B
100
AcDbEntity
8
keine
6
ByLayer
62
7
370
-1
100
AcDbSpline
210
0
220
0
230
1
70
8
71
3
72
8
73
4
74
0
42
1e-07
43
1e-07
40
0
40
0
40
0
40
0
40
1
40
1
40
1
40
1
10
34.5079789521
20
59.9995776076
30
0
10
33.6164235126
20
60.5926054152
30
0
10
32.9366957124
20
60.9631468969
30
0
10
32.2808552016
20
61.2085282846
30
0
0
SPLINE
5
13C
100
AcDbEntity
8
keine
6
ByLayer
62
7
370
-1
100
AcDbSpline
210
0
220
0
230
1
70
8
71
3
72
8
73
4
74
0
42
1e-07
43
1e-07
40
0
40
0
40
0
40
0
40
1
40
1
40
1
40
1
10
32.2808552016
20
61.2085282846
30
0
10
32.0458129656
20
61.2964685614
30
0
10
31.7903440101
20
61.4360411127
30
0
10
31.7147428581
20
61.5195791442
30
0
0
SPLINE
5
13D
100
AcDbEntity
8
keine
6
ByLayer
62
7
370
-1
100
AcDbSpline
210
0
220
0
230
1
70
8
71
3
72
8
73
4
74
0
42
1e-07
43
1e-07
40
0
40
0
40
0
40
0
40
1
40
1
40
1
40
1
10
31.7147428581
20
61.5195791442
30
0
10
31.5827479153
20
61.6654330598
30
0
10
31.5916584474
20
61.6807794334
30
0
10
31.9158890038
20
61.9156504984
30
0
0
SPLINE
5
13E
100
AcDbEntity
8
keine
6
ByLayer
62
7
370
-1
100
AcDbSpline
210
0
220
0
230
1
70
8
71
3
72
8
73
4
74
0
42
1e-07
43
1e-07
40
0
40
0
40
0
40
0
40
1
40
1
40
1
40
1
10
31.9158890038
20
61.9156504984
30
0
10
32.1015944908
20
62.0501744457
30
0
10
32.3103194207
20
62.1601447594
30
0
10
32.3803916083
20
62.1603436751
30
0
0
SPLINE
5
13F
100
AcDbEntity
8
keine
6
ByLayer
62
7
370
-1
100
AcDbSpline
210
0
220
0
230
1
70
8
71
3
72
8
73
4
74
0
42
1e-07
43
1e-07
40
0
40
0
40
0
40
0
40
1
40
1
40
1
40
1
10
32.3803916083
20
62.1603436751
30
0
10
32.4504630906
20
62.1605268376
30
0
10
32.6833560489
20
62.2501094626
30
0
10
32.8988095509
20
62.3594162536
30
0
0
SPLINE
5
140
100
AcDbEntity
8
keine
6
ByLayer
62
7
370
-1
100
AcDbSpline
210
0
220
0
230
1
70
8
71
3
72
8
73
4
74
0
42
1e-07
43
1e-07
40
0
40
0
40
0
40
0
40
1
40
1
40
1
40
1
10
32.8988095509
20
62.3594162536
30
0
10
33.1142623476
20
62.4687230446
30
0
10
33.3409110913
20
62.5584888319
30
0
10
33.4006380141
20
62.5584888319
30
0
0
SPLINE
5
141
100
AcDbEntity
8
keine
6
ByLayer
62
7
370
-1
100
AcDbSpline
210
0
220
0
230
1
70
8
71
3
72
8
73
4
74
0
42
1e-07
43
1e-07
40
0
40
0
40
0
40
0
40
1
40
1
40
1
40
1
10
33.4006380141
20
62.5584888319
30
0
10
33.4603658773
20
62.5584888319
30
0
10
33.6843250262
20
62.6480714569
30
0
10
33.9003931449
20
62.7575611752
30
0
0
SPLINE
5
142
100
AcDbEntity
8
keine
6
ByLayer
62
7
370
-1
100
AcDbSpline
210
0
220
0
230
1
70
8
71
3
72
8
73
4
74
0
42
1e-07
43
1e-07
40
0
40
0
40
0
40
0
40
1
40
1
40
1
40
1
10
33.9003931449
20
62.7575611752
30
0
10
34.1164610286
20
62.8670511286
30
0
10
34.3334759957
20
62.9566337536
30
0
10
34.3814849938
20
62.9566337536
30
0
0
SPLINE
5
143
100
AcDbEntity
8
keine
6
ByLayer
62
7
370
-1
100
AcDbSpline
210
0
220
0
230
1
70
8
71
3
72
8
73
4
74
0
42
1e-07
43
1e-07
40
0
40
0
40
0
40
0
40
1
40
1
40
1
40
1
10
34.3814849938
20
62.9566337536
30
0
10
34.4294932866
20
62.9566337536
30
0
10
34.6540675224
20
63.0437950613
30
0
10
34.8812398896
20
63.1494851596
30
0
0
SPLINE
5
144
100
AcDbEntity
8
keine
6
ByLayer
62
7
370
-1
100
AcDbSpline
210
0
220
0
230
1
70
8
71
3
72
8
73
4
74
0
42
1e-07
43
1e-07
40
0
40
0
40
0
40
0
40
1
40
1
40
1
40
1
10
34.8812398896
20
63.1494851596
30
0
10
35.1084120216
20
63.2551754929
30
0
10
35.5451465987
20
63.4551166231
30
0
10
35.8517183271
20
63.5932511498
30
0
0
SPLINE
5
145
100
AcDbEntity
8
keine
6
ByLayer
62
7
370
-1
100
AcDbSpline
210
0
220
0
230
1
70
8
71
3
72
8
73
4
74
0
42
1e-07
43
1e-07
40
0
40
0
40
0
40
0
40
1
40
1
40
1
40
1
10
35.8517183271
20
63.5932511498
30
0
10
36.2813128633
20
63.7868199222
30
0
10
36.3801455409
20
63.8601408319
30
0
10
36.2830419726
20
63.9146700814
30
0
0
SPLINE
5
146
100
AcDbEntity
8
keine
6
ByLayer
62
7
370
-1
100
AcDbSpline
210
0
220
0
230
1
70
8
71
3
72
8
73
4
74
0
42
1e-07
43
1e-07
40
0
40
0
40
0
40
0
40
1
40
1
40
1
40
1
10
36.2830419726
20
63.9146700814
30
0
10
36.1029538569
20
64.0158004006
30
0
10
34.9154651548
20
63.8755365818
30
0
10
34.2985380666
20
63.6803452118
30
0
0
SPLINE
5
147
100
AcDbEntity
8
keine
6
ByLayer
62
7
370
-1
100
AcDbSpline
210
0
220
0
230
1
70
8
71
3
72
8
73
4
74
0
42
1e-07
43
1e-07
40
0
40
0
40
0
40
0
40
1
40
1
40
1
40
1
10
34.2985380666
20
63.6803452118
30
0
10
34.0138644699
20
63.5902761132
30
0
10
33.7189304886
20
63.5149822696
30
0
10
33.6432576234
20
63.5144515924
30
0
0
SPLINE
5
148
100
AcDbEntity
8
keine
6
ByLayer
62
7
370
-1
100
AcDbSpline
210
0
220
0
230
1
70
8
71
3
72
8
73
4
74
0
42
1e-07
43
1e-07
40
0
40
0
40
0
40
0
40
1
40
1
40
1
40
1
10
33.6432576234
20
63.5144515924
30
0
10
33.5675856988
20
63.5138868221
30
0
10
33.3184131557
20
63.4283288318
30
0
10
33.0875135871
20
63.3236737538
30
0
0
SPLINE
5
149
100
AcDbEntity
8
keine
6
ByLayer
62
7
370
-1
100
AcDbSpline
210
0
220
0
230
1
70
8
71
3
72
8
73
4
74
0
42
1e-07
43
1e-07
40
0
40
0
40
0
40
0
40
1
40
1
40
1
40
1
10
33.0875135871
20
63.3236737538
30
0
10
32.0486046047
20
62.8527882109
30
0
10
31.8343079177
20
62.7380157042
30
0
10
31.5923962697
20
62.5190889357
30
0
0
SPLINE
5
14A
100
AcDbEntity
8
keine
6
ByLayer
62
7
370
-1
100
AcDbSpline
210
0
220
0
230
1
70
8
71
3
72
8
73
4
74
0
42
1e-07
43
1e-07
40
0
40
0
40
0
40
0
40
1
40
1
40
1
40
1
10
31.5923962697
20
62.5190889357
30
0
10
31.3596718959
20
62.3084768926
30
0
10
31.3066481518
20
62.4300736673
30
0
10
31.4990810353
20
62.7347509936
30
0
0
SPLINE
5
14B
100
AcDbEntity
8
keine
6
ByLayer
62
7
370
-1
100
AcDbSpline
210
0
220
0
230
1
70
8
71
3
72
8
73
4
74
0
42
1e-07
43
1e-07
40
0
40
0
40
0
40
0
40
1
40
1
40
1
40
1
10
31.4990810353
20
62.7347509936
30
0
10
31.5902834364
20
62.8791506611
30
0
10
31.7563416433
20
63.1674846837
30
0
10
31.8681946029
20
63.3755155246
30
0
0
SPLINE
5
14C
100
AcDbEntity
8
keine
6
ByLayer
62
7
370
-1
100
AcDbSpline
210
0
220
0
230
1
70
8
71
3
72
8
73
4
74
0
42
1e-07
43
1e-07
40
0
40
0
40
0
40
0
40
1
40
1
40
1
40
1
10
31.8681946029
20
63.3755155246
30
0
10
31.9800480328
20
63.5835463654
30
0
10
32.0988778566
20
63.7529238319
30
0
10
32.1315508266
20
63.7529238319
30
0
0
SPLINE
5
14D
100
AcDbEntity
8
keine
6
ByLayer
62
7
370
-1
100
AcDbSpline
210
0
220
0
230
1
70
8
71
3
72
8
73
4
74
0
42
1e-07
43
1e-07
40
0
40
0
40
0
40
0
40
1
40
1
40
1
40
1
10
32.1315508266
20
63.7529238319
30
0
10
32.1642240317
20
63.7529238319
30
0
10
32.2272549309
20
63.8217105911
30
0
10
32.2704868944
20
63.9043017743
30
0
0
SPLINE
5
14E
100
AcDbEntity
8
keine
6
ByLayer
62
7
370
-1
100
AcDbSpline
210
0
220
0
230
1
70
8
71
3
72
8
73
4
74
0
42
1e-07
43
1e-07
40
0
40
0
40
0
40
0
40
1
40
1
40
1
40
1
10
32.2704868944
20
63.9043017743
30
0
10
32.3733583142
20
64.1008281841
30
0
10
33.1178179078
20
65.1960409043
30
0
10
33.2679231186
20
65.3724615401
30
0
0
SPLINE
5
14F
100
AcDbEntity
8
keine
6
ByLayer
62
7
370
-1
100
AcDbSpline
210
0
220
0
230
1
70
8
71
3
72
8
73
4
74
0
42
1e-07
43
1e-07
40
0
40
0
40
0
40
0
40
1
40
1
40
1
40
1
10
33.2679231186
20
65.3724615401
30
0
10
33.3321254106
20
65.4479185606
30
0
10
33.6579167267
20
65.8017713401
30
0
10
33.9937083793
20
66.1583830763
30
0
0
SPLINE
5
150
100
AcDbEntity
8
keine
6
ByLayer
62
7
370
-1
100
AcDbSpline
210
0
220
0
230
1
70
8
71
3
72
8
73
4
74
0
42
1e-07
43
1e-07
40
0
40
0
40
0
40
0
40
1
40
1
40
1
40
1
10
33.9937083793
20
66.1583830763
30
0
10
34.5979570573
20
66.8000993933
30
0
10
34.7845522573
20
67.1494902056
30
0
10
34.5681154626
20
67.2325452904
30
0
0
SPLINE
5
151
100
AcDbEntity
8
keine
6
ByLayer
62
7
370
-1
100
AcDbSpline
210
0
220
0
230
1
70
8
71
3
72
8
73
4
74
0
42
1e-07
43
1e-07
40
0
40
0
40
0
40
0
40
1
40
1
40
1
40
1
10
34.5681154626
20
67.2325452904
30
0
10
34.5642340191
20
67.2340345721
30
0
10
34.5596182802
20
67.2343750332
30
0
10
34.5535997856
20
67.2346188578
30
0
0
LWPOLYLINE
5
152
100
AcDbEntity
8
keine
6
ByLayer
62
7
370
-1
100
AcDbPolyline
90
3
70
0
43
0
10
36.7122920507
20
40.5485353939
10
36.6480081703
20
39.5987938058
10
36.1503270771
20
39.3893529203
0
SPLINE
5
153
100
AcDbEntity
8
keine
6
ByLayer
62
7
370
-1
100
AcDbSpline
210
0
220
0
230
1
70
8
71
3
72
8
73
4
74
0
42
1e-07
43
1e-07
40
0
40
0
40
0
40
0
40
1
40
1
40
1
40
1
10
51.3088685094
20
59.1141198998
30
0
10
51.3816886029
20
59.1339461101
30
0
10
51.4167045936
20
58.9897850944
30
0
10
51.4104782484
20
58.6827960192
30
0
0
SPLINE
5
154
100
AcDbEntity
8
keine
6
ByLayer
62
7
370
-1
100
AcDbSpline
210
0
220
0
230
1
70
8
71
3
72
8
73
4
74
0
42
1e-07
43
1e-07
40
0
40
0
40
0
40
0
40
1
40
1
40
1
40
1
10
51.4104782484
20
58.6827960192
30
0
10
51.4052958583
20
58.4273197748
30
0
10
51.3782889306
20
58.1112090252
30
0
10
51.3503419731
20
57.9798211751
30
0
0
SPLINE
5
155
100
AcDbEntity
8
keine
6
ByLayer
62
7
370
-1
100
AcDbSpline
210
0
220
0
230
1
70
8
71
3
72
8
73
4
74
0
42
1e-07
43
1e-07
40
0
40
0
40
0
40
0
40
1
40
1
40
1
40
1
10
51.3503419731
20
57.9798211751
30
0
10
51.2887568574
20
57.6902896609
30
0
10
51.0364503332
20
57.6256897726
30
0
10
50.8360711652
20
57.8471062797
30
0
0
SPLINE
5
156
100
AcDbEntity
8
keine
6
ByLayer
62
7
370
-1
100
AcDbSpline
210
0
220
0
230
1
70
8
71
3
72
8
73
4
74
0
42
1e-07
43
1e-07
40
0
40
0
40
0
40
0
40
1
40
1
40
1
40
1
10
50.8360711652
20
57.8471062797
30
0
10
50.7142449084
20
57.9817216906
30
0
10
50.7107523617
20
58.0250027952
30
0
10
50.8091136137
20
58.2286619569
30
0
0
SPLINE
5
157
100
AcDbEntity
8
keine
6
ByLayer
62
7
370
-1
100
AcDbSpline
210
0
220
0
230
1
70
8
71
3
72
8
73
4
74
0
42
1e-07
43
1e-07
40
0
40
0
40
0
40
0
40
1
40
1
40
1
40
1
10
50.8091136137
20
58.2286619569
30
0
10
50.8701624092
20
58.3550682136
30
0
10
50.9877213823
20
58.5997369373
30
0
10
51.0703962699
20
58.7719638837
30
0
0
SPLINE
5
158
100
AcDbEntity
8
keine
6
ByLayer
62
7
370
-1
100
AcDbSpline
210
0
220
0
230
1
70
8
71
3
72
8
73
4
74
0
42
1e-07
43
1e-07
40
0
40
0
40
0
40
0
40
1
40
1
40
1
40
1
10
51.0703962699
20
58.7719638837
30
0
10
51.1729389849
20
58.9855805892
30
0
10
51.2522304238
20
59.0986989916
30
0
10
51.3088685094
20
59.1141198998
30
0
0
LWPOLYLINE
5
159
100
AcDbEntity
8
keine
6
ByLayer
62
7
370
-1
100
AcDbPolyline
90
2
70
0
43
0
10
34.5535997856
20
67.2346188578
10
34.5535997856
20
67.2346188578
0
SPLINE
5
15A
100
AcDbEntity
8
keine
6
ByLayer
62
7
370
-1
100
AcDbSpline
210
0
220
0
230
1
70
8
71
3
72
8
73
4
74
0
42
1e-07
43
1e-07
40
0
40
0
40
0
40
0
40
1
40
1
40
1
40
1
10
44.1878791078
20
47.8893339881
30
0
10
44.2394946883
20
47.8721294217
30
0
10
44.3192895298
20
47.7876887453
30
0
10
44.3662150719
20
47.7027035194
30
0
0
SPLINE
5
15B
100
AcDbEntity
8
keine
6
ByLayer
62
7
370
-1
100
AcDbSpline
210
0
220
0
230
1
70
8
71
3
72
8
73
4
74
0
42
1e-07
43
1e-07
40
0
40
0
40
0
40
0
40
1
40
1
40
1
40
1
10
44.3662150719
20
47.7027035194
30
0
10
44.4131396736
20
47.6177180584
30
0
10
44.6461440812
20
47.3222447003
30
0
10
44.8825592121
20
47.0453495089
30
0
0
SPLINE
5
15C
100
AcDbEntity
8
keine
6
ByLayer
62
7
370
-1
100
AcDbSpline
210
0
220
0
230
1
70
8
71
3
72
8
73
4
74
0
42
1e-07
43
1e-07
40
0
40
0
40
0
40
0
40
1
40
1
40
1
40
1
10
44.8825592121
20
47.0453495089
30
0
10
45.3479828012
20
46.5002352386
30
0
10
45.4713009261
20
46.1543122849
30
0
10
45.5751657489
20
45.1002452641
30
0
0
SPLINE
5
15D
100
AcDbEntity
8
keine
6
ByLayer
62
7
370
-1
100
AcDbSpline
210
0
220
0
230
1
70
8
71
3
72
8
73
4
74
0
42
1e-07
43
1e-07
40
0
40
0
40
0
40
0
40
1
40
1
40
1
40
1
10
45.5751657489
20
45.1002452641
30
0
10
45.6174301731
20
44.6713290634
30
0
10
45.6030332342
20
44.5308486946
30
0
10
45.5067344987
20
44.4221546393
30
0
0
SPLINE
5
15E
100
AcDbEntity
8
keine
6
ByLayer
62
7
370
-1
100
AcDbSpline
210
0
220
0
230
1
70
8
71
3
72
8
73
4
74
0
42
1e-07
43
1e-07
40
0
40
0
40
0
40
0
40
1
40
1
40
1
40
1
10
45.5067344987
20
44.4221546393
30
0
10
45.3335978537
20
44.2267316711
30
0
10
44.8099808271
20
43.1751106557
30
0
10
44.8099808271
20
43.0224261236
30
0
0
SPLINE
5
15F
100
AcDbEntity
8
keine
6
ByLayer
62
7
370
-1
100
AcDbSpline
210
0
220
0
230
1
70
8
71
3
72
8
73
4
74
0
42
1e-07
43
1e-07
40
0
40
0
40
0
40
0
40
1
40
1
40
1
40
1
10
44.8099808271
20
43.0224261236
30
0
10
44.8099808271
20
42.9520593244
30
0
10
44.7321116593
20
42.7333660351
30
0
10
44.6357922328
20
42.5351131024
30
0
0
SPLINE
5
160
100
AcDbEntity
8
keine
6
ByLayer
62
7
370
-1
100
AcDbSpline
210
0
220
0
230
1
70
8
71
3
72
8
73
4
74
0
42
1e-07
43
1e-07
40
0
40
0
40
0
40
0
40
1
40
1
40
1
40
1
10
44.6357922328
20
42.5351131024
30
0
10
44.3121741771
20
41.8690091501
30
0
10
44.2498093869
20
42.0550146566
30
0
10
44.1692160609
20
43.9265468783
30
0
0
SPLINE
5
161
100
AcDbEntity
8
keine
6
ByLayer
62
7
370
-1
100
AcDbSpline
210
0
220
0
230
1
70
8
71
3
72
8
73
4
74
0
42
1e-07
43
1e-07
40
0
40
0
40
0
40
0
40
1
40
1
40
1
40
1
10
44.1692160609
20
43.9265468783
30
0
10
44.0691828351
20
46.2495320318
30
0
10
44.0769579486
20
47.9263083349
30
0
10
44.1878791078
20
47.8893339881
30
0
0
LWPOLYLINE
5
162
100
AcDbEntity
8
keine
6
ByLayer
62
7
370
-1
100
AcDbPolyline
90
2
70
0
43
0
10
51.3088685094
20
59.1141198998
10
51.3088685094
20
59.1141198998
0
SPLINE
5
163
100
AcDbEntity
8
keine
6
ByLayer
62
7
370
-1
100
AcDbSpline
210
0
220
0
230
1
70
8
71
3
72
8
73
4
74
0
42
1e-07
43
1e-07
40
0
40
0
40
0
40
0
40
1
40
1
40
1
40
1
10
32.6209374152
20
47.8603026341
30
0
10
32.6299779714
20
47.8615859464
30
0
10
32.6376058967
20
47.8599508872
30
0
10
32.6437478319
20
47.8561552643
30
0
0
SPLINE
5
164
100
AcDbEntity
8
keine
6
ByLayer
62
7
370
-1
100
AcDbSpline
210
0
220
0
230
1
70
8
71
3
72
8
73
4
74
0
42
1e-07
43
1e-07
40
0
40
0
40
0
40
0
40
1
40
1
40
1
40
1
10
32.6437478319
20
47.8561552643
30
0
10
32.7239887056
20
47.8065629344
30
0
10
32.6855577594
20
44.9647982161
30
0
10
32.5939798637
20
44.1650193529
30
0
0
SPLINE
5
165
100
AcDbEntity
8
keine
6
ByLayer
62
7
370
-1
100
AcDbSpline
210
0
220
0
230
1
70
8
71
3
72
8
73
4
74
0
42
1e-07
43
1e-07
40
0
40
0
40
0
40
0
40
1
40
1
40
1
40
1
10
32.5939798637
20
44.1650193529
30
0
10
32.5764282527
20
44.0117333712
30
0
10
32.5352632731
20
43.5190289336
30
0
10
32.5027381967
20
43.0701205246
30
0
0
SPLINE
5
166
100
AcDbEntity
8
keine
6
ByLayer
62
7
370
-1
100
AcDbSpline
210
0
220
0
230
1
70
8
71
3
72
8
73
4
74
0
42
1e-07
43
1e-07
40
0
40
0
40
0
40
0
40
1
40
1
40
1
40
1
10
32.5027381967
20
43.0701205246
30
0
10
32.4660577562
20
42.5638599552
30
0
10
32.4120460168
20
42.2529609863
30
0
10
32.3575811916
20
42.2530938319
30
0
0
SPLINE
5
167
100
AcDbEntity
8
keine
6
ByLayer
62
7
370
-1
100
AcDbSpline
210
0
220
0
230
1
70
8
71
3
72
8
73
4
74
0
42
1e-07
43
1e-07
40
0
40
0
40
0
40
0
40
1
40
1
40
1
40
1
10
32.3575811916
20
42.2530938319
30
0
10
32.3092862814
20
42.2532365528
30
0
10
32.1684715648
20
42.5142702117
30
0
10
32.0444567646
20
42.8316482851
30
0
0
SPLINE
5
168
100
AcDbEntity
8
keine
6
ByLayer
62
7
370
-1
100
AcDbSpline
210
0
220
0
230
1
70
8
71
3
72
8
73
4
74
0
42
1e-07
43
1e-07
40
0
40
0
40
0
40
0
40
1
40
1
40
1
40
1
10
32.0444567646
20
42.8316482851
30
0
10
31.7832444107
20
43.5001415776
30
0
10
31.6641996827
20
43.7535383764
30
0
10
31.3933236913
20
44.2334503681
30
0
0
SPLINE
5
169
100
AcDbEntity
8
keine
6
ByLayer
62
7
370
-1
100
AcDbSpline
210
0
220
0
230
1
70
8
71
3
72
8
73
4
74
0
42
1e-07
43
1e-07
40
0
40
0
40
0
40
0
40
1
40
1
40
1
40
1
10
31.3933236913
20
44.2334503681
30
0
10
31.2098897469
20
44.5584436699
30
0
10
31.2034974036
20
44.6171706061
30
0
10
31.2792718427
20
45.1106135712
30
0
0
SPLINE
5
16A
100
AcDbEntity
8
keine
6
ByLayer
62
7
370
-1
100
AcDbSpline
210
0
220
0
230
1
70
8
71
3
72
8
73
4
74
0
42
1e-07
43
1e-07
40
0
40
0
40
0
40
0
40
1
40
1
40
1
40
1
10
31.2792718427
20
45.1106135712
30
0
10
31.3238738796
20
45.4010691267
30
0
10
31.3814776236
20
45.8447664604
30
0
10
31.4078393683
20
46.0976814882
30
0
0
SPLINE
5
16B
100
AcDbEntity
8
keine
6
ByLayer
62
7
370
-1
100
AcDbSpline
210
0
220
0
230
1
70
8
71
3
72
8
73
4
74
0
42
1e-07
43
1e-07
40
0
40
0
40
0
40
0
40
1
40
1
40
1
40
1
10
31.4078393683
20
46.0976814882
30
0
10
31.4484675576
20
46.4874533734
30
0
10
31.5005009552
20
46.6037057569
30
0
10
31.7499953844
20
46.8607926076
30
0
0
SPLINE
5
16C
100
AcDbEntity
8
keine
6
ByLayer
62
7
370
-1
100
AcDbSpline
210
0
220
0
230
1
70
8
71
3
72
8
73
4
74
0
42
1e-07
43
1e-07
40
0
40
0
40
0
40
0
40
1
40
1
40
1
40
1
10
31.7499953844
20
46.8607926076
30
0
10
31.9118864709
20
47.0276114438
30
0
10
32.1603700978
20
47.3315500073
30
0
10
32.3015920509
20
47.5368096649
30
0
0
SPLINE
5
16D
100
AcDbEntity
8
keine
6
ByLayer
62
7
370
-1
100
AcDbSpline
210
0
220
0
230
1
70
8
71
3
72
8
73
4
74
0
42
1e-07
43
1e-07
40
0
40
0
40
0
40
0
40
1
40
1
40
1
40
1
10
32.3015920509
20
47.5368096649
30
0
10
32.4292425891
20
47.7223446863
30
0
10
32.5576549322
20
47.8513178026
30
0
10
32.6209374152
20
47.8603026341
30
0
0
LWPOLYLINE
5
16E
100
AcDbEntity
8
keine
6
ByLayer
62
7
370
-1
100
AcDbPolyline
90
2
70
0
43
0
10
44.1878791078
20
47.8893339881
10
44.1878791078
20
47.8893339881
0
SPLINE
5
16F
100
AcDbEntity
8
keine
6
ByLayer
62
7
370
-1
100
AcDbSpline
210
0
220
0
230
1
70
8
71
3
72
8
73
4
74
0
42
1e-07
43
1e-07
40
0
40
0
40
0
40
0
40
1
40
1
40
1
40
1
10
40.5506587697
20
36.8200733888
30
0
10
40.6216984967
20
36.8317635686
30
0
10
40.9274280073
20
36.6440628109
30
0
10
41.2660754882
20
36.3804550036
30
0
0
SPLINE
5
170
100
AcDbEntity
8
keine
6
ByLayer
62
7
370
-1
100
AcDbSpline
210
0
220
0
230
1
70
8
71
3
72
8
73
4
74
0
42
1e-07
43
1e-07
40
0
40
0
40
0
40
0
40
1
40
1
40
1
40
1
10
41.2660754882
20
36.3804550036
30
0
10
41.3974633382
20
36.2781800959
30
0
10
41.5766285882
20
36.1416291361
30
0
10
41.6642206449
20
36.0756253163
30
0
0
SPLINE
5
171
100
AcDbEntity
8
keine
6
ByLayer
62
7
370
-1
100
AcDbSpline
210
0
220
0
230
1
70
8
71
3
72
8
73
4
74
0
42
1e-07
43
1e-07
40
0
40
0
40
0
40
0
40
1
40
1
40
1
40
1
10
41.6642206449
20
36.0756253163
30
0
10
42.5781816159
20
35.3869185627
30
0
10
42.7839688941
20
35.2216494353
30
0
10
42.8068136391
20
35.1590622169
30
0
0
SPLINE
5
172
100
AcDbEntity
8
keine
6
ByLayer
62
7
370
-1
100
AcDbSpline
210
0
220
0
230
1
70
8
71
3
72
8
73
4
74
0
42
1e-07
43
1e-07
40
0
40
0
40
0
40
0
40
1
40
1
40
1
40
1
10
42.8068136391
20
35.1590622169
30
0
10
42.8214123152
20
35.1190679247
30
0
10
42.8768249293
20
35.0864838319
30
0
10
42.9312340299
20
35.0864838319
30
0
0
SPLINE
5
173
100
AcDbEntity
8
keine
6
ByLayer
62
7
370
-1
100
AcDbSpline
210
0
220
0
230
1
70
8
71
3
72
8
73
4
74
0
42
1e-07
43
1e-07
40
0
40
0
40
0
40
0
40
1
40
1
40
1
40
1
10
42.9312340299
20
35.0864838319
30
0
10
42.9856438359
20
35.0864838319
30
0
10
43.1145400663
20
34.9969012069
30
0
10
43.2174006703
20
34.8874112536
30
0
0
SPLINE
5
174
100
AcDbEntity
8
keine
6
ByLayer
62
7
370
-1
100
AcDbSpline
210
0
220
0
230
1
70
8
71
3
72
8
73
4
74
0
42
1e-07
43
1e-07
40
0
40
0
40
0
40
0
40
1
40
1
40
1
40
1
10
43.2174006703
20
34.8874112536
30
0
10
43.3202615094
20
34.7779213001
30
0
10
43.4463931401
20
34.6883386751
30
0
10
43.4973463734
20
34.6883386751
30
0
0
SPLINE
5
175
100
AcDbEntity
8
keine
6
ByLayer
62
7
370
-1
100
AcDbSpline
210
0
220
0
230
1
70
8
71
3
72
8
73
4
74
0
42
1e-07
43
1e-07
40
0
40
0
40
0
40
0
40
1
40
1
40
1
40
1
10
43.4973463734
20
34.6883386751
30
0
10
43.5999431672
20
34.6883386751
30
0
10
44.0136907487
20
33.8958689078
30
0
10
44.0136907487
20
33.6991971908
30
0
0
SPLINE
5
176
100
AcDbEntity
8
keine
6
ByLayer
62
7
370
-1
100
AcDbSpline
210
0
220
0
230
1
70
8
71
3
72
8
73
4
74
0
42
1e-07
43
1e-07
40
0
40
0
40
0
40
0
40
1
40
1
40
1
40
1
10
44.0136907487
20
33.6991971908
30
0
10
44.0136907487
20
33.6307468954
30
0
10
43.9864012007
20
33.5751386573
30
0
10
43.9535542382
20
33.5768506024
30
0
0
SPLINE
5
177
100
AcDbEntity
8
keine
6
ByLayer
62
7
370
-1
100
AcDbSpline
210
0
220
0
230
1
70
8
71
3
72
8
73
4
74
0
42
1e-07
43
1e-07
40
0
40
0
40
0
40
0
40
1
40
1
40
1
40
1
10
43.9535542382
20
33.5768506024
30
0
10
43.8630273512
20
33.5815747339
30
0
10
43.4625114291
20
33.7821586958
30
0
10
43.0183283271
20
34.0455005768
30
0
0
SPLINE
5
178
100
AcDbEntity
8
keine
6
ByLayer
62
7
370
-1
100
AcDbSpline
210
0
220
0
230
1
70
8
71
3
72
8
73
4
74
0
42
1e-07
43
1e-07
40
0
40
0
40
0
40
0
40
1
40
1
40
1
40
1
10
43.0183283271
20
34.0455005768
30
0
10
42.7993484203
20
34.1753262563
30
0
10
42.4702253829
20
34.3582539766
30
0
10
42.2863221291
20
34.4519402382
30
0
0
SPLINE
5
179
100
AcDbEntity
8
keine
6
ByLayer
62
7
370
-1
100
AcDbSpline
210
0
220
0
230
1
70
8
71
3
72
8
73
4
74
0
42
1e-07
43
1e-07
40
0
40
0
40
0
40
0
40
1
40
1
40
1
40
1
10
42.2863221291
20
34.4519402382
30
0
10
42.1024188752
20
34.5456269701
30
0
10
41.9105343032
20
34.6741143181
30
0
10
41.8591456183
20
34.7360333112
30
0
0
SPLINE
5
17A
100
AcDbEntity
8
keine
6
ByLayer
62
7
370
-1
100
AcDbSpline
210
0
220
0
230
1
70
8
71
3
72
8
73
4
74
0
42
1e-07
43
1e-07
40
0
40
0
40
0
40
0
40
1
40
1
40
1
40
1
10
41.8591456183
20
34.7360333112
30
0
10
41.8077578739
20
34.7979520691
30
0
10
41.7200809371
20
34.8480115924
30
0
10
41.6642206449
20
34.8480115924
30
0
0
SPLINE
5
17B
100
AcDbEntity
8
keine
6
ByLayer
62
7
370
-1
100
AcDbSpline
210
0
220
0
230
1
70
8
71
3
72
8
73
4
74
0
42
1e-07
43
1e-07
40
0
40
0
40
0
40
0
40
1
40
1
40
1
40
1
10
41.6642206449
20
34.8480115924
30
0
10
41.6083587069
20
34.8480115924
30
0
10
41.4069106607
20
34.9381223081
30
0
10
41.2163075199
20
35.0470839357
30
0
0
SPLINE
5
17C
100
AcDbEntity
8
keine
6
ByLayer
62
7
370
-1
100
AcDbSpline
210
0
220
0
230
1
70
8
71
3
72
8
73
4
74
0
42
1e-07
43
1e-07
40
0
40
0
40
0
40
0
40
1
40
1
40
1
40
1
10
41.2163075199
20
35.0470839357
30
0
10
41.0257048494
20
35.1560469739
30
0
10
40.8092739328
20
35.2456256018
30
0
10
40.7352154359
20
35.2461565141
30
0
0
SPLINE
5
17D
100
AcDbEntity
8
keine
6
ByLayer
62
7
370
-1
100
AcDbSpline
210
0
220
0
230
1
70
8
71
3
72
8
73
4
74
0
42
1e-07
43
1e-07
40
0
40
0
40
0
40
0
40
1
40
1
40
1
40
1
10
40.7352154359
20
35.2461565141
30
0
10
40.6611578796
20
35.2466846048
30
0
10
40.5773318199
20
35.2817991128
30
0
10
40.5506587697
20
35.3249560714
30
0
0
SPLINE
5
17E
100
AcDbEntity
8
keine
6
ByLayer
62
7
370
-1
100
AcDbSpline
210
0
220
0
230
1
70
8
71
3
72
8
73
4
74
0
42
1e-07
43
1e-07
40
0
40
0
40
0
40
0
40
1
40
1
40
1
40
1
10
40.5506587697
20
35.3249560714
30
0
10
40.4944664811
20
35.4158770279
30
0
10
40.4852350033
20
36.7587981679
30
0
10
40.5402904626
20
36.8138524516
30
0
0
SPLINE
5
17F
100
AcDbEntity
8
keine
6
ByLayer
62
7
370
-1
100
AcDbSpline
210
0
220
0
230
1
70
8
71
3
72
8
73
4
74
0
42
1e-07
43
1e-07
40
0
40
0
40
0
40
0
40
1
40
1
40
1
40
1
10
40.5402904626
20
36.8138524516
30
0
10
40.5428697838
20
36.8164317728
30
0
10
40.5459228819
20
36.8192944196
30
0
10
40.5506587697
20
36.8200733888
30
0
0
LWPOLYLINE
5
180
100
AcDbEntity
8
keine
6
ByLayer
62
7
370
-1
100
AcDbPolyline
90
2
70
0
43
0
10
32.6209374152
20
47.8603026341
10
32.6209374152
20
47.8603026341
0
SPLINE
5
181
100
AcDbEntity
8
keine
6
ByLayer
62
7
370
-1
100
AcDbSpline
210
0
220
0
230
1
70
8
71
3
72
8
73
4
74
0
42
1e-07
43
1e-07
40
0
40
0
40
0
40
0
40
1
40
1
40
1
40
1
10
36.1855793683
20
36.8034841444
30
0
10
36.1974195579
20
36.8033541203
30
0
10
36.2054695326
20
36.8016313594
30
0
10
36.2125371549
20
36.7972629721
30
0
0
SPLINE
5
182
100
AcDbEntity
8
keine
6
ByLayer
62
7
370
-1
100
AcDbSpline
210
0
220
0
230
1
70
8
71
3
72
8
73
4
74
0
42
1e-07
43
1e-07
40
0
40
0
40
0
40
0
40
1
40
1
40
1
40
1
10
36.2125371549
20
36.7972629721
30
0
10
36.3236407712
20
36.7285975373
30
0
10
36.3044423447
20
35.7195701209
30
0
10
36.1876531708
20
35.4887761234
30
0
0
SPLINE
5
183
100
AcDbEntity
8
keine
6
ByLayer
62
7
370
-1
100
AcDbSpline
210
0
220
0
230
1
70
8
71
3
72
8
73
4
74
0
42
1e-07
43
1e-07
40
0
40
0
40
0
40
0
40
1
40
1
40
1
40
1
10
36.1876531708
20
35.4887761234
30
0
10
36.1260680552
20
35.3670744829
30
0
10
35.9920317572
20
35.2724493672
30
0
10
35.8330552802
20
35.2399355768
30
0
0
SPLINE
5
184
100
AcDbEntity
8
keine
6
ByLayer
62
7
370
-1
100
AcDbSpline
210
0
220
0
230
1
70
8
71
3
72
8
73
4
74
0
42
1e-07
43
1e-07
40
0
40
0
40
0
40
0
40
1
40
1
40
1
40
1
10
35.8330552802
20
35.2399355768
30
0
10
35.6922591384
20
35.2111388776
30
0
10
35.4776471488
20
35.1204295336
30
0
10
35.3561108012
20
35.0387894311
30
0
0
SPLINE
5
185
100
AcDbEntity
8
keine
6
ByLayer
62
7
370
-1
100
AcDbSpline
210
0
220
0
230
1
70
8
71
3
72
8
73
4
74
0
42
1e-07
43
1e-07
40
0
40
0
40
0
40
0
40
1
40
1
40
1
40
1
10
35.3561108012
20
35.0387894311
30
0
10
35.2345742184
20
34.9571483881
30
0
10
35.0568947233
20
34.8482006329
30
0
10
34.9600394469
20
34.7961698217
30
0
0
SPLINE
5
186
100
AcDbEntity
8
keine
6
ByLayer
62
7
370
-1
100
AcDbSpline
210
0
220
0
230
1
70
8
71
3
72
8
73
4
74
0
42
1e-07
43
1e-07
40
0
40
0
40
0
40
0
40
1
40
1
40
1
40
1
10
34.9600394469
20
34.7961698217
30
0
10
34.4902980223
20
34.5438214452
30
0
10
34.2500465919
20
34.4034767434
30
0
10
34.1409389518
20
34.3192251076
30
0
0
SPLINE
5
187
100
AcDbEntity
8
keine
6
ByLayer
62
7
370
-1
100
AcDbSpline
210
0
220
0
230
1
70
8
71
3
72
8
73
4
74
0
42
1e-07
43
1e-07
40
0
40
0
40
0
40
0
40
1
40
1
40
1
40
1
10
34.1409389518
20
34.3192251076
30
0
10
34.0752450268
20
34.2684982996
30
0
10
33.7766242854
20
34.0975313881
30
0
10
33.4773640041
20
33.9397432328
30
0
0
SPLINE
5
188
100
AcDbEntity
8
keine
6
ByLayer
62
7
370
-1
100
AcDbSpline
210
0
220
0
230
1
70
8
71
3
72
8
73
4
74
0
42
1e-07
43
1e-07
40
0
40
0
40
0
40
0
40
1
40
1
40
1
40
1
10
33.4773640041
20
33.9397432328
30
0
10
32.9278648877
20
33.6500144486
30
0
10
32.7867649644
20
33.6048349448
30
0
10
32.7868312697
20
33.7137131029
30
0
0
SPLINE
5
189
100
AcDbEntity
8
keine
6
ByLayer
62
7
370
-1
100
AcDbSpline
210
0
220
0
230
1
70
8
71
3
72
8
73
4
74
0
42
1e-07
43
1e-07
40
0
40
0
40
0
40
0
40
1
40
1
40
1
40
1
10
32.7868312697
20
33.7137131029
30
0
10
32.7870388851
20
33.9051046178
30
0
10
33.1120646342
20
34.5784203241
30
0
10
33.2368179621
20
34.6468654466
30
0
0
SPLINE
5
18A
100
AcDbEntity
8
keine
6
ByLayer
62
7
370
-1
100
AcDbSpline
210
0
220
0
230
1
70
8
71
3
72
8
73
4
74
0
42
1e-07
43
1e-07
40
0
40
0
40
0
40
0
40
1
40
1
40
1
40
1
10
33.2368179621
20
34.6468654466
30
0
10
33.3181709769
20
34.6914994606
30
0
10
33.4015505342
20
34.7493458536
30
0
10
33.4234484308
20
34.7754329723
30
0
0
SPLINE
5
18B
100
AcDbEntity
8
keine
6
ByLayer
62
7
370
-1
100
AcDbSpline
210
0
220
0
230
1
70
8
71
3
72
8
73
4
74
0
42
1e-07
43
1e-07
40
0
40
0
40
0
40
0
40
1
40
1
40
1
40
1
10
33.4234484308
20
34.7754329723
30
0
10
33.5244564849
20
34.8957643043
30
0
10
34.7887739267
20
35.8827736752
30
0
10
34.8418399933
20
35.8827736752
30
0
0
SPLINE
5
18C
100
AcDbEntity
8
keine
6
ByLayer
62
7
370
-1
100
AcDbSpline
210
0
220
0
230
1
70
8
71
3
72
8
73
4
74
0
42
1e-07
43
1e-07
40
0
40
0
40
0
40
0
40
1
40
1
40
1
40
1
10
34.8418399933
20
35.8827736752
30
0
10
34.8747838273
20
35.8827736752
30
0
10
34.9572264114
20
35.9450669873
30
0
10
35.0263968947
20
36.0217097431
30
0
0
SPLINE
5
18D
100
AcDbEntity
8
keine
6
ByLayer
62
7
370
-1
100
AcDbSpline
210
0
220
0
230
1
70
8
71
3
72
8
73
4
74
0
42
1e-07
43
1e-07
40
0
40
0
40
0
40
0
40
1
40
1
40
1
40
1
10
35.0263968947
20
36.0217097431
30
0
10
35.3222817216
20
36.3495609893
30
0
10
36.0079722917
20
36.8054382683
30
0
10
36.1855793683
20
36.8034841444
30
0
0
LWPOLYLINE
5
18E
100
AcDbEntity
8
keine
6
ByLayer
62
7
370
-1
100
AcDbPolyline
90
2
70
0
43
0
10
40.5506587697
20
36.8200733888
10
40.5506587697
20
36.8200733888
0
SPLINE
5
18F
100
AcDbEntity
8
keine
6
ByLayer
62
7
370
-1
100
AcDbSpline
210
0
220
0
230
1
70
8
71
3
72
8
73
4
74
0
42
1e-07
43
1e-07
40
0
40
0
40
0
40
0
40
1
40
1
40
1
40
1
10
18.5427791342
20
30.7068887536
30
0
10
18.6233080359
20
30.7068887536
30
0
10
18.6344858784
20
30.3546146033
30
0
10
18.5635157484
20
29.9997667748
30
0
0
SPLINE
5
190
100
AcDbEntity
8
keine
6
ByLayer
62
7
370
-1
100
AcDbSpline
210
0
220
0
230
1
70
8
71
3
72
8
73
4
74
0
42
1e-07
43
1e-07
40
0
40
0
40
0
40
0
40
1
40
1
40
1
40
1
10
18.5635157484
20
29.9997667748
30
0
10
18.5143123153
20
29.7537489038
30
0
10
18.3727381449
20
29.6513691304
30
0
10
18.3727381449
20
29.8608307069
30
0
0
SPLINE
5
191
100
AcDbEntity
8
keine
6
ByLayer
62
7
370
-1
100
AcDbSpline
210
0
220
0
230
1
70
8
71
3
72
8
73
4
74
0
42
1e-07
43
1e-07
40
0
40
0
40
0
40
0
40
1
40
1
40
1
40
1
10
18.3727381449
20
29.8608307069
30
0
10
18.3727381449
20
30.1616816089
30
0
10
18.4823825754
20
30.7068887536
30
0
10
18.5427791342
20
30.7068887536
30
0
0
LWPOLYLINE
5
192
100
AcDbEntity
8
keine
6
ByLayer
62
7
370
-1
100
AcDbPolyline
90
2
70
0
43
0
10
36.1855793683
20
36.8034841444
10
36.1855793683
20
36.8034841444
0
LWPOLYLINE
5
193
100
AcDbEntity
8
keine
6
ByLayer
62
7
370
-1
100
AcDbPolyline
90
2
70
0
43
0
10
18.5427791342
20
30.7068887536
10
18.5427791342
20
30.7068887536
0
LWPOLYLINE
5
194
100
AcDbEntity
8
name
6
ByLayer
62
7
370
-1
100
AcDbPolyline
90
26
70
0
43
0
10
61.3967747946
20
53.2652353972
10
61.3967747946
20
53.6968373972
10
63.3108357946
20
53.6968373972
10
65.2248977946
20
53.6968373972
10
65.2248977946
20
57.9940943972
10
65.2248977946
20
62.2913503972
10
65.6752657946
20
62.2913503972
10
66.1256327946
20
62.2913503972
10
66.1256327946
20
60.7525953972
10
66.1256327946
20
59.2138393972
10
68.2836437946
20
59.2138393972
10
70.4416547946
20
59.2138393972
10
70.4416547946
20
58.7822373972
10
70.4416547946
20
58.3506353972
10
68.2836437946
20
58.3506353972
10
66.1256327946
20
58.3506353972
10
66.1256327946
20
56.0237363972
10
66.1256327946
20
53.6968373972
10
68.5463587946
20
53.6968373972
10
70.9670837946
20
53.6968373972
10
70.9670837946
20
53.2652353972
10
70.9670837946
20
52.8336333972
10
66.1819287946
20
52.8336333972
10
61.3967747946
20
52.8336333972
10
61.3967747946
20
53.2652353972
10
61.3967747946
20
53.2652353972
0
SPLINE
5
195
100
AcDbEntity
8
name
6
ByLayer
62
7
370
-1
100
AcDbSpline
210
0
220
0
230
1
70
8
71
3
72
8
73
4
74
0
42
1e-07
43
1e-07
40
0
40
0
40
0
40
0
40
1
40
1
40
1
40
1
10
64.8422117946
20
49.8405663972
30
0
10
64.9651277946
20
50.0437093972
30
0
10
65.1869907946
20
50.6384093972
30
0
10
65.2525277946
20
50.9404133972
30
0
0
SPLINE
5
196
100
AcDbEntity
8
name
6
ByLayer
62
7
370
-1
100
AcDbSpline
210
0
220
0
230
1
70
8
71
3
72
8
73
4
74
0
42
1e-07
43
1e-07
40
0
40
0
40
0
40
0
40
1
40
1
40
1
40
1
10
65.2525277946
20
50.9404133972
30
0
10
65.3080417946
20
51.1962273972
30
0
10
65.3220237946
20
51.2227853972
30
0
10
65.3915487946
20
51.2044683972
30
0
0
SPLINE
5
197
100
AcDbEntity
8
name
6
ByLayer
62
7
370
-1
100
AcDbSpline
210
0
220
0
230
1
70
8
71
3
72
8
73
4
74
0
42
1e-07
43
1e-07
40
0
40
0
40
0
40
0
40
1
40
1
40
1
40
1
10
65.3915487946
20
51.2044683972
30
0
10
65.4340627946
20
51.1932663972
30
0
10
65.6461797946
20
51.1469893972
30
0
10
65.8629187946
20
51.1016303972
30
0
0
SPLINE
5
198
100
AcDbEntity
8
name
6
ByLayer
62
7
370
-1
100
AcDbSpline
210
0
220
0
230
1
70
8
71
3
72
8
73
4
74
0
42
1e-07
43
1e-07
40
0
40
0
40
0
40
0
40
1
40
1
40
1
40
1
10
65.8629187946
20
51.1016303972
30
0
10
66.0796577946
20
51.0562703972
30
0
10
66.2636227946
20
51.0140443972
30
0
10
66.2717277946
20
51.0077953972
30
0
0
SPLINE
5
199
100
AcDbEntity
8
name
6
ByLayer
62
7
370
-1
100
AcDbSpline
210
0
220
0
230
1
70
8
71
3
72
8
73
4
74
0
42
1e-07
43
1e-07
40
0
40
0
40
0
40
0
40
1
40
1
40
1
40
1
10
66.2717277946
20
51.0077953972
30
0
10
66.2961347946
20
50.9889763972
30
0
10
66.0874167946
20
50.4361573972
30
0
10
65.9160557946
20
50.0657493972
30
0
0
LWPOLYLINE
5
19A
100
AcDbEntity
8
name
6
ByLayer
62
7
370
-1
100
AcDbPolyline
90
13
70
0
43
0
10
69.4283277946
20
41.4993843972
10
69.4283277946
20
41.9497523972
10
66.1443987946
20
41.9497523972
10
62.8604687946
20
41.9497523972
10
62.8604687946
20
41.5181493972
10
62.8604687946
20
41.0865473972
10
62.4288667946
20
41.0865473972
10
61.9972637946
20
41.0865473972
10
61.9972637946
20
45.4025693972
10
61.9972637946
20
49.7185913972
10
63.3828367946
20
49.7185913972
10
64.7684087946
20
49.7185913972
10
64.8422117946
20
49.8405663972
0
LWPOLYLINE
5
19B
100
AcDbEntity
8
name
6
ByLayer
62
7
370
-1
100
AcDbPolyline
90
10
70
0
43
0
10
65.9160557946
20
50.0657493972
10
65.7554507946
20
49.7185913972
10
68.0047257946
20
49.7185913972
10
70.2540017946
20
49.7185913972
10
70.2540017946
20
45.3838043972
10
70.2540017946
20
41.0490173972
10
69.8411647946
20
41.0490173972
10
69.4283277946
20
41.0490173972
10
69.4283277946
20
41.4993843972
10
69.4283277946
20
41.4993843972
0
LWPOLYLINE
5
19C
100
AcDbEntity
8
name
6
ByLayer
62
7
370
-1
100
AcDbPolyline
90
10
70
0
43
0
10
69.4283277946
20
44.1452933972
10
69.4283277946
20
45.5151613972
10
66.1443987946
20
45.5151613972
10
62.8604687946
20
45.5151613972
10
62.8604687946
20
44.1452933972
10
62.8604687946
20
42.7754253972
10
66.1443987946
20
42.7754253972
10
69.4283277946
20
42.7754253972
10
69.4283277946
20
44.1452933972
10
69.4283277946
20
44.1452933972
0
LWPOLYLINE
5
19D
100
AcDbEntity
8
name
6
ByLayer
62
7
370
-1
100
AcDbPolyline
90
10
70
0
43
0
10
69.4283277946
20
47.6356413972
10
69.4283277946
20
48.9304483972
10
66.1443987946
20
48.9304483972
10
62.8604687946
20
48.9304483972
10
62.8604687946
20
47.6356413972
10
62.8604687946
20
46.3408353972
10
66.1443987946
20
46.3408353972
10
69.4283277946
20
46.3408353972
10
69.4283277946
20
47.6356413972
10
69.4283277946
20
47.6356413972
0
SPLINE
5
19E
100
AcDbEntity
8
name
6
ByLayer
62
7
370
-1
100
AcDbSpline
210
0
220
0
230
1
70
8
71
3
72
8
73
4
74
0
42
1e-07
43
1e-07
40
0
40
0
40
0
40
0
40
1
40
1
40
1
40
1
10
64.0504327946
20
30.6620903972
30
0
10
64.3802457946
20
31.1461613972
30
0
10
64.7045467946
20
31.9968553972
30
0
10
64.8675657946
20
32.8055603972
30
0
0
SPLINE
5
19F
100
AcDbEntity
8
name
6
ByLayer
62
7
370
-1
100
AcDbSpline
210
0
220
0
230
1
70
8
71
3
72
8
73
4
74
0
42
1e-07
43
1e-07
40
0
40
0
40
0
40
0
40
1
40
1
40
1
40
1
10
64.8675657946
20
32.8055603972
30
0
10
65.0956107946
20
33.9368563972
30
0
10
65.1489847946
20
34.8420853972
30
0
10
65.1494777946
20
37.5868163972
30
0
0
LWPOLYLINE
5
1A0
100
AcDbEntity
8
name
6
ByLayer
62
7
370
-1
100
AcDbPolyline
90
3
70
0
43
0
10
64.2045067946
20
30.1103293972
10
63.9159627946
20
30.4647273972
10
64.0504327946
20
30.6620903972
0
SPLINE
5
1A1
100
AcDbEntity
8
name
6
ByLayer
62
7
370
-1
100
AcDbSpline
210
0
220
0
230
1
70
8
71
3
72
8
73
4
74
0
42
1e-07
43
1e-07
40
0
40
0
40
0
40
0
40
1
40
1
40
1
40
1
10
68.7367687946
20
35.0910303972
30
0
10
69.0073177946
20
33.8740083972
30
0
10
69.3985677946
20
32.8827763972
30
0
10
69.9101767946
20
32.1181993972
30
0
0
SPLINE
5
1A2
100
AcDbEntity
8
name
6
ByLayer
62
7
370
-1
100
AcDbSpline
210
0
220
0
230
1
70
8
71
3
72
8
73
4
74
0
42
1e-07
43
1e-07
40
0
40
0
40
0
40
0
40
1
40
1
40
1
40
1
10
69.9101767946
20
32.1181993972
30
0
10
70.1669467946
20
31.7344673972
30
0
10
70.7005557946
20
31.1671443972
30
0
10
71.0470807946
20
30.9094673972
30
0
0
LWPOLYLINE
5
1A3
100
AcDbEntity
8
name
6
ByLayer
62
7
370
-1
100
AcDbPolyline
90
9
70
0
43
0
10
65.1494777946
20
37.5868163972
10
65.1498447946
20
39.5853223972
10
67.7769887946
20
39.5853223972
10
70.4041317946
20
39.5853223972
10
70.4041317946
20
37.3897803972
10
70.4041317946
20
35.1942393972
10
69.5589777946
20
35.1942393972
10
68.7138237946
20
35.1942393972
10
68.7367687946
20
35.0910303972
0
SPLINE
5
1A4
100
AcDbEntity
8
name
6
ByLayer
62
7
370
-1
100
AcDbSpline
210
0
220
0
230
1
70
8
71
3
72
8
73
4
74
0
42
1e-07
43
1e-07
40
0
40
0
40
0
40
0
40
1
40
1
40
1
40
1
10
70.6697737946
20
29.9146813972
30
0
10
70.3840747946
20
30.1145763972
30
0
10
69.7611937946
20
30.7646273972
30
0
10
69.5050517946
20
31.1302103972
30
0
0
SPLINE
5
1A5
100
AcDbEntity
8
name
6
ByLayer
62
7
370
-1
100
AcDbSpline
210
0
220
0
230
1
70
8
71
3
72
8
73
4
74
0
42
1e-07
43
1e-07
40
0
40
0
40
0
40
0
40
1
40
1
40
1
40
1
10
69.5050517946
20
31.1302103972
30
0
10
69.1834317946
20
31.5892473972
30
0
10
68.9087017946
20
32.0741753972
30
0
10
68.6940507946
20
32.5617143972
30
0
0
SPLINE
5
1A6
100
AcDbEntity
8
name
6
ByLayer
62
7
370
-1
100
AcDbSpline
210
0
220
0
230
1
70
8
71
3
72
8
73
4
74
0
42
1e-07
43
1e-07
40
0
40
0
40
0
40
0
40
1
40
1
40
1
40
1
10
68.6940507946
20
32.5617143972
30
0
10
68.4650247946
20
33.0819033972
30
0
10
68.1121697946
20
34.1533263972
30
0
10
67.9784837946
20
34.7344893972
30
0
0
LWPOLYLINE
5
1A7
100
AcDbEntity
8
name
6
ByLayer
62
7
370
-1
100
AcDbPolyline
90
5
70
0
43
0
10
71.0470807946
20
30.9094673972
10
71.3008397946
20
30.7207703972
10
71.0704157946
20
30.2581773972
10
70.8399927946
20
29.7955833972
10
70.6697737946
20
29.9146813972
0
SPLINE
5
1A8
100
AcDbEntity
8
name
6
ByLayer
62
7
370
-1
100
AcDbSpline
210
0
220
0
230
1
70
8
71
3
72
8
73
4
74
0
42
1e-07
43
1e-07
40
0
40
0
40
0
40
0
40
1
40
1
40
1
40
1
10
65.9379887946
20
34.8827303972
30
0
10
65.9379887946
20
34.7114023972
30
0
10
65.9202347946
20
34.3440703972
30
0
10
65.8985357946
20
34.0664383972
30
0
0
SPLINE
5
1A9
100
AcDbEntity
8
name
6
ByLayer
62
7
370
-1
100
AcDbSpline
210
0
220
0
230
1
70
8
71
3
72
8
73
4
74
0
42
1e-07
43
1e-07
40
0
40
0
40
0
40
0
40
1
40
1
40
1
40
1
10
65.8985357946
20
34.0664383972
30
0
10
65.7871477946
20
32.6412873972
30
0
10
65.4894047946
20
31.4828043972
30
0
10
64.9931187946
20
30.5435743972
30
0
0
SPLINE
5
1AA
100
AcDbEntity
8
name
6
ByLayer
62
7
370
-1
100
AcDbSpline
210
0
220
0
230
1
70
8
71
3
72
8
73
4
74
0
42
1e-07
43
1e-07
40
0
40
0
40
0
40
0
40
1
40
1
40
1
40
1
10
64.9931187946
20
30.5435743972
30
0
10
64.8334087946
20
30.2413223972
30
0
10
64.5261677946
20
29.7483993972
30
0
10
64.5010437946
20
29.7541143972
30
0
0
SPLINE
5
1AB
100
AcDbEntity
8
name
6
ByLayer
62
7
370
-1
100
AcDbSpline
210
0
220
0
230
1
70
8
71
3
72
8
73
4
74
0
42
1e-07
43
1e-07
40
0
40
0
40
0
40
0
40
1
40
1
40
1
40
1
10
64.5010437946
20
29.7541143972
30
0
10
64.4966527946
20
29.7552433972
30
0
10
64.3632147946
20
29.9154093972
30
0
10
64.2045157946
20
30.1103293972
30
0
0
LWPOLYLINE
5
1AC
100
AcDbEntity
8
name
6
ByLayer
62
7
370
-1
100
AcDbPolyline
90
5
70
0
43
0
10
67.9784837946
20
34.7344893972
10
67.8727257946
20
35.1942393972
10
66.9053577946
20
35.1942393972
10
65.9379887946
20
35.1942393972
10
65.9379887946
20
34.8827303972
0
LWPOLYLINE
5
1AD
100
AcDbEntity
8
name
6
ByLayer
62
7
370
-1
100
AcDbPolyline
90
3
70
0
43
0
10
64.2045157946
20
30.1103293972
10
64.2045157946
20
30.1103293972
10
64.2045067946
20
30.1103293972
0
SPLINE
5
1AE
100
AcDbEntity
8
name
6
ByLayer
62
7
370
-1
100
AcDbSpline
210
0
220
0
230
1
70
8
71
3
72
8
73
4
74
0
42
1e-07
43
1e-07
40
0
40
0
40
0
40
0
40
1
40
1
40
1
40
1
10
63.5172547946
20
38.0704233972
30
0
10
63.2294277946
20
38.3038223972
30
0
10
62.3198867946
20
38.9249953972
30
0
10
61.9406307946
20
39.1471813972
30
0
0
LWPOLYLINE
5
1AF
100
AcDbEntity
8
name
6
ByLayer
62
7
370
-1
100
AcDbPolyline
90
10
70
0
43
0
10
69.5409197946
20
37.3897803972
10
69.5409197946
20
38.7596483972
10
67.7394497946
20
38.7596483972
10
65.9379797946
20
38.7596483972
10
65.9379797946
20
37.3897803972
10
65.9379797946
20
36.0199133972
10
67.7394497946
20
36.0199133972
10
69.5409197946
20
36.0199133972
10
69.5409197946
20
37.3897803972
10
69.5409197946
20
37.3897803972
0
SPLINE
5
1B0
100
AcDbEntity
8
name
6
ByLayer
62
7
370
-1
100
AcDbSpline
210
0
220
0
230
1
70
8
71
3
72
8
73
4
74
0
42
1e-07
43
1e-07
40
0
40
0
40
0
40
0
40
1
40
1
40
1
40
1
10
62.4914137946
20
39.7515783972
30
0
10
62.9470827946
20
39.5466283972
30
0
10
64.3992237946
20
38.6156803972
30
0
10
64.3992237946
20
38.5285073972
30
0
0
SPLINE
5
1B1
100
AcDbEntity
8
name
6
ByLayer
62
7
370
-1
100
AcDbSpline
210
0
220
0
230
1
70
8
71
3
72
8
73
4
74
0
42
1e-07
43
1e-07
40
0
40
0
40
0
40
0
40
1
40
1
40
1
40
1
10
64.3992237946
20
38.5285073972
30
0
10
64.3992237946
20
38.4914233972
30
0
10
63.8660517946
20
37.8270123972
30
0
10
63.8362647946
20
37.8269763972
30
0
0
SPLINE
5
1B2
100
AcDbEntity
8
name
6
ByLayer
62
7
370
-1
100
AcDbSpline
210
0
220
0
230
1
70
8
71
3
72
8
73
4
74
0
42
1e-07
43
1e-07
40
0
40
0
40
0
40
0
40
1
40
1
40
1
40
1
10
63.8362647946
20
37.8269763972
30
0
10
63.8259437946
20
37.8269643972
30
0
10
63.6823897946
20
37.9365153972
30
0
10
63.5172547946
20
38.0704233972
30
0
0
LWPOLYLINE
5
1B3
100
AcDbEntity
8
name
6
ByLayer
62
7
370
-1
100
AcDbPolyline
90
5
70
0
43
0
10
61.9406307946
20
39.1471813972
10
61.7596067946
20
39.2532333972
10
62.0449937946
20
39.5386203972
10
62.3303807946
20
39.8240073972
10
62.4914137946
20
39.7515783972
0
SPLINE
5
1B4
100
AcDbEntity
8
name
6
ByLayer
62
7
370
-1
100
AcDbSpline
210
0
220
0
230
1
70
8
71
3
72
8
73
4
74
0
42
1e-07
43
1e-07
40
0
40
0
40
0
40
0
40
1
40
1
40
1
40
1
10
62.9140787946
20
35.4768923972
30
0
10
62.4981127946
20
35.8089773972
30
0
10
62.0452317946
20
36.1234343972
30
0
10
61.6297147946
20
36.3686883972
30
0
0
LWPOLYLINE
5
1B5
100
AcDbEntity
8
name
6
ByLayer
62
7
370
-1
100
AcDbPolyline
90
2
70
0
43
0
10
63.5172547946
20
38.0704233972
10
63.5172547946
20
38.0704233972
0
SPLINE
5
1B6
100
AcDbEntity
8
name
6
ByLayer
62
7
370
-1
100
AcDbSpline
210
0
220
0
230
1
70
8
71
3
72
8
73
4
74
0
42
1e-07
43
1e-07
40
0
40
0
40
0
40
0
40
1
40
1
40
1
40
1
10
62.0501967946
20
37.0631733972
30
0
10
62.4053477946
20
36.8841683972
30
0
10
62.9929727946
20
36.5238643972
30
0
10
63.3961677946
20
36.2378853972
30
0
0
SPLINE
5
1B7
100
AcDbEntity
8
name
6
ByLayer
62
7
370
-1
100
AcDbSpline
210
0
220
0
230
1
70
8
71
3
72
8
73
4
74
0
42
1e-07
43
1e-07
40
0
40
0
40
0
40
0
40
1
40
1
40
1
40
1
10
63.3961677946
20
36.2378853972
30
0
10
63.7617927946
20
35.9785553972
30
0
10
63.7627637946
20
35.9774443972
30
0
10
63.6964127946
20
35.8944823972
30
0
0
SPLINE
5
1B8
100
AcDbEntity
8
name
6
ByLayer
62
7
370
-1
100
AcDbSpline
210
0
220
0
230
1
70
8
71
3
72
8
73
4
74
0
42
1e-07
43
1e-07
40
0
40
0
40
0
40
0
40
1
40
1
40
1
40
1
10
63.6964127946
20
35.8944823972
30
0
10
63.4661987946
20
35.6066353972
30
0
10
63.1886047946
20
35.2693003972
30
0
10
63.1819477946
20
35.2693003972
30
0
0
SPLINE
5
1B9
100
AcDbEntity
8
name
6
ByLayer
62
7
370
-1
100
AcDbSpline
210
0
220
0
230
1
70
8
71
3
72
8
73
4
74
0
42
1e-07
43
1e-07
40
0
40
0
40
0
40
0
40
1
40
1
40
1
40
1
10
63.1819477946
20
35.2693003972
30
0
10
63.1776357946
20
35.2693003972
30
0
10
63.0570937946
20
35.3627173972
30
0
10
62.9140787946
20
35.4768923972
30
0
0
LWPOLYLINE
5
1BA
100
AcDbEntity
8
name
6
ByLayer
62
7
370
-1
100
AcDbPolyline
90
5
70
0
43
0
10
61.6297147946
20
36.3686883972
10
61.2434007946
20
36.5967063972
10
61.5325247946
20
36.8875363972
10
61.8216487946
20
37.1783663972
10
62.0501967946
20
37.0631733972
0
SPLINE
5
1BB
100
AcDbEntity
8
name
6
ByLayer
62
7
370
-1
100
AcDbSpline
210
0
220
0
230
1
70
8
71
3
72
8
73
4
74
0
42
1e-07
43
1e-07
40
0
40
0
40
0
40
0
40
1
40
1
40
1
40
1
10
61.5629397946
20
30.0391273972
30
0
10
61.3786607946
20
30.1750433972
30
0
10
61.1980197946
20
30.3072503972
30
0
10
61.1615167946
20
30.3329183972
30
0
0
SPLINE
5
1BC
100
AcDbEntity
8
name
6
ByLayer
62
7
370
-1
100
AcDbSpline
210
0
220
0
230
1
70
8
71
3
72
8
73
4
74
0
42
1e-07
43
1e-07
40
0
40
0
40
0
40
0
40
1
40
1
40
1
40
1
10
61.1615167946
20
30.3329183972
30
0
10
61.1006527946
20
30.3757173972
30
0
10
61.1197347946
20
30.4166163972
30
0
10
61.3915447946
20
30.8259403972
30
0
0
SPLINE
5
1BD
100
AcDbEntity
8
name
6
ByLayer
62
7
370
-1
100
AcDbSpline
210
0
220
0
230
1
70
8
71
3
72
8
73
4
74
0
42
1e-07
43
1e-07
40
0
40
0
40
0
40
0
40
1
40
1
40
1
40
1
10
61.3915447946
20
30.8259403972
30
0
10
61.9688767946
20
31.6953483972
30
0
10
62.6678057946
20
33.0133063972
30
0
10
63.0314057946
20
33.9181983972
30
0
0
SPLINE
5
1BE
100
AcDbEntity
8
name
6
ByLayer
62
7
370
-1
100
AcDbSpline
210
0
220
0
230
1
70
8
71
3
72
8
73
4
74
0
42
1e-07
43
1e-07
40
0
40
0
40
0
40
0
40
1
40
1
40
1
40
1
10
63.0314057946
20
33.9181983972
30
0
10
63.1102017946
20
34.1142953972
30
0
10
63.1796547946
20
34.2814563972
30
0
10
63.1857477946
20
34.2896673972
30
0
0
SPLINE
5
1BF
100
AcDbEntity
8
name
6
ByLayer
62
7
370
-1
100
AcDbSpline
210
0
220
0
230
1
70
8
71
3
72
8
73
4
74
0
42
1e-07
43
1e-07
40
0
40
0
40
0
40
0
40
1
40
1
40
1
40
1
10
63.1857477946
20
34.2896673972
30
0
10
63.1918407946
20
34.2978773972
30
0
10
63.3566087946
20
34.1823753972
30
0
10
63.5519007946
20
34.0329953972
30
0
0
LWPOLYLINE
5
1C0
100
AcDbEntity
8
name
6
ByLayer
62
7
370
-1
100
AcDbPolyline
90
2
70
0
43
0
10
62.9140787946
20
35.4768923972
10
62.9140787946
20
35.4768923972
0
SPLINE
5
1C1
100
AcDbEntity
8
name
6
ByLayer
62
7
370
-1
100
AcDbSpline
210
0
220
0
230
1
70
8
71
3
72
8
73
4
74
0
42
1e-07
43
1e-07
40
0
40
0
40
0
40
0
40
1
40
1
40
1
40
1
10
63.7946267946
20
33.4551083972
30
0
10
63.3870117946
20
32.3438583972
30
0
10
62.6391307946
20
30.8826893972
30
0
10
61.9860217946
20
29.9215533972
30
0
0
LWPOLYLINE
5
1C2
100
AcDbEntity
8
name
6
ByLayer
62
7
370
-1
100
AcDbPolyline
90
3
70
0
43
0
10
63.5519007946
20
34.0329953972
10
63.9069757946
20
33.7613983972
10
63.7946267946
20
33.4551083972
0
LWPOLYLINE
5
1C3
100
AcDbEntity
8
name
6
ByLayer
62
7
370
-1
100
AcDbPolyline
90
4
70
0
43
0
10
61.9860217946
20
29.9215533972
10
61.8979937946
20
29.7920113972
10
61.5629397946
20
30.0391273972
10
61.5629397946
20
30.0391273972
0
LWPOLYLINE
5
1C4
100
AcDbEntity
8
name
6
ByLayer
62
7
370
-1
100
AcDbPolyline
90
18
70
0
43
0
10
8.30515364402
20
34.9245186849
10
8.30515364402
20
37.4953666849
10
11.889328644
20
37.4953666849
10
15.473503644
20
37.4953666849
10
15.473503644
20
34.9245186849
10
15.473503644
20
32.3536706849
10
15.041901644
20
32.3536706849
10
14.610299644
20
32.3536706849
10
14.610299644
20
32.6163846849
10
14.610299644
20
32.8790996849
10
11.889328644
20
32.8790996849
10
9.16835864402
20
32.8790996849
10
9.16835864402
20
32.6163846849
10
9.16835864402
20
32.3536706849
10
8.73675664402
20
32.3536706849
10
8.30515364402
20
32.3536706849
10
8.30515364402
20
34.9245186849
10
8.30515364402
20
34.9245186849
0
LWPOLYLINE
5
1C5
100
AcDbEntity
8
name
6
ByLayer
62
7
370
-1
100
AcDbPolyline
90
10
70
0
43
0
10
14.610299644
20
34.2489676849
10
14.610299644
20
34.8306916849
10
11.889328644
20
34.8306916849
10
9.16835864402
20
34.8306916849
10
9.16835864402
20
34.2489676849
10
9.16835864402
20
33.6672426849
10
11.889328644
20
33.6672426849
10
14.610299644
20
33.6672426849
10
14.610299644
20
34.2489676849
10
14.610299644
20
34.2489676849
0
LWPOLYLINE
5
1C6
100
AcDbEntity
8
name
6
ByLayer
62
7
370
-1
100
AcDbPolyline
90
10
70
0
43
0
10
14.610299644
20
36.1442636849
10
14.610299644
20
36.7072236849
10
11.889328644
20
36.7072236849
10
9.16835864402
20
36.7072236849
10
9.16835864402
20
36.1442636849
10
9.16835864402
20
35.5813046849
10
11.889328644
20
35.5813046849
10
14.610299644
20
35.5813046849
10
14.610299644
20
36.1442636849
10
14.610299644
20
36.1442636849
0
SPLINE
5
1C7
100
AcDbEntity
8
name
6
ByLayer
62
7
370
-1
100
AcDbSpline
210
0
220
0
230
1
70
8
71
3
72
8
73
4
74
0
42
1e-07
43
1e-07
40
0
40
0
40
0
40
0
40
1
40
1
40
1
40
1
10
9.65320564402
20
39.3437496849
30
0
10
9.61084564402
20
39.4521196849
30
0
10
9.47694164402
20
39.7303546849
30
0
10
9.35563964402
20
39.9620516849
30
0
0
LWPOLYLINE
5
1C8
100
AcDbEntity
8
name
6
ByLayer
62
7
370
-1
100
AcDbPolyline
90
5
70
0
43
0
10
6.91652064402
20
38.7526426849
10
6.91652064402
20
39.1467136849
10
8.32337164402
20
39.1467136849
10
9.73022264402
20
39.1467136849
10
9.65320564402
20
39.3437496849
0
SPLINE
5
1C9
100
AcDbEntity
8
name
6
ByLayer
62
7
370
-1
100
AcDbSpline
210
0
220
0
230
1
70
8
71
3
72
8
73
4
74
0
42
1e-07
43
1e-07
40
0
40
0
40
0
40
0
40
1
40
1
40
1
40
1
10
9.50304364402
20
40.4968626849
30
0
10
9.70541664402
20
40.5593126849
30
0
10
9.89745564402
20
40.6104086849
30
0
10
9.92979664402
20
40.6104086849
30
0
0
SPLINE
5
1CA
100
AcDbEntity
8
name
6
ByLayer
62
7
370
-1
100
AcDbSpline
210
0
220
0
230
1
70
8
71
3
72
8
73
4
74
0
42
1e-07
43
1e-07
40
0
40
0
40
0
40
0
40
1
40
1
40
1
40
1
10
9.92979664402
20
40.6104086849
30
0
10
10.034404644
20
40.6104086849
30
0
10
10.389774644
20
39.9614036849
30
0
10
10.556581644
20
39.4657246849
30
0
0
LWPOLYLINE
5
1CB
100
AcDbEntity
8
name
6
ByLayer
62
7
370
-1
100
AcDbPolyline
90
3
70
0
43
0
10
9.35563964402
20
39.9620516849
10
9.13509164402
20
40.3833166849
10
9.50304364402
20
40.4968626849
0
SPLINE
5
1CC
100
AcDbEntity
8
name
6
ByLayer
62
7
370
-1
100
AcDbSpline
210
0
220
0
230
1
70
8
71
3
72
8
73
4
74
0
42
1e-07
43
1e-07
40
0
40
0
40
0
40
0
40
1
40
1
40
1
40
1
10
13.506242644
20
39.8780596849
30
0
10
13.709356644
20
40.2808506849
30
0
10
13.891285644
20
40.6104066849
30
0
10
13.910528644
20
40.6104066849
30
0
0
SPLINE
5
1CD
100
AcDbEntity
8
name
6
ByLayer
62
7
370
-1
100
AcDbSpline
210
0
220
0
230
1
70
8
71
3
72
8
73
4
74
0
42
1e-07
43
1e-07
40
0
40
0
40
0
40
0
40
1
40
1
40
1
40
1
10
13.910528644
20
40.6104066849
30
0
10
13.929770644
20
40.6104066849
30
0
10
14.144768644
20
40.5487796849
30
0
10
14.388298644
20
40.4734586849
30
0
0
LWPOLYLINE
5
1CE
100
AcDbEntity
8
name
6
ByLayer
62
7
370
-1
100
AcDbPolyline
90
5
70
0
43
0
10
10.556581644
20
39.4657246849
10
10.657620644
20
39.1654796849
10
11.897282644
20
39.1555956849
10
13.136944644
20
39.1457126849
10
13.506242644
20
39.8780596849
0
SPLINE
5
1CF
100
AcDbEntity
8
name
6
ByLayer
62
7
370
-1
100
AcDbSpline
210
0
220
0
230
1
70
8
71
3
72
8
73
4
74
0
42
1e-07
43
1e-07
40
0
40
0
40
0
40
0
40
1
40
1
40
1
40
1
10
14.738165644
20
40.1531516849
30
0
10
14.687062644
20
40.0523046849
30
0
10
14.520096644
20
39.7845996849
30
0
10
14.367129644
20
39.5582526849
30
0
0
LWPOLYLINE
5
1D0
100
AcDbEntity
8
name
6
ByLayer
62
7
370
-1
100
AcDbPolyline
90
3
70
0
43
0
10
14.388298644
20
40.4734586849
10
14.831080644
20
40.3365096849
10
14.738165644
20
40.1531516849
0
LWPOLYLINE
5
1D1
100
AcDbEntity
8
name
6
ByLayer
62
7
370
-1
100
AcDbPolyline
90
10
70
0
43
0
10
14.367129644
20
39.5582526849
10
14.089006644
20
39.1467116849
10
15.550633644
20
39.1467116849
10
17.012259644
20
39.1467116849
10
17.012259644
20
38.7526406849
10
17.012259644
20
38.3585686849
10
11.964389644
20
38.3585686849
10
6.91652064402
20
38.3585686849
10
6.91652064402
20
38.7526406849
10
6.91652064402
20
38.7526426849
0
SPLINE
5
1D2
100
AcDbEntity
8
name
6
ByLayer
62
7
370
-1
100
AcDbSpline
210
0
220
0
230
1
70
8
71
3
72
8
73
4
74
0
42
1e-07
43
1e-07
40
0
40
0
40
0
40
0
40
1
40
1
40
1
40
1
10
11.268409644
20
41.9754896849
30
0
10
11.164291644
20
42.1379926849
30
0
10
11.084072644
20
42.2753706849
30
0
10
11.090144644
20
42.2807736849
30
0
0
SPLINE
5
1D3
100
AcDbEntity
8
name
6
ByLayer
62
7
370
-1
100
AcDbSpline
210
0
220
0
230
1
70
8
71
3
72
8
73
4
74
0
42
1e-07
43
1e-07
40
0
40
0
40
0
40
0
40
1
40
1
40
1
40
1
10
11.090144644
20
42.2807736849
30
0
10
11.096218644
20
42.2861786849
30
0
10
11.285739644
20
42.3427976849
30
0
10
11.511304644
20
42.4065976849
30
0
0
SPLINE
5
1D4
100
AcDbEntity
8
name
6
ByLayer
62
7
370
-1
100
AcDbSpline
210
0
220
0
230
1
70
8
71
3
72
8
73
4
74
0
42
1e-07
43
1e-07
40
0
40
0
40
0
40
0
40
1
40
1
40
1
40
1
10
11.511304644
20
42.4065976849
30
0
10
11.825537644
20
42.4954766849
30
0
10
11.933514644
20
42.5125636849
30
0
10
11.973134644
20
42.4796826849
30
0
0
SPLINE
5
1D5
100
AcDbEntity
8
name
6
ByLayer
62
7
370
-1
100
AcDbSpline
210
0
220
0
230
1
70
8
71
3
72
8
73
4
74
0
42
1e-07
43
1e-07
40
0
40
0
40
0
40
0
40
1
40
1
40
1
40
1
10
11.973134644
20
42.4796826849
30
0
10
12.046114644
20
42.4191136849
30
0
10
12.303898644
20
41.9701496849
30
0
10
12.362239644
20
41.8020056849
30
0
0
LWPOLYLINE
5
1D6
100
AcDbEntity
8
name
6
ByLayer
62
7
370
-1
100
AcDbPolyline
90
5
70
0
43
0
10
7.51701064402
20
41.2480966849
10
7.51701064402
20
41.6606026849
10
9.48736264402
20
41.6703166849
10
11.457714644
20
41.6800306849
10
11.268409644
20
41.9754896849
0
LWPOLYLINE
5
1D7
100
AcDbEntity
8
name
6
ByLayer
62
7
370
-1
100
AcDbPolyline
90
10
70
0
43
0
10
12.362239644
20
41.8020056849
10
12.411071644
20
41.6612656849
10
14.392654644
20
41.6612656849
10
16.374238644
20
41.6612656849
10
16.374238644
20
41.2484286849
10
16.374238644
20
40.8355916849
10
11.945624644
20
40.8355916849
10
7.51701064402
20
40.8355916849
10
7.51701064402
20
41.2480966849
10
7.51701064402
20
41.2480966849
0
SPLINE
5
1D8
100
AcDbEntity
8
name
6
ByLayer
62
7
370
-1
100
AcDbSpline
210
0
220
0
230
1
70
8
71
3
72
8
73
4
74
0
42
1e-07
43
1e-07
40
0
40
0
40
0
40
0
40
1
40
1
40
1
40
1
10
16.129891644
20
44.0913736849
30
0
10
15.987587644
20
44.4706216849
30
0
10
15.626498644
20
45.1886296849
30
0
10
15.382995644
20
45.5765386849
30
0
0
SPLINE
5
1D9
100
AcDbEntity
8
name
6
ByLayer
62
7
370
-1
100
AcDbSpline
210
0
220
0
230
1
70
8
71
3
72
8
73
4
74
0
42
1e-07
43
1e-07
40
0
40
0
40
0
40
0
40
1
40
1
40
1
40
1
10
15.382995644
20
45.5765386849
30
0
10
15.242893644
20
45.7997266849
30
0
10
15.134165644
20
45.9872546849
30
0
10
15.141378644
20
45.9932676849
30
0
0
SPLINE
5
1DA
100
AcDbEntity
8
name
6
ByLayer
62
7
370
-1
100
AcDbSpline
210
0
220
0
230
1
70
8
71
3
72
8
73
4
74
0
42
1e-07
43
1e-07
40
0
40
0
40
0
40
0
40
1
40
1
40
1
40
1
10
15.141378644
20
45.9932676849
30
0
10
15.148592644
20
45.9992816849
30
0
10
15.314728644
20
46.0743236849
30
0
10
15.510572644
20
46.1600296849
30
0
0
LWPOLYLINE
5
1DB
100
AcDbEntity
8
name
6
ByLayer
62
7
370
-1
100
AcDbPolyline
90
138
70
0
43
0
10
7.66713364402
20
46.8780226849
10
7.66713364402
20
47.2157986849
10
11.363899644
20
47.2157986849
10
15.060666644
20
47.2157986849
10
15.060666644
20
47.4597476849
10
15.060666644
20
47.7036966849
10
11.438961644
20
47.7036966849
10
7.81725564402
20
47.7036966849
10
7.81725564402
20
48.0227066849
10
7.81725564402
20
48.3417166849
10
11.438961644
20
48.3417166849
10
15.060666644
20
48.3417166849
10
15.060666644
20
48.5856666849
10
15.060666644
20
48.8296156849
10
11.326369644
20
48.8296156849
10
7.59207264402
20
48.8296156849
10
7.59207264402
20
49.1861556849
10
7.59207264402
20
49.5426966849
10
8.38021564402
20
49.5426966849
10
9.16835864402
20
49.5426966849
10
9.16835864402
20
49.8429426849
10
9.16835864402
20
50.1431876849
10
8.09873564402
20
50.1431876849
10
7.02911264402
20
50.1431876849
10
7.02911264402
20
50.4991436849
10
7.02911264402
20
50.8550996849
10
8.08935264402
20
50.8650686849
10
9.14959364402
20
50.8750366849
10
9.16069064402
20
51.1283676849
10
9.17178864402
20
51.3816996849
10
8.32563464402
20
51.3816996849
10
7.47948064402
20
51.3816996849
10
7.47948064402
20
51.7007096849
10
7.47948064402
20
52.0197206849
10
8.32391964402
20
52.0197206849
10
9.16835864402
20
52.0197206849
10
9.16835864402
20
52.2824346849
10
9.16835864402
20
52.5451496849
10
8.21132764402
20
52.5451496849
10
7.25429664402
20
52.5451496849
10
7.25429664402
20
52.9016896849
10
7.25429664402
20
53.2582306849
10
8.21132764402
20
53.2582306849
10
9.16835864402
20
53.2582306849
10
9.16835864402
20
53.5021796849
10
9.16835864402
20
53.7461296849
10
9.54366464402
20
53.7461296849
10
9.91897164402
20
53.7461296849
10
9.91897164402
20
53.5021796849
10
9.91897164402
20
53.2582306849
10
10.819706644
20
53.2582306849
10
11.720441644
20
53.2582306849
10
11.720441644
20
52.9016896849
10
11.720441644
20
52.5451496849
10
10.819706644
20
52.5451496849
10
9.91897164402
20
52.5451496849
10
9.91897164402
20
52.2824346849
10
9.91897164402
20
52.0197206849
10
10.707114644
20
52.0197206849
10
11.495257644
20
52.0197206849
10
11.495257644
20
51.7007096849
10
11.495257644
20
51.3816996849
10
10.707114644
20
51.3816996849
10
9.91897164402
20
51.3816996849
10
9.91897164402
20
51.1189856849
10
9.91897164402
20
50.8562706849
10
10.838471644
20
50.8562706849
10
11.757971644
20
50.8562706849
10
11.757971644
20
50.4997296849
10
11.757971644
20
50.1431896849
10
10.838471644
20
50.1431896849
10
9.91897164402
20
50.1431896849
10
9.91897164402
20
49.8429446849
10
9.91897164402
20
49.5426986849
10
11.983155644
20
49.5426986849
10
14.047339644
20
49.5426986849
10
14.047339644
20
49.8429446849
10
14.047339644
20
50.1431896849
10
13.071543644
20
50.1431896849
10
12.095747644
20
50.1431896849
10
12.095747644
20
50.4997296849
10
12.095747644
20
50.8562706849
10
13.071543644
20
50.8562706849
10
14.047339644
20
50.8562706849
10
14.047339644
20
51.1189856849
10
14.047339644
20
51.3816996849
10
13.202900644
20
51.3816996849
10
12.358461644
20
51.3816996849
10
12.358461644
20
51.7007096849
10
12.358461644
20
52.0197206849
10
13.202900644
20
52.0197206849
10
14.047339644
20
52.0197206849
10
14.047339644
20
52.2824346849
10
14.047339644
20
52.5451496849
10
13.127839644
20
52.5451496849
10
12.208339644
20
52.5451496849
10
12.208339644
20
52.9016896849
10
12.208339644
20
53.2582306849
10
13.127839644
20
53.2582306849
10
14.047339644
20
53.2582306849
10
14.047339644
20
53.5021796849
10
14.047339644
20
53.7461296849
10
14.441411644
20
53.7461296849
10
14.835482644
20
53.7461296849
10
14.835482644
20
53.5021796849
10
14.835482644
20
53.2582306849
10
15.792514644
20
53.2582306849
10
16.749544644
20
53.2582306849
10
16.749544644
20
52.9016896849
10
16.749544644
20
52.5451496849
10
15.792514644
20
52.5451496849
10
14.835482644
20
52.5451496849
10
14.835482644
20
52.2824346849
10
14.835482644
20
52.0197206849
10
15.642391644
20
52.0197206849
10
16.449299644
20
52.0197206849
10
16.449299644
20
51.7007096849
10
16.449299644
20
51.3816996849
10
15.642391644
20
51.3816996849
10
14.835482644
20
51.3816996849
10
14.835482644
20
51.1189856849
10
14.835482644
20
50.8562706849
10
15.830044644
20
50.8562706849
10
16.824606644
20
50.8562706849
10
16.824606644
20
50.4997296849
10
16.824606644
20
50.1431896849
10
15.830044644
20
50.1431896849
10
14.835482644
20
50.1431896849
10
14.835482644
20
49.8429446849
10
14.835482644
20
49.5426986849
10
15.342146644
20
49.5426986849
10
15.848809644
20
49.5426986849
10
15.848809644
20
48.0414736849
10
15.848809644
20
46.5402486849
10
11.757971644
20
46.5402486849
10
7.66713364402
20
46.5402486849
10
7.66713364402
20
46.8780246849
10
7.66713364402
20
46.8780226849
0
SPLINE
5
1DC
100
AcDbEntity
8
name
6
ByLayer
62
7
370
-1
100
AcDbSpline
210
0
220
0
230
1
70
8
71
3
72
8
73
4
74
0
42
1e-07
43
1e-07
40
0
40
0
40
0
40
0
40
1
40
1
40
1
40
1
10
15.932650644
20
46.2310176849
30
0
10
16.222203644
20
45.8587926849
30
0
10
16.638216644
20
45.1562926849
30
0
10
16.900352644
20
44.5969096849
30
0
0
LWPOLYLINE
5
1DD
100
AcDbEntity
8
name
6
ByLayer
62
7
370
-1
100
AcDbPolyline
90
3
70
0
43
0
10
15.510572644
20
46.1600296849
10
15.866651644
20
46.3158586849
10
15.932650644
20
46.2310176849
0
SPLINE
5
1DE
100
AcDbEntity
8
name
6
ByLayer
62
7
370
-1
100
AcDbSpline
210
0
220
0
230
1
70
8
71
3
72
8
73
4
74
0
42
1e-07
43
1e-07
40
0
40
0
40
0
40
0
40
1
40
1
40
1
40
1
10
16.888777644
20
44.2153766849
30
0
10
16.801878644
20
44.1773856849
30
0
10
16.615205644
20
44.0938326849
30
0
10
16.473949644
20
44.0297026849
30
0
0
SPLINE
5
1DF
100
AcDbEntity
8
name
6
ByLayer
62
7
370
-1
100
AcDbSpline
210
0
220
0
230
1
70
8
71
3
72
8
73
4
74
0
42
1e-07
43
1e-07
40
0
40
0
40
0
40
0
40
1
40
1
40
1
40
1
10
16.473949644
20
44.0297026849
30
0
10
16.332692644
20
43.9655736849
30
0
10
16.212543644
20
43.9131036849
30
0
10
16.206950644
20
43.9131036849
30
0
0
SPLINE
5
1E0
100
AcDbEntity
8
name
6
ByLayer
62
7
370
-1
100
AcDbSpline
210
0
220
0
230
1
70
8
71
3
72
8
73
4
74
0
42
1e-07
43
1e-07
40
0
40
0
40
0
40
0
40
1
40
1
40
1
40
1
10
16.206950644
20
43.9131036849
30
0
10
16.201357644
20
43.9131036849
30
0
10
16.166681644
20
43.9933246849
30
0
10
16.129891644
20
44.0913736849
30
0
0
LWPOLYLINE
5
1E1
100
AcDbEntity
8
name
6
ByLayer
62
7
370
-1
100
AcDbPolyline
90
3
70
0
43
0
10
16.900352644
20
44.5969096849
10
17.046776644
20
44.2844506849
10
16.888777644
20
44.2153766849
0
SPLINE
5
1E2
100
AcDbEntity
8
name
6
ByLayer
62
7
370
-1
100
AcDbSpline
210
0
220
0
230
1
70
8
71
3
72
8
73
4
74
0
42
1e-07
43
1e-07
40
0
40
0
40
0
40
0
40
1
40
1
40
1
40
1
10
10.532966644
20
43.8018656849
30
0
10
9.83098664402
20
43.8595496849
30
0
10
9.60430264402
20
43.9529466849
30
0
10
9.46250664402
20
44.2429116849
30
0
0
SPLINE
5
1E3
100
AcDbEntity
8
name
6
ByLayer
62
7
370
-1
100
AcDbSpline
210
0
220
0
230
1
70
8
71
3
72
8
73
4
74
0
42
1e-07
43
1e-07
40
0
40
0
40
0
40
0
40
1
40
1
40
1
40
1
10
9.46250664402
20
44.2429116849
30
0
10
9.38171764402
20
44.4081216849
30
0
10
9.37509564402
20
44.4747526849
30
0
10
9.36194464402
20
45.2548226849
30
0
0
LWPOLYLINE
5
1E4
100
AcDbEntity
8
name
6
ByLayer
62
7
370
-1
100
AcDbPolyline
90
2
70
0
43
0
10
16.129891644
20
44.0913736849
10
16.129891644
20
44.0913736849
0
SPLINE
5
1E5
100
AcDbEntity
8
name
6
ByLayer
62
7
370
-1
100
AcDbSpline
210
0
220
0
230
1
70
8
71
3
72
8
73
4
74
0
42
1e-07
43
1e-07
40
0
40
0
40
0
40
0
40
1
40
1
40
1
40
1
10
10.219215644
20
45.4911556849
30
0
10
10.219215644
20
44.8736746849
30
0
10
10.242202644
20
44.7518236849
30
0
10
10.374238644
20
44.6693656849
30
0
0
SPLINE
5
1E6
100
AcDbEntity
8
name
6
ByLayer
62
7
370
-1
100
AcDbSpline
210
0
220
0
230
1
70
8
71
3
72
8
73
4
74
0
42
1e-07
43
1e-07
40
0
40
0
40
0
40
0
40
1
40
1
40
1
40
1
10
10.374238644
20
44.6693656849
30
0
10
10.486005644
20
44.5995656849
30
0
10
11.475424644
20
44.5400076849
30
0
10
12.114512644
20
44.5646096849
30
0
0
SPLINE
5
1E7
100
AcDbEntity
8
name
6
ByLayer
62
7
370
-1
100
AcDbSpline
210
0
220
0
230
1
70
8
71
3
72
8
73
4
74
0
42
1e-07
43
1e-07
40
0
40
0
40
0
40
0
40
1
40
1
40
1
40
1
10
12.114512644
20
44.5646096849
30
0
10
12.783504644
20
44.5903626849
30
0
10
13.770724644
20
44.6558676849
30
0
10
13.883622644
20
44.6819946849
30
0
0
SPLINE
5
1E8
100
AcDbEntity
8
name
6
ByLayer
62
7
370
-1
100
AcDbSpline
210
0
220
0
230
1
70
8
71
3
72
8
73
4
74
0
42
1e-07
43
1e-07
40
0
40
0
40
0
40
0
40
1
40
1
40
1
40
1
10
13.883622644
20
44.6819946849
30
0
10
13.987931644
20
44.7061336849
30
0
10
14.066074644
20
44.9040356849
30
0
10
14.126083644
20
45.2960376849
30
0
0
SPLINE
5
1E9
100
AcDbEntity
8
name
6
ByLayer
62
7
370
-1
100
AcDbSpline
210
0
220
0
230
1
70
8
71
3
72
8
73
4
74
0
42
1e-07
43
1e-07
40
0
40
0
40
0
40
0
40
1
40
1
40
1
40
1
10
14.126083644
20
45.2960376849
30
0
10
14.151997644
20
45.4653146849
30
0
10
14.182880644
20
45.5991796849
30
0
10
14.194713644
20
45.5935156849
30
0
0
SPLINE
5
1EA
100
AcDbEntity
8
name
6
ByLayer
62
7
370
-1
100
AcDbSpline
210
0
220
0
230
1
70
8
71
3
72
8
73
4
74
0
42
1e-07
43
1e-07
40
0
40
0
40
0
40
0
40
1
40
1
40
1
40
1
10
14.194713644
20
45.5935156849
30
0
10
14.324105644
20
45.5315746849
30
0
10
15.023135644
20
45.1424696849
30
0
10
15.023135644
20
45.1323856849
30
0
0
SPLINE
5
1EB
100
AcDbEntity
8
name
6
ByLayer
62
7
370
-1
100
AcDbSpline
210
0
220
0
230
1
70
8
71
3
72
8
73
4
74
0
42
1e-07
43
1e-07
40
0
40
0
40
0
40
0
40
1
40
1
40
1
40
1
10
15.023135644
20
45.1323856849
30
0
10
15.023135644
20
45.0529306849
30
0
10
14.896278644
20
44.5533426849
30
0
10
14.833490644
20
44.3855276849
30
0
0
SPLINE
5
1EC
100
AcDbEntity
8
name
6
ByLayer
62
7
370
-1
100
AcDbSpline
210
0
220
0
230
1
70
8
71
3
72
8
73
4
74
0
42
1e-07
43
1e-07
40
0
40
0
40
0
40
0
40
1
40
1
40
1
40
1
10
14.833490644
20
44.3855276849
30
0
10
14.715784644
20
44.0709286849
30
0
10
14.574560644
20
43.9265886849
30
0
10
14.336007644
20
43.8770646849
30
0
0
SPLINE
5
1ED
100
AcDbEntity
8
name
6
ByLayer
62
7
370
-1
100
AcDbSpline
210
0
220
0
230
1
70
8
71
3
72
8
73
4
74
0
42
1e-07
43
1e-07
40
0
40
0
40
0
40
0
40
1
40
1
40
1
40
1
10
14.336007644
20
43.8770646849
30
0
10
13.852274644
20
43.7766426849
30
0
10
11.424193644
20
43.7286306849
30
0
10
10.532966644
20
43.8018656849
30
0
0
LWPOLYLINE
5
1EE
100
AcDbEntity
8
name
6
ByLayer
62
7
370
-1
100
AcDbPolyline
90
5
70
0
43
0
10
9.36194464402
20
45.2548226849
10
9.34786664402
20
46.0898796849
10
9.78354164402
20
46.0898796849
10
10.219215644
20
46.0898796849
10
10.219215644
20
45.4911556849
0
SPLINE
5
1EF
100
AcDbEntity
8
name
6
ByLayer
62
7
370
-1
100
AcDbSpline
210
0
220
0
230
1
70
8
71
3
72
8
73
4
74
0
42
1e-07
43
1e-07
40
0
40
0
40
0
40
0
40
1
40
1
40
1
40
1
10
11.741216644
20
45.2808016849
30
0
10
11.686742644
20
45.4301616849
30
0
10
11.574991644
20
45.6673296849
30
0
10
11.492881644
20
45.8078406849
30
0
0
SPLINE
5
1F0
100
AcDbEntity
8
name
6
ByLayer
62
7
370
-1
100
AcDbSpline
210
0
220
0
230
1
70
8
71
3
72
8
73
4
74
0
42
1e-07
43
1e-07
40
0
40
0
40
0
40
0
40
1
40
1
40
1
40
1
10
11.492881644
20
45.8078406849
30
0
10
11.410771644
20
45.9483516849
30
0
10
11.348160644
20
46.0674086849
30
0
10
11.353745644
20
46.0724126849
30
0
0
SPLINE
5
1F1
100
AcDbEntity
8
name
6
ByLayer
62
7
370
-1
100
AcDbSpline
210
0
220
0
230
1
70
8
71
3
72
8
73
4
74
0
42
1e-07
43
1e-07
40
0
40
0
40
0
40
0
40
1
40
1
40
1
40
1
10
11.353745644
20
46.0724126849
30
0
10
11.366795644
20
46.0841016849
30
0
10
12.090821644
20
46.3150636849
30
0
10
12.114420644
20
46.3150636849
30
0
0
SPLINE
5
1F2
100
AcDbEntity
8
name
6
ByLayer
62
7
370
-1
100
AcDbSpline
210
0
220
0
230
1
70
8
71
3
72
8
73
4
74
0
42
1e-07
43
1e-07
40
0
40
0
40
0
40
0
40
1
40
1
40
1
40
1
10
12.114420644
20
46.3150636849
30
0
10
12.178248644
20
46.3150636849
30
0
10
12.603623644
20
45.3050916849
30
0
10
12.557353644
20
45.2634036849
30
0
0
SPLINE
5
1F3
100
AcDbEntity
8
name
6
ByLayer
62
7
370
-1
100
AcDbSpline
210
0
220
0
230
1
70
8
71
3
72
8
73
4
74
0
42
1e-07
43
1e-07
40
0
40
0
40
0
40
0
40
1
40
1
40
1
40
1
10
12.557353644
20
45.2634036849
30
0
10
12.540852644
20
45.2485356849
30
0
10
12.372754644
20
45.1852656849
30
0
10
12.183805644
20
45.1228036849
30
0
0
LWPOLYLINE
5
1F4
100
AcDbEntity
8
name
6
ByLayer
62
7
370
-1
100
AcDbPolyline
90
3
70
0
43
0
10
10.532966644
20
43.8018656849
10
10.532966644
20
43.8018656849
10
10.532966644
20
43.8018656849
0
LWPOLYLINE
5
1F5
100
AcDbEntity
8
name
6
ByLayer
62
7
370
-1
100
AcDbPolyline
90
5
70
0
43
0
10
12.183805644
20
45.1228036849
10
11.840261644
20
45.0092376849
10
11.741216644
20
45.2808016849
10
11.741216644
20
45.2808016849
10
11.741216644
20
45.2808016849
0
SPLINE
5
1F6
100
AcDbEntity
8
name
6
ByLayer
62
7
370
-1
100
AcDbSpline
210
0
220
0
230
1
70
8
71
3
72
8
73
4
74
0
42
1e-07
43
1e-07
40
0
40
0
40
0
40
0
40
1
40
1
40
1
40
1
10
7.20021064402
20
44.7696426849
30
0
10
7.47550164402
20
45.0869056849
30
0
10
7.88823664402
20
45.6646486849
30
0
10
8.09645664402
20
46.0242006849
30
0
0
SPLINE
5
1F7
100
AcDbEntity
8
name
6
ByLayer
62
7
370
-1
100
AcDbSpline
210
0
220
0
230
1
70
8
71
3
72
8
73
4
74
0
42
1e-07
43
1e-07
40
0
40
0
40
0
40
0
40
1
40
1
40
1
40
1
10
8.09645664402
20
46.0242006849
30
0
10
8.15323764402
20
46.1222496849
30
0
10
8.21315764402
20
46.2024716849
30
0
10
8.22961164402
20
46.2024716849
30
0
0
SPLINE
5
1F8
100
AcDbEntity
8
name
6
ByLayer
62
7
370
-1
100
AcDbSpline
210
0
220
0
230
1
70
8
71
3
72
8
73
4
74
0
42
1e-07
43
1e-07
40
0
40
0
40
0
40
0
40
1
40
1
40
1
40
1
10
8.22961164402
20
46.2024716849
30
0
10
8.28077164402
20
46.2024716849
30
0
10
8.86811364402
20
45.8618246849
30
0
10
8.86811364402
20
45.8321526849
30
0
0
SPLINE
5
1F9
100
AcDbEntity
8
name
6
ByLayer
62
7
370
-1
100
AcDbSpline
210
0
220
0
230
1
70
8
71
3
72
8
73
4
74
0
42
1e-07
43
1e-07
40
0
40
0
40
0
40
0
40
1
40
1
40
1
40
1
10
8.86811364402
20
45.8321526849
30
0
10
8.86811364402
20
45.8167126849
30
0
10
8.74256064402
20
45.5889356849
30
0
10
8.58910764402
20
45.3259836849
30
0
0
SPLINE
5
1FA
100
AcDbEntity
8
name
6
ByLayer
62
7
370
-1
100
AcDbSpline
210
0
220
0
230
1
70
8
71
3
72
8
73
4
74
0
42
1e-07
43
1e-07
40
0
40
0
40
0
40
0
40
1
40
1
40
1
40
1
10
8.58910764402
20
45.3259836849
30
0
10
8.27659864402
20
44.7904776849
30
0
10
7.96875164402
20
44.3489126849
30
0
10
7.70952764402
20
44.0643436849
30
0
0
LWPOLYLINE
5
1FB
100
AcDbEntity
8
name
6
ByLayer
62
7
370
-1
100
AcDbPolyline
90
3
70
0
43
0
10
7.22669764402
20
44.1587856849
10
6.91761964402
20
44.4439666849
10
7.20021064402
20
44.7696426849
0
LWPOLYLINE
5
1FC
100
AcDbEntity
8
name
6
ByLayer
62
7
370
-1
100
AcDbPolyline
90
4
70
0
43
0
10
7.70952764402
20
44.0643436849
10
7.53577664402
20
43.8736046849
10
7.22669764402
20
44.1587856849
10
7.22669764402
20
44.1587856849
0
ENDSEC
0
SECTION
2
OBJECTS
0
DICTIONARY
5
C
330
0
100
AcDbDictionary
281
1
3
ACAD_GROUP
350
D
0
DICTIONARY
5
D
330
C
100
AcDbDictionary
281
1
0
ENDSEC
0
EOF
