999
dxfrw 0.5.10
0
SECTION
2
HEADER
9
$ACADVER
1
AC1021
9
$HANDSEED
5
20000
9
$DWGCODEPAGE
3
ANSI_1252
9
$INSBASE
10
0
20
0
30
0
9
$EXTMIN
10
2.5
20
2.5
30
0
9
$EXTMAX
10
77.5
20
77.5
30
0
9
$LIMMIN
10
0
20
0
9
$LIMMAX
10
420
20
297
9
$ORTHOMODE
70
0
9
$LTSCALE
40
1
9
$TEXTSTYLE
7
STANDARD
9
$CLAYER
8
name
9
$DIMASZ
40
2.5
9
$DIMLFAC
40
1
9
$DIMSCALE
40
1
9
$DIMEXO
40
0.625
9
$DIMEXE
40
1.25
9
$DIMTXT
40
2.5
9
$DIMTSZ
40
0
9
$DIMAUNIT
70
0
9
$DIMADEC
70
0
9
$DIMLUNIT
70
2
9
$DIMSTYLE
2
Standard
9
$DIMGAP
40
0.625
9
$DIMTIH
70
0
9
$LUNITS
70
2
9
$LUPREC
70
4
9
$AUNITS
70
0
9
$AUPREC
70
2
9
$SPLINESEGS
70
8
9
$GRIDMODE
70
0
9
$SNAPSTYLE
70
0
9
$PINSBASE
10
0
20
0
30
0
9
$PLIMMIN
10
0
20
0
9
$PLIMMAX
10
210
20
297
9
$INSUNITS
70
4
9
$PSVPSCALE
40
1
0
ENDSEC
0
SECTION
2
CLASSES
0
ENDSEC
0
SECTION
2
TABLES
0
TABLE
2
VPORT
5
8
330
0
100
AcDbSymbolTable
70
1
0
VPORT
5
31
330
2
100
AcDbSymbolTableRecord
100
AcDbViewportTableRecord
2
*ACTIVE
70
0
10
0
20
0
11
1
21
1
12
59.8675271739
22
39.2323369565
13
0
23
0
14
10
24
10
15
10
25
10
16
0
26
0
36
1
17
0
27
0
37
0
40
77.0380434783
41
2.06878306878
42
50
43
0
44
0
50
0
51
0
71
0
72
100
73
1
74
3
75
0
76
0
77
0
78
0
281
0
65
1
110
0
120
0
130
0
111
1
121
0
131
0
112
0
122
1
132
0
79
0
146
0
348
10020
60
7
61
5
292
1
282
1
141
0
142
0
63
250
421
3358443
0
ENDTAB
0
TABLE
2
LTYPE
5
5
330
0
100
AcDbSymbolTable
70
4
0
LTYPE
5
14
330
5
100
AcDbSymbolTableRecord
100
AcDbLinetypeTableRecord
2
ByBlock
70
0
3

72
65
73
0
40
0
0
LTYPE
5
15
330
5
100
AcDbSymbolTableRecord
100
AcDbLinetypeTableRecord
2
ByLayer
70
0
3

72
65
73
0
40
0
0
LTYPE
5
16
330
5
100
AcDbSymbolTableRecord
100
AcDbLinetypeTableRecord
2
Continuous
70
0
3
Solid line
72
65
73
0
40
0
0
LTYPE
5
32
330
5
100
AcDbSymbolTableRecord
100
AcDbLinetypeTableRecord
2
DOT
70
0
3
Dot . . . . . . . . . . . . . . . . . . . . . .
72
65
73
2
40
6.35
49
0
74
0
49
-6.35
74
0
0
LTYPE
5
33
330
5
100
AcDbSymbolTableRecord
100
AcDbLinetypeTableRecord
2
DOT2
70
0
3
Dot (.5x) .....................................
72
65
73
2
40
3.175
49
0
74
0
49
-3.175
74
0
0
LTYPE
5
34
330
5
100
AcDbSymbolTableRecord
100
AcDbLinetypeTableRecord
2
DOTX2
70
0
3
Dot (2x) .  .  .  .  .  .  .  .  .  .  .  .  .
72
65
73
2
40
12.7
49
0
74
0
49
-12.7
74
0
0
LTYPE
5
35
330
5
100
AcDbSymbolTableRecord
100
AcDbLinetypeTableRecord
2
DASHED
70
0
3
Dot . . . . . . . . . . . . . . . . . . . . . .
72
65
73
2
40
19.05
49
12.7
74
0
49
-6.35
74
0
0
LTYPE
5
36
330
5
100
AcDbSymbolTableRecord
100
AcDbLinetypeTableRecord
2
DASHED2
70
0
3
Dashed (.5x) _ _ _ _ _ _ _ _ _ _ _ _ _ _ _ _ _
72
65
73
2
40
9.525
49
6.35
74
0
49
-3.175
74
0
0
LTYPE
5
37
330
5
100
AcDbSymbolTableRecord
100
AcDbLinetypeTableRecord
2
DASHEDX2
70
0
3
Dashed (2x) ____  ____  ____  ____  ____  ___
72
65
73
2
40
38.1
49
25.4
74
0
49
-12.7
74
0
0
LTYPE
5
38
330
5
100
AcDbSymbolTableRecord
100
AcDbLinetypeTableRecord
2
DASHDOT
70
0
3
Dash dot __ . __ . __ . __ . __ . __ . __ . __
72
65
73
4
40
25.4
49
12.7
74
0
49
-6.35
74
0
49
0
74
0
49
-6.35
74
0
0
LTYPE
5
39
330
5
100
AcDbSymbolTableRecord
100
AcDbLinetypeTableRecord
2
DASHDOT2
70
0
3
Dash dot (.5x) _._._._._._._._._._._._._._._.
72
65
73
4
40
12.7
49
6.35
74
0
49
-3.175
74
0
49
0
74
0
49
-3.175
74
0
0
LTYPE
5
3A
330
5
100
AcDbSymbolTableRecord
100
AcDbLinetypeTableRecord
2
DASHDOTX2
70
0
3
Dash dot (2x) ____  .  ____  .  ____  .  ___
72
65
73
4
40
50.8
49
25.4
74
0
49
-12.7
74
0
49
0
74
0
49
-12.7
74
0
0
LTYPE
5
3B
330
5
100
AcDbSymbolTableRecord
100
AcDbLinetypeTableRecord
2
DIVIDE
70
0
3
Divide ____ . . ____ . . ____ . . ____ . . ____
72
65
73
6
40
31.75
49
12.7
74
0
49
-6.35
74
0
49
0
74
0
49
-6.35
74
0
49
0
74
0
49
-6.35
74
0
0
LTYPE
5
3C
330
5
100
AcDbSymbolTableRecord
100
AcDbLinetypeTableRecord
2
DIVIDE2
70
0
3
Divide (.5x) __..__..__..__..__..__..__..__.._
72
65
73
6
40
15.875
49
6.35
74
0
49
-3.175
74
0
49
0
74
0
49
-3.175
74
0
49
0
74
0
49
-3.175
74
0
0
LTYPE
5
3D
330
5
100
AcDbSymbolTableRecord
100
AcDbLinetypeTableRecord
2
DIVIDEX2
70
0
3
Divide (2x) ________  .  .  ________  .  .  _
72
65
73
6
40
63.5
49
25.4
74
0
49
-12.7
74
0
49
0
74
0
49
-12.7
74
0
49
0
74
0
49
-12.7
74
0
0
LTYPE
5
3E
330
5
100
AcDbSymbolTableRecord
100
AcDbLinetypeTableRecord
2
BORDER
70
0
3
Border __ __ . __ __ . __ __ . __ __ . __ __ .
72
65
73
6
40
44.45
49
12.7
74
0
49
-6.35
74
0
49
12.7
74
0
49
-6.35
74
0
49
0
74
0
49
-6.35
74
0
0
LTYPE
5
3F
330
5
100
AcDbSymbolTableRecord
100
AcDbLinetypeTableRecord
2
BORDER2
70
0
3
Border (.5x) __.__.__.__.__.__.__.__.__.__.__.
72
65
73
6
40
22.225
49
6.35
74
0
49
-3.175
74
0
49
6.35
74
0
49
-3.175
74
0
49
0
74
0
49
-3.175
74
0
0
LTYPE
5
40
330
5
100
AcDbSymbolTableRecord
100
AcDbLinetypeTableRecord
2
BORDERX2
70
0
3
Border (2x) ____  ____  .  ____  ____  .  ___
72
65
73
6
40
88.9
49
25.4
74
0
49
-12.7
74
0
49
25.4
74
0
49
-12.7
74
0
49
0
74
0
49
-12.7
74
0
0
LTYPE
5
41
330
5
100
AcDbSymbolTableRecord
100
AcDbLinetypeTableRecord
2
CENTER
70
0
3
Center ____ _ ____ _ ____ _ ____ _ ____ _ ____
72
65
73
4
40
50.8
49
31.75
74
0
49
-6.35
74
0
49
6.35
74
0
49
-6.35
74
0
0
LTYPE
5
42
330
5
100
AcDbSymbolTableRecord
100
AcDbLinetypeTableRecord
2
CENTER2
70
0
3
Center (.5x) ___ _ ___ _ ___ _ ___ _ ___ _ ___
72
65
73
4
40
28.575
49
19.05
74
0
49
-3.175
74
0
49
3.175
74
0
49
-3.175
74
0
0
LTYPE
5
43
330
5
100
AcDbSymbolTableRecord
100
AcDbLinetypeTableRecord
2
CENTERX2
70
0
3
Center (2x) ________  __  ________  __  _____
72
65
73
4
40
101.6
49
63.5
74
0
49
-12.7
74
0
49
12.7
74
0
49
-12.7
74
0
0
ENDTAB
0
TABLE
2
LAYER
5
2
330
0
100
AcDbSymbolTable
70
1
0
LAYER
5
10
330
2
100
AcDbSymbolTableRecord
100
AcDbLayerTableRecord
2
0
70
0
62
7
6
CONTINUOUS
370
-3
390
F
0
LAYER
5
44
330
2
100
AcDbSymbolTableRecord
100
AcDbLayerTableRecord
2
komachi
70
0
62
7
6
CONTINUOUS
370
0
390
F
0
LAYER
5
45
330
2
100
AcDbSymbolTableRecord
100
AcDbLayerTableRecord
2
name
70
0
62
7
6
CONTINUOUS
370
-3
390
F
0
ENDTAB
0
TABLE
2
STYLE
5
3
330
0
100
AcDbSymbolTable
70
3
0
STYLE
5
46
330
2
100
AcDbSymbolTableRecord
100
AcDbTextStyleTableRecord
2
Standard
70
0
40
0
41
1
50
0
71
0
42
1
3
txt
4

0
ENDTAB
0
TABLE
2
VIEW
5
6
330
0
100
AcDbSymbolTable
70
0
0
ENDTAB
0
TABLE
2
UCS
5
7
330
0
100
AcDbSymbolTable
70
0
0
ENDTAB
0
TABLE
2
APPID
5
9
330
0
100
AcDbSymbolTable
70
1
0
APPID
5
12
330
9
100
AcDbSymbolTableRecord
100
AcDbRegAppTableRecord
2
ACAD
70
0
0
ENDTAB
0
TABLE
2
DIMSTYLE
5
A
330
0
100
AcDbSymbolTable
70
1
100
AcDbDimStyleTable
71
1
0
DIMSTYLE
105
47
330
A
100
AcDbSymbolTableRecord
100
AcDbDimStyleTableRecord
2
Standard
70
0
40
1
41
2.5
42
0.625
43
0.38
44
1.25
45
0
46
0
47
0
48
0
140
2.5
141
0.09
142
0
143
25.4
144
1
145
0
146
1
147
0.625
148
0
71
0
72
0
73
0
74
1
75
0
76
0
77
0
78
0
79
0
170
0
171
2
172
0
173
0
174
0
175
0
176
0
177
0
178
0
179
0
271
4
272
4
273
2
274
2
275
0
276
0
277
2
278
46
279
0
280
0
281
0
282
0
283
1
284
0
285
0
286
0
288
0
289
3
340
Standard
341

371
-2
372
-2
0
ENDTAB
0
TABLE
2
BLOCK_RECORD
5
1
330
0
100
AcDbSymbolTable
70
2
0
BLOCK_RECORD
5
1F
330
1
100
AcDbSymbolTableRecord
100
AcDbBlockTableRecord
2
*Model_Space
70
0
280
1
281
0
0
BLOCK_RECORD
5
1E
330
1
100
AcDbSymbolTableRecord
100
AcDbBlockTableRecord
2
*Paper_Space
70
0
280
1
281
0
0
ENDTAB
0
ENDSEC
0
SECTION
2
BLOCKS
0
BLOCK
5
20
330
1F
100
AcDbEntity
8
0
100
AcDbBlockBegin
2
*Model_Space
70
0
10
0
20
0
30
0
3
*Model_Space
1

0
ENDBLK
5
21
330
1F
100
AcDbEntity
8
0
100
AcDbBlockEnd
0
BLOCK
5
1C
330
1B
100
AcDbEntity
8
0
100
AcDbBlockBegin
2
*Paper_Space
70
0
10
0
20
0
30
0
3
*Paper_Space
1

0
ENDBLK
5
1D
330
1F
100
AcDbEntity
8
0
100
AcDbBlockEnd
0
ENDSEC
0
SECTION
2
ENTITIES
0
CIRCLE
5
48
100
AcDbEntity
8
0
6
ByLayer
62
256
370
-1
100
AcDbCircle
10
40
20
40
40
37.5
0
SPLINE
5
49
100
AcDbEntity
8
komachi
6
ByLayer
62
7
370
-1
100
AcDbSpline
210
0
220
0
230
1
70
8
71
3
72
8
73
4
74
0
42
1e-07
43
1e-07
40
0
40
0
40
0
40
0
40
1
40
1
40
1
40
1
10
42.9562111502
20
65.3749677644
30
0
10
42.1660068822
20
65.3769652984
30
0
10
41.9581238782
20
65.3458544144
30
0
10
41.3252666462
20
65.1377776784
30
0
0
SPLINE
5
4A
100
AcDbEntity
8
komachi
6
ByLayer
62
7
370
-1
100
AcDbSpline
210
0
220
0
230
1
70
8
71
3
72
8
73
4
74
0
42
1e-07
43
1e-07
40
0
40
0
40
0
40
0
40
1
40
1
40
1
40
1
10
41.3252666462
20
65.1377776784
30
0
10
40.9262834462
20
65.0065963624
30
0
10
40.4642043042
20
64.8174318204
30
0
10
40.2988419042
20
64.7158731744
30
0
0
SPLINE
5
4B
100
AcDbEntity
8
komachi
6
ByLayer
62
7
370
-1
100
AcDbSpline
210
0
220
0
230
1
70
8
71
3
72
8
73
4
74
0
42
1e-07
43
1e-07
40
0
40
0
40
0
40
0
40
1
40
1
40
1
40
1
10
40.2988419042
20
64.7158731744
30
0
10
40.1334802182
20
64.6143138144
30
0
10
39.9760336982
20
64.5311587564
30
0
10
39.9483043182
20
64.5311587564
30
0
0
SPLINE
5
4C
100
AcDbEntity
8
komachi
6
ByLayer
62
7
370
-1
100
AcDbSpline
210
0
220
0
230
1
70
8
71
3
72
8
73
4
74
0
42
1e-07
43
1e-07
40
0
40
0
40
0
40
0
40
1
40
1
40
1
40
1
10
39.9483043182
20
64.5311587564
30
0
10
39.9205737482
20
64.5311587564
30
0
10
39.7903539522
20
64.4408158604
30
0
10
39.6607374862
20
64.3317511704
30
0
0
SPLINE
5
4D
100
AcDbEntity
8
komachi
6
ByLayer
62
7
370
-1
100
AcDbSpline
210
0
220
0
230
1
70
8
71
3
72
8
73
4
74
0
42
1e-07
43
1e-07
40
0
40
0
40
0
40
0
40
1
40
1
40
1
40
1
10
39.6607374862
20
64.3317511704
30
0
10
39.5311217342
20
64.2226862424
30
0
10
39.2904232902
20
64.1095779324
30
0
10
39.1254854822
20
64.0798676784
30
0
0
SPLINE
5
4E
100
AcDbEntity
8
komachi
6
ByLayer
62
7
370
-1
100
AcDbSpline
210
0
220
0
230
1
70
8
71
3
72
8
73
4
74
0
42
1e-07
43
1e-07
40
0
40
0
40
0
40
0
40
1
40
1
40
1
40
1
10
39.1254854822
20
64.0798676784
30
0
10
38.9605474362
20
64.0501576624
30
0
10
38.7866413122
20
63.9950749424
30
0
10
38.7371653962
20
63.9560250924
30
0
0
SPLINE
5
4F
100
AcDbEntity
8
komachi
6
ByLayer
62
7
370
-1
100
AcDbSpline
210
0
220
0
230
1
70
8
71
3
72
8
73
4
74
0
42
1e-07
43
1e-07
40
0
40
0
40
0
40
0
40
1
40
1
40
1
40
1
10
38.7371653962
20
63.9560250924
30
0
10
38.6876899562
20
63.9169750044
30
0
10
38.3455692402
20
63.8468716284
30
0
10
37.9773173142
20
63.8006970104
30
0
0
SPLINE
5
50
100
AcDbEntity
8
komachi
6
ByLayer
62
7
370
-1
100
AcDbSpline
210
0
220
0
230
1
70
8
71
3
72
8
73
4
74
0
42
1e-07
43
1e-07
40
0
40
0
40
0
40
0
40
1
40
1
40
1
40
1
10
37.9773173142
20
63.8006970104
30
0
10
37.4266081622
20
63.7316441664
30
0
10
37.2520263562
20
63.6735140944
30
0
10
36.9991703962
20
63.4732487564
30
0
0
SPLINE
5
51
100
AcDbEntity
8
komachi
6
ByLayer
62
7
370
-1
100
AcDbSpline
210
0
220
0
230
1
70
8
71
3
72
8
73
4
74
0
42
1e-07
43
1e-07
40
0
40
0
40
0
40
0
40
1
40
1
40
1
40
1
10
36.9991703962
20
63.4732487564
30
0
10
36.6627823862
20
63.2068246544
30
0
10
35.9643497282
20
62.4356270664
30
0
10
35.9643497282
20
62.3313775924
30
0
0
SPLINE
5
52
100
AcDbEntity
8
komachi
6
ByLayer
62
7
370
-1
100
AcDbSpline
210
0
220
0
230
1
70
8
71
3
72
8
73
4
74
0
42
1e-07
43
1e-07
40
0
40
0
40
0
40
0
40
1
40
1
40
1
40
1
10
35.9643497282
20
62.3313775924
30
0
10
35.9643497282
20
62.2954745784
30
0
10
35.8106167222
20
62.0643791964
30
0
10
35.6222080682
20
61.8171157604
30
0
0
SPLINE
5
53
100
AcDbEntity
8
komachi
6
ByLayer
62
7
370
-1
100
AcDbSpline
210
0
220
0
230
1
70
8
71
3
72
8
73
4
74
0
42
1e-07
43
1e-07
40
0
40
0
40
0
40
0
40
1
40
1
40
1
40
1
10
35.6222080682
20
61.8171157604
30
0
10
35.4337994142
20
61.5698516104
30
0
10
35.2390559142
20
61.2975872264
30
0
10
35.1898084782
20
61.2125957604
30
0
0
SPLINE
5
54
100
AcDbEntity
8
komachi
6
ByLayer
62
7
370
-1
100
AcDbSpline
210
0
220
0
230
1
70
8
71
3
72
8
73
4
74
0
42
1e-07
43
1e-07
40
0
40
0
40
0
40
0
40
1
40
1
40
1
40
1
10
35.1898084782
20
61.2125957604
30
0
10
35.1405600902
20
61.1276050084
30
0
10
35.0312381222
20
60.9790335084
30
0
10
34.9463211502
20
60.8809494244
30
0
0
SPLINE
5
55
100
AcDbEntity
8
komachi
6
ByLayer
62
7
370
-1
100
AcDbSpline
210
0
220
0
230
1
70
8
71
3
72
8
73
4
74
0
42
1e-07
43
1e-07
40
0
40
0
40
0
40
0
40
1
40
1
40
1
40
1
10
34.9463211502
20
60.8809494244
30
0
10
34.7609491382
20
60.6668351044
30
0
10
33.9492829822
20
59.0164740844
30
0
10
33.9492829822
20
58.8532886704
30
0
0
SPLINE
5
56
100
AcDbEntity
8
komachi
6
ByLayer
62
7
370
-1
100
AcDbSpline
210
0
220
0
230
1
70
8
71
3
72
8
73
4
74
0
42
1e-07
43
1e-07
40
0
40
0
40
0
40
0
40
1
40
1
40
1
40
1
10
33.9492829822
20
58.8532886704
30
0
10
33.9492829822
20
58.8284736004
30
0
10
33.8586049822
20
58.6191404624
30
0
10
33.7477762362
20
58.3894033464
30
0
0
SPLINE
5
57
100
AcDbEntity
8
komachi
6
ByLayer
62
7
370
-1
100
AcDbSpline
210
0
220
0
230
1
70
8
71
3
72
8
73
4
74
0
42
1e-07
43
1e-07
40
0
40
0
40
0
40
0
40
1
40
1
40
1
40
1
10
33.7477762362
20
58.3894033464
30
0
10
33.6369477282
20
58.1596669444
30
0
10
33.5462697282
20
57.9411055944
30
0
10
33.5462697282
20
57.9024289284
30
0
0
SPLINE
5
58
100
AcDbEntity
8
komachi
6
ByLayer
62
7
370
-1
100
AcDbSpline
210
0
220
0
230
1
70
8
71
3
72
8
73
4
74
0
42
1e-07
43
1e-07
40
0
40
0
40
0
40
0
40
1
40
1
40
1
40
1
10
33.5462697282
20
57.9024289284
30
0
10
33.5462697282
20
57.7658819024
30
0
10
32.8970090602
20
56.4708920104
30
0
10
32.8284022282
20
56.4708920104
30
0
0
SPLINE
5
59
100
AcDbEntity
8
komachi
6
ByLayer
62
7
370
-1
100
AcDbSpline
210
0
220
0
230
1
70
8
71
3
72
8
73
4
74
0
42
1e-07
43
1e-07
40
0
40
0
40
0
40
0
40
1
40
1
40
1
40
1
10
32.8284022282
20
56.4708920104
30
0
10
32.7901373022
20
56.4708920104
30
0
10
32.7364042802
20
56.3795383284
30
0
10
32.7087574862
20
56.2693852644
30
0
0
SPLINE
5
5A
100
AcDbEntity
8
komachi
6
ByLayer
62
7
370
-1
100
AcDbSpline
210
0
220
0
230
1
70
8
71
3
72
8
73
4
74
0
42
1e-07
43
1e-07
40
0
40
0
40
0
40
0
40
1
40
1
40
1
40
1
10
32.7087574862
20
56.2693852644
30
0
10
32.6199777742
20
55.9156577644
30
0
10
32.3593618242
20
55.9266069544
30
0
10
30.8469199002
20
56.3470494244
30
0
0
SPLINE
5
5B
100
AcDbEntity
8
komachi
6
ByLayer
62
7
370
-1
100
AcDbSpline
210
0
220
0
230
1
70
8
71
3
72
8
73
4
74
0
42
1e-07
43
1e-07
40
0
40
0
40
0
40
0
40
1
40
1
40
1
40
1
10
30.8469199002
20
56.3470494244
30
0
10
30.5809311002
20
56.4209910264
30
0
10
30.0191473322
20
56.5726717584
30
0
10
29.5979984782
20
56.6828938424
30
0
0
SPLINE
5
5C
100
AcDbEntity
8
komachi
6
ByLayer
62
7
370
-1
100
AcDbSpline
210
0
220
0
230
1
70
8
71
3
72
8
73
4
74
0
42
1e-07
43
1e-07
40
0
40
0
40
0
40
0
40
1
40
1
40
1
40
1
10
29.5979984782
20
56.6828938424
30
0
10
29.1768493862
20
56.7931147364
30
0
10
28.5384460402
20
56.9713955384
30
0
10
28.1811547282
20
57.0796100924
30
0
0
SPLINE
5
5D
100
AcDbEntity
8
komachi
6
ByLayer
62
7
370
-1
100
AcDbSpline
210
0
220
0
230
1
70
8
71
3
72
8
73
4
74
0
42
1e-07
43
1e-07
40
0
40
0
40
0
40
0
40
1
40
1
40
1
40
1
10
28.1811547282
20
57.0796100924
30
0
10
27.8238631782
20
57.1878251224
30
0
10
27.4788669462
20
57.2755450204
30
0
10
27.4150094042
20
57.2748195964
30
0
0
SPLINE
5
5E
100
AcDbEntity
8
komachi
6
ByLayer
62
7
370
-1
100
AcDbSpline
210
0
220
0
230
1
70
8
71
3
72
8
73
4
74
0
42
1e-07
43
1e-07
40
0
40
0
40
0
40
0
40
1
40
1
40
1
40
1
10
27.4150094042
20
57.2748195964
30
0
10
27.3511521002
20
57.2740587104
30
0
10
27.0098132142
20
57.3616857884
30
0
10
26.6551613222
20
57.4700293384
30
0
0
SPLINE
5
5F
100
AcDbEntity
8
komachi
6
ByLayer
62
7
370
-1
100
AcDbSpline
210
0
220
0
230
1
70
8
71
3
72
8
73
4
74
0
42
1e-07
43
1e-07
40
0
40
0
40
0
40
0
40
1
40
1
40
1
40
1
10
26.6551613222
20
57.4700293384
30
0
10
26.3005096682
20
57.5783740784
30
0
10
25.6657636682
20
57.7641202264
30
0
10
25.2446148142
20
57.8814387564
30
0
0
SPLINE
5
60
100
AcDbEntity
8
komachi
6
ByLayer
62
7
370
-1
100
AcDbSpline
210
0
220
0
230
1
70
8
71
3
72
8
73
4
74
0
42
1e-07
43
1e-07
40
0
40
0
40
0
40
0
40
1
40
1
40
1
40
1
10
25.2446148142
20
57.8814387564
30
0
10
24.8234657222
20
57.9987572864
30
0
10
24.1887197222
20
58.1824042744
30
0
10
23.8340680682
20
58.2907490144
30
0
0
SPLINE
5
61
100
AcDbEntity
8
komachi
6
ByLayer
62
7
370
-1
100
AcDbSpline
210
0
220
0
230
1
70
8
71
3
72
8
73
4
74
0
42
1e-07
43
1e-07
40
0
40
0
40
0
40
0
40
1
40
1
40
1
40
1
10
23.8340680682
20
58.2907490144
30
0
10
23.4794164142
20
58.3990932784
30
0
10
23.1382648342
20
58.4888166604
30
0
10
23.0763191462
20
58.4880576784
30
0
0
SPLINE
5
62
100
AcDbEntity
8
komachi
6
ByLayer
62
7
370
-1
100
AcDbSpline
210
0
220
0
230
1
70
8
71
3
72
8
73
4
74
0
42
1e-07
43
1e-07
40
0
40
0
40
0
40
0
40
1
40
1
40
1
40
1
10
23.0763191462
20
58.4880576784
30
0
10
22.8306945782
20
58.4850424564
30
0
10
21.9980663342
20
58.8460691784
30
0
10
21.7791199002
20
59.0505970964
30
0
0
SPLINE
5
63
100
AcDbEntity
8
komachi
6
ByLayer
62
7
370
-1
100
AcDbSpline
210
0
220
0
230
1
70
8
71
3
72
8
73
4
74
0
42
1e-07
43
1e-07
40
0
40
0
40
0
40
0
40
1
40
1
40
1
40
1
10
21.7791199002
20
59.0505970964
30
0
10
21.6514426582
20
59.1698643704
30
0
10
21.4616388482
20
59.3217324084
30
0
10
21.3593143182
20
59.3885406744
30
0
0
SPLINE
5
64
100
AcDbEntity
8
komachi
6
ByLayer
62
7
370
-1
100
AcDbSpline
210
0
220
0
230
1
70
8
71
3
72
8
73
4
74
0
42
1e-07
43
1e-07
40
0
40
0
40
0
40
0
40
1
40
1
40
1
40
1
10
21.3593143182
20
59.3885406744
30
0
10
21.1187101222
20
59.5456340024
30
0
10
18.6744234662
20
60.5010252644
30
0
10
18.5130325722
20
60.5010252644
30
0
0
SPLINE
5
65
100
AcDbEntity
8
komachi
6
ByLayer
62
7
370
-1
100
AcDbSpline
210
0
220
0
230
1
70
8
71
3
72
8
73
4
74
0
42
1e-07
43
1e-07
40
0
40
0
40
0
40
0
40
1
40
1
40
1
40
1
10
18.5130325722
20
60.5010252644
30
0
10
18.4707390202
20
60.5010252644
30
0
10
18.1997072382
20
60.5858441804
30
0
10
17.9106117322
20
60.6899377644
30
0
0
SPLINE
5
66
100
AcDbEntity
8
komachi
6
ByLayer
62
7
370
-1
100
AcDbSpline
210
0
220
0
230
1
70
8
71
3
72
8
73
4
74
0
42
1e-07
43
1e-07
40
0
40
0
40
0
40
0
40
1
40
1
40
1
40
1
10
17.9106117322
20
60.6899377644
30
0
10
17.6215174162
20
60.7940315864
30
0
10
17.0783892782
20
60.9713594364
30
0
10
16.7015717322
20
61.0845550924
30
0
0
SPLINE
5
67
100
AcDbEntity
8
komachi
6
ByLayer
62
7
370
-1
100
AcDbSpline
210
0
220
0
230
1
70
8
71
3
72
8
73
4
74
0
42
1e-07
43
1e-07
40
0
40
0
40
0
40
0
40
1
40
1
40
1
40
1
10
16.7015717322
20
61.0845550924
30
0
10
16.3247541862
20
61.1977507484
30
0
10
15.7077239542
20
61.3849041904
30
0
10
15.3309066462
20
61.5001625924
30
0
0
SPLINE
5
68
100
AcDbEntity
8
komachi
6
ByLayer
62
7
370
-1
100
AcDbSpline
210
0
220
0
230
1
70
8
71
3
72
8
73
4
74
0
42
1e-07
43
1e-07
40
0
40
0
40
0
40
0
40
1
40
1
40
1
40
1
10
15.3309066462
20
61.5001625924
30
0
10
14.1599337942
20
61.8583318864
30
0
10
13.0716223882
20
61.8583661584
30
0
10
12.7134188222
20
61.5001625924
30
0
0
SPLINE
5
69
100
AcDbEntity
8
komachi
6
ByLayer
62
7
370
-1
100
AcDbSpline
210
0
220
0
230
1
70
8
71
3
72
8
73
4
74
0
42
1e-07
43
1e-07
40
0
40
0
40
0
40
0
40
1
40
1
40
1
40
1
10
12.7134188222
20
61.5001625924
30
0
10
12.6449267062
20
61.4316704764
30
0
10
12.5895762362
20
61.2548195784
30
0
10
12.5895762362
20
61.1076444244
30
0
0
SPLINE
5
6A
100
AcDbEntity
8
komachi
6
ByLayer
62
7
370
-1
100
AcDbSpline
210
0
220
0
230
1
70
8
71
3
72
8
73
4
74
0
42
1e-07
43
1e-07
40
0
40
0
40
0
40
0
40
1
40
1
40
1
40
1
10
12.5895762362
20
61.1076444244
30
0
10
12.5895762362
20
60.8909932624
30
0
10
12.6739881722
20
60.7566560664
30
0
10
13.0303722282
20
60.4002720104
30
0
0
SPLINE
5
6B
100
AcDbEntity
8
komachi
6
ByLayer
62
7
370
-1
100
AcDbSpline
210
0
220
0
230
1
70
8
71
3
72
8
73
4
74
0
42
1e-07
43
1e-07
40
0
40
0
40
0
40
0
40
1
40
1
40
1
40
1
10
13.0303722282
20
60.4002720104
30
0
10
13.4488633362
20
59.9817809024
30
0
10
13.4671141282
20
59.9451101004
30
0
10
13.4186923142
20
59.6467211704
30
0
0
SPLINE
5
6C
100
AcDbEntity
8
komachi
6
ByLayer
62
7
370
-1
100
AcDbSpline
210
0
220
0
230
1
70
8
71
3
72
8
73
4
74
0
42
1e-07
43
1e-07
40
0
40
0
40
0
40
0
40
1
40
1
40
1
40
1
10
13.4186923142
20
59.6467211704
30
0
10
13.3906801902
20
59.4741023884
30
0
10
13.2847590042
20
59.1167687124
30
0
10
13.1815022282
20
58.8532886704
30
0
0
SPLINE
5
6D
100
AcDbEntity
8
komachi
6
ByLayer
62
7
370
-1
100
AcDbSpline
210
0
220
0
230
1
70
8
71
3
72
8
73
4
74
0
42
1e-07
43
1e-07
40
0
40
0
40
0
40
0
40
1
40
1
40
1
40
1
10
13.1815022282
20
58.8532886704
30
0
10
13.0782449762
20
58.5898086284
30
0
10
12.9929255462
20
58.3002273644
30
0
10
12.9925897282
20
58.2088870104
30
0
0
SPLINE
5
6E
100
AcDbEntity
8
komachi
6
ByLayer
62
7
370
-1
100
AcDbSpline
210
0
220
0
230
1
70
8
71
3
72
8
73
4
74
0
42
1e-07
43
1e-07
40
0
40
0
40
0
40
0
40
1
40
1
40
1
40
1
10
12.9925897282
20
58.2088870104
30
0
10
12.9922510542
20
58.1175473704
30
0
10
12.9170290122
20
57.8064613784
30
0
10
12.8267663222
20
57.5183069244
30
0
0
SPLINE
5
6F
100
AcDbEntity
8
komachi
6
ByLayer
62
7
370
-1
100
AcDbSpline
210
0
220
0
230
1
70
8
71
3
72
8
73
4
74
0
42
1e-07
43
1e-07
40
0
40
0
40
0
40
0
40
1
40
1
40
1
40
1
10
12.8267663222
20
57.5183069244
30
0
10
12.7365038702
20
57.2301524704
30
0
10
12.6344168642
20
56.8320086964
30
0
10
12.5979724002
20
56.6325170964
30
0
0
SPLINE
5
70
100
AcDbEntity
8
komachi
6
ByLayer
62
7
370
-1
100
AcDbSpline
210
0
220
0
230
1
70
8
71
3
72
8
73
4
74
0
42
1e-07
43
1e-07
40
0
40
0
40
0
40
0
40
1
40
1
40
1
40
1
10
12.5979724002
20
56.6325170964
30
0
10
12.5615279362
20
56.4330254964
30
0
10
12.4542482462
20
55.9598208064
30
0
10
12.3607823142
20
55.5830032604
30
0
0
SPLINE
5
71
100
AcDbEntity
8
komachi
6
ByLayer
62
7
370
-1
100
AcDbSpline
210
0
220
0
230
1
70
8
71
3
72
8
73
4
74
0
42
1e-07
43
1e-07
40
0
40
0
40
0
40
0
40
1
40
1
40
1
40
1
10
12.3607823142
20
55.5830032604
30
0
10
12.1169101402
20
54.5998086004
30
0
10
11.9618345762
20
53.8532083124
30
0
10
11.8696098142
20
53.2069038424
30
0
0
SPLINE
5
72
100
AcDbEntity
8
komachi
6
ByLayer
62
7
370
-1
100
AcDbSpline
210
0
220
0
230
1
70
8
71
3
72
8
73
4
74
0
42
1e-07
43
1e-07
40
0
40
0
40
0
40
0
40
1
40
1
40
1
40
1
10
11.8696098142
20
53.2069038424
30
0
10
11.3904753542
20
49.8491646184
30
0
10
11.3624382402
20
49.4474939224
30
0
10
11.3994274862
20
46.4858169244
30
0
0
SPLINE
5
73
100
AcDbEntity
8
komachi
6
ByLayer
62
7
370
-1
100
AcDbSpline
210
0
220
0
230
1
70
8
71
3
72
8
73
4
74
0
42
1e-07
43
1e-07
40
0
40
0
40
0
40
0
40
1
40
1
40
1
40
1
10
11.3994274862
20
46.4858169244
30
0
10
11.4349901602
20
43.6383806404
30
0
10
11.5804421942
20
41.9543033504
30
0
10
11.9577688222
20
40.0271083464
30
0
0
SPLINE
5
74
100
AcDbEntity
8
komachi
6
ByLayer
62
7
370
-1
100
AcDbSpline
210
0
220
0
230
1
70
8
71
3
72
8
73
4
74
0
42
1e-07
43
1e-07
40
0
40
0
40
0
40
0
40
1
40
1
40
1
40
1
10
11.9577688222
20
40.0271083464
30
0
10
12.0489056862
20
39.5616279464
30
0
10
12.1528836022
20
38.9778348904
30
0
10
12.1865629822
20
38.7299093384
30
0
0
SPLINE
5
75
100
AcDbEntity
8
komachi
6
ByLayer
62
7
370
-1
100
AcDbSpline
210
0
220
0
230
1
70
8
71
3
72
8
73
4
74
0
42
1e-07
43
1e-07
40
0
40
0
40
0
40
0
40
1
40
1
40
1
40
1
10
12.1865629822
20
38.7299093384
30
0
10
12.3786489742
20
37.3158965984
30
0
10
13.3860703682
20
34.4110014024
30
0
10
14.3506605682
20
32.4915987564
30
0
0
SPLINE
5
76
100
AcDbEntity
8
komachi
6
ByLayer
62
7
370
-1
100
AcDbSpline
210
0
220
0
230
1
70
8
71
3
72
8
73
4
74
0
42
1e-07
43
1e-07
40
0
40
0
40
0
40
0
40
1
40
1
40
1
40
1
10
14.3506605682
20
32.4915987564
30
0
10
14.4174964422
20
32.3586043564
30
0
10
14.5087639682
20
32.1772483564
30
0
10
14.5521673142
20
32.0885852644
30
0
0
SPLINE
5
77
100
AcDbEntity
8
komachi
6
ByLayer
62
7
370
-1
100
AcDbSpline
210
0
220
0
230
1
70
8
71
3
72
8
73
4
74
0
42
1e-07
43
1e-07
40
0
40
0
40
0
40
0
40
1
40
1
40
1
40
1
10
14.5521673142
20
32.0885852644
30
0
10
14.5955711362
20
31.9999224104
30
0
10
14.6605986862
20
31.8717137144
30
0
10
14.6970000722
20
31.8052165144
30
0
0
SPLINE
5
78
100
AcDbEntity
8
komachi
6
ByLayer
62
7
370
-1
100
AcDbSpline
210
0
220
0
230
1
70
8
71
3
72
8
73
4
74
0
42
1e-07
43
1e-07
40
0
40
0
40
0
40
0
40
1
40
1
40
1
40
1
10
14.6970000722
20
31.8052165144
30
0
10
14.7334016962
20
31.7387193144
30
0
10
14.8843974642
20
31.4489695464
30
0
10
15.0328447282
20
31.1608150924
30
0
0
SPLINE
5
79
100
AcDbEntity
8
komachi
6
ByLayer
62
7
370
-1
100
AcDbSpline
210
0
220
0
230
1
70
8
71
3
72
8
73
4
74
0
42
1e-07
43
1e-07
40
0
40
0
40
0
40
0
40
1
40
1
40
1
40
1
10
15.0328447282
20
31.1608150924
30
0
10
15.1812924682
20
30.8726606384
30
0
10
15.4547923102
20
30.3532313504
30
0
10
15.6415625722
20
30.0063499204
30
0
0
SPLINE
5
7A
100
AcDbEntity
8
komachi
6
ByLayer
62
7
370
-1
100
AcDbSpline
210
0
220
0
230
1
70
8
71
3
72
8
73
4
74
0
42
1e-07
43
1e-07
40
0
40
0
40
0
40
0
40
1
40
1
40
1
40
1
10
15.6415625722
20
30.0063499204
30
0
10
15.8283337862
20
29.6594687284
30
0
10
16.0130812862
20
29.3144727344
30
0
10
16.0529722282
20
29.2402045964
30
0
0
SPLINE
5
7B
100
AcDbEntity
8
komachi
6
ByLayer
62
7
370
-1
100
AcDbSpline
210
0
220
0
230
1
70
8
71
3
72
8
73
4
74
0
42
1e-07
43
1e-07
40
0
40
0
40
0
40
0
40
1
40
1
40
1
40
1
10
16.0529722282
20
29.2402045964
30
0
10
16.2354975222
20
28.9003798664
30
0
10
16.5711834322
20
28.1155396424
30
0
10
16.6260067322
20
27.8968269244
30
0
0
SPLINE
5
7C
100
AcDbEntity
8
komachi
6
ByLayer
62
7
370
-1
100
AcDbSpline
210
0
220
0
230
1
70
8
71
3
72
8
73
4
74
0
42
1e-07
43
1e-07
40
0
40
0
40
0
40
0
40
1
40
1
40
1
40
1
10
16.6260067322
20
27.8968269244
30
0
10
16.6593438682
20
27.7638325244
30
0
10
16.7626127822
20
27.3656889884
30
0
10
16.8568998142
20
27.0110370964
30
0
0
SPLINE
5
7D
100
AcDbEntity
8
komachi
6
ByLayer
62
7
370
-1
100
AcDbSpline
210
0
220
0
230
1
70
8
71
3
72
8
73
4
74
0
42
1e-07
43
1e-07
40
0
40
0
40
0
40
0
40
1
40
1
40
1
40
1
10
16.8568998142
20
27.0110370964
30
0
10
16.9939002302
20
26.4957187824
30
0
10
17.0281234402
20
26.1468395804
30
0
10
17.0227229822
20
25.2772401784
30
0
0
SPLINE
5
7E
100
AcDbEntity
8
komachi
6
ByLayer
62
7
370
-1
100
AcDbSpline
210
0
220
0
230
1
70
8
71
3
72
8
73
4
74
0
42
1e-07
43
1e-07
40
0
40
0
40
0
40
0
40
1
40
1
40
1
40
1
10
17.0227229822
20
25.2772401784
30
0
10
17.0190085162
20
24.6787653784
30
0
10
17.0163150702
20
23.9632488424
30
0
10
17.0185249002
20
23.6861770964
30
0
0
SPLINE
5
7F
100
AcDbEntity
8
komachi
6
ByLayer
62
7
370
-1
100
AcDbSpline
210
0
220
0
230
1
70
8
71
3
72
8
73
4
74
0
42
1e-07
43
1e-07
40
0
40
0
40
0
40
0
40
1
40
1
40
1
40
1
10
20.1355811502
20
23.4028083464
30
0
10
20.1647035442
20
23.5247200384
30
0
10
20.2167762782
20
23.6607370384
30
0
10
20.2510275722
20
23.7050683464
30
0
0
SPLINE
5
80
100
AcDbEntity
8
komachi
6
ByLayer
62
7
370
-1
100
AcDbSpline
210
0
220
0
230
1
70
8
71
3
72
8
73
4
74
0
42
1e-07
43
1e-07
40
0
40
0
40
0
40
0
40
1
40
1
40
1
40
1
10
20.2510275722
20
23.7050683464
30
0
10
20.2852798182
20
23.7493998924
30
0
10
20.3387588942
20
23.9307558924
30
0
10
20.3706723142
20
24.1080818384
30
0
0
SPLINE
5
81
100
AcDbEntity
8
komachi
6
ByLayer
62
7
370
-1
100
AcDbSpline
210
0
220
0
230
1
70
8
71
3
72
8
73
4
74
0
42
1e-07
43
1e-07
40
0
40
0
40
0
40
0
40
1
40
1
40
1
40
1
10
20.3706723142
20
24.1080818384
30
0
10
20.4025862102
20
24.2854075464
30
0
10
20.4535727122
20
24.4667635464
30
0
10
20.4840198142
20
24.5110950924
30
0
0
SPLINE
5
82
100
AcDbEntity
8
komachi
6
ByLayer
62
7
370
-1
100
AcDbSpline
210
0
220
0
230
1
70
8
71
3
72
8
73
4
74
0
42
1e-07
43
1e-07
40
0
40
0
40
0
40
0
40
1
40
1
40
1
40
1
10
20.4840198142
20
24.5110950924
30
0
10
20.5144659642
20
24.5554266384
30
0
10
20.6062287682
20
24.8097448704
30
0
10
20.6876254822
20
25.0757336704
30
0
0
SPLINE
5
83
100
AcDbEntity
8
komachi
6
ByLayer
62
7
370
-1
100
AcDbSpline
210
0
220
0
230
1
70
8
71
3
72
8
73
4
74
0
42
1e-07
43
1e-07
40
0
40
0
40
0
40
0
40
1
40
1
40
1
40
1
10
20.6876254822
20
25.0757336704
30
0
10
20.7690219582
20
25.3417224704
30
0
10
20.9169863202
20
25.7951124704
30
0
10
21.0150737362
20
26.0832669244
30
0
0
SPLINE
5
84
100
AcDbEntity
8
komachi
6
ByLayer
62
7
370
-1
100
AcDbSpline
210
0
220
0
230
1
70
8
71
3
72
8
73
4
74
0
42
1e-07
43
1e-07
40
0
40
0
40
0
40
0
40
1
40
1
40
1
40
1
10
21.0150737362
20
26.0832669244
30
0
10
21.3952899222
20
27.2002473344
30
0
10
21.4558697282
20
27.4486269904
30
0
10
21.4558697282
20
27.8695395104
30
0
0
SPLINE
5
85
100
AcDbEntity
8
komachi
6
ByLayer
62
7
370
-1
100
AcDbSpline
210
0
220
0
230
1
70
8
71
3
72
8
73
4
74
0
42
1e-07
43
1e-07
40
0
40
0
40
0
40
0
40
1
40
1
40
1
40
1
10
21.4558697282
20
27.8695395104
30
0
10
21.4558697282
20
28.2976034544
30
0
10
21.2780049502
20
28.9363219124
30
0
10
20.9688950722
20
29.6096336704
30
0
0
SPLINE
5
86
100
AcDbEntity
8
komachi
6
ByLayer
62
7
370
-1
100
AcDbSpline
210
0
220
0
230
1
70
8
71
3
72
8
73
4
74
0
42
1e-07
43
1e-07
40
0
40
0
40
0
40
0
40
1
40
1
40
1
40
1
10
20.9688950722
20
29.6096336704
30
0
10
20.8826200722
20
29.7975594224
30
0
10
20.8114680682
20
29.9803272384
30
0
10
20.8114680682
20
30.0168450064
30
0
0
SPLINE
5
87
100
AcDbEntity
8
komachi
6
ByLayer
62
7
370
-1
100
AcDbSpline
210
0
220
0
230
1
70
8
71
3
72
8
73
4
74
0
42
1e-07
43
1e-07
40
0
40
0
40
0
40
0
40
1
40
1
40
1
40
1
10
20.8114680682
20
30.0168450064
30
0
10
20.8114680682
20
30.0533625364
30
0
10
20.7207900682
20
30.2719838624
30
0
10
20.6099613222
20
30.5017202644
30
0
0
SPLINE
5
88
100
AcDbEntity
8
komachi
6
ByLayer
62
7
370
-1
100
AcDbSpline
210
0
220
0
230
1
70
8
71
3
72
8
73
4
74
0
42
1e-07
43
1e-07
40
0
40
0
40
0
40
0
40
1
40
1
40
1
40
1
10
20.6099613222
20
30.5017202644
30
0
10
20.4991328142
20
30.7314573804
30
0
10
20.4084548142
20
30.9580985924
30
0
10
20.4084548142
20
31.0054870104
30
0
0
SPLINE
5
89
100
AcDbEntity
8
komachi
6
ByLayer
62
7
370
-1
100
AcDbSpline
210
0
220
0
230
1
70
8
71
3
72
8
73
4
74
0
42
1e-07
43
1e-07
40
0
40
0
40
0
40
0
40
1
40
1
40
1
40
1
10
20.4084548142
20
31.0054870104
30
0
10
20.4084548142
20
31.0528766184
30
0
10
20.3177768142
20
31.2900474264
30
0
10
20.2069480682
20
31.5323430884
30
0
0
SPLINE
5
8A
100
AcDbEntity
8
komachi
6
ByLayer
62
7
370
-1
100
AcDbSpline
210
0
220
0
230
1
70
8
71
3
72
8
73
4
74
0
42
1e-07
43
1e-07
40
0
40
0
40
0
40
0
40
1
40
1
40
1
40
1
10
20.2069480682
20
31.5323430884
30
0
10
20.0961193222
20
31.7746392264
30
0
10
20.0054413222
20
32.0014182404
30
0
10
20.0054413222
20
32.0361095964
30
0
0
SPLINE
5
8B
100
AcDbEntity
8
komachi
6
ByLayer
62
7
370
-1
100
AcDbSpline
210
0
220
0
230
1
70
8
71
3
72
8
73
4
74
0
42
1e-07
43
1e-07
40
0
40
0
40
0
40
0
40
1
40
1
40
1
40
1
10
20.0054413222
20
32.0361095964
30
0
10
20.0054413222
20
32.0708004764
30
0
10
19.9348664682
20
32.2446678064
30
0
10
19.8480143182
20
32.4244299204
30
0
0
SPLINE
5
8C
100
AcDbEntity
8
komachi
6
ByLayer
62
7
370
-1
100
AcDbSpline
210
0
220
0
230
1
70
8
71
3
72
8
73
4
74
0
42
1e-07
43
1e-07
40
0
40
0
40
0
40
0
40
1
40
1
40
1
40
1
10
19.8480143182
20
32.4244299204
30
0
10
19.6915604962
20
32.7482529584
30
0
10
19.5936532462
20
33.0009054284
30
0
10
19.3211584782
20
33.7804018384
30
0
0
SPLINE
5
8D
100
AcDbEntity
8
komachi
6
ByLayer
62
7
370
-1
100
AcDbSpline
210
0
220
0
230
1
70
8
71
3
72
8
73
4
74
0
42
1e-07
43
1e-07
40
0
40
0
40
0
40
0
40
1
40
1
40
1
40
1
10
19.3211584782
20
33.7804018384
30
0
10
19.2436716282
20
34.0020590924
30
0
10
19.1105710802
20
34.3399938644
30
0
10
19.0272944042
20
34.5297545964
30
0
0
SPLINE
5
8E
100
AcDbEntity
8
komachi
6
ByLayer
62
7
370
-1
100
AcDbSpline
210
0
220
0
230
1
70
8
71
3
72
8
73
4
74
0
42
1e-07
43
1e-07
40
0
40
0
40
0
40
0
40
1
40
1
40
1
40
1
10
19.0272944042
20
34.5297545964
30
0
10
18.9440172522
20
34.7195141384
30
0
10
18.8448181382
20
35.0092639064
30
0
10
18.8047974862
20
35.1741562564
30
0
0
SPLINE
5
8F
100
AcDbEntity
8
komachi
6
ByLayer
62
7
370
-1
100
AcDbSpline
210
0
220
0
230
1
70
8
71
3
72
8
73
4
74
0
42
1e-07
43
1e-07
40
0
40
0
40
0
40
0
40
1
40
1
40
1
40
1
10
18.8047974862
20
35.1741562564
30
0
10
18.7647775482
20
35.3390471784
30
0
10
18.6554125022
20
35.6911048704
30
0
10
18.5634093182
20
35.9570936704
30
0
0
SPLINE
5
90
100
AcDbEntity
8
komachi
6
ByLayer
62
7
370
-1
100
AcDbSpline
210
0
220
0
230
1
70
8
71
3
72
8
73
4
74
0
42
1e-07
43
1e-07
40
0
40
0
40
0
40
0
40
1
40
1
40
1
40
1
10
18.5634093182
20
35.9570936704
30
0
10
17.7960661402
20
38.1755530744
30
0
10
17.5881103082
20
39.7771802624
30
0
10
17.5894604822
20
43.4527218384
30
0
0
SPLINE
5
91
100
AcDbEntity
8
komachi
6
ByLayer
62
7
370
-1
100
AcDbSpline
210
0
220
0
230
1
70
8
71
3
72
8
73
4
74
0
42
1e-07
43
1e-07
40
0
40
0
40
0
40
0
40
1
40
1
40
1
40
1
10
17.5894604822
20
43.4527218384
30
0
10
17.5911155342
20
47.9666236504
30
0
10
17.8897486522
20
50.1743204564
30
0
10
18.9643236502
20
53.6099170964
30
0
0
SPLINE
5
92
100
AcDbEntity
8
komachi
6
ByLayer
62
7
370
-1
100
AcDbSpline
210
0
220
0
230
1
70
8
71
3
72
8
73
4
74
0
42
1e-07
43
1e-07
40
0
40
0
40
0
40
0
40
1
40
1
40
1
40
1
10
18.9643236502
20
53.6099170964
30
0
10
19.0613848102
20
53.9202374424
30
0
10
19.1686797322
20
54.3006652104
30
0
10
19.2036128962
20
54.4558252644
30
0
0
SPLINE
5
93
100
AcDbEntity
8
komachi
6
ByLayer
62
7
370
-1
100
AcDbSpline
210
0
220
0
230
1
70
8
71
3
72
8
73
4
74
0
42
1e-07
43
1e-07
40
0
40
0
40
0
40
0
40
1
40
1
40
1
40
1
10
19.2036128962
20
54.4558252644
30
0
10
19.2629853282
20
54.7195356904
30
0
10
19.7044636662
20
55.9871927104
30
0
10
19.9130842322
20
56.4960802644
30
0
0
SPLINE
5
94
100
AcDbEntity
8
komachi
6
ByLayer
62
7
370
-1
100
AcDbSpline
210
0
220
0
230
1
70
8
71
3
72
8
73
4
74
0
42
1e-07
43
1e-07
40
0
40
0
40
0
40
0
40
1
40
1
40
1
40
1
10
19.9130842322
20
56.4960802644
30
0
10
19.9642447122
20
56.6208774684
30
0
10
20.0054413222
20
56.7740164264
30
0
10
20.0054413222
20
56.8361227644
30
0
0
SPLINE
5
95
100
AcDbEntity
8
komachi
6
ByLayer
62
7
370
-1
100
AcDbSpline
210
0
220
0
230
1
70
8
71
3
72
8
73
4
74
0
42
1e-07
43
1e-07
40
0
40
0
40
0
40
0
40
1
40
1
40
1
40
1
10
20.0054413222
20
56.8361227644
30
0
10
20.0054413222
20
56.9702840784
30
0
10
20.2570406422
20
57.5170307684
30
0
10
20.3223947282
20
57.5246039284
30
0
0
SPLINE
5
96
100
AcDbEntity
8
komachi
6
ByLayer
62
7
370
-1
100
AcDbSpline
210
0
220
0
230
1
70
8
71
3
72
8
73
4
74
0
42
1e-07
43
1e-07
40
0
40
0
40
0
40
0
40
1
40
1
40
1
40
1
10
20.3223947282
20
57.5246039284
30
0
10
20.3474332802
20
57.5275056244
30
0
10
20.7891941242
20
57.5337624064
30
0
10
21.3047397282
20
57.5392970964
30
0
0
SPLINE
5
97
100
AcDbEntity
8
komachi
6
ByLayer
62
7
370
-1
100
AcDbSpline
210
0
220
0
230
1
70
8
71
3
72
8
73
4
74
0
42
1e-07
43
1e-07
40
0
40
0
40
0
40
0
40
1
40
1
40
1
40
1
10
21.3047397282
20
57.5392970964
30
0
10
22.1195869922
20
57.5480431204
30
0
10
22.3325800942
20
57.5206417044
30
0
10
22.9356842322
20
57.3293944244
30
0
0
SPLINE
5
98
100
AcDbEntity
8
komachi
6
ByLayer
62
7
370
-1
100
AcDbSpline
210
0
220
0
230
1
70
8
71
3
72
8
73
4
74
0
42
1e-07
43
1e-07
40
0
40
0
40
0
40
0
40
1
40
1
40
1
40
1
10
22.9356842322
20
57.3293944244
30
0
10
23.3172613022
20
57.2083942724
30
0
10
23.9295305822
20
57.0200970024
30
0
10
24.2958542322
20
56.9116877644
30
0
0
SPLINE
5
99
100
AcDbEntity
8
komachi
6
ByLayer
62
7
370
-1
100
AcDbSpline
210
0
220
0
230
1
70
8
71
3
72
8
73
4
74
0
42
1e-07
43
1e-07
40
0
40
0
40
0
40
0
40
1
40
1
40
1
40
1
10
24.2958542322
20
56.9116877644
30
0
10
24.6621785962
20
56.8032799544
30
0
10
25.2644630622
20
56.6243843984
30
0
10
25.6329349002
20
56.5128725924
30
0
0
SPLINE
5
9A
100
AcDbEntity
8
komachi
6
ByLayer
62
7
370
-1
100
AcDbSpline
210
0
220
0
230
1
70
8
71
3
72
8
73
4
74
0
42
1e-07
43
1e-07
40
0
40
0
40
0
40
0
40
1
40
1
40
1
40
1
10
25.6329349002
20
56.5128725924
30
0
10
26.0014067382
20
56.4013593584
30
0
10
26.3464027322
20
56.3100090084
30
0
10
26.3990799862
20
56.3113658464
30
0
0
SPLINE
5
9B
100
AcDbEntity
8
komachi
6
ByLayer
62
7
370
-1
100
AcDbSpline
210
0
220
0
230
1
70
8
71
3
72
8
73
4
74
0
42
1e-07
43
1e-07
40
0
40
0
40
0
40
0
40
1
40
1
40
1
40
1
10
26.3990799862
20
56.3113658464
30
0
10
26.4517572402
20
56.3127160204
30
0
10
26.7832860042
20
56.2243252004
30
0
10
27.1379378962
20
56.1140574204
30
0
0
SPLINE
5
9C
100
AcDbEntity
8
komachi
6
ByLayer
62
7
370
-1
100
AcDbSpline
210
0
220
0
230
1
70
8
71
3
72
8
73
4
74
0
42
1e-07
43
1e-07
40
0
40
0
40
0
40
0
40
1
40
1
40
1
40
1
10
27.1379378962
20
56.1140574204
30
0
10
27.4925895502
20
56.0037901164
30
0
10
28.1273355502
20
55.8190985464
30
0
10
28.5484844042
20
55.7047469244
30
0
0
SPLINE
5
9D
100
AcDbEntity
8
komachi
6
ByLayer
62
7
370
-1
100
AcDbSpline
210
0
220
0
230
1
70
8
71
3
72
8
73
4
74
0
42
1e-07
43
1e-07
40
0
40
0
40
0
40
0
40
1
40
1
40
1
40
1
10
28.5484844042
20
55.7047469244
30
0
10
28.9696334962
20
55.5903957784
30
0
10
29.6241941862
20
55.4088424764
30
0
10
30.0010117322
20
55.3017336704
30
0
0
SPLINE
5
9E
100
AcDbEntity
8
komachi
6
ByLayer
62
7
370
-1
100
AcDbSpline
210
0
220
0
230
1
70
8
71
3
72
8
73
4
74
0
42
1e-07
43
1e-07
40
0
40
0
40
0
40
0
40
1
40
1
40
1
40
1
10
30.0010117322
20
55.3017336704
30
0
10
30.3778292782
20
55.1946239124
30
0
10
30.8489350462
20
55.0679588844
30
0
10
31.0484266462
20
55.0183649204
30
0
0
SPLINE
5
9F
100
AcDbEntity
8
komachi
6
ByLayer
62
7
370
-1
100
AcDbSpline
210
0
220
0
230
1
70
8
71
3
72
8
73
4
74
0
42
1e-07
43
1e-07
40
0
40
0
40
0
40
0
40
1
40
1
40
1
40
1
10
31.0484266462
20
55.0183649204
30
0
10
31.5048606662
20
54.9048936604
30
0
10
31.8582771002
20
54.6391385764
30
0
10
31.6907291462
20
54.5355883464
30
0
0
SPLINE
5
A0
100
AcDbEntity
8
komachi
6
ByLayer
62
7
370
-1
100
AcDbSpline
210
0
220
0
230
1
70
8
71
3
72
8
73
4
74
0
42
1e-07
43
1e-07
40
0
40
0
40
0
40
0
40
1
40
1
40
1
40
1
10
31.6907291462
20
54.5355883464
30
0
10
31.4639044362
20
54.3954023004
30
0
10
31.6986414562
20
54.3557262724
30
0
10
32.1860997282
20
54.4516274204
30
0
0
SPLINE
5
A1
100
AcDbEntity
8
komachi
6
ByLayer
62
7
370
-1
100
AcDbSpline
210
0
220
0
230
1
70
8
71
3
72
8
73
4
74
0
42
1e-07
43
1e-07
40
0
40
0
40
0
40
0
40
1
40
1
40
1
40
1
10
32.1860997282
20
54.4516274204
30
0
10
32.5779279342
20
54.5286827764
30
0
10
32.6964219462
20
54.5272252644
30
0
10
32.7444410642
20
54.4495282604
30
0
0
SPLINE
5
A2
100
AcDbEntity
8
komachi
6
ByLayer
62
7
370
-1
100
AcDbSpline
210
0
220
0
230
1
70
8
71
3
72
8
73
4
74
0
42
1e-07
43
1e-07
40
0
40
0
40
0
40
0
40
1
40
1
40
1
40
1
10
32.7444410642
20
54.4495282604
30
0
10
32.7779790722
20
54.3952644984
30
0
10
32.8550996402
20
54.3713671564
30
0
10
32.9165612362
20
54.3949536704
30
0
0
SPLINE
5
A3
100
AcDbEntity
8
komachi
6
ByLayer
62
7
370
-1
100
AcDbSpline
210
0
220
0
230
1
70
8
71
3
72
8
73
4
74
0
42
1e-07
43
1e-07
40
0
40
0
40
0
40
0
40
1
40
1
40
1
40
1
10
32.9165612362
20
54.3949536704
30
0
10
33.0612497662
20
54.4504747864
30
0
10
34.1725429282
20
54.2445100624
30
0
10
34.4341584782
20
54.1136838424
30
0
0
SPLINE
5
A4
100
AcDbEntity
8
komachi
6
ByLayer
62
7
370
-1
100
AcDbSpline
210
0
220
0
230
1
70
8
71
3
72
8
73
4
74
0
42
1e-07
43
1e-07
40
0
40
0
40
0
40
0
40
1
40
1
40
1
40
1
10
34.4341584782
20
54.1136838424
30
0
10
34.6866012702
20
53.9874445964
30
0
10
34.7537446402
20
53.8959519224
30
0
10
34.7553097282
20
53.6791850924
30
0
0
SPLINE
5
A5
100
AcDbEntity
8
komachi
6
ByLayer
62
7
370
-1
100
AcDbSpline
210
0
220
0
230
1
70
8
71
3
72
8
73
4
74
0
42
1e-07
43
1e-07
40
0
40
0
40
0
40
0
40
1
40
1
40
1
40
1
10
34.7553097282
20
53.6791850924
30
0
10
34.7559880282
20
53.5848678344
30
0
10
34.8093878502
20
53.4628252424
30
0
10
34.8749542322
20
53.4084105884
30
0
0
SPLINE
5
A6
100
AcDbEntity
8
komachi
6
ByLayer
62
7
370
-1
100
AcDbSpline
210
0
220
0
230
1
70
8
71
3
72
8
73
4
74
0
42
1e-07
43
1e-07
40
0
40
0
40
0
40
0
40
1
40
1
40
1
40
1
10
34.8749542322
20
53.4084105884
30
0
10
34.9634647662
20
53.3349533164
30
0
10
34.9734305402
20
53.2699343344
30
0
10
34.9127367322
20
53.1565270964
30
0
0
SPLINE
5
A7
100
AcDbEntity
8
komachi
6
ByLayer
62
7
370
-1
100
AcDbSpline
210
0
220
0
230
1
70
8
71
3
72
8
73
4
74
0
42
1e-07
43
1e-07
40
0
40
0
40
0
40
0
40
1
40
1
40
1
40
1
10
34.9127367322
20
53.1565270964
30
0
10
34.8546516422
20
53.0479957644
30
0
10
34.8577354082
20
53.0053970964
30
0
10
34.9232318182
20
53.0053970964
30
0
0
SPLINE
5
A8
100
AcDbEntity
8
komachi
6
ByLayer
62
7
370
-1
100
AcDbSpline
210
0
220
0
230
1
70
8
71
3
72
8
73
4
74
0
42
1e-07
43
1e-07
40
0
40
0
40
0
40
0
40
1
40
1
40
1
40
1
10
34.9232318182
20
53.0053970964
30
0
10
34.9803361102
20
53.0053970964
30
0
10
34.9974540222
20
52.9302847724
30
0
10
34.9673113222
20
52.8101875924
30
0
0
SPLINE
5
A9
100
AcDbEntity
8
komachi
6
ByLayer
62
7
370
-1
100
AcDbSpline
210
0
220
0
230
1
70
8
71
3
72
8
73
4
74
0
42
1e-07
43
1e-07
40
0
40
0
40
0
40
0
40
1
40
1
40
1
40
1
10
34.9673113222
20
52.8101875924
30
0
10
34.9264398202
20
52.6473439464
30
0
10
34.9424234242
20
52.6245549704
30
0
10
35.0743618182
20
52.6590575924
30
0
0
SPLINE
5
AA
100
AcDbEntity
8
komachi
6
ByLayer
62
7
370
-1
100
AcDbSpline
210
0
220
0
230
1
70
8
71
3
72
8
73
4
74
0
42
1e-07
43
1e-07
40
0
40
0
40
0
40
0
40
1
40
1
40
1
40
1
10
35.0743618182
20
52.6590575924
30
0
10
35.1607491542
20
52.6816485524
30
0
10
35.2881469842
20
52.7858516164
30
0
10
35.3577305682
20
52.8920495964
30
0
0
SPLINE
5
AB
100
AcDbEntity
8
komachi
6
ByLayer
62
7
370
-1
100
AcDbSpline
210
0
220
0
230
1
70
8
71
3
72
8
73
4
74
0
42
1e-07
43
1e-07
40
0
40
0
40
0
40
0
40
1
40
1
40
1
40
1
10
35.3577305682
20
52.8920495964
30
0
10
35.4483562082
20
53.0303625824
30
0
10
35.5576372402
20
53.0839478064
30
0
10
35.7439517322
20
53.0830612564
30
0
0
SPLINE
5
AC
100
AcDbEntity
8
komachi
6
ByLayer
62
7
370
-1
100
AcDbSpline
210
0
220
0
230
1
70
8
71
3
72
8
73
4
74
0
42
1e-07
43
1e-07
40
0
40
0
40
0
40
0
40
1
40
1
40
1
40
1
10
35.7439517322
20
53.0830612564
30
0
10
35.9358739802
20
53.0821504304
30
0
10
35.9741750822
20
53.0628264964
30
0
10
35.8866855682
20
53.0074962564
30
0
0
SPLINE
5
AD
100
AcDbEntity
8
komachi
6
ByLayer
62
7
370
-1
100
AcDbSpline
210
0
220
0
230
1
70
8
71
3
72
8
73
4
74
0
42
1e-07
43
1e-07
40
0
40
0
40
0
40
0
40
1
40
1
40
1
40
1
10
35.8866855682
20
53.0074962564
30
0
10
35.8214759482
20
52.9662544264
30
0
10
35.7896991402
20
52.9113728164
30
0
10
35.8153186502
20
52.8857525924
30
0
0
SPLINE
5
AE
100
AcDbEntity
8
komachi
6
ByLayer
62
7
370
-1
100
AcDbSpline
210
0
220
0
230
1
70
8
71
3
72
8
73
4
74
0
42
1e-07
43
1e-07
40
0
40
0
40
0
40
0
40
1
40
1
40
1
40
1
10
35.8153186502
20
52.8857525924
30
0
10
35.8788134802
20
52.8222577624
30
0
10
36.1259748142
20
52.9243987944
30
0
10
36.1259748142
20
53.0137932604
30
0
0
SPLINE
5
AF
100
AcDbEntity
8
komachi
6
ByLayer
62
7
370
-1
100
AcDbSpline
210
0
220
0
230
1
70
8
71
3
72
8
73
4
74
0
42
1e-07
43
1e-07
40
0
40
0
40
0
40
0
40
1
40
1
40
1
40
1
10
36.1259748142
20
53.0137932604
30
0
10
36.1259748142
20
53.0533812284
30
0
10
36.1783255322
20
53.0851601784
30
0
10
36.2414212362
20
53.0851601784
30
0
0
SPLINE
5
B0
100
AcDbEntity
8
komachi
6
ByLayer
62
7
370
-1
100
AcDbSpline
210
0
220
0
230
1
70
8
71
3
72
8
73
4
74
0
42
1e-07
43
1e-07
40
0
40
0
40
0
40
0
40
1
40
1
40
1
40
1
10
36.2414212362
20
53.0851601784
30
0
10
36.3045183682
20
53.0851601784
30
0
10
36.4683842242
20
53.1808166624
30
0
10
36.6066522282
20
53.2971620104
30
0
0
SPLINE
5
B1
100
AcDbEntity
8
komachi
6
ByLayer
62
7
370
-1
100
AcDbSpline
210
0
220
0
230
1
70
8
71
3
72
8
73
4
74
0
42
1e-07
43
1e-07
40
0
40
0
40
0
40
0
40
1
40
1
40
1
40
1
10
36.6066522282
20
53.2971620104
30
0
10
36.7449207082
20
53.4135066444
30
0
10
36.8786169702
20
53.4869827184
30
0
10
36.9047141462
20
53.4608862564
30
0
0
SPLINE
5
B2
100
AcDbEntity
8
komachi
6
ByLayer
62
7
370
-1
100
AcDbSpline
210
0
220
0
230
1
70
8
71
3
72
8
73
4
74
0
42
1e-07
43
1e-07
40
0
40
0
40
0
40
0
40
1
40
1
40
1
40
1
10
36.9047141462
20
53.4608862564
30
0
10
36.9598435142
20
53.4057559364
30
0
10
36.7213080142
20
52.8721568424
30
0
10
36.6108500722
20
52.8038905884
30
0
0
SPLINE
5
B3
100
AcDbEntity
8
komachi
6
ByLayer
62
7
370
-1
100
AcDbSpline
210
0
220
0
230
1
70
8
71
3
72
8
73
4
74
0
42
1e-07
43
1e-07
40
0
40
0
40
0
40
0
40
1
40
1
40
1
40
1
10
36.6108500722
20
52.8038905884
30
0
10
36.5697696062
20
52.7785007484
30
0
10
36.4551338122
20
52.6459295124
30
0
10
36.3568678962
20
52.5079275924
30
0
0
LWPOLYLINE
5
B4
100
AcDbEntity
8
komachi
6
ByLayer
62
7
370
-1
100
AcDbPolyline
90
5
70
0
43
0
10
17.0185249002
20
23.6861770964
10
17.0227229822
20
23.1824105884
10
18.5529142322
20
23.1824105884
10
20.0831054822
20
23.1824105884
10
20.1355811502
20
23.4028083464
0
SPLINE
5
B5
100
AcDbEntity
8
komachi
6
ByLayer
62
7
370
-1
100
AcDbSpline
210
0
220
0
230
1
70
8
71
3
72
8
73
4
74
0
42
1e-07
43
1e-07
40
0
40
0
40
0
40
0
40
1
40
1
40
1
40
1
10
36.4849085642
20
52.3127180884
30
0
10
36.7752642802
20
52.3671893864
30
0
10
36.7898941402
20
52.3619245884
30
0
10
36.7493860642
20
52.1846774204
30
0
0
SPLINE
5
B6
100
AcDbEntity
8
komachi
6
ByLayer
62
7
370
-1
100
AcDbSpline
210
0
220
0
230
1
70
8
71
3
72
8
73
4
74
0
42
1e-07
43
1e-07
40
0
40
0
40
0
40
0
40
1
40
1
40
1
40
1
10
36.7493860642
20
52.1846774204
30
0
10
36.7258835642
20
52.0818423804
30
0
10
36.5418898102
20
51.5898128424
30
0
10
36.3421747282
20
51.0910838424
30
0
0
SPLINE
5
B7
100
AcDbEntity
8
komachi
6
ByLayer
62
7
370
-1
100
AcDbSpline
210
0
220
0
230
1
70
8
71
3
72
8
73
4
74
0
42
1e-07
43
1e-07
40
0
40
0
40
0
40
0
40
1
40
1
40
1
40
1
10
36.3421747282
20
51.0910838424
30
0
10
35.9778283822
20
50.1812355464
30
0
10
35.9472001622
20
49.9623819324
30
0
10
36.2477184782
20
50.4424843384
30
0
0
SPLINE
5
B8
100
AcDbEntity
8
komachi
6
ByLayer
62
7
370
-1
100
AcDbSpline
210
0
220
0
230
1
70
8
71
3
72
8
73
4
74
0
42
1e-07
43
1e-07
40
0
40
0
40
0
40
0
40
1
40
1
40
1
40
1
10
36.2477184782
20
50.4424843384
30
0
10
36.3363813322
20
50.5841307524
30
0
10
36.4447751002
20
50.7563213724
30
0
10
36.4891066462
20
50.8266063424
30
0
0
SPLINE
5
B9
100
AcDbEntity
8
komachi
6
ByLayer
62
7
370
-1
100
AcDbSpline
210
0
220
0
230
1
70
8
71
3
72
8
73
4
74
0
42
1e-07
43
1e-07
40
0
40
0
40
0
40
0
40
1
40
1
40
1
40
1
10
36.4891066462
20
50.8266063424
30
0
10
36.5334379542
20
50.8968905984
30
0
10
36.7263874102
20
51.0953678424
30
0
10
36.9173081542
20
51.2674020964
30
0
0
LWPOLYLINE
5
BA
100
AcDbEntity
8
komachi
6
ByLayer
62
7
370
-1
100
AcDbPolyline
90
3
70
0
43
0
10
36.3568678962
20
52.5079275924
10
36.1784504822
20
52.2560443384
10
36.4849085642
20
52.3127180884
0
SPLINE
5
BB
100
AcDbEntity
8
komachi
6
ByLayer
62
7
370
-1
100
AcDbSpline
210
0
220
0
230
1
70
8
71
3
72
8
73
4
74
0
42
1e-07
43
1e-07
40
0
40
0
40
0
40
0
40
1
40
1
40
1
40
1
10
37.2069741462
20
51.1435595104
30
0
10
37.1761993182
20
50.9033910924
30
0
10
37.0838353262
20
50.5733769604
30
0
10
37.0012693182
20
50.4088999204
30
0
0
SPLINE
5
BC
100
AcDbEntity
8
komachi
6
ByLayer
62
7
370
-1
100
AcDbSpline
210
0
220
0
230
1
70
8
71
3
72
8
73
4
74
0
42
1e-07
43
1e-07
40
0
40
0
40
0
40
0
40
1
40
1
40
1
40
1
10
37.0012693182
20
50.4088999204
30
0
10
36.8208374722
20
50.0494704164
30
0
10
36.8194377942
20
50.0226787564
30
0
10
36.9676849002
20
50.0226787564
30
0
0
SPLINE
5
BD
100
AcDbEntity
8
komachi
6
ByLayer
62
7
370
-1
100
AcDbSpline
210
0
220
0
230
1
70
8
71
3
72
8
73
4
74
0
42
1e-07
43
1e-07
40
0
40
0
40
0
40
0
40
1
40
1
40
1
40
1
10
36.9676849002
20
50.0226787564
30
0
10
37.0329549722
20
50.0226787564
30
0
10
37.0960930402
20
49.9253893544
30
0
10
37.1125178962
20
49.8001818384
30
0
0
SPLINE
5
BE
100
AcDbEntity
8
komachi
6
ByLayer
62
7
370
-1
100
AcDbSpline
210
0
220
0
230
1
70
8
71
3
72
8
73
4
74
0
42
1e-07
43
1e-07
40
0
40
0
40
0
40
0
40
1
40
1
40
1
40
1
10
37.1125178962
20
49.8001818384
30
0
10
37.1381057522
20
49.6051179904
30
0
10
37.1561687622
20
49.6277403664
30
0
10
37.2657468182
20
49.9785990144
30
0
0
SPLINE
5
BF
100
AcDbEntity
8
komachi
6
ByLayer
62
7
370
-1
100
AcDbSpline
210
0
220
0
230
1
70
8
71
3
72
8
73
4
74
0
42
1e-07
43
1e-07
40
0
40
0
40
0
40
0
40
1
40
1
40
1
40
1
10
37.2657468182
20
49.9785990144
30
0
10
37.4512385442
20
50.5725251584
30
0
10
37.5764029822
20
50.5425611964
30
0
10
37.5764029822
20
49.9072320964
30
0
0
SPLINE
5
C0
100
AcDbEntity
8
komachi
6
ByLayer
62
7
370
-1
100
AcDbSpline
210
0
220
0
230
1
70
8
71
3
72
8
73
4
74
0
42
1e-07
43
1e-07
40
0
40
0
40
0
40
0
40
1
40
1
40
1
40
1
10
37.5764029822
20
49.9072320964
30
0
10
37.5764029822
20
49.6153834064
30
0
10
37.6040262142
20
49.3776054604
30
0
10
37.6372748142
20
49.3782770964
30
0
0
SPLINE
5
C1
100
AcDbEntity
8
komachi
6
ByLayer
62
7
370
-1
100
AcDbSpline
210
0
220
0
230
1
70
8
71
3
72
8
73
4
74
0
42
1e-07
43
1e-07
40
0
40
0
40
0
40
0
40
1
40
1
40
1
40
1
10
37.6372748142
20
49.3782770964
30
0
10
37.7592072122
20
49.3807670524
30
0
10
37.8797887222
20
49.5025623624
30
0
10
37.9353367322
20
49.6805370964
30
0
0
SPLINE
5
C2
100
AcDbEntity
8
komachi
6
ByLayer
62
7
370
-1
100
AcDbSpline
210
0
220
0
230
1
70
8
71
3
72
8
73
4
74
0
42
1e-07
43
1e-07
40
0
40
0
40
0
40
0
40
1
40
1
40
1
40
1
10
37.9353367322
20
49.6805370964
30
0
10
37.9989757902
20
49.8844376464
30
0
10
38.1570182622
20
49.8455146504
30
0
10
38.1221500722
20
49.6343586704
30
0
0
SPLINE
5
C3
100
AcDbEntity
8
komachi
6
ByLayer
62
7
370
-1
100
AcDbSpline
210
0
220
0
230
1
70
8
71
3
72
8
73
4
74
0
42
1e-07
43
1e-07
40
0
40
0
40
0
40
0
40
1
40
1
40
1
40
1
10
38.1221500722
20
49.6343586704
30
0
10
38.1066322342
20
49.5403805624
30
0
10
38.1672372682
20
49.4902879884
30
0
10
38.3194587362
20
49.4727333464
30
0
0
SPLINE
5
C4
100
AcDbEntity
8
komachi
6
ByLayer
62
7
370
-1
100
AcDbSpline
210
0
220
0
230
1
70
8
71
3
72
8
73
4
74
0
42
1e-07
43
1e-07
40
0
40
0
40
0
40
0
40
1
40
1
40
1
40
1
10
38.3194587362
20
49.4727333464
30
0
10
38.5187225702
20
49.4497542084
30
0
10
38.5338657962
20
49.4259858624
30
0
10
38.4873810642
20
49.1935626784
30
0
0
LWPOLYLINE
5
C5
100
AcDbEntity
8
komachi
6
ByLayer
62
7
370
-1
100
AcDbPolyline
90
3
70
0
43
0
10
36.9173081542
20
51.2674020964
10
37.2636478962
20
51.5801574204
10
37.2069741462
20
51.1435595104
0
SPLINE
5
C6
100
AcDbEntity
8
komachi
6
ByLayer
62
7
370
-1
100
AcDbSpline
210
0
220
0
230
1
70
8
71
3
72
8
73
4
74
0
42
1e-07
43
1e-07
40
0
40
0
40
0
40
0
40
1
40
1
40
1
40
1
10
38.6574023142
20
49.0823143384
30
0
10
38.8329280282
20
49.1973228404
30
0
10
38.9018997142
20
49.2081451764
30
0
10
38.9953456542
20
49.1305919244
30
0
0
SPLINE
5
C7
100
AcDbEntity
8
komachi
6
ByLayer
62
7
370
-1
100
AcDbSpline
210
0
220
0
230
1
70
8
71
3
72
8
73
4
74
0
42
1e-07
43
1e-07
40
0
40
0
40
0
40
0
40
1
40
1
40
1
40
1
10
38.9953456542
20
49.1305919244
30
0
10
39.1327787542
20
49.0165323284
30
0
10
39.1278571522
20
49.0132103244
30
0
10
39.2703184782
20
49.3782770964
30
0
0
SPLINE
5
C8
100
AcDbEntity
8
komachi
6
ByLayer
62
7
370
-1
100
AcDbSpline
210
0
220
0
230
1
70
8
71
3
72
8
73
4
74
0
42
1e-07
43
1e-07
40
0
40
0
40
0
40
0
40
1
40
1
40
1
40
1
10
39.2703184782
20
49.3782770964
30
0
10
39.4004466442
20
49.7117417524
30
0
10
39.4820716002
20
49.7775392324
30
0
10
39.7572928962
20
49.7791914284
30
0
0
SPLINE
5
C9
100
AcDbEntity
8
komachi
6
ByLayer
62
7
370
-1
100
AcDbSpline
210
0
220
0
230
1
70
8
71
3
72
8
73
4
74
0
42
1e-07
43
1e-07
40
0
40
0
40
0
40
0
40
1
40
1
40
1
40
1
10
39.7572928962
20
49.7791914284
30
0
10
40.0009653882
20
49.7806544144
30
0
10
40.1561080682
20
49.9153857384
30
0
10
40.1561080682
20
50.1255311704
30
0
0
SPLINE
5
CA
100
AcDbEntity
8
komachi
6
ByLayer
62
7
370
-1
100
AcDbSpline
210
0
220
0
230
1
70
8
71
3
72
8
73
4
74
0
42
1e-07
43
1e-07
40
0
40
0
40
0
40
0
40
1
40
1
40
1
40
1
10
40.1561080682
20
50.1255311704
30
0
10
40.1561080682
20
50.3748499744
30
0
10
40.3481559802
20
50.2345354084
30
0
10
40.4142885642
20
49.9366186704
30
0
0
SPLINE
5
CB
100
AcDbEntity
8
komachi
6
ByLayer
62
7
370
-1
100
AcDbSpline
210
0
220
0
230
1
70
8
71
3
72
8
73
4
74
0
42
1e-07
43
1e-07
40
0
40
0
40
0
40
0
40
1
40
1
40
1
40
1
10
40.4142885642
20
49.9366186704
30
0
10
40.4759603142
20
49.6587953204
30
0
10
40.4320600242
20
49.2929781344
30
0
10
40.3282284782
20
49.2166520104
30
0
0
SPLINE
5
CC
100
AcDbEntity
8
komachi
6
ByLayer
62
7
370
-1
100
AcDbSpline
210
0
220
0
230
1
70
8
71
3
72
8
73
4
74
0
42
1e-07
43
1e-07
40
0
40
0
40
0
40
0
40
1
40
1
40
1
40
1
10
40.3282284782
20
49.2166520104
30
0
10
40.0172343542
20
48.9880427764
30
0
10
39.8867030162
20
48.1018754804
30
0
10
40.0805430682
20
47.5458258464
30
0
0
SPLINE
5
CD
100
AcDbEntity
8
komachi
6
ByLayer
62
7
370
-1
100
AcDbSpline
210
0
220
0
230
1
70
8
71
3
72
8
73
4
74
0
42
1e-07
43
1e-07
40
0
40
0
40
0
40
0
40
1
40
1
40
1
40
1
10
40.0805430682
20
47.5458258464
30
0
10
40.1737438682
20
47.2784687844
30
0
10
40.1562989442
20
47.2435270524
30
0
10
39.5536872282
20
46.3472811704
30
0
0
SPLINE
5
CE
100
AcDbEntity
8
komachi
6
ByLayer
62
7
370
-1
100
AcDbSpline
210
0
220
0
230
1
70
8
71
3
72
8
73
4
74
0
42
1e-07
43
1e-07
40
0
40
0
40
0
40
0
40
1
40
1
40
1
40
1
10
39.5536872282
20
46.3472811704
30
0
10
39.1770248582
20
45.7870824824
30
0
10
39.1401874562
20
45.7216558064
30
0
10
38.7476604822
20
44.9850120104
30
0
0
SPLINE
5
CF
100
AcDbEntity
8
komachi
6
ByLayer
62
7
370
-1
100
AcDbSpline
210
0
220
0
230
1
70
8
71
3
72
8
73
4
74
0
42
1e-07
43
1e-07
40
0
40
0
40
0
40
0
40
1
40
1
40
1
40
1
10
38.7476604822
20
44.9850120104
30
0
10
38.0470951062
20
43.6702804944
30
0
10
38.0542303462
20
42.5203416064
30
0
10
38.7707498142
20
41.7420140144
30
0
0
SPLINE
5
D0
100
AcDbEntity
8
komachi
6
ByLayer
62
7
370
-1
100
AcDbSpline
210
0
220
0
230
1
70
8
71
3
72
8
73
4
74
0
42
1e-07
43
1e-07
40
0
40
0
40
0
40
0
40
1
40
1
40
1
40
1
10
38.7707498142
20
41.7420140144
30
0
10
39.0969300042
20
41.3876962744
30
0
10
40.5113482962
20
40.1887336704
30
0
10
40.6032010642
20
40.1887336704
30
0
0
SPLINE
5
D1
100
AcDbEntity
8
komachi
6
ByLayer
62
7
370
-1
100
AcDbSpline
210
0
220
0
230
1
70
8
71
3
72
8
73
4
74
0
42
1e-07
43
1e-07
40
0
40
0
40
0
40
0
40
1
40
1
40
1
40
1
10
40.6032010642
20
40.1887336704
30
0
10
40.6349133742
20
40.1887336704
30
0
10
40.7444236002
20
40.1079628964
30
0
10
40.8445892322
20
40.0082170964
30
0
0
SPLINE
5
D2
100
AcDbEntity
8
komachi
6
ByLayer
62
7
370
-1
100
AcDbSpline
210
0
220
0
230
1
70
8
71
3
72
8
73
4
74
0
42
1e-07
43
1e-07
40
0
40
0
40
0
40
0
40
1
40
1
40
1
40
1
10
40.8445892322
20
40.0082170964
30
0
10
40.9447555782
20
39.9084712964
30
0
10
41.1987384682
20
39.6994920644
30
0
10
41.4092275722
20
39.5443320104
30
0
0
SPLINE
5
D3
100
AcDbEntity
8
komachi
6
ByLayer
62
7
370
-1
100
AcDbSpline
210
0
220
0
230
1
70
8
71
3
72
8
73
4
74
0
42
1e-07
43
1e-07
40
0
40
0
40
0
40
0
40
1
40
1
40
1
40
1
10
41.4092275722
20
39.5443320104
30
0
10
41.6197169142
20
39.3891719564
30
0
10
41.8579520582
20
39.1979084924
30
0
10
41.9402817322
20
39.1203283464
30
0
0
SPLINE
5
D4
100
AcDbEntity
8
komachi
6
ByLayer
62
7
370
-1
100
AcDbSpline
210
0
220
0
230
1
70
8
71
3
72
8
73
4
74
0
42
1e-07
43
1e-07
40
0
40
0
40
0
40
0
40
1
40
1
40
1
40
1
10
41.9402817322
20
39.1203283464
30
0
10
42.0226099782
20
39.0427484384
30
0
10
42.1187467462
20
38.9796936704
30
0
10
42.1543824862
20
38.9796936704
30
0
0
SPLINE
5
D5
100
AcDbEntity
8
komachi
6
ByLayer
62
7
370
-1
100
AcDbSpline
210
0
220
0
230
1
70
8
71
3
72
8
73
4
74
0
42
1e-07
43
1e-07
40
0
40
0
40
0
40
0
40
1
40
1
40
1
40
1
10
42.1543824862
20
38.9796936704
30
0
10
42.1900177502
20
38.9796936704
30
0
10
42.3321308822
20
38.8613924384
30
0
10
42.4692367322
20
38.7173150924
30
0
0
SPLINE
5
D6
100
AcDbEntity
8
komachi
6
ByLayer
62
7
370
-1
100
AcDbSpline
210
0
220
0
230
1
70
8
71
3
72
8
73
4
74
0
42
1e-07
43
1e-07
40
0
40
0
40
0
40
0
40
1
40
1
40
1
40
1
10
42.4692367322
20
38.7173150924
30
0
10
42.9213927022
20
38.2421678464
30
0
10
42.9576524782
20
37.3176040104
30
0
10
42.5301085642
20
37.1535394244
30
0
0
SPLINE
5
D7
100
AcDbEntity
8
komachi
6
ByLayer
62
7
370
-1
100
AcDbSpline
210
0
220
0
230
1
70
8
71
3
72
8
73
4
74
0
42
1e-07
43
1e-07
40
0
40
0
40
0
40
0
40
1
40
1
40
1
40
1
10
42.5301085642
20
37.1535394244
30
0
10
42.4659292462
20
37.1289118984
30
0
10
42.4125629822
20
37.0609966944
30
0
10
42.4125629822
20
37.0024094244
30
0
0
SPLINE
5
D8
100
AcDbEntity
8
komachi
6
ByLayer
62
7
370
-1
100
AcDbSpline
210
0
220
0
230
1
70
8
71
3
72
8
73
4
74
0
42
1e-07
43
1e-07
40
0
40
0
40
0
40
0
40
1
40
1
40
1
40
1
10
42.4125629822
20
37.0024094244
30
0
10
42.4125629822
20
36.9438214404
30
0
10
42.3639724262
20
36.8467669444
30
0
10
42.3034135642
20
36.7862095104
30
0
0
SPLINE
5
D9
100
AcDbEntity
8
komachi
6
ByLayer
62
7
370
-1
100
AcDbSpline
210
0
220
0
230
1
70
8
71
3
72
8
73
4
74
0
42
1e-07
43
1e-07
40
0
40
0
40
0
40
0
40
1
40
1
40
1
40
1
10
42.3034135642
20
36.7862095104
30
0
10
42.2428554162
20
36.7256506484
30
0
10
42.0247600702
20
36.4283329564
30
0
10
41.8185380682
20
36.1271149204
30
0
0
SPLINE
5
DA
100
AcDbEntity
8
komachi
6
ByLayer
62
7
370
-1
100
AcDbSpline
210
0
220
0
230
1
70
8
71
3
72
8
73
4
74
0
42
1e-07
43
1e-07
40
0
40
0
40
0
40
0
40
1
40
1
40
1
40
1
10
41.8185380682
20
36.1271149204
30
0
10
41.6123174942
20
35.8258973604
30
0
10
41.3888740502
20
35.5253300164
30
0
10
41.3231674862
20
35.4596239284
30
0
0
SPLINE
5
DB
100
AcDbEntity
8
komachi
6
ByLayer
62
7
370
-1
100
AcDbSpline
210
0
220
0
230
1
70
8
71
3
72
8
73
4
74
0
42
1e-07
43
1e-07
40
0
40
0
40
0
40
0
40
1
40
1
40
1
40
1
10
41.3231674862
20
35.4596239284
30
0
10
41.2574616362
20
35.3939173644
30
0
10
41.2035229822
20
35.3055977064
30
0
10
41.2035229822
20
35.2623152644
30
0
0
SPLINE
5
DC
100
AcDbEntity
8
komachi
6
ByLayer
62
7
370
-1
100
AcDbSpline
210
0
220
0
230
1
70
8
71
3
72
8
73
4
74
0
42
1e-07
43
1e-07
40
0
40
0
40
0
40
0
40
1
40
1
40
1
40
1
10
41.2035229822
20
35.2623152644
30
0
10
41.2035229822
20
35.2190344884
30
0
10
41.1128449822
20
35.1005504724
30
0
10
41.0020162362
20
34.9978377644
30
0
0
SPLINE
5
DD
100
AcDbEntity
8
komachi
6
ByLayer
62
7
370
-1
100
AcDbSpline
210
0
220
0
230
1
70
8
71
3
72
8
73
4
74
0
42
1e-07
43
1e-07
40
0
40
0
40
0
40
0
40
1
40
1
40
1
40
1
10
41.0020162362
20
34.9978377644
30
0
10
40.8911877282
20
34.8951245804
30
0
10
40.8005097282
20
34.7769280684
30
0
10
40.8005097282
20
34.7354594244
30
0
0
SPLINE
5
DE
100
AcDbEntity
8
komachi
6
ByLayer
62
7
370
-1
100
AcDbSpline
210
0
220
0
230
1
70
8
71
3
72
8
73
4
74
0
42
1e-07
43
1e-07
40
0
40
0
40
0
40
0
40
1
40
1
40
1
40
1
10
40.8005097282
20
34.7354594244
30
0
10
40.8005097282
20
34.6939905424
30
0
10
40.6191537282
20
34.4354004484
30
0
10
40.3974962362
20
34.1603257604
30
0
0
SPLINE
5
DF
100
AcDbEntity
8
komachi
6
ByLayer
62
7
370
-1
100
AcDbSpline
210
0
220
0
230
1
70
8
71
3
72
8
73
4
74
0
42
1e-07
43
1e-07
40
0
40
0
40
0
40
0
40
1
40
1
40
1
40
1
10
40.3974962362
20
34.1603257604
30
0
10
40.1758389822
20
33.8852517864
30
0
10
39.9944829822
20
33.6471166024
30
0
10
39.9944829822
20
33.6313707604
30
0
0
SPLINE
5
E0
100
AcDbEntity
8
komachi
6
ByLayer
62
7
370
-1
100
AcDbSpline
210
0
220
0
230
1
70
8
71
3
72
8
73
4
74
0
42
1e-07
43
1e-07
40
0
40
0
40
0
40
0
40
1
40
1
40
1
40
1
10
39.9944829822
20
33.6313707604
30
0
10
39.9944829822
20
33.5890005724
30
0
10
36.2712838102
20
29.8720120104
30
0
10
36.2288272282
20
29.8720120104
30
0
0
SPLINE
5
E1
100
AcDbEntity
8
komachi
6
ByLayer
62
7
370
-1
100
AcDbSpline
210
0
220
0
230
1
70
8
71
3
72
8
73
4
74
0
42
1e-07
43
1e-07
40
0
40
0
40
0
40
0
40
1
40
1
40
1
40
1
10
36.2288272282
20
29.8720120104
30
0
10
36.1387206662
20
29.8720120104
30
0
10
32.8260357942
20
26.4534152344
30
0
10
32.0916434782
20
25.6025895104
30
0
0
SPLINE
5
E2
100
AcDbEntity
8
komachi
6
ByLayer
62
7
370
-1
100
AcDbSpline
210
0
220
0
230
1
70
8
71
3
72
8
73
4
74
0
42
1e-07
43
1e-07
40
0
40
0
40
0
40
0
40
1
40
1
40
1
40
1
10
32.0916434782
20
25.6025895104
30
0
10
31.8414098022
20
25.3126826624
30
0
10
31.5219121762
20
24.9537246364
30
0
10
31.3821719042
20
24.8049589284
30
0
0
SPLINE
5
E3
100
AcDbEntity
8
komachi
6
ByLayer
62
7
370
-1
100
AcDbSpline
210
0
220
0
230
1
70
8
71
3
72
8
73
4
74
0
42
1e-07
43
1e-07
40
0
40
0
40
0
40
0
40
1
40
1
40
1
40
1
10
31.3821719042
20
24.8049589284
30
0
10
31.2424325842
20
24.6561939344
30
0
10
31.1281897282
20
24.5129086524
30
0
10
31.1281897282
20
24.4859068384
30
0
0
SPLINE
5
E4
100
AcDbEntity
8
komachi
6
ByLayer
62
7
370
-1
100
AcDbSpline
210
0
220
0
230
1
70
8
71
3
72
8
73
4
74
0
42
1e-07
43
1e-07
40
0
40
0
40
0
40
0
40
1
40
1
40
1
40
1
10
31.1281897282
20
24.4859068384
30
0
10
31.1281897282
20
24.4589055004
30
0
10
31.0474189542
20
24.3525999444
30
0
10
30.9476731542
20
24.2487165144
30
0
0
SPLINE
5
E5
100
AcDbEntity
8
komachi
6
ByLayer
62
7
370
-1
100
AcDbSpline
210
0
220
0
230
1
70
8
71
3
72
8
73
4
74
0
42
1e-07
43
1e-07
40
0
40
0
40
0
40
0
40
1
40
1
40
1
40
1
10
30.9476731542
20
24.2487165144
30
0
10
30.8479273542
20
24.1448337984
30
0
10
30.6726132222
20
23.9608388544
30
0
10
30.5593530682
20
23.8415051784
30
0
0
SPLINE
5
E6
100
AcDbEntity
8
komachi
6
ByLayer
62
7
370
-1
100
AcDbSpline
210
0
220
0
230
1
70
8
71
3
72
8
73
4
74
0
42
1e-07
43
1e-07
40
0
40
0
40
0
40
0
40
1
40
1
40
1
40
1
10
30.5593530682
20
23.8415051784
30
0
10
30.4460936282
20
23.7221722164
30
0
10
30.3112252162
20
23.5247200384
30
0
10
30.2591922282
20
23.4028083464
30
0
0
LWPOLYLINE
5
E7
100
AcDbEntity
8
komachi
6
ByLayer
62
7
370
-1
100
AcDbPolyline
90
3
70
0
43
0
10
38.4873810642
20
49.1935626784
10
38.4349053962
20
48.9374813424
10
38.6574023142
20
49.0823143384
0
SPLINE
5
E8
100
AcDbEntity
8
komachi
6
ByLayer
62
7
370
-1
100
AcDbSpline
210
0
220
0
230
1
70
8
71
3
72
8
73
4
74
0
42
1e-07
43
1e-07
40
0
40
0
40
0
40
0
40
1
40
1
40
1
40
1
10
55.2019392322
20
23.5644336704
30
0
10
55.0639822942
20
24.6888903744
30
0
10
54.9744455042
20
25.2133545524
30
0
10
54.8283123142
20
25.7600165144
30
0
0
SPLINE
5
E9
100
AcDbEntity
8
komachi
6
ByLayer
62
7
370
-1
100
AcDbSpline
210
0
220
0
230
1
70
8
71
3
72
8
73
4
74
0
42
1e-07
43
1e-07
40
0
40
0
40
0
40
0
40
1
40
1
40
1
40
1
10
54.8283123142
20
25.7600165144
30
0
10
54.7394316902
20
26.0925025144
30
0
10
54.6674126522
20
26.4632117904
30
0
10
54.6666872282
20
26.5828355884
30
0
0
SPLINE
5
EA
100
AcDbEntity
8
komachi
6
ByLayer
62
7
370
-1
100
AcDbSpline
210
0
220
0
230
1
70
8
71
3
72
8
73
4
74
0
42
1e-07
43
1e-07
40
0
40
0
40
0
40
0
40
1
40
1
40
1
40
1
10
54.6666872282
20
26.5828355884
30
0
10
54.6659268182
20
26.7024586724
30
0
10
54.5780974402
20
27.0828864404
30
0
10
54.4714774862
20
27.4287437564
30
0
0
SPLINE
5
EB
100
AcDbEntity
8
komachi
6
ByLayer
62
7
370
-1
100
AcDbSpline
210
0
220
0
230
1
70
8
71
3
72
8
73
4
74
0
42
1e-07
43
1e-07
40
0
40
0
40
0
40
0
40
1
40
1
40
1
40
1
10
54.4714774862
20
27.4287437564
30
0
10
54.3648582462
20
27.7746003584
30
0
10
54.2588135382
20
28.1668457784
30
0
10
54.2363863222
20
28.2998401784
30
0
0
SPLINE
5
EC
100
AcDbEntity
8
komachi
6
ByLayer
62
7
370
-1
100
AcDbSpline
210
0
220
0
230
1
70
8
71
3
72
8
73
4
74
0
42
1e-07
43
1e-07
40
0
40
0
40
0
40
0
40
1
40
1
40
1
40
1
10
54.2363863222
20
28.2998401784
30
0
10
54.2139607722
20
28.4328345784
30
0
10
54.1300393542
20
28.7698485284
30
0
10
54.0495729822
20
29.0491931744
30
0
0
SPLINE
5
ED
100
AcDbEntity
8
komachi
6
ByLayer
62
7
370
-1
100
AcDbSpline
210
0
220
0
230
1
70
8
71
3
72
8
73
4
74
0
42
1e-07
43
1e-07
40
0
40
0
40
0
40
0
40
1
40
1
40
1
40
1
10
54.0495729822
20
29.0491931744
30
0
10
53.8768885122
20
29.6486775704
30
0
10
53.9428416442
20
29.7486556584
30
0
10
54.4085067322
20
29.5823462564
30
0
0
SPLINE
5
EE
100
AcDbEntity
8
komachi
6
ByLayer
62
7
370
-1
100
AcDbSpline
210
0
220
0
230
1
70
8
71
3
72
8
73
4
74
0
42
1e-07
43
1e-07
40
0
40
0
40
0
40
0
40
1
40
1
40
1
40
1
10
54.4085067322
20
29.5823462564
30
0
10
54.7715873942
20
29.4526752884
30
0
10
55.1067782642
20
29.4413693364
30
0
10
55.3152867322
20
29.5529599204
30
0
0
SPLINE
5
EF
100
AcDbEntity
8
komachi
6
ByLayer
62
7
370
-1
100
AcDbSpline
210
0
220
0
230
1
70
8
71
3
72
8
73
4
74
0
42
1e-07
43
1e-07
40
0
40
0
40
0
40
0
40
1
40
1
40
1
40
1
10
55.3152867322
20
29.5529599204
30
0
10
55.4660640162
20
29.6336531064
30
0
10
55.4613104422
20
29.6612972824
30
0
10
55.1641567322
20
30.2183515144
30
0
0
SPLINE
5
F0
100
AcDbEntity
8
komachi
6
ByLayer
62
7
370
-1
100
AcDbSpline
210
0
220
0
230
1
70
8
71
3
72
8
73
4
74
0
42
1e-07
43
1e-07
40
0
40
0
40
0
40
0
40
1
40
1
40
1
40
1
10
55.1641567322
20
30.2183515144
30
0
10
54.7045582642
20
31.0799303164
30
0
10
54.5005784602
20
31.4282768744
30
0
10
54.3749223142
20
31.5701255884
30
0
0
SPLINE
5
F1
100
AcDbEntity
8
komachi
6
ByLayer
62
7
370
-1
100
AcDbSpline
210
0
220
0
230
1
70
8
71
3
72
8
73
4
74
0
42
1e-07
43
1e-07
40
0
40
0
40
0
40
0
40
1
40
1
40
1
40
1
10
54.3749223142
20
31.5701255884
30
0
10
54.3129233142
20
31.6401135344
30
0
10
54.2615748142
20
31.7242229724
30
0
10
54.2615748142
20
31.7569389284
30
0
0
SPLINE
5
F2
100
AcDbEntity
8
komachi
6
ByLayer
62
7
370
-1
100
AcDbSpline
210
0
220
0
230
1
70
8
71
3
72
8
73
4
74
0
42
1e-07
43
1e-07
40
0
40
0
40
0
40
0
40
1
40
1
40
1
40
1
10
54.2615748142
20
31.7569389284
30
0
10
54.2615748142
20
31.8442470864
30
0
10
53.6161623682
20
32.7025762364
30
0
10
53.2246549862
20
33.1360001784
30
0
0
SPLINE
5
F3
100
AcDbEntity
8
komachi
6
ByLayer
62
7
370
-1
100
AcDbSpline
210
0
220
0
230
1
70
8
71
3
72
8
73
4
74
0
42
1e-07
43
1e-07
40
0
40
0
40
0
40
0
40
1
40
1
40
1
40
1
10
53.2246549862
20
33.1360001784
30
0
10
52.8018953482
20
33.6040236084
30
0
10
52.3977932442
20
34.1480144964
30
0
10
52.2045274862
20
34.5066652644
30
0
0
SPLINE
5
F4
100
AcDbEntity
8
komachi
6
ByLayer
62
7
370
-1
100
AcDbSpline
210
0
220
0
230
1
70
8
71
3
72
8
73
4
74
0
42
1e-07
43
1e-07
40
0
40
0
40
0
40
0
40
1
40
1
40
1
40
1
10
52.2045274862
20
34.5066652644
30
0
10
51.3428918022
20
36.1056335164
30
0
10
51.4085957482
20
35.8623087424
30
0
10
51.5727200722
20
36.7904075924
30
0
0
SPLINE
5
F5
100
AcDbEntity
8
komachi
6
ByLayer
62
7
370
-1
100
AcDbSpline
210
0
220
0
230
1
70
8
71
3
72
8
73
4
74
0
42
1e-07
43
1e-07
40
0
40
0
40
0
40
0
40
1
40
1
40
1
40
1
10
51.5727200722
20
36.7904075924
30
0
10
51.6346767082
20
37.1407597764
30
0
10
51.5178332262
20
37.3495590804
30
0
10
50.9094274002
20
37.9700612564
30
0
0
LWPOLYLINE
5
F6
100
AcDbEntity
8
komachi
6
ByLayer
62
7
370
-1
100
AcDbPolyline
90
5
70
0
43
0
10
30.2591922282
20
23.4028083464
10
30.1647359782
20
23.1824105884
10
42.7064268182
20
23.1824105884
10
55.2502168182
20
23.1824105884
10
55.2019392322
20
23.5644336704
0
SPLINE
5
F7
100
AcDbEntity
8
komachi
6
ByLayer
62
7
370
-1
100
AcDbSpline
210
0
220
0
230
1
70
8
71
3
72
8
73
4
74
0
42
1e-07
43
1e-07
40
0
40
0
40
0
40
0
40
1
40
1
40
1
40
1
10
50.4119578962
20
39.3911030884
30
0
10
50.4095833702
20
40.1109869244
30
0
10
50.4380898202
20
40.3538963884
30
0
10
50.5420974862
20
40.5119838424
30
0
0
SPLINE
5
F8
100
AcDbEntity
8
komachi
6
ByLayer
62
7
370
-1
100
AcDbSpline
210
0
220
0
230
1
70
8
71
3
72
8
73
4
74
0
42
1e-07
43
1e-07
40
0
40
0
40
0
40
0
40
1
40
1
40
1
40
1
10
50.5420974862
20
40.5119838424
30
0
10
50.6363254942
20
40.6552060544
30
0
10
50.6742020042
20
40.8929133144
30
0
10
50.6743362362
20
41.3369018384
30
0
0
SPLINE
5
F9
100
AcDbEntity
8
komachi
6
ByLayer
62
7
370
-1
100
AcDbSpline
210
0
220
0
230
1
70
8
71
3
72
8
73
4
74
0
42
1e-07
43
1e-07
40
0
40
0
40
0
40
0
40
1
40
1
40
1
40
1
10
50.6743362362
20
41.3369018384
30
0
10
50.6744592822
20
41.6804705464
30
0
10
50.6937822642
20
41.9624120104
30
0
10
50.7184159782
20
41.9624120104
30
0
0
SPLINE
5
FA
100
AcDbEntity
8
komachi
6
ByLayer
62
7
370
-1
100
AcDbSpline
210
0
220
0
230
1
70
8
71
3
72
8
73
4
74
0
42
1e-07
43
1e-07
40
0
40
0
40
0
40
0
40
1
40
1
40
1
40
1
10
50.7184159782
20
41.9624120104
30
0
10
50.7430506442
20
41.9624120104
30
0
10
51.0787803462
20
41.8342033144
30
0
10
51.4635706542
20
41.6790432604
30
0
0
SPLINE
5
FB
100
AcDbEntity
8
komachi
6
ByLayer
62
7
370
-1
100
AcDbSpline
210
0
220
0
230
1
70
8
71
3
72
8
73
4
74
0
42
1e-07
43
1e-07
40
0
40
0
40
0
40
0
40
1
40
1
40
1
40
1
10
51.4635706542
20
41.6790432604
30
0
10
52.3416507102
20
41.3249725644
30
0
10
52.8860445322
20
41.3059120964
30
0
10
53.6654509782
20
41.5992801784
30
0
0
SPLINE
5
FC
100
AcDbEntity
8
komachi
6
ByLayer
62
7
370
-1
100
AcDbSpline
210
0
220
0
230
1
70
8
71
3
72
8
73
4
74
0
42
1e-07
43
1e-07
40
0
40
0
40
0
40
0
40
1
40
1
40
1
40
1
10
53.6654509782
20
41.5992801784
30
0
10
53.9598950582
20
41.7101089244
30
0
10
54.2505154302
20
41.8007869244
30
0
10
54.3119513222
20
41.8007869244
30
0
0
SPLINE
5
FD
100
AcDbEntity
8
komachi
6
ByLayer
62
7
370
-1
100
AcDbSpline
210
0
220
0
230
1
70
8
71
3
72
8
73
4
74
0
42
1e-07
43
1e-07
40
0
40
0
40
0
40
0
40
1
40
1
40
1
40
1
10
54.3119513222
20
41.8007869244
30
0
10
54.3733888802
20
41.8007869244
30
0
10
54.6111694442
20
41.8914649244
30
0
10
54.8409063222
20
42.0022936704
30
0
0
SPLINE
5
FE
100
AcDbEntity
8
komachi
6
ByLayer
62
7
370
-1
100
AcDbSpline
210
0
220
0
230
1
70
8
71
3
72
8
73
4
74
0
42
1e-07
43
1e-07
40
0
40
0
40
0
40
0
40
1
40
1
40
1
40
1
10
54.8409063222
20
42.0022936704
30
0
10
55.0706427242
20
42.1131221784
30
0
10
55.2868628682
20
42.2038001784
30
0
10
55.3215837362
20
42.2038001784
30
0
0
SPLINE
5
FF
100
AcDbEntity
8
komachi
6
ByLayer
62
7
370
-1
100
AcDbSpline
210
0
220
0
230
1
70
8
71
3
72
8
73
4
74
0
42
1e-07
43
1e-07
40
0
40
0
40
0
40
0
40
1
40
1
40
1
40
1
10
55.3215837362
20
42.2038001784
30
0
10
55.3563048422
20
42.2038001784
30
0
10
55.5830541062
20
42.2944781784
30
0
10
55.8253504822
20
42.4053069244
30
0
0
SPLINE
5
100
100
AcDbEntity
8
komachi
6
ByLayer
62
7
370
-1
100
AcDbSpline
210
0
220
0
230
1
70
8
71
3
72
8
73
4
74
0
42
1e-07
43
1e-07
40
0
40
0
40
0
40
0
40
1
40
1
40
1
40
1
10
55.8253504822
20
42.4053069244
30
0
10
56.0676461442
20
42.5161356704
30
0
10
56.3039173122
20
42.6068136704
30
0
10
56.3501074002
20
42.6068136704
30
0
0
SPLINE
5
101
100
AcDbEntity
8
komachi
6
ByLayer
62
7
370
-1
100
AcDbSpline
210
0
220
0
230
1
70
8
71
3
72
8
73
4
74
0
42
1e-07
43
1e-07
40
0
40
0
40
0
40
0
40
1
40
1
40
1
40
1
10
56.3501074002
20
42.6068136704
30
0
10
56.3962982022
20
42.6068136704
30
0
10
56.6264482482
20
42.6939626064
30
0
10
56.8601711502
20
42.7999240144
30
0
0
SPLINE
5
102
100
AcDbEntity
8
komachi
6
ByLayer
62
7
370
-1
100
AcDbSpline
210
0
220
0
230
1
70
8
71
3
72
8
73
4
74
0
42
1e-07
43
1e-07
40
0
40
0
40
0
40
0
40
1
40
1
40
1
40
1
10
56.8601711502
20
42.7999240144
30
0
10
57.0938933382
20
42.9058863744
30
0
10
57.5207772782
20
43.0918621924
30
0
10
57.8089317322
20
43.2134325924
30
0
0
SPLINE
5
103
100
AcDbEntity
8
komachi
6
ByLayer
62
7
370
-1
100
AcDbSpline
210
0
220
0
230
1
70
8
71
3
72
8
73
4
74
0
42
1e-07
43
1e-07
40
0
40
0
40
0
40
0
40
1
40
1
40
1
40
1
10
57.8089317322
20
43.2134325924
30
0
10
58.0970861862
20
43.3350041824
30
0
10
58.5193462622
20
43.5198892464
30
0
10
58.7492961502
20
43.6248420104
30
0
0
SPLINE
5
104
100
AcDbEntity
8
komachi
6
ByLayer
62
7
370
-1
100
AcDbSpline
210
0
220
0
230
1
70
8
71
3
72
8
73
4
74
0
42
1e-07
43
1e-07
40
0
40
0
40
0
40
0
40
1
40
1
40
1
40
1
10
58.7492961502
20
43.6248420104
30
0
10
58.9792460382
20
43.7297947744
30
0
10
59.2020487862
20
43.8158536704
30
0
10
59.2425675722
20
43.8158536704
30
0
0
SPLINE
5
105
100
AcDbEntity
8
komachi
6
ByLayer
62
7
370
-1
100
AcDbSpline
210
0
220
0
230
1
70
8
71
3
72
8
73
4
74
0
42
1e-07
43
1e-07
40
0
40
0
40
0
40
0
40
1
40
1
40
1
40
1
10
59.2425675722
20
43.8158536704
30
0
10
59.2830873102
20
43.8158536704
30
0
10
59.4854182502
20
43.9065316704
30
0
10
59.6938586502
20
44.0173601784
30
0
0
SPLINE
5
106
100
AcDbEntity
8
komachi
6
ByLayer
62
7
370
-1
100
AcDbSpline
210
0
220
0
230
1
70
8
71
3
72
8
73
4
74
0
42
1e-07
43
1e-07
40
0
40
0
40
0
40
0
40
1
40
1
40
1
40
1
10
59.6938586502
20
44.0173601784
30
0
10
59.9022978602
20
44.1281889244
30
0
10
60.1085796002
20
44.2188669244
30
0
10
60.1514467322
20
44.2188669244
30
0
0
SPLINE
5
107
100
AcDbEntity
8
komachi
6
ByLayer
62
7
370
-1
100
AcDbSpline
210
0
220
0
230
1
70
8
71
3
72
8
73
4
74
0
42
1e-07
43
1e-07
40
0
40
0
40
0
40
0
40
1
40
1
40
1
40
1
10
60.1514467322
20
44.2188669244
30
0
10
60.1943124362
20
44.2188669244
30
0
10
60.3725989502
20
44.3095449244
30
0
10
60.5481629822
20
44.4203736704
30
0
0
SPLINE
5
108
100
AcDbEntity
8
komachi
6
ByLayer
62
7
370
-1
100
AcDbSpline
210
0
220
0
230
1
70
8
71
3
72
8
73
4
74
0
42
1e-07
43
1e-07
40
0
40
0
40
0
40
0
40
1
40
1
40
1
40
1
10
60.5481629822
20
44.4203736704
30
0
10
60.7237270142
20
44.5312021784
30
0
10
60.9061690082
20
44.6218801784
30
0
10
60.9532753962
20
44.6218801784
30
0
0
SPLINE
5
109
100
AcDbEntity
8
komachi
6
ByLayer
62
7
370
-1
100
AcDbSpline
210
0
220
0
230
1
70
8
71
3
72
8
73
4
74
0
42
1e-07
43
1e-07
40
0
40
0
40
0
40
0
40
1
40
1
40
1
40
1
10
60.9532753962
20
44.6218801784
30
0
10
61.0970531002
20
44.6218801784
30
0
10
61.8907804822
20
45.2449139604
30
0
10
62.4225948142
20
45.7742464284
30
0
0
SPLINE
5
10A
100
AcDbEntity
8
komachi
6
ByLayer
62
7
370
-1
100
AcDbSpline
210
0
220
0
230
1
70
8
71
3
72
8
73
4
74
0
42
1e-07
43
1e-07
40
0
40
0
40
0
40
0
40
1
40
1
40
1
40
1
10
62.4225948142
20
45.7742464284
30
0
10
63.0446123362
20
46.3933608264
30
0
10
63.2749463562
20
46.6979308544
30
0
10
63.6547241462
20
47.4093890144
30
0
0
SPLINE
5
10B
100
AcDbEntity
8
komachi
6
ByLayer
62
7
370
-1
100
AcDbSpline
210
0
220
0
230
1
70
8
71
3
72
8
73
4
74
0
42
1e-07
43
1e-07
40
0
40
0
40
0
40
0
40
1
40
1
40
1
40
1
10
63.6547241462
20
47.4093890144
30
0
10
63.8184253062
20
47.7160567744
30
0
10
63.9799713762
20
47.9962027664
30
0
10
64.0136578962
20
48.0328002644
30
0
0
SPLINE
5
10C
100
AcDbEntity
8
komachi
6
ByLayer
62
7
370
-1
100
AcDbSpline
210
0
220
0
230
1
70
8
71
3
72
8
73
4
74
0
42
1e-07
43
1e-07
40
0
40
0
40
0
40
0
40
1
40
1
40
1
40
1
10
64.0136578962
20
48.0328002644
30
0
10
64.0473437022
20
48.0693987144
30
0
10
64.3614496762
20
48.0466606704
30
0
10
64.7105349862
20
47.9803245964
30
0
0
SPLINE
5
10D
100
AcDbEntity
8
komachi
6
ByLayer
62
7
370
-1
100
AcDbSpline
210
0
220
0
230
1
70
8
71
3
72
8
73
4
74
0
42
1e-07
43
1e-07
40
0
40
0
40
0
40
0
40
1
40
1
40
1
40
1
10
64.7105349862
20
47.9803245964
30
0
10
65.0596212482
20
47.9139887604
30
0
10
65.8885093222
20
47.7613331804
30
0
10
66.5534813222
20
47.6423812564
30
0
0
SPLINE
5
10E
100
AcDbEntity
8
komachi
6
ByLayer
62
7
370
-1
100
AcDbSpline
210
0
220
0
230
1
70
8
71
3
72
8
73
4
74
0
42
1e-07
43
1e-07
40
0
40
0
40
0
40
0
40
1
40
1
40
1
40
1
10
66.5534813222
20
47.6423812564
30
0
10
67.2184533222
20
47.5234290944
30
0
10
68.1700982262
20
47.3392875424
30
0
10
68.6672024002
20
47.2330707604
30
0
0
SPLINE
5
10F
100
AcDbEntity
8
komachi
6
ByLayer
62
7
370
-1
100
AcDbSpline
210
0
220
0
230
1
70
8
71
3
72
8
73
4
74
0
42
1e-07
43
1e-07
40
0
40
0
40
0
40
0
40
1
40
1
40
1
40
1
10
68.6672024002
20
47.2330707604
30
0
10
69.1643065742
20
47.1268551684
30
0
10
69.6508121322
20
47.0399601784
30
0
10
69.7482017322
20
47.0399601784
30
0
0
SPLINE
5
110
100
AcDbEntity
8
komachi
6
ByLayer
62
7
370
-1
100
AcDbSpline
210
0
220
0
230
1
70
8
71
3
72
8
73
4
74
0
42
1e-07
43
1e-07
40
0
40
0
40
0
40
0
40
1
40
1
40
1
40
1
10
69.7482017322
20
47.0399601784
30
0
10
69.8455925222
20
47.0399601784
30
0
10
70.3093640822
20
46.9509250924
30
0
10
70.7788243182
20
46.8426515144
30
0
0
SPLINE
5
111
100
AcDbEntity
8
komachi
6
ByLayer
62
7
370
-1
100
AcDbSpline
210
0
220
0
230
1
70
8
71
3
72
8
73
4
74
0
42
1e-07
43
1e-07
40
0
40
0
40
0
40
0
40
1
40
1
40
1
40
1
10
70.7788243182
20
46.8426515144
30
0
10
72.4720593722
20
46.4521323084
30
0
10
74.2790986482
20
46.0805400524
30
0
10
74.5129948142
20
46.0744075064
30
0
0
SPLINE
5
112
100
AcDbEntity
8
komachi
6
ByLayer
62
7
370
-1
100
AcDbSpline
210
0
220
0
230
1
70
8
71
3
72
8
73
4
74
0
42
1e-07
43
1e-07
40
0
40
0
40
0
40
0
40
1
40
1
40
1
40
1
10
74.5129948142
20
46.0744075064
30
0
10
74.5462434142
20
46.0735354744
30
0
10
74.5738666462
20
46.5809448104
30
0
10
74.5738666462
20
47.2015852644
30
0
0
SPLINE
5
113
100
AcDbEntity
8
komachi
6
ByLayer
62
7
370
-1
100
AcDbSpline
210
0
220
0
230
1
70
8
71
3
72
8
73
4
74
0
42
1e-07
43
1e-07
40
0
40
0
40
0
40
0
40
1
40
1
40
1
40
1
10
74.5738666462
20
47.2015852644
30
0
10
74.5738666462
20
48.1602378404
30
0
10
74.5546817042
20
48.3287632604
30
0
10
74.4500238222
20
48.3287632604
30
0
0
SPLINE
5
114
100
AcDbEntity
8
komachi
6
ByLayer
62
7
370
-1
100
AcDbSpline
210
0
220
0
230
1
70
8
71
3
72
8
73
4
74
0
42
1e-07
43
1e-07
40
0
40
0
40
0
40
0
40
1
40
1
40
1
40
1
10
74.4500238222
20
48.3287632604
30
0
10
74.1385448922
20
48.3287632604
30
0
10
71.8819243302
20
48.5878967084
30
0
10
71.2678978962
20
48.6939940144
30
0
0
SPLINE
5
115
100
AcDbEntity
8
komachi
6
ByLayer
62
7
370
-1
100
AcDbSpline
210
0
220
0
230
1
70
8
71
3
72
8
73
4
74
0
42
1e-07
43
1e-07
40
0
40
0
40
0
40
0
40
1
40
1
40
1
40
1
10
71.2678978962
20
48.6939940144
30
0
10
70.8910803502
20
48.7591043884
30
0
10
70.4164924042
20
48.8135042864
30
0
10
70.2120868182
20
48.8136387564
30
0
0
SPLINE
5
116
100
AcDbEntity
8
komachi
6
ByLayer
62
7
370
-1
100
AcDbSpline
210
0
220
0
230
1
70
8
71
3
72
8
73
4
74
0
42
1e-07
43
1e-07
40
0
40
0
40
0
40
0
40
1
40
1
40
1
40
1
10
70.2120868182
20
48.8136387564
30
0
10
70.0076812322
20
48.8137796524
30
0
10
69.3729352322
20
48.8866888104
30
0
10
68.8015400722
20
48.9773627644
30
0
0
SPLINE
5
117
100
AcDbEntity
8
komachi
6
ByLayer
62
7
370
-1
100
AcDbSpline
210
0
220
0
230
1
70
8
71
3
72
8
73
4
74
0
42
1e-07
43
1e-07
40
0
40
0
40
0
40
0
40
1
40
1
40
1
40
1
10
68.8015400722
20
48.9773627644
30
0
10
68.2301451502
20
49.0680367184
30
0
10
67.3998093222
20
49.1786941044
30
0
10
66.9564948142
20
49.2229490144
30
0
0
SPLINE
5
118
100
AcDbEntity
8
komachi
6
ByLayer
62
7
370
-1
100
AcDbSpline
210
0
220
0
230
1
70
8
71
3
72
8
73
4
74
0
42
1e-07
43
1e-07
40
0
40
0
40
0
40
0
40
1
40
1
40
1
40
1
10
66.9564948142
20
49.2229490144
30
0
10
65.5982947402
20
49.3585335684
30
0
10
64.3268985022
20
49.6352647364
30
0
10
64.2235605682
20
49.8169739284
30
0
0
SPLINE
5
119
100
AcDbEntity
8
komachi
6
ByLayer
62
7
370
-1
100
AcDbSpline
210
0
220
0
230
1
70
8
71
3
72
8
73
4
74
0
42
1e-07
43
1e-07
40
0
40
0
40
0
40
0
40
1
40
1
40
1
40
1
10
64.2235605682
20
49.8169739284
30
0
10
64.1744742582
20
49.9032853424
30
0
10
64.0526649062
20
50.0651367664
30
0
10
63.9527860642
20
50.1780068384
30
0
0
SPLINE
5
11A
100
AcDbEntity
8
komachi
6
ByLayer
62
7
370
-1
100
AcDbSpline
210
0
220
0
230
1
70
8
71
3
72
8
73
4
74
0
42
1e-07
43
1e-07
40
0
40
0
40
0
40
0
40
1
40
1
40
1
40
1
10
63.9527860642
20
50.1780068384
30
0
10
63.8070805602
20
50.3426638064
30
0
10
63.7446188882
20
50.3671611464
30
0
10
63.6316348142
20
50.2976513424
30
0
0
SPLINE
5
11B
100
AcDbEntity
8
komachi
6
ByLayer
62
7
370
-1
100
AcDbSpline
210
0
220
0
230
1
70
8
71
3
72
8
73
4
74
0
42
1e-07
43
1e-07
40
0
40
0
40
0
40
0
40
1
40
1
40
1
40
1
10
63.6316348142
20
50.2976513424
30
0
10
63.5541877102
20
50.2500037424
30
0
10
63.4549981162
20
50.1313928724
30
0
10
63.4112368182
20
50.0352727644
30
0
0
SPLINE
5
11C
100
AcDbEntity
8
komachi
6
ByLayer
62
7
370
-1
100
AcDbSpline
210
0
220
0
230
1
70
8
71
3
72
8
73
4
74
0
42
1e-07
43
1e-07
40
0
40
0
40
0
40
0
40
1
40
1
40
1
40
1
10
63.4112368182
20
50.0352727644
30
0
10
63.3003276282
20
49.7916633424
30
0
10
63.2356263762
20
49.8158127264
30
0
10
63.1278680682
20
50.1423232604
30
0
0
SPLINE
5
11D
100
AcDbEntity
8
komachi
6
ByLayer
62
7
370
-1
100
AcDbSpline
210
0
220
0
230
1
70
8
71
3
72
8
73
4
74
0
42
1e-07
43
1e-07
40
0
40
0
40
0
40
0
40
1
40
1
40
1
40
1
10
63.1278680682
20
50.1423232604
30
0
10
63.0362154582
20
50.4200323704
30
0
10
62.9530692062
20
50.4669262244
30
0
10
62.5884179822
20
50.4361870964
30
0
0
SPLINE
5
11E
100
AcDbEntity
8
komachi
6
ByLayer
62
7
370
-1
100
AcDbSpline
210
0
220
0
230
1
70
8
71
3
72
8
73
4
74
0
42
1e-07
43
1e-07
40
0
40
0
40
0
40
0
40
1
40
1
40
1
40
1
10
62.5884179822
20
50.4361870964
30
0
10
62.4838010362
20
50.4273684824
30
0
10
62.3760003642
20
50.4855682884
30
0
10
62.3260394042
20
50.5789211704
30
0
0
SPLINE
5
11F
100
AcDbEntity
8
komachi
6
ByLayer
62
7
370
-1
100
AcDbSpline
210
0
220
0
230
1
70
8
71
3
72
8
73
4
74
0
42
1e-07
43
1e-07
40
0
40
0
40
0
40
0
40
1
40
1
40
1
40
1
10
62.3260394042
20
50.5789211704
30
0
10
62.1920382642
20
50.8293045484
30
0
10
61.9467911642
20
50.8628377964
30
0
10
61.6963311502
20
50.6649812564
30
0
0
SPLINE
5
120
100
AcDbEntity
8
komachi
6
ByLayer
62
7
370
-1
100
AcDbSpline
210
0
220
0
230
1
70
8
71
3
72
8
73
4
74
0
42
1e-07
43
1e-07
40
0
40
0
40
0
40
0
40
1
40
1
40
1
40
1
10
61.6963311502
20
50.6649812564
30
0
10
61.4864189582
20
50.4991573744
30
0
10
61.4750075722
20
50.4986509104
30
0
10
61.4528438222
20
50.6418919244
30
0
0
SPLINE
5
121
100
AcDbEntity
8
komachi
6
ByLayer
62
7
370
-1
100
AcDbSpline
210
0
220
0
230
1
70
8
71
3
72
8
73
4
74
0
42
1e-07
43
1e-07
40
0
40
0
40
0
40
0
40
1
40
1
40
1
40
1
10
61.4528438222
20
50.6418919244
30
0
10
61.4399925362
20
50.7249408344
30
0
10
61.3248933562
20
50.8379875024
30
0
10
61.1988616462
20
50.8937751784
30
0
0
SPLINE
5
122
100
AcDbEntity
8
komachi
6
ByLayer
62
7
370
-1
100
AcDbSpline
210
0
220
0
230
1
70
8
71
3
72
8
73
4
74
0
42
1e-07
43
1e-07
40
0
40
0
40
0
40
0
40
1
40
1
40
1
40
1
10
61.1988616462
20
50.8937751784
30
0
10
60.9204961322
20
51.0169918244
30
0
10
60.6210043102
20
50.9082460544
30
0
10
60.5040834782
20
50.6418919244
30
0
0
SPLINE
5
123
100
AcDbEntity
8
komachi
6
ByLayer
62
7
370
-1
100
AcDbSpline
210
0
220
0
230
1
70
8
71
3
72
8
73
4
74
0
42
1e-07
43
1e-07
40
0
40
0
40
0
40
0
40
1
40
1
40
1
40
1
10
60.5040834782
20
50.6418919244
30
0
10
60.4099018802
20
50.4273396844
30
0
10
60.1295119382
20
50.3741614404
30
0
10
59.9646331542
20
50.5390395104
30
0
0
SPLINE
5
124
100
AcDbEntity
8
komachi
6
ByLayer
62
7
370
-1
100
AcDbSpline
210
0
220
0
230
1
70
8
71
3
72
8
73
4
74
0
42
1e-07
43
1e-07
40
0
40
0
40
0
40
0
40
1
40
1
40
1
40
1
10
59.9646331542
20
50.5390395104
30
0
10
59.8979660222
20
50.6057080704
30
0
10
59.7458864022
20
50.6833424804
30
0
10
59.6266898142
20
50.7132588424
30
0
0
SPLINE
5
125
100
AcDbEntity
8
komachi
6
ByLayer
62
7
370
-1
100
AcDbSpline
210
0
220
0
230
1
70
8
71
3
72
8
73
4
74
0
42
1e-07
43
1e-07
40
0
40
0
40
0
40
0
40
1
40
1
40
1
40
1
10
59.6266898142
20
50.7132588424
30
0
10
59.4587405922
20
50.7554107844
30
0
10
59.3817361682
20
50.7284765624
30
0
10
59.2887462362
20
50.5957132604
30
0
0
SPLINE
5
126
100
AcDbEntity
8
komachi
6
ByLayer
62
7
370
-1
100
AcDbSpline
210
0
220
0
230
1
70
8
71
3
72
8
73
4
74
0
42
1e-07
43
1e-07
40
0
40
0
40
0
40
0
40
1
40
1
40
1
40
1
10
59.2887462362
20
50.5957132604
30
0
10
59.1350222742
20
50.3762422744
30
0
10
58.9773318042
20
50.3794590824
30
0
10
57.6892872282
20
50.6250995964
30
0
0
SPLINE
5
127
100
AcDbEntity
8
komachi
6
ByLayer
62
7
370
-1
100
AcDbSpline
210
0
220
0
230
1
70
8
71
3
72
8
73
4
74
0
42
1e-07
43
1e-07
40
0
40
0
40
0
40
0
40
1
40
1
40
1
40
1
10
57.6892872282
20
50.6250995964
30
0
10
57.1114889162
20
50.7352902644
30
0
10
56.0957051542
20
50.9210511684
30
0
10
55.4307331542
20
51.0365090144
30
0
0
SPLINE
5
128
100
AcDbEntity
8
komachi
6
ByLayer
62
7
370
-1
100
AcDbSpline
210
0
220
0
230
1
70
8
71
3
72
8
73
4
74
0
42
1e-07
43
1e-07
40
0
40
0
40
0
40
0
40
1
40
1
40
1
40
1
10
55.4307331542
20
51.0365090144
30
0
10
50.0987218122
20
51.9622937904
30
0
10
50.0360216642
20
51.9777992524
30
0
10
49.7486649862
20
52.4491549204
30
0
0
SPLINE
5
129
100
AcDbEntity
8
komachi
6
ByLayer
62
7
370
-1
100
AcDbSpline
210
0
220
0
230
1
70
8
71
3
72
8
73
4
74
0
42
1e-07
43
1e-07
40
0
40
0
40
0
40
0
40
1
40
1
40
1
40
1
10
49.7486649862
20
52.4491549204
30
0
10
49.5312179522
20
52.8058364764
30
0
10
49.0915008142
20
53.1916330484
30
0
10
48.7999044042
20
53.2824688424
30
0
0
SPLINE
5
12A
100
AcDbEntity
8
komachi
6
ByLayer
62
7
370
-1
100
AcDbSpline
210
0
220
0
230
1
70
8
71
3
72
8
73
4
74
0
42
1e-07
43
1e-07
40
0
40
0
40
0
40
0
40
1
40
1
40
1
40
1
10
48.7999044042
20
53.2824688424
30
0
10
48.7001586042
20
53.3135411704
30
0
10
48.6193880682
20
53.3676114384
30
0
10
48.6193880682
20
53.4042125064
30
0
0
SPLINE
5
12B
100
AcDbEntity
8
komachi
6
ByLayer
62
7
370
-1
100
AcDbSpline
210
0
220
0
230
1
70
8
71
3
72
8
73
4
74
0
42
1e-07
43
1e-07
40
0
40
0
40
0
40
0
40
1
40
1
40
1
40
1
10
48.6193880682
20
53.4042125064
30
0
10
48.6193880682
20
53.5001148444
30
0
10
48.4308330442
20
53.5605178164
30
0
10
47.5908644042
20
53.7337599204
30
0
0
SPLINE
5
12C
100
AcDbEntity
8
komachi
6
ByLayer
62
7
370
-1
100
AcDbSpline
210
0
220
0
230
1
70
8
71
3
72
8
73
4
74
0
42
1e-07
43
1e-07
40
0
40
0
40
0
40
0
40
1
40
1
40
1
40
1
10
47.5908644042
20
53.7337599204
30
0
10
46.8086062422
20
53.8950994064
30
0
10
46.5305915402
20
54.0059900324
30
0
10
46.2097042322
20
54.2858040144
30
0
0
SPLINE
5
12D
100
AcDbEntity
8
komachi
6
ByLayer
62
7
370
-1
100
AcDbSpline
210
0
220
0
230
1
70
8
71
3
72
8
73
4
74
0
42
1e-07
43
1e-07
40
0
40
0
40
0
40
0
40
1
40
1
40
1
40
1
10
46.2097042322
20
54.2858040144
30
0
10
46.1031749562
20
54.3786966044
30
0
10
45.9688425202
20
54.4558252644
30
0
10
45.9116423142
20
54.4558252644
30
0
0
SPLINE
5
12E
100
AcDbEntity
8
komachi
6
ByLayer
62
7
370
-1
100
AcDbSpline
210
0
220
0
230
1
70
8
71
3
72
8
73
4
74
0
42
1e-07
43
1e-07
40
0
40
0
40
0
40
0
40
1
40
1
40
1
40
1
10
45.9116423142
20
54.4558252644
30
0
10
45.7457989162
20
54.4558252644
30
0
10
45.5569066462
20
54.7900665144
30
0
10
45.5569066462
20
55.0834345964
30
0
0
SPLINE
5
12F
100
AcDbEntity
8
komachi
6
ByLayer
62
7
370
-1
100
AcDbSpline
210
0
220
0
230
1
70
8
71
3
72
8
73
4
74
0
42
1e-07
43
1e-07
40
0
40
0
40
0
40
0
40
1
40
1
40
1
40
1
10
45.5569066462
20
55.0834345964
30
0
10
45.5569066462
20
55.3205885064
30
0
10
45.5760294702
20
55.3468615644
30
0
10
45.7248287362
20
55.2996345104
30
0
0
SPLINE
5
130
100
AcDbEntity
8
komachi
6
ByLayer
62
7
370
-1
100
AcDbSpline
210
0
220
0
230
1
70
8
71
3
72
8
73
4
74
0
42
1e-07
43
1e-07
40
0
40
0
40
0
40
0
40
1
40
1
40
1
40
1
10
45.7248287362
20
55.2996345104
30
0
10
45.8731853222
20
55.2525483524
30
0
10
45.8868945982
20
55.2679436204
30
0
10
45.8339781542
20
55.4339724204
30
0
0
SPLINE
5
131
100
AcDbEntity
8
komachi
6
ByLayer
62
7
370
-1
100
AcDbSpline
210
0
220
0
230
1
70
8
71
3
72
8
73
4
74
0
42
1e-07
43
1e-07
40
0
40
0
40
0
40
0
40
1
40
1
40
1
40
1
10
45.8339781542
20
55.4339724204
30
0
10
45.6973223622
20
55.8627394164
30
0
10
45.7802613162
20
55.9362485724
30
0
10
46.2432886502
20
55.7887080884
30
0
0
SPLINE
5
132
100
AcDbEntity
8
komachi
6
ByLayer
62
7
370
-1
100
AcDbSpline
210
0
220
0
230
1
70
8
71
3
72
8
73
4
74
0
42
1e-07
43
1e-07
40
0
40
0
40
0
40
0
40
1
40
1
40
1
40
1
10
46.2432886502
20
55.7887080884
30
0
10
46.3459199622
20
55.7560061744
30
0
10
46.4740729662
20
55.7895736944
30
0
10
46.5854300722
20
55.8810651784
30
0
0
SPLINE
5
133
100
AcDbEntity
8
komachi
6
ByLayer
62
7
370
-1
100
AcDbSpline
210
0
220
0
230
1
70
8
71
3
72
8
73
4
74
0
42
1e-07
43
1e-07
40
0
40
0
40
0
40
0
40
1
40
1
40
1
40
1
10
46.5854300722
20
55.8810651784
30
0
10
46.6830333962
20
55.9612547564
30
0
10
46.8536732082
20
56.0931805364
30
0
10
46.9653542322
20
56.1728300924
30
0
0
SPLINE
5
134
100
AcDbEntity
8
komachi
6
ByLayer
62
7
370
-1
100
AcDbSpline
210
0
220
0
230
1
70
8
71
3
72
8
73
4
74
0
42
1e-07
43
1e-07
40
0
40
0
40
0
40
0
40
1
40
1
40
1
40
1
10
46.9653542322
20
56.1728300924
30
0
10
47.1244686562
20
56.2863084924
30
0
10
47.1689599002
20
56.3858010604
30
0
10
47.1689599002
20
56.6388143384
30
0
0
SPLINE
5
135
100
AcDbEntity
8
komachi
6
ByLayer
62
7
370
-1
100
AcDbSpline
210
0
220
0
230
1
70
8
71
3
72
8
73
4
74
0
42
1e-07
43
1e-07
40
0
40
0
40
0
40
0
40
1
40
1
40
1
40
1
10
47.1689599002
20
56.6388143384
30
0
10
47.1689599002
20
56.8164020844
30
0
10
47.2220562722
20
57.2046086444
30
0
10
47.2865054822
20
57.5015145964
30
0
0
SPLINE
5
136
100
AcDbEntity
8
komachi
6
ByLayer
62
7
370
-1
100
AcDbSpline
210
0
220
0
230
1
70
8
71
3
72
8
73
4
74
0
42
1e-07
43
1e-07
40
0
40
0
40
0
40
0
40
1
40
1
40
1
40
1
10
47.2865054822
20
57.5015145964
30
0
10
47.3509532642
20
57.7984205484
30
0
10
47.3978982882
20
58.2046049144
30
0
10
47.3914568182
20
58.4040965144
30
0
0
SPLINE
5
137
100
AcDbEntity
8
komachi
6
ByLayer
62
7
370
-1
100
AcDbSpline
210
0
220
0
230
1
70
8
71
3
72
8
73
4
74
0
42
1e-07
43
1e-07
40
0
40
0
40
0
40
0
40
1
40
1
40
1
40
1
10
47.3914568182
20
58.4040965144
30
0
10
47.3850167762
20
58.6035881144
30
0
10
47.4071072222
20
58.8802809644
30
0
10
47.4418335642
20
59.0170126784
30
0
0
SPLINE
5
138
100
AcDbEntity
8
komachi
6
ByLayer
62
7
370
-1
100
AcDbSpline
210
0
220
0
230
1
70
8
71
3
72
8
73
4
74
0
42
1e-07
43
1e-07
40
0
40
0
40
0
40
0
40
1
40
1
40
1
40
1
10
47.4418335642
20
59.0170126784
30
0
10
47.5028315362
20
59.2571810964
30
0
10
47.4910407782
20
59.2731854064
30
0
10
47.0556124002
20
59.4934920104
30
0
0
SPLINE
5
139
100
AcDbEntity
8
komachi
6
ByLayer
62
7
370
-1
100
AcDbSpline
210
0
220
0
230
1
70
8
71
3
72
8
73
4
74
0
42
1e-07
43
1e-07
40
0
40
0
40
0
40
0
40
1
40
1
40
1
40
1
10
47.0556124002
20
59.4934920104
30
0
10
46.5630052362
20
59.7427282284
30
0
10
46.5036601742
20
59.8805709264
30
0
10
46.7617485642
20
60.1903693384
30
0
0
SPLINE
5
13A
100
AcDbEntity
8
komachi
6
ByLayer
62
7
370
-1
100
AcDbSpline
210
0
220
0
230
1
70
8
71
3
72
8
73
4
74
0
42
1e-07
43
1e-07
40
0
40
0
40
0
40
0
40
1
40
1
40
1
40
1
10
46.7617485642
20
60.1903693384
30
0
10
46.9113651222
20
60.3699634244
30
0
10
46.9217012242
20
60.3698042024
30
0
10
46.9275717322
20
60.2176565144
30
0
0
SPLINE
5
13B
100
AcDbEntity
8
komachi
6
ByLayer
62
7
370
-1
100
AcDbSpline
210
0
220
0
230
1
70
8
71
3
72
8
73
4
74
0
42
1e-07
43
1e-07
40
0
40
0
40
0
40
0
40
1
40
1
40
1
40
1
10
46.9275717322
20
60.2176565144
30
0
10
46.9312747742
20
60.1216830144
30
0
10
46.9790908782
20
60.1879693464
30
0
10
47.0472162362
20
60.3792818384
30
0
0
SPLINE
5
13C
100
AcDbEntity
8
komachi
6
ByLayer
62
7
370
-1
100
AcDbSpline
210
0
220
0
230
1
70
8
71
3
72
8
73
4
74
0
42
1e-07
43
1e-07
40
0
40
0
40
0
40
0
40
1
40
1
40
1
40
1
10
47.0472162362
20
60.3792818384
30
0
10
47.1101522422
20
60.5560211144
30
0
10
47.2084855122
20
60.7373771144
30
0
10
47.2655150722
20
60.7822950924
30
0
0
SPLINE
5
13D
100
AcDbEntity
8
komachi
6
ByLayer
62
7
370
-1
100
AcDbSpline
210
0
220
0
230
1
70
8
71
3
72
8
73
4
74
0
42
1e-07
43
1e-07
40
0
40
0
40
0
40
0
40
1
40
1
40
1
40
1
10
47.2655150722
20
60.7822950924
30
0
10
47.3225448702
20
60.8272135464
30
0
10
47.4175459022
20
60.9992142424
30
0
10
47.4754179822
20
61.1643181744
30
0
0
SPLINE
5
13E
100
AcDbEntity
8
komachi
6
ByLayer
62
7
370
-1
100
AcDbSpline
210
0
220
0
230
1
70
8
71
3
72
8
73
4
74
0
42
1e-07
43
1e-07
40
0
40
0
40
0
40
0
40
1
40
1
40
1
40
1
10
47.4754179822
20
61.1643181744
30
0
10
47.5771291862
20
61.4544930104
30
0
10
47.5480389222
20
61.8149180684
30
0
10
47.3683674862
20
62.5307851784
30
0
0
SPLINE
5
13F
100
AcDbEntity
8
komachi
6
ByLayer
62
7
370
-1
100
AcDbSpline
210
0
220
0
230
1
70
8
71
3
72
8
73
4
74
0
42
1e-07
43
1e-07
40
0
40
0
40
0
40
0
40
1
40
1
40
1
40
1
10
47.3683674862
20
62.5307851784
30
0
10
47.3210288102
20
62.7193968464
30
0
10
47.3446388862
20
62.7474303904
30
0
10
47.5719731542
20
62.7973618384
30
0
0
LWPOLYLINE
5
140
100
AcDbEntity
8
komachi
6
ByLayer
62
7
370
-1
100
AcDbPolyline
90
3
70
0
43
0
10
50.9094274002
20
37.9700612564
10
50.4161559782
20
38.4738277644
10
50.4119578962
20
39.3911030884
0
SPLINE
5
141
100
AcDbEntity
8
komachi
6
ByLayer
62
7
370
-1
100
AcDbSpline
210
0
220
0
230
1
70
8
71
3
72
8
73
4
74
0
42
1e-07
43
1e-07
40
0
40
0
40
0
40
0
40
1
40
1
40
1
40
1
10
47.6391422282
20
62.9820762564
30
0
10
47.5357148062
20
63.0526499204
30
0
10
47.4206115802
20
63.1590775704
30
0
10
47.3851598142
20
63.2171674204
30
0
0
SPLINE
5
142
100
AcDbEntity
8
komachi
6
ByLayer
62
7
370
-1
100
AcDbSpline
210
0
220
0
230
1
70
8
71
3
72
8
73
4
74
0
42
1e-07
43
1e-07
40
0
40
0
40
0
40
0
40
1
40
1
40
1
40
1
10
47.3851598142
20
63.2171674204
30
0
10
47.3497087622
20
63.2752577464
30
0
10
47.2779769902
20
63.3221187564
30
0
10
47.2235347282
20
63.3221187564
30
0
0
SPLINE
5
143
100
AcDbEntity
8
komachi
6
ByLayer
62
7
370
-1
100
AcDbSpline
210
0
220
0
230
1
70
8
71
3
72
8
73
4
74
0
42
1e-07
43
1e-07
40
0
40
0
40
0
40
0
40
1
40
1
40
1
40
1
10
47.2235347282
20
63.3221187564
30
0
10
47.1690922282
20
63.3221187564
30
0
10
47.0668557582
20
63.3851735244
30
0
10
46.9968397282
20
63.4627536704
30
0
0
SPLINE
5
144
100
AcDbEntity
8
komachi
6
ByLayer
62
7
370
-1
100
AcDbSpline
210
0
220
0
230
1
70
8
71
3
72
8
73
4
74
0
42
1e-07
43
1e-07
40
0
40
0
40
0
40
0
40
1
40
1
40
1
40
1
10
46.9968397282
20
63.4627536704
30
0
10
46.8264281582
20
63.6515754924
30
0
10
46.6518320722
20
63.7853429164
30
0
10
46.0795644042
20
64.1659277644
30
0
0
SPLINE
5
145
100
AcDbEntity
8
komachi
6
ByLayer
62
7
370
-1
100
AcDbSpline
210
0
220
0
230
1
70
8
71
3
72
8
73
4
74
0
42
1e-07
43
1e-07
40
0
40
0
40
0
40
0
40
1
40
1
40
1
40
1
10
46.0795644042
20
64.1659277644
30
0
10
45.6016175642
20
64.4837850944
30
0
10
45.4495203322
20
64.5739164084
30
0
10
45.0153574002
20
64.7935370964
30
0
0
SPLINE
5
146
100
AcDbEntity
8
komachi
6
ByLayer
62
7
370
-1
100
AcDbSpline
210
0
220
0
230
1
70
8
71
3
72
8
73
4
74
0
42
1e-07
43
1e-07
40
0
40
0
40
0
40
0
40
1
40
1
40
1
40
1
10
45.0153574002
20
64.7935370964
30
0
10
43.8034647322
20
65.4065717844
30
0
10
43.9225544582
20
65.3725249324
30
0
10
42.9562111502
20
65.3749677644
30
0
0
LWPOLYLINE
5
147
100
AcDbEntity
8
komachi
6
ByLayer
62
7
370
-1
100
AcDbPolyline
90
3
70
0
43
0
10
47.5719731542
20
62.7973618384
10
47.8259555682
20
62.8540355884
10
47.6391422282
20
62.9820762564
0
SPLINE
5
148
100
AcDbEntity
8
komachi
6
ByLayer
62
7
370
-1
100
AcDbSpline
210
0
220
0
230
1
70
8
71
3
72
8
73
4
74
0
42
1e-07
43
1e-07
40
0
40
0
40
0
40
0
40
1
40
1
40
1
40
1
10
50.2965112362
20
50.5873170964
30
0
10
50.3265882482
20
50.5873170964
30
0
10
50.6956274782
20
50.5150422084
30
0
10
51.1172311502
20
50.4277911704
30
0
0
SPLINE
5
149
100
AcDbEntity
8
komachi
6
ByLayer
62
7
370
-1
100
AcDbSpline
210
0
220
0
230
1
70
8
71
3
72
8
73
4
74
0
42
1e-07
43
1e-07
40
0
40
0
40
0
40
0
40
1
40
1
40
1
40
1
10
51.1172311502
20
50.4277911704
30
0
10
53.2863838562
20
49.9788853284
30
0
10
53.9130219102
20
49.8582459844
30
0
10
54.0600680682
20
49.8610536704
30
0
0
SPLINE
5
14A
100
AcDbEntity
8
komachi
6
ByLayer
62
7
370
-1
100
AcDbSpline
210
0
220
0
230
1
70
8
71
3
72
8
73
4
74
0
42
1e-07
43
1e-07
40
0
40
0
40
0
40
0
40
1
40
1
40
1
40
1
10
54.0600680682
20
49.8610536704
30
0
10
54.1487309222
20
49.8627468024
30
0
10
54.6573673862
20
49.7758008804
30
0
10
55.1893449862
20
49.6679430884
30
0
0
SPLINE
5
14B
100
AcDbEntity
8
komachi
6
ByLayer
62
7
370
-1
100
AcDbSpline
210
0
220
0
230
1
70
8
71
3
72
8
73
4
74
0
42
1e-07
43
1e-07
40
0
40
0
40
0
40
0
40
1
40
1
40
1
40
1
10
55.1893449862
20
49.6679430884
30
0
10
56.8906389582
20
49.3230080224
30
0
10
58.4074293802
20
49.0494451104
30
0
10
58.6149584782
20
49.0508288424
30
0
0
SPLINE
5
14C
100
AcDbEntity
8
komachi
6
ByLayer
62
7
370
-1
100
AcDbSpline
210
0
220
0
230
1
70
8
71
3
72
8
73
4
74
0
42
1e-07
43
1e-07
40
0
40
0
40
0
40
0
40
1
40
1
40
1
40
1
10
58.6149584782
20
49.0508288424
30
0
10
59.1313587402
20
49.0542705604
30
0
10
59.3391229822
20
48.8346672464
30
0
10
59.3391229822
20
48.2867826784
30
0
0
SPLINE
5
14D
100
AcDbEntity
8
komachi
6
ByLayer
62
7
370
-1
100
AcDbSpline
210
0
220
0
230
1
70
8
71
3
72
8
73
4
74
0
42
1e-07
43
1e-07
40
0
40
0
40
0
40
0
40
1
40
1
40
1
40
1
10
59.3391229822
20
48.2867826784
30
0
10
59.3391229822
20
48.1343441544
30
0
10
59.3839231502
20
47.8458357944
30
0
10
59.4377773142
20
47.6444801784
30
0
0
SPLINE
5
14E
100
AcDbEntity
8
komachi
6
ByLayer
62
7
370
-1
100
AcDbSpline
210
0
220
0
230
1
70
8
71
3
72
8
73
4
74
0
42
1e-07
43
1e-07
40
0
40
0
40
0
40
0
40
1
40
1
40
1
40
1
10
59.4377773142
20
47.6444801784
30
0
10
59.5694182082
20
47.1522880864
30
0
10
59.4185697622
20
46.8891338664
30
0
10
58.9256144042
20
46.7544925064
30
0
0
SPLINE
5
14F
100
AcDbEntity
8
komachi
6
ByLayer
62
7
370
-1
100
AcDbSpline
210
0
220
0
230
1
70
8
71
3
72
8
73
4
74
0
42
1e-07
43
1e-07
40
0
40
0
40
0
40
0
40
1
40
1
40
1
40
1
10
58.9256144042
20
46.7544925064
30
0
10
58.7324024342
20
46.7017198144
30
0
10
58.4114365862
20
46.6041019724
30
0
10
58.2119449862
20
46.5361936704
30
0
0
SPLINE
5
150
100
AcDbEntity
8
komachi
6
ByLayer
62
7
370
-1
100
AcDbSpline
210
0
220
0
230
1
70
8
71
3
72
8
73
4
74
0
42
1e-07
43
1e-07
40
0
40
0
40
0
40
0
40
1
40
1
40
1
40
1
10
58.2119449862
20
46.5361936704
30
0
10
58.0124533862
20
46.4682837024
30
0
10
57.5392486962
20
46.3209736024
30
0
10
57.1624311502
20
46.2087451784
30
0
0
SPLINE
5
151
100
AcDbEntity
8
komachi
6
ByLayer
62
7
370
-1
100
AcDbSpline
210
0
220
0
230
1
70
8
71
3
72
8
73
4
74
0
42
1e-07
43
1e-07
40
0
40
0
40
0
40
0
40
1
40
1
40
1
40
1
10
57.1624311502
20
46.2087451784
30
0
10
55.5765448062
20
45.7364137104
30
0
10
54.9978801742
20
45.5543905964
30
0
10
54.5008638222
20
45.3754312564
30
0
0
SPLINE
5
152
100
AcDbEntity
8
komachi
6
ByLayer
62
7
370
-1
100
AcDbSpline
210
0
220
0
230
1
70
8
71
3
72
8
73
4
74
0
42
1e-07
43
1e-07
40
0
40
0
40
0
40
0
40
1
40
1
40
1
40
1
10
54.5008638222
20
45.3754312564
30
0
10
54.2117683162
20
45.2713369584
30
0
10
53.9368768882
20
45.1865187564
30
0
10
53.8900468182
20
45.1865187564
30
0
0
SPLINE
5
153
100
AcDbEntity
8
komachi
6
ByLayer
62
7
370
-1
100
AcDbSpline
210
0
220
0
230
1
70
8
71
3
72
8
73
4
74
0
42
1e-07
43
1e-07
40
0
40
0
40
0
40
0
40
1
40
1
40
1
40
1
10
53.8900468182
20
45.1865187564
30
0
10
53.8432160342
20
45.1865187564
30
0
10
53.5903191382
20
45.0980996144
30
0
10
53.3275074002
20
44.9913090144
30
0
0
SPLINE
5
154
100
AcDbEntity
8
komachi
6
ByLayer
62
7
370
-1
100
AcDbSpline
210
0
220
0
230
1
70
8
71
3
72
8
73
4
74
0
42
1e-07
43
1e-07
40
0
40
0
40
0
40
0
40
1
40
1
40
1
40
1
10
53.3275074002
20
44.9913090144
30
0
10
53.0646956622
20
44.8845193664
30
0
10
52.7208158882
20
44.7731432204
30
0
10
52.5634612362
20
44.7436238424
30
0
0
SPLINE
5
155
100
AcDbEntity
8
komachi
6
ByLayer
62
7
370
-1
100
AcDbSpline
210
0
220
0
230
1
70
8
71
3
72
8
73
4
74
0
42
1e-07
43
1e-07
40
0
40
0
40
0
40
0
40
1
40
1
40
1
40
1
10
52.5634612362
20
44.7436238424
30
0
10
52.3119609242
20
44.6964417704
30
0
10
52.2673237862
20
44.7137800704
30
0
10
52.1877353962
20
44.8884568384
30
0
0
SPLINE
5
156
100
AcDbEntity
8
komachi
6
ByLayer
62
7
370
-1
100
AcDbSpline
210
0
220
0
230
1
70
8
71
3
72
8
73
4
74
0
42
1e-07
43
1e-07
40
0
40
0
40
0
40
0
40
1
40
1
40
1
40
1
10
52.1877353962
20
44.8884568384
30
0
10
52.1379403222
20
44.9977445344
30
0
10
52.0758575462
20
45.3556310844
30
0
10
52.0491994042
20
45.6818893384
30
0
0
SPLINE
5
157
100
AcDbEntity
8
komachi
6
ByLayer
62
7
370
-1
100
AcDbSpline
210
0
220
0
230
1
70
8
71
3
72
8
73
4
74
0
42
1e-07
43
1e-07
40
0
40
0
40
0
40
0
40
1
40
1
40
1
40
1
10
52.0491994042
20
45.6818893384
30
0
10
51.9795829762
20
46.5339076804
30
0
10
51.8409524982
20
47.1172078384
30
0
10
51.6272949002
20
47.4618649204
30
0
0
SPLINE
5
158
100
AcDbEntity
8
komachi
6
ByLayer
62
7
370
-1
100
AcDbSpline
210
0
220
0
230
1
70
8
71
3
72
8
73
4
74
0
42
1e-07
43
1e-07
40
0
40
0
40
0
40
0
40
1
40
1
40
1
40
1
10
51.6272949002
20
47.4618649204
30
0
10
51.5247852062
20
47.6272266064
30
0
10
51.4404813222
20
47.7966802264
30
0
10
51.4404813222
20
47.8396899204
30
0
0
SPLINE
5
159
100
AcDbEntity
8
komachi
6
ByLayer
62
7
370
-1
100
AcDbSpline
210
0
220
0
230
1
70
8
71
3
72
8
73
4
74
0
42
1e-07
43
1e-07
40
0
40
0
40
0
40
0
40
1
40
1
40
1
40
1
10
51.4404813222
20
47.8396899204
30
0
10
51.4404813222
20
47.8826993764
30
0
10
51.3951423222
20
47.9469727044
30
0
10
51.3397280682
20
47.9824237564
30
0
0
SPLINE
5
15A
100
AcDbEntity
8
komachi
6
ByLayer
62
7
370
-1
100
AcDbSpline
210
0
220
0
230
1
70
8
71
3
72
8
73
4
74
0
42
1e-07
43
1e-07
40
0
40
0
40
0
40
0
40
1
40
1
40
1
40
1
10
51.3397280682
20
47.9824237564
30
0
10
51.1521462262
20
48.1024295444
30
0
10
50.6344548142
20
48.8391944824
30
0
10
50.6344548142
20
48.9857589284
30
0
0
SPLINE
5
15B
100
AcDbEntity
8
komachi
6
ByLayer
62
7
370
-1
100
AcDbSpline
210
0
220
0
230
1
70
8
71
3
72
8
73
4
74
0
42
1e-07
43
1e-07
40
0
40
0
40
0
40
0
40
1
40
1
40
1
40
1
10
50.6344548142
20
48.9857589284
30
0
10
50.6344548142
20
49.0658511644
30
0
10
50.5212127482
20
49.2928322404
30
0
10
50.3825713222
20
49.4895256744
30
0
0
SPLINE
5
15C
100
AcDbEntity
8
komachi
6
ByLayer
62
7
370
-1
100
AcDbSpline
210
0
220
0
230
1
70
8
71
3
72
8
73
4
74
0
42
1e-07
43
1e-07
40
0
40
0
40
0
40
0
40
1
40
1
40
1
40
1
10
50.3825713222
20
49.4895256744
30
0
10
50.1571155882
20
49.8093819664
30
0
10
50.1356163342
20
49.8847232464
30
0
10
50.1852628962
20
50.2157893384
30
0
0
SPLINE
5
15D
100
AcDbEntity
8
komachi
6
ByLayer
62
7
370
-1
100
AcDbSpline
210
0
220
0
230
1
70
8
71
3
72
8
73
4
74
0
42
1e-07
43
1e-07
40
0
40
0
40
0
40
0
40
1
40
1
40
1
40
1
10
50.1852628962
20
50.2157893384
30
0
10
50.2157923462
20
50.4193762044
30
0
10
50.2664337482
20
50.5873170964
30
0
10
50.2965112362
20
50.5873170964
30
0
0
LWPOLYLINE
5
15E
100
AcDbEntity
8
komachi
6
ByLayer
62
7
370
-1
100
AcDbPolyline
90
2
70
0
43
0
10
42.9562111502
20
65.3749677644
10
42.9562111502
20
65.3749677644
0
SPLINE
5
15F
100
AcDbEntity
8
komachi
6
ByLayer
62
7
370
-1
100
AcDbSpline
210
0
220
0
230
1
70
8
71
3
72
8
73
4
74
0
42
1e-07
43
1e-07
40
0
40
0
40
0
40
0
40
1
40
1
40
1
40
1
10
41.9633710642
20
44.6218801784
30
0
10
42.1752170062
20
44.6218801784
30
0
10
42.5609431302
20
42.8519565264
30
0
10
42.4545435642
20
42.3675244244
30
0
0
SPLINE
5
160
100
AcDbEntity
8
komachi
6
ByLayer
62
7
370
-1
100
AcDbSpline
210
0
220
0
230
1
70
8
71
3
72
8
73
4
74
0
42
1e-07
43
1e-07
40
0
40
0
40
0
40
0
40
1
40
1
40
1
40
1
10
42.4545435642
20
42.3675244244
30
0
10
42.3982042042
20
42.1110130224
30
0
10
42.2784333222
20
42.0619771684
30
0
10
42.1145010642
20
42.2268895104
30
0
0
SPLINE
5
161
100
AcDbEntity
8
komachi
6
ByLayer
62
7
370
-1
100
AcDbSpline
210
0
220
0
230
1
70
8
71
3
72
8
73
4
74
0
42
1e-07
43
1e-07
40
0
40
0
40
0
40
0
40
1
40
1
40
1
40
1
10
42.1145010642
20
42.2268895104
30
0
10
42.0610917222
20
42.2806172964
30
0
10
41.9032486942
20
42.4162218424
30
0
10
41.7639634782
20
42.5270505884
30
0
0
SPLINE
5
162
100
AcDbEntity
8
komachi
6
ByLayer
62
7
370
-1
100
AcDbSpline
210
0
220
0
230
1
70
8
71
3
72
8
73
4
74
0
42
1e-07
43
1e-07
40
0
40
0
40
0
40
0
40
1
40
1
40
1
40
1
10
41.7639634782
20
42.5270505884
30
0
10
41.3173117342
20
42.8824471824
30
0
10
40.8823717322
20
43.3472814124
30
0
10
40.8823717322
20
43.4695139284
30
0
0
SPLINE
5
163
100
AcDbEntity
8
komachi
6
ByLayer
62
7
370
-1
100
AcDbSpline
210
0
220
0
230
1
70
8
71
3
72
8
73
4
74
0
42
1e-07
43
1e-07
40
0
40
0
40
0
40
0
40
1
40
1
40
1
40
1
10
40.8823717322
20
43.4695139284
30
0
10
40.8823717322
20
43.5347954244
30
0
10
40.9907655002
20
43.6844598204
30
0
10
41.1237599002
20
43.8011602644
30
0
0
SPLINE
5
164
100
AcDbEntity
8
komachi
6
ByLayer
62
7
370
-1
100
AcDbSpline
210
0
220
0
230
1
70
8
71
3
72
8
73
4
74
0
42
1e-07
43
1e-07
40
0
40
0
40
0
40
0
40
1
40
1
40
1
40
1
10
41.1237599002
20
43.8011602644
30
0
10
41.2567543002
20
43.9178609464
30
0
10
41.3651480682
20
44.0387870804
30
0
10
41.3651480682
20
44.0698358464
30
0
0
SPLINE
5
165
100
AcDbEntity
8
komachi
6
ByLayer
62
7
370
-1
100
AcDbSpline
210
0
220
0
230
1
70
8
71
3
72
8
73
4
74
0
42
1e-07
43
1e-07
40
0
40
0
40
0
40
0
40
1
40
1
40
1
40
1
10
41.3651480682
20
44.0698358464
30
0
10
41.3651480682
20
44.1683121544
30
0
10
41.8567256442
20
44.6218801784
30
0
10
41.9633710642
20
44.6218801784
30
0
0
LWPOLYLINE
5
166
100
AcDbEntity
8
komachi
6
ByLayer
62
7
370
-1
100
AcDbPolyline
90
2
70
0
43
0
10
50.2965112362
20
50.5873170964
10
50.2965112362
20
50.5873170964
0
LWPOLYLINE
5
167
100
AcDbEntity
8
komachi
6
ByLayer
62
7
370
-1
100
AcDbPolyline
90
2
70
0
43
0
10
41.9633710642
20
44.6218801784
10
41.9633710642
20
44.6218801784
0
SPLINE
5
168
100
AcDbEntity
8
name
6
ByLayer
62
7
370
-1
100
AcDbSpline
210
0
220
0
230
1
70
8
71
3
72
8
73
4
74
0
42
1e-07
43
1e-07
40
0
40
0
40
0
40
0
40
1
40
1
40
1
40
1
10
21.4783147313
20
13.1066729304
30
0
10
21.0564559313
20
13.1641822104
30
0
10
21.0860184113
20
13.1419853304
30
0
10
21.0279655313
20
13.4448194904
30
0
0
SPLINE
5
169
100
AcDbEntity
8
name
6
ByLayer
62
7
370
-1
100
AcDbSpline
210
0
220
0
230
1
70
8
71
3
72
8
73
4
74
0
42
1e-07
43
1e-07
40
0
40
0
40
0
40
0
40
1
40
1
40
1
40
1
10
21.0279655313
20
13.4448194904
30
0
10
21.0001252913
20
13.5900521304
30
0
10
20.9773466513
20
13.7217408504
30
0
10
20.9773466513
20
13.7374620504
30
0
0
SPLINE
5
16A
100
AcDbEntity
8
name
6
ByLayer
62
7
370
-1
100
AcDbSpline
210
0
220
0
230
1
70
8
71
3
72
8
73
4
74
0
42
1e-07
43
1e-07
40
0
40
0
40
0
40
0
40
1
40
1
40
1
40
1
10
20.9773466513
20
13.7374620504
30
0
10
20.9773466513
20
13.7540328504
30
0
10
21.1061812913
20
13.7436518904
30
0
10
21.2838679313
20
13.7127667704
30
0
0
SPLINE
5
16B
100
AcDbEntity
8
name
6
ByLayer
62
7
370
-1
100
AcDbSpline
210
0
220
0
230
1
70
8
71
3
72
8
73
4
74
0
42
1e-07
43
1e-07
40
0
40
0
40
0
40
0
40
1
40
1
40
1
40
1
10
21.2838679313
20
13.7127667704
30
0
10
21.4524544913
20
13.6834634904
30
0
10
21.7868714513
20
13.6506084504
30
0
10
22.0270152113
20
13.6397566104
30
0
0
SPLINE
5
16C
100
AcDbEntity
8
name
6
ByLayer
62
7
370
-1
100
AcDbSpline
210
0
220
0
230
1
70
8
71
3
72
8
73
4
74
0
42
1e-07
43
1e-07
40
0
40
0
40
0
40
0
40
1
40
1
40
1
40
1
10
22.0270152113
20
13.6397566104
30
0
10
22.4473159313
20
13.6207637304
30
0
10
22.4660445713
20
13.6224276504
30
0
10
22.5279163313
20
13.6843001304
30
0
0
SPLINE
5
16D
100
AcDbEntity
8
name
6
ByLayer
62
7
370
-1
100
AcDbSpline
210
0
220
0
230
1
70
8
71
3
72
8
73
4
74
0
42
1e-07
43
1e-07
40
0
40
0
40
0
40
0
40
1
40
1
40
1
40
1
10
23.2134470513
20
16.9259316504
30
0
10
23.2057236113
20
13.7262106104
30
0
10
23.2020436913
20
13.5172147704
30
0
10
23.1514744913
20
13.4050812504
30
0
0
SPLINE
5
16E
100
AcDbEntity
8
name
6
ByLayer
62
7
370
-1
100
AcDbSpline
210
0
220
0
230
1
70
8
71
3
72
8
73
4
74
0
42
1e-07
43
1e-07
40
0
40
0
40
0
40
0
40
1
40
1
40
1
40
1
10
23.1514744913
20
13.4050812504
30
0
10
23.0208009713
20
13.1153208504
30
0
10
22.8682826513
20
13.0594222104
30
0
10
22.2204338513
20
13.0638523704
30
0
0
SPLINE
5
16F
100
AcDbEntity
8
name
6
ByLayer
62
7
370
-1
100
AcDbSpline
210
0
220
0
230
1
70
8
71
3
72
8
73
4
74
0
42
1e-07
43
1e-07
40
0
40
0
40
0
40
0
40
1
40
1
40
1
40
1
10
22.2204338513
20
13.0638523704
30
0
10
21.9725947313
20
13.0655386104
30
0
10
21.6386414513
20
13.0848166104
30
0
10
21.4783154513
20
13.1066729304
30
0
0
LWPOLYLINE
5
170
100
AcDbEntity
8
name
6
ByLayer
62
7
370
-1
100
AcDbPolyline
90
7
70
0
43
0
10
22.5279163313
20
13.6843001304
10
22.5921914513
20
13.7485752504
10
22.5921914513
20
17.0380738104
10
22.5921914513
20
20.3275723704
10
22.9069250513
20
20.3275723704
10
23.2216586513
20
20.3275723704
10
23.2134470513
20
16.9259316504
0
SPLINE
5
171
100
AcDbEntity
8
name
6
ByLayer
62
7
370
-1
100
AcDbSpline
210
0
220
0
230
1
70
8
71
3
72
8
73
4
74
0
42
1e-07
43
1e-07
40
0
40
0
40
0
40
0
40
1
40
1
40
1
40
1
10
19.6263724913
20
14.6848906104
30
0
10
19.5001176113
20
14.7702509304
30
0
10
19.3724781713
20
14.8548869304
30
0
10
19.3427292113
20
14.8729704504
30
0
0
SPLINE
5
172
100
AcDbEntity
8
name
6
ByLayer
62
7
370
-1
100
AcDbSpline
210
0
220
0
230
1
70
8
71
3
72
8
73
4
74
0
42
1e-07
43
1e-07
40
0
40
0
40
0
40
0
40
1
40
1
40
1
40
1
10
19.3427292113
20
14.8729704504
30
0
10
19.2929246513
20
14.9032457304
30
0
10
19.3079503313
20
14.9435146104
30
0
10
19.5324225713
20
15.3813473304
30
0
0
SPLINE
5
173
100
AcDbEntity
8
name
6
ByLayer
62
7
370
-1
100
AcDbSpline
210
0
220
0
230
1
70
8
71
3
72
8
73
4
74
0
42
1e-07
43
1e-07
40
0
40
0
40
0
40
0
40
1
40
1
40
1
40
1
10
19.5324225713
20
15.3813473304
30
0
10
19.9849332113
20
16.2639715704
30
0
10
20.3790792113
20
17.2952131704
30
0
10
20.6342486513
20
18.2641596504
30
0
0
SPLINE
5
174
100
AcDbEntity
8
name
6
ByLayer
62
7
370
-1
100
AcDbSpline
210
0
220
0
230
1
70
8
71
3
72
8
73
4
74
0
42
1e-07
43
1e-07
40
0
40
0
40
0
40
0
40
1
40
1
40
1
40
1
10
20.6342486513
20
18.2641596504
30
0
10
20.6970542513
20
18.5026481304
30
0
10
20.7574096913
20
18.7083960504
30
0
10
20.7683724113
20
18.7213776504
30
0
0
SPLINE
5
175
100
AcDbEntity
8
name
6
ByLayer
62
7
370
-1
100
AcDbSpline
210
0
220
0
230
1
70
8
71
3
72
8
73
4
74
0
42
1e-07
43
1e-07
40
0
40
0
40
0
40
0
40
1
40
1
40
1
40
1
10
20.7683724113
20
18.7213776504
30
0
10
20.7828926513
20
18.7385705304
30
0
10
21.2743344113
20
18.5876794104
30
0
10
21.3279650513
20
18.5495618904
30
0
0
SPLINE
5
176
100
AcDbEntity
8
name
6
ByLayer
62
7
370
-1
100
AcDbSpline
210
0
220
0
230
1
70
8
71
3
72
8
73
4
74
0
42
1e-07
43
1e-07
40
0
40
0
40
0
40
0
40
1
40
1
40
1
40
1
10
21.3279650513
20
18.5495618904
30
0
10
21.3549355313
20
18.5303926104
30
0
10
20.9843140913
20
17.2321915704
30
0
10
20.7769296113
20
16.6194103704
30
0
0
SPLINE
5
177
100
AcDbEntity
8
name
6
ByLayer
62
7
370
-1
100
AcDbSpline
210
0
220
0
230
1
70
8
71
3
72
8
73
4
74
0
42
1e-07
43
1e-07
40
0
40
0
40
0
40
0
40
1
40
1
40
1
40
1
10
20.7769296113
20
16.6194103704
30
0
10
20.5458729713
20
15.9366811704
30
0
10
19.9346916113
20
14.5216550904
30
0
10
19.8735571313
20
14.5278917304
30
0
0
SPLINE
5
178
100
AcDbEntity
8
name
6
ByLayer
62
7
370
-1
100
AcDbSpline
210
0
220
0
230
1
70
8
71
3
72
8
73
4
74
0
42
1e-07
43
1e-07
40
0
40
0
40
0
40
0
40
1
40
1
40
1
40
1
10
19.8735571313
20
14.5278917304
30
0
10
19.8638601713
20
14.5288817304
30
0
10
19.7526273713
20
14.5995302904
30
0
10
19.6263724913
20
14.6848906104
30
0
0
LWPOLYLINE
5
179
100
AcDbEntity
8
name
6
ByLayer
62
7
370
-1
100
AcDbPolyline
90
3
70
0
43
0
10
21.4783154513
20
13.1066729304
10
21.4783154513
20
13.1066729304
10
21.4783147313
20
13.1066729304
0
SPLINE
5
17A
100
AcDbEntity
8
name
6
ByLayer
62
7
370
-1
100
AcDbSpline
210
0
220
0
230
1
70
8
71
3
72
8
73
4
74
0
42
1e-07
43
1e-07
40
0
40
0
40
0
40
0
40
1
40
1
40
1
40
1
10
25.6606903313
20
14.9821368504
30
0
10
25.3934162513
20
15.9639778104
30
0
10
24.9532219313
20
17.1784363704
30
0
10
24.5366356913
20
18.0833100504
30
0
0
LWPOLYLINE
5
17B
100
AcDbEntity
8
name
6
ByLayer
62
7
370
-1
100
AcDbPolyline
90
2
70
0
43
0
10
19.6263724913
20
14.6848906104
10
19.6263724913
20
14.6848906104
0
SPLINE
5
17C
100
AcDbEntity
8
name
6
ByLayer
62
7
370
-1
100
AcDbSpline
210
0
220
0
230
1
70
8
71
3
72
8
73
4
74
0
42
1e-07
43
1e-07
40
0
40
0
40
0
40
0
40
1
40
1
40
1
40
1
10
24.5931679313
20
18.6294005304
30
0
10
24.7344160913
20
18.6904788504
30
0
10
24.8643120113
20
18.7409429304
30
0
10
24.8818252913
20
18.7415419704
30
0
0
SPLINE
5
17D
100
AcDbEntity
8
name
6
ByLayer
62
7
370
-1
100
AcDbSpline
210
0
220
0
230
1
70
8
71
3
72
8
73
4
74
0
42
1e-07
43
1e-07
40
0
40
0
40
0
40
0
40
1
40
1
40
1
40
1
10
24.8818252913
20
18.7415419704
30
0
10
24.8993392913
20
18.7421417304
30
0
10
24.9382732913
20
18.6921679704
30
0
10
24.9683469713
20
18.6304898904
30
0
0
SPLINE
5
17E
100
AcDbEntity
8
name
6
ByLayer
62
7
370
-1
100
AcDbSpline
210
0
220
0
230
1
70
8
71
3
72
8
73
4
74
0
42
1e-07
43
1e-07
40
0
40
0
40
0
40
0
40
1
40
1
40
1
40
1
10
24.9683469713
20
18.6304898904
30
0
10
25.2145120913
20
18.1256338104
30
0
10
25.5091519313
20
17.4582542904
30
0
10
25.7241892913
20
16.9184558904
30
0
0
SPLINE
5
17F
100
AcDbEntity
8
name
6
ByLayer
62
7
370
-1
100
AcDbSpline
210
0
220
0
230
1
70
8
71
3
72
8
73
4
74
0
42
1e-07
43
1e-07
40
0
40
0
40
0
40
0
40
1
40
1
40
1
40
1
10
25.7241892913
20
16.9184558904
30
0
10
26.0096347313
20
16.2019162104
30
0
10
26.4583300913
20
14.8802186904
30
0
10
26.4259387313
20
14.8513531704
30
0
0
SPLINE
5
180
100
AcDbEntity
8
name
6
ByLayer
62
7
370
-1
100
AcDbSpline
210
0
220
0
230
1
70
8
71
3
72
8
73
4
74
0
42
1e-07
43
1e-07
40
0
40
0
40
0
40
0
40
1
40
1
40
1
40
1
10
26.4259387313
20
14.8513531704
30
0
10
26.4086032913
20
14.8359034104
30
0
10
25.7982304913
20
14.5559976504
30
0
10
25.7818792913
20
14.5559976504
30
0
0
SPLINE
5
181
100
AcDbEntity
8
name
6
ByLayer
62
7
370
-1
100
AcDbSpline
210
0
220
0
230
1
70
8
71
3
72
8
73
4
74
0
42
1e-07
43
1e-07
40
0
40
0
40
0
40
0
40
1
40
1
40
1
40
1
10
25.7818792913
20
14.5559976504
30
0
10
25.7790259313
20
14.5559976504
30
0
10
25.7244916913
20
14.7477602904
30
0
10
25.6606903313
20
14.9821368504
30
0
0
LWPOLYLINE
5
182
100
AcDbEntity
8
name
6
ByLayer
62
7
370
-1
100
AcDbPolyline
90
3
70
0
43
0
10
24.5366356913
20
18.0833100504
10
24.3363518513
20
18.5183484504
10
24.5931679313
20
18.6294005304
0
SPLINE
5
183
100
AcDbEntity
8
name
6
ByLayer
62
7
370
-1
100
AcDbSpline
210
0
220
0
230
1
70
8
71
3
72
8
73
4
74
0
42
1e-07
43
1e-07
40
0
40
0
40
0
40
0
40
1
40
1
40
1
40
1
10
31.5573031313
20
13.1022830904
30
0
10
31.4469580913
20
13.1219606904
30
0
10
31.3508359313
20
13.1442194904
30
0
10
31.3436985713
20
13.1517485304
30
0
0
SPLINE
5
184
100
AcDbEntity
8
name
6
ByLayer
62
7
370
-1
100
AcDbSpline
210
0
220
0
230
1
70
8
71
3
72
8
73
4
74
0
42
1e-07
43
1e-07
40
0
40
0
40
0
40
0
40
1
40
1
40
1
40
1
10
31.3436985713
20
13.1517485304
30
0
10
31.3365597713
20
13.1592768504
30
0
10
31.3045636913
20
13.3035806904
30
0
10
31.2725935313
20
13.4724228504
30
0
0
SPLINE
5
185
100
AcDbEntity
8
name
6
ByLayer
62
7
370
-1
100
AcDbSpline
210
0
220
0
230
1
70
8
71
3
72
8
73
4
74
0
42
1e-07
43
1e-07
40
0
40
0
40
0
40
0
40
1
40
1
40
1
40
1
10
31.2725935313
20
13.4724228504
30
0
10
31.2206865713
20
13.7465570904
30
0
10
31.2195439313
20
13.7778785304
30
0
10
31.2619130513
20
13.7651035704
30
0
0
SPLINE
5
186
100
AcDbEntity
8
name
6
ByLayer
62
7
370
-1
100
AcDbSpline
210
0
220
0
230
1
70
8
71
3
72
8
73
4
74
0
42
1e-07
43
1e-07
40
0
40
0
40
0
40
0
40
1
40
1
40
1
40
1
10
31.2619130513
20
13.7651035704
30
0
10
31.4306457713
20
13.7142298104
30
0
10
31.6197818513
20
13.6863038904
30
0
10
31.9093924913
20
13.6695019704
30
0
0
LWPOLYLINE
5
187
100
AcDbEntity
8
name
6
ByLayer
62
7
370
-1
100
AcDbPolyline
90
3
70
0
43
0
10
25.6606903313
20
14.9821368504
10
25.6606903313
20
14.9821368504
10
25.6606903313
20
14.9821368504
0
SPLINE
5
188
100
AcDbEntity
8
name
6
ByLayer
62
7
370
-1
100
AcDbSpline
210
0
220
0
230
1
70
8
71
3
72
8
73
4
74
0
42
1e-07
43
1e-07
40
0
40
0
40
0
40
0
40
1
40
1
40
1
40
1
10
32.3056272113
20
13.7333782104
30
0
10
32.3708721713
20
13.8163229304
30
0
10
32.3709722513
20
13.8187795704
30
0
10
32.3709722513
20
15.3375482904
30
0
0
LWPOLYLINE
5
189
100
AcDbEntity
8
name
6
ByLayer
62
7
370
-1
100
AcDbPolyline
90
3
70
0
43
0
10
31.9093924913
20
13.6695019704
10
32.2402828913
20
13.6503053304
10
32.3056272113
20
13.7333782104
0
SPLINE
5
18A
100
AcDbEntity
8
name
6
ByLayer
62
7
370
-1
100
AcDbSpline
210
0
220
0
230
1
70
8
71
3
72
8
73
4
74
0
42
1e-07
43
1e-07
40
0
40
0
40
0
40
0
40
1
40
1
40
1
40
1
10
31.8775476113
20
17.3969282904
30
0
10
32.3956430513
20
17.3969282904
30
0
10
32.8195401713
20
17.4060535704
30
0
10
32.8195401713
20
17.4172092504
30
0
0
SPLINE
5
18B
100
AcDbEntity
8
name
6
ByLayer
62
7
370
-1
100
AcDbSpline
210
0
220
0
230
1
70
8
71
3
72
8
73
4
74
0
42
1e-07
43
1e-07
40
0
40
0
40
0
40
0
40
1
40
1
40
1
40
1
10
32.8195401713
20
17.4172092504
30
0
10
32.8195401713
20
17.4613006104
30
0
10
32.0647051313
20
18.2080594104
30
0
10
31.7137735313
20
18.5111455704
30
0
0
LWPOLYLINE
5
18C
100
AcDbEntity
8
name
6
ByLayer
62
7
370
-1
100
AcDbPolyline
90
7
70
0
43
0
10
32.3709722513
20
15.3375482904
10
32.3709722513
20
16.8586462104
10
31.6532632913
20
16.8586462104
10
30.9355543313
20
16.8586462104
10
30.9355543313
20
17.1277872504
10
30.9355543313
20
17.3969282904
10
31.8775476113
20
17.3969282904
0
SPLINE
5
18D
100
AcDbEntity
8
name
6
ByLayer
62
7
370
-1
100
AcDbSpline
210
0
220
0
230
1
70
8
71
3
72
8
73
4
74
0
42
1e-07
43
1e-07
40
0
40
0
40
0
40
0
40
1
40
1
40
1
40
1
10
32.0597054513
20
18.9467916504
30
0
10
32.1297880913
20
18.8964614904
30
0
10
32.2991436113
20
18.7638281304
30
0
10
32.4360494513
20
18.6520510104
30
0
0
SPLINE
5
18E
100
AcDbEntity
8
name
6
ByLayer
62
7
370
-1
100
AcDbSpline
210
0
220
0
230
1
70
8
71
3
72
8
73
4
74
0
42
1e-07
43
1e-07
40
0
40
0
40
0
40
0
40
1
40
1
40
1
40
1
10
32.4360494513
20
18.6520510104
30
0
10
32.6203284113
20
18.5015954904
30
0
10
32.6947512113
20
18.4569180504
30
0
10
32.7226368113
20
18.4800070104
30
0
0
SPLINE
5
18F
100
AcDbEntity
8
name
6
ByLayer
62
7
370
-1
100
AcDbSpline
210
0
220
0
230
1
70
8
71
3
72
8
73
4
74
0
42
1e-07
43
1e-07
40
0
40
0
40
0
40
0
40
1
40
1
40
1
40
1
10
32.7226368113
20
18.4800070104
30
0
10
32.8457899313
20
18.5819762904
30
0
10
33.3578215313
20
19.3535743704
30
0
10
33.3578215313
20
19.4371886904
30
0
0
SPLINE
5
190
100
AcDbEntity
8
name
6
ByLayer
62
7
370
-1
100
AcDbSpline
210
0
220
0
230
1
70
8
71
3
72
8
73
4
74
0
42
1e-07
43
1e-07
40
0
40
0
40
0
40
0
40
1
40
1
40
1
40
1
10
33.3578215313
20
19.4371886904
30
0
10
33.3578215313
20
19.4499226104
30
0
10
32.8464537713
20
19.4603410104
30
0
10
32.2214491313
20
19.4603410104
30
0
0
LWPOLYLINE
5
191
100
AcDbEntity
8
name
6
ByLayer
62
7
370
-1
100
AcDbPolyline
90
5
70
0
43
0
10
31.7137735313
20
18.5111455704
10
31.5500001713
20
18.6525902904
10
31.7411407313
20
18.8454451704
10
31.9322812913
20
19.0383007704
10
32.0597054513
20
18.9467916504
0
SPLINE
5
192
100
AcDbEntity
8
name
6
ByLayer
62
7
370
-1
100
AcDbSpline
210
0
220
0
230
1
70
8
71
3
72
8
73
4
74
0
42
1e-07
43
1e-07
40
0
40
0
40
0
40
0
40
1
40
1
40
1
40
1
10
33.9512188913
20
19.1943802104
30
0
10
33.7373731313
20
18.8374963704
30
0
10
33.6062877713
20
18.6469728504
30
0
10
33.3417280913
20
18.3085303704
30
0
0
LWPOLYLINE
5
193
100
AcDbEntity
8
name
6
ByLayer
62
7
370
-1
100
AcDbPolyline
90
9
70
0
43
0
10
32.2214491313
20
19.4603410104
10
31.0850774513
20
19.4603410104
10
31.0850774513
20
19.7444342904
10
31.0850774513
20
20.0285268504
10
32.5952558513
20
20.0285268504
10
34.1054349713
20
20.0285268504
10
34.1054349713
20
19.7401380504
10
34.1054349713
20
19.4517492504
10
33.9512188913
20
19.1943802104
0
SPLINE
5
194
100
AcDbEntity
8
name
6
ByLayer
62
7
370
-1
100
AcDbSpline
210
0
220
0
230
1
70
8
71
3
72
8
73
4
74
0
42
1e-07
43
1e-07
40
0
40
0
40
0
40
0
40
1
40
1
40
1
40
1
10
34.4642894513
20
17.1480257304
30
0
10
34.4642894513
20
16.7936719704
30
0
10
34.2746817713
20
16.0489385304
30
0
10
34.0317091313
20
15.4489495704
30
0
0
SPLINE
5
195
100
AcDbEntity
8
name
6
ByLayer
62
7
370
-1
100
AcDbSpline
210
0
220
0
230
1
70
8
71
3
72
8
73
4
74
0
42
1e-07
43
1e-07
40
0
40
0
40
0
40
0
40
1
40
1
40
1
40
1
10
34.0317091313
20
15.4489495704
30
0
10
34.0139654513
20
15.4051375704
30
0
10
33.9815913713
20
15.4098758904
30
0
10
33.7280505713
20
15.4933908504
30
0
0
SPLINE
5
196
100
AcDbEntity
8
name
6
ByLayer
62
7
370
-1
100
AcDbSpline
210
0
220
0
230
1
70
8
71
3
72
8
73
4
74
0
42
1e-07
43
1e-07
40
0
40
0
40
0
40
0
40
1
40
1
40
1
40
1
10
33.7280505713
20
15.4933908504
30
0
10
33.5107358513
20
15.5649725304
30
0
10
33.4478834513
20
15.5974776504
30
0
10
33.4597526513
20
15.6321449304
30
0
0
SPLINE
5
197
100
AcDbEntity
8
name
6
ByLayer
62
7
370
-1
100
AcDbSpline
210
0
220
0
230
1
70
8
71
3
72
8
73
4
74
0
42
1e-07
43
1e-07
40
0
40
0
40
0
40
0
40
1
40
1
40
1
40
1
10
33.4597526513
20
15.6321449304
30
0
10
33.5357623313
20
15.8541425304
30
0
10
33.7755734513
20
16.6582997304
30
0
10
33.7920708113
20
16.7465047704
30
0
0
LWPOLYLINE
5
198
100
AcDbEntity
8
name
6
ByLayer
62
7
370
-1
100
AcDbPolyline
90
9
70
0
43
0
10
33.3417280913
20
18.3085303704
10
33.1136220113
20
18.0167215704
10
33.2848509713
20
17.8436868504
10
33.4560799313
20
17.6706521304
10
33.3608980913
20
17.5412666904
10
33.2657162513
20
17.4118805304
10
33.8650024913
20
17.4037848504
10
34.4642894513
20
17.3956898904
10
34.4642894513
20
17.1480257304
0
SPLINE
5
199
100
AcDbEntity
8
name
6
ByLayer
62
7
370
-1
100
AcDbSpline
210
0
220
0
230
1
70
8
71
3
72
8
73
4
74
0
42
1e-07
43
1e-07
40
0
40
0
40
0
40
0
40
1
40
1
40
1
40
1
10
32.9914531313
20
15.2064211704
30
0
10
32.9833171313
20
13.9575278904
30
0
10
32.9712182513
20
13.5253378104
30
0
10
32.9418890513
20
13.4359807704
30
0
0
SPLINE
5
19A
100
AcDbEntity
8
name
6
ByLayer
62
7
370
-1
100
AcDbSpline
210
0
220
0
230
1
70
8
71
3
72
8
73
4
74
0
42
1e-07
43
1e-07
40
0
40
0
40
0
40
0
40
1
40
1
40
1
40
1
10
32.9418890513
20
13.4359807704
30
0
10
32.8912694513
20
13.2817574904
30
0
10
32.7420026513
20
13.1350560504
30
0
10
32.5938525713
20
13.0939246104
30
0
0
SPLINE
5
19B
100
AcDbEntity
8
name
6
ByLayer
62
7
370
-1
100
AcDbSpline
210
0
220
0
230
1
70
8
71
3
72
8
73
4
74
0
42
1e-07
43
1e-07
40
0
40
0
40
0
40
0
40
1
40
1
40
1
40
1
10
32.5938525713
20
13.0939246104
30
0
10
32.4405148913
20
13.0513531704
30
0
10
31.8145965713
20
13.0564003704
30
0
10
31.5573016913
20
13.1022823704
30
0
0
LWPOLYLINE
5
19C
100
AcDbEntity
8
name
6
ByLayer
62
7
370
-1
100
AcDbPolyline
90
5
70
0
43
0
10
33.7920708113
20
16.7465047704
10
33.8130458513
20
16.8586462104
10
33.4076311313
20
16.8586462104
10
33.0022164113
20
16.8586462104
10
32.9914531313
20
15.2064211704
0
SPLINE
5
19D
100
AcDbEntity
8
name
6
ByLayer
62
7
370
-1
100
AcDbSpline
210
0
220
0
230
1
70
8
71
3
72
8
73
4
74
0
42
1e-07
43
1e-07
40
0
40
0
40
0
40
0
40
1
40
1
40
1
40
1
10
27.3672962513
20
13.3533197304
30
0
10
27.3469166513
20
13.3899324504
30
0
10
27.2488015313
20
13.9296322104
30
0
10
27.2608572113
20
13.9388078904
30
0
0
SPLINE
5
19E
100
AcDbEntity
8
name
6
ByLayer
62
7
370
-1
100
AcDbSpline
210
0
220
0
230
1
70
8
71
3
72
8
73
4
74
0
42
1e-07
43
1e-07
40
0
40
0
40
0
40
0
40
1
40
1
40
1
40
1
10
27.2608572113
20
13.9388078904
30
0
10
27.2671240913
20
13.9435771704
30
0
10
27.5750335313
20
13.9846157304
30
0
10
27.9451027313
20
14.0300045304
30
0
0
SPLINE
5
19F
100
AcDbEntity
8
name
6
ByLayer
62
7
370
-1
100
AcDbSpline
210
0
220
0
230
1
70
8
71
3
72
8
73
4
74
0
42
1e-07
43
1e-07
40
0
40
0
40
0
40
0
40
1
40
1
40
1
40
1
10
27.9451027313
20
14.0300045304
30
0
10
28.3151712113
20
14.0753926104
30
0
10
28.6415040113
20
14.1190174104
30
0
10
28.6702874513
20
14.1269467704
30
0
0
SPLINE
5
1A0
100
AcDbEntity
8
name
6
ByLayer
62
7
370
-1
100
AcDbSpline
210
0
220
0
230
1
70
8
71
3
72
8
73
4
74
0
42
1e-07
43
1e-07
40
0
40
0
40
0
40
0
40
1
40
1
40
1
40
1
10
28.6702874513
20
14.1269467704
30
0
10
28.7169340913
20
14.1397973304
30
0
10
28.7226199313
20
14.1866340504
30
0
10
28.7226199313
20
14.5580129304
30
0
0
LWPOLYLINE
5
1A1
100
AcDbEntity
8
name
6
ByLayer
62
7
370
-1
100
AcDbPolyline
90
3
70
0
43
0
10
31.5573016913
20
13.1022823704
10
31.5573016913
20
13.1022823704
10
31.5573031313
20
13.1022830904
0
SPLINE
5
1A2
100
AcDbEntity
8
name
6
ByLayer
62
7
370
-1
100
AcDbSpline
210
0
220
0
230
1
70
8
71
3
72
8
73
4
74
0
42
1e-07
43
1e-07
40
0
40
0
40
0
40
0
40
1
40
1
40
1
40
1
10
29.3207109713
20
14.6008543704
30
0
10
29.3207109713
20
14.3952605304
30
0
10
29.3308039313
20
14.2270908504
30
0
10
29.3431389713
20
14.2271434104
30
0
0
SPLINE
5
1A3
100
AcDbEntity
8
name
6
ByLayer
62
7
370
-1
100
AcDbSpline
210
0
220
0
230
1
70
8
71
3
72
8
73
4
74
0
42
1e-07
43
1e-07
40
0
40
0
40
0
40
0
40
1
40
1
40
1
40
1
10
29.3431389713
20
14.2271434104
30
0
10
29.3910499313
20
14.2273464504
30
0
10
29.9252035313
20
14.3230610904
30
0
10
30.3625711313
20
14.4098131704
30
0
0
SPLINE
5
1A4
100
AcDbEntity
8
name
6
ByLayer
62
7
370
-1
100
AcDbSpline
210
0
220
0
230
1
70
8
71
3
72
8
73
4
74
0
42
1e-07
43
1e-07
40
0
40
0
40
0
40
0
40
1
40
1
40
1
40
1
10
30.3625711313
20
14.4098131704
30
0
10
30.6148684913
20
14.4598560504
30
0
10
30.8252244113
20
14.4963989304
30
0
10
30.8300289713
20
14.4910183704
30
0
0
SPLINE
5
1A5
100
AcDbEntity
8
name
6
ByLayer
62
7
370
-1
100
AcDbSpline
210
0
220
0
230
1
70
8
71
3
72
8
73
4
74
0
42
1e-07
43
1e-07
40
0
40
0
40
0
40
0
40
1
40
1
40
1
40
1
10
30.8300289713
20
14.4910183704
30
0
10
30.8348328113
20
14.4856378104
30
0
10
30.8582306513
20
14.3647073304
30
0
10
30.8820223313
20
14.2222819704
30
0
0
LWPOLYLINE
5
1A6
100
AcDbEntity
8
name
6
ByLayer
62
7
370
-1
100
AcDbPolyline
90
29
70
0
43
0
10
28.7226199313
20
14.5580129304
10
28.7226199313
20
14.9746610904
10
28.0647206513
20
14.9746610904
10
27.4068206513
20
14.9746610904
10
27.4068206513
20
15.2438021304
10
27.4068206513
20
15.5129424504
10
28.0647206513
20
15.5129424504
10
28.7226199313
20
15.5129424504
10
28.7226199313
20
15.9166536504
10
28.7226199313
20
16.3203648504
10
28.0497684113
20
16.3203648504
10
27.3769161713
20
16.3203648504
10
27.3769161713
20
18.1445417304
10
27.3769161713
20
19.9687178904
10
29.0067132113
20
19.9687178904
10
30.6365102513
20
19.9687178904
10
30.6365102513
20
18.1445417304
10
30.6365102513
20
16.3203648504
10
29.9786102513
20
16.3203648504
10
29.3207109713
20
16.3203648504
10
29.3207109713
20
15.9166536504
10
29.3207109713
20
15.5129424504
10
29.9636580113
20
15.5129424504
10
30.6066057713
20
15.5129424504
10
30.6066057713
20
15.2438021304
10
30.6066057713
20
14.9746610904
10
29.9636580113
20
14.9746610904
10
29.3207109713
20
14.9746610904
10
29.3207109713
20
14.6008543704
0
SPLINE
5
1A7
100
AcDbEntity
8
name
6
ByLayer
62
7
370
-1
100
AcDbSpline
210
0
220
0
230
1
70
8
71
3
72
8
73
4
74
0
42
1e-07
43
1e-07
40
0
40
0
40
0
40
0
40
1
40
1
40
1
40
1
10
30.8481801713
20
13.9467084504
30
0
10
29.7398035313
20
13.7077987704
30
0
10
28.9290496913
20
13.5588235704
30
0
10
28.0647206513
20
13.4352506904
30
0
0
SPLINE
5
1A8
100
AcDbEntity
8
name
6
ByLayer
62
7
370
-1
100
AcDbSpline
210
0
220
0
230
1
70
8
71
3
72
8
73
4
74
0
42
1e-07
43
1e-07
40
0
40
0
40
0
40
0
40
1
40
1
40
1
40
1
10
28.0647206513
20
13.4352506904
30
0
10
27.7768891313
20
13.3940998104
30
0
10
27.5049062513
20
13.3540051704
30
0
10
27.4603130513
20
13.3461506904
30
0
0
SPLINE
5
1A9
100
AcDbEntity
8
name
6
ByLayer
62
7
370
-1
100
AcDbSpline
210
0
220
0
230
1
70
8
71
3
72
8
73
4
74
0
42
1e-07
43
1e-07
40
0
40
0
40
0
40
0
40
1
40
1
40
1
40
1
10
27.4603130513
20
13.3461506904
30
0
10
27.4157205713
20
13.3382969304
30
0
10
27.3738626513
20
13.3415218104
30
0
10
27.3672962513
20
13.3533190104
30
0
0
LWPOLYLINE
5
1AA
100
AcDbEntity
8
name
6
ByLayer
62
7
370
-1
100
AcDbPolyline
90
3
70
0
43
0
10
30.8820223313
20
14.2222819704
10
30.9252799313
20
13.9633282104
10
30.8481801713
20
13.9467084504
0
LWPOLYLINE
5
1AB
100
AcDbEntity
8
name
6
ByLayer
62
7
370
-1
100
AcDbPolyline
90
3
70
0
43
0
10
27.3672962513
20
13.3533190104
10
27.3672962513
20
13.3533190104
10
27.3672962513
20
13.3533197304
0
LWPOLYLINE
5
1AC
100
AcDbEntity
8
name
6
ByLayer
62
7
370
-1
100
AcDbPolyline
90
10
70
0
43
0
10
28.7226199313
20
17.3819760504
10
28.7226199313
20
17.9053051704
10
28.3338609713
20
17.9053051704
10
27.9451027313
20
17.9053051704
10
27.9451027313
20
17.3819760504
10
27.9451027313
20
16.8586462104
10
28.3338609713
20
16.8586462104
10
28.7226199313
20
16.8586462104
10
28.7226199313
20
17.3819760504
10
28.7226199313
20
17.3819760504
0
LWPOLYLINE
5
1AD
100
AcDbEntity
8
name
6
ByLayer
62
7
370
-1
100
AcDbPolyline
90
10
70
0
43
0
10
30.0683244113
20
17.3819760504
10
30.0683244113
20
17.9053051704
10
29.6945176913
20
17.9053051704
10
29.3207109713
20
17.9053051704
10
29.3207109713
20
17.3819760504
10
29.3207109713
20
16.8586462104
10
29.6945176913
20
16.8586462104
10
30.0683244113
20
16.8586462104
10
30.0683244113
20
17.3819760504
10
30.0683244113
20
17.3819760504
0
LWPOLYLINE
5
1AE
100
AcDbEntity
8
name
6
ByLayer
62
7
370
-1
100
AcDbPolyline
90
10
70
0
43
0
10
28.7226199313
20
18.9071066904
10
28.7226199313
20
19.4304365304
10
28.3338609713
20
19.4304365304
10
27.9451027313
20
19.4304365304
10
27.9451027313
20
18.9071066904
10
27.9451027313
20
18.3837775704
10
28.3338609713
20
18.3837775704
10
28.7226199313
20
18.3837775704
10
28.7226199313
20
18.9071066904
10
28.7226199313
20
18.9071066904
0
SPLINE
5
1AF
100
AcDbEntity
8
name
6
ByLayer
62
7
370
-1
100
AcDbSpline
210
0
220
0
230
1
70
8
71
3
72
8
73
4
74
0
42
1e-07
43
1e-07
40
0
40
0
40
0
40
0
40
1
40
1
40
1
40
1
10
39.5860144913
20
13.0839461304
30
0
10
39.5667696113
20
13.0961882904
30
0
10
39.5174884913
20
13.2382666104
30
0
10
39.4765024913
20
13.3996762104
30
0
0
SPLINE
5
1B0
100
AcDbEntity
8
name
6
ByLayer
62
7
370
-1
100
AcDbSpline
210
0
220
0
230
1
70
8
71
3
72
8
73
4
74
0
42
1e-07
43
1e-07
40
0
40
0
40
0
40
0
40
1
40
1
40
1
40
1
10
39.4765024913
20
13.3996762104
30
0
10
39.4109155313
20
13.6579668504
30
0
10
39.4079404913
20
13.6908499704
30
0
10
39.4516855313
20
13.6739832504
30
0
0
SPLINE
5
1B1
100
AcDbEntity
8
name
6
ByLayer
62
7
370
-1
100
AcDbSpline
210
0
220
0
230
1
70
8
71
3
72
8
73
4
74
0
42
1e-07
43
1e-07
40
0
40
0
40
0
40
0
40
1
40
1
40
1
40
1
10
39.4516855313
20
13.6739832504
30
0
10
39.4790224913
20
13.6634438904
30
0
10
39.6386493713
20
13.6470120504
30
0
10
39.8064115313
20
13.6374677304
30
0
0
SPLINE
5
1B2
100
AcDbEntity
8
name
6
ByLayer
62
7
370
-1
100
AcDbSpline
210
0
220
0
230
1
70
8
71
3
72
8
73
4
74
0
42
1e-07
43
1e-07
40
0
40
0
40
0
40
0
40
1
40
1
40
1
40
1
10
39.8064115313
20
13.6374677304
30
0
10
40.1709295313
20
13.6167310104
30
0
10
40.2305628113
20
13.6429843704
30
0
10
40.3101336113
20
13.8592334904
30
0
0
SPLINE
5
1B3
100
AcDbEntity
8
name
6
ByLayer
62
7
370
-1
100
AcDbSpline
210
0
220
0
230
1
70
8
71
3
72
8
73
4
74
0
42
1e-07
43
1e-07
40
0
40
0
40
0
40
0
40
1
40
1
40
1
40
1
10
40.3101336113
20
13.8592334904
30
0
10
40.3500648113
20
13.9677554904
30
0
10
40.3661971313
20
14.1249379704
30
0
10
40.3762756913
20
14.5036644504
30
0
0
SPLINE
5
1B4
100
AcDbEntity
8
name
6
ByLayer
62
7
370
-1
100
AcDbSpline
210
0
220
0
230
1
70
8
71
3
72
8
73
4
74
0
42
1e-07
43
1e-07
40
0
40
0
40
0
40
0
40
1
40
1
40
1
40
1
10
40.3762756913
20
14.5036644504
30
0
10
40.3836110513
20
14.7791602104
30
0
10
40.3793846513
20
15.0045655704
30
0
10
40.3668674513
20
15.0045655704
30
0
0
SPLINE
5
1B5
100
AcDbEntity
8
name
6
ByLayer
62
7
370
-1
100
AcDbSpline
210
0
220
0
230
1
70
8
71
3
72
8
73
4
74
0
42
1e-07
43
1e-07
40
0
40
0
40
0
40
0
40
1
40
1
40
1
40
1
10
40.3668674513
20
15.0045655704
30
0
10
40.3543704113
20
15.0045655704
30
0
10
40.2083493713
20
14.8728422904
30
0
10
40.0423792913
20
14.7118466904
30
0
0
SPLINE
5
1B6
100
AcDbEntity
8
name
6
ByLayer
62
7
370
-1
100
AcDbSpline
210
0
220
0
230
1
70
8
71
3
72
8
73
4
74
0
42
1e-07
43
1e-07
40
0
40
0
40
0
40
0
40
1
40
1
40
1
40
1
10
40.0423792913
20
14.7118466904
30
0
10
39.7097695313
20
14.3892060504
30
0
10
39.3685298513
20
14.1199390104
30
0
10
39.0121197713
20
13.8988860504
30
0
0
SPLINE
5
1B7
100
AcDbEntity
8
name
6
ByLayer
62
7
370
-1
100
AcDbSpline
210
0
220
0
230
1
70
8
71
3
72
8
73
4
74
0
42
1e-07
43
1e-07
40
0
40
0
40
0
40
0
40
1
40
1
40
1
40
1
10
39.0121197713
20
13.8988860504
30
0
10
38.7633410513
20
13.7445886104
30
0
10
38.1917366513
20
13.4495297304
30
0
10
38.1416008913
20
13.4495297304
30
0
0
SPLINE
5
1B8
100
AcDbEntity
8
name
6
ByLayer
62
7
370
-1
100
AcDbSpline
210
0
220
0
230
1
70
8
71
3
72
8
73
4
74
0
42
1e-07
43
1e-07
40
0
40
0
40
0
40
0
40
1
40
1
40
1
40
1
10
38.1416008913
20
13.4495297304
30
0
10
38.1128174513
20
13.4495297304
30
0
10
37.8577632113
20
13.9251444504
30
0
10
37.8771700913
20
13.9426303704
30
0
0
SPLINE
5
1B9
100
AcDbEntity
8
name
6
ByLayer
62
7
370
-1
100
AcDbSpline
210
0
220
0
230
1
70
8
71
3
72
8
73
4
74
0
42
1e-07
43
1e-07
40
0
40
0
40
0
40
0
40
1
40
1
40
1
40
1
10
37.8771700913
20
13.9426303704
30
0
10
37.8823209713
20
13.9472707704
30
0
10
38.0401082513
20
14.0278272504
30
0
10
38.2278079313
20
14.1216432504
30
0
0
SPLINE
5
1BA
100
AcDbEntity
8
name
6
ByLayer
62
7
370
-1
100
AcDbSpline
210
0
220
0
230
1
70
8
71
3
72
8
73
4
74
0
42
1e-07
43
1e-07
40
0
40
0
40
0
40
0
40
1
40
1
40
1
40
1
10
38.2278079313
20
14.1216432504
30
0
10
38.9831916113
20
14.4991982904
30
0
10
39.5922158513
20
14.9563219704
30
0
10
40.0851854513
20
15.5157576504
30
0
0
LWPOLYLINE
5
1BB
100
AcDbEntity
8
name
6
ByLayer
62
7
370
-1
100
AcDbPolyline
90
10
70
0
43
0
10
30.0683244113
20
18.9071066904
10
30.0683244113
20
19.4304365304
10
29.6945176913
20
19.4304365304
10
29.3207109713
20
19.4304365304
10
29.3207109713
20
18.9071066904
10
29.3207109713
20
18.3837775704
10
29.6945176913
20
18.3837775704
10
30.0683244113
20
18.3837775704
10
30.0683244113
20
18.9071066904
10
30.0683244113
20
18.9071066904
0
SPLINE
5
1BC
100
AcDbEntity
8
name
6
ByLayer
62
7
370
-1
100
AcDbSpline
210
0
220
0
230
1
70
8
71
3
72
8
73
4
74
0
42
1e-07
43
1e-07
40
0
40
0
40
0
40
0
40
1
40
1
40
1
40
1
10
40.2775896113
20
15.8961646104
30
0
10
40.2496168913
20
16.0987099704
30
0
10
40.1781597713
20
16.4460278904
30
0
10
40.1609121713
20
16.4632754904
30
0
0
SPLINE
5
1BD
100
AcDbEntity
8
name
6
ByLayer
62
7
370
-1
100
AcDbSpline
210
0
220
0
230
1
70
8
71
3
72
8
73
4
74
0
42
1e-07
43
1e-07
40
0
40
0
40
0
40
0
40
1
40
1
40
1
40
1
10
40.1609121713
20
16.4632754904
30
0
10
40.1527840913
20
16.4713956504
30
0
10
39.9997401713
20
16.3318373304
30
0
10
39.8207956913
20
16.1531455704
30
0
0
LWPOLYLINE
5
1BE
100
AcDbEntity
8
name
6
ByLayer
62
7
370
-1
100
AcDbPolyline
90
3
70
0
43
0
10
40.0851854513
20
15.5157576504
10
40.2969338513
20
15.7560576504
10
40.2775896113
20
15.8961646104
0
SPLINE
5
1BF
100
AcDbEntity
8
name
6
ByLayer
62
7
370
-1
100
AcDbSpline
210
0
220
0
230
1
70
8
71
3
72
8
73
4
74
0
42
1e-07
43
1e-07
40
0
40
0
40
0
40
0
40
1
40
1
40
1
40
1
10
39.6105549713
20
15.5779066104
30
0
10
39.6738681713
20
15.4402159704
30
0
10
39.7256678513
20
15.3181205304
30
0
10
39.7256678513
20
15.3065832504
30
0
0
SPLINE
5
1C0
100
AcDbEntity
8
name
6
ByLayer
62
7
370
-1
100
AcDbSpline
210
0
220
0
230
1
70
8
71
3
72
8
73
4
74
0
42
1e-07
43
1e-07
40
0
40
0
40
0
40
0
40
1
40
1
40
1
40
1
10
39.7256678513
20
15.3065832504
30
0
10
39.7256678513
20
15.2826850104
30
0
10
39.2779408913
20
15.0226202904
30
0
10
39.2647188113
20
15.0388390104
30
0
0
SPLINE
5
1C1
100
AcDbEntity
8
name
6
ByLayer
62
7
370
-1
100
AcDbSpline
210
0
220
0
230
1
70
8
71
3
72
8
73
4
74
0
42
1e-07
43
1e-07
40
0
40
0
40
0
40
0
40
1
40
1
40
1
40
1
10
39.2647188113
20
15.0388390104
30
0
10
39.2599747313
20
15.0446602104
30
0
10
39.2183212913
20
15.1469858904
30
0
10
39.1721577713
20
15.2662301304
30
0
0
SPLINE
5
1C2
100
AcDbEntity
8
name
6
ByLayer
62
7
370
-1
100
AcDbSpline
210
0
220
0
230
1
70
8
71
3
72
8
73
4
74
0
42
1e-07
43
1e-07
40
0
40
0
40
0
40
0
40
1
40
1
40
1
40
1
10
39.1721577713
20
15.2662301304
30
0
10
39.1259942513
20
15.3854743704
30
0
10
39.0769240913
20
15.4830379704
30
0
10
39.0631137713
20
15.4830379704
30
0
0
SPLINE
5
1C3
100
AcDbEntity
8
name
6
ByLayer
62
7
370
-1
100
AcDbSpline
210
0
220
0
230
1
70
8
71
3
72
8
73
4
74
0
42
1e-07
43
1e-07
40
0
40
0
40
0
40
0
40
1
40
1
40
1
40
1
10
39.0631137713
20
15.4830379704
30
0
10
39.0493020113
20
15.4830379704
30
0
10
38.9740504913
20
15.4374562104
30
0
10
38.8958865713
20
15.3817454904
30
0
0
SPLINE
5
1C4
100
AcDbEntity
8
name
6
ByLayer
62
7
370
-1
100
AcDbSpline
210
0
220
0
230
1
70
8
71
3
72
8
73
4
74
0
42
1e-07
43
1e-07
40
0
40
0
40
0
40
0
40
1
40
1
40
1
40
1
10
38.8958865713
20
15.3817454904
30
0
10
38.7438405713
20
15.2733746904
30
0
10
38.2314820913
20
14.9746610904
30
0
10
38.1976485713
20
14.9746610904
30
0
0
SPLINE
5
1C5
100
AcDbEntity
8
name
6
ByLayer
62
7
370
-1
100
AcDbSpline
210
0
220
0
230
1
70
8
71
3
72
8
73
4
74
0
42
1e-07
43
1e-07
40
0
40
0
40
0
40
0
40
1
40
1
40
1
40
1
10
38.1976485713
20
14.9746610904
30
0
10
38.1745315313
20
14.9746610904
30
0
10
37.9205126513
20
15.4527850104
30
0
10
37.9361712113
20
15.4668242904
30
0
0
SPLINE
5
1C6
100
AcDbEntity
8
name
6
ByLayer
62
7
370
-1
100
AcDbSpline
210
0
220
0
230
1
70
8
71
3
72
8
73
4
74
0
42
1e-07
43
1e-07
40
0
40
0
40
0
40
0
40
1
40
1
40
1
40
1
10
37.9361712113
20
15.4668242904
30
0
10
37.9417692113
20
15.4718434104
30
0
10
38.0338197713
20
15.5197082904
30
0
10
38.1407282513
20
15.5731906104
30
0
0
SPLINE
5
1C7
100
AcDbEntity
8
name
6
ByLayer
62
7
370
-1
100
AcDbSpline
210
0
220
0
230
1
70
8
71
3
72
8
73
4
74
0
42
1e-07
43
1e-07
40
0
40
0
40
0
40
0
40
1
40
1
40
1
40
1
10
38.1407282513
20
15.5731906104
30
0
10
38.3394273713
20
15.6725923704
30
0
10
38.7986275313
20
15.9567720504
30
0
10
38.7986275313
20
15.9803369304
30
0
0
SPLINE
5
1C8
100
AcDbEntity
8
name
6
ByLayer
62
7
370
-1
100
AcDbSpline
210
0
220
0
230
1
70
8
71
3
72
8
73
4
74
0
42
1e-07
43
1e-07
40
0
40
0
40
0
40
0
40
1
40
1
40
1
40
1
10
38.7986275313
20
15.9803369304
30
0
10
38.7986275313
20
16.0020643704
30
0
10
38.6521456913
20
16.2712435704
30
0
10
38.6050864913
20
16.3359938904
30
0
0
SPLINE
5
1C9
100
AcDbEntity
8
name
6
ByLayer
62
7
370
-1
100
AcDbSpline
210
0
220
0
230
1
70
8
71
3
72
8
73
4
74
0
42
1e-07
43
1e-07
40
0
40
0
40
0
40
0
40
1
40
1
40
1
40
1
10
38.6050864913
20
16.3359938904
30
0
10
38.5634056913
20
16.3933426104
30
0
10
38.5721068913
20
16.4030856504
30
0
10
38.7728529713
20
16.5238512504
30
0
0
SPLINE
5
1CA
100
AcDbEntity
8
name
6
ByLayer
62
7
370
-1
100
AcDbSpline
210
0
220
0
230
1
70
8
71
3
72
8
73
4
74
0
42
1e-07
43
1e-07
40
0
40
0
40
0
40
0
40
1
40
1
40
1
40
1
10
38.7728529713
20
16.5238512504
30
0
10
39.0112802513
20
16.6672860504
30
0
10
39.0171734513
20
16.6661419704
30
0
10
39.1426046513
20
16.4521104504
30
0
0
SPLINE
5
1CB
100
AcDbEntity
8
name
6
ByLayer
62
7
370
-1
100
AcDbSpline
210
0
220
0
230
1
70
8
71
3
72
8
73
4
74
0
42
1e-07
43
1e-07
40
0
40
0
40
0
40
0
40
1
40
1
40
1
40
1
10
39.1426046513
20
16.4521104504
30
0
10
39.2098526513
20
16.3373604504
30
0
10
39.2278922513
20
16.3239338904
30
0
10
39.2784585713
20
16.3509965304
30
0
0
SPLINE
5
1CC
100
AcDbEntity
8
name
6
ByLayer
62
7
370
-1
100
AcDbSpline
210
0
220
0
230
1
70
8
71
3
72
8
73
4
74
0
42
1e-07
43
1e-07
40
0
40
0
40
0
40
0
40
1
40
1
40
1
40
1
10
39.2784585713
20
16.3509965304
30
0
10
39.3731400113
20
16.4016679704
30
0
10
39.9009583313
20
16.9181167704
30
0
10
39.9202788113
20
16.9789913304
30
0
0
SPLINE
5
1CD
100
AcDbEntity
8
name
6
ByLayer
62
7
370
-1
100
AcDbSpline
210
0
220
0
230
1
70
8
71
3
72
8
73
4
74
0
42
1e-07
43
1e-07
40
0
40
0
40
0
40
0
40
1
40
1
40
1
40
1
10
39.9202788113
20
16.9789913304
30
0
10
39.9396028913
20
17.0398428504
30
0
10
39.8328844913
20
17.3152702104
30
0
10
39.7696706513
20
17.3677337304
30
0
0
SPLINE
5
1CE
100
AcDbEntity
8
name
6
ByLayer
62
7
370
-1
100
AcDbSpline
210
0
220
0
230
1
70
8
71
3
72
8
73
4
74
0
42
1e-07
43
1e-07
40
0
40
0
40
0
40
0
40
1
40
1
40
1
40
1
10
39.7696706513
20
17.3677337304
30
0
10
39.7400138513
20
17.3923454904
30
0
10
39.6808644113
20
17.3648033304
30
0
10
39.5258995313
20
17.2542286104
30
0
0
SPLINE
5
1CF
100
AcDbEntity
8
name
6
ByLayer
62
7
370
-1
100
AcDbSpline
210
0
220
0
230
1
70
8
71
3
72
8
73
4
74
0
42
1e-07
43
1e-07
40
0
40
0
40
0
40
0
40
1
40
1
40
1
40
1
10
39.5258995313
20
17.2542286104
30
0
10
39.2110154513
20
17.0295439704
30
0
10
38.8233055313
20
16.8040932504
30
0
10
38.5047307313
20
16.6604258904
30
0
0
SPLINE
5
1D0
100
AcDbEntity
8
name
6
ByLayer
62
7
370
-1
100
AcDbSpline
210
0
220
0
230
1
70
8
71
3
72
8
73
4
74
0
42
1e-07
43
1e-07
40
0
40
0
40
0
40
0
40
1
40
1
40
1
40
1
10
38.5047307313
20
16.6604258904
30
0
10
38.3456481713
20
16.5886836504
30
0
10
38.2016193713
20
16.5299208504
30
0
10
38.1846662513
20
16.5298416504
30
0
0
SPLINE
5
1D1
100
AcDbEntity
8
name
6
ByLayer
62
7
370
-1
100
AcDbSpline
210
0
220
0
230
1
70
8
71
3
72
8
73
4
74
0
42
1e-07
43
1e-07
40
0
40
0
40
0
40
0
40
1
40
1
40
1
40
1
10
38.1846662513
20
16.5298416504
30
0
10
38.1558489713
20
16.5297062904
30
0
10
37.9178522513
20
16.9757707704
30
0
10
37.9373865713
20
16.9933056504
30
0
0
SPLINE
5
1D2
100
AcDbEntity
8
name
6
ByLayer
62
7
370
-1
100
AcDbSpline
210
0
220
0
230
1
70
8
71
3
72
8
73
4
74
0
42
1e-07
43
1e-07
40
0
40
0
40
0
40
0
40
1
40
1
40
1
40
1
10
37.9373865713
20
16.9933056504
30
0
10
37.9423164113
20
16.9977314904
30
0
10
38.0405481713
20
17.0384467704
30
0
10
38.1556804913
20
17.0837866104
30
0
0
SPLINE
5
1D3
100
AcDbEntity
8
name
6
ByLayer
62
7
370
-1
100
AcDbSpline
210
0
220
0
230
1
70
8
71
3
72
8
73
4
74
0
42
1e-07
43
1e-07
40
0
40
0
40
0
40
0
40
1
40
1
40
1
40
1
10
38.1556804913
20
17.0837866104
30
0
10
38.4550161713
20
17.2016664504
30
0
10
38.8078197713
20
17.3821063704
30
0
10
39.0515534513
20
17.5419780504
30
0
0
SPLINE
5
1D4
100
AcDbEntity
8
name
6
ByLayer
62
7
370
-1
100
AcDbSpline
210
0
220
0
230
1
70
8
71
3
72
8
73
4
74
0
42
1e-07
43
1e-07
40
0
40
0
40
0
40
0
40
1
40
1
40
1
40
1
10
39.0515534513
20
17.5419780504
30
0
10
39.2561018513
20
17.6761464504
30
0
10
39.7854775313
20
18.1569876504
30
0
10
39.7854775313
20
18.2086138104
30
0
0
SPLINE
5
1D5
100
AcDbEntity
8
name
6
ByLayer
62
7
370
-1
100
AcDbSpline
210
0
220
0
230
1
70
8
71
3
72
8
73
4
74
0
42
1e-07
43
1e-07
40
0
40
0
40
0
40
0
40
1
40
1
40
1
40
1
10
39.7854775313
20
18.2086138104
30
0
10
39.7854775313
20
18.2227164504
30
0
10
39.5499792113
20
18.2342551704
30
0
10
39.2621484113
20
18.2342551704
30
0
0
LWPOLYLINE
5
1D6
100
AcDbEntity
8
name
6
ByLayer
62
7
370
-1
100
AcDbPolyline
90
3
70
0
43
0
10
39.8207956913
20
16.1531455704
10
39.4954420913
20
15.8282520504
10
39.6105549713
20
15.5779066104
0
SPLINE
5
1D7
100
AcDbEntity
8
name
6
ByLayer
62
7
370
-1
100
AcDbSpline
210
0
220
0
230
1
70
8
71
3
72
8
73
4
74
0
42
1e-07
43
1e-07
40
0
40
0
40
0
40
0
40
1
40
1
40
1
40
1
10
41.0713716113
20
18.2342551704
30
0
10
40.7588707313
20
18.2342551704
30
0
10
40.5031857713
20
18.2234832504
30
0
10
40.5031857713
20
18.2103202104
30
0
0
SPLINE
5
1D8
100
AcDbEntity
8
name
6
ByLayer
62
7
370
-1
100
AcDbSpline
210
0
220
0
230
1
70
8
71
3
72
8
73
4
74
0
42
1e-07
43
1e-07
40
0
40
0
40
0
40
0
40
1
40
1
40
1
40
1
10
40.5031857713
20
18.2103202104
30
0
10
40.5031857713
20
18.1971542904
30
0
10
40.4347036913
20
18.1095497304
30
0
10
40.3510036913
20
18.0156394104
30
0
0
LWPOLYLINE
5
1D9
100
AcDbEntity
8
name
6
ByLayer
62
7
370
-1
100
AcDbPolyline
90
9
70
0
43
0
10
39.2621484113
20
18.2342551704
10
38.7388185713
20
18.2342551704
10
38.7388185713
20
18.5033962104
10
38.7388185713
20
18.7725365304
10
40.1891894513
20
18.7725365304
10
41.6395574513
20
18.7725365304
10
41.6395574513
20
18.5033962104
10
41.6395574513
20
18.2342551704
10
41.0713716113
20
18.2342551704
0
SPLINE
5
1DA
100
AcDbEntity
8
name
6
ByLayer
62
7
370
-1
100
AcDbSpline
210
0
220
0
230
1
70
8
71
3
72
8
73
4
74
0
42
1e-07
43
1e-07
40
0
40
0
40
0
40
0
40
1
40
1
40
1
40
1
10
40.4039431313
20
17.4340075704
30
0
10
40.5167599313
20
17.2080204504
30
0
10
40.6247440913
20
16.9785910104
30
0
10
40.6439083313
20
16.9241654904
30
0
0
SPLINE
5
1DB
100
AcDbEntity
8
name
6
ByLayer
62
7
370
-1
100
AcDbSpline
210
0
220
0
230
1
70
8
71
3
72
8
73
4
74
0
42
1e-07
43
1e-07
40
0
40
0
40
0
40
0
40
1
40
1
40
1
40
1
10
40.6439083313
20
16.9241654904
30
0
10
40.6782350513
20
16.8266767704
30
0
10
40.6800228113
20
16.8258667704
30
0
10
40.7645234513
20
16.8695635704
30
0
0
SPLINE
5
1DC
100
AcDbEntity
8
name
6
ByLayer
62
7
370
-1
100
AcDbSpline
210
0
220
0
230
1
70
8
71
3
72
8
73
4
74
0
42
1e-07
43
1e-07
40
0
40
0
40
0
40
0
40
1
40
1
40
1
40
1
10
40.7645234513
20
16.8695635704
30
0
10
40.9322712113
20
16.9563098904
30
0
10
41.3890060913
20
17.3335380504
30
0
10
41.6248622513
20
17.5801402104
30
0
0
LWPOLYLINE
5
1DD
100
AcDbEntity
8
name
6
ByLayer
62
7
370
-1
100
AcDbPolyline
90
3
70
0
43
0
10
40.3510036913
20
18.0156394104
10
40.1988208913
20
17.8448942904
10
40.4039431313
20
17.4340075704
0
SPLINE
5
1DE
100
AcDbEntity
8
name
6
ByLayer
62
7
370
-1
100
AcDbSpline
210
0
220
0
230
1
70
8
71
3
72
8
73
4
74
0
42
1e-07
43
1e-07
40
0
40
0
40
0
40
0
40
1
40
1
40
1
40
1
10
42.0360499313
20
17.6487770904
30
0
10
42.1304829713
20
17.5488050904
30
0
10
42.2077432913
20
17.4515561304
30
0
10
42.2077432913
20
17.4326676504
30
0
0
SPLINE
5
1DF
100
AcDbEntity
8
name
6
ByLayer
62
7
370
-1
100
AcDbSpline
210
0
220
0
230
1
70
8
71
3
72
8
73
4
74
0
42
1e-07
43
1e-07
40
0
40
0
40
0
40
0
40
1
40
1
40
1
40
1
10
42.2077432913
20
17.4326676504
30
0
10
42.2077432913
20
17.4137806104
30
0
10
42.0471566513
20
17.2343522904
30
0
10
41.8508817713
20
17.0339395704
30
0
0
LWPOLYLINE
5
1E0
100
AcDbEntity
8
name
6
ByLayer
62
7
370
-1
100
AcDbPolyline
90
3
70
0
43
0
10
41.6248622513
20
17.5801402104
10
41.8643558513
20
17.8305439704
10
42.0360499313
20
17.6487770904
0
SPLINE
5
1E1
100
AcDbEntity
8
name
6
ByLayer
62
7
370
-1
100
AcDbSpline
210
0
220
0
230
1
70
8
71
3
72
8
73
4
74
0
42
1e-07
43
1e-07
40
0
40
0
40
0
40
0
40
1
40
1
40
1
40
1
10
41.5965446513
20
16.3313088504
30
0
10
41.8196013713
20
15.5954292504
30
0
10
42.1360219313
20
15.0094687704
30
0
10
42.5814448913
20
14.5074394104
30
0
0
LWPOLYLINE
5
1E2
100
AcDbEntity
8
name
6
ByLayer
62
7
370
-1
100
AcDbPolyline
90
3
70
0
43
0
10
41.8508817713
20
17.0339395704
10
41.4940180913
20
16.6695540504
10
41.5965446513
20
16.3313088504
0
SPLINE
5
1E3
100
AcDbEntity
8
name
6
ByLayer
62
7
370
-1
100
AcDbSpline
210
0
220
0
230
1
70
8
71
3
72
8
73
4
74
0
42
1e-07
43
1e-07
40
0
40
0
40
0
40
0
40
1
40
1
40
1
40
1
10
42.5032838513
20
14.0813002104
30
0
10
42.3855235313
20
13.9311967704
30
0
10
42.2809464113
20
13.8088277304
30
0
10
42.2708880113
20
13.8093698904
30
0
0
SPLINE
5
1E4
100
AcDbEntity
8
name
6
ByLayer
62
7
370
-1
100
AcDbSpline
210
0
220
0
230
1
70
8
71
3
72
8
73
4
74
0
42
1e-07
43
1e-07
40
0
40
0
40
0
40
0
40
1
40
1
40
1
40
1
10
42.2708880113
20
13.8093698904
30
0
10
42.2443538513
20
13.8107926104
30
0
10
41.9371154513
20
14.2405411704
30
0
10
41.8074398513
20
14.4576017304
30
0
0
SPLINE
5
1E5
100
AcDbEntity
8
name
6
ByLayer
62
7
370
-1
100
AcDbSpline
210
0
220
0
230
1
70
8
71
3
72
8
73
4
74
0
42
1e-07
43
1e-07
40
0
40
0
40
0
40
0
40
1
40
1
40
1
40
1
10
41.8074398513
20
14.4576017304
30
0
10
41.5333574513
20
14.9163850104
30
0
10
41.2775227313
20
15.5232866904
30
0
10
41.0249143313
20
16.3139345304
30
0
0
SPLINE
5
1E6
100
AcDbEntity
8
name
6
ByLayer
62
7
370
-1
100
AcDbSpline
210
0
220
0
230
1
70
8
71
3
72
8
73
4
74
0
42
1e-07
43
1e-07
40
0
40
0
40
0
40
0
40
1
40
1
40
1
40
1
10
41.0249143313
20
16.3139345304
30
0
10
41.0153030513
20
16.3440154104
30
0
10
40.9924063313
20
16.3418993304
30
0
10
40.9194840113
20
16.3041893304
30
0
0
SPLINE
5
1E7
100
AcDbEntity
8
name
6
ByLayer
62
7
370
-1
100
AcDbSpline
210
0
220
0
230
1
70
8
71
3
72
8
73
4
74
0
42
1e-07
43
1e-07
40
0
40
0
40
0
40
0
40
1
40
1
40
1
40
1
10
40.9194840113
20
16.3041893304
30
0
10
40.8345852113
20
16.2602851704
30
0
10
40.8280706513
20
16.2467448504
30
0
10
40.8459640913
20
16.1513606904
30
0
0
SPLINE
5
1E8
100
AcDbEntity
8
name
6
ByLayer
62
7
370
-1
100
AcDbSpline
210
0
220
0
230
1
70
8
71
3
72
8
73
4
74
0
42
1e-07
43
1e-07
40
0
40
0
40
0
40
0
40
1
40
1
40
1
40
1
10
40.8459640913
20
16.1513606904
30
0
10
40.9158465713
20
15.7788614904
30
0
10
40.9568995313
20
15.3230215704
30
0
10
40.9723284113
20
14.7482570904
30
0
0
SPLINE
5
1E9
100
AcDbEntity
8
name
6
ByLayer
62
7
370
-1
100
AcDbSpline
210
0
220
0
230
1
70
8
71
3
72
8
73
4
74
0
42
1e-07
43
1e-07
40
0
40
0
40
0
40
0
40
1
40
1
40
1
40
1
10
40.9723284113
20
14.7482570904
30
0
10
40.9926482513
20
13.9913462904
30
0
10
40.9587952913
20
13.7472317304
30
0
10
40.7979825713
20
13.4909743704
30
0
0
SPLINE
5
1EA
100
AcDbEntity
8
name
6
ByLayer
62
7
370
-1
100
AcDbSpline
210
0
220
0
230
1
70
8
71
3
72
8
73
4
74
0
42
1e-07
43
1e-07
40
0
40
0
40
0
40
0
40
1
40
1
40
1
40
1
10
40.7979825713
20
13.4909743704
30
0
10
40.6638379313
20
13.2772121304
30
0
10
40.5951974513
20
13.2105120504
30
0
10
40.4284245713
20
13.1318657304
30
0
0
SPLINE
5
1EB
100
AcDbEntity
8
name
6
ByLayer
62
7
370
-1
100
AcDbSpline
210
0
220
0
230
1
70
8
71
3
72
8
73
4
74
0
42
1e-07
43
1e-07
40
0
40
0
40
0
40
0
40
1
40
1
40
1
40
1
10
40.4284245713
20
13.1318657304
30
0
10
40.2995186513
20
13.0710768504
30
0
10
40.2335457713
20
13.0613777304
30
0
10
39.9499514513
20
13.0615202904
30
0
0
SPLINE
5
1EC
100
AcDbEntity
8
name
6
ByLayer
62
7
370
-1
100
AcDbSpline
210
0
220
0
230
1
70
8
71
3
72
8
73
4
74
0
42
1e-07
43
1e-07
40
0
40
0
40
0
40
0
40
1
40
1
40
1
40
1
10
39.9499514513
20
13.0615202904
30
0
10
39.7690305713
20
13.0616102904
30
0
10
39.6052557713
20
13.0717025304
30
0
10
39.5860101713
20
13.0839454104
30
0
0
LWPOLYLINE
5
1ED
100
AcDbEntity
8
name
6
ByLayer
62
7
370
-1
100
AcDbPolyline
90
3
70
0
43
0
10
42.5814448913
20
14.5074394104
10
42.7173916913
20
14.3542162104
10
42.5032838513
20
14.0813002104
0
LWPOLYLINE
5
1EE
100
AcDbEntity
8
name
6
ByLayer
62
7
370
-1
100
AcDbPolyline
90
3
70
0
43
0
10
39.5860101713
20
13.0839454104
10
39.5860101713
20
13.0839454104
10
39.5860144913
20
13.0839461304
0
SPLINE
5
1EF
100
AcDbEntity
8
name
6
ByLayer
62
7
370
-1
100
AcDbSpline
210
0
220
0
230
1
70
8
71
3
72
8
73
4
74
0
42
1e-07
43
1e-07
40
0
40
0
40
0
40
0
40
1
40
1
40
1
40
1
10
35.4343756913
20
14.5559789304
30
0
10
35.4041990513
20
14.7204434904
30
0
10
35.3851255313
20
14.8589383704
30
0
10
35.3919885713
20
14.8637458104
30
0
0
SPLINE
5
1F0
100
AcDbEntity
8
name
6
ByLayer
62
7
370
-1
100
AcDbSpline
210
0
220
0
230
1
70
8
71
3
72
8
73
4
74
0
42
1e-07
43
1e-07
40
0
40
0
40
0
40
0
40
1
40
1
40
1
40
1
10
35.3919885713
20
14.8637458104
30
0
10
35.3988530513
20
14.8685532504
30
0
10
35.5523865713
20
14.9168407704
30
0
10
35.7331764113
20
14.9710524504
30
0
0
SPLINE
5
1F1
100
AcDbEntity
8
name
6
ByLayer
62
7
370
-1
100
AcDbSpline
210
0
220
0
230
1
70
8
71
3
72
8
73
4
74
0
42
1e-07
43
1e-07
40
0
40
0
40
0
40
0
40
1
40
1
40
1
40
1
10
35.7331764113
20
14.9710524504
30
0
10
35.9139662513
20
15.0252634104
30
0
10
36.1057288913
20
15.0879372504
30
0
10
36.1593156113
20
15.1103270904
30
0
0
LWPOLYLINE
5
1F2
100
AcDbEntity
8
name
6
ByLayer
62
7
370
-1
100
AcDbPolyline
90
18
70
0
43
0
10
37.8715915313
20
19.2510089304
10
37.8715915313
20
20.0285268504
10
40.1891930513
20
20.0285268504
10
42.5067931313
20
20.0285268504
10
42.5067931313
20
19.2809134104
10
42.5067931313
20
18.5333006904
10
42.2227012913
20
18.5333006904
10
41.9386072913
20
18.5333006904
10
41.9386072913
20
19.0117730904
10
41.9386072913
20
19.4902454904
10
40.1891930513
20
19.4902454904
10
38.4397773713
20
19.4902454904
10
38.4397773713
20
18.9818686104
10
38.4397773713
20
18.4734910104
10
38.1556848113
20
18.4734910104
10
37.8715915313
20
18.4734910104
10
37.8715915313
20
19.2510089304
10
37.8715915313
20
19.2510089304
0
SPLINE
5
1F3
100
AcDbEntity
8
name
6
ByLayer
62
7
370
-1
100
AcDbSpline
210
0
220
0
230
1
70
8
71
3
72
8
73
4
74
0
42
1e-07
43
1e-07
40
0
40
0
40
0
40
0
40
1
40
1
40
1
40
1
10
36.8922180113
20
15.3504564504
30
0
10
36.9292245713
20
15.3619894104
30
0
10
37.0924449713
20
15.4301820504
30
0
10
37.2549288113
20
15.5019941304
30
0
0
SPLINE
5
1F4
100
AcDbEntity
8
name
6
ByLayer
62
7
370
-1
100
AcDbSpline
210
0
220
0
230
1
70
8
71
3
72
8
73
4
74
0
42
1e-07
43
1e-07
40
0
40
0
40
0
40
0
40
1
40
1
40
1
40
1
10
37.2549288113
20
15.5019941304
30
0
10
37.4174126513
20
15.5738054904
30
0
10
37.5541320113
20
15.6325610904
30
0
10
37.5587479313
20
15.6325610904
30
0
0
SPLINE
5
1F5
100
AcDbEntity
8
name
6
ByLayer
62
7
370
-1
100
AcDbSpline
210
0
220
0
230
1
70
8
71
3
72
8
73
4
74
0
42
1e-07
43
1e-07
40
0
40
0
40
0
40
0
40
1
40
1
40
1
40
1
10
37.5587479313
20
15.6325610904
30
0
10
37.5633645713
20
15.6325610904
30
0
10
37.5828146513
20
15.5349974904
30
0
10
37.6019702513
20
15.4157532504
30
0
0
SPLINE
5
1F6
100
AcDbEntity
8
name
6
ByLayer
62
7
370
-1
100
AcDbSpline
210
0
220
0
230
1
70
8
71
3
72
8
73
4
74
0
42
1e-07
43
1e-07
40
0
40
0
40
0
40
0
40
1
40
1
40
1
40
1
10
37.6019702513
20
15.4157532504
30
0
10
37.6211258513
20
15.2965090104
30
0
10
37.6427820113
20
15.1774498104
30
0
10
37.6500950513
20
15.1511784504
30
0
0
SPLINE
5
1F7
100
AcDbEntity
8
name
6
ByLayer
62
7
370
-1
100
AcDbSpline
210
0
220
0
230
1
70
8
71
3
72
8
73
4
74
0
42
1e-07
43
1e-07
40
0
40
0
40
0
40
0
40
1
40
1
40
1
40
1
10
37.6500950513
20
15.1511784504
30
0
10
37.6646930513
20
15.0987358104
30
0
10
37.3282564913
20
14.9300318904
30
0
10
36.7202668913
20
14.6849215704
30
0
0
SPLINE
5
1F8
100
AcDbEntity
8
name
6
ByLayer
62
7
370
-1
100
AcDbSpline
210
0
220
0
230
1
70
8
71
3
72
8
73
4
74
0
42
1e-07
43
1e-07
40
0
40
0
40
0
40
0
40
1
40
1
40
1
40
1
10
36.7202668913
20
14.6849215704
30
0
10
36.4592769713
20
14.5797036504
30
0
10
35.5376229713
20
14.2569521304
30
0
10
35.4981518513
20
14.2569521304
30
0
0
SPLINE
5
1F9
100
AcDbEntity
8
name
6
ByLayer
62
7
370
-1
100
AcDbSpline
210
0
220
0
230
1
70
8
71
3
72
8
73
4
74
0
42
1e-07
43
1e-07
40
0
40
0
40
0
40
0
40
1
40
1
40
1
40
1
10
35.4981518513
20
14.2569521304
30
0
10
35.4932508113
20
14.2569521304
30
0
10
35.4645516113
20
14.3915143704
30
0
10
35.4343756913
20
14.5559789304
30
0
0
LWPOLYLINE
5
1FA
100
AcDbEntity
8
name
6
ByLayer
62
7
370
-1
100
AcDbPolyline
90
25
70
0
43
0
10
36.1593156113
20
15.1103270904
10
36.2567467313
20
15.1510366104
10
36.2567467313
20
16.5132182904
10
36.2567467313
20
17.8754006904
10
35.8679877713
20
17.8754006904
10
35.4792288113
20
17.8754006904
10
35.4792288113
20
18.1594939704
10
35.4792288113
20
18.4435865304
10
35.8679877713
20
18.4435865304
10
36.2567467313
20
18.4435865304
10
36.2567467313
20
19.3257701304
10
36.2567467313
20
20.2079544504
10
36.5408400113
20
20.2079544504
10
36.8249325713
20
20.2079544504
10
36.8249325713
20
19.3257701304
10
36.8249325713
20
18.4435865304
10
37.2585482513
20
18.4435865304
10
37.6921639313
20
18.4435865304
10
37.6921639313
20
18.1594939704
10
37.6921639313
20
17.8754006904
10
37.2585482513
20
17.8754006904
10
36.8249325713
20
17.8754006904
10
36.8249325713
20
16.6024428504
10
36.8249325713
20
15.3294850104
10
36.8922180113
20
15.3504564504
0
LWPOLYLINE
5
1FB
100
AcDbEntity
8
name
6
ByLayer
62
7
370
-1
100
AcDbPolyline
90
2
70
0
43
0
10
35.4343756913
20
14.5559789304
10
35.4343756913
20
14.5559789304
0
SPLINE
5
1FC
100
AcDbEntity
8
name
6
ByLayer
62
7
370
-1
100
AcDbSpline
210
0
220
0
230
1
70
8
71
3
72
8
73
4
74
0
42
1e-07
43
1e-07
40
0
40
0
40
0
40
0
40
1
40
1
40
1
40
1
10
48.2733195452
20
14.7129965304
30
0
10
48.1129949852
20
14.8157930904
30
0
10
47.9818153052
20
14.9079732504
30
0
10
47.9818088252
20
14.9178408504
30
0
0
SPLINE
5
1FD
100
AcDbEntity
8
name
6
ByLayer
62
7
370
-1
100
AcDbSpline
210
0
220
0
230
1
70
8
71
3
72
8
73
4
74
0
42
1e-07
43
1e-07
40
0
40
0
40
0
40
0
40
1
40
1
40
1
40
1
10
47.9818088252
20
14.9178408504
30
0
10
47.9818009052
20
14.9277077304
30
0
10
48.0507322652
20
15.0622786104
30
0
10
48.1349909852
20
15.2168863704
30
0
0
SPLINE
5
1FE
100
AcDbEntity
8
name
6
ByLayer
62
7
370
-1
100
AcDbSpline
210
0
220
0
230
1
70
8
71
3
72
8
73
4
74
0
42
1e-07
43
1e-07
40
0
40
0
40
0
40
0
40
1
40
1
40
1
40
1
10
48.1349909852
20
15.2168863704
30
0
10
48.5965174652
20
16.0637597304
30
0
10
49.0278579452
20
17.1734762904
30
0
10
49.3293277052
20
18.2895814104
30
0
0
SPLINE
5
1FF
100
AcDbEntity
8
name
6
ByLayer
62
7
370
-1
100
AcDbSpline
210
0
220
0
230
1
70
8
71
3
72
8
73
4
74
0
42
1e-07
43
1e-07
40
0
40
0
40
0
40
0
40
1
40
1
40
1
40
1
10
49.3293277052
20
18.2895814104
30
0
10
49.3935085052
20
18.5271900504
30
0
10
49.4519998652
20
18.7275768504
30
0
10
49.4593064252
20
18.7348855704
30
0
0
SPLINE
5
200
100
AcDbEntity
8
name
6
ByLayer
62
7
370
-1
100
AcDbSpline
210
0
220
0
230
1
70
8
71
3
72
8
73
4
74
0
42
1e-07
43
1e-07
40
0
40
0
40
0
40
0
40
1
40
1
40
1
40
1
10
49.4593064252
20
18.7348855704
30
0
10
49.4702389052
20
18.7458094104
30
0
10
49.9800413852
20
18.5724758904
30
0
10
50.0092510652
20
18.5479066104
30
0
0
SPLINE
5
201
100
AcDbEntity
8
name
6
ByLayer
62
7
370
-1
100
AcDbSpline
210
0
220
0
230
1
70
8
71
3
72
8
73
4
74
0
42
1e-07
43
1e-07
40
0
40
0
40
0
40
0
40
1
40
1
40
1
40
1
10
50.0092510652
20
18.5479066104
30
0
10
50.0141485052
20
18.5437896504
30
0
10
49.9829876252
20
18.4008840504
30
0
10
49.9400108252
20
18.2303390904
30
0
0
SPLINE
5
202
100
AcDbEntity
8
name
6
ByLayer
62
7
370
-1
100
AcDbSpline
210
0
220
0
230
1
70
8
71
3
72
8
73
4
74
0
42
1e-07
43
1e-07
40
0
40
0
40
0
40
0
40
1
40
1
40
1
40
1
10
49.9400108252
20
18.2303390904
30
0
10
49.7356345052
20
17.4193282104
30
0
10
49.4247039452
20
16.4551524504
30
0
10
49.1408453852
20
15.7521790104
30
0
0
SPLINE
5
203
100
AcDbEntity
8
name
6
ByLayer
62
7
370
-1
100
AcDbSpline
210
0
220
0
230
1
70
8
71
3
72
8
73
4
74
0
42
1e-07
43
1e-07
40
0
40
0
40
0
40
0
40
1
40
1
40
1
40
1
10
49.1408453852
20
15.7521790104
30
0
10
48.9974717852
20
15.3971167704
30
0
10
48.5951415452
20
14.5260931704
30
0
10
48.5745085052
20
14.5260931704
30
0
0
SPLINE
5
204
100
AcDbEntity
8
name
6
ByLayer
62
7
370
-1
100
AcDbSpline
210
0
220
0
230
1
70
8
71
3
72
8
73
4
74
0
42
1e-07
43
1e-07
40
0
40
0
40
0
40
0
40
1
40
1
40
1
40
1
10
48.5745085052
20
14.5260931704
30
0
10
48.5691848252
20
14.5260931704
30
0
10
48.4336426652
20
14.6101999704
30
0
10
48.2733195452
20
14.7129965304
30
0
0
SPLINE
5
205
100
AcDbEntity
8
name
6
ByLayer
62
7
370
-1
100
AcDbSpline
210
0
220
0
230
1
70
8
71
3
72
8
73
4
74
0
42
1e-07
43
1e-07
40
0
40
0
40
0
40
0
40
1
40
1
40
1
40
1
10
50.4040623452
20
13.0768397304
30
0
10
50.3793922652
20
13.0818631704
30
0
10
50.2347608252
20
13.1024335704
30
0
10
50.0826593852
20
13.1225539704
30
0
0
SPLINE
5
206
100
AcDbEntity
8
name
6
ByLayer
62
7
370
-1
100
AcDbSpline
210
0
220
0
230
1
70
8
71
3
72
8
73
4
74
0
42
1e-07
43
1e-07
40
0
40
0
40
0
40
0
40
1
40
1
40
1
40
1
10
50.0826593852
20
13.1225539704
30
0
10
49.9305601052
20
13.1426750904
30
0
10
49.7946147452
20
13.1740116504
30
0
10
49.7805596252
20
13.1921916504
30
0
0
SPLINE
5
207
100
AcDbEntity
8
name
6
ByLayer
62
7
370
-1
100
AcDbSpline
210
0
220
0
230
1
70
8
71
3
72
8
73
4
74
0
42
1e-07
43
1e-07
40
0
40
0
40
0
40
0
40
1
40
1
40
1
40
1
10
49.7805596252
20
13.1921916504
30
0
10
49.7538188252
20
13.2267797304
30
0
10
49.6451636252
20
13.7484629304
30
0
10
49.6618215452
20
13.7622840504
30
0
0
SPLINE
5
208
100
AcDbEntity
8
name
6
ByLayer
62
7
370
-1
100
AcDbSpline
210
0
220
0
230
1
70
8
71
3
72
8
73
4
74
0
42
1e-07
43
1e-07
40
0
40
0
40
0
40
0
40
1
40
1
40
1
40
1
10
49.6618215452
20
13.7622840504
30
0
10
49.6670847452
20
13.7666573304
30
0
10
49.8126997052
20
13.7450774904
30
0
10
49.9853996252
20
13.7143306104
30
0
0
SPLINE
5
209
100
AcDbEntity
8
name
6
ByLayer
62
7
370
-1
100
AcDbSpline
210
0
220
0
230
1
70
8
71
3
72
8
73
4
74
0
42
1e-07
43
1e-07
40
0
40
0
40
0
40
0
40
1
40
1
40
1
40
1
10
49.9853996252
20
13.7143306104
30
0
10
50.1580973852
20
13.6835844504
30
0
10
50.4945231452
20
13.6500389304
30
0
10
50.7330130652
20
13.6397861304
30
0
0
SPLINE
5
20A
100
AcDbEntity
8
name
6
ByLayer
62
7
370
-1
100
AcDbSpline
210
0
220
0
230
1
70
8
71
3
72
8
73
4
74
0
42
1e-07
43
1e-07
40
0
40
0
40
0
40
0
40
1
40
1
40
1
40
1
10
50.7330130652
20
13.6397861304
30
0
10
51.1556185052
20
13.6216162104
30
0
10
51.1681457852
20
13.6228409304
30
0
10
51.2264377052
20
13.6879922904
30
0
0
SPLINE
5
20B
100
AcDbEntity
8
name
6
ByLayer
62
7
370
-1
100
AcDbSpline
210
0
220
0
230
1
70
8
71
3
72
8
73
4
74
0
42
1e-07
43
1e-07
40
0
40
0
40
0
40
0
40
1
40
1
40
1
40
1
10
51.2264377052
20
13.6879922904
30
0
10
51.2853733052
20
13.7538650904
30
0
10
51.2863633052
20
13.8028308504
30
0
10
51.2942372252
20
17.0412065304
30
0
0
LWPOLYLINE
5
20C
100
AcDbEntity
8
name
6
ByLayer
62
7
370
-1
100
AcDbPolyline
90
2
70
0
43
0
10
48.2733195452
20
14.7129965304
10
48.2733195452
20
14.7129965304
0
SPLINE
5
20D
100
AcDbEntity
8
name
6
ByLayer
62
7
370
-1
100
AcDbSpline
210
0
220
0
230
1
70
8
71
3
72
8
73
4
74
0
42
1e-07
43
1e-07
40
0
40
0
40
0
40
0
40
1
40
1
40
1
40
1
10
51.8992856252
20
16.9946887704
30
0
10
51.8992856252
20
14.6840892504
30
0
10
51.8892070652
20
13.6147682904
30
0
10
51.8663974652
20
13.5084530904
30
0
0
SPLINE
5
20E
100
AcDbEntity
8
name
6
ByLayer
62
7
370
-1
100
AcDbSpline
210
0
220
0
230
1
70
8
71
3
72
8
73
4
74
0
42
1e-07
43
1e-07
40
0
40
0
40
0
40
0
40
1
40
1
40
1
40
1
10
51.8663974652
20
13.5084530904
30
0
10
51.8464023452
20
13.4152750104
30
0
10
51.7983725852
20
13.3150834104
30
0
10
51.7439636252
20
13.2531151704
30
0
0
SPLINE
5
20F
100
AcDbEntity
8
name
6
ByLayer
62
7
370
-1
100
AcDbSpline
210
0
220
0
230
1
70
8
71
3
72
8
73
4
74
0
42
1e-07
43
1e-07
40
0
40
0
40
0
40
0
40
1
40
1
40
1
40
1
10
51.7439636252
20
13.2531151704
30
0
10
51.6079844252
20
13.0982431704
30
0
10
51.4374488252
20
13.0600990104
30
0
10
50.8995310652
20
13.0642404504
30
0
0
SPLINE
5
210
100
AcDbEntity
8
name
6
ByLayer
62
7
370
-1
100
AcDbSpline
210
0
220
0
230
1
70
8
71
3
72
8
73
4
74
0
42
1e-07
43
1e-07
40
0
40
0
40
0
40
0
40
1
40
1
40
1
40
1
10
50.8995310652
20
13.0642404504
30
0
10
50.6516926652
20
13.0661498904
30
0
10
50.4287288252
20
13.0718177304
30
0
10
50.4040587452
20
13.0768404504
30
0
0
LWPOLYLINE
5
211
100
AcDbEntity
8
name
6
ByLayer
62
7
370
-1
100
AcDbPolyline
90
5
70
0
43
0
10
51.2942372252
20
17.0412065304
10
51.3022227452
20
20.3275723704
10
51.6007541852
20
20.3275723704
10
51.8992856252
20
20.3275723704
10
51.8992856252
20
16.9946887704
0
LWPOLYLINE
5
212
100
AcDbEntity
8
name
6
ByLayer
62
7
370
-1
100
AcDbPolyline
90
2
70
0
43
0
10
50.4040587452
20
13.0768404504
10
50.4040623452
20
13.0768397304
0
SPLINE
5
213
100
AcDbEntity
8
name
6
ByLayer
62
7
370
-1
100
AcDbSpline
210
0
220
0
230
1
70
8
71
3
72
8
73
4
74
0
42
1e-07
43
1e-07
40
0
40
0
40
0
40
0
40
1
40
1
40
1
40
1
10
60.2576489852
20
13.3299118104
30
0
10
60.1827905852
20
13.6951138104
30
0
10
60.1814737052
20
13.6876351704
30
0
10
60.3149516252
20
13.6553064504
30
0
0
SPLINE
5
214
100
AcDbEntity
8
name
6
ByLayer
62
7
370
-1
100
AcDbSpline
210
0
220
0
230
1
70
8
71
3
72
8
73
4
74
0
42
1e-07
43
1e-07
40
0
40
0
40
0
40
0
40
1
40
1
40
1
40
1
10
60.3149516252
20
13.6553064504
30
0
10
60.3766311452
20
13.6403671704
30
0
10
60.5923157852
20
13.6195368504
30
0
10
60.7942520252
20
13.6090154904
30
0
0
SPLINE
5
215
100
AcDbEntity
8
name
6
ByLayer
62
7
370
-1
100
AcDbSpline
210
0
220
0
230
1
70
8
71
3
72
8
73
4
74
0
42
1e-07
43
1e-07
40
0
40
0
40
0
40
0
40
1
40
1
40
1
40
1
10
60.7942520252
20
13.6090154904
30
0
10
61.1328212252
20
13.5913733304
30
0
10
61.1647647452
20
13.5943181304
30
0
10
61.2044878652
20
13.6468018104
30
0
0
SPLINE
5
216
100
AcDbEntity
8
name
6
ByLayer
62
7
370
-1
100
AcDbSpline
210
0
220
0
230
1
70
8
71
3
72
8
73
4
74
0
42
1e-07
43
1e-07
40
0
40
0
40
0
40
0
40
1
40
1
40
1
40
1
10
61.2044878652
20
13.6468018104
30
0
10
61.2412712252
20
13.6953989304
30
0
10
61.2477065852
20
14.1178618104
30
0
10
61.2485173052
20
16.5371726904
30
0
0
LWPOLYLINE
5
217
100
AcDbEntity
8
name
6
ByLayer
62
7
370
-1
100
AcDbPolyline
90
3
70
0
43
0
10
60.4282335452
20
13.0575386904
10
60.3097539452
20
13.0757230104
10
60.2576489852
20
13.3299118104
0
SPLINE
5
218
100
AcDbEntity
8
name
6
ByLayer
62
7
370
-1
100
AcDbSpline
210
0
220
0
230
1
70
8
71
3
72
8
73
4
74
0
42
1e-07
43
1e-07
40
0
40
0
40
0
40
0
40
1
40
1
40
1
40
1
10
61.8710285852
20
16.4325070104
30
0
10
61.8626369852
20
13.5170124504
30
0
10
61.8620883452
20
13.4933503704
30
0
10
61.7996326652
20
13.3598162904
30
0
0
SPLINE
5
219
100
AcDbEntity
8
name
6
ByLayer
62
7
370
-1
100
AcDbSpline
210
0
220
0
230
1
70
8
71
3
72
8
73
4
74
0
42
1e-07
43
1e-07
40
0
40
0
40
0
40
0
40
1
40
1
40
1
40
1
10
61.7996326652
20
13.3598162904
30
0
10
61.6702429052
20
13.0831879704
30
0
10
61.5392518652
20
13.0324049304
30
0
10
60.9654413852
20
13.0364225304
30
0
0
SPLINE
5
21A
100
AcDbEntity
8
name
6
ByLayer
62
7
370
-1
100
AcDbSpline
210
0
220
0
230
1
70
8
71
3
72
8
73
4
74
0
42
1e-07
43
1e-07
40
0
40
0
40
0
40
0
40
1
40
1
40
1
40
1
10
60.9654413852
20
13.0364225304
30
0
10
60.7351753052
20
13.0380281304
30
0
10
60.4934605052
20
13.0475357304
30
0
10
60.4282983452
20
13.0575386904
30
0
0
LWPOLYLINE
5
21B
100
AcDbEntity
8
name
6
ByLayer
62
7
370
-1
100
AcDbPolyline
90
13
70
0
43
0
10
61.2485173052
20
16.5371726904
10
61.2495332252
20
19.3706268504
10
60.4570637852
20
19.3706268504
10
59.6645936252
20
19.3706268504
10
59.6645936252
20
19.6397678904
10
59.6645936252
20
19.9089089304
10
61.4588660252
20
19.9089089304
10
63.2531384252
20
19.9089089304
10
63.2531384252
20
19.6397678904
10
63.2531384252
20
19.3706268504
10
62.5663102652
20
19.3706268504
10
61.8794821052
20
19.3706268504
10
61.8710285852
20
16.4325070104
0
LWPOLYLINE
5
21C
100
AcDbEntity
8
name
6
ByLayer
62
7
370
-1
100
AcDbPolyline
90
2
70
0
43
0
10
60.4282983452
20
13.0575386904
10
60.4282335452
20
13.0575386904
0
LWPOLYLINE
5
21D
100
AcDbEntity
8
name
6
ByLayer
62
7
370
-1
100
AcDbPolyline
90
18
70
0
43
0
10
56.1058892252
20
16.7988372504
10
56.1058892252
20
19.7294813304
10
57.7207340252
20
19.7294813304
10
59.3355788252
20
19.7294813304
10
59.3355788252
20
16.9932170904
10
59.3355788252
20
14.2569521304
10
59.0530493852
20
14.2569521304
10
58.7705177852
20
14.2569521304
10
58.7614753052
20
14.4139510104
10
58.7524328252
20
14.5709498904
10
57.7282033052
20
14.5788180504
10
56.7039716252
20
14.5866854904
10
56.7039716252
20
14.2274386104
10
56.7039716252
20
13.8681917304
10
56.4049268252
20
13.8681917304
10
56.1058813052
20
13.8681917304
10
56.1058813052
20
16.7988358104
10
56.1058892252
20
16.7988372504
0
LWPOLYLINE
5
21E
100
AcDbEntity
8
name
6
ByLayer
62
7
370
-1
100
AcDbPolyline
90
10
70
0
43
0
10
57.4515937052
20
16.0063670904
10
57.4515937052
20
16.8885514104
10
57.0777869852
20
16.8885514104
10
56.7039802652
20
16.8885514104
10
56.7039802652
20
16.0063670904
10
56.7039802652
20
15.1241834904
10
57.0777869852
20
15.1241834904
10
57.4515937052
20
15.1241834904
10
57.4515937052
20
16.0063670904
10
57.4515937052
20
16.0063670904
0
LWPOLYLINE
5
21F
100
AcDbEntity
8
name
6
ByLayer
62
7
370
-1
100
AcDbPolyline
90
10
70
0
43
0
10
58.7673929852
20
16.0063670904
10
58.7673929852
20
16.8885514104
10
58.3786347452
20
16.8885514104
10
57.9898743452
20
16.8885514104
10
57.9898743452
20
16.0063670904
10
57.9898743452
20
15.1241834904
10
58.3786347452
20
15.1241834904
10
58.7673929852
20
15.1241834904
10
58.7673929852
20
16.0063670904
10
58.7673929852
20
16.0063670904
0
LWPOLYLINE
5
220
100
AcDbEntity
8
name
6
ByLayer
62
7
370
-1
100
AcDbPolyline
90
10
70
0
43
0
10
57.4515937052
20
18.2940641304
10
57.4515937052
20
19.1612954904
10
57.0777869852
20
19.1612954904
10
56.7039802652
20
19.1612954904
10
56.7039802652
20
18.2940641304
10
56.7039802652
20
17.4268327704
10
57.0777869852
20
17.4268327704
10
57.4515937052
20
17.4268327704
10
57.4515937052
20
18.2940641304
10
57.4515937052
20
18.2940641304
0
SPLINE
5
221
100
AcDbEntity
8
name
6
ByLayer
62
7
370
-1
100
AcDbSpline
210
0
220
0
230
1
70
8
71
3
72
8
73
4
74
0
42
1e-07
43
1e-07
40
0
40
0
40
0
40
0
40
1
40
1
40
1
40
1
10
54.4301497052
20
14.6830920504
30
0
10
54.1163888252
20
15.8807767704
30
0
10
53.6676560252
20
17.1318149304
30
0
10
53.1627891452
20
18.2164150104
30
0
0
SPLINE
5
222
100
AcDbEntity
8
name
6
ByLayer
62
7
370
-1
100
AcDbSpline
210
0
220
0
230
1
70
8
71
3
72
8
73
4
74
0
42
1e-07
43
1e-07
40
0
40
0
40
0
40
0
40
1
40
1
40
1
40
1
10
53.1627891452
20
18.2164150104
30
0
10
53.0869673852
20
18.3793020504
30
0
10
53.0284738652
20
18.5155397304
30
0
10
53.0328039452
20
18.5191663704
30
0
0
SPLINE
5
223
100
AcDbEntity
8
name
6
ByLayer
62
7
370
-1
100
AcDbSpline
210
0
220
0
230
1
70
8
71
3
72
8
73
4
74
0
42
1e-07
43
1e-07
40
0
40
0
40
0
40
0
40
1
40
1
40
1
40
1
10
53.0328039452
20
18.5191663704
30
0
10
53.0537681852
20
18.5367257304
30
0
10
53.5477738652
20
18.7426320504
30
0
10
53.5689375452
20
18.7426320504
30
0
0
SPLINE
5
224
100
AcDbEntity
8
name
6
ByLayer
62
7
370
-1
100
AcDbSpline
210
0
220
0
230
1
70
8
71
3
72
8
73
4
74
0
42
1e-07
43
1e-07
40
0
40
0
40
0
40
0
40
1
40
1
40
1
40
1
10
53.5689375452
20
18.7426320504
30
0
10
53.6252192252
20
18.7426320504
30
0
10
54.1072203452
20
17.6917142904
30
0
10
54.4535950652
20
16.8137894904
30
0
0
SPLINE
5
225
100
AcDbEntity
8
name
6
ByLayer
62
7
370
-1
100
AcDbSpline
210
0
220
0
230
1
70
8
71
3
72
8
73
4
74
0
42
1e-07
43
1e-07
40
0
40
0
40
0
40
0
40
1
40
1
40
1
40
1
10
54.4535950652
20
16.8137894904
30
0
10
54.6597389852
20
16.2912883704
30
0
10
55.1190399452
20
14.9595598104
30
0
10
55.1190399452
20
14.8843464504
30
0
0
SPLINE
5
226
100
AcDbEntity
8
name
6
ByLayer
62
7
370
-1
100
AcDbSpline
210
0
220
0
230
1
70
8
71
3
72
8
73
4
74
0
42
1e-07
43
1e-07
40
0
40
0
40
0
40
0
40
1
40
1
40
1
40
1
10
55.1190399452
20
14.8843464504
30
0
10
55.1190399452
20
14.8595136504
30
0
10
54.5229145052
20
14.5559976504
30
0
10
54.4741402652
20
14.5559976504
30
0
0
SPLINE
5
227
100
AcDbEntity
8
name
6
ByLayer
62
7
370
-1
100
AcDbSpline
210
0
220
0
230
1
70
8
71
3
72
8
73
4
74
0
42
1e-07
43
1e-07
40
0
40
0
40
0
40
0
40
1
40
1
40
1
40
1
10
54.4741402652
20
14.5559976504
30
0
10
54.4682477852
20
14.5559976504
30
0
10
54.4484621852
20
14.6131901304
30
0
10
54.4301497052
20
14.6830920504
30
0
0
LWPOLYLINE
5
228
100
AcDbEntity
8
name
6
ByLayer
62
7
370
-1
100
AcDbPolyline
90
10
70
0
43
0
10
58.7673929852
20
18.2940641304
10
58.7673929852
20
19.1612954904
10
58.3786347452
20
19.1612954904
10
57.9898743452
20
19.1612954904
10
57.9898743452
20
18.2940641304
10
57.9898743452
20
17.4268327704
10
58.3786347452
20
17.4268327704
10
58.7673929852
20
17.4268327704
10
58.7673929852
20
18.2940641304
10
58.7673929852
20
18.2940641304
0
LWPOLYLINE
5
229
100
AcDbEntity
8
name
6
ByLayer
62
7
370
-1
100
AcDbPolyline
90
2
70
0
43
0
10
54.4301497052
20
14.6830920504
10
54.4301497052
20
14.6830920504
0
ENDSEC
0
SECTION
2
OBJECTS
0
DICTIONARY
5
C
330
0
100
AcDbDictionary
281
1
3
ACAD_GROUP
350
D
0
DICTIONARY
5
D
330
C
100
AcDbDictionary
281
1
0
ENDSEC
0
EOF
