  0
SECTION
  2
HEADER
  9
$ACADVER
  1
AC1014
  9
$HANDSEED
  5
FFFF
  9
$MEASUREMENT
 70
     1
  0
ENDSEC
  0
SECTION
  2
TABLES
  0
TABLE
  2
VPORT
  5
8
330
0
100
AcDbSymbolTable
 70
     4
  0
VPORT
  5
2E
330
8
100
AcDbSymbolTableRecord
100
AcDbViewportTableRecord
  2
*ACTIVE
 70
     0
 10
0.0
 20
0.0
 11
1.0
 21
1.0
 12
210.0
 22
148.5
 13
0.0
 23
0.0
 14
10.0
 24
10.0
 15
10.0
 25
10.0
 16
0.0
 26
0.0
 36
1.0
 17
0.0
 27
0.0
 37
0.0
 40
341.0
 41
1.24
 42
50.0
 43
0.0
 44
0.0
 50
0.0
 51
0.0
 71
     0
 72
   100
 73
     1
 74
     3
 75
     0
 76
     0
 77
     0
 78
     0
  0
ENDTAB
  0
TABLE
  2
LTYPE
  5
5
330
0
100
AcDbSymbolTable
 70
     1
  0
LTYPE
  5
14
330
5
100
AcDbSymbolTableRecord
100
AcDbLinetypeTableRecord
  2
BYBLOCK
 70
     0
  3

 72
    65
 73
     0
 40
0.0
  0
LTYPE
  5
15
330
5
100
AcDbSymbolTableRecord
100
AcDbLinetypeTableRecord
  2
BYLAYER
 70
     0
  3

 72
    65
 73
     0
 40
0.0
  0
LTYPE
  5
16
330
5
100
AcDbSymbolTableRecord
100
AcDbLinetypeTableRecord
  2
CONTINUOUS
 70
     0
  3
Solid line
 72
    65
 73
     0
 40
0.0
  0
ENDTAB
  0
TABLE
  2
LAYER
  5
2
100
AcDbSymbolTable
 70
1
  0
LAYER
  5
50
100
AcDbSymbolTableRecord
100
AcDbLayerTableRecord
  2
0
 70
0
  6
CONTINUOUS
  0
ENDTAB
  0
TABLE
  2
STYLE
  5
3
330
0
100
AcDbSymbolTable
 70
     1
  0
STYLE
  5
11
330
3
100
AcDbSymbolTableRecord
100
AcDbTextStyleTableRecord
  2
STANDARD
 70
     0
 40
0.0
 41
1.0
 50
0.0
 71
     0
 42
2.5
  3
txt
  4

  0
ENDTAB
  0
TABLE
  2
VIEW
  5
6
330
0
100
AcDbSymbolTable
 70
     0
  0
ENDTAB
  0
TABLE
  2
UCS
  5
7
330
0
100
AcDbSymbolTable
 70
     0
  0
ENDTAB
  0
TABLE
  2
APPID
  5
9
330
0
100
AcDbSymbolTable
 70
     2
  0
APPID
  5
12
330
9
100
AcDbSymbolTableRecord
100
AcDbRegAppTableRecord
  2
ACAD
 70
     0
  0
ENDTAB
  0
TABLE
  2
DIMSTYLE
  5
A
330
0
100
AcDbSymbolTable
 70
     1
  0
DIMSTYLE
105
27
330
A
100
AcDbSymbolTableRecord
100
AcDbDimStyleTableRecord
  2
ISO-25
 70
     0
  3

  4

  5

  6

  7

 40
1.0
 41
2.5
 42
0.625
 43
3.75
 44
1.25
 45
0.0
 46
0.0
 47
0.0
 48
0.0
140
2.5
141
2.5
142
0.0
143
0.03937007874016
144
1.0
145
0.0
146
1.0
147
0.625
 71
     0
 72
     0
 73
     0
 74
     0
 75
     0
 76
     0
 77
     1
 78
     8
170
     0
171
     3
172
     1
173
     0
174
     0
175
     0
176
     0
177
     0
178
     0
270
     2
271
     2
272
     2
273
     2
274
     3
340
11
275
     0
280
     0
281
     0
282
     0
283
     0
284
     8
285
     0
286
     0
287
     3
288
     0
  0
ENDTAB
  0
TABLE
  2
BLOCK_RECORD
  5
1
330
0
100
AcDbSymbolTable
 70
     1
  0
BLOCK_RECORD
  5
1F
330
1
100
AcDbSymbolTableRecord
100
AcDbBlockTableRecord
  2
*MODEL_SPACE
  0
BLOCK_RECORD
  5
1B
330
1
100
AcDbSymbolTableRecord
100
AcDbBlockTableRecord
  2
*PAPER_SPACE
  0
ENDTAB
  0
ENDSEC
  0
SECTION
  2
BLOCKS
  0
BLOCK
  5
20
330
1F
100
AcDbEntity
  8
0
100
AcDbBlockBegin
  2
*MODEL_SPACE
 70
     0
 10
0.0
 20
0.0
 30
0.0
  3
*MODEL_SPACE
  1

  0
ENDBLK
  5
21
330
1F
100
AcDbEntity
  8
0
100
AcDbBlockEnd
  0
BLOCK
  5
1C
330
1B
100
AcDbEntity
 67
     1
  8
0
100
AcDbBlockBegin
  2
*PAPER_SPACE
  1

  0
ENDBLK
  5
1D
330
1B
100
AcDbEntity
 67
     1
  8
0
100
AcDbBlockEnd
  0
ENDSEC
  0
SECTION
  2
ENTITIES
  0
SPLINE
  5
100
100
AcDbEntity
  8
0
 62
7
100
AcDbSpline
 70
8
 71
3
 72
8
 73
4
 74
0
 40
0
 40
0
 40
0
 40
0
 40
1
 40
1
 40
1
 40
1
 10
132.635625
 20
177.282754
 30
0.0
 10
129.315439
 20
177.291147
 30
0.0
 10
128.441981
 20
177.160429
 30
0.0
 10
125.782917
 20
176.286157
 30
0.0
  0
SPLINE
  5
101
100
AcDbEntity
  8
0
 62
7
100
AcDbSpline
 70
8
 71
3
 72
8
 73
4
 74
0
 40
0
 40
0
 40
0
 40
0
 40
1
 40
1
 40
1
 40
1
 10
125.782917
 20
176.286157
 30
0.0
 10
124.106517
 20
175.734975
 30
0.0
 10
122.165008
 20
174.940166
 30
0.0
 10
121.470208
 20
174.513449
 30
0.0
  0
SPLINE
  5
102
100
AcDbEntity
  8
0
 62
7
100
AcDbSpline
 70
8
 71
3
 72
8
 73
4
 74
0
 40
0
 40
0
 40
0
 40
0
 40
1
 40
1
 40
1
 40
1
 10
121.470208
 20
174.513449
 30
0.0
 10
120.775411
 20
174.086729
 30
0.0
 10
120.113871
 20
173.737338
 30
0.0
 10
119.997361
 20
173.737338
 30
0.0
  0
SPLINE
  5
103
100
AcDbEntity
  8
0
 62
7
100
AcDbSpline
 70
8
 71
3
 72
8
 73
4
 74
0
 40
0
 40
0
 40
0
 40
0
 40
1
 40
1
 40
1
 40
1
 10
119.997361
 20
173.737338
 30
0.0
 10
119.880846
 20
173.737338
 30
0.0
 10
119.333704
 20
173.357746
 30
0.0
 10
118.789097
 20
172.899491
 30
0.0
  0
SPLINE
  5
104
100
AcDbEntity
  8
0
 62
7
100
AcDbSpline
 70
8
 71
3
 72
8
 73
4
 74
0
 40
0
 40
0
 40
0
 40
0
 40
1
 40
1
 40
1
 40
1
 10
118.789097
 20
172.899491
 30
0.0
 10
118.244493
 20
172.441235
 30
0.0
 10
117.233155
 20
171.965990
 30
0.0
 10
116.540139
 20
171.841157
 30
0.0
  0
SPLINE
  5
105
100
AcDbEntity
  8
0
 62
7
100
AcDbSpline
 70
8
 71
3
 72
8
 73
4
 74
0
 40
0
 40
0
 40
0
 40
0
 40
1
 40
1
 40
1
 40
1
 10
116.540139
 20
171.841157
 30
0.0
 10
115.847122
 20
171.716325
 30
0.0
 10
115.116424
 20
171.484885
 30
0.0
 10
114.908542
 20
171.320810
 30
0.0
  0
SPLINE
  5
106
100
AcDbEntity
  8
0
 62
7
100
AcDbSpline
 70
8
 71
3
 72
8
 73
4
 74
0
 40
0
 40
0
 40
0
 40
0
 40
1
 40
1
 40
1
 40
1
 10
114.908542
 20
171.320810
 30
0.0
 10
114.700662
 20
171.156734
 30
0.0
 10
113.263180
 20
170.862182
 30
0.0
 10
111.715903
 20
170.668171
 30
0.0
  0
SPLINE
  5
107
100
AcDbEntity
  8
0
 62
7
100
AcDbSpline
 70
8
 71
3
 72
8
 73
4
 74
0
 40
0
 40
0
 40
0
 40
0
 40
1
 40
1
 40
1
 40
1
 10
111.715903
 20
170.668171
 30
0.0
 10
109.401999
 20
170.378033
 30
0.0
 10
108.668462
 20
170.133789
 30
0.0
 10
107.606042
 20
169.292338
 30
0.0
  0
SPLINE
  5
108
100
AcDbEntity
  8
0
 62
7
100
AcDbSpline
 70
8
 71
3
 72
8
 73
4
 74
0
 40
0
 40
0
 40
0
 40
0
 40
1
 40
1
 40
1
 40
1
 10
107.606042
 20
169.292338
 30
0.0
 10
106.192647
 20
168.172909
 30
0.0
 10
103.258056
 20
164.932583
 30
0.0
 10
103.258056
 20
164.494560
 30
0.0
  0
SPLINE
  5
109
100
AcDbEntity
  8
0
 62
7
100
AcDbSpline
 70
8
 71
3
 72
8
 73
4
 74
0
 40
0
 40
0
 40
0
 40
0
 40
1
 40
1
 40
1
 40
1
 10
103.258056
 20
164.494560
 30
0.0
 10
103.258056
 20
164.343707
 30
0.0
 10
102.612119
 20
163.372718
 30
0.0
 10
101.820486
 20
162.333796
 30
0.0
  0
SPLINE
  5
10a
100
AcDbEntity
  8
0
 62
7
100
AcDbSpline
 70
8
 71
3
 72
8
 73
4
 74
0
 40
0
 40
0
 40
0
 40
0
 40
1
 40
1
 40
1
 40
1
 10
101.820486
 20
162.333796
 30
0.0
 10
101.028853
 20
161.294871
 30
0.0
 10
100.210603
 20
160.150903
 30
0.0
 10
100.003681
 20
159.793796
 30
0.0
  0
SPLINE
  5
10b
100
AcDbEntity
  8
0
 62
7
100
AcDbSpline
 70
8
 71
3
 72
8
 73
4
 74
0
 40
0
 40
0
 40
0
 40
0
 40
1
 40
1
 40
1
 40
1
 10
100.003681
 20
159.793796
 30
0.0
 10
99.796755
 20
159.436692
 30
0.0
 10
99.337419
 20
158.812442
 30
0.0
 10
98.980625
 20
158.400324
 30
0.0
  0
SPLINE
  5
10c
100
AcDbEntity
  8
0
 62
7
100
AcDbSpline
 70
8
 71
3
 72
8
 73
4
 74
0
 40
0
 40
0
 40
0
 40
0
 40
1
 40
1
 40
1
 40
1
 10
98.980625
 20
158.400324
 30
0.0
 10
98.201751
 20
157.500684
 30
0.0
 10
94.791389
 20
150.566394
 30
0.0
 10
94.791389
 20
149.880741
 30
0.0
  0
SPLINE
  5
10d
100
AcDbEntity
  8
0
 62
7
100
AcDbSpline
 70
8
 71
3
 72
8
 73
4
 74
0
 40
0
 40
0
 40
0
 40
0
 40
1
 40
1
 40
1
 40
1
 10
94.791389
 20
149.880741
 30
0.0
 10
94.791389
 20
149.776476
 30
0.0
 10
94.410389
 20
148.896925
 30
0.0
 10
93.944722
 20
147.931643
 30
0.0
  0
SPLINE
  5
10e
100
AcDbEntity
  8
0
 62
7
100
AcDbSpline
 70
8
 71
3
 72
8
 73
4
 74
0
 40
0
 40
0
 40
0
 40
0
 40
1
 40
1
 40
1
 40
1
 10
93.944722
 20
147.931643
 30
0.0
 10
93.479056
 20
146.966364
 30
0.0
 10
93.098056
 20
146.048039
 30
0.0
 10
93.098056
 20
145.885532
 30
0.0
  0
SPLINE
  5
10f
100
AcDbEntity
  8
0
 62
7
100
AcDbSpline
 70
8
 71
3
 72
8
 73
4
 74
0
 40
0
 40
0
 40
0
 40
0
 40
1
 40
1
 40
1
 40
1
 10
93.098056
 20
145.885532
 30
0.0
 10
93.098056
 20
145.311805
 30
0.0
 10
90.370070
 20
139.870671
 30
0.0
 10
90.081806
 20
139.870671
 30
0.0
  0
SPLINE
  5
110
100
AcDbEntity
  8
0
 62
7
100
AcDbSpline
 70
8
 71
3
 72
8
 73
4
 74
0
 40
0
 40
0
 40
0
 40
0
 40
1
 40
1
 40
1
 40
1
 10
90.081806
 20
139.870671
 30
0.0
 10
89.921029
 20
139.870671
 30
0.0
 10
89.695260
 20
139.486832
 30
0.0
 10
89.579097
 20
139.024004
 30
0.0
  0
SPLINE
  5
111
100
AcDbEntity
  8
0
 62
7
100
AcDbSpline
 70
8
 71
3
 72
8
 73
4
 74
0
 40
0
 40
0
 40
0
 40
0
 40
1
 40
1
 40
1
 40
1
 10
89.579097
 20
139.024004
 30
0.0
 10
89.206073
 20
137.537754
 30
0.0
 10
88.111048
 20
137.583759
 30
0.0
 10
81.756250
 20
139.350324
 30
0.0
  0
SPLINE
  5
112
100
AcDbEntity
  8
0
 62
7
100
AcDbSpline
 70
8
 71
3
 72
8
 73
4
 74
0
 40
0
 40
0
 40
0
 40
0
 40
1
 40
1
 40
1
 40
1
 10
81.756250
 20
139.350324
 30
0.0
 10
80.638650
 20
139.661003
 30
0.0
 10
78.278214
 20
140.298317
 30
0.0
 10
76.508681
 20
140.761435
 30
0.0
  0
SPLINE
  5
113
100
AcDbEntity
  8
0
 62
7
100
AcDbSpline
 70
8
 71
3
 72
8
 73
4
 74
0
 40
0
 40
0
 40
0
 40
0
 40
1
 40
1
 40
1
 40
1
 10
76.508681
 20
140.761435
 30
0.0
 10
74.739147
 20
141.224548
 30
0.0
 10
72.056780
 20
141.973627
 30
0.0
 10
70.555556
 20
142.428310
 30
0.0
  0
SPLINE
  5
114
100
AcDbEntity
  8
0
 62
7
100
AcDbSpline
 70
8
 71
3
 72
8
 73
4
 74
0
 40
0
 40
0
 40
0
 40
0
 40
1
 40
1
 40
1
 40
1
 10
70.555556
 20
142.428310
 30
0.0
 10
69.054331
 20
142.882995
 30
0.0
 10
67.604767
 20
143.251566
 30
0.0
 10
67.336458
 20
143.248518
 30
0.0
  0
SPLINE
  5
115
100
AcDbEntity
  8
0
 62
7
100
AcDbSpline
 70
8
 71
3
 72
8
 73
4
 74
0
 40
0
 40
0
 40
0
 40
0
 40
1
 40
1
 40
1
 40
1
 10
67.336458
 20
143.248518
 30
0.0
 10
67.068150
 20
143.245321
 30
0.0
 10
65.633953
 20
143.613502
 30
0.0
 10
64.143819
 20
144.068727
 30
0.0
  0
SPLINE
  5
116
100
AcDbEntity
  8
0
 62
7
100
AcDbSpline
 70
8
 71
3
 72
8
 73
4
 74
0
 40
0
 40
0
 40
0
 40
0
 40
1
 40
1
 40
1
 40
1
 10
64.143819
 20
144.068727
 30
0.0
 10
62.653686
 20
144.523957
 30
0.0
 10
59.986686
 20
145.304403
 30
0.0
 10
58.217153
 20
145.797338
 30
0.0
  0
SPLINE
  5
117
100
AcDbEntity
  8
0
 62
7
100
AcDbSpline
 70
8
 71
3
 72
8
 73
4
 74
0
 40
0
 40
0
 40
0
 40
0
 40
1
 40
1
 40
1
 40
1
 10
58.217153
 20
145.797338
 30
0.0
 10
56.447619
 20
146.290273
 30
0.0
 10
53.780619
 20
147.061899
 30
0.0
 10
52.290486
 20
147.517129
 30
0.0
  0
SPLINE
  5
118
100
AcDbEntity
  8
0
 62
7
100
AcDbSpline
 70
8
 71
3
 72
8
 73
4
 74
0
 40
0
 40
0
 40
0
 40
0
 40
1
 40
1
 40
1
 40
1
 10
52.290486
 20
147.517129
 30
0.0
 10
50.800353
 20
147.972357
 30
0.0
 10
49.366943
 20
148.349346
 30
0.0
 10
49.106667
 20
148.346157
 30
0.0
  0
SPLINE
  5
119
100
AcDbEntity
  8
0
 62
7
100
AcDbSpline
 70
8
 71
3
 72
8
 73
4
 74
0
 40
0
 40
0
 40
0
 40
0
 40
1
 40
1
 40
1
 40
1
 10
49.106667
 20
148.346157
 30
0.0
 10
48.074631
 20
148.333488
 30
0.0
 10
44.576193
 20
149.850407
 30
0.0
 10
43.656250
 20
150.709768
 30
0.0
  0
SPLINE
  5
11a
100
AcDbEntity
  8
0
 62
7
100
AcDbSpline
 70
8
 71
3
 72
8
 73
4
 74
0
 40
0
 40
0
 40
0
 40
0
 40
1
 40
1
 40
1
 40
1
 10
43.656250
 20
150.709768
 30
0.0
 10
43.119791
 20
151.210891
 30
0.0
 10
42.322296
 20
151.848992
 30
0.0
 10
41.892361
 20
152.129699
 30
0.0
  0
SPLINE
  5
11b
100
AcDbEntity
  8
0
 62
7
100
AcDbSpline
 70
8
 71
3
 72
8
 73
4
 74
0
 40
0
 40
0
 40
0
 40
0
 40
1
 40
1
 40
1
 40
1
 10
41.892361
 20
152.129699
 30
0.0
 10
40.881419
 20
152.789755
 30
0.0
 10
30.611307
 20
156.804004
 30
0.0
 10
29.933194
 20
156.804004
 30
0.0
  0
SPLINE
  5
11c
100
AcDbEntity
  8
0
 62
7
100
AcDbSpline
 70
8
 71
3
 72
8
 73
4
 74
0
 40
0
 40
0
 40
0
 40
0
 40
1
 40
1
 40
1
 40
1
 10
29.933194
 20
156.804004
 30
0.0
 10
29.755490
 20
156.804004
 30
0.0
 10
28.616701
 20
157.160386
 30
0.0
 10
27.402014
 20
157.597754
 30
0.0
  0
SPLINE
  5
11d
100
AcDbEntity
  8
0
 62
7
100
AcDbSpline
 70
8
 71
3
 72
8
 73
4
 74
0
 40
0
 40
0
 40
0
 40
0
 40
1
 40
1
 40
1
 40
1
 10
27.402014
 20
157.597754
 30
0.0
 10
26.187332
 20
158.035123
 30
0.0
 10
23.905281
 20
158.780198
 30
0.0
 10
22.322014
 20
159.255810
 30
0.0
  0
SPLINE
  5
11e
100
AcDbEntity
  8
0
 62
7
100
AcDbSpline
 70
8
 71
3
 72
8
 73
4
 74
0
 40
0
 40
0
 40
0
 40
0
 40
1
 40
1
 40
1
 40
1
 10
22.322014
 20
159.255810
 30
0.0
 10
20.738747
 20
159.731422
 30
0.0
 10
18.146183
 20
160.517781
 30
0.0
 10
16.562917
 20
161.002060
 30
0.0
  0
SPLINE
  5
11f
100
AcDbEntity
  8
0
 62
7
100
AcDbSpline
 70
8
 71
3
 72
8
 73
4
 74
0
 40
0
 40
0
 40
0
 40
0
 40
1
 40
1
 40
1
 40
1
 10
16.562917
 20
161.002060
 30
0.0
 10
11.642863
 20
162.506973
 30
0.0
 10
7.070126
 20
162.507117
 30
0.0
 10
5.565069
 20
161.002060
 30
0.0
  0
SPLINE
  5
120
100
AcDbEntity
  8
0
 62
7
100
AcDbSpline
 70
8
 71
3
 72
8
 73
4
 74
0
 40
0
 40
0
 40
0
 40
0
 40
1
 40
1
 40
1
 40
1
 10
5.565069
 20
161.002060
 30
0.0
 10
5.277287
 20
160.714278
 30
0.0
 10
5.044722
 20
159.971207
 30
0.0
 10
5.044722
 20
159.352824
 30
0.0
  0
SPLINE
  5
121
100
AcDbEntity
  8
0
 62
7
100
AcDbSpline
 70
8
 71
3
 72
8
 73
4
 74
0
 40
0
 40
0
 40
0
 40
0
 40
1
 40
1
 40
1
 40
1
 10
5.044722
 20
159.352824
 30
0.0
 10
5.044722
 20
158.442525
 30
0.0
 10
5.399394
 20
157.878083
 30
0.0
 10
6.896806
 20
156.380671
 30
0.0
  0
SPLINE
  5
122
100
AcDbEntity
  8
0
 62
7
100
AcDbSpline
 70
8
 71
3
 72
8
 73
4
 74
0
 40
0
 40
0
 40
0
 40
0
 40
1
 40
1
 40
1
 40
1
 10
6.896806
 20
156.380671
 30
0.0
 10
8.655172
 20
154.622305
 30
0.0
 10
8.731856
 20
154.468226
 30
0.0
 10
8.528403
 20
153.214491
 30
0.0
  0
SPLINE
  5
123
100
AcDbEntity
  8
0
 62
7
100
AcDbSpline
 70
8
 71
3
 72
8
 73
4
 74
0
 40
0
 40
0
 40
0
 40
0
 40
1
 40
1
 40
1
 40
1
 10
8.528403
 20
153.214491
 30
0.0
 10
8.410705
 20
152.489202
 30
0.0
 10
7.965658
 20
150.987800
 30
0.0
 10
7.531806
 20
149.880741
 30
0.0
  0
SPLINE
  5
124
100
AcDbEntity
  8
0
 62
7
100
AcDbSpline
 70
8
 71
3
 72
8
 73
4
 74
0
 40
0
 40
0
 40
0
 40
0
 40
1
 40
1
 40
1
 40
1
 10
7.531806
 20
149.880741
 30
0.0
 10
7.097952
 20
148.773682
 30
0.0
 10
6.739467
 20
147.556954
 30
0.0
 10
6.738056
 20
147.173171
 30
0.0
  0
SPLINE
  5
125
100
AcDbEntity
  8
0
 62
7
100
AcDbSpline
 70
8
 71
3
 72
8
 73
4
 74
0
 40
0
 40
0
 40
0
 40
0
 40
1
 40
1
 40
1
 40
1
 10
6.738056
 20
147.173171
 30
0.0
 10
6.736633
 20
146.789391
 30
0.0
 10
6.420574
 20
145.482307
 30
0.0
 10
6.041319
 20
144.271574
 30
0.0
  0
SPLINE
  5
126
100
AcDbEntity
  8
0
 62
7
100
AcDbSpline
 70
8
 71
3
 72
8
 73
4
 74
0
 40
0
 40
0
 40
0
 40
0
 40
1
 40
1
 40
1
 40
1
 10
6.041319
 20
144.271574
 30
0.0
 10
5.662065
 20
143.060841
 30
0.0
 10
5.233128
 20
141.387968
 30
0.0
 10
5.080000
 20
140.549768
 30
0.0
  0
SPLINE
  5
127
100
AcDbEntity
  8
0
 62
7
100
AcDbSpline
 70
8
 71
3
 72
8
 73
4
 74
0
 40
0
 40
0
 40
0
 40
0
 40
1
 40
1
 40
1
 40
1
 10
5.080000
 20
140.549768
 30
0.0
 10
4.926872
 20
139.711568
 30
0.0
 10
4.476117
 20
137.723313
 30
0.0
 10
4.083403
 20
136.140046
 30
0.0
  0
SPLINE
  5
128
100
AcDbEntity
  8
0
 62
7
100
AcDbSpline
 70
8
 71
3
 72
8
 73
4
 74
0
 40
0
 40
0
 40
0
 40
0
 40
1
 40
1
 40
1
 40
1
 10
4.083403
 20
136.140046
 30
0.0
 10
3.058730
 20
132.008976
 30
0.0
 10
2.407152
 20
128.872000
 30
0.0
 10
2.019653
 20
126.156435
 30
0.0
  0
SPLINE
  5
129
100
AcDbEntity
  8
0
 62
7
100
AcDbSpline
 70
8
 71
3
 72
8
 73
4
 74
0
 40
0
 40
0
 40
0
 40
0
 40
1
 40
1
 40
1
 40
1
 10
2.019653
 20
126.156435
 30
0.0
 10
0.006483
 20
112.048287
 30
0.0
 10
-0.111320
 20
110.360595
 30
0.0
 10
0.044097
 20
97.916574
 30
0.0
  0
SPLINE
  5
12a
100
AcDbEntity
  8
0
 62
7
100
AcDbSpline
 70
8
 71
3
 72
8
 73
4
 74
0
 40
0
 40
0
 40
0
 40
0
 40
1
 40
1
 40
1
 40
1
 10
0.044097
 20
97.916574
 30
0.0
 10
0.193520
 20
85.952556
 30
0.0
 10
0.804663
 20
78.876601
 30
0.0
 10
2.390069
 20
70.779143
 30
0.0
  0
SPLINE
  5
12b
100
AcDbEntity
  8
0
 62
7
100
AcDbSpline
 70
8
 71
3
 72
8
 73
4
 74
0
 40
0
 40
0
 40
0
 40
0
 40
1
 40
1
 40
1
 40
1
 10
2.390069
 20
70.779143
 30
0.0
 10
2.772997
 20
68.823343
 30
0.0
 10
3.209879
 20
66.370431
 30
0.0
 10
3.351389
 20
65.328727
 30
0.0
  0
SPLINE
  5
12c
100
AcDbEntity
  8
0
 62
7
100
AcDbSpline
 70
8
 71
3
 72
8
 73
4
 74
0
 40
0
 40
0
 40
0
 40
0
 40
1
 40
1
 40
1
 40
1
 10
3.351389
 20
65.328727
 30
0.0
 10
4.158473
 20
59.387497
 30
0.0
 10
8.391336
 20
47.182055
 30
0.0
 10
12.444236
 20
39.117338
 30
0.0
  0
SPLINE
  5
12d
100
AcDbEntity
  8
0
 62
7
100
AcDbSpline
 70
8
 71
3
 72
8
 73
4
 74
0
 40
0
 40
0
 40
0
 40
0
 40
1
 40
1
 40
1
 40
1
 10
12.444236
 20
39.117338
 30
0.0
 10
12.725059
 20
38.558538
 30
0.0
 10
13.108536
 20
37.796538
 30
0.0
 10
13.290903
 20
37.424004
 30
0.0
  0
SPLINE
  5
12e
100
AcDbEntity
  8
0
 62
7
100
AcDbSpline
 70
8
 71
3
 72
8
 73
4
 74
0
 40
0
 40
0
 40
0
 40
0
 40
1
 40
1
 40
1
 40
1
 10
13.290903
 20
37.424004
 30
0.0
 10
13.473272
 20
37.051471
 30
0.0
 10
13.746497
 20
36.512779
 30
0.0
 10
13.899444
 20
36.233379
 30
0.0
  0
SPLINE
  5
12f
100
AcDbEntity
  8
0
 62
7
100
AcDbSpline
 70
8
 71
3
 72
8
 73
4
 74
0
 40
0
 40
0
 40
0
 40
0
 40
1
 40
1
 40
1
 40
1
 10
13.899444
 20
36.233379
 30
0.0
 10
14.052392
 20
35.953979
 30
0.0
 10
14.686828
 20
34.736543
 30
0.0
 10
15.310556
 20
33.525810
 30
0.0
  0
SPLINE
  5
130
100
AcDbEntity
  8
0
 62
7
100
AcDbSpline
 70
8
 71
3
 72
8
 73
4
 74
0
 40
0
 40
0
 40
0
 40
0
 40
1
 40
1
 40
1
 40
1
 10
15.310556
 20
33.525810
 30
0.0
 10
15.934286
 20
32.315077
 30
0.0
 10
17.083445
 20
30.132601
 30
0.0
 10
17.868194
 20
28.675116
 30
0.0
  0
SPLINE
  5
131
100
AcDbEntity
  8
0
 62
7
100
AcDbSpline
 70
8
 71
3
 72
8
 73
4
 74
0
 40
0
 40
0
 40
0
 40
0
 40
1
 40
1
 40
1
 40
1
 10
17.868194
 20
28.675116
 30
0.0
 10
18.652947
 20
27.217632
 30
0.0
 10
19.429197
 20
25.768069
 30
0.0
 10
19.596806
 20
25.456018
 30
0.0
  0
SPLINE
  5
132
100
AcDbEntity
  8
0
 62
7
100
AcDbSpline
 70
8
 71
3
 72
8
 73
4
 74
0
 40
0
 40
0
 40
0
 40
0
 40
1
 40
1
 40
1
 40
1
 10
19.596806
 20
25.456018
 30
0.0
 10
20.363719
 20
24.028183
 30
0.0
 10
21.774164
 20
20.730535
 30
0.0
 10
22.004514
 20
19.811574
 30
0.0
  0
SPLINE
  5
133
100
AcDbEntity
  8
0
 62
7
100
AcDbSpline
 70
8
 71
3
 72
8
 73
4
 74
0
 40
0
 40
0
 40
0
 40
0
 40
1
 40
1
 40
1
 40
1
 10
22.004514
 20
19.811574
 30
0.0
 10
22.144586
 20
19.252774
 30
0.0
 10
22.578489
 20
17.579902
 30
0.0
 10
22.974653
 20
16.089768
 30
0.0
  0
SPLINE
  5
134
100
AcDbEntity
  8
0
 62
7
100
AcDbSpline
 70
8
 71
3
 72
8
 73
4
 74
0
 40
0
 40
0
 40
0
 40
0
 40
1
 40
1
 40
1
 40
1
 10
22.974653
 20
16.089768
 30
0.0
 10
23.550285
 20
13.924565
 30
0.0
 10
23.694080
 20
12.458686
 30
0.0
 10
23.671389
 20
8.804907
 30
0.0
  0
SPLINE
  5
135
100
AcDbEntity
  8
0
 62
7
100
AcDbSpline
 70
8
 71
3
 72
8
 73
4
 74
0
 40
0
 40
0
 40
0
 40
0
 40
1
 40
1
 40
1
 40
1
 10
23.671389
 20
8.804907
 30
0.0
 10
23.655782
 20
6.290307
 30
0.0
 10
23.644465
 20
3.283935
 30
0.0
 10
23.653750
 20
2.119768
 30
0.0
  0
SPLINE
  5
136
100
AcDbEntity
  8
0
 62
7
100
AcDbSpline
 70
8
 71
3
 72
8
 73
4
 74
0
 40
0
 40
0
 40
0
 40
0
 40
1
 40
1
 40
1
 40
1
 10
36.750625
 20
0.929143
 30
0.0
 10
36.872988
 20
1.441377
 30
0.0
 10
37.091781
 20
2.012877
 30
0.0
 10
37.235694
 20
2.199143
 30
0.0
  0
SPLINE
  5
137
100
AcDbEntity
  8
0
 62
7
100
AcDbSpline
 70
8
 71
3
 72
8
 73
4
 74
0
 40
0
 40
0
 40
0
 40
0
 40
1
 40
1
 40
1
 40
1
 10
37.235694
 20
2.199143
 30
0.0
 10
37.379611
 20
2.385410
 30
0.0
 10
37.604313
 20
3.147410
 30
0.0
 10
37.738403
 20
3.892477
 30
0.0
  0
SPLINE
  5
138
100
AcDbEntity
  8
0
 62
7
100
AcDbSpline
 70
8
 71
3
 72
8
 73
4
 74
0
 40
0
 40
0
 40
0
 40
0
 40
1
 40
1
 40
1
 40
1
 10
37.738403
 20
3.892477
 30
0.0
 10
37.872495
 20
4.637543
 30
0.0
 10
38.086724
 20
5.399543
 30
0.0
 10
38.214653
 20
5.585810
 30
0.0
  0
SPLINE
  5
139
100
AcDbEntity
  8
0
 62
7
100
AcDbSpline
 70
8
 71
3
 72
8
 73
4
 74
0
 40
0
 40
0
 40
0
 40
0
 40
1
 40
1
 40
1
 40
1
 10
38.214653
 20
5.585810
 30
0.0
 10
38.342578
 20
5.772077
 30
0.0
 10
38.728136
 20
6.840641
 30
0.0
 10
39.070139
 20
7.958241
 30
0.0
  0
SPLINE
  5
13a
100
AcDbEntity
  8
0
 62
7
100
AcDbSpline
 70
8
 71
3
 72
8
 73
4
 74
0
 40
0
 40
0
 40
0
 40
0
 40
1
 40
1
 40
1
 40
1
 10
39.070139
 20
7.958241
 30
0.0
 10
39.412141
 20
9.075841
 30
0.0
 10
40.033840
 20
10.980841
 30
0.0
 10
40.445972
 20
12.191574
 30
0.0
  0
SPLINE
  5
13b
100
AcDbEntity
  8
0
 62
7
100
AcDbSpline
 70
8
 71
3
 72
8
 73
4
 74
0
 40
0
 40
0
 40
0
 40
0
 40
1
 40
1
 40
1
 40
1
 10
40.445972
 20
12.191574
 30
0.0
 10
42.043519
 20
16.884769
 30
0.0
 10
42.298056
 20
17.928381
 30
0.0
 10
42.298056
 20
19.696921
 30
0.0
  0
SPLINE
  5
13c
100
AcDbEntity
  8
0
 62
7
100
AcDbSpline
 70
8
 71
3
 72
8
 73
4
 74
0
 40
0
 40
0
 40
0
 40
0
 40
1
 40
1
 40
1
 40
1
 10
42.298056
 20
19.696921
 30
0.0
 10
42.298056
 20
21.495509
 30
0.0
 10
41.550725
 20
24.179200
 30
0.0
 10
40.251944
 20
27.008241
 30
0.0
  0
SPLINE
  5
13d
100
AcDbEntity
  8
0
 62
7
100
AcDbSpline
 70
8
 71
3
 72
8
 73
4
 74
0
 40
0
 40
0
 40
0
 40
0
 40
1
 40
1
 40
1
 40
1
 10
40.251944
 20
27.008241
 30
0.0
 10
39.889444
 20
27.797845
 30
0.0
 10
39.590486
 20
28.565777
 30
0.0
 10
39.590486
 20
28.719213
 30
0.0
  0
SPLINE
  5
13e
100
AcDbEntity
  8
0
 62
7
100
AcDbSpline
 70
8
 71
3
 72
8
 73
4
 74
0
 40
0
 40
0
 40
0
 40
0
 40
1
 40
1
 40
1
 40
1
 10
39.590486
 20
28.719213
 30
0.0
 10
39.590486
 20
28.872648
 30
0.0
 10
39.209486
 20
29.791225
 30
0.0
 10
38.743819
 20
30.756504
 30
0.0
  0
SPLINE
  5
13f
100
AcDbEntity
  8
0
 62
7
100
AcDbSpline
 70
8
 71
3
 72
8
 73
4
 74
0
 40
0
 40
0
 40
0
 40
0
 40
1
 40
1
 40
1
 40
1
 10
38.743819
 20
30.756504
 30
0.0
 10
38.278153
 20
31.721786
 30
0.0
 10
37.897153
 20
32.674060
 30
0.0
 10
37.897153
 20
32.873171
 30
0.0
  0
SPLINE
  5
140
100
AcDbEntity
  8
0
 62
7
100
AcDbSpline
 70
8
 71
3
 72
8
 73
4
 74
0
 40
0
 40
0
 40
0
 40
0
 40
1
 40
1
 40
1
 40
1
 10
37.897153
 20
32.873171
 30
0.0
 10
37.897153
 20
33.072287
 30
0.0
 10
37.516153
 20
34.068803
 30
0.0
 10
37.050486
 20
35.086852
 30
0.0
  0
SPLINE
  5
141
100
AcDbEntity
  8
0
 62
7
100
AcDbSpline
 70
8
 71
3
 72
8
 73
4
 74
0
 40
0
 40
0
 40
0
 40
0
 40
1
 40
1
 40
1
 40
1
 10
37.050486
 20
35.086852
 30
0.0
 10
36.584819
 20
36.104903
 30
0.0
 10
36.203819
 20
37.057756
 30
0.0
 10
36.203819
 20
37.203518
 30
0.0
  0
SPLINE
  5
142
100
AcDbEntity
  8
0
 62
7
100
AcDbSpline
 70
8
 71
3
 72
8
 73
4
 74
0
 40
0
 40
0
 40
0
 40
0
 40
1
 40
1
 40
1
 40
1
 10
36.203819
 20
37.203518
 30
0.0
 10
36.203819
 20
37.349278
 30
0.0
 10
35.907286
 20
38.079813
 30
0.0
 10
35.542361
 20
38.835116
 30
0.0
  0
SPLINE
  5
143
100
AcDbEntity
  8
0
 62
7
100
AcDbSpline
 70
8
 71
3
 72
8
 73
4
 74
0
 40
0
 40
0
 40
0
 40
0
 40
1
 40
1
 40
1
 40
1
 10
35.542361
 20
38.835116
 30
0.0
 10
34.884992
 20
40.195717
 30
0.0
 10
34.473617
 20
41.257282
 30
0.0
 10
33.328681
 20
44.532477
 30
0.0
  0
SPLINE
  5
144
100
AcDbEntity
  8
0
 62
7
100
AcDbSpline
 70
8
 71
3
 72
8
 73
4
 74
0
 40
0
 40
0
 40
0
 40
0
 40
1
 40
1
 40
1
 40
1
 10
33.328681
 20
44.532477
 30
0.0
 10
33.003106
 20
45.463810
 30
0.0
 10
32.443860
 20
46.883704
 30
0.0
 10
32.093958
 20
47.681018
 30
0.0
  0
SPLINE
  5
145
100
AcDbEntity
  8
0
 62
7
100
AcDbSpline
 70
8
 71
3
 72
8
 73
4
 74
0
 40
0
 40
0
 40
0
 40
0
 40
1
 40
1
 40
1
 40
1
 10
32.093958
 20
47.681018
 30
0.0
 10
31.744054
 20
48.478327
 30
0.0
 10
31.327251
 20
49.695763
 30
0.0
 10
31.159097
 20
50.388588
 30
0.0
  0
SPLINE
  5
146
100
AcDbEntity
  8
0
 62
7
100
AcDbSpline
 70
8
 71
3
 72
8
 73
4
 74
0
 40
0
 40
0
 40
0
 40
0
 40
1
 40
1
 40
1
 40
1
 10
31.159097
 20
50.388588
 30
0.0
 10
30.990946
 20
51.081407
 30
0.0
 10
30.531429
 20
52.560641
 30
0.0
 10
30.144861
 20
53.678241
 30
0.0
  0
SPLINE
  5
147
100
AcDbEntity
  8
0
 62
7
100
AcDbSpline
 70
8
 71
3
 72
8
 73
4
 74
0
 40
0
 40
0
 40
0
 40
0
 40
1
 40
1
 40
1
 40
1
 10
30.144861
 20
53.678241
 30
0.0
 10
26.920730
 20
62.999499
 30
0.0
 10
26.046966
 20
69.729025
 30
0.0
 10
26.052639
 20
85.172477
 30
0.0
  0
SPLINE
  5
148
100
AcDbEntity
  8
0
 62
7
100
AcDbSpline
 70
8
 71
3
 72
8
 73
4
 74
0
 40
0
 40
0
 40
0
 40
0
 40
1
 40
1
 40
1
 40
1
 10
26.052639
 20
85.172477
 30
0.0
 10
26.059593
 20
104.138451
 30
0.0
 10
27.314354
 20
113.414488
 30
0.0
 10
31.829375
 20
127.849768
 30
0.0
  0
SPLINE
  5
149
100
AcDbEntity
  8
0
 62
7
100
AcDbSpline
 70
8
 71
3
 72
8
 73
4
 74
0
 40
0
 40
0
 40
0
 40
0
 40
1
 40
1
 40
1
 40
1
 10
31.829375
 20
127.849768
 30
0.0
 10
32.237195
 20
129.153635
 30
0.0
 10
32.688014
 20
130.752071
 30
0.0
 10
32.834792
 20
131.404004
 30
0.0
  0
SPLINE
  5
14a
100
AcDbEntity
  8
0
 62
7
100
AcDbSpline
 70
8
 71
3
 72
8
 73
4
 74
0
 40
0
 40
0
 40
0
 40
0
 40
1
 40
1
 40
1
 40
1
 10
32.834792
 20
131.404004
 30
0.0
 10
33.084256
 20
132.512031
 30
0.0
 10
34.939207
 20
137.838321
 30
0.0
 10
35.815764
 20
139.976504
 30
0.0
  0
SPLINE
  5
14b
100
AcDbEntity
  8
0
 62
7
100
AcDbSpline
 70
8
 71
3
 72
8
 73
4
 74
0
 40
0
 40
0
 40
0
 40
0
 40
1
 40
1
 40
1
 40
1
 10
35.815764
 20
139.976504
 30
0.0
 10
36.030724
 20
140.500862
 30
0.0
 10
36.203819
 20
141.144303
 30
0.0
 10
36.203819
 20
141.405254
 30
0.0
  0
SPLINE
  5
14c
100
AcDbEntity
  8
0
 62
7
100
AcDbSpline
 70
8
 71
3
 72
8
 73
4
 74
0
 40
0
 40
0
 40
0
 40
0
 40
1
 40
1
 40
1
 40
1
 10
36.203819
 20
141.405254
 30
0.0
 10
36.203819
 20
141.968957
 30
0.0
 10
37.260959
 20
144.266212
 30
0.0
 10
37.535556
 20
144.298032
 30
0.0
  0
SPLINE
  5
14d
100
AcDbEntity
  8
0
 62
7
100
AcDbSpline
 70
8
 71
3
 72
8
 73
4
 74
0
 40
0
 40
0
 40
0
 40
0
 40
1
 40
1
 40
1
 40
1
 10
37.535556
 20
144.298032
 30
0.0
 10
37.640760
 20
144.310224
 30
0.0
 10
39.496898
 20
144.336513
 30
0.0
 10
41.663056
 20
144.359768
 30
0.0
  0
SPLINE
  5
14e
100
AcDbEntity
  8
0
 62
7
100
AcDbSpline
 70
8
 71
3
 72
8
 73
4
 74
0
 40
0
 40
0
 40
0
 40
0
 40
1
 40
1
 40
1
 40
1
 10
41.663056
 20
144.359768
 30
0.0
 10
45.086784
 20
144.396516
 30
0.0
 10
45.981713
 20
144.281384
 30
0.0
 10
48.515764
 20
143.477824
 30
0.0
  0
SPLINE
  5
14f
100
AcDbEntity
  8
0
 62
7
100
AcDbSpline
 70
8
 71
3
 72
8
 73
4
 74
0
 40
0
 40
0
 40
0
 40
0
 40
1
 40
1
 40
1
 40
1
 10
48.515764
 20
143.477824
 30
0.0
 10
50.119029
 20
142.969420
 30
0.0
 10
52.691589
 20
142.178255
 30
0.0
 10
54.230764
 20
141.722754
 30
0.0
  0
SPLINE
  5
150
100
AcDbEntity
  8
0
 62
7
100
AcDbSpline
 70
8
 71
3
 72
8
 73
4
 74
0
 40
0
 40
0
 40
0
 40
0
 40
1
 40
1
 40
1
 40
1
 10
54.230764
 20
141.722754
 30
0.0
 10
55.769942
 20
141.267259
 30
0.0
 10
58.300549
 20
140.515597
 30
0.0
 10
59.848750
 20
140.047060
 30
0.0
  0
SPLINE
  5
151
100
AcDbEntity
  8
0
 62
7
100
AcDbSpline
 70
8
 71
3
 72
8
 73
4
 74
0
 40
0
 40
0
 40
0
 40
0
 40
1
 40
1
 40
1
 40
1
 10
59.848750
 20
140.047060
 30
0.0
 10
61.396951
 20
139.578517
 30
0.0
 10
62.846514
 20
139.194692
 30
0.0
 10
63.067847
 20
139.200393
 30
0.0
  0
SPLINE
  5
152
100
AcDbEntity
  8
0
 62
7
100
AcDbSpline
 70
8
 71
3
 72
8
 73
4
 74
0
 40
0
 40
0
 40
0
 40
0
 40
1
 40
1
 40
1
 40
1
 10
63.067847
 20
139.200393
 30
0.0
 10
63.289180
 20
139.206066
 30
0.0
 10
64.682158
 20
138.834676
 30
0.0
 10
66.172292
 20
138.371366
 30
0.0
  0
SPLINE
  5
153
100
AcDbEntity
  8
0
 62
7
100
AcDbSpline
 70
8
 71
3
 72
8
 73
4
 74
0
 40
0
 40
0
 40
0
 40
0
 40
1
 40
1
 40
1
 40
1
 10
66.172292
 20
138.371366
 30
0.0
 10
67.662425
 20
137.908058
 30
0.0
 10
70.329425
 20
137.132043
 30
0.0
 10
72.098958
 20
136.651574
 30
0.0
  0
SPLINE
  5
154
100
AcDbEntity
  8
0
 62
7
100
AcDbSpline
 70
8
 71
3
 72
8
 73
4
 74
0
 40
0
 40
0
 40
0
 40
0
 40
1
 40
1
 40
1
 40
1
 10
72.098958
 20
136.651574
 30
0.0
 10
73.868492
 20
136.171107
 30
0.0
 10
76.618747
 20
135.408278
 30
0.0
 10
78.202014
 20
134.958241
 30
0.0
  0
SPLINE
  5
155
100
AcDbEntity
  8
0
 62
7
100
AcDbSpline
 70
8
 71
3
 72
8
 73
4
 74
0
 40
0
 40
0
 40
0
 40
0
 40
1
 40
1
 40
1
 40
1
 10
78.202014
 20
134.958241
 30
0.0
 10
79.785281
 20
134.508200
 30
0.0
 10
81.764717
 20
133.975994
 30
0.0
 10
82.602917
 20
133.767616
 30
0.0
  0
SPLINE
  5
156
100
AcDbEntity
  8
0
 62
7
100
AcDbSpline
 70
8
 71
3
 72
8
 73
4
 74
0
 40
0
 40
0
 40
0
 40
0
 40
1
 40
1
 40
1
 40
1
 10
82.602917
 20
133.767616
 30
0.0
 10
84.520707
 20
133.290846
 30
0.0
 10
86.005650
 20
132.174228
 30
0.0
 10
85.301667
 20
131.739143
 30
0.0
  0
SPLINE
  5
157
100
AcDbEntity
  8
0
 62
7
100
AcDbSpline
 70
8
 71
3
 72
8
 73
4
 74
0
 40
0
 40
0
 40
0
 40
0
 40
1
 40
1
 40
1
 40
1
 10
85.301667
 20
131.739143
 30
0.0
 10
84.348622
 20
131.150126
 30
0.0
 10
85.334912
 20
130.983420
 30
0.0
 10
87.383056
 20
131.386366
 30
0.0
  0
SPLINE
  5
158
100
AcDbEntity
  8
0
 62
7
100
AcDbSpline
 70
8
 71
3
 72
8
 73
4
 74
0
 40
0
 40
0
 40
0
 40
0
 40
1
 40
1
 40
1
 40
1
 10
87.383056
 20
131.386366
 30
0.0
 10
89.029393
 20
131.710128
 30
0.0
 10
89.527267
 20
131.704004
 30
0.0
 10
89.729028
 20
131.377546
 30
0.0
  0
SPLINE
  5
159
100
AcDbEntity
  8
0
 62
7
100
AcDbSpline
 70
8
 71
3
 72
8
 73
4
 74
0
 40
0
 40
0
 40
0
 40
0
 40
1
 40
1
 40
1
 40
1
 10
89.729028
 20
131.377546
 30
0.0
 10
89.869944
 20
131.149547
 30
0.0
 10
90.193980
 20
131.049138
 30
0.0
 10
90.452222
 20
131.148241
 30
0.0
  0
SPLINE
  5
15a
100
AcDbEntity
  8
0
 62
7
100
AcDbSpline
 70
8
 71
3
 72
8
 73
4
 74
0
 40
0
 40
0
 40
0
 40
0
 40
1
 40
1
 40
1
 40
1
 10
90.452222
 20
131.148241
 30
0.0
 10
91.060157
 20
131.381523
 30
0.0
 10
95.729456
 20
130.516125
 30
0.0
 10
96.828681
 20
129.966435
 30
0.0
  0
SPLINE
  5
15b
100
AcDbEntity
  8
0
 62
7
100
AcDbSpline
 70
8
 71
3
 72
8
 73
4
 74
0
 40
0
 40
0
 40
0
 40
0
 40
1
 40
1
 40
1
 40
1
 10
96.828681
 20
129.966435
 30
0.0
 10
97.889365
 20
129.436018
 30
0.0
 10
98.171480
 20
129.051595
 30
0.0
 10
98.178056
 20
128.140810
 30
0.0
  0
SPLINE
  5
15c
100
AcDbEntity
  8
0
 62
7
100
AcDbSpline
 70
8
 71
3
 72
8
 73
4
 74
0
 40
0
 40
0
 40
0
 40
0
 40
1
 40
1
 40
1
 40
1
 10
98.178056
 20
128.140810
 30
0.0
 10
98.180906
 20
127.744519
 30
0.0
 10
98.405275
 20
127.231735
 30
0.0
 10
98.680764
 20
127.003102
 30
0.0
  0
SPLINE
  5
15d
100
AcDbEntity
  8
0
 62
7
100
AcDbSpline
 70
8
 71
3
 72
8
 73
4
 74
0
 40
0
 40
0
 40
0
 40
0
 40
1
 40
1
 40
1
 40
1
 10
98.680764
 20
127.003102
 30
0.0
 10
99.052657
 20
126.694458
 30
0.0
 10
99.094530
 20
126.421269
 30
0.0
 10
98.839514
 20
125.944768
 30
0.0
  0
SPLINE
  5
15e
100
AcDbEntity
  8
0
 62
7
100
AcDbSpline
 70
8
 71
3
 72
8
 73
4
 74
0
 40
0
 40
0
 40
0
 40
0
 40
1
 40
1
 40
1
 40
1
 10
98.839514
 20
125.944768
 30
0.0
 10
98.595459
 20
125.488754
 30
0.0
 10
98.608416
 20
125.309768
 30
0.0
 10
98.883611
 20
125.309768
 30
0.0
  0
SPLINE
  5
15f
100
AcDbEntity
  8
0
 62
7
100
AcDbSpline
 70
8
 71
3
 72
8
 73
4
 74
0
 40
0
 40
0
 40
0
 40
0
 40
1
 40
1
 40
1
 40
1
 10
98.883611
 20
125.309768
 30
0.0
 10
99.123545
 20
125.309768
 30
0.0
 10
99.195469
 20
124.994170
 30
0.0
 10
99.068819
 20
124.489560
 30
0.0
  0
SPLINE
  5
160
100
AcDbEntity
  8
0
 62
7
100
AcDbSpline
 70
8
 71
3
 72
8
 73
4
 74
0
 40
0
 40
0
 40
0
 40
0
 40
1
 40
1
 40
1
 40
1
 10
99.068819
 20
124.489560
 30
0.0
 10
98.897090
 20
123.805343
 30
0.0
 10
98.964248
 20
123.709591
 30
0.0
 10
99.518611
 20
123.854560
 30
0.0
  0
SPLINE
  5
161
100
AcDbEntity
  8
0
 62
7
100
AcDbSpline
 70
8
 71
3
 72
8
 73
4
 74
0
 40
0
 40
0
 40
0
 40
0
 40
1
 40
1
 40
1
 40
1
 10
99.518611
 20
123.854560
 30
0.0
 10
99.881583
 20
123.949480
 30
0.0
 10
100.416868
 20
124.387308
 30
0.0
 10
100.709236
 20
124.833518
 30
0.0
  0
SPLINE
  5
162
100
AcDbEntity
  8
0
 62
7
100
AcDbSpline
 70
8
 71
3
 72
8
 73
4
 74
0
 40
0
 40
0
 40
0
 40
0
 40
1
 40
1
 40
1
 40
1
 10
100.709236
 20
124.833518
 30
0.0
 10
101.090016
 20
125.414665
 30
0.0
 10
101.549180
 20
125.639813
 30
0.0
 10
102.332014
 20
125.636088
 30
0.0
  0
SPLINE
  5
163
100
AcDbEntity
  8
0
 62
7
100
AcDbSpline
 70
8
 71
3
 72
8
 73
4
 74
0
 40
0
 40
0
 40
0
 40
0
 40
1
 40
1
 40
1
 40
1
 10
102.332014
 20
125.636088
 30
0.0
 10
103.138410
 20
125.632261
 30
0.0
 10
103.299339
 20
125.551068
 30
0.0
 10
102.931736
 20
125.318588
 30
0.0
  0
SPLINE
  5
164
100
AcDbEntity
  8
0
 62
7
100
AcDbSpline
 70
8
 71
3
 72
8
 73
4
 74
0
 40
0
 40
0
 40
0
 40
0
 40
1
 40
1
 40
1
 40
1
 10
102.931736
 20
125.318588
 30
0.0
 10
102.657746
 20
125.145303
 30
0.0
 10
102.524230
 20
124.914708
 30
0.0
 10
102.631875
 20
124.807060
 30
0.0
  0
SPLINE
  5
165
100
AcDbEntity
  8
0
 62
7
100
AcDbSpline
 70
8
 71
3
 72
8
 73
4
 74
0
 40
0
 40
0
 40
0
 40
0
 40
1
 40
1
 40
1
 40
1
 10
102.631875
 20
124.807060
 30
0.0
 10
102.898660
 20
124.540275
 30
0.0
 10
103.937153
 20
124.969439
 30
0.0
 10
103.937153
 20
125.345046
 30
0.0
  0
SPLINE
  5
166
100
AcDbEntity
  8
0
 62
7
100
AcDbSpline
 70
8
 71
3
 72
8
 73
4
 74
0
 40
0
 40
0
 40
0
 40
0
 40
1
 40
1
 40
1
 40
1
 10
103.937153
 20
125.345046
 30
0.0
 10
103.937153
 20
125.511382
 30
0.0
 10
104.157114
 20
125.644907
 30
0.0
 10
104.422222
 20
125.644907
 30
0.0
  0
SPLINE
  5
167
100
AcDbEntity
  8
0
 62
7
100
AcDbSpline
 70
8
 71
3
 72
8
 73
4
 74
0
 40
0
 40
0
 40
0
 40
0
 40
1
 40
1
 40
1
 40
1
 10
104.422222
 20
125.644907
 30
0.0
 10
104.687336
 20
125.644907
 30
0.0
 10
105.375848
 20
126.046825
 30
0.0
 10
105.956806
 20
126.535671
 30
0.0
  0
SPLINE
  5
168
100
AcDbEntity
  8
0
 62
7
100
AcDbSpline
 70
8
 71
3
 72
8
 73
4
 74
0
 40
0
 40
0
 40
0
 40
0
 40
1
 40
1
 40
1
 40
1
 10
105.956806
 20
126.535671
 30
0.0
 10
106.537766
 20
127.024514
 30
0.0
 10
107.099515
 20
127.333237
 30
0.0
 10
107.209167
 20
127.223588
 30
0.0
  0
SPLINE
  5
169
100
AcDbEntity
  8
0
 62
7
100
AcDbSpline
 70
8
 71
3
 72
8
 73
4
 74
0
 40
0
 40
0
 40
0
 40
0
 40
1
 40
1
 40
1
 40
1
 10
107.209167
 20
127.223588
 30
0.0
 10
107.440803
 20
126.991948
 30
0.0
 10
106.438553
 20
124.749935
 30
0.0
 10
105.974444
 20
124.463102
 30
0.0
  0
SPLINE
  5
16a
100
AcDbEntity
  8
0
 62
7
100
AcDbSpline
 70
8
 71
3
 72
8
 73
4
 74
0
 40
0
 40
0
 40
0
 40
0
 40
1
 40
1
 40
1
 40
1
 10
105.974444
 20
124.463102
 30
0.0
 10
105.801837
 20
124.356422
 30
0.0
 10
105.320174
 20
123.799400
 30
0.0
 10
104.907292
 20
123.219560
 30
0.0
  0
LWPOLYLINE
  5
16b
100
AcDbEntity
  8
0
 62
7
100
AcDbPolyline
 90
5
 70
0
 10
23.653750
 20
2.119768
 30
0.0
 10
23.671389
 20
0.003102
 30
0.0
 10
30.100764
 20
0.003102
 30
0.0
 10
36.530139
 20
0.003102
 30
0.0
 10
36.750625
 20
0.929143
 30
0.0
  0
SPLINE
  5
16c
100
AcDbEntity
  8
0
 62
7
100
AcDbSpline
 70
8
 71
3
 72
8
 73
4
 74
0
 40
0
 40
0
 40
0
 40
0
 40
1
 40
1
 40
1
 40
1
 10
105.445278
 20
122.399352
 30
0.0
 10
106.665260
 20
122.628223
 30
0.0
 10
106.726730
 20
122.606102
 30
0.0
 10
106.556528
 20
121.861366
 30
0.0
  0
SPLINE
  5
16d
100
AcDbEntity
  8
0
 62
7
100
AcDbSpline
 70
8
 71
3
 72
8
 73
4
 74
0
 40
0
 40
0
 40
0
 40
0
 40
1
 40
1
 40
1
 40
1
 10
106.556528
 20
121.861366
 30
0.0
 10
106.457778
 20
121.429286
 30
0.0
 10
105.684695
 20
119.361935
 30
0.0
 10
104.845556
 20
117.266435
 30
0.0
  0
SPLINE
  5
16e
100
AcDbEntity
  8
0
 62
7
100
AcDbSpline
 70
8
 71
3
 72
8
 73
4
 74
0
 40
0
 40
0
 40
0
 40
0
 40
1
 40
1
 40
1
 40
1
 10
104.845556
 20
117.266435
 30
0.0
 10
103.314689
 20
113.443543
 30
0.0
 10
103.185999
 20
112.523990
 30
0.0
 10
104.448681
 20
114.541227
 30
0.0
  0
SPLINE
  5
16f
100
AcDbEntity
  8
0
 62
7
100
AcDbSpline
 70
8
 71
3
 72
8
 73
4
 74
0
 40
0
 40
0
 40
0
 40
0
 40
1
 40
1
 40
1
 40
1
 10
104.448681
 20
114.541227
 30
0.0
 10
104.821214
 20
115.136380
 30
0.0
 10
105.276650
 20
115.859870
 30
0.0
 10
105.462917
 20
116.155185
 30
0.0
  0
SPLINE
  5
170
100
AcDbEntity
  8
0
 62
7
100
AcDbSpline
 70
8
 71
3
 72
8
 73
4
 74
0
 40
0
 40
0
 40
0
 40
0
 40
1
 40
1
 40
1
 40
1
 10
105.462917
 20
116.155185
 30
0.0
 10
105.649183
 20
116.450497
 30
0.0
 10
106.459895
 20
117.284435
 30
0.0
 10
107.262083
 20
118.007268
 30
0.0
  0
LWPOLYLINE
  5
171
100
AcDbEntity
  8
0
 62
7
100
AcDbPolyline
 90
3
 70
0
 10
104.907292
 20
123.219560
 30
0.0
 10
104.157639
 20
122.161227
 30
0.0
 10
105.445278
 20
122.399352
 30
0.0
  0
SPLINE
  5
172
100
AcDbEntity
  8
0
 62
7
100
AcDbSpline
 70
8
 71
3
 72
8
 73
4
 74
0
 40
0
 40
0
 40
0
 40
0
 40
1
 40
1
 40
1
 40
1
 10
108.479167
 20
117.486921
 30
0.0
 10
108.349861
 20
116.477810
 30
0.0
 10
107.961777
 20
115.091196
 30
0.0
 10
107.614861
 20
114.400116
 30
0.0
  0
SPLINE
  5
173
100
AcDbEntity
  8
0
 62
7
100
AcDbSpline
 70
8
 71
3
 72
8
 73
4
 74
0
 40
0
 40
0
 40
0
 40
0
 40
1
 40
1
 40
1
 40
1
 10
107.614861
 20
114.400116
 30
0.0
 10
106.856744
 20
112.889908
 30
0.0
 10
106.850863
 20
112.777338
 30
0.0
 10
107.473750
 20
112.777338
 30
0.0
  0
SPLINE
  5
174
100
AcDbEntity
  8
0
 62
7
100
AcDbSpline
 70
8
 71
3
 72
8
 73
4
 74
0
 40
0
 40
0
 40
0
 40
0
 40
1
 40
1
 40
1
 40
1
 10
107.473750
 20
112.777338
 30
0.0
 10
107.747994
 20
112.777338
 30
0.0
 10
108.013280
 20
112.368559
 30
0.0
 10
108.082292
 20
111.842477
 30
0.0
  0
SPLINE
  5
175
100
AcDbEntity
  8
0
 62
7
100
AcDbSpline
 70
8
 71
3
 72
8
 73
4
 74
0
 40
0
 40
0
 40
0
 40
0
 40
1
 40
1
 40
1
 40
1
 10
108.082292
 20
111.842477
 30
0.0
 10
108.189804
 20
111.022881
 30
0.0
 10
108.265699
 20
111.117933
 30
0.0
 10
108.726111
 20
112.592129
 30
0.0
  0
SPLINE
  5
176
100
AcDbEntity
  8
0
 62
7
100
AcDbSpline
 70
8
 71
3
 72
8
 73
4
 74
0
 40
0
 40
0
 40
0
 40
0
 40
1
 40
1
 40
1
 40
1
 10
108.726111
 20
112.592129
 30
0.0
 10
109.505488
 20
115.087617
 30
0.0
 10
110.031389
 20
114.961718
 30
0.0
 10
110.031389
 20
112.292268
 30
0.0
  0
SPLINE
  5
177
100
AcDbEntity
  8
0
 62
7
100
AcDbSpline
 70
8
 71
3
 72
8
 73
4
 74
0
 40
0
 40
0
 40
0
 40
0
 40
1
 40
1
 40
1
 40
1
 10
110.031389
 20
112.292268
 30
0.0
 10
110.031389
 20
111.066013
 30
0.0
 10
110.147453
 20
110.066946
 30
0.0
 10
110.287153
 20
110.069768
 30
0.0
  0
SPLINE
  5
178
100
AcDbEntity
  8
0
 62
7
100
AcDbSpline
 70
8
 71
3
 72
8
 73
4
 74
0
 40
0
 40
0
 40
0
 40
0
 40
1
 40
1
 40
1
 40
1
 10
110.287153
 20
110.069768
 30
0.0
 10
110.799474
 20
110.080230
 30
0.0
 10
111.306119
 20
110.591975
 30
0.0
 10
111.539514
 20
111.339768
 30
0.0
  0
SPLINE
  5
179
100
AcDbEntity
  8
0
 62
7
100
AcDbSpline
 70
8
 71
3
 72
8
 73
4
 74
0
 40
0
 40
0
 40
0
 40
0
 40
1
 40
1
 40
1
 40
1
 10
111.539514
 20
111.339768
 30
0.0
 10
111.806905
 20
112.196493
 30
0.0
 10
112.470949
 20
112.032951
 30
0.0
 10
112.324444
 20
111.145741
 30
0.0
  0
SPLINE
  5
17a
100
AcDbEntity
  8
0
 62
7
100
AcDbSpline
 70
8
 71
3
 72
8
 73
4
 74
0
 40
0
 40
0
 40
0
 40
0
 40
1
 40
1
 40
1
 40
1
 10
112.324444
 20
111.145741
 30
0.0
 10
112.259243
 20
110.750875
 30
0.0
 10
112.513886
 20
110.540402
 30
0.0
 10
113.153472
 20
110.466643
 30
0.0
  0
SPLINE
  5
17b
100
AcDbEntity
  8
0
 62
7
100
AcDbSpline
 70
8
 71
3
 72
8
 73
4
 74
0
 40
0
 40
0
 40
0
 40
0
 40
1
 40
1
 40
1
 40
1
 10
113.153472
 20
110.466643
 30
0.0
 10
113.990715
 20
110.370092
 30
0.0
 10
114.054342
 20
110.270225
 30
0.0
 10
113.859028
 20
109.293657
 30
0.0
  0
LWPOLYLINE
  5
17c
100
AcDbEntity
  8
0
 62
7
100
AcDbPolyline
 90
3
 70
0
 10
107.262083
 20
118.007268
 30
0.0
 10
108.717292
 20
119.321366
 30
0.0
 10
108.479167
 20
117.486921
 30
0.0
  0
SPLINE
  5
17d
100
AcDbEntity
  8
0
 62
7
100
AcDbSpline
 70
8
 71
3
 72
8
 73
4
 74
0
 40
0
 40
0
 40
0
 40
0
 40
1
 40
1
 40
1
 40
1
 10
114.573403
 20
108.826227
 30
0.0
 10
115.310906
 20
109.309456
 30
0.0
 10
115.600703
 20
109.354928
 30
0.0
 10
115.993333
 20
109.029074
 30
0.0
  0
SPLINE
  5
17e
100
AcDbEntity
  8
0
 62
7
100
AcDbSpline
 70
8
 71
3
 72
8
 73
4
 74
0
 40
0
 40
0
 40
0
 40
0
 40
1
 40
1
 40
1
 40
1
 10
115.993333
 20
109.029074
 30
0.0
 10
116.570783
 20
108.549832
 30
0.0
 10
116.550104
 20
108.535874
 30
0.0
 10
117.148681
 20
110.069768
 30
0.0
  0
SPLINE
  5
17f
100
AcDbEntity
  8
0
 62
7
100
AcDbSpline
 70
8
 71
3
 72
8
 73
4
 74
0
 40
0
 40
0
 40
0
 40
0
 40
1
 40
1
 40
1
 40
1
 10
117.148681
 20
110.069768
 30
0.0
 10
117.695438
 20
111.470880
 30
0.0
 10
118.038400
 20
111.747340
 30
0.0
 10
119.194792
 20
111.754282
 30
0.0
  0
SPLINE
  5
180
100
AcDbEntity
  8
0
 62
7
100
AcDbSpline
 70
8
 71
3
 72
8
 73
4
 74
0
 40
0
 40
0
 40
0
 40
0
 40
1
 40
1
 40
1
 40
1
 10
119.194792
 20
111.754282
 30
0.0
 10
120.218626
 20
111.760429
 30
0.0
 10
120.870486
 20
112.326527
 30
0.0
 10
120.870486
 20
113.209491
 30
0.0
  0
SPLINE
  5
181
100
AcDbEntity
  8
0
 62
7
100
AcDbSpline
 70
8
 71
3
 72
8
 73
4
 74
0
 40
0
 40
0
 40
0
 40
0
 40
1
 40
1
 40
1
 40
1
 10
120.870486
 20
113.209491
 30
0.0
 10
120.870486
 20
114.257049
 30
0.0
 10
121.677410
 20
113.667492
 30
0.0
 10
121.955278
 20
112.415741
 30
0.0
  0
SPLINE
  5
182
100
AcDbEntity
  8
0
 62
7
100
AcDbSpline
 70
8
 71
3
 72
8
 73
4
 74
0
 40
0
 40
0
 40
0
 40
0
 40
1
 40
1
 40
1
 40
1
 10
121.955278
 20
112.415741
 30
0.0
 10
122.214403
 20
111.248416
 30
0.0
 10
122.029948
 20
109.711369
 30
0.0
 10
121.593681
 20
109.390671
 30
0.0
  0
SPLINE
  5
183
100
AcDbEntity
  8
0
 62
7
100
AcDbSpline
 70
8
 71
3
 72
8
 73
4
 74
0
 40
0
 40
0
 40
0
 40
0
 40
1
 40
1
 40
1
 40
1
 10
121.593681
 20
109.390671
 30
0.0
 10
120.286983
 20
108.430128
 30
0.0
 10
119.738532
 20
104.706736
 30
0.0
 10
120.552986
 20
102.370393
 30
0.0
  0
SPLINE
  5
184
100
AcDbEntity
  8
0
 62
7
100
AcDbSpline
 70
8
 71
3
 72
8
 73
4
 74
0
 40
0
 40
0
 40
0
 40
0
 40
1
 40
1
 40
1
 40
1
 10
120.552986
 20
102.370393
 30
0.0
 10
120.944586
 20
101.247044
 30
0.0
 10
120.871288
 20
101.100230
 30
0.0
 10
118.339306
 20
97.334491
 30
0.0
  0
SPLINE
  5
185
100
AcDbEntity
  8
0
 62
7
100
AcDbSpline
 70
8
 71
3
 72
8
 73
4
 74
0
 40
0
 40
0
 40
0
 40
0
 40
1
 40
1
 40
1
 40
1
 10
118.339306
 20
97.334491
 30
0.0
 10
116.756691
 20
94.980715
 30
0.0
 10
116.601912
 20
94.705813
 30
0.0
 10
114.952639
 20
91.610671
 30
0.0
  0
SPLINE
  5
186
100
AcDbEntity
  8
0
 62
7
100
AcDbSpline
 70
8
 71
3
 72
8
 73
4
 74
0
 40
0
 40
0
 40
0
 40
0
 40
1
 40
1
 40
1
 40
1
 10
114.952639
 20
91.610671
 30
0.0
 10
112.009087
 20
86.086589
 30
0.0
 10
112.039067
 20
81.254913
 30
0.0
 10
115.049653
 20
77.984629
 30
0.0
  0
SPLINE
  5
187
100
AcDbEntity
  8
0
 62
7
100
AcDbSpline
 70
8
 71
3
 72
8
 73
4
 74
0
 40
0
 40
0
 40
0
 40
0
 40
1
 40
1
 40
1
 40
1
 10
115.049653
 20
77.984629
 30
0.0
 10
116.420158
 20
76.495899
 30
0.0
 10
122.363092
 20
71.458241
 30
0.0
 10
122.749028
 20
71.458241
 30
0.0
  0
SPLINE
  5
188
100
AcDbEntity
  8
0
 62
7
100
AcDbSpline
 70
8
 71
3
 72
8
 73
4
 74
0
 40
0
 40
0
 40
0
 40
0
 40
1
 40
1
 40
1
 40
1
 10
122.749028
 20
71.458241
 30
0.0
 10
122.882273
 20
71.458241
 30
0.0
 10
123.342400
 20
71.118868
 30
0.0
 10
123.763264
 20
70.699768
 30
0.0
  0
SPLINE
  5
189
100
AcDbEntity
  8
0
 62
7
100
AcDbSpline
 70
8
 71
3
 72
8
 73
4
 74
0
 40
0
 40
0
 40
0
 40
0
 40
1
 40
1
 40
1
 40
1
 10
123.763264
 20
70.699768
 30
0.0
 10
124.184131
 20
70.280668
 30
0.0
 10
125.251286
 20
69.402604
 30
0.0
 10
126.135694
 20
68.750671
 30
0.0
  0
SPLINE
  5
18a
100
AcDbEntity
  8
0
 62
7
100
AcDbSpline
 70
8
 71
3
 72
8
 73
4
 74
0
 40
0
 40
0
 40
0
 40
0
 40
1
 40
1
 40
1
 40
1
 10
126.135694
 20
68.750671
 30
0.0
 10
127.020103
 20
68.098738
 30
0.0
 10
128.021091
 20
67.295110
 30
0.0
 10
128.367014
 20
66.969143
 30
0.0
  0
SPLINE
  5
18b
100
AcDbEntity
  8
0
 62
7
100
AcDbSpline
 70
8
 71
3
 72
8
 73
4
 74
0
 40
0
 40
0
 40
0
 40
0
 40
1
 40
1
 40
1
 40
1
 10
128.367014
 20
66.969143
 30
0.0
 10
128.712931
 20
66.643177
 30
0.0
 10
129.116867
 20
66.378241
 30
0.0
 10
129.266597
 20
66.378241
 30
0.0
  0
SPLINE
  5
18c
100
AcDbEntity
  8
0
 62
7
100
AcDbSpline
 70
8
 71
3
 72
8
 73
4
 74
0
 40
0
 40
0
 40
0
 40
0
 40
1
 40
1
 40
1
 40
1
 10
129.266597
 20
66.378241
 30
0.0
 10
129.416325
 20
66.378241
 30
0.0
 10
130.013439
 20
65.881177
 30
0.0
 10
130.589514
 20
65.275810
 30
0.0
  0
SPLINE
  5
18d
100
AcDbEntity
  8
0
 62
7
100
AcDbSpline
 70
8
 71
3
 72
8
 73
4
 74
0
 40
0
 40
0
 40
0
 40
0
 40
1
 40
1
 40
1
 40
1
 10
130.589514
 20
65.275810
 30
0.0
 10
132.489329
 20
63.279393
 30
0.0
 10
132.641681
 20
59.394671
 30
0.0
 10
130.845278
 20
58.705324
 30
0.0
  0
SPLINE
  5
18e
100
AcDbEntity
  8
0
 62
7
100
AcDbSpline
 70
8
 71
3
 72
8
 73
4
 74
0
 40
0
 40
0
 40
0
 40
0
 40
1
 40
1
 40
1
 40
1
 10
130.845278
 20
58.705324
 30
0.0
 10
130.575617
 20
58.601847
 30
0.0
 10
130.351389
 20
58.316489
 30
0.0
 10
130.351389
 20
58.070324
 30
0.0
  0
SPLINE
  5
18f
100
AcDbEntity
  8
0
 62
7
100
AcDbSpline
 70
8
 71
3
 72
8
 73
4
 74
0
 40
0
 40
0
 40
0
 40
0
 40
1
 40
1
 40
1
 40
1
 10
130.351389
 20
58.070324
 30
0.0
 10
130.351389
 20
57.824156
 30
0.0
 10
130.147227
 20
57.416364
 30
0.0
 10
129.892778
 20
57.161921
 30
0.0
  0
SPLINE
  5
190
100
AcDbEntity
  8
0
 62
7
100
AcDbSpline
 70
8
 71
3
 72
8
 73
4
 74
0
 40
0
 40
0
 40
0
 40
0
 40
1
 40
1
 40
1
 40
1
 10
129.892778
 20
57.161921
 30
0.0
 10
129.638332
 20
56.907472
 30
0.0
 10
128.721965
 20
55.658238
 30
0.0
 10
127.855486
 20
54.392616
 30
0.0
  0
SPLINE
  5
191
100
AcDbEntity
  8
0
 62
7
100
AcDbSpline
 70
8
 71
3
 72
8
 73
4
 74
0
 40
0
 40
0
 40
0
 40
0
 40
1
 40
1
 40
1
 40
1
 10
127.855486
 20
54.392616
 30
0.0
 10
126.989013
 20
53.126996
 30
0.0
 10
126.050175
 20
51.864108
 30
0.0
 10
125.774097
 20
51.588032
 30
0.0
  0
SPLINE
  5
192
100
AcDbEntity
  8
0
 62
7
100
AcDbSpline
 70
8
 71
3
 72
8
 73
4
 74
0
 40
0
 40
0
 40
0
 40
0
 40
1
 40
1
 40
1
 40
1
 10
125.774097
 20
51.588032
 30
0.0
 10
125.498022
 20
51.311954
 30
0.0
 10
125.271389
 20
50.940863
 30
0.0
 10
125.271389
 20
50.759004
 30
0.0
  0
SPLINE
  5
193
100
AcDbEntity
  8
0
 62
7
100
AcDbSpline
 70
8
 71
3
 72
8
 73
4
 74
0
 40
0
 40
0
 40
0
 40
0
 40
1
 40
1
 40
1
 40
1
 10
125.271389
 20
50.759004
 30
0.0
 10
125.271389
 20
50.577152
 30
0.0
 10
124.890389
 20
50.079320
 30
0.0
 10
124.424722
 20
49.647754
 30
0.0
  0
SPLINE
  5
194
100
AcDbEntity
  8
0
 62
7
100
AcDbSpline
 70
8
 71
3
 72
8
 73
4
 74
0
 40
0
 40
0
 40
0
 40
0
 40
1
 40
1
 40
1
 40
1
 10
124.424722
 20
49.647754
 30
0.0
 10
123.959056
 20
49.216186
 30
0.0
 10
123.578056
 20
48.719562
 30
0.0
 10
123.578056
 20
48.545324
 30
0.0
  0
SPLINE
  5
195
100
AcDbEntity
  8
0
 62
7
100
AcDbSpline
 70
8
 71
3
 72
8
 73
4
 74
0
 40
0
 40
0
 40
0
 40
0
 40
1
 40
1
 40
1
 40
1
 10
123.578056
 20
48.545324
 30
0.0
 10
123.578056
 20
48.371085
 30
0.0
 10
122.816056
 20
47.284572
 30
0.0
 10
121.884722
 20
46.128796
 30
0.0
  0
SPLINE
  5
196
100
AcDbEntity
  8
0
 62
7
100
AcDbSpline
 70
8
 71
3
 72
8
 73
4
 74
0
 40
0
 40
0
 40
0
 40
0
 40
1
 40
1
 40
1
 40
1
 10
121.884722
 20
46.128796
 30
0.0
 10
120.953389
 20
44.973023
 30
0.0
 10
120.191389
 20
43.972455
 30
0.0
 10
120.191389
 20
43.906296
 30
0.0
  0
SPLINE
  5
197
100
AcDbEntity
  8
0
 62
7
100
AcDbSpline
 70
8
 71
3
 72
8
 73
4
 74
0
 40
0
 40
0
 40
0
 40
0
 40
1
 40
1
 40
1
 40
1
 10
120.191389
 20
43.906296
 30
0.0
 10
120.191389
 20
43.728270
 30
0.0
 10
104.547695
 20
28.110671
 30
0.0
 10
104.369306
 20
28.110671
 30
0.0
  0
SPLINE
  5
198
100
AcDbEntity
  8
0
 62
7
100
AcDbSpline
 70
8
 71
3
 72
8
 73
4
 74
0
 40
0
 40
0
 40
0
 40
0
 40
1
 40
1
 40
1
 40
1
 10
104.369306
 20
28.110671
 30
0.0
 10
103.990707
 20
28.110671
 30
0.0
 10
90.071863
 20
13.746819
 30
0.0
 10
86.986181
 20
10.171921
 30
0.0
  0
SPLINE
  5
199
100
AcDbEntity
  8
0
 62
7
100
AcDbSpline
 70
8
 71
3
 72
8
 73
4
 74
0
 40
0
 40
0
 40
0
 40
0
 40
1
 40
1
 40
1
 40
1
 10
86.986181
 20
10.171921
 30
0.0
 10
85.934779
 20
8.953825
 30
0.0
 10
84.592352
 20
7.445598
 30
0.0
 10
84.005208
 20
6.820532
 30
0.0
  0
SPLINE
  5
19a
100
AcDbEntity
  8
0
 62
7
100
AcDbSpline
 70
8
 71
3
 72
8
 73
4
 74
0
 40
0
 40
0
 40
0
 40
0
 40
1
 40
1
 40
1
 40
1
 10
84.005208
 20
6.820532
 30
0.0
 10
83.418068
 20
6.195469
 30
0.0
 10
82.938056
 20
5.593430
 30
0.0
 10
82.938056
 20
5.479977
 30
0.0
  0
SPLINE
  5
19b
100
AcDbEntity
  8
0
 62
7
100
AcDbSpline
 70
8
 71
3
 72
8
 73
4
 74
0
 40
0
 40
0
 40
0
 40
0
 40
1
 40
1
 40
1
 40
1
 10
82.938056
 20
5.479977
 30
0.0
 10
82.938056
 20
5.366526
 30
0.0
 10
82.598683
 20
4.919864
 30
0.0
 10
82.179583
 20
4.483379
 30
0.0
  0
SPLINE
  5
19c
100
AcDbEntity
  8
0
 62
7
100
AcDbSpline
 70
8
 71
3
 72
8
 73
4
 74
0
 40
0
 40
0
 40
0
 40
0
 40
1
 40
1
 40
1
 40
1
 10
82.179583
 20
4.483379
 30
0.0
 10
81.760483
 20
4.046897
 30
0.0
 10
81.023869
 20
3.273809
 30
0.0
 10
80.547986
 20
2.772407
 30
0.0
  0
SPLINE
  5
19d
100
AcDbEntity
  8
0
 62
7
100
AcDbSpline
 70
8
 71
3
 72
8
 73
4
 74
0
 40
0
 40
0
 40
0
 40
0
 40
1
 40
1
 40
1
 40
1
 10
80.547986
 20
2.772407
 30
0.0
 10
80.072106
 20
2.271008
 30
0.0
 10
79.505432
 20
1.441377
 30
0.0
 10
79.286806
 20
0.929143
 30
0.0
  0
LWPOLYLINE
  5
19e
100
AcDbEntity
  8
0
 62
7
100
AcDbPolyline
 90
3
 70
0
 10
113.859028
 20
109.293657
 30
0.0
 10
113.638542
 20
108.217685
 30
0.0
 10
114.573403
 20
108.826227
 30
0.0
  0
SPLINE
  5
19f
100
AcDbEntity
  8
0
 62
7
100
AcDbSpline
 70
8
 71
3
 72
8
 73
4
 74
0
 40
0
 40
0
 40
0
 40
0
 40
1
 40
1
 40
1
 40
1
 10
184.088264
 20
1.608241
 30
0.0
 10
183.508613
 20
6.332849
 30
0.0
 10
183.132408
 20
8.536480
 30
0.0
 10
182.518403
 20
10.833379
 30
0.0
  0
SPLINE
  5
1a0
100
AcDbEntity
  8
0
 62
7
100
AcDbSpline
 70
8
 71
3
 72
8
 73
4
 74
0
 40
0
 40
0
 40
0
 40
0
 40
1
 40
1
 40
1
 40
1
 10
182.518403
 20
10.833379
 30
0.0
 10
182.144955
 20
12.230379
 30
0.0
 10
181.842354
 20
13.787981
 30
0.0
 10
181.839306
 20
14.290602
 30
0.0
  0
SPLINE
  5
1a1
100
AcDbEntity
  8
0
 62
7
100
AcDbSpline
 70
8
 71
3
 72
8
 73
4
 74
0
 40
0
 40
0
 40
0
 40
0
 40
1
 40
1
 40
1
 40
1
 10
181.839306
 20
14.290602
 30
0.0
 10
181.836111
 20
14.793220
 30
0.0
 10
181.467080
 20
16.391656
 30
0.0
 10
181.019097
 20
17.844838
 30
0.0
  0
SPLINE
  5
1a2
100
AcDbEntity
  8
0
 62
7
100
AcDbSpline
 70
8
 71
3
 72
8
 73
4
 74
0
 40
0
 40
0
 40
0
 40
0
 40
1
 40
1
 40
1
 40
1
 10
181.019097
 20
17.844838
 30
0.0
 10
180.571117
 20
19.298017
 30
0.0
 10
180.125551
 20
20.946107
 30
0.0
 10
180.031319
 20
21.504907
 30
0.0
  0
SPLINE
  5
1a3
100
AcDbEntity
  8
0
 62
7
100
AcDbSpline
 70
8
 71
3
 72
8
 73
4
 74
0
 40
0
 40
0
 40
0
 40
0
 40
1
 40
1
 40
1
 40
1
 10
180.031319
 20
21.504907
 30
0.0
 10
179.937094
 20
22.063707
 30
0.0
 10
179.584483
 20
23.479732
 30
0.0
 10
179.246389
 20
24.653449
 30
0.0
  0
SPLINE
  5
1a4
100
AcDbEntity
  8
0
 62
7
100
AcDbSpline
 70
8
 71
3
 72
8
 73
4
 74
0
 40
0
 40
0
 40
0
 40
0
 40
1
 40
1
 40
1
 40
1
 10
179.246389
 20
24.653449
 30
0.0
 10
178.520824
 20
27.172291
 30
0.0
 10
178.797938
 20
27.592367
 30
0.0
 10
180.754514
 20
26.893588
 30
0.0
  0
SPLINE
  5
1a5
100
AcDbEntity
  8
0
 62
7
100
AcDbSpline
 70
8
 71
3
 72
8
 73
4
 74
0
 40
0
 40
0
 40
0
 40
0
 40
1
 40
1
 40
1
 40
1
 10
180.754514
 20
26.893588
 30
0.0
 10
182.280063
 20
26.348752
 30
0.0
 10
183.688428
 20
26.301248
 30
0.0
 10
184.564514
 20
26.770116
 30
0.0
  0
SPLINE
  5
1a6
100
AcDbEntity
  8
0
 62
7
100
AcDbSpline
 70
8
 71
3
 72
8
 73
4
 74
0
 40
0
 40
0
 40
0
 40
0
 40
1
 40
1
 40
1
 40
1
 10
184.564514
 20
26.770116
 30
0.0
 10
185.198032
 20
27.109163
 30
0.0
 10
185.178059
 20
27.225315
 30
0.0
 10
183.929514
 20
29.565879
 30
0.0
  0
SPLINE
  5
1a7
100
AcDbEntity
  8
0
 62
7
100
AcDbSpline
 70
8
 71
3
 72
8
 73
4
 74
0
 40
0
 40
0
 40
0
 40
0
 40
1
 40
1
 40
1
 40
1
 10
183.929514
 20
29.565879
 30
0.0
 10
181.998428
 20
33.185958
 30
0.0
 10
181.141370
 20
34.649599
 30
0.0
 10
180.613403
 20
35.245602
 30
0.0
  0
SPLINE
  5
1a8
100
AcDbEntity
  8
0
 62
7
100
AcDbSpline
 70
8
 71
3
 72
8
 73
4
 74
0
 40
0
 40
0
 40
0
 40
0
 40
1
 40
1
 40
1
 40
1
 10
180.613403
 20
35.245602
 30
0.0
 10
180.352903
 20
35.539669
 30
0.0
 10
180.137153
 20
35.893070
 30
0.0
 10
180.137153
 20
36.030532
 30
0.0
  0
SPLINE
  5
1a9
100
AcDbEntity
  8
0
 62
7
100
AcDbSpline
 70
8
 71
3
 72
8
 73
4
 74
0
 40
0
 40
0
 40
0
 40
0
 40
1
 40
1
 40
1
 40
1
 10
180.137153
 20
36.030532
 30
0.0
 10
180.137153
 20
36.397373
 30
0.0
 10
177.425336
 20
40.003798
 30
0.0
 10
175.780347
 20
41.824907
 30
0.0
  0
SPLINE
  5
1aa
100
AcDbEntity
  8
0
 62
7
100
AcDbSpline
 70
8
 71
3
 72
8
 73
4
 74
0
 40
0
 40
0
 40
0
 40
0
 40
1
 40
1
 40
1
 40
1
 10
175.780347
 20
41.824907
 30
0.0
 10
174.004046
 20
43.791392
 30
0.0
 10
172.306138
 20
46.077068
 30
0.0
 10
171.494097
 20
47.584004
 30
0.0
  0
SPLINE
  5
1ab
100
AcDbEntity
  8
0
 62
7
100
AcDbSpline
 70
8
 71
3
 72
8
 73
4
 74
0
 40
0
 40
0
 40
0
 40
0
 40
1
 40
1
 40
1
 40
1
 10
171.494097
 20
47.584004
 30
0.0
 10
167.873779
 20
54.302358
 30
0.0
 10
168.149846
 20
53.279985
 30
0.0
 10
168.839444
 20
57.179560
 30
0.0
  0
SPLINE
  5
1ac
100
AcDbEntity
  8
0
 62
7
100
AcDbSpline
 70
8
 71
3
 72
8
 73
4
 74
0
 40
0
 40
0
 40
0
 40
0
 40
1
 40
1
 40
1
 40
1
 10
168.839444
 20
57.179560
 30
0.0
 10
169.099766
 20
58.651628
 30
0.0
 10
168.608827
 20
59.528936
 30
0.0
 10
166.052500
 20
62.136088
 30
0.0
  0
LWPOLYLINE
  5
1ad
100
AcDbEntity
  8
0
 62
7
100
AcDbPolyline
 90
5
 70
0
 10
79.286806
 20
0.929143
 30
0.0
 10
78.889931
 20
0.003102
 30
0.0
 10
131.586111
 20
0.003102
 30
0.0
 10
184.291111
 20
0.003102
 30
0.0
 10
184.088264
 20
1.608241
 30
0.0
  0
SPLINE
  5
1ae
100
AcDbEntity
  8
0
 62
7
100
AcDbSpline
 70
8
 71
3
 72
8
 73
4
 74
0
 40
0
 40
0
 40
0
 40
0
 40
1
 40
1
 40
1
 40
1
 10
163.962292
 20
68.106852
 30
0.0
 10
163.952315
 20
71.131574
 30
0.0
 10
164.072090
 20
72.152202
 30
0.0
 10
164.509097
 20
72.816435
 30
0.0
  0
SPLINE
  5
1af
100
AcDbEntity
  8
0
 62
7
100
AcDbSpline
 70
8
 71
3
 72
8
 73
4
 74
0
 40
0
 40
0
 40
0
 40
0
 40
1
 40
1
 40
1
 40
1
 10
164.509097
 20
72.816435
 30
0.0
 10
164.905013
 20
73.418209
 30
0.0
 10
165.064158
 20
74.416979
 30
0.0
 10
165.064722
 20
76.282477
 30
0.0
  0
SPLINE
  5
1b0
100
AcDbEntity
  8
0
 62
7
100
AcDbSpline
 70
8
 71
3
 72
8
 73
4
 74
0
 40
0
 40
0
 40
0
 40
0
 40
1
 40
1
 40
1
 40
1
 10
165.064722
 20
76.282477
 30
0.0
 10
165.065239
 20
77.726043
 30
0.0
 10
165.146428
 20
78.910671
 30
0.0
 10
165.249931
 20
78.910671
 30
0.0
  0
SPLINE
  5
1b1
100
AcDbEntity
  8
0
 62
7
100
AcDbSpline
 70
8
 71
3
 72
8
 73
4
 74
0
 40
0
 40
0
 40
0
 40
0
 40
1
 40
1
 40
1
 40
1
 10
165.249931
 20
78.910671
 30
0.0
 10
165.353438
 20
78.910671
 30
0.0
 10
166.764067
 20
78.371979
 30
0.0
 10
168.380833
 20
77.720046
 30
0.0
  0
SPLINE
  5
1b2
100
AcDbEntity
  8
0
 62
7
100
AcDbSpline
 70
8
 71
3
 72
8
 73
4
 74
0
 40
0
 40
0
 40
0
 40
0
 40
1
 40
1
 40
1
 40
1
 10
168.380833
 20
77.720046
 30
0.0
 10
172.070245
 20
76.232354
 30
0.0
 10
174.357614
 20
76.152268
 30
0.0
 10
177.632431
 20
77.384907
 30
0.0
  0
SPLINE
  5
1b3
100
AcDbEntity
  8
0
 62
7
100
AcDbSpline
 70
8
 71
3
 72
8
 73
4
 74
0
 40
0
 40
0
 40
0
 40
0
 40
1
 40
1
 40
1
 40
1
 10
177.632431
 20
77.384907
 30
0.0
 10
178.869591
 20
77.850574
 30
0.0
 10
180.090685
 20
78.231574
 30
0.0
 10
180.348819
 20
78.231574
 30
0.0
  0
SPLINE
  5
1b4
100
AcDbEntity
  8
0
 62
7
100
AcDbSpline
 70
8
 71
3
 72
8
 73
4
 74
0
 40
0
 40
0
 40
0
 40
0
 40
1
 40
1
 40
1
 40
1
 10
180.348819
 20
78.231574
 30
0.0
 10
180.606960
 20
78.231574
 30
0.0
 10
181.606038
 20
78.612574
 30
0.0
 10
182.571319
 20
79.078241
 30
0.0
  0
SPLINE
  5
1b5
100
AcDbEntity
  8
0
 62
7
100
AcDbSpline
 70
8
 71
3
 72
8
 73
4
 74
0
 40
0
 40
0
 40
0
 40
0
 40
1
 40
1
 40
1
 40
1
 10
182.571319
 20
79.078241
 30
0.0
 10
183.536598
 20
79.543907
 30
0.0
 10
184.445086
 20
79.924907
 30
0.0
 10
184.590972
 20
79.924907
 30
0.0
  0
SPLINE
  5
1b6
100
AcDbEntity
  8
0
 62
7
100
AcDbSpline
 70
8
 71
3
 72
8
 73
4
 74
0
 40
0
 40
0
 40
0
 40
0
 40
1
 40
1
 40
1
 40
1
 10
184.590972
 20
79.924907
 30
0.0
 10
184.736859
 20
79.924907
 30
0.0
 10
185.689587
 20
80.305907
 30
0.0
 10
186.707639
 20
80.771574
 30
0.0
  0
SPLINE
  5
1b7
100
AcDbEntity
  8
0
 62
7
100
AcDbSpline
 70
8
 71
3
 72
8
 73
4
 74
0
 40
0
 40
0
 40
0
 40
0
 40
1
 40
1
 40
1
 40
1
 10
186.707639
 20
80.771574
 30
0.0
 10
187.725688
 20
81.237241
 30
0.0
 10
188.718424
 20
81.618241
 30
0.0
 10
188.912500
 20
81.618241
 30
0.0
  0
SPLINE
  5
1b8
100
AcDbEntity
  8
0
 62
7
100
AcDbSpline
 70
8
 71
3
 72
8
 73
4
 74
0
 40
0
 40
0
 40
0
 40
0
 40
1
 40
1
 40
1
 40
1
 10
188.912500
 20
81.618241
 30
0.0
 10
189.106579
 20
81.618241
 30
0.0
 10
190.073596
 20
81.984413
 30
0.0
 10
191.055625
 20
82.429629
 30
0.0
  0
SPLINE
  5
1b9
100
AcDbEntity
  8
0
 62
7
100
AcDbSpline
 70
8
 71
3
 72
8
 73
4
 74
0
 40
0
 40
0
 40
0
 40
0
 40
1
 40
1
 40
1
 40
1
 10
191.055625
 20
82.429629
 30
0.0
 10
192.037651
 20
82.874849
 30
0.0
 10
193.831281
 20
83.656260
 30
0.0
 10
195.042014
 20
84.167060
 30
0.0
  0
SPLINE
  5
1ba
100
AcDbEntity
  8
0
 62
7
100
AcDbSpline
 70
8
 71
3
 72
8
 73
4
 74
0
 40
0
 40
0
 40
0
 40
0
 40
1
 40
1
 40
1
 40
1
 10
195.042014
 20
84.167060
 30
0.0
 10
196.252747
 20
84.677865
 30
0.0
 10
198.026949
 20
85.454693
 30
0.0
 10
198.993125
 20
85.895671
 30
0.0
  0
SPLINE
  5
1bb
100
AcDbEntity
  8
0
 62
7
100
AcDbSpline
 70
8
 71
3
 72
8
 73
4
 74
0
 40
0
 40
0
 40
0
 40
0
 40
1
 40
1
 40
1
 40
1
 10
198.993125
 20
85.895671
 30
0.0
 10
199.959301
 20
86.336649
 30
0.0
 10
200.895447
 20
86.698241
 30
0.0
 10
201.065694
 20
86.698241
 30
0.0
  0
SPLINE
  5
1bc
100
AcDbEntity
  8
0
 62
7
100
AcDbSpline
 70
8
 71
3
 72
8
 73
4
 74
0
 40
0
 40
0
 40
0
 40
0
 40
1
 40
1
 40
1
 40
1
 10
201.065694
 20
86.698241
 30
0.0
 10
201.235945
 20
86.698241
 30
0.0
 10
202.086075
 20
87.079241
 30
0.0
 10
202.961875
 20
87.544907
 30
0.0
  0
SPLINE
  5
1bd
100
AcDbEntity
  8
0
 62
7
100
AcDbSpline
 70
8
 71
3
 72
8
 73
4
 74
0
 40
0
 40
0
 40
0
 40
0
 40
1
 40
1
 40
1
 40
1
 10
202.961875
 20
87.544907
 30
0.0
 10
203.837670
 20
88.010574
 30
0.0
 10
204.704400
 20
88.391574
 30
0.0
 10
204.884514
 20
88.391574
 30
0.0
  0
SPLINE
  5
1be
100
AcDbEntity
  8
0
 62
7
100
AcDbSpline
 70
8
 71
3
 72
8
 73
4
 74
0
 40
0
 40
0
 40
0
 40
0
 40
1
 40
1
 40
1
 40
1
 10
204.884514
 20
88.391574
 30
0.0
 10
205.064622
 20
88.391574
 30
0.0
 10
205.813725
 20
88.772574
 30
0.0
 10
206.551389
 20
89.238241
 30
0.0
  0
SPLINE
  5
1bf
100
AcDbEntity
  8
0
 62
7
100
AcDbSpline
 70
8
 71
3
 72
8
 73
4
 74
0
 40
0
 40
0
 40
0
 40
0
 40
1
 40
1
 40
1
 40
1
 10
206.551389
 20
89.238241
 30
0.0
 10
207.289053
 20
89.703907
 30
0.0
 10
208.055616
 20
90.084907
 30
0.0
 10
208.253542
 20
90.084907
 30
0.0
  0
SPLINE
  5
1c0
100
AcDbEntity
  8
0
 62
7
100
AcDbSpline
 70
8
 71
3
 72
8
 73
4
 74
0
 40
0
 40
0
 40
0
 40
0
 40
1
 40
1
 40
1
 40
1
 10
208.253542
 20
90.084907
 30
0.0
 10
208.857650
 20
90.084907
 30
0.0
 10
212.192639
 20
92.702696
 30
0.0
 10
214.427153
 20
94.926782
 30
0.0
  0
SPLINE
  5
1c1
100
AcDbEntity
  8
0
 62
7
100
AcDbSpline
 70
8
 71
3
 72
8
 73
4
 74
0
 40
0
 40
0
 40
0
 40
0
 40
1
 40
1
 40
1
 40
1
 10
214.427153
 20
94.926782
 30
0.0
 10
217.040672
 20
97.528103
 30
0.0
 10
218.008462
 20
98.807809
 30
0.0
 10
219.604167
 20
101.797129
 30
0.0
  0
SPLINE
  5
1c2
100
AcDbEntity
  8
0
 62
7
100
AcDbSpline
 70
8
 71
3
 72
8
 73
4
 74
0
 40
0
 40
0
 40
0
 40
0
 40
1
 40
1
 40
1
 40
1
 10
219.604167
 20
101.797129
 30
0.0
 10
220.291987
 20
103.085649
 30
0.0
 10
220.970752
 20
104.262733
 30
0.0
 10
221.112292
 20
104.416504
 30
0.0
  0
SPLINE
  5
1c3
100
AcDbEntity
  8
0
 62
7
100
AcDbSpline
 70
8
 71
3
 72
8
 73
4
 74
0
 40
0
 40
0
 40
0
 40
0
 40
1
 40
1
 40
1
 40
1
 10
221.112292
 20
104.416504
 30
0.0
 10
221.253829
 20
104.570279
 30
0.0
 10
222.573602
 20
104.474741
 30
0.0
 10
224.040347
 20
104.196018
 30
0.0
  0
SPLINE
  5
1c4
100
AcDbEntity
  8
0
 62
7
100
AcDbSpline
 70
8
 71
3
 72
8
 73
4
 74
0
 40
0
 40
0
 40
0
 40
0
 40
1
 40
1
 40
1
 40
1
 10
224.040347
 20
104.196018
 30
0.0
 10
225.507096
 20
103.917296
 30
0.0
 10
228.989819
 20
103.275886
 30
0.0
 10
231.783819
 20
102.776088
 30
0.0
  0
SPLINE
  5
1c5
100
AcDbEntity
  8
0
 62
7
100
AcDbSpline
 70
8
 71
3
 72
8
 73
4
 74
0
 40
0
 40
0
 40
0
 40
0
 40
1
 40
1
 40
1
 40
1
 10
231.783819
 20
102.776088
 30
0.0
 10
234.577819
 20
102.276289
 30
0.0
 10
238.576327
 20
101.502585
 30
0.0
 10
240.665000
 20
101.056296
 30
0.0
  0
SPLINE
  5
1c6
100
AcDbEntity
  8
0
 62
7
100
AcDbSpline
 70
8
 71
3
 72
8
 73
4
 74
0
 40
0
 40
0
 40
0
 40
0
 40
1
 40
1
 40
1
 40
1
 10
240.665000
 20
101.056296
 30
0.0
 10
242.753673
 20
100.610012
 30
0.0
 10
244.797814
 20
100.244907
 30
0.0
 10
245.207014
 20
100.244907
 30
0.0
  0
SPLINE
  5
1c7
100
AcDbEntity
  8
0
 62
7
100
AcDbSpline
 70
8
 71
3
 72
8
 73
4
 74
0
 40
0
 40
0
 40
0
 40
0
 40
1
 40
1
 40
1
 40
1
 10
245.207014
 20
100.244907
 30
0.0
 10
245.616219
 20
100.244907
 30
0.0
 10
247.564839
 20
99.870810
 30
0.0
 10
249.537361
 20
99.415879
 30
0.0
  0
SPLINE
  5
1c8
100
AcDbEntity
  8
0
 62
7
100
AcDbSpline
 70
8
 71
3
 72
8
 73
4
 74
0
 40
0
 40
0
 40
0
 40
0
 40
1
 40
1
 40
1
 40
1
 10
249.537361
 20
99.415879
 30
0.0
 10
256.651794
 20
97.775042
 30
0.0
 10
264.244396
 20
96.213730
 30
0.0
 10
265.227153
 20
96.187963
 30
0.0
  0
SPLINE
  5
1c9
100
AcDbEntity
  8
0
 62
7
100
AcDbSpline
 70
8
 71
3
 72
8
 73
4
 74
0
 40
0
 40
0
 40
0
 40
0
 40
1
 40
1
 40
1
 40
1
 10
265.227153
 20
96.187963
 30
0.0
 10
265.366853
 20
96.184299
 30
0.0
 10
265.482917
 20
98.316271
 30
0.0
 10
265.482917
 20
100.924004
 30
0.0
  0
SPLINE
  5
1ca
100
AcDbEntity
  8
0
 62
7
100
AcDbSpline
 70
8
 71
3
 72
8
 73
4
 74
0
 40
0
 40
0
 40
0
 40
0
 40
1
 40
1
 40
1
 40
1
 10
265.482917
 20
100.924004
 30
0.0
 10
265.482917
 20
104.951956
 30
0.0
 10
265.402308
 20
105.660046
 30
0.0
 10
264.962569
 20
105.660046
 30
0.0
  0
SPLINE
  5
1cb
100
AcDbEntity
  8
0
 62
7
100
AcDbSpline
 70
8
 71
3
 72
8
 73
4
 74
0
 40
0
 40
0
 40
0
 40
0
 40
1
 40
1
 40
1
 40
1
 10
264.962569
 20
105.660046
 30
0.0
 10
263.653834
 20
105.660046
 30
0.0
 10
254.172235
 20
106.748842
 30
0.0
 10
251.592292
 20
107.194629
 30
0.0
  0
SPLINE
  5
1cc
100
AcDbEntity
  8
0
 62
7
100
AcDbSpline
 70
8
 71
3
 72
8
 73
4
 74
0
 40
0
 40
0
 40
0
 40
0
 40
1
 40
1
 40
1
 40
1
 10
251.592292
 20
107.194629
 30
0.0
 10
250.009025
 20
107.468202
 30
0.0
 10
248.014958
 20
107.696773
 30
0.0
 10
247.156111
 20
107.697338
 30
0.0
  0
SPLINE
  5
1cd
100
AcDbEntity
  8
0
 62
7
100
AcDbSpline
 70
8
 71
3
 72
8
 73
4
 74
0
 40
0
 40
0
 40
0
 40
0
 40
1
 40
1
 40
1
 40
1
 10
247.156111
 20
107.697338
 30
0.0
 10
246.297264
 20
107.697930
 30
0.0
 10
243.630264
 20
108.004271
 30
0.0
 10
241.229444
 20
108.385254
 30
0.0
  0
SPLINE
  5
1ce
100
AcDbEntity
  8
0
 62
7
100
AcDbSpline
 70
8
 71
3
 72
8
 73
4
 74
0
 40
0
 40
0
 40
0
 40
0
 40
1
 40
1
 40
1
 40
1
 10
241.229444
 20
108.385254
 30
0.0
 10
238.828625
 20
108.766237
 30
0.0
 10
235.339819
 20
109.231184
 30
0.0
 10
233.477153
 20
109.417129
 30
0.0
  0
SPLINE
  5
1cf
100
AcDbEntity
  8
0
 62
7
100
AcDbSpline
 70
8
 71
3
 72
8
 73
4
 74
0
 40
0
 40
0
 40
0
 40
0
 40
1
 40
1
 40
1
 40
1
 10
233.477153
 20
109.417129
 30
0.0
 10
227.770430
 20
109.986812
 30
0.0
 10
222.428429
 20
111.149548
 30
0.0
 10
221.994236
 20
111.913032
 30
0.0
  0
SPLINE
  5
1d0
100
AcDbEntity
  8
0
 62
7
100
AcDbSpline
 70
8
 71
3
 72
8
 73
4
 74
0
 40
0
 40
0
 40
0
 40
0
 40
1
 40
1
 40
1
 40
1
 10
221.994236
 20
111.913032
 30
0.0
 10
221.787991
 20
112.275685
 30
0.0
 10
221.276187
 20
112.955733
 30
0.0
 10
220.856528
 20
113.429977
 30
0.0
  0
SPLINE
  5
1d1
100
AcDbEntity
  8
0
 62
7
100
AcDbSpline
 70
8
 71
3
 72
8
 73
4
 74
0
 40
0
 40
0
 40
0
 40
0
 40
1
 40
1
 40
1
 40
1
 10
220.856528
 20
113.429977
 30
0.0
 10
220.244320
 20
114.121813
 30
0.0
 10
219.981876
 20
114.224743
 30
0.0
 10
219.507153
 20
113.932685
 30
0.0
  0
SPLINE
  5
1d2
100
AcDbEntity
  8
0
 62
7
100
AcDbSpline
 70
8
 71
3
 72
8
 73
4
 74
0
 40
0
 40
0
 40
0
 40
0
 40
1
 40
1
 40
1
 40
1
 10
219.507153
 20
113.932685
 30
0.0
 10
219.181745
 20
113.732485
 30
0.0
 10
218.764982
 20
113.234120
 30
0.0
 10
218.581111
 20
112.830254
 30
0.0
  0
SPLINE
  5
1d3
100
AcDbEntity
  8
0
 62
7
100
AcDbSpline
 70
8
 71
3
 72
8
 73
4
 74
0
 40
0
 40
0
 40
0
 40
0
 40
1
 40
1
 40
1
 40
1
 10
218.581111
 20
112.830254
 30
0.0
 10
218.115106
 20
111.806685
 30
0.0
 10
217.843252
 20
111.908153
 30
0.0
 10
217.390486
 20
113.280046
 30
0.0
  0
SPLINE
  5
1d4
100
AcDbEntity
  8
0
 62
7
100
AcDbSpline
 70
8
 71
3
 72
8
 73
4
 74
0
 40
0
 40
0
 40
0
 40
0
 40
1
 40
1
 40
1
 40
1
 10
217.390486
 20
113.280046
 30
0.0
 10
217.005391
 20
114.446891
 30
0.0
 10
216.656037
 20
114.643924
 30
0.0
 10
215.123889
 20
114.514768
 30
0.0
  0
SPLINE
  5
1d5
100
AcDbEntity
  8
0
 62
7
100
AcDbSpline
 70
8
 71
3
 72
8
 73
4
 74
0
 40
0
 40
0
 40
0
 40
0
 40
1
 40
1
 40
1
 40
1
 10
215.123889
 20
114.514768
 30
0.0
 10
214.684322
 20
114.477715
 30
0.0
 10
214.231378
 20
114.722252
 30
0.0
 10
214.021458
 20
115.114491
 30
0.0
  0
SPLINE
  5
1d6
100
AcDbEntity
  8
0
 62
7
100
AcDbSpline
 70
8
 71
3
 72
8
 73
4
 74
0
 40
0
 40
0
 40
0
 40
0
 40
1
 40
1
 40
1
 40
1
 10
214.021458
 20
115.114491
 30
0.0
 10
213.458428
 20
116.166522
 30
0.0
 10
212.427978
 20
116.307418
 30
0.0
 10
211.375625
 20
115.476088
 30
0.0
  0
SPLINE
  5
1d7
100
AcDbEntity
  8
0
 62
7
100
AcDbSpline
 70
8
 71
3
 72
8
 73
4
 74
0
 40
0
 40
0
 40
0
 40
0
 40
1
 40
1
 40
1
 40
1
 10
211.375625
 20
115.476088
 30
0.0
 10
210.493641
 20
114.779349
 30
0.0
 10
210.445694
 20
114.777221
 30
0.0
 10
210.352569
 20
115.379074
 30
0.0
  0
SPLINE
  5
1d8
100
AcDbEntity
  8
0
 62
7
100
AcDbSpline
 70
8
 71
3
 72
8
 73
4
 74
0
 40
0
 40
0
 40
0
 40
0
 40
1
 40
1
 40
1
 40
1
 10
210.352569
 20
115.379074
 30
0.0
 10
210.298572
 20
115.728019
 30
0.0
 10
209.814962
 20
116.203005
 30
0.0
 10
209.285417
 20
116.437407
 30
0.0
  0
SPLINE
  5
1d9
100
AcDbEntity
  8
0
 62
7
100
AcDbSpline
 70
8
 71
3
 72
8
 73
4
 74
0
 40
0
 40
0
 40
0
 40
0
 40
1
 40
1
 40
1
 40
1
 10
209.285417
 20
116.437407
 30
0.0
 10
208.115814
 20
116.955124
 30
0.0
 10
206.857445
 20
116.498209
 30
0.0
 10
206.366181
 20
115.379074
 30
0.0
  0
SPLINE
  5
1da
100
AcDbEntity
  8
0
 62
7
100
AcDbSpline
 70
8
 71
3
 72
8
 73
4
 74
0
 40
0
 40
0
 40
0
 40
0
 40
1
 40
1
 40
1
 40
1
 10
206.366181
 20
115.379074
 30
0.0
 10
205.970460
 20
114.477594
 30
0.0
 10
204.792351
 20
114.254156
 30
0.0
 10
204.099583
 20
114.946921
 30
0.0
  0
SPLINE
  5
1db
100
AcDbEntity
  8
0
 62
7
100
AcDbSpline
 70
8
 71
3
 72
8
 73
4
 74
0
 40
0
 40
0
 40
0
 40
0
 40
1
 40
1
 40
1
 40
1
 10
204.099583
 20
114.946921
 30
0.0
 10
203.819469
 20
115.227041
 30
0.0
 10
203.180479
 20
115.553236
 30
0.0
 10
202.679653
 20
115.678935
 30
0.0
  0
SPLINE
  5
1dc
100
AcDbEntity
  8
0
 62
7
100
AcDbSpline
 70
8
 71
3
 72
8
 73
4
 74
0
 40
0
 40
0
 40
0
 40
0
 40
1
 40
1
 40
1
 40
1
 10
202.679653
 20
115.678935
 30
0.0
 10
201.973984
 20
115.856044
 30
0.0
 10
201.650436
 20
115.742875
 30
0.0
 10
201.259722
 20
115.185046
 30
0.0
  0
SPLINE
  5
1dd
100
AcDbEntity
  8
0
 62
7
100
AcDbSpline
 70
8
 71
3
 72
8
 73
4
 74
0
 40
0
 40
0
 40
0
 40
0
 40
1
 40
1
 40
1
 40
1
 10
201.259722
 20
115.185046
 30
0.0
 10
200.613823
 20
114.262899
 30
0.0
 10
199.951258
 20
114.276415
 30
0.0
 10
194.539306
 20
115.308518
 30
0.0
  0
SPLINE
  5
1de
100
AcDbEntity
  8
0
 62
7
100
AcDbSpline
 70
8
 71
3
 72
8
 73
4
 74
0
 40
0
 40
0
 40
0
 40
0
 40
1
 40
1
 40
1
 40
1
 10
194.539306
 20
115.308518
 30
0.0
 10
192.111582
 20
115.771504
 30
0.0
 10
187.843583
 20
116.552012
 30
0.0
 10
185.049583
 20
117.037129
 30
0.0
  0
SPLINE
  5
1df
100
AcDbEntity
  8
0
 62
7
100
AcDbSpline
 70
8
 71
3
 72
8
 73
4
 74
0
 40
0
 40
0
 40
0
 40
0
 40
1
 40
1
 40
1
 40
1
 10
185.049583
 20
117.037129
 30
0.0
 10
162.646174
 20
120.926981
 30
0.0
 10
162.382728
 20
120.992130
 30
0.0
 10
161.175347
 20
122.972616
 30
0.0
  0
SPLINE
  5
1e0
100
AcDbEntity
  8
0
 62
7
100
AcDbSpline
 70
8
 71
3
 72
8
 73
4
 74
0
 40
0
 40
0
 40
0
 40
0
 40
1
 40
1
 40
1
 40
1
 10
161.175347
 20
122.972616
 30
0.0
 10
160.261704
 20
124.471278
 30
0.0
 10
158.414153
 20
126.092272
 30
0.0
 10
157.188958
 20
126.473935
 30
0.0
  0
SPLINE
  5
1e1
100
AcDbEntity
  8
0
 62
7
100
AcDbSpline
 70
8
 71
3
 72
8
 73
4
 74
0
 40
0
 40
0
 40
0
 40
0
 40
1
 40
1
 40
1
 40
1
 10
157.188958
 20
126.473935
 30
0.0
 10
156.769858
 20
126.604491
 30
0.0
 10
156.430486
 20
126.831677
 30
0.0
 10
156.430486
 20
126.985463
 30
0.0
  0
SPLINE
  5
1e2
100
AcDbEntity
  8
0
 62
7
100
AcDbSpline
 70
8
 71
3
 72
8
 73
4
 74
0
 40
0
 40
0
 40
0
 40
0
 40
1
 40
1
 40
1
 40
1
 10
156.430486
 20
126.985463
 30
0.0
 10
156.430486
 20
127.388414
 30
0.0
 10
155.638238
 20
127.642208
 30
0.0
 10
152.108958
 20
128.370116
 30
0.0
  0
SPLINE
  5
1e3
100
AcDbEntity
  8
0
 62
7
100
AcDbSpline
 70
8
 71
3
 72
8
 73
4
 74
0
 40
0
 40
0
 40
0
 40
0
 40
1
 40
1
 40
1
 40
1
 10
152.108958
 20
128.370116
 30
0.0
 10
148.822159
 20
129.048013
 30
0.0
 10
147.654030
 20
129.513940
 30
0.0
 10
146.305764
 20
130.689629
 30
0.0
  0
SPLINE
  5
1e4
100
AcDbEntity
  8
0
 62
7
100
AcDbSpline
 70
8
 71
3
 72
8
 73
4
 74
0
 40
0
 40
0
 40
0
 40
0
 40
1
 40
1
 40
1
 40
1
 10
146.305764
 20
130.689629
 30
0.0
 10
145.858162
 20
131.079934
 30
0.0
 10
145.293740
 20
131.404004
 30
0.0
 10
145.053403
 20
131.404004
 30
0.0
  0
SPLINE
  5
1e5
100
AcDbEntity
  8
0
 62
7
100
AcDbSpline
 70
8
 71
3
 72
8
 73
4
 74
0
 40
0
 40
0
 40
0
 40
0
 40
1
 40
1
 40
1
 40
1
 10
145.053403
 20
131.404004
 30
0.0
 10
144.356582
 20
131.404004
 30
0.0
 10
143.562917
 20
132.808379
 30
0.0
 10
143.562917
 20
134.041018
 30
0.0
  0
SPLINE
  5
1e6
100
AcDbEntity
  8
0
 62
7
100
AcDbSpline
 70
8
 71
3
 72
8
 73
4
 74
0
 40
0
 40
0
 40
0
 40
0
 40
1
 40
1
 40
1
 40
1
 10
143.562917
 20
134.041018
 30
0.0
 10
143.562917
 20
135.037463
 30
0.0
 10
143.643265
 20
135.147854
 30
0.0
 10
144.268472
 20
134.949421
 30
0.0
  0
SPLINE
  5
1e7
100
AcDbEntity
  8
0
 62
7
100
AcDbSpline
 70
8
 71
3
 72
8
 73
4
 74
0
 40
0
 40
0
 40
0
 40
0
 40
1
 40
1
 40
1
 40
1
 10
144.268472
 20
134.949421
 30
0.0
 10
144.891819
 20
134.751580
 30
0.0
 10
144.949421
 20
134.816266
 30
0.0
 10
144.727083
 20
135.513866
 30
0.0
  0
SPLINE
  5
1e8
100
AcDbEntity
  8
0
 62
7
100
AcDbSpline
 70
8
 71
3
 72
8
 73
4
 74
0
 40
0
 40
0
 40
0
 40
0
 40
1
 40
1
 40
1
 40
1
 10
144.727083
 20
135.513866
 30
0.0
 10
144.152899
 20
137.315408
 30
0.0
 10
144.501382
 20
137.624270
 30
0.0
 10
146.446875
 20
137.004352
 30
0.0
  0
SPLINE
  5
1e9
100
AcDbEntity
  8
0
 62
7
100
AcDbSpline
 70
8
 71
3
 72
8
 73
4
 74
0
 40
0
 40
0
 40
0
 40
0
 40
1
 40
1
 40
1
 40
1
 10
146.446875
 20
137.004352
 30
0.0
 10
146.878099
 20
136.866949
 30
0.0
 10
147.416557
 20
137.007989
 30
0.0
 10
147.884444
 20
137.392407
 30
0.0
  0
SPLINE
  5
1ea
100
AcDbEntity
  8
0
 62
7
100
AcDbSpline
 70
8
 71
3
 72
8
 73
4
 74
0
 40
0
 40
0
 40
0
 40
0
 40
1
 40
1
 40
1
 40
1
 10
147.884444
 20
137.392407
 30
0.0
 10
148.294542
 20
137.729338
 30
0.0
 10
149.011516
 20
138.283648
 30
0.0
 10
149.480764
 20
138.618310
 30
0.0
  0
SPLINE
  5
1eb
100
AcDbEntity
  8
0
 62
7
100
AcDbSpline
 70
8
 71
3
 72
8
 73
4
 74
0
 40
0
 40
0
 40
0
 40
0
 40
1
 40
1
 40
1
 40
1
 10
149.480764
 20
138.618310
 30
0.0
 10
150.149312
 20
139.095110
 30
0.0
 10
150.336250
 20
139.513146
 30
0.0
 10
150.336250
 20
140.576227
 30
0.0
  0
SPLINE
  5
1ec
100
AcDbEntity
  8
0
 62
7
100
AcDbSpline
 70
8
 71
3
 72
8
 73
4
 74
0
 40
0
 40
0
 40
0
 40
0
 40
1
 40
1
 40
1
 40
1
 10
150.336250
 20
140.576227
 30
0.0
 10
150.336250
 20
141.322394
 30
0.0
 10
150.559344
 20
142.953514
 30
0.0
 10
150.830139
 20
144.201018
 30
0.0
  0
SPLINE
  5
1ed
100
AcDbEntity
  8
0
 62
7
100
AcDbSpline
 70
8
 71
3
 72
8
 73
4
 74
0
 40
0
 40
0
 40
0
 40
0
 40
1
 40
1
 40
1
 40
1
 10
150.830139
 20
144.201018
 30
0.0
 10
151.100928
 20
145.448522
 30
0.0
 10
151.298176
 20
147.155179
 30
0.0
 10
151.271111
 20
147.993379
 30
0.0
  0
SPLINE
  5
1ee
100
AcDbEntity
  8
0
 62
7
100
AcDbSpline
 70
8
 71
3
 72
8
 73
4
 74
0
 40
0
 40
0
 40
0
 40
0
 40
1
 40
1
 40
1
 40
1
 10
151.271111
 20
147.993379
 30
0.0
 10
151.244052
 20
148.831579
 30
0.0
 10
151.336869
 20
149.994154
 30
0.0
 10
151.482778
 20
150.568657
 30
0.0
  0
SPLINE
  5
1ef
100
AcDbEntity
  8
0
 62
7
100
AcDbSpline
 70
8
 71
3
 72
8
 73
4
 74
0
 40
0
 40
0
 40
0
 40
0
 40
1
 40
1
 40
1
 40
1
 10
151.482778
 20
150.568657
 30
0.0
 10
151.739072
 20
151.577768
 30
0.0
 10
151.689531
 20
151.645013
 30
0.0
 10
149.860000
 20
152.570671
 30
0.0
  0
SPLINE
  5
1f0
100
AcDbEntity
  8
0
 62
7
100
AcDbSpline
 70
8
 71
3
 72
8
 73
4
 74
0
 40
0
 40
0
 40
0
 40
0
 40
1
 40
1
 40
1
 40
1
 10
149.860000
 20
152.570671
 30
0.0
 10
147.790222
 20
153.617882
 30
0.0
 10
147.540873
 20
154.197053
 30
0.0
 10
148.625278
 20
155.498727
 30
0.0
  0
SPLINE
  5
1f1
100
AcDbEntity
  8
0
 62
7
100
AcDbSpline
 70
8
 71
3
 72
8
 73
4
 74
0
 40
0
 40
0
 40
0
 40
0
 40
1
 40
1
 40
1
 40
1
 10
148.625278
 20
155.498727
 30
0.0
 10
149.253919
 20
156.253324
 30
0.0
 10
149.297348
 20
156.252655
 30
0.0
 10
149.322014
 20
155.613379
 30
0.0
  0
SPLINE
  5
1f2
100
AcDbEntity
  8
0
 62
7
100
AcDbSpline
 70
8
 71
3
 72
8
 73
4
 74
0
 40
0
 40
0
 40
0
 40
0
 40
1
 40
1
 40
1
 40
1
 10
149.322014
 20
155.613379
 30
0.0
 10
149.337573
 20
155.210129
 30
0.0
 10
149.538481
 20
155.488643
 30
0.0
 10
149.824722
 20
156.292477
 30
0.0
  0
SPLINE
  5
1f3
100
AcDbEntity
  8
0
 62
7
100
AcDbSpline
 70
8
 71
3
 72
8
 73
4
 74
0
 40
0
 40
0
 40
0
 40
0
 40
1
 40
1
 40
1
 40
1
 10
149.824722
 20
156.292477
 30
0.0
 10
150.089159
 20
157.035079
 30
0.0
 10
150.502324
 20
157.797079
 30
0.0
 10
150.741944
 20
157.985810
 30
0.0
  0
SPLINE
  5
1f4
100
AcDbEntity
  8
0
 62
7
100
AcDbSpline
 70
8
 71
3
 72
8
 73
4
 74
0
 40
0
 40
0
 40
0
 40
0
 40
1
 40
1
 40
1
 40
1
 10
150.741944
 20
157.985810
 30
0.0
 10
150.981565
 20
158.174543
 30
0.0
 10
151.380729
 20
158.897235
 30
0.0
 10
151.623889
 20
159.590949
 30
0.0
  0
SPLINE
  5
1f5
100
AcDbEntity
  8
0
 62
7
100
AcDbSpline
 70
8
 71
3
 72
8
 73
4
 74
0
 40
0
 40
0
 40
0
 40
0
 40
1
 40
1
 40
1
 40
1
 10
151.623889
 20
159.590949
 30
0.0
 10
152.051247
 20
160.810171
 30
0.0
 10
151.929019
 20
162.324562
 30
0.0
 10
151.174097
 20
165.332407
 30
0.0
  0
SPLINE
  5
1f6
100
AcDbEntity
  8
0
 62
7
100
AcDbSpline
 70
8
 71
3
 72
8
 73
4
 74
0
 40
0
 40
0
 40
0
 40
0
 40
1
 40
1
 40
1
 40
1
 10
151.174097
 20
165.332407
 30
0.0
 10
150.975195
 20
166.124893
 30
0.0
 10
151.074397
 20
166.242681
 30
0.0
 10
152.029583
 20
166.452477
 30
0.0
  0
LWPOLYLINE
  5
1f7
100
AcDbEntity
  8
0
 62
7
100
AcDbPolyline
 90
3
 70
0
 10
166.052500
 20
62.136088
 30
0.0
 10
163.979931
 20
64.252754
 30
0.0
 10
163.962292
 20
68.106852
 30
0.0
  0
SPLINE
  5
1f8
100
AcDbEntity
  8
0
 62
7
100
AcDbSpline
 70
8
 71
3
 72
8
 73
4
 74
0
 40
0
 40
0
 40
0
 40
0
 40
1
 40
1
 40
1
 40
1
 10
152.311806
 20
167.228588
 30
0.0
 10
151.877237
 20
167.525116
 30
0.0
 10
151.393610
 20
167.972291
 30
0.0
 10
151.244653
 20
168.216366
 30
0.0
  0
SPLINE
  5
1f9
100
AcDbEntity
  8
0
 62
7
100
AcDbSpline
 70
8
 71
3
 72
8
 73
4
 74
0
 40
0
 40
0
 40
0
 40
0
 40
1
 40
1
 40
1
 40
1
 10
151.244653
 20
168.216366
 30
0.0
 10
151.095699
 20
168.460443
 30
0.0
 10
150.794305
 20
168.657338
 30
0.0
 10
150.565556
 20
168.657338
 30
0.0
  0
SPLINE
  5
1fa
100
AcDbEntity
  8
0
 62
7
100
AcDbSpline
 70
8
 71
3
 72
8
 73
4
 74
0
 40
0
 40
0
 40
0
 40
0
 40
1
 40
1
 40
1
 40
1
 10
150.565556
 20
168.657338
 30
0.0
 10
150.336806
 20
168.657338
 30
0.0
 10
149.907241
 20
168.922274
 30
0.0
 10
149.613056
 20
169.248241
 30
0.0
  0
SPLINE
  5
1fb
100
AcDbEntity
  8
0
 62
7
100
AcDbSpline
 70
8
 71
3
 72
8
 73
4
 74
0
 40
0
 40
0
 40
0
 40
0
 40
1
 40
1
 40
1
 40
1
 10
149.613056
 20
169.248241
 30
0.0
 10
148.897041
 20
170.041610
 30
0.0
 10
148.163444
 20
170.603658
 30
0.0
 10
145.758958
 20
172.202754
 30
0.0
  0
SPLINE
  5
1fc
100
AcDbEntity
  8
0
 62
7
100
AcDbSpline
 70
8
 71
3
 72
8
 73
4
 74
0
 40
0
 40
0
 40
0
 40
0
 40
1
 40
1
 40
1
 40
1
 10
145.758958
 20
172.202754
 30
0.0
 10
143.750778
 20
173.538289
 30
0.0
 10
143.111714
 20
173.916992
 30
0.0
 10
141.287500
 20
174.839768
 30
0.0
  0
SPLINE
  5
1fd
100
AcDbEntity
  8
0
 62
7
100
AcDbSpline
 70
8
 71
3
 72
8
 73
4
 74
0
 40
0
 40
0
 40
0
 40
0
 40
1
 40
1
 40
1
 40
1
 10
141.287500
 20
174.839768
 30
0.0
 10
136.195514
 20
177.415544
 30
0.0
 10
136.695891
 20
177.272490
 30
0.0
 10
132.635625
 20
177.282754
 30
0.0
  0
LWPOLYLINE
  5
1fe
100
AcDbEntity
  8
0
 62
7
100
AcDbPolyline
 90
3
 70
0
 10
152.029583
 20
166.452477
 30
0.0
 10
153.096736
 20
166.690602
 30
0.0
 10
152.311806
 20
167.228588
 30
0.0
  0
SPLINE
  5
1ff
100
AcDbEntity
  8
0
 62
7
100
AcDbSpline
 70
8
 71
3
 72
8
 73
4
 74
0
 40
0
 40
0
 40
0
 40
0
 40
1
 40
1
 40
1
 40
1
 10
163.477222
 20
115.149768
 30
0.0
 10
163.603596
 20
115.149768
 30
0.0
 10
165.154181
 20
114.846092
 30
0.0
 10
166.925625
 20
114.479491
 30
0.0
  0
SPLINE
  5
200
100
AcDbEntity
  8
0
 62
7
100
AcDbSpline
 70
8
 71
3
 72
8
 73
4
 74
0
 40
0
 40
0
 40
0
 40
0
 40
1
 40
1
 40
1
 40
1
 10
166.925625
 20
114.479491
 30
0.0
 10
176.039712
 20
112.593332
 30
0.0
 10
178.672645
 20
112.086444
 30
0.0
 10
179.290486
 20
112.098241
 30
0.0
  0
SPLINE
  5
201
100
AcDbEntity
  8
0
 62
7
100
AcDbSpline
 70
8
 71
3
 72
8
 73
4
 74
0
 40
0
 40
0
 40
0
 40
0
 40
1
 40
1
 40
1
 40
1
 10
179.290486
 20
112.098241
 30
0.0
 10
179.663019
 20
112.105355
 30
0.0
 10
181.800147
 20
111.740036
 30
0.0
 10
184.035347
 20
111.286852
 30
0.0
  0
SPLINE
  5
202
100
AcDbEntity
  8
0
 62
7
100
AcDbSpline
 70
8
 71
3
 72
8
 73
4
 74
0
 40
0
 40
0
 40
0
 40
0
 40
1
 40
1
 40
1
 40
1
 10
184.035347
 20
111.286852
 30
0.0
 10
191.183641
 20
109.837545
 30
0.0
 10
197.556710
 20
108.688121
 30
0.0
 10
198.428681
 20
108.693935
 30
0.0
  0
SPLINE
  5
203
100
AcDbEntity
  8
0
 62
7
100
AcDbSpline
 70
8
 71
3
 72
8
 73
4
 74
0
 40
0
 40
0
 40
0
 40
0
 40
1
 40
1
 40
1
 40
1
 10
198.428681
 20
108.693935
 30
0.0
 10
200.598430
 20
108.708396
 30
0.0
 10
201.471389
 20
107.785693
 30
0.0
 10
201.471389
 20
105.483657
 30
0.0
  0
SPLINE
  5
204
100
AcDbEntity
  8
0
 62
7
100
AcDbSpline
 70
8
 71
3
 72
8
 73
4
 74
0
 40
0
 40
0
 40
0
 40
0
 40
1
 40
1
 40
1
 40
1
 10
201.471389
 20
105.483657
 30
0.0
 10
201.471389
 20
104.843159
 30
0.0
 10
201.659625
 20
103.630939
 30
0.0
 10
201.885903
 20
102.784907
 30
0.0
  0
SPLINE
  5
205
100
AcDbEntity
  8
0
 62
7
100
AcDbSpline
 70
8
 71
3
 72
8
 73
4
 74
0
 40
0
 40
0
 40
0
 40
0
 40
1
 40
1
 40
1
 40
1
 10
201.885903
 20
102.784907
 30
0.0
 10
202.439016
 20
100.716873
 30
0.0
 10
201.805199
 20
99.611183
 30
0.0
 10
199.733958
 20
99.045463
 30
0.0
  0
SPLINE
  5
206
100
AcDbEntity
  8
0
 62
7
100
AcDbSpline
 70
8
 71
3
 72
8
 73
4
 74
0
 40
0
 40
0
 40
0
 40
0
 40
1
 40
1
 40
1
 40
1
 10
199.733958
 20
99.045463
 30
0.0
 10
198.922143
 20
98.823729
 30
0.0
 10
197.573547
 20
98.413570
 30
0.0
 10
196.735347
 20
98.128241
 30
0.0
  0
SPLINE
  5
207
100
AcDbEntity
  8
0
 62
7
100
AcDbSpline
 70
8
 71
3
 72
8
 73
4
 74
0
 40
0
 40
0
 40
0
 40
0
 40
1
 40
1
 40
1
 40
1
 10
196.735347
 20
98.128241
 30
0.0
 10
195.897147
 20
97.842905
 30
0.0
 10
193.908892
 20
97.223955
 30
0.0
 10
192.325625
 20
96.752407
 30
0.0
  0
SPLINE
  5
208
100
AcDbEntity
  8
0
 62
7
100
AcDbSpline
 70
8
 71
3
 72
8
 73
4
 74
0
 40
0
 40
0
 40
0
 40
0
 40
1
 40
1
 40
1
 40
1
 10
192.325625
 20
96.752407
 30
0.0
 10
185.662237
 20
94.767821
 30
0.0
 10
183.230873
 20
94.003018
 30
0.0
 10
181.142569
 20
93.251088
 30
0.0
  0
SPLINE
  5
209
100
AcDbEntity
  8
0
 62
7
100
AcDbSpline
 70
8
 71
3
 72
8
 73
4
 74
0
 40
0
 40
0
 40
0
 40
0
 40
1
 40
1
 40
1
 40
1
 10
181.142569
 20
93.251088
 30
0.0
 10
179.927882
 20
92.813717
 30
0.0
 10
178.772876
 20
92.457338
 30
0.0
 10
178.576111
 20
92.457338
 30
0.0
  0
SPLINE
  5
20a
100
AcDbEntity
  8
0
 62
7
100
AcDbSpline
 70
8
 71
3
 72
8
 73
4
 74
0
 40
0
 40
0
 40
0
 40
0
 40
1
 40
1
 40
1
 40
1
 10
178.576111
 20
92.457338
 30
0.0
 10
178.379343
 20
92.457338
 30
0.0
 10
177.316751
 20
92.085829
 30
0.0
 10
176.212500
 20
91.637129
 30
0.0
  0
SPLINE
  5
20b
100
AcDbEntity
  8
0
 62
7
100
AcDbSpline
 70
8
 71
3
 72
8
 73
4
 74
0
 40
0
 40
0
 40
0
 40
0
 40
1
 40
1
 40
1
 40
1
 10
176.212500
 20
91.637129
 30
0.0
 10
175.108249
 20
91.188433
 30
0.0
 10
173.663376
 20
90.720466
 30
0.0
 10
173.002222
 20
90.596435
 30
0.0
  0
SPLINE
  5
20c
100
AcDbEntity
  8
0
 62
7
100
AcDbSpline
 70
8
 71
3
 72
8
 73
4
 74
0
 40
0
 40
0
 40
0
 40
0
 40
1
 40
1
 40
1
 40
1
 10
173.002222
 20
90.596435
 30
0.0
 10
171.945498
 20
90.398191
 30
0.0
 10
171.757947
 20
90.471041
 30
0.0
 10
171.423542
 20
91.204977
 30
0.0
  0
SPLINE
  5
20d
100
AcDbEntity
  8
0
 62
7
100
AcDbSpline
 70
8
 71
3
 72
8
 73
4
 74
0
 40
0
 40
0
 40
0
 40
0
 40
1
 40
1
 40
1
 40
1
 10
171.423542
 20
91.204977
 30
0.0
 10
171.214319
 20
91.664169
 30
0.0
 10
170.953467
 20
93.167894
 30
0.0
 10
170.841458
 20
94.538727
 30
0.0
  0
SPLINE
  5
20e
100
AcDbEntity
  8
0
 62
7
100
AcDbSpline
 70
8
 71
3
 72
8
 73
4
 74
0
 40
0
 40
0
 40
0
 40
0
 40
1
 40
1
 40
1
 40
1
 10
170.841458
 20
94.538727
 30
0.0
 10
170.548952
 20
98.118636
 30
0.0
 10
169.966471
 20
100.569477
 30
0.0
 10
169.068750
 20
102.017616
 30
0.0
  0
SPLINE
  5
20f
100
AcDbEntity
  8
0
 62
7
100
AcDbSpline
 70
8
 71
3
 72
8
 73
4
 74
0
 40
0
 40
0
 40
0
 40
0
 40
1
 40
1
 40
1
 40
1
 10
169.068750
 20
102.017616
 30
0.0
 10
168.638037
 20
102.712413
 30
0.0
 10
168.283819
 20
103.424403
 30
0.0
 10
168.283819
 20
103.605116
 30
0.0
  0
SPLINE
  5
210
100
AcDbEntity
  8
0
 62
7
100
AcDbSpline
 70
8
 71
3
 72
8
 73
4
 74
0
 40
0
 40
0
 40
0
 40
0
 40
1
 40
1
 40
1
 40
1
 10
168.283819
 20
103.605116
 30
0.0
 10
168.283819
 20
103.785828
 30
0.0
 10
168.093319
 20
104.055884
 30
0.0
 10
167.860486
 20
104.204838
 30
0.0
  0
SPLINE
  5
211
100
AcDbEntity
  8
0
 62
7
100
AcDbSpline
 70
8
 71
3
 72
8
 73
4
 74
0
 40
0
 40
0
 40
0
 40
0
 40
1
 40
1
 40
1
 40
1
 10
167.860486
 20
104.204838
 30
0.0
 10
167.072327
 20
104.709064
 30
0.0
 10
164.897153
 20
107.804715
 30
0.0
 10
164.897153
 20
108.420532
 30
0.0
  0
SPLINE
  5
212
100
AcDbEntity
  8
0
 62
7
100
AcDbSpline
 70
8
 71
3
 72
8
 73
4
 74
0
 40
0
 40
0
 40
0
 40
0
 40
1
 40
1
 40
1
 40
1
 10
164.897153
 20
108.420532
 30
0.0
 10
164.897153
 20
108.757054
 30
0.0
 10
164.421346
 20
109.710756
 30
0.0
 10
163.838819
 20
110.537199
 30
0.0
  0
SPLINE
  5
213
100
AcDbEntity
  8
0
 62
7
100
AcDbSpline
 70
8
 71
3
 72
8
 73
4
 74
0
 40
0
 40
0
 40
0
 40
0
 40
1
 40
1
 40
1
 40
1
 10
163.838819
 20
110.537199
 30
0.0
 10
162.891526
 20
111.881133
 30
0.0
 10
162.801193
 20
112.197693
 30
0.0
 10
163.009792
 20
113.588727
 30
0.0
  0
SPLINE
  5
214
100
AcDbEntity
  8
0
 62
7
100
AcDbSpline
 70
8
 71
3
 72
8
 73
4
 74
0
 40
0
 40
0
 40
0
 40
0
 40
1
 40
1
 40
1
 40
1
 10
163.009792
 20
113.588727
 30
0.0
 10
163.138067
 20
114.444134
 30
0.0
 10
163.350846
 20
115.149768
 30
0.0
 10
163.477222
 20
115.149768
 30
0.0
  0
LWPOLYLINE
  5
215
100
AcDbEntity
  8
0
 62
7
100
AcDbPolyline
 90
2
 70
0
 10
132.635625
 20
177.282754
 30
0.0
 10
132.635625
 20
177.282754
 30
0.0
  0
SPLINE
  5
216
100
AcDbEntity
  8
0
 62
7
100
AcDbSpline
 70
8
 71
3
 72
8
 73
4
 74
0
 40
0
 40
0
 40
0
 40
0
 40
1
 40
1
 40
1
 40
1
 10
128.464028
 20
90.084907
 30
0.0
 10
129.354137
 20
90.084907
 30
0.0
 10
130.974835
 20
82.648253
 30
0.0
 10
130.527778
 20
80.612824
 30
0.0
  0
SPLINE
  5
217
100
AcDbEntity
  8
0
 62
7
100
AcDbSpline
 70
8
 71
3
 72
8
 73
4
 74
0
 40
0
 40
0
 40
0
 40
0
 40
1
 40
1
 40
1
 40
1
 10
130.527778
 20
80.612824
 30
0.0
 10
130.291058
 20
79.535045
 30
0.0
 10
129.787819
 20
79.329012
 30
0.0
 10
129.099028
 20
80.021921
 30
0.0
  0
SPLINE
  5
218
100
AcDbEntity
  8
0
 62
7
100
AcDbSpline
 70
8
 71
3
 72
8
 73
4
 74
0
 40
0
 40
0
 40
0
 40
0
 40
1
 40
1
 40
1
 40
1
 10
129.099028
 20
80.021921
 30
0.0
 10
128.874619
 20
80.247668
 30
0.0
 10
128.211413
 20
80.817435
 30
0.0
 10
127.626181
 20
81.283102
 30
0.0
  0
SPLINE
  5
219
100
AcDbEntity
  8
0
 62
7
100
AcDbSpline
 70
8
 71
3
 72
8
 73
4
 74
0
 40
0
 40
0
 40
0
 40
0
 40
1
 40
1
 40
1
 40
1
 10
127.626181
 20
81.283102
 30
0.0
 10
125.749493
 20
82.776365
 30
0.0
 10
123.922014
 20
84.729450
 30
0.0
 10
123.922014
 20
85.243032
 30
0.0
  0
SPLINE
  5
21a
100
AcDbEntity
  8
0
 62
7
100
AcDbSpline
 70
8
 71
3
 72
8
 73
4
 74
0
 40
0
 40
0
 40
0
 40
0
 40
1
 40
1
 40
1
 40
1
 10
123.922014
 20
85.243032
 30
0.0
 10
123.922014
 20
85.517324
 30
0.0
 10
124.377450
 20
86.146166
 30
0.0
 10
124.936250
 20
86.636504
 30
0.0
  0
SPLINE
  5
21b
100
AcDbEntity
  8
0
 62
7
100
AcDbSpline
 70
8
 71
3
 72
8
 73
4
 74
0
 40
0
 40
0
 40
0
 40
0
 40
1
 40
1
 40
1
 40
1
 10
124.936250
 20
86.636504
 30
0.0
 10
125.495050
 20
87.126843
 30
0.0
 10
125.950486
 20
87.634936
 30
0.0
 10
125.950486
 20
87.765393
 30
0.0
  0
SPLINE
  5
21c
100
AcDbEntity
  8
0
 62
7
100
AcDbSpline
 70
8
 71
3
 72
8
 73
4
 74
0
 40
0
 40
0
 40
0
 40
0
 40
1
 40
1
 40
1
 40
1
 10
125.950486
 20
87.765393
 30
0.0
 10
125.950486
 20
88.179159
 30
0.0
 10
128.015938
 20
90.084907
 30
0.0
 10
128.464028
 20
90.084907
 30
0.0
  0
LWPOLYLINE
  5
21d
100
AcDbEntity
  8
0
 62
7
100
AcDbPolyline
 90
2
 70
0
 10
163.477222
 20
115.149768
 30
0.0
 10
163.477222
 20
115.149768
 30
0.0
  0
LWPOLYLINE
  5
21e
100
AcDbEntity
  8
0
 62
7
100
AcDbPolyline
 90
2
 70
0
 10
128.464028
 20
90.084907
 30
0.0
 10
128.464028
 20
90.084907
 30
0.0
  0
ENDSEC
  0
SECTION
  2
OBJECTS
  0
DICTIONARY
  5
C
330
0
100
AcDbDictionary
  3
ACAD_GROUP
350
D
  3
ACAD_MLINESTYLE
350
17
  0
DICTIONARY
  5
D
330
C
100
AcDbDictionary
  0
DICTIONARY
  5
1A
330
C
100
AcDbDictionary
  0
DICTIONARY
  5
17
330
C
100
AcDbDictionary
  3
STANDARD
350
18
  0
DICTIONARY
  5
19
330
C
100
AcDbDictionary
  0
ENDSEC
  0
EOF
