999
dxfrw 0.5.10
0
SECTION
2
HEADER
9
$ACADVER
1
AC1021
9
$HANDSEED
5
20000
9
$DWGCODEPAGE
3
ANSI_1252
9
$INSBASE
10
0
20
0
30
0
9
$EXTMIN
10
2.5
20
2.5
30
0
9
$EXTMAX
10
90.53521676
20
77.5
30
0
9
$LIMMIN
10
0
20
0
9
$LIMMAX
10
420
20
297
9
$ORTHOMODE
70
0
9
$LTSCALE
40
1
9
$TEXTSTYLE
7
STANDARD
9
$CLAYER
8
komachi
9
$DIMASZ
40
2.5
9
$DIMLFAC
40
1
9
$DIMSCALE
40
1
9
$DIMEXO
40
0.625
9
$DIMEXE
40
1.25
9
$DIMTXT
40
2.5
9
$DIMTSZ
40
0
9
$DIMAUNIT
70
0
9
$DIMADEC
70
0
9
$DIMLUNIT
70
2
9
$DIMSTYLE
2
Standard
9
$DIMGAP
40
0.625
9
$DIMTIH
70
0
9
$LUNITS
70
2
9
$LUPREC
70
4
9
$AUNITS
70
0
9
$AUPREC
70
2
9
$SPLINESEGS
70
8
9
$GRIDMODE
70
0
9
$SNAPSTYLE
70
0
9
$PINSBASE
10
0
20
0
30
0
9
$PLIMMIN
10
0
20
0
9
$PLIMMAX
10
210
20
297
9
$INSUNITS
70
4
9
$PSVPSCALE
40
1
0
ENDSEC
0
SECTION
2
CLASSES
0
ENDSEC
0
SECTION
2
TABLES
0
TABLE
2
VPORT
5
8
330
0
100
AcDbSymbolTable
70
1
0
VPORT
5
31
330
2
100
AcDbSymbolTableRecord
100
AcDbViewportTableRecord
2
*ACTIVE
70
0
10
0
20
0
11
1
21
1
12
63.4417808219
22
39.2465753425
13
0
23
0
14
10
24
10
15
10
25
10
16
0
26
0
36
1
17
0
27
0
37
0
40
77.0547945205
41
2.08533333333
42
50
43
0
44
0
50
0
51
0
71
0
72
100
73
1
74
3
75
0
76
0
77
0
78
0
281
0
65
1
110
0
120
0
130
0
111
1
121
0
131
0
112
0
122
1
132
0
79
0
146
0
348
10020
60
7
61
5
292
1
282
1
141
0
142
0
63
250
421
3358443
0
ENDTAB
0
TABLE
2
LTYPE
5
5
330
0
100
AcDbSymbolTable
70
4
0
LTYPE
5
14
330
5
100
AcDbSymbolTableRecord
100
AcDbLinetypeTableRecord
2
ByBlock
70
0
3

72
65
73
0
40
0
0
LTYPE
5
15
330
5
100
AcDbSymbolTableRecord
100
AcDbLinetypeTableRecord
2
ByLayer
70
0
3

72
65
73
0
40
0
0
LTYPE
5
16
330
5
100
AcDbSymbolTableRecord
100
AcDbLinetypeTableRecord
2
Continuous
70
0
3
Solid line
72
65
73
0
40
0
0
LTYPE
5
32
330
5
100
AcDbSymbolTableRecord
100
AcDbLinetypeTableRecord
2
DOT
70
0
3
Dot . . . . . . . . . . . . . . . . . . . . . .
72
65
73
2
40
6.35
49
0
74
0
49
-6.35
74
0
0
LTYPE
5
33
330
5
100
AcDbSymbolTableRecord
100
AcDbLinetypeTableRecord
2
DOT2
70
0
3
Dot (.5x) .....................................
72
65
73
2
40
3.175
49
0
74
0
49
-3.175
74
0
0
LTYPE
5
34
330
5
100
AcDbSymbolTableRecord
100
AcDbLinetypeTableRecord
2
DOTX2
70
0
3
Dot (2x) .  .  .  .  .  .  .  .  .  .  .  .  .
72
65
73
2
40
12.7
49
0
74
0
49
-12.7
74
0
0
LTYPE
5
35
330
5
100
AcDbSymbolTableRecord
100
AcDbLinetypeTableRecord
2
DASHED
70
0
3
Dot . . . . . . . . . . . . . . . . . . . . . .
72
65
73
2
40
19.05
49
12.7
74
0
49
-6.35
74
0
0
LTYPE
5
36
330
5
100
AcDbSymbolTableRecord
100
AcDbLinetypeTableRecord
2
DASHED2
70
0
3
Dashed (.5x) _ _ _ _ _ _ _ _ _ _ _ _ _ _ _ _ _
72
65
73
2
40
9.525
49
6.35
74
0
49
-3.175
74
0
0
LTYPE
5
37
330
5
100
AcDbSymbolTableRecord
100
AcDbLinetypeTableRecord
2
DASHEDX2
70
0
3
Dashed (2x) ____  ____  ____  ____  ____  ___
72
65
73
2
40
38.1
49
25.4
74
0
49
-12.7
74
0
0
LTYPE
5
38
330
5
100
AcDbSymbolTableRecord
100
AcDbLinetypeTableRecord
2
DASHDOT
70
0
3
Dash dot __ . __ . __ . __ . __ . __ . __ . __
72
65
73
4
40
25.4
49
12.7
74
0
49
-6.35
74
0
49
0
74
0
49
-6.35
74
0
0
LTYPE
5
39
330
5
100
AcDbSymbolTableRecord
100
AcDbLinetypeTableRecord
2
DASHDOT2
70
0
3
Dash dot (.5x) _._._._._._._._._._._._._._._.
72
65
73
4
40
12.7
49
6.35
74
0
49
-3.175
74
0
49
0
74
0
49
-3.175
74
0
0
LTYPE
5
3A
330
5
100
AcDbSymbolTableRecord
100
AcDbLinetypeTableRecord
2
DASHDOTX2
70
0
3
Dash dot (2x) ____  .  ____  .  ____  .  ___
72
65
73
4
40
50.8
49
25.4
74
0
49
-12.7
74
0
49
0
74
0
49
-12.7
74
0
0
LTYPE
5
3B
330
5
100
AcDbSymbolTableRecord
100
AcDbLinetypeTableRecord
2
DIVIDE
70
0
3
Divide ____ . . ____ . . ____ . . ____ . . ____
72
65
73
6
40
31.75
49
12.7
74
0
49
-6.35
74
0
49
0
74
0
49
-6.35
74
0
49
0
74
0
49
-6.35
74
0
0
LTYPE
5
3C
330
5
100
AcDbSymbolTableRecord
100
AcDbLinetypeTableRecord
2
DIVIDE2
70
0
3
Divide (.5x) __..__..__..__..__..__..__..__.._
72
65
73
6
40
15.875
49
6.35
74
0
49
-3.175
74
0
49
0
74
0
49
-3.175
74
0
49
0
74
0
49
-3.175
74
0
0
LTYPE
5
3D
330
5
100
AcDbSymbolTableRecord
100
AcDbLinetypeTableRecord
2
DIVIDEX2
70
0
3
Divide (2x) ________  .  .  ________  .  .  _
72
65
73
6
40
63.5
49
25.4
74
0
49
-12.7
74
0
49
0
74
0
49
-12.7
74
0
49
0
74
0
49
-12.7
74
0
0
LTYPE
5
3E
330
5
100
AcDbSymbolTableRecord
100
AcDbLinetypeTableRecord
2
BORDER
70
0
3
Border __ __ . __ __ . __ __ . __ __ . __ __ .
72
65
73
6
40
44.45
49
12.7
74
0
49
-6.35
74
0
49
12.7
74
0
49
-6.35
74
0
49
0
74
0
49
-6.35
74
0
0
LTYPE
5
3F
330
5
100
AcDbSymbolTableRecord
100
AcDbLinetypeTableRecord
2
BORDER2
70
0
3
Border (.5x) __.__.__.__.__.__.__.__.__.__.__.
72
65
73
6
40
22.225
49
6.35
74
0
49
-3.175
74
0
49
6.35
74
0
49
-3.175
74
0
49
0
74
0
49
-3.175
74
0
0
LTYPE
5
40
330
5
100
AcDbSymbolTableRecord
100
AcDbLinetypeTableRecord
2
BORDERX2
70
0
3
Border (2x) ____  ____  .  ____  ____  .  ___
72
65
73
6
40
88.9
49
25.4
74
0
49
-12.7
74
0
49
25.4
74
0
49
-12.7
74
0
49
0
74
0
49
-12.7
74
0
0
LTYPE
5
41
330
5
100
AcDbSymbolTableRecord
100
AcDbLinetypeTableRecord
2
CENTER
70
0
3
Center ____ _ ____ _ ____ _ ____ _ ____ _ ____
72
65
73
4
40
50.8
49
31.75
74
0
49
-6.35
74
0
49
6.35
74
0
49
-6.35
74
0
0
LTYPE
5
42
330
5
100
AcDbSymbolTableRecord
100
AcDbLinetypeTableRecord
2
CENTER2
70
0
3
Center (.5x) ___ _ ___ _ ___ _ ___ _ ___ _ ___
72
65
73
4
40
28.575
49
19.05
74
0
49
-3.175
74
0
49
3.175
74
0
49
-3.175
74
0
0
LTYPE
5
43
330
5
100
AcDbSymbolTableRecord
100
AcDbLinetypeTableRecord
2
CENTERX2
70
0
3
Center (2x) ________  __  ________  __  _____
72
65
73
4
40
101.6
49
63.5
74
0
49
-12.7
74
0
49
12.7
74
0
49
-12.7
74
0
0
ENDTAB
0
TABLE
2
LAYER
5
2
330
0
100
AcDbSymbolTable
70
1
0
LAYER
5
10
330
2
100
AcDbSymbolTableRecord
100
AcDbLayerTableRecord
2
0
70
0
62
7
6
CONTINUOUS
370
-3
390
F
0
LAYER
5
44
330
2
100
AcDbSymbolTableRecord
100
AcDbLayerTableRecord
2
komachi
70
0
62
7
6
CONTINUOUS
370
0
390
F
0
ENDTAB
0
TABLE
2
STYLE
5
3
330
0
100
AcDbSymbolTable
70
3
0
STYLE
5
45
330
2
100
AcDbSymbolTableRecord
100
AcDbTextStyleTableRecord
2
Standard
70
0
40
0
41
1
50
0
71
0
42
1
3
txt
4

0
ENDTAB
0
TABLE
2
VIEW
5
6
330
0
100
AcDbSymbolTable
70
0
0
ENDTAB
0
TABLE
2
UCS
5
7
330
0
100
AcDbSymbolTable
70
0
0
ENDTAB
0
TABLE
2
APPID
5
9
330
0
100
AcDbSymbolTable
70
1
0
APPID
5
12
330
9
100
AcDbSymbolTableRecord
100
AcDbRegAppTableRecord
2
ACAD
70
0
0
ENDTAB
0
TABLE
2
DIMSTYLE
5
A
330
0
100
AcDbSymbolTable
70
1
100
AcDbDimStyleTable
71
1
0
DIMSTYLE
105
46
330
A
100
AcDbSymbolTableRecord
100
AcDbDimStyleTableRecord
2
Standard
70
0
40
1
41
2.5
42
0.625
43
0.38
44
1.25
45
0
46
0
47
0
48
0
140
2.5
141
0.09
142
0
143
25.4
144
1
145
0
146
1
147
0.625
148
0
71
0
72
0
73
0
74
1
75
0
76
0
77
0
78
0
79
0
170
0
171
2
172
0
173
0
174
0
175
0
176
0
177
0
178
0
179
0
271
4
272
4
273
2
274
2
275
0
276
0
277
2
278
46
279
0
280
0
281
0
282
0
283
1
284
0
285
0
286
0
288
0
289
3
340
Standard
341

371
-2
372
-2
0
ENDTAB
0
TABLE
2
BLOCK_RECORD
5
1
330
0
100
AcDbSymbolTable
70
2
0
BLOCK_RECORD
5
1F
330
1
100
AcDbSymbolTableRecord
100
AcDbBlockTableRecord
2
*Model_Space
70
0
280
1
281
0
0
BLOCK_RECORD
5
1E
330
1
100
AcDbSymbolTableRecord
100
AcDbBlockTableRecord
2
*Paper_Space
70
0
280
1
281
0
0
ENDTAB
0
ENDSEC
0
SECTION
2
BLOCKS
0
BLOCK
5
20
330
1F
100
AcDbEntity
8
0
100
AcDbBlockBegin
2
*Model_Space
70
0
10
0
20
0
30
0
3
*Model_Space
1

0
ENDBLK
5
21
330
1F
100
AcDbEntity
8
0
100
AcDbBlockEnd
0
BLOCK
5
1C
330
1B
100
AcDbEntity
8
0
100
AcDbBlockBegin
2
*Paper_Space
70
0
10
0
20
0
30
0
3
*Paper_Space
1

0
ENDBLK
5
1D
330
1F
100
AcDbEntity
8
0
100
AcDbBlockEnd
0
ENDSEC
0
SECTION
2
ENTITIES
0
CIRCLE
5
47
100
AcDbEntity
8
0
6
ByLayer
62
256
370
-1
100
AcDbCircle
10
40
20
40
40
37.5
0
SPLINE
5
48
100
AcDbEntity
8
komachi
6
ByLayer
62
7
370
-1
100
AcDbSpline
210
0
220
0
230
1
70
8
71
3
72
8
73
4
74
0
42
1e-07
43
1e-07
40
0
40
0
40
0
40
0
40
1
40
1
40
1
40
1
10
41.1763198459
20
62.7034324383
30
0
10
40.3861155779
20
62.7054299723
30
0
10
40.1782325739
20
62.6743190883
30
0
10
39.5453753419
20
62.4662423523
30
0
0
SPLINE
5
49
100
AcDbEntity
8
komachi
6
ByLayer
62
7
370
-1
100
AcDbSpline
210
0
220
0
230
1
70
8
71
3
72
8
73
4
74
0
42
1e-07
43
1e-07
40
0
40
0
40
0
40
0
40
1
40
1
40
1
40
1
10
39.5453753419
20
62.4662423523
30
0
10
39.1463921419
20
62.3350610363
30
0
10
38.6843129999
20
62.1458964943
30
0
10
38.5189505999
20
62.0443378483
30
0
0
SPLINE
5
4A
100
AcDbEntity
8
komachi
6
ByLayer
62
7
370
-1
100
AcDbSpline
210
0
220
0
230
1
70
8
71
3
72
8
73
4
74
0
42
1e-07
43
1e-07
40
0
40
0
40
0
40
0
40
1
40
1
40
1
40
1
10
38.5189505999
20
62.0443378483
30
0
10
38.3535889139
20
61.9427784883
30
0
10
38.1961423939
20
61.8596234303
30
0
10
38.1684130139
20
61.8596234303
30
0
0
SPLINE
5
4B
100
AcDbEntity
8
komachi
6
ByLayer
62
7
370
-1
100
AcDbSpline
210
0
220
0
230
1
70
8
71
3
72
8
73
4
74
0
42
1e-07
43
1e-07
40
0
40
0
40
0
40
0
40
1
40
1
40
1
40
1
10
38.1684130139
20
61.8596234303
30
0
10
38.1406824439
20
61.8596234303
30
0
10
38.0104626479
20
61.7692805343
30
0
10
37.8808461819
20
61.6602158443
30
0
0
SPLINE
5
4C
100
AcDbEntity
8
komachi
6
ByLayer
62
7
370
-1
100
AcDbSpline
210
0
220
0
230
1
70
8
71
3
72
8
73
4
74
0
42
1e-07
43
1e-07
40
0
40
0
40
0
40
0
40
1
40
1
40
1
40
1
10
37.8808461819
20
61.6602158443
30
0
10
37.7512304299
20
61.5511509163
30
0
10
37.5105319859
20
61.4380426063
30
0
10
37.3455941779
20
61.4083323523
30
0
0
SPLINE
5
4D
100
AcDbEntity
8
komachi
6
ByLayer
62
7
370
-1
100
AcDbSpline
210
0
220
0
230
1
70
8
71
3
72
8
73
4
74
0
42
1e-07
43
1e-07
40
0
40
0
40
0
40
0
40
1
40
1
40
1
40
1
10
37.3455941779
20
61.4083323523
30
0
10
37.1806561319
20
61.3786223363
30
0
10
37.0067500079
20
61.3235396163
30
0
10
36.9572740919
20
61.2844897663
30
0
0
SPLINE
5
4E
100
AcDbEntity
8
komachi
6
ByLayer
62
7
370
-1
100
AcDbSpline
210
0
220
0
230
1
70
8
71
3
72
8
73
4
74
0
42
1e-07
43
1e-07
40
0
40
0
40
0
40
0
40
1
40
1
40
1
40
1
10
36.9572740919
20
61.2844897663
30
0
10
36.9077986519
20
61.2454396783
30
0
10
36.5656779359
20
61.1753363023
30
0
10
36.1974260099
20
61.1291616843
30
0
0
SPLINE
5
4F
100
AcDbEntity
8
komachi
6
ByLayer
62
7
370
-1
100
AcDbSpline
210
0
220
0
230
1
70
8
71
3
72
8
73
4
74
0
42
1e-07
43
1e-07
40
0
40
0
40
0
40
0
40
1
40
1
40
1
40
1
10
36.1974260099
20
61.1291616843
30
0
10
35.6467168579
20
61.0601088403
30
0
10
35.4721350519
20
61.0019787683
30
0
10
35.2192790919
20
60.8017134303
30
0
0
SPLINE
5
50
100
AcDbEntity
8
komachi
6
ByLayer
62
7
370
-1
100
AcDbSpline
210
0
220
0
230
1
70
8
71
3
72
8
73
4
74
0
42
1e-07
43
1e-07
40
0
40
0
40
0
40
0
40
1
40
1
40
1
40
1
10
35.2192790919
20
60.8017134303
30
0
10
34.8828910819
20
60.5352893283
30
0
10
34.1844584239
20
59.7640917403
30
0
10
34.1844584239
20
59.6598422663
30
0
0
SPLINE
5
51
100
AcDbEntity
8
komachi
6
ByLayer
62
7
370
-1
100
AcDbSpline
210
0
220
0
230
1
70
8
71
3
72
8
73
4
74
0
42
1e-07
43
1e-07
40
0
40
0
40
0
40
0
40
1
40
1
40
1
40
1
10
34.1844584239
20
59.6598422663
30
0
10
34.1844584239
20
59.6239392523
30
0
10
34.0307254179
20
59.3928438703
30
0
10
33.8423167639
20
59.1455804343
30
0
0
SPLINE
5
52
100
AcDbEntity
8
komachi
6
ByLayer
62
7
370
-1
100
AcDbSpline
210
0
220
0
230
1
70
8
71
3
72
8
73
4
74
0
42
1e-07
43
1e-07
40
0
40
0
40
0
40
0
40
1
40
1
40
1
40
1
10
33.8423167639
20
59.1455804343
30
0
10
33.6539081099
20
58.8983162843
30
0
10
33.4591646099
20
58.6260519003
30
0
10
33.4099171739
20
58.5410604343
30
0
0
SPLINE
5
53
100
AcDbEntity
8
komachi
6
ByLayer
62
7
370
-1
100
AcDbSpline
210
0
220
0
230
1
70
8
71
3
72
8
73
4
74
0
42
1e-07
43
1e-07
40
0
40
0
40
0
40
0
40
1
40
1
40
1
40
1
10
33.4099171739
20
58.5410604343
30
0
10
33.3606687859
20
58.4560696823
30
0
10
33.2513468179
20
58.3074981823
30
0
10
33.1664298459
20
58.2094140983
30
0
0
SPLINE
5
54
100
AcDbEntity
8
komachi
6
ByLayer
62
7
370
-1
100
AcDbSpline
210
0
220
0
230
1
70
8
71
3
72
8
73
4
74
0
42
1e-07
43
1e-07
40
0
40
0
40
0
40
0
40
1
40
1
40
1
40
1
10
33.1664298459
20
58.2094140983
30
0
10
32.9810578339
20
57.9952997783
30
0
10
32.1693916779
20
56.3449387583
30
0
10
32.1693916779
20
56.1817533443
30
0
0
SPLINE
5
55
100
AcDbEntity
8
komachi
6
ByLayer
62
7
370
-1
100
AcDbSpline
210
0
220
0
230
1
70
8
71
3
72
8
73
4
74
0
42
1e-07
43
1e-07
40
0
40
0
40
0
40
0
40
1
40
1
40
1
40
1
10
32.1693916779
20
56.1817533443
30
0
10
32.1693916779
20
56.1569382743
30
0
10
32.0787136779
20
55.9476051363
30
0
10
31.9678849319
20
55.7178680203
30
0
0
SPLINE
5
56
100
AcDbEntity
8
komachi
6
ByLayer
62
7
370
-1
100
AcDbSpline
210
0
220
0
230
1
70
8
71
3
72
8
73
4
74
0
42
1e-07
43
1e-07
40
0
40
0
40
0
40
0
40
1
40
1
40
1
40
1
10
31.9678849319
20
55.7178680203
30
0
10
31.8570564239
20
55.4881316183
30
0
10
31.7663784239
20
55.2695702683
30
0
10
31.7663784239
20
55.2308936023
30
0
0
SPLINE
5
57
100
AcDbEntity
8
komachi
6
ByLayer
62
7
370
-1
100
AcDbSpline
210
0
220
0
230
1
70
8
71
3
72
8
73
4
74
0
42
1e-07
43
1e-07
40
0
40
0
40
0
40
0
40
1
40
1
40
1
40
1
10
31.7663784239
20
55.2308936023
30
0
10
31.7663784239
20
55.0943465763
30
0
10
31.1171177559
20
53.7993566843
30
0
10
31.0485109239
20
53.7993566843
30
0
0
SPLINE
5
58
100
AcDbEntity
8
komachi
6
ByLayer
62
7
370
-1
100
AcDbSpline
210
0
220
0
230
1
70
8
71
3
72
8
73
4
74
0
42
1e-07
43
1e-07
40
0
40
0
40
0
40
0
40
1
40
1
40
1
40
1
10
31.0485109239
20
53.7993566843
30
0
10
31.0102459979
20
53.7993566843
30
0
10
30.9565129759
20
53.7080030023
30
0
10
30.9288661819
20
53.5978499383
30
0
0
SPLINE
5
59
100
AcDbEntity
8
komachi
6
ByLayer
62
7
370
-1
100
AcDbSpline
210
0
220
0
230
1
70
8
71
3
72
8
73
4
74
0
42
1e-07
43
1e-07
40
0
40
0
40
0
40
0
40
1
40
1
40
1
40
1
10
30.9288661819
20
53.5978499383
30
0
10
30.8400864699
20
53.2441224383
30
0
10
30.5794705199
20
53.2550716283
30
0
10
29.0670285959
20
53.6755140983
30
0
0
SPLINE
5
5A
100
AcDbEntity
8
komachi
6
ByLayer
62
7
370
-1
100
AcDbSpline
210
0
220
0
230
1
70
8
71
3
72
8
73
4
74
0
42
1e-07
43
1e-07
40
0
40
0
40
0
40
0
40
1
40
1
40
1
40
1
10
29.0670285959
20
53.6755140983
30
0
10
28.8010397959
20
53.7494557003
30
0
10
28.2392560279
20
53.9011364323
30
0
10
27.8181071739
20
54.0113585163
30
0
0
SPLINE
5
5B
100
AcDbEntity
8
komachi
6
ByLayer
62
7
370
-1
100
AcDbSpline
210
0
220
0
230
1
70
8
71
3
72
8
73
4
74
0
42
1e-07
43
1e-07
40
0
40
0
40
0
40
0
40
1
40
1
40
1
40
1
10
27.8181071739
20
54.0113585163
30
0
10
27.3969580819
20
54.1215794103
30
0
10
26.7585547359
20
54.2998602123
30
0
10
26.4012634239
20
54.4080747663
30
0
0
SPLINE
5
5C
100
AcDbEntity
8
komachi
6
ByLayer
62
7
370
-1
100
AcDbSpline
210
0
220
0
230
1
70
8
71
3
72
8
73
4
74
0
42
1e-07
43
1e-07
40
0
40
0
40
0
40
0
40
1
40
1
40
1
40
1
10
26.4012634239
20
54.4080747663
30
0
10
26.0439718739
20
54.5162897963
30
0
10
25.6989756419
20
54.6040096943
30
0
10
25.6351180999
20
54.6032842703
30
0
0
SPLINE
5
5D
100
AcDbEntity
8
komachi
6
ByLayer
62
7
370
-1
100
AcDbSpline
210
0
220
0
230
1
70
8
71
3
72
8
73
4
74
0
42
1e-07
43
1e-07
40
0
40
0
40
0
40
0
40
1
40
1
40
1
40
1
10
25.6351180999
20
54.6032842703
30
0
10
25.5712607959
20
54.6025233843
30
0
10
25.2299219099
20
54.6901504623
30
0
10
24.8752700179
20
54.7984940123
30
0
0
SPLINE
5
5E
100
AcDbEntity
8
komachi
6
ByLayer
62
7
370
-1
100
AcDbSpline
210
0
220
0
230
1
70
8
71
3
72
8
73
4
74
0
42
1e-07
43
1e-07
40
0
40
0
40
0
40
0
40
1
40
1
40
1
40
1
10
24.8752700179
20
54.7984940123
30
0
10
24.5206183639
20
54.9068387523
30
0
10
23.8858723639
20
55.0925849003
30
0
10
23.4647235099
20
55.2099034303
30
0
0
SPLINE
5
5F
100
AcDbEntity
8
komachi
6
ByLayer
62
7
370
-1
100
AcDbSpline
210
0
220
0
230
1
70
8
71
3
72
8
73
4
74
0
42
1e-07
43
1e-07
40
0
40
0
40
0
40
0
40
1
40
1
40
1
40
1
10
23.4647235099
20
55.2099034303
30
0
10
23.0435744179
20
55.3272219603
30
0
10
22.4088284179
20
55.5108689483
30
0
10
22.0541767639
20
55.6192136883
30
0
0
SPLINE
5
60
100
AcDbEntity
8
komachi
6
ByLayer
62
7
370
-1
100
AcDbSpline
210
0
220
0
230
1
70
8
71
3
72
8
73
4
74
0
42
1e-07
43
1e-07
40
0
40
0
40
0
40
0
40
1
40
1
40
1
40
1
10
22.0541767639
20
55.6192136883
30
0
10
21.6995251099
20
55.7275579523
30
0
10
21.3583735299
20
55.8172813343
30
0
10
21.2964278419
20
55.8165223523
30
0
0
SPLINE
5
61
100
AcDbEntity
8
komachi
6
ByLayer
62
7
370
-1
100
AcDbSpline
210
0
220
0
230
1
70
8
71
3
72
8
73
4
74
0
42
1e-07
43
1e-07
40
0
40
0
40
0
40
0
40
1
40
1
40
1
40
1
10
21.2964278419
20
55.8165223523
30
0
10
21.0508032739
20
55.8135071303
30
0
10
20.2181750299
20
56.1745338523
30
0
10
19.9992285959
20
56.3790617703
30
0
0
SPLINE
5
62
100
AcDbEntity
8
komachi
6
ByLayer
62
7
370
-1
100
AcDbSpline
210
0
220
0
230
1
70
8
71
3
72
8
73
4
74
0
42
1e-07
43
1e-07
40
0
40
0
40
0
40
0
40
1
40
1
40
1
40
1
10
19.9992285959
20
56.3790617703
30
0
10
19.8715513539
20
56.4983290443
30
0
10
19.6817475439
20
56.6501970823
30
0
10
19.5794230139
20
56.7170053483
30
0
0
SPLINE
5
63
100
AcDbEntity
8
komachi
6
ByLayer
62
7
370
-1
100
AcDbSpline
210
0
220
0
230
1
70
8
71
3
72
8
73
4
74
0
42
1e-07
43
1e-07
40
0
40
0
40
0
40
0
40
1
40
1
40
1
40
1
10
19.5794230139
20
56.7170053483
30
0
10
19.3388188179
20
56.8740986763
30
0
10
16.8945321619
20
57.8294899383
30
0
10
16.7331412679
20
57.8294899383
30
0
0
SPLINE
5
64
100
AcDbEntity
8
komachi
6
ByLayer
62
7
370
-1
100
AcDbSpline
210
0
220
0
230
1
70
8
71
3
72
8
73
4
74
0
42
1e-07
43
1e-07
40
0
40
0
40
0
40
0
40
1
40
1
40
1
40
1
10
16.7331412679
20
57.8294899383
30
0
10
16.6908477159
20
57.8294899383
30
0
10
16.4198159339
20
57.9143088543
30
0
10
16.1307204279
20
58.0184024383
30
0
0
SPLINE
5
65
100
AcDbEntity
8
komachi
6
ByLayer
62
7
370
-1
100
AcDbSpline
210
0
220
0
230
1
70
8
71
3
72
8
73
4
74
0
42
1e-07
43
1e-07
40
0
40
0
40
0
40
0
40
1
40
1
40
1
40
1
10
16.1307204279
20
58.0184024383
30
0
10
15.8416261119
20
58.1224962603
30
0
10
15.2984979739
20
58.2998241103
30
0
10
14.9216804279
20
58.4130197663
30
0
0
SPLINE
5
66
100
AcDbEntity
8
komachi
6
ByLayer
62
7
370
-1
100
AcDbSpline
210
0
220
0
230
1
70
8
71
3
72
8
73
4
74
0
42
1e-07
43
1e-07
40
0
40
0
40
0
40
0
40
1
40
1
40
1
40
1
10
14.9216804279
20
58.4130197663
30
0
10
14.5448628819
20
58.5262154223
30
0
10
13.9278326499
20
58.7133688643
30
0
10
13.5510153419
20
58.8286272663
30
0
0
SPLINE
5
67
100
AcDbEntity
8
komachi
6
ByLayer
62
7
370
-1
100
AcDbSpline
210
0
220
0
230
1
70
8
71
3
72
8
73
4
74
0
42
1e-07
43
1e-07
40
0
40
0
40
0
40
0
40
1
40
1
40
1
40
1
10
13.5510153419
20
58.8286272663
30
0
10
12.3800424899
20
59.1867965603
30
0
10
11.2917310839
20
59.1868308323
30
0
10
10.9335275179
20
58.8286272663
30
0
0
SPLINE
5
68
100
AcDbEntity
8
komachi
6
ByLayer
62
7
370
-1
100
AcDbSpline
210
0
220
0
230
1
70
8
71
3
72
8
73
4
74
0
42
1e-07
43
1e-07
40
0
40
0
40
0
40
0
40
1
40
1
40
1
40
1
10
10.9335275179
20
58.8286272663
30
0
10
10.8650354019
20
58.7601351503
30
0
10
10.8096849319
20
58.5832842523
30
0
10
10.8096849319
20
58.4361090983
30
0
0
SPLINE
5
69
100
AcDbEntity
8
komachi
6
ByLayer
62
7
370
-1
100
AcDbSpline
210
0
220
0
230
1
70
8
71
3
72
8
73
4
74
0
42
1e-07
43
1e-07
40
0
40
0
40
0
40
0
40
1
40
1
40
1
40
1
10
10.8096849319
20
58.4361090983
30
0
10
10.8096849319
20
58.2194579363
30
0
10
10.8940968679
20
58.0851207403
30
0
10
11.2504809239
20
57.7287366843
30
0
0
SPLINE
5
6A
100
AcDbEntity
8
komachi
6
ByLayer
62
7
370
-1
100
AcDbSpline
210
0
220
0
230
1
70
8
71
3
72
8
73
4
74
0
42
1e-07
43
1e-07
40
0
40
0
40
0
40
0
40
1
40
1
40
1
40
1
10
11.2504809239
20
57.7287366843
30
0
10
11.6689720319
20
57.3102455763
30
0
10
11.6872228239
20
57.2735747743
30
0
10
11.6388010099
20
56.9751858443
30
0
0
SPLINE
5
6B
100
AcDbEntity
8
komachi
6
ByLayer
62
7
370
-1
100
AcDbSpline
210
0
220
0
230
1
70
8
71
3
72
8
73
4
74
0
42
1e-07
43
1e-07
40
0
40
0
40
0
40
0
40
1
40
1
40
1
40
1
10
11.6388010099
20
56.9751858443
30
0
10
11.6107888859
20
56.8025670623
30
0
10
11.5048676999
20
56.4452333863
30
0
10
11.4016109239
20
56.1817533443
30
0
0
SPLINE
5
6C
100
AcDbEntity
8
komachi
6
ByLayer
62
7
370
-1
100
AcDbSpline
210
0
220
0
230
1
70
8
71
3
72
8
73
4
74
0
42
1e-07
43
1e-07
40
0
40
0
40
0
40
0
40
1
40
1
40
1
40
1
10
11.4016109239
20
56.1817533443
30
0
10
11.2983536719
20
55.9182733023
30
0
10
11.2130342419
20
55.6286920383
30
0
10
11.2126984239
20
55.5373516843
30
0
0
SPLINE
5
6D
100
AcDbEntity
8
komachi
6
ByLayer
62
7
370
-1
100
AcDbSpline
210
0
220
0
230
1
70
8
71
3
72
8
73
4
74
0
42
1e-07
43
1e-07
40
0
40
0
40
0
40
0
40
1
40
1
40
1
40
1
10
11.2126984239
20
55.5373516843
30
0
10
11.2123597499
20
55.4460120443
30
0
10
11.1371377079
20
55.1349260523
30
0
10
11.0468750179
20
54.8467715983
30
0
0
SPLINE
5
6E
100
AcDbEntity
8
komachi
6
ByLayer
62
7
370
-1
100
AcDbSpline
210
0
220
0
230
1
70
8
71
3
72
8
73
4
74
0
42
1e-07
43
1e-07
40
0
40
0
40
0
40
0
40
1
40
1
40
1
40
1
10
11.0468750179
20
54.8467715983
30
0
10
10.9566125659
20
54.5586171443
30
0
10
10.8545255599
20
54.1604733703
30
0
10
10.8180810959
20
53.9609817703
30
0
0
SPLINE
5
6F
100
AcDbEntity
8
komachi
6
ByLayer
62
7
370
-1
100
AcDbSpline
210
0
220
0
230
1
70
8
71
3
72
8
73
4
74
0
42
1e-07
43
1e-07
40
0
40
0
40
0
40
0
40
1
40
1
40
1
40
1
10
10.8180810959
20
53.9609817703
30
0
10
10.7816366319
20
53.7614901703
30
0
10
10.6743569419
20
53.2882854803
30
0
10
10.5808910099
20
52.9114679343
30
0
0
SPLINE
5
70
100
AcDbEntity
8
komachi
6
ByLayer
62
7
370
-1
100
AcDbSpline
210
0
220
0
230
1
70
8
71
3
72
8
73
4
74
0
42
1e-07
43
1e-07
40
0
40
0
40
0
40
0
40
1
40
1
40
1
40
1
10
10.5808910099
20
52.9114679343
30
0
10
10.3370188359
20
51.9282732743
30
0
10
10.1819432719
20
51.1816729863
30
0
10
10.0897185099
20
50.5353685163
30
0
0
SPLINE
5
71
100
AcDbEntity
8
komachi
6
ByLayer
62
7
370
-1
100
AcDbSpline
210
0
220
0
230
1
70
8
71
3
72
8
73
4
74
0
42
1e-07
43
1e-07
40
0
40
0
40
0
40
0
40
1
40
1
40
1
40
1
10
10.0897185099
20
50.5353685163
30
0
10
9.61058404989
20
47.1776292923
30
0
10
9.58254693589
20
46.7759585963
30
0
10
9.61953618189
20
43.8142815983
30
0
0
SPLINE
5
72
100
AcDbEntity
8
komachi
6
ByLayer
62
7
370
-1
100
AcDbSpline
210
0
220
0
230
1
70
8
71
3
72
8
73
4
74
0
42
1e-07
43
1e-07
40
0
40
0
40
0
40
0
40
1
40
1
40
1
40
1
10
9.61953618189
20
43.8142815983
30
0
10
9.65509885589
20
40.9668453143
30
0
10
9.80055088989
20
39.2827680243
30
0
10
10.1778775179
20
37.3555730203
30
0
0
SPLINE
5
73
100
AcDbEntity
8
komachi
6
ByLayer
62
7
370
-1
100
AcDbSpline
210
0
220
0
230
1
70
8
71
3
72
8
73
4
74
0
42
1e-07
43
1e-07
40
0
40
0
40
0
40
0
40
1
40
1
40
1
40
1
10
10.1778775179
20
37.3555730203
30
0
10
10.2690143819
20
36.8900926203
30
0
10
10.3729922979
20
36.3062995643
30
0
10
10.4066716779
20
36.0583740123
30
0
0
SPLINE
5
74
100
AcDbEntity
8
komachi
6
ByLayer
62
7
370
-1
100
AcDbSpline
210
0
220
0
230
1
70
8
71
3
72
8
73
4
74
0
42
1e-07
43
1e-07
40
0
40
0
40
0
40
0
40
1
40
1
40
1
40
1
10
10.4066716779
20
36.0583740123
30
0
10
10.5987576699
20
34.6443612723
30
0
10
11.6061790639
20
31.7394660763
30
0
10
12.5707692639
20
29.8200634303
30
0
0
SPLINE
5
75
100
AcDbEntity
8
komachi
6
ByLayer
62
7
370
-1
100
AcDbSpline
210
0
220
0
230
1
70
8
71
3
72
8
73
4
74
0
42
1e-07
43
1e-07
40
0
40
0
40
0
40
0
40
1
40
1
40
1
40
1
10
12.5707692639
20
29.8200634303
30
0
10
12.6376051379
20
29.6870690303
30
0
10
12.7288726639
20
29.5057130303
30
0
10
12.7722760099
20
29.4170499383
30
0
0
SPLINE
5
76
100
AcDbEntity
8
komachi
6
ByLayer
62
7
370
-1
100
AcDbSpline
210
0
220
0
230
1
70
8
71
3
72
8
73
4
74
0
42
1e-07
43
1e-07
40
0
40
0
40
0
40
0
40
1
40
1
40
1
40
1
10
12.7722760099
20
29.4170499383
30
0
10
12.8156798319
20
29.3283870843
30
0
10
12.8807073819
20
29.2001783883
30
0
10
12.9171087679
20
29.1336811883
30
0
0
SPLINE
5
77
100
AcDbEntity
8
komachi
6
ByLayer
62
7
370
-1
100
AcDbSpline
210
0
220
0
230
1
70
8
71
3
72
8
73
4
74
0
42
1e-07
43
1e-07
40
0
40
0
40
0
40
0
40
1
40
1
40
1
40
1
10
12.9171087679
20
29.1336811883
30
0
10
12.9535103919
20
29.0671839883
30
0
10
13.1045061599
20
28.7774342203
30
0
10
13.2529534239
20
28.4892797663
30
0
0
SPLINE
5
78
100
AcDbEntity
8
komachi
6
ByLayer
62
7
370
-1
100
AcDbSpline
210
0
220
0
230
1
70
8
71
3
72
8
73
4
74
0
42
1e-07
43
1e-07
40
0
40
0
40
0
40
0
40
1
40
1
40
1
40
1
10
13.2529534239
20
28.4892797663
30
0
10
13.4014011639
20
28.2011253123
30
0
10
13.6749010059
20
27.6816960243
30
0
10
13.8616712679
20
27.3348145943
30
0
0
SPLINE
5
79
100
AcDbEntity
8
komachi
6
ByLayer
62
7
370
-1
100
AcDbSpline
210
0
220
0
230
1
70
8
71
3
72
8
73
4
74
0
42
1e-07
43
1e-07
40
0
40
0
40
0
40
0
40
1
40
1
40
1
40
1
10
13.8616712679
20
27.3348145943
30
0
10
14.0484424819
20
26.9879334023
30
0
10
14.2331899819
20
26.6429374083
30
0
10
14.2730809239
20
26.5686692703
30
0
0
SPLINE
5
7A
100
AcDbEntity
8
komachi
6
ByLayer
62
7
370
-1
100
AcDbSpline
210
0
220
0
230
1
70
8
71
3
72
8
73
4
74
0
42
1e-07
43
1e-07
40
0
40
0
40
0
40
0
40
1
40
1
40
1
40
1
10
14.2730809239
20
26.5686692703
30
0
10
14.4556062179
20
26.2288445403
30
0
10
14.7912921279
20
25.4440043163
30
0
10
14.8461154279
20
25.2252915983
30
0
0
SPLINE
5
7B
100
AcDbEntity
8
komachi
6
ByLayer
62
7
370
-1
100
AcDbSpline
210
0
220
0
230
1
70
8
71
3
72
8
73
4
74
0
42
1e-07
43
1e-07
40
0
40
0
40
0
40
0
40
1
40
1
40
1
40
1
10
14.8461154279
20
25.2252915983
30
0
10
14.8794525639
20
25.0922971983
30
0
10
14.9827214779
20
24.6941536623
30
0
10
15.0770085099
20
24.3395017703
30
0
0
SPLINE
5
7C
100
AcDbEntity
8
komachi
6
ByLayer
62
7
370
-1
100
AcDbSpline
210
0
220
0
230
1
70
8
71
3
72
8
73
4
74
0
42
1e-07
43
1e-07
40
0
40
0
40
0
40
0
40
1
40
1
40
1
40
1
10
15.0770085099
20
24.3395017703
30
0
10
15.2140089259
20
23.8241834563
30
0
10
15.2482321359
20
23.4753042543
30
0
10
15.2428316779
20
22.6057048523
30
0
0
SPLINE
5
7D
100
AcDbEntity
8
komachi
6
ByLayer
62
7
370
-1
100
AcDbSpline
210
0
220
0
230
1
70
8
71
3
72
8
73
4
74
0
42
1e-07
43
1e-07
40
0
40
0
40
0
40
0
40
1
40
1
40
1
40
1
10
15.2428316779
20
22.6057048523
30
0
10
15.2391172119
20
22.0072300523
30
0
10
15.2364237659
20
21.2917135163
30
0
10
15.2386335959
20
21.0146417703
30
0
0
SPLINE
5
7E
100
AcDbEntity
8
komachi
6
ByLayer
62
7
370
-1
100
AcDbSpline
210
0
220
0
230
1
70
8
71
3
72
8
73
4
74
0
42
1e-07
43
1e-07
40
0
40
0
40
0
40
0
40
1
40
1
40
1
40
1
10
18.3556898459
20
20.7312730203
30
0
10
18.3848122399
20
20.8531847123
30
0
10
18.4368849739
20
20.9892017123
30
0
10
18.4711362679
20
21.0335330203
30
0
0
SPLINE
5
7F
100
AcDbEntity
8
komachi
6
ByLayer
62
7
370
-1
100
AcDbSpline
210
0
220
0
230
1
70
8
71
3
72
8
73
4
74
0
42
1e-07
43
1e-07
40
0
40
0
40
0
40
0
40
1
40
1
40
1
40
1
10
18.4711362679
20
21.0335330203
30
0
10
18.5053885139
20
21.0778645663
30
0
10
18.5588675899
20
21.2592205663
30
0
10
18.5907810099
20
21.4365465123
30
0
0
SPLINE
5
80
100
AcDbEntity
8
komachi
6
ByLayer
62
7
370
-1
100
AcDbSpline
210
0
220
0
230
1
70
8
71
3
72
8
73
4
74
0
42
1e-07
43
1e-07
40
0
40
0
40
0
40
0
40
1
40
1
40
1
40
1
10
18.5907810099
20
21.4365465123
30
0
10
18.6226949059
20
21.6138722203
30
0
10
18.6736814079
20
21.7952282203
30
0
10
18.7041285099
20
21.8395597663
30
0
0
SPLINE
5
81
100
AcDbEntity
8
komachi
6
ByLayer
62
7
370
-1
100
AcDbSpline
210
0
220
0
230
1
70
8
71
3
72
8
73
4
74
0
42
1e-07
43
1e-07
40
0
40
0
40
0
40
0
40
1
40
1
40
1
40
1
10
18.7041285099
20
21.8395597663
30
0
10
18.7345746599
20
21.8838913123
30
0
10
18.8263374639
20
22.1382095443
30
0
10
18.9077341779
20
22.4041983443
30
0
0
SPLINE
5
82
100
AcDbEntity
8
komachi
6
ByLayer
62
7
370
-1
100
AcDbSpline
210
0
220
0
230
1
70
8
71
3
72
8
73
4
74
0
42
1e-07
43
1e-07
40
0
40
0
40
0
40
0
40
1
40
1
40
1
40
1
10
18.9077341779
20
22.4041983443
30
0
10
18.9891306539
20
22.6701871443
30
0
10
19.1370950159
20
23.1235771443
30
0
10
19.2351824319
20
23.4117315983
30
0
0
SPLINE
5
83
100
AcDbEntity
8
komachi
6
ByLayer
62
7
370
-1
100
AcDbSpline
210
0
220
0
230
1
70
8
71
3
72
8
73
4
74
0
42
1e-07
43
1e-07
40
0
40
0
40
0
40
0
40
1
40
1
40
1
40
1
10
19.2351824319
20
23.4117315983
30
0
10
19.6153986179
20
24.5287120083
30
0
10
19.6759784239
20
24.7770916643
30
0
10
19.6759784239
20
25.1980041843
30
0
0
SPLINE
5
84
100
AcDbEntity
8
komachi
6
ByLayer
62
7
370
-1
100
AcDbSpline
210
0
220
0
230
1
70
8
71
3
72
8
73
4
74
0
42
1e-07
43
1e-07
40
0
40
0
40
0
40
0
40
1
40
1
40
1
40
1
10
19.6759784239
20
25.1980041843
30
0
10
19.6759784239
20
25.6260681283
30
0
10
19.4981136459
20
26.2647865863
30
0
10
19.1890037679
20
26.9380983443
30
0
0
SPLINE
5
85
100
AcDbEntity
8
komachi
6
ByLayer
62
7
370
-1
100
AcDbSpline
210
0
220
0
230
1
70
8
71
3
72
8
73
4
74
0
42
1e-07
43
1e-07
40
0
40
0
40
0
40
0
40
1
40
1
40
1
40
1
10
19.1890037679
20
26.9380983443
30
0
10
19.1027287679
20
27.1260240963
30
0
10
19.0315767639
20
27.3087919123
30
0
10
19.0315767639
20
27.3453096803
30
0
0
SPLINE
5
86
100
AcDbEntity
8
komachi
6
ByLayer
62
7
370
-1
100
AcDbSpline
210
0
220
0
230
1
70
8
71
3
72
8
73
4
74
0
42
1e-07
43
1e-07
40
0
40
0
40
0
40
0
40
1
40
1
40
1
40
1
10
19.0315767639
20
27.3453096803
30
0
10
19.0315767639
20
27.3818272103
30
0
10
18.9408987639
20
27.6004485363
30
0
10
18.8300700179
20
27.8301849383
30
0
0
SPLINE
5
87
100
AcDbEntity
8
komachi
6
ByLayer
62
7
370
-1
100
AcDbSpline
210
0
220
0
230
1
70
8
71
3
72
8
73
4
74
0
42
1e-07
43
1e-07
40
0
40
0
40
0
40
0
40
1
40
1
40
1
40
1
10
18.8300700179
20
27.8301849383
30
0
10
18.7192415099
20
28.0599220543
30
0
10
18.6285635099
20
28.2865632663
30
0
10
18.6285635099
20
28.3339516843
30
0
0
SPLINE
5
88
100
AcDbEntity
8
komachi
6
ByLayer
62
7
370
-1
100
AcDbSpline
210
0
220
0
230
1
70
8
71
3
72
8
73
4
74
0
42
1e-07
43
1e-07
40
0
40
0
40
0
40
0
40
1
40
1
40
1
40
1
10
18.6285635099
20
28.3339516843
30
0
10
18.6285635099
20
28.3813412923
30
0
10
18.5378855099
20
28.6185121003
30
0
10
18.4270567639
20
28.8608077623
30
0
0
SPLINE
5
89
100
AcDbEntity
8
komachi
6
ByLayer
62
7
370
-1
100
AcDbSpline
210
0
220
0
230
1
70
8
71
3
72
8
73
4
74
0
42
1e-07
43
1e-07
40
0
40
0
40
0
40
0
40
1
40
1
40
1
40
1
10
18.4270567639
20
28.8608077623
30
0
10
18.3162280179
20
29.1031039003
30
0
10
18.2255500179
20
29.3298829143
30
0
10
18.2255500179
20
29.3645742703
30
0
0
SPLINE
5
8A
100
AcDbEntity
8
komachi
6
ByLayer
62
7
370
-1
100
AcDbSpline
210
0
220
0
230
1
70
8
71
3
72
8
73
4
74
0
42
1e-07
43
1e-07
40
0
40
0
40
0
40
0
40
1
40
1
40
1
40
1
10
18.2255500179
20
29.3645742703
30
0
10
18.2255500179
20
29.3992651503
30
0
10
18.1549751639
20
29.5731324803
30
0
10
18.0681230139
20
29.7528945943
30
0
0
SPLINE
5
8B
100
AcDbEntity
8
komachi
6
ByLayer
62
7
370
-1
100
AcDbSpline
210
0
220
0
230
1
70
8
71
3
72
8
73
4
74
0
42
1e-07
43
1e-07
40
0
40
0
40
0
40
0
40
1
40
1
40
1
40
1
10
18.0681230139
20
29.7528945943
30
0
10
17.9116691919
20
30.0767176323
30
0
10
17.8137619419
20
30.3293701023
30
0
10
17.5412671739
20
31.1088665123
30
0
0
SPLINE
5
8C
100
AcDbEntity
8
komachi
6
ByLayer
62
7
370
-1
100
AcDbSpline
210
0
220
0
230
1
70
8
71
3
72
8
73
4
74
0
42
1e-07
43
1e-07
40
0
40
0
40
0
40
0
40
1
40
1
40
1
40
1
10
17.5412671739
20
31.1088665123
30
0
10
17.4637803239
20
31.3305237663
30
0
10
17.3306797759
20
31.6684585383
30
0
10
17.2474030999
20
31.8582192703
30
0
0
SPLINE
5
8D
100
AcDbEntity
8
komachi
6
ByLayer
62
7
370
-1
100
AcDbSpline
210
0
220
0
230
1
70
8
71
3
72
8
73
4
74
0
42
1e-07
43
1e-07
40
0
40
0
40
0
40
0
40
1
40
1
40
1
40
1
10
17.2474030999
20
31.8582192703
30
0
10
17.1641259479
20
32.0479788123
30
0
10
17.0649268339
20
32.3377285803
30
0
10
17.0249061819
20
32.5026209303
30
0
0
SPLINE
5
8E
100
AcDbEntity
8
komachi
6
ByLayer
62
7
370
-1
100
AcDbSpline
210
0
220
0
230
1
70
8
71
3
72
8
73
4
74
0
42
1e-07
43
1e-07
40
0
40
0
40
0
40
0
40
1
40
1
40
1
40
1
10
17.0249061819
20
32.5026209303
30
0
10
16.9848862439
20
32.6675118523
30
0
10
16.8755211979
20
33.0195695443
30
0
10
16.7835180139
20
33.2855583443
30
0
0
SPLINE
5
8F
100
AcDbEntity
8
komachi
6
ByLayer
62
7
370
-1
100
AcDbSpline
210
0
220
0
230
1
70
8
71
3
72
8
73
4
74
0
42
1e-07
43
1e-07
40
0
40
0
40
0
40
0
40
1
40
1
40
1
40
1
10
16.7835180139
20
33.2855583443
30
0
10
16.0161748359
20
35.5040177483
30
0
10
15.8082190039
20
37.1056449363
30
0
10
15.8095691779
20
40.7811865123
30
0
0
SPLINE
5
90
100
AcDbEntity
8
komachi
6
ByLayer
62
7
370
-1
100
AcDbSpline
210
0
220
0
230
1
70
8
71
3
72
8
73
4
74
0
42
1e-07
43
1e-07
40
0
40
0
40
0
40
0
40
1
40
1
40
1
40
1
10
15.8095691779
20
40.7811865123
30
0
10
15.8112242299
20
45.2950883243
30
0
10
16.1098573479
20
47.5027851303
30
0
10
17.1844323459
20
50.9383817703
30
0
0
SPLINE
5
91
100
AcDbEntity
8
komachi
6
ByLayer
62
7
370
-1
100
AcDbSpline
210
0
220
0
230
1
70
8
71
3
72
8
73
4
74
0
42
1e-07
43
1e-07
40
0
40
0
40
0
40
0
40
1
40
1
40
1
40
1
10
17.1844323459
20
50.9383817703
30
0
10
17.2814935059
20
51.2487021163
30
0
10
17.3887884279
20
51.6291298843
30
0
10
17.4237215919
20
51.7842899383
30
0
0
SPLINE
5
92
100
AcDbEntity
8
komachi
6
ByLayer
62
7
370
-1
100
AcDbSpline
210
0
220
0
230
1
70
8
71
3
72
8
73
4
74
0
42
1e-07
43
1e-07
40
0
40
0
40
0
40
0
40
1
40
1
40
1
40
1
10
17.4237215919
20
51.7842899383
30
0
10
17.4830940239
20
52.0480003643
30
0
10
17.9245723619
20
53.3156573843
30
0
10
18.1331929279
20
53.8245449383
30
0
0
SPLINE
5
93
100
AcDbEntity
8
komachi
6
ByLayer
62
7
370
-1
100
AcDbSpline
210
0
220
0
230
1
70
8
71
3
72
8
73
4
74
0
42
1e-07
43
1e-07
40
0
40
0
40
0
40
0
40
1
40
1
40
1
40
1
10
18.1331929279
20
53.8245449383
30
0
10
18.1843534079
20
53.9493421423
30
0
10
18.2255500179
20
54.1024811003
30
0
10
18.2255500179
20
54.1645874383
30
0
0
SPLINE
5
94
100
AcDbEntity
8
komachi
6
ByLayer
62
7
370
-1
100
AcDbSpline
210
0
220
0
230
1
70
8
71
3
72
8
73
4
74
0
42
1e-07
43
1e-07
40
0
40
0
40
0
40
0
40
1
40
1
40
1
40
1
10
18.2255500179
20
54.1645874383
30
0
10
18.2255500179
20
54.2987487523
30
0
10
18.4771493379
20
54.8454954423
30
0
10
18.5425034239
20
54.8530686023
30
0
0
SPLINE
5
95
100
AcDbEntity
8
komachi
6
ByLayer
62
7
370
-1
100
AcDbSpline
210
0
220
0
230
1
70
8
71
3
72
8
73
4
74
0
42
1e-07
43
1e-07
40
0
40
0
40
0
40
0
40
1
40
1
40
1
40
1
10
18.5425034239
20
54.8530686023
30
0
10
18.5675419759
20
54.8559702983
30
0
10
19.0093028199
20
54.8622270803
30
0
10
19.5248484239
20
54.8677617703
30
0
0
SPLINE
5
96
100
AcDbEntity
8
komachi
6
ByLayer
62
7
370
-1
100
AcDbSpline
210
0
220
0
230
1
70
8
71
3
72
8
73
4
74
0
42
1e-07
43
1e-07
40
0
40
0
40
0
40
0
40
1
40
1
40
1
40
1
10
19.5248484239
20
54.8677617703
30
0
10
20.3396956879
20
54.8765077943
30
0
10
20.5526887899
20
54.8491063783
30
0
10
21.1557929279
20
54.6578590983
30
0
0
SPLINE
5
97
100
AcDbEntity
8
komachi
6
ByLayer
62
7
370
-1
100
AcDbSpline
210
0
220
0
230
1
70
8
71
3
72
8
73
4
74
0
42
1e-07
43
1e-07
40
0
40
0
40
0
40
0
40
1
40
1
40
1
40
1
10
21.1557929279
20
54.6578590983
30
0
10
21.5373699979
20
54.5368589463
30
0
10
22.1496392779
20
54.3485616763
30
0
10
22.5159629279
20
54.2401524383
30
0
0
SPLINE
5
98
100
AcDbEntity
8
komachi
6
ByLayer
62
7
370
-1
100
AcDbSpline
210
0
220
0
230
1
70
8
71
3
72
8
73
4
74
0
42
1e-07
43
1e-07
40
0
40
0
40
0
40
0
40
1
40
1
40
1
40
1
10
22.5159629279
20
54.2401524383
30
0
10
22.8822872919
20
54.1317446283
30
0
10
23.4845717579
20
53.9528490723
30
0
10
23.8530435959
20
53.8413372663
30
0
0
SPLINE
5
99
100
AcDbEntity
8
komachi
6
ByLayer
62
7
370
-1
100
AcDbSpline
210
0
220
0
230
1
70
8
71
3
72
8
73
4
74
0
42
1e-07
43
1e-07
40
0
40
0
40
0
40
0
40
1
40
1
40
1
40
1
10
23.8530435959
20
53.8413372663
30
0
10
24.2215154339
20
53.7298240323
30
0
10
24.5665114279
20
53.6384736823
30
0
10
24.6191886819
20
53.6398305203
30
0
0
SPLINE
5
9A
100
AcDbEntity
8
komachi
6
ByLayer
62
7
370
-1
100
AcDbSpline
210
0
220
0
230
1
70
8
71
3
72
8
73
4
74
0
42
1e-07
43
1e-07
40
0
40
0
40
0
40
0
40
1
40
1
40
1
40
1
10
24.6191886819
20
53.6398305203
30
0
10
24.6718659359
20
53.6411806943
30
0
10
25.0033946999
20
53.5527898743
30
0
10
25.3580465919
20
53.4425220943
30
0
0
SPLINE
5
9B
100
AcDbEntity
8
komachi
6
ByLayer
62
7
370
-1
100
AcDbSpline
210
0
220
0
230
1
70
8
71
3
72
8
73
4
74
0
42
1e-07
43
1e-07
40
0
40
0
40
0
40
0
40
1
40
1
40
1
40
1
10
25.3580465919
20
53.4425220943
30
0
10
25.7126982459
20
53.3322547903
30
0
10
26.3474442459
20
53.1475632203
30
0
10
26.7685930999
20
53.0332115983
30
0
0
SPLINE
5
9C
100
AcDbEntity
8
komachi
6
ByLayer
62
7
370
-1
100
AcDbSpline
210
0
220
0
230
1
70
8
71
3
72
8
73
4
74
0
42
1e-07
43
1e-07
40
0
40
0
40
0
40
0
40
1
40
1
40
1
40
1
10
26.7685930999
20
53.0332115983
30
0
10
27.1897421919
20
52.9188604523
30
0
10
27.8443028819
20
52.7373071503
30
0
10
28.2211204279
20
52.6301983443
30
0
0
SPLINE
5
9D
100
AcDbEntity
8
komachi
6
ByLayer
62
7
370
-1
100
AcDbSpline
210
0
220
0
230
1
70
8
71
3
72
8
73
4
74
0
42
1e-07
43
1e-07
40
0
40
0
40
0
40
0
40
1
40
1
40
1
40
1
10
28.2211204279
20
52.6301983443
30
0
10
28.5979379739
20
52.5230885863
30
0
10
29.0690437419
20
52.3964235583
30
0
10
29.2685353419
20
52.3468295943
30
0
0
SPLINE
5
9E
100
AcDbEntity
8
komachi
6
ByLayer
62
7
370
-1
100
AcDbSpline
210
0
220
0
230
1
70
8
71
3
72
8
73
4
74
0
42
1e-07
43
1e-07
40
0
40
0
40
0
40
0
40
1
40
1
40
1
40
1
10
29.2685353419
20
52.3468295943
30
0
10
29.7249693619
20
52.2333583343
30
0
10
30.0783857959
20
51.9676032503
30
0
10
29.9108378419
20
51.8640530203
30
0
0
SPLINE
5
9F
100
AcDbEntity
8
komachi
6
ByLayer
62
7
370
-1
100
AcDbSpline
210
0
220
0
230
1
70
8
71
3
72
8
73
4
74
0
42
1e-07
43
1e-07
40
0
40
0
40
0
40
0
40
1
40
1
40
1
40
1
10
29.9108378419
20
51.8640530203
30
0
10
29.6840131319
20
51.7238669743
30
0
10
29.9187501519
20
51.6841909463
30
0
10
30.4062084239
20
51.7800920943
30
0
0
SPLINE
5
A0
100
AcDbEntity
8
komachi
6
ByLayer
62
7
370
-1
100
AcDbSpline
210
0
220
0
230
1
70
8
71
3
72
8
73
4
74
0
42
1e-07
43
1e-07
40
0
40
0
40
0
40
0
40
1
40
1
40
1
40
1
10
30.4062084239
20
51.7800920943
30
0
10
30.7980366299
20
51.8571474503
30
0
10
30.9165306419
20
51.8556899383
30
0
10
30.9645497599
20
51.7779929343
30
0
0
SPLINE
5
A1
100
AcDbEntity
8
komachi
6
ByLayer
62
7
370
-1
100
AcDbSpline
210
0
220
0
230
1
70
8
71
3
72
8
73
4
74
0
42
1e-07
43
1e-07
40
0
40
0
40
0
40
0
40
1
40
1
40
1
40
1
10
30.9645497599
20
51.7779929343
30
0
10
30.9980877679
20
51.7237291723
30
0
10
31.0752083359
20
51.6998318303
30
0
10
31.1366699319
20
51.7234183443
30
0
0
SPLINE
5
A2
100
AcDbEntity
8
komachi
6
ByLayer
62
7
370
-1
100
AcDbSpline
210
0
220
0
230
1
70
8
71
3
72
8
73
4
74
0
42
1e-07
43
1e-07
40
0
40
0
40
0
40
0
40
1
40
1
40
1
40
1
10
31.1366699319
20
51.7234183443
30
0
10
31.2813584619
20
51.7789394603
30
0
10
32.3926516239
20
51.5729747363
30
0
10
32.6542671739
20
51.4421485163
30
0
0
SPLINE
5
A3
100
AcDbEntity
8
komachi
6
ByLayer
62
7
370
-1
100
AcDbSpline
210
0
220
0
230
1
70
8
71
3
72
8
73
4
74
0
42
1e-07
43
1e-07
40
0
40
0
40
0
40
0
40
1
40
1
40
1
40
1
10
32.6542671739
20
51.4421485163
30
0
10
32.9067099659
20
51.3159092703
30
0
10
32.9738533359
20
51.2244165963
30
0
10
32.9754184239
20
51.0076497663
30
0
0
SPLINE
5
A4
100
AcDbEntity
8
komachi
6
ByLayer
62
7
370
-1
100
AcDbSpline
210
0
220
0
230
1
70
8
71
3
72
8
73
4
74
0
42
1e-07
43
1e-07
40
0
40
0
40
0
40
0
40
1
40
1
40
1
40
1
10
32.9754184239
20
51.0076497663
30
0
10
32.9760967239
20
50.9133325083
30
0
10
33.0294965459
20
50.7912899163
30
0
10
33.0950629279
20
50.7368752623
30
0
0
SPLINE
5
A5
100
AcDbEntity
8
komachi
6
ByLayer
62
7
370
-1
100
AcDbSpline
210
0
220
0
230
1
70
8
71
3
72
8
73
4
74
0
42
1e-07
43
1e-07
40
0
40
0
40
0
40
0
40
1
40
1
40
1
40
1
10
33.0950629279
20
50.7368752623
30
0
10
33.1835734619
20
50.6634179903
30
0
10
33.1935392359
20
50.5983990083
30
0
10
33.1328454279
20
50.4849917703
30
0
0
SPLINE
5
A6
100
AcDbEntity
8
komachi
6
ByLayer
62
7
370
-1
100
AcDbSpline
210
0
220
0
230
1
70
8
71
3
72
8
73
4
74
0
42
1e-07
43
1e-07
40
0
40
0
40
0
40
0
40
1
40
1
40
1
40
1
10
33.1328454279
20
50.4849917703
30
0
10
33.0747603379
20
50.3764604383
30
0
10
33.0778441039
20
50.3338617703
30
0
10
33.1433405139
20
50.3338617703
30
0
0
SPLINE
5
A7
100
AcDbEntity
8
komachi
6
ByLayer
62
7
370
-1
100
AcDbSpline
210
0
220
0
230
1
70
8
71
3
72
8
73
4
74
0
42
1e-07
43
1e-07
40
0
40
0
40
0
40
0
40
1
40
1
40
1
40
1
10
33.1433405139
20
50.3338617703
30
0
10
33.2004448059
20
50.3338617703
30
0
10
33.2175627179
20
50.2587494463
30
0
10
33.1874200179
20
50.1386522663
30
0
0
SPLINE
5
A8
100
AcDbEntity
8
komachi
6
ByLayer
62
7
370
-1
100
AcDbSpline
210
0
220
0
230
1
70
8
71
3
72
8
73
4
74
0
42
1e-07
43
1e-07
40
0
40
0
40
0
40
0
40
1
40
1
40
1
40
1
10
33.1874200179
20
50.1386522663
30
0
10
33.1465485159
20
49.9758086203
30
0
10
33.1625321199
20
49.9530196443
30
0
10
33.2944705139
20
49.9875222663
30
0
0
SPLINE
5
A9
100
AcDbEntity
8
komachi
6
ByLayer
62
7
370
-1
100
AcDbSpline
210
0
220
0
230
1
70
8
71
3
72
8
73
4
74
0
42
1e-07
43
1e-07
40
0
40
0
40
0
40
0
40
1
40
1
40
1
40
1
10
33.2944705139
20
49.9875222663
30
0
10
33.3808578499
20
50.0101132263
30
0
10
33.5082556799
20
50.1143162903
30
0
10
33.5778392639
20
50.2205142703
30
0
0
SPLINE
5
AA
100
AcDbEntity
8
komachi
6
ByLayer
62
7
370
-1
100
AcDbSpline
210
0
220
0
230
1
70
8
71
3
72
8
73
4
74
0
42
1e-07
43
1e-07
40
0
40
0
40
0
40
0
40
1
40
1
40
1
40
1
10
33.5778392639
20
50.2205142703
30
0
10
33.6684649039
20
50.3588272563
30
0
10
33.7777459359
20
50.4124124803
30
0
10
33.9640604279
20
50.4115259303
30
0
0
SPLINE
5
AB
100
AcDbEntity
8
komachi
6
ByLayer
62
7
370
-1
100
AcDbSpline
210
0
220
0
230
1
70
8
71
3
72
8
73
4
74
0
42
1e-07
43
1e-07
40
0
40
0
40
0
40
0
40
1
40
1
40
1
40
1
10
33.9640604279
20
50.4115259303
30
0
10
34.1559826759
20
50.4106151043
30
0
10
34.1942837779
20
50.3912911703
30
0
10
34.1067942639
20
50.3359609303
30
0
0
SPLINE
5
AC
100
AcDbEntity
8
komachi
6
ByLayer
62
7
370
-1
100
AcDbSpline
210
0
220
0
230
1
70
8
71
3
72
8
73
4
74
0
42
1e-07
43
1e-07
40
0
40
0
40
0
40
0
40
1
40
1
40
1
40
1
10
34.1067942639
20
50.3359609303
30
0
10
34.0415846439
20
50.2947191003
30
0
10
34.0098078359
20
50.2398374903
30
0
10
34.0354273459
20
50.2142172663
30
0
0
SPLINE
5
AD
100
AcDbEntity
8
komachi
6
ByLayer
62
7
370
-1
100
AcDbSpline
210
0
220
0
230
1
70
8
71
3
72
8
73
4
74
0
42
1e-07
43
1e-07
40
0
40
0
40
0
40
0
40
1
40
1
40
1
40
1
10
34.0354273459
20
50.2142172663
30
0
10
34.0989221759
20
50.1507224363
30
0
10
34.3460835099
20
50.2528634683
30
0
10
34.3460835099
20
50.3422579343
30
0
0
SPLINE
5
AE
100
AcDbEntity
8
komachi
6
ByLayer
62
7
370
-1
100
AcDbSpline
210
0
220
0
230
1
70
8
71
3
72
8
73
4
74
0
42
1e-07
43
1e-07
40
0
40
0
40
0
40
0
40
1
40
1
40
1
40
1
10
34.3460835099
20
50.3422579343
30
0
10
34.3460835099
20
50.3818459023
30
0
10
34.3984342279
20
50.4136248523
30
0
10
34.4615299319
20
50.4136248523
30
0
0
SPLINE
5
AF
100
AcDbEntity
8
komachi
6
ByLayer
62
7
370
-1
100
AcDbSpline
210
0
220
0
230
1
70
8
71
3
72
8
73
4
74
0
42
1e-07
43
1e-07
40
0
40
0
40
0
40
0
40
1
40
1
40
1
40
1
10
34.4615299319
20
50.4136248523
30
0
10
34.5246270639
20
50.4136248523
30
0
10
34.6884929199
20
50.5092813363
30
0
10
34.8267609239
20
50.6256266843
30
0
0
SPLINE
5
B0
100
AcDbEntity
8
komachi
6
ByLayer
62
7
370
-1
100
AcDbSpline
210
0
220
0
230
1
70
8
71
3
72
8
73
4
74
0
42
1e-07
43
1e-07
40
0
40
0
40
0
40
0
40
1
40
1
40
1
40
1
10
34.8267609239
20
50.6256266843
30
0
10
34.9650294039
20
50.7419713183
30
0
10
35.0987256659
20
50.8154473923
30
0
10
35.1248228419
20
50.7893509303
30
0
0
SPLINE
5
B1
100
AcDbEntity
8
komachi
6
ByLayer
62
7
370
-1
100
AcDbSpline
210
0
220
0
230
1
70
8
71
3
72
8
73
4
74
0
42
1e-07
43
1e-07
40
0
40
0
40
0
40
0
40
1
40
1
40
1
40
1
10
35.1248228419
20
50.7893509303
30
0
10
35.1799522099
20
50.7342206103
30
0
10
34.9414167099
20
50.2006215163
30
0
10
34.8309587679
20
50.1323552623
30
0
0
SPLINE
5
B2
100
AcDbEntity
8
komachi
6
ByLayer
62
7
370
-1
100
AcDbSpline
210
0
220
0
230
1
70
8
71
3
72
8
73
4
74
0
42
1e-07
43
1e-07
40
0
40
0
40
0
40
0
40
1
40
1
40
1
40
1
10
34.8309587679
20
50.1323552623
30
0
10
34.7898783019
20
50.1069654223
30
0
10
34.6752425079
20
49.9743941863
30
0
10
34.5769765919
20
49.8363922663
30
0
0
LWPOLYLINE
5
B3
100
AcDbEntity
8
komachi
6
ByLayer
62
7
370
-1
100
AcDbPolyline
90
5
70
0
43
0
10
15.2386335959
20
21.0146417703
10
15.2428316779
20
20.5108752623
10
16.7730229279
20
20.5108752623
10
18.3032141779
20
20.5108752623
10
18.3556898459
20
20.7312730203
0
SPLINE
5
B4
100
AcDbEntity
8
komachi
6
ByLayer
62
7
370
-1
100
AcDbSpline
210
0
220
0
230
1
70
8
71
3
72
8
73
4
74
0
42
1e-07
43
1e-07
40
0
40
0
40
0
40
0
40
1
40
1
40
1
40
1
10
34.7050172599
20
49.6411827623
30
0
10
34.9953729759
20
49.6956540603
30
0
10
35.0100028359
20
49.6903892623
30
0
10
34.9694947599
20
49.5131420943
30
0
0
SPLINE
5
B5
100
AcDbEntity
8
komachi
6
ByLayer
62
7
370
-1
100
AcDbSpline
210
0
220
0
230
1
70
8
71
3
72
8
73
4
74
0
42
1e-07
43
1e-07
40
0
40
0
40
0
40
0
40
1
40
1
40
1
40
1
10
34.9694947599
20
49.5131420943
30
0
10
34.9459922599
20
49.4103070543
30
0
10
34.7619985059
20
48.9182775163
30
0
10
34.5622834239
20
48.4195485163
30
0
0
SPLINE
5
B6
100
AcDbEntity
8
komachi
6
ByLayer
62
7
370
-1
100
AcDbSpline
210
0
220
0
230
1
70
8
71
3
72
8
73
4
74
0
42
1e-07
43
1e-07
40
0
40
0
40
0
40
0
40
1
40
1
40
1
40
1
10
34.5622834239
20
48.4195485163
30
0
10
34.1979370779
20
47.5097002203
30
0
10
34.1673088579
20
47.2908466063
30
0
10
34.4678271739
20
47.7709490123
30
0
0
SPLINE
5
B7
100
AcDbEntity
8
komachi
6
ByLayer
62
7
370
-1
100
AcDbSpline
210
0
220
0
230
1
70
8
71
3
72
8
73
4
74
0
42
1e-07
43
1e-07
40
0
40
0
40
0
40
0
40
1
40
1
40
1
40
1
10
34.4678271739
20
47.7709490123
30
0
10
34.5564900279
20
47.9125954263
30
0
10
34.6648837959
20
48.0847860463
30
0
10
34.7092153419
20
48.1550710163
30
0
0
SPLINE
5
B8
100
AcDbEntity
8
komachi
6
ByLayer
62
7
370
-1
100
AcDbSpline
210
0
220
0
230
1
70
8
71
3
72
8
73
4
74
0
42
1e-07
43
1e-07
40
0
40
0
40
0
40
0
40
1
40
1
40
1
40
1
10
34.7092153419
20
48.1550710163
30
0
10
34.7535466499
20
48.2253552723
30
0
10
34.9464961059
20
48.4238325163
30
0
10
35.1374168499
20
48.5958667703
30
0
0
LWPOLYLINE
5
B9
100
AcDbEntity
8
komachi
6
ByLayer
62
7
370
-1
100
AcDbPolyline
90
3
70
0
43
0
10
34.5769765919
20
49.8363922663
10
34.3985591779
20
49.5845090123
10
34.7050172599
20
49.6411827623
0
SPLINE
5
BA
100
AcDbEntity
8
komachi
6
ByLayer
62
7
370
-1
100
AcDbSpline
210
0
220
0
230
1
70
8
71
3
72
8
73
4
74
0
42
1e-07
43
1e-07
40
0
40
0
40
0
40
0
40
1
40
1
40
1
40
1
10
35.4270828419
20
48.4720241843
30
0
10
35.3963080139
20
48.2318557663
30
0
10
35.3039440219
20
47.9018416343
30
0
10
35.2213780139
20
47.7373645943
30
0
0
SPLINE
5
BB
100
AcDbEntity
8
komachi
6
ByLayer
62
7
370
-1
100
AcDbSpline
210
0
220
0
230
1
70
8
71
3
72
8
73
4
74
0
42
1e-07
43
1e-07
40
0
40
0
40
0
40
0
40
1
40
1
40
1
40
1
10
35.2213780139
20
47.7373645943
30
0
10
35.0409461679
20
47.3779350903
30
0
10
35.0395464899
20
47.3511434303
30
0
10
35.1877935959
20
47.3511434303
30
0
0
SPLINE
5
BC
100
AcDbEntity
8
komachi
6
ByLayer
62
7
370
-1
100
AcDbSpline
210
0
220
0
230
1
70
8
71
3
72
8
73
4
74
0
42
1e-07
43
1e-07
40
0
40
0
40
0
40
0
40
1
40
1
40
1
40
1
10
35.1877935959
20
47.3511434303
30
0
10
35.2530636679
20
47.3511434303
30
0
10
35.3162017359
20
47.2538540283
30
0
10
35.3326265919
20
47.1286465123
30
0
0
SPLINE
5
BD
100
AcDbEntity
8
komachi
6
ByLayer
62
7
370
-1
100
AcDbSpline
210
0
220
0
230
1
70
8
71
3
72
8
73
4
74
0
42
1e-07
43
1e-07
40
0
40
0
40
0
40
0
40
1
40
1
40
1
40
1
10
35.3326265919
20
47.1286465123
30
0
10
35.3582144479
20
46.9335826643
30
0
10
35.3762774579
20
46.9562050403
30
0
10
35.4858555139
20
47.3070636883
30
0
0
SPLINE
5
BE
100
AcDbEntity
8
komachi
6
ByLayer
62
7
370
-1
100
AcDbSpline
210
0
220
0
230
1
70
8
71
3
72
8
73
4
74
0
42
1e-07
43
1e-07
40
0
40
0
40
0
40
0
40
1
40
1
40
1
40
1
10
35.4858555139
20
47.3070636883
30
0
10
35.6713472399
20
47.9009898323
30
0
10
35.7965116779
20
47.8710258703
30
0
10
35.7965116779
20
47.2356967703
30
0
0
SPLINE
5
BF
100
AcDbEntity
8
komachi
6
ByLayer
62
7
370
-1
100
AcDbSpline
210
0
220
0
230
1
70
8
71
3
72
8
73
4
74
0
42
1e-07
43
1e-07
40
0
40
0
40
0
40
0
40
1
40
1
40
1
40
1
10
35.7965116779
20
47.2356967703
30
0
10
35.7965116779
20
46.9438480803
30
0
10
35.8241349099
20
46.7060701343
30
0
10
35.8573835099
20
46.7067417703
30
0
0
SPLINE
5
C0
100
AcDbEntity
8
komachi
6
ByLayer
62
7
370
-1
100
AcDbSpline
210
0
220
0
230
1
70
8
71
3
72
8
73
4
74
0
42
1e-07
43
1e-07
40
0
40
0
40
0
40
0
40
1
40
1
40
1
40
1
10
35.8573835099
20
46.7067417703
30
0
10
35.9793159079
20
46.7092317263
30
0
10
36.0998974179
20
46.8310270363
30
0
10
36.1554454279
20
47.0090017703
30
0
0
SPLINE
5
C1
100
AcDbEntity
8
komachi
6
ByLayer
62
7
370
-1
100
AcDbSpline
210
0
220
0
230
1
70
8
71
3
72
8
73
4
74
0
42
1e-07
43
1e-07
40
0
40
0
40
0
40
0
40
1
40
1
40
1
40
1
10
36.1554454279
20
47.0090017703
30
0
10
36.2190844859
20
47.2129023203
30
0
10
36.3771269579
20
47.1739793243
30
0
10
36.3422587679
20
46.9628233443
30
0
0
SPLINE
5
C2
100
AcDbEntity
8
komachi
6
ByLayer
62
7
370
-1
100
AcDbSpline
210
0
220
0
230
1
70
8
71
3
72
8
73
4
74
0
42
1e-07
43
1e-07
40
0
40
0
40
0
40
0
40
1
40
1
40
1
40
1
10
36.3422587679
20
46.9628233443
30
0
10
36.3267409299
20
46.8688452363
30
0
10
36.3873459639
20
46.8187526623
30
0
10
36.5395674319
20
46.8011980203
30
0
0
SPLINE
5
C3
100
AcDbEntity
8
komachi
6
ByLayer
62
7
370
-1
100
AcDbSpline
210
0
220
0
230
1
70
8
71
3
72
8
73
4
74
0
42
1e-07
43
1e-07
40
0
40
0
40
0
40
0
40
1
40
1
40
1
40
1
10
36.5395674319
20
46.8011980203
30
0
10
36.7388312659
20
46.7782188823
30
0
10
36.7539744919
20
46.7544505363
30
0
10
36.7074897599
20
46.5220273523
30
0
0
LWPOLYLINE
5
C4
100
AcDbEntity
8
komachi
6
ByLayer
62
7
370
-1
100
AcDbPolyline
90
3
70
0
43
0
10
35.1374168499
20
48.5958667703
10
35.4837565919
20
48.9086220943
10
35.4270828419
20
48.4720241843
0
SPLINE
5
C5
100
AcDbEntity
8
komachi
6
ByLayer
62
7
370
-1
100
AcDbSpline
210
0
220
0
230
1
70
8
71
3
72
8
73
4
74
0
42
1e-07
43
1e-07
40
0
40
0
40
0
40
0
40
1
40
1
40
1
40
1
10
36.8775110099
20
46.4107790123
30
0
10
37.0530367239
20
46.5257875143
30
0
10
37.1220084099
20
46.5366098503
30
0
10
37.2154543499
20
46.4590565983
30
0
0
SPLINE
5
C6
100
AcDbEntity
8
komachi
6
ByLayer
62
7
370
-1
100
AcDbSpline
210
0
220
0
230
1
70
8
71
3
72
8
73
4
74
0
42
1e-07
43
1e-07
40
0
40
0
40
0
40
0
40
1
40
1
40
1
40
1
10
37.2154543499
20
46.4590565983
30
0
10
37.3528874499
20
46.3449970023
30
0
10
37.3479658479
20
46.3416749983
30
0
10
37.4904271739
20
46.7067417703
30
0
0
SPLINE
5
C7
100
AcDbEntity
8
komachi
6
ByLayer
62
7
370
-1
100
AcDbSpline
210
0
220
0
230
1
70
8
71
3
72
8
73
4
74
0
42
1e-07
43
1e-07
40
0
40
0
40
0
40
0
40
1
40
1
40
1
40
1
10
37.4904271739
20
46.7067417703
30
0
10
37.6205553399
20
47.0402064263
30
0
10
37.7021802959
20
47.1060039063
30
0
10
37.9774015919
20
47.1076561023
30
0
0
SPLINE
5
C8
100
AcDbEntity
8
komachi
6
ByLayer
62
7
370
-1
100
AcDbSpline
210
0
220
0
230
1
70
8
71
3
72
8
73
4
74
0
42
1e-07
43
1e-07
40
0
40
0
40
0
40
0
40
1
40
1
40
1
40
1
10
37.9774015919
20
47.1076561023
30
0
10
38.2210740839
20
47.1091190883
30
0
10
38.3762167639
20
47.2438504123
30
0
10
38.3762167639
20
47.4539958443
30
0
0
SPLINE
5
C9
100
AcDbEntity
8
komachi
6
ByLayer
62
7
370
-1
100
AcDbSpline
210
0
220
0
230
1
70
8
71
3
72
8
73
4
74
0
42
1e-07
43
1e-07
40
0
40
0
40
0
40
0
40
1
40
1
40
1
40
1
10
38.3762167639
20
47.4539958443
30
0
10
38.3762167639
20
47.7033146483
30
0
10
38.5682646759
20
47.5630000823
30
0
10
38.6343972599
20
47.2650833443
30
0
0
SPLINE
5
CA
100
AcDbEntity
8
komachi
6
ByLayer
62
7
370
-1
100
AcDbSpline
210
0
220
0
230
1
70
8
71
3
72
8
73
4
74
0
42
1e-07
43
1e-07
40
0
40
0
40
0
40
0
40
1
40
1
40
1
40
1
10
38.6343972599
20
47.2650833443
30
0
10
38.6960690099
20
46.9872599943
30
0
10
38.6521687199
20
46.6214428083
30
0
10
38.5483371739
20
46.5451166843
30
0
0
SPLINE
5
CB
100
AcDbEntity
8
komachi
6
ByLayer
62
7
370
-1
100
AcDbSpline
210
0
220
0
230
1
70
8
71
3
72
8
73
4
74
0
42
1e-07
43
1e-07
40
0
40
0
40
0
40
0
40
1
40
1
40
1
40
1
10
38.5483371739
20
46.5451166843
30
0
10
38.2373430499
20
46.3165074503
30
0
10
38.1068117119
20
45.4303401543
30
0
10
38.3006517639
20
44.8742905203
30
0
0
SPLINE
5
CC
100
AcDbEntity
8
komachi
6
ByLayer
62
7
370
-1
100
AcDbSpline
210
0
220
0
230
1
70
8
71
3
72
8
73
4
74
0
42
1e-07
43
1e-07
40
0
40
0
40
0
40
0
40
1
40
1
40
1
40
1
10
38.3006517639
20
44.8742905203
30
0
10
38.3938525639
20
44.6069334583
30
0
10
38.3764076399
20
44.5719917263
30
0
10
37.7737959239
20
43.6757458443
30
0
0
SPLINE
5
CD
100
AcDbEntity
8
komachi
6
ByLayer
62
7
370
-1
100
AcDbSpline
210
0
220
0
230
1
70
8
71
3
72
8
73
4
74
0
42
1e-07
43
1e-07
40
0
40
0
40
0
40
0
40
1
40
1
40
1
40
1
10
37.7737959239
20
43.6757458443
30
0
10
37.3971335539
20
43.1155471563
30
0
10
37.3602961519
20
43.0501204803
30
0
10
36.9677691779
20
42.3134766843
30
0
0
SPLINE
5
CE
100
AcDbEntity
8
komachi
6
ByLayer
62
7
370
-1
100
AcDbSpline
210
0
220
0
230
1
70
8
71
3
72
8
73
4
74
0
42
1e-07
43
1e-07
40
0
40
0
40
0
40
0
40
1
40
1
40
1
40
1
10
36.9677691779
20
42.3134766843
30
0
10
36.2672038019
20
40.9987451683
30
0
10
36.2743390419
20
39.8488062803
30
0
10
36.9908585099
20
39.0704786883
30
0
0
SPLINE
5
CF
100
AcDbEntity
8
komachi
6
ByLayer
62
7
370
-1
100
AcDbSpline
210
0
220
0
230
1
70
8
71
3
72
8
73
4
74
0
42
1e-07
43
1e-07
40
0
40
0
40
0
40
0
40
1
40
1
40
1
40
1
10
36.9908585099
20
39.0704786883
30
0
10
37.3170386999
20
38.7161609483
30
0
10
38.7314569919
20
37.5171983443
30
0
10
38.8233097599
20
37.5171983443
30
0
0
SPLINE
5
D0
100
AcDbEntity
8
komachi
6
ByLayer
62
7
370
-1
100
AcDbSpline
210
0
220
0
230
1
70
8
71
3
72
8
73
4
74
0
42
1e-07
43
1e-07
40
0
40
0
40
0
40
0
40
1
40
1
40
1
40
1
10
38.8233097599
20
37.5171983443
30
0
10
38.8550220699
20
37.5171983443
30
0
10
38.9645322959
20
37.4364275703
30
0
10
39.0646979279
20
37.3366817703
30
0
0
SPLINE
5
D1
100
AcDbEntity
8
komachi
6
ByLayer
62
7
370
-1
100
AcDbSpline
210
0
220
0
230
1
70
8
71
3
72
8
73
4
74
0
42
1e-07
43
1e-07
40
0
40
0
40
0
40
0
40
1
40
1
40
1
40
1
10
39.0646979279
20
37.3366817703
30
0
10
39.1648642739
20
37.2369359703
30
0
10
39.4188471639
20
37.0279567383
30
0
10
39.6293362679
20
36.8727966843
30
0
0
SPLINE
5
D2
100
AcDbEntity
8
komachi
6
ByLayer
62
7
370
-1
100
AcDbSpline
210
0
220
0
230
1
70
8
71
3
72
8
73
4
74
0
42
1e-07
43
1e-07
40
0
40
0
40
0
40
0
40
1
40
1
40
1
40
1
10
39.6293362679
20
36.8727966843
30
0
10
39.8398256099
20
36.7176366303
30
0
10
40.0780607539
20
36.5263731663
30
0
10
40.1603904279
20
36.4487930203
30
0
0
SPLINE
5
D3
100
AcDbEntity
8
komachi
6
ByLayer
62
7
370
-1
100
AcDbSpline
210
0
220
0
230
1
70
8
71
3
72
8
73
4
74
0
42
1e-07
43
1e-07
40
0
40
0
40
0
40
0
40
1
40
1
40
1
40
1
10
40.1603904279
20
36.4487930203
30
0
10
40.2427186739
20
36.3712131123
30
0
10
40.3388554419
20
36.3081583443
30
0
10
40.3744911819
20
36.3081583443
30
0
0
SPLINE
5
D4
100
AcDbEntity
8
komachi
6
ByLayer
62
7
370
-1
100
AcDbSpline
210
0
220
0
230
1
70
8
71
3
72
8
73
4
74
0
42
1e-07
43
1e-07
40
0
40
0
40
0
40
0
40
1
40
1
40
1
40
1
10
40.3744911819
20
36.3081583443
30
0
10
40.4101264459
20
36.3081583443
30
0
10
40.5522395779
20
36.1898571123
30
0
10
40.6893454279
20
36.0457797663
30
0
0
SPLINE
5
D5
100
AcDbEntity
8
komachi
6
ByLayer
62
7
370
-1
100
AcDbSpline
210
0
220
0
230
1
70
8
71
3
72
8
73
4
74
0
42
1e-07
43
1e-07
40
0
40
0
40
0
40
0
40
1
40
1
40
1
40
1
10
40.6893454279
20
36.0457797663
30
0
10
41.1415013979
20
35.5706325203
30
0
10
41.1777611739
20
34.6460686843
30
0
10
40.7502172599
20
34.4820040983
30
0
0
SPLINE
5
D6
100
AcDbEntity
8
komachi
6
ByLayer
62
7
370
-1
100
AcDbSpline
210
0
220
0
230
1
70
8
71
3
72
8
73
4
74
0
42
1e-07
43
1e-07
40
0
40
0
40
0
40
0
40
1
40
1
40
1
40
1
10
40.7502172599
20
34.4820040983
30
0
10
40.6860379419
20
34.4573765723
30
0
10
40.6326716779
20
34.3894613683
30
0
10
40.6326716779
20
34.3308740983
30
0
0
SPLINE
5
D7
100
AcDbEntity
8
komachi
6
ByLayer
62
7
370
-1
100
AcDbSpline
210
0
220
0
230
1
70
8
71
3
72
8
73
4
74
0
42
1e-07
43
1e-07
40
0
40
0
40
0
40
0
40
1
40
1
40
1
40
1
10
40.6326716779
20
34.3308740983
30
0
10
40.6326716779
20
34.2722861143
30
0
10
40.5840811219
20
34.1752316183
30
0
10
40.5235222599
20
34.1146741843
30
0
0
SPLINE
5
D8
100
AcDbEntity
8
komachi
6
ByLayer
62
7
370
-1
100
AcDbSpline
210
0
220
0
230
1
70
8
71
3
72
8
73
4
74
0
42
1e-07
43
1e-07
40
0
40
0
40
0
40
0
40
1
40
1
40
1
40
1
10
40.5235222599
20
34.1146741843
30
0
10
40.4629641119
20
34.0541153223
30
0
10
40.2448687659
20
33.7567976303
30
0
10
40.0386467639
20
33.4555795943
30
0
0
SPLINE
5
D9
100
AcDbEntity
8
komachi
6
ByLayer
62
7
370
-1
100
AcDbSpline
210
0
220
0
230
1
70
8
71
3
72
8
73
4
74
0
42
1e-07
43
1e-07
40
0
40
0
40
0
40
0
40
1
40
1
40
1
40
1
10
40.0386467639
20
33.4555795943
30
0
10
39.8324261899
20
33.1543620343
30
0
10
39.6089827459
20
32.8537946903
30
0
10
39.5432761819
20
32.7880886023
30
0
0
SPLINE
5
DA
100
AcDbEntity
8
komachi
6
ByLayer
62
7
370
-1
100
AcDbSpline
210
0
220
0
230
1
70
8
71
3
72
8
73
4
74
0
42
1e-07
43
1e-07
40
0
40
0
40
0
40
0
40
1
40
1
40
1
40
1
10
39.5432761819
20
32.7880886023
30
0
10
39.4775703319
20
32.7223820383
30
0
10
39.4236316779
20
32.6340623803
30
0
10
39.4236316779
20
32.5907799383
30
0
0
SPLINE
5
DB
100
AcDbEntity
8
komachi
6
ByLayer
62
7
370
-1
100
AcDbSpline
210
0
220
0
230
1
70
8
71
3
72
8
73
4
74
0
42
1e-07
43
1e-07
40
0
40
0
40
0
40
0
40
1
40
1
40
1
40
1
10
39.4236316779
20
32.5907799383
30
0
10
39.4236316779
20
32.5474991623
30
0
10
39.3329536779
20
32.4290151463
30
0
10
39.2221249319
20
32.3263024383
30
0
0
SPLINE
5
DC
100
AcDbEntity
8
komachi
6
ByLayer
62
7
370
-1
100
AcDbSpline
210
0
220
0
230
1
70
8
71
3
72
8
73
4
74
0
42
1e-07
43
1e-07
40
0
40
0
40
0
40
0
40
1
40
1
40
1
40
1
10
39.2221249319
20
32.3263024383
30
0
10
39.1112964239
20
32.2235892543
30
0
10
39.0206184239
20
32.1053927423
30
0
10
39.0206184239
20
32.0639240983
30
0
0
SPLINE
5
DD
100
AcDbEntity
8
komachi
6
ByLayer
62
7
370
-1
100
AcDbSpline
210
0
220
0
230
1
70
8
71
3
72
8
73
4
74
0
42
1e-07
43
1e-07
40
0
40
0
40
0
40
0
40
1
40
1
40
1
40
1
10
39.0206184239
20
32.0639240983
30
0
10
39.0206184239
20
32.0224552163
30
0
10
38.8392624239
20
31.7638651223
30
0
10
38.6176049319
20
31.4887904343
30
0
0
SPLINE
5
DE
100
AcDbEntity
8
komachi
6
ByLayer
62
7
370
-1
100
AcDbSpline
210
0
220
0
230
1
70
8
71
3
72
8
73
4
74
0
42
1e-07
43
1e-07
40
0
40
0
40
0
40
0
40
1
40
1
40
1
40
1
10
38.6176049319
20
31.4887904343
30
0
10
38.3959476779
20
31.2137164603
30
0
10
38.2145916779
20
30.9755812763
30
0
10
38.2145916779
20
30.9598354343
30
0
0
SPLINE
5
DF
100
AcDbEntity
8
komachi
6
ByLayer
62
7
370
-1
100
AcDbSpline
210
0
220
0
230
1
70
8
71
3
72
8
73
4
74
0
42
1e-07
43
1e-07
40
0
40
0
40
0
40
0
40
1
40
1
40
1
40
1
10
38.2145916779
20
30.9598354343
30
0
10
38.2145916779
20
30.9174652463
30
0
10
34.4913925059
20
27.2004766843
30
0
10
34.4489359239
20
27.2004766843
30
0
0
SPLINE
5
E0
100
AcDbEntity
8
komachi
6
ByLayer
62
7
370
-1
100
AcDbSpline
210
0
220
0
230
1
70
8
71
3
72
8
73
4
74
0
42
1e-07
43
1e-07
40
0
40
0
40
0
40
0
40
1
40
1
40
1
40
1
10
34.4489359239
20
27.2004766843
30
0
10
34.3588293619
20
27.2004766843
30
0
10
31.0461444899
20
23.7818799083
30
0
10
30.3117521739
20
22.9310541843
30
0
0
SPLINE
5
E1
100
AcDbEntity
8
komachi
6
ByLayer
62
7
370
-1
100
AcDbSpline
210
0
220
0
230
1
70
8
71
3
72
8
73
4
74
0
42
1e-07
43
1e-07
40
0
40
0
40
0
40
0
40
1
40
1
40
1
40
1
10
30.3117521739
20
22.9310541843
30
0
10
30.0615184979
20
22.6411473363
30
0
10
29.7420208719
20
22.2821893103
30
0
10
29.6022805999
20
22.1334236023
30
0
0
SPLINE
5
E2
100
AcDbEntity
8
komachi
6
ByLayer
62
7
370
-1
100
AcDbSpline
210
0
220
0
230
1
70
8
71
3
72
8
73
4
74
0
42
1e-07
43
1e-07
40
0
40
0
40
0
40
0
40
1
40
1
40
1
40
1
10
29.6022805999
20
22.1334236023
30
0
10
29.4625412799
20
21.9846586083
30
0
10
29.3482984239
20
21.8413733263
30
0
10
29.3482984239
20
21.8143715123
30
0
0
SPLINE
5
E3
100
AcDbEntity
8
komachi
6
ByLayer
62
7
370
-1
100
AcDbSpline
210
0
220
0
230
1
70
8
71
3
72
8
73
4
74
0
42
1e-07
43
1e-07
40
0
40
0
40
0
40
0
40
1
40
1
40
1
40
1
10
29.3482984239
20
21.8143715123
30
0
10
29.3482984239
20
21.7873701743
30
0
10
29.2675276499
20
21.6810646183
30
0
10
29.1677818499
20
21.5771811883
30
0
0
SPLINE
5
E4
100
AcDbEntity
8
komachi
6
ByLayer
62
7
370
-1
100
AcDbSpline
210
0
220
0
230
1
70
8
71
3
72
8
73
4
74
0
42
1e-07
43
1e-07
40
0
40
0
40
0
40
0
40
1
40
1
40
1
40
1
10
29.1677818499
20
21.5771811883
30
0
10
29.0680360499
20
21.4732984723
30
0
10
28.8927219179
20
21.2893035283
30
0
10
28.7794617639
20
21.1699698523
30
0
0
SPLINE
5
E5
100
AcDbEntity
8
komachi
6
ByLayer
62
7
370
-1
100
AcDbSpline
210
0
220
0
230
1
70
8
71
3
72
8
73
4
74
0
42
1e-07
43
1e-07
40
0
40
0
40
0
40
0
40
1
40
1
40
1
40
1
10
28.7794617639
20
21.1699698523
30
0
10
28.6662023239
20
21.0506368903
30
0
10
28.5313339119
20
20.8531847123
30
0
10
28.4793009239
20
20.7312730203
30
0
0
LWPOLYLINE
5
E6
100
AcDbEntity
8
komachi
6
ByLayer
62
7
370
-1
100
AcDbPolyline
90
3
70
0
43
0
10
36.7074897599
20
46.5220273523
10
36.6550140919
20
46.2659460163
10
36.8775110099
20
46.4107790123
0
SPLINE
5
E7
100
AcDbEntity
8
komachi
6
ByLayer
62
7
370
-1
100
AcDbSpline
210
0
220
0
230
1
70
8
71
3
72
8
73
4
74
0
42
1e-07
43
1e-07
40
0
40
0
40
0
40
0
40
1
40
1
40
1
40
1
10
53.4220479279
20
20.8928983443
30
0
10
53.2840909899
20
22.0173550483
30
0
10
53.1945541999
20
22.5418192263
30
0
10
53.0484210099
20
23.0884811883
30
0
0
SPLINE
5
E8
100
AcDbEntity
8
komachi
6
ByLayer
62
7
370
-1
100
AcDbSpline
210
0
220
0
230
1
70
8
71
3
72
8
73
4
74
0
42
1e-07
43
1e-07
40
0
40
0
40
0
40
0
40
1
40
1
40
1
40
1
10
53.0484210099
20
23.0884811883
30
0
10
52.9595403859
20
23.4209671883
30
0
10
52.8875213479
20
23.7916764643
30
0
10
52.8867959239
20
23.9113002623
30
0
0
SPLINE
5
E9
100
AcDbEntity
8
komachi
6
ByLayer
62
7
370
-1
100
AcDbSpline
210
0
220
0
230
1
70
8
71
3
72
8
73
4
74
0
42
1e-07
43
1e-07
40
0
40
0
40
0
40
0
40
1
40
1
40
1
40
1
10
52.8867959239
20
23.9113002623
30
0
10
52.8860355139
20
24.0309233463
30
0
10
52.7982061359
20
24.4113511143
30
0
10
52.6915861819
20
24.7572084303
30
0
0
SPLINE
5
EA
100
AcDbEntity
8
komachi
6
ByLayer
62
7
370
-1
100
AcDbSpline
210
0
220
0
230
1
70
8
71
3
72
8
73
4
74
0
42
1e-07
43
1e-07
40
0
40
0
40
0
40
0
40
1
40
1
40
1
40
1
10
52.6915861819
20
24.7572084303
30
0
10
52.5849669419
20
25.1030650323
30
0
10
52.4789222339
20
25.4953104523
30
0
10
52.4564950179
20
25.6283048523
30
0
0
SPLINE
5
EB
100
AcDbEntity
8
komachi
6
ByLayer
62
7
370
-1
100
AcDbSpline
210
0
220
0
230
1
70
8
71
3
72
8
73
4
74
0
42
1e-07
43
1e-07
40
0
40
0
40
0
40
0
40
1
40
1
40
1
40
1
10
52.4564950179
20
25.6283048523
30
0
10
52.4340694679
20
25.7612992523
30
0
10
52.3501480499
20
26.0983132023
30
0
10
52.2696816779
20
26.3776578483
30
0
0
SPLINE
5
EC
100
AcDbEntity
8
komachi
6
ByLayer
62
7
370
-1
100
AcDbSpline
210
0
220
0
230
1
70
8
71
3
72
8
73
4
74
0
42
1e-07
43
1e-07
40
0
40
0
40
0
40
0
40
1
40
1
40
1
40
1
10
52.2696816779
20
26.3776578483
30
0
10
52.0969972079
20
26.9771422443
30
0
10
52.1629503399
20
27.0771203323
30
0
10
52.6286154279
20
26.9108109303
30
0
0
SPLINE
5
ED
100
AcDbEntity
8
komachi
6
ByLayer
62
7
370
-1
100
AcDbSpline
210
0
220
0
230
1
70
8
71
3
72
8
73
4
74
0
42
1e-07
43
1e-07
40
0
40
0
40
0
40
0
40
1
40
1
40
1
40
1
10
52.6286154279
20
26.9108109303
30
0
10
52.9916960899
20
26.7811399623
30
0
10
53.3268869599
20
26.7698340103
30
0
10
53.5353954279
20
26.8814245943
30
0
0
SPLINE
5
EE
100
AcDbEntity
8
komachi
6
ByLayer
62
7
370
-1
100
AcDbSpline
210
0
220
0
230
1
70
8
71
3
72
8
73
4
74
0
42
1e-07
43
1e-07
40
0
40
0
40
0
40
0
40
1
40
1
40
1
40
1
10
53.5353954279
20
26.8814245943
30
0
10
53.6861727119
20
26.9621177803
30
0
10
53.6814191379
20
26.9897619563
30
0
10
53.3842654279
20
27.5468161883
30
0
0
SPLINE
5
EF
100
AcDbEntity
8
komachi
6
ByLayer
62
7
370
-1
100
AcDbSpline
210
0
220
0
230
1
70
8
71
3
72
8
73
4
74
0
42
1e-07
43
1e-07
40
0
40
0
40
0
40
0
40
1
40
1
40
1
40
1
10
53.3842654279
20
27.5468161883
30
0
10
52.9246669599
20
28.4083949903
30
0
10
52.7206871559
20
28.7567415483
30
0
10
52.5950310099
20
28.8985902623
30
0
0
SPLINE
5
F0
100
AcDbEntity
8
komachi
6
ByLayer
62
7
370
-1
100
AcDbSpline
210
0
220
0
230
1
70
8
71
3
72
8
73
4
74
0
42
1e-07
43
1e-07
40
0
40
0
40
0
40
0
40
1
40
1
40
1
40
1
10
52.5950310099
20
28.8985902623
30
0
10
52.5330320099
20
28.9685782083
30
0
10
52.4816835099
20
29.0526876463
30
0
10
52.4816835099
20
29.0854036023
30
0
0
SPLINE
5
F1
100
AcDbEntity
8
komachi
6
ByLayer
62
7
370
-1
100
AcDbSpline
210
0
220
0
230
1
70
8
71
3
72
8
73
4
74
0
42
1e-07
43
1e-07
40
0
40
0
40
0
40
0
40
1
40
1
40
1
40
1
10
52.4816835099
20
29.0854036023
30
0
10
52.4816835099
20
29.1727117603
30
0
10
51.8362710639
20
30.0310409103
30
0
10
51.4447636819
20
30.4644648523
30
0
0
SPLINE
5
F2
100
AcDbEntity
8
komachi
6
ByLayer
62
7
370
-1
100
AcDbSpline
210
0
220
0
230
1
70
8
71
3
72
8
73
4
74
0
42
1e-07
43
1e-07
40
0
40
0
40
0
40
0
40
1
40
1
40
1
40
1
10
51.4447636819
20
30.4644648523
30
0
10
51.0220040439
20
30.9324882823
30
0
10
50.6179019399
20
31.4764791703
30
0
10
50.4246361819
20
31.8351299383
30
0
0
SPLINE
5
F3
100
AcDbEntity
8
komachi
6
ByLayer
62
7
370
-1
100
AcDbSpline
210
0
220
0
230
1
70
8
71
3
72
8
73
4
74
0
42
1e-07
43
1e-07
40
0
40
0
40
0
40
0
40
1
40
1
40
1
40
1
10
50.4246361819
20
31.8351299383
30
0
10
49.5630004979
20
33.4340981903
30
0
10
49.6287044439
20
33.1907734163
30
0
10
49.7928287679
20
34.1188722663
30
0
0
SPLINE
5
F4
100
AcDbEntity
8
komachi
6
ByLayer
62
7
370
-1
100
AcDbSpline
210
0
220
0
230
1
70
8
71
3
72
8
73
4
74
0
42
1e-07
43
1e-07
40
0
40
0
40
0
40
0
40
1
40
1
40
1
40
1
10
49.7928287679
20
34.1188722663
30
0
10
49.8547854039
20
34.4692244503
30
0
10
49.7379419219
20
34.6780237543
30
0
10
49.1295360959
20
35.2985259303
30
0
0
LWPOLYLINE
5
F5
100
AcDbEntity
8
komachi
6
ByLayer
62
7
370
-1
100
AcDbPolyline
90
5
70
0
43
0
10
28.4793009239
20
20.7312730203
10
28.3848446739
20
20.5108752623
10
40.9265355139
20
20.5108752623
10
53.4703255139
20
20.5108752623
10
53.4220479279
20
20.8928983443
0
SPLINE
5
F6
100
AcDbEntity
8
komachi
6
ByLayer
62
7
370
-1
100
AcDbSpline
210
0
220
0
230
1
70
8
71
3
72
8
73
4
74
0
42
1e-07
43
1e-07
40
0
40
0
40
0
40
0
40
1
40
1
40
1
40
1
10
48.6320665919
20
36.7195677623
30
0
10
48.6296920659
20
37.4394515983
30
0
10
48.6581985159
20
37.6823610623
30
0
10
48.7622061819
20
37.8404485163
30
0
0
SPLINE
5
F7
100
AcDbEntity
8
komachi
6
ByLayer
62
7
370
-1
100
AcDbSpline
210
0
220
0
230
1
70
8
71
3
72
8
73
4
74
0
42
1e-07
43
1e-07
40
0
40
0
40
0
40
0
40
1
40
1
40
1
40
1
10
48.7622061819
20
37.8404485163
30
0
10
48.8564341899
20
37.9836707283
30
0
10
48.8943106999
20
38.2213779883
30
0
10
48.8944449319
20
38.6653665123
30
0
0
SPLINE
5
F8
100
AcDbEntity
8
komachi
6
ByLayer
62
7
370
-1
100
AcDbSpline
210
0
220
0
230
1
70
8
71
3
72
8
73
4
74
0
42
1e-07
43
1e-07
40
0
40
0
40
0
40
0
40
1
40
1
40
1
40
1
10
48.8944449319
20
38.6653665123
30
0
10
48.8945679779
20
39.0089352203
30
0
10
48.9138909599
20
39.2908766843
30
0
10
48.9385246739
20
39.2908766843
30
0
0
SPLINE
5
F9
100
AcDbEntity
8
komachi
6
ByLayer
62
7
370
-1
100
AcDbSpline
210
0
220
0
230
1
70
8
71
3
72
8
73
4
74
0
42
1e-07
43
1e-07
40
0
40
0
40
0
40
0
40
1
40
1
40
1
40
1
10
48.9385246739
20
39.2908766843
30
0
10
48.9631593399
20
39.2908766843
30
0
10
49.2988890419
20
39.1626679883
30
0
10
49.6836793499
20
39.0075079343
30
0
0
SPLINE
5
FA
100
AcDbEntity
8
komachi
6
ByLayer
62
7
370
-1
100
AcDbSpline
210
0
220
0
230
1
70
8
71
3
72
8
73
4
74
0
42
1e-07
43
1e-07
40
0
40
0
40
0
40
0
40
1
40
1
40
1
40
1
10
49.6836793499
20
39.0075079343
30
0
10
50.5617594059
20
38.6534372383
30
0
10
51.1061532279
20
38.6343767703
30
0
10
51.8855596739
20
38.9277448523
30
0
0
SPLINE
5
FB
100
AcDbEntity
8
komachi
6
ByLayer
62
7
370
-1
100
AcDbSpline
210
0
220
0
230
1
70
8
71
3
72
8
73
4
74
0
42
1e-07
43
1e-07
40
0
40
0
40
0
40
0
40
1
40
1
40
1
40
1
10
51.8855596739
20
38.9277448523
30
0
10
52.1800037539
20
39.0385735983
30
0
10
52.4706241259
20
39.1292515983
30
0
10
52.5320600179
20
39.1292515983
30
0
0
SPLINE
5
FC
100
AcDbEntity
8
komachi
6
ByLayer
62
7
370
-1
100
AcDbSpline
210
0
220
0
230
1
70
8
71
3
72
8
73
4
74
0
42
1e-07
43
1e-07
40
0
40
0
40
0
40
0
40
1
40
1
40
1
40
1
10
52.5320600179
20
39.1292515983
30
0
10
52.5934975759
20
39.1292515983
30
0
10
52.8312781399
20
39.2199295983
30
0
10
53.0610150179
20
39.3307583443
30
0
0
SPLINE
5
FD
100
AcDbEntity
8
komachi
6
ByLayer
62
7
370
-1
100
AcDbSpline
210
0
220
0
230
1
70
8
71
3
72
8
73
4
74
0
42
1e-07
43
1e-07
40
0
40
0
40
0
40
0
40
1
40
1
40
1
40
1
10
53.0610150179
20
39.3307583443
30
0
10
53.2907514199
20
39.4415868523
30
0
10
53.5069715639
20
39.5322648523
30
0
10
53.5416924319
20
39.5322648523
30
0
0
SPLINE
5
FE
100
AcDbEntity
8
komachi
6
ByLayer
62
7
370
-1
100
AcDbSpline
210
0
220
0
230
1
70
8
71
3
72
8
73
4
74
0
42
1e-07
43
1e-07
40
0
40
0
40
0
40
0
40
1
40
1
40
1
40
1
10
53.5416924319
20
39.5322648523
30
0
10
53.5764135379
20
39.5322648523
30
0
10
53.8031628019
20
39.6229428523
30
0
10
54.0454591779
20
39.7337715983
30
0
0
SPLINE
5
FF
100
AcDbEntity
8
komachi
6
ByLayer
62
7
370
-1
100
AcDbSpline
210
0
220
0
230
1
70
8
71
3
72
8
73
4
74
0
42
1e-07
43
1e-07
40
0
40
0
40
0
40
0
40
1
40
1
40
1
40
1
10
54.0454591779
20
39.7337715983
30
0
10
54.2877548399
20
39.8446003443
30
0
10
54.5240260079
20
39.9352783443
30
0
10
54.5702160959
20
39.9352783443
30
0
0
SPLINE
5
100
100
AcDbEntity
8
komachi
6
ByLayer
62
7
370
-1
100
AcDbSpline
210
0
220
0
230
1
70
8
71
3
72
8
73
4
74
0
42
1e-07
43
1e-07
40
0
40
0
40
0
40
0
40
1
40
1
40
1
40
1
10
54.5702160959
20
39.9352783443
30
0
10
54.6164068979
20
39.9352783443
30
0
10
54.8465569439
20
40.0224272803
30
0
10
55.0802798459
20
40.1283886883
30
0
0
SPLINE
5
101
100
AcDbEntity
8
komachi
6
ByLayer
62
7
370
-1
100
AcDbSpline
210
0
220
0
230
1
70
8
71
3
72
8
73
4
74
0
42
1e-07
43
1e-07
40
0
40
0
40
0
40
0
40
1
40
1
40
1
40
1
10
55.0802798459
20
40.1283886883
30
0
10
55.3140020339
20
40.2343510483
30
0
10
55.7408859739
20
40.4203268663
30
0
10
56.0290404279
20
40.5418972663
30
0
0
SPLINE
5
102
100
AcDbEntity
8
komachi
6
ByLayer
62
7
370
-1
100
AcDbSpline
210
0
220
0
230
1
70
8
71
3
72
8
73
4
74
0
42
1e-07
43
1e-07
40
0
40
0
40
0
40
0
40
1
40
1
40
1
40
1
10
56.0290404279
20
40.5418972663
30
0
10
56.3171948819
20
40.6634688563
30
0
10
56.7394549579
20
40.8483539203
30
0
10
56.9694048459
20
40.9533066843
30
0
0
SPLINE
5
103
100
AcDbEntity
8
komachi
6
ByLayer
62
7
370
-1
100
AcDbSpline
210
0
220
0
230
1
70
8
71
3
72
8
73
4
74
0
42
1e-07
43
1e-07
40
0
40
0
40
0
40
0
40
1
40
1
40
1
40
1
10
56.9694048459
20
40.9533066843
30
0
10
57.1993547339
20
41.0582594483
30
0
10
57.4221574819
20
41.1443183443
30
0
10
57.4626762679
20
41.1443183443
30
0
0
SPLINE
5
104
100
AcDbEntity
8
komachi
6
ByLayer
62
7
370
-1
100
AcDbSpline
210
0
220
0
230
1
70
8
71
3
72
8
73
4
74
0
42
1e-07
43
1e-07
40
0
40
0
40
0
40
0
40
1
40
1
40
1
40
1
10
57.4626762679
20
41.1443183443
30
0
10
57.5031960059
20
41.1443183443
30
0
10
57.7055269459
20
41.2349963443
30
0
10
57.9139673459
20
41.3458248523
30
0
0
SPLINE
5
105
100
AcDbEntity
8
komachi
6
ByLayer
62
7
370
-1
100
AcDbSpline
210
0
220
0
230
1
70
8
71
3
72
8
73
4
74
0
42
1e-07
43
1e-07
40
0
40
0
40
0
40
0
40
1
40
1
40
1
40
1
10
57.9139673459
20
41.3458248523
30
0
10
58.1224065559
20
41.4566535983
30
0
10
58.3286882959
20
41.5473315983
30
0
10
58.3715554279
20
41.5473315983
30
0
0
SPLINE
5
106
100
AcDbEntity
8
komachi
6
ByLayer
62
7
370
-1
100
AcDbSpline
210
0
220
0
230
1
70
8
71
3
72
8
73
4
74
0
42
1e-07
43
1e-07
40
0
40
0
40
0
40
0
40
1
40
1
40
1
40
1
10
58.3715554279
20
41.5473315983
30
0
10
58.4144211319
20
41.5473315983
30
0
10
58.5927076459
20
41.6380095983
30
0
10
58.7682716779
20
41.7488383443
30
0
0
SPLINE
5
107
100
AcDbEntity
8
komachi
6
ByLayer
62
7
370
-1
100
AcDbSpline
210
0
220
0
230
1
70
8
71
3
72
8
73
4
74
0
42
1e-07
43
1e-07
40
0
40
0
40
0
40
0
40
1
40
1
40
1
40
1
10
58.7682716779
20
41.7488383443
30
0
10
58.9438357099
20
41.8596668523
30
0
10
59.1262777039
20
41.9503448523
30
0
10
59.1733840919
20
41.9503448523
30
0
0
SPLINE
5
108
100
AcDbEntity
8
komachi
6
ByLayer
62
7
370
-1
100
AcDbSpline
210
0
220
0
230
1
70
8
71
3
72
8
73
4
74
0
42
1e-07
43
1e-07
40
0
40
0
40
0
40
0
40
1
40
1
40
1
40
1
10
59.1733840919
20
41.9503448523
30
0
10
59.3171617959
20
41.9503448523
30
0
10
60.1108891779
20
42.5733786343
30
0
10
60.6427035099
20
43.1027111023
30
0
0
SPLINE
5
109
100
AcDbEntity
8
komachi
6
ByLayer
62
7
370
-1
100
AcDbSpline
210
0
220
0
230
1
70
8
71
3
72
8
73
4
74
0
42
1e-07
43
1e-07
40
0
40
0
40
0
40
0
40
1
40
1
40
1
40
1
10
60.6427035099
20
43.1027111023
30
0
10
61.2647210319
20
43.7218255003
30
0
10
61.4950550519
20
44.0263955283
30
0
10
61.8748328419
20
44.7378536883
30
0
0
SPLINE
5
10A
100
AcDbEntity
8
komachi
6
ByLayer
62
7
370
-1
100
AcDbSpline
210
0
220
0
230
1
70
8
71
3
72
8
73
4
74
0
42
1e-07
43
1e-07
40
0
40
0
40
0
40
0
40
1
40
1
40
1
40
1
10
61.8748328419
20
44.7378536883
30
0
10
62.0385340019
20
45.0445214483
30
0
10
62.2000800719
20
45.3246674403
30
0
10
62.2337665919
20
45.3612649383
30
0
0
SPLINE
5
10B
100
AcDbEntity
8
komachi
6
ByLayer
62
7
370
-1
100
AcDbSpline
210
0
220
0
230
1
70
8
71
3
72
8
73
4
74
0
42
1e-07
43
1e-07
40
0
40
0
40
0
40
0
40
1
40
1
40
1
40
1
10
62.2337665919
20
45.3612649383
30
0
10
62.2674523979
20
45.3978633883
30
0
10
62.5815583719
20
45.3751253443
30
0
10
62.9306436819
20
45.3087892703
30
0
0
SPLINE
5
10C
100
AcDbEntity
8
komachi
6
ByLayer
62
7
370
-1
100
AcDbSpline
210
0
220
0
230
1
70
8
71
3
72
8
73
4
74
0
42
1e-07
43
1e-07
40
0
40
0
40
0
40
0
40
1
40
1
40
1
40
1
10
62.9306436819
20
45.3087892703
30
0
10
63.2797299439
20
45.2424534343
30
0
10
64.1086180179
20
45.0897978543
30
0
10
64.7735900179
20
44.9708459303
30
0
0
SPLINE
5
10D
100
AcDbEntity
8
komachi
6
ByLayer
62
7
370
-1
100
AcDbSpline
210
0
220
0
230
1
70
8
71
3
72
8
73
4
74
0
42
1e-07
43
1e-07
40
0
40
0
40
0
40
0
40
1
40
1
40
1
40
1
10
64.7735900179
20
44.9708459303
30
0
10
65.4385620179
20
44.8518937683
30
0
10
66.3902069219
20
44.6677522163
30
0
10
66.8873110959
20
44.5615354343
30
0
0
SPLINE
5
10E
100
AcDbEntity
8
komachi
6
ByLayer
62
7
370
-1
100
AcDbSpline
210
0
220
0
230
1
70
8
71
3
72
8
73
4
74
0
42
1e-07
43
1e-07
40
0
40
0
40
0
40
0
40
1
40
1
40
1
40
1
10
66.8873110959
20
44.5615354343
30
0
10
67.3844152699
20
44.4553198423
30
0
10
67.8709208279
20
44.3684248523
30
0
10
67.9683104279
20
44.3684248523
30
0
0
SPLINE
5
10F
100
AcDbEntity
8
komachi
6
ByLayer
62
7
370
-1
100
AcDbSpline
210
0
220
0
230
1
70
8
71
3
72
8
73
4
74
0
42
1e-07
43
1e-07
40
0
40
0
40
0
40
0
40
1
40
1
40
1
40
1
10
67.9683104279
20
44.3684248523
30
0
10
68.0657012179
20
44.3684248523
30
0
10
68.5294727779
20
44.2793897663
30
0
10
68.9989330139
20
44.1711161883
30
0
0
SPLINE
5
110
100
AcDbEntity
8
komachi
6
ByLayer
62
7
370
-1
100
AcDbSpline
210
0
220
0
230
1
70
8
71
3
72
8
73
4
74
0
42
1e-07
43
1e-07
40
0
40
0
40
0
40
0
40
1
40
1
40
1
40
1
10
68.9989330139
20
44.1711161883
30
0
10
70.6921680679
20
43.7805969823
30
0
10
72.4992073439
20
43.4090047263
30
0
10
72.7331035099
20
43.4028721803
30
0
0
SPLINE
5
111
100
AcDbEntity
8
komachi
6
ByLayer
62
7
370
-1
100
AcDbSpline
210
0
220
0
230
1
70
8
71
3
72
8
73
4
74
0
42
1e-07
43
1e-07
40
0
40
0
40
0
40
0
40
1
40
1
40
1
40
1
10
72.7331035099
20
43.4028721803
30
0
10
72.7663521099
20
43.4020001483
30
0
10
72.7939753419
20
43.9094094843
30
0
10
72.7939753419
20
44.5300499383
30
0
0
SPLINE
5
112
100
AcDbEntity
8
komachi
6
ByLayer
62
7
370
-1
100
AcDbSpline
210
0
220
0
230
1
70
8
71
3
72
8
73
4
74
0
42
1e-07
43
1e-07
40
0
40
0
40
0
40
0
40
1
40
1
40
1
40
1
10
72.7939753419
20
44.5300499383
30
0
10
72.7939753419
20
45.4887025143
30
0
10
72.7747903999
20
45.6572279343
30
0
10
72.6701325179
20
45.6572279343
30
0
0
SPLINE
5
113
100
AcDbEntity
8
komachi
6
ByLayer
62
7
370
-1
100
AcDbSpline
210
0
220
0
230
1
70
8
71
3
72
8
73
4
74
0
42
1e-07
43
1e-07
40
0
40
0
40
0
40
0
40
1
40
1
40
1
40
1
10
72.6701325179
20
45.6572279343
30
0
10
72.3586535879
20
45.6572279343
30
0
10
70.1020330259
20
45.9163613823
30
0
10
69.4880065919
20
46.0224586883
30
0
0
SPLINE
5
114
100
AcDbEntity
8
komachi
6
ByLayer
62
7
370
-1
100
AcDbSpline
210
0
220
0
230
1
70
8
71
3
72
8
73
4
74
0
42
1e-07
43
1e-07
40
0
40
0
40
0
40
0
40
1
40
1
40
1
40
1
10
69.4880065919
20
46.0224586883
30
0
10
69.1111890459
20
46.0875690623
30
0
10
68.6366010999
20
46.1419689603
30
0
10
68.4321955139
20
46.1421034303
30
0
0
SPLINE
5
115
100
AcDbEntity
8
komachi
6
ByLayer
62
7
370
-1
100
AcDbSpline
210
0
220
0
230
1
70
8
71
3
72
8
73
4
74
0
42
1e-07
43
1e-07
40
0
40
0
40
0
40
0
40
1
40
1
40
1
40
1
10
68.4321955139
20
46.1421034303
30
0
10
68.2277899279
20
46.1422443263
30
0
10
67.5930439279
20
46.2151534843
30
0
10
67.0216487679
20
46.3058274383
30
0
0
SPLINE
5
116
100
AcDbEntity
8
komachi
6
ByLayer
62
7
370
-1
100
AcDbSpline
210
0
220
0
230
1
70
8
71
3
72
8
73
4
74
0
42
1e-07
43
1e-07
40
0
40
0
40
0
40
0
40
1
40
1
40
1
40
1
10
67.0216487679
20
46.3058274383
30
0
10
66.4502538459
20
46.3965013923
30
0
10
65.6199180179
20
46.5071587783
30
0
10
65.1766035099
20
46.5514136883
30
0
0
SPLINE
5
117
100
AcDbEntity
8
komachi
6
ByLayer
62
7
370
-1
100
AcDbSpline
210
0
220
0
230
1
70
8
71
3
72
8
73
4
74
0
42
1e-07
43
1e-07
40
0
40
0
40
0
40
0
40
1
40
1
40
1
40
1
10
65.1766035099
20
46.5514136883
30
0
10
63.8184034359
20
46.6869982423
30
0
10
62.5470071979
20
46.9637294103
30
0
10
62.4436692639
20
47.1454386023
30
0
0
SPLINE
5
118
100
AcDbEntity
8
komachi
6
ByLayer
62
7
370
-1
100
AcDbSpline
210
0
220
0
230
1
70
8
71
3
72
8
73
4
74
0
42
1e-07
43
1e-07
40
0
40
0
40
0
40
0
40
1
40
1
40
1
40
1
10
62.4436692639
20
47.1454386023
30
0
10
62.3945829539
20
47.2317500163
30
0
10
62.2727736019
20
47.3936014403
30
0
10
62.1728947599
20
47.5064715123
30
0
0
SPLINE
5
119
100
AcDbEntity
8
komachi
6
ByLayer
62
7
370
-1
100
AcDbSpline
210
0
220
0
230
1
70
8
71
3
72
8
73
4
74
0
42
1e-07
43
1e-07
40
0
40
0
40
0
40
0
40
1
40
1
40
1
40
1
10
62.1728947599
20
47.5064715123
30
0
10
62.0271892559
20
47.6711284803
30
0
10
61.9647275839
20
47.6956258203
30
0
10
61.8517435099
20
47.6261160163
30
0
0
SPLINE
5
11A
100
AcDbEntity
8
komachi
6
ByLayer
62
7
370
-1
100
AcDbSpline
210
0
220
0
230
1
70
8
71
3
72
8
73
4
74
0
42
1e-07
43
1e-07
40
0
40
0
40
0
40
0
40
1
40
1
40
1
40
1
10
61.8517435099
20
47.6261160163
30
0
10
61.7742964059
20
47.5784684163
30
0
10
61.6751068119
20
47.4598575463
30
0
10
61.6313455139
20
47.3637374383
30
0
0
SPLINE
5
11B
100
AcDbEntity
8
komachi
6
ByLayer
62
7
370
-1
100
AcDbSpline
210
0
220
0
230
1
70
8
71
3
72
8
73
4
74
0
42
1e-07
43
1e-07
40
0
40
0
40
0
40
0
40
1
40
1
40
1
40
1
10
61.6313455139
20
47.3637374383
30
0
10
61.5204363239
20
47.1201280163
30
0
10
61.4557350719
20
47.1442774003
30
0
10
61.3479767639
20
47.4707879343
30
0
0
SPLINE
5
11C
100
AcDbEntity
8
komachi
6
ByLayer
62
7
370
-1
100
AcDbSpline
210
0
220
0
230
1
70
8
71
3
72
8
73
4
74
0
42
1e-07
43
1e-07
40
0
40
0
40
0
40
0
40
1
40
1
40
1
40
1
10
61.3479767639
20
47.4707879343
30
0
10
61.2563241539
20
47.7484970443
30
0
10
61.1731779019
20
47.7953908983
30
0
10
60.8085266779
20
47.7646517703
30
0
0
SPLINE
5
11D
100
AcDbEntity
8
komachi
6
ByLayer
62
7
370
-1
100
AcDbSpline
210
0
220
0
230
1
70
8
71
3
72
8
73
4
74
0
42
1e-07
43
1e-07
40
0
40
0
40
0
40
0
40
1
40
1
40
1
40
1
10
60.8085266779
20
47.7646517703
30
0
10
60.7039097319
20
47.7558331563
30
0
10
60.5961090599
20
47.8140329623
30
0
10
60.5461480999
20
47.9073858443
30
0
0
SPLINE
5
11E
100
AcDbEntity
8
komachi
6
ByLayer
62
7
370
-1
100
AcDbSpline
210
0
220
0
230
1
70
8
71
3
72
8
73
4
74
0
42
1e-07
43
1e-07
40
0
40
0
40
0
40
0
40
1
40
1
40
1
40
1
10
60.5461480999
20
47.9073858443
30
0
10
60.4121469599
20
48.1577692223
30
0
10
60.1668998599
20
48.1913024703
30
0
10
59.9164398459
20
47.9934459303
30
0
0
SPLINE
5
11F
100
AcDbEntity
8
komachi
6
ByLayer
62
7
370
-1
100
AcDbSpline
210
0
220
0
230
1
70
8
71
3
72
8
73
4
74
0
42
1e-07
43
1e-07
40
0
40
0
40
0
40
0
40
1
40
1
40
1
40
1
10
59.9164398459
20
47.9934459303
30
0
10
59.7065276539
20
47.8276220483
30
0
10
59.6951162679
20
47.8271155843
30
0
10
59.6729525179
20
47.9703565983
30
0
0
SPLINE
5
120
100
AcDbEntity
8
komachi
6
ByLayer
62
7
370
-1
100
AcDbSpline
210
0
220
0
230
1
70
8
71
3
72
8
73
4
74
0
42
1e-07
43
1e-07
40
0
40
0
40
0
40
0
40
1
40
1
40
1
40
1
10
59.6729525179
20
47.9703565983
30
0
10
59.6601012319
20
48.0534055083
30
0
10
59.5450020519
20
48.1664521763
30
0
10
59.4189703419
20
48.2222398523
30
0
0
SPLINE
5
121
100
AcDbEntity
8
komachi
6
ByLayer
62
7
370
-1
100
AcDbSpline
210
0
220
0
230
1
70
8
71
3
72
8
73
4
74
0
42
1e-07
43
1e-07
40
0
40
0
40
0
40
0
40
1
40
1
40
1
40
1
10
59.4189703419
20
48.2222398523
30
0
10
59.1406048279
20
48.3454564983
30
0
10
58.8411130059
20
48.2367107283
30
0
10
58.7241921739
20
47.9703565983
30
0
0
SPLINE
5
122
100
AcDbEntity
8
komachi
6
ByLayer
62
7
370
-1
100
AcDbSpline
210
0
220
0
230
1
70
8
71
3
72
8
73
4
74
0
42
1e-07
43
1e-07
40
0
40
0
40
0
40
0
40
1
40
1
40
1
40
1
10
58.7241921739
20
47.9703565983
30
0
10
58.6300105759
20
47.7558043583
30
0
10
58.3496206339
20
47.7026261143
30
0
10
58.1847418499
20
47.8675041843
30
0
0
SPLINE
5
123
100
AcDbEntity
8
komachi
6
ByLayer
62
7
370
-1
100
AcDbSpline
210
0
220
0
230
1
70
8
71
3
72
8
73
4
74
0
42
1e-07
43
1e-07
40
0
40
0
40
0
40
0
40
1
40
1
40
1
40
1
10
58.1847418499
20
47.8675041843
30
0
10
58.1180747179
20
47.9341727443
30
0
10
57.9659950979
20
48.0118071543
30
0
10
57.8467985099
20
48.0417235163
30
0
0
SPLINE
5
124
100
AcDbEntity
8
komachi
6
ByLayer
62
7
370
-1
100
AcDbSpline
210
0
220
0
230
1
70
8
71
3
72
8
73
4
74
0
42
1e-07
43
1e-07
40
0
40
0
40
0
40
0
40
1
40
1
40
1
40
1
10
57.8467985099
20
48.0417235163
30
0
10
57.6788492879
20
48.0838754583
30
0
10
57.6018448639
20
48.0569412363
30
0
10
57.5088549319
20
47.9241779343
30
0
0
SPLINE
5
125
100
AcDbEntity
8
komachi
6
ByLayer
62
7
370
-1
100
AcDbSpline
210
0
220
0
230
1
70
8
71
3
72
8
73
4
74
0
42
1e-07
43
1e-07
40
0
40
0
40
0
40
0
40
1
40
1
40
1
40
1
10
57.5088549319
20
47.9241779343
30
0
10
57.3551309699
20
47.7047069483
30
0
10
57.1974404999
20
47.7079237563
30
0
10
55.9093959239
20
47.9535642703
30
0
0
SPLINE
5
126
100
AcDbEntity
8
komachi
6
ByLayer
62
7
370
-1
100
AcDbSpline
210
0
220
0
230
1
70
8
71
3
72
8
73
4
74
0
42
1e-07
43
1e-07
40
0
40
0
40
0
40
0
40
1
40
1
40
1
40
1
10
55.9093959239
20
47.9535642703
30
0
10
55.3315976119
20
48.0637549383
30
0
10
54.3158138499
20
48.2495158423
30
0
10
53.6508418499
20
48.3649736883
30
0
0
SPLINE
5
127
100
AcDbEntity
8
komachi
6
ByLayer
62
7
370
-1
100
AcDbSpline
210
0
220
0
230
1
70
8
71
3
72
8
73
4
74
0
42
1e-07
43
1e-07
40
0
40
0
40
0
40
0
40
1
40
1
40
1
40
1
10
53.6508418499
20
48.3649736883
30
0
10
48.3188305079
20
49.2907584643
30
0
10
48.2561303599
20
49.3062639263
30
0
10
47.9687736819
20
49.7776195943
30
0
0
SPLINE
5
128
100
AcDbEntity
8
komachi
6
ByLayer
62
7
370
-1
100
AcDbSpline
210
0
220
0
230
1
70
8
71
3
72
8
73
4
74
0
42
1e-07
43
1e-07
40
0
40
0
40
0
40
0
40
1
40
1
40
1
40
1
10
47.9687736819
20
49.7776195943
30
0
10
47.7513266479
20
50.1343011503
30
0
10
47.3116095099
20
50.5200977223
30
0
10
47.0200130999
20
50.6109335163
30
0
0
SPLINE
5
129
100
AcDbEntity
8
komachi
6
ByLayer
62
7
370
-1
100
AcDbSpline
210
0
220
0
230
1
70
8
71
3
72
8
73
4
74
0
42
1e-07
43
1e-07
40
0
40
0
40
0
40
0
40
1
40
1
40
1
40
1
10
47.0200130999
20
50.6109335163
30
0
10
46.9202672999
20
50.6420058443
30
0
10
46.8394967639
20
50.6960761123
30
0
10
46.8394967639
20
50.7326771803
30
0
0
SPLINE
5
12A
100
AcDbEntity
8
komachi
6
ByLayer
62
7
370
-1
100
AcDbSpline
210
0
220
0
230
1
70
8
71
3
72
8
73
4
74
0
42
1e-07
43
1e-07
40
0
40
0
40
0
40
0
40
1
40
1
40
1
40
1
10
46.8394967639
20
50.7326771803
30
0
10
46.8394967639
20
50.8285795183
30
0
10
46.6509417399
20
50.8889824903
30
0
10
45.8109730999
20
51.0622245943
30
0
0
SPLINE
5
12B
100
AcDbEntity
8
komachi
6
ByLayer
62
7
370
-1
100
AcDbSpline
210
0
220
0
230
1
70
8
71
3
72
8
73
4
74
0
42
1e-07
43
1e-07
40
0
40
0
40
0
40
0
40
1
40
1
40
1
40
1
10
45.8109730999
20
51.0622245943
30
0
10
45.0287149379
20
51.2235640803
30
0
10
44.7507002359
20
51.3344547063
30
0
10
44.4298129279
20
51.6142686883
30
0
0
SPLINE
5
12C
100
AcDbEntity
8
komachi
6
ByLayer
62
7
370
-1
100
AcDbSpline
210
0
220
0
230
1
70
8
71
3
72
8
73
4
74
0
42
1e-07
43
1e-07
40
0
40
0
40
0
40
0
40
1
40
1
40
1
40
1
10
44.4298129279
20
51.6142686883
30
0
10
44.3232836519
20
51.7071612783
30
0
10
44.1889512159
20
51.7842899383
30
0
10
44.1317510099
20
51.7842899383
30
0
0
SPLINE
5
12D
100
AcDbEntity
8
komachi
6
ByLayer
62
7
370
-1
100
AcDbSpline
210
0
220
0
230
1
70
8
71
3
72
8
73
4
74
0
42
1e-07
43
1e-07
40
0
40
0
40
0
40
0
40
1
40
1
40
1
40
1
10
44.1317510099
20
51.7842899383
30
0
10
43.9659076119
20
51.7842899383
30
0
10
43.7770153419
20
52.1185311883
30
0
10
43.7770153419
20
52.4118992703
30
0
0
SPLINE
5
12E
100
AcDbEntity
8
komachi
6
ByLayer
62
7
370
-1
100
AcDbSpline
210
0
220
0
230
1
70
8
71
3
72
8
73
4
74
0
42
1e-07
43
1e-07
40
0
40
0
40
0
40
0
40
1
40
1
40
1
40
1
10
43.7770153419
20
52.4118992703
30
0
10
43.7770153419
20
52.6490531803
30
0
10
43.7961381659
20
52.6753262383
30
0
10
43.9449374319
20
52.6280991843
30
0
0
SPLINE
5
12F
100
AcDbEntity
8
komachi
6
ByLayer
62
7
370
-1
100
AcDbSpline
210
0
220
0
230
1
70
8
71
3
72
8
73
4
74
0
42
1e-07
43
1e-07
40
0
40
0
40
0
40
0
40
1
40
1
40
1
40
1
10
43.9449374319
20
52.6280991843
30
0
10
44.0932940179
20
52.5810130263
30
0
10
44.1070032939
20
52.5964082943
30
0
10
44.0540868499
20
52.7624370943
30
0
0
SPLINE
5
130
100
AcDbEntity
8
komachi
6
ByLayer
62
7
370
-1
100
AcDbSpline
210
0
220
0
230
1
70
8
71
3
72
8
73
4
74
0
42
1e-07
43
1e-07
40
0
40
0
40
0
40
0
40
1
40
1
40
1
40
1
10
44.0540868499
20
52.7624370943
30
0
10
43.9174310579
20
53.1912040903
30
0
10
44.0003700119
20
53.2647132463
30
0
10
44.4633973459
20
53.1171727623
30
0
0
SPLINE
5
131
100
AcDbEntity
8
komachi
6
ByLayer
62
7
370
-1
100
AcDbSpline
210
0
220
0
230
1
70
8
71
3
72
8
73
4
74
0
42
1e-07
43
1e-07
40
0
40
0
40
0
40
0
40
1
40
1
40
1
40
1
10
44.4633973459
20
53.1171727623
30
0
10
44.5660286579
20
53.0844708483
30
0
10
44.6941816619
20
53.1180383683
30
0
10
44.8055387679
20
53.2095298523
30
0
0
SPLINE
5
132
100
AcDbEntity
8
komachi
6
ByLayer
62
7
370
-1
100
AcDbSpline
210
0
220
0
230
1
70
8
71
3
72
8
73
4
74
0
42
1e-07
43
1e-07
40
0
40
0
40
0
40
0
40
1
40
1
40
1
40
1
10
44.8055387679
20
53.2095298523
30
0
10
44.9031420919
20
53.2897194303
30
0
10
45.0737819039
20
53.4216452103
30
0
10
45.1854629279
20
53.5012947663
30
0
0
SPLINE
5
133
100
AcDbEntity
8
komachi
6
ByLayer
62
7
370
-1
100
AcDbSpline
210
0
220
0
230
1
70
8
71
3
72
8
73
4
74
0
42
1e-07
43
1e-07
40
0
40
0
40
0
40
0
40
1
40
1
40
1
40
1
10
45.1854629279
20
53.5012947663
30
0
10
45.3445773519
20
53.6147731663
30
0
10
45.3890685959
20
53.7142657343
30
0
10
45.3890685959
20
53.9672790123
30
0
0
SPLINE
5
134
100
AcDbEntity
8
komachi
6
ByLayer
62
7
370
-1
100
AcDbSpline
210
0
220
0
230
1
70
8
71
3
72
8
73
4
74
0
42
1e-07
43
1e-07
40
0
40
0
40
0
40
0
40
1
40
1
40
1
40
1
10
45.3890685959
20
53.9672790123
30
0
10
45.3890685959
20
54.1448667583
30
0
10
45.4421649679
20
54.5330733183
30
0
10
45.5066141779
20
54.8299792703
30
0
0
SPLINE
5
135
100
AcDbEntity
8
komachi
6
ByLayer
62
7
370
-1
100
AcDbSpline
210
0
220
0
230
1
70
8
71
3
72
8
73
4
74
0
42
1e-07
43
1e-07
40
0
40
0
40
0
40
0
40
1
40
1
40
1
40
1
10
45.5066141779
20
54.8299792703
30
0
10
45.5710619599
20
55.1268852223
30
0
10
45.6180069839
20
55.5330695883
30
0
10
45.6115655139
20
55.7325611883
30
0
0
SPLINE
5
136
100
AcDbEntity
8
komachi
6
ByLayer
62
7
370
-1
100
AcDbSpline
210
0
220
0
230
1
70
8
71
3
72
8
73
4
74
0
42
1e-07
43
1e-07
40
0
40
0
40
0
40
0
40
1
40
1
40
1
40
1
10
45.6115655139
20
55.7325611883
30
0
10
45.6051254719
20
55.9320527883
30
0
10
45.6272159179
20
56.2087456383
30
0
10
45.6619422599
20
56.3454773523
30
0
0
SPLINE
5
137
100
AcDbEntity
8
komachi
6
ByLayer
62
7
370
-1
100
AcDbSpline
210
0
220
0
230
1
70
8
71
3
72
8
73
4
74
0
42
1e-07
43
1e-07
40
0
40
0
40
0
40
0
40
1
40
1
40
1
40
1
10
45.6619422599
20
56.3454773523
30
0
10
45.7229402319
20
56.5856457703
30
0
10
45.7111494739
20
56.6016500803
30
0
10
45.2757210959
20
56.8219566843
30
0
0
SPLINE
5
138
100
AcDbEntity
8
komachi
6
ByLayer
62
7
370
-1
100
AcDbSpline
210
0
220
0
230
1
70
8
71
3
72
8
73
4
74
0
42
1e-07
43
1e-07
40
0
40
0
40
0
40
0
40
1
40
1
40
1
40
1
10
45.2757210959
20
56.8219566843
30
0
10
44.7831139319
20
57.0711929023
30
0
10
44.7237688699
20
57.2090356003
30
0
10
44.9818572599
20
57.5188340123
30
0
0
SPLINE
5
139
100
AcDbEntity
8
komachi
6
ByLayer
62
7
370
-1
100
AcDbSpline
210
0
220
0
230
1
70
8
71
3
72
8
73
4
74
0
42
1e-07
43
1e-07
40
0
40
0
40
0
40
0
40
1
40
1
40
1
40
1
10
44.9818572599
20
57.5188340123
30
0
10
45.1314738179
20
57.6984280983
30
0
10
45.1418099199
20
57.6982688763
30
0
10
45.1476804279
20
57.5461211883
30
0
0
SPLINE
5
13A
100
AcDbEntity
8
komachi
6
ByLayer
62
7
370
-1
100
AcDbSpline
210
0
220
0
230
1
70
8
71
3
72
8
73
4
74
0
42
1e-07
43
1e-07
40
0
40
0
40
0
40
0
40
1
40
1
40
1
40
1
10
45.1476804279
20
57.5461211883
30
0
10
45.1513834699
20
57.4501476883
30
0
10
45.1991995739
20
57.5164340203
30
0
10
45.2673249319
20
57.7077465123
30
0
0
SPLINE
5
13B
100
AcDbEntity
8
komachi
6
ByLayer
62
7
370
-1
100
AcDbSpline
210
0
220
0
230
1
70
8
71
3
72
8
73
4
74
0
42
1e-07
43
1e-07
40
0
40
0
40
0
40
0
40
1
40
1
40
1
40
1
10
45.2673249319
20
57.7077465123
30
0
10
45.3302609379
20
57.8844857883
30
0
10
45.4285942079
20
58.0658417883
30
0
10
45.4856237679
20
58.1107597663
30
0
0
SPLINE
5
13C
100
AcDbEntity
8
komachi
6
ByLayer
62
7
370
-1
100
AcDbSpline
210
0
220
0
230
1
70
8
71
3
72
8
73
4
74
0
42
1e-07
43
1e-07
40
0
40
0
40
0
40
0
40
1
40
1
40
1
40
1
10
45.4856237679
20
58.1107597663
30
0
10
45.5426535659
20
58.1556782203
30
0
10
45.6376545979
20
58.3276789163
30
0
10
45.6955266779
20
58.4927828483
30
0
0
SPLINE
5
13D
100
AcDbEntity
8
komachi
6
ByLayer
62
7
370
-1
100
AcDbSpline
210
0
220
0
230
1
70
8
71
3
72
8
73
4
74
0
42
1e-07
43
1e-07
40
0
40
0
40
0
40
0
40
1
40
1
40
1
40
1
10
45.6955266779
20
58.4927828483
30
0
10
45.7972378819
20
58.7829576843
30
0
10
45.7681476179
20
59.1433827423
30
0
10
45.5884761819
20
59.8592498523
30
0
0
SPLINE
5
13E
100
AcDbEntity
8
komachi
6
ByLayer
62
7
370
-1
100
AcDbSpline
210
0
220
0
230
1
70
8
71
3
72
8
73
4
74
0
42
1e-07
43
1e-07
40
0
40
0
40
0
40
0
40
1
40
1
40
1
40
1
10
45.5884761819
20
59.8592498523
30
0
10
45.5411375059
20
60.0478615203
30
0
10
45.5647475819
20
60.0758950643
30
0
10
45.7920818499
20
60.1258265123
30
0
0
LWPOLYLINE
5
13F
100
AcDbEntity
8
komachi
6
ByLayer
62
7
370
-1
100
AcDbPolyline
90
3
70
0
43
0
10
49.1295360959
20
35.2985259303
10
48.6362646739
20
35.8022924383
10
48.6320665919
20
36.7195677623
0
SPLINE
5
140
100
AcDbEntity
8
komachi
6
ByLayer
62
7
370
-1
100
AcDbSpline
210
0
220
0
230
1
70
8
71
3
72
8
73
4
74
0
42
1e-07
43
1e-07
40
0
40
0
40
0
40
0
40
1
40
1
40
1
40
1
10
45.8592509239
20
60.3105409303
30
0
10
45.7558235019
20
60.3811145943
30
0
10
45.6407202759
20
60.4875422443
30
0
10
45.6052685099
20
60.5456320943
30
0
0
SPLINE
5
141
100
AcDbEntity
8
komachi
6
ByLayer
62
7
370
-1
100
AcDbSpline
210
0
220
0
230
1
70
8
71
3
72
8
73
4
74
0
42
1e-07
43
1e-07
40
0
40
0
40
0
40
0
40
1
40
1
40
1
40
1
10
45.6052685099
20
60.5456320943
30
0
10
45.5698174579
20
60.6037224203
30
0
10
45.4980856859
20
60.6505834303
30
0
10
45.4436434239
20
60.6505834303
30
0
0
SPLINE
5
142
100
AcDbEntity
8
komachi
6
ByLayer
62
7
370
-1
100
AcDbSpline
210
0
220
0
230
1
70
8
71
3
72
8
73
4
74
0
42
1e-07
43
1e-07
40
0
40
0
40
0
40
0
40
1
40
1
40
1
40
1
10
45.4436434239
20
60.6505834303
30
0
10
45.3892009239
20
60.6505834303
30
0
10
45.2869644539
20
60.7136381983
30
0
10
45.2169484239
20
60.7912183443
30
0
0
SPLINE
5
143
100
AcDbEntity
8
komachi
6
ByLayer
62
7
370
-1
100
AcDbSpline
210
0
220
0
230
1
70
8
71
3
72
8
73
4
74
0
42
1e-07
43
1e-07
40
0
40
0
40
0
40
0
40
1
40
1
40
1
40
1
10
45.2169484239
20
60.7912183443
30
0
10
45.0465368539
20
60.9800401663
30
0
10
44.8719407679
20
61.1138075903
30
0
10
44.2996730999
20
61.4943924383
30
0
0
SPLINE
5
144
100
AcDbEntity
8
komachi
6
ByLayer
62
7
370
-1
100
AcDbSpline
210
0
220
0
230
1
70
8
71
3
72
8
73
4
74
0
42
1e-07
43
1e-07
40
0
40
0
40
0
40
0
40
1
40
1
40
1
40
1
10
44.2996730999
20
61.4943924383
30
0
10
43.8217262599
20
61.8122497683
30
0
10
43.6696290279
20
61.9023810823
30
0
10
43.2354660959
20
62.1220017703
30
0
0
SPLINE
5
145
100
AcDbEntity
8
komachi
6
ByLayer
62
7
370
-1
100
AcDbSpline
210
0
220
0
230
1
70
8
71
3
72
8
73
4
74
0
42
1e-07
43
1e-07
40
0
40
0
40
0
40
0
40
1
40
1
40
1
40
1
10
43.2354660959
20
62.1220017703
30
0
10
42.0235734279
20
62.7350364583
30
0
10
42.1426631539
20
62.7009896063
30
0
10
41.1763198459
20
62.7034324383
30
0
0
LWPOLYLINE
5
146
100
AcDbEntity
8
komachi
6
ByLayer
62
7
370
-1
100
AcDbPolyline
90
3
70
0
43
0
10
45.7920818499
20
60.1258265123
10
46.0460642639
20
60.1825002623
10
45.8592509239
20
60.3105409303
0
SPLINE
5
147
100
AcDbEntity
8
komachi
6
ByLayer
62
7
370
-1
100
AcDbSpline
210
0
220
0
230
1
70
8
71
3
72
8
73
4
74
0
42
1e-07
43
1e-07
40
0
40
0
40
0
40
0
40
1
40
1
40
1
40
1
10
48.5166199319
20
47.9157817703
30
0
10
48.5466969439
20
47.9157817703
30
0
10
48.9157361739
20
47.8435068823
30
0
10
49.3373398459
20
47.7562558443
30
0
0
SPLINE
5
148
100
AcDbEntity
8
komachi
6
ByLayer
62
7
370
-1
100
AcDbSpline
210
0
220
0
230
1
70
8
71
3
72
8
73
4
74
0
42
1e-07
43
1e-07
40
0
40
0
40
0
40
0
40
1
40
1
40
1
40
1
10
49.3373398459
20
47.7562558443
30
0
10
51.5064925519
20
47.3073500023
30
0
10
52.1331306059
20
47.1867106583
30
0
10
52.2801767639
20
47.1895183443
30
0
0
SPLINE
5
149
100
AcDbEntity
8
komachi
6
ByLayer
62
7
370
-1
100
AcDbSpline
210
0
220
0
230
1
70
8
71
3
72
8
73
4
74
0
42
1e-07
43
1e-07
40
0
40
0
40
0
40
0
40
1
40
1
40
1
40
1
10
52.2801767639
20
47.1895183443
30
0
10
52.3688396179
20
47.1912114763
30
0
10
52.8774760819
20
47.1042655543
30
0
10
53.4094536819
20
46.9964077623
30
0
0
SPLINE
5
14A
100
AcDbEntity
8
komachi
6
ByLayer
62
7
370
-1
100
AcDbSpline
210
0
220
0
230
1
70
8
71
3
72
8
73
4
74
0
42
1e-07
43
1e-07
40
0
40
0
40
0
40
0
40
1
40
1
40
1
40
1
10
53.4094536819
20
46.9964077623
30
0
10
55.1107476539
20
46.6514726963
30
0
10
56.6275380759
20
46.3779097843
30
0
10
56.8350671739
20
46.3792935163
30
0
0
SPLINE
5
14B
100
AcDbEntity
8
komachi
6
ByLayer
62
7
370
-1
100
AcDbSpline
210
0
220
0
230
1
70
8
71
3
72
8
73
4
74
0
42
1e-07
43
1e-07
40
0
40
0
40
0
40
0
40
1
40
1
40
1
40
1
10
56.8350671739
20
46.3792935163
30
0
10
57.3514674359
20
46.3827352343
30
0
10
57.5592316779
20
46.1631319203
30
0
10
57.5592316779
20
45.6152473523
30
0
0
SPLINE
5
14C
100
AcDbEntity
8
komachi
6
ByLayer
62
7
370
-1
100
AcDbSpline
210
0
220
0
230
1
70
8
71
3
72
8
73
4
74
0
42
1e-07
43
1e-07
40
0
40
0
40
0
40
0
40
1
40
1
40
1
40
1
10
57.5592316779
20
45.6152473523
30
0
10
57.5592316779
20
45.4628088283
30
0
10
57.6040318459
20
45.1743004683
30
0
10
57.6578860099
20
44.9729448523
30
0
0
SPLINE
5
14D
100
AcDbEntity
8
komachi
6
ByLayer
62
7
370
-1
100
AcDbSpline
210
0
220
0
230
1
70
8
71
3
72
8
73
4
74
0
42
1e-07
43
1e-07
40
0
40
0
40
0
40
0
40
1
40
1
40
1
40
1
10
57.6578860099
20
44.9729448523
30
0
10
57.7895269039
20
44.4807527603
30
0
10
57.6386784579
20
44.2175985403
30
0
10
57.1457230999
20
44.0829571803
30
0
0
SPLINE
5
14E
100
AcDbEntity
8
komachi
6
ByLayer
62
7
370
-1
100
AcDbSpline
210
0
220
0
230
1
70
8
71
3
72
8
73
4
74
0
42
1e-07
43
1e-07
40
0
40
0
40
0
40
0
40
1
40
1
40
1
40
1
10
57.1457230999
20
44.0829571803
30
0
10
56.9525111299
20
44.0301844883
30
0
10
56.6315452819
20
43.9325666463
30
0
10
56.4320536819
20
43.8646583443
30
0
0
SPLINE
5
14F
100
AcDbEntity
8
komachi
6
ByLayer
62
7
370
-1
100
AcDbSpline
210
0
220
0
230
1
70
8
71
3
72
8
73
4
74
0
42
1e-07
43
1e-07
40
0
40
0
40
0
40
0
40
1
40
1
40
1
40
1
10
56.4320536819
20
43.8646583443
30
0
10
56.2325620819
20
43.7967483763
30
0
10
55.7593573919
20
43.6494382763
30
0
10
55.3825398459
20
43.5372098523
30
0
0
SPLINE
5
150
100
AcDbEntity
8
komachi
6
ByLayer
62
7
370
-1
100
AcDbSpline
210
0
220
0
230
1
70
8
71
3
72
8
73
4
74
0
42
1e-07
43
1e-07
40
0
40
0
40
0
40
0
40
1
40
1
40
1
40
1
10
55.3825398459
20
43.5372098523
30
0
10
53.7966535019
20
43.0648783843
30
0
10
53.2179888699
20
42.8828552703
30
0
10
52.7209725179
20
42.7038959303
30
0
0
SPLINE
5
151
100
AcDbEntity
8
komachi
6
ByLayer
62
7
370
-1
100
AcDbSpline
210
0
220
0
230
1
70
8
71
3
72
8
73
4
74
0
42
1e-07
43
1e-07
40
0
40
0
40
0
40
0
40
1
40
1
40
1
40
1
10
52.7209725179
20
42.7038959303
30
0
10
52.4318770119
20
42.5998016323
30
0
10
52.1569855839
20
42.5149834303
30
0
10
52.1101555139
20
42.5149834303
30
0
0
SPLINE
5
152
100
AcDbEntity
8
komachi
6
ByLayer
62
7
370
-1
100
AcDbSpline
210
0
220
0
230
1
70
8
71
3
72
8
73
4
74
0
42
1e-07
43
1e-07
40
0
40
0
40
0
40
0
40
1
40
1
40
1
40
1
10
52.1101555139
20
42.5149834303
30
0
10
52.0633247299
20
42.5149834303
30
0
10
51.8104278339
20
42.4265642883
30
0
10
51.5476160959
20
42.3197736883
30
0
0
SPLINE
5
153
100
AcDbEntity
8
komachi
6
ByLayer
62
7
370
-1
100
AcDbSpline
210
0
220
0
230
1
70
8
71
3
72
8
73
4
74
0
42
1e-07
43
1e-07
40
0
40
0
40
0
40
0
40
1
40
1
40
1
40
1
10
51.5476160959
20
42.3197736883
30
0
10
51.2848043579
20
42.2129840403
30
0
10
50.9409245839
20
42.1016078943
30
0
10
50.7835699319
20
42.0720885163
30
0
0
SPLINE
5
154
100
AcDbEntity
8
komachi
6
ByLayer
62
7
370
-1
100
AcDbSpline
210
0
220
0
230
1
70
8
71
3
72
8
73
4
74
0
42
1e-07
43
1e-07
40
0
40
0
40
0
40
0
40
1
40
1
40
1
40
1
10
50.7835699319
20
42.0720885163
30
0
10
50.5320696199
20
42.0249064443
30
0
10
50.4874324819
20
42.0422447443
30
0
10
50.4078440919
20
42.2169215123
30
0
0
SPLINE
5
155
100
AcDbEntity
8
komachi
6
ByLayer
62
7
370
-1
100
AcDbSpline
210
0
220
0
230
1
70
8
71
3
72
8
73
4
74
0
42
1e-07
43
1e-07
40
0
40
0
40
0
40
0
40
1
40
1
40
1
40
1
10
50.4078440919
20
42.2169215123
30
0
10
50.3580490179
20
42.3262092083
30
0
10
50.2959662419
20
42.6840957583
30
0
10
50.2693080999
20
43.0103540123
30
0
0
SPLINE
5
156
100
AcDbEntity
8
komachi
6
ByLayer
62
7
370
-1
100
AcDbSpline
210
0
220
0
230
1
70
8
71
3
72
8
73
4
74
0
42
1e-07
43
1e-07
40
0
40
0
40
0
40
0
40
1
40
1
40
1
40
1
10
50.2693080999
20
43.0103540123
30
0
10
50.1996916719
20
43.8623723543
30
0
10
50.0610611939
20
44.4456725123
30
0
10
49.8474035959
20
44.7903295943
30
0
0
SPLINE
5
157
100
AcDbEntity
8
komachi
6
ByLayer
62
7
370
-1
100
AcDbSpline
210
0
220
0
230
1
70
8
71
3
72
8
73
4
74
0
42
1e-07
43
1e-07
40
0
40
0
40
0
40
0
40
1
40
1
40
1
40
1
10
49.8474035959
20
44.7903295943
30
0
10
49.7448939019
20
44.9556912803
30
0
10
49.6605900179
20
45.1251449003
30
0
10
49.6605900179
20
45.1681545943
30
0
0
SPLINE
5
158
100
AcDbEntity
8
komachi
6
ByLayer
62
7
370
-1
100
AcDbSpline
210
0
220
0
230
1
70
8
71
3
72
8
73
4
74
0
42
1e-07
43
1e-07
40
0
40
0
40
0
40
0
40
1
40
1
40
1
40
1
10
49.6605900179
20
45.1681545943
30
0
10
49.6605900179
20
45.2111640503
30
0
10
49.6152510179
20
45.2754373783
30
0
10
49.5598367639
20
45.3108884303
30
0
0
SPLINE
5
159
100
AcDbEntity
8
komachi
6
ByLayer
62
7
370
-1
100
AcDbSpline
210
0
220
0
230
1
70
8
71
3
72
8
73
4
74
0
42
1e-07
43
1e-07
40
0
40
0
40
0
40
0
40
1
40
1
40
1
40
1
10
49.5598367639
20
45.3108884303
30
0
10
49.3722549219
20
45.4308942183
30
0
10
48.8545635099
20
46.1676591563
30
0
10
48.8545635099
20
46.3142236023
30
0
0
SPLINE
5
15A
100
AcDbEntity
8
komachi
6
ByLayer
62
7
370
-1
100
AcDbSpline
210
0
220
0
230
1
70
8
71
3
72
8
73
4
74
0
42
1e-07
43
1e-07
40
0
40
0
40
0
40
0
40
1
40
1
40
1
40
1
10
48.8545635099
20
46.3142236023
30
0
10
48.8545635099
20
46.3943158383
30
0
10
48.7413214439
20
46.6212969143
30
0
10
48.6026800179
20
46.8179903483
30
0
0
SPLINE
5
15B
100
AcDbEntity
8
komachi
6
ByLayer
62
7
370
-1
100
AcDbSpline
210
0
220
0
230
1
70
8
71
3
72
8
73
4
74
0
42
1e-07
43
1e-07
40
0
40
0
40
0
40
0
40
1
40
1
40
1
40
1
10
48.6026800179
20
46.8179903483
30
0
10
48.3772242839
20
47.1378466403
30
0
10
48.3557250299
20
47.2131879203
30
0
10
48.4053715919
20
47.5442540123
30
0
0
SPLINE
5
15C
100
AcDbEntity
8
komachi
6
ByLayer
62
7
370
-1
100
AcDbSpline
210
0
220
0
230
1
70
8
71
3
72
8
73
4
74
0
42
1e-07
43
1e-07
40
0
40
0
40
0
40
0
40
1
40
1
40
1
40
1
10
48.4053715919
20
47.5442540123
30
0
10
48.4359010419
20
47.7478408783
30
0
10
48.4865424439
20
47.9157817703
30
0
10
48.5166199319
20
47.9157817703
30
0
0
LWPOLYLINE
5
15D
100
AcDbEntity
8
komachi
6
ByLayer
62
7
370
-1
100
AcDbPolyline
90
2
70
0
43
0
10
41.1763198459
20
62.7034324383
10
41.1763198459
20
62.7034324383
0
SPLINE
5
15E
100
AcDbEntity
8
komachi
6
ByLayer
62
7
370
-1
100
AcDbSpline
210
0
220
0
230
1
70
8
71
3
72
8
73
4
74
0
42
1e-07
43
1e-07
40
0
40
0
40
0
40
0
40
1
40
1
40
1
40
1
10
40.1834797599
20
41.9503448523
30
0
10
40.3953257019
20
41.9503448523
30
0
10
40.7810518259
20
40.1804212003
30
0
10
40.6746522599
20
39.6959890983
30
0
0
SPLINE
5
15F
100
AcDbEntity
8
komachi
6
ByLayer
62
7
370
-1
100
AcDbSpline
210
0
220
0
230
1
70
8
71
3
72
8
73
4
74
0
42
1e-07
43
1e-07
40
0
40
0
40
0
40
0
40
1
40
1
40
1
40
1
10
40.6746522599
20
39.6959890983
30
0
10
40.6183128999
20
39.4394776963
30
0
10
40.4985420179
20
39.3904418423
30
0
10
40.3346097599
20
39.5553541843
30
0
0
SPLINE
5
160
100
AcDbEntity
8
komachi
6
ByLayer
62
7
370
-1
100
AcDbSpline
210
0
220
0
230
1
70
8
71
3
72
8
73
4
74
0
42
1e-07
43
1e-07
40
0
40
0
40
0
40
0
40
1
40
1
40
1
40
1
10
40.3346097599
20
39.5553541843
30
0
10
40.2812004179
20
39.6090819703
30
0
10
40.1233573899
20
39.7446865163
30
0
10
39.9840721739
20
39.8555152623
30
0
0
SPLINE
5
161
100
AcDbEntity
8
komachi
6
ByLayer
62
7
370
-1
100
AcDbSpline
210
0
220
0
230
1
70
8
71
3
72
8
73
4
74
0
42
1e-07
43
1e-07
40
0
40
0
40
0
40
0
40
1
40
1
40
1
40
1
10
39.9840721739
20
39.8555152623
30
0
10
39.5374204299
20
40.2109118563
30
0
10
39.1024804279
20
40.6757460863
30
0
10
39.1024804279
20
40.7979786023
30
0
0
SPLINE
5
162
100
AcDbEntity
8
komachi
6
ByLayer
62
7
370
-1
100
AcDbSpline
210
0
220
0
230
1
70
8
71
3
72
8
73
4
74
0
42
1e-07
43
1e-07
40
0
40
0
40
0
40
0
40
1
40
1
40
1
40
1
10
39.1024804279
20
40.7979786023
30
0
10
39.1024804279
20
40.8632600983
30
0
10
39.2108741959
20
41.0129244943
30
0
10
39.3438685959
20
41.1296249383
30
0
0
SPLINE
5
163
100
AcDbEntity
8
komachi
6
ByLayer
62
7
370
-1
100
AcDbSpline
210
0
220
0
230
1
70
8
71
3
72
8
73
4
74
0
42
1e-07
43
1e-07
40
0
40
0
40
0
40
0
40
1
40
1
40
1
40
1
10
39.3438685959
20
41.1296249383
30
0
10
39.4768629959
20
41.2463256203
30
0
10
39.5852567639
20
41.3672517543
30
0
10
39.5852567639
20
41.3983005203
30
0
0
SPLINE
5
164
100
AcDbEntity
8
komachi
6
ByLayer
62
7
370
-1
100
AcDbSpline
210
0
220
0
230
1
70
8
71
3
72
8
73
4
74
0
42
1e-07
43
1e-07
40
0
40
0
40
0
40
0
40
1
40
1
40
1
40
1
10
39.5852567639
20
41.3983005203
30
0
10
39.5852567639
20
41.4967768283
30
0
10
40.0768343399
20
41.9503448523
30
0
10
40.1834797599
20
41.9503448523
30
0
0
LWPOLYLINE
5
165
100
AcDbEntity
8
komachi
6
ByLayer
62
7
370
-1
100
AcDbPolyline
90
2
70
0
43
0
10
48.5166199319
20
47.9157817703
10
48.5166199319
20
47.9157817703
0
LWPOLYLINE
5
166
100
AcDbEntity
8
komachi
6
ByLayer
62
7
370
-1
100
AcDbPolyline
90
2
70
0
43
0
10
40.1834797599
20
41.9503448523
10
40.1834797599
20
41.9503448523
0
ENDSEC
0
SECTION
2
OBJECTS
0
DICTIONARY
5
C
330
0
100
AcDbDictionary
281
1
3
ACAD_GROUP
350
D
0
DICTIONARY
5
D
330
C
100
AcDbDictionary
281
1
0
ENDSEC
0
EOF
