  0
SECTION
  2
HEADER
  9
$ACADVER
  1
AC1014
  9
$HANDSEED
  5
FFFF
  9
$MEASUREMENT
 70
     1
  0
ENDSEC
  0
SECTION
  2
TABLES
  0
TABLE
  2
VPORT
  5
8
330
0
100
AcDbSymbolTable
 70
     4
  0
VPORT
  5
2E
330
8
100
AcDbSymbolTableRecord
100
AcDbViewportTableRecord
  2
*ACTIVE
 70
     0
 10
0.0
 20
0.0
 11
1.0
 21
1.0
 12
210.0
 22
148.5
 13
0.0
 23
0.0
 14
10.0
 24
10.0
 15
10.0
 25
10.0
 16
0.0
 26
0.0
 36
1.0
 17
0.0
 27
0.0
 37
0.0
 40
341.0
 41
1.24
 42
50.0
 43
0.0
 44
0.0
 50
0.0
 51
0.0
 71
     0
 72
   100
 73
     1
 74
     3
 75
     0
 76
     0
 77
     0
 78
     0
  0
ENDTAB
  0
TABLE
  2
LTYPE
  5
5
330
0
100
AcDbSymbolTable
 70
     1
  0
LTYPE
  5
14
330
5
100
AcDbSymbolTableRecord
100
AcDbLinetypeTableRecord
  2
BYBLOCK
 70
     0
  3

 72
    65
 73
     0
 40
0.0
  0
LTYPE
  5
15
330
5
100
AcDbSymbolTableRecord
100
AcDbLinetypeTableRecord
  2
BYLAYER
 70
     0
  3

 72
    65
 73
     0
 40
0.0
  0
LTYPE
  5
16
330
5
100
AcDbSymbolTableRecord
100
AcDbLinetypeTableRecord
  2
CONTINUOUS
 70
     0
  3
Solid line
 72
    65
 73
     0
 40
0.0
  0
ENDTAB
  0
TABLE
  2
LAYER
  5
2
100
AcDbSymbolTable
 70
1
  0
LAYER
  5
50
100
AcDbSymbolTableRecord
100
AcDbLayerTableRecord
  2
0
 70
0
  6
CONTINUOUS
  0
ENDTAB
  0
TABLE
  2
STYLE
  5
3
330
0
100
AcDbSymbolTable
 70
     1
  0
STYLE
  5
11
330
3
100
AcDbSymbolTableRecord
100
AcDbTextStyleTableRecord
  2
STANDARD
 70
     0
 40
0.0
 41
1.0
 50
0.0
 71
     0
 42
2.5
  3
txt
  4

  0
ENDTAB
  0
TABLE
  2
VIEW
  5
6
330
0
100
AcDbSymbolTable
 70
     0
  0
ENDTAB
  0
TABLE
  2
UCS
  5
7
330
0
100
AcDbSymbolTable
 70
     0
  0
ENDTAB
  0
TABLE
  2
APPID
  5
9
330
0
100
AcDbSymbolTable
 70
     2
  0
APPID
  5
12
330
9
100
AcDbSymbolTableRecord
100
AcDbRegAppTableRecord
  2
ACAD
 70
     0
  0
ENDTAB
  0
TABLE
  2
DIMSTYLE
  5
A
330
0
100
AcDbSymbolTable
 70
     1
  0
DIMSTYLE
105
27
330
A
100
AcDbSymbolTableRecord
100
AcDbDimStyleTableRecord
  2
ISO-25
 70
     0
  3

  4

  5

  6

  7

 40
1.0
 41
2.5
 42
0.625
 43
3.75
 44
1.25
 45
0.0
 46
0.0
 47
0.0
 48
0.0
140
2.5
141
2.5
142
0.0
143
0.03937007874016
144
1.0
145
0.0
146
1.0
147
0.625
 71
     0
 72
     0
 73
     0
 74
     0
 75
     0
 76
     0
 77
     1
 78
     8
170
     0
171
     3
172
     1
173
     0
174
     0
175
     0
176
     0
177
     0
178
     0
270
     2
271
     2
272
     2
273
     2
274
     3
340
11
275
     0
280
     0
281
     0
282
     0
283
     0
284
     8
285
     0
286
     0
287
     3
288
     0
  0
ENDTAB
  0
TABLE
  2
BLOCK_RECORD
  5
1
330
0
100
AcDbSymbolTable
 70
     1
  0
BLOCK_RECORD
  5
1F
330
1
100
AcDbSymbolTableRecord
100
AcDbBlockTableRecord
  2
*MODEL_SPACE
  0
BLOCK_RECORD
  5
1B
330
1
100
AcDbSymbolTableRecord
100
AcDbBlockTableRecord
  2
*PAPER_SPACE
  0
ENDTAB
  0
ENDSEC
  0
SECTION
  2
BLOCKS
  0
BLOCK
  5
20
330
1F
100
AcDbEntity
  8
0
100
AcDbBlockBegin
  2
*MODEL_SPACE
 70
     0
 10
0.0
 20
0.0
 30
0.0
  3
*MODEL_SPACE
  1

  0
ENDBLK
  5
21
330
1F
100
AcDbEntity
  8
0
100
AcDbBlockEnd
  0
BLOCK
  5
1C
330
1B
100
AcDbEntity
 67
     1
  8
0
100
AcDbBlockBegin
  2
*PAPER_SPACE
  1

  0
ENDBLK
  5
1D
330
1B
100
AcDbEntity
 67
     1
  8
0
100
AcDbBlockEnd
  0
ENDSEC
  0
SECTION
  2
ENTITIES
  0
SPLINE
  5
100
100
AcDbEntity
  8
0
 62
7
100
AcDbSpline
 70
8
 71
3
 72
8
 73
4
 74
0
 40
0
 40
0
 40
0
 40
0
 40
1
 40
1
 40
1
 40
1
 10
103.866597
 20
262.700745
 30
0.0
 10
103.084438
 20
262.684600
 30
0.0
 10
102.418557
 20
262.602752
 30
0.0
 10
101.873403
 20
262.462620
 30
0.0
  0
SPLINE
  5
101
100
AcDbEntity
  8
0
 62
7
100
AcDbSpline
 70
8
 71
3
 72
8
 73
4
 74
0
 40
0
 40
0
 40
0
 40
0
 40
1
 40
1
 40
1
 40
1
 10
101.873403
 20
262.462620
 30
0.0
 10
100.213346
 20
262.035902
 30
0.0
 10
96.475606
 20
260.407040
 30
0.0
 10
96.131944
 20
259.957897
 30
0.0
  0
SPLINE
  5
102
100
AcDbEntity
  8
0
 62
7
100
AcDbSpline
 70
8
 71
3
 72
8
 73
4
 74
0
 40
0
 40
0
 40
0
 40
0
 40
1
 40
1
 40
1
 40
1
 10
96.131944
 20
259.957897
 30
0.0
 10
96.034931
 20
259.831106
 30
0.0
 10
95.479306
 20
259.481467
 30
0.0
 10
94.897222
 20
259.181786
 30
0.0
  0
SPLINE
  5
103
100
AcDbEntity
  8
0
 62
7
100
AcDbSpline
 70
8
 71
3
 72
8
 73
4
 74
0
 40
0
 40
0
 40
0
 40
0
 40
1
 40
1
 40
1
 40
1
 10
94.897222
 20
259.181786
 30
0.0
 10
93.572581
 20
258.499810
 30
0.0
 10
92.640616
 20
257.454073
 30
0.0
 10
91.387083
 20
255.257133
 30
0.0
  0
SPLINE
  5
104
100
AcDbEntity
  8
0
 62
7
100
AcDbSpline
 70
8
 71
3
 72
8
 73
4
 74
0
 40
0
 40
0
 40
0
 40
0
 40
1
 40
1
 40
1
 40
1
 10
91.387083
 20
255.257133
 30
0.0
 10
90.288392
 20
253.331568
 30
0.0
 10
90.272139
 20
251.494584
 30
0.0
 10
91.325347
 20
249.383383
 30
0.0
  0
SPLINE
  5
105
100
AcDbEntity
  8
0
 62
7
100
AcDbSpline
 70
8
 71
3
 72
8
 73
4
 74
0
 40
0
 40
0
 40
0
 40
0
 40
1
 40
1
 40
1
 40
1
 10
91.325347
 20
249.383383
 30
0.0
 10
92.039750
 20
247.951326
 30
0.0
 10
92.040761
 20
247.981092
 30
0.0
 10
91.254792
 20
247.981092
 30
0.0
  0
SPLINE
  5
106
100
AcDbEntity
  8
0
 62
7
100
AcDbSpline
 70
8
 71
3
 72
8
 73
4
 74
0
 40
0
 40
0
 40
0
 40
0
 40
1
 40
1
 40
1
 40
1
 10
91.254792
 20
247.981092
 30
0.0
 10
90.516992
 20
247.981092
 30
0.0
 10
85.895759
 20
243.360606
 30
0.0
 10
85.910208
 20
242.636508
 30
0.0
  0
SPLINE
  5
107
100
AcDbEntity
  8
0
 62
7
100
AcDbSpline
 70
8
 71
3
 72
8
 73
4
 74
0
 40
0
 40
0
 40
0
 40
0
 40
1
 40
1
 40
1
 40
1
 10
85.910208
 20
242.636508
 30
0.0
 10
85.915429
 20
242.375109
 30
0.0
 10
86.351993
 20
242.683267
 30
0.0
 10
86.880347
 20
243.315606
 30
0.0
  0
SPLINE
  5
108
100
AcDbEntity
  8
0
 62
7
100
AcDbSpline
 70
8
 71
3
 72
8
 73
4
 74
0
 40
0
 40
0
 40
0
 40
0
 40
1
 40
1
 40
1
 40
1
 10
86.880347
 20
243.315606
 30
0.0
 10
88.236905
 20
244.939137
 30
0.0
 10
88.509049
 20
244.733507
 30
0.0
 10
87.471250
 20
242.874633
 30
0.0
  0
SPLINE
  5
109
100
AcDbEntity
  8
0
 62
7
100
AcDbSpline
 70
8
 71
3
 72
8
 73
4
 74
0
 40
0
 40
0
 40
0
 40
0
 40
1
 40
1
 40
1
 40
1
 10
87.471250
 20
242.874633
 30
0.0
 10
85.576382
 20
239.480601
 30
0.0
 10
84.391858
 20
233.555337
 30
0.0
 10
85.142917
 20
231.224147
 30
0.0
  0
SPLINE
  5
10a
100
AcDbEntity
  8
0
 62
7
100
AcDbSpline
 70
8
 71
3
 72
8
 73
4
 74
0
 40
0
 40
0
 40
0
 40
0
 40
1
 40
1
 40
1
 40
1
 10
85.142917
 20
231.224147
 30
0.0
 10
85.456183
 20
230.251804
 30
0.0
 10
85.497264
 20
230.323461
 30
0.0
 10
85.557431
 20
232.106092
 30
0.0
  0
SPLINE
  5
10b
100
AcDbEntity
  8
0
 62
7
100
AcDbSpline
 70
8
 71
3
 72
8
 73
4
 74
0
 40
0
 40
0
 40
0
 40
0
 40
1
 40
1
 40
1
 40
1
 10
85.557431
 20
232.106092
 30
0.0
 10
85.593451
 20
233.173245
 30
0.0
 10
85.746042
 20
234.443245
 30
0.0
 10
85.901389
 20
234.928314
 30
0.0
  0
SPLINE
  5
10c
100
AcDbEntity
  8
0
 62
7
100
AcDbSpline
 70
8
 71
3
 72
8
 73
4
 74
0
 40
0
 40
0
 40
0
 40
0
 40
1
 40
1
 40
1
 40
1
 10
85.901389
 20
234.928314
 30
0.0
 10
86.140925
 20
235.676265
 30
0.0
 10
86.197973
 20
235.569072
 30
0.0
 10
86.262986
 20
234.222758
 30
0.0
  0
SPLINE
  5
10d
100
AcDbEntity
  8
0
 62
7
100
AcDbSpline
 70
8
 71
3
 72
8
 73
4
 74
0
 40
0
 40
0
 40
0
 40
0
 40
1
 40
1
 40
1
 40
1
 10
86.624583
 20
234.346231
 30
0.0
 10
86.782422
 20
235.286830
 30
0.0
 10
86.976582
 20
236.126980
 30
0.0
 10
87.056736
 20
236.207133
 30
0.0
  0
SPLINE
  5
10e
100
AcDbEntity
  8
0
 62
7
100
AcDbSpline
 70
8
 71
3
 72
8
 73
4
 74
0
 40
0
 40
0
 40
0
 40
0
 40
1
 40
1
 40
1
 40
1
 10
87.056736
 20
236.207133
 30
0.0
 10
87.285680
 20
236.436078
 30
0.0
 10
87.694939
 20
226.091569
 30
0.0
 10
87.471250
 20
225.729633
 30
0.0
  0
SPLINE
  5
10f
100
AcDbEntity
  8
0
 62
7
100
AcDbSpline
 70
8
 71
3
 72
8
 73
4
 74
0
 40
0
 40
0
 40
0
 40
0
 40
1
 40
1
 40
1
 40
1
 10
87.471250
 20
225.729633
 30
0.0
 10
87.361361
 20
225.551828
 30
0.0
 10
86.767472
 20
225.406136
 30
0.0
 10
86.148333
 20
225.403314
 30
0.0
  0
SPLINE
  5
110
100
AcDbEntity
  8
0
 62
7
100
AcDbSpline
 70
8
 71
3
 72
8
 73
4
 74
0
 40
0
 40
0
 40
0
 40
0
 40
1
 40
1
 40
1
 40
1
 10
86.148333
 20
225.403314
 30
0.0
 10
84.664124
 20
225.396194
 30
0.0
 10
84.271220
 20
225.107825
 30
0.0
 10
83.617153
 20
223.542411
 30
0.0
  0
SPLINE
  5
111
100
AcDbEntity
  8
0
 62
7
100
AcDbSpline
 70
8
 71
3
 72
8
 73
4
 74
0
 40
0
 40
0
 40
0
 40
0
 40
1
 40
1
 40
1
 40
1
 10
83.617153
 20
223.542411
 30
0.0
 10
83.315979
 20
222.821607
 30
0.0
 10
82.869306
 20
222.225957
 30
0.0
 10
82.629375
 20
222.219495
 30
0.0
  0
SPLINE
  5
112
100
AcDbEntity
  8
0
 62
7
100
AcDbSpline
 70
8
 71
3
 72
8
 73
4
 74
0
 40
0
 40
0
 40
0
 40
0
 40
1
 40
1
 40
1
 40
1
 10
82.629375
 20
222.219495
 30
0.0
 10
81.748715
 20
222.195802
 30
0.0
 10
80.654217
 20
220.892119
 30
0.0
 10
80.406875
 20
219.573661
 30
0.0
  0
SPLINE
  5
113
100
AcDbEntity
  8
0
 62
7
100
AcDbSpline
 70
8
 71
3
 72
8
 73
4
 74
0
 40
0
 40
0
 40
0
 40
0
 40
1
 40
1
 40
1
 40
1
 10
80.406875
 20
219.573661
 30
0.0
 10
80.251128
 20
218.743448
 30
0.0
 10
79.748095
 20
217.844627
 30
0.0
 10
79.101597
 20
217.254147
 30
0.0
  0
SPLINE
  5
114
100
AcDbEntity
  8
0
 62
7
100
AcDbSpline
 70
8
 71
3
 72
8
 73
4
 74
0
 40
0
 40
0
 40
0
 40
0
 40
1
 40
1
 40
1
 40
1
 10
79.101597
 20
217.254147
 30
0.0
 10
78.357947
 20
216.574926
 30
0.0
 10
78.102116
 20
216.068893
 30
0.0
 10
78.237292
 20
215.551995
 30
0.0
  0
SPLINE
  5
115
100
AcDbEntity
  8
0
 62
7
100
AcDbSpline
 70
8
 71
3
 72
8
 73
4
 74
0
 40
0
 40
0
 40
0
 40
0
 40
1
 40
1
 40
1
 40
1
 10
78.237292
 20
215.551995
 30
0.0
 10
78.390377
 20
214.966584
 30
0.0
 10
78.267611
 20
214.819981
 30
0.0
 10
77.619931
 20
214.819981
 30
0.0
  0
SPLINE
  5
116
100
AcDbEntity
  8
0
 62
7
100
AcDbSpline
 70
8
 71
3
 72
8
 73
4
 74
0
 40
0
 40
0
 40
0
 40
0
 40
1
 40
1
 40
1
 40
1
 10
77.619931
 20
214.819981
 30
0.0
 10
77.173782
 20
214.819981
 30
0.0
 10
76.719012
 20
214.598419
 30
0.0
 10
76.614514
 20
214.326092
 30
0.0
  0
SPLINE
  5
117
100
AcDbEntity
  8
0
 62
7
100
AcDbSpline
 70
8
 71
3
 72
8
 73
4
 74
0
 40
0
 40
0
 40
0
 40
0
 40
1
 40
1
 40
1
 40
1
 10
76.614514
 20
214.326092
 30
0.0
 10
76.402427
 20
213.773413
 30
0.0
 10
76.684787
 20
212.372338
 30
0.0
 10
77.117222
 20
211.812550
 30
0.0
  0
SPLINE
  5
118
100
AcDbEntity
  8
0
 62
7
100
AcDbSpline
 70
8
 71
3
 72
8
 73
4
 74
0
 40
0
 40
0
 40
0
 40
0
 40
1
 40
1
 40
1
 40
1
 10
77.117222
 20
211.812550
 30
0.0
 10
77.468202
 20
211.358201
 30
0.0
 10
77.028144
 20
209.366053
 30
0.0
 10
76.252917
 20
207.870258
 30
0.0
  0
SPLINE
  5
119
100
AcDbEntity
  8
0
 62
7
100
AcDbSpline
 70
8
 71
3
 72
8
 73
4
 74
0
 40
0
 40
0
 40
0
 40
0
 40
1
 40
1
 40
1
 40
1
 10
76.252917
 20
207.870258
 30
0.0
 10
75.931096
 20
207.249302
 30
0.0
 10
75.670833
 20
206.346569
 30
0.0
 10
75.670833
 20
205.859425
 30
0.0
  0
SPLINE
  5
11a
100
AcDbEntity
  8
0
 62
7
100
AcDbSpline
 70
8
 71
3
 72
8
 73
4
 74
0
 40
0
 40
0
 40
0
 40
0
 40
1
 40
1
 40
1
 40
1
 10
75.670833
 20
205.859425
 30
0.0
 10
75.670833
 20
205.372276
 30
0.0
 10
75.321154
 20
204.642748
 30
0.0
 10
74.894722
 20
204.245467
 30
0.0
  0
SPLINE
  5
11b
100
AcDbEntity
  8
0
 62
7
100
AcDbSpline
 70
8
 71
3
 72
8
 73
4
 74
0
 40
0
 40
0
 40
0
 40
0
 40
1
 40
1
 40
1
 40
1
 10
74.894722
 20
204.245467
 30
0.0
 10
74.078883
 20
203.485397
 30
0.0
 10
74.071412
 20
203.550811
 30
0.0
 10
75.221042
 20
200.461925
 30
0.0
  0
SPLINE
  5
11c
100
AcDbEntity
  8
0
 62
7
100
AcDbSpline
 70
8
 71
3
 72
8
 73
4
 74
0
 40
0
 40
0
 40
0
 40
0
 40
1
 40
1
 40
1
 40
1
 10
75.221042
 20
200.461925
 30
0.0
 10
75.308587
 20
200.226713
 30
0.0
 10
74.617219
 20
199.239722
 30
0.0
 10
73.677639
 20
198.265883
 30
0.0
  0
SPLINE
  5
11d
100
AcDbEntity
  8
0
 62
7
100
AcDbSpline
 70
8
 71
3
 72
8
 73
4
 74
0
 40
0
 40
0
 40
0
 40
0
 40
1
 40
1
 40
1
 40
1
 10
73.677639
 20
198.265883
 30
0.0
 10
72.222944
 20
196.758151
 30
0.0
 10
70.608074
 20
194.949541
 30
0.0
 10
69.144444
 20
193.194703
 30
0.0
  0
SPLINE
  5
11e
100
AcDbEntity
  8
0
 62
7
100
AcDbSpline
 70
8
 71
3
 72
8
 73
4
 74
0
 40
0
 40
0
 40
0
 40
0
 40
1
 40
1
 40
1
 40
1
 10
69.144444
 20
193.194703
 30
0.0
 10
68.950417
 20
192.962070
 30
0.0
 10
68.325602
 20
192.136370
 30
0.0
 10
67.750972
 20
191.360258
 30
0.0
  0
SPLINE
  5
11f
100
AcDbEntity
  8
0
 62
7
100
AcDbSpline
 70
8
 71
3
 72
8
 73
4
 74
0
 40
0
 40
0
 40
0
 40
0
 40
1
 40
1
 40
1
 40
1
 10
67.750972
 20
191.360258
 30
0.0
 10
66.304078
 20
189.406053
 30
0.0
 10
64.151490
 20
187.305529
 30
0.0
 10
63.605833
 20
187.312133
 30
0.0
  0
SPLINE
  5
120
100
AcDbEntity
  8
0
 62
7
100
AcDbSpline
 70
8
 71
3
 72
8
 73
4
 74
0
 40
0
 40
0
 40
0
 40
0
 40
1
 40
1
 40
1
 40
1
 10
63.605833
 20
187.312133
 30
0.0
 10
63.355722
 20
187.315150
 30
0.0
 10
62.752913
 20
188.118375
 30
0.0
 10
62.274097
 20
189.093661
 30
0.0
  0
SPLINE
  5
121
100
AcDbEntity
  8
0
 62
7
100
AcDbSpline
 70
8
 71
3
 72
8
 73
4
 74
0
 40
0
 40
0
 40
0
 40
0
 40
1
 40
1
 40
1
 40
1
 10
62.274097
 20
189.093661
 30
0.0
 10
61.795282
 20
190.068951
 30
0.0
 10
61.120596
 20
191.117869
 30
0.0
 10
60.774792
 20
191.430814
 30
0.0
  0
SPLINE
  5
122
100
AcDbEntity
  8
0
 62
7
100
AcDbSpline
 70
8
 71
3
 72
8
 73
4
 74
0
 40
0
 40
0
 40
0
 40
0
 40
1
 40
1
 40
1
 40
1
 10
60.774792
 20
191.430814
 30
0.0
 10
60.428988
 20
191.743762
 30
0.0
 10
60.148611
 20
192.210538
 30
0.0
 10
60.148611
 20
192.471508
 30
0.0
  0
SPLINE
  5
123
100
AcDbEntity
  8
0
 62
7
100
AcDbSpline
 70
8
 71
3
 72
8
 73
4
 74
0
 40
0
 40
0
 40
0
 40
0
 40
1
 40
1
 40
1
 40
1
 10
60.148611
 20
192.471508
 30
0.0
 10
60.148611
 20
192.732477
 30
0.0
 10
60.027399
 20
192.947758
 30
0.0
 10
59.875208
 20
192.947758
 30
0.0
  0
SPLINE
  5
124
100
AcDbEntity
  8
0
 62
7
100
AcDbSpline
 70
8
 71
3
 72
8
 73
4
 74
0
 40
0
 40
0
 40
0
 40
0
 40
1
 40
1
 40
1
 40
1
 10
59.875208
 20
192.947758
 30
0.0
 10
59.723014
 20
192.947758
 30
0.0
 10
59.315296
 20
193.422253
 30
0.0
 10
58.975625
 20
193.997272
 30
0.0
  0
SPLINE
  5
125
100
AcDbEntity
  8
0
 62
7
100
AcDbSpline
 70
8
 71
3
 72
8
 73
4
 74
0
 40
0
 40
0
 40
0
 40
0
 40
1
 40
1
 40
1
 40
1
 10
58.975625
 20
193.997272
 30
0.0
 10
58.635951
 20
194.572297
 30
0.0
 10
58.170662
 20
195.256429
 30
0.0
 10
57.934931
 20
195.514217
 30
0.0
  0
SPLINE
  5
126
100
AcDbEntity
  8
0
 62
7
100
AcDbSpline
 70
8
 71
3
 72
8
 73
4
 74
0
 40
0
 40
0
 40
0
 40
0
 40
1
 40
1
 40
1
 40
1
 10
57.934931
 20
195.514217
 30
0.0
 10
57.699193
 20
195.772007
 30
0.0
 10
57.344028
 20
196.226122
 30
0.0
 10
57.150000
 20
196.528453
 30
0.0
  0
SPLINE
  5
127
100
AcDbEntity
  8
0
 62
7
100
AcDbSpline
 70
8
 71
3
 72
8
 73
4
 74
0
 40
0
 40
0
 40
0
 40
0
 40
1
 40
1
 40
1
 40
1
 10
57.150000
 20
196.528453
 30
0.0
 10
56.955972
 20
196.830783
 30
0.0
 10
56.325826
 20
197.773838
 30
0.0
 10
55.747708
 20
198.627481
 30
0.0
  0
SPLINE
  5
128
100
AcDbEntity
  8
0
 62
7
100
AcDbSpline
 70
8
 71
3
 72
8
 73
4
 74
0
 40
0
 40
0
 40
0
 40
0
 40
1
 40
1
 40
1
 40
1
 10
55.747708
 20
198.627481
 30
0.0
 10
54.030479
 20
201.163118
 30
0.0
 10
50.832865
 20
207.338244
 30
0.0
 10
50.015069
 20
209.704703
 30
0.0
  0
SPLINE
  5
129
100
AcDbEntity
  8
0
 62
7
100
AcDbSpline
 70
8
 71
3
 72
8
 73
4
 74
0
 40
0
 40
0
 40
0
 40
0
 40
1
 40
1
 40
1
 40
1
 10
50.015069
 20
209.704703
 30
0.0
 10
49.813916
 20
210.286786
 30
0.0
 10
49.552369
 20
211.001161
 30
0.0
 10
49.432986
 20
211.292203
 30
0.0
  0
SPLINE
  5
12a
100
AcDbEntity
  8
0
 62
7
100
AcDbSpline
 70
8
 71
3
 72
8
 73
4
 74
0
 40
0
 40
0
 40
0
 40
0
 40
1
 40
1
 40
1
 40
1
 10
49.432986
 20
211.292203
 30
0.0
 10
49.295270
 20
211.627934
 30
0.0
 10
49.858388
 20
212.530636
 30
0.0
 10
50.967569
 20
213.761647
 30
0.0
  0
SPLINE
  5
12b
100
AcDbEntity
  8
0
 62
7
100
AcDbSpline
 70
8
 71
3
 72
8
 73
4
 74
0
 40
0
 40
0
 40
0
 40
0
 40
1
 40
1
 40
1
 40
1
 10
50.967569
 20
213.761647
 30
0.0
 10
51.929109
 20
214.828800
 30
0.0
 10
52.975535
 20
216.416300
 30
0.0
 10
53.295903
 20
217.289425
 30
0.0
  0
SPLINE
  5
12c
100
AcDbEntity
  8
0
 62
7
100
AcDbSpline
 70
8
 71
3
 72
8
 73
4
 74
0
 40
0
 40
0
 40
0
 40
0
 40
1
 40
1
 40
1
 40
1
 10
53.295903
 20
217.289425
 30
0.0
 10
53.965097
 20
219.113247
 30
0.0
 10
54.749023
 20
227.780461
 30
0.0
 10
54.283681
 20
228.216717
 30
0.0
  0
SPLINE
  5
12d
100
AcDbEntity
  8
0
 62
7
100
AcDbSpline
 70
8
 71
3
 72
8
 73
4
 74
0
 40
0
 40
0
 40
0
 40
0
 40
1
 40
1
 40
1
 40
1
 10
54.283681
 20
228.216717
 30
0.0
 10
54.114550
 20
228.375286
 30
0.0
 10
53.646191
 20
228.380699
 30
0.0
 10
53.242986
 20
228.225536
 30
0.0
  0
SPLINE
  5
12e
100
AcDbEntity
  8
0
 62
7
100
AcDbSpline
 70
8
 71
3
 72
8
 73
4
 74
0
 40
0
 40
0
 40
0
 40
0
 40
1
 40
1
 40
1
 40
1
 10
53.242986
 20
228.225536
 30
0.0
 10
52.681615
 20
228.009506
 30
0.0
 10
52.357508
 20
227.309138
 30
0.0
 10
51.867153
 20
225.226925
 30
0.0
  0
LWPOLYLINE
  5
12f
100
AcDbEntity
  8
0
 62
7
100
AcDbPolyline
 90
3
 70
0
 10
86.262986
 20
234.222758
 30
0.0
 10
86.333542
 20
232.635258
 30
0.0
 10
86.624583
 20
234.346231
 30
0.0
  0
SPLINE
  5
130
100
AcDbEntity
  8
0
 62
7
100
AcDbSpline
 70
8
 71
3
 72
8
 73
4
 74
0
 40
0
 40
0
 40
0
 40
0
 40
1
 40
1
 40
1
 40
1
 10
50.747083
 20
223.639425
 30
0.0
 10
50.442422
 20
224.364002
 30
0.0
 10
50.270833
 20
226.187336
 30
0.0
 10
50.270833
 20
228.648870
 30
0.0
  0
SPLINE
  5
131
100
AcDbEntity
  8
0
 62
7
100
AcDbSpline
 70
8
 71
3
 72
8
 73
4
 74
0
 40
0
 40
0
 40
0
 40
0
 40
1
 40
1
 40
1
 40
1
 10
50.270833
 20
228.648870
 30
0.0
 10
50.270833
 20
232.490518
 30
0.0
 10
50.276605
 20
232.526377
 30
0.0
 10
51.346806
 20
233.596578
 30
0.0
  0
SPLINE
  5
132
100
AcDbEntity
  8
0
 62
7
100
AcDbSpline
 70
8
 71
3
 72
8
 73
4
 74
0
 40
0
 40
0
 40
0
 40
0
 40
1
 40
1
 40
1
 40
1
 10
51.346806
 20
233.596578
 30
0.0
 10
52.673685
 20
234.923457
 30
0.0
 10
52.715264
 20
236.573850
 30
0.0
 10
51.417361
 20
236.436439
 30
0.0
  0
SPLINE
  5
133
100
AcDbEntity
  8
0
 62
7
100
AcDbSpline
 70
8
 71
3
 72
8
 73
4
 74
0
 40
0
 40
0
 40
0
 40
0
 40
1
 40
1
 40
1
 40
1
 10
51.417361
 20
236.436439
 30
0.0
 10
50.729873
 20
236.363654
 30
0.0
 10
50.623611
 20
236.517304
 30
0.0
 10
50.623611
 20
237.582967
 30
0.0
  0
SPLINE
  5
134
100
AcDbEntity
  8
0
 62
7
100
AcDbSpline
 70
8
 71
3
 72
8
 73
4
 74
0
 40
0
 40
0
 40
0
 40
0
 40
1
 40
1
 40
1
 40
1
 10
50.623611
 20
237.582967
 30
0.0
 10
50.623611
 20
239.138686
 30
0.0
 10
48.906769
 20
242.329733
 30
0.0
 10
48.065972
 20
242.336647
 30
0.0
  0
SPLINE
  5
135
100
AcDbEntity
  8
0
 62
7
100
AcDbSpline
 70
8
 71
3
 72
8
 73
4
 74
0
 40
0
 40
0
 40
0
 40
0
 40
1
 40
1
 40
1
 40
1
 10
48.065972
 20
242.336647
 30
0.0
 10
47.603131
 20
242.340457
 30
0.0
 10
47.446918
 20
242.049678
 30
0.0
 10
47.448611
 20
241.190120
 30
0.0
  0
SPLINE
  5
136
100
AcDbEntity
  8
0
 62
7
100
AcDbSpline
 70
8
 71
3
 72
8
 73
4
 74
0
 40
0
 40
0
 40
0
 40
0
 40
1
 40
1
 40
1
 40
1
 10
47.448611
 20
241.190120
 30
0.0
 10
47.449892
 20
240.559531
 30
0.0
 10
47.264836
 20
238.807775
 30
0.0
 10
47.034097
 20
237.291925
 30
0.0
  0
SPLINE
  5
137
100
AcDbEntity
  8
0
 62
7
100
AcDbSpline
 70
8
 71
3
 72
8
 73
4
 74
0
 40
0
 40
0
 40
0
 40
0
 40
1
 40
1
 40
1
 40
1
 10
47.034097
 20
237.291925
 30
0.0
 10
46.727604
 20
235.278414
 30
0.0
 10
46.444162
 20
234.438159
 30
0.0
 10
45.975764
 20
234.187481
 30
0.0
  0
SPLINE
  5
138
100
AcDbEntity
  8
0
 62
7
100
AcDbSpline
 70
8
 71
3
 72
8
 73
4
 74
0
 40
0
 40
0
 40
0
 40
0
 40
1
 40
1
 40
1
 40
1
 10
45.975764
 20
234.187481
 30
0.0
 10
45.623136
 20
233.998762
 30
0.0
 10
45.331944
 20
233.599403
 30
0.0
 10
45.331944
 20
233.296717
 30
0.0
  0
SPLINE
  5
139
100
AcDbEntity
  8
0
 62
7
100
AcDbSpline
 70
8
 71
3
 72
8
 73
4
 74
0
 40
0
 40
0
 40
0
 40
0
 40
1
 40
1
 40
1
 40
1
 10
45.331944
 20
233.296717
 30
0.0
 10
45.331944
 20
232.743361
 30
0.0
 10
43.440127
 20
229.044946
 30
0.0
 10
42.836042
 20
228.419564
 30
0.0
  0
SPLINE
  5
13a
100
AcDbEntity
  8
0
 62
7
100
AcDbSpline
 70
8
 71
3
 72
8
 73
4
 74
0
 40
0
 40
0
 40
0
 40
0
 40
1
 40
1
 40
1
 40
1
 10
42.836042
 20
228.419564
 30
0.0
 10
42.657990
 20
228.235239
 30
0.0
 10
42.509722
 20
227.861328
 30
0.0
 10
42.509722
 20
227.590536
 30
0.0
  0
SPLINE
  5
13b
100
AcDbEntity
  8
0
 62
7
100
AcDbSpline
 70
8
 71
3
 72
8
 73
4
 74
0
 40
0
 40
0
 40
0
 40
0
 40
1
 40
1
 40
1
 40
1
 10
42.509722
 20
227.590536
 30
0.0
 10
42.509722
 20
227.319744
 30
0.0
 10
42.174406
 20
226.634266
 30
0.0
 10
41.768889
 20
226.064772
 30
0.0
  0
SPLINE
  5
13c
100
AcDbEntity
  8
0
 62
7
100
AcDbSpline
 70
8
 71
3
 72
8
 73
4
 74
0
 40
0
 40
0
 40
0
 40
0
 40
1
 40
1
 40
1
 40
1
 10
41.768889
 20
226.064772
 30
0.0
 10
41.067403
 20
225.079622
 30
0.0
 10
41.044656
 20
224.693020
 30
0.0
 10
41.186806
 20
218.074356
 30
0.0
  0
SPLINE
  5
13d
100
AcDbEntity
  8
0
 62
7
100
AcDbSpline
 70
8
 71
3
 72
8
 73
4
 74
0
 40
0
 40
0
 40
0
 40
0
 40
1
 40
1
 40
1
 40
1
 10
41.186806
 20
218.074356
 30
0.0
 10
41.332841
 20
211.274736
 30
0.0
 10
41.359348
 20
211.048182
 30
0.0
 10
42.465625
 20
208.117203
 30
0.0
  0
SPLINE
  5
13e
100
AcDbEntity
  8
0
 62
7
100
AcDbSpline
 70
8
 71
3
 72
8
 73
4
 74
0
 40
0
 40
0
 40
0
 40
0
 40
1
 40
1
 40
1
 40
1
 10
42.465625
 20
208.117203
 30
0.0
 10
43.569622
 20
205.192277
 30
0.0
 10
43.954954
 20
203.985958
 30
0.0
 10
45.076181
 20
200.003314
 30
0.0
  0
SPLINE
  5
13f
100
AcDbEntity
  8
0
 62
7
100
AcDbSpline
 70
8
 71
3
 72
8
 73
4
 74
0
 40
0
 40
0
 40
0
 40
0
 40
1
 40
1
 40
1
 40
1
 10
45.076181
 20
200.003314
 30
0.0
 10
45.569909
 20
198.249571
 30
0.0
 10
46.125596
 20
196.539646
 30
0.0
 10
47.175208
 20
193.476925
 30
0.0
  0
SPLINE
  5
140
100
AcDbEntity
  8
0
 62
7
100
AcDbSpline
 70
8
 71
3
 72
8
 73
4
 74
0
 40
0
 40
0
 40
0
 40
0
 40
1
 40
1
 40
1
 40
1
 10
47.175208
 20
193.476925
 30
0.0
 10
47.374694
 20
192.894842
 30
0.0
 10
47.815026
 20
191.386717
 30
0.0
 10
48.162986
 20
190.125536
 30
0.0
  0
SPLINE
  5
141
100
AcDbEntity
  8
0
 62
7
100
AcDbSpline
 70
8
 71
3
 72
8
 73
4
 74
0
 40
0
 40
0
 40
0
 40
0
 40
1
 40
1
 40
1
 40
1
 10
48.162986
 20
190.125536
 30
0.0
 10
48.510949
 20
188.864356
 30
0.0
 10
48.987442
 20
187.276856
 30
0.0
 10
49.221319
 20
186.597758
 30
0.0
  0
SPLINE
  5
142
100
AcDbEntity
  8
0
 62
7
100
AcDbSpline
 70
8
 71
3
 72
8
 73
4
 74
0
 40
0
 40
0
 40
0
 40
0
 40
1
 40
1
 40
1
 40
1
 10
49.221319
 20
186.597758
 30
0.0
 10
51.204597
 20
180.839051
 30
0.0
 10
52.365636
 20
177.713284
 30
0.0
 10
52.757917
 20
177.072758
 30
0.0
  0
SPLINE
  5
143
100
AcDbEntity
  8
0
 62
7
100
AcDbSpline
 70
8
 71
3
 72
8
 73
4
 74
0
 40
0
 40
0
 40
0
 40
0
 40
1
 40
1
 40
1
 40
1
 10
52.757917
 20
177.072758
 30
0.0
 10
52.936163
 20
176.781717
 30
0.0
 10
53.344970
 20
176.067342
 30
0.0
 10
53.666319
 20
175.485258
 30
0.0
  0
SPLINE
  5
144
100
AcDbEntity
  8
0
 62
7
100
AcDbSpline
 70
8
 71
3
 72
8
 73
4
 74
0
 40
0
 40
0
 40
0
 40
0
 40
1
 40
1
 40
1
 40
1
 10
53.666319
 20
175.485258
 30
0.0
 10
54.827283
 20
173.382319
 30
0.0
 10
59.285285
 20
169.664425
 30
0.0
 10
60.642500
 20
169.664425
 30
0.0
  0
SPLINE
  5
145
100
AcDbEntity
  8
0
 62
7
100
AcDbSpline
 70
8
 71
3
 72
8
 73
4
 74
0
 40
0
 40
0
 40
0
 40
0
 40
1
 40
1
 40
1
 40
1
 10
60.642500
 20
169.664425
 30
0.0
 10
61.149151
 20
169.664425
 30
0.0
 10
61.559722
 20
169.797168
 30
0.0
 10
61.559722
 20
169.955467
 30
0.0
  0
SPLINE
  5
146
100
AcDbEntity
  8
0
 62
7
100
AcDbSpline
 70
8
 71
3
 72
8
 73
4
 74
0
 40
0
 40
0
 40
0
 40
0
 40
1
 40
1
 40
1
 40
1
 10
61.559722
 20
169.955467
 30
0.0
 10
61.559722
 20
170.113765
 30
0.0
 10
62.194722
 20
170.595239
 30
0.0
 10
62.970833
 20
171.031439
 30
0.0
  0
SPLINE
  5
147
100
AcDbEntity
  8
0
 62
7
100
AcDbSpline
 70
8
 71
3
 72
8
 73
4
 74
0
 40
0
 40
0
 40
0
 40
0
 40
1
 40
1
 40
1
 40
1
 10
62.970833
 20
171.031439
 30
0.0
 10
63.746944
 20
171.467639
 30
0.0
 10
64.381944
 20
171.978718
 30
0.0
 10
64.381944
 20
172.160328
 30
0.0
  0
SPLINE
  5
148
100
AcDbEntity
  8
0
 62
7
100
AcDbSpline
 70
8
 71
3
 72
8
 73
4
 74
0
 40
0
 40
0
 40
0
 40
0
 40
1
 40
1
 40
1
 40
1
 10
64.381944
 20
172.160328
 30
0.0
 10
64.381944
 20
172.341941
 30
0.0
 10
64.612071
 20
172.486647
 30
0.0
 10
64.893472
 20
172.486647
 30
0.0
  0
SPLINE
  5
149
100
AcDbEntity
  8
0
 62
7
100
AcDbSpline
 70
8
 71
3
 72
8
 73
4
 74
0
 40
0
 40
0
 40
0
 40
0
 40
1
 40
1
 40
1
 40
1
 10
64.893472
 20
172.486647
 30
0.0
 10
65.174870
 20
172.486647
 30
0.0
 10
65.532059
 20
172.691185
 30
0.0
 10
65.687222
 20
172.936439
 30
0.0
  0
SPLINE
  5
14a
100
AcDbEntity
  8
0
 62
7
100
AcDbSpline
 70
8
 71
3
 72
8
 73
4
 74
0
 40
0
 40
0
 40
0
 40
0
 40
1
 40
1
 40
1
 40
1
 10
65.687222
 20
172.936439
 30
0.0
 10
65.842382
 20
173.181696
 30
0.0
 10
66.882256
 20
173.996113
 30
0.0
 10
67.997917
 20
174.753245
 30
0.0
  0
SPLINE
  5
14b
100
AcDbEntity
  8
0
 62
7
100
AcDbSpline
 70
8
 71
3
 72
8
 73
4
 74
0
 40
0
 40
0
 40
0
 40
0
 40
1
 40
1
 40
1
 40
1
 10
67.997917
 20
174.753245
 30
0.0
 10
69.113575
 20
175.510376
 30
0.0
 10
70.026389
 20
176.267161
 30
0.0
 10
70.026389
 20
176.428939
 30
0.0
  0
SPLINE
  5
14c
100
AcDbEntity
  8
0
 62
7
100
AcDbSpline
 70
8
 71
3
 72
8
 73
4
 74
0
 40
0
 40
0
 40
0
 40
0
 40
1
 40
1
 40
1
 40
1
 10
70.026389
 20
176.428939
 30
0.0
 10
70.026389
 20
176.590714
 30
0.0
 10
70.177776
 20
176.719981
 30
0.0
 10
70.361528
 20
176.719981
 30
0.0
  0
SPLINE
  5
14d
100
AcDbEntity
  8
0
 62
7
100
AcDbSpline
 70
8
 71
3
 72
8
 73
4
 74
0
 40
0
 40
0
 40
0
 40
0
 40
1
 40
1
 40
1
 40
1
 10
70.361528
 20
176.719981
 30
0.0
 10
70.770626
 20
176.719981
 30
0.0
 10
75.445168
 20
180.216251
 30
0.0
 10
75.609097
 20
180.644633
 30
0.0
  0
SPLINE
  5
14e
100
AcDbEntity
  8
0
 62
7
100
AcDbSpline
 70
8
 71
3
 72
8
 73
4
 74
0
 40
0
 40
0
 40
0
 40
0
 40
1
 40
1
 40
1
 40
1
 10
75.609097
 20
180.644633
 30
0.0
 10
75.673777
 20
180.813656
 30
0.0
 10
75.888952
 20
180.953314
 30
0.0
 10
76.085347
 20
180.953314
 30
0.0
  0
SPLINE
  5
14f
100
AcDbEntity
  8
0
 62
7
100
AcDbSpline
 70
8
 71
3
 72
8
 73
4
 74
0
 40
0
 40
0
 40
0
 40
0
 40
1
 40
1
 40
1
 40
1
 10
76.085347
 20
180.953314
 30
0.0
 10
76.281746
 20
180.953314
 30
0.0
 10
78.006891
 20
182.223314
 30
0.0
 10
79.921806
 20
183.775536
 30
0.0
  0
SPLINE
  5
150
100
AcDbEntity
  8
0
 62
7
100
AcDbSpline
 70
8
 71
3
 72
8
 73
4
 74
0
 40
0
 40
0
 40
0
 40
0
 40
1
 40
1
 40
1
 40
1
 10
79.921806
 20
183.775536
 30
0.0
 10
81.836723
 20
185.327758
 30
0.0
 10
83.575051
 20
186.597758
 30
0.0
 10
83.775903
 20
186.597758
 30
0.0
  0
SPLINE
  5
151
100
AcDbEntity
  8
0
 62
7
100
AcDbSpline
 70
8
 71
3
 72
8
 73
4
 74
0
 40
0
 40
0
 40
0
 40
0
 40
1
 40
1
 40
1
 40
1
 10
83.775903
 20
186.597758
 30
0.0
 10
83.976752
 20
186.597758
 30
0.0
 10
84.137500
 20
186.756508
 30
0.0
 10
84.137500
 20
186.950536
 30
0.0
  0
SPLINE
  5
152
100
AcDbEntity
  8
0
 62
7
100
AcDbSpline
 70
8
 71
3
 72
8
 73
4
 74
0
 40
0
 40
0
 40
0
 40
0
 40
1
 40
1
 40
1
 40
1
 10
84.137500
 20
186.950536
 30
0.0
 10
84.137500
 20
187.409864
 30
0.0
 10
85.793899
 20
187.409864
 30
0.0
 10
86.077778
 20
186.950536
 30
0.0
  0
SPLINE
  5
153
100
AcDbEntity
  8
0
 62
7
100
AcDbSpline
 70
8
 71
3
 72
8
 73
4
 74
0
 40
0
 40
0
 40
0
 40
0
 40
1
 40
1
 40
1
 40
1
 10
86.077778
 20
186.950536
 30
0.0
 10
86.197694
 20
186.756508
 30
0.0
 10
86.745262
 20
186.597758
 30
0.0
 10
87.294861
 20
186.597758
 30
0.0
  0
SPLINE
  5
154
100
AcDbEntity
  8
0
 62
7
100
AcDbSpline
 70
8
 71
3
 72
8
 73
4
 74
0
 40
0
 40
0
 40
0
 40
0
 40
1
 40
1
 40
1
 40
1
 10
87.294861
 20
186.597758
 30
0.0
 10
88.066536
 20
186.597758
 30
0.0
 10
88.341011
 20
186.798630
 30
0.0
 10
88.511944
 20
187.479703
 30
0.0
  0
SPLINE
  5
155
100
AcDbEntity
  8
0
 62
7
100
AcDbSpline
 70
8
 71
3
 72
8
 73
4
 74
0
 40
0
 40
0
 40
0
 40
0
 40
1
 40
1
 40
1
 40
1
 10
88.511944
 20
187.479703
 30
0.0
 10
88.685923
 20
188.172894
 30
0.0
 10
88.958090
 20
188.361647
 30
0.0
 10
89.781944
 20
188.361647
 30
0.0
  0
SPLINE
  5
156
100
AcDbEntity
  8
0
 62
7
100
AcDbSpline
 70
8
 71
3
 72
8
 73
4
 74
0
 40
0
 40
0
 40
0
 40
0
 40
1
 40
1
 40
1
 40
1
 10
89.781944
 20
188.361647
 30
0.0
 10
90.624674
 20
188.361647
 30
0.0
 10
91.077751
 20
188.033200
 30
0.0
 10
92.066181
 20
186.685953
 30
0.0
  0
SPLINE
  5
157
100
AcDbEntity
  8
0
 62
7
100
AcDbSpline
 70
8
 71
3
 72
8
 73
4
 74
0
 40
0
 40
0
 40
0
 40
0
 40
1
 40
1
 40
1
 40
1
 10
92.066181
 20
186.685953
 30
0.0
 10
92.742354
 20
185.764322
 30
0.0
 10
93.296105
 20
184.832162
 30
0.0
 10
93.300903
 20
184.613383
 30
0.0
  0
SPLINE
  5
158
100
AcDbEntity
  8
0
 62
7
100
AcDbSpline
 70
8
 71
3
 72
8
 73
4
 74
0
 40
0
 40
0
 40
0
 40
0
 40
1
 40
1
 40
1
 40
1
 10
93.300903
 20
184.613383
 30
0.0
 10
93.305712
 20
184.394608
 30
0.0
 10
93.543055
 20
184.022557
 30
0.0
 10
93.830069
 20
183.784356
 30
0.0
  0
SPLINE
  5
159
100
AcDbEntity
  8
0
 62
7
100
AcDbSpline
 70
8
 71
3
 72
8
 73
4
 74
0
 40
0
 40
0
 40
0
 40
0
 40
1
 40
1
 40
1
 40
1
 10
93.830069
 20
183.784356
 30
0.0
 10
94.117087
 20
183.546152
 30
0.0
 10
94.567296
 20
182.930498
 30
0.0
 10
94.826667
 20
182.417342
 30
0.0
  0
SPLINE
  5
15a
100
AcDbEntity
  8
0
 62
7
100
AcDbSpline
 70
8
 71
3
 72
8
 73
4
 74
0
 40
0
 40
0
 40
0
 40
0
 40
1
 40
1
 40
1
 40
1
 10
94.826667
 20
182.417342
 30
0.0
 10
95.086040
 20
181.904180
 30
0.0
 10
95.464500
 20
181.164981
 30
0.0
 10
95.673333
 20
180.776925
 30
0.0
  0
SPLINE
  5
15b
100
AcDbEntity
  8
0
 62
7
100
AcDbSpline
 70
8
 71
3
 72
8
 73
4
 74
0
 40
0
 40
0
 40
0
 40
0
 40
1
 40
1
 40
1
 40
1
 10
95.673333
 20
180.776925
 30
0.0
 10
96.101772
 20
179.980807
 30
0.0
 10
96.837500
 20
176.270330
 30
0.0
 10
96.837500
 20
174.894356
 30
0.0
  0
SPLINE
  5
15c
100
AcDbEntity
  8
0
 62
7
100
AcDbSpline
 70
8
 71
3
 72
8
 73
4
 74
0
 40
0
 40
0
 40
0
 40
0
 40
1
 40
1
 40
1
 40
1
 10
96.837500
 20
174.894356
 30
0.0
 10
96.837500
 20
174.396217
 30
0.0
 10
96.589935
 20
173.784506
 30
0.0
 10
96.290694
 20
173.536161
 30
0.0
  0
SPLINE
  5
15d
100
AcDbEntity
  8
0
 62
7
100
AcDbSpline
 70
8
 71
3
 72
8
 73
4
 74
0
 40
0
 40
0
 40
0
 40
0
 40
1
 40
1
 40
1
 40
1
 10
96.290694
 20
173.536161
 30
0.0
 10
95.918370
 20
173.227159
 30
0.0
 10
95.771784
 20
172.565401
 30
0.0
 10
95.823264
 20
171.437133
 30
0.0
  0
SPLINE
  5
15e
100
AcDbEntity
  8
0
 62
7
100
AcDbSpline
 70
8
 71
3
 72
8
 73
4
 74
0
 40
0
 40
0
 40
0
 40
0
 40
1
 40
1
 40
1
 40
1
 10
95.823264
 20
171.437133
 30
0.0
 10
95.938329
 20
168.915438
 30
0.0
 10
94.771876
 20
166.826921
 30
0.0
 10
92.321944
 20
165.192967
 30
0.0
  0
SPLINE
  5
15f
100
AcDbEntity
  8
0
 62
7
100
AcDbSpline
 70
8
 71
3
 72
8
 73
4
 74
0
 40
0
 40
0
 40
0
 40
0
 40
1
 40
1
 40
1
 40
1
 10
92.321944
 20
165.192967
 30
0.0
 10
91.218329
 20
164.456926
 30
0.0
 10
90.152361
 20
163.854951
 30
0.0
 10
89.958333
 20
163.852411
 30
0.0
  0
SPLINE
  5
160
100
AcDbEntity
  8
0
 62
7
100
AcDbSpline
 70
8
 71
3
 72
8
 73
4
 74
0
 40
0
 40
0
 40
0
 40
0
 40
1
 40
1
 40
1
 40
1
 10
89.958333
 20
163.852411
 30
0.0
 10
89.429663
 20
163.845782
 30
0.0
 10
89.315121
 20
162.293029
 30
0.0
 10
89.799583
 20
161.709286
 30
0.0
  0
SPLINE
  5
161
100
AcDbEntity
  8
0
 62
7
100
AcDbSpline
 70
8
 71
3
 72
8
 73
4
 74
0
 40
0
 40
0
 40
0
 40
0
 40
1
 40
1
 40
1
 40
1
 10
89.799583
 20
161.709286
 30
0.0
 10
90.129431
 20
161.311830
 30
0.0
 10
90.119829
 20
161.086348
 30
0.0
 10
89.773125
 20
160.668592
 30
0.0
  0
SPLINE
  5
162
100
AcDbEntity
  8
0
 62
7
100
AcDbSpline
 70
8
 71
3
 72
8
 73
4
 74
0
 40
0
 40
0
 40
0
 40
0
 40
1
 40
1
 40
1
 40
1
 10
89.773125
 20
160.668592
 30
0.0
 10
89.409513
 20
160.230467
 30
0.0
 10
89.441996
 20
160.003487
 30
0.0
 10
89.949514
 20
159.442689
 30
0.0
  0
SPLINE
  5
163
100
AcDbEntity
  8
0
 62
7
100
AcDbSpline
 70
8
 71
3
 72
8
 73
4
 74
0
 40
0
 40
0
 40
0
 40
0
 40
1
 40
1
 40
1
 40
1
 10
89.949514
 20
159.442689
 30
0.0
 10
90.619566
 20
158.702290
 30
0.0
 10
90.454915
 20
157.669981
 30
0.0
 10
89.667292
 20
157.669981
 30
0.0
  0
SPLINE
  5
164
100
AcDbEntity
  8
0
 62
7
100
AcDbSpline
 70
8
 71
3
 72
8
 73
4
 74
0
 40
0
 40
0
 40
0
 40
0
 40
1
 40
1
 40
1
 40
1
 10
89.667292
 20
157.669981
 30
0.0
 10
88.887187
 20
157.669981
 30
0.0
 10
88.004467
 20
156.451890
 30
0.0
 10
87.779931
 20
155.068245
 30
0.0
  0
SPLINE
  5
165
100
AcDbEntity
  8
0
 62
7
100
AcDbSpline
 70
8
 71
3
 72
8
 73
4
 74
0
 40
0
 40
0
 40
0
 40
0
 40
1
 40
1
 40
1
 40
1
 10
87.779931
 20
155.068245
 30
0.0
 10
87.635932
 20
154.180898
 30
0.0
 10
87.046173
 20
153.243441
 30
0.0
 10
85.866111
 20
152.025536
 30
0.0
  0
SPLINE
  5
166
100
AcDbEntity
  8
0
 62
7
100
AcDbSpline
 70
8
 71
3
 72
8
 73
4
 74
0
 40
0
 40
0
 40
0
 40
0
 40
1
 40
1
 40
1
 40
1
 10
85.866111
 20
152.025536
 30
0.0
 10
84.928978
 20
151.058349
 30
0.0
 10
83.506728
 20
149.398790
 30
0.0
 10
82.699931
 20
148.330189
 30
0.0
  0
SPLINE
  5
167
100
AcDbEntity
  8
0
 62
7
100
AcDbSpline
 70
8
 71
3
 72
8
 73
4
 74
0
 40
0
 40
0
 40
0
 40
0
 40
1
 40
1
 40
1
 40
1
 10
82.699931
 20
148.330189
 30
0.0
 10
81.893131
 20
147.261594
 30
0.0
 10
81.089119
 20
146.381092
 30
0.0
 10
80.918403
 20
146.381092
 30
0.0
  0
SPLINE
  5
168
100
AcDbEntity
  8
0
 62
7
100
AcDbSpline
 70
8
 71
3
 72
8
 73
4
 74
0
 40
0
 40
0
 40
0
 40
0
 40
1
 40
1
 40
1
 40
1
 10
80.918403
 20
146.381092
 30
0.0
 10
80.747687
 20
146.381092
 30
0.0
 10
80.609722
 20
146.201655
 30
0.0
 10
80.609722
 20
145.975397
 30
0.0
  0
SPLINE
  5
169
100
AcDbEntity
  8
0
 62
7
100
AcDbSpline
 70
8
 71
3
 72
8
 73
4
 74
0
 40
0
 40
0
 40
0
 40
0
 40
1
 40
1
 40
1
 40
1
 10
80.609722
 20
145.975397
 30
0.0
 10
80.609722
 20
145.749140
 30
0.0
 10
80.372204
 20
145.312579
 30
0.0
 10
80.080556
 20
145.005258
 30
0.0
  0
SPLINE
  5
16a
100
AcDbEntity
  8
0
 62
7
100
AcDbSpline
 70
8
 71
3
 72
8
 73
4
 74
0
 40
0
 40
0
 40
0
 40
0
 40
1
 40
1
 40
1
 40
1
 10
80.080556
 20
145.005258
 30
0.0
 10
79.788901
 20
144.697941
 30
0.0
 10
78.999749
 20
143.761787
 30
0.0
 10
78.325486
 20
142.923870
 30
0.0
  0
SPLINE
  5
16b
100
AcDbEntity
  8
0
 62
7
100
AcDbSpline
 70
8
 71
3
 72
8
 73
4
 74
0
 40
0
 40
0
 40
0
 40
0
 40
1
 40
1
 40
1
 40
1
 10
78.325486
 20
142.923870
 30
0.0
 10
75.986581
 20
140.017271
 30
0.0
 10
66.061985
 20
129.447758
 30
0.0
 10
65.669583
 20
129.447758
 30
0.0
  0
SPLINE
  5
16c
100
AcDbEntity
  8
0
 62
7
100
AcDbSpline
 70
8
 71
3
 72
8
 73
4
 74
0
 40
0
 40
0
 40
0
 40
0
 40
1
 40
1
 40
1
 40
1
 10
65.669583
 20
129.447758
 30
0.0
 10
65.574706
 20
129.447758
 30
0.0
 10
64.409800
 20
128.365067
 30
0.0
 10
63.085486
 20
127.040050
 30
0.0
  0
SPLINE
  5
16d
100
AcDbEntity
  8
0
 62
7
100
AcDbSpline
 70
8
 71
3
 72
8
 73
4
 74
0
 40
0
 40
0
 40
0
 40
0
 40
1
 40
1
 40
1
 40
1
 10
63.085486
 20
127.040050
 30
0.0
 10
60.751277
 20
124.704608
 30
0.0
 10
59.431075
 20
123.495960
 30
0.0
 10
54.318958
 20
119.040814
 30
0.0
  0
SPLINE
  5
16e
100
AcDbEntity
  8
0
 62
7
100
AcDbSpline
 70
8
 71
3
 72
8
 73
4
 74
0
 40
0
 40
0
 40
0
 40
0
 40
1
 40
1
 40
1
 40
1
 10
54.318958
 20
119.040814
 30
0.0
 10
52.983116
 20
117.876647
 30
0.0
 10
51.544423
 20
116.566961
 30
0.0
 10
51.126319
 20
116.130397
 30
0.0
  0
SPLINE
  5
16f
100
AcDbEntity
  8
0
 62
7
100
AcDbSpline
 70
8
 71
3
 72
8
 73
4
 74
0
 40
0
 40
0
 40
0
 40
0
 40
1
 40
1
 40
1
 40
1
 10
51.126319
 20
116.130397
 30
0.0
 10
50.708221
 20
115.693836
 30
0.0
 10
50.182439
 20
115.336647
 30
0.0
 10
49.962153
 20
115.336647
 30
0.0
  0
SPLINE
  5
170
100
AcDbEntity
  8
0
 62
7
100
AcDbSpline
 70
8
 71
3
 72
8
 73
4
 74
0
 40
0
 40
0
 40
0
 40
0
 40
1
 40
1
 40
1
 40
1
 10
49.962153
 20
115.336647
 30
0.0
 10
49.741867
 20
115.336647
 30
0.0
 10
49.565278
 20
115.205030
 30
0.0
 10
49.565278
 20
115.036786
 30
0.0
  0
SPLINE
  5
171
100
AcDbEntity
  8
0
 62
7
100
AcDbSpline
 70
8
 71
3
 72
8
 73
4
 74
0
 40
0
 40
0
 40
0
 40
0
 40
1
 40
1
 40
1
 40
1
 10
49.565278
 20
115.036786
 30
0.0
 10
49.565278
 20
114.674946
 30
0.0
 10
47.270405
 20
113.069031
 30
0.0
 10
44.053125
 20
111.182689
 30
0.0
  0
SPLINE
  5
172
100
AcDbEntity
  8
0
 62
7
100
AcDbSpline
 70
8
 71
3
 72
8
 73
4
 74
0
 40
0
 40
0
 40
0
 40
0
 40
1
 40
1
 40
1
 40
1
 10
44.053125
 20
111.182689
 30
0.0
 10
43.299211
 20
110.740658
 30
0.0
 10
42.209861
 20
110.069322
 30
0.0
 10
41.627778
 20
109.692203
 30
0.0
  0
SPLINE
  5
173
100
AcDbEntity
  8
0
 62
7
100
AcDbSpline
 70
8
 71
3
 72
8
 73
4
 74
0
 40
0
 40
0
 40
0
 40
0
 40
1
 40
1
 40
1
 40
1
 10
41.627778
 20
109.692203
 30
0.0
 10
41.045694
 20
109.315083
 30
0.0
 10
40.013819
 20
108.679601
 30
0.0
 10
39.334722
 20
108.281092
 30
0.0
  0
SPLINE
  5
174
100
AcDbEntity
  8
0
 62
7
100
AcDbSpline
 70
8
 71
3
 72
8
 73
4
 74
0
 40
0
 40
0
 40
0
 40
0
 40
1
 40
1
 40
1
 40
1
 10
39.334722
 20
108.281092
 30
0.0
 10
38.655625
 20
107.882588
 30
0.0
 10
37.623750
 20
107.269661
 30
0.0
 10
37.041667
 20
106.914078
 30
0.0
  0
SPLINE
  5
175
100
AcDbEntity
  8
0
 62
7
100
AcDbSpline
 70
8
 71
3
 72
8
 73
4
 74
0
 40
0
 40
0
 40
0
 40
0
 40
1
 40
1
 40
1
 40
1
 10
37.041667
 20
106.914078
 30
0.0
 10
35.002783
 20
105.668564
 30
0.0
 10
33.140814
 20
104.617156
 30
0.0
 10
30.876875
 20
103.439217
 30
0.0
  0
SPLINE
  5
176
100
AcDbEntity
  8
0
 62
7
100
AcDbSpline
 70
8
 71
3
 72
8
 73
4
 74
0
 40
0
 40
0
 40
0
 40
0
 40
1
 40
1
 40
1
 40
1
 10
30.876875
 20
103.439217
 30
0.0
 10
29.621065
 20
102.785810
 30
0.0
 10
28.351065
 20
102.058828
 30
0.0
 10
28.054653
 20
101.825258
 30
0.0
  0
SPLINE
  5
177
100
AcDbEntity
  8
0
 62
7
100
AcDbSpline
 70
8
 71
3
 72
8
 73
4
 74
0
 40
0
 40
0
 40
0
 40
0
 40
1
 40
1
 40
1
 40
1
 10
28.054653
 20
101.825258
 30
0.0
 10
27.758238
 20
101.591689
 30
0.0
 10
27.159478
 20
101.203489
 30
0.0
 10
26.722917
 20
100.960953
 30
0.0
  0
LWPOLYLINE
  5
178
100
AcDbEntity
  8
0
 62
7
100
AcDbPolyline
 90
3
 70
0
 10
51.867153
 20
225.226925
 30
0.0
 10
51.232153
 20
222.501717
 30
0.0
 10
50.747083
 20
223.639425
 30
0.0
  0
SPLINE
  5
179
100
AcDbEntity
  8
0
 62
7
100
AcDbSpline
 70
8
 71
3
 72
8
 73
4
 74
0
 40
0
 40
0
 40
0
 40
0
 40
1
 40
1
 40
1
 40
1
 10
25.135417
 20
100.079008
 30
0.0
 10
24.698853
 20
99.836475
 30
0.0
 10
24.262292
 20
99.551067
 30
0.0
 10
24.165278
 20
99.444008
 30
0.0
  0
SPLINE
  5
17a
100
AcDbEntity
  8
0
 62
7
100
AcDbSpline
 70
8
 71
3
 72
8
 73
4
 74
0
 40
0
 40
0
 40
0
 40
0
 40
1
 40
1
 40
1
 40
1
 10
24.165278
 20
99.444008
 30
0.0
 10
23.757771
 20
98.994313
 30
0.0
 10
20.574751
 20
96.992203
 30
0.0
 10
20.267083
 20
96.992203
 30
0.0
  0
SPLINE
  5
17b
100
AcDbEntity
  8
0
 62
7
100
AcDbSpline
 70
8
 71
3
 72
8
 73
4
 74
0
 40
0
 40
0
 40
0
 40
0
 40
1
 40
1
 40
1
 40
1
 10
20.267083
 20
96.992203
 30
0.0
 10
20.082784
 20
96.992203
 30
0.0
 10
19.931944
 20
96.875211
 30
0.0
 10
19.931944
 20
96.727620
 30
0.0
  0
SPLINE
  5
17c
100
AcDbEntity
  8
0
 62
7
100
AcDbSpline
 70
8
 71
3
 72
8
 73
4
 74
0
 40
0
 40
0
 40
0
 40
0
 40
1
 40
1
 40
1
 40
1
 10
19.931944
 20
96.727620
 30
0.0
 10
19.931944
 20
96.580029
 30
0.0
 10
19.036970
 20
95.744832
 30
0.0
 10
17.947569
 20
94.875536
 30
0.0
  0
SPLINE
  5
17d
100
AcDbEntity
  8
0
 62
7
100
AcDbSpline
 70
8
 71
3
 72
8
 73
4
 74
0
 40
0
 40
0
 40
0
 40
0
 40
1
 40
1
 40
1
 40
1
 10
17.947569
 20
94.875536
 30
0.0
 10
15.906654
 20
93.246976
 30
0.0
 10
11.465278
 20
88.193423
 30
0.0
 10
11.465278
 20
87.502481
 30
0.0
  0
SPLINE
  5
17e
100
AcDbEntity
  8
0
 62
7
100
AcDbSpline
 70
8
 71
3
 72
8
 73
4
 74
0
 40
0
 40
0
 40
0
 40
0
 40
1
 40
1
 40
1
 40
1
 10
11.465278
 20
87.502481
 30
0.0
 10
11.465278
 20
87.288381
 30
0.0
 10
11.316936
 20
87.114425
 30
0.0
 10
11.130139
 20
87.114425
 30
0.0
  0
SPLINE
  5
17f
100
AcDbEntity
  8
0
 62
7
100
AcDbSpline
 70
8
 71
3
 72
8
 73
4
 74
0
 40
0
 40
0
 40
0
 40
0
 40
1
 40
1
 40
1
 40
1
 10
11.130139
 20
87.114425
 30
0.0
 10
10.502779
 20
87.114425
 30
0.0
 10
6.931172
 20
81.572281
 30
0.0
 10
5.617986
 20
78.559564
 30
0.0
  0
SPLINE
  5
180
100
AcDbEntity
  8
0
 62
7
100
AcDbSpline
 70
8
 71
3
 72
8
 73
4
 74
0
 40
0
 40
0
 40
0
 40
0
 40
1
 40
1
 40
1
 40
1
 10
5.617986
 20
78.559564
 30
0.0
 10
5.300839
 20
77.831961
 30
0.0
 10
4.900185
 20
77.236647
 30
0.0
 10
4.727222
 20
77.236647
 30
0.0
  0
SPLINE
  5
181
100
AcDbEntity
  8
0
 62
7
100
AcDbSpline
 70
8
 71
3
 72
8
 73
4
 74
0
 40
0
 40
0
 40
0
 40
0
 40
1
 40
1
 40
1
 40
1
 10
4.727222
 20
77.236647
 30
0.0
 10
4.554262
 20
77.236647
 30
0.0
 10
4.409722
 20
76.934153
 30
0.0
 10
4.409722
 20
76.557550
 30
0.0
  0
SPLINE
  5
182
100
AcDbEntity
  8
0
 62
7
100
AcDbSpline
 70
8
 71
3
 72
8
 73
4
 74
0
 40
0
 40
0
 40
0
 40
0
 40
1
 40
1
 40
1
 40
1
 10
4.409722
 20
76.557550
 30
0.0
 10
4.409722
 20
76.180944
 30
0.0
 10
4.277273
 20
75.787891
 30
0.0
 10
4.109861
 20
75.684425
 30
0.0
  0
SPLINE
  5
183
100
AcDbEntity
  8
0
 62
7
100
AcDbSpline
 70
8
 71
3
 72
8
 73
4
 74
0
 40
0
 40
0
 40
0
 40
0
 40
1
 40
1
 40
1
 40
1
 10
4.109861
 20
75.684425
 30
0.0
 10
3.942447
 20
75.580957
 30
0.0
 10
3.600650
 20
74.732515
 30
0.0
 10
3.360208
 20
73.805883
 30
0.0
  0
SPLINE
  5
184
100
AcDbEntity
  8
0
 62
7
100
AcDbSpline
 70
8
 71
3
 72
8
 73
4
 74
0
 40
0
 40
0
 40
0
 40
0
 40
1
 40
1
 40
1
 40
1
 10
3.360208
 20
73.805883
 30
0.0
 10
3.119766
 20
72.879252
 30
0.0
 10
2.627912
 20
71.168870
 30
0.0
 10
2.266597
 20
70.004703
 30
0.0
  0
SPLINE
  5
185
100
AcDbEntity
  8
0
 62
7
100
AcDbSpline
 70
8
 71
3
 72
8
 73
4
 74
0
 40
0
 40
0
 40
0
 40
0
 40
1
 40
1
 40
1
 40
1
 10
2.266597
 20
70.004703
 30
0.0
 10
-0.080840
 20
62.441198
 30
0.0
 10
0.000000
 20
62.882204
 30
0.0
 10
0.000000
 20
57.093036
 30
0.0
  0
SPLINE
  5
186
100
AcDbEntity
  8
0
 62
7
100
AcDbSpline
 70
8
 71
3
 72
8
 73
4
 74
0
 40
0
 40
0
 40
0
 40
0
 40
1
 40
1
 40
1
 40
1
 10
0.000000
 20
57.093036
 30
0.0
 10
-0.000000
 20
53.488804
 30
0.0
 10
0.141453
 20
51.420200
 30
0.0
 10
0.405694
 20
51.095814
 30
0.0
  0
SPLINE
  5
187
100
AcDbEntity
  8
0
 62
7
100
AcDbSpline
 70
8
 71
3
 72
8
 73
4
 74
0
 40
0
 40
0
 40
0
 40
0
 40
1
 40
1
 40
1
 40
1
 10
0.405694
 20
51.095814
 30
0.0
 10
0.627555
 20
50.823470
 30
0.0
 10
1.165993
 20
49.966925
 30
0.0
 10
1.605139
 20
49.190814
 30
0.0
  0
SPLINE
  5
188
100
AcDbEntity
  8
0
 62
7
100
AcDbSpline
 70
8
 71
3
 72
8
 73
4
 74
0
 40
0
 40
0
 40
0
 40
0
 40
1
 40
1
 40
1
 40
1
 10
1.605139
 20
49.190814
 30
0.0
 10
2.044285
 20
48.414703
 30
0.0
 10
2.585023
 20
47.462203
 30
0.0
 10
2.804583
 20
47.074147
 30
0.0
  0
SPLINE
  5
189
100
AcDbEntity
  8
0
 62
7
100
AcDbSpline
 70
8
 71
3
 72
8
 73
4
 74
0
 40
0
 40
0
 40
0
 40
0
 40
1
 40
1
 40
1
 40
1
 10
2.804583
 20
47.074147
 30
0.0
 10
3.954599
 20
45.041583
 30
0.0
 10
5.564793
 20
42.646490
 30
0.0
 10
5.697361
 20
42.779078
 30
0.0
  0
SPLINE
  5
18a
100
AcDbEntity
  8
0
 62
7
100
AcDbSpline
 70
8
 71
3
 72
8
 73
4
 74
0
 40
0
 40
0
 40
0
 40
0
 40
1
 40
1
 40
1
 40
1
 10
5.697361
 20
42.779078
 30
0.0
 10
5.780490
 20
42.862192
 30
0.0
 10
5.673293
 20
43.657833
 30
0.0
 10
5.450417
 20
44.542967
 30
0.0
  0
SPLINE
  5
18b
100
AcDbEntity
  8
0
 62
7
100
AcDbSpline
 70
8
 71
3
 72
8
 73
4
 74
0
 40
0
 40
0
 40
0
 40
0
 40
1
 40
1
 40
1
 40
1
 10
5.450417
 20
44.542967
 30
0.0
 10
5.180655
 20
45.614282
 30
0.0
 10
5.100247
 20
48.548702
 30
0.0
 10
5.212292
 20
53.318314
 30
0.0
  0
SPLINE
  5
18c
100
AcDbEntity
  8
0
 62
7
100
AcDbSpline
 70
8
 71
3
 72
8
 73
4
 74
0
 40
0
 40
0
 40
0
 40
0
 40
1
 40
1
 40
1
 40
1
 10
5.212292
 20
53.318314
 30
0.0
 10
5.395349
 20
61.110949
 30
0.0
 10
5.860731
 20
63.741715
 30
0.0
 10
7.302500
 20
65.048175
 30
0.0
  0
SPLINE
  5
18d
100
AcDbEntity
  8
0
 62
7
100
AcDbSpline
 70
8
 71
3
 72
8
 73
4
 74
0
 40
0
 40
0
 40
0
 40
0
 40
1
 40
1
 40
1
 40
1
 10
7.302500
 20
65.048175
 30
0.0
 10
8.534296
 20
66.164367
 30
0.0
 10
11.015085
 20
68.064425
 30
0.0
 10
11.235972
 20
68.064425
 30
0.0
  0
SPLINE
  5
18e
100
AcDbEntity
  8
0
 62
7
100
AcDbSpline
 70
8
 71
3
 72
8
 73
4
 74
0
 40
0
 40
0
 40
0
 40
0
 40
1
 40
1
 40
1
 40
1
 10
11.235972
 20
68.064425
 30
0.0
 10
11.552058
 20
68.064425
 30
0.0
 10
14.802420
 20
70.307426
 30
0.0
 10
14.931319
 20
70.613245
 30
0.0
  0
SPLINE
  5
18f
100
AcDbEntity
  8
0
 62
7
100
AcDbSpline
 70
8
 71
3
 72
8
 73
4
 74
0
 40
0
 40
0
 40
0
 40
0
 40
1
 40
1
 40
1
 40
1
 10
14.931319
 20
70.613245
 30
0.0
 10
14.995993
 20
70.766697
 30
0.0
 10
15.313493
 20
70.891177
 30
0.0
 10
15.636875
 20
70.895467
 30
0.0
  0
SPLINE
  5
190
100
AcDbEntity
  8
0
 62
7
100
AcDbSpline
 70
8
 71
3
 72
8
 73
4
 74
0
 40
0
 40
0
 40
0
 40
0
 40
1
 40
1
 40
1
 40
1
 10
15.636875
 20
70.895467
 30
0.0
 10
15.960254
 20
70.899782
 30
0.0
 10
16.624653
 20
71.212778
 30
0.0
 10
17.109722
 20
71.592203
 30
0.0
  0
SPLINE
  5
191
100
AcDbEntity
  8
0
 62
7
100
AcDbSpline
 70
8
 71
3
 72
8
 73
4
 74
0
 40
0
 40
0
 40
0
 40
0
 40
1
 40
1
 40
1
 40
1
 10
17.109722
 20
71.592203
 30
0.0
 10
17.594792
 20
71.971631
 30
0.0
 10
18.229792
 20
72.289122
 30
0.0
 10
18.520833
 20
72.297758
 30
0.0
  0
SPLINE
  5
192
100
AcDbEntity
  8
0
 62
7
100
AcDbSpline
 70
8
 71
3
 72
8
 73
4
 74
0
 40
0
 40
0
 40
0
 40
0
 40
1
 40
1
 40
1
 40
1
 10
18.520833
 20
72.297758
 30
0.0
 10
18.811875
 20
72.306389
 30
0.0
 10
19.446875
 20
72.623889
 30
0.0
 10
19.931944
 20
73.003314
 30
0.0
  0
SPLINE
  5
193
100
AcDbEntity
  8
0
 62
7
100
AcDbSpline
 70
8
 71
3
 72
8
 73
4
 74
0
 40
0
 40
0
 40
0
 40
0
 40
1
 40
1
 40
1
 40
1
 10
19.931944
 20
73.003314
 30
0.0
 10
20.417014
 20
73.382742
 30
0.0
 10
21.034333
 20
73.695732
 30
0.0
 10
21.298958
 20
73.700050
 30
0.0
  0
SPLINE
  5
194
100
AcDbEntity
  8
0
 62
7
100
AcDbSpline
 70
8
 71
3
 72
8
 73
4
 74
0
 40
0
 40
0
 40
0
 40
0
 40
1
 40
1
 40
1
 40
1
 10
21.298958
 20
73.700050
 30
0.0
 10
21.563581
 20
73.704365
 30
0.0
 10
22.357331
 20
74.006950
 30
0.0
 10
23.062847
 20
74.370328
 30
0.0
  0
SPLINE
  5
195
100
AcDbEntity
  8
0
 62
7
100
AcDbSpline
 70
8
 71
3
 72
8
 73
4
 74
0
 40
0
 40
0
 40
0
 40
0
 40
1
 40
1
 40
1
 40
1
 10
23.062847
 20
74.370328
 30
0.0
 10
25.278269
 20
75.511386
 30
0.0
 10
28.858924
 20
76.543608
 30
0.0
 10
30.612292
 20
76.539911
 30
0.0
  0
SPLINE
  5
196
100
AcDbEntity
  8
0
 62
7
100
AcDbSpline
 70
8
 71
3
 72
8
 73
4
 74
0
 40
0
 40
0
 40
0
 40
0
 40
1
 40
1
 40
1
 40
1
 10
30.612292
 20
76.539911
 30
0.0
 10
32.236771
 20
76.536471
 30
0.0
 10
35.986796
 20
75.241003
 30
0.0
 10
37.076944
 20
74.308592
 30
0.0
  0
SPLINE
  5
197
100
AcDbEntity
  8
0
 62
7
100
AcDbSpline
 70
8
 71
3
 72
8
 73
4
 74
0
 40
0
 40
0
 40
0
 40
0
 40
1
 40
1
 40
1
 40
1
 10
37.076944
 20
74.308592
 30
0.0
 10
38.232554
 20
73.320202
 30
0.0
 10
39.536274
 20
72.016885
 30
0.0
 10
39.863889
 20
71.521647
 30
0.0
  0
SPLINE
  5
198
100
AcDbEntity
  8
0
 62
7
100
AcDbSpline
 70
8
 71
3
 72
8
 73
4
 74
0
 40
0
 40
0
 40
0
 40
0
 40
1
 40
1
 40
1
 40
1
 10
39.863889
 20
71.521647
 30
0.0
 10
40.057917
 20
71.228348
 30
0.0
 10
40.511713
 20
70.572209
 30
0.0
 10
40.869306
 20
70.066439
 30
0.0
  0
SPLINE
  5
199
100
AcDbEntity
  8
0
 62
7
100
AcDbSpline
 70
8
 71
3
 72
8
 73
4
 74
0
 40
0
 40
0
 40
0
 40
0
 40
1
 40
1
 40
1
 40
1
 10
40.869306
 20
70.066439
 30
0.0
 10
41.509758
 20
69.160610
 30
0.0
 10
41.500676
 20
69.121745
 30
0.0
 10
40.560625
 20
67.111925
 30
0.0
  0
SPLINE
  5
19a
100
AcDbEntity
  8
0
 62
7
100
AcDbSpline
 70
8
 71
3
 72
8
 73
4
 74
0
 40
0
 40
0
 40
0
 40
0
 40
1
 40
1
 40
1
 40
1
 10
40.560625
 20
67.111925
 30
0.0
 10
39.620636
 20
65.102232
 30
0.0
 10
39.031328
 20
63.786484
 30
0.0
 10
37.641389
 20
60.656092
 30
0.0
  0
SPLINE
  5
19b
100
AcDbEntity
  8
0
 62
7
100
AcDbSpline
 70
8
 71
3
 72
8
 73
4
 74
0
 40
0
 40
0
 40
0
 40
0
 40
1
 40
1
 40
1
 40
1
 10
37.641389
 20
60.656092
 30
0.0
 10
37.253706
 20
59.782967
 30
0.0
 10
36.284484
 20
57.684362
 30
0.0
 10
35.489444
 20
55.990606
 30
0.0
  0
SPLINE
  5
19c
100
AcDbEntity
  8
0
 62
7
100
AcDbSpline
 70
8
 71
3
 72
8
 73
4
 74
0
 40
0
 40
0
 40
0
 40
0
 40
1
 40
1
 40
1
 40
1
 10
35.489444
 20
55.990606
 30
0.0
 10
34.694408
 20
54.296849
 30
0.0
 10
34.043056
 20
52.802765
 30
0.0
 10
34.043056
 20
52.674495
 30
0.0
  0
SPLINE
  5
19d
100
AcDbEntity
  8
0
 62
7
100
AcDbSpline
 70
8
 71
3
 72
8
 73
4
 74
0
 40
0
 40
0
 40
0
 40
0
 40
1
 40
1
 40
1
 40
1
 10
34.043056
 20
52.674495
 30
0.0
 10
34.043056
 20
52.462800
 30
0.0
 10
30.923682
 20
46.044714
 30
0.0
 10
30.206597
 20
44.781092
 30
0.0
  0
SPLINE
  5
19e
100
AcDbEntity
  8
0
 62
7
100
AcDbSpline
 70
8
 71
3
 72
8
 73
4
 74
0
 40
0
 40
0
 40
0
 40
0
 40
1
 40
1
 40
1
 40
1
 10
30.206597
 20
44.781092
 30
0.0
 10
30.041435
 20
44.490036
 30
0.0
 10
29.483956
 20
43.378786
 30
0.0
 10
28.971875
 20
42.311647
 30
0.0
  0
SPLINE
  5
19f
100
AcDbEntity
  8
0
 62
7
100
AcDbSpline
 70
8
 71
3
 72
8
 73
4
 74
0
 40
0
 40
0
 40
0
 40
0
 40
1
 40
1
 40
1
 40
1
 10
28.971875
 20
42.311647
 30
0.0
 10
28.459794
 20
41.244480
 30
0.0
 10
27.783412
 20
39.895120
 30
0.0
 10
27.463750
 20
39.313036
 30
0.0
  0
SPLINE
  5
1a0
100
AcDbEntity
  8
0
 62
7
100
AcDbSpline
 70
8
 71
3
 72
8
 73
4
 74
0
 40
0
 40
0
 40
0
 40
0
 40
1
 40
1
 40
1
 40
1
 10
27.463750
 20
39.313036
 30
0.0
 10
27.144088
 20
38.730953
 30
0.0
 10
26.719155
 20
37.937203
 30
0.0
 10
26.520069
 20
37.549147
 30
0.0
  0
SPLINE
  5
1a1
100
AcDbEntity
  8
0
 62
7
100
AcDbSpline
 70
8
 71
3
 72
8
 73
4
 74
0
 40
0
 40
0
 40
0
 40
0
 40
1
 40
1
 40
1
 40
1
 10
26.520069
 20
37.549147
 30
0.0
 10
26.320984
 20
37.161092
 30
0.0
 10
25.952893
 20
36.453829
 30
0.0
 10
25.699861
 20
35.970467
 30
0.0
  0
SPLINE
  5
1a2
100
AcDbEntity
  8
0
 62
7
100
AcDbSpline
 70
8
 71
3
 72
8
 73
4
 74
0
 40
0
 40
0
 40
0
 40
0
 40
1
 40
1
 40
1
 40
1
 10
25.699861
 20
35.970467
 30
0.0
 10
25.446829
 20
35.487105
 30
0.0
 10
24.704740
 20
34.534605
 30
0.0
 10
24.050625
 20
33.853800
 30
0.0
  0
SPLINE
  5
1a3
100
AcDbEntity
  8
0
 62
7
100
AcDbSpline
 70
8
 71
3
 72
8
 73
4
 74
0
 40
0
 40
0
 40
0
 40
0
 40
1
 40
1
 40
1
 40
1
 10
24.050625
 20
33.853800
 30
0.0
 10
23.198159
 20
32.966550
 30
0.0
 10
22.801656
 20
32.177993
 30
0.0
 10
22.657153
 20
31.066856
 30
0.0
  0
SPLINE
  5
1a4
100
AcDbEntity
  8
0
 62
7
100
AcDbSpline
 70
8
 71
3
 72
8
 73
4
 74
0
 40
0
 40
0
 40
0
 40
0
 40
1
 40
1
 40
1
 40
1
 10
22.657153
 20
31.066856
 30
0.0
 10
22.546270
 20
30.214291
 30
0.0
 10
22.275475
 20
29.402450
 30
0.0
 10
22.057431
 20
29.267689
 30
0.0
  0
SPLINE
  5
1a5
100
AcDbEntity
  8
0
 62
7
100
AcDbSpline
 70
8
 71
3
 72
8
 73
4
 74
0
 40
0
 40
0
 40
0
 40
0
 40
1
 40
1
 40
1
 40
1
 10
22.057431
 20
29.267689
 30
0.0
 10
21.508110
 20
28.928204
 30
0.0
 10
20.780468
 20
25.972632
 30
0.0
 10
20.284722
 20
22.106300
 30
0.0
  0
SPLINE
  5
1a6
100
AcDbEntity
  8
0
 62
7
100
AcDbSpline
 70
8
 71
3
 72
8
 73
4
 74
0
 40
0
 40
0
 40
0
 40
0
 40
1
 40
1
 40
1
 40
1
 10
20.284722
 20
22.106300
 30
0.0
 10
20.055109
 20
20.315544
 30
0.0
 10
19.617241
 20
18.302142
 30
0.0
 10
19.314583
 20
17.626022
 30
0.0
  0
SPLINE
  5
1a7
100
AcDbEntity
  8
0
 62
7
100
AcDbSpline
 70
8
 71
3
 72
8
 73
4
 74
0
 40
0
 40
0
 40
0
 40
0
 40
1
 40
1
 40
1
 40
1
 10
19.314583
 20
17.626022
 30
0.0
 10
17.939351
 20
14.553977
 30
0.0
 10
17.448022
 20
9.796218
 30
0.0
 10
18.229792
 20
7.148522
 30
0.0
  0
SPLINE
  5
1a8
100
AcDbEntity
  8
0
 62
7
100
AcDbSpline
 70
8
 71
3
 72
8
 73
4
 74
0
 40
0
 40
0
 40
0
 40
0
 40
1
 40
1
 40
1
 40
1
 10
18.229792
 20
7.148522
 30
0.0
 10
18.685036
 20
5.606714
 30
0.0
 10
20.856146
 20
3.114212
 30
0.0
 10
23.618472
 20
0.974911
 30
0.0
  0
SPLINE
  5
1a9
100
AcDbEntity
  8
0
 62
7
100
AcDbSpline
 70
8
 71
3
 72
8
 73
4
 74
0
 40
0
 40
0
 40
0
 40
0
 40
1
 40
1
 40
1
 40
1
 10
23.618472
 20
0.974911
 30
0.0
 10
25.018258
 20
-0.109161
 30
0.0
 10
28.196442
 20
-0.166508
 30
0.0
 10
29.404028
 20
0.869078
 30
0.0
  0
SPLINE
  5
1aa
100
AcDbEntity
  8
0
 62
7
100
AcDbSpline
 70
8
 71
3
 72
8
 73
4
 74
0
 40
0
 40
0
 40
0
 40
0
 40
1
 40
1
 40
1
 40
1
 10
29.404028
 20
0.869078
 30
0.0
 10
34.373464
 20
5.130803
 30
0.0
 10
35.200082
 20
7.442175
 30
0.0
 10
33.910764
 20
13.498522
 30
0.0
  0
SPLINE
  5
1ab
100
AcDbEntity
  8
0
 62
7
100
AcDbSpline
 70
8
 71
3
 72
8
 73
4
 74
0
 40
0
 40
0
 40
0
 40
0
 40
1
 40
1
 40
1
 40
1
 10
33.910764
 20
13.498522
 30
0.0
 10
32.951581
 20
18.004087
 30
0.0
 10
32.541362
 20
21.961478
 30
0.0
 10
32.746597
 20
24.849147
 30
0.0
  0
SPLINE
  5
1ac
100
AcDbEntity
  8
0
 62
7
100
AcDbSpline
 70
8
 71
3
 72
8
 73
4
 74
0
 40
0
 40
0
 40
0
 40
0
 40
1
 40
1
 40
1
 40
1
 10
32.746597
 20
24.849147
 30
0.0
 10
33.039408
 20
28.969027
 30
0.0
 10
33.550883
 20
32.013993
 30
0.0
 10
34.157708
 20
33.271717
 30
0.0
  0
SPLINE
  5
1ad
100
AcDbEntity
  8
0
 62
7
100
AcDbSpline
 70
8
 71
3
 72
8
 73
4
 74
0
 40
0
 40
0
 40
0
 40
0
 40
1
 40
1
 40
1
 40
1
 10
34.157708
 20
33.271717
 30
0.0
 10
34.451169
 20
33.879962
 30
0.0
 10
35.341055
 20
35.685747
 30
0.0
 10
36.133264
 20
37.284564
 30
0.0
  0
SPLINE
  5
1ae
100
AcDbEntity
  8
0
 62
7
100
AcDbSpline
 70
8
 71
3
 72
8
 73
4
 74
0
 40
0
 40
0
 40
0
 40
0
 40
1
 40
1
 40
1
 40
1
 10
36.133264
 20
37.284564
 30
0.0
 10
36.925473
 20
38.883381
 30
0.0
 10
37.570833
 20
40.431172
 30
0.0
 10
37.570833
 20
40.724147
 30
0.0
  0
SPLINE
  5
1af
100
AcDbEntity
  8
0
 62
7
100
AcDbSpline
 70
8
 71
3
 72
8
 73
4
 74
0
 40
0
 40
0
 40
0
 40
0
 40
1
 40
1
 40
1
 40
1
 10
37.570833
 20
40.724147
 30
0.0
 10
37.570833
 20
41.017094
 30
0.0
 10
37.715373
 20
41.253314
 30
0.0
 10
37.888333
 20
41.253314
 30
0.0
  0
SPLINE
  5
1b0
100
AcDbEntity
  8
0
 62
7
100
AcDbSpline
 70
8
 71
3
 72
8
 73
4
 74
0
 40
0
 40
0
 40
0
 40
0
 40
1
 40
1
 40
1
 40
1
 10
37.888333
 20
41.253314
 30
0.0
 10
38.061293
 20
41.253314
 30
0.0
 10
38.455843
 20
41.848634
 30
0.0
 10
38.770278
 20
42.576231
 30
0.0
  0
SPLINE
  5
1b1
100
AcDbEntity
  8
0
 62
7
100
AcDbSpline
 70
8
 71
3
 72
8
 73
4
 74
0
 40
0
 40
0
 40
0
 40
0
 40
1
 40
1
 40
1
 40
1
 10
38.770278
 20
42.576231
 30
0.0
 10
39.084716
 20
43.303828
 30
0.0
 10
39.861806
 20
44.621664
 30
0.0
 10
40.490069
 20
45.504286
 30
0.0
  0
SPLINE
  5
1b2
100
AcDbEntity
  8
0
 62
7
100
AcDbSpline
 70
8
 71
3
 72
8
 73
4
 74
0
 40
0
 40
0
 40
0
 40
0
 40
1
 40
1
 40
1
 40
1
 10
40.490069
 20
45.504286
 30
0.0
 10
41.118333
 20
46.386936
 30
0.0
 10
41.786528
 20
47.355212
 30
0.0
 10
41.980556
 20
47.656231
 30
0.0
  0
SPLINE
  5
1b3
100
AcDbEntity
  8
0
 62
7
100
AcDbSpline
 70
8
 71
3
 72
8
 73
4
 74
0
 40
0
 40
0
 40
0
 40
0
 40
1
 40
1
 40
1
 40
1
 10
41.980556
 20
47.656231
 30
0.0
 10
42.174583
 20
47.957249
 30
0.0
 10
42.804729
 20
48.901621
 30
0.0
 10
43.382847
 20
49.755258
 30
0.0
  0
SPLINE
  5
1b4
100
AcDbEntity
  8
0
 62
7
100
AcDbSpline
 70
8
 71
3
 72
8
 73
4
 74
0
 40
0
 40
0
 40
0
 40
0
 40
1
 40
1
 40
1
 40
1
 10
43.382847
 20
49.755258
 30
0.0
 10
44.688994
 20
51.683909
 30
0.0
 10
44.953970
 20
52.110107
 30
0.0
 10
45.949306
 20
53.821022
 30
0.0
  0
SPLINE
  5
1b5
100
AcDbEntity
  8
0
 62
7
100
AcDbSpline
 70
8
 71
3
 72
8
 73
4
 74
0
 40
0
 40
0
 40
0
 40
0
 40
1
 40
1
 40
1
 40
1
 10
45.949306
 20
53.821022
 30
0.0
 10
47.125698
 20
55.843173
 30
0.0
 10
47.557080
 20
56.488911
 30
0.0
 10
48.242361
 20
57.269425
 30
0.0
  0
SPLINE
  5
1b6
100
AcDbEntity
  8
0
 62
7
100
AcDbSpline
 70
8
 71
3
 72
8
 73
4
 74
0
 40
0
 40
0
 40
0
 40
0
 40
1
 40
1
 40
1
 40
1
 10
48.242361
 20
57.269425
 30
0.0
 10
48.581908
 20
57.656154
 30
0.0
 10
48.859722
 20
58.156294
 30
0.0
 10
48.859722
 20
58.380675
 30
0.0
  0
SPLINE
  5
1b7
100
AcDbEntity
  8
0
 62
7
100
AcDbSpline
 70
8
 71
3
 72
8
 73
4
 74
0
 40
0
 40
0
 40
0
 40
0
 40
1
 40
1
 40
1
 40
1
 10
48.859722
 20
58.380675
 30
0.0
 10
48.859722
 20
58.605062
 30
0.0
 10
49.177222
 20
59.070184
 30
0.0
 10
49.565278
 20
59.421370
 30
0.0
  0
SPLINE
  5
1b8
100
AcDbEntity
  8
0
 62
7
100
AcDbSpline
 70
8
 71
3
 72
8
 73
4
 74
0
 40
0
 40
0
 40
0
 40
0
 40
1
 40
1
 40
1
 40
1
 10
49.565278
 20
59.421370
 30
0.0
 10
49.953333
 20
59.772556
 30
0.0
 10
50.270833
 20
60.226826
 30
0.0
 10
50.270833
 20
60.426786
 30
0.0
  0
SPLINE
  5
1b9
100
AcDbEntity
  8
0
 62
7
100
AcDbSpline
 70
8
 71
3
 72
8
 73
4
 74
0
 40
0
 40
0
 40
0
 40
0
 40
1
 40
1
 40
1
 40
1
 10
50.270833
 20
60.426786
 30
0.0
 10
50.270833
 20
60.626744
 30
0.0
 10
50.597379
 20
61.133459
 30
0.0
 10
50.994028
 20
61.555675
 30
0.0
  0
LWPOLYLINE
  5
1ba
100
AcDbEntity
  8
0
 62
7
100
AcDbPolyline
 90
2
 70
0
 10
26.722917
 20
100.960953
 30
0.0
 10
25.135417
 20
100.079008
 30
0.0
  0
SPLINE
  5
1bb
100
AcDbEntity
  8
0
 62
7
100
AcDbSpline
 70
8
 71
3
 72
8
 73
4
 74
0
 40
0
 40
0
 40
0
 40
0
 40
1
 40
1
 40
1
 40
1
 10
53.728056
 20
61.264633
 30
0.0
 10
56.988225
 20
59.541802
 30
0.0
 10
59.790042
 20
58.186647
 30
0.0
 10
60.104514
 20
58.186647
 30
0.0
  0
SPLINE
  5
1bc
100
AcDbEntity
  8
0
 62
7
100
AcDbSpline
 70
8
 71
3
 72
8
 73
4
 74
0
 40
0
 40
0
 40
0
 40
0
 40
1
 40
1
 40
1
 40
1
 10
60.104514
 20
58.186647
 30
0.0
 10
60.265643
 20
58.186647
 30
0.0
 10
60.934600
 20
57.920173
 30
0.0
 10
61.595000
 20
57.586925
 30
0.0
  0
SPLINE
  5
1bd
100
AcDbEntity
  8
0
 62
7
100
AcDbSpline
 70
8
 71
3
 72
8
 73
4
 74
0
 40
0
 40
0
 40
0
 40
0
 40
1
 40
1
 40
1
 40
1
 10
61.595000
 20
57.586925
 30
0.0
 10
62.295969
 20
57.233188
 30
0.0
 10
63.602012
 20
56.978383
 30
0.0
 10
64.734722
 20
56.978383
 30
0.0
  0
SPLINE
  5
1be
100
AcDbEntity
  8
0
 62
7
100
AcDbSpline
 70
8
 71
3
 72
8
 73
4
 74
0
 40
0
 40
0
 40
0
 40
0
 40
1
 40
1
 40
1
 40
1
 10
64.734722
 20
56.978383
 30
0.0
 10
65.867432
 20
56.978383
 30
0.0
 10
67.173475
 20
57.233188
 30
0.0
 10
67.874444
 20
57.586925
 30
0.0
  0
SPLINE
  5
1bf
100
AcDbEntity
  8
0
 62
7
100
AcDbSpline
 70
8
 71
3
 72
8
 73
4
 74
0
 40
0
 40
0
 40
0
 40
0
 40
1
 40
1
 40
1
 40
1
 10
67.874444
 20
57.586925
 30
0.0
 10
68.534844
 20
57.920201
 30
0.0
 10
69.288906
 20
58.186647
 30
0.0
 10
69.550139
 20
58.186647
 30
0.0
  0
SPLINE
  5
1c0
100
AcDbEntity
  8
0
 62
7
100
AcDbSpline
 70
8
 71
3
 72
8
 73
4
 74
0
 40
0
 40
0
 40
0
 40
0
 40
1
 40
1
 40
1
 40
1
 10
69.550139
 20
58.186647
 30
0.0
 10
69.811369
 20
58.186647
 30
0.0
 10
70.026389
 20
58.522675
 30
0.0
 10
70.026389
 20
58.927481
 30
0.0
  0
SPLINE
  5
1c1
100
AcDbEntity
  8
0
 62
7
100
AcDbSpline
 70
8
 71
3
 72
8
 73
4
 74
0
 40
0
 40
0
 40
0
 40
0
 40
1
 40
1
 40
1
 40
1
 10
70.026389
 20
58.927481
 30
0.0
 10
70.026389
 20
59.719461
 30
0.0
 10
71.063742
 20
63.733801
 30
0.0
 10
72.169514
 20
67.235397
 30
0.0
  0
SPLINE
  5
1c2
100
AcDbEntity
  8
0
 62
7
100
AcDbSpline
 70
8
 71
3
 72
8
 73
4
 74
0
 40
0
 40
0
 40
0
 40
0
 40
1
 40
1
 40
1
 40
1
 10
72.169514
 20
67.235397
 30
0.0
 10
72.545191
 20
68.425035
 30
0.0
 10
72.848611
 20
69.694007
 30
0.0
 10
72.848611
 20
70.057620
 30
0.0
  0
SPLINE
  5
1c3
100
AcDbEntity
  8
0
 62
7
100
AcDbSpline
 70
8
 71
3
 72
8
 73
4
 74
0
 40
0
 40
0
 40
0
 40
0
 40
1
 40
1
 40
1
 40
1
 10
72.848611
 20
70.057620
 30
0.0
 10
72.848611
 20
70.486651
 30
0.0
 10
73.251102
 20
70.857607
 30
0.0
 10
73.995139
 20
71.115953
 30
0.0
  0
SPLINE
  5
1c4
100
AcDbEntity
  8
0
 62
7
100
AcDbSpline
 70
8
 71
3
 72
8
 73
4
 74
0
 40
0
 40
0
 40
0
 40
0
 40
1
 40
1
 40
1
 40
1
 10
73.995139
 20
71.115953
 30
0.0
 10
74.625728
 20
71.334909
 30
0.0
 10
76.252917
 20
71.937626
 30
0.0
 10
77.611111
 20
72.456508
 30
0.0
  0
SPLINE
  5
1c5
100
AcDbEntity
  8
0
 62
7
100
AcDbSpline
 70
8
 71
3
 72
8
 73
4
 74
0
 40
0
 40
0
 40
0
 40
0
 40
1
 40
1
 40
1
 40
1
 10
77.611111
 20
72.456508
 30
0.0
 10
78.969306
 20
72.975388
 30
0.0
 10
80.715556
 20
73.537346
 30
0.0
 10
81.491667
 20
73.708870
 30
0.0
  0
SPLINE
  5
1c6
100
AcDbEntity
  8
0
 62
7
100
AcDbSpline
 70
8
 71
3
 72
8
 73
4
 74
0
 40
0
 40
0
 40
0
 40
0
 40
1
 40
1
 40
1
 40
1
 10
81.491667
 20
73.708870
 30
0.0
 10
84.806542
 20
74.441476
 30
0.0
 10
88.373656
 20
76.207617
 30
0.0
 10
88.370833
 20
77.113175
 30
0.0
  0
SPLINE
  5
1c7
100
AcDbEntity
  8
0
 62
7
100
AcDbSpline
 70
8
 71
3
 72
8
 73
4
 74
0
 40
0
 40
0
 40
0
 40
0
 40
1
 40
1
 40
1
 40
1
 10
88.370833
 20
77.113175
 30
0.0
 10
88.370294
 20
77.279277
 30
0.0
 10
88.706158
 20
78.127411
 30
0.0
 10
89.120486
 20
79.000536
 30
0.0
  0
SPLINE
  5
1c8
100
AcDbEntity
  8
0
 62
7
100
AcDbSpline
 70
8
 71
3
 72
8
 73
4
 74
0
 40
0
 40
0
 40
0
 40
0
 40
1
 40
1
 40
1
 40
1
 10
89.120486
 20
79.000536
 30
0.0
 10
89.974222
 20
80.799641
 30
0.0
 10
90.764078
 20
82.610757
 30
0.0
 10
91.810417
 20
85.174147
 30
0.0
  0
SPLINE
  5
1c9
100
AcDbEntity
  8
0
 62
7
100
AcDbSpline
 70
8
 71
3
 72
8
 73
4
 74
0
 40
0
 40
0
 40
0
 40
0
 40
1
 40
1
 40
1
 40
1
 10
91.810417
 20
85.174147
 30
0.0
 10
93.673298
 20
89.737974
 30
0.0
 10
96.366217
 20
95.994197
 30
0.0
 10
97.543056
 20
98.491508
 30
0.0
  0
SPLINE
  5
1ca
100
AcDbEntity
  8
0
 62
7
100
AcDbSpline
 70
8
 71
3
 72
8
 73
4
 74
0
 40
0
 40
0
 40
0
 40
0
 40
1
 40
1
 40
1
 40
1
 10
97.543056
 20
98.491508
 30
0.0
 10
97.931653
 20
99.316128
 30
0.0
 10
98.249176
 20
100.189253
 30
0.0
 10
98.248611
 20
100.431786
 30
0.0
  0
SPLINE
  5
1cb
100
AcDbEntity
  8
0
 62
7
100
AcDbSpline
 70
8
 71
3
 72
8
 73
4
 74
0
 40
0
 40
0
 40
0
 40
0
 40
1
 40
1
 40
1
 40
1
 10
98.248611
 20
100.431786
 30
0.0
 10
98.248072
 20
100.674322
 30
0.0
 10
98.432439
 20
100.872758
 30
0.0
 10
98.654306
 20
100.872758
 30
0.0
  0
SPLINE
  5
1cc
100
AcDbEntity
  8
0
 62
7
100
AcDbSpline
 70
8
 71
3
 72
8
 73
4
 74
0
 40
0
 40
0
 40
0
 40
0
 40
1
 40
1
 40
1
 40
1
 10
98.654306
 20
100.872758
 30
0.0
 10
99.510819
 20
100.872758
 30
0.0
 10
98.637067
 20
93.872010
 30
0.0
 10
96.811042
 20
86.056092
 30
0.0
  0
SPLINE
  5
1cd
100
AcDbEntity
  8
0
 62
7
100
AcDbSpline
 70
8
 71
3
 72
8
 73
4
 74
0
 40
0
 40
0
 40
0
 40
0
 40
1
 40
1
 40
1
 40
1
 10
96.811042
 20
86.056092
 30
0.0
 10
96.425729
 20
84.406856
 30
0.0
 10
96.118045
 20
82.774937
 30
0.0
 10
96.123125
 20
82.431300
 30
0.0
  0
SPLINE
  5
1ce
100
AcDbEntity
  8
0
 62
7
100
AcDbSpline
 70
8
 71
3
 72
8
 73
4
 74
0
 40
0
 40
0
 40
0
 40
0
 40
1
 40
1
 40
1
 40
1
 10
96.123125
 20
82.431300
 30
0.0
 10
96.133790
 20
81.707976
 30
0.0
 10
94.982211
 20
77.458356
 30
0.0
 10
93.803611
 20
73.885258
 30
0.0
  0
SPLINE
  5
1cf
100
AcDbEntity
  8
0
 62
7
100
AcDbSpline
 70
8
 71
3
 72
8
 73
4
 74
0
 40
0
 40
0
 40
0
 40
0
 40
1
 40
1
 40
1
 40
1
 10
93.803611
 20
73.885258
 30
0.0
 10
92.704110
 20
70.551943
 30
0.0
 10
91.651057
 20
68.099136
 30
0.0
 10
89.887778
 20
64.721856
 30
0.0
  0
SPLINE
  5
1d0
100
AcDbEntity
  8
0
 62
7
100
AcDbSpline
 70
8
 71
3
 72
8
 73
4
 74
0
 40
0
 40
0
 40
0
 40
0
 40
1
 40
1
 40
1
 40
1
 10
89.887778
 20
64.721856
 30
0.0
 10
84.207181
 20
53.841582
 30
0.0
 10
83.433223
 20
52.004400
 30
0.0
 10
81.659236
 20
45.257342
 30
0.0
  0
SPLINE
  5
1d1
100
AcDbEntity
  8
0
 62
7
100
AcDbSpline
 70
8
 71
3
 72
8
 73
4
 74
0
 40
0
 40
0
 40
0
 40
0
 40
1
 40
1
 40
1
 40
1
 10
81.659236
 20
45.257342
 30
0.0
 10
80.751999
 20
41.806808
 30
0.0
 10
80.599068
 20
40.488576
 30
0.0
 10
80.406875
 20
34.497620
 30
0.0
  0
SPLINE
  5
1d2
100
AcDbEntity
  8
0
 62
7
100
AcDbSpline
 70
8
 71
3
 72
8
 73
4
 74
0
 40
0
 40
0
 40
0
 40
0
 40
1
 40
1
 40
1
 40
1
 10
80.406875
 20
34.497620
 30
0.0
 10
80.164192
 20
26.932822
 30
0.0
 10
80.615544
 20
17.639188
 30
0.0
 10
81.500486
 20
11.972758
 30
0.0
  0
SPLINE
  5
1d3
100
AcDbEntity
  8
0
 62
7
100
AcDbSpline
 70
8
 71
3
 72
8
 73
4
 74
0
 40
0
 40
0
 40
0
 40
0
 40
1
 40
1
 40
1
 40
1
 10
81.500486
 20
11.972758
 30
0.0
 10
82.067078
 20
8.344764
 30
0.0
 10
83.237338
 20
2.079741
 30
0.0
 10
83.678889
 20
0.331092
 30
0.0
  0
SPLINE
  5
1d4
100
AcDbEntity
  8
0
 62
7
100
AcDbSpline
 70
8
 71
3
 72
8
 73
4
 74
0
 40
0
 40
0
 40
0
 40
0
 40
1
 40
1
 40
1
 40
1
 10
83.678889
 20
0.331092
 30
0.0
 10
83.847675
 20
-0.337352
 30
0.0
 10
83.964856
 20
-0.038450
 30
0.0
 10
84.163958
 20
1.565814
 30
0.0
  0
SPLINE
  5
1d5
100
AcDbEntity
  8
0
 62
7
100
AcDbSpline
 70
8
 71
3
 72
8
 73
4
 74
0
 40
0
 40
0
 40
0
 40
0
 40
1
 40
1
 40
1
 40
1
 10
84.163958
 20
1.565814
 30
0.0
 10
84.308442
 20
2.729981
 30
0.0
 10
84.679502
 20
4.396842
 30
0.0
 10
84.984167
 20
5.269981
 30
0.0
  0
SPLINE
  5
1d6
100
AcDbEntity
  8
0
 62
7
100
AcDbSpline
 70
8
 71
3
 72
8
 73
4
 74
0
 40
0
 40
0
 40
0
 40
0
 40
1
 40
1
 40
1
 40
1
 10
84.984167
 20
5.269981
 30
0.0
 10
85.288828
 20
6.143092
 30
0.0
 10
85.536969
 20
7.117083
 30
0.0
 10
85.539792
 20
7.430745
 30
0.0
  0
SPLINE
  5
1d7
100
AcDbEntity
  8
0
 62
7
100
AcDbSpline
 70
8
 71
3
 72
8
 73
4
 74
0
 40
0
 40
0
 40
0
 40
0
 40
1
 40
1
 40
1
 40
1
 10
85.539792
 20
7.430745
 30
0.0
 10
85.550386
 20
8.607527
 30
0.0
 10
89.814575
 20
18.082489
 30
0.0
 10
90.531597
 20
18.525606
 30
0.0
  0
SPLINE
  5
1d8
100
AcDbEntity
  8
0
 62
7
100
AcDbSpline
 70
8
 71
3
 72
8
 73
4
 74
0
 40
0
 40
0
 40
0
 40
0
 40
1
 40
1
 40
1
 40
1
 10
90.531597
 20
18.525606
 30
0.0
 10
90.693277
 20
18.625541
 30
0.0
 10
91.085235
 20
19.254628
 30
0.0
 10
91.404722
 20
19.927897
 30
0.0
  0
SPLINE
  5
1d9
100
AcDbEntity
  8
0
 62
7
100
AcDbSpline
 70
8
 71
3
 72
8
 73
4
 74
0
 40
0
 40
0
 40
0
 40
0
 40
1
 40
1
 40
1
 40
1
 10
91.404722
 20
19.927897
 30
0.0
 10
92.087316
 20
21.366356
 30
0.0
 10
94.388184
 20
23.881563
 30
0.0
 10
96.105486
 20
25.051995
 30
0.0
  0
SPLINE
  5
1da
100
AcDbEntity
  8
0
 62
7
100
AcDbSpline
 70
8
 71
3
 72
8
 73
4
 74
0
 40
0
 40
0
 40
0
 40
0
 40
1
 40
1
 40
1
 40
1
 10
96.105486
 20
25.051995
 30
0.0
 10
97.180606
 20
25.784756
 30
0.0
 10
97.867366
 20
25.894442
 30
0.0
 10
102.164444
 20
26.083870
 30
0.0
  0
SPLINE
  5
1db
100
AcDbEntity
  8
0
 62
7
100
AcDbSpline
 70
8
 71
3
 72
8
 73
4
 74
0
 40
0
 40
0
 40
0
 40
0
 40
1
 40
1
 40
1
 40
1
 10
102.164444
 20
26.083870
 30
0.0
 10
107.086981
 20
26.300898
 30
0.0
 10
107.888447
 20
26.533492
 30
0.0
 10
108.302778
 20
27.838939
 30
0.0
  0
SPLINE
  5
1dc
100
AcDbEntity
  8
0
 62
7
100
AcDbSpline
 70
8
 71
3
 72
8
 73
4
 74
0
 40
0
 40
0
 40
0
 40
0
 40
1
 40
1
 40
1
 40
1
 10
108.302778
 20
27.838939
 30
0.0
 10
108.447086
 20
28.293599
 30
0.0
 10
108.970247
 20
28.515482
 30
0.0
 10
110.190139
 20
28.632689
 30
0.0
  0
SPLINE
  5
1dd
100
AcDbEntity
  8
0
 62
7
100
AcDbSpline
 70
8
 71
3
 72
8
 73
4
 74
0
 40
0
 40
0
 40
0
 40
0
 40
1
 40
1
 40
1
 40
1
 10
110.190139
 20
28.632689
 30
0.0
 10
111.119440
 20
28.721984
 30
0.0
 10
112.409131
 20
29.059395
 30
0.0
 10
113.056458
 20
29.382342
 30
0.0
  0
SPLINE
  5
1de
100
AcDbEntity
  8
0
 62
7
100
AcDbSpline
 70
8
 71
3
 72
8
 73
4
 74
0
 40
0
 40
0
 40
0
 40
0
 40
1
 40
1
 40
1
 40
1
 10
113.056458
 20
29.382342
 30
0.0
 10
113.703783
 20
29.705260
 30
0.0
 10
114.356063
 20
29.964425
 30
0.0
 10
114.511667
 20
29.964425
 30
0.0
  0
SPLINE
  5
1df
100
AcDbEntity
  8
0
 62
7
100
AcDbSpline
 70
8
 71
3
 72
8
 73
4
 74
0
 40
0
 40
0
 40
0
 40
0
 40
1
 40
1
 40
1
 40
1
 10
114.511667
 20
29.964425
 30
0.0
 10
115.078597
 20
29.964425
 30
0.0
 10
117.506609
 20
31.806207
 30
0.0
 10
118.815556
 20
33.227620
 30
0.0
  0
SPLINE
  5
1e0
100
AcDbEntity
  8
0
 62
7
100
AcDbSpline
 70
8
 71
3
 72
8
 73
4
 74
0
 40
0
 40
0
 40
0
 40
0
 40
1
 40
1
 40
1
 40
1
 10
118.815556
 20
33.227620
 30
0.0
 10
120.187426
 20
34.717386
 30
0.0
 10
122.232208
 20
37.563541
 30
0.0
 10
122.246319
 20
38.007758
 30
0.0
  0
SPLINE
  5
1e1
100
AcDbEntity
  8
0
 62
7
100
AcDbSpline
 70
8
 71
3
 72
8
 73
4
 74
0
 40
0
 40
0
 40
0
 40
0
 40
1
 40
1
 40
1
 40
1
 10
122.246319
 20
38.007758
 30
0.0
 10
122.250635
 20
38.143536
 30
0.0
 10
122.563628
 20
38.651564
 30
0.0
 10
122.943056
 20
39.136647
 30
0.0
  0
SPLINE
  5
1e2
100
AcDbEntity
  8
0
 62
7
100
AcDbSpline
 70
8
 71
3
 72
8
 73
4
 74
0
 40
0
 40
0
 40
0
 40
0
 40
1
 40
1
 40
1
 40
1
 10
122.943056
 20
39.136647
 30
0.0
 10
123.322481
 20
39.621703
 30
0.0
 10
123.635474
 20
40.233758
 30
0.0
 10
123.639792
 20
40.494842
 30
0.0
  0
SPLINE
  5
1e3
100
AcDbEntity
  8
0
 62
7
100
AcDbSpline
 70
8
 71
3
 72
8
 73
4
 74
0
 40
0
 40
0
 40
0
 40
0
 40
1
 40
1
 40
1
 40
1
 10
123.639792
 20
40.494842
 30
0.0
 10
123.644107
 20
40.755954
 30
0.0
 10
123.935690
 20
41.390954
 30
0.0
 10
124.283611
 20
41.905953
 30
0.0
  0
SPLINE
  5
1e4
100
AcDbEntity
  8
0
 62
7
100
AcDbSpline
 70
8
 71
3
 72
8
 73
4
 74
0
 40
0
 40
0
 40
0
 40
0
 40
1
 40
1
 40
1
 40
1
 10
124.283611
 20
41.905953
 30
0.0
 10
124.631529
 20
42.420980
 30
0.0
 10
125.195688
 20
43.952064
 30
0.0
 10
125.535972
 20
45.310258
 30
0.0
  0
SPLINE
  5
1e5
100
AcDbEntity
  8
0
 62
7
100
AcDbSpline
 70
8
 71
3
 72
8
 73
4
 74
0
 40
0
 40
0
 40
0
 40
0
 40
1
 40
1
 40
1
 40
1
 10
125.535972
 20
45.310258
 30
0.0
 10
126.189551
 20
47.918951
 30
0.0
 10
127.182064
 20
49.173006
 30
0.0
 10
128.940278
 20
49.596508
 30
0.0
  0
SPLINE
  5
1e6
100
AcDbEntity
  8
0
 62
7
100
AcDbSpline
 70
8
 71
3
 72
8
 73
4
 74
0
 40
0
 40
0
 40
0
 40
0
 40
1
 40
1
 40
1
 40
1
 10
128.940278
 20
49.596508
 30
0.0
 10
129.425347
 20
49.713348
 30
0.0
 10
130.770619
 20
50.123996
 30
0.0
 10
131.930069
 20
50.504911
 30
0.0
  0
SPLINE
  5
1e7
100
AcDbEntity
  8
0
 62
7
100
AcDbSpline
 70
8
 71
3
 72
8
 73
4
 74
0
 40
0
 40
0
 40
0
 40
0
 40
1
 40
1
 40
1
 40
1
 10
131.930069
 20
50.504911
 30
0.0
 10
133.589051
 20
51.049911
 30
0.0
 10
134.772042
 20
51.171647
 30
0.0
 10
137.486319
 20
51.078175
 30
0.0
  0
LWPOLYLINE
  5
1e8
100
AcDbEntity
  8
0
 62
7
100
AcDbPolyline
 90
3
 70
0
 10
50.994028
 20
61.555675
 30
0.0
 10
51.717222
 20
62.322967
 30
0.0
 10
53.728056
 20
61.264633
 30
0.0
  0
SPLINE
  5
1e9
100
AcDbEntity
  8
0
 62
7
100
AcDbSpline
 70
8
 71
3
 72
8
 73
4
 74
0
 40
0
 40
0
 40
0
 40
0
 40
1
 40
1
 40
1
 40
1
 10
141.093472
 20
52.013036
 30
0.0
 10
141.182000
 20
52.595120
 30
0.0
 10
141.413286
 20
54.103259
 30
0.0
 10
141.605000
 20
55.364425
 30
0.0
  0
SPLINE
  5
1ea
100
AcDbEntity
  8
0
 62
7
100
AcDbSpline
 70
8
 71
3
 72
8
 73
4
 74
0
 40
0
 40
0
 40
0
 40
0
 40
1
 40
1
 40
1
 40
1
 10
141.605000
 20
55.364425
 30
0.0
 10
141.923217
 20
57.457837
 30
0.0
 10
142.522222
 20
71.724918
 30
0.0
 10
142.522222
 20
77.236647
 30
0.0
  0
SPLINE
  5
1eb
100
AcDbEntity
  8
0
 62
7
100
AcDbSpline
 70
8
 71
3
 72
8
 73
4
 74
0
 40
0
 40
0
 40
0
 40
0
 40
1
 40
1
 40
1
 40
1
 10
142.522222
 20
77.236647
 30
0.0
 10
142.522222
 20
82.697560
 30
0.0
 10
141.906430
 20
94.698628
 30
0.0
 10
141.419792
 20
98.756092
 30
0.0
  0
SPLINE
  5
1ec
100
AcDbEntity
  8
0
 62
7
100
AcDbSpline
 70
8
 71
3
 72
8
 73
4
 74
0
 40
0
 40
0
 40
0
 40
0
 40
1
 40
1
 40
1
 40
1
 10
141.419792
 20
98.756092
 30
0.0
 10
141.128902
 20
101.181439
 30
0.0
 10
140.810999
 20
104.118314
 30
0.0
 10
140.714236
 20
105.282481
 30
0.0
  0
SPLINE
  5
1ed
100
AcDbEntity
  8
0
 62
7
100
AcDbSpline
 70
8
 71
3
 72
8
 73
4
 74
0
 40
0
 40
0
 40
0
 40
0
 40
1
 40
1
 40
1
 40
1
 10
140.714236
 20
105.282481
 30
0.0
 10
140.617476
 20
106.446647
 30
0.0
 10
140.394365
 20
108.161297
 30
0.0
 10
140.211528
 20
109.092481
 30
0.0
  0
SPLINE
  5
1ee
100
AcDbEntity
  8
0
 62
7
100
AcDbSpline
 70
8
 71
3
 72
8
 73
4
 74
0
 40
0
 40
0
 40
0
 40
0
 40
1
 40
1
 40
1
 40
1
 10
140.211528
 20
109.092481
 30
0.0
 10
139.678430
 20
111.807490
 30
0.0
 10
139.773265
 20
112.137362
 30
0.0
 10
140.758333
 20
110.926925
 30
0.0
  0
SPLINE
  5
1ef
100
AcDbEntity
  8
0
 62
7
100
AcDbSpline
 70
8
 71
3
 72
8
 73
4
 74
0
 40
0
 40
0
 40
0
 40
0
 40
1
 40
1
 40
1
 40
1
 10
140.758333
 20
110.926925
 30
0.0
 10
142.320984
 20
109.006770
 30
0.0
 10
142.518937
 20
108.757178
 30
0.0
 10
142.875000
 20
108.201717
 30
0.0
  0
SPLINE
  5
1f0
100
AcDbEntity
  8
0
 62
7
100
AcDbSpline
 70
8
 71
3
 72
8
 73
4
 74
0
 40
0
 40
0
 40
0
 40
0
 40
1
 40
1
 40
1
 40
1
 10
142.875000
 20
108.201717
 30
0.0
 10
143.069028
 20
107.899031
 30
0.0
 10
143.743714
 20
106.908363
 30
0.0
 10
144.374306
 20
106.005675
 30
0.0
  0
SPLINE
  5
1f1
100
AcDbEntity
  8
0
 62
7
100
AcDbSpline
 70
8
 71
3
 72
8
 73
4
 74
0
 40
0
 40
0
 40
0
 40
0
 40
1
 40
1
 40
1
 40
1
 10
144.374306
 20
106.005675
 30
0.0
 10
145.004894
 20
105.102987
 30
0.0
 10
145.520833
 20
104.245653
 30
0.0
 10
145.520833
 20
104.091856
 30
0.0
  0
SPLINE
  5
1f2
100
AcDbEntity
  8
0
 62
7
100
AcDbSpline
 70
8
 71
3
 72
8
 73
4
 74
0
 40
0
 40
0
 40
0
 40
0
 40
1
 40
1
 40
1
 40
1
 10
145.520833
 20
104.091856
 30
0.0
 10
145.520833
 20
103.532934
 30
0.0
 10
149.944686
 20
99.108305
 30
0.0
 10
150.503819
 20
99.108870
 30
0.0
  0
SPLINE
  5
1f3
100
AcDbEntity
  8
0
 62
7
100
AcDbSpline
 70
8
 71
3
 72
8
 73
4
 74
0
 40
0
 40
0
 40
0
 40
0
 40
1
 40
1
 40
1
 40
1
 10
150.503819
 20
99.108870
 30
0.0
 10
151.132294
 20
99.109544
 30
0.0
 10
153.299643
 20
97.121833
 30
0.0
 10
154.693056
 20
95.263592
 30
0.0
  0
SPLINE
  5
1f4
100
AcDbEntity
  8
0
 62
7
100
AcDbSpline
 70
8
 71
3
 72
8
 73
4
 74
0
 40
0
 40
0
 40
0
 40
0
 40
1
 40
1
 40
1
 40
1
 10
154.693056
 20
95.263592
 30
0.0
 10
155.178125
 20
94.616707
 30
0.0
 10
155.852811
 20
93.836888
 30
0.0
 10
156.192361
 20
93.526161
 30
0.0
  0
SPLINE
  5
1f5
100
AcDbEntity
  8
0
 62
7
100
AcDbSpline
 70
8
 71
3
 72
8
 73
4
 74
0
 40
0
 40
0
 40
0
 40
0
 40
1
 40
1
 40
1
 40
1
 10
156.192361
 20
93.526161
 30
0.0
 10
156.531908
 20
93.215437
 30
0.0
 10
156.809722
 20
92.751027
 30
0.0
 10
156.809722
 20
92.503106
 30
0.0
  0
SPLINE
  5
1f6
100
AcDbEntity
  8
0
 62
7
100
AcDbSpline
 70
8
 71
3
 72
8
 73
4
 74
0
 40
0
 40
0
 40
0
 40
0
 40
1
 40
1
 40
1
 40
1
 10
156.809722
 20
92.503106
 30
0.0
 10
156.809722
 20
92.255185
 30
0.0
 10
156.938988
 20
92.053314
 30
0.0
 10
157.100764
 20
92.053314
 30
0.0
  0
SPLINE
  5
1f7
100
AcDbEntity
  8
0
 62
7
100
AcDbSpline
 70
8
 71
3
 72
8
 73
4
 74
0
 40
0
 40
0
 40
0
 40
0
 40
1
 40
1
 40
1
 40
1
 10
157.100764
 20
92.053314
 30
0.0
 10
157.262542
 20
92.053314
 30
0.0
 10
158.019327
 20
91.140503
 30
0.0
 10
158.776458
 20
90.024842
 30
0.0
  0
SPLINE
  5
1f8
100
AcDbEntity
  8
0
 62
7
100
AcDbSpline
 70
8
 71
3
 72
8
 73
4
 74
0
 40
0
 40
0
 40
0
 40
0
 40
1
 40
1
 40
1
 40
1
 10
158.776458
 20
90.024842
 30
0.0
 10
159.533590
 20
88.909184
 30
0.0
 10
160.348007
 20
87.869310
 30
0.0
 10
160.593264
 20
87.714147
 30
0.0
  0
SPLINE
  5
1f9
100
AcDbEntity
  8
0
 62
7
100
AcDbSpline
 70
8
 71
3
 72
8
 73
4
 74
0
 40
0
 40
0
 40
0
 40
0
 40
1
 40
1
 40
1
 40
1
 10
160.593264
 20
87.714147
 30
0.0
 10
160.838518
 20
87.558984
 30
0.0
 10
161.043056
 20
87.283166
 30
0.0
 10
161.043056
 20
87.096786
 30
0.0
  0
SPLINE
  5
1fa
100
AcDbEntity
  8
0
 62
7
100
AcDbSpline
 70
8
 71
3
 72
8
 73
4
 74
0
 40
0
 40
0
 40
0
 40
0
 40
1
 40
1
 40
1
 40
1
 10
161.043056
 20
87.096786
 30
0.0
 10
161.043056
 20
86.910412
 30
0.0
 10
161.588032
 20
85.985522
 30
0.0
 10
162.251319
 20
85.041856
 30
0.0
  0
SPLINE
  5
1fb
100
AcDbEntity
  8
0
 62
7
100
AcDbSpline
 70
8
 71
3
 72
8
 73
4
 74
0
 40
0
 40
0
 40
0
 40
0
 40
1
 40
1
 40
1
 40
1
 10
162.251319
 20
85.041856
 30
0.0
 10
162.914609
 20
84.098186
 30
0.0
 10
164.395963
 20
81.357764
 30
0.0
 10
165.549792
 20
78.956439
 30
0.0
  0
SPLINE
  5
1fc
100
AcDbEntity
  8
0
 62
7
100
AcDbSpline
 70
8
 71
3
 72
8
 73
4
 74
0
 40
0
 40
0
 40
0
 40
0
 40
1
 40
1
 40
1
 40
1
 10
165.549792
 20
78.956439
 30
0.0
 10
167.900731
 20
74.063733
 30
0.0
 10
168.722604
 20
72.177760
 30
0.0
 10
171.564653
 20
65.065814
 30
0.0
  0
SPLINE
  5
1fd
100
AcDbEntity
  8
0
 62
7
100
AcDbSpline
 70
8
 71
3
 72
8
 73
4
 74
0
 40
0
 40
0
 40
0
 40
0
 40
1
 40
1
 40
1
 40
1
 10
171.564653
 20
65.065814
 30
0.0
 10
171.952339
 20
64.095675
 30
0.0
 10
172.390136
 20
62.349425
 30
0.0
 10
172.543611
 20
61.185258
 30
0.0
  0
SPLINE
  5
1fe
100
AcDbEntity
  8
0
 62
7
100
AcDbSpline
 70
8
 71
3
 72
8
 73
4
 74
0
 40
0
 40
0
 40
0
 40
0
 40
1
 40
1
 40
1
 40
1
 10
172.543611
 20
61.185258
 30
0.0
 10
172.697089
 20
60.021092
 30
0.0
 10
172.835471
 20
58.989217
 30
0.0
 10
172.852292
 20
58.892203
 30
0.0
  0
SPLINE
  5
1ff
100
AcDbEntity
  8
0
 62
7
100
AcDbSpline
 70
8
 71
3
 72
8
 73
4
 74
0
 40
0
 40
0
 40
0
 40
0
 40
1
 40
1
 40
1
 40
1
 10
172.852292
 20
58.892203
 30
0.0
 10
172.869132
 20
58.795189
 30
0.0
 10
173.102256
 20
58.332548
 30
0.0
 10
173.363819
 20
57.860328
 30
0.0
  0
SPLINE
  5
200
100
AcDbEntity
  8
0
 62
7
100
AcDbSpline
 70
8
 71
3
 72
8
 73
4
 74
0
 40
0
 40
0
 40
0
 40
0
 40
1
 40
1
 40
1
 40
1
 10
173.363819
 20
57.860328
 30
0.0
 10
173.811051
 20
57.052918
 30
0.0
 10
173.863096
 20
54.344657
 30
0.0
 10
173.663681
 20
41.914772
 30
0.0
  0
SPLINE
  5
201
100
AcDbEntity
  8
0
 62
7
100
AcDbSpline
 70
8
 71
3
 72
8
 73
4
 74
0
 40
0
 40
0
 40
0
 40
0
 40
1
 40
1
 40
1
 40
1
 10
173.663681
 20
41.914772
 30
0.0
 10
173.644743
 20
40.734293
 30
0.0
 10
173.831182
 20
40.074486
 30
0.0
 10
174.351597
 20
39.515883
 30
0.0
  0
SPLINE
  5
202
100
AcDbEntity
  8
0
 62
7
100
AcDbSpline
 70
8
 71
3
 72
8
 73
4
 74
0
 40
0
 40
0
 40
0
 40
0
 40
1
 40
1
 40
1
 40
1
 10
174.351597
 20
39.515883
 30
0.0
 10
176.267632
 20
37.459274
 30
0.0
 10
182.911552
 20
37.371291
 30
0.0
 10
184.546875
 20
39.383592
 30
0.0
  0
SPLINE
  5
203
100
AcDbEntity
  8
0
 62
7
100
AcDbSpline
 70
8
 71
3
 72
8
 73
4
 74
0
 40
0
 40
0
 40
0
 40
0
 40
1
 40
1
 40
1
 40
1
 10
184.546875
 20
39.383592
 30
0.0
 10
184.988544
 20
39.927095
 30
0.0
 10
185.446628
 20
40.813174
 30
0.0
 10
185.569931
 20
41.350328
 30
0.0
  0
SPLINE
  5
204
100
AcDbEntity
  8
0
 62
7
100
AcDbSpline
 70
8
 71
3
 72
8
 73
4
 74
0
 40
0
 40
0
 40
0
 40
0
 40
1
 40
1
 40
1
 40
1
 10
185.569931
 20
41.350328
 30
0.0
 10
185.787403
 20
42.297720
 30
0.0
 10
184.993768
 20
45.199486
 30
0.0
 10
183.612014
 20
48.485258
 30
0.0
  0
SPLINE
  5
205
100
AcDbEntity
  8
0
 62
7
100
AcDbSpline
 70
8
 71
3
 72
8
 73
4
 74
0
 40
0
 40
0
 40
0
 40
0
 40
1
 40
1
 40
1
 40
1
 10
183.612014
 20
48.485258
 30
0.0
 10
183.285641
 20
49.261370
 30
0.0
 10
182.913951
 20
50.548218
 30
0.0
 10
182.791806
 20
51.342758
 30
0.0
  0
SPLINE
  5
206
100
AcDbEntity
  8
0
 62
7
100
AcDbSpline
 70
8
 71
3
 72
8
 73
4
 74
0
 40
0
 40
0
 40
0
 40
0
 40
1
 40
1
 40
1
 40
1
 10
182.791806
 20
51.342758
 30
0.0
 10
182.540944
 20
52.974596
 30
0.0
 10
181.640155
 20
56.072775
 30
0.0
 10
180.957361
 20
57.657481
 30
0.0
  0
SPLINE
  5
207
100
AcDbEntity
  8
0
 62
7
100
AcDbSpline
 70
8
 71
3
 72
8
 73
4
 74
0
 40
0
 40
0
 40
0
 40
0
 40
1
 40
1
 40
1
 40
1
 10
180.957361
 20
57.657481
 30
0.0
 10
180.706564
 20
58.239564
 30
0.0
 10
180.391771
 20
59.350814
 30
0.0
 10
180.251806
 20
60.126925
 30
0.0
  0
SPLINE
  5
208
100
AcDbEntity
  8
0
 62
7
100
AcDbSpline
 70
8
 71
3
 72
8
 73
4
 74
0
 40
0
 40
0
 40
0
 40
0
 40
1
 40
1
 40
1
 40
1
 10
180.251806
 20
60.126925
 30
0.0
 10
180.111840
 20
60.903036
 30
0.0
 10
179.695763
 20
61.957879
 30
0.0
 10
179.334583
 20
62.472897
 30
0.0
  0
SPLINE
  5
209
100
AcDbEntity
  8
0
 62
7
100
AcDbSpline
 70
8
 71
3
 72
8
 73
4
 74
0
 40
0
 40
0
 40
0
 40
0
 40
1
 40
1
 40
1
 40
1
 10
179.334583
 20
62.472897
 30
0.0
 10
178.973409
 20
62.987919
 30
0.0
 10
178.679687
 20
63.622919
 30
0.0
 10
178.681944
 20
63.884008
 30
0.0
  0
SPLINE
  5
20a
100
AcDbEntity
  8
0
 62
7
100
AcDbSpline
 70
8
 71
3
 72
8
 73
4
 74
0
 40
0
 40
0
 40
0
 40
0
 40
1
 40
1
 40
1
 40
1
 10
178.681944
 20
63.884008
 30
0.0
 10
178.685328
 20
64.333526
 30
0.0
 10
177.929805
 20
66.777176
 30
0.0
 10
176.565278
 20
70.710258
 30
0.0
  0
SPLINE
  5
20b
100
AcDbEntity
  8
0
 62
7
100
AcDbSpline
 70
8
 71
3
 72
8
 73
4
 74
0
 40
0
 40
0
 40
0
 40
0
 40
1
 40
1
 40
1
 40
1
 10
176.565278
 20
70.710258
 30
0.0
 10
175.971795
 20
72.420892
 30
0.0
 10
175.356407
 20
74.389900
 30
0.0
 10
173.804792
 20
79.529703
 30
0.0
  0
SPLINE
  5
20c
100
AcDbEntity
  8
0
 62
7
100
AcDbSpline
 70
8
 71
3
 72
8
 73
4
 74
0
 40
0
 40
0
 40
0
 40
0
 40
1
 40
1
 40
1
 40
1
 10
173.804792
 20
79.529703
 30
0.0
 10
173.394776
 20
80.887897
 30
0.0
 10
172.812004
 20
82.792897
 30
0.0
 10
172.508333
 20
83.763036
 30
0.0
  0
SPLINE
  5
20d
100
AcDbEntity
  8
0
 62
7
100
AcDbSpline
 70
8
 71
3
 72
8
 73
4
 74
0
 40
0
 40
0
 40
0
 40
0
 40
1
 40
1
 40
1
 40
1
 10
172.508333
 20
83.763036
 30
0.0
 10
172.204659
 20
84.733175
 30
0.0
 10
171.733834
 20
86.241300
 30
0.0
 10
171.467639
 20
87.114425
 30
0.0
  0
SPLINE
  5
20e
100
AcDbEntity
  8
0
 62
7
100
AcDbSpline
 70
8
 71
3
 72
8
 73
4
 74
0
 40
0
 40
0
 40
0
 40
0
 40
1
 40
1
 40
1
 40
1
 10
171.467639
 20
87.114425
 30
0.0
 10
170.823831
 20
89.226153
 30
0.0
 10
169.946286
 20
91.622781
 30
0.0
 10
169.315694
 20
92.988175
 30
0.0
  0
SPLINE
  5
20f
100
AcDbEntity
  8
0
 62
7
100
AcDbSpline
 70
8
 71
3
 72
8
 73
4
 74
0
 40
0
 40
0
 40
0
 40
0
 40
1
 40
1
 40
1
 40
1
 10
169.315694
 20
92.988175
 30
0.0
 10
169.033323
 20
93.599581
 30
0.0
 10
168.805013
 20
94.313956
 30
0.0
 10
168.804167
 20
94.575675
 30
0.0
  0
SPLINE
  5
210
100
AcDbEntity
  8
0
 62
7
100
AcDbSpline
 70
8
 71
3
 72
8
 73
4
 74
0
 40
0
 40
0
 40
0
 40
0
 40
1
 40
1
 40
1
 40
1
 10
168.804167
 20
94.575675
 30
0.0
 10
168.803444
 20
94.837394
 30
0.0
 10
168.485944
 20
95.571996
 30
0.0
 10
168.098611
 20
96.207272
 30
0.0
  0
SPLINE
  5
211
100
AcDbEntity
  8
0
 62
7
100
AcDbSpline
 70
8
 71
3
 72
8
 73
4
 74
0
 40
0
 40
0
 40
0
 40
0
 40
1
 40
1
 40
1
 40
1
 10
168.098611
 20
96.207272
 30
0.0
 10
167.711284
 20
96.842552
 30
0.0
 10
167.393056
 20
97.508218
 30
0.0
 10
167.393056
 20
97.688939
 30
0.0
  0
SPLINE
  5
212
100
AcDbEntity
  8
0
 62
7
100
AcDbSpline
 70
8
 71
3
 72
8
 73
4
 74
0
 40
0
 40
0
 40
0
 40
0
 40
1
 40
1
 40
1
 40
1
 10
167.393056
 20
97.688939
 30
0.0
 10
167.393056
 20
98.326789
 30
0.0
 10
164.362079
 20
102.415679
 30
0.0
 10
162.630556
 20
104.109495
 30
0.0
  0
SPLINE
  5
213
100
AcDbEntity
  8
0
 62
7
100
AcDbSpline
 70
8
 71
3
 72
8
 73
4
 74
0
 40
0
 40
0
 40
0
 40
0
 40
1
 40
1
 40
1
 40
1
 10
162.630556
 20
104.109495
 30
0.0
 10
162.242500
 20
104.489100
 30
0.0
 10
160.755189
 20
105.703771
 30
0.0
 10
159.323264
 20
106.808245
 30
0.0
  0
SPLINE
  5
214
100
AcDbEntity
  8
0
 62
7
100
AcDbSpline
 70
8
 71
3
 72
8
 73
4
 74
0
 40
0
 40
0
 40
0
 40
0
 40
1
 40
1
 40
1
 40
1
 10
159.323264
 20
106.808245
 30
0.0
 10
155.576897
 20
109.697893
 30
0.0
 10
154.188287
 20
111.066445
 30
0.0
 10
153.176111
 20
112.884842
 30
0.0
  0
SPLINE
  5
215
100
AcDbEntity
  8
0
 62
7
100
AcDbSpline
 70
8
 71
3
 72
8
 73
4
 74
0
 40
0
 40
0
 40
0
 40
0
 40
1
 40
1
 40
1
 40
1
 10
153.176111
 20
112.884842
 30
0.0
 10
152.292389
 20
114.472472
 30
0.0
 10
151.021556
 20
117.694882
 30
0.0
 10
150.468542
 20
119.746370
 30
0.0
  0
SPLINE
  5
216
100
AcDbEntity
  8
0
 62
7
100
AcDbSpline
 70
8
 71
3
 72
8
 73
4
 74
0
 40
0
 40
0
 40
0
 40
0
 40
1
 40
1
 40
1
 40
1
 10
150.468542
 20
119.746370
 30
0.0
 10
150.311635
 20
120.328453
 30
0.0
 10
149.749798
 20
121.915953
 30
0.0
 10
149.225000
 20
123.274147
 30
0.0
  0
SPLINE
  5
217
100
AcDbEntity
  8
0
 62
7
100
AcDbSpline
 70
8
 71
3
 72
8
 73
4
 74
0
 40
0
 40
0
 40
0
 40
0
 40
1
 40
1
 40
1
 40
1
 10
149.225000
 20
123.274147
 30
0.0
 10
148.700199
 20
124.632342
 30
0.0
 10
148.036288
 20
126.377601
 30
0.0
 10
147.752153
 20
127.145883
 30
0.0
  0
SPLINE
  5
218
100
AcDbEntity
  8
0
 62
7
100
AcDbSpline
 70
8
 71
3
 72
8
 73
4
 74
0
 40
0
 40
0
 40
0
 40
0
 40
1
 40
1
 40
1
 40
1
 10
147.752153
 20
127.145883
 30
0.0
 10
147.468020
 20
127.914169
 30
0.0
 10
147.030533
 20
128.946044
 30
0.0
 10
146.782014
 20
129.438939
 30
0.0
  0
SPLINE
  5
219
100
AcDbEntity
  8
0
 62
7
100
AcDbSpline
 70
8
 71
3
 72
8
 73
4
 74
0
 40
0
 40
0
 40
0
 40
0
 40
1
 40
1
 40
1
 40
1
 10
146.782014
 20
129.438939
 30
0.0
 10
146.533500
 20
129.931837
 30
0.0
 10
146.087990
 20
130.885328
 30
0.0
 10
145.785417
 20
131.564425
 30
0.0
  0
SPLINE
  5
21a
100
AcDbEntity
  8
0
 62
7
100
AcDbSpline
 70
8
 71
3
 72
8
 73
4
 74
0
 40
0
 40
0
 40
0
 40
0
 40
1
 40
1
 40
1
 40
1
 10
145.785417
 20
131.564425
 30
0.0
 10
144.922229
 20
133.501771
 30
0.0
 10
140.983456
 20
141.712688
 30
0.0
 10
139.611806
 20
144.440814
 30
0.0
  0
SPLINE
  5
21b
100
AcDbEntity
  8
0
 62
7
100
AcDbSpline
 70
8
 71
3
 72
8
 73
4
 74
0
 40
0
 40
0
 40
0
 40
0
 40
1
 40
1
 40
1
 40
1
 10
139.611806
 20
144.440814
 30
0.0
 10
137.546283
 20
148.549007
 30
0.0
 10
137.298026
 20
149.019895
 30
0.0
 10
137.045347
 20
149.203314
 30
0.0
  0
SPLINE
  5
21c
100
AcDbEntity
  8
0
 62
7
100
AcDbSpline
 70
8
 71
3
 72
8
 73
4
 74
0
 40
0
 40
0
 40
0
 40
0
 40
1
 40
1
 40
1
 40
1
 10
137.045347
 20
149.203314
 30
0.0
 10
136.911701
 20
149.300328
 30
0.0
 10
136.503568
 20
149.923218
 30
0.0
 10
136.136944
 20
150.579147
 30
0.0
  0
SPLINE
  5
21d
100
AcDbEntity
  8
0
 62
7
100
AcDbSpline
 70
8
 71
3
 72
8
 73
4
 74
0
 40
0
 40
0
 40
0
 40
0
 40
1
 40
1
 40
1
 40
1
 10
136.136944
 20
150.579147
 30
0.0
 10
135.770324
 20
151.235074
 30
0.0
 10
135.303062
 20
152.028824
 30
0.0
 10
135.105069
 20
152.343036
 30
0.0
  0
SPLINE
  5
21e
100
AcDbEntity
  8
0
 62
7
100
AcDbSpline
 70
8
 71
3
 72
8
 73
4
 74
0
 40
0
 40
0
 40
0
 40
0
 40
1
 40
1
 40
1
 40
1
 10
135.105069
 20
152.343036
 30
0.0
 10
133.505448
 20
154.881614
 30
0.0
 10
132.703731
 20
155.960911
 30
0.0
 10
131.286250
 20
157.493592
 30
0.0
  0
SPLINE
  5
21f
100
AcDbEntity
  8
0
 62
7
100
AcDbSpline
 70
8
 71
3
 72
8
 73
4
 74
0
 40
0
 40
0
 40
0
 40
0
 40
1
 40
1
 40
1
 40
1
 10
131.286250
 20
157.493592
 30
0.0
 10
129.477874
 20
159.448937
 30
0.0
 10
129.510564
 20
159.376104
 30
0.0
 10
129.998611
 20
160.659772
 30
0.0
  0
SPLINE
  5
220
100
AcDbEntity
  8
0
 62
7
100
AcDbSpline
 70
8
 71
3
 72
8
 73
4
 74
0
 40
0
 40
0
 40
0
 40
0
 40
1
 40
1
 40
1
 40
1
 10
129.998611
 20
160.659772
 30
0.0
 10
130.271260
 20
161.376879
 30
0.0
 10
130.232731
 20
161.622311
 30
0.0
 10
129.822222
 20
161.779842
 30
0.0
  0
SPLINE
  5
221
100
AcDbEntity
  8
0
 62
7
100
AcDbSpline
 70
8
 71
3
 72
8
 73
4
 74
0
 40
0
 40
0
 40
0
 40
0
 40
1
 40
1
 40
1
 40
1
 10
129.822222
 20
161.779842
 30
0.0
 10
129.533354
 20
161.890690
 30
0.0
 10
129.293056
 20
162.195482
 30
0.0
 10
129.293056
 20
162.458939
 30
0.0
  0
SPLINE
  5
222
100
AcDbEntity
  8
0
 62
7
100
AcDbSpline
 70
8
 71
3
 72
8
 73
4
 74
0
 40
0
 40
0
 40
0
 40
0
 40
1
 40
1
 40
1
 40
1
 10
129.293056
 20
162.458939
 30
0.0
 10
129.293056
 20
162.722393
 30
0.0
 10
128.975556
 20
163.106746
 30
0.0
 10
128.587500
 20
163.314425
 30
0.0
  0
SPLINE
  5
223
100
AcDbEntity
  8
0
 62
7
100
AcDbSpline
 70
8
 71
3
 72
8
 73
4
 74
0
 40
0
 40
0
 40
0
 40
0
 40
1
 40
1
 40
1
 40
1
 10
128.587500
 20
163.314425
 30
0.0
 10
128.199444
 20
163.522107
 30
0.0
 10
127.881944
 20
164.001171
 30
0.0
 10
127.881944
 20
164.372758
 30
0.0
  0
SPLINE
  5
224
100
AcDbEntity
  8
0
 62
7
100
AcDbSpline
 70
8
 71
3
 72
8
 73
4
 74
0
 40
0
 40
0
 40
0
 40
0
 40
1
 40
1
 40
1
 40
1
 10
127.881944
 20
164.372758
 30
0.0
 10
127.881944
 20
164.744346
 30
0.0
 10
127.649038
 20
165.173217
 30
0.0
 10
127.361597
 20
165.334078
 30
0.0
  0
SPLINE
  5
225
100
AcDbEntity
  8
0
 62
7
100
AcDbSpline
 70
8
 71
3
 72
8
 73
4
 74
0
 40
0
 40
0
 40
0
 40
0
 40
1
 40
1
 40
1
 40
1
 10
127.361597
 20
165.334078
 30
0.0
 10
127.074162
 20
165.494936
 30
0.0
 10
126.621972
 20
166.355926
 30
0.0
 10
126.356181
 20
167.239078
 30
0.0
  0
LWPOLYLINE
  5
226
100
AcDbEntity
  8
0
 62
7
100
AcDbPolyline
 90
3
 70
0
 10
137.486319
 20
51.078175
 30
0.0
 10
140.934722
 20
50.954703
 30
0.0
 10
141.093472
 20
52.013036
 30
0.0
  0
SPLINE
  5
227
100
AcDbEntity
  8
0
 62
7
100
AcDbSpline
 70
8
 71
3
 72
8
 73
4
 74
0
 40
0
 40
0
 40
0
 40
0
 40
1
 40
1
 40
1
 40
1
 10
126.982361
 20
168.464981
 30
0.0
 10
127.592788
 20
168.255126
 30
0.0
 10
128.481537
 20
167.823958
 30
0.0
 10
128.957917
 20
167.512481
 30
0.0
  0
SPLINE
  5
228
100
AcDbEntity
  8
0
 62
7
100
AcDbSpline
 70
8
 71
3
 72
8
 73
4
 74
0
 40
0
 40
0
 40
0
 40
0
 40
1
 40
1
 40
1
 40
1
 10
128.957917
 20
167.512481
 30
0.0
 10
129.434294
 20
167.201001
 30
0.0
 10
130.179408
 20
166.830327
 30
0.0
 10
130.615972
 20
166.692272
 30
0.0
  0
SPLINE
  5
229
100
AcDbEntity
  8
0
 62
7
100
AcDbSpline
 70
8
 71
3
 72
8
 73
4
 74
0
 40
0
 40
0
 40
0
 40
0
 40
1
 40
1
 40
1
 40
1
 10
130.615972
 20
166.692272
 30
0.0
 10
131.052533
 20
166.554218
 30
0.0
 10
131.409722
 20
166.314171
 30
0.0
 10
131.409722
 20
166.154286
 30
0.0
  0
SPLINE
  5
22a
100
AcDbEntity
  8
0
 62
7
100
AcDbSpline
 70
8
 71
3
 72
8
 73
4
 74
0
 40
0
 40
0
 40
0
 40
0
 40
1
 40
1
 40
1
 40
1
 10
131.409722
 20
166.154286
 30
0.0
 10
131.409722
 20
165.994399
 30
0.0
 10
132.005033
 20
165.606738
 30
0.0
 10
132.732639
 20
165.289981
 30
0.0
  0
SPLINE
  5
22b
100
AcDbEntity
  8
0
 62
7
100
AcDbSpline
 70
8
 71
3
 72
8
 73
4
 74
0
 40
0
 40
0
 40
0
 40
0
 40
1
 40
1
 40
1
 40
1
 10
132.732639
 20
165.289981
 30
0.0
 10
133.460242
 20
164.973223
 30
0.0
 10
134.923699
 20
164.235821
 30
0.0
 10
135.987014
 20
163.658383
 30
0.0
  0
SPLINE
  5
22c
100
AcDbEntity
  8
0
 62
7
100
AcDbSpline
 70
8
 71
3
 72
8
 73
4
 74
0
 40
0
 40
0
 40
0
 40
0
 40
1
 40
1
 40
1
 40
1
 10
135.987014
 20
163.658383
 30
0.0
 10
137.601037
 20
162.781883
 30
0.0
 10
138.328761
 20
162.608870
 30
0.0
 10
140.361458
 20
162.608870
 30
0.0
  0
SPLINE
  5
22d
100
AcDbEntity
  8
0
 62
7
100
AcDbSpline
 70
8
 71
3
 72
8
 73
4
 74
0
 40
0
 40
0
 40
0
 40
0
 40
1
 40
1
 40
1
 40
1
 10
140.361458
 20
162.608870
 30
0.0
 10
142.941068
 20
162.608870
 30
0.0
 10
145.168056
 20
163.531553
 30
0.0
 10
145.168056
 20
164.593245
 30
0.0
  0
SPLINE
  5
22e
100
AcDbEntity
  8
0
 62
7
100
AcDbSpline
 70
8
 71
3
 72
8
 73
4
 74
0
 40
0
 40
0
 40
0
 40
0
 40
1
 40
1
 40
1
 40
1
 10
145.168056
 20
164.593245
 30
0.0
 10
145.168056
 20
164.874552
 30
0.0
 10
145.406181
 20
165.195939
 30
0.0
 10
145.697222
 20
165.307620
 30
0.0
  0
SPLINE
  5
22f
100
AcDbEntity
  8
0
 62
7
100
AcDbSpline
 70
8
 71
3
 72
8
 73
4
 74
0
 40
0
 40
0
 40
0
 40
0
 40
1
 40
1
 40
1
 40
1
 10
145.697222
 20
165.307620
 30
0.0
 10
145.988264
 20
165.419306
 30
0.0
 10
146.226389
 20
165.918555
 30
0.0
 10
146.226389
 20
166.418870
 30
0.0
  0
SPLINE
  5
230
100
AcDbEntity
  8
0
 62
7
100
AcDbSpline
 70
8
 71
3
 72
8
 73
4
 74
0
 40
0
 40
0
 40
0
 40
0
 40
1
 40
1
 40
1
 40
1
 10
146.226389
 20
166.418870
 30
0.0
 10
146.226389
 20
166.919182
 30
0.0
 10
146.553284
 20
167.672724
 30
0.0
 10
146.949583
 20
168.094564
 30
0.0
  0
SPLINE
  5
231
100
AcDbEntity
  8
0
 62
7
100
AcDbSpline
 70
8
 71
3
 72
8
 73
4
 74
0
 40
0
 40
0
 40
0
 40
0
 40
1
 40
1
 40
1
 40
1
 10
146.949583
 20
168.094564
 30
0.0
 10
147.572267
 20
168.757380
 30
0.0
 10
147.614045
 20
169.003760
 30
0.0
 10
147.258264
 20
169.884911
 30
0.0
  0
SPLINE
  5
232
100
AcDbEntity
  8
0
 62
7
100
AcDbSpline
 70
8
 71
3
 72
8
 73
4
 74
0
 40
0
 40
0
 40
0
 40
0
 40
1
 40
1
 40
1
 40
1
 10
147.258264
 20
169.884911
 30
0.0
 10
146.546483
 20
171.647781
 30
0.0
 10
146.294241
 20
172.289064
 30
0.0
 10
146.076458
 20
172.962897
 30
0.0
  0
SPLINE
  5
233
100
AcDbEntity
  8
0
 62
7
100
AcDbSpline
 70
8
 71
3
 72
8
 73
4
 74
0
 40
0
 40
0
 40
0
 40
0
 40
1
 40
1
 40
1
 40
1
 10
146.076458
 20
172.962897
 30
0.0
 10
145.906606
 20
173.488418
 30
0.0
 10
145.593754
 20
173.591127
 30
0.0
 10
144.462500
 20
173.483245
 30
0.0
  0
SPLINE
  5
234
100
AcDbEntity
  8
0
 62
7
100
AcDbSpline
 70
8
 71
3
 72
8
 73
4
 74
0
 40
0
 40
0
 40
0
 40
0
 40
1
 40
1
 40
1
 40
1
 10
144.462500
 20
173.483245
 30
0.0
 10
143.373156
 20
173.379359
 30
0.0
 10
143.051389
 20
173.478579
 30
0.0
 10
143.051389
 20
173.897758
 30
0.0
  0
SPLINE
  5
235
100
AcDbEntity
  8
0
 62
7
100
AcDbSpline
 70
8
 71
3
 72
8
 73
4
 74
0
 40
0
 40
0
 40
0
 40
0
 40
1
 40
1
 40
1
 40
1
 10
143.051389
 20
173.897758
 30
0.0
 10
143.051389
 20
174.878105
 30
0.0
 10
141.935420
 20
175.229836
 30
0.0
 10
139.788194
 20
174.938453
 30
0.0
  0
SPLINE
  5
236
100
AcDbEntity
  8
0
 62
7
100
AcDbSpline
 70
8
 71
3
 72
8
 73
4
 74
0
 40
0
 40
0
 40
0
 40
0
 40
1
 40
1
 40
1
 40
1
 10
139.788194
 20
174.938453
 30
0.0
 10
137.615919
 20
174.643669
 30
0.0
 10
135.694349
 20
173.462665
 30
0.0
 10
135.660694
 20
172.398453
 30
0.0
  0
SPLINE
  5
237
100
AcDbEntity
  8
0
 62
7
100
AcDbSpline
 70
8
 71
3
 72
8
 73
4
 74
0
 40
0
 40
0
 40
0
 40
0
 40
1
 40
1
 40
1
 40
1
 10
135.660694
 20
172.398453
 30
0.0
 10
135.648991
 20
172.028242
 30
0.0
 10
135.367632
 20
171.781092
 30
0.0
 10
134.955139
 20
171.781092
 30
0.0
  0
SPLINE
  5
238
100
AcDbEntity
  8
0
 62
7
100
AcDbSpline
 70
8
 71
3
 72
8
 73
4
 74
0
 40
0
 40
0
 40
0
 40
0
 40
1
 40
1
 40
1
 40
1
 10
134.955139
 20
171.781092
 30
0.0
 10
134.280933
 20
171.781092
 30
0.0
 10
130.997511
 20
173.780396
 30
0.0
 10
130.765903
 20
174.329911
 30
0.0
  0
SPLINE
  5
239
100
AcDbEntity
  8
0
 62
7
100
AcDbSpline
 70
8
 71
3
 72
8
 73
4
 74
0
 40
0
 40
0
 40
0
 40
0
 40
1
 40
1
 40
1
 40
1
 10
130.765903
 20
174.329911
 30
0.0
 10
130.701223
 20
174.483364
 30
0.0
 10
130.487606
 20
174.603314
 30
0.0
 10
130.289653
 20
174.603314
 30
0.0
  0
SPLINE
  5
23a
100
AcDbEntity
  8
0
 62
7
100
AcDbSpline
 70
8
 71
3
 72
8
 73
4
 74
0
 40
0
 40
0
 40
0
 40
0
 40
1
 40
1
 40
1
 40
1
 10
130.289653
 20
174.603314
 30
0.0
 10
129.759724
 20
174.603314
 30
0.0
 10
125.639672
 20
178.099768
 30
0.0
 10
125.280208
 20
178.854286
 30
0.0
  0
SPLINE
  5
23b
100
AcDbEntity
  8
0
 62
7
100
AcDbSpline
 70
8
 71
3
 72
8
 73
4
 74
0
 40
0
 40
0
 40
0
 40
0
 40
1
 40
1
 40
1
 40
1
 10
125.280208
 20
178.854286
 30
0.0
 10
125.110711
 20
179.210067
 30
0.0
 10
125.074243
 20
180.049229
 30
0.0
 10
125.200833
 20
180.724008
 30
0.0
  0
SPLINE
  5
23c
100
AcDbEntity
  8
0
 62
7
100
AcDbSpline
 70
8
 71
3
 72
8
 73
4
 74
0
 40
0
 40
0
 40
0
 40
0
 40
1
 40
1
 40
1
 40
1
 10
125.200833
 20
180.724008
 30
0.0
 10
125.376610
 20
181.661003
 30
0.0
 10
125.674205
 20
182.039951
 30
0.0
 10
126.453194
 20
182.311508
 30
0.0
  0
SPLINE
  5
23d
100
AcDbEntity
  8
0
 62
7
100
AcDbSpline
 70
8
 71
3
 72
8
 73
4
 74
0
 40
0
 40
0
 40
0
 40
0
 40
1
 40
1
 40
1
 40
1
 10
126.453194
 20
182.311508
 30
0.0
 10
129.003106
 20
183.200415
 30
0.0
 10
132.330230
 20
188.230600
 30
0.0
 10
132.035903
 20
190.751717
 30
0.0
  0
LWPOLYLINE
  5
23e
100
AcDbEntity
  8
0
 62
7
100
AcDbPolyline
 90
3
 70
0
 10
126.356181
 20
167.239078
 30
0.0
 10
125.871111
 20
168.844217
 30
0.0
 10
126.982361
 20
168.464981
 30
0.0
  0
SPLINE
  5
23f
100
AcDbEntity
  8
0
 62
7
100
AcDbSpline
 70
8
 71
3
 72
8
 73
4
 74
0
 40
0
 40
0
 40
0
 40
0
 40
1
 40
1
 40
1
 40
1
 10
132.970764
 20
190.610606
 30
0.0
 10
135.399066
 20
187.523634
 30
0.0
 10
142.430647
 20
180.953314
 30
0.0
 10
143.307153
 20
180.953314
 30
0.0
  0
SPLINE
  5
240
100
AcDbEntity
  8
0
 62
7
100
AcDbSpline
 70
8
 71
3
 72
8
 73
4
 74
0
 40
0
 40
0
 40
0
 40
0
 40
1
 40
1
 40
1
 40
1
 10
143.307153
 20
180.953314
 30
0.0
 10
143.492688
 20
180.953314
 30
0.0
 10
143.934925
 20
180.635814
 30
0.0
 10
144.286111
 20
180.247758
 30
0.0
  0
SPLINE
  5
241
100
AcDbEntity
  8
0
 62
7
100
AcDbSpline
 70
8
 71
3
 72
8
 73
4
 74
0
 40
0
 40
0
 40
0
 40
0
 40
1
 40
1
 40
1
 40
1
 10
144.286111
 20
180.247758
 30
0.0
 10
144.637297
 20
179.859703
 30
0.0
 10
145.118458
 20
179.542203
 30
0.0
 10
145.353264
 20
179.542203
 30
0.0
  0
SPLINE
  5
242
100
AcDbEntity
  8
0
 62
7
100
AcDbSpline
 70
8
 71
3
 72
8
 73
4
 74
0
 40
0
 40
0
 40
0
 40
0
 40
1
 40
1
 40
1
 40
1
 10
145.353264
 20
179.542203
 30
0.0
 10
145.588067
 20
179.542203
 30
0.0
 10
146.160538
 20
179.243513
 30
0.0
 10
146.623264
 20
178.880745
 30
0.0
  0
SPLINE
  5
243
100
AcDbEntity
  8
0
 62
7
100
AcDbSpline
 70
8
 71
3
 72
8
 73
4
 74
0
 40
0
 40
0
 40
0
 40
0
 40
1
 40
1
 40
1
 40
1
 10
146.623264
 20
178.880745
 30
0.0
 10
147.409507
 20
178.264346
 30
0.0
 10
149.754167
 20
177.526106
 30
0.0
 10
149.754167
 20
177.892967
 30
0.0
  0
SPLINE
  5
244
100
AcDbEntity
  8
0
 62
7
100
AcDbSpline
 70
8
 71
3
 72
8
 73
4
 74
0
 40
0
 40
0
 40
0
 40
0
 40
1
 40
1
 40
1
 40
1
 10
149.754167
 20
177.892967
 30
0.0
 10
149.754167
 20
177.984029
 30
0.0
 10
149.079478
 20
178.399463
 30
0.0
 10
148.254861
 20
178.819008
 30
0.0
  0
SPLINE
  5
245
100
AcDbEntity
  8
0
 62
7
100
AcDbSpline
 70
8
 71
3
 72
8
 73
4
 74
0
 40
0
 40
0
 40
0
 40
0
 40
1
 40
1
 40
1
 40
1
 10
148.254861
 20
178.819008
 30
0.0
 10
144.823248
 20
180.564940
 30
0.0
 10
139.765772
 20
184.191278
 30
0.0
 10
139.065000
 20
185.407133
 30
0.0
  0
SPLINE
  5
246
100
AcDbEntity
  8
0
 62
7
100
AcDbSpline
 70
8
 71
3
 72
8
 73
4
 74
0
 40
0
 40
0
 40
0
 40
0
 40
1
 40
1
 40
1
 40
1
 10
139.065000
 20
185.407133
 30
0.0
 10
138.909837
 20
185.676342
 30
0.0
 10
138.640845
 20
185.892203
 30
0.0
 10
138.465278
 20
185.892203
 30
0.0
  0
SPLINE
  5
247
100
AcDbEntity
  8
0
 62
7
100
AcDbSpline
 70
8
 71
3
 72
8
 73
4
 74
0
 40
0
 40
0
 40
0
 40
0
 40
1
 40
1
 40
1
 40
1
 10
138.465278
 20
185.892203
 30
0.0
 10
138.050343
 20
185.892203
 30
0.0
 10
136.348611
 20
187.593935
 30
0.0
 10
136.348611
 20
188.008870
 30
0.0
  0
SPLINE
  5
248
100
AcDbEntity
  8
0
 62
7
100
AcDbSpline
 70
8
 71
3
 72
8
 73
4
 74
0
 40
0
 40
0
 40
0
 40
0
 40
1
 40
1
 40
1
 40
1
 10
136.348611
 20
188.008870
 30
0.0
 10
136.348611
 20
188.184437
 30
0.0
 10
136.132751
 20
188.453429
 30
0.0
 10
135.863542
 20
188.608592
 30
0.0
  0
SPLINE
  5
249
100
AcDbEntity
  8
0
 62
7
100
AcDbSpline
 70
8
 71
3
 72
8
 73
4
 74
0
 40
0
 40
0
 40
0
 40
0
 40
1
 40
1
 40
1
 40
1
 10
135.863542
 20
188.608592
 30
0.0
 10
135.461491
 20
188.840316
 30
0.0
 10
133.468460
 20
191.191938
 30
0.0
 10
131.612569
 20
193.626856
 30
0.0
  0
SPLINE
  5
24a
100
AcDbEntity
  8
0
 62
7
100
AcDbSpline
 70
8
 71
3
 72
8
 73
4
 74
0
 40
0
 40
0
 40
0
 40
0
 40
1
 40
1
 40
1
 40
1
 10
131.612569
 20
193.626856
 30
0.0
 10
131.023052
 20
194.400300
 30
0.0
 10
132.424675
 20
193.560415
 30
0.0
 10
133.641042
 20
192.409772
 30
0.0
  0
SPLINE
  5
24b
100
AcDbEntity
  8
0
 62
7
100
AcDbSpline
 70
8
 71
3
 72
8
 73
4
 74
0
 40
0
 40
0
 40
0
 40
0
 40
1
 40
1
 40
1
 40
1
 10
133.641042
 20
192.409772
 30
0.0
 10
134.187322
 20
191.893009
 30
0.0
 10
134.730685
 20
191.567957
 30
0.0
 10
134.849306
 20
191.686578
 30
0.0
  0
SPLINE
  5
24c
100
AcDbEntity
  8
0
 62
7
100
AcDbSpline
 70
8
 71
3
 72
8
 73
4
 74
0
 40
0
 40
0
 40
0
 40
0
 40
1
 40
1
 40
1
 40
1
 10
134.849306
 20
191.686578
 30
0.0
 10
134.967926
 20
191.805199
 30
0.0
 10
133.803235
 20
193.142181
 30
0.0
 10
132.265208
 20
194.658731
 30
0.0
  0
SPLINE
  5
24d
100
AcDbEntity
  8
0
 62
7
100
AcDbSpline
 70
8
 71
3
 72
8
 73
4
 74
0
 40
0
 40
0
 40
0
 40
0
 40
1
 40
1
 40
1
 40
1
 10
132.265208
 20
194.658731
 30
0.0
 10
130.727179
 20
196.175280
 30
0.0
 10
129.231319
 20
197.716247
 30
0.0
 10
128.940278
 20
198.089495
 30
0.0
  0
SPLINE
  5
24e
100
AcDbEntity
  8
0
 62
7
100
AcDbSpline
 70
8
 71
3
 72
8
 73
4
 74
0
 40
0
 40
0
 40
0
 40
0
 40
1
 40
1
 40
1
 40
1
 10
128.940278
 20
198.089495
 30
0.0
 10
128.438715
 20
198.732719
 30
0.0
 10
128.447919
 20
198.740988
 30
0.0
 10
129.116667
 20
198.239425
 30
0.0
  0
SPLINE
  5
24f
100
AcDbEntity
  8
0
 62
7
100
AcDbSpline
 70
8
 71
3
 72
8
 73
4
 74
0
 40
0
 40
0
 40
0
 40
0
 40
1
 40
1
 40
1
 40
1
 10
129.116667
 20
198.239425
 30
0.0
 10
129.504722
 20
197.948383
 30
0.0
 10
129.980972
 20
197.543798
 30
0.0
 10
130.175000
 20
197.339842
 30
0.0
  0
SPLINE
  5
250
100
AcDbEntity
  8
0
 62
7
100
AcDbSpline
 70
8
 71
3
 72
8
 73
4
 74
0
 40
0
 40
0
 40
0
 40
0
 40
1
 40
1
 40
1
 40
1
 10
130.175000
 20
197.339842
 30
0.0
 10
130.369028
 20
197.135891
 30
0.0
 10
131.321528
 20
196.353196
 30
0.0
 10
132.291667
 20
195.593592
 30
0.0
  0
SPLINE
  5
251
100
AcDbEntity
  8
0
 62
7
100
AcDbSpline
 70
8
 71
3
 72
8
 73
4
 74
0
 40
0
 40
0
 40
0
 40
0
 40
1
 40
1
 40
1
 40
1
 10
132.291667
 20
195.593592
 30
0.0
 10
133.261806
 20
194.833988
 30
0.0
 10
134.134931
 20
194.127323
 30
0.0
 10
134.231944
 20
194.023731
 30
0.0
  0
SPLINE
  5
252
100
AcDbEntity
  8
0
 62
7
100
AcDbSpline
 70
8
 71
3
 72
8
 73
4
 74
0
 40
0
 40
0
 40
0
 40
0
 40
1
 40
1
 40
1
 40
1
 10
134.231944
 20
194.023731
 30
0.0
 10
134.328958
 20
193.920138
 30
0.0
 10
134.725833
 20
193.634061
 30
0.0
 10
135.113889
 20
193.388731
 30
0.0
  0
SPLINE
  5
253
100
AcDbEntity
  8
0
 62
7
100
AcDbSpline
 70
8
 71
3
 72
8
 73
4
 74
0
 40
0
 40
0
 40
0
 40
0
 40
1
 40
1
 40
1
 40
1
 10
135.113889
 20
193.388731
 30
0.0
 10
137.175017
 20
192.085663
 30
0.0
 10
137.974191
 20
191.548210
 30
0.0
 10
138.359444
 20
191.210328
 30
0.0
  0
SPLINE
  5
254
100
AcDbEntity
  8
0
 62
7
100
AcDbSpline
 70
8
 71
3
 72
8
 73
4
 74
0
 40
0
 40
0
 40
0
 40
0
 40
1
 40
1
 40
1
 40
1
 10
138.359444
 20
191.210328
 30
0.0
 10
138.593790
 20
191.004791
 30
0.0
 10
138.990665
 20
190.826590
 30
0.0
 10
139.241389
 20
190.822272
 30
0.0
  0
SPLINE
  5
255
100
AcDbEntity
  8
0
 62
7
100
AcDbSpline
 70
8
 71
3
 72
8
 73
4
 74
0
 40
0
 40
0
 40
0
 40
0
 40
1
 40
1
 40
1
 40
1
 10
139.241389
 20
190.822272
 30
0.0
 10
139.492115
 20
190.817957
 30
0.0
 10
140.096875
 20
190.504964
 30
0.0
 10
140.581944
 20
190.125536
 30
0.0
  0
SPLINE
  5
256
100
AcDbEntity
  8
0
 62
7
100
AcDbSpline
 70
8
 71
3
 72
8
 73
4
 74
0
 40
0
 40
0
 40
0
 40
0
 40
1
 40
1
 40
1
 40
1
 10
140.581944
 20
190.125536
 30
0.0
 10
141.067014
 20
189.746111
 30
0.0
 10
141.702014
 20
189.433852
 30
0.0
 10
141.993056
 20
189.428800
 30
0.0
  0
SPLINE
  5
257
100
AcDbEntity
  8
0
 62
7
100
AcDbSpline
 70
8
 71
3
 72
8
 73
4
 74
0
 40
0
 40
0
 40
0
 40
0
 40
1
 40
1
 40
1
 40
1
 10
141.993056
 20
189.428800
 30
0.0
 10
142.284097
 20
189.423757
 30
0.0
 10
142.998472
 20
189.130661
 30
0.0
 10
143.580556
 20
188.776161
 30
0.0
  0
SPLINE
  5
258
100
AcDbEntity
  8
0
 62
7
100
AcDbSpline
 70
8
 71
3
 72
8
 73
4
 74
0
 40
0
 40
0
 40
0
 40
0
 40
1
 40
1
 40
1
 40
1
 10
143.580556
 20
188.776161
 30
0.0
 10
144.162639
 20
188.421665
 30
0.0
 10
145.103302
 20
188.018626
 30
0.0
 10
145.670764
 20
187.876578
 30
0.0
  0
SPLINE
  5
259
100
AcDbEntity
  8
0
 62
7
100
AcDbSpline
 70
8
 71
3
 72
8
 73
4
 74
0
 40
0
 40
0
 40
0
 40
0
 40
1
 40
1
 40
1
 40
1
 10
145.670764
 20
187.876578
 30
0.0
 10
146.579483
 20
187.649101
 30
0.0
 10
146.647044
 20
187.682014
 30
0.0
 10
146.244028
 20
188.167620
 30
0.0
  0
SPLINE
  5
25a
100
AcDbEntity
  8
0
 62
7
100
AcDbSpline
 70
8
 71
3
 72
8
 73
4
 74
0
 40
0
 40
0
 40
0
 40
0
 40
1
 40
1
 40
1
 40
1
 10
146.244028
 20
188.167620
 30
0.0
 10
145.992359
 20
188.470862
 30
0.0
 10
145.594383
 20
188.714425
 30
0.0
 10
145.353264
 20
188.714425
 30
0.0
  0
SPLINE
  5
25b
100
AcDbEntity
  8
0
 62
7
100
AcDbSpline
 70
8
 71
3
 72
8
 73
4
 74
0
 40
0
 40
0
 40
0
 40
0
 40
1
 40
1
 40
1
 40
1
 10
145.353264
 20
188.714425
 30
0.0
 10
145.112147
 20
188.714425
 30
0.0
 10
144.506041
 20
189.031925
 30
0.0
 10
144.012708
 20
189.419981
 30
0.0
  0
SPLINE
  5
25c
100
AcDbEntity
  8
0
 62
7
100
AcDbSpline
 70
8
 71
3
 72
8
 73
4
 74
0
 40
0
 40
0
 40
0
 40
0
 40
1
 40
1
 40
1
 40
1
 10
144.012708
 20
189.419981
 30
0.0
 10
143.519378
 20
189.808036
 30
0.0
 10
142.866443
 20
190.125536
 30
0.0
 10
142.557500
 20
190.125536
 30
0.0
  0
SPLINE
  5
25d
100
AcDbEntity
  8
0
 62
7
100
AcDbSpline
 70
8
 71
3
 72
8
 73
4
 74
0
 40
0
 40
0
 40
0
 40
0
 40
1
 40
1
 40
1
 40
1
 10
142.557500
 20
190.125536
 30
0.0
 10
142.248554
 20
190.125536
 30
0.0
 10
141.993056
 20
190.258483
 30
0.0
 10
141.993056
 20
190.416578
 30
0.0
  0
SPLINE
  5
25e
100
AcDbEntity
  8
0
 62
7
100
AcDbSpline
 70
8
 71
3
 72
8
 73
4
 74
0
 40
0
 40
0
 40
0
 40
0
 40
1
 40
1
 40
1
 40
1
 10
141.993056
 20
190.416578
 30
0.0
 10
141.993056
 20
190.574668
 30
0.0
 10
141.434591
 20
190.971830
 30
0.0
 10
140.749514
 20
191.298522
 30
0.0
  0
SPLINE
  5
25f
100
AcDbEntity
  8
0
 62
7
100
AcDbSpline
 70
8
 71
3
 72
8
 73
4
 74
0
 40
0
 40
0
 40
0
 40
0
 40
1
 40
1
 40
1
 40
1
 10
140.749514
 20
191.298522
 30
0.0
 10
140.064442
 20
191.625212
 30
0.0
 10
139.414916
 20
192.127262
 30
0.0
 10
139.303125
 20
192.418592
 30
0.0
  0
SPLINE
  5
260
100
AcDbEntity
  8
0
 62
7
100
AcDbSpline
 70
8
 71
3
 72
8
 73
4
 74
0
 40
0
 40
0
 40
0
 40
0
 40
1
 40
1
 40
1
 40
1
 10
139.303125
 20
192.418592
 30
0.0
 10
139.191328
 20
192.709919
 30
0.0
 10
138.944804
 20
192.947758
 30
0.0
 10
138.756319
 20
192.947758
 30
0.0
  0
SPLINE
  5
261
100
AcDbEntity
  8
0
 62
7
100
AcDbSpline
 70
8
 71
3
 72
8
 73
4
 74
0
 40
0
 40
0
 40
0
 40
0
 40
1
 40
1
 40
1
 40
1
 10
138.756319
 20
192.947758
 30
0.0
 10
138.567832
 20
192.947758
 30
0.0
 10
137.748919
 20
193.586142
 30
0.0
 10
136.939514
 20
194.367689
 30
0.0
  0
SPLINE
  5
262
100
AcDbEntity
  8
0
 62
7
100
AcDbSpline
 70
8
 71
3
 72
8
 73
4
 74
0
 40
0
 40
0
 40
0
 40
0
 40
1
 40
1
 40
1
 40
1
 10
136.939514
 20
194.367689
 30
0.0
 10
132.800014
 20
198.364718
 30
0.0
 10
130.704167
 20
200.528417
 30
0.0
 10
130.704167
 20
200.797064
 30
0.0
  0
SPLINE
  5
263
100
AcDbEntity
  8
0
 62
7
100
AcDbSpline
 70
8
 71
3
 72
8
 73
4
 74
0
 40
0
 40
0
 40
0
 40
0
 40
1
 40
1
 40
1
 40
1
 10
130.704167
 20
200.797064
 30
0.0
 10
130.704167
 20
200.961092
 30
0.0
 10
130.386667
 20
201.438871
 30
0.0
 10
129.998611
 20
201.855397
 30
0.0
  0
SPLINE
  5
264
100
AcDbEntity
  8
0
 62
7
100
AcDbSpline
 70
8
 71
3
 72
8
 73
4
 74
0
 40
0
 40
0
 40
0
 40
0
 40
1
 40
1
 40
1
 40
1
 10
129.998611
 20
201.855397
 30
0.0
 10
129.297901
 20
202.607525
 30
0.0
 10
129.050816
 20
203.538246
 30
0.0
 10
129.557639
 20
203.522272
 30
0.0
  0
SPLINE
  5
265
100
AcDbEntity
  8
0
 62
7
100
AcDbSpline
 70
8
 71
3
 72
8
 73
4
 74
0
 40
0
 40
0
 40
0
 40
0
 40
1
 40
1
 40
1
 40
1
 10
129.557639
 20
203.522272
 30
0.0
 10
129.703158
 20
203.517686
 30
0.0
 10
130.292117
 20
202.882686
 30
0.0
 10
130.862917
 20
202.111161
 30
0.0
  0
SPLINE
  5
266
100
AcDbEntity
  8
0
 62
7
100
AcDbSpline
 70
8
 71
3
 72
8
 73
4
 74
0
 40
0
 40
0
 40
0
 40
0
 40
1
 40
1
 40
1
 40
1
 10
130.862917
 20
202.111161
 30
0.0
 10
131.433711
 20
201.339636
 30
0.0
 10
131.997811
 20
200.708870
 30
0.0
 10
132.124097
 20
200.708870
 30
0.0
  0
SPLINE
  5
267
100
AcDbEntity
  8
0
 62
7
100
AcDbSpline
 70
8
 71
3
 72
8
 73
4
 74
0
 40
0
 40
0
 40
0
 40
0
 40
1
 40
1
 40
1
 40
1
 10
132.124097
 20
200.708870
 30
0.0
 10
132.250389
 20
200.708870
 30
0.0
 10
133.257835
 20
199.858901
 30
0.0
 10
134.355417
 20
198.812689
 30
0.0
  0
SPLINE
  5
268
100
AcDbEntity
  8
0
 62
7
100
AcDbSpline
 70
8
 71
3
 72
8
 73
4
 74
0
 40
0
 40
0
 40
0
 40
0
 40
1
 40
1
 40
1
 40
1
 10
134.355417
 20
198.812689
 30
0.0
 10
135.452996
 20
197.766477
 30
0.0
 10
137.142268
 20
196.298225
 30
0.0
 10
138.112500
 20
195.558314
 30
0.0
  0
SPLINE
  5
269
100
AcDbEntity
  8
0
 62
7
100
AcDbSpline
 70
8
 71
3
 72
8
 73
4
 74
0
 40
0
 40
0
 40
0
 40
0
 40
1
 40
1
 40
1
 40
1
 10
138.112500
 20
195.558314
 30
0.0
 10
139.082735
 20
194.818406
 30
0.0
 10
139.876389
 20
194.089697
 30
0.0
 10
139.876389
 20
193.935536
 30
0.0
  0
SPLINE
  5
26a
100
AcDbEntity
  8
0
 62
7
100
AcDbSpline
 70
8
 71
3
 72
8
 73
4
 74
0
 40
0
 40
0
 40
0
 40
0
 40
1
 40
1
 40
1
 40
1
 10
139.876389
 20
193.935536
 30
0.0
 10
139.876389
 20
193.781378
 30
0.0
 10
140.112521
 20
193.653314
 30
0.0
 10
140.396736
 20
193.653314
 30
0.0
  0
SPLINE
  5
26b
100
AcDbEntity
  8
0
 62
7
100
AcDbSpline
 70
8
 71
3
 72
8
 73
4
 74
0
 40
0
 40
0
 40
0
 40
0
 40
1
 40
1
 40
1
 40
1
 10
140.396736
 20
193.653314
 30
0.0
 10
140.680954
 20
193.653314
 30
0.0
 10
141.079818
 20
193.335814
 30
0.0
 10
141.287500
 20
192.947758
 30
0.0
  0
SPLINE
  5
26c
100
AcDbEntity
  8
0
 62
7
100
AcDbSpline
 70
8
 71
3
 72
8
 73
4
 74
0
 40
0
 40
0
 40
0
 40
0
 40
1
 40
1
 40
1
 40
1
 10
141.287500
 20
192.947758
 30
0.0
 10
141.495179
 20
192.559703
 30
0.0
 10
141.894049
 20
192.242203
 30
0.0
 10
142.178264
 20
192.242203
 30
0.0
  0
SPLINE
  5
26d
100
AcDbEntity
  8
0
 62
7
100
AcDbSpline
 70
8
 71
3
 72
8
 73
4
 74
0
 40
0
 40
0
 40
0
 40
0
 40
1
 40
1
 40
1
 40
1
 10
142.178264
 20
192.242203
 30
0.0
 10
142.462481
 20
192.242203
 30
0.0
 10
142.698611
 20
192.125843
 30
0.0
 10
142.698611
 20
191.977620
 30
0.0
  0
SPLINE
  5
26e
100
AcDbEntity
  8
0
 62
7
100
AcDbSpline
 70
8
 71
3
 72
8
 73
4
 74
0
 40
0
 40
0
 40
0
 40
0
 40
1
 40
1
 40
1
 40
1
 10
142.698611
 20
191.977620
 30
0.0
 10
142.698611
 20
191.829396
 30
0.0
 10
143.333611
 20
191.310754
 30
0.0
 10
144.109722
 20
190.831092
 30
0.0
  0
SPLINE
  5
26f
100
AcDbEntity
  8
0
 62
7
100
AcDbSpline
 70
8
 71
3
 72
8
 73
4
 74
0
 40
0
 40
0
 40
0
 40
0
 40
1
 40
1
 40
1
 40
1
 10
144.109722
 20
190.831092
 30
0.0
 10
144.885833
 20
190.351430
 30
0.0
 10
145.520833
 20
189.841607
 30
0.0
 10
145.520833
 20
189.693383
 30
0.0
  0
SPLINE
  5
270
100
AcDbEntity
  8
0
 62
7
100
AcDbSpline
 70
8
 71
3
 72
8
 73
4
 74
0
 40
0
 40
0
 40
0
 40
0
 40
1
 40
1
 40
1
 40
1
 10
145.520833
 20
189.693383
 30
0.0
 10
145.520833
 20
189.545160
 30
0.0
 10
145.671670
 20
189.419981
 30
0.0
 10
145.855972
 20
189.419981
 30
0.0
  0
SPLINE
  5
271
100
AcDbEntity
  8
0
 62
7
100
AcDbSpline
 70
8
 71
3
 72
8
 73
4
 74
0
 40
0
 40
0
 40
0
 40
0
 40
1
 40
1
 40
1
 40
1
 10
145.855972
 20
189.419981
 30
0.0
 10
146.271765
 20
189.419981
 30
0.0
 10
149.531395
 20
187.262073
 30
0.0
 10
149.692431
 20
186.879981
 30
0.0
  0
SPLINE
  5
272
100
AcDbEntity
  8
0
 62
7
100
AcDbSpline
 70
8
 71
3
 72
8
 73
4
 74
0
 40
0
 40
0
 40
0
 40
0
 40
1
 40
1
 40
1
 40
1
 10
149.692431
 20
186.879981
 30
0.0
 10
149.757110
 20
186.726528
 30
0.0
 10
150.137633
 20
186.597758
 30
0.0
 10
150.530278
 20
186.597758
 30
0.0
  0
SPLINE
  5
273
100
AcDbEntity
  8
0
 62
7
100
AcDbSpline
 70
8
 71
3
 72
8
 73
4
 74
0
 40
0
 40
0
 40
0
 40
0
 40
1
 40
1
 40
1
 40
1
 10
150.530278
 20
186.597758
 30
0.0
 10
151.011949
 20
186.597758
 30
0.0
 10
151.175449
 20
186.434501
 30
0.0
 10
151.041806
 20
186.086231
 30
0.0
  0
SPLINE
  5
274
100
AcDbEntity
  8
0
 62
7
100
AcDbSpline
 70
8
 71
3
 72
8
 73
4
 74
0
 40
0
 40
0
 40
0
 40
0
 40
1
 40
1
 40
1
 40
1
 10
151.041806
 20
186.086231
 30
0.0
 10
150.899348
 20
185.714987
 30
0.0
 10
151.193593
 20
185.503340
 30
0.0
 10
152.082500
 20
185.336578
 30
0.0
  0
SPLINE
  5
275
100
AcDbEntity
  8
0
 62
7
100
AcDbSpline
 70
8
 71
3
 72
8
 73
4
 74
0
 40
0
 40
0
 40
0
 40
0
 40
1
 40
1
 40
1
 40
1
 10
152.082500
 20
185.336578
 30
0.0
 10
152.762289
 20
185.209050
 30
0.0
 10
153.529360
 20
184.895132
 30
0.0
 10
153.784653
 20
184.639842
 30
0.0
  0
SPLINE
  5
276
100
AcDbEntity
  8
0
 62
7
100
AcDbSpline
 70
8
 71
3
 72
8
 73
4
 74
0
 40
0
 40
0
 40
0
 40
0
 40
1
 40
1
 40
1
 40
1
 10
153.784653
 20
184.639842
 30
0.0
 10
154.039943
 20
184.384549
 30
0.0
 10
156.373387
 20
183.096425
 30
0.0
 10
158.970486
 20
181.782342
 30
0.0
  0
SPLINE
  5
277
100
AcDbEntity
  8
0
 62
7
100
AcDbSpline
 70
8
 71
3
 72
8
 73
4
 74
0
 40
0
 40
0
 40
0
 40
0
 40
1
 40
1
 40
1
 40
1
 10
158.970486
 20
181.782342
 30
0.0
 10
161.567585
 20
180.468262
 30
0.0
 10
163.736026
 20
179.289704
 30
0.0
 10
163.794722
 20
179.154147
 30
0.0
  0
SPLINE
  5
278
100
AcDbEntity
  8
0
 62
7
100
AcDbSpline
 70
8
 71
3
 72
8
 73
4
 74
0
 40
0
 40
0
 40
0
 40
0
 40
1
 40
1
 40
1
 40
1
 10
163.794722
 20
179.154147
 30
0.0
 10
163.853416
 20
179.018590
 30
0.0
 10
164.196847
 20
178.568418
 30
0.0
 10
164.553194
 20
178.157550
 30
0.0
  0
SPLINE
  5
279
100
AcDbEntity
  8
0
 62
7
100
AcDbSpline
 70
8
 71
3
 72
8
 73
4
 74
0
 40
0
 40
0
 40
0
 40
0
 40
1
 40
1
 40
1
 40
1
 10
164.553194
 20
178.157550
 30
0.0
 10
164.909542
 20
177.746677
 30
0.0
 10
165.390079
 20
176.935590
 30
0.0
 10
165.629167
 20
176.358383
 30
0.0
  0
SPLINE
  5
27a
100
AcDbEntity
  8
0
 62
7
100
AcDbSpline
 70
8
 71
3
 72
8
 73
4
 74
0
 40
0
 40
0
 40
0
 40
0
 40
1
 40
1
 40
1
 40
1
 10
165.629167
 20
176.358383
 30
0.0
 10
165.868254
 20
175.781174
 30
0.0
 10
166.186863
 20
175.308870
 30
0.0
 10
166.334722
 20
175.308870
 30
0.0
  0
SPLINE
  5
27b
100
AcDbEntity
  8
0
 62
7
100
AcDbSpline
 70
8
 71
3
 72
8
 73
4
 74
0
 40
0
 40
0
 40
0
 40
0
 40
1
 40
1
 40
1
 40
1
 10
166.334722
 20
175.308870
 30
0.0
 10
166.482581
 20
175.308870
 30
0.0
 10
166.699006
 20
174.960847
 30
0.0
 10
166.810972
 20
174.532758
 30
0.0
  0
SPLINE
  5
27c
100
AcDbEntity
  8
0
 62
7
100
AcDbSpline
 70
8
 71
3
 72
8
 73
4
 74
0
 40
0
 40
0
 40
0
 40
0
 40
1
 40
1
 40
1
 40
1
 10
166.810972
 20
174.532758
 30
0.0
 10
166.922918
 20
174.104670
 30
0.0
 10
167.106532
 20
173.849357
 30
0.0
 10
167.225486
 20
173.968314
 30
0.0
  0
SPLINE
  5
27d
100
AcDbEntity
  8
0
 62
7
100
AcDbSpline
 70
8
 71
3
 72
8
 73
4
 74
0
 40
0
 40
0
 40
0
 40
0
 40
1
 40
1
 40
1
 40
1
 10
167.225486
 20
173.968314
 30
0.0
 10
167.344437
 20
174.087265
 30
0.0
 10
167.021555
 20
175.084359
 30
0.0
 10
166.502292
 20
176.181995
 30
0.0
  0
SPLINE
  5
27e
100
AcDbEntity
  8
0
 62
7
100
AcDbSpline
 70
8
 71
3
 72
8
 73
4
 74
0
 40
0
 40
0
 40
0
 40
0
 40
1
 40
1
 40
1
 40
1
 10
166.502292
 20
176.181995
 30
0.0
 10
165.983025
 20
177.279627
 30
0.0
 10
165.613625
 20
178.231402
 30
0.0
 10
165.682083
 20
178.298661
 30
0.0
  0
SPLINE
  5
27f
100
AcDbEntity
  8
0
 62
7
100
AcDbSpline
 70
8
 71
3
 72
8
 73
4
 74
0
 40
0
 40
0
 40
0
 40
0
 40
1
 40
1
 40
1
 40
1
 10
165.682083
 20
178.298661
 30
0.0
 10
165.750542
 20
178.365920
 30
0.0
 10
166.440556
 20
178.179597
 30
0.0
 10
167.216667
 20
177.884147
 30
0.0
  0
SPLINE
  5
280
100
AcDbEntity
  8
0
 62
7
100
AcDbSpline
 70
8
 71
3
 72
8
 73
4
 74
0
 40
0
 40
0
 40
0
 40
0
 40
1
 40
1
 40
1
 40
1
 10
167.216667
 20
177.884147
 30
0.0
 10
167.992778
 20
177.588692
 30
0.0
 10
169.385705
 20
177.090663
 30
0.0
 10
170.312292
 20
176.772897
 30
0.0
  0
SPLINE
  5
281
100
AcDbEntity
  8
0
 62
7
100
AcDbSpline
 70
8
 71
3
 72
8
 73
4
 74
0
 40
0
 40
0
 40
0
 40
0
 40
1
 40
1
 40
1
 40
1
 10
170.312292
 20
176.772897
 30
0.0
 10
171.459367
 20
176.379511
 30
0.0
 10
172.034070
 20
175.965657
 30
0.0
 10
172.120278
 20
175.485258
 30
0.0
  0
SPLINE
  5
282
100
AcDbEntity
  8
0
 62
7
100
AcDbSpline
 70
8
 71
3
 72
8
 73
4
 74
0
 40
0
 40
0
 40
0
 40
0
 40
1
 40
1
 40
1
 40
1
 10
172.120278
 20
175.485258
 30
0.0
 10
172.189916
 20
175.097203
 30
0.0
 10
172.608065
 20
172.912044
 30
0.0
 10
173.046319
 20
170.625745
 30
0.0
  0
SPLINE
  5
283
100
AcDbEntity
  8
0
 62
7
100
AcDbSpline
 70
8
 71
3
 72
8
 73
4
 74
0
 40
0
 40
0
 40
0
 40
0
 40
1
 40
1
 40
1
 40
1
 10
173.046319
 20
170.625745
 30
0.0
 10
173.748237
 20
166.963951
 30
0.0
 10
173.816089
 20
165.850471
 30
0.0
 10
173.601944
 20
161.277133
 30
0.0
  0
SPLINE
  5
284
100
AcDbEntity
  8
0
 62
7
100
AcDbSpline
 70
8
 71
3
 72
8
 73
4
 74
0
 40
0
 40
0
 40
0
 40
0
 40
1
 40
1
 40
1
 40
1
 10
173.601944
 20
161.277133
 30
0.0
 10
173.468242
 20
158.421697
 30
0.0
 10
173.113432
 20
154.531472
 30
0.0
 10
172.817014
 20
152.634078
 30
0.0
  0
SPLINE
  5
285
100
AcDbEntity
  8
0
 62
7
100
AcDbSpline
 70
8
 71
3
 72
8
 73
4
 74
0
 40
0
 40
0
 40
0
 40
0
 40
1
 40
1
 40
1
 40
1
 10
172.817014
 20
152.634078
 30
0.0
 10
172.520596
 20
150.736684
 30
0.0
 10
172.351948
 20
148.990434
 30
0.0
 10
172.437778
 20
148.753522
 30
0.0
  0
SPLINE
  5
286
100
AcDbEntity
  8
0
 62
7
100
AcDbSpline
 70
8
 71
3
 72
8
 73
4
 74
0
 40
0
 40
0
 40
0
 40
0
 40
1
 40
1
 40
1
 40
1
 10
172.437778
 20
148.753522
 30
0.0
 10
172.523613
 20
148.516611
 30
0.0
 10
172.707689
 20
149.115120
 30
0.0
 10
172.852292
 20
150.085258
 30
0.0
  0
SPLINE
  5
287
100
AcDbEntity
  8
0
 62
7
100
AcDbSpline
 70
8
 71
3
 72
8
 73
4
 74
0
 40
0
 40
0
 40
0
 40
0
 40
1
 40
1
 40
1
 40
1
 10
172.852292
 20
150.085258
 30
0.0
 10
172.996894
 20
151.055397
 30
0.0
 10
173.421209
 20
152.759263
 30
0.0
 10
173.787153
 20
153.868800
 30
0.0
  0
SPLINE
  5
288
100
AcDbEntity
  8
0
 62
7
100
AcDbSpline
 70
8
 71
3
 72
8
 73
4
 74
0
 40
0
 40
0
 40
0
 40
0
 40
1
 40
1
 40
1
 40
1
 10
173.787153
 20
153.868800
 30
0.0
 10
174.153096
 20
154.978340
 30
0.0
 10
174.448611
 20
156.298307
 30
0.0
 10
174.448611
 20
156.805675
 30
0.0
  0
SPLINE
  5
289
100
AcDbEntity
  8
0
 62
7
100
AcDbSpline
 70
8
 71
3
 72
8
 73
4
 74
0
 40
0
 40
0
 40
0
 40
0
 40
1
 40
1
 40
1
 40
1
 10
174.448611
 20
156.805675
 30
0.0
 10
174.448611
 20
157.313043
 30
0.0
 10
174.781063
 20
159.031124
 30
0.0
 10
175.189444
 20
160.615675
 30
0.0
  0
SPLINE
  5
28a
100
AcDbEntity
  8
0
 62
7
100
AcDbSpline
 70
8
 71
3
 72
8
 73
4
 74
0
 40
0
 40
0
 40
0
 40
0
 40
1
 40
1
 40
1
 40
1
 10
175.189444
 20
160.615675
 30
0.0
 10
175.774189
 20
162.884519
 30
0.0
 10
175.942845
 20
164.672552
 30
0.0
 10
175.983194
 20
169.047064
 30
0.0
  0
SPLINE
  5
28b
100
AcDbEntity
  8
0
 62
7
100
AcDbSpline
 70
8
 71
3
 72
8
 73
4
 74
0
 40
0
 40
0
 40
0
 40
0
 40
1
 40
1
 40
1
 40
1
 10
175.983194
 20
169.047064
 30
0.0
 10
176.011374
 20
172.102201
 30
0.0
 10
176.141391
 20
174.602750
 30
0.0
 10
176.265417
 20
174.603314
 30
0.0
  0
SPLINE
  5
28c
100
AcDbEntity
  8
0
 62
7
100
AcDbSpline
 70
8
 71
3
 72
8
 73
4
 74
0
 40
0
 40
0
 40
0
 40
0
 40
1
 40
1
 40
1
 40
1
 10
176.265417
 20
174.603314
 30
0.0
 10
177.299264
 20
174.609977
 30
0.0
 10
178.680350
 20
171.952658
 30
0.0
 10
180.119514
 20
167.194981
 30
0.0
  0
SPLINE
  5
28d
100
AcDbEntity
  8
0
 62
7
100
AcDbSpline
 70
8
 71
3
 72
8
 73
4
 74
0
 40
0
 40
0
 40
0
 40
0
 40
1
 40
1
 40
1
 40
1
 10
180.119514
 20
167.194981
 30
0.0
 10
180.559704
 20
165.739772
 30
0.0
 10
181.210517
 20
163.714170
 30
0.0
 10
181.565903
 20
162.688245
 30
0.0
  0
SPLINE
  5
28e
100
AcDbEntity
  8
0
 62
7
100
AcDbSpline
 70
8
 71
3
 72
8
 73
4
 74
0
 40
0
 40
0
 40
0
 40
0
 40
1
 40
1
 40
1
 40
1
 10
181.565903
 20
162.688245
 30
0.0
 10
182.390740
 20
160.307102
 30
0.0
 10
182.382614
 20
158.344918
 30
0.0
 10
181.548264
 20
156.691022
 30
0.0
  0
SPLINE
  5
28f
100
AcDbEntity
  8
0
 62
7
100
AcDbSpline
 70
8
 71
3
 72
8
 73
4
 74
0
 40
0
 40
0
 40
0
 40
0
 40
1
 40
1
 40
1
 40
1
 10
181.548264
 20
156.691022
 30
0.0
 10
181.185103
 20
155.971147
 30
0.0
 10
180.763297
 20
154.987348
 30
0.0
 10
180.613403
 20
154.503800
 30
0.0
  0
SPLINE
  5
290
100
AcDbEntity
  8
0
 62
7
100
AcDbSpline
 70
8
 71
3
 72
8
 73
4
 74
0
 40
0
 40
0
 40
0
 40
0
 40
1
 40
1
 40
1
 40
1
 10
180.613403
 20
154.503800
 30
0.0
 10
180.369365
 20
153.716581
 30
0.0
 10
180.402701
 20
153.667054
 30
0.0
 10
180.922083
 20
154.098106
 30
0.0
  0
SPLINE
  5
291
100
AcDbEntity
  8
0
 62
7
100
AcDbSpline
 70
8
 71
3
 72
8
 73
4
 74
0
 40
0
 40
0
 40
0
 40
0
 40
1
 40
1
 40
1
 40
1
 10
180.922083
 20
154.098106
 30
0.0
 10
181.241113
 20
154.362878
 30
0.0
 10
181.506523
 20
154.761274
 30
0.0
 10
181.512986
 20
154.980050
 30
0.0
  0
SPLINE
  5
292
100
AcDbEntity
  8
0
 62
7
100
AcDbSpline
 70
8
 71
3
 72
8
 73
4
 74
0
 40
0
 40
0
 40
0
 40
0
 40
1
 40
1
 40
1
 40
1
 10
181.512986
 20
154.980050
 30
0.0
 10
181.528655
 20
155.511150
 30
0.0
 10
182.883754
 20
157.119419
 30
0.0
 10
183.118125
 20
156.885050
 30
0.0
  0
SPLINE
  5
293
100
AcDbEntity
  8
0
 62
7
100
AcDbSpline
 70
8
 71
3
 72
8
 73
4
 74
0
 40
0
 40
0
 40
0
 40
0
 40
1
 40
1
 40
1
 40
1
 10
183.118125
 20
156.885050
 30
0.0
 10
183.219640
 20
156.783532
 30
0.0
 10
183.490133
 20
155.130918
 30
0.0
 10
183.717847
 20
153.216161
 30
0.0
  0
SPLINE
  5
294
100
AcDbEntity
  8
0
 62
7
100
AcDbSpline
 70
8
 71
3
 72
8
 73
4
 74
0
 40
0
 40
0
 40
0
 40
0
 40
1
 40
1
 40
1
 40
1
 10
183.717847
 20
153.216161
 30
0.0
 10
183.945567
 20
151.301408
 30
0.0
 10
184.184665
 20
150.114341
 30
0.0
 10
184.255833
 20
150.579147
 30
0.0
  0
SPLINE
  5
295
100
AcDbEntity
  8
0
 62
7
100
AcDbSpline
 70
8
 71
3
 72
8
 73
4
 74
0
 40
0
 40
0
 40
0
 40
0
 40
1
 40
1
 40
1
 40
1
 10
184.255833
 20
150.579147
 30
0.0
 10
184.326998
 20
151.043950
 30
0.0
 10
184.203859
 20
152.987208
 30
0.0
 10
183.982431
 20
154.891856
 30
0.0
  0
SPLINE
  5
296
100
AcDbEntity
  8
0
 62
7
100
AcDbSpline
 70
8
 71
3
 72
8
 73
4
 74
0
 40
0
 40
0
 40
0
 40
0
 40
1
 40
1
 40
1
 40
1
 10
183.982431
 20
154.891856
 30
0.0
 10
183.566328
 20
158.471015
 30
0.0
 10
183.781519
 20
159.825888
 30
0.0
 10
185.173056
 20
162.582411
 30
0.0
  0
SPLINE
  5
297
100
AcDbEntity
  8
0
 62
7
100
AcDbSpline
 70
8
 71
3
 72
8
 73
4
 74
0
 40
0
 40
0
 40
0
 40
0
 40
1
 40
1
 40
1
 40
1
 10
185.173056
 20
162.582411
 30
0.0
 10
185.675724
 20
163.578153
 30
0.0
 10
186.684581
 20
165.792012
 30
0.0
 10
187.765972
 20
168.253314
 30
0.0
  0
SPLINE
  5
298
100
AcDbEntity
  8
0
 62
7
100
AcDbSpline
 70
8
 71
3
 72
8
 73
4
 74
0
 40
0
 40
0
 40
0
 40
0
 40
1
 40
1
 40
1
 40
1
 10
187.765972
 20
168.253314
 30
0.0
 10
188.149586
 20
169.126439
 30
0.0
 10
188.847304
 20
171.074608
 30
0.0
 10
189.309375
 20
172.574842
 30
0.0
  0
SPLINE
  5
299
100
AcDbEntity
  8
0
 62
7
100
AcDbSpline
 70
8
 71
3
 72
8
 73
4
 74
0
 40
0
 40
0
 40
0
 40
0
 40
1
 40
1
 40
1
 40
1
 10
189.309375
 20
172.574842
 30
0.0
 10
189.771446
 20
174.075073
 30
0.0
 10
190.290382
 20
175.305342
 30
0.0
 10
190.464722
 20
175.308870
 30
0.0
  0
SPLINE
  5
29a
100
AcDbEntity
  8
0
 62
7
100
AcDbSpline
 70
8
 71
3
 72
8
 73
4
 74
0
 40
0
 40
0
 40
0
 40
0
 40
1
 40
1
 40
1
 40
1
 10
190.464722
 20
175.308870
 30
0.0
 10
190.764360
 20
175.314853
 30
0.0
 10
190.587156
 20
171.242268
 30
0.0
 10
190.147222
 20
168.076925
 30
0.0
  0
SPLINE
  5
29b
100
AcDbEntity
  8
0
 62
7
100
AcDbSpline
 70
8
 71
3
 72
8
 73
4
 74
0
 40
0
 40
0
 40
0
 40
0
 40
1
 40
1
 40
1
 40
1
 10
190.147222
 20
168.076925
 30
0.0
 10
189.984908
 20
166.909056
 30
0.0
 10
190.070689
 20
167.030679
 30
0.0
 10
190.641111
 20
168.782481
 30
0.0
  0
SPLINE
  5
29c
100
AcDbEntity
  8
0
 62
7
100
AcDbSpline
 70
8
 71
3
 72
8
 73
4
 74
0
 40
0
 40
0
 40
0
 40
0
 40
1
 40
1
 40
1
 40
1
 10
190.641111
 20
168.782481
 30
0.0
 10
191.713175
 20
172.074880
 30
0.0
 10
192.793056
 20
177.163324
 30
0.0
 10
192.793056
 20
178.898383
 30
0.0
  0
SPLINE
  5
29d
100
AcDbEntity
  8
0
 62
7
100
AcDbSpline
 70
8
 71
3
 72
8
 73
4
 74
0
 40
0
 40
0
 40
0
 40
0
 40
1
 40
1
 40
1
 40
1
 10
192.793056
 20
178.898383
 30
0.0
 10
192.793056
 20
180.345983
 30
0.0
 10
192.098086
 20
185.959039
 30
0.0
 10
191.443681
 20
189.772758
 30
0.0
  0
SPLINE
  5
29e
100
AcDbEntity
  8
0
 62
7
100
AcDbSpline
 70
8
 71
3
 72
8
 73
4
 74
0
 40
0
 40
0
 40
0
 40
0
 40
1
 40
1
 40
1
 40
1
 10
191.443681
 20
189.772758
 30
0.0
 10
191.293713
 20
190.646713
 30
0.0
 10
190.899590
 20
191.908952
 30
0.0
 10
190.570556
 20
192.568522
 30
0.0
  0
SPLINE
  5
29f
100
AcDbEntity
  8
0
 62
7
100
AcDbSpline
 70
8
 71
3
 72
8
 73
4
 74
0
 40
0
 40
0
 40
0
 40
0
 40
1
 40
1
 40
1
 40
1
 10
190.570556
 20
192.568522
 30
0.0
 10
190.241515
 20
193.228093
 30
0.0
 10
189.970833
 20
193.941590
 30
0.0
 10
189.970833
 20
194.156022
 30
0.0
  0
SPLINE
  5
2a0
100
AcDbEntity
  8
0
 62
7
100
AcDbSpline
 70
8
 71
3
 72
8
 73
4
 74
0
 40
0
 40
0
 40
0
 40
0
 40
1
 40
1
 40
1
 40
1
 10
189.970833
 20
194.156022
 30
0.0
 10
189.970833
 20
194.683247
 30
0.0
 10
186.867701
 20
200.742558
 30
0.0
 10
186.240208
 20
201.440883
 30
0.0
  0
SPLINE
  5
2a1
100
AcDbEntity
  8
0
 62
7
100
AcDbSpline
 70
8
 71
3
 72
8
 73
4
 74
0
 40
0
 40
0
 40
0
 40
0
 40
1
 40
1
 40
1
 40
1
 10
186.240208
 20
201.440883
 30
0.0
 10
185.964960
 20
201.747202
 30
0.0
 10
185.737500
 20
202.106606
 30
0.0
 10
185.737500
 20
202.234633
 30
0.0
  0
SPLINE
  5
2a2
100
AcDbEntity
  8
0
 62
7
100
AcDbSpline
 70
8
 71
3
 72
8
 73
4
 74
0
 40
0
 40
0
 40
0
 40
0
 40
1
 40
1
 40
1
 40
1
 10
185.737500
 20
202.234633
 30
0.0
 10
185.737500
 20
202.472482
 30
0.0
 10
185.274396
 20
203.080820
 30
0.0
 10
183.497361
 20
205.171508
 30
0.0
  0
SPLINE
  5
2a3
100
AcDbEntity
  8
0
 62
7
100
AcDbSpline
 70
8
 71
3
 72
8
 73
4
 74
0
 40
0
 40
0
 40
0
 40
0
 40
1
 40
1
 40
1
 40
1
 10
183.497361
 20
205.171508
 30
0.0
 10
182.484615
 20
206.363008
 30
0.0
 10
182.553449
 20
206.815001
 30
0.0
 10
183.594375
 20
205.815328
 30
0.0
  0
SPLINE
  5
2a4
100
AcDbEntity
  8
0
 62
7
100
AcDbSpline
 70
8
 71
3
 72
8
 73
4
 74
0
 40
0
 40
0
 40
0
 40
0
 40
1
 40
1
 40
1
 40
1
 10
183.594375
 20
205.815328
 30
0.0
 10
187.248837
 20
202.305694
 30
0.0
 10
189.262456
 20
200.260579
 30
0.0
 10
189.265278
 20
200.065050
 30
0.0
  0
SPLINE
  5
2a5
100
AcDbEntity
  8
0
 62
7
100
AcDbSpline
 70
8
 71
3
 72
8
 73
4
 74
0
 40
0
 40
0
 40
0
 40
0
 40
1
 40
1
 40
1
 40
1
 10
189.265278
 20
200.065050
 30
0.0
 10
189.267183
 20
199.934155
 30
0.0
 10
189.904088
 20
199.271300
 30
0.0
 10
190.676389
 20
198.592203
 30
0.0
  0
SPLINE
  5
2a6
100
AcDbEntity
  8
0
 62
7
100
AcDbSpline
 70
8
 71
3
 72
8
 73
4
 74
0
 40
0
 40
0
 40
0
 40
0
 40
1
 40
1
 40
1
 40
1
 10
190.676389
 20
198.592203
 30
0.0
 10
191.448690
 20
197.913106
 30
0.0
 10
192.085524
 20
197.258130
 30
0.0
 10
192.087500
 20
197.136995
 30
0.0
  0
SPLINE
  5
2a7
100
AcDbEntity
  8
0
 62
7
100
AcDbSpline
 70
8
 71
3
 72
8
 73
4
 74
0
 40
0
 40
0
 40
0
 40
0
 40
1
 40
1
 40
1
 40
1
 10
192.087500
 20
197.136995
 30
0.0
 10
192.089405
 20
197.015862
 30
0.0
 10
192.643125
 20
196.308534
 30
0.0
 10
193.322222
 20
195.567133
 30
0.0
  0
SPLINE
  5
2a8
100
AcDbEntity
  8
0
 62
7
100
AcDbSpline
 70
8
 71
3
 72
8
 73
4
 74
0
 40
0
 40
0
 40
0
 40
0
 40
1
 40
1
 40
1
 40
1
 10
193.322222
 20
195.567133
 30
0.0
 10
195.329584
 20
193.375602
 30
0.0
 10
194.726986
 20
194.819874
 30
0.0
 10
192.546111
 20
197.428036
 30
0.0
  0
SPLINE
  5
2a9
100
AcDbEntity
  8
0
 62
7
100
AcDbSpline
 70
8
 71
3
 72
8
 73
4
 74
0
 40
0
 40
0
 40
0
 40
0
 40
1
 40
1
 40
1
 40
1
 10
192.546111
 20
197.428036
 30
0.0
 10
190.022539
 20
200.446045
 30
0.0
 10
182.255674
 20
208.196239
 30
0.0
 10
179.916667
 20
210.031022
 30
0.0
  0
SPLINE
  5
2aa
100
AcDbEntity
  8
0
 62
7
100
AcDbSpline
 70
8
 71
3
 72
8
 73
4
 74
0
 40
0
 40
0
 40
0
 40
0
 40
1
 40
1
 40
1
 40
1
 10
179.916667
 20
210.031022
 30
0.0
 10
178.946528
 20
210.792023
 30
0.0
 10
177.906488
 20
211.665840
 30
0.0
 10
177.605972
 20
211.971300
 30
0.0
  0
SPLINE
  5
2ab
100
AcDbEntity
  8
0
 62
7
100
AcDbSpline
 70
8
 71
3
 72
8
 73
4
 74
0
 40
0
 40
0
 40
0
 40
0
 40
1
 40
1
 40
1
 40
1
 10
177.605972
 20
211.971300
 30
0.0
 10
177.305454
 20
212.276763
 30
0.0
 10
176.813354
 20
212.685675
 30
0.0
 10
176.512361
 20
212.879703
 30
0.0
  0
SPLINE
  5
2ac
100
AcDbEntity
  8
0
 62
7
100
AcDbSpline
 70
8
 71
3
 72
8
 73
4
 74
0
 40
0
 40
0
 40
0
 40
0
 40
1
 40
1
 40
1
 40
1
 10
176.512361
 20
212.879703
 30
0.0
 10
175.406202
 20
213.592763
 30
0.0
 10
171.792121
 20
216.068865
 30
0.0
 10
171.450000
 20
216.345745
 30
0.0
  0
SPLINE
  5
2ad
100
AcDbEntity
  8
0
 62
7
100
AcDbSpline
 70
8
 71
3
 72
8
 73
4
 74
0
 40
0
 40
0
 40
0
 40
0
 40
1
 40
1
 40
1
 40
1
 10
171.450000
 20
216.345745
 30
0.0
 10
171.255972
 20
216.502767
 30
0.0
 10
170.567892
 20
216.946517
 30
0.0
 10
169.915417
 20
217.333522
 30
0.0
  0
SPLINE
  5
2ae
100
AcDbEntity
  8
0
 62
7
100
AcDbSpline
 70
8
 71
3
 72
8
 73
4
 74
0
 40
0
 40
0
 40
0
 40
0
 40
1
 40
1
 40
1
 40
1
 10
169.915417
 20
217.333522
 30
0.0
 10
168.479086
 20
218.185467
 30
0.0
 10
168.594699
 20
218.439706
 30
0.0
 10
170.232917
 20
218.012620
 30
0.0
  0
SPLINE
  5
2af
100
AcDbEntity
  8
0
 62
7
100
AcDbSpline
 70
8
 71
3
 72
8
 73
4
 74
0
 40
0
 40
0
 40
0
 40
0
 40
1
 40
1
 40
1
 40
1
 10
170.232917
 20
218.012620
 30
0.0
 10
172.260353
 20
217.484063
 30
0.0
 10
176.027636
 20
216.936647
 30
0.0
 10
177.667708
 20
216.936647
 30
0.0
  0
SPLINE
  5
2b0
100
AcDbEntity
  8
0
 62
7
100
AcDbSpline
 70
8
 71
3
 72
8
 73
4
 74
0
 40
0
 40
0
 40
0
 40
0
 40
1
 40
1
 40
1
 40
1
 10
177.667708
 20
216.936647
 30
0.0
 10
179.254997
 20
216.936647
 30
0.0
 10
183.888925
 20
217.795644
 30
0.0
 10
184.247014
 20
218.153731
 30
0.0
  0
SPLINE
  5
2b1
100
AcDbEntity
  8
0
 62
7
100
AcDbSpline
 70
8
 71
3
 72
8
 73
4
 74
0
 40
0
 40
0
 40
0
 40
0
 40
1
 40
1
 40
1
 40
1
 10
184.247014
 20
218.153731
 30
0.0
 10
184.567305
 20
218.474025
 30
0.0
 10
183.292298
 20
218.380905
 30
0.0
 10
181.124931
 20
217.933245
 30
0.0
  0
SPLINE
  5
2b2
100
AcDbEntity
  8
0
 62
7
100
AcDbSpline
 70
8
 71
3
 72
8
 73
4
 74
0
 40
0
 40
0
 40
0
 40
0
 40
1
 40
1
 40
1
 40
1
 10
181.124931
 20
217.933245
 30
0.0
 10
177.054146
 20
217.092437
 30
0.0
 10
170.726890
 20
218.376788
 30
0.0
 10
161.563403
 20
221.901995
 30
0.0
  0
SPLINE
  5
2b3
100
AcDbEntity
  8
0
 62
7
100
AcDbSpline
 70
8
 71
3
 72
8
 73
4
 74
0
 40
0
 40
0
 40
0
 40
0
 40
1
 40
1
 40
1
 40
1
 10
161.563403
 20
221.901995
 30
0.0
 10
160.589513
 20
222.276650
 30
0.0
 10
159.637013
 20
222.592127
 30
0.0
 10
159.446736
 20
222.598731
 30
0.0
  0
SPLINE
  5
2b4
100
AcDbEntity
  8
0
 62
7
100
AcDbSpline
 70
8
 71
3
 72
8
 73
4
 74
0
 40
0
 40
0
 40
0
 40
0
 40
1
 40
1
 40
1
 40
1
 10
159.446736
 20
222.598731
 30
0.0
 10
159.256456
 20
222.605315
 30
0.0
 10
158.467778
 20
222.911757
 30
0.0
 10
157.691667
 20
223.286647
 30
0.0
  0
SPLINE
  5
2b5
100
AcDbEntity
  8
0
 62
7
100
AcDbSpline
 70
8
 71
3
 72
8
 73
4
 74
0
 40
0
 40
0
 40
0
 40
0
 40
1
 40
1
 40
1
 40
1
 10
157.691667
 20
223.286647
 30
0.0
 10
156.915556
 20
223.661537
 30
0.0
 10
156.121806
 20
223.977344
 30
0.0
 10
155.927778
 20
223.983383
 30
0.0
  0
SPLINE
  5
2b6
100
AcDbEntity
  8
0
 62
7
100
AcDbSpline
 70
8
 71
3
 72
8
 73
4
 74
0
 40
0
 40
0
 40
0
 40
0
 40
1
 40
1
 40
1
 40
1
 10
155.927778
 20
223.983383
 30
0.0
 10
155.733750
 20
223.989432
 30
0.0
 10
154.940000
 20
224.299749
 30
0.0
 10
154.163889
 20
224.680120
 30
0.0
  0
SPLINE
  5
2b7
100
AcDbEntity
  8
0
 62
7
100
AcDbSpline
 70
8
 71
3
 72
8
 73
4
 74
0
 40
0
 40
0
 40
0
 40
0
 40
1
 40
1
 40
1
 40
1
 10
154.163889
 20
224.680120
 30
0.0
 10
153.387778
 20
225.060485
 30
0.0
 10
151.165278
 20
226.108788
 30
0.0
 10
149.225000
 20
226.999633
 30
0.0
  0
SPLINE
  5
2b8
100
AcDbEntity
  8
0
 62
7
100
AcDbSpline
 70
8
 71
3
 72
8
 73
4
 74
0
 40
0
 40
0
 40
0
 40
0
 40
1
 40
1
 40
1
 40
1
 10
149.225000
 20
226.999633
 30
0.0
 10
147.284722
 20
227.890476
 30
0.0
 10
145.459097
 20
228.758902
 30
0.0
 10
145.168056
 20
228.931092
 30
0.0
  0
SPLINE
  5
2b9
100
AcDbEntity
  8
0
 62
7
100
AcDbSpline
 70
8
 71
3
 72
8
 73
4
 74
0
 40
0
 40
0
 40
0
 40
0
 40
1
 40
1
 40
1
 40
1
 10
145.168056
 20
228.931092
 30
0.0
 10
144.877014
 20
229.103281
 30
0.0
 10
143.765764
 20
229.678498
 30
0.0
 10
142.698611
 20
230.209911
 30
0.0
  0
SPLINE
  5
2ba
100
AcDbEntity
  8
0
 62
7
100
AcDbSpline
 70
8
 71
3
 72
8
 73
4
 74
0
 40
0
 40
0
 40
0
 40
0
 40
1
 40
1
 40
1
 40
1
 10
142.698611
 20
230.209911
 30
0.0
 10
140.792073
 20
231.159315
 30
0.0
 10
138.329983
 20
232.644879
 30
0.0
 10
137.521597
 20
233.340814
 30
0.0
  0
SPLINE
  5
2bb
100
AcDbEntity
  8
0
 62
7
100
AcDbSpline
 70
8
 71
3
 72
8
 73
4
 74
0
 40
0
 40
0
 40
0
 40
0
 40
1
 40
1
 40
1
 40
1
 10
137.521597
 20
233.340814
 30
0.0
 10
137.295819
 20
233.535183
 30
0.0
 10
136.581444
 20
234.086519
 30
0.0
 10
135.934097
 20
234.566717
 30
0.0
  0
SPLINE
  5
2bc
100
AcDbEntity
  8
0
 62
7
100
AcDbSpline
 70
8
 71
3
 72
8
 73
4
 74
0
 40
0
 40
0
 40
0
 40
0
 40
1
 40
1
 40
1
 40
1
 10
135.934097
 20
234.566717
 30
0.0
 10
135.286750
 20
235.046915
 30
0.0
 10
133.584891
 20
236.571330
 30
0.0
 10
132.150556
 20
237.953383
 30
0.0
  0
LWPOLYLINE
  5
2bd
100
AcDbEntity
  8
0
 62
7
100
AcDbPolyline
 90
3
 70
0
 10
132.035903
 20
190.751717
 30
0.0
 10
131.894792
 20
191.986439
 30
0.0
 10
132.970764
 20
190.610606
 30
0.0
  0
SPLINE
  5
2be
100
AcDbEntity
  8
0
 62
7
100
AcDbSpline
 70
8
 71
3
 72
8
 73
4
 74
0
 40
0
 40
0
 40
0
 40
0
 40
1
 40
1
 40
1
 40
1
 10
130.280833
 20
241.489981
 30
0.0
 10
131.206875
 20
242.779886
 30
0.0
 10
131.255276
 20
243.108991
 30
0.0
 10
130.915833
 20
245.661578
 30
0.0
  0
SPLINE
  5
2bf
100
AcDbEntity
  8
0
 62
7
100
AcDbSpline
 70
8
 71
3
 72
8
 73
4
 74
0
 40
0
 40
0
 40
0
 40
0
 40
1
 40
1
 40
1
 40
1
 10
130.915833
 20
245.661578
 30
0.0
 10
130.682450
 20
247.416619
 30
0.0
 10
129.558240
 20
249.883470
 30
0.0
 10
128.578681
 20
250.803314
 30
0.0
  0
SPLINE
  5
2c0
100
AcDbEntity
  8
0
 62
7
100
AcDbSpline
 70
8
 71
3
 72
8
 73
4
 74
0
 40
0
 40
0
 40
0
 40
0
 40
1
 40
1
 40
1
 40
1
 10
128.578681
 20
250.803314
 30
0.0
 10
128.475370
 20
250.900328
 30
0.0
 10
128.102600
 20
251.455953
 30
0.0
 10
127.740833
 20
252.038036
 30
0.0
  0
SPLINE
  5
2c1
100
AcDbEntity
  8
0
 62
7
100
AcDbSpline
 70
8
 71
3
 72
8
 73
4
 74
0
 40
0
 40
0
 40
0
 40
0
 40
1
 40
1
 40
1
 40
1
 10
127.740833
 20
252.038036
 30
0.0
 10
126.426714
 20
254.152473
 30
0.0
 10
124.551700
 20
256.447758
 30
0.0
 10
124.142500
 20
256.447758
 30
0.0
  0
SPLINE
  5
2c2
100
AcDbEntity
  8
0
 62
7
100
AcDbSpline
 70
8
 71
3
 72
8
 73
4
 74
0
 40
0
 40
0
 40
0
 40
0
 40
1
 40
1
 40
1
 40
1
 10
124.142500
 20
256.447758
 30
0.0
 10
123.912088
 20
256.447758
 30
0.0
 10
123.641699
 20
256.646197
 30
0.0
 10
123.542778
 20
256.888731
 30
0.0
  0
SPLINE
  5
2c3
100
AcDbEntity
  8
0
 62
7
100
AcDbSpline
 70
8
 71
3
 72
8
 73
4
 74
0
 40
0
 40
0
 40
0
 40
0
 40
1
 40
1
 40
1
 40
1
 10
123.542778
 20
256.888731
 30
0.0
 10
123.184350
 20
257.767528
 30
0.0
 10
117.564778
 20
260.221905
 30
0.0
 10
113.594444
 20
261.227897
 30
0.0
  0
SPLINE
  5
2c4
100
AcDbEntity
  8
0
 62
7
100
AcDbSpline
 70
8
 71
3
 72
8
 73
4
 74
0
 40
0
 40
0
 40
0
 40
0
 40
1
 40
1
 40
1
 40
1
 10
113.594444
 20
261.227897
 30
0.0
 10
109.572673
 20
262.246922
 30
0.0
 10
106.213077
 20
262.749178
 30
0.0
 10
103.866597
 20
262.700745
 30
0.0
  0
LWPOLYLINE
  5
2c5
100
AcDbEntity
  8
0
 62
7
100
AcDbPolyline
 90
3
 70
0
 10
132.150556
 20
237.953383
 30
0.0
 10
129.548819
 20
240.466925
 30
0.0
 10
130.280833
 20
241.489981
 30
0.0
  0
SPLINE
  5
2c6
100
AcDbEntity
  8
0
 62
7
100
AcDbSpline
 70
8
 71
3
 72
8
 73
4
 74
0
 40
0
 40
0
 40
0
 40
0
 40
1
 40
1
 40
1
 40
1
 10
90.575694
 20
232.097272
 30
0.0
 10
90.736169
 20
232.098483
 30
0.0
 10
90.938373
 20
231.804441
 30
0.0
 10
91.157778
 20
231.197689
 30
0.0
  0
SPLINE
  5
2c7
100
AcDbEntity
  8
0
 62
7
100
AcDbSpline
 70
8
 71
3
 72
8
 73
4
 74
0
 40
0
 40
0
 40
0
 40
0
 40
1
 40
1
 40
1
 40
1
 10
91.157778
 20
231.197689
 30
0.0
 10
91.517888
 20
230.201834
 30
0.0
 10
91.523123
 20
229.722779
 30
0.0
 10
91.184236
 20
228.904633
 30
0.0
  0
SPLINE
  5
2c8
100
AcDbEntity
  8
0
 62
7
100
AcDbSpline
 70
8
 71
3
 72
8
 73
4
 74
0
 40
0
 40
0
 40
0
 40
0
 40
1
 40
1
 40
1
 40
1
 10
91.184236
 20
228.904633
 30
0.0
 10
90.537919
 20
227.344292
 30
0.0
 10
90.137502
 20
227.661072
 30
0.0
 10
90.143542
 20
229.724842
 30
0.0
  0
SPLINE
  5
2c9
100
AcDbEntity
  8
0
 62
7
100
AcDbSpline
 70
8
 71
3
 72
8
 73
4
 74
0
 40
0
 40
0
 40
0
 40
0
 40
1
 40
1
 40
1
 40
1
 10
90.143542
 20
229.724842
 30
0.0
 10
90.148054
 20
231.271973
 30
0.0
 10
90.308235
 20
232.095254
 30
0.0
 10
90.575694
 20
232.097272
 30
0.0
  0
LWPOLYLINE
  5
2ca
100
AcDbEntity
  8
0
 62
7
100
AcDbPolyline
 90
2
 70
0
 10
103.866597
 20
262.700745
 30
0.0
 10
103.866597
 20
262.700745
 30
0.0
  0
SPLINE
  5
2cb
100
AcDbEntity
  8
0
 62
7
100
AcDbSpline
 70
8
 71
3
 72
8
 73
4
 74
0
 40
0
 40
0
 40
0
 40
0
 40
1
 40
1
 40
1
 40
1
 10
91.589931
 20
225.050536
 30
0.0
 10
91.760418
 20
225.050536
 30
0.0
 10
91.886885
 20
224.613975
 30
0.0
 10
91.872153
 20
224.080397
 30
0.0
  0
SPLINE
  5
2cc
100
AcDbEntity
  8
0
 62
7
100
AcDbSpline
 70
8
 71
3
 72
8
 73
4
 74
0
 40
0
 40
0
 40
0
 40
0
 40
1
 40
1
 40
1
 40
1
 10
91.872153
 20
224.080397
 30
0.0
 10
91.857393
 20
223.546822
 30
0.0
 10
91.643626
 20
222.554633
 30
0.0
 10
91.395903
 20
221.875536
 30
0.0
  0
LWPOLYLINE
  5
2cd
100
AcDbEntity
  8
0
 62
7
100
AcDbPolyline
 90
2
 70
0
 10
90.575694
 20
232.097272
 30
0.0
 10
90.575694
 20
232.097272
 30
0.0
  0
SPLINE
  5
2ce
100
AcDbEntity
  8
0
 62
7
100
AcDbSpline
 70
8
 71
3
 72
8
 73
4
 74
0
 40
0
 40
0
 40
0
 40
0
 40
1
 40
1
 40
1
 40
1
 10
90.681528
 20
221.813800
 30
0.0
 10
90.415034
 20
223.006166
 30
0.0
 10
90.990019
 20
225.050536
 30
0.0
 10
91.589931
 20
225.050536
 30
0.0
  0
LWPOLYLINE
  5
2cf
100
AcDbEntity
  8
0
 62
7
100
AcDbPolyline
 90
3
 70
0
 10
91.395903
 20
221.875536
 30
0.0
 10
90.946111
 20
220.640814
 30
0.0
 10
90.681528
 20
221.813800
 30
0.0
  0
SPLINE
  5
2d0
100
AcDbEntity
  8
0
 62
7
100
AcDbSpline
 70
8
 71
3
 72
8
 73
4
 74
0
 40
0
 40
0
 40
0
 40
0
 40
1
 40
1
 40
1
 40
1
 10
88.767708
 20
223.295467
 30
0.0
 10
88.952911
 20
223.304715
 30
0.0
 10
89.079598
 20
223.160666
 30
0.0
 10
89.085208
 20
222.845675
 30
0.0
  0
SPLINE
  5
2d1
100
AcDbEntity
  8
0
 62
7
100
AcDbSpline
 70
8
 71
3
 72
8
 73
4
 74
0
 40
0
 40
0
 40
0
 40
0
 40
1
 40
1
 40
1
 40
1
 10
89.085208
 20
222.845675
 30
0.0
 10
89.089524
 20
222.603142
 30
0.0
 10
89.402516
 20
222.007828
 30
0.0
 10
89.781944
 20
221.522758
 30
0.0
  0
SPLINE
  5
2d2
100
AcDbEntity
  8
0
 62
7
100
AcDbSpline
 70
8
 71
3
 72
8
 73
4
 74
0
 40
0
 40
0
 40
0
 40
0
 40
1
 40
1
 40
1
 40
1
 10
89.781944
 20
221.522758
 30
0.0
 10
90.161370
 20
221.037689
 30
0.0
 10
90.474391
 20
220.124878
 30
0.0
 10
90.478681
 20
219.494286
 30
0.0
  0
SPLINE
  5
2d3
100
AcDbEntity
  8
0
 62
7
100
AcDbSpline
 70
8
 71
3
 72
8
 73
4
 74
0
 40
0
 40
0
 40
0
 40
0
 40
1
 40
1
 40
1
 40
1
 10
90.478681
 20
219.494286
 30
0.0
 10
90.486145
 20
218.403393
 30
0.0
 10
90.423309
 20
218.348887
 30
0.0
 10
89.164583
 20
218.347758
 30
0.0
  0
SPLINE
  5
2d4
100
AcDbEntity
  8
0
 62
7
100
AcDbSpline
 70
8
 71
3
 72
8
 73
4
 74
0
 40
0
 40
0
 40
0
 40
0
 40
1
 40
1
 40
1
 40
1
 10
89.164583
 20
218.347758
 30
0.0
 10
88.356781
 20
218.347095
 30
0.0
 10
86.885410
 20
217.866318
 30
0.0
 10
85.389861
 20
217.113036
 30
0.0
  0
SPLINE
  5
2d5
100
AcDbEntity
  8
0
 62
7
100
AcDbSpline
 70
8
 71
3
 72
8
 73
4
 74
0
 40
0
 40
0
 40
0
 40
0
 40
1
 40
1
 40
1
 40
1
 10
85.389861
 20
217.113036
 30
0.0
 10
84.042795
 20
216.434535
 30
0.0
 10
82.812481
 20
215.878314
 30
0.0
 10
82.655833
 20
215.878314
 30
0.0
  0
SPLINE
  5
2d6
100
AcDbEntity
  8
0
 62
7
100
AcDbSpline
 70
8
 71
3
 72
8
 73
4
 74
0
 40
0
 40
0
 40
0
 40
0
 40
1
 40
1
 40
1
 40
1
 10
82.655833
 20
215.878314
 30
0.0
 10
82.499189
 20
215.878314
 30
0.0
 10
82.373611
 20
216.260948
 30
0.0
 10
82.373611
 20
216.724981
 30
0.0
  0
SPLINE
  5
2d7
100
AcDbEntity
  8
0
 62
7
100
AcDbSpline
 70
8
 71
3
 72
8
 73
4
 74
0
 40
0
 40
0
 40
0
 40
0
 40
1
 40
1
 40
1
 40
1
 10
82.373611
 20
216.724981
 30
0.0
 10
82.373611
 20
217.316355
 30
0.0
 10
82.621546
 20
217.628651
 30
0.0
 10
83.202639
 20
217.774495
 30
0.0
  0
SPLINE
  5
2d8
100
AcDbEntity
  8
0
 62
7
100
AcDbSpline
 70
8
 71
3
 72
8
 73
4
 74
0
 40
0
 40
0
 40
0
 40
0
 40
1
 40
1
 40
1
 40
1
 10
83.202639
 20
217.774495
 30
0.0
 10
83.747895
 20
217.911344
 30
0.0
 10
84.146125
 20
218.367517
 30
0.0
 10
84.357986
 20
219.106231
 30
0.0
  0
SPLINE
  5
2d9
100
AcDbEntity
  8
0
 62
7
100
AcDbSpline
 70
8
 71
3
 72
8
 73
4
 74
0
 40
0
 40
0
 40
0
 40
0
 40
1
 40
1
 40
1
 40
1
 10
84.357986
 20
219.106231
 30
0.0
 10
84.598555
 20
219.945049
 30
0.0
 10
84.979572
 20
220.336381
 30
0.0
 10
85.883750
 20
220.640814
 30
0.0
  0
SPLINE
  5
2da
100
AcDbEntity
  8
0
 62
7
100
AcDbSpline
 70
8
 71
3
 72
8
 73
4
 74
0
 40
0
 40
0
 40
0
 40
0
 40
1
 40
1
 40
1
 40
1
 10
85.883750
 20
220.640814
 30
0.0
 10
86.667396
 20
220.904666
 30
0.0
 10
87.292558
 20
221.436966
 30
0.0
 10
87.647639
 20
222.157758
 30
0.0
  0
SPLINE
  5
2db
100
AcDbEntity
  8
0
 62
7
100
AcDbSpline
 70
8
 71
3
 72
8
 73
4
 74
0
 40
0
 40
0
 40
0
 40
0
 40
1
 40
1
 40
1
 40
1
 10
87.647639
 20
222.157758
 30
0.0
 10
87.988967
 20
222.850625
 30
0.0
 10
88.459039
 20
223.280052
 30
0.0
 10
88.767708
 20
223.295467
 30
0.0
  0
LWPOLYLINE
  5
2dc
100
AcDbEntity
  8
0
 62
7
100
AcDbPolyline
 90
2
 70
0
 10
91.589931
 20
225.050536
 30
0.0
 10
91.589931
 20
225.050536
 30
0.0
  0
SPLINE
  5
2dd
100
AcDbEntity
  8
0
 62
7
100
AcDbSpline
 70
8
 71
3
 72
8
 73
4
 74
0
 40
0
 40
0
 40
0
 40
0
 40
1
 40
1
 40
1
 40
1
 10
92.136736
 20
221.311092
 30
0.0
 10
92.191854
 20
221.324986
 30
0.0
 10
92.170199
 20
221.062067
 30
0.0
 10
92.083819
 20
220.508522
 30
0.0
  0
SPLINE
  5
2de
100
AcDbEntity
  8
0
 62
7
100
AcDbSpline
 70
8
 71
3
 72
8
 73
4
 74
0
 40
0
 40
0
 40
0
 40
0
 40
1
 40
1
 40
1
 40
1
 10
92.083819
 20
220.508522
 30
0.0
 10
91.981630
 20
219.853679
 30
0.0
 10
91.898611
 20
219.020240
 30
0.0
 10
91.898611
 20
218.656439
 30
0.0
  0
SPLINE
  5
2df
100
AcDbEntity
  8
0
 62
7
100
AcDbSpline
 70
8
 71
3
 72
8
 73
4
 74
0
 40
0
 40
0
 40
0
 40
0
 40
1
 40
1
 40
1
 40
1
 10
91.898611
 20
218.656439
 30
0.0
 10
91.898611
 20
218.292638
 30
0.0
 10
91.728823
 20
217.994981
 30
0.0
 10
91.519375
 20
217.994981
 30
0.0
  0
SPLINE
  5
2e0
100
AcDbEntity
  8
0
 62
7
100
AcDbSpline
 70
8
 71
3
 72
8
 73
4
 74
0
 40
0
 40
0
 40
0
 40
0
 40
1
 40
1
 40
1
 40
1
 10
91.519375
 20
217.994981
 30
0.0
 10
91.119305
 20
217.994981
 30
0.0
 10
91.359527
 20
219.673562
 30
0.0
 10
91.951528
 20
220.993592
 30
0.0
  0
SPLINE
  5
2e1
100
AcDbEntity
  8
0
 62
7
100
AcDbSpline
 70
8
 71
3
 72
8
 73
4
 74
0
 40
0
 40
0
 40
0
 40
0
 40
1
 40
1
 40
1
 40
1
 10
91.951528
 20
220.993592
 30
0.0
 10
92.039796
 20
221.190408
 30
0.0
 10
92.103665
 20
221.302755
 30
0.0
 10
92.136736
 20
221.311092
 30
0.0
  0
LWPOLYLINE
  5
2e2
100
AcDbEntity
  8
0
 62
7
100
AcDbPolyline
 90
2
 70
0
 10
88.767708
 20
223.295467
 30
0.0
 10
88.767708
 20
223.295467
 30
0.0
  0
SPLINE
  5
2e3
100
AcDbEntity
  8
0
 62
7
100
AcDbSpline
 70
8
 71
3
 72
8
 73
4
 74
0
 40
0
 40
0
 40
0
 40
0
 40
1
 40
1
 40
1
 40
1
 10
132.988403
 20
214.740606
 30
0.0
 10
133.183548
 20
214.768156
 30
0.0
 10
133.959741
 20
214.154755
 30
0.0
 10
134.787569
 20
213.303036
 30
0.0
  0
SPLINE
  5
2e4
100
AcDbEntity
  8
0
 62
7
100
AcDbSpline
 70
8
 71
3
 72
8
 73
4
 74
0
 40
0
 40
0
 40
0
 40
0
 40
1
 40
1
 40
1
 40
1
 10
134.787569
 20
213.303036
 30
0.0
 10
135.670586
 20
212.394538
 30
0.0
 10
136.505222
 20
211.644981
 30
0.0
 10
136.639653
 20
211.644981
 30
0.0
  0
SPLINE
  5
2e5
100
AcDbEntity
  8
0
 62
7
100
AcDbSpline
 70
8
 71
3
 72
8
 73
4
 74
0
 40
0
 40
0
 40
0
 40
0
 40
1
 40
1
 40
1
 40
1
 10
136.639653
 20
211.644981
 30
0.0
 10
136.774078
 20
211.644981
 30
0.0
 10
137.085225
 20
211.327481
 30
0.0
 10
137.327569
 20
210.939425
 30
0.0
  0
SPLINE
  5
2e6
100
AcDbEntity
  8
0
 62
7
100
AcDbSpline
 70
8
 71
3
 72
8
 73
4
 74
0
 40
0
 40
0
 40
0
 40
0
 40
1
 40
1
 40
1
 40
1
 10
137.327569
 20
210.939425
 30
0.0
 10
137.922516
 20
209.986764
 30
0.0
 10
137.858444
 20
210.026862
 30
0.0
 10
135.757708
 20
211.786092
 30
0.0
  0
SPLINE
  5
2e7
100
AcDbEntity
  8
0
 62
7
100
AcDbSpline
 70
8
 71
3
 72
8
 73
4
 74
0
 40
0
 40
0
 40
0
 40
0
 40
1
 40
1
 40
1
 40
1
 10
135.757708
 20
211.786092
 30
0.0
 10
133.265531
 20
213.873128
 30
0.0
 10
132.699334
 20
214.460359
 30
0.0
 10
132.961944
 20
214.722967
 30
0.0
  0
SPLINE
  5
2e8
100
AcDbEntity
  8
0
 62
7
100
AcDbSpline
 70
8
 71
3
 72
8
 73
4
 74
0
 40
0
 40
0
 40
0
 40
0
 40
1
 40
1
 40
1
 40
1
 10
132.961944
 20
214.722967
 30
0.0
 10
132.969641
 20
214.730663
 30
0.0
 10
132.975392
 20
214.738768
 30
0.0
 10
132.988403
 20
214.740606
 30
0.0
  0
LWPOLYLINE
  5
2e9
100
AcDbEntity
  8
0
 62
7
100
AcDbPolyline
 90
2
 70
0
 10
92.136736
 20
221.311092
 30
0.0
 10
92.136736
 20
221.311092
 30
0.0
  0
SPLINE
  5
2ea
100
AcDbEntity
  8
0
 62
7
100
AcDbSpline
 70
8
 71
3
 72
8
 73
4
 74
0
 40
0
 40
0
 40
0
 40
0
 40
1
 40
1
 40
1
 40
1
 10
143.827500
 20
210.427897
 30
0.0
 10
143.900155
 20
210.500555
 30
0.0
 10
144.788453
 20
209.934641
 30
0.0
 10
145.803056
 20
209.166717
 30
0.0
  0
SPLINE
  5
2eb
100
AcDbEntity
  8
0
 62
7
100
AcDbSpline
 70
8
 71
3
 72
8
 73
4
 74
0
 40
0
 40
0
 40
0
 40
0
 40
1
 40
1
 40
1
 40
1
 10
145.803056
 20
209.166717
 30
0.0
 10
146.817656
 20
208.398793
 30
0.0
 10
147.718836
 20
207.764425
 30
0.0
 10
147.805069
 20
207.764425
 30
0.0
  0
SPLINE
  5
2ec
100
AcDbEntity
  8
0
 62
7
100
AcDbSpline
 70
8
 71
3
 72
8
 73
4
 74
0
 40
0
 40
0
 40
0
 40
0
 40
1
 40
1
 40
1
 40
1
 10
147.805069
 20
207.764425
 30
0.0
 10
148.237911
 20
207.764425
 30
0.0
 10
155.950220
 20
200.480095
 30
0.0
 10
156.862639
 20
199.209564
 30
0.0
  0
SPLINE
  5
2ed
100
AcDbEntity
  8
0
 62
7
100
AcDbSpline
 70
8
 71
3
 72
8
 73
4
 74
0
 40
0
 40
0
 40
0
 40
0
 40
1
 40
1
 40
1
 40
1
 10
156.862639
 20
199.209564
 30
0.0
 10
157.245818
 20
198.675989
 30
0.0
 10
157.515935
 20
198.239425
 30
0.0
 10
157.453542
 20
198.239425
 30
0.0
  0
SPLINE
  5
2ee
100
AcDbEntity
  8
0
 62
7
100
AcDbSpline
 70
8
 71
3
 72
8
 73
4
 74
0
 40
0
 40
0
 40
0
 40
0
 40
1
 40
1
 40
1
 40
1
 10
157.453542
 20
198.239425
 30
0.0
 10
157.391148
 20
198.239425
 30
0.0
 10
156.226964
 20
198.779011
 30
0.0
 10
154.869444
 20
199.438870
 30
0.0
  0
SPLINE
  5
2ef
100
AcDbEntity
  8
0
 62
7
100
AcDbSpline
 70
8
 71
3
 72
8
 73
4
 74
0
 40
0
 40
0
 40
0
 40
0
 40
1
 40
1
 40
1
 40
1
 10
154.869444
 20
199.438870
 30
0.0
 10
153.431299
 20
200.137920
 30
0.0
 10
152.061469
 20
201.098009
 30
0.0
 10
151.588611
 20
201.740745
 30
0.0
  0
SPLINE
  5
2f0
100
AcDbEntity
  8
0
 62
7
100
AcDbSpline
 70
8
 71
3
 72
8
 73
4
 74
0
 40
0
 40
0
 40
0
 40
0
 40
1
 40
1
 40
1
 40
1
 10
151.588611
 20
201.740745
 30
0.0
 10
150.588543
 20
203.100093
 30
0.0
 10
148.470516
 20
205.452734
 30
0.0
 10
145.758958
 20
208.205397
 30
0.0
  0
SPLINE
  5
2f1
100
AcDbEntity
  8
0
 62
7
100
AcDbSpline
 70
8
 71
3
 72
8
 73
4
 74
0
 40
0
 40
0
 40
0
 40
0
 40
1
 40
1
 40
1
 40
1
 10
145.758958
 20
208.205397
 30
0.0
 10
144.627126
 20
209.354383
 30
0.0
 10
143.754842
 20
210.355245
 30
0.0
 10
143.827500
 20
210.427897
 30
0.0
  0
LWPOLYLINE
  5
2f2
100
AcDbEntity
  8
0
 62
7
100
AcDbPolyline
 90
2
 70
0
 10
132.988403
 20
214.740606
 30
0.0
 10
132.988403
 20
214.740606
 30
0.0
  0
SPLINE
  5
2f3
100
AcDbEntity
  8
0
 62
7
100
AcDbSpline
 70
8
 71
3
 72
8
 73
4
 74
0
 40
0
 40
0
 40
0
 40
0
 40
1
 40
1
 40
1
 40
1
 10
142.337014
 20
202.834356
 30
0.0
 10
142.437539
 20
202.828943
 30
0.0
 10
142.543699
 20
202.758082
 30
0.0
 10
142.628056
 20
202.640328
 30
0.0
  0
SPLINE
  5
2f4
100
AcDbEntity
  8
0
 62
7
100
AcDbSpline
 70
8
 71
3
 72
8
 73
4
 74
0
 40
0
 40
0
 40
0
 40
0
 40
1
 40
1
 40
1
 40
1
 10
142.628056
 20
202.640328
 30
0.0
 10
142.911122
 20
202.245191
 30
0.0
 10
143.361619
 20
201.958583
 30
0.0
 10
146.799653
 20
200.012133
 30
0.0
  0
SPLINE
  5
2f5
100
AcDbEntity
  8
0
 62
7
100
AcDbSpline
 70
8
 71
3
 72
8
 73
4
 74
0
 40
0
 40
0
 40
0
 40
0
 40
1
 40
1
 40
1
 40
1
 10
146.799653
 20
200.012133
 30
0.0
 10
148.266503
 20
199.181672
 30
0.0
 10
149.861468
 20
197.928526
 30
0.0
 10
150.618472
 20
197.004703
 30
0.0
  0
SPLINE
  5
2f6
100
AcDbEntity
  8
0
 62
7
100
AcDbSpline
 70
8
 71
3
 72
8
 73
4
 74
0
 40
0
 40
0
 40
0
 40
0
 40
1
 40
1
 40
1
 40
1
 10
150.618472
 20
197.004703
 30
0.0
 10
151.332901
 20
196.132834
 30
0.0
 10
151.870593
 20
195.438807
 30
0.0
 10
151.809097
 20
195.461300
 30
0.0
  0
SPLINE
  5
2f7
100
AcDbEntity
  8
0
 62
7
100
AcDbSpline
 70
8
 71
3
 72
8
 73
4
 74
0
 40
0
 40
0
 40
0
 40
0
 40
1
 40
1
 40
1
 40
1
 10
151.809097
 20
195.461300
 30
0.0
 10
151.747601
 20
195.483807
 30
0.0
 10
151.416631
 20
195.575414
 30
0.0
 10
151.077083
 20
195.664147
 30
0.0
  0
SPLINE
  5
2f8
100
AcDbEntity
  8
0
 62
7
100
AcDbSpline
 70
8
 71
3
 72
8
 73
4
 74
0
 40
0
 40
0
 40
0
 40
0
 40
1
 40
1
 40
1
 40
1
 10
151.077083
 20
195.664147
 30
0.0
 10
150.737533
 20
195.752878
 30
0.0
 10
150.459722
 20
195.935843
 30
0.0
 10
150.459722
 20
196.069842
 30
0.0
  0
SPLINE
  5
2f9
100
AcDbEntity
  8
0
 62
7
100
AcDbSpline
 70
8
 71
3
 72
8
 73
4
 74
0
 40
0
 40
0
 40
0
 40
0
 40
1
 40
1
 40
1
 40
1
 10
150.459722
 20
196.069842
 30
0.0
 10
150.459722
 20
196.203835
 30
0.0
 10
149.824722
 20
196.701430
 30
0.0
 10
149.048611
 20
197.181092
 30
0.0
  0
SPLINE
  5
2fa
100
AcDbEntity
  8
0
 62
7
100
AcDbSpline
 70
8
 71
3
 72
8
 73
4
 74
0
 40
0
 40
0
 40
0
 40
0
 40
1
 40
1
 40
1
 40
1
 10
149.048611
 20
197.181092
 30
0.0
 10
148.272500
 20
197.660754
 30
0.0
 10
147.637500
 20
198.179396
 30
0.0
 10
147.637500
 20
198.327620
 30
0.0
  0
SPLINE
  5
2fb
100
AcDbEntity
  8
0
 62
7
100
AcDbSpline
 70
8
 71
3
 72
8
 73
4
 74
0
 40
0
 40
0
 40
0
 40
0
 40
1
 40
1
 40
1
 40
1
 10
147.637500
 20
198.327620
 30
0.0
 10
147.637500
 20
198.475843
 30
0.0
 10
147.449244
 20
198.592203
 30
0.0
 10
147.222986
 20
198.592203
 30
0.0
  0
SPLINE
  5
2fc
100
AcDbEntity
  8
0
 62
7
100
AcDbSpline
 70
8
 71
3
 72
8
 73
4
 74
0
 40
0
 40
0
 40
0
 40
0
 40
1
 40
1
 40
1
 40
1
 10
147.222986
 20
198.592203
 30
0.0
 10
146.996729
 20
198.592203
 30
0.0
 10
146.560167
 20
198.835287
 30
0.0
 10
146.252847
 20
199.130189
 30
0.0
  0
SPLINE
  5
2fd
100
AcDbEntity
  8
0
 62
7
100
AcDbSpline
 70
8
 71
3
 72
8
 73
4
 74
0
 40
0
 40
0
 40
0
 40
0
 40
1
 40
1
 40
1
 40
1
 10
146.252847
 20
199.130189
 30
0.0
 10
145.945530
 20
199.425092
 30
0.0
 10
144.854961
 20
200.318791
 30
0.0
 10
143.827500
 20
201.114564
 30
0.0
  0
SPLINE
  5
2fe
100
AcDbEntity
  8
0
 62
7
100
AcDbSpline
 70
8
 71
3
 72
8
 73
4
 74
0
 40
0
 40
0
 40
0
 40
0
 40
1
 40
1
 40
1
 40
1
 10
143.827500
 20
201.114564
 30
0.0
 10
142.800042
 20
201.910338
 30
0.0
 10
142.053067
 20
202.656242
 30
0.0
 10
142.169444
 20
202.772620
 30
0.0
  0
SPLINE
  5
2ff
100
AcDbEntity
  8
0
 62
7
100
AcDbSpline
 70
8
 71
3
 72
8
 73
4
 74
0
 40
0
 40
0
 40
0
 40
0
 40
1
 40
1
 40
1
 40
1
 10
142.169444
 20
202.772620
 30
0.0
 10
142.213087
 20
202.816262
 30
0.0
 10
142.276700
 20
202.837604
 30
0.0
 10
142.337014
 20
202.834356
 30
0.0
  0
LWPOLYLINE
  5
300
100
AcDbEntity
  8
0
 62
7
100
AcDbPolyline
 90
2
 70
0
 10
143.827500
 20
210.427897
 30
0.0
 10
143.827500
 20
210.427897
 30
0.0
  0
SPLINE
  5
301
100
AcDbEntity
  8
0
 62
7
100
AcDbSpline
 70
8
 71
3
 72
8
 73
4
 74
0
 40
0
 40
0
 40
0
 40
0
 40
1
 40
1
 40
1
 40
1
 10
165.990764
 20
202.287550
 30
0.0
 10
166.032869
 20
202.286814
 30
0.0
 10
166.092039
 20
202.277712
 30
0.0
 10
166.158333
 20
202.252272
 30
0.0
  0
SPLINE
  5
302
100
AcDbEntity
  8
0
 62
7
100
AcDbSpline
 70
8
 71
3
 72
8
 73
4
 74
0
 40
0
 40
0
 40
0
 40
0
 40
1
 40
1
 40
1
 40
1
 10
166.158333
 20
202.252272
 30
0.0
 10
166.451661
 20
202.139711
 30
0.0
 10
166.687500
 20
201.893952
 30
0.0
 10
166.687500
 20
201.705467
 30
0.0
  0
SPLINE
  5
303
100
AcDbEntity
  8
0
 62
7
100
AcDbSpline
 70
8
 71
3
 72
8
 73
4
 74
0
 40
0
 40
0
 40
0
 40
0
 40
1
 40
1
 40
1
 40
1
 10
166.687500
 20
201.705467
 30
0.0
 10
166.687500
 20
201.516982
 30
0.0
 10
167.282811
 20
200.756331
 30
0.0
 10
168.010417
 20
200.012133
 30
0.0
  0
SPLINE
  5
304
100
AcDbEntity
  8
0
 62
7
100
AcDbSpline
 70
8
 71
3
 72
8
 73
4
 74
0
 40
0
 40
0
 40
0
 40
0
 40
1
 40
1
 40
1
 40
1
 10
168.010417
 20
200.012133
 30
0.0
 10
169.956624
 20
198.021547
 30
0.0
 10
170.906680
 20
196.726488
 30
0.0
 10
170.912014
 20
196.078661
 30
0.0
  0
SPLINE
  5
305
100
AcDbEntity
  8
0
 62
7
100
AcDbSpline
 70
8
 71
3
 72
8
 73
4
 74
0
 40
0
 40
0
 40
0
 40
0
 40
1
 40
1
 40
1
 40
1
 10
170.912014
 20
196.078661
 30
0.0
 10
170.914613
 20
195.762809
 30
0.0
 10
171.165232
 20
194.915062
 30
0.0
 10
171.467639
 20
194.191300
 30
0.0
  0
SPLINE
  5
306
100
AcDbEntity
  8
0
 62
7
100
AcDbSpline
 70
8
 71
3
 72
8
 73
4
 74
0
 40
0
 40
0
 40
0
 40
0
 40
1
 40
1
 40
1
 40
1
 10
171.467639
 20
194.191300
 30
0.0
 10
171.770048
 20
193.467536
 30
0.0
 10
171.949793
 20
192.803732
 30
0.0
 10
171.864514
 20
192.718453
 30
0.0
  0
SPLINE
  5
307
100
AcDbEntity
  8
0
 62
7
100
AcDbSpline
 70
8
 71
3
 72
8
 73
4
 74
0
 40
0
 40
0
 40
0
 40
0
 40
1
 40
1
 40
1
 40
1
 10
171.864514
 20
192.718453
 30
0.0
 10
171.555667
 20
192.409606
 30
0.0
 10
170.518633
 20
193.781705
 30
0.0
 10
169.059931
 20
196.422620
 30
0.0
  0
SPLINE
  5
308
100
AcDbEntity
  8
0
 62
7
100
AcDbSpline
 70
8
 71
3
 72
8
 73
4
 74
0
 40
0
 40
0
 40
0
 40
0
 40
1
 40
1
 40
1
 40
1
 10
169.059931
 20
196.422620
 30
0.0
 10
168.241051
 20
197.905156
 30
0.0
 10
167.410694
 20
199.378849
 30
0.0
 10
167.216667
 20
199.694633
 30
0.0
  0
SPLINE
  5
309
100
AcDbEntity
  8
0
 62
7
100
AcDbSpline
 70
8
 71
3
 72
8
 73
4
 74
0
 40
0
 40
0
 40
0
 40
0
 40
1
 40
1
 40
1
 40
1
 10
167.216667
 20
199.694633
 30
0.0
 10
166.013838
 20
201.652279
 30
0.0
 10
165.696028
 20
202.292704
 30
0.0
 10
165.990764
 20
202.287550
 30
0.0
  0
LWPOLYLINE
  5
30a
100
AcDbEntity
  8
0
 62
7
100
AcDbPolyline
 90
2
 70
0
 10
142.337014
 20
202.834356
 30
0.0
 10
142.337014
 20
202.834356
 30
0.0
  0
SPLINE
  5
30b
100
AcDbEntity
  8
0
 62
7
100
AcDbSpline
 70
8
 71
3
 72
8
 73
4
 74
0
 40
0
 40
0
 40
0
 40
0
 40
1
 40
1
 40
1
 40
1
 10
159.287986
 20
200.629495
 30
0.0
 10
159.371363
 20
200.681604
 30
0.0
 10
160.050048
 20
200.059795
 30
0.0
 10
160.866667
 20
199.174286
 30
0.0
  0
SPLINE
  5
30c
100
AcDbEntity
  8
0
 62
7
100
AcDbSpline
 70
8
 71
3
 72
8
 73
4
 74
0
 40
0
 40
0
 40
0
 40
0
 40
1
 40
1
 40
1
 40
1
 10
160.866667
 20
199.174286
 30
0.0
 10
161.737720
 20
198.229742
 30
0.0
 10
162.454167
 20
197.305380
 30
0.0
 10
162.454167
 20
197.128175
 30
0.0
  0
SPLINE
  5
30d
100
AcDbEntity
  8
0
 62
7
100
AcDbSpline
 70
8
 71
3
 72
8
 73
4
 74
0
 40
0
 40
0
 40
0
 40
0
 40
1
 40
1
 40
1
 40
1
 10
162.454167
 20
197.128175
 30
0.0
 10
162.454167
 20
196.950971
 30
0.0
 10
162.680836
 20
196.722571
 30
0.0
 10
162.956875
 20
196.616647
 30
0.0
  0
SPLINE
  5
30e
100
AcDbEntity
  8
0
 62
7
100
AcDbSpline
 70
8
 71
3
 72
8
 73
4
 74
0
 40
0
 40
0
 40
0
 40
0
 40
1
 40
1
 40
1
 40
1
 10
162.956875
 20
196.616647
 30
0.0
 10
163.232917
 20
196.510718
 30
0.0
 10
163.547685
 20
196.195953
 30
0.0
 10
163.653611
 20
195.919911
 30
0.0
  0
SPLINE
  5
30f
100
AcDbEntity
  8
0
 62
7
100
AcDbSpline
 70
8
 71
3
 72
8
 73
4
 74
0
 40
0
 40
0
 40
0
 40
0
 40
1
 40
1
 40
1
 40
1
 10
163.653611
 20
195.919911
 30
0.0
 10
163.871727
 20
195.351510
 30
0.0
 10
163.673398
 20
195.332999
 30
0.0
 10
162.542361
 20
195.787620
 30
0.0
  0
SPLINE
  5
310
100
AcDbEntity
  8
0
 62
7
100
AcDbSpline
 70
8
 71
3
 72
8
 73
4
 74
0
 40
0
 40
0
 40
0
 40
0
 40
1
 40
1
 40
1
 40
1
 10
162.542361
 20
195.787620
 30
0.0
 10
162.105797
 20
195.963100
 30
0.0
 10
161.748611
 20
196.257415
 30
0.0
 10
161.748611
 20
196.449078
 30
0.0
  0
SPLINE
  5
311
100
AcDbEntity
  8
0
 62
7
100
AcDbSpline
 70
8
 71
3
 72
8
 73
4
 74
0
 40
0
 40
0
 40
0
 40
0
 40
1
 40
1
 40
1
 40
1
 10
161.748611
 20
196.449078
 30
0.0
 10
161.748611
 20
196.782320
 30
0.0
 10
160.392065
 20
199.011489
 30
0.0
 10
159.640764
 20
199.906300
 30
0.0
  0
SPLINE
  5
312
100
AcDbEntity
  8
0
 62
7
100
AcDbSpline
 70
8
 71
3
 72
8
 73
4
 74
0
 40
0
 40
0
 40
0
 40
0
 40
1
 40
1
 40
1
 40
1
 10
159.640764
 20
199.906300
 30
0.0
 10
159.444004
 20
200.140646
 30
0.0
 10
159.277191
 20
200.458146
 30
0.0
 10
159.279167
 20
200.611856
 30
0.0
  0
SPLINE
  5
313
100
AcDbEntity
  8
0
 62
7
100
AcDbSpline
 70
8
 71
3
 72
8
 73
4
 74
0
 40
0
 40
0
 40
0
 40
0
 40
1
 40
1
 40
1
 40
1
 10
159.279167
 20
200.611856
 30
0.0
 10
159.279296
 20
200.621463
 30
0.0
 10
159.282426
 20
200.626020
 30
0.0
 10
159.287986
 20
200.629495
 30
0.0
  0
LWPOLYLINE
  5
314
100
AcDbEntity
  8
0
 62
7
100
AcDbPolyline
 90
2
 70
0
 10
165.990764
 20
202.287550
 30
0.0
 10
165.990764
 20
202.287550
 30
0.0
  0
SPLINE
  5
315
100
AcDbEntity
  8
0
 62
7
100
AcDbSpline
 70
8
 71
3
 72
8
 73
4
 74
0
 40
0
 40
0
 40
0
 40
0
 40
1
 40
1
 40
1
 40
1
 10
178.831875
 20
196.369703
 30
0.0
 10
178.975329
 20
196.399686
 30
0.0
 10
179.209954
 20
196.140242
 30
0.0
 10
179.387500
 20
195.734703
 30
0.0
  0
SPLINE
  5
316
100
AcDbEntity
  8
0
 62
7
100
AcDbSpline
 70
8
 71
3
 72
8
 73
4
 74
0
 40
0
 40
0
 40
0
 40
0
 40
1
 40
1
 40
1
 40
1
 10
179.387500
 20
195.734703
 30
0.0
 10
179.590409
 20
195.271232
 30
0.0
 10
180.298090
 20
194.014911
 30
0.0
 10
180.966181
 20
192.947758
 30
0.0
  0
SPLINE
  5
317
100
AcDbEntity
  8
0
 62
7
100
AcDbSpline
 70
8
 71
3
 72
8
 73
4
 74
0
 40
0
 40
0
 40
0
 40
0
 40
1
 40
1
 40
1
 40
1
 10
180.966181
 20
192.947758
 30
0.0
 10
181.634277
 20
191.880606
 30
0.0
 10
182.184576
 20
190.769356
 30
0.0
 10
182.192083
 20
190.478314
 30
0.0
  0
SPLINE
  5
318
100
AcDbEntity
  8
0
 62
7
100
AcDbSpline
 70
8
 71
3
 72
8
 73
4
 74
0
 40
0
 40
0
 40
0
 40
0
 40
1
 40
1
 40
1
 40
1
 10
182.192083
 20
190.478314
 30
0.0
 10
182.199599
 20
190.187272
 30
0.0
 10
182.524956
 20
188.996647
 30
0.0
 10
182.906458
 20
187.832481
 30
0.0
  0
SPLINE
  5
319
100
AcDbEntity
  8
0
 62
7
100
AcDbSpline
 70
8
 71
3
 72
8
 73
4
 74
0
 40
0
 40
0
 40
0
 40
0
 40
1
 40
1
 40
1
 40
1
 10
182.906458
 20
187.832481
 30
0.0
 10
183.287958
 20
186.668314
 30
0.0
 10
183.856717
 20
184.185478
 30
0.0
 10
184.176458
 20
182.311508
 30
0.0
  0
SPLINE
  5
31a
100
AcDbEntity
  8
0
 62
7
100
AcDbSpline
 70
8
 71
3
 72
8
 73
4
 74
0
 40
0
 40
0
 40
0
 40
0
 40
1
 40
1
 40
1
 40
1
 10
184.176458
 20
182.311508
 30
0.0
 10
184.822152
 20
178.527210
 30
0.0
 10
184.787808
 20
178.011946
 30
0.0
 10
183.920694
 20
178.501508
 30
0.0
  0
SPLINE
  5
31b
100
AcDbEntity
  8
0
 62
7
100
AcDbSpline
 70
8
 71
3
 72
8
 73
4
 74
0
 40
0
 40
0
 40
0
 40
0
 40
1
 40
1
 40
1
 40
1
 10
183.920694
 20
178.501508
 30
0.0
 10
183.492958
 20
178.743006
 30
0.0
 10
183.279175
 20
179.599700
 30
0.0
 10
183.091667
 20
181.747064
 30
0.0
  0
SPLINE
  5
31c
100
AcDbEntity
  8
0
 62
7
100
AcDbSpline
 70
8
 71
3
 72
8
 73
4
 74
0
 40
0
 40
0
 40
0
 40
0
 40
1
 40
1
 40
1
 40
1
 10
183.091667
 20
181.747064
 30
0.0
 10
182.951735
 20
183.349539
 30
0.0
 10
182.554860
 20
185.570295
 30
0.0
 10
182.209722
 20
186.685953
 30
0.0
  0
SPLINE
  5
31d
100
AcDbEntity
  8
0
 62
7
100
AcDbSpline
 70
8
 71
3
 72
8
 73
4
 74
0
 40
0
 40
0
 40
0
 40
0
 40
1
 40
1
 40
1
 40
1
 10
182.209722
 20
186.685953
 30
0.0
 10
181.777902
 20
188.081790
 30
0.0
 10
181.702433
 20
188.719547
 30
0.0
 10
181.980417
 20
188.723245
 30
0.0
  0
SPLINE
  5
31e
100
AcDbEntity
  8
0
 62
7
100
AcDbSpline
 70
8
 71
3
 72
8
 73
4
 74
0
 40
0
 40
0
 40
0
 40
0
 40
1
 40
1
 40
1
 40
1
 10
181.980417
 20
188.723245
 30
0.0
 10
182.240987
 20
188.726730
 30
0.0
 10
182.263265
 20
188.820656
 30
0.0
 10
182.033333
 20
188.987828
 30
0.0
  0
SPLINE
  5
31f
100
AcDbEntity
  8
0
 62
7
100
AcDbSpline
 70
8
 71
3
 72
8
 73
4
 74
0
 40
0
 40
0
 40
0
 40
0
 40
1
 40
1
 40
1
 40
1
 10
182.033333
 20
188.987828
 30
0.0
 10
181.837268
 20
189.130378
 30
0.0
 10
181.297360
 20
190.116717
 30
0.0
 10
180.842708
 20
191.183870
 30
0.0
  0
SPLINE
  5
320
100
AcDbEntity
  8
0
 62
7
100
AcDbSpline
 70
8
 71
3
 72
8
 73
4
 74
0
 40
0
 40
0
 40
0
 40
0
 40
1
 40
1
 40
1
 40
1
 10
180.842708
 20
191.183870
 30
0.0
 10
180.388060
 20
192.251022
 30
0.0
 10
179.689774
 20
193.797854
 30
0.0
 10
179.281667
 20
194.614633
 30
0.0
  0
SPLINE
  5
321
100
AcDbEntity
  8
0
 62
7
100
AcDbSpline
 70
8
 71
3
 72
8
 73
4
 74
0
 40
0
 40
0
 40
0
 40
0
 40
1
 40
1
 40
1
 40
1
 10
179.281667
 20
194.614633
 30
0.0
 10
178.873562
 20
195.431418
 30
0.0
 10
178.647200
 20
196.202664
 30
0.0
 10
178.778958
 20
196.334425
 30
0.0
  0
SPLINE
  5
322
100
AcDbEntity
  8
0
 62
7
100
AcDbSpline
 70
8
 71
3
 72
8
 73
4
 74
0
 40
0
 40
0
 40
0
 40
0
 40
1
 40
1
 40
1
 40
1
 10
178.778958
 20
196.334425
 30
0.0
 10
178.795429
 20
196.350896
 30
0.0
 10
178.811383
 20
196.365419
 30
0.0
 10
178.831875
 20
196.369703
 30
0.0
  0
LWPOLYLINE
  5
323
100
AcDbEntity
  8
0
 62
7
100
AcDbPolyline
 90
2
 70
0
 10
159.287986
 20
200.629495
 30
0.0
 10
159.287986
 20
200.629495
 30
0.0
  0
SPLINE
  5
324
100
AcDbEntity
  8
0
 62
7
100
AcDbSpline
 70
8
 71
3
 72
8
 73
4
 74
0
 40
0
 40
0
 40
0
 40
0
 40
1
 40
1
 40
1
 40
1
 10
156.739167
 20
195.064425
 30
0.0
 10
156.785304
 20
195.067487
 30
0.0
 10
156.845034
 20
195.064425
 30
0.0
 10
156.906736
 20
195.064425
 30
0.0
  0
SPLINE
  5
325
100
AcDbEntity
  8
0
 62
7
100
AcDbSpline
 70
8
 71
3
 72
8
 73
4
 74
0
 40
0
 40
0
 40
0
 40
0
 40
1
 40
1
 40
1
 40
1
 10
156.906736
 20
195.064425
 30
0.0
 10
157.709314
 20
195.064425
 30
0.0
 10
160.809912
 20
193.687409
 30
0.0
 10
161.113611
 20
193.194703
 30
0.0
  0
SPLINE
  5
326
100
AcDbEntity
  8
0
 62
7
100
AcDbSpline
 70
8
 71
3
 72
8
 73
4
 74
0
 40
0
 40
0
 40
0
 40
0
 40
1
 40
1
 40
1
 40
1
 10
161.113611
 20
193.194703
 30
0.0
 10
161.255569
 20
192.964395
 30
0.0
 10
161.533047
 20
192.533245
 30
0.0
 10
161.730972
 20
192.242203
 30
0.0
  0
SPLINE
  5
327
100
AcDbEntity
  8
0
 62
7
100
AcDbSpline
 70
8
 71
3
 72
8
 73
4
 74
0
 40
0
 40
0
 40
0
 40
0
 40
1
 40
1
 40
1
 40
1
 10
161.730972
 20
192.242203
 30
0.0
 10
163.083068
 20
190.253998
 30
0.0
 10
163.756989
 20
189.162343
 30
0.0
 10
163.962292
 20
188.626231
 30
0.0
  0
SPLINE
  5
328
100
AcDbEntity
  8
0
 62
7
100
AcDbSpline
 70
8
 71
3
 72
8
 73
4
 74
0
 40
0
 40
0
 40
0
 40
0
 40
1
 40
1
 40
1
 40
1
 10
163.962292
 20
188.626231
 30
0.0
 10
164.257962
 20
187.854141
 30
0.0
 10
163.971664
 20
187.878553
 30
0.0
 10
162.630556
 20
188.740883
 30
0.0
  0
SPLINE
  5
329
100
AcDbEntity
  8
0
 62
7
100
AcDbSpline
 70
8
 71
3
 72
8
 73
4
 74
0
 40
0
 40
0
 40
0
 40
0
 40
1
 40
1
 40
1
 40
1
 10
162.630556
 20
188.740883
 30
0.0
 10
162.048472
 20
189.115164
 30
0.0
 10
161.084765
 20
189.652165
 30
0.0
 10
160.487431
 20
189.931508
 30
0.0
  0
SPLINE
  5
32a
100
AcDbEntity
  8
0
 62
7
100
AcDbSpline
 70
8
 71
3
 72
8
 73
4
 74
0
 40
0
 40
0
 40
0
 40
0
 40
1
 40
1
 40
1
 40
1
 10
160.487431
 20
189.931508
 30
0.0
 10
159.544780
 20
190.372345
 30
0.0
 10
157.515278
 20
192.828271
 30
0.0
 10
157.515278
 20
193.529842
 30
0.0
  0
SPLINE
  5
32b
100
AcDbEntity
  8
0
 62
7
100
AcDbSpline
 70
8
 71
3
 72
8
 73
4
 74
0
 40
0
 40
0
 40
0
 40
0
 40
1
 40
1
 40
1
 40
1
 10
157.515278
 20
193.529842
 30
0.0
 10
157.515278
 20
193.664242
 30
0.0
 10
157.254310
 20
194.065776
 30
0.0
 10
156.933194
 20
194.420606
 30
0.0
  0
SPLINE
  5
32c
100
AcDbEntity
  8
0
 62
7
100
AcDbSpline
 70
8
 71
3
 72
8
 73
4
 74
0
 40
0
 40
0
 40
0
 40
0
 40
1
 40
1
 40
1
 40
1
 10
156.933194
 20
194.420606
 30
0.0
 10
156.478506
 20
194.923032
 30
0.0
 10
156.416203
 20
195.042996
 30
0.0
 10
156.739167
 20
195.064425
 30
0.0
  0
LWPOLYLINE
  5
32d
100
AcDbEntity
  8
0
 62
7
100
AcDbPolyline
 90
2
 70
0
 10
178.831875
 20
196.369703
 30
0.0
 10
178.831875
 20
196.369703
 30
0.0
  0
SPLINE
  5
32e
100
AcDbEntity
  8
0
 62
7
100
AcDbSpline
 70
8
 71
3
 72
8
 73
4
 74
0
 40
0
 40
0
 40
0
 40
0
 40
1
 40
1
 40
1
 40
1
 10
147.955000
 20
192.956578
 30
0.0
 10
148.065309
 20
192.968939
 30
0.0
 10
148.181074
 20
192.865076
 30
0.0
 10
148.246042
 20
192.683175
 30
0.0
  0
SPLINE
  5
32f
100
AcDbEntity
  8
0
 62
7
100
AcDbSpline
 70
8
 71
3
 72
8
 73
4
 74
0
 40
0
 40
0
 40
0
 40
0
 40
1
 40
1
 40
1
 40
1
 10
148.246042
 20
192.683175
 30
0.0
 10
148.332658
 20
192.440642
 30
0.0
 10
148.540518
 20
192.242203
 30
0.0
 10
148.704653
 20
192.242203
 30
0.0
  0
SPLINE
  5
330
100
AcDbEntity
  8
0
 62
7
100
AcDbSpline
 70
8
 71
3
 72
8
 73
4
 74
0
 40
0
 40
0
 40
0
 40
0
 40
1
 40
1
 40
1
 40
1
 10
148.704653
 20
192.242203
 30
0.0
 10
148.868790
 20
192.242203
 30
0.0
 10
149.925044
 20
191.646892
 30
0.0
 10
151.059444
 20
190.919286
 30
0.0
  0
SPLINE
  5
331
100
AcDbEntity
  8
0
 62
7
100
AcDbSpline
 70
8
 71
3
 72
8
 73
4
 74
0
 40
0
 40
0
 40
0
 40
0
 40
1
 40
1
 40
1
 40
1
 10
151.059444
 20
190.919286
 30
0.0
 10
153.825397
 20
189.145204
 30
0.0
 10
154.155256
 20
188.952116
 30
0.0
 10
156.809722
 20
187.453245
 30
0.0
  0
SPLINE
  5
332
100
AcDbEntity
  8
0
 62
7
100
AcDbSpline
 70
8
 71
3
 72
8
 73
4
 74
0
 40
0
 40
0
 40
0
 40
0
 40
1
 40
1
 40
1
 40
1
 10
156.809722
 20
187.453245
 30
0.0
 10
159.000817
 20
186.216019
 30
0.0
 10
159.935240
 20
185.398591
 30
0.0
 10
160.716736
 20
184.040120
 30
0.0
  0
SPLINE
  5
333
100
AcDbEntity
  8
0
 62
7
100
AcDbSpline
 70
8
 71
3
 72
8
 73
4
 74
0
 40
0
 40
0
 40
0
 40
0
 40
1
 40
1
 40
1
 40
1
 10
160.716736
 20
184.040120
 30
0.0
 10
160.957853
 20
183.621020
 30
0.0
 10
160.947010
 20
183.422758
 30
0.0
 10
160.699097
 20
183.422758
 30
0.0
  0
SPLINE
  5
334
100
AcDbEntity
  8
0
 62
7
100
AcDbSpline
 70
8
 71
3
 72
8
 73
4
 74
0
 40
0
 40
0
 40
0
 40
0
 40
1
 40
1
 40
1
 40
1
 10
160.699097
 20
183.422758
 30
0.0
 10
160.498245
 20
183.422758
 30
0.0
 10
160.337500
 20
183.558061
 30
0.0
 10
160.337500
 20
183.722620
 30
0.0
  0
SPLINE
  5
335
100
AcDbEntity
  8
0
 62
7
100
AcDbSpline
 70
8
 71
3
 72
8
 73
4
 74
0
 40
0
 40
0
 40
0
 40
0
 40
1
 40
1
 40
1
 40
1
 10
160.337500
 20
183.722620
 30
0.0
 10
160.337500
 20
183.887178
 30
0.0
 10
159.702500
 20
184.307505
 30
0.0
 10
158.926389
 20
184.657481
 30
0.0
  0
SPLINE
  5
336
100
AcDbEntity
  8
0
 62
7
100
AcDbSpline
 70
8
 71
3
 72
8
 73
4
 74
0
 40
0
 40
0
 40
0
 40
0
 40
1
 40
1
 40
1
 40
1
 10
158.926389
 20
184.657481
 30
0.0
 10
158.150278
 20
185.007459
 30
0.0
 10
157.515278
 20
185.427784
 30
0.0
 10
157.515278
 20
185.592342
 30
0.0
  0
SPLINE
  5
337
100
AcDbEntity
  8
0
 62
7
100
AcDbSpline
 70
8
 71
3
 72
8
 73
4
 74
0
 40
0
 40
0
 40
0
 40
0
 40
1
 40
1
 40
1
 40
1
 10
157.515278
 20
185.592342
 30
0.0
 10
157.515278
 20
185.756903
 30
0.0
 10
157.350768
 20
185.892203
 30
0.0
 10
157.153681
 20
185.892203
 30
0.0
  0
SPLINE
  5
338
100
AcDbEntity
  8
0
 62
7
100
AcDbSpline
 70
8
 71
3
 72
8
 73
4
 74
0
 40
0
 40
0
 40
0
 40
0
 40
1
 40
1
 40
1
 40
1
 10
157.153681
 20
185.892203
 30
0.0
 10
156.956593
 20
185.892203
 30
0.0
 10
155.862703
 20
186.566892
 30
0.0
 10
154.719514
 20
187.391508
 30
0.0
  0
SPLINE
  5
339
100
AcDbEntity
  8
0
 62
7
100
AcDbSpline
 70
8
 71
3
 72
8
 73
4
 74
0
 40
0
 40
0
 40
0
 40
0
 40
1
 40
1
 40
1
 40
1
 10
154.719514
 20
187.391508
 30
0.0
 10
153.576322
 20
188.216128
 30
0.0
 10
152.290585
 20
189.128939
 30
0.0
 10
151.862014
 20
189.419981
 30
0.0
  0
SPLINE
  5
33a
100
AcDbEntity
  8
0
 62
7
100
AcDbSpline
 70
8
 71
3
 72
8
 73
4
 74
0
 40
0
 40
0
 40
0
 40
0
 40
1
 40
1
 40
1
 40
1
 10
151.862014
 20
189.419981
 30
0.0
 10
149.808887
 20
190.814252
 30
0.0
 10
147.633368
 20
192.704807
 30
0.0
 10
147.849167
 20
192.903661
 30
0.0
  0
SPLINE
  5
33b
100
AcDbEntity
  8
0
 62
7
100
AcDbSpline
 70
8
 71
3
 72
8
 73
4
 74
0
 40
0
 40
0
 40
0
 40
0
 40
1
 40
1
 40
1
 40
1
 10
147.849167
 20
192.903661
 30
0.0
 10
147.882263
 20
192.934161
 30
0.0
 10
147.918229
 20
192.952457
 30
0.0
 10
147.955000
 20
192.956578
 30
0.0
  0
LWPOLYLINE
  5
33c
100
AcDbEntity
  8
0
 62
7
100
AcDbPolyline
 90
2
 70
0
 10
156.739167
 20
195.064425
 30
0.0
 10
156.739167
 20
195.064425
 30
0.0
  0
SPLINE
  5
33d
100
AcDbEntity
  8
0
 62
7
100
AcDbSpline
 70
8
 71
3
 72
8
 73
4
 74
0
 40
0
 40
0
 40
0
 40
0
 40
1
 40
1
 40
1
 40
1
 10
163.547778
 20
192.771370
 30
0.0
 10
163.688519
 20
192.782184
 30
0.0
 10
164.288580
 20
192.672284
 30
0.0
 10
165.011806
 20
192.506786
 30
0.0
  0
SPLINE
  5
33e
100
AcDbEntity
  8
0
 62
7
100
AcDbSpline
 70
8
 71
3
 72
8
 73
4
 74
0
 40
0
 40
0
 40
0
 40
0
 40
1
 40
1
 40
1
 40
1
 10
165.011806
 20
192.506786
 30
0.0
 10
166.336712
 20
192.203606
 30
0.0
 10
166.603045
 20
191.973237
 30
0.0
 10
167.260764
 20
190.531231
 30
0.0
  0
SPLINE
  5
33f
100
AcDbEntity
  8
0
 62
7
100
AcDbSpline
 70
8
 71
3
 72
8
 73
4
 74
0
 40
0
 40
0
 40
0
 40
0
 40
1
 40
1
 40
1
 40
1
 10
167.260764
 20
190.531231
 30
0.0
 10
168.736329
 20
187.296154
 30
0.0
 10
169.509722
 20
185.518230
 30
0.0
 10
169.509722
 20
185.354217
 30
0.0
  0
SPLINE
  5
340
100
AcDbEntity
  8
0
 62
7
100
AcDbSpline
 70
8
 71
3
 72
8
 73
4
 74
0
 40
0
 40
0
 40
0
 40
0
 40
1
 40
1
 40
1
 40
1
 10
169.509722
 20
185.354217
 30
0.0
 10
169.509722
 20
185.087311
 30
0.0
 10
169.061280
 20
185.219653
 30
0.0
 10
167.798750
 20
185.865745
 30
0.0
  0
SPLINE
  5
341
100
AcDbEntity
  8
0
 62
7
100
AcDbSpline
 70
8
 71
3
 72
8
 73
4
 74
0
 40
0
 40
0
 40
0
 40
0
 40
1
 40
1
 40
1
 40
1
 10
167.798750
 20
185.865745
 30
0.0
 10
166.882973
 20
186.334386
 30
0.0
 10
166.270342
 20
187.168564
 30
0.0
 10
165.064722
 20
189.569911
 30
0.0
  0
SPLINE
  5
342
100
AcDbEntity
  8
0
 62
7
100
AcDbSpline
 70
8
 71
3
 72
8
 73
4
 74
0
 40
0
 40
0
 40
0
 40
0
 40
1
 40
1
 40
1
 40
1
 10
165.064722
 20
189.569911
 30
0.0
 10
164.210142
 20
191.272061
 30
0.0
 10
163.512500
 20
192.701686
 30
0.0
 10
163.512500
 20
192.753731
 30
0.0
  0
SPLINE
  5
343
100
AcDbEntity
  8
0
 62
7
100
AcDbSpline
 70
8
 71
3
 72
8
 73
4
 74
0
 40
0
 40
0
 40
0
 40
0
 40
1
 40
1
 40
1
 40
1
 10
163.512500
 20
192.753731
 30
0.0
 10
163.512500
 20
192.760236
 30
0.0
 10
163.527672
 20
192.769826
 30
0.0
 10
163.547778
 20
192.771370
 30
0.0
  0
LWPOLYLINE
  5
344
100
AcDbEntity
  8
0
 62
7
100
AcDbPolyline
 90
2
 70
0
 10
147.955000
 20
192.956578
 30
0.0
 10
147.955000
 20
192.956578
 30
0.0
  0
SPLINE
  5
345
100
AcDbEntity
  8
0
 62
7
100
AcDbSpline
 70
8
 71
3
 72
8
 73
4
 74
0
 40
0
 40
0
 40
0
 40
0
 40
1
 40
1
 40
1
 40
1
 10
174.254583
 20
192.127550
 30
0.0
 10
174.310909
 20
192.133127
 30
0.0
 10
174.375851
 20
192.110783
 30
0.0
 10
174.448611
 20
192.065814
 30
0.0
  0
SPLINE
  5
346
100
AcDbEntity
  8
0
 62
7
100
AcDbSpline
 70
8
 71
3
 72
8
 73
4
 74
0
 40
0
 40
0
 40
0
 40
0
 40
1
 40
1
 40
1
 40
1
 10
174.448611
 20
192.065814
 30
0.0
 10
174.642639
 20
191.945898
 30
0.0
 10
174.801389
 20
191.780959
 30
0.0
 10
174.801389
 20
191.695397
 30
0.0
  0
SPLINE
  5
347
100
AcDbEntity
  8
0
 62
7
100
AcDbSpline
 70
8
 71
3
 72
8
 73
4
 74
0
 40
0
 40
0
 40
0
 40
0
 40
1
 40
1
 40
1
 40
1
 10
174.801389
 20
191.695397
 30
0.0
 10
174.801389
 20
191.609833
 30
0.0
 10
174.642639
 20
191.536647
 30
0.0
 10
174.448611
 20
191.536647
 30
0.0
  0
SPLINE
  5
348
100
AcDbEntity
  8
0
 62
7
100
AcDbSpline
 70
8
 71
3
 72
8
 73
4
 74
0
 40
0
 40
0
 40
0
 40
0
 40
1
 40
1
 40
1
 40
1
 10
174.448611
 20
191.536647
 30
0.0
 10
174.254583
 20
191.536647
 30
0.0
 10
174.095833
 20
191.710403
 30
0.0
 10
174.095833
 20
191.915883
 30
0.0
  0
SPLINE
  5
349
100
AcDbEntity
  8
0
 62
7
100
AcDbSpline
 70
8
 71
3
 72
8
 73
4
 74
0
 40
0
 40
0
 40
0
 40
0
 40
1
 40
1
 40
1
 40
1
 10
174.095833
 20
191.915883
 30
0.0
 10
174.095833
 20
192.044306
 30
0.0
 10
174.160705
 20
192.118257
 30
0.0
 10
174.254583
 20
192.127550
 30
0.0
  0
LWPOLYLINE
  5
34a
100
AcDbEntity
  8
0
 62
7
100
AcDbPolyline
 90
2
 70
0
 10
163.547778
 20
192.771370
 30
0.0
 10
163.547778
 20
192.771370
 30
0.0
  0
SPLINE
  5
34b
100
AcDbEntity
  8
0
 62
7
100
AcDbSpline
 70
8
 71
3
 72
8
 73
4
 74
0
 40
0
 40
0
 40
0
 40
0
 40
1
 40
1
 40
1
 40
1
 10
174.748472
 20
190.187272
 30
0.0
 10
175.151565
 20
190.178244
 30
0.0
 10
176.092321
 20
188.733690
 30
0.0
 10
177.438403
 20
185.980397
 30
0.0
  0
SPLINE
  5
34c
100
AcDbEntity
  8
0
 62
7
100
AcDbSpline
 70
8
 71
3
 72
8
 73
4
 74
0
 40
0
 40
0
 40
0
 40
0
 40
1
 40
1
 40
1
 40
1
 10
177.438403
 20
185.980397
 30
0.0
 10
178.553006
 20
183.700572
 30
0.0
 10
179.698167
 20
181.398697
 30
0.0
 10
179.978403
 20
180.865120
 30
0.0
  0
SPLINE
  5
34d
100
AcDbEntity
  8
0
 62
7
100
AcDbSpline
 70
8
 71
3
 72
8
 73
4
 74
0
 40
0
 40
0
 40
0
 40
0
 40
1
 40
1
 40
1
 40
1
 10
179.978403
 20
180.865120
 30
0.0
 10
180.258638
 20
180.331545
 30
0.0
 10
180.434753
 20
179.912761
 30
0.0
 10
180.375278
 20
179.930258
 30
0.0
  0
SPLINE
  5
34e
100
AcDbEntity
  8
0
 62
7
100
AcDbSpline
 70
8
 71
3
 72
8
 73
4
 74
0
 40
0
 40
0
 40
0
 40
0
 40
1
 40
1
 40
1
 40
1
 10
180.375278
 20
179.930258
 30
0.0
 10
180.315799
 20
179.947756
 30
0.0
 10
179.780627
 20
180.101107
 30
0.0
 10
179.184653
 20
180.274217
 30
0.0
  0
SPLINE
  5
34f
100
AcDbEntity
  8
0
 62
7
100
AcDbSpline
 70
8
 71
3
 72
8
 73
4
 74
0
 40
0
 40
0
 40
0
 40
0
 40
1
 40
1
 40
1
 40
1
 10
179.184653
 20
180.274217
 30
0.0
 10
178.529226
 20
180.464590
 30
0.0
 10
177.926421
 20
180.980100
 30
0.0
 10
177.650069
 20
181.570675
 30
0.0
  0
SPLINE
  5
350
100
AcDbEntity
  8
0
 62
7
100
AcDbSpline
 70
8
 71
3
 72
8
 73
4
 74
0
 40
0
 40
0
 40
0
 40
0
 40
1
 40
1
 40
1
 40
1
 10
177.650069
 20
181.570675
 30
0.0
 10
177.398784
 20
182.107673
 30
0.0
 10
177.045349
 20
182.818628
 30
0.0
 10
176.873958
 20
183.158175
 30
0.0
  0
SPLINE
  5
351
100
AcDbEntity
  8
0
 62
7
100
AcDbSpline
 70
8
 71
3
 72
8
 73
4
 74
0
 40
0
 40
0
 40
0
 40
0
 40
1
 40
1
 40
1
 40
1
 10
176.873958
 20
183.158175
 30
0.0
 10
176.702568
 20
183.497725
 30
0.0
 10
176.431739
 20
184.053350
 30
0.0
 10
176.265417
 20
184.392897
 30
0.0
  0
SPLINE
  5
352
100
AcDbEntity
  8
0
 62
7
100
AcDbSpline
 70
8
 71
3
 72
8
 73
4
 74
0
 40
0
 40
0
 40
0
 40
0
 40
1
 40
1
 40
1
 40
1
 10
176.265417
 20
184.392897
 30
0.0
 10
176.099092
 20
184.732447
 30
0.0
 10
175.715518
 20
185.486508
 30
0.0
 10
175.418750
 20
186.068592
 30
0.0
  0
SPLINE
  5
353
100
AcDbEntity
  8
0
 62
7
100
AcDbSpline
 70
8
 71
3
 72
8
 73
4
 74
0
 40
0
 40
0
 40
0
 40
0
 40
1
 40
1
 40
1
 40
1
 10
175.418750
 20
186.068592
 30
0.0
 10
175.121979
 20
186.650675
 30
0.0
 10
174.769865
 20
187.801614
 30
0.0
 10
174.633819
 20
188.626231
 30
0.0
  0
SPLINE
  5
354
100
AcDbEntity
  8
0
 62
7
100
AcDbSpline
 70
8
 71
3
 72
8
 73
4
 74
0
 40
0
 40
0
 40
0
 40
0
 40
1
 40
1
 40
1
 40
1
 10
174.633819
 20
188.626231
 30
0.0
 10
174.459846
 20
189.680737
 30
0.0
 10
174.506616
 20
190.192688
 30
0.0
 10
174.748472
 20
190.187272
 30
0.0
  0
LWPOLYLINE
  5
355
100
AcDbEntity
  8
0
 62
7
100
AcDbPolyline
 90
2
 70
0
 10
174.254583
 20
192.127550
 30
0.0
 10
174.254583
 20
192.127550
 30
0.0
  0
SPLINE
  5
356
100
AcDbEntity
  8
0
 62
7
100
AcDbSpline
 70
8
 71
3
 72
8
 73
4
 74
0
 40
0
 40
0
 40
0
 40
0
 40
1
 40
1
 40
1
 40
1
 10
162.965694
 20
184.004842
 30
0.0
 10
163.188610
 20
183.971184
 30
0.0
 10
163.987319
 20
183.654996
 30
0.0
 10
164.888333
 20
183.237550
 30
0.0
  0
SPLINE
  5
357
100
AcDbEntity
  8
0
 62
7
100
AcDbSpline
 70
8
 71
3
 72
8
 73
4
 74
0
 40
0
 40
0
 40
0
 40
0
 40
1
 40
1
 40
1
 40
1
 10
164.888333
 20
183.237550
 30
0.0
 10
165.918063
 20
182.760468
 30
0.0
 10
166.980723
 20
182.364425
 30
0.0
 10
167.251944
 20
182.364425
 30
0.0
  0
SPLINE
  5
358
100
AcDbEntity
  8
0
 62
7
100
AcDbSpline
 70
8
 71
3
 72
8
 73
4
 74
0
 40
0
 40
0
 40
0
 40
0
 40
1
 40
1
 40
1
 40
1
 10
167.251944
 20
182.364425
 30
0.0
 10
167.523163
 20
182.364425
 30
0.0
 10
167.972771
 20
181.848489
 30
0.0
 10
168.248542
 20
181.217897
 30
0.0
  0
SPLINE
  5
359
100
AcDbEntity
  8
0
 62
7
100
AcDbSpline
 70
8
 71
3
 72
8
 73
4
 74
0
 40
0
 40
0
 40
0
 40
0
 40
1
 40
1
 40
1
 40
1
 10
168.248542
 20
181.217897
 30
0.0
 10
168.711654
 20
180.158923
 30
0.0
 10
168.751123
 20
180.137370
 30
0.0
 10
168.777708
 20
180.935675
 30
0.0
  0
SPLINE
  5
35a
100
AcDbEntity
  8
0
 62
7
100
AcDbSpline
 70
8
 71
3
 72
8
 73
4
 74
0
 40
0
 40
0
 40
0
 40
0
 40
1
 40
1
 40
1
 40
1
 10
168.777708
 20
180.935675
 30
0.0
 10
168.800089
 20
181.607914
 30
0.0
 10
168.898243
 20
181.705905
 30
0.0
 10
169.227500
 20
181.376647
 30
0.0
  0
SPLINE
  5
35b
100
AcDbEntity
  8
0
 62
7
100
AcDbSpline
 70
8
 71
3
 72
8
 73
4
 74
0
 40
0
 40
0
 40
0
 40
0
 40
1
 40
1
 40
1
 40
1
 10
169.227500
 20
181.376647
 30
0.0
 10
169.460333
 20
181.143814
 30
0.0
 10
169.922898
 20
180.953314
 30
0.0
 10
170.250556
 20
180.953314
 30
0.0
  0
SPLINE
  5
35c
100
AcDbEntity
  8
0
 62
7
100
AcDbSpline
 70
8
 71
3
 72
8
 73
4
 74
0
 40
0
 40
0
 40
0
 40
0
 40
1
 40
1
 40
1
 40
1
 10
170.250556
 20
180.953314
 30
0.0
 10
170.654348
 20
180.953314
 30
0.0
 10
170.919394
 20
180.546014
 30
0.0
 10
171.079583
 20
179.692133
 30
0.0
  0
SPLINE
  5
35d
100
AcDbEntity
  8
0
 62
7
100
AcDbSpline
 70
8
 71
3
 72
8
 73
4
 74
0
 40
0
 40
0
 40
0
 40
0
 40
1
 40
1
 40
1
 40
1
 10
171.079583
 20
179.692133
 30
0.0
 10
171.209569
 20
178.999255
 30
0.0
 10
171.405344
 20
178.205505
 30
0.0
 10
171.511736
 20
177.928245
 30
0.0
  0
SPLINE
  5
35e
100
AcDbEntity
  8
0
 62
7
100
AcDbSpline
 70
8
 71
3
 72
8
 73
4
 74
0
 40
0
 40
0
 40
0
 40
0
 40
1
 40
1
 40
1
 40
1
 10
171.511736
 20
177.928245
 30
0.0
 10
171.845187
 20
177.059288
 30
0.0
 10
171.025247
 20
177.385018
 30
0.0
 10
170.100625
 20
178.483870
 30
0.0
  0
SPLINE
  5
35f
100
AcDbEntity
  8
0
 62
7
100
AcDbSpline
 70
8
 71
3
 72
8
 73
4
 74
0
 40
0
 40
0
 40
0
 40
0
 40
1
 40
1
 40
1
 40
1
 10
170.100625
 20
178.483870
 30
0.0
 10
169.613445
 20
179.062851
 30
0.0
 10
169.151131
 20
179.357192
 30
0.0
 10
169.077569
 20
179.136508
 30
0.0
  0
SPLINE
  5
360
100
AcDbEntity
  8
0
 62
7
100
AcDbSpline
 70
8
 71
3
 72
8
 73
4
 74
0
 40
0
 40
0
 40
0
 40
0
 40
1
 40
1
 40
1
 40
1
 10
169.077569
 20
179.136508
 30
0.0
 10
168.988243
 20
178.868533
 30
0.0
 10
168.614558
 20
178.944112
 30
0.0
 10
167.957500
 20
179.374633
 30
0.0
  0
SPLINE
  5
361
100
AcDbEntity
  8
0
 62
7
100
AcDbSpline
 70
8
 71
3
 72
8
 73
4
 74
0
 40
0
 40
0
 40
0
 40
0
 40
1
 40
1
 40
1
 40
1
 10
167.957500
 20
179.374633
 30
0.0
 10
166.352680
 20
180.426151
 30
0.0
 10
164.791898
 20
181.310777
 30
0.0
 10
164.156319
 20
181.526578
 30
0.0
  0
SPLINE
  5
362
100
AcDbEntity
  8
0
 62
7
100
AcDbSpline
 70
8
 71
3
 72
8
 73
4
 74
0
 40
0
 40
0
 40
0
 40
0
 40
1
 40
1
 40
1
 40
1
 10
164.156319
 20
181.526578
 30
0.0
 10
163.638109
 20
181.702529
 30
0.0
 10
162.627208
 20
183.710447
 30
0.0
 10
162.912778
 20
183.996022
 30
0.0
  0
SPLINE
  5
363
100
AcDbEntity
  8
0
 62
7
100
AcDbSpline
 70
8
 71
3
 72
8
 73
4
 74
0
 40
0
 40
0
 40
0
 40
0
 40
1
 40
1
 40
1
 40
1
 10
162.912778
 20
183.996022
 30
0.0
 10
162.919972
 20
184.003219
 30
0.0
 10
162.933848
 20
184.009651
 30
0.0
 10
162.965694
 20
184.004842
 30
0.0
  0
LWPOLYLINE
  5
364
100
AcDbEntity
  8
0
 62
7
100
AcDbPolyline
 90
2
 70
0
 10
174.748472
 20
190.187272
 30
0.0
 10
174.748472
 20
190.187272
 30
0.0
  0
SPLINE
  5
365
100
AcDbEntity
  8
0
 62
7
100
AcDbSpline
 70
8
 71
3
 72
8
 73
4
 74
0
 40
0
 40
0
 40
0
 40
0
 40
1
 40
1
 40
1
 40
1
 10
179.625625
 20
178.131092
 30
0.0
 10
179.698351
 20
178.134191
 30
0.0
 10
179.785696
 20
178.131092
 30
0.0
 10
179.881389
 20
178.131092
 30
0.0
  0
SPLINE
  5
366
100
AcDbEntity
  8
0
 62
7
100
AcDbSpline
 70
8
 71
3
 72
8
 73
4
 74
0
 40
0
 40
0
 40
0
 40
0
 40
1
 40
1
 40
1
 40
1
 10
179.881389
 20
178.131092
 30
0.0
 10
180.573440
 20
178.131092
 30
0.0
 10
180.752307
 20
177.846725
 30
0.0
 10
181.142569
 20
176.102620
 30
0.0
  0
SPLINE
  5
367
100
AcDbEntity
  8
0
 62
7
100
AcDbSpline
 70
8
 71
3
 72
8
 73
4
 74
0
 40
0
 40
0
 40
0
 40
0
 40
1
 40
1
 40
1
 40
1
 10
181.142569
 20
176.102620
 30
0.0
 10
181.392209
 20
174.986961
 30
0.0
 10
181.666896
 20
173.875711
 30
0.0
 10
181.759931
 20
173.633175
 30
0.0
  0
SPLINE
  5
368
100
AcDbEntity
  8
0
 62
7
100
AcDbSpline
 70
8
 71
3
 72
8
 73
4
 74
0
 40
0
 40
0
 40
0
 40
0
 40
1
 40
1
 40
1
 40
1
 10
181.759931
 20
173.633175
 30
0.0
 10
181.852965
 20
173.390642
 30
0.0
 10
181.705448
 20
173.192203
 30
0.0
 10
181.424792
 20
173.192203
 30
0.0
  0
SPLINE
  5
369
100
AcDbEntity
  8
0
 62
7
100
AcDbSpline
 70
8
 71
3
 72
8
 73
4
 74
0
 40
0
 40
0
 40
0
 40
0
 40
1
 40
1
 40
1
 40
1
 10
181.424792
 20
173.192203
 30
0.0
 10
180.878771
 20
173.192203
 30
0.0
 10
180.096640
 20
174.601155
 30
0.0
 10
180.093056
 20
175.591092
 30
0.0
  0
SPLINE
  5
36a
100
AcDbEntity
  8
0
 62
7
100
AcDbSpline
 70
8
 71
3
 72
8
 73
4
 74
0
 40
0
 40
0
 40
0
 40
0
 40
1
 40
1
 40
1
 40
1
 10
180.093056
 20
175.591092
 30
0.0
 10
180.091859
 20
175.921512
 30
0.0
 10
179.859869
 20
176.627378
 30
0.0
 10
179.581528
 20
177.160953
 30
0.0
  0
SPLINE
  5
36b
100
AcDbEntity
  8
0
 62
7
100
AcDbSpline
 70
8
 71
3
 72
8
 73
4
 74
0
 40
0
 40
0
 40
0
 40
0
 40
1
 40
1
 40
1
 40
1
 10
179.581528
 20
177.160953
 30
0.0
 10
179.160351
 20
177.968348
 30
0.0
 10
179.116547
 20
178.109403
 30
0.0
 10
179.625625
 20
178.131092
 30
0.0
  0
LWPOLYLINE
  5
36c
100
AcDbEntity
  8
0
 62
7
100
AcDbPolyline
 90
2
 70
0
 10
162.965694
 20
184.004842
 30
0.0
 10
162.965694
 20
184.004842
 30
0.0
  0
SPLINE
  5
36d
100
AcDbEntity
  8
0
 62
7
100
AcDbSpline
 70
8
 71
3
 72
8
 73
4
 74
0
 40
0
 40
0
 40
0
 40
0
 40
1
 40
1
 40
1
 40
1
 10
190.323611
 20
178.131092
 30
0.0
 10
190.517639
 20
178.131092
 30
0.0
 10
190.676389
 20
177.654842
 30
0.0
 10
190.676389
 20
177.072758
 30
0.0
  0
SPLINE
  5
36e
100
AcDbEntity
  8
0
 62
7
100
AcDbSpline
 70
8
 71
3
 72
8
 73
4
 74
0
 40
0
 40
0
 40
0
 40
0
 40
1
 40
1
 40
1
 40
1
 10
190.676389
 20
177.072758
 30
0.0
 10
190.676389
 20
176.490675
 30
0.0
 10
190.517639
 20
176.014425
 30
0.0
 10
190.323611
 20
176.014425
 30
0.0
  0
SPLINE
  5
36f
100
AcDbEntity
  8
0
 62
7
100
AcDbSpline
 70
8
 71
3
 72
8
 73
4
 74
0
 40
0
 40
0
 40
0
 40
0
 40
1
 40
1
 40
1
 40
1
 10
190.323611
 20
176.014425
 30
0.0
 10
190.129583
 20
176.014425
 30
0.0
 10
189.970833
 20
176.490675
 30
0.0
 10
189.970833
 20
177.072758
 30
0.0
  0
SPLINE
  5
370
100
AcDbEntity
  8
0
 62
7
100
AcDbSpline
 70
8
 71
3
 72
8
 73
4
 74
0
 40
0
 40
0
 40
0
 40
0
 40
1
 40
1
 40
1
 40
1
 10
189.970833
 20
177.072758
 30
0.0
 10
189.970833
 20
177.654842
 30
0.0
 10
190.129583
 20
178.131092
 30
0.0
 10
190.323611
 20
178.131092
 30
0.0
  0
LWPOLYLINE
  5
371
100
AcDbEntity
  8
0
 62
7
100
AcDbPolyline
 90
2
 70
0
 10
179.625625
 20
178.131092
 30
0.0
 10
179.625625
 20
178.131092
 30
0.0
  0
SPLINE
  5
372
100
AcDbEntity
  8
0
 62
7
100
AcDbSpline
 70
8
 71
3
 72
8
 73
4
 74
0
 40
0
 40
0
 40
0
 40
0
 40
1
 40
1
 40
1
 40
1
 10
184.105903
 20
176.799356
 30
0.0
 10
184.194845
 20
176.791092
 30
0.0
 10
184.297026
 20
176.734699
 30
0.0
 10
184.423403
 20
176.667064
 30
0.0
  0
SPLINE
  5
373
100
AcDbEntity
  8
0
 62
7
100
AcDbSpline
 70
8
 71
3
 72
8
 73
4
 74
0
 40
0
 40
0
 40
0
 40
0
 40
1
 40
1
 40
1
 40
1
 10
184.423403
 20
176.667064
 30
0.0
 10
185.081923
 20
176.314633
 30
0.0
 10
185.113823
 20
176.054786
 30
0.0
 10
184.890833
 20
172.530745
 30
0.0
  0
SPLINE
  5
374
100
AcDbEntity
  8
0
 62
7
100
AcDbSpline
 70
8
 71
3
 72
8
 73
4
 74
0
 40
0
 40
0
 40
0
 40
0
 40
1
 40
1
 40
1
 40
1
 10
184.890833
 20
172.530745
 30
0.0
 10
184.759970
 20
170.462634
 30
0.0
 10
184.415848
 20
167.667951
 30
0.0
 10
184.132361
 20
166.313036
 30
0.0
  0
SPLINE
  5
375
100
AcDbEntity
  8
0
 62
7
100
AcDbSpline
 70
8
 71
3
 72
8
 73
4
 74
0
 40
0
 40
0
 40
0
 40
0
 40
1
 40
1
 40
1
 40
1
 10
184.132361
 20
166.313036
 30
0.0
 10
183.848877
 20
164.958124
 30
0.0
 10
183.620833
 20
163.407104
 30
0.0
 10
183.620833
 20
162.873453
 30
0.0
  0
SPLINE
  5
376
100
AcDbEntity
  8
0
 62
7
100
AcDbSpline
 70
8
 71
3
 72
8
 73
4
 74
0
 40
0
 40
0
 40
0
 40
0
 40
1
 40
1
 40
1
 40
1
 10
183.620833
 20
162.873453
 30
0.0
 10
183.620833
 20
162.339807
 30
0.0
 10
183.498515
 20
161.903314
 30
0.0
 10
183.347431
 20
161.903314
 30
0.0
  0
SPLINE
  5
377
100
AcDbEntity
  8
0
 62
7
100
AcDbSpline
 70
8
 71
3
 72
8
 73
4
 74
0
 40
0
 40
0
 40
0
 40
0
 40
1
 40
1
 40
1
 40
1
 10
183.347431
 20
161.903314
 30
0.0
 10
182.923149
 20
161.903314
 30
0.0
 10
182.242787
 20
166.872446
 30
0.0
 10
182.553681
 20
167.697689
 30
0.0
  0
SPLINE
  5
378
100
AcDbEntity
  8
0
 62
7
100
AcDbSpline
 70
8
 71
3
 72
8
 73
4
 74
0
 40
0
 40
0
 40
0
 40
0
 40
1
 40
1
 40
1
 40
1
 10
182.553681
 20
167.697689
 30
0.0
 10
182.705319
 20
168.100206
 30
0.0
 10
183.030314
 20
170.373672
 30
0.0
 10
183.276875
 20
172.742411
 30
0.0
  0
SPLINE
  5
379
100
AcDbEntity
  8
0
 62
7
100
AcDbSpline
 70
8
 71
3
 72
8
 73
4
 74
0
 40
0
 40
0
 40
0
 40
0
 40
1
 40
1
 40
1
 40
1
 10
183.276875
 20
172.742411
 30
0.0
 10
183.626269
 20
176.099047
 30
0.0
 10
183.720486
 20
176.835164
 30
0.0
 10
184.105903
 20
176.799356
 30
0.0
  0
LWPOLYLINE
  5
37a
100
AcDbEntity
  8
0
 62
7
100
AcDbPolyline
 90
2
 70
0
 10
190.323611
 20
178.131092
 30
0.0
 10
190.323611
 20
178.131092
 30
0.0
  0
SPLINE
  5
37b
100
AcDbEntity
  8
0
 62
7
100
AcDbSpline
 70
8
 71
3
 72
8
 73
4
 74
0
 40
0
 40
0
 40
0
 40
0
 40
1
 40
1
 40
1
 40
1
 10
175.939097
 20
176.640606
 30
0.0
 10
175.990829
 20
176.680007
 30
0.0
 10
176.074234
 20
176.581156
 30
0.0
 10
176.212500
 20
176.367203
 30
0.0
  0
SPLINE
  5
37c
100
AcDbEntity
  8
0
 62
7
100
AcDbSpline
 70
8
 71
3
 72
8
 73
4
 74
0
 40
0
 40
0
 40
0
 40
0
 40
1
 40
1
 40
1
 40
1
 10
176.212500
 20
176.367203
 30
0.0
 10
176.400587
 20
176.076161
 30
0.0
 10
176.553636
 20
175.718975
 30
0.0
 10
176.556458
 20
175.573453
 30
0.0
  0
SPLINE
  5
37d
100
AcDbEntity
  8
0
 62
7
100
AcDbSpline
 70
8
 71
3
 72
8
 73
4
 74
0
 40
0
 40
0
 40
0
 40
0
 40
1
 40
1
 40
1
 40
1
 10
176.556458
 20
175.573453
 30
0.0
 10
176.559430
 20
175.427934
 30
0.0
 10
176.406528
 20
175.308870
 30
0.0
 10
176.212500
 20
175.308870
 30
0.0
  0
SPLINE
  5
37e
100
AcDbEntity
  8
0
 62
7
100
AcDbSpline
 70
8
 71
3
 72
8
 73
4
 74
0
 40
0
 40
0
 40
0
 40
0
 40
1
 40
1
 40
1
 40
1
 10
176.212500
 20
175.308870
 30
0.0
 10
176.018472
 20
175.308870
 30
0.0
 10
175.865719
 20
175.666059
 30
0.0
 10
175.868542
 20
176.102620
 30
0.0
  0
SPLINE
  5
37f
100
AcDbEntity
  8
0
 62
7
100
AcDbSpline
 70
8
 71
3
 72
8
 73
4
 74
0
 40
0
 40
0
 40
0
 40
0
 40
1
 40
1
 40
1
 40
1
 10
175.868542
 20
176.102620
 30
0.0
 10
175.870726
 20
176.423549
 30
0.0
 10
175.887366
 20
176.601205
 30
0.0
 10
175.939097
 20
176.640606
 30
0.0
  0
LWPOLYLINE
  5
380
100
AcDbEntity
  8
0
 62
7
100
AcDbPolyline
 90
2
 70
0
 10
184.105903
 20
176.799356
 30
0.0
 10
184.105903
 20
176.799356
 30
0.0
  0
SPLINE
  5
381
100
AcDbEntity
  8
0
 62
7
100
AcDbSpline
 70
8
 71
3
 72
8
 73
4
 74
0
 40
0
 40
0
 40
0
 40
0
 40
1
 40
1
 40
1
 40
1
 10
181.468889
 20
172.857064
 30
0.0
 10
181.777519
 20
172.847892
 30
0.0
 10
182.195594
 20
171.943443
 30
0.0
 10
182.200903
 20
171.163731
 30
0.0
  0
SPLINE
  5
382
100
AcDbEntity
  8
0
 62
7
100
AcDbSpline
 70
8
 71
3
 72
8
 73
4
 74
0
 40
0
 40
0
 40
0
 40
0
 40
1
 40
1
 40
1
 40
1
 10
182.200903
 20
171.163731
 30
0.0
 10
182.203875
 20
170.727170
 30
0.0
 10
182.070815
 20
170.369981
 30
0.0
 10
181.901042
 20
170.369981
 30
0.0
  0
SPLINE
  5
383
100
AcDbEntity
  8
0
 62
7
100
AcDbSpline
 70
8
 71
3
 72
8
 73
4
 74
0
 40
0
 40
0
 40
0
 40
0
 40
1
 40
1
 40
1
 40
1
 10
181.901042
 20
170.369981
 30
0.0
 10
181.541141
 20
170.369981
 30
0.0
 10
181.052639
 20
172.511373
 30
0.0
 10
181.345417
 20
172.804147
 30
0.0
  0
SPLINE
  5
384
100
AcDbEntity
  8
0
 62
7
100
AcDbSpline
 70
8
 71
3
 72
8
 73
4
 74
0
 40
0
 40
0
 40
0
 40
0
 40
1
 40
1
 40
1
 40
1
 10
181.345417
 20
172.804147
 30
0.0
 10
181.383330
 20
172.842061
 30
0.0
 10
181.424800
 20
172.858374
 30
0.0
 10
181.468889
 20
172.857064
 30
0.0
  0
LWPOLYLINE
  5
385
100
AcDbEntity
  8
0
 62
7
100
AcDbPolyline
 90
2
 70
0
 10
175.939097
 20
176.640606
 30
0.0
 10
175.939097
 20
176.640606
 30
0.0
  0
LWPOLYLINE
  5
386
100
AcDbEntity
  8
0
 62
7
100
AcDbPolyline
 90
2
 70
0
 10
181.468889
 20
172.857064
 30
0.0
 10
181.468889
 20
172.857064
 30
0.0
  0
ENDSEC
  0
SECTION
  2
OBJECTS
  0
DICTIONARY
  5
C
330
0
100
AcDbDictionary
  3
ACAD_GROUP
350
D
  3
ACAD_MLINESTYLE
350
17
  0
DICTIONARY
  5
D
330
C
100
AcDbDictionary
  0
DICTIONARY
  5
1A
330
C
100
AcDbDictionary
  0
DICTIONARY
  5
17
330
C
100
AcDbDictionary
  3
STANDARD
350
18
  0
DICTIONARY
  5
19
330
C
100
AcDbDictionary
  0
ENDSEC
  0
EOF
