999
dxfrw 0.5.10
0
SECTION
2
HEADER
9
$ACADVER
1
AC1021
9
$HANDSEED
5
20000
9
$DWGCODEPAGE
3
ANSI_1252
9
$INSBASE
10
0
20
0
30
0
9
$EXTMIN
10
2.5
20
2.5
30
0
9
$EXTMAX
10
77.5
20
77.5
30
0
9
$LIMMIN
10
0
20
0
9
$LIMMAX
10
420
20
297
9
$ORTHOMODE
70
0
9
$LTSCALE
40
1
9
$TEXTSTYLE
7
STANDARD
9
$CLAYER
8
mokou
9
$DIMASZ
40
2.5
9
$DIMLFAC
40
1
9
$DIMSCALE
40
1
9
$DIMEXO
40
0.625
9
$DIMEXE
40
1.25
9
$DIMTXT
40
2.5
9
$DIMTSZ
40
0
9
$DIMAUNIT
70
0
9
$DIMADEC
70
0
9
$DIMLUNIT
70
2
9
$DIMSTYLE
2
Standard
9
$DIMGAP
40
0.625
9
$DIMTIH
70
0
9
$LUNITS
70
2
9
$LUPREC
70
4
9
$AUNITS
70
0
9
$AUPREC
70
2
9
$SPLINESEGS
70
8
9
$GRIDMODE
70
0
9
$SNAPSTYLE
70
0
9
$PINSBASE
10
0
20
0
30
0
9
$PLIMMIN
10
0
20
0
9
$PLIMMAX
10
210
20
297
9
$INSUNITS
70
4
9
$PSVPSCALE
40
1
0
ENDSEC
0
SECTION
2
CLASSES
0
ENDSEC
0
SECTION
2
TABLES
0
TABLE
2
VPORT
5
8
330
0
100
AcDbSymbolTable
70
1
0
VPORT
5
31
330
2
100
AcDbSymbolTableRecord
100
AcDbViewportTableRecord
2
*ACTIVE
70
0
10
0
20
0
11
1
21
1
12
60.2054794521
22
39.2465753425
13
0
23
0
14
10
24
10
15
10
25
10
16
0
26
0
36
1
17
0
27
0
37
0
40
77.0547945205
41
2.08533333333
42
50
43
0
44
0
50
0
51
0
71
0
72
100
73
1
74
3
75
0
76
0
77
0
78
0
281
0
65
1
110
0
120
0
130
0
111
1
121
0
131
0
112
0
122
1
132
0
79
0
146
0
348
10020
60
7
61
5
292
1
282
1
141
0
142
0
63
250
421
3358443
0
ENDTAB
0
TABLE
2
LTYPE
5
5
330
0
100
AcDbSymbolTable
70
4
0
LTYPE
5
14
330
5
100
AcDbSymbolTableRecord
100
AcDbLinetypeTableRecord
2
ByBlock
70
0
3

72
65
73
0
40
0
0
LTYPE
5
15
330
5
100
AcDbSymbolTableRecord
100
AcDbLinetypeTableRecord
2
ByLayer
70
0
3

72
65
73
0
40
0
0
LTYPE
5
16
330
5
100
AcDbSymbolTableRecord
100
AcDbLinetypeTableRecord
2
Continuous
70
0
3
Solid line
72
65
73
0
40
0
0
LTYPE
5
32
330
5
100
AcDbSymbolTableRecord
100
AcDbLinetypeTableRecord
2
DOT
70
0
3
Dot . . . . . . . . . . . . . . . . . . . . . .
72
65
73
2
40
6.35
49
0
74
0
49
-6.35
74
0
0
LTYPE
5
33
330
5
100
AcDbSymbolTableRecord
100
AcDbLinetypeTableRecord
2
DOT2
70
0
3
Dot (.5x) .....................................
72
65
73
2
40
3.175
49
0
74
0
49
-3.175
74
0
0
LTYPE
5
34
330
5
100
AcDbSymbolTableRecord
100
AcDbLinetypeTableRecord
2
DOTX2
70
0
3
Dot (2x) .  .  .  .  .  .  .  .  .  .  .  .  .
72
65
73
2
40
12.7
49
0
74
0
49
-12.7
74
0
0
LTYPE
5
35
330
5
100
AcDbSymbolTableRecord
100
AcDbLinetypeTableRecord
2
DASHED
70
0
3
Dot . . . . . . . . . . . . . . . . . . . . . .
72
65
73
2
40
19.05
49
12.7
74
0
49
-6.35
74
0
0
LTYPE
5
36
330
5
100
AcDbSymbolTableRecord
100
AcDbLinetypeTableRecord
2
DASHED2
70
0
3
Dashed (.5x) _ _ _ _ _ _ _ _ _ _ _ _ _ _ _ _ _
72
65
73
2
40
9.525
49
6.35
74
0
49
-3.175
74
0
0
LTYPE
5
37
330
5
100
AcDbSymbolTableRecord
100
AcDbLinetypeTableRecord
2
DASHEDX2
70
0
3
Dashed (2x) ____  ____  ____  ____  ____  ___
72
65
73
2
40
38.1
49
25.4
74
0
49
-12.7
74
0
0
LTYPE
5
38
330
5
100
AcDbSymbolTableRecord
100
AcDbLinetypeTableRecord
2
DASHDOT
70
0
3
Dash dot __ . __ . __ . __ . __ . __ . __ . __
72
65
73
4
40
25.4
49
12.7
74
0
49
-6.35
74
0
49
0
74
0
49
-6.35
74
0
0
LTYPE
5
39
330
5
100
AcDbSymbolTableRecord
100
AcDbLinetypeTableRecord
2
DASHDOT2
70
0
3
Dash dot (.5x) _._._._._._._._._._._._._._._.
72
65
73
4
40
12.7
49
6.35
74
0
49
-3.175
74
0
49
0
74
0
49
-3.175
74
0
0
LTYPE
5
3A
330
5
100
AcDbSymbolTableRecord
100
AcDbLinetypeTableRecord
2
DASHDOTX2
70
0
3
Dash dot (2x) ____  .  ____  .  ____  .  ___
72
65
73
4
40
50.8
49
25.4
74
0
49
-12.7
74
0
49
0
74
0
49
-12.7
74
0
0
LTYPE
5
3B
330
5
100
AcDbSymbolTableRecord
100
AcDbLinetypeTableRecord
2
DIVIDE
70
0
3
Divide ____ . . ____ . . ____ . . ____ . . ____
72
65
73
6
40
31.75
49
12.7
74
0
49
-6.35
74
0
49
0
74
0
49
-6.35
74
0
49
0
74
0
49
-6.35
74
0
0
LTYPE
5
3C
330
5
100
AcDbSymbolTableRecord
100
AcDbLinetypeTableRecord
2
DIVIDE2
70
0
3
Divide (.5x) __..__..__..__..__..__..__..__.._
72
65
73
6
40
15.875
49
6.35
74
0
49
-3.175
74
0
49
0
74
0
49
-3.175
74
0
49
0
74
0
49
-3.175
74
0
0
LTYPE
5
3D
330
5
100
AcDbSymbolTableRecord
100
AcDbLinetypeTableRecord
2
DIVIDEX2
70
0
3
Divide (2x) ________  .  .  ________  .  .  _
72
65
73
6
40
63.5
49
25.4
74
0
49
-12.7
74
0
49
0
74
0
49
-12.7
74
0
49
0
74
0
49
-12.7
74
0
0
LTYPE
5
3E
330
5
100
AcDbSymbolTableRecord
100
AcDbLinetypeTableRecord
2
BORDER
70
0
3
Border __ __ . __ __ . __ __ . __ __ . __ __ .
72
65
73
6
40
44.45
49
12.7
74
0
49
-6.35
74
0
49
12.7
74
0
49
-6.35
74
0
49
0
74
0
49
-6.35
74
0
0
LTYPE
5
3F
330
5
100
AcDbSymbolTableRecord
100
AcDbLinetypeTableRecord
2
BORDER2
70
0
3
Border (.5x) __.__.__.__.__.__.__.__.__.__.__.
72
65
73
6
40
22.225
49
6.35
74
0
49
-3.175
74
0
49
6.35
74
0
49
-3.175
74
0
49
0
74
0
49
-3.175
74
0
0
LTYPE
5
40
330
5
100
AcDbSymbolTableRecord
100
AcDbLinetypeTableRecord
2
BORDERX2
70
0
3
Border (2x) ____  ____  .  ____  ____  .  ___
72
65
73
6
40
88.9
49
25.4
74
0
49
-12.7
74
0
49
25.4
74
0
49
-12.7
74
0
49
0
74
0
49
-12.7
74
0
0
LTYPE
5
41
330
5
100
AcDbSymbolTableRecord
100
AcDbLinetypeTableRecord
2
CENTER
70
0
3
Center ____ _ ____ _ ____ _ ____ _ ____ _ ____
72
65
73
4
40
50.8
49
31.75
74
0
49
-6.35
74
0
49
6.35
74
0
49
-6.35
74
0
0
LTYPE
5
42
330
5
100
AcDbSymbolTableRecord
100
AcDbLinetypeTableRecord
2
CENTER2
70
0
3
Center (.5x) ___ _ ___ _ ___ _ ___ _ ___ _ ___
72
65
73
4
40
28.575
49
19.05
74
0
49
-3.175
74
0
49
3.175
74
0
49
-3.175
74
0
0
LTYPE
5
43
330
5
100
AcDbSymbolTableRecord
100
AcDbLinetypeTableRecord
2
CENTERX2
70
0
3
Center (2x) ________  __  ________  __  _____
72
65
73
4
40
101.6
49
63.5
74
0
49
-12.7
74
0
49
12.7
74
0
49
-12.7
74
0
0
ENDTAB
0
TABLE
2
LAYER
5
2
330
0
100
AcDbSymbolTable
70
1
0
LAYER
5
10
330
2
100
AcDbSymbolTableRecord
100
AcDbLayerTableRecord
2
0
70
0
62
7
6
CONTINUOUS
370
-3
390
F
0
LAYER
5
44
330
2
100
AcDbSymbolTableRecord
100
AcDbLayerTableRecord
2
mokou
70
0
62
7
6
CONTINUOUS
370
0
390
F
0
ENDTAB
0
TABLE
2
STYLE
5
3
330
0
100
AcDbSymbolTable
70
3
0
STYLE
5
45
330
2
100
AcDbSymbolTableRecord
100
AcDbTextStyleTableRecord
2
Standard
70
0
40
0
41
1
50
0
71
0
42
1
3
txt
4

0
ENDTAB
0
TABLE
2
VIEW
5
6
330
0
100
AcDbSymbolTable
70
0
0
ENDTAB
0
TABLE
2
UCS
5
7
330
0
100
AcDbSymbolTable
70
0
0
ENDTAB
0
TABLE
2
APPID
5
9
330
0
100
AcDbSymbolTable
70
1
0
APPID
5
12
330
9
100
AcDbSymbolTableRecord
100
AcDbRegAppTableRecord
2
ACAD
70
0
0
ENDTAB
0
TABLE
2
DIMSTYLE
5
A
330
0
100
AcDbSymbolTable
70
1
100
AcDbDimStyleTable
71
1
0
DIMSTYLE
105
46
330
A
100
AcDbSymbolTableRecord
100
AcDbDimStyleTableRecord
2
Standard
70
0
40
1
41
2.5
42
0.625
43
0.38
44
1.25
45
0
46
0
47
0
48
0
140
2.5
141
0.09
142
0
143
25.4
144
1
145
0
146
1
147
0.625
148
0
71
0
72
0
73
0
74
1
75
0
76
0
77
0
78
0
79
0
170
0
171
2
172
0
173
0
174
0
175
0
176
0
177
0
178
0
179
0
271
4
272
4
273
2
274
2
275
0
276
0
277
2
278
46
279
0
280
0
281
0
282
0
283
1
284
0
285
0
286
0
288
0
289
3
340
Standard
341

371
-2
372
-2
0
ENDTAB
0
TABLE
2
BLOCK_RECORD
5
1
330
0
100
AcDbSymbolTable
70
2
0
BLOCK_RECORD
5
1F
330
1
100
AcDbSymbolTableRecord
100
AcDbBlockTableRecord
2
*Model_Space
70
0
280
1
281
0
0
BLOCK_RECORD
5
1E
330
1
100
AcDbSymbolTableRecord
100
AcDbBlockTableRecord
2
*Paper_Space
70
0
280
1
281
0
0
ENDTAB
0
ENDSEC
0
SECTION
2
BLOCKS
0
BLOCK
5
20
330
1F
100
AcDbEntity
8
0
100
AcDbBlockBegin
2
*Model_Space
70
0
10
0
20
0
30
0
3
*Model_Space
1

0
ENDBLK
5
21
330
1F
100
AcDbEntity
8
0
100
AcDbBlockEnd
0
BLOCK
5
1C
330
1B
100
AcDbEntity
8
0
100
AcDbBlockBegin
2
*Paper_Space
70
0
10
0
20
0
30
0
3
*Paper_Space
1

0
ENDBLK
5
1D
330
1F
100
AcDbEntity
8
0
100
AcDbBlockEnd
0
ENDSEC
0
SECTION
2
ENTITIES
0
CIRCLE
5
47
100
AcDbEntity
8
0
6
ByLayer
62
256
370
-1
100
AcDbCircle
10
40
20
40
40
37.5
0
SPLINE
5
48
100
AcDbEntity
8
mokou
6
ByLayer
62
7
370
-1
100
AcDbSpline
210
0
220
0
230
1
70
8
71
3
72
8
73
4
74
0
42
1e-07
43
1e-07
40
0
40
0
40
0
40
0
40
1
40
1
40
1
40
1
10
31.6330898973
20
68.9243461616
30
0
10
31.4968637973
20
68.9243461616
30
0
10
31.2308132973
20
68.6819731616
30
0
10
31.2256316973
20
68.5539295616
30
0
0
SPLINE
5
49
100
AcDbEntity
8
mokou
6
ByLayer
62
7
370
-1
100
AcDbSpline
210
0
220
0
230
1
70
8
71
3
72
8
73
4
74
0
42
1e-07
43
1e-07
40
0
40
0
40
0
40
0
40
1
40
1
40
1
40
1
10
31.2256316973
20
68.5539295616
30
0
10
31.2243548973
20
68.5224199616
30
0
10
31.1786780973
20
68.4514129616
30
0
10
31.1250899973
20
68.3978251616
30
0
0
SPLINE
5
4A
100
AcDbEntity
8
mokou
6
ByLayer
62
7
370
-1
100
AcDbSpline
210
0
220
0
230
1
70
8
71
3
72
8
73
4
74
0
42
1e-07
43
1e-07
40
0
40
0
40
0
40
0
40
1
40
1
40
1
40
1
10
31.1250899973
20
68.3978251616
30
0
10
31.0715027973
20
68.3442373616
30
0
10
30.9715247973
20
68.1195400616
30
0
10
30.9028397973
20
67.8977626616
30
0
0
SPLINE
5
4B
100
AcDbEntity
8
mokou
6
ByLayer
62
7
370
-1
100
AcDbSpline
210
0
220
0
230
1
70
8
71
3
72
8
73
4
74
0
42
1e-07
43
1e-07
40
0
40
0
40
0
40
0
40
1
40
1
40
1
40
1
10
30.9028397973
20
67.8977626616
30
0
10
30.8341547973
20
67.6759855616
30
0
10
30.7571066973
20
67.4777341616
30
0
10
30.7308605973
20
67.4585545616
30
0
0
SPLINE
5
4C
100
AcDbEntity
8
mokou
6
ByLayer
62
7
370
-1
100
AcDbSpline
210
0
220
0
230
1
70
8
71
3
72
8
73
4
74
0
42
1e-07
43
1e-07
40
0
40
0
40
0
40
0
40
1
40
1
40
1
40
1
10
30.7308605973
20
67.4585545616
30
0
10
30.7046141973
20
67.4393746616
30
0
10
30.6071930973
20
67.1906242616
30
0
10
30.5165480973
20
66.9029293616
30
0
0
SPLINE
5
4D
100
AcDbEntity
8
mokou
6
ByLayer
62
7
370
-1
100
AcDbSpline
210
0
220
0
230
1
70
8
71
3
72
8
73
4
74
0
42
1e-07
43
1e-07
40
0
40
0
40
0
40
0
40
1
40
1
40
1
40
1
10
30.5165480973
20
66.9029293616
30
0
10
30.4259033973
20
66.6152347616
30
0
10
30.3341897973
20
66.3638383616
30
0
10
30.3128189973
20
66.3446584616
30
0
0
SPLINE
5
4E
100
AcDbEntity
8
mokou
6
ByLayer
62
7
370
-1
100
AcDbSpline
210
0
220
0
230
1
70
8
71
3
72
8
73
4
74
0
42
1e-07
43
1e-07
40
0
40
0
40
0
40
0
40
1
40
1
40
1
40
1
10
30.3128189973
20
66.3446584616
30
0
10
30.2772428973
20
66.3127288616
30
0
10
30.1827803973
20
66.0203068616
30
0
10
30.0641105973
20
65.5773670616
30
0
0
SPLINE
5
4F
100
AcDbEntity
8
mokou
6
ByLayer
62
7
370
-1
100
AcDbSpline
210
0
220
0
230
1
70
8
71
3
72
8
73
4
74
0
42
1e-07
43
1e-07
40
0
40
0
40
0
40
0
40
1
40
1
40
1
40
1
10
30.0641105973
20
65.5773670616
30
0
10
30.0384176973
20
65.4814687616
30
0
10
29.9926808973
20
65.3862592616
30
0
10
29.9609231973
20
65.3657002616
30
0
0
SPLINE
5
50
100
AcDbEntity
8
mokou
6
ByLayer
62
7
370
-1
100
AcDbSpline
210
0
220
0
230
1
70
8
71
3
72
8
73
4
74
0
42
1e-07
43
1e-07
40
0
40
0
40
0
40
0
40
1
40
1
40
1
40
1
10
29.9609231973
20
65.3657002616
30
0
10
29.9291648973
20
65.3451412616
30
0
10
29.8331570973
20
64.9362913616
30
0
10
29.7492566973
20
64.4581795616
30
0
0
SPLINE
5
51
100
AcDbEntity
8
mokou
6
ByLayer
62
7
370
-1
100
AcDbSpline
210
0
220
0
230
1
70
8
71
3
72
8
73
4
74
0
42
1e-07
43
1e-07
40
0
40
0
40
0
40
0
40
1
40
1
40
1
40
1
10
29.7492566973
20
64.4581795616
30
0
10
29.6653553973
20
63.9800674616
30
0
10
29.5701974973
20
63.5793199616
30
0
10
29.5375898973
20
63.5665336616
30
0
0
SPLINE
5
52
100
AcDbEntity
8
mokou
6
ByLayer
62
7
370
-1
100
AcDbSpline
210
0
220
0
230
1
70
8
71
3
72
8
73
4
74
0
42
1e-07
43
1e-07
40
0
40
0
40
0
40
0
40
1
40
1
40
1
40
1
10
29.5375898973
20
63.5665336616
30
0
10
29.4537410973
20
63.5336539616
30
0
10
29.4636359973
20
63.0664711616
30
0
10
29.5481732973
20
63.0664711616
30
0
0
SPLINE
5
53
100
AcDbEntity
8
mokou
6
ByLayer
62
7
370
-1
100
AcDbSpline
210
0
220
0
230
1
70
8
71
3
72
8
73
4
74
0
42
1e-07
43
1e-07
40
0
40
0
40
0
40
0
40
1
40
1
40
1
40
1
10
29.5481732973
20
63.0664711616
30
0
10
29.5865321973
20
63.0664711616
30
0
10
29.6169647973
20
62.9969473616
30
0
10
29.6169647973
20
62.9130127616
30
0
0
SPLINE
5
54
100
AcDbEntity
8
mokou
6
ByLayer
62
7
370
-1
100
AcDbSpline
210
0
220
0
230
1
70
8
71
3
72
8
73
4
74
0
42
1e-07
43
1e-07
40
0
40
0
40
0
40
0
40
1
40
1
40
1
40
1
10
29.6169647973
20
62.9130127616
30
0
10
29.6169647973
20
62.6718223616
30
0
10
29.9091851973
20
62.3065279616
30
0
10
30.1699439973
20
62.2198045616
30
0
0
SPLINE
5
55
100
AcDbEntity
8
mokou
6
ByLayer
62
7
370
-1
100
AcDbSpline
210
0
220
0
230
1
70
8
71
3
72
8
73
4
74
0
42
1e-07
43
1e-07
40
0
40
0
40
0
40
0
40
1
40
1
40
1
40
1
10
30.1699439973
20
62.2198045616
30
0
10
30.3306482973
20
62.1663571616
30
0
10
30.7018565973
20
62.1574444616
30
0
10
31.3208816973
20
62.1907003616
30
0
0
SPLINE
5
56
100
AcDbEntity
8
mokou
6
ByLayer
62
7
370
-1
100
AcDbSpline
210
0
220
0
230
1
70
8
71
3
72
8
73
4
74
0
42
1e-07
43
1e-07
40
0
40
0
40
0
40
0
40
1
40
1
40
1
40
1
10
31.3208816973
20
62.1907003616
30
0
10
31.8233603973
20
62.2176949616
30
0
10
32.3724821973
20
62.2448971616
30
0
10
32.5432565973
20
62.2515544616
30
0
0
SPLINE
5
57
100
AcDbEntity
8
mokou
6
ByLayer
62
7
370
-1
100
AcDbSpline
210
0
220
0
230
1
70
8
71
3
72
8
73
4
74
0
42
1e-07
43
1e-07
40
0
40
0
40
0
40
0
40
1
40
1
40
1
40
1
10
32.9348399973
20
61.8679084616
30
0
10
33.0172121973
20
61.4592622616
30
0
10
33.1552127973
20
61.2514294616
30
0
10
33.3449441973
20
61.2514294616
30
0
0
SPLINE
5
58
100
AcDbEntity
8
mokou
6
ByLayer
62
7
370
-1
100
AcDbSpline
210
0
220
0
230
1
70
8
71
3
72
8
73
4
74
0
42
1e-07
43
1e-07
40
0
40
0
40
0
40
0
40
1
40
1
40
1
40
1
10
33.3449441973
20
61.2514294616
30
0
10
33.4081121973
20
61.2514294616
30
0
10
33.4534232973
20
61.1943868616
30
0
10
33.4534232973
20
61.1138461616
30
0
0
SPLINE
5
59
100
AcDbEntity
8
mokou
6
ByLayer
62
7
370
-1
100
AcDbSpline
210
0
220
0
230
1
70
8
71
3
72
8
73
4
74
0
42
1e-07
43
1e-07
40
0
40
0
40
0
40
0
40
1
40
1
40
1
40
1
10
33.4534232973
20
61.1138461616
30
0
10
33.4534232973
20
60.9697924616
30
0
10
33.2265293973
20
60.4924927616
30
0
10
33.1226939973
20
60.4206376616
30
0
0
SPLINE
5
5A
100
AcDbEntity
8
mokou
6
ByLayer
62
7
370
-1
100
AcDbSpline
210
0
220
0
230
1
70
8
71
3
72
8
73
4
74
0
42
1e-07
43
1e-07
40
0
40
0
40
0
40
0
40
1
40
1
40
1
40
1
10
33.1226939973
20
60.4206376616
30
0
10
33.0371060973
20
60.3614107616
30
0
10
32.7575690973
20
59.8007650616
30
0
10
32.7575690973
20
59.6877418616
30
0
0
SPLINE
5
5B
100
AcDbEntity
8
mokou
6
ByLayer
62
7
370
-1
100
AcDbSpline
210
0
220
0
230
1
70
8
71
3
72
8
73
4
74
0
42
1e-07
43
1e-07
40
0
40
0
40
0
40
0
40
1
40
1
40
1
40
1
10
32.7575690973
20
59.6877418616
30
0
10
32.7575690973
20
59.6345815616
30
0
10
32.7230909973
20
59.5792357616
30
0
10
32.6834855973
20
59.5660336616
30
0
0
SPLINE
5
5C
100
AcDbEntity
8
mokou
6
ByLayer
62
7
370
-1
100
AcDbSpline
210
0
220
0
230
1
70
8
71
3
72
8
73
4
74
0
42
1e-07
43
1e-07
40
0
40
0
40
0
40
0
40
1
40
1
40
1
40
1
10
32.6834855973
20
59.5660336616
30
0
10
32.6438804973
20
59.5528315616
30
0
10
32.5635536973
20
59.3539198616
30
0
10
32.5035689973
20
59.1241795616
30
0
0
SPLINE
5
5D
100
AcDbEntity
8
mokou
6
ByLayer
62
7
370
-1
100
AcDbSpline
210
0
220
0
230
1
70
8
71
3
72
8
73
4
74
0
42
1e-07
43
1e-07
40
0
40
0
40
0
40
0
40
1
40
1
40
1
40
1
10
32.5035689973
20
59.1241795616
30
0
10
32.4435842973
20
58.8944389616
30
0
10
32.3719868973
20
58.6909213616
30
0
10
32.3448191973
20
58.6717420616
30
0
0
SPLINE
5
5E
100
AcDbEntity
8
mokou
6
ByLayer
62
7
370
-1
100
AcDbSpline
210
0
220
0
230
1
70
8
71
3
72
8
73
4
74
0
42
1e-07
43
1e-07
40
0
40
0
40
0
40
0
40
1
40
1
40
1
40
1
10
32.3448191973
20
58.6717420616
30
0
10
32.2860545973
20
58.6302568616
30
0
10
31.9902773973
20
57.4684939616
30
0
10
31.9902773973
20
57.2800336616
30
0
0
SPLINE
5
5F
100
AcDbEntity
8
mokou
6
ByLayer
62
7
370
-1
100
AcDbSpline
210
0
220
0
230
1
70
8
71
3
72
8
73
4
74
0
42
1e-07
43
1e-07
40
0
40
0
40
0
40
0
40
1
40
1
40
1
40
1
10
31.9902773973
20
57.2800336616
30
0
10
31.9902773973
20
57.2079196616
30
0
10
31.9586603973
20
57.1393615616
30
0
10
31.9214855973
20
57.1265752616
30
0
0
SPLINE
5
60
100
AcDbEntity
8
mokou
6
ByLayer
62
7
370
-1
100
AcDbSpline
210
0
220
0
230
1
70
8
71
3
72
8
73
4
74
0
42
1e-07
43
1e-07
40
0
40
0
40
0
40
0
40
1
40
1
40
1
40
1
10
31.9214855973
20
57.1265752616
30
0
10
31.8430538973
20
57.0995986616
30
0
10
31.7423207973
20
56.3249818616
30
0
10
31.6383815973
20
54.9411169616
30
0
0
SPLINE
5
61
100
AcDbEntity
8
mokou
6
ByLayer
62
7
370
-1
100
AcDbSpline
210
0
220
0
230
1
70
8
71
3
72
8
73
4
74
0
42
1e-07
43
1e-07
40
0
40
0
40
0
40
0
40
1
40
1
40
1
40
1
10
31.6383815973
20
54.9411169616
30
0
10
31.5980453973
20
54.4040863616
30
0
10
31.5384764973
20
53.9012935616
30
0
10
31.5060899973
20
53.8245751616
30
0
0
SPLINE
5
62
100
AcDbEntity
8
mokou
6
ByLayer
62
7
370
-1
100
AcDbSpline
210
0
220
0
230
1
70
8
71
3
72
8
73
4
74
0
42
1e-07
43
1e-07
40
0
40
0
40
0
40
0
40
1
40
1
40
1
40
1
10
31.5060899973
20
53.8245751616
30
0
10
31.4737040973
20
53.7478561616
30
0
10
31.3950953973
20
53.2463593616
30
0
10
31.3314647973
20
52.7106793616
30
0
0
SPLINE
5
63
100
AcDbEntity
8
mokou
6
ByLayer
62
7
370
-1
100
AcDbSpline
210
0
220
0
230
1
70
8
71
3
72
8
73
4
74
0
42
1e-07
43
1e-07
40
0
40
0
40
0
40
0
40
1
40
1
40
1
40
1
10
31.3314647973
20
52.7106793616
30
0
10
31.2678344973
20
52.1749993616
30
0
10
31.1914421973
20
51.7205011616
30
0
10
31.1594855973
20
51.6999709616
30
0
0
SPLINE
5
64
100
AcDbEntity
8
mokou
6
ByLayer
62
7
370
-1
100
AcDbSpline
210
0
220
0
230
1
70
8
71
3
72
8
73
4
74
0
42
1e-07
43
1e-07
40
0
40
0
40
0
40
0
40
1
40
1
40
1
40
1
10
31.1594855973
20
51.6999709616
30
0
10
31.1275307973
20
51.6794410616
30
0
10
31.0300175973
20
51.1449202616
30
0
10
30.9425273973
20
50.5119919616
30
0
0
SPLINE
5
65
100
AcDbEntity
8
mokou
6
ByLayer
62
7
370
-1
100
AcDbSpline
210
0
220
0
230
1
70
8
71
3
72
8
73
4
74
0
42
1e-07
43
1e-07
40
0
40
0
40
0
40
0
40
1
40
1
40
1
40
1
10
30.9425273973
20
50.5119919616
30
0
10
30.8550353973
20
49.8790636616
30
0
10
30.7610783973
20
49.3458382616
30
0
10
30.7361522973
20
49.3266586616
30
0
0
SPLINE
5
66
100
AcDbEntity
8
mokou
6
ByLayer
62
7
370
-1
100
AcDbSpline
210
0
220
0
230
1
70
8
71
3
72
8
73
4
74
0
42
1e-07
43
1e-07
40
0
40
0
40
0
40
0
40
1
40
1
40
1
40
1
10
30.7361522973
20
49.3266586616
30
0
10
30.6956894973
20
49.2955216616
30
0
10
30.6155150973
20
48.7659577616
30
0
10
30.4821524973
20
47.6703670616
30
0
0
SPLINE
5
67
100
AcDbEntity
8
mokou
6
ByLayer
62
7
370
-1
100
AcDbSpline
210
0
220
0
230
1
70
8
71
3
72
8
73
4
74
0
42
1e-07
43
1e-07
40
0
40
0
40
0
40
0
40
1
40
1
40
1
40
1
10
30.4821524973
20
47.6703670616
30
0
10
30.4570784973
20
47.4643804616
30
0
10
30.3778490973
20
47.2363207616
30
0
10
30.3022355973
20
47.1491377616
30
0
0
SPLINE
5
68
100
AcDbEntity
8
mokou
6
ByLayer
62
7
370
-1
100
AcDbSpline
210
0
220
0
230
1
70
8
71
3
72
8
73
4
74
0
42
1e-07
43
1e-07
40
0
40
0
40
0
40
0
40
1
40
1
40
1
40
1
10
30.3022355973
20
47.1491377616
30
0
10
30.1814180973
20
47.0098315616
30
0
10
30.1140623973
20
46.9955650616
30
0
10
29.6222564973
20
47.0142001616
30
0
0
SPLINE
5
69
100
AcDbEntity
8
mokou
6
ByLayer
62
7
370
-1
100
AcDbSpline
210
0
220
0
230
1
70
8
71
3
72
8
73
4
74
0
42
1e-07
43
1e-07
40
0
40
0
40
0
40
0
40
1
40
1
40
1
40
1
10
29.6222564973
20
47.0142001616
30
0
10
29.2369214973
20
47.0288017616
30
0
10
29.0144006973
20
47.0064184616
30
0
10
28.8708398973
20
46.9321795616
30
0
0
LWPOLYLINE
5
6A
100
AcDbEntity
8
mokou
6
ByLayer
62
7
370
-1
100
AcDbPolyline
90
3
70
0
43
0
10
32.5432565973
20
62.2515544616
10
32.8554647973
20
62.2647835616
10
32.9348399973
20
61.8679084616
0
SPLINE
5
6B
100
AcDbEntity
8
mokou
6
ByLayer
62
7
370
-1
100
AcDbSpline
210
0
220
0
230
1
70
8
71
3
72
8
73
4
74
0
42
1e-07
43
1e-07
40
0
40
0
40
0
40
0
40
1
40
1
40
1
40
1
10
28.5850898973
20
45.8262211616
30
0
10
28.4897279973
20
44.6912524616
30
0
10
28.4824841973
20
44.3038222616
30
0
10
28.5559856973
20
44.1937420616
30
0
0
SPLINE
5
6C
100
AcDbEntity
8
mokou
6
ByLayer
62
7
370
-1
100
AcDbSpline
210
0
220
0
230
1
70
8
71
3
72
8
73
4
74
0
42
1e-07
43
1e-07
40
0
40
0
40
0
40
0
40
1
40
1
40
1
40
1
10
28.5559856973
20
44.1937420616
30
0
10
28.6389413973
20
44.0695054616
30
0
10
28.8965192973
20
43.9556170616
30
0
10
29.0983814973
20
43.9556170616
30
0
0
SPLINE
5
6D
100
AcDbEntity
8
mokou
6
ByLayer
62
7
370
-1
100
AcDbSpline
210
0
220
0
230
1
70
8
71
3
72
8
73
4
74
0
42
1e-07
43
1e-07
40
0
40
0
40
0
40
0
40
1
40
1
40
1
40
1
10
29.0983814973
20
43.9556170616
30
0
10
29.2723097973
20
43.9556170616
30
0
10
29.2826288973
20
43.9402321616
30
0
10
29.2412564973
20
43.7333668616
30
0
0
SPLINE
5
6E
100
AcDbEntity
8
mokou
6
ByLayer
62
7
370
-1
100
AcDbSpline
210
0
220
0
230
1
70
8
71
3
72
8
73
4
74
0
42
1e-07
43
1e-07
40
0
40
0
40
0
40
0
40
1
40
1
40
1
40
1
10
29.2412564973
20
43.7333668616
30
0
10
29.2167041973
20
43.6106062616
30
0
10
29.1741989973
20
43.4925157616
30
0
10
29.1460064973
20
43.4714293616
30
0
0
SPLINE
5
6F
100
AcDbEntity
8
mokou
6
ByLayer
62
7
370
-1
100
AcDbSpline
210
0
220
0
230
1
70
8
71
3
72
8
73
4
74
0
42
1e-07
43
1e-07
40
0
40
0
40
0
40
0
40
1
40
1
40
1
40
1
10
29.1460064973
20
43.4714293616
30
0
10
29.1178151973
20
43.4503432616
30
0
10
29.0405354973
20
43.3162981616
30
0
10
28.9740272973
20
43.1724502616
30
0
0
SPLINE
5
70
100
AcDbEntity
8
mokou
6
ByLayer
62
7
370
-1
100
AcDbSpline
210
0
220
0
230
1
70
8
71
3
72
8
73
4
74
0
42
1e-07
43
1e-07
40
0
40
0
40
0
40
0
40
1
40
1
40
1
40
1
10
28.9740272973
20
43.1724502616
30
0
10
28.9075190973
20
43.0286032616
30
0
10
28.8259868973
20
42.9105127616
30
0
10
28.7914649973
20
42.9105127616
30
0
0
SPLINE
5
71
100
AcDbEntity
8
mokou
6
ByLayer
62
7
370
-1
100
AcDbSpline
210
0
220
0
230
1
70
8
71
3
72
8
73
4
74
0
42
1e-07
43
1e-07
40
0
40
0
40
0
40
0
40
1
40
1
40
1
40
1
10
28.7914649973
20
42.9105127616
30
0
10
28.7117129973
20
42.9105127616
30
0
10
27.8046536973
20
42.0326338616
30
0
10
27.8045690973
20
41.9553670616
30
0
0
SPLINE
5
72
100
AcDbEntity
8
mokou
6
ByLayer
62
7
370
-1
100
AcDbSpline
210
0
220
0
230
1
70
8
71
3
72
8
73
4
74
0
42
1e-07
43
1e-07
40
0
40
0
40
0
40
0
40
1
40
1
40
1
40
1
10
27.8045690973
20
41.9553670616
30
0
10
27.8045216973
20
41.9236702616
30
0
10
27.7259813973
20
41.8077472616
30
0
10
27.6299441973
20
41.6960752616
30
0
0
SPLINE
5
73
100
AcDbEntity
8
mokou
6
ByLayer
62
7
370
-1
100
AcDbSpline
210
0
220
0
230
1
70
8
71
3
72
8
73
4
74
0
42
1e-07
43
1e-07
40
0
40
0
40
0
40
0
40
1
40
1
40
1
40
1
10
27.6299441973
20
41.6960752616
30
0
10
27.3712019973
20
41.3952157616
30
0
10
27.2855801973
20
41.0030422616
30
0
10
27.3680066973
20
40.5028045616
30
0
0
SPLINE
5
74
100
AcDbEntity
8
mokou
6
ByLayer
62
7
370
-1
100
AcDbSpline
210
0
220
0
230
1
70
8
71
3
72
8
73
4
74
0
42
1e-07
43
1e-07
40
0
40
0
40
0
40
0
40
1
40
1
40
1
40
1
10
27.3680066973
20
40.5028045616
30
0
10
27.4384670973
20
40.0751878616
30
0
10
27.3901730973
20
39.8001607616
30
0
10
27.2224856973
20
39.6667210616
30
0
0
SPLINE
5
75
100
AcDbEntity
8
mokou
6
ByLayer
62
7
370
-1
100
AcDbSpline
210
0
220
0
230
1
70
8
71
3
72
8
73
4
74
0
42
1e-07
43
1e-07
40
0
40
0
40
0
40
0
40
1
40
1
40
1
40
1
10
27.2224856973
20
39.6667210616
30
0
10
27.1742807973
20
39.6283612616
30
0
10
27.0581645973
20
39.4073971616
30
0
10
26.9658398973
20
39.1772419616
30
0
0
SPLINE
5
76
100
AcDbEntity
8
mokou
6
ByLayer
62
7
370
-1
100
AcDbSpline
210
0
220
0
230
1
70
8
71
3
72
8
73
4
74
0
42
1e-07
43
1e-07
40
0
40
0
40
0
40
0
40
1
40
1
40
1
40
1
10
26.9658398973
20
39.1772419616
30
0
10
26.8735151973
20
38.9470858616
30
0
10
26.7435188973
20
38.6986246616
30
0
10
26.6747981973
20
38.6242627616
30
0
0
SPLINE
5
77
100
AcDbEntity
8
mokou
6
ByLayer
62
7
370
-1
100
AcDbSpline
210
0
220
0
230
1
70
8
71
3
72
8
73
4
74
0
42
1e-07
43
1e-07
40
0
40
0
40
0
40
0
40
1
40
1
40
1
40
1
10
26.6747981973
20
38.6242627616
30
0
10
26.6060783973
20
38.5499008616
30
0
10
26.5504439973
20
38.4495784616
30
0
10
26.5504439973
20
38.4020128616
30
0
0
SPLINE
5
78
100
AcDbEntity
8
mokou
6
ByLayer
62
7
370
-1
100
AcDbSpline
210
0
220
0
230
1
70
8
71
3
72
8
73
4
74
0
42
1e-07
43
1e-07
40
0
40
0
40
0
40
0
40
1
40
1
40
1
40
1
10
26.5504439973
20
38.4020128616
30
0
10
26.5504439973
20
38.3544460616
30
0
10
26.5112120973
20
38.2754308616
30
0
10
26.4631316973
20
38.2247419616
30
0
0
SPLINE
5
79
100
AcDbEntity
8
mokou
6
ByLayer
62
7
370
-1
100
AcDbSpline
210
0
220
0
230
1
70
8
71
3
72
8
73
4
74
0
42
1e-07
43
1e-07
40
0
40
0
40
0
40
0
40
1
40
1
40
1
40
1
10
26.4631316973
20
38.2247419616
30
0
10
26.4150509973
20
38.1740527616
30
0
10
26.2992194973
20
37.9683991616
30
0
10
26.2064855973
20
37.7670127616
30
0
0
SPLINE
5
7A
100
AcDbEntity
8
mokou
6
ByLayer
62
7
370
-1
100
AcDbSpline
210
0
220
0
230
1
70
8
71
3
72
8
73
4
74
0
42
1e-07
43
1e-07
40
0
40
0
40
0
40
0
40
1
40
1
40
1
40
1
10
26.2064855973
20
37.7670127616
30
0
10
26.0625311973
20
37.4543911616
30
0
10
26.0084555973
20
37.3992418616
30
0
10
25.8440066973
20
37.3992418616
30
0
0
SPLINE
5
7B
100
AcDbEntity
8
mokou
6
ByLayer
62
7
370
-1
100
AcDbSpline
210
0
220
0
230
1
70
8
71
3
72
8
73
4
74
0
42
1e-07
43
1e-07
40
0
40
0
40
0
40
0
40
1
40
1
40
1
40
1
10
25.8440066973
20
37.3992418616
30
0
10
25.7188556973
20
37.3992418616
30
0
10
25.6374047973
20
37.4435962616
30
0
10
25.6111730973
20
37.5262420616
30
0
0
SPLINE
5
7C
100
AcDbEntity
8
mokou
6
ByLayer
62
7
370
-1
100
AcDbSpline
210
0
220
0
230
1
70
8
71
3
72
8
73
4
74
0
42
1e-07
43
1e-07
40
0
40
0
40
0
40
0
40
1
40
1
40
1
40
1
10
25.6111730973
20
37.5262420616
30
0
10
25.5889700973
20
37.5961984616
30
0
10
25.5149513973
20
37.7142892616
30
0
10
25.4471315973
20
37.7881795616
30
0
0
SPLINE
5
7D
100
AcDbEntity
8
mokou
6
ByLayer
62
7
370
-1
100
AcDbSpline
210
0
220
0
230
1
70
8
71
3
72
8
73
4
74
0
42
1e-07
43
1e-07
40
0
40
0
40
0
40
0
40
1
40
1
40
1
40
1
10
25.4471315973
20
37.7881795616
30
0
10
25.3142174973
20
37.9329907616
30
0
10
25.0158605973
20
38.6136304616
30
0
10
25.0158605973
20
38.7697834616
30
0
0
SPLINE
5
7E
100
AcDbEntity
8
mokou
6
ByLayer
62
7
370
-1
100
AcDbSpline
210
0
220
0
230
1
70
8
71
3
72
8
73
4
74
0
42
1e-07
43
1e-07
40
0
40
0
40
0
40
0
40
1
40
1
40
1
40
1
10
25.0158605973
20
38.7697834616
30
0
10
25.0158605973
20
38.8222075616
30
0
10
24.9872924973
20
38.8650334616
30
0
10
24.9550064973
20
38.8650334616
30
0
0
SPLINE
5
7F
100
AcDbEntity
8
mokou
6
ByLayer
62
7
370
-1
100
AcDbSpline
210
0
220
0
230
1
70
8
71
3
72
8
73
4
74
0
42
1e-07
43
1e-07
40
0
40
0
40
0
40
0
40
1
40
1
40
1
40
1
10
24.9550064973
20
38.8650334616
30
0
10
24.9227204973
20
38.8650334616
30
0
10
24.8394839973
20
39.0529198616
30
0
10
24.7697981973
20
39.2830753616
30
0
0
SPLINE
5
80
100
AcDbEntity
8
mokou
6
ByLayer
62
7
370
-1
100
AcDbSpline
210
0
220
0
230
1
70
8
71
3
72
8
73
4
74
0
42
1e-07
43
1e-07
40
0
40
0
40
0
40
0
40
1
40
1
40
1
40
1
10
24.7697981973
20
39.2830753616
30
0
10
24.7001132973
20
39.5132314616
30
0
10
24.6222479973
20
39.7011169616
30
0
10
24.5951732973
20
39.7011169616
30
0
0
SPLINE
5
81
100
AcDbEntity
8
mokou
6
ByLayer
62
7
370
-1
100
AcDbSpline
210
0
220
0
230
1
70
8
71
3
72
8
73
4
74
0
42
1e-07
43
1e-07
40
0
40
0
40
0
40
0
40
1
40
1
40
1
40
1
10
24.5951732973
20
39.7011169616
30
0
10
24.5680985973
20
39.7011169616
30
0
10
24.4923692973
20
39.8444128616
30
0
10
24.4258397973
20
40.0186168616
30
0
0
SPLINE
5
82
100
AcDbEntity
8
mokou
6
ByLayer
62
7
370
-1
100
AcDbSpline
210
0
220
0
230
1
70
8
71
3
72
8
73
4
74
0
42
1e-07
43
1e-07
40
0
40
0
40
0
40
0
40
1
40
1
40
1
40
1
10
24.4258397973
20
40.0186168616
30
0
10
24.3041060973
20
40.3373734616
30
0
10
23.9395925973
20
40.7456284616
30
0
10
23.7776105973
20
40.7462209616
30
0
0
SPLINE
5
83
100
AcDbEntity
8
mokou
6
ByLayer
62
7
370
-1
100
AcDbSpline
210
0
220
0
230
1
70
8
71
3
72
8
73
4
74
0
42
1e-07
43
1e-07
40
0
40
0
40
0
40
0
40
1
40
1
40
1
40
1
10
23.7776105973
20
40.7462209616
30
0
10
23.7296615973
20
40.7463988616
30
0
10
23.6902982973
20
40.7737759616
30
0
10
23.6902982973
20
40.8044293616
30
0
0
SPLINE
5
84
100
AcDbEntity
8
mokou
6
ByLayer
62
7
370
-1
100
AcDbSpline
210
0
220
0
230
1
70
8
71
3
72
8
73
4
74
0
42
1e-07
43
1e-07
40
0
40
0
40
0
40
0
40
1
40
1
40
1
40
1
10
23.6902982973
20
40.8044293616
30
0
10
23.6902982973
20
40.8350821616
30
0
10
23.5780427973
20
40.9006081616
30
0
10
23.4415898973
20
40.9499503616
30
0
0
SPLINE
5
85
100
AcDbEntity
8
mokou
6
ByLayer
62
7
370
-1
100
AcDbSpline
210
0
220
0
230
1
70
8
71
3
72
8
73
4
74
0
42
1e-07
43
1e-07
40
0
40
0
40
0
40
0
40
1
40
1
40
1
40
1
10
23.4415898973
20
40.9499503616
30
0
10
23.2933343973
20
41.0035603616
30
0
10
23.1676433973
20
41.1059629616
30
0
10
23.1293816973
20
41.2065961616
30
0
0
SPLINE
5
86
100
AcDbEntity
8
mokou
6
ByLayer
62
7
370
-1
100
AcDbSpline
210
0
220
0
230
1
70
8
71
3
72
8
73
4
74
0
42
1e-07
43
1e-07
40
0
40
0
40
0
40
0
40
1
40
1
40
1
40
1
10
23.1293816973
20
41.2065961616
30
0
10
23.0941670973
20
41.2992181616
30
0
10
23.0381786973
20
41.3759293616
30
0
10
23.0050274973
20
41.3759293616
30
0
0
SPLINE
5
87
100
AcDbEntity
8
mokou
6
ByLayer
62
7
370
-1
100
AcDbSpline
210
0
220
0
230
1
70
8
71
3
72
8
73
4
74
0
42
1e-07
43
1e-07
40
0
40
0
40
0
40
0
40
1
40
1
40
1
40
1
10
23.0050274973
20
41.3759293616
30
0
10
22.9718753973
20
41.3759293616
30
0
10
22.9082609973
20
41.4572950616
30
0
10
22.8621524973
20
41.5584919616
30
0
0
SPLINE
5
88
100
AcDbEntity
8
mokou
6
ByLayer
62
7
370
-1
100
AcDbSpline
210
0
220
0
230
1
70
8
71
3
72
8
73
4
74
0
42
1e-07
43
1e-07
40
0
40
0
40
0
40
0
40
1
40
1
40
1
40
1
10
22.8621524973
20
41.5584919616
30
0
10
22.7811059973
20
41.7363715616
30
0
10
22.7637062973
20
41.7420814616
30
0
10
22.3488605973
20
41.6987209616
30
0
0
SPLINE
5
89
100
AcDbEntity
8
mokou
6
ByLayer
62
7
370
-1
100
AcDbSpline
210
0
220
0
230
1
70
8
71
3
72
8
73
4
74
0
42
1e-07
43
1e-07
40
0
40
0
40
0
40
0
40
1
40
1
40
1
40
1
10
22.3488605973
20
41.6987209616
30
0
10
22.1128532973
20
41.6740534616
30
0
10
21.8994728973
20
41.6214880616
30
0
10
21.8752565973
20
41.5823044616
30
0
0
SPLINE
5
8A
100
AcDbEntity
8
mokou
6
ByLayer
62
7
370
-1
100
AcDbSpline
210
0
220
0
230
1
70
8
71
3
72
8
73
4
74
0
42
1e-07
43
1e-07
40
0
40
0
40
0
40
0
40
1
40
1
40
1
40
1
10
21.8752565973
20
41.5823044616
30
0
10
21.8510402973
20
41.5431214616
30
0
10
21.6749429973
20
41.4938329616
30
0
10
21.4836731973
20
41.4711793616
30
0
0
SPLINE
5
8B
100
AcDbEntity
8
mokou
6
ByLayer
62
7
370
-1
100
AcDbSpline
210
0
220
0
230
1
70
8
71
3
72
8
73
4
74
0
42
1e-07
43
1e-07
40
0
40
0
40
0
40
0
40
1
40
1
40
1
40
1
10
21.4836731973
20
41.4711793616
30
0
10
21.2155517973
20
41.4394243616
30
0
10
21.1107098973
20
41.4552046616
30
0
10
21.0232982973
20
41.5426168616
30
0
0
SPLINE
5
8C
100
AcDbEntity
8
mokou
6
ByLayer
62
7
370
-1
100
AcDbSpline
210
0
220
0
230
1
70
8
71
3
72
8
73
4
74
0
42
1e-07
43
1e-07
40
0
40
0
40
0
40
0
40
1
40
1
40
1
40
1
10
21.0232982973
20
41.5426168616
30
0
10
20.9609420973
20
41.6049730616
30
0
10
20.7644078973
20
41.7162994616
30
0
10
20.5893815973
20
41.7913252616
30
0
0
SPLINE
5
8D
100
AcDbEntity
8
mokou
6
ByLayer
62
7
370
-1
100
AcDbSpline
210
0
220
0
230
1
70
8
71
3
72
8
73
4
74
0
42
1e-07
43
1e-07
40
0
40
0
40
0
40
0
40
1
40
1
40
1
40
1
10
20.5893815973
20
41.7913252616
30
0
10
20.4143552973
20
41.8663501616
30
0
10
20.2718816973
20
41.9545540616
30
0
10
20.2718816973
20
41.9871169616
30
0
0
SPLINE
5
8E
100
AcDbEntity
8
mokou
6
ByLayer
62
7
370
-1
100
AcDbSpline
210
0
220
0
230
1
70
8
71
3
72
8
73
4
74
0
42
1e-07
43
1e-07
40
0
40
0
40
0
40
0
40
1
40
1
40
1
40
1
10
20.2718816973
20
41.9871169616
30
0
10
20.2718816973
20
42.0196798616
30
0
10
20.1651149973
20
42.0890335616
30
0
10
20.0337566973
20
42.1405753616
30
0
0
SPLINE
5
8F
100
AcDbEntity
8
mokou
6
ByLayer
62
7
370
-1
100
AcDbSpline
210
0
220
0
230
1
70
8
71
3
72
8
73
4
74
0
42
1e-07
43
1e-07
40
0
40
0
40
0
40
0
40
1
40
1
40
1
40
1
10
20.0337566973
20
42.1405753616
30
0
10
19.9023980973
20
42.1921159616
30
0
10
19.7789393973
20
42.2898358616
30
0
10
19.7612357973
20
42.3575335616
30
0
0
SPLINE
5
90
100
AcDbEntity
8
mokou
6
ByLayer
62
7
370
-1
100
AcDbSpline
210
0
220
0
230
1
70
8
71
3
72
8
73
4
74
0
42
1e-07
43
1e-07
40
0
40
0
40
0
40
0
40
1
40
1
40
1
40
1
10
19.7612357973
20
42.3575335616
30
0
10
19.7347997973
20
42.4586248616
30
0
10
19.7909312973
20
42.4883749616
30
0
10
20.0707982973
20
42.5268670616
30
0
0
SPLINE
5
91
100
AcDbEntity
8
mokou
6
ByLayer
62
7
370
-1
100
AcDbSpline
210
0
220
0
230
1
70
8
71
3
72
8
73
4
74
0
42
1e-07
43
1e-07
40
0
40
0
40
0
40
0
40
1
40
1
40
1
40
1
10
20.0707982973
20
42.5268670616
30
0
10
20.2582196973
20
42.5526436616
30
0
10
20.4121106973
20
42.6032320616
30
0
10
20.4121106973
20
42.6379918616
30
0
0
SPLINE
5
92
100
AcDbEntity
8
mokou
6
ByLayer
62
7
370
-1
100
AcDbSpline
210
0
220
0
230
1
70
8
71
3
72
8
73
4
74
0
42
1e-07
43
1e-07
40
0
40
0
40
0
40
0
40
1
40
1
40
1
40
1
10
20.4121106973
20
42.6379918616
30
0
10
20.4121106973
20
42.6727519616
30
0
10
20.4590606973
20
42.7014919616
30
0
10
20.5152980973
20
42.7014919616
30
0
0
SPLINE
5
93
100
AcDbEntity
8
mokou
6
ByLayer
62
7
370
-1
100
AcDbSpline
210
0
220
0
230
1
70
8
71
3
72
8
73
4
74
0
42
1e-07
43
1e-07
40
0
40
0
40
0
40
0
40
1
40
1
40
1
40
1
10
20.5152980973
20
42.7014919616
30
0
10
20.6457014973
20
42.7014919616
30
0
10
21.1079648973
20
42.9202300616
30
0
10
21.1079648973
20
42.9819502616
30
0
0
SPLINE
5
94
100
AcDbEntity
8
mokou
6
ByLayer
62
7
370
-1
100
AcDbSpline
210
0
220
0
230
1
70
8
71
3
72
8
73
4
74
0
42
1e-07
43
1e-07
40
0
40
0
40
0
40
0
40
1
40
1
40
1
40
1
10
21.1079648973
20
42.9819502616
30
0
10
21.1079648973
20
43.0076032616
30
0
10
21.1804064973
20
43.1079994616
30
0
10
21.2667149973
20
43.2042001616
30
0
0
SPLINE
5
95
100
AcDbEntity
8
mokou
6
ByLayer
62
7
370
-1
100
AcDbSpline
210
0
220
0
230
1
70
8
71
3
72
8
73
4
74
0
42
1e-07
43
1e-07
40
0
40
0
40
0
40
0
40
1
40
1
40
1
40
1
10
21.2667149973
20
43.2042001616
30
0
10
21.4698647973
20
43.4306353616
30
0
10
21.5913521973
20
43.6130149616
30
0
10
21.6424232973
20
43.7651170616
30
0
0
SPLINE
5
96
100
AcDbEntity
8
mokou
6
ByLayer
62
7
370
-1
100
AcDbSpline
210
0
220
0
230
1
70
8
71
3
72
8
73
4
74
0
42
1e-07
43
1e-07
40
0
40
0
40
0
40
0
40
1
40
1
40
1
40
1
10
21.6424232973
20
43.7651170616
30
0
10
21.6649631973
20
43.8322456616
30
0
10
21.7116704973
20
43.8868252616
30
0
10
21.7456106973
20
43.8868252616
30
0
0
SPLINE
5
97
100
AcDbEntity
8
mokou
6
ByLayer
62
7
370
-1
100
AcDbSpline
210
0
220
0
230
1
70
8
71
3
72
8
73
4
74
0
42
1e-07
43
1e-07
40
0
40
0
40
0
40
0
40
1
40
1
40
1
40
1
10
21.7456106973
20
43.8868252616
30
0
10
21.8021273973
20
43.8868252616
30
0
10
22.1009066973
20
44.1859213616
30
0
10
22.5261314973
20
44.6699920616
30
0
0
SPLINE
5
98
100
AcDbEntity
8
mokou
6
ByLayer
62
7
370
-1
100
AcDbSpline
210
0
220
0
230
1
70
8
71
3
72
8
73
4
74
0
42
1e-07
43
1e-07
40
0
40
0
40
0
40
0
40
1
40
1
40
1
40
1
10
22.5261314973
20
44.6699920616
30
0
10
22.6582370973
20
44.8203793616
30
0
10
22.7033210973
20
44.9712172616
30
0
10
22.7377982973
20
45.3790753616
30
0
0
SPLINE
5
99
100
AcDbEntity
8
mokou
6
ByLayer
62
7
370
-1
100
AcDbSpline
210
0
220
0
230
1
70
8
71
3
72
8
73
4
74
0
42
1e-07
43
1e-07
40
0
40
0
40
0
40
0
40
1
40
1
40
1
40
1
10
22.7377982973
20
45.3790753616
30
0
10
22.7829365973
20
45.9130687616
30
0
10
22.8876098973
20
46.2502705616
30
0
10
23.0420690973
20
46.3474501616
30
0
0
SPLINE
5
9A
100
AcDbEntity
8
mokou
6
ByLayer
62
7
370
-1
100
AcDbSpline
210
0
220
0
230
1
70
8
71
3
72
8
73
4
74
0
42
1e-07
43
1e-07
40
0
40
0
40
0
40
0
40
1
40
1
40
1
40
1
10
23.0420690973
20
46.3474501616
30
0
10
23.0908259973
20
46.3781257616
30
0
10
23.1320273973
20
46.4327053616
30
0
10
23.1320273973
20
46.4691586616
30
0
0
SPLINE
5
9B
100
AcDbEntity
8
mokou
6
ByLayer
62
7
370
-1
100
AcDbSpline
210
0
220
0
230
1
70
8
71
3
72
8
73
4
74
0
42
1e-07
43
1e-07
40
0
40
0
40
0
40
0
40
1
40
1
40
1
40
1
10
23.1320273973
20
46.4691586616
30
0
10
23.1320273973
20
46.5406933616
30
0
10
23.3860349973
20
46.8157627616
30
0
10
23.4521732973
20
46.8157627616
30
0
0
SPLINE
5
9C
100
AcDbEntity
8
mokou
6
ByLayer
62
7
370
-1
100
AcDbSpline
210
0
220
0
230
1
70
8
71
3
72
8
73
4
74
0
42
1e-07
43
1e-07
40
0
40
0
40
0
40
0
40
1
40
1
40
1
40
1
10
23.4521732973
20
46.8157627616
30
0
10
23.6126900973
20
46.8157627616
30
0
10
24.1083398973
20
47.5232677616
30
0
10
24.1083398973
20
47.7523876616
30
0
0
SPLINE
5
9D
100
AcDbEntity
8
mokou
6
ByLayer
62
7
370
-1
100
AcDbSpline
210
0
220
0
230
1
70
8
71
3
72
8
73
4
74
0
42
1e-07
43
1e-07
40
0
40
0
40
0
40
0
40
1
40
1
40
1
40
1
10
24.1083398973
20
47.7523876616
30
0
10
24.1083398973
20
47.8118314616
30
0
10
24.1387724973
20
47.8608670616
30
0
10
24.1771316973
20
47.8608670616
30
0
0
SPLINE
5
9E
100
AcDbEntity
8
mokou
6
ByLayer
62
7
370
-1
100
AcDbSpline
210
0
220
0
230
1
70
8
71
3
72
8
73
4
74
0
42
1e-07
43
1e-07
40
0
40
0
40
0
40
0
40
1
40
1
40
1
40
1
10
24.1771316973
20
47.8608670616
30
0
10
24.2695307973
20
47.8608670616
30
0
10
24.2695874973
20
48.8858719616
30
0
10
24.1771316973
20
48.9430126616
30
0
0
SPLINE
5
9F
100
AcDbEntity
8
mokou
6
ByLayer
62
7
370
-1
100
AcDbSpline
210
0
220
0
230
1
70
8
71
3
72
8
73
4
74
0
42
1e-07
43
1e-07
40
0
40
0
40
0
40
0
40
1
40
1
40
1
40
1
10
24.1771316973
20
48.9430126616
30
0
10
24.0875939973
20
48.9983500616
30
0
10
23.9348078973
20
49.3620061616
30
0
10
23.8755065973
20
49.6626793616
30
0
0
SPLINE
5
A0
100
AcDbEntity
8
mokou
6
ByLayer
62
7
370
-1
100
AcDbSpline
210
0
220
0
230
1
70
8
71
3
72
8
73
4
74
0
42
1e-07
43
1e-07
40
0
40
0
40
0
40
0
40
1
40
1
40
1
40
1
10
23.8755065973
20
49.6626793616
30
0
10
23.8504781973
20
49.7895736616
30
0
10
23.7826889973
20
49.9407052616
30
0
10
23.7246941973
20
49.9987003616
30
0
0
SPLINE
5
A1
100
AcDbEntity
8
mokou
6
ByLayer
62
7
370
-1
100
AcDbSpline
210
0
220
0
230
1
70
8
71
3
72
8
73
4
74
0
42
1e-07
43
1e-07
40
0
40
0
40
0
40
0
40
1
40
1
40
1
40
1
10
23.7246941973
20
49.9987003616
30
0
10
23.6666990973
20
50.0566951616
30
0
10
23.5990250973
20
50.1869362616
30
0
10
23.5738814973
20
50.2897420616
30
0
0
SPLINE
5
A2
100
AcDbEntity
8
mokou
6
ByLayer
62
7
370
-1
100
AcDbSpline
210
0
220
0
230
1
70
8
71
3
72
8
73
4
74
0
42
1e-07
43
1e-07
40
0
40
0
40
0
40
0
40
1
40
1
40
1
40
1
10
23.5738814973
20
50.2897420616
30
0
10
23.5176569973
20
50.5196272616
30
0
10
23.4357284973
20
50.5778626616
30
0
10
23.1664232973
20
50.5807834616
30
0
0
SPLINE
5
A3
100
AcDbEntity
8
mokou
6
ByLayer
62
7
370
-1
100
AcDbSpline
210
0
220
0
230
1
70
8
71
3
72
8
73
4
74
0
42
1e-07
43
1e-07
40
0
40
0
40
0
40
0
40
1
40
1
40
1
40
1
10
23.1664232973
20
50.5807834616
30
0
10
23.0363750973
20
50.5821967616
30
0
10
22.8954467973
20
50.6504296616
30
0
10
22.7933606973
20
50.7580543616
30
0
0
SPLINE
5
A4
100
AcDbEntity
8
mokou
6
ByLayer
62
7
370
-1
100
AcDbSpline
210
0
220
0
230
1
70
8
71
3
72
8
73
4
74
0
42
1e-07
43
1e-07
40
0
40
0
40
0
40
0
40
1
40
1
40
1
40
1
10
22.7933606973
20
50.7580543616
30
0
10
22.7030255973
20
50.8532890616
30
0
10
22.6039460973
20
50.9300335616
30
0
10
22.5737564973
20
50.9300335616
30
0
0
SPLINE
5
A5
100
AcDbEntity
8
mokou
6
ByLayer
62
7
370
-1
100
AcDbSpline
210
0
220
0
230
1
70
8
71
3
72
8
73
4
74
0
42
1e-07
43
1e-07
40
0
40
0
40
0
40
0
40
1
40
1
40
1
40
1
10
22.5737564973
20
50.9300335616
30
0
10
22.5435677973
20
50.9300335616
30
0
10
22.4627822973
20
51.1179199616
30
0
10
22.3938398973
20
51.3480751616
30
0
0
SPLINE
5
A6
100
AcDbEntity
8
mokou
6
ByLayer
62
7
370
-1
100
AcDbSpline
210
0
220
0
230
1
70
8
71
3
72
8
73
4
74
0
42
1e-07
43
1e-07
40
0
40
0
40
0
40
0
40
1
40
1
40
1
40
1
10
22.3938398973
20
51.3480751616
30
0
10
22.3248965973
20
51.5782315616
30
0
10
22.2423761973
20
51.7661170616
30
0
10
22.2112772973
20
51.7661170616
30
0
0
SPLINE
5
A7
100
AcDbEntity
8
mokou
6
ByLayer
62
7
370
-1
100
AcDbSpline
210
0
220
0
230
1
70
8
71
3
72
8
73
4
74
0
42
1e-07
43
1e-07
40
0
40
0
40
0
40
0
40
1
40
1
40
1
40
1
10
22.2112772973
20
51.7661170616
30
0
10
22.1801774973
20
51.7661170616
30
0
10
22.1557148973
20
51.8088295616
30
0
10
22.1557148973
20
51.8587210616
30
0
0
SPLINE
5
A8
100
AcDbEntity
8
mokou
6
ByLayer
62
7
370
-1
100
AcDbSpline
210
0
220
0
230
1
70
8
71
3
72
8
73
4
74
0
42
1e-07
43
1e-07
40
0
40
0
40
0
40
0
40
1
40
1
40
1
40
1
10
22.1557148973
20
51.8587210616
30
0
10
22.1557148973
20
52.0913308616
30
0
10
21.9724844973
20
52.3177108616
30
0
10
21.7535480973
20
52.3587835616
30
0
0
SPLINE
5
A9
100
AcDbEntity
8
mokou
6
ByLayer
62
7
370
-1
100
AcDbSpline
210
0
220
0
230
1
70
8
71
3
72
8
73
4
74
0
42
1e-07
43
1e-07
40
0
40
0
40
0
40
0
40
1
40
1
40
1
40
1
10
21.7535480973
20
52.3587835616
30
0
10
21.6286070973
20
52.3822225616
30
0
10
21.5286524973
20
52.4306428616
30
0
10
21.5286524973
20
52.4672626616
30
0
0
SPLINE
5
AA
100
AcDbEntity
8
mokou
6
ByLayer
62
7
370
-1
100
AcDbSpline
210
0
220
0
230
1
70
8
71
3
72
8
73
4
74
0
42
1e-07
43
1e-07
40
0
40
0
40
0
40
0
40
1
40
1
40
1
40
1
10
21.5286524973
20
52.4672626616
30
0
10
21.5286524973
20
52.5038845616
30
0
10
21.4803584973
20
52.5334084616
30
0
10
21.4228190973
20
52.5334084616
30
0
0
SPLINE
5
AB
100
AcDbEntity
8
mokou
6
ByLayer
62
7
370
-1
100
AcDbSpline
210
0
220
0
230
1
70
8
71
3
72
8
73
4
74
0
42
1e-07
43
1e-07
40
0
40
0
40
0
40
0
40
1
40
1
40
1
40
1
10
21.4228190973
20
52.5334084616
30
0
10
21.3652802973
20
52.5334084616
30
0
10
21.3196316973
20
52.5817024616
30
0
10
21.3196316973
20
52.6392418616
30
0
0
SPLINE
5
AC
100
AcDbEntity
8
mokou
6
ByLayer
62
7
370
-1
100
AcDbSpline
210
0
220
0
230
1
70
8
71
3
72
8
73
4
74
0
42
1e-07
43
1e-07
40
0
40
0
40
0
40
0
40
1
40
1
40
1
40
1
10
21.3196316973
20
52.6392418616
30
0
10
21.3196316973
20
52.6967806616
30
0
10
21.2890847973
20
52.7424295616
30
0
10
21.2534855973
20
52.7424295616
30
0
0
SPLINE
5
AD
100
AcDbEntity
8
mokou
6
ByLayer
62
7
370
-1
100
AcDbSpline
210
0
220
0
230
1
70
8
71
3
72
8
73
4
74
0
42
1e-07
43
1e-07
40
0
40
0
40
0
40
0
40
1
40
1
40
1
40
1
10
21.2534855973
20
52.7424295616
30
0
10
21.2178857973
20
52.7424295616
30
0
10
21.1667057973
20
52.9206307616
30
0
10
21.1397147973
20
53.1366586616
30
0
0
SPLINE
5
AE
100
AcDbEntity
8
mokou
6
ByLayer
62
7
370
-1
100
AcDbSpline
210
0
220
0
230
1
70
8
71
3
72
8
73
4
74
0
42
1e-07
43
1e-07
40
0
40
0
40
0
40
0
40
1
40
1
40
1
40
1
10
21.1397147973
20
53.1366586616
30
0
10
21.0910535973
20
53.5261294616
30
0
10
21.0671477973
20
53.5719688616
30
0
10
20.7269648973
20
53.9489293616
30
0
0
SPLINE
5
AF
100
AcDbEntity
8
mokou
6
ByLayer
62
7
370
-1
100
AcDbSpline
210
0
220
0
230
1
70
8
71
3
72
8
73
4
74
0
42
1e-07
43
1e-07
40
0
40
0
40
0
40
0
40
1
40
1
40
1
40
1
10
20.7269648973
20
53.9489293616
30
0
10
20.6301950973
20
54.0561604616
30
0
10
20.5523399973
20
54.1697392616
30
0
10
20.5523399973
20
54.2002834616
30
0
0
SPLINE
5
B0
100
AcDbEntity
8
mokou
6
ByLayer
62
7
370
-1
100
AcDbSpline
210
0
220
0
230
1
70
8
71
3
72
8
73
4
74
0
42
1e-07
43
1e-07
40
0
40
0
40
0
40
0
40
1
40
1
40
1
40
1
10
20.5523399973
20
54.2002834616
30
0
10
20.5523399973
20
54.2745235616
30
0
10
20.0625782973
20
54.4172419616
30
0
10
19.8088607973
20
54.4172419616
30
0
0
SPLINE
5
B1
100
AcDbEntity
8
mokou
6
ByLayer
62
7
370
-1
100
AcDbSpline
210
0
220
0
230
1
70
8
71
3
72
8
73
4
74
0
42
1e-07
43
1e-07
40
0
40
0
40
0
40
0
40
1
40
1
40
1
40
1
10
19.8088607973
20
54.4172419616
30
0
10
19.6847816973
20
54.4172419616
30
0
10
19.5049649973
20
54.5008552616
30
0
10
19.3431941973
20
54.6342001616
30
0
0
SPLINE
5
B2
100
AcDbEntity
8
mokou
6
ByLayer
62
7
370
-1
100
AcDbSpline
210
0
220
0
230
1
70
8
71
3
72
8
73
4
74
0
42
1e-07
43
1e-07
40
0
40
0
40
0
40
0
40
1
40
1
40
1
40
1
10
19.3431941973
20
54.6342001616
30
0
10
19.1089928973
20
54.8272486616
30
0
10
19.0418894973
20
54.8490064616
30
0
10
18.7558190973
20
54.8167627616
30
0
0
SPLINE
5
B3
100
AcDbEntity
8
mokou
6
ByLayer
62
7
370
-1
100
AcDbSpline
210
0
220
0
230
1
70
8
71
3
72
8
73
4
74
0
42
1e-07
43
1e-07
40
0
40
0
40
0
40
0
40
1
40
1
40
1
40
1
10
18.7558190973
20
54.8167627616
30
0
10
18.5782886973
20
54.7967518616
30
0
10
18.3996359973
20
54.7379119616
30
0
10
18.3589439973
20
54.6844711616
30
0
0
SPLINE
5
B4
100
AcDbEntity
8
mokou
6
ByLayer
62
7
370
-1
100
AcDbSpline
210
0
220
0
230
1
70
8
71
3
72
8
73
4
74
0
42
1e-07
43
1e-07
40
0
40
0
40
0
40
0
40
1
40
1
40
1
40
1
10
18.3589439973
20
54.6844711616
30
0
10
18.3182519973
20
54.6310303616
30
0
10
18.1667705973
20
54.5130184616
30
0
10
18.0229232973
20
54.4251793616
30
0
0
SPLINE
5
B5
100
AcDbEntity
8
mokou
6
ByLayer
62
7
370
-1
100
AcDbSpline
210
0
220
0
230
1
70
8
71
3
72
8
73
4
74
0
42
1e-07
43
1e-07
40
0
40
0
40
0
40
0
40
1
40
1
40
1
40
1
10
18.0229232973
20
54.4251793616
30
0
10
17.8790756973
20
54.3373402616
30
0
10
17.7609857973
20
54.2429182616
30
0
10
17.7609857973
20
54.2135128616
30
0
0
SPLINE
5
B6
100
AcDbEntity
8
mokou
6
ByLayer
62
7
370
-1
100
AcDbSpline
210
0
220
0
230
1
70
8
71
3
72
8
73
4
74
0
42
1e-07
43
1e-07
40
0
40
0
40
0
40
0
40
1
40
1
40
1
40
1
10
17.7609857973
20
54.2135128616
30
0
10
17.7609857973
20
54.1841080616
30
0
10
17.6366102973
20
54.1027855616
30
0
10
17.4831731973
20
54.0335959616
30
0
0
SPLINE
5
B7
100
AcDbEntity
8
mokou
6
ByLayer
62
7
370
-1
100
AcDbSpline
210
0
220
0
230
1
70
8
71
3
72
8
73
4
74
0
42
1e-07
43
1e-07
40
0
40
0
40
0
40
0
40
1
40
1
40
1
40
1
10
17.4831731973
20
54.0335959616
30
0
10
17.3297360973
20
53.9644057616
30
0
10
17.2027148973
20
53.8809199616
30
0
10
17.2027148973
20
53.8483876616
30
0
0
SPLINE
5
B8
100
AcDbEntity
8
mokou
6
ByLayer
62
7
370
-1
100
AcDbSpline
210
0
220
0
230
1
70
8
71
3
72
8
73
4
74
0
42
1e-07
43
1e-07
40
0
40
0
40
0
40
0
40
1
40
1
40
1
40
1
10
17.2027148973
20
53.8483876616
30
0
10
17.2027148973
20
53.8158538616
30
0
10
17.1670874973
20
53.7901795616
30
0
10
17.1233399973
20
53.7901795616
30
0
0
SPLINE
5
B9
100
AcDbEntity
8
mokou
6
ByLayer
62
7
370
-1
100
AcDbSpline
210
0
220
0
230
1
70
8
71
3
72
8
73
4
74
0
42
1e-07
43
1e-07
40
0
40
0
40
0
40
0
40
1
40
1
40
1
40
1
10
17.1233399973
20
53.7901795616
30
0
10
16.9842950973
20
53.7901795616
30
0
10
16.4059364973
20
53.4795493616
30
0
10
16.3137149973
20
53.3562628616
30
0
0
SPLINE
5
BA
100
AcDbEntity
8
mokou
6
ByLayer
62
7
370
-1
100
AcDbSpline
210
0
220
0
230
1
70
8
71
3
72
8
73
4
74
0
42
1e-07
43
1e-07
40
0
40
0
40
0
40
0
40
1
40
1
40
1
40
1
10
16.3137149973
20
53.3562628616
30
0
10
16.2649112973
20
53.2910194616
30
0
10
16.1771915973
20
53.1932812616
30
0
10
16.1205689973
20
53.1366586616
30
0
0
SPLINE
5
BB
100
AcDbEntity
8
mokou
6
ByLayer
62
7
370
-1
100
AcDbSpline
210
0
220
0
230
1
70
8
71
3
72
8
73
4
74
0
42
1e-07
43
1e-07
40
0
40
0
40
0
40
0
40
1
40
1
40
1
40
1
10
16.1205689973
20
53.1366586616
30
0
10
16.0065563973
20
53.0226463616
30
0
10
15.8083607973
20
52.1722357616
30
0
10
15.8083607973
20
51.7978669616
30
0
0
SPLINE
5
BC
100
AcDbEntity
8
mokou
6
ByLayer
62
7
370
-1
100
AcDbSpline
210
0
220
0
230
1
70
8
71
3
72
8
73
4
74
0
42
1e-07
43
1e-07
40
0
40
0
40
0
40
0
40
1
40
1
40
1
40
1
10
15.8083607973
20
51.7978669616
30
0
10
15.8083607973
20
51.6661171616
30
0
10
15.7779281973
20
51.5570959616
30
0
10
15.7395689973
20
51.5570959616
30
0
0
SPLINE
5
BD
100
AcDbEntity
8
mokou
6
ByLayer
62
7
370
-1
100
AcDbSpline
210
0
220
0
230
1
70
8
71
3
72
8
73
4
74
0
42
1e-07
43
1e-07
40
0
40
0
40
0
40
0
40
1
40
1
40
1
40
1
10
15.7395689973
20
51.5570959616
30
0
10
15.7012097973
20
51.5570959616
30
0
10
15.6681314973
20
51.5114470616
30
0
10
15.6681314973
20
51.4539085616
30
0
0
SPLINE
5
BE
100
AcDbEntity
8
mokou
6
ByLayer
62
7
370
-1
100
AcDbSpline
210
0
220
0
230
1
70
8
71
3
72
8
73
4
74
0
42
1e-07
43
1e-07
40
0
40
0
40
0
40
0
40
1
40
1
40
1
40
1
10
15.6681314973
20
51.4539085616
30
0
10
15.6681314973
20
51.3963691616
30
0
10
15.6985031973
20
51.3480751616
30
0
10
15.7342772973
20
51.3480751616
30
0
0
SPLINE
5
BF
100
AcDbEntity
8
mokou
6
ByLayer
62
7
370
-1
100
AcDbSpline
210
0
220
0
230
1
70
8
71
3
72
8
73
4
74
0
42
1e-07
43
1e-07
40
0
40
0
40
0
40
0
40
1
40
1
40
1
40
1
10
15.7342772973
20
51.3480751616
30
0
10
15.7700516973
20
51.3480751616
30
0
10
15.8207963973
20
51.2782795616
30
0
10
15.8480480973
20
51.1919710616
30
0
0
SPLINE
5
C0
100
AcDbEntity
8
mokou
6
ByLayer
62
7
370
-1
100
AcDbSpline
210
0
220
0
230
1
70
8
71
3
72
8
73
4
74
0
42
1e-07
43
1e-07
40
0
40
0
40
0
40
0
40
1
40
1
40
1
40
1
10
15.8480480973
20
51.1919710616
30
0
10
15.8986082973
20
51.0318436616
30
0
10
16.1327567973
20
50.7898045616
30
0
10
16.2369857973
20
50.7898045616
30
0
0
SPLINE
5
C1
100
AcDbEntity
8
mokou
6
ByLayer
62
7
370
-1
100
AcDbSpline
210
0
220
0
230
1
70
8
71
3
72
8
73
4
74
0
42
1e-07
43
1e-07
40
0
40
0
40
0
40
0
40
1
40
1
40
1
40
1
10
16.2369857973
20
50.7898045616
30
0
10
16.2687449973
20
50.7898045616
30
0
10
16.3134584973
20
50.7137230616
30
0
10
16.3375274973
20
50.6178253616
30
0
0
SPLINE
5
C2
100
AcDbEntity
8
mokou
6
ByLayer
62
7
370
-1
100
AcDbSpline
210
0
220
0
230
1
70
8
71
3
72
8
73
4
74
0
42
1e-07
43
1e-07
40
0
40
0
40
0
40
0
40
1
40
1
40
1
40
1
10
16.3375274973
20
50.6178253616
30
0
10
16.3615964973
20
50.5219267616
30
0
10
16.4211353973
20
50.4432001616
30
0
10
16.4698190973
20
50.4432001616
30
0
0
SPLINE
5
C3
100
AcDbEntity
8
mokou
6
ByLayer
62
7
370
-1
100
AcDbSpline
210
0
220
0
230
1
70
8
71
3
72
8
73
4
74
0
42
1e-07
43
1e-07
40
0
40
0
40
0
40
0
40
1
40
1
40
1
40
1
10
16.4698190973
20
50.4432001616
30
0
10
16.6377683973
20
50.4432001616
30
0
10
16.7328647973
20
50.2301713616
30
0
10
16.7582147973
20
49.8002626616
30
0
0
SPLINE
5
C4
100
AcDbEntity
8
mokou
6
ByLayer
62
7
370
-1
100
AcDbSpline
210
0
220
0
230
1
70
8
71
3
72
8
73
4
74
0
42
1e-07
43
1e-07
40
0
40
0
40
0
40
0
40
1
40
1
40
1
40
1
10
16.7582147973
20
49.8002626616
30
0
10
16.7871239973
20
49.3099954616
30
0
10
16.8392948973
20
49.1048200616
30
0
10
16.9513607973
20
49.0329709616
30
0
0
SPLINE
5
C5
100
AcDbEntity
8
mokou
6
ByLayer
62
7
370
-1
100
AcDbSpline
210
0
220
0
230
1
70
8
71
3
72
8
73
4
74
0
42
1e-07
43
1e-07
40
0
40
0
40
0
40
0
40
1
40
1
40
1
40
1
10
16.9513607973
20
49.0329709616
30
0
10
17.0593889973
20
48.9637111616
30
0
10
17.0331722973
20
47.9553667616
30
0
10
16.9196105973
20
47.8185334616
30
0
0
SPLINE
5
C6
100
AcDbEntity
8
mokou
6
ByLayer
62
7
370
-1
100
AcDbSpline
210
0
220
0
230
1
70
8
71
3
72
8
73
4
74
0
42
1e-07
43
1e-07
40
0
40
0
40
0
40
0
40
1
40
1
40
1
40
1
10
16.9196105973
20
47.8185334616
30
0
10
16.8012812973
20
47.6759548616
30
0
10
16.8103859973
20
45.5207887616
30
0
10
16.9301939973
20
45.3764293616
30
0
0
SPLINE
5
C7
100
AcDbEntity
8
mokou
6
ByLayer
62
7
370
-1
100
AcDbSpline
210
0
220
0
230
1
70
8
71
3
72
8
73
4
74
0
42
1e-07
43
1e-07
40
0
40
0
40
0
40
0
40
1
40
1
40
1
40
1
10
16.9301939973
20
45.3764293616
30
0
10
16.9750139973
20
45.3224248616
30
0
10
17.0335448973
20
45.0998410616
30
0
10
17.0571941973
20
44.8816585616
30
0
0
LWPOLYLINE
5
C8
100
AcDbEntity
8
mokou
6
ByLayer
62
7
370
-1
100
AcDbPolyline
90
3
70
0
43
0
10
28.8708398973
20
46.9321795616
10
28.6671107973
20
46.8263461616
10
28.5850898973
20
45.8262211616
0
SPLINE
5
C9
100
AcDbEntity
8
mokou
6
ByLayer
62
7
370
-1
100
AcDbSpline
210
0
220
0
230
1
70
8
71
3
72
8
73
4
74
0
42
1e-07
43
1e-07
40
0
40
0
40
0
40
0
40
1
40
1
40
1
40
1
10
17.5175690973
20
44.4080545616
30
0
10
18.1678853973
20
44.2884067616
30
0
10
18.4732154973
20
44.0542069616
30
0
10
18.5626730973
20
43.6063669616
30
0
0
SPLINE
5
CA
100
AcDbEntity
8
mokou
6
ByLayer
62
7
370
-1
100
AcDbSpline
210
0
220
0
230
1
70
8
71
3
72
8
73
4
74
0
42
1e-07
43
1e-07
40
0
40
0
40
0
40
0
40
1
40
1
40
1
40
1
10
18.5626730973
20
43.6063669616
30
0
10
18.5894915973
20
43.4721091616
30
0
10
18.6562892973
20
43.2271915616
30
0
10
18.7108397973
20
43.0613251616
30
0
0
SPLINE
5
CB
100
AcDbEntity
8
mokou
6
ByLayer
62
7
370
-1
100
AcDbSpline
210
0
220
0
230
1
70
8
71
3
72
8
73
4
74
0
42
1e-07
43
1e-07
40
0
40
0
40
0
40
0
40
1
40
1
40
1
40
1
10
18.7108397973
20
43.0613251616
30
0
10
18.7653905973
20
42.8954581616
30
0
10
18.7954355973
20
42.7366360616
30
0
10
18.7769855973
20
42.7067836616
30
0
0
SPLINE
5
CC
100
AcDbEntity
8
mokou
6
ByLayer
62
7
370
-1
100
AcDbSpline
210
0
220
0
230
1
70
8
71
3
72
8
73
4
74
0
42
1e-07
43
1e-07
40
0
40
0
40
0
40
0
40
1
40
1
40
1
40
1
10
18.7769855973
20
42.7067836616
30
0
10
18.7126199973
20
42.6026368616
30
0
10
17.7213710973
20
42.5667652616
30
0
10
16.8561107973
20
42.6379918616
30
0
0
SPLINE
5
CD
100
AcDbEntity
8
mokou
6
ByLayer
62
7
370
-1
100
AcDbSpline
210
0
220
0
230
1
70
8
71
3
72
8
73
4
74
0
42
1e-07
43
1e-07
40
0
40
0
40
0
40
0
40
1
40
1
40
1
40
1
10
16.8561107973
20
42.6379918616
30
0
10
16.1180039973
20
42.6987505616
30
0
10
15.8628995973
20
42.6915496616
30
0
10
15.1945274973
20
42.5877211616
30
0
0
SPLINE
5
CE
100
AcDbEntity
8
mokou
6
ByLayer
62
7
370
-1
100
AcDbSpline
210
0
220
0
230
1
70
8
71
3
72
8
73
4
74
0
42
1e-07
43
1e-07
40
0
40
0
40
0
40
0
40
1
40
1
40
1
40
1
10
15.1945274973
20
42.5877211616
30
0
10
14.5871582973
20
42.4933693616
30
0
10
14.3891201973
20
42.4358815616
30
0
10
14.3372774973
20
42.3390127616
30
0
0
SPLINE
5
CF
100
AcDbEntity
8
mokou
6
ByLayer
62
7
370
-1
100
AcDbSpline
210
0
220
0
230
1
70
8
71
3
72
8
73
4
74
0
42
1e-07
43
1e-07
40
0
40
0
40
0
40
0
40
1
40
1
40
1
40
1
10
14.3372774973
20
42.3390127616
30
0
10
14.2863530973
20
42.2438593616
30
0
10
14.1861455973
20
42.2120128616
30
0
10
13.9271732973
20
42.2120128616
30
0
0
SPLINE
5
D0
100
AcDbEntity
8
mokou
6
ByLayer
62
7
370
-1
100
AcDbSpline
210
0
220
0
230
1
70
8
71
3
72
8
73
4
74
0
42
1e-07
43
1e-07
40
0
40
0
40
0
40
0
40
1
40
1
40
1
40
1
10
13.9271732973
20
42.2120128616
30
0
10
13.6635506973
20
42.2120128616
30
0
10
13.5428459973
20
42.1748473616
30
0
10
13.4059439973
20
42.0479710616
30
0
0
SPLINE
5
D1
100
AcDbEntity
8
mokou
6
ByLayer
62
7
370
-1
100
AcDbSpline
210
0
220
0
230
1
70
8
71
3
72
8
73
4
74
0
42
1e-07
43
1e-07
40
0
40
0
40
0
40
0
40
1
40
1
40
1
40
1
10
13.4059439973
20
42.0479710616
30
0
10
13.2326087973
20
41.8873297616
30
0
10
13.1658545973
20
41.6537419616
30
0
10
13.2921731973
20
41.6537419616
30
0
0
SPLINE
5
D2
100
AcDbEntity
8
mokou
6
ByLayer
62
7
370
-1
100
AcDbSpline
210
0
220
0
230
1
70
8
71
3
72
8
73
4
74
0
42
1e-07
43
1e-07
40
0
40
0
40
0
40
0
40
1
40
1
40
1
40
1
10
13.2921731973
20
41.6537419616
30
0
10
13.3267799973
20
41.6537419616
30
0
10
13.3838879973
20
41.5687297616
30
0
10
13.4218190973
20
41.4632419616
30
0
0
SPLINE
5
D3
100
AcDbEntity
8
mokou
6
ByLayer
62
7
370
-1
100
AcDbSpline
210
0
220
0
230
1
70
8
71
3
72
8
73
4
74
0
42
1e-07
43
1e-07
40
0
40
0
40
0
40
0
40
1
40
1
40
1
40
1
10
13.4218190973
20
41.4632419616
30
0
10
13.4597501973
20
41.3577541616
30
0
10
13.6124576973
20
41.1683386616
30
0
10
13.7604857973
20
41.0425543616
30
0
0
SPLINE
5
D4
100
AcDbEntity
8
mokou
6
ByLayer
62
7
370
-1
100
AcDbSpline
210
0
220
0
230
1
70
8
71
3
72
8
73
4
74
0
42
1e-07
43
1e-07
40
0
40
0
40
0
40
0
40
1
40
1
40
1
40
1
10
13.7604857973
20
41.0425543616
30
0
10
13.9085138973
20
40.9167709616
30
0
10
14.1379151973
20
40.7199532616
30
0
10
14.2711316973
20
40.6059919616
30
0
0
SPLINE
5
D5
100
AcDbEntity
8
mokou
6
ByLayer
62
7
370
-1
100
AcDbSpline
210
0
220
0
230
1
70
8
71
3
72
8
73
4
74
0
42
1e-07
43
1e-07
40
0
40
0
40
0
40
0
40
1
40
1
40
1
40
1
10
14.2711316973
20
40.6059919616
30
0
10
14.4043481973
20
40.4920297616
30
0
10
14.5569584973
20
40.3996168616
30
0
10
14.6071523973
20
40.3996168616
30
0
0
SPLINE
5
D6
100
AcDbEntity
8
mokou
6
ByLayer
62
7
370
-1
100
AcDbSpline
210
0
220
0
230
1
70
8
71
3
72
8
73
4
74
0
42
1e-07
43
1e-07
40
0
40
0
40
0
40
0
40
1
40
1
40
1
40
1
10
14.6071523973
20
40.3996168616
30
0
10
14.6573462973
20
40.3996168616
30
0
10
14.7143204973
20
40.3560481616
30
0
10
14.7341522973
20
40.3043668616
30
0
0
SPLINE
5
D7
100
AcDbEntity
8
mokou
6
ByLayer
62
7
370
-1
100
AcDbSpline
210
0
220
0
230
1
70
8
71
3
72
8
73
4
74
0
42
1e-07
43
1e-07
40
0
40
0
40
0
40
0
40
1
40
1
40
1
40
1
10
14.7341522973
20
40.3043668616
30
0
10
14.7539840973
20
40.2526855616
30
0
10
14.9950076973
20
40.1363206616
30
0
10
15.2712566973
20
40.0450753616
30
0
0
SPLINE
5
D8
100
AcDbEntity
8
mokou
6
ByLayer
62
7
370
-1
100
AcDbSpline
210
0
220
0
230
1
70
8
71
3
72
8
73
4
74
0
42
1e-07
43
1e-07
40
0
40
0
40
0
40
0
40
1
40
1
40
1
40
1
10
15.2712566973
20
40.0450753616
30
0
10
15.5475053973
20
39.9538291616
30
0
10
15.8090291973
20
39.8467960616
30
0
10
15.8506940973
20
39.8069503616
30
0
0
SPLINE
5
D9
100
AcDbEntity
8
mokou
6
ByLayer
62
7
370
-1
100
AcDbSpline
210
0
220
0
230
1
70
8
71
3
72
8
73
4
74
0
42
1e-07
43
1e-07
40
0
40
0
40
0
40
0
40
1
40
1
40
1
40
1
10
15.8506940973
20
39.8069503616
30
0
10
15.8923586973
20
39.7671061616
30
0
10
16.1589713973
20
39.6735316616
30
0
10
16.4433605973
20
39.6005752616
30
0
0
SPLINE
5
DA
100
AcDbEntity
8
mokou
6
ByLayer
62
7
370
-1
100
AcDbSpline
210
0
220
0
230
1
70
8
71
3
72
8
73
4
74
0
42
1e-07
43
1e-07
40
0
40
0
40
0
40
0
40
1
40
1
40
1
40
1
10
16.4433605973
20
39.6005752616
30
0
10
16.7277497973
20
39.5276197616
30
0
10
16.9745144973
20
39.4491565616
30
0
10
16.9936940973
20
39.4233043616
30
0
0
SPLINE
5
DB
100
AcDbEntity
8
mokou
6
ByLayer
62
7
370
-1
100
AcDbSpline
210
0
220
0
230
1
70
8
71
3
72
8
73
4
74
0
42
1e-07
43
1e-07
40
0
40
0
40
0
40
0
40
1
40
1
40
1
40
1
10
16.9936940973
20
39.4233043616
30
0
10
17.0128736973
20
39.3974521616
30
0
10
17.2794863973
20
39.3367777616
30
0
10
17.5863605973
20
39.2910127616
30
0
0
SPLINE
5
DC
100
AcDbEntity
8
mokou
6
ByLayer
62
7
370
-1
100
AcDbSpline
210
0
220
0
230
1
70
8
71
3
72
8
73
4
74
0
42
1e-07
43
1e-07
40
0
40
0
40
0
40
0
40
1
40
1
40
1
40
1
10
17.5863605973
20
39.2910127616
30
0
10
18.6702890973
20
39.1293619616
30
0
10
19.0865480973
20
39.0501808616
30
0
10
19.0865480973
20
39.0052627616
30
0
0
SPLINE
5
DD
100
AcDbEntity
8
mokou
6
ByLayer
62
7
370
-1
100
AcDbSpline
210
0
220
0
230
1
70
8
71
3
72
8
73
4
74
0
42
1e-07
43
1e-07
40
0
40
0
40
0
40
0
40
1
40
1
40
1
40
1
10
19.0865480973
20
39.0052627616
30
0
10
19.0865480973
20
38.9802802616
30
0
10
19.1563439973
20
38.8861798616
30
0
10
19.2426524973
20
38.7935959616
30
0
0
SPLINE
5
DE
100
AcDbEntity
8
mokou
6
ByLayer
62
7
370
-1
100
AcDbSpline
210
0
220
0
230
1
70
8
71
3
72
8
73
4
74
0
42
1e-07
43
1e-07
40
0
40
0
40
0
40
0
40
1
40
1
40
1
40
1
10
19.2426524973
20
38.7935959616
30
0
10
19.3771232973
20
38.6493478616
30
0
10
19.4024081973
20
38.5409482616
30
0
10
19.4119856973
20
38.0395336616
30
0
0
SPLINE
5
DF
100
AcDbEntity
8
mokou
6
ByLayer
62
7
370
-1
100
AcDbSpline
210
0
220
0
230
1
70
8
71
3
72
8
73
4
74
0
42
1e-07
43
1e-07
40
0
40
0
40
0
40
0
40
1
40
1
40
1
40
1
10
19.4119856973
20
38.0395336616
30
0
10
19.4181326973
20
37.7177062616
30
0
10
19.4411183973
20
37.3487500616
30
0
10
19.4649023973
20
37.2219709616
30
0
0
SPLINE
5
E0
100
AcDbEntity
8
mokou
6
ByLayer
62
7
370
-1
100
AcDbSpline
210
0
220
0
230
1
70
8
71
3
72
8
73
4
74
0
42
1e-07
43
1e-07
40
0
40
0
40
0
40
0
40
1
40
1
40
1
40
1
10
19.4649023973
20
37.2219709616
30
0
10
19.5110507973
20
36.9759787616
30
0
10
20.0433407973
20
36.3783007616
30
0
10
20.4809024973
20
36.0789709616
30
0
0
SPLINE
5
E1
100
AcDbEntity
8
mokou
6
ByLayer
62
7
370
-1
100
AcDbSpline
210
0
220
0
230
1
70
8
71
3
72
8
73
4
74
0
42
1e-07
43
1e-07
40
0
40
0
40
0
40
0
40
1
40
1
40
1
40
1
10
20.4809024973
20
36.0789709616
30
0
10
20.6151599973
20
35.9871280616
30
0
10
20.8751687973
20
35.7525505616
30
0
10
21.0576941973
20
35.5577419616
30
0
0
SPLINE
5
E2
100
AcDbEntity
8
mokou
6
ByLayer
62
7
370
-1
100
AcDbSpline
210
0
220
0
230
1
70
8
71
3
72
8
73
4
74
0
42
1e-07
43
1e-07
40
0
40
0
40
0
40
0
40
1
40
1
40
1
40
1
10
21.0576941973
20
35.5577419616
30
0
10
21.2402192973
20
35.3629333616
30
0
10
21.4979006973
20
35.0885530616
30
0
10
21.6318398973
20
34.9492003616
30
0
0
SPLINE
5
E3
100
AcDbEntity
8
mokou
6
ByLayer
62
7
370
-1
100
AcDbSpline
210
0
220
0
230
1
70
8
71
3
72
8
73
4
74
0
42
1e-07
43
1e-07
40
0
40
0
40
0
40
0
40
1
40
1
40
1
40
1
10
21.6318398973
20
34.9492003616
30
0
10
21.7657790973
20
34.8098464616
30
0
10
21.8752565973
20
34.6648498616
30
0
10
21.8752565973
20
34.6264084616
30
0
0
SPLINE
5
E4
100
AcDbEntity
8
mokou
6
ByLayer
62
7
370
-1
100
AcDbSpline
210
0
220
0
230
1
70
8
71
3
72
8
73
4
74
0
42
1e-07
43
1e-07
40
0
40
0
40
0
40
0
40
1
40
1
40
1
40
1
10
21.8752565973
20
34.6264084616
30
0
10
21.8752565973
20
34.5879673616
30
0
10
21.9539837973
20
34.5040348616
30
0
10
22.0498814973
20
34.4412001616
30
0
0
SPLINE
5
E5
100
AcDbEntity
8
mokou
6
ByLayer
62
7
370
-1
100
AcDbSpline
210
0
220
0
230
1
70
8
71
3
72
8
73
4
74
0
42
1e-07
43
1e-07
40
0
40
0
40
0
40
0
40
1
40
1
40
1
40
1
10
22.0498814973
20
34.4412001616
30
0
10
22.1457800973
20
34.3783648616
30
0
10
22.2245066973
20
34.2840130616
30
0
10
22.2245066973
20
34.2295336616
30
0
0
SPLINE
5
E6
100
AcDbEntity
8
mokou
6
ByLayer
62
7
370
-1
100
AcDbSpline
210
0
220
0
230
1
70
8
71
3
72
8
73
4
74
0
42
1e-07
43
1e-07
40
0
40
0
40
0
40
0
40
1
40
1
40
1
40
1
10
22.2245066973
20
34.2295336616
30
0
10
22.2245066973
20
34.1750548616
30
0
10
22.2840179973
20
34.0873645616
30
0
10
22.3567982973
20
34.0363876616
30
0
0
SPLINE
5
E7
100
AcDbEntity
8
mokou
6
ByLayer
62
7
370
-1
100
AcDbSpline
210
0
220
0
230
1
70
8
71
3
72
8
73
4
74
0
42
1e-07
43
1e-07
40
0
40
0
40
0
40
0
40
1
40
1
40
1
40
1
10
22.3567982973
20
34.0363876616
30
0
10
22.4295785973
20
33.9854098616
30
0
10
22.5580187973
20
33.8122690616
30
0
10
22.6425482973
20
33.6500959616
30
0
0
SPLINE
5
E8
100
AcDbEntity
8
mokou
6
ByLayer
62
7
370
-1
100
AcDbSpline
210
0
220
0
230
1
70
8
71
3
72
8
73
4
74
0
42
1e-07
43
1e-07
40
0
40
0
40
0
40
0
40
1
40
1
40
1
40
1
10
22.6425482973
20
33.6500959616
30
0
10
22.7270777973
20
33.4879222616
30
0
10
22.8234809973
20
33.3537628616
30
0
10
22.8542147973
20
33.3537628616
30
0
0
SPLINE
5
E9
100
AcDbEntity
8
mokou
6
ByLayer
62
7
370
-1
100
AcDbSpline
210
0
220
0
230
1
70
8
71
3
72
8
73
4
74
0
42
1e-07
43
1e-07
40
0
40
0
40
0
40
0
40
1
40
1
40
1
40
1
10
22.8542147973
20
33.3537628616
30
0
10
22.8849488973
20
33.3537628616
30
0
10
22.9409870973
20
33.2657797616
30
0
10
22.9785689973
20
33.1579711616
30
0
0
SPLINE
5
EA
100
AcDbEntity
8
mokou
6
ByLayer
62
7
370
-1
100
AcDbSpline
210
0
220
0
230
1
70
8
71
3
72
8
73
4
74
0
42
1e-07
43
1e-07
40
0
40
0
40
0
40
0
40
1
40
1
40
1
40
1
10
22.9785689973
20
33.1579711616
30
0
10
23.0161517973
20
33.0501625616
30
0
10
23.0944505973
20
32.9150896616
30
0
10
23.1531941973
20
32.8563460616
30
0
0
SPLINE
5
EB
100
AcDbEntity
8
mokou
6
ByLayer
62
7
370
-1
100
AcDbSpline
210
0
220
0
230
1
70
8
71
3
72
8
73
4
74
0
42
1e-07
43
1e-07
40
0
40
0
40
0
40
0
40
1
40
1
40
1
40
1
10
23.1531941973
20
32.8563460616
30
0
10
23.2119374973
20
32.7976027616
30
0
10
23.3232182973
20
32.6300920616
30
0
10
23.4019022973
20
32.4832834616
30
0
0
SPLINE
5
EC
100
AcDbEntity
8
mokou
6
ByLayer
62
7
370
-1
100
AcDbSpline
210
0
220
0
230
1
70
8
71
3
72
8
73
4
74
0
42
1e-07
43
1e-07
40
0
40
0
40
0
40
0
40
1
40
1
40
1
40
1
10
23.4019022973
20
32.4832834616
30
0
10
23.4805874973
20
32.3364748616
30
0
10
23.5702112973
20
32.1960052616
30
0
10
23.6003399973
20
32.1737209616
30
0
0
SPLINE
5
ED
100
AcDbEntity
8
mokou
6
ByLayer
62
7
370
-1
100
AcDbSpline
210
0
220
0
230
1
70
8
71
3
72
8
73
4
74
0
42
1e-07
43
1e-07
40
0
40
0
40
0
40
0
40
1
40
1
40
1
40
1
10
23.6003399973
20
32.1737209616
30
0
10
23.6304683973
20
32.1514375616
30
0
10
23.7346289973
20
31.9824904616
30
0
10
23.8305272973
20
31.7980126616
30
0
0
SPLINE
5
EE
100
AcDbEntity
8
mokou
6
ByLayer
62
7
370
-1
100
AcDbSpline
210
0
220
0
230
1
70
8
71
3
72
8
73
4
74
0
42
1e-07
43
1e-07
40
0
40
0
40
0
40
0
40
1
40
1
40
1
40
1
10
23.8305272973
20
31.7980126616
30
0
10
23.9677484973
20
31.5340423616
30
0
10
24.0751616973
20
31.4311072616
30
0
10
24.3358814973
20
31.3111795616
30
0
0
SPLINE
5
EF
100
AcDbEntity
8
mokou
6
ByLayer
62
7
370
-1
100
AcDbSpline
210
0
220
0
230
1
70
8
71
3
72
8
73
4
74
0
42
1e-07
43
1e-07
40
0
40
0
40
0
40
0
40
1
40
1
40
1
40
1
10
24.3358814973
20
31.3111795616
30
0
10
24.5180876973
20
31.2273670616
30
0
10
24.6666107973
20
31.1337985616
30
0
10
24.6666107973
20
31.1048044616
30
0
0
SPLINE
5
F0
100
AcDbEntity
8
mokou
6
ByLayer
62
7
370
-1
100
AcDbSpline
210
0
220
0
230
1
70
8
71
3
72
8
73
4
74
0
42
1e-07
43
1e-07
40
0
40
0
40
0
40
0
40
1
40
1
40
1
40
1
10
24.6666107973
20
31.1048044616
30
0
10
24.6666107973
20
31.0758103616
30
0
10
24.9636560973
20
31.0545334616
30
0
10
25.3280690973
20
31.0545334616
30
0
0
SPLINE
5
F1
100
AcDbEntity
8
mokou
6
ByLayer
62
7
370
-1
100
AcDbSpline
210
0
220
0
230
1
70
8
71
3
72
8
73
4
74
0
42
1e-07
43
1e-07
40
0
40
0
40
0
40
0
40
1
40
1
40
1
40
1
10
25.3280690973
20
31.0545334616
30
0
10
25.6924829973
20
31.0545334616
30
0
10
25.9921730973
20
31.0789885616
30
0
10
25.9921730973
20
31.1100961616
30
0
0
SPLINE
5
F2
100
AcDbEntity
8
mokou
6
ByLayer
62
7
370
-1
100
AcDbSpline
210
0
220
0
230
1
70
8
71
3
72
8
73
4
74
0
42
1e-07
43
1e-07
40
0
40
0
40
0
40
0
40
1
40
1
40
1
40
1
10
25.9921730973
20
31.1100961616
30
0
10
25.9921730973
20
31.1412034616
30
0
10
26.1505430973
20
31.2060190616
30
0
10
26.3440691973
20
31.2556168616
30
0
0
SPLINE
5
F3
100
AcDbEntity
8
mokou
6
ByLayer
62
7
370
-1
100
AcDbSpline
210
0
220
0
230
1
70
8
71
3
72
8
73
4
74
0
42
1e-07
43
1e-07
40
0
40
0
40
0
40
0
40
1
40
1
40
1
40
1
10
26.3440691973
20
31.2556168616
30
0
10
26.5729103973
20
31.3142671616
30
0
10
26.7332318973
20
31.4062261616
30
0
10
26.8044440973
20
31.5149086616
30
0
0
SPLINE
5
F4
100
AcDbEntity
8
mokou
6
ByLayer
62
7
370
-1
100
AcDbSpline
210
0
220
0
230
1
70
8
71
3
72
8
73
4
74
0
42
1e-07
43
1e-07
40
0
40
0
40
0
40
0
40
1
40
1
40
1
40
1
10
26.8044440973
20
31.5149086616
30
0
10
26.8646657973
20
31.6068193616
30
0
10
26.9487608973
20
31.6815259616
30
0
10
26.9922980973
20
31.6815961616
30
0
0
SPLINE
5
F5
100
AcDbEntity
8
mokou
6
ByLayer
62
7
370
-1
100
AcDbSpline
210
0
220
0
230
1
70
8
71
3
72
8
73
4
74
0
42
1e-07
43
1e-07
40
0
40
0
40
0
40
0
40
1
40
1
40
1
40
1
10
26.9922980973
20
31.6815961616
30
0
10
27.0753410973
20
31.6817638616
30
0
10
27.8797226973
20
32.5062340616
30
0
10
28.1194232973
20
32.8378252616
30
0
0
SPLINE
5
F6
100
AcDbEntity
8
mokou
6
ByLayer
62
7
370
-1
100
AcDbSpline
210
0
220
0
230
1
70
8
71
3
72
8
73
4
74
0
42
1e-07
43
1e-07
40
0
40
0
40
0
40
0
40
1
40
1
40
1
40
1
10
28.1194232973
20
32.8378252616
30
0
10
28.1961422973
20
32.9439541616
30
0
10
28.3554290973
20
33.1274182616
30
0
10
28.4739647973
20
33.2452834616
30
0
0
SPLINE
5
F7
100
AcDbEntity
8
mokou
6
ByLayer
62
7
370
-1
100
AcDbSpline
210
0
220
0
230
1
70
8
71
3
72
8
73
4
74
0
42
1e-07
43
1e-07
40
0
40
0
40
0
40
0
40
1
40
1
40
1
40
1
10
28.4739647973
20
33.2452834616
30
0
10
28.5925016973
20
33.3631489616
30
0
10
28.7091494973
20
33.5141755616
30
0
10
28.7332565973
20
33.5813044616
30
0
0
SPLINE
5
F8
100
AcDbEntity
8
mokou
6
ByLayer
62
7
370
-1
100
AcDbSpline
210
0
220
0
230
1
70
8
71
3
72
8
73
4
74
0
42
1e-07
43
1e-07
40
0
40
0
40
0
40
0
40
1
40
1
40
1
40
1
10
28.7332565973
20
33.5813044616
30
0
10
28.7573636973
20
33.6484333616
30
0
10
28.8197612973
20
33.7030126616
30
0
10
28.8734855973
20
33.7030126616
30
0
0
SPLINE
5
F9
100
AcDbEntity
8
mokou
6
ByLayer
62
7
370
-1
100
AcDbSpline
210
0
220
0
230
1
70
8
71
3
72
8
73
4
74
0
42
1e-07
43
1e-07
40
0
40
0
40
0
40
0
40
1
40
1
40
1
40
1
10
28.8734855973
20
33.7030126616
30
0
10
28.9978211973
20
33.7030126616
30
0
10
29.0577035973
20
33.3495286616
30
0
10
29.0586941973
20
32.6049919616
30
0
0
SPLINE
5
FA
100
AcDbEntity
8
mokou
6
ByLayer
62
7
370
-1
100
AcDbSpline
210
0
220
0
230
1
70
8
71
3
72
8
73
4
74
0
42
1e-07
43
1e-07
40
0
40
0
40
0
40
0
40
1
40
1
40
1
40
1
10
29.0586941973
20
32.6049919616
30
0
10
29.0591435973
20
32.2684063616
30
0
10
29.0893331973
20
32.0308459616
30
0
10
29.1301316973
20
32.0308459616
30
0
0
SPLINE
5
FB
100
AcDbEntity
8
mokou
6
ByLayer
62
7
370
-1
100
AcDbSpline
210
0
220
0
230
1
70
8
71
3
72
8
73
4
74
0
42
1e-07
43
1e-07
40
0
40
0
40
0
40
0
40
1
40
1
40
1
40
1
10
29.1301316973
20
32.0308459616
30
0
10
29.1684905973
20
32.0308459616
30
0
10
29.1989231973
20
31.8886087616
30
0
10
29.1989231973
20
31.7159920616
30
0
0
SPLINE
5
FC
100
AcDbEntity
8
mokou
6
ByLayer
62
7
370
-1
100
AcDbSpline
210
0
220
0
230
1
70
8
71
3
72
8
73
4
74
0
42
1e-07
43
1e-07
40
0
40
0
40
0
40
0
40
1
40
1
40
1
40
1
10
29.1989231973
20
31.7159920616
30
0
10
29.1989231973
20
31.5433753616
30
0
10
29.1719543973
20
31.4011378616
30
0
10
29.1380690973
20
31.4011378616
30
0
0
SPLINE
5
FD
100
AcDbEntity
8
mokou
6
ByLayer
62
7
370
-1
100
AcDbSpline
210
0
220
0
230
1
70
8
71
3
72
8
73
4
74
0
42
1e-07
43
1e-07
40
0
40
0
40
0
40
0
40
1
40
1
40
1
40
1
10
29.1380690973
20
31.4011378616
30
0
10
29.1041846973
20
31.4011378616
30
0
10
29.0613518973
20
31.3450063616
30
0
10
29.0428190973
20
31.2741376616
30
0
0
SPLINE
5
FE
100
AcDbEntity
8
mokou
6
ByLayer
62
7
370
-1
100
AcDbSpline
210
0
220
0
230
1
70
8
71
3
72
8
73
4
74
0
42
1e-07
43
1e-07
40
0
40
0
40
0
40
0
40
1
40
1
40
1
40
1
10
29.0428190973
20
31.2741376616
30
0
10
29.0088092973
20
31.1440864616
30
0
10
28.6978403973
20
31.0561846616
30
0
10
28.2649439973
20
31.0545334616
30
0
0
LWPOLYLINE
5
FF
100
AcDbEntity
8
mokou
6
ByLayer
62
7
370
-1
100
AcDbPolyline
90
3
70
0
43
0
10
17.0571941973
20
44.8816585616
10
17.0995274973
20
44.4847834616
10
17.5175690973
20
44.4080545616
0
SPLINE
5
100
100
AcDbEntity
8
mokou
6
ByLayer
62
7
370
-1
100
AcDbSpline
210
0
220
0
230
1
70
8
71
3
72
8
73
4
74
0
42
1e-07
43
1e-07
40
0
40
0
40
0
40
0
40
1
40
1
40
1
40
1
10
28.1114855973
20
30.3745543616
30
0
10
28.1939552973
20
29.1493768616
30
0
10
28.2286415973
20
28.9635853616
30
0
10
28.4104649973
20
28.7817628616
30
0
0
SPLINE
5
101
100
AcDbEntity
8
mokou
6
ByLayer
62
7
370
-1
100
AcDbSpline
210
0
220
0
230
1
70
8
71
3
72
8
73
4
74
0
42
1e-07
43
1e-07
40
0
40
0
40
0
40
0
40
1
40
1
40
1
40
1
10
28.4104649973
20
28.7817628616
30
0
10
28.6171532973
20
28.5750745616
30
0
10
28.9117583973
20
28.5632650616
30
0
10
29.1301316973
20
28.7526586616
30
0
0
SPLINE
5
102
100
AcDbEntity
8
mokou
6
ByLayer
62
7
370
-1
100
AcDbSpline
210
0
220
0
230
1
70
8
71
3
72
8
73
4
74
0
42
1e-07
43
1e-07
40
0
40
0
40
0
40
0
40
1
40
1
40
1
40
1
10
29.1301316973
20
28.7526586616
30
0
10
29.2185887973
20
28.8293776616
30
0
10
29.3472965973
20
28.8902419616
30
0
10
29.4158816973
20
28.8902419616
30
0
0
SPLINE
5
103
100
AcDbEntity
8
mokou
6
ByLayer
62
7
370
-1
100
AcDbSpline
210
0
220
0
230
1
70
8
71
3
72
8
73
4
74
0
42
1e-07
43
1e-07
40
0
40
0
40
0
40
0
40
1
40
1
40
1
40
1
10
29.4158816973
20
28.8902419616
30
0
10
29.4844673973
20
28.8902419616
30
0
10
29.5588622973
20
28.9233202616
30
0
10
29.5825691973
20
28.9616794616
30
0
0
SPLINE
5
104
100
AcDbEntity
8
mokou
6
ByLayer
62
7
370
-1
100
AcDbSpline
210
0
220
0
230
1
70
8
71
3
72
8
73
4
74
0
42
1e-07
43
1e-07
40
0
40
0
40
0
40
0
40
1
40
1
40
1
40
1
10
29.5825691973
20
28.9616794616
30
0
10
29.6062766973
20
29.0000383616
30
0
10
29.7172964973
20
29.0304709616
30
0
10
29.8286315973
20
29.0304709616
30
0
0
SPLINE
5
105
100
AcDbEntity
8
mokou
6
ByLayer
62
7
370
-1
100
AcDbSpline
210
0
220
0
230
1
70
8
71
3
72
8
73
4
74
0
42
1e-07
43
1e-07
40
0
40
0
40
0
40
0
40
1
40
1
40
1
40
1
10
29.8286315973
20
29.0304709616
30
0
10
30.0035918973
20
29.0304709616
30
0
10
30.0405725973
20
28.9945852616
30
0
10
30.1011524973
20
28.7685334616
30
0
0
SPLINE
5
106
100
AcDbEntity
8
mokou
6
ByLayer
62
7
370
-1
100
AcDbSpline
210
0
220
0
230
1
70
8
71
3
72
8
73
4
74
0
42
1e-07
43
1e-07
40
0
40
0
40
0
40
0
40
1
40
1
40
1
40
1
10
30.1011524973
20
28.7685334616
30
0
10
30.1397018973
20
28.6246858616
30
0
10
30.1918202973
20
28.3276411616
30
0
10
30.2175689973
20
28.1070751616
30
0
0
SPLINE
5
107
100
AcDbEntity
8
mokou
6
ByLayer
62
7
370
-1
100
AcDbSpline
210
0
220
0
230
1
70
8
71
3
72
8
73
4
74
0
42
1e-07
43
1e-07
40
0
40
0
40
0
40
0
40
1
40
1
40
1
40
1
10
30.2175689973
20
28.1070751616
30
0
10
30.2433185973
20
27.8865091616
30
0
10
30.2890616973
20
27.7049086616
30
0
10
30.3181106973
20
27.7049086616
30
0
0
SPLINE
5
108
100
AcDbEntity
8
mokou
6
ByLayer
62
7
370
-1
100
AcDbSpline
210
0
220
0
230
1
70
8
71
3
72
8
73
4
74
0
42
1e-07
43
1e-07
40
0
40
0
40
0
40
0
40
1
40
1
40
1
40
1
10
30.3181106973
20
27.7049086616
30
0
10
30.3471590973
20
27.7049086616
30
0
10
30.3852893973
20
27.5868181616
30
0
10
30.4027772973
20
27.4429711616
30
0
0
SPLINE
5
109
100
AcDbEntity
8
mokou
6
ByLayer
62
7
370
-1
100
AcDbSpline
210
0
220
0
230
1
70
8
71
3
72
8
73
4
74
0
42
1e-07
43
1e-07
40
0
40
0
40
0
40
0
40
1
40
1
40
1
40
1
10
30.4027772973
20
27.4429711616
30
0
10
30.4849667973
20
26.7669475616
30
0
10
30.6963269973
20
25.7135950616
30
0
10
30.7573190973
20
25.6729084616
30
0
0
SPLINE
5
10A
100
AcDbEntity
8
mokou
6
ByLayer
62
7
370
-1
100
AcDbSpline
210
0
220
0
230
1
70
8
71
3
72
8
73
4
74
0
42
1e-07
43
1e-07
40
0
40
0
40
0
40
0
40
1
40
1
40
1
40
1
10
30.7573190973
20
25.6729084616
30
0
10
30.7947011973
20
25.6479724616
30
0
10
30.8391476973
20
25.3101238616
30
0
10
30.8578607973
20
24.9214918616
30
0
0
SPLINE
5
10B
100
AcDbEntity
8
mokou
6
ByLayer
62
7
370
-1
100
AcDbSpline
210
0
220
0
230
1
70
8
71
3
72
8
73
4
74
0
42
1e-07
43
1e-07
40
0
40
0
40
0
40
0
40
1
40
1
40
1
40
1
10
30.8578607973
20
24.9214918616
30
0
10
30.8765753973
20
24.5328601616
30
0
10
30.9110075973
20
24.2338402616
30
0
10
30.9345899973
20
24.2573878616
30
0
0
SPLINE
5
10C
100
AcDbEntity
8
mokou
6
ByLayer
62
7
370
-1
100
AcDbSpline
210
0
220
0
230
1
70
8
71
3
72
8
73
4
74
0
42
1e-07
43
1e-07
40
0
40
0
40
0
40
0
40
1
40
1
40
1
40
1
10
30.9345899973
20
24.2573878616
30
0
10
30.9581729973
20
24.2809360616
30
0
10
30.9966953973
20
24.5248405616
30
0
10
31.0192565973
20
24.7997836616
30
0
0
SPLINE
5
10D
100
AcDbEntity
8
mokou
6
ByLayer
62
7
370
-1
100
AcDbSpline
210
0
220
0
230
1
70
8
71
3
72
8
73
4
74
0
42
1e-07
43
1e-07
40
0
40
0
40
0
40
0
40
1
40
1
40
1
40
1
10
31.0192565973
20
24.7997836616
30
0
10
31.0669400973
20
25.3808974616
30
0
10
31.2346511973
20
26.2417627616
30
0
10
31.2997148973
20
26.2417627616
30
0
0
SPLINE
5
10E
100
AcDbEntity
8
mokou
6
ByLayer
62
7
370
-1
100
AcDbSpline
210
0
220
0
230
1
70
8
71
3
72
8
73
4
74
0
42
1e-07
43
1e-07
40
0
40
0
40
0
40
0
40
1
40
1
40
1
40
1
10
31.2997148973
20
26.2417627616
30
0
10
31.3243409973
20
26.2417627616
30
0
10
31.3834001973
20
26.3830120616
30
0
10
31.4320064973
20
26.5566169616
30
0
0
SPLINE
5
10F
100
AcDbEntity
8
mokou
6
ByLayer
62
7
370
-1
100
AcDbSpline
210
0
220
0
230
1
70
8
71
3
72
8
73
4
74
0
42
1e-07
43
1e-07
40
0
40
0
40
0
40
0
40
1
40
1
40
1
40
1
10
31.4320064973
20
26.5566169616
30
0
10
31.5374174973
20
26.9331049616
30
0
10
31.6269287973
20
27.0056272616
30
0
10
31.7627357973
20
26.8264918616
30
0
0
SPLINE
5
110
100
AcDbEntity
8
mokou
6
ByLayer
62
7
370
-1
100
AcDbSpline
210
0
220
0
230
1
70
8
71
3
72
8
73
4
74
0
42
1e-07
43
1e-07
40
0
40
0
40
0
40
0
40
1
40
1
40
1
40
1
10
31.7627357973
20
26.8264918616
30
0
10
31.8527633973
20
26.7077401616
30
0
10
31.8573539973
20
26.7345931616
30
0
10
31.8130064973
20
27.0778459616
30
0
0
SPLINE
5
111
100
AcDbEntity
8
mokou
6
ByLayer
62
7
370
-1
100
AcDbSpline
210
0
220
0
230
1
70
8
71
3
72
8
73
4
74
0
42
1e-07
43
1e-07
40
0
40
0
40
0
40
0
40
1
40
1
40
1
40
1
10
31.8130064973
20
27.0778459616
30
0
10
31.7857481973
20
27.2888218616
30
0
10
31.7357768973
20
27.4725181616
30
0
10
31.7018816973
20
27.4853044616
30
0
0
SPLINE
5
112
100
AcDbEntity
8
mokou
6
ByLayer
62
7
370
-1
100
AcDbSpline
210
0
220
0
230
1
70
8
71
3
72
8
73
4
74
0
42
1e-07
43
1e-07
40
0
40
0
40
0
40
0
40
1
40
1
40
1
40
1
10
31.7018816973
20
27.4853044616
30
0
10
31.6192061973
20
27.5164906616
30
0
10
31.6240814973
20
27.7763461616
30
0
10
31.7071730973
20
27.7763461616
30
0
0
SPLINE
5
113
100
AcDbEntity
8
mokou
6
ByLayer
62
7
370
-1
100
AcDbSpline
210
0
220
0
230
1
70
8
71
3
72
8
73
4
74
0
42
1e-07
43
1e-07
40
0
40
0
40
0
40
0
40
1
40
1
40
1
40
1
10
31.7071730973
20
27.7763461616
30
0
10
31.7432165973
20
27.7763461616
30
0
10
31.7825798973
20
27.8839336616
30
0
10
31.7944856973
20
28.0171168616
30
0
0
SPLINE
5
114
100
AcDbEntity
8
mokou
6
ByLayer
62
7
370
-1
100
AcDbSpline
210
0
220
0
230
1
70
8
71
3
72
8
73
4
74
0
42
1e-07
43
1e-07
40
0
40
0
40
0
40
0
40
1
40
1
40
1
40
1
10
31.7944856973
20
28.0171168616
30
0
10
31.8104462973
20
28.1956678616
30
0
10
31.8385775973
20
28.2441895616
30
0
10
31.9056107973
20
28.2023251616
30
0
0
SPLINE
5
115
100
AcDbEntity
8
mokou
6
ByLayer
62
7
370
-1
100
AcDbSpline
210
0
220
0
230
1
70
8
71
3
72
8
73
4
74
0
42
1e-07
43
1e-07
40
0
40
0
40
0
40
0
40
1
40
1
40
1
40
1
10
31.9056107973
20
28.2023251616
30
0
10
32.0364806973
20
28.1205913616
30
0
10
32.1860732973
20
27.4267666616
30
0
10
32.2389857973
20
26.6598043616
30
0
0
SPLINE
5
116
100
AcDbEntity
8
mokou
6
ByLayer
62
7
370
-1
100
AcDbSpline
210
0
220
0
230
1
70
8
71
3
72
8
73
4
74
0
42
1e-07
43
1e-07
40
0
40
0
40
0
40
0
40
1
40
1
40
1
40
1
10
32.2389857973
20
26.6598043616
30
0
10
32.2779965973
20
26.0943403616
30
0
10
32.2611572973
20
25.9089754616
30
0
10
32.1252149973
20
25.4030335616
30
0
0
SPLINE
5
117
100
AcDbEntity
8
mokou
6
ByLayer
62
7
370
-1
100
AcDbSpline
210
0
220
0
230
1
70
8
71
3
72
8
73
4
74
0
42
1e-07
43
1e-07
40
0
40
0
40
0
40
0
40
1
40
1
40
1
40
1
10
32.1252149973
20
25.4030335616
30
0
10
32.0376059973
20
25.0769797616
30
0
10
31.9464986973
20
24.7951507616
30
0
10
31.9214855973
20
24.7759711616
30
0
0
SPLINE
5
118
100
AcDbEntity
8
mokou
6
ByLayer
62
7
370
-1
100
AcDbSpline
210
0
220
0
230
1
70
8
71
3
72
8
73
4
74
0
42
1e-07
43
1e-07
40
0
40
0
40
0
40
0
40
1
40
1
40
1
40
1
10
31.9214855973
20
24.7759711616
30
0
10
31.8698594973
20
24.7363852616
30
0
10
31.5695897973
20
23.8020613616
30
0
10
31.5695897973
20
23.6805961616
30
0
0
SPLINE
5
119
100
AcDbEntity
8
mokou
6
ByLayer
62
7
370
-1
100
AcDbSpline
210
0
220
0
230
1
70
8
71
3
72
8
73
4
74
0
42
1e-07
43
1e-07
40
0
40
0
40
0
40
0
40
1
40
1
40
1
40
1
10
31.5695897973
20
23.6805961616
30
0
10
31.5695897973
20
23.6369257616
30
0
10
31.5375443973
20
23.5905385616
30
0
10
31.4981522973
20
23.5774084616
30
0
0
SPLINE
5
11A
100
AcDbEntity
8
mokou
6
ByLayer
62
7
370
-1
100
AcDbSpline
210
0
220
0
230
1
70
8
71
3
72
8
73
4
74
0
42
1e-07
43
1e-07
40
0
40
0
40
0
40
0
40
1
40
1
40
1
40
1
10
31.4981522973
20
23.5774084616
30
0
10
31.4587595973
20
23.5642777616
30
0
10
31.3834847973
20
23.3851186616
30
0
10
31.3288190973
20
23.1778876616
30
0
0
SPLINE
5
11B
100
AcDbEntity
8
mokou
6
ByLayer
62
7
370
-1
100
AcDbSpline
210
0
220
0
230
1
70
8
71
3
72
8
73
4
74
0
42
1e-07
43
1e-07
40
0
40
0
40
0
40
0
40
1
40
1
40
1
40
1
10
31.3288190973
20
23.1778876616
30
0
10
31.2741521973
20
22.9706566616
30
0
10
31.2033236973
20
22.7824258616
30
0
10
31.1727149973
20
22.7598460616
30
0
0
SPLINE
5
11C
100
AcDbEntity
8
mokou
6
ByLayer
62
7
370
-1
100
AcDbSpline
210
0
220
0
230
1
70
8
71
3
72
8
73
4
74
0
42
1e-07
43
1e-07
40
0
40
0
40
0
40
0
40
1
40
1
40
1
40
1
10
31.1727149973
20
22.7598460616
30
0
10
31.0941017973
20
22.7018527616
30
0
10
30.8737355973
20
22.2098005616
30
0
10
30.8737355973
20
22.0930960616
30
0
0
SPLINE
5
11D
100
AcDbEntity
8
mokou
6
ByLayer
62
7
370
-1
100
AcDbSpline
210
0
220
0
230
1
70
8
71
3
72
8
73
4
74
0
42
1e-07
43
1e-07
40
0
40
0
40
0
40
0
40
1
40
1
40
1
40
1
10
30.8737355973
20
22.0930960616
30
0
10
30.8737355973
20
22.0395985616
30
0
10
30.8312711973
20
21.9559309616
30
0
10
30.7811315973
20
21.9052420616
30
0
0
SPLINE
5
11E
100
AcDbEntity
8
mokou
6
ByLayer
62
7
370
-1
100
AcDbSpline
210
0
220
0
230
1
70
8
71
3
72
8
73
4
74
0
42
1e-07
43
1e-07
40
0
40
0
40
0
40
0
40
1
40
1
40
1
40
1
10
30.7811315973
20
21.9052420616
30
0
10
30.6945479973
20
21.8177101616
30
0
10
30.4902557973
20
21.2962879616
30
0
10
30.4080689973
20
20.9580334616
30
0
0
SPLINE
5
11F
100
AcDbEntity
8
mokou
6
ByLayer
62
7
370
-1
100
AcDbSpline
210
0
220
0
230
1
70
8
71
3
72
8
73
4
74
0
42
1e-07
43
1e-07
40
0
40
0
40
0
40
0
40
1
40
1
40
1
40
1
10
30.4080689973
20
20.9580334616
30
0
10
30.3870980973
20
20.8717252616
30
0
10
30.3439847973
20
20.8019293616
30
0
10
30.3128189973
20
20.8019293616
30
0
0
SPLINE
5
120
100
AcDbEntity
8
mokou
6
ByLayer
62
7
370
-1
100
AcDbSpline
210
0
220
0
230
1
70
8
71
3
72
8
73
4
74
0
42
1e-07
43
1e-07
40
0
40
0
40
0
40
0
40
1
40
1
40
1
40
1
10
30.3128189973
20
20.8019293616
30
0
10
30.2816540973
20
20.8019293616
30
0
10
30.2022689973
20
20.6203288616
30
0
10
30.1381940973
20
20.3997628616
30
0
0
SPLINE
5
121
100
AcDbEntity
8
mokou
6
ByLayer
62
7
370
-1
100
AcDbSpline
210
0
220
0
230
1
70
8
71
3
72
8
73
4
74
0
42
1e-07
43
1e-07
40
0
40
0
40
0
40
0
40
1
40
1
40
1
40
1
10
30.1381940973
20
20.3997628616
30
0
10
30.0741191973
20
20.1791968616
30
0
10
29.9982416973
20
19.9823797616
30
0
10
29.9688605973
20
19.9632001616
30
0
0
SPLINE
5
122
100
AcDbEntity
8
mokou
6
ByLayer
62
7
370
-1
100
AcDbSpline
210
0
220
0
230
1
70
8
71
3
72
8
73
4
74
0
42
1e-07
43
1e-07
40
0
40
0
40
0
40
0
40
1
40
1
40
1
40
1
10
29.9688605973
20
19.9632001616
30
0
10
29.9156060973
20
19.9284352616
30
0
10
29.7368825973
20
19.2584950616
30
0
10
29.6487149973
20
18.7619920616
30
0
0
SPLINE
5
123
100
AcDbEntity
8
mokou
6
ByLayer
62
7
370
-1
100
AcDbSpline
210
0
220
0
230
1
70
8
71
3
72
8
73
4
74
0
42
1e-07
43
1e-07
40
0
40
0
40
0
40
0
40
1
40
1
40
1
40
1
10
29.6487149973
20
18.7619920616
30
0
10
29.6231708973
20
18.6181450616
30
0
10
29.5764680973
20
18.5000545616
30
0
10
29.5455272973
20
18.5000545616
30
0
0
SPLINE
5
124
100
AcDbEntity
8
mokou
6
ByLayer
62
7
370
-1
100
AcDbSpline
210
0
220
0
230
1
70
8
71
3
72
8
73
4
74
0
42
1e-07
43
1e-07
40
0
40
0
40
0
40
0
40
1
40
1
40
1
40
1
10
29.5455272973
20
18.5000545616
30
0
10
29.5145858973
20
18.5000545616
30
0
10
29.4213305973
20
18.1940782616
30
0
10
29.3365064973
20
17.8200751616
30
0
0
SPLINE
5
125
100
AcDbEntity
8
mokou
6
ByLayer
62
7
370
-1
100
AcDbSpline
210
0
220
0
230
1
70
8
71
3
72
8
73
4
74
0
42
1e-07
43
1e-07
40
0
40
0
40
0
40
0
40
1
40
1
40
1
40
1
10
29.3365064973
20
17.8200751616
30
0
10
29.2516814973
20
17.4460720616
30
0
10
29.1580715973
20
17.1248797616
30
0
10
29.1301316973
20
17.1057001616
30
0
0
SPLINE
5
126
100
AcDbEntity
8
mokou
6
ByLayer
62
7
370
-1
100
AcDbSpline
210
0
220
0
230
1
70
8
71
3
72
8
73
4
74
0
42
1e-07
43
1e-07
40
0
40
0
40
0
40
0
40
1
40
1
40
1
40
1
10
29.1301316973
20
17.1057001616
30
0
10
29.1021923973
20
17.0865208616
30
0
10
29.0264165973
20
16.8261934616
30
0
10
28.9607981973
20
16.5289084616
30
0
0
SPLINE
5
127
100
AcDbEntity
8
mokou
6
ByLayer
62
7
370
-1
100
AcDbSpline
210
0
220
0
230
1
70
8
71
3
72
8
73
4
74
0
42
1e-07
43
1e-07
40
0
40
0
40
0
40
0
40
1
40
1
40
1
40
1
10
28.9607981973
20
16.5289084616
30
0
10
28.8951806973
20
16.2316243616
30
0
10
28.8182687973
20
15.9891586616
30
0
10
28.7888189973
20
15.9891586616
30
0
0
SPLINE
5
128
100
AcDbEntity
8
mokou
6
ByLayer
62
7
370
-1
100
AcDbSpline
210
0
220
0
230
1
70
8
71
3
72
8
73
4
74
0
42
1e-07
43
1e-07
40
0
40
0
40
0
40
0
40
1
40
1
40
1
40
1
10
28.7888189973
20
15.9891586616
30
0
10
28.7366897973
20
15.9891586616
30
0
10
28.4316314973
20
14.8330258616
30
0
10
28.4316314973
20
14.6344918616
30
0
0
SPLINE
5
129
100
AcDbEntity
8
mokou
6
ByLayer
62
7
370
-1
100
AcDbSpline
210
0
220
0
230
1
70
8
71
3
72
8
73
4
74
0
42
1e-07
43
1e-07
40
0
40
0
40
0
40
0
40
1
40
1
40
1
40
1
10
28.4316314973
20
14.6344918616
30
0
10
28.4316314973
20
14.5797922616
30
0
10
28.4002778973
20
14.5234981616
30
0
10
28.3601939973
20
14.5101376616
30
0
0
SPLINE
5
12A
100
AcDbEntity
8
mokou
6
ByLayer
62
7
370
-1
100
AcDbSpline
210
0
220
0
230
1
70
8
71
3
72
8
73
4
74
0
42
1e-07
43
1e-07
40
0
40
0
40
0
40
0
40
1
40
1
40
1
40
1
10
28.3601939973
20
14.5101376616
30
0
10
28.3201112973
20
14.4967765616
30
0
10
28.2186812973
20
14.1099784616
30
0
10
28.1352980973
20
13.6502419616
30
0
0
SPLINE
5
12B
100
AcDbEntity
8
mokou
6
ByLayer
62
7
370
-1
100
AcDbSpline
210
0
220
0
230
1
70
8
71
3
72
8
73
4
74
0
42
1e-07
43
1e-07
40
0
40
0
40
0
40
0
40
1
40
1
40
1
40
1
10
28.1352980973
20
13.6502419616
30
0
10
28.0519151973
20
13.1905045616
30
0
10
27.9636695973
20
12.7989421616
30
0
10
27.9395066973
20
12.7797628616
30
0
0
SPLINE
5
12C
100
AcDbEntity
8
mokou
6
ByLayer
62
7
370
-1
100
AcDbSpline
210
0
220
0
230
1
70
8
71
3
72
8
73
4
74
0
42
1e-07
43
1e-07
40
0
40
0
40
0
40
0
40
1
40
1
40
1
40
1
10
27.9395066973
20
12.7797628616
30
0
10
27.8715599973
20
12.7258300616
30
0
10
27.8032067973
20
11.9980141616
30
0
10
27.8495480973
20
11.8219711616
30
0
0
LWPOLYLINE
5
12D
100
AcDbEntity
8
mokou
6
ByLayer
62
7
370
-1
100
AcDbPolyline
90
3
70
0
43
0
10
28.2649439973
20
31.0545334616
10
28.0638605973
20
31.0545334616
10
28.1114855973
20
30.3745543616
0
SPLINE
5
12E
100
AcDbEntity
8
mokou
6
ByLayer
62
7
370
-1
100
AcDbSpline
210
0
220
0
230
1
70
8
71
3
72
8
73
4
74
0
42
1e-07
43
1e-07
40
0
40
0
40
0
40
0
40
1
40
1
40
1
40
1
10
50.3311940973
20
12.0071794616
30
0
10
50.3311940973
20
12.1957786616
30
0
10
50.3003321973
20
12.3595180616
30
0
10
50.2624022973
20
12.3723043616
30
0
0
SPLINE
5
12F
100
AcDbEntity
8
mokou
6
ByLayer
62
7
370
-1
100
AcDbSpline
210
0
220
0
230
1
70
8
71
3
72
8
73
4
74
0
42
1e-07
43
1e-07
40
0
40
0
40
0
40
0
40
1
40
1
40
1
40
1
10
50.2624022973
20
12.3723043616
30
0
10
50.2244732973
20
12.3850906616
30
0
10
50.1417158973
20
12.6627298616
30
0
10
50.0771939973
20
12.9887836616
30
0
0
SPLINE
5
130
100
AcDbEntity
8
mokou
6
ByLayer
62
7
370
-1
100
AcDbSpline
210
0
220
0
230
1
70
8
71
3
72
8
73
4
74
0
42
1e-07
43
1e-07
40
0
40
0
40
0
40
0
40
1
40
1
40
1
40
1
10
50.0771939973
20
12.9887836616
30
0
10
50.0126738973
20
13.3148374616
30
0
10
49.9356509973
20
13.5978967616
30
0
10
49.9052147973
20
13.6184920616
30
0
0
SPLINE
5
131
100
AcDbEntity
8
mokou
6
ByLayer
62
7
370
-1
100
AcDbSpline
210
0
220
0
230
1
70
8
71
3
72
8
73
4
74
0
42
1e-07
43
1e-07
40
0
40
0
40
0
40
0
40
1
40
1
40
1
40
1
10
49.9052147973
20
13.6184920616
30
0
10
49.8747797973
20
13.6390888616
30
0
10
49.7862302973
20
13.9213267616
30
0
10
49.7094230973
20
14.2429084616
30
0
0
SPLINE
5
132
100
AcDbEntity
8
mokou
6
ByLayer
62
7
370
-1
100
AcDbSpline
210
0
220
0
230
1
70
8
71
3
72
8
73
4
74
0
42
1e-07
43
1e-07
40
0
40
0
40
0
40
0
40
1
40
1
40
1
40
1
10
49.7094230973
20
14.2429084616
30
0
10
49.6326152973
20
14.5644895616
30
0
10
49.5419075973
20
14.8450891616
30
0
10
49.5083399973
20
14.8673251616
30
0
0
SPLINE
5
133
100
AcDbEntity
8
mokou
6
ByLayer
62
7
370
-1
100
AcDbSpline
210
0
220
0
230
1
70
8
71
3
72
8
73
4
74
0
42
1e-07
43
1e-07
40
0
40
0
40
0
40
0
40
1
40
1
40
1
40
1
10
49.5083399973
20
14.8673251616
30
0
10
49.4747720973
20
14.8895611616
30
0
10
49.3758146973
20
15.1736254616
30
0
10
49.2887357973
20
15.4996795616
30
0
0
SPLINE
5
134
100
AcDbEntity
8
mokou
6
ByLayer
62
7
370
-1
100
AcDbSpline
210
0
220
0
230
1
70
8
71
3
72
8
73
4
74
0
42
1e-07
43
1e-07
40
0
40
0
40
0
40
0
40
1
40
1
40
1
40
1
10
49.2887357973
20
15.4996795616
30
0
10
49.2016568973
20
15.8257333616
30
0
10
49.1087402973
20
16.1075623616
30
0
10
49.0823606973
20
16.1267419616
30
0
0
SPLINE
5
135
100
AcDbEntity
8
mokou
6
ByLayer
62
7
370
-1
100
AcDbSpline
210
0
220
0
230
1
70
8
71
3
72
8
73
4
74
0
42
1e-07
43
1e-07
40
0
40
0
40
0
40
0
40
1
40
1
40
1
40
1
10
49.0823606973
20
16.1267419616
30
0
10
49.0245518973
20
16.1687722616
30
0
10
48.7966106973
20
16.8714844616
30
0
10
48.7966106973
20
17.0078044616
30
0
0
SPLINE
5
136
100
AcDbEntity
8
mokou
6
ByLayer
62
7
370
-1
100
AcDbSpline
210
0
220
0
230
1
70
8
71
3
72
8
73
4
74
0
42
1e-07
43
1e-07
40
0
40
0
40
0
40
0
40
1
40
1
40
1
40
1
10
48.7966106973
20
17.0078044616
30
0
10
48.7966106973
20
17.0609386616
30
0
10
48.7693946973
20
17.1057001616
30
0
10
48.7357565973
20
17.1057001616
30
0
0
SPLINE
5
137
100
AcDbEntity
8
mokou
6
ByLayer
62
7
370
-1
100
AcDbSpline
210
0
220
0
230
1
70
8
71
3
72
8
73
4
74
0
42
1e-07
43
1e-07
40
0
40
0
40
0
40
0
40
1
40
1
40
1
40
1
10
48.7357565973
20
17.1057001616
30
0
10
48.6828686973
20
17.1057001616
30
0
10
48.5336945973
20
17.5720324616
30
0
10
48.3997355973
20
18.1508044616
30
0
0
SPLINE
5
138
100
AcDbEntity
8
mokou
6
ByLayer
62
7
370
-1
100
AcDbSpline
210
0
220
0
230
1
70
8
71
3
72
8
73
4
74
0
42
1e-07
43
1e-07
40
0
40
0
40
0
40
0
40
1
40
1
40
1
40
1
10
48.3997355973
20
18.1508044616
30
0
10
48.3775394973
20
18.2467030616
30
0
10
48.3354830973
20
18.3406456616
30
0
10
48.3071315973
20
18.3598252616
30
0
0
SPLINE
5
139
100
AcDbEntity
8
mokou
6
ByLayer
62
7
370
-1
100
AcDbSpline
210
0
220
0
230
1
70
8
71
3
72
8
73
4
74
0
42
1e-07
43
1e-07
40
0
40
0
40
0
40
0
40
1
40
1
40
1
40
1
10
48.3071315973
20
18.3598252616
30
0
10
48.2451530973
20
18.4017529616
30
0
10
47.9605274973
20
19.3378225616
30
0
10
47.9605274973
20
19.5001795616
30
0
0
SPLINE
5
13A
100
AcDbEntity
8
mokou
6
ByLayer
62
7
370
-1
100
AcDbSpline
210
0
220
0
230
1
70
8
71
3
72
8
73
4
74
0
42
1e-07
43
1e-07
40
0
40
0
40
0
40
0
40
1
40
1
40
1
40
1
10
47.9605274973
20
19.5001795616
30
0
10
47.9605274973
20
19.5631732616
30
0
10
47.9374682973
20
19.6139503616
30
0
10
47.9076107973
20
19.6139503616
30
0
0
SPLINE
5
13B
100
AcDbEntity
8
mokou
6
ByLayer
62
7
370
-1
100
AcDbSpline
210
0
220
0
230
1
70
8
71
3
72
8
73
4
74
0
42
1e-07
43
1e-07
40
0
40
0
40
0
40
0
40
1
40
1
40
1
40
1
10
47.9076107973
20
19.6139503616
30
0
10
47.8777529973
20
19.6139503616
30
0
10
47.7960182973
20
19.8044824616
30
0
10
47.7276941973
20
20.0346376616
30
0
0
SPLINE
5
13C
100
AcDbEntity
8
mokou
6
ByLayer
62
7
370
-1
100
AcDbSpline
210
0
220
0
230
1
70
8
71
3
72
8
73
4
74
0
42
1e-07
43
1e-07
40
0
40
0
40
0
40
0
40
1
40
1
40
1
40
1
10
47.7276941973
20
20.0346376616
30
0
10
47.6593697973
20
20.2647940616
30
0
10
47.5825475973
20
20.4526795616
30
0
10
47.5557149973
20
20.4526795616
30
0
0
SPLINE
5
13D
100
AcDbEntity
8
mokou
6
ByLayer
62
7
370
-1
100
AcDbSpline
210
0
220
0
230
1
70
8
71
3
72
8
73
4
74
0
42
1e-07
43
1e-07
40
0
40
0
40
0
40
0
40
1
40
1
40
1
40
1
10
47.5557149973
20
20.4526795616
30
0
10
47.5288832973
20
20.4526795616
30
0
10
47.4286709973
20
20.7040759616
30
0
10
47.3334647973
20
21.0109501616
30
0
0
SPLINE
5
13E
100
AcDbEntity
8
mokou
6
ByLayer
62
7
370
-1
100
AcDbSpline
210
0
220
0
230
1
70
8
71
3
72
8
73
4
74
0
42
1e-07
43
1e-07
40
0
40
0
40
0
40
0
40
1
40
1
40
1
40
1
10
47.3334647973
20
21.0109501616
30
0
10
47.2382588973
20
21.3178246616
30
0
10
47.1382700973
20
21.5692210616
30
0
10
47.1112148973
20
21.5692210616
30
0
0
SPLINE
5
13F
100
AcDbEntity
8
mokou
6
ByLayer
62
7
370
-1
100
AcDbSpline
210
0
220
0
230
1
70
8
71
3
72
8
73
4
74
0
42
1e-07
43
1e-07
40
0
40
0
40
0
40
0
40
1
40
1
40
1
40
1
10
47.1112148973
20
21.5692210616
30
0
10
47.0841596973
20
21.5692210616
30
0
10
46.9940504973
20
21.7571074616
30
0
10
46.9101314973
20
21.9872626616
30
0
0
SPLINE
5
140
100
AcDbEntity
8
mokou
6
ByLayer
62
7
370
-1
100
AcDbSpline
210
0
220
0
230
1
70
8
71
3
72
8
73
4
74
0
42
1e-07
43
1e-07
40
0
40
0
40
0
40
0
40
1
40
1
40
1
40
1
10
46.9101314973
20
21.9872626616
30
0
10
46.8262124973
20
22.2174181616
30
0
10
46.7344100973
20
22.4053045616
30
0
10
46.7064023973
20
22.4053045616
30
0
0
SPLINE
5
141
100
AcDbEntity
8
mokou
6
ByLayer
62
7
370
-1
100
AcDbSpline
210
0
220
0
230
1
70
8
71
3
72
8
73
4
74
0
42
1e-07
43
1e-07
40
0
40
0
40
0
40
0
40
1
40
1
40
1
40
1
10
46.7064023973
20
22.4053045616
30
0
10
46.6783937973
20
22.4053045616
30
0
10
46.5979544973
20
22.5538276616
30
0
10
46.5291314973
20
22.7360335616
30
0
0
SPLINE
5
142
100
AcDbEntity
8
mokou
6
ByLayer
62
7
370
-1
100
AcDbSpline
210
0
220
0
230
1
70
8
71
3
72
8
73
4
74
0
42
1e-07
43
1e-07
40
0
40
0
40
0
40
0
40
1
40
1
40
1
40
1
10
46.5291314973
20
22.7360335616
30
0
10
46.4603093973
20
22.9182403616
30
0
10
46.3825082973
20
23.0819791616
30
0
10
46.3545065973
20
23.1011584616
30
0
0
SPLINE
5
143
100
AcDbEntity
8
mokou
6
ByLayer
62
7
370
-1
100
AcDbSpline
210
0
220
0
230
1
70
8
71
3
72
8
73
4
74
0
42
1e-07
43
1e-07
40
0
40
0
40
0
40
0
40
1
40
1
40
1
40
1
10
46.3545065973
20
23.1011584616
30
0
10
46.3265048973
20
23.1203380616
30
0
10
46.2299186973
20
23.4048130616
30
0
10
46.1428397973
20
23.7308668616
30
0
0
SPLINE
5
144
100
AcDbEntity
8
mokou
6
ByLayer
62
7
370
-1
100
AcDbSpline
210
0
220
0
230
1
70
8
71
3
72
8
73
4
74
0
42
1e-07
43
1e-07
40
0
40
0
40
0
40
0
40
1
40
1
40
1
40
1
10
46.1428397973
20
23.7308668616
30
0
10
46.0557611973
20
24.0569206616
30
0
10
45.9656993973
20
24.3387499616
30
0
10
45.9417566973
20
24.3579295616
30
0
0
SPLINE
5
145
100
AcDbEntity
8
mokou
6
ByLayer
62
7
370
-1
100
AcDbSpline
210
0
220
0
230
1
70
8
71
3
72
8
73
4
74
0
42
1e-07
43
1e-07
40
0
40
0
40
0
40
0
40
1
40
1
40
1
40
1
10
45.9417566973
20
24.3579295616
30
0
10
45.9178127973
20
24.3771088616
30
0
10
45.8212325973
20
24.6437209616
30
0
10
45.7274441973
20
24.9505960616
30
0
0
SPLINE
5
146
100
AcDbEntity
8
mokou
6
ByLayer
62
7
370
-1
100
AcDbSpline
210
0
220
0
230
1
70
8
71
3
72
8
73
4
74
0
42
1e-07
43
1e-07
40
0
40
0
40
0
40
0
40
1
40
1
40
1
40
1
10
45.7274441973
20
24.9505960616
30
0
10
45.6336563973
20
25.2574705616
30
0
10
45.5211638973
20
25.5465808616
30
0
10
45.4760897973
20
25.5935335616
30
0
0
SPLINE
5
147
100
AcDbEntity
8
mokou
6
ByLayer
62
7
370
-1
100
AcDbSpline
210
0
220
0
230
1
70
8
71
3
72
8
73
4
74
0
42
1e-07
43
1e-07
40
0
40
0
40
0
40
0
40
1
40
1
40
1
40
1
10
45.4760897973
20
25.5935335616
30
0
10
45.3445559973
20
25.7305513616
30
0
10
45.2961368973
20
26.3105644616
30
0
10
45.3755480973
20
26.8000336616
30
0
0
SPLINE
5
148
100
AcDbEntity
8
mokou
6
ByLayer
62
7
370
-1
100
AcDbSpline
210
0
220
0
230
1
70
8
71
3
72
8
73
4
74
0
42
1e-07
43
1e-07
40
0
40
0
40
0
40
0
40
1
40
1
40
1
40
1
10
45.3755480973
20
26.8000336616
30
0
10
45.4159451973
20
27.0490288616
30
0
10
45.4493774973
20
27.4314259616
30
0
10
45.4496315973
20
27.6519919616
30
0
0
SPLINE
5
149
100
AcDbEntity
8
mokou
6
ByLayer
62
7
370
-1
100
AcDbSpline
210
0
220
0
230
1
70
8
71
3
72
8
73
4
74
0
42
1e-07
43
1e-07
40
0
40
0
40
0
40
0
40
1
40
1
40
1
40
1
10
45.4496315973
20
27.6519919616
30
0
10
45.4499210973
20
27.8725579616
30
0
10
45.4800641973
20
28.0541584616
30
0
10
45.5184230973
20
28.0541584616
30
0
0
SPLINE
5
14A
100
AcDbEntity
8
mokou
6
ByLayer
62
7
370
-1
100
AcDbSpline
210
0
220
0
230
1
70
8
71
3
72
8
73
4
74
0
42
1e-07
43
1e-07
40
0
40
0
40
0
40
0
40
1
40
1
40
1
40
1
10
45.5184230973
20
28.0541584616
30
0
10
45.5587202973
20
28.0541584616
30
0
10
45.5898605973
20
28.2758083616
30
0
10
45.5898605973
20
28.5780334616
30
0
0
SPLINE
5
14B
100
AcDbEntity
8
mokou
6
ByLayer
62
7
370
-1
100
AcDbSpline
210
0
220
0
230
1
70
8
71
3
72
8
73
4
74
0
42
1e-07
43
1e-07
40
0
40
0
40
0
40
0
40
1
40
1
40
1
40
1
10
45.5898605973
20
28.5780334616
30
0
10
45.5898605973
20
28.8802579616
30
0
10
45.5587202973
20
29.0992627616
30
0
10
45.5184230973
20
29.0992627616
30
0
0
SPLINE
5
14C
100
AcDbEntity
8
mokou
6
ByLayer
62
7
370
-1
100
AcDbSpline
210
0
220
0
230
1
70
8
71
3
72
8
73
4
74
0
42
1e-07
43
1e-07
40
0
40
0
40
0
40
0
40
1
40
1
40
1
40
1
10
45.5184230973
20
29.0992627616
30
0
10
45.4800641973
20
29.0992627616
30
0
10
45.4496315973
20
29.1565117616
30
0
10
45.4496315973
20
29.2262626616
30
0
0
SPLINE
5
14D
100
AcDbEntity
8
mokou
6
ByLayer
62
7
370
-1
100
AcDbSpline
210
0
220
0
230
1
70
8
71
3
72
8
73
4
74
0
42
1e-07
43
1e-07
40
0
40
0
40
0
40
0
40
1
40
1
40
1
40
1
10
45.4496315973
20
29.2262626616
30
0
10
45.4496315973
20
29.2960129616
30
0
10
45.3404420973
20
29.4776134616
30
0
10
45.2062148973
20
29.6284294616
30
0
0
SPLINE
5
14E
100
AcDbEntity
8
mokou
6
ByLayer
62
7
370
-1
100
AcDbSpline
210
0
220
0
230
1
70
8
71
3
72
8
73
4
74
0
42
1e-07
43
1e-07
40
0
40
0
40
0
40
0
40
1
40
1
40
1
40
1
10
45.2062148973
20
29.6284294616
30
0
10
44.9354804973
20
29.9326216616
30
0
10
44.9109905973
20
30.0183778616
30
0
10
45.0659855973
20
30.1470127616
30
0
0
SPLINE
5
14F
100
AcDbEntity
8
mokou
6
ByLayer
62
7
370
-1
100
AcDbSpline
210
0
220
0
230
1
70
8
71
3
72
8
73
4
74
0
42
1e-07
43
1e-07
40
0
40
0
40
0
40
0
40
1
40
1
40
1
40
1
10
45.0659855973
20
30.1470127616
30
0
10
45.1513484973
20
30.2178574616
30
0
10
45.2334632973
20
30.2123500616
30
0
10
45.4946105973
20
30.1126168616
30
0
0
SPLINE
5
150
100
AcDbEntity
8
mokou
6
ByLayer
62
7
370
-1
100
AcDbSpline
210
0
220
0
230
1
70
8
71
3
72
8
73
4
74
0
42
1e-07
43
1e-07
40
0
40
0
40
0
40
0
40
1
40
1
40
1
40
1
10
45.4946105973
20
30.1126168616
30
0
10
45.6719357973
20
30.0448963616
30
0
10
45.8737928973
20
29.9318722616
30
0
10
45.9444023973
20
29.8612627616
30
0
0
SPLINE
5
151
100
AcDbEntity
8
mokou
6
ByLayer
62
7
370
-1
100
AcDbSpline
210
0
220
0
230
1
70
8
71
3
72
8
73
4
74
0
42
1e-07
43
1e-07
40
0
40
0
40
0
40
0
40
1
40
1
40
1
40
1
10
45.9444023973
20
29.8612627616
30
0
10
46.1039948973
20
29.7016702616
30
0
10
46.3733720973
20
29.6296147616
30
0
10
46.6005689973
20
29.6866378616
30
0
0
SPLINE
5
152
100
AcDbEntity
8
mokou
6
ByLayer
62
7
370
-1
100
AcDbSpline
210
0
220
0
230
1
70
8
71
3
72
8
73
4
74
0
42
1e-07
43
1e-07
40
0
40
0
40
0
40
0
40
1
40
1
40
1
40
1
10
46.6005689973
20
29.6866378616
30
0
10
46.7719283973
20
29.7296458616
30
0
10
47.0530064973
20
30.2093824616
30
0
10
47.0530064973
20
30.4565752616
30
0
0
SPLINE
5
153
100
AcDbEntity
8
mokou
6
ByLayer
62
7
370
-1
100
AcDbSpline
210
0
220
0
230
1
70
8
71
3
72
8
73
4
74
0
42
1e-07
43
1e-07
40
0
40
0
40
0
40
0
40
1
40
1
40
1
40
1
10
47.0530064973
20
30.4565752616
30
0
10
47.0530064973
20
30.5162185616
30
0
10
47.0816273973
20
30.5650543616
30
0
10
47.1138605973
20
30.5650543616
30
0
0
SPLINE
5
154
100
AcDbEntity
8
mokou
6
ByLayer
62
7
370
-1
100
AcDbSpline
210
0
220
0
230
1
70
8
71
3
72
8
73
4
74
0
42
1e-07
43
1e-07
40
0
40
0
40
0
40
0
40
1
40
1
40
1
40
1
10
47.1138605973
20
30.5650543616
30
0
10
47.1460925973
20
30.5650543616
30
0
10
47.2136318973
20
30.7385830616
30
0
10
47.2646732973
20
30.9513460616
30
0
0
SPLINE
5
155
100
AcDbEntity
8
mokou
6
ByLayer
62
7
370
-1
100
AcDbSpline
210
0
220
0
230
1
70
8
71
3
72
8
73
4
74
0
42
1e-07
43
1e-07
40
0
40
0
40
0
40
0
40
1
40
1
40
1
40
1
10
47.2646732973
20
30.9513460616
30
0
10
47.3157137973
20
31.1641099616
30
0
10
47.3813801973
20
31.3552366616
30
0
10
47.4128399973
20
31.3746793616
30
0
0
SPLINE
5
156
100
AcDbEntity
8
mokou
6
ByLayer
62
7
370
-1
100
AcDbSpline
210
0
220
0
230
1
70
8
71
3
72
8
73
4
74
0
42
1e-07
43
1e-07
40
0
40
0
40
0
40
0
40
1
40
1
40
1
40
1
10
47.4128399973
20
31.3746793616
30
0
10
47.4828650973
20
31.4179576616
30
0
10
47.8142021973
20
31.1856661616
30
0
10
47.8202981973
20
31.0889293616
30
0
0
SPLINE
5
157
100
AcDbEntity
8
mokou
6
ByLayer
62
7
370
-1
100
AcDbSpline
210
0
220
0
230
1
70
8
71
3
72
8
73
4
74
0
42
1e-07
43
1e-07
40
0
40
0
40
0
40
0
40
1
40
1
40
1
40
1
10
47.8202981973
20
31.0889293616
30
0
10
47.8300499973
20
30.9341857616
30
0
10
48.2748938973
20
30.5393977616
30
0
10
48.5373191973
20
30.4512835616
30
0
0
SPLINE
5
158
100
AcDbEntity
8
mokou
6
ByLayer
62
7
370
-1
100
AcDbSpline
210
0
220
0
230
1
70
8
71
3
72
8
73
4
74
0
42
1e-07
43
1e-07
40
0
40
0
40
0
40
0
40
1
40
1
40
1
40
1
10
48.5373191973
20
30.4512835616
30
0
10
48.6044477973
20
30.4287436616
30
0
10
48.6590273973
20
30.3841903616
30
0
10
48.6590273973
20
30.3533878616
30
0
0
SPLINE
5
159
100
AcDbEntity
8
mokou
6
ByLayer
62
7
370
-1
100
AcDbSpline
210
0
220
0
230
1
70
8
71
3
72
8
73
4
74
0
42
1e-07
43
1e-07
40
0
40
0
40
0
40
0
40
1
40
1
40
1
40
1
10
48.6590273973
20
30.3533878616
30
0
10
48.6590273973
20
30.2951548616
30
0
10
49.1660807973
20
30.1160968616
30
0
10
49.5295064973
20
30.0464710616
30
0
0
SPLINE
5
15A
100
AcDbEntity
8
mokou
6
ByLayer
62
7
370
-1
100
AcDbSpline
210
0
220
0
230
1
70
8
71
3
72
8
73
4
74
0
42
1e-07
43
1e-07
40
0
40
0
40
0
40
0
40
1
40
1
40
1
40
1
10
49.5295064973
20
30.0464710616
30
0
10
49.7629586973
20
30.0017458616
30
0
10
50.8131083973
20
30.2321002616
30
0
10
50.8815272973
20
30.3428044616
30
0
0
SPLINE
5
15B
100
AcDbEntity
8
mokou
6
ByLayer
62
7
370
-1
100
AcDbSpline
210
0
220
0
230
1
70
8
71
3
72
8
73
4
74
0
42
1e-07
43
1e-07
40
0
40
0
40
0
40
0
40
1
40
1
40
1
40
1
10
50.8815272973
20
30.3428044616
30
0
10
50.9056412973
20
30.3818221616
30
0
10
51.0662099973
20
30.4679806616
30
0
10
51.2387147973
20
30.5359501616
30
0
0
SPLINE
5
15C
100
AcDbEntity
8
mokou
6
ByLayer
62
7
370
-1
100
AcDbSpline
210
0
220
0
230
1
70
8
71
3
72
8
73
4
74
0
42
1e-07
43
1e-07
40
0
40
0
40
0
40
0
40
1
40
1
40
1
40
1
10
51.2387147973
20
30.5359501616
30
0
10
51.4112189973
20
30.6039190616
30
0
10
51.5687852973
20
30.6797761616
30
0
10
51.5879648973
20
30.7052836616
30
0
0
SPLINE
5
15D
100
AcDbEntity
8
mokou
6
ByLayer
62
7
370
-1
100
AcDbSpline
210
0
220
0
230
1
70
8
71
3
72
8
73
4
74
0
42
1e-07
43
1e-07
40
0
40
0
40
0
40
0
40
1
40
1
40
1
40
1
10
51.5879648973
20
30.7052836616
30
0
10
51.6285710973
20
30.7592881616
30
0
10
52.5467531973
20
31.0545334616
30
0
10
52.6754024973
20
31.0545334616
30
0
0
SPLINE
5
15E
100
AcDbEntity
8
mokou
6
ByLayer
62
7
370
-1
100
AcDbSpline
210
0
220
0
230
1
70
8
71
3
72
8
73
4
74
0
42
1e-07
43
1e-07
40
0
40
0
40
0
40
0
40
1
40
1
40
1
40
1
10
52.6754024973
20
31.0545334616
30
0
10
52.7232848973
20
31.0545334616
30
0
10
52.7710952973
20
31.0853497616
30
0
10
52.7838815973
20
31.1233252616
30
0
0
SPLINE
5
15F
100
AcDbEntity
8
mokou
6
ByLayer
62
7
370
-1
100
AcDbSpline
210
0
220
0
230
1
70
8
71
3
72
8
73
4
74
0
42
1e-07
43
1e-07
40
0
40
0
40
0
40
0
40
1
40
1
40
1
40
1
10
52.7838815973
20
31.1233252616
30
0
10
52.8091865973
20
31.1984779616
30
0
10
53.9483030973
20
31.4674825616
30
0
10
54.2496731973
20
31.4699293616
30
0
0
SPLINE
5
160
100
AcDbEntity
8
mokou
6
ByLayer
62
7
370
-1
100
AcDbSpline
210
0
220
0
230
1
70
8
71
3
72
8
73
4
74
0
42
1e-07
43
1e-07
40
0
40
0
40
0
40
0
40
1
40
1
40
1
40
1
10
54.2496731973
20
31.4699293616
30
0
10
54.3519650973
20
31.4707600616
30
0
10
54.4459076973
20
31.5012526616
30
0
10
54.4586939973
20
31.5360751616
30
0
0
SPLINE
5
161
100
AcDbEntity
8
mokou
6
ByLayer
62
7
370
-1
100
AcDbSpline
210
0
220
0
230
1
70
8
71
3
72
8
73
4
74
0
42
1e-07
43
1e-07
40
0
40
0
40
0
40
0
40
1
40
1
40
1
40
1
10
54.4586939973
20
31.5360751616
30
0
10
54.4714802973
20
31.5708970616
30
0
10
54.9045536973
20
31.6462114616
30
0
10
55.4217773973
20
31.7054086616
30
0
0
SPLINE
5
162
100
AcDbEntity
8
mokou
6
ByLayer
62
7
370
-1
100
AcDbSpline
210
0
220
0
230
1
70
8
71
3
72
8
73
4
74
0
42
1e-07
43
1e-07
40
0
40
0
40
0
40
0
40
1
40
1
40
1
40
1
10
55.4217773973
20
31.7054086616
30
0
10
55.9390016973
20
31.7646040616
30
0
10
56.3740937973
20
31.8477322616
30
0
10
56.3875064973
20
31.8879709616
30
0
0
SPLINE
5
163
100
AcDbEntity
8
mokou
6
ByLayer
62
7
370
-1
100
AcDbSpline
210
0
220
0
230
1
70
8
71
3
72
8
73
4
74
0
42
1e-07
43
1e-07
40
0
40
0
40
0
40
0
40
1
40
1
40
1
40
1
10
56.3875064973
20
31.8879709616
30
0
10
56.4009203973
20
31.9282105616
30
0
10
56.4958409973
20
31.9594084616
30
0
10
56.5991732973
20
31.9594084616
30
0
0
SPLINE
5
164
100
AcDbEntity
8
mokou
6
ByLayer
62
7
370
-1
100
AcDbSpline
210
0
220
0
230
1
70
8
71
3
72
8
73
4
74
0
42
1e-07
43
1e-07
40
0
40
0
40
0
40
0
40
1
40
1
40
1
40
1
10
56.5991732973
20
31.9594084616
30
0
10
56.8419530973
20
31.9594084616
30
0
10
57.1910753973
20
32.2789093616
30
0
10
57.3109022973
20
32.6102836616
30
0
0
SPLINE
5
165
100
AcDbEntity
8
mokou
6
ByLayer
62
7
370
-1
100
AcDbSpline
210
0
220
0
230
1
70
8
71
3
72
8
73
4
74
0
42
1e-07
43
1e-07
40
0
40
0
40
0
40
0
40
1
40
1
40
1
40
1
10
57.3109022973
20
32.6102836616
30
0
10
57.3789437973
20
32.7984493616
30
0
10
57.4652429973
20
32.8906834616
30
0
10
57.6336941973
20
32.9515960616
30
0
0
SPLINE
5
166
100
AcDbEntity
8
mokou
6
ByLayer
62
7
370
-1
100
AcDbSpline
210
0
220
0
230
1
70
8
71
3
72
8
73
4
74
0
42
1e-07
43
1e-07
40
0
40
0
40
0
40
0
40
1
40
1
40
1
40
1
10
57.6336941973
20
32.9515960616
30
0
10
57.7601192973
20
32.9973118616
30
0
10
57.8638814973
20
33.0551425616
30
0
10
57.8638814973
20
33.0812419616
30
0
0
SPLINE
5
167
100
AcDbEntity
8
mokou
6
ByLayer
62
7
370
-1
100
AcDbSpline
210
0
220
0
230
1
70
8
71
3
72
8
73
4
74
0
42
1e-07
43
1e-07
40
0
40
0
40
0
40
0
40
1
40
1
40
1
40
1
10
57.8638814973
20
33.0812419616
30
0
10
57.8638814973
20
33.1440400616
30
0
10
58.3267949973
20
33.2547577616
30
0
10
59.0148191973
20
33.3564085616
30
0
0
SPLINE
5
168
100
AcDbEntity
8
mokou
6
ByLayer
62
7
370
-1
100
AcDbSpline
210
0
220
0
230
1
70
8
71
3
72
8
73
4
74
0
42
1e-07
43
1e-07
40
0
40
0
40
0
40
0
40
1
40
1
40
1
40
1
10
59.0148191973
20
33.3564085616
30
0
10
59.3216924973
20
33.4017466616
30
0
10
59.5883060973
20
33.4583404616
30
0
10
59.6074856973
20
33.4834084616
30
0
0
SPLINE
5
169
100
AcDbEntity
8
mokou
6
ByLayer
62
7
370
-1
100
AcDbSpline
210
0
220
0
230
1
70
8
71
3
72
8
73
4
74
0
42
1e-07
43
1e-07
40
0
40
0
40
0
40
0
40
1
40
1
40
1
40
1
10
59.6074856973
20
33.4834084616
30
0
10
59.6453495973
20
33.5328970616
30
0
10
60.4491518973
20
33.7389994616
30
0
10
60.8986523973
20
33.8141377616
30
0
0
SPLINE
5
16A
100
AcDbEntity
8
mokou
6
ByLayer
62
7
370
-1
100
AcDbSpline
210
0
220
0
230
1
70
8
71
3
72
8
73
4
74
0
42
1e-07
43
1e-07
40
0
40
0
40
0
40
0
40
1
40
1
40
1
40
1
10
60.8986523973
20
33.8141377616
30
0
10
61.0520903973
20
33.8397865616
30
0
10
61.2095432973
20
33.8835058616
30
0
10
61.2479024973
20
33.9120334616
30
0
0
SPLINE
5
16B
100
AcDbEntity
8
mokou
6
ByLayer
62
7
370
-1
100
AcDbSpline
210
0
220
0
230
1
70
8
71
3
72
8
73
4
74
0
42
1e-07
43
1e-07
40
0
40
0
40
0
40
0
40
1
40
1
40
1
40
1
10
61.2479024973
20
33.9120334616
30
0
10
61.3122506973
20
33.9598879616
30
0
10
61.9079720973
20
34.0886761616
30
0
10
62.4491105973
20
34.1713252616
30
0
0
SPLINE
5
16C
100
AcDbEntity
8
mokou
6
ByLayer
62
7
370
-1
100
AcDbSpline
210
0
220
0
230
1
70
8
71
3
72
8
73
4
74
0
42
1e-07
43
1e-07
40
0
40
0
40
0
40
0
40
1
40
1
40
1
40
1
10
62.4491105973
20
34.1713252616
30
0
10
62.5737788973
20
34.1903650616
30
0
10
62.6766524973
20
34.2350581616
30
0
10
62.6766524973
20
34.2692209616
30
0
0
SPLINE
5
16D
100
AcDbEntity
8
mokou
6
ByLayer
62
7
370
-1
100
AcDbSpline
210
0
220
0
230
1
70
8
71
3
72
8
73
4
74
0
42
1e-07
43
1e-07
40
0
40
0
40
0
40
0
40
1
40
1
40
1
40
1
10
62.6766524973
20
34.2692209616
30
0
10
62.6766524973
20
34.3033831616
30
0
10
62.7429233973
20
34.3300753616
30
0
10
62.8221731973
20
34.3300753616
30
0
0
SPLINE
5
16E
100
AcDbEntity
8
mokou
6
ByLayer
62
7
370
-1
100
AcDbSpline
210
0
220
0
230
1
70
8
71
3
72
8
73
4
74
0
42
1e-07
43
1e-07
40
0
40
0
40
0
40
0
40
1
40
1
40
1
40
1
10
62.8221731973
20
34.3300753616
30
0
10
63.0696164973
20
34.3300753616
30
0
10
64.2436418973
20
34.6304539616
30
0
10
64.2932564973
20
34.7057836616
30
0
0
SPLINE
5
16F
100
AcDbEntity
8
mokou
6
ByLayer
62
7
370
-1
100
AcDbSpline
210
0
220
0
230
1
70
8
71
3
72
8
73
4
74
0
42
1e-07
43
1e-07
40
0
40
0
40
0
40
0
40
1
40
1
40
1
40
1
10
64.2932564973
20
34.7057836616
30
0
10
64.3192067973
20
34.7451832616
30
0
10
64.4435822973
20
34.8269974616
30
0
10
64.5710690973
20
34.8883459616
30
0
0
SPLINE
5
170
100
AcDbEntity
8
mokou
6
ByLayer
62
7
370
-1
100
AcDbSpline
210
0
220
0
230
1
70
8
71
3
72
8
73
4
74
0
42
1e-07
43
1e-07
40
0
40
0
40
0
40
0
40
1
40
1
40
1
40
1
10
64.5710690973
20
34.8883459616
30
0
10
64.7638964973
20
34.9811398616
30
0
10
64.8007400973
20
35.0340760616
30
0
10
64.7880272973
20
35.2058461616
30
0
0
SPLINE
5
171
100
AcDbEntity
8
mokou
6
ByLayer
62
7
370
-1
100
AcDbSpline
210
0
220
0
230
1
70
8
71
3
72
8
73
4
74
0
42
1e-07
43
1e-07
40
0
40
0
40
0
40
0
40
1
40
1
40
1
40
1
10
64.7880272973
20
35.2058461616
30
0
10
64.7634680973
20
35.5377046616
30
0
10
64.6287311973
20
35.7187177616
30
0
10
64.3726316973
20
35.7667627616
30
0
0
SPLINE
5
172
100
AcDbEntity
8
mokou
6
ByLayer
62
7
370
-1
100
AcDbSpline
210
0
220
0
230
1
70
8
71
3
72
8
73
4
74
0
42
1e-07
43
1e-07
40
0
40
0
40
0
40
0
40
1
40
1
40
1
40
1
10
64.3726316973
20
35.7667627616
30
0
10
64.2440888973
20
35.7908767616
30
0
10
64.0729124973
20
35.7933091616
30
0
10
63.9916316973
20
35.7720544616
30
0
0
SPLINE
5
173
100
AcDbEntity
8
mokou
6
ByLayer
62
7
370
-1
100
AcDbSpline
210
0
220
0
230
1
70
8
71
3
72
8
73
4
74
0
42
1e-07
43
1e-07
40
0
40
0
40
0
40
0
40
1
40
1
40
1
40
1
10
63.9916316973
20
35.7720544616
30
0
10
63.8358074973
20
35.7313051616
30
0
10
63.7112840973
20
35.8204846616
30
0
10
63.6344441973
20
36.0234085616
30
0
0
SPLINE
5
174
100
AcDbEntity
8
mokou
6
ByLayer
62
7
370
-1
100
AcDbSpline
210
0
220
0
230
1
70
8
71
3
72
8
73
4
74
0
42
1e-07
43
1e-07
40
0
40
0
40
0
40
0
40
1
40
1
40
1
40
1
10
63.6344441973
20
36.0234085616
30
0
10
63.5453534973
20
36.2586835616
30
0
10
63.1835153973
20
36.1753006616
30
0
10
62.8697981973
20
35.8487836616
30
0
0
SPLINE
5
175
100
AcDbEntity
8
mokou
6
ByLayer
62
7
370
-1
100
AcDbSpline
210
0
220
0
230
1
70
8
71
3
72
8
73
4
74
0
42
1e-07
43
1e-07
40
0
40
0
40
0
40
0
40
1
40
1
40
1
40
1
10
62.8697981973
20
35.8487836616
30
0
10
62.6270690973
20
35.5961518616
30
0
10
62.5469870973
20
35.5569292616
30
0
10
62.3141732973
20
35.5630336616
30
0
0
SPLINE
5
176
100
AcDbEntity
8
mokou
6
ByLayer
62
7
370
-1
100
AcDbSpline
210
0
220
0
230
1
70
8
71
3
72
8
73
4
74
0
42
1e-07
43
1e-07
40
0
40
0
40
0
40
0
40
1
40
1
40
1
40
1
10
62.3141732973
20
35.5630336616
30
0
10
62.1646652973
20
35.5669537616
30
0
10
62.0319917973
20
35.5803166616
30
0
10
62.0178398973
20
35.5947835616
30
0
0
SPLINE
5
177
100
AcDbEntity
8
mokou
6
ByLayer
62
7
370
-1
100
AcDbSpline
210
0
220
0
230
1
70
8
71
3
72
8
73
4
74
0
42
1e-07
43
1e-07
40
0
40
0
40
0
40
0
40
1
40
1
40
1
40
1
10
62.0178398973
20
35.5947835616
30
0
10
62.0036861973
20
35.6092504616
30
0
10
61.9806704973
20
35.7939118616
30
0
10
61.9675691973
20
36.0048877616
30
0
0
LWPOLYLINE
5
178
100
AcDbEntity
8
mokou
6
ByLayer
62
7
370
-1
100
AcDbPolyline
90
5
70
0
43
0
10
27.8495480973
20
11.8219711616
10
27.8918816973
20
11.6632210616
10
39.1102148973
20
11.6632210616
10
50.3311940973
20
11.6632210616
10
50.3311940973
20
12.0071794616
0
SPLINE
5
179
100
AcDbEntity
8
mokou
6
ByLayer
62
7
370
-1
100
AcDbSpline
210
0
220
0
230
1
70
8
71
3
72
8
73
4
74
0
42
1e-07
43
1e-07
40
0
40
0
40
0
40
0
40
1
40
1
40
1
40
1
10
62.5152566973
20
36.3938251616
30
0
10
63.2399684973
20
36.4004833616
30
0
10
63.3306455973
20
36.4658383616
30
0
10
63.2851940973
20
36.9388669616
30
0
0
SPLINE
5
17A
100
AcDbEntity
8
mokou
6
ByLayer
62
7
370
-1
100
AcDbSpline
210
0
220
0
230
1
70
8
71
3
72
8
73
4
74
0
42
1e-07
43
1e-07
40
0
40
0
40
0
40
0
40
1
40
1
40
1
40
1
10
63.2851940973
20
36.9388669616
30
0
10
63.2474225973
20
37.3319590616
30
0
10
63.1467632973
20
37.4363785616
30
0
10
62.7401522973
20
37.5050752616
30
0
0
SPLINE
5
17B
100
AcDbEntity
8
mokou
6
ByLayer
62
7
370
-1
100
AcDbSpline
210
0
220
0
230
1
70
8
71
3
72
8
73
4
74
0
42
1e-07
43
1e-07
40
0
40
0
40
0
40
0
40
1
40
1
40
1
40
1
10
62.7401522973
20
37.5050752616
30
0
10
62.5902524973
20
37.5304006616
30
0
10
62.4676316973
20
37.5812125616
30
0
10
62.4676316973
20
37.6162003616
30
0
0
SPLINE
5
17C
100
AcDbEntity
8
mokou
6
ByLayer
62
7
370
-1
100
AcDbSpline
210
0
220
0
230
1
70
8
71
3
72
8
73
4
74
0
42
1e-07
43
1e-07
40
0
40
0
40
0
40
0
40
1
40
1
40
1
40
1
10
62.4676316973
20
37.6162003616
30
0
10
62.4676316973
20
37.6527169616
30
0
10
61.7707256973
20
37.6797001616
30
0
10
60.8298605973
20
37.6797001616
30
0
0
SPLINE
5
17D
100
AcDbEntity
8
mokou
6
ByLayer
62
7
370
-1
100
AcDbSpline
210
0
220
0
230
1
70
8
71
3
72
8
73
4
74
0
42
1e-07
43
1e-07
40
0
40
0
40
0
40
0
40
1
40
1
40
1
40
1
10
60.8298605973
20
37.6797001616
30
0
10
59.9205296973
20
37.6797001616
30
0
10
59.1894440973
20
37.6505902616
30
0
10
59.1894440973
20
37.6162003616
30
0
0
SPLINE
5
17E
100
AcDbEntity
8
mokou
6
ByLayer
62
7
370
-1
100
AcDbSpline
210
0
220
0
230
1
70
8
71
3
72
8
73
4
74
0
42
1e-07
43
1e-07
40
0
40
0
40
0
40
0
40
1
40
1
40
1
40
1
10
59.1894440973
20
37.6162003616
30
0
10
59.1894440973
20
37.5821101616
30
0
10
59.0713535973
20
37.5354679616
30
0
10
58.9275065973
20
37.5103669616
30
0
0
SPLINE
5
17F
100
AcDbEntity
8
mokou
6
ByLayer
62
7
370
-1
100
AcDbSpline
210
0
220
0
230
1
70
8
71
3
72
8
73
4
74
0
42
1e-07
43
1e-07
40
0
40
0
40
0
40
0
40
1
40
1
40
1
40
1
10
58.9275065973
20
37.5103669616
30
0
10
58.5776147973
20
37.4493121616
30
0
10
58.0041107973
20
37.2448936616
30
0
10
58.0041107973
20
37.1822836616
30
0
0
SPLINE
5
180
100
AcDbEntity
8
mokou
6
ByLayer
62
7
370
-1
100
AcDbSpline
210
0
220
0
230
1
70
8
71
3
72
8
73
4
74
0
42
1e-07
43
1e-07
40
0
40
0
40
0
40
0
40
1
40
1
40
1
40
1
10
58.0041107973
20
37.1822836616
30
0
10
58.0041107973
20
37.1546746616
30
0
10
57.8618732973
20
37.0788724616
30
0
10
57.6892565973
20
37.0129501616
30
0
0
SPLINE
5
181
100
AcDbEntity
8
mokou
6
ByLayer
62
7
370
-1
100
AcDbSpline
210
0
220
0
230
1
70
8
71
3
72
8
73
4
74
0
42
1e-07
43
1e-07
40
0
40
0
40
0
40
0
40
1
40
1
40
1
40
1
10
57.6892565973
20
37.0129501616
30
0
10
57.5166389973
20
36.9470269616
30
0
10
57.3770480973
20
36.8644846616
30
0
10
57.3770480973
20
36.8303878616
30
0
0
SPLINE
5
182
100
AcDbEntity
8
mokou
6
ByLayer
62
7
370
-1
100
AcDbSpline
210
0
220
0
230
1
70
8
71
3
72
8
73
4
74
0
42
1e-07
43
1e-07
40
0
40
0
40
0
40
0
40
1
40
1
40
1
40
1
10
57.3770480973
20
36.8303878616
30
0
10
57.3770480973
20
36.7962907616
30
0
10
57.2950112973
20
36.7363153616
30
0
10
57.1944857973
20
36.6980959616
30
0
0
SPLINE
5
183
100
AcDbEntity
8
mokou
6
ByLayer
62
7
370
-1
100
AcDbSpline
210
0
220
0
230
1
70
8
71
3
72
8
73
4
74
0
42
1e-07
43
1e-07
40
0
40
0
40
0
40
0
40
1
40
1
40
1
40
1
10
57.1944857973
20
36.6980959616
30
0
10
57.0034538973
20
36.6254656616
30
0
10
56.5383191973
20
36.7400620616
30
0
10
56.5383191973
20
36.8594920616
30
0
0
SPLINE
5
184
100
AcDbEntity
8
mokou
6
ByLayer
62
7
370
-1
100
AcDbSpline
210
0
220
0
230
1
70
8
71
3
72
8
73
4
74
0
42
1e-07
43
1e-07
40
0
40
0
40
0
40
0
40
1
40
1
40
1
40
1
10
56.5383191973
20
36.8594920616
30
0
10
56.5383191973
20
37.0201876616
30
0
10
56.0584664973
20
37.1053123616
30
0
10
55.2497981973
20
37.0870336616
30
0
0
SPLINE
5
185
100
AcDbEntity
8
mokou
6
ByLayer
62
7
370
-1
100
AcDbSpline
210
0
220
0
230
1
70
8
71
3
72
8
73
4
74
0
42
1e-07
43
1e-07
40
0
40
0
40
0
40
0
40
1
40
1
40
1
40
1
10
55.2497981973
20
37.0870336616
30
0
10
54.4377416973
20
37.0686769616
30
0
10
54.1184093973
20
36.9988270616
30
0
10
53.9004230973
20
36.7907002616
30
0
0
SPLINE
5
186
100
AcDbEntity
8
mokou
6
ByLayer
62
7
370
-1
100
AcDbSpline
210
0
220
0
230
1
70
8
71
3
72
8
73
4
74
0
42
1e-07
43
1e-07
40
0
40
0
40
0
40
0
40
1
40
1
40
1
40
1
10
53.9004230973
20
36.7907002616
30
0
10
53.8497341973
20
36.7423039616
30
0
10
53.7697046973
20
36.7033876616
30
0
10
53.7205064973
20
36.7033876616
30
0
0
SPLINE
5
187
100
AcDbEntity
8
mokou
6
ByLayer
62
7
370
-1
100
AcDbSpline
210
0
220
0
230
1
70
8
71
3
72
8
73
4
74
0
42
1e-07
43
1e-07
40
0
40
0
40
0
40
0
40
1
40
1
40
1
40
1
10
53.7205064973
20
36.7033876616
30
0
10
53.6713091973
20
36.7033876616
30
0
10
53.5521239973
20
36.6309460616
30
0
10
53.4559232973
20
36.5446378616
30
0
0
SPLINE
5
188
100
AcDbEntity
8
mokou
6
ByLayer
62
7
370
-1
100
AcDbSpline
210
0
220
0
230
1
70
8
71
3
72
8
73
4
74
0
42
1e-07
43
1e-07
40
0
40
0
40
0
40
0
40
1
40
1
40
1
40
1
10
53.4559232973
20
36.5446378616
30
0
10
53.2400519973
20
36.3509644616
30
0
10
53.0649689973
20
36.2334784616
30
0
10
52.8606107973
20
36.1451170616
30
0
0
SPLINE
5
189
100
AcDbEntity
8
mokou
6
ByLayer
62
7
370
-1
100
AcDbSpline
210
0
220
0
230
1
70
8
71
3
72
8
73
4
74
0
42
1e-07
43
1e-07
40
0
40
0
40
0
40
0
40
1
40
1
40
1
40
1
10
52.8606107973
20
36.1451170616
30
0
10
52.7743022973
20
36.1077991616
30
0
10
52.7045066973
20
36.0482818616
30
0
10
52.7045066973
20
36.0128251616
30
0
0
SPLINE
5
18A
100
AcDbEntity
8
mokou
6
ByLayer
62
7
370
-1
100
AcDbSpline
210
0
220
0
230
1
70
8
71
3
72
8
73
4
74
0
42
1e-07
43
1e-07
40
0
40
0
40
0
40
0
40
1
40
1
40
1
40
1
10
52.7045066973
20
36.0128251616
30
0
10
52.7045066973
20
35.9773693616
30
0
10
52.5470528973
20
35.8939396616
30
0
10
52.3552565973
20
35.8249711616
30
0
0
SPLINE
5
18B
100
AcDbEntity
8
mokou
6
ByLayer
62
7
370
-1
100
AcDbSpline
210
0
220
0
230
1
70
8
71
3
72
8
73
4
74
0
42
1e-07
43
1e-07
40
0
40
0
40
0
40
0
40
1
40
1
40
1
40
1
10
52.3552565973
20
35.8249711616
30
0
10
52.1634602973
20
35.7560023616
30
0
10
52.0060064973
20
35.6780008616
30
0
10
52.0060064973
20
35.6529919616
30
0
0
SPLINE
5
18C
100
AcDbEntity
8
mokou
6
ByLayer
62
7
370
-1
100
AcDbSpline
210
0
220
0
230
1
70
8
71
3
72
8
73
4
74
0
42
1e-07
43
1e-07
40
0
40
0
40
0
40
0
40
1
40
1
40
1
40
1
10
52.0060064973
20
35.6529919616
30
0
10
52.0060064973
20
35.6279830616
30
0
10
51.8181200973
20
35.5327432616
30
0
10
51.5879648973
20
35.4413251616
30
0
0
SPLINE
5
18D
100
AcDbEntity
8
mokou
6
ByLayer
62
7
370
-1
100
AcDbSpline
210
0
220
0
230
1
70
8
71
3
72
8
73
4
74
0
42
1e-07
43
1e-07
40
0
40
0
40
0
40
0
40
1
40
1
40
1
40
1
10
51.5879648973
20
35.4413251616
30
0
10
51.3578096973
20
35.3499073616
30
0
10
51.1699232973
20
35.2534711616
30
0
10
51.1699232973
20
35.2270126616
30
0
0
SPLINE
5
18E
100
AcDbEntity
8
mokou
6
ByLayer
62
7
370
-1
100
AcDbSpline
210
0
220
0
230
1
70
8
71
3
72
8
73
4
74
0
42
1e-07
43
1e-07
40
0
40
0
40
0
40
0
40
1
40
1
40
1
40
1
10
51.1699232973
20
35.2270126616
30
0
10
51.1699232973
20
35.2005535616
30
0
10
51.0569558973
20
35.1421657616
30
0
10
50.9212148973
20
35.0973670616
30
0
0
SPLINE
5
18F
100
AcDbEntity
8
mokou
6
ByLayer
62
7
370
-1
100
AcDbSpline
210
0
220
0
230
1
70
8
71
3
72
8
73
4
74
0
42
1e-07
43
1e-07
40
0
40
0
40
0
40
0
40
1
40
1
40
1
40
1
10
50.9212148973
20
35.0973670616
30
0
10
50.7312983973
20
35.0346907616
30
0
10
50.6521169973
20
35.0356888616
30
0
10
50.5746107973
20
35.1000127616
30
0
0
SPLINE
5
190
100
AcDbEntity
8
mokou
6
ByLayer
62
7
370
-1
100
AcDbSpline
210
0
220
0
230
1
70
8
71
3
72
8
73
4
74
0
42
1e-07
43
1e-07
40
0
40
0
40
0
40
0
40
1
40
1
40
1
40
1
10
50.5746107973
20
35.1000127616
30
0
10
50.4596951973
20
35.1953839616
30
0
10
50.3317865973
20
35.6025016616
30
0
10
50.3311940973
20
35.8778878616
30
0
0
SPLINE
5
191
100
AcDbEntity
8
mokou
6
ByLayer
62
7
370
-1
100
AcDbSpline
210
0
220
0
230
1
70
8
71
3
72
8
73
4
74
0
42
1e-07
43
1e-07
40
0
40
0
40
0
40
0
40
1
40
1
40
1
40
1
10
50.3311940973
20
35.8778878616
30
0
10
50.3309798973
20
35.9801794616
30
0
10
50.2990292973
20
36.0738175616
30
0
10
50.2597565973
20
36.0869086616
30
0
0
SPLINE
5
192
100
AcDbEntity
8
mokou
6
ByLayer
62
7
370
-1
100
AcDbSpline
210
0
220
0
230
1
70
8
71
3
72
8
73
4
74
0
42
1e-07
43
1e-07
40
0
40
0
40
0
40
0
40
1
40
1
40
1
40
1
10
50.2597565973
20
36.0869086616
30
0
10
50.2204838973
20
36.0999988616
30
0
10
50.1372074973
20
36.3928531616
30
0
10
50.0745482973
20
36.7377835616
30
0
0
SPLINE
5
193
100
AcDbEntity
8
mokou
6
ByLayer
62
7
370
-1
100
AcDbSpline
210
0
220
0
230
1
70
8
71
3
72
8
73
4
74
0
42
1e-07
43
1e-07
40
0
40
0
40
0
40
0
40
1
40
1
40
1
40
1
10
50.0745482973
20
36.7377835616
30
0
10
50.0118896973
20
37.0827121616
30
0
10
49.9379648973
20
37.3800622616
30
0
10
49.9105064973
20
37.3992418616
30
0
0
SPLINE
5
194
100
AcDbEntity
8
mokou
6
ByLayer
62
7
370
-1
100
AcDbSpline
210
0
220
0
230
1
70
8
71
3
72
8
73
4
74
0
42
1e-07
43
1e-07
40
0
40
0
40
0
40
0
40
1
40
1
40
1
40
1
10
49.9105064973
20
37.3992418616
30
0
10
49.8523202973
20
37.4398843616
30
0
10
49.5659555973
20
38.5849114616
30
0
10
49.5665480973
20
38.7724294616
30
0
0
SPLINE
5
195
100
AcDbEntity
8
mokou
6
ByLayer
62
7
370
-1
100
AcDbSpline
210
0
220
0
230
1
70
8
71
3
72
8
73
4
74
0
42
1e-07
43
1e-07
40
0
40
0
40
0
40
0
40
1
40
1
40
1
40
1
10
49.5665480973
20
38.7724294616
30
0
10
49.5667853973
20
38.8423504616
30
0
10
49.6162838973
20
38.9933722616
30
0
10
49.6776731973
20
39.1084501616
30
0
0
SPLINE
5
196
100
AcDbEntity
8
mokou
6
ByLayer
62
7
370
-1
100
AcDbSpline
210
0
220
0
230
1
70
8
71
3
72
8
73
4
74
0
42
1e-07
43
1e-07
40
0
40
0
40
0
40
0
40
1
40
1
40
1
40
1
10
49.6776731973
20
39.1084501616
30
0
10
49.8655568973
20
39.4606456616
30
0
10
49.8799706973
20
40.0936672616
30
0
10
49.7120690973
20
40.5689503616
30
0
0
SPLINE
5
197
100
AcDbEntity
8
mokou
6
ByLayer
62
7
370
-1
100
AcDbSpline
210
0
220
0
230
1
70
8
71
3
72
8
73
4
74
0
42
1e-07
43
1e-07
40
0
40
0
40
0
40
0
40
1
40
1
40
1
40
1
10
49.7120690973
20
40.5689503616
30
0
10
49.6316543973
20
40.7965834616
30
0
10
49.5401744973
20
40.9996858616
30
0
10
49.5083399973
20
41.0213878616
30
0
0
SPLINE
5
198
100
AcDbEntity
8
mokou
6
ByLayer
62
7
370
-1
100
AcDbSpline
210
0
220
0
230
1
70
8
71
3
72
8
73
4
74
0
42
1e-07
43
1e-07
40
0
40
0
40
0
40
0
40
1
40
1
40
1
40
1
10
49.5083399973
20
41.0213878616
30
0
10
49.4765060973
20
41.0430910616
30
0
10
49.3784663973
20
41.2095976616
30
0
10
49.2913814973
20
41.3918044616
30
0
0
SPLINE
5
199
100
AcDbEntity
8
mokou
6
ByLayer
62
7
370
-1
100
AcDbSpline
210
0
220
0
230
1
70
8
71
3
72
8
73
4
74
0
42
1e-07
43
1e-07
40
0
40
0
40
0
40
0
40
1
40
1
40
1
40
1
10
49.2913814973
20
41.3918044616
30
0
10
49.2042968973
20
41.5740103616
30
0
10
49.1125622973
20
41.7251794616
30
0
10
49.0850066973
20
41.7251794616
30
0
0
SPLINE
5
19A
100
AcDbEntity
8
mokou
6
ByLayer
62
7
370
-1
100
AcDbSpline
210
0
220
0
230
1
70
8
71
3
72
8
73
4
74
0
42
1e-07
43
1e-07
40
0
40
0
40
0
40
0
40
1
40
1
40
1
40
1
10
49.0850066973
20
41.7251794616
30
0
10
49.0574516973
20
41.7251794616
30
0
10
48.9780776973
20
41.8495546616
30
0
10
48.9103814973
20
42.0029920616
30
0
0
SPLINE
5
19B
100
AcDbEntity
8
mokou
6
ByLayer
62
7
370
-1
100
AcDbSpline
210
0
220
0
230
1
70
8
71
3
72
8
73
4
74
0
42
1e-07
43
1e-07
40
0
40
0
40
0
40
0
40
1
40
1
40
1
40
1
10
48.9103814973
20
42.0029920616
30
0
10
48.8426846973
20
42.1564291616
30
0
10
48.7645415973
20
42.2808043616
30
0
10
48.7357565973
20
42.2808043616
30
0
0
SPLINE
5
19C
100
AcDbEntity
8
mokou
6
ByLayer
62
7
370
-1
100
AcDbSpline
210
0
220
0
230
1
70
8
71
3
72
8
73
4
74
0
42
1e-07
43
1e-07
40
0
40
0
40
0
40
0
40
1
40
1
40
1
40
1
10
48.7357565973
20
42.2808043616
30
0
10
48.7069715973
20
42.2808043616
30
0
10
48.6129449973
20
42.4230409616
30
0
10
48.5267357973
20
42.5956585616
30
0
0
SPLINE
5
19D
100
AcDbEntity
8
mokou
6
ByLayer
62
7
370
-1
100
AcDbSpline
210
0
220
0
230
1
70
8
71
3
72
8
73
4
74
0
42
1e-07
43
1e-07
40
0
40
0
40
0
40
0
40
1
40
1
40
1
40
1
10
48.5267357973
20
42.5956585616
30
0
10
48.4405271973
20
42.7682752616
30
0
10
48.3460535973
20
42.9105127616
30
0
10
48.3177149973
20
42.9105127616
30
0
0
SPLINE
5
19E
100
AcDbEntity
8
mokou
6
ByLayer
62
7
370
-1
100
AcDbSpline
210
0
220
0
230
1
70
8
71
3
72
8
73
4
74
0
42
1e-07
43
1e-07
40
0
40
0
40
0
40
0
40
1
40
1
40
1
40
1
10
48.3177149973
20
42.9105127616
30
0
10
48.2893760973
20
42.9105127616
30
0
10
48.1891019973
20
43.0809256616
30
0
10
48.0954647973
20
43.2915127616
30
0
0
SPLINE
5
19F
100
AcDbEntity
8
mokou
6
ByLayer
62
7
370
-1
100
AcDbSpline
210
0
220
0
230
1
70
8
71
3
72
8
73
4
74
0
42
1e-07
43
1e-07
40
0
40
0
40
0
40
0
40
1
40
1
40
1
40
1
10
48.0954647973
20
43.2915127616
30
0
10
48.0018269973
20
43.5021007616
30
0
10
47.9019845973
20
43.6747351616
30
0
10
47.8732148973
20
43.6751584616
30
0
0
SPLINE
5
1A0
100
AcDbEntity
8
mokou
6
ByLayer
62
7
370
-1
100
AcDbSpline
210
0
220
0
230
1
70
8
71
3
72
8
73
4
74
0
42
1e-07
43
1e-07
40
0
40
0
40
0
40
0
40
1
40
1
40
1
40
1
10
47.8732148973
20
43.6751584616
30
0
10
47.7594389973
20
43.6766962616
30
0
10
47.8282856973
20
43.9479148616
30
0
10
47.9525897973
20
43.9873669616
30
0
0
SPLINE
5
1A1
100
AcDbEntity
8
mokou
6
ByLayer
62
7
370
-1
100
AcDbSpline
210
0
220
0
230
1
70
8
71
3
72
8
73
4
74
0
42
1e-07
43
1e-07
40
0
40
0
40
0
40
0
40
1
40
1
40
1
40
1
10
47.9525897973
20
43.9873669616
30
0
10
48.0340712973
20
44.0132284616
30
0
10
48.1209623973
20
44.1504754616
30
0
10
48.1774856973
20
44.3419084616
30
0
0
SPLINE
5
1A2
100
AcDbEntity
8
mokou
6
ByLayer
62
7
370
-1
100
AcDbSpline
210
0
220
0
230
1
70
8
71
3
72
8
73
4
74
0
42
1e-07
43
1e-07
40
0
40
0
40
0
40
0
40
1
40
1
40
1
40
1
10
48.1774856973
20
44.3419084616
30
0
10
48.2280485973
20
44.5131562616
30
0
10
48.2956676973
20
44.6541169616
30
0
10
48.3256523973
20
44.6541169616
30
0
0
SPLINE
5
1A3
100
AcDbEntity
8
mokou
6
ByLayer
62
7
370
-1
100
AcDbSpline
210
0
220
0
230
1
70
8
71
3
72
8
73
4
74
0
42
1e-07
43
1e-07
40
0
40
0
40
0
40
0
40
1
40
1
40
1
40
1
10
48.3256523973
20
44.6541169616
30
0
10
48.3556370973
20
44.6541169616
30
0
10
48.3785690973
20
45.0896203616
30
0
10
48.3785690973
20
45.6224920616
30
0
0
LWPOLYLINE
5
1A4
100
AcDbEntity
8
mokou
6
ByLayer
62
7
370
-1
100
AcDbPolyline
90
3
70
0
43
0
10
61.9675691973
20
36.0048877616
10
61.9437566973
20
36.3885334616
10
62.5152566973
20
36.3938251616
0
SPLINE
5
1A5
100
AcDbEntity
8
mokou
6
ByLayer
62
7
370
-1
100
AcDbSpline
210
0
220
0
230
1
70
8
71
3
72
8
73
4
74
0
42
1e-07
43
1e-07
40
0
40
0
40
0
40
0
40
1
40
1
40
1
40
1
10
48.2039441973
20
46.6358461616
30
0
10
48.1080464973
20
46.6599160616
30
0
10
48.0293189973
20
46.7093425616
30
0
10
48.0293189973
20
46.7469709616
30
0
0
SPLINE
5
1A6
100
AcDbEntity
8
mokou
6
ByLayer
62
7
370
-1
100
AcDbSpline
210
0
220
0
230
1
70
8
71
3
72
8
73
4
74
0
42
1e-07
43
1e-07
40
0
40
0
40
0
40
0
40
1
40
1
40
1
40
1
10
48.0293189973
20
46.7469709616
30
0
10
48.0293189973
20
46.7845993616
30
0
10
47.9049437973
20
46.8157627616
30
0
10
47.7515066973
20
46.8157627616
30
0
0
SPLINE
5
1A7
100
AcDbEntity
8
mokou
6
ByLayer
62
7
370
-1
100
AcDbSpline
210
0
220
0
230
1
70
8
71
3
72
8
73
4
74
0
42
1e-07
43
1e-07
40
0
40
0
40
0
40
0
40
1
40
1
40
1
40
1
10
47.7515066973
20
46.8157627616
30
0
10
47.5980692973
20
46.8157627616
30
0
10
47.4736940973
20
46.7853301616
30
0
10
47.4736940973
20
46.7469709616
30
0
0
SPLINE
5
1A8
100
AcDbEntity
8
mokou
6
ByLayer
62
7
370
-1
100
AcDbSpline
210
0
220
0
230
1
70
8
71
3
72
8
73
4
74
0
42
1e-07
43
1e-07
40
0
40
0
40
0
40
0
40
1
40
1
40
1
40
1
10
47.4736940973
20
46.7469709616
30
0
10
47.4736940973
20
46.7086120616
30
0
10
47.4190559973
20
46.6755334616
30
0
10
47.3546315973
20
46.6755334616
30
0
0
SPLINE
5
1A9
100
AcDbEntity
8
mokou
6
ByLayer
62
7
370
-1
100
AcDbSpline
210
0
220
0
230
1
70
8
71
3
72
8
73
4
74
0
42
1e-07
43
1e-07
40
0
40
0
40
0
40
0
40
1
40
1
40
1
40
1
10
47.3546315973
20
46.6755334616
30
0
10
47.1687383973
20
46.6755334616
30
0
10
46.3571522973
20
46.3850023616
30
0
10
46.3571522973
20
46.3183459616
30
0
0
SPLINE
5
1AA
100
AcDbEntity
8
mokou
6
ByLayer
62
7
370
-1
100
AcDbSpline
210
0
220
0
230
1
70
8
71
3
72
8
73
4
74
0
42
1e-07
43
1e-07
40
0
40
0
40
0
40
0
40
1
40
1
40
1
40
1
10
46.3571522973
20
46.3183459616
30
0
10
46.3571522973
20
46.1769925616
30
0
10
46.2257351973
20
46.2763234616
30
0
10
46.1216732973
20
46.4956168616
30
0
0
SPLINE
5
1AB
100
AcDbEntity
8
mokou
6
ByLayer
62
7
370
-1
100
AcDbSpline
210
0
220
0
230
1
70
8
71
3
72
8
73
4
74
0
42
1e-07
43
1e-07
40
0
40
0
40
0
40
0
40
1
40
1
40
1
40
1
10
46.1216732973
20
46.4956168616
30
0
10
46.0331144973
20
46.6822408616
30
0
10
46.0079024973
20
46.9618846616
30
0
10
46.0079024973
20
47.8132420616
30
0
0
SPLINE
5
1AC
100
AcDbEntity
8
mokou
6
ByLayer
62
7
370
-1
100
AcDbSpline
210
0
220
0
230
1
70
8
71
3
72
8
73
4
74
0
42
1e-07
43
1e-07
40
0
40
0
40
0
40
0
40
1
40
1
40
1
40
1
10
46.0079024973
20
47.8132420616
30
0
10
46.0079024973
20
48.5662942616
30
0
10
45.9843014973
20
48.9032548616
30
0
10
45.9285272973
20
48.9218461616
30
0
0
SPLINE
5
1AD
100
AcDbEntity
8
mokou
6
ByLayer
62
7
370
-1
100
AcDbSpline
210
0
220
0
230
1
70
8
71
3
72
8
73
4
74
0
42
1e-07
43
1e-07
40
0
40
0
40
0
40
0
40
1
40
1
40
1
40
1
10
45.9285272973
20
48.9218461616
30
0
10
45.8716178973
20
48.9408157616
30
0
10
45.8388533973
20
49.5461908616
30
0
10
45.8147564973
20
51.0067627616
30
0
0
SPLINE
5
1AE
100
AcDbEntity
8
mokou
6
ByLayer
62
7
370
-1
100
AcDbSpline
210
0
220
0
230
1
70
8
71
3
72
8
73
4
74
0
42
1e-07
43
1e-07
40
0
40
0
40
0
40
0
40
1
40
1
40
1
40
1
10
45.8147564973
20
51.0067627616
30
0
10
45.7856549973
20
52.7706844616
30
0
10
45.7941080973
20
53.0789692616
30
0
10
45.8835482973
20
53.1684085616
30
0
0
SPLINE
5
1AF
100
AcDbEntity
8
mokou
6
ByLayer
62
7
370
-1
100
AcDbSpline
210
0
220
0
230
1
70
8
71
3
72
8
73
4
74
0
42
1e-07
43
1e-07
40
0
40
0
40
0
40
0
40
1
40
1
40
1
40
1
10
45.8835482973
20
53.1684085616
30
0
10
45.9409124973
20
53.2257736616
30
0
10
46.0606607973
20
53.4761668616
30
0
10
46.1481314973
20
53.7240334616
30
0
0
SPLINE
5
1B0
100
AcDbEntity
8
mokou
6
ByLayer
62
7
370
-1
100
AcDbSpline
210
0
220
0
230
1
70
8
71
3
72
8
73
4
74
0
42
1e-07
43
1e-07
40
0
40
0
40
0
40
0
40
1
40
1
40
1
40
1
10
46.1481314973
20
53.7240334616
30
0
10
46.2356024973
20
53.9719012616
30
0
10
46.3297229973
20
54.1890415616
30
0
10
46.3571522973
20
54.2082211616
30
0
0
SPLINE
5
1B1
100
AcDbEntity
8
mokou
6
ByLayer
62
7
370
-1
100
AcDbSpline
210
0
220
0
230
1
70
8
71
3
72
8
73
4
74
0
42
1e-07
43
1e-07
40
0
40
0
40
0
40
0
40
1
40
1
40
1
40
1
10
46.3571522973
20
54.2082211616
30
0
10
46.3845818973
20
54.2274007616
30
0
10
46.4450813973
20
54.3603559616
30
0
10
46.4920898973
20
54.5045545616
30
0
0
SPLINE
5
1B2
100
AcDbEntity
8
mokou
6
ByLayer
62
7
370
-1
100
AcDbSpline
210
0
220
0
230
1
70
8
71
3
72
8
73
4
74
0
42
1e-07
43
1e-07
40
0
40
0
40
0
40
0
40
1
40
1
40
1
40
1
10
46.4920898973
20
54.5045545616
30
0
10
46.5390983973
20
54.6487519616
30
0
10
46.6273652973
20
54.8170996616
30
0
10
46.6878815973
20
54.8776168616
30
0
0
SPLINE
5
1B3
100
AcDbEntity
8
mokou
6
ByLayer
62
7
370
-1
100
AcDbSpline
210
0
220
0
230
1
70
8
71
3
72
8
73
4
74
0
42
1e-07
43
1e-07
40
0
40
0
40
0
40
0
40
1
40
1
40
1
40
1
10
46.6878815973
20
54.8776168616
30
0
10
46.8269042973
20
55.0166386616
30
0
10
47.0523290973
20
55.9514170616
30
0
10
47.0530064973
20
56.3883877616
30
0
0
SPLINE
5
1B4
100
AcDbEntity
8
mokou
6
ByLayer
62
7
370
-1
100
AcDbSpline
210
0
220
0
230
1
70
8
71
3
72
8
73
4
74
0
42
1e-07
43
1e-07
40
0
40
0
40
0
40
0
40
1
40
1
40
1
40
1
10
47.0530064973
20
56.3883877616
30
0
10
47.0533061973
20
56.5705936616
30
0
10
47.0860850973
20
56.7191170616
30
0
10
47.1244439973
20
56.7191170616
30
0
0
SPLINE
5
1B5
100
AcDbEntity
8
mokou
6
ByLayer
62
7
370
-1
100
AcDbSpline
210
0
220
0
230
1
70
8
71
3
72
8
73
4
74
0
42
1e-07
43
1e-07
40
0
40
0
40
0
40
0
40
1
40
1
40
1
40
1
10
47.1244439973
20
56.7191170616
30
0
10
47.1631907973
20
56.7191170616
30
0
10
47.1932357973
20
56.9046784616
30
0
10
47.1932357973
20
57.1371586616
30
0
0
SPLINE
5
1B6
100
AcDbEntity
8
mokou
6
ByLayer
62
7
370
-1
100
AcDbSpline
210
0
220
0
230
1
70
8
71
3
72
8
73
4
74
0
42
1e-07
43
1e-07
40
0
40
0
40
0
40
0
40
1
40
1
40
1
40
1
10
47.1932357973
20
57.1371586616
30
0
10
47.1932357973
20
57.3696388616
30
0
10
47.1631907973
20
57.5552002616
30
0
10
47.1244439973
20
57.5552002616
30
0
0
SPLINE
5
1B7
100
AcDbEntity
8
mokou
6
ByLayer
62
7
370
-1
100
AcDbSpline
210
0
220
0
230
1
70
8
71
3
72
8
73
4
74
0
42
1e-07
43
1e-07
40
0
40
0
40
0
40
0
40
1
40
1
40
1
40
1
10
47.1244439973
20
57.5552002616
30
0
10
47.0860850973
20
57.5552002616
30
0
10
47.0530064973
20
57.6034942616
30
0
10
47.0530064973
20
57.6610336616
30
0
0
SPLINE
5
1B8
100
AcDbEntity
8
mokou
6
ByLayer
62
7
370
-1
100
AcDbSpline
210
0
220
0
230
1
70
8
71
3
72
8
73
4
74
0
42
1e-07
43
1e-07
40
0
40
0
40
0
40
0
40
1
40
1
40
1
40
1
10
47.0530064973
20
57.6610336616
30
0
10
47.0530064973
20
57.7185721616
30
0
10
47.0923697973
20
57.7662742616
30
0
10
47.1403190973
20
57.7668670616
30
0
0
SPLINE
5
1B9
100
AcDbEntity
8
mokou
6
ByLayer
62
7
370
-1
100
AcDbSpline
210
0
220
0
230
1
70
8
71
3
72
8
73
4
74
0
42
1e-07
43
1e-07
40
0
40
0
40
0
40
0
40
1
40
1
40
1
40
1
10
47.1403190973
20
57.7668670616
30
0
10
47.2005389973
20
57.7676053616
30
0
10
47.2038284973
20
57.7843903616
30
0
10
47.1509024973
20
57.8197834616
30
0
0
SPLINE
5
1BA
100
AcDbEntity
8
mokou
6
ByLayer
62
7
370
-1
100
AcDbSpline
210
0
220
0
230
1
70
8
71
3
72
8
73
4
74
0
42
1e-07
43
1e-07
40
0
40
0
40
0
40
0
40
1
40
1
40
1
40
1
10
47.1509024973
20
57.8197834616
30
0
10
47.1087611973
20
57.8479666616
30
0
10
47.0539886973
20
58.0427245616
30
0
10
47.0291939973
20
58.2537001616
30
0
0
SPLINE
5
1BB
100
AcDbEntity
8
mokou
6
ByLayer
62
7
370
-1
100
AcDbSpline
210
0
220
0
230
1
70
8
71
3
72
8
73
4
74
0
42
1e-07
43
1e-07
40
0
40
0
40
0
40
0
40
1
40
1
40
1
40
1
10
47.0291939973
20
58.2537001616
30
0
10
46.9703582973
20
58.7543275616
30
0
10
46.8620636973
20
59.1325606616
30
0
10
46.7434439973
20
59.2511794616
30
0
0
SPLINE
5
1BC
100
AcDbEntity
8
mokou
6
ByLayer
62
7
370
-1
100
AcDbSpline
210
0
220
0
230
1
70
8
71
3
72
8
73
4
74
0
42
1e-07
43
1e-07
40
0
40
0
40
0
40
0
40
1
40
1
40
1
40
1
10
46.7434439973
20
59.2511794616
30
0
10
46.6910624973
20
59.3035609616
30
0
10
46.5955991973
20
59.4997582616
30
0
10
46.5317774973
20
59.6877418616
30
0
0
SPLINE
5
1BD
100
AcDbEntity
8
mokou
6
ByLayer
62
7
370
-1
100
AcDbSpline
210
0
220
0
230
1
70
8
71
3
72
8
73
4
74
0
42
1e-07
43
1e-07
40
0
40
0
40
0
40
0
40
1
40
1
40
1
40
1
10
46.5317774973
20
59.6877418616
30
0
10
46.4679548973
20
59.8757257616
30
0
10
46.3965791973
20
60.0461350616
30
0
10
46.3703816973
20
60.0660961616
30
0
0
SPLINE
5
1BE
100
AcDbEntity
8
mokou
6
ByLayer
62
7
370
-1
100
AcDbSpline
210
0
220
0
230
1
70
8
71
3
72
8
73
4
74
0
42
1e-07
43
1e-07
40
0
40
0
40
0
40
0
40
1
40
1
40
1
40
1
10
46.3703816973
20
60.0660961616
30
0
10
46.3441838973
20
60.0860578616
30
0
10
46.2459368973
20
60.2428360616
30
0
10
46.1534231973
20
60.4153459616
30
0
0
SPLINE
5
1BF
100
AcDbEntity
8
mokou
6
ByLayer
62
7
370
-1
100
AcDbSpline
210
0
220
0
230
1
70
8
71
3
72
8
73
4
74
0
42
1e-07
43
1e-07
40
0
40
0
40
0
40
0
40
1
40
1
40
1
40
1
10
46.1534231973
20
60.4153459616
30
0
10
46.0609097973
20
60.5878552616
30
0
10
45.9276035973
20
60.7700350616
30
0
10
45.8570897973
20
60.8201584616
30
0
0
SPLINE
5
1C0
100
AcDbEntity
8
mokou
6
ByLayer
62
7
370
-1
100
AcDbSpline
210
0
220
0
230
1
70
8
71
3
72
8
73
4
74
0
42
1e-07
43
1e-07
40
0
40
0
40
0
40
0
40
1
40
1
40
1
40
1
10
45.8570897973
20
60.8201584616
30
0
10
45.7254542973
20
60.9137314616
30
0
10
45.6805649973
20
61.1138461616
30
0
10
45.7909439973
20
61.1138461616
30
0
0
SPLINE
5
1C1
100
AcDbEntity
8
mokou
6
ByLayer
62
7
370
-1
100
AcDbSpline
210
0
220
0
230
1
70
8
71
3
72
8
73
4
74
0
42
1e-07
43
1e-07
40
0
40
0
40
0
40
0
40
1
40
1
40
1
40
1
10
45.7909439973
20
61.1138461616
30
0
10
45.8864582973
20
61.1138461616
30
0
10
46.1836685973
20
60.9460171616
30
0
10
46.3042355973
20
60.8254501616
30
0
0
SPLINE
5
1C2
100
AcDbEntity
8
mokou
6
ByLayer
62
7
370
-1
100
AcDbSpline
210
0
220
0
230
1
70
8
71
3
72
8
73
4
74
0
42
1e-07
43
1e-07
40
0
40
0
40
0
40
0
40
1
40
1
40
1
40
1
10
46.3042355973
20
60.8254501616
30
0
10
46.3638713973
20
60.7658143616
30
0
10
46.5896588973
20
60.6627751616
30
0
10
46.8042980973
20
60.5952628616
30
0
0
SPLINE
5
1C3
100
AcDbEntity
8
mokou
6
ByLayer
62
7
370
-1
100
AcDbSpline
210
0
220
0
230
1
70
8
71
3
72
8
73
4
74
0
42
1e-07
43
1e-07
40
0
40
0
40
0
40
0
40
1
40
1
40
1
40
1
10
46.8042980973
20
60.5952628616
30
0
10
47.0189375973
20
60.5277502616
30
0
10
47.1932357973
20
60.4448440616
30
0
10
47.1932357973
20
60.4100545616
30
0
0
SPLINE
5
1C4
100
AcDbEntity
8
mokou
6
ByLayer
62
7
370
-1
100
AcDbSpline
210
0
220
0
230
1
70
8
71
3
72
8
73
4
74
0
42
1e-07
43
1e-07
40
0
40
0
40
0
40
0
40
1
40
1
40
1
40
1
10
47.1932357973
20
60.4100545616
30
0
10
47.1932357973
20
60.3752656616
30
0
10
47.2415303973
20
60.3465544616
30
0
10
47.2990691973
20
60.3465544616
30
0
0
SPLINE
5
1C5
100
AcDbEntity
8
mokou
6
ByLayer
62
7
370
-1
100
AcDbSpline
210
0
220
0
230
1
70
8
71
3
72
8
73
4
74
0
42
1e-07
43
1e-07
40
0
40
0
40
0
40
0
40
1
40
1
40
1
40
1
10
47.2990691973
20
60.3465544616
30
0
10
47.3566085973
20
60.3465544616
30
0
10
47.4022565973
20
60.3769870616
30
0
10
47.4022565973
20
60.4153459616
30
0
0
SPLINE
5
1C6
100
AcDbEntity
8
mokou
6
ByLayer
62
7
370
-1
100
AcDbSpline
210
0
220
0
230
1
70
8
71
3
72
8
73
4
74
0
42
1e-07
43
1e-07
40
0
40
0
40
0
40
0
40
1
40
1
40
1
40
1
10
47.4022565973
20
60.4153459616
30
0
10
47.4022565973
20
60.4537051616
30
0
10
47.4431471973
20
60.4841377616
30
0
10
47.4922148973
20
60.4841377616
30
0
0
SPLINE
5
1C7
100
AcDbEntity
8
mokou
6
ByLayer
62
7
370
-1
100
AcDbSpline
210
0
220
0
230
1
70
8
71
3
72
8
73
4
74
0
42
1e-07
43
1e-07
40
0
40
0
40
0
40
0
40
1
40
1
40
1
40
1
10
47.4922148973
20
60.4841377616
30
0
10
47.6840789973
20
60.4841377616
30
0
10
48.0730706973
20
60.9632785616
30
0
10
48.1695482973
20
61.3175752616
30
0
0
SPLINE
5
1C8
100
AcDbEntity
8
mokou
6
ByLayer
62
7
370
-1
100
AcDbSpline
210
0
220
0
230
1
70
8
71
3
72
8
73
4
74
0
42
1e-07
43
1e-07
40
0
40
0
40
0
40
0
40
1
40
1
40
1
40
1
10
48.1695482973
20
61.3175752616
30
0
10
48.2226503973
20
61.5125806616
30
0
10
48.2875904973
20
61.6721170616
30
0
10
48.3150689973
20
61.6721170616
30
0
0
SPLINE
5
1C9
100
AcDbEntity
8
mokou
6
ByLayer
62
7
370
-1
100
AcDbSpline
210
0
220
0
230
1
70
8
71
3
72
8
73
4
74
0
42
1e-07
43
1e-07
40
0
40
0
40
0
40
0
40
1
40
1
40
1
40
1
10
48.3150689973
20
61.6721170616
30
0
10
48.3425474973
20
61.6721170616
30
0
10
48.4362473973
20
61.9780930616
30
0
10
48.5240897973
20
62.3520961616
30
0
0
SPLINE
5
1CA
100
AcDbEntity
8
mokou
6
ByLayer
62
7
370
-1
100
AcDbSpline
210
0
220
0
230
1
70
8
71
3
72
8
73
4
74
0
42
1e-07
43
1e-07
40
0
40
0
40
0
40
0
40
1
40
1
40
1
40
1
10
48.5240897973
20
62.3520961616
30
0
10
48.6119315973
20
62.7260992616
30
0
10
48.7047329973
20
63.0472915616
30
0
10
48.7304648973
20
63.0664711616
30
0
0
SPLINE
5
1CB
100
AcDbEntity
8
mokou
6
ByLayer
62
7
370
-1
100
AcDbSpline
210
0
220
0
230
1
70
8
71
3
72
8
73
4
74
0
42
1e-07
43
1e-07
40
0
40
0
40
0
40
0
40
1
40
1
40
1
40
1
10
48.7304648973
20
63.0664711616
30
0
10
48.7561958973
20
63.0856507616
30
0
10
48.8360390973
20
63.3979120616
30
0
10
48.9077357973
20
63.7623253616
30
0
0
SPLINE
5
1CC
100
AcDbEntity
8
mokou
6
ByLayer
62
7
370
-1
100
AcDbSpline
210
0
220
0
230
1
70
8
71
3
72
8
73
4
74
0
42
1e-07
43
1e-07
40
0
40
0
40
0
40
0
40
1
40
1
40
1
40
1
10
48.9077357973
20
63.7623253616
30
0
10
48.9794315973
20
64.1267386616
30
0
10
49.0581731973
20
64.4416456616
30
0
10
49.0823606973
20
64.4608252616
30
0
0
SPLINE
5
1CD
100
AcDbEntity
8
mokou
6
ByLayer
62
7
370
-1
100
AcDbSpline
210
0
220
0
230
1
70
8
71
3
72
8
73
4
74
0
42
1e-07
43
1e-07
40
0
40
0
40
0
40
0
40
1
40
1
40
1
40
1
10
49.0823606973
20
64.4608252616
30
0
10
49.1650961973
20
64.5264292616
30
0
10
49.4353808973
20
66.3789985616
30
0
10
49.4130899973
20
66.7283044616
30
0
0
LWPOLYLINE
5
1CE
100
AcDbEntity
8
mokou
6
ByLayer
62
7
370
-1
100
AcDbPolyline
90
3
70
0
43
0
10
48.3785690973
20
45.6224920616
10
48.3785690973
20
46.5908668616
10
48.2039441973
20
46.6358461616
0
SPLINE
5
1CF
100
AcDbEntity
8
mokou
6
ByLayer
62
7
370
-1
100
AcDbSpline
210
0
220
0
230
1
70
8
71
3
72
8
73
4
74
0
42
1e-07
43
1e-07
40
0
40
0
40
0
40
0
40
1
40
1
40
1
40
1
10
48.6934232973
20
67.0987210616
30
0
10
47.9701100973
20
67.1215549616
30
0
10
46.4259440973
20
66.9920374616
30
0
10
46.4259440973
20
66.9082210616
30
0
0
SPLINE
5
1D0
100
AcDbEntity
8
mokou
6
ByLayer
62
7
370
-1
100
AcDbSpline
210
0
220
0
230
1
70
8
71
3
72
8
73
4
74
0
42
1e-07
43
1e-07
40
0
40
0
40
0
40
0
40
1
40
1
40
1
40
1
10
46.4259440973
20
66.9082210616
30
0
10
46.4259440973
20
66.8819212616
30
0
10
46.1834780973
20
66.8192407616
30
0
10
45.8861939973
20
66.7706377616
30
0
0
SPLINE
5
1D1
100
AcDbEntity
8
mokou
6
ByLayer
62
7
370
-1
100
AcDbSpline
210
0
220
0
230
1
70
8
71
3
72
8
73
4
74
0
42
1e-07
43
1e-07
40
0
40
0
40
0
40
0
40
1
40
1
40
1
40
1
10
45.8861939973
20
66.7706377616
30
0
10
45.2970359973
20
66.6743161616
30
0
10
44.8087133973
20
66.5501662616
30
0
10
44.7537773973
20
66.4822420616
30
0
0
SPLINE
5
1D2
100
AcDbEntity
8
mokou
6
ByLayer
62
7
370
-1
100
AcDbSpline
210
0
220
0
230
1
70
8
71
3
72
8
73
4
74
0
42
1e-07
43
1e-07
40
0
40
0
40
0
40
0
40
1
40
1
40
1
40
1
10
44.7537773973
20
66.4822420616
30
0
10
44.7345977973
20
66.4585276616
30
0
10
44.4990086973
20
66.3856456616
30
0
10
44.2325480973
20
66.3208459616
30
0
0
SPLINE
5
1D3
100
AcDbEntity
8
mokou
6
ByLayer
62
7
370
-1
100
AcDbSpline
210
0
220
0
230
1
70
8
71
3
72
8
73
4
74
0
42
1e-07
43
1e-07
40
0
40
0
40
0
40
0
40
1
40
1
40
1
40
1
10
44.2325480973
20
66.3208459616
30
0
10
43.9660877973
20
66.2560462616
30
0
10
43.7325533973
20
66.1760161616
30
0
10
43.7113190973
20
66.1435753616
30
0
0
SPLINE
5
1D4
100
AcDbEntity
8
mokou
6
ByLayer
62
7
370
-1
100
AcDbSpline
210
0
220
0
230
1
70
8
71
3
72
8
73
4
74
0
42
1e-07
43
1e-07
40
0
40
0
40
0
40
0
40
1
40
1
40
1
40
1
10
43.7113190973
20
66.1435753616
30
0
10
43.6900847973
20
66.1111342616
30
0
10
43.4443820973
20
66.0147544616
30
0
10
43.1662772973
20
65.9292628616
30
0
0
SPLINE
5
1D5
100
AcDbEntity
8
mokou
6
ByLayer
62
7
370
-1
100
AcDbSpline
210
0
220
0
230
1
70
8
71
3
72
8
73
4
74
0
42
1e-07
43
1e-07
40
0
40
0
40
0
40
0
40
1
40
1
40
1
40
1
10
43.1662772973
20
65.9292628616
30
0
10
42.8881718973
20
65.8437712616
30
0
10
42.6609230973
20
65.7507946616
30
0
10
42.6609230973
20
65.7228877616
30
0
0
SPLINE
5
1D6
100
AcDbEntity
8
mokou
6
ByLayer
62
7
370
-1
100
AcDbSpline
210
0
220
0
230
1
70
8
71
3
72
8
73
4
74
0
42
1e-07
43
1e-07
40
0
40
0
40
0
40
0
40
1
40
1
40
1
40
1
10
42.6609230973
20
65.7228877616
30
0
10
42.6609230973
20
65.6263723616
30
0
10
41.8240457973
20
65.4206566616
30
0
10
41.6290481973
20
65.4688876616
30
0
0
SPLINE
5
1D7
100
AcDbEntity
8
mokou
6
ByLayer
62
7
370
-1
100
AcDbSpline
210
0
220
0
230
1
70
8
71
3
72
8
73
4
74
0
42
1e-07
43
1e-07
40
0
40
0
40
0
40
0
40
1
40
1
40
1
40
1
10
41.6290481973
20
65.4688876616
30
0
10
41.5242284973
20
65.4948142616
30
0
10
41.2748096973
20
65.5508713616
30
0
10
41.0734232973
20
65.5932418616
30
0
0
SPLINE
5
1D8
100
AcDbEntity
8
mokou
6
ByLayer
62
7
370
-1
100
AcDbSpline
210
0
220
0
230
1
70
8
71
3
72
8
73
4
74
0
42
1e-07
43
1e-07
40
0
40
0
40
0
40
0
40
1
40
1
40
1
40
1
10
41.0734232973
20
65.5932418616
30
0
10
40.8720368973
20
65.6356123616
30
0
10
40.7082980973
20
65.6962339616
30
0
10
40.7082980973
20
65.7281794616
30
0
0
SPLINE
5
1D9
100
AcDbEntity
8
mokou
6
ByLayer
62
7
370
-1
100
AcDbSpline
210
0
220
0
230
1
70
8
71
3
72
8
73
4
74
0
42
1e-07
43
1e-07
40
0
40
0
40
0
40
0
40
1
40
1
40
1
40
1
10
40.7082980973
20
65.7281794616
30
0
10
40.7082980973
20
65.7601246616
30
0
10
40.5356288973
20
65.7863878616
30
0
10
40.3246523973
20
65.7863878616
30
0
0
SPLINE
5
1DA
100
AcDbEntity
8
mokou
6
ByLayer
62
7
370
-1
100
AcDbSpline
210
0
220
0
230
1
70
8
71
3
72
8
73
4
74
0
42
1e-07
43
1e-07
40
0
40
0
40
0
40
0
40
1
40
1
40
1
40
1
10
40.3246523973
20
65.7863878616
30
0
10
40.1136764973
20
65.7863878616
30
0
10
39.9410066973
20
65.7604345616
30
0
10
39.9410066973
20
65.7281794616
30
0
0
SPLINE
5
1DB
100
AcDbEntity
8
mokou
6
ByLayer
62
7
370
-1
100
AcDbSpline
210
0
220
0
230
1
70
8
71
3
72
8
73
4
74
0
42
1e-07
43
1e-07
40
0
40
0
40
0
40
0
40
1
40
1
40
1
40
1
10
39.9410066973
20
65.7281794616
30
0
10
39.9410066973
20
65.6959243616
30
0
10
39.7710143973
20
65.6313418616
30
0
10
39.5652980973
20
65.5853044616
30
0
0
SPLINE
5
1DC
100
AcDbEntity
8
mokou
6
ByLayer
62
7
370
-1
100
AcDbSpline
210
0
220
0
230
1
70
8
71
3
72
8
73
4
74
0
42
1e-07
43
1e-07
40
0
40
0
40
0
40
0
40
1
40
1
40
1
40
1
10
39.5652980973
20
65.5853044616
30
0
10
39.1493555973
20
65.4922204616
30
0
10
38.9388512973
20
65.5500943616
30
0
10
38.6260274973
20
65.8393045616
30
0
0
SPLINE
5
1DD
100
AcDbEntity
8
mokou
6
ByLayer
62
7
370
-1
100
AcDbSpline
210
0
220
0
230
1
70
8
71
3
72
8
73
4
74
0
42
1e-07
43
1e-07
40
0
40
0
40
0
40
0
40
1
40
1
40
1
40
1
10
38.6260274973
20
65.8393045616
30
0
10
38.5326713973
20
65.9256127616
30
0
10
38.4159329973
20
65.9954086616
30
0
10
38.3667356973
20
65.9954086616
30
0
0
SPLINE
5
1DE
100
AcDbEntity
8
mokou
6
ByLayer
62
7
370
-1
100
AcDbSpline
210
0
220
0
230
1
70
8
71
3
72
8
73
4
74
0
42
1e-07
43
1e-07
40
0
40
0
40
0
40
0
40
1
40
1
40
1
40
1
10
38.3667356973
20
65.9954086616
30
0
10
38.3175374973
20
65.9954086616
30
0
10
38.2348622973
20
66.0352654616
30
0
10
38.1841730973
20
66.0853669616
30
0
0
SPLINE
5
1DF
100
AcDbEntity
8
mokou
6
ByLayer
62
7
370
-1
100
AcDbSpline
210
0
220
0
230
1
70
8
71
3
72
8
73
4
74
0
42
1e-07
43
1e-07
40
0
40
0
40
0
40
0
40
1
40
1
40
1
40
1
10
38.1841730973
20
66.0853669616
30
0
10
38.1334841973
20
66.1354684616
30
0
10
37.9839068973
20
66.2383423616
30
0
10
37.8507980973
20
66.3129085616
30
0
0
SPLINE
5
1E0
100
AcDbEntity
8
mokou
6
ByLayer
62
7
370
-1
100
AcDbSpline
210
0
220
0
230
1
70
8
71
3
72
8
73
4
74
0
42
1e-07
43
1e-07
40
0
40
0
40
0
40
0
40
1
40
1
40
1
40
1
10
37.8507980973
20
66.3129085616
30
0
10
37.7176895973
20
66.3874747616
30
0
10
37.5453080973
20
66.5024254616
30
0
10
37.4697980973
20
66.5695543616
30
0
0
SPLINE
5
1E1
100
AcDbEntity
8
mokou
6
ByLayer
62
7
370
-1
100
AcDbSpline
210
0
220
0
230
1
70
8
71
3
72
8
73
4
74
0
42
1e-07
43
1e-07
40
0
40
0
40
0
40
0
40
1
40
1
40
1
40
1
10
37.4697980973
20
66.5695543616
30
0
10
37.3942874973
20
66.6366832616
30
0
10
37.2925619973
20
66.6912628616
30
0
10
37.2422564973
20
66.6912628616
30
0
0
SPLINE
5
1E2
100
AcDbEntity
8
mokou
6
ByLayer
62
7
370
-1
100
AcDbSpline
210
0
220
0
230
1
70
8
71
3
72
8
73
4
74
0
42
1e-07
43
1e-07
40
0
40
0
40
0
40
0
40
1
40
1
40
1
40
1
10
37.2422564973
20
66.6912628616
30
0
10
37.1919509973
20
66.6912628616
30
0
10
37.0915913973
20
66.7519687616
30
0
10
37.0200065973
20
66.8235544616
30
0
0
SPLINE
5
1E3
100
AcDbEntity
8
mokou
6
ByLayer
62
7
370
-1
100
AcDbSpline
210
0
220
0
230
1
70
8
71
3
72
8
73
4
74
0
42
1e-07
43
1e-07
40
0
40
0
40
0
40
0
40
1
40
1
40
1
40
1
10
37.0200065973
20
66.8235544616
30
0
10
36.9484208973
20
66.8951401616
30
0
10
36.7439576973
20
67.0091803616
30
0
10
36.5649230973
20
67.0775545616
30
0
0
SPLINE
5
1E4
100
AcDbEntity
8
mokou
6
ByLayer
62
7
370
-1
100
AcDbSpline
210
0
220
0
230
1
70
8
71
3
72
8
73
4
74
0
42
1e-07
43
1e-07
40
0
40
0
40
0
40
0
40
1
40
1
40
1
40
1
10
36.5649230973
20
67.0775545616
30
0
10
36.3858878973
20
67.1459284616
30
0
10
36.2167001973
20
67.2389509616
30
0
10
36.1892147973
20
67.2839293616
30
0
0
SPLINE
5
1E5
100
AcDbEntity
8
mokou
6
ByLayer
62
7
370
-1
100
AcDbSpline
210
0
220
0
230
1
70
8
71
3
72
8
73
4
74
0
42
1e-07
43
1e-07
40
0
40
0
40
0
40
0
40
1
40
1
40
1
40
1
10
36.1892147973
20
67.2839293616
30
0
10
36.1617311973
20
67.3289077616
30
0
10
35.9992397973
20
67.4197795616
30
0
10
35.8267355973
20
67.4876584616
30
0
0
SPLINE
5
1E6
100
AcDbEntity
8
mokou
6
ByLayer
62
7
370
-1
100
AcDbSpline
210
0
220
0
230
1
70
8
71
3
72
8
73
4
74
0
42
1e-07
43
1e-07
40
0
40
0
40
0
40
0
40
1
40
1
40
1
40
1
10
35.8267355973
20
67.4876584616
30
0
10
35.6542307973
20
67.5555376616
30
0
10
35.4967769973
20
67.6346770616
30
0
10
35.4774857973
20
67.6622836616
30
0
0
SPLINE
5
1E7
100
AcDbEntity
8
mokou
6
ByLayer
62
7
370
-1
100
AcDbSpline
210
0
220
0
230
1
70
8
71
3
72
8
73
4
74
0
42
1e-07
43
1e-07
40
0
40
0
40
0
40
0
40
1
40
1
40
1
40
1
10
35.4774857973
20
67.6622836616
30
0
10
35.4384323973
20
67.7181688616
30
0
10
34.5107345973
20
68.0168251616
30
0
10
34.3768190973
20
68.0168251616
30
0
0
SPLINE
5
1E8
100
AcDbEntity
8
mokou
6
ByLayer
62
7
370
-1
100
AcDbSpline
210
0
220
0
230
1
70
8
71
3
72
8
73
4
74
0
42
1e-07
43
1e-07
40
0
40
0
40
0
40
0
40
1
40
1
40
1
40
1
10
34.3768190973
20
68.0168251616
30
0
10
34.3299518973
20
68.0168251616
30
0
10
34.2921524973
20
68.0452447616
30
0
10
34.2921524973
20
68.0776795616
30
0
0
SPLINE
5
1E9
100
AcDbEntity
8
mokou
6
ByLayer
62
7
370
-1
100
AcDbSpline
210
0
220
0
230
1
70
8
71
3
72
8
73
4
74
0
42
1e-07
43
1e-07
40
0
40
0
40
0
40
0
40
1
40
1
40
1
40
1
10
34.2921524973
20
68.0776795616
30
0
10
34.2921524973
20
68.1101140616
30
0
10
33.9924620973
20
68.2054021616
30
0
10
33.6280481973
20
68.2919920616
30
0
0
SPLINE
5
1EA
100
AcDbEntity
8
mokou
6
ByLayer
62
7
370
-1
100
AcDbSpline
210
0
220
0
230
1
70
8
71
3
72
8
73
4
74
0
42
1e-07
43
1e-07
40
0
40
0
40
0
40
0
40
1
40
1
40
1
40
1
10
33.6280481973
20
68.2919920616
30
0
10
33.2636351973
20
68.3785813616
30
0
10
32.9665898973
20
68.4745495616
30
0
10
32.9665898973
20
68.5036585616
30
0
0
SPLINE
5
1EB
100
AcDbEntity
8
mokou
6
ByLayer
62
7
370
-1
100
AcDbSpline
210
0
220
0
230
1
70
8
71
3
72
8
73
4
74
0
42
1e-07
43
1e-07
40
0
40
0
40
0
40
0
40
1
40
1
40
1
40
1
10
32.9665898973
20
68.5036585616
30
0
10
32.9665898973
20
68.5327678616
30
0
10
32.6999780973
20
68.6147338616
30
0
10
32.3739230973
20
68.6862211616
30
0
0
SPLINE
5
1EC
100
AcDbEntity
8
mokou
6
ByLayer
62
7
370
-1
100
AcDbSpline
210
0
220
0
230
1
70
8
71
3
72
8
73
4
74
0
42
1e-07
43
1e-07
40
0
40
0
40
0
40
0
40
1
40
1
40
1
40
1
10
32.3739230973
20
68.6862211616
30
0
10
32.0478692973
20
68.7577081616
30
0
10
31.7812565973
20
68.8417144616
30
0
10
31.7812565973
20
68.8714294616
30
0
0
SPLINE
5
1ED
100
AcDbEntity
8
mokou
6
ByLayer
62
7
370
-1
100
AcDbSpline
210
0
220
0
230
1
70
8
71
3
72
8
73
4
74
0
42
1e-07
43
1e-07
40
0
40
0
40
0
40
0
40
1
40
1
40
1
40
1
10
31.7812565973
20
68.8714294616
30
0
10
31.7812565973
20
68.9011441616
30
0
10
31.7132498973
20
68.9243461616
30
0
10
31.6330898973
20
68.9243461616
30
0
0
LWPOLYLINE
5
1EE
100
AcDbEntity
8
mokou
6
ByLayer
62
7
370
-1
100
AcDbPolyline
90
3
70
0
43
0
10
49.4130899973
20
66.7283044616
10
49.3892774973
20
67.0749085616
10
48.6934232973
20
67.0987210616
0
SPLINE
5
1EF
100
AcDbEntity
8
mokou
6
ByLayer
62
7
370
-1
100
AcDbSpline
210
0
220
0
230
1
70
8
71
3
72
8
73
4
74
0
42
1e-07
43
1e-07
40
0
40
0
40
0
40
0
40
1
40
1
40
1
40
1
10
19.4516732973
20
61.9631584616
30
0
10
19.4132222973
20
61.9601515616
30
0
10
19.3733858973
20
61.9367770616
30
0
10
19.3167356973
20
61.8996586616
30
0
0
SPLINE
5
1F0
100
AcDbEntity
8
mokou
6
ByLayer
62
7
370
-1
100
AcDbSpline
210
0
220
0
230
1
70
8
71
3
72
8
73
4
74
0
42
1e-07
43
1e-07
40
0
40
0
40
0
40
0
40
1
40
1
40
1
40
1
10
19.3167356973
20
61.8996586616
30
0
10
19.2280019973
20
61.8415180616
30
0
10
19.1532452973
20
61.7427715616
30
0
10
19.1500481973
20
61.6800544616
30
0
0
SPLINE
5
1F1
100
AcDbEntity
8
mokou
6
ByLayer
62
7
370
-1
100
AcDbSpline
210
0
220
0
230
1
70
8
71
3
72
8
73
4
74
0
42
1e-07
43
1e-07
40
0
40
0
40
0
40
0
40
1
40
1
40
1
40
1
10
19.1500481973
20
61.6800544616
30
0
10
19.1468516973
20
61.6173373616
30
0
10
19.1323487973
20
61.5027730616
30
0
10
19.1156522973
20
61.4260543616
30
0
0
SPLINE
5
1F2
100
AcDbEntity
8
mokou
6
ByLayer
62
7
370
-1
100
AcDbSpline
210
0
220
0
230
1
70
8
71
3
72
8
73
4
74
0
42
1e-07
43
1e-07
40
0
40
0
40
0
40
0
40
1
40
1
40
1
40
1
10
19.1156522973
20
61.4260543616
30
0
10
19.0208327973
20
60.9903652616
30
0
10
19.0132940973
20
60.5670094616
30
0
10
19.0944857973
20
60.2010334616
30
0
0
SPLINE
5
1F3
100
AcDbEntity
8
mokou
6
ByLayer
62
7
370
-1
100
AcDbSpline
210
0
220
0
230
1
70
8
71
3
72
8
73
4
74
0
42
1e-07
43
1e-07
40
0
40
0
40
0
40
0
40
1
40
1
40
1
40
1
10
19.0944857973
20
60.2010334616
30
0
10
19.1778023973
20
59.8254784616
30
0
10
19.2009158973
20
59.7882835616
30
0
10
19.3670066973
20
59.7882835616
30
0
0
SPLINE
5
1F4
100
AcDbEntity
8
mokou
6
ByLayer
62
7
370
-1
100
AcDbSpline
210
0
220
0
230
1
70
8
71
3
72
8
73
4
74
0
42
1e-07
43
1e-07
40
0
40
0
40
0
40
0
40
1
40
1
40
1
40
1
10
19.3670066973
20
59.7882835616
30
0
10
19.5227336973
20
59.7882835616
30
0
10
19.5792821973
20
59.8530934616
30
0
10
19.7532980973
20
60.2248459616
30
0
0
SPLINE
5
1F5
100
AcDbEntity
8
mokou
6
ByLayer
62
7
370
-1
100
AcDbSpline
210
0
220
0
230
1
70
8
71
3
72
8
73
4
74
0
42
1e-07
43
1e-07
40
0
40
0
40
0
40
0
40
1
40
1
40
1
40
1
10
19.7532980973
20
60.2248459616
30
0
10
19.9147058973
20
60.5696629616
30
0
10
19.9596731973
20
60.7575424616
30
0
10
19.9596731973
20
61.1244295616
30
0
0
SPLINE
5
1F6
100
AcDbEntity
8
mokou
6
ByLayer
62
7
370
-1
100
AcDbSpline
210
0
220
0
230
1
70
8
71
3
72
8
73
4
74
0
42
1e-07
43
1e-07
40
0
40
0
40
0
40
0
40
1
40
1
40
1
40
1
10
19.9596731973
20
61.1244295616
30
0
10
19.9596731973
20
61.5657715616
30
0
10
19.9469900973
20
61.5973285616
30
0
10
19.7189024973
20
61.7964709616
30
0
0
SPLINE
5
1F7
100
AcDbEntity
8
mokou
6
ByLayer
62
7
370
-1
100
AcDbSpline
210
0
220
0
230
1
70
8
71
3
72
8
73
4
74
0
42
1e-07
43
1e-07
40
0
40
0
40
0
40
0
40
1
40
1
40
1
40
1
10
19.7189024973
20
61.7964709616
30
0
10
19.5786266973
20
61.9189453616
30
0
10
19.5157577973
20
61.9681705616
30
0
10
19.4516732973
20
61.9631584616
30
0
0
LWPOLYLINE
5
1F8
100
AcDbEntity
8
mokou
6
ByLayer
62
7
370
-1
100
AcDbPolyline
90
2
70
0
43
0
10
31.6330898973
20
68.9243461616
10
31.6330898973
20
68.9243461616
0
SPLINE
5
1F9
100
AcDbEntity
8
mokou
6
ByLayer
62
7
370
-1
100
AcDbSpline
210
0
220
0
230
1
70
8
71
3
72
8
73
4
74
0
42
1e-07
43
1e-07
40
0
40
0
40
0
40
0
40
1
40
1
40
1
40
1
10
32.5750064973
20
58.9178044616
30
0
10
32.5806233973
20
58.9227337616
30
0
10
32.5862723973
20
58.9172641616
30
0
10
32.5935272973
20
58.8992836616
30
0
0
SPLINE
5
1FA
100
AcDbEntity
8
mokou
6
ByLayer
62
7
370
-1
100
AcDbSpline
210
0
220
0
230
1
70
8
71
3
72
8
73
4
74
0
42
1e-07
43
1e-07
40
0
40
0
40
0
40
0
40
1
40
1
40
1
40
1
10
32.5935272973
20
58.8992836616
30
0
10
32.6128754973
20
58.8513343616
30
0
10
32.6128754973
20
58.7726077616
30
0
10
32.5935272973
20
58.7246584616
30
0
0
SPLINE
5
1FB
100
AcDbEntity
8
mokou
6
ByLayer
62
7
370
-1
100
AcDbSpline
210
0
220
0
230
1
70
8
71
3
72
8
73
4
74
0
42
1e-07
43
1e-07
40
0
40
0
40
0
40
0
40
1
40
1
40
1
40
1
10
32.5935272973
20
58.7246584616
30
0
10
32.5741802973
20
58.6767094616
30
0
10
32.5591316973
20
58.7160724616
30
0
10
32.5591316973
20
58.8119710616
30
0
0
SPLINE
5
1FC
100
AcDbEntity
8
mokou
6
ByLayer
62
7
370
-1
100
AcDbSpline
210
0
220
0
230
1
70
8
71
3
72
8
73
4
74
0
42
1e-07
43
1e-07
40
0
40
0
40
0
40
0
40
1
40
1
40
1
40
1
10
32.5591316973
20
58.8119710616
30
0
10
32.5591316973
20
58.8719074616
30
0
10
32.5656449973
20
58.9095883616
30
0
10
32.5750064973
20
58.9178044616
30
0
0
LWPOLYLINE
5
1FD
100
AcDbEntity
8
mokou
6
ByLayer
62
7
370
-1
100
AcDbPolyline
90
2
70
0
43
0
10
19.4516732973
20
61.9631584616
10
19.4516732973
20
61.9631584616
0
SPLINE
5
1FE
100
AcDbEntity
8
mokou
6
ByLayer
62
7
370
-1
100
AcDbSpline
210
0
220
0
230
1
70
8
71
3
72
8
73
4
74
0
42
1e-07
43
1e-07
40
0
40
0
40
0
40
0
40
1
40
1
40
1
40
1
10
32.4294857973
20
58.5103459616
30
0
10
32.4326504973
20
58.5110479616
30
0
10
32.4370769973
20
58.5113434616
30
0
10
32.4400691973
20
58.5103459616
30
0
0
SPLINE
5
1FF
100
AcDbEntity
8
mokou
6
ByLayer
62
7
370
-1
100
AcDbSpline
210
0
220
0
230
1
70
8
71
3
72
8
73
4
74
0
42
1e-07
43
1e-07
40
0
40
0
40
0
40
0
40
1
40
1
40
1
40
1
10
32.4400691973
20
58.5103459616
30
0
10
32.5249472973
20
58.4820529616
30
0
10
32.5244798973
20
58.4710117616
30
0
10
32.4506522973
20
57.9917626616
30
0
0
SPLINE
5
200
100
AcDbEntity
8
mokou
6
ByLayer
62
7
370
-1
100
AcDbSpline
210
0
220
0
230
1
70
8
71
3
72
8
73
4
74
0
42
1e-07
43
1e-07
40
0
40
0
40
0
40
0
40
1
40
1
40
1
40
1
10
32.4506522973
20
57.9917626616
30
0
10
32.4196286973
20
57.7903762616
30
0
10
32.3689736973
20
57.6266377616
30
0
10
32.3368814973
20
57.6266377616
30
0
0
SPLINE
5
201
100
AcDbEntity
8
mokou
6
ByLayer
62
7
370
-1
100
AcDbSpline
210
0
220
0
230
1
70
8
71
3
72
8
73
4
74
0
42
1e-07
43
1e-07
40
0
40
0
40
0
40
0
40
1
40
1
40
1
40
1
10
32.3368814973
20
57.6266377616
30
0
10
32.3047904973
20
57.6266377616
30
0
10
32.2635467973
20
57.5541961616
30
0
10
32.2469231973
20
57.4678876616
30
0
0
SPLINE
5
202
100
AcDbEntity
8
mokou
6
ByLayer
62
7
370
-1
100
AcDbSpline
210
0
220
0
230
1
70
8
71
3
72
8
73
4
74
0
42
1e-07
43
1e-07
40
0
40
0
40
0
40
0
40
1
40
1
40
1
40
1
10
32.2469231973
20
57.4678876616
30
0
10
32.2302989973
20
57.3815794616
30
0
10
32.2090670973
20
57.3600781616
30
0
10
32.1992981973
20
57.4176169616
30
0
0
SPLINE
5
203
100
AcDbEntity
8
mokou
6
ByLayer
62
7
370
-1
100
AcDbSpline
210
0
220
0
230
1
70
8
71
3
72
8
73
4
74
0
42
1e-07
43
1e-07
40
0
40
0
40
0
40
0
40
1
40
1
40
1
40
1
10
32.1992981973
20
57.4176169616
30
0
10
32.1558803973
20
57.6733516616
30
0
10
32.3313824973
20
58.4885809616
30
0
10
32.4294857973
20
58.5103459616
30
0
0
LWPOLYLINE
5
204
100
AcDbEntity
8
mokou
6
ByLayer
62
7
370
-1
100
AcDbPolyline
90
2
70
0
43
0
10
32.5750064973
20
58.9178044616
10
32.5750064973
20
58.9178044616
0
SPLINE
5
205
100
AcDbEntity
8
mokou
6
ByLayer
62
7
370
-1
100
AcDbSpline
210
0
220
0
230
1
70
8
71
3
72
8
73
4
74
0
42
1e-07
43
1e-07
40
0
40
0
40
0
40
0
40
1
40
1
40
1
40
1
10
23.3595689973
20
54.3934294616
30
0
10
23.1937289973
20
54.3864301616
30
0
10
22.9917980973
20
54.3147976616
30
0
10
22.9917980973
20
54.2399710616
30
0
0
SPLINE
5
206
100
AcDbEntity
8
mokou
6
ByLayer
62
7
370
-1
100
AcDbSpline
210
0
220
0
230
1
70
8
71
3
72
8
73
4
74
0
42
1e-07
43
1e-07
40
0
40
0
40
0
40
0
40
1
40
1
40
1
40
1
10
22.9917980973
20
54.2399710616
30
0
10
22.9917980973
20
54.1899670616
30
0
10
22.9491524973
20
54.1047211616
30
0
10
22.8965480973
20
54.0521170616
30
0
0
SPLINE
5
207
100
AcDbEntity
8
mokou
6
ByLayer
62
7
370
-1
100
AcDbSpline
210
0
220
0
230
1
70
8
71
3
72
8
73
4
74
0
42
1e-07
43
1e-07
40
0
40
0
40
0
40
0
40
1
40
1
40
1
40
1
10
22.8965480973
20
54.0521170616
30
0
10
22.8346829973
20
53.9902519616
30
0
10
22.7771783973
20
53.6506918616
30
0
10
22.7325065973
20
53.0890336616
30
0
0
SPLINE
5
208
100
AcDbEntity
8
mokou
6
ByLayer
62
7
370
-1
100
AcDbSpline
210
0
220
0
230
1
70
8
71
3
72
8
73
4
74
0
42
1e-07
43
1e-07
40
0
40
0
40
0
40
0
40
1
40
1
40
1
40
1
10
22.7325065973
20
53.0890336616
30
0
10
22.6692494973
20
52.2937003616
30
0
10
22.6733015973
20
52.1950552616
30
0
10
22.7960066973
20
51.9275128616
30
0
0
SPLINE
5
209
100
AcDbEntity
8
mokou
6
ByLayer
62
7
370
-1
100
AcDbSpline
210
0
220
0
230
1
70
8
71
3
72
8
73
4
74
0
42
1e-07
43
1e-07
40
0
40
0
40
0
40
0
40
1
40
1
40
1
40
1
10
22.7960066973
20
51.9275128616
30
0
10
22.8696875973
20
51.7668610616
30
0
10
22.9851494973
20
51.6218263616
30
0
10
23.0500064973
20
51.6047209616
30
0
0
SPLINE
5
20A
100
AcDbEntity
8
mokou
6
ByLayer
62
7
370
-1
100
AcDbSpline
210
0
220
0
230
1
70
8
71
3
72
8
73
4
74
0
42
1e-07
43
1e-07
40
0
40
0
40
0
40
0
40
1
40
1
40
1
40
1
10
23.0500064973
20
51.6047209616
30
0
10
23.4558875973
20
51.4976761616
30
0
10
23.6118146973
20
51.5832622616
30
0
10
23.6691314973
20
51.9460336616
30
0
0
SPLINE
5
20B
100
AcDbEntity
8
mokou
6
ByLayer
62
7
370
-1
100
AcDbSpline
210
0
220
0
230
1
70
8
71
3
72
8
73
4
74
0
42
1e-07
43
1e-07
40
0
40
0
40
0
40
0
40
1
40
1
40
1
40
1
10
23.6691314973
20
51.9460336616
30
0
10
23.6928839973
20
52.0963669616
30
0
10
23.7432917973
20
52.2429427616
30
0
10
23.7829022973
20
52.2688252616
30
0
0
SPLINE
5
20C
100
AcDbEntity
8
mokou
6
ByLayer
62
7
370
-1
100
AcDbSpline
210
0
220
0
230
1
70
8
71
3
72
8
73
4
74
0
42
1e-07
43
1e-07
40
0
40
0
40
0
40
0
40
1
40
1
40
1
40
1
10
23.7829022973
20
52.2688252616
30
0
10
23.8775909973
20
52.3306978616
30
0
10
23.8689830973
20
53.2053934616
30
0
10
23.7723191973
20
53.3218669616
30
0
0
SPLINE
5
20D
100
AcDbEntity
8
mokou
6
ByLayer
62
7
370
-1
100
AcDbSpline
210
0
220
0
230
1
70
8
71
3
72
8
73
4
74
0
42
1e-07
43
1e-07
40
0
40
0
40
0
40
0
40
1
40
1
40
1
40
1
10
23.7723191973
20
53.3218669616
30
0
10
23.7310286973
20
53.3716186616
30
0
10
23.6741015973
20
53.6197420616
30
0
10
23.6479649973
20
53.8748461616
30
0
0
SPLINE
5
20E
100
AcDbEntity
8
mokou
6
ByLayer
62
7
370
-1
100
AcDbSpline
210
0
220
0
230
1
70
8
71
3
72
8
73
4
74
0
42
1e-07
43
1e-07
40
0
40
0
40
0
40
0
40
1
40
1
40
1
40
1
10
23.6479649973
20
53.8748461616
30
0
10
23.6178371973
20
54.1689121616
30
0
10
23.5660490973
20
54.3541618616
30
0
10
23.5050899973
20
54.3775543616
30
0
0
SPLINE
5
20F
100
AcDbEntity
8
mokou
6
ByLayer
62
7
370
-1
100
AcDbSpline
210
0
220
0
230
1
70
8
71
3
72
8
73
4
74
0
42
1e-07
43
1e-07
40
0
40
0
40
0
40
0
40
1
40
1
40
1
40
1
10
23.5050899973
20
54.3775543616
30
0
10
23.4668078973
20
54.3922450616
30
0
10
23.4148487973
20
54.3957628616
30
0
10
23.3595689973
20
54.3934294616
30
0
0
LWPOLYLINE
5
210
100
AcDbEntity
8
mokou
6
ByLayer
62
7
370
-1
100
AcDbPolyline
90
2
70
0
43
0
10
32.4294857973
20
58.5103459616
10
32.4294857973
20
58.5103459616
0
SPLINE
5
211
100
AcDbEntity
8
mokou
6
ByLayer
62
7
370
-1
100
AcDbSpline
210
0
220
0
230
1
70
8
71
3
72
8
73
4
74
0
42
1e-07
43
1e-07
40
0
40
0
40
0
40
0
40
1
40
1
40
1
40
1
10
59.1391730973
20
52.5069502616
30
0
10
59.1082301973
20
52.5049198616
30
0
10
59.0745521973
20
52.4394877616
30
0
10
59.0121731973
20
52.2899920616
30
0
0
SPLINE
5
212
100
AcDbEntity
8
mokou
6
ByLayer
62
7
370
-1
100
AcDbSpline
210
0
220
0
230
1
70
8
71
3
72
8
73
4
74
0
42
1e-07
43
1e-07
40
0
40
0
40
0
40
0
40
1
40
1
40
1
40
1
10
59.0121731973
20
52.2899920616
30
0
10
58.9481498973
20
52.1365546616
30
0
10
58.8512708973
20
51.9872923616
30
0
10
58.7978606973
20
51.9566170616
30
0
0
SPLINE
5
213
100
AcDbEntity
8
mokou
6
ByLayer
62
7
370
-1
100
AcDbSpline
210
0
220
0
230
1
70
8
71
3
72
8
73
4
74
0
42
1e-07
43
1e-07
40
0
40
0
40
0
40
0
40
1
40
1
40
1
40
1
10
58.7978606973
20
51.9566170616
30
0
10
58.7444504973
20
51.9259414616
30
0
10
58.7004728973
20
51.8624311616
30
0
10
58.6999649973
20
51.8163877616
30
0
0
SPLINE
5
214
100
AcDbEntity
8
mokou
6
ByLayer
62
7
370
-1
100
AcDbSpline
210
0
220
0
230
1
70
8
71
3
72
8
73
4
74
0
42
1e-07
43
1e-07
40
0
40
0
40
0
40
0
40
1
40
1
40
1
40
1
10
58.6999649973
20
51.8163877616
30
0
10
58.6994237973
20
51.7703443616
30
0
10
58.5750485973
20
51.5943400616
30
0
10
58.4221523973
20
51.4248043616
30
0
0
SPLINE
5
215
100
AcDbEntity
8
mokou
6
ByLayer
62
7
370
-1
100
AcDbSpline
210
0
220
0
230
1
70
8
71
3
72
8
73
4
74
0
42
1e-07
43
1e-07
40
0
40
0
40
0
40
0
40
1
40
1
40
1
40
1
10
58.4221523973
20
51.4248043616
30
0
10
58.1326667973
20
51.1038118616
30
0
10
58.0826219973
20
50.9092717616
30
0
10
58.2395897973
20
50.7024919616
30
0
0
SPLINE
5
216
100
AcDbEntity
8
mokou
6
ByLayer
62
7
370
-1
100
AcDbSpline
210
0
220
0
230
1
70
8
71
3
72
8
73
4
74
0
42
1e-07
43
1e-07
40
0
40
0
40
0
40
0
40
1
40
1
40
1
40
1
10
58.2395897973
20
50.7024919616
30
0
10
58.3733564973
20
50.5262767616
30
0
10
58.4469545973
20
50.5495126616
30
0
10
58.7714024973
20
50.8612420616
30
0
0
SPLINE
5
217
100
AcDbEntity
8
mokou
6
ByLayer
62
7
370
-1
100
AcDbSpline
210
0
220
0
230
1
70
8
71
3
72
8
73
4
74
0
42
1e-07
43
1e-07
40
0
40
0
40
0
40
0
40
1
40
1
40
1
40
1
10
58.7714024973
20
50.8612420616
30
0
10
58.9310996973
20
51.0146791616
30
0
10
59.0881631973
20
51.1390543616
30
0
10
59.1206522973
20
51.1390543616
30
0
0
SPLINE
5
218
100
AcDbEntity
8
mokou
6
ByLayer
62
7
370
-1
100
AcDbSpline
210
0
220
0
230
1
70
8
71
3
72
8
73
4
74
0
42
1e-07
43
1e-07
40
0
40
0
40
0
40
0
40
1
40
1
40
1
40
1
10
59.1206522973
20
51.1390543616
30
0
10
59.1531413973
20
51.1390543616
30
0
10
59.2274525973
20
51.1876462616
30
0
10
59.2873397973
20
51.2475334616
30
0
0
SPLINE
5
219
100
AcDbEntity
8
mokou
6
ByLayer
62
7
370
-1
100
AcDbSpline
210
0
220
0
230
1
70
8
71
3
72
8
73
4
74
0
42
1e-07
43
1e-07
40
0
40
0
40
0
40
0
40
1
40
1
40
1
40
1
10
59.2873397973
20
51.2475334616
30
0
10
59.4238538973
20
51.3840475616
30
0
10
59.8879439973
20
51.4702036616
30
0
10
59.8879439973
20
51.3586585616
30
0
0
SPLINE
5
21A
100
AcDbEntity
8
mokou
6
ByLayer
62
7
370
-1
100
AcDbSpline
210
0
220
0
230
1
70
8
71
3
72
8
73
4
74
0
42
1e-07
43
1e-07
40
0
40
0
40
0
40
0
40
1
40
1
40
1
40
1
10
59.8879439973
20
51.3586585616
30
0
10
59.8879439973
20
51.3152803616
30
0
10
59.8493090973
20
51.2792836616
30
0
10
59.8032773973
20
51.2792836616
30
0
0
SPLINE
5
21B
100
AcDbEntity
8
mokou
6
ByLayer
62
7
370
-1
100
AcDbSpline
210
0
220
0
230
1
70
8
71
3
72
8
73
4
74
0
42
1e-07
43
1e-07
40
0
40
0
40
0
40
0
40
1
40
1
40
1
40
1
10
59.8032773973
20
51.2792836616
30
0
10
59.7381830973
20
51.2792836616
30
0
10
59.7381830973
20
51.2597110616
30
0
10
59.8032773973
20
51.1946170616
30
0
0
SPLINE
5
21C
100
AcDbEntity
8
mokou
6
ByLayer
62
7
370
-1
100
AcDbSpline
210
0
220
0
230
1
70
8
71
3
72
8
73
4
74
0
42
1e-07
43
1e-07
40
0
40
0
40
0
40
0
40
1
40
1
40
1
40
1
10
59.8032773973
20
51.1946170616
30
0
10
59.9133458973
20
51.0845485616
30
0
10
59.9156324973
20
49.9150327616
30
0
10
59.8059230973
20
49.5991795616
30
0
0
SPLINE
5
21D
100
AcDbEntity
8
mokou
6
ByLayer
62
7
370
-1
100
AcDbSpline
210
0
220
0
230
1
70
8
71
3
72
8
73
4
74
0
42
1e-07
43
1e-07
40
0
40
0
40
0
40
0
40
1
40
1
40
1
40
1
10
59.8059230973
20
49.5991795616
30
0
10
59.7139286973
20
49.3343302616
30
0
10
59.3923619973
20
48.9774085616
30
0
10
59.2450064973
20
48.9774085616
30
0
0
SPLINE
5
21E
100
AcDbEntity
8
mokou
6
ByLayer
62
7
370
-1
100
AcDbSpline
210
0
220
0
230
1
70
8
71
3
72
8
73
4
74
0
42
1e-07
43
1e-07
40
0
40
0
40
0
40
0
40
1
40
1
40
1
40
1
10
59.2450064973
20
48.9774085616
30
0
10
59.1125159973
20
48.9774085616
30
0
10
58.9804232973
20
48.8338384616
30
0
10
58.9804232973
20
48.6890128616
30
0
0
SPLINE
5
21F
100
AcDbEntity
8
mokou
6
ByLayer
62
7
370
-1
100
AcDbSpline
210
0
220
0
230
1
70
8
71
3
72
8
73
4
74
0
42
1e-07
43
1e-07
40
0
40
0
40
0
40
0
40
1
40
1
40
1
40
1
10
58.9804232973
20
48.6890128616
30
0
10
58.9804232973
20
48.6227059616
30
0
10
58.9394588973
20
48.5280352616
30
0
10
58.8904649973
20
48.4773460616
30
0
0
SPLINE
5
220
100
AcDbEntity
8
mokou
6
ByLayer
62
7
370
-1
100
AcDbSpline
210
0
220
0
230
1
70
8
71
3
72
8
73
4
74
0
42
1e-07
43
1e-07
40
0
40
0
40
0
40
0
40
1
40
1
40
1
40
1
10
58.8904649973
20
48.4773460616
30
0
10
58.8414707973
20
48.4266568616
30
0
10
58.7422424973
20
48.2031412616
30
0
10
58.6682147973
20
47.9825752616
30
0
0
SPLINE
5
221
100
AcDbEntity
8
mokou
6
ByLayer
62
7
370
-1
100
AcDbSpline
210
0
220
0
230
1
70
8
71
3
72
8
73
4
74
0
42
1e-07
43
1e-07
40
0
40
0
40
0
40
0
40
1
40
1
40
1
40
1
10
58.6682147973
20
47.9825752616
30
0
10
58.5941873973
20
47.7620092616
30
0
10
58.4929142973
20
47.5830544616
30
0
10
58.4433191973
20
47.5830544616
30
0
0
SPLINE
5
222
100
AcDbEntity
8
mokou
6
ByLayer
62
7
370
-1
100
AcDbSpline
210
0
220
0
230
1
70
8
71
3
72
8
73
4
74
0
42
1e-07
43
1e-07
40
0
40
0
40
0
40
0
40
1
40
1
40
1
40
1
10
58.4433191973
20
47.5830544616
30
0
10
58.3937237973
20
47.5830544616
30
0
10
58.3533605973
20
47.5364209616
30
0
10
58.3533605973
20
47.4798670616
30
0
0
SPLINE
5
223
100
AcDbEntity
8
mokou
6
ByLayer
62
7
370
-1
100
AcDbSpline
210
0
220
0
230
1
70
8
71
3
72
8
73
4
74
0
42
1e-07
43
1e-07
40
0
40
0
40
0
40
0
40
1
40
1
40
1
40
1
10
58.3533605973
20
47.4798670616
30
0
10
58.3533605973
20
47.4233128616
30
0
10
58.2548231973
20
47.3255143616
30
0
10
58.1337566973
20
47.2629085616
30
0
0
SPLINE
5
224
100
AcDbEntity
8
mokou
6
ByLayer
62
7
370
-1
100
AcDbSpline
210
0
220
0
230
1
70
8
71
3
72
8
73
4
74
0
42
1e-07
43
1e-07
40
0
40
0
40
0
40
0
40
1
40
1
40
1
40
1
10
58.1337566973
20
47.2629085616
30
0
10
58.0126898973
20
47.2003027616
30
0
10
57.8767373973
20
47.1225745616
30
0
10
57.8347772973
20
47.0882836616
30
0
0
SPLINE
5
225
100
AcDbEntity
8
mokou
6
ByLayer
62
7
370
-1
100
AcDbSpline
210
0
220
0
230
1
70
8
71
3
72
8
73
4
74
0
42
1e-07
43
1e-07
40
0
40
0
40
0
40
0
40
1
40
1
40
1
40
1
10
57.8347772973
20
47.0882836616
30
0
10
57.7928165973
20
47.0539927616
30
0
10
57.6825677973
20
46.9667971616
30
0
10
57.5887148973
20
46.8951376616
30
0
0
SPLINE
5
226
100
AcDbEntity
8
mokou
6
ByLayer
62
7
370
-1
100
AcDbSpline
210
0
220
0
230
1
70
8
71
3
72
8
73
4
74
0
42
1e-07
43
1e-07
40
0
40
0
40
0
40
0
40
1
40
1
40
1
40
1
10
57.5887148973
20
46.8951376616
30
0
10
57.4049279973
20
46.7548102616
30
0
10
57.4031585973
20
46.7302162616
30
0
10
57.4458398973
20
45.6780544616
30
0
0
SPLINE
5
227
100
AcDbEntity
8
mokou
6
ByLayer
62
7
370
-1
100
AcDbSpline
210
0
220
0
230
1
70
8
71
3
72
8
73
4
74
0
42
1e-07
43
1e-07
40
0
40
0
40
0
40
0
40
1
40
1
40
1
40
1
10
57.4458398973
20
45.6780544616
30
0
10
57.4733786973
20
44.9991853616
30
0
10
57.3878042973
20
44.8723030616
30
0
10
56.9986940973
20
45.0007210616
30
0
0
SPLINE
5
228
100
AcDbEntity
8
mokou
6
ByLayer
62
7
370
-1
100
AcDbSpline
210
0
220
0
230
1
70
8
71
3
72
8
73
4
74
0
42
1e-07
43
1e-07
40
0
40
0
40
0
40
0
40
1
40
1
40
1
40
1
10
56.9986940973
20
45.0007210616
30
0
10
56.8604927973
20
45.0463318616
30
0
10
56.7473399973
20
45.1260733616
30
0
10
56.7473399973
20
45.1806376616
30
0
0
SPLINE
5
229
100
AcDbEntity
8
mokou
6
ByLayer
62
7
370
-1
100
AcDbSpline
210
0
220
0
230
1
70
8
71
3
72
8
73
4
74
0
42
1e-07
43
1e-07
40
0
40
0
40
0
40
0
40
1
40
1
40
1
40
1
10
56.7473399973
20
45.1806376616
30
0
10
56.7473399973
20
45.2352019616
30
0
10
56.7024308973
20
45.2811793616
30
0
10
56.6467982973
20
45.2811793616
30
0
0
SPLINE
5
22A
100
AcDbEntity
8
mokou
6
ByLayer
62
7
370
-1
100
AcDbSpline
210
0
220
0
230
1
70
8
71
3
72
8
73
4
74
0
42
1e-07
43
1e-07
40
0
40
0
40
0
40
0
40
1
40
1
40
1
40
1
10
56.6467982973
20
45.2811793616
30
0
10
56.5911653973
20
45.2811793616
30
0
10
56.5219208973
20
45.3259222616
30
0
10
56.4906941973
20
45.3817210616
30
0
0
SPLINE
5
22B
100
AcDbEntity
8
mokou
6
ByLayer
62
7
370
-1
100
AcDbSpline
210
0
220
0
230
1
70
8
71
3
72
8
73
4
74
0
42
1e-07
43
1e-07
40
0
40
0
40
0
40
0
40
1
40
1
40
1
40
1
10
56.4906941973
20
45.3817210616
30
0
10
56.4549131973
20
45.4456588616
30
0
10
56.3991380973
20
45.4633228616
30
0
10
56.3398814973
20
45.4267003616
30
0
0
SPLINE
5
22C
100
AcDbEntity
8
mokou
6
ByLayer
62
7
370
-1
100
AcDbSpline
210
0
220
0
230
1
70
8
71
3
72
8
73
4
74
0
42
1e-07
43
1e-07
40
0
40
0
40
0
40
0
40
1
40
1
40
1
40
1
10
56.3398814973
20
45.4267003616
30
0
10
56.2617257973
20
45.3783988616
30
0
10
56.2608122973
20
45.2839108616
30
0
10
56.3345897973
20
44.8710751616
30
0
0
SPLINE
5
22D
100
AcDbEntity
8
mokou
6
ByLayer
62
7
370
-1
100
AcDbSpline
210
0
220
0
230
1
70
8
71
3
72
8
73
4
74
0
42
1e-07
43
1e-07
40
0
40
0
40
0
40
0
40
1
40
1
40
1
40
1
10
56.3345897973
20
44.8710751616
30
0
10
56.3834087973
20
44.5979017616
30
0
10
56.4478940973
20
44.3736586616
30
0
10
56.4801107973
20
44.3736586616
30
0
0
SPLINE
5
22E
100
AcDbEntity
8
mokou
6
ByLayer
62
7
370
-1
100
AcDbSpline
210
0
220
0
230
1
70
8
71
3
72
8
73
4
74
0
42
1e-07
43
1e-07
40
0
40
0
40
0
40
0
40
1
40
1
40
1
40
1
10
56.4801107973
20
44.3736586616
30
0
10
56.5123262973
20
44.3736586616
30
0
10
56.5383191973
20
44.2804735616
30
0
10
56.5383191973
20
44.1672835616
30
0
0
SPLINE
5
22F
100
AcDbEntity
8
mokou
6
ByLayer
62
7
370
-1
100
AcDbSpline
210
0
220
0
230
1
70
8
71
3
72
8
73
4
74
0
42
1e-07
43
1e-07
40
0
40
0
40
0
40
0
40
1
40
1
40
1
40
1
10
56.5383191973
20
44.1672835616
30
0
10
56.5383191973
20
43.6892563616
30
0
10
56.8033070973
20
42.6455254616
30
0
10
56.9642981973
20
42.4845334616
30
0
0
SPLINE
5
230
100
AcDbEntity
8
mokou
6
ByLayer
62
7
370
-1
100
AcDbSpline
210
0
220
0
230
1
70
8
71
3
72
8
73
4
74
0
42
1e-07
43
1e-07
40
0
40
0
40
0
40
0
40
1
40
1
40
1
40
1
10
56.9642981973
20
42.4845334616
30
0
10
57.0301874973
20
42.4186441616
30
0
10
57.1048523973
20
42.2674966616
30
0
10
57.1309856973
20
42.1485127616
30
0
0
SPLINE
5
231
100
AcDbEntity
8
mokou
6
ByLayer
62
7
370
-1
100
AcDbSpline
210
0
220
0
230
1
70
8
71
3
72
8
73
4
74
0
42
1e-07
43
1e-07
40
0
40
0
40
0
40
0
40
1
40
1
40
1
40
1
10
57.1309856973
20
42.1485127616
30
0
10
57.1571189973
20
42.0295297616
30
0
10
57.2067995973
20
41.9342002616
30
0
10
57.2421107973
20
41.9342002616
30
0
0
SPLINE
5
232
100
AcDbEntity
8
mokou
6
ByLayer
62
7
370
-1
100
AcDbSpline
210
0
220
0
230
1
70
8
71
3
72
8
73
4
74
0
42
1e-07
43
1e-07
40
0
40
0
40
0
40
0
40
1
40
1
40
1
40
1
10
57.2421107973
20
41.9342002616
30
0
10
57.2774225973
20
41.9342002616
30
0
10
57.3078332973
20
41.6890885616
30
0
10
57.3082565973
20
41.3918044616
30
0
0
SPLINE
5
233
100
AcDbEntity
8
mokou
6
ByLayer
62
7
370
-1
100
AcDbSpline
210
0
220
0
230
1
70
8
71
3
72
8
73
4
74
0
42
1e-07
43
1e-07
40
0
40
0
40
0
40
0
40
1
40
1
40
1
40
1
10
57.3082565973
20
41.3918044616
30
0
10
57.3091388973
20
40.8156070616
30
0
10
57.4552421973
20
40.1315851616
30
0
10
57.6019439973
20
40.0159711616
30
0
0
SPLINE
5
234
100
AcDbEntity
8
mokou
6
ByLayer
62
7
370
-1
100
AcDbSpline
210
0
220
0
230
1
70
8
71
3
72
8
73
4
74
0
42
1e-07
43
1e-07
40
0
40
0
40
0
40
0
40
1
40
1
40
1
40
1
10
57.6019439973
20
40.0159711616
30
0
10
57.6508922973
20
39.9773959616
30
0
10
57.7317668973
20
39.8684530616
30
0
10
57.7818605973
20
39.7725544616
30
0
0
SPLINE
5
235
100
AcDbEntity
8
mokou
6
ByLayer
62
7
370
-1
100
AcDbSpline
210
0
220
0
230
1
70
8
71
3
72
8
73
4
74
0
42
1e-07
43
1e-07
40
0
40
0
40
0
40
0
40
1
40
1
40
1
40
1
10
57.7818605973
20
39.7725544616
30
0
10
57.9528941973
20
39.4451290616
30
0
10
58.1132825973
20
39.3016687616
30
0
10
58.4909441973
20
39.1402003616
30
0
0
SPLINE
5
236
100
AcDbEntity
8
mokou
6
ByLayer
62
7
370
-1
100
AcDbSpline
210
0
220
0
230
1
70
8
71
3
72
8
73
4
74
0
42
1e-07
43
1e-07
40
0
40
0
40
0
40
0
40
1
40
1
40
1
40
1
10
58.4909441973
20
39.1402003616
30
0
10
58.5860609973
20
39.0995332616
30
0
10
58.6842329973
20
39.0329776616
30
0
10
58.7079023973
20
38.9946793616
30
0
0
SPLINE
5
237
100
AcDbEntity
8
mokou
6
ByLayer
62
7
370
-1
100
AcDbSpline
210
0
220
0
230
1
70
8
71
3
72
8
73
4
74
0
42
1e-07
43
1e-07
40
0
40
0
40
0
40
0
40
1
40
1
40
1
40
1
10
58.7079023973
20
38.9946793616
30
0
10
58.7315717973
20
38.9563813616
30
0
10
58.9034612973
20
38.8991881616
30
0
10
59.0915480973
20
38.8676794616
30
0
0
SPLINE
5
238
100
AcDbEntity
8
mokou
6
ByLayer
62
7
370
-1
100
AcDbSpline
210
0
220
0
230
1
70
8
71
3
72
8
73
4
74
0
42
1e-07
43
1e-07
40
0
40
0
40
0
40
0
40
1
40
1
40
1
40
1
10
59.0915480973
20
38.8676794616
30
0
10
59.2796351973
20
38.8361698616
30
0
10
59.4369290973
20
38.8086922616
30
0
10
59.4407981973
20
38.8041793616
30
0
0
SPLINE
5
239
100
AcDbEntity
8
mokou
6
ByLayer
62
7
370
-1
100
AcDbSpline
210
0
220
0
230
1
70
8
71
3
72
8
73
4
74
0
42
1e-07
43
1e-07
40
0
40
0
40
0
40
0
40
1
40
1
40
1
40
1
10
59.4407981973
20
38.8041793616
30
0
10
59.4855149973
20
38.7519901616
30
0
10
59.8925726973
20
38.9776198616
30
0
10
59.9223398973
20
39.0714085616
30
0
0
SPLINE
5
23A
100
AcDbEntity
8
mokou
6
ByLayer
62
7
370
-1
100
AcDbSpline
210
0
220
0
230
1
70
8
71
3
72
8
73
4
74
0
42
1e-07
43
1e-07
40
0
40
0
40
0
40
0
40
1
40
1
40
1
40
1
10
59.9223398973
20
39.0714085616
30
0
10
59.9625776973
20
39.1981843616
30
0
10
60.2932307973
20
39.3171325616
30
0
10
60.5494022973
20
39.2963044616
30
0
0
SPLINE
5
23B
100
AcDbEntity
8
mokou
6
ByLayer
62
7
370
-1
100
AcDbSpline
210
0
220
0
230
1
70
8
71
3
72
8
73
4
74
0
42
1e-07
43
1e-07
40
0
40
0
40
0
40
0
40
1
40
1
40
1
40
1
10
60.5494022973
20
39.2963044616
30
0
10
60.7891460973
20
39.2768125616
30
0
10
61.4547287973
20
39.0562963616
30
0
10
61.5151316973
20
38.9761585616
30
0
0
SPLINE
5
23C
100
AcDbEntity
8
mokou
6
ByLayer
62
7
370
-1
100
AcDbSpline
210
0
220
0
230
1
70
8
71
3
72
8
73
4
74
0
42
1e-07
43
1e-07
40
0
40
0
40
0
40
0
40
1
40
1
40
1
40
1
10
61.5151316973
20
38.9761585616
30
0
10
61.5559925973
20
38.9219464616
30
0
10
61.5826490973
20
38.9249158616
30
0
10
61.6077356973
20
38.9867419616
30
0
0
SPLINE
5
23D
100
AcDbEntity
8
mokou
6
ByLayer
62
7
370
-1
100
AcDbSpline
210
0
220
0
230
1
70
8
71
3
72
8
73
4
74
0
42
1e-07
43
1e-07
40
0
40
0
40
0
40
0
40
1
40
1
40
1
40
1
10
61.6077356973
20
38.9867419616
30
0
10
61.6271921973
20
39.0346912616
30
0
10
61.6946156973
20
39.0754894616
30
0
10
61.7585480973
20
39.0767002616
30
0
0
SPLINE
5
23E
100
AcDbEntity
8
mokou
6
ByLayer
62
7
370
-1
100
AcDbSpline
210
0
220
0
230
1
70
8
71
3
72
8
73
4
74
0
42
1e-07
43
1e-07
40
0
40
0
40
0
40
0
40
1
40
1
40
1
40
1
10
61.7585480973
20
39.0767002616
30
0
10
61.9168367973
20
39.0797017616
30
0
10
62.2045949973
20
39.3436795616
30
0
10
62.3670899973
20
39.6349711616
30
0
0
SPLINE
5
23F
100
AcDbEntity
8
mokou
6
ByLayer
62
7
370
-1
100
AcDbSpline
210
0
220
0
230
1
70
8
71
3
72
8
73
4
74
0
42
1e-07
43
1e-07
40
0
40
0
40
0
40
0
40
1
40
1
40
1
40
1
10
62.3670899973
20
39.6349711616
30
0
10
62.4408371973
20
39.7671721616
30
0
10
62.5201070973
20
39.8909581616
30
0
10
62.5417148973
20
39.9101377616
30
0
0
SPLINE
5
240
100
AcDbEntity
8
mokou
6
ByLayer
62
7
370
-1
100
AcDbSpline
210
0
220
0
230
1
70
8
71
3
72
8
73
4
74
0
42
1e-07
43
1e-07
40
0
40
0
40
0
40
0
40
1
40
1
40
1
40
1
10
62.5417148973
20
39.9101377616
30
0
10
62.5633235973
20
39.9293173616
30
0
10
62.6544026973
20
40.1502811616
30
0
10
62.7454439973
20
40.3996168616
30
0
0
SPLINE
5
241
100
AcDbEntity
8
mokou
6
ByLayer
62
7
370
-1
100
AcDbSpline
210
0
220
0
230
1
70
8
71
3
72
8
73
4
74
0
42
1e-07
43
1e-07
40
0
40
0
40
0
40
0
40
1
40
1
40
1
40
1
10
62.7454439973
20
40.3996168616
30
0
10
62.8364852973
20
40.6489525616
30
0
10
62.9301749973
20
40.8672706616
30
0
10
62.9518190973
20
40.8864502616
30
0
0
SPLINE
5
242
100
AcDbEntity
8
mokou
6
ByLayer
62
7
370
-1
100
AcDbSpline
210
0
220
0
230
1
70
8
71
3
72
8
73
4
74
0
42
1e-07
43
1e-07
40
0
40
0
40
0
40
0
40
1
40
1
40
1
40
1
10
62.9518190973
20
40.8864502616
30
0
10
62.9734622973
20
40.9056298616
30
0
10
63.0676016973
20
41.0782990616
30
0
10
63.1608398973
20
41.2700959616
30
0
0
SPLINE
5
243
100
AcDbEntity
8
mokou
6
ByLayer
62
7
370
-1
100
AcDbSpline
210
0
220
0
230
1
70
8
71
3
72
8
73
4
74
0
42
1e-07
43
1e-07
40
0
40
0
40
0
40
0
40
1
40
1
40
1
40
1
10
63.1608398973
20
41.2700959616
30
0
10
63.2540780973
20
41.4618922616
30
0
10
63.3675425973
20
41.6497777616
30
0
10
63.4121939973
20
41.6881378616
30
0
0
SPLINE
5
244
100
AcDbEntity
8
mokou
6
ByLayer
62
7
370
-1
100
AcDbSpline
210
0
220
0
230
1
70
8
71
3
72
8
73
4
74
0
42
1e-07
43
1e-07
40
0
40
0
40
0
40
0
40
1
40
1
40
1
40
1
10
63.4121939973
20
41.6881378616
30
0
10
63.4568456973
20
41.7264967616
30
0
10
63.5351267973
20
41.8687342616
30
0
10
63.5868191973
20
42.0029920616
30
0
0
SPLINE
5
245
100
AcDbEntity
8
mokou
6
ByLayer
62
7
370
-1
100
AcDbSpline
210
0
220
0
230
1
70
8
71
3
72
8
73
4
74
0
42
1e-07
43
1e-07
40
0
40
0
40
0
40
0
40
1
40
1
40
1
40
1
10
63.5868191973
20
42.0029920616
30
0
10
63.6385121973
20
42.1372495616
30
0
10
63.7011554973
20
42.2616247616
30
0
10
63.7270481973
20
42.2808043616
30
0
0
SPLINE
5
246
100
AcDbEntity
8
mokou
6
ByLayer
62
7
370
-1
100
AcDbSpline
210
0
220
0
230
1
70
8
71
3
72
8
73
4
74
0
42
1e-07
43
1e-07
40
0
40
0
40
0
40
0
40
1
40
1
40
1
40
1
10
63.7270481973
20
42.2808043616
30
0
10
63.8118800973
20
42.3436414616
30
0
10
64.0710065973
20
42.9319834616
30
0
10
64.0710065973
20
43.0613251616
30
0
0
SPLINE
5
247
100
AcDbEntity
8
mokou
6
ByLayer
62
7
370
-1
100
AcDbSpline
210
0
220
0
230
1
70
8
71
3
72
8
73
4
74
0
42
1e-07
43
1e-07
40
0
40
0
40
0
40
0
40
1
40
1
40
1
40
1
10
64.0710065973
20
43.0613251616
30
0
10
64.0710065973
20
43.1308390616
30
0
10
64.1040848973
20
43.1883253616
30
0
10
64.1424440973
20
43.1883253616
30
0
0
SPLINE
5
248
100
AcDbEntity
8
mokou
6
ByLayer
62
7
370
-1
100
AcDbSpline
210
0
220
0
230
1
70
8
71
3
72
8
73
4
74
0
42
1e-07
43
1e-07
40
0
40
0
40
0
40
0
40
1
40
1
40
1
40
1
10
64.1424440973
20
43.1883253616
30
0
10
64.1842904973
20
43.1883253616
30
0
10
64.2112355973
20
43.4683603616
30
0
10
64.2112355973
20
43.8868252616
30
0
0
SPLINE
5
249
100
AcDbEntity
8
mokou
6
ByLayer
62
7
370
-1
100
AcDbSpline
210
0
220
0
230
1
70
8
71
3
72
8
73
4
74
0
42
1e-07
43
1e-07
40
0
40
0
40
0
40
0
40
1
40
1
40
1
40
1
10
64.2112355973
20
43.8868252616
30
0
10
64.2112355973
20
44.2704184616
30
0
10
64.1843852973
20
44.5826794616
30
0
10
64.1503814973
20
44.5826794616
30
0
0
SPLINE
5
24A
100
AcDbEntity
8
mokou
6
ByLayer
62
7
370
-1
100
AcDbSpline
210
0
220
0
230
1
70
8
71
3
72
8
73
4
74
0
42
1e-07
43
1e-07
40
0
40
0
40
0
40
0
40
1
40
1
40
1
40
1
10
64.1503814973
20
44.5826794616
30
0
10
64.1163776973
20
44.5826794616
30
0
10
64.0671329973
20
44.7338482616
30
0
10
64.0419023973
20
44.9160544616
30
0
0
SPLINE
5
24B
100
AcDbEntity
8
mokou
6
ByLayer
62
7
370
-1
100
AcDbSpline
210
0
220
0
230
1
70
8
71
3
72
8
73
4
74
0
42
1e-07
43
1e-07
40
0
40
0
40
0
40
0
40
1
40
1
40
1
40
1
10
64.0419023973
20
44.9160544616
30
0
10
63.9820109973
20
45.3485665616
30
0
10
63.7855730973
20
45.9904837616
30
0
10
63.6820691973
20
46.0960960616
30
0
0
SPLINE
5
24C
100
AcDbEntity
8
mokou
6
ByLayer
62
7
370
-1
100
AcDbSpline
210
0
220
0
230
1
70
8
71
3
72
8
73
4
74
0
42
1e-07
43
1e-07
40
0
40
0
40
0
40
0
40
1
40
1
40
1
40
1
10
63.6820691973
20
46.0960960616
30
0
10
63.6371549973
20
46.1419252616
30
0
10
63.5590373973
20
46.3235260616
30
0
10
63.5074439973
20
46.4982628616
30
0
0
SPLINE
5
24D
100
AcDbEntity
8
mokou
6
ByLayer
62
7
370
-1
100
AcDbSpline
210
0
220
0
230
1
70
8
71
3
72
8
73
4
74
0
42
1e-07
43
1e-07
40
0
40
0
40
0
40
0
40
1
40
1
40
1
40
1
10
63.5074439973
20
46.4982628616
30
0
10
63.4558499973
20
46.6729996616
30
0
10
63.3892619973
20
46.8157627616
30
0
10
63.3592772973
20
46.8157627616
30
0
0
SPLINE
5
24E
100
AcDbEntity
8
mokou
6
ByLayer
62
7
370
-1
100
AcDbSpline
210
0
220
0
230
1
70
8
71
3
72
8
73
4
74
0
42
1e-07
43
1e-07
40
0
40
0
40
0
40
0
40
1
40
1
40
1
40
1
10
63.3592772973
20
46.8157627616
30
0
10
63.3292925973
20
46.8157627616
30
0
10
63.3036089973
20
46.9338532616
30
0
10
63.3010691973
20
47.0777002616
30
0
0
SPLINE
5
24F
100
AcDbEntity
8
mokou
6
ByLayer
62
7
370
-1
100
AcDbSpline
210
0
220
0
230
1
70
8
71
3
72
8
73
4
74
0
42
1e-07
43
1e-07
40
0
40
0
40
0
40
0
40
1
40
1
40
1
40
1
10
63.3010691973
20
47.0777002616
30
0
10
63.2951813973
20
47.4115003616
30
0
10
63.1040921973
20
47.9832694616
30
0
10
62.9121314973
20
48.2445127616
30
0
0
SPLINE
5
250
100
AcDbEntity
8
mokou
6
ByLayer
62
7
370
-1
100
AcDbSpline
210
0
220
0
230
1
70
8
71
3
72
8
73
4
74
0
42
1e-07
43
1e-07
40
0
40
0
40
0
40
0
40
1
40
1
40
1
40
1
10
62.9121314973
20
48.2445127616
30
0
10
62.7836048973
20
48.4194274616
30
0
10
62.7210719973
20
48.4446748616
30
0
10
62.4676316973
20
48.4297210616
30
0
0
SPLINE
5
251
100
AcDbEntity
8
mokou
6
ByLayer
62
7
370
-1
100
AcDbSpline
210
0
220
0
230
1
70
8
71
3
72
8
73
4
74
0
42
1e-07
43
1e-07
40
0
40
0
40
0
40
0
40
1
40
1
40
1
40
1
10
62.4676316973
20
48.4297210616
30
0
10
61.9708370973
20
48.4004077616
30
0
10
61.7277107973
20
48.5250643616
30
0
10
61.5468815973
20
48.8953876616
30
0
0
SPLINE
5
252
100
AcDbEntity
8
mokou
6
ByLayer
62
7
370
-1
100
AcDbSpline
210
0
220
0
230
1
70
8
71
3
72
8
73
4
74
0
42
1e-07
43
1e-07
40
0
40
0
40
0
40
0
40
1
40
1
40
1
40
1
10
61.5468815973
20
48.8953876616
30
0
10
61.4591303973
20
49.0750951616
30
0
10
61.3522778973
20
49.2565849616
30
0
10
61.3114022973
20
49.3002001616
30
0
0
SPLINE
5
253
100
AcDbEntity
8
mokou
6
ByLayer
62
7
370
-1
100
AcDbSpline
210
0
220
0
230
1
70
8
71
3
72
8
73
4
74
0
42
1e-07
43
1e-07
40
0
40
0
40
0
40
0
40
1
40
1
40
1
40
1
10
61.3114022973
20
49.3002001616
30
0
10
61.2705269973
20
49.3438153616
30
0
10
61.1981903973
20
49.5558487616
30
0
10
61.1500064973
20
49.7711584616
30
0
0
SPLINE
5
254
100
AcDbEntity
8
mokou
6
ByLayer
62
7
370
-1
100
AcDbSpline
210
0
220
0
230
1
70
8
71
3
72
8
73
4
74
0
42
1e-07
43
1e-07
40
0
40
0
40
0
40
0
40
1
40
1
40
1
40
1
10
61.1500064973
20
49.7711584616
30
0
10
61.1018219973
20
49.9864693616
30
0
10
61.0383836973
20
50.1627418616
30
0
10
61.0071314973
20
50.1627418616
30
0
0
SPLINE
5
255
100
AcDbEntity
8
mokou
6
ByLayer
62
7
370
-1
100
AcDbSpline
210
0
220
0
230
1
70
8
71
3
72
8
73
4
74
0
42
1e-07
43
1e-07
40
0
40
0
40
0
40
0
40
1
40
1
40
1
40
1
10
61.0071314973
20
50.1627418616
30
0
10
60.9758786973
20
50.1627418616
30
0
10
60.9257777973
20
50.3112649616
30
0
10
60.8986523973
20
50.4934711616
30
0
0
SPLINE
5
256
100
AcDbEntity
8
mokou
6
ByLayer
62
7
370
-1
100
AcDbSpline
210
0
220
0
230
1
70
8
71
3
72
8
73
4
74
0
42
1e-07
43
1e-07
40
0
40
0
40
0
40
0
40
1
40
1
40
1
40
1
10
60.8986523973
20
50.4934711616
30
0
10
60.8715275973
20
50.6756779616
30
0
10
60.8249450973
20
50.8572778616
30
0
10
60.7954649973
20
50.8956376616
30
0
0
SPLINE
5
257
100
AcDbEntity
8
mokou
6
ByLayer
62
7
370
-1
100
AcDbSpline
210
0
220
0
230
1
70
8
71
3
72
8
73
4
74
0
42
1e-07
43
1e-07
40
0
40
0
40
0
40
0
40
1
40
1
40
1
40
1
10
60.7954649973
20
50.8956376616
30
0
10
60.7659848973
20
50.9339968616
30
0
10
60.7229165973
20
51.0514996616
30
0
10
60.6975689973
20
51.1575751616
30
0
0
SPLINE
5
258
100
AcDbEntity
8
mokou
6
ByLayer
62
7
370
-1
100
AcDbSpline
210
0
220
0
230
1
70
8
71
3
72
8
73
4
74
0
42
1e-07
43
1e-07
40
0
40
0
40
0
40
0
40
1
40
1
40
1
40
1
10
60.6975689973
20
51.1575751616
30
0
10
60.6317279973
20
51.4331152616
30
0
10
60.4426106973
20
51.6285334616
30
0
10
60.2398397973
20
51.6285334616
30
0
0
SPLINE
5
259
100
AcDbEntity
8
mokou
6
ByLayer
62
7
370
-1
100
AcDbSpline
210
0
220
0
230
1
70
8
71
3
72
8
73
4
74
0
42
1e-07
43
1e-07
40
0
40
0
40
0
40
0
40
1
40
1
40
1
40
1
10
60.2398397973
20
51.6285334616
30
0
10
60.1240472973
20
51.6285334616
30
0
10
59.9749247973
20
51.7236091616
30
0
10
59.8006316973
20
51.9142834616
30
0
0
SPLINE
5
25A
100
AcDbEntity
8
mokou
6
ByLayer
62
7
370
-1
100
AcDbSpline
210
0
220
0
230
1
70
8
71
3
72
8
73
4
74
0
42
1e-07
43
1e-07
40
0
40
0
40
0
40
0
40
1
40
1
40
1
40
1
10
59.8006316973
20
51.9142834616
30
0
10
59.6559446973
20
52.0725679616
30
0
10
59.5386941973
20
52.2300217616
30
0
10
59.5386941973
20
52.2635335616
30
0
0
SPLINE
5
25B
100
AcDbEntity
8
mokou
6
ByLayer
62
7
370
-1
100
AcDbSpline
210
0
220
0
230
1
70
8
71
3
72
8
73
4
74
0
42
1e-07
43
1e-07
40
0
40
0
40
0
40
0
40
1
40
1
40
1
40
1
10
59.5386941973
20
52.2635335616
30
0
10
59.5386941973
20
52.2970447616
30
0
10
59.4759230973
20
52.3243876616
30
0
10
59.4011105973
20
52.3243876616
30
0
0
SPLINE
5
25C
100
AcDbEntity
8
mokou
6
ByLayer
62
7
370
-1
100
AcDbSpline
210
0
220
0
230
1
70
8
71
3
72
8
73
4
74
0
42
1e-07
43
1e-07
40
0
40
0
40
0
40
0
40
1
40
1
40
1
40
1
10
59.4011105973
20
52.3243876616
30
0
10
59.3262983973
20
52.3243876616
30
0
10
59.2352909973
20
52.3789672616
30
0
10
59.1973814973
20
52.4460961616
30
0
0
SPLINE
5
25D
100
AcDbEntity
8
mokou
6
ByLayer
62
7
370
-1
100
AcDbSpline
210
0
220
0
230
1
70
8
71
3
72
8
73
4
74
0
42
1e-07
43
1e-07
40
0
40
0
40
0
40
0
40
1
40
1
40
1
40
1
10
59.1973814973
20
52.4460961616
30
0
10
59.1752201973
20
52.4853391616
30
0
10
59.1577388973
20
52.5081685616
30
0
10
59.1391730973
20
52.5069502616
30
0
0
LWPOLYLINE
5
25E
100
AcDbEntity
8
mokou
6
ByLayer
62
7
370
-1
100
AcDbPolyline
90
2
70
0
43
0
10
23.3595689973
20
54.3934294616
10
23.3595689973
20
54.3934294616
0
SPLINE
5
25F
100
AcDbEntity
8
mokou
6
ByLayer
62
7
370
-1
100
AcDbSpline
210
0
220
0
230
1
70
8
71
3
72
8
73
4
74
0
42
1e-07
43
1e-07
40
0
40
0
40
0
40
0
40
1
40
1
40
1
40
1
10
61.1605898973
20
36.1345336616
30
0
10
61.3070141973
20
36.1289998616
30
0
10
61.3201358973
20
36.0347887616
30
0
10
61.1817566973
20
35.8964086616
30
0
0
SPLINE
5
260
100
AcDbEntity
8
mokou
6
ByLayer
62
7
370
-1
100
AcDbSpline
210
0
220
0
230
1
70
8
71
3
72
8
73
4
74
0
42
1e-07
43
1e-07
40
0
40
0
40
0
40
0
40
1
40
1
40
1
40
1
10
61.1817566973
20
35.8964086616
30
0
10
61.0235906973
20
35.7382435616
30
0
10
60.8488640973
20
35.7690766616
30
0
10
60.8748398973
20
35.9519710616
30
0
0
SPLINE
5
261
100
AcDbEntity
8
mokou
6
ByLayer
62
7
370
-1
100
AcDbSpline
210
0
220
0
230
1
70
8
71
3
72
8
73
4
74
0
42
1e-07
43
1e-07
40
0
40
0
40
0
40
0
40
1
40
1
40
1
40
1
10
60.8748398973
20
35.9519710616
30
0
10
60.8907968973
20
36.0643297616
30
0
10
60.9518255973
20
36.1160863616
30
0
10
61.0891523973
20
36.1318876616
30
0
0
SPLINE
5
262
100
AcDbEntity
8
mokou
6
ByLayer
62
7
370
-1
100
AcDbSpline
210
0
220
0
230
1
70
8
71
3
72
8
73
4
74
0
42
1e-07
43
1e-07
40
0
40
0
40
0
40
0
40
1
40
1
40
1
40
1
10
61.0891523973
20
36.1318876616
30
0
10
61.1154515973
20
36.1349137616
30
0
10
61.1396720973
20
36.1353244616
30
0
10
61.1605898973
20
36.1345336616
30
0
0
LWPOLYLINE
5
263
100
AcDbEntity
8
mokou
6
ByLayer
62
7
370
-1
100
AcDbPolyline
90
2
70
0
43
0
10
59.1391730973
20
52.5069502616
10
59.1391730973
20
52.5069502616
0
SPLINE
5
264
100
AcDbEntity
8
mokou
6
ByLayer
62
7
370
-1
100
AcDbSpline
210
0
220
0
230
1
70
8
71
3
72
8
73
4
74
0
42
1e-07
43
1e-07
40
0
40
0
40
0
40
0
40
1
40
1
40
1
40
1
10
45.9496940973
20
34.7507626616
30
0
10
45.9808004973
20
34.7507626616
30
0
10
46.0261658973
20
34.6720354616
30
0
10
46.0502357973
20
34.5761377616
30
0
0
SPLINE
5
265
100
AcDbEntity
8
mokou
6
ByLayer
62
7
370
-1
100
AcDbSpline
210
0
220
0
230
1
70
8
71
3
72
8
73
4
74
0
42
1e-07
43
1e-07
40
0
40
0
40
0
40
0
40
1
40
1
40
1
40
1
10
46.0502357973
20
34.5761377616
30
0
10
46.0743038973
20
34.4802391616
30
0
10
46.1146940973
20
34.4015128616
30
0
10
46.1401940973
20
34.4015128616
30
0
0
SPLINE
5
266
100
AcDbEntity
8
mokou
6
ByLayer
62
7
370
-1
100
AcDbSpline
210
0
220
0
230
1
70
8
71
3
72
8
73
4
74
0
42
1e-07
43
1e-07
40
0
40
0
40
0
40
0
40
1
40
1
40
1
40
1
10
46.1401940973
20
34.4015128616
30
0
10
46.1656931973
20
34.4015128616
30
0
10
46.2611453973
20
34.1742640616
30
0
10
46.3545065973
20
33.8961586616
30
0
0
SPLINE
5
267
100
AcDbEntity
8
mokou
6
ByLayer
62
7
370
-1
100
AcDbSpline
210
0
220
0
230
1
70
8
71
3
72
8
73
4
74
0
42
1e-07
43
1e-07
40
0
40
0
40
0
40
0
40
1
40
1
40
1
40
1
10
46.3545065973
20
33.8961586616
30
0
10
46.4478668973
20
33.6180538616
30
0
10
46.5547913973
20
33.3702211616
30
0
10
46.5899855973
20
33.3458251616
30
0
0
SPLINE
5
268
100
AcDbEntity
8
mokou
6
ByLayer
62
7
370
-1
100
AcDbSpline
210
0
220
0
230
1
70
8
71
3
72
8
73
4
74
0
42
1e-07
43
1e-07
40
0
40
0
40
0
40
0
40
1
40
1
40
1
40
1
10
46.5899855973
20
33.3458251616
30
0
10
46.6251800973
20
33.3214303616
30
0
10
46.7115458973
20
33.1337056616
30
0
10
46.7831315973
20
32.9304295616
30
0
0
SPLINE
5
269
100
AcDbEntity
8
mokou
6
ByLayer
62
7
370
-1
100
AcDbSpline
210
0
220
0
230
1
70
8
71
3
72
8
73
4
74
0
42
1e-07
43
1e-07
40
0
40
0
40
0
40
0
40
1
40
1
40
1
40
1
10
46.7831315973
20
32.9304295616
30
0
10
46.8547187973
20
32.7271531616
30
0
10
46.9376762973
20
32.5446337616
30
0
10
46.9683398973
20
32.5229710616
30
0
0
SPLINE
5
26A
100
AcDbEntity
8
mokou
6
ByLayer
62
7
370
-1
100
AcDbSpline
210
0
220
0
230
1
70
8
71
3
72
8
73
4
74
0
42
1e-07
43
1e-07
40
0
40
0
40
0
40
0
40
1
40
1
40
1
40
1
10
46.9683398973
20
32.5229710616
30
0
10
47.0415020973
20
32.4712819616
30
0
10
47.1952703973
20
31.9511983616
30
0
10
47.1561941973
20
31.8879709616
30
0
0
SPLINE
5
26B
100
AcDbEntity
8
mokou
6
ByLayer
62
7
370
-1
100
AcDbSpline
210
0
220
0
230
1
70
8
71
3
72
8
73
4
74
0
42
1e-07
43
1e-07
40
0
40
0
40
0
40
0
40
1
40
1
40
1
40
1
10
47.1561941973
20
31.8879709616
30
0
10
47.1395207973
20
31.8609928616
30
0
10
46.9374152973
20
31.8162118616
30
0
10
46.7064023973
20
31.7900752616
30
0
0
SPLINE
5
26C
100
AcDbEntity
8
mokou
6
ByLayer
62
7
370
-1
100
AcDbSpline
210
0
220
0
230
1
70
8
71
3
72
8
73
4
74
0
42
1e-07
43
1e-07
40
0
40
0
40
0
40
0
40
1
40
1
40
1
40
1
10
46.7064023973
20
31.7900752616
30
0
10
46.4753876973
20
31.7639386616
30
0
10
46.2857147973
20
31.7194006616
30
0
10
46.2857147973
20
31.6895335616
30
0
0
SPLINE
5
26D
100
AcDbEntity
8
mokou
6
ByLayer
62
7
370
-1
100
AcDbSpline
210
0
220
0
230
1
70
8
71
3
72
8
73
4
74
0
42
1e-07
43
1e-07
40
0
40
0
40
0
40
0
40
1
40
1
40
1
40
1
10
46.2857147973
20
31.6895335616
30
0
10
46.2857147973
20
31.6596673616
30
0
10
46.1285414973
20
31.5995431616
30
0
10
45.9338189973
20
31.5545959616
30
0
0
SPLINE
5
26E
100
AcDbEntity
8
mokou
6
ByLayer
62
7
370
-1
100
AcDbSpline
210
0
220
0
230
1
70
8
71
3
72
8
73
4
74
0
42
1e-07
43
1e-07
40
0
40
0
40
0
40
0
40
1
40
1
40
1
40
1
10
45.9338189973
20
31.5545959616
30
0
10
45.4679771973
20
31.4470669616
30
0
10
45.4547444973
20
31.4469211616
30
0
10
45.3914231973
20
31.6180960616
30
0
0
SPLINE
5
26F
100
AcDbEntity
8
mokou
6
ByLayer
62
7
370
-1
100
AcDbSpline
210
0
220
0
230
1
70
8
71
3
72
8
73
4
74
0
42
1e-07
43
1e-07
40
0
40
0
40
0
40
0
40
1
40
1
40
1
40
1
10
45.3914231973
20
31.6180960616
30
0
10
45.3346481973
20
31.7715712616
30
0
10
45.4376825973
20
32.5973668616
30
0
10
45.5210690973
20
32.6579086616
30
0
0
SPLINE
5
270
100
AcDbEntity
8
mokou
6
ByLayer
62
7
370
-1
100
AcDbSpline
210
0
220
0
230
1
70
8
71
3
72
8
73
4
74
0
42
1e-07
43
1e-07
40
0
40
0
40
0
40
0
40
1
40
1
40
1
40
1
10
45.5210690973
20
32.6579086616
30
0
10
45.5474858973
20
32.6770882616
30
0
10
45.5882030973
20
32.8801900616
30
0
10
45.6136730973
20
33.1103461616
30
0
0
SPLINE
5
271
100
AcDbEntity
8
mokou
6
ByLayer
62
7
370
-1
100
AcDbSpline
210
0
220
0
230
1
70
8
71
3
72
8
73
4
74
0
42
1e-07
43
1e-07
40
0
40
0
40
0
40
0
40
1
40
1
40
1
40
1
10
45.6136730973
20
33.1103461616
30
0
10
45.6871967973
20
33.7747279616
30
0
10
45.8878034973
20
34.7507626616
30
0
10
45.9496940973
20
34.7507626616
30
0
0
LWPOLYLINE
5
272
100
AcDbEntity
8
mokou
6
ByLayer
62
7
370
-1
100
AcDbPolyline
90
2
70
0
43
0
10
61.1605898973
20
36.1345336616
10
61.1605898973
20
36.1345336616
0
SPLINE
5
273
100
AcDbEntity
8
mokou
6
ByLayer
62
7
370
-1
100
AcDbSpline
210
0
220
0
230
1
70
8
71
3
72
8
73
4
74
0
42
1e-07
43
1e-07
40
0
40
0
40
0
40
0
40
1
40
1
40
1
40
1
10
29.5428815973
20
32.0308459616
30
0
10
29.6365991973
20
32.0308459616
30
0
10
29.6813918973
20
31.9270702616
30
0
10
29.7466106973
20
31.5731170616
30
0
0
SPLINE
5
274
100
AcDbEntity
8
mokou
6
ByLayer
62
7
370
-1
100
AcDbSpline
210
0
220
0
230
1
70
8
71
3
72
8
73
4
74
0
42
1e-07
43
1e-07
40
0
40
0
40
0
40
0
40
1
40
1
40
1
40
1
10
29.7466106973
20
31.5731170616
30
0
10
29.7928514973
20
31.3221454616
30
0
10
29.8142864973
20
31.0859659616
30
0
10
29.7915899973
20
31.0492420616
30
0
0
SPLINE
5
275
100
AcDbEntity
8
mokou
6
ByLayer
62
7
370
-1
100
AcDbSpline
210
0
220
0
230
1
70
8
71
3
72
8
73
4
74
0
42
1e-07
43
1e-07
40
0
40
0
40
0
40
0
40
1
40
1
40
1
40
1
10
29.7915899973
20
31.0492420616
30
0
10
29.7688925973
20
31.0125178616
30
0
10
29.7224459973
20
30.9830959616
30
0
10
29.6910482973
20
30.9830959616
30
0
0
SPLINE
5
276
100
AcDbEntity
8
mokou
6
ByLayer
62
7
370
-1
100
AcDbSpline
210
0
220
0
230
1
70
8
71
3
72
8
73
4
74
0
42
1e-07
43
1e-07
40
0
40
0
40
0
40
0
40
1
40
1
40
1
40
1
10
29.6910482973
20
30.9830959616
30
0
10
29.5678997973
20
30.9830959616
30
0
10
29.4967889973
20
31.1769970616
30
0
10
29.4608606973
20
31.5942835616
30
0
0
SPLINE
5
277
100
AcDbEntity
8
mokou
6
ByLayer
62
7
370
-1
100
AcDbSpline
210
0
220
0
230
1
70
8
71
3
72
8
73
4
74
0
42
1e-07
43
1e-07
40
0
40
0
40
0
40
0
40
1
40
1
40
1
40
1
10
29.4608606973
20
31.5942835616
30
0
10
29.4280217973
20
31.9756807616
30
0
10
29.4371693973
20
32.0308459616
30
0
10
29.5428815973
20
32.0308459616
30
0
0
LWPOLYLINE
5
278
100
AcDbEntity
8
mokou
6
ByLayer
62
7
370
-1
100
AcDbPolyline
90
2
70
0
43
0
10
45.9496940973
20
34.7507626616
10
45.9496940973
20
34.7507626616
0
LWPOLYLINE
5
279
100
AcDbEntity
8
mokou
6
ByLayer
62
7
370
-1
100
AcDbPolyline
90
2
70
0
43
0
10
29.5428815973
20
32.0308459616
10
29.5428815973
20
32.0308459616
0
ENDSEC
0
SECTION
2
OBJECTS
0
DICTIONARY
5
C
330
0
100
AcDbDictionary
281
1
3
ACAD_GROUP
350
D
0
DICTIONARY
5
D
330
C
100
AcDbDictionary
281
1
0
ENDSEC
0
EOF
