  0
SECTION
  2
HEADER
  9
$ACADVER
  1
AC1014
  9
$HANDSEED
  5
FFFF
  9
$MEASUREMENT
 70
     1
  0
ENDSEC
  0
SECTION
  2
TABLES
  0
TABLE
  2
VPORT
  5
8
330
0
100
AcDbSymbolTable
 70
     4
  0
VPORT
  5
2E
330
8
100
AcDbSymbolTableRecord
100
AcDbViewportTableRecord
  2
*ACTIVE
 70
     0
 10
0.0
 20
0.0
 11
1.0
 21
1.0
 12
210.0
 22
148.5
 13
0.0
 23
0.0
 14
10.0
 24
10.0
 15
10.0
 25
10.0
 16
0.0
 26
0.0
 36
1.0
 17
0.0
 27
0.0
 37
0.0
 40
341.0
 41
1.24
 42
50.0
 43
0.0
 44
0.0
 50
0.0
 51
0.0
 71
     0
 72
   100
 73
     1
 74
     3
 75
     0
 76
     0
 77
     0
 78
     0
  0
ENDTAB
  0
TABLE
  2
LTYPE
  5
5
330
0
100
AcDbSymbolTable
 70
     1
  0
LTYPE
  5
14
330
5
100
AcDbSymbolTableRecord
100
AcDbLinetypeTableRecord
  2
BYBLOCK
 70
     0
  3

 72
    65
 73
     0
 40
0.0
  0
LTYPE
  5
15
330
5
100
AcDbSymbolTableRecord
100
AcDbLinetypeTableRecord
  2
BYLAYER
 70
     0
  3

 72
    65
 73
     0
 40
0.0
  0
LTYPE
  5
16
330
5
100
AcDbSymbolTableRecord
100
AcDbLinetypeTableRecord
  2
CONTINUOUS
 70
     0
  3
Solid line
 72
    65
 73
     0
 40
0.0
  0
ENDTAB
  0
TABLE
  2
LAYER
  5
2
100
AcDbSymbolTable
 70
1
  0
LAYER
  5
50
100
AcDbSymbolTableRecord
100
AcDbLayerTableRecord
  2
0
 70
0
  6
CONTINUOUS
  0
ENDTAB
  0
TABLE
  2
STYLE
  5
3
330
0
100
AcDbSymbolTable
 70
     1
  0
STYLE
  5
11
330
3
100
AcDbSymbolTableRecord
100
AcDbTextStyleTableRecord
  2
STANDARD
 70
     0
 40
0.0
 41
1.0
 50
0.0
 71
     0
 42
2.5
  3
txt
  4

  0
ENDTAB
  0
TABLE
  2
VIEW
  5
6
330
0
100
AcDbSymbolTable
 70
     0
  0
ENDTAB
  0
TABLE
  2
UCS
  5
7
330
0
100
AcDbSymbolTable
 70
     0
  0
ENDTAB
  0
TABLE
  2
APPID
  5
9
330
0
100
AcDbSymbolTable
 70
     2
  0
APPID
  5
12
330
9
100
AcDbSymbolTableRecord
100
AcDbRegAppTableRecord
  2
ACAD
 70
     0
  0
ENDTAB
  0
TABLE
  2
DIMSTYLE
  5
A
330
0
100
AcDbSymbolTable
 70
     1
  0
DIMSTYLE
105
27
330
A
100
AcDbSymbolTableRecord
100
AcDbDimStyleTableRecord
  2
ISO-25
 70
     0
  3

  4

  5

  6

  7

 40
1.0
 41
2.5
 42
0.625
 43
3.75
 44
1.25
 45
0.0
 46
0.0
 47
0.0
 48
0.0
140
2.5
141
2.5
142
0.0
143
0.03937007874016
144
1.0
145
0.0
146
1.0
147
0.625
 71
     0
 72
     0
 73
     0
 74
     0
 75
     0
 76
     0
 77
     1
 78
     8
170
     0
171
     3
172
     1
173
     0
174
     0
175
     0
176
     0
177
     0
178
     0
270
     2
271
     2
272
     2
273
     2
274
     3
340
11
275
     0
280
     0
281
     0
282
     0
283
     0
284
     8
285
     0
286
     0
287
     3
288
     0
  0
ENDTAB
  0
TABLE
  2
BLOCK_RECORD
  5
1
330
0
100
AcDbSymbolTable
 70
     1
  0
BLOCK_RECORD
  5
1F
330
1
100
AcDbSymbolTableRecord
100
AcDbBlockTableRecord
  2
*MODEL_SPACE
  0
BLOCK_RECORD
  5
1B
330
1
100
AcDbSymbolTableRecord
100
AcDbBlockTableRecord
  2
*PAPER_SPACE
  0
ENDTAB
  0
ENDSEC
  0
SECTION
  2
BLOCKS
  0
BLOCK
  5
20
330
1F
100
AcDbEntity
  8
0
100
AcDbBlockBegin
  2
*MODEL_SPACE
 70
     0
 10
0.0
 20
0.0
 30
0.0
  3
*MODEL_SPACE
  1

  0
ENDBLK
  5
21
330
1F
100
AcDbEntity
  8
0
100
AcDbBlockEnd
  0
BLOCK
  5
1C
330
1B
100
AcDbEntity
 67
     1
  8
0
100
AcDbBlockBegin
  2
*PAPER_SPACE
  1

  0
ENDBLK
  5
1D
330
1B
100
AcDbEntity
 67
     1
  8
0
100
AcDbBlockEnd
  0
ENDSEC
  0
SECTION
  2
ENTITIES
  0
SPLINE
  5
100
100
AcDbEntity
  8
0
 62
7
100
AcDbSpline
 70
8
 71
3
 72
8
 73
4
 74
0
 40
0
 40
0
 40
0
 40
0
 40
1
 40
1
 40
1
 40
1
 10
61.356875
 20
190.866542
 30
0.0
 10
60.902788
 20
190.866542
 30
0.0
 10
60.015953
 20
190.058632
 30
0.0
 10
59.998681
 20
189.631820
 30
0.0
  0
SPLINE
  5
101
100
AcDbEntity
  8
0
 62
7
100
AcDbSpline
 70
8
 71
3
 72
8
 73
4
 74
0
 40
0
 40
0
 40
0
 40
0
 40
1
 40
1
 40
1
 40
1
 10
59.998681
 20
189.631820
 30
0.0
 10
59.994425
 20
189.526788
 30
0.0
 10
59.842169
 20
189.290098
 30
0.0
 10
59.663542
 20
189.111472
 30
0.0
  0
SPLINE
  5
102
100
AcDbEntity
  8
0
 62
7
100
AcDbSpline
 70
8
 71
3
 72
8
 73
4
 74
0
 40
0
 40
0
 40
0
 40
0
 40
1
 40
1
 40
1
 40
1
 10
59.663542
 20
189.111472
 30
0.0
 10
59.484918
 20
188.932846
 30
0.0
 10
59.151658
 20
188.183855
 30
0.0
 10
58.922708
 20
187.444597
 30
0.0
  0
SPLINE
  5
103
100
AcDbEntity
  8
0
 62
7
100
AcDbSpline
 70
8
 71
3
 72
8
 73
4
 74
0
 40
0
 40
0
 40
0
 40
0
 40
1
 40
1
 40
1
 40
1
 10
58.922708
 20
187.444597
 30
0.0
 10
58.693758
 20
186.705340
 30
0.0
 10
58.436931
 20
186.044502
 30
0.0
 10
58.349444
 20
185.980570
 30
0.0
  0
SPLINE
  5
104
100
AcDbEntity
  8
0
 62
7
100
AcDbSpline
 70
8
 71
3
 72
8
 73
4
 74
0
 40
0
 40
0
 40
0
 40
0
 40
1
 40
1
 40
1
 40
1
 10
58.349444
 20
185.980570
 30
0.0
 10
58.261956
 20
185.916637
 30
0.0
 10
57.937219
 20
185.087469
 30
0.0
 10
57.635069
 20
184.128486
 30
0.0
  0
SPLINE
  5
105
100
AcDbEntity
  8
0
 62
7
100
AcDbSpline
 70
8
 71
3
 72
8
 73
4
 74
0
 40
0
 40
0
 40
0
 40
0
 40
1
 40
1
 40
1
 40
1
 10
57.635069
 20
184.128486
 30
0.0
 10
57.332920
 20
183.169504
 30
0.0
 10
57.027208
 20
182.331516
 30
0.0
 10
56.955972
 20
182.267583
 30
0.0
  0
SPLINE
  5
106
100
AcDbEntity
  8
0
 62
7
100
AcDbSpline
 70
8
 71
3
 72
8
 73
4
 74
0
 40
0
 40
0
 40
0
 40
0
 40
1
 40
1
 40
1
 40
1
 10
56.955972
 20
182.267583
 30
0.0
 10
56.837385
 20
182.161151
 30
0.0
 10
56.522510
 20
181.186411
 30
0.0
 10
56.126944
 20
179.709945
 30
0.0
  0
SPLINE
  5
107
100
AcDbEntity
  8
0
 62
7
100
AcDbSpline
 70
8
 71
3
 72
8
 73
4
 74
0
 40
0
 40
0
 40
0
 40
0
 40
1
 40
1
 40
1
 40
1
 10
56.126944
 20
179.709945
 30
0.0
 10
56.041301
 20
179.390284
 30
0.0
 10
55.888845
 20
179.072919
 30
0.0
 10
55.782986
 20
179.004389
 30
0.0
  0
SPLINE
  5
108
100
AcDbEntity
  8
0
 62
7
100
AcDbSpline
 70
8
 71
3
 72
8
 73
4
 74
0
 40
0
 40
0
 40
0
 40
0
 40
1
 40
1
 40
1
 40
1
 10
55.782986
 20
179.004389
 30
0.0
 10
55.677125
 20
178.935859
 30
0.0
 10
55.357099
 20
177.573026
 30
0.0
 10
55.077431
 20
175.979320
 30
0.0
  0
SPLINE
  5
109
100
AcDbEntity
  8
0
 62
7
100
AcDbSpline
 70
8
 71
3
 72
8
 73
4
 74
0
 40
0
 40
0
 40
0
 40
0
 40
1
 40
1
 40
1
 40
1
 10
55.077431
 20
175.979320
 30
0.0
 10
54.797760
 20
174.385613
 30
0.0
 10
54.480567
 20
173.049788
 30
0.0
 10
54.371875
 20
173.007167
 30
0.0
  0
SPLINE
  5
10a
100
AcDbEntity
  8
0
 62
7
100
AcDbSpline
 70
8
 71
3
 72
8
 73
4
 74
0
 40
0
 40
0
 40
0
 40
0
 40
1
 40
1
 40
1
 40
1
 10
54.371875
 20
173.007167
 30
0.0
 10
54.092379
 20
172.897568
 30
0.0
 10
54.125362
 20
171.340292
 30
0.0
 10
54.407153
 20
171.340292
 30
0.0
  0
SPLINE
  5
10b
100
AcDbEntity
  8
0
 62
7
100
AcDbSpline
 70
8
 71
3
 72
8
 73
4
 74
0
 40
0
 40
0
 40
0
 40
0
 40
1
 40
1
 40
1
 40
1
 10
54.407153
 20
171.340292
 30
0.0
 10
54.535016
 20
171.340292
 30
0.0
 10
54.636458
 20
171.108546
 30
0.0
 10
54.636458
 20
170.828764
 30
0.0
  0
SPLINE
  5
10c
100
AcDbEntity
  8
0
 62
7
100
AcDbSpline
 70
8
 71
3
 72
8
 73
4
 74
0
 40
0
 40
0
 40
0
 40
0
 40
1
 40
1
 40
1
 40
1
 10
54.636458
 20
170.828764
 30
0.0
 10
54.636458
 20
170.024796
 30
0.0
 10
55.610526
 20
168.807148
 30
0.0
 10
56.479722
 20
168.518070
 30
0.0
  0
SPLINE
  5
10d
100
AcDbEntity
  8
0
 62
7
100
AcDbSpline
 70
8
 71
3
 72
8
 73
4
 74
0
 40
0
 40
0
 40
0
 40
0
 40
1
 40
1
 40
1
 40
1
 10
56.479722
 20
168.518070
 30
0.0
 10
57.015403
 20
168.339912
 30
0.0
 10
58.252764
 20
168.310203
 30
0.0
 10
60.316181
 20
168.421056
 30
0.0
  0
SPLINE
  5
10e
100
AcDbEntity
  8
0
 62
7
100
AcDbSpline
 70
8
 71
3
 72
8
 73
4
 74
0
 40
0
 40
0
 40
0
 40
0
 40
1
 40
1
 40
1
 40
1
 10
60.316181
 20
168.421056
 30
0.0
 10
61.991110
 20
168.511038
 30
0.0
 10
63.821516
 20
168.601712
 30
0.0
 10
64.390764
 20
168.623903
 30
0.0
  0
SPLINE
  5
10f
100
AcDbEntity
  8
0
 62
7
100
AcDbSpline
 70
8
 71
3
 72
8
 73
4
 74
0
 40
0
 40
0
 40
0
 40
0
 40
1
 40
1
 40
1
 40
1
 10
65.696042
 20
167.345083
 30
0.0
 10
65.970616
 20
165.982929
 30
0.0
 10
66.430618
 20
165.290153
 30
0.0
 10
67.063056
 20
165.290153
 30
0.0
  0
SPLINE
  5
110
100
AcDbEntity
  8
0
 62
7
100
AcDbSpline
 70
8
 71
3
 72
8
 73
4
 74
0
 40
0
 40
0
 40
0
 40
0
 40
1
 40
1
 40
1
 40
1
 10
67.063056
 20
165.290153
 30
0.0
 10
67.273616
 20
165.290153
 30
0.0
 10
67.424653
 20
165.100011
 30
0.0
 10
67.424653
 20
164.831542
 30
0.0
  0
SPLINE
  5
111
100
AcDbEntity
  8
0
 62
7
100
AcDbSpline
 70
8
 71
3
 72
8
 73
4
 74
0
 40
0
 40
0
 40
0
 40
0
 40
1
 40
1
 40
1
 40
1
 10
67.424653
 20
164.831542
 30
0.0
 10
67.424653
 20
164.351363
 30
0.0
 10
66.668340
 20
162.760364
 30
0.0
 10
66.322222
 20
162.520847
 30
0.0
  0
SPLINE
  5
112
100
AcDbEntity
  8
0
 62
7
100
AcDbSpline
 70
8
 71
3
 72
8
 73
4
 74
0
 40
0
 40
0
 40
0
 40
0
 40
1
 40
1
 40
1
 40
1
 10
66.322222
 20
162.520847
 30
0.0
 10
66.036929
 20
162.323424
 30
0.0
 10
65.105139
 20
160.454605
 30
0.0
 10
65.105139
 20
160.077861
 30
0.0
  0
SPLINE
  5
113
100
AcDbEntity
  8
0
 62
7
100
AcDbSpline
 70
8
 71
3
 72
8
 73
4
 74
0
 40
0
 40
0
 40
0
 40
0
 40
1
 40
1
 40
1
 40
1
 10
65.105139
 20
160.077861
 30
0.0
 10
65.105139
 20
159.900660
 30
0.0
 10
64.990212
 20
159.716174
 30
0.0
 10
64.858194
 20
159.672167
 30
0.0
  0
SPLINE
  5
114
100
AcDbEntity
  8
0
 62
7
100
AcDbSpline
 70
8
 71
3
 72
8
 73
4
 74
0
 40
0
 40
0
 40
0
 40
0
 40
1
 40
1
 40
1
 40
1
 10
64.858194
 20
159.672167
 30
0.0
 10
64.726177
 20
159.628160
 30
0.0
 10
64.458421
 20
158.965121
 30
0.0
 10
64.258472
 20
158.199320
 30
0.0
  0
SPLINE
  5
115
100
AcDbEntity
  8
0
 62
7
100
AcDbSpline
 70
8
 71
3
 72
8
 73
4
 74
0
 40
0
 40
0
 40
0
 40
0
 40
1
 40
1
 40
1
 40
1
 10
64.258472
 20
158.199320
 30
0.0
 10
64.058523
 20
157.433518
 30
0.0
 10
63.819865
 20
156.755126
 30
0.0
 10
63.729306
 20
156.691195
 30
0.0
  0
SPLINE
  5
116
100
AcDbEntity
  8
0
 62
7
100
AcDbSpline
 70
8
 71
3
 72
8
 73
4
 74
0
 40
0
 40
0
 40
0
 40
0
 40
1
 40
1
 40
1
 40
1
 10
63.729306
 20
156.691195
 30
0.0
 10
63.533424
 20
156.552911
 30
0.0
 10
62.547500
 20
152.680368
 30
0.0
 10
62.547500
 20
152.052167
 30
0.0
  0
SPLINE
  5
117
100
AcDbEntity
  8
0
 62
7
100
AcDbSpline
 70
8
 71
3
 72
8
 73
4
 74
0
 40
0
 40
0
 40
0
 40
0
 40
1
 40
1
 40
1
 40
1
 10
62.547500
 20
152.052167
 30
0.0
 10
62.547500
 20
151.811787
 30
0.0
 10
62.442110
 20
151.583260
 30
0.0
 10
62.318194
 20
151.540639
 30
0.0
  0
SPLINE
  5
118
100
AcDbEntity
  8
0
 62
7
100
AcDbSpline
 70
8
 71
3
 72
8
 73
4
 74
0
 40
0
 40
0
 40
0
 40
0
 40
1
 40
1
 40
1
 40
1
 10
62.318194
 20
151.540639
 30
0.0
 10
62.056755
 20
151.450717
 30
0.0
 10
61.720978
 20
148.868661
 30
0.0
 10
61.374514
 20
144.255778
 30
0.0
  0
SPLINE
  5
119
100
AcDbEntity
  8
0
 62
7
100
AcDbSpline
 70
8
 71
3
 72
8
 73
4
 74
0
 40
0
 40
0
 40
0
 40
0
 40
1
 40
1
 40
1
 40
1
 10
61.374514
 20
144.255778
 30
0.0
 10
61.240060
 20
142.465676
 30
0.0
 10
61.041497
 20
140.789700
 30
0.0
 10
60.933542
 20
140.533972
 30
0.0
  0
SPLINE
  5
11a
100
AcDbEntity
  8
0
 62
7
100
AcDbSpline
 70
8
 71
3
 72
8
 73
4
 74
0
 40
0
 40
0
 40
0
 40
0
 40
1
 40
1
 40
1
 40
1
 10
60.933542
 20
140.533972
 30
0.0
 10
60.825589
 20
140.278242
 30
0.0
 10
60.563560
 20
138.606586
 30
0.0
 10
60.351458
 20
136.820986
 30
0.0
  0
SPLINE
  5
11b
100
AcDbEntity
  8
0
 62
7
100
AcDbSpline
 70
8
 71
3
 72
8
 73
4
 74
0
 40
0
 40
0
 40
0
 40
0
 40
1
 40
1
 40
1
 40
1
 10
60.351458
 20
136.820986
 30
0.0
 10
60.139357
 20
135.035386
 30
0.0
 10
59.884716
 20
133.520392
 30
0.0
 10
59.778194
 20
133.451958
 30
0.0
  0
SPLINE
  5
11c
100
AcDbEntity
  8
0
 62
7
100
AcDbSpline
 70
8
 71
3
 72
8
 73
4
 74
0
 40
0
 40
0
 40
0
 40
0
 40
1
 40
1
 40
1
 40
1
 10
59.778194
 20
133.451958
 30
0.0
 10
59.671678
 20
133.383525
 30
0.0
 10
59.346634
 20
131.601789
 30
0.0
 10
59.055000
 20
129.492028
 30
0.0
  0
SPLINE
  5
11d
100
AcDbEntity
  8
0
 62
7
100
AcDbSpline
 70
8
 71
3
 72
8
 73
4
 74
0
 40
0
 40
0
 40
0
 40
0
 40
1
 40
1
 40
1
 40
1
 10
59.055000
 20
129.492028
 30
0.0
 10
58.763360
 20
127.382267
 30
0.0
 10
58.450170
 20
125.604849
 30
0.0
 10
58.367083
 20
125.540917
 30
0.0
  0
SPLINE
  5
11e
100
AcDbEntity
  8
0
 62
7
100
AcDbSpline
 70
8
 71
3
 72
8
 73
4
 74
0
 40
0
 40
0
 40
0
 40
0
 40
1
 40
1
 40
1
 40
1
 10
58.367083
 20
125.540917
 30
0.0
 10
58.232207
 20
125.437127
 30
0.0
 10
57.964959
 20
123.671914
 30
0.0
 10
57.520417
 20
120.019945
 30
0.0
  0
SPLINE
  5
11f
100
AcDbEntity
  8
0
 62
7
100
AcDbSpline
 70
8
 71
3
 72
8
 73
4
 74
0
 40
0
 40
0
 40
0
 40
0
 40
1
 40
1
 40
1
 40
1
 10
57.520417
 20
120.019945
 30
0.0
 10
57.436837
 20
119.333323
 30
0.0
 10
57.172739
 20
118.573124
 30
0.0
 10
56.920694
 20
118.282514
 30
0.0
  0
SPLINE
  5
120
100
AcDbEntity
  8
0
 62
7
100
AcDbSpline
 70
8
 71
3
 72
8
 73
4
 74
0
 40
0
 40
0
 40
0
 40
0
 40
1
 40
1
 40
1
 40
1
 10
56.920694
 20
118.282514
 30
0.0
 10
56.517969
 20
117.818160
 30
0.0
 10
56.293450
 20
117.770605
 30
0.0
 10
54.654097
 20
117.832722
 30
0.0
  0
SPLINE
  5
121
100
AcDbEntity
  8
0
 62
7
100
AcDbSpline
 70
8
 71
3
 72
8
 73
4
 74
0
 40
0
 40
0
 40
0
 40
0
 40
1
 40
1
 40
1
 40
1
 10
54.654097
 20
117.832722
 30
0.0
 10
53.369647
 20
117.881394
 30
0.0
 10
52.627911
 20
117.806783
 30
0.0
 10
52.149375
 20
117.559320
 30
0.0
  0
LWPOLYLINE
  5
122
100
AcDbEntity
  8
0
 62
7
100
AcDbPolyline
 90
3
 70
0
 10
64.390764
 20
168.623903
 30
0.0
 10
65.431458
 20
168.668000
 30
0.0
 10
65.696042
 20
167.345083
 30
0.0
  0
SPLINE
  5
123
100
AcDbEntity
  8
0
 62
7
100
AcDbSpline
 70
8
 71
3
 72
8
 73
4
 74
0
 40
0
 40
0
 40
0
 40
0
 40
1
 40
1
 40
1
 40
1
 10
51.196875
 20
113.872792
 30
0.0
 10
50.879002
 20
110.089563
 30
0.0
 10
50.854856
 20
108.798129
 30
0.0
 10
51.099861
 20
108.431195
 30
0.0
  0
SPLINE
  5
124
100
AcDbEntity
  8
0
 62
7
100
AcDbSpline
 70
8
 71
3
 72
8
 73
4
 74
0
 40
0
 40
0
 40
0
 40
0
 40
1
 40
1
 40
1
 40
1
 10
51.099861
 20
108.431195
 30
0.0
 10
51.376380
 20
108.017073
 30
0.0
 10
52.234973
 20
107.637445
 30
0.0
 10
52.907847
 20
107.637445
 30
0.0
  0
SPLINE
  5
125
100
AcDbEntity
  8
0
 62
7
100
AcDbSpline
 70
8
 71
3
 72
8
 73
4
 74
0
 40
0
 40
0
 40
0
 40
0
 40
1
 40
1
 40
1
 40
1
 10
52.907847
 20
107.637445
 30
0.0
 10
53.487608
 20
107.637445
 30
0.0
 10
53.522005
 20
107.586162
 30
0.0
 10
53.384097
 20
106.896611
 30
0.0
  0
SPLINE
  5
126
100
AcDbEntity
  8
0
 62
7
100
AcDbSpline
 70
8
 71
3
 72
8
 73
4
 74
0
 40
0
 40
0
 40
0
 40
0
 40
1
 40
1
 40
1
 40
1
 10
53.384097
 20
106.896611
 30
0.0
 10
53.302256
 20
106.487409
 30
0.0
 10
53.160572
 20
106.093774
 30
0.0
 10
53.066597
 20
106.023486
 30
0.0
  0
SPLINE
  5
127
100
AcDbEntity
  8
0
 62
7
100
AcDbSpline
 70
8
 71
3
 72
8
 73
4
 74
0
 40
0
 40
0
 40
0
 40
0
 40
1
 40
1
 40
1
 40
1
 10
53.066597
 20
106.023486
 30
0.0
 10
52.972626
 20
105.953199
 30
0.0
 10
52.715027
 20
105.506382
 30
0.0
 10
52.493333
 20
105.026889
 30
0.0
  0
SPLINE
  5
128
100
AcDbEntity
  8
0
 62
7
100
AcDbSpline
 70
8
 71
3
 72
8
 73
4
 74
0
 40
0
 40
0
 40
0
 40
0
 40
1
 40
1
 40
1
 40
1
 10
52.493333
 20
105.026889
 30
0.0
 10
52.271639
 20
104.547399
 30
0.0
 10
51.999865
 20
104.153764
 30
0.0
 10
51.884792
 20
104.153764
 30
0.0
  0
SPLINE
  5
129
100
AcDbEntity
  8
0
 62
7
100
AcDbSpline
 70
8
 71
3
 72
8
 73
4
 74
0
 40
0
 40
0
 40
0
 40
0
 40
1
 40
1
 40
1
 40
1
 10
51.884792
 20
104.153764
 30
0.0
 10
51.618952
 20
104.153764
 30
0.0
 10
48.595421
 20
101.227501
 30
0.0
 10
48.595139
 20
100.969945
 30
0.0
  0
SPLINE
  5
12a
100
AcDbEntity
  8
0
 62
7
100
AcDbSpline
 70
8
 71
3
 72
8
 73
4
 74
0
 40
0
 40
0
 40
0
 40
0
 40
1
 40
1
 40
1
 40
1
 10
48.595139
 20
100.969945
 30
0.0
 10
48.594981
 20
100.864289
 30
0.0
 10
48.333180
 20
100.477879
 30
0.0
 10
48.013056
 20
100.105639
 30
0.0
  0
SPLINE
  5
12b
100
AcDbEntity
  8
0
 62
7
100
AcDbSpline
 70
8
 71
3
 72
8
 73
4
 74
0
 40
0
 40
0
 40
0
 40
0
 40
1
 40
1
 40
1
 40
1
 10
48.013056
 20
100.105639
 30
0.0
 10
47.150582
 20
99.102774
 30
0.0
 10
46.865176
 20
97.795529
 30
0.0
 10
47.139931
 20
96.128070
 30
0.0
  0
SPLINE
  5
12c
100
AcDbEntity
  8
0
 62
7
100
AcDbSpline
 70
8
 71
3
 72
8
 73
4
 74
0
 40
0
 40
0
 40
0
 40
0
 40
1
 40
1
 40
1
 40
1
 10
47.139931
 20
96.128070
 30
0.0
 10
47.374799
 20
94.702681
 30
0.0
 10
47.213819
 20
93.785924
 30
0.0
 10
46.654861
 20
93.341125
 30
0.0
  0
SPLINE
  5
12d
100
AcDbEntity
  8
0
 62
7
100
AcDbSpline
 70
8
 71
3
 72
8
 73
4
 74
0
 40
0
 40
0
 40
0
 40
0
 40
1
 40
1
 40
1
 40
1
 10
46.654861
 20
93.341125
 30
0.0
 10
46.494178
 20
93.213259
 30
0.0
 10
46.107124
 20
92.476712
 30
0.0
 10
45.799375
 20
91.709528
 30
0.0
  0
SPLINE
  5
12e
100
AcDbEntity
  8
0
 62
7
100
AcDbSpline
 70
8
 71
3
 72
8
 73
4
 74
0
 40
0
 40
0
 40
0
 40
0
 40
1
 40
1
 40
1
 40
1
 10
45.799375
 20
91.709528
 30
0.0
 10
45.491626
 20
90.942341
 30
0.0
 10
45.058305
 20
90.114137
 30
0.0
 10
44.829236
 20
89.866264
 30
0.0
  0
SPLINE
  5
12f
100
AcDbEntity
  8
0
 62
7
100
AcDbSpline
 70
8
 71
3
 72
8
 73
4
 74
0
 40
0
 40
0
 40
0
 40
0
 40
1
 40
1
 40
1
 40
1
 10
44.829236
 20
89.866264
 30
0.0
 10
44.600170
 20
89.618391
 30
0.0
 10
44.414722
 20
89.283983
 30
0.0
 10
44.414722
 20
89.125431
 30
0.0
  0
SPLINE
  5
130
100
AcDbEntity
  8
0
 62
7
100
AcDbSpline
 70
8
 71
3
 72
8
 73
4
 74
0
 40
0
 40
0
 40
0
 40
0
 40
1
 40
1
 40
1
 40
1
 10
44.414722
 20
89.125431
 30
0.0
 10
44.414722
 20
88.966875
 30
0.0
 10
44.283949
 20
88.703491
 30
0.0
 10
44.123681
 20
88.534528
 30
0.0
  0
SPLINE
  5
131
100
AcDbEntity
  8
0
 62
7
100
AcDbSpline
 70
8
 71
3
 72
8
 73
4
 74
0
 40
0
 40
0
 40
0
 40
0
 40
1
 40
1
 40
1
 40
1
 10
44.123681
 20
88.534528
 30
0.0
 10
43.963412
 20
88.365564
 30
0.0
 10
43.577307
 20
87.680052
 30
0.0
 10
43.268194
 20
87.008764
 30
0.0
  0
SPLINE
  5
132
100
AcDbEntity
  8
0
 62
7
100
AcDbSpline
 70
8
 71
3
 72
8
 73
4
 74
0
 40
0
 40
0
 40
0
 40
0
 40
1
 40
1
 40
1
 40
1
 10
43.268194
 20
87.008764
 30
0.0
 10
42.788346
 20
85.966692
 30
0.0
 10
42.608094
 20
85.782861
 30
0.0
 10
42.059931
 20
85.782861
 30
0.0
  0
SPLINE
  5
133
100
AcDbEntity
  8
0
 62
7
100
AcDbSpline
 70
8
 71
3
 72
8
 73
4
 74
0
 40
0
 40
0
 40
0
 40
0
 40
1
 40
1
 40
1
 40
1
 10
42.059931
 20
85.782861
 30
0.0
 10
41.642761
 20
85.782861
 30
0.0
 10
41.371258
 20
85.930709
 30
0.0
 10
41.283819
 20
86.206195
 30
0.0
  0
SPLINE
  5
134
100
AcDbEntity
  8
0
 62
7
100
AcDbSpline
 70
8
 71
3
 72
8
 73
4
 74
0
 40
0
 40
0
 40
0
 40
0
 40
1
 40
1
 40
1
 40
1
 10
41.283819
 20
86.206195
 30
0.0
 10
41.209809
 20
86.439383
 30
0.0
 10
40.963080
 20
86.833019
 30
0.0
 10
40.737014
 20
87.079320
 30
0.0
  0
SPLINE
  5
135
100
AcDbEntity
  8
0
 62
7
100
AcDbSpline
 70
8
 71
3
 72
8
 73
4
 74
0
 40
0
 40
0
 40
0
 40
0
 40
1
 40
1
 40
1
 40
1
 10
40.737014
 20
87.079320
 30
0.0
 10
40.293967
 20
87.562024
 30
0.0
 10
39.299444
 20
89.830823
 30
0.0
 10
39.299444
 20
90.351333
 30
0.0
  0
SPLINE
  5
136
100
AcDbEntity
  8
0
 62
7
100
AcDbSpline
 70
8
 71
3
 72
8
 73
4
 74
0
 40
0
 40
0
 40
0
 40
0
 40
1
 40
1
 40
1
 40
1
 10
39.299444
 20
90.351333
 30
0.0
 10
39.299444
 20
90.526080
 30
0.0
 10
39.204217
 20
90.668833
 30
0.0
 10
39.096597
 20
90.668833
 30
0.0
  0
SPLINE
  5
137
100
AcDbEntity
  8
0
 62
7
100
AcDbSpline
 70
8
 71
3
 72
8
 73
4
 74
0
 40
0
 40
0
 40
0
 40
0
 40
1
 40
1
 40
1
 40
1
 10
39.096597
 20
90.668833
 30
0.0
 10
38.988977
 20
90.668833
 30
0.0
 10
38.711522
 20
91.295121
 30
0.0
 10
38.479236
 20
92.062306
 30
0.0
  0
SPLINE
  5
138
100
AcDbEntity
  8
0
 62
7
100
AcDbSpline
 70
8
 71
3
 72
8
 73
4
 74
0
 40
0
 40
0
 40
0
 40
0
 40
1
 40
1
 40
1
 40
1
 10
38.479236
 20
92.062306
 30
0.0
 10
38.246953
 20
92.829493
 30
0.0
 10
37.987402
 20
93.455778
 30
0.0
 10
37.897153
 20
93.455778
 30
0.0
  0
SPLINE
  5
139
100
AcDbEntity
  8
0
 62
7
100
AcDbSpline
 70
8
 71
3
 72
8
 73
4
 74
0
 40
0
 40
0
 40
0
 40
0
 40
1
 40
1
 40
1
 40
1
 10
37.897153
 20
93.455778
 30
0.0
 10
37.806904
 20
93.455778
 30
0.0
 10
37.554473
 20
93.933431
 30
0.0
 10
37.332708
 20
94.514111
 30
0.0
  0
SPLINE
  5
13a
100
AcDbEntity
  8
0
 62
7
100
AcDbSpline
 70
8
 71
3
 72
8
 73
4
 74
0
 40
0
 40
0
 40
0
 40
0
 40
1
 40
1
 40
1
 40
1
 10
37.332708
 20
94.514111
 30
0.0
 10
36.926929
 20
95.576633
 30
0.0
 10
35.711884
 20
96.937483
 30
0.0
 10
35.171944
 20
96.939458
 30
0.0
  0
SPLINE
  5
13b
100
AcDbEntity
  8
0
 62
7
100
AcDbSpline
 70
8
 71
3
 72
8
 73
4
 74
0
 40
0
 40
0
 40
0
 40
0
 40
1
 40
1
 40
1
 40
1
 10
35.171944
 20
96.939458
 30
0.0
 10
35.012114
 20
96.940051
 30
0.0
 10
34.880903
 20
97.031308
 30
0.0
 10
34.880903
 20
97.133486
 30
0.0
  0
SPLINE
  5
13c
100
AcDbEntity
  8
0
 62
7
100
AcDbSpline
 70
8
 71
3
 72
8
 73
4
 74
0
 40
0
 40
0
 40
0
 40
0
 40
1
 40
1
 40
1
 40
1
 10
34.880903
 20
97.133486
 30
0.0
 10
34.880903
 20
97.235662
 30
0.0
 10
34.506718
 20
97.454082
 30
0.0
 10
34.051875
 20
97.618556
 30
0.0
  0
SPLINE
  5
13d
100
AcDbEntity
  8
0
 62
7
100
AcDbSpline
 70
8
 71
3
 72
8
 73
4
 74
0
 40
0
 40
0
 40
0
 40
0
 40
1
 40
1
 40
1
 40
1
 10
34.051875
 20
97.618556
 30
0.0
 10
33.557690
 20
97.797256
 30
0.0
 10
33.138720
 20
98.138598
 30
0.0
 10
33.011181
 20
98.474042
 30
0.0
  0
SPLINE
  5
13e
100
AcDbEntity
  8
0
 62
7
100
AcDbSpline
 70
8
 71
3
 72
8
 73
4
 74
0
 40
0
 40
0
 40
0
 40
0
 40
1
 40
1
 40
1
 40
1
 10
33.011181
 20
98.474042
 30
0.0
 10
32.893799
 20
98.782782
 30
0.0
 10
32.707171
 20
99.038486
 30
0.0
 10
32.596667
 20
99.038486
 30
0.0
  0
SPLINE
  5
13f
100
AcDbEntity
  8
0
 62
7
100
AcDbSpline
 70
8
 71
3
 72
8
 73
4
 74
0
 40
0
 40
0
 40
0
 40
0
 40
1
 40
1
 40
1
 40
1
 10
32.596667
 20
99.038486
 30
0.0
 10
32.486160
 20
99.038486
 30
0.0
 10
32.274112
 20
99.309705
 30
0.0
 10
32.120417
 20
99.647028
 30
0.0
  0
SPLINE
  5
140
100
AcDbEntity
  8
0
 62
7
100
AcDbSpline
 70
8
 71
3
 72
8
 73
4
 74
0
 40
0
 40
0
 40
0
 40
0
 40
1
 40
1
 40
1
 40
1
 10
32.120417
 20
99.647028
 30
0.0
 10
31.850262
 20
100.239960
 30
0.0
 10
31.792263
 20
100.258993
 30
0.0
 10
30.409444
 20
100.114458
 30
0.0
  0
SPLINE
  5
141
100
AcDbEntity
  8
0
 62
7
100
AcDbSpline
 70
8
 71
3
 72
8
 73
4
 74
0
 40
0
 40
0
 40
0
 40
0
 40
1
 40
1
 40
1
 40
1
 10
30.409444
 20
100.114458
 30
0.0
 10
29.622753
 20
100.032233
 30
0.0
 10
28.911485
 20
99.857015
 30
0.0
 10
28.830764
 20
99.726403
 30
0.0
  0
SPLINE
  5
142
100
AcDbEntity
  8
0
 62
7
100
AcDbSpline
 70
8
 71
3
 72
8
 73
4
 74
0
 40
0
 40
0
 40
0
 40
0
 40
1
 40
1
 40
1
 40
1
 10
28.830764
 20
99.726403
 30
0.0
 10
28.750043
 20
99.595793
 30
0.0
 10
28.163052
 20
99.431498
 30
0.0
 10
27.525486
 20
99.355986
 30
0.0
  0
SPLINE
  5
143
100
AcDbEntity
  8
0
 62
7
100
AcDbSpline
 70
8
 71
3
 72
8
 73
4
 74
0
 40
0
 40
0
 40
0
 40
0
 40
1
 40
1
 40
1
 40
1
 10
27.525486
 20
99.355986
 30
0.0
 10
26.631748
 20
99.250136
 30
0.0
 10
26.282275
 20
99.302737
 30
0.0
 10
25.990903
 20
99.594111
 30
0.0
  0
SPLINE
  5
144
100
AcDbEntity
  8
0
 62
7
100
AcDbSpline
 70
8
 71
3
 72
8
 73
4
 74
0
 40
0
 40
0
 40
0
 40
0
 40
1
 40
1
 40
1
 40
1
 10
25.990903
 20
99.594111
 30
0.0
 10
25.783049
 20
99.801965
 30
0.0
 10
25.127935
 20
100.173053
 30
0.0
 10
24.544514
 20
100.423139
 30
0.0
  0
SPLINE
  5
145
100
AcDbEntity
  8
0
 62
7
100
AcDbSpline
 70
8
 71
3
 72
8
 73
4
 74
0
 40
0
 40
0
 40
0
 40
0
 40
1
 40
1
 40
1
 40
1
 10
24.544514
 20
100.423139
 30
0.0
 10
23.961093
 20
100.673222
 30
0.0
 10
23.486181
 20
100.967235
 30
0.0
 10
23.486181
 20
101.075778
 30
0.0
  0
SPLINE
  5
146
100
AcDbEntity
  8
0
 62
7
100
AcDbSpline
 70
8
 71
3
 72
8
 73
4
 74
0
 40
0
 40
0
 40
0
 40
0
 40
1
 40
1
 40
1
 40
1
 10
23.486181
 20
101.075778
 30
0.0
 10
23.486181
 20
101.184321
 30
0.0
 10
23.130292
 20
101.415500
 30
0.0
 10
22.692431
 20
101.587306
 30
0.0
  0
SPLINE
  5
147
100
AcDbEntity
  8
0
 62
7
100
AcDbSpline
 70
8
 71
3
 72
8
 73
4
 74
0
 40
0
 40
0
 40
0
 40
0
 40
1
 40
1
 40
1
 40
1
 10
22.692431
 20
101.587306
 30
0.0
 10
22.254569
 20
101.759108
 30
0.0
 10
21.843040
 20
102.084841
 30
0.0
 10
21.784028
 20
102.310500
 30
0.0
  0
SPLINE
  5
148
100
AcDbEntity
  8
0
 62
7
100
AcDbSpline
 70
8
 71
3
 72
8
 73
4
 74
0
 40
0
 40
0
 40
0
 40
0
 40
1
 40
1
 40
1
 40
1
 10
21.784028
 20
102.310500
 30
0.0
 10
21.695908
 20
102.647471
 30
0.0
 10
21.883013
 20
102.746638
 30
0.0
 10
22.815903
 20
102.874945
 30
0.0
  0
SPLINE
  5
149
100
AcDbEntity
  8
0
 62
7
100
AcDbSpline
 70
8
 71
3
 72
8
 73
4
 74
0
 40
0
 40
0
 40
0
 40
0
 40
1
 40
1
 40
1
 40
1
 10
22.815903
 20
102.874945
 30
0.0
 10
23.440641
 20
102.960867
 30
0.0
 10
23.953611
 20
103.129495
 30
0.0
 10
23.953611
 20
103.245361
 30
0.0
  0
SPLINE
  5
14a
100
AcDbEntity
  8
0
 62
7
100
AcDbSpline
 70
8
 71
3
 72
8
 73
4
 74
0
 40
0
 40
0
 40
0
 40
0
 40
1
 40
1
 40
1
 40
1
 10
23.953611
 20
103.245361
 30
0.0
 10
23.953611
 20
103.361228
 30
0.0
 10
24.110111
 20
103.457028
 30
0.0
 10
24.297569
 20
103.457028
 30
0.0
  0
SPLINE
  5
14b
100
AcDbEntity
  8
0
 62
7
100
AcDbSpline
 70
8
 71
3
 72
8
 73
4
 74
0
 40
0
 40
0
 40
0
 40
0
 40
1
 40
1
 40
1
 40
1
 10
24.297569
 20
103.457028
 30
0.0
 10
24.732247
 20
103.457028
 30
0.0
 10
26.273125
 20
104.186155
 30
0.0
 10
26.273125
 20
104.391889
 30
0.0
  0
SPLINE
  5
14c
100
AcDbEntity
  8
0
 62
7
100
AcDbSpline
 70
8
 71
3
 72
8
 73
4
 74
0
 40
0
 40
0
 40
0
 40
0
 40
1
 40
1
 40
1
 40
1
 10
26.273125
 20
104.391889
 30
0.0
 10
26.273125
 20
104.477399
 30
0.0
 10
26.514597
 20
104.812053
 30
0.0
 10
26.802292
 20
105.132722
 30
0.0
  0
SPLINE
  5
14d
100
AcDbEntity
  8
0
 62
7
100
AcDbSpline
 70
8
 71
3
 72
8
 73
4
 74
0
 40
0
 40
0
 40
0
 40
0
 40
1
 40
1
 40
1
 40
1
 10
26.802292
 20
105.132722
 30
0.0
 10
27.479458
 20
105.887506
 30
0.0
 10
27.884416
 20
106.495438
 30
0.0
 10
28.054653
 20
107.002445
 30
0.0
  0
SPLINE
  5
14e
100
AcDbEntity
  8
0
 62
7
100
AcDbSpline
 70
8
 71
3
 72
8
 73
4
 74
0
 40
0
 40
0
 40
0
 40
0
 40
1
 40
1
 40
1
 40
1
 10
28.054653
 20
107.002445
 30
0.0
 10
28.129786
 20
107.226207
 30
0.0
 10
28.285477
 20
107.408139
 30
0.0
 10
28.398611
 20
107.408139
 30
0.0
  0
SPLINE
  5
14f
100
AcDbEntity
  8
0
 62
7
100
AcDbSpline
 70
8
 71
3
 72
8
 73
4
 74
0
 40
0
 40
0
 40
0
 40
0
 40
1
 40
1
 40
1
 40
1
 10
28.398611
 20
107.408139
 30
0.0
 10
28.587000
 20
107.408139
 30
0.0
 10
29.582931
 20
108.405126
 30
0.0
 10
31.000347
 20
110.018695
 30
0.0
  0
SPLINE
  5
150
100
AcDbEntity
  8
0
 62
7
100
AcDbSpline
 70
8
 71
3
 72
8
 73
4
 74
0
 40
0
 40
0
 40
0
 40
0
 40
1
 40
1
 40
1
 40
1
 10
31.000347
 20
110.018695
 30
0.0
 10
31.440699
 20
110.519986
 30
0.0
 10
31.590979
 20
111.022779
 30
0.0
 10
31.705903
 20
112.382306
 30
0.0
  0
SPLINE
  5
151
100
AcDbEntity
  8
0
 62
7
100
AcDbSpline
 70
8
 71
3
 72
8
 73
4
 74
0
 40
0
 40
0
 40
0
 40
0
 40
1
 40
1
 40
1
 40
1
 10
31.705903
 20
112.382306
 30
0.0
 10
31.856364
 20
114.162284
 30
0.0
 10
32.205275
 20
115.286290
 30
0.0
 10
32.720139
 20
115.610222
 30
0.0
  0
SPLINE
  5
152
100
AcDbEntity
  8
0
 62
7
100
AcDbSpline
 70
8
 71
3
 72
8
 73
4
 74
0
 40
0
 40
0
 40
0
 40
0
 40
1
 40
1
 40
1
 40
1
 10
32.720139
 20
115.610222
 30
0.0
 10
32.882662
 20
115.712474
 30
0.0
 10
33.020000
 20
115.894406
 30
0.0
 10
33.020000
 20
116.015917
 30
0.0
  0
SPLINE
  5
153
100
AcDbEntity
  8
0
 62
7
100
AcDbSpline
 70
8
 71
3
 72
8
 73
4
 74
0
 40
0
 40
0
 40
0
 40
0
 40
1
 40
1
 40
1
 40
1
 10
33.020000
 20
116.015917
 30
0.0
 10
33.020000
 20
116.254366
 30
0.0
 10
33.866692
 20
117.171264
 30
0.0
 10
34.087153
 20
117.171264
 30
0.0
  0
SPLINE
  5
154
100
AcDbEntity
  8
0
 62
7
100
AcDbSpline
 70
8
 71
3
 72
8
 73
4
 74
0
 40
0
 40
0
 40
0
 40
0
 40
1
 40
1
 40
1
 40
1
 10
34.087153
 20
117.171264
 30
0.0
 10
34.622209
 20
117.171264
 30
0.0
 10
36.274375
 20
119.529614
 30
0.0
 10
36.274375
 20
120.293347
 30
0.0
  0
SPLINE
  5
155
100
AcDbEntity
  8
0
 62
7
100
AcDbSpline
 70
8
 71
3
 72
8
 73
4
 74
0
 40
0
 40
0
 40
0
 40
0
 40
1
 40
1
 40
1
 40
1
 10
36.274375
 20
120.293347
 30
0.0
 10
36.274375
 20
120.491493
 30
0.0
 10
36.375817
 20
120.654945
 30
0.0
 10
36.503681
 20
120.654945
 30
0.0
  0
SPLINE
  5
156
100
AcDbEntity
  8
0
 62
7
100
AcDbSpline
 70
8
 71
3
 72
8
 73
4
 74
0
 40
0
 40
0
 40
0
 40
0
 40
1
 40
1
 40
1
 40
1
 10
36.503681
 20
120.654945
 30
0.0
 10
36.811678
 20
120.654945
 30
0.0
 10
36.811867
 20
124.071628
 30
0.0
 10
36.503681
 20
124.262097
 30
0.0
  0
SPLINE
  5
157
100
AcDbEntity
  8
0
 62
7
100
AcDbSpline
 70
8
 71
3
 72
8
 73
4
 74
0
 40
0
 40
0
 40
0
 40
0
 40
1
 40
1
 40
1
 40
1
 10
36.503681
 20
124.262097
 30
0.0
 10
36.205222
 20
124.446555
 30
0.0
 10
35.695935
 20
125.658742
 30
0.0
 10
35.498264
 20
126.660986
 30
0.0
  0
SPLINE
  5
158
100
AcDbEntity
  8
0
 62
7
100
AcDbSpline
 70
8
 71
3
 72
8
 73
4
 74
0
 40
0
 40
0
 40
0
 40
0
 40
1
 40
1
 40
1
 40
1
 10
35.498264
 20
126.660986
 30
0.0
 10
35.414836
 20
127.083967
 30
0.0
 10
35.188872
 20
127.587739
 30
0.0
 10
34.995556
 20
127.781056
 30
0.0
  0
SPLINE
  5
159
100
AcDbEntity
  8
0
 62
7
100
AcDbSpline
 70
8
 71
3
 72
8
 73
4
 74
0
 40
0
 40
0
 40
0
 40
0
 40
1
 40
1
 40
1
 40
1
 10
34.995556
 20
127.781056
 30
0.0
 10
34.802239
 20
127.974372
 30
0.0
 10
34.576659
 20
128.408509
 30
0.0
 10
34.492847
 20
128.751195
 30
0.0
  0
SPLINE
  5
15a
100
AcDbEntity
  8
0
 62
7
100
AcDbSpline
 70
8
 71
3
 72
8
 73
4
 74
0
 40
0
 40
0
 40
0
 40
0
 40
1
 40
1
 40
1
 40
1
 10
34.492847
 20
128.751195
 30
0.0
 10
34.305432
 20
129.517479
 30
0.0
 10
34.032337
 20
129.711597
 30
0.0
 10
33.134653
 20
129.721333
 30
0.0
  0
SPLINE
  5
15b
100
AcDbEntity
  8
0
 62
7
100
AcDbSpline
 70
8
 71
3
 72
8
 73
4
 74
0
 40
0
 40
0
 40
0
 40
0
 40
1
 40
1
 40
1
 40
1
 10
33.134653
 20
129.721333
 30
0.0
 10
32.701159
 20
129.726044
 30
0.0
 10
32.231398
 20
129.953487
 30
0.0
 10
31.891111
 20
130.312236
 30
0.0
  0
SPLINE
  5
15c
100
AcDbEntity
  8
0
 62
7
100
AcDbSpline
 70
8
 71
3
 72
8
 73
4
 74
0
 40
0
 40
0
 40
0
 40
0
 40
1
 40
1
 40
1
 40
1
 10
31.891111
 20
130.312236
 30
0.0
 10
31.589994
 20
130.629685
 30
0.0
 10
31.259729
 20
130.885500
 30
0.0
 10
31.159097
 20
130.885500
 30
0.0
  0
SPLINE
  5
15d
100
AcDbEntity
  8
0
 62
7
100
AcDbSpline
 70
8
 71
3
 72
8
 73
4
 74
0
 40
0
 40
0
 40
0
 40
0
 40
1
 40
1
 40
1
 40
1
 10
31.159097
 20
130.885500
 30
0.0
 10
31.058468
 20
130.885500
 30
0.0
 10
30.789183
 20
131.511788
 30
0.0
 10
30.559375
 20
132.278972
 30
0.0
  0
SPLINE
  5
15e
100
AcDbEntity
  8
0
 62
7
100
AcDbSpline
 70
8
 71
3
 72
8
 73
4
 74
0
 40
0
 40
0
 40
0
 40
0
 40
1
 40
1
 40
1
 40
1
 10
30.559375
 20
132.278972
 30
0.0
 10
30.329564
 20
133.046160
 30
0.0
 10
30.054496
 20
133.672445
 30
0.0
 10
29.950833
 20
133.672445
 30
0.0
  0
SPLINE
  5
15f
100
AcDbEntity
  8
0
 62
7
100
AcDbSpline
 70
8
 71
3
 72
8
 73
4
 74
0
 40
0
 40
0
 40
0
 40
0
 40
1
 40
1
 40
1
 40
1
 10
29.950833
 20
133.672445
 30
0.0
 10
29.847167
 20
133.672445
 30
0.0
 10
29.765625
 20
133.814820
 30
0.0
 10
29.765625
 20
133.981125
 30
0.0
  0
SPLINE
  5
160
100
AcDbEntity
  8
0
 62
7
100
AcDbSpline
 70
8
 71
3
 72
8
 73
4
 74
0
 40
0
 40
0
 40
0
 40
0
 40
1
 40
1
 40
1
 40
1
 10
29.765625
 20
133.981125
 30
0.0
 10
29.765625
 20
134.756491
 30
0.0
 10
29.154857
 20
135.511091
 30
0.0
 10
28.425069
 20
135.648000
 30
0.0
  0
SPLINE
  5
161
100
AcDbEntity
  8
0
 62
7
100
AcDbSpline
 70
8
 71
3
 72
8
 73
4
 74
0
 40
0
 40
0
 40
0
 40
0
 40
1
 40
1
 40
1
 40
1
 10
28.425069
 20
135.648000
 30
0.0
 10
28.008599
 20
135.726130
 30
0.0
 10
27.675417
 20
135.887531
 30
0.0
 10
27.675417
 20
136.009597
 30
0.0
  0
SPLINE
  5
162
100
AcDbEntity
  8
0
 62
7
100
AcDbSpline
 70
8
 71
3
 72
8
 73
4
 74
0
 40
0
 40
0
 40
0
 40
0
 40
1
 40
1
 40
1
 40
1
 10
27.675417
 20
136.009597
 30
0.0
 10
27.675417
 20
136.131670
 30
0.0
 10
27.514437
 20
136.230083
 30
0.0
 10
27.322639
 20
136.230083
 30
0.0
  0
SPLINE
  5
163
100
AcDbEntity
  8
0
 62
7
100
AcDbSpline
 70
8
 71
3
 72
8
 73
4
 74
0
 40
0
 40
0
 40
0
 40
0
 40
1
 40
1
 40
1
 40
1
 10
27.322639
 20
136.230083
 30
0.0
 10
27.130843
 20
136.230083
 30
0.0
 10
26.978681
 20
136.391063
 30
0.0
 10
26.978681
 20
136.582861
 30
0.0
  0
SPLINE
  5
164
100
AcDbEntity
  8
0
 62
7
100
AcDbSpline
 70
8
 71
3
 72
8
 73
4
 74
0
 40
0
 40
0
 40
0
 40
0
 40
1
 40
1
 40
1
 40
1
 10
26.978681
 20
136.582861
 30
0.0
 10
26.978681
 20
136.774657
 30
0.0
 10
26.876858
 20
136.926820
 30
0.0
 10
26.758194
 20
136.926820
 30
0.0
  0
SPLINE
  5
165
100
AcDbEntity
  8
0
 62
7
100
AcDbSpline
 70
8
 71
3
 72
8
 73
4
 74
0
 40
0
 40
0
 40
0
 40
0
 40
1
 40
1
 40
1
 40
1
 10
26.758194
 20
136.926820
 30
0.0
 10
26.639528
 20
136.926820
 30
0.0
 10
26.468928
 20
137.520824
 30
0.0
 10
26.378958
 20
138.240917
 30
0.0
  0
SPLINE
  5
166
100
AcDbEntity
  8
0
 62
7
100
AcDbSpline
 70
8
 71
3
 72
8
 73
4
 74
0
 40
0
 40
0
 40
0
 40
0
 40
1
 40
1
 40
1
 40
1
 10
26.378958
 20
138.240917
 30
0.0
 10
26.216754
 20
139.539153
 30
0.0
 10
26.137068
 20
139.691951
 30
0.0
 10
25.003125
 20
140.948486
 30
0.0
  0
SPLINE
  5
167
100
AcDbEntity
  8
0
 62
7
100
AcDbSpline
 70
8
 71
3
 72
8
 73
4
 74
0
 40
0
 40
0
 40
0
 40
0
 40
1
 40
1
 40
1
 40
1
 10
25.003125
 20
140.948486
 30
0.0
 10
24.680559
 20
141.305923
 30
0.0
 10
24.421042
 20
141.684519
 30
0.0
 10
24.421042
 20
141.786333
 30
0.0
  0
SPLINE
  5
168
100
AcDbEntity
  8
0
 62
7
100
AcDbSpline
 70
8
 71
3
 72
8
 73
4
 74
0
 40
0
 40
0
 40
0
 40
0
 40
1
 40
1
 40
1
 40
1
 10
24.421042
 20
141.786333
 30
0.0
 10
24.421042
 20
142.033800
 30
0.0
 10
22.788503
 20
142.509528
 30
0.0
 10
21.942778
 20
142.509528
 30
0.0
  0
SPLINE
  5
169
100
AcDbEntity
  8
0
 62
7
100
AcDbSpline
 70
8
 71
3
 72
8
 73
4
 74
0
 40
0
 40
0
 40
0
 40
0
 40
1
 40
1
 40
1
 40
1
 10
21.942778
 20
142.509528
 30
0.0
 10
21.529181
 20
142.509528
 30
0.0
 10
20.929792
 20
142.788239
 30
0.0
 10
20.390556
 20
143.232722
 30
0.0
  0
SPLINE
  5
16a
100
AcDbEntity
  8
0
 62
7
100
AcDbSpline
 70
8
 71
3
 72
8
 73
4
 74
0
 40
0
 40
0
 40
0
 40
0
 40
1
 40
1
 40
1
 40
1
 10
20.390556
 20
143.232722
 30
0.0
 10
19.609885
 20
143.876217
 30
0.0
 10
19.386207
 20
143.948743
 30
0.0
 10
18.432639
 20
143.841264
 30
0.0
  0
SPLINE
  5
16b
100
AcDbEntity
  8
0
 62
7
100
AcDbSpline
 70
8
 71
3
 72
8
 73
4
 74
0
 40
0
 40
0
 40
0
 40
0
 40
1
 40
1
 40
1
 40
1
 10
18.432639
 20
143.841264
 30
0.0
 10
17.840871
 20
143.774561
 30
0.0
 10
17.245362
 20
143.578428
 30
0.0
 10
17.109722
 20
143.400292
 30
0.0
  0
SPLINE
  5
16c
100
AcDbEntity
  8
0
 62
7
100
AcDbSpline
 70
8
 71
3
 72
8
 73
4
 74
0
 40
0
 40
0
 40
0
 40
0
 40
1
 40
1
 40
1
 40
1
 10
17.109722
 20
143.400292
 30
0.0
 10
16.974082
 20
143.222156
 30
0.0
 10
16.469144
 20
142.828783
 30
0.0
 10
15.989653
 20
142.535986
 30
0.0
  0
SPLINE
  5
16d
100
AcDbEntity
  8
0
 62
7
100
AcDbSpline
 70
8
 71
3
 72
8
 73
4
 74
0
 40
0
 40
0
 40
0
 40
0
 40
1
 40
1
 40
1
 40
1
 10
15.989653
 20
142.535986
 30
0.0
 10
15.510161
 20
142.243189
 30
0.0
 10
15.116528
 20
141.928449
 30
0.0
 10
15.116528
 20
141.830431
 30
0.0
  0
SPLINE
  5
16e
100
AcDbEntity
  8
0
 62
7
100
AcDbSpline
 70
8
 71
3
 72
8
 73
4
 74
0
 40
0
 40
0
 40
0
 40
0
 40
1
 40
1
 40
1
 40
1
 10
15.116528
 20
141.830431
 30
0.0
 10
15.116528
 20
141.732415
 30
0.0
 10
14.701943
 20
141.461340
 30
0.0
 10
14.190486
 20
141.230708
 30
0.0
  0
SPLINE
  5
16f
100
AcDbEntity
  8
0
 62
7
100
AcDbSpline
 70
8
 71
3
 72
8
 73
4
 74
0
 40
0
 40
0
 40
0
 40
0
 40
1
 40
1
 40
1
 40
1
 10
14.190486
 20
141.230708
 30
0.0
 10
13.679029
 20
141.000074
 30
0.0
 10
13.255625
 20
140.721788
 30
0.0
 10
13.255625
 20
140.613347
 30
0.0
  0
SPLINE
  5
170
100
AcDbEntity
  8
0
 62
7
100
AcDbSpline
 70
8
 71
3
 72
8
 73
4
 74
0
 40
0
 40
0
 40
0
 40
0
 40
1
 40
1
 40
1
 40
1
 10
13.255625
 20
140.613347
 30
0.0
 10
13.255625
 20
140.504901
 30
0.0
 10
13.136867
 20
140.419320
 30
0.0
 10
12.991042
 20
140.419320
 30
0.0
  0
SPLINE
  5
171
100
AcDbEntity
  8
0
 62
7
100
AcDbSpline
 70
8
 71
3
 72
8
 73
4
 74
0
 40
0
 40
0
 40
0
 40
0
 40
1
 40
1
 40
1
 40
1
 10
12.991042
 20
140.419320
 30
0.0
 10
12.527559
 20
140.419320
 30
0.0
 10
10.599697
 20
139.383886
 30
0.0
 10
10.292292
 20
138.972931
 30
0.0
  0
SPLINE
  5
172
100
AcDbEntity
  8
0
 62
7
100
AcDbSpline
 70
8
 71
3
 72
8
 73
4
 74
0
 40
0
 40
0
 40
0
 40
0
 40
1
 40
1
 40
1
 40
1
 10
10.292292
 20
138.972931
 30
0.0
 10
10.129613
 20
138.755453
 30
0.0
 10
9.837214
 20
138.429659
 30
0.0
 10
9.648472
 20
138.240917
 30
0.0
  0
SPLINE
  5
173
100
AcDbEntity
  8
0
 62
7
100
AcDbSpline
 70
8
 71
3
 72
8
 73
4
 74
0
 40
0
 40
0
 40
0
 40
0
 40
1
 40
1
 40
1
 40
1
 10
9.648472
 20
138.240917
 30
0.0
 10
9.268430
 20
137.860876
 30
0.0
 10
8.607778
 20
135.026174
 30
0.0
 10
8.607778
 20
133.778278
 30
0.0
  0
SPLINE
  5
174
100
AcDbEntity
  8
0
 62
7
100
AcDbSpline
 70
8
 71
3
 72
8
 73
4
 74
0
 40
0
 40
0
 40
0
 40
0
 40
1
 40
1
 40
1
 40
1
 10
8.607778
 20
133.778278
 30
0.0
 10
8.607778
 20
133.339112
 30
0.0
 10
8.506336
 20
132.975708
 30
0.0
 10
8.378472
 20
132.975708
 30
0.0
  0
SPLINE
  5
175
100
AcDbEntity
  8
0
 62
7
100
AcDbSpline
 70
8
 71
3
 72
8
 73
4
 74
0
 40
0
 40
0
 40
0
 40
0
 40
1
 40
1
 40
1
 40
1
 10
8.378472
 20
132.975708
 30
0.0
 10
8.250608
 20
132.975708
 30
0.0
 10
8.140347
 20
132.823545
 30
0.0
 10
8.140347
 20
132.631750
 30
0.0
  0
SPLINE
  5
176
100
AcDbEntity
  8
0
 62
7
100
AcDbSpline
 70
8
 71
3
 72
8
 73
4
 74
0
 40
0
 40
0
 40
0
 40
0
 40
1
 40
1
 40
1
 40
1
 10
8.140347
 20
132.631750
 30
0.0
 10
8.140347
 20
132.439952
 30
0.0
 10
8.241586
 20
132.278972
 30
0.0
 10
8.360833
 20
132.278972
 30
0.0
  0
SPLINE
  5
177
100
AcDbEntity
  8
0
 62
7
100
AcDbSpline
 70
8
 71
3
 72
8
 73
4
 74
0
 40
0
 40
0
 40
0
 40
0
 40
1
 40
1
 40
1
 40
1
 10
8.360833
 20
132.278972
 30
0.0
 10
8.480081
 20
132.278972
 30
0.0
 10
8.649230
 20
132.046320
 30
0.0
 10
8.740069
 20
131.758625
 30
0.0
  0
SPLINE
  5
178
100
AcDbEntity
  8
0
 62
7
100
AcDbSpline
 70
8
 71
3
 72
8
 73
4
 74
0
 40
0
 40
0
 40
0
 40
0
 40
1
 40
1
 40
1
 40
1
 10
8.740069
 20
131.758625
 30
0.0
 10
8.908603
 20
131.224867
 30
0.0
 10
9.689098
 20
130.418070
 30
0.0
 10
10.036528
 20
130.418070
 30
0.0
  0
SPLINE
  5
179
100
AcDbEntity
  8
0
 62
7
100
AcDbSpline
 70
8
 71
3
 72
8
 73
4
 74
0
 40
0
 40
0
 40
0
 40
0
 40
1
 40
1
 40
1
 40
1
 10
10.036528
 20
130.418070
 30
0.0
 10
10.142392
 20
130.418070
 30
0.0
 10
10.291437
 20
130.164465
 30
0.0
 10
10.371667
 20
129.844806
 30
0.0
  0
SPLINE
  5
17a
100
AcDbEntity
  8
0
 62
7
100
AcDbSpline
 70
8
 71
3
 72
8
 73
4
 74
0
 40
0
 40
0
 40
0
 40
0
 40
1
 40
1
 40
1
 40
1
 10
10.371667
 20
129.844806
 30
0.0
 10
10.451897
 20
129.525144
 30
0.0
 10
10.650360
 20
129.262722
 30
0.0
 10
10.812639
 20
129.262722
 30
0.0
  0
SPLINE
  5
17b
100
AcDbEntity
  8
0
 62
7
100
AcDbSpline
 70
8
 71
3
 72
8
 73
4
 74
0
 40
0
 40
0
 40
0
 40
0
 40
1
 40
1
 40
1
 40
1
 10
10.812639
 20
129.262722
 30
0.0
 10
11.372470
 20
129.262722
 30
0.0
 10
11.689458
 20
128.552626
 30
0.0
 10
11.773958
 20
127.119597
 30
0.0
  0
SPLINE
  5
17c
100
AcDbEntity
  8
0
 62
7
100
AcDbSpline
 70
8
 71
3
 72
8
 73
4
 74
0
 40
0
 40
0
 40
0
 40
0
 40
1
 40
1
 40
1
 40
1
 10
11.773958
 20
127.119597
 30
0.0
 10
11.870322
 20
125.485373
 30
0.0
 10
12.044225
 20
124.801455
 30
0.0
 10
12.417778
 20
124.561958
 30
0.0
  0
SPLINE
  5
17d
100
AcDbEntity
  8
0
 62
7
100
AcDbSpline
 70
8
 71
3
 72
8
 73
4
 74
0
 40
0
 40
0
 40
0
 40
0
 40
1
 40
1
 40
1
 40
1
 10
12.417778
 20
124.561958
 30
0.0
 10
12.777872
 20
124.331092
 30
0.0
 10
12.690483
 20
120.969944
 30
0.0
 10
12.311944
 20
120.513833
 30
0.0
  0
SPLINE
  5
17e
100
AcDbEntity
  8
0
 62
7
100
AcDbSpline
 70
8
 71
3
 72
8
 73
4
 74
0
 40
0
 40
0
 40
0
 40
0
 40
1
 40
1
 40
1
 40
1
 10
12.311944
 20
120.513833
 30
0.0
 10
11.917513
 20
120.038571
 30
0.0
 10
11.947862
 20
112.854684
 30
0.0
 10
12.347222
 20
112.373486
 30
0.0
  0
SPLINE
  5
17f
100
AcDbEntity
  8
0
 62
7
100
AcDbSpline
 70
8
 71
3
 72
8
 73
4
 74
0
 40
0
 40
0
 40
0
 40
0
 40
1
 40
1
 40
1
 40
1
 10
12.347222
 20
112.373486
 30
0.0
 10
12.496622
 20
112.193471
 30
0.0
 10
12.691725
 20
111.451525
 30
0.0
 10
12.770556
 20
110.724250
 30
0.0
  0
LWPOLYLINE
  5
180
100
AcDbEntity
  8
0
 62
7
100
AcDbPolyline
 90
3
 70
0
 10
52.149375
 20
117.559320
 30
0.0
 10
51.470278
 20
117.206542
 30
0.0
 10
51.196875
 20
113.872792
 30
0.0
  0
SPLINE
  5
181
100
AcDbEntity
  8
0
 62
7
100
AcDbSpline
 70
8
 71
3
 72
8
 73
4
 74
0
 40
0
 40
0
 40
0
 40
0
 40
1
 40
1
 40
1
 40
1
 10
14.305139
 20
109.145570
 30
0.0
 10
16.472860
 20
108.746744
 30
0.0
 10
17.490627
 20
107.966078
 30
0.0
 10
17.788819
 20
106.473278
 30
0.0
  0
SPLINE
  5
182
100
AcDbEntity
  8
0
 62
7
100
AcDbSpline
 70
8
 71
3
 72
8
 73
4
 74
0
 40
0
 40
0
 40
0
 40
0
 40
1
 40
1
 40
1
 40
1
 10
17.788819
 20
106.473278
 30
0.0
 10
17.878214
 20
106.025752
 30
0.0
 10
18.100873
 20
105.209360
 30
0.0
 10
18.282708
 20
104.656472
 30
0.0
  0
SPLINE
  5
183
100
AcDbEntity
  8
0
 62
7
100
AcDbSpline
 70
8
 71
3
 72
8
 73
4
 74
0
 40
0
 40
0
 40
0
 40
0
 40
1
 40
1
 40
1
 40
1
 10
18.282708
 20
104.656472
 30
0.0
 10
18.464544
 20
104.103582
 30
0.0
 10
18.564694
 20
103.574175
 30
0.0
 10
18.503194
 20
103.474667
 30
0.0
  0
SPLINE
  5
184
100
AcDbEntity
  8
0
 62
7
100
AcDbSpline
 70
8
 71
3
 72
8
 73
4
 74
0
 40
0
 40
0
 40
0
 40
0
 40
1
 40
1
 40
1
 40
1
 10
18.503194
 20
103.474667
 30
0.0
 10
18.288642
 20
103.127511
 30
0.0
 10
14.984479
 20
103.007939
 30
0.0
 10
12.100278
 20
103.245361
 30
0.0
  0
SPLINE
  5
185
100
AcDbEntity
  8
0
 62
7
100
AcDbSpline
 70
8
 71
3
 72
8
 73
4
 74
0
 40
0
 40
0
 40
0
 40
0
 40
1
 40
1
 40
1
 40
1
 10
12.100278
 20
103.245361
 30
0.0
 10
9.639922
 20
103.447890
 30
0.0
 10
8.789574
 20
103.423887
 30
0.0
 10
6.561667
 20
103.077792
 30
0.0
  0
SPLINE
  5
186
100
AcDbEntity
  8
0
 62
7
100
AcDbSpline
 70
8
 71
3
 72
8
 73
4
 74
0
 40
0
 40
0
 40
0
 40
0
 40
1
 40
1
 40
1
 40
1
 10
6.561667
 20
103.077792
 30
0.0
 10
4.537103
 20
102.763286
 30
0.0
 10
3.876976
 20
102.571660
 30
0.0
 10
3.704167
 20
102.248764
 30
0.0
  0
SPLINE
  5
187
100
AcDbEntity
  8
0
 62
7
100
AcDbSpline
 70
8
 71
3
 72
8
 73
4
 74
0
 40
0
 40
0
 40
0
 40
0
 40
1
 40
1
 40
1
 40
1
 10
3.704167
 20
102.248764
 30
0.0
 10
3.534419
 20
101.931586
 30
0.0
 10
3.200394
 20
101.825431
 30
0.0
 10
2.337153
 20
101.825431
 30
0.0
  0
SPLINE
  5
188
100
AcDbEntity
  8
0
 62
7
100
AcDbSpline
 70
8
 71
3
 72
8
 73
4
 74
0
 40
0
 40
0
 40
0
 40
0
 40
1
 40
1
 40
1
 40
1
 10
2.337153
 20
101.825431
 30
0.0
 10
1.458411
 20
101.825431
 30
0.0
 10
1.056062
 20
101.701546
 30
0.0
 10
0.599722
 20
101.278625
 30
0.0
  0
SPLINE
  5
189
100
AcDbEntity
  8
0
 62
7
100
AcDbSpline
 70
8
 71
3
 72
8
 73
4
 74
0
 40
0
 40
0
 40
0
 40
0
 40
1
 40
1
 40
1
 40
1
 10
0.599722
 20
101.278625
 30
0.0
 10
0.021938
 20
100.743154
 30
0.0
 10
-0.200576
 20
99.964528
 30
0.0
 10
0.220486
 20
99.964528
 30
0.0
  0
SPLINE
  5
18a
100
AcDbEntity
  8
0
 62
7
100
AcDbSpline
 70
8
 71
3
 72
8
 73
4
 74
0
 40
0
 40
0
 40
0
 40
0
 40
1
 40
1
 40
1
 40
1
 10
0.220486
 20
99.964528
 30
0.0
 10
0.335842
 20
99.964528
 30
0.0
 10
0.526202
 20
99.681154
 30
0.0
 10
0.652639
 20
99.329528
 30
0.0
  0
SPLINE
  5
18b
100
AcDbEntity
  8
0
 62
7
100
AcDbSpline
 70
8
 71
3
 72
8
 73
4
 74
0
 40
0
 40
0
 40
0
 40
0
 40
1
 40
1
 40
1
 40
1
 10
0.652639
 20
99.329528
 30
0.0
 10
0.779076
 20
98.977902
 30
0.0
 10
1.288101
 20
98.346517
 30
0.0
 10
1.781528
 20
97.927236
 30
0.0
  0
SPLINE
  5
18c
100
AcDbEntity
  8
0
 62
7
100
AcDbSpline
 70
8
 71
3
 72
8
 73
4
 74
0
 40
0
 40
0
 40
0
 40
0
 40
1
 40
1
 40
1
 40
1
 10
1.781528
 20
97.927236
 30
0.0
 10
2.274955
 20
97.507958
 30
0.0
 10
3.039626
 20
96.851899
 30
0.0
 10
3.483681
 20
96.472028
 30
0.0
  0
SPLINE
  5
18d
100
AcDbEntity
  8
0
 62
7
100
AcDbSpline
 70
8
 71
3
 72
8
 73
4
 74
0
 40
0
 40
0
 40
0
 40
0
 40
1
 40
1
 40
1
 40
1
 10
3.483681
 20
96.472028
 30
0.0
 10
3.927736
 20
96.092154
 30
0.0
 10
4.436437
 20
95.784111
 30
0.0
 10
4.603750
 20
95.784111
 30
0.0
  0
SPLINE
  5
18e
100
AcDbEntity
  8
0
 62
7
100
AcDbSpline
 70
8
 71
3
 72
8
 73
4
 74
0
 40
0
 40
0
 40
0
 40
0
 40
1
 40
1
 40
1
 40
1
 10
4.603750
 20
95.784111
 30
0.0
 10
4.771063
 20
95.784111
 30
0.0
 10
4.960977
 20
95.638882
 30
0.0
 10
5.027083
 20
95.466611
 30
0.0
  0
SPLINE
  5
18f
100
AcDbEntity
  8
0
 62
7
100
AcDbSpline
 70
8
 71
3
 72
8
 73
4
 74
0
 40
0
 40
0
 40
0
 40
0
 40
1
 40
1
 40
1
 40
1
 10
5.027083
 20
95.466611
 30
0.0
 10
5.093189
 20
95.294340
 30
0.0
 10
5.896601
 20
94.906457
 30
0.0
 10
6.817431
 20
94.602306
 30
0.0
  0
SPLINE
  5
190
100
AcDbEntity
  8
0
 62
7
100
AcDbSpline
 70
8
 71
3
 72
8
 73
4
 74
0
 40
0
 40
0
 40
0
 40
0
 40
1
 40
1
 40
1
 40
1
 10
6.817431
 20
94.602306
 30
0.0
 10
7.738260
 20
94.298152
 30
0.0
 10
8.610006
 20
93.941375
 30
0.0
 10
8.748889
 20
93.808556
 30
0.0
  0
SPLINE
  5
191
100
AcDbEntity
  8
0
 62
7
100
AcDbSpline
 70
8
 71
3
 72
8
 73
4
 74
0
 40
0
 40
0
 40
0
 40
0
 40
1
 40
1
 40
1
 40
1
 10
8.748889
 20
93.808556
 30
0.0
 10
8.887771
 20
93.675742
 30
0.0
 10
9.776480
 20
93.363827
 30
0.0
 10
10.724444
 20
93.120639
 30
0.0
  0
SPLINE
  5
192
100
AcDbEntity
  8
0
 62
7
100
AcDbSpline
 70
8
 71
3
 72
8
 73
4
 74
0
 40
0
 40
0
 40
0
 40
0
 40
1
 40
1
 40
1
 40
1
 10
10.724444
 20
93.120639
 30
0.0
 10
11.672408
 20
92.877454
 30
0.0
 10
12.494957
 20
92.615910
 30
0.0
 10
12.558889
 20
92.529736
 30
0.0
  0
SPLINE
  5
193
100
AcDbEntity
  8
0
 62
7
100
AcDbSpline
 70
8
 71
3
 72
8
 73
4
 74
0
 40
0
 40
0
 40
0
 40
0
 40
1
 40
1
 40
1
 40
1
 10
12.558889
 20
92.529736
 30
0.0
 10
12.622821
 20
92.443562
 30
0.0
 10
13.511530
 20
92.241314
 30
0.0
 10
14.534444
 20
92.088764
 30
0.0
  0
SPLINE
  5
194
100
AcDbEntity
  8
0
 62
7
100
AcDbSpline
 70
8
 71
3
 72
8
 73
4
 74
0
 40
0
 40
0
 40
0
 40
0
 40
1
 40
1
 40
1
 40
1
 10
14.534444
 20
92.088764
 30
0.0
 10
18.147539
 20
91.549928
 30
0.0
 10
19.535069
 20
91.285991
 30
0.0
 10
19.535069
 20
91.136264
 30
0.0
  0
SPLINE
  5
195
100
AcDbEntity
  8
0
 62
7
100
AcDbSpline
 70
8
 71
3
 72
8
 73
4
 74
0
 40
0
 40
0
 40
0
 40
0
 40
1
 40
1
 40
1
 40
1
 10
19.535069
 20
91.136264
 30
0.0
 10
19.535069
 20
91.052989
 30
0.0
 10
19.767722
 20
90.739321
 30
0.0
 10
20.055417
 20
90.430708
 30
0.0
  0
SPLINE
  5
196
100
AcDbEntity
  8
0
 62
7
100
AcDbSpline
 70
8
 71
3
 72
8
 73
4
 74
0
 40
0
 40
0
 40
0
 40
0
 40
1
 40
1
 40
1
 40
1
 10
20.055417
 20
90.430708
 30
0.0
 10
20.503653
 20
89.949881
 30
0.0
 10
20.587936
 20
89.588549
 30
0.0
 10
20.619861
 20
87.917167
 30
0.0
  0
SPLINE
  5
197
100
AcDbEntity
  8
0
 62
7
100
AcDbSpline
 70
8
 71
3
 72
8
 73
4
 74
0
 40
0
 40
0
 40
0
 40
0
 40
1
 40
1
 40
1
 40
1
 10
20.619861
 20
87.917167
 30
0.0
 10
20.640351
 20
86.844409
 30
0.0
 10
20.716970
 20
85.614555
 30
0.0
 10
20.796250
 20
85.191958
 30
0.0
  0
SPLINE
  5
198
100
AcDbEntity
  8
0
 62
7
100
AcDbSpline
 70
8
 71
3
 72
8
 73
4
 74
0
 40
0
 40
0
 40
0
 40
0
 40
1
 40
1
 40
1
 40
1
 10
20.796250
 20
85.191958
 30
0.0
 10
20.950078
 20
84.371984
 30
0.0
 10
22.724378
 20
82.379724
 30
0.0
 10
24.182917
 20
81.381958
 30
0.0
  0
SPLINE
  5
199
100
AcDbEntity
  8
0
 62
7
100
AcDbSpline
 70
8
 71
3
 72
8
 73
4
 74
0
 40
0
 40
0
 40
0
 40
0
 40
1
 40
1
 40
1
 40
1
 10
24.182917
 20
81.381958
 30
0.0
 10
24.630442
 20
81.075815
 30
0.0
 10
25.497138
 20
80.293890
 30
0.0
 10
26.105556
 20
79.644528
 30
0.0
  0
SPLINE
  5
19a
100
AcDbEntity
  8
0
 62
7
100
AcDbSpline
 70
8
 71
3
 72
8
 73
4
 74
0
 40
0
 40
0
 40
0
 40
0
 40
1
 40
1
 40
1
 40
1
 10
26.105556
 20
79.644528
 30
0.0
 10
26.713973
 20
78.995166
 30
0.0
 10
27.572911
 20
78.080565
 30
0.0
 10
28.019375
 20
77.616056
 30
0.0
  0
SPLINE
  5
19b
100
AcDbEntity
  8
0
 62
7
100
AcDbSpline
 70
8
 71
3
 72
8
 73
4
 74
0
 40
0
 40
0
 40
0
 40
0
 40
1
 40
1
 40
1
 40
1
 10
28.019375
 20
77.616056
 30
0.0
 10
28.465839
 20
77.151543
 30
0.0
 10
28.830764
 20
76.668221
 30
0.0
 10
28.830764
 20
76.540083
 30
0.0
  0
SPLINE
  5
19c
100
AcDbEntity
  8
0
 62
7
100
AcDbSpline
 70
8
 71
3
 72
8
 73
4
 74
0
 40
0
 40
0
 40
0
 40
0
 40
1
 40
1
 40
1
 40
1
 10
28.830764
 20
76.540083
 30
0.0
 10
28.830764
 20
76.411946
 30
0.0
 10
29.093188
 20
76.132171
 30
0.0
 10
29.412847
 20
75.922722
 30
0.0
  0
SPLINE
  5
19d
100
AcDbEntity
  8
0
 62
7
100
AcDbSpline
 70
8
 71
3
 72
8
 73
4
 74
0
 40
0
 40
0
 40
0
 40
0
 40
1
 40
1
 40
1
 40
1
 10
29.412847
 20
75.922722
 30
0.0
 10
29.732509
 20
75.713271
 30
0.0
 10
29.994931
 20
75.398765
 30
0.0
 10
29.994931
 20
75.217167
 30
0.0
  0
SPLINE
  5
19e
100
AcDbEntity
  8
0
 62
7
100
AcDbSpline
 70
8
 71
3
 72
8
 73
4
 74
0
 40
0
 40
0
 40
0
 40
0
 40
1
 40
1
 40
1
 40
1
 10
29.994931
 20
75.217167
 30
0.0
 10
29.994931
 20
75.035571
 30
0.0
 10
30.193302
 20
74.743270
 30
0.0
 10
30.435903
 20
74.573347
 30
0.0
  0
SPLINE
  5
19f
100
AcDbEntity
  8
0
 62
7
100
AcDbSpline
 70
8
 71
3
 72
8
 73
4
 74
0
 40
0
 40
0
 40
0
 40
0
 40
1
 40
1
 40
1
 40
1
 10
30.435903
 20
74.573347
 30
0.0
 10
30.678504
 20
74.403421
 30
0.0
 10
31.106638
 20
73.826285
 30
0.0
 10
31.388403
 20
73.285708
 30
0.0
  0
SPLINE
  5
1a0
100
AcDbEntity
  8
0
 62
7
100
AcDbSpline
 70
8
 71
3
 72
8
 73
4
 74
0
 40
0
 40
0
 40
0
 40
0
 40
1
 40
1
 40
1
 40
1
 10
31.388403
 20
73.285708
 30
0.0
 10
31.670168
 20
72.745129
 30
0.0
 10
31.991512
 20
72.297931
 30
0.0
 10
32.093958
 20
72.297931
 30
0.0
  0
SPLINE
  5
1a1
100
AcDbEntity
  8
0
 62
7
100
AcDbSpline
 70
8
 71
3
 72
8
 73
4
 74
0
 40
0
 40
0
 40
0
 40
0
 40
1
 40
1
 40
1
 40
1
 10
32.093958
 20
72.297931
 30
0.0
 10
32.196405
 20
72.297931
 30
0.0
 10
32.383199
 20
72.004654
 30
0.0
 10
32.508472
 20
71.645292
 30
0.0
  0
SPLINE
  5
1a2
100
AcDbEntity
  8
0
 62
7
100
AcDbSpline
 70
8
 71
3
 72
8
 73
4
 74
0
 40
0
 40
0
 40
0
 40
0
 40
1
 40
1
 40
1
 40
1
 10
32.508472
 20
71.645292
 30
0.0
 10
32.633748
 20
71.285930
 30
0.0
 10
32.894744
 20
70.835687
 30
0.0
 10
33.090556
 20
70.639875
 30
0.0
  0
SPLINE
  5
1a3
100
AcDbEntity
  8
0
 62
7
100
AcDbSpline
 70
8
 71
3
 72
8
 73
4
 74
0
 40
0
 40
0
 40
0
 40
0
 40
1
 40
1
 40
1
 40
1
 10
33.090556
 20
70.639875
 30
0.0
 10
33.286367
 20
70.444064
 30
0.0
 10
33.657303
 20
69.885695
 30
0.0
 10
33.919583
 20
69.396333
 30
0.0
  0
SPLINE
  5
1a4
100
AcDbEntity
  8
0
 62
7
100
AcDbSpline
 70
8
 71
3
 72
8
 73
4
 74
0
 40
0
 40
0
 40
0
 40
0
 40
1
 40
1
 40
1
 40
1
 10
33.919583
 20
69.396333
 30
0.0
 10
34.181867
 20
68.906971
 30
0.0
 10
34.480613
 20
68.438739
 30
0.0
 10
34.581042
 20
68.364458
 30
0.0
  0
SPLINE
  5
1a5
100
AcDbEntity
  8
0
 62
7
100
AcDbSpline
 70
8
 71
3
 72
8
 73
4
 74
0
 40
0
 40
0
 40
0
 40
0
 40
1
 40
1
 40
1
 40
1
 10
34.581042
 20
68.364458
 30
0.0
 10
34.681470
 20
68.290180
 30
0.0
 10
35.028672
 20
67.727023
 30
0.0
 10
35.348333
 20
67.112097
 30
0.0
  0
SPLINE
  5
1a6
100
AcDbEntity
  8
0
 62
7
100
AcDbSpline
 70
8
 71
3
 72
8
 73
4
 74
0
 40
0
 40
0
 40
0
 40
0
 40
1
 40
1
 40
1
 40
1
 10
35.348333
 20
67.112097
 30
0.0
 10
35.805737
 20
66.232196
 30
0.0
 10
36.163781
 20
65.889079
 30
0.0
 10
37.032847
 20
65.489320
 30
0.0
  0
SPLINE
  5
1a7
100
AcDbEntity
  8
0
 62
7
100
AcDbSpline
 70
8
 71
3
 72
8
 73
4
 74
0
 40
0
 40
0
 40
0
 40
0
 40
1
 40
1
 40
1
 40
1
 10
37.032847
 20
65.489320
 30
0.0
 10
37.640201
 20
65.209945
 30
0.0
 10
38.135278
 20
64.898050
 30
0.0
 10
38.135278
 20
64.801403
 30
0.0
  0
SPLINE
  5
1a8
100
AcDbEntity
  8
0
 62
7
100
AcDbSpline
 70
8
 71
3
 72
8
 73
4
 74
0
 40
0
 40
0
 40
0
 40
0
 40
1
 40
1
 40
1
 40
1
 10
38.135278
 20
64.801403
 30
0.0
 10
38.135278
 20
64.704756
 30
0.0
 10
39.125429
 20
64.633833
 30
0.0
 10
40.340139
 20
64.633833
 30
0.0
  0
SPLINE
  5
1a9
100
AcDbEntity
  8
0
 62
7
100
AcDbSpline
 70
8
 71
3
 72
8
 73
4
 74
0
 40
0
 40
0
 40
0
 40
0
 40
1
 40
1
 40
1
 40
1
 10
40.340139
 20
64.633833
 30
0.0
 10
41.554852
 20
64.633833
 30
0.0
 10
42.553819
 20
64.715350
 30
0.0
 10
42.553819
 20
64.819042
 30
0.0
  0
SPLINE
  5
1aa
100
AcDbEntity
  8
0
 62
7
100
AcDbSpline
 70
8
 71
3
 72
8
 73
4
 74
0
 40
0
 40
0
 40
0
 40
0
 40
1
 40
1
 40
1
 40
1
 10
42.553819
 20
64.819042
 30
0.0
 10
42.553819
 20
64.922733
 30
0.0
 10
43.081719
 20
65.138785
 30
0.0
 10
43.726806
 20
65.304111
 30
0.0
  0
SPLINE
  5
1ab
100
AcDbEntity
  8
0
 62
7
100
AcDbSpline
 70
8
 71
3
 72
8
 73
4
 74
0
 40
0
 40
0
 40
0
 40
0
 40
1
 40
1
 40
1
 40
1
 10
43.726806
 20
65.304111
 30
0.0
 10
44.489610
 20
65.499612
 30
0.0
 10
45.024015
 20
65.806142
 30
0.0
 10
45.261389
 20
66.168417
 30
0.0
  0
SPLINE
  5
1ac
100
AcDbEntity
  8
0
 62
7
100
AcDbSpline
 70
8
 71
3
 72
8
 73
4
 74
0
 40
0
 40
0
 40
0
 40
0
 40
1
 40
1
 40
1
 40
1
 10
45.261389
 20
66.168417
 30
0.0
 10
45.462128
 20
66.474786
 30
0.0
 10
45.742445
 20
66.723808
 30
0.0
 10
45.887569
 20
66.724042
 30
0.0
  0
SPLINE
  5
1ad
100
AcDbEntity
  8
0
 62
7
100
AcDbSpline
 70
8
 71
3
 72
8
 73
4
 74
0
 40
0
 40
0
 40
0
 40
0
 40
1
 40
1
 40
1
 40
1
 10
45.887569
 20
66.724042
 30
0.0
 10
46.164379
 20
66.724601
 30
0.0
 10
48.845651
 20
69.472835
 30
0.0
 10
49.644653
 20
70.578139
 30
0.0
  0
SPLINE
  5
1ae
100
AcDbEntity
  8
0
 62
7
100
AcDbSpline
 70
8
 71
3
 72
8
 73
4
 74
0
 40
0
 40
0
 40
0
 40
0
 40
1
 40
1
 40
1
 40
1
 10
49.644653
 20
70.578139
 30
0.0
 10
49.900383
 20
70.931902
 30
0.0
 10
50.431339
 20
71.543449
 30
0.0
 10
50.826458
 20
71.936333
 30
0.0
  0
SPLINE
  5
1af
100
AcDbEntity
  8
0
 62
7
100
AcDbSpline
 70
8
 71
3
 72
8
 73
4
 74
0
 40
0
 40
0
 40
0
 40
0
 40
1
 40
1
 40
1
 40
1
 10
50.826458
 20
71.936333
 30
0.0
 10
51.221581
 20
72.329218
 30
0.0
 10
51.610407
 20
72.832640
 30
0.0
 10
51.690764
 20
73.056403
 30
0.0
  0
SPLINE
  5
1b0
100
AcDbEntity
  8
0
 62
7
100
AcDbSpline
 70
8
 71
3
 72
8
 73
4
 74
0
 40
0
 40
0
 40
0
 40
0
 40
1
 40
1
 40
1
 40
1
 10
51.690764
 20
73.056403
 30
0.0
 10
51.771121
 20
73.280166
 30
0.0
 10
51.979113
 20
73.462097
 30
0.0
 10
52.158194
 20
73.462097
 30
0.0
  0
SPLINE
  5
1b1
100
AcDbEntity
  8
0
 62
7
100
AcDbSpline
 70
8
 71
3
 72
8
 73
4
 74
0
 40
0
 40
0
 40
0
 40
0
 40
1
 40
1
 40
1
 40
1
 10
52.158194
 20
73.462097
 30
0.0
 10
52.572646
 20
73.462097
 30
0.0
 10
52.772254
 20
72.283817
 30
0.0
 10
52.775556
 20
69.802028
 30
0.0
  0
SPLINE
  5
1b2
100
AcDbEntity
  8
0
 62
7
100
AcDbSpline
 70
8
 71
3
 72
8
 73
4
 74
0
 40
0
 40
0
 40
0
 40
0
 40
1
 40
1
 40
1
 40
1
 10
52.775556
 20
69.802028
 30
0.0
 10
52.777054
 20
68.680076
 30
0.0
 10
52.877686
 20
67.888208
 30
0.0
 10
53.013681
 20
67.888208
 30
0.0
  0
SPLINE
  5
1b3
100
AcDbEntity
  8
0
 62
7
100
AcDbSpline
 70
8
 71
3
 72
8
 73
4
 74
0
 40
0
 40
0
 40
0
 40
0
 40
1
 40
1
 40
1
 40
1
 10
53.013681
 20
67.888208
 30
0.0
 10
53.141544
 20
67.888208
 30
0.0
 10
53.242986
 20
67.414084
 30
0.0
 10
53.242986
 20
66.838695
 30
0.0
  0
SPLINE
  5
1b4
100
AcDbEntity
  8
0
 62
7
100
AcDbSpline
 70
8
 71
3
 72
8
 73
4
 74
0
 40
0
 40
0
 40
0
 40
0
 40
1
 40
1
 40
1
 40
1
 10
53.242986
 20
66.838695
 30
0.0
 10
53.242986
 20
66.263306
 30
0.0
 10
53.153090
 20
65.789181
 30
0.0
 10
53.040139
 20
65.789181
 30
0.0
  0
SPLINE
  5
1b5
100
AcDbEntity
  8
0
 62
7
100
AcDbSpline
 70
8
 71
3
 72
8
 73
4
 74
0
 40
0
 40
0
 40
0
 40
0
 40
1
 40
1
 40
1
 40
1
 10
53.040139
 20
65.789181
 30
0.0
 10
52.927191
 20
65.789181
 30
0.0
 10
52.784415
 20
65.602076
 30
0.0
 10
52.722639
 20
65.365847
 30
0.0
  0
SPLINE
  5
1b6
100
AcDbEntity
  8
0
 62
7
100
AcDbSpline
 70
8
 71
3
 72
8
 73
4
 74
0
 40
0
 40
0
 40
0
 40
0
 40
1
 40
1
 40
1
 40
1
 10
52.722639
 20
65.365847
 30
0.0
 10
52.609273
 20
64.932343
 30
0.0
 10
51.572710
 20
64.639337
 30
0.0
 10
50.129722
 20
64.633833
 30
0.0
  0
LWPOLYLINE
  5
1b7
100
AcDbEntity
  8
0
 62
7
100
AcDbPolyline
 90
3
 70
0
 10
12.770556
 20
110.724250
 30
0.0
 10
12.911667
 20
109.401333
 30
0.0
 10
14.305139
 20
109.145570
 30
0.0
  0
SPLINE
  5
1b8
100
AcDbEntity
  8
0
 62
7
100
AcDbSpline
 70
8
 71
3
 72
8
 73
4
 74
0
 40
0
 40
0
 40
0
 40
0
 40
1
 40
1
 40
1
 40
1
 10
49.618194
 20
62.367236
 30
0.0
 10
49.893093
 20
58.283311
 30
0.0
 10
50.008714
 20
57.664006
 30
0.0
 10
50.614792
 20
57.057931
 30
0.0
  0
SPLINE
  5
1b9
100
AcDbEntity
  8
0
 62
7
100
AcDbSpline
 70
8
 71
3
 72
8
 73
4
 74
0
 40
0
 40
0
 40
0
 40
0
 40
1
 40
1
 40
1
 40
1
 10
50.614792
 20
57.057931
 30
0.0
 10
51.303753
 20
56.368970
 30
0.0
 10
52.285770
 20
56.329605
 30
0.0
 10
53.013681
 20
56.960917
 30
0.0
  0
SPLINE
  5
1ba
100
AcDbEntity
  8
0
 62
7
100
AcDbSpline
 70
8
 71
3
 72
8
 73
4
 74
0
 40
0
 40
0
 40
0
 40
0
 40
1
 40
1
 40
1
 40
1
 10
53.013681
 20
56.960917
 30
0.0
 10
53.308538
 20
57.216647
 30
0.0
 10
53.737564
 20
57.419528
 30
0.0
 10
53.966181
 20
57.419528
 30
0.0
  0
SPLINE
  5
1bb
100
AcDbEntity
  8
0
 62
7
100
AcDbSpline
 70
8
 71
3
 72
8
 73
4
 74
0
 40
0
 40
0
 40
0
 40
0
 40
1
 40
1
 40
1
 40
1
 10
53.966181
 20
57.419528
 30
0.0
 10
54.194800
 20
57.419528
 30
0.0
 10
54.442783
 20
57.529789
 30
0.0
 10
54.521806
 20
57.657653
 30
0.0
  0
SPLINE
  5
1bc
100
AcDbEntity
  8
0
 62
7
100
AcDbSpline
 70
8
 71
3
 72
8
 73
4
 74
0
 40
0
 40
0
 40
0
 40
0
 40
1
 40
1
 40
1
 40
1
 10
54.521806
 20
57.657653
 30
0.0
 10
54.600831
 20
57.785516
 30
0.0
 10
54.970897
 20
57.886958
 30
0.0
 10
55.342014
 20
57.886958
 30
0.0
  0
SPLINE
  5
1bd
100
AcDbEntity
  8
0
 62
7
100
AcDbSpline
 70
8
 71
3
 72
8
 73
4
 74
0
 40
0
 40
0
 40
0
 40
0
 40
1
 40
1
 40
1
 40
1
 10
55.342014
 20
57.886958
 30
0.0
 10
55.925215
 20
57.886958
 30
0.0
 10
56.048484
 20
57.767339
 30
0.0
 10
56.250417
 20
57.013833
 30
0.0
  0
SPLINE
  5
1be
100
AcDbEntity
  8
0
 62
7
100
AcDbSpline
 70
8
 71
3
 72
8
 73
4
 74
0
 40
0
 40
0
 40
0
 40
0
 40
1
 40
1
 40
1
 40
1
 10
56.250417
 20
57.013833
 30
0.0
 10
56.378915
 20
56.534341
 30
0.0
 10
56.552643
 20
55.544192
 30
0.0
 10
56.638472
 20
54.808972
 30
0.0
  0
SPLINE
  5
1bf
100
AcDbEntity
  8
0
 62
7
100
AcDbSpline
 70
8
 71
3
 72
8
 73
4
 74
0
 40
0
 40
0
 40
0
 40
0
 40
1
 40
1
 40
1
 40
1
 10
56.638472
 20
54.808972
 30
0.0
 10
56.724304
 20
54.073752
 30
0.0
 10
56.876781
 20
53.468417
 30
0.0
 10
56.973611
 20
53.468417
 30
0.0
  0
SPLINE
  5
1c0
100
AcDbEntity
  8
0
 62
7
100
AcDbSpline
 70
8
 71
3
 72
8
 73
4
 74
0
 40
0
 40
0
 40
0
 40
0
 40
1
 40
1
 40
1
 40
1
 10
56.973611
 20
53.468417
 30
0.0
 10
57.070439
 20
53.468417
 30
0.0
 10
57.197540
 20
53.074782
 30
0.0
 10
57.255833
 20
52.595292
 30
0.0
  0
SPLINE
  5
1c1
100
AcDbEntity
  8
0
 62
7
100
AcDbSpline
 70
8
 71
3
 72
8
 73
4
 74
0
 40
0
 40
0
 40
0
 40
0
 40
1
 40
1
 40
1
 40
1
 10
57.255833
 20
52.595292
 30
0.0
 10
57.529798
 20
50.341880
 30
0.0
 10
58.234332
 20
46.830705
 30
0.0
 10
58.437639
 20
46.695083
 30
0.0
  0
SPLINE
  5
1c2
100
AcDbEntity
  8
0
 62
7
100
AcDbSpline
 70
8
 71
3
 72
8
 73
4
 74
0
 40
0
 40
0
 40
0
 40
0
 40
1
 40
1
 40
1
 40
1
 10
58.437639
 20
46.695083
 30
0.0
 10
58.562246
 20
46.611963
 30
0.0
 10
58.710401
 20
45.485801
 30
0.0
 10
58.772778
 20
44.190361
 30
0.0
  0
SPLINE
  5
1c3
100
AcDbEntity
  8
0
 62
7
100
AcDbSpline
 70
8
 71
3
 72
8
 73
4
 74
0
 40
0
 40
0
 40
0
 40
0
 40
1
 40
1
 40
1
 40
1
 10
58.772778
 20
44.190361
 30
0.0
 10
58.835160
 20
42.894922
 30
0.0
 10
58.949934
 20
41.898189
 30
0.0
 10
59.028542
 20
41.976681
 30
0.0
  0
SPLINE
  5
1c4
100
AcDbEntity
  8
0
 62
7
100
AcDbSpline
 70
8
 71
3
 72
8
 73
4
 74
0
 40
0
 40
0
 40
0
 40
0
 40
1
 40
1
 40
1
 40
1
 10
59.028542
 20
41.976681
 30
0.0
 10
59.107152
 20
42.055175
 30
0.0
 10
59.235560
 20
42.868190
 30
0.0
 10
59.310764
 20
43.784667
 30
0.0
  0
SPLINE
  5
1c5
100
AcDbEntity
  8
0
 62
7
100
AcDbSpline
 70
8
 71
3
 72
8
 73
4
 74
0
 40
0
 40
0
 40
0
 40
0
 40
1
 40
1
 40
1
 40
1
 10
59.310764
 20
43.784667
 30
0.0
 10
59.469709
 20
45.721713
 30
0.0
 10
60.028746
 20
48.591264
 30
0.0
 10
60.245625
 20
48.591264
 30
0.0
  0
SPLINE
  5
1c6
100
AcDbEntity
  8
0
 62
7
100
AcDbSpline
 70
8
 71
3
 72
8
 73
4
 74
0
 40
0
 40
0
 40
0
 40
0
 40
1
 40
1
 40
1
 40
1
 10
60.245625
 20
48.591264
 30
0.0
 10
60.327712
 20
48.591264
 30
0.0
 10
60.524576
 20
49.062095
 30
0.0
 10
60.686597
 20
49.640778
 30
0.0
  0
SPLINE
  5
1c7
100
AcDbEntity
  8
0
 62
7
100
AcDbSpline
 70
8
 71
3
 72
8
 73
4
 74
0
 40
0
 40
0
 40
0
 40
0
 40
1
 40
1
 40
1
 40
1
 10
60.686597
 20
49.640778
 30
0.0
 10
61.037967
 20
50.895738
 30
0.0
 10
61.336338
 20
51.137479
 30
0.0
 10
61.789028
 20
50.540361
 30
0.0
  0
SPLINE
  5
1c8
100
AcDbEntity
  8
0
 62
7
100
AcDbSpline
 70
8
 71
3
 72
8
 73
4
 74
0
 40
0
 40
0
 40
0
 40
0
 40
1
 40
1
 40
1
 40
1
 10
61.789028
 20
50.540361
 30
0.0
 10
62.089120
 20
50.144522
 30
0.0
 10
62.104422
 20
50.234032
 30
0.0
 10
61.956597
 20
51.378208
 30
0.0
  0
SPLINE
  5
1c9
100
AcDbEntity
  8
0
 62
7
100
AcDbSpline
 70
8
 71
3
 72
8
 73
4
 74
0
 40
0
 40
0
 40
0
 40
0
 40
1
 40
1
 40
1
 40
1
 10
61.956597
 20
51.378208
 30
0.0
 10
61.865736
 20
52.081461
 30
0.0
 10
61.699165
 20
52.693782
 30
0.0
 10
61.586181
 20
52.736403
 30
0.0
  0
SPLINE
  5
1ca
100
AcDbEntity
  8
0
 62
7
100
AcDbSpline
 70
8
 71
3
 72
8
 73
4
 74
0
 40
0
 40
0
 40
0
 40
0
 40
1
 40
1
 40
1
 40
1
 10
61.586181
 20
52.736403
 30
0.0
 10
61.310596
 20
52.840357
 30
0.0
 10
61.326847
 20
53.706542
 30
0.0
 10
61.603819
 20
53.706542
 30
0.0
  0
SPLINE
  5
1cb
100
AcDbEntity
  8
0
 62
7
100
AcDbSpline
 70
8
 71
3
 72
8
 73
4
 74
0
 40
0
 40
0
 40
0
 40
0
 40
1
 40
1
 40
1
 40
1
 10
61.603819
 20
53.706542
 30
0.0
 10
61.723964
 20
53.706542
 30
0.0
 10
61.855175
 20
54.065167
 30
0.0
 10
61.894861
 20
54.509111
 30
0.0
  0
SPLINE
  5
1cc
100
AcDbEntity
  8
0
 62
7
100
AcDbSpline
 70
8
 71
3
 72
8
 73
4
 74
0
 40
0
 40
0
 40
0
 40
0
 40
1
 40
1
 40
1
 40
1
 10
61.894861
 20
54.509111
 30
0.0
 10
61.948063
 20
55.104281
 30
0.0
 10
62.041834
 20
55.266020
 30
0.0
 10
62.265278
 20
55.126472
 30
0.0
  0
SPLINE
  5
1cd
100
AcDbEntity
  8
0
 62
7
100
AcDbSpline
 70
8
 71
3
 72
8
 73
4
 74
0
 40
0
 40
0
 40
0
 40
0
 40
1
 40
1
 40
1
 40
1
 10
62.265278
 20
55.126472
 30
0.0
 10
62.701511
 20
54.854026
 30
0.0
 10
63.200153
 20
52.541277
 30
0.0
 10
63.376528
 20
49.984736
 30
0.0
  0
SPLINE
  5
1ce
100
AcDbEntity
  8
0
 62
7
100
AcDbSpline
 70
8
 71
3
 72
8
 73
4
 74
0
 40
0
 40
0
 40
0
 40
0
 40
1
 40
1
 40
1
 40
1
 10
63.376528
 20
49.984736
 30
0.0
 10
63.506564
 20
48.099856
 30
0.0
 10
63.450433
 20
47.481973
 30
0.0
 10
62.997292
 20
45.795500
 30
0.0
  0
SPLINE
  5
1cf
100
AcDbEntity
  8
0
 62
7
100
AcDbSpline
 70
8
 71
3
 72
8
 73
4
 74
0
 40
0
 40
0
 40
0
 40
0
 40
1
 40
1
 40
1
 40
1
 10
62.997292
 20
45.795500
 30
0.0
 10
62.705262
 20
44.708654
 30
0.0
 10
62.401571
 20
43.769224
 30
0.0
 10
62.318194
 20
43.705292
 30
0.0
  0
SPLINE
  5
1d0
100
AcDbEntity
  8
0
 62
7
100
AcDbSpline
 70
8
 71
3
 72
8
 73
4
 74
0
 40
0
 40
0
 40
0
 40
0
 40
1
 40
1
 40
1
 40
1
 10
62.318194
 20
43.705292
 30
0.0
 10
62.146107
 20
43.573339
 30
0.0
 10
61.145208
 20
40.458926
 30
0.0
 10
61.145208
 20
40.054042
 30
0.0
  0
SPLINE
  5
1d1
100
AcDbEntity
  8
0
 62
7
100
AcDbSpline
 70
8
 71
3
 72
8
 73
4
 74
0
 40
0
 40
0
 40
0
 40
0
 40
1
 40
1
 40
1
 40
1
 10
61.145208
 20
40.054042
 30
0.0
 10
61.145208
 20
39.908474
 30
0.0
 10
61.038390
 20
39.753850
 30
0.0
 10
60.907083
 20
39.710083
 30
0.0
  0
SPLINE
  5
1d2
100
AcDbEntity
  8
0
 62
7
100
AcDbSpline
 70
8
 71
3
 72
8
 73
4
 74
0
 40
0
 40
0
 40
0
 40
0
 40
1
 40
1
 40
1
 40
1
 10
60.907083
 20
39.710083
 30
0.0
 10
60.775774
 20
39.666314
 30
0.0
 10
60.524858
 20
39.069117
 30
0.0
 10
60.342639
 20
38.378347
 30
0.0
  0
SPLINE
  5
1d3
100
AcDbEntity
  8
0
 62
7
100
AcDbSpline
 70
8
 71
3
 72
8
 73
4
 74
0
 40
0
 40
0
 40
0
 40
0
 40
1
 40
1
 40
1
 40
1
 10
60.342639
 20
38.378347
 30
0.0
 10
60.160416
 20
37.687577
 30
0.0
 10
59.924321
 20
37.060141
 30
0.0
 10
59.822292
 20
36.984875
 30
0.0
  0
SPLINE
  5
1d4
100
AcDbEntity
  8
0
 62
7
100
AcDbSpline
 70
8
 71
3
 72
8
 73
4
 74
0
 40
0
 40
0
 40
0
 40
0
 40
1
 40
1
 40
1
 40
1
 10
59.822292
 20
36.984875
 30
0.0
 10
59.560248
 20
36.791564
 30
0.0
 10
58.825694
 20
35.151390
 30
0.0
 10
58.825694
 20
34.762375
 30
0.0
  0
SPLINE
  5
1d5
100
AcDbEntity
  8
0
 62
7
100
AcDbSpline
 70
8
 71
3
 72
8
 73
4
 74
0
 40
0
 40
0
 40
0
 40
0
 40
1
 40
1
 40
1
 40
1
 10
58.825694
 20
34.762375
 30
0.0
 10
58.825694
 20
34.584050
 30
0.0
 10
58.684146
 20
34.305158
 30
0.0
 10
58.517014
 20
34.136195
 30
0.0
  0
SPLINE
  5
1d6
100
AcDbEntity
  8
0
 62
7
100
AcDbSpline
 70
8
 71
3
 72
8
 73
4
 74
0
 40
0
 40
0
 40
0
 40
0
 40
1
 40
1
 40
1
 40
1
 10
58.517014
 20
34.136195
 30
0.0
 10
58.228402
 20
33.844422
 30
0.0
 10
57.547428
 20
32.106348
 30
0.0
 10
57.273472
 20
30.978833
 30
0.0
  0
SPLINE
  5
1d7
100
AcDbEntity
  8
0
 62
7
100
AcDbSpline
 70
8
 71
3
 72
8
 73
4
 74
0
 40
0
 40
0
 40
0
 40
0
 40
1
 40
1
 40
1
 40
1
 10
57.273472
 20
30.978833
 30
0.0
 10
57.203569
 20
30.691139
 30
0.0
 10
57.059858
 20
30.458486
 30
0.0
 10
56.955972
 20
30.458486
 30
0.0
  0
SPLINE
  5
1d8
100
AcDbEntity
  8
0
 62
7
100
AcDbSpline
 70
8
 71
3
 72
8
 73
4
 74
0
 40
0
 40
0
 40
0
 40
0
 40
1
 40
1
 40
1
 40
1
 10
56.955972
 20
30.458486
 30
0.0
 10
56.852089
 20
30.458486
 30
0.0
 10
56.587472
 20
29.853151
 30
0.0
 10
56.373889
 20
29.117931
 30
0.0
  0
SPLINE
  5
1d9
100
AcDbEntity
  8
0
 62
7
100
AcDbSpline
 70
8
 71
3
 72
8
 73
4
 74
0
 40
0
 40
0
 40
0
 40
0
 40
1
 40
1
 40
1
 40
1
 10
56.373889
 20
29.117931
 30
0.0
 10
56.160306
 20
28.382711
 30
0.0
 10
55.907381
 20
27.726654
 30
0.0
 10
55.809444
 20
27.662722
 30
0.0
  0
SPLINE
  5
1da
100
AcDbEntity
  8
0
 62
7
100
AcDbSpline
 70
8
 71
3
 72
8
 73
4
 74
0
 40
0
 40
0
 40
0
 40
0
 40
1
 40
1
 40
1
 40
1
 10
55.809444
 20
27.662722
 30
0.0
 10
55.631929
 20
27.546839
 30
0.0
 10
55.036184
 20
25.313705
 30
0.0
 10
54.742292
 20
23.658695
 30
0.0
  0
SPLINE
  5
1db
100
AcDbEntity
  8
0
 62
7
100
AcDbSpline
 70
8
 71
3
 72
8
 73
4
 74
0
 40
0
 40
0
 40
0
 40
0
 40
1
 40
1
 40
1
 40
1
 10
54.742292
 20
23.658695
 30
0.0
 10
54.657145
 20
23.179205
 30
0.0
 10
54.501469
 20
22.785570
 30
0.0
 10
54.398333
 20
22.785570
 30
0.0
  0
SPLINE
  5
1dc
100
AcDbEntity
  8
0
 62
7
100
AcDbSpline
 70
8
 71
3
 72
8
 73
4
 74
0
 40
0
 40
0
 40
0
 40
0
 40
1
 40
1
 40
1
 40
1
 10
54.398333
 20
22.785570
 30
0.0
 10
54.295195
 20
22.785570
 30
0.0
 10
53.984344
 20
21.765649
 30
0.0
 10
53.701597
 20
20.518972
 30
0.0
  0
SPLINE
  5
1dd
100
AcDbEntity
  8
0
 62
7
100
AcDbSpline
 70
8
 71
3
 72
8
 73
4
 74
0
 40
0
 40
0
 40
0
 40
0
 40
1
 40
1
 40
1
 40
1
 10
53.701597
 20
20.518972
 30
0.0
 10
53.418847
 20
19.272295
 30
0.0
 10
53.106814
 20
18.201654
 30
0.0
 10
53.013681
 20
18.137722
 30
0.0
  0
SPLINE
  5
1de
100
AcDbEntity
  8
0
 62
7
100
AcDbSpline
 70
8
 71
3
 72
8
 73
4
 74
0
 40
0
 40
0
 40
0
 40
0
 40
1
 40
1
 40
1
 40
1
 10
53.013681
 20
18.137722
 30
0.0
 10
52.920550
 20
18.073791
 30
0.0
 10
52.667964
 20
17.206033
 30
0.0
 10
52.449236
 20
16.215083
 30
0.0
  0
SPLINE
  5
1df
100
AcDbEntity
  8
0
 62
7
100
AcDbSpline
 70
8
 71
3
 72
8
 73
4
 74
0
 40
0
 40
0
 40
0
 40
0
 40
1
 40
1
 40
1
 40
1
 10
52.449236
 20
16.215083
 30
0.0
 10
52.230511
 20
15.224136
 30
0.0
 10
51.974138
 20
14.415917
 30
0.0
 10
51.875972
 20
14.415917
 30
0.0
  0
SPLINE
  5
1e0
100
AcDbEntity
  8
0
 62
7
100
AcDbSpline
 70
8
 71
3
 72
8
 73
4
 74
0
 40
0
 40
0
 40
0
 40
0
 40
1
 40
1
 40
1
 40
1
 10
51.875972
 20
14.415917
 30
0.0
 10
51.702208
 20
14.415917
 30
0.0
 10
50.685347
 20
10.562141
 30
0.0
 10
50.685347
 20
9.900361
 30
0.0
  0
SPLINE
  5
1e1
100
AcDbEntity
  8
0
 62
7
100
AcDbSpline
 70
8
 71
3
 72
8
 73
4
 74
0
 40
0
 40
0
 40
0
 40
0
 40
1
 40
1
 40
1
 40
1
 10
50.685347
 20
9.900361
 30
0.0
 10
50.685347
 20
9.718029
 30
0.0
 10
50.580835
 20
9.530382
 30
0.0
 10
50.447222
 20
9.485847
 30
0.0
  0
SPLINE
  5
1e2
100
AcDbEntity
  8
0
 62
7
100
AcDbSpline
 70
8
 71
3
 72
8
 73
4
 74
0
 40
0
 40
0
 40
0
 40
0
 40
1
 40
1
 40
1
 40
1
 10
50.447222
 20
9.485847
 30
0.0
 10
50.313613
 20
9.441310
 30
0.0
 10
49.975513
 20
8.151983
 30
0.0
 10
49.697569
 20
6.619528
 30
0.0
  0
SPLINE
  5
1e3
100
AcDbEntity
  8
0
 62
7
100
AcDbSpline
 70
8
 71
3
 72
8
 73
4
 74
0
 40
0
 40
0
 40
0
 40
0
 40
1
 40
1
 40
1
 40
1
 10
49.697569
 20
6.619528
 30
0.0
 10
49.419626
 20
5.087070
 30
0.0
 10
49.125474
 20
3.781862
 30
0.0
 10
49.044931
 20
3.717931
 30
0.0
  0
SPLINE
  5
1e4
100
AcDbEntity
  8
0
 62
7
100
AcDbSpline
 70
8
 71
3
 72
8
 73
4
 74
0
 40
0
 40
0
 40
0
 40
0
 40
1
 40
1
 40
1
 40
1
 10
49.044931
 20
3.717931
 30
0.0
 10
48.818442
 20
3.538155
 30
0.0
 10
48.590598
 20
1.112102
 30
0.0
 10
48.745069
 20
0.525292
 30
0.0
  0
LWPOLYLINE
  5
1e5
100
AcDbEntity
  8
0
 62
7
100
AcDbPolyline
 90
3
 70
0
 10
50.129722
 20
64.633833
 30
0.0
 10
49.459444
 20
64.633833
 30
0.0
 10
49.618194
 20
62.367236
 30
0.0
  0
SPLINE
  5
1e6
100
AcDbEntity
  8
0
 62
7
100
AcDbSpline
 70
8
 71
3
 72
8
 73
4
 74
0
 40
0
 40
0
 40
0
 40
0
 40
1
 40
1
 40
1
 40
1
 10
123.683889
 20
1.142653
 30
0.0
 10
123.683889
 20
1.771317
 30
0.0
 10
123.581016
 20
2.317115
 30
0.0
 10
123.454583
 20
2.359736
 30
0.0
  0
SPLINE
  5
1e7
100
AcDbEntity
  8
0
 62
7
100
AcDbSpline
 70
8
 71
3
 72
8
 73
4
 74
0
 40
0
 40
0
 40
0
 40
0
 40
1
 40
1
 40
1
 40
1
 10
123.454583
 20
2.359736
 30
0.0
 10
123.328153
 20
2.402357
 30
0.0
 10
123.052295
 20
3.327821
 30
0.0
 10
122.837222
 20
4.414667
 30
0.0
  0
SPLINE
  5
1e8
100
AcDbEntity
  8
0
 62
7
100
AcDbSpline
 70
8
 71
3
 72
8
 73
4
 74
0
 40
0
 40
0
 40
0
 40
0
 40
1
 40
1
 40
1
 40
1
 10
122.837222
 20
4.414667
 30
0.0
 10
122.622155
 20
5.501513
 30
0.0
 10
122.365412
 20
6.445044
 30
0.0
 10
122.263958
 20
6.513695
 30
0.0
  0
SPLINE
  5
1e9
100
AcDbEntity
  8
0
 62
7
100
AcDbSpline
 70
8
 71
3
 72
8
 73
4
 74
0
 40
0
 40
0
 40
0
 40
0
 40
1
 40
1
 40
1
 40
1
 10
122.263958
 20
6.513695
 30
0.0
 10
122.162508
 20
6.582351
 30
0.0
 10
121.867343
 20
7.523144
 30
0.0
 10
121.611319
 20
8.595083
 30
0.0
  0
SPLINE
  5
1ea
100
AcDbEntity
  8
0
 62
7
100
AcDbSpline
 70
8
 71
3
 72
8
 73
4
 74
0
 40
0
 40
0
 40
0
 40
0
 40
1
 40
1
 40
1
 40
1
 10
121.611319
 20
8.595083
 30
0.0
 10
121.355293
 20
9.667020
 30
0.0
 10
121.052934
 20
10.602352
 30
0.0
 10
120.941042
 20
10.676472
 30
0.0
  0
SPLINE
  5
1eb
100
AcDbEntity
  8
0
 62
7
100
AcDbSpline
 70
8
 71
3
 72
8
 73
4
 74
0
 40
0
 40
0
 40
0
 40
0
 40
1
 40
1
 40
1
 40
1
 10
120.941042
 20
10.676472
 30
0.0
 10
120.829149
 20
10.750592
 30
0.0
 10
120.499291
 20
11.697473
 30
0.0
 10
120.209028
 20
12.784320
 30
0.0
  0
SPLINE
  5
1ec
100
AcDbEntity
  8
0
 62
7
100
AcDbSpline
 70
8
 71
3
 72
8
 73
4
 74
0
 40
0
 40
0
 40
0
 40
0
 40
1
 40
1
 40
1
 40
1
 10
120.209028
 20
12.784320
 30
0.0
 10
119.918765
 20
13.871166
 30
0.0
 10
119.609043
 20
14.810596
 30
0.0
 10
119.521111
 20
14.874528
 30
0.0
  0
SPLINE
  5
1ed
100
AcDbEntity
  8
0
 62
7
100
AcDbSpline
 70
8
 71
3
 72
8
 73
4
 74
0
 40
0
 40
0
 40
0
 40
0
 40
1
 40
1
 40
1
 40
1
 10
119.521111
 20
14.874528
 30
0.0
 10
119.328415
 20
15.014629
 30
0.0
 10
118.568611
 20
17.357003
 30
0.0
 10
118.568611
 20
17.811403
 30
0.0
  0
SPLINE
  5
1ee
100
AcDbEntity
  8
0
 62
7
100
AcDbSpline
 70
8
 71
3
 72
8
 73
4
 74
0
 40
0
 40
0
 40
0
 40
0
 40
1
 40
1
 40
1
 40
1
 10
118.568611
 20
17.811403
 30
0.0
 10
118.568611
 20
17.988517
 30
0.0
 10
118.477891
 20
18.137722
 30
0.0
 10
118.365764
 20
18.137722
 30
0.0
  0
SPLINE
  5
1ef
100
AcDbEntity
  8
0
 62
7
100
AcDbSpline
 70
8
 71
3
 72
8
 73
4
 74
0
 40
0
 40
0
 40
0
 40
0
 40
1
 40
1
 40
1
 40
1
 10
118.365764
 20
18.137722
 30
0.0
 10
118.189471
 20
18.137722
 30
0.0
 10
117.692224
 20
19.692163
 30
0.0
 10
117.245694
 20
21.621403
 30
0.0
  0
SPLINE
  5
1f0
100
AcDbEntity
  8
0
 62
7
100
AcDbSpline
 70
8
 71
3
 72
8
 73
4
 74
0
 40
0
 40
0
 40
0
 40
0
 40
1
 40
1
 40
1
 40
1
 10
117.245694
 20
21.621403
 30
0.0
 10
117.171707
 20
21.941065
 30
0.0
 10
117.031519
 20
22.254207
 30
0.0
 10
116.937014
 20
22.318139
 30
0.0
  0
SPLINE
  5
1f1
100
AcDbEntity
  8
0
 62
7
100
AcDbSpline
 70
8
 71
3
 72
8
 73
4
 74
0
 40
0
 40
0
 40
0
 40
0
 40
1
 40
1
 40
1
 40
1
 10
116.937014
 20
22.318139
 30
0.0
 10
116.730419
 20
22.457898
 30
0.0
 10
115.781667
 20
25.578130
 30
0.0
 10
115.781667
 20
26.119320
 30
0.0
  0
SPLINE
  5
1f2
100
AcDbEntity
  8
0
 62
7
100
AcDbSpline
 70
8
 71
3
 72
8
 73
4
 74
0
 40
0
 40
0
 40
0
 40
0
 40
1
 40
1
 40
1
 40
1
 10
115.781667
 20
26.119320
 30
0.0
 10
115.781667
 20
26.329299
 30
0.0
 10
115.704803
 20
26.498556
 30
0.0
 10
115.605278
 20
26.498556
 30
0.0
  0
SPLINE
  5
1f3
100
AcDbEntity
  8
0
 62
7
100
AcDbSpline
 70
8
 71
3
 72
8
 73
4
 74
0
 40
0
 40
0
 40
0
 40
0
 40
1
 40
1
 40
1
 40
1
 10
115.605278
 20
26.498556
 30
0.0
 10
115.505752
 20
26.498556
 30
0.0
 10
115.233303
 20
27.133663
 30
0.0
 10
115.005556
 20
27.900847
 30
0.0
  0
SPLINE
  5
1f4
100
AcDbEntity
  8
0
 62
7
100
AcDbSpline
 70
8
 71
3
 72
8
 73
4
 74
0
 40
0
 40
0
 40
0
 40
0
 40
1
 40
1
 40
1
 40
1
 10
115.005556
 20
27.900847
 30
0.0
 10
114.777808
 20
28.668035
 30
0.0
 10
114.521734
 20
29.294320
 30
0.0
 10
114.432292
 20
29.294320
 30
0.0
  0
SPLINE
  5
1f5
100
AcDbEntity
  8
0
 62
7
100
AcDbSpline
 70
8
 71
3
 72
8
 73
4
 74
0
 40
0
 40
0
 40
0
 40
0
 40
1
 40
1
 40
1
 40
1
 10
114.432292
 20
29.294320
 30
0.0
 10
114.342853
 20
29.294320
 30
0.0
 10
114.008812
 20
30.132308
 30
0.0
 10
113.691458
 20
31.155222
 30
0.0
  0
SPLINE
  5
1f6
100
AcDbEntity
  8
0
 62
7
100
AcDbSpline
 70
8
 71
3
 72
8
 73
4
 74
0
 40
0
 40
0
 40
0
 40
0
 40
1
 40
1
 40
1
 40
1
 10
113.691458
 20
31.155222
 30
0.0
 10
113.374105
 20
32.178137
 30
0.0
 10
113.040809
 20
33.016125
 30
0.0
 10
112.950625
 20
33.016125
 30
0.0
  0
SPLINE
  5
1f7
100
AcDbEntity
  8
0
 62
7
100
AcDbSpline
 70
8
 71
3
 72
8
 73
4
 74
0
 40
0
 40
0
 40
0
 40
0
 40
1
 40
1
 40
1
 40
1
 10
112.950625
 20
33.016125
 30
0.0
 10
112.860441
 20
33.016125
 30
0.0
 10
112.560077
 20
33.642413
 30
0.0
 10
112.280347
 20
34.409597
 30
0.0
  0
SPLINE
  5
1f8
100
AcDbEntity
  8
0
 62
7
100
AcDbSpline
 70
8
 71
3
 72
8
 73
4
 74
0
 40
0
 40
0
 40
0
 40
0
 40
1
 40
1
 40
1
 40
1
 10
112.280347
 20
34.409597
 30
0.0
 10
112.000617
 20
35.176782
 30
0.0
 10
111.694609
 20
35.803070
 30
0.0
 10
111.601250
 20
35.803070
 30
0.0
  0
SPLINE
  5
1f9
100
AcDbEntity
  8
0
 62
7
100
AcDbSpline
 70
8
 71
3
 72
8
 73
4
 74
0
 40
0
 40
0
 40
0
 40
0
 40
1
 40
1
 40
1
 40
1
 10
111.601250
 20
35.803070
 30
0.0
 10
111.507888
 20
35.803070
 30
0.0
 10
111.239757
 20
36.298147
 30
0.0
 10
111.010347
 20
36.905500
 30
0.0
  0
SPLINE
  5
1fa
100
AcDbEntity
  8
0
 62
7
100
AcDbSpline
 70
8
 71
3
 72
8
 73
4
 74
0
 40
0
 40
0
 40
0
 40
0
 40
1
 40
1
 40
1
 40
1
 10
111.010347
 20
36.905500
 30
0.0
 10
110.780940
 20
37.512856
 30
0.0
 10
110.521603
 20
38.058652
 30
0.0
 10
110.428264
 20
38.122583
 30
0.0
  0
SPLINE
  5
1fb
100
AcDbEntity
  8
0
 62
7
100
AcDbSpline
 70
8
 71
3
 72
8
 73
4
 74
0
 40
0
 40
0
 40
0
 40
0
 40
1
 40
1
 40
1
 40
1
 10
110.428264
 20
38.122583
 30
0.0
 10
110.334925
 20
38.186515
 30
0.0
 10
110.012971
 20
39.134765
 30
0.0
 10
109.722708
 20
40.221611
 30
0.0
  0
SPLINE
  5
1fc
100
AcDbEntity
  8
0
 62
7
100
AcDbSpline
 70
8
 71
3
 72
8
 73
4
 74
0
 40
0
 40
0
 40
0
 40
0
 40
1
 40
1
 40
1
 40
1
 10
109.722708
 20
40.221611
 30
0.0
 10
109.432446
 20
41.308457
 30
0.0
 10
109.132240
 20
42.247888
 30
0.0
 10
109.052431
 20
42.311820
 30
0.0
  0
SPLINE
  5
1fd
100
AcDbEntity
  8
0
 62
7
100
AcDbSpline
 70
8
 71
3
 72
8
 73
4
 74
0
 40
0
 40
0
 40
0
 40
0
 40
1
 40
1
 40
1
 40
1
 10
109.052431
 20
42.311820
 30
0.0
 10
108.972618
 20
42.375751
 30
0.0
 10
108.650684
 20
43.264458
 30
0.0
 10
108.338056
 20
44.287375
 30
0.0
  0
SPLINE
  5
1fe
100
AcDbEntity
  8
0
 62
7
100
AcDbSpline
 70
8
 71
3
 72
8
 73
4
 74
0
 40
0
 40
0
 40
0
 40
0
 40
1
 40
1
 40
1
 40
1
 10
108.338056
 20
44.287375
 30
0.0
 10
108.025430
 20
45.310290
 30
0.0
 10
107.650455
 20
46.273991
 30
0.0
 10
107.500208
 20
46.430500
 30
0.0
  0
SPLINE
  5
1ff
100
AcDbEntity
  8
0
 62
7
100
AcDbSpline
 70
8
 71
3
 72
8
 73
4
 74
0
 40
0
 40
0
 40
0
 40
0
 40
1
 40
1
 40
1
 40
1
 10
107.500208
 20
46.430500
 30
0.0
 10
107.061762
 20
46.887226
 30
0.0
 10
106.900365
 20
48.820603
 30
0.0
 10
107.165069
 20
50.452167
 30
0.0
  0
SPLINE
  5
200
100
AcDbEntity
  8
0
 62
7
100
AcDbSpline
 70
8
 71
3
 72
8
 73
4
 74
0
 40
0
 40
0
 40
0
 40
0
 40
1
 40
1
 40
1
 40
1
 10
107.165069
 20
50.452167
 30
0.0
 10
107.299726
 20
51.282151
 30
0.0
 10
107.411167
 20
52.556808
 30
0.0
 10
107.412014
 20
53.292028
 30
0.0
  0
SPLINE
  5
201
100
AcDbEntity
  8
0
 62
7
100
AcDbSpline
 70
8
 71
3
 72
8
 73
4
 74
0
 40
0
 40
0
 40
0
 40
0
 40
1
 40
1
 40
1
 40
1
 10
107.412014
 20
53.292028
 30
0.0
 10
107.412979
 20
54.027248
 30
0.0
 10
107.513456
 20
54.632583
 30
0.0
 10
107.641319
 20
54.632583
 30
0.0
  0
SPLINE
  5
202
100
AcDbEntity
  8
0
 62
7
100
AcDbSpline
 70
8
 71
3
 72
8
 73
4
 74
0
 40
0
 40
0
 40
0
 40
0
 40
1
 40
1
 40
1
 40
1
 10
107.641319
 20
54.632583
 30
0.0
 10
107.775643
 20
54.632583
 30
0.0
 10
107.879444
 20
55.371416
 30
0.0
 10
107.879444
 20
56.378833
 30
0.0
  0
SPLINE
  5
203
100
AcDbEntity
  8
0
 62
7
100
AcDbSpline
 70
8
 71
3
 72
8
 73
4
 74
0
 40
0
 40
0
 40
0
 40
0
 40
1
 40
1
 40
1
 40
1
 10
107.879444
 20
56.378833
 30
0.0
 10
107.879444
 20
57.386248
 30
0.0
 10
107.775643
 20
58.116264
 30
0.0
 10
107.641319
 20
58.116264
 30
0.0
  0
SPLINE
  5
204
100
AcDbEntity
  8
0
 62
7
100
AcDbSpline
 70
8
 71
3
 72
8
 73
4
 74
0
 40
0
 40
0
 40
0
 40
0
 40
1
 40
1
 40
1
 40
1
 10
107.641319
 20
58.116264
 30
0.0
 10
107.513456
 20
58.116264
 30
0.0
 10
107.412014
 20
58.307094
 30
0.0
 10
107.412014
 20
58.539597
 30
0.0
  0
SPLINE
  5
205
100
AcDbEntity
  8
0
 62
7
100
AcDbSpline
 70
8
 71
3
 72
8
 73
4
 74
0
 40
0
 40
0
 40
0
 40
0
 40
1
 40
1
 40
1
 40
1
 10
107.412014
 20
58.539597
 30
0.0
 10
107.412014
 20
58.772098
 30
0.0
 10
107.048049
 20
59.377433
 30
0.0
 10
106.600625
 20
59.880153
 30
0.0
  0
SPLINE
  5
206
100
AcDbEntity
  8
0
 62
7
100
AcDbSpline
 70
8
 71
3
 72
8
 73
4
 74
0
 40
0
 40
0
 40
0
 40
0
 40
1
 40
1
 40
1
 40
1
 10
106.600625
 20
59.880153
 30
0.0
 10
105.698177
 20
60.894127
 30
0.0
 10
105.616544
 20
61.179981
 30
0.0
 10
106.133194
 20
61.608764
 30
0.0
  0
SPLINE
  5
207
100
AcDbEntity
  8
0
 62
7
100
AcDbSpline
 70
8
 71
3
 72
8
 73
4
 74
0
 40
0
 40
0
 40
0
 40
0
 40
1
 40
1
 40
1
 40
1
 10
106.133194
 20
61.608764
 30
0.0
 10
106.417737
 20
61.844913
 30
0.0
 10
106.691453
 20
61.826555
 30
0.0
 10
107.561944
 20
61.494111
 30
0.0
  0
SPLINE
  5
208
100
AcDbEntity
  8
0
 62
7
100
AcDbSpline
 70
8
 71
3
 72
8
 73
4
 74
0
 40
0
 40
0
 40
0
 40
0
 40
1
 40
1
 40
1
 40
1
 10
107.561944
 20
61.494111
 30
0.0
 10
108.153028
 20
61.268376
 30
0.0
 10
108.825885
 20
60.891629
 30
0.0
 10
109.061250
 20
60.656264
 30
0.0
  0
SPLINE
  5
209
100
AcDbEntity
  8
0
 62
7
100
AcDbSpline
 70
8
 71
3
 72
8
 73
4
 74
0
 40
0
 40
0
 40
0
 40
0
 40
1
 40
1
 40
1
 40
1
 10
109.061250
 20
60.656264
 30
0.0
 10
109.593225
 20
60.124289
 30
0.0
 10
110.491149
 20
59.884104
 30
0.0
 10
111.248472
 20
60.074181
 30
0.0
  0
SPLINE
  5
20a
100
AcDbEntity
  8
0
 62
7
100
AcDbSpline
 70
8
 71
3
 72
8
 73
4
 74
0
 40
0
 40
0
 40
0
 40
0
 40
1
 40
1
 40
1
 40
1
 10
111.248472
 20
60.074181
 30
0.0
 10
111.819670
 20
60.217541
 30
0.0
 10
112.756597
 20
61.816663
 30
0.0
 10
112.756597
 20
62.640639
 30
0.0
  0
SPLINE
  5
20b
100
AcDbEntity
  8
0
 62
7
100
AcDbSpline
 70
8
 71
3
 72
8
 73
4
 74
0
 40
0
 40
0
 40
0
 40
0
 40
1
 40
1
 40
1
 40
1
 10
112.756597
 20
62.640639
 30
0.0
 10
112.756597
 20
62.839450
 30
0.0
 10
112.852000
 20
63.002236
 30
0.0
 10
112.959444
 20
63.002236
 30
0.0
  0
SPLINE
  5
20c
100
AcDbEntity
  8
0
 62
7
100
AcDbSpline
 70
8
 71
3
 72
8
 73
4
 74
0
 40
0
 40
0
 40
0
 40
0
 40
1
 40
1
 40
1
 40
1
 10
112.959444
 20
63.002236
 30
0.0
 10
113.066884
 20
63.002236
 30
0.0
 10
113.292015
 20
63.580665
 30
0.0
 10
113.462153
 20
64.289875
 30
0.0
  0
SPLINE
  5
20d
100
AcDbEntity
  8
0
 62
7
100
AcDbSpline
 70
8
 71
3
 72
8
 73
4
 74
0
 40
0
 40
0
 40
0
 40
0
 40
1
 40
1
 40
1
 40
1
 10
113.462153
 20
64.289875
 30
0.0
 10
113.632288
 20
64.999088
 30
0.0
 10
113.851176
 20
65.636177
 30
0.0
 10
113.956042
 20
65.700986
 30
0.0
  0
SPLINE
  5
20e
100
AcDbEntity
  8
0
 62
7
100
AcDbSpline
 70
8
 71
3
 72
8
 73
4
 74
0
 40
0
 40
0
 40
0
 40
0
 40
1
 40
1
 40
1
 40
1
 10
113.956042
 20
65.700986
 30
0.0
 10
114.189459
 20
65.845247
 30
0.0
 10
115.293916
 20
65.070942
 30
0.0
 10
115.314236
 20
64.748486
 30
0.0
  0
SPLINE
  5
20f
100
AcDbEntity
  8
0
 62
7
100
AcDbSpline
 70
8
 71
3
 72
8
 73
4
 74
0
 40
0
 40
0
 40
0
 40
0
 40
1
 40
1
 40
1
 40
1
 10
115.314236
 20
64.748486
 30
0.0
 10
115.346742
 20
64.232674
 30
0.0
 10
116.829555
 20
62.916714
 30
0.0
 10
117.704306
 20
62.623000
 30
0.0
  0
SPLINE
  5
210
100
AcDbEntity
  8
0
 62
7
100
AcDbSpline
 70
8
 71
3
 72
8
 73
4
 74
0
 40
0
 40
0
 40
0
 40
0
 40
1
 40
1
 40
1
 40
1
 10
117.704306
 20
62.623000
 30
0.0
 10
117.928068
 20
62.547867
 30
0.0
 10
118.110000
 20
62.399356
 30
0.0
 10
118.110000
 20
62.296681
 30
0.0
  0
SPLINE
  5
211
100
AcDbEntity
  8
0
 62
7
100
AcDbSpline
 70
8
 71
3
 72
8
 73
4
 74
0
 40
0
 40
0
 40
0
 40
0
 40
1
 40
1
 40
1
 40
1
 10
118.110000
 20
62.296681
 30
0.0
 10
118.110000
 20
62.102571
 30
0.0
 10
119.800178
 20
61.505711
 30
0.0
 10
121.011597
 20
61.273625
 30
0.0
  0
SPLINE
  5
212
100
AcDbEntity
  8
0
 62
7
100
AcDbSpline
 70
8
 71
3
 72
8
 73
4
 74
0
 40
0
 40
0
 40
0
 40
0
 40
1
 40
1
 40
1
 40
1
 10
121.011597
 20
61.273625
 30
0.0
 10
121.789771
 20
61.124541
 30
0.0
 10
125.290270
 20
61.892389
 30
0.0
 10
125.518333
 20
62.261403
 30
0.0
  0
SPLINE
  5
213
100
AcDbEntity
  8
0
 62
7
100
AcDbSpline
 70
8
 71
3
 72
8
 73
4
 74
0
 40
0
 40
0
 40
0
 40
0
 40
1
 40
1
 40
1
 40
1
 10
125.518333
 20
62.261403
 30
0.0
 10
125.598713
 20
62.391462
 30
0.0
 10
126.133942
 20
62.678657
 30
0.0
 10
126.708958
 20
62.905222
 30
0.0
  0
SPLINE
  5
214
100
AcDbEntity
  8
0
 62
7
100
AcDbSpline
 70
8
 71
3
 72
8
 73
4
 74
0
 40
0
 40
0
 40
0
 40
0
 40
1
 40
1
 40
1
 40
1
 10
126.708958
 20
62.905222
 30
0.0
 10
127.283972
 20
63.131785
 30
0.0
 10
127.809193
 20
63.384642
 30
0.0
 10
127.873125
 20
63.469667
 30
0.0
  0
SPLINE
  5
215
100
AcDbEntity
  8
0
 62
7
100
AcDbSpline
 70
8
 71
3
 72
8
 73
4
 74
0
 40
0
 40
0
 40
0
 40
0
 40
1
 40
1
 40
1
 40
1
 10
127.873125
 20
63.469667
 30
0.0
 10
128.008479
 20
63.649682
 30
0.0
 10
131.069086
 20
64.633833
 30
0.0
 10
131.497917
 20
64.633833
 30
0.0
  0
SPLINE
  5
216
100
AcDbEntity
  8
0
 62
7
100
AcDbSpline
 70
8
 71
3
 72
8
 73
4
 74
0
 40
0
 40
0
 40
0
 40
0
 40
1
 40
1
 40
1
 40
1
 10
131.497917
 20
64.633833
 30
0.0
 10
131.657525
 20
64.633833
 30
0.0
 10
131.816893
 20
64.736554
 30
0.0
 10
131.859514
 20
64.863139
 30
0.0
  0
SPLINE
  5
217
100
AcDbEntity
  8
0
 62
7
100
AcDbSpline
 70
8
 71
3
 72
8
 73
4
 74
0
 40
0
 40
0
 40
0
 40
0
 40
1
 40
1
 40
1
 40
1
 10
131.859514
 20
64.863139
 30
0.0
 10
131.943864
 20
65.113648
 30
0.0
 10
135.740919
 20
66.010330
 30
0.0
 10
136.745486
 20
66.018486
 30
0.0
  0
SPLINE
  5
218
100
AcDbEntity
  8
0
 62
7
100
AcDbSpline
 70
8
 71
3
 72
8
 73
4
 74
0
 40
0
 40
0
 40
0
 40
0
 40
1
 40
1
 40
1
 40
1
 10
136.745486
 20
66.018486
 30
0.0
 10
137.086459
 20
66.021255
 30
0.0
 10
137.399601
 20
66.122897
 30
0.0
 10
137.442222
 20
66.238972
 30
0.0
  0
SPLINE
  5
219
100
AcDbEntity
  8
0
 62
7
100
AcDbSpline
 70
8
 71
3
 72
8
 73
4
 74
0
 40
0
 40
0
 40
0
 40
0
 40
1
 40
1
 40
1
 40
1
 10
137.442222
 20
66.238972
 30
0.0
 10
137.484843
 20
66.355045
 30
0.0
 10
138.928421
 20
66.606093
 30
0.0
 10
140.652500
 20
66.803417
 30
0.0
  0
SPLINE
  5
21a
100
AcDbEntity
  8
0
 62
7
100
AcDbSpline
 70
8
 71
3
 72
8
 73
4
 74
0
 40
0
 40
0
 40
0
 40
0
 40
1
 40
1
 40
1
 40
1
 10
140.652500
 20
66.803417
 30
0.0
 10
142.376581
 20
67.000735
 30
0.0
 10
143.826888
 20
67.277829
 30
0.0
 10
143.871597
 20
67.411958
 30
0.0
  0
SPLINE
  5
21b
100
AcDbEntity
  8
0
 62
7
100
AcDbSpline
 70
8
 71
3
 72
8
 73
4
 74
0
 40
0
 40
0
 40
0
 40
0
 40
1
 40
1
 40
1
 40
1
 10
143.871597
 20
67.411958
 30
0.0
 10
143.916310
 20
67.546090
 30
0.0
 10
144.232712
 20
67.650083
 30
0.0
 10
144.577153
 20
67.650083
 30
0.0
  0
SPLINE
  5
21c
100
AcDbEntity
  8
0
 62
7
100
AcDbSpline
 70
8
 71
3
 72
8
 73
4
 74
0
 40
0
 40
0
 40
0
 40
0
 40
1
 40
1
 40
1
 40
1
 10
144.577153
 20
67.650083
 30
0.0
 10
145.386419
 20
67.650083
 30
0.0
 10
146.550160
 20
68.715086
 30
0.0
 10
146.949583
 20
69.819667
 30
0.0
  0
SPLINE
  5
21d
100
AcDbEntity
  8
0
 62
7
100
AcDbSpline
 70
8
 71
3
 72
8
 73
4
 74
0
 40
0
 40
0
 40
0
 40
0
 40
1
 40
1
 40
1
 40
1
 10
146.949583
 20
69.819667
 30
0.0
 10
147.176388
 20
70.446886
 30
0.0
 10
147.464052
 20
70.754333
 30
0.0
 10
148.025556
 20
70.957375
 30
0.0
  0
SPLINE
  5
21e
100
AcDbEntity
  8
0
 62
7
100
AcDbSpline
 70
8
 71
3
 72
8
 73
4
 74
0
 40
0
 40
0
 40
0
 40
0
 40
1
 40
1
 40
1
 40
1
 10
148.025556
 20
70.957375
 30
0.0
 10
148.446973
 20
71.109761
 30
0.0
 10
148.792847
 20
71.302530
 30
0.0
 10
148.792847
 20
71.389528
 30
0.0
  0
SPLINE
  5
21f
100
AcDbEntity
  8
0
 62
7
100
AcDbSpline
 70
8
 71
3
 72
8
 73
4
 74
0
 40
0
 40
0
 40
0
 40
0
 40
1
 40
1
 40
1
 40
1
 10
148.792847
 20
71.389528
 30
0.0
 10
148.792847
 20
71.598855
 30
0.0
 10
150.335892
 20
71.967914
 30
0.0
 10
152.629306
 20
72.306750
 30
0.0
  0
SPLINE
  5
220
100
AcDbEntity
  8
0
 62
7
100
AcDbSpline
 70
8
 71
3
 72
8
 73
4
 74
0
 40
0
 40
0
 40
0
 40
0
 40
1
 40
1
 40
1
 40
1
 10
152.629306
 20
72.306750
 30
0.0
 10
153.652217
 20
72.457877
 30
0.0
 10
154.540929
 20
72.646523
 30
0.0
 10
154.604861
 20
72.730083
 30
0.0
  0
SPLINE
  5
221
100
AcDbEntity
  8
0
 62
7
100
AcDbSpline
 70
8
 71
3
 72
8
 73
4
 74
0
 40
0
 40
0
 40
0
 40
0
 40
1
 40
1
 40
1
 40
1
 10
154.604861
 20
72.730083
 30
0.0
 10
154.731074
 20
72.895045
 30
0.0
 10
157.410415
 20
73.582053
 30
0.0
 10
158.908750
 20
73.832514
 30
0.0
  0
SPLINE
  5
222
100
AcDbEntity
  8
0
 62
7
100
AcDbSpline
 70
8
 71
3
 72
8
 73
4
 74
0
 40
0
 40
0
 40
0
 40
0
 40
1
 40
1
 40
1
 40
1
 10
158.908750
 20
73.832514
 30
0.0
 10
159.420210
 20
73.918010
 30
0.0
 10
159.945053
 20
74.063741
 30
0.0
 10
160.072917
 20
74.158833
 30
0.0
  0
SPLINE
  5
223
100
AcDbEntity
  8
0
 62
7
100
AcDbSpline
 70
8
 71
3
 72
8
 73
4
 74
0
 40
0
 40
0
 40
0
 40
0
 40
1
 40
1
 40
1
 40
1
 10
160.072917
 20
74.158833
 30
0.0
 10
160.287411
 20
74.318348
 30
0.0
 10
162.273149
 20
74.747642
 30
0.0
 10
164.076944
 20
75.023139
 30
0.0
  0
SPLINE
  5
224
100
AcDbEntity
  8
0
 62
7
100
AcDbSpline
 70
8
 71
3
 72
8
 73
4
 74
0
 40
0
 40
0
 40
0
 40
0
 40
1
 40
1
 40
1
 40
1
 10
164.076944
 20
75.023139
 30
0.0
 10
164.492505
 20
75.086605
 30
0.0
 10
164.835417
 20
75.235582
 30
0.0
 10
164.835417
 20
75.349458
 30
0.0
  0
SPLINE
  5
225
100
AcDbEntity
  8
0
 62
7
100
AcDbSpline
 70
8
 71
3
 72
8
 73
4
 74
0
 40
0
 40
0
 40
0
 40
0
 40
1
 40
1
 40
1
 40
1
 10
164.835417
 20
75.349458
 30
0.0
 10
164.835417
 20
75.463332
 30
0.0
 10
165.056320
 20
75.552306
 30
0.0
 10
165.320486
 20
75.552306
 30
0.0
  0
SPLINE
  5
226
100
AcDbEntity
  8
0
 62
7
100
AcDbSpline
 70
8
 71
3
 72
8
 73
4
 74
0
 40
0
 40
0
 40
0
 40
0
 40
1
 40
1
 40
1
 40
1
 10
165.320486
 20
75.552306
 30
0.0
 10
166.145297
 20
75.552306
 30
0.0
 10
170.058715
 20
76.553568
 30
0.0
 10
170.224097
 20
76.804667
 30
0.0
  0
SPLINE
  5
227
100
AcDbEntity
  8
0
 62
7
100
AcDbSpline
 70
8
 71
3
 72
8
 73
4
 74
0
 40
0
 40
0
 40
0
 40
0
 40
1
 40
1
 40
1
 40
1
 10
170.224097
 20
76.804667
 30
0.0
 10
170.310598
 20
76.935999
 30
0.0
 10
170.725183
 20
77.208713
 30
0.0
 10
171.150139
 20
77.413208
 30
0.0
  0
SPLINE
  5
228
100
AcDbEntity
  8
0
 62
7
100
AcDbSpline
 70
8
 71
3
 72
8
 73
4
 74
0
 40
0
 40
0
 40
0
 40
0
 40
1
 40
1
 40
1
 40
1
 10
171.150139
 20
77.413208
 30
0.0
 10
171.792897
 20
77.722521
 30
0.0
 10
171.915709
 20
77.898975
 30
0.0
 10
171.873333
 20
78.471542
 30
0.0
  0
SPLINE
  5
229
100
AcDbEntity
  8
0
 62
7
100
AcDbSpline
 70
8
 71
3
 72
8
 73
4
 74
0
 40
0
 40
0
 40
0
 40
0
 40
1
 40
1
 40
1
 40
1
 10
171.873333
 20
78.471542
 30
0.0
 10
171.791469
 20
79.577737
 30
0.0
 10
171.342346
 20
80.181114
 30
0.0
 10
170.488681
 20
80.341264
 30
0.0
  0
SPLINE
  5
22a
100
AcDbEntity
  8
0
 62
7
100
AcDbSpline
 70
8
 71
3
 72
8
 73
4
 74
0
 40
0
 40
0
 40
0
 40
0
 40
1
 40
1
 40
1
 40
1
 10
170.488681
 20
80.341264
 30
0.0
 10
170.060205
 20
80.421644
 30
0.0
 10
169.489617
 20
80.429752
 30
0.0
 10
169.218681
 20
80.358903
 30
0.0
  0
SPLINE
  5
22b
100
AcDbEntity
  8
0
 62
7
100
AcDbSpline
 70
8
 71
3
 72
8
 73
4
 74
0
 40
0
 40
0
 40
0
 40
0
 40
1
 40
1
 40
1
 40
1
 10
169.218681
 20
80.358903
 30
0.0
 10
168.699267
 20
80.223072
 30
0.0
 10
168.284189
 20
80.520337
 30
0.0
 10
168.028056
 20
81.196750
 30
0.0
  0
SPLINE
  5
22c
100
AcDbEntity
  8
0
 62
7
100
AcDbSpline
 70
8
 71
3
 72
8
 73
4
 74
0
 40
0
 40
0
 40
0
 40
0
 40
1
 40
1
 40
1
 40
1
 10
168.028056
 20
81.196750
 30
0.0
 10
167.731087
 20
81.981000
 30
0.0
 10
166.524960
 20
81.703057
 30
0.0
 10
165.479236
 20
80.614667
 30
0.0
  0
SPLINE
  5
22d
100
AcDbEntity
  8
0
 62
7
100
AcDbSpline
 70
8
 71
3
 72
8
 73
4
 74
0
 40
0
 40
0
 40
0
 40
0
 40
1
 40
1
 40
1
 40
1
 10
165.479236
 20
80.614667
 30
0.0
 10
164.670139
 20
79.772561
 30
0.0
 10
164.403199
 20
79.641819
 30
0.0
 10
163.627153
 20
79.662167
 30
0.0
  0
SPLINE
  5
22e
100
AcDbEntity
  8
0
 62
7
100
AcDbSpline
 70
8
 71
3
 72
8
 73
4
 74
0
 40
0
 40
0
 40
0
 40
0
 40
1
 40
1
 40
1
 40
1
 10
163.627153
 20
79.662167
 30
0.0
 10
163.128793
 20
79.675234
 30
0.0
 10
162.686548
 20
79.719777
 30
0.0
 10
162.639375
 20
79.768000
 30
0.0
  0
SPLINE
  5
22f
100
AcDbEntity
  8
0
 62
7
100
AcDbSpline
 70
8
 71
3
 72
8
 73
4
 74
0
 40
0
 40
0
 40
0
 40
0
 40
1
 40
1
 40
1
 40
1
 10
162.639375
 20
79.768000
 30
0.0
 10
162.592196
 20
79.816223
 30
0.0
 10
162.515477
 20
80.431761
 30
0.0
 10
162.471806
 20
81.135014
 30
0.0
  0
LWPOLYLINE
  5
230
100
AcDbEntity
  8
0
 62
7
100
AcDbPolyline
 90
5
 70
0
 10
48.745069
 20
0.525292
 30
0.0
 10
48.886181
 20
-0.003875
 30
0.0
 10
86.280625
 20
-0.003875
 30
0.0
 10
123.683889
 20
-0.003875
 30
0.0
 10
123.683889
 20
1.142653
 30
0.0
  0
SPLINE
  5
231
100
AcDbEntity
  8
0
 62
7
100
AcDbSpline
 70
8
 71
3
 72
8
 73
4
 74
0
 40
0
 40
0
 40
0
 40
0
 40
1
 40
1
 40
1
 40
1
 10
164.297431
 20
82.431472
 30
0.0
 10
166.713137
 20
82.453666
 30
0.0
 10
167.015394
 20
82.671516
 30
0.0
 10
166.863889
 20
84.248278
 30
0.0
  0
SPLINE
  5
232
100
AcDbEntity
  8
0
 62
7
100
AcDbSpline
 70
8
 71
3
 72
8
 73
4
 74
0
 40
0
 40
0
 40
0
 40
0
 40
1
 40
1
 40
1
 40
1
 10
166.863889
 20
84.248278
 30
0.0
 10
166.737984
 20
85.558585
 30
0.0
 10
166.402453
 20
85.906650
 30
0.0
 10
165.047083
 20
86.135639
 30
0.0
  0
SPLINE
  5
233
100
AcDbEntity
  8
0
 62
7
100
AcDbSpline
 70
8
 71
3
 72
8
 73
4
 74
0
 40
0
 40
0
 40
0
 40
0
 40
1
 40
1
 40
1
 40
1
 10
165.047083
 20
86.135639
 30
0.0
 10
164.547417
 20
86.220057
 30
0.0
 10
164.138681
 20
86.389430
 30
0.0
 10
164.138681
 20
86.506056
 30
0.0
  0
SPLINE
  5
234
100
AcDbEntity
  8
0
 62
7
100
AcDbSpline
 70
8
 71
3
 72
8
 73
4
 74
0
 40
0
 40
0
 40
0
 40
0
 40
1
 40
1
 40
1
 40
1
 10
164.138681
 20
86.506056
 30
0.0
 10
164.138681
 20
86.627778
 30
0.0
 10
161.815661
 20
86.717722
 30
0.0
 10
158.679444
 20
86.717722
 30
0.0
  0
SPLINE
  5
235
100
AcDbEntity
  8
0
 62
7
100
AcDbSpline
 70
8
 71
3
 72
8
 73
4
 74
0
 40
0
 40
0
 40
0
 40
0
 40
1
 40
1
 40
1
 40
1
 10
158.679444
 20
86.717722
 30
0.0
 10
155.648341
 20
86.717722
 30
0.0
 10
153.211389
 20
86.620689
 30
0.0
 10
153.211389
 20
86.506056
 30
0.0
  0
SPLINE
  5
236
100
AcDbEntity
  8
0
 62
7
100
AcDbSpline
 70
8
 71
3
 72
8
 73
4
 74
0
 40
0
 40
0
 40
0
 40
0
 40
1
 40
1
 40
1
 40
1
 10
153.211389
 20
86.506056
 30
0.0
 10
153.211389
 20
86.392422
 30
0.0
 10
152.817754
 20
86.236948
 30
0.0
 10
152.338264
 20
86.153278
 30
0.0
  0
SPLINE
  5
237
100
AcDbEntity
  8
0
 62
7
100
AcDbSpline
 70
8
 71
3
 72
8
 73
4
 74
0
 40
0
 40
0
 40
0
 40
0
 40
1
 40
1
 40
1
 40
1
 10
152.338264
 20
86.153278
 30
0.0
 10
151.171958
 20
85.949762
 30
0.0
 10
149.260278
 20
85.268367
 30
0.0
 10
149.260278
 20
85.059667
 30
0.0
  0
SPLINE
  5
238
100
AcDbEntity
  8
0
 62
7
100
AcDbSpline
 70
8
 71
3
 72
8
 73
4
 74
0
 40
0
 40
0
 40
0
 40
0
 40
1
 40
1
 40
1
 40
1
 10
149.260278
 20
85.059667
 30
0.0
 10
149.260278
 20
84.967637
 30
0.0
 10
148.786153
 20
84.714963
 30
0.0
 10
148.210764
 20
84.495222
 30
0.0
  0
SPLINE
  5
239
100
AcDbEntity
  8
0
 62
7
100
AcDbSpline
 70
8
 71
3
 72
8
 73
4
 74
0
 40
0
 40
0
 40
0
 40
0
 40
1
 40
1
 40
1
 40
1
 10
148.210764
 20
84.495222
 30
0.0
 10
147.635372
 20
84.275478
 30
0.0
 10
147.170069
 20
84.000337
 30
0.0
 10
147.170069
 20
83.886681
 30
0.0
  0
SPLINE
  5
23a
100
AcDbEntity
  8
0
 62
7
100
AcDbSpline
 70
8
 71
3
 72
8
 73
4
 74
0
 40
0
 40
0
 40
0
 40
0
 40
1
 40
1
 40
1
 40
1
 10
147.170069
 20
83.886681
 30
0.0
 10
147.170069
 20
83.773024
 30
0.0
 10
146.896613
 20
83.573106
 30
0.0
 10
146.561528
 20
83.445708
 30
0.0
  0
SPLINE
  5
23b
100
AcDbEntity
  8
0
 62
7
100
AcDbSpline
 70
8
 71
3
 72
8
 73
4
 74
0
 40
0
 40
0
 40
0
 40
0
 40
1
 40
1
 40
1
 40
1
 10
146.561528
 20
83.445708
 30
0.0
 10
145.924755
 20
83.203607
 30
0.0
 10
144.374306
 20
83.585595
 30
0.0
 10
144.374306
 20
83.983695
 30
0.0
  0
SPLINE
  5
23c
100
AcDbEntity
  8
0
 62
7
100
AcDbSpline
 70
8
 71
3
 72
8
 73
4
 74
0
 40
0
 40
0
 40
0
 40
0
 40
1
 40
1
 40
1
 40
1
 10
144.374306
 20
83.983695
 30
0.0
 10
144.374306
 20
84.519347
 30
0.0
 10
142.774797
 20
84.803096
 30
0.0
 10
140.079236
 20
84.742167
 30
0.0
  0
SPLINE
  5
23d
100
AcDbEntity
  8
0
 62
7
100
AcDbSpline
 70
8
 71
3
 72
8
 73
4
 74
0
 40
0
 40
0
 40
0
 40
0
 40
1
 40
1
 40
1
 40
1
 10
140.079236
 20
84.742167
 30
0.0
 10
137.372381
 20
84.680978
 30
0.0
 10
136.307940
 20
84.448145
 30
0.0
 10
135.581319
 20
83.754389
 30
0.0
  0
SPLINE
  5
23e
100
AcDbEntity
  8
0
 62
7
100
AcDbSpline
 70
8
 71
3
 72
8
 73
4
 74
0
 40
0
 40
0
 40
0
 40
0
 40
1
 40
1
 40
1
 40
1
 10
135.581319
 20
83.754389
 30
0.0
 10
135.412356
 20
83.593068
 30
0.0
 10
135.145591
 20
83.463347
 30
0.0
 10
134.981597
 20
83.463347
 30
0.0
  0
SPLINE
  5
23f
100
AcDbEntity
  8
0
 62
7
100
AcDbSpline
 70
8
 71
3
 72
8
 73
4
 74
0
 40
0
 40
0
 40
0
 40
0
 40
1
 40
1
 40
1
 40
1
 10
134.981597
 20
83.463347
 30
0.0
 10
134.817606
 20
83.463347
 30
0.0
 10
134.420322
 20
83.221875
 30
0.0
 10
134.099653
 20
82.934181
 30
0.0
  0
SPLINE
  5
240
100
AcDbEntity
  8
0
 62
7
100
AcDbSpline
 70
8
 71
3
 72
8
 73
4
 74
0
 40
0
 40
0
 40
0
 40
0
 40
1
 40
1
 40
1
 40
1
 10
134.099653
 20
82.934181
 30
0.0
 10
133.380082
 20
82.288603
 30
0.0
 10
132.796472
 20
81.896983
 30
0.0
 10
132.115278
 20
81.602445
 30
0.0
  0
SPLINE
  5
241
100
AcDbEntity
  8
0
 62
7
100
AcDbSpline
 70
8
 71
3
 72
8
 73
4
 74
0
 40
0
 40
0
 40
0
 40
0
 40
1
 40
1
 40
1
 40
1
 10
132.115278
 20
81.602445
 30
0.0
 10
131.827583
 20
81.478052
 30
0.0
 10
131.594931
 20
81.279661
 30
0.0
 10
131.594931
 20
81.161472
 30
0.0
  0
SPLINE
  5
242
100
AcDbEntity
  8
0
 62
7
100
AcDbSpline
 70
8
 71
3
 72
8
 73
4
 74
0
 40
0
 40
0
 40
0
 40
0
 40
1
 40
1
 40
1
 40
1
 10
131.594931
 20
81.161472
 30
0.0
 10
131.594931
 20
81.043286
 30
0.0
 10
131.070085
 20
80.765187
 30
0.0
 10
130.430764
 20
80.535292
 30
0.0
  0
SPLINE
  5
243
100
AcDbEntity
  8
0
 62
7
100
AcDbSpline
 70
8
 71
3
 72
8
 73
4
 74
0
 40
0
 40
0
 40
0
 40
0
 40
1
 40
1
 40
1
 40
1
 10
130.430764
 20
80.535292
 30
0.0
 10
129.791443
 20
80.305396
 30
0.0
 10
129.266597
 20
80.045391
 30
0.0
 10
129.266597
 20
79.962028
 30
0.0
  0
SPLINE
  5
244
100
AcDbEntity
  8
0
 62
7
100
AcDbSpline
 70
8
 71
3
 72
8
 73
4
 74
0
 40
0
 40
0
 40
0
 40
0
 40
1
 40
1
 40
1
 40
1
 10
129.266597
 20
79.962028
 30
0.0
 10
129.266597
 20
79.878665
 30
0.0
 10
128.640309
 20
79.561199
 30
0.0
 10
127.873125
 20
79.256472
 30
0.0
  0
SPLINE
  5
245
100
AcDbEntity
  8
0
 62
7
100
AcDbSpline
 70
8
 71
3
 72
8
 73
4
 74
0
 40
0
 40
0
 40
0
 40
0
 40
1
 40
1
 40
1
 40
1
 10
127.873125
 20
79.256472
 30
0.0
 10
127.105941
 20
78.951746
 30
0.0
 10
126.479653
 20
78.630292
 30
0.0
 10
126.479653
 20
78.542097
 30
0.0
  0
SPLINE
  5
246
100
AcDbEntity
  8
0
 62
7
100
AcDbSpline
 70
8
 71
3
 72
8
 73
4
 74
0
 40
0
 40
0
 40
0
 40
0
 40
1
 40
1
 40
1
 40
1
 10
126.479653
 20
78.542097
 30
0.0
 10
126.479653
 20
78.453900
 30
0.0
 10
126.103095
 20
78.259274
 30
0.0
 10
125.650625
 20
78.109945
 30
0.0
  0
SPLINE
  5
247
100
AcDbEntity
  8
0
 62
7
100
AcDbSpline
 70
8
 71
3
 72
8
 73
4
 74
0
 40
0
 40
0
 40
0
 40
0
 40
1
 40
1
 40
1
 40
1
 10
125.650625
 20
78.109945
 30
0.0
 10
125.017570
 20
77.901024
 30
0.0
 10
124.753632
 20
77.904351
 30
0.0
 10
124.495278
 20
78.118764
 30
0.0
  0
SPLINE
  5
248
100
AcDbEntity
  8
0
 62
7
100
AcDbSpline
 70
8
 71
3
 72
8
 73
4
 74
0
 40
0
 40
0
 40
0
 40
0
 40
1
 40
1
 40
1
 40
1
 10
124.495278
 20
78.118764
 30
0.0
 10
124.112226
 20
78.436668
 30
0.0
 10
123.685864
 20
79.793727
 30
0.0
 10
123.683889
 20
80.711681
 30
0.0
  0
SPLINE
  5
249
100
AcDbEntity
  8
0
 62
7
100
AcDbSpline
 70
8
 71
3
 72
8
 73
4
 74
0
 40
0
 40
0
 40
0
 40
0
 40
1
 40
1
 40
1
 40
1
 10
123.683889
 20
80.711681
 30
0.0
 10
123.683175
 20
81.052653
 30
0.0
 10
123.576673
 20
81.364780
 30
0.0
 10
123.445764
 20
81.408417
 30
0.0
  0
SPLINE
  5
24a
100
AcDbEntity
  8
0
 62
7
100
AcDbSpline
 70
8
 71
3
 72
8
 73
4
 74
0
 40
0
 40
0
 40
0
 40
0
 40
1
 40
1
 40
1
 40
1
 10
123.445764
 20
81.408417
 30
0.0
 10
123.314855
 20
81.452051
 30
0.0
 10
123.037267
 20
82.428232
 30
0.0
 10
122.828403
 20
83.578000
 30
0.0
  0
SPLINE
  5
24b
100
AcDbEntity
  8
0
 62
7
100
AcDbSpline
 70
8
 71
3
 72
8
 73
4
 74
0
 40
0
 40
0
 40
0
 40
0
 40
1
 40
1
 40
1
 40
1
 10
122.828403
 20
83.578000
 30
0.0
 10
122.619541
 20
84.727762
 30
0.0
 10
122.373125
 20
85.718929
 30
0.0
 10
122.281597
 20
85.782861
 30
0.0
  0
SPLINE
  5
24c
100
AcDbEntity
  8
0
 62
7
100
AcDbSpline
 70
8
 71
3
 72
8
 73
4
 74
0
 40
0
 40
0
 40
0
 40
0
 40
1
 40
1
 40
1
 40
1
 10
122.281597
 20
85.782861
 30
0.0
 10
122.087643
 20
85.918336
 30
0.0
 10
121.133094
 20
89.735093
 30
0.0
 10
121.135069
 20
90.360153
 30
0.0
  0
SPLINE
  5
24d
100
AcDbEntity
  8
0
 62
7
100
AcDbSpline
 70
8
 71
3
 72
8
 73
4
 74
0
 40
0
 40
0
 40
0
 40
0
 40
1
 40
1
 40
1
 40
1
 10
121.135069
 20
90.360153
 30
0.0
 10
121.135860
 20
90.593223
 30
0.0
 10
121.300855
 20
91.096629
 30
0.0
 10
121.505486
 20
91.480222
 30
0.0
  0
SPLINE
  5
24e
100
AcDbEntity
  8
0
 62
7
100
AcDbSpline
 70
8
 71
3
 72
8
 73
4
 74
0
 40
0
 40
0
 40
0
 40
0
 40
1
 40
1
 40
1
 40
1
 10
121.505486
 20
91.480222
 30
0.0
 10
122.131765
 20
92.654207
 30
0.0
 10
122.179811
 20
94.764279
 30
0.0
 10
121.620139
 20
96.348556
 30
0.0
  0
SPLINE
  5
24f
100
AcDbEntity
  8
0
 62
7
100
AcDbSpline
 70
8
 71
3
 72
8
 73
4
 74
0
 40
0
 40
0
 40
0
 40
0
 40
1
 40
1
 40
1
 40
1
 10
121.620139
 20
96.348556
 30
0.0
 10
121.352090
 20
97.107333
 30
0.0
 10
121.047157
 20
97.784341
 30
0.0
 10
120.941042
 20
97.856681
 30
0.0
  0
SPLINE
  5
250
100
AcDbEntity
  8
0
 62
7
100
AcDbSpline
 70
8
 71
3
 72
8
 73
4
 74
0
 40
0
 40
0
 40
0
 40
0
 40
1
 40
1
 40
1
 40
1
 10
120.941042
 20
97.856681
 30
0.0
 10
120.834929
 20
97.929025
 30
0.0
 10
120.508130
 20
98.484047
 30
0.0
 10
120.217847
 20
99.091403
 30
0.0
  0
SPLINE
  5
251
100
AcDbEntity
  8
0
 62
7
100
AcDbSpline
 70
8
 71
3
 72
8
 73
4
 74
0
 40
0
 40
0
 40
0
 40
0
 40
1
 40
1
 40
1
 40
1
 10
120.217847
 20
99.091403
 30
0.0
 10
119.927565
 20
99.698756
 30
0.0
 10
119.621783
 20
100.202653
 30
0.0
 10
119.529931
 20
100.202653
 30
0.0
  0
SPLINE
  5
252
100
AcDbEntity
  8
0
 62
7
100
AcDbSpline
 70
8
 71
3
 72
8
 73
4
 74
0
 40
0
 40
0
 40
0
 40
0
 40
1
 40
1
 40
1
 40
1
 10
119.529931
 20
100.202653
 30
0.0
 10
119.438081
 20
100.202653
 30
0.0
 10
119.173501
 20
100.617237
 30
0.0
 10
118.947847
 20
101.128695
 30
0.0
  0
SPLINE
  5
253
100
AcDbEntity
  8
0
 62
7
100
AcDbSpline
 70
8
 71
3
 72
8
 73
4
 74
0
 40
0
 40
0
 40
0
 40
0
 40
1
 40
1
 40
1
 40
1
 10
118.947847
 20
101.128695
 30
0.0
 10
118.722191
 20
101.640152
 30
0.0
 10
118.461714
 20
102.054736
 30
0.0
 10
118.365764
 20
102.054736
 30
0.0
  0
SPLINE
  5
254
100
AcDbEntity
  8
0
 62
7
100
AcDbSpline
 70
8
 71
3
 72
8
 73
4
 74
0
 40
0
 40
0
 40
0
 40
0
 40
1
 40
1
 40
1
 40
1
 10
118.365764
 20
102.054736
 30
0.0
 10
118.269814
 20
102.054736
 30
0.0
 10
117.956392
 20
102.528858
 30
0.0
 10
117.669028
 20
103.104250
 30
0.0
  0
SPLINE
  5
255
100
AcDbEntity
  8
0
 62
7
100
AcDbSpline
 70
8
 71
3
 72
8
 73
4
 74
0
 40
0
 40
0
 40
0
 40
0
 40
1
 40
1
 40
1
 40
1
 10
117.669028
 20
103.104250
 30
0.0
 10
117.381666
 20
103.679639
 30
0.0
 10
117.066754
 20
104.153764
 30
0.0
 10
116.972292
 20
104.153764
 30
0.0
  0
SPLINE
  5
256
100
AcDbEntity
  8
0
 62
7
100
AcDbSpline
 70
8
 71
3
 72
8
 73
4
 74
0
 40
0
 40
0
 40
0
 40
0
 40
1
 40
1
 40
1
 40
1
 10
116.972292
 20
104.153764
 30
0.0
 10
116.877829
 20
104.153764
 30
0.0
 10
116.543582
 20
104.721807
 30
0.0
 10
116.231458
 20
105.423764
 30
0.0
  0
SPLINE
  5
257
100
AcDbEntity
  8
0
 62
7
100
AcDbSpline
 70
8
 71
3
 72
8
 73
4
 74
0
 40
0
 40
0
 40
0
 40
0
 40
1
 40
1
 40
1
 40
1
 10
116.231458
 20
105.423764
 30
0.0
 10
115.919332
 20
106.125724
 30
0.0
 10
115.586524
 20
106.701172
 30
0.0
 10
115.490625
 20
106.702583
 30
0.0
  0
SPLINE
  5
258
100
AcDbEntity
  8
0
 62
7
100
AcDbSpline
 70
8
 71
3
 72
8
 73
4
 74
0
 40
0
 40
0
 40
0
 40
0
 40
1
 40
1
 40
1
 40
1
 10
115.490625
 20
106.702583
 30
0.0
 10
115.111372
 20
106.707709
 30
0.0
 10
115.340861
 20
107.611771
 30
0.0
 10
115.755208
 20
107.743278
 30
0.0
  0
SPLINE
  5
259
100
AcDbEntity
  8
0
 62
7
100
AcDbSpline
 70
8
 71
3
 72
8
 73
4
 74
0
 40
0
 40
0
 40
0
 40
0
 40
1
 40
1
 40
1
 40
1
 10
115.755208
 20
107.743278
 30
0.0
 10
116.026813
 20
107.829483
 30
0.0
 10
116.316450
 20
108.286973
 30
0.0
 10
116.504861
 20
108.925083
 30
0.0
  0
SPLINE
  5
25a
100
AcDbEntity
  8
0
 62
7
100
AcDbSpline
 70
8
 71
3
 72
8
 73
4
 74
0
 40
0
 40
0
 40
0
 40
0
 40
1
 40
1
 40
1
 40
1
 10
116.504861
 20
108.925083
 30
0.0
 10
116.673404
 20
109.495909
 30
0.0
 10
116.898801
 20
109.965778
 30
0.0
 10
116.998750
 20
109.965778
 30
0.0
  0
SPLINE
  5
25b
100
AcDbEntity
  8
0
 62
7
100
AcDbSpline
 70
8
 71
3
 72
8
 73
4
 74
0
 40
0
 40
0
 40
0
 40
0
 40
1
 40
1
 40
1
 40
1
 10
116.998750
 20
109.965778
 30
0.0
 10
117.098699
 20
109.965778
 30
0.0
 10
117.175139
 20
111.417456
 30
0.0
 10
117.175139
 20
113.193695
 30
0.0
  0
LWPOLYLINE
  5
25c
100
AcDbEntity
  8
0
 62
7
100
AcDbPolyline
 90
3
 70
0
 10
162.471806
 20
81.135014
 30
0.0
 10
162.392431
 20
82.413833
 30
0.0
 10
164.297431
 20
82.431472
 30
0.0
  0
SPLINE
  5
25d
100
AcDbEntity
  8
0
 62
7
100
AcDbSpline
 70
8
 71
3
 72
8
 73
4
 74
0
 40
0
 40
0
 40
0
 40
0
 40
1
 40
1
 40
1
 40
1
 10
116.593056
 20
116.571542
 30
0.0
 10
116.273397
 20
116.651775
 30
0.0
 10
116.010972
 20
116.816530
 30
0.0
 10
116.010972
 20
116.941958
 30
0.0
  0
SPLINE
  5
25e
100
AcDbEntity
  8
0
 62
7
100
AcDbSpline
 70
8
 71
3
 72
8
 73
4
 74
0
 40
0
 40
0
 40
0
 40
0
 40
1
 40
1
 40
1
 40
1
 10
116.010972
 20
116.941958
 30
0.0
 10
116.010972
 20
117.067386
 30
0.0
 10
115.596388
 20
117.171264
 30
0.0
 10
115.084931
 20
117.171264
 30
0.0
  0
SPLINE
  5
25f
100
AcDbEntity
  8
0
 62
7
100
AcDbSpline
 70
8
 71
3
 72
8
 73
4
 74
0
 40
0
 40
0
 40
0
 40
0
 40
1
 40
1
 40
1
 40
1
 10
115.084931
 20
117.171264
 30
0.0
 10
114.573473
 20
117.171264
 30
0.0
 10
114.158889
 20
117.069822
 30
0.0
 10
114.158889
 20
116.941958
 30
0.0
  0
SPLINE
  5
260
100
AcDbEntity
  8
0
 62
7
100
AcDbSpline
 70
8
 71
3
 72
8
 73
4
 74
0
 40
0
 40
0
 40
0
 40
0
 40
1
 40
1
 40
1
 40
1
 10
114.158889
 20
116.941958
 30
0.0
 10
114.158889
 20
116.814095
 30
0.0
 10
113.976762
 20
116.703833
 30
0.0
 10
113.762014
 20
116.703833
 30
0.0
  0
SPLINE
  5
261
100
AcDbEntity
  8
0
 62
7
100
AcDbSpline
 70
8
 71
3
 72
8
 73
4
 74
0
 40
0
 40
0
 40
0
 40
0
 40
1
 40
1
 40
1
 40
1
 10
113.762014
 20
116.703833
 30
0.0
 10
113.142370
 20
116.703833
 30
0.0
 10
110.437083
 20
115.735396
 30
0.0
 10
110.437083
 20
115.513208
 30
0.0
  0
SPLINE
  5
262
100
AcDbEntity
  8
0
 62
7
100
AcDbSpline
 70
8
 71
3
 72
8
 73
4
 74
0
 40
0
 40
0
 40
0
 40
0
 40
1
 40
1
 40
1
 40
1
 10
110.437083
 20
115.513208
 30
0.0
 10
110.437083
 20
115.042030
 30
0.0
 10
109.999026
 20
115.373133
 30
0.0
 10
109.652153
 20
116.104111
 30
0.0
  0
SPLINE
  5
263
100
AcDbEntity
  8
0
 62
7
100
AcDbSpline
 70
8
 71
3
 72
8
 73
4
 74
0
 40
0
 40
0
 40
0
 40
0
 40
1
 40
1
 40
1
 40
1
 10
109.652153
 20
116.104111
 30
0.0
 10
109.356957
 20
116.726191
 30
0.0
 10
109.272917
 20
117.658337
 30
0.0
 10
109.272917
 20
120.496195
 30
0.0
  0
SPLINE
  5
264
100
AcDbEntity
  8
0
 62
7
100
AcDbSpline
 70
8
 71
3
 72
8
 73
4
 74
0
 40
0
 40
0
 40
0
 40
0
 40
1
 40
1
 40
1
 40
1
 10
109.272917
 20
120.496195
 30
0.0
 10
109.272917
 20
123.006369
 30
0.0
 10
109.194247
 20
124.129571
 30
0.0
 10
109.008333
 20
124.191542
 30
0.0
  0
SPLINE
  5
265
100
AcDbEntity
  8
0
 62
7
100
AcDbSpline
 70
8
 71
3
 72
8
 73
4
 74
0
 40
0
 40
0
 40
0
 40
0
 40
1
 40
1
 40
1
 40
1
 10
109.008333
 20
124.191542
 30
0.0
 10
108.818635
 20
124.254774
 30
0.0
 10
108.709420
 20
126.272691
 30
0.0
 10
108.629097
 20
131.141264
 30
0.0
  0
SPLINE
  5
266
100
AcDbEntity
  8
0
 62
7
100
AcDbSpline
 70
8
 71
3
 72
8
 73
4
 74
0
 40
0
 40
0
 40
0
 40
0
 40
1
 40
1
 40
1
 40
1
 10
108.629097
 20
131.141264
 30
0.0
 10
108.532092
 20
137.021003
 30
0.0
 10
108.560269
 20
138.048619
 30
0.0
 10
108.858403
 20
138.346750
 30
0.0
  0
SPLINE
  5
267
100
AcDbEntity
  8
0
 62
7
100
AcDbSpline
 70
8
 71
3
 72
8
 73
4
 74
0
 40
0
 40
0
 40
0
 40
0
 40
1
 40
1
 40
1
 40
1
 10
108.858403
 20
138.346750
 30
0.0
 10
109.049617
 20
138.537967
 30
0.0
 10
109.448778
 20
139.372611
 30
0.0
 10
109.740347
 20
140.198833
 30
0.0
  0
SPLINE
  5
268
100
AcDbEntity
  8
0
 62
7
100
AcDbSpline
 70
8
 71
3
 72
8
 73
4
 74
0
 40
0
 40
0
 40
0
 40
0
 40
1
 40
1
 40
1
 40
1
 10
109.740347
 20
140.198833
 30
0.0
 10
110.031917
 20
141.025059
 30
0.0
 10
110.345652
 20
141.748860
 30
0.0
 10
110.437083
 20
141.812792
 30
0.0
  0
SPLINE
  5
269
100
AcDbEntity
  8
0
 62
7
100
AcDbSpline
 70
8
 71
3
 72
8
 73
4
 74
0
 40
0
 40
0
 40
0
 40
0
 40
1
 40
1
 40
1
 40
1
 10
110.437083
 20
141.812792
 30
0.0
 10
110.528515
 20
141.876724
 30
0.0
 10
110.730180
 20
142.319908
 30
0.0
 10
110.886875
 20
142.800570
 30
0.0
  0
SPLINE
  5
26a
100
AcDbEntity
  8
0
 62
7
100
AcDbSpline
 70
8
 71
3
 72
8
 73
4
 74
0
 40
0
 40
0
 40
0
 40
0
 40
1
 40
1
 40
1
 40
1
 10
110.886875
 20
142.800570
 30
0.0
 10
111.043570
 20
143.281228
 30
0.0
 10
111.337793
 20
143.842387
 30
0.0
 10
111.539514
 20
144.044111
 30
0.0
  0
SPLINE
  5
26b
100
AcDbEntity
  8
0
 62
7
100
AcDbSpline
 70
8
 71
3
 72
8
 73
4
 74
0
 40
0
 40
0
 40
0
 40
0
 40
1
 40
1
 40
1
 40
1
 10
111.539514
 20
144.044111
 30
0.0
 10
112.002923
 20
144.507517
 30
0.0
 10
112.754339
 20
147.623445
 30
0.0
 10
112.756597
 20
149.080014
 30
0.0
  0
SPLINE
  5
26c
100
AcDbEntity
  8
0
 62
7
100
AcDbSpline
 70
8
 71
3
 72
8
 73
4
 74
0
 40
0
 40
0
 40
0
 40
0
 40
1
 40
1
 40
1
 40
1
 10
112.756597
 20
149.080014
 30
0.0
 10
112.757596
 20
149.687367
 30
0.0
 10
112.866859
 20
150.182445
 30
0.0
 10
112.994722
 20
150.182445
 30
0.0
  0
SPLINE
  5
26d
100
AcDbEntity
  8
0
 62
7
100
AcDbSpline
 70
8
 71
3
 72
8
 73
4
 74
0
 40
0
 40
0
 40
0
 40
0
 40
1
 40
1
 40
1
 40
1
 10
112.994722
 20
150.182445
 30
0.0
 10
113.123878
 20
150.182445
 30
0.0
 10
113.224028
 20
150.800983
 30
0.0
 10
113.224028
 20
151.575917
 30
0.0
  0
SPLINE
  5
26e
100
AcDbEntity
  8
0
 62
7
100
AcDbSpline
 70
8
 71
3
 72
8
 73
4
 74
0
 40
0
 40
0
 40
0
 40
0
 40
1
 40
1
 40
1
 40
1
 10
113.224028
 20
151.575917
 30
0.0
 10
113.224028
 20
152.350851
 30
0.0
 10
113.123878
 20
152.969389
 30
0.0
 10
112.994722
 20
152.969389
 30
0.0
  0
SPLINE
  5
26f
100
AcDbEntity
  8
0
 62
7
100
AcDbSpline
 70
8
 71
3
 72
8
 73
4
 74
0
 40
0
 40
0
 40
0
 40
0
 40
1
 40
1
 40
1
 40
1
 10
112.994722
 20
152.969389
 30
0.0
 10
112.866859
 20
152.969389
 30
0.0
 10
112.756597
 20
153.130369
 30
0.0
 10
112.756597
 20
153.322167
 30
0.0
  0
SPLINE
  5
270
100
AcDbEntity
  8
0
 62
7
100
AcDbSpline
 70
8
 71
3
 72
8
 73
4
 74
0
 40
0
 40
0
 40
0
 40
0
 40
1
 40
1
 40
1
 40
1
 10
112.756597
 20
153.322167
 30
0.0
 10
112.756597
 20
153.513962
 30
0.0
 10
112.887808
 20
153.672969
 30
0.0
 10
113.047639
 20
153.674945
 30
0.0
  0
SPLINE
  5
271
100
AcDbEntity
  8
0
 62
7
100
AcDbSpline
 70
8
 71
3
 72
8
 73
4
 74
0
 40
0
 40
0
 40
0
 40
0
 40
1
 40
1
 40
1
 40
1
 10
113.047639
 20
153.674945
 30
0.0
 10
113.248372
 20
153.677406
 30
0.0
 10
113.259337
 20
153.733356
 30
0.0
 10
113.082917
 20
153.851333
 30
0.0
  0
SPLINE
  5
272
100
AcDbEntity
  8
0
 62
7
100
AcDbSpline
 70
8
 71
3
 72
8
 73
4
 74
0
 40
0
 40
0
 40
0
 40
0
 40
1
 40
1
 40
1
 40
1
 10
113.082917
 20
153.851333
 30
0.0
 10
112.942446
 20
153.945277
 30
0.0
 10
112.759871
 20
154.594470
 30
0.0
 10
112.677222
 20
155.297722
 30
0.0
  0
SPLINE
  5
273
100
AcDbEntity
  8
0
 62
7
100
AcDbSpline
 70
8
 71
3
 72
8
 73
4
 74
0
 40
0
 40
0
 40
0
 40
0
 40
1
 40
1
 40
1
 40
1
 10
112.677222
 20
155.297722
 30
0.0
 10
112.481103
 20
156.966480
 30
0.0
 10
112.120121
 20
158.227257
 30
0.0
 10
111.724722
 20
158.622653
 30
0.0
  0
SPLINE
  5
274
100
AcDbEntity
  8
0
 62
7
100
AcDbSpline
 70
8
 71
3
 72
8
 73
4
 74
0
 40
0
 40
0
 40
0
 40
0
 40
1
 40
1
 40
1
 40
1
 10
111.724722
 20
158.622653
 30
0.0
 10
111.550117
 20
158.797258
 30
0.0
 10
111.231906
 20
159.451249
 30
0.0
 10
111.019167
 20
160.077861
 30
0.0
  0
SPLINE
  5
275
100
AcDbEntity
  8
0
 62
7
100
AcDbSpline
 70
8
 71
3
 72
8
 73
4
 74
0
 40
0
 40
0
 40
0
 40
0
 40
1
 40
1
 40
1
 40
1
 10
111.019167
 20
160.077861
 30
0.0
 10
110.806425
 20
160.704474
 30
0.0
 10
110.568506
 20
161.272505
 30
0.0
 10
110.481181
 20
161.339042
 30
0.0
  0
SPLINE
  5
276
100
AcDbEntity
  8
0
 62
7
100
AcDbSpline
 70
8
 71
3
 72
8
 73
4
 74
0
 40
0
 40
0
 40
0
 40
0
 40
1
 40
1
 40
1
 40
1
 10
110.481181
 20
161.339042
 30
0.0
 10
110.393855
 20
161.405581
 30
0.0
 10
110.066365
 20
161.928175
 30
0.0
 10
109.757986
 20
162.503208
 30
0.0
  0
SPLINE
  5
277
100
AcDbEntity
  8
0
 62
7
100
AcDbSpline
 70
8
 71
3
 72
8
 73
4
 74
0
 40
0
 40
0
 40
0
 40
0
 40
1
 40
1
 40
1
 40
1
 10
109.757986
 20
162.503208
 30
0.0
 10
109.449608
 20
163.078239
 30
0.0
 10
109.005254
 20
163.685505
 30
0.0
 10
108.770208
 20
163.852583
 30
0.0
  0
SPLINE
  5
278
100
AcDbEntity
  8
0
 62
7
100
AcDbSpline
 70
8
 71
3
 72
8
 73
4
 74
0
 40
0
 40
0
 40
0
 40
0
 40
1
 40
1
 40
1
 40
1
 10
108.770208
 20
163.852583
 30
0.0
 10
108.331423
 20
164.164493
 30
0.0
 10
108.181792
 20
164.831542
 30
0.0
 10
108.549722
 20
164.831542
 30
0.0
  0
SPLINE
  5
279
100
AcDbEntity
  8
0
 62
7
100
AcDbSpline
 70
8
 71
3
 72
8
 73
4
 74
0
 40
0
 40
0
 40
0
 40
0
 40
1
 40
1
 40
1
 40
1
 10
108.549722
 20
164.831542
 30
0.0
 10
108.868103
 20
164.831542
 30
0.0
 10
109.858804
 20
164.272112
 30
0.0
 10
110.260694
 20
163.870222
 30
0.0
  0
SPLINE
  5
27a
100
AcDbEntity
  8
0
 62
7
100
AcDbSpline
 70
8
 71
3
 72
8
 73
4
 74
0
 40
0
 40
0
 40
0
 40
0
 40
1
 40
1
 40
1
 40
1
 10
110.260694
 20
163.870222
 30
0.0
 10
110.459480
 20
163.671436
 30
0.0
 10
111.212105
 20
163.327972
 30
0.0
 10
111.927569
 20
163.102931
 30
0.0
  0
SPLINE
  5
27b
100
AcDbEntity
  8
0
 62
7
100
AcDbSpline
 70
8
 71
3
 72
8
 73
4
 74
0
 40
0
 40
0
 40
0
 40
0
 40
1
 40
1
 40
1
 40
1
 10
111.927569
 20
163.102931
 30
0.0
 10
112.643034
 20
162.877889
 30
0.0
 10
113.224028
 20
162.601535
 30
0.0
 10
113.224028
 20
162.485570
 30
0.0
  0
SPLINE
  5
27c
100
AcDbEntity
  8
0
 62
7
100
AcDbSpline
 70
8
 71
3
 72
8
 73
4
 74
0
 40
0
 40
0
 40
0
 40
0
 40
1
 40
1
 40
1
 40
1
 10
113.224028
 20
162.485570
 30
0.0
 10
113.224028
 20
162.369607
 30
0.0
 10
113.385010
 20
162.273903
 30
0.0
 10
113.576806
 20
162.273903
 30
0.0
  0
SPLINE
  5
27d
100
AcDbEntity
  8
0
 62
7
100
AcDbSpline
 70
8
 71
3
 72
8
 73
4
 74
0
 40
0
 40
0
 40
0
 40
0
 40
1
 40
1
 40
1
 40
1
 10
113.576806
 20
162.273903
 30
0.0
 10
113.768604
 20
162.273903
 30
0.0
 10
113.920764
 20
162.375345
 30
0.0
 10
113.920764
 20
162.503208
 30
0.0
  0
SPLINE
  5
27e
100
AcDbEntity
  8
0
 62
7
100
AcDbSpline
 70
8
 71
3
 72
8
 73
4
 74
0
 40
0
 40
0
 40
0
 40
0
 40
1
 40
1
 40
1
 40
1
 10
113.920764
 20
162.503208
 30
0.0
 10
113.920764
 20
162.631072
 30
0.0
 10
114.057066
 20
162.732514
 30
0.0
 10
114.220625
 20
162.732514
 30
0.0
  0
SPLINE
  5
27f
100
AcDbEntity
  8
0
 62
7
100
AcDbSpline
 70
8
 71
3
 72
8
 73
4
 74
0
 40
0
 40
0
 40
0
 40
0
 40
1
 40
1
 40
1
 40
1
 10
114.220625
 20
162.732514
 30
0.0
 10
114.860172
 20
162.732514
 30
0.0
 10
116.156811
 20
164.329650
 30
0.0
 10
116.478403
 20
165.510639
 30
0.0
  0
SPLINE
  5
280
100
AcDbEntity
  8
0
 62
7
100
AcDbSpline
 70
8
 71
3
 72
8
 73
4
 74
0
 40
0
 40
0
 40
0
 40
0
 40
1
 40
1
 40
1
 40
1
 10
116.478403
 20
165.510639
 30
0.0
 10
116.655410
 20
166.160657
 30
0.0
 10
116.871877
 20
166.692445
 30
0.0
 10
116.963472
 20
166.692445
 30
0.0
  0
SPLINE
  5
281
100
AcDbEntity
  8
0
 62
7
100
AcDbSpline
 70
8
 71
3
 72
8
 73
4
 74
0
 40
0
 40
0
 40
0
 40
0
 40
1
 40
1
 40
1
 40
1
 10
116.963472
 20
166.692445
 30
0.0
 10
117.055067
 20
166.692445
 30
0.0
 10
117.367400
 20
167.712365
 30
0.0
 10
117.660208
 20
168.959042
 30
0.0
  0
SPLINE
  5
282
100
AcDbEntity
  8
0
 62
7
100
AcDbSpline
 70
8
 71
3
 72
8
 73
4
 74
0
 40
0
 40
0
 40
0
 40
0
 40
1
 40
1
 40
1
 40
1
 10
117.660208
 20
168.959042
 30
0.0
 10
117.953014
 20
170.205719
 30
0.0
 10
118.262352
 20
171.276360
 30
0.0
 10
118.348125
 20
171.340292
 30
0.0
  0
SPLINE
  5
283
100
AcDbEntity
  8
0
 62
7
100
AcDbSpline
 70
8
 71
3
 72
8
 73
4
 74
0
 40
0
 40
0
 40
0
 40
0
 40
1
 40
1
 40
1
 40
1
 10
118.348125
 20
171.340292
 30
0.0
 10
118.433895
 20
171.404224
 30
0.0
 10
118.700039
 20
172.445095
 30
0.0
 10
118.939028
 20
173.659806
 30
0.0
  0
SPLINE
  5
284
100
AcDbEntity
  8
0
 62
7
100
AcDbSpline
 70
8
 71
3
 72
8
 73
4
 74
0
 40
0
 40
0
 40
0
 40
0
 40
1
 40
1
 40
1
 40
1
 10
118.939028
 20
173.659806
 30
0.0
 10
119.178014
 20
174.874517
 30
0.0
 10
119.440486
 20
175.924207
 30
0.0
 10
119.521111
 20
175.988139
 30
0.0
  0
SPLINE
  5
285
100
AcDbEntity
  8
0
 62
7
100
AcDbSpline
 70
8
 71
3
 72
8
 73
4
 74
0
 40
0
 40
0
 40
0
 40
0
 40
1
 40
1
 40
1
 40
1
 10
119.521111
 20
175.988139
 30
0.0
 10
119.796896
 20
176.206819
 30
0.0
 10
120.697845
 20
182.382050
 30
0.0
 10
120.623542
 20
183.546403
 30
0.0
  0
LWPOLYLINE
  5
286
100
AcDbEntity
  8
0
 62
7
100
AcDbPolyline
 90
3
 70
0
 10
117.175139
 20
113.193695
 30
0.0
 10
117.175139
 20
116.421611
 30
0.0
 10
116.593056
 20
116.571542
 30
0.0
  0
SPLINE
  5
287
100
AcDbEntity
  8
0
 62
7
100
AcDbSpline
 70
8
 71
3
 72
8
 73
4
 74
0
 40
0
 40
0
 40
0
 40
0
 40
1
 40
1
 40
1
 40
1
 10
118.224653
 20
184.781125
 30
0.0
 10
115.813609
 20
184.857238
 30
0.0
 10
110.666389
 20
184.425513
 30
0.0
 10
110.666389
 20
184.146125
 30
0.0
  0
SPLINE
  5
288
100
AcDbEntity
  8
0
 62
7
100
AcDbSpline
 70
8
 71
3
 72
8
 73
4
 74
0
 40
0
 40
0
 40
0
 40
0
 40
1
 40
1
 40
1
 40
1
 10
110.666389
 20
184.146125
 30
0.0
 10
110.666389
 20
184.058459
 30
0.0
 10
109.858169
 20
183.849524
 30
0.0
 10
108.867222
 20
183.687514
 30
0.0
  0
SPLINE
  5
289
100
AcDbEntity
  8
0
 62
7
100
AcDbSpline
 70
8
 71
3
 72
8
 73
4
 74
0
 40
0
 40
0
 40
0
 40
0
 40
1
 40
1
 40
1
 40
1
 10
108.867222
 20
183.687514
 30
0.0
 10
106.903362
 20
183.366442
 30
0.0
 10
105.275620
 20
182.952609
 30
0.0
 10
105.092500
 20
182.726195
 30
0.0
  0
SPLINE
  5
28a
100
AcDbEntity
  8
0
 62
7
100
AcDbSpline
 70
8
 71
3
 72
8
 73
4
 74
0
 40
0
 40
0
 40
0
 40
0
 40
1
 40
1
 40
1
 40
1
 10
105.092500
 20
182.726195
 30
0.0
 10
105.028568
 20
182.647147
 30
0.0
 10
104.243271
 20
182.404207
 30
0.0
 10
103.355069
 20
182.188208
 30
0.0
  0
SPLINE
  5
28b
100
AcDbEntity
  8
0
 62
7
100
AcDbSpline
 70
8
 71
3
 72
8
 73
4
 74
0
 40
0
 40
0
 40
0
 40
0
 40
1
 40
1
 40
1
 40
1
 10
103.355069
 20
182.188208
 30
0.0
 10
102.466868
 20
181.972209
 30
0.0
 10
101.688420
 20
181.705442
 30
0.0
 10
101.617639
 20
181.597306
 30
0.0
  0
SPLINE
  5
28c
100
AcDbEntity
  8
0
 62
7
100
AcDbSpline
 70
8
 71
3
 72
8
 73
4
 74
0
 40
0
 40
0
 40
0
 40
0
 40
1
 40
1
 40
1
 40
1
 10
101.617639
 20
181.597306
 30
0.0
 10
101.546858
 20
181.489169
 30
0.0
 10
100.727849
 20
181.167903
 30
0.0
 10
99.800833
 20
180.882931
 30
0.0
  0
SPLINE
  5
28d
100
AcDbEntity
  8
0
 62
7
100
AcDbSpline
 70
8
 71
3
 72
8
 73
4
 74
0
 40
0
 40
0
 40
0
 40
0
 40
1
 40
1
 40
1
 40
1
 10
99.800833
 20
180.882931
 30
0.0
 10
98.873815
 20
180.597959
 30
0.0
 10
98.116319
 20
180.288037
 30
0.0
 10
98.116319
 20
180.195014
 30
0.0
  0
SPLINE
  5
28e
100
AcDbEntity
  8
0
 62
7
100
AcDbSpline
 70
8
 71
3
 72
8
 73
4
 74
0
 40
0
 40
0
 40
0
 40
0
 40
1
 40
1
 40
1
 40
1
 10
98.116319
 20
180.195014
 30
0.0
 10
98.116319
 20
179.873296
 30
0.0
 10
95.326728
 20
179.187577
 30
0.0
 10
94.676736
 20
179.348347
 30
0.0
  0
SPLINE
  5
28f
100
AcDbEntity
  8
0
 62
7
100
AcDbSpline
 70
8
 71
3
 72
8
 73
4
 74
0
 40
0
 40
0
 40
0
 40
0
 40
1
 40
1
 40
1
 40
1
 10
94.676736
 20
179.348347
 30
0.0
 10
94.327337
 20
179.434769
 30
0.0
 10
93.495941
 20
179.621626
 30
0.0
 10
92.824653
 20
179.762861
 30
0.0
  0
SPLINE
  5
290
100
AcDbEntity
  8
0
 62
7
100
AcDbSpline
 70
8
 71
3
 72
8
 73
4
 74
0
 40
0
 40
0
 40
0
 40
0
 40
1
 40
1
 40
1
 40
1
 10
92.824653
 20
179.762861
 30
0.0
 10
92.153365
 20
179.904096
 30
0.0
 10
91.607569
 20
180.106168
 30
0.0
 10
91.607569
 20
180.212653
 30
0.0
  0
SPLINE
  5
291
100
AcDbEntity
  8
0
 62
7
100
AcDbSpline
 70
8
 71
3
 72
8
 73
4
 74
0
 40
0
 40
0
 40
0
 40
0
 40
1
 40
1
 40
1
 40
1
 10
91.607569
 20
180.212653
 30
0.0
 10
91.607569
 20
180.319137
 30
0.0
 10
91.032005
 20
180.406681
 30
0.0
 10
90.328750
 20
180.406681
 30
0.0
  0
SPLINE
  5
292
100
AcDbEntity
  8
0
 62
7
100
AcDbSpline
 70
8
 71
3
 72
8
 73
4
 74
0
 40
0
 40
0
 40
0
 40
0
 40
1
 40
1
 40
1
 40
1
 10
90.328750
 20
180.406681
 30
0.0
 10
89.625497
 20
180.406681
 30
0.0
 10
89.049931
 20
180.320170
 30
0.0
 10
89.049931
 20
180.212653
 30
0.0
  0
SPLINE
  5
293
100
AcDbEntity
  8
0
 62
7
100
AcDbSpline
 70
8
 71
3
 72
8
 73
4
 74
0
 40
0
 40
0
 40
0
 40
0
 40
1
 40
1
 40
1
 40
1
 10
89.049931
 20
180.212653
 30
0.0
 10
89.049931
 20
180.105136
 30
0.0
 10
88.483290
 20
179.889861
 30
0.0
 10
87.797569
 20
179.736403
 30
0.0
  0
SPLINE
  5
294
100
AcDbEntity
  8
0
 62
7
100
AcDbSpline
 70
8
 71
3
 72
8
 73
4
 74
0
 40
0
 40
0
 40
0
 40
0
 40
1
 40
1
 40
1
 40
1
 10
87.797569
 20
179.736403
 30
0.0
 10
86.411094
 20
179.426123
 30
0.0
 10
85.709413
 20
179.619036
 30
0.0
 10
84.666667
 20
180.583070
 30
0.0
  0
SPLINE
  5
295
100
AcDbEntity
  8
0
 62
7
100
AcDbSpline
 70
8
 71
3
 72
8
 73
4
 74
0
 40
0
 40
0
 40
0
 40
0
 40
1
 40
1
 40
1
 40
1
 10
84.666667
 20
180.583070
 30
0.0
 10
84.355480
 20
180.870764
 30
0.0
 10
83.966352
 20
181.103417
 30
0.0
 10
83.802361
 20
181.103417
 30
0.0
  0
SPLINE
  5
296
100
AcDbEntity
  8
0
 62
7
100
AcDbSpline
 70
8
 71
3
 72
8
 73
4
 74
0
 40
0
 40
0
 40
0
 40
0
 40
1
 40
1
 40
1
 40
1
 10
83.802361
 20
181.103417
 30
0.0
 10
83.638367
 20
181.103417
 30
0.0
 10
83.362783
 20
181.236273
 30
0.0
 10
83.193819
 20
181.403278
 30
0.0
  0
SPLINE
  5
297
100
AcDbEntity
  8
0
 62
7
100
AcDbSpline
 70
8
 71
3
 72
8
 73
4
 74
0
 40
0
 40
0
 40
0
 40
0
 40
1
 40
1
 40
1
 40
1
 10
83.193819
 20
181.403278
 30
0.0
 10
83.024856
 20
181.570283
 30
0.0
 10
82.526265
 20
181.913196
 30
0.0
 10
82.082569
 20
182.161750
 30
0.0
  0
SPLINE
  5
298
100
AcDbEntity
  8
0
 62
7
100
AcDbSpline
 70
8
 71
3
 72
8
 73
4
 74
0
 40
0
 40
0
 40
0
 40
0
 40
1
 40
1
 40
1
 40
1
 10
82.082569
 20
182.161750
 30
0.0
 10
81.638874
 20
182.410304
 30
0.0
 10
81.064269
 20
182.793473
 30
0.0
 10
80.812569
 20
183.017236
 30
0.0
  0
SPLINE
  5
299
100
AcDbEntity
  8
0
 62
7
100
AcDbSpline
 70
8
 71
3
 72
8
 73
4
 74
0
 40
0
 40
0
 40
0
 40
0
 40
1
 40
1
 40
1
 40
1
 10
80.812569
 20
183.017236
 30
0.0
 10
80.560867
 20
183.240999
 30
0.0
 10
80.221782
 20
183.422931
 30
0.0
 10
80.054097
 20
183.422931
 30
0.0
  0
SPLINE
  5
29a
100
AcDbEntity
  8
0
 62
7
100
AcDbSpline
 70
8
 71
3
 72
8
 73
4
 74
0
 40
0
 40
0
 40
0
 40
0
 40
1
 40
1
 40
1
 40
1
 10
80.054097
 20
183.422931
 30
0.0
 10
79.886412
 20
183.422931
 30
0.0
 10
79.551880
 20
183.625284
 30
0.0
 10
79.313264
 20
183.863903
 30
0.0
  0
SPLINE
  5
29b
100
AcDbEntity
  8
0
 62
7
100
AcDbSpline
 70
8
 71
3
 72
8
 73
4
 74
0
 40
0
 40
0
 40
0
 40
0
 40
1
 40
1
 40
1
 40
1
 10
79.313264
 20
183.863903
 30
0.0
 10
79.074645
 20
184.102522
 30
0.0
 10
78.393101
 20
184.482656
 30
0.0
 10
77.796319
 20
184.710570
 30
0.0
  0
SPLINE
  5
29c
100
AcDbEntity
  8
0
 62
7
100
AcDbSpline
 70
8
 71
3
 72
8
 73
4
 74
0
 40
0
 40
0
 40
0
 40
0
 40
1
 40
1
 40
1
 40
1
 10
77.796319
 20
184.710570
 30
0.0
 10
77.199535
 20
184.938483
 30
0.0
 10
76.635576
 20
185.248558
 30
0.0
 10
76.543958
 20
185.398486
 30
0.0
  0
SPLINE
  5
29d
100
AcDbEntity
  8
0
 62
7
100
AcDbSpline
 70
8
 71
3
 72
8
 73
4
 74
0
 40
0
 40
0
 40
0
 40
0
 40
1
 40
1
 40
1
 40
1
 10
76.543958
 20
185.398486
 30
0.0
 10
76.452346
 20
185.548414
 30
0.0
 10
75.910708
 20
185.851320
 30
0.0
 10
75.335694
 20
186.077583
 30
0.0
  0
SPLINE
  5
29e
100
AcDbEntity
  8
0
 62
7
100
AcDbSpline
 70
8
 71
3
 72
8
 73
4
 74
0
 40
0
 40
0
 40
0
 40
0
 40
1
 40
1
 40
1
 40
1
 10
75.335694
 20
186.077583
 30
0.0
 10
74.760678
 20
186.303847
 30
0.0
 10
74.235832
 20
186.567645
 30
0.0
 10
74.171528
 20
186.659667
 30
0.0
  0
SPLINE
  5
29f
100
AcDbEntity
  8
0
 62
7
100
AcDbSpline
 70
8
 71
3
 72
8
 73
4
 74
0
 40
0
 40
0
 40
0
 40
0
 40
1
 40
1
 40
1
 40
1
 10
74.171528
 20
186.659667
 30
0.0
 10
74.041350
 20
186.845951
 30
0.0
 10
70.949024
 20
187.841472
 30
0.0
 10
70.502639
 20
187.841472
 30
0.0
  0
SPLINE
  5
2a0
100
AcDbEntity
  8
0
 62
7
100
AcDbSpline
 70
8
 71
3
 72
8
 73
4
 74
0
 40
0
 40
0
 40
0
 40
0
 40
1
 40
1
 40
1
 40
1
 10
70.502639
 20
187.841472
 30
0.0
 10
70.346415
 20
187.841472
 30
0.0
 10
70.220417
 20
187.936204
 30
0.0
 10
70.220417
 20
188.044320
 30
0.0
  0
SPLINE
  5
2a1
100
AcDbEntity
  8
0
 62
7
100
AcDbSpline
 70
8
 71
3
 72
8
 73
4
 74
0
 40
0
 40
0
 40
0
 40
0
 40
1
 40
1
 40
1
 40
1
 10
70.220417
 20
188.044320
 30
0.0
 10
70.220417
 20
188.152435
 30
0.0
 10
69.221449
 20
188.470062
 30
0.0
 10
68.006736
 20
188.758695
 30
0.0
  0
SPLINE
  5
2a2
100
AcDbEntity
  8
0
 62
7
100
AcDbSpline
 70
8
 71
3
 72
8
 73
4
 74
0
 40
0
 40
0
 40
0
 40
0
 40
1
 40
1
 40
1
 40
1
 10
68.006736
 20
188.758695
 30
0.0
 10
66.792026
 20
189.047326
 30
0.0
 10
65.801875
 20
189.367220
 30
0.0
 10
65.801875
 20
189.464250
 30
0.0
  0
SPLINE
  5
2a3
100
AcDbEntity
  8
0
 62
7
100
AcDbSpline
 70
8
 71
3
 72
8
 73
4
 74
0
 40
0
 40
0
 40
0
 40
0
 40
1
 40
1
 40
1
 40
1
 10
65.801875
 20
189.464250
 30
0.0
 10
65.801875
 20
189.561281
 30
0.0
 10
64.913169
 20
189.834501
 30
0.0
 10
63.826319
 20
190.072792
 30
0.0
  0
SPLINE
  5
2a4
100
AcDbEntity
  8
0
 62
7
100
AcDbSpline
 70
8
 71
3
 72
8
 73
4
 74
0
 40
0
 40
0
 40
0
 40
0
 40
1
 40
1
 40
1
 40
1
 10
63.826319
 20
190.072792
 30
0.0
 10
62.739473
 20
190.311082
 30
0.0
 10
61.850764
 20
190.591103
 30
0.0
 10
61.850764
 20
190.690153
 30
0.0
  0
SPLINE
  5
2a5
100
AcDbEntity
  8
0
 62
7
100
AcDbSpline
 70
8
 71
3
 72
8
 73
4
 74
0
 40
0
 40
0
 40
0
 40
0
 40
1
 40
1
 40
1
 40
1
 10
61.850764
 20
190.690153
 30
0.0
 10
61.850764
 20
190.789202
 30
0.0
 10
61.624075
 20
190.866542
 30
0.0
 10
61.356875
 20
190.866542
 30
0.0
  0
LWPOLYLINE
  5
2a6
100
AcDbEntity
  8
0
 62
7
100
AcDbPolyline
 90
3
 70
0
 10
120.623542
 20
183.546403
 30
0.0
 10
120.544167
 20
184.701750
 30
0.0
 10
118.224653
 20
184.781125
 30
0.0
  0
SPLINE
  5
2a7
100
AcDbEntity
  8
0
 62
7
100
AcDbSpline
 70
8
 71
3
 72
8
 73
4
 74
0
 40
0
 40
0
 40
0
 40
0
 40
1
 40
1
 40
1
 40
1
 10
20.752153
 20
167.662583
 30
0.0
 10
20.623983
 20
167.652560
 30
0.0
 10
20.491195
 20
167.574645
 30
0.0
 10
20.302361
 20
167.450917
 30
0.0
  0
SPLINE
  5
2a8
100
AcDbEntity
  8
0
 62
7
100
AcDbSpline
 70
8
 71
3
 72
8
 73
4
 74
0
 40
0
 40
0
 40
0
 40
0
 40
1
 40
1
 40
1
 40
1
 10
20.302361
 20
167.450917
 30
0.0
 10
20.006582
 20
167.257115
 30
0.0
 10
19.757393
 20
166.927960
 30
0.0
 10
19.746736
 20
166.718903
 30
0.0
  0
SPLINE
  5
2a9
100
AcDbEntity
  8
0
 62
7
100
AcDbSpline
 70
8
 71
3
 72
8
 73
4
 74
0
 40
0
 40
0
 40
0
 40
0
 40
1
 40
1
 40
1
 40
1
 10
19.746736
 20
166.718903
 30
0.0
 10
19.736081
 20
166.509846
 30
0.0
 10
19.687738
 20
166.127965
 30
0.0
 10
19.632083
 20
165.872236
 30
0.0
  0
SPLINE
  5
2aa
100
AcDbEntity
  8
0
 62
7
100
AcDbSpline
 70
8
 71
3
 72
8
 73
4
 74
0
 40
0
 40
0
 40
0
 40
0
 40
1
 40
1
 40
1
 40
1
 10
19.632083
 20
165.872236
 30
0.0
 10
19.316018
 20
164.419939
 30
0.0
 10
19.290889
 20
163.008753
 30
0.0
 10
19.561528
 20
161.788833
 30
0.0
  0
SPLINE
  5
2ab
100
AcDbEntity
  8
0
 62
7
100
AcDbSpline
 70
8
 71
3
 72
8
 73
4
 74
0
 40
0
 40
0
 40
0
 40
0
 40
1
 40
1
 40
1
 40
1
 10
19.561528
 20
161.788833
 30
0.0
 10
19.839250
 20
160.536983
 30
0.0
 10
19.916295
 20
160.413000
 30
0.0
 10
20.469931
 20
160.413000
 30
0.0
  0
SPLINE
  5
2ac
100
AcDbEntity
  8
0
 62
7
100
AcDbSpline
 70
8
 71
3
 72
8
 73
4
 74
0
 40
0
 40
0
 40
0
 40
0
 40
1
 40
1
 40
1
 40
1
 10
20.469931
 20
160.413000
 30
0.0
 10
20.989021
 20
160.413000
 30
0.0
 10
21.177516
 20
160.629033
 30
0.0
 10
21.757569
 20
161.868208
 30
0.0
  0
SPLINE
  5
2ad
100
AcDbEntity
  8
0
 62
7
100
AcDbSpline
 70
8
 71
3
 72
8
 73
4
 74
0
 40
0
 40
0
 40
0
 40
0
 40
1
 40
1
 40
1
 40
1
 10
21.757569
 20
161.868208
 30
0.0
 10
22.295595
 20
163.017598
 30
0.0
 10
22.445486
 20
163.643863
 30
0.0
 10
22.445486
 20
164.866820
 30
0.0
  0
SPLINE
  5
2ae
100
AcDbEntity
  8
0
 62
7
100
AcDbSpline
 70
8
 71
3
 72
8
 73
4
 74
0
 40
0
 40
0
 40
0
 40
0
 40
1
 40
1
 40
1
 40
1
 10
22.445486
 20
164.866820
 30
0.0
 10
22.445486
 20
166.337960
 30
0.0
 10
22.403209
 20
166.443150
 30
0.0
 10
21.642917
 20
167.106958
 30
0.0
  0
SPLINE
  5
2af
100
AcDbEntity
  8
0
 62
7
100
AcDbSpline
 70
8
 71
3
 72
8
 73
4
 74
0
 40
0
 40
0
 40
0
 40
0
 40
1
 40
1
 40
1
 40
1
 10
21.642917
 20
167.106958
 30
0.0
 10
21.175331
 20
167.515206
 30
0.0
 10
20.965768
 20
167.679290
 30
0.0
 10
20.752153
 20
167.662583
 30
0.0
  0
LWPOLYLINE
  5
2b0
100
AcDbEntity
  8
0
 62
7
100
AcDbPolyline
 90
2
 70
0
 10
61.356875
 20
190.866542
 30
0.0
 10
61.356875
 20
190.866542
 30
0.0
  0
SPLINE
  5
2b1
100
AcDbEntity
  8
0
 62
7
100
AcDbSpline
 70
8
 71
3
 72
8
 73
4
 74
0
 40
0
 40
0
 40
0
 40
0
 40
1
 40
1
 40
1
 40
1
 10
64.496597
 20
157.511403
 30
0.0
 10
64.515320
 20
157.527834
 30
0.0
 10
64.534150
 20
157.509602
 30
0.0
 10
64.558333
 20
157.449667
 30
0.0
  0
SPLINE
  5
2b2
100
AcDbEntity
  8
0
 62
7
100
AcDbSpline
 70
8
 71
3
 72
8
 73
4
 74
0
 40
0
 40
0
 40
0
 40
0
 40
1
 40
1
 40
1
 40
1
 10
64.558333
 20
157.449667
 30
0.0
 10
64.622827
 20
157.289836
 30
0.0
 10
64.622827
 20
157.027414
 30
0.0
 10
64.558333
 20
156.867583
 30
0.0
  0
SPLINE
  5
2b3
100
AcDbEntity
  8
0
 62
7
100
AcDbSpline
 70
8
 71
3
 72
8
 73
4
 74
0
 40
0
 40
0
 40
0
 40
0
 40
1
 40
1
 40
1
 40
1
 10
64.558333
 20
156.867583
 30
0.0
 10
64.493843
 20
156.707753
 30
0.0
 10
64.443681
 20
156.838963
 30
0.0
 10
64.443681
 20
157.158625
 30
0.0
  0
SPLINE
  5
2b4
100
AcDbEntity
  8
0
 62
7
100
AcDbSpline
 70
8
 71
3
 72
8
 73
4
 74
0
 40
0
 40
0
 40
0
 40
0
 40
1
 40
1
 40
1
 40
1
 10
64.443681
 20
157.158625
 30
0.0
 10
64.443681
 20
157.358413
 30
0.0
 10
64.465392
 20
157.484016
 30
0.0
 10
64.496597
 20
157.511403
 30
0.0
  0
LWPOLYLINE
  5
2b5
100
AcDbEntity
  8
0
 62
7
100
AcDbPolyline
 90
2
 70
0
 10
20.752153
 20
167.662583
 30
0.0
 10
20.752153
 20
167.662583
 30
0.0
  0
SPLINE
  5
2b6
100
AcDbEntity
  8
0
 62
7
100
AcDbSpline
 70
8
 71
3
 72
8
 73
4
 74
0
 40
0
 40
0
 40
0
 40
0
 40
1
 40
1
 40
1
 40
1
 10
64.011528
 20
156.153208
 30
0.0
 10
64.022077
 20
156.155548
 30
0.0
 10
64.036832
 20
156.156533
 30
0.0
 10
64.046806
 20
156.153208
 30
0.0
  0
SPLINE
  5
2b7
100
AcDbEntity
  8
0
 62
7
100
AcDbSpline
 70
8
 71
3
 72
8
 73
4
 74
0
 40
0
 40
0
 40
0
 40
0
 40
1
 40
1
 40
1
 40
1
 10
64.046806
 20
156.153208
 30
0.0
 10
64.329733
 20
156.058898
 30
0.0
 10
64.328175
 20
156.022094
 30
0.0
 10
64.082083
 20
154.424597
 30
0.0
  0
SPLINE
  5
2b8
100
AcDbEntity
  8
0
 62
7
100
AcDbSpline
 70
8
 71
3
 72
8
 73
4
 74
0
 40
0
 40
0
 40
0
 40
0
 40
1
 40
1
 40
1
 40
1
 10
64.082083
 20
154.424597
 30
0.0
 10
63.978671
 20
153.753309
 30
0.0
 10
63.809821
 20
153.207514
 30
0.0
 10
63.702847
 20
153.207514
 30
0.0
  0
SPLINE
  5
2b9
100
AcDbEntity
  8
0
 62
7
100
AcDbSpline
 70
8
 71
3
 72
8
 73
4
 74
0
 40
0
 40
0
 40
0
 40
0
 40
1
 40
1
 40
1
 40
1
 10
63.702847
 20
153.207514
 30
0.0
 10
63.595877
 20
153.207514
 30
0.0
 10
63.458398
 20
152.966042
 30
0.0
 10
63.402986
 20
152.678347
 30
0.0
  0
SPLINE
  5
2ba
100
AcDbEntity
  8
0
 62
7
100
AcDbSpline
 70
8
 71
3
 72
8
 73
4
 74
0
 40
0
 40
0
 40
0
 40
0
 40
1
 40
1
 40
1
 40
1
 10
63.402986
 20
152.678347
 30
0.0
 10
63.347572
 20
152.390653
 30
0.0
 10
63.276799
 20
152.318982
 30
0.0
 10
63.244236
 20
152.510778
 30
0.0
  0
SPLINE
  5
2bb
100
AcDbEntity
  8
0
 62
7
100
AcDbSpline
 70
8
 71
3
 72
8
 73
4
 74
0
 40
0
 40
0
 40
0
 40
0
 40
1
 40
1
 40
1
 40
1
 10
63.244236
 20
152.510778
 30
0.0
 10
63.099510
 20
153.363227
 30
0.0
 10
63.684517
 20
156.080658
 30
0.0
 10
64.011528
 20
156.153208
 30
0.0
  0
LWPOLYLINE
  5
2bc
100
AcDbEntity
  8
0
 62
7
100
AcDbPolyline
 90
2
 70
0
 10
64.496597
 20
157.511403
 30
0.0
 10
64.496597
 20
157.511403
 30
0.0
  0
SPLINE
  5
2bd
100
AcDbEntity
  8
0
 62
7
100
AcDbSpline
 70
8
 71
3
 72
8
 73
4
 74
0
 40
0
 40
0
 40
0
 40
0
 40
1
 40
1
 40
1
 40
1
 10
33.778472
 20
142.430153
 30
0.0
 10
33.225672
 20
142.406822
 30
0.0
 10
32.552569
 20
142.168047
 30
0.0
 10
32.552569
 20
141.918625
 30
0.0
  0
SPLINE
  5
2be
100
AcDbEntity
  8
0
 62
7
100
AcDbSpline
 70
8
 71
3
 72
8
 73
4
 74
0
 40
0
 40
0
 40
0
 40
0
 40
1
 40
1
 40
1
 40
1
 10
32.552569
 20
141.918625
 30
0.0
 10
32.552569
 20
141.751945
 30
0.0
 10
32.410417
 20
141.467792
 30
0.0
 10
32.235069
 20
141.292445
 30
0.0
  0
SPLINE
  5
2bf
100
AcDbEntity
  8
0
 62
7
100
AcDbSpline
 70
8
 71
3
 72
8
 73
4
 74
0
 40
0
 40
0
 40
0
 40
0
 40
1
 40
1
 40
1
 40
1
 10
32.235069
 20
141.292445
 30
0.0
 10
32.028852
 20
141.086228
 30
0.0
 10
31.837170
 20
139.954361
 30
0.0
 10
31.688264
 20
138.082167
 30
0.0
  0
SPLINE
  5
2c0
100
AcDbEntity
  8
0
 62
7
100
AcDbSpline
 70
8
 71
3
 72
8
 73
4
 74
0
 40
0
 40
0
 40
0
 40
0
 40
1
 40
1
 40
1
 40
1
 10
31.688264
 20
138.082167
 30
0.0
 10
31.477407
 20
135.431056
 30
0.0
 10
31.490914
 20
135.102239
 30
0.0
 10
31.899931
 20
134.210431
 30
0.0
  0
SPLINE
  5
2c1
100
AcDbEntity
  8
0
 62
7
100
AcDbSpline
 70
8
 71
3
 72
8
 73
4
 74
0
 40
0
 40
0
 40
0
 40
0
 40
1
 40
1
 40
1
 40
1
 10
31.899931
 20
134.210431
 30
0.0
 10
32.145534
 20
133.674925
 30
0.0
 10
32.530407
 20
133.191476
 30
0.0
 10
32.746597
 20
133.134458
 30
0.0
  0
SPLINE
  5
2c2
100
AcDbEntity
  8
0
 62
7
100
AcDbSpline
 70
8
 71
3
 72
8
 73
4
 74
0
 40
0
 40
0
 40
0
 40
0
 40
1
 40
1
 40
1
 40
1
 10
32.746597
 20
133.134458
 30
0.0
 10
34.099534
 20
132.777642
 30
0.0
 10
34.619291
 20
133.062929
 30
0.0
 10
34.810347
 20
134.272167
 30
0.0
  0
SPLINE
  5
2c3
100
AcDbEntity
  8
0
 62
7
100
AcDbSpline
 70
8
 71
3
 72
8
 73
4
 74
0
 40
0
 40
0
 40
0
 40
0
 40
1
 40
1
 40
1
 40
1
 10
34.810347
 20
134.272167
 30
0.0
 10
34.889522
 20
134.773278
 30
0.0
 10
35.057548
 20
135.261864
 30
0.0
 10
35.189583
 20
135.348139
 30
0.0
  0
SPLINE
  5
2c4
100
AcDbEntity
  8
0
 62
7
100
AcDbSpline
 70
8
 71
3
 72
8
 73
4
 74
0
 40
0
 40
0
 40
0
 40
0
 40
1
 40
1
 40
1
 40
1
 10
35.189583
 20
135.348139
 30
0.0
 10
35.505212
 20
135.554381
 30
0.0
 10
35.476519
 20
138.470033
 30
0.0
 10
35.154306
 20
138.858278
 30
0.0
  0
SPLINE
  5
2c5
100
AcDbEntity
  8
0
 62
7
100
AcDbSpline
 70
8
 71
3
 72
8
 73
4
 74
0
 40
0
 40
0
 40
0
 40
0
 40
1
 40
1
 40
1
 40
1
 10
35.154306
 20
138.858278
 30
0.0
 10
35.016671
 20
139.024117
 30
0.0
 10
34.826914
 20
139.851195
 30
0.0
 10
34.739792
 20
140.701542
 30
0.0
  0
SPLINE
  5
2c6
100
AcDbEntity
  8
0
 62
7
100
AcDbSpline
 70
8
 71
3
 72
8
 73
4
 74
0
 40
0
 40
0
 40
0
 40
0
 40
1
 40
1
 40
1
 40
1
 10
34.739792
 20
140.701542
 30
0.0
 10
34.639366
 20
141.681762
 30
0.0
 10
34.466739
 20
142.299261
 30
0.0
 10
34.263542
 20
142.377236
 30
0.0
  0
SPLINE
  5
2c7
100
AcDbEntity
  8
0
 62
7
100
AcDbSpline
 70
8
 71
3
 72
8
 73
4
 74
0
 40
0
 40
0
 40
0
 40
0
 40
1
 40
1
 40
1
 40
1
 10
34.263542
 20
142.377236
 30
0.0
 10
34.135935
 20
142.426205
 30
0.0
 10
33.962738
 20
142.437931
 30
0.0
 10
33.778472
 20
142.430153
 30
0.0
  0
LWPOLYLINE
  5
2c8
100
AcDbEntity
  8
0
 62
7
100
AcDbPolyline
 90
2
 70
0
 10
64.011528
 20
156.153208
 30
0.0
 10
64.011528
 20
156.153208
 30
0.0
  0
SPLINE
  5
2c9
100
AcDbEntity
  8
0
 62
7
100
AcDbSpline
 70
8
 71
3
 72
8
 73
4
 74
0
 40
0
 40
0
 40
0
 40
0
 40
1
 40
1
 40
1
 40
1
 10
153.043819
 20
136.141889
 30
0.0
 10
152.940676
 20
136.135121
 30
0.0
 10
152.828416
 20
135.917014
 30
0.0
 10
152.620486
 20
135.418695
 30
0.0
  0
SPLINE
  5
2ca
100
AcDbEntity
  8
0
 62
7
100
AcDbSpline
 70
8
 71
3
 72
8
 73
4
 74
0
 40
0
 40
0
 40
0
 40
0
 40
1
 40
1
 40
1
 40
1
 10
152.620486
 20
135.418695
 30
0.0
 10
152.407075
 20
134.907237
 30
0.0
 10
152.084145
 20
134.409696
 30
0.0
 10
151.906111
 20
134.307445
 30
0.0
  0
SPLINE
  5
2cb
100
AcDbEntity
  8
0
 62
7
100
AcDbSpline
 70
8
 71
3
 72
8
 73
4
 74
0
 40
0
 40
0
 40
0
 40
0
 40
1
 40
1
 40
1
 40
1
 10
151.906111
 20
134.307445
 30
0.0
 10
151.728077
 20
134.205193
 30
0.0
 10
151.581485
 20
133.993492
 30
0.0
 10
151.579792
 20
133.840014
 30
0.0
  0
SPLINE
  5
2cc
100
AcDbEntity
  8
0
 62
7
100
AcDbSpline
 70
8
 71
3
 72
8
 73
4
 74
0
 40
0
 40
0
 40
0
 40
0
 40
1
 40
1
 40
1
 40
1
 10
151.579792
 20
133.840014
 30
0.0
 10
151.577988
 20
133.686536
 30
0.0
 10
151.163404
 20
133.099855
 30
0.0
 10
150.653750
 20
132.534736
 30
0.0
  0
SPLINE
  5
2cd
100
AcDbEntity
  8
0
 62
7
100
AcDbSpline
 70
8
 71
3
 72
8
 73
4
 74
0
 40
0
 40
0
 40
0
 40
0
 40
1
 40
1
 40
1
 40
1
 10
150.653750
 20
132.534736
 30
0.0
 10
149.688798
 20
131.464761
 30
0.0
 10
149.521982
 20
130.816294
 30
0.0
 10
150.045208
 20
130.127028
 30
0.0
  0
SPLINE
  5
2ce
100
AcDbEntity
  8
0
 62
7
100
AcDbSpline
 70
8
 71
3
 72
8
 73
4
 74
0
 40
0
 40
0
 40
0
 40
0
 40
1
 40
1
 40
1
 40
1
 10
150.045208
 20
130.127028
 30
0.0
 10
150.491097
 20
129.539644
 30
0.0
 10
150.736424
 20
129.617097
 30
0.0
 10
151.817917
 20
130.656195
 30
0.0
  0
SPLINE
  5
2cf
100
AcDbEntity
  8
0
 62
7
100
AcDbSpline
 70
8
 71
3
 72
8
 73
4
 74
0
 40
0
 40
0
 40
0
 40
0
 40
1
 40
1
 40
1
 40
1
 10
151.817917
 20
130.656195
 30
0.0
 10
152.350241
 20
131.167652
 30
0.0
 10
152.873786
 20
131.582236
 30
0.0
 10
152.982083
 20
131.582236
 30
0.0
  0
SPLINE
  5
2d0
100
AcDbEntity
  8
0
 62
7
100
AcDbSpline
 70
8
 71
3
 72
8
 73
4
 74
0
 40
0
 40
0
 40
0
 40
0
 40
1
 40
1
 40
1
 40
1
 10
152.982083
 20
131.582236
 30
0.0
 10
153.090380
 20
131.582236
 30
0.0
 10
153.338084
 20
131.744209
 30
0.0
 10
153.537708
 20
131.943833
 30
0.0
  0
SPLINE
  5
2d1
100
AcDbEntity
  8
0
 62
7
100
AcDbSpline
 70
8
 71
3
 72
8
 73
4
 74
0
 40
0
 40
0
 40
0
 40
0
 40
1
 40
1
 40
1
 40
1
 10
153.537708
 20
131.943833
 30
0.0
 10
153.992755
 20
132.398880
 30
0.0
 10
155.539722
 20
132.686067
 30
0.0
 10
155.539722
 20
132.314250
 30
0.0
  0
SPLINE
  5
2d2
100
AcDbEntity
  8
0
 62
7
100
AcDbSpline
 70
8
 71
3
 72
8
 73
4
 74
0
 40
0
 40
0
 40
0
 40
0
 40
1
 40
1
 40
1
 40
1
 10
155.539722
 20
132.314250
 30
0.0
 10
155.539722
 20
132.169656
 30
0.0
 10
155.410939
 20
132.049667
 30
0.0
 10
155.257500
 20
132.049667
 30
0.0
  0
SPLINE
  5
2d3
100
AcDbEntity
  8
0
 62
7
100
AcDbSpline
 70
8
 71
3
 72
8
 73
4
 74
0
 40
0
 40
0
 40
0
 40
0
 40
1
 40
1
 40
1
 40
1
 10
155.257500
 20
132.049667
 30
0.0
 10
155.040519
 20
132.049667
 30
0.0
 10
155.040519
 20
131.984425
 30
0.0
 10
155.257500
 20
131.767445
 30
0.0
  0
SPLINE
  5
2d4
100
AcDbEntity
  8
0
 62
7
100
AcDbSpline
 70
8
 71
3
 72
8
 73
4
 74
0
 40
0
 40
0
 40
0
 40
0
 40
1
 40
1
 40
1
 40
1
 10
155.257500
 20
131.767445
 30
0.0
 10
155.624395
 20
131.400550
 30
0.0
 10
155.632017
 20
127.502164
 30
0.0
 10
155.266319
 20
126.449320
 30
0.0
  0
SPLINE
  5
2d5
100
AcDbEntity
  8
0
 62
7
100
AcDbSpline
 70
8
 71
3
 72
8
 73
4
 74
0
 40
0
 40
0
 40
0
 40
0
 40
1
 40
1
 40
1
 40
1
 10
155.266319
 20
126.449320
 30
0.0
 10
154.959671
 20
125.566489
 30
0.0
 10
153.887782
 20
124.376750
 30
0.0
 10
153.396597
 20
124.376750
 30
0.0
  0
SPLINE
  5
2d6
100
AcDbEntity
  8
0
 62
7
100
AcDbSpline
 70
8
 71
3
 72
8
 73
4
 74
0
 40
0
 40
0
 40
0
 40
0
 40
1
 40
1
 40
1
 40
1
 10
153.396597
 20
124.376750
 30
0.0
 10
152.954962
 20
124.376750
 30
0.0
 10
152.514653
 20
123.898183
 30
0.0
 10
152.514653
 20
123.415431
 30
0.0
  0
SPLINE
  5
2d7
100
AcDbEntity
  8
0
 62
7
100
AcDbSpline
 70
8
 71
3
 72
8
 73
4
 74
0
 40
0
 40
0
 40
0
 40
0
 40
1
 40
1
 40
1
 40
1
 10
152.514653
 20
123.415431
 30
0.0
 10
152.514653
 20
123.194408
 30
0.0
 10
152.378105
 20
122.878839
 30
0.0
 10
152.214792
 20
122.709875
 30
0.0
  0
SPLINE
  5
2d8
100
AcDbEntity
  8
0
 62
7
100
AcDbSpline
 70
8
 71
3
 72
8
 73
4
 74
0
 40
0
 40
0
 40
0
 40
0
 40
1
 40
1
 40
1
 40
1
 10
152.214792
 20
122.709875
 30
0.0
 10
152.051478
 20
122.540911
 30
0.0
 10
151.720717
 20
121.795859
 30
0.0
 10
151.473958
 20
121.060639
 30
0.0
  0
SPLINE
  5
2d9
100
AcDbEntity
  8
0
 62
7
100
AcDbSpline
 70
8
 71
3
 72
8
 73
4
 74
0
 40
0
 40
0
 40
0
 40
0
 40
1
 40
1
 40
1
 40
1
 10
151.473958
 20
121.060639
 30
0.0
 10
151.227200
 20
120.325419
 30
0.0
 10
150.889623
 20
119.728903
 30
0.0
 10
150.724306
 20
119.728903
 30
0.0
  0
SPLINE
  5
2da
100
AcDbEntity
  8
0
 62
7
100
AcDbSpline
 70
8
 71
3
 72
8
 73
4
 74
0
 40
0
 40
0
 40
0
 40
0
 40
1
 40
1
 40
1
 40
1
 10
150.724306
 20
119.728903
 30
0.0
 10
150.558988
 20
119.728903
 30
0.0
 10
150.424444
 20
119.573458
 30
0.0
 10
150.424444
 20
119.384945
 30
0.0
  0
SPLINE
  5
2db
100
AcDbEntity
  8
0
 62
7
100
AcDbSpline
 70
8
 71
3
 72
8
 73
4
 74
0
 40
0
 40
0
 40
0
 40
0
 40
1
 40
1
 40
1
 40
1
 10
150.424444
 20
119.384945
 30
0.0
 10
150.424444
 20
119.196431
 30
0.0
 10
150.095986
 20
118.870436
 30
0.0
 10
149.692431
 20
118.661750
 30
0.0
  0
SPLINE
  5
2dc
100
AcDbEntity
  8
0
 62
7
100
AcDbSpline
 70
8
 71
3
 72
8
 73
4
 74
0
 40
0
 40
0
 40
0
 40
0
 40
1
 40
1
 40
1
 40
1
 10
149.692431
 20
118.661750
 30
0.0
 10
149.288875
 20
118.453064
 30
0.0
 10
148.835700
 20
118.193970
 30
0.0
 10
148.695833
 20
118.079667
 30
0.0
  0
SPLINE
  5
2dd
100
AcDbEntity
  8
0
 62
7
100
AcDbSpline
 70
8
 71
3
 72
8
 73
4
 74
0
 40
0
 40
0
 40
0
 40
0
 40
1
 40
1
 40
1
 40
1
 10
148.695833
 20
118.079667
 30
0.0
 10
148.555964
 20
117.965364
 30
0.0
 10
148.188468
 20
117.674712
 30
0.0
 10
147.875625
 20
117.435847
 30
0.0
  0
SPLINE
  5
2de
100
AcDbEntity
  8
0
 62
7
100
AcDbSpline
 70
8
 71
3
 72
8
 73
4
 74
0
 40
0
 40
0
 40
0
 40
0
 40
1
 40
1
 40
1
 40
1
 10
147.875625
 20
117.435847
 30
0.0
 10
147.263002
 20
116.968089
 30
0.0
 10
147.257104
 20
116.886109
 30
0.0
 10
147.399375
 20
113.378903
 30
0.0
  0
SPLINE
  5
2df
100
AcDbEntity
  8
0
 62
7
100
AcDbSpline
 70
8
 71
3
 72
8
 73
4
 74
0
 40
0
 40
0
 40
0
 40
0
 40
1
 40
1
 40
1
 40
1
 10
147.399375
 20
113.378903
 30
0.0
 10
147.491171
 20
111.116006
 30
0.0
 10
147.205923
 20
110.693065
 30
0.0
 10
145.908889
 20
111.121125
 30
0.0
  0
SPLINE
  5
2e0
100
AcDbEntity
  8
0
 62
7
100
AcDbSpline
 70
8
 71
3
 72
8
 73
4
 74
0
 40
0
 40
0
 40
0
 40
0
 40
1
 40
1
 40
1
 40
1
 10
145.908889
 20
111.121125
 30
0.0
 10
145.448218
 20
111.273161
 30
0.0
 10
145.071042
 20
111.538966
 30
0.0
 10
145.071042
 20
111.720847
 30
0.0
  0
SPLINE
  5
2e1
100
AcDbEntity
  8
0
 62
7
100
AcDbSpline
 70
8
 71
3
 72
8
 73
4
 74
0
 40
0
 40
0
 40
0
 40
0
 40
1
 40
1
 40
1
 40
1
 10
145.071042
 20
111.720847
 30
0.0
 10
145.071042
 20
111.902728
 30
0.0
 10
144.921345
 20
112.055986
 30
0.0
 10
144.735903
 20
112.055986
 30
0.0
  0
SPLINE
  5
2e2
100
AcDbEntity
  8
0
 62
7
100
AcDbSpline
 70
8
 71
3
 72
8
 73
4
 74
0
 40
0
 40
0
 40
0
 40
0
 40
1
 40
1
 40
1
 40
1
 10
144.735903
 20
112.055986
 30
0.0
 10
144.550460
 20
112.055986
 30
0.0
 10
144.319645
 20
112.205129
 30
0.0
 10
144.215556
 20
112.391125
 30
0.0
  0
SPLINE
  5
2e3
100
AcDbEntity
  8
0
 62
7
100
AcDbSpline
 70
8
 71
3
 72
8
 73
4
 74
0
 40
0
 40
0
 40
0
 40
0
 40
1
 40
1
 40
1
 40
1
 10
144.215556
 20
112.391125
 30
0.0
 10
144.096286
 20
112.604251
 30
0.0
 10
143.910369
 20
112.663131
 30
0.0
 10
143.712847
 20
112.541056
 30
0.0
  0
SPLINE
  5
2e4
100
AcDbEntity
  8
0
 62
7
100
AcDbSpline
 70
8
 71
3
 72
8
 73
4
 74
0
 40
0
 40
0
 40
0
 40
0
 40
1
 40
1
 40
1
 40
1
 10
143.712847
 20
112.541056
 30
0.0
 10
143.452328
 20
112.380051
 30
0.0
 10
143.449283
 20
112.065091
 30
0.0
 10
143.695208
 20
110.688972
 30
0.0
  0
SPLINE
  5
2e5
100
AcDbEntity
  8
0
 62
7
100
AcDbSpline
 70
8
 71
3
 72
8
 73
4
 74
0
 40
0
 40
0
 40
0
 40
0
 40
1
 40
1
 40
1
 40
1
 10
143.695208
 20
110.688972
 30
0.0
 10
143.857938
 20
109.778394
 30
0.0
 10
144.072889
 20
109.030917
 30
0.0
 10
144.180278
 20
109.030917
 30
0.0
  0
SPLINE
  5
2e6
100
AcDbEntity
  8
0
 62
7
100
AcDbSpline
 70
8
 71
3
 72
8
 73
4
 74
0
 40
0
 40
0
 40
0
 40
0
 40
1
 40
1
 40
1
 40
1
 10
144.180278
 20
109.030917
 30
0.0
 10
144.287663
 20
109.030917
 30
0.0
 10
144.374306
 20
108.720300
 30
0.0
 10
144.374306
 20
108.343000
 30
0.0
  0
SPLINE
  5
2e7
100
AcDbEntity
  8
0
 62
7
100
AcDbSpline
 70
8
 71
3
 72
8
 73
4
 74
0
 40
0
 40
0
 40
0
 40
0
 40
1
 40
1
 40
1
 40
1
 10
144.374306
 20
108.343000
 30
0.0
 10
144.374306
 20
106.749576
 30
0.0
 10
145.257599
 20
103.270473
 30
0.0
 10
145.794236
 20
102.733833
 30
0.0
  0
SPLINE
  5
2e8
100
AcDbEntity
  8
0
 62
7
100
AcDbSpline
 70
8
 71
3
 72
8
 73
4
 74
0
 40
0
 40
0
 40
0
 40
0
 40
1
 40
1
 40
1
 40
1
 10
145.794236
 20
102.733833
 30
0.0
 10
146.013867
 20
102.514202
 30
0.0
 10
146.262750
 20
102.010377
 30
0.0
 10
146.349861
 20
101.613764
 30
0.0
  0
SPLINE
  5
2e9
100
AcDbEntity
  8
0
 62
7
100
AcDbSpline
 70
8
 71
3
 72
8
 73
4
 74
0
 40
0
 40
0
 40
0
 40
0
 40
1
 40
1
 40
1
 40
1
 10
146.349861
 20
101.613764
 30
0.0
 10
146.436972
 20
101.217154
 30
0.0
 10
146.602574
 20
100.899389
 30
0.0
 10
146.720278
 20
100.899389
 30
0.0
  0
SPLINE
  5
2ea
100
AcDbEntity
  8
0
 62
7
100
AcDbSpline
 70
8
 71
3
 72
8
 73
4
 74
0
 40
0
 40
0
 40
0
 40
0
 40
1
 40
1
 40
1
 40
1
 10
146.720278
 20
100.899389
 30
0.0
 10
146.837984
 20
100.899389
 30
0.0
 10
146.939353
 20
100.082350
 30
0.0
 10
146.940764
 20
99.091403
 30
0.0
  0
SPLINE
  5
2eb
100
AcDbEntity
  8
0
 62
7
100
AcDbSpline
 70
8
 71
3
 72
8
 73
4
 74
0
 40
0
 40
0
 40
0
 40
0
 40
1
 40
1
 40
1
 40
1
 10
146.940764
 20
99.091403
 30
0.0
 10
146.943705
 20
97.170745
 30
0.0
 10
147.430716
 20
94.890672
 30
0.0
 10
147.919722
 20
94.505292
 30
0.0
  0
SPLINE
  5
2ec
100
AcDbEntity
  8
0
 62
7
100
AcDbSpline
 70
8
 71
3
 72
8
 73
4
 74
0
 40
0
 40
0
 40
0
 40
0
 40
1
 40
1
 40
1
 40
1
 10
147.919722
 20
94.505292
 30
0.0
 10
148.082883
 20
94.376708
 30
0.0
 10
148.352465
 20
94.013565
 30
0.0
 10
148.519444
 20
93.693903
 30
0.0
  0
SPLINE
  5
2ed
100
AcDbEntity
  8
0
 62
7
100
AcDbSpline
 70
8
 71
3
 72
8
 73
4
 74
0
 40
0
 40
0
 40
0
 40
0
 40
1
 40
1
 40
1
 40
1
 10
148.519444
 20
93.693903
 30
0.0
 10
149.089556
 20
92.602485
 30
0.0
 10
149.624184
 20
92.124284
 30
0.0
 10
150.883056
 20
91.586056
 30
0.0
  0
SPLINE
  5
2ee
100
AcDbEntity
  8
0
 62
7
100
AcDbSpline
 70
8
 71
3
 72
8
 73
4
 74
0
 40
0
 40
0
 40
0
 40
0
 40
1
 40
1
 40
1
 40
1
 10
150.883056
 20
91.586056
 30
0.0
 10
151.200112
 20
91.450499
 30
0.0
 10
151.527352
 20
91.228647
 30
0.0
 10
151.606250
 20
91.100986
 30
0.0
  0
SPLINE
  5
2ef
100
AcDbEntity
  8
0
 62
7
100
AcDbSpline
 70
8
 71
3
 72
8
 73
4
 74
0
 40
0
 40
0
 40
0
 40
0
 40
1
 40
1
 40
1
 40
1
 10
151.606250
 20
91.100986
 30
0.0
 10
151.685148
 20
90.973326
 30
0.0
 10
152.258113
 20
90.782682
 30
0.0
 10
152.885069
 20
90.677653
 30
0.0
  0
SPLINE
  5
2f0
100
AcDbEntity
  8
0
 62
7
100
AcDbSpline
 70
8
 71
3
 72
8
 73
4
 74
0
 40
0
 40
0
 40
0
 40
0
 40
1
 40
1
 40
1
 40
1
 10
152.885069
 20
90.677653
 30
0.0
 10
153.512026
 20
90.572621
 30
0.0
 10
154.036339
 20
90.481029
 30
0.0
 10
154.049236
 20
90.465986
 30
0.0
  0
SPLINE
  5
2f1
100
AcDbEntity
  8
0
 62
7
100
AcDbSpline
 70
8
 71
3
 72
8
 73
4
 74
0
 40
0
 40
0
 40
0
 40
0
 40
1
 40
1
 40
1
 40
1
 10
154.049236
 20
90.465986
 30
0.0
 10
154.198292
 20
90.292022
 30
0.0
 10
155.555151
 20
91.044121
 30
0.0
 10
155.654375
 20
91.356750
 30
0.0
  0
SPLINE
  5
2f2
100
AcDbEntity
  8
0
 62
7
100
AcDbSpline
 70
8
 71
3
 72
8
 73
4
 74
0
 40
0
 40
0
 40
0
 40
0
 40
1
 40
1
 40
1
 40
1
 10
155.654375
 20
91.356750
 30
0.0
 10
155.788501
 20
91.779336
 30
0.0
 10
156.890678
 20
92.175830
 30
0.0
 10
157.744583
 20
92.106403
 30
0.0
  0
SPLINE
  5
2f3
100
AcDbEntity
  8
0
 62
7
100
AcDbSpline
 70
8
 71
3
 72
8
 73
4
 74
0
 40
0
 40
0
 40
0
 40
0
 40
1
 40
1
 40
1
 40
1
 10
157.744583
 20
92.106403
 30
0.0
 10
158.543729
 20
92.041430
 30
0.0
 10
160.762338
 20
91.306376
 30
0.0
 10
160.963681
 20
91.039250
 30
0.0
  0
SPLINE
  5
2f4
100
AcDbEntity
  8
0
 62
7
100
AcDbSpline
 70
8
 71
3
 72
8
 73
4
 74
0
 40
0
 40
0
 40
0
 40
0
 40
1
 40
1
 40
1
 40
1
 10
160.963681
 20
91.039250
 30
0.0
 10
161.099884
 20
90.858543
 30
0.0
 10
161.188739
 20
90.868441
 30
0.0
 10
161.272361
 20
91.074528
 30
0.0
  0
SPLINE
  5
2f5
100
AcDbEntity
  8
0
 62
7
100
AcDbSpline
 70
8
 71
3
 72
8
 73
4
 74
0
 40
0
 40
0
 40
0
 40
0
 40
1
 40
1
 40
1
 40
1
 10
161.272361
 20
91.074528
 30
0.0
 10
161.337216
 20
91.234359
 30
0.0
 10
161.561961
 20
91.370353
 30
0.0
 10
161.775069
 20
91.374389
 30
0.0
  0
SPLINE
  5
2f6
100
AcDbEntity
  8
0
 62
7
100
AcDbSpline
 70
8
 71
3
 72
8
 73
4
 74
0
 40
0
 40
0
 40
0
 40
0
 40
1
 40
1
 40
1
 40
1
 10
161.775069
 20
91.374389
 30
0.0
 10
162.302698
 20
91.384394
 30
0.0
 10
163.261892
 20
92.264320
 30
0.0
 10
163.803542
 20
93.235292
 30
0.0
  0
SPLINE
  5
2f7
100
AcDbEntity
  8
0
 62
7
100
AcDbSpline
 70
8
 71
3
 72
8
 73
4
 74
0
 40
0
 40
0
 40
0
 40
0
 40
1
 40
1
 40
1
 40
1
 10
163.803542
 20
93.235292
 30
0.0
 10
164.049366
 20
93.675962
 30
0.0
 10
164.313599
 20
94.088582
 30
0.0
 10
164.385625
 20
94.152514
 30
0.0
  0
SPLINE
  5
2f8
100
AcDbEntity
  8
0
 62
7
100
AcDbSpline
 70
8
 71
3
 72
8
 73
4
 74
0
 40
0
 40
0
 40
0
 40
0
 40
1
 40
1
 40
1
 40
1
 10
164.385625
 20
94.152514
 30
0.0
 10
164.457654
 20
94.216446
 30
0.0
 10
164.761251
 20
94.952992
 30
0.0
 10
165.064722
 20
95.784111
 30
0.0
  0
SPLINE
  5
2f9
100
AcDbEntity
  8
0
 62
7
100
AcDbSpline
 70
8
 71
3
 72
8
 73
4
 74
0
 40
0
 40
0
 40
0
 40
0
 40
1
 40
1
 40
1
 40
1
 10
165.064722
 20
95.784111
 30
0.0
 10
165.368193
 20
96.615230
 30
0.0
 10
165.680492
 20
97.342957
 30
0.0
 10
165.752639
 20
97.406889
 30
0.0
  0
SPLINE
  5
2fa
100
AcDbEntity
  8
0
 62
7
100
AcDbSpline
 70
8
 71
3
 72
8
 73
4
 74
0
 40
0
 40
0
 40
0
 40
0
 40
1
 40
1
 40
1
 40
1
 10
165.752639
 20
97.406889
 30
0.0
 10
165.824783
 20
97.470821
 30
0.0
 10
166.138581
 20
98.046385
 30
0.0
 10
166.449375
 20
98.685708
 30
0.0
  0
SPLINE
  5
2fb
100
AcDbEntity
  8
0
 62
7
100
AcDbSpline
 70
8
 71
3
 72
8
 73
4
 74
0
 40
0
 40
0
 40
0
 40
0
 40
1
 40
1
 40
1
 40
1
 10
166.449375
 20
98.685708
 30
0.0
 10
166.760169
 20
99.325029
 30
0.0
 10
167.138384
 20
99.951314
 30
0.0
 10
167.287222
 20
100.079181
 30
0.0
  0
SPLINE
  5
2fc
100
AcDbEntity
  8
0
 62
7
100
AcDbSpline
 70
8
 71
3
 72
8
 73
4
 74
0
 40
0
 40
0
 40
0
 40
0
 40
1
 40
1
 40
1
 40
1
 10
167.287222
 20
100.079181
 30
0.0
 10
167.436061
 20
100.207044
 30
0.0
 10
167.696998
 20
100.681169
 30
0.0
 10
167.869306
 20
101.128695
 30
0.0
  0
SPLINE
  5
2fd
100
AcDbEntity
  8
0
 62
7
100
AcDbSpline
 70
8
 71
3
 72
8
 73
4
 74
0
 40
0
 40
0
 40
0
 40
0
 40
1
 40
1
 40
1
 40
1
 10
167.869306
 20
101.128695
 30
0.0
 10
168.041616
 20
101.576220
 30
0.0
 10
168.250427
 20
101.990804
 30
0.0
 10
168.336736
 20
102.054736
 30
0.0
  0
SPLINE
  5
2fe
100
AcDbEntity
  8
0
 62
7
100
AcDbSpline
 70
8
 71
3
 72
8
 73
4
 74
0
 40
0
 40
0
 40
0
 40
0
 40
1
 40
1
 40
1
 40
1
 10
168.336736
 20
102.054736
 30
0.0
 10
168.619509
 20
102.264193
 30
0.0
 10
169.483264
 20
104.225333
 30
0.0
 10
169.483264
 20
104.656472
 30
0.0
  0
SPLINE
  5
2ff
100
AcDbEntity
  8
0
 62
7
100
AcDbSpline
 70
8
 71
3
 72
8
 73
4
 74
0
 40
0
 40
0
 40
0
 40
0
 40
1
 40
1
 40
1
 40
1
 10
169.483264
 20
104.656472
 30
0.0
 10
169.483264
 20
104.888185
 30
0.0
 10
169.593525
 20
105.079806
 30
0.0
 10
169.721389
 20
105.079806
 30
0.0
  0
SPLINE
  5
300
100
AcDbEntity
  8
0
 62
7
100
AcDbSpline
 70
8
 71
3
 72
8
 73
4
 74
0
 40
0
 40
0
 40
0
 40
0
 40
1
 40
1
 40
1
 40
1
 10
169.721389
 20
105.079806
 30
0.0
 10
169.860877
 20
105.079806
 30
0.0
 10
169.950694
 20
106.013256
 30
0.0
 10
169.950694
 20
107.408139
 30
0.0
  0
SPLINE
  5
301
100
AcDbEntity
  8
0
 62
7
100
AcDbSpline
 70
8
 71
3
 72
8
 73
4
 74
0
 40
0
 40
0
 40
0
 40
0
 40
1
 40
1
 40
1
 40
1
 10
169.950694
 20
107.408139
 30
0.0
 10
169.950694
 20
108.686783
 30
0.0
 10
169.861193
 20
109.727653
 30
0.0
 10
169.747847
 20
109.727653
 30
0.0
  0
SPLINE
  5
302
100
AcDbEntity
  8
0
 62
7
100
AcDbSpline
 70
8
 71
3
 72
8
 73
4
 74
0
 40
0
 40
0
 40
0
 40
0
 40
1
 40
1
 40
1
 40
1
 10
169.747847
 20
109.727653
 30
0.0
 10
169.634501
 20
109.727653
 30
0.0
 10
169.470352
 20
110.231549
 30
0.0
 10
169.386250
 20
110.838903
 30
0.0
  0
SPLINE
  5
303
100
AcDbEntity
  8
0
 62
7
100
AcDbSpline
 70
8
 71
3
 72
8
 73
4
 74
0
 40
0
 40
0
 40
0
 40
0
 40
1
 40
1
 40
1
 40
1
 10
169.386250
 20
110.838903
 30
0.0
 10
169.186612
 20
112.280610
 30
0.0
 10
168.531819
 20
114.420334
 30
0.0
 10
168.186806
 20
114.772375
 30
0.0
  0
SPLINE
  5
304
100
AcDbEntity
  8
0
 62
7
100
AcDbSpline
 70
8
 71
3
 72
8
 73
4
 74
0
 40
0
 40
0
 40
0
 40
0
 40
1
 40
1
 40
1
 40
1
 10
168.186806
 20
114.772375
 30
0.0
 10
168.037092
 20
114.925139
 30
0.0
 10
167.776700
 20
115.530475
 30
0.0
 10
167.604722
 20
116.112931
 30
0.0
  0
SPLINE
  5
305
100
AcDbEntity
  8
0
 62
7
100
AcDbSpline
 70
8
 71
3
 72
8
 73
4
 74
0
 40
0
 40
0
 40
0
 40
0
 40
1
 40
1
 40
1
 40
1
 10
167.604722
 20
116.112931
 30
0.0
 10
167.432742
 20
116.695387
 30
0.0
 10
167.210782
 20
117.171264
 30
0.0
 10
167.110833
 20
117.171264
 30
0.0
  0
SPLINE
  5
306
100
AcDbEntity
  8
0
 62
7
100
AcDbSpline
 70
8
 71
3
 72
8
 73
4
 74
0
 40
0
 40
0
 40
0
 40
0
 40
1
 40
1
 40
1
 40
1
 10
167.110833
 20
117.171264
 30
0.0
 10
167.010884
 20
117.171264
 30
0.0
 10
166.925272
 20
117.564899
 30
0.0
 10
166.916806
 20
118.044389
 30
0.0
  0
SPLINE
  5
307
100
AcDbEntity
  8
0
 62
7
100
AcDbSpline
 70
8
 71
3
 72
8
 73
4
 74
0
 40
0
 40
0
 40
0
 40
0
 40
1
 40
1
 40
1
 40
1
 10
166.916806
 20
118.044389
 30
0.0
 10
166.897180
 20
119.157056
 30
0.0
 10
166.260216
 20
121.062953
 30
0.0
 10
165.620347
 20
121.933764
 30
0.0
  0
SPLINE
  5
308
100
AcDbEntity
  8
0
 62
7
100
AcDbSpline
 70
8
 71
3
 72
8
 73
4
 74
0
 40
0
 40
0
 40
0
 40
0
 40
1
 40
1
 40
1
 40
1
 10
165.620347
 20
121.933764
 30
0.0
 10
165.191925
 20
122.516813
 30
0.0
 10
164.983482
 20
122.600971
 30
0.0
 10
164.138681
 20
122.551125
 30
0.0
  0
SPLINE
  5
309
100
AcDbEntity
  8
0
 62
7
100
AcDbSpline
 70
8
 71
3
 72
8
 73
4
 74
0
 40
0
 40
0
 40
0
 40
0
 40
1
 40
1
 40
1
 40
1
 10
164.138681
 20
122.551125
 30
0.0
 10
162.482699
 20
122.453414
 30
0.0
 10
161.672278
 20
122.868936
 30
0.0
 10
161.069514
 20
124.103347
 30
0.0
  0
SPLINE
  5
30a
100
AcDbEntity
  8
0
 62
7
100
AcDbSpline
 70
8
 71
3
 72
8
 73
4
 74
0
 40
0
 40
0
 40
0
 40
0
 40
1
 40
1
 40
1
 40
1
 10
161.069514
 20
124.103347
 30
0.0
 10
160.777010
 20
124.702372
 30
0.0
 10
160.420835
 20
125.307338
 30
0.0
 10
160.284583
 20
125.452722
 30
0.0
  0
SPLINE
  5
30b
100
AcDbEntity
  8
0
 62
7
100
AcDbSpline
 70
8
 71
3
 72
8
 73
4
 74
0
 40
0
 40
0
 40
0
 40
0
 40
1
 40
1
 40
1
 40
1
 10
160.284583
 20
125.452722
 30
0.0
 10
160.148332
 20
125.598106
 30
0.0
 10
159.907210
 20
126.304884
 30
0.0
 10
159.746597
 20
127.022583
 30
0.0
  0
SPLINE
  5
30c
100
AcDbEntity
  8
0
 62
7
100
AcDbSpline
 70
8
 71
3
 72
8
 73
4
 74
0
 40
0
 40
0
 40
0
 40
0
 40
1
 40
1
 40
1
 40
1
 10
159.746597
 20
127.022583
 30
0.0
 10
159.585982
 20
127.740286
 30
0.0
 10
159.374521
 20
128.327861
 30
0.0
 10
159.270347
 20
128.327861
 30
0.0
  0
SPLINE
  5
30d
100
AcDbEntity
  8
0
 62
7
100
AcDbSpline
 70
8
 71
3
 72
8
 73
4
 74
0
 40
0
 40
0
 40
0
 40
0
 40
1
 40
1
 40
1
 40
1
 10
159.270347
 20
128.327861
 30
0.0
 10
159.166171
 20
128.327861
 30
0.0
 10
158.999168
 20
128.822938
 30
0.0
 10
158.908750
 20
129.430292
 30
0.0
  0
SPLINE
  5
30e
100
AcDbEntity
  8
0
 62
7
100
AcDbSpline
 70
8
 71
3
 72
8
 73
4
 74
0
 40
0
 40
0
 40
0
 40
0
 40
1
 40
1
 40
1
 40
1
 10
158.908750
 20
129.430292
 30
0.0
 10
158.818334
 20
130.037648
 30
0.0
 10
158.663059
 20
130.642981
 30
0.0
 10
158.564792
 20
130.770847
 30
0.0
  0
SPLINE
  5
30f
100
AcDbEntity
  8
0
 62
7
100
AcDbSpline
 70
8
 71
3
 72
8
 73
4
 74
0
 40
0
 40
0
 40
0
 40
0
 40
1
 40
1
 40
1
 40
1
 10
158.564792
 20
130.770847
 30
0.0
 10
158.466525
 20
130.898711
 30
0.0
 10
158.322964
 20
131.290387
 30
0.0
 10
158.238472
 20
131.643972
 30
0.0
  0
SPLINE
  5
310
100
AcDbEntity
  8
0
 62
7
100
AcDbSpline
 70
8
 71
3
 72
8
 73
4
 74
0
 40
0
 40
0
 40
0
 40
0
 40
1
 40
1
 40
1
 40
1
 10
158.238472
 20
131.643972
 30
0.0
 10
158.019002
 20
132.562439
 30
0.0
 10
157.388611
 20
133.213833
 30
0.0
 10
156.712708
 20
133.213833
 30
0.0
  0
SPLINE
  5
311
100
AcDbEntity
  8
0
 62
7
100
AcDbSpline
 70
8
 71
3
 72
8
 73
4
 74
0
 40
0
 40
0
 40
0
 40
0
 40
1
 40
1
 40
1
 40
1
 10
156.712708
 20
133.213833
 30
0.0
 10
156.326733
 20
133.213833
 30
0.0
 10
155.829658
 20
133.530752
 30
0.0
 10
155.248681
 20
134.166333
 30
0.0
  0
SPLINE
  5
312
100
AcDbEntity
  8
0
 62
7
100
AcDbSpline
 70
8
 71
3
 72
8
 73
4
 74
0
 40
0
 40
0
 40
0
 40
0
 40
1
 40
1
 40
1
 40
1
 10
155.248681
 20
134.166333
 30
0.0
 10
154.766391
 20
134.693948
 30
0.0
 10
154.375556
 20
135.218794
 30
0.0
 10
154.375556
 20
135.330500
 30
0.0
  0
SPLINE
  5
313
100
AcDbEntity
  8
0
 62
7
100
AcDbSpline
 70
8
 71
3
 72
8
 73
4
 74
0
 40
0
 40
0
 40
0
 40
0
 40
1
 40
1
 40
1
 40
1
 10
154.375556
 20
135.330500
 30
0.0
 10
154.375556
 20
135.442204
 30
0.0
 10
154.166319
 20
135.533347
 30
0.0
 10
153.916944
 20
135.533347
 30
0.0
  0
SPLINE
  5
314
100
AcDbEntity
  8
0
 62
7
100
AcDbSpline
 70
8
 71
3
 72
8
 73
4
 74
0
 40
0
 40
0
 40
0
 40
0
 40
1
 40
1
 40
1
 40
1
 10
153.916944
 20
135.533347
 30
0.0
 10
153.667570
 20
135.533347
 30
0.0
 10
153.364212
 20
135.715279
 30
0.0
 10
153.237847
 20
135.939042
 30
0.0
  0
SPLINE
  5
315
100
AcDbEntity
  8
0
 62
7
100
AcDbSpline
 70
8
 71
3
 72
8
 73
4
 74
0
 40
0
 40
0
 40
0
 40
0
 40
1
 40
1
 40
1
 40
1
 10
153.237847
 20
135.939042
 30
0.0
 10
153.163976
 20
136.069852
 30
0.0
 10
153.105705
 20
136.145950
 30
0.0
 10
153.043819
 20
136.141889
 30
0.0
  0
LWPOLYLINE
  5
316
100
AcDbEntity
  8
0
 62
7
100
AcDbPolyline
 90
2
 70
0
 10
33.778472
 20
142.430153
 30
0.0
 10
33.778472
 20
142.430153
 30
0.0
  0
SPLINE
  5
317
100
AcDbEntity
  8
0
 62
7
100
AcDbSpline
 70
8
 71
3
 72
8
 73
4
 74
0
 40
0
 40
0
 40
0
 40
0
 40
1
 40
1
 40
1
 40
1
 10
159.781875
 20
81.567167
 30
0.0
 10
160.269956
 20
81.548721
 30
0.0
 10
160.313695
 20
81.234684
 30
0.0
 10
159.852431
 20
80.773417
 30
0.0
  0
SPLINE
  5
318
100
AcDbEntity
  8
0
 62
7
100
AcDbSpline
 70
8
 71
3
 72
8
 73
4
 74
0
 40
0
 40
0
 40
0
 40
0
 40
1
 40
1
 40
1
 40
1
 10
159.852431
 20
80.773417
 30
0.0
 10
159.325211
 20
80.246200
 30
0.0
 10
158.742789
 20
80.348977
 30
0.0
 10
158.829375
 20
80.958625
 30
0.0
  0
SPLINE
  5
319
100
AcDbEntity
  8
0
 62
7
100
AcDbSpline
 70
8
 71
3
 72
8
 73
4
 74
0
 40
0
 40
0
 40
0
 40
0
 40
1
 40
1
 40
1
 40
1
 10
158.829375
 20
80.958625
 30
0.0
 10
158.882565
 20
81.333154
 30
0.0
 10
159.085994
 20
81.505676
 30
0.0
 10
159.543750
 20
81.558347
 30
0.0
  0
SPLINE
  5
31a
100
AcDbEntity
  8
0
 62
7
100
AcDbSpline
 70
8
 71
3
 72
8
 73
4
 74
0
 40
0
 40
0
 40
0
 40
0
 40
1
 40
1
 40
1
 40
1
 10
159.543750
 20
81.558347
 30
0.0
 10
159.631414
 20
81.568434
 30
0.0
 10
159.712149
 20
81.569803
 30
0.0
 10
159.781875
 20
81.567167
 30
0.0
  0
LWPOLYLINE
  5
31b
100
AcDbEntity
  8
0
 62
7
100
AcDbPolyline
 90
2
 70
0
 10
153.043819
 20
136.141889
 30
0.0
 10
153.043819
 20
136.141889
 30
0.0
  0
SPLINE
  5
31c
100
AcDbEntity
  8
0
 62
7
100
AcDbSpline
 70
8
 71
3
 72
8
 73
4
 74
0
 40
0
 40
0
 40
0
 40
0
 40
1
 40
1
 40
1
 40
1
 10
109.078889
 20
76.954597
 30
0.0
 10
109.182577
 20
76.954597
 30
0.0
 10
109.333795
 20
76.692173
 30
0.0
 10
109.414028
 20
76.372514
 30
0.0
  0
SPLINE
  5
31d
100
AcDbEntity
  8
0
 62
7
100
AcDbSpline
 70
8
 71
3
 72
8
 73
4
 74
0
 40
0
 40
0
 40
0
 40
0
 40
1
 40
1
 40
1
 40
1
 10
109.414028
 20
76.372514
 30
0.0
 10
109.494255
 20
76.052852
 30
0.0
 10
109.628889
 20
75.790431
 30
0.0
 10
109.713889
 20
75.790431
 30
0.0
  0
SPLINE
  5
31e
100
AcDbEntity
  8
0
 62
7
100
AcDbSpline
 70
8
 71
3
 72
8
 73
4
 74
0
 40
0
 40
0
 40
0
 40
0
 40
1
 40
1
 40
1
 40
1
 10
109.713889
 20
75.790431
 30
0.0
 10
109.798886
 20
75.790431
 30
0.0
 10
110.117060
 20
75.032935
 30
0.0
 10
110.428264
 20
74.105917
 30
0.0
  0
SPLINE
  5
31f
100
AcDbEntity
  8
0
 62
7
100
AcDbSpline
 70
8
 71
3
 72
8
 73
4
 74
0
 40
0
 40
0
 40
0
 40
0
 40
1
 40
1
 40
1
 40
1
 10
110.428264
 20
74.105917
 30
0.0
 10
110.739465
 20
73.178901
 30
0.0
 10
111.095880
 20
72.352792
 30
0.0
 10
111.213194
 20
72.271472
 30
0.0
  0
SPLINE
  5
320
100
AcDbEntity
  8
0
 62
7
100
AcDbSpline
 70
8
 71
3
 72
8
 73
4
 74
0
 40
0
 40
0
 40
0
 40
0
 40
1
 40
1
 40
1
 40
1
 10
111.213194
 20
72.271472
 30
0.0
 10
111.330509
 20
72.190156
 30
0.0
 10
111.618395
 20
71.564407
 30
0.0
 10
111.857014
 20
70.886820
 30
0.0
  0
SPLINE
  5
321
100
AcDbEntity
  8
0
 62
7
100
AcDbSpline
 70
8
 71
3
 72
8
 73
4
 74
0
 40
0
 40
0
 40
0
 40
0
 40
1
 40
1
 40
1
 40
1
 10
111.857014
 20
70.886820
 30
0.0
 10
112.095638
 20
70.209232
 30
0.0
 10
112.372163
 20
69.600834
 30
0.0
 10
112.474375
 20
69.528625
 30
0.0
  0
SPLINE
  5
322
100
AcDbEntity
  8
0
 62
7
100
AcDbSpline
 70
8
 71
3
 72
8
 73
4
 74
0
 40
0
 40
0
 40
0
 40
0
 40
1
 40
1
 40
1
 40
1
 10
112.474375
 20
69.528625
 30
0.0
 10
112.718249
 20
69.356328
 30
0.0
 10
113.230810
 20
67.622716
 30
0.0
 10
113.100556
 20
67.411958
 30
0.0
  0
SPLINE
  5
323
100
AcDbEntity
  8
0
 62
7
100
AcDbSpline
 70
8
 71
3
 72
8
 73
4
 74
0
 40
0
 40
0
 40
0
 40
0
 40
1
 40
1
 40
1
 40
1
 10
113.100556
 20
67.411958
 30
0.0
 10
113.044978
 20
67.322031
 30
0.0
 10
112.371293
 20
67.172761
 30
0.0
 10
111.601250
 20
67.085639
 30
0.0
  0
SPLINE
  5
324
100
AcDbEntity
  8
0
 62
7
100
AcDbSpline
 70
8
 71
3
 72
8
 73
4
 74
0
 40
0
 40
0
 40
0
 40
0
 40
1
 40
1
 40
1
 40
1
 10
111.601250
 20
67.085639
 30
0.0
 10
110.831201
 20
66.998517
 30
0.0
 10
110.198958
 20
66.850057
 30
0.0
 10
110.198958
 20
66.750500
 30
0.0
  0
SPLINE
  5
325
100
AcDbEntity
  8
0
 62
7
100
AcDbSpline
 70
8
 71
3
 72
8
 73
4
 74
0
 40
0
 40
0
 40
0
 40
0
 40
1
 40
1
 40
1
 40
1
 10
110.198958
 20
66.750500
 30
0.0
 10
110.198958
 20
66.650946
 30
0.0
 10
109.675047
 20
66.450532
 30
0.0
 10
109.025972
 20
66.300708
 30
0.0
  0
SPLINE
  5
326
100
AcDbEntity
  8
0
 62
7
100
AcDbSpline
 70
8
 71
3
 72
8
 73
4
 74
0
 40
0
 40
0
 40
0
 40
0
 40
1
 40
1
 40
1
 40
1
 10
109.025972
 20
66.300708
 30
0.0
 10
107.473166
 20
65.942278
 30
0.0
 10
107.429057
 20
65.941792
 30
0.0
 10
107.217986
 20
66.512375
 30
0.0
  0
SPLINE
  5
327
100
AcDbEntity
  8
0
 62
7
100
AcDbSpline
 70
8
 71
3
 72
8
 73
4
 74
0
 40
0
 40
0
 40
0
 40
0
 40
1
 40
1
 40
1
 40
1
 10
107.217986
 20
66.512375
 30
0.0
 10
107.028736
 20
67.023959
 30
0.0
 10
107.372184
 20
69.776611
 30
0.0
 10
107.650139
 20
69.978417
 30
0.0
  0
SPLINE
  5
328
100
AcDbEntity
  8
0
 62
7
100
AcDbSpline
 70
8
 71
3
 72
8
 73
4
 74
0
 40
0
 40
0
 40
0
 40
0
 40
1
 40
1
 40
1
 40
1
 10
107.650139
 20
69.978417
 30
0.0
 10
107.738195
 20
70.042349
 30
0.0
 10
107.873919
 20
70.719355
 30
0.0
 10
107.958819
 20
71.486542
 30
0.0
  0
SPLINE
  5
329
100
AcDbEntity
  8
0
 62
7
100
AcDbSpline
 70
8
 71
3
 72
8
 73
4
 74
0
 40
0
 40
0
 40
0
 40
0
 40
1
 40
1
 40
1
 40
1
 10
107.958819
 20
71.486542
 30
0.0
 10
108.203898
 20
73.701148
 30
0.0
 10
108.872587
 20
76.954597
 30
0.0
 10
109.078889
 20
76.954597
 30
0.0
  0
LWPOLYLINE
  5
32a
100
AcDbEntity
  8
0
 62
7
100
AcDbPolyline
 90
2
 70
0
 10
159.781875
 20
81.567167
 30
0.0
 10
159.781875
 20
81.567167
 30
0.0
  0
SPLINE
  5
32b
100
AcDbEntity
  8
0
 62
7
100
AcDbSpline
 70
8
 71
3
 72
8
 73
4
 74
0
 40
0
 40
0
 40
0
 40
0
 40
1
 40
1
 40
1
 40
1
 10
54.389514
 20
67.888208
 30
0.0
 10
54.701906
 20
67.888208
 30
0.0
 10
54.851215
 20
67.542289
 30
0.0
 10
55.068611
 20
66.362445
 30
0.0
  0
SPLINE
  5
32c
100
AcDbEntity
  8
0
 62
7
100
AcDbSpline
 70
8
 71
3
 72
8
 73
4
 74
0
 40
0
 40
0
 40
0
 40
0
 40
1
 40
1
 40
1
 40
1
 10
55.068611
 20
66.362445
 30
0.0
 10
55.222747
 20
65.525873
 30
0.0
 10
55.294197
 20
64.738608
 30
0.0
 10
55.218542
 20
64.616195
 30
0.0
  0
SPLINE
  5
32d
100
AcDbEntity
  8
0
 62
7
100
AcDbSpline
 70
8
 71
3
 72
8
 73
4
 74
0
 40
0
 40
0
 40
0
 40
0
 40
1
 40
1
 40
1
 40
1
 10
55.218542
 20
64.616195
 30
0.0
 10
55.142884
 20
64.493781
 30
0.0
 10
54.988062
 20
64.395708
 30
0.0
 10
54.883403
 20
64.395708
 30
0.0
  0
SPLINE
  5
32e
100
AcDbEntity
  8
0
 62
7
100
AcDbSpline
 70
8
 71
3
 72
8
 73
4
 74
0
 40
0
 40
0
 40
0
 40
0
 40
1
 40
1
 40
1
 40
1
 10
54.883403
 20
64.395708
 30
0.0
 10
54.472908
 20
64.395708
 30
0.0
 10
54.235872
 20
65.042045
 30
0.0
 10
54.116111
 20
66.433000
 30
0.0
  0
SPLINE
  5
32f
100
AcDbEntity
  8
0
 62
7
100
AcDbSpline
 70
8
 71
3
 72
8
 73
4
 74
0
 40
0
 40
0
 40
0
 40
0
 40
1
 40
1
 40
1
 40
1
 10
54.116111
 20
66.433000
 30
0.0
 10
54.006648
 20
67.704324
 30
0.0
 10
54.037140
 20
67.888208
 30
0.0
 10
54.389514
 20
67.888208
 30
0.0
  0
LWPOLYLINE
  5
330
100
AcDbEntity
  8
0
 62
7
100
AcDbPolyline
 90
2
 70
0
 10
109.078889
 20
76.954597
 30
0.0
 10
109.078889
 20
76.954597
 30
0.0
  0
LWPOLYLINE
  5
331
100
AcDbEntity
  8
0
 62
7
100
AcDbPolyline
 90
2
 70
0
 10
54.389514
 20
67.888208
 30
0.0
 10
54.389514
 20
67.888208
 30
0.0
  0
ENDSEC
  0
SECTION
  2
OBJECTS
  0
DICTIONARY
  5
C
330
0
100
AcDbDictionary
  3
ACAD_GROUP
350
D
  3
ACAD_MLINESTYLE
350
17
  0
DICTIONARY
  5
D
330
C
100
AcDbDictionary
  0
DICTIONARY
  5
1A
330
C
100
AcDbDictionary
  0
DICTIONARY
  5
17
330
C
100
AcDbDictionary
  3
STANDARD
350
18
  0
DICTIONARY
  5
19
330
C
100
AcDbDictionary
  0
ENDSEC
  0
EOF
