999
dxfrw 0.5.10
0
SECTION
2
HEADER
9
$ACADVER
1
AC1021
9
$HANDSEED
5
20000
9
$DWGCODEPAGE
3
ANSI_1252
9
$INSBASE
10
0
20
0
30
0
9
$EXTMIN
10
2.5
20
2.5
30
0
9
$EXTMAX
10
131.095492186
20
77.5
30
0
9
$LIMMIN
10
0
20
0
9
$LIMMAX
10
420
20
297
9
$ORTHOMODE
70
0
9
$LTSCALE
40
1
9
$TEXTSTYLE
7
STANDARD
9
$CLAYER
8
name
9
$DIMASZ
40
2.5
9
$DIMLFAC
40
1
9
$DIMSCALE
40
1
9
$DIMEXO
40
0.625
9
$DIMEXE
40
1.25
9
$DIMTXT
40
2.5
9
$DIMTSZ
40
0
9
$DIMAUNIT
70
0
9
$DIMADEC
70
0
9
$DIMLUNIT
70
2
9
$DIMSTYLE
2
Standard
9
$DIMGAP
40
0.625
9
$DIMTIH
70
0
9
$LUNITS
70
2
9
$LUPREC
70
4
9
$AUNITS
70
0
9
$AUPREC
70
2
9
$SPLINESEGS
70
8
9
$GRIDMODE
70
0
9
$SNAPSTYLE
70
0
9
$PINSBASE
10
0
20
0
30
0
9
$PLIMMIN
10
0
20
0
9
$PLIMMAX
10
210
20
297
9
$INSUNITS
70
4
9
$PSVPSCALE
40
1
0
ENDSEC
0
SECTION
2
CLASSES
0
ENDSEC
0
SECTION
2
TABLES
0
TABLE
2
VPORT
5
8
330
0
100
AcDbSymbolTable
70
1
0
VPORT
5
31
330
2
100
AcDbSymbolTableRecord
100
AcDbViewportTableRecord
2
*ACTIVE
70
0
10
0
20
0
11
1
21
1
12
73.2676630435
22
39.2323369565
13
0
23
0
14
10
24
10
15
10
25
10
16
0
26
0
36
1
17
0
27
0
37
0
40
77.0380434783
41
2.06878306878
42
50
43
0
44
0
50
0
51
0
71
0
72
100
73
1
74
3
75
0
76
0
77
0
78
0
281
0
65
1
110
0
120
0
130
0
111
1
121
0
131
0
112
0
122
1
132
0
79
0
146
0
348
10020
60
7
61
5
292
1
282
1
141
0
142
0
63
250
421
3358443
0
ENDTAB
0
TABLE
2
LTYPE
5
5
330
0
100
AcDbSymbolTable
70
4
0
LTYPE
5
14
330
5
100
AcDbSymbolTableRecord
100
AcDbLinetypeTableRecord
2
ByBlock
70
0
3

72
65
73
0
40
0
0
LTYPE
5
15
330
5
100
AcDbSymbolTableRecord
100
AcDbLinetypeTableRecord
2
ByLayer
70
0
3

72
65
73
0
40
0
0
LTYPE
5
16
330
5
100
AcDbSymbolTableRecord
100
AcDbLinetypeTableRecord
2
Continuous
70
0
3
Solid line
72
65
73
0
40
0
0
LTYPE
5
32
330
5
100
AcDbSymbolTableRecord
100
AcDbLinetypeTableRecord
2
DOT
70
0
3
Dot . . . . . . . . . . . . . . . . . . . . . .
72
65
73
2
40
6.35
49
0
74
0
49
-6.35
74
0
0
LTYPE
5
33
330
5
100
AcDbSymbolTableRecord
100
AcDbLinetypeTableRecord
2
DOT2
70
0
3
Dot (.5x) .....................................
72
65
73
2
40
3.175
49
0
74
0
49
-3.175
74
0
0
LTYPE
5
34
330
5
100
AcDbSymbolTableRecord
100
AcDbLinetypeTableRecord
2
DOTX2
70
0
3
Dot (2x) .  .  .  .  .  .  .  .  .  .  .  .  .
72
65
73
2
40
12.7
49
0
74
0
49
-12.7
74
0
0
LTYPE
5
35
330
5
100
AcDbSymbolTableRecord
100
AcDbLinetypeTableRecord
2
DASHED
70
0
3
Dot . . . . . . . . . . . . . . . . . . . . . .
72
65
73
2
40
19.05
49
12.7
74
0
49
-6.35
74
0
0
LTYPE
5
36
330
5
100
AcDbSymbolTableRecord
100
AcDbLinetypeTableRecord
2
DASHED2
70
0
3
Dashed (.5x) _ _ _ _ _ _ _ _ _ _ _ _ _ _ _ _ _
72
65
73
2
40
9.525
49
6.35
74
0
49
-3.175
74
0
0
LTYPE
5
37
330
5
100
AcDbSymbolTableRecord
100
AcDbLinetypeTableRecord
2
DASHEDX2
70
0
3
Dashed (2x) ____  ____  ____  ____  ____  ___
72
65
73
2
40
38.1
49
25.4
74
0
49
-12.7
74
0
0
LTYPE
5
38
330
5
100
AcDbSymbolTableRecord
100
AcDbLinetypeTableRecord
2
DASHDOT
70
0
3
Dash dot __ . __ . __ . __ . __ . __ . __ . __
72
65
73
4
40
25.4
49
12.7
74
0
49
-6.35
74
0
49
0
74
0
49
-6.35
74
0
0
LTYPE
5
39
330
5
100
AcDbSymbolTableRecord
100
AcDbLinetypeTableRecord
2
DASHDOT2
70
0
3
Dash dot (.5x) _._._._._._._._._._._._._._._.
72
65
73
4
40
12.7
49
6.35
74
0
49
-3.175
74
0
49
0
74
0
49
-3.175
74
0
0
LTYPE
5
3A
330
5
100
AcDbSymbolTableRecord
100
AcDbLinetypeTableRecord
2
DASHDOTX2
70
0
3
Dash dot (2x) ____  .  ____  .  ____  .  ___
72
65
73
4
40
50.8
49
25.4
74
0
49
-12.7
74
0
49
0
74
0
49
-12.7
74
0
0
LTYPE
5
3B
330
5
100
AcDbSymbolTableRecord
100
AcDbLinetypeTableRecord
2
DIVIDE
70
0
3
Divide ____ . . ____ . . ____ . . ____ . . ____
72
65
73
6
40
31.75
49
12.7
74
0
49
-6.35
74
0
49
0
74
0
49
-6.35
74
0
49
0
74
0
49
-6.35
74
0
0
LTYPE
5
3C
330
5
100
AcDbSymbolTableRecord
100
AcDbLinetypeTableRecord
2
DIVIDE2
70
0
3
Divide (.5x) __..__..__..__..__..__..__..__.._
72
65
73
6
40
15.875
49
6.35
74
0
49
-3.175
74
0
49
0
74
0
49
-3.175
74
0
49
0
74
0
49
-3.175
74
0
0
LTYPE
5
3D
330
5
100
AcDbSymbolTableRecord
100
AcDbLinetypeTableRecord
2
DIVIDEX2
70
0
3
Divide (2x) ________  .  .  ________  .  .  _
72
65
73
6
40
63.5
49
25.4
74
0
49
-12.7
74
0
49
0
74
0
49
-12.7
74
0
49
0
74
0
49
-12.7
74
0
0
LTYPE
5
3E
330
5
100
AcDbSymbolTableRecord
100
AcDbLinetypeTableRecord
2
BORDER
70
0
3
Border __ __ . __ __ . __ __ . __ __ . __ __ .
72
65
73
6
40
44.45
49
12.7
74
0
49
-6.35
74
0
49
12.7
74
0
49
-6.35
74
0
49
0
74
0
49
-6.35
74
0
0
LTYPE
5
3F
330
5
100
AcDbSymbolTableRecord
100
AcDbLinetypeTableRecord
2
BORDER2
70
0
3
Border (.5x) __.__.__.__.__.__.__.__.__.__.__.
72
65
73
6
40
22.225
49
6.35
74
0
49
-3.175
74
0
49
6.35
74
0
49
-3.175
74
0
49
0
74
0
49
-3.175
74
0
0
LTYPE
5
40
330
5
100
AcDbSymbolTableRecord
100
AcDbLinetypeTableRecord
2
BORDERX2
70
0
3
Border (2x) ____  ____  .  ____  ____  .  ___
72
65
73
6
40
88.9
49
25.4
74
0
49
-12.7
74
0
49
25.4
74
0
49
-12.7
74
0
49
0
74
0
49
-12.7
74
0
0
LTYPE
5
41
330
5
100
AcDbSymbolTableRecord
100
AcDbLinetypeTableRecord
2
CENTER
70
0
3
Center ____ _ ____ _ ____ _ ____ _ ____ _ ____
72
65
73
4
40
50.8
49
31.75
74
0
49
-6.35
74
0
49
6.35
74
0
49
-6.35
74
0
0
LTYPE
5
42
330
5
100
AcDbSymbolTableRecord
100
AcDbLinetypeTableRecord
2
CENTER2
70
0
3
Center (.5x) ___ _ ___ _ ___ _ ___ _ ___ _ ___
72
65
73
4
40
28.575
49
19.05
74
0
49
-3.175
74
0
49
3.175
74
0
49
-3.175
74
0
0
LTYPE
5
43
330
5
100
AcDbSymbolTableRecord
100
AcDbLinetypeTableRecord
2
CENTERX2
70
0
3
Center (2x) ________  __  ________  __  _____
72
65
73
4
40
101.6
49
63.5
74
0
49
-12.7
74
0
49
12.7
74
0
49
-12.7
74
0
0
ENDTAB
0
TABLE
2
LAYER
5
2
330
0
100
AcDbSymbolTable
70
1
0
LAYER
5
10
330
2
100
AcDbSymbolTableRecord
100
AcDbLayerTableRecord
2
0
70
0
62
7
6
CONTINUOUS
370
-3
390
F
0
LAYER
5
44
330
2
100
AcDbSymbolTableRecord
100
AcDbLayerTableRecord
2
nitori
70
0
62
7
6
CONTINUOUS
370
0
390
F
0
LAYER
5
45
330
2
100
AcDbSymbolTableRecord
100
AcDbLayerTableRecord
2
name
70
0
62
7
6
CONTINUOUS
370
-3
390
F
0
ENDTAB
0
TABLE
2
STYLE
5
3
330
0
100
AcDbSymbolTable
70
3
0
STYLE
5
46
330
2
100
AcDbSymbolTableRecord
100
AcDbTextStyleTableRecord
2
Standard
70
0
40
0
41
1
50
0
71
0
42
1
3
txt
4

0
ENDTAB
0
TABLE
2
VIEW
5
6
330
0
100
AcDbSymbolTable
70
0
0
ENDTAB
0
TABLE
2
UCS
5
7
330
0
100
AcDbSymbolTable
70
0
0
ENDTAB
0
TABLE
2
APPID
5
9
330
0
100
AcDbSymbolTable
70
1
0
APPID
5
12
330
9
100
AcDbSymbolTableRecord
100
AcDbRegAppTableRecord
2
ACAD
70
0
0
ENDTAB
0
TABLE
2
DIMSTYLE
5
A
330
0
100
AcDbSymbolTable
70
1
100
AcDbDimStyleTable
71
1
0
DIMSTYLE
105
47
330
A
100
AcDbSymbolTableRecord
100
AcDbDimStyleTableRecord
2
Standard
70
0
40
1
41
2.5
42
0.625
43
0.38
44
1.25
45
0
46
0
47
0
48
0
140
2.5
141
0.09
142
0
143
25.4
144
1
145
0
146
1
147
0.625
148
0
71
0
72
0
73
0
74
1
75
0
76
0
77
0
78
0
79
0
170
0
171
2
172
0
173
0
174
0
175
0
176
0
177
0
178
0
179
0
271
4
272
4
273
2
274
2
275
0
276
0
277
2
278
46
279
0
280
0
281
0
282
0
283
1
284
0
285
0
286
0
288
0
289
3
340
Standard
341

371
-2
372
-2
0
ENDTAB
0
TABLE
2
BLOCK_RECORD
5
1
330
0
100
AcDbSymbolTable
70
2
0
BLOCK_RECORD
5
1F
330
1
100
AcDbSymbolTableRecord
100
AcDbBlockTableRecord
2
*Model_Space
70
0
280
1
281
0
0
BLOCK_RECORD
5
1E
330
1
100
AcDbSymbolTableRecord
100
AcDbBlockTableRecord
2
*Paper_Space
70
0
280
1
281
0
0
ENDTAB
0
ENDSEC
0
SECTION
2
BLOCKS
0
BLOCK
5
20
330
1F
100
AcDbEntity
8
0
100
AcDbBlockBegin
2
*Model_Space
70
0
10
0
20
0
30
0
3
*Model_Space
1

0
ENDBLK
5
21
330
1F
100
AcDbEntity
8
0
100
AcDbBlockEnd
0
BLOCK
5
1C
330
1B
100
AcDbEntity
8
0
100
AcDbBlockBegin
2
*Paper_Space
70
0
10
0
20
0
30
0
3
*Paper_Space
1

0
ENDBLK
5
1D
330
1F
100
AcDbEntity
8
0
100
AcDbBlockEnd
0
ENDSEC
0
SECTION
2
ENTITIES
0
CIRCLE
5
48
100
AcDbEntity
8
0
6
ByLayer
62
256
370
-1
100
AcDbCircle
10
40
20
40
40
37.5
0
SPLINE
5
49
100
AcDbEntity
8
nitori
6
ByLayer
62
7
370
-1
100
AcDbSpline
210
0
220
0
230
1
70
8
71
3
72
8
73
4
74
0
42
1e-07
43
1e-07
40
0
40
0
40
0
40
0
40
1
40
1
40
1
40
1
10
40.0349142836
20
69.2363846479
30
0
10
39.0168096836
20
69.2369111479
30
0
10
37.0207785836
20
68.6036744479
30
0
10
36.4656852836
20
68.1039680479
30
0
0
SPLINE
5
4A
100
AcDbEntity
8
nitori
6
ByLayer
62
7
370
-1
100
AcDbSpline
210
0
220
0
230
1
70
8
71
3
72
8
73
4
74
0
42
1e-07
43
1e-07
40
0
40
0
40
0
40
0
40
1
40
1
40
1
40
1
10
36.4656852836
20
68.1039680479
30
0
10
36.3503235836
20
68.0001176479
30
0
10
36.2125734836
20
67.9161137479
30
0
10
36.1587684836
20
67.9161137479
30
0
0
SPLINE
5
4B
100
AcDbEntity
8
nitori
6
ByLayer
62
7
370
-1
100
AcDbSpline
210
0
220
0
230
1
70
8
71
3
72
8
73
4
74
0
42
1e-07
43
1e-07
40
0
40
0
40
0
40
0
40
1
40
1
40
1
40
1
10
36.1587684836
20
67.9161137479
30
0
10
36.0479949836
20
67.9161137479
30
0
10
35.5078935836
20
67.3276949479
30
0
10
35.5078935836
20
67.2070304479
30
0
0
SPLINE
5
4C
100
AcDbEntity
8
nitori
6
ByLayer
62
7
370
-1
100
AcDbSpline
210
0
220
0
230
1
70
8
71
3
72
8
73
4
74
0
42
1e-07
43
1e-07
40
0
40
0
40
0
40
0
40
1
40
1
40
1
40
1
10
35.5078935836
20
67.2070304479
30
0
10
35.5078935836
20
67.1637386479
30
0
10
35.4410322836
20
67.0734257479
30
0
10
35.3597268836
20
67.0059473479
30
0
0
SPLINE
5
4D
100
AcDbEntity
8
nitori
6
ByLayer
62
7
370
-1
100
AcDbSpline
210
0
220
0
230
1
70
8
71
3
72
8
73
4
74
0
42
1e-07
43
1e-07
40
0
40
0
40
0
40
0
40
1
40
1
40
1
40
1
10
35.3597268836
20
67.0059473479
30
0
10
35.2784205836
20
66.9384695479
30
0
10
35.0498205836
20
66.5884601479
30
0
10
34.8517269836
20
66.2280722479
30
0
0
SPLINE
5
4E
100
AcDbEntity
8
nitori
6
ByLayer
62
7
370
-1
100
AcDbSpline
210
0
220
0
230
1
70
8
71
3
72
8
73
4
74
0
42
1e-07
43
1e-07
40
0
40
0
40
0
40
0
40
1
40
1
40
1
40
1
10
34.8517269836
20
66.2280722479
30
0
10
34.5303981836
20
65.6434868479
30
0
10
34.4918934836
20
65.4909065479
30
0
10
34.4918934836
20
64.8178430479
30
0
0
SPLINE
5
4F
100
AcDbEntity
8
nitori
6
ByLayer
62
7
370
-1
100
AcDbSpline
210
0
220
0
230
1
70
8
71
3
72
8
73
4
74
0
42
1e-07
43
1e-07
40
0
40
0
40
0
40
0
40
1
40
1
40
1
40
1
10
34.1108934836
20
63.9579473479
30
0
10
33.9013434836
20
63.8997449479
30
0
10
33.2030550836
20
63.7162661479
30
0
10
32.5604352836
20
63.5531348479
30
0
0
SPLINE
5
50
100
AcDbEntity
8
nitori
6
ByLayer
62
7
370
-1
100
AcDbSpline
210
0
220
0
230
1
70
8
71
3
72
8
73
4
74
0
42
1e-07
43
1e-07
40
0
40
0
40
0
40
0
40
1
40
1
40
1
40
1
10
32.5604352836
20
63.5531348479
30
0
10
31.1614473836
20
63.1979951479
30
0
10
31.0694730836
20
63.1642589479
30
0
10
30.9993936836
20
62.9816348479
30
0
0
SPLINE
5
51
100
AcDbEntity
8
nitori
6
ByLayer
62
7
370
-1
100
AcDbSpline
210
0
220
0
230
1
70
8
71
3
72
8
73
4
74
0
42
1e-07
43
1e-07
40
0
40
0
40
0
40
0
40
1
40
1
40
1
40
1
10
30.9993936836
20
62.9816348479
30
0
10
30.9484716836
20
62.8489325479
30
0
10
31.6018764836
20
62.1263828479
30
0
10
31.7746227836
20
62.1243848479
30
0
0
SPLINE
5
52
100
AcDbEntity
8
nitori
6
ByLayer
62
7
370
-1
100
AcDbSpline
210
0
220
0
230
1
70
8
71
3
72
8
73
4
74
0
42
1e-07
43
1e-07
40
0
40
0
40
0
40
0
40
1
40
1
40
1
40
1
10
31.7746227836
20
62.1243848479
30
0
10
31.8544200836
20
62.1234617479
30
0
10
32.0228568836
20
61.9887935479
30
0
10
32.5524975836
20
61.5079055479
30
0
0
LWPOLYLINE
5
53
100
AcDbEntity
8
nitori
6
ByLayer
62
7
370
-1
100
AcDbPolyline
90
3
70
0
43
0
10
34.4918934836
20
64.8178430479
10
34.4918934836
20
64.0637804479
10
34.1108934836
20
63.9579473479
0
SPLINE
5
54
100
AcDbEntity
8
nitori
6
ByLayer
62
7
370
-1
100
AcDbSpline
210
0
220
0
230
1
70
8
71
3
72
8
73
4
74
0
42
1e-07
43
1e-07
40
0
40
0
40
0
40
0
40
1
40
1
40
1
40
1
10
32.6662686836
20
60.8358638479
30
0
10
32.4487464836
20
60.4300133479
30
0
10
32.3966517836
20
60.0923846479
30
0
10
32.5524975836
20
60.0923846479
30
0
0
SPLINE
5
55
100
AcDbEntity
8
nitori
6
ByLayer
62
7
370
-1
100
AcDbSpline
210
0
220
0
230
1
70
8
71
3
72
8
73
4
74
0
42
1e-07
43
1e-07
40
0
40
0
40
0
40
0
40
1
40
1
40
1
40
1
10
32.5524975836
20
60.0923846479
30
0
10
32.6037210836
20
60.0923846479
30
0
10
32.6651355836
20
60.1495346479
30
0
10
32.6900811836
20
60.2193848479
30
0
0
SPLINE
5
56
100
AcDbEntity
8
nitori
6
ByLayer
62
7
370
-1
100
AcDbSpline
210
0
220
0
230
1
70
8
71
3
72
8
73
4
74
0
42
1e-07
43
1e-07
40
0
40
0
40
0
40
0
40
1
40
1
40
1
40
1
10
32.6900811836
20
60.2193848479
30
0
10
32.7150279836
20
60.2892347479
30
0
10
32.7672225836
20
60.3165209479
30
0
10
32.8064976836
20
60.2802389479
30
0
0
SPLINE
5
57
100
AcDbEntity
8
nitori
6
ByLayer
62
7
370
-1
100
AcDbSpline
210
0
220
0
230
1
70
8
71
3
72
8
73
4
74
0
42
1e-07
43
1e-07
40
0
40
0
40
0
40
0
40
1
40
1
40
1
40
1
10
32.8064976836
20
60.2802389479
30
0
10
32.8457727836
20
60.2439566479
30
0
10
32.8336503836
20
59.8818653479
30
0
10
32.7773934836
20
59.4759056479
30
0
0
SPLINE
5
58
100
AcDbEntity
8
nitori
6
ByLayer
62
7
370
-1
100
AcDbSpline
210
0
220
0
230
1
70
8
71
3
72
8
73
4
74
0
42
1e-07
43
1e-07
40
0
40
0
40
0
40
0
40
1
40
1
40
1
40
1
10
32.7773934836
20
59.4759056479
30
0
10
32.6948832836
20
58.8804989479
30
0
10
32.7016440836
20
58.6829624479
30
0
10
32.8197267836
20
58.4546138479
30
0
0
SPLINE
5
59
100
AcDbEntity
8
nitori
6
ByLayer
62
7
370
-1
100
AcDbSpline
210
0
220
0
230
1
70
8
71
3
72
8
73
4
74
0
42
1e-07
43
1e-07
40
0
40
0
40
0
40
0
40
1
40
1
40
1
40
1
10
32.8197267836
20
58.4546138479
30
0
10
32.9002389836
20
58.2989219479
30
0
10
32.9678934836
20
58.0806734479
30
0
10
32.9678934836
20
57.9704264479
30
0
0
SPLINE
5
5A
100
AcDbEntity
8
nitori
6
ByLayer
62
7
370
-1
100
AcDbSpline
210
0
220
0
230
1
70
8
71
3
72
8
73
4
74
0
42
1e-07
43
1e-07
40
0
40
0
40
0
40
0
40
1
40
1
40
1
40
1
10
32.9678934836
20
57.9704264479
30
0
10
32.9678934836
20
57.8601776479
30
0
10
33.0821934836
20
57.6363875479
30
0
10
33.2218935836
20
57.4703639479
30
0
0
SPLINE
5
5B
100
AcDbEntity
8
nitori
6
ByLayer
62
7
370
-1
100
AcDbSpline
210
0
220
0
230
1
70
8
71
3
72
8
73
4
74
0
42
1e-07
43
1e-07
40
0
40
0
40
0
40
0
40
1
40
1
40
1
40
1
10
33.2218935836
20
57.4703639479
30
0
10
33.3615936836
20
57.3043394479
30
0
10
33.4758936836
20
57.1231847479
30
0
10
33.4758936836
20
57.0708431479
30
0
0
SPLINE
5
5C
100
AcDbEntity
8
nitori
6
ByLayer
62
7
370
-1
100
AcDbSpline
210
0
220
0
230
1
70
8
71
3
72
8
73
4
74
0
42
1e-07
43
1e-07
40
0
40
0
40
0
40
0
40
1
40
1
40
1
40
1
10
33.4758936836
20
57.0708431479
30
0
10
33.4758936836
20
57.0185030479
30
0
10
33.5901936836
20
56.9154212479
30
0
10
33.7298934836
20
56.8406555479
30
0
0
SPLINE
5
5D
100
AcDbEntity
8
nitori
6
ByLayer
62
7
370
-1
100
AcDbSpline
210
0
220
0
230
1
70
8
71
3
72
8
73
4
74
0
42
1e-07
43
1e-07
40
0
40
0
40
0
40
0
40
1
40
1
40
1
40
1
10
33.7298934836
20
56.8406555479
30
0
10
33.8695935836
20
56.7658898479
30
0
10
33.9838935836
20
56.6720138479
30
0
10
33.9838935836
20
56.6316347479
30
0
0
SPLINE
5
5E
100
AcDbEntity
8
nitori
6
ByLayer
62
7
370
-1
100
AcDbSpline
210
0
220
0
230
1
70
8
71
3
72
8
73
4
74
0
42
1e-07
43
1e-07
40
0
40
0
40
0
40
0
40
1
40
1
40
1
40
1
10
33.9838935836
20
56.6316347479
30
0
10
33.9838935836
20
56.5431731479
30
0
10
34.4881350836
20
56.3933234479
30
0
10
34.6771017836
20
56.4252596479
30
0
0
SPLINE
5
5F
100
AcDbEntity
8
nitori
6
ByLayer
62
7
370
-1
100
AcDbSpline
210
0
220
0
230
1
70
8
71
3
72
8
73
4
74
0
42
1e-07
43
1e-07
40
0
40
0
40
0
40
0
40
1
40
1
40
1
40
1
10
34.6771017836
20
56.4252596479
30
0
10
34.8221046836
20
56.4497648479
30
0
10
35.5078935836
20
55.7747387479
30
0
10
35.5078935836
20
55.6076972479
30
0
0
SPLINE
5
60
100
AcDbEntity
8
nitori
6
ByLayer
62
7
370
-1
100
AcDbSpline
210
0
220
0
230
1
70
8
71
3
72
8
73
4
74
0
42
1e-07
43
1e-07
40
0
40
0
40
0
40
0
40
1
40
1
40
1
40
1
10
35.5078935836
20
55.6076972479
30
0
10
35.5078935836
20
55.4555123479
30
0
10
34.8633609836
20
54.7102136479
30
0
10
34.7300184836
20
54.7081139479
30
0
0
SPLINE
5
61
100
AcDbEntity
8
nitori
6
ByLayer
62
7
370
-1
100
AcDbSpline
210
0
220
0
230
1
70
8
71
3
72
8
73
4
74
0
42
1e-07
43
1e-07
40
0
40
0
40
0
40
0
40
1
40
1
40
1
40
1
10
34.7300184836
20
54.7081139479
30
0
10
34.4915184836
20
54.7043522479
30
0
10
34.4718876836
20
54.3565229479
30
0
10
34.7009142836
20
54.2001137479
30
0
0
SPLINE
5
62
100
AcDbEntity
8
nitori
6
ByLayer
62
7
370
-1
100
AcDbSpline
210
0
220
0
230
1
70
8
71
3
72
8
73
4
74
0
42
1e-07
43
1e-07
40
0
40
0
40
0
40
0
40
1
40
1
40
1
40
1
10
34.7009142836
20
54.2001137479
30
0
10
35.1867231836
20
53.8683398479
30
0
10
35.5078935836
20
53.4949691479
30
0
10
35.5078935836
20
53.2608431479
30
0
0
SPLINE
5
63
100
AcDbEntity
8
nitori
6
ByLayer
62
7
370
-1
100
AcDbSpline
210
0
220
0
230
1
70
8
71
3
72
8
73
4
74
0
42
1e-07
43
1e-07
40
0
40
0
40
0
40
0
40
1
40
1
40
1
40
1
10
35.5078935836
20
53.2608431479
30
0
10
35.5078935836
20
53.1265844479
30
0
10
35.6221935836
20
52.9078973479
30
0
10
35.7618936836
20
52.7766554479
30
0
0
SPLINE
5
64
100
AcDbEntity
8
nitori
6
ByLayer
62
7
370
-1
100
AcDbSpline
210
0
220
0
230
1
70
8
71
3
72
8
73
4
74
0
42
1e-07
43
1e-07
40
0
40
0
40
0
40
0
40
1
40
1
40
1
40
1
10
35.7618936836
20
52.7766554479
30
0
10
35.9015934836
20
52.6454138479
30
0
10
36.0158934836
20
52.4558102479
30
0
10
36.0158934836
20
52.3559681479
30
0
0
SPLINE
5
65
100
AcDbEntity
8
nitori
6
ByLayer
62
7
370
-1
100
AcDbSpline
210
0
220
0
230
1
70
8
71
3
72
8
73
4
74
0
42
1e-07
43
1e-07
40
0
40
0
40
0
40
0
40
1
40
1
40
1
40
1
10
36.0158934836
20
52.3559681479
30
0
10
36.0158934836
20
52.2561257479
30
0
10
36.1017363836
20
52.0934555479
30
0
10
36.2063934836
20
51.9934889479
30
0
0
SPLINE
5
66
100
AcDbEntity
8
nitori
6
ByLayer
62
7
370
-1
100
AcDbSpline
210
0
220
0
230
1
70
8
71
3
72
8
73
4
74
0
42
1e-07
43
1e-07
40
0
40
0
40
0
40
0
40
1
40
1
40
1
40
1
10
36.2063934836
20
51.9934889479
30
0
10
36.3110517836
20
51.8935220479
30
0
10
36.4717278836
20
51.6634784479
30
0
10
36.5635809836
20
51.4828430479
30
0
0
SPLINE
5
67
100
AcDbEntity
8
nitori
6
ByLayer
62
7
370
-1
100
AcDbSpline
210
0
220
0
230
1
70
8
71
3
72
8
73
4
74
0
42
1e-07
43
1e-07
40
0
40
0
40
0
40
0
40
1
40
1
40
1
40
1
10
36.5635809836
20
51.4828430479
30
0
10
36.7473804836
20
51.1213883479
30
0
10
37.2748800836
20
50.5409264479
30
0
10
37.4208309836
20
50.5409264479
30
0
0
SPLINE
5
68
100
AcDbEntity
8
nitori
6
ByLayer
62
7
370
-1
100
AcDbSpline
210
0
220
0
230
1
70
8
71
3
72
8
73
4
74
0
42
1e-07
43
1e-07
40
0
40
0
40
0
40
0
40
1
40
1
40
1
40
1
10
37.4208309836
20
50.5409264479
30
0
10
37.4717706836
20
50.5409264479
30
0
10
37.6837956836
20
50.6112302479
30
0
10
37.8891435836
20
50.6970305479
30
0
0
SPLINE
5
69
100
AcDbEntity
8
nitori
6
ByLayer
62
7
370
-1
100
AcDbSpline
210
0
220
0
230
1
70
8
71
3
72
8
73
4
74
0
42
1e-07
43
1e-07
40
0
40
0
40
0
40
0
40
1
40
1
40
1
40
1
10
37.8891435836
20
50.6970305479
30
0
10
38.3337297836
20
50.8827893479
30
0
10
38.9315781836
20
50.8068464479
30
0
10
38.9898102836
20
50.5568012479
30
0
0
SPLINE
5
6A
100
AcDbEntity
8
nitori
6
ByLayer
62
7
370
-1
100
AcDbSpline
210
0
220
0
230
1
70
8
71
3
72
8
73
4
74
0
42
1e-07
43
1e-07
40
0
40
0
40
0
40
0
40
1
40
1
40
1
40
1
10
38.9898102836
20
50.5568012479
30
0
10
39.0192927836
20
50.4302078479
30
0
10
39.0622917836
20
50.4567854479
30
0
10
39.1644351836
20
50.6679263479
30
0
0
SPLINE
5
6B
100
AcDbEntity
8
nitori
6
ByLayer
62
7
370
-1
100
AcDbSpline
210
0
220
0
230
1
70
8
71
3
72
8
73
4
74
0
42
1e-07
43
1e-07
40
0
40
0
40
0
40
0
40
1
40
1
40
1
40
1
10
39.1644351836
20
50.6679263479
30
0
10
39.2387760836
20
50.8215962479
30
0
10
39.3568326836
20
50.9483846479
30
0
10
39.4263726836
20
50.9483846479
30
0
0
SPLINE
5
6C
100
AcDbEntity
8
nitori
6
ByLayer
62
7
370
-1
100
AcDbSpline
210
0
220
0
230
1
70
8
71
3
72
8
73
4
74
0
42
1e-07
43
1e-07
40
0
40
0
40
0
40
0
40
1
40
1
40
1
40
1
10
39.4263726836
20
50.9483846479
30
0
10
39.6001095836
20
50.9483846479
30
0
10
40.0177524836
20
50.2032368479
30
0
10
40.2359976836
20
49.5064055479
30
0
0
SPLINE
5
6D
100
AcDbEntity
8
nitori
6
ByLayer
62
7
370
-1
100
AcDbSpline
210
0
220
0
230
1
70
8
71
3
72
8
73
4
74
0
42
1e-07
43
1e-07
40
0
40
0
40
0
40
0
40
1
40
1
40
1
40
1
10
40.2359976836
20
49.5064055479
30
0
10
40.4049780836
20
48.9668747479
30
0
10
40.4069601836
20
48.9137006479
30
0
10
40.2492267836
20
48.6729680479
30
0
0
SPLINE
5
6E
100
AcDbEntity
8
nitori
6
ByLayer
62
7
370
-1
100
AcDbSpline
210
0
220
0
230
1
70
8
71
3
72
8
73
4
74
0
42
1e-07
43
1e-07
40
0
40
0
40
0
40
0
40
1
40
1
40
1
40
1
10
40.2492267836
20
48.6729680479
30
0
10
40.1564295836
20
48.5313419479
30
0
10
40.0798935836
20
48.3501611479
30
0
10
40.0798935836
20
48.2708012479
30
0
0
SPLINE
5
6F
100
AcDbEntity
8
nitori
6
ByLayer
62
7
370
-1
100
AcDbSpline
210
0
220
0
230
1
70
8
71
3
72
8
73
4
74
0
42
1e-07
43
1e-07
40
0
40
0
40
0
40
0
40
1
40
1
40
1
40
1
10
40.0798935836
20
48.2708012479
30
0
10
40.0798935836
20
48.1914425479
30
0
10
39.9591597836
20
48.0492887479
30
0
10
39.8126643836
20
47.9533013479
30
0
0
SPLINE
5
70
100
AcDbEntity
8
nitori
6
ByLayer
62
7
370
-1
100
AcDbSpline
210
0
220
0
230
1
70
8
71
3
72
8
73
4
74
0
42
1e-07
43
1e-07
40
0
40
0
40
0
40
0
40
1
40
1
40
1
40
1
10
39.8126643836
20
47.9533013479
30
0
10
39.5695710836
20
47.7940196479
30
0
10
39.4031925836
20
47.7881303479
30
0
10
37.9076643836
20
47.8924472479
30
0
0
SPLINE
5
71
100
AcDbEntity
8
nitori
6
ByLayer
62
7
370
-1
100
AcDbSpline
210
0
220
0
230
1
70
8
71
3
72
8
73
4
74
0
42
1e-07
43
1e-07
40
0
40
0
40
0
40
0
40
1
40
1
40
1
40
1
10
37.9076643836
20
47.8924472479
30
0
10
37.0064097836
20
47.9553122479
30
0
10
35.8126935836
20
48.0497756479
30
0
10
35.2538934836
20
48.1041137479
30
0
0
SPLINE
5
72
100
AcDbEntity
8
nitori
6
ByLayer
62
7
370
-1
100
AcDbSpline
210
0
220
0
230
1
70
8
71
3
72
8
73
4
74
0
42
1e-07
43
1e-07
40
0
40
0
40
0
40
0
40
1
40
1
40
1
40
1
10
35.2538934836
20
48.1041137479
30
0
10
34.0792359836
20
48.2183384479
30
0
10
33.2539086836
20
48.1020353479
30
0
10
33.0366852836
20
47.7919055479
30
0
0
SPLINE
5
73
100
AcDbEntity
8
nitori
6
ByLayer
62
7
370
-1
100
AcDbSpline
210
0
220
0
230
1
70
8
71
3
72
8
73
4
74
0
42
1e-07
43
1e-07
40
0
40
0
40
0
40
0
40
1
40
1
40
1
40
1
10
33.0366852836
20
47.7919055479
30
0
10
32.8432269836
20
47.5157060479
30
0
10
32.2581939836
20
47.3390354479
30
0
10
31.0867059836
20
47.1992387479
30
0
0
SPLINE
5
74
100
AcDbEntity
8
nitori
6
ByLayer
62
7
370
-1
100
AcDbSpline
210
0
220
0
230
1
70
8
71
3
72
8
73
4
74
0
42
1e-07
43
1e-07
40
0
40
0
40
0
40
0
40
1
40
1
40
1
40
1
10
31.0867059836
20
47.1992387479
30
0
10
30.5279061836
20
47.1325562479
30
0
10
29.7054750836
20
47.0263199479
30
0
10
29.2584351836
20
46.9637597479
30
0
0
SPLINE
5
75
100
AcDbEntity
8
nitori
6
ByLayer
62
7
370
-1
100
AcDbSpline
210
0
220
0
230
1
70
8
71
3
72
8
73
4
74
0
42
1e-07
43
1e-07
40
0
40
0
40
0
40
0
40
1
40
1
40
1
40
1
10
29.2584351836
20
46.9637597479
30
0
10
27.7986633836
20
46.7594759479
30
0
10
27.0736119836
20
46.7508602479
30
0
10
26.4697269836
20
46.9320098479
30
0
0
SPLINE
5
76
100
AcDbEntity
8
nitori
6
ByLayer
62
7
370
-1
100
AcDbSpline
210
0
220
0
230
1
70
8
71
3
72
8
73
4
74
0
42
1e-07
43
1e-07
40
0
40
0
40
0
40
0
40
1
40
1
40
1
40
1
10
26.4697269836
20
46.9320098479
30
0
10
26.1602625836
20
47.0248406479
30
0
10
25.5409335836
20
47.2085717479
30
0
10
25.0938936836
20
47.3394680479
30
0
0
SPLINE
5
77
100
AcDbEntity
8
nitori
6
ByLayer
62
7
370
-1
100
AcDbSpline
210
0
220
0
230
1
70
8
71
3
72
8
73
4
74
0
42
1e-07
43
1e-07
40
0
40
0
40
0
40
0
40
1
40
1
40
1
40
1
10
25.0938936836
20
47.3394680479
30
0
10
24.6468534836
20
47.4703634479
30
0
10
23.8914150836
20
47.6954210479
30
0
10
23.4164352836
20
47.8395305479
30
0
0
SPLINE
5
78
100
AcDbEntity
8
nitori
6
ByLayer
62
7
370
-1
100
AcDbSpline
210
0
220
0
230
1
70
8
71
3
72
8
73
4
74
0
42
1e-07
43
1e-07
40
0
40
0
40
0
40
0
40
1
40
1
40
1
40
1
10
23.4164352836
20
47.8395305479
30
0
10
22.6448433836
20
48.0736322479
30
0
10
21.9315528836
20
48.2886500479
30
0
10
20.4716226836
20
48.7232387479
30
0
0
SPLINE
5
79
100
AcDbEntity
8
nitori
6
ByLayer
62
7
370
-1
100
AcDbSpline
210
0
220
0
230
1
70
8
71
3
72
8
73
4
74
0
42
1e-07
43
1e-07
40
0
40
0
40
0
40
0
40
1
40
1
40
1
40
1
10
20.4716226836
20
48.7232387479
30
0
10
20.2201626836
20
48.7980926479
30
0
10
19.8995934836
20
48.9165050479
30
0
10
19.7598936836
20
48.9878222479
30
0
0
SPLINE
5
7A
100
AcDbEntity
8
nitori
6
ByLayer
62
7
370
-1
100
AcDbSpline
210
0
220
0
230
1
70
8
71
3
72
8
73
4
74
0
42
1e-07
43
1e-07
40
0
40
0
40
0
40
0
40
1
40
1
40
1
40
1
10
19.7598936836
20
48.9878222479
30
0
10
19.6201935836
20
49.0591394479
30
0
10
19.4264286836
20
49.1171294479
30
0
10
19.3312686836
20
49.1174681479
30
0
0
SPLINE
5
7B
100
AcDbEntity
8
nitori
6
ByLayer
62
7
370
-1
100
AcDbSpline
210
0
220
0
230
1
70
8
71
3
72
8
73
4
74
0
42
1e-07
43
1e-07
40
0
40
0
40
0
40
0
40
1
40
1
40
1
40
1
10
19.3312686836
20
49.1174681479
30
0
10
19.1650974836
20
49.1180699479
30
0
10
18.9668859836
20
49.1873570479
30
0
10
18.2702892836
20
49.4878847479
30
0
0
SPLINE
5
7C
100
AcDbEntity
8
nitori
6
ByLayer
62
7
370
-1
100
AcDbSpline
210
0
220
0
230
1
70
8
71
3
72
8
73
4
74
0
42
1e-07
43
1e-07
40
0
40
0
40
0
40
0
40
1
40
1
40
1
40
1
10
18.2702892836
20
49.4878847479
30
0
10
18.0942045836
20
49.5638519479
30
0
10
17.8813968836
20
49.6281137479
30
0
10
17.7966852836
20
49.6281137479
30
0
0
SPLINE
5
7D
100
AcDbEntity
8
nitori
6
ByLayer
62
7
370
-1
100
AcDbSpline
210
0
220
0
230
1
70
8
71
3
72
8
73
4
74
0
42
1e-07
43
1e-07
40
0
40
0
40
0
40
0
40
1
40
1
40
1
40
1
10
17.7966852836
20
49.6281137479
30
0
10
17.7119727836
20
49.6281137479
30
0
10
17.4433026836
20
49.7137763479
30
0
10
17.1987267836
20
49.8186137479
30
0
0
SPLINE
5
7E
100
AcDbEntity
8
nitori
6
ByLayer
62
7
370
-1
100
AcDbSpline
210
0
220
0
230
1
70
8
71
3
72
8
73
4
74
0
42
1e-07
43
1e-07
40
0
40
0
40
0
40
0
40
1
40
1
40
1
40
1
10
17.1987267836
20
49.8186137479
30
0
10
16.7637384836
20
50.0050415479
30
0
10
16.7493864836
20
50.0053724479
30
0
10
16.5187476836
20
49.8186137479
30
0
0
SPLINE
5
7F
100
AcDbEntity
8
nitori
6
ByLayer
62
7
370
-1
100
AcDbSpline
210
0
220
0
230
1
70
8
71
3
72
8
73
4
74
0
42
1e-07
43
1e-07
40
0
40
0
40
0
40
0
40
1
40
1
40
1
40
1
10
16.5187476836
20
49.8186137479
30
0
10
16.2846918836
20
49.6290857479
30
0
10
16.2795195836
20
49.6298537479
30
0
10
15.9128517836
20
49.9482596479
30
0
0
SPLINE
5
80
100
AcDbEntity
8
nitori
6
ByLayer
62
7
370
-1
100
AcDbSpline
210
0
220
0
230
1
70
8
71
3
72
8
73
4
74
0
42
1e-07
43
1e-07
40
0
40
0
40
0
40
0
40
1
40
1
40
1
40
1
10
15.9128517836
20
49.9482596479
30
0
10
15.7097019836
20
50.1246719479
30
0
10
15.5046585836
20
50.3321255479
30
0
10
15.4577685836
20
50.4112805479
30
0
0
SPLINE
5
81
100
AcDbEntity
8
nitori
6
ByLayer
62
7
370
-1
100
AcDbSpline
210
0
220
0
230
1
70
8
71
3
72
8
73
4
74
0
42
1e-07
43
1e-07
40
0
40
0
40
0
40
0
40
1
40
1
40
1
40
1
10
15.4577685836
20
50.4112805479
30
0
10
15.3377154836
20
50.6139428479
30
0
10
13.1556699836
20
52.7766554479
30
0
10
13.0712268836
20
52.7766554479
30
0
0
SPLINE
5
82
100
AcDbEntity
8
nitori
6
ByLayer
62
7
370
-1
100
AcDbSpline
210
0
220
0
230
1
70
8
71
3
72
8
73
4
74
0
42
1e-07
43
1e-07
40
0
40
0
40
0
40
0
40
1
40
1
40
1
40
1
10
13.0712268836
20
52.7766554479
30
0
10
13.0330125836
20
52.7766554479
30
0
10
12.8432136836
20
52.9774256479
30
0
10
12.6478935836
20
53.2238012479
30
0
0
SPLINE
5
83
100
AcDbEntity
8
nitori
6
ByLayer
62
7
370
-1
100
AcDbSpline
210
0
220
0
230
1
70
8
71
3
72
8
73
4
74
0
42
1e-07
43
1e-07
40
0
40
0
40
0
40
0
40
1
40
1
40
1
40
1
10
12.6478935836
20
53.2238012479
30
0
10
12.2199417836
20
53.7636158479
30
0
10
11.8563093836
20
53.9963846479
30
0
10
11.4413934836
20
53.9963846479
30
0
0
SPLINE
5
84
100
AcDbEntity
8
nitori
6
ByLayer
62
7
370
-1
100
AcDbSpline
210
0
220
0
230
1
70
8
71
3
72
8
73
4
74
0
42
1e-07
43
1e-07
40
0
40
0
40
0
40
0
40
1
40
1
40
1
40
1
10
11.4413934836
20
53.9963846479
30
0
10
11.1284688836
20
53.9963846479
30
0
10
10.9776105836
20
54.0469679479
30
0
10
10.0576227836
20
54.4514681479
30
0
0
SPLINE
5
85
100
AcDbEntity
8
nitori
6
ByLayer
62
7
370
-1
100
AcDbSpline
210
0
220
0
230
1
70
8
71
3
72
8
73
4
74
0
42
1e-07
43
1e-07
40
0
40
0
40
0
40
0
40
1
40
1
40
1
40
1
10
10.0576227836
20
54.4514681479
30
0
10
9.24169088356
20
54.8102210479
30
0
10
8.34624338356
20
54.9633803479
30
0
10
7.97270618356
20
54.8086556479
30
0
0
SPLINE
5
86
100
AcDbEntity
8
nitori
6
ByLayer
62
7
370
-1
100
AcDbSpline
210
0
220
0
230
1
70
8
71
3
72
8
73
4
74
0
42
1e-07
43
1e-07
40
0
40
0
40
0
40
0
40
1
40
1
40
1
40
1
10
7.97270618356
20
54.8086556479
30
0
10
7.80159308356
20
54.7377785479
30
0
10
7.67715578356
20
54.6274376479
30
0
10
7.69753928356
20
54.5652389479
30
0
0
SPLINE
5
87
100
AcDbEntity
8
nitori
6
ByLayer
62
7
370
-1
100
AcDbSpline
210
0
220
0
230
1
70
8
71
3
72
8
73
4
74
0
42
1e-07
43
1e-07
40
0
40
0
40
0
40
0
40
1
40
1
40
1
40
1
10
7.69753928356
20
54.5652389479
30
0
10
7.75787018356
20
54.3811499479
30
0
10
8.39260868356
20
53.9963846479
30
0
10
8.63416448356
20
53.9963846479
30
0
0
SPLINE
5
88
100
AcDbEntity
8
nitori
6
ByLayer
62
7
370
-1
100
AcDbSpline
210
0
220
0
230
1
70
8
71
3
72
8
73
4
74
0
42
1e-07
43
1e-07
40
0
40
0
40
0
40
0
40
1
40
1
40
1
40
1
10
8.63416448356
20
53.9963846479
30
0
10
8.98455308356
20
53.9963846479
30
0
10
9.53514968356
20
53.6882243479
30
0
10
9.40939358356
20
53.5624679479
30
0
0
SPLINE
5
89
100
AcDbEntity
8
nitori
6
ByLayer
62
7
370
-1
100
AcDbSpline
210
0
220
0
230
1
70
8
71
3
72
8
73
4
74
0
42
1e-07
43
1e-07
40
0
40
0
40
0
40
0
40
1
40
1
40
1
40
1
10
9.40939358356
20
53.5624679479
30
0
10
9.33594518356
20
53.4890198479
30
0
10
9.25153748356
20
53.4995057479
30
0
10
9.13422698356
20
53.5968638479
30
0
0
SPLINE
5
8A
100
AcDbEntity
8
nitori
6
ByLayer
62
7
370
-1
100
AcDbSpline
210
0
220
0
230
1
70
8
71
3
72
8
73
4
74
0
42
1e-07
43
1e-07
40
0
40
0
40
0
40
0
40
1
40
1
40
1
40
1
10
9.13422698356
20
53.5968638479
30
0
10
8.87209298356
20
53.8144175479
30
0
10
7.47961238356
20
53.7905252479
30
0
10
7.13133098356
20
53.5624679479
30
0
0
SPLINE
5
8B
100
AcDbEntity
8
nitori
6
ByLayer
62
7
370
-1
100
AcDbSpline
210
0
220
0
230
1
70
8
71
3
72
8
73
4
74
0
42
1e-07
43
1e-07
40
0
40
0
40
0
40
0
40
1
40
1
40
1
40
1
10
7.13133098356
20
53.5624679479
30
0
10
6.98002328356
20
53.4633893479
30
0
10
6.85616438356
20
53.3392664479
30
0
10
6.85616438356
20
53.2873013479
30
0
0
SPLINE
5
8C
100
AcDbEntity
8
nitori
6
ByLayer
62
7
370
-1
100
AcDbSpline
210
0
220
0
230
1
70
8
71
3
72
8
73
4
74
0
42
1e-07
43
1e-07
40
0
40
0
40
0
40
0
40
1
40
1
40
1
40
1
10
6.85616438356
20
53.2873013479
30
0
10
6.85616438356
20
53.1576191479
30
0
10
7.52989868356
20
52.9810619479
30
0
10
8.02826858356
20
52.9803848479
30
0
0
SPLINE
5
8D
100
AcDbEntity
8
nitori
6
ByLayer
62
7
370
-1
100
AcDbSpline
210
0
220
0
230
1
70
8
71
3
72
8
73
4
74
0
42
1e-07
43
1e-07
40
0
40
0
40
0
40
0
40
1
40
1
40
1
40
1
10
8.02826858356
20
52.9803848479
30
0
10
8.51081168356
20
52.9797176479
30
0
10
9.52464608356
20
52.6452104479
30
0
10
9.58401848356
20
52.4670929479
30
0
0
SPLINE
5
8E
100
AcDbEntity
8
nitori
6
ByLayer
62
7
370
-1
100
AcDbSpline
210
0
220
0
230
1
70
8
71
3
72
8
73
4
74
0
42
1e-07
43
1e-07
40
0
40
0
40
0
40
0
40
1
40
1
40
1
40
1
10
9.58401848356
20
52.4670929479
30
0
10
9.61368068356
20
52.3781084479
30
0
10
9.52893698356
20
52.3603571479
30
0
10
9.28239368356
20
52.4062388479
30
0
0
SPLINE
5
8F
100
AcDbEntity
8
nitori
6
ByLayer
62
7
370
-1
100
AcDbSpline
210
0
220
0
230
1
70
8
71
3
72
8
73
4
74
0
42
1e-07
43
1e-07
40
0
40
0
40
0
40
0
40
1
40
1
40
1
40
1
10
9.28239368356
20
52.4062388479
30
0
10
8.20266668356
20
52.6071716479
30
0
10
8.20273598356
20
52.6081484479
30
0
10
7.70018528356
20
52.3136348479
30
0
0
LWPOLYLINE
5
90
100
AcDbEntity
8
nitori
6
ByLayer
62
7
370
-1
100
AcDbPolyline
90
3
70
0
43
0
10
32.5524975836
20
61.5079055479
10
32.8726434836
20
61.2195098479
10
32.6662686836
20
60.8358638479
0
SPLINE
5
91
100
AcDbEntity
8
nitori
6
ByLayer
62
7
370
-1
100
AcDbSpline
210
0
220
0
230
1
70
8
71
3
72
8
73
4
74
0
42
1e-07
43
1e-07
40
0
40
0
40
0
40
0
40
1
40
1
40
1
40
1
10
7.51762268356
20
51.8982389479
30
0
10
7.68455138356
20
51.8270645479
30
0
10
7.94230718356
20
51.7684703479
30
0
10
8.08912268356
20
51.7659473479
30
0
0
SPLINE
5
92
100
AcDbEntity
8
nitori
6
ByLayer
62
7
370
-1
100
AcDbSpline
210
0
220
0
230
1
70
8
71
3
72
8
73
4
74
0
42
1e-07
43
1e-07
40
0
40
0
40
0
40
0
40
1
40
1
40
1
40
1
10
8.08912268356
20
51.7659473479
30
0
10
8.64176078356
20
51.7564610479
30
0
10
9.80362268356
20
51.4352774479
30
0
10
9.80362268356
20
51.2923430479
30
0
0
SPLINE
5
93
100
AcDbEntity
8
nitori
6
ByLayer
62
7
370
-1
100
AcDbSpline
210
0
220
0
230
1
70
8
71
3
72
8
73
4
74
0
42
1e-07
43
1e-07
40
0
40
0
40
0
40
0
40
1
40
1
40
1
40
1
10
9.80362268356
20
51.2923430479
30
0
10
9.80362268356
20
51.1978262479
30
0
10
9.68236058356
20
51.1521137479
30
0
10
9.43849778356
20
51.1521137479
30
0
0
SPLINE
5
94
100
AcDbEntity
8
nitori
6
ByLayer
62
7
370
-1
100
AcDbSpline
210
0
220
0
230
1
70
8
71
3
72
8
73
4
74
0
42
1e-07
43
1e-07
40
0
40
0
40
0
40
0
40
1
40
1
40
1
40
1
10
9.43849778356
20
51.1521137479
30
0
10
9.09506438356
20
51.1521137479
30
0
10
8.28507518356
20
50.7085832479
30
0
10
8.27962268356
20
50.5171139479
30
0
0
SPLINE
5
95
100
AcDbEntity
8
nitori
6
ByLayer
62
7
370
-1
100
AcDbSpline
210
0
220
0
230
1
70
8
71
3
72
8
73
4
74
0
42
1e-07
43
1e-07
40
0
40
0
40
0
40
0
40
1
40
1
40
1
40
1
10
8.27962268356
20
50.5171139479
30
0
10
8.27842988356
20
50.4752039479
30
0
10
8.75520728356
20
50.4403847479
30
0
10
9.33795608356
20
50.4403847479
30
0
0
SPLINE
5
96
100
AcDbEntity
8
nitori
6
ByLayer
62
7
370
-1
100
AcDbSpline
210
0
220
0
230
1
70
8
71
3
72
8
73
4
74
0
42
1e-07
43
1e-07
40
0
40
0
40
0
40
0
40
1
40
1
40
1
40
1
10
9.33795608356
20
50.4403847479
30
0
10
10.0551477836
20
50.4403847479
30
0
10
10.4403489836
20
50.3979218479
30
0
10
10.5312267836
20
50.3107388479
30
0
0
SPLINE
5
97
100
AcDbEntity
8
nitori
6
ByLayer
62
7
370
-1
100
AcDbSpline
210
0
220
0
230
1
70
8
71
3
72
8
73
4
74
0
42
1e-07
43
1e-07
40
0
40
0
40
0
40
0
40
1
40
1
40
1
40
1
10
10.5312267836
20
50.3107388479
30
0
10
10.6050681836
20
50.2398992479
30
0
10
10.8582807836
20
50.0968895479
30
0
10
11.0921436836
20
49.9932389479
30
0
0
SPLINE
5
98
100
AcDbEntity
8
nitori
6
ByLayer
62
7
370
-1
100
AcDbSpline
210
0
220
0
230
1
70
8
71
3
72
8
73
4
74
0
42
1e-07
43
1e-07
40
0
40
0
40
0
40
0
40
1
40
1
40
1
40
1
10
11.0921436836
20
49.9932389479
30
0
10
11.3888712836
20
49.8617243479
30
0
10
11.6579334836
20
49.6125359479
30
0
10
11.9864352836
20
49.1650931479
30
0
0
SPLINE
5
99
100
AcDbEntity
8
nitori
6
ByLayer
62
7
370
-1
100
AcDbSpline
210
0
220
0
230
1
70
8
71
3
72
8
73
4
74
0
42
1e-07
43
1e-07
40
0
40
0
40
0
40
0
40
1
40
1
40
1
40
1
10
11.9864352836
20
49.1650931479
30
0
10
12.4395585836
20
48.5479034479
30
0
10
12.9030702836
20
48.1233068479
30
0
10
13.4760393836
20
47.7998429479
30
0
0
SPLINE
5
9A
100
AcDbEntity
8
nitori
6
ByLayer
62
7
370
-1
100
AcDbSpline
210
0
220
0
230
1
70
8
71
3
72
8
73
4
74
0
42
1e-07
43
1e-07
40
0
40
0
40
0
40
0
40
1
40
1
40
1
40
1
10
13.4760393836
20
47.7998429479
30
0
10
13.6249113836
20
47.7157994479
30
0
10
13.9247031836
20
47.5457804479
30
0
10
14.1427893836
20
47.4241346479
30
0
0
SPLINE
5
9B
100
AcDbEntity
8
nitori
6
ByLayer
62
7
370
-1
100
AcDbSpline
210
0
220
0
230
1
70
8
71
3
72
8
73
4
74
0
42
1e-07
43
1e-07
40
0
40
0
40
0
40
0
40
1
40
1
40
1
40
1
10
14.1427893836
20
47.4241346479
30
0
10
14.3608755836
20
47.3024891479
30
0
10
14.5990020836
20
47.1310391479
30
0
10
14.6719560836
20
47.0431346479
30
0
0
SPLINE
5
9C
100
AcDbEntity
8
nitori
6
ByLayer
62
7
370
-1
100
AcDbSpline
210
0
220
0
230
1
70
8
71
3
72
8
73
4
74
0
42
1e-07
43
1e-07
40
0
40
0
40
0
40
0
40
1
40
1
40
1
40
1
10
14.6719560836
20
47.0431346479
30
0
10
14.7449097836
20
46.9552304479
30
0
10
14.8799880836
20
46.8834998479
30
0
10
14.9709351836
20
46.8817388479
30
0
0
SPLINE
5
9D
100
AcDbEntity
8
nitori
6
ByLayer
62
7
370
-1
100
AcDbSpline
210
0
220
0
230
1
70
8
71
3
72
8
73
4
74
0
42
1e-07
43
1e-07
40
0
40
0
40
0
40
0
40
1
40
1
40
1
40
1
10
14.9709351836
20
46.8817388479
30
0
10
15.0618831836
20
46.8799820479
30
0
10
15.2197401836
20
46.7613149479
30
0
10
15.3228309836
20
46.6198013479
30
0
0
SPLINE
5
9E
100
AcDbEntity
8
nitori
6
ByLayer
62
7
370
-1
100
AcDbSpline
210
0
220
0
230
1
70
8
71
3
72
8
73
4
74
0
42
1e-07
43
1e-07
40
0
40
0
40
0
40
0
40
1
40
1
40
1
40
1
10
15.3228309836
20
46.6198013479
30
0
10
15.4844868836
20
46.3978958479
30
0
10
15.4952850836
20
46.3219229479
30
0
10
15.3863310836
20
46.0588847479
30
0
0
SPLINE
5
9F
100
AcDbEntity
8
nitori
6
ByLayer
62
7
370
-1
100
AcDbSpline
210
0
220
0
230
1
70
8
71
3
72
8
73
4
74
0
42
1e-07
43
1e-07
40
0
40
0
40
0
40
0
40
1
40
1
40
1
40
1
10
15.3863310836
20
46.0588847479
30
0
10
15.2206977836
20
45.6590117479
30
0
10
15.3994110836
20
45.4659953479
30
0
10
16.0107477836
20
45.3921347479
30
0
0
SPLINE
5
A0
100
AcDbEntity
8
nitori
6
ByLayer
62
7
370
-1
100
AcDbSpline
210
0
220
0
230
1
70
8
71
3
72
8
73
4
74
0
42
1e-07
43
1e-07
40
0
40
0
40
0
40
0
40
1
40
1
40
1
40
1
10
16.0107477836
20
45.3921347479
30
0
10
16.6922448836
20
45.3097955479
30
0
10
19.1966520836
20
44.5825130479
30
0
10
20.5483518836
20
44.0745098479
30
0
0
SPLINE
5
A1
100
AcDbEntity
8
nitori
6
ByLayer
62
7
370
-1
100
AcDbSpline
210
0
220
0
230
1
70
8
71
3
72
8
73
4
74
0
42
1e-07
43
1e-07
40
0
40
0
40
0
40
0
40
1
40
1
40
1
40
1
10
20.5483518836
20
44.0745098479
30
0
10
20.8981902836
20
43.9430324479
30
0
10
21.2410902836
20
43.8362153479
30
0
10
21.3103518836
20
43.8363848479
30
0
0
SPLINE
5
A2
100
AcDbEntity
8
nitori
6
ByLayer
62
7
370
-1
100
AcDbSpline
210
0
220
0
230
1
70
8
71
3
72
8
73
4
74
0
42
1e-07
43
1e-07
40
0
40
0
40
0
40
0
40
1
40
1
40
1
40
1
10
21.3103518836
20
43.8363848479
30
0
10
21.3796143836
20
43.8365456479
30
0
10
21.7329444836
20
43.7178074479
30
0
10
22.0961643836
20
43.5718013479
30
0
0
SPLINE
5
A3
100
AcDbEntity
8
nitori
6
ByLayer
62
7
370
-1
100
AcDbSpline
210
0
220
0
230
1
70
8
71
3
72
8
73
4
74
0
42
1e-07
43
1e-07
40
0
40
0
40
0
40
0
40
1
40
1
40
1
40
1
10
22.0961643836
20
43.5718013479
30
0
10
23.0899638836
20
43.1723168479
30
0
10
23.4411078836
20
43.0448216479
30
0
10
23.7207060836
20
42.9817805479
30
0
0
SPLINE
5
A4
100
AcDbEntity
8
nitori
6
ByLayer
62
7
370
-1
100
AcDbSpline
210
0
220
0
230
1
70
8
71
3
72
8
73
4
74
0
42
1e-07
43
1e-07
40
0
40
0
40
0
40
0
40
1
40
1
40
1
40
1
10
23.7207060836
20
42.9817805479
30
0
10
24.2239308836
20
42.8683178479
30
0
10
24.2991183836
20
42.7561193479
30
0
10
24.0487893836
20
42.4896554479
30
0
0
SPLINE
5
A5
100
AcDbEntity
8
nitori
6
ByLayer
62
7
370
-1
100
AcDbSpline
210
0
220
0
230
1
70
8
71
3
72
8
73
4
74
0
42
1e-07
43
1e-07
40
0
40
0
40
0
40
0
40
1
40
1
40
1
40
1
10
24.0487893836
20
42.4896554479
30
0
10
23.9245233836
20
42.3573809479
30
0
10
23.8238934836
20
42.1813808479
30
0
10
23.8238934836
20
42.1007180479
30
0
0
SPLINE
5
A6
100
AcDbEntity
8
nitori
6
ByLayer
62
7
370
-1
100
AcDbSpline
210
0
220
0
230
1
70
8
71
3
72
8
73
4
74
0
42
1e-07
43
1e-07
40
0
40
0
40
0
40
0
40
1
40
1
40
1
40
1
10
23.8238934836
20
42.1007180479
30
0
10
23.8238934836
20
42.0200543479
30
0
10
23.7102021836
20
41.7428396479
30
0
10
23.5725393836
20
41.4842387479
30
0
0
LWPOLYLINE
5
A7
100
AcDbEntity
8
nitori
6
ByLayer
62
7
370
-1
100
AcDbPolyline
90
3
70
0
43
0
10
7.70018528356
20
52.3136348479
10
7.21335188356
20
52.0278848479
10
7.51762268356
20
51.8982389479
0
SPLINE
5
A8
100
AcDbEntity
8
nitori
6
ByLayer
62
7
370
-1
100
AcDbSpline
210
0
220
0
230
1
70
8
71
3
72
8
73
4
74
0
42
1e-07
43
1e-07
40
0
40
0
40
0
40
0
40
1
40
1
40
1
40
1
10
23.5989975836
20
40.6508012479
30
0
10
23.7506307836
20
40.4508728479
30
0
10
23.9256204836
20
40.2850625479
30
0
10
23.9879352836
20
40.2830306479
30
0
0
SPLINE
5
A9
100
AcDbEntity
8
nitori
6
ByLayer
62
7
370
-1
100
AcDbSpline
210
0
220
0
230
1
70
8
71
3
72
8
73
4
74
0
42
1e-07
43
1e-07
40
0
40
0
40
0
40
0
40
1
40
1
40
1
40
1
10
23.9879352836
20
40.2830306479
30
0
10
24.0502491836
20
40.2809942479
30
0
10
24.2127387836
20
40.1902433479
30
0
10
24.3504144836
20
40.0819472479
30
0
0
SPLINE
5
AA
100
AcDbEntity
8
nitori
6
ByLayer
62
7
370
-1
100
AcDbSpline
210
0
220
0
230
1
70
8
71
3
72
8
73
4
74
0
42
1e-07
43
1e-07
40
0
40
0
40
0
40
0
40
1
40
1
40
1
40
1
10
24.3504144836
20
40.0819472479
30
0
10
24.4880907836
20
39.9736508479
30
0
10
24.7348728836
20
39.8538272479
30
0
10
24.8981019836
20
39.8147180479
30
0
0
SPLINE
5
AB
100
AcDbEntity
8
nitori
6
ByLayer
62
7
370
-1
100
AcDbSpline
210
0
220
0
230
1
70
8
71
3
72
8
73
4
74
0
42
1e-07
43
1e-07
40
0
40
0
40
0
40
0
40
1
40
1
40
1
40
1
10
24.8981019836
20
39.8147180479
30
0
10
25.0613316836
20
39.7756088479
30
0
10
25.2531852836
20
39.6986240479
30
0
10
25.3240809836
20
39.6427388479
30
0
0
SPLINE
5
AC
100
AcDbEntity
8
nitori
6
ByLayer
62
7
370
-1
100
AcDbSpline
210
0
220
0
230
1
70
8
71
3
72
8
73
4
74
0
42
1e-07
43
1e-07
40
0
40
0
40
0
40
0
40
1
40
1
40
1
40
1
10
25.3240809836
20
39.6427388479
30
0
10
25.3968366836
20
39.5853872479
30
0
10
25.6981425836
20
39.5674667479
30
0
10
26.0172894836
20
39.6004055479
30
0
0
SPLINE
5
AD
100
AcDbEntity
8
nitori
6
ByLayer
62
7
370
-1
100
AcDbSpline
210
0
220
0
230
1
70
8
71
3
72
8
73
4
74
0
42
1e-07
43
1e-07
40
0
40
0
40
0
40
0
40
1
40
1
40
1
40
1
10
26.0172894836
20
39.6004055479
30
0
10
26.7433044836
20
39.6753362479
30
0
10
26.8708902836
20
39.6187976479
30
0
10
26.8745394836
20
39.2273429479
30
0
0
SPLINE
5
AE
100
AcDbEntity
8
nitori
6
ByLayer
62
7
370
-1
100
AcDbSpline
210
0
220
0
230
1
70
8
71
3
72
8
73
4
74
0
42
1e-07
43
1e-07
40
0
40
0
40
0
40
0
40
1
40
1
40
1
40
1
10
26.8745394836
20
39.2273429479
30
0
10
26.8780140836
20
38.8548671479
30
0
10
27.3224049836
20
38.3088080479
30
0
10
27.6947475836
20
38.2192805479
30
0
0
SPLINE
5
AF
100
AcDbEntity
8
nitori
6
ByLayer
62
7
370
-1
100
AcDbSpline
210
0
220
0
230
1
70
8
71
3
72
8
73
4
74
0
42
1e-07
43
1e-07
40
0
40
0
40
0
40
0
40
1
40
1
40
1
40
1
10
27.6947475836
20
38.2192805479
30
0
10
28.6935477836
20
37.9791251479
30
0
10
29.7326727836
20
37.6760744479
30
0
10
30.0865809836
20
37.5234263479
30
0
0
SPLINE
5
B0
100
AcDbEntity
8
nitori
6
ByLayer
62
7
370
-1
100
AcDbSpline
210
0
220
0
230
1
70
8
71
3
72
8
73
4
74
0
42
1e-07
43
1e-07
40
0
40
0
40
0
40
0
40
1
40
1
40
1
40
1
10
30.0865809836
20
37.5234263479
30
0
10
30.3179046836
20
37.4236517479
30
0
10
30.6384738836
20
37.3117469479
30
0
10
30.7983102836
20
37.2747179479
30
0
0
SPLINE
5
B1
100
AcDbEntity
8
nitori
6
ByLayer
62
7
370
-1
100
AcDbSpline
210
0
220
0
230
1
70
8
71
3
72
8
73
4
74
0
42
1e-07
43
1e-07
40
0
40
0
40
0
40
0
40
1
40
1
40
1
40
1
10
30.7983102836
20
37.2747179479
30
0
10
30.9581463836
20
37.2376889479
30
0
10
31.3402827836
20
37.0927574479
30
0
10
31.6476225836
20
36.9519263479
30
0
0
SPLINE
5
B2
100
AcDbEntity
8
nitori
6
ByLayer
62
7
370
-1
100
AcDbSpline
210
0
220
0
230
1
70
8
71
3
72
8
73
4
74
0
42
1e-07
43
1e-07
40
0
40
0
40
0
40
0
40
1
40
1
40
1
40
1
10
31.6476225836
20
36.9519263479
30
0
10
31.9549626836
20
36.8110961479
30
0
10
32.2728861836
20
36.6649064479
30
0
10
32.3567061836
20
36.6264887479
30
0
0
SPLINE
5
B3
100
AcDbEntity
8
nitori
6
ByLayer
62
7
370
-1
100
AcDbSpline
210
0
220
0
230
1
70
8
71
3
72
8
73
4
74
0
42
1e-07
43
1e-07
40
0
40
0
40
0
40
0
40
1
40
1
40
1
40
1
10
32.3567061836
20
36.6264887479
30
0
10
32.4405261836
20
36.5880713479
30
0
10
32.6467950836
20
36.4886108479
30
0
10
32.8144350836
20
36.4042388479
30
0
0
SPLINE
5
B4
100
AcDbEntity
8
nitori
6
ByLayer
62
7
370
-1
100
AcDbSpline
210
0
220
0
230
1
70
8
71
3
72
8
73
4
74
0
42
1e-07
43
1e-07
40
0
40
0
40
0
40
0
40
1
40
1
40
1
40
1
10
32.8144350836
20
36.4042388479
30
0
10
32.9820750836
20
36.3198686479
30
0
10
33.3946134836
20
36.1244603479
30
0
10
33.7298934836
20
35.9703221479
30
0
0
SPLINE
5
B5
100
AcDbEntity
8
nitori
6
ByLayer
62
7
370
-1
100
AcDbSpline
210
0
220
0
230
1
70
8
71
3
72
8
73
4
74
0
42
1e-07
43
1e-07
40
0
40
0
40
0
40
0
40
1
40
1
40
1
40
1
10
33.7298934836
20
35.9703221479
30
0
10
34.5411957836
20
35.5973426479
30
0
10
34.4168772836
20
35.6593067479
30
0
10
35.6348934836
20
35.0310512479
30
0
0
SPLINE
5
B6
100
AcDbEntity
8
nitori
6
ByLayer
62
7
370
-1
100
AcDbSpline
210
0
220
0
230
1
70
8
71
3
72
8
73
4
74
0
42
1e-07
43
1e-07
40
0
40
0
40
0
40
0
40
1
40
1
40
1
40
1
10
35.6348934836
20
35.0310512479
30
0
10
36.2020188836
20
34.7385263479
30
0
10
36.2567355836
20
34.7162582479
30
0
10
36.8017059836
20
34.5918431479
30
0
0
SPLINE
5
B7
100
AcDbEntity
8
nitori
6
ByLayer
62
7
370
-1
100
AcDbSpline
210
0
220
0
230
1
70
8
71
3
72
8
73
4
74
0
42
1e-07
43
1e-07
40
0
40
0
40
0
40
0
40
1
40
1
40
1
40
1
10
36.8017059836
20
34.5918431479
30
0
10
37.2477495836
20
34.4900135479
30
0
10
37.4418750836
20
34.4974370479
30
0
10
38.0082060836
20
34.6394681479
30
0
0
SPLINE
5
B8
100
AcDbEntity
8
nitori
6
ByLayer
62
7
370
-1
100
AcDbSpline
210
0
220
0
230
1
70
8
71
3
72
8
73
4
74
0
42
1e-07
43
1e-07
40
0
40
0
40
0
40
0
40
1
40
1
40
1
40
1
10
38.0082060836
20
34.6394681479
30
0
10
38.3794404836
20
34.7325701479
30
0
10
38.7766449836
20
34.8972044479
30
0
10
38.8919142836
20
35.0045930479
30
0
0
SPLINE
5
B9
100
AcDbEntity
8
nitori
6
ByLayer
62
7
370
-1
100
AcDbSpline
210
0
220
0
230
1
70
8
71
3
72
8
73
4
74
0
42
1e-07
43
1e-07
40
0
40
0
40
0
40
0
40
1
40
1
40
1
40
1
10
38.8919142836
20
35.0045930479
30
0
10
39.0071829836
20
35.1119825479
30
0
10
39.1406421836
20
35.2003847479
30
0
10
39.1882476836
20
35.2003847479
30
0
0
SPLINE
5
BA
100
AcDbEntity
8
nitori
6
ByLayer
62
7
370
-1
100
AcDbSpline
210
0
220
0
230
1
70
8
71
3
72
8
73
4
74
0
42
1e-07
43
1e-07
40
0
40
0
40
0
40
0
40
1
40
1
40
1
40
1
10
39.1882476836
20
35.2003847479
30
0
10
39.2358540836
20
35.2003847479
30
0
10
39.4074267836
20
35.2977038479
30
0
10
39.5692476836
20
35.4173429479
30
0
0
LWPOLYLINE
5
BB
100
AcDbEntity
8
nitori
6
ByLayer
62
7
370
-1
100
AcDbPolyline
90
3
70
0
43
0
10
23.5725393836
20
41.4842387479
10
23.3238309836
20
41.0132804479
10
23.5989975836
20
40.6508012479
0
SPLINE
5
BC
100
AcDbEntity
8
nitori
6
ByLayer
62
7
370
-1
100
AcDbSpline
210
0
220
0
230
1
70
8
71
3
72
8
73
4
74
0
42
1e-07
43
1e-07
40
0
40
0
40
0
40
0
40
1
40
1
40
1
40
1
10
40.8736434836
20
34.6315304479
30
0
10
41.4296970836
20
34.0788215479
30
0
10
42.0452016836
20
33.4880327479
30
0
10
42.2415393836
20
33.3191972479
30
0
0
LWPOLYLINE
5
BD
100
AcDbEntity
8
nitori
6
ByLayer
62
7
370
-1
100
AcDbPolyline
90
3
70
0
43
0
10
39.5692476836
20
35.4173429479
10
39.8629350836
20
35.6343014479
10
40.8736434836
20
34.6315304479
0
SPLINE
5
BE
100
AcDbEntity
8
nitori
6
ByLayer
62
7
370
-1
100
AcDbSpline
210
0
220
0
230
1
70
8
71
3
72
8
73
4
74
0
42
1e-07
43
1e-07
40
0
40
0
40
0
40
0
40
1
40
1
40
1
40
1
10
42.6569352836
20
31.1337389479
30
0
10
42.6879732836
20
30.1011542479
30
0
10
42.7334415836
20
28.9609916479
30
0
10
42.7601226836
20
28.5990305479
30
0
0
SPLINE
5
BF
100
AcDbEntity
8
nitori
6
ByLayer
62
7
370
-1
100
AcDbSpline
210
0
220
0
230
1
70
8
71
3
72
8
73
4
74
0
42
1e-07
43
1e-07
40
0
40
0
40
0
40
0
40
1
40
1
40
1
40
1
10
42.7601226836
20
28.5990305479
30
0
10
42.7868037836
20
28.2370685479
30
0
10
42.7698315836
20
27.8912570479
30
0
10
42.7204350836
20
27.8317388479
30
0
0
SPLINE
5
C0
100
AcDbEntity
8
nitori
6
ByLayer
62
7
370
-1
100
AcDbSpline
210
0
220
0
230
1
70
8
71
3
72
8
73
4
74
0
42
1e-07
43
1e-07
40
0
40
0
40
0
40
0
40
1
40
1
40
1
40
1
10
42.7204350836
20
27.8317388479
30
0
10
42.6710406836
20
27.7722215479
30
0
10
42.6317469836
20
27.2585558479
30
0
10
42.6357684836
20
26.6887388479
30
0
0
SPLINE
5
C1
100
AcDbEntity
8
nitori
6
ByLayer
62
7
370
-1
100
AcDbSpline
210
0
220
0
230
1
70
8
71
3
72
8
73
4
74
0
42
1e-07
43
1e-07
40
0
40
0
40
0
40
0
40
1
40
1
40
1
40
1
10
42.6357684836
20
26.6887388479
30
0
10
42.6416910836
20
25.8506099479
30
0
10
42.6101721836
20
25.5979883479
30
0
10
42.4611435836
20
25.3711139479
30
0
0
SPLINE
5
C2
100
AcDbEntity
8
nitori
6
ByLayer
62
7
370
-1
100
AcDbSpline
210
0
220
0
230
1
70
8
71
3
72
8
73
4
74
0
42
1e-07
43
1e-07
40
0
40
0
40
0
40
0
40
1
40
1
40
1
40
1
10
42.4611435836
20
25.3711139479
30
0
10
42.0646623836
20
24.7675253479
30
0
10
41.6038935836
20
23.8949183479
30
0
10
41.6038935836
20
23.7465722479
30
0
0
SPLINE
5
C3
100
AcDbEntity
8
nitori
6
ByLayer
62
7
370
-1
100
AcDbSpline
210
0
220
0
230
1
70
8
71
3
72
8
73
4
74
0
42
1e-07
43
1e-07
40
0
40
0
40
0
40
0
40
1
40
1
40
1
40
1
10
41.6038935836
20
23.7465722479
30
0
10
41.6038935836
20
23.6607455479
30
0
10
41.5164801836
20
23.4472034479
30
0
10
41.4107475836
20
23.2729679479
30
0
0
SPLINE
5
C4
100
AcDbEntity
8
nitori
6
ByLayer
62
7
370
-1
100
AcDbSpline
210
0
220
0
230
1
70
8
71
3
72
8
73
4
74
0
42
1e-07
43
1e-07
40
0
40
0
40
0
40
0
40
1
40
1
40
1
40
1
10
41.4107475836
20
23.2729679479
30
0
10
41.3050158836
20
23.0987324479
30
0
10
41.1870405836
20
22.7965064479
30
0
10
41.1488100836
20
22.6009262479
30
0
0
SPLINE
5
C5
100
AcDbEntity
8
nitori
6
ByLayer
62
7
370
-1
100
AcDbSpline
210
0
220
0
230
1
70
8
71
3
72
8
73
4
74
0
42
1e-07
43
1e-07
40
0
40
0
40
0
40
0
40
1
40
1
40
1
40
1
10
41.1488100836
20
22.6009262479
30
0
10
41.1105798836
20
22.4053463479
30
0
10
41.0193378836
20
22.0624463479
30
0
10
40.9450809836
20
21.8389262479
30
0
0
SPLINE
5
C6
100
AcDbEntity
8
nitori
6
ByLayer
62
7
370
-1
100
AcDbSpline
210
0
220
0
230
1
70
8
71
3
72
8
73
4
74
0
42
1e-07
43
1e-07
40
0
40
0
40
0
40
0
40
1
40
1
40
1
40
1
10
40.9450809836
20
21.8389262479
30
0
10
40.8708240836
20
21.6154064479
30
0
10
40.7532906836
20
21.1582064479
30
0
10
40.6857894836
20
20.8229264479
30
0
0
SPLINE
5
C7
100
AcDbEntity
8
nitori
6
ByLayer
62
7
370
-1
100
AcDbSpline
210
0
220
0
230
1
70
8
71
3
72
8
73
4
74
0
42
1e-07
43
1e-07
40
0
40
0
40
0
40
0
40
1
40
1
40
1
40
1
10
40.6857894836
20
20.8229264479
30
0
10
40.6182888836
20
20.4876464479
30
0
10
40.4540439836
20
19.8716753479
30
0
10
40.3206642836
20
19.4523848479
30
0
0
SPLINE
5
C8
100
AcDbEntity
8
nitori
6
ByLayer
62
7
370
-1
100
AcDbSpline
210
0
220
0
230
1
70
8
71
3
72
8
73
4
74
0
42
1e-07
43
1e-07
40
0
40
0
40
0
40
0
40
1
40
1
40
1
40
1
10
40.3206642836
20
19.4523848479
30
0
10
40.1872839836
20
19.0330943479
30
0
10
40.0798935836
20
18.6218183479
30
0
10
40.0798935836
20
18.5395721479
30
0
0
SPLINE
5
C9
100
AcDbEntity
8
nitori
6
ByLayer
62
7
370
-1
100
AcDbSpline
210
0
220
0
230
1
70
8
71
3
72
8
73
4
74
0
42
1e-07
43
1e-07
40
0
40
0
40
0
40
0
40
1
40
1
40
1
40
1
10
40.0798935836
20
18.5395721479
30
0
10
40.0798935836
20
18.3565202479
30
0
10
39.6399816836
20
17.1563687479
30
0
10
39.3073101836
20
16.4281973479
30
0
0
SPLINE
5
CA
100
AcDbEntity
8
nitori
6
ByLayer
62
7
370
-1
100
AcDbSpline
210
0
220
0
230
1
70
8
71
3
72
8
73
4
74
0
42
1e-07
43
1e-07
40
0
40
0
40
0
40
0
40
1
40
1
40
1
40
1
10
39.3073101836
20
16.4281973479
30
0
10
39.1727154836
20
16.1335886479
30
0
10
39.0638934836
20
15.8701694479
30
0
10
39.0638934836
20
15.8434679479
30
0
0
SPLINE
5
CB
100
AcDbEntity
8
nitori
6
ByLayer
62
7
370
-1
100
AcDbSpline
210
0
220
0
230
1
70
8
71
3
72
8
73
4
74
0
42
1e-07
43
1e-07
40
0
40
0
40
0
40
0
40
1
40
1
40
1
40
1
10
39.0638934836
20
15.8434679479
30
0
10
39.0638934836
20
15.8167658479
30
0
10
44.8012242836
20
15.7931972479
30
0
10
51.8141643836
20
15.7931972479
30
0
0
SPLINE
5
CC
100
AcDbEntity
8
nitori
6
ByLayer
62
7
370
-1
100
AcDbSpline
210
0
220
0
230
1
70
8
71
3
72
8
73
4
74
0
42
1e-07
43
1e-07
40
0
40
0
40
0
40
0
40
1
40
1
40
1
40
1
10
51.8141643836
20
15.7931972479
30
0
10
59.7138243836
20
15.7931972479
30
0
10
64.5644352836
20
15.8318618479
30
0
10
64.5644352836
20
15.8910929479
30
0
0
SPLINE
5
CD
100
AcDbEntity
8
nitori
6
ByLayer
62
7
370
-1
100
AcDbSpline
210
0
220
0
230
1
70
8
71
3
72
8
73
4
74
0
42
1e-07
43
1e-07
40
0
40
0
40
0
40
0
40
1
40
1
40
1
40
1
10
64.5644352836
20
15.8910929479
30
0
10
64.5644352836
20
15.9436745479
30
0
10
64.5223779836
20
16.0106669479
30
0
10
64.4718309836
20
16.0419056479
30
0
0
SPLINE
5
CE
100
AcDbEntity
8
nitori
6
ByLayer
62
7
370
-1
100
AcDbSpline
210
0
220
0
230
1
70
8
71
3
72
8
73
4
74
0
42
1e-07
43
1e-07
40
0
40
0
40
0
40
0
40
1
40
1
40
1
40
1
10
64.4718309836
20
16.0419056479
30
0
10
64.3968147836
20
16.0882691479
30
0
10
63.8577996836
20
16.9625462479
30
0
10
63.6516225836
20
17.3701139479
30
0
0
SPLINE
5
CF
100
AcDbEntity
8
nitori
6
ByLayer
62
7
370
-1
100
AcDbSpline
210
0
220
0
230
1
70
8
71
3
72
8
73
4
74
0
42
1e-07
43
1e-07
40
0
40
0
40
0
40
0
40
1
40
1
40
1
40
1
10
63.6516225836
20
17.3701139479
30
0
10
63.6233550836
20
17.4259937479
30
0
10
63.5123469836
20
17.5988153479
30
0
10
63.4055601836
20
17.7564056479
30
0
0
SPLINE
5
D0
100
AcDbEntity
8
nitori
6
ByLayer
62
7
370
-1
100
AcDbSpline
210
0
220
0
230
1
70
8
71
3
72
8
73
4
74
0
42
1e-07
43
1e-07
40
0
40
0
40
0
40
0
40
1
40
1
40
1
40
1
10
63.4055601836
20
17.7564056479
30
0
10
63.2042982836
20
18.0534230479
30
0
10
63.0810888836
20
18.2699444479
30
0
10
62.6118102836
20
19.1322389479
30
0
0
SPLINE
5
D1
100
AcDbEntity
8
nitori
6
ByLayer
62
7
370
-1
100
AcDbSpline
210
0
220
0
230
1
70
8
71
3
72
8
73
4
74
0
42
1e-07
43
1e-07
40
0
40
0
40
0
40
0
40
1
40
1
40
1
40
1
10
62.6118102836
20
19.1322389479
30
0
10
62.4592020836
20
19.4126531479
30
0
10
62.2877520836
20
19.6685462479
30
0
10
62.2308102836
20
19.7037389479
30
0
0
SPLINE
5
D2
100
AcDbEntity
8
nitori
6
ByLayer
62
7
370
-1
100
AcDbSpline
210
0
220
0
230
1
70
8
71
3
72
8
73
4
74
0
42
1e-07
43
1e-07
40
0
40
0
40
0
40
0
40
1
40
1
40
1
40
1
10
62.2308102836
20
19.7037389479
30
0
10
62.1738675836
20
19.7389313479
30
0
10
62.1276225836
20
19.8390920479
30
0
10
62.1276225836
20
19.9233431479
30
0
0
SPLINE
5
D3
100
AcDbEntity
8
nitori
6
ByLayer
62
7
370
-1
100
AcDbSpline
210
0
220
0
230
1
70
8
71
3
72
8
73
4
74
0
42
1e-07
43
1e-07
40
0
40
0
40
0
40
0
40
1
40
1
40
1
40
1
10
62.1276225836
20
19.9233431479
30
0
10
62.1276225836
20
20.0075939479
30
0
10
62.0233047836
20
20.2217117479
30
0
10
61.8974352836
20
20.3995931479
30
0
0
SPLINE
5
D4
100
AcDbEntity
8
nitori
6
ByLayer
62
7
370
-1
100
AcDbSpline
210
0
220
0
230
1
70
8
71
3
72
8
73
4
74
0
42
1e-07
43
1e-07
40
0
40
0
40
0
40
0
40
1
40
1
40
1
40
1
10
61.8974352836
20
20.3995931479
30
0
10
61.5937842836
20
20.8287176479
30
0
10
61.4755647836
20
21.0243314479
30
0
10
61.1116227836
20
21.6881138479
30
0
0
SPLINE
5
D5
100
AcDbEntity
8
nitori
6
ByLayer
62
7
370
-1
100
AcDbSpline
210
0
220
0
230
1
70
8
71
3
72
8
73
4
74
0
42
1e-07
43
1e-07
40
0
40
0
40
0
40
0
40
1
40
1
40
1
40
1
10
61.1116227836
20
21.6881138479
30
0
10
60.7830600836
20
22.2873659479
30
0
10
60.6669948836
20
22.4808833479
30
0
10
60.3496227836
20
22.9581137479
30
0
0
SPLINE
5
D6
100
AcDbEntity
8
nitori
6
ByLayer
62
7
370
-1
100
AcDbSpline
210
0
220
0
230
1
70
8
71
3
72
8
73
4
74
0
42
1e-07
43
1e-07
40
0
40
0
40
0
40
0
40
1
40
1
40
1
40
1
10
60.3496227836
20
22.9581137479
30
0
10
60.2379777836
20
23.1259934479
30
0
10
60.0763704836
20
23.3842580479
30
0
10
59.9924352836
20
23.5322597479
30
0
0
SPLINE
5
D7
100
AcDbEntity
8
nitori
6
ByLayer
62
7
370
-1
100
AcDbSpline
210
0
220
0
230
1
70
8
71
3
72
8
73
4
74
0
42
1e-07
43
1e-07
40
0
40
0
40
0
40
0
40
1
40
1
40
1
40
1
10
59.9924352836
20
23.5322597479
30
0
10
59.4484527836
20
24.4914542479
30
0
10
58.2720957836
20
25.7786195479
30
0
10
57.4365600836
20
26.3315513479
30
0
0
SPLINE
5
D8
100
AcDbEntity
8
nitori
6
ByLayer
62
7
370
-1
100
AcDbSpline
210
0
220
0
230
1
70
8
71
3
72
8
73
4
74
0
42
1e-07
43
1e-07
40
0
40
0
40
0
40
0
40
1
40
1
40
1
40
1
10
57.4365600836
20
26.3315513479
30
0
10
57.2213655836
20
26.4739598479
30
0
10
57.0476226836
20
26.6297000479
30
0
10
57.0476226836
20
26.6781554479
30
0
0
SPLINE
5
D9
100
AcDbEntity
8
nitori
6
ByLayer
62
7
370
-1
100
AcDbSpline
210
0
220
0
230
1
70
8
71
3
72
8
73
4
74
0
42
1e-07
43
1e-07
40
0
40
0
40
0
40
0
40
1
40
1
40
1
40
1
10
57.0476226836
20
26.6781554479
30
0
10
57.0476226836
20
26.7266093479
30
0
10
56.9620407836
20
26.7681137479
30
0
10
56.8571226836
20
26.7681137479
30
0
0
SPLINE
5
DA
100
AcDbEntity
8
nitori
6
ByLayer
62
7
370
-1
100
AcDbSpline
210
0
220
0
230
1
70
8
71
3
72
8
73
4
74
0
42
1e-07
43
1e-07
40
0
40
0
40
0
40
0
40
1
40
1
40
1
40
1
10
56.8571226836
20
26.7681137479
30
0
10
56.7522054836
20
26.7681137479
30
0
10
56.6134410836
20
26.8295021479
30
0
10
56.5502061836
20
26.9056973479
30
0
0
SPLINE
5
DB
100
AcDbEntity
8
nitori
6
ByLayer
62
7
370
-1
100
AcDbSpline
210
0
220
0
230
1
70
8
71
3
72
8
73
4
74
0
42
1e-07
43
1e-07
40
0
40
0
40
0
40
0
40
1
40
1
40
1
40
1
10
56.5502061836
20
26.9056973479
30
0
10
56.3995407836
20
27.0872369479
30
0
10
55.2706605836
20
27.7841138479
30
0
10
55.1267475836
20
27.7841138479
30
0
0
SPLINE
5
DC
100
AcDbEntity
8
nitori
6
ByLayer
62
7
370
-1
100
AcDbSpline
210
0
220
0
230
1
70
8
71
3
72
8
73
4
74
0
42
1e-07
43
1e-07
40
0
40
0
40
0
40
0
40
1
40
1
40
1
40
1
10
55.1267475836
20
27.7841138479
30
0
10
55.0653204836
20
27.7841138479
30
0
10
55.0156227836
20
27.8223434479
30
0
10
55.0156227836
20
27.8687804479
30
0
0
SPLINE
5
DD
100
AcDbEntity
8
nitori
6
ByLayer
62
7
370
-1
100
AcDbSpline
210
0
220
0
230
1
70
8
71
3
72
8
73
4
74
0
42
1e-07
43
1e-07
40
0
40
0
40
0
40
0
40
1
40
1
40
1
40
1
10
55.0156227836
20
27.8687804479
30
0
10
55.0156227836
20
27.9152186479
30
0
10
54.9013227836
20
28.0136189479
30
0
10
54.7616226836
20
28.0883846479
30
0
0
SPLINE
5
DE
100
AcDbEntity
8
nitori
6
ByLayer
62
7
370
-1
100
AcDbSpline
210
0
220
0
230
1
70
8
71
3
72
8
73
4
74
0
42
1e-07
43
1e-07
40
0
40
0
40
0
40
0
40
1
40
1
40
1
40
1
10
54.7616226836
20
28.0883846479
30
0
10
54.5891625836
20
28.1806823479
30
0
10
54.5076225836
20
28.3110860479
30
0
10
54.5076225836
20
28.4931971479
30
0
0
SPLINE
5
DF
100
AcDbEntity
8
nitori
6
ByLayer
62
7
370
-1
100
AcDbSpline
210
0
220
0
230
1
70
8
71
3
72
8
73
4
74
0
42
1e-07
43
1e-07
40
0
40
0
40
0
40
0
40
1
40
1
40
1
40
1
10
54.5076225836
20
28.4931971479
30
0
10
54.5076225836
20
28.6407143479
30
0
10
54.4388529836
20
28.8503939479
30
0
10
54.3568101836
20
28.9588637479
30
0
0
SPLINE
5
E0
100
AcDbEntity
8
nitori
6
ByLayer
62
7
370
-1
100
AcDbSpline
210
0
220
0
230
1
70
8
71
3
72
8
73
4
74
0
42
1e-07
43
1e-07
40
0
40
0
40
0
40
0
40
1
40
1
40
1
40
1
10
54.3568101836
20
28.9588637479
30
0
10
54.2747682836
20
29.0673344479
30
0
10
54.2077755836
20
29.2543454479
30
0
10
54.2059977836
20
29.3742596479
30
0
0
SPLINE
5
E1
100
AcDbEntity
8
nitori
6
ByLayer
62
7
370
-1
100
AcDbSpline
210
0
220
0
230
1
70
8
71
3
72
8
73
4
74
0
42
1e-07
43
1e-07
40
0
40
0
40
0
40
0
40
1
40
1
40
1
40
1
10
54.2059977836
20
29.3742596479
30
0
10
54.2030352836
20
29.5742000479
30
0
10
54.2707659836
20
29.5970000479
30
0
10
55.0394352836
20
29.6626556479
30
0
0
SPLINE
5
E2
100
AcDbEntity
8
nitori
6
ByLayer
62
7
370
-1
100
AcDbSpline
210
0
220
0
230
1
70
8
71
3
72
8
73
4
74
0
42
1e-07
43
1e-07
40
0
40
0
40
0
40
0
40
1
40
1
40
1
40
1
10
55.0394352836
20
29.6626556479
30
0
10
55.5004452836
20
29.7020330479
30
0
10
56.3049774836
20
29.8210991479
30
0
10
56.8280184836
20
29.9272388479
30
0
0
SPLINE
5
E3
100
AcDbEntity
8
nitori
6
ByLayer
62
7
370
-1
100
AcDbSpline
210
0
220
0
230
1
70
8
71
3
72
8
73
4
74
0
42
1e-07
43
1e-07
40
0
40
0
40
0
40
0
40
1
40
1
40
1
40
1
10
56.8280184836
20
29.9272388479
30
0
10
57.3510588836
20
30.0333770479
30
0
10
57.9225588836
20
30.1203761479
30
0
10
58.0980186836
20
30.1203848479
30
0
0
SPLINE
5
E4
100
AcDbEntity
8
nitori
6
ByLayer
62
7
370
-1
100
AcDbSpline
210
0
220
0
230
1
70
8
71
3
72
8
73
4
74
0
42
1e-07
43
1e-07
40
0
40
0
40
0
40
0
40
1
40
1
40
1
40
1
10
58.0980186836
20
30.1203848479
30
0
10
58.2734775836
20
30.1203914479
30
0
10
58.7833950836
20
30.2328845479
30
0
10
59.2304352836
20
30.3717389479
30
0
0
SPLINE
5
E5
100
AcDbEntity
8
nitori
6
ByLayer
62
7
370
-1
100
AcDbSpline
210
0
220
0
230
1
70
8
71
3
72
8
73
4
74
0
42
1e-07
43
1e-07
40
0
40
0
40
0
40
0
40
1
40
1
40
1
40
1
10
59.2304352836
20
30.3717389479
30
0
10
59.6774751836
20
30.5105921479
30
0
10
60.1022283836
20
30.6248921479
30
0
10
60.1723518836
20
30.6257387479
30
0
0
SPLINE
5
E6
100
AcDbEntity
8
nitori
6
ByLayer
62
7
370
-1
100
AcDbSpline
210
0
220
0
230
1
70
8
71
3
72
8
73
4
74
0
42
1e-07
43
1e-07
40
0
40
0
40
0
40
0
40
1
40
1
40
1
40
1
10
60.1723518836
20
30.6257387479
30
0
10
60.2424762836
20
30.6265778479
30
0
10
60.5362881836
20
30.7426847479
30
0
10
60.8258727836
20
30.8823848479
30
0
0
SPLINE
5
E7
100
AcDbEntity
8
nitori
6
ByLayer
62
7
370
-1
100
AcDbSpline
210
0
220
0
230
1
70
8
71
3
72
8
73
4
74
0
42
1e-07
43
1e-07
40
0
40
0
40
0
40
0
40
1
40
1
40
1
40
1
10
60.8258727836
20
30.8823848479
30
0
10
61.1154564836
20
31.0220846479
30
0
10
61.3905273836
20
31.1363846479
30
0
10
61.4370600836
20
31.1363846479
30
0
0
SPLINE
5
E8
100
AcDbEntity
8
nitori
6
ByLayer
62
7
370
-1
100
AcDbSpline
210
0
220
0
230
1
70
8
71
3
72
8
73
4
74
0
42
1e-07
43
1e-07
40
0
40
0
40
0
40
0
40
1
40
1
40
1
40
1
10
61.4370600836
20
31.1363846479
30
0
10
61.4835912836
20
31.1363846479
30
0
10
61.7025942836
20
31.2506846479
30
0
10
61.9238934836
20
31.3903847479
30
0
0
SPLINE
5
E9
100
AcDbEntity
8
nitori
6
ByLayer
62
7
370
-1
100
AcDbSpline
210
0
220
0
230
1
70
8
71
3
72
8
73
4
74
0
42
1e-07
43
1e-07
40
0
40
0
40
0
40
0
40
1
40
1
40
1
40
1
10
61.9238934836
20
31.3903847479
30
0
10
62.1451926836
20
31.5300848479
30
0
10
62.3913078836
20
31.6443848479
30
0
10
62.4715809836
20
31.6443848479
30
0
0
SPLINE
5
EA
100
AcDbEntity
8
nitori
6
ByLayer
62
7
370
-1
100
AcDbSpline
210
0
220
0
230
1
70
8
71
3
72
8
73
4
74
0
42
1e-07
43
1e-07
40
0
40
0
40
0
40
0
40
1
40
1
40
1
40
1
10
62.4715809836
20
31.6443848479
30
0
10
62.5518552836
20
31.6443848479
30
0
10
62.6328711836
20
31.6794698479
30
0
10
62.6514975836
20
31.7237597479
30
0
0
SPLINE
5
EB
100
AcDbEntity
8
nitori
6
ByLayer
62
7
370
-1
100
AcDbSpline
210
0
220
0
230
1
70
8
71
3
72
8
73
4
74
0
42
1e-07
43
1e-07
40
0
40
0
40
0
40
0
40
1
40
1
40
1
40
1
10
62.6514975836
20
31.7237597479
30
0
10
62.6701242836
20
31.7680496479
30
0
10
62.8671861836
20
31.9132766479
30
0
10
63.0907059836
20
32.0465513479
30
0
0
SPLINE
5
EC
100
AcDbEntity
8
nitori
6
ByLayer
62
7
370
-1
100
AcDbSpline
210
0
220
0
230
1
70
8
71
3
72
8
73
4
74
0
42
1e-07
43
1e-07
40
0
40
0
40
0
40
0
40
1
40
1
40
1
40
1
10
63.0907059836
20
32.0465513479
30
0
10
63.5414991836
20
32.3153375479
30
0
10
63.7412583836
20
32.4750359479
30
0
10
64.1384559836
20
32.8879262479
30
0
0
SPLINE
5
ED
100
AcDbEntity
8
nitori
6
ByLayer
62
7
370
-1
100
AcDbSpline
210
0
220
0
230
1
70
8
71
3
72
8
73
4
74
0
42
1e-07
43
1e-07
40
0
40
0
40
0
40
0
40
1
40
1
40
1
40
1
10
64.1384559836
20
32.8879262479
30
0
10
64.2862848836
20
33.0415964479
30
0
10
64.4450322836
20
33.1683848479
30
0
10
64.4903517836
20
33.1683848479
30
0
0
SPLINE
5
EE
100
AcDbEntity
8
nitori
6
ByLayer
62
7
370
-1
100
AcDbSpline
210
0
220
0
230
1
70
8
71
3
72
8
73
4
74
0
42
1e-07
43
1e-07
40
0
40
0
40
0
40
0
40
1
40
1
40
1
40
1
10
64.4903517836
20
33.1683848479
30
0
10
64.5926376836
20
33.1683848479
30
0
10
65.1756225836
20
33.7556267479
30
0
10
65.1756225836
20
33.8589473479
30
0
0
SPLINE
5
EF
100
AcDbEntity
8
nitori
6
ByLayer
62
7
370
-1
100
AcDbSpline
210
0
220
0
230
1
70
8
71
3
72
8
73
4
74
0
42
1e-07
43
1e-07
40
0
40
0
40
0
40
0
40
1
40
1
40
1
40
1
10
65.1756225836
20
33.8589473479
30
0
10
65.1756225836
20
33.9004568479
30
0
10
65.2997652836
20
34.0545746479
30
0
10
65.4534351836
20
34.2002597479
30
0
0
SPLINE
5
F0
100
AcDbEntity
8
nitori
6
ByLayer
62
7
370
-1
100
AcDbSpline
210
0
220
0
230
1
70
8
71
3
72
8
73
4
74
0
42
1e-07
43
1e-07
40
0
40
0
40
0
40
0
40
1
40
1
40
1
40
1
10
65.4534351836
20
34.2002597479
30
0
10
65.8771164836
20
34.6019252479
30
0
10
65.9893320836
20
34.7601308479
30
0
10
66.3212685836
20
35.4385097479
30
0
0
SPLINE
5
F1
100
AcDbEntity
8
nitori
6
ByLayer
62
7
370
-1
100
AcDbSpline
210
0
220
0
230
1
70
8
71
3
72
8
73
4
74
0
42
1e-07
43
1e-07
40
0
40
0
40
0
40
0
40
1
40
1
40
1
40
1
10
66.3212685836
20
35.4385097479
30
0
10
66.9081303836
20
36.6378833479
30
0
10
67.1080140836
20
38.0809784479
30
0
10
66.8504352836
20
39.2458637479
30
0
0
SPLINE
5
F2
100
AcDbEntity
8
nitori
6
ByLayer
62
7
370
-1
100
AcDbSpline
210
0
220
0
230
1
70
8
71
3
72
8
73
4
74
0
42
1e-07
43
1e-07
40
0
40
0
40
0
40
0
40
1
40
1
40
1
40
1
10
66.8504352836
20
39.2458637479
30
0
10
66.6826071836
20
40.0048538479
30
0
10
66.0692022836
20
41.4045734479
30
0
10
65.8106226836
20
41.6191763479
30
0
0
SPLINE
5
F3
100
AcDbEntity
8
nitori
6
ByLayer
62
7
370
-1
100
AcDbSpline
210
0
220
0
230
1
70
8
71
3
72
8
73
4
74
0
42
1e-07
43
1e-07
40
0
40
0
40
0
40
0
40
1
40
1
40
1
40
1
10
65.8106226836
20
41.6191763479
30
0
10
65.7397329836
20
41.6780096479
30
0
10
65.6836227836
20
41.7733595479
30
0
10
65.6836227836
20
41.8281971479
30
0
0
SPLINE
5
F4
100
AcDbEntity
8
nitori
6
ByLayer
62
7
370
-1
100
AcDbSpline
210
0
220
0
230
1
70
8
71
3
72
8
73
4
74
0
42
1e-07
43
1e-07
40
0
40
0
40
0
40
0
40
1
40
1
40
1
40
1
10
65.6836227836
20
41.8281971479
30
0
10
65.6836227836
20
41.9353064479
30
0
10
64.6998729836
20
42.9881738479
30
0
10
63.9611850836
20
43.6723430479
30
0
0
SPLINE
5
F5
100
AcDbEntity
8
nitori
6
ByLayer
62
7
370
-1
100
AcDbSpline
210
0
220
0
230
1
70
8
71
3
72
8
73
4
74
0
42
1e-07
43
1e-07
40
0
40
0
40
0
40
0
40
1
40
1
40
1
40
1
10
63.9611850836
20
43.6723430479
30
0
10
63.7126488836
20
43.9025372479
30
0
10
63.4018161836
20
44.1921962479
30
0
10
63.2706225836
20
44.3179262479
30
0
0
SPLINE
5
F6
100
AcDbEntity
8
nitori
6
ByLayer
62
7
370
-1
100
AcDbSpline
210
0
220
0
230
1
70
8
71
3
72
8
73
4
74
0
42
1e-07
43
1e-07
40
0
40
0
40
0
40
0
40
1
40
1
40
1
40
1
10
63.2706225836
20
44.3179262479
30
0
10
63.1394298836
20
44.4436562479
30
0
10
63.0055932836
20
44.5481138479
30
0
10
62.9742894836
20
44.5481138479
30
0
0
SPLINE
5
F7
100
AcDbEntity
8
nitori
6
ByLayer
62
7
370
-1
100
AcDbSpline
210
0
220
0
230
1
70
8
71
3
72
8
73
4
74
0
42
1e-07
43
1e-07
40
0
40
0
40
0
40
0
40
1
40
1
40
1
40
1
10
62.9742894836
20
44.5481138479
30
0
10
62.9429862836
20
44.5481138479
30
0
10
62.7742872836
20
44.6615723479
30
0
10
62.5985811836
20
44.8021139479
30
0
0
SPLINE
5
F8
100
AcDbEntity
8
nitori
6
ByLayer
62
7
370
-1
100
AcDbSpline
210
0
220
0
230
1
70
8
71
3
72
8
73
4
74
0
42
1e-07
43
1e-07
40
0
40
0
40
0
40
0
40
1
40
1
40
1
40
1
10
62.5985811836
20
44.8021139479
30
0
10
62.4228738836
20
44.9426570479
30
0
10
62.2338243836
20
45.0917762479
30
0
10
62.1778935836
20
45.1328429479
30
0
0
SPLINE
5
F9
100
AcDbEntity
8
nitori
6
ByLayer
62
7
370
-1
100
AcDbSpline
210
0
220
0
230
1
70
8
71
3
72
8
73
4
74
0
42
1e-07
43
1e-07
40
0
40
0
40
0
40
0
40
1
40
1
40
1
40
1
10
62.1778935836
20
45.1328429479
30
0
10
61.4878635836
20
45.6395096479
30
0
10
61.2760902836
20
45.8360546479
30
0
10
61.0190184836
20
46.2096971479
30
0
0
SPLINE
5
FA
100
AcDbEntity
8
nitori
6
ByLayer
62
7
370
-1
100
AcDbSpline
210
0
220
0
230
1
70
8
71
3
72
8
73
4
74
0
42
1e-07
43
1e-07
40
0
40
0
40
0
40
0
40
1
40
1
40
1
40
1
10
61.0190184836
20
46.2096971479
30
0
10
60.7423227836
20
46.6118597479
30
0
10
59.3760771836
20
47.8346825479
30
0
10
58.7727060836
20
48.2205305479
30
0
0
SPLINE
5
FB
100
AcDbEntity
8
nitori
6
ByLayer
62
7
370
-1
100
AcDbSpline
210
0
220
0
230
1
70
8
71
3
72
8
73
4
74
0
42
1e-07
43
1e-07
40
0
40
0
40
0
40
0
40
1
40
1
40
1
40
1
10
58.7727060836
20
48.2205305479
30
0
10
58.6330059836
20
48.3098675479
30
0
10
58.1650092836
20
48.7272341479
30
0
10
57.7302477836
20
49.1492180479
30
0
0
SPLINE
5
FC
100
AcDbEntity
8
nitori
6
ByLayer
62
7
370
-1
100
AcDbSpline
210
0
220
0
230
1
70
8
71
3
72
8
73
4
74
0
42
1e-07
43
1e-07
40
0
40
0
40
0
40
0
40
1
40
1
40
1
40
1
10
57.7302477836
20
49.1492180479
30
0
10
56.9753502836
20
49.8819308479
30
0
10
56.2707459836
20
50.3371973479
30
0
10
55.8940392836
20
50.3371973479
30
0
0
SPLINE
5
FD
100
AcDbEntity
8
nitori
6
ByLayer
62
7
370
-1
100
AcDbSpline
210
0
220
0
230
1
70
8
71
3
72
8
73
4
74
0
42
1e-07
43
1e-07
40
0
40
0
40
0
40
0
40
1
40
1
40
1
40
1
10
55.8940392836
20
50.3371973479
30
0
10
55.6802043836
20
50.3371973479
30
0
10
55.2527580836
20
50.6042510479
30
0
10
54.9124350836
20
50.9483846479
30
0
0
SPLINE
5
FE
100
AcDbEntity
8
nitori
6
ByLayer
62
7
370
-1
100
AcDbSpline
210
0
220
0
230
1
70
8
71
3
72
8
73
4
74
0
42
1e-07
43
1e-07
40
0
40
0
40
0
40
0
40
1
40
1
40
1
40
1
10
54.9124350836
20
50.9483846479
30
0
10
54.7727352836
20
51.0896492479
30
0
10
54.4193703836
20
51.4053443479
30
0
10
54.1266225836
20
51.6521762479
30
0
0
SPLINE
5
FF
100
AcDbEntity
8
nitori
6
ByLayer
62
7
370
-1
100
AcDbSpline
210
0
220
0
230
1
70
8
71
3
72
8
73
4
74
0
42
1e-07
43
1e-07
40
0
40
0
40
0
40
0
40
1
40
1
40
1
40
1
10
54.1266225836
20
51.6521762479
30
0
10
53.8338741836
20
51.8990084479
30
0
10
53.5691214836
20
52.1847119479
30
0
10
53.5366017836
20
52.2871763479
30
0
0
SPLINE
5
100
100
AcDbEntity
8
nitori
6
ByLayer
62
7
370
-1
100
AcDbSpline
210
0
220
0
230
1
70
8
71
3
72
8
73
4
74
0
42
1e-07
43
1e-07
40
0
40
0
40
0
40
0
40
1
40
1
40
1
40
1
10
53.5366017836
20
52.2871763479
30
0
10
53.5040805836
20
52.3896398479
30
0
10
53.2859454836
20
52.5725657479
30
0
10
53.0524143836
20
52.6919888479
30
0
0
SPLINE
5
101
100
AcDbEntity
8
nitori
6
ByLayer
62
7
370
-1
100
AcDbSpline
210
0
220
0
230
1
70
8
71
3
72
8
73
4
74
0
42
1e-07
43
1e-07
40
0
40
0
40
0
40
0
40
1
40
1
40
1
40
1
10
53.0524143836
20
52.6919888479
30
0
10
52.8188826836
20
52.8114128479
30
0
10
52.4128380836
20
53.0174474479
30
0
10
52.1501850836
20
53.1497180479
30
0
0
SPLINE
5
102
100
AcDbEntity
8
nitori
6
ByLayer
62
7
370
-1
100
AcDbSpline
210
0
220
0
230
1
70
8
71
3
72
8
73
4
74
0
42
1e-07
43
1e-07
40
0
40
0
40
0
40
0
40
1
40
1
40
1
40
1
10
52.1501850836
20
53.1497180479
30
0
10
51.8875329836
20
53.2819892479
30
0
10
51.6446937836
20
53.4355985479
30
0
10
51.6104352836
20
53.4910304479
30
0
0
SPLINE
5
103
100
AcDbEntity
8
nitori
6
ByLayer
62
7
370
-1
100
AcDbSpline
210
0
220
0
230
1
70
8
71
3
72
8
73
4
74
0
42
1e-07
43
1e-07
40
0
40
0
40
0
40
0
40
1
40
1
40
1
40
1
10
51.6104352836
20
53.4910304479
30
0
10
51.5178012836
20
53.6409149479
30
0
10
51.8218131836
20
53.7210680479
30
0
10
52.0390602836
20
53.6048012479
30
0
0
SPLINE
5
104
100
AcDbEntity
8
nitori
6
ByLayer
62
7
370
-1
100
AcDbSpline
210
0
220
0
230
1
70
8
71
3
72
8
73
4
74
0
42
1e-07
43
1e-07
40
0
40
0
40
0
40
0
40
1
40
1
40
1
40
1
10
52.0390602836
20
53.6048012479
30
0
10
52.1537040836
20
53.5434458479
30
0
10
52.4450970836
20
53.5373720479
30
0
10
52.7825394836
20
53.5862804479
30
0
0
SPLINE
5
105
100
AcDbEntity
8
nitori
6
ByLayer
62
7
370
-1
100
AcDbSpline
210
0
220
0
230
1
70
8
71
3
72
8
73
4
74
0
42
1e-07
43
1e-07
40
0
40
0
40
0
40
0
40
1
40
1
40
1
40
1
10
52.7825394836
20
53.5862804479
30
0
10
53.0881926836
20
53.6305814479
30
0
10
53.2461951836
20
53.6700242479
30
0
10
53.1344352836
20
53.6762387479
30
0
0
SPLINE
5
106
100
AcDbEntity
8
nitori
6
ByLayer
62
7
370
-1
100
AcDbSpline
210
0
220
0
230
1
70
8
71
3
72
8
73
4
74
0
42
1e-07
43
1e-07
40
0
40
0
40
0
40
0
40
1
40
1
40
1
40
1
10
53.1344352836
20
53.6762387479
30
0
10
53.0226750836
20
53.6824550479
30
0
10
52.6030662836
20
53.8155011479
30
0
10
52.2004560836
20
53.9699264479
30
0
0
SPLINE
5
107
100
AcDbEntity
8
nitori
6
ByLayer
62
7
370
-1
100
AcDbSpline
210
0
220
0
230
1
70
8
71
3
72
8
73
4
74
0
42
1e-07
43
1e-07
40
0
40
0
40
0
40
0
40
1
40
1
40
1
40
1
10
52.2004560836
20
53.9699264479
30
0
10
51.6811089836
20
54.1691258479
30
0
10
51.4597275836
20
54.3077606479
30
0
10
51.4384560836
20
54.4461764479
30
0
0
SPLINE
5
108
100
AcDbEntity
8
nitori
6
ByLayer
62
7
370
-1
100
AcDbSpline
210
0
220
0
230
1
70
8
71
3
72
8
73
4
74
0
42
1e-07
43
1e-07
40
0
40
0
40
0
40
0
40
1
40
1
40
1
40
1
10
51.4384560836
20
54.4461764479
30
0
10
51.4175544836
20
54.5821883479
30
0
10
51.2737326836
20
54.6739685479
30
0
10
50.9674977836
20
54.7504472479
30
0
0
SPLINE
5
109
100
AcDbEntity
8
nitori
6
ByLayer
62
7
370
-1
100
AcDbSpline
210
0
220
0
230
1
70
8
71
3
72
8
73
4
74
0
42
1e-07
43
1e-07
40
0
40
0
40
0
40
0
40
1
40
1
40
1
40
1
10
50.9674977836
20
54.7504472479
30
0
10
50.4903138836
20
54.8696189479
30
0
10
50.4114273836
20
55.0276787479
30
0
10
50.7796434836
20
55.1261555479
30
0
0
SPLINE
5
10A
100
AcDbEntity
8
nitori
6
ByLayer
62
7
370
-1
100
AcDbSpline
210
0
220
0
230
1
70
8
71
3
72
8
73
4
74
0
42
1e-07
43
1e-07
40
0
40
0
40
0
40
0
40
1
40
1
40
1
40
1
10
50.7796434836
20
55.1261555479
30
0
10
51.3426387836
20
55.2767243479
30
0
10
51.7402062836
20
55.5335801479
30
0
10
51.6924561836
20
55.7161763479
30
0
0
SPLINE
5
10B
100
AcDbEntity
8
nitori
6
ByLayer
62
7
370
-1
100
AcDbSpline
210
0
220
0
230
1
70
8
71
3
72
8
73
4
74
0
42
1e-07
43
1e-07
40
0
40
0
40
0
40
0
40
1
40
1
40
1
40
1
10
51.6924561836
20
55.7161763479
30
0
10
51.6548571836
20
55.8599555479
30
0
10
51.7505229836
20
55.9314440479
30
0
10
52.1369559836
20
56.0548430479
30
0
0
SPLINE
5
10C
100
AcDbEntity
8
nitori
6
ByLayer
62
7
370
-1
100
AcDbSpline
210
0
220
0
230
1
70
8
71
3
72
8
73
4
74
0
42
1e-07
43
1e-07
40
0
40
0
40
0
40
0
40
1
40
1
40
1
40
1
10
52.1369559836
20
56.0548430479
30
0
10
52.4068404836
20
56.1410252479
30
0
10
52.7714784836
20
56.2426802479
30
0
10
52.9492269836
20
56.2797389479
30
0
0
SPLINE
5
10D
100
AcDbEntity
8
nitori
6
ByLayer
62
7
370
-1
100
AcDbSpline
210
0
220
0
230
1
70
8
71
3
72
8
73
4
74
0
42
1e-07
43
1e-07
40
0
40
0
40
0
40
0
40
1
40
1
40
1
40
1
10
52.9492269836
20
56.2797389479
30
0
10
53.4213570836
20
56.3781731479
30
0
10
53.5507362836
20
56.5777232479
30
0
10
53.2349769836
20
56.7215930479
30
0
0
SPLINE
5
10E
100
AcDbEntity
8
nitori
6
ByLayer
62
7
370
-1
100
AcDbSpline
210
0
220
0
230
1
70
8
71
3
72
8
73
4
74
0
42
1e-07
43
1e-07
40
0
40
0
40
0
40
0
40
1
40
1
40
1
40
1
10
53.2349769836
20
56.7215930479
30
0
10
53.0957136836
20
56.7850457479
30
0
10
52.9836225836
20
56.9064500479
30
0
10
52.9836225836
20
56.9914679479
30
0
0
SPLINE
5
10F
100
AcDbEntity
8
nitori
6
ByLayer
62
7
370
-1
100
AcDbSpline
210
0
220
0
230
1
70
8
71
3
72
8
73
4
74
0
42
1e-07
43
1e-07
40
0
40
0
40
0
40
0
40
1
40
1
40
1
40
1
10
52.9836225836
20
56.9914679479
30
0
10
52.9836225836
20
57.0764861479
30
0
10
52.9139844836
20
57.1449263479
30
0
10
52.8301644836
20
57.1449263479
30
0
0
SPLINE
5
110
100
AcDbEntity
8
nitori
6
ByLayer
62
7
370
-1
100
AcDbSpline
210
0
220
0
230
1
70
8
71
3
72
8
73
4
74
0
42
1e-07
43
1e-07
40
0
40
0
40
0
40
0
40
1
40
1
40
1
40
1
10
52.8301644836
20
57.1449263479
30
0
10
52.5119193836
20
57.1449263479
30
0
10
52.6969362836
20
57.3454796479
30
0
10
53.1106227836
20
57.4491971479
30
0
0
SPLINE
5
111
100
AcDbEntity
8
nitori
6
ByLayer
62
7
370
-1
100
AcDbSpline
210
0
220
0
230
1
70
8
71
3
72
8
73
4
74
0
42
1e-07
43
1e-07
40
0
40
0
40
0
40
0
40
1
40
1
40
1
40
1
10
53.1106227836
20
57.4491971479
30
0
10
53.3481126836
20
57.5087399479
30
0
10
53.6785242836
20
57.6218138479
30
0
10
53.8461642836
20
57.7005512479
30
0
0
SPLINE
5
112
100
AcDbEntity
8
nitori
6
ByLayer
62
7
370
-1
100
AcDbSpline
210
0
220
0
230
1
70
8
71
3
72
8
73
4
74
0
42
1e-07
43
1e-07
40
0
40
0
40
0
40
0
40
1
40
1
40
1
40
1
10
53.8461642836
20
57.7005512479
30
0
10
54.1111506836
20
57.8250113479
30
0
10
54.1217112836
20
57.8457167479
30
0
10
53.9281851836
20
57.8513639479
30
0
0
SPLINE
5
113
100
AcDbEntity
8
nitori
6
ByLayer
62
7
370
-1
100
AcDbSpline
210
0
220
0
230
1
70
8
71
3
72
8
73
4
74
0
42
1e-07
43
1e-07
40
0
40
0
40
0
40
0
40
1
40
1
40
1
40
1
10
53.9281851836
20
57.8513639479
30
0
10
53.3182830836
20
57.8691659479
30
0
10
53.7411903836
20
58.4149526479
30
0
10
54.4467684836
20
58.5207596479
30
0
0
SPLINE
5
114
100
AcDbEntity
8
nitori
6
ByLayer
62
7
370
-1
100
AcDbSpline
210
0
220
0
230
1
70
8
71
3
72
8
73
4
74
0
42
1e-07
43
1e-07
40
0
40
0
40
0
40
0
40
1
40
1
40
1
40
1
10
54.4467684836
20
58.5207596479
30
0
10
54.9391239836
20
58.5945932479
30
0
10
56.6948208836
20
59.1736667479
30
0
10
56.4364350836
20
59.1769262479
30
0
0
SPLINE
5
115
100
AcDbEntity
8
nitori
6
ByLayer
62
7
370
-1
100
AcDbSpline
210
0
220
0
230
1
70
8
71
3
72
8
73
4
74
0
42
1e-07
43
1e-07
40
0
40
0
40
0
40
0
40
1
40
1
40
1
40
1
10
56.4364350836
20
59.1769262479
30
0
10
56.3526150836
20
59.1779855479
30
0
10
56.1141726836
20
59.2272107479
30
0
10
55.9046226836
20
59.2854056479
30
0
0
SPLINE
5
116
100
AcDbEntity
8
nitori
6
ByLayer
62
7
370
-1
100
AcDbSpline
210
0
220
0
230
1
70
8
71
3
72
8
73
4
74
0
42
1e-07
43
1e-07
40
0
40
0
40
0
40
0
40
1
40
1
40
1
40
1
10
55.9046226836
20
59.2854056479
30
0
10
55.6249890836
20
59.3630636479
30
0
10
55.5236226836
20
59.4443096479
30
0
10
55.5236226836
20
59.5949681479
30
0
0
SPLINE
5
117
100
AcDbEntity
8
nitori
6
ByLayer
62
7
370
-1
100
AcDbSpline
210
0
220
0
230
1
70
8
71
3
72
8
73
4
74
0
42
1e-07
43
1e-07
40
0
40
0
40
0
40
0
40
1
40
1
40
1
40
1
10
55.5236226836
20
59.5949681479
30
0
10
55.5236226836
20
59.7547637479
30
0
10
55.4772084836
20
59.7859667479
30
0
10
55.3172475836
20
59.7351971479
30
0
0
SPLINE
5
118
100
AcDbEntity
8
nitori
6
ByLayer
62
7
370
-1
100
AcDbSpline
210
0
220
0
230
1
70
8
71
3
72
8
73
4
74
0
42
1e-07
43
1e-07
40
0
40
0
40
0
40
0
40
1
40
1
40
1
40
1
10
55.3172475836
20
59.7351971479
30
0
10
55.0260069836
20
59.6427614479
30
0
10
54.5076225836
20
59.7768896479
30
0
10
54.5076225836
20
59.9442179479
30
0
0
SPLINE
5
119
100
AcDbEntity
8
nitori
6
ByLayer
62
7
370
-1
100
AcDbSpline
210
0
220
0
230
1
70
8
71
3
72
8
73
4
74
0
42
1e-07
43
1e-07
40
0
40
0
40
0
40
0
40
1
40
1
40
1
40
1
10
54.5076225836
20
59.9442179479
30
0
10
54.5076225836
20
60.1163504479
30
0
10
54.8169507836
20
60.2927474479
30
0
10
55.1346852836
20
60.3014054479
30
0
0
SPLINE
5
11A
100
AcDbEntity
8
nitori
6
ByLayer
62
7
370
-1
100
AcDbSpline
210
0
220
0
230
1
70
8
71
3
72
8
73
4
74
0
42
1e-07
43
1e-07
40
0
40
0
40
0
40
0
40
1
40
1
40
1
40
1
10
55.1346852836
20
60.3014054479
30
0
10
55.3654017836
20
60.3076919479
30
0
10
53.9678727836
20
60.8040293479
30
0
10
53.7191643836
20
60.8041139479
30
0
0
SPLINE
5
11B
100
AcDbEntity
8
nitori
6
ByLayer
62
7
370
-1
100
AcDbSpline
210
0
220
0
230
1
70
8
71
3
72
8
73
4
74
0
42
1e-07
43
1e-07
40
0
40
0
40
0
40
0
40
1
40
1
40
1
40
1
10
53.7191643836
20
60.8041139479
30
0
10
53.5975881836
20
60.8041571479
30
0
10
53.2646475836
20
60.9495482479
30
0
10
51.3564351836
20
61.8439262479
30
0
0
SPLINE
5
11C
100
AcDbEntity
8
nitori
6
ByLayer
62
7
370
-1
100
AcDbSpline
210
0
220
0
230
1
70
8
71
3
72
8
73
4
74
0
42
1e-07
43
1e-07
40
0
40
0
40
0
40
0
40
1
40
1
40
1
40
1
10
51.3564351836
20
61.8439262479
30
0
10
50.8814550836
20
62.0665496479
30
0
10
50.3920116836
20
62.2863596479
30
0
10
50.2689975836
20
62.3334056479
30
0
0
SPLINE
5
11D
100
AcDbEntity
8
nitori
6
ByLayer
62
7
370
-1
100
AcDbSpline
210
0
220
0
230
1
70
8
71
3
72
8
73
4
74
0
42
1e-07
43
1e-07
40
0
40
0
40
0
40
0
40
1
40
1
40
1
40
1
10
50.2689975836
20
62.3334056479
30
0
10
49.4928819836
20
62.6302241479
30
0
10
48.9233775836
20
63.2659994479
30
0
10
48.9169767836
20
63.8388848479
30
0
0
SPLINE
5
11E
100
AcDbEntity
8
nitori
6
ByLayer
62
7
370
-1
100
AcDbSpline
210
0
220
0
230
1
70
8
71
3
72
8
73
4
74
0
42
1e-07
43
1e-07
40
0
40
0
40
0
40
0
40
1
40
1
40
1
40
1
10
48.9169767836
20
63.8388848479
30
0
10
48.9159600836
20
63.9298505479
30
0
10
48.7891716836
20
64.1946362479
30
0
10
48.6365184836
20
64.4289056479
30
0
0
SPLINE
5
11F
100
AcDbEntity
8
nitori
6
ByLayer
62
7
370
-1
100
AcDbSpline
210
0
220
0
230
1
70
8
71
3
72
8
73
4
74
0
42
1e-07
43
1e-07
40
0
40
0
40
0
40
0
40
1
40
1
40
1
40
1
10
48.6365184836
20
64.4289056479
30
0
10
48.4838652836
20
64.6631747479
30
0
10
48.2444061836
20
65.0478932479
30
0
10
48.1047060836
20
65.2835096479
30
0
0
SPLINE
5
120
100
AcDbEntity
8
nitori
6
ByLayer
62
7
370
-1
100
AcDbSpline
210
0
220
0
230
1
70
8
71
3
72
8
73
4
74
0
42
1e-07
43
1e-07
40
0
40
0
40
0
40
0
40
1
40
1
40
1
40
1
10
48.1047060836
20
65.2835096479
30
0
10
47.7709821836
20
65.8463642479
30
0
10
46.3650048836
20
67.2395273479
30
0
10
45.8689767836
20
67.4980721479
30
0
0
SPLINE
5
121
100
AcDbEntity
8
nitori
6
ByLayer
62
7
370
-1
100
AcDbSpline
210
0
220
0
230
1
70
8
71
3
72
8
73
4
74
0
42
1e-07
43
1e-07
40
0
40
0
40
0
40
0
40
1
40
1
40
1
40
1
10
45.8689767836
20
67.4980721479
30
0
10
45.6540420836
20
67.6101023479
30
0
10
45.3967206836
20
67.7442533479
30
0
10
45.2948310836
20
67.7970512479
30
0
0
SPLINE
5
122
100
AcDbEntity
8
nitori
6
ByLayer
62
7
370
-1
100
AcDbSpline
210
0
220
0
230
1
70
8
71
3
72
8
73
4
74
0
42
1e-07
43
1e-07
40
0
40
0
40
0
40
0
40
1
40
1
40
1
40
1
10
45.2948310836
20
67.7970512479
30
0
10
43.8002568836
20
68.5715258479
30
0
10
41.3729313836
20
69.2356904479
30
0
10
40.0349142836
20
69.2363846479
30
0
0
LWPOLYLINE
5
123
100
AcDbEntity
8
nitori
6
ByLayer
62
7
370
-1
100
AcDbPolyline
90
3
70
0
43
0
10
42.2415393836
20
33.3191972479
10
42.5987268836
20
33.0122804479
10
42.6569352836
20
31.1337389479
0
SPLINE
5
124
100
AcDbEntity
8
nitori
6
ByLayer
62
7
370
-1
100
AcDbSpline
210
0
220
0
230
1
70
8
71
3
72
8
73
4
74
0
42
1e-07
43
1e-07
40
0
40
0
40
0
40
0
40
1
40
1
40
1
40
1
10
51.2532477836
20
60.9866762479
30
0
10
51.4068585836
20
60.9987506479
30
0
10
51.7505973836
20
60.9251435479
30
0
10
52.3697892836
20
60.7538429479
30
0
0
SPLINE
5
125
100
AcDbEntity
8
nitori
6
ByLayer
62
7
370
-1
100
AcDbSpline
210
0
220
0
230
1
70
8
71
3
72
8
73
4
74
0
42
1e-07
43
1e-07
40
0
40
0
40
0
40
0
40
1
40
1
40
1
40
1
10
52.3697892836
20
60.7538429479
30
0
10
52.6753368836
20
60.6693125479
30
0
10
53.1200487836
20
60.6003848479
30
0
10
53.3593311836
20
60.6003848479
30
0
0
SPLINE
5
126
100
AcDbEntity
8
nitori
6
ByLayer
62
7
370
-1
100
AcDbSpline
210
0
220
0
230
1
70
8
71
3
72
8
73
4
74
0
42
1e-07
43
1e-07
40
0
40
0
40
0
40
0
40
1
40
1
40
1
40
1
10
53.3593311836
20
60.6003848479
30
0
10
53.6783160836
20
60.6003848479
30
0
10
53.7958935836
20
60.5586659479
30
0
10
53.7958935836
20
60.4469264479
30
0
0
SPLINE
5
127
100
AcDbEntity
8
nitori
6
ByLayer
62
7
370
-1
100
AcDbSpline
210
0
220
0
230
1
70
8
71
3
72
8
73
4
74
0
42
1e-07
43
1e-07
40
0
40
0
40
0
40
0
40
1
40
1
40
1
40
1
10
53.7958935836
20
60.4469264479
30
0
10
53.7958935836
20
60.1270193479
30
0
10
51.6069342836
20
60.3816398479
30
0
10
51.4754976836
20
60.7168013479
30
0
0
SPLINE
5
128
100
AcDbEntity
8
nitori
6
ByLayer
62
7
370
-1
100
AcDbSpline
210
0
220
0
230
1
70
8
71
3
72
8
73
4
74
0
42
1e-07
43
1e-07
40
0
40
0
40
0
40
0
40
1
40
1
40
1
40
1
10
51.4754976836
20
60.7168013479
30
0
10
51.4568709836
20
60.7642994479
30
0
10
51.3773901836
20
60.8041139479
30
0
10
51.2982267836
20
60.8041139479
30
0
0
SPLINE
5
129
100
AcDbEntity
8
nitori
6
ByLayer
62
7
370
-1
100
AcDbSpline
210
0
220
0
230
1
70
8
71
3
72
8
73
4
74
0
42
1e-07
43
1e-07
40
0
40
0
40
0
40
0
40
1
40
1
40
1
40
1
10
51.2982267836
20
60.8041139479
30
0
10
51.2190636836
20
60.8041139479
30
0
10
51.1527060836
20
60.8546927479
30
0
10
51.1527060836
20
60.9178847479
30
0
0
SPLINE
5
12A
100
AcDbEntity
8
nitori
6
ByLayer
62
7
370
-1
100
AcDbSpline
210
0
220
0
230
1
70
8
71
3
72
8
73
4
74
0
42
1e-07
43
1e-07
40
0
40
0
40
0
40
0
40
1
40
1
40
1
40
1
10
51.1527060836
20
60.9178847479
30
0
10
51.1527060836
20
60.9576947479
30
0
10
51.1834248836
20
60.9811880479
30
0
10
51.2532477836
20
60.9866762479
30
0
0
LWPOLYLINE
5
12B
100
AcDbEntity
8
nitori
6
ByLayer
62
7
370
-1
100
AcDbPolyline
90
2
70
0
43
0
10
40.0349142836
20
69.2363846479
10
40.0349142836
20
69.2363846479
0
LWPOLYLINE
5
12C
100
AcDbEntity
8
nitori
6
ByLayer
62
7
370
-1
100
AcDbPolyline
90
2
70
0
43
0
10
51.2532477836
20
60.9866762479
10
51.2532477836
20
60.9866762479
0
SPLINE
5
12D
100
AcDbEntity
8
nitori
6
ByLayer
62
7
370
-1
100
AcDbSpline
210
0
220
0
230
1
70
8
71
3
72
8
73
4
74
0
42
1e-07
43
1e-07
40
0
40
0
40
0
40
0
40
1
40
1
40
1
40
1
10
37.0133727836
20
42.7621763479
30
0
10
37.6228413836
20
42.7669895479
30
0
10
38.0909034836
20
42.7372859479
30
0
10
38.1166851836
20
42.6616346479
30
0
0
SPLINE
5
12E
100
AcDbEntity
8
nitori
6
ByLayer
62
7
370
-1
100
AcDbSpline
210
0
220
0
230
1
70
8
71
3
72
8
73
4
74
0
42
1e-07
43
1e-07
40
0
40
0
40
0
40
0
40
1
40
1
40
1
40
1
10
38.1166851836
20
42.6616346479
30
0
10
38.1370296836
20
42.6019361479
30
0
10
38.0392737836
20
42.3956669479
30
0
10
37.8997269836
20
42.2039054479
30
0
0
SPLINE
5
12F
100
AcDbEntity
8
nitori
6
ByLayer
62
7
370
-1
100
AcDbSpline
210
0
220
0
230
1
70
8
71
3
72
8
73
4
74
0
42
1e-07
43
1e-07
40
0
40
0
40
0
40
0
40
1
40
1
40
1
40
1
10
37.8997269836
20
42.2039054479
30
0
10
37.7601810836
20
42.0121424479
30
0
10
37.5956304836
20
41.7403556479
30
0
10
37.5346017836
20
41.6006555479
30
0
0
SPLINE
5
130
100
AcDbEntity
8
nitori
6
ByLayer
62
7
370
-1
100
AcDbSpline
210
0
220
0
230
1
70
8
71
3
72
8
73
4
74
0
42
1e-07
43
1e-07
40
0
40
0
40
0
40
0
40
1
40
1
40
1
40
1
10
37.5346017836
20
41.6006555479
30
0
10
37.4735733836
20
41.4609554479
30
0
10
37.3398837836
20
41.2546862479
30
0
10
37.2382686836
20
41.1429263479
30
0
0
SPLINE
5
131
100
AcDbEntity
8
nitori
6
ByLayer
62
7
370
-1
100
AcDbSpline
210
0
220
0
230
1
70
8
71
3
72
8
73
4
74
0
42
1e-07
43
1e-07
40
0
40
0
40
0
40
0
40
1
40
1
40
1
40
1
10
37.2382686836
20
41.1429263479
30
0
10
37.1366532836
20
41.0311664479
30
0
10
37.0223955836
20
40.8373856479
30
0
10
36.9842685836
20
40.7116556479
30
0
0
SPLINE
5
132
100
AcDbEntity
8
nitori
6
ByLayer
62
7
370
-1
100
AcDbSpline
210
0
220
0
230
1
70
8
71
3
72
8
73
4
74
0
42
1e-07
43
1e-07
40
0
40
0
40
0
40
0
40
1
40
1
40
1
40
1
10
36.9842685836
20
40.7116556479
30
0
10
36.9264792836
20
40.5210944479
30
0
10
36.8463846836
20
40.4833646479
30
0
10
36.4921434836
20
40.4867597479
30
0
0
SPLINE
5
133
100
AcDbEntity
8
nitori
6
ByLayer
62
7
370
-1
100
AcDbSpline
210
0
220
0
230
1
70
8
71
3
72
8
73
4
74
0
42
1e-07
43
1e-07
40
0
40
0
40
0
40
0
40
1
40
1
40
1
40
1
10
36.4921434836
20
40.4867597479
30
0
10
36.2584203836
20
40.4889965479
30
0
10
35.9518644836
20
40.5536786479
30
0
10
35.8121643836
20
40.6296347479
30
0
0
SPLINE
5
134
100
AcDbEntity
8
nitori
6
ByLayer
62
7
370
-1
100
AcDbSpline
210
0
220
0
230
1
70
8
71
3
72
8
73
4
74
0
42
1e-07
43
1e-07
40
0
40
0
40
0
40
0
40
1
40
1
40
1
40
1
10
35.8121643836
20
40.6296347479
30
0
10
35.6724642836
20
40.7055917479
30
0
10
35.3072334836
20
40.8447482479
30
0
10
34.9998936836
20
40.9391972479
30
0
0
SPLINE
5
135
100
AcDbEntity
8
nitori
6
ByLayer
62
7
370
-1
100
AcDbSpline
210
0
220
0
230
1
70
8
71
3
72
8
73
4
74
0
42
1e-07
43
1e-07
40
0
40
0
40
0
40
0
40
1
40
1
40
1
40
1
10
34.9998936836
20
40.9391972479
30
0
10
34.4042373836
20
41.1222500479
30
0
10
34.2541842836
20
41.1790730479
30
0
10
33.6452268836
20
41.4471971479
30
0
0
SPLINE
5
136
100
AcDbEntity
8
nitori
6
ByLayer
62
7
370
-1
100
AcDbSpline
210
0
220
0
230
1
70
8
71
3
72
8
73
4
74
0
42
1e-07
43
1e-07
40
0
40
0
40
0
40
0
40
1
40
1
40
1
40
1
10
33.6452268836
20
41.4471971479
30
0
10
33.4319979836
20
41.5410824479
30
0
10
33.1528953836
20
41.6353925479
30
0
10
33.0234561836
20
41.6588639479
30
0
0
SPLINE
5
137
100
AcDbEntity
8
nitori
6
ByLayer
62
7
370
-1
100
AcDbSpline
210
0
220
0
230
1
70
8
71
3
72
8
73
4
74
0
42
1e-07
43
1e-07
40
0
40
0
40
0
40
0
40
1
40
1
40
1
40
1
10
33.0234561836
20
41.6588639479
30
0
10
32.8940166836
20
41.6823359479
30
0
10
32.6571855836
20
41.7710792479
30
0
10
32.4969351836
20
41.8546556479
30
0
0
SPLINE
5
138
100
AcDbEntity
8
nitori
6
ByLayer
62
7
370
-1
100
AcDbSpline
210
0
220
0
230
1
70
8
71
3
72
8
73
4
74
0
42
1e-07
43
1e-07
40
0
40
0
40
0
40
0
40
1
40
1
40
1
40
1
10
32.4969351836
20
41.8546556479
30
0
10
32.3366832836
20
41.9382317479
30
0
10
32.1342528836
20
42.0051293479
30
0
10
32.0471436836
20
42.0054680479
30
0
0
SPLINE
5
139
100
AcDbEntity
8
nitori
6
ByLayer
62
7
370
-1
100
AcDbSpline
210
0
220
0
230
1
70
8
71
3
72
8
73
4
74
0
42
1e-07
43
1e-07
40
0
40
0
40
0
40
0
40
1
40
1
40
1
40
1
10
32.0471436836
20
42.0054680479
30
0
10
31.9600332836
20
42.0058127479
30
0
10
31.8056826836
20
42.0681026479
30
0
10
31.7031852836
20
42.1430513479
30
0
0
SPLINE
5
13A
100
AcDbEntity
8
nitori
6
ByLayer
62
7
370
-1
100
AcDbSpline
210
0
220
0
230
1
70
8
71
3
72
8
73
4
74
0
42
1e-07
43
1e-07
40
0
40
0
40
0
40
0
40
1
40
1
40
1
40
1
10
31.7031852836
20
42.1430513479
30
0
10
31.5414405836
20
42.2613212479
30
0
10
31.6545375836
20
42.2884070479
30
0
10
32.5710186836
20
42.3414887479
30
0
0
SPLINE
5
13B
100
AcDbEntity
8
nitori
6
ByLayer
62
7
370
-1
100
AcDbSpline
210
0
220
0
230
1
70
8
71
3
72
8
73
4
74
0
42
1e-07
43
1e-07
40
0
40
0
40
0
40
0
40
1
40
1
40
1
40
1
10
32.5710186836
20
42.3414887479
30
0
10
33.1517853836
20
42.3751259479
30
0
10
34.0615752836
20
42.4803533479
30
0
10
34.5924351836
20
42.5769680479
30
0
0
SPLINE
5
13C
100
AcDbEntity
8
nitori
6
ByLayer
62
7
370
-1
100
AcDbSpline
210
0
220
0
230
1
70
8
71
3
72
8
73
4
74
0
42
1e-07
43
1e-07
40
0
40
0
40
0
40
0
40
1
40
1
40
1
40
1
10
34.5924351836
20
42.5769680479
30
0
10
35.2111875836
20
42.6895790479
30
0
10
36.2297700836
20
42.7559873479
30
0
10
37.0133727836
20
42.7621763479
30
0
0
LWPOLYLINE
5
13D
100
AcDbEntity
8
nitori
6
ByLayer
62
7
370
-1
100
AcDbPolyline
90
2
70
0
43
0
10
37.0133727836
20
42.7621763479
10
37.0133727836
20
42.7621763479
0
SPLINE
5
13E
100
AcDbEntity
8
name
6
ByLayer
62
7
370
-1
100
AcDbSpline
210
0
220
0
230
1
70
8
71
3
72
8
73
4
74
0
42
1e-07
43
1e-07
40
0
40
0
40
0
40
0
40
1
40
1
40
1
40
1
10
14.3045436174
20
28.5564165043
30
0
10
14.7628836174
20
29.2763565043
30
0
10
15.3501836174
20
30.4076085043
30
0
10
15.6157844174
20
31.0821149043
30
0
0
SPLINE
5
13F
100
AcDbEntity
8
name
6
ByLayer
62
7
370
-1
100
AcDbSpline
210
0
220
0
230
1
70
8
71
3
72
8
73
4
74
0
42
1e-07
43
1e-07
40
0
40
0
40
0
40
0
40
1
40
1
40
1
40
1
10
15.6157844174
20
31.0821149043
30
0
10
15.6730956174
20
31.2276597043
30
0
10
15.7236948174
20
31.3522365043
30
0
10
15.7282268174
20
31.3589517043
30
0
0
SPLINE
5
140
100
AcDbEntity
8
name
6
ByLayer
62
7
370
-1
100
AcDbSpline
210
0
220
0
230
1
70
8
71
3
72
8
73
4
74
0
42
1e-07
43
1e-07
40
0
40
0
40
0
40
0
40
1
40
1
40
1
40
1
10
15.7282268174
20
31.3589517043
30
0
10
15.7327588174
20
31.3656661043
30
0
10
15.8509076174
20
31.2956181043
30
0
10
15.9907780174
20
31.2032885043
30
0
0
SPLINE
5
141
100
AcDbEntity
8
name
6
ByLayer
62
7
370
-1
100
AcDbSpline
210
0
220
0
230
1
70
8
71
3
72
8
73
4
74
0
42
1e-07
43
1e-07
40
0
40
0
40
0
40
0
40
1
40
1
40
1
40
1
10
15.9907780174
20
31.2032885043
30
0
10
16.1306492174
20
31.1109589043
30
0
10
16.2571420174
20
31.0275461043
30
0
10
16.2718732174
20
31.0179269043
30
0
0
SPLINE
5
142
100
AcDbEntity
8
name
6
ByLayer
62
7
370
-1
100
AcDbSpline
210
0
220
0
230
1
70
8
71
3
72
8
73
4
74
0
42
1e-07
43
1e-07
40
0
40
0
40
0
40
0
40
1
40
1
40
1
40
1
10
16.2718732174
20
31.0179269043
30
0
10
16.3327340174
20
30.9781869043
30
0
10
15.9362212174
20
29.9863837043
30
0
10
15.5490524174
20
29.2099237043
30
0
0
SPLINE
5
143
100
AcDbEntity
8
name
6
ByLayer
62
7
370
-1
100
AcDbSpline
210
0
220
0
230
1
70
8
71
3
72
8
73
4
74
0
42
1e-07
43
1e-07
40
0
40
0
40
0
40
0
40
1
40
1
40
1
40
1
10
15.5490524174
20
29.2099237043
30
0
10
15.3307772174
20
28.7721773043
30
0
10
14.8911612174
20
27.9925037043
30
0
10
14.7507284174
20
27.7940701043
30
0
0
SPLINE
5
144
100
AcDbEntity
8
name
6
ByLayer
62
7
370
-1
100
AcDbSpline
210
0
220
0
230
1
70
8
71
3
72
8
73
4
74
0
42
1e-07
43
1e-07
40
0
40
0
40
0
40
0
40
1
40
1
40
1
40
1
10
14.7507284174
20
27.7940701043
30
0
10
14.7344596174
20
27.7710821043
30
0
10
14.6195804174
20
27.8379853043
30
0
10
14.4100484174
20
27.9924773043
30
0
0
LWPOLYLINE
5
145
100
AcDbEntity
8
name
6
ByLayer
62
7
370
-1
100
AcDbPolyline
90
3
70
0
43
0
10
14.4100484174
20
27.9924773043
10
14.0939148174
20
28.2255685043
10
14.3045436174
20
28.5564165043
0
LWPOLYLINE
5
146
100
AcDbEntity
8
name
6
ByLayer
62
7
370
-1
100
AcDbPolyline
90
3
70
0
43
0
10
14.4100484174
20
27.9924773043
10
14.4100484174
20
27.9924773043
10
14.4100484174
20
27.9924773043
0
LWPOLYLINE
5
147
100
AcDbEntity
8
name
6
ByLayer
62
7
370
-1
100
AcDbPolyline
90
14
70
0
43
0
10
17.0144316174
20
31.4712733043
10
17.0144316174
20
33.2613997043
10
18.3375684174
20
33.2613997043
10
19.6607052174
20
33.2613997043
10
19.6607052174
20
31.7203341043
10
19.6607052174
20
30.1792685043
10
18.6488948174
20
30.1792685043
10
17.6370836174
20
30.1792685043
10
17.6370836174
20
29.9302077043
10
17.6370836174
20
29.6811461043
10
17.3257572174
20
29.6811461043
10
17.0144316174
20
29.6811461043
10
17.0144316174
20
31.4712733043
10
17.0144316174
20
31.4712733043
0
SPLINE
5
148
100
AcDbEntity
8
name
6
ByLayer
62
7
370
-1
100
AcDbSpline
210
0
220
0
230
1
70
8
71
3
72
8
73
4
74
0
42
1e-07
43
1e-07
40
0
40
0
40
0
40
0
40
1
40
1
40
1
40
1
10
15.1153404174
20
32.2697557043
30
0
10
14.8830428174
20
32.4833429043
30
0
10
14.5007988174
20
32.7738525043
30
0
10
14.2426428174
20
32.9330165043
30
0
0
LWPOLYLINE
5
149
100
AcDbEntity
8
name
6
ByLayer
62
7
370
-1
100
AcDbPolyline
90
10
70
0
43
0
10
19.0069204174
20
31.7203341043
10
19.0069204174
20
32.6698797043
10
18.3220020174
20
32.6698797043
10
17.6370836174
20
32.6698797043
10
17.6370836174
20
31.7203341043
10
17.6370836174
20
30.7707885043
10
18.3220020174
20
30.7707885043
10
19.0069204174
20
30.7707885043
10
19.0069204174
20
31.7203341043
10
19.0069204174
20
31.7203341043
0
SPLINE
5
14A
100
AcDbEntity
8
name
6
ByLayer
62
7
370
-1
100
AcDbSpline
210
0
220
0
230
1
70
8
71
3
72
8
73
4
74
0
42
1e-07
43
1e-07
40
0
40
0
40
0
40
0
40
1
40
1
40
1
40
1
10
14.2584436174
20
33.2917885043
30
0
10
14.4051284174
20
33.4374941043
30
0
10
14.5039052174
20
33.5128181043
30
0
10
14.5334348174
20
33.5014861043
30
0
0
SPLINE
5
14B
100
AcDbEntity
8
name
6
ByLayer
62
7
370
-1
100
AcDbSpline
210
0
220
0
230
1
70
8
71
3
72
8
73
4
74
0
42
1e-07
43
1e-07
40
0
40
0
40
0
40
0
40
1
40
1
40
1
40
1
10
14.5334348174
20
33.5014861043
30
0
10
14.6375196174
20
33.4615453043
30
0
10
15.1705252174
20
33.1156629043
30
0
10
15.4601748174
20
32.9000981043
30
0
0
LWPOLYLINE
5
14C
100
AcDbEntity
8
name
6
ByLayer
62
7
370
-1
100
AcDbPolyline
90
3
70
0
43
0
10
14.2426428174
20
32.9330165043
10
14.0295340174
20
33.0644069043
10
14.2584436174
20
33.2917885043
0
SPLINE
5
14D
100
AcDbEntity
8
name
6
ByLayer
62
7
370
-1
100
AcDbSpline
210
0
220
0
230
1
70
8
71
3
72
8
73
4
74
0
42
1e-07
43
1e-07
40
0
40
0
40
0
40
0
40
1
40
1
40
1
40
1
10
15.5439404174
20
32.3911877043
30
0
10
15.4195100174
20
32.2381789043
30
0
10
15.3106972174
20
32.1128389043
30
0
10
15.3021364174
20
32.1126541043
30
0
0
SPLINE
5
14E
100
AcDbEntity
8
name
6
ByLayer
62
7
370
-1
100
AcDbSpline
210
0
220
0
230
1
70
8
71
3
72
8
73
4
74
0
42
1e-07
43
1e-07
40
0
40
0
40
0
40
0
40
1
40
1
40
1
40
1
10
15.3021364174
20
32.1126541043
30
0
10
15.2935748174
20
32.1124709043
30
0
10
15.2095164174
20
32.1831653043
30
0
10
15.1153404174
20
32.2697557043
30
0
0
LWPOLYLINE
5
14F
100
AcDbEntity
8
name
6
ByLayer
62
7
370
-1
100
AcDbPolyline
90
3
70
0
43
0
10
15.4601748174
20
32.9000981043
10
15.7701788174
20
32.6693853043
10
15.5439404174
20
32.3911877043
0
SPLINE
5
150
100
AcDbEntity
8
name
6
ByLayer
62
7
370
-1
100
AcDbSpline
210
0
220
0
230
1
70
8
71
3
72
8
73
4
74
0
42
1e-07
43
1e-07
40
0
40
0
40
0
40
0
40
1
40
1
40
1
40
1
10
15.3488348174
20
34.5435453043
30
0
10
15.1662860174
20
34.7012325043
30
0
10
14.6525556174
20
35.0796101043
30
0
10
14.4411804174
20
35.2120605043
30
0
0
SPLINE
5
151
100
AcDbEntity
8
name
6
ByLayer
62
7
370
-1
100
AcDbSpline
210
0
220
0
230
1
70
8
71
3
72
8
73
4
74
0
42
1e-07
43
1e-07
40
0
40
0
40
0
40
0
40
1
40
1
40
1
40
1
10
14.4411804174
20
35.2120605043
30
0
10
14.3888756174
20
35.2448349043
30
0
10
14.4045276174
20
35.2691981043
30
0
10
14.6157188174
20
35.4837461043
30
0
0
LWPOLYLINE
5
152
100
AcDbEntity
8
name
6
ByLayer
62
7
370
-1
100
AcDbPolyline
90
2
70
0
43
0
10
15.1153404174
20
32.2697557043
10
15.1153404174
20
32.2697557043
0
SPLINE
5
153
100
AcDbEntity
8
name
6
ByLayer
62
7
370
-1
100
AcDbSpline
210
0
220
0
230
1
70
8
71
3
72
8
73
4
74
0
42
1e-07
43
1e-07
40
0
40
0
40
0
40
0
40
1
40
1
40
1
40
1
10
14.9893108174
20
35.6385605043
30
0
10
15.2139380174
20
35.5102701043
30
0
10
15.6525140174
20
35.2119325043
30
0
10
15.8568420174
20
35.0484301043
30
0
0
LWPOLYLINE
5
154
100
AcDbEntity
8
name
6
ByLayer
62
7
370
-1
100
AcDbPolyline
90
3
70
0
43
0
10
14.6157188174
20
35.4837461043
10
14.8477148174
20
35.7194293043
10
14.9893108174
20
35.6385605043
0
SPLINE
5
155
100
AcDbEntity
8
name
6
ByLayer
62
7
370
-1
100
AcDbSpline
210
0
220
0
230
1
70
8
71
3
72
8
73
4
74
0
42
1e-07
43
1e-07
40
0
40
0
40
0
40
0
40
1
40
1
40
1
40
1
10
15.9857564174
20
34.8193133043
30
0
10
15.9535564174
20
34.7758013043
30
0
10
15.8461108174
20
34.6535973043
30
0
10
15.7469876174
20
34.5477493043
30
0
0
LWPOLYLINE
5
156
100
AcDbEntity
8
name
6
ByLayer
62
7
370
-1
100
AcDbPolyline
90
3
70
0
43
0
10
15.8568420174
20
35.0484301043
10
16.0443004174
20
34.8984269043
10
15.9857564174
20
34.8193133043
0
SPLINE
5
157
100
AcDbEntity
8
name
6
ByLayer
62
7
370
-1
100
AcDbSpline
210
0
220
0
230
1
70
8
71
3
72
8
73
4
74
0
42
1e-07
43
1e-07
40
0
40
0
40
0
40
0
40
1
40
1
40
1
40
1
10
19.9799628174
20
27.7626869043
30
0
10
19.8730252174
20
27.7845917043
30
0
10
19.7792668174
20
27.8087797043
30
0
10
19.7716092174
20
27.8164373043
30
0
0
SPLINE
5
158
100
AcDbEntity
8
name
6
ByLayer
62
7
370
-1
100
AcDbSpline
210
0
220
0
230
1
70
8
71
3
72
8
73
4
74
0
42
1e-07
43
1e-07
40
0
40
0
40
0
40
0
40
1
40
1
40
1
40
1
10
19.7716092174
20
27.8164373043
30
0
10
19.7501604174
20
27.8378861043
30
0
10
19.6283356174
20
28.4138493043
30
0
10
19.6422948174
20
28.4278085043
30
0
0
SPLINE
5
159
100
AcDbEntity
8
name
6
ByLayer
62
7
370
-1
100
AcDbSpline
210
0
220
0
230
1
70
8
71
3
72
8
73
4
74
0
42
1e-07
43
1e-07
40
0
40
0
40
0
40
0
40
1
40
1
40
1
40
1
10
19.6422948174
20
28.4278085043
30
0
10
19.6490684174
20
28.4345813043
30
0
10
19.7305748174
20
28.4260693043
30
0
10
19.8234196174
20
28.4089173043
30
0
0
SPLINE
5
15A
100
AcDbEntity
8
name
6
ByLayer
62
7
370
-1
100
AcDbSpline
210
0
220
0
230
1
70
8
71
3
72
8
73
4
74
0
42
1e-07
43
1e-07
40
0
40
0
40
0
40
0
40
1
40
1
40
1
40
1
10
19.8234196174
20
28.4089173043
30
0
10
19.9162652174
20
28.3917533043
30
0
10
20.1102700174
20
28.3681573043
30
0
10
20.2545412174
20
28.3564805043
30
0
0
SPLINE
5
15B
100
AcDbEntity
8
name
6
ByLayer
62
7
370
-1
100
AcDbSpline
210
0
220
0
230
1
70
8
71
3
72
8
73
4
74
0
42
1e-07
43
1e-07
40
0
40
0
40
0
40
0
40
1
40
1
40
1
40
1
10
20.2545412174
20
28.3564805043
30
0
10
20.5640444174
20
28.3314301043
30
0
10
20.6412644174
20
28.3704469043
30
0
10
20.6888764174
20
28.5759381043
30
0
0
SPLINE
5
15C
100
AcDbEntity
8
name
6
ByLayer
62
7
370
-1
100
AcDbSpline
210
0
220
0
230
1
70
8
71
3
72
8
73
4
74
0
42
1e-07
43
1e-07
40
0
40
0
40
0
40
0
40
1
40
1
40
1
40
1
10
20.6888764174
20
28.5759381043
30
0
10
20.7054964174
20
28.6476677043
30
0
10
20.7180444174
20
29.9643941043
30
0
10
20.7184724174
20
31.6814189043
30
0
0
LWPOLYLINE
5
15D
100
AcDbEntity
8
name
6
ByLayer
62
7
370
-1
100
AcDbPolyline
90
4
70
0
43
0
10
15.7469876174
20
34.5477493043
10
15.5667636174
20
34.3552981043
10
15.3488348174
20
34.5435453043
10
15.3488348174
20
34.5435453043
0
SPLINE
5
15E
100
AcDbEntity
8
name
6
ByLayer
62
7
370
-1
100
AcDbSpline
210
0
220
0
230
1
70
8
71
3
72
8
73
4
74
0
42
1e-07
43
1e-07
40
0
40
0
40
0
40
0
40
1
40
1
40
1
40
1
10
21.3728164174
20
31.4790565043
30
0
10
21.3726916174
20
29.4425693043
30
0
10
21.3613716174
20
28.2551693043
30
0
10
21.3413580174
20
28.1831181043
30
0
0
SPLINE
5
15F
100
AcDbEntity
8
name
6
ByLayer
62
7
370
-1
100
AcDbSpline
210
0
220
0
230
1
70
8
71
3
72
8
73
4
74
0
42
1e-07
43
1e-07
40
0
40
0
40
0
40
0
40
1
40
1
40
1
40
1
10
21.3413580174
20
28.1831181043
30
0
10
21.2944908174
20
28.0143933043
30
0
10
21.1854396174
20
27.8730277043
30
0
10
21.0460972174
20
27.8003637043
30
0
0
SPLINE
5
160
100
AcDbEntity
8
name
6
ByLayer
62
7
370
-1
100
AcDbSpline
210
0
220
0
230
1
70
8
71
3
72
8
73
4
74
0
42
1e-07
43
1e-07
40
0
40
0
40
0
40
0
40
1
40
1
40
1
40
1
10
21.0460972174
20
27.8003637043
30
0
10
20.9427324174
20
27.7464613043
30
0
10
20.8580684174
20
27.7343565043
30
0
10
20.5479748174
20
27.7291413043
30
0
0
SPLINE
5
161
100
AcDbEntity
8
name
6
ByLayer
62
7
370
-1
100
AcDbSpline
210
0
220
0
230
1
70
8
71
3
72
8
73
4
74
0
42
1e-07
43
1e-07
40
0
40
0
40
0
40
0
40
1
40
1
40
1
40
1
10
20.5479748174
20
27.7291413043
30
0
10
20.3395564174
20
27.7256373043
30
0
10
20.0884204174
20
27.7404685043
30
0
10
19.9799516174
20
27.7626869043
30
0
0
LWPOLYLINE
5
162
100
AcDbEntity
8
name
6
ByLayer
62
7
370
-1
100
AcDbPolyline
90
13
70
0
43
0
10
20.7184724174
20
31.6814189043
10
20.7192172174
20
34.6623693043
10
18.6488972174
20
34.6623693043
10
16.5785764174
20
34.6623693043
10
16.5785764174
20
34.9736957043
10
16.5785764174
20
35.2850221043
10
19.3338148174
20
35.2850221043
10
22.0890532174
20
35.2850221043
10
22.0890532174
20
34.9736957043
10
22.0890532174
20
34.6623693043
10
21.7310284174
20
34.6623693043
10
21.3730028174
20
34.6623693043
10
21.3728164174
20
31.4790565043
0
SPLINE
5
163
100
AcDbEntity
8
name
6
ByLayer
62
7
370
-1
100
AcDbSpline
210
0
220
0
230
1
70
8
71
3
72
8
73
4
74
0
42
1e-07
43
1e-07
40
0
40
0
40
0
40
0
40
1
40
1
40
1
40
1
10
23.1324932174
20
29.1285421043
30
0
10
23.0900148174
20
29.3116077043
30
0
10
23.0230308174
20
29.6584725043
30
0
10
23.0230308174
20
29.6953725043
30
0
0
SPLINE
5
164
100
AcDbEntity
8
name
6
ByLayer
62
7
370
-1
100
AcDbSpline
210
0
220
0
230
1
70
8
71
3
72
8
73
4
74
0
42
1e-07
43
1e-07
40
0
40
0
40
0
40
0
40
1
40
1
40
1
40
1
10
23.0230308174
20
29.6953725043
30
0
10
23.0230308174
20
29.7180821043
30
0
10
23.0615572174
20
29.7456925043
30
0
10
23.1086452174
20
29.7567301043
30
0
0
SPLINE
5
165
100
AcDbEntity
8
name
6
ByLayer
62
7
370
-1
100
AcDbSpline
210
0
220
0
230
1
70
8
71
3
72
8
73
4
74
0
42
1e-07
43
1e-07
40
0
40
0
40
0
40
0
40
1
40
1
40
1
40
1
10
23.1086452174
20
29.7567301043
30
0
10
23.1557332174
20
29.7677685043
30
0
10
23.3728836174
20
29.8352469043
30
0
10
23.5912012174
20
29.9066837043
30
0
0
LWPOLYLINE
5
166
100
AcDbEntity
8
name
6
ByLayer
62
7
370
-1
100
AcDbPolyline
90
3
70
0
43
0
10
19.9799516174
20
27.7626869043
10
19.9799644174
20
27.7626869043
10
19.9799628174
20
27.7626869043
0
SPLINE
5
167
100
AcDbEntity
8
name
6
ByLayer
62
7
370
-1
100
AcDbSpline
210
0
220
0
230
1
70
8
71
3
72
8
73
4
74
0
42
1e-07
43
1e-07
40
0
40
0
40
0
40
0
40
1
40
1
40
1
40
1
10
24.9454708174
20
30.3708389043
30
0
10
25.1124196174
20
30.4402997043
30
0
10
25.2888428174
20
30.5177077043
30
0
10
25.3375220174
20
30.5428573043
30
0
0
SPLINE
5
168
100
AcDbEntity
8
name
6
ByLayer
62
7
370
-1
100
AcDbSpline
210
0
220
0
230
1
70
8
71
3
72
8
73
4
74
0
42
1e-07
43
1e-07
40
0
40
0
40
0
40
0
40
1
40
1
40
1
40
1
10
25.3375220174
20
30.5428573043
30
0
10
25.3862012174
20
30.5680069043
30
0
10
25.4320292174
20
30.5825853043
30
0
10
25.4393612174
20
30.5752525043
30
0
0
SPLINE
5
169
100
AcDbEntity
8
name
6
ByLayer
62
7
370
-1
100
AcDbSpline
210
0
220
0
230
1
70
8
71
3
72
8
73
4
74
0
42
1e-07
43
1e-07
40
0
40
0
40
0
40
0
40
1
40
1
40
1
40
1
10
25.4393612174
20
30.5752525043
30
0
10
25.4518716174
20
30.5627421043
30
0
10
25.5446396174
20
30.0686309043
30
0
10
25.5447316174
20
30.0140165043
30
0
0
SPLINE
5
16A
100
AcDbEntity
8
name
6
ByLayer
62
7
370
-1
100
AcDbSpline
210
0
220
0
230
1
70
8
71
3
72
8
73
4
74
0
42
1e-07
43
1e-07
40
0
40
0
40
0
40
0
40
1
40
1
40
1
40
1
10
25.5447316174
20
30.0140165043
30
0
10
25.5447844174
20
29.9823045043
30
0
10
25.0621612174
20
29.7564125043
30
0
10
24.5272524174
20
29.5377869043
30
0
0
SPLINE
5
16B
100
AcDbEntity
8
name
6
ByLayer
62
7
370
-1
100
AcDbSpline
210
0
220
0
230
1
70
8
71
3
72
8
73
4
74
0
42
1e-07
43
1e-07
40
0
40
0
40
0
40
0
40
1
40
1
40
1
40
1
10
24.5272524174
20
29.5377869043
30
0
10
24.1962452174
20
29.4024989043
30
0
10
23.2163380174
20
29.0584933043
30
0
10
23.1619732174
20
29.0584933043
30
0
0
SPLINE
5
16C
100
AcDbEntity
8
name
6
ByLayer
62
7
370
-1
100
AcDbSpline
210
0
220
0
230
1
70
8
71
3
72
8
73
4
74
0
42
1e-07
43
1e-07
40
0
40
0
40
0
40
0
40
1
40
1
40
1
40
1
10
23.1619732174
20
29.0584933043
30
0
10
23.1546988174
20
29.0584933043
30
0
10
23.1414324174
20
29.0900149043
30
0
10
23.1324932174
20
29.1285421043
30
0
0
LWPOLYLINE
5
16D
100
AcDbEntity
8
name
6
ByLayer
62
7
370
-1
100
AcDbPolyline
90
25
70
0
43
0
10
23.5912012174
20
29.9066837043
10
23.9881420174
20
30.0365685043
10
23.9881420174
20
31.5555861043
10
23.9881420174
20
33.0746037043
10
23.5522852174
20
33.0746037043
10
23.1164284174
20
33.0746037043
10
23.1164284174
20
33.3859301043
10
23.1164284174
20
33.6972565043
10
23.5522852174
20
33.6972565043
10
23.9881420174
20
33.6972565043
10
23.9881420174
20
34.6779349043
10
23.9881420174
20
35.6586133043
10
24.3150348174
20
35.6586133043
10
24.6419276174
20
35.6586133043
10
24.6419276174
20
34.6779349043
10
24.6419276174
20
33.6972565043
10
25.1089172174
20
33.6972565043
10
25.5759068174
20
33.6972565043
10
25.5759068174
20
33.3859301043
10
25.5759068174
20
33.0746037043
10
25.1089172174
20
33.0746037043
10
24.6419276174
20
33.0746037043
10
24.6419276174
20
31.6595757043
10
24.6419276174
20
30.2445469043
10
24.9454708174
20
30.3708389043
0
LWPOLYLINE
5
16E
100
AcDbEntity
8
name
6
ByLayer
62
7
370
-1
100
AcDbPolyline
90
2
70
0
43
0
10
23.1324932174
20
29.1285421043
10
23.1324932174
20
29.1285421043
0
SPLINE
5
16F
100
AcDbEntity
8
name
6
ByLayer
62
7
370
-1
100
AcDbSpline
210
0
220
0
230
1
70
8
71
3
72
8
73
4
74
0
42
1e-07
43
1e-07
40
0
40
0
40
0
40
0
40
1
40
1
40
1
40
1
10
27.8465140174
20
28.3232117043
30
0
10
28.1588348174
20
28.5867741043
30
0
10
28.6826740174
20
29.1329477043
30
0
10
28.9186492174
20
29.4410589043
30
0
0
SPLINE
5
170
100
AcDbEntity
8
name
6
ByLayer
62
7
370
-1
100
AcDbSpline
210
0
220
0
230
1
70
8
71
3
72
8
73
4
74
0
42
1e-07
43
1e-07
40
0
40
0
40
0
40
0
40
1
40
1
40
1
40
1
10
28.9186492174
20
29.4410589043
30
0
10
29.0544740174
20
29.6184053043
30
0
10
29.0973244174
20
29.6978909043
30
0
10
29.0854548174
20
29.7504781043
30
0
0
SPLINE
5
171
100
AcDbEntity
8
name
6
ByLayer
62
7
370
-1
100
AcDbSpline
210
0
220
0
230
1
70
8
71
3
72
8
73
4
74
0
42
1e-07
43
1e-07
40
0
40
0
40
0
40
0
40
1
40
1
40
1
40
1
10
29.0854548174
20
29.7504781043
30
0
10
29.0766700174
20
29.7893989043
30
0
10
29.0259180174
20
29.9834973043
30
0
10
28.9726732174
20
30.1818069043
30
0
0
SPLINE
5
172
100
AcDbEntity
8
name
6
ByLayer
62
7
370
-1
100
AcDbSpline
210
0
220
0
230
1
70
8
71
3
72
8
73
4
74
0
42
1e-07
43
1e-07
40
0
40
0
40
0
40
0
40
1
40
1
40
1
40
1
10
28.9726732174
20
30.1818069043
30
0
10
28.7860988174
20
30.8767061043
30
0
10
28.6562036174
20
31.8232293043
30
0
10
28.5949100174
20
32.9345069043
30
0
0
SPLINE
5
173
100
AcDbEntity
8
name
6
ByLayer
62
7
370
-1
100
AcDbSpline
210
0
220
0
230
1
70
8
71
3
72
8
73
4
74
0
42
1e-07
43
1e-07
40
0
40
0
40
0
40
0
40
1
40
1
40
1
40
1
10
28.5949100174
20
32.9345069043
30
0
10
28.5760220174
20
33.2769661043
30
0
10
28.5536204174
20
33.6167013043
30
0
10
28.5451300174
20
33.6894733043
30
0
0
LWPOLYLINE
5
174
100
AcDbEntity
8
name
6
ByLayer
62
7
370
-1
100
AcDbPolyline
90
3
70
0
43
0
10
27.8106052174
20
27.8884437043
10
27.6013916174
20
28.1163565043
10
27.8465140174
20
28.3232117043
0
SPLINE
5
175
100
AcDbEntity
8
name
6
ByLayer
62
7
370
-1
100
AcDbSpline
210
0
220
0
230
1
70
8
71
3
72
8
73
4
74
0
42
1e-07
43
1e-07
40
0
40
0
40
0
40
0
40
1
40
1
40
1
40
1
10
28.2221804174
20
31.8171861043
30
0
10
28.2221804174
20
31.4509413043
30
0
10
28.2076268174
20
30.9010613043
30
0
10
28.1898380174
20
30.5952293043
30
0
0
SPLINE
5
176
100
AcDbEntity
8
name
6
ByLayer
62
7
370
-1
100
AcDbSpline
210
0
220
0
230
1
70
8
71
3
72
8
73
4
74
0
42
1e-07
43
1e-07
40
0
40
0
40
0
40
0
40
1
40
1
40
1
40
1
10
28.1898380174
20
30.5952293043
30
0
10
28.1195956174
20
29.3875805043
30
0
10
27.9987252174
20
29.0783957043
30
0
10
27.5449060174
20
28.9455093043
30
0
0
SPLINE
5
177
100
AcDbEntity
8
name
6
ByLayer
62
7
370
-1
100
AcDbSpline
210
0
220
0
230
1
70
8
71
3
72
8
73
4
74
0
42
1e-07
43
1e-07
40
0
40
0
40
0
40
0
40
1
40
1
40
1
40
1
10
27.5449060174
20
28.9455093043
30
0
10
27.3916748174
20
28.9006405043
30
0
10
27.3307700174
20
28.8982205043
30
0
10
27.1200508174
20
28.9286277043
30
0
0
SPLINE
5
178
100
AcDbEntity
8
name
6
ByLayer
62
7
370
-1
100
AcDbSpline
210
0
220
0
230
1
70
8
71
3
72
8
73
4
74
0
42
1e-07
43
1e-07
40
0
40
0
40
0
40
0
40
1
40
1
40
1
40
1
10
27.1200508174
20
28.9286277043
30
0
10
26.9847604174
20
28.9481509043
30
0
10
26.8674644174
20
28.9707301043
30
0
10
26.8593908174
20
28.9788029043
30
0
0
SPLINE
5
179
100
AcDbEntity
8
name
6
ByLayer
62
7
370
-1
100
AcDbSpline
210
0
220
0
230
1
70
8
71
3
72
8
73
4
74
0
42
1e-07
43
1e-07
40
0
40
0
40
0
40
0
40
1
40
1
40
1
40
1
10
26.8593908174
20
28.9788029043
30
0
10
26.8444964174
20
28.9936973043
30
0
10
26.7312924174
20
29.5120909043
30
0
10
26.7290404174
20
29.5757149043
30
0
0
SPLINE
5
17A
100
AcDbEntity
8
name
6
ByLayer
62
7
370
-1
100
AcDbSpline
210
0
220
0
230
1
70
8
71
3
72
8
73
4
74
0
42
1e-07
43
1e-07
40
0
40
0
40
0
40
0
40
1
40
1
40
1
40
1
10
26.7290404174
20
29.5757149043
30
0
10
26.7281604174
20
29.6003749043
30
0
10
26.7729372174
20
29.6021789043
30
0
10
26.8841548174
20
29.5819645043
30
0
0
SPLINE
5
17B
100
AcDbEntity
8
name
6
ByLayer
62
7
370
-1
100
AcDbSpline
210
0
220
0
230
1
70
8
71
3
72
8
73
4
74
0
42
1e-07
43
1e-07
40
0
40
0
40
0
40
0
40
1
40
1
40
1
40
1
10
26.8841548174
20
29.5819645043
30
0
10
26.9701428174
20
29.5663357043
30
0
10
27.1193204174
20
29.5577405043
30
0
10
27.2156604174
20
29.5628661043
30
0
0
SPLINE
5
17C
100
AcDbEntity
8
name
6
ByLayer
62
7
370
-1
100
AcDbSpline
210
0
220
0
230
1
70
8
71
3
72
8
73
4
74
0
42
1e-07
43
1e-07
40
0
40
0
40
0
40
0
40
1
40
1
40
1
40
1
10
27.2156604174
20
29.5628661043
30
0
10
27.5323820174
20
29.5797109043
30
0
10
27.5530756174
20
29.6611293043
30
0
10
27.5866900174
20
31.0226981043
30
0
0
LWPOLYLINE
5
17D
100
AcDbEntity
8
name
6
ByLayer
62
7
370
-1
100
AcDbPolyline
90
9
70
0
43
0
10
28.5451300174
20
33.6894733043
10
28.5296908174
20
33.8217869043
10
27.5509204174
20
33.8217869043
10
26.5721500174
20
33.8217869043
10
26.5721500174
20
33.1524357043
10
26.5721500174
20
32.4830837043
10
27.3971652174
20
32.4830837043
10
28.2221804174
20
32.4830837043
10
28.2221804174
20
31.8171861043
0
SPLINE
5
17E
100
AcDbEntity
8
name
6
ByLayer
62
7
370
-1
100
AcDbSpline
210
0
220
0
230
1
70
8
71
3
72
8
73
4
74
0
42
1e-07
43
1e-07
40
0
40
0
40
0
40
0
40
1
40
1
40
1
40
1
10
26.5631692174
20
31.2455613043
30
0
10
26.5400500174
20
30.3571525043
30
0
10
26.4495284174
20
29.8049861043
30
0
10
26.2117292174
20
29.1018453043
30
0
0
SPLINE
5
17F
100
AcDbEntity
8
name
6
ByLayer
62
7
370
-1
100
AcDbSpline
210
0
220
0
230
1
70
8
71
3
72
8
73
4
74
0
42
1e-07
43
1e-07
40
0
40
0
40
0
40
0
40
1
40
1
40
1
40
1
10
26.2117292174
20
29.1018453043
30
0
10
26.1184092174
20
28.8259093043
30
0
10
25.7904612174
20
28.1235421043
30
0
10
25.6505580174
20
27.8999813043
30
0
0
LWPOLYLINE
5
180
100
AcDbEntity
8
name
6
ByLayer
62
7
370
-1
100
AcDbPolyline
90
5
70
0
43
0
10
27.5866900174
20
31.0226981043
10
27.6089084174
20
31.9226965043
10
27.0948500174
20
31.9226965043
10
26.5807908174
20
31.9226965043
10
26.5631692174
20
31.2455613043
0
SPLINE
5
181
100
AcDbEntity
8
name
6
ByLayer
62
7
370
-1
100
AcDbSpline
210
0
220
0
230
1
70
8
71
3
72
8
73
4
74
0
42
1e-07
43
1e-07
40
0
40
0
40
0
40
0
40
1
40
1
40
1
40
1
10
25.2871348174
20
27.9148405043
30
0
10
25.1377452174
20
28.0036981043
30
0
10
25.0155172174
20
28.0870341043
30
0
10
25.0155172174
20
28.1000309043
30
0
0
SPLINE
5
182
100
AcDbEntity
8
name
6
ByLayer
62
7
370
-1
100
AcDbSpline
210
0
220
0
230
1
70
8
71
3
72
8
73
4
74
0
42
1e-07
43
1e-07
40
0
40
0
40
0
40
0
40
1
40
1
40
1
40
1
10
25.0155172174
20
28.1000309043
30
0
10
25.0155172174
20
28.1130261043
30
0
10
25.0797892174
20
28.2394333043
30
0
10
25.1583444174
20
28.3809325043
30
0
0
SPLINE
5
183
100
AcDbEntity
8
name
6
ByLayer
62
7
370
-1
100
AcDbSpline
210
0
220
0
230
1
70
8
71
3
72
8
73
4
74
0
42
1e-07
43
1e-07
40
0
40
0
40
0
40
0
40
1
40
1
40
1
40
1
10
25.1583444174
20
28.3809325043
30
0
10
25.5380532174
20
29.0648901043
30
0
10
25.7944028174
20
29.8532229043
30
0
10
25.9202932174
20
30.7240893043
30
0
0
SPLINE
5
184
100
AcDbEntity
8
name
6
ByLayer
62
7
370
-1
100
AcDbSpline
210
0
220
0
230
1
70
8
71
3
72
8
73
4
74
0
42
1e-07
43
1e-07
40
0
40
0
40
0
40
0
40
1
40
1
40
1
40
1
10
25.9202932174
20
30.7240893043
30
0
10
25.9423284174
20
30.8765333043
30
0
10
25.9622004174
20
31.6404181043
30
0
10
25.9715156174
20
32.6932293043
30
0
0
LWPOLYLINE
5
185
100
AcDbEntity
8
name
6
ByLayer
62
7
370
-1
100
AcDbPolyline
90
3
70
0
43
0
10
25.6505580174
20
27.8999813043
10
25.5587532174
20
27.7532813043
10
25.2871348174
20
27.9148405043
0
SPLINE
5
186
100
AcDbEntity
8
name
6
ByLayer
62
7
370
-1
100
AcDbSpline
210
0
220
0
230
1
70
8
71
3
72
8
73
4
74
0
42
1e-07
43
1e-07
40
0
40
0
40
0
40
0
40
1
40
1
40
1
40
1
10
29.2001172174
20
33.3003157043
30
0
10
29.2461036174
20
32.1664453043
30
0
10
29.3716028174
20
30.9379077043
30
0
10
29.4775988174
20
30.5839933043
30
0
0
LWPOLYLINE
5
187
100
AcDbEntity
8
name
6
ByLayer
62
7
370
-1
100
AcDbPolyline
90
17
70
0
43
0
10
25.9715156174
20
32.6932293043
10
25.9867356174
20
34.4133077043
10
27.2640844174
20
34.4133077043
10
28.5414324174
20
34.4133077043
10
28.5186404174
20
35.0982253043
10
28.4958468174
20
35.7831437043
10
28.8415700174
20
35.7831437043
10
29.1872932174
20
35.7831437043
10
29.1872932174
20
35.0982253043
10
29.1872932174
20
34.4133077043
10
30.1368388174
20
34.4133077043
10
31.0863836174
20
34.4133077043
10
31.0863836174
20
34.1175477043
10
31.0863836174
20
33.8217869043
10
30.1326764174
20
33.8217869043
10
29.1789684174
20
33.8217869043
10
29.2001172174
20
33.3003157043
0
SPLINE
5
188
100
AcDbEntity
8
name
6
ByLayer
62
7
370
-1
100
AcDbSpline
210
0
220
0
230
1
70
8
71
3
72
8
73
4
74
0
42
1e-07
43
1e-07
40
0
40
0
40
0
40
0
40
1
40
1
40
1
40
1
10
29.5744972174
20
30.5684261043
30
0
10
29.7660444174
20
31.0026005043
30
0
10
30.1369212174
20
32.3210885043
30
0
10
30.2028932174
20
32.8024125043
30
0
0
SPLINE
5
189
100
AcDbEntity
8
name
6
ByLayer
62
7
370
-1
100
AcDbSpline
210
0
220
0
230
1
70
8
71
3
72
8
73
4
74
0
42
1e-07
43
1e-07
40
0
40
0
40
0
40
0
40
1
40
1
40
1
40
1
10
30.2028932174
20
32.8024125043
30
0
10
30.2155484174
20
32.8947349043
30
0
10
30.2387164174
20
32.9500733043
30
0
10
30.2647148174
20
32.9500733043
30
0
0
SPLINE
5
18A
100
AcDbEntity
8
name
6
ByLayer
62
7
370
-1
100
AcDbSpline
210
0
220
0
230
1
70
8
71
3
72
8
73
4
74
0
42
1e-07
43
1e-07
40
0
40
0
40
0
40
0
40
1
40
1
40
1
40
1
10
30.2647148174
20
32.9500733043
30
0
10
30.3328132174
20
32.9500733043
30
0
10
30.7887804174
20
32.8486317043
30
0
10
30.8127948174
20
32.8281397043
30
0
0
SPLINE
5
18B
100
AcDbEntity
8
name
6
ByLayer
62
7
370
-1
100
AcDbSpline
210
0
220
0
230
1
70
8
71
3
72
8
73
4
74
0
42
1e-07
43
1e-07
40
0
40
0
40
0
40
0
40
1
40
1
40
1
40
1
10
30.8127948174
20
32.8281397043
30
0
10
30.8440020174
20
32.8015085043
30
0
10
30.6469484174
20
31.9063213043
30
0
10
30.4832044174
20
31.3308517043
30
0
0
SPLINE
5
18C
100
AcDbEntity
8
name
6
ByLayer
62
7
370
-1
100
AcDbSpline
210
0
220
0
230
1
70
8
71
3
72
8
73
4
74
0
42
1e-07
43
1e-07
40
0
40
0
40
0
40
0
40
1
40
1
40
1
40
1
10
30.4832044174
20
31.3308517043
30
0
10
30.3121804174
20
30.7297981043
30
0
10
30.1645724174
20
30.3280717043
30
0
10
29.9463204174
20
29.8696845043
30
0
0
LWPOLYLINE
5
18D
100
AcDbEntity
8
name
6
ByLayer
62
7
370
-1
100
AcDbPolyline
90
3
70
0
43
0
10
29.4775988174
20
30.5839933043
10
29.5195572174
20
30.4438957043
10
29.5744972174
20
30.5684261043
0
SPLINE
5
18E
100
AcDbEntity
8
name
6
ByLayer
62
7
370
-1
100
AcDbSpline
210
0
220
0
230
1
70
8
71
3
72
8
73
4
74
0
42
1e-07
43
1e-07
40
0
40
0
40
0
40
0
40
1
40
1
40
1
40
1
10
29.9652516174
20
29.1295909043
30
0
10
30.2305580174
20
28.5895853043
30
0
10
30.4481260174
20
28.3705453043
30
0
10
30.5229156174
20
28.5681549043
30
0
0
SPLINE
5
18F
100
AcDbEntity
8
name
6
ByLayer
62
7
370
-1
100
AcDbSpline
210
0
220
0
230
1
70
8
71
3
72
8
73
4
74
0
42
1e-07
43
1e-07
40
0
40
0
40
0
40
0
40
1
40
1
40
1
40
1
10
30.5229156174
20
28.5681549043
30
0
10
30.5621332174
20
28.6717773043
30
0
10
30.6142988174
20
29.1155573043
30
0
10
30.6383228174
20
29.5499349043
30
0
0
SPLINE
5
190
100
AcDbEntity
8
name
6
ByLayer
62
7
370
-1
100
AcDbSpline
210
0
220
0
230
1
70
8
71
3
72
8
73
4
74
0
42
1e-07
43
1e-07
40
0
40
0
40
0
40
0
40
1
40
1
40
1
40
1
10
30.6383228174
20
29.5499349043
30
0
10
30.6527092174
20
29.8100525043
30
0
10
30.6704940174
20
29.9279061043
30
0
10
30.6939172174
20
29.9183253043
30
0
0
SPLINE
5
191
100
AcDbEntity
8
name
6
ByLayer
62
7
370
-1
100
AcDbSpline
210
0
220
0
230
1
70
8
71
3
72
8
73
4
74
0
42
1e-07
43
1e-07
40
0
40
0
40
0
40
0
40
1
40
1
40
1
40
1
10
30.6939172174
20
29.9183253043
30
0
10
30.7128596174
20
29.9105765043
30
0
10
30.8614500174
20
29.8591373043
30
0
10
31.0241180174
20
29.8040141043
30
0
0
SPLINE
5
192
100
AcDbEntity
8
name
6
ByLayer
62
7
370
-1
100
AcDbSpline
210
0
220
0
230
1
70
8
71
3
72
8
73
4
74
0
42
1e-07
43
1e-07
40
0
40
0
40
0
40
0
40
1
40
1
40
1
40
1
10
31.0241180174
20
29.8040141043
30
0
10
31.1867860174
20
29.7488917043
30
0
10
31.3244068174
20
29.7000053043
30
0
10
31.3299412174
20
29.6953773043
30
0
0
SPLINE
5
193
100
AcDbEntity
8
name
6
ByLayer
62
7
370
-1
100
AcDbSpline
210
0
220
0
230
1
70
8
71
3
72
8
73
4
74
0
42
1e-07
43
1e-07
40
0
40
0
40
0
40
0
40
1
40
1
40
1
40
1
10
31.3299412174
20
29.6953773043
30
0
10
31.3511236174
20
29.6776677043
30
0
10
31.2326700174
20
28.9672917043
30
0
10
31.1622204174
20
28.6895501043
30
0
0
SPLINE
5
194
100
AcDbEntity
8
name
6
ByLayer
62
7
370
-1
100
AcDbSpline
210
0
220
0
230
1
70
8
71
3
72
8
73
4
74
0
42
1e-07
43
1e-07
40
0
40
0
40
0
40
0
40
1
40
1
40
1
40
1
10
31.1622204174
20
28.6895501043
30
0
10
30.9727532174
20
27.9425949043
30
0
10
30.6486340174
20
27.5903757043
30
0
10
30.3112740174
20
27.7648309043
30
0
0
SPLINE
5
195
100
AcDbEntity
8
name
6
ByLayer
62
7
370
-1
100
AcDbSpline
210
0
220
0
230
1
70
8
71
3
72
8
73
4
74
0
42
1e-07
43
1e-07
40
0
40
0
40
0
40
0
40
1
40
1
40
1
40
1
10
30.3112740174
20
27.7648309043
30
0
10
30.0744556174
20
27.8872941043
30
0
10
29.7987052174
20
28.2066189043
30
0
10
29.5436372174
20
28.6537693043
30
0
0
SPLINE
5
196
100
AcDbEntity
8
name
6
ByLayer
62
7
370
-1
100
AcDbSpline
210
0
220
0
230
1
70
8
71
3
72
8
73
4
74
0
42
1e-07
43
1e-07
40
0
40
0
40
0
40
0
40
1
40
1
40
1
40
1
10
29.5436372174
20
28.6537693043
30
0
10
29.4606140174
20
28.7993141043
30
0
10
29.3872932174
20
28.9254013043
30
0
10
29.3807020174
20
28.9339629043
30
0
0
SPLINE
5
197
100
AcDbEntity
8
name
6
ByLayer
62
7
370
-1
100
AcDbSpline
210
0
220
0
230
1
70
8
71
3
72
8
73
4
74
0
42
1e-07
43
1e-07
40
0
40
0
40
0
40
0
40
1
40
1
40
1
40
1
10
29.3807020174
20
28.9339629043
30
0
10
29.3741116174
20
28.9425245043
30
0
10
29.3249380174
20
28.8934909043
30
0
10
29.2714292174
20
28.8249989043
30
0
0
SPLINE
5
198
100
AcDbEntity
8
name
6
ByLayer
62
7
370
-1
100
AcDbSpline
210
0
220
0
230
1
70
8
71
3
72
8
73
4
74
0
42
1e-07
43
1e-07
40
0
40
0
40
0
40
0
40
1
40
1
40
1
40
1
10
29.2714292174
20
28.8249989043
30
0
10
29.0935676174
20
28.5973341043
30
0
10
28.5837676174
20
28.0887005043
30
0
10
28.3159132174
20
27.8716701043
30
0
0
SPLINE
5
199
100
AcDbEntity
8
name
6
ByLayer
62
7
370
-1
100
AcDbSpline
210
0
220
0
230
1
70
8
71
3
72
8
73
4
74
0
42
1e-07
43
1e-07
40
0
40
0
40
0
40
0
40
1
40
1
40
1
40
1
10
28.3159132174
20
27.8716701043
30
0
10
28.1705524174
20
27.7538901043
30
0
10
28.0444652174
20
27.6582013043
30
0
10
28.0357196174
20
27.6590277043
30
0
0
SPLINE
5
19A
100
AcDbEntity
8
name
6
ByLayer
62
7
370
-1
100
AcDbSpline
210
0
220
0
230
1
70
8
71
3
72
8
73
4
74
0
42
1e-07
43
1e-07
40
0
40
0
40
0
40
0
40
1
40
1
40
1
40
1
10
28.0357196174
20
27.6590277043
30
0
10
28.0269748174
20
27.6598629043
30
0
10
27.9256724174
20
27.7630917043
30
0
10
27.8106044174
20
27.8884437043
30
0
0
LWPOLYLINE
5
19B
100
AcDbEntity
8
name
6
ByLayer
62
7
370
-1
100
AcDbPolyline
90
3
70
0
43
0
10
29.9463204174
20
29.8696845043
10
29.7766836174
20
29.5134013043
10
29.9652516174
20
29.1295909043
0
SPLINE
5
19C
100
AcDbEntity
8
name
6
ByLayer
62
7
370
-1
100
AcDbSpline
210
0
220
0
230
1
70
8
71
3
72
8
73
4
74
0
42
1e-07
43
1e-07
40
0
40
0
40
0
40
0
40
1
40
1
40
1
40
1
10
30.2075428174
20
34.7674301043
30
0
10
30.1436924174
20
34.8551917043
30
0
10
29.9871844174
20
35.0455213043
30
0
10
29.8597476174
20
35.1903853043
30
0
0
LWPOLYLINE
5
19D
100
AcDbEntity
8
name
6
ByLayer
62
7
370
-1
100
AcDbPolyline
90
3
70
0
43
0
10
27.8106044174
20
27.8884437043
10
27.8106044174
20
27.8884437043
10
27.8106052174
20
27.8884437043
0
SPLINE
5
19E
100
AcDbEntity
8
name
6
ByLayer
62
7
370
-1
100
AcDbSpline
210
0
220
0
230
1
70
8
71
3
72
8
73
4
74
0
42
1e-07
43
1e-07
40
0
40
0
40
0
40
0
40
1
40
1
40
1
40
1
10
30.1925668174
20
35.6977421043
30
0
10
30.3117732174
20
35.5849557043
30
0
10
30.7750572174
20
35.0105157043
30
0
10
30.7750572174
20
34.9754949043
30
0
0
SPLINE
5
19F
100
AcDbEntity
8
name
6
ByLayer
62
7
370
-1
100
AcDbSpline
210
0
220
0
230
1
70
8
71
3
72
8
73
4
74
0
42
1e-07
43
1e-07
40
0
40
0
40
0
40
0
40
1
40
1
40
1
40
1
10
30.7750572174
20
34.9754949043
30
0
10
30.7750572174
20
34.9521069043
30
0
10
30.4450692174
20
34.6774765043
30
0
10
30.3547668174
20
34.6257109043
30
0
0
SPLINE
5
1A0
100
AcDbEntity
8
name
6
ByLayer
62
7
370
-1
100
AcDbSpline
210
0
220
0
230
1
70
8
71
3
72
8
73
4
74
0
42
1e-07
43
1e-07
40
0
40
0
40
0
40
0
40
1
40
1
40
1
40
1
10
30.3547668174
20
34.6257109043
30
0
10
30.3376436174
20
34.6158957043
30
0
10
30.2713932174
20
34.6796693043
30
0
10
30.2075428174
20
34.7674301043
30
0
0
LWPOLYLINE
5
1A1
100
AcDbEntity
8
name
6
ByLayer
62
7
370
-1
100
AcDbPolyline
90
5
70
0
43
0
10
29.8597476174
20
35.1903853043
10
29.6280436174
20
35.4537741043
10
29.8649492174
20
35.6186717043
10
30.1018540174
20
35.7835693043
10
30.1925668174
20
35.6977421043
0
SPLINE
5
1A2
100
AcDbEntity
8
name
6
ByLayer
62
7
370
-1
100
AcDbSpline
210
0
220
0
230
1
70
8
71
3
72
8
73
4
74
0
42
1e-07
43
1e-07
40
0
40
0
40
0
40
0
40
1
40
1
40
1
40
1
10
33.4635420174
20
19.1182757043
30
0
10
33.4214140174
20
19.6582101043
30
0
10
33.4310972174
20
21.9801277043
30
0
10
33.4774068174
20
22.4428077043
30
0
0
SPLINE
5
1A3
100
AcDbEntity
8
name
6
ByLayer
62
7
370
-1
100
AcDbSpline
210
0
220
0
230
1
70
8
71
3
72
8
73
4
74
0
42
1e-07
43
1e-07
40
0
40
0
40
0
40
0
40
1
40
1
40
1
40
1
10
33.4774068174
20
22.4428077043
30
0
10
33.5339308174
20
23.0075429043
30
0
10
33.6386652174
20
23.7457773043
30
0
10
33.6662436174
20
23.7738421043
30
0
0
SPLINE
5
1A4
100
AcDbEntity
8
name
6
ByLayer
62
7
370
-1
100
AcDbSpline
210
0
220
0
230
1
70
8
71
3
72
8
73
4
74
0
42
1e-07
43
1e-07
40
0
40
0
40
0
40
0
40
1
40
1
40
1
40
1
10
33.6662436174
20
23.7738421043
30
0
10
33.6789260174
20
23.7867477043
30
0
10
33.8571684174
20
23.7746997043
30
0
10
34.0623412174
20
23.7470533043
30
0
0
LWPOLYLINE
5
1A5
100
AcDbEntity
8
name
6
ByLayer
62
7
370
-1
100
AcDbPolyline
90
2
70
0
43
0
10
30.2075428174
20
34.7674301043
10
30.2075428174
20
34.7674301043
0
SPLINE
5
1A6
100
AcDbEntity
8
name
6
ByLayer
62
7
370
-1
100
AcDbSpline
210
0
220
0
230
1
70
8
71
3
72
8
73
4
74
0
42
1e-07
43
1e-07
40
0
40
0
40
0
40
0
40
1
40
1
40
1
40
1
10
34.3819012174
20
23.2565997043
30
0
10
34.2624908174
20
22.2737245043
30
0
10
34.2463316174
20
21.9294229043
30
0
10
34.2478124174
20
20.3996173043
30
0
0
LWPOLYLINE
5
1A7
100
AcDbEntity
8
name
6
ByLayer
62
7
370
-1
100
AcDbPolyline
90
3
70
0
43
0
10
34.0623412174
20
23.7470533043
10
34.4353812174
20
23.6968005043
10
34.3819012174
20
23.2565997043
0
SPLINE
5
1A8
100
AcDbEntity
8
name
6
ByLayer
62
7
370
-1
100
AcDbSpline
210
0
220
0
230
1
70
8
71
3
72
8
73
4
74
0
42
1e-07
43
1e-07
40
0
40
0
40
0
40
0
40
1
40
1
40
1
40
1
10
33.9209220174
20
18.8485077043
30
0
10
33.7403252174
20
18.8280613043
30
0
10
33.5694292174
20
18.8048405043
30
0
10
33.5411540174
20
18.7969053043
30
0
0
SPLINE
5
1A9
100
AcDbEntity
8
name
6
ByLayer
62
7
370
-1
100
AcDbSpline
210
0
220
0
230
1
70
8
71
3
72
8
73
4
74
0
42
1e-07
43
1e-07
40
0
40
0
40
0
40
0
40
1
40
1
40
1
40
1
10
33.5411540174
20
18.7969053043
30
0
10
33.4967396174
20
18.7844397043
30
0
10
33.4861796174
20
18.8281693043
30
0
10
33.4635436174
20
19.1182757043
30
0
0
LWPOLYLINE
5
1AA
100
AcDbEntity
8
name
6
ByLayer
62
7
370
-1
100
AcDbPolyline
90
3
70
0
43
0
10
34.2478124174
20
20.3996173043
10
34.2492796174
20
18.8856821043
10
33.9209220174
20
18.8485077043
0
SPLINE
5
1AB
100
AcDbEntity
8
name
6
ByLayer
62
7
370
-1
100
AcDbSpline
210
0
220
0
230
1
70
8
71
3
72
8
73
4
74
0
42
1e-07
43
1e-07
40
0
40
0
40
0
40
0
40
1
40
1
40
1
40
1
10
35.2178420174
20
17.0035877043
30
0
10
35.1076900174
20
17.2041173043
30
0
10
35.0191620174
20
17.3705061043
30
0
10
35.0211140174
20
17.3733397043
30
0
0
SPLINE
5
1AC
100
AcDbEntity
8
name
6
ByLayer
62
7
370
-1
100
AcDbSpline
210
0
220
0
230
1
70
8
71
3
72
8
73
4
74
0
42
1e-07
43
1e-07
40
0
40
0
40
0
40
0
40
1
40
1
40
1
40
1
10
35.0211140174
20
17.3733397043
30
0
10
35.0230556174
20
17.3761725043
30
0
10
35.1911428174
20
17.4158213043
30
0
10
35.3946172174
20
17.4614461043
30
0
0
SPLINE
5
1AD
100
AcDbEntity
8
name
6
ByLayer
62
7
370
-1
100
AcDbSpline
210
0
220
0
230
1
70
8
71
3
72
8
73
4
74
0
42
1e-07
43
1e-07
40
0
40
0
40
0
40
0
40
1
40
1
40
1
40
1
10
35.3946172174
20
17.4614461043
30
0
10
36.3161228174
20
17.6680749043
30
0
10
36.9778124174
20
17.9941525043
30
0
10
37.3820404174
20
18.4408389043
30
0
0
SPLINE
5
1AE
100
AcDbEntity
8
name
6
ByLayer
62
7
370
-1
100
AcDbSpline
210
0
220
0
230
1
70
8
71
3
72
8
73
4
74
0
42
1e-07
43
1e-07
40
0
40
0
40
0
40
0
40
1
40
1
40
1
40
1
10
37.3820404174
20
18.4408389043
30
0
10
37.8474300174
20
18.9551101043
30
0
10
38.0597244174
20
19.8965861043
30
0
10
38.0599884174
20
21.4473805043
30
0
0
SPLINE
5
1AF
100
AcDbEntity
8
name
6
ByLayer
62
7
370
-1
100
AcDbSpline
210
0
220
0
230
1
70
8
71
3
72
8
73
4
74
0
42
1e-07
43
1e-07
40
0
40
0
40
0
40
0
40
1
40
1
40
1
40
1
10
38.0599884174
20
21.4473805043
30
0
10
38.0601060174
20
22.1387277043
30
0
10
38.0272388174
20
22.4949085043
30
0
10
37.9345484174
20
22.8067477043
30
0
0
SPLINE
5
1B0
100
AcDbEntity
8
name
6
ByLayer
62
7
370
-1
100
AcDbSpline
210
0
220
0
230
1
70
8
71
3
72
8
73
4
74
0
42
1e-07
43
1e-07
40
0
40
0
40
0
40
0
40
1
40
1
40
1
40
1
10
37.9345484174
20
22.8067477043
30
0
10
37.8400916174
20
23.1245325043
30
0
10
37.6339908174
20
23.3082757043
30
0
10
37.4295492174
20
23.2569645043
30
0
0
SPLINE
5
1B1
100
AcDbEntity
8
name
6
ByLayer
62
7
370
-1
100
AcDbSpline
210
0
220
0
230
1
70
8
71
3
72
8
73
4
74
0
42
1e-07
43
1e-07
40
0
40
0
40
0
40
0
40
1
40
1
40
1
40
1
10
37.4295492174
20
23.2569645043
30
0
10
37.3201620174
20
23.2295101043
30
0
10
36.9515004174
20
22.9099989043
30
0
10
36.7915412174
20
22.7040197043
30
0
0
LWPOLYLINE
5
1B2
100
AcDbEntity
8
name
6
ByLayer
62
7
370
-1
100
AcDbPolyline
90
3
70
0
43
0
10
33.4635436174
20
19.1182757043
10
33.4635436174
20
19.1182757043
10
33.4635420174
20
19.1182757043
0
SPLINE
5
1B3
100
AcDbEntity
8
name
6
ByLayer
62
7
370
-1
100
AcDbSpline
210
0
220
0
230
1
70
8
71
3
72
8
73
4
74
0
42
1e-07
43
1e-07
40
0
40
0
40
0
40
0
40
1
40
1
40
1
40
1
10
36.2082428174
20
23.1348797043
30
0
10
36.3191516174
20
23.3446149043
30
0
10
36.8063004174
20
23.8021893043
30
0
10
37.0466588174
20
23.9223957043
30
0
0
SPLINE
5
1B4
100
AcDbEntity
8
name
6
ByLayer
62
7
370
-1
100
AcDbSpline
210
0
220
0
230
1
70
8
71
3
72
8
73
4
74
0
42
1e-07
43
1e-07
40
0
40
0
40
0
40
0
40
1
40
1
40
1
40
1
10
37.0466588174
20
23.9223957043
30
0
10
37.2429844174
20
24.0205821043
30
0
10
37.2875508174
20
24.0305725043
30
0
10
37.5292140174
20
24.0305725043
30
0
0
SPLINE
5
1B5
100
AcDbEntity
8
name
6
ByLayer
62
7
370
-1
100
AcDbSpline
210
0
220
0
230
1
70
8
71
3
72
8
73
4
74
0
42
1e-07
43
1e-07
40
0
40
0
40
0
40
0
40
1
40
1
40
1
40
1
10
37.5292140174
20
24.0305725043
30
0
10
37.7509884174
20
24.0305725043
30
0
10
37.8240732174
20
24.0170869043
30
0
10
37.9666972174
20
23.9498437043
30
0
0
SPLINE
5
1B6
100
AcDbEntity
8
name
6
ByLayer
62
7
370
-1
100
AcDbSpline
210
0
220
0
230
1
70
8
71
3
72
8
73
4
74
0
42
1e-07
43
1e-07
40
0
40
0
40
0
40
0
40
1
40
1
40
1
40
1
10
37.9666972174
20
23.9498437043
30
0
10
38.4244316174
20
23.7340389043
30
0
10
38.7258772174
20
23.1595485043
30
0
10
38.8375220174
20
22.2902381043
30
0
0
SPLINE
5
1B7
100
AcDbEntity
8
name
6
ByLayer
62
7
370
-1
100
AcDbSpline
210
0
220
0
230
1
70
8
71
3
72
8
73
4
74
0
42
1e-07
43
1e-07
40
0
40
0
40
0
40
0
40
1
40
1
40
1
40
1
10
38.8375220174
20
22.2902381043
30
0
10
38.8820316174
20
21.9436733043
30
0
10
38.8821828174
20
20.7358549043
30
0
10
38.8377476174
20
20.2706141043
30
0
0
SPLINE
5
1B8
100
AcDbEntity
8
name
6
ByLayer
62
7
370
-1
100
AcDbSpline
210
0
220
0
230
1
70
8
71
3
72
8
73
4
74
0
42
1e-07
43
1e-07
40
0
40
0
40
0
40
0
40
1
40
1
40
1
40
1
10
38.8377476174
20
20.2706141043
30
0
10
38.7405076174
20
19.2518885043
30
0
10
38.5302268174
20
18.5679053043
30
0
10
38.1716532174
20
18.1039997043
30
0
0
SPLINE
5
1B9
100
AcDbEntity
8
name
6
ByLayer
62
7
370
-1
100
AcDbSpline
210
0
220
0
230
1
70
8
71
3
72
8
73
4
74
0
42
1e-07
43
1e-07
40
0
40
0
40
0
40
0
40
1
40
1
40
1
40
1
10
38.1716532174
20
18.1039997043
30
0
10
37.6677444174
20
17.4520653043
30
0
10
36.9028188174
20
16.9921317043
30
0
10
35.9185196174
20
16.7492405043
30
0
0
SPLINE
5
1BA
100
AcDbEntity
8
name
6
ByLayer
62
7
370
-1
100
AcDbSpline
210
0
220
0
230
1
70
8
71
3
72
8
73
4
74
0
42
1e-07
43
1e-07
40
0
40
0
40
0
40
0
40
1
40
1
40
1
40
1
10
35.9185196174
20
16.7492405043
30
0
10
35.3681044174
20
16.6134173043
30
0
10
35.4480852174
20
16.5843853043
30
0
10
35.2178156174
20
17.0035877043
30
0
0
LWPOLYLINE
5
1BB
100
AcDbEntity
8
name
6
ByLayer
62
7
370
-1
100
AcDbPolyline
90
5
70
0
43
0
10
36.7915412174
20
22.7040197043
10
36.6469036174
20
22.5177669043
10
36.3967108174
20
22.7679605043
10
36.1465172174
20
23.0181533043
10
36.2082428174
20
23.1348797043
0
SPLINE
5
1BC
100
AcDbEntity
8
name
6
ByLayer
62
7
370
-1
100
AcDbSpline
210
0
220
0
230
1
70
8
71
3
72
8
73
4
74
0
42
1e-07
43
1e-07
40
0
40
0
40
0
40
0
40
1
40
1
40
1
40
1
10
26.6252236174
20
16.9174053043
30
0
10
25.8592132174
20
16.9859109043
30
0
10
25.2234572174
20
17.1452365043
30
0
10
24.8718412174
20
17.3568157043
30
0
0
SPLINE
5
1BD
100
AcDbEntity
8
name
6
ByLayer
62
7
370
-1
100
AcDbSpline
210
0
220
0
230
1
70
8
71
3
72
8
73
4
74
0
42
1e-07
43
1e-07
40
0
40
0
40
0
40
0
40
1
40
1
40
1
40
1
10
24.8718412174
20
17.3568157043
30
0
10
24.5209460174
20
17.5679621043
30
0
10
24.2299740174
20
17.9762309043
30
0
10
24.1470772174
20
18.3737477043
30
0
0
SPLINE
5
1BE
100
AcDbEntity
8
name
6
ByLayer
62
7
370
-1
100
AcDbSpline
210
0
220
0
230
1
70
8
71
3
72
8
73
4
74
0
42
1e-07
43
1e-07
40
0
40
0
40
0
40
0
40
1
40
1
40
1
40
1
10
24.1470772174
20
18.3737477043
30
0
10
24.0979316174
20
18.6094173043
30
0
10
24.1046020174
20
19.0517013043
30
0
10
24.1605716174
20
19.2685205043
30
0
0
SPLINE
5
1BF
100
AcDbEntity
8
name
6
ByLayer
62
7
370
-1
100
AcDbSpline
210
0
220
0
230
1
70
8
71
3
72
8
73
4
74
0
42
1e-07
43
1e-07
40
0
40
0
40
0
40
0
40
1
40
1
40
1
40
1
10
24.1605716174
20
19.2685205043
30
0
10
24.3191628174
20
19.8828773043
30
0
10
24.8028876174
20
20.4357533043
30
0
10
25.5680580174
20
20.8772165043
30
0
0
SPLINE
5
1C0
100
AcDbEntity
8
name
6
ByLayer
62
7
370
-1
100
AcDbSpline
210
0
220
0
230
1
70
8
71
3
72
8
73
4
74
0
42
1e-07
43
1e-07
40
0
40
0
40
0
40
0
40
1
40
1
40
1
40
1
10
25.5680580174
20
20.8772165043
30
0
10
25.7179196174
20
20.9636789043
30
0
10
25.9019676174
20
21.0609205043
30
0
10
25.9770524174
20
21.0933085043
30
0
0
LWPOLYLINE
5
1C1
100
AcDbEntity
8
name
6
ByLayer
62
7
370
-1
100
AcDbPolyline
90
3
70
0
43
0
10
35.2178156174
20
17.0035877043
10
35.2178172174
20
17.0035877043
10
35.2178420174
20
17.0035877043
0
SPLINE
5
1C2
100
AcDbEntity
8
name
6
ByLayer
62
7
370
-1
100
AcDbSpline
210
0
220
0
230
1
70
8
71
3
72
8
73
4
74
0
42
1e-07
43
1e-07
40
0
40
0
40
0
40
0
40
1
40
1
40
1
40
1
10
26.0948900174
20
21.3149453043
30
0
10
26.0050524174
20
22.0976093043
30
0
10
25.8607180174
20
24.1912821043
30
0
10
25.8947596174
20
24.2179685043
30
0
0
SPLINE
5
1C3
100
AcDbEntity
8
name
6
ByLayer
62
7
370
-1
100
AcDbSpline
210
0
220
0
230
1
70
8
71
3
72
8
73
4
74
0
42
1e-07
43
1e-07
40
0
40
0
40
0
40
0
40
1
40
1
40
1
40
1
10
25.8947596174
20
24.2179685043
30
0
10
25.8991804174
20
24.2214341043
30
0
10
26.0734316174
20
24.2330549043
30
0
10
26.2819820174
20
24.2437885043
30
0
0
LWPOLYLINE
5
1C4
100
AcDbEntity
8
name
6
ByLayer
62
7
370
-1
100
AcDbPolyline
90
3
70
0
43
0
10
25.9770524174
20
21.0933085043
10
26.1135708174
20
21.1521949043
10
26.0948900174
20
21.3149453043
0
SPLINE
5
1C5
100
AcDbEntity
8
name
6
ByLayer
62
7
370
-1
100
AcDbSpline
210
0
220
0
230
1
70
8
71
3
72
8
73
4
74
0
42
1e-07
43
1e-07
40
0
40
0
40
0
40
0
40
1
40
1
40
1
40
1
10
26.6776052174
20
24.1002389043
30
0
10
26.6866476174
20
24.0105533043
30
0
10
26.7016188174
20
23.6990085043
30
0
10
26.7108732174
20
23.4079189043
30
0
0
SPLINE
5
1C6
100
AcDbEntity
8
name
6
ByLayer
62
7
370
-1
100
AcDbSpline
210
0
220
0
230
1
70
8
71
3
72
8
73
4
74
0
42
1e-07
43
1e-07
40
0
40
0
40
0
40
0
40
1
40
1
40
1
40
1
10
26.7108732174
20
23.4079189043
30
0
10
26.7269076174
20
22.9035709043
30
0
10
26.7770796174
20
22.3236213043
30
0
10
26.8552308174
20
21.7392525043
30
0
0
LWPOLYLINE
5
1C7
100
AcDbEntity
8
name
6
ByLayer
62
7
370
-1
100
AcDbPolyline
90
3
70
0
43
0
10
26.2819820174
20
24.2437885043
10
26.6611644174
20
24.2633045043
10
26.6776052174
20
24.1002389043
0
SPLINE
5
1C8
100
AcDbEntity
8
name
6
ByLayer
62
7
370
-1
100
AcDbSpline
210
0
220
0
230
1
70
8
71
3
72
8
73
4
74
0
42
1e-07
43
1e-07
40
0
40
0
40
0
40
0
40
1
40
1
40
1
40
1
10
27.2997620174
20
21.5928253043
30
0
10
27.9569540174
20
21.7878149043
30
0
10
30.0327228174
20
22.3338429043
30
0
10
30.1167996174
20
22.3338429043
30
0
0
SPLINE
5
1C9
100
AcDbEntity
8
name
6
ByLayer
62
7
370
-1
100
AcDbSpline
210
0
220
0
230
1
70
8
71
3
72
8
73
4
74
0
42
1e-07
43
1e-07
40
0
40
0
40
0
40
0
40
1
40
1
40
1
40
1
10
30.1167996174
20
22.3338429043
30
0
10
30.1444932174
20
22.3338429043
30
0
10
30.3859980174
20
21.6212773043
30
0
10
30.3644820174
20
21.6030477043
30
0
0
SPLINE
5
1CA
100
AcDbEntity
8
name
6
ByLayer
62
7
370
-1
100
AcDbSpline
210
0
220
0
230
1
70
8
71
3
72
8
73
4
74
0
42
1e-07
43
1e-07
40
0
40
0
40
0
40
0
40
1
40
1
40
1
40
1
10
30.3644820174
20
21.6030477043
30
0
10
30.3591380174
20
21.5985205043
30
0
10
30.2463020174
20
21.5710349043
30
0
10
30.1137340174
20
21.5419693043
30
0
0
SPLINE
5
1CB
100
AcDbEntity
8
name
6
ByLayer
62
7
370
-1
100
AcDbSpline
210
0
220
0
230
1
70
8
71
3
72
8
73
4
74
0
42
1e-07
43
1e-07
40
0
40
0
40
0
40
0
40
1
40
1
40
1
40
1
10
30.1137340174
20
21.5419693043
30
0
10
29.2712028174
20
21.3572453043
30
0
10
27.5461252174
20
20.8555725043
30
0
10
26.8212116174
20
20.5844653043
30
0
0
SPLINE
5
1CC
100
AcDbEntity
8
name
6
ByLayer
62
7
370
-1
100
AcDbSpline
210
0
220
0
230
1
70
8
71
3
72
8
73
4
74
0
42
1e-07
43
1e-07
40
0
40
0
40
0
40
0
40
1
40
1
40
1
40
1
10
26.8212116174
20
20.5844653043
30
0
10
25.8331468174
20
20.2149429043
30
0
10
25.2171860174
20
19.7861253043
30
0
10
24.9679796174
20
19.2942885043
30
0
0
SPLINE
5
1CD
100
AcDbEntity
8
name
6
ByLayer
62
7
370
-1
100
AcDbSpline
210
0
220
0
230
1
70
8
71
3
72
8
73
4
74
0
42
1e-07
43
1e-07
40
0
40
0
40
0
40
0
40
1
40
1
40
1
40
1
10
24.9679796174
20
19.2942885043
30
0
10
24.8836732174
20
19.1278997043
30
0
10
24.8754220174
20
19.0838605043
30
0
10
24.8754220174
20
18.8002877043
30
0
0
SPLINE
5
1CE
100
AcDbEntity
8
name
6
ByLayer
62
7
370
-1
100
AcDbSpline
210
0
220
0
230
1
70
8
71
3
72
8
73
4
74
0
42
1e-07
43
1e-07
40
0
40
0
40
0
40
0
40
1
40
1
40
1
40
1
10
24.8754220174
20
18.8002877043
30
0
10
24.8754220174
20
18.5182693043
30
0
10
24.8833196174
20
18.4755285043
30
0
10
24.9593140174
20
18.3462613043
30
0
0
SPLINE
5
1CF
100
AcDbEntity
8
name
6
ByLayer
62
7
370
-1
100
AcDbSpline
210
0
220
0
230
1
70
8
71
3
72
8
73
4
74
0
42
1e-07
43
1e-07
40
0
40
0
40
0
40
0
40
1
40
1
40
1
40
1
10
24.9593140174
20
18.3462613043
30
0
10
25.2064556174
20
17.9258709043
30
0
10
25.6424988174
20
17.7464493043
30
0
10
26.6127620174
20
17.6659053043
30
0
0
SPLINE
5
1D0
100
AcDbEntity
8
name
6
ByLayer
62
7
370
-1
100
AcDbSpline
210
0
220
0
230
1
70
8
71
3
72
8
73
4
74
0
42
1e-07
43
1e-07
40
0
40
0
40
0
40
0
40
1
40
1
40
1
40
1
10
26.6127620174
20
17.6659053043
30
0
10
27.4008812174
20
17.6004829043
30
0
10
28.3459428174
20
17.6338717043
30
0
10
29.9241044174
20
17.7828949043
30
0
0
LWPOLYLINE
5
1D1
100
AcDbEntity
8
name
6
ByLayer
62
7
370
-1
100
AcDbPolyline
90
3
70
0
43
0
10
26.8552308174
20
21.7392525043
10
26.8910316174
20
21.4715549043
10
27.2997620174
20
21.5928253043
0
SPLINE
5
1D2
100
AcDbEntity
8
name
6
ByLayer
62
7
370
-1
100
AcDbSpline
210
0
220
0
230
1
70
8
71
3
72
8
73
4
74
0
42
1e-07
43
1e-07
40
0
40
0
40
0
40
0
40
1
40
1
40
1
40
1
10
30.4724804174
20
17.4310149043
30
0
10
30.4630180174
20
17.2081069043
30
0
10
30.4536748174
20
17.0241125043
30
0
10
30.4517196174
20
17.0221381043
30
0
0
SPLINE
5
1D3
100
AcDbEntity
8
name
6
ByLayer
62
7
370
-1
100
AcDbSpline
210
0
220
0
230
1
70
8
71
3
72
8
73
4
74
0
42
1e-07
43
1e-07
40
0
40
0
40
0
40
0
40
1
40
1
40
1
40
1
10
30.4517196174
20
17.0221381043
30
0
10
30.4497556174
20
17.0201733043
30
0
10
30.0628988174
20
16.9943213043
30
0
10
29.5920172174
20
16.9647117043
30
0
0
SPLINE
5
1D4
100
AcDbEntity
8
name
6
ByLayer
62
7
370
-1
100
AcDbSpline
210
0
220
0
230
1
70
8
71
3
72
8
73
4
74
0
42
1e-07
43
1e-07
40
0
40
0
40
0
40
0
40
1
40
1
40
1
40
1
10
29.5920172174
20
16.9647117043
30
0
10
28.6002220174
20
16.9023453043
30
0
10
27.0669844174
20
16.8778965043
30
0
10
26.6252244174
20
16.9174045043
30
0
0
LWPOLYLINE
5
1D5
100
AcDbEntity
8
name
6
ByLayer
62
7
370
-1
100
AcDbPolyline
90
3
70
0
43
0
10
29.9241044174
20
17.7828949043
10
30.4896868174
20
17.8363021043
10
30.4724804174
20
17.4310149043
0
SPLINE
5
1D6
100
AcDbEntity
8
name
6
ByLayer
62
7
370
-1
100
AcDbSpline
210
0
220
0
230
1
70
8
71
3
72
8
73
4
74
0
42
1e-07
43
1e-07
40
0
40
0
40
0
40
0
40
1
40
1
40
1
40
1
10
14.9798660174
20
16.9848597043
30
0
10
14.9354556174
20
17.6902741043
30
0
10
14.9212604174
20
20.2512845043
30
0
10
14.9566892174
20
21.1663693043
30
0
0
SPLINE
5
1D7
100
AcDbEntity
8
name
6
ByLayer
62
7
370
-1
100
AcDbSpline
210
0
220
0
230
1
70
8
71
3
72
8
73
4
74
0
42
1e-07
43
1e-07
40
0
40
0
40
0
40
0
40
1
40
1
40
1
40
1
10
14.9566892174
20
21.1663693043
30
0
10
15.0022308174
20
22.3426549043
30
0
10
15.1292076174
20
23.9204765043
30
0
10
15.1819892174
20
23.9659549043
30
0
0
SPLINE
5
1D8
100
AcDbEntity
8
name
6
ByLayer
62
7
370
-1
100
AcDbSpline
210
0
220
0
230
1
70
8
71
3
72
8
73
4
74
0
42
1e-07
43
1e-07
40
0
40
0
40
0
40
0
40
1
40
1
40
1
40
1
10
15.1819892174
20
23.9659549043
30
0
10
15.1881396174
20
23.9712533043
30
0
10
15.3656740174
20
23.9613845043
30
0
10
15.5765100174
20
23.9440221043
30
0
0
LWPOLYLINE
5
1D9
100
AcDbEntity
8
name
6
ByLayer
62
7
370
-1
100
AcDbPolyline
90
3
70
0
43
0
10
26.6252244174
20
16.9174045043
10
26.6252244174
20
16.9174045043
10
26.6252236174
20
16.9174053043
0
SPLINE
5
1DA
100
AcDbEntity
8
name
6
ByLayer
62
7
370
-1
100
AcDbSpline
210
0
220
0
230
1
70
8
71
3
72
8
73
4
74
0
42
1e-07
43
1e-07
40
0
40
0
40
0
40
0
40
1
40
1
40
1
40
1
10
15.9422100174
20
23.8002837043
30
0
10
15.8693588174
20
23.3369605043
30
0
10
15.7787628174
20
22.1506493043
30
0
10
15.7351212174
20
21.0885389043
30
0
0
SPLINE
5
1DB
100
AcDbEntity
8
name
6
ByLayer
62
7
370
-1
100
AcDbSpline
210
0
220
0
230
1
70
8
71
3
72
8
73
4
74
0
42
1e-07
43
1e-07
40
0
40
0
40
0
40
0
40
1
40
1
40
1
40
1
10
15.7351212174
20
21.0885389043
30
0
10
15.6997580174
20
20.2279109043
30
0
10
15.7120692174
20
18.1290317043
30
0
10
15.7581524174
20
17.1621101043
30
0
0
LWPOLYLINE
5
1DC
100
AcDbEntity
8
name
6
ByLayer
62
7
370
-1
100
AcDbPolyline
90
3
70
0
43
0
10
15.5765100174
20
23.9440221043
10
15.9598476174
20
23.9124541043
10
15.9422100174
20
23.8002837043
0
SPLINE
5
1DD
100
AcDbEntity
8
name
6
ByLayer
62
7
370
-1
100
AcDbSpline
210
0
220
0
230
1
70
8
71
3
72
8
73
4
74
0
42
1e-07
43
1e-07
40
0
40
0
40
0
40
0
40
1
40
1
40
1
40
1
10
15.5013324174
20
16.7174333043
30
0
10
15.3489668174
20
16.7060653043
30
0
10
15.1738540174
20
16.6893461043
30
0
10
15.1121916174
20
16.6802805043
30
0
0
LWPOLYLINE
5
1DE
100
AcDbEntity
8
name
6
ByLayer
62
7
370
-1
100
AcDbPolyline
90
3
70
0
43
0
10
15.7581524174
20
17.1621101043
10
15.7783604174
20
16.7381029043
10
15.5013324174
20
16.7174333043
0
LWPOLYLINE
5
1DF
100
AcDbEntity
8
name
6
ByLayer
62
7
370
-1
100
AcDbPolyline
90
5
70
0
43
0
10
15.1121916174
20
16.6802805043
10
15.0000788174
20
16.6637965043
10
14.9798660174
20
16.9848597043
10
14.9798660174
20
16.9848597043
10
14.9798660174
20
16.9848597043
0
SPLINE
5
1E0
100
AcDbEntity
8
name
6
ByLayer
62
7
370
-1
100
AcDbSpline
210
0
220
0
230
1
70
8
71
3
72
8
73
4
74
0
42
1e-07
43
1e-07
40
0
40
0
40
0
40
0
40
1
40
1
40
1
40
1
10
17.2868420174
20
22.9388069043
30
0
10
18.1083476174
20
22.9992797043
30
0
10
18.6917284174
20
23.0212237043
30
0
10
19.9642484174
20
23.0395181043
30
0
0
LWPOLYLINE
5
1E1
100
AcDbEntity
8
name
6
ByLayer
62
7
370
-1
100
AcDbPolyline
90
3
70
0
43
0
10
17.0144316174
20
22.5456717043
10
17.0144316174
20
22.9187533043
10
17.2868420174
20
22.9388069043
0
SPLINE
5
1E2
100
AcDbEntity
8
name
6
ByLayer
62
7
370
-1
100
AcDbSpline
210
0
220
0
230
1
70
8
71
3
72
8
73
4
74
0
42
1e-07
43
1e-07
40
0
40
0
40
0
40
0
40
1
40
1
40
1
40
1
10
19.9642484174
20
22.2923181043
30
0
10
18.6840980174
20
22.2740101043
30
0
10
17.9927276174
20
22.2483797043
30
0
10
17.2712756174
20
22.1924885043
30
0
0
LWPOLYLINE
5
1E3
100
AcDbEntity
8
name
6
ByLayer
62
7
370
-1
100
AcDbPolyline
90
5
70
0
43
0
10
19.9642484174
20
23.0395181043
10
21.3730004174
20
23.0597709043
10
21.3730004174
20
22.6861189043
10
21.3730004174
20
22.3124669043
10
19.9642484174
20
22.2923181043
0
SPLINE
5
1E4
100
AcDbEntity
8
name
6
ByLayer
62
7
370
-1
100
AcDbSpline
210
0
220
0
230
1
70
8
71
3
72
8
73
4
74
0
42
1e-07
43
1e-07
40
0
40
0
40
0
40
0
40
1
40
1
40
1
40
1
10
19.0069204174
20
17.1550997043
30
0
10
18.2694460174
20
17.2257717043
30
0
10
17.8364660174
20
17.3246661043
30
0
10
17.5073668174
20
17.4976029043
30
0
0
SPLINE
5
1E5
100
AcDbEntity
8
name
6
ByLayer
62
7
370
-1
100
AcDbSpline
210
0
220
0
230
1
70
8
71
3
72
8
73
4
74
0
42
1e-07
43
1e-07
40
0
40
0
40
0
40
0
40
1
40
1
40
1
40
1
10
17.5073668174
20
17.4976029043
30
0
10
17.2068164174
20
17.6555373043
30
0
10
16.9763004174
20
17.8856093043
30
0
10
16.8514444174
20
18.1522613043
30
0
0
SPLINE
5
1E6
100
AcDbEntity
8
name
6
ByLayer
62
7
370
-1
100
AcDbSpline
210
0
220
0
230
1
70
8
71
3
72
8
73
4
74
0
42
1e-07
43
1e-07
40
0
40
0
40
0
40
0
40
1
40
1
40
1
40
1
10
16.8514444174
20
18.1522613043
30
0
10
16.6515524174
20
18.5791653043
30
0
10
16.7093060174
20
19.1708317043
30
0
10
17.0119220174
20
19.7963181043
30
0
0
SPLINE
5
1E7
100
AcDbEntity
8
name
6
ByLayer
62
7
370
-1
100
AcDbSpline
210
0
220
0
230
1
70
8
71
3
72
8
73
4
74
0
42
1e-07
43
1e-07
40
0
40
0
40
0
40
0
40
1
40
1
40
1
40
1
10
17.0119220174
20
19.7963181043
30
0
10
17.2428404174
20
20.2736101043
30
0
10
17.1938444174
20
20.2510901043
30
0
10
17.5816948174
20
20.0581989043
30
0
0
LWPOLYLINE
5
1E8
100
AcDbEntity
8
name
6
ByLayer
62
7
370
-1
100
AcDbPolyline
90
4
70
0
43
0
10
17.2712756174
20
22.1924885043
10
17.0144316174
20
22.1725909043
10
17.0144316174
20
22.5456717043
10
17.0144316174
20
22.5456717043
0
SPLINE
5
1E9
100
AcDbEntity
8
name
6
ByLayer
62
7
370
-1
100
AcDbSpline
210
0
220
0
230
1
70
8
71
3
72
8
73
4
74
0
42
1e-07
43
1e-07
40
0
40
0
40
0
40
0
40
1
40
1
40
1
40
1
10
17.7902068174
20
19.6513829043
30
0
10
17.4371204174
20
18.9491309043
30
0
10
17.4269116174
20
18.5451469043
30
0
10
17.7547804174
20
18.2495437043
30
0
0
SPLINE
5
1EA
100
AcDbEntity
8
name
6
ByLayer
62
7
370
-1
100
AcDbSpline
210
0
220
0
230
1
70
8
71
3
72
8
73
4
74
0
42
1e-07
43
1e-07
40
0
40
0
40
0
40
0
40
1
40
1
40
1
40
1
10
17.7547804174
20
18.2495437043
30
0
10
17.8969348174
20
18.1213789043
30
0
10
18.1293844174
20
18.0374205043
30
0
10
18.5250412174
20
17.9713357043
30
0
0
SPLINE
5
1EB
100
AcDbEntity
8
name
6
ByLayer
62
7
370
-1
100
AcDbSpline
210
0
220
0
230
1
70
8
71
3
72
8
73
4
74
0
42
1e-07
43
1e-07
40
0
40
0
40
0
40
0
40
1
40
1
40
1
40
1
10
18.5250412174
20
17.9713357043
30
0
10
18.9039892174
20
17.9080405043
30
0
10
20.3702540174
20
17.9167381043
30
0
10
21.1339644174
20
17.9868125043
30
0
0
SPLINE
5
1EC
100
AcDbEntity
8
name
6
ByLayer
62
7
370
-1
100
AcDbSpline
210
0
220
0
230
1
70
8
71
3
72
8
73
4
74
0
42
1e-07
43
1e-07
40
0
40
0
40
0
40
0
40
1
40
1
40
1
40
1
10
21.1339644174
20
17.9868125043
30
0
10
21.4733756174
20
18.0179549043
30
0
10
21.7557580174
20
18.0386061043
30
0
10
21.7614796174
20
18.0327045043
30
0
0
SPLINE
5
1ED
100
AcDbEntity
8
name
6
ByLayer
62
7
370
-1
100
AcDbSpline
210
0
220
0
230
1
70
8
71
3
72
8
73
4
74
0
42
1e-07
43
1e-07
40
0
40
0
40
0
40
0
40
1
40
1
40
1
40
1
10
21.7614796174
20
18.0327045043
30
0
10
21.7672036174
20
18.0268029043
30
0
10
21.7572196174
20
17.8451045043
30
0
10
21.7392948174
20
17.6289309043
30
0
0
LWPOLYLINE
5
1EE
100
AcDbEntity
8
name
6
ByLayer
62
7
370
-1
100
AcDbPolyline
90
3
70
0
43
0
10
17.5816948174
20
20.0581989043
10
17.9121244174
20
19.8938653043
10
17.7902068174
20
19.6513829043
0
SPLINE
5
1EF
100
AcDbEntity
8
name
6
ByLayer
62
7
370
-1
100
AcDbSpline
210
0
220
0
230
1
70
8
71
3
72
8
73
4
74
0
42
1e-07
43
1e-07
40
0
40
0
40
0
40
0
40
1
40
1
40
1
40
1
10
21.4853708174
20
17.2162013043
30
0
10
20.6801604174
20
17.1445821043
30
0
10
19.4365988174
20
17.1139253043
30
0
10
19.0069204174
20
17.1551013043
30
0
0
LWPOLYLINE
5
1F0
100
AcDbEntity
8
name
6
ByLayer
62
7
370
-1
100
AcDbPolyline
90
3
70
0
43
0
10
21.7392948174
20
17.6289309043
10
21.7067052174
20
17.2358869043
10
21.4853708174
20
17.2162013043
0
LWPOLYLINE
5
1F1
100
AcDbEntity
8
name
6
ByLayer
62
7
370
-1
100
AcDbPolyline
90
2
70
0
43
0
10
19.0069204174
20
17.1551013043
10
19.0069204174
20
17.1550997043
0
ENDSEC
0
SECTION
2
OBJECTS
0
DICTIONARY
5
C
330
0
100
AcDbDictionary
281
1
3
ACAD_GROUP
350
D
0
DICTIONARY
5
D
330
C
100
AcDbDictionary
281
1
0
ENDSEC
0
EOF
