999
dxfrw 0.5.10
0
SECTION
2
HEADER
9
$ACADVER
1
AC1021
9
$HANDSEED
5
20000
9
$DWGCODEPAGE
3
ANSI_1252
9
$INSBASE
10
0
20
0
30
0
9
$EXTMIN
10
0
20
-0.004411
30
0
9
$EXTMAX
10
200.348879373
20
178.139547
30
0
9
$LIMMIN
10
0
20
0
9
$LIMMAX
10
420
20
297
9
$ORTHOMODE
70
0
9
$LTSCALE
40
1
9
$TEXTSTYLE
7
STANDARD
9
$CLAYER
8
0
9
$DIMASZ
40
2.5
9
$DIMLFAC
40
1
9
$DIMSCALE
40
1
9
$DIMEXO
40
0.625
9
$DIMEXE
40
1.25
9
$DIMTXT
40
2.5
9
$DIMTSZ
40
0
9
$DIMAUNIT
70
0
9
$DIMADEC
70
0
9
$DIMLUNIT
70
2
9
$DIMSTYLE
2
Standard
9
$DIMGAP
40
0.625
9
$DIMTIH
70
0
9
$LUNITS
70
2
9
$LUPREC
70
4
9
$AUNITS
70
0
9
$AUPREC
70
2
9
$SPLINESEGS
70
8
9
$GRIDMODE
70
0
9
$SNAPSTYLE
70
0
9
$PINSBASE
10
0
20
0
30
0
9
$PLIMMIN
10
0
20
0
9
$PLIMMAX
10
210
20
297
9
$INSUNITS
70
4
9
$PSVPSCALE
40
1
0
ENDSEC
0
SECTION
2
CLASSES
0
ENDSEC
0
SECTION
2
TABLES
0
TABLE
2
VPORT
5
8
330
0
100
AcDbSymbolTable
70
1
0
VPORT
5
31
330
2
100
AcDbSymbolTableRecord
100
AcDbViewportTableRecord
2
*ACTIVE
70
0
10
0
20
0
11
1
21
1
12
145.56557664
22
90.2921430959
13
0
23
0
14
10
24
10
15
10
25
10
16
0
26
0
36
1
17
0
27
0
37
0
40
183.024614384
41
2.08533333333
42
50
43
0
44
0
50
0
51
0
71
0
72
100
73
1
74
3
75
0
76
0
77
0
78
0
281
0
65
1
110
0
120
0
130
0
111
1
121
0
131
0
112
0
122
1
132
0
79
0
146
0
348
10020
60
7
61
5
292
1
282
1
141
0
142
0
63
250
421
3358443
0
ENDTAB
0
TABLE
2
LTYPE
5
5
330
0
100
AcDbSymbolTable
70
4
0
LTYPE
5
14
330
5
100
AcDbSymbolTableRecord
100
AcDbLinetypeTableRecord
2
ByBlock
70
0
3

72
65
73
0
40
0
0
LTYPE
5
15
330
5
100
AcDbSymbolTableRecord
100
AcDbLinetypeTableRecord
2
ByLayer
70
0
3

72
65
73
0
40
0
0
LTYPE
5
16
330
5
100
AcDbSymbolTableRecord
100
AcDbLinetypeTableRecord
2
Continuous
70
0
3
Solid line
72
65
73
0
40
0
0
LTYPE
5
32
330
5
100
AcDbSymbolTableRecord
100
AcDbLinetypeTableRecord
2
DOT
70
0
3
Dot . . . . . . . . . . . . . . . . . . . . . .
72
65
73
2
40
6.35
49
0
74
0
49
-6.35
74
0
0
LTYPE
5
33
330
5
100
AcDbSymbolTableRecord
100
AcDbLinetypeTableRecord
2
DOT2
70
0
3
Dot (.5x) .....................................
72
65
73
2
40
3.175
49
0
74
0
49
-3.175
74
0
0
LTYPE
5
34
330
5
100
AcDbSymbolTableRecord
100
AcDbLinetypeTableRecord
2
DOTX2
70
0
3
Dot (2x) .  .  .  .  .  .  .  .  .  .  .  .  .
72
65
73
2
40
12.7
49
0
74
0
49
-12.7
74
0
0
LTYPE
5
35
330
5
100
AcDbSymbolTableRecord
100
AcDbLinetypeTableRecord
2
DASHED
70
0
3
Dot . . . . . . . . . . . . . . . . . . . . . .
72
65
73
2
40
19.05
49
12.7
74
0
49
-6.35
74
0
0
LTYPE
5
36
330
5
100
AcDbSymbolTableRecord
100
AcDbLinetypeTableRecord
2
DASHED2
70
0
3
Dashed (.5x) _ _ _ _ _ _ _ _ _ _ _ _ _ _ _ _ _
72
65
73
2
40
9.525
49
6.35
74
0
49
-3.175
74
0
0
LTYPE
5
37
330
5
100
AcDbSymbolTableRecord
100
AcDbLinetypeTableRecord
2
DASHEDX2
70
0
3
Dashed (2x) ____  ____  ____  ____  ____  ___
72
65
73
2
40
38.1
49
25.4
74
0
49
-12.7
74
0
0
LTYPE
5
38
330
5
100
AcDbSymbolTableRecord
100
AcDbLinetypeTableRecord
2
DASHDOT
70
0
3
Dash dot __ . __ . __ . __ . __ . __ . __ . __
72
65
73
4
40
25.4
49
12.7
74
0
49
-6.35
74
0
49
0
74
0
49
-6.35
74
0
0
LTYPE
5
39
330
5
100
AcDbSymbolTableRecord
100
AcDbLinetypeTableRecord
2
DASHDOT2
70
0
3
Dash dot (.5x) _._._._._._._._._._._._._._._.
72
65
73
4
40
12.7
49
6.35
74
0
49
-3.175
74
0
49
0
74
0
49
-3.175
74
0
0
LTYPE
5
3A
330
5
100
AcDbSymbolTableRecord
100
AcDbLinetypeTableRecord
2
DASHDOTX2
70
0
3
Dash dot (2x) ____  .  ____  .  ____  .  ___
72
65
73
4
40
50.8
49
25.4
74
0
49
-12.7
74
0
49
0
74
0
49
-12.7
74
0
0
LTYPE
5
3B
330
5
100
AcDbSymbolTableRecord
100
AcDbLinetypeTableRecord
2
DIVIDE
70
0
3
Divide ____ . . ____ . . ____ . . ____ . . ____
72
65
73
6
40
31.75
49
12.7
74
0
49
-6.35
74
0
49
0
74
0
49
-6.35
74
0
49
0
74
0
49
-6.35
74
0
0
LTYPE
5
3C
330
5
100
AcDbSymbolTableRecord
100
AcDbLinetypeTableRecord
2
DIVIDE2
70
0
3
Divide (.5x) __..__..__..__..__..__..__..__.._
72
65
73
6
40
15.875
49
6.35
74
0
49
-3.175
74
0
49
0
74
0
49
-3.175
74
0
49
0
74
0
49
-3.175
74
0
0
LTYPE
5
3D
330
5
100
AcDbSymbolTableRecord
100
AcDbLinetypeTableRecord
2
DIVIDEX2
70
0
3
Divide (2x) ________  .  .  ________  .  .  _
72
65
73
6
40
63.5
49
25.4
74
0
49
-12.7
74
0
49
0
74
0
49
-12.7
74
0
49
0
74
0
49
-12.7
74
0
0
LTYPE
5
3E
330
5
100
AcDbSymbolTableRecord
100
AcDbLinetypeTableRecord
2
BORDER
70
0
3
Border __ __ . __ __ . __ __ . __ __ . __ __ .
72
65
73
6
40
44.45
49
12.7
74
0
49
-6.35
74
0
49
12.7
74
0
49
-6.35
74
0
49
0
74
0
49
-6.35
74
0
0
LTYPE
5
3F
330
5
100
AcDbSymbolTableRecord
100
AcDbLinetypeTableRecord
2
BORDER2
70
0
3
Border (.5x) __.__.__.__.__.__.__.__.__.__.__.
72
65
73
6
40
22.225
49
6.35
74
0
49
-3.175
74
0
49
6.35
74
0
49
-3.175
74
0
49
0
74
0
49
-3.175
74
0
0
LTYPE
5
40
330
5
100
AcDbSymbolTableRecord
100
AcDbLinetypeTableRecord
2
BORDERX2
70
0
3
Border (2x) ____  ____  .  ____  ____  .  ___
72
65
73
6
40
88.9
49
25.4
74
0
49
-12.7
74
0
49
25.4
74
0
49
-12.7
74
0
49
0
74
0
49
-12.7
74
0
0
LTYPE
5
41
330
5
100
AcDbSymbolTableRecord
100
AcDbLinetypeTableRecord
2
CENTER
70
0
3
Center ____ _ ____ _ ____ _ ____ _ ____ _ ____
72
65
73
4
40
50.8
49
31.75
74
0
49
-6.35
74
0
49
6.35
74
0
49
-6.35
74
0
0
LTYPE
5
42
330
5
100
AcDbSymbolTableRecord
100
AcDbLinetypeTableRecord
2
CENTER2
70
0
3
Center (.5x) ___ _ ___ _ ___ _ ___ _ ___ _ ___
72
65
73
4
40
28.575
49
19.05
74
0
49
-3.175
74
0
49
3.175
74
0
49
-3.175
74
0
0
LTYPE
5
43
330
5
100
AcDbSymbolTableRecord
100
AcDbLinetypeTableRecord
2
CENTERX2
70
0
3
Center (2x) ________  __  ________  __  _____
72
65
73
4
40
101.6
49
63.5
74
0
49
-12.7
74
0
49
12.7
74
0
49
-12.7
74
0
0
ENDTAB
0
TABLE
2
LAYER
5
2
330
0
100
AcDbSymbolTable
70
1
0
LAYER
5
10
330
2
100
AcDbSymbolTableRecord
100
AcDbLayerTableRecord
2
0
70
0
62
7
6
CONTINUOUS
370
-3
390
F
0
ENDTAB
0
TABLE
2
STYLE
5
3
330
0
100
AcDbSymbolTable
70
3
0
STYLE
5
44
330
2
100
AcDbSymbolTableRecord
100
AcDbTextStyleTableRecord
2
Standard
70
0
40
0
41
1
50
0
71
0
42
1
3
txt
4

0
ENDTAB
0
TABLE
2
VIEW
5
6
330
0
100
AcDbSymbolTable
70
0
0
ENDTAB
0
TABLE
2
UCS
5
7
330
0
100
AcDbSymbolTable
70
0
0
ENDTAB
0
TABLE
2
APPID
5
9
330
0
100
AcDbSymbolTable
70
1
0
APPID
5
12
330
9
100
AcDbSymbolTableRecord
100
AcDbRegAppTableRecord
2
ACAD
70
0
0
ENDTAB
0
TABLE
2
DIMSTYLE
5
A
330
0
100
AcDbSymbolTable
70
1
100
AcDbDimStyleTable
71
1
0
DIMSTYLE
105
45
330
A
100
AcDbSymbolTableRecord
100
AcDbDimStyleTableRecord
2
Standard
70
0
40
1
41
2.5
42
0.625
43
0.38
44
1.25
45
0
46
0
47
0
48
0
140
2.5
141
0.09
142
0
143
25.4
144
1
145
0
146
1
147
0.625
148
0
71
0
72
0
73
0
74
1
75
0
76
0
77
0
78
0
79
0
170
0
171
2
172
0
173
0
174
0
175
0
176
0
177
0
178
0
179
0
271
4
272
4
273
2
274
2
275
0
276
0
277
2
278
46
279
0
280
0
281
0
282
0
283
1
284
0
285
0
286
0
288
0
289
3
340
Standard
341

371
-2
372
-2
0
ENDTAB
0
TABLE
2
BLOCK_RECORD
5
1
330
0
100
AcDbSymbolTable
70
2
0
BLOCK_RECORD
5
1F
330
1
100
AcDbSymbolTableRecord
100
AcDbBlockTableRecord
2
*Model_Space
70
0
280
1
281
0
0
BLOCK_RECORD
5
1E
330
1
100
AcDbSymbolTableRecord
100
AcDbBlockTableRecord
2
*Paper_Space
70
0
280
1
281
0
0
ENDTAB
0
ENDSEC
0
SECTION
2
BLOCKS
0
BLOCK
5
20
330
1F
100
AcDbEntity
8
0
100
AcDbBlockBegin
2
*Model_Space
70
0
10
0
20
0
30
0
3
*Model_Space
1

0
ENDBLK
5
21
330
1F
100
AcDbEntity
8
0
100
AcDbBlockEnd
0
BLOCK
5
1C
330
1B
100
AcDbEntity
8
0
100
AcDbBlockBegin
2
*Paper_Space
70
0
10
0
20
0
30
0
3
*Paper_Space
1

0
ENDBLK
5
1D
330
1F
100
AcDbEntity
8
0
100
AcDbBlockEnd
0
ENDSEC
0
SECTION
2
ENTITIES
0
SPLINE
5
46
100
AcDbEntity
8
0
6
ByLayer
62
7
370
-1
100
AcDbSpline
210
0
220
0
230
1
70
8
71
3
72
8
73
4
74
0
42
1e-07
43
1e-07
40
0
40
0
40
0
40
0
40
1
40
1
40
1
40
1
10
110.595833
20
178.139547
30
0
10
107.202151
20
178.141302
30
0
10
100.548714
20
176.030513
30
0
10
98.698403
20
174.364825
30
0
0
SPLINE
5
47
100
AcDbEntity
8
0
6
ByLayer
62
7
370
-1
100
AcDbSpline
210
0
220
0
230
1
70
8
71
3
72
8
73
4
74
0
42
1e-07
43
1e-07
40
0
40
0
40
0
40
0
40
1
40
1
40
1
40
1
10
98.698403
20
174.364825
30
0
10
98.313864
20
174.018657
30
0
10
97.854697
20
173.738644
30
0
10
97.675347
20
173.738644
30
0
0
SPLINE
5
48
100
AcDbEntity
8
0
6
ByLayer
62
7
370
-1
100
AcDbSpline
210
0
220
0
230
1
70
8
71
3
72
8
73
4
74
0
42
1e-07
43
1e-07
40
0
40
0
40
0
40
0
40
1
40
1
40
1
40
1
10
97.675347
20
173.738644
30
0
10
97.306102
20
173.738644
30
0
10
95.505764
20
171.777248
30
0
10
95.505764
20
171.375033
30
0
0
SPLINE
5
49
100
AcDbEntity
8
0
6
ByLayer
62
7
370
-1
100
AcDbSpline
210
0
220
0
230
1
70
8
71
3
72
8
73
4
74
0
42
1e-07
43
1e-07
40
0
40
0
40
0
40
0
40
1
40
1
40
1
40
1
10
95.505764
20
171.375033
30
0
10
95.505764
20
171.230727
30
0
10
95.282893
20
170.929684
30
0
10
95.011875
20
170.704756
30
0
0
SPLINE
5
4A
100
AcDbEntity
8
0
6
ByLayer
62
7
370
-1
100
AcDbSpline
210
0
220
0
230
1
70
8
71
3
72
8
73
4
74
0
42
1e-07
43
1e-07
40
0
40
0
40
0
40
0
40
1
40
1
40
1
40
1
10
95.011875
20
170.704756
30
0
10
94.740854
20
170.47983
30
0
10
93.978854
20
169.313132
30
0
10
93.318542
20
168.111839
30
0
0
SPLINE
5
4B
100
AcDbEntity
8
0
6
ByLayer
62
7
370
-1
100
AcDbSpline
210
0
220
0
230
1
70
8
71
3
72
8
73
4
74
0
42
1e-07
43
1e-07
40
0
40
0
40
0
40
0
40
1
40
1
40
1
40
1
10
93.318542
20
168.111839
30
0
10
92.247446
20
166.163221
30
0
10
92.119097
20
165.65462
30
0
10
92.119097
20
163.411075
30
0
0
SPLINE
5
4C
100
AcDbEntity
8
0
6
ByLayer
62
7
370
-1
100
AcDbSpline
210
0
220
0
230
1
70
8
71
3
72
8
73
4
74
0
42
1e-07
43
1e-07
40
0
40
0
40
0
40
0
40
1
40
1
40
1
40
1
10
90.849097
20
160.544756
30
0
10
90.150597
20
160.350748
30
0
10
87.822969
20
159.739152
30
0
10
85.680903
20
159.195381
30
0
0
SPLINE
5
4D
100
AcDbEntity
8
0
6
ByLayer
62
7
370
-1
100
AcDbSpline
210
0
220
0
230
1
70
8
71
3
72
8
73
4
74
0
42
1e-07
43
1e-07
40
0
40
0
40
0
40
0
40
1
40
1
40
1
40
1
10
85.680903
20
159.195381
30
0
10
81.01761
20
158.011582
30
0
10
80.711029
20
157.899128
30
0
10
80.477431
20
157.290381
30
0
0
SPLINE
5
4E
100
AcDbEntity
8
0
6
ByLayer
62
7
370
-1
100
AcDbSpline
210
0
220
0
230
1
70
8
71
3
72
8
73
4
74
0
42
1e-07
43
1e-07
40
0
40
0
40
0
40
0
40
1
40
1
40
1
40
1
10
80.477431
20
157.290381
30
0
10
80.307691
20
156.84804
30
0
10
82.485707
20
154.439541
30
0
10
83.061528
20
154.432881
30
0
0
SPLINE
5
4F
100
AcDbEntity
8
0
6
ByLayer
62
7
370
-1
100
AcDbSpline
210
0
220
0
230
1
70
8
71
3
72
8
73
4
74
0
42
1e-07
43
1e-07
40
0
40
0
40
0
40
0
40
1
40
1
40
1
40
1
10
83.061528
20
154.432881
30
0
10
83.327519
20
154.429804
30
0
10
83.888975
20
153.98091
30
0
10
85.654444
20
152.37795
30
0
0
LWPOLYLINE
5
50
100
AcDbEntity
8
0
6
ByLayer
62
7
370
-1
100
AcDbPolyline
90
3
70
0
43
0
10
92.119097
20
163.411075
10
92.119097
20
160.897533
10
90.849097
20
160.544756
0
SPLINE
5
51
100
AcDbEntity
8
0
6
ByLayer
62
7
370
-1
100
AcDbSpline
210
0
220
0
230
1
70
8
71
3
72
8
73
4
74
0
42
1e-07
43
1e-07
40
0
40
0
40
0
40
0
40
1
40
1
40
1
40
1
10
86.033681
20
150.137811
30
0
10
85.308607
20
148.784976
30
0
10
85.134958
20
147.659547
30
0
10
85.654444
20
147.659547
30
0
0
SPLINE
5
52
100
AcDbEntity
8
0
6
ByLayer
62
7
370
-1
100
AcDbSpline
210
0
220
0
230
1
70
8
71
3
72
8
73
4
74
0
42
1e-07
43
1e-07
40
0
40
0
40
0
40
0
40
1
40
1
40
1
40
1
10
85.654444
20
147.659547
30
0
10
85.825189
20
147.659547
30
0
10
86.029904
20
147.850047
30
0
10
86.113056
20
148.082881
30
0
0
SPLINE
5
53
100
AcDbEntity
8
0
6
ByLayer
62
7
370
-1
100
AcDbSpline
210
0
220
0
230
1
70
8
71
3
72
8
73
4
74
0
42
1e-07
43
1e-07
40
0
40
0
40
0
40
0
40
1
40
1
40
1
40
1
10
86.113056
20
148.082881
30
0
10
86.196212
20
148.315714
30
0
10
86.370194
20
148.406668
30
0
10
86.501111
20
148.285728
30
0
0
SPLINE
5
54
100
AcDbEntity
8
0
6
ByLayer
62
7
370
-1
100
AcDbSpline
210
0
220
0
230
1
70
8
71
3
72
8
73
4
74
0
42
1e-07
43
1e-07
40
0
40
0
40
0
40
0
40
1
40
1
40
1
40
1
10
86.501111
20
148.285728
30
0
10
86.632028
20
148.164787
30
0
10
86.59162
20
146.957816
30
0
10
86.404097
20
145.604617
30
0
0
SPLINE
5
55
100
AcDbEntity
8
0
6
ByLayer
62
7
370
-1
100
AcDbSpline
210
0
220
0
230
1
70
8
71
3
72
8
73
4
74
0
42
1e-07
43
1e-07
40
0
40
0
40
0
40
0
40
1
40
1
40
1
40
1
10
86.404097
20
145.604617
30
0
10
86.129063
20
143.619928
30
0
10
86.151599
20
142.961473
30
0
10
86.545208
20
142.200311
30
0
0
SPLINE
5
56
100
AcDbEntity
8
0
6
ByLayer
62
7
370
-1
100
AcDbSpline
210
0
220
0
230
1
70
8
71
3
72
8
73
4
74
0
42
1e-07
43
1e-07
40
0
40
0
40
0
40
0
40
1
40
1
40
1
40
1
10
86.545208
20
142.200311
30
0
10
86.813582
20
141.681338
30
0
10
87.039097
20
140.953843
30
0
10
87.039097
20
140.586353
30
0
0
SPLINE
5
57
100
AcDbEntity
8
0
6
ByLayer
62
7
370
-1
100
AcDbSpline
210
0
220
0
230
1
70
8
71
3
72
8
73
4
74
0
42
1e-07
43
1e-07
40
0
40
0
40
0
40
0
40
1
40
1
40
1
40
1
10
87.039097
20
140.586353
30
0
10
87.039097
20
140.218857
30
0
10
87.420097
20
139.47289
30
0
10
87.885764
20
138.919478
30
0
0
SPLINE
5
58
100
AcDbEntity
8
0
6
ByLayer
62
7
370
-1
100
AcDbSpline
210
0
220
0
230
1
70
8
71
3
72
8
73
4
74
0
42
1e-07
43
1e-07
40
0
40
0
40
0
40
0
40
1
40
1
40
1
40
1
10
87.885764
20
138.919478
30
0
10
88.351431
20
138.366063
30
0
10
88.732431
20
137.762214
30
0
10
88.732431
20
137.587742
30
0
0
SPLINE
5
59
100
AcDbEntity
8
0
6
ByLayer
62
7
370
-1
100
AcDbSpline
210
0
220
0
230
1
70
8
71
3
72
8
73
4
74
0
42
1e-07
43
1e-07
40
0
40
0
40
0
40
0
40
1
40
1
40
1
40
1
10
88.732431
20
137.587742
30
0
10
88.732431
20
137.413275
30
0
10
89.113431
20
137.069669
30
0
10
89.579097
20
136.82045
30
0
0
SPLINE
5
5A
100
AcDbEntity
8
0
6
ByLayer
62
7
370
-1
100
AcDbSpline
210
0
220
0
230
1
70
8
71
3
72
8
73
4
74
0
42
1e-07
43
1e-07
40
0
40
0
40
0
40
0
40
1
40
1
40
1
40
1
10
89.579097
20
136.82045
30
0
10
90.044764
20
136.571231
30
0
10
90.425764
20
136.258311
30
0
10
90.425764
20
136.123714
30
0
0
SPLINE
5
5B
100
AcDbEntity
8
0
6
ByLayer
62
7
370
-1
100
AcDbSpline
210
0
220
0
230
1
70
8
71
3
72
8
73
4
74
0
42
1e-07
43
1e-07
40
0
40
0
40
0
40
0
40
1
40
1
40
1
40
1
10
90.425764
20
136.123714
30
0
10
90.425764
20
135.828842
30
0
10
92.106569
20
135.329343
30
0
10
92.736458
20
135.435797
30
0
0
SPLINE
5
5C
100
AcDbEntity
8
0
6
ByLayer
62
7
370
-1
100
AcDbSpline
210
0
220
0
230
1
70
8
71
3
72
8
73
4
74
0
42
1e-07
43
1e-07
40
0
40
0
40
0
40
0
40
1
40
1
40
1
40
1
10
92.736458
20
135.435797
30
0
10
93.219801
20
135.517481
30
0
10
95.505764
20
133.267394
30
0
10
95.505764
20
132.710589
30
0
0
SPLINE
5
5D
100
AcDbEntity
8
0
6
ByLayer
62
7
370
-1
100
AcDbSpline
210
0
220
0
230
1
70
8
71
3
72
8
73
4
74
0
42
1e-07
43
1e-07
40
0
40
0
40
0
40
0
40
1
40
1
40
1
40
1
10
95.505764
20
132.710589
30
0
10
95.505764
20
132.203306
30
0
10
93.357322
20
129.718977
30
0
10
92.912847
20
129.711978
30
0
0
SPLINE
5
5E
100
AcDbEntity
8
0
6
ByLayer
62
7
370
-1
100
AcDbSpline
210
0
220
0
230
1
70
8
71
3
72
8
73
4
74
0
42
1e-07
43
1e-07
40
0
40
0
40
0
40
0
40
1
40
1
40
1
40
1
10
92.912847
20
129.711978
30
0
10
92.117847
20
129.699439
30
0
10
92.052411
20
128.540008
30
0
10
92.815833
20
128.018644
30
0
0
SPLINE
5
5F
100
AcDbEntity
8
0
6
ByLayer
62
7
370
-1
100
AcDbSpline
210
0
220
0
230
1
70
8
71
3
72
8
73
4
74
0
42
1e-07
43
1e-07
40
0
40
0
40
0
40
0
40
1
40
1
40
1
40
1
10
92.815833
20
128.018644
30
0
10
94.435196
20
126.912731
30
0
10
95.505764
20
125.668162
30
0
10
95.505764
20
124.887742
30
0
0
SPLINE
5
60
100
AcDbEntity
8
0
6
ByLayer
62
7
370
-1
100
AcDbSpline
210
0
220
0
230
1
70
8
71
3
72
8
73
4
74
0
42
1e-07
43
1e-07
40
0
40
0
40
0
40
0
40
1
40
1
40
1
40
1
10
95.505764
20
124.887742
30
0
10
95.505764
20
124.440213
30
0
10
95.886764
20
123.711256
30
0
10
96.352431
20
123.273783
30
0
0
SPLINE
5
61
100
AcDbEntity
8
0
6
ByLayer
62
7
370
-1
100
AcDbSpline
210
0
220
0
230
1
70
8
71
3
72
8
73
4
74
0
42
1e-07
43
1e-07
40
0
40
0
40
0
40
0
40
1
40
1
40
1
40
1
10
96.352431
20
123.273783
30
0
10
96.818097
20
122.836311
30
0
10
97.199097
20
122.204299
30
0
10
97.199097
20
121.871492
30
0
0
SPLINE
5
62
100
AcDbEntity
8
0
6
ByLayer
62
7
370
-1
100
AcDbSpline
210
0
220
0
230
1
70
8
71
3
72
8
73
4
74
0
42
1e-07
43
1e-07
40
0
40
0
40
0
40
0
40
1
40
1
40
1
40
1
10
97.199097
20
121.871492
30
0
10
97.199097
20
121.538684
30
0
10
97.48524
20
120.99645
30
0
10
97.834097
20
120.663228
30
0
0
SPLINE
5
63
100
AcDbEntity
8
0
6
ByLayer
62
7
370
-1
100
AcDbSpline
210
0
220
0
230
1
70
8
71
3
72
8
73
4
74
0
42
1e-07
43
1e-07
40
0
40
0
40
0
40
0
40
1
40
1
40
1
40
1
10
97.834097
20
120.663228
30
0
10
98.182958
20
120.330005
30
0
10
98.718545
20
119.563193
30
0
10
99.024722
20
118.961075
30
0
0
SPLINE
5
64
100
AcDbEntity
8
0
6
ByLayer
62
7
370
-1
100
AcDbSpline
210
0
220
0
230
1
70
8
71
3
72
8
73
4
74
0
42
1e-07
43
1e-07
40
0
40
0
40
0
40
0
40
1
40
1
40
1
40
1
10
99.024722
20
118.961075
30
0
10
99.637387
20
117.756226
30
0
10
101.395719
20
115.821353
30
0
10
101.882222
20
115.821353
30
0
0
SPLINE
5
65
100
AcDbEntity
8
0
6
ByLayer
62
7
370
-1
100
AcDbSpline
210
0
220
0
230
1
70
8
71
3
72
8
73
4
74
0
42
1e-07
43
1e-07
40
0
40
0
40
0
40
0
40
1
40
1
40
1
40
1
10
101.882222
20
115.821353
30
0
10
102.052021
20
115.821353
30
0
10
102.758771
20
116.055699
30
0
10
103.443264
20
116.3417
30
0
0
SPLINE
5
66
100
AcDbEntity
8
0
6
ByLayer
62
7
370
-1
100
AcDbSpline
210
0
220
0
230
1
70
8
71
3
72
8
73
4
74
0
42
1e-07
43
1e-07
40
0
40
0
40
0
40
0
40
1
40
1
40
1
40
1
10
103.443264
20
116.3417
30
0
10
104.925218
20
116.960896
30
0
10
106.918046
20
116.707753
30
0
10
107.112153
20
115.874269
30
0
0
SPLINE
5
67
100
AcDbEntity
8
0
6
ByLayer
62
7
370
-1
100
AcDbSpline
210
0
220
0
230
1
70
8
71
3
72
8
73
4
74
0
42
1e-07
43
1e-07
40
0
40
0
40
0
40
0
40
1
40
1
40
1
40
1
10
107.112153
20
115.874269
30
0
10
107.210428
20
115.452291
30
0
10
107.353758
20
115.540883
30
0
10
107.694236
20
116.244686
30
0
0
SPLINE
5
68
100
AcDbEntity
8
0
6
ByLayer
62
7
370
-1
100
AcDbSpline
210
0
220
0
230
1
70
8
71
3
72
8
73
4
74
0
42
1e-07
43
1e-07
40
0
40
0
40
0
40
0
40
1
40
1
40
1
40
1
10
107.694236
20
116.244686
30
0
10
107.942039
20
116.756919
30
0
10
108.335561
20
117.179547
30
0
10
108.567361
20
117.179547
30
0
0
SPLINE
5
69
100
AcDbEntity
8
0
6
ByLayer
62
7
370
-1
100
AcDbSpline
210
0
220
0
230
1
70
8
71
3
72
8
73
4
74
0
42
1e-07
43
1e-07
40
0
40
0
40
0
40
0
40
1
40
1
40
1
40
1
10
108.567361
20
117.179547
30
0
10
109.146484
20
117.179547
30
0
10
110.538627
20
114.695721
30
0
10
111.266111
20
112.37295
30
0
0
SPLINE
5
6A
100
AcDbEntity
8
0
6
ByLayer
62
7
370
-1
100
AcDbSpline
210
0
220
0
230
1
70
8
71
3
72
8
73
4
74
0
42
1e-07
43
1e-07
40
0
40
0
40
0
40
0
40
1
40
1
40
1
40
1
10
111.266111
20
112.37295
30
0
10
111.829379
20
110.574514
30
0
10
111.835986
20
110.397267
30
0
10
111.310208
20
109.594825
30
0
0
SPLINE
5
6B
100
AcDbEntity
8
0
6
ByLayer
62
7
370
-1
100
AcDbSpline
210
0
220
0
230
1
70
8
71
3
72
8
73
4
74
0
42
1e-07
43
1e-07
40
0
40
0
40
0
40
0
40
1
40
1
40
1
40
1
10
111.310208
20
109.594825
30
0
10
111.000884
20
109.122738
30
0
10
110.745764
20
108.518802
30
0
10
110.745764
20
108.254269
30
0
0
SPLINE
5
6C
100
AcDbEntity
8
0
6
ByLayer
62
7
370
-1
100
AcDbSpline
210
0
220
0
230
1
70
8
71
3
72
8
73
4
74
0
42
1e-07
43
1e-07
40
0
40
0
40
0
40
0
40
1
40
1
40
1
40
1
10
110.745764
20
108.254269
30
0
10
110.745764
20
107.98974
30
0
10
110.343318
20
107.515894
30
0
10
109.855
20
107.195936
30
0
0
SPLINE
5
6D
100
AcDbEntity
8
0
6
ByLayer
62
7
370
-1
100
AcDbSpline
210
0
220
0
230
1
70
8
71
3
72
8
73
4
74
0
42
1e-07
43
1e-07
40
0
40
0
40
0
40
0
40
1
40
1
40
1
40
1
10
109.855
20
107.195936
30
0
10
109.044689
20
106.664997
30
0
10
108.490094
20
106.645366
30
0
10
103.505
20
106.993089
30
0
0
SPLINE
5
6E
100
AcDbEntity
8
0
6
ByLayer
62
7
370
-1
100
AcDbSpline
210
0
220
0
230
1
70
8
71
3
72
8
73
4
74
0
42
1e-07
43
1e-07
40
0
40
0
40
0
40
0
40
1
40
1
40
1
40
1
10
103.505
20
106.993089
30
0
10
100.500818
20
107.202639
30
0
10
96.521764
20
107.517517
30
0
10
94.659097
20
107.698644
30
0
0
SPLINE
5
6F
100
AcDbEntity
8
0
6
ByLayer
62
7
370
-1
100
AcDbSpline
210
0
220
0
230
1
70
8
71
3
72
8
73
4
74
0
42
1e-07
43
1e-07
40
0
40
0
40
0
40
0
40
1
40
1
40
1
40
1
10
94.659097
20
107.698644
30
0
10
90.743572
20
108.079393
30
0
10
87.992481
20
107.691716
30
0
10
87.268403
20
106.65795
30
0
0
SPLINE
5
70
100
AcDbEntity
8
0
6
ByLayer
62
7
370
-1
100
AcDbSpline
210
0
220
0
230
1
70
8
71
3
72
8
73
4
74
0
42
1e-07
43
1e-07
40
0
40
0
40
0
40
0
40
1
40
1
40
1
40
1
10
87.268403
20
106.65795
30
0
10
86.623542
20
105.737285
30
0
10
84.673432
20
105.148383
30
0
10
80.768472
20
104.682394
30
0
0
SPLINE
5
71
100
AcDbEntity
8
0
6
ByLayer
62
7
370
-1
100
AcDbSpline
210
0
220
0
230
1
70
8
71
3
72
8
73
4
74
0
42
1e-07
43
1e-07
40
0
40
0
40
0
40
0
40
1
40
1
40
1
40
1
10
80.768472
20
104.682394
30
0
10
78.905806
20
104.460119
30
0
10
76.164369
20
104.105998
30
0
10
74.674236
20
103.897464
30
0
0
SPLINE
5
72
100
AcDbEntity
8
0
6
ByLayer
62
7
370
-1
100
AcDbSpline
210
0
220
0
230
1
70
8
71
3
72
8
73
4
74
0
42
1e-07
43
1e-07
40
0
40
0
40
0
40
0
40
1
40
1
40
1
40
1
10
74.674236
20
103.897464
30
0
10
69.80833
20
103.216518
30
0
10
67.391492
20
103.187799
30
0
10
65.378542
20
103.791631
30
0
0
SPLINE
5
73
100
AcDbEntity
8
0
6
ByLayer
62
7
370
-1
100
AcDbSpline
210
0
220
0
230
1
70
8
71
3
72
8
73
4
74
0
42
1e-07
43
1e-07
40
0
40
0
40
0
40
0
40
1
40
1
40
1
40
1
10
65.378542
20
103.791631
30
0
10
64.346994
20
104.101067
30
0
10
62.282564
20
104.713504
30
0
10
60.792431
20
105.149825
30
0
0
SPLINE
5
74
100
AcDbEntity
8
0
6
ByLayer
62
7
370
-1
100
AcDbSpline
210
0
220
0
230
1
70
8
71
3
72
8
73
4
74
0
42
1e-07
43
1e-07
40
0
40
0
40
0
40
0
40
1
40
1
40
1
40
1
10
60.792431
20
105.149825
30
0
10
59.302297
20
105.586143
30
0
10
56.784169
20
106.336335
30
0
10
55.200903
20
106.8167
30
0
0
SPLINE
5
75
100
AcDbEntity
8
0
6
ByLayer
62
7
370
-1
100
AcDbSpline
210
0
220
0
230
1
70
8
71
3
72
8
73
4
74
0
42
1e-07
43
1e-07
40
0
40
0
40
0
40
0
40
1
40
1
40
1
40
1
10
55.200903
20
106.8167
30
0
10
52.62893
20
107.597039
30
0
10
50.251295
20
108.313765
30
0
10
45.384861
20
109.762394
30
0
0
SPLINE
5
76
100
AcDbEntity
8
0
6
ByLayer
62
7
370
-1
100
AcDbSpline
210
0
220
0
230
1
70
8
71
3
72
8
73
4
74
0
42
1e-07
43
1e-07
40
0
40
0
40
0
40
0
40
1
40
1
40
1
40
1
10
45.384861
20
109.762394
30
0
10
44.546661
20
110.011907
30
0
10
43.478097
20
110.406615
30
0
10
43.012431
20
110.644339
30
0
0
SPLINE
5
77
100
AcDbEntity
8
0
6
ByLayer
62
7
370
-1
100
AcDbSpline
210
0
220
0
230
1
70
8
71
3
72
8
73
4
74
0
42
1e-07
43
1e-07
40
0
40
0
40
0
40
0
40
1
40
1
40
1
40
1
10
43.012431
20
110.644339
30
0
10
42.546764
20
110.882063
30
0
10
41.900881
20
111.075363
30
0
10
41.583681
20
111.076492
30
0
0
SPLINE
5
78
100
AcDbEntity
8
0
6
ByLayer
62
7
370
-1
100
AcDbSpline
210
0
220
0
230
1
70
8
71
3
72
8
73
4
74
0
42
1e-07
43
1e-07
40
0
40
0
40
0
40
0
40
1
40
1
40
1
40
1
10
41.583681
20
111.076492
30
0
10
41.029777
20
111.078498
30
0
10
40.369072
20
111.309455
30
0
10
38.047083
20
112.311214
30
0
0
SPLINE
5
79
100
AcDbEntity
8
0
6
ByLayer
62
7
370
-1
100
AcDbSpline
210
0
220
0
230
1
70
8
71
3
72
8
73
4
74
0
42
1e-07
43
1e-07
40
0
40
0
40
0
40
0
40
1
40
1
40
1
40
1
10
38.047083
20
112.311214
30
0
10
37.460134
20
112.564438
30
0
10
36.750775
20
112.778644
30
0
10
36.468403
20
112.778644
30
0
0
SPLINE
5
7A
100
AcDbEntity
8
0
6
ByLayer
62
7
370
-1
100
AcDbSpline
210
0
220
0
230
1
70
8
71
3
72
8
73
4
74
0
42
1e-07
43
1e-07
40
0
40
0
40
0
40
0
40
1
40
1
40
1
40
1
10
36.468403
20
112.778644
30
0
10
36.186028
20
112.778644
30
0
10
35.290461
20
113.064186
30
0
10
34.475208
20
113.413644
30
0
0
SPLINE
5
7B
100
AcDbEntity
8
0
6
ByLayer
62
7
370
-1
100
AcDbSpline
210
0
220
0
230
1
70
8
71
3
72
8
73
4
74
0
42
1e-07
43
1e-07
40
0
40
0
40
0
40
0
40
1
40
1
40
1
40
1
10
34.475208
20
113.413644
30
0
10
33.025247
20
114.03507
30
0
10
32.977407
20
114.036173
30
0
10
32.208611
20
113.413644
30
0
0
SPLINE
5
7C
100
AcDbEntity
8
0
6
ByLayer
62
7
370
-1
100
AcDbSpline
210
0
220
0
230
1
70
8
71
3
72
8
73
4
74
0
42
1e-07
43
1e-07
40
0
40
0
40
0
40
0
40
1
40
1
40
1
40
1
10
32.208611
20
113.413644
30
0
10
31.428425
20
112.781884
30
0
10
31.411184
20
112.784444
30
0
10
30.188958
20
113.845797
30
0
0
SPLINE
5
7D
100
AcDbEntity
8
0
6
ByLayer
62
7
370
-1
100
AcDbSpline
210
0
220
0
230
1
70
8
71
3
72
8
73
4
74
0
42
1e-07
43
1e-07
40
0
40
0
40
0
40
0
40
1
40
1
40
1
40
1
10
30.188958
20
113.845797
30
0
10
29.511792
20
114.433838
30
0
10
28.828314
20
115.12535
30
0
10
28.672014
20
115.3892
30
0
0
SPLINE
5
7E
100
AcDbEntity
8
0
6
ByLayer
62
7
370
-1
100
AcDbSpline
210
0
220
0
230
1
70
8
71
3
72
8
73
4
74
0
42
1e-07
43
1e-07
40
0
40
0
40
0
40
0
40
1
40
1
40
1
40
1
10
28.672014
20
115.3892
30
0
10
28.271837
20
116.064741
30
0
10
20.998352
20
123.273783
30
0
10
20.716875
20
123.273783
30
0
0
SPLINE
5
7F
100
AcDbEntity
8
0
6
ByLayer
62
7
370
-1
100
AcDbSpline
210
0
220
0
230
1
70
8
71
3
72
8
73
4
74
0
42
1e-07
43
1e-07
40
0
40
0
40
0
40
0
40
1
40
1
40
1
40
1
10
20.716875
20
123.273783
30
0
10
20.589494
20
123.273783
30
0
10
19.956831
20
123.943017
30
0
10
19.305764
20
124.764269
30
0
0
SPLINE
5
80
100
AcDbEntity
8
0
6
ByLayer
62
7
370
-1
100
AcDbSpline
210
0
220
0
230
1
70
8
71
3
72
8
73
4
74
0
42
1e-07
43
1e-07
40
0
40
0
40
0
40
0
40
1
40
1
40
1
40
1
10
19.305764
20
124.764269
30
0
10
17.879258
20
126.563651
30
0
10
16.66715
20
127.339547
30
0
10
15.284097
20
127.339547
30
0
0
SPLINE
5
81
100
AcDbEntity
8
0
6
ByLayer
62
7
370
-1
100
AcDbSpline
210
0
220
0
230
1
70
8
71
3
72
8
73
4
74
0
42
1e-07
43
1e-07
40
0
40
0
40
0
40
0
40
1
40
1
40
1
40
1
10
15.284097
20
127.339547
30
0
10
14.241015
20
127.339547
30
0
10
13.738154
20
127.508158
30
0
10
10.671528
20
128.856492
30
0
0
SPLINE
5
82
100
AcDbEntity
8
0
6
ByLayer
62
7
370
-1
100
AcDbSpline
210
0
220
0
230
1
70
8
71
3
72
8
73
4
74
0
42
1e-07
43
1e-07
40
0
40
0
40
0
40
0
40
1
40
1
40
1
40
1
10
10.671528
20
128.856492
30
0
10
7.951755
20
130.052335
30
0
10
4.96693
20
130.562866
30
0
10
3.721806
20
130.047117
30
0
0
SPLINE
5
83
100
AcDbEntity
8
0
6
ByLayer
62
7
370
-1
100
AcDbSpline
210
0
220
0
230
1
70
8
71
3
72
8
73
4
74
0
42
1e-07
43
1e-07
40
0
40
0
40
0
40
0
40
1
40
1
40
1
40
1
10
3.721806
20
130.047117
30
0
10
3.151429
20
129.81086
30
0
10
2.736638
20
129.443057
30
0
10
2.804583
20
129.235728
30
0
0
SPLINE
5
84
100
AcDbEntity
8
0
6
ByLayer
62
7
370
-1
100
AcDbSpline
210
0
220
0
230
1
70
8
71
3
72
8
73
4
74
0
42
1e-07
43
1e-07
40
0
40
0
40
0
40
0
40
1
40
1
40
1
40
1
10
2.804583
20
129.235728
30
0
10
3.005686
20
128.622098
30
0
10
5.121481
20
127.339547
30
0
10
5.926667
20
127.339547
30
0
0
SPLINE
5
85
100
AcDbEntity
8
0
6
ByLayer
62
7
370
-1
100
AcDbSpline
210
0
220
0
230
1
70
8
71
3
72
8
73
4
74
0
42
1e-07
43
1e-07
40
0
40
0
40
0
40
0
40
1
40
1
40
1
40
1
10
5.926667
20
127.339547
30
0
10
7.094629
20
127.339547
30
0
10
8.929951
20
126.312346
30
0
10
8.510764
20
125.893158
30
0
0
SPLINE
5
86
100
AcDbEntity
8
0
6
ByLayer
62
7
370
-1
100
AcDbSpline
210
0
220
0
230
1
70
8
71
3
72
8
73
4
74
0
42
1e-07
43
1e-07
40
0
40
0
40
0
40
0
40
1
40
1
40
1
40
1
10
8.510764
20
125.893158
30
0
10
8.265936
20
125.648331
30
0
10
7.984577
20
125.683284
30
0
10
7.593542
20
126.007811
30
0
0
SPLINE
5
87
100
AcDbEntity
8
0
6
ByLayer
62
7
370
-1
100
AcDbSpline
210
0
220
0
230
1
70
8
71
3
72
8
73
4
74
0
42
1e-07
43
1e-07
40
0
40
0
40
0
40
0
40
1
40
1
40
1
40
1
10
7.593542
20
126.007811
30
0
10
6.719762
20
126.73299
30
0
10
2.07816
20
126.653349
30
0
10
0.917222
20
125.893158
30
0
0
SPLINE
5
88
100
AcDbEntity
8
0
6
ByLayer
62
7
370
-1
100
AcDbSpline
210
0
220
0
230
1
70
8
71
3
72
8
73
4
74
0
42
1e-07
43
1e-07
40
0
40
0
40
0
40
0
40
1
40
1
40
1
40
1
10
0.917222
20
125.893158
30
0
10
0.412863
20
125.562896
30
0
10
0
20
125.149153
30
0
10
0
20
124.975936
30
0
0
SPLINE
5
89
100
AcDbEntity
8
0
6
ByLayer
62
7
370
-1
100
AcDbSpline
210
0
220
0
230
1
70
8
71
3
72
8
73
4
74
0
42
1e-07
43
1e-07
40
0
40
0
40
0
40
0
40
1
40
1
40
1
40
1
10
0
20
124.975936
30
0
10
-0
20
124.543662
30
0
10
2.245781
20
123.955138
30
0
10
3.907014
20
123.952881
30
0
0
SPLINE
5
8A
100
AcDbEntity
8
0
6
ByLayer
62
7
370
-1
100
AcDbSpline
210
0
220
0
230
1
70
8
71
3
72
8
73
4
74
0
42
1e-07
43
1e-07
40
0
40
0
40
0
40
0
40
1
40
1
40
1
40
1
10
3.907014
20
123.952881
30
0
10
5.515491
20
123.950657
30
0
10
8.894939
20
122.835633
30
0
10
9.092847
20
122.241908
30
0
0
SPLINE
5
8B
100
AcDbEntity
8
0
6
ByLayer
62
7
370
-1
100
AcDbSpline
210
0
220
0
230
1
70
8
71
3
72
8
73
4
74
0
42
1e-07
43
1e-07
40
0
40
0
40
0
40
0
40
1
40
1
40
1
40
1
10
9.092847
20
122.241908
30
0
10
9.191721
20
121.945293
30
0
10
8.909242
20
121.886122
30
0
10
8.087431
20
122.039061
30
0
0
SPLINE
5
8C
100
AcDbEntity
8
0
6
ByLayer
62
7
370
-1
100
AcDbSpline
210
0
220
0
230
1
70
8
71
3
72
8
73
4
74
0
42
1e-07
43
1e-07
40
0
40
0
40
0
40
0
40
1
40
1
40
1
40
1
10
8.087431
20
122.039061
30
0
10
4.488341
20
122.708837
30
0
10
4.488572
20
122.712093
30
0
10
2.813403
20
121.730381
30
0
0
LWPOLYLINE
5
8D
100
AcDbEntity
8
0
6
ByLayer
62
7
370
-1
100
AcDbPolyline
90
3
70
0
43
0
10
85.654444
20
152.37795
10
86.721597
20
151.416631
10
86.033681
20
150.137811
0
SPLINE
5
8E
100
AcDbEntity
8
0
6
ByLayer
62
7
370
-1
100
AcDbSpline
210
0
220
0
230
1
70
8
71
3
72
8
73
4
74
0
42
1e-07
43
1e-07
40
0
40
0
40
0
40
0
40
1
40
1
40
1
40
1
10
2.204861
20
120.345728
30
0
10
2.76129
20
120.10848
30
0
10
3.620476
20
119.913166
30
0
10
4.109861
20
119.904756
30
0
0
SPLINE
5
8F
100
AcDbEntity
8
0
6
ByLayer
62
7
370
-1
100
AcDbSpline
210
0
220
0
230
1
70
8
71
3
72
8
73
4
74
0
42
1e-07
43
1e-07
40
0
40
0
40
0
40
0
40
1
40
1
40
1
40
1
10
4.109861
20
119.904756
30
0
10
5.951988
20
119.873135
30
0
10
9.824861
20
118.802523
30
0
10
9.824861
20
118.326075
30
0
0
SPLINE
5
90
100
AcDbEntity
8
0
6
ByLayer
62
7
370
-1
100
AcDbSpline
210
0
220
0
230
1
70
8
71
3
72
8
73
4
74
0
42
1e-07
43
1e-07
40
0
40
0
40
0
40
0
40
1
40
1
40
1
40
1
10
9.824861
20
118.326075
30
0
10
9.824861
20
118.011019
30
0
10
9.420654
20
117.858644
30
0
10
8.607778
20
117.858644
30
0
0
SPLINE
5
91
100
AcDbEntity
8
0
6
ByLayer
62
7
370
-1
100
AcDbSpline
210
0
220
0
230
1
70
8
71
3
72
8
73
4
74
0
42
1e-07
43
1e-07
40
0
40
0
40
0
40
0
40
1
40
1
40
1
40
1
10
8.607778
20
117.858644
30
0
10
7.463
20
117.858644
30
0
10
4.763036
20
116.380209
30
0
10
4.744861
20
115.741978
30
0
0
SPLINE
5
92
100
AcDbEntity
8
0
6
ByLayer
62
7
370
-1
100
AcDbSpline
210
0
220
0
230
1
70
8
71
3
72
8
73
4
74
0
42
1e-07
43
1e-07
40
0
40
0
40
0
40
0
40
1
40
1
40
1
40
1
10
4.744861
20
115.741978
30
0
10
4.740885
20
115.602278
30
0
10
6.330143
20
115.486214
30
0
10
8.272639
20
115.486214
30
0
0
SPLINE
5
93
100
AcDbEntity
8
0
6
ByLayer
62
7
370
-1
100
AcDbSpline
210
0
220
0
230
1
70
8
71
3
72
8
73
4
74
0
42
1e-07
43
1e-07
40
0
40
0
40
0
40
0
40
1
40
1
40
1
40
1
10
8.272639
20
115.486214
30
0
10
10.663278
20
115.486214
30
0
10
11.947282
20
115.344671
30
0
10
12.250208
20
115.054061
30
0
0
SPLINE
5
94
100
AcDbEntity
8
0
6
ByLayer
62
7
370
-1
100
AcDbSpline
210
0
220
0
230
1
70
8
71
3
72
8
73
4
74
0
42
1e-07
43
1e-07
40
0
40
0
40
0
40
0
40
1
40
1
40
1
40
1
10
12.250208
20
115.054061
30
0
10
12.496346
20
114.817929
30
0
10
13.340388
20
114.34123
30
0
10
14.119931
20
113.995728
30
0
0
SPLINE
5
95
100
AcDbEntity
8
0
6
ByLayer
62
7
370
-1
100
AcDbSpline
210
0
220
0
230
1
70
8
71
3
72
8
73
4
74
0
42
1e-07
43
1e-07
40
0
40
0
40
0
40
0
40
1
40
1
40
1
40
1
10
14.119931
20
113.995728
30
0
10
15.109023
20
113.557346
30
0
10
16.005897
20
112.726718
30
0
10
17.100903
20
111.235242
30
0
0
SPLINE
5
96
100
AcDbEntity
8
0
6
ByLayer
62
7
370
-1
100
AcDbSpline
210
0
220
0
230
1
70
8
71
3
72
8
73
4
74
0
42
1e-07
43
1e-07
40
0
40
0
40
0
40
0
40
1
40
1
40
1
40
1
10
17.100903
20
111.235242
30
0
10
18.611314
20
109.177943
30
0
10
20.156353
20
107.762621
30
0
10
22.06625
20
106.684408
30
0
0
SPLINE
5
97
100
AcDbEntity
8
0
6
ByLayer
62
7
370
-1
100
AcDbSpline
210
0
220
0
230
1
70
8
71
3
72
8
73
4
74
0
42
1e-07
43
1e-07
40
0
40
0
40
0
40
0
40
1
40
1
40
1
40
1
10
22.06625
20
106.684408
30
0
10
22.56249
20
106.404263
30
0
10
23.561796
20
105.837533
30
0
10
24.28875
20
105.432047
30
0
0
SPLINE
5
98
100
AcDbEntity
8
0
6
ByLayer
62
7
370
-1
100
AcDbSpline
210
0
220
0
230
1
70
8
71
3
72
8
73
4
74
0
42
1e-07
43
1e-07
40
0
40
0
40
0
40
0
40
1
40
1
40
1
40
1
10
24.28875
20
105.432047
30
0
10
25.015704
20
105.026562
30
0
10
25.809459
20
104.455062
30
0
10
26.052639
20
104.162047
30
0
0
SPLINE
5
99
100
AcDbEntity
8
0
6
ByLayer
62
7
370
-1
100
AcDbSpline
210
0
220
0
230
1
70
8
71
3
72
8
73
4
74
0
42
1e-07
43
1e-07
40
0
40
0
40
0
40
0
40
1
40
1
40
1
40
1
10
26.052639
20
104.162047
30
0
10
26.295818
20
103.869033
30
0
10
26.746079
20
103.629931
30
0
10
27.049236
20
103.624061
30
0
0
SPLINE
5
9A
100
AcDbEntity
8
0
6
ByLayer
62
7
370
-1
100
AcDbSpline
210
0
220
0
230
1
70
8
71
3
72
8
73
4
74
0
42
1e-07
43
1e-07
40
0
40
0
40
0
40
0
40
1
40
1
40
1
40
1
10
27.049236
20
103.624061
30
0
10
27.352396
20
103.618205
30
0
10
27.878586
20
103.222648
30
0
10
28.222222
20
102.750936
30
0
0
SPLINE
5
9B
100
AcDbEntity
8
0
6
ByLayer
62
7
370
-1
100
AcDbSpline
210
0
220
0
230
1
70
8
71
3
72
8
73
4
74
0
42
1e-07
43
1e-07
40
0
40
0
40
0
40
0
40
1
40
1
40
1
40
1
10
28.222222
20
102.750936
30
0
10
28.761075
20
102.011251
30
0
10
28.797069
20
101.758008
30
0
10
28.433889
20
100.881214
30
0
0
SPLINE
5
9C
100
AcDbEntity
8
0
6
ByLayer
62
7
370
-1
100
AcDbSpline
210
0
220
0
230
1
70
8
71
3
72
8
73
4
74
0
42
1e-07
43
1e-07
40
0
40
0
40
0
40
0
40
1
40
1
40
1
40
1
10
28.433889
20
100.881214
30
0
10
27.881778
20
99.548304
30
0
10
28.477489
20
98.904916
30
0
10
30.515278
20
98.658714
30
0
0
SPLINE
5
9D
100
AcDbEntity
8
0
6
ByLayer
62
7
370
-1
100
AcDbSpline
210
0
220
0
230
1
70
8
71
3
72
8
73
4
74
0
42
1e-07
43
1e-07
40
0
40
0
40
0
40
0
40
1
40
1
40
1
40
1
10
30.515278
20
98.658714
30
0
10
32.786935
20
98.38425
30
0
10
41.134959
20
95.959975
30
0
10
45.640625
20
94.266631
30
0
0
SPLINE
5
9E
100
AcDbEntity
8
0
6
ByLayer
62
7
370
-1
100
AcDbSpline
210
0
220
0
230
1
70
8
71
3
72
8
73
4
74
0
42
1e-07
43
1e-07
40
0
40
0
40
0
40
0
40
1
40
1
40
1
40
1
10
45.640625
20
94.266631
30
0
10
46.806753
20
93.828373
30
0
10
47.949753
20
93.472316
30
0
10
48.180625
20
93.472881
30
0
0
SPLINE
5
9F
100
AcDbEntity
8
0
6
ByLayer
62
7
370
-1
100
AcDbSpline
210
0
220
0
230
1
70
8
71
3
72
8
73
4
74
0
42
1e-07
43
1e-07
40
0
40
0
40
0
40
0
40
1
40
1
40
1
40
1
10
48.180625
20
93.472881
30
0
10
48.4115
20
93.473417
30
0
10
49.589267
20
93.077623
30
0
10
50.8
20
92.590936
30
0
0
SPLINE
5
A0
100
AcDbEntity
8
0
6
ByLayer
62
7
370
-1
100
AcDbSpline
210
0
220
0
230
1
70
8
71
3
72
8
73
4
74
0
42
1e-07
43
1e-07
40
0
40
0
40
0
40
0
40
1
40
1
40
1
40
1
10
50.8
20
92.590936
30
0
10
54.112665
20
91.259321
30
0
10
55.283145
20
90.834337
30
0
10
56.215139
20
90.6242
30
0
0
SPLINE
5
A1
100
AcDbEntity
8
0
6
ByLayer
62
7
370
-1
100
AcDbSpline
210
0
220
0
230
1
70
8
71
3
72
8
73
4
74
0
42
1e-07
43
1e-07
40
0
40
0
40
0
40
0
40
1
40
1
40
1
40
1
10
56.215139
20
90.6242
30
0
10
57.892555
20
90.245991
30
0
10
58.14318
20
89.871996
30
0
10
57.30875
20
88.983783
30
0
0
SPLINE
5
A2
100
AcDbEntity
8
0
6
ByLayer
62
7
370
-1
100
AcDbSpline
210
0
220
0
230
1
70
8
71
3
72
8
73
4
74
0
42
1e-07
43
1e-07
40
0
40
0
40
0
40
0
40
1
40
1
40
1
40
1
10
57.30875
20
88.983783
30
0
10
56.89453
20
88.542868
30
0
10
56.559097
20
87.956201
30
0
10
56.559097
20
87.687325
30
0
0
SPLINE
5
A3
100
AcDbEntity
8
0
6
ByLayer
62
7
370
-1
100
AcDbSpline
210
0
220
0
230
1
70
8
71
3
72
8
73
4
74
0
42
1e-07
43
1e-07
40
0
40
0
40
0
40
0
40
1
40
1
40
1
40
1
10
56.559097
20
87.687325
30
0
10
56.559097
20
87.418446
30
0
10
56.180126
20
86.494397
30
0
10
55.72125
20
85.632394
30
0
0
LWPOLYLINE
5
A4
100
AcDbEntity
8
0
6
ByLayer
62
7
370
-1
100
AcDbPolyline
90
3
70
0
43
0
10
2.813403
20
121.730381
10
1.190625
20
120.777881
10
2.204861
20
120.345728
0
SPLINE
5
A5
100
AcDbEntity
8
0
6
ByLayer
62
7
370
-1
100
AcDbSpline
210
0
220
0
230
1
70
8
71
3
72
8
73
4
74
0
42
1e-07
43
1e-07
40
0
40
0
40
0
40
0
40
1
40
1
40
1
40
1
10
55.809444
20
82.854269
30
0
10
56.314888
20
82.187841
30
0
10
56.898187
20
81.63514
30
0
10
57.105903
20
81.628367
30
0
0
SPLINE
5
A6
100
AcDbEntity
8
0
6
ByLayer
62
7
370
-1
100
AcDbSpline
210
0
220
0
230
1
70
8
71
3
72
8
73
4
74
0
42
1e-07
43
1e-07
40
0
40
0
40
0
40
0
40
1
40
1
40
1
40
1
10
57.105903
20
81.628367
30
0
10
57.313616
20
81.621579
30
0
10
57.855248
20
81.319076
30
0
10
58.314167
20
80.958089
30
0
0
SPLINE
5
A7
100
AcDbEntity
8
0
6
ByLayer
62
7
370
-1
100
AcDbSpline
210
0
220
0
230
1
70
8
71
3
72
8
73
4
74
0
42
1e-07
43
1e-07
40
0
40
0
40
0
40
0
40
1
40
1
40
1
40
1
10
58.314167
20
80.958089
30
0
10
58.773088
20
80.597101
30
0
10
59.595695
20
80.197689
30
0
10
60.139792
20
80.067325
30
0
0
SPLINE
5
A8
100
AcDbEntity
8
0
6
ByLayer
62
7
370
-1
100
AcDbSpline
210
0
220
0
230
1
70
8
71
3
72
8
73
4
74
0
42
1e-07
43
1e-07
40
0
40
0
40
0
40
0
40
1
40
1
40
1
40
1
10
60.139792
20
80.067325
30
0
10
60.683891
20
79.936961
30
0
10
61.323403
20
79.680345
30
0
10
61.559722
20
79.494061
30
0
0
SPLINE
5
A9
100
AcDbEntity
8
0
6
ByLayer
62
7
370
-1
100
AcDbSpline
210
0
220
0
230
1
70
8
71
3
72
8
73
4
74
0
42
1e-07
43
1e-07
40
0
40
0
40
0
40
0
40
1
40
1
40
1
40
1
10
61.559722
20
79.494061
30
0
10
61.802241
20
79.302889
30
0
10
62.806594
20
79.243154
30
0
10
63.870417
20
79.35295
30
0
0
SPLINE
5
AA
100
AcDbEntity
8
0
6
ByLayer
62
7
370
-1
100
AcDbSpline
210
0
220
0
230
1
70
8
71
3
72
8
73
4
74
0
42
1e-07
43
1e-07
40
0
40
0
40
0
40
0
40
1
40
1
40
1
40
1
10
63.870417
20
79.35295
30
0
10
66.290467
20
79.602719
30
0
10
66.715753
20
79.414257
30
0
10
66.727917
20
78.109408
30
0
0
SPLINE
5
AB
100
AcDbEntity
8
0
6
ByLayer
62
7
370
-1
100
AcDbSpline
210
0
220
0
230
1
70
8
71
3
72
8
73
4
74
0
42
1e-07
43
1e-07
40
0
40
0
40
0
40
0
40
1
40
1
40
1
40
1
10
66.727917
20
78.109408
30
0
10
66.739499
20
76.867822
30
0
10
68.220802
20
75.047625
30
0
10
69.461944
20
74.7492
30
0
0
SPLINE
5
AC
100
AcDbEntity
8
0
6
ByLayer
62
7
370
-1
100
AcDbSpline
210
0
220
0
230
1
70
8
71
3
72
8
73
4
74
0
42
1e-07
43
1e-07
40
0
40
0
40
0
40
0
40
1
40
1
40
1
40
1
10
69.461944
20
74.7492
30
0
10
72.791278
20
73.948682
30
0
10
76.255028
20
72.938513
30
0
10
77.434722
20
72.429686
30
0
0
SPLINE
5
AD
100
AcDbEntity
8
0
6
ByLayer
62
7
370
-1
100
AcDbSpline
210
0
220
0
230
1
70
8
71
3
72
8
73
4
74
0
42
1e-07
43
1e-07
40
0
40
0
40
0
40
0
40
1
40
1
40
1
40
1
10
77.434722
20
72.429686
30
0
10
78.205801
20
72.097104
30
0
10
79.274365
20
71.724088
30
0
10
79.807153
20
71.600658
30
0
0
SPLINE
5
AE
100
AcDbEntity
8
0
6
ByLayer
62
7
370
-1
100
AcDbSpline
210
0
220
0
230
1
70
8
71
3
72
8
73
4
74
0
42
1e-07
43
1e-07
40
0
40
0
40
0
40
0
40
1
40
1
40
1
40
1
10
79.807153
20
71.600658
30
0
10
80.33994
20
71.477228
30
0
10
81.613728
20
70.994123
30
0
10
82.638194
20
70.524686
30
0
0
SPLINE
5
AF
100
AcDbEntity
8
0
6
ByLayer
62
7
370
-1
100
AcDbSpline
210
0
220
0
230
1
70
8
71
3
72
8
73
4
74
0
42
1e-07
43
1e-07
40
0
40
0
40
0
40
0
40
1
40
1
40
1
40
1
10
82.638194
20
70.524686
30
0
10
83.662661
20
70.055252
30
0
10
84.722406
20
69.567953
30
0
10
85.001806
20
69.439894
30
0
0
SPLINE
5
B0
100
AcDbEntity
8
0
6
ByLayer
62
7
370
-1
100
AcDbSpline
210
0
220
0
230
1
70
8
71
3
72
8
73
4
74
0
42
1e-07
43
1e-07
40
0
40
0
40
0
40
0
40
1
40
1
40
1
40
1
10
85.001806
20
69.439894
30
0
10
85.281206
20
69.311836
30
0
10
85.968769
20
68.980301
30
0
10
86.527569
20
68.699061
30
0
0
SPLINE
5
B1
100
AcDbEntity
8
0
6
ByLayer
62
7
370
-1
100
AcDbSpline
210
0
220
0
230
1
70
8
71
3
72
8
73
4
74
0
42
1e-07
43
1e-07
40
0
40
0
40
0
40
0
40
1
40
1
40
1
40
1
10
86.527569
20
68.699061
30
0
10
87.086369
20
68.417827
30
0
10
88.461497
20
67.766466
30
0
10
89.579097
20
67.252672
30
0
0
SPLINE
5
B2
100
AcDbEntity
8
0
6
ByLayer
62
7
370
-1
100
AcDbSpline
210
0
220
0
230
1
70
8
71
3
72
8
73
4
74
0
42
1e-07
43
1e-07
40
0
40
0
40
0
40
0
40
1
40
1
40
1
40
1
10
89.579097
20
67.252672
30
0
10
92.283438
20
66.009407
30
0
10
91.869043
20
66.215954
30
0
10
95.929097
20
64.121769
30
0
0
SPLINE
5
B3
100
AcDbEntity
8
0
6
ByLayer
62
7
370
-1
100
AcDbSpline
210
0
220
0
230
1
70
8
71
3
72
8
73
4
74
0
42
1e-07
43
1e-07
40
0
40
0
40
0
40
0
40
1
40
1
40
1
40
1
10
95.929097
20
64.121769
30
0
10
97.819515
20
63.146686
30
0
10
98.001904
20
63.072459
30
0
10
99.818472
20
62.657742
30
0
0
SPLINE
5
B4
100
AcDbEntity
8
0
6
ByLayer
62
7
370
-1
100
AcDbSpline
210
0
220
0
230
1
70
8
71
3
72
8
73
4
74
0
42
1e-07
43
1e-07
40
0
40
0
40
0
40
0
40
1
40
1
40
1
40
1
10
99.818472
20
62.657742
30
0
10
101.305284
20
62.31831
30
0
10
101.952369
20
62.343055
30
0
10
103.840139
20
62.816492
30
0
0
SPLINE
5
B5
100
AcDbEntity
8
0
6
ByLayer
62
7
370
-1
100
AcDbSpline
210
0
220
0
230
1
70
8
71
3
72
8
73
4
74
0
42
1e-07
43
1e-07
40
0
40
0
40
0
40
0
40
1
40
1
40
1
40
1
10
103.840139
20
62.816492
30
0
10
105.077587
20
63.126832
30
0
10
106.401602
20
63.675613
30
0
10
106.785833
20
64.033575
30
0
0
SPLINE
5
B6
100
AcDbEntity
8
0
6
ByLayer
62
7
370
-1
100
AcDbSpline
210
0
220
0
230
1
70
8
71
3
72
8
73
4
74
0
42
1e-07
43
1e-07
40
0
40
0
40
0
40
0
40
1
40
1
40
1
40
1
10
106.785833
20
64.033575
30
0
10
107.170062
20
64.39154
30
0
10
107.614926
20
64.686214
30
0
10
107.773611
20
64.686214
30
0
0
SPLINE
5
B7
100
AcDbEntity
8
0
6
ByLayer
62
7
370
-1
100
AcDbSpline
210
0
220
0
230
1
70
8
71
3
72
8
73
4
74
0
42
1e-07
43
1e-07
40
0
40
0
40
0
40
0
40
1
40
1
40
1
40
1
10
107.773611
20
64.686214
30
0
10
107.932299
20
64.686214
30
0
10
108.504208
20
65.010611
30
0
10
109.043611
20
65.409408
30
0
0
LWPOLYLINE
5
B8
100
AcDbEntity
8
0
6
ByLayer
62
7
370
-1
100
AcDbPolyline
90
3
70
0
43
0
10
55.72125
20
85.632394
10
54.892222
20
84.062533
10
55.809444
20
82.854269
0
SPLINE
5
B9
100
AcDbEntity
8
0
6
ByLayer
62
7
370
-1
100
AcDbSpline
210
0
220
0
230
1
70
8
71
3
72
8
73
4
74
0
42
1e-07
43
1e-07
40
0
40
0
40
0
40
0
40
1
40
1
40
1
40
1
10
113.391597
20
62.790033
30
0
10
115.245109
20
60.94767
30
0
10
117.296791
20
58.978374
30
0
10
117.95125
20
58.415589
30
0
0
LWPOLYLINE
5
BA
100
AcDbEntity
8
0
6
ByLayer
62
7
370
-1
100
AcDbPolyline
90
3
70
0
43
0
10
109.043611
20
65.409408
10
110.022569
20
66.132603
10
113.391597
20
62.790033
0
SPLINE
5
BB
100
AcDbEntity
8
0
6
ByLayer
62
7
370
-1
100
AcDbSpline
210
0
220
0
230
1
70
8
71
3
72
8
73
4
74
0
42
1e-07
43
1e-07
40
0
40
0
40
0
40
0
40
1
40
1
40
1
40
1
10
119.335903
20
51.130728
30
0
10
119.439363
20
47.688779
30
0
10
119.590924
20
43.888237
30
0
10
119.679861
20
42.6817
30
0
0
SPLINE
5
BC
100
AcDbEntity
8
0
6
ByLayer
62
7
370
-1
100
AcDbSpline
210
0
220
0
230
1
70
8
71
3
72
8
73
4
74
0
42
1e-07
43
1e-07
40
0
40
0
40
0
40
0
40
1
40
1
40
1
40
1
10
119.679861
20
42.6817
30
0
10
119.768798
20
41.47516
30
0
10
119.712224
20
40.322455
30
0
10
119.547569
20
40.124061
30
0
0
SPLINE
5
BD
100
AcDbEntity
8
0
6
ByLayer
62
7
370
-1
100
AcDbSpline
210
0
220
0
230
1
70
8
71
3
72
8
73
4
74
0
42
1e-07
43
1e-07
40
0
40
0
40
0
40
0
40
1
40
1
40
1
40
1
10
119.547569
20
40.124061
30
0
10
119.382921
20
39.92567
30
0
10
119.251942
20
38.213451
30
0
10
119.265347
20
36.314061
30
0
0
SPLINE
5
BE
100
AcDbEntity
8
0
6
ByLayer
62
7
370
-1
100
AcDbSpline
210
0
220
0
230
1
70
8
71
3
72
8
73
4
74
0
42
1e-07
43
1e-07
40
0
40
0
40
0
40
0
40
1
40
1
40
1
40
1
10
119.265347
20
36.314061
30
0
10
119.285089
20
33.520298
30
0
10
119.180026
20
32.678226
30
0
10
118.683264
20
31.921978
30
0
0
SPLINE
5
BF
100
AcDbEntity
8
0
6
ByLayer
62
7
370
-1
100
AcDbSpline
210
0
220
0
230
1
70
8
71
3
72
8
73
4
74
0
42
1e-07
43
1e-07
40
0
40
0
40
0
40
0
40
1
40
1
40
1
40
1
10
118.683264
20
31.921978
30
0
10
117.36166
20
29.910016
30
0
10
115.825764
20
27.001326
30
0
10
115.825764
20
26.506839
30
0
0
SPLINE
5
C0
100
AcDbEntity
8
0
6
ByLayer
62
7
370
-1
100
AcDbSpline
210
0
220
0
230
1
70
8
71
3
72
8
73
4
74
0
42
1e-07
43
1e-07
40
0
40
0
40
0
40
0
40
1
40
1
40
1
40
1
10
115.825764
20
26.506839
30
0
10
115.825764
20
26.22075
30
0
10
115.534386
20
25.508943
30
0
10
115.181944
20
24.928158
30
0
0
SPLINE
5
C1
100
AcDbEntity
8
0
6
ByLayer
62
7
370
-1
100
AcDbSpline
210
0
220
0
230
1
70
8
71
3
72
8
73
4
74
0
42
1e-07
43
1e-07
40
0
40
0
40
0
40
0
40
1
40
1
40
1
40
1
10
115.181944
20
24.928158
30
0
10
114.829505
20
24.347373
30
0
10
114.436254
20
23.339953
30
0
10
114.308819
20
22.688019
30
0
0
SPLINE
5
C2
100
AcDbEntity
8
0
6
ByLayer
62
7
370
-1
100
AcDbSpline
210
0
220
0
230
1
70
8
71
3
72
8
73
4
74
0
42
1e-07
43
1e-07
40
0
40
0
40
0
40
0
40
1
40
1
40
1
40
1
10
114.308819
20
22.688019
30
0
10
114.181385
20
22.036086
30
0
10
113.877245
20
20.893086
30
0
10
113.629722
20
20.148019
30
0
0
SPLINE
5
C3
100
AcDbEntity
8
0
6
ByLayer
62
7
370
-1
100
AcDbSpline
210
0
220
0
230
1
70
8
71
3
72
8
73
4
74
0
42
1e-07
43
1e-07
40
0
40
0
40
0
40
0
40
1
40
1
40
1
40
1
10
113.629722
20
20.148019
30
0
10
113.382199
20
19.402953
30
0
10
112.990421
20
17.878953
30
0
10
112.765417
20
16.761353
30
0
0
SPLINE
5
C4
100
AcDbEntity
8
0
6
ByLayer
62
7
370
-1
100
AcDbSpline
210
0
220
0
230
1
70
8
71
3
72
8
73
4
74
0
42
1e-07
43
1e-07
40
0
40
0
40
0
40
0
40
1
40
1
40
1
40
1
10
112.765417
20
16.761353
30
0
10
112.540415
20
15.643753
30
0
10
111.992932
20
13.590516
30
0
10
111.548333
20
12.192881
30
0
0
SPLINE
5
C5
100
AcDbEntity
8
0
6
ByLayer
62
7
370
-1
100
AcDbSpline
210
0
220
0
230
1
70
8
71
3
72
8
73
4
74
0
42
1e-07
43
1e-07
40
0
40
0
40
0
40
0
40
1
40
1
40
1
40
1
10
111.548333
20
12.192881
30
0
10
111.103732
20
10.795246
30
0
10
110.745764
20
9.424326
30
0
10
110.745764
20
9.150172
30
0
0
SPLINE
5
C6
100
AcDbEntity
8
0
6
ByLayer
62
7
370
-1
100
AcDbSpline
210
0
220
0
230
1
70
8
71
3
72
8
73
4
74
0
42
1e-07
43
1e-07
40
0
40
0
40
0
40
0
40
1
40
1
40
1
40
1
10
110.745764
20
9.150172
30
0
10
110.745764
20
8.539999
30
0
10
109.279391
20
4.539494
30
0
10
108.170486
20
2.112256
30
0
0
SPLINE
5
C7
100
AcDbEntity
8
0
6
ByLayer
62
7
370
-1
100
AcDbSpline
210
0
220
0
230
1
70
8
71
3
72
8
73
4
74
0
42
1e-07
43
1e-07
40
0
40
0
40
0
40
0
40
1
40
1
40
1
40
1
10
108.170486
20
2.112256
30
0
10
107.721837
20
1.130227
30
0
10
107.359097
20
0.252163
30
0
10
107.359097
20
0.163158
30
0
0
SPLINE
5
C8
100
AcDbEntity
8
0
6
ByLayer
62
7
370
-1
100
AcDbSpline
210
0
220
0
230
1
70
8
71
3
72
8
73
4
74
0
42
1e-07
43
1e-07
40
0
40
0
40
0
40
0
40
1
40
1
40
1
40
1
10
107.359097
20
0.163158
30
0
10
107.359097
20
0.074151
30
0
10
126.483533
20
-0.004411
30
0
10
149.86
20
-0.004411
30
0
0
SPLINE
5
C9
100
AcDbEntity
8
0
6
ByLayer
62
7
370
-1
100
AcDbSpline
210
0
220
0
230
1
70
8
71
3
72
8
73
4
74
0
42
1e-07
43
1e-07
40
0
40
0
40
0
40
0
40
1
40
1
40
1
40
1
10
149.86
20
-0.004411
30
0
10
176.1922
20
-0.004411
30
0
10
192.360903
20
0.124471
30
0
10
192.360903
20
0.321908
30
0
0
SPLINE
5
CA
100
AcDbEntity
8
0
6
ByLayer
62
7
370
-1
100
AcDbSpline
210
0
220
0
230
1
70
8
71
3
72
8
73
4
74
0
42
1e-07
43
1e-07
40
0
40
0
40
0
40
0
40
1
40
1
40
1
40
1
10
192.360903
20
0.321908
30
0
10
192.360903
20
0.49718
30
0
10
192.220712
20
0.720488
30
0
10
192.052222
20
0.824617
30
0
0
SPLINE
5
CB
100
AcDbEntity
8
0
6
ByLayer
62
7
370
-1
100
AcDbSpline
210
0
220
0
230
1
70
8
71
3
72
8
73
4
74
0
42
1e-07
43
1e-07
40
0
40
0
40
0
40
0
40
1
40
1
40
1
40
1
10
192.052222
20
0.824617
30
0
10
191.802168
20
0.979162
30
0
10
190.005451
20
3.893419
30
0
10
189.318194
20
5.251978
30
0
0
SPLINE
5
CC
100
AcDbEntity
8
0
6
ByLayer
62
7
370
-1
100
AcDbSpline
210
0
220
0
230
1
70
8
71
3
72
8
73
4
74
0
42
1e-07
43
1e-07
40
0
40
0
40
0
40
0
40
1
40
1
40
1
40
1
10
189.318194
20
5.251978
30
0
10
189.223969
20
5.438244
30
0
10
188.853942
20
6.014316
30
0
10
188.497986
20
6.539617
30
0
0
SPLINE
5
CD
100
AcDbEntity
8
0
6
ByLayer
62
7
370
-1
100
AcDbSpline
210
0
220
0
230
1
70
8
71
3
72
8
73
4
74
0
42
1e-07
43
1e-07
40
0
40
0
40
0
40
0
40
1
40
1
40
1
40
1
10
188.497986
20
6.539617
30
0
10
187.827113
20
7.529675
30
0
10
187.416415
20
8.251413
30
0
10
185.852153
20
11.125728
30
0
0
SPLINE
5
CE
100
AcDbEntity
8
0
6
ByLayer
62
7
370
-1
100
AcDbSpline
210
0
220
0
230
1
70
8
71
3
72
8
73
4
74
0
42
1e-07
43
1e-07
40
0
40
0
40
0
40
0
40
1
40
1
40
1
40
1
10
185.852153
20
11.125728
30
0
10
185.343459
20
12.060442
30
0
10
184.771959
20
12.913419
30
0
10
184.582153
20
13.030728
30
0
0
SPLINE
5
CF
100
AcDbEntity
8
0
6
ByLayer
62
7
370
-1
100
AcDbSpline
210
0
220
0
230
1
70
8
71
3
72
8
73
4
74
0
42
1e-07
43
1e-07
40
0
40
0
40
0
40
0
40
1
40
1
40
1
40
1
10
184.582153
20
13.030728
30
0
10
184.392344
20
13.148036
30
0
10
184.238194
20
13.481905
30
0
10
184.238194
20
13.762742
30
0
0
SPLINE
5
D0
100
AcDbEntity
8
0
6
ByLayer
62
7
370
-1
100
AcDbSpline
210
0
220
0
230
1
70
8
71
3
72
8
73
4
74
0
42
1e-07
43
1e-07
40
0
40
0
40
0
40
0
40
1
40
1
40
1
40
1
10
184.238194
20
13.762742
30
0
10
184.238194
20
14.043578
30
0
10
183.890468
20
14.757304
30
0
10
183.470903
20
15.350242
30
0
0
SPLINE
5
D1
100
AcDbEntity
8
0
6
ByLayer
62
7
370
-1
100
AcDbSpline
210
0
220
0
230
1
70
8
71
3
72
8
73
4
74
0
42
1e-07
43
1e-07
40
0
40
0
40
0
40
0
40
1
40
1
40
1
40
1
10
183.470903
20
15.350242
30
0
10
182.458733
20
16.780657
30
0
10
182.064668
20
17.432703
30
0
10
180.851528
20
19.645311
30
0
0
SPLINE
5
D2
100
AcDbEntity
8
0
6
ByLayer
62
7
370
-1
100
AcDbSpline
210
0
220
0
230
1
70
8
71
3
72
8
73
4
74
0
42
1e-07
43
1e-07
40
0
40
0
40
0
40
0
40
1
40
1
40
1
40
1
10
180.851528
20
19.645311
30
0
10
179.756319
20
21.642818
30
0
10
179.369435
20
22.287876
30
0
10
178.311528
20
23.878644
30
0
0
SPLINE
5
D3
100
AcDbEntity
8
0
6
ByLayer
62
7
370
-1
100
AcDbSpline
210
0
220
0
230
1
70
8
71
3
72
8
73
4
74
0
42
1e-07
43
1e-07
40
0
40
0
40
0
40
0
40
1
40
1
40
1
40
1
10
178.311528
20
23.878644
30
0
10
177.939378
20
24.438243
30
0
10
177.400687
20
25.299125
30
0
10
177.120903
20
25.792464
30
0
0
SPLINE
5
D4
100
AcDbEntity
8
0
6
ByLayer
62
7
370
-1
100
AcDbSpline
210
0
220
0
230
1
70
8
71
3
72
8
73
4
74
0
42
1e-07
43
1e-07
40
0
40
0
40
0
40
0
40
1
40
1
40
1
40
1
10
177.120903
20
25.792464
30
0
10
175.307628
20
28.989779
30
0
10
171.386438
20
33.28033
30
0
10
168.601319
20
35.123436
30
0
0
SPLINE
5
D5
100
AcDbEntity
8
0
6
ByLayer
62
7
370
-1
100
AcDbSpline
210
0
220
0
230
1
70
8
71
3
72
8
73
4
74
0
42
1e-07
43
1e-07
40
0
40
0
40
0
40
0
40
1
40
1
40
1
40
1
10
168.601319
20
35.123436
30
0
10
167.884004
20
35.598131
30
0
10
167.304861
20
36.117265
30
0
10
167.304861
20
36.278783
30
0
0
SPLINE
5
D6
100
AcDbEntity
8
0
6
ByLayer
62
7
370
-1
100
AcDbSpline
210
0
220
0
230
1
70
8
71
3
72
8
73
4
74
0
42
1e-07
43
1e-07
40
0
40
0
40
0
40
0
40
1
40
1
40
1
40
1
10
167.304861
20
36.278783
30
0
10
167.304861
20
36.440296
30
0
10
167.019588
20
36.578644
30
0
10
166.669861
20
36.578644
30
0
0
SPLINE
5
D7
100
AcDbEntity
8
0
6
ByLayer
62
7
370
-1
100
AcDbSpline
210
0
220
0
230
1
70
8
71
3
72
8
73
4
74
0
42
1e-07
43
1e-07
40
0
40
0
40
0
40
0
40
1
40
1
40
1
40
1
10
166.669861
20
36.578644
30
0
10
166.320137
20
36.578644
30
0
10
165.857589
20
36.783272
30
0
10
165.646806
20
37.037256
30
0
0
SPLINE
5
D8
100
AcDbEntity
8
0
6
ByLayer
62
7
370
-1
100
AcDbSpline
210
0
220
0
230
1
70
8
71
3
72
8
73
4
74
0
42
1e-07
43
1e-07
40
0
40
0
40
0
40
0
40
1
40
1
40
1
40
1
10
165.646806
20
37.037256
30
0
10
165.144588
20
37.642388
30
0
10
161.381654
20
39.965311
30
0
10
160.901944
20
39.965311
30
0
0
SPLINE
5
D9
100
AcDbEntity
8
0
6
ByLayer
62
7
370
-1
100
AcDbSpline
210
0
220
0
230
1
70
8
71
3
72
8
73
4
74
0
42
1e-07
43
1e-07
40
0
40
0
40
0
40
0
40
1
40
1
40
1
40
1
10
160.901944
20
39.965311
30
0
10
160.697187
20
39.965311
30
0
10
160.531528
20
40.092743
30
0
10
160.531528
20
40.247533
30
0
0
SPLINE
5
DA
100
AcDbEntity
8
0
6
ByLayer
62
7
370
-1
100
AcDbSpline
210
0
220
0
230
1
70
8
71
3
72
8
73
4
74
0
42
1e-07
43
1e-07
40
0
40
0
40
0
40
0
40
1
40
1
40
1
40
1
10
160.531528
20
40.247533
30
0
10
160.531528
20
40.402327
30
0
10
160.150528
20
40.730328
30
0
10
159.684861
20
40.979547
30
0
0
SPLINE
5
DB
100
AcDbEntity
8
0
6
ByLayer
62
7
370
-1
100
AcDbSpline
210
0
220
0
230
1
70
8
71
3
72
8
73
4
74
0
42
1e-07
43
1e-07
40
0
40
0
40
0
40
0
40
1
40
1
40
1
40
1
10
159.684861
20
40.979547
30
0
10
159.109994
20
41.287206
30
0
10
158.838194
20
41.721885
30
0
10
158.838194
20
42.328922
30
0
0
SPLINE
5
DC
100
AcDbEntity
8
0
6
ByLayer
62
7
370
-1
100
AcDbSpline
210
0
220
0
230
1
70
8
71
3
72
8
73
4
74
0
42
1e-07
43
1e-07
40
0
40
0
40
0
40
0
40
1
40
1
40
1
40
1
10
158.838194
20
42.328922
30
0
10
158.838194
20
42.820646
30
0
10
158.608962
20
43.519578
30
0
10
158.335486
20
43.881144
30
0
0
SPLINE
5
DD
100
AcDbEntity
8
0
6
ByLayer
62
7
370
-1
100
AcDbSpline
210
0
220
0
230
1
70
8
71
3
72
8
73
4
74
0
42
1e-07
43
1e-07
40
0
40
0
40
0
40
0
40
1
40
1
40
1
40
1
10
158.335486
20
43.881144
30
0
10
158.062013
20
44.242713
30
0
10
157.838704
20
44.866083
30
0
10
157.832778
20
45.265797
30
0
0
SPLINE
5
DE
100
AcDbEntity
8
0
6
ByLayer
62
7
370
-1
100
AcDbSpline
210
0
220
0
230
1
70
8
71
3
72
8
73
4
74
0
42
1e-07
43
1e-07
40
0
40
0
40
0
40
0
40
1
40
1
40
1
40
1
10
157.832778
20
45.265797
30
0
10
157.822903
20
45.932265
30
0
10
158.048672
20
46.008265
30
0
10
160.610903
20
46.227117
30
0
0
SPLINE
5
DF
100
AcDbEntity
8
0
6
ByLayer
62
7
370
-1
100
AcDbSpline
210
0
220
0
230
1
70
8
71
3
72
8
73
4
74
0
42
1e-07
43
1e-07
40
0
40
0
40
0
40
0
40
1
40
1
40
1
40
1
10
160.610903
20
46.227117
30
0
10
162.147603
20
46.358375
30
0
10
164.829377
20
46.755262
30
0
10
166.572847
20
47.109061
30
0
0
SPLINE
5
E0
100
AcDbEntity
8
0
6
ByLayer
62
7
370
-1
100
AcDbSpline
210
0
220
0
230
1
70
8
71
3
72
8
73
4
74
0
42
1e-07
43
1e-07
40
0
40
0
40
0
40
0
40
1
40
1
40
1
40
1
10
166.572847
20
47.109061
30
0
10
168.316315
20
47.462855
30
0
10
170.221315
20
47.752852
30
0
10
170.806181
20
47.752881
30
0
0
SPLINE
5
E1
100
AcDbEntity
8
0
6
ByLayer
62
7
370
-1
100
AcDbSpline
210
0
220
0
230
1
70
8
71
3
72
8
73
4
74
0
42
1e-07
43
1e-07
40
0
40
0
40
0
40
0
40
1
40
1
40
1
40
1
10
170.806181
20
47.752881
30
0
10
171.391044
20
47.752903
30
0
10
173.090769
20
48.12788
30
0
10
174.580903
20
48.590728
30
0
0
SPLINE
5
E2
100
AcDbEntity
8
0
6
ByLayer
62
7
370
-1
100
AcDbSpline
210
0
220
0
230
1
70
8
71
3
72
8
73
4
74
0
42
1e-07
43
1e-07
40
0
40
0
40
0
40
0
40
1
40
1
40
1
40
1
10
174.580903
20
48.590728
30
0
10
176.071036
20
49.053572
30
0
10
177.48688
20
49.434572
30
0
10
177.720625
20
49.437394
30
0
0
SPLINE
5
E3
100
AcDbEntity
8
0
6
ByLayer
62
7
370
-1
100
AcDbSpline
210
0
220
0
230
1
70
8
71
3
72
8
73
4
74
0
42
1e-07
43
1e-07
40
0
40
0
40
0
40
0
40
1
40
1
40
1
40
1
10
177.720625
20
49.437394
30
0
10
177.954373
20
49.440191
30
0
10
178.933746
20
49.827214
30
0
10
179.899028
20
50.292881
30
0
0
SPLINE
5
E4
100
AcDbEntity
8
0
6
ByLayer
62
7
370
-1
100
AcDbSpline
210
0
220
0
230
1
70
8
71
3
72
8
73
4
74
0
42
1e-07
43
1e-07
40
0
40
0
40
0
40
0
40
1
40
1
40
1
40
1
10
179.899028
20
50.292881
30
0
10
180.864307
20
50.758547
30
0
10
181.78121
20
51.139547
30
0
10
181.936319
20
51.139547
30
0
0
SPLINE
5
E5
100
AcDbEntity
8
0
6
ByLayer
62
7
370
-1
100
AcDbSpline
210
0
220
0
230
1
70
8
71
3
72
8
73
4
74
0
42
1e-07
43
1e-07
40
0
40
0
40
0
40
0
40
1
40
1
40
1
40
1
10
181.936319
20
51.139547
30
0
10
182.091423
20
51.139547
30
0
10
182.821433
20
51.520547
30
0
10
183.559097
20
51.986214
30
0
0
SPLINE
5
E6
100
AcDbEntity
8
0
6
ByLayer
62
7
370
-1
100
AcDbSpline
210
0
220
0
230
1
70
8
71
3
72
8
73
4
74
0
42
1e-07
43
1e-07
40
0
40
0
40
0
40
0
40
1
40
1
40
1
40
1
10
183.559097
20
51.986214
30
0
10
184.296761
20
52.451881
30
0
10
185.117145
20
52.832881
30
0
10
185.384722
20
52.832881
30
0
0
SPLINE
5
E7
100
AcDbEntity
8
0
6
ByLayer
62
7
370
-1
100
AcDbSpline
210
0
220
0
230
1
70
8
71
3
72
8
73
4
74
0
42
1e-07
43
1e-07
40
0
40
0
40
0
40
0
40
1
40
1
40
1
40
1
10
185.384722
20
52.832881
30
0
10
185.652303
20
52.832881
30
0
10
185.922356
20
52.949831
30
0
10
185.984444
20
53.097464
30
0
0
SPLINE
5
E8
100
AcDbEntity
8
0
6
ByLayer
62
7
370
-1
100
AcDbSpline
210
0
220
0
230
1
70
8
71
3
72
8
73
4
74
0
42
1e-07
43
1e-07
40
0
40
0
40
0
40
0
40
1
40
1
40
1
40
1
10
185.984444
20
53.097464
30
0
10
186.046533
20
53.245097
30
0
10
186.703406
20
53.729187
30
0
10
187.448472
20
54.173436
30
0
0
SPLINE
5
E9
100
AcDbEntity
8
0
6
ByLayer
62
7
370
-1
100
AcDbSpline
210
0
220
0
230
1
70
8
71
3
72
8
73
4
74
0
42
1e-07
43
1e-07
40
0
40
0
40
0
40
0
40
1
40
1
40
1
40
1
10
187.448472
20
54.173436
30
0
10
188.951116
20
55.06939
30
0
10
189.61698
20
55.601718
30
0
10
190.940972
20
56.978019
30
0
0
SPLINE
5
EA
100
AcDbEntity
8
0
6
ByLayer
62
7
370
-1
100
AcDbSpline
210
0
220
0
230
1
70
8
71
3
72
8
73
4
74
0
42
1e-07
43
1e-07
40
0
40
0
40
0
40
0
40
1
40
1
40
1
40
1
10
190.940972
20
56.978019
30
0
10
191.433735
20
57.490253
30
0
10
191.962893
20
57.912881
30
0
10
192.113958
20
57.912881
30
0
0
SPLINE
5
EB
100
AcDbEntity
8
0
6
ByLayer
62
7
370
-1
100
AcDbSpline
210
0
220
0
230
1
70
8
71
3
72
8
73
4
74
0
42
1e-07
43
1e-07
40
0
40
0
40
0
40
0
40
1
40
1
40
1
40
1
10
192.113958
20
57.912881
30
0
10
192.454911
20
57.912881
30
0
10
194.398194
20
59.870354
30
0
10
194.398194
20
60.214756
30
0
0
SPLINE
5
EC
100
AcDbEntity
8
0
6
ByLayer
62
7
370
-1
100
AcDbSpline
210
0
220
0
230
1
70
8
71
3
72
8
73
4
74
0
42
1e-07
43
1e-07
40
0
40
0
40
0
40
0
40
1
40
1
40
1
40
1
10
194.398194
20
60.214756
30
0
10
194.398194
20
60.353121
30
0
10
194.812003
20
60.866847
30
0
10
195.324236
20
61.352464
30
0
0
SPLINE
5
ED
100
AcDbEntity
8
0
6
ByLayer
62
7
370
-1
100
AcDbSpline
210
0
220
0
230
1
70
8
71
3
72
8
73
4
74
0
42
1e-07
43
1e-07
40
0
40
0
40
0
40
0
40
1
40
1
40
1
40
1
10
195.324236
20
61.352464
30
0
10
196.736507
20
62.691349
30
0
10
197.110559
20
63.218701
30
0
10
198.217014
20
65.479964
30
0
0
SPLINE
5
EE
100
AcDbEntity
8
0
6
ByLayer
62
7
370
-1
100
AcDbSpline
210
0
220
0
230
1
70
8
71
3
72
8
73
4
74
0
42
1e-07
43
1e-07
40
0
40
0
40
0
40
0
40
1
40
1
40
1
40
1
10
198.217014
20
65.479964
30
0
10
200.17322
20
69.477876
30
0
10
200.839499
20
74.288193
30
0
10
199.980903
20
78.171144
30
0
0
SPLINE
5
EF
100
AcDbEntity
8
0
6
ByLayer
62
7
370
-1
100
AcDbSpline
210
0
220
0
230
1
70
8
71
3
72
8
73
4
74
0
42
1e-07
43
1e-07
40
0
40
0
40
0
40
0
40
1
40
1
40
1
40
1
10
199.980903
20
78.171144
30
0
10
199.421476
20
80.701111
30
0
10
197.376793
20
85.366843
30
0
10
196.514861
20
86.082186
30
0
0
SPLINE
5
F0
100
AcDbEntity
8
0
6
ByLayer
62
7
370
-1
100
AcDbSpline
210
0
220
0
230
1
70
8
71
3
72
8
73
4
74
0
42
1e-07
43
1e-07
40
0
40
0
40
0
40
0
40
1
40
1
40
1
40
1
10
196.514861
20
86.082186
30
0
10
196.278562
20
86.278297
30
0
10
196.091528
20
86.59613
30
0
10
196.091528
20
86.778922
30
0
0
SPLINE
5
F1
100
AcDbEntity
8
0
6
ByLayer
62
7
370
-1
100
AcDbSpline
210
0
220
0
230
1
70
8
71
3
72
8
73
4
74
0
42
1e-07
43
1e-07
40
0
40
0
40
0
40
0
40
1
40
1
40
1
40
1
10
196.091528
20
86.778922
30
0
10
196.091528
20
87.135953
30
0
10
192.812362
20
90.645511
30
0
10
190.350069
20
92.926075
30
0
0
SPLINE
5
F2
100
AcDbEntity
8
0
6
ByLayer
62
7
370
-1
100
AcDbSpline
210
0
220
0
230
1
70
8
71
3
72
8
73
4
74
0
42
1e-07
43
1e-07
40
0
40
0
40
0
40
0
40
1
40
1
40
1
40
1
10
190.350069
20
92.926075
30
0
10
189.521615
20
93.693389
30
0
10
188.485506
20
94.658919
30
0
10
188.048194
20
95.078019
30
0
0
SPLINE
5
F3
100
AcDbEntity
8
0
6
ByLayer
62
7
370
-1
100
AcDbSpline
210
0
220
0
230
1
70
8
71
3
72
8
73
4
74
0
42
1e-07
43
1e-07
40
0
40
0
40
0
40
0
40
1
40
1
40
1
40
1
10
188.048194
20
95.078019
30
0
10
187.610885
20
95.497119
30
0
10
187.164763
20
95.845311
30
0
10
187.060417
20
95.845311
30
0
0
SPLINE
5
F4
100
AcDbEntity
8
0
6
ByLayer
62
7
370
-1
100
AcDbSpline
210
0
220
0
230
1
70
8
71
3
72
8
73
4
74
0
42
1e-07
43
1e-07
40
0
40
0
40
0
40
0
40
1
40
1
40
1
40
1
10
187.060417
20
95.845311
30
0
10
186.956073
20
95.845311
30
0
10
186.393743
20
96.223506
30
0
10
185.808056
20
96.691978
30
0
0
SPLINE
5
F5
100
AcDbEntity
8
0
6
ByLayer
62
7
370
-1
100
AcDbSpline
210
0
220
0
230
1
70
8
71
3
72
8
73
4
74
0
42
1e-07
43
1e-07
40
0
40
0
40
0
40
0
40
1
40
1
40
1
40
1
10
185.808056
20
96.691978
30
0
10
185.222365
20
97.160455
30
0
10
184.5922
20
97.657519
30
0
10
184.405764
20
97.794408
30
0
0
SPLINE
5
F6
100
AcDbEntity
8
0
6
ByLayer
62
7
370
-1
100
AcDbSpline
210
0
220
0
230
1
70
8
71
3
72
8
73
4
74
0
42
1e-07
43
1e-07
40
0
40
0
40
0
40
0
40
1
40
1
40
1
40
1
10
184.405764
20
97.794408
30
0
10
182.105664
20
99.483297
30
0
10
181.399753
20
100.138447
30
0
10
180.542847
20
101.383922
30
0
0
SPLINE
5
F7
100
AcDbEntity
8
0
6
ByLayer
62
7
370
-1
100
AcDbSpline
210
0
220
0
230
1
70
8
71
3
72
8
73
4
74
0
42
1e-07
43
1e-07
40
0
40
0
40
0
40
0
40
1
40
1
40
1
40
1
10
180.542847
20
101.383922
30
0
10
179.620528
20
102.724464
30
0
10
175.066376
20
106.80054
30
0
10
173.055139
20
108.0867
30
0
0
SPLINE
5
F8
100
AcDbEntity
8
0
6
ByLayer
62
7
370
-1
100
AcDbSpline
210
0
220
0
230
1
70
8
71
3
72
8
73
4
74
0
42
1e-07
43
1e-07
40
0
40
0
40
0
40
0
40
1
40
1
40
1
40
1
10
173.055139
20
108.0867
30
0
10
172.589472
20
108.38449
30
0
10
171.029483
20
109.775712
30
0
10
169.580278
20
111.182325
30
0
0
SPLINE
5
F9
100
AcDbEntity
8
0
6
ByLayer
62
7
370
-1
100
AcDbSpline
210
0
220
0
230
1
70
8
71
3
72
8
73
4
74
0
42
1e-07
43
1e-07
40
0
40
0
40
0
40
0
40
1
40
1
40
1
40
1
10
169.580278
20
111.182325
30
0
10
167.063953
20
113.624701
30
0
10
164.715272
20
115.142256
30
0
10
163.459583
20
115.142256
30
0
0
SPLINE
5
FA
100
AcDbEntity
8
0
6
ByLayer
62
7
370
-1
100
AcDbSpline
210
0
220
0
230
1
70
8
71
3
72
8
73
4
74
0
42
1e-07
43
1e-07
40
0
40
0
40
0
40
0
40
1
40
1
40
1
40
1
10
163.459583
20
115.142256
30
0
10
162.7468
20
115.142256
30
0
10
161.321979
20
116.032435
30
0
10
160.187569
20
117.179547
30
0
0
SPLINE
5
FB
100
AcDbEntity
8
0
6
ByLayer
62
7
370
-1
100
AcDbSpline
210
0
220
0
230
1
70
8
71
3
72
8
73
4
74
0
42
1e-07
43
1e-07
40
0
40
0
40
0
40
0
40
1
40
1
40
1
40
1
10
160.187569
20
117.179547
30
0
10
159.721903
20
117.650429
30
0
10
158.54402
20
118.702746
30
0
10
157.568194
20
119.525519
30
0
0
SPLINE
5
FC
100
AcDbEntity
8
0
6
ByLayer
62
7
370
-1
100
AcDbSpline
210
0
220
0
230
1
70
8
71
3
72
8
73
4
74
0
42
1e-07
43
1e-07
40
0
40
0
40
0
40
0
40
1
40
1
40
1
40
1
10
157.568194
20
119.525519
30
0
10
156.592366
20
120.348293
30
0
10
155.709857
20
121.300638
30
0
10
155.601458
20
121.642186
30
0
0
SPLINE
5
FD
100
AcDbEntity
8
0
6
ByLayer
62
7
370
-1
100
AcDbSpline
210
0
220
0
230
1
70
8
71
3
72
8
73
4
74
0
42
1e-07
43
1e-07
40
0
40
0
40
0
40
0
40
1
40
1
40
1
40
1
10
155.601458
20
121.642186
30
0
10
155.493054
20
121.983731
30
0
10
154.765937
20
122.593484
30
0
10
153.9875
20
122.991561
30
0
0
SPLINE
5
FE
100
AcDbEntity
8
0
6
ByLayer
62
7
370
-1
100
AcDbSpline
210
0
220
0
230
1
70
8
71
3
72
8
73
4
74
0
42
1e-07
43
1e-07
40
0
40
0
40
0
40
0
40
1
40
1
40
1
40
1
10
153.9875
20
122.991561
30
0
10
153.209061
20
123.389641
30
0
10
151.855579
20
124.076423
30
0
10
150.980069
20
124.517325
30
0
0
SPLINE
5
FF
100
AcDbEntity
8
0
6
ByLayer
62
7
370
-1
100
AcDbSpline
210
0
220
0
230
1
70
8
71
3
72
8
73
4
74
0
42
1e-07
43
1e-07
40
0
40
0
40
0
40
0
40
1
40
1
40
1
40
1
10
150.980069
20
124.517325
30
0
10
150.104562
20
124.958229
30
0
10
149.295098
20
125.47026
30
0
10
149.180903
20
125.655033
30
0
0
SPLINE
5
100
100
AcDbEntity
8
0
6
ByLayer
62
7
370
-1
100
AcDbSpline
210
0
220
0
230
1
70
8
71
3
72
8
73
4
74
0
42
1e-07
43
1e-07
40
0
40
0
40
0
40
0
40
1
40
1
40
1
40
1
10
149.180903
20
125.655033
30
0
10
148.872123
20
126.154648
30
0
10
149.885496
20
126.421825
30
0
10
150.609653
20
126.034269
30
0
0
SPLINE
5
101
100
AcDbEntity
8
0
6
ByLayer
62
7
370
-1
100
AcDbSpline
210
0
220
0
230
1
70
8
71
3
72
8
73
4
74
0
42
1e-07
43
1e-07
40
0
40
0
40
0
40
0
40
1
40
1
40
1
40
1
10
150.609653
20
126.034269
30
0
10
150.991799
20
125.829751
30
0
10
151.963109
20
125.809505
30
0
10
153.087917
20
125.972533
30
0
0
SPLINE
5
102
100
AcDbEntity
8
0
6
ByLayer
62
7
370
-1
100
AcDbSpline
210
0
220
0
230
1
70
8
71
3
72
8
73
4
74
0
42
1e-07
43
1e-07
40
0
40
0
40
0
40
0
40
1
40
1
40
1
40
1
10
153.087917
20
125.972533
30
0
10
154.106761
20
126.120203
30
0
10
154.633436
20
126.251679
30
0
10
154.260903
20
126.272394
30
0
0
SPLINE
5
103
100
AcDbEntity
8
0
6
ByLayer
62
7
370
-1
100
AcDbSpline
210
0
220
0
230
1
70
8
71
3
72
8
73
4
74
0
42
1e-07
43
1e-07
40
0
40
0
40
0
40
0
40
1
40
1
40
1
40
1
10
154.260903
20
126.272394
30
0
10
153.888369
20
126.293115
30
0
10
152.489673
20
126.736602
30
0
10
151.147639
20
127.251353
30
0
0
SPLINE
5
104
100
AcDbEntity
8
0
6
ByLayer
62
7
370
-1
100
AcDbSpline
210
0
220
0
230
1
70
8
71
3
72
8
73
4
74
0
42
1e-07
43
1e-07
40
0
40
0
40
0
40
0
40
1
40
1
40
1
40
1
10
151.147639
20
127.251353
30
0
10
149.416482
20
127.915351
30
0
10
148.678544
20
128.377467
30
0
10
148.607639
20
128.838853
30
0
0
SPLINE
5
105
100
AcDbEntity
8
0
6
ByLayer
62
7
370
-1
100
AcDbSpline
210
0
220
0
230
1
70
8
71
3
72
8
73
4
74
0
42
1e-07
43
1e-07
40
0
40
0
40
0
40
0
40
1
40
1
40
1
40
1
10
148.607639
20
128.838853
30
0
10
148.537967
20
129.292226
30
0
10
148.058561
20
129.59816
30
0
10
147.037778
20
129.853089
30
0
0
SPLINE
5
106
100
AcDbEntity
8
0
6
ByLayer
62
7
370
-1
100
AcDbSpline
210
0
220
0
230
1
70
8
71
3
72
8
73
4
74
0
42
1e-07
43
1e-07
40
0
40
0
40
0
40
0
40
1
40
1
40
1
40
1
10
147.037778
20
129.853089
30
0
10
145.447165
20
130.250328
30
0
10
145.18421
20
130.777194
30
0
10
146.411597
20
131.10545
30
0
0
SPLINE
5
107
100
AcDbEntity
8
0
6
ByLayer
62
7
370
-1
100
AcDbSpline
210
0
220
0
230
1
70
8
71
3
72
8
73
4
74
0
42
1e-07
43
1e-07
40
0
40
0
40
0
40
0
40
1
40
1
40
1
40
1
10
146.411597
20
131.10545
30
0
10
148.288248
20
131.607346
30
0
10
149.613473
20
132.463532
30
0
10
149.454306
20
133.072186
30
0
0
SPLINE
5
108
100
AcDbEntity
8
0
6
ByLayer
62
7
370
-1
100
AcDbSpline
210
0
220
0
230
1
70
8
71
3
72
8
73
4
74
0
42
1e-07
43
1e-07
40
0
40
0
40
0
40
0
40
1
40
1
40
1
40
1
10
149.454306
20
133.072186
30
0
10
149.328976
20
133.55145
30
0
10
149.647862
20
133.789745
30
0
10
150.935972
20
134.201075
30
0
0
SPLINE
5
109
100
AcDbEntity
8
0
6
ByLayer
62
7
370
-1
100
AcDbSpline
210
0
220
0
230
1
70
8
71
3
72
8
73
4
74
0
42
1e-07
43
1e-07
40
0
40
0
40
0
40
0
40
1
40
1
40
1
40
1
10
150.935972
20
134.201075
30
0
10
151.835587
20
134.488349
30
0
10
153.051047
20
134.827199
30
0
10
153.643542
20
134.950728
30
0
0
SPLINE
5
10A
100
AcDbEntity
8
0
6
ByLayer
62
7
370
-1
100
AcDbSpline
210
0
220
0
230
1
70
8
71
3
72
8
73
4
74
0
42
1e-07
43
1e-07
40
0
40
0
40
0
40
0
40
1
40
1
40
1
40
1
10
153.643542
20
134.950728
30
0
10
155.217309
20
135.278842
30
0
10
155.648573
20
135.944009
30
0
10
154.596042
20
136.423575
30
0
0
SPLINE
5
10B
100
AcDbEntity
8
0
6
ByLayer
62
7
370
-1
100
AcDbSpline
210
0
220
0
230
1
70
8
71
3
72
8
73
4
74
0
42
1e-07
43
1e-07
40
0
40
0
40
0
40
0
40
1
40
1
40
1
40
1
10
154.596042
20
136.423575
30
0
10
154.131831
20
136.635084
30
0
10
153.758194
20
137.039765
30
0
10
153.758194
20
137.323158
30
0
0
SPLINE
5
10C
100
AcDbEntity
8
0
6
ByLayer
62
7
370
-1
100
AcDbSpline
210
0
220
0
230
1
70
8
71
3
72
8
73
4
74
0
42
1e-07
43
1e-07
40
0
40
0
40
0
40
0
40
1
40
1
40
1
40
1
10
153.758194
20
137.323158
30
0
10
153.758194
20
137.606552
30
0
10
153.526067
20
137.834686
30
0
10
153.246667
20
137.834686
30
0
0
SPLINE
5
10D
100
AcDbEntity
8
0
6
ByLayer
62
7
370
-1
100
AcDbSpline
210
0
220
0
230
1
70
8
71
3
72
8
73
4
74
0
42
1e-07
43
1e-07
40
0
40
0
40
0
40
0
40
1
40
1
40
1
40
1
10
153.246667
20
137.834686
30
0
10
152.18585
20
137.834686
30
0
10
152.802573
20
138.503197
30
0
10
154.181528
20
138.848922
30
0
0
SPLINE
5
10E
100
AcDbEntity
8
0
6
ByLayer
62
7
370
-1
100
AcDbSpline
210
0
220
0
230
1
70
8
71
3
72
8
73
4
74
0
42
1e-07
43
1e-07
40
0
40
0
40
0
40
0
40
1
40
1
40
1
40
1
10
154.181528
20
138.848922
30
0
10
154.973161
20
139.047398
30
0
10
156.074533
20
139.424311
30
0
10
156.633333
20
139.686769
30
0
0
SPLINE
5
10F
100
AcDbEntity
8
0
6
ByLayer
62
7
370
-1
100
AcDbSpline
210
0
220
0
230
1
70
8
71
3
72
8
73
4
74
0
42
1e-07
43
1e-07
40
0
40
0
40
0
40
0
40
1
40
1
40
1
40
1
10
156.633333
20
139.686769
30
0
10
157.516621
20
140.101636
30
0
10
157.551823
20
140.170654
30
0
10
156.906736
20
140.189478
30
0
0
SPLINE
5
110
100
AcDbEntity
8
0
6
ByLayer
62
7
370
-1
100
AcDbSpline
210
0
220
0
230
1
70
8
71
3
72
8
73
4
74
0
42
1e-07
43
1e-07
40
0
40
0
40
0
40
0
40
1
40
1
40
1
40
1
10
156.906736
20
140.189478
30
0
10
154.873729
20
140.248818
30
0
10
156.28342
20
142.068107
30
0
10
158.635347
20
142.420797
30
0
0
SPLINE
5
111
100
AcDbEntity
8
0
6
ByLayer
62
7
370
-1
100
AcDbSpline
210
0
220
0
230
1
70
8
71
3
72
8
73
4
74
0
42
1e-07
43
1e-07
40
0
40
0
40
0
40
0
40
1
40
1
40
1
40
1
10
158.635347
20
142.420797
30
0
10
160.276532
20
142.666909
30
0
10
166.128855
20
144.597154
30
0
10
165.267569
20
144.608019
30
0
0
SPLINE
5
112
100
AcDbEntity
8
0
6
ByLayer
62
7
370
-1
100
AcDbSpline
210
0
220
0
230
1
70
8
71
3
72
8
73
4
74
0
42
1e-07
43
1e-07
40
0
40
0
40
0
40
0
40
1
40
1
40
1
40
1
10
165.267569
20
144.608019
30
0
10
164.988169
20
144.61155
30
0
10
164.193361
20
144.775634
30
0
10
163.494861
20
144.969617
30
0
0
SPLINE
5
113
100
AcDbEntity
8
0
6
ByLayer
62
7
370
-1
100
AcDbSpline
210
0
220
0
230
1
70
8
71
3
72
8
73
4
74
0
42
1e-07
43
1e-07
40
0
40
0
40
0
40
0
40
1
40
1
40
1
40
1
10
163.494861
20
144.969617
30
0
10
162.562749
20
145.228477
30
0
10
162.224861
20
145.499297
30
0
10
162.224861
20
146.001492
30
0
0
SPLINE
5
114
100
AcDbEntity
8
0
6
ByLayer
62
7
370
-1
100
AcDbSpline
210
0
220
0
230
1
70
8
71
3
72
8
73
4
74
0
42
1e-07
43
1e-07
40
0
40
0
40
0
40
0
40
1
40
1
40
1
40
1
10
162.224861
20
146.001492
30
0
10
162.224861
20
146.534144
30
0
10
162.070147
20
146.638154
30
0
10
161.536944
20
146.468922
30
0
0
SPLINE
5
115
100
AcDbEntity
8
0
6
ByLayer
62
7
370
-1
100
AcDbSpline
210
0
220
0
230
1
70
8
71
3
72
8
73
4
74
0
42
1e-07
43
1e-07
40
0
40
0
40
0
40
0
40
1
40
1
40
1
40
1
10
161.536944
20
146.468922
30
0
10
160.566142
20
146.160803
30
0
10
158.838194
20
146.607897
30
0
10
158.838194
20
147.165658
30
0
0
SPLINE
5
116
100
AcDbEntity
8
0
6
ByLayer
62
7
370
-1
100
AcDbSpline
210
0
220
0
230
1
70
8
71
3
72
8
73
4
74
0
42
1e-07
43
1e-07
40
0
40
0
40
0
40
0
40
1
40
1
40
1
40
1
10
158.838194
20
147.165658
30
0
10
158.838194
20
147.739433
30
0
10
159.869288
20
148.327423
30
0
10
160.928403
20
148.356283
30
0
0
SPLINE
5
117
100
AcDbEntity
8
0
6
ByLayer
62
7
370
-1
100
AcDbSpline
210
0
220
0
230
1
70
8
71
3
72
8
73
4
74
0
42
1e-07
43
1e-07
40
0
40
0
40
0
40
0
40
1
40
1
40
1
40
1
10
160.928403
20
148.356283
30
0
10
161.697458
20
148.377238
30
0
10
157.039028
20
150.031696
30
0
10
156.21
20
150.031978
30
0
0
SPLINE
5
118
100
AcDbEntity
8
0
6
ByLayer
62
7
370
-1
100
AcDbSpline
210
0
220
0
230
1
70
8
71
3
72
8
73
4
74
0
42
1e-07
43
1e-07
40
0
40
0
40
0
40
0
40
1
40
1
40
1
40
1
10
156.21
20
150.031978
30
0
10
155.804746
20
150.032122
30
0
10
154.694944
20
150.516759
30
0
10
148.334236
20
153.498019
30
0
0
SPLINE
5
119
100
AcDbEntity
8
0
6
ByLayer
62
7
370
-1
100
AcDbSpline
210
0
220
0
230
1
70
8
71
3
72
8
73
4
74
0
42
1e-07
43
1e-07
40
0
40
0
40
0
40
0
40
1
40
1
40
1
40
1
10
148.334236
20
153.498019
30
0
10
146.750969
20
154.240097
30
0
10
145.119491
20
154.972797
30
0
10
144.709444
20
155.129617
30
0
0
SPLINE
5
11A
100
AcDbEntity
8
0
6
ByLayer
62
7
370
-1
100
AcDbSpline
210
0
220
0
230
1
70
8
71
3
72
8
73
4
74
0
42
1e-07
43
1e-07
40
0
40
0
40
0
40
0
40
1
40
1
40
1
40
1
10
144.709444
20
155.129617
30
0
10
142.122392
20
156.119012
30
0
10
140.224044
20
158.238263
30
0
10
140.202708
20
160.147881
30
0
0
SPLINE
5
11B
100
AcDbEntity
8
0
6
ByLayer
62
7
370
-1
100
AcDbSpline
210
0
220
0
230
1
70
8
71
3
72
8
73
4
74
0
42
1e-07
43
1e-07
40
0
40
0
40
0
40
0
40
1
40
1
40
1
40
1
10
140.202708
20
160.147881
30
0
10
140.199319
20
160.4511
30
0
10
139.776691
20
161.333719
30
0
10
139.267847
20
162.114617
30
0
0
SPLINE
5
11C
100
AcDbEntity
8
0
6
ByLayer
62
7
370
-1
100
AcDbSpline
210
0
220
0
230
1
70
8
71
3
72
8
73
4
74
0
42
1e-07
43
1e-07
40
0
40
0
40
0
40
0
40
1
40
1
40
1
40
1
10
139.267847
20
162.114617
30
0
10
138.759003
20
162.895514
30
0
10
137.960806
20
164.177909
30
0
10
137.495139
20
164.963297
30
0
0
SPLINE
5
11D
100
AcDbEntity
8
0
6
ByLayer
62
7
370
-1
100
AcDbSpline
210
0
220
0
230
1
70
8
71
3
72
8
73
4
74
0
42
1e-07
43
1e-07
40
0
40
0
40
0
40
0
40
1
40
1
40
1
40
1
10
137.495139
20
164.963297
30
0
10
136.382726
20
166.839479
30
0
10
131.696135
20
171.483356
30
0
10
130.042708
20
172.345172
30
0
0
SPLINE
5
11E
100
AcDbEntity
8
0
6
ByLayer
62
7
370
-1
100
AcDbSpline
210
0
220
0
230
1
70
8
71
3
72
8
73
4
74
0
42
1e-07
43
1e-07
40
0
40
0
40
0
40
0
40
1
40
1
40
1
40
1
10
130.042708
20
172.345172
30
0
10
129.326259
20
172.718606
30
0
10
128.468521
20
173.165776
30
0
10
128.128889
20
173.341769
30
0
0
SPLINE
5
11F
100
AcDbEntity
8
0
6
ByLayer
62
7
370
-1
100
AcDbSpline
210
0
220
0
230
1
70
8
71
3
72
8
73
4
74
0
42
1e-07
43
1e-07
40
0
40
0
40
0
40
0
40
1
40
1
40
1
40
1
10
128.128889
20
173.341769
30
0
10
123.146975
20
175.923351
30
0
10
115.05589
20
178.137233
30
0
10
110.595833
20
178.139547
30
0
0
LWPOLYLINE
5
120
100
AcDbEntity
8
0
6
ByLayer
62
7
370
-1
100
AcDbPolyline
90
3
70
0
43
0
10
117.95125
20
58.415589
10
119.141875
20
57.392533
10
119.335903
20
51.130728
0
SPLINE
5
121
100
AcDbEntity
8
0
6
ByLayer
62
7
370
-1
100
AcDbSpline
210
0
220
0
230
1
70
8
71
3
72
8
73
4
74
0
42
1e-07
43
1e-07
40
0
40
0
40
0
40
0
40
1
40
1
40
1
40
1
10
147.990278
20
150.640519
30
0
10
148.502314
20
150.680767
30
0
10
149.64811
20
150.43541
30
0
10
151.712083
20
149.864408
30
0
0
SPLINE
5
122
100
AcDbEntity
8
0
6
ByLayer
62
7
370
-1
100
AcDbSpline
210
0
220
0
230
1
70
8
71
3
72
8
73
4
74
0
42
1e-07
43
1e-07
40
0
40
0
40
0
40
0
40
1
40
1
40
1
40
1
10
151.712083
20
149.864408
30
0
10
152.730575
20
149.58264
30
0
10
154.212948
20
149.352881
30
0
10
155.010556
20
149.352881
30
0
0
SPLINE
5
123
100
AcDbEntity
8
0
6
ByLayer
62
7
370
-1
100
AcDbSpline
210
0
220
0
230
1
70
8
71
3
72
8
73
4
74
0
42
1e-07
43
1e-07
40
0
40
0
40
0
40
0
40
1
40
1
40
1
40
1
10
155.010556
20
149.352881
30
0
10
156.073839
20
149.352881
30
0
10
156.465764
20
149.213818
30
0
10
156.465764
20
148.841353
30
0
0
SPLINE
5
124
100
AcDbEntity
8
0
6
ByLayer
62
7
370
-1
100
AcDbSpline
210
0
220
0
230
1
70
8
71
3
72
8
73
4
74
0
42
1e-07
43
1e-07
40
0
40
0
40
0
40
0
40
1
40
1
40
1
40
1
10
156.465764
20
148.841353
30
0
10
156.465764
20
147.774996
30
0
10
149.169233
20
148.623731
30
0
10
148.731111
20
149.740936
30
0
0
SPLINE
5
125
100
AcDbEntity
8
0
6
ByLayer
62
7
370
-1
100
AcDbSpline
210
0
220
0
230
1
70
8
71
3
72
8
73
4
74
0
42
1e-07
43
1e-07
40
0
40
0
40
0
40
0
40
1
40
1
40
1
40
1
10
148.731111
20
149.740936
30
0
10
148.669022
20
149.899263
30
0
10
148.404086
20
150.031978
30
0
10
148.140208
20
150.031978
30
0
0
SPLINE
5
126
100
AcDbEntity
8
0
6
ByLayer
62
7
370
-1
100
AcDbSpline
210
0
220
0
230
1
70
8
71
3
72
8
73
4
74
0
42
1e-07
43
1e-07
40
0
40
0
40
0
40
0
40
1
40
1
40
1
40
1
10
148.140208
20
150.031978
30
0
10
147.876331
20
150.031978
30
0
10
147.655139
20
150.200574
30
0
10
147.655139
20
150.411214
30
0
0
SPLINE
5
127
100
AcDbEntity
8
0
6
ByLayer
62
7
370
-1
100
AcDbSpline
210
0
220
0
230
1
70
8
71
3
72
8
73
4
74
0
42
1e-07
43
1e-07
40
0
40
0
40
0
40
0
40
1
40
1
40
1
40
1
10
147.655139
20
150.411214
30
0
10
147.655139
20
150.543914
30
0
10
147.757535
20
150.622225
30
0
10
147.990278
20
150.640519
30
0
0
LWPOLYLINE
5
128
100
AcDbEntity
8
0
6
ByLayer
62
7
370
-1
100
AcDbPolyline
90
2
70
0
43
0
10
110.595833
20
178.139547
10
110.595833
20
178.139547
0
LWPOLYLINE
5
129
100
AcDbEntity
8
0
6
ByLayer
62
7
370
-1
100
AcDbPolyline
90
2
70
0
43
0
10
147.990278
20
150.640519
10
147.990278
20
150.640519
0
SPLINE
5
12A
100
AcDbEntity
8
0
6
ByLayer
62
7
370
-1
100
AcDbSpline
210
0
220
0
230
1
70
8
71
3
72
8
73
4
74
0
42
1e-07
43
1e-07
40
0
40
0
40
0
40
0
40
1
40
1
40
1
40
1
10
100.524028
20
89.892186
30
0
10
102.55559
20
89.90823
30
0
10
104.115797
20
89.809218
30
0
10
104.201736
20
89.557047
30
0
0
SPLINE
5
12B
100
AcDbEntity
8
0
6
ByLayer
62
7
370
-1
100
AcDbSpline
210
0
220
0
230
1
70
8
71
3
72
8
73
4
74
0
42
1e-07
43
1e-07
40
0
40
0
40
0
40
0
40
1
40
1
40
1
40
1
10
104.201736
20
89.557047
30
0
10
104.269551
20
89.358052
30
0
10
103.943698
20
88.670488
30
0
10
103.478542
20
88.031283
30
0
0
SPLINE
5
12C
100
AcDbEntity
8
0
6
ByLayer
62
7
370
-1
100
AcDbSpline
210
0
220
0
230
1
70
8
71
3
72
8
73
4
74
0
42
1e-07
43
1e-07
40
0
40
0
40
0
40
0
40
1
40
1
40
1
40
1
10
103.478542
20
88.031283
30
0
10
103.013389
20
87.392073
30
0
10
102.464887
20
86.486117
30
0
10
102.261458
20
86.02045
30
0
0
SPLINE
5
12D
100
AcDbEntity
8
0
6
ByLayer
62
7
370
-1
100
AcDbSpline
210
0
220
0
230
1
70
8
71
3
72
8
73
4
74
0
42
1e-07
43
1e-07
40
0
40
0
40
0
40
0
40
1
40
1
40
1
40
1
10
102.261458
20
86.02045
30
0
10
102.05803
20
85.554783
30
0
10
101.612398
20
84.867219
30
0
10
101.273681
20
84.494686
30
0
0
SPLINE
5
12E
100
AcDbEntity
8
0
6
ByLayer
62
7
370
-1
100
AcDbSpline
210
0
220
0
230
1
70
8
71
3
72
8
73
4
74
0
42
1e-07
43
1e-07
40
0
40
0
40
0
40
0
40
1
40
1
40
1
40
1
10
101.273681
20
84.494686
30
0
10
100.934963
20
84.122153
30
0
10
100.554104
20
83.476217
30
0
10
100.427014
20
83.057117
30
0
0
SPLINE
5
12F
100
AcDbEntity
8
0
6
ByLayer
62
7
370
-1
100
AcDbSpline
210
0
220
0
230
1
70
8
71
3
72
8
73
4
74
0
42
1e-07
43
1e-07
40
0
40
0
40
0
40
0
40
1
40
1
40
1
40
1
10
100.427014
20
83.057117
30
0
10
100.234383
20
82.421913
30
0
10
99.967401
20
82.296147
30
0
10
98.786597
20
82.307464
30
0
0
SPLINE
5
130
100
AcDbEntity
8
0
6
ByLayer
62
7
370
-1
100
AcDbSpline
210
0
220
0
230
1
70
8
71
3
72
8
73
4
74
0
42
1e-07
43
1e-07
40
0
40
0
40
0
40
0
40
1
40
1
40
1
40
1
10
98.786597
20
82.307464
30
0
10
98.00752
20
82.31492
30
0
10
96.985667
20
82.530527
30
0
10
96.52
20
82.783714
30
0
0
SPLINE
5
131
100
AcDbEntity
8
0
6
ByLayer
62
7
370
-1
100
AcDbSpline
210
0
220
0
230
1
70
8
71
3
72
8
73
4
74
0
42
1e-07
43
1e-07
40
0
40
0
40
0
40
0
40
1
40
1
40
1
40
1
10
96.52
20
82.783714
30
0
10
96.054333
20
83.036904
30
0
10
94.836897
20
83.500759
30
0
10
93.812431
20
83.815589
30
0
0
SPLINE
5
132
100
AcDbEntity
8
0
6
ByLayer
62
7
370
-1
100
AcDbSpline
210
0
220
0
230
1
70
8
71
3
72
8
73
4
74
0
42
1e-07
43
1e-07
40
0
40
0
40
0
40
0
40
1
40
1
40
1
40
1
10
93.812431
20
83.815589
30
0
10
91.82691
20
84.425765
30
0
10
91.326733
20
84.615175
30
0
10
89.296875
20
85.508922
30
0
0
SPLINE
5
133
100
AcDbEntity
8
0
6
ByLayer
62
7
370
-1
100
AcDbSpline
210
0
220
0
230
1
70
8
71
3
72
8
73
4
74
0
42
1e-07
43
1e-07
40
0
40
0
40
0
40
0
40
1
40
1
40
1
40
1
10
89.296875
20
85.508922
30
0
10
88.586112
20
85.821873
30
0
10
87.65577
20
86.13624
30
0
10
87.224306
20
86.214478
30
0
0
SPLINE
5
134
100
AcDbEntity
8
0
6
ByLayer
62
7
370
-1
100
AcDbSpline
210
0
220
0
230
1
70
8
71
3
72
8
73
4
74
0
42
1e-07
43
1e-07
40
0
40
0
40
0
40
0
40
1
40
1
40
1
40
1
10
87.224306
20
86.214478
30
0
10
86.792841
20
86.292718
30
0
10
86.003404
20
86.588529
30
0
10
85.469236
20
86.867117
30
0
0
SPLINE
5
135
100
AcDbEntity
8
0
6
ByLayer
62
7
370
-1
100
AcDbSpline
210
0
220
0
230
1
70
8
71
3
72
8
73
4
74
0
42
1e-07
43
1e-07
40
0
40
0
40
0
40
0
40
1
40
1
40
1
40
1
10
85.469236
20
86.867117
30
0
10
84.935063
20
87.145704
30
0
10
84.260295
20
87.368696
30
0
10
83.969931
20
87.369825
30
0
0
SPLINE
5
136
100
AcDbEntity
8
0
6
ByLayer
62
7
370
-1
100
AcDbSpline
210
0
220
0
230
1
70
8
71
3
72
8
73
4
74
0
42
1e-07
43
1e-07
40
0
40
0
40
0
40
0
40
1
40
1
40
1
40
1
10
83.969931
20
87.369825
30
0
10
83.679563
20
87.370974
30
0
10
83.165061
20
87.578607
30
0
10
82.823403
20
87.828436
30
0
0
SPLINE
5
137
100
AcDbEntity
8
0
6
ByLayer
62
7
370
-1
100
AcDbSpline
210
0
220
0
230
1
70
8
71
3
72
8
73
4
74
0
42
1e-07
43
1e-07
40
0
40
0
40
0
40
0
40
1
40
1
40
1
40
1
10
82.823403
20
87.828436
30
0
10
82.284254
20
88.222669
30
0
10
82.661244
20
88.312955
30
0
10
85.716181
20
88.489894
30
0
0
SPLINE
5
138
100
AcDbEntity
8
0
6
ByLayer
62
7
370
-1
100
AcDbSpline
210
0
220
0
230
1
70
8
71
3
72
8
73
4
74
0
42
1e-07
43
1e-07
40
0
40
0
40
0
40
0
40
1
40
1
40
1
40
1
10
85.716181
20
88.489894
30
0
10
87.65207
20
88.602018
30
0
10
90.684703
20
88.952776
30
0
10
92.454236
20
89.274825
30
0
0
SPLINE
5
139
100
AcDbEntity
8
0
6
ByLayer
62
7
370
-1
100
AcDbSpline
210
0
220
0
230
1
70
8
71
3
72
8
73
4
74
0
42
1e-07
43
1e-07
40
0
40
0
40
0
40
0
40
1
40
1
40
1
40
1
10
92.454236
20
89.274825
30
0
10
94.516744
20
89.650195
30
0
10
97.912019
20
89.871556
30
0
10
100.524028
20
89.892186
30
0
0
LWPOLYLINE
5
13A
100
AcDbEntity
8
0
6
ByLayer
62
7
370
-1
100
AcDbPolyline
90
2
70
0
43
0
10
100.524028
20
89.892186
10
100.524028
20
89.892186
0
ENDSEC
0
SECTION
2
OBJECTS
0
DICTIONARY
5
C
330
0
100
AcDbDictionary
281
1
3
ACAD_GROUP
350
D
0
DICTIONARY
5
D
330
C
100
AcDbDictionary
281
1
0
ENDSEC
0
EOF
