  0
SECTION
  2
HEADER
  9
$ACADVER
  1
AC1014
  9
$HANDSEED
  5
FFFF
  9
$MEASUREMENT
 70
     1
  0
ENDSEC
  0
SECTION
  2
TABLES
  0
TABLE
  2
VPORT
  5
8
330
0
100
AcDbSymbolTable
 70
     4
  0
VPORT
  5
2E
330
8
100
AcDbSymbolTableRecord
100
AcDbViewportTableRecord
  2
*ACTIVE
 70
     0
 10
0.0
 20
0.0
 11
1.0
 21
1.0
 12
210.0
 22
148.5
 13
0.0
 23
0.0
 14
10.0
 24
10.0
 15
10.0
 25
10.0
 16
0.0
 26
0.0
 36
1.0
 17
0.0
 27
0.0
 37
0.0
 40
341.0
 41
1.24
 42
50.0
 43
0.0
 44
0.0
 50
0.0
 51
0.0
 71
     0
 72
   100
 73
     1
 74
     3
 75
     0
 76
     0
 77
     0
 78
     0
  0
ENDTAB
  0
TABLE
  2
LTYPE
  5
5
330
0
100
AcDbSymbolTable
 70
     1
  0
LTYPE
  5
14
330
5
100
AcDbSymbolTableRecord
100
AcDbLinetypeTableRecord
  2
BYBLOCK
 70
     0
  3

 72
    65
 73
     0
 40
0.0
  0
LTYPE
  5
15
330
5
100
AcDbSymbolTableRecord
100
AcDbLinetypeTableRecord
  2
BYLAYER
 70
     0
  3

 72
    65
 73
     0
 40
0.0
  0
LTYPE
  5
16
330
5
100
AcDbSymbolTableRecord
100
AcDbLinetypeTableRecord
  2
CONTINUOUS
 70
     0
  3
Solid line
 72
    65
 73
     0
 40
0.0
  0
ENDTAB
  0
TABLE
  2
LAYER
  5
2
100
AcDbSymbolTable
 70
1
  0
LAYER
  5
50
100
AcDbSymbolTableRecord
100
AcDbLayerTableRecord
  2
0
 70
0
  6
CONTINUOUS
  0
ENDTAB
  0
TABLE
  2
STYLE
  5
3
330
0
100
AcDbSymbolTable
 70
     1
  0
STYLE
  5
11
330
3
100
AcDbSymbolTableRecord
100
AcDbTextStyleTableRecord
  2
STANDARD
 70
     0
 40
0.0
 41
1.0
 50
0.0
 71
     0
 42
2.5
  3
txt
  4

  0
ENDTAB
  0
TABLE
  2
VIEW
  5
6
330
0
100
AcDbSymbolTable
 70
     0
  0
ENDTAB
  0
TABLE
  2
UCS
  5
7
330
0
100
AcDbSymbolTable
 70
     0
  0
ENDTAB
  0
TABLE
  2
APPID
  5
9
330
0
100
AcDbSymbolTable
 70
     2
  0
APPID
  5
12
330
9
100
AcDbSymbolTableRecord
100
AcDbRegAppTableRecord
  2
ACAD
 70
     0
  0
ENDTAB
  0
TABLE
  2
DIMSTYLE
  5
A
330
0
100
AcDbSymbolTable
 70
     1
  0
DIMSTYLE
105
27
330
A
100
AcDbSymbolTableRecord
100
AcDbDimStyleTableRecord
  2
ISO-25
 70
     0
  3

  4

  5

  6

  7

 40
1.0
 41
2.5
 42
0.625
 43
3.75
 44
1.25
 45
0.0
 46
0.0
 47
0.0
 48
0.0
140
2.5
141
2.5
142
0.0
143
0.03937007874016
144
1.0
145
0.0
146
1.0
147
0.625
 71
     0
 72
     0
 73
     0
 74
     0
 75
     0
 76
     0
 77
     1
 78
     8
170
     0
171
     3
172
     1
173
     0
174
     0
175
     0
176
     0
177
     0
178
     0
270
     2
271
     2
272
     2
273
     2
274
     3
340
11
275
     0
280
     0
281
     0
282
     0
283
     0
284
     8
285
     0
286
     0
287
     3
288
     0
  0
ENDTAB
  0
TABLE
  2
BLOCK_RECORD
  5
1
330
0
100
AcDbSymbolTable
 70
     1
  0
BLOCK_RECORD
  5
1F
330
1
100
AcDbSymbolTableRecord
100
AcDbBlockTableRecord
  2
*MODEL_SPACE
  0
BLOCK_RECORD
  5
1B
330
1
100
AcDbSymbolTableRecord
100
AcDbBlockTableRecord
  2
*PAPER_SPACE
  0
ENDTAB
  0
ENDSEC
  0
SECTION
  2
BLOCKS
  0
BLOCK
  5
20
330
1F
100
AcDbEntity
  8
0
100
AcDbBlockBegin
  2
*MODEL_SPACE
 70
     0
 10
0.0
 20
0.0
 30
0.0
  3
*MODEL_SPACE
  1

  0
ENDBLK
  5
21
330
1F
100
AcDbEntity
  8
0
100
AcDbBlockEnd
  0
BLOCK
  5
1C
330
1B
100
AcDbEntity
 67
     1
  8
0
100
AcDbBlockBegin
  2
*PAPER_SPACE
  1

  0
ENDBLK
  5
1D
330
1B
100
AcDbEntity
 67
     1
  8
0
100
AcDbBlockEnd
  0
ENDSEC
  0
SECTION
  2
ENTITIES
  0
SPLINE
  5
100
100
AcDbEntity
  8
0
 62
7
100
AcDbSpline
 70
8
 71
3
 72
8
 73
4
 74
0
 40
0
 40
0
 40
0
 40
0
 40
1
 40
1
 40
1
 40
1
 10
107.385556
 20
192.897252
 30
0.0
 10
106.595858
 20
192.900750
 30
0.0
 10
105.926743
 20
192.772415
 30
0.0
 10
105.780417
 20
192.535655
 30
0.0
  0
SPLINE
  5
101
100
AcDbEntity
  8
0
 62
7
100
AcDbSpline
 70
8
 71
3
 72
8
 73
4
 74
0
 40
0
 40
0
 40
0
 40
0
 40
1
 40
1
 40
1
 40
1
 10
105.780417
 20
192.535655
 30
0.0
 10
105.582700
 20
192.215745
 30
0.0
 10
106.104066
 20
191.159821
 30
0.0
 10
106.459514
 20
191.159821
 30
0.0
  0
SPLINE
  5
102
100
AcDbEntity
  8
0
 62
7
100
AcDbSpline
 70
8
 71
3
 72
8
 73
4
 74
0
 40
0
 40
0
 40
0
 40
0
 40
1
 40
1
 40
1
 40
1
 10
106.459514
 20
191.159821
 30
0.0
 10
106.646362
 20
191.159821
 30
0.0
 10
106.887383
 20
191.026439
 30
0.0
 10
106.988681
 20
190.859960
 30
0.0
  0
SPLINE
  5
103
100
AcDbEntity
  8
0
 62
7
100
AcDbSpline
 70
8
 71
3
 72
8
 73
4
 74
0
 40
0
 40
0
 40
0
 40
0
 40
1
 40
1
 40
1
 40
1
 10
106.988681
 20
190.859960
 30
0.0
 10
107.089979
 20
190.693482
 30
0.0
 10
107.768444
 20
190.313697
 30
0.0
 10
108.496806
 20
190.022113
 30
0.0
  0
SPLINE
  5
104
100
AcDbEntity
  8
0
 62
7
100
AcDbSpline
 70
8
 71
3
 72
8
 73
4
 74
0
 40
0
 40
0
 40
0
 40
0
 40
1
 40
1
 40
1
 40
1
 10
108.496806
 20
190.022113
 30
0.0
 10
109.225167
 20
189.730530
 30
0.0
 10
109.819722
 20
189.424053
 30
0.0
 10
109.819722
 20
189.343016
 30
0.0
  0
SPLINE
  5
105
100
AcDbEntity
  8
0
 62
7
100
AcDbSpline
 70
8
 71
3
 72
8
 73
4
 74
0
 40
0
 40
0
 40
0
 40
0
 40
1
 40
1
 40
1
 40
1
 10
109.819722
 20
189.343016
 30
0.0
 10
109.819722
 20
189.261978
 30
0.0
 10
110.157692
 20
189.051498
 30
0.0
 10
110.569375
 20
188.875585
 30
0.0
  0
SPLINE
  5
106
100
AcDbEntity
  8
0
 62
7
100
AcDbSpline
 70
8
 71
3
 72
8
 73
4
 74
0
 40
0
 40
0
 40
0
 40
0
 40
1
 40
1
 40
1
 40
1
 10
110.569375
 20
188.875585
 30
0.0
 10
111.586419
 20
188.441000
 30
0.0
 10
113.276944
 20
186.703540
 30
0.0
 10
113.276944
 20
186.088641
 30
0.0
  0
SPLINE
  5
107
100
AcDbEntity
  8
0
 62
7
100
AcDbSpline
 70
8
 71
3
 72
8
 73
4
 74
0
 40
0
 40
0
 40
0
 40
0
 40
1
 40
1
 40
1
 40
1
 10
113.276944
 20
186.088641
 30
0.0
 10
113.276944
 20
185.620486
 30
0.0
 10
113.205302
 20
185.598734
 30
0.0
 10
112.068681
 20
185.753502
 30
0.0
  0
SPLINE
  5
108
100
AcDbEntity
  8
0
 62
7
100
AcDbSpline
 70
8
 71
3
 72
8
 73
4
 74
0
 40
0
 40
0
 40
0
 40
0
 40
1
 40
1
 40
1
 40
1
 10
112.068681
 20
185.753502
 30
0.0
 10
111.403655
 20
185.844055
 30
0.0
 10
110.787891
 20
186.031738
 30
0.0
 10
110.701667
 20
186.168016
 30
0.0
  0
SPLINE
  5
109
100
AcDbEntity
  8
0
 62
7
100
AcDbSpline
 70
8
 71
3
 72
8
 73
4
 74
0
 40
0
 40
0
 40
0
 40
0
 40
1
 40
1
 40
1
 40
1
 10
110.701667
 20
186.168016
 30
0.0
 10
110.474684
 20
186.526768
 30
0.0
 10
100.547032
 20
186.483972
 30
0.0
 10
100.427014
 20
186.123919
 30
0.0
  0
SPLINE
  5
10a
100
AcDbEntity
  8
0
 62
7
100
AcDbSpline
 70
8
 71
3
 72
8
 73
4
 74
0
 40
0
 40
0
 40
0
 40
0
 40
1
 40
1
 40
1
 40
1
 10
100.427014
 20
186.123919
 30
0.0
 10
100.378432
 20
185.978172
 30
0.0
 10
100.161880
 20
185.858489
 30
0.0
 10
99.950764
 20
185.859335
 30
0.0
  0
SPLINE
  5
10b
100
AcDbEntity
  8
0
 62
7
100
AcDbSpline
 70
8
 71
3
 72
8
 73
4
 74
0
 40
0
 40
0
 40
0
 40
0
 40
1
 40
1
 40
1
 40
1
 10
99.950764
 20
185.859335
 30
0.0
 10
99.314319
 20
185.861871
 30
0.0
 10
95.435516
 20
185.095773
 30
0.0
 10
95.311736
 20
184.942113
 30
0.0
  0
SPLINE
  5
10c
100
AcDbEntity
  8
0
 62
7
100
AcDbSpline
 70
8
 71
3
 72
8
 73
4
 74
0
 40
0
 40
0
 40
0
 40
0
 40
1
 40
1
 40
1
 40
1
 10
95.311736
 20
184.942113
 30
0.0
 10
95.248400
 20
184.863489
 30
0.0
 10
94.489132
 20
184.607483
 30
0.0
 10
93.627222
 20
184.377669
 30
0.0
  0
SPLINE
  5
10d
100
AcDbEntity
  8
0
 62
7
100
AcDbSpline
 70
8
 71
3
 72
8
 73
4
 74
0
 40
0
 40
0
 40
0
 40
0
 40
1
 40
1
 40
1
 40
1
 10
93.627222
 20
184.377669
 30
0.0
 10
92.765307
 20
184.147855
 30
0.0
 10
91.937349
 20
183.840981
 30
0.0
 10
91.783958
 20
183.698571
 30
0.0
  0
SPLINE
  5
10e
100
AcDbEntity
  8
0
 62
7
100
AcDbSpline
 70
8
 71
3
 72
8
 73
4
 74
0
 40
0
 40
0
 40
0
 40
0
 40
1
 40
1
 40
1
 40
1
 10
91.783958
 20
183.698571
 30
0.0
 10
91.630568
 20
183.556161
 30
0.0
 10
91.095017
 20
183.237539
 30
0.0
 10
90.593333
 20
182.984196
 30
0.0
  0
SPLINE
  5
10f
100
AcDbEntity
  8
0
 62
7
100
AcDbSpline
 70
8
 71
3
 72
8
 73
4
 74
0
 40
0
 40
0
 40
0
 40
0
 40
1
 40
1
 40
1
 40
1
 10
90.593333
 20
182.984196
 30
0.0
 10
89.504543
 20
182.434371
 30
0.0
 10
89.307467
 20
182.274872
 30
0.0
 10
87.268403
 20
180.303085
 30
0.0
  0
SPLINE
  5
110
100
AcDbEntity
  8
0
 62
7
100
AcDbSpline
 70
8
 71
3
 72
8
 73
4
 74
0
 40
0
 40
0
 40
0
 40
0
 40
1
 40
1
 40
1
 40
1
 10
87.268403
 20
180.303085
 30
0.0
 10
86.364428
 20
179.428936
 30
0.0
 10
85.553135
 20
178.415390
 30
0.0
 10
85.381042
 20
177.939474
 30
0.0
  0
SPLINE
  5
111
100
AcDbEntity
  8
0
 62
7
100
AcDbSpline
 70
8
 71
3
 72
8
 73
4
 74
0
 40
0
 40
0
 40
0
 40
0
 40
1
 40
1
 40
1
 40
1
 10
85.381042
 20
177.939474
 30
0.0
 10
85.215535
 20
177.481778
 30
0.0
 10
85.015265
 20
177.110446
 30
0.0
 10
84.931250
 20
177.110446
 30
0.0
  0
SPLINE
  5
112
100
AcDbEntity
  8
0
 62
7
100
AcDbSpline
 70
8
 71
3
 72
8
 73
4
 74
0
 40
0
 40
0
 40
0
 40
0
 40
1
 40
1
 40
1
 40
1
 10
84.931250
 20
177.110446
 30
0.0
 10
84.847232
 20
177.110446
 30
0.0
 10
84.602139
 20
176.639773
 30
0.0
 10
84.384444
 20
176.069752
 30
0.0
  0
SPLINE
  5
113
100
AcDbEntity
  8
0
 62
7
100
AcDbSpline
 70
8
 71
3
 72
8
 73
4
 74
0
 40
0
 40
0
 40
0
 40
0
 40
1
 40
1
 40
1
 40
1
 10
84.384444
 20
176.069752
 30
0.0
 10
84.166752
 20
175.499730
 30
0.0
 10
83.903453
 20
175.037877
 30
0.0
 10
83.802361
 20
175.037877
 30
0.0
  0
SPLINE
  5
114
100
AcDbEntity
  8
0
 62
7
100
AcDbSpline
 70
8
 71
3
 72
8
 73
4
 74
0
 40
0
 40
0
 40
0
 40
0
 40
1
 40
1
 40
1
 40
1
 10
83.802361
 20
175.037877
 30
0.0
 10
83.701269
 20
175.037877
 30
0.0
 10
83.375621
 20
174.110404
 30
0.0
 10
83.079167
 20
172.974127
 30
0.0
  0
SPLINE
  5
115
100
AcDbEntity
  8
0
 62
7
100
AcDbSpline
 70
8
 71
3
 72
8
 73
4
 74
0
 40
0
 40
0
 40
0
 40
0
 40
1
 40
1
 40
1
 40
1
 10
83.079167
 20
172.974127
 30
0.0
 10
82.617414
 20
171.204274
 30
0.0
 10
82.458052
 20
170.874355
 30
0.0
 10
81.959097
 20
170.698710
 30
0.0
  0
SPLINE
  5
116
100
AcDbEntity
  8
0
 62
7
100
AcDbSpline
 70
8
 71
3
 72
8
 73
4
 74
0
 40
0
 40
0
 40
0
 40
0
 40
1
 40
1
 40
1
 40
1
 10
81.959097
 20
170.698710
 30
0.0
 10
80.575116
 20
170.211514
 30
0.0
 10
79.709343
 20
169.966696
 30
0.0
 10
79.348542
 20
169.966696
 30
0.0
  0
SPLINE
  5
117
100
AcDbEntity
  8
0
 62
7
100
AcDbSpline
 70
8
 71
3
 72
8
 73
4
 74
0
 40
0
 40
0
 40
0
 40
0
 40
1
 40
1
 40
1
 40
1
 10
79.348542
 20
169.966696
 30
0.0
 10
79.135862
 20
169.966696
 30
0.0
 10
78.960486
 20
169.864062
 30
0.0
 10
78.960486
 20
169.737391
 30
0.0
  0
SPLINE
  5
118
100
AcDbEntity
  8
0
 62
7
100
AcDbSpline
 70
8
 71
3
 72
8
 73
4
 74
0
 40
0
 40
0
 40
0
 40
0
 40
1
 40
1
 40
1
 40
1
 10
78.960486
 20
169.737391
 30
0.0
 10
78.960486
 20
169.610719
 30
0.0
 10
78.611801
 20
169.508085
 30
0.0
 10
78.184375
 20
169.508085
 30
0.0
  0
SPLINE
  5
119
100
AcDbEntity
  8
0
 62
7
100
AcDbSpline
 70
8
 71
3
 72
8
 73
4
 74
0
 40
0
 40
0
 40
0
 40
0
 40
1
 40
1
 40
1
 40
1
 10
78.184375
 20
169.508085
 30
0.0
 10
77.397751
 20
169.508085
 30
0.0
 10
75.511683
 20
168.939941
 30
0.0
 10
75.282778
 20
168.634960
 30
0.0
  0
SPLINE
  5
11a
100
AcDbEntity
  8
0
 62
7
100
AcDbSpline
 70
8
 71
3
 72
8
 73
4
 74
0
 40
0
 40
0
 40
0
 40
0
 40
1
 40
1
 40
1
 40
1
 10
75.282778
 20
168.634960
 30
0.0
 10
75.214271
 20
168.543687
 30
0.0
 10
74.739952
 20
168.268715
 30
0.0
 10
74.233264
 20
168.017599
 30
0.0
  0
SPLINE
  5
11b
100
AcDbEntity
  8
0
 62
7
100
AcDbSpline
 70
8
 71
3
 72
8
 73
4
 74
0
 40
0
 40
0
 40
0
 40
0
 40
1
 40
1
 40
1
 40
1
 10
74.233264
 20
168.017599
 30
0.0
 10
72.662121
 20
167.238934
 30
0.0
 10
70.214496
 20
164.445724
 30
0.0
 10
71.102361
 20
164.445724
 30
0.0
  0
SPLINE
  5
11c
100
AcDbEntity
  8
0
 62
7
100
AcDbSpline
 70
8
 71
3
 72
8
 73
4
 74
0
 40
0
 40
0
 40
0
 40
0
 40
1
 40
1
 40
1
 40
1
 10
71.102361
 20
164.445724
 30
0.0
 10
71.214259
 20
164.445724
 30
0.0
 10
71.371511
 20
164.261707
 30
0.0
 10
71.455139
 20
164.040030
 30
0.0
  0
SPLINE
  5
11d
100
AcDbEntity
  8
0
 62
7
100
AcDbSpline
 70
8
 71
3
 72
8
 73
4
 74
0
 40
0
 40
0
 40
0
 40
0
 40
1
 40
1
 40
1
 40
1
 10
71.455139
 20
164.040030
 30
0.0
 10
71.771157
 20
163.202372
 30
0.0
 10
72.166057
 20
162.602460
 30
0.0
 10
72.398819
 20
162.602460
 30
0.0
  0
SPLINE
  5
11e
100
AcDbEntity
  8
0
 62
7
100
AcDbSpline
 70
8
 71
3
 72
8
 73
4
 74
0
 40
0
 40
0
 40
0
 40
0
 40
1
 40
1
 40
1
 40
1
 10
72.398819
 20
162.602460
 30
0.0
 10
72.531481
 20
162.602460
 30
0.0
 10
72.838471
 20
162.264491
 30
0.0
 10
73.077917
 20
161.852808
 30
0.0
  0
SPLINE
  5
11f
100
AcDbEntity
  8
0
 62
7
100
AcDbSpline
 70
8
 71
3
 72
8
 73
4
 74
0
 40
0
 40
0
 40
0
 40
0
 40
1
 40
1
 40
1
 40
1
 10
73.077917
 20
161.852808
 30
0.0
 10
73.317362
 20
161.441127
 30
0.0
 10
73.614288
 20
161.036734
 30
0.0
 10
73.739375
 20
160.953224
 30
0.0
  0
SPLINE
  5
120
100
AcDbEntity
  8
0
 62
7
100
AcDbSpline
 70
8
 71
3
 72
8
 73
4
 74
0
 40
0
 40
0
 40
0
 40
0
 40
1
 40
1
 40
1
 40
1
 10
73.739375
 20
160.953224
 30
0.0
 10
73.876651
 20
160.861578
 30
0.0
 10
73.811694
 20
160.646308
 30
0.0
 10
73.580625
 20
160.415238
 30
0.0
  0
SPLINE
  5
121
100
AcDbEntity
  8
0
 62
7
100
AcDbSpline
 70
8
 71
3
 72
8
 73
4
 74
0
 40
0
 40
0
 40
0
 40
0
 40
1
 40
1
 40
1
 40
1
 10
73.580625
 20
160.415238
 30
0.0
 10
73.370073
 20
160.204689
 30
0.0
 10
73.201389
 20
159.897521
 30
0.0
 10
73.201389
 20
159.727321
 30
0.0
  0
SPLINE
  5
122
100
AcDbEntity
  8
0
 62
7
100
AcDbSpline
 70
8
 71
3
 72
8
 73
4
 74
0
 40
0
 40
0
 40
0
 40
0
 40
1
 40
1
 40
1
 40
1
 10
73.201389
 20
159.727321
 30
0.0
 10
73.201389
 20
159.436714
 30
0.0
 10
72.723674
 20
158.780201
 30
0.0
 10
71.737361
 20
157.716488
 30
0.0
  0
SPLINE
  5
123
100
AcDbEntity
  8
0
 62
7
100
AcDbSpline
 70
8
 71
3
 72
8
 73
4
 74
0
 40
0
 40
0
 40
0
 40
0
 40
1
 40
1
 40
1
 40
1
 10
71.737361
 20
157.716488
 30
0.0
 10
71.480508
 20
157.439479
 30
0.0
 10
71.357058
 20
157.063132
 30
0.0
 10
71.428681
 20
156.763988
 30
0.0
  0
SPLINE
  5
124
100
AcDbEntity
  8
0
 62
7
100
AcDbSpline
 70
8
 71
3
 72
8
 73
4
 74
0
 40
0
 40
0
 40
0
 40
0
 40
1
 40
1
 40
1
 40
1
 10
71.428681
 20
156.763988
 30
0.0
 10
71.818458
 20
155.135984
 30
0.0
 10
72.291631
 20
153.750470
 30
0.0
 10
72.495833
 20
153.624266
 30
0.0
  0
SPLINE
  5
125
100
AcDbEntity
  8
0
 62
7
100
AcDbSpline
 70
8
 71
3
 72
8
 73
4
 74
0
 40
0
 40
0
 40
0
 40
0
 40
1
 40
1
 40
1
 40
1
 10
72.495833
 20
153.624266
 30
0.0
 10
72.625390
 20
153.544197
 30
0.0
 10
72.825932
 20
152.793740
 30
0.0
 10
72.945625
 20
151.948571
 30
0.0
  0
SPLINE
  5
126
100
AcDbEntity
  8
0
 62
7
100
AcDbSpline
 70
8
 71
3
 72
8
 73
4
 74
0
 40
0
 40
0
 40
0
 40
0
 40
1
 40
1
 40
1
 40
1
 10
72.945625
 20
151.948571
 30
0.0
 10
73.188026
 20
150.236911
 30
0.0
 10
73.310575
 20
149.928919
 30
0.0
 10
73.774653
 20
149.928919
 30
0.0
  0
SPLINE
  5
127
100
AcDbEntity
  8
0
 62
7
100
AcDbSpline
 70
8
 71
3
 72
8
 73
4
 74
0
 40
0
 40
0
 40
0
 40
0
 40
1
 40
1
 40
1
 40
1
 10
73.774653
 20
149.928919
 30
0.0
 10
73.950003
 20
149.928919
 30
0.0
 10
74.226491
 20
149.742452
 30
0.0
 10
74.392014
 20
149.514405
 30
0.0
  0
SPLINE
  5
128
100
AcDbEntity
  8
0
 62
7
100
AcDbSpline
 70
8
 71
3
 72
8
 73
4
 74
0
 40
0
 40
0
 40
0
 40
0
 40
1
 40
1
 40
1
 40
1
 10
74.392014
 20
149.514405
 30
0.0
 10
74.557534
 20
149.286358
 30
0.0
 10
75.059915
 20
148.965186
 30
0.0
 10
75.503264
 20
148.791210
 30
0.0
  0
SPLINE
  5
129
100
AcDbEntity
  8
0
 62
7
100
AcDbSpline
 70
8
 71
3
 72
8
 73
4
 74
0
 40
0
 40
0
 40
0
 40
0
 40
1
 40
1
 40
1
 40
1
 10
75.503264
 20
148.791210
 30
0.0
 10
75.946615
 20
148.617234
 30
0.0
 10
76.468153
 20
148.305291
 30
0.0
 10
76.667431
 20
148.103294
 30
0.0
  0
SPLINE
  5
12a
100
AcDbEntity
  8
0
 62
7
100
AcDbSpline
 70
8
 71
3
 72
8
 73
4
 74
0
 40
0
 40
0
 40
0
 40
0
 40
1
 40
1
 40
1
 40
1
 10
76.667431
 20
148.103294
 30
0.0
 10
76.866705
 20
147.901296
 30
0.0
 10
77.491330
 20
147.530481
 30
0.0
 10
78.052083
 20
147.283085
 30
0.0
  0
SPLINE
  5
12b
100
AcDbEntity
  8
0
 62
7
100
AcDbSpline
 70
8
 71
3
 72
8
 73
4
 74
0
 40
0
 40
0
 40
0
 40
0
 40
1
 40
1
 40
1
 40
1
 10
78.052083
 20
147.283085
 30
0.0
 10
78.612833
 20
147.035689
 30
0.0
 10
79.159049
 20
146.704205
 30
0.0
 10
79.260347
 20
146.542252
 30
0.0
  0
SPLINE
  5
12c
100
AcDbEntity
  8
0
 62
7
100
AcDbSpline
 70
8
 71
3
 72
8
 73
4
 74
0
 40
0
 40
0
 40
0
 40
0
 40
1
 40
1
 40
1
 40
1
 10
79.260347
 20
146.542252
 30
0.0
 10
79.361645
 20
146.380293
 30
0.0
 10
79.588162
 20
146.251210
 30
0.0
 10
79.771875
 20
146.251210
 30
0.0
  0
SPLINE
  5
12d
100
AcDbEntity
  8
0
 62
7
100
AcDbSpline
 70
8
 71
3
 72
8
 73
4
 74
0
 40
0
 40
0
 40
0
 40
0
 40
1
 40
1
 40
1
 40
1
 10
79.771875
 20
146.251210
 30
0.0
 10
79.955588
 20
146.251210
 30
0.0
 10
80.293312
 20
146.067193
 30
0.0
 10
80.521528
 20
145.845516
 30
0.0
  0
SPLINE
  5
12e
100
AcDbEntity
  8
0
 62
7
100
AcDbSpline
 70
8
 71
3
 72
8
 73
4
 74
0
 40
0
 40
0
 40
0
 40
0
 40
1
 40
1
 40
1
 40
1
 10
80.521528
 20
145.845516
 30
0.0
 10
80.749744
 20
145.623842
 30
0.0
 10
81.344299
 20
145.216307
 30
0.0
 10
81.844444
 20
144.937113
 30
0.0
  0
SPLINE
  5
12f
100
AcDbEntity
  8
0
 62
7
100
AcDbSpline
 70
8
 71
3
 72
8
 73
4
 74
0
 40
0
 40
0
 40
0
 40
0
 40
1
 40
1
 40
1
 40
1
 10
82.673472
 20
140.562669
 30
0.0
 10
82.625396
 20
138.435105
 30
0.0
 10
82.492695
 20
136.653781
 30
0.0
 10
82.382431
 20
136.611558
 30
0.0
  0
SPLINE
  5
130
100
AcDbEntity
  8
0
 62
7
100
AcDbSpline
 70
8
 71
3
 72
8
 73
4
 74
0
 40
0
 40
0
 40
0
 40
0
 40
1
 40
1
 40
1
 40
1
 10
82.382431
 20
136.611558
 30
0.0
 10
82.272164
 20
136.569334
 30
0.0
 10
82.179583
 20
136.213542
 30
0.0
 10
82.179583
 20
135.817808
 30
0.0
  0
SPLINE
  5
131
100
AcDbEntity
  8
0
 62
7
100
AcDbSpline
 70
8
 71
3
 72
8
 73
4
 74
0
 40
0
 40
0
 40
0
 40
0
 40
1
 40
1
 40
1
 40
1
 10
82.179583
 20
135.817808
 30
0.0
 10
82.179583
 20
134.462873
 30
0.0
 10
81.441900
 20
129.324176
 30
0.0
 10
81.235903
 20
129.247321
 30
0.0
  0
SPLINE
  5
132
100
AcDbEntity
  8
0
 62
7
100
AcDbSpline
 70
8
 71
3
 72
8
 73
4
 74
0
 40
0
 40
0
 40
0
 40
0
 40
1
 40
1
 40
1
 40
1
 10
81.235903
 20
129.247321
 30
0.0
 10
81.122726
 20
129.205095
 30
0.0
 10
81.033056
 20
129.008164
 30
0.0
 10
81.033056
 20
128.815169
 30
0.0
  0
SPLINE
  5
133
100
AcDbEntity
  8
0
 62
7
100
AcDbSpline
 70
8
 71
3
 72
8
 73
4
 74
0
 40
0
 40
0
 40
0
 40
0
 40
1
 40
1
 40
1
 40
1
 10
81.033056
 20
128.815169
 30
0.0
 10
81.033056
 20
128.622174
 30
0.0
 10
80.855747
 20
127.748047
 30
0.0
 10
80.645000
 20
126.874891
 30
0.0
  0
SPLINE
  5
134
100
AcDbEntity
  8
0
 62
7
100
AcDbSpline
 70
8
 71
3
 72
8
 73
4
 74
0
 40
0
 40
0
 40
0
 40
0
 40
1
 40
1
 40
1
 40
1
 10
80.645000
 20
126.874891
 30
0.0
 10
80.309678
 20
125.485610
 30
0.0
 10
80.197980
 20
125.287391
 30
0.0
 10
79.736597
 20
125.287391
 30
0.0
  0
SPLINE
  5
135
100
AcDbEntity
  8
0
 62
7
100
AcDbSpline
 70
8
 71
3
 72
8
 73
4
 74
0
 40
0
 40
0
 40
0
 40
0
 40
1
 40
1
 40
1
 40
1
 10
79.736597
 20
125.287391
 30
0.0
 10
79.212745
 20
125.287391
 30
0.0
 10
78.025464
 20
125.728386
 30
0.0
 10
77.805139
 20
126.001766
 30
0.0
  0
SPLINE
  5
136
100
AcDbEntity
  8
0
 62
7
100
AcDbSpline
 70
8
 71
3
 72
8
 73
4
 74
0
 40
0
 40
0
 40
0
 40
0
 40
1
 40
1
 40
1
 40
1
 10
77.805139
 20
126.001766
 30
0.0
 10
77.741805
 20
126.080356
 30
0.0
 10
77.382584
 20
126.241169
 30
0.0
 10
77.002569
 20
126.363363
 30
0.0
  0
SPLINE
  5
137
100
AcDbEntity
  8
0
 62
7
100
AcDbSpline
 70
8
 71
3
 72
8
 73
4
 74
0
 40
0
 40
0
 40
0
 40
0
 40
1
 40
1
 40
1
 40
1
 10
77.002569
 20
126.363363
 30
0.0
 10
76.622557
 20
126.485554
 30
0.0
 10
76.207033
 20
126.808721
 30
0.0
 10
76.085347
 20
127.077738
 30
0.0
  0
SPLINE
  5
138
100
AcDbEntity
  8
0
 62
7
100
AcDbSpline
 70
8
 71
3
 72
8
 73
4
 74
0
 40
0
 40
0
 40
0
 40
0
 40
1
 40
1
 40
1
 40
1
 10
76.085347
 20
127.077738
 30
0.0
 10
75.963664
 20
127.346758
 30
0.0
 10
75.678349
 20
127.609019
 30
0.0
 10
75.450347
 20
127.668641
 30
0.0
  0
SPLINE
  5
139
100
AcDbEntity
  8
0
 62
7
100
AcDbSpline
 70
8
 71
3
 72
8
 73
4
 74
0
 40
0
 40
0
 40
0
 40
0
 40
1
 40
1
 40
1
 40
1
 10
75.450347
 20
127.668641
 30
0.0
 10
75.052722
 20
127.772623
 30
0.0
 10
73.670112
 20
127.393590
 30
0.0
 10
73.430694
 20
127.113016
 30
0.0
  0
SPLINE
  5
13a
100
AcDbEntity
  8
0
 62
7
100
AcDbSpline
 70
8
 71
3
 72
8
 73
4
 74
0
 40
0
 40
0
 40
0
 40
0
 40
1
 40
1
 40
1
 40
1
 10
73.430694
 20
127.113016
 30
0.0
 10
73.367361
 20
127.038791
 30
0.0
 10
72.456082
 20
126.783245
 30
0.0
 10
71.411042
 20
126.548571
 30
0.0
  0
SPLINE
  5
13b
100
AcDbEntity
  8
0
 62
7
100
AcDbSpline
 70
8
 71
3
 72
8
 73
4
 74
0
 40
0
 40
0
 40
0
 40
0
 40
1
 40
1
 40
1
 40
1
 10
71.411042
 20
126.548571
 30
0.0
 10
70.366004
 20
126.313895
 30
0.0
 10
69.514861
 20
126.042812
 30
0.0
 10
69.514861
 20
125.940030
 30
0.0
  0
SPLINE
  5
13c
100
AcDbEntity
  8
0
 62
7
100
AcDbSpline
 70
8
 71
3
 72
8
 73
4
 74
0
 40
0
 40
0
 40
0
 40
0
 40
1
 40
1
 40
1
 40
1
 10
69.514861
 20
125.940030
 30
0.0
 10
69.514861
 20
125.837242
 30
0.0
 10
69.320585
 20
125.746002
 30
0.0
 10
69.082708
 20
125.746002
 30
0.0
  0
SPLINE
  5
13d
100
AcDbEntity
  8
0
 62
7
100
AcDbSpline
 70
8
 71
3
 72
8
 73
4
 74
0
 40
0
 40
0
 40
0
 40
0
 40
1
 40
1
 40
1
 40
1
 10
69.082708
 20
125.746002
 30
0.0
 10
68.517445
 20
125.746002
 30
0.0
 10
66.944088
 20
125.088376
 30
0.0
 10
66.639722
 20
124.722946
 30
0.0
  0
SPLINE
  5
13e
100
AcDbEntity
  8
0
 62
7
100
AcDbSpline
 70
8
 71
3
 72
8
 73
4
 74
0
 40
0
 40
0
 40
0
 40
0
 40
1
 40
1
 40
1
 40
1
 10
66.639722
 20
124.722946
 30
0.0
 10
66.508664
 20
124.565591
 30
0.0
 10
66.042376
 20
124.300276
 30
0.0
 10
65.599028
 20
124.132044
 30
0.0
  0
SPLINE
  5
13f
100
AcDbEntity
  8
0
 62
7
100
AcDbSpline
 70
8
 71
3
 72
8
 73
4
 74
0
 40
0
 40
0
 40
0
 40
0
 40
1
 40
1
 40
1
 40
1
 10
65.599028
 20
124.132044
 30
0.0
 10
65.155676
 20
123.963814
 30
0.0
 10
64.622234
 20
123.652929
 30
0.0
 10
64.408403
 20
123.435308
 30
0.0
  0
SPLINE
  5
140
100
AcDbEntity
  8
0
 62
7
100
AcDbSpline
 70
8
 71
3
 72
8
 73
4
 74
0
 40
0
 40
0
 40
0
 40
0
 40
1
 40
1
 40
1
 40
1
 10
64.408403
 20
123.435308
 30
0.0
 10
64.194571
 20
123.217689
 30
0.0
 10
63.488562
 20
122.902909
 30
0.0
 10
62.847361
 20
122.738571
 30
0.0
  0
SPLINE
  5
141
100
AcDbEntity
  8
0
 62
7
100
AcDbSpline
 70
8
 71
3
 72
8
 73
4
 74
0
 40
0
 40
0
 40
0
 40
0
 40
1
 40
1
 40
1
 40
1
 10
62.847361
 20
122.738571
 30
0.0
 10
62.206161
 20
122.574239
 30
0.0
 10
61.683194
 20
122.356225
 30
0.0
 10
61.683194
 20
122.253502
 30
0.0
  0
SPLINE
  5
142
100
AcDbEntity
  8
0
 62
7
100
AcDbSpline
 70
8
 71
3
 72
8
 73
4
 74
0
 40
0
 40
0
 40
0
 40
0
 40
1
 40
1
 40
1
 40
1
 10
61.683194
 20
122.253502
 30
0.0
 10
61.683194
 20
122.150779
 30
0.0
 10
61.520826
 20
122.068294
 30
0.0
 10
61.321597
 20
122.068294
 30
0.0
  0
SPLINE
  5
143
100
AcDbEntity
  8
0
 62
7
100
AcDbSpline
 70
8
 71
3
 72
8
 73
4
 74
0
 40
0
 40
0
 40
0
 40
0
 40
1
 40
1
 40
1
 40
1
 10
61.321597
 20
122.068294
 30
0.0
 10
60.741645
 20
122.068294
 30
0.0
 10
56.976752
 20
121.102425
 30
0.0
 10
56.850139
 20
120.921766
 30
0.0
  0
SPLINE
  5
144
100
AcDbEntity
  8
0
 62
7
100
AcDbSpline
 70
8
 71
3
 72
8
 73
4
 74
0
 40
0
 40
0
 40
0
 40
0
 40
1
 40
1
 40
1
 40
1
 10
56.850139
 20
120.921766
 30
0.0
 10
56.786803
 20
120.831396
 30
0.0
 10
56.008228
 20
120.566809
 30
0.0
 10
55.121528
 20
120.330863
 30
0.0
  0
SPLINE
  5
145
100
AcDbEntity
  8
0
 62
7
100
AcDbSpline
 70
8
 71
3
 72
8
 73
4
 74
0
 40
0
 40
0
 40
0
 40
0
 40
1
 40
1
 40
1
 40
1
 10
55.121528
 20
120.330863
 30
0.0
 10
54.234828
 20
120.094917
 30
0.0
 10
53.376381
 20
119.773248
 30
0.0
 10
53.216528
 20
119.616488
 30
0.0
  0
SPLINE
  5
146
100
AcDbEntity
  8
0
 62
7
100
AcDbSpline
 70
8
 71
3
 72
8
 73
4
 74
0
 40
0
 40
0
 40
0
 40
0
 40
1
 40
1
 40
1
 40
1
 10
53.216528
 20
119.616488
 30
0.0
 10
52.514223
 20
118.927773
 30
0.0
 10
49.232927
 20
119.049904
 30
0.0
 10
48.771528
 20
119.784058
 30
0.0
  0
SPLINE
  5
147
100
AcDbEntity
  8
0
 62
7
100
AcDbSpline
 70
8
 71
3
 72
8
 73
4
 74
0
 40
0
 40
0
 40
0
 40
0
 40
1
 40
1
 40
1
 40
1
 10
48.771528
 20
119.784058
 30
0.0
 10
48.700766
 20
119.896650
 30
0.0
 10
47.768236
 20
120.163237
 30
0.0
 10
46.698958
 20
120.374960
 30
0.0
  0
SPLINE
  5
148
100
AcDbEntity
  8
0
 62
7
100
AcDbSpline
 70
8
 71
3
 72
8
 73
4
 74
0
 40
0
 40
0
 40
0
 40
0
 40
1
 40
1
 40
1
 40
1
 10
46.698958
 20
120.374960
 30
0.0
 10
45.629678
 20
120.586683
 30
0.0
 10
44.707361
 20
120.833656
 30
0.0
 10
44.644028
 20
120.921766
 30
0.0
  0
SPLINE
  5
149
100
AcDbEntity
  8
0
 62
7
100
AcDbSpline
 70
8
 71
3
 72
8
 73
4
 74
0
 40
0
 40
0
 40
0
 40
0
 40
1
 40
1
 40
1
 40
1
 10
44.644028
 20
120.921766
 30
0.0
 10
44.580691
 20
121.009873
 30
0.0
 10
43.228810
 20
121.318455
 30
0.0
 10
41.645417
 20
121.609683
 30
0.0
  0
SPLINE
  5
14a
100
AcDbEntity
  8
0
 62
7
100
AcDbSpline
 70
8
 71
3
 72
8
 73
4
 74
0
 40
0
 40
0
 40
0
 40
0
 40
1
 40
1
 40
1
 40
1
 10
41.645417
 20
121.609683
 30
0.0
 10
40.062023
 20
121.900910
 30
0.0
 10
38.718961
 20
122.208454
 30
0.0
 10
38.655625
 20
122.288780
 30
0.0
  0
SPLINE
  5
14b
100
AcDbEntity
  8
0
 62
7
100
AcDbSpline
 70
8
 71
3
 72
8
 73
4
 74
0
 40
0
 40
0
 40
0
 40
0
 40
1
 40
1
 40
1
 40
1
 10
38.655625
 20
122.288780
 30
0.0
 10
38.592289
 20
122.369103
 30
0.0
 10
37.505809
 20
122.620072
 30
0.0
 10
36.239097
 20
122.853224
 30
0.0
  0
SPLINE
  5
14c
100
AcDbEntity
  8
0
 62
7
100
AcDbSpline
 70
8
 71
3
 72
8
 73
4
 74
0
 40
0
 40
0
 40
0
 40
0
 40
1
 40
1
 40
1
 40
1
 10
36.239097
 20
122.853224
 30
0.0
 10
34.972382
 20
123.086382
 30
0.0
 10
33.877086
 20
123.354067
 30
0.0
 10
33.813750
 20
123.444127
 30
0.0
  0
SPLINE
  5
14d
100
AcDbEntity
  8
0
 62
7
100
AcDbSpline
 70
8
 71
3
 72
8
 73
4
 74
0
 40
0
 40
0
 40
0
 40
0
 40
1
 40
1
 40
1
 40
1
 10
33.813750
 20
123.444127
 30
0.0
 10
33.750414
 20
123.534187
 30
0.0
 10
32.304126
 20
123.839887
 30
0.0
 10
30.594653
 20
124.123224
 30
0.0
  0
SPLINE
  5
14e
100
AcDbEntity
  8
0
 62
7
100
AcDbSpline
 70
8
 71
3
 72
8
 73
4
 74
0
 40
0
 40
0
 40
0
 40
0
 40
1
 40
1
 40
1
 40
1
 10
30.594653
 20
124.123224
 30
0.0
 10
28.885179
 20
124.406558
 30
0.0
 10
27.430662
 20
124.722413
 30
0.0
 10
27.366736
 20
124.819960
 30
0.0
  0
SPLINE
  5
14f
100
AcDbEntity
  8
0
 62
7
100
AcDbSpline
 70
8
 71
3
 72
8
 73
4
 74
0
 40
0
 40
0
 40
0
 40
0
 40
1
 40
1
 40
1
 40
1
 10
27.366736
 20
124.819960
 30
0.0
 10
27.302807
 20
124.917505
 30
0.0
 10
26.330007
 20
125.167130
 30
0.0
 10
25.197153
 20
125.375585
 30
0.0
  0
SPLINE
  5
150
100
AcDbEntity
  8
0
 62
7
100
AcDbSpline
 70
8
 71
3
 72
8
 73
4
 74
0
 40
0
 40
0
 40
0
 40
0
 40
1
 40
1
 40
1
 40
1
 10
25.197153
 20
125.375585
 30
0.0
 10
24.064301
 20
125.584037
 30
0.0
 10
23.071636
 20
125.842116
 30
0.0
 10
23.001111
 20
125.948849
 30
0.0
  0
SPLINE
  5
151
100
AcDbEntity
  8
0
 62
7
100
AcDbSpline
 70
8
 71
3
 72
8
 73
4
 74
0
 40
0
 40
0
 40
0
 40
0
 40
1
 40
1
 40
1
 40
1
 10
23.001111
 20
125.948849
 30
0.0
 10
22.930584
 20
126.055580
 30
0.0
 10
22.406966
 20
126.214578
 30
0.0
 10
21.836944
 20
126.301627
 30
0.0
  0
SPLINE
  5
152
100
AcDbEntity
  8
0
 62
7
100
AcDbSpline
 70
8
 71
3
 72
8
 73
4
 74
0
 40
0
 40
0
 40
0
 40
0
 40
1
 40
1
 40
1
 40
1
 10
21.836944
 20
126.301627
 30
0.0
 10
21.266923
 20
126.388676
 30
0.0
 10
20.283079
 20
126.548337
 30
0.0
 10
19.649722
 20
126.663224
 30
0.0
  0
SPLINE
  5
153
100
AcDbEntity
  8
0
 62
7
100
AcDbSpline
 70
8
 71
3
 72
8
 73
4
 74
0
 40
0
 40
0
 40
0
 40
0
 40
1
 40
1
 40
1
 40
1
 10
19.649722
 20
126.663224
 30
0.0
 10
17.679078
 20
127.020687
 30
0.0
 10
15.446292
 20
126.949860
 30
0.0
 10
14.746111
 20
126.504474
 30
0.0
  0
SPLINE
  5
154
100
AcDbEntity
  8
0
 62
7
100
AcDbSpline
 70
8
 71
3
 72
8
 73
4
 74
0
 40
0
 40
0
 40
0
 40
0
 40
1
 40
1
 40
1
 40
1
 10
14.746111
 20
126.504474
 30
0.0
 10
14.402221
 20
126.285724
 30
0.0
 10
14.057055
 20
126.002505
 30
0.0
 10
13.970000
 20
125.878294
 30
0.0
  0
SPLINE
  5
155
100
AcDbEntity
  8
0
 62
7
100
AcDbSpline
 70
8
 71
3
 72
8
 73
4
 74
0
 40
0
 40
0
 40
0
 40
0
 40
1
 40
1
 40
1
 40
1
 10
13.970000
 20
125.878294
 30
0.0
 10
13.882944
 20
125.754079
 30
0.0
 10
12.134380
 20
125.562450
 30
0.0
 10
10.089444
 20
125.446141
 30
0.0
  0
SPLINE
  5
156
100
AcDbEntity
  8
0
 62
7
100
AcDbSpline
 70
8
 71
3
 72
8
 73
4
 74
0
 40
0
 40
0
 40
0
 40
0
 40
1
 40
1
 40
1
 40
1
 10
10.089444
 20
125.446141
 30
0.0
 10
6.252441
 20
125.227901
 30
0.0
 10
5.746460
 20
125.294322
 30
0.0
 10
4.824236
 20
126.169335
 30
0.0
  0
SPLINE
  5
157
100
AcDbEntity
  8
0
 62
7
100
AcDbSpline
 70
8
 71
3
 72
8
 73
4
 74
0
 40
0
 40
0
 40
0
 40
0
 40
1
 40
1
 40
1
 40
1
 10
4.824236
 20
126.169335
 30
0.0
 10
4.603873
 20
126.378417
 30
0.0
 10
4.166826
 20
126.430933
 30
0.0
 10
3.439583
 20
126.336905
 30
0.0
  0
SPLINE
  5
158
100
AcDbEntity
  8
0
 62
7
100
AcDbSpline
 70
8
 71
3
 72
8
 73
4
 74
0
 40
0
 40
0
 40
0
 40
0
 40
1
 40
1
 40
1
 40
1
 10
3.439583
 20
126.336905
 30
0.0
 10
2.484583
 20
126.213427
 30
0.0
 10
2.303420
 20
126.271488
 30
0.0
 10
1.587500
 20
126.910169
 30
0.0
  0
LWPOLYLINE
  5
159
100
AcDbEntity
  8
0
 62
7
100
AcDbPolyline
 90
3
 70
0
 10
81.844444
 20
144.937113
 30
0.0
 10
82.761667
 20
144.425585
 30
0.0
 10
82.673472
 20
140.562669
 30
0.0
  0
SPLINE
  5
15a
100
AcDbEntity
  8
0
 62
7
100
AcDbSpline
 70
8
 71
3
 72
8
 73
4
 74
0
 40
0
 40
0
 40
0
 40
0
 40
1
 40
1
 40
1
 40
1
 10
0.388056
 20
127.095377
 30
0.0
 10
0.169076
 20
126.805066
 30
0.0
 10
0.082824
 20
126.511465
 30
0.0
 10
0.194028
 20
126.442738
 30
0.0
  0
SPLINE
  5
15b
100
AcDbEntity
  8
0
 62
7
100
AcDbSpline
 70
8
 71
3
 72
8
 73
4
 74
0
 40
0
 40
0
 40
0
 40
0
 40
1
 40
1
 40
1
 40
1
 10
0.194028
 20
126.442738
 30
0.0
 10
0.308525
 20
126.371974
 30
0.0
 10
0.306751
 20
126.167501
 30
0.0
 10
0.185208
 20
125.975308
 30
0.0
  0
SPLINE
  5
15c
100
AcDbEntity
  8
0
 62
7
100
AcDbSpline
 70
8
 71
3
 72
8
 73
4
 74
0
 40
0
 40
0
 40
0
 40
0
 40
1
 40
1
 40
1
 40
1
 10
0.185208
 20
125.975308
 30
0.0
 10
-0.314662
 20
125.184868
 30
0.0
 10
0.291811
 20
121.847935
 30
0.0
 10
1.049514
 20
121.221627
 30
0.0
  0
SPLINE
  5
15d
100
AcDbEntity
  8
0
 62
7
100
AcDbSpline
 70
8
 71
3
 72
8
 73
4
 74
0
 40
0
 40
0
 40
0
 40
0
 40
1
 40
1
 40
1
 40
1
 10
1.049514
 20
121.221627
 30
0.0
 10
1.225554
 20
121.076113
 30
0.0
 10
1.468092
 20
120.583596
 30
0.0
 10
1.596319
 20
120.119196
 30
0.0
  0
SPLINE
  5
15e
100
AcDbEntity
  8
0
 62
7
100
AcDbSpline
 70
8
 71
3
 72
8
 73
4
 74
0
 40
0
 40
0
 40
0
 40
0
 40
1
 40
1
 40
1
 40
1
 10
1.596319
 20
120.119196
 30
0.0
 10
1.809762
 20
119.346167
 30
0.0
 10
3.392239
 20
117.455724
 30
0.0
 10
3.827639
 20
117.455724
 30
0.0
  0
SPLINE
  5
15f
100
AcDbEntity
  8
0
 62
7
100
AcDbSpline
 70
8
 71
3
 72
8
 73
4
 74
0
 40
0
 40
0
 40
0
 40
0
 40
1
 40
1
 40
1
 40
1
 10
3.827639
 20
117.455724
 30
0.0
 10
4.161683
 20
117.455724
 30
0.0
 10
5.254554
 20
116.882376
 30
0.0
 10
5.256389
 20
116.706071
 30
0.0
  0
SPLINE
  5
160
100
AcDbEntity
  8
0
 62
7
100
AcDbSpline
 70
8
 71
3
 72
8
 73
4
 74
0
 40
0
 40
0
 40
0
 40
0
 40
1
 40
1
 40
1
 40
1
 10
5.256389
 20
116.706071
 30
0.0
 10
5.257377
 20
116.611067
 30
0.0
 10
5.405818
 20
116.538502
 30
0.0
 10
5.591528
 20
116.538502
 30
0.0
  0
SPLINE
  5
161
100
AcDbEntity
  8
0
 62
7
100
AcDbSpline
 70
8
 71
3
 72
8
 73
4
 74
0
 40
0
 40
0
 40
0
 40
0
 40
1
 40
1
 40
1
 40
1
 10
5.591528
 20
116.538502
 30
0.0
 10
5.777237
 20
116.538502
 30
0.0
 10
6.299227
 20
116.363911
 30
0.0
 10
6.746875
 20
116.150446
 30
0.0
  0
SPLINE
  5
162
100
AcDbEntity
  8
0
 62
7
100
AcDbSpline
 70
8
 71
3
 72
8
 73
4
 74
0
 40
0
 40
0
 40
0
 40
0
 40
1
 40
1
 40
1
 40
1
 10
6.746875
 20
116.150446
 30
0.0
 10
7.393846
 20
115.841927
 30
0.0
 10
7.558264
 20
115.625067
 30
0.0
 10
7.558264
 20
115.109752
 30
0.0
  0
SPLINE
  5
163
100
AcDbEntity
  8
0
 62
7
100
AcDbSpline
 70
8
 71
3
 72
8
 73
4
 74
0
 40
0
 40
0
 40
0
 40
0
 40
1
 40
1
 40
1
 40
1
 10
7.558264
 20
115.109752
 30
0.0
 10
7.558264
 20
114.753198
 30
0.0
 10
7.470292
 20
114.465933
 30
0.0
 10
7.355417
 20
114.465933
 30
0.0
  0
SPLINE
  5
164
100
AcDbEntity
  8
0
 62
7
100
AcDbSpline
 70
8
 71
3
 72
8
 73
4
 74
0
 40
0
 40
0
 40
0
 40
0
 40
1
 40
1
 40
1
 40
1
 10
7.355417
 20
114.465933
 30
0.0
 10
7.149152
 20
114.465933
 30
0.0
 10
6.182431
 20
111.682138
 30
0.0
 10
6.182431
 20
111.088085
 30
0.0
  0
SPLINE
  5
165
100
AcDbEntity
  8
0
 62
7
100
AcDbSpline
 70
8
 71
3
 72
8
 73
4
 74
0
 40
0
 40
0
 40
0
 40
0
 40
1
 40
1
 40
1
 40
1
 10
6.182431
 20
111.088085
 30
0.0
 10
6.182431
 20
110.919412
 30
0.0
 10
6.079796
 20
110.779405
 30
0.0
 10
5.953125
 20
110.779405
 30
0.0
  0
SPLINE
  5
166
100
AcDbEntity
  8
0
 62
7
100
AcDbSpline
 70
8
 71
3
 72
8
 73
4
 74
0
 40
0
 40
0
 40
0
 40
0
 40
1
 40
1
 40
1
 40
1
 10
5.953125
 20
110.779405
 30
0.0
 10
5.826454
 20
110.779405
 30
0.0
 10
5.715000
 20
110.518456
 30
0.0
 10
5.715000
 20
110.197321
 30
0.0
  0
SPLINE
  5
167
100
AcDbEntity
  8
0
 62
7
100
AcDbSpline
 70
8
 71
3
 72
8
 73
4
 74
0
 40
0
 40
0
 40
0
 40
0
 40
1
 40
1
 40
1
 40
1
 10
5.715000
 20
110.197321
 30
0.0
 10
5.715000
 20
109.662908
 30
0.0
 10
5.164716
 20
108.538662
 30
0.0
 10
4.753681
 20
108.239405
 30
0.0
  0
SPLINE
  5
168
100
AcDbEntity
  8
0
 62
7
100
AcDbSpline
 70
8
 71
3
 72
8
 73
4
 74
0
 40
0
 40
0
 40
0
 40
0
 40
1
 40
1
 40
1
 40
1
 10
4.753681
 20
108.239405
 30
0.0
 10
4.660172
 20
108.171327
 30
0.0
 10
4.419902
 20
107.391319
 30
0.0
 10
4.215694
 20
106.510794
 30
0.0
  0
SPLINE
  5
169
100
AcDbEntity
  8
0
 62
7
100
AcDbSpline
 70
8
 71
3
 72
8
 73
4
 74
0
 40
0
 40
0
 40
0
 40
0
 40
1
 40
1
 40
1
 40
1
 10
4.215694
 20
106.510794
 30
0.0
 10
4.011487
 20
105.630269
 30
0.0
 10
3.760939
 20
104.855769
 30
0.0
 10
3.668889
 20
104.791002
 30
0.0
  0
SPLINE
  5
16a
100
AcDbEntity
  8
0
 62
7
100
AcDbSpline
 70
8
 71
3
 72
8
 73
4
 74
0
 40
0
 40
0
 40
0
 40
0
 40
1
 40
1
 40
1
 40
1
 10
3.668889
 20
104.791002
 30
0.0
 10
3.576839
 20
104.726235
 30
0.0
 10
3.267738
 20
103.639019
 30
0.0
 10
2.980972
 20
102.374474
 30
0.0
  0
SPLINE
  5
16b
100
AcDbEntity
  8
0
 62
7
100
AcDbSpline
 70
8
 71
3
 72
8
 73
4
 74
0
 40
0
 40
0
 40
0
 40
0
 40
1
 40
1
 40
1
 40
1
 10
2.980972
 20
102.374474
 30
0.0
 10
2.694206
 20
101.109932
 30
0.0
 10
2.344445
 20
100.008938
 30
0.0
 10
2.204861
 20
99.922669
 30
0.0
  0
SPLINE
  5
16c
100
AcDbEntity
  8
0
 62
7
100
AcDbSpline
 70
8
 71
3
 72
8
 73
4
 74
0
 40
0
 40
0
 40
0
 40
0
 40
1
 40
1
 40
1
 40
1
 10
2.204861
 20
99.922669
 30
0.0
 10
2.049444
 20
99.826614
 30
0.0
 10
1.916327
 20
98.562544
 30
0.0
 10
1.852083
 20
96.668294
 30
0.0
  0
SPLINE
  5
16d
100
AcDbEntity
  8
0
 62
7
100
AcDbSpline
 70
8
 71
3
 72
8
 73
4
 74
0
 40
0
 40
0
 40
0
 40
0
 40
1
 40
1
 40
1
 40
1
 10
1.852083
 20
96.668294
 30
0.0
 10
1.750266
 20
93.666175
 30
0.0
 10
1.758229
 20
93.560615
 30
0.0
 10
2.275417
 20
93.078780
 30
0.0
  0
SPLINE
  5
16e
100
AcDbEntity
  8
0
 62
7
100
AcDbSpline
 70
8
 71
3
 72
8
 73
4
 74
0
 40
0
 40
0
 40
0
 40
0
 40
1
 40
1
 40
1
 40
1
 10
2.275417
 20
93.078780
 30
0.0
 10
2.646908
 20
92.732685
 30
0.0
 10
3.104681
 20
92.584891
 30
0.0
 10
3.783542
 20
92.584891
 30
0.0
  0
SPLINE
  5
16f
100
AcDbEntity
  8
0
 62
7
100
AcDbSpline
 70
8
 71
3
 72
8
 73
4
 74
0
 40
0
 40
0
 40
0
 40
0
 40
1
 40
1
 40
1
 40
1
 10
3.783542
 20
92.584891
 30
0.0
 10
4.319122
 20
92.584891
 30
0.0
 10
4.790832
 20
92.662982
 30
0.0
 10
4.833056
 20
92.761280
 30
0.0
  0
SPLINE
  5
170
100
AcDbEntity
  8
0
 62
7
100
AcDbSpline
 70
8
 71
3
 72
8
 73
4
 74
0
 40
0
 40
0
 40
0
 40
0
 40
1
 40
1
 40
1
 40
1
 10
4.833056
 20
92.761280
 30
0.0
 10
4.875279
 20
92.859578
 30
0.0
 10
6.255493
 20
93.187373
 30
0.0
 10
7.902222
 20
93.484474
 30
0.0
  0
SPLINE
  5
171
100
AcDbEntity
  8
0
 62
7
100
AcDbSpline
 70
8
 71
3
 72
8
 73
4
 74
0
 40
0
 40
0
 40
0
 40
0
 40
1
 40
1
 40
1
 40
1
 10
7.902222
 20
93.484474
 30
0.0
 10
9.548951
 20
93.781575
 30
0.0
 10
10.952150
 20
94.097091
 30
0.0
 10
11.015486
 20
94.190030
 30
0.0
  0
SPLINE
  5
172
100
AcDbEntity
  8
0
 62
7
100
AcDbSpline
 70
8
 71
3
 72
8
 73
4
 74
0
 40
0
 40
0
 40
0
 40
0
 40
1
 40
1
 40
1
 40
1
 10
11.015486
 20
94.190030
 30
0.0
 10
11.078822
 20
94.282968
 30
0.0
 10
12.370568
 20
94.547882
 30
0.0
 10
13.890625
 20
94.780933
 30
0.0
  0
SPLINE
  5
173
100
AcDbEntity
  8
0
 62
7
100
AcDbSpline
 70
8
 71
3
 72
8
 73
4
 74
0
 40
0
 40
0
 40
0
 40
0
 40
1
 40
1
 40
1
 40
1
 10
13.890625
 20
94.780933
 30
0.0
 10
15.410683
 20
95.013983
 30
0.0
 10
16.710256
 20
95.280347
 30
0.0
 10
16.774583
 20
95.371835
 30
0.0
  0
SPLINE
  5
174
100
AcDbEntity
  8
0
 62
7
100
AcDbSpline
 70
8
 71
3
 72
8
 73
4
 74
0
 40
0
 40
0
 40
0
 40
0
 40
1
 40
1
 40
1
 40
1
 10
16.774583
 20
95.371835
 30
0.0
 10
16.908744
 20
95.562634
 30
0.0
 10
21.589565
 20
96.500724
 30
0.0
 10
22.410208
 20
96.500724
 30
0.0
  0
SPLINE
  5
175
100
AcDbEntity
  8
0
 62
7
100
AcDbSpline
 70
8
 71
3
 72
8
 73
4
 74
0
 40
0
 40
0
 40
0
 40
0
 40
1
 40
1
 40
1
 40
1
 10
22.410208
 20
96.500724
 30
0.0
 10
22.709900
 20
96.500724
 30
0.0
 10
22.985343
 20
96.600882
 30
0.0
 10
23.027569
 20
96.721210
 30
0.0
  0
SPLINE
  5
176
100
AcDbEntity
  8
0
 62
7
100
AcDbSpline
 70
8
 71
3
 72
8
 73
4
 74
0
 40
0
 40
0
 40
0
 40
0
 40
1
 40
1
 40
1
 40
1
 10
23.027569
 20
96.721210
 30
0.0
 10
23.069793
 20
96.841539
 30
0.0
 10
24.246233
 20
97.106082
 30
0.0
 10
25.638125
 20
97.312113
 30
0.0
  0
SPLINE
  5
177
100
AcDbEntity
  8
0
 62
7
100
AcDbSpline
 70
8
 71
3
 72
8
 73
4
 74
0
 40
0
 40
0
 40
0
 40
0
 40
1
 40
1
 40
1
 40
1
 10
25.638125
 20
97.312113
 30
0.0
 10
27.030017
 20
97.518141
 30
0.0
 10
28.219129
 20
97.770913
 30
0.0
 10
28.283958
 20
97.867738
 30
0.0
  0
SPLINE
  5
178
100
AcDbEntity
  8
0
 62
7
100
AcDbSpline
 70
8
 71
3
 72
8
 73
4
 74
0
 40
0
 40
0
 40
0
 40
0
 40
1
 40
1
 40
1
 40
1
 10
28.283958
 20
97.867738
 30
0.0
 10
28.400285
 20
98.041474
 30
0.0
 10
32.516820
 20
98.663348
 30
0.0
 10
35.427708
 20
98.952530
 30
0.0
  0
SPLINE
  5
179
100
AcDbEntity
  8
0
 62
7
100
AcDbSpline
 70
8
 71
3
 72
8
 73
4
 74
0
 40
0
 40
0
 40
0
 40
0
 40
1
 40
1
 40
1
 40
1
 10
35.427708
 20
98.952530
 30
0.0
 10
36.251072
 20
99.034329
 30
0.0
 10
36.991375
 20
99.209369
 30
0.0
 10
37.076944
 20
99.340585
 30
0.0
  0
SPLINE
  5
17a
100
AcDbEntity
  8
0
 62
7
100
AcDbSpline
 70
8
 71
3
 72
8
 73
4
 74
0
 40
0
 40
0
 40
0
 40
0
 40
1
 40
1
 40
1
 40
1
 10
37.076944
 20
99.340585
 30
0.0
 10
37.166307
 20
99.477621
 30
0.0
 10
38.226100
 20
99.588786
 30
0.0
 10
39.564028
 20
99.596349
 30
0.0
  0
SPLINE
  5
17b
100
AcDbEntity
  8
0
 62
7
100
AcDbSpline
 70
8
 71
3
 72
8
 73
4
 74
0
 40
0
 40
0
 40
0
 40
0
 40
1
 40
1
 40
1
 40
1
 10
39.564028
 20
99.596349
 30
0.0
 10
41.393522
 20
99.606721
 30
0.0
 10
41.936794
 20
99.531799
 30
0.0
 10
42.104028
 20
99.261210
 30
0.0
  0
SPLINE
  5
17c
100
AcDbEntity
  8
0
 62
7
100
AcDbSpline
 70
8
 71
3
 72
8
 73
4
 74
0
 40
0
 40
0
 40
0
 40
0
 40
1
 40
1
 40
1
 40
1
 10
42.104028
 20
99.261210
 30
0.0
 10
42.282378
 20
98.972632
 30
0.0
 10
43.127998
 20
98.917252
 30
0.0
 10
47.289861
 20
98.917252
 30
0.0
  0
SPLINE
  5
17d
100
AcDbEntity
  8
0
 62
7
100
AcDbSpline
 70
8
 71
3
 72
8
 73
4
 74
0
 40
0
 40
0
 40
0
 40
0
 40
1
 40
1
 40
1
 40
1
 10
47.289861
 20
98.917252
 30
0.0
 10
50.622124
 20
98.917252
 30
0.0
 10
52.312564
 20
99.004622
 30
0.0
 10
52.422778
 20
99.173016
 30
0.0
  0
SPLINE
  5
17e
100
AcDbEntity
  8
0
 62
7
100
AcDbSpline
 70
8
 71
3
 72
8
 73
4
 74
0
 40
0
 40
0
 40
0
 40
0
 40
1
 40
1
 40
1
 40
1
 10
52.422778
 20
99.173016
 30
0.0
 10
52.513159
 20
99.311107
 30
0.0
 10
53.595439
 20
99.613150
 30
0.0
 10
54.830486
 20
99.843294
 30
0.0
  0
SPLINE
  5
17f
100
AcDbEntity
  8
0
 62
7
100
AcDbSpline
 70
8
 71
3
 72
8
 73
4
 74
0
 40
0
 40
0
 40
0
 40
0
 40
1
 40
1
 40
1
 40
1
 10
54.830486
 20
99.843294
 30
0.0
 10
56.065533
 20
100.073435
 30
0.0
 10
57.079444
 20
100.338035
 30
0.0
 10
57.079444
 20
100.434196
 30
0.0
  0
SPLINE
  5
180
100
AcDbEntity
  8
0
 62
7
100
AcDbSpline
 70
8
 71
3
 72
8
 73
4
 74
0
 40
0
 40
0
 40
0
 40
0
 40
1
 40
1
 40
1
 40
1
 10
57.079444
 20
100.434196
 30
0.0
 10
57.079444
 20
100.530355
 30
0.0
 10
57.909336
 20
100.788512
 30
0.0
 10
58.922708
 20
101.007460
 30
0.0
  0
SPLINE
  5
181
100
AcDbEntity
  8
0
 62
7
100
AcDbSpline
 70
8
 71
3
 72
8
 73
4
 74
0
 40
0
 40
0
 40
0
 40
0
 40
1
 40
1
 40
1
 40
1
 10
58.922708
 20
101.007460
 30
0.0
 10
59.936078
 20
101.226414
 30
0.0
 10
60.765972
 20
101.480383
 30
0.0
 10
60.765972
 20
101.571905
 30
0.0
  0
SPLINE
  5
182
100
AcDbEntity
  8
0
 62
7
100
AcDbSpline
 70
8
 71
3
 72
8
 73
4
 74
0
 40
0
 40
0
 40
0
 40
0
 40
1
 40
1
 40
1
 40
1
 10
60.765972
 20
101.571905
 30
0.0
 10
60.765972
 20
101.663432
 30
0.0
 10
61.698497
 20
101.974723
 30
0.0
 10
62.838542
 20
102.268641
 30
0.0
  0
SPLINE
  5
183
100
AcDbEntity
  8
0
 62
7
100
AcDbSpline
 70
8
 71
3
 72
8
 73
4
 74
0
 40
0
 40
0
 40
0
 40
0
 40
1
 40
1
 40
1
 40
1
 10
62.838542
 20
102.268641
 30
0.0
 10
63.978584
 20
102.562556
 30
0.0
 10
64.911111
 20
102.874840
 30
0.0
 10
64.911111
 20
102.956558
 30
0.0
  0
SPLINE
  5
184
100
AcDbEntity
  8
0
 62
7
100
AcDbSpline
 70
8
 71
3
 72
8
 73
4
 74
0
 40
0
 40
0
 40
0
 40
0
 40
1
 40
1
 40
1
 40
1
 10
64.911111
 20
102.956558
 30
0.0
 10
64.911111
 20
103.038278
 30
0.0
 10
65.689686
 20
103.293246
 30
0.0
 10
66.639722
 20
103.529821
 30
0.0
  0
SPLINE
  5
185
100
AcDbEntity
  8
0
 62
7
100
AcDbSpline
 70
8
 71
3
 72
8
 73
4
 74
0
 40
0
 40
0
 40
0
 40
0
 40
1
 40
1
 40
1
 40
1
 10
66.639722
 20
103.529821
 30
0.0
 10
67.589758
 20
103.766397
 30
0.0
 10
68.359514
 20
104.034189
 30
0.0
 10
68.359514
 20
104.120724
 30
0.0
  0
SPLINE
  5
186
100
AcDbEntity
  8
0
 62
7
100
AcDbSpline
 70
8
 71
3
 72
8
 73
4
 74
0
 40
0
 40
0
 40
0
 40
0
 40
1
 40
1
 40
1
 40
1
 10
68.359514
 20
104.120724
 30
0.0
 10
68.359514
 20
104.365442
 30
0.0
 10
69.333821
 20
104.556777
 30
0.0
 10
69.876458
 20
104.420585
 30
0.0
  0
SPLINE
  5
187
100
AcDbEntity
  8
0
 62
7
100
AcDbSpline
 70
8
 71
3
 72
8
 73
4
 74
0
 40
0
 40
0
 40
0
 40
0
 40
1
 40
1
 40
1
 40
1
 10
69.876458
 20
104.420585
 30
0.0
 10
70.158785
 20
104.349725
 30
0.0
 10
70.490918
 20
103.969129
 30
0.0
 10
70.670208
 20
103.512183
 30
0.0
  0
SPLINE
  5
188
100
AcDbEntity
  8
0
 62
7
100
AcDbSpline
 70
8
 71
3
 72
8
 73
4
 74
0
 40
0
 40
0
 40
0
 40
0
 40
1
 40
1
 40
1
 40
1
 10
70.670208
 20
103.512183
 30
0.0
 10
70.840775
 20
103.077481
 30
0.0
 10
71.069886
 20
102.718433
 30
0.0
 10
71.172917
 20
102.718433
 30
0.0
  0
SPLINE
  5
189
100
AcDbEntity
  8
0
 62
7
100
AcDbSpline
 70
8
 71
3
 72
8
 73
4
 74
0
 40
0
 40
0
 40
0
 40
0
 40
1
 40
1
 40
1
 40
1
 10
71.172917
 20
102.718433
 30
0.0
 10
71.442318
 20
102.718433
 30
0.0
 10
71.402208
 20
101.848737
 30
0.0
 10
71.128819
 20
101.757113
 30
0.0
  0
SPLINE
  5
18a
100
AcDbEntity
  8
0
 62
7
100
AcDbSpline
 70
8
 71
3
 72
8
 73
4
 74
0
 40
0
 40
0
 40
0
 40
0
 40
1
 40
1
 40
1
 40
1
 10
71.128819
 20
101.757113
 30
0.0
 10
71.002827
 20
101.714890
 30
0.0
 10
70.718652
 20
100.856666
 30
0.0
 10
70.502639
 20
99.843294
 30
0.0
  0
SPLINE
  5
18b
100
AcDbEntity
  8
0
 62
7
100
AcDbSpline
 70
8
 71
3
 72
8
 73
4
 74
0
 40
0
 40
0
 40
0
 40
0
 40
1
 40
1
 40
1
 40
1
 10
70.502639
 20
99.843294
 30
0.0
 10
70.286626
 20
98.829921
 30
0.0
 10
70.000656
 20
97.922879
 30
0.0
 10
69.867639
 20
97.832460
 30
0.0
  0
SPLINE
  5
18c
100
AcDbEntity
  8
0
 62
7
100
AcDbSpline
 70
8
 71
3
 72
8
 73
4
 74
0
 40
0
 40
0
 40
0
 40
0
 40
1
 40
1
 40
1
 40
1
 10
69.867639
 20
97.832460
 30
0.0
 10
69.543707
 20
97.612273
 30
0.0
 10
69.615369
 20
94.582804
 30
0.0
 10
69.947014
 20
94.472252
 30
0.0
  0
SPLINE
  5
18d
100
AcDbEntity
  8
0
 62
7
100
AcDbSpline
 70
8
 71
3
 72
8
 73
4
 74
0
 40
0
 40
0
 40
0
 40
0
 40
1
 40
1
 40
1
 40
1
 10
69.947014
 20
94.472252
 30
0.0
 10
70.087589
 20
94.425397
 30
0.0
 10
70.202778
 20
94.190267
 30
0.0
 10
70.202778
 20
93.951905
 30
0.0
  0
SPLINE
  5
18e
100
AcDbEntity
  8
0
 62
7
100
AcDbSpline
 70
8
 71
3
 72
8
 73
4
 74
0
 40
0
 40
0
 40
0
 40
0
 40
1
 40
1
 40
1
 40
1
 10
70.202778
 20
93.951905
 30
0.0
 10
70.202778
 20
93.427155
 30
0.0
 10
70.885287
 20
91.361300
 30
0.0
 10
71.111181
 20
91.200238
 30
0.0
  0
SPLINE
  5
18f
100
AcDbEntity
  8
0
 62
7
100
AcDbSpline
 70
8
 71
3
 72
8
 73
4
 74
0
 40
0
 40
0
 40
0
 40
0
 40
1
 40
1
 40
1
 40
1
 10
71.111181
 20
91.200238
 30
0.0
 10
71.200010
 20
91.136902
 30
0.0
 10
71.516093
 20
90.572415
 30
0.0
 10
71.816736
 20
89.939058
 30
0.0
  0
SPLINE
  5
190
100
AcDbEntity
  8
0
 62
7
100
AcDbSpline
 70
8
 71
3
 72
8
 73
4
 74
0
 40
0
 40
0
 40
0
 40
0
 40
1
 40
1
 40
1
 40
1
 10
71.816736
 20
89.939058
 30
0.0
 10
72.117376
 20
89.305700
 30
0.0
 10
72.511178
 20
88.671270
 30
0.0
 10
72.689861
 20
88.536766
 30
0.0
  0
SPLINE
  5
191
100
AcDbEntity
  8
0
 62
7
100
AcDbSpline
 70
8
 71
3
 72
8
 73
4
 74
0
 40
0
 40
0
 40
0
 40
0
 40
1
 40
1
 40
1
 40
1
 10
72.689861
 20
88.536766
 30
0.0
 10
72.941013
 20
88.347717
 30
0.0
 10
72.999645
 20
87.790028
 30
0.0
 10
72.936806
 20
86.058502
 30
0.0
  0
SPLINE
  5
192
100
AcDbEntity
  8
0
 62
7
100
AcDbSpline
 70
8
 71
3
 72
8
 73
4
 74
0
 40
0
 40
0
 40
0
 40
0
 40
1
 40
1
 40
1
 40
1
 10
72.936806
 20
86.058502
 30
0.0
 10
72.892099
 20
84.826540
 30
0.0
 10
72.743757
 20
83.741048
 30
0.0
 10
72.610486
 20
83.650794
 30
0.0
  0
SPLINE
  5
193
100
AcDbEntity
  8
0
 62
7
100
AcDbSpline
 70
8
 71
3
 72
8
 73
4
 74
0
 40
0
 40
0
 40
0
 40
0
 40
1
 40
1
 40
1
 40
1
 10
72.610486
 20
83.650794
 30
0.0
 10
72.477212
 20
83.560539
 30
0.0
 10
72.182493
 20
83.092767
 30
0.0
 10
71.957847
 20
82.610099
 30
0.0
  0
SPLINE
  5
194
100
AcDbEntity
  8
0
 62
7
100
AcDbSpline
 70
8
 71
3
 72
8
 73
4
 74
0
 40
0
 40
0
 40
0
 40
0
 40
1
 40
1
 40
1
 40
1
 10
71.957847
 20
82.610099
 30
0.0
 10
71.733198
 20
82.127431
 30
0.0
 10
71.415656
 20
81.679576
 30
0.0
 10
71.243472
 20
81.613502
 30
0.0
  0
SPLINE
  5
195
100
AcDbEntity
  8
0
 62
7
100
AcDbSpline
 70
8
 71
3
 72
8
 73
4
 74
0
 40
0
 40
0
 40
0
 40
0
 40
1
 40
1
 40
1
 40
1
 10
71.243472
 20
81.613502
 30
0.0
 10
71.071291
 20
81.547431
 30
0.0
 10
70.741385
 20
81.034952
 30
0.0
 10
70.511458
 20
80.475794
 30
0.0
  0
SPLINE
  5
196
100
AcDbEntity
  8
0
 62
7
100
AcDbSpline
 70
8
 71
3
 72
8
 73
4
 74
0
 40
0
 40
0
 40
0
 40
0
 40
1
 40
1
 40
1
 40
1
 10
70.511458
 20
80.475794
 30
0.0
 10
70.281532
 20
79.916630
 30
0.0
 10
70.022658
 20
79.462122
 30
0.0
 10
69.938194
 20
79.461558
 30
0.0
  0
SPLINE
  5
197
100
AcDbEntity
  8
0
 62
7
100
AcDbSpline
 70
8
 71
3
 72
8
 73
4
 74
0
 40
0
 40
0
 40
0
 40
0
 40
1
 40
1
 40
1
 40
1
 10
69.938194
 20
79.461558
 30
0.0
 10
69.853734
 20
79.461083
 30
0.0
 10
69.559986
 20
78.734299
 30
0.0
 10
69.285556
 20
77.847599
 30
0.0
  0
SPLINE
  5
198
100
AcDbEntity
  8
0
 62
7
100
AcDbSpline
 70
8
 71
3
 72
8
 73
4
 74
0
 40
0
 40
0
 40
0
 40
0
 40
1
 40
1
 40
1
 40
1
 10
69.285556
 20
77.847599
 30
0.0
 10
69.011125
 20
76.960897
 30
0.0
 10
68.712170
 20
76.233641
 30
0.0
 10
68.624097
 20
76.233641
 30
0.0
  0
SPLINE
  5
199
100
AcDbEntity
  8
0
 62
7
100
AcDbSpline
 70
8
 71
3
 72
8
 73
4
 74
0
 40
0
 40
0
 40
0
 40
0
 40
1
 40
1
 40
1
 40
1
 10
68.624097
 20
76.233641
 30
0.0
 10
68.536024
 20
76.233641
 30
0.0
 10
68.279256
 20
75.506382
 30
0.0
 10
68.050833
 20
74.619683
 30
0.0
  0
SPLINE
  5
19a
100
AcDbEntity
  8
0
 62
7
100
AcDbSpline
 70
8
 71
3
 72
8
 73
4
 74
0
 40
0
 40
0
 40
0
 40
0
 40
1
 40
1
 40
1
 40
1
 10
68.050833
 20
74.619683
 30
0.0
 10
67.822414
 20
73.732983
 30
0.0
 10
67.555048
 20
73.005724
 30
0.0
 10
67.459931
 20
73.005724
 30
0.0
  0
SPLINE
  5
19b
100
AcDbEntity
  8
0
 62
7
100
AcDbSpline
 70
8
 71
3
 72
8
 73
4
 74
0
 40
0
 40
0
 40
0
 40
0
 40
1
 40
1
 40
1
 40
1
 10
67.459931
 20
73.005724
 30
0.0
 10
67.364810
 20
73.005724
 30
0.0
 10
67.094261
 20
72.378045
 30
0.0
 10
66.851389
 20
71.603433
 30
0.0
  0
SPLINE
  5
19c
100
AcDbEntity
  8
0
 62
7
100
AcDbSpline
 70
8
 71
3
 72
8
 73
4
 74
0
 40
0
 40
0
 40
0
 40
0
 40
1
 40
1
 40
1
 40
1
 10
66.851389
 20
71.603433
 30
0.0
 10
66.608520
 20
70.828817
 30
0.0
 10
66.277716
 20
70.139972
 30
0.0
 10
66.119375
 20
70.077669
 30
0.0
  0
SPLINE
  5
19d
100
AcDbEntity
  8
0
 62
7
100
AcDbSpline
 70
8
 71
3
 72
8
 73
4
 74
0
 40
0
 40
0
 40
0
 40
0
 40
1
 40
1
 40
1
 40
1
 10
66.119375
 20
70.077669
 30
0.0
 10
65.961037
 20
70.015368
 30
0.0
 10
65.828333
 20
69.858783
 30
0.0
 10
65.828333
 20
69.724891
 30
0.0
  0
SPLINE
  5
19e
100
AcDbEntity
  8
0
 62
7
100
AcDbSpline
 70
8
 71
3
 72
8
 73
4
 74
0
 40
0
 40
0
 40
0
 40
0
 40
1
 40
1
 40
1
 40
1
 10
65.828333
 20
69.724891
 30
0.0
 10
65.828333
 20
69.349676
 30
0.0
 10
65.067843
 20
67.714058
 30
0.0
 10
64.893472
 20
67.714058
 30
0.0
  0
SPLINE
  5
19f
100
AcDbEntity
  8
0
 62
7
100
AcDbSpline
 70
8
 71
3
 72
8
 73
4
 74
0
 40
0
 40
0
 40
0
 40
0
 40
1
 40
1
 40
1
 40
1
 10
64.893472
 20
67.714058
 30
0.0
 10
64.808388
 20
67.714058
 30
0.0
 10
64.549734
 20
67.221453
 30
0.0
 10
64.320208
 20
66.620446
 30
0.0
  0
SPLINE
  5
1a0
100
AcDbEntity
  8
0
 62
7
100
AcDbSpline
 70
8
 71
3
 72
8
 73
4
 74
0
 40
0
 40
0
 40
0
 40
0
 40
1
 40
1
 40
1
 40
1
 10
64.320208
 20
66.620446
 30
0.0
 10
64.090680
 20
66.019434
 30
0.0
 10
63.674300
 20
65.341492
 30
0.0
 10
63.394167
 20
65.121141
 30
0.0
  0
SPLINE
  5
1a1
100
AcDbEntity
  8
0
 62
7
100
AcDbSpline
 70
8
 71
3
 72
8
 73
4
 74
0
 40
0
 40
0
 40
0
 40
0
 40
1
 40
1
 40
1
 40
1
 10
63.394167
 20
65.121141
 30
0.0
 10
63.114036
 20
64.900787
 30
0.0
 10
62.821510
 20
64.460862
 30
0.0
 10
62.741528
 20
64.142183
 30
0.0
  0
SPLINE
  5
1a2
100
AcDbEntity
  8
0
 62
7
100
AcDbSpline
 70
8
 71
3
 72
8
 73
4
 74
0
 40
0
 40
0
 40
0
 40
0
 40
1
 40
1
 40
1
 40
1
 10
62.741528
 20
64.142183
 30
0.0
 10
62.661543
 20
63.823500
 30
0.0
 10
62.495368
 20
63.568919
 30
0.0
 10
62.371111
 20
63.568919
 30
0.0
  0
SPLINE
  5
1a3
100
AcDbEntity
  8
0
 62
7
100
AcDbSpline
 70
8
 71
3
 72
8
 73
4
 74
0
 40
0
 40
0
 40
0
 40
0
 40
1
 40
1
 40
1
 40
1
 10
62.371111
 20
63.568919
 30
0.0
 10
62.246854
 20
63.568919
 30
0.0
 10
62.141806
 20
63.303514
 30
0.0
 10
62.141806
 20
62.986835
 30
0.0
  0
SPLINE
  5
1a4
100
AcDbEntity
  8
0
 62
7
100
AcDbSpline
 70
8
 71
3
 72
8
 73
4
 74
0
 40
0
 40
0
 40
0
 40
0
 40
1
 40
1
 40
1
 40
1
 10
62.141806
 20
62.986835
 30
0.0
 10
62.141806
 20
62.670157
 30
0.0
 10
62.185844
 20
62.413571
 30
0.0
 10
62.238819
 20
62.413571
 30
0.0
  0
SPLINE
  5
1a5
100
AcDbEntity
  8
0
 62
7
100
AcDbSpline
 70
8
 71
3
 72
8
 73
4
 74
0
 40
0
 40
0
 40
0
 40
0
 40
1
 40
1
 40
1
 40
1
 10
62.238819
 20
62.413571
 30
0.0
 10
62.291795
 20
62.413571
 30
0.0
 10
62.487229
 20
62.360610
 30
0.0
 10
62.670972
 20
62.290099
 30
0.0
  0
SPLINE
  5
1a6
100
AcDbEntity
  8
0
 62
7
100
AcDbSpline
 70
8
 71
3
 72
8
 73
4
 74
0
 40
0
 40
0
 40
0
 40
0
 40
1
 40
1
 40
1
 40
1
 10
62.670972
 20
62.290099
 30
0.0
 10
63.009266
 20
62.160285
 30
0.0
 10
64.681806
 20
63.546205
 30
0.0
 10
64.681806
 20
63.956974
 30
0.0
  0
SPLINE
  5
1a7
100
AcDbEntity
  8
0
 62
7
100
AcDbSpline
 70
8
 71
3
 72
8
 73
4
 74
0
 40
0
 40
0
 40
0
 40
0
 40
1
 40
1
 40
1
 40
1
 10
64.681806
 20
63.956974
 30
0.0
 10
64.681806
 20
64.076470
 30
0.0
 10
64.866438
 20
64.371683
 30
0.0
 10
65.096319
 20
64.618433
 30
0.0
  0
SPLINE
  5
1a8
100
AcDbEntity
  8
0
 62
7
100
AcDbSpline
 70
8
 71
3
 72
8
 73
4
 74
0
 40
0
 40
0
 40
0
 40
0
 40
1
 40
1
 40
1
 40
1
 10
65.096319
 20
64.618433
 30
0.0
 10
65.326204
 20
64.865182
 30
0.0
 10
65.717358
 20
65.832445
 30
0.0
 10
65.960625
 20
66.770377
 30
0.0
  0
SPLINE
  5
1a9
100
AcDbEntity
  8
0
 62
7
100
AcDbSpline
 70
8
 71
3
 72
8
 73
4
 74
0
 40
0
 40
0
 40
0
 40
0
 40
1
 40
1
 40
1
 40
1
 10
65.960625
 20
66.770377
 30
0.0
 10
66.203895
 20
67.708309
 30
0.0
 10
66.509702
 20
68.589452
 30
0.0
 10
66.648542
 20
68.728294
 30
0.0
  0
SPLINE
  5
1aa
100
AcDbEntity
  8
0
 62
7
100
AcDbSpline
 70
8
 71
3
 72
8
 73
4
 74
0
 40
0
 40
0
 40
0
 40
0
 40
1
 40
1
 40
1
 40
1
 10
66.648542
 20
68.728294
 30
0.0
 10
66.787384
 20
68.867136
 30
0.0
 10
66.976989
 20
69.293921
 30
0.0
 10
67.071875
 20
69.671974
 30
0.0
  0
SPLINE
  5
1ab
100
AcDbEntity
  8
0
 62
7
100
AcDbSpline
 70
8
 71
3
 72
8
 73
4
 74
0
 40
0
 40
0
 40
0
 40
0
 40
1
 40
1
 40
1
 40
1
 10
67.071875
 20
69.671974
 30
0.0
 10
67.420899
 20
71.062602
 30
0.0
 10
67.982451
 20
71.265144
 30
0.0
 10
68.959236
 20
70.359891
 30
0.0
  0
SPLINE
  5
1ac
100
AcDbEntity
  8
0
 62
7
100
AcDbSpline
 70
8
 71
3
 72
8
 73
4
 74
0
 40
0
 40
0
 40
0
 40
0
 40
1
 40
1
 40
1
 40
1
 10
68.959236
 20
70.359891
 30
0.0
 10
69.300939
 20
70.043212
 30
0.0
 10
69.720293
 20
69.786627
 30
0.0
 10
69.885278
 20
69.786627
 30
0.0
  0
SPLINE
  5
1ad
100
AcDbEntity
  8
0
 62
7
100
AcDbSpline
 70
8
 71
3
 72
8
 73
4
 74
0
 40
0
 40
0
 40
0
 40
0
 40
1
 40
1
 40
1
 40
1
 10
69.885278
 20
69.786627
 30
0.0
 10
70.265044
 20
69.786627
 30
0.0
 10
71.358125
 20
68.784953
 30
0.0
 10
71.358125
 20
68.437252
 30
0.0
  0
SPLINE
  5
1ae
100
AcDbEntity
  8
0
 62
7
100
AcDbSpline
 70
8
 71
3
 72
8
 73
4
 74
0
 40
0
 40
0
 40
0
 40
0
 40
1
 40
1
 40
1
 40
1
 10
71.358125
 20
68.437252
 30
0.0
 10
71.358125
 20
68.293440
 30
0.0
 10
71.277412
 20
68.172669
 30
0.0
 10
71.181736
 20
68.172669
 30
0.0
  0
SPLINE
  5
1af
100
AcDbEntity
  8
0
 62
7
100
AcDbSpline
 70
8
 71
3
 72
8
 73
4
 74
0
 40
0
 40
0
 40
0
 40
0
 40
1
 40
1
 40
1
 40
1
 10
71.181736
 20
68.172669
 30
0.0
 10
70.919710
 20
68.172669
 30
0.0
 10
70.389256
 20
66.550478
 30
0.0
 10
70.352708
 20
65.641488
 30
0.0
  0
SPLINE
  5
1b0
100
AcDbEntity
  8
0
 62
7
100
AcDbSpline
 70
8
 71
3
 72
8
 73
4
 74
0
 40
0
 40
0
 40
0
 40
0
 40
1
 40
1
 40
1
 40
1
 10
70.352708
 20
65.641488
 30
0.0
 10
70.326131
 20
64.980411
 30
0.0
 10
70.429312
 20
64.791934
 30
0.0
 10
70.952431
 20
64.539058
 30
0.0
  0
SPLINE
  5
1b1
100
AcDbEntity
  8
0
 62
7
100
AcDbSpline
 70
8
 71
3
 72
8
 73
4
 74
0
 40
0
 40
0
 40
0
 40
0
 40
1
 40
1
 40
1
 40
1
 10
70.952431
 20
64.539058
 30
0.0
 10
71.300777
 20
64.370667
 30
0.0
 10
71.587431
 20
64.129652
 30
0.0
 10
71.587431
 20
64.009891
 30
0.0
  0
SPLINE
  5
1b2
100
AcDbEntity
  8
0
 62
7
100
AcDbSpline
 70
8
 71
3
 72
8
 73
4
 74
0
 40
0
 40
0
 40
0
 40
0
 40
1
 40
1
 40
1
 40
1
 10
71.587431
 20
64.009891
 30
0.0
 10
71.587431
 20
63.451794
 30
0.0
 10
72.003516
 20
63.891530
 30
0.0
 10
72.284167
 20
64.741905
 30
0.0
  0
SPLINE
  5
1b3
100
AcDbEntity
  8
0
 62
7
100
AcDbSpline
 70
8
 71
3
 72
8
 73
4
 74
0
 40
0
 40
0
 40
0
 40
0
 40
1
 40
1
 40
1
 40
1
 10
72.284167
 20
64.741905
 30
0.0
 10
72.455828
 20
65.262054
 30
0.0
 10
72.736239
 20
65.736809
 30
0.0
 10
72.901528
 20
65.800238
 30
0.0
  0
SPLINE
  5
1b4
100
AcDbEntity
  8
0
 62
7
100
AcDbSpline
 70
8
 71
3
 72
8
 73
4
 74
0
 40
0
 40
0
 40
0
 40
0
 40
1
 40
1
 40
1
 40
1
 10
72.901528
 20
65.800238
 30
0.0
 10
73.066817
 20
65.863665
 30
0.0
 10
73.201389
 20
66.208083
 30
0.0
 10
73.201389
 20
66.558710
 30
0.0
  0
SPLINE
  5
1b5
100
AcDbEntity
  8
0
 62
7
100
AcDbSpline
 70
8
 71
3
 72
8
 73
4
 74
0
 40
0
 40
0
 40
0
 40
0
 40
1
 40
1
 40
1
 40
1
 10
73.201389
 20
66.558710
 30
0.0
 10
73.201389
 20
67.787396
 30
0.0
 10
73.491612
 20
68.694444
 30
0.0
 10
73.924583
 20
68.807669
 30
0.0
  0
SPLINE
  5
1b6
100
AcDbEntity
  8
0
 62
7
100
AcDbSpline
 70
8
 71
3
 72
8
 73
4
 74
0
 40
0
 40
0
 40
0
 40
0
 40
1
 40
1
 40
1
 40
1
 10
73.924583
 20
68.807669
 30
0.0
 10
74.158715
 20
68.868897
 30
0.0
 10
74.347917
 20
69.004451
 30
0.0
 10
74.347917
 20
69.116349
 30
0.0
  0
SPLINE
  5
1b7
100
AcDbEntity
  8
0
 62
7
100
AcDbSpline
 70
8
 71
3
 72
8
 73
4
 74
0
 40
0
 40
0
 40
0
 40
0
 40
1
 40
1
 40
1
 40
1
 10
74.347917
 20
69.116349
 30
0.0
 10
74.347917
 20
69.228245
 30
0.0
 10
74.593972
 20
69.328016
 30
0.0
 10
74.894722
 20
69.328016
 30
0.0
  0
SPLINE
  5
1b8
100
AcDbEntity
  8
0
 62
7
100
AcDbSpline
 70
8
 71
3
 72
8
 73
4
 74
0
 40
0
 40
0
 40
0
 40
0
 40
1
 40
1
 40
1
 40
1
 10
74.894722
 20
69.328016
 30
0.0
 10
75.827551
 20
69.328016
 30
0.0
 10
77.325982
 20
69.969388
 30
0.0
 10
77.955069
 20
70.642113
 30
0.0
  0
SPLINE
  5
1b9
100
AcDbEntity
  8
0
 62
7
100
AcDbSpline
 70
8
 71
3
 72
8
 73
4
 74
0
 40
0
 40
0
 40
0
 40
0
 40
1
 40
1
 40
1
 40
1
 10
77.955069
 20
70.642113
 30
0.0
 10
78.554667
 20
71.283305
 30
0.0
 10
78.554422
 20
71.293276
 30
0.0
 10
78.440139
 20
74.363919
 30
0.0
  0
SPLINE
  5
1ba
100
AcDbEntity
  8
0
 62
7
100
AcDbSpline
 70
8
 71
3
 72
8
 73
4
 74
0
 40
0
 40
0
 40
0
 40
0
 40
1
 40
1
 40
1
 40
1
 10
78.440139
 20
74.363919
 30
0.0
 10
78.377130
 20
76.056933
 30
0.0
 10
78.226816
 20
77.502631
 30
0.0
 10
78.105000
 20
77.583016
 30
0.0
  0
SPLINE
  5
1bb
100
AcDbEntity
  8
0
 62
7
100
AcDbSpline
 70
8
 71
3
 72
8
 73
4
 74
0
 40
0
 40
0
 40
0
 40
0
 40
1
 40
1
 40
1
 40
1
 10
78.105000
 20
77.583016
 30
0.0
 10
77.666774
 20
77.872192
 30
0.0
 10
77.293171
 20
80.571823
 30
0.0
 10
77.575833
 20
81.428294
 30
0.0
  0
SPLINE
  5
1bc
100
AcDbEntity
  8
0
 62
7
100
AcDbSpline
 70
8
 71
3
 72
8
 73
4
 74
0
 40
0
 40
0
 40
0
 40
0
 40
1
 40
1
 40
1
 40
1
 10
77.575833
 20
81.428294
 30
0.0
 10
77.719990
 20
81.865095
 30
0.0
 10
77.923373
 20
82.222044
 30
0.0
 10
78.025625
 20
82.222044
 30
0.0
  0
SPLINE
  5
1bd
100
AcDbEntity
  8
0
 62
7
100
AcDbSpline
 70
8
 71
3
 72
8
 73
4
 74
0
 40
0
 40
0
 40
0
 40
0
 40
1
 40
1
 40
1
 40
1
 10
78.025625
 20
82.222044
 30
0.0
 10
78.127877
 20
82.222044
 30
0.0
 10
78.288430
 20
82.807203
 30
0.0
 10
78.378403
 20
83.527321
 30
0.0
  0
SPLINE
  5
1be
100
AcDbEntity
  8
0
 62
7
100
AcDbSpline
 70
8
 71
3
 72
8
 73
4
 74
0
 40
0
 40
0
 40
0
 40
0
 40
1
 40
1
 40
1
 40
1
 10
78.378403
 20
83.527321
 30
0.0
 10
78.637457
 20
85.600715
 30
0.0
 10
79.168066
 20
86.527107
 30
0.0
 10
80.406875
 20
87.063919
 30
0.0
  0
SPLINE
  5
1bf
100
AcDbEntity
  8
0
 62
7
100
AcDbSpline
 70
8
 71
3
 72
8
 73
4
 74
0
 40
0
 40
0
 40
0
 40
0
 40
1
 40
1
 40
1
 40
1
 10
80.406875
 20
87.063919
 30
0.0
 10
81.203633
 20
87.409172
 30
0.0
 10
81.804205
 20
87.824801
 30
0.0
 10
82.135486
 20
88.263363
 30
0.0
  0
SPLINE
  5
1c0
100
AcDbEntity
  8
0
 62
7
100
AcDbSpline
 70
8
 71
3
 72
8
 73
4
 74
0
 40
0
 40
0
 40
0
 40
0
 40
1
 40
1
 40
1
 40
1
 10
82.135486
 20
88.263363
 30
0.0
 10
82.302934
 20
88.485037
 30
0.0
 10
82.554482
 20
88.669058
 30
0.0
 10
82.691111
 20
88.669058
 30
0.0
  0
SPLINE
  5
1c1
100
AcDbEntity
  8
0
 62
7
100
AcDbSpline
 70
8
 71
3
 72
8
 73
4
 74
0
 40
0
 40
0
 40
0
 40
0
 40
1
 40
1
 40
1
 40
1
 10
82.691111
 20
88.669058
 30
0.0
 10
82.827743
 20
88.669058
 30
0.0
 10
83.179595
 20
88.904394
 30
0.0
 10
83.476042
 20
89.189405
 30
0.0
  0
SPLINE
  5
1c2
100
AcDbEntity
  8
0
 62
7
100
AcDbSpline
 70
8
 71
3
 72
8
 73
4
 74
0
 40
0
 40
0
 40
0
 40
0
 40
1
 40
1
 40
1
 40
1
 10
83.476042
 20
89.189405
 30
0.0
 10
85.657786
 20
91.287013
 30
0.0
 10
85.636806
 20
91.313897
 30
0.0
 10
85.636806
 20
86.261349
 30
0.0
  0
SPLINE
  5
1c3
100
AcDbEntity
  8
0
 62
7
100
AcDbSpline
 70
8
 71
3
 72
8
 73
4
 74
0
 40
0
 40
0
 40
0
 40
0
 40
1
 40
1
 40
1
 40
1
 10
85.636806
 20
86.261349
 30
0.0
 10
85.636806
 20
81.488534
 30
0.0
 10
85.225924
 20
73.878454
 30
0.0
 10
84.957708
 20
73.702460
 30
0.0
  0
SPLINE
  5
1c4
100
AcDbEntity
  8
0
 62
7
100
AcDbSpline
 70
8
 71
3
 72
8
 73
4
 74
0
 40
0
 40
0
 40
0
 40
0
 40
1
 40
1
 40
1
 40
1
 10
84.957708
 20
73.702460
 30
0.0
 10
84.861186
 20
73.639124
 30
0.0
 10
84.720839
 20
72.235926
 30
0.0
 10
84.649028
 20
70.589196
 30
0.0
  0
SPLINE
  5
1c5
100
AcDbEntity
  8
0
 62
7
100
AcDbSpline
 70
8
 71
3
 72
8
 73
4
 74
0
 40
0
 40
0
 40
0
 40
0
 40
1
 40
1
 40
1
 40
1
 10
84.649028
 20
70.589196
 30
0.0
 10
84.367647
 20
64.136713
 30
0.0
 10
83.930775
 20
57.460749
 30
0.0
 10
83.784722
 20
57.351210
 30
0.0
  0
SPLINE
  5
1c6
100
AcDbEntity
  8
0
 62
7
100
AcDbSpline
 70
8
 71
3
 72
8
 73
4
 74
0
 40
0
 40
0
 40
0
 40
0
 40
1
 40
1
 40
1
 40
1
 10
83.784722
 20
57.351210
 30
0.0
 10
83.700270
 20
57.287877
 30
0.0
 10
83.564431
 20
56.141259
 30
0.0
 10
83.484861
 20
54.811210
 30
0.0
  0
SPLINE
  5
1c7
100
AcDbEntity
  8
0
 62
7
100
AcDbSpline
 70
8
 71
3
 72
8
 73
4
 74
0
 40
0
 40
0
 40
0
 40
0
 40
1
 40
1
 40
1
 40
1
 10
83.484861
 20
54.811210
 30
0.0
 10
83.309161
 20
51.874200
 30
0.0
 10
82.654338
 20
46.908934
 30
0.0
 10
82.417708
 20
46.750238
 30
0.0
  0
SPLINE
  5
1c8
100
AcDbEntity
  8
0
 62
7
100
AcDbSpline
 70
8
 71
3
 72
8
 73
4
 74
0
 40
0
 40
0
 40
0
 40
0
 40
1
 40
1
 40
1
 40
1
 10
82.417708
 20
46.750238
 30
0.0
 10
82.323271
 20
46.686905
 30
0.0
 10
82.068780
 20
45.239009
 30
0.0
 10
81.853264
 20
43.531141
 30
0.0
  0
SPLINE
  5
1c9
100
AcDbEntity
  8
0
 62
7
100
AcDbSpline
 70
8
 71
3
 72
8
 73
4
 74
0
 40
0
 40
0
 40
0
 40
0
 40
1
 40
1
 40
1
 40
1
 10
81.853264
 20
43.531141
 30
0.0
 10
81.637748
 20
41.823276
 30
0.0
 10
81.378490
 20
40.377578
 30
0.0
 10
81.280000
 20
40.312044
 30
0.0
  0
SPLINE
  5
1ca
100
AcDbEntity
  8
0
 62
7
100
AcDbSpline
 70
8
 71
3
 72
8
 73
4
 74
0
 40
0
 40
0
 40
0
 40
0
 40
1
 40
1
 40
1
 40
1
 10
81.280000
 20
40.312044
 30
0.0
 10
81.181507
 20
40.246509
 30
0.0
 10
80.854691
 20
38.456224
 30
0.0
 10
80.556806
 20
36.334474
 30
0.0
  0
SPLINE
  5
1cb
100
AcDbEntity
  8
0
 62
7
100
AcDbSpline
 70
8
 71
3
 72
8
 73
4
 74
0
 40
0
 40
0
 40
0
 40
0
 40
1
 40
1
 40
1
 40
1
 10
80.556806
 20
36.334474
 30
0.0
 10
80.258923
 20
34.212728
 30
0.0
 10
79.935383
 20
32.471558
 30
0.0
 10
79.833611
 20
32.471558
 30
0.0
  0
SPLINE
  5
1cc
100
AcDbEntity
  8
0
 62
7
100
AcDbSpline
 70
8
 71
3
 72
8
 73
4
 74
0
 40
0
 40
0
 40
0
 40
0
 40
1
 40
1
 40
1
 40
1
 10
79.833611
 20
32.471558
 30
0.0
 10
79.731836
 20
32.471558
 30
0.0
 10
79.648174
 20
32.133588
 30
0.0
 10
79.648403
 20
31.721905
 30
0.0
  0
SPLINE
  5
1cd
100
AcDbEntity
  8
0
 62
7
100
AcDbSpline
 70
8
 71
3
 72
8
 73
4
 74
0
 40
0
 40
0
 40
0
 40
0
 40
1
 40
1
 40
1
 40
1
 10
79.648403
 20
31.721905
 30
0.0
 10
79.649010
 20
30.757323
 30
0.0
 10
78.943245
 20
26.863181
 30
0.0
 10
78.740000
 20
26.712460
 30
0.0
  0
SPLINE
  5
1ce
100
AcDbEntity
  8
0
 62
7
100
AcDbSpline
 70
8
 71
3
 72
8
 73
4
 74
0
 40
0
 40
0
 40
0
 40
0
 40
1
 40
1
 40
1
 40
1
 10
78.740000
 20
26.712460
 30
0.0
 10
78.654591
 20
26.649124
 30
0.0
 10
78.339419
 20
25.511328
 30
0.0
 10
78.043264
 20
24.181280
 30
0.0
  0
SPLINE
  5
1cf
100
AcDbEntity
  8
0
 62
7
100
AcDbSpline
 70
8
 71
3
 72
8
 73
4
 74
0
 40
0
 40
0
 40
0
 40
0
 40
1
 40
1
 40
1
 40
1
 10
78.043264
 20
24.181280
 30
0.0
 10
77.747108
 20
22.851229
 30
0.0
 10
77.443886
 20
21.713436
 30
0.0
 10
77.364167
 20
21.650099
 30
0.0
  0
SPLINE
  5
1d0
100
AcDbEntity
  8
0
 62
7
100
AcDbSpline
 70
8
 71
3
 72
8
 73
4
 74
0
 40
0
 40
0
 40
0
 40
0
 40
1
 40
1
 40
1
 40
1
 10
77.364167
 20
21.650099
 30
0.0
 10
77.284447
 20
21.586763
 30
0.0
 10
77.021154
 20
20.756872
 30
0.0
 10
76.782083
 20
19.806835
 30
0.0
  0
SPLINE
  5
1d1
100
AcDbEntity
  8
0
 62
7
100
AcDbSpline
 70
8
 71
3
 72
8
 73
4
 74
0
 40
0
 40
0
 40
0
 40
0
 40
1
 40
1
 40
1
 40
1
 10
76.782083
 20
19.806835
 30
0.0
 10
76.543013
 20
18.856799
 30
0.0
 10
76.280332
 20
18.026905
 30
0.0
 10
76.200000
 20
17.963571
 30
0.0
  0
SPLINE
  5
1d2
100
AcDbEntity
  8
0
 62
7
100
AcDbSpline
 70
8
 71
3
 72
8
 73
4
 74
0
 40
0
 40
0
 40
0
 40
0
 40
1
 40
1
 40
1
 40
1
 10
76.200000
 20
17.963571
 30
0.0
 10
76.119671
 20
17.900235
 30
0.0
 10
75.852788
 20
17.019027
 30
0.0
 10
75.609097
 20
16.005655
 30
0.0
  0
SPLINE
  5
1d3
100
AcDbEntity
  8
0
 62
7
100
AcDbSpline
 70
8
 71
3
 72
8
 73
4
 74
0
 40
0
 40
0
 40
0
 40
0
 40
1
 40
1
 40
1
 40
1
 10
75.609097
 20
16.005655
 30
0.0
 10
75.365407
 20
14.992282
 30
0.0
 10
75.088471
 20
14.108811
 30
0.0
 10
74.991736
 20
14.038919
 30
0.0
  0
SPLINE
  5
1d4
100
AcDbEntity
  8
0
 62
7
100
AcDbSpline
 70
8
 71
3
 72
8
 73
4
 74
0
 40
0
 40
0
 40
0
 40
0
 40
1
 40
1
 40
1
 40
1
 10
74.991736
 20
14.038919
 30
0.0
 10
74.895002
 20
13.969026
 30
0.0
 10
74.584732
 20
12.882550
 30
0.0
 10
74.303819
 20
11.622391
 30
0.0
  0
SPLINE
  5
1d5
100
AcDbEntity
  8
0
 62
7
100
AcDbSpline
 70
8
 71
3
 72
8
 73
4
 74
0
 40
0
 40
0
 40
0
 40
0
 40
1
 40
1
 40
1
 40
1
 10
74.303819
 20
11.622391
 30
0.0
 10
74.022904
 20
10.362235
 30
0.0
 10
73.721093
 20
9.290778
 30
0.0
 10
73.624722
 20
9.249960
 30
0.0
  0
SPLINE
  5
1d6
100
AcDbEntity
  8
0
 62
7
100
AcDbSpline
 70
8
 71
3
 72
8
 73
4
 74
0
 40
0
 40
0
 40
0
 40
0
 40
1
 40
1
 40
1
 40
1
 10
73.624722
 20
9.249960
 30
0.0
 10
73.528355
 20
9.209143
 30
0.0
 10
73.267254
 20
8.358003
 30
0.0
 10
73.051458
 20
7.353780
 30
0.0
  0
SPLINE
  5
1d7
100
AcDbEntity
  8
0
 62
7
100
AcDbSpline
 70
8
 71
3
 72
8
 73
4
 74
0
 40
0
 40
0
 40
0
 40
0
 40
1
 40
1
 40
1
 40
1
 10
73.051458
 20
7.353780
 30
0.0
 10
72.835660
 20
6.349560
 30
0.0
 10
72.587903
 20
5.528155
 30
0.0
 10
72.495833
 20
5.528155
 30
0.0
  0
SPLINE
  5
1d8
100
AcDbEntity
  8
0
 62
7
100
AcDbSpline
 70
8
 71
3
 72
8
 73
4
 74
0
 40
0
 40
0
 40
0
 40
0
 40
1
 40
1
 40
1
 40
1
 10
72.495833
 20
5.528155
 30
0.0
 10
72.403767
 20
5.528155
 30
0.0
 10
72.093856
 20
4.544311
 30
0.0
 10
71.807917
 20
3.340933
 30
0.0
  0
SPLINE
  5
1d9
100
AcDbEntity
  8
0
 62
7
100
AcDbSpline
 70
8
 71
3
 72
8
 73
4
 74
0
 40
0
 40
0
 40
0
 40
0
 40
1
 40
1
 40
1
 40
1
 10
71.807917
 20
3.340933
 30
0.0
 10
71.521978
 20
2.137554
 30
0.0
 10
71.212337
 20
1.153710
 30
0.0
 10
71.120000
 20
1.153710
 30
0.0
  0
SPLINE
  5
1da
100
AcDbEntity
  8
0
 62
7
100
AcDbSpline
 70
8
 71
3
 72
8
 73
4
 74
0
 40
0
 40
0
 40
0
 40
0
 40
1
 40
1
 40
1
 40
1
 10
71.120000
 20
1.153710
 30
0.0
 10
71.027657
 20
1.153710
 30
0.0
 10
70.898314
 20
0.888306
 30
0.0
 10
70.837778
 20
0.571627
 30
0.0
  0
LWPOLYLINE
  5
1db
100
AcDbEntity
  8
0
 62
7
100
AcDbPolyline
 90
3
 70
0
 10
1.587500
 20
126.910169
 30
0.0
 10
0.784931
 20
127.615724
 30
0.0
 10
0.388056
 20
127.095377
 30
0.0
  0
SPLINE
  5
1dc
100
AcDbEntity
  8
0
 62
7
100
AcDbSpline
 70
8
 71
3
 72
8
 73
4
 74
0
 40
0
 40
0
 40
0
 40
0
 40
1
 40
1
 40
1
 40
1
 10
138.377083
 20
0.809752
 30
0.0
 10
138.377083
 20
1.253101
 30
0.0
 10
138.274450
 20
1.612321
 30
0.0
 10
138.147778
 20
1.612321
 30
0.0
  0
SPLINE
  5
1dd
100
AcDbEntity
  8
0
 62
7
100
AcDbSpline
 70
8
 71
3
 72
8
 73
4
 74
0
 40
0
 40
0
 40
0
 40
0
 40
1
 40
1
 40
1
 40
1
 10
138.147778
 20
1.612321
 30
0.0
 10
138.014129
 20
1.612321
 30
0.0
 10
137.919037
 20
2.358071
 30
0.0
 10
137.918472
 20
3.393849
 30
0.0
  0
SPLINE
  5
1de
100
AcDbEntity
  8
0
 62
7
100
AcDbSpline
 70
8
 71
3
 72
8
 73
4
 74
0
 40
0
 40
0
 40
0
 40
0
 40
1
 40
1
 40
1
 40
1
 10
137.918472
 20
3.393849
 30
0.0
 10
137.917959
 20
4.375554
 30
0.0
 10
137.816452
 20
6.578575
 30
0.0
 10
137.697986
 20
8.288641
 30
0.0
  0
SPLINE
  5
1df
100
AcDbEntity
  8
0
 62
7
100
AcDbSpline
 70
8
 71
3
 72
8
 73
4
 74
0
 40
0
 40
0
 40
0
 40
0
 40
1
 40
1
 40
1
 40
1
 10
137.697986
 20
8.288641
 30
0.0
 10
137.579518
 20
9.998704
 30
0.0
 10
137.353071
 20
14.588772
 30
0.0
 10
137.195278
 20
18.483919
 30
0.0
  0
SPLINE
  5
1e0
100
AcDbEntity
  8
0
 62
7
100
AcDbSpline
 70
8
 71
3
 72
8
 73
4
 74
0
 40
0
 40
0
 40
0
 40
0
 40
1
 40
1
 40
1
 40
1
 10
137.195278
 20
18.483919
 30
0.0
 10
137.037485
 20
22.379065
 30
0.0
 10
136.846375
 20
25.565933
 30
0.0
 10
136.763125
 20
25.565933
 30
0.0
  0
SPLINE
  5
1e1
100
AcDbEntity
  8
0
 62
7
100
AcDbSpline
 70
8
 71
3
 72
8
 73
4
 74
0
 40
0
 40
0
 40
0
 40
0
 40
1
 40
1
 40
1
 40
1
 10
136.763125
 20
25.565933
 30
0.0
 10
136.679878
 20
25.565933
 30
0.0
 10
136.538092
 20
27.452233
 30
0.0
 10
136.454444
 20
29.763988
 30
0.0
  0
SPLINE
  5
1e2
100
AcDbEntity
  8
0
 62
7
100
AcDbSpline
 70
8
 71
3
 72
8
 73
4
 74
0
 40
0
 40
0
 40
0
 40
0
 40
1
 40
1
 40
1
 40
1
 10
136.454444
 20
29.763988
 30
0.0
 10
136.246136
 20
35.521101
 30
0.0
 10
135.829418
 20
41.548600
 30
0.0
 10
135.625417
 20
41.687877
 30
0.0
  0
SPLINE
  5
1e3
100
AcDbEntity
  8
0
 62
7
100
AcDbSpline
 70
8
 71
3
 72
8
 73
4
 74
0
 40
0
 40
0
 40
0
 40
0
 40
1
 40
1
 40
1
 40
1
 10
135.625417
 20
41.687877
 30
0.0
 10
135.532647
 20
41.751213
 30
0.0
 10
135.389795
 20
42.609474
 30
0.0
 10
135.307917
 20
43.601696
 30
0.0
  0
SPLINE
  5
1e4
100
AcDbEntity
  8
0
 62
7
100
AcDbSpline
 70
8
 71
3
 72
8
 73
4
 74
0
 40
0
 40
0
 40
0
 40
0
 40
1
 40
1
 40
1
 40
1
 10
135.307917
 20
43.601696
 30
0.0
 10
135.094898
 20
46.183138
 30
0.0
 10
134.455950
 20
50.298073
 30
0.0
 10
134.249583
 20
50.436766
 30
0.0
  0
SPLINE
  5
1e5
100
AcDbEntity
  8
0
 62
7
100
AcDbSpline
 70
8
 71
3
 72
8
 73
4
 74
0
 40
0
 40
0
 40
0
 40
0
 40
1
 40
1
 40
1
 40
1
 10
134.249583
 20
50.436766
 30
0.0
 10
134.153120
 20
50.501595
 30
0.0
 10
133.889688
 20
51.667966
 30
0.0
 10
133.658681
 20
53.029683
 30
0.0
  0
SPLINE
  5
1e6
100
AcDbEntity
  8
0
 62
7
100
AcDbSpline
 70
8
 71
3
 72
8
 73
4
 74
0
 40
0
 40
0
 40
0
 40
0
 40
1
 40
1
 40
1
 40
1
 10
133.658681
 20
53.029683
 30
0.0
 10
133.427673
 20
54.391402
 30
0.0
 10
133.166668
 20
55.507946
 30
0.0
 10
133.085417
 20
55.507946
 30
0.0
  0
SPLINE
  5
1e7
100
AcDbEntity
  8
0
 62
7
100
AcDbSpline
 70
8
 71
3
 72
8
 73
4
 74
0
 40
0
 40
0
 40
0
 40
0
 40
1
 40
1
 40
1
 40
1
 10
133.085417
 20
55.507946
 30
0.0
 10
133.004162
 20
55.507946
 30
0.0
 10
132.748765
 20
56.491790
 30
0.0
 10
132.512153
 20
57.695169
 30
0.0
  0
SPLINE
  5
1e8
100
AcDbEntity
  8
0
 62
7
100
AcDbSpline
 70
8
 71
3
 72
8
 73
4
 74
0
 40
0
 40
0
 40
0
 40
0
 40
1
 40
1
 40
1
 40
1
 10
132.512153
 20
57.695169
 30
0.0
 10
132.275546
 20
58.898547
 30
0.0
 10
132.003069
 20
59.882391
 30
0.0
 10
131.912431
 20
59.882391
 30
0.0
  0
SPLINE
  5
1e9
100
AcDbEntity
  8
0
 62
7
100
AcDbSpline
 70
8
 71
3
 72
8
 73
4
 74
0
 40
0
 40
0
 40
0
 40
0
 40
1
 40
1
 40
1
 40
1
 10
131.912431
 20
59.882391
 30
0.0
 10
131.821789
 20
59.882391
 30
0.0
 10
131.701455
 20
60.169044
 30
0.0
 10
131.639028
 20
60.517391
 30
0.0
  0
SPLINE
  5
1ea
100
AcDbEntity
  8
0
 62
7
100
AcDbSpline
 70
8
 71
3
 72
8
 73
4
 74
0
 40
0
 40
0
 40
0
 40
0
 40
1
 40
1
 40
1
 40
1
 10
131.639028
 20
60.517391
 30
0.0
 10
131.301733
 20
62.399460
 30
0.0
 10
130.701302
 20
64.844368
 30
0.0
 10
130.554236
 20
64.944752
 30
0.0
  0
SPLINE
  5
1eb
100
AcDbEntity
  8
0
 62
7
100
AcDbSpline
 70
8
 71
3
 72
8
 73
4
 74
0
 40
0
 40
0
 40
0
 40
0
 40
1
 40
1
 40
1
 40
1
 10
130.554236
 20
64.944752
 30
0.0
 10
130.351739
 20
65.082973
 30
0.0
 10
129.628194
 20
69.647805
 30
0.0
 10
129.628194
 20
70.783224
 30
0.0
  0
SPLINE
  5
1ec
100
AcDbEntity
  8
0
 62
7
100
AcDbSpline
 70
8
 71
3
 72
8
 73
4
 74
0
 40
0
 40
0
 40
0
 40
0
 40
1
 40
1
 40
1
 40
1
 10
129.628194
 20
70.783224
 30
0.0
 10
129.628194
 20
71.224058
 30
0.0
 10
129.518303
 20
71.622423
 30
0.0
 10
129.390069
 20
71.665169
 30
0.0
  0
SPLINE
  5
1ed
100
AcDbEntity
  8
0
 62
7
100
AcDbSpline
 70
8
 71
3
 72
8
 73
4
 74
0
 40
0
 40
0
 40
0
 40
0
 40
1
 40
1
 40
1
 40
1
 10
129.390069
 20
71.665169
 30
0.0
 10
129.261833
 20
71.707914
 30
0.0
 10
129.101667
 20
72.626274
 30
0.0
 10
129.028472
 20
73.702460
 30
0.0
  0
SPLINE
  5
1ee
100
AcDbEntity
  8
0
 62
7
100
AcDbSpline
 70
8
 71
3
 72
8
 73
4
 74
0
 40
0
 40
0
 40
0
 40
0
 40
1
 40
1
 40
1
 40
1
 10
129.028472
 20
73.702460
 30
0.0
 10
128.955272
 20
74.778647
 30
0.0
 10
128.796559
 20
75.984645
 30
0.0
 10
128.675694
 20
76.383571
 30
0.0
  0
SPLINE
  5
1ef
100
AcDbEntity
  8
0
 62
7
100
AcDbSpline
 70
8
 71
3
 72
8
 73
4
 74
0
 40
0
 40
0
 40
0
 40
0
 40
1
 40
1
 40
1
 40
1
 10
128.675694
 20
76.383571
 30
0.0
 10
128.451325
 20
77.124151
 30
0.0
 10
128.606561
 20
78.306210
 30
0.0
 10
128.931458
 20
78.306210
 30
0.0
  0
SPLINE
  5
1f0
100
AcDbEntity
  8
0
 62
7
100
AcDbSpline
 70
8
 71
3
 72
8
 73
4
 74
0
 40
0
 40
0
 40
0
 40
0
 40
1
 40
1
 40
1
 40
1
 10
128.931458
 20
78.306210
 30
0.0
 10
129.030538
 20
78.306210
 30
0.0
 10
129.172346
 20
77.968241
 30
0.0
 10
129.240139
 20
77.556558
 30
0.0
  0
SPLINE
  5
1f1
100
AcDbEntity
  8
0
 62
7
100
AcDbSpline
 70
8
 71
3
 72
8
 73
4
 74
0
 40
0
 40
0
 40
0
 40
0
 40
1
 40
1
 40
1
 40
1
 10
129.240139
 20
77.556558
 30
0.0
 10
129.307931
 20
77.144877
 30
0.0
 10
129.493354
 20
76.007079
 30
0.0
 10
129.654653
 20
75.025377
 30
0.0
  0
SPLINE
  5
1f2
100
AcDbEntity
  8
0
 62
7
100
AcDbSpline
 70
8
 71
3
 72
8
 73
4
 74
0
 40
0
 40
0
 40
0
 40
0
 40
1
 40
1
 40
1
 40
1
 10
129.654653
 20
75.025377
 30
0.0
 10
129.815954
 20
74.043673
 30
0.0
 10
130.028397
 20
73.235030
 30
0.0
 10
130.122083
 20
73.235030
 30
0.0
  0
SPLINE
  5
1f3
100
AcDbEntity
  8
0
 62
7
100
AcDbSpline
 70
8
 71
3
 72
8
 73
4
 74
0
 40
0
 40
0
 40
0
 40
0
 40
1
 40
1
 40
1
 40
1
 10
130.122083
 20
73.235030
 30
0.0
 10
130.215767
 20
73.235030
 30
0.0
 10
130.347480
 20
72.743108
 30
0.0
 10
130.421944
 20
72.141419
 30
0.0
  0
SPLINE
  5
1f4
100
AcDbEntity
  8
0
 62
7
100
AcDbSpline
 70
8
 71
3
 72
8
 73
4
 74
0
 40
0
 40
0
 40
0
 40
0
 40
1
 40
1
 40
1
 40
1
 10
130.421944
 20
72.141419
 30
0.0
 10
130.690152
 20
69.974237
 30
0.0
 10
131.079113
 20
67.700951
 30
0.0
 10
131.162778
 20
67.784613
 30
0.0
  0
SPLINE
  5
1f5
100
AcDbEntity
  8
0
 62
7
100
AcDbSpline
 70
8
 71
3
 72
8
 73
4
 74
0
 40
0
 40
0
 40
0
 40
0
 40
1
 40
1
 40
1
 40
1
 10
131.162778
 20
67.784613
 30
0.0
 10
131.318542
 20
67.940377
 30
0.0
 10
130.742075
 20
74.730889
 30
0.0
 10
130.563056
 20
74.848988
 30
0.0
  0
SPLINE
  5
1f6
100
AcDbEntity
  8
0
 62
7
100
AcDbSpline
 70
8
 71
3
 72
8
 73
4
 74
0
 40
0
 40
0
 40
0
 40
0
 40
1
 40
1
 40
1
 40
1
 10
130.563056
 20
74.848988
 30
0.0
 10
130.385058
 20
74.966412
 30
0.0
 10
129.854920
 20
81.100840
 30
0.0
 10
130.007431
 20
81.278363
 30
0.0
  0
SPLINE
  5
1f7
100
AcDbEntity
  8
0
 62
7
100
AcDbSpline
 70
8
 71
3
 72
8
 73
4
 74
0
 40
0
 40
0
 40
0
 40
0
 40
1
 40
1
 40
1
 40
1
 10
130.007431
 20
81.278363
 30
0.0
 10
130.052933
 20
81.331331
 30
0.0
 10
130.578914
 20
81.249528
 30
0.0
 10
131.180417
 20
81.093155
 30
0.0
  0
SPLINE
  5
1f8
100
AcDbEntity
  8
0
 62
7
100
AcDbSpline
 70
8
 71
3
 72
8
 73
4
 74
0
 40
0
 40
0
 40
0
 40
0
 40
1
 40
1
 40
1
 40
1
 10
131.180417
 20
81.093155
 30
0.0
 10
131.781920
 20
80.936781
 30
0.0
 10
132.560681
 20
80.747952
 30
0.0
 10
132.909028
 20
80.678641
 30
0.0
  0
SPLINE
  5
1f9
100
AcDbEntity
  8
0
 62
7
100
AcDbSpline
 70
8
 71
3
 72
8
 73
4
 74
0
 40
0
 40
0
 40
0
 40
0
 40
1
 40
1
 40
1
 40
1
 10
132.909028
 20
80.678641
 30
0.0
 10
133.257375
 20
80.609333
 30
0.0
 10
133.544028
 20
80.464618
 30
0.0
 10
133.544028
 20
80.352321
 30
0.0
  0
SPLINE
  5
1fa
100
AcDbEntity
  8
0
 62
7
100
AcDbSpline
 70
8
 71
3
 72
8
 73
4
 74
0
 40
0
 40
0
 40
0
 40
0
 40
1
 40
1
 40
1
 40
1
 10
133.544028
 20
80.352321
 30
0.0
 10
133.544028
 20
80.240028
 30
0.0
 10
134.322603
 20
80.149474
 30
0.0
 10
135.272639
 20
80.149474
 30
0.0
  0
SPLINE
  5
1fb
100
AcDbEntity
  8
0
 62
7
100
AcDbSpline
 70
8
 71
3
 72
8
 73
4
 74
0
 40
0
 40
0
 40
0
 40
0
 40
1
 40
1
 40
1
 40
1
 10
135.272639
 20
80.149474
 30
0.0
 10
136.222675
 20
80.149474
 30
0.0
 10
136.992431
 20
80.244535
 30
0.0
 10
136.992431
 20
80.361141
 30
0.0
  0
SPLINE
  5
1fc
100
AcDbEntity
  8
0
 62
7
100
AcDbSpline
 70
8
 71
3
 72
8
 73
4
 74
0
 40
0
 40
0
 40
0
 40
0
 40
1
 40
1
 40
1
 40
1
 10
136.992431
 20
80.361141
 30
0.0
 10
136.992431
 20
80.477747
 30
0.0
 10
137.313896
 20
80.645260
 30
0.0
 10
137.706806
 20
80.731558
 30
0.0
  0
SPLINE
  5
1fd
100
AcDbEntity
  8
0
 62
7
100
AcDbSpline
 70
8
 71
3
 72
8
 73
4
 74
0
 40
0
 40
0
 40
0
 40
0
 40
1
 40
1
 40
1
 40
1
 10
137.706806
 20
80.731558
 30
0.0
 10
138.099718
 20
80.817855
 30
0.0
 10
138.596841
 20
81.060767
 30
0.0
 10
138.809236
 20
81.269544
 30
0.0
  0
SPLINE
  5
1fe
100
AcDbEntity
  8
0
 62
7
100
AcDbSpline
 70
8
 71
3
 72
8
 73
4
 74
0
 40
0
 40
0
 40
0
 40
0
 40
1
 40
1
 40
1
 40
1
 10
138.809236
 20
81.269544
 30
0.0
 10
139.021634
 20
81.478320
 30
0.0
 10
139.567579
 20
81.891172
 30
0.0
 10
140.017500
 20
82.195585
 30
0.0
  0
SPLINE
  5
1ff
100
AcDbEntity
  8
0
 62
7
100
AcDbSpline
 70
8
 71
3
 72
8
 73
4
 74
0
 40
0
 40
0
 40
0
 40
0
 40
1
 40
1
 40
1
 40
1
 10
140.017500
 20
82.195585
 30
0.0
 10
140.481665
 20
82.509634
 30
0.0
 10
141.011777
 20
83.159510
 30
0.0
 10
141.243403
 20
83.694891
 30
0.0
  0
SPLINE
  5
200
100
AcDbEntity
  8
0
 62
7
100
AcDbSpline
 70
8
 71
3
 72
8
 73
4
 74
0
 40
0
 40
0
 40
0
 40
0
 40
1
 40
1
 40
1
 40
1
 10
141.243403
 20
83.694891
 30
0.0
 10
141.467919
 20
84.213844
 30
0.0
 10
141.749873
 20
84.696297
 30
0.0
 10
141.869583
 20
84.770863
 30
0.0
  0
SPLINE
  5
201
100
AcDbEntity
  8
0
 62
7
100
AcDbSpline
 70
8
 71
3
 72
8
 73
4
 74
0
 40
0
 40
0
 40
0
 40
0
 40
1
 40
1
 40
1
 40
1
 10
141.869583
 20
84.770863
 30
0.0
 10
142.271338
 20
85.021107
 30
0.0
 10
142.748706
 20
87.384450
 30
0.0
 10
142.751528
 20
89.127669
 30
0.0
  0
SPLINE
  5
202
100
AcDbEntity
  8
0
 62
7
100
AcDbSpline
 70
8
 71
3
 72
8
 73
4
 74
0
 40
0
 40
0
 40
0
 40
0
 40
1
 40
1
 40
1
 40
1
 10
142.751528
 20
89.127669
 30
0.0
 10
142.753009
 20
90.077705
 30
0.0
 10
142.597553
 20
91.671419
 30
0.0
 10
142.407569
 20
92.664266
 30
0.0
  0
SPLINE
  5
203
100
AcDbEntity
  8
0
 62
7
100
AcDbSpline
 70
8
 71
3
 72
8
 73
4
 74
0
 40
0
 40
0
 40
0
 40
0
 40
1
 40
1
 40
1
 40
1
 10
142.407569
 20
92.664266
 30
0.0
 10
142.217583
 20
93.657112
 30
0.0
 10
142.063611
 20
94.824973
 30
0.0
 10
142.063611
 20
95.257183
 30
0.0
  0
SPLINE
  5
204
100
AcDbEntity
  8
0
 62
7
100
AcDbSpline
 70
8
 71
3
 72
8
 73
4
 74
0
 40
0
 40
0
 40
0
 40
0
 40
1
 40
1
 40
1
 40
1
 10
142.063611
 20
95.257183
 30
0.0
 10
142.063611
 20
95.689389
 30
0.0
 10
141.979681
 20
96.042113
 30
0.0
 10
141.878403
 20
96.042113
 30
0.0
  0
SPLINE
  5
205
100
AcDbEntity
  8
0
 62
7
100
AcDbSpline
 70
8
 71
3
 72
8
 73
4
 74
0
 40
0
 40
0
 40
0
 40
0
 40
1
 40
1
 40
1
 40
1
 10
141.878403
 20
96.042113
 30
0.0
 10
141.661981
 20
96.042113
 30
0.0
 10
141.144413
 20
100.452250
 30
0.0
 10
141.146389
 20
102.268641
 30
0.0
  0
SPLINE
  5
206
100
AcDbEntity
  8
0
 62
7
100
AcDbSpline
 70
8
 71
3
 72
8
 73
4
 74
0
 40
0
 40
0
 40
0
 40
0
 40
1
 40
1
 40
1
 40
1
 10
141.146389
 20
102.268641
 30
0.0
 10
141.147760
 20
103.608756
 30
0.0
 10
141.504196
 20
105.249613
 30
0.0
 10
141.799028
 20
105.249613
 30
0.0
  0
SPLINE
  5
207
100
AcDbEntity
  8
0
 62
7
100
AcDbSpline
 70
8
 71
3
 72
8
 73
4
 74
0
 40
0
 40
0
 40
0
 40
0
 40
1
 40
1
 40
1
 40
1
 10
141.799028
 20
105.249613
 30
0.0
 10
141.897162
 20
105.249613
 30
0.0
 10
142.218342
 20
105.771603
 30
0.0
 10
142.504583
 20
106.404960
 30
0.0
  0
SPLINE
  5
208
100
AcDbEntity
  8
0
 62
7
100
AcDbSpline
 70
8
 71
3
 72
8
 73
4
 74
0
 40
0
 40
0
 40
0
 40
0
 40
1
 40
1
 40
1
 40
1
 10
142.504583
 20
106.404960
 30
0.0
 10
142.790824
 20
107.038318
 30
0.0
 10
143.108550
 20
107.551488
 30
0.0
 10
143.218958
 20
107.551488
 30
0.0
  0
SPLINE
  5
209
100
AcDbEntity
  8
0
 62
7
100
AcDbSpline
 70
8
 71
3
 72
8
 73
4
 74
0
 40
0
 40
0
 40
0
 40
0
 40
1
 40
1
 40
1
 40
1
 10
143.218958
 20
107.551488
 30
0.0
 10
143.329372
 20
107.551488
 30
0.0
 10
143.606718
 20
107.940777
 30
0.0
 10
143.827500
 20
108.415794
 30
0.0
  0
SPLINE
  5
20a
100
AcDbEntity
  8
0
 62
7
100
AcDbSpline
 70
8
 71
3
 72
8
 73
4
 74
0
 40
0
 40
0
 40
0
 40
0
 40
1
 40
1
 40
1
 40
1
 10
143.827500
 20
108.415794
 30
0.0
 10
144.048282
 20
108.890810
 30
0.0
 10
144.349213
 20
109.355670
 30
0.0
 10
144.497778
 20
109.447669
 30
0.0
  0
SPLINE
  5
20b
100
AcDbEntity
  8
0
 62
7
100
AcDbSpline
 70
8
 71
3
 72
8
 73
4
 74
0
 40
0
 40
0
 40
0
 40
0
 40
1
 40
1
 40
1
 40
1
 10
144.497778
 20
109.447669
 30
0.0
 10
144.646340
 20
109.539673
 30
0.0
 10
144.894752
 20
109.928959
 30
0.0
 10
145.053403
 20
110.311974
 30
0.0
  0
SPLINE
  5
20c
100
AcDbEntity
  8
0
 62
7
100
AcDbSpline
 70
8
 71
3
 72
8
 73
4
 74
0
 40
0
 40
0
 40
0
 40
0
 40
1
 40
1
 40
1
 40
1
 10
145.053403
 20
110.311974
 30
0.0
 10
145.212054
 20
110.694992
 30
0.0
 10
145.422318
 20
111.008710
 30
0.0
 10
145.520833
 20
111.008710
 30
0.0
  0
SPLINE
  5
20d
100
AcDbEntity
  8
0
 62
7
100
AcDbSpline
 70
8
 71
3
 72
8
 73
4
 74
0
 40
0
 40
0
 40
0
 40
0
 40
1
 40
1
 40
1
 40
1
 10
145.520833
 20
111.008710
 30
0.0
 10
145.619349
 20
111.008710
 30
0.0
 10
145.923327
 20
111.429814
 30
0.0
 10
146.191111
 20
111.943571
 30
0.0
  0
SPLINE
  5
20e
100
AcDbEntity
  8
0
 62
7
100
AcDbSpline
 70
8
 71
3
 72
8
 73
4
 74
0
 40
0
 40
0
 40
0
 40
0
 40
1
 40
1
 40
1
 40
1
 10
146.191111
 20
111.943571
 30
0.0
 10
146.458895
 20
112.457326
 30
0.0
 10
146.883100
 20
113.102161
 30
0.0
 10
147.134792
 20
113.372321
 30
0.0
  0
SPLINE
  5
20f
100
AcDbEntity
  8
0
 62
7
100
AcDbSpline
 70
8
 71
3
 72
8
 73
4
 74
0
 40
0
 40
0
 40
0
 40
0
 40
1
 40
1
 40
1
 40
1
 10
147.134792
 20
113.372321
 30
0.0
 10
147.386483
 20
113.642479
 30
0.0
 10
147.593403
 20
113.988604
 30
0.0
 10
147.593403
 20
114.148433
 30
0.0
  0
SPLINE
  5
210
100
AcDbEntity
  8
0
 62
7
100
AcDbSpline
 70
8
 71
3
 72
8
 73
4
 74
0
 40
0
 40
0
 40
0
 40
0
 40
1
 40
1
 40
1
 40
1
 10
147.593403
 20
114.148433
 30
0.0
 10
147.593403
 20
114.308261
 30
0.0
 10
147.725122
 20
114.523385
 30
0.0
 10
147.893264
 20
114.624683
 30
0.0
  0
SPLINE
  5
211
100
AcDbEntity
  8
0
 62
7
100
AcDbSpline
 70
8
 71
3
 72
8
 73
4
 74
0
 40
0
 40
0
 40
0
 40
0
 40
1
 40
1
 40
1
 40
1
 10
147.893264
 20
114.624683
 30
0.0
 10
148.061406
 20
114.725981
 30
0.0
 10
148.450692
 20
115.280564
 30
0.0
 10
148.757569
 20
115.850585
 30
0.0
  0
SPLINE
  5
212
100
AcDbEntity
  8
0
 62
7
100
AcDbSpline
 70
8
 71
3
 72
8
 73
4
 74
0
 40
0
 40
0
 40
0
 40
0
 40
1
 40
1
 40
1
 40
1
 10
148.757569
 20
115.850585
 30
0.0
 10
149.064444
 20
116.420606
 30
0.0
 10
149.436051
 20
116.958031
 30
0.0
 10
149.577778
 20
117.050030
 30
0.0
  0
SPLINE
  5
213
100
AcDbEntity
  8
0
 62
7
100
AcDbSpline
 70
8
 71
3
 72
8
 73
4
 74
0
 40
0
 40
0
 40
0
 40
0
 40
1
 40
1
 40
1
 40
1
 10
149.577778
 20
117.050030
 30
0.0
 10
149.719507
 20
117.142034
 30
0.0
 10
149.965932
 20
117.531320
 30
0.0
 10
150.124583
 20
117.914335
 30
0.0
  0
SPLINE
  5
214
100
AcDbEntity
  8
0
 62
7
100
AcDbSpline
 70
8
 71
3
 72
8
 73
4
 74
0
 40
0
 40
0
 40
0
 40
0
 40
1
 40
1
 40
1
 40
1
 10
150.124583
 20
117.914335
 30
0.0
 10
150.283235
 20
118.297353
 30
0.0
 10
150.493103
 20
118.611071
 30
0.0
 10
150.592014
 20
118.611071
 30
0.0
  0
SPLINE
  5
215
100
AcDbEntity
  8
0
 62
7
100
AcDbSpline
 70
8
 71
3
 72
8
 73
4
 74
0
 40
0
 40
0
 40
0
 40
0
 40
1
 40
1
 40
1
 40
1
 10
150.592014
 20
118.611071
 30
0.0
 10
150.690927
 20
118.611071
 30
0.0
 10
150.881196
 20
118.922978
 30
0.0
 10
151.015347
 20
119.307808
 30
0.0
  0
SPLINE
  5
216
100
AcDbEntity
  8
0
 62
7
100
AcDbSpline
 70
8
 71
3
 72
8
 73
4
 74
0
 40
0
 40
0
 40
0
 40
0
 40
1
 40
1
 40
1
 40
1
 10
151.015347
 20
119.307808
 30
0.0
 10
151.349171
 20
120.265410
 30
0.0
 10
151.015206
 20
120.901466
 30
0.0
 10
149.824722
 20
121.583224
 30
0.0
  0
SPLINE
  5
217
100
AcDbEntity
  8
0
 62
7
100
AcDbSpline
 70
8
 71
3
 72
8
 73
4
 74
0
 40
0
 40
0
 40
0
 40
0
 40
1
 40
1
 40
1
 40
1
 10
149.824722
 20
121.583224
 30
0.0
 10
149.292632
 20
121.887942
 30
0.0
 10
148.720243
 20
122.329329
 30
0.0
 10
148.554722
 20
122.562183
 30
0.0
  0
SPLINE
  5
218
100
AcDbEntity
  8
0
 62
7
100
AcDbSpline
 70
8
 71
3
 72
8
 73
4
 74
0
 40
0
 40
0
 40
0
 40
0
 40
1
 40
1
 40
1
 40
1
 10
148.554722
 20
122.562183
 30
0.0
 10
148.389199
 20
122.795036
 30
0.0
 10
148.106522
 20
122.985516
 30
0.0
 10
147.919722
 20
122.985516
 30
0.0
  0
SPLINE
  5
219
100
AcDbEntity
  8
0
 62
7
100
AcDbSpline
 70
8
 71
3
 72
8
 73
4
 74
0
 40
0
 40
0
 40
0
 40
0
 40
1
 40
1
 40
1
 40
1
 10
147.919722
 20
122.985516
 30
0.0
 10
147.732922
 20
122.985516
 30
0.0
 10
147.522458
 20
123.137803
 30
0.0
 10
147.452292
 20
123.320655
 30
0.0
  0
SPLINE
  5
21a
100
AcDbEntity
  8
0
 62
7
100
AcDbSpline
 70
8
 71
3
 72
8
 73
4
 74
0
 40
0
 40
0
 40
0
 40
0
 40
1
 40
1
 40
1
 40
1
 10
147.452292
 20
123.320655
 30
0.0
 10
147.382123
 20
123.503504
 30
0.0
 10
146.920870
 20
123.858150
 30
0.0
 10
146.429236
 20
124.114405
 30
0.0
  0
SPLINE
  5
21b
100
AcDbEntity
  8
0
 62
7
100
AcDbSpline
 70
8
 71
3
 72
8
 73
4
 74
0
 40
0
 40
0
 40
0
 40
0
 40
1
 40
1
 40
1
 40
1
 10
146.429236
 20
124.114405
 30
0.0
 10
145.578181
 20
124.558002
 30
0.0
 10
145.250662
 20
124.805099
 30
0.0
 10
144.074444
 20
125.869474
 30
0.0
  0
SPLINE
  5
21c
100
AcDbEntity
  8
0
 62
7
100
AcDbSpline
 70
8
 71
3
 72
8
 73
4
 74
0
 40
0
 40
0
 40
0
 40
0
 40
1
 40
1
 40
1
 40
1
 10
144.074444
 20
125.869474
 30
0.0
 10
143.792524
 20
126.124589
 30
0.0
 10
143.276261
 20
126.476430
 30
0.0
 10
142.927917
 20
126.654405
 30
0.0
  0
SPLINE
  5
21d
100
AcDbEntity
  8
0
 62
7
100
AcDbSpline
 70
8
 71
3
 72
8
 73
4
 74
0
 40
0
 40
0
 40
0
 40
0
 40
1
 40
1
 40
1
 40
1
 10
142.927917
 20
126.654405
 30
0.0
 10
142.579570
 20
126.832380
 30
0.0
 10
142.292917
 20
127.063918
 30
0.0
 10
142.292917
 20
127.165933
 30
0.0
  0
SPLINE
  5
21e
100
AcDbEntity
  8
0
 62
7
100
AcDbSpline
 70
8
 71
3
 72
8
 73
4
 74
0
 40
0
 40
0
 40
0
 40
0
 40
1
 40
1
 40
1
 40
1
 10
142.292917
 20
127.165933
 30
0.0
 10
142.292917
 20
127.267947
 30
0.0
 10
142.006264
 20
127.497132
 30
0.0
 10
141.657917
 20
127.677460
 30
0.0
  0
SPLINE
  5
21f
100
AcDbEntity
  8
0
 62
7
100
AcDbSpline
 70
8
 71
3
 72
8
 73
4
 74
0
 40
0
 40
0
 40
0
 40
0
 40
1
 40
1
 40
1
 40
1
 10
141.657917
 20
127.677460
 30
0.0
 10
141.309570
 20
127.857789
 30
0.0
 10
140.663699
 20
128.327232
 30
0.0
 10
140.220347
 20
128.718155
 30
0.0
  0
SPLINE
  5
220
100
AcDbEntity
  8
0
 62
7
100
AcDbSpline
 70
8
 71
3
 72
8
 73
4
 74
0
 40
0
 40
0
 40
0
 40
0
 40
1
 40
1
 40
1
 40
1
 10
140.220347
 20
128.718155
 30
0.0
 10
139.776996
 20
129.109075
 30
0.0
 10
139.307522
 20
129.430554
 30
0.0
 10
139.179653
 20
129.432530
 30
0.0
  0
SPLINE
  5
221
100
AcDbEntity
  8
0
 62
7
100
AcDbSpline
 70
8
 71
3
 72
8
 73
4
 74
0
 40
0
 40
0
 40
0
 40
0
 40
1
 40
1
 40
1
 40
1
 10
139.179653
 20
129.432530
 30
0.0
 10
139.051786
 20
129.434550
 30
0.0
 10
138.817519
 20
129.646618
 30
0.0
 10
138.659306
 20
129.899960
 30
0.0
  0
SPLINE
  5
222
100
AcDbEntity
  8
0
 62
7
100
AcDbSpline
 70
8
 71
3
 72
8
 73
4
 74
0
 40
0
 40
0
 40
0
 40
0
 40
1
 40
1
 40
1
 40
1
 10
138.659306
 20
129.899960
 30
0.0
 10
138.501089
 20
130.153303
 30
0.0
 10
138.243307
 20
130.358340
 30
0.0
 10
138.086042
 20
130.358571
 30
0.0
  0
SPLINE
  5
223
100
AcDbEntity
  8
0
 62
7
100
AcDbSpline
 70
8
 71
3
 72
8
 73
4
 74
0
 40
0
 40
0
 40
0
 40
0
 40
1
 40
1
 40
1
 40
1
 10
138.086042
 20
130.358571
 30
0.0
 10
137.928773
 20
130.358868
 30
0.0
 10
137.435779
 20
130.666160
 30
0.0
 10
136.992431
 20
131.046488
 30
0.0
  0
SPLINE
  5
224
100
AcDbEntity
  8
0
 62
7
100
AcDbSpline
 70
8
 71
3
 72
8
 73
4
 74
0
 40
0
 40
0
 40
0
 40
0
 40
1
 40
1
 40
1
 40
1
 10
136.992431
 20
131.046488
 30
0.0
 10
136.549079
 20
131.426816
 30
0.0
 10
136.005841
 20
131.795435
 30
0.0
 10
135.784167
 20
131.866696
 30
0.0
  0
SPLINE
  5
225
100
AcDbEntity
  8
0
 62
7
100
AcDbSpline
 70
8
 71
3
 72
8
 73
4
 74
0
 40
0
 40
0
 40
0
 40
0
 40
1
 40
1
 40
1
 40
1
 10
135.784167
 20
131.866696
 30
0.0
 10
135.562490
 20
131.937960
 30
0.0
 10
135.387292
 20
132.085210
 30
0.0
 10
135.387292
 20
132.193016
 30
0.0
  0
SPLINE
  5
226
100
AcDbEntity
  8
0
 62
7
100
AcDbSpline
 70
8
 71
3
 72
8
 73
4
 74
0
 40
0
 40
0
 40
0
 40
0
 40
1
 40
1
 40
1
 40
1
 10
135.387292
 20
132.193016
 30
0.0
 10
135.387292
 20
132.300819
 30
0.0
 10
135.002202
 20
132.625488
 30
0.0
 10
134.531806
 20
132.916210
 30
0.0
  0
SPLINE
  5
227
100
AcDbEntity
  8
0
 62
7
100
AcDbSpline
 70
8
 71
3
 72
8
 73
4
 74
0
 40
0
 40
0
 40
0
 40
0
 40
1
 40
1
 40
1
 40
1
 10
134.531806
 20
132.916210
 30
0.0
 10
134.061409
 20
133.206930
 30
0.0
 10
133.488103
 20
133.612342
 30
0.0
 10
133.261806
 20
133.806974
 30
0.0
  0
SPLINE
  5
228
100
AcDbEntity
  8
0
 62
7
100
AcDbSpline
 70
8
 71
3
 72
8
 73
4
 74
0
 40
0
 40
0
 40
0
 40
0
 40
1
 40
1
 40
1
 40
1
 10
133.261806
 20
133.806974
 30
0.0
 10
131.981840
 20
134.907819
 30
0.0
 10
131.304391
 20
135.375252
 30
0.0
 10
130.721806
 20
135.570863
 30
0.0
  0
SPLINE
  5
229
100
AcDbEntity
  8
0
 62
7
100
AcDbSpline
 70
8
 71
3
 72
8
 73
4
 74
0
 40
0
 40
0
 40
0
 40
0
 40
1
 40
1
 40
1
 40
1
 10
130.721806
 20
135.570863
 30
0.0
 10
130.500131
 20
135.645296
 30
0.0
 10
130.316111
 20
135.788857
 30
0.0
 10
130.316111
 20
135.888363
 30
0.0
  0
SPLINE
  5
22a
100
AcDbEntity
  8
0
 62
7
100
AcDbSpline
 70
8
 71
3
 72
8
 73
4
 74
0
 40
0
 40
0
 40
0
 40
0
 40
1
 40
1
 40
1
 40
1
 10
130.316111
 20
135.888363
 30
0.0
 10
130.316111
 20
135.987869
 30
0.0
 10
130.008209
 20
136.179221
 30
0.0
 10
129.628194
 20
136.311696
 30
0.0
  0
SPLINE
  5
22b
100
AcDbEntity
  8
0
 62
7
100
AcDbSpline
 70
8
 71
3
 72
8
 73
4
 74
0
 40
0
 40
0
 40
0
 40
0
 40
1
 40
1
 40
1
 40
1
 10
129.628194
 20
136.311696
 30
0.0
 10
129.248179
 20
136.444172
 30
0.0
 10
128.927027
 20
136.684755
 30
0.0
 10
128.913819
 20
136.849683
 30
0.0
  0
SPLINE
  5
22c
100
AcDbEntity
  8
0
 62
7
100
AcDbSpline
 70
8
 71
3
 72
8
 73
4
 74
0
 40
0
 40
0
 40
0
 40
0
 40
1
 40
1
 40
1
 40
1
 10
128.913819
 20
136.849683
 30
0.0
 10
128.900631
 20
137.014610
 30
0.0
 10
128.865588
 20
138.604058
 30
0.0
 10
128.843264
 20
140.377460
 30
0.0
  0
SPLINE
  5
22d
100
AcDbEntity
  8
0
 62
7
100
AcDbSpline
 70
8
 71
3
 72
8
 73
4
 74
0
 40
0
 40
0
 40
0
 40
0
 40
1
 40
1
 40
1
 40
1
 10
128.843264
 20
140.377460
 30
0.0
 10
128.797383
 20
144.023365
 30
0.0
 10
128.337970
 20
148.631656
 30
0.0
 10
128.005417
 20
148.747113
 30
0.0
  0
SPLINE
  5
22e
100
AcDbEntity
  8
0
 62
7
100
AcDbSpline
 70
8
 71
3
 72
8
 73
4
 74
0
 40
0
 40
0
 40
0
 40
0
 40
1
 40
1
 40
1
 40
1
 10
128.005417
 20
148.747113
 30
0.0
 10
127.740904
 20
148.838951
 30
0.0
 10
127.701551
 20
150.321699
 30
0.0
 10
127.961319
 20
150.431627
 30
0.0
  0
SPLINE
  5
22f
100
AcDbEntity
  8
0
 62
7
100
AcDbSpline
 70
8
 71
3
 72
8
 73
4
 74
0
 40
0
 40
0
 40
0
 40
0
 40
1
 40
1
 40
1
 40
1
 10
127.961319
 20
150.431627
 30
0.0
 10
128.183276
 20
150.525556
 30
0.0
 10
129.169583
 20
152.869821
 30
0.0
 10
129.169583
 20
153.306766
 30
0.0
  0
SPLINE
  5
230
100
AcDbEntity
  8
0
 62
7
100
AcDbSpline
 70
8
 71
3
 72
8
 73
4
 74
0
 40
0
 40
0
 40
0
 40
0
 40
1
 40
1
 40
1
 40
1
 10
129.169583
 20
153.306766
 30
0.0
 10
129.169583
 20
153.479881
 30
0.0
 10
129.252500
 20
153.615446
 30
0.0
 10
129.354792
 20
153.615446
 30
0.0
  0
SPLINE
  5
231
100
AcDbEntity
  8
0
 62
7
100
AcDbSpline
 70
8
 71
3
 72
8
 73
4
 74
0
 40
0
 40
0
 40
0
 40
0
 40
1
 40
1
 40
1
 40
1
 10
129.354792
 20
153.615446
 30
0.0
 10
129.457089
 20
153.615446
 30
0.0
 10
129.728555
 20
154.056052
 30
0.0
 10
129.963333
 20
154.594405
 30
0.0
  0
SPLINE
  5
232
100
AcDbEntity
  8
0
 62
7
100
AcDbSpline
 70
8
 71
3
 72
8
 73
4
 74
0
 40
0
 40
0
 40
0
 40
0
 40
1
 40
1
 40
1
 40
1
 10
129.963333
 20
154.594405
 30
0.0
 10
130.198117
 20
155.132758
 30
0.0
 10
130.482899
 20
155.638003
 30
0.0
 10
130.598333
 20
155.714474
 30
0.0
  0
SPLINE
  5
233
100
AcDbEntity
  8
0
 62
7
100
AcDbSpline
 70
8
 71
3
 72
8
 73
4
 74
0
 40
0
 40
0
 40
0
 40
0
 40
1
 40
1
 40
1
 40
1
 10
130.598333
 20
155.714474
 30
0.0
 10
130.906407
 20
155.918563
 30
0.0
 10
131.243866
 20
157.574220
 30
0.0
 10
131.083403
 20
158.095724
 30
0.0
  0
SPLINE
  5
234
100
AcDbEntity
  8
0
 62
7
100
AcDbSpline
 70
8
 71
3
 72
8
 73
4
 74
0
 40
0
 40
0
 40
0
 40
0
 40
1
 40
1
 40
1
 40
1
 10
131.083403
 20
158.095724
 30
0.0
 10
131.007389
 20
158.342776
 30
0.0
 10
130.480520
 20
158.984721
 30
0.0
 10
129.910417
 20
159.515655
 30
0.0
  0
SPLINE
  5
235
100
AcDbEntity
  8
0
 62
7
100
AcDbSpline
 70
8
 71
3
 72
8
 73
4
 74
0
 40
0
 40
0
 40
0
 40
0
 40
1
 40
1
 40
1
 40
1
 10
129.910417
 20
159.515655
 30
0.0
 10
128.939942
 20
160.419455
 30
0.0
 10
128.886811
 20
160.530314
 30
0.0
 10
129.037292
 20
161.332460
 30
0.0
  0
SPLINE
  5
236
100
AcDbEntity
  8
0
 62
7
100
AcDbSpline
 70
8
 71
3
 72
8
 73
4
 74
0
 40
0
 40
0
 40
0
 40
0
 40
1
 40
1
 40
1
 40
1
 10
129.037292
 20
161.332460
 30
0.0
 10
129.265519
 20
162.549013
 30
0.0
 10
130.031388
 20
163.201288
 30
0.0
 10
131.788958
 20
163.669613
 30
0.0
  0
SPLINE
  5
237
100
AcDbEntity
  8
0
 62
7
100
AcDbSpline
 70
8
 71
3
 72
8
 73
4
 74
0
 40
0
 40
0
 40
0
 40
0
 40
1
 40
1
 40
1
 40
1
 10
131.788958
 20
163.669613
 30
0.0
 10
132.624122
 20
163.892154
 30
0.0
 10
133.314722
 20
164.160335
 30
0.0
 10
133.314722
 20
164.260516
 30
0.0
  0
SPLINE
  5
238
100
AcDbEntity
  8
0
 62
7
100
AcDbSpline
 70
8
 71
3
 72
8
 73
4
 74
0
 40
0
 40
0
 40
0
 40
0
 40
1
 40
1
 40
1
 40
1
 10
133.314722
 20
164.260516
 30
0.0
 10
133.314722
 20
164.360699
 30
0.0
 10
133.468674
 20
164.445724
 30
0.0
 10
133.658681
 20
164.445724
 30
0.0
  0
SPLINE
  5
239
100
AcDbEntity
  8
0
 62
7
100
AcDbSpline
 70
8
 71
3
 72
8
 73
4
 74
0
 40
0
 40
0
 40
0
 40
0
 40
1
 40
1
 40
1
 40
1
 10
133.658681
 20
164.445724
 30
0.0
 10
134.083445
 20
164.445724
 30
0.0
 10
134.081661
 20
164.969413
 30
0.0
 10
133.658681
 20
166.156696
 30
0.0
  0
SPLINE
  5
23a
100
AcDbEntity
  8
0
 62
7
100
AcDbSpline
 70
8
 71
3
 72
8
 73
4
 74
0
 40
0
 40
0
 40
0
 40
0
 40
1
 40
1
 40
1
 40
1
 10
133.658681
 20
166.156696
 30
0.0
 10
133.303998
 20
167.152272
 30
0.0
 10
133.370393
 20
167.433272
 30
0.0
 10
133.958542
 20
167.444335
 30
0.0
  0
SPLINE
  5
23b
100
AcDbEntity
  8
0
 62
7
100
AcDbSpline
 70
8
 71
3
 72
8
 73
4
 74
0
 40
0
 40
0
 40
0
 40
0
 40
1
 40
1
 40
1
 40
1
 10
133.958542
 20
167.444335
 30
0.0
 10
134.546210
 20
167.455387
 30
0.0
 10
135.157986
 20
168.008213
 30
0.0
 10
135.157986
 20
168.529127
 30
0.0
  0
SPLINE
  5
23c
100
AcDbEntity
  8
0
 62
7
100
AcDbSpline
 70
8
 71
3
 72
8
 73
4
 74
0
 40
0
 40
0
 40
0
 40
0
 40
1
 40
1
 40
1
 40
1
 10
135.157986
 20
168.529127
 30
0.0
 10
135.157986
 20
168.950505
 30
0.0
 10
134.617847
 20
169.563794
 30
0.0
 10
132.785556
 20
171.227877
 30
0.0
  0
SPLINE
  5
23d
100
AcDbEntity
  8
0
 62
7
100
AcDbSpline
 70
8
 71
3
 72
8
 73
4
 74
0
 40
0
 40
0
 40
0
 40
0
 40
1
 40
1
 40
1
 40
1
 10
132.785556
 20
171.227877
 30
0.0
 10
132.430684
 20
171.550172
 30
0.0
 10
132.057290
 20
171.809960
 30
0.0
 10
131.956528
 20
171.809960
 30
0.0
  0
SPLINE
  5
23e
100
AcDbEntity
  8
0
 62
7
100
AcDbSpline
 70
8
 71
3
 72
8
 73
4
 74
0
 40
0
 40
0
 40
0
 40
0
 40
1
 40
1
 40
1
 40
1
 10
131.956528
 20
171.809960
 30
0.0
 10
131.855763
 20
171.809960
 30
0.0
 10
131.536084
 20
172.012475
 30
0.0
 10
131.250972
 20
172.259752
 30
0.0
  0
SPLINE
  5
23f
100
AcDbEntity
  8
0
 62
7
100
AcDbSpline
 70
8
 71
3
 72
8
 73
4
 74
0
 40
0
 40
0
 40
0
 40
0
 40
1
 40
1
 40
1
 40
1
 10
131.250972
 20
172.259752
 30
0.0
 10
130.965857
 20
172.507030
 30
0.0
 10
130.207391
 20
172.884715
 30
0.0
 10
129.566458
 20
173.097599
 30
0.0
  0
SPLINE
  5
240
100
AcDbEntity
  8
0
 62
7
100
AcDbSpline
 70
8
 71
3
 72
8
 73
4
 74
0
 40
0
 40
0
 40
0
 40
0
 40
1
 40
1
 40
1
 40
1
 10
129.566458
 20
173.097599
 30
0.0
 10
128.336554
 20
173.506108
 30
0.0
 10
127.097014
 20
174.442061
 30
0.0
 10
127.097014
 20
174.958502
 30
0.0
  0
SPLINE
  5
241
100
AcDbEntity
  8
0
 62
7
100
AcDbSpline
 70
8
 71
3
 72
8
 73
4
 74
0
 40
0
 40
0
 40
0
 40
0
 40
1
 40
1
 40
1
 40
1
 10
127.097014
 20
174.958502
 30
0.0
 10
127.097014
 20
175.127571
 30
0.0
 10
126.991807
 20
175.267183
 30
0.0
 10
126.867708
 20
175.267183
 30
0.0
  0
SPLINE
  5
242
100
AcDbEntity
  8
0
 62
7
100
AcDbSpline
 70
8
 71
3
 72
8
 73
4
 74
0
 40
0
 40
0
 40
0
 40
0
 40
1
 40
1
 40
1
 40
1
 10
126.867708
 20
175.267183
 30
0.0
 10
126.743612
 20
175.267183
 30
0.0
 10
126.429465
 20
175.677719
 30
0.0
 10
126.170972
 20
176.184405
 30
0.0
  0
SPLINE
  5
243
100
AcDbEntity
  8
0
 62
7
100
AcDbSpline
 70
8
 71
3
 72
8
 73
4
 74
0
 40
0
 40
0
 40
0
 40
0
 40
1
 40
1
 40
1
 40
1
 10
126.170972
 20
176.184405
 30
0.0
 10
125.912479
 20
176.691091
 30
0.0
 10
125.607437
 20
177.110446
 30
0.0
 10
125.491875
 20
177.110446
 30
0.0
  0
SPLINE
  5
244
100
AcDbEntity
  8
0
 62
7
100
AcDbSpline
 70
8
 71
3
 72
8
 73
4
 74
0
 40
0
 40
0
 40
0
 40
0
 40
1
 40
1
 40
1
 40
1
 10
125.491875
 20
177.110446
 30
0.0
 10
125.376316
 20
177.110446
 30
0.0
 10
125.223050
 20
177.305877
 30
0.0
 10
125.147917
 20
177.542599
 30
0.0
  0
SPLINE
  5
245
100
AcDbEntity
  8
0
 62
7
100
AcDbSpline
 70
8
 71
3
 72
8
 73
4
 74
0
 40
0
 40
0
 40
0
 40
0
 40
1
 40
1
 40
1
 40
1
 10
125.147917
 20
177.542599
 30
0.0
 10
124.968897
 20
178.106638
 30
0.0
 10
121.407868
 20
181.658712
 30
0.0
 10
120.844028
 20
181.837669
 30
0.0
  0
SPLINE
  5
246
100
AcDbEntity
  8
0
 62
7
100
AcDbSpline
 70
8
 71
3
 72
8
 73
4
 74
0
 40
0
 40
0
 40
0
 40
0
 40
1
 40
1
 40
1
 40
1
 10
120.844028
 20
181.837669
 30
0.0
 10
120.289978
 20
182.013517
 30
0.0
 10
119.779277
 20
182.997100
 30
0.0
 10
119.574028
 20
184.280655
 30
0.0
  0
SPLINE
  5
247
100
AcDbEntity
  8
0
 62
7
100
AcDbSpline
 70
8
 71
3
 72
8
 73
4
 74
0
 40
0
 40
0
 40
0
 40
0
 40
1
 40
1
 40
1
 40
1
 10
119.574028
 20
184.280655
 30
0.0
 10
119.486076
 20
184.830679
 30
0.0
 10
119.275612
 20
185.416919
 30
0.0
 10
119.106597
 20
185.585933
 30
0.0
  0
SPLINE
  5
248
100
AcDbEntity
  8
0
 62
7
100
AcDbSpline
 70
8
 71
3
 72
8
 73
4
 74
0
 40
0
 40
0
 40
0
 40
0
 40
1
 40
1
 40
1
 40
1
 10
119.106597
 20
185.585933
 30
0.0
 10
118.937583
 20
185.754946
 30
0.0
 10
118.798072
 20
186.018724
 30
0.0
 10
118.797917
 20
186.168016
 30
0.0
  0
SPLINE
  5
249
100
AcDbEntity
  8
0
 62
7
100
AcDbSpline
 70
8
 71
3
 72
8
 73
4
 74
0
 40
0
 40
0
 40
0
 40
0
 40
1
 40
1
 40
1
 40
1
 10
118.797917
 20
186.168016
 30
0.0
 10
118.797761
 20
186.317307
 30
0.0
 10
118.527813
 20
186.749321
 30
0.0
 10
118.198194
 20
187.129335
 30
0.0
  0
SPLINE
  5
24a
100
AcDbEntity
  8
0
 62
7
100
AcDbSpline
 70
8
 71
3
 72
8
 73
4
 74
0
 40
0
 40
0
 40
0
 40
0
 40
1
 40
1
 40
1
 40
1
 10
118.198194
 20
187.129335
 30
0.0
 10
117.868576
 20
187.509350
 30
0.0
 10
117.427815
 20
188.031987
 30
0.0
 10
117.219236
 20
188.293502
 30
0.0
  0
SPLINE
  5
24b
100
AcDbEntity
  8
0
 62
7
100
AcDbSpline
 70
8
 71
3
 72
8
 73
4
 74
0
 40
0
 40
0
 40
0
 40
0
 40
1
 40
1
 40
1
 40
1
 10
117.219236
 20
188.293502
 30
0.0
 10
117.010657
 20
188.555017
 30
0.0
 10
116.532098
 20
188.968594
 30
0.0
 10
116.152083
 20
189.210724
 30
0.0
  0
SPLINE
  5
24c
100
AcDbEntity
  8
0
 62
7
100
AcDbSpline
 70
8
 71
3
 72
8
 73
4
 74
0
 40
0
 40
0
 40
0
 40
0
 40
1
 40
1
 40
1
 40
1
 10
116.152083
 20
189.210724
 30
0.0
 10
115.772068
 20
189.452854
 30
0.0
 10
115.381749
 20
189.767993
 30
0.0
 10
115.287778
 20
189.916280
 30
0.0
  0
SPLINE
  5
24d
100
AcDbEntity
  8
0
 62
7
100
AcDbSpline
 70
8
 71
3
 72
8
 73
4
 74
0
 40
0
 40
0
 40
0
 40
0
 40
1
 40
1
 40
1
 40
1
 10
115.287778
 20
189.916280
 30
0.0
 10
115.193809
 20
190.064567
 30
0.0
 10
114.599252
 20
190.376073
 30
0.0
 10
113.964861
 20
190.604196
 30
0.0
  0
SPLINE
  5
24e
100
AcDbEntity
  8
0
 62
7
100
AcDbSpline
 70
8
 71
3
 72
8
 73
4
 74
0
 40
0
 40
0
 40
0
 40
0
 40
1
 40
1
 40
1
 40
1
 10
113.964861
 20
190.604196
 30
0.0
 10
113.330471
 20
190.832320
 30
0.0
 10
112.809514
 20
191.094812
 30
0.0
 10
112.809514
 20
191.186280
 30
0.0
  0
SPLINE
  5
24f
100
AcDbEntity
  8
0
 62
7
100
AcDbSpline
 70
8
 71
3
 72
8
 73
4
 74
0
 40
0
 40
0
 40
0
 40
0
 40
1
 40
1
 40
1
 40
1
 10
112.809514
 20
191.186280
 30
0.0
 10
112.809514
 20
191.277748
 30
0.0
 10
112.266276
 20
191.531858
 30
0.0
 10
111.601250
 20
191.750724
 30
0.0
  0
SPLINE
  5
250
100
AcDbEntity
  8
0
 62
7
100
AcDbSpline
 70
8
 71
3
 72
8
 73
4
 74
0
 40
0
 40
0
 40
0
 40
0
 40
1
 40
1
 40
1
 40
1
 10
111.601250
 20
191.750724
 30
0.0
 10
110.936224
 20
191.969590
 30
0.0
 10
110.341667
 20
192.213373
 30
0.0
 10
110.278333
 20
192.297530
 30
0.0
  0
SPLINE
  5
251
100
AcDbEntity
  8
0
 62
7
100
AcDbSpline
 70
8
 71
3
 72
8
 73
4
 74
0
 40
0
 40
0
 40
0
 40
0
 40
1
 40
1
 40
1
 40
1
 10
110.278333
 20
192.297530
 30
0.0
 10
110.214997
 20
192.381686
 30
0.0
 10
109.578634
 20
192.580729
 30
0.0
 10
108.858403
 20
192.738502
 30
0.0
  0
SPLINE
  5
252
100
AcDbEntity
  8
0
 62
7
100
AcDbSpline
 70
8
 71
3
 72
8
 73
4
 74
0
 40
0
 40
0
 40
0
 40
0
 40
1
 40
1
 40
1
 40
1
 10
108.858403
 20
192.738502
 30
0.0
 10
108.383160
 20
192.842608
 30
0.0
 10
107.859373
 20
192.895153
 30
0.0
 10
107.385556
 20
192.897252
 30
0.0
  0
LWPOLYLINE
  5
253
100
AcDbEntity
  8
0
 62
7
100
AcDbPolyline
 90
5
 70
0
 10
70.837778
 20
0.571627
 30
0.0
 10
70.731944
 20
-0.001637
 30
0.0
 10
104.554514
 20
-0.001637
 30
0.0
 10
138.377083
 20
-0.001637
 30
0.0
 10
138.377083
 20
0.809752
 30
0.0
  0
LWPOLYLINE
  5
254
100
AcDbEntity
  8
0
 62
7
100
AcDbPolyline
 90
2
 70
0
 10
107.385556
 20
192.897252
 30
0.0
 10
107.385556
 20
192.897252
 30
0.0
  0
ENDSEC
  0
SECTION
  2
OBJECTS
  0
DICTIONARY
  5
C
330
0
100
AcDbDictionary
  3
ACAD_GROUP
350
D
  3
ACAD_MLINESTYLE
350
17
  0
DICTIONARY
  5
D
330
C
100
AcDbDictionary
  0
DICTIONARY
  5
1A
330
C
100
AcDbDictionary
  0
DICTIONARY
  5
17
330
C
100
AcDbDictionary
  3
STANDARD
350
18
  0
DICTIONARY
  5
19
330
C
100
AcDbDictionary
  0
ENDSEC
  0
EOF
