999
dxfrw 0.5.10
0
SECTION
2
HEADER
9
$ACADVER
1
AC1021
9
$HANDSEED
5
20000
9
$DWGCODEPAGE
3
ANSI_1252
9
$INSBASE
10
0
20
0
30
0
9
$EXTMIN
10
2.5
20
2.5
30
0
9
$EXTMAX
10
127.783255263
20
77.5
30
0
9
$LIMMIN
10
0
20
0
9
$LIMMAX
10
420
20
297
9
$ORTHOMODE
70
0
9
$LTSCALE
40
1
9
$TEXTSTYLE
7
STANDARD
9
$CLAYER
8
patchy
9
$DIMASZ
40
2.5
9
$DIMLFAC
40
1
9
$DIMSCALE
40
1
9
$DIMEXO
40
0.625
9
$DIMEXE
40
1.25
9
$DIMTXT
40
2.5
9
$DIMTSZ
40
0
9
$DIMAUNIT
70
0
9
$DIMADEC
70
0
9
$DIMLUNIT
70
2
9
$DIMSTYLE
2
Standard
9
$DIMGAP
40
0.625
9
$DIMTIH
70
0
9
$LUNITS
70
2
9
$LUPREC
70
4
9
$AUNITS
70
0
9
$AUPREC
70
2
9
$SPLINESEGS
70
8
9
$GRIDMODE
70
0
9
$SNAPSTYLE
70
0
9
$PINSBASE
10
0
20
0
30
0
9
$PLIMMIN
10
0
20
0
9
$PLIMMAX
10
210
20
297
9
$INSUNITS
70
4
9
$PSVPSCALE
40
1
0
ENDSEC
0
SECTION
2
CLASSES
0
ENDSEC
0
SECTION
2
TABLES
0
TABLE
2
VPORT
5
8
330
0
100
AcDbSymbolTable
70
1
0
VPORT
5
31
330
2
100
AcDbSymbolTableRecord
100
AcDbViewportTableRecord
2
*ACTIVE
70
0
10
0
20
0
11
1
21
1
12
72.4524456522
22
39.2323369565
13
0
23
0
14
10
24
10
15
10
25
10
16
0
26
0
36
1
17
0
27
0
37
0
40
77.0380434783
41
2.06878306878
42
50
43
0
44
0
50
0
51
0
71
0
72
100
73
1
74
3
75
0
76
0
77
0
78
0
281
0
65
1
110
0
120
0
130
0
111
1
121
0
131
0
112
0
122
1
132
0
79
0
146
0
348
10020
60
7
61
5
292
1
282
1
141
0
142
0
63
250
421
3358443
0
ENDTAB
0
TABLE
2
LTYPE
5
5
330
0
100
AcDbSymbolTable
70
4
0
LTYPE
5
14
330
5
100
AcDbSymbolTableRecord
100
AcDbLinetypeTableRecord
2
ByBlock
70
0
3

72
65
73
0
40
0
0
LTYPE
5
15
330
5
100
AcDbSymbolTableRecord
100
AcDbLinetypeTableRecord
2
ByLayer
70
0
3

72
65
73
0
40
0
0
LTYPE
5
16
330
5
100
AcDbSymbolTableRecord
100
AcDbLinetypeTableRecord
2
Continuous
70
0
3
Solid line
72
65
73
0
40
0
0
LTYPE
5
32
330
5
100
AcDbSymbolTableRecord
100
AcDbLinetypeTableRecord
2
DOT
70
0
3
Dot . . . . . . . . . . . . . . . . . . . . . .
72
65
73
2
40
6.35
49
0
74
0
49
-6.35
74
0
0
LTYPE
5
33
330
5
100
AcDbSymbolTableRecord
100
AcDbLinetypeTableRecord
2
DOT2
70
0
3
Dot (.5x) .....................................
72
65
73
2
40
3.175
49
0
74
0
49
-3.175
74
0
0
LTYPE
5
34
330
5
100
AcDbSymbolTableRecord
100
AcDbLinetypeTableRecord
2
DOTX2
70
0
3
Dot (2x) .  .  .  .  .  .  .  .  .  .  .  .  .
72
65
73
2
40
12.7
49
0
74
0
49
-12.7
74
0
0
LTYPE
5
35
330
5
100
AcDbSymbolTableRecord
100
AcDbLinetypeTableRecord
2
DASHED
70
0
3
Dot . . . . . . . . . . . . . . . . . . . . . .
72
65
73
2
40
19.05
49
12.7
74
0
49
-6.35
74
0
0
LTYPE
5
36
330
5
100
AcDbSymbolTableRecord
100
AcDbLinetypeTableRecord
2
DASHED2
70
0
3
Dashed (.5x) _ _ _ _ _ _ _ _ _ _ _ _ _ _ _ _ _
72
65
73
2
40
9.525
49
6.35
74
0
49
-3.175
74
0
0
LTYPE
5
37
330
5
100
AcDbSymbolTableRecord
100
AcDbLinetypeTableRecord
2
DASHEDX2
70
0
3
Dashed (2x) ____  ____  ____  ____  ____  ___
72
65
73
2
40
38.1
49
25.4
74
0
49
-12.7
74
0
0
LTYPE
5
38
330
5
100
AcDbSymbolTableRecord
100
AcDbLinetypeTableRecord
2
DASHDOT
70
0
3
Dash dot __ . __ . __ . __ . __ . __ . __ . __
72
65
73
4
40
25.4
49
12.7
74
0
49
-6.35
74
0
49
0
74
0
49
-6.35
74
0
0
LTYPE
5
39
330
5
100
AcDbSymbolTableRecord
100
AcDbLinetypeTableRecord
2
DASHDOT2
70
0
3
Dash dot (.5x) _._._._._._._._._._._._._._._.
72
65
73
4
40
12.7
49
6.35
74
0
49
-3.175
74
0
49
0
74
0
49
-3.175
74
0
0
LTYPE
5
3A
330
5
100
AcDbSymbolTableRecord
100
AcDbLinetypeTableRecord
2
DASHDOTX2
70
0
3
Dash dot (2x) ____  .  ____  .  ____  .  ___
72
65
73
4
40
50.8
49
25.4
74
0
49
-12.7
74
0
49
0
74
0
49
-12.7
74
0
0
LTYPE
5
3B
330
5
100
AcDbSymbolTableRecord
100
AcDbLinetypeTableRecord
2
DIVIDE
70
0
3
Divide ____ . . ____ . . ____ . . ____ . . ____
72
65
73
6
40
31.75
49
12.7
74
0
49
-6.35
74
0
49
0
74
0
49
-6.35
74
0
49
0
74
0
49
-6.35
74
0
0
LTYPE
5
3C
330
5
100
AcDbSymbolTableRecord
100
AcDbLinetypeTableRecord
2
DIVIDE2
70
0
3
Divide (.5x) __..__..__..__..__..__..__..__.._
72
65
73
6
40
15.875
49
6.35
74
0
49
-3.175
74
0
49
0
74
0
49
-3.175
74
0
49
0
74
0
49
-3.175
74
0
0
LTYPE
5
3D
330
5
100
AcDbSymbolTableRecord
100
AcDbLinetypeTableRecord
2
DIVIDEX2
70
0
3
Divide (2x) ________  .  .  ________  .  .  _
72
65
73
6
40
63.5
49
25.4
74
0
49
-12.7
74
0
49
0
74
0
49
-12.7
74
0
49
0
74
0
49
-12.7
74
0
0
LTYPE
5
3E
330
5
100
AcDbSymbolTableRecord
100
AcDbLinetypeTableRecord
2
BORDER
70
0
3
Border __ __ . __ __ . __ __ . __ __ . __ __ .
72
65
73
6
40
44.45
49
12.7
74
0
49
-6.35
74
0
49
12.7
74
0
49
-6.35
74
0
49
0
74
0
49
-6.35
74
0
0
LTYPE
5
3F
330
5
100
AcDbSymbolTableRecord
100
AcDbLinetypeTableRecord
2
BORDER2
70
0
3
Border (.5x) __.__.__.__.__.__.__.__.__.__.__.
72
65
73
6
40
22.225
49
6.35
74
0
49
-3.175
74
0
49
6.35
74
0
49
-3.175
74
0
49
0
74
0
49
-3.175
74
0
0
LTYPE
5
40
330
5
100
AcDbSymbolTableRecord
100
AcDbLinetypeTableRecord
2
BORDERX2
70
0
3
Border (2x) ____  ____  .  ____  ____  .  ___
72
65
73
6
40
88.9
49
25.4
74
0
49
-12.7
74
0
49
25.4
74
0
49
-12.7
74
0
49
0
74
0
49
-12.7
74
0
0
LTYPE
5
41
330
5
100
AcDbSymbolTableRecord
100
AcDbLinetypeTableRecord
2
CENTER
70
0
3
Center ____ _ ____ _ ____ _ ____ _ ____ _ ____
72
65
73
4
40
50.8
49
31.75
74
0
49
-6.35
74
0
49
6.35
74
0
49
-6.35
74
0
0
LTYPE
5
42
330
5
100
AcDbSymbolTableRecord
100
AcDbLinetypeTableRecord
2
CENTER2
70
0
3
Center (.5x) ___ _ ___ _ ___ _ ___ _ ___ _ ___
72
65
73
4
40
28.575
49
19.05
74
0
49
-3.175
74
0
49
3.175
74
0
49
-3.175
74
0
0
LTYPE
5
43
330
5
100
AcDbSymbolTableRecord
100
AcDbLinetypeTableRecord
2
CENTERX2
70
0
3
Center (2x) ________  __  ________  __  _____
72
65
73
4
40
101.6
49
63.5
74
0
49
-12.7
74
0
49
12.7
74
0
49
-12.7
74
0
0
ENDTAB
0
TABLE
2
LAYER
5
2
330
0
100
AcDbSymbolTable
70
1
0
LAYER
5
10
330
2
100
AcDbSymbolTableRecord
100
AcDbLayerTableRecord
2
0
70
0
62
7
6
CONTINUOUS
370
-3
390
F
0
LAYER
5
44
330
2
100
AcDbSymbolTableRecord
100
AcDbLayerTableRecord
2
patchy
70
0
62
7
6
CONTINUOUS
370
0
390
F
0
LAYER
5
45
330
2
100
AcDbSymbolTableRecord
100
AcDbLayerTableRecord
2
name
70
0
62
7
6
CONTINUOUS
370
-3
390
F
0
ENDTAB
0
TABLE
2
STYLE
5
3
330
0
100
AcDbSymbolTable
70
3
0
STYLE
5
46
330
2
100
AcDbSymbolTableRecord
100
AcDbTextStyleTableRecord
2
Standard
70
0
40
0
41
1
50
0
71
0
42
1
3
txt
4

0
ENDTAB
0
TABLE
2
VIEW
5
6
330
0
100
AcDbSymbolTable
70
0
0
ENDTAB
0
TABLE
2
UCS
5
7
330
0
100
AcDbSymbolTable
70
0
0
ENDTAB
0
TABLE
2
APPID
5
9
330
0
100
AcDbSymbolTable
70
1
0
APPID
5
12
330
9
100
AcDbSymbolTableRecord
100
AcDbRegAppTableRecord
2
ACAD
70
0
0
ENDTAB
0
TABLE
2
DIMSTYLE
5
A
330
0
100
AcDbSymbolTable
70
1
100
AcDbDimStyleTable
71
1
0
DIMSTYLE
105
47
330
A
100
AcDbSymbolTableRecord
100
AcDbDimStyleTableRecord
2
Standard
70
0
40
1
41
2.5
42
0.625
43
0.38
44
1.25
45
0
46
0
47
0
48
0
140
2.5
141
0.09
142
0
143
25.4
144
1
145
0
146
1
147
0.625
148
0
71
0
72
0
73
0
74
1
75
0
76
0
77
0
78
0
79
0
170
0
171
2
172
0
173
0
174
0
175
0
176
0
177
0
178
0
179
0
271
4
272
4
273
2
274
2
275
0
276
0
277
2
278
46
279
0
280
0
281
0
282
0
283
1
284
0
285
0
286
0
288
0
289
3
340
Standard
341

371
-2
372
-2
0
ENDTAB
0
TABLE
2
BLOCK_RECORD
5
1
330
0
100
AcDbSymbolTable
70
2
0
BLOCK_RECORD
5
1F
330
1
100
AcDbSymbolTableRecord
100
AcDbBlockTableRecord
2
*Model_Space
70
0
280
1
281
0
0
BLOCK_RECORD
5
1E
330
1
100
AcDbSymbolTableRecord
100
AcDbBlockTableRecord
2
*Paper_Space
70
0
280
1
281
0
0
ENDTAB
0
ENDSEC
0
SECTION
2
BLOCKS
0
BLOCK
5
20
330
1F
100
AcDbEntity
8
0
100
AcDbBlockBegin
2
*Model_Space
70
0
10
0
20
0
30
0
3
*Model_Space
1

0
ENDBLK
5
21
330
1F
100
AcDbEntity
8
0
100
AcDbBlockEnd
0
BLOCK
5
1C
330
1B
100
AcDbEntity
8
0
100
AcDbBlockBegin
2
*Paper_Space
70
0
10
0
20
0
30
0
3
*Paper_Space
1

0
ENDBLK
5
1D
330
1F
100
AcDbEntity
8
0
100
AcDbBlockEnd
0
ENDSEC
0
SECTION
2
ENTITIES
0
CIRCLE
5
48
100
AcDbEntity
8
0
6
ByLayer
62
256
370
-1
100
AcDbCircle
10
40
20
40
40
37.5
0
SPLINE
5
49
100
AcDbEntity
8
name
6
ByLayer
62
7
370
-1
100
AcDbSpline
210
0
220
0
230
1
70
8
71
3
72
8
73
4
74
0
42
1e-07
43
1e-07
40
0
40
0
40
0
40
0
40
1
40
1
40
1
40
1
10
10.3372518852
20
38.3261621774
30
0
10
10.2530509252
20
38.4172264974
30
0
10
10.1883949252
20
38.5075196174
30
0
10
10.0574656452
20
38.7168879374
30
0
0
SPLINE
5
4A
100
AcDbEntity
8
name
6
ByLayer
62
7
370
-1
100
AcDbSpline
210
0
220
0
230
1
70
8
71
3
72
8
73
4
74
0
42
1e-07
43
1e-07
40
0
40
0
40
0
40
0
40
1
40
1
40
1
40
1
10
10.0967866052
20
41.6016200974
30
0
10
10.1052870852
20
43.0315272974
30
0
10
10.1133427652
20
44.2038357774
30
0
10
10.1146874052
20
44.2067496974
30
0
0
SPLINE
5
4B
100
AcDbEntity
8
name
6
ByLayer
62
7
370
-1
100
AcDbSpline
210
0
220
0
230
1
70
8
71
3
72
8
73
4
74
0
42
1e-07
43
1e-07
40
0
40
0
40
0
40
0
40
1
40
1
40
1
40
1
10
10.1146874052
20
44.2067496974
30
0
10
10.1160307652
20
44.2096629774
30
0
10
10.2648858052
20
44.2120469774
30
0
10
10.4454739652
20
44.2120469774
30
0
0
LWPOLYLINE
5
4C
100
AcDbEntity
8
name
6
ByLayer
62
7
370
-1
100
AcDbPolyline
90
5
70
0
43
0
10
10.0574656452
20
38.7168879374
10
9.94895684522
20
38.8904028174
10
10.0151437252
20
38.9460936974
10
10.0813306052
20
39.0017871374
10
10.0967866052
20
41.6016200974
0
SPLINE
5
4D
100
AcDbEntity
8
name
6
ByLayer
62
7
370
-1
100
AcDbSpline
210
0
220
0
230
1
70
8
71
3
72
8
73
4
74
0
42
1e-07
43
1e-07
40
0
40
0
40
0
40
0
40
1
40
1
40
1
40
1
10
10.7635347652
20
43.8359016974
30
0
10
10.7578803652
20
43.6290210574
30
0
10
10.7483808452
20
42.7096808974
30
0
10
10.7424250052
20
41.7929237774
30
0
0
SPLINE
5
4E
100
AcDbEntity
8
name
6
ByLayer
62
7
370
-1
100
AcDbSpline
210
0
220
0
230
1
70
8
71
3
72
8
73
4
74
0
42
1e-07
43
1e-07
40
0
40
0
40
0
40
0
40
1
40
1
40
1
40
1
10
10.7424250052
20
41.7929237774
30
0
10
10.7364685252
20
40.8761647374
30
0
10
10.7253331652
20
39.9109180174
30
0
10
10.7176794052
20
39.6479285774
30
0
0
SPLINE
5
4F
100
AcDbEntity
8
name
6
ByLayer
62
7
370
-1
100
AcDbSpline
210
0
220
0
230
1
70
8
71
3
72
8
73
4
74
0
42
1e-07
43
1e-07
40
0
40
0
40
0
40
0
40
1
40
1
40
1
40
1
10
10.7176794052
20
39.6479285774
30
0
10
10.7051226052
20
39.2164636174
30
0
10
10.7071558852
20
39.1684648974
30
0
10
10.7384954052
20
39.1564392974
30
0
0
SPLINE
5
50
100
AcDbEntity
8
name
6
ByLayer
62
7
370
-1
100
AcDbSpline
210
0
220
0
230
1
70
8
71
3
72
8
73
4
74
0
42
1e-07
43
1e-07
40
0
40
0
40
0
40
0
40
1
40
1
40
1
40
1
10
10.7384954052
20
39.1564392974
30
0
10
10.7781376452
20
39.1412309774
30
0
10
11.1403520452
20
39.2725935374
30
0
10
11.4839706052
20
39.4268072974
30
0
0
SPLINE
5
51
100
AcDbEntity
8
name
6
ByLayer
62
7
370
-1
100
AcDbSpline
210
0
220
0
230
1
70
8
71
3
72
8
73
4
74
0
42
1e-07
43
1e-07
40
0
40
0
40
0
40
0
40
1
40
1
40
1
40
1
10
11.4839706052
20
39.4268072974
30
0
10
12.1931974852
20
39.7451016974
30
0
10
12.9116064452
20
40.2391900174
30
0
10
13.5250080452
20
40.8305416974
30
0
0
SPLINE
5
52
100
AcDbEntity
8
name
6
ByLayer
62
7
370
-1
100
AcDbSpline
210
0
220
0
230
1
70
8
71
3
72
8
73
4
74
0
42
1e-07
43
1e-07
40
0
40
0
40
0
40
0
40
1
40
1
40
1
40
1
10
13.5250080452
20
40.8305416974
30
0
10
13.8183955652
20
41.1133813774
30
0
10
14.1725446852
20
41.5086140174
30
0
10
14.3795072452
20
41.7841653774
30
0
0
SPLINE
5
53
100
AcDbEntity
8
name
6
ByLayer
62
7
370
-1
100
AcDbSpline
210
0
220
0
230
1
70
8
71
3
72
8
73
4
74
0
42
1e-07
43
1e-07
40
0
40
0
40
0
40
0
40
1
40
1
40
1
40
1
10
14.3795072452
20
41.7841653774
30
0
10
14.4536589252
20
41.8828917774
30
0
10
14.5202464452
20
41.9641410574
30
0
10
14.5274790852
20
41.9647170574
30
0
0
SPLINE
5
54
100
AcDbEntity
8
name
6
ByLayer
62
7
370
-1
100
AcDbSpline
210
0
220
0
230
1
70
8
71
3
72
8
73
4
74
0
42
1e-07
43
1e-07
40
0
40
0
40
0
40
0
40
1
40
1
40
1
40
1
10
14.5274790852
20
41.9647170574
30
0
10
14.5347130052
20
41.9652591374
30
0
10
14.6428870852
20
41.8463048974
30
0
10
14.7678662852
20
41.7002952974
30
0
0
LWPOLYLINE
5
55
100
AcDbEntity
8
name
6
ByLayer
62
7
370
-1
100
AcDbPolyline
90
3
70
0
43
0
10
10.4454739652
20
44.2120469774
10
10.7738157252
20
44.2120469774
10
10.7635347652
20
43.8359016974
0
SPLINE
5
56
100
AcDbEntity
8
name
6
ByLayer
62
7
370
-1
100
AcDbSpline
210
0
220
0
230
1
70
8
71
3
72
8
73
4
74
0
42
1e-07
43
1e-07
40
0
40
0
40
0
40
0
40
1
40
1
40
1
40
1
10
14.8744819652
20
41.2923618574
30
0
10
13.6989274052
20
39.9039624974
30
0
10
12.4346195652
20
39.0113576974
30
0
10
10.9378682052
20
38.5131100174
30
0
0
SPLINE
5
57
100
AcDbEntity
8
name
6
ByLayer
62
7
370
-1
100
AcDbSpline
210
0
220
0
230
1
70
8
71
3
72
8
73
4
74
0
42
1e-07
43
1e-07
40
0
40
0
40
0
40
0
40
1
40
1
40
1
40
1
10
10.9378682052
20
38.5131100174
30
0
10
10.7700230852
20
38.4572360974
30
0
10
10.6201261252
20
38.3915548174
30
0
10
10.5431571652
20
38.3401570574
30
0
0
SPLINE
5
58
100
AcDbEntity
8
name
6
ByLayer
62
7
370
-1
100
AcDbSpline
210
0
220
0
230
1
70
8
71
3
72
8
73
4
74
0
42
1e-07
43
1e-07
40
0
40
0
40
0
40
0
40
1
40
1
40
1
40
1
10
10.5431571652
20
38.3401570574
30
0
10
10.4749043652
20
38.2945800974
30
0
10
10.4149824452
20
38.2572892174
30
0
10
10.4099968452
20
38.2572892174
30
0
0
SPLINE
5
59
100
AcDbEntity
8
name
6
ByLayer
62
7
370
-1
100
AcDbSpline
210
0
220
0
230
1
70
8
71
3
72
8
73
4
74
0
42
1e-07
43
1e-07
40
0
40
0
40
0
40
0
40
1
40
1
40
1
40
1
10
10.4099968452
20
38.2572892174
30
0
10
10.4050112452
20
38.2572892174
30
0
10
10.3722765252
20
38.2882818574
30
0
10
10.3372518852
20
38.3261621774
30
0
0
LWPOLYLINE
5
5A
100
AcDbEntity
8
name
6
ByLayer
62
7
370
-1
100
AcDbPolyline
90
3
70
0
43
0
10
14.7678662852
20
41.7002952974
10
14.9951014852
20
41.4348220174
10
14.8744819652
20
41.2923618574
0
LWPOLYLINE
5
5B
100
AcDbEntity
8
name
6
ByLayer
62
7
370
-1
100
AcDbPolyline
90
2
70
0
43
0
10
10.3372518852
20
38.3261621774
10
10.3372518852
20
38.3261621774
0
SPLINE
5
5C
100
AcDbEntity
8
name
6
ByLayer
62
7
370
-1
100
AcDbSpline
210
0
220
0
230
1
70
8
71
3
72
8
73
4
74
0
42
1e-07
43
1e-07
40
0
40
0
40
0
40
0
40
1
40
1
40
1
40
1
10
10.2211750852
20
54.1878229774
30
0
10
10.0667110852
20
54.3701135374
30
0
10
10.0112301252
20
54.4494204174
30
0
10
10.0331130052
20
54.4566485774
30
0
0
SPLINE
5
5D
100
AcDbEntity
8
name
6
ByLayer
62
7
370
-1
100
AcDbSpline
210
0
220
0
230
1
70
8
71
3
72
8
73
4
74
0
42
1e-07
43
1e-07
40
0
40
0
40
0
40
0
40
1
40
1
40
1
40
1
10
10.0331130052
20
54.4566485774
30
0
10
10.0501850052
20
54.4622876174
30
0
10
10.1547462852
20
54.5144981774
30
0
10
10.2654707652
20
54.5726728974
30
0
0
SPLINE
5
5E
100
AcDbEntity
8
name
6
ByLayer
62
7
370
-1
100
AcDbSpline
210
0
220
0
230
1
70
8
71
3
72
8
73
4
74
0
42
1e-07
43
1e-07
40
0
40
0
40
0
40
0
40
1
40
1
40
1
40
1
10
10.2654707652
20
54.5726728974
30
0
10
11.2410400452
20
55.0852354574
30
0
10
11.8888749252
20
55.7610440974
30
0
10
12.3138854852
20
56.7095394574
30
0
0
SPLINE
5
5F
100
AcDbEntity
8
name
6
ByLayer
62
7
370
-1
100
AcDbSpline
210
0
220
0
230
1
70
8
71
3
72
8
73
4
74
0
42
1e-07
43
1e-07
40
0
40
0
40
0
40
0
40
1
40
1
40
1
40
1
10
12.3138854852
20
56.7095394574
30
0
10
12.6056512452
20
57.3606722574
30
0
10
12.8780672452
20
58.3605864974
30
0
10
13.0742752452
20
59.5005800974
30
0
0
SPLINE
5
60
100
AcDbEntity
8
name
6
ByLayer
62
7
370
-1
100
AcDbSpline
210
0
220
0
230
1
70
8
71
3
72
8
73
4
74
0
42
1e-07
43
1e-07
40
0
40
0
40
0
40
0
40
1
40
1
40
1
40
1
10
13.0742752452
20
59.5005800974
30
0
10
13.1033984452
20
59.6697858574
30
0
10
13.1306957252
20
59.8116968974
30
0
10
13.1349363652
20
59.8159375374
30
0
0
SPLINE
5
61
100
AcDbEntity
8
name
6
ByLayer
62
7
370
-1
100
AcDbSpline
210
0
220
0
230
1
70
8
71
3
72
8
73
4
74
0
42
1e-07
43
1e-07
40
0
40
0
40
0
40
0
40
1
40
1
40
1
40
1
10
13.1349363652
20
59.8159375374
30
0
10
13.1450278852
20
59.8260296974
30
0
10
13.7464467652
20
59.6702850574
30
0
10
13.7679258052
20
59.6520175374
30
0
0
SPLINE
5
62
100
AcDbEntity
8
name
6
ByLayer
62
7
370
-1
100
AcDbSpline
210
0
220
0
230
1
70
8
71
3
72
8
73
4
74
0
42
1e-07
43
1e-07
40
0
40
0
40
0
40
0
40
1
40
1
40
1
40
1
10
13.7679258052
20
59.6520175374
30
0
10
13.7860346052
20
59.6366165774
30
0
10
13.6680557252
20
58.9145468174
30
0
10
13.5836269252
20
58.5240450574
30
0
0
SPLINE
5
63
100
AcDbEntity
8
name
6
ByLayer
62
7
370
-1
100
AcDbSpline
210
0
220
0
230
1
70
8
71
3
72
8
73
4
74
0
42
1e-07
43
1e-07
40
0
40
0
40
0
40
0
40
1
40
1
40
1
40
1
10
13.5836269252
20
58.5240450574
30
0
10
13.2238144452
20
56.8598370574
30
0
10
12.7600410052
20
55.8690754574
30
0
10
11.9503648452
20
55.0349007374
30
0
0
SPLINE
5
64
100
AcDbEntity
8
name
6
ByLayer
62
7
370
-1
100
AcDbSpline
210
0
220
0
230
1
70
8
71
3
72
8
73
4
74
0
42
1e-07
43
1e-07
40
0
40
0
40
0
40
0
40
1
40
1
40
1
40
1
10
11.9503648452
20
55.0349007374
30
0
10
11.5580333252
20
54.6306984974
30
0
10
11.1032672452
20
54.2855298574
30
0
10
10.6230630852
20
54.0274760974
30
0
0
LWPOLYLINE
5
65
100
AcDbEntity
8
name
6
ByLayer
62
7
370
-1
100
AcDbPolyline
90
10
70
0
43
0
10
11.5581402052
20
50.6330133774
10
11.5581402052
20
53.2607356174
10
11.9077971652
20
53.2607356174
10
12.2574534852
20
53.2607356174
10
12.2574534852
20
50.6330133774
10
12.2574534852
20
48.0052911374
10
11.9077971652
20
48.0052911374
10
11.5581402052
20
48.0052911374
10
11.5581402052
20
50.6330133774
10
11.5581402052
20
50.6330133774
0
LWPOLYLINE
5
66
100
AcDbEntity
8
name
6
ByLayer
62
7
370
-1
100
AcDbPolyline
90
5
70
0
43
0
10
10.6230630852
20
54.0274760974
10
10.4402771652
20
53.9292501774
10
10.2211750852
20
54.1878229774
10
10.2211750852
20
54.1878229774
10
10.2211750852
20
54.1878229774
0
SPLINE
5
67
100
AcDbEntity
8
name
6
ByLayer
62
7
370
-1
100
AcDbSpline
210
0
220
0
230
1
70
8
71
3
72
8
73
4
74
0
42
1e-07
43
1e-07
40
0
40
0
40
0
40
0
40
1
40
1
40
1
40
1
10
10.7158822852
20
31.3769519374
30
0
10
10.6359386052
20
31.5463701774
30
0
10
10.5739539652
20
31.6874197774
30
0
10
10.5781389252
20
31.6903944974
30
0
0
SPLINE
5
68
100
AcDbEntity
8
name
6
ByLayer
62
7
370
-1
100
AcDbSpline
210
0
220
0
230
1
70
8
71
3
72
8
73
4
74
0
42
1e-07
43
1e-07
40
0
40
0
40
0
40
0
40
1
40
1
40
1
40
1
10
10.5781389252
20
31.6903944974
30
0
10
10.5823238852
20
31.6933749774
30
0
10
10.6620365252
20
31.7127951374
30
0
10
10.7552781252
20
31.7335592974
30
0
0
SPLINE
5
69
100
AcDbEntity
8
name
6
ByLayer
62
7
370
-1
100
AcDbSpline
210
0
220
0
230
1
70
8
71
3
72
8
73
4
74
0
42
1e-07
43
1e-07
40
0
40
0
40
0
40
0
40
1
40
1
40
1
40
1
10
10.7552781252
20
31.7335592974
30
0
10
12.0972461252
20
32.0324136974
30
0
10
12.9751686852
20
32.6759810574
30
0
10
13.2539558852
20
33.5652367374
30
0
0
SPLINE
5
6A
100
AcDbEntity
8
name
6
ByLayer
62
7
370
-1
100
AcDbSpline
210
0
220
0
230
1
70
8
71
3
72
8
73
4
74
0
42
1e-07
43
1e-07
40
0
40
0
40
0
40
0
40
1
40
1
40
1
40
1
10
13.2539558852
20
33.5652367374
30
0
10
13.3550957252
20
33.8878460174
30
0
10
13.4587302852
20
34.4813634574
30
0
10
13.5407066052
20
35.2074652174
30
0
0
SPLINE
5
6B
100
AcDbEntity
8
name
6
ByLayer
62
7
370
-1
100
AcDbSpline
210
0
220
0
230
1
70
8
71
3
72
8
73
4
74
0
42
1e-07
43
1e-07
40
0
40
0
40
0
40
0
40
1
40
1
40
1
40
1
10
13.5407066052
20
35.2074652174
30
0
10
13.5628634052
20
35.4037180174
30
0
10
13.5841235652
20
35.5673640974
30
0
10
13.5879520452
20
35.5711228174
30
0
0
SPLINE
5
6C
100
AcDbEntity
8
name
6
ByLayer
62
7
370
-1
100
AcDbSpline
210
0
220
0
230
1
70
8
71
3
72
8
73
4
74
0
42
1e-07
43
1e-07
40
0
40
0
40
0
40
0
40
1
40
1
40
1
40
1
10
13.5879520452
20
35.5711228174
30
0
10
13.5917818052
20
35.5748796174
30
0
10
13.7458803652
20
35.5535663374
30
0
10
13.9303955652
20
35.5237525774
30
0
0
SPLINE
5
6D
100
AcDbEntity
8
name
6
ByLayer
62
7
370
-1
100
AcDbSpline
210
0
220
0
230
1
70
8
71
3
72
8
73
4
74
0
42
1e-07
43
1e-07
40
0
40
0
40
0
40
0
40
1
40
1
40
1
40
1
10
14.2521408452
20
35.3402223374
30
0
10
14.1584058052
20
34.4576604174
30
0
10
14.0395085252
20
33.7839215374
30
0
10
13.8983533252
20
33.3354639374
30
0
0
SPLINE
5
6E
100
AcDbEntity
8
name
6
ByLayer
62
7
370
-1
100
AcDbSpline
210
0
220
0
230
1
70
8
71
3
72
8
73
4
74
0
42
1e-07
43
1e-07
40
0
40
0
40
0
40
0
40
1
40
1
40
1
40
1
10
13.8983533252
20
33.3354639374
30
0
10
13.6624211652
20
32.5858908174
30
0
10
13.1380269252
20
32.0010178574
30
0
10
12.3454310852
20
31.6034408974
30
0
0
SPLINE
5
6F
100
AcDbEntity
8
name
6
ByLayer
62
7
370
-1
100
AcDbSpline
210
0
220
0
230
1
70
8
71
3
72
8
73
4
74
0
42
1e-07
43
1e-07
40
0
40
0
40
0
40
0
40
1
40
1
40
1
40
1
10
12.3454310852
20
31.6034408974
30
0
10
11.9771251652
20
31.4186933774
30
0
10
11.2216006852
20
31.1412015374
30
0
10
10.9248083652
20
31.0816706574
30
0
0
LWPOLYLINE
5
70
100
AcDbEntity
8
name
6
ByLayer
62
7
370
-1
100
AcDbPolyline
90
3
70
0
43
0
10
13.9303955652
20
35.5237525774
10
14.2658771652
20
35.4695496974
10
14.2521408452
20
35.3402223374
0
SPLINE
5
71
100
AcDbEntity
8
name
6
ByLayer
62
7
370
-1
100
AcDbSpline
210
0
220
0
230
1
70
8
71
3
72
8
73
4
74
0
42
1e-07
43
1e-07
40
0
40
0
40
0
40
0
40
1
40
1
40
1
40
1
10
11.6874541252
20
33.9447151374
30
0
10
11.5227942852
20
34.3290485774
30
0
10
11.1708826052
20
34.9969282574
30
0
10
10.9632563652
20
35.3191439374
30
0
0
SPLINE
5
72
100
AcDbEntity
8
name
6
ByLayer
62
7
370
-1
100
AcDbSpline
210
0
220
0
230
1
70
8
71
3
72
8
73
4
74
0
42
1e-07
43
1e-07
40
0
40
0
40
0
40
0
40
1
40
1
40
1
40
1
10
10.9632563652
20
35.3191439374
30
0
10
10.9357702852
20
35.3617992974
30
0
10
10.9462182852
20
35.3707944974
30
0
10
11.1945306052
20
35.5182632974
30
0
0
SPLINE
5
73
100
AcDbEntity
8
name
6
ByLayer
62
7
370
-1
100
AcDbSpline
210
0
220
0
230
1
70
8
71
3
72
8
73
4
74
0
42
1e-07
43
1e-07
40
0
40
0
40
0
40
0
40
1
40
1
40
1
40
1
10
11.1945306052
20
35.5182632974
30
0
10
11.3375642052
20
35.6032085774
30
0
10
11.4607424452
20
35.6760258574
30
0
10
11.4682611652
20
35.6800808974
30
0
0
SPLINE
5
74
100
AcDbEntity
8
name
6
ByLayer
62
7
370
-1
100
AcDbSpline
210
0
220
0
230
1
70
8
71
3
72
8
73
4
74
0
42
1e-07
43
1e-07
40
0
40
0
40
0
40
0
40
1
40
1
40
1
40
1
10
11.4682611652
20
35.6800808974
30
0
10
11.4875520452
20
35.6904847374
30
0
10
11.8239808452
20
35.1203112974
30
0
10
12.0108589252
20
34.7604988174
30
0
0
SPLINE
5
75
100
AcDbEntity
8
name
6
ByLayer
62
7
370
-1
100
AcDbSpline
210
0
220
0
230
1
70
8
71
3
72
8
73
4
74
0
42
1e-07
43
1e-07
40
0
40
0
40
0
40
0
40
1
40
1
40
1
40
1
10
12.0108589252
20
34.7604988174
30
0
10
12.1581613252
20
34.4768860174
30
0
10
12.3340307652
20
34.0950364174
30
0
10
12.3340307652
20
34.0588252174
30
0
0
SPLINE
5
76
100
AcDbEntity
8
name
6
ByLayer
62
7
370
-1
100
AcDbSpline
210
0
220
0
230
1
70
8
71
3
72
8
73
4
74
0
42
1e-07
43
1e-07
40
0
40
0
40
0
40
0
40
1
40
1
40
1
40
1
10
12.3340307652
20
34.0588252174
30
0
10
12.3340307652
20
34.0443394574
30
0
10
11.8047654852
20
33.7592904974
30
0
10
11.7778637252
20
33.7592904974
30
0
0
SPLINE
5
77
100
AcDbEntity
8
name
6
ByLayer
62
7
370
-1
100
AcDbSpline
210
0
220
0
230
1
70
8
71
3
72
8
73
4
74
0
42
1e-07
43
1e-07
40
0
40
0
40
0
40
0
40
1
40
1
40
1
40
1
10
11.7778637252
20
33.7592904974
30
0
10
11.7718304452
20
33.7592904974
30
0
10
11.7311462852
20
33.8427304974
30
0
10
11.6874541252
20
33.9447151374
30
0
0
LWPOLYLINE
5
78
100
AcDbEntity
8
name
6
ByLayer
62
7
370
-1
100
AcDbPolyline
90
5
70
0
43
0
10
10.9248083652
20
31.0816706574
10
10.8612339652
20
31.0689186574
10
10.7158816452
20
31.3769500174
10
10.7158816452
20
31.3769500174
10
10.7158822852
20
31.3769519374
0
SPLINE
5
79
100
AcDbEntity
8
name
6
ByLayer
62
7
370
-1
100
AcDbSpline
210
0
220
0
230
1
70
8
71
3
72
8
73
4
74
0
42
1e-07
43
1e-07
40
0
40
0
40
0
40
0
40
1
40
1
40
1
40
1
10
10.3701574852
20
33.3089756174
30
0
10
10.2370950852
20
33.6902472974
30
0
10
9.89855172522
20
34.3639413774
30
0
10
9.66466116522
20
34.7128994574
30
0
0
SPLINE
5
7A
100
AcDbEntity
8
name
6
ByLayer
62
7
370
-1
100
AcDbSpline
210
0
220
0
230
1
70
8
71
3
72
8
73
4
74
0
42
1e-07
43
1e-07
40
0
40
0
40
0
40
0
40
1
40
1
40
1
40
1
10
9.66466116522
20
34.7128994574
30
0
10
9.62169540522
20
34.7770024974
30
0
10
9.57971524522
20
34.8411036174
30
0
10
9.57137220522
20
34.8553455374
30
0
0
SPLINE
5
7B
100
AcDbEntity
8
name
6
ByLayer
62
7
370
-1
100
AcDbSpline
210
0
220
0
230
1
70
8
71
3
72
8
73
4
74
0
42
1e-07
43
1e-07
40
0
40
0
40
0
40
0
40
1
40
1
40
1
40
1
10
9.57137220522
20
34.8553455374
30
0
10
9.56100292522
20
34.8730466574
30
0
10
9.64216900522
20
34.9243176974
30
0
10
9.82787844522
20
35.0173781774
30
0
0
LWPOLYLINE
5
7C
100
AcDbEntity
8
name
6
ByLayer
62
7
370
-1
100
AcDbPolyline
90
2
70
0
43
0
10
11.6874541252
20
33.9447151374
10
11.6874541252
20
33.9447151374
0
SPLINE
5
7D
100
AcDbEntity
8
name
6
ByLayer
62
7
370
-1
100
AcDbSpline
210
0
220
0
230
1
70
8
71
3
72
8
73
4
74
0
42
1e-07
43
1e-07
40
0
40
0
40
0
40
0
40
1
40
1
40
1
40
1
10
10.2079302852
20
35.0020796174
30
0
10
10.3903104452
20
34.7472360974
30
0
10
10.5509952452
20
34.4672264974
30
0
10
10.7691040452
20
34.0241820174
30
0
0
SPLINE
5
7E
100
AcDbEntity
8
name
6
ByLayer
62
7
370
-1
100
AcDbSpline
210
0
220
0
230
1
70
8
71
3
72
8
73
4
74
0
42
1e-07
43
1e-07
40
0
40
0
40
0
40
0
40
1
40
1
40
1
40
1
10
10.7691040452
20
34.0241820174
30
0
10
10.8838598852
20
33.7910780174
30
0
10
10.9777594052
20
33.5906556174
30
0
10
10.9777690052
20
33.5787996174
30
0
0
SPLINE
5
7F
100
AcDbEntity
8
name
6
ByLayer
62
7
370
-1
100
AcDbSpline
210
0
220
0
230
1
70
8
71
3
72
8
73
4
74
0
42
1e-07
43
1e-07
40
0
40
0
40
0
40
0
40
1
40
1
40
1
40
1
10
10.9777690052
20
33.5787996174
30
0
10
10.9777837252
20
33.5608456974
30
0
10
10.4283360452
20
33.2718901774
30
0
10
10.3941606852
20
33.2718901774
30
0
0
SPLINE
5
80
100
AcDbEntity
8
name
6
ByLayer
62
7
370
-1
100
AcDbSpline
210
0
220
0
230
1
70
8
71
3
72
8
73
4
74
0
42
1e-07
43
1e-07
40
0
40
0
40
0
40
0
40
1
40
1
40
1
40
1
10
10.3941606852
20
33.2718901774
30
0
10
10.3880774852
20
33.2718901774
30
0
10
10.3772762052
20
33.2885794574
30
0
10
10.3701574852
20
33.3089756174
30
0
0
LWPOLYLINE
5
81
100
AcDbEntity
8
name
6
ByLayer
62
7
370
-1
100
AcDbPolyline
90
3
70
0
43
0
10
9.82787844522
20
35.0173781774
10
10.0995539652
20
35.1535151374
10
10.2079302852
20
35.0020796174
0
SPLINE
5
82
100
AcDbEntity
8
name
6
ByLayer
62
7
370
-1
100
AcDbSpline
210
0
220
0
230
1
70
8
71
3
72
8
73
4
74
0
42
1e-07
43
1e-07
40
0
40
0
40
0
40
0
40
1
40
1
40
1
40
1
10
11.3910176452
20
28.3158888974
30
0
10
11.1578822852
20
28.4571535374
30
0
10
10.3798323652
20
28.8271093774
30
0
10
9.99243524522
20
28.9809020174
30
0
0
LWPOLYLINE
5
83
100
AcDbEntity
8
name
6
ByLayer
62
7
370
-1
100
AcDbPolyline
90
2
70
0
43
0
10
10.3701574852
20
33.3089756174
10
10.3701574852
20
33.3089756174
0
SPLINE
5
84
100
AcDbEntity
8
name
6
ByLayer
62
7
370
-1
100
AcDbSpline
210
0
220
0
230
1
70
8
71
3
72
8
73
4
74
0
42
1e-07
43
1e-07
40
0
40
0
40
0
40
0
40
1
40
1
40
1
40
1
10
9.63053828522
20
29.2530383374
30
0
10
9.65743236522
20
29.3130197774
30
0
10
9.71647556522
20
29.4453557774
30
0
10
9.76174468522
20
29.5471183374
30
0
0
SPLINE
5
85
100
AcDbEntity
8
name
6
ByLayer
62
7
370
-1
100
AcDbSpline
210
0
220
0
230
1
70
8
71
3
72
8
73
4
74
0
42
1e-07
43
1e-07
40
0
40
0
40
0
40
0
40
1
40
1
40
1
40
1
10
9.76174468522
20
29.5471183374
30
0
10
9.80701380522
20
29.6488828174
30
0
10
9.85159492522
20
29.7323234574
30
0
10
9.86081476522
20
29.7325436174
30
0
0
SPLINE
5
86
100
AcDbEntity
8
name
6
ByLayer
62
7
370
-1
100
AcDbSpline
210
0
220
0
230
1
70
8
71
3
72
8
73
4
74
0
42
1e-07
43
1e-07
40
0
40
0
40
0
40
0
40
1
40
1
40
1
40
1
10
9.86081476522
20
29.7325436174
30
0
10
9.87003396522
20
29.7327240974
30
0
10
10.0702918852
20
29.6554952974
30
0
10
10.3058323652
20
29.5608386574
30
0
0
SPLINE
5
87
100
AcDbEntity
8
name
6
ByLayer
62
7
370
-1
100
AcDbSpline
210
0
220
0
230
1
70
8
71
3
72
8
73
4
74
0
42
1e-07
43
1e-07
40
0
40
0
40
0
40
0
40
1
40
1
40
1
40
1
10
10.3058323652
20
29.5608386574
30
0
10
10.7915462852
20
29.3656456974
30
0
10
11.3259859652
20
29.1214965774
30
0
10
11.6609139652
20
28.9417941774
30
0
0
LWPOLYLINE
5
88
100
AcDbEntity
8
name
6
ByLayer
62
7
370
-1
100
AcDbPolyline
90
3
70
0
43
0
10
9.99243524522
20
28.9809020174
10
9.58164036522
20
29.1439842574
10
9.63053828522
20
29.2530383374
0
SPLINE
5
89
100
AcDbEntity
8
name
6
ByLayer
62
7
370
-1
100
AcDbSpline
210
0
220
0
230
1
70
8
71
3
72
8
73
4
74
0
42
1e-07
43
1e-07
40
0
40
0
40
0
40
0
40
1
40
1
40
1
40
1
10
11.6976243652
20
28.5346370574
30
0
10
11.5926822852
20
28.3778389774
30
0
10
11.5046048452
20
28.2500309774
30
0
10
11.5018976452
20
28.2506178574
30
0
0
SPLINE
5
8A
100
AcDbEntity
8
name
6
ByLayer
62
7
370
-1
100
AcDbSpline
210
0
220
0
230
1
70
8
71
3
72
8
73
4
74
0
42
1e-07
43
1e-07
40
0
40
0
40
0
40
0
40
1
40
1
40
1
40
1
10
11.5018976452
20
28.2506178574
30
0
10
11.4991898052
20
28.2511592974
30
0
10
11.4492934852
20
28.2805775374
30
0
10
11.3910176452
20
28.3158888974
30
0
0
LWPOLYLINE
5
8B
100
AcDbEntity
8
name
6
ByLayer
62
7
370
-1
100
AcDbPolyline
90
3
70
0
43
0
10
11.6609139652
20
28.9417941774
10
11.8884282052
20
28.8197224974
10
11.6976243652
20
28.5346370574
0
SPLINE
5
8C
100
AcDbEntity
8
name
6
ByLayer
62
7
370
-1
100
AcDbSpline
210
0
220
0
230
1
70
8
71
3
72
8
73
4
74
0
42
1e-07
43
1e-07
40
0
40
0
40
0
40
0
40
1
40
1
40
1
40
1
10
10.9260173252
20
26.5680405774
30
0
10
10.7258573252
20
26.6726568974
30
0
10
10.1381459652
20
26.8993628174
30
0
10
9.61118660522
20
27.0752258574
30
0
0
SPLINE
5
8D
100
AcDbEntity
8
name
6
ByLayer
62
7
370
-1
100
AcDbSpline
210
0
220
0
230
1
70
8
71
3
72
8
73
4
74
0
42
1e-07
43
1e-07
40
0
40
0
40
0
40
0
40
1
40
1
40
1
40
1
10
9.61118660522
20
27.0752258574
30
0
10
9.31967492522
20
27.1725141774
30
0
10
9.08116484522
20
27.2602735374
30
0
10
9.08116484522
20
27.2702492174
30
0
0
SPLINE
5
8E
100
AcDbEntity
8
name
6
ByLayer
62
7
370
-1
100
AcDbSpline
210
0
220
0
230
1
70
8
71
3
72
8
73
4
74
0
42
1e-07
43
1e-07
40
0
40
0
40
0
40
0
40
1
40
1
40
1
40
1
10
9.08116484522
20
27.2702492174
30
0
10
9.08116484522
20
27.3302447374
30
0
10
9.23291076522
20
27.8468962574
30
0
10
9.25050692522
20
27.8468098574
30
0
0
SPLINE
5
8F
100
AcDbEntity
8
name
6
ByLayer
62
7
370
-1
100
AcDbSpline
210
0
220
0
230
1
70
8
71
3
72
8
73
4
74
0
42
1e-07
43
1e-07
40
0
40
0
40
0
40
0
40
1
40
1
40
1
40
1
10
9.25050692522
20
27.8468098574
30
0
10
9.30482692522
20
27.8466287374
30
0
10
9.93607300522
20
27.6702607374
30
0
10
10.1831130052
20
27.5863720974
30
0
0
SPLINE
5
90
100
AcDbEntity
8
name
6
ByLayer
62
7
370
-1
100
AcDbSpline
210
0
220
0
230
1
70
8
71
3
72
8
73
4
74
0
42
1e-07
43
1e-07
40
0
40
0
40
0
40
0
40
1
40
1
40
1
40
1
10
10.1831130052
20
27.5863720974
30
0
10
10.5407450052
20
27.4649269774
30
0
10
11.2957062852
20
27.1498626574
30
0
10
11.2956422852
20
27.1220828174
30
0
0
SPLINE
5
91
100
AcDbEntity
8
name
6
ByLayer
62
7
370
-1
100
AcDbSpline
210
0
220
0
230
1
70
8
71
3
72
8
73
4
74
0
42
1e-07
43
1e-07
40
0
40
0
40
0
40
0
40
1
40
1
40
1
40
1
10
11.2956422852
20
27.1220828174
30
0
10
11.2956339652
20
27.1186332174
30
0
10
11.2490093252
20
26.9823100174
30
0
10
11.1920320452
20
26.8191375374
30
0
0
SPLINE
5
92
100
AcDbEntity
8
name
6
ByLayer
62
7
370
-1
100
AcDbSpline
210
0
220
0
230
1
70
8
71
3
72
8
73
4
74
0
42
1e-07
43
1e-07
40
0
40
0
40
0
40
0
40
1
40
1
40
1
40
1
10
11.1920320452
20
26.8191375374
30
0
10
11.1324602052
20
26.6485365774
30
0
10
11.0761818052
20
26.5205116174
30
0
10
11.0596006852
20
26.5178741774
30
0
0
SPLINE
5
93
100
AcDbEntity
8
name
6
ByLayer
62
7
370
-1
100
AcDbSpline
210
0
220
0
230
1
70
8
71
3
72
8
73
4
74
0
42
1e-07
43
1e-07
40
0
40
0
40
0
40
0
40
1
40
1
40
1
40
1
10
11.0596006852
20
26.5178741774
30
0
10
11.0437402052
20
26.5153634574
30
0
10
10.9836288452
20
26.5379285774
30
0
10
10.9260173252
20
26.5680405774
30
0
0
LWPOLYLINE
5
94
100
AcDbEntity
8
name
6
ByLayer
62
7
370
-1
100
AcDbPolyline
90
2
70
0
43
0
10
11.3910176452
20
28.3158888974
10
11.3910176452
20
28.3158888974
0
SPLINE
5
95
100
AcDbEntity
8
name
6
ByLayer
62
7
370
-1
100
AcDbSpline
210
0
220
0
230
1
70
8
71
3
72
8
73
4
74
0
42
1e-07
43
1e-07
40
0
40
0
40
0
40
0
40
1
40
1
40
1
40
1
10
9.50774916522
20
24.1751100174
30
0
10
9.42767940522
20
24.3432911374
30
0
10
9.37046276522
20
24.4880488974
30
0
10
9.38060100522
20
24.4967932174
30
0
0
SPLINE
5
96
100
AcDbEntity
8
name
6
ByLayer
62
7
370
-1
100
AcDbSpline
210
0
220
0
230
1
70
8
71
3
72
8
73
4
74
0
42
1e-07
43
1e-07
40
0
40
0
40
0
40
0
40
1
40
1
40
1
40
1
10
9.38060100522
20
24.4967932174
30
0
10
9.39073924522
20
24.5055349774
30
0
10
9.50869956522
20
24.5441468174
30
0
10
9.64273476522
20
24.5825922574
30
0
0
SPLINE
5
97
100
AcDbEntity
8
name
6
ByLayer
62
7
370
-1
100
AcDbSpline
210
0
220
0
230
1
70
8
71
3
72
8
73
4
74
0
42
1e-07
43
1e-07
40
0
40
0
40
0
40
0
40
1
40
1
40
1
40
1
10
9.64273476522
20
24.5825922574
30
0
10
10.4696627652
20
24.8197724174
30
0
10
11.2673421252
20
25.1735157774
30
0
10
11.8572262852
20
25.5646408974
30
0
0
SPLINE
5
98
100
AcDbEntity
8
name
6
ByLayer
62
7
370
-1
100
AcDbSpline
210
0
220
0
230
1
70
8
71
3
72
8
73
4
74
0
42
1e-07
43
1e-07
40
0
40
0
40
0
40
0
40
1
40
1
40
1
40
1
10
11.8572262852
20
25.5646408974
30
0
10
12.6751341252
20
26.1069589774
30
0
10
13.4310778052
20
26.9882869774
30
0
10
14.0535648452
20
28.1252783374
30
0
0
SPLINE
5
99
100
AcDbEntity
8
name
6
ByLayer
62
7
370
-1
100
AcDbSpline
210
0
220
0
230
1
70
8
71
3
72
8
73
4
74
0
42
1e-07
43
1e-07
40
0
40
0
40
0
40
0
40
1
40
1
40
1
40
1
10
14.0535648452
20
28.1252783374
30
0
10
14.1260813252
20
28.2577320974
30
0
10
14.1877018052
20
28.3693372174
30
0
10
14.1904992452
20
28.3732924174
30
0
0
SPLINE
5
9A
100
AcDbEntity
8
name
6
ByLayer
62
7
370
-1
100
AcDbSpline
210
0
220
0
230
1
70
8
71
3
72
8
73
4
74
0
42
1e-07
43
1e-07
40
0
40
0
40
0
40
0
40
1
40
1
40
1
40
1
10
14.1904992452
20
28.3732924174
30
0
10
14.1942598852
20
28.3786031374
30
0
10
14.6561600452
20
28.0406824974
30
0
10
14.7283763652
20
27.9797820174
30
0
0
SPLINE
5
9B
100
AcDbEntity
8
name
6
ByLayer
62
7
370
-1
100
AcDbSpline
210
0
220
0
230
1
70
8
71
3
72
8
73
4
74
0
42
1e-07
43
1e-07
40
0
40
0
40
0
40
0
40
1
40
1
40
1
40
1
10
14.7283763652
20
27.9797820174
30
0
10
14.7552224452
20
27.9571426574
30
0
10
14.2898374852
20
27.1658063374
30
0
10
14.0425933252
20
26.8136847374
30
0
0
SPLINE
5
9C
100
AcDbEntity
8
name
6
ByLayer
62
7
370
-1
100
AcDbSpline
210
0
220
0
230
1
70
8
71
3
72
8
73
4
74
0
42
1e-07
43
1e-07
40
0
40
0
40
0
40
0
40
1
40
1
40
1
40
1
10
14.0425933252
20
26.8136847374
30
0
10
13.5891597252
20
26.1679112974
30
0
10
13.0945894852
20
25.6447919374
30
0
10
12.5517594052
20
25.2367912974
30
0
0
SPLINE
5
9D
100
AcDbEntity
8
name
6
ByLayer
62
7
370
-1
100
AcDbSpline
210
0
220
0
230
1
70
8
71
3
72
8
73
4
74
0
42
1e-07
43
1e-07
40
0
40
0
40
0
40
0
40
1
40
1
40
1
40
1
10
12.5517594052
20
25.2367912974
30
0
10
11.8389715652
20
24.7010479374
30
0
10
10.8425811652
20
24.2297180174
30
0
10
9.67452164522
20
23.8757487374
30
0
0
SPLINE
5
9E
100
AcDbEntity
8
name
6
ByLayer
62
7
370
-1
100
AcDbSpline
210
0
220
0
230
1
70
8
71
3
72
8
73
4
74
0
42
1e-07
43
1e-07
40
0
40
0
40
0
40
0
40
1
40
1
40
1
40
1
10
9.67452164522
20
23.8757487374
30
0
10
9.66286660522
20
23.8722088974
30
0
10
9.58781892522
20
24.0069295374
30
0
10
9.50774916522
20
24.1751100174
30
0
0
LWPOLYLINE
5
9F
100
AcDbEntity
8
name
6
ByLayer
62
7
370
-1
100
AcDbPolyline
90
2
70
0
43
0
10
10.9260173252
20
26.5680405774
10
10.9260173252
20
26.5680405774
0
SPLINE
5
A0
100
AcDbEntity
8
name
6
ByLayer
62
7
370
-1
100
AcDbSpline
210
0
220
0
230
1
70
8
71
3
72
8
73
4
74
0
42
1e-07
43
1e-07
40
0
40
0
40
0
40
0
40
1
40
1
40
1
40
1
10
13.9651994052
20
28.8686760974
30
0
10
13.8132826052
20
29.0933717774
30
0
10
13.6492742852
20
29.2830959374
30
0
10
13.4215296452
20
29.4975880974
30
0
0
LWPOLYLINE
5
A1
100
AcDbEntity
8
name
6
ByLayer
62
7
370
-1
100
AcDbPolyline
90
2
70
0
43
0
10
9.50774916522
20
24.1751100174
10
9.50774916522
20
24.1751100174
0
SPLINE
5
A2
100
AcDbEntity
8
name
6
ByLayer
62
7
370
-1
100
AcDbSpline
210
0
220
0
230
1
70
8
71
3
72
8
73
4
74
0
42
1e-07
43
1e-07
40
0
40
0
40
0
40
0
40
1
40
1
40
1
40
1
10
13.5678688452
20
29.9746024974
30
0
10
13.9069536452
20
29.6775407374
30
0
10
14.1550118852
20
29.4157973774
30
0
10
14.3264499652
20
29.1741679374
30
0
0
LWPOLYLINE
5
A3
100
AcDbEntity
8
name
6
ByLayer
62
7
370
-1
100
AcDbPolyline
90
5
70
0
43
0
10
13.4215296452
20
29.4975880974
10
13.2035482052
20
29.7028853774
10
13.3615910852
20
29.8598728974
10
13.5196333252
20
30.0168610574
10
13.5678688452
20
29.9746024974
0
SPLINE
5
A4
100
AcDbEntity
8
name
6
ByLayer
62
7
370
-1
100
AcDbSpline
210
0
220
0
230
1
70
8
71
3
72
8
73
4
74
0
42
1e-07
43
1e-07
40
0
40
0
40
0
40
0
40
1
40
1
40
1
40
1
10
14.3195878852
20
28.9399260174
30
0
10
14.2590182852
20
28.8911420174
30
0
10
14.1747597252
20
28.8251912974
30
0
10
14.1323469252
20
28.7933692174
30
0
0
LWPOLYLINE
5
A5
100
AcDbEntity
8
name
6
ByLayer
62
7
370
-1
100
AcDbPolyline
90
3
70
0
43
0
10
14.3264499652
20
29.1741679374
10
14.4297139652
20
29.0286261774
10
14.3195878852
20
28.9399260174
0
SPLINE
5
A6
100
AcDbEntity
8
name
6
ByLayer
62
7
370
-1
100
AcDbSpline
210
0
220
0
230
1
70
8
71
3
72
8
73
4
74
0
42
1e-07
43
1e-07
40
0
40
0
40
0
40
0
40
1
40
1
40
1
40
1
10
14.8363194052
20
29.0701154574
30
0
10
14.7712205252
20
29.2129909774
30
0
10
14.5487475652
20
29.4916655374
30
0
10
14.3003878852
20
29.7414338574
30
0
0
SPLINE
5
A7
100
AcDbEntity
8
name
6
ByLayer
62
7
370
-1
100
AcDbSpline
210
0
220
0
230
1
70
8
71
3
72
8
73
4
74
0
42
1e-07
43
1e-07
40
0
40
0
40
0
40
0
40
1
40
1
40
1
40
1
10
14.3003878852
20
29.7414338574
30
0
10
13.9902272452
20
30.0533519374
30
0
10
13.9982144452
20
30.0066236174
30
0
10
14.2218995652
20
30.2006280974
30
0
0
LWPOLYLINE
5
A8
100
AcDbEntity
8
name
6
ByLayer
62
7
370
-1
100
AcDbPolyline
90
4
70
0
43
0
10
14.1323469252
20
28.7933692174
10
14.0552333252
20
28.7355106574
10
13.9651994052
20
28.8686760974
10
13.9651994052
20
28.8686760974
0
SPLINE
5
A9
100
AcDbEntity
8
name
6
ByLayer
62
7
370
-1
100
AcDbSpline
210
0
220
0
230
1
70
8
71
3
72
8
73
4
74
0
42
1e-07
43
1e-07
40
0
40
0
40
0
40
0
40
1
40
1
40
1
40
1
10
14.5341043652
20
30.1343752974
30
0
10
14.6407008452
20
30.0414600974
30
0
10
14.7908902852
20
29.8916700174
30
0
10
14.8678592452
20
29.8015087374
30
0
0
SPLINE
5
AA
100
AcDbEntity
8
name
6
ByLayer
62
7
370
-1
100
AcDbSpline
210
0
220
0
230
1
70
8
71
3
72
8
73
4
74
0
42
1e-07
43
1e-07
40
0
40
0
40
0
40
0
40
1
40
1
40
1
40
1
10
14.8678592452
20
29.8015087374
30
0
10
15.0139821252
20
29.6303439374
30
0
10
15.1981094852
20
29.3671413774
30
0
10
15.2027526852
20
29.3227944974
30
0
0
SPLINE
5
AB
100
AcDbEntity
8
name
6
ByLayer
62
7
370
-1
100
AcDbSpline
210
0
220
0
230
1
70
8
71
3
72
8
73
4
74
0
42
1e-07
43
1e-07
40
0
40
0
40
0
40
0
40
1
40
1
40
1
40
1
10
15.2027526852
20
29.3227944974
30
0
10
15.2050342852
20
29.3010082574
30
0
10
14.9579181252
20
29.0713141774
30
0
10
14.8853843652
20
29.0277992974
30
0
0
SPLINE
5
AC
100
AcDbEntity
8
name
6
ByLayer
62
7
370
-1
100
AcDbSpline
210
0
220
0
230
1
70
8
71
3
72
8
73
4
74
0
42
1e-07
43
1e-07
40
0
40
0
40
0
40
0
40
1
40
1
40
1
40
1
10
14.8853843652
20
29.0277992974
30
0
10
14.8721894852
20
29.0198876174
30
0
10
14.8508026052
20
29.0383292174
30
0
10
14.8363194052
20
29.0701154574
30
0
0
LWPOLYLINE
5
AD
100
AcDbEntity
8
name
6
ByLayer
62
7
370
-1
100
AcDbPolyline
90
3
70
0
43
0
10
14.2218995652
20
30.2006280974
10
14.3402938052
20
30.3033135374
10
14.5341043652
20
30.1343752974
0
LWPOLYLINE
5
AE
100
AcDbEntity
8
name
6
ByLayer
62
7
370
-1
100
AcDbPolyline
90
3
70
0
43
0
10
14.8363194052
20
29.0701154574
10
14.8363194052
20
29.0701154574
10
14.8363194052
20
29.0701154574
0
SPLINE
5
AF
100
AcDbEntity
8
name
6
ByLayer
62
7
370
-1
100
AcDbSpline
210
0
220
0
230
1
70
8
71
3
72
8
73
4
74
0
42
1e-07
43
1e-07
40
0
40
0
40
0
40
0
40
1
40
1
40
1
40
1
10
68.3697741843
20
58.2241065739
30
0
10
68.1992980243
20
58.2941916939
30
0
10
68.1034471443
20
58.3766864139
30
0
10
68.0326356243
20
58.5142652939
30
0
0
SPLINE
5
B0
100
AcDbEntity
8
name
6
ByLayer
62
7
370
-1
100
AcDbSpline
210
0
220
0
230
1
70
8
71
3
72
8
73
4
74
0
42
1e-07
43
1e-07
40
0
40
0
40
0
40
0
40
1
40
1
40
1
40
1
10
68.0326356243
20
58.5142652939
30
0
10
67.7646522643
20
59.0349385739
30
0
10
68.1023450643
20
59.6338390539
30
0
10
68.6639143443
20
59.6338390539
30
0
0
SPLINE
5
B1
100
AcDbEntity
8
name
6
ByLayer
62
7
370
-1
100
AcDbSpline
210
0
220
0
230
1
70
8
71
3
72
8
73
4
74
0
42
1e-07
43
1e-07
40
0
40
0
40
0
40
0
40
1
40
1
40
1
40
1
10
68.6639143443
20
59.6338390539
30
0
10
68.8574381843
20
59.6338390539
30
0
10
69.0082183443
20
59.5719382539
30
0
10
69.1624026643
20
59.4291900939
30
0
0
SPLINE
5
B2
100
AcDbEntity
8
name
6
ByLayer
62
7
370
-1
100
AcDbSpline
210
0
220
0
230
1
70
8
71
3
72
8
73
4
74
0
42
1e-07
43
1e-07
40
0
40
0
40
0
40
0
40
1
40
1
40
1
40
1
10
69.1624026643
20
59.4291900939
30
0
10
69.3803757843
20
59.2273859339
30
0
10
69.4552705043
20
58.9911126539
30
0
10
69.3866234643
20
58.7218435339
30
0
0
SPLINE
5
B3
100
AcDbEntity
8
name
6
ByLayer
62
7
370
-1
100
AcDbSpline
210
0
220
0
230
1
70
8
71
3
72
8
73
4
74
0
42
1e-07
43
1e-07
40
0
40
0
40
0
40
0
40
1
40
1
40
1
40
1
10
69.3866234643
20
58.7218435339
30
0
10
69.2974484243
20
58.3720611339
30
0
10
69.0259079443
20
58.1708624139
30
0
10
68.6447412243
20
58.1721417739
30
0
0
SPLINE
5
B4
100
AcDbEntity
8
name
6
ByLayer
62
7
370
-1
100
AcDbSpline
210
0
220
0
230
1
70
8
71
3
72
8
73
4
74
0
42
1e-07
43
1e-07
40
0
40
0
40
0
40
0
40
1
40
1
40
1
40
1
10
68.6447412243
20
58.1721417739
30
0
10
68.5355117843
20
58.1725084939
30
0
10
68.4610554643
20
58.1865795339
30
0
10
68.3697741843
20
58.2241065739
30
0
0
SPLINE
5
B5
100
AcDbEntity
8
name
6
ByLayer
62
7
370
-1
100
AcDbSpline
210
0
220
0
230
1
70
8
71
3
72
8
73
4
74
0
42
1e-07
43
1e-07
40
0
40
0
40
0
40
0
40
1
40
1
40
1
40
1
10
68.8489217043
20
58.5907888139
30
0
10
68.9386119443
20
58.6437705739
30
0
10
69.0227437843
20
58.8272035339
30
0
10
69.0079489043
20
58.9375145739
30
0
0
SPLINE
5
B6
100
AcDbEntity
8
name
6
ByLayer
62
7
370
-1
100
AcDbSpline
210
0
220
0
230
1
70
8
71
3
72
8
73
4
74
0
42
1e-07
43
1e-07
40
0
40
0
40
0
40
0
40
1
40
1
40
1
40
1
10
69.0079489043
20
58.9375145739
30
0
10
68.9958113043
20
59.0280412939
30
0
10
68.9176449043
20
59.1428540939
30
0
10
68.8170113043
20
59.2179888139
30
0
0
SPLINE
5
B7
100
AcDbEntity
8
name
6
ByLayer
62
7
370
-1
100
AcDbSpline
210
0
220
0
230
1
70
8
71
3
72
8
73
4
74
0
42
1e-07
43
1e-07
40
0
40
0
40
0
40
0
40
1
40
1
40
1
40
1
10
68.8170113043
20
59.2179888139
30
0
10
68.6843265043
20
59.3170524939
30
0
10
68.4271597843
20
59.2390179339
30
0
10
68.3499239443
20
59.0762556939
30
0
0
SPLINE
5
B8
100
AcDbEntity
8
name
6
ByLayer
62
7
370
-1
100
AcDbSpline
210
0
220
0
230
1
70
8
71
3
72
8
73
4
74
0
42
1e-07
43
1e-07
40
0
40
0
40
0
40
0
40
1
40
1
40
1
40
1
10
68.3499239443
20
59.0762556939
30
0
10
68.2857255443
20
58.9409692939
30
0
10
68.3143578643
20
58.7066832139
30
0
10
68.4055572243
20
58.6210044939
30
0
0
SPLINE
5
B9
100
AcDbEntity
8
name
6
ByLayer
62
7
370
-1
100
AcDbSpline
210
0
220
0
230
1
70
8
71
3
72
8
73
4
74
0
42
1e-07
43
1e-07
40
0
40
0
40
0
40
0
40
1
40
1
40
1
40
1
10
68.4055572243
20
58.6210044939
30
0
10
68.5016506643
20
58.5307305739
30
0
10
68.7218471443
20
58.5157238539
30
0
10
68.8489217043
20
58.5907888139
30
0
0
LWPOLYLINE
5
BA
100
AcDbEntity
8
name
6
ByLayer
62
7
370
-1
100
AcDbPolyline
90
2
70
0
43
0
10
68.3697741843
20
58.2241065739
10
68.3697741843
20
58.2241065739
0
SPLINE
5
BB
100
AcDbEntity
8
name
6
ByLayer
62
7
370
-1
100
AcDbSpline
210
0
220
0
230
1
70
8
71
3
72
8
73
4
74
0
42
1e-07
43
1e-07
40
0
40
0
40
0
40
0
40
1
40
1
40
1
40
1
10
68.5771975443
20
53.6288796939
30
0
10
67.6450637843
20
54.9079433739
30
0
10
67.0986529043
20
56.6359356939
30
0
10
66.9056743443
20
58.9149584139
30
0
0
LWPOLYLINE
5
BC
100
AcDbEntity
8
name
6
ByLayer
62
7
370
-1
100
AcDbPolyline
90
2
70
0
43
0
10
68.8489217043
20
58.5907888139
10
68.8489217043
20
58.5907888139
0
SPLINE
5
BD
100
AcDbEntity
8
name
6
ByLayer
62
7
370
-1
100
AcDbSpline
210
0
220
0
230
1
70
8
71
3
72
8
73
4
74
0
42
1e-07
43
1e-07
40
0
40
0
40
0
40
0
40
1
40
1
40
1
40
1
10
67.1849159443
20
59.1112809739
30
0
10
67.3459809043
20
59.1309507339
30
0
10
67.4934567443
20
59.1469084939
30
0
10
67.5126407443
20
59.1467420939
30
0
0
SPLINE
5
BE
100
AcDbEntity
8
name
6
ByLayer
62
7
370
-1
100
AcDbSpline
210
0
220
0
230
1
70
8
71
3
72
8
73
4
74
0
42
1e-07
43
1e-07
40
0
40
0
40
0
40
0
40
1
40
1
40
1
40
1
10
67.5126407443
20
59.1467420939
30
0
10
67.5410164243
20
59.1464963339
30
0
10
67.5501633043
20
59.1138441739
30
0
10
67.5617012243
20
58.9716112139
30
0
0
SPLINE
5
BF
100
AcDbEntity
8
name
6
ByLayer
62
7
370
-1
100
AcDbSpline
210
0
220
0
230
1
70
8
71
3
72
8
73
4
74
0
42
1e-07
43
1e-07
40
0
40
0
40
0
40
0
40
1
40
1
40
1
40
1
10
67.5617012243
20
58.9716112139
30
0
10
67.7256449043
20
56.9505475339
30
0
10
68.2614298643
20
55.2908700939
30
0
10
69.1479924243
20
54.0578230539
30
0
0
LWPOLYLINE
5
C0
100
AcDbEntity
8
name
6
ByLayer
62
7
370
-1
100
AcDbPolyline
90
3
70
0
43
0
10
66.9056743443
20
58.9149584139
10
66.8920730643
20
59.0755164939
10
67.1849159443
20
59.1112809739
0
SPLINE
5
C1
100
AcDbEntity
8
name
6
ByLayer
62
7
370
-1
100
AcDbSpline
210
0
220
0
230
1
70
8
71
3
72
8
73
4
74
0
42
1e-07
43
1e-07
40
0
40
0
40
0
40
0
40
1
40
1
40
1
40
1
10
69.1338714643
20
53.7716675339
30
0
10
69.0621863443
20
53.7031817739
30
0
10
68.9451738643
20
53.5914902539
30
0
10
68.8738439443
20
53.5234627339
30
0
0
LWPOLYLINE
5
C2
100
AcDbEntity
8
name
6
ByLayer
62
7
370
-1
100
AcDbPolyline
90
3
70
0
43
0
10
69.1479924243
20
54.0578230539
10
69.2642087443
20
53.8961859339
10
69.1338714643
20
53.7716675339
0
SPLINE
5
C3
100
AcDbEntity
8
name
6
ByLayer
62
7
370
-1
100
AcDbSpline
210
0
220
0
230
1
70
8
71
3
72
8
73
4
74
0
42
1e-07
43
1e-07
40
0
40
0
40
0
40
0
40
1
40
1
40
1
40
1
10
63.2661889043
20
53.5902230539
30
0
10
63.1301383443
20
53.7031990539
30
0
10
63.0224077843
20
53.8063184139
30
0
10
63.0267879443
20
53.8193769739
30
0
0
SPLINE
5
C4
100
AcDbEntity
8
name
6
ByLayer
62
7
370
-1
100
AcDbSpline
210
0
220
0
230
1
70
8
71
3
72
8
73
4
74
0
42
1e-07
43
1e-07
40
0
40
0
40
0
40
0
40
1
40
1
40
1
40
1
10
63.0267879443
20
53.8193769739
30
0
10
63.0311681043
20
53.8324355339
30
0
10
63.0966260243
20
53.9277961739
30
0
10
63.1722503443
20
54.0312899339
30
0
0
SPLINE
5
C5
100
AcDbEntity
8
name
6
ByLayer
62
7
370
-1
100
AcDbSpline
210
0
220
0
230
1
70
8
71
3
72
8
73
4
74
0
42
1e-07
43
1e-07
40
0
40
0
40
0
40
0
40
1
40
1
40
1
40
1
10
63.1722503443
20
54.0312899339
30
0
10
63.8779687443
20
54.9970793739
30
0
10
64.3430676243
20
56.2579753739
30
0
10
64.5196909843
20
57.6842390539
30
0
0
SPLINE
5
C6
100
AcDbEntity
8
name
6
ByLayer
62
7
370
-1
100
AcDbSpline
210
0
220
0
230
1
70
8
71
3
72
8
73
4
74
0
42
1e-07
43
1e-07
40
0
40
0
40
0
40
0
40
1
40
1
40
1
40
1
10
64.5196909843
20
57.6842390539
30
0
10
64.5691994643
20
58.0840246539
30
0
10
64.6063463443
20
58.6144028939
30
0
10
64.6063463443
20
58.9214851339
30
0
0
LWPOLYLINE
5
C7
100
AcDbEntity
8
name
6
ByLayer
62
7
370
-1
100
AcDbPolyline
90
5
70
0
43
0
10
68.8738439443
20
53.5234627339
10
68.7441517843
20
53.3997769739
10
68.5771905043
20
53.6288796939
10
68.5771905043
20
53.6288796939
10
68.5771975443
20
53.6288796939
0
SPLINE
5
C8
100
AcDbEntity
8
name
6
ByLayer
62
7
370
-1
100
AcDbSpline
210
0
220
0
230
1
70
8
71
3
72
8
73
4
74
0
42
1e-07
43
1e-07
40
0
40
0
40
0
40
0
40
1
40
1
40
1
40
1
10
64.9180711443
20
59.1169475339
30
0
10
65.0895194643
20
59.1088464139
30
0
10
65.2329140243
20
59.0991011339
30
0
10
65.2367233043
20
59.0952912139
30
0
0
SPLINE
5
C9
100
AcDbEntity
8
name
6
ByLayer
62
7
370
-1
100
AcDbSpline
210
0
220
0
230
1
70
8
71
3
72
8
73
4
74
0
42
1e-07
43
1e-07
40
0
40
0
40
0
40
0
40
1
40
1
40
1
40
1
10
65.2367233043
20
59.0952912139
30
0
10
65.2501255443
20
59.0818915339
30
0
10
65.1979399443
20
58.1576169739
30
0
10
65.1672289043
20
57.8643651339
30
0
0
SPLINE
5
CA
100
AcDbEntity
8
name
6
ByLayer
62
7
370
-1
100
AcDbSpline
210
0
220
0
230
1
70
8
71
3
72
8
73
4
74
0
42
1e-07
43
1e-07
40
0
40
0
40
0
40
0
40
1
40
1
40
1
40
1
10
65.1672289043
20
57.8643651339
30
0
10
64.9988922643
20
56.2570236939
30
0
10
64.5393300243
20
54.8982499339
30
0
10
63.7694458643
20
53.7315913739
30
0
0
SPLINE
5
CB
100
AcDbEntity
8
name
6
ByLayer
62
7
370
-1
100
AcDbSpline
210
0
220
0
230
1
70
8
71
3
72
8
73
4
74
0
42
1e-07
43
1e-07
40
0
40
0
40
0
40
0
40
1
40
1
40
1
40
1
10
63.7694458643
20
53.7315913739
30
0
10
63.6615962643
20
53.5681603339
30
0
10
63.5599002643
20
53.4232771339
30
0
10
63.5434548243
20
53.4096278539
30
0
0
SPLINE
5
CC
100
AcDbEntity
8
name
6
ByLayer
62
7
370
-1
100
AcDbSpline
210
0
220
0
230
1
70
8
71
3
72
8
73
4
74
0
42
1e-07
43
1e-07
40
0
40
0
40
0
40
0
40
1
40
1
40
1
40
1
10
63.5434548243
20
53.4096278539
30
0
10
63.5193364243
20
53.3896118539
30
0
10
63.4657165843
20
53.4245366539
30
0
10
63.2661889043
20
53.5902230539
30
0
0
LWPOLYLINE
5
CD
100
AcDbEntity
8
name
6
ByLayer
62
7
370
-1
100
AcDbPolyline
90
3
70
0
43
0
10
64.6063463443
20
58.9214851339
10
64.6063463443
20
59.1316764939
10
64.9180711443
20
59.1169475339
0
LWPOLYLINE
5
CE
100
AcDbEntity
8
name
6
ByLayer
62
7
370
-1
100
AcDbPolyline
90
3
70
0
43
0
10
63.2661889043
20
53.5902230539
10
63.2661889043
20
53.5902230539
10
63.2661889043
20
53.5902230539
0
SPLINE
5
CF
100
AcDbEntity
8
name
6
ByLayer
62
7
370
-1
100
AcDbSpline
210
0
220
0
230
1
70
8
71
3
72
8
73
4
74
0
42
1e-07
43
1e-07
40
0
40
0
40
0
40
0
40
1
40
1
40
1
40
1
10
65.2950637843
20
39.9705801739
30
0
10
66.3293357843
20
39.9705801739
30
0
10
66.8950068243
20
39.9779491339
30
0
10
66.8950068243
20
39.9914166539
30
0
0
SPLINE
5
D0
100
AcDbEntity
8
name
6
ByLayer
62
7
370
-1
100
AcDbSpline
210
0
220
0
230
1
70
8
71
3
72
8
73
4
74
0
42
1e-07
43
1e-07
40
0
40
0
40
0
40
0
40
1
40
1
40
1
40
1
10
66.8950068243
20
39.9914166539
30
0
10
66.8950068243
20
40.0226409739
30
0
10
67.0194388243
20
42.2312182539
30
0
10
67.0284487443
20
42.3599004939
30
0
0
LWPOLYLINE
5
D1
100
AcDbEntity
8
name
6
ByLayer
62
7
370
-1
100
AcDbPolyline
90
3
70
0
43
0
10
63.6951194643
20
39.6527100939
10
63.6951194643
20
39.9705801739
10
65.2950637843
20
39.9705801739
0
SPLINE
5
D2
100
AcDbEntity
8
name
6
ByLayer
62
7
370
-1
100
AcDbSpline
210
0
220
0
230
1
70
8
71
3
72
8
73
4
74
0
42
1e-07
43
1e-07
40
0
40
0
40
0
40
0
40
1
40
1
40
1
40
1
10
67.7122029843
20
42.9108745739
30
0
10
67.6875393043
20
42.6164745739
30
0
10
67.5501882643
20
39.9864476939
30
0
10
67.5590170643
20
39.9776188939
30
0
0
SPLINE
5
D3
100
AcDbEntity
8
name
6
ByLayer
62
7
370
-1
100
AcDbSpline
210
0
220
0
230
1
70
8
71
3
72
8
73
4
74
0
42
1e-07
43
1e-07
40
0
40
0
40
0
40
0
40
1
40
1
40
1
40
1
10
67.5590170643
20
39.9776188939
30
0
10
67.5639124243
20
39.9727241739
30
0
10
67.7979495443
20
39.9628617739
30
0
10
68.0791066643
20
39.9557059339
30
0
0
LWPOLYLINE
5
D4
100
AcDbEntity
8
name
6
ByLayer
62
7
370
-1
100
AcDbPolyline
90
9
70
0
43
0
10
67.0284487443
20
42.3599004939
10
67.0362330643
20
42.4711548939
10
65.7047348243
20
42.4711548939
10
64.3732385043
20
42.4711548939
10
64.3732385043
20
42.7678332939
10
64.3732385043
20
43.0645116939
10
66.0491597843
20
43.0645116939
10
67.7250810643
20
43.0645116939
10
67.7122029843
20
42.9108745739
0
SPLINE
5
D5
100
AcDbEntity
8
name
6
ByLayer
62
7
370
-1
100
AcDbSpline
210
0
220
0
230
1
70
8
71
3
72
8
73
4
74
0
42
1e-07
43
1e-07
40
0
40
0
40
0
40
0
40
1
40
1
40
1
40
1
10
64.1613293843
20
46.1825961739
30
0
10
64.1613293843
20
46.1958806539
30
0
10
64.0945025043
20
46.3301769739
30
0
10
64.0128250643
20
46.4810313739
30
0
0
SPLINE
5
D6
100
AcDbEntity
8
name
6
ByLayer
62
7
370
-1
100
AcDbSpline
210
0
220
0
230
1
70
8
71
3
72
8
73
4
74
0
42
1e-07
43
1e-07
40
0
40
0
40
0
40
0
40
1
40
1
40
1
40
1
10
64.0128250643
20
46.4810313739
30
0
10
63.9311476243
20
46.6318857739
30
0
10
63.8697255443
20
46.7640579339
30
0
10
63.8763309843
20
46.7747465739
30
0
0
SPLINE
5
D7
100
AcDbEntity
8
name
6
ByLayer
62
7
370
-1
100
AcDbSpline
210
0
220
0
230
1
70
8
71
3
72
8
73
4
74
0
42
1e-07
43
1e-07
40
0
40
0
40
0
40
0
40
1
40
1
40
1
40
1
10
63.8763309843
20
46.7747465739
30
0
10
63.8829415443
20
46.7854358539
30
0
10
63.9022228243
20
46.7941814539
30
0
10
63.9191885843
20
46.7941814539
30
0
0
SPLINE
5
D8
100
AcDbEntity
8
name
6
ByLayer
62
7
370
-1
100
AcDbSpline
210
0
220
0
230
1
70
8
71
3
72
8
73
4
74
0
42
1e-07
43
1e-07
40
0
40
0
40
0
40
0
40
1
40
1
40
1
40
1
10
63.9191885843
20
46.7941814539
30
0
10
63.9929076243
20
46.7941814539
30
0
10
64.5922049043
20
47.0090601739
30
0
10
64.7758765843
20
47.1013481739
30
0
0
SPLINE
5
D9
100
AcDbEntity
8
name
6
ByLayer
62
7
370
-1
100
AcDbSpline
210
0
220
0
230
1
70
8
71
3
72
8
73
4
74
0
42
1e-07
43
1e-07
40
0
40
0
40
0
40
0
40
1
40
1
40
1
40
1
10
64.7758765843
20
47.1013481739
30
0
10
65.2658087443
20
47.3475222539
30
0
10
65.5210260243
20
47.5993475339
30
0
10
65.6859757843
20
47.9993526539
30
0
0
SPLINE
5
DA
100
AcDbEntity
8
name
6
ByLayer
62
7
370
-1
100
AcDbSpline
210
0
220
0
230
1
70
8
71
3
72
8
73
4
74
0
42
1e-07
43
1e-07
40
0
40
0
40
0
40
0
40
1
40
1
40
1
40
1
10
65.6859757843
20
47.9993526539
30
0
10
65.7985953043
20
48.2724585739
30
0
10
65.8771949843
20
48.6841756939
30
0
10
65.8776500243
20
49.0033756939
30
0
0
LWPOLYLINE
5
DB
100
AcDbEntity
8
name
6
ByLayer
62
7
370
-1
100
AcDbPolyline
90
8
70
0
43
0
10
68.0791066643
20
39.9557059339
10
68.5903034643
20
39.9426825739
10
68.5903034643
20
39.6387606539
10
68.5903034643
20
39.3348400139
10
66.1427060243
20
39.3348400139
10
63.6951105043
20
39.3348400139
10
63.6951105043
20
39.6527081739
10
63.6951194643
20
39.6527100939
0
SPLINE
5
DC
100
AcDbEntity
8
name
6
ByLayer
62
7
370
-1
100
AcDbSpline
210
0
220
0
230
1
70
8
71
3
72
8
73
4
74
0
42
1e-07
43
1e-07
40
0
40
0
40
0
40
0
40
1
40
1
40
1
40
1
10
65.8778234643
20
50.3331299339
30
0
10
65.8778234643
20
50.8991043339
30
0
10
65.8772820243
20
50.9052950539
30
0
10
65.8336020243
20
50.9052950539
30
0
0
SPLINE
5
DD
100
AcDbEntity
8
name
6
ByLayer
62
7
370
-1
100
AcDbSpline
210
0
220
0
230
1
70
8
71
3
72
8
73
4
74
0
42
1e-07
43
1e-07
40
0
40
0
40
0
40
0
40
1
40
1
40
1
40
1
10
65.8336020243
20
50.9052950539
30
0
10
65.8092794643
20
50.9052950539
30
0
10
65.6733901843
20
50.8911324939
30
0
10
65.5316250643
20
50.8738236939
30
0
0
SPLINE
5
DE
100
AcDbEntity
8
name
6
ByLayer
62
7
370
-1
100
AcDbSpline
210
0
220
0
230
1
70
8
71
3
72
8
73
4
74
0
42
1e-07
43
1e-07
40
0
40
0
40
0
40
0
40
1
40
1
40
1
40
1
10
65.5316250643
20
50.8738236939
30
0
10
65.1981441043
20
50.8331056139
30
0
10
63.8775591443
20
50.6933820939
30
0
10
63.8261933843
20
50.6933820939
30
0
0
SPLINE
5
DF
100
AcDbEntity
8
name
6
ByLayer
62
7
370
-1
100
AcDbSpline
210
0
220
0
230
1
70
8
71
3
72
8
73
4
74
0
42
1e-07
43
1e-07
40
0
40
0
40
0
40
0
40
1
40
1
40
1
40
1
10
63.8261933843
20
50.6933820939
30
0
10
63.7933473043
20
50.6933820939
30
0
10
63.7736308243
20
50.7433424139
30
0
10
63.7078388243
20
50.9932892939
30
0
0
SPLINE
5
E0
100
AcDbEntity
8
name
6
ByLayer
62
7
370
-1
100
AcDbSpline
210
0
220
0
230
1
70
8
71
3
72
8
73
4
74
0
42
1e-07
43
1e-07
40
0
40
0
40
0
40
0
40
1
40
1
40
1
40
1
10
63.7078388243
20
50.9932892939
30
0
10
63.6193901843
20
51.3293161739
30
0
10
63.6191303443
20
51.3280995339
30
0
10
63.7798855443
20
51.3290160139
30
0
0
SPLINE
5
E1
100
AcDbEntity
8
name
6
ByLayer
62
7
370
-1
100
AcDbSpline
210
0
220
0
230
1
70
8
71
3
72
8
73
4
74
0
42
1e-07
43
1e-07
40
0
40
0
40
0
40
0
40
1
40
1
40
1
40
1
10
63.7798855443
20
51.3290160139
30
0
10
63.8323329043
20
51.3293232139
30
0
10
64.0898081043
20
51.3484393739
30
0
10
64.3520500243
20
51.3715139339
30
0
0
SPLINE
5
E2
100
AcDbEntity
8
name
6
ByLayer
62
7
370
-1
100
AcDbSpline
210
0
220
0
230
1
70
8
71
3
72
8
73
4
74
0
42
1e-07
43
1e-07
40
0
40
0
40
0
40
0
40
1
40
1
40
1
40
1
10
64.3520500243
20
51.3715139339
30
0
10
65.8832583443
20
51.5062467339
30
0
10
66.9282087443
20
51.6772406539
30
0
10
67.8015514643
20
51.9359836939
30
0
0
SPLINE
5
E3
100
AcDbEntity
8
name
6
ByLayer
62
7
370
-1
100
AcDbSpline
210
0
220
0
230
1
70
8
71
3
72
8
73
4
74
0
42
1e-07
43
1e-07
40
0
40
0
40
0
40
0
40
1
40
1
40
1
40
1
10
67.8015514643
20
51.9359836939
30
0
10
67.9446676243
20
51.9783836939
30
0
10
68.0651693843
20
52.0093788939
30
0
10
68.0693345043
20
52.0048611339
30
0
0
SPLINE
5
E4
100
AcDbEntity
8
name
6
ByLayer
62
7
370
-1
100
AcDbSpline
210
0
220
0
230
1
70
8
71
3
72
8
73
4
74
0
42
1e-07
43
1e-07
40
0
40
0
40
0
40
0
40
1
40
1
40
1
40
1
10
68.0693345043
20
52.0048611339
30
0
10
68.0972916243
20
51.9745436939
30
0
10
68.3995898643
20
51.4947792139
30
0
10
68.3995898643
20
51.4807280139
30
0
0
SPLINE
5
E5
100
AcDbEntity
8
name
6
ByLayer
62
7
370
-1
100
AcDbSpline
210
0
220
0
230
1
70
8
71
3
72
8
73
4
74
0
42
1e-07
43
1e-07
40
0
40
0
40
0
40
0
40
1
40
1
40
1
40
1
10
68.3995898643
20
51.4807280139
30
0
10
68.3995898643
20
51.4378748939
30
0
10
67.5128250643
20
51.1958358539
30
0
10
66.8845217043
20
51.0671971339
30
0
0
LWPOLYLINE
5
E6
100
AcDbEntity
8
name
6
ByLayer
62
7
370
-1
100
AcDbPolyline
90
9
70
0
43
0
10
65.8776500243
20
49.0033756939
10
65.8778234643
20
49.1252252939
10
64.5321773843
20
49.1252252939
10
63.1865281043
20
49.1252252939
10
63.1865281043
20
49.4430953739
10
63.1865281043
20
49.7609648139
10
64.5321773843
20
49.7609648139
10
65.8778234643
20
49.7609648139
10
65.8778234643
20
50.3331299339
0
SPLINE
5
E7
100
AcDbEntity
8
name
6
ByLayer
62
7
370
-1
100
AcDbSpline
210
0
220
0
230
1
70
8
71
3
72
8
73
4
74
0
42
1e-07
43
1e-07
40
0
40
0
40
0
40
0
40
1
40
1
40
1
40
1
10
66.5272724243
20
48.8656316939
30
0
10
66.4627905043
20
47.6645622539
30
0
10
66.0646663443
20
47.0467292939
30
0
10
65.0086477843
20
46.5089360139
30
0
0
SPLINE
5
E8
100
AcDbEntity
8
name
6
ByLayer
62
7
370
-1
100
AcDbSpline
210
0
220
0
230
1
70
8
71
3
72
8
73
4
74
0
42
1e-07
43
1e-07
40
0
40
0
40
0
40
0
40
1
40
1
40
1
40
1
10
65.0086477843
20
46.5089360139
30
0
10
64.7359009043
20
46.3700355339
30
0
10
64.2418868243
20
46.1584425739
30
0
10
64.1903367443
20
46.1584425739
30
0
0
SPLINE
5
E9
100
AcDbEntity
8
name
6
ByLayer
62
7
370
-1
100
AcDbSpline
210
0
220
0
230
1
70
8
71
3
72
8
73
4
74
0
42
1e-07
43
1e-07
40
0
40
0
40
0
40
0
40
1
40
1
40
1
40
1
10
64.1903367443
20
46.1584425739
30
0
10
64.1743879443
20
46.1584425739
30
0
10
64.1613255443
20
46.1693123339
30
0
10
64.1613255443
20
46.1825961739
30
0
0
LWPOLYLINE
5
EA
100
AcDbEntity
8
name
6
ByLayer
62
7
370
-1
100
AcDbPolyline
90
11
70
0
43
0
10
66.8845217043
20
51.0671971339
10
66.5453511443
20
50.9977545739
10
66.5397338643
20
50.3793596939
10
66.5341159443
20
49.7609648139
10
67.8165108243
20
49.7609648139
10
69.0989050643
20
49.7609648139
10
69.0989050643
20
49.4430953739
10
69.0989050643
20
49.1252252939
10
67.8200596243
20
49.1252252939
10
66.5412167443
20
49.1252252939
10
66.5272724243
20
48.8656316939
0
LWPOLYLINE
5
EB
100
AcDbEntity
8
name
6
ByLayer
62
7
370
-1
100
AcDbPolyline
90
2
70
0
43
0
10
64.1613255443
20
46.1825961739
10
64.1613293843
20
46.1825961739
0
SPLINE
5
EC
100
AcDbEntity
8
name
6
ByLayer
62
7
370
-1
100
AcDbSpline
210
0
220
0
230
1
70
8
71
3
72
8
73
4
74
0
42
1e-07
43
1e-07
40
0
40
0
40
0
40
0
40
1
40
1
40
1
40
1
10
65.3268500243
20
31.6868092939
30
0
10
65.3268500243
20
31.6995254539
30
0
10
65.2648263443
20
31.8443049739
30
0
10
65.1890209043
20
32.0085283339
30
0
0
SPLINE
5
ED
100
AcDbEntity
8
name
6
ByLayer
62
7
370
-1
100
AcDbSpline
210
0
220
0
230
1
70
8
71
3
72
8
73
4
74
0
42
1e-07
43
1e-07
40
0
40
0
40
0
40
0
40
1
40
1
40
1
40
1
10
65.1890209043
20
32.0085283339
30
0
10
65.1132135443
20
32.1727504139
30
0
10
65.0548257043
20
32.3107510539
30
0
10
65.0592692243
20
32.3151945739
30
0
0
SPLINE
5
EE
100
AcDbEntity
8
name
6
ByLayer
62
7
370
-1
100
AcDbSpline
210
0
220
0
230
1
70
8
71
3
72
8
73
4
74
0
42
1e-07
43
1e-07
40
0
40
0
40
0
40
0
40
1
40
1
40
1
40
1
10
65.0592692243
20
32.3151945739
30
0
10
65.0637121043
20
32.3196374539
30
0
10
65.2187130643
20
32.3570844939
30
0
10
65.4037140243
20
32.3984086539
30
0
0
SPLINE
5
EF
100
AcDbEntity
8
name
6
ByLayer
62
7
370
-1
100
AcDbSpline
210
0
220
0
230
1
70
8
71
3
72
8
73
4
74
0
42
1e-07
43
1e-07
40
0
40
0
40
0
40
0
40
1
40
1
40
1
40
1
10
65.4037140243
20
32.3984086539
30
0
10
65.8057735443
20
32.4882192139
30
0
10
66.2318375443
20
32.6249596939
30
0
10
66.4500455443
20
32.7342140939
30
0
0
SPLINE
5
F0
100
AcDbEntity
8
name
6
ByLayer
62
7
370
-1
100
AcDbSpline
210
0
220
0
230
1
70
8
71
3
72
8
73
4
74
0
42
1e-07
43
1e-07
40
0
40
0
40
0
40
0
40
1
40
1
40
1
40
1
10
66.4500455443
20
32.7342140939
30
0
10
66.8827674643
20
32.9508777739
30
0
10
67.1779495443
20
33.2727593739
30
0
10
67.3055105043
20
33.6670646539
30
0
0
SPLINE
5
F1
100
AcDbEntity
8
name
6
ByLayer
62
7
370
-1
100
AcDbSpline
210
0
220
0
230
1
70
8
71
3
72
8
73
4
74
0
42
1e-07
43
1e-07
40
0
40
0
40
0
40
0
40
1
40
1
40
1
40
1
10
67.3055105043
20
33.6670646539
30
0
10
67.4029217043
20
33.9681763339
30
0
10
67.4088986643
20
34.0850972939
30
0
10
67.4184423443
20
35.8762588939
30
0
0
LWPOLYLINE
5
F2
100
AcDbEntity
8
name
6
ByLayer
62
7
370
-1
100
AcDbPolyline
90
10
70
0
43
0
10
65.8142497043
20
28.3374505739
10
65.8142497043
20
30.9651734539
10
66.1533121043
20
30.9651734539
10
66.4923725843
20
30.9651734539
10
66.4923725843
20
28.3374505739
10
66.4923725843
20
25.7097276939
10
66.1533121043
20
25.7097276939
10
65.8142497043
20
25.7097276939
10
65.8142497043
20
28.3374505739
10
65.8142497043
20
28.3374505739
0
SPLINE
5
F3
100
AcDbEntity
8
name
6
ByLayer
62
7
370
-1
100
AcDbSpline
210
0
220
0
230
1
70
8
71
3
72
8
73
4
74
0
42
1e-07
43
1e-07
40
0
40
0
40
0
40
0
40
1
40
1
40
1
40
1
10
68.1348340243
20
36.2682979339
30
0
10
68.1161537043
20
34.0576822539
30
0
10
68.1093517843
20
33.9414646539
30
0
10
67.9739117843
20
33.5187254539
30
0
0
SPLINE
5
F4
100
AcDbEntity
8
name
6
ByLayer
62
7
370
-1
100
AcDbSpline
210
0
220
0
230
1
70
8
71
3
72
8
73
4
74
0
42
1e-07
43
1e-07
40
0
40
0
40
0
40
0
40
1
40
1
40
1
40
1
10
67.9739117843
20
33.5187254539
30
0
10
67.8178849043
20
33.0317244939
30
0
10
67.5115572243
20
32.6203900939
30
0
10
67.0987175443
20
32.3435228939
30
0
0
SPLINE
5
F5
100
AcDbEntity
8
name
6
ByLayer
62
7
370
-1
100
AcDbSpline
210
0
220
0
230
1
70
8
71
3
72
8
73
4
74
0
42
1e-07
43
1e-07
40
0
40
0
40
0
40
0
40
1
40
1
40
1
40
1
10
67.0987175443
20
32.3435228939
30
0
10
66.7624967443
20
32.1180380939
30
0
10
66.2176749843
20
31.8907139339
30
0
10
65.6765165843
20
31.7501155339
30
0
0
SPLINE
5
F6
100
AcDbEntity
8
name
6
ByLayer
62
7
370
-1
100
AcDbSpline
210
0
220
0
230
1
70
8
71
3
72
8
73
4
74
0
42
1e-07
43
1e-07
40
0
40
0
40
0
40
0
40
1
40
1
40
1
40
1
10
65.6765165843
20
31.7501155339
30
0
10
65.3432628243
20
31.6635324939
30
0
10
65.3268589843
20
31.6605635339
30
0
10
65.3268589843
20
31.6868092939
30
0
0
LWPOLYLINE
5
F7
100
AcDbEntity
8
name
6
ByLayer
62
7
370
-1
100
AcDbPolyline
90
5
70
0
43
0
10
67.4184423443
20
35.8762588939
10
67.4275098643
20
37.5768604939
10
67.7866989843
20
37.5768604939
10
68.1458881043
20
37.5768604939
10
68.1348340243
20
36.2682979339
0
LWPOLYLINE
5
F8
100
AcDbEntity
8
name
6
ByLayer
62
7
370
-1
100
AcDbPolyline
90
2
70
0
43
0
10
65.3268589843
20
31.6868092939
10
65.3268500243
20
31.6868092939
0
LWPOLYLINE
5
F9
100
AcDbEntity
8
name
6
ByLayer
62
7
370
-1
100
AcDbPolyline
90
10
70
0
43
0
10
64.1613293843
20
35.5742819339
10
64.1613293843
20
37.4285206539
10
64.5003892243
20
37.4285206539
10
64.8394497043
20
37.4285206539
10
64.8394497043
20
35.5742819339
10
64.8394497043
20
33.7200432139
10
64.5003892243
20
33.7200432139
10
64.1613293843
20
33.7200432139
10
64.1613293843
20
35.5742819339
10
64.1613293843
20
35.5742819339
0
SPLINE
5
FA
100
AcDbEntity
8
patchy
6
ByLayer
62
7
370
-1
100
AcDbSpline
210
0
220
0
230
1
70
8
71
3
72
8
73
4
74
0
42
1e-07
43
1e-07
40
0
40
0
40
0
40
0
40
1
40
1
40
1
40
1
10
47.0589590017
20
65.6049823147
30
0
10
46.8567963137
20
65.6058778027
30
0
10
46.6855028737
20
65.5730240427
30
0
10
46.6480434177
20
65.5124134827
30
0
0
SPLINE
5
FB
100
AcDbEntity
8
patchy
6
ByLayer
62
7
370
-1
100
AcDbSpline
210
0
220
0
230
1
70
8
71
3
72
8
73
4
74
0
42
1e-07
43
1e-07
40
0
40
0
40
0
40
0
40
1
40
1
40
1
40
1
10
46.6480434177
20
65.5124134827
30
0
10
46.5974278657
20
65.4305165227
30
0
10
46.7308975617
20
65.1601999787
30
0
10
46.8218922497
20
65.1601999787
30
0
0
SPLINE
5
FC
100
AcDbEntity
8
patchy
6
ByLayer
62
7
370
-1
100
AcDbSpline
210
0
220
0
230
1
70
8
71
3
72
8
73
4
74
0
42
1e-07
43
1e-07
40
0
40
0
40
0
40
0
40
1
40
1
40
1
40
1
10
46.8218922497
20
65.1601999787
30
0
10
46.8697253377
20
65.1601999787
30
0
10
46.9314267137
20
65.1260541867
30
0
10
46.9573590017
20
65.0834355627
30
0
0
SPLINE
5
FD
100
AcDbEntity
8
patchy
6
ByLayer
62
7
370
-1
100
AcDbSpline
210
0
220
0
230
1
70
8
71
3
72
8
73
4
74
0
42
1e-07
43
1e-07
40
0
40
0
40
0
40
0
40
1
40
1
40
1
40
1
10
46.9573590017
20
65.0834355627
30
0
10
46.9832912897
20
65.0408171947
30
0
10
47.1569783297
20
64.9435922347
30
0
10
47.3434390017
20
64.8689467307
30
0
0
SPLINE
5
FE
100
AcDbEntity
8
patchy
6
ByLayer
62
7
370
-1
100
AcDbSpline
210
0
220
0
230
1
70
8
71
3
72
8
73
4
74
0
42
1e-07
43
1e-07
40
0
40
0
40
0
40
0
40
1
40
1
40
1
40
1
10
47.3434390017
20
64.8689467307
30
0
10
47.5298994177
20
64.7943014827
30
0
10
47.6821054977
20
64.7158433707
30
0
10
47.6821054977
20
64.6950978987
30
0
0
SPLINE
5
FF
100
AcDbEntity
8
patchy
6
ByLayer
62
7
370
-1
100
AcDbSpline
210
0
220
0
230
1
70
8
71
3
72
8
73
4
74
0
42
1e-07
43
1e-07
40
0
40
0
40
0
40
0
40
1
40
1
40
1
40
1
10
47.6821054977
20
64.6950978987
30
0
10
47.6821054977
20
64.6743521707
30
0
10
47.7686258177
20
64.6204692907
30
0
10
47.8740166657
20
64.5754355627
30
0
0
SPLINE
5
100
100
AcDbEntity
8
patchy
6
ByLayer
62
7
370
-1
100
AcDbSpline
210
0
220
0
230
1
70
8
71
3
72
8
73
4
74
0
42
1e-07
43
1e-07
40
0
40
0
40
0
40
0
40
1
40
1
40
1
40
1
10
47.8740166657
20
64.5754355627
30
0
10
48.1343799297
20
64.4641818027
30
0
10
48.5671543297
20
64.0193920427
30
0
10
48.5671543297
20
63.8619778987
30
0
0
SPLINE
5
101
100
AcDbEntity
8
patchy
6
ByLayer
62
7
370
-1
100
AcDbSpline
210
0
220
0
230
1
70
8
71
3
72
8
73
4
74
0
42
1e-07
43
1e-07
40
0
40
0
40
0
40
0
40
1
40
1
40
1
40
1
10
48.5671543297
20
63.8619778987
30
0
10
48.5671543297
20
63.7421302187
30
0
10
48.5488139777
20
63.7365617067
30
0
10
48.2578390017
20
63.7761823147
30
0
0
SPLINE
5
102
100
AcDbEntity
8
patchy
6
ByLayer
62
7
370
-1
100
AcDbSpline
210
0
220
0
230
1
70
8
71
3
72
8
73
4
74
0
42
1e-07
43
1e-07
40
0
40
0
40
0
40
0
40
1
40
1
40
1
40
1
10
48.2578390017
20
63.7761823147
30
0
10
48.0875923457
20
63.7993638827
30
0
10
47.9299567617
20
63.8474107307
30
0
10
47.9078834177
20
63.8822978987
30
0
0
SPLINE
5
103
100
AcDbEntity
8
patchy
6
ByLayer
62
7
370
-1
100
AcDbSpline
210
0
220
0
230
1
70
8
71
3
72
8
73
4
74
0
42
1e-07
43
1e-07
40
0
40
0
40
0
40
0
40
1
40
1
40
1
40
1
10
47.9078834177
20
63.8822978987
30
0
10
47.8497757697
20
63.9741384107
30
0
10
45.3082968577
20
63.9631826347
30
0
10
45.2775722497
20
63.8710090667
30
0
0
SPLINE
5
104
100
AcDbEntity
8
patchy
6
ByLayer
62
7
370
-1
100
AcDbSpline
210
0
220
0
230
1
70
8
71
3
72
8
73
4
74
0
42
1e-07
43
1e-07
40
0
40
0
40
0
40
0
40
1
40
1
40
1
40
1
10
45.2775722497
20
63.8710090667
30
0
10
45.2651352577
20
63.8336978347
30
0
10
45.2096979457
20
63.8030589867
30
0
10
45.1556522497
20
63.8032755627
30
0
0
SPLINE
5
105
100
AcDbEntity
8
patchy
6
ByLayer
62
7
370
-1
100
AcDbSpline
210
0
220
0
230
1
70
8
71
3
72
8
73
4
74
0
42
1e-07
43
1e-07
40
0
40
0
40
0
40
0
40
1
40
1
40
1
40
1
10
45.1556522497
20
63.8032755627
30
0
10
44.9927223297
20
63.8039247787
30
0
10
43.9997487617
20
63.6078036907
30
0
10
43.9680610817
20
63.5684667307
30
0
0
SPLINE
5
106
100
AcDbEntity
8
patchy
6
ByLayer
62
7
370
-1
100
AcDbSpline
210
0
220
0
230
1
70
8
71
3
72
8
73
4
74
0
42
1e-07
43
1e-07
40
0
40
0
40
0
40
0
40
1
40
1
40
1
40
1
10
43.9680610817
20
63.5684667307
30
0
10
43.9518470657
20
63.5483389867
30
0
10
43.7574744577
20
63.4828014507
30
0
10
43.5368254977
20
63.4239690667
30
0
0
SPLINE
5
107
100
AcDbEntity
8
patchy
6
ByLayer
62
7
370
-1
100
AcDbSpline
210
0
220
0
230
1
70
8
71
3
72
8
73
4
74
0
42
1e-07
43
1e-07
40
0
40
0
40
0
40
0
40
1
40
1
40
1
40
1
10
43.5368254977
20
63.4239690667
30
0
10
43.3161752577
20
63.3651366827
30
0
10
43.1042180097
20
63.2865769387
30
0
10
43.0649499137
20
63.2501199787
30
0
0
SPLINE
5
108
100
AcDbEntity
8
patchy
6
ByLayer
62
7
370
-1
100
AcDbSpline
210
0
220
0
230
1
70
8
71
3
72
8
73
4
74
0
42
1e-07
43
1e-07
40
0
40
0
40
0
40
0
40
1
40
1
40
1
40
1
10
43.0649499137
20
63.2501199787
30
0
10
43.0256820737
20
63.2136630187
30
0
10
42.8885810177
20
63.1320957867
30
0
10
42.7601499137
20
63.0672399787
30
0
0
SPLINE
5
109
100
AcDbEntity
8
patchy
6
ByLayer
62
7
370
-1
100
AcDbSpline
210
0
220
0
230
1
70
8
71
3
72
8
73
4
74
0
42
1e-07
43
1e-07
40
0
40
0
40
0
40
0
40
1
40
1
40
1
40
1
10
42.7601499137
20
63.0672399787
30
0
10
42.4814196737
20
62.9264847787
30
0
10
42.4309682177
20
62.8856530347
30
0
10
41.9089678337
20
62.3808755627
30
0
0
SPLINE
5
10A
100
AcDbEntity
8
patchy
6
ByLayer
62
7
370
-1
100
AcDbSpline
210
0
220
0
230
1
70
8
71
3
72
8
73
4
74
0
42
1e-07
43
1e-07
40
0
40
0
40
0
40
0
40
1
40
1
40
1
40
1
10
41.9089678337
20
62.3808755627
30
0
10
41.6775502337
20
62.1570934187
30
0
10
41.4698592257
20
61.8976256427
30
0
10
41.4258034177
20
61.7757911467
30
0
0
SPLINE
5
10B
100
AcDbEntity
8
patchy
6
ByLayer
62
7
370
-1
100
AcDbSpline
210
0
220
0
230
1
70
8
71
3
72
8
73
4
74
0
42
1e-07
43
1e-07
40
0
40
0
40
0
40
0
40
1
40
1
40
1
40
1
10
41.4258034177
20
61.7757911467
30
0
10
41.3834336257
20
61.6586209707
30
0
10
41.3321645057
20
61.5635599787
30
0
10
41.3106566657
20
61.5635599787
30
0
0
SPLINE
5
10C
100
AcDbEntity
8
patchy
6
ByLayer
62
7
370
-1
100
AcDbSpline
210
0
220
0
230
1
70
8
71
3
72
8
73
4
74
0
42
1e-07
43
1e-07
40
0
40
0
40
0
40
0
40
1
40
1
40
1
40
1
10
41.3106566657
20
61.5635599787
30
0
10
41.2891480577
20
61.5635599787
30
0
10
41.2264042497
20
61.4430676907
30
0
10
41.1706743297
20
61.2971423147
30
0
0
SPLINE
5
10D
100
AcDbEntity
8
patchy
6
ByLayer
62
7
370
-1
100
AcDbSpline
210
0
220
0
230
1
70
8
71
3
72
8
73
4
74
0
42
1e-07
43
1e-07
40
0
40
0
40
0
40
0
40
1
40
1
40
1
40
1
10
41.1706743297
20
61.2971423147
30
0
10
41.1149451777
20
61.1512166827
30
0
10
41.0475406337
20
61.0329823147
30
0
10
41.0216610817
20
61.0329823147
30
0
0
SPLINE
5
10E
100
AcDbEntity
8
patchy
6
ByLayer
62
7
370
-1
100
AcDbSpline
210
0
220
0
230
1
70
8
71
3
72
8
73
4
74
0
42
1e-07
43
1e-07
40
0
40
0
40
0
40
0
40
1
40
1
40
1
40
1
10
41.0216610817
20
61.0329823147
30
0
10
40.9957815297
20
61.0329823147
30
0
10
40.9124156417
20
60.7955492267
30
0
10
40.8365234177
20
60.5046623147
30
0
0
SPLINE
5
10F
100
AcDbEntity
8
patchy
6
ByLayer
62
7
370
-1
100
AcDbSpline
210
0
220
0
230
1
70
8
71
3
72
8
73
4
74
0
42
1e-07
43
1e-07
40
0
40
0
40
0
40
0
40
1
40
1
40
1
40
1
10
40.8365234177
20
60.5046623147
30
0
10
40.7183146497
20
60.0515799467
30
0
10
40.6775179777
20
59.9671206827
30
0
10
40.5497854977
20
59.9221555627
30
0
0
SPLINE
5
110
100
AcDbEntity
8
patchy
6
ByLayer
62
7
370
-1
100
AcDbSpline
210
0
220
0
230
1
70
8
71
3
72
8
73
4
74
0
42
1e-07
43
1e-07
40
0
40
0
40
0
40
0
40
1
40
1
40
1
40
1
10
40.5497854977
20
59.9221555627
30
0
10
40.1954863617
20
59.7974333867
30
0
10
39.9738484737
20
59.7347599787
30
0
10
39.8814834177
20
59.7347599787
30
0
0
SPLINE
5
111
100
AcDbEntity
8
patchy
6
ByLayer
62
7
370
-1
100
AcDbSpline
210
0
220
0
230
1
70
8
71
3
72
8
73
4
74
0
42
1e-07
43
1e-07
40
0
40
0
40
0
40
0
40
1
40
1
40
1
40
1
10
39.8814834177
20
59.7347599787
30
0
10
39.8270373377
20
59.7347599787
30
0
10
39.7821410817
20
59.7084856747
30
0
10
39.7821410817
20
59.6760578987
30
0
0
SPLINE
5
112
100
AcDbEntity
8
patchy
6
ByLayer
62
7
370
-1
100
AcDbSpline
210
0
220
0
230
1
70
8
71
3
72
8
73
4
74
0
42
1e-07
43
1e-07
40
0
40
0
40
0
40
0
40
1
40
1
40
1
40
1
10
39.7821410817
20
59.6760578987
30
0
10
39.7821410817
20
59.6436298667
30
0
10
39.6928777217
20
59.6173555627
30
0
10
39.5834566657
20
59.6173555627
30
0
0
SPLINE
5
113
100
AcDbEntity
8
patchy
6
ByLayer
62
7
370
-1
100
AcDbSpline
210
0
220
0
230
1
70
8
71
3
72
8
73
4
74
0
42
1e-07
43
1e-07
40
0
40
0
40
0
40
0
40
1
40
1
40
1
40
1
10
39.5834566657
20
59.6173555627
30
0
10
39.3820809217
20
59.6173555627
30
0
10
38.8992475137
20
59.4719106987
30
0
10
38.8406478337
20
59.3938355627
30
0
0
SPLINE
5
114
100
AcDbEntity
8
patchy
6
ByLayer
62
7
370
-1
100
AcDbSpline
210
0
220
0
230
1
70
8
71
3
72
8
73
4
74
0
42
1e-07
43
1e-07
40
0
40
0
40
0
40
0
40
1
40
1
40
1
40
1
10
38.8406478337
20
59.3938355627
30
0
10
38.8231100417
20
59.3704696747
30
0
10
38.7016843777
20
59.3000768427
30
0
10
38.5719722497
20
59.2357911467
30
0
0
SPLINE
5
115
100
AcDbEntity
8
patchy
6
ByLayer
62
7
370
-1
100
AcDbSpline
210
0
220
0
230
1
70
8
71
3
72
8
73
4
74
0
42
1e-07
43
1e-07
40
0
40
0
40
0
40
0
40
1
40
1
40
1
40
1
10
38.5719722497
20
59.2357911467
30
0
10
38.1697596417
20
59.0364529067
30
0
10
37.5431676417
20
58.3213911467
30
0
10
37.7704610817
20
58.3213911467
30
0
0
SPLINE
5
116
100
AcDbEntity
8
patchy
6
ByLayer
62
7
370
-1
100
AcDbSpline
210
0
220
0
230
1
70
8
71
3
72
8
73
4
74
0
42
1e-07
43
1e-07
40
0
40
0
40
0
40
0
40
1
40
1
40
1
40
1
10
37.7704610817
20
58.3213911467
30
0
10
37.7991069697
20
58.3213911467
30
0
10
37.8393634817
20
58.2742827947
30
0
10
37.8607722497
20
58.2175334827
30
0
0
SPLINE
5
117
100
AcDbEntity
8
patchy
6
ByLayer
62
7
370
-1
100
AcDbSpline
210
0
220
0
230
1
70
8
71
3
72
8
73
4
74
0
42
1e-07
43
1e-07
40
0
40
0
40
0
40
0
40
1
40
1
40
1
40
1
10
37.8607722497
20
58.2175334827
30
0
10
37.9416728577
20
58.0030930347
30
0
10
38.0427672577
20
57.8495155627
30
0
10
38.1023543297
20
57.8495155627
30
0
0
SPLINE
5
118
100
AcDbEntity
8
patchy
6
ByLayer
62
7
370
-1
100
AcDbSpline
210
0
220
0
230
1
70
8
71
3
72
8
73
4
74
0
42
1e-07
43
1e-07
40
0
40
0
40
0
40
0
40
1
40
1
40
1
40
1
10
38.1023543297
20
57.8495155627
30
0
10
38.1363158017
20
57.8495155627
30
0
10
38.2149052417
20
57.7629954987
30
0
10
38.2762034177
20
57.6576046507
30
0
0
SPLINE
5
119
100
AcDbEntity
8
patchy
6
ByLayer
62
7
370
-1
100
AcDbSpline
210
0
220
0
230
1
70
8
71
3
72
8
73
4
74
0
42
1e-07
43
1e-07
40
0
40
0
40
0
40
0
40
1
40
1
40
1
40
1
10
38.2762034177
20
57.6576046507
30
0
10
38.3375013377
20
57.5522143147
30
0
10
38.4135143937
20
57.4486897067
30
0
10
38.4455366657
20
57.4273111467
30
0
0
SPLINE
5
11A
100
AcDbEntity
8
patchy
6
ByLayer
62
7
370
-1
100
AcDbSpline
210
0
220
0
230
1
70
8
71
3
72
8
73
4
74
0
42
1e-07
43
1e-07
40
0
40
0
40
0
40
0
40
1
40
1
40
1
40
1
10
38.4455366657
20
57.4273111467
30
0
10
38.4806793217
20
57.4038497707
30
0
10
38.4640503297
20
57.3487406507
30
0
10
38.4048966657
20
57.2895867307
30
0
0
SPLINE
5
11B
100
AcDbEntity
8
patchy
6
ByLayer
62
7
370
-1
100
AcDbSpline
210
0
220
0
230
1
70
8
71
3
72
8
73
4
74
0
42
1e-07
43
1e-07
40
0
40
0
40
0
40
0
40
1
40
1
40
1
40
1
10
38.4048966657
20
57.2895867307
30
0
10
38.3509953537
20
57.2356861867
30
0
10
38.3078122497
20
57.1570511787
30
0
10
38.3078122497
20
57.1134799787
30
0
0
SPLINE
5
11C
100
AcDbEntity
8
patchy
6
ByLayer
62
7
370
-1
100
AcDbSpline
210
0
220
0
230
1
70
8
71
3
72
8
73
4
74
0
42
1e-07
43
1e-07
40
0
40
0
40
0
40
0
40
1
40
1
40
1
40
1
10
38.3078122497
20
57.1134799787
30
0
10
38.3078122497
20
57.0390845867
30
0
10
38.1855172097
20
56.8710172587
30
0
10
37.9330210817
20
56.5987067307
30
0
0
SPLINE
5
11D
100
AcDbEntity
8
patchy
6
ByLayer
62
7
370
-1
100
AcDbSpline
210
0
220
0
230
1
70
8
71
3
72
8
73
4
74
0
42
1e-07
43
1e-07
40
0
40
0
40
0
40
0
40
1
40
1
40
1
40
1
10
37.9330210817
20
56.5987067307
30
0
10
37.8672667137
20
56.5277924267
30
0
10
37.8356635137
20
56.4314475947
30
0
10
37.8539990017
20
56.3548667307
30
0
0
SPLINE
5
11E
100
AcDbEntity
8
patchy
6
ByLayer
62
7
370
-1
100
AcDbSpline
210
0
220
0
230
1
70
8
71
3
72
8
73
4
74
0
42
1e-07
43
1e-07
40
0
40
0
40
0
40
0
40
1
40
1
40
1
40
1
10
37.8539990017
20
56.3548667307
30
0
10
37.9537819137
20
55.9380977067
30
0
10
38.0749142017
20
55.5834061227
30
0
10
38.1271899137
20
55.5510978987
30
0
0
SPLINE
5
11F
100
AcDbEntity
8
patchy
6
ByLayer
62
7
370
-1
100
AcDbSpline
210
0
220
0
230
1
70
8
71
3
72
8
73
4
74
0
42
1e-07
43
1e-07
40
0
40
0
40
0
40
0
40
1
40
1
40
1
40
1
10
38.1271899137
20
55.5510978987
30
0
10
38.1603565057
20
55.5306002347
30
0
10
38.2116952577
20
55.3384832427
30
0
10
38.2423366657
20
55.1221199787
30
0
0
SPLINE
5
120
100
AcDbEntity
8
patchy
6
ByLayer
62
7
370
-1
100
AcDbSpline
210
0
220
0
230
1
70
8
71
3
72
8
73
4
74
0
42
1e-07
43
1e-07
40
0
40
0
40
0
40
0
40
1
40
1
40
1
40
1
10
38.2423366657
20
55.1221199787
30
0
10
38.3043913217
20
54.6839350187
30
0
10
38.3357638657
20
54.6050890667
30
0
10
38.4545678337
20
54.6050890667
30
0
0
SPLINE
5
121
100
AcDbEntity
8
patchy
6
ByLayer
62
7
370
-1
100
AcDbSpline
210
0
220
0
230
1
70
8
71
3
72
8
73
4
74
0
42
1e-07
43
1e-07
40
0
40
0
40
0
40
0
40
1
40
1
40
1
40
1
10
38.4545678337
20
54.6050890667
30
0
10
38.4994574337
20
54.6050890667
30
0
10
38.5702383617
20
54.5573535147
30
0
10
38.6126122497
20
54.4989734827
30
0
0
SPLINE
5
122
100
AcDbEntity
8
patchy
6
ByLayer
62
7
370
-1
100
AcDbSpline
210
0
220
0
230
1
70
8
71
3
72
8
73
4
74
0
42
1e-07
43
1e-07
40
0
40
0
40
0
40
0
40
1
40
1
40
1
40
1
10
38.6126122497
20
54.4989734827
30
0
10
38.6549853697
20
54.4405934507
30
0
10
38.7835949057
20
54.3583734187
30
0
10
38.8970922497
20
54.3138355627
30
0
0
SPLINE
5
123
100
AcDbEntity
8
patchy
6
ByLayer
62
7
370
-1
100
AcDbSpline
210
0
220
0
230
1
70
8
71
3
72
8
73
4
74
0
42
1e-07
43
1e-07
40
0
40
0
40
0
40
0
40
1
40
1
40
1
40
1
10
38.8970922497
20
54.3138355627
30
0
10
39.0105901057
20
54.2692977067
30
0
10
39.1441038337
20
54.1894402987
30
0
10
39.1951190017
20
54.1377290667
30
0
0
SPLINE
5
124
100
AcDbEntity
8
patchy
6
ByLayer
62
7
370
-1
100
AcDbSpline
210
0
220
0
230
1
70
8
71
3
72
8
73
4
74
0
42
1e-07
43
1e-07
40
0
40
0
40
0
40
0
40
1
40
1
40
1
40
1
10
39.1951190017
20
54.1377290667
30
0
10
39.2461331457
20
54.0860175787
30
0
10
39.4060371457
20
53.9910889387
30
0
10
39.5495899137
20
53.9277555627
30
0
0
SPLINE
5
125
100
AcDbEntity
8
patchy
6
ByLayer
62
7
370
-1
100
AcDbSpline
210
0
220
0
230
1
70
8
71
3
72
8
73
4
74
0
42
1e-07
43
1e-07
40
0
40
0
40
0
40
0
40
1
40
1
40
1
40
1
10
39.5495899137
20
53.9277555627
30
0
10
39.6931419137
20
53.8644221867
30
0
10
39.8329732097
20
53.7795622827
30
0
10
39.8589054977
20
53.7381023147
30
0
0
SPLINE
5
126
100
AcDbEntity
8
patchy
6
ByLayer
62
7
370
-1
100
AcDbSpline
210
0
220
0
230
1
70
8
71
3
72
8
73
4
74
0
42
1e-07
43
1e-07
40
0
40
0
40
0
40
0
40
1
40
1
40
1
40
1
10
39.8589054977
20
53.7381023147
30
0
10
39.8848377857
20
53.6966408107
30
0
10
39.9428261377
20
53.6635955627
30
0
10
39.9898566657
20
53.6635955627
30
0
0
SPLINE
5
127
100
AcDbEntity
8
patchy
6
ByLayer
62
7
370
-1
100
AcDbSpline
210
0
220
0
230
1
70
8
71
3
72
8
73
4
74
0
42
1e-07
43
1e-07
40
0
40
0
40
0
40
0
40
1
40
1
40
1
40
1
10
39.9898566657
20
53.6635955627
30
0
10
40.0368871937
20
53.6635955627
30
0
10
40.1233445377
20
53.6164872107
30
0
10
40.1817678337
20
53.5597378987
30
0
0
SPLINE
5
128
100
AcDbEntity
8
patchy
6
ByLayer
62
7
370
-1
100
AcDbSpline
210
0
220
0
230
1
70
8
71
3
72
8
73
4
74
0
42
1e-07
43
1e-07
40
0
40
0
40
0
40
0
40
1
40
1
40
1
40
1
10
40.1817678337
20
53.5597378987
30
0
10
40.2401911297
20
53.5029893547
30
0
10
40.3923972097
20
53.3986603947
30
0
10
40.5204343297
20
53.3271867307
30
0
0
SPLINE
5
129
100
AcDbEntity
8
patchy
6
ByLayer
62
7
370
-1
100
AcDbSpline
210
0
220
0
230
1
70
8
71
3
72
8
73
4
74
0
42
1e-07
43
1e-07
40
0
40
0
40
0
40
0
40
1
40
1
40
1
40
1
10
40.7326654977
20
52.2073290667
30
0
10
40.7203580417
20
51.6626726827
30
0
10
40.6863865857
20
51.2066537387
30
0
10
40.6581590017
20
51.1958446507
30
0
0
SPLINE
5
12A
100
AcDbEntity
8
patchy
6
ByLayer
62
7
370
-1
100
AcDbSpline
210
0
220
0
230
1
70
8
71
3
72
8
73
4
74
0
42
1e-07
43
1e-07
40
0
40
0
40
0
40
0
40
1
40
1
40
1
40
1
10
40.6581590017
20
51.1958446507
30
0
10
40.6299306497
20
51.1850353067
30
0
10
40.6062299137
20
51.0939525547
30
0
10
40.6062299137
20
50.9926446507
30
0
0
SPLINE
5
12B
100
AcDbEntity
8
patchy
6
ByLayer
62
7
370
-1
100
AcDbSpline
210
0
220
0
230
1
70
8
71
3
72
8
73
4
74
0
42
1e-07
43
1e-07
40
0
40
0
40
0
40
0
40
1
40
1
40
1
40
1
10
40.6062299137
20
50.9926446507
30
0
10
40.6062299137
20
50.6457812907
30
0
10
40.4173830657
20
49.3302748587
30
0
10
40.3646478337
20
49.3105999787
30
0
0
SPLINE
5
12C
100
AcDbEntity
8
patchy
6
ByLayer
62
7
370
-1
100
AcDbSpline
210
0
220
0
230
1
70
8
71
3
72
8
73
4
74
0
42
1e-07
43
1e-07
40
0
40
0
40
0
40
0
40
1
40
1
40
1
40
1
10
40.3646478337
20
49.3105999787
30
0
10
40.3356745217
20
49.2997901227
30
0
10
40.3127190017
20
49.2493757867
30
0
10
40.3127190017
20
49.1999690667
30
0
0
SPLINE
5
12D
100
AcDbEntity
8
patchy
6
ByLayer
62
7
370
-1
100
AcDbSpline
210
0
220
0
230
1
70
8
71
3
72
8
73
4
74
0
42
1e-07
43
1e-07
40
0
40
0
40
0
40
0
40
1
40
1
40
1
40
1
10
40.3127190017
20
49.1999690667
30
0
10
40.3127190017
20
49.1505623467
30
0
10
40.2673278977
20
48.9267858347
30
0
10
40.2133766657
20
48.7032578987
30
0
0
SPLINE
5
12E
100
AcDbEntity
8
patchy
6
ByLayer
62
7
370
-1
100
AcDbSpline
210
0
220
0
230
1
70
8
71
3
72
8
73
4
74
0
42
1e-07
43
1e-07
40
0
40
0
40
0
40
0
40
1
40
1
40
1
40
1
10
40.2133766657
20
48.7032578987
30
0
10
40.1275342337
20
48.3476019627
30
0
10
40.0989395457
20
48.2968578987
30
0
10
39.9808254977
20
48.2968578987
30
0
0
SPLINE
5
12F
100
AcDbEntity
8
patchy
6
ByLayer
62
7
370
-1
100
AcDbSpline
210
0
220
0
230
1
70
8
71
3
72
8
73
4
74
0
42
1e-07
43
1e-07
40
0
40
0
40
0
40
0
40
1
40
1
40
1
40
1
10
39.9808254977
20
48.2968578987
30
0
10
39.8467193857
20
48.2968578987
30
0
10
39.5427754497
20
48.4097526187
30
0
10
39.4863722497
20
48.4797378987
30
0
0
SPLINE
5
130
100
AcDbEntity
8
patchy
6
ByLayer
62
7
370
-1
100
AcDbSpline
210
0
220
0
230
1
70
8
71
3
72
8
73
4
74
0
42
1e-07
43
1e-07
40
0
40
0
40
0
40
0
40
1
40
1
40
1
40
1
10
39.4863722497
20
48.4797378987
30
0
10
39.4701587457
20
48.4998569387
30
0
10
39.3781981697
20
48.5410250667
30
0
10
39.2809143297
20
48.5723067307
30
0
0
SPLINE
5
131
100
AcDbEntity
8
patchy
6
ByLayer
62
7
370
-1
100
AcDbSpline
210
0
220
0
230
1
70
8
71
3
72
8
73
4
74
0
42
1e-07
43
1e-07
40
0
40
0
40
0
40
0
40
1
40
1
40
1
40
1
10
39.2809143297
20
48.5723067307
30
0
10
39.1836312577
20
48.6035876267
30
0
10
39.0772571137
20
48.6863183787
30
0
10
39.0461054977
20
48.7551867307
30
0
0
SPLINE
5
132
100
AcDbEntity
8
patchy
6
ByLayer
62
7
370
-1
100
AcDbSpline
210
0
220
0
230
1
70
8
71
3
72
8
73
4
74
0
42
1e-07
43
1e-07
40
0
40
0
40
0
40
0
40
1
40
1
40
1
40
1
10
39.0461054977
20
48.7551867307
30
0
10
39.0149546497
20
48.8240558507
30
0
10
38.9419140097
20
48.8911946667
30
0
10
38.8835454977
20
48.9064578987
30
0
0
SPLINE
5
133
100
AcDbEntity
8
patchy
6
ByLayer
62
7
370
-1
100
AcDbSpline
210
0
220
0
230
1
70
8
71
3
72
8
73
4
74
0
42
1e-07
43
1e-07
40
0
40
0
40
0
40
0
40
1
40
1
40
1
40
1
10
38.8835454977
20
48.9064578987
30
0
10
38.7817534977
20
48.9330772907
30
0
10
38.4278053377
20
48.8360448427
30
0
10
38.3665143297
20
48.7642178987
30
0
0
SPLINE
5
134
100
AcDbEntity
8
patchy
6
ByLayer
62
7
370
-1
100
AcDbSpline
210
0
220
0
230
1
70
8
71
3
72
8
73
4
74
0
42
1e-07
43
1e-07
40
0
40
0
40
0
40
0
40
1
40
1
40
1
40
1
10
38.3665143297
20
48.7642178987
30
0
10
38.3503010817
20
48.7452162987
30
0
10
38.1170136577
20
48.6797965227
30
0
10
37.8494834177
20
48.6197199787
30
0
0
SPLINE
5
135
100
AcDbEntity
8
patchy
6
ByLayer
62
7
370
-1
100
AcDbSpline
210
0
220
0
230
1
70
8
71
3
72
8
73
4
74
0
42
1e-07
43
1e-07
40
0
40
0
40
0
40
0
40
1
40
1
40
1
40
1
10
37.8494834177
20
48.6197199787
30
0
10
37.5819536897
20
48.5596429227
30
0
10
37.3640610817
20
48.4902456747
30
0
10
37.3640610817
20
48.4639334827
30
0
0
SPLINE
5
136
100
AcDbEntity
8
patchy
6
ByLayer
62
7
370
-1
100
AcDbSpline
210
0
220
0
230
1
70
8
71
3
72
8
73
4
74
0
42
1e-07
43
1e-07
40
0
40
0
40
0
40
0
40
1
40
1
40
1
40
1
10
37.3640610817
20
48.4639334827
30
0
10
37.3640610817
20
48.4376197547
30
0
10
37.3143264257
20
48.4142623147
30
0
10
37.2534299137
20
48.4142623147
30
0
0
SPLINE
5
137
100
AcDbEntity
8
patchy
6
ByLayer
62
7
370
-1
100
AcDbSpline
210
0
220
0
230
1
70
8
71
3
72
8
73
4
74
0
42
1e-07
43
1e-07
40
0
40
0
40
0
40
0
40
1
40
1
40
1
40
1
10
37.2534299137
20
48.4142623147
30
0
10
37.1087225857
20
48.4142623147
30
0
10
36.7059431937
20
48.2459100587
30
0
10
36.6280254977
20
48.1523599787
30
0
0
SPLINE
5
138
100
AcDbEntity
8
patchy
6
ByLayer
62
7
370
-1
100
AcDbSpline
210
0
220
0
230
1
70
8
71
3
72
8
73
4
74
0
42
1e-07
43
1e-07
40
0
40
0
40
0
40
0
40
1
40
1
40
1
40
1
10
36.6280254977
20
48.1523599787
30
0
10
36.5944746497
20
48.1120770987
30
0
10
36.4751049217
20
48.0441564587
30
0
10
36.3616078337
20
48.0010890667
30
0
0
SPLINE
5
139
100
AcDbEntity
8
patchy
6
ByLayer
62
7
370
-1
100
AcDbSpline
210
0
220
0
230
1
70
8
71
3
72
8
73
4
74
0
42
1e-07
43
1e-07
40
0
40
0
40
0
40
0
40
1
40
1
40
1
40
1
10
36.3616078337
20
48.0010890667
30
0
10
36.2481097217
20
47.9580221867
30
0
10
36.1115485697
20
47.8784356267
30
0
10
36.0568078337
20
47.8227246507
30
0
0
SPLINE
5
13A
100
AcDbEntity
8
patchy
6
ByLayer
62
7
370
-1
100
AcDbSpline
210
0
220
0
230
1
70
8
71
3
72
8
73
4
74
0
42
1e-07
43
1e-07
40
0
40
0
40
0
40
0
40
1
40
1
40
1
40
1
10
36.0568078337
20
47.8227246507
30
0
10
36.0020668417
20
47.7670141867
30
0
10
35.8213285377
20
47.6864305067
30
0
10
35.6571810817
20
47.6443599787
30
0
0
SPLINE
5
13B
100
AcDbEntity
8
patchy
6
ByLayer
62
7
370
-1
100
AcDbSpline
210
0
220
0
230
1
70
8
71
3
72
8
73
4
74
0
42
1e-07
43
1e-07
40
0
40
0
40
0
40
0
40
1
40
1
40
1
40
1
10
35.6571810817
20
47.6443599787
30
0
10
35.4930338817
20
47.6022909867
30
0
10
35.3591543297
20
47.5464794027
30
0
10
35.3591543297
20
47.5201823147
30
0
0
SPLINE
5
13C
100
AcDbEntity
8
patchy
6
ByLayer
62
7
370
-1
100
AcDbSpline
210
0
220
0
230
1
70
8
71
3
72
8
73
4
74
0
42
1e-07
43
1e-07
40
0
40
0
40
0
40
0
40
1
40
1
40
1
40
1
10
35.3591543297
20
47.5201823147
30
0
10
35.3591543297
20
47.4938852267
30
0
10
35.3175881217
20
47.4727690667
30
0
10
35.2665854977
20
47.4727690667
30
0
0
SPLINE
5
13D
100
AcDbEntity
8
patchy
6
ByLayer
62
7
370
-1
100
AcDbSpline
210
0
220
0
230
1
70
8
71
3
72
8
73
4
74
0
42
1e-07
43
1e-07
40
0
40
0
40
0
40
0
40
1
40
1
40
1
40
1
10
35.2665854977
20
47.4727690667
30
0
10
35.1181177857
20
47.4727690667
30
0
10
34.1543051777
20
47.2255066027
30
0
10
34.1218922497
20
47.1792578987
30
0
0
SPLINE
5
13E
100
AcDbEntity
8
patchy
6
ByLayer
62
7
370
-1
100
AcDbSpline
210
0
220
0
230
1
70
8
71
3
72
8
73
4
74
0
42
1e-07
43
1e-07
40
0
40
0
40
0
40
0
40
1
40
1
40
1
40
1
10
34.1218922497
20
47.1792578987
30
0
10
34.1056782337
20
47.1561231787
30
0
10
33.9063630337
20
47.0883889067
30
0
10
33.6793678337
20
47.0279867307
30
0
0
SPLINE
5
13F
100
AcDbEntity
8
patchy
6
ByLayer
62
7
370
-1
100
AcDbSpline
210
0
220
0
230
1
70
8
71
3
72
8
73
4
74
0
42
1e-07
43
1e-07
40
0
40
0
40
0
40
0
40
1
40
1
40
1
40
1
10
33.6793678337
20
47.0279867307
30
0
10
33.4523726337
20
46.9675845547
30
0
10
33.2326102017
20
46.8852372907
30
0
10
33.1916878337
20
46.8451067307
30
0
0
SPLINE
5
140
100
AcDbEntity
8
patchy
6
ByLayer
62
7
370
-1
100
AcDbSpline
210
0
220
0
230
1
70
8
71
3
72
8
73
4
74
0
42
1e-07
43
1e-07
40
0
40
0
40
0
40
0
40
1
40
1
40
1
40
1
10
33.1916878337
20
46.8451067307
30
0
10
33.0118977537
20
46.6687956907
30
0
10
32.1718859777
20
46.7000612267
30
0
10
32.0537678337
20
46.8880046507
30
0
0
SPLINE
5
141
100
AcDbEntity
8
patchy
6
ByLayer
62
7
370
-1
100
AcDbSpline
210
0
220
0
230
1
70
8
71
3
72
8
73
4
74
0
42
1e-07
43
1e-07
40
0
40
0
40
0
40
0
40
1
40
1
40
1
40
1
10
32.0537678337
20
46.8880046507
30
0
10
32.0356527617
20
46.9168282027
30
0
10
31.7969250817
20
46.9850744747
30
0
10
31.5231899137
20
47.0392755627
30
0
0
SPLINE
5
142
100
AcDbEntity
8
patchy
6
ByLayer
62
7
370
-1
100
AcDbSpline
210
0
220
0
230
1
70
8
71
3
72
8
73
4
74
0
42
1e-07
43
1e-07
40
0
40
0
40
0
40
0
40
1
40
1
40
1
40
1
10
31.5231899137
20
47.0392755627
30
0
10
31.2494542337
20
47.0934766507
30
0
10
31.0133410817
20
47.1567017387
30
0
10
30.9971278337
20
47.1792578987
30
0
0
SPLINE
5
143
100
AcDbEntity
8
patchy
6
ByLayer
62
7
370
-1
100
AcDbSpline
210
0
220
0
230
1
70
8
71
3
72
8
73
4
74
0
42
1e-07
43
1e-07
40
0
40
0
40
0
40
0
40
1
40
1
40
1
40
1
10
30.9971278337
20
47.1792578987
30
0
10
30.9809135617
20
47.2018132907
30
0
10
30.6348320257
20
47.2808102827
30
0
10
30.2294834177
20
47.3553646507
30
0
0
SPLINE
5
144
100
AcDbEntity
8
patchy
6
ByLayer
62
7
370
-1
100
AcDbSpline
210
0
220
0
230
1
70
8
71
3
72
8
73
4
74
0
42
1e-07
43
1e-07
40
0
40
0
40
0
40
0
40
1
40
1
40
1
40
1
10
30.2294834177
20
47.3553646507
30
0
10
29.8241345537
20
47.4299187627
30
0
10
29.4803106817
20
47.5086500267
30
0
10
29.4640966657
20
47.5292134827
30
0
0
SPLINE
5
145
100
AcDbEntity
8
patchy
6
ByLayer
62
7
370
-1
100
AcDbSpline
210
0
220
0
230
1
70
8
71
3
72
8
73
4
74
0
42
1e-07
43
1e-07
40
0
40
0
40
0
40
0
40
1
40
1
40
1
40
1
10
29.4640966657
20
47.5292134827
30
0
10
29.4478826497
20
47.5497761707
30
0
10
29.1697437697
20
47.6140242347
30
0
10
28.8454654977
20
47.6737111467
30
0
0
SPLINE
5
146
100
AcDbEntity
8
patchy
6
ByLayer
62
7
370
-1
100
AcDbSpline
210
0
220
0
230
1
70
8
71
3
72
8
73
4
74
0
42
1e-07
43
1e-07
40
0
40
0
40
0
40
0
40
1
40
1
40
1
40
1
10
28.8454654977
20
47.6737111467
30
0
10
28.5211864577
20
47.7333995947
30
0
10
28.2407906817
20
47.8019269547
30
0
10
28.2245766657
20
47.8249823147
30
0
0
SPLINE
5
147
100
AcDbEntity
8
patchy
6
ByLayer
62
7
370
-1
100
AcDbSpline
210
0
220
0
230
1
70
8
71
3
72
8
73
4
74
0
42
1e-07
43
1e-07
40
0
40
0
40
0
40
0
40
1
40
1
40
1
40
1
10
28.2245766657
20
47.8249823147
30
0
10
28.2083626497
20
47.8480376747
30
0
10
27.8381129217
20
47.9262968747
30
0
10
27.4004878337
20
47.9988311467
30
0
0
SPLINE
5
148
100
AcDbEntity
8
patchy
6
ByLayer
62
7
370
-1
100
AcDbSpline
210
0
220
0
230
1
70
8
71
3
72
8
73
4
74
0
42
1e-07
43
1e-07
40
0
40
0
40
0
40
0
40
1
40
1
40
1
40
1
10
27.4004878337
20
47.9988311467
30
0
10
26.9628624897
20
48.0713646507
30
0
10
26.5905061377
20
48.1522235307
30
0
10
26.5741410817
20
48.1771955627
30
0
0
SPLINE
5
149
100
AcDbEntity
8
patchy
6
ByLayer
62
7
370
-1
100
AcDbSpline
210
0
220
0
230
1
70
8
71
3
72
8
73
4
74
0
42
1e-07
43
1e-07
40
0
40
0
40
0
40
0
40
1
40
1
40
1
40
1
10
26.5741410817
20
48.1771955627
30
0
10
26.5577752577
20
48.2021670827
30
0
10
26.3087384577
20
48.2660710827
30
0
10
26.0187278337
20
48.3194355627
30
0
0
SPLINE
5
14A
100
AcDbEntity
8
patchy
6
ByLayer
62
7
370
-1
100
AcDbSpline
210
0
220
0
230
1
70
8
71
3
72
8
73
4
74
0
42
1e-07
43
1e-07
40
0
40
0
40
0
40
0
40
1
40
1
40
1
40
1
10
26.0187278337
20
48.3194355627
30
0
10
25.7287177217
20
48.3727992747
30
0
10
25.4745954817
20
48.4388674987
30
0
10
25.4565410817
20
48.4661911467
30
0
0
SPLINE
5
14B
100
AcDbEntity
8
patchy
6
ByLayer
62
7
370
-1
100
AcDbSpline
210
0
220
0
230
1
70
8
71
3
72
8
73
4
74
0
42
1e-07
43
1e-07
40
0
40
0
40
0
40
0
40
1
40
1
40
1
40
1
10
25.4565410817
20
48.4661911467
30
0
10
25.4384861697
20
48.4935142827
30
0
10
25.3044399617
20
48.5342177707
30
0
10
25.1585143297
20
48.5565023147
30
0
0
SPLINE
5
14C
100
AcDbEntity
8
patchy
6
ByLayer
62
7
370
-1
100
AcDbSpline
210
0
220
0
230
1
70
8
71
3
72
8
73
4
74
0
42
1e-07
43
1e-07
40
0
40
0
40
0
40
0
40
1
40
1
40
1
40
1
10
25.1585143297
20
48.5565023147
30
0
10
25.0125889537
20
48.5787868587
30
0
10
24.7607248897
20
48.6196600747
30
0
10
24.5985854977
20
48.6490711467
30
0
0
SPLINE
5
14D
100
AcDbEntity
8
patchy
6
ByLayer
62
7
370
-1
100
AcDbSpline
210
0
220
0
230
1
70
8
71
3
72
8
73
4
74
0
42
1e-07
43
1e-07
40
0
40
0
40
0
40
0
40
1
40
1
40
1
40
1
10
24.5985854977
20
48.6490711467
30
0
10
24.0941006337
20
48.7405816747
30
0
10
23.5225074177
20
48.7224499627
30
0
10
23.3432610817
20
48.6084311467
30
0
0
SPLINE
5
14E
100
AcDbEntity
8
patchy
6
ByLayer
62
7
370
-1
100
AcDbSpline
210
0
220
0
230
1
70
8
71
3
72
8
73
4
74
0
42
1e-07
43
1e-07
40
0
40
0
40
0
40
0
40
1
40
1
40
1
40
1
10
23.3432610817
20
48.6084311467
30
0
10
23.2552252417
20
48.5524311467
30
0
10
23.1668627457
20
48.4799270827
30
0
10
23.1445766657
20
48.4481290667
30
0
0
SPLINE
5
14F
100
AcDbEntity
8
patchy
6
ByLayer
62
7
370
-1
100
AcDbSpline
210
0
220
0
230
1
70
8
71
3
72
8
73
4
74
0
42
1e-07
43
1e-07
40
0
40
0
40
0
40
0
40
1
40
1
40
1
40
1
10
23.1445766657
20
48.4481290667
30
0
10
23.1222903297
20
48.4163300267
30
0
10
22.6746579457
20
48.3672730027
30
0
10
22.1511543297
20
48.3374978987
30
0
0
SPLINE
5
150
100
AcDbEntity
8
patchy
6
ByLayer
62
7
370
-1
100
AcDbSpline
210
0
220
0
230
1
70
8
71
3
72
8
73
4
74
0
42
1e-07
43
1e-07
40
0
40
0
40
0
40
0
40
1
40
1
40
1
40
1
10
22.1511543297
20
48.3374978987
30
0
10
21.1688815617
20
48.2816284587
30
0
10
21.0393504257
20
48.2986322347
30
0
10
20.8032610817
20
48.5226355627
30
0
0
SPLINE
5
151
100
AcDbEntity
8
patchy
6
ByLayer
62
7
370
-1
100
AcDbSpline
210
0
220
0
230
1
70
8
71
3
72
8
73
4
74
0
42
1e-07
43
1e-07
40
0
40
0
40
0
40
0
40
1
40
1
40
1
40
1
10
20.8032610817
20
48.5226355627
30
0
10
20.7468481537
20
48.5761605547
30
0
10
20.6349641217
20
48.5896046507
30
0
10
20.4487899137
20
48.5655334827
30
0
0
SPLINE
5
152
100
AcDbEntity
8
patchy
6
ByLayer
62
7
370
-1
100
AcDbSpline
210
0
220
0
230
1
70
8
71
3
72
8
73
4
74
0
42
1e-07
43
1e-07
40
0
40
0
40
0
40
0
40
1
40
1
40
1
40
1
10
20.4487899137
20
48.5655334827
30
0
10
20.2043099137
20
48.5339231147
30
0
10
20.1579321857
20
48.5487867307
30
0
10
19.9746566657
20
48.7122890667
30
0
0
LWPOLYLINE
5
153
100
AcDbEntity
8
patchy
6
ByLayer
62
7
370
-1
100
AcDbPolyline
90
3
70
0
43
0
10
40.5204343297
20
53.3271867307
10
40.7552434177
20
53.1962355627
10
40.7326654977
20
52.2073290667
0
SPLINE
5
154
100
AcDbEntity
8
patchy
6
ByLayer
62
7
370
-1
100
AcDbSpline
210
0
220
0
230
1
70
8
71
3
72
8
73
4
74
0
42
1e-07
43
1e-07
40
0
40
0
40
0
40
0
40
1
40
1
40
1
40
1
10
19.6675990017
20
48.7597023147
30
0
10
19.6115401217
20
48.6853826987
30
0
10
19.5894596097
20
48.6102208427
30
0
10
19.6179278337
20
48.5926267307
30
0
0
SPLINE
5
155
100
AcDbEntity
8
patchy
6
ByLayer
62
7
370
-1
100
AcDbSpline
210
0
220
0
230
1
70
8
71
3
72
8
73
4
74
0
42
1e-07
43
1e-07
40
0
40
0
40
0
40
0
40
1
40
1
40
1
40
1
10
19.6179278337
20
48.5926267307
30
0
10
19.6472390657
20
48.5745111467
30
0
10
19.6467849217
20
48.5221660587
30
0
10
19.6156699137
20
48.4729646507
30
0
0
SPLINE
5
156
100
AcDbEntity
8
patchy
6
ByLayer
62
7
370
-1
100
AcDbSpline
210
0
220
0
230
1
70
8
71
3
72
8
73
4
74
0
42
1e-07
43
1e-07
40
0
40
0
40
0
40
0
40
1
40
1
40
1
40
1
10
19.6156699137
20
48.4729646507
30
0
10
19.4877031937
20
48.2706120107
30
0
10
19.6429602817
20
47.4163571627
30
0
10
19.8369322497
20
47.2560223147
30
0
0
SPLINE
5
157
100
AcDbEntity
8
patchy
6
ByLayer
62
7
370
-1
100
AcDbSpline
210
0
220
0
230
1
70
8
71
3
72
8
73
4
74
0
42
1e-07
43
1e-07
40
0
40
0
40
0
40
0
40
1
40
1
40
1
40
1
10
19.8369322497
20
47.2560223147
30
0
10
19.8819984897
20
47.2187707307
30
0
10
19.9440882177
20
47.0926863787
30
0
10
19.9769143297
20
46.9737999787
30
0
0
SPLINE
5
158
100
AcDbEntity
8
patchy
6
ByLayer
62
7
370
-1
100
AcDbSpline
210
0
220
0
230
1
70
8
71
3
72
8
73
4
74
0
42
1e-07
43
1e-07
40
0
40
0
40
0
40
0
40
1
40
1
40
1
40
1
10
19.9769143297
20
46.9737999787
30
0
10
20.0315557377
20
46.7759045547
30
0
10
20.4366698497
20
46.2919511467
30
0
10
20.5481322497
20
46.2919511467
30
0
0
SPLINE
5
159
100
AcDbEntity
8
patchy
6
ByLayer
62
7
370
-1
100
AcDbSpline
210
0
220
0
230
1
70
8
71
3
72
8
73
4
74
0
42
1e-07
43
1e-07
40
0
40
0
40
0
40
0
40
1
40
1
40
1
40
1
10
20.5481322497
20
46.2919511467
30
0
10
20.6336475137
20
46.2919511467
30
0
10
20.9134224897
20
46.1451740587
30
0
10
20.9138922497
20
46.1000399787
30
0
0
SPLINE
5
15A
100
AcDbEntity
8
patchy
6
ByLayer
62
7
370
-1
100
AcDbSpline
210
0
220
0
230
1
70
8
71
3
72
8
73
4
74
0
42
1e-07
43
1e-07
40
0
40
0
40
0
40
0
40
1
40
1
40
1
40
1
10
20.9138922497
20
46.1000399787
30
0
10
20.9141451777
20
46.0757189547
30
0
10
20.9521460737
20
46.0571423147
30
0
10
20.9996878337
20
46.0571423147
30
0
0
SPLINE
5
15B
100
AcDbEntity
8
patchy
6
ByLayer
62
7
370
-1
100
AcDbSpline
210
0
220
0
230
1
70
8
71
3
72
8
73
4
74
0
42
1e-07
43
1e-07
40
0
40
0
40
0
40
0
40
1
40
1
40
1
40
1
10
20.9996878337
20
46.0571423147
30
0
10
21.0472293377
20
46.0571423147
30
0
10
21.1808587777
20
46.0124470187
30
0
10
21.2954566657
20
45.9577999787
30
0
0
SPLINE
5
15C
100
AcDbEntity
8
patchy
6
ByLayer
62
7
370
-1
100
AcDbSpline
210
0
220
0
230
1
70
8
71
3
72
8
73
4
74
0
42
1e-07
43
1e-07
40
0
40
0
40
0
40
0
40
1
40
1
40
1
40
1
10
21.2954566657
20
45.9577999787
30
0
10
21.4610812417
20
45.8788191147
30
0
10
21.5031722497
20
45.8233029547
30
0
10
21.5031722497
20
45.6913823147
30
0
0
SPLINE
5
15D
100
AcDbEntity
8
patchy
6
ByLayer
62
7
370
-1
100
AcDbSpline
210
0
220
0
230
1
70
8
71
3
72
8
73
4
74
0
42
1e-07
43
1e-07
40
0
40
0
40
0
40
0
40
1
40
1
40
1
40
1
10
21.5031722497
20
45.6913823147
30
0
10
21.5031722497
20
45.6001044907
30
0
10
21.4806514177
20
45.5265646507
30
0
10
21.4512434177
20
45.5265646507
30
0
0
SPLINE
5
15E
100
AcDbEntity
8
patchy
6
ByLayer
62
7
370
-1
100
AcDbSpline
210
0
220
0
230
1
70
8
71
3
72
8
73
4
74
0
42
1e-07
43
1e-07
40
0
40
0
40
0
40
0
40
1
40
1
40
1
40
1
10
21.4512434177
20
45.5265646507
30
0
10
21.3984395777
20
45.5265646507
30
0
10
21.1509590017
20
44.8139131307
30
0
10
21.1509590017
20
44.6618355627
30
0
0
SPLINE
5
15F
100
AcDbEntity
8
patchy
6
ByLayer
62
7
370
-1
100
AcDbSpline
210
0
220
0
230
1
70
8
71
3
72
8
73
4
74
0
42
1e-07
43
1e-07
40
0
40
0
40
0
40
0
40
1
40
1
40
1
40
1
10
21.1509590017
20
44.6618355627
30
0
10
21.1509590017
20
44.6186552747
30
0
10
21.1246844417
20
44.5828134827
30
0
10
21.0922566657
20
44.5828134827
30
0
0
SPLINE
5
160
100
AcDbEntity
8
patchy
6
ByLayer
62
7
370
-1
100
AcDbSpline
210
0
220
0
230
1
70
8
71
3
72
8
73
4
74
0
42
1e-07
43
1e-07
40
0
40
0
40
0
40
0
40
1
40
1
40
1
40
1
10
21.0922566657
20
44.5828134827
30
0
10
21.0598288897
20
44.5828134827
30
0
10
21.0312966657
20
44.5160105387
30
0
10
21.0312966657
20
44.4337999787
30
0
0
SPLINE
5
161
100
AcDbEntity
8
patchy
6
ByLayer
62
7
370
-1
100
AcDbSpline
210
0
220
0
230
1
70
8
71
3
72
8
73
4
74
0
42
1e-07
43
1e-07
40
0
40
0
40
0
40
0
40
1
40
1
40
1
40
1
10
21.0312966657
20
44.4337999787
30
0
10
21.0312966657
20
44.2969902507
30
0
10
20.8904239617
20
44.0091832747
30
0
10
20.7851990017
20
43.9325734827
30
0
0
SPLINE
5
162
100
AcDbEntity
8
patchy
6
ByLayer
62
7
370
-1
100
AcDbSpline
210
0
220
0
230
1
70
8
71
3
72
8
73
4
74
0
42
1e-07
43
1e-07
40
0
40
0
40
0
40
0
40
1
40
1
40
1
40
1
10
20.7851990017
20
43.9325734827
30
0
10
20.7612606977
20
43.9151455147
30
0
10
20.6997515777
20
43.7154634667
30
0
10
20.6474743297
20
43.4900490667
30
0
0
SPLINE
5
163
100
AcDbEntity
8
patchy
6
ByLayer
62
7
370
-1
100
AcDbSpline
210
0
220
0
230
1
70
8
71
3
72
8
73
4
74
0
42
1e-07
43
1e-07
40
0
40
0
40
0
40
0
40
1
40
1
40
1
40
1
10
20.6474743297
20
43.4900490667
30
0
10
20.5951973377
20
43.2646346667
30
0
10
20.5310570497
20
43.0663626667
30
0
10
20.5074922497
20
43.0497823147
30
0
0
SPLINE
5
164
100
AcDbEntity
8
patchy
6
ByLayer
62
7
370
-1
100
AcDbSpline
210
0
220
0
230
1
70
8
71
3
72
8
73
4
74
0
42
1e-07
43
1e-07
40
0
40
0
40
0
40
0
40
1
40
1
40
1
40
1
10
20.5074922497
20
43.0497823147
30
0
10
20.4839274497
20
43.0332019627
30
0
10
20.4047975937
20
42.7548746667
30
0
10
20.3313854977
20
42.4311511467
30
0
0
SPLINE
5
165
100
AcDbEntity
8
patchy
6
ByLayer
62
7
370
-1
100
AcDbSpline
210
0
220
0
230
1
70
8
71
3
72
8
73
4
74
0
42
1e-07
43
1e-07
40
0
40
0
40
0
40
0
40
1
40
1
40
1
40
1
10
20.3313854977
20
42.4311511467
30
0
10
20.2579734017
20
42.1074283947
30
0
10
20.1684345857
20
41.8255739307
30
0
10
20.1327010817
20
41.8034890667
30
0
0
SPLINE
5
166
100
AcDbEntity
8
patchy
6
ByLayer
62
7
370
-1
100
AcDbSpline
210
0
220
0
230
1
70
8
71
3
72
8
73
4
74
0
42
1e-07
43
1e-07
40
0
40
0
40
0
40
0
40
1
40
1
40
1
40
1
10
20.1327010817
20
41.8034890667
30
0
10
20.0929143297
20
41.7788989867
30
0
10
20.0588363777
20
41.4552970667
30
0
10
20.0423899137
20
40.9703690667
30
0
0
SPLINE
5
167
100
AcDbEntity
8
patchy
6
ByLayer
62
7
370
-1
100
AcDbSpline
210
0
220
0
230
1
70
8
71
3
72
8
73
4
74
0
42
1e-07
43
1e-07
40
0
40
0
40
0
40
0
40
1
40
1
40
1
40
1
10
20.0423899137
20
40.9703690667
30
0
10
20.0163247617
20
40.2018266027
30
0
10
20.0183632897
20
40.1748032427
30
0
10
20.1507634177
20
40.0514534827
30
0
0
SPLINE
5
168
100
AcDbEntity
8
patchy
6
ByLayer
62
7
370
-1
100
AcDbSpline
210
0
220
0
230
1
70
8
71
3
72
8
73
4
74
0
42
1e-07
43
1e-07
40
0
40
0
40
0
40
0
40
1
40
1
40
1
40
1
10
20.1507634177
20
40.0514534827
30
0
10
20.2458651137
20
39.9628531627
30
0
10
20.3630550017
20
39.9250178987
30
0
10
20.5368434177
20
39.9250178987
30
0
0
SPLINE
5
169
100
AcDbEntity
8
patchy
6
ByLayer
62
7
370
-1
100
AcDbSpline
210
0
220
0
230
1
70
8
71
3
72
8
73
4
74
0
42
1e-07
43
1e-07
40
0
40
0
40
0
40
0
40
1
40
1
40
1
40
1
10
20.5368434177
20
39.9250178987
30
0
10
20.6739518977
20
39.9250178987
30
0
10
20.7947096577
20
39.9450091947
30
0
10
20.8055190017
20
39.9701734827
30
0
0
SPLINE
5
16A
100
AcDbEntity
8
patchy
6
ByLayer
62
7
370
-1
100
AcDbSpline
210
0
220
0
230
1
70
8
71
3
72
8
73
4
74
0
42
1e-07
43
1e-07
40
0
40
0
40
0
40
0
40
1
40
1
40
1
40
1
10
20.8055190017
20
39.9701734827
30
0
10
20.8163280897
20
39.9953377707
30
0
10
21.1696628737
20
40.0792532907
30
0
10
21.5912254977
20
40.1553111467
30
0
0
SPLINE
5
16B
100
AcDbEntity
8
patchy
6
ByLayer
62
7
370
-1
100
AcDbSpline
210
0
220
0
230
1
70
8
71
3
72
8
73
4
74
0
42
1e-07
43
1e-07
40
0
40
0
40
0
40
0
40
1
40
1
40
1
40
1
10
21.5912254977
20
40.1553111467
30
0
10
22.0127881217
20
40.2313690027
30
0
10
22.3720070657
20
40.3121410987
30
0
10
22.3882210817
20
40.3359334827
30
0
0
SPLINE
5
16C
100
AcDbEntity
8
patchy
6
ByLayer
62
7
370
-1
100
AcDbSpline
210
0
220
0
230
1
70
8
71
3
72
8
73
4
74
0
42
1e-07
43
1e-07
40
0
40
0
40
0
40
0
40
1
40
1
40
1
40
1
10
22.3882210817
20
40.3359334827
30
0
10
22.4044350977
20
40.3597256107
30
0
10
22.7351220737
20
40.4275435947
30
0
10
23.1242566657
20
40.4872046507
30
0
0
SPLINE
5
16D
100
AcDbEntity
8
patchy
6
ByLayer
62
7
370
-1
100
AcDbSpline
210
0
220
0
230
1
70
8
71
3
72
8
73
4
74
0
42
1e-07
43
1e-07
40
0
40
0
40
0
40
0
40
1
40
1
40
1
40
1
10
23.1242566657
20
40.4872046507
30
0
10
23.5133915137
20
40.5468654507
30
0
10
23.8460822017
20
40.6150546347
30
0
10
23.8625499137
20
40.6384755627
30
0
0
SPLINE
5
16E
100
AcDbEntity
8
patchy
6
ByLayer
62
7
370
-1
100
AcDbSpline
210
0
220
0
230
1
70
8
71
3
72
8
73
4
74
0
42
1e-07
43
1e-07
40
0
40
0
40
0
40
0
40
1
40
1
40
1
40
1
10
23.8625499137
20
40.6384755627
30
0
10
23.8968951297
20
40.6873201067
30
0
10
25.0951853057
20
40.9274711467
30
0
10
25.3052699137
20
40.9274711467
30
0
0
SPLINE
5
16F
100
AcDbEntity
8
patchy
6
ByLayer
62
7
370
-1
100
AcDbSpline
210
0
220
0
230
1
70
8
71
3
72
8
73
4
74
0
42
1e-07
43
1e-07
40
0
40
0
40
0
40
0
40
1
40
1
40
1
40
1
10
25.3052699137
20
40.9274711467
30
0
10
25.3819910657
20
40.9274711467
30
0
10
25.4525044737
20
40.9531115947
30
0
10
25.4633143297
20
40.9839155627
30
0
0
SPLINE
5
170
100
AcDbEntity
8
patchy
6
ByLayer
62
7
370
-1
100
AcDbSpline
210
0
220
0
230
1
70
8
71
3
72
8
73
4
74
0
42
1e-07
43
1e-07
40
0
40
0
40
0
40
0
40
1
40
1
40
1
40
1
10
25.4633143297
20
40.9839155627
30
0
10
25.4741236737
20
41.0147197867
30
0
10
25.7752923137
20
41.0824427947
30
0
10
26.1316166657
20
41.1351867307
30
0
0
SPLINE
5
171
100
AcDbEntity
8
patchy
6
ByLayer
62
7
370
-1
100
AcDbSpline
210
0
220
0
230
1
70
8
71
3
72
8
73
4
74
0
42
1e-07
43
1e-07
40
0
40
0
40
0
40
0
40
1
40
1
40
1
40
1
10
26.1316166657
20
41.1351867307
30
0
10
26.4879410177
20
41.1879298987
30
0
10
26.7923536897
20
41.2526395307
30
0
10
26.8089499137
20
41.2774267307
30
0
0
SPLINE
5
172
100
AcDbEntity
8
patchy
6
ByLayer
62
7
370
-1
100
AcDbSpline
210
0
220
0
230
1
70
8
71
3
72
8
73
4
74
0
42
1e-07
43
1e-07
40
0
40
0
40
0
40
0
40
1
40
1
40
1
40
1
10
26.8089499137
20
41.2774267307
30
0
10
26.8387296257
20
41.3219031467
30
0
10
27.8925625857
20
41.4811028907
30
0
10
28.6377499137
20
41.5551334827
30
0
0
SPLINE
5
173
100
AcDbEntity
8
patchy
6
ByLayer
62
7
370
-1
100
AcDbSpline
210
0
220
0
230
1
70
8
71
3
72
8
73
4
74
0
42
1e-07
43
1e-07
40
0
40
0
40
0
40
0
40
1
40
1
40
1
40
1
10
28.6377499137
20
41.5551334827
30
0
10
28.8485310977
20
41.5760740267
30
0
10
29.0380486657
20
41.6208842667
30
0
10
29.0599543297
20
41.6544755627
30
0
0
SPLINE
5
174
100
AcDbEntity
8
patchy
6
ByLayer
62
7
370
-1
100
AcDbSpline
210
0
220
0
230
1
70
8
71
3
72
8
73
4
74
0
42
1e-07
43
1e-07
40
0
40
0
40
0
40
0
40
1
40
1
40
1
40
1
10
29.0599543297
20
41.6544755627
30
0
10
29.0828312577
20
41.6895567787
30
0
10
29.3541382657
20
41.7180150187
30
0
10
29.6966478337
20
41.7199511467
30
0
0
SPLINE
5
175
100
AcDbEntity
8
patchy
6
ByLayer
62
7
370
-1
100
AcDbSpline
210
0
220
0
230
1
70
8
71
3
72
8
73
4
74
0
42
1e-07
43
1e-07
40
0
40
0
40
0
40
0
40
1
40
1
40
1
40
1
10
29.6966478337
20
41.7199511467
30
0
10
30.1649982977
20
41.7226063787
30
0
10
30.3040759297
20
41.7034263467
30
0
10
30.3468878337
20
41.6341555627
30
0
0
SPLINE
5
176
100
AcDbEntity
8
patchy
6
ByLayer
62
7
370
-1
100
AcDbSpline
210
0
220
0
230
1
70
8
71
3
72
8
73
4
74
0
42
1e-07
43
1e-07
40
0
40
0
40
0
40
0
40
1
40
1
40
1
40
1
10
30.3468878337
20
41.6341555627
30
0
10
30.3925454337
20
41.5602795947
30
0
10
30.6090241537
20
41.5461023147
30
0
10
31.6744610817
20
41.5461023147
30
0
0
SPLINE
5
177
100
AcDbEntity
8
patchy
6
ByLayer
62
7
370
-1
100
AcDbSpline
210
0
220
0
230
1
70
8
71
3
72
8
73
4
74
0
42
1e-07
43
1e-07
40
0
40
0
40
0
40
0
40
1
40
1
40
1
40
1
10
31.6744610817
20
41.5461023147
30
0
10
32.5275204097
20
41.5461023147
30
0
10
32.9602730497
20
41.5684690347
30
0
10
32.9884878337
20
41.6115778987
30
0
0
SPLINE
5
178
100
AcDbEntity
8
patchy
6
ByLayer
62
7
370
-1
100
AcDbSpline
210
0
220
0
230
1
70
8
71
3
72
8
73
4
74
0
42
1e-07
43
1e-07
40
0
40
0
40
0
40
0
40
1
40
1
40
1
40
1
10
32.9884878337
20
41.6115778987
30
0
10
33.0116253697
20
41.6469291947
30
0
10
33.2886890497
20
41.7242522027
30
0
10
33.6048610817
20
41.7831690667
30
0
0
SPLINE
5
179
100
AcDbEntity
8
patchy
6
ByLayer
62
7
370
-1
100
AcDbSpline
210
0
220
0
230
1
70
8
71
3
72
8
73
4
74
0
42
1e-07
43
1e-07
40
0
40
0
40
0
40
0
40
1
40
1
40
1
40
1
10
33.6048610817
20
41.7831690667
30
0
10
33.9210331137
20
41.8420851627
30
0
10
34.1805943297
20
41.9098227627
30
0
10
34.1805943297
20
41.9344399787
30
0
0
SPLINE
5
17A
100
AcDbEntity
8
patchy
6
ByLayer
62
7
370
-1
100
AcDbSpline
210
0
220
0
230
1
70
8
71
3
72
8
73
4
74
0
42
1e-07
43
1e-07
40
0
40
0
40
0
40
0
40
1
40
1
40
1
40
1
10
34.1805943297
20
41.9344399787
30
0
10
34.1805943297
20
41.9590566827
30
0
10
34.3930466817
20
42.0251448747
30
0
10
34.6524699137
20
42.0811955627
30
0
0
SPLINE
5
17B
100
AcDbEntity
8
patchy
6
ByLayer
62
7
370
-1
100
AcDbSpline
210
0
220
0
230
1
70
8
71
3
72
8
73
4
74
0
42
1e-07
43
1e-07
40
0
40
0
40
0
40
0
40
1
40
1
40
1
40
1
10
34.6524699137
20
42.0811955627
30
0
10
34.9118926337
20
42.1372477867
30
0
10
35.1243454977
20
42.2022638507
30
0
10
35.1243454977
20
42.2256934827
30
0
0
SPLINE
5
17C
100
AcDbEntity
8
patchy
6
ByLayer
62
7
370
-1
100
AcDbSpline
210
0
220
0
230
1
70
8
71
3
72
8
73
4
74
0
42
1e-07
43
1e-07
40
0
40
0
40
0
40
0
40
1
40
1
40
1
40
1
10
35.1243454977
20
42.2256934827
30
0
10
35.1243454977
20
42.2491243947
30
0
10
35.3630718977
20
42.3288148907
30
0
10
35.6549234177
20
42.4040578987
30
0
0
SPLINE
5
17D
100
AcDbEntity
8
patchy
6
ByLayer
62
7
370
-1
100
AcDbSpline
210
0
220
0
230
1
70
8
71
3
72
8
73
4
74
0
42
1e-07
43
1e-07
40
0
40
0
40
0
40
0
40
1
40
1
40
1
40
1
10
35.6549234177
20
42.4040578987
30
0
10
35.9467741697
20
42.4793001387
30
0
10
36.1855010817
20
42.5592448427
30
0
10
36.1855010817
20
42.5801646507
30
0
0
SPLINE
5
17E
100
AcDbEntity
8
patchy
6
ByLayer
62
7
370
-1
100
AcDbSpline
210
0
220
0
230
1
70
8
71
3
72
8
73
4
74
0
42
1e-07
43
1e-07
40
0
40
0
40
0
40
0
40
1
40
1
40
1
40
1
10
36.1855010817
20
42.5801646507
30
0
10
36.1855010817
20
42.6010849707
30
0
10
36.3848162817
20
42.6663567787
30
0
10
36.6280254977
20
42.7269199787
30
0
0
SPLINE
5
17F
100
AcDbEntity
8
patchy
6
ByLayer
62
7
370
-1
100
AcDbSpline
210
0
220
0
230
1
70
8
71
3
72
8
73
4
74
0
42
1e-07
43
1e-07
40
0
40
0
40
0
40
0
40
1
40
1
40
1
40
1
10
36.6280254977
20
42.7269199787
30
0
10
36.8712347137
20
42.7874834347
30
0
10
37.0682922497
20
42.8560381867
30
0
10
37.0682922497
20
42.8781911467
30
0
0
SPLINE
5
180
100
AcDbEntity
8
patchy
6
ByLayer
62
7
370
-1
100
AcDbSpline
210
0
220
0
230
1
70
8
71
3
72
8
73
4
74
0
42
1e-07
43
1e-07
40
0
40
0
40
0
40
0
40
1
40
1
40
1
40
1
10
37.0682922497
20
42.8781911467
30
0
10
37.0682922497
20
42.9408389547
30
0
10
37.3177148417
20
42.9898207147
30
0
10
37.4566299137
20
42.9549555627
30
0
0
SPLINE
5
181
100
AcDbEntity
8
patchy
6
ByLayer
62
7
370
-1
100
AcDbSpline
210
0
220
0
230
1
70
8
71
3
72
8
73
4
74
0
42
1e-07
43
1e-07
40
0
40
0
40
0
40
0
40
1
40
1
40
1
40
1
10
37.4566299137
20
42.9549555627
30
0
10
37.5289056257
20
42.9368154027
30
0
10
37.6139316737
20
42.8393828267
30
0
10
37.6598299137
20
42.7224046507
30
0
0
SPLINE
5
182
100
AcDbEntity
8
patchy
6
ByLayer
62
7
370
-1
100
AcDbSpline
210
0
220
0
230
1
70
8
71
3
72
8
73
4
74
0
42
1e-07
43
1e-07
40
0
40
0
40
0
40
0
40
1
40
1
40
1
40
1
10
37.6598299137
20
42.7224046507
30
0
10
37.7034950657
20
42.6111209387
30
0
10
37.7621474817
20
42.5192046507
30
0
10
37.7885234177
20
42.5192046507
30
0
0
SPLINE
5
183
100
AcDbEntity
8
patchy
6
ByLayer
62
7
370
-1
100
AcDbSpline
210
0
220
0
230
1
70
8
71
3
72
8
73
4
74
0
42
1e-07
43
1e-07
40
0
40
0
40
0
40
0
40
1
40
1
40
1
40
1
10
37.7885234177
20
42.5192046507
30
0
10
37.8574900737
20
42.5192046507
30
0
10
37.8472219137
20
42.2965624747
30
0
10
37.7772343297
20
42.2731067307
30
0
0
SPLINE
5
184
100
AcDbEntity
8
patchy
6
ByLayer
62
7
370
-1
100
AcDbSpline
210
0
220
0
230
1
70
8
71
3
72
8
73
4
74
0
42
1e-07
43
1e-07
40
0
40
0
40
0
40
0
40
1
40
1
40
1
40
1
10
37.7772343297
20
42.2731067307
30
0
10
37.7449803777
20
42.2622976427
30
0
10
37.6722315777
20
42.0425922987
30
0
10
37.6169322497
20
41.7831690667
30
0
0
SPLINE
5
185
100
AcDbEntity
8
patchy
6
ByLayer
62
7
370
-1
100
AcDbSpline
210
0
220
0
230
1
70
8
71
3
72
8
73
4
74
0
42
1e-07
43
1e-07
40
0
40
0
40
0
40
0
40
1
40
1
40
1
40
1
10
37.6169322497
20
41.7831690667
30
0
10
37.5616329217
20
41.5237455787
30
0
10
37.4884246017
20
41.2915428267
30
0
10
37.4543722497
20
41.2683955627
30
0
0
SPLINE
5
186
100
AcDbEntity
8
patchy
6
ByLayer
62
7
370
-1
100
AcDbSpline
210
0
220
0
230
1
70
8
71
3
72
8
73
4
74
0
42
1e-07
43
1e-07
40
0
40
0
40
0
40
0
40
1
40
1
40
1
40
1
10
37.4543722497
20
41.2683955627
30
0
10
37.3714456577
20
41.2120276907
30
0
10
37.3897911297
20
40.4364836267
30
0
10
37.4746922497
20
40.4081823147
30
0
0
SPLINE
5
187
100
AcDbEntity
8
patchy
6
ByLayer
62
7
370
-1
100
AcDbSpline
210
0
220
0
230
1
70
8
71
3
72
8
73
4
74
0
42
1e-07
43
1e-07
40
0
40
0
40
0
40
0
40
1
40
1
40
1
40
1
10
37.4746922497
20
40.4081823147
30
0
10
37.5106794497
20
40.3961874347
30
0
10
37.5401678337
20
40.3359941547
30
0
10
37.5401678337
20
40.2749734827
30
0
0
SPLINE
5
188
100
AcDbEntity
8
patchy
6
ByLayer
62
7
370
-1
100
AcDbSpline
210
0
220
0
230
1
70
8
71
3
72
8
73
4
74
0
42
1e-07
43
1e-07
40
0
40
0
40
0
40
0
40
1
40
1
40
1
40
1
10
37.5401678337
20
40.2749734827
30
0
10
37.5401678337
20
40.1406374827
30
0
10
37.7148901377
20
39.6117786027
30
0
10
37.7727190017
20
39.5705467307
30
0
0
SPLINE
5
189
100
AcDbEntity
8
patchy
6
ByLayer
62
7
370
-1
100
AcDbSpline
210
0
220
0
230
1
70
8
71
3
72
8
73
4
74
0
42
1e-07
43
1e-07
40
0
40
0
40
0
40
0
40
1
40
1
40
1
40
1
10
37.7727190017
20
39.5705467307
30
0
10
37.7954592257
20
39.5543327147
30
0
10
37.8763764737
20
39.4098240427
30
0
10
37.9533410817
20
39.2476846507
30
0
0
SPLINE
5
18A
100
AcDbEntity
8
patchy
6
ByLayer
62
7
370
-1
100
AcDbSpline
210
0
220
0
230
1
70
8
71
3
72
8
73
4
74
0
42
1e-07
43
1e-07
40
0
40
0
40
0
40
0
40
1
40
1
40
1
40
1
10
37.9533410817
20
39.2476846507
30
0
10
38.0303049217
20
39.0855450027
30
0
10
38.1311182337
20
38.9231309227
30
0
10
38.1768610817
20
38.8886978987
30
0
0
SPLINE
5
18B
100
AcDbEntity
8
patchy
6
ByLayer
62
7
370
-1
100
AcDbSpline
210
0
220
0
230
1
70
8
71
3
72
8
73
4
74
0
42
1e-07
43
1e-07
40
0
40
0
40
0
40
0
40
1
40
1
40
1
40
1
10
38.1768610817
20
38.8886978987
30
0
10
38.2411559937
20
38.8403013547
30
0
10
38.2561657857
20
38.6975329707
30
0
10
38.2400790017
20
38.2542623147
30
0
0
SPLINE
5
18C
100
AcDbEntity
8
patchy
6
ByLayer
62
7
370
-1
100
AcDbSpline
210
0
220
0
230
1
70
8
71
3
72
8
73
4
74
0
42
1e-07
43
1e-07
40
0
40
0
40
0
40
0
40
1
40
1
40
1
40
1
10
38.2400790017
20
38.2542623147
30
0
10
38.2286340097
20
37.9388800427
30
0
10
38.1906584577
20
37.6609940907
30
0
10
38.1565410817
20
37.6378890667
30
0
0
SPLINE
5
18D
100
AcDbEntity
8
patchy
6
ByLayer
62
7
370
-1
100
AcDbSpline
210
0
220
0
230
1
70
8
71
3
72
8
73
4
74
0
42
1e-07
43
1e-07
40
0
40
0
40
0
40
0
40
1
40
1
40
1
40
1
10
38.1565410817
20
37.6378890667
30
0
10
38.1224229377
20
37.6147837867
30
0
10
38.0469748737
20
37.4950341547
30
0
10
37.9894654977
20
37.3714711467
30
0
0
SPLINE
5
18E
100
AcDbEntity
8
patchy
6
ByLayer
62
7
370
-1
100
AcDbSpline
210
0
220
0
230
1
70
8
71
3
72
8
73
4
74
0
42
1e-07
43
1e-07
40
0
40
0
40
0
40
0
40
1
40
1
40
1
40
1
10
37.9894654977
20
37.3714711467
30
0
10
37.9319553537
20
37.2479081387
30
0
10
37.8506646017
20
37.1332572587
30
0
10
37.8065854977
20
37.1163423147
30
0
0
SPLINE
5
18F
100
AcDbEntity
8
patchy
6
ByLayer
62
7
370
-1
100
AcDbSpline
210
0
220
0
230
1
70
8
71
3
72
8
73
4
74
0
42
1e-07
43
1e-07
40
0
40
0
40
0
40
0
40
1
40
1
40
1
40
1
10
37.8065854977
20
37.1163423147
30
0
10
37.7625071617
20
37.0994281387
30
0
10
37.6780512257
20
36.9682335147
30
0
10
37.6191899137
20
36.8250890667
30
0
0
SPLINE
5
190
100
AcDbEntity
8
patchy
6
ByLayer
62
7
370
-1
100
AcDbSpline
210
0
220
0
230
1
70
8
71
3
72
8
73
4
74
0
42
1e-07
43
1e-07
40
0
40
0
40
0
40
0
40
1
40
1
40
1
40
1
10
37.6191899137
20
36.8250890667
30
0
10
37.5603288577
20
36.6819430827
30
0
10
37.4940571137
20
36.5655890347
30
0
10
37.4724343297
20
36.5654446507
30
0
0
SPLINE
5
191
100
AcDbEntity
8
patchy
6
ByLayer
62
7
370
-1
100
AcDbSpline
210
0
220
0
230
1
70
8
71
3
72
8
73
4
74
0
42
1e-07
43
1e-07
40
0
40
0
40
0
40
0
40
1
40
1
40
1
40
1
10
37.4724343297
20
36.5654446507
30
0
10
37.4508125697
20
36.5653230507
30
0
10
37.3756130817
20
36.3792663467
30
0
10
37.3053590017
20
36.1522711467
30
0
0
SPLINE
5
192
100
AcDbEntity
8
patchy
6
ByLayer
62
7
370
-1
100
AcDbSpline
210
0
220
0
230
1
70
8
71
3
72
8
73
4
74
0
42
1e-07
43
1e-07
40
0
40
0
40
0
40
0
40
1
40
1
40
1
40
1
10
37.3053590017
20
36.1522711467
30
0
10
37.2351046657
20
35.9252754347
30
0
10
37.1585721857
20
35.7390978987
30
0
10
37.1360254977
20
35.7390978987
30
0
0
SPLINE
5
193
100
AcDbEntity
8
patchy
6
ByLayer
62
7
370
-1
100
AcDbSpline
210
0
220
0
230
1
70
8
71
3
72
8
73
4
74
0
42
1e-07
43
1e-07
40
0
40
0
40
0
40
0
40
1
40
1
40
1
40
1
10
37.1360254977
20
35.7390978987
30
0
10
37.1134788097
20
35.7390978987
30
0
10
37.0477462017
20
35.5529195947
30
0
10
36.9892699137
20
35.3259246507
30
0
0
SPLINE
5
194
100
AcDbEntity
8
patchy
6
ByLayer
62
7
370
-1
100
AcDbSpline
210
0
220
0
230
1
70
8
71
3
72
8
73
4
74
0
42
1e-07
43
1e-07
40
0
40
0
40
0
40
0
40
1
40
1
40
1
40
1
10
36.9892699137
20
35.3259246507
30
0
10
36.9307946497
20
35.0989294507
30
0
10
36.8623489537
20
34.9127511467
30
0
10
36.8379990017
20
34.9127511467
30
0
0
SPLINE
5
195
100
AcDbEntity
8
patchy
6
ByLayer
62
7
370
-1
100
AcDbSpline
210
0
220
0
230
1
70
8
71
3
72
8
73
4
74
0
42
1e-07
43
1e-07
40
0
40
0
40
0
40
0
40
1
40
1
40
1
40
1
10
36.8379990017
20
34.9127511467
30
0
10
36.8136480257
20
34.9127511467
30
0
10
36.7443874817
20
34.7520653227
30
0
10
36.6822122497
20
34.5537646507
30
0
0
SPLINE
5
196
100
AcDbEntity
8
patchy
6
ByLayer
62
7
370
-1
100
AcDbSpline
210
0
220
0
230
1
70
8
71
3
72
8
73
4
74
0
42
1e-07
43
1e-07
40
0
40
0
40
0
40
0
40
1
40
1
40
1
40
1
10
36.6822122497
20
34.5537646507
30
0
10
36.6200377857
20
34.3554629547
30
0
10
36.5353519617
20
34.1791186347
30
0
10
36.4948166657
20
34.1631690667
30
0
0
SPLINE
5
197
100
AcDbEntity
8
patchy
6
ByLayer
62
7
370
-1
100
AcDbSpline
210
0
220
0
230
1
70
8
71
3
72
8
73
4
74
0
42
1e-07
43
1e-07
40
0
40
0
40
0
40
0
40
1
40
1
40
1
40
1
10
36.4948166657
20
34.1631690667
30
0
10
36.4542821377
20
34.1472200107
30
0
10
36.4203099137
20
34.1071342507
30
0
10
36.4203099137
20
34.0728578987
30
0
0
SPLINE
5
198
100
AcDbEntity
8
patchy
6
ByLayer
62
7
370
-1
100
AcDbSpline
210
0
220
0
230
1
70
8
71
3
72
8
73
4
74
0
42
1e-07
43
1e-07
40
0
40
0
40
0
40
0
40
1
40
1
40
1
40
1
10
36.4203099137
20
34.0728578987
30
0
10
36.4203099137
20
33.9768028587
30
0
10
36.2256244737
20
33.5580846507
30
0
10
36.1809854977
20
33.5580846507
30
0
0
SPLINE
5
199
100
AcDbEntity
8
patchy
6
ByLayer
62
7
370
-1
100
AcDbSpline
210
0
220
0
230
1
70
8
71
3
72
8
73
4
74
0
42
1e-07
43
1e-07
40
0
40
0
40
0
40
0
40
1
40
1
40
1
40
1
10
36.1809854977
20
33.5580846507
30
0
10
36.1592039937
20
33.5580846507
30
0
10
36.0929885697
20
33.4319777707
30
0
10
36.0342299137
20
33.2781199787
30
0
0
SPLINE
5
19A
100
AcDbEntity
8
patchy
6
ByLayer
62
7
370
-1
100
AcDbSpline
210
0
220
0
230
1
70
8
71
3
72
8
73
4
74
0
42
1e-07
43
1e-07
40
0
40
0
40
0
40
0
40
1
40
1
40
1
40
1
10
36.0342299137
20
33.2781199787
30
0
10
35.9754707457
20
33.1242609067
30
0
10
35.8688774657
20
32.9507077547
30
0
10
35.7971634177
20
32.8942978987
30
0
0
SPLINE
5
19B
100
AcDbEntity
8
patchy
6
ByLayer
62
7
370
-1
100
AcDbSpline
210
0
220
0
230
1
70
8
71
3
72
8
73
4
74
0
42
1e-07
43
1e-07
40
0
40
0
40
0
40
0
40
1
40
1
40
1
40
1
10
35.7971634177
20
32.8942978987
30
0
10
35.7254498817
20
32.8378872747
30
0
10
35.6505632257
20
32.7252664747
30
0
10
35.6300878337
20
32.6436846507
30
0
0
SPLINE
5
19C
100
AcDbEntity
8
patchy
6
ByLayer
62
7
370
-1
100
AcDbSpline
210
0
220
0
230
1
70
8
71
3
72
8
73
4
74
0
42
1e-07
43
1e-07
40
0
40
0
40
0
40
0
40
1
40
1
40
1
40
1
10
35.6300878337
20
32.6436846507
30
0
10
35.6096116737
20
32.5621018027
30
0
10
35.5670708737
20
32.4969290667
30
0
10
35.5352610817
20
32.4969290667
30
0
0
SPLINE
5
19D
100
AcDbEntity
8
patchy
6
ByLayer
62
7
370
-1
100
AcDbSpline
210
0
220
0
230
1
70
8
71
3
72
8
73
4
74
0
42
1e-07
43
1e-07
40
0
40
0
40
0
40
0
40
1
40
1
40
1
40
1
10
35.5352610817
20
32.4969290667
30
0
10
35.5034512897
20
32.4969290667
30
0
10
35.4765590017
20
32.4289853867
30
0
10
35.4765590017
20
32.3479155627
30
0
0
SPLINE
5
19E
100
AcDbEntity
8
patchy
6
ByLayer
62
7
370
-1
100
AcDbSpline
210
0
220
0
230
1
70
8
71
3
72
8
73
4
74
0
42
1e-07
43
1e-07
40
0
40
0
40
0
40
0
40
1
40
1
40
1
40
1
10
35.4765590017
20
32.3479155627
30
0
10
35.4765590017
20
32.2668459947
30
0
10
35.4878327297
20
32.2011599787
30
0
10
35.5013943297
20
32.2011599787
30
0
0
SPLINE
5
19F
100
AcDbEntity
8
patchy
6
ByLayer
62
7
370
-1
100
AcDbSpline
210
0
220
0
230
1
70
8
71
3
72
8
73
4
74
0
42
1e-07
43
1e-07
40
0
40
0
40
0
40
0
40
1
40
1
40
1
40
1
10
35.5013943297
20
32.2011599787
30
0
10
35.5149561857
20
32.2011599787
30
0
10
35.5649872897
20
32.1876019627
30
0
10
35.6120254977
20
32.1695511467
30
0
0
SPLINE
5
1A0
100
AcDbEntity
8
patchy
6
ByLayer
62
7
370
-1
100
AcDbSpline
210
0
220
0
230
1
70
8
71
3
72
8
73
4
74
0
42
1e-07
43
1e-07
40
0
40
0
40
0
40
0
40
1
40
1
40
1
40
1
10
35.6120254977
20
32.1695511467
30
0
10
35.6986287617
20
32.1363187627
30
0
10
36.1267990017
20
32.4911142827
30
0
10
36.1267990017
20
32.5962711467
30
0
0
SPLINE
5
1A1
100
AcDbEntity
8
patchy
6
ByLayer
62
7
370
-1
100
AcDbSpline
210
0
220
0
230
1
70
8
71
3
72
8
73
4
74
0
42
1e-07
43
1e-07
40
0
40
0
40
0
40
0
40
1
40
1
40
1
40
1
10
36.1267990017
20
32.5962711467
30
0
10
36.1267990017
20
32.6268621227
30
0
10
36.1740647937
20
32.7024366507
30
0
10
36.2329143297
20
32.7656046507
30
0
0
SPLINE
5
1A2
100
AcDbEntity
8
patchy
6
ByLayer
62
7
370
-1
100
AcDbSpline
210
0
220
0
230
1
70
8
71
3
72
8
73
4
74
0
42
1e-07
43
1e-07
40
0
40
0
40
0
40
0
40
1
40
1
40
1
40
1
10
36.2329143297
20
32.7656046507
30
0
10
36.2917648897
20
32.8287723947
30
0
10
36.3919003137
20
33.0763917227
30
0
10
36.4541766657
20
33.3165023147
30
0
0
SPLINE
5
1A3
100
AcDbEntity
8
patchy
6
ByLayer
62
7
370
-1
100
AcDbSpline
210
0
220
0
230
1
70
8
71
3
72
8
73
4
74
0
42
1e-07
43
1e-07
40
0
40
0
40
0
40
0
40
1
40
1
40
1
40
1
10
36.4541766657
20
33.3165023147
30
0
10
36.5164537857
20
33.5566129067
30
0
10
36.5947403777
20
33.7821855147
30
0
10
36.6302834177
20
33.8177290667
30
0
0
SPLINE
5
1A4
100
AcDbEntity
8
patchy
6
ByLayer
62
7
370
-1
100
AcDbSpline
210
0
220
0
230
1
70
8
71
3
72
8
73
4
74
0
42
1e-07
43
1e-07
40
0
40
0
40
0
40
0
40
1
40
1
40
1
40
1
10
36.6302834177
20
33.8177290667
30
0
10
36.6658269697
20
33.8532726187
30
0
10
36.7143658497
20
33.9625295787
30
0
10
36.7386566657
20
34.0593111467
30
0
0
SPLINE
5
1A5
100
AcDbEntity
8
patchy
6
ByLayer
62
7
370
-1
100
AcDbSpline
210
0
220
0
230
1
70
8
71
3
72
8
73
4
74
0
42
1e-07
43
1e-07
40
0
40
0
40
0
40
0
40
1
40
1
40
1
40
1
10
36.7386566657
20
34.0593111467
30
0
10
36.8280068097
20
34.4153119147
30
0
10
36.9717641217
20
34.4671626667
30
0
10
37.2218210817
20
34.2354178987
30
0
0
SPLINE
5
1A6
100
AcDbEntity
8
patchy
6
ByLayer
62
7
370
-1
100
AcDbSpline
210
0
220
0
230
1
70
8
71
3
72
8
73
4
74
0
42
1e-07
43
1e-07
40
0
40
0
40
0
40
0
40
1
40
1
40
1
40
1
10
37.2218210817
20
34.2354178987
30
0
10
37.3092970497
20
34.1543480747
30
0
10
37.4166516737
20
34.0886623147
30
0
10
37.4588878337
20
34.0886623147
30
0
0
SPLINE
5
1A7
100
AcDbEntity
8
patchy
6
ByLayer
62
7
370
-1
100
AcDbSpline
210
0
220
0
230
1
70
8
71
3
72
8
73
4
74
0
42
1e-07
43
1e-07
40
0
40
0
40
0
40
0
40
1
40
1
40
1
40
1
10
37.4588878337
20
34.0886623147
30
0
10
37.5561079297
20
34.0886623147
30
0
10
37.8359366657
20
33.8322337707
30
0
10
37.8359366657
20
33.7432223147
30
0
0
SPLINE
5
1A8
100
AcDbEntity
8
patchy
6
ByLayer
62
7
370
-1
100
AcDbSpline
210
0
220
0
230
1
70
8
71
3
72
8
73
4
74
0
42
1e-07
43
1e-07
40
0
40
0
40
0
40
0
40
1
40
1
40
1
40
1
10
37.8359366657
20
33.7432223147
30
0
10
37.8359366657
20
33.7064064427
30
0
10
37.8152741377
20
33.6754890667
30
0
10
37.7907810817
20
33.6754890667
30
0
0
SPLINE
5
1A9
100
AcDbEntity
8
patchy
6
ByLayer
62
7
370
-1
100
AcDbSpline
210
0
220
0
230
1
70
8
71
3
72
8
73
4
74
0
42
1e-07
43
1e-07
40
0
40
0
40
0
40
0
40
1
40
1
40
1
40
1
10
37.7907810817
20
33.6754890667
30
0
10
37.7237024257
20
33.6754890667
30
0
10
37.5879062017
20
33.2602081707
30
0
10
37.5785499137
20
33.0275067307
30
0
0
SPLINE
5
1AA
100
AcDbEntity
8
patchy
6
ByLayer
62
7
370
-1
100
AcDbSpline
210
0
220
0
230
1
70
8
71
3
72
8
73
4
74
0
42
1e-07
43
1e-07
40
0
40
0
40
0
40
0
40
1
40
1
40
1
40
1
10
37.5785499137
20
33.0275067307
30
0
10
37.5717462017
20
32.8582710187
30
0
10
37.5981605377
20
32.8100209067
30
0
10
37.7320790017
20
32.7452846507
30
0
0
SPLINE
5
1AB
100
AcDbEntity
8
patchy
6
ByLayer
62
7
370
-1
100
AcDbSpline
210
0
220
0
230
1
70
8
71
3
72
8
73
4
74
0
42
1e-07
43
1e-07
40
0
40
0
40
0
40
0
40
1
40
1
40
1
40
1
10
37.7320790017
20
32.7452846507
30
0
10
37.8212555777
20
32.7021765547
30
0
10
37.8946390017
20
32.6404767147
30
0
10
37.8946390017
20
32.6098178987
30
0
0
SPLINE
5
1AC
100
AcDbEntity
8
patchy
6
ByLayer
62
7
370
-1
100
AcDbSpline
210
0
220
0
230
1
70
8
71
3
72
8
73
4
74
0
42
1e-07
43
1e-07
40
0
40
0
40
0
40
0
40
1
40
1
40
1
40
1
10
37.8946390017
20
32.6098178987
30
0
10
37.8946390017
20
32.4669450667
30
0
10
38.0011567617
20
32.5795174827
30
0
10
38.0730034177
20
32.7972134827
30
0
0
SPLINE
5
1AD
100
AcDbEntity
8
patchy
6
ByLayer
62
7
370
-1
100
AcDbSpline
210
0
220
0
230
1
70
8
71
3
72
8
73
4
74
0
42
1e-07
43
1e-07
40
0
40
0
40
0
40
0
40
1
40
1
40
1
40
1
10
38.0730034177
20
32.7972134827
30
0
10
38.1169486337
20
32.9303716267
30
0
10
38.1887338497
20
33.0519089067
30
0
10
38.2310478337
20
33.0681467307
30
0
0
SPLINE
5
1AE
100
AcDbEntity
8
patchy
6
ByLayer
62
7
370
-1
100
AcDbSpline
210
0
220
0
230
1
70
8
71
3
72
8
73
4
74
0
42
1e-07
43
1e-07
40
0
40
0
40
0
40
0
40
1
40
1
40
1
40
1
10
38.2310478337
20
33.0681467307
30
0
10
38.2733618177
20
33.0843840427
30
0
10
38.3078122497
20
33.1725550507
30
0
10
38.3078122497
20
33.2623155627
30
0
0
SPLINE
5
1AF
100
AcDbEntity
8
patchy
6
ByLayer
62
7
370
-1
100
AcDbSpline
210
0
220
0
230
1
70
8
71
3
72
8
73
4
74
0
42
1e-07
43
1e-07
40
0
40
0
40
0
40
0
40
1
40
1
40
1
40
1
10
38.3078122497
20
33.2623155627
30
0
10
38.3078122497
20
33.5768591787
30
0
10
38.3821093377
20
33.8090634667
30
0
10
38.4929499137
20
33.8380490667
30
0
0
SPLINE
5
1B0
100
AcDbEntity
8
patchy
6
ByLayer
62
7
370
-1
100
AcDbSpline
210
0
220
0
230
1
70
8
71
3
72
8
73
4
74
0
42
1e-07
43
1e-07
40
0
40
0
40
0
40
0
40
1
40
1
40
1
40
1
10
38.4929499137
20
33.8380490667
30
0
10
38.5528877057
20
33.8537234347
30
0
10
38.6013234177
20
33.8884252587
30
0
10
38.6013234177
20
33.9170711467
30
0
0
SPLINE
5
1B1
100
AcDbEntity
8
patchy
6
ByLayer
62
7
370
-1
100
AcDbSpline
210
0
220
0
230
1
70
8
71
3
72
8
73
4
74
0
42
1e-07
43
1e-07
40
0
40
0
40
0
40
0
40
1
40
1
40
1
40
1
10
38.6013234177
20
33.9170711467
30
0
10
38.6013234177
20
33.9457165227
30
0
10
38.6643134977
20
33.9712578987
30
0
10
38.7413054977
20
33.9712578987
30
0
0
SPLINE
5
1B2
100
AcDbEntity
8
patchy
6
ByLayer
62
7
370
-1
100
AcDbSpline
210
0
220
0
230
1
70
8
71
3
72
8
73
4
74
0
42
1e-07
43
1e-07
40
0
40
0
40
0
40
0
40
1
40
1
40
1
40
1
10
38.7413054977
20
33.9712578987
30
0
10
38.9801097217
20
33.9712578987
30
0
10
39.3637080577
20
34.1354491307
30
0
10
39.5247543297
20
34.3076667307
30
0
0
SPLINE
5
1B3
100
AcDbEntity
8
patchy
6
ByLayer
62
7
370
-1
100
AcDbSpline
210
0
220
0
230
1
70
8
71
3
72
8
73
4
74
0
42
1e-07
43
1e-07
40
0
40
0
40
0
40
0
40
1
40
1
40
1
40
1
10
39.5247543297
20
34.3076667307
30
0
10
39.6782514177
20
34.4718118827
30
0
10
39.6781886977
20
34.4743644587
30
0
10
39.6489322497
20
35.2604490667
30
0
0
SPLINE
5
1B4
100
AcDbEntity
8
patchy
6
ByLayer
62
7
370
-1
100
AcDbSpline
210
0
220
0
230
1
70
8
71
3
72
8
73
4
74
0
42
1e-07
43
1e-07
40
0
40
0
40
0
40
0
40
1
40
1
40
1
40
1
10
39.6489322497
20
35.2604490667
30
0
10
39.6328019457
20
35.6938606507
30
0
10
39.5943215617
20
36.0639593387
30
0
10
39.5631366657
20
36.0845378987
30
0
0
SPLINE
5
1B5
100
AcDbEntity
8
patchy
6
ByLayer
62
7
370
-1
100
AcDbSpline
210
0
220
0
230
1
70
8
71
3
72
8
73
4
74
0
42
1e-07
43
1e-07
40
0
40
0
40
0
40
0
40
1
40
1
40
1
40
1
10
39.5631366657
20
36.0845378987
30
0
10
39.4509508097
20
36.1585669547
30
0
10
39.3553084417
20
36.8496724907
30
0
10
39.4276699137
20
37.0689290667
30
0
0
SPLINE
5
1B6
100
AcDbEntity
8
patchy
6
ByLayer
62
7
370
-1
100
AcDbSpline
210
0
220
0
230
1
70
8
71
3
72
8
73
4
74
0
42
1e-07
43
1e-07
40
0
40
0
40
0
40
0
40
1
40
1
40
1
40
1
10
39.4276699137
20
37.0689290667
30
0
10
39.4645741057
20
37.1807501227
30
0
10
39.5166401537
20
37.2721290667
30
0
10
39.5428166657
20
37.2721290667
30
0
0
SPLINE
5
1B7
100
AcDbEntity
8
patchy
6
ByLayer
62
7
370
-1
100
AcDbSpline
210
0
220
0
230
1
70
8
71
3
72
8
73
4
74
0
42
1e-07
43
1e-07
40
0
40
0
40
0
40
0
40
1
40
1
40
1
40
1
10
39.5428166657
20
37.2721290667
30
0
10
39.5689931777
20
37.2721290667
30
0
10
39.6100947457
20
37.4219297707
30
0
10
39.6331278337
20
37.6062799787
30
0
0
SPLINE
5
1B8
100
AcDbEntity
8
patchy
6
ByLayer
62
7
370
-1
100
AcDbSpline
210
0
220
0
230
1
70
8
71
3
72
8
73
4
74
0
42
1e-07
43
1e-07
40
0
40
0
40
0
40
0
40
1
40
1
40
1
40
1
10
39.6331278337
20
37.6062799787
30
0
10
39.6994456577
20
38.1370688427
30
0
10
39.8352815617
20
38.3742251947
30
0
10
40.1524166657
20
38.5116490667
30
0
0
SPLINE
5
1B9
100
AcDbEntity
8
patchy
6
ByLayer
62
7
370
-1
100
AcDbSpline
210
0
220
0
230
1
70
8
71
3
72
8
73
4
74
0
42
1e-07
43
1e-07
40
0
40
0
40
0
40
0
40
1
40
1
40
1
40
1
10
40.1524166657
20
38.5116490667
30
0
10
40.3563867137
20
38.6000338347
30
0
10
40.5101331457
20
38.7064348587
30
0
10
40.5949410817
20
38.8187067307
30
0
0
SPLINE
5
1BA
100
AcDbEntity
8
patchy
6
ByLayer
62
7
370
-1
100
AcDbSpline
210
0
220
0
230
1
70
8
71
3
72
8
73
4
74
0
42
1e-07
43
1e-07
40
0
40
0
40
0
40
0
40
1
40
1
40
1
40
1
10
40.5949410817
20
38.8187067307
30
0
10
40.6378077697
20
38.8754552747
30
0
10
40.7022040577
20
38.9225646507
30
0
10
40.7371810817
20
38.9225646507
30
0
0
SPLINE
5
1BB
100
AcDbEntity
8
patchy
6
ByLayer
62
7
370
-1
100
AcDbSpline
210
0
220
0
230
1
70
8
71
3
72
8
73
4
74
0
42
1e-07
43
1e-07
40
0
40
0
40
0
40
0
40
1
40
1
40
1
40
1
10
40.7371810817
20
38.9225646507
30
0
10
40.7721588737
20
38.9225646507
30
0
10
40.8622329857
20
38.9828106667
30
0
10
40.9381234177
20
39.0557734827
30
0
0
SPLINE
5
1BC
100
AcDbEntity
8
patchy
6
ByLayer
62
7
370
-1
100
AcDbSpline
210
0
220
0
230
1
70
8
71
3
72
8
73
4
74
0
42
1e-07
43
1e-07
40
0
40
0
40
0
40
0
40
1
40
1
40
1
40
1
10
40.9381234177
20
39.0557734827
30
0
10
41.4966498817
20
39.5927611307
30
0
10
41.4912790017
20
39.5996434347
30
0
10
41.4912790017
20
38.3061911467
30
0
0
SPLINE
5
1BD
100
AcDbEntity
8
patchy
6
ByLayer
62
7
370
-1
100
AcDbSpline
210
0
220
0
230
1
70
8
71
3
72
8
73
4
74
0
42
1e-07
43
1e-07
40
0
40
0
40
0
40
0
40
1
40
1
40
1
40
1
10
41.4912790017
20
38.3061911467
30
0
10
41.4912790017
20
37.0843505067
30
0
10
41.3860932097
20
35.1361700267
30
0
10
41.3174299137
20
35.0911155627
30
0
0
SPLINE
5
1BE
100
AcDbEntity
8
patchy
6
ByLayer
62
7
370
-1
100
AcDbSpline
210
0
220
0
230
1
70
8
71
3
72
8
73
4
74
0
42
1e-07
43
1e-07
40
0
40
0
40
0
40
0
40
1
40
1
40
1
40
1
10
41.3174299137
20
35.0911155627
30
0
10
41.2927202817
20
35.0749015467
30
0
10
41.2567914497
20
34.7156828587
30
0
10
41.2384078337
20
34.2941199787
30
0
0
SPLINE
5
1BF
100
AcDbEntity
8
patchy
6
ByLayer
62
7
370
-1
100
AcDbSpline
210
0
220
0
230
1
70
8
71
3
72
8
73
4
74
0
42
1e-07
43
1e-07
40
0
40
0
40
0
40
0
40
1
40
1
40
1
40
1
10
41.2384078337
20
34.2941199787
30
0
10
41.1663742977
20
32.6422843307
30
0
10
41.0545350657
20
30.9332375467
30
0
10
41.0171454977
20
30.9051955627
30
0
0
SPLINE
5
1C0
100
AcDbEntity
8
patchy
6
ByLayer
62
7
370
-1
100
AcDbSpline
210
0
220
0
230
1
70
8
71
3
72
8
73
4
74
0
42
1e-07
43
1e-07
40
0
40
0
40
0
40
0
40
1
40
1
40
1
40
1
10
41.0171454977
20
30.9051955627
30
0
10
40.9955257857
20
30.8889823147
30
0
10
40.9607510017
20
30.5954481067
30
0
10
40.9403810817
20
30.2549555627
30
0
0
SPLINE
5
1C1
100
AcDbEntity
8
patchy
6
ByLayer
62
7
370
-1
100
AcDbSpline
210
0
220
0
230
1
70
8
71
3
72
8
73
4
74
0
42
1e-07
43
1e-07
40
0
40
0
40
0
40
0
40
1
40
1
40
1
40
1
10
40.9403810817
20
30.2549555627
30
0
10
40.8954018817
20
29.5030810027
30
0
10
40.7277671937
20
28.2319729067
30
0
10
40.6671899137
20
28.1913467307
30
0
0
SPLINE
5
1C2
100
AcDbEntity
8
patchy
6
ByLayer
62
7
370
-1
100
AcDbSpline
210
0
220
0
230
1
70
8
71
3
72
8
73
4
74
0
42
1e-07
43
1e-07
40
0
40
0
40
0
40
0
40
1
40
1
40
1
40
1
10
40.6671899137
20
28.1913467307
30
0
10
40.6430140417
20
28.1751334827
30
0
10
40.5778643457
20
27.8044721067
30
0
10
40.5226922497
20
27.3672578987
30
0
0
SPLINE
5
1C3
100
AcDbEntity
8
patchy
6
ByLayer
62
7
370
-1
100
AcDbSpline
210
0
220
0
230
1
70
8
71
3
72
8
73
4
74
0
42
1e-07
43
1e-07
40
0
40
0
40
0
40
0
40
1
40
1
40
1
40
1
10
40.5226922497
20
27.3672578987
30
0
10
40.4675201537
20
26.9300444587
30
0
10
40.4011501057
20
26.5599457707
30
0
10
40.3759366657
20
26.5431690667
30
0
0
SPLINE
5
1C4
100
AcDbEntity
8
patchy
6
ByLayer
62
7
370
-1
100
AcDbSpline
210
0
220
0
230
1
70
8
71
3
72
8
73
4
74
0
42
1e-07
43
1e-07
40
0
40
0
40
0
40
0
40
1
40
1
40
1
40
1
10
40.3759366657
20
26.5431690667
30
0
10
40.3507224577
20
26.5263921067
30
0
10
40.2670575617
20
26.0680791467
30
0
10
40.1907990017
20
25.5249111467
30
0
0
SPLINE
5
1C5
100
AcDbEntity
8
patchy
6
ByLayer
62
7
370
-1
100
AcDbSpline
210
0
220
0
230
1
70
8
71
3
72
8
73
4
74
0
42
1e-07
43
1e-07
40
0
40
0
40
0
40
0
40
1
40
1
40
1
40
1
10
40.1907990017
20
25.5249111467
30
0
10
40.1145409537
20
24.9817441707
30
0
10
40.0317147137
20
24.5360046507
30
0
10
40.0056610817
20
24.5360046507
30
0
0
SPLINE
5
1C6
100
AcDbEntity
8
patchy
6
ByLayer
62
7
370
-1
100
AcDbSpline
210
0
220
0
230
1
70
8
71
3
72
8
73
4
74
0
42
1e-07
43
1e-07
40
0
40
0
40
0
40
0
40
1
40
1
40
1
40
1
10
40.0056610817
20
24.5360046507
30
0
10
39.9796066817
20
24.5360046507
30
0
10
39.9581892097
20
24.4494843307
30
0
10
39.9582478337
20
24.3440934827
30
0
0
SPLINE
5
1C7
100
AcDbEntity
8
patchy
6
ByLayer
62
7
370
-1
100
AcDbSpline
210
0
220
0
230
1
70
8
71
3
72
8
73
4
74
0
42
1e-07
43
1e-07
40
0
40
0
40
0
40
0
40
1
40
1
40
1
40
1
10
39.9582478337
20
24.3440934827
30
0
10
39.9584032257
20
24.0971604907
30
0
10
39.7777273857
20
23.1002601387
30
0
10
39.7256966657
20
23.0616755627
30
0
0
SPLINE
5
1C8
100
AcDbEntity
8
patchy
6
ByLayer
62
7
370
-1
100
AcDbSpline
210
0
220
0
230
1
70
8
71
3
72
8
73
4
74
0
42
1e-07
43
1e-07
40
0
40
0
40
0
40
0
40
1
40
1
40
1
40
1
10
39.7256966657
20
23.0616755627
30
0
10
39.7038319617
20
23.0454615467
30
0
10
39.6231479297
20
22.7541857707
30
0
10
39.5473322497
20
22.4136934827
30
0
0
SPLINE
5
1C9
100
AcDbEntity
8
patchy
6
ByLayer
62
7
370
-1
100
AcDbSpline
210
0
220
0
230
1
70
8
71
3
72
8
73
4
74
0
42
1e-07
43
1e-07
40
0
40
0
40
0
40
0
40
1
40
1
40
1
40
1
10
39.5473322497
20
22.4136934827
30
0
10
39.4715163137
20
22.0732004267
30
0
10
39.3938914817
20
21.7819254187
30
0
10
39.3734834177
20
21.7657111467
30
0
0
SPLINE
5
1CA
100
AcDbEntity
8
patchy
6
ByLayer
62
7
370
-1
100
AcDbSpline
210
0
220
0
230
1
70
8
71
3
72
8
73
4
74
0
42
1e-07
43
1e-07
40
0
40
0
40
0
40
0
40
1
40
1
40
1
40
1
10
39.3734834177
20
21.7657111467
30
0
10
39.3530750977
20
21.7494971307
30
0
10
39.2856720897
20
21.5370450347
30
0
10
39.2244699137
20
21.2938355627
30
0
0
SPLINE
5
1CB
100
AcDbEntity
8
patchy
6
ByLayer
62
7
370
-1
100
AcDbSpline
210
0
220
0
230
1
70
8
71
3
72
8
73
4
74
0
42
1e-07
43
1e-07
40
0
40
0
40
0
40
0
40
1
40
1
40
1
40
1
10
39.2244699137
20
21.2938355627
30
0
10
39.1632679937
20
21.0506263467
30
0
10
39.0960216577
20
20.8381734827
30
0
10
39.0754566657
20
20.8219599787
30
0
0
SPLINE
5
1CC
100
AcDbEntity
8
patchy
6
ByLayer
62
7
370
-1
100
AcDbSpline
210
0
220
0
230
1
70
8
71
3
72
8
73
4
74
0
42
1e-07
43
1e-07
40
0
40
0
40
0
40
0
40
1
40
1
40
1
40
1
10
39.0754566657
20
20.8219599787
30
0
10
39.0548924417
20
20.8057459627
30
0
10
38.9865703937
20
20.5801567147
30
0
10
38.9241854977
20
20.3207334827
30
0
0
SPLINE
5
1CD
100
AcDbEntity
8
patchy
6
ByLayer
62
7
370
-1
100
AcDbSpline
210
0
220
0
230
1
70
8
71
3
72
8
73
4
74
0
42
1e-07
43
1e-07
40
0
40
0
40
0
40
0
40
1
40
1
40
1
40
1
10
38.9241854977
20
20.3207334827
30
0
10
38.8618008577
20
20.0613099947
30
0
10
38.7909052417
20
19.8351414187
30
0
10
38.7661410817
20
19.8172490667
30
0
0
SPLINE
5
1CE
100
AcDbEntity
8
patchy
6
ByLayer
62
7
370
-1
100
AcDbSpline
210
0
220
0
230
1
70
8
71
3
72
8
73
4
74
0
42
1e-07
43
1e-07
40
0
40
0
40
0
40
0
40
1
40
1
40
1
40
1
10
38.7661410817
20
19.8172490667
30
0
10
38.7413771777
20
19.7993564587
30
0
10
38.6619480577
20
19.5212186027
30
0
10
38.5900343297
20
19.1986178987
30
0
0
SPLINE
5
1CF
100
AcDbEntity
8
patchy
6
ByLayer
62
7
370
-1
100
AcDbSpline
210
0
220
0
230
1
70
8
71
3
72
8
73
4
74
0
42
1e-07
43
1e-07
40
0
40
0
40
0
40
0
40
1
40
1
40
1
40
1
10
38.5900343297
20
19.1986178987
30
0
10
38.5181200897
20
18.8760179627
30
0
10
38.4408564737
20
18.6017249707
30
0
10
38.4161854977
20
18.5912755627
30
0
0
SPLINE
5
1D0
100
AcDbEntity
8
patchy
6
ByLayer
62
7
370
-1
100
AcDbSpline
210
0
220
0
230
1
70
8
71
3
72
8
73
4
74
0
42
1e-07
43
1e-07
40
0
40
0
40
0
40
0
40
1
40
1
40
1
40
1
10
38.4161854977
20
18.5912755627
30
0
10
38.3915155457
20
18.5808264107
30
0
10
38.3246736897
20
18.3629345707
30
0
10
38.2694299137
20
18.1058534827
30
0
0
SPLINE
5
1D1
100
AcDbEntity
8
patchy
6
ByLayer
62
7
370
-1
100
AcDbSpline
210
0
220
0
230
1
70
8
71
3
72
8
73
4
74
0
42
1e-07
43
1e-07
40
0
40
0
40
0
40
0
40
1
40
1
40
1
40
1
10
38.2694299137
20
18.1058534827
30
0
10
38.2141856257
20
17.8487731627
30
0
10
38.1507598337
20
17.6384934827
30
0
10
38.1271899137
20
17.6384934827
30
0
0
SPLINE
5
1D2
100
AcDbEntity
8
patchy
6
ByLayer
62
7
370
-1
100
AcDbSpline
210
0
220
0
230
1
70
8
71
3
72
8
73
4
74
0
42
1e-07
43
1e-07
40
0
40
0
40
0
40
0
40
1
40
1
40
1
40
1
10
38.1271899137
20
17.6384934827
30
0
10
38.1036210177
20
17.6384934827
30
0
10
38.0242838017
20
17.3866294187
30
0
10
37.9510834177
20
17.0785646507
30
0
0
SPLINE
5
1D3
100
AcDbEntity
8
patchy
6
ByLayer
62
7
370
-1
100
AcDbSpline
210
0
220
0
230
1
70
8
71
3
72
8
73
4
74
0
42
1e-07
43
1e-07
40
0
40
0
40
0
40
0
40
1
40
1
40
1
40
1
10
37.9510834177
20
17.0785646507
30
0
10
37.8778830337
20
16.7704996267
30
0
10
37.7986149377
20
16.5186355627
30
0
10
37.7749766657
20
16.5186355627
30
0
0
SPLINE
5
1D4
100
AcDbEntity
8
patchy
6
ByLayer
62
7
370
-1
100
AcDbSpline
210
0
220
0
230
1
70
8
71
3
72
8
73
4
74
0
42
1e-07
43
1e-07
40
0
40
0
40
0
40
0
40
1
40
1
40
1
40
1
10
37.7749766657
20
16.5186355627
30
0
10
37.7513368577
20
16.5186355627
30
0
10
37.7182250497
20
16.4506921387
30
0
10
37.7027278337
20
16.3696223147
30
0
0
LWPOLYLINE
5
1D5
100
AcDbEntity
8
patchy
6
ByLayer
62
7
370
-1
100
AcDbPolyline
90
3
70
0
43
0
10
19.9746566657
20
48.7122890667
10
19.7691990017
20
48.8929111467
10
19.6675990017
20
48.7597023147
0
SPLINE
5
1D6
100
AcDbEntity
8
patchy
6
ByLayer
62
7
370
-1
100
AcDbSpline
210
0
220
0
230
1
70
8
71
3
72
8
73
4
74
0
42
1e-07
43
1e-07
40
0
40
0
40
0
40
0
40
1
40
1
40
1
40
1
10
54.9927899137
20
16.4305823147
30
0
10
54.9927899137
20
16.5440796587
30
0
10
54.9665158657
20
16.6360399787
30
0
10
54.9340878337
20
16.6360399787
30
0
0
SPLINE
5
1D7
100
AcDbEntity
8
patchy
6
ByLayer
62
7
370
-1
100
AcDbSpline
210
0
220
0
230
1
70
8
71
3
72
8
73
4
74
0
42
1e-07
43
1e-07
40
0
40
0
40
0
40
0
40
1
40
1
40
1
40
1
10
54.9340878337
20
16.6360399787
30
0
10
54.8998736897
20
16.6360399787
30
0
10
54.8755301377
20
16.8269519787
30
0
10
54.8753854977
20
17.0921111467
30
0
0
SPLINE
5
1D8
100
AcDbEntity
8
patchy
6
ByLayer
62
7
370
-1
100
AcDbSpline
210
0
220
0
230
1
70
8
71
3
72
8
73
4
74
0
42
1e-07
43
1e-07
40
0
40
0
40
0
40
0
40
1
40
1
40
1
40
1
10
54.8753854977
20
17.0921111467
30
0
10
54.8752541697
20
17.3434276267
30
0
10
54.8492683777
20
17.9074010027
30
0
10
54.8189410817
20
18.3451778987
30
0
0
SPLINE
5
1D9
100
AcDbEntity
8
patchy
6
ByLayer
62
7
370
-1
100
AcDbSpline
210
0
220
0
230
1
70
8
71
3
72
8
73
4
74
0
42
1e-07
43
1e-07
40
0
40
0
40
0
40
0
40
1
40
1
40
1
40
1
10
54.8189410817
20
18.3451778987
30
0
10
54.7886132737
20
18.7829540267
30
0
10
54.7306428417
20
19.9580114347
30
0
10
54.6902478337
20
20.9551690667
30
0
0
SPLINE
5
1DA
100
AcDbEntity
8
patchy
6
ByLayer
62
7
370
-1
100
AcDbSpline
210
0
220
0
230
1
70
8
71
3
72
8
73
4
74
0
42
1e-07
43
1e-07
40
0
40
0
40
0
40
0
40
1
40
1
40
1
40
1
10
54.6902478337
20
20.9551690667
30
0
10
54.6498528257
20
21.9523264427
30
0
10
54.6009286657
20
22.7681646507
30
0
10
54.5796166657
20
22.7681646507
30
0
0
SPLINE
5
1DB
100
AcDbEntity
8
patchy
6
ByLayer
62
7
370
-1
100
AcDbSpline
210
0
220
0
230
1
70
8
71
3
72
8
73
4
74
0
42
1e-07
43
1e-07
40
0
40
0
40
0
40
0
40
1
40
1
40
1
40
1
10
54.5796166657
20
22.7681646507
30
0
10
54.5583054337
20
22.7681646507
30
0
10
54.5220082177
20
23.2510574507
30
0
10
54.5005943297
20
23.8428667307
30
0
0
SPLINE
5
1DC
100
AcDbEntity
8
patchy
6
ByLayer
62
7
370
-1
100
AcDbSpline
210
0
220
0
230
1
70
8
71
3
72
8
73
4
74
0
42
1e-07
43
1e-07
40
0
40
0
40
0
40
0
40
1
40
1
40
1
40
1
10
54.5005943297
20
23.8428667307
30
0
10
54.4472674817
20
25.3166876587
30
0
10
54.3405876737
20
26.8597274027
30
0
10
54.2883634177
20
26.8953823147
30
0
0
SPLINE
5
1DD
100
AcDbEntity
8
patchy
6
ByLayer
62
7
370
-1
100
AcDbSpline
210
0
220
0
230
1
70
8
71
3
72
8
73
4
74
0
42
1e-07
43
1e-07
40
0
40
0
40
0
40
0
40
1
40
1
40
1
40
1
10
54.2883634177
20
26.8953823147
30
0
10
54.2646142977
20
26.9115963307
30
0
10
54.2280441857
20
27.1313111467
30
0
10
54.2070834177
20
27.3853199787
30
0
0
SPLINE
5
1DE
100
AcDbEntity
8
patchy
6
ByLayer
62
7
370
-1
100
AcDbSpline
210
0
220
0
230
1
70
8
71
3
72
8
73
4
74
0
42
1e-07
43
1e-07
40
0
40
0
40
0
40
0
40
1
40
1
40
1
40
1
10
54.2070834177
20
27.3853199787
30
0
10
54.1525505537
20
28.0461691307
30
0
10
53.9889798657
20
29.0995924907
30
0
10
53.9361499137
20
29.1350978987
30
0
0
SPLINE
5
1DF
100
AcDbEntity
8
patchy
6
ByLayer
62
7
370
-1
100
AcDbSpline
210
0
220
0
230
1
70
8
71
3
72
8
73
4
74
0
42
1e-07
43
1e-07
40
0
40
0
40
0
40
0
40
1
40
1
40
1
40
1
10
53.9361499137
20
29.1350978987
30
0
10
53.9114553857
20
29.1516941227
30
0
10
53.8440167937
20
29.4502850987
30
0
10
53.7848790017
20
29.7988846507
30
0
0
SPLINE
5
1E0
100
AcDbEntity
8
patchy
6
ByLayer
62
7
370
-1
100
AcDbSpline
210
0
220
0
230
1
70
8
71
3
72
8
73
4
74
0
42
1e-07
43
1e-07
40
0
40
0
40
0
40
0
40
1
40
1
40
1
40
1
10
53.7848790017
20
29.7988846507
30
0
10
53.7257409537
20
30.1474847147
30
0
10
53.6589236737
20
30.4333199787
30
0
10
53.6381234177
20
30.4333199787
30
0
0
SPLINE
5
1E1
100
AcDbEntity
8
patchy
6
ByLayer
62
7
370
-1
100
AcDbSpline
210
0
220
0
230
1
70
8
71
3
72
8
73
4
74
0
42
1e-07
43
1e-07
40
0
40
0
40
0
40
0
40
1
40
1
40
1
40
1
10
53.6381234177
20
30.4333199787
30
0
10
53.6173221377
20
30.4333199787
30
0
10
53.5519405057
20
30.6851840427
30
0
10
53.4913678337
20
30.9932490667
30
0
0
SPLINE
5
1E2
100
AcDbEntity
8
patchy
6
ByLayer
62
7
370
-1
100
AcDbSpline
210
0
220
0
230
1
70
8
71
3
72
8
73
4
74
0
42
1e-07
43
1e-07
40
0
40
0
40
0
40
0
40
1
40
1
40
1
40
1
10
53.4913678337
20
30.9932490667
30
0
10
53.4307964417
20
31.3013138347
30
0
10
53.3610423297
20
31.5531778987
30
0
10
53.3378390017
20
31.5531778987
30
0
0
SPLINE
5
1E3
100
AcDbEntity
8
patchy
6
ByLayer
62
7
370
-1
100
AcDbSpline
210
0
220
0
230
1
70
8
71
3
72
8
73
4
74
0
42
1e-07
43
1e-07
40
0
40
0
40
0
40
0
40
1
40
1
40
1
40
1
10
53.3378390017
20
31.5531778987
30
0
10
53.3146346497
20
31.5531778987
30
0
10
53.2838291457
20
31.6265610667
30
0
10
53.2678478337
20
31.7157378987
30
0
0
SPLINE
5
1E4
100
AcDbEntity
8
patchy
6
ByLayer
62
7
370
-1
100
AcDbSpline
210
0
220
0
230
1
70
8
71
3
72
8
73
4
74
0
42
1e-07
43
1e-07
40
0
40
0
40
0
40
0
40
1
40
1
40
1
40
1
10
53.2678478337
20
31.7157378987
30
0
10
53.1815003137
20
32.1975475627
30
0
10
53.0277899777
20
32.8234440107
30
0
10
52.9901410817
20
32.8491423147
30
0
0
SPLINE
5
1E5
100
AcDbEntity
8
patchy
6
ByLayer
62
7
370
-1
100
AcDbSpline
210
0
220
0
230
1
70
8
71
3
72
8
73
4
74
0
42
1e-07
43
1e-07
40
0
40
0
40
0
40
0
40
1
40
1
40
1
40
1
10
52.9901410817
20
32.8491423147
30
0
10
52.9383018497
20
32.8845268907
30
0
10
52.7530743297
20
34.0531238827
30
0
10
52.7530743297
20
34.3437911467
30
0
0
SPLINE
5
1E6
100
AcDbEntity
8
patchy
6
ByLayer
62
7
370
-1
100
AcDbSpline
210
0
220
0
230
1
70
8
71
3
72
8
73
4
74
0
42
1e-07
43
1e-07
40
0
40
0
40
0
40
0
40
1
40
1
40
1
40
1
10
52.7530743297
20
34.3437911467
30
0
10
52.7530743297
20
34.4566446507
30
0
10
52.7249422337
20
34.5586260907
30
0
10
52.6921143297
20
34.5695690667
30
0
0
SPLINE
5
1E7
100
AcDbEntity
8
patchy
6
ByLayer
62
7
370
-1
100
AcDbSpline
210
0
220
0
230
1
70
8
71
3
72
8
73
4
74
0
42
1e-07
43
1e-07
40
0
40
0
40
0
40
0
40
1
40
1
40
1
40
1
10
52.6921143297
20
34.5695690667
30
0
10
52.6592859137
20
34.5805117867
30
0
10
52.6182834177
20
34.8156119467
30
0
10
52.5995454977
20
35.0911155627
30
0
0
SPLINE
5
1E8
100
AcDbEntity
8
patchy
6
ByLayer
62
7
370
-1
100
AcDbSpline
210
0
220
0
230
1
70
8
71
3
72
8
73
4
74
0
42
1e-07
43
1e-07
40
0
40
0
40
0
40
0
40
1
40
1
40
1
40
1
10
52.5995454977
20
35.0911155627
30
0
10
52.5808062977
20
35.3666194347
30
0
10
52.5401757697
20
35.6753549227
30
0
10
52.5092343297
20
35.7774799787
30
0
0
SPLINE
5
1E9
100
AcDbEntity
8
patchy
6
ByLayer
62
7
370
-1
100
AcDbSpline
210
0
220
0
230
1
70
8
71
3
72
8
73
4
74
0
42
1e-07
43
1e-07
40
0
40
0
40
0
40
0
40
1
40
1
40
1
40
1
10
52.5092343297
20
35.7774799787
30
0
10
52.4517958657
20
35.9670684587
30
0
10
52.4915362817
20
36.2696755627
30
0
10
52.5747099137
20
36.2696755627
30
0
0
SPLINE
5
1EA
100
AcDbEntity
8
patchy
6
ByLayer
62
7
370
-1
100
AcDbSpline
210
0
220
0
230
1
70
8
71
3
72
8
73
4
74
0
42
1e-07
43
1e-07
40
0
40
0
40
0
40
0
40
1
40
1
40
1
40
1
10
52.5747099137
20
36.2696755627
30
0
10
52.6000743937
20
36.2696755627
30
0
10
52.6363772417
20
36.1831554987
30
0
10
52.6537322497
20
36.0777646507
30
0
0
SPLINE
5
1EB
100
AcDbEntity
8
patchy
6
ByLayer
62
7
370
-1
100
AcDbSpline
210
0
220
0
230
1
70
8
71
3
72
8
73
4
74
0
42
1e-07
43
1e-07
40
0
40
0
40
0
40
0
40
1
40
1
40
1
40
1
10
52.6537322497
20
36.0777646507
30
0
10
52.6710870017
20
35.9723743147
30
0
10
52.7185552897
20
35.6810980267
30
0
10
52.7598478337
20
35.4297823147
30
0
0
SPLINE
5
1EC
100
AcDbEntity
8
patchy
6
ByLayer
62
7
370
-1
100
AcDbSpline
210
0
220
0
230
1
70
8
71
3
72
8
73
4
74
0
42
1e-07
43
1e-07
40
0
40
0
40
0
40
0
40
1
40
1
40
1
40
1
10
52.7598478337
20
35.4297823147
30
0
10
52.8011408897
20
35.1784660907
30
0
10
52.8555262977
20
34.9714534827
30
0
10
52.8795099137
20
34.9714534827
30
0
0
SPLINE
5
1ED
100
AcDbEntity
8
patchy
6
ByLayer
62
7
370
-1
100
AcDbSpline
210
0
220
0
230
1
70
8
71
3
72
8
73
4
74
0
42
1e-07
43
1e-07
40
0
40
0
40
0
40
0
40
1
40
1
40
1
40
1
10
52.8795099137
20
34.9714534827
30
0
10
52.9034930177
20
34.9714534827
30
0
10
52.9372115457
20
34.8455214507
30
0
10
52.9562743297
20
34.6914890667
30
0
0
SPLINE
5
1EE
100
AcDbEntity
8
patchy
6
ByLayer
62
7
370
-1
100
AcDbSpline
210
0
220
0
230
1
70
8
71
3
72
8
73
4
74
0
42
1e-07
43
1e-07
40
0
40
0
40
0
40
0
40
1
40
1
40
1
40
1
10
52.9562743297
20
34.6914890667
30
0
10
53.0249355777
20
34.1366904747
30
0
10
53.1245095937
20
33.5547292587
30
0
10
53.1459278337
20
33.5761467307
30
0
0
SPLINE
5
1EF
100
AcDbEntity
8
patchy
6
ByLayer
62
7
370
-1
100
AcDbSpline
210
0
220
0
230
1
70
8
71
3
72
8
73
4
74
0
42
1e-07
43
1e-07
40
0
40
0
40
0
40
0
40
1
40
1
40
1
40
1
10
53.1459278337
20
33.5761467307
30
0
10
53.1858034177
20
33.6160223147
30
0
10
53.0382278657
20
35.3543933867
30
0
10
52.9923990017
20
35.3846267307
30
0
0
SPLINE
5
1F0
100
AcDbEntity
8
patchy
6
ByLayer
62
7
370
-1
100
AcDbSpline
210
0
220
0
230
1
70
8
71
3
72
8
73
4
74
0
42
1e-07
43
1e-07
40
0
40
0
40
0
40
0
40
1
40
1
40
1
40
1
10
52.9923990017
20
35.3846267307
30
0
10
52.9468315137
20
35.4146872747
30
0
10
52.8111161857
20
36.9851008427
30
0
10
52.8501590017
20
37.0305467307
30
0
0
SPLINE
5
1F1
100
AcDbEntity
8
patchy
6
ByLayer
62
7
370
-1
100
AcDbSpline
210
0
220
0
230
1
70
8
71
3
72
8
73
4
74
0
42
1e-07
43
1e-07
40
0
40
0
40
0
40
0
40
1
40
1
40
1
40
1
10
52.8501590017
20
37.0305467307
30
0
10
52.8618075137
20
37.0441065387
30
0
10
52.9964586497
20
37.0231649707
30
0
10
53.1504434177
20
36.9831334827
30
0
0
SPLINE
5
1F2
100
AcDbEntity
8
patchy
6
ByLayer
62
7
370
-1
100
AcDbSpline
210
0
220
0
230
1
70
8
71
3
72
8
73
4
74
0
42
1e-07
43
1e-07
40
0
40
0
40
0
40
0
40
1
40
1
40
1
40
1
10
53.1504434177
20
36.9831334827
30
0
10
53.3044281857
20
36.9431017387
30
0
10
53.5037910017
20
36.8947615147
30
0
10
53.5929678337
20
36.8770178987
30
0
0
SPLINE
5
1F3
100
AcDbEntity
8
patchy
6
ByLayer
62
7
370
-1
100
AcDbSpline
210
0
220
0
230
1
70
8
71
3
72
8
73
4
74
0
42
1e-07
43
1e-07
40
0
40
0
40
0
40
0
40
1
40
1
40
1
40
1
10
53.5929678337
20
36.8770178987
30
0
10
53.6821446657
20
36.8592750507
30
0
10
53.7555278337
20
36.8222280107
30
0
10
53.7555278337
20
36.7934799787
30
0
0
SPLINE
5
1F4
100
AcDbEntity
8
patchy
6
ByLayer
62
7
370
-1
100
AcDbSpline
210
0
220
0
230
1
70
8
71
3
72
8
73
4
74
0
42
1e-07
43
1e-07
40
0
40
0
40
0
40
0
40
1
40
1
40
1
40
1
10
53.7555278337
20
36.7934799787
30
0
10
53.7555278337
20
36.7647329707
30
0
10
53.9548430337
20
36.7415511467
30
0
10
54.1980522497
20
36.7415511467
30
0
0
SPLINE
5
1F5
100
AcDbEntity
8
patchy
6
ByLayer
62
7
370
-1
100
AcDbSpline
210
0
220
0
230
1
70
8
71
3
72
8
73
4
74
0
42
1e-07
43
1e-07
40
0
40
0
40
0
40
0
40
1
40
1
40
1
40
1
10
54.1980522497
20
36.7415511467
30
0
10
54.4412614657
20
36.7415511467
30
0
10
54.6383190017
20
36.7658867627
30
0
10
54.6383190017
20
36.7957378987
30
0
0
SPLINE
5
1F6
100
AcDbEntity
8
patchy
6
ByLayer
62
7
370
-1
100
AcDbSpline
210
0
220
0
230
1
70
8
71
3
72
8
73
4
74
0
42
1e-07
43
1e-07
40
0
40
0
40
0
40
0
40
1
40
1
40
1
40
1
10
54.6383190017
20
36.7957378987
30
0
10
54.6383190017
20
36.8255890347
30
0
10
54.7206140417
20
36.8684723627
30
0
10
54.8211990017
20
36.8905646507
30
0
0
SPLINE
5
1F7
100
AcDbEntity
8
patchy
6
ByLayer
62
7
370
-1
100
AcDbSpline
210
0
220
0
230
1
70
8
71
3
72
8
73
4
74
0
42
1e-07
43
1e-07
40
0
40
0
40
0
40
0
40
1
40
1
40
1
40
1
10
54.8211990017
20
36.8905646507
30
0
10
54.9217844737
20
36.9126566827
30
0
10
55.0490479617
20
36.9748421547
30
0
10
55.1034210817
20
37.0282890667
30
0
0
SPLINE
5
1F8
100
AcDbEntity
8
patchy
6
ByLayer
62
7
370
-1
100
AcDbSpline
210
0
220
0
230
1
70
8
71
3
72
8
73
4
74
0
42
1e-07
43
1e-07
40
0
40
0
40
0
40
0
40
1
40
1
40
1
40
1
10
55.1034210817
20
37.0282890667
30
0
10
55.1577949697
20
37.0817357227
30
0
10
55.2975568897
20
37.1874258347
30
0
10
55.4127366657
20
37.2653555627
30
0
0
SPLINE
5
1F9
100
AcDbEntity
8
patchy
6
ByLayer
62
7
370
-1
100
AcDbSpline
210
0
220
0
230
1
70
8
71
3
72
8
73
4
74
0
42
1e-07
43
1e-07
40
0
40
0
40
0
40
0
40
1
40
1
40
1
40
1
10
55.4127366657
20
37.2653555627
30
0
10
55.5315629057
20
37.3457521067
30
0
10
55.6672715777
20
37.5121203627
30
0
10
55.7265678337
20
37.6491778987
30
0
0
SPLINE
5
1FA
100
AcDbEntity
8
patchy
6
ByLayer
62
7
370
-1
100
AcDbSpline
210
0
220
0
230
1
70
8
71
3
72
8
73
4
74
0
42
1e-07
43
1e-07
40
0
40
0
40
0
40
0
40
1
40
1
40
1
40
1
10
55.7265678337
20
37.6491778987
30
0
10
55.7840439297
20
37.7820298667
30
0
10
55.8562241537
20
37.9055378347
30
0
10
55.8868699137
20
37.9246267307
30
0
0
SPLINE
5
1FB
100
AcDbEntity
8
patchy
6
ByLayer
62
7
370
-1
100
AcDbSpline
210
0
220
0
230
1
70
8
71
3
72
8
73
4
74
0
42
1e-07
43
1e-07
40
0
40
0
40
0
40
0
40
1
40
1
40
1
40
1
10
55.8868699137
20
37.9246267307
30
0
10
55.9897191937
20
37.9886891947
30
0
10
56.1119254017
20
38.5937050027
30
0
10
56.1126478337
20
39.0399690667
30
0
0
SPLINE
5
1FC
100
AcDbEntity
8
patchy
6
ByLayer
62
7
370
-1
100
AcDbSpline
210
0
220
0
230
1
70
8
71
3
72
8
73
4
74
0
42
1e-07
43
1e-07
40
0
40
0
40
0
40
0
40
1
40
1
40
1
40
1
10
56.1126478337
20
39.0399690667
30
0
10
56.1130269697
20
39.2831782827
30
0
10
56.0732302337
20
39.6911690667
30
0
10
56.0245943297
20
39.9453378987
30
0
0
SPLINE
5
1FD
100
AcDbEntity
8
patchy
6
ByLayer
62
7
370
-1
100
AcDbSpline
210
0
220
0
230
1
70
8
71
3
72
8
73
4
74
0
42
1e-07
43
1e-07
40
0
40
0
40
0
40
0
40
1
40
1
40
1
40
1
10
56.0245943297
20
39.9453378987
30
0
10
55.9759579137
20
40.1995064747
30
0
10
55.9365410817
20
40.4984788907
30
0
10
55.9365410817
20
40.6091246507
30
0
0
SPLINE
5
1FE
100
AcDbEntity
8
patchy
6
ByLayer
62
7
370
-1
100
AcDbSpline
210
0
220
0
230
1
70
8
71
3
72
8
73
4
74
0
42
1e-07
43
1e-07
40
0
40
0
40
0
40
0
40
1
40
1
40
1
40
1
10
55.9365410817
20
40.6091246507
30
0
10
55.9365410817
20
40.7197693867
30
0
10
55.9150550017
20
40.8100667307
30
0
10
55.8891278337
20
40.8100667307
30
0
0
SPLINE
5
1FF
100
AcDbEntity
8
patchy
6
ByLayer
62
7
370
-1
100
AcDbSpline
210
0
220
0
230
1
70
8
71
3
72
8
73
4
74
0
42
1e-07
43
1e-07
40
0
40
0
40
0
40
0
40
1
40
1
40
1
40
1
10
55.8891278337
20
40.8100667307
30
0
10
55.8337238017
20
40.8100667307
30
0
10
55.7012263937
20
41.9390618027
30
0
10
55.7017322497
20
42.4040578987
30
0
0
SPLINE
5
200
100
AcDbEntity
8
patchy
6
ByLayer
62
7
370
-1
100
AcDbSpline
210
0
220
0
230
1
70
8
71
3
72
8
73
4
74
0
42
1e-07
43
1e-07
40
0
40
0
40
0
40
0
40
1
40
1
40
1
40
1
10
55.7017322497
20
42.4040578987
30
0
10
55.7020832257
20
42.7471273387
30
0
10
55.7933308417
20
43.1671867307
30
0
10
55.8688078337
20
43.1671867307
30
0
0
SPLINE
5
201
100
AcDbEntity
8
patchy
6
ByLayer
62
7
370
-1
100
AcDbSpline
210
0
220
0
230
1
70
8
71
3
72
8
73
4
74
0
42
1e-07
43
1e-07
40
0
40
0
40
0
40
0
40
1
40
1
40
1
40
1
10
55.8688078337
20
43.1671867307
30
0
10
55.8939301377
20
43.1671867307
30
0
10
55.9761522177
20
43.3008161707
30
0
10
56.0494299137
20
43.4629555627
30
0
0
SPLINE
5
202
100
AcDbEntity
8
patchy
6
ByLayer
62
7
370
-1
100
AcDbSpline
210
0
220
0
230
1
70
8
71
3
72
8
73
4
74
0
42
1e-07
43
1e-07
40
0
40
0
40
0
40
0
40
1
40
1
40
1
40
1
10
56.0494299137
20
43.4629555627
30
0
10
56.1227076097
20
43.6250952107
30
0
10
56.2040454657
20
43.7564667307
30
0
10
56.2323099137
20
43.7564667307
30
0
0
SPLINE
5
203
100
AcDbEntity
8
patchy
6
ByLayer
62
7
370
-1
100
AcDbSpline
210
0
220
0
230
1
70
8
71
3
72
8
73
4
74
0
42
1e-07
43
1e-07
40
0
40
0
40
0
40
0
40
1
40
1
40
1
40
1
10
56.2323099137
20
43.7564667307
30
0
10
56.2605758977
20
43.7564667307
30
0
10
56.3315764737
20
43.8561247147
30
0
10
56.3880966657
20
43.9777290667
30
0
0
SPLINE
5
204
100
AcDbEntity
8
patchy
6
ByLayer
62
7
370
-1
100
AcDbSpline
210
0
220
0
230
1
70
8
71
3
72
8
73
4
74
0
42
1e-07
43
1e-07
40
0
40
0
40
0
40
0
40
1
40
1
40
1
40
1
10
56.3880966657
20
43.9777290667
30
0
10
56.4446168577
20
44.0993331627
30
0
10
56.5216551937
20
44.2183373227
30
0
10
56.5596878337
20
44.2418890667
30
0
0
SPLINE
5
205
100
AcDbEntity
8
patchy
6
ByLayer
62
7
370
-1
100
AcDbSpline
210
0
220
0
230
1
70
8
71
3
72
8
73
4
74
0
42
1e-07
43
1e-07
40
0
40
0
40
0
40
0
40
1
40
1
40
1
40
1
10
56.5596878337
20
44.2418890667
30
0
10
56.5977197057
20
44.2654420907
30
0
10
56.6613131777
20
44.3650993067
30
0
10
56.7019278337
20
44.4631511467
30
0
0
SPLINE
5
206
100
AcDbEntity
8
patchy
6
ByLayer
62
7
370
-1
100
AcDbSpline
210
0
220
0
230
1
70
8
71
3
72
8
73
4
74
0
42
1e-07
43
1e-07
40
0
40
0
40
0
40
0
40
1
40
1
40
1
40
1
10
56.7019278337
20
44.4631511467
30
0
10
56.7425424897
20
44.5612037547
30
0
10
56.7963700737
20
44.6415155627
30
0
10
56.8215899137
20
44.6415155627
30
0
0
SPLINE
5
207
100
AcDbEntity
8
patchy
6
ByLayer
62
7
370
-1
100
AcDbSpline
210
0
220
0
230
1
70
8
71
3
72
8
73
4
74
0
42
1e-07
43
1e-07
40
0
40
0
40
0
40
0
40
1
40
1
40
1
40
1
10
56.8215899137
20
44.6415155627
30
0
10
56.8468100097
20
44.6415155627
30
0
10
56.9246283777
20
44.7493181867
30
0
10
56.9931810817
20
44.8808399787
30
0
0
SPLINE
5
208
100
AcDbEntity
8
patchy
6
ByLayer
62
7
370
-1
100
AcDbSpline
210
0
220
0
230
1
70
8
71
3
72
8
73
4
74
0
42
1e-07
43
1e-07
40
0
40
0
40
0
40
0
40
1
40
1
40
1
40
1
10
56.9931810817
20
44.8808399787
30
0
10
57.0617337857
20
45.0123612587
30
0
10
57.1703302657
20
45.1774390187
30
0
10
57.2347634177
20
45.2465999787
30
0
0
SPLINE
5
209
100
AcDbEntity
8
patchy
6
ByLayer
62
7
370
-1
100
AcDbSpline
210
0
220
0
230
1
70
8
71
3
72
8
73
4
74
0
42
1e-07
43
1e-07
40
0
40
0
40
0
40
0
40
1
40
1
40
1
40
1
10
57.2347634177
20
45.2465999787
30
0
10
57.2991963137
20
45.3157604267
30
0
10
57.3521678337
20
45.4043684267
30
0
10
57.3521678337
20
45.4452846507
30
0
0
SPLINE
5
20A
100
AcDbEntity
8
patchy
6
ByLayer
62
7
370
-1
100
AcDbSpline
210
0
220
0
230
1
70
8
71
3
72
8
73
4
74
0
42
1e-07
43
1e-07
40
0
40
0
40
0
40
0
40
1
40
1
40
1
40
1
10
57.3521678337
20
45.4452846507
30
0
10
57.3521678337
20
45.4862006187
30
0
10
57.3858878977
20
45.5412723627
30
0
10
57.4289322497
20
45.5672046507
30
0
0
SPLINE
5
20B
100
AcDbEntity
8
patchy
6
ByLayer
62
7
370
-1
100
AcDbSpline
210
0
220
0
230
1
70
8
71
3
72
8
73
4
74
0
42
1e-07
43
1e-07
40
0
40
0
40
0
40
0
40
1
40
1
40
1
40
1
10
57.4289322497
20
45.5672046507
30
0
10
57.4719766017
20
45.5931369387
30
0
10
57.5716338177
20
45.7351101867
30
0
10
57.6501943297
20
45.8810355627
30
0
0
SPLINE
5
20C
100
AcDbEntity
8
patchy
6
ByLayer
62
7
370
-1
100
AcDbSpline
210
0
220
0
230
1
70
8
71
3
72
8
73
4
74
0
42
1e-07
43
1e-07
40
0
40
0
40
0
40
0
40
1
40
1
40
1
40
1
10
57.6501943297
20
45.8810355627
30
0
10
57.7287543297
20
46.0269609387
30
0
10
57.8238857217
20
46.1645417387
30
0
10
57.8601678337
20
46.1880934827
30
0
0
SPLINE
5
20D
100
AcDbEntity
8
patchy
6
ByLayer
62
7
370
-1
100
AcDbSpline
210
0
220
0
230
1
70
8
71
3
72
8
73
4
74
0
42
1e-07
43
1e-07
40
0
40
0
40
0
40
0
40
1
40
1
40
1
40
1
10
57.8601678337
20
46.1880934827
30
0
10
57.8964504577
20
46.2116465067
30
0
10
57.9595352577
20
46.3113037227
30
0
10
58.0001499137
20
46.4093555627
30
0
0
SPLINE
5
20E
100
AcDbEntity
8
patchy
6
ByLayer
62
7
370
-1
100
AcDbSpline
210
0
220
0
230
1
70
8
71
3
72
8
73
4
74
0
42
1e-07
43
1e-07
40
0
40
0
40
0
40
0
40
1
40
1
40
1
40
1
10
58.0001499137
20
46.4093555627
30
0
10
58.0407648257
20
46.5074081707
30
0
10
58.0944910337
20
46.5877199787
30
0
10
58.1198122497
20
46.5877199787
30
0
0
SPLINE
5
20F
100
AcDbEntity
8
patchy
6
ByLayer
62
7
370
-1
100
AcDbSpline
210
0
220
0
230
1
70
8
71
3
72
8
73
4
74
0
42
1e-07
43
1e-07
40
0
40
0
40
0
40
0
40
1
40
1
40
1
40
1
10
58.1198122497
20
46.5877199787
30
0
10
58.1451339777
20
46.5877199787
30
0
10
58.1938428417
20
46.6675681707
30
0
10
58.2281854977
20
46.7660846507
30
0
0
SPLINE
5
210
100
AcDbEntity
8
patchy
6
ByLayer
62
7
370
-1
100
AcDbSpline
210
0
220
0
230
1
70
8
71
3
72
8
73
4
74
0
42
1e-07
43
1e-07
40
0
40
0
40
0
40
0
40
1
40
1
40
1
40
1
10
58.2281854977
20
46.7660846507
30
0
10
58.3136444417
20
47.0112307627
30
0
10
58.2281494017
20
47.1740610987
30
0
10
57.9233854977
20
47.3485911467
30
0
0
SPLINE
5
211
100
AcDbEntity
8
patchy
6
ByLayer
62
7
370
-1
100
AcDbSpline
210
0
220
0
230
1
70
8
71
3
72
8
73
4
74
0
42
1e-07
43
1e-07
40
0
40
0
40
0
40
0
40
1
40
1
40
1
40
1
10
57.9233854977
20
47.3485911467
30
0
10
57.7871704577
20
47.4265989547
30
0
10
57.6406388737
20
47.5395940267
30
0
10
57.5982654977
20
47.5992046507
30
0
0
SPLINE
5
212
100
AcDbEntity
8
patchy
6
ByLayer
62
7
370
-1
100
AcDbSpline
210
0
220
0
230
1
70
8
71
3
72
8
73
4
74
0
42
1e-07
43
1e-07
40
0
40
0
40
0
40
0
40
1
40
1
40
1
40
1
10
57.5982654977
20
47.5992046507
30
0
10
57.5558916097
20
47.6588150187
30
0
10
57.4835262977
20
47.7075778987
30
0
10
57.4357054977
20
47.7075778987
30
0
0
SPLINE
5
213
100
AcDbEntity
8
patchy
6
ByLayer
62
7
370
-1
100
AcDbSpline
210
0
220
0
230
1
70
8
71
3
72
8
73
4
74
0
42
1e-07
43
1e-07
40
0
40
0
40
0
40
0
40
1
40
1
40
1
40
1
10
57.4357054977
20
47.7075778987
30
0
10
57.3878846977
20
47.7075778987
30
0
10
57.3340059137
20
47.7465633707
30
0
10
57.3160434177
20
47.7933734827
30
0
0
SPLINE
5
214
100
AcDbEntity
8
patchy
6
ByLayer
62
7
370
-1
100
AcDbSpline
210
0
220
0
230
1
70
8
71
3
72
8
73
4
74
0
42
1e-07
43
1e-07
40
0
40
0
40
0
40
0
40
1
40
1
40
1
40
1
10
57.3160434177
20
47.7933734827
30
0
10
57.2980801537
20
47.8401828267
30
0
10
57.1799993857
20
47.9309722027
30
0
10
57.0541410817
20
47.9965734827
30
0
0
SPLINE
5
215
100
AcDbEntity
8
patchy
6
ByLayer
62
7
370
-1
100
AcDbSpline
210
0
220
0
230
1
70
8
71
3
72
8
73
4
74
0
42
1e-07
43
1e-07
40
0
40
0
40
0
40
0
40
1
40
1
40
1
40
1
10
57.0541410817
20
47.9965734827
30
0
10
56.8362710017
20
48.1101343147
30
0
10
56.7524261377
20
48.1733911467
30
0
10
56.4513143297
20
48.4458711467
30
0
0
SPLINE
5
216
100
AcDbEntity
8
patchy
6
ByLayer
62
7
370
-1
100
AcDbSpline
210
0
220
0
230
1
70
8
71
3
72
8
73
4
74
0
42
1e-07
43
1e-07
40
0
40
0
40
0
40
0
40
1
40
1
40
1
40
1
10
56.4513143297
20
48.4458711467
30
0
10
56.3791428097
20
48.5111805867
30
0
10
56.2469794817
20
48.6012518827
30
0
10
56.1578034177
20
48.6468134827
30
0
0
SPLINE
5
217
100
AcDbEntity
8
patchy
6
ByLayer
62
7
370
-1
100
AcDbSpline
210
0
220
0
230
1
70
8
71
3
72
8
73
4
74
0
42
1e-07
43
1e-07
40
0
40
0
40
0
40
0
40
1
40
1
40
1
40
1
10
56.1578034177
20
48.6468134827
30
0
10
56.0686265857
20
48.6923750827
30
0
10
55.9952434177
20
48.7516488107
30
0
10
55.9952434177
20
48.7777646507
30
0
0
SPLINE
5
218
100
AcDbEntity
8
patchy
6
ByLayer
62
7
370
-1
100
AcDbSpline
210
0
220
0
230
1
70
8
71
3
72
8
73
4
74
0
42
1e-07
43
1e-07
40
0
40
0
40
0
40
0
40
1
40
1
40
1
40
1
10
55.9952434177
20
48.7777646507
30
0
10
55.9952434177
20
48.8038802347
30
0
10
55.9218602497
20
48.8625515947
30
0
10
55.8326834177
20
48.9087155627
30
0
0
SPLINE
5
219
100
AcDbEntity
8
patchy
6
ByLayer
62
7
370
-1
100
AcDbSpline
210
0
220
0
230
1
70
8
71
3
72
8
73
4
74
0
42
1e-07
43
1e-07
40
0
40
0
40
0
40
0
40
1
40
1
40
1
40
1
10
55.8326834177
20
48.9087155627
30
0
10
55.7435065857
20
48.9548797867
30
0
10
55.5781636097
20
49.0750571947
30
0
10
55.4646654977
20
49.1751334827
30
0
0
SPLINE
5
21A
100
AcDbEntity
8
patchy
6
ByLayer
62
7
370
-1
100
AcDbSpline
210
0
220
0
230
1
70
8
71
3
72
8
73
4
74
0
42
1e-07
43
1e-07
40
0
40
0
40
0
40
0
40
1
40
1
40
1
40
1
10
55.4646654977
20
49.1751334827
30
0
10
55.3511676417
20
49.2752090027
30
0
10
55.2309822977
20
49.3575076267
30
0
10
55.1982478337
20
49.3580134827
30
0
0
SPLINE
5
21B
100
AcDbEntity
8
patchy
6
ByLayer
62
7
370
-1
100
AcDbSpline
210
0
220
0
230
1
70
8
71
3
72
8
73
4
74
0
42
1e-07
43
1e-07
40
0
40
0
40
0
40
0
40
1
40
1
40
1
40
1
10
55.1982478337
20
49.3580134827
30
0
10
55.1655138817
20
49.3585306027
30
0
10
55.1055415297
20
49.4128200107
30
0
10
55.0650390017
20
49.4776755627
30
0
0
SPLINE
5
21C
100
AcDbEntity
8
patchy
6
ByLayer
62
7
370
-1
100
AcDbSpline
210
0
220
0
230
1
70
8
71
3
72
8
73
4
74
0
42
1e-07
43
1e-07
40
0
40
0
40
0
40
0
40
1
40
1
40
1
40
1
10
55.0650390017
20
49.4776755627
30
0
10
55.0245354497
20
49.5425313707
30
0
10
54.9585432577
20
49.5950208427
30
0
10
54.9182834177
20
49.5950799787
30
0
0
SPLINE
5
21D
100
AcDbEntity
8
patchy
6
ByLayer
62
7
370
-1
100
AcDbSpline
210
0
220
0
230
1
70
8
71
3
72
8
73
4
74
0
42
1e-07
43
1e-07
40
0
40
0
40
0
40
0
40
1
40
1
40
1
40
1
10
54.9182834177
20
49.5950799787
30
0
10
54.8780225537
20
49.5951560107
30
0
10
54.7518160897
20
49.6738227627
30
0
10
54.6383190017
20
49.7711867307
30
0
0
SPLINE
5
21E
100
AcDbEntity
8
patchy
6
ByLayer
62
7
370
-1
100
AcDbSpline
210
0
220
0
230
1
70
8
71
3
72
8
73
4
74
0
42
1e-07
43
1e-07
40
0
40
0
40
0
40
0
40
1
40
1
40
1
40
1
10
54.6383190017
20
49.7711867307
30
0
10
54.5248208897
20
49.8685506987
30
0
10
54.3857519617
20
49.9629171627
30
0
10
54.3290034177
20
49.9811599787
30
0
0
SPLINE
5
21F
100
AcDbEntity
8
patchy
6
ByLayer
62
7
370
-1
100
AcDbSpline
210
0
220
0
230
1
70
8
71
3
72
8
73
4
74
0
42
1e-07
43
1e-07
40
0
40
0
40
0
40
0
40
1
40
1
40
1
40
1
10
54.3290034177
20
49.9811599787
30
0
10
54.2722541057
20
49.9994035627
30
0
10
54.2274034177
20
50.0370995627
30
0
10
54.2274034177
20
50.0646978987
30
0
0
SPLINE
5
220
100
AcDbEntity
8
patchy
6
ByLayer
62
7
370
-1
100
AcDbSpline
210
0
220
0
230
1
70
8
71
3
72
8
73
4
74
0
42
1e-07
43
1e-07
40
0
40
0
40
0
40
0
40
1
40
1
40
1
40
1
10
54.2274034177
20
50.0646978987
30
0
10
54.2274034177
20
50.0922954667
30
0
10
54.1288203777
20
50.1754107307
30
0
10
54.0083990017
20
50.2498355627
30
0
0
SPLINE
5
221
100
AcDbEntity
8
patchy
6
ByLayer
62
7
370
-1
100
AcDbSpline
210
0
220
0
230
1
70
8
71
3
72
8
73
4
74
0
42
1e-07
43
1e-07
40
0
40
0
40
0
40
0
40
1
40
1
40
1
40
1
10
54.0083990017
20
50.2498355627
30
0
10
53.8879773697
20
50.3242598827
30
0
10
53.7412110337
20
50.4280453547
30
0
10
53.6832790017
20
50.4778711467
30
0
0
SPLINE
5
222
100
AcDbEntity
8
patchy
6
ByLayer
62
7
370
-1
100
AcDbSpline
210
0
220
0
230
1
70
8
71
3
72
8
73
4
74
0
42
1e-07
43
1e-07
40
0
40
0
40
0
40
0
40
1
40
1
40
1
40
1
10
53.6832790017
20
50.4778711467
30
0
10
53.3556077057
20
50.7596874667
30
0
10
53.1821807617
20
50.8793503147
30
0
10
53.0330390017
20
50.9294267307
30
0
0
SPLINE
5
223
100
AcDbEntity
8
patchy
6
ByLayer
62
7
370
-1
100
AcDbSpline
210
0
220
0
230
1
70
8
71
3
72
8
73
4
74
0
42
1e-07
43
1e-07
40
0
40
0
40
0
40
0
40
1
40
1
40
1
40
1
10
53.0330390017
20
50.9294267307
30
0
10
52.9762902017
20
50.9484815787
30
0
10
52.9291810817
20
50.9852331947
30
0
10
52.9291810817
20
51.0107067307
30
0
0
SPLINE
5
224
100
AcDbEntity
8
patchy
6
ByLayer
62
7
370
-1
100
AcDbSpline
210
0
220
0
230
1
70
8
71
3
72
8
73
4
74
0
42
1e-07
43
1e-07
40
0
40
0
40
0
40
0
40
1
40
1
40
1
40
1
10
52.9291810817
20
51.0107067307
30
0
10
52.9291810817
20
51.0361802667
30
0
10
52.8503581697
20
51.0851663787
30
0
10
52.7530743297
20
51.1190799787
30
0
0
SPLINE
5
225
100
AcDbEntity
8
patchy
6
ByLayer
62
7
370
-1
100
AcDbSpline
210
0
220
0
230
1
70
8
71
3
72
8
73
4
74
0
42
1e-07
43
1e-07
40
0
40
0
40
0
40
0
40
1
40
1
40
1
40
1
10
52.7530743297
20
51.1190799787
30
0
10
52.6557904897
20
51.1529938347
30
0
10
52.5735755777
20
51.2145830827
30
0
10
52.5701943297
20
51.2568046507
30
0
0
SPLINE
5
226
100
AcDbEntity
8
patchy
6
ByLayer
62
7
370
-1
100
AcDbSpline
210
0
220
0
230
1
70
8
71
3
72
8
73
4
74
0
42
1e-07
43
1e-07
40
0
40
0
40
0
40
0
40
1
40
1
40
1
40
1
10
52.5701943297
20
51.2568046507
30
0
10
52.5668182017
20
51.2990259627
30
0
10
52.5578471937
20
51.7059246507
30
0
10
52.5521322497
20
52.1599155627
30
0
0
SPLINE
5
227
100
AcDbEntity
8
patchy
6
ByLayer
62
7
370
-1
100
AcDbSpline
210
0
220
0
230
1
70
8
71
3
72
8
73
4
74
0
42
1e-07
43
1e-07
40
0
40
0
40
0
40
0
40
1
40
1
40
1
40
1
10
52.5521322497
20
52.1599155627
30
0
10
52.5403867137
20
53.0932672427
30
0
10
52.4227769857
20
54.2729897387
30
0
10
52.3376434177
20
54.3025467307
30
0
0
SPLINE
5
228
100
AcDbEntity
8
patchy
6
ByLayer
62
7
370
-1
100
AcDbSpline
210
0
220
0
230
1
70
8
71
3
72
8
73
4
74
0
42
1e-07
43
1e-07
40
0
40
0
40
0
40
0
40
1
40
1
40
1
40
1
10
52.3376434177
20
54.3025467307
30
0
10
52.2699280897
20
54.3260572587
30
0
10
52.2598537217
20
54.7056407467
30
0
10
52.3263543297
20
54.7337823147
30
0
0
SPLINE
5
229
100
AcDbEntity
8
patchy
6
ByLayer
62
7
370
-1
100
AcDbSpline
210
0
220
0
230
1
70
8
71
3
72
8
73
4
74
0
42
1e-07
43
1e-07
40
0
40
0
40
0
40
0
40
1
40
1
40
1
40
1
10
52.3263543297
20
54.7337823147
30
0
10
52.3831753217
20
54.7578281387
30
0
10
52.6356699137
20
55.3579599787
30
0
10
52.6356699137
20
55.4698178987
30
0
0
SPLINE
5
22A
100
AcDbEntity
8
patchy
6
ByLayer
62
7
370
-1
100
AcDbSpline
210
0
220
0
230
1
70
8
71
3
72
8
73
4
74
0
42
1e-07
43
1e-07
40
0
40
0
40
0
40
0
40
1
40
1
40
1
40
1
10
52.6356699137
20
55.4698178987
30
0
10
52.6356699137
20
55.5141353387
30
0
10
52.6568966657
20
55.5488399787
30
0
10
52.6830834177
20
55.5488399787
30
0
0
SPLINE
5
22B
100
AcDbEntity
8
patchy
6
ByLayer
62
7
370
-1
100
AcDbSpline
210
0
220
0
230
1
70
8
71
3
72
8
73
4
74
0
42
1e-07
43
1e-07
40
0
40
0
40
0
40
0
40
1
40
1
40
1
40
1
10
52.6830834177
20
55.5488399787
30
0
10
52.7092714497
20
55.5488399787
30
0
10
52.7787667457
20
55.6616351147
30
0
10
52.8388699137
20
55.7994534827
30
0
0
SPLINE
5
22C
100
AcDbEntity
8
patchy
6
ByLayer
62
7
370
-1
100
AcDbSpline
210
0
220
0
230
1
70
8
71
3
72
8
73
4
74
0
42
1e-07
43
1e-07
40
0
40
0
40
0
40
0
40
1
40
1
40
1
40
1
10
52.8388699137
20
55.7994534827
30
0
10
52.8989746177
20
55.9372718507
30
0
10
52.9718788097
20
56.0666145707
30
0
10
53.0014299137
20
56.0861911467
30
0
0
SPLINE
5
22D
100
AcDbEntity
8
patchy
6
ByLayer
62
7
370
-1
100
AcDbSpline
210
0
220
0
230
1
70
8
71
3
72
8
73
4
74
0
42
1e-07
43
1e-07
40
0
40
0
40
0
40
0
40
1
40
1
40
1
40
1
10
53.0014299137
20
56.0861911467
30
0
10
53.0802968577
20
56.1384379307
30
0
10
53.1666863617
20
56.5622861227
30
0
10
53.1256078337
20
56.6957911467
30
0
0
SPLINE
5
22E
100
AcDbEntity
8
patchy
6
ByLayer
62
7
370
-1
100
AcDbSpline
210
0
220
0
230
1
70
8
71
3
72
8
73
4
74
0
42
1e-07
43
1e-07
40
0
40
0
40
0
40
0
40
1
40
1
40
1
40
1
10
53.1256078337
20
56.6957911467
30
0
10
53.1061482497
20
56.7590364587
30
0
10
52.9712697857
20
56.9233743787
30
0
10
52.8253234177
20
57.0592934827
30
0
0
SPLINE
5
22F
100
AcDbEntity
8
patchy
6
ByLayer
62
7
370
-1
100
AcDbSpline
210
0
220
0
230
1
70
8
71
3
72
8
73
4
74
0
42
1e-07
43
1e-07
40
0
40
0
40
0
40
0
40
1
40
1
40
1
40
1
10
52.8253234177
20
57.0592934827
30
0
10
52.5768818177
20
57.2906662827
30
0
10
52.5632802817
20
57.3190461867
30
0
10
52.6018034177
20
57.5243955627
30
0
0
SPLINE
5
230
100
AcDbEntity
8
patchy
6
ByLayer
62
7
370
-1
100
AcDbSpline
210
0
220
0
230
1
70
8
71
3
72
8
73
4
74
0
42
1e-07
43
1e-07
40
0
40
0
40
0
40
0
40
1
40
1
40
1
40
1
10
52.6018034177
20
57.5243955627
30
0
10
52.6602295297
20
57.8358331307
30
0
10
52.8562919937
20
58.0028155307
30
0
10
53.3062299137
20
58.1227067307
30
0
0
SPLINE
5
231
100
AcDbEntity
8
patchy
6
ByLayer
62
7
370
-1
100
AcDbSpline
210
0
220
0
230
1
70
8
71
3
72
8
73
4
74
0
42
1e-07
43
1e-07
40
0
40
0
40
0
40
0
40
1
40
1
40
1
40
1
10
53.3062299137
20
58.1227067307
30
0
10
53.5200318977
20
58.1796772267
30
0
10
53.6968254977
20
58.2483315627
30
0
10
53.6968254977
20
58.2739778987
30
0
0
SPLINE
5
232
100
AcDbEntity
8
patchy
6
ByLayer
62
7
370
-1
100
AcDbSpline
210
0
220
0
230
1
70
8
71
3
72
8
73
4
74
0
42
1e-07
43
1e-07
40
0
40
0
40
0
40
0
40
1
40
1
40
1
40
1
10
53.6968254977
20
58.2739778987
30
0
10
53.6968254977
20
58.2996247467
30
0
10
53.7362372097
20
58.3213911467
30
0
10
53.7848790017
20
58.3213911467
30
0
0
SPLINE
5
233
100
AcDbEntity
8
patchy
6
ByLayer
62
7
370
-1
100
AcDbSpline
210
0
220
0
230
1
70
8
71
3
72
8
73
4
74
0
42
1e-07
43
1e-07
40
0
40
0
40
0
40
0
40
1
40
1
40
1
40
1
10
53.7848790017
20
58.3213911467
30
0
10
53.8936185857
20
58.3213911467
30
0
10
53.8931618817
20
58.4554555307
30
0
10
53.7848790017
20
58.7593999787
30
0
0
SPLINE
5
234
100
AcDbEntity
8
patchy
6
ByLayer
62
7
370
-1
100
AcDbSpline
210
0
220
0
230
1
70
8
71
3
72
8
73
4
74
0
42
1e-07
43
1e-07
40
0
40
0
40
0
40
0
40
1
40
1
40
1
40
1
10
53.7848790017
20
58.7593999787
30
0
10
53.6940801537
20
59.0142674347
30
0
10
53.7110772737
20
59.0862034347
30
0
10
53.8616434177
20
59.0890355627
30
0
0
SPLINE
5
235
100
AcDbEntity
8
patchy
6
ByLayer
62
7
370
-1
100
AcDbSpline
210
0
220
0
230
1
70
8
71
3
72
8
73
4
74
0
42
1e-07
43
1e-07
40
0
40
0
40
0
40
0
40
1
40
1
40
1
40
1
10
53.8616434177
20
59.0890355627
30
0
10
54.0120864257
20
59.0918648747
30
0
10
54.1687010817
20
59.2333883307
30
0
10
54.1687010817
20
59.3667423147
30
0
0
SPLINE
5
236
100
AcDbEntity
8
patchy
6
ByLayer
62
7
370
-1
100
AcDbSpline
210
0
220
0
230
1
70
8
71
3
72
8
73
4
74
0
42
1e-07
43
1e-07
40
0
40
0
40
0
40
0
40
1
40
1
40
1
40
1
10
54.1687010817
20
59.3667423147
30
0
10
54.1687010817
20
59.4746150827
30
0
10
54.0304254977
20
59.6316170667
30
0
10
53.5613590017
20
60.0576223147
30
0
0
SPLINE
5
237
100
AcDbEntity
8
patchy
6
ByLayer
62
7
370
-1
100
AcDbSpline
210
0
220
0
230
1
70
8
71
3
72
8
73
4
74
0
42
1e-07
43
1e-07
40
0
40
0
40
0
40
0
40
1
40
1
40
1
40
1
10
53.5613590017
20
60.0576223147
30
0
10
53.4705117697
20
60.1401298347
30
0
10
53.3749229057
20
60.2066355627
30
0
10
53.3491278337
20
60.2066355627
30
0
0
SPLINE
5
238
100
AcDbEntity
8
patchy
6
ByLayer
62
7
370
-1
100
AcDbSpline
210
0
220
0
230
1
70
8
71
3
72
8
73
4
74
0
42
1e-07
43
1e-07
40
0
40
0
40
0
40
0
40
1
40
1
40
1
40
1
10
53.3491278337
20
60.2066355627
30
0
10
53.3233319937
20
60.2066355627
30
0
10
53.2414941697
20
60.2584794027
30
0
10
53.1685054977
20
60.3217823147
30
0
0
SPLINE
5
239
100
AcDbEntity
8
patchy
6
ByLayer
62
7
370
-1
100
AcDbSpline
210
0
220
0
230
1
70
8
71
3
72
8
73
4
74
0
42
1e-07
43
1e-07
40
0
40
0
40
0
40
0
40
1
40
1
40
1
40
1
10
53.1685054977
20
60.3217823147
30
0
10
53.0955160577
20
60.3850854827
30
0
10
52.9013487617
20
60.4817728427
30
0
10
52.7372699137
20
60.5362711467
30
0
0
SPLINE
5
23A
100
AcDbEntity
8
patchy
6
ByLayer
62
7
370
-1
100
AcDbSpline
210
0
220
0
230
1
70
8
71
3
72
8
73
4
74
0
42
1e-07
43
1e-07
40
0
40
0
40
0
40
0
40
1
40
1
40
1
40
1
10
52.7372699137
20
60.5362711467
30
0
10
52.4224144897
20
60.6408494507
30
0
10
52.1050922497
20
60.8804534187
30
0
10
52.1050922497
20
61.0126623147
30
0
0
SPLINE
5
23B
100
AcDbEntity
8
patchy
6
ByLayer
62
7
370
-1
100
AcDbSpline
210
0
220
0
230
1
70
8
71
3
72
8
73
4
74
0
42
1e-07
43
1e-07
40
0
40
0
40
0
40
0
40
1
40
1
40
1
40
1
10
52.1050922497
20
61.0126623147
30
0
10
52.1050922497
20
61.0559439787
30
0
10
52.0781592577
20
61.0916846507
30
0
10
52.0463899137
20
61.0916846507
30
0
0
SPLINE
5
23C
100
AcDbEntity
8
patchy
6
ByLayer
62
7
370
-1
100
AcDbSpline
210
0
220
0
230
1
70
8
71
3
72
8
73
4
74
0
42
1e-07
43
1e-07
40
0
40
0
40
0
40
0
40
1
40
1
40
1
40
1
10
52.0463899137
20
61.0916846507
30
0
10
52.0146213377
20
61.0916846507
30
0
10
51.9341997057
20
61.1967818667
30
0
10
51.8680254977
20
61.3264934827
30
0
0
SPLINE
5
23D
100
AcDbEntity
8
patchy
6
ByLayer
62
7
370
-1
100
AcDbSpline
210
0
220
0
230
1
70
8
71
3
72
8
73
4
74
0
42
1e-07
43
1e-07
40
0
40
0
40
0
40
0
40
1
40
1
40
1
40
1
10
51.8680254977
20
61.3264934827
30
0
10
51.8018512897
20
61.4562050987
30
0
10
51.7237605377
20
61.5635599787
30
0
10
51.6941766657
20
61.5635599787
30
0
0
SPLINE
5
23E
100
AcDbEntity
8
patchy
6
ByLayer
62
7
370
-1
100
AcDbSpline
210
0
220
0
230
1
70
8
71
3
72
8
73
4
74
0
42
1e-07
43
1e-07
40
0
40
0
40
0
40
0
40
1
40
1
40
1
40
1
10
51.6941766657
20
61.5635599787
30
0
10
51.6645935617
20
61.5635599787
30
0
10
51.6253574657
20
61.6135903147
30
0
10
51.6061234177
20
61.6741911467
30
0
0
SPLINE
5
23F
100
AcDbEntity
8
patchy
6
ByLayer
62
7
370
-1
100
AcDbSpline
210
0
220
0
230
1
70
8
71
3
72
8
73
4
74
0
42
1e-07
43
1e-07
40
0
40
0
40
0
40
0
40
1
40
1
40
1
40
1
10
51.6061234177
20
61.6741911467
30
0
10
51.5602942977
20
61.8185851307
30
0
10
50.6486708737
20
62.7279160747
30
0
10
50.5043278337
20
62.7737290667
30
0
0
SPLINE
5
240
100
AcDbEntity
8
patchy
6
ByLayer
62
7
370
-1
100
AcDbSpline
210
0
220
0
230
1
70
8
71
3
72
8
73
4
74
0
42
1e-07
43
1e-07
40
0
40
0
40
0
40
0
40
1
40
1
40
1
40
1
10
50.5043278337
20
62.7737290667
30
0
10
50.3624910337
20
62.8187461547
30
0
10
50.2317515777
20
63.0705434027
30
0
10
50.1792078337
20
63.3991334827
30
0
0
SPLINE
5
241
100
AcDbEntity
8
patchy
6
ByLayer
62
7
370
-1
100
AcDbSpline
210
0
220
0
230
1
70
8
71
3
72
8
73
4
74
0
42
1e-07
43
1e-07
40
0
40
0
40
0
40
0
40
1
40
1
40
1
40
1
10
50.1792078337
20
63.3991334827
30
0
10
50.1566921217
20
63.5399396267
30
0
10
50.1028133377
20
63.6900170667
30
0
10
50.0595454977
20
63.7332846507
30
0
0
SPLINE
5
242
100
AcDbEntity
8
patchy
6
ByLayer
62
7
370
-1
100
AcDbSpline
210
0
220
0
230
1
70
8
71
3
72
8
73
4
74
0
42
1e-07
43
1e-07
40
0
40
0
40
0
40
0
40
1
40
1
40
1
40
1
10
50.0595454977
20
63.7332846507
30
0
10
50.0162779137
20
63.7765519787
30
0
10
49.9805630977
20
63.8440791467
30
0
10
49.9805234177
20
63.8822978987
30
0
0
SPLINE
5
243
100
AcDbEntity
8
patchy
6
ByLayer
62
7
370
-1
100
AcDbSpline
210
0
220
0
230
1
70
8
71
3
72
8
73
4
74
0
42
1e-07
43
1e-07
40
0
40
0
40
0
40
0
40
1
40
1
40
1
40
1
10
49.9805234177
20
63.8822978987
30
0
10
49.9804834817
20
63.9205163947
30
0
10
49.9113767937
20
64.0311119787
30
0
10
49.8269943297
20
64.1283955627
30
0
0
SPLINE
5
244
100
AcDbEntity
8
patchy
6
ByLayer
62
7
370
-1
100
AcDbSpline
210
0
220
0
230
1
70
8
71
3
72
8
73
4
74
0
42
1e-07
43
1e-07
40
0
40
0
40
0
40
0
40
1
40
1
40
1
40
1
10
49.8269943297
20
64.1283955627
30
0
10
49.7426121217
20
64.2256794027
30
0
10
49.6297773057
20
64.3594744747
30
0
10
49.5763810817
20
64.4264223147
30
0
0
SPLINE
5
245
100
AcDbEntity
8
patchy
6
ByLayer
62
7
370
-1
100
AcDbSpline
210
0
220
0
230
1
70
8
71
3
72
8
73
4
74
0
42
1e-07
43
1e-07
40
0
40
0
40
0
40
0
40
1
40
1
40
1
40
1
10
49.5763810817
20
64.4264223147
30
0
10
49.5229848577
20
64.4933701547
30
0
10
49.4004737537
20
64.5992458667
30
0
10
49.3031899137
20
64.6612311467
30
0
0
SPLINE
5
246
100
AcDbEntity
8
patchy
6
ByLayer
62
7
370
-1
100
AcDbSpline
210
0
220
0
230
1
70
8
71
3
72
8
73
4
74
0
42
1e-07
43
1e-07
40
0
40
0
40
0
40
0
40
1
40
1
40
1
40
1
10
49.3031899137
20
64.6612311467
30
0
10
49.2059060737
20
64.7232164267
30
0
10
49.1059844097
20
64.8038920107
30
0
10
49.0819278337
20
64.8418534827
30
0
0
SPLINE
5
247
100
AcDbEntity
8
patchy
6
ByLayer
62
7
370
-1
100
AcDbSpline
210
0
220
0
230
1
70
8
71
3
72
8
73
4
74
0
42
1e-07
43
1e-07
40
0
40
0
40
0
40
0
40
1
40
1
40
1
40
1
10
49.0819278337
20
64.8418534827
30
0
10
49.0578717697
20
64.8798149547
30
0
10
48.9056651777
20
64.9595604907
30
0
10
48.7432610817
20
65.0179599787
30
0
0
SPLINE
5
248
100
AcDbEntity
8
patchy
6
ByLayer
62
7
370
-1
100
AcDbSpline
210
0
220
0
230
1
70
8
71
3
72
8
73
4
74
0
42
1e-07
43
1e-07
40
0
40
0
40
0
40
0
40
1
40
1
40
1
40
1
10
48.7432610817
20
65.0179599787
30
0
10
48.5808572417
20
65.0763597227
30
0
10
48.4474922497
20
65.1435576747
30
0
10
48.4474922497
20
65.1669734827
30
0
0
SPLINE
5
249
100
AcDbEntity
8
patchy
6
ByLayer
62
7
370
-1
100
AcDbSpline
210
0
220
0
230
1
70
8
71
3
72
8
73
4
74
0
42
1e-07
43
1e-07
40
0
40
0
40
0
40
0
40
1
40
1
40
1
40
1
10
48.4474922497
20
65.1669734827
30
0
10
48.4474922497
20
65.1903892907
30
0
10
48.3084233217
20
65.2554414507
30
0
10
48.1381766657
20
65.3114711467
30
0
0
SPLINE
5
24A
100
AcDbEntity
8
patchy
6
ByLayer
62
7
370
-1
100
AcDbSpline
210
0
220
0
230
1
70
8
71
3
72
8
73
4
74
0
42
1e-07
43
1e-07
40
0
40
0
40
0
40
0
40
1
40
1
40
1
40
1
10
48.1381766657
20
65.3114711467
30
0
10
47.9679300097
20
65.3675008427
30
0
10
47.8157234177
20
65.4299092907
30
0
10
47.7995099137
20
65.4514534827
30
0
0
SPLINE
5
24B
100
AcDbEntity
8
patchy
6
ByLayer
62
7
370
-1
100
AcDbSpline
210
0
220
0
230
1
70
8
71
3
72
8
73
4
74
0
42
1e-07
43
1e-07
40
0
40
0
40
0
40
0
40
1
40
1
40
1
40
1
10
47.7995099137
20
65.4514534827
30
0
10
47.7832958977
20
65.4729974187
30
0
10
47.6203869697
20
65.5239524267
30
0
10
47.4360078337
20
65.5643423147
30
0
0
SPLINE
5
24C
100
AcDbEntity
8
patchy
6
ByLayer
62
7
370
-1
100
AcDbSpline
210
0
220
0
230
1
70
8
71
3
72
8
73
4
74
0
42
1e-07
43
1e-07
40
0
40
0
40
0
40
0
40
1
40
1
40
1
40
1
10
47.4360078337
20
65.5643423147
30
0
10
47.3143456257
20
65.5909934507
30
0
10
47.1802561537
20
65.6044449707
30
0
10
47.0589590017
20
65.6049823147
30
0
0
LWPOLYLINE
5
24D
100
AcDbEntity
8
patchy
6
ByLayer
62
7
370
-1
100
AcDbPolyline
90
5
70
0
43
0
10
37.7027278337
20
16.3696223147
10
37.6756343297
20
16.2228667307
10
46.3342122497
20
16.2228667307
10
54.9927899137
20
16.2228667307
10
54.9927899137
20
16.4305823147
0
LWPOLYLINE
5
24E
100
AcDbEntity
8
patchy
6
ByLayer
62
7
370
-1
100
AcDbPolyline
90
2
70
0
43
0
10
47.0589590017
20
65.6049823147
10
47.0589590017
20
65.6049823147
0
ENDSEC
0
SECTION
2
OBJECTS
0
DICTIONARY
5
C
330
0
100
AcDbDictionary
281
1
3
ACAD_GROUP
350
D
0
DICTIONARY
5
D
330
C
100
AcDbDictionary
281
1
0
ENDSEC
0
EOF
