999
dxfrw 0.5.10
0
SECTION
2
HEADER
9
$ACADVER
1
AC1021
9
$HANDSEED
5
20000
9
$DWGCODEPAGE
3
ANSI_1252
9
$INSBASE
10
0
20
0
30
0
9
$EXTMIN
10
2.5
20
2.5
30
0
9
$EXTMAX
10
77.5
20
77.5
30
0
9
$LIMMIN
10
0
20
0
9
$LIMMAX
10
420
20
297
9
$ORTHOMODE
70
0
9
$LTSCALE
40
1
9
$TEXTSTYLE
7
STANDARD
9
$CLAYER
8
reimu
9
$DIMASZ
40
2.5
9
$DIMLFAC
40
1
9
$DIMSCALE
40
1
9
$DIMEXO
40
0.625
9
$DIMEXE
40
1.25
9
$DIMTXT
40
2.5
9
$DIMTSZ
40
0
9
$DIMAUNIT
70
0
9
$DIMADEC
70
0
9
$DIMLUNIT
70
2
9
$DIMSTYLE
2
Standard
9
$DIMGAP
40
0.625
9
$DIMTIH
70
0
9
$LUNITS
70
2
9
$LUPREC
70
4
9
$AUNITS
70
0
9
$AUPREC
70
2
9
$SPLINESEGS
70
8
9
$GRIDMODE
70
0
9
$SNAPSTYLE
70
0
9
$PINSBASE
10
0
20
0
30
0
9
$PLIMMIN
10
0
20
0
9
$PLIMMAX
10
210
20
297
9
$INSUNITS
70
4
9
$PSVPSCALE
40
1
0
ENDSEC
0
SECTION
2
CLASSES
0
ENDSEC
0
SECTION
2
TABLES
0
TABLE
2
VPORT
5
8
330
0
100
AcDbSymbolTable
70
1
0
VPORT
5
31
330
2
100
AcDbSymbolTableRecord
100
AcDbViewportTableRecord
2
*ACTIVE
70
0
10
0
20
0
11
1
21
1
12
60.2054794521
22
39.2465753425
13
0
23
0
14
10
24
10
15
10
25
10
16
0
26
0
36
1
17
0
27
0
37
0
40
77.0547945205
41
2.08533333333
42
50
43
0
44
0
50
0
51
0
71
0
72
100
73
1
74
3
75
0
76
0
77
0
78
0
281
0
65
1
110
0
120
0
130
0
111
1
121
0
131
0
112
0
122
1
132
0
79
0
146
0
348
10020
60
7
61
5
292
1
282
1
141
0
142
0
63
250
421
3358443
0
ENDTAB
0
TABLE
2
LTYPE
5
5
330
0
100
AcDbSymbolTable
70
4
0
LTYPE
5
14
330
5
100
AcDbSymbolTableRecord
100
AcDbLinetypeTableRecord
2
ByBlock
70
0
3

72
65
73
0
40
0
0
LTYPE
5
15
330
5
100
AcDbSymbolTableRecord
100
AcDbLinetypeTableRecord
2
ByLayer
70
0
3

72
65
73
0
40
0
0
LTYPE
5
16
330
5
100
AcDbSymbolTableRecord
100
AcDbLinetypeTableRecord
2
Continuous
70
0
3
Solid line
72
65
73
0
40
0
0
LTYPE
5
32
330
5
100
AcDbSymbolTableRecord
100
AcDbLinetypeTableRecord
2
DOT
70
0
3
Dot . . . . . . . . . . . . . . . . . . . . . .
72
65
73
2
40
6.35
49
0
74
0
49
-6.35
74
0
0
LTYPE
5
33
330
5
100
AcDbSymbolTableRecord
100
AcDbLinetypeTableRecord
2
DOT2
70
0
3
Dot (.5x) .....................................
72
65
73
2
40
3.175
49
0
74
0
49
-3.175
74
0
0
LTYPE
5
34
330
5
100
AcDbSymbolTableRecord
100
AcDbLinetypeTableRecord
2
DOTX2
70
0
3
Dot (2x) .  .  .  .  .  .  .  .  .  .  .  .  .
72
65
73
2
40
12.7
49
0
74
0
49
-12.7
74
0
0
LTYPE
5
35
330
5
100
AcDbSymbolTableRecord
100
AcDbLinetypeTableRecord
2
DASHED
70
0
3
Dot . . . . . . . . . . . . . . . . . . . . . .
72
65
73
2
40
19.05
49
12.7
74
0
49
-6.35
74
0
0
LTYPE
5
36
330
5
100
AcDbSymbolTableRecord
100
AcDbLinetypeTableRecord
2
DASHED2
70
0
3
Dashed (.5x) _ _ _ _ _ _ _ _ _ _ _ _ _ _ _ _ _
72
65
73
2
40
9.525
49
6.35
74
0
49
-3.175
74
0
0
LTYPE
5
37
330
5
100
AcDbSymbolTableRecord
100
AcDbLinetypeTableRecord
2
DASHEDX2
70
0
3
Dashed (2x) ____  ____  ____  ____  ____  ___
72
65
73
2
40
38.1
49
25.4
74
0
49
-12.7
74
0
0
LTYPE
5
38
330
5
100
AcDbSymbolTableRecord
100
AcDbLinetypeTableRecord
2
DASHDOT
70
0
3
Dash dot __ . __ . __ . __ . __ . __ . __ . __
72
65
73
4
40
25.4
49
12.7
74
0
49
-6.35
74
0
49
0
74
0
49
-6.35
74
0
0
LTYPE
5
39
330
5
100
AcDbSymbolTableRecord
100
AcDbLinetypeTableRecord
2
DASHDOT2
70
0
3
Dash dot (.5x) _._._._._._._._._._._._._._._.
72
65
73
4
40
12.7
49
6.35
74
0
49
-3.175
74
0
49
0
74
0
49
-3.175
74
0
0
LTYPE
5
3A
330
5
100
AcDbSymbolTableRecord
100
AcDbLinetypeTableRecord
2
DASHDOTX2
70
0
3
Dash dot (2x) ____  .  ____  .  ____  .  ___
72
65
73
4
40
50.8
49
25.4
74
0
49
-12.7
74
0
49
0
74
0
49
-12.7
74
0
0
LTYPE
5
3B
330
5
100
AcDbSymbolTableRecord
100
AcDbLinetypeTableRecord
2
DIVIDE
70
0
3
Divide ____ . . ____ . . ____ . . ____ . . ____
72
65
73
6
40
31.75
49
12.7
74
0
49
-6.35
74
0
49
0
74
0
49
-6.35
74
0
49
0
74
0
49
-6.35
74
0
0
LTYPE
5
3C
330
5
100
AcDbSymbolTableRecord
100
AcDbLinetypeTableRecord
2
DIVIDE2
70
0
3
Divide (.5x) __..__..__..__..__..__..__..__.._
72
65
73
6
40
15.875
49
6.35
74
0
49
-3.175
74
0
49
0
74
0
49
-3.175
74
0
49
0
74
0
49
-3.175
74
0
0
LTYPE
5
3D
330
5
100
AcDbSymbolTableRecord
100
AcDbLinetypeTableRecord
2
DIVIDEX2
70
0
3
Divide (2x) ________  .  .  ________  .  .  _
72
65
73
6
40
63.5
49
25.4
74
0
49
-12.7
74
0
49
0
74
0
49
-12.7
74
0
49
0
74
0
49
-12.7
74
0
0
LTYPE
5
3E
330
5
100
AcDbSymbolTableRecord
100
AcDbLinetypeTableRecord
2
BORDER
70
0
3
Border __ __ . __ __ . __ __ . __ __ . __ __ .
72
65
73
6
40
44.45
49
12.7
74
0
49
-6.35
74
0
49
12.7
74
0
49
-6.35
74
0
49
0
74
0
49
-6.35
74
0
0
LTYPE
5
3F
330
5
100
AcDbSymbolTableRecord
100
AcDbLinetypeTableRecord
2
BORDER2
70
0
3
Border (.5x) __.__.__.__.__.__.__.__.__.__.__.
72
65
73
6
40
22.225
49
6.35
74
0
49
-3.175
74
0
49
6.35
74
0
49
-3.175
74
0
49
0
74
0
49
-3.175
74
0
0
LTYPE
5
40
330
5
100
AcDbSymbolTableRecord
100
AcDbLinetypeTableRecord
2
BORDERX2
70
0
3
Border (2x) ____  ____  .  ____  ____  .  ___
72
65
73
6
40
88.9
49
25.4
74
0
49
-12.7
74
0
49
25.4
74
0
49
-12.7
74
0
49
0
74
0
49
-12.7
74
0
0
LTYPE
5
41
330
5
100
AcDbSymbolTableRecord
100
AcDbLinetypeTableRecord
2
CENTER
70
0
3
Center ____ _ ____ _ ____ _ ____ _ ____ _ ____
72
65
73
4
40
50.8
49
31.75
74
0
49
-6.35
74
0
49
6.35
74
0
49
-6.35
74
0
0
LTYPE
5
42
330
5
100
AcDbSymbolTableRecord
100
AcDbLinetypeTableRecord
2
CENTER2
70
0
3
Center (.5x) ___ _ ___ _ ___ _ ___ _ ___ _ ___
72
65
73
4
40
28.575
49
19.05
74
0
49
-3.175
74
0
49
3.175
74
0
49
-3.175
74
0
0
LTYPE
5
43
330
5
100
AcDbSymbolTableRecord
100
AcDbLinetypeTableRecord
2
CENTERX2
70
0
3
Center (2x) ________  __  ________  __  _____
72
65
73
4
40
101.6
49
63.5
74
0
49
-12.7
74
0
49
12.7
74
0
49
-12.7
74
0
0
ENDTAB
0
TABLE
2
LAYER
5
2
330
0
100
AcDbSymbolTable
70
1
0
LAYER
5
10
330
2
100
AcDbSymbolTableRecord
100
AcDbLayerTableRecord
2
0
70
0
62
7
6
CONTINUOUS
370
-3
390
F
0
LAYER
5
44
330
2
100
AcDbSymbolTableRecord
100
AcDbLayerTableRecord
2
reimu
70
0
62
7
6
CONTINUOUS
370
0
390
F
0
ENDTAB
0
TABLE
2
STYLE
5
3
330
0
100
AcDbSymbolTable
70
3
0
STYLE
5
45
330
2
100
AcDbSymbolTableRecord
100
AcDbTextStyleTableRecord
2
Standard
70
0
40
0
41
1
50
0
71
0
42
1
3
txt
4

0
ENDTAB
0
TABLE
2
VIEW
5
6
330
0
100
AcDbSymbolTable
70
0
0
ENDTAB
0
TABLE
2
UCS
5
7
330
0
100
AcDbSymbolTable
70
0
0
ENDTAB
0
TABLE
2
APPID
5
9
330
0
100
AcDbSymbolTable
70
1
0
APPID
5
12
330
9
100
AcDbSymbolTableRecord
100
AcDbRegAppTableRecord
2
ACAD
70
0
0
ENDTAB
0
TABLE
2
DIMSTYLE
5
A
330
0
100
AcDbSymbolTable
70
1
100
AcDbDimStyleTable
71
1
0
DIMSTYLE
105
46
330
A
100
AcDbSymbolTableRecord
100
AcDbDimStyleTableRecord
2
Standard
70
0
40
1
41
2.5
42
0.625
43
0.38
44
1.25
45
0
46
0
47
0
48
0
140
2.5
141
0.09
142
0
143
25.4
144
1
145
0
146
1
147
0.625
148
0
71
0
72
0
73
0
74
1
75
0
76
0
77
0
78
0
79
0
170
0
171
2
172
0
173
0
174
0
175
0
176
0
177
0
178
0
179
0
271
4
272
4
273
2
274
2
275
0
276
0
277
2
278
46
279
0
280
0
281
0
282
0
283
1
284
0
285
0
286
0
288
0
289
3
340
Standard
341

371
-2
372
-2
0
ENDTAB
0
TABLE
2
BLOCK_RECORD
5
1
330
0
100
AcDbSymbolTable
70
2
0
BLOCK_RECORD
5
1F
330
1
100
AcDbSymbolTableRecord
100
AcDbBlockTableRecord
2
*Model_Space
70
0
280
1
281
0
0
BLOCK_RECORD
5
1E
330
1
100
AcDbSymbolTableRecord
100
AcDbBlockTableRecord
2
*Paper_Space
70
0
280
1
281
0
0
ENDTAB
0
ENDSEC
0
SECTION
2
BLOCKS
0
BLOCK
5
20
330
1F
100
AcDbEntity
8
0
100
AcDbBlockBegin
2
*Model_Space
70
0
10
0
20
0
30
0
3
*Model_Space
1

0
ENDBLK
5
21
330
1F
100
AcDbEntity
8
0
100
AcDbBlockEnd
0
BLOCK
5
1C
330
1B
100
AcDbEntity
8
0
100
AcDbBlockBegin
2
*Paper_Space
70
0
10
0
20
0
30
0
3
*Paper_Space
1

0
ENDBLK
5
1D
330
1F
100
AcDbEntity
8
0
100
AcDbBlockEnd
0
ENDSEC
0
SECTION
2
ENTITIES
0
CIRCLE
5
47
100
AcDbEntity
8
0
6
ByLayer
62
256
370
-1
100
AcDbCircle
10
40
20
40
40
37.5
0
SPLINE
5
48
100
AcDbEntity
8
reimu
6
ByLayer
62
7
370
-1
100
AcDbSpline
210
0
220
0
230
1
70
8
71
3
72
8
73
4
74
0
42
1e-07
43
1e-07
40
0
40
0
40
0
40
0
40
1
40
1
40
1
40
1
10
42.7821957688
20
70.6875739025
30
0
10
42.6605316088
20
70.6837718225
30
0
10
42.5219167288
20
70.5714187025
30
0
10
42.3588624088
20
70.3510238225
30
0
0
SPLINE
5
49
100
AcDbEntity
8
reimu
6
ByLayer
62
7
370
-1
100
AcDbSpline
210
0
220
0
230
1
70
8
71
3
72
8
73
4
74
0
42
1e-07
43
1e-07
40
0
40
0
40
0
40
0
40
1
40
1
40
1
40
1
10
42.3588624088
20
70.3510238225
30
0
10
42.2218716088
20
70.1658578225
30
0
10
42.0610416088
20
70.0144739825
30
0
10
42.0032623288
20
70.0144739825
30
0
0
SPLINE
5
4A
100
AcDbEntity
8
reimu
6
ByLayer
62
7
370
-1
100
AcDbSpline
210
0
220
0
230
1
70
8
71
3
72
8
73
4
74
0
42
1e-07
43
1e-07
40
0
40
0
40
0
40
0
40
1
40
1
40
1
40
1
10
42.0032623288
20
70.0144739825
30
0
10
41.9454830488
20
70.0144739825
30
0
10
41.8770691288
20
69.9407320625
30
0
10
41.8487457688
20
69.8514907025
30
0
0
SPLINE
5
4B
100
AcDbEntity
8
reimu
6
ByLayer
62
7
370
-1
100
AcDbSpline
210
0
220
0
230
1
70
8
71
3
72
8
73
4
74
0
42
1e-07
43
1e-07
40
0
40
0
40
0
40
0
40
1
40
1
40
1
40
1
10
41.8487457688
20
69.8514907025
30
0
10
41.8204216888
20
69.7622493425
30
0
10
41.6879332888
20
69.6524623025
30
0
10
41.5545290488
20
69.6059572625
30
0
0
SPLINE
5
4C
100
AcDbEntity
8
reimu
6
ByLayer
62
7
370
-1
100
AcDbSpline
210
0
220
0
230
1
70
8
71
3
72
8
73
4
74
0
42
1e-07
43
1e-07
40
0
40
0
40
0
40
0
40
1
40
1
40
1
40
1
10
41.5545290488
20
69.6059572625
30
0
10
41.2723668088
20
69.5075949425
30
0
10
41.1471393688
20
69.2201488625
30
0
10
41.3047622488
20
69.0302239025
30
0
0
SPLINE
5
4D
100
AcDbEntity
8
reimu
6
ByLayer
62
7
370
-1
100
AcDbSpline
210
0
220
0
230
1
70
8
71
3
72
8
73
4
74
0
42
1e-07
43
1e-07
40
0
40
0
40
0
40
0
40
1
40
1
40
1
40
1
10
41.3047622488
20
69.0302239025
30
0
10
41.3965178488
20
68.9196655025
30
0
10
41.3869466488
20
68.9043083825
30
0
10
41.2476122488
20
68.9286239825
30
0
0
SPLINE
5
4E
100
AcDbEntity
8
reimu
6
ByLayer
62
7
370
-1
100
AcDbSpline
210
0
220
0
230
1
70
8
71
3
72
8
73
4
74
0
42
1e-07
43
1e-07
40
0
40
0
40
0
40
0
40
1
40
1
40
1
40
1
10
41.2476122488
20
68.9286239825
30
0
10
41.1305868088
20
68.9490463025
30
0
10
41.0417964088
20
68.8724236625
30
0
10
40.9385788888
20
68.6661573425
30
0
0
SPLINE
5
4F
100
AcDbEntity
8
reimu
6
ByLayer
62
7
370
-1
100
AcDbSpline
210
0
220
0
230
1
70
8
71
3
72
8
73
4
74
0
42
1e-07
43
1e-07
40
0
40
0
40
0
40
0
40
1
40
1
40
1
40
1
10
40.9385788888
20
68.6661573425
30
0
10
40.7253489688
20
68.2400447825
30
0
10
40.5591084088
20
68.0931285425
30
0
10
40.4326956088
20
68.2195406225
30
0
0
SPLINE
5
50
100
AcDbEntity
8
reimu
6
ByLayer
62
7
370
-1
100
AcDbSpline
210
0
220
0
230
1
70
8
71
3
72
8
73
4
74
0
42
1e-07
43
1e-07
40
0
40
0
40
0
40
0
40
1
40
1
40
1
40
1
10
40.4326956088
20
68.2195406225
30
0
10
40.3764830488
20
68.2757531825
30
0
10
40.2649852888
20
68.3211405425
30
0
10
40.1850456088
20
68.3211405425
30
0
0
SPLINE
5
51
100
AcDbEntity
8
reimu
6
ByLayer
62
7
370
-1
100
AcDbSpline
210
0
220
0
230
1
70
8
71
3
72
8
73
4
74
0
42
1e-07
43
1e-07
40
0
40
0
40
0
40
0
40
1
40
1
40
1
40
1
10
40.1850456088
20
68.3211405425
30
0
10
40.1051068888
20
68.3211405425
30
0
10
40.0270020088
20
68.3523331025
30
0
10
40.0114790488
20
68.3909906225
30
0
0
SPLINE
5
52
100
AcDbEntity
8
reimu
6
ByLayer
62
7
370
-1
100
AcDbSpline
210
0
220
0
230
1
70
8
71
3
72
8
73
4
74
0
42
1e-07
43
1e-07
40
0
40
0
40
0
40
0
40
1
40
1
40
1
40
1
10
40.0114790488
20
68.3909906225
30
0
10
39.9652293688
20
68.5061752625
30
0
10
39.0065527288
20
68.9602979825
30
0
10
38.4155124088
20
69.1466407025
30
0
0
SPLINE
5
53
100
AcDbEntity
8
reimu
6
ByLayer
62
7
370
-1
100
AcDbSpline
210
0
220
0
230
1
70
8
71
3
72
8
73
4
74
0
42
1e-07
43
1e-07
40
0
40
0
40
0
40
0
40
1
40
1
40
1
40
1
10
38.4155124088
20
69.1466407025
30
0
10
38.1128289688
20
69.2420699825
30
0
10
37.5222789688
20
69.3685451825
30
0
10
37.1031789688
20
69.4281573425
30
0
0
SPLINE
5
54
100
AcDbEntity
8
reimu
6
ByLayer
62
7
370
-1
100
AcDbSpline
210
0
220
0
230
1
70
8
71
3
72
8
73
4
74
0
42
1e-07
43
1e-07
40
0
40
0
40
0
40
0
40
1
40
1
40
1
40
1
10
37.1031789688
20
69.4281573425
30
0
10
36.6840789688
20
69.4877699825
30
0
10
36.2576395288
20
69.5910559025
30
0
10
36.1549123288
20
69.6567573425
30
0
0
SPLINE
5
55
100
AcDbEntity
8
reimu
6
ByLayer
62
7
370
-1
100
AcDbSpline
210
0
220
0
230
1
70
8
71
3
72
8
73
4
74
0
42
1e-07
43
1e-07
40
0
40
0
40
0
40
0
40
1
40
1
40
1
40
1
10
36.1549123288
20
69.6567573425
30
0
10
36.0521846488
20
69.7224592625
30
0
10
35.9329291288
20
69.7529351825
30
0
10
35.8903288888
20
69.7266071825
30
0
0
SPLINE
5
56
100
AcDbEntity
8
reimu
6
ByLayer
62
7
370
-1
100
AcDbSpline
210
0
220
0
230
1
70
8
71
3
72
8
73
4
74
0
42
1e-07
43
1e-07
40
0
40
0
40
0
40
0
40
1
40
1
40
1
40
1
10
35.8903288888
20
69.7266071825
30
0
10
35.7657266488
20
69.6495986225
30
0
10
35.7040420888
20
69.1852351025
30
0
10
35.7887289688
20
68.9624906225
30
0
0
SPLINE
5
57
100
AcDbEntity
8
reimu
6
ByLayer
62
7
370
-1
100
AcDbSpline
210
0
220
0
230
1
70
8
71
3
72
8
73
4
74
0
42
1e-07
43
1e-07
40
0
40
0
40
0
40
0
40
1
40
1
40
1
40
1
10
35.7887289688
20
68.9624906225
30
0
10
35.8458972088
20
68.8121272625
30
0
10
35.8340330488
20
68.7300635825
30
0
10
35.7442790488
20
68.6555738225
30
0
0
SPLINE
5
58
100
AcDbEntity
8
reimu
6
ByLayer
62
7
370
-1
100
AcDbSpline
210
0
220
0
230
1
70
8
71
3
72
8
73
4
74
0
42
1e-07
43
1e-07
40
0
40
0
40
0
40
0
40
1
40
1
40
1
40
1
10
35.7442790488
20
68.6555738225
30
0
10
35.5994407288
20
68.5353688625
30
0
10
35.5865803288
20
68.2918946225
30
0
10
35.7125289688
20
68.0565573425
30
0
0
SPLINE
5
59
100
AcDbEntity
8
reimu
6
ByLayer
62
7
370
-1
100
AcDbSpline
210
0
220
0
230
1
70
8
71
3
72
8
73
4
74
0
42
1e-07
43
1e-07
40
0
40
0
40
0
40
0
40
1
40
1
40
1
40
1
10
35.7125289688
20
68.0565573425
30
0
10
35.7783806488
20
67.9335122225
30
0
10
35.7771201688
20
67.8546035825
30
0
10
35.7040622488
20
67.7665739825
30
0
0
SPLINE
5
5A
100
AcDbEntity
8
reimu
6
ByLayer
62
7
370
-1
100
AcDbSpline
210
0
220
0
230
1
70
8
71
3
72
8
73
4
74
0
42
1e-07
43
1e-07
40
0
40
0
40
0
40
0
40
1
40
1
40
1
40
1
10
35.7040622488
20
67.7665739825
30
0
10
35.6257471288
20
67.6722098225
30
0
10
35.6311711288
20
67.5846935825
30
0
10
35.7336957688
20
67.3686405425
30
0
0
SPLINE
5
5B
100
AcDbEntity
8
reimu
6
ByLayer
62
7
370
-1
100
AcDbSpline
210
0
220
0
230
1
70
8
71
3
72
8
73
4
74
0
42
1e-07
43
1e-07
40
0
40
0
40
0
40
0
40
1
40
1
40
1
40
1
10
35.7336957688
20
67.3686405425
30
0
10
35.8210269688
20
67.1846063825
30
0
10
35.8483418488
20
66.9686975825
30
0
10
35.8162456888
20
66.7294072625
30
0
0
SPLINE
5
5C
100
AcDbEntity
8
reimu
6
ByLayer
62
7
370
-1
100
AcDbSpline
210
0
220
0
230
1
70
8
71
3
72
8
73
4
74
0
42
1e-07
43
1e-07
40
0
40
0
40
0
40
0
40
1
40
1
40
1
40
1
10
35.8162456888
20
66.7294072625
30
0
10
35.7788548888
20
66.4506352625
30
0
10
35.8033471288
20
66.3316588625
30
0
10
35.9241957688
20
66.1981238225
30
0
0
SPLINE
5
5D
100
AcDbEntity
8
reimu
6
ByLayer
62
7
370
-1
100
AcDbSpline
210
0
220
0
230
1
70
8
71
3
72
8
73
4
74
0
42
1e-07
43
1e-07
40
0
40
0
40
0
40
0
40
1
40
1
40
1
40
1
10
35.9241957688
20
66.1981238225
30
0
10
36.0502615288
20
66.0588215825
30
0
10
36.0604262488
20
66.0114311825
30
0
10
35.9686456888
20
65.9547071825
30
0
0
SPLINE
5
5E
100
AcDbEntity
8
reimu
6
ByLayer
62
7
370
-1
100
AcDbSpline
210
0
220
0
230
1
70
8
71
3
72
8
73
4
74
0
42
1e-07
43
1e-07
40
0
40
0
40
0
40
0
40
1
40
1
40
1
40
1
10
35.9686456888
20
65.9547071825
30
0
10
35.8753308088
20
65.8970363825
30
0
10
35.8784836888
20
65.8499726225
30
0
10
35.9919290488
20
65.6880071825
30
0
0
SPLINE
5
5F
100
AcDbEntity
8
reimu
6
ByLayer
62
7
370
-1
100
AcDbSpline
210
0
220
0
230
1
70
8
71
3
72
8
73
4
74
0
42
1e-07
43
1e-07
40
0
40
0
40
0
40
0
40
1
40
1
40
1
40
1
10
35.9919290488
20
65.6880071825
30
0
10
36.0679684888
20
65.5794448625
30
0
10
36.1295124088
20
65.4043989425
30
0
10
36.1295124088
20
65.3006572625
30
0
0
SPLINE
5
60
100
AcDbEntity
8
reimu
6
ByLayer
62
7
370
-1
100
AcDbSpline
210
0
220
0
230
1
70
8
71
3
72
8
73
4
74
0
42
1e-07
43
1e-07
40
0
40
0
40
0
40
0
40
1
40
1
40
1
40
1
10
36.1295124088
20
65.3006572625
30
0
10
36.1295124088
20
65.1969163025
30
0
10
36.1887775288
20
65.0784595025
30
0
10
36.2607456088
20
65.0381906225
30
0
0
SPLINE
5
61
100
AcDbEntity
8
reimu
6
ByLayer
62
7
370
-1
100
AcDbSpline
210
0
220
0
230
1
70
8
71
3
72
8
73
4
74
0
42
1e-07
43
1e-07
40
0
40
0
40
0
40
0
40
1
40
1
40
1
40
1
10
36.2607456088
20
65.0381906225
30
0
10
36.3664226488
20
64.9790512625
30
0
10
36.3739687288
20
64.9211786225
30
0
10
36.3009624088
20
64.7291572625
30
0
0
SPLINE
5
62
100
AcDbEntity
8
reimu
6
ByLayer
62
7
370
-1
100
AcDbSpline
210
0
220
0
230
1
70
8
71
3
72
8
73
4
74
0
42
1e-07
43
1e-07
40
0
40
0
40
0
40
0
40
1
40
1
40
1
40
1
10
36.3009624088
20
64.7291572625
30
0
10
36.2263507288
20
64.5329140625
30
0
10
36.2369083288
20
64.4706503825
30
0
10
36.3581124088
20
64.3820239025
30
0
0
SPLINE
5
63
100
AcDbEntity
8
reimu
6
ByLayer
62
7
370
-1
100
AcDbSpline
210
0
220
0
230
1
70
8
71
3
72
8
73
4
74
0
42
1e-07
43
1e-07
40
0
40
0
40
0
40
0
40
1
40
1
40
1
40
1
10
36.3581124088
20
64.3820239025
30
0
10
36.4818300088
20
64.2915592625
30
0
10
36.4864276888
20
64.2545275025
30
0
10
36.3919790488
20
64.1407238225
30
0
0
SPLINE
5
64
100
AcDbEntity
8
reimu
6
ByLayer
62
7
370
-1
100
AcDbSpline
210
0
220
0
230
1
70
8
71
3
72
8
73
4
74
0
42
1e-07
43
1e-07
40
0
40
0
40
0
40
0
40
1
40
1
40
1
40
1
10
36.3919790488
20
64.1407238225
30
0
10
36.3303199288
20
64.0664279825
30
0
10
36.3027537688
20
63.9495290225
30
0
10
36.3284788888
20
63.8824905425
30
0
0
SPLINE
5
65
100
AcDbEntity
8
reimu
6
ByLayer
62
7
370
-1
100
AcDbSpline
210
0
220
0
230
1
70
8
71
3
72
8
73
4
74
0
42
1e-07
43
1e-07
40
0
40
0
40
0
40
0
40
1
40
1
40
1
40
1
10
36.3284788888
20
63.8824905425
30
0
10
36.3542040088
20
63.8154523025
30
0
10
36.3288861688
20
63.7282795025
30
0
10
36.2734456888
20
63.6877571825
30
0
0
SPLINE
5
66
100
AcDbEntity
8
reimu
6
ByLayer
62
7
370
-1
100
AcDbSpline
210
0
220
0
230
1
70
8
71
3
72
8
73
4
74
0
42
1e-07
43
1e-07
40
0
40
0
40
0
40
0
40
1
40
1
40
1
40
1
10
36.2734456888
20
63.6877571825
30
0
10
36.1183370488
20
63.5743864625
30
0
10
35.3913816088
20
63.2853609425
30
0
10
34.7113456888
20
63.0654573425
30
0
0
SPLINE
5
67
100
AcDbEntity
8
reimu
6
ByLayer
62
7
370
-1
100
AcDbSpline
210
0
220
0
230
1
70
8
71
3
72
8
73
4
74
0
42
1e-07
43
1e-07
40
0
40
0
40
0
40
0
40
1
40
1
40
1
40
1
10
34.7113456888
20
63.0654573425
30
0
10
34.3737369688
20
62.9562839825
30
0
10
34.0975123288
20
62.8323355025
30
0
10
34.0975123288
20
62.7902906225
30
0
0
SPLINE
5
68
100
AcDbEntity
8
reimu
6
ByLayer
62
7
370
-1
100
AcDbSpline
210
0
220
0
230
1
70
8
71
3
72
8
73
4
74
0
42
1e-07
43
1e-07
40
0
40
0
40
0
40
0
40
1
40
1
40
1
40
1
10
34.0975123288
20
62.7902906225
30
0
10
34.0975123288
20
62.7060587825
30
0
10
34.1552997688
20
62.7166089425
30
0
10
35.1981789688
20
62.9892573425
30
0
0
SPLINE
5
69
100
AcDbEntity
8
reimu
6
ByLayer
62
7
370
-1
100
AcDbSpline
210
0
220
0
230
1
70
8
71
3
72
8
73
4
74
0
42
1e-07
43
1e-07
40
0
40
0
40
0
40
0
40
1
40
1
40
1
40
1
10
35.1981789688
20
62.9892573425
30
0
10
35.5939956088
20
63.0927395825
30
0
10
36.0207000088
20
63.2298115025
30
0
10
36.1464456088
20
63.2940573425
30
0
0
SPLINE
5
6A
100
AcDbEntity
8
reimu
6
ByLayer
62
7
370
-1
100
AcDbSpline
210
0
220
0
230
1
70
8
71
3
72
8
73
4
74
0
42
1e-07
43
1e-07
40
0
40
0
40
0
40
0
40
1
40
1
40
1
40
1
10
36.1464456088
20
63.2940573425
30
0
10
36.4376678488
20
63.4428417425
30
0
10
36.5844602488
20
63.4426358225
30
0
10
36.5274456088
20
63.2940573425
30
0
0
SPLINE
5
6B
100
AcDbEntity
8
reimu
6
ByLayer
62
7
370
-1
100
AcDbSpline
210
0
220
0
230
1
70
8
71
3
72
8
73
4
74
0
42
1e-07
43
1e-07
40
0
40
0
40
0
40
0
40
1
40
1
40
1
40
1
10
36.5274456088
20
63.2940573425
30
0
10
36.5028652888
20
63.2300011025
30
0
10
36.5390342488
20
63.0690395825
30
0
10
36.6078789688
20
62.9363407025
30
0
0
SPLINE
5
6C
100
AcDbEntity
8
reimu
6
ByLayer
62
7
370
-1
100
AcDbSpline
210
0
220
0
230
1
70
8
71
3
72
8
73
4
74
0
42
1e-07
43
1e-07
40
0
40
0
40
0
40
0
40
1
40
1
40
1
40
1
10
36.6078789688
20
62.9363407025
30
0
10
36.7229505688
20
62.7145403825
30
0
10
36.7184414488
20
62.6675212625
30
0
10
36.5464956088
20
62.3542571825
30
0
0
SPLINE
5
6D
100
AcDbEntity
8
reimu
6
ByLayer
62
7
370
-1
100
AcDbSpline
210
0
220
0
230
1
70
8
71
3
72
8
73
4
74
0
42
1e-07
43
1e-07
40
0
40
0
40
0
40
0
40
1
40
1
40
1
40
1
10
36.5464956088
20
62.3542571825
30
0
10
36.2386238488
20
61.7933567825
30
0
10
35.4523855288
20
60.8704739825
30
0
10
35.2828456888
20
60.8704739825
30
0
0
SPLINE
5
6E
100
AcDbEntity
8
reimu
6
ByLayer
62
7
370
-1
100
AcDbSpline
210
0
220
0
230
1
70
8
71
3
72
8
73
4
74
0
42
1e-07
43
1e-07
40
0
40
0
40
0
40
0
40
1
40
1
40
1
40
1
10
35.2828456888
20
60.8704739825
30
0
10
35.2400342488
20
60.8704739825
30
0
10
35.1633552088
20
60.7942739825
30
0
10
35.1135122488
20
60.7011405425
30
0
0
SPLINE
5
6F
100
AcDbEntity
8
reimu
6
ByLayer
62
7
370
-1
100
AcDbSpline
210
0
220
0
230
1
70
8
71
3
72
8
73
4
74
0
42
1e-07
43
1e-07
40
0
40
0
40
0
40
0
40
1
40
1
40
1
40
1
10
35.1135122488
20
60.7011405425
30
0
10
35.0636688088
20
60.6080073425
30
0
10
34.9679412088
20
60.5318073425
30
0
10
34.8997288888
20
60.5318073425
30
0
0
SPLINE
5
70
100
AcDbEntity
8
reimu
6
ByLayer
62
7
370
-1
100
AcDbSpline
210
0
220
0
230
1
70
8
71
3
72
8
73
4
74
0
42
1e-07
43
1e-07
40
0
40
0
40
0
40
0
40
1
40
1
40
1
40
1
10
34.8997288888
20
60.5318073425
30
0
10
34.8315175288
20
60.5318073425
30
0
10
34.7748456088
20
60.4981024625
30
0
10
34.7748456088
20
60.4577239025
30
0
0
SPLINE
5
71
100
AcDbEntity
8
reimu
6
ByLayer
62
7
370
-1
100
AcDbSpline
210
0
220
0
230
1
70
8
71
3
72
8
73
4
74
0
42
1e-07
43
1e-07
40
0
40
0
40
0
40
0
40
1
40
1
40
1
40
1
10
34.7748456088
20
60.4577239025
30
0
10
34.7748456088
20
60.3659282225
30
0
10
33.7695820888
20
59.6851406225
30
0
10
33.6339624088
20
59.6851406225
30
0
0
SPLINE
5
72
100
AcDbEntity
8
reimu
6
ByLayer
62
7
370
-1
100
AcDbSpline
210
0
220
0
230
1
70
8
71
3
72
8
73
4
74
0
42
1e-07
43
1e-07
40
0
40
0
40
0
40
0
40
1
40
1
40
1
40
1
10
33.6339624088
20
59.6851406225
30
0
10
33.6216518488
20
59.6851406225
30
0
10
33.5627109688
20
59.7994406225
30
0
10
33.5048457688
20
59.9391405425
30
0
0
SPLINE
5
73
100
AcDbEntity
8
reimu
6
ByLayer
62
7
370
-1
100
AcDbSpline
210
0
220
0
230
1
70
8
71
3
72
8
73
4
74
0
42
1e-07
43
1e-07
40
0
40
0
40
0
40
0
40
1
40
1
40
1
40
1
10
33.5048457688
20
59.9391405425
30
0
10
33.4469803288
20
60.0788407025
30
0
10
33.3679627288
20
60.1931407025
30
0
10
33.3270456088
20
60.1931407025
30
0
0
SPLINE
5
74
100
AcDbEntity
8
reimu
6
ByLayer
62
7
370
-1
100
AcDbSpline
210
0
220
0
230
1
70
8
71
3
72
8
73
4
74
0
42
1e-07
43
1e-07
40
0
40
0
40
0
40
0
40
1
40
1
40
1
40
1
10
33.3270456088
20
60.1931407025
30
0
10
33.2861287288
20
60.1931407025
30
0
10
33.2508456088
20
60.2442304625
30
0
10
33.2508456088
20
60.3053239025
30
0
0
SPLINE
5
75
100
AcDbEntity
8
reimu
6
ByLayer
62
7
370
-1
100
AcDbSpline
210
0
220
0
230
1
70
8
71
3
72
8
73
4
74
0
42
1e-07
43
1e-07
40
0
40
0
40
0
40
0
40
1
40
1
40
1
40
1
10
33.2508456088
20
60.3053239025
30
0
10
33.2508456088
20
60.5291663825
30
0
10
32.1309631288
20
61.2091406225
30
0
10
31.7628290488
20
61.2091406225
30
0
0
SPLINE
5
76
100
AcDbEntity
8
reimu
6
ByLayer
62
7
370
-1
100
AcDbSpline
210
0
220
0
230
1
70
8
71
3
72
8
73
4
74
0
42
1e-07
43
1e-07
40
0
40
0
40
0
40
0
40
1
40
1
40
1
40
1
10
31.7628290488
20
61.2091406225
30
0
10
31.5412298488
20
61.2091406225
30
0
10
31.3881789688
20
60.9547099025
30
0
10
31.3881789688
20
60.5847239825
30
0
0
SPLINE
5
77
100
AcDbEntity
8
reimu
6
ByLayer
62
7
370
-1
100
AcDbSpline
210
0
220
0
230
1
70
8
71
3
72
8
73
4
74
0
42
1e-07
43
1e-07
40
0
40
0
40
0
40
0
40
1
40
1
40
1
40
1
10
31.3881789688
20
60.5847239825
30
0
10
31.3881789688
20
60.2569989425
30
0
10
31.1328885688
20
59.5145169425
30
0
10
30.9606122488
20
59.3422406225
30
0
0
SPLINE
5
78
100
AcDbEntity
8
reimu
6
ByLayer
62
7
370
-1
100
AcDbSpline
210
0
220
0
230
1
70
8
71
3
72
8
73
4
74
0
42
1e-07
43
1e-07
40
0
40
0
40
0
40
0
40
1
40
1
40
1
40
1
10
30.9606122488
20
59.3422406225
30
0
10
30.7044367288
20
59.0860643825
30
0
10
30.5785754488
20
59.1396196625
30
0
10
30.1435790488
20
59.6851406225
30
0
0
SPLINE
5
79
100
AcDbEntity
8
reimu
6
ByLayer
62
7
370
-1
100
AcDbSpline
210
0
220
0
230
1
70
8
71
3
72
8
73
4
74
0
42
1e-07
43
1e-07
40
0
40
0
40
0
40
0
40
1
40
1
40
1
40
1
10
30.1435790488
20
59.6851406225
30
0
10
29.8970959288
20
59.9942512625
30
0
10
29.6710231288
20
60.1932184625
30
0
10
29.5678456888
20
60.1952572625
30
0
0
SPLINE
5
7A
100
AcDbEntity
8
reimu
6
ByLayer
62
7
370
-1
100
AcDbSpline
210
0
220
0
230
1
70
8
71
3
72
8
73
4
74
0
42
1e-07
43
1e-07
40
0
40
0
40
0
40
0
40
1
40
1
40
1
40
1
10
29.5678456888
20
60.1952572625
30
0
10
29.4747122488
20
60.1970995025
30
0
10
29.1797594488
20
60.3075211025
30
0
10
28.9116789688
20
60.4407907025
30
0
0
SPLINE
5
7B
100
AcDbEntity
8
reimu
6
ByLayer
62
7
370
-1
100
AcDbSpline
210
0
220
0
230
1
70
8
71
3
72
8
73
4
74
0
42
1e-07
43
1e-07
40
0
40
0
40
0
40
0
40
1
40
1
40
1
40
1
10
28.9116789688
20
60.4407907025
30
0
10
28.6435980088
20
60.5740600625
30
0
10
28.4072836888
20
60.6560553425
30
0
10
28.3867456888
20
60.6228239825
30
0
0
SPLINE
5
7C
100
AcDbEntity
8
reimu
6
ByLayer
62
7
370
-1
100
AcDbSpline
210
0
220
0
230
1
70
8
71
3
72
8
73
4
74
0
42
1e-07
43
1e-07
40
0
40
0
40
0
40
0
40
1
40
1
40
1
40
1
10
28.3867456888
20
60.6228239825
30
0
10
28.3465351288
20
60.5577619025
30
0
10
28.9332420088
20
59.6671195025
30
0
10
29.1995457688
20
59.3888073425
30
0
0
SPLINE
5
7D
100
AcDbEntity
8
reimu
6
ByLayer
62
7
370
-1
100
AcDbSpline
210
0
220
0
230
1
70
8
71
3
72
8
73
4
74
0
42
1e-07
43
1e-07
40
0
40
0
40
0
40
0
40
1
40
1
40
1
40
1
10
29.1995457688
20
59.3888073425
30
0
10
29.2886618488
20
59.2956739025
30
0
10
29.4611188888
20
59.1070610225
30
0
10
29.5826623288
20
58.9697073425
30
0
0
SPLINE
5
7E
100
AcDbEntity
8
reimu
6
ByLayer
62
7
370
-1
100
AcDbSpline
210
0
220
0
230
1
70
8
71
3
72
8
73
4
74
0
42
1e-07
43
1e-07
40
0
40
0
40
0
40
0
40
1
40
1
40
1
40
1
10
29.5826623288
20
58.9697073425
30
0
10
30.0865332088
20
58.4002907825
30
0
10
31.1519143288
20
58.1416888625
30
0
10
31.5511622488
20
58.4913405425
30
0
0
SPLINE
5
7F
100
AcDbEntity
8
reimu
6
ByLayer
62
7
370
-1
100
AcDbSpline
210
0
220
0
230
1
70
8
71
3
72
8
73
4
74
0
42
1e-07
43
1e-07
40
0
40
0
40
0
40
0
40
1
40
1
40
1
40
1
10
31.5511622488
20
58.4913405425
30
0
10
31.6630632088
20
58.5893404625
30
0
10
31.7770881688
20
58.6691407025
30
0
10
31.8051624088
20
58.6691407025
30
0
0
SPLINE
5
80
100
AcDbEntity
8
reimu
6
ByLayer
62
7
370
-1
100
AcDbSpline
210
0
220
0
230
1
70
8
71
3
72
8
73
4
74
0
42
1e-07
43
1e-07
40
0
40
0
40
0
40
0
40
1
40
1
40
1
40
1
10
31.8051624088
20
58.6691407025
30
0
10
31.8849928888
20
58.6691407025
30
0
10
32.0509204888
20
59.0917783025
30
0
10
32.1628790488
20
59.5793073425
30
0
0
SPLINE
5
81
100
AcDbEntity
8
reimu
6
ByLayer
62
7
370
-1
100
AcDbSpline
210
0
220
0
230
1
70
8
71
3
72
8
73
4
74
0
42
1e-07
43
1e-07
40
0
40
0
40
0
40
0
40
1
40
1
40
1
40
1
10
32.1628790488
20
59.5793073425
30
0
10
32.2190217688
20
59.8237826225
30
0
10
32.2957596088
20
60.0238072625
30
0
10
32.3343290488
20
60.0238072625
30
0
0
SPLINE
5
82
100
AcDbEntity
8
reimu
6
ByLayer
62
7
370
-1
100
AcDbSpline
210
0
220
0
230
1
70
8
71
3
72
8
73
4
74
0
42
1e-07
43
1e-07
40
0
40
0
40
0
40
0
40
1
40
1
40
1
40
1
10
32.3343290488
20
60.0238072625
30
0
10
32.3728977688
20
60.0238072625
30
0
10
32.4041788888
20
59.9887307825
30
0
10
32.4041788888
20
59.9454907025
30
0
0
SPLINE
5
83
100
AcDbEntity
8
reimu
6
ByLayer
62
7
370
-1
100
AcDbSpline
210
0
220
0
230
1
70
8
71
3
72
8
73
4
74
0
42
1e-07
43
1e-07
40
0
40
0
40
0
40
0
40
1
40
1
40
1
40
1
10
32.4041788888
20
59.9454907025
30
0
10
32.4041788888
20
59.9022496625
30
0
10
32.4546307288
20
59.8165243025
30
0
10
32.5142457688
20
59.7549907025
30
0
0
SPLINE
5
84
100
AcDbEntity
8
reimu
6
ByLayer
62
7
370
-1
100
AcDbSpline
210
0
220
0
230
1
70
8
71
3
72
8
73
4
74
0
42
1e-07
43
1e-07
40
0
40
0
40
0
40
0
40
1
40
1
40
1
40
1
10
32.5142457688
20
59.7549907025
30
0
10
32.6974915288
20
59.5658397425
30
0
10
33.4215302488
20
57.9725635025
30
0
10
33.4222956088
20
57.7568572625
30
0
0
SPLINE
5
85
100
AcDbEntity
8
reimu
6
ByLayer
62
7
370
-1
100
AcDbSpline
210
0
220
0
230
1
70
8
71
3
72
8
73
4
74
0
42
1e-07
43
1e-07
40
0
40
0
40
0
40
0
40
1
40
1
40
1
40
1
10
33.4222956088
20
57.7568572625
30
0
10
33.4225828888
20
57.6766115825
30
0
10
33.4826868088
20
57.4965071825
30
0
10
33.5556456088
20
57.3568072625
30
0
0
SPLINE
5
86
100
AcDbEntity
8
reimu
6
ByLayer
62
7
370
-1
100
AcDbSpline
210
0
220
0
230
1
70
8
71
3
72
8
73
4
74
0
42
1e-07
43
1e-07
40
0
40
0
40
0
40
0
40
1
40
1
40
1
40
1
10
33.5556456088
20
57.3568072625
30
0
10
33.6319507288
20
57.2107003025
30
0
10
33.6669979288
20
57.0039057425
30
0
10
33.6403123288
20
56.8699739825
30
0
0
SPLINE
5
87
100
AcDbEntity
8
reimu
6
ByLayer
62
7
370
-1
100
AcDbSpline
210
0
220
0
230
1
70
8
71
3
72
8
73
4
74
0
42
1e-07
43
1e-07
40
0
40
0
40
0
40
0
40
1
40
1
40
1
40
1
10
33.6403123288
20
56.8699739825
30
0
10
33.6064936888
20
56.7002416625
30
0
10
33.6275899288
20
56.6371406225
30
0
10
33.7186288888
20
56.6371406225
30
0
0
SPLINE
5
88
100
AcDbEntity
8
reimu
6
ByLayer
62
7
370
-1
100
AcDbSpline
210
0
220
0
230
1
70
8
71
3
72
8
73
4
74
0
42
1e-07
43
1e-07
40
0
40
0
40
0
40
0
40
1
40
1
40
1
40
1
10
33.7186288888
20
56.6371406225
30
0
10
33.7873147288
20
56.6371406225
30
0
10
33.8435124088
20
56.5685606225
30
0
10
33.8435124088
20
56.4847406225
30
0
0
SPLINE
5
89
100
AcDbEntity
8
reimu
6
ByLayer
62
7
370
-1
100
AcDbSpline
210
0
220
0
230
1
70
8
71
3
72
8
73
4
74
0
42
1e-07
43
1e-07
40
0
40
0
40
0
40
0
40
1
40
1
40
1
40
1
10
33.8435124088
20
56.4847406225
30
0
10
33.8435124088
20
56.4009206225
30
0
10
33.8801803288
20
56.2961459825
30
0
10
33.9239457688
20
56.2519072625
30
0
0
SPLINE
5
8A
100
AcDbEntity
8
reimu
6
ByLayer
62
7
370
-1
100
AcDbSpline
210
0
220
0
230
1
70
8
71
3
72
8
73
4
74
0
42
1e-07
43
1e-07
40
0
40
0
40
0
40
0
40
1
40
1
40
1
40
1
10
33.9239457688
20
56.2519072625
30
0
10
33.9974628088
20
56.1775955825
30
0
10
34.2909518488
20
54.9382816625
30
0
10
34.2456789688
20
54.8930073425
30
0
0
SPLINE
5
8B
100
AcDbEntity
8
reimu
6
ByLayer
62
7
370
-1
100
AcDbSpline
210
0
220
0
230
1
70
8
71
3
72
8
73
4
74
0
42
1e-07
43
1e-07
40
0
40
0
40
0
40
0
40
1
40
1
40
1
40
1
10
34.2456789688
20
54.8930073425
30
0
10
34.2346214488
20
54.8819512625
30
0
10
34.0568148088
20
54.9861703025
30
0
10
33.8519788888
20
55.1258407025
30
0
0
SPLINE
5
8C
100
AcDbEntity
8
reimu
6
ByLayer
62
7
370
-1
100
AcDbSpline
210
0
220
0
230
1
70
8
71
3
72
8
73
4
74
0
42
1e-07
43
1e-07
40
0
40
0
40
0
40
0
40
1
40
1
40
1
40
1
10
33.8519788888
20
55.1258407025
30
0
10
33.6471432088
20
55.2655101425
30
0
10
33.2310153688
20
55.4573884625
30
0
10
32.9269956088
20
55.5512906225
30
0
0
SPLINE
5
8D
100
AcDbEntity
8
reimu
6
ByLayer
62
7
370
-1
100
AcDbSpline
210
0
220
0
230
1
70
8
71
3
72
8
73
4
74
0
42
1e-07
43
1e-07
40
0
40
0
40
0
40
0
40
1
40
1
40
1
40
1
10
32.9269956088
20
55.5512906225
30
0
10
32.3516227288
20
55.7290046225
30
0
10
32.2116333688
20
55.7305795025
30
0
10
30.1499289688
20
55.5724571825
30
0
0
SPLINE
5
8E
100
AcDbEntity
8
reimu
6
ByLayer
62
7
370
-1
100
AcDbSpline
210
0
220
0
230
1
70
8
71
3
72
8
73
4
74
0
42
1e-07
43
1e-07
40
0
40
0
40
0
40
0
40
1
40
1
40
1
40
1
10
30.1499289688
20
55.5724571825
30
0
10
29.3235504088
20
55.5090784625
30
0
10
28.5683834488
20
55.6441888625
30
0
10
27.8999124088
20
55.9746239825
30
0
0
SPLINE
5
8F
100
AcDbEntity
8
reimu
6
ByLayer
62
7
370
-1
100
AcDbSpline
210
0
220
0
230
1
70
8
71
3
72
8
73
4
74
0
42
1e-07
43
1e-07
40
0
40
0
40
0
40
0
40
1
40
1
40
1
40
1
10
27.8999124088
20
55.9746239825
30
0
10
27.7271421688
20
56.0600263025
30
0
10
27.5447560888
20
56.1291405425
30
0
10
27.4956290488
20
56.1291405425
30
0
0
SPLINE
5
90
100
AcDbEntity
8
reimu
6
ByLayer
62
7
370
-1
100
AcDbSpline
210
0
220
0
230
1
70
8
71
3
72
8
73
4
74
0
42
1e-07
43
1e-07
40
0
40
0
40
0
40
0
40
1
40
1
40
1
40
1
10
27.4956290488
20
56.1291405425
30
0
10
27.4465020088
20
56.1291405425
30
0
10
27.1952181688
20
56.2529659025
30
0
10
26.9368288888
20
56.4043072625
30
0
0
SPLINE
5
91
100
AcDbEntity
8
reimu
6
ByLayer
62
7
370
-1
100
AcDbSpline
210
0
220
0
230
1
70
8
71
3
72
8
73
4
74
0
42
1e-07
43
1e-07
40
0
40
0
40
0
40
0
40
1
40
1
40
1
40
1
10
26.9368288888
20
56.4043072625
30
0
10
26.6784403288
20
56.5556493425
30
0
10
26.3949189688
20
56.7202778225
30
0
10
26.3060623288
20
56.7704906225
30
0
0
SPLINE
5
92
100
AcDbEntity
8
reimu
6
ByLayer
62
7
370
-1
100
AcDbSpline
210
0
220
0
230
1
70
8
71
3
72
8
73
4
74
0
42
1e-07
43
1e-07
40
0
40
0
40
0
40
0
40
1
40
1
40
1
40
1
10
26.3060623288
20
56.7704906225
30
0
10
25.8647167288
20
57.0198947825
30
0
10
25.1730482488
20
57.6566323025
30
0
10
24.9323457688
20
58.0341405425
30
0
0
SPLINE
5
93
100
AcDbEntity
8
reimu
6
ByLayer
62
7
370
-1
100
AcDbSpline
210
0
220
0
230
1
70
8
71
3
72
8
73
4
74
0
42
1e-07
43
1e-07
40
0
40
0
40
0
40
0
40
1
40
1
40
1
40
1
10
24.9323457688
20
58.0341405425
30
0
10
24.7838892088
20
58.2669739025
30
0
10
24.6126463288
20
58.5081223025
30
0
10
24.5534623288
20
58.5696573425
30
0
0
SPLINE
5
94
100
AcDbEntity
8
reimu
6
ByLayer
62
7
370
-1
100
AcDbSpline
210
0
220
0
230
1
70
8
71
3
72
8
73
4
74
0
42
1e-07
43
1e-07
40
0
40
0
40
0
40
0
40
1
40
1
40
1
40
1
10
24.5534623288
20
58.5696573425
30
0
10
24.4942776088
20
58.6311909425
30
0
10
24.4455122488
20
58.7169163025
30
0
10
24.4455122488
20
58.7601573425
30
0
0
SPLINE
5
95
100
AcDbEntity
8
reimu
6
ByLayer
62
7
370
-1
100
AcDbSpline
210
0
220
0
230
1
70
8
71
3
72
8
73
4
74
0
42
1e-07
43
1e-07
40
0
40
0
40
0
40
0
40
1
40
1
40
1
40
1
10
24.4455122488
20
58.7601573425
30
0
10
24.4455122488
20
58.8033976625
30
0
10
24.3883622488
20
58.8384739025
30
0
10
24.3185124088
20
58.8384739025
30
0
0
SPLINE
5
96
100
AcDbEntity
8
reimu
6
ByLayer
62
7
370
-1
100
AcDbSpline
210
0
220
0
230
1
70
8
71
3
72
8
73
4
74
0
42
1e-07
43
1e-07
40
0
40
0
40
0
40
0
40
1
40
1
40
1
40
1
10
24.3185124088
20
58.8384739025
30
0
10
24.1560160888
20
58.8384739025
30
0
10
24.1510144888
20
58.8824539025
30
0
10
24.4455122488
20
57.9960405425
30
0
0
SPLINE
5
97
100
AcDbEntity
8
reimu
6
ByLayer
62
7
370
-1
100
AcDbSpline
210
0
220
0
230
1
70
8
71
3
72
8
73
4
74
0
42
1e-07
43
1e-07
40
0
40
0
40
0
40
0
40
1
40
1
40
1
40
1
10
24.4455122488
20
57.9960405425
30
0
10
24.9091036888
20
56.6006661425
30
0
10
25.4605816888
20
55.6233995825
30
0
10
25.7874789688
20
55.6190239025
30
0
0
SPLINE
5
98
100
AcDbEntity
8
reimu
6
ByLayer
62
7
370
-1
100
AcDbSpline
210
0
220
0
230
1
70
8
71
3
72
8
73
4
74
0
42
1e-07
43
1e-07
40
0
40
0
40
0
40
0
40
1
40
1
40
1
40
1
10
25.7874789688
20
55.6190239025
30
0
10
25.8648312088
20
55.6179883025
30
0
10
26.0224288888
20
55.5428699825
30
0
10
26.1388456888
20
55.4518072625
30
0
0
SPLINE
5
99
100
AcDbEntity
8
reimu
6
ByLayer
62
7
370
-1
100
AcDbSpline
210
0
220
0
230
1
70
8
71
3
72
8
73
4
74
0
42
1e-07
43
1e-07
40
0
40
0
40
0
40
0
40
1
40
1
40
1
40
1
10
26.1388456888
20
55.4518072625
30
0
10
26.2552622488
20
55.3607452625
30
0
10
26.3972666488
20
55.2856269425
30
0
10
26.4542289688
20
55.2845906225
30
0
0
SPLINE
5
9A
100
AcDbEntity
8
reimu
6
ByLayer
62
7
370
-1
100
AcDbSpline
210
0
220
0
230
1
70
8
71
3
72
8
73
4
74
0
42
1e-07
43
1e-07
40
0
40
0
40
0
40
0
40
1
40
1
40
1
40
1
10
26.4542289688
20
55.2845906225
30
0
10
26.5111912888
20
55.2835550225
30
0
10
26.7207412888
20
55.2088749425
30
0
10
26.9198956888
20
55.1194905425
30
0
0
SPLINE
5
9B
100
AcDbEntity
8
reimu
6
ByLayer
62
7
370
-1
100
AcDbSpline
210
0
220
0
230
1
70
8
71
3
72
8
73
4
74
0
42
1e-07
43
1e-07
40
0
40
0
40
0
40
0
40
1
40
1
40
1
40
1
10
26.9198956888
20
55.1194905425
30
0
10
27.7540221688
20
54.7451191025
30
0
10
28.5058106488
20
54.6048695825
30
0
10
29.6652122488
20
54.6051405425
30
0
0
SPLINE
5
9C
100
AcDbEntity
8
reimu
6
ByLayer
62
7
370
-1
100
AcDbSpline
210
0
220
0
230
1
70
8
71
3
72
8
73
4
74
0
42
1e-07
43
1e-07
40
0
40
0
40
0
40
0
40
1
40
1
40
1
40
1
10
29.6652122488
20
54.6051405425
30
0
10
30.2788288888
20
54.6052888625
30
0
10
31.0573999288
20
54.6592960625
30
0
10
31.4008790488
20
54.7257907025
30
0
0
SPLINE
5
9D
100
AcDbEntity
8
reimu
6
ByLayer
62
7
370
-1
100
AcDbSpline
210
0
220
0
230
1
70
8
71
3
72
8
73
4
74
0
42
1e-07
43
1e-07
40
0
40
0
40
0
40
0
40
1
40
1
40
1
40
1
10
31.4008790488
20
54.7257907025
30
0
10
32.2936557688
20
54.8986271825
30
0
10
32.6581790488
20
54.9414731825
30
0
10
32.6581790488
20
54.8739573425
30
0
0
SPLINE
5
9E
100
AcDbEntity
8
reimu
6
ByLayer
62
7
370
-1
100
AcDbSpline
210
0
220
0
230
1
70
8
71
3
72
8
73
4
74
0
42
1e-07
43
1e-07
40
0
40
0
40
0
40
0
40
1
40
1
40
1
40
1
10
32.6581790488
20
54.8739573425
30
0
10
32.6581790488
20
54.8414839025
30
0
10
32.5613928088
20
54.7103162225
30
0
10
32.4422788888
20
54.5818571825
30
0
0
SPLINE
5
9F
100
AcDbEntity
8
reimu
6
ByLayer
62
7
370
-1
100
AcDbSpline
210
0
220
0
230
1
70
8
71
3
72
8
73
4
74
0
42
1e-07
43
1e-07
40
0
40
0
40
0
40
0
40
1
40
1
40
1
40
1
10
32.4422788888
20
54.5818571825
30
0
10
32.2391061688
20
54.3627453425
30
0
10
32.2325589688
20
54.3297369425
30
0
10
32.3364456088
20
54.0421072625
30
0
0
SPLINE
5
A0
100
AcDbEntity
8
reimu
6
ByLayer
62
7
370
-1
100
AcDbSpline
210
0
220
0
230
1
70
8
71
3
72
8
73
4
74
0
42
1e-07
43
1e-07
40
0
40
0
40
0
40
0
40
1
40
1
40
1
40
1
10
32.3364456088
20
54.0421072625
30
0
10
32.4669523288
20
53.6807743025
30
0
10
32.7505015288
20
53.4686227025
30
0
10
33.0180122488
20
53.5319906225
30
0
0
SPLINE
5
A1
100
AcDbEntity
8
reimu
6
ByLayer
62
7
370
-1
100
AcDbSpline
210
0
220
0
230
1
70
8
71
3
72
8
73
4
74
0
42
1e-07
43
1e-07
40
0
40
0
40
0
40
0
40
1
40
1
40
1
40
1
10
33.0180122488
20
53.5319906225
30
0
10
33.1231262488
20
53.5568901425
30
0
10
33.4380415288
20
53.5506986225
30
0
10
33.7165123288
20
53.5192905425
30
0
0
SPLINE
5
A2
100
AcDbEntity
8
reimu
6
ByLayer
62
7
370
-1
100
AcDbSpline
210
0
220
0
230
1
70
8
71
3
72
8
73
4
74
0
42
1e-07
43
1e-07
40
0
40
0
40
0
40
0
40
1
40
1
40
1
40
1
10
34.0297790488
20
53.2822238225
30
0
10
33.9188330488
20
53.1790226225
30
0
10
33.6658051288
20
53.0797451825
30
0
10
33.4371122488
20
53.0493907025
30
0
0
SPLINE
5
A3
100
AcDbEntity
8
reimu
6
ByLayer
62
7
370
-1
100
AcDbSpline
210
0
220
0
230
1
70
8
71
3
72
8
73
4
74
0
42
1e-07
43
1e-07
40
0
40
0
40
0
40
0
40
1
40
1
40
1
40
1
10
33.4371122488
20
53.0493907025
30
0
10
33.0030249688
20
52.9917739025
30
0
10
32.1515628088
20
52.8162199025
30
0
10
31.0897288888
20
52.5646739825
30
0
0
SPLINE
5
A4
100
AcDbEntity
8
reimu
6
ByLayer
62
7
370
-1
100
AcDbSpline
210
0
220
0
230
1
70
8
71
3
72
8
73
4
74
0
42
1e-07
43
1e-07
40
0
40
0
40
0
40
0
40
1
40
1
40
1
40
1
10
31.0897288888
20
52.5646739825
30
0
10
30.7156872088
20
52.4760645425
30
0
10
30.2903685688
20
52.4038072625
30
0
10
30.1435790488
20
52.4038072625
30
0
0
SPLINE
5
A5
100
AcDbEntity
8
reimu
6
ByLayer
62
7
370
-1
100
AcDbSpline
210
0
220
0
230
1
70
8
71
3
72
8
73
4
74
0
42
1e-07
43
1e-07
40
0
40
0
40
0
40
0
40
1
40
1
40
1
40
1
10
30.1435790488
20
52.4038072625
30
0
10
29.9967907288
20
52.4038072625
30
0
10
29.5973481688
20
52.3463558225
30
0
10
29.2566957688
20
52.2746906225
30
0
0
SPLINE
5
A6
100
AcDbEntity
8
reimu
6
ByLayer
62
7
370
-1
100
AcDbSpline
210
0
220
0
230
1
70
8
71
3
72
8
73
4
74
0
42
1e-07
43
1e-07
40
0
40
0
40
0
40
0
40
1
40
1
40
1
40
1
10
29.2566957688
20
52.2746906225
30
0
10
28.6844486488
20
52.1543035025
30
0
10
28.6120809688
20
52.1533389425
30
0
10
28.3147790488
20
52.2873907025
30
0
0
SPLINE
5
A7
100
AcDbEntity
8
reimu
6
ByLayer
62
7
370
-1
100
AcDbSpline
210
0
220
0
230
1
70
8
71
3
72
8
73
4
74
0
42
1e-07
43
1e-07
40
0
40
0
40
0
40
0
40
1
40
1
40
1
40
1
10
28.3147790488
20
52.2873907025
30
0
10
28.0027180888
20
52.4280971825
30
0
10
27.9818208088
20
52.4277923825
30
0
10
27.6056956888
20
52.2450573425
30
0
0
LWPOLYLINE
5
A8
100
AcDbEntity
8
reimu
6
ByLayer
62
7
370
-1
100
AcDbPolyline
90
3
70
0
43
0
10
33.7165123288
20
53.5192905425
10
34.2223956088
20
53.4621405425
10
34.0297790488
20
53.2822238225
0
SPLINE
5
A9
100
AcDbEntity
8
reimu
6
ByLayer
62
7
370
-1
100
AcDbSpline
210
0
220
0
230
1
70
8
71
3
72
8
73
4
74
0
42
1e-07
43
1e-07
40
0
40
0
40
0
40
0
40
1
40
1
40
1
40
1
10
27.0341956888
20
52.2302407025
30
0
10
26.9325393688
20
52.3257419825
30
0
10
26.7406480888
20
52.4038072625
30
0
10
26.6087457688
20
52.4038072625
30
0
0
SPLINE
5
AA
100
AcDbEntity
8
reimu
6
ByLayer
62
7
370
-1
100
AcDbSpline
210
0
220
0
230
1
70
8
71
3
72
8
73
4
74
0
42
1e-07
43
1e-07
40
0
40
0
40
0
40
0
40
1
40
1
40
1
40
1
10
26.6087457688
20
52.4038072625
30
0
10
26.3274998488
20
52.4038072625
30
0
10
25.7633510488
20
51.9726398225
30
0
10
25.4572790488
20
51.5232739025
30
0
0
SPLINE
5
AB
100
AcDbEntity
8
reimu
6
ByLayer
62
7
370
-1
100
AcDbSpline
210
0
220
0
230
1
70
8
71
3
72
8
73
4
74
0
42
1e-07
43
1e-07
40
0
40
0
40
0
40
0
40
1
40
1
40
1
40
1
10
25.4572790488
20
51.5232739025
30
0
10
25.3436875288
20
51.3565015025
30
0
10
25.1880674488
20
51.2188125425
30
0
10
25.1122622488
20
51.2184739025
30
0
0
SPLINE
5
AC
100
AcDbEntity
8
reimu
6
ByLayer
62
7
370
-1
100
AcDbSpline
210
0
220
0
230
1
70
8
71
3
72
8
73
4
74
0
42
1e-07
43
1e-07
40
0
40
0
40
0
40
0
40
1
40
1
40
1
40
1
10
25.1122622488
20
51.2184739025
30
0
10
24.8492124088
20
51.2173699025
30
0
10
24.3263328088
20
51.4912305425
30
0
10
23.7575956888
20
51.9254407025
30
0
0
SPLINE
5
AD
100
AcDbEntity
8
reimu
6
ByLayer
62
7
370
-1
100
AcDbSpline
210
0
220
0
230
1
70
8
71
3
72
8
73
4
74
0
42
1e-07
43
1e-07
40
0
40
0
40
0
40
0
40
1
40
1
40
1
40
1
10
23.7575956888
20
51.9254407025
30
0
10
23.4431268088
20
52.1655268625
30
0
10
23.0110795288
20
52.4902180625
30
0
10
22.7987457688
20
52.6472239025
30
0
0
SPLINE
5
AE
100
AcDbEntity
8
reimu
6
ByLayer
62
7
370
-1
100
AcDbSpline
210
0
220
0
230
1
70
8
71
3
72
8
73
4
74
0
42
1e-07
43
1e-07
40
0
40
0
40
0
40
0
40
1
40
1
40
1
40
1
10
22.7987457688
20
52.6472239025
30
0
10
22.5864124888
20
52.8042304625
30
0
10
22.2189679288
20
53.1173243825
30
0
10
21.9817123288
20
53.3436071825
30
0
0
SPLINE
5
AF
100
AcDbEntity
8
reimu
6
ByLayer
62
7
370
-1
100
AcDbSpline
210
0
220
0
230
1
70
8
71
3
72
8
73
4
74
0
42
1e-07
43
1e-07
40
0
40
0
40
0
40
0
40
1
40
1
40
1
40
1
10
21.9817123288
20
53.3436071825
30
0
10
21.6229125688
20
53.6858135825
30
0
10
21.5227579288
20
53.7411343025
30
0
10
21.3890457688
20
53.6695739825
30
0
0
SPLINE
5
B0
100
AcDbEntity
8
reimu
6
ByLayer
62
7
370
-1
100
AcDbSpline
210
0
220
0
230
1
70
8
71
3
72
8
73
4
74
0
42
1e-07
43
1e-07
40
0
40
0
40
0
40
0
40
1
40
1
40
1
40
1
10
21.3890457688
20
53.6695739825
30
0
10
21.2624270488
20
53.6018095025
30
0
10
21.2281790488
20
53.4890395025
30
0
10
21.2281790488
20
53.1382905425
30
0
0
SPLINE
5
B1
100
AcDbEntity
8
reimu
6
ByLayer
62
7
370
-1
100
AcDbSpline
210
0
220
0
230
1
70
8
71
3
72
8
73
4
74
0
42
1e-07
43
1e-07
40
0
40
0
40
0
40
0
40
1
40
1
40
1
40
1
10
21.2281790488
20
53.1382905425
30
0
10
21.2281790488
20
52.7203550225
30
0
10
21.2550338488
20
52.6663125425
30
0
10
21.6388123288
20
52.2725738225
30
0
0
SPLINE
5
B2
100
AcDbEntity
8
reimu
6
ByLayer
62
7
370
-1
100
AcDbSpline
210
0
220
0
230
1
70
8
71
3
72
8
73
4
74
0
42
1e-07
43
1e-07
40
0
40
0
40
0
40
0
40
1
40
1
40
1
40
1
10
21.6388123288
20
52.2725738225
30
0
10
22.0913774488
20
51.8082633425
30
0
10
22.1034859288
20
51.7989431825
30
0
10
22.7267788888
20
51.4026239825
30
0
0
SPLINE
5
B3
100
AcDbEntity
8
reimu
6
ByLayer
62
7
370
-1
100
AcDbSpline
210
0
220
0
230
1
70
8
71
3
72
8
73
4
74
0
42
1e-07
43
1e-07
40
0
40
0
40
0
40
0
40
1
40
1
40
1
40
1
10
22.7267788888
20
51.4026239825
30
0
10
23.0471232088
20
51.1989335825
30
0
10
23.1812344888
20
51.0551899025
30
0
10
23.2220788888
20
50.8692239825
30
0
0
SPLINE
5
B4
100
AcDbEntity
8
reimu
6
ByLayer
62
7
370
-1
100
AcDbSpline
210
0
220
0
230
1
70
8
71
3
72
8
73
4
74
0
42
1e-07
43
1e-07
40
0
40
0
40
0
40
0
40
1
40
1
40
1
40
1
10
23.2220788888
20
50.8692239825
30
0
10
23.2528569688
20
50.7290810225
30
0
10
23.2635520888
20
50.6035615025
30
0
10
23.2474790488
20
50.5919407025
30
0
0
SPLINE
5
B5
100
AcDbEntity
8
reimu
6
ByLayer
62
7
370
-1
100
AcDbSpline
210
0
220
0
230
1
70
8
71
3
72
8
73
4
74
0
42
1e-07
43
1e-07
40
0
40
0
40
0
40
0
40
1
40
1
40
1
40
1
10
23.2474790488
20
50.5919407025
30
0
10
23.2314057688
20
50.5803208625
30
0
10
22.7206564888
20
50.5053604625
30
0
10
22.1129457688
20
50.4247238225
30
0
0
SPLINE
5
B6
100
AcDbEntity
8
reimu
6
ByLayer
62
7
370
-1
100
AcDbSpline
210
0
220
0
230
1
70
8
71
3
72
8
73
4
74
0
42
1e-07
43
1e-07
40
0
40
0
40
0
40
0
40
1
40
1
40
1
40
1
10
22.1129457688
20
50.4247238225
30
0
10
20.0706405688
20
50.1537331025
30
0
10
19.7883525688
20
50.0073715025
30
0
10
20.2947290488
20
49.4849239025
30
0
0
SPLINE
5
B7
100
AcDbEntity
8
reimu
6
ByLayer
62
7
370
-1
100
AcDbSpline
210
0
220
0
230
1
70
8
71
3
72
8
73
4
74
0
42
1e-07
43
1e-07
40
0
40
0
40
0
40
0
40
1
40
1
40
1
40
1
10
20.2947290488
20
49.4849239025
30
0
10
20.5430421688
20
49.2287306225
30
0
10
20.6394876088
20
49.1860675025
30
0
10
20.9699457688
20
49.1864738225
30
0
0
SPLINE
5
B8
100
AcDbEntity
8
reimu
6
ByLayer
62
7
370
-1
100
AcDbSpline
210
0
220
0
230
1
70
8
71
3
72
8
73
4
74
0
42
1e-07
43
1e-07
40
0
40
0
40
0
40
0
40
1
40
1
40
1
40
1
10
20.9699457688
20
49.1864738225
30
0
10
21.1820025688
20
49.1867611025
30
0
10
21.4694788888
20
49.2495331025
30
0
10
21.6091790488
20
49.3240571825
30
0
0
SPLINE
5
B9
100
AcDbEntity
8
reimu
6
ByLayer
62
7
370
-1
100
AcDbSpline
210
0
220
0
230
1
70
8
71
3
72
8
73
4
74
0
42
1e-07
43
1e-07
40
0
40
0
40
0
40
0
40
1
40
1
40
1
40
1
10
21.6091790488
20
49.3240571825
30
0
10
21.9145756888
20
49.4869756625
30
0
10
22.9215122488
20
49.5906415025
30
0
10
22.9215122488
20
49.4595239825
30
0
0
SPLINE
5
BA
100
AcDbEntity
8
reimu
6
ByLayer
62
7
370
-1
100
AcDbSpline
210
0
220
0
230
1
70
8
71
3
72
8
73
4
74
0
42
1e-07
43
1e-07
40
0
40
0
40
0
40
0
40
1
40
1
40
1
40
1
10
22.9215122488
20
49.4595239825
30
0
10
22.9215122488
20
49.4107634225
30
0
10
22.7691122488
20
49.1787014225
30
0
10
22.5828456088
20
48.9430571825
30
0
0
SPLINE
5
BB
100
AcDbEntity
8
reimu
6
ByLayer
62
7
370
-1
100
AcDbSpline
210
0
220
0
230
1
70
8
71
3
72
8
73
4
74
0
42
1e-07
43
1e-07
40
0
40
0
40
0
40
0
40
1
40
1
40
1
40
1
10
22.5828456088
20
48.9430571825
30
0
10
22.3882884088
20
48.6969232625
30
0
10
22.2441789688
20
48.4215023825
30
0
10
22.2441789688
20
48.2974739825
30
0
0
SPLINE
5
BC
100
AcDbEntity
8
reimu
6
ByLayer
62
7
370
-1
100
AcDbSpline
210
0
220
0
230
1
70
8
71
3
72
8
73
4
74
0
42
1e-07
43
1e-07
40
0
40
0
40
0
40
0
40
1
40
1
40
1
40
1
10
22.2441789688
20
48.2974739825
30
0
10
22.2441789688
20
48.1787291825
30
0
10
22.0856349688
20
47.7542248625
30
0
10
21.8906956888
20
47.3534407025
30
0
0
SPLINE
5
BD
100
AcDbEntity
8
reimu
6
ByLayer
62
7
370
-1
100
AcDbSpline
210
0
220
0
230
1
70
8
71
3
72
8
73
4
74
0
42
1e-07
43
1e-07
40
0
40
0
40
0
40
0
40
1
40
1
40
1
40
1
10
21.8906956888
20
47.3534407025
30
0
10
21.5506742488
20
46.6543723025
30
0
10
21.5434756888
20
46.6203919025
30
0
10
21.6959623288
20
46.5088905425
30
0
0
SPLINE
5
BE
100
AcDbEntity
8
reimu
6
ByLayer
62
7
370
-1
100
AcDbSpline
210
0
220
0
230
1
70
8
71
3
72
8
73
4
74
0
42
1e-07
43
1e-07
40
0
40
0
40
0
40
0
40
1
40
1
40
1
40
1
10
21.6959623288
20
46.5088905425
30
0
10
22.1137308088
20
46.2034106225
30
0
10
22.6120116088
20
46.5485836625
30
0
10
22.9299789688
20
47.3640239825
30
0
0
SPLINE
5
BF
100
AcDbEntity
8
reimu
6
ByLayer
62
7
370
-1
100
AcDbSpline
210
0
220
0
230
1
70
8
71
3
72
8
73
4
74
0
42
1e-07
43
1e-07
40
0
40
0
40
0
40
0
40
1
40
1
40
1
40
1
10
22.9299789688
20
47.3640239825
30
0
10
23.1066302488
20
47.8170515825
30
0
10
23.1337696888
20
47.8482448625
30
0
10
23.1860956888
20
47.6603572625
30
0
0
SPLINE
5
C0
100
AcDbEntity
8
reimu
6
ByLayer
62
7
370
-1
100
AcDbSpline
210
0
220
0
230
1
70
8
71
3
72
8
73
4
74
0
42
1e-07
43
1e-07
40
0
40
0
40
0
40
0
40
1
40
1
40
1
40
1
10
23.1860956888
20
47.6603572625
30
0
10
23.2182609688
20
47.5448618225
30
0
10
23.2470724888
20
47.1654974225
30
0
10
23.2517124088
20
46.8158073425
30
0
0
SPLINE
5
C1
100
AcDbEntity
8
reimu
6
ByLayer
62
7
370
-1
100
AcDbSpline
210
0
220
0
230
1
70
8
71
3
72
8
73
4
74
0
42
1e-07
43
1e-07
40
0
40
0
40
0
40
0
40
1
40
1
40
1
40
1
10
23.2517124088
20
46.8158073425
30
0
10
23.2589224888
20
46.2726076625
30
0
10
23.2860266488
20
46.1629927025
30
0
10
23.4337456888
20
46.0707405425
30
0
0
SPLINE
5
C2
100
AcDbEntity
8
reimu
6
ByLayer
62
7
370
-1
100
AcDbSpline
210
0
220
0
230
1
70
8
71
3
72
8
73
4
74
0
42
1e-07
43
1e-07
40
0
40
0
40
0
40
0
40
1
40
1
40
1
40
1
10
23.4337456888
20
46.0707405425
30
0
10
23.5860453688
20
45.9756280625
30
0
10
23.6383003288
20
45.9937785425
30
0
10
23.8655457688
20
46.2210239825
30
0
0
SPLINE
5
C3
100
AcDbEntity
8
reimu
6
ByLayer
62
7
370
-1
100
AcDbSpline
210
0
220
0
230
1
70
8
71
3
72
8
73
4
74
0
42
1e-07
43
1e-07
40
0
40
0
40
0
40
0
40
1
40
1
40
1
40
1
10
23.8655457688
20
46.2210239825
30
0
10
24.1067224888
20
46.4622352625
30
0
10
24.1226870488
20
46.5173870225
30
0
10
24.1068456088
20
47.0507572625
30
0
0
SPLINE
5
C4
100
AcDbEntity
8
reimu
6
ByLayer
62
7
370
-1
100
AcDbSpline
210
0
220
0
230
1
70
8
71
3
72
8
73
4
74
0
42
1e-07
43
1e-07
40
0
40
0
40
0
40
0
40
1
40
1
40
1
40
1
10
24.1068456088
20
47.0507572625
30
0
10
24.0844435288
20
47.8050554225
30
0
10
24.0888307288
20
47.8318072625
30
0
10
24.2296123288
20
47.8318072625
30
0
0
SPLINE
5
C5
100
AcDbEntity
8
reimu
6
ByLayer
62
7
370
-1
100
AcDbSpline
210
0
220
0
230
1
70
8
71
3
72
8
73
4
74
0
42
1e-07
43
1e-07
40
0
40
0
40
0
40
0
40
1
40
1
40
1
40
1
10
24.2296123288
20
47.8318072625
30
0
10
24.3614064088
20
47.8318072625
30
0
10
24.3718725688
20
47.7474419825
30
0
10
24.5280624088
20
45.7574738225
30
0
0
SPLINE
5
C6
100
AcDbEntity
8
reimu
6
ByLayer
62
7
370
-1
100
AcDbSpline
210
0
220
0
230
1
70
8
71
3
72
8
73
4
74
0
42
1e-07
43
1e-07
40
0
40
0
40
0
40
0
40
1
40
1
40
1
40
1
10
24.5280624088
20
45.7574738225
30
0
10
24.6187166488
20
44.6024675825
30
0
10
24.8323096888
20
43.4381762225
30
0
10
25.0953290488
20
42.6671407025
30
0
0
SPLINE
5
C7
100
AcDbEntity
8
reimu
6
ByLayer
62
7
370
-1
100
AcDbSpline
210
0
220
0
230
1
70
8
71
3
72
8
73
4
74
0
42
1e-07
43
1e-07
40
0
40
0
40
0
40
0
40
1
40
1
40
1
40
1
10
25.0953290488
20
42.6671407025
30
0
10
25.1668113688
20
42.4575907025
30
0
10
25.2545462488
20
42.1674359825
30
0
10
25.2900624088
20
42.0215572625
30
0
0
SPLINE
5
C8
100
AcDbEntity
8
reimu
6
ByLayer
62
7
370
-1
100
AcDbSpline
210
0
220
0
230
1
70
8
71
3
72
8
73
4
74
0
42
1e-07
43
1e-07
40
0
40
0
40
0
40
0
40
1
40
1
40
1
40
1
10
25.2900624088
20
42.0215572625
30
0
10
25.3255776088
20
41.8756792625
30
0
10
25.4172763288
20
41.6320087025
30
0
10
25.4932622488
20
41.4796905425
30
0
0
SPLINE
5
C9
100
AcDbEntity
8
reimu
6
ByLayer
62
7
370
-1
100
AcDbSpline
210
0
220
0
230
1
70
8
71
3
72
8
73
4
74
0
42
1e-07
43
1e-07
40
0
40
0
40
0
40
0
40
1
40
1
40
1
40
1
10
25.4932622488
20
41.4796905425
30
0
10
25.5692488888
20
41.3273733425
30
0
10
25.6308456088
20
41.1559612625
30
0
10
25.6308456088
20
41.1008073425
30
0
0
SPLINE
5
CA
100
AcDbEntity
8
reimu
6
ByLayer
62
7
370
-1
100
AcDbSpline
210
0
220
0
230
1
70
8
71
3
72
8
73
4
74
0
42
1e-07
43
1e-07
40
0
40
0
40
0
40
0
40
1
40
1
40
1
40
1
10
25.6308456088
20
41.1008073425
30
0
10
25.6308456088
20
40.8889279025
30
0
10
26.5945831288
20
39.0779716625
30
0
10
26.9008456888
20
38.7132071825
30
0
0
SPLINE
5
CB
100
AcDbEntity
8
reimu
6
ByLayer
62
7
370
-1
100
AcDbSpline
210
0
220
0
230
1
70
8
71
3
72
8
73
4
74
0
42
1e-07
43
1e-07
40
0
40
0
40
0
40
0
40
1
40
1
40
1
40
1
10
26.9008456888
20
38.7132071825
30
0
10
26.9480685688
20
38.6569641425
30
0
10
26.9855124088
20
38.5921888625
30
0
10
26.9855124088
20
38.5692739025
30
0
0
SPLINE
5
CC
100
AcDbEntity
8
reimu
6
ByLayer
62
7
370
-1
100
AcDbSpline
210
0
220
0
230
1
70
8
71
3
72
8
73
4
74
0
42
1e-07
43
1e-07
40
0
40
0
40
0
40
0
40
1
40
1
40
1
40
1
10
26.9855124088
20
38.5692739025
30
0
10
26.9855124088
20
38.4972652625
30
0
10
27.5269557688
20
37.7162416625
30
0
10
27.5972289688
20
37.6866239825
30
0
0
SPLINE
5
CD
100
AcDbEntity
8
reimu
6
ByLayer
62
7
370
-1
100
AcDbSpline
210
0
220
0
230
1
70
8
71
3
72
8
73
4
74
0
42
1e-07
43
1e-07
40
0
40
0
40
0
40
0
40
1
40
1
40
1
40
1
10
27.5972289688
20
37.6866239825
30
0
10
27.6340576888
20
37.6711007825
30
0
10
27.6628456888
20
37.6063456625
30
0
10
27.6628456888
20
37.5426907025
30
0
0
SPLINE
5
CE
100
AcDbEntity
8
reimu
6
ByLayer
62
7
370
-1
100
AcDbSpline
210
0
220
0
230
1
70
8
71
3
72
8
73
4
74
0
42
1e-07
43
1e-07
40
0
40
0
40
0
40
0
40
1
40
1
40
1
40
1
10
27.6628456888
20
37.5426907025
30
0
10
27.6628456888
20
37.4790347825
30
0
10
27.7124522488
20
37.3957797425
30
0
10
27.7707957688
20
37.3585406225
30
0
0
SPLINE
5
CF
100
AcDbEntity
8
reimu
6
ByLayer
62
7
370
-1
100
AcDbSpline
210
0
220
0
230
1
70
8
71
3
72
8
73
4
74
0
42
1e-07
43
1e-07
40
0
40
0
40
0
40
0
40
1
40
1
40
1
40
1
10
27.7707957688
20
37.3585406225
30
0
10
27.8291390488
20
37.3213022225
30
0
10
27.9877245688
20
37.1258495825
30
0
10
28.1242790488
20
36.9246239825
30
0
0
LWPOLYLINE
5
D0
100
AcDbEntity
8
reimu
6
ByLayer
62
7
370
-1
100
AcDbPolyline
90
3
70
0
43
0
10
27.6056956888
20
52.2450573425
10
27.2183457688
20
52.0566739025
10
27.0341956888
20
52.2302407025
0
SPLINE
5
D1
100
AcDbEntity
8
reimu
6
ByLayer
62
7
370
-1
100
AcDbSpline
210
0
220
0
230
1
70
8
71
3
72
8
73
4
74
0
42
1e-07
43
1e-07
40
0
40
0
40
0
40
0
40
1
40
1
40
1
40
1
10
27.6586123288
20
35.8493572625
30
0
10
27.2658057688
20
35.4588076625
30
0
10
26.9111215288
20
35.1379912625
30
0
10
26.8712124088
20
35.1360405425
30
0
0
SPLINE
5
D2
100
AcDbEntity
8
reimu
6
ByLayer
62
7
370
-1
100
AcDbSpline
210
0
220
0
230
1
70
8
71
3
72
8
73
4
74
0
42
1e-07
43
1e-07
40
0
40
0
40
0
40
0
40
1
40
1
40
1
40
1
10
26.8712124088
20
35.1360405425
30
0
10
26.7480086488
20
35.1300218225
30
0
10
25.6773744088
20
34.6027468625
30
0
10
25.6244956888
20
34.5222071825
30
0
0
SPLINE
5
D3
100
AcDbEntity
8
reimu
6
ByLayer
62
7
370
-1
100
AcDbSpline
210
0
220
0
230
1
70
8
71
3
72
8
73
4
74
0
42
1e-07
43
1e-07
40
0
40
0
40
0
40
0
40
1
40
1
40
1
40
1
10
25.6244956888
20
34.5222071825
30
0
10
25.5970596088
20
34.4804191025
30
0
10
25.3754755288
20
34.5241682225
30
0
10
25.1334290488
20
34.6195739825
30
0
0
SPLINE
5
D4
100
AcDbEntity
8
reimu
6
ByLayer
62
7
370
-1
100
AcDbSpline
210
0
220
0
230
1
70
8
71
3
72
8
73
4
74
0
42
1e-07
43
1e-07
40
0
40
0
40
0
40
0
40
1
40
1
40
1
40
1
10
25.1334290488
20
34.6195739825
30
0
10
24.5755428088
20
34.8394730225
30
0
10
24.3582859288
20
34.8406555025
30
0
10
24.3015789688
20
34.6238073425
30
0
0
SPLINE
5
D5
100
AcDbEntity
8
reimu
6
ByLayer
62
7
370
-1
100
AcDbSpline
210
0
220
0
230
1
70
8
71
3
72
8
73
4
74
0
42
1e-07
43
1e-07
40
0
40
0
40
0
40
0
40
1
40
1
40
1
40
1
10
24.3015789688
20
34.6238073425
30
0
10
24.2680766488
20
34.4956943825
30
0
10
24.1863307288
20
34.4544739025
30
0
10
23.9650288888
20
34.4544739025
30
0
0
SPLINE
5
D6
100
AcDbEntity
8
reimu
6
ByLayer
62
7
370
-1
100
AcDbSpline
210
0
220
0
230
1
70
8
71
3
72
8
73
4
74
0
42
1e-07
43
1e-07
40
0
40
0
40
0
40
0
40
1
40
1
40
1
40
1
10
23.9650288888
20
34.4544739025
30
0
10
23.8041508888
20
34.4544739025
30
0
10
23.6181069688
20
34.4017691825
30
0
10
23.5522790488
20
34.3359405425
30
0
0
SPLINE
5
D7
100
AcDbEntity
8
reimu
6
ByLayer
62
7
370
-1
100
AcDbSpline
210
0
220
0
230
1
70
8
71
3
72
8
73
4
74
0
42
1e-07
43
1e-07
40
0
40
0
40
0
40
0
40
1
40
1
40
1
40
1
10
23.5522790488
20
34.3359405425
30
0
10
23.4491400088
20
34.2328017425
30
0
10
23.4514159288
20
34.1742700625
30
0
10
23.5607457688
20
33.9126071825
30
0
0
SPLINE
5
D8
100
AcDbEntity
8
reimu
6
ByLayer
62
7
370
-1
100
AcDbSpline
210
0
220
0
230
1
70
8
71
3
72
8
73
4
74
0
42
1e-07
43
1e-07
40
0
40
0
40
0
40
0
40
1
40
1
40
1
40
1
10
23.5607457688
20
33.9126071825
30
0
10
23.6305245688
20
33.7456027025
30
0
10
23.7273777688
20
33.6078071825
30
0
10
23.7766456888
20
33.6078071825
30
0
0
SPLINE
5
D9
100
AcDbEntity
8
reimu
6
ByLayer
62
7
370
-1
100
AcDbSpline
210
0
220
0
230
1
70
8
71
3
72
8
73
4
74
0
42
1e-07
43
1e-07
40
0
40
0
40
0
40
0
40
1
40
1
40
1
40
1
10
23.7766456888
20
33.6078071825
30
0
10
23.8259136088
20
33.6078071825
30
0
10
23.9261668888
20
33.5471858225
30
0
10
24.0010123288
20
33.4723406225
30
0
0
SPLINE
5
DA
100
AcDbEntity
8
reimu
6
ByLayer
62
7
370
-1
100
AcDbSpline
210
0
220
0
230
1
70
8
71
3
72
8
73
4
74
0
42
1e-07
43
1e-07
40
0
40
0
40
0
40
0
40
1
40
1
40
1
40
1
10
24.0010123288
20
33.4723406225
30
0
10
24.1170036088
20
33.3563500625
30
0
10
24.1232750488
20
33.2811314225
30
0
10
24.0391123288
20
32.9664573425
30
0
0
SPLINE
5
DB
100
AcDbEntity
8
reimu
6
ByLayer
62
7
370
-1
100
AcDbSpline
210
0
220
0
230
1
70
8
71
3
72
8
73
4
74
0
42
1e-07
43
1e-07
40
0
40
0
40
0
40
0
40
1
40
1
40
1
40
1
10
24.0391123288
20
32.9664573425
30
0
10
23.8814901688
20
32.3771258225
30
0
10
24.1324718488
20
31.9434434225
30
0
10
24.6550622488
20
31.8996573425
30
0
0
SPLINE
5
DC
100
AcDbEntity
8
reimu
6
ByLayer
62
7
370
-1
100
AcDbSpline
210
0
220
0
230
1
70
8
71
3
72
8
73
4
74
0
42
1e-07
43
1e-07
40
0
40
0
40
0
40
0
40
1
40
1
40
1
40
1
10
24.6550622488
20
31.8996573425
30
0
10
25.1057911288
20
31.8618919025
30
0
10
25.2262303288
20
31.6519096625
30
0
10
24.9598622488
20
31.3683739025
30
0
0
SPLINE
5
DD
100
AcDbEntity
8
reimu
6
ByLayer
62
7
370
-1
100
AcDbSpline
210
0
220
0
230
1
70
8
71
3
72
8
73
4
74
0
42
1e-07
43
1e-07
40
0
40
0
40
0
40
0
40
1
40
1
40
1
40
1
10
24.9598622488
20
31.3683739025
30
0
10
24.7695331288
20
31.1657774225
30
0
10
24.7655976088
20
31.1450111825
30
0
10
24.9005956888
20
30.9958406225
30
0
0
SPLINE
5
DE
100
AcDbEntity
8
reimu
6
ByLayer
62
7
370
-1
100
AcDbSpline
210
0
220
0
230
1
70
8
71
3
72
8
73
4
74
0
42
1e-07
43
1e-07
40
0
40
0
40
0
40
0
40
1
40
1
40
1
40
1
10
24.9005956888
20
30.9958406225
30
0
10
24.9792381688
20
30.9089421425
30
0
10
25.1669407288
20
30.7721647025
30
0
10
25.3175788888
20
30.6910406225
30
0
0
SPLINE
5
DF
100
AcDbEntity
8
reimu
6
ByLayer
62
7
370
-1
100
AcDbSpline
210
0
220
0
230
1
70
8
71
3
72
8
73
4
74
0
42
1e-07
43
1e-07
40
0
40
0
40
0
40
0
40
1
40
1
40
1
40
1
10
25.3175788888
20
30.6910406225
30
0
10
25.4846623288
20
30.6010603025
30
0
10
25.6463707288
20
30.4142272625
30
0
10
25.7324457688
20
30.2126738225
30
0
0
SPLINE
5
E0
100
AcDbEntity
8
reimu
6
ByLayer
62
7
370
-1
100
AcDbSpline
210
0
220
0
230
1
70
8
71
3
72
8
73
4
74
0
42
1e-07
43
1e-07
40
0
40
0
40
0
40
0
40
1
40
1
40
1
40
1
10
25.7324457688
20
30.2126738225
30
0
10
25.8635224888
20
29.9057464625
30
0
10
25.8967058488
20
29.8824739025
30
0
10
26.2171622488
20
29.8824739025
30
0
0
SPLINE
5
E1
100
AcDbEntity
8
reimu
6
ByLayer
62
7
370
-1
100
AcDbSpline
210
0
220
0
230
1
70
8
71
3
72
8
73
4
74
0
42
1e-07
43
1e-07
40
0
40
0
40
0
40
0
40
1
40
1
40
1
40
1
10
26.2171622488
20
29.8824739025
30
0
10
26.4610646488
20
29.8824739025
30
0
10
26.5621790488
20
29.8459696625
30
0
10
26.5621790488
20
29.7597071825
30
0
0
SPLINE
5
E2
100
AcDbEntity
8
reimu
6
ByLayer
62
7
370
-1
100
AcDbSpline
210
0
220
0
230
1
70
8
71
3
72
8
73
4
74
0
42
1e-07
43
1e-07
40
0
40
0
40
0
40
0
40
1
40
1
40
1
40
1
10
26.5621790488
20
29.7597071825
30
0
10
26.5621790488
20
29.6926051025
30
0
10
26.5259450488
20
29.6147654225
30
0
10
26.4796288888
20
29.5861406225
30
0
0
SPLINE
5
E3
100
AcDbEntity
8
reimu
6
ByLayer
62
7
370
-1
100
AcDbSpline
210
0
220
0
230
1
70
8
71
3
72
8
73
4
74
0
42
1e-07
43
1e-07
40
0
40
0
40
0
40
0
40
1
40
1
40
1
40
1
10
26.4796288888
20
29.5861406225
30
0
10
26.4333129688
20
29.5575158225
30
0
10
26.3562264088
20
29.4600184625
30
0
10
26.3081788888
20
29.3702407025
30
0
0
SPLINE
5
E4
100
AcDbEntity
8
reimu
6
ByLayer
62
7
370
-1
100
AcDbSpline
210
0
220
0
230
1
70
8
71
3
72
8
73
4
74
0
42
1e-07
43
1e-07
40
0
40
0
40
0
40
0
40
1
40
1
40
1
40
1
10
26.3081788888
20
29.3702407025
30
0
10
26.2375886488
20
29.2383415025
30
0
10
26.2610913688
20
29.1726347825
30
0
10
26.4330624088
20
29.0231073425
30
0
0
SPLINE
5
E5
100
AcDbEntity
8
reimu
6
ByLayer
62
7
370
-1
100
AcDbSpline
210
0
220
0
230
1
70
8
71
3
72
8
73
4
74
0
42
1e-07
43
1e-07
40
0
40
0
40
0
40
0
40
1
40
1
40
1
40
1
10
26.4330624088
20
29.0231073425
30
0
10
26.5501156888
20
28.9213312625
30
0
10
26.7218913688
20
28.6940587025
30
0
10
26.8140624088
20
28.5172238225
30
0
0
LWPOLYLINE
5
E6
100
AcDbEntity
8
reimu
6
ByLayer
62
7
370
-1
100
AcDbPolyline
90
3
70
0
43
0
10
28.1242790488
20
36.9246239825
10
28.3719290488
20
36.5584406225
10
27.6586123288
20
35.8493572625
0
SPLINE
5
E7
100
AcDbEntity
8
reimu
6
ByLayer
62
7
370
-1
100
AcDbSpline
210
0
220
0
230
1
70
8
71
3
72
8
73
4
74
0
42
1e-07
43
1e-07
40
0
40
0
40
0
40
0
40
1
40
1
40
1
40
1
10
26.8055956888
20
28.0727239025
30
0
10
26.6216136088
20
27.9438571025
30
0
10
26.6558846488
20
27.7658073425
30
0
10
26.8648622488
20
27.7658073425
30
0
0
SPLINE
5
E8
100
AcDbEntity
8
reimu
6
ByLayer
62
7
370
-1
100
AcDbSpline
210
0
220
0
230
1
70
8
71
3
72
8
73
4
74
0
42
1e-07
43
1e-07
40
0
40
0
40
0
40
0
40
1
40
1
40
1
40
1
10
26.8648622488
20
27.7658073425
30
0
10
26.9319643288
20
27.7658073425
30
0
10
26.9855124088
20
27.7086573425
30
0
10
26.9855124088
20
27.6388072625
30
0
0
SPLINE
5
E9
100
AcDbEntity
8
reimu
6
ByLayer
62
7
370
-1
100
AcDbSpline
210
0
220
0
230
1
70
8
71
3
72
8
73
4
74
0
42
1e-07
43
1e-07
40
0
40
0
40
0
40
0
40
1
40
1
40
1
40
1
10
26.9855124088
20
27.6388072625
30
0
10
26.9855124088
20
27.5689571825
30
0
10
27.0245592088
20
27.5118071825
30
0
10
27.0701788888
20
27.5118071825
30
0
0
SPLINE
5
EA
100
AcDbEntity
8
reimu
6
ByLayer
62
7
370
-1
100
AcDbSpline
210
0
220
0
230
1
70
8
71
3
72
8
73
4
74
0
42
1e-07
43
1e-07
40
0
40
0
40
0
40
0
40
1
40
1
40
1
40
1
10
27.0701788888
20
27.5118071825
30
0
10
27.1157995288
20
27.5118071825
30
0
10
27.2291524888
20
27.3594071825
30
0
10
27.3241790488
20
27.1731405425
30
0
0
SPLINE
5
EB
100
AcDbEntity
8
reimu
6
ByLayer
62
7
370
-1
100
AcDbSpline
210
0
220
0
230
1
70
8
71
3
72
8
73
4
74
0
42
1e-07
43
1e-07
40
0
40
0
40
0
40
0
40
1
40
1
40
1
40
1
10
27.3241790488
20
27.1731405425
30
0
10
27.4192048888
20
26.9868739025
30
0
10
27.5346758488
20
26.8344739025
30
0
10
27.5802957688
20
26.8344739025
30
0
0
SPLINE
5
EC
100
AcDbEntity
8
reimu
6
ByLayer
62
7
370
-1
100
AcDbSpline
210
0
220
0
230
1
70
8
71
3
72
8
73
4
74
0
42
1e-07
43
1e-07
40
0
40
0
40
0
40
0
40
1
40
1
40
1
40
1
10
27.5802957688
20
26.8344739025
30
0
10
27.6259161688
20
26.8344739025
30
0
10
27.6628456888
20
26.6660476625
30
0
10
27.6628456888
20
26.4598238225
30
0
0
SPLINE
5
ED
100
AcDbEntity
8
reimu
6
ByLayer
62
7
370
-1
100
AcDbSpline
210
0
220
0
230
1
70
8
71
3
72
8
73
4
74
0
42
1e-07
43
1e-07
40
0
40
0
40
0
40
0
40
1
40
1
40
1
40
1
10
27.6628456888
20
26.4598238225
30
0
10
27.6628456888
20
26.0357097425
30
0
10
27.8223868888
20
25.8184739825
30
0
10
28.1327457688
20
25.8184739825
30
0
0
SPLINE
5
EE
100
AcDbEntity
8
reimu
6
ByLayer
62
7
370
-1
100
AcDbSpline
210
0
220
0
230
1
70
8
71
3
72
8
73
4
74
0
42
1e-07
43
1e-07
40
0
40
0
40
0
40
0
40
1
40
1
40
1
40
1
10
28.1327457688
20
25.8184739825
30
0
10
28.2444026488
20
25.8184739825
30
0
10
28.4890284088
20
25.7385086225
30
0
10
28.6767290488
20
25.6406738225
30
0
0
SPLINE
5
EF
100
AcDbEntity
8
reimu
6
ByLayer
62
7
370
-1
100
AcDbSpline
210
0
220
0
230
1
70
8
71
3
72
8
73
4
74
0
42
1e-07
43
1e-07
40
0
40
0
40
0
40
0
40
1
40
1
40
1
40
1
10
28.6767290488
20
25.6406738225
30
0
10
29.0441721688
20
25.4491519025
30
0
10
29.1142862488
20
25.2220060625
30
0
10
28.9180288888
20
24.8596238225
30
0
0
SPLINE
5
F0
100
AcDbEntity
8
reimu
6
ByLayer
62
7
370
-1
100
AcDbSpline
210
0
220
0
230
1
70
8
71
3
72
8
73
4
74
0
42
1e-07
43
1e-07
40
0
40
0
40
0
40
0
40
1
40
1
40
1
40
1
10
28.9180288888
20
24.8596238225
30
0
10
28.8236779288
20
24.6854071025
30
0
10
28.6661680888
20
24.1845943025
30
0
10
28.3676956888
20
23.1091406225
30
0
0
SPLINE
5
F1
100
AcDbEntity
8
reimu
6
ByLayer
62
7
370
-1
100
AcDbSpline
210
0
220
0
230
1
70
8
71
3
72
8
73
4
74
0
42
1e-07
43
1e-07
40
0
40
0
40
0
40
0
40
1
40
1
40
1
40
1
10
28.3676956888
20
23.1091406225
30
0
10
28.2966156088
20
22.8530272625
30
0
10
28.2108530488
20
22.6053739025
30
0
10
28.1771956888
20
22.5588071825
30
0
0
SPLINE
5
F2
100
AcDbEntity
8
reimu
6
ByLayer
62
7
370
-1
100
AcDbSpline
210
0
220
0
230
1
70
8
71
3
72
8
73
4
74
0
42
1e-07
43
1e-07
40
0
40
0
40
0
40
0
40
1
40
1
40
1
40
1
10
28.1771956888
20
22.5588071825
30
0
10
28.1435376088
20
22.5122407025
30
0
10
28.0124620888
20
22.1312407025
30
0
10
27.8850957688
20
21.7121407025
30
0
0
SPLINE
5
F3
100
AcDbEntity
8
reimu
6
ByLayer
62
7
370
-1
100
AcDbSpline
210
0
220
0
230
1
70
8
71
3
72
8
73
4
74
0
42
1e-07
43
1e-07
40
0
40
0
40
0
40
0
40
1
40
1
40
1
40
1
10
27.8850957688
20
21.7121407025
30
0
10
27.7577299288
20
21.2930407025
30
0
10
27.5794524088
20
20.7584248625
30
0
10
27.4892788888
20
20.5246905425
30
0
0
SPLINE
5
F4
100
AcDbEntity
8
reimu
6
ByLayer
62
7
370
-1
100
AcDbSpline
210
0
220
0
230
1
70
8
71
3
72
8
73
4
74
0
42
1e-07
43
1e-07
40
0
40
0
40
0
40
0
40
1
40
1
40
1
40
1
10
27.4892788888
20
20.5246905425
30
0
10
27.3991056088
20
20.2909564625
30
0
10
27.3241790488
20
20.0626274225
30
0
10
27.3241790488
20
20.0166907025
30
0
0
SPLINE
5
F5
100
AcDbEntity
8
reimu
6
ByLayer
62
7
370
-1
100
AcDbSpline
210
0
220
0
230
1
70
8
71
3
72
8
73
4
74
0
42
1e-07
43
1e-07
40
0
40
0
40
0
40
0
40
1
40
1
40
1
40
1
10
27.3241790488
20
20.0166907025
30
0
10
27.3241790488
20
19.9707470225
30
0
10
27.2194036888
20
19.8858059825
30
0
10
27.0913456888
20
19.8283072625
30
0
0
SPLINE
5
F6
100
AcDbEntity
8
reimu
6
ByLayer
62
7
370
-1
100
AcDbSpline
210
0
220
0
230
1
70
8
71
3
72
8
73
4
74
0
42
1e-07
43
1e-07
40
0
40
0
40
0
40
0
40
1
40
1
40
1
40
1
10
27.0913456888
20
19.8283072625
30
0
10
26.9632869688
20
19.7708085425
30
0
10
26.6596797688
20
19.5391163825
30
0
10
26.4161289688
20
19.3139572625
30
0
0
SPLINE
5
F7
100
AcDbEntity
8
reimu
6
ByLayer
62
7
370
-1
100
AcDbSpline
210
0
220
0
230
1
70
8
71
3
72
8
73
4
74
0
42
1e-07
43
1e-07
40
0
40
0
40
0
40
0
40
1
40
1
40
1
40
1
10
26.4161289688
20
19.3139572625
30
0
10
25.9842511288
20
18.9146896625
30
0
10
25.9758859288
20
18.8982100625
30
0
10
26.0647622488
20
18.6154571825
30
0
0
SPLINE
5
F8
100
AcDbEntity
8
reimu
6
ByLayer
62
7
370
-1
100
AcDbSpline
210
0
220
0
230
1
70
8
71
3
72
8
73
4
74
0
42
1e-07
43
1e-07
40
0
40
0
40
0
40
0
40
1
40
1
40
1
40
1
10
26.0647622488
20
18.6154571825
30
0
10
26.2376176888
20
18.0655370225
30
0
10
26.2455379288
20
17.9401084625
30
0
10
26.1176788888
20
17.7941906225
30
0
0
SPLINE
5
F9
100
AcDbEntity
8
reimu
6
ByLayer
62
7
370
-1
100
AcDbSpline
210
0
220
0
230
1
70
8
71
3
72
8
73
4
74
0
42
1e-07
43
1e-07
40
0
40
0
40
0
40
0
40
1
40
1
40
1
40
1
10
26.1176788888
20
17.7941906225
30
0
10
25.8204136888
20
17.4549345425
30
0
10
25.7017068088
20
17.0950876625
30
0
10
25.7959456888
20
16.8247571825
30
0
0
SPLINE
5
FA
100
AcDbEntity
8
reimu
6
ByLayer
62
7
370
-1
100
AcDbSpline
210
0
220
0
230
1
70
8
71
3
72
8
73
4
74
0
42
1e-07
43
1e-07
40
0
40
0
40
0
40
0
40
1
40
1
40
1
40
1
10
25.7959456888
20
16.8247571825
30
0
10
25.9200067288
20
16.4688727025
30
0
10
25.9078452088
20
16.2614428625
30
0
10
25.7578456888
20
16.1114407025
30
0
0
SPLINE
5
FB
100
AcDbEntity
8
reimu
6
ByLayer
62
7
370
-1
100
AcDbSpline
210
0
220
0
230
1
70
8
71
3
72
8
73
4
74
0
42
1e-07
43
1e-07
40
0
40
0
40
0
40
0
40
1
40
1
40
1
40
1
10
25.7578456888
20
16.1114407025
30
0
10
25.6879956088
20
16.0415939825
30
0
10
25.6318819288
20
15.8826883025
30
0
10
25.6308456088
20
15.7579571825
30
0
0
SPLINE
5
FC
100
AcDbEntity
8
reimu
6
ByLayer
62
7
370
-1
100
AcDbSpline
210
0
220
0
230
1
70
8
71
3
72
8
73
4
74
0
42
1e-07
43
1e-07
40
0
40
0
40
0
40
0
40
1
40
1
40
1
40
1
10
25.6308456088
20
15.7579571825
30
0
10
25.6298107288
20
15.6332263025
30
0
10
25.5525751288
20
15.4362206225
30
0
10
25.4615124088
20
15.3198071825
30
0
0
SPLINE
5
FD
100
AcDbEntity
8
reimu
6
ByLayer
62
7
370
-1
100
AcDbSpline
210
0
220
0
230
1
70
8
71
3
72
8
73
4
74
0
42
1e-07
43
1e-07
40
0
40
0
40
0
40
0
40
1
40
1
40
1
40
1
10
25.4615124088
20
15.3198071825
30
0
10
25.3704496888
20
15.2033872625
30
0
10
25.2952032088
20
15.0700406225
30
0
10
25.2942957688
20
15.0234739025
30
0
0
SPLINE
5
FE
100
AcDbEntity
8
reimu
6
ByLayer
62
7
370
-1
100
AcDbSpline
210
0
220
0
230
1
70
8
71
3
72
8
73
4
74
0
42
1e-07
43
1e-07
40
0
40
0
40
0
40
0
40
1
40
1
40
1
40
1
10
25.2942957688
20
15.0234739025
30
0
10
25.2933892888
20
14.9769071825
30
0
10
25.2205672888
20
14.7864071825
30
0
10
25.1313122488
20
14.6001405425
30
0
0
SPLINE
5
FF
100
AcDbEntity
8
reimu
6
ByLayer
62
7
370
-1
100
AcDbSpline
210
0
220
0
230
1
70
8
71
3
72
8
73
4
74
0
42
1e-07
43
1e-07
40
0
40
0
40
0
40
0
40
1
40
1
40
1
40
1
10
25.1313122488
20
14.6001405425
30
0
10
25.0420574488
20
14.4138739025
30
0
10
24.8505163288
20
14.0138205425
30
0
10
24.7058623288
20
13.7111407025
30
0
0
SPLINE
5
100
100
AcDbEntity
8
reimu
6
ByLayer
62
7
370
-1
100
AcDbSpline
210
0
220
0
230
1
70
8
71
3
72
8
73
4
74
0
42
1e-07
43
1e-07
40
0
40
0
40
0
40
0
40
1
40
1
40
1
40
1
10
24.7058623288
20
13.7111407025
30
0
10
24.5612083288
20
13.4084539025
30
0
10
24.3481855288
20
13.0084072625
30
0
10
24.2317288888
20
12.8221406225
30
0
0
SPLINE
5
101
100
AcDbEntity
8
reimu
6
ByLayer
62
7
370
-1
100
AcDbSpline
210
0
220
0
230
1
70
8
71
3
72
8
73
4
74
0
42
1e-07
43
1e-07
40
0
40
0
40
0
40
0
40
1
40
1
40
1
40
1
10
24.2317288888
20
12.8221406225
30
0
10
24.1152717688
20
12.6358739825
30
0
10
23.9950632088
20
12.4303303025
30
0
10
23.9650288888
20
12.3649406225
30
0
0
SPLINE
5
102
100
AcDbEntity
8
reimu
6
ByLayer
62
7
370
-1
100
AcDbSpline
210
0
220
0
230
1
70
8
71
3
72
8
73
4
74
0
42
1e-07
43
1e-07
40
0
40
0
40
0
40
0
40
1
40
1
40
1
40
1
10
23.9650288888
20
12.3649406225
30
0
10
23.8965235288
20
12.2157986225
30
0
10
24.0704803288
20
11.5498106225
30
0
10
24.2655957688
20
11.2134739025
30
0
0
SPLINE
5
103
100
AcDbEntity
8
reimu
6
ByLayer
62
7
370
-1
100
AcDbSpline
210
0
220
0
230
1
70
8
71
3
72
8
73
4
74
0
42
1e-07
43
1e-07
40
0
40
0
40
0
40
0
40
1
40
1
40
1
40
1
10
24.2655957688
20
11.2134739025
30
0
10
24.3929980888
20
10.9938554225
30
0
10
24.4740585688
20
10.9537605425
30
0
10
24.8730789688
20
10.9107907025
30
0
0
SPLINE
5
104
100
AcDbEntity
8
reimu
6
ByLayer
62
7
370
-1
100
AcDbSpline
210
0
220
0
230
1
70
8
71
3
72
8
73
4
74
0
42
1e-07
43
1e-07
40
0
40
0
40
0
40
0
40
1
40
1
40
1
40
1
10
24.8730789688
20
10.9107907025
30
0
10
25.5418737688
20
10.8387698225
30
0
10
27.0504381688
20
10.8246947825
30
0
10
27.6310956088
20
10.8853905425
30
0
0
SPLINE
5
105
100
AcDbEntity
8
reimu
6
ByLayer
62
7
370
-1
100
AcDbSpline
210
0
220
0
230
1
70
8
71
3
72
8
73
4
74
0
42
1e-07
43
1e-07
40
0
40
0
40
0
40
0
40
1
40
1
40
1
40
1
10
27.6310956088
20
10.8853905425
30
0
10
28.1257358488
20
10.9370913425
30
0
10
28.1335944088
20
10.9420833425
30
0
10
28.3232457688
20
11.3298907025
30
0
0
SPLINE
5
106
100
AcDbEntity
8
reimu
6
ByLayer
62
7
370
-1
100
AcDbSpline
210
0
220
0
230
1
70
8
71
3
72
8
73
4
74
0
42
1e-07
43
1e-07
40
0
40
0
40
0
40
0
40
1
40
1
40
1
40
1
10
28.3232457688
20
11.3298907025
30
0
10
28.5023712088
20
11.6961652625
30
0
10
28.5135343288
20
11.8138418225
30
0
10
28.4925789688
20
13.1184739025
30
0
0
SPLINE
5
107
100
AcDbEntity
8
reimu
6
ByLayer
62
7
370
-1
100
AcDbSpline
210
0
220
0
230
1
70
8
71
3
72
8
73
4
74
0
42
1e-07
43
1e-07
40
0
40
0
40
0
40
0
40
1
40
1
40
1
40
1
10
28.4925789688
20
13.1184739025
30
0
10
28.4709868888
20
14.4627705425
30
0
10
28.5963124888
20
15.6619622225
30
0
10
28.7783289688
20
15.8659072625
30
0
0
SPLINE
5
108
100
AcDbEntity
8
reimu
6
ByLayer
62
7
370
-1
100
AcDbSpline
210
0
220
0
230
1
70
8
71
3
72
8
73
4
74
0
42
1e-07
43
1e-07
40
0
40
0
40
0
40
0
40
1
40
1
40
1
40
1
10
28.7783289688
20
15.8659072625
30
0
10
28.8178113688
20
15.9101438225
30
0
10
28.8481790488
20
16.0469822225
30
0
10
28.8481790488
20
16.1685907025
30
0
0
SPLINE
5
109
100
AcDbEntity
8
reimu
6
ByLayer
62
7
370
-1
100
AcDbSpline
210
0
220
0
230
1
70
8
71
3
72
8
73
4
74
0
42
1e-07
43
1e-07
40
0
40
0
40
0
40
0
40
1
40
1
40
1
40
1
10
28.8481790488
20
16.1685907025
30
0
10
28.8481790488
20
16.2901989425
30
0
10
28.9148536888
20
16.4652422225
30
0
10
28.9963456888
20
16.5580571825
30
0
0
SPLINE
5
10A
100
AcDbEntity
8
reimu
6
ByLayer
62
7
370
-1
100
AcDbSpline
210
0
220
0
230
1
70
8
71
3
72
8
73
4
74
0
42
1e-07
43
1e-07
40
0
40
0
40
0
40
0
40
1
40
1
40
1
40
1
10
28.9963456888
20
16.5580571825
30
0
10
29.1565411288
20
16.7405104625
30
0
10
29.2083165688
20
16.8161788625
30
0
10
29.6271122488
20
17.5211407025
30
0
0
SPLINE
5
10B
100
AcDbEntity
8
reimu
6
ByLayer
62
7
370
-1
100
AcDbSpline
210
0
220
0
230
1
70
8
71
3
72
8
73
4
74
0
42
1e-07
43
1e-07
40
0
40
0
40
0
40
0
40
1
40
1
40
1
40
1
10
29.6271122488
20
17.5211407025
30
0
10
29.9692048888
20
18.0969823025
30
0
10
30.0016526488
20
18.6536690225
30
0
10
29.7117789688
20
18.9435405425
30
0
0
LWPOLYLINE
5
10C
100
AcDbEntity
8
reimu
6
ByLayer
62
7
370
-1
100
AcDbPolyline
90
3
70
0
43
0
10
26.8140624088
20
28.5172238225
10
26.9812790488
20
28.1954906225
10
26.8055956888
20
28.0727239025
0
SPLINE
5
10D
100
AcDbEntity
8
reimu
6
ByLayer
62
7
370
-1
100
AcDbSpline
210
0
220
0
230
1
70
8
71
3
72
8
73
4
74
0
42
1e-07
43
1e-07
40
0
40
0
40
0
40
0
40
1
40
1
40
1
40
1
10
29.7054290488
20
19.4896406225
30
0
10
29.8033293688
20
19.6880383025
30
0
10
29.9616079288
20
20.0209204625
30
0
10
30.0567957688
20
20.2304738225
30
0
0
SPLINE
5
10E
100
AcDbEntity
8
reimu
6
ByLayer
62
7
370
-1
100
AcDbSpline
210
0
220
0
230
1
70
8
71
3
72
8
73
4
74
0
42
1e-07
43
1e-07
40
0
40
0
40
0
40
0
40
1
40
1
40
1
40
1
10
30.0567957688
20
20.2304738225
30
0
10
30.1519833688
20
20.4400204625
30
0
10
30.2627376088
20
20.6686204625
30
0
10
30.3023289688
20
20.7384739025
30
0
0
SPLINE
5
10F
100
AcDbEntity
8
reimu
6
ByLayer
62
7
370
-1
100
AcDbSpline
210
0
220
0
230
1
70
8
71
3
72
8
73
4
74
0
42
1e-07
43
1e-07
40
0
40
0
40
0
40
0
40
1
40
1
40
1
40
1
10
30.3023289688
20
20.7384739025
30
0
10
30.3711624088
20
20.8599129425
30
0
10
30.4646505688
20
21.0566512625
30
0
10
30.5838456088
20
21.3311407025
30
0
0
SPLINE
5
110
100
AcDbEntity
8
reimu
6
ByLayer
62
7
370
-1
100
AcDbSpline
210
0
220
0
230
1
70
8
71
3
72
8
73
4
74
0
42
1e-07
43
1e-07
40
0
40
0
40
0
40
0
40
1
40
1
40
1
40
1
10
30.5838456088
20
21.3311407025
30
0
10
30.6141787288
20
21.4009871825
30
0
10
30.8772144088
20
21.9153947825
30
0
10
31.1680456888
20
22.4741407025
30
0
0
SPLINE
5
111
100
AcDbEntity
8
reimu
6
ByLayer
62
7
370
-1
100
AcDbSpline
210
0
220
0
230
1
70
8
71
3
72
8
73
4
74
0
42
1e-07
43
1e-07
40
0
40
0
40
0
40
0
40
1
40
1
40
1
40
1
10
31.1680456888
20
22.4741407025
30
0
10
31.5374762488
20
23.1838979825
30
0
10
31.7457676888
20
23.4970730225
30
0
10
31.8601956088
20
23.5134239825
30
0
0
SPLINE
5
112
100
AcDbEntity
8
reimu
6
ByLayer
62
7
370
-1
100
AcDbSpline
210
0
220
0
230
1
70
8
71
3
72
8
73
4
74
0
42
1e-07
43
1e-07
40
0
40
0
40
0
40
0
40
1
40
1
40
1
40
1
10
31.8601956088
20
23.5134239825
30
0
10
31.9502781688
20
23.5262932625
30
0
10
32.1662452888
20
23.5791794225
30
0
10
32.3406789688
20
23.6319573425
30
0
0
SPLINE
5
113
100
AcDbEntity
8
reimu
6
ByLayer
62
7
370
-1
100
AcDbSpline
210
0
220
0
230
1
70
8
71
3
72
8
73
4
74
0
42
1e-07
43
1e-07
40
0
40
0
40
0
40
0
40
1
40
1
40
1
40
1
10
32.3406789688
20
23.6319573425
30
0
10
32.6149488088
20
23.7149440625
30
0
10
32.6816181688
20
23.7085502225
30
0
10
32.8317456088
20
23.5726905425
30
0
0
SPLINE
5
114
100
AcDbEntity
8
reimu
6
ByLayer
62
7
370
-1
100
AcDbSpline
210
0
220
0
230
1
70
8
71
3
72
8
73
4
74
0
42
1e-07
43
1e-07
40
0
40
0
40
0
40
0
40
1
40
1
40
1
40
1
10
32.8317456088
20
23.5726905425
30
0
10
33.0633408088
20
23.3630966225
30
0
10
33.5490187288
20
23.3796100625
30
0
10
33.7905957688
20
23.6065571825
30
0
0
SPLINE
5
115
100
AcDbEntity
8
reimu
6
ByLayer
62
7
370
-1
100
AcDbSpline
210
0
220
0
230
1
70
8
71
3
72
8
73
4
74
0
42
1e-07
43
1e-07
40
0
40
0
40
0
40
0
40
1
40
1
40
1
40
1
10
33.7905957688
20
23.6065571825
30
0
10
34.0730517688
20
23.8719160625
30
0
10
34.3704172888
20
23.8769114225
30
0
10
34.4340624088
20
23.6171407025
30
0
0
SPLINE
5
116
100
AcDbEntity
8
reimu
6
ByLayer
62
7
370
-1
100
AcDbSpline
210
0
220
0
230
1
70
8
71
3
72
8
73
4
74
0
42
1e-07
43
1e-07
40
0
40
0
40
0
40
0
40
1
40
1
40
1
40
1
10
34.4340624088
20
23.6171407025
30
0
10
34.4801812888
20
23.4289029425
30
0
10
34.5366424888
20
23.4031439825
30
0
10
34.9378288888
20
23.3800739825
30
0
0
SPLINE
5
117
100
AcDbEntity
8
reimu
6
ByLayer
62
7
370
-1
100
AcDbSpline
210
0
220
0
230
1
70
8
71
3
72
8
73
4
74
0
42
1e-07
43
1e-07
40
0
40
0
40
0
40
0
40
1
40
1
40
1
40
1
10
34.9378288888
20
23.3800739825
30
0
10
35.1859476088
20
23.3658093425
30
0
10
35.5074568888
20
23.3966075825
30
0
10
35.6532624088
20
23.4478072625
30
0
0
SPLINE
5
118
100
AcDbEntity
8
reimu
6
ByLayer
62
7
370
-1
100
AcDbSpline
210
0
220
0
230
1
70
8
71
3
72
8
73
4
74
0
42
1e-07
43
1e-07
40
0
40
0
40
0
40
0
40
1
40
1
40
1
40
1
10
35.6532624088
20
23.4478072625
30
0
10
35.8849672888
20
23.5291684625
30
0
10
35.9327361688
20
23.5185614225
30
0
10
36.0342624088
20
23.3673739025
30
0
0
SPLINE
5
119
100
AcDbEntity
8
reimu
6
ByLayer
62
7
370
-1
100
AcDbSpline
210
0
220
0
230
1
70
8
71
3
72
8
73
4
74
0
42
1e-07
43
1e-07
40
0
40
0
40
0
40
0
40
1
40
1
40
1
40
1
10
36.0342624088
20
23.3673739025
30
0
10
36.1807694488
20
23.1491980625
30
0
10
36.6408055288
20
23.1354921425
30
0
10
36.9867624088
20
23.3398571825
30
0
0
SPLINE
5
11A
100
AcDbEntity
8
reimu
6
ByLayer
62
7
370
-1
100
AcDbSpline
210
0
220
0
230
1
70
8
71
3
72
8
73
4
74
0
42
1e-07
43
1e-07
40
0
40
0
40
0
40
0
40
1
40
1
40
1
40
1
10
36.9867624088
20
23.3398571825
30
0
10
37.1964667288
20
23.4637279025
30
0
10
37.2618336088
20
23.4697528625
30
0
10
37.4122123288
20
23.3758406225
30
0
0
SPLINE
5
11B
100
AcDbEntity
8
reimu
6
ByLayer
62
7
370
-1
100
AcDbSpline
210
0
220
0
230
1
70
8
71
3
72
8
73
4
74
0
42
1e-07
43
1e-07
40
0
40
0
40
0
40
0
40
1
40
1
40
1
40
1
10
37.4122123288
20
23.3758406225
30
0
10
37.5395800888
20
23.2963012625
30
0
10
37.6153161688
20
23.2910757425
30
0
10
37.6810288888
20
23.3567906225
30
0
0
SPLINE
5
11C
100
AcDbEntity
8
reimu
6
ByLayer
62
7
370
-1
100
AcDbSpline
210
0
220
0
230
1
70
8
71
3
72
8
73
4
74
0
42
1e-07
43
1e-07
40
0
40
0
40
0
40
0
40
1
40
1
40
1
40
1
10
37.6810288888
20
23.3567906225
30
0
10
37.7314185688
20
23.4071774225
30
0
10
37.8351432088
20
23.4478072625
30
0
10
37.9117456888
20
23.4478072625
30
0
0
SPLINE
5
11D
100
AcDbEntity
8
reimu
6
ByLayer
62
7
370
-1
100
AcDbSpline
210
0
220
0
230
1
70
8
71
3
72
8
73
4
74
0
42
1e-07
43
1e-07
40
0
40
0
40
0
40
0
40
1
40
1
40
1
40
1
10
37.9117456888
20
23.4478072625
30
0
10
37.9883486488
20
23.4478072625
30
0
10
38.1231928888
20
23.5273567025
30
0
10
38.2101957688
20
23.6234906225
30
0
0
SPLINE
5
11E
100
AcDbEntity
8
reimu
6
ByLayer
62
7
370
-1
100
AcDbSpline
210
0
220
0
230
1
70
8
71
3
72
8
73
4
74
0
42
1e-07
43
1e-07
40
0
40
0
40
0
40
0
40
1
40
1
40
1
40
1
10
38.2101957688
20
23.6234906225
30
0
10
38.3434380088
20
23.7707224625
30
0
10
38.4295243288
20
23.7896642225
30
0
10
38.7605289688
20
23.7441405425
30
0
0
SPLINE
5
11F
100
AcDbEntity
8
reimu
6
ByLayer
62
7
370
-1
100
AcDbSpline
210
0
220
0
230
1
70
8
71
3
72
8
73
4
74
0
42
1e-07
43
1e-07
40
0
40
0
40
0
40
0
40
1
40
1
40
1
40
1
10
38.7605289688
20
23.7441405425
30
0
10
39.0695095288
20
23.7016447025
30
0
10
39.1839124888
20
23.7209114225
30
0
10
39.2981623288
20
23.8351571825
30
0
0
SPLINE
5
120
100
AcDbEntity
8
reimu
6
ByLayer
62
7
370
-1
100
AcDbSpline
210
0
220
0
230
1
70
8
71
3
72
8
73
4
74
0
42
1e-07
43
1e-07
40
0
40
0
40
0
40
0
40
1
40
1
40
1
40
1
10
39.2981623288
20
23.8351571825
30
0
10
39.3780808888
20
23.9150757425
30
0
10
39.6221402488
20
24.0128975825
30
0
10
39.8400290488
20
24.0531739025
30
0
0
SPLINE
5
121
100
AcDbEntity
8
reimu
6
ByLayer
62
7
370
-1
100
AcDbSpline
210
0
220
0
230
1
70
8
71
3
72
8
73
4
74
0
42
1e-07
43
1e-07
40
0
40
0
40
0
40
0
40
1
40
1
40
1
40
1
10
39.8400290488
20
24.0531739025
30
0
10
40.3400995288
20
24.1456103825
30
0
10
40.4493290488
20
24.2891615825
30
0
10
40.3967124088
20
24.7897739825
30
0
0
SPLINE
5
122
100
AcDbEntity
8
reimu
6
ByLayer
62
7
370
-1
100
AcDbSpline
210
0
220
0
230
1
70
8
71
3
72
8
73
4
74
0
42
1e-07
43
1e-07
40
0
40
0
40
0
40
0
40
1
40
1
40
1
40
1
10
40.3967124088
20
24.7897739825
30
0
10
40.3446741688
20
25.2848647025
30
0
10
40.4227089688
20
25.3957183025
30
0
10
40.8602623288
20
25.4544071825
30
0
0
LWPOLYLINE
5
123
100
AcDbEntity
8
reimu
6
ByLayer
62
7
370
-1
100
AcDbPolyline
90
3
70
0
43
0
10
29.7117789688
20
18.9435405425
10
29.5276288888
20
19.1276906225
10
29.7054290488
20
19.4896406225
0
SPLINE
5
124
100
AcDbEntity
8
reimu
6
ByLayer
62
7
370
-1
100
AcDbSpline
210
0
220
0
230
1
70
8
71
3
72
8
73
4
74
0
42
1e-07
43
1e-07
40
0
40
0
40
0
40
0
40
1
40
1
40
1
40
1
10
41.2095122488
20
25.1432572625
30
0
10
41.2095122488
20
24.8480150225
30
0
10
41.1491863288
20
24.7115879825
30
0
10
40.8708456088
20
24.3791407025
30
0
0
SPLINE
5
125
100
AcDbEntity
8
reimu
6
ByLayer
62
7
370
-1
100
AcDbSpline
210
0
220
0
230
1
70
8
71
3
72
8
73
4
74
0
42
1e-07
43
1e-07
40
0
40
0
40
0
40
0
40
1
40
1
40
1
40
1
10
40.8708456088
20
24.3791407025
30
0
10
40.4762834488
20
23.9078791025
30
0
10
40.4511583288
20
23.7864739025
30
0
10
40.7480788888
20
23.7864739025
30
0
0
SPLINE
5
126
100
AcDbEntity
8
reimu
6
ByLayer
62
7
370
-1
100
AcDbSpline
210
0
220
0
230
1
70
8
71
3
72
8
73
4
74
0
42
1e-07
43
1e-07
40
0
40
0
40
0
40
0
40
1
40
1
40
1
40
1
10
40.7480788888
20
23.7864739025
30
0
10
40.8668080888
20
23.7864739025
30
0
10
41.0789162488
20
23.7271463825
30
0
10
41.2179789688
20
23.6552407025
30
0
0
SPLINE
5
127
100
AcDbEntity
8
reimu
6
ByLayer
62
7
370
-1
100
AcDbSpline
210
0
220
0
230
1
70
8
71
3
72
8
73
4
74
0
42
1e-07
43
1e-07
40
0
40
0
40
0
40
0
40
1
40
1
40
1
40
1
10
41.2179789688
20
23.6552407025
30
0
10
41.4537276088
20
23.5333274225
30
0
10
41.4848320888
20
23.5361925425
30
0
10
41.6899956088
20
23.6975738225
30
0
0
SPLINE
5
128
100
AcDbEntity
8
reimu
6
ByLayer
62
7
370
-1
100
AcDbSpline
210
0
220
0
230
1
70
8
71
3
72
8
73
4
74
0
42
1e-07
43
1e-07
40
0
40
0
40
0
40
0
40
1
40
1
40
1
40
1
10
41.6899956088
20
23.6975738225
30
0
10
41.9655024088
20
23.9142866225
30
0
10
42.0761292088
20
23.9159935025
30
0
10
42.2699623288
20
23.7018071825
30
0
0
SPLINE
5
129
100
AcDbEntity
8
reimu
6
ByLayer
62
7
370
-1
100
AcDbSpline
210
0
220
0
230
1
70
8
71
3
72
8
73
4
74
0
42
1e-07
43
1e-07
40
0
40
0
40
0
40
0
40
1
40
1
40
1
40
1
10
42.2699623288
20
23.7018071825
30
0
10
42.5125296088
20
23.4337730225
30
0
10
42.9085428088
20
23.2617878225
30
0
10
43.0383122488
20
23.3694907025
30
0
0
SPLINE
5
12A
100
AcDbEntity
8
reimu
6
ByLayer
62
7
370
-1
100
AcDbSpline
210
0
220
0
230
1
70
8
71
3
72
8
73
4
74
0
42
1e-07
43
1e-07
40
0
40
0
40
0
40
0
40
1
40
1
40
1
40
1
10
43.0383122488
20
23.3694907025
30
0
10
43.0986384088
20
23.4195523025
30
0
10
43.3310409688
20
23.4526401425
30
0
10
43.5547790488
20
23.4414573425
30
0
0
SPLINE
5
12B
100
AcDbEntity
8
reimu
6
ByLayer
62
7
370
-1
100
AcDbSpline
210
0
220
0
230
1
70
8
71
3
72
8
73
4
74
0
42
1e-07
43
1e-07
40
0
40
0
40
0
40
0
40
1
40
1
40
1
40
1
10
43.5547790488
20
23.4414573425
30
0
10
43.7785185688
20
23.4302812625
30
0
10
44.0411001688
20
23.4462832625
30
0
10
44.1368623288
20
23.4774405425
30
0
0
SPLINE
5
12C
100
AcDbEntity
8
reimu
6
ByLayer
62
7
370
-1
100
AcDbSpline
210
0
220
0
230
1
70
8
71
3
72
8
73
4
74
0
42
1e-07
43
1e-07
40
0
40
0
40
0
40
0
40
1
40
1
40
1
40
1
10
44.1368623288
20
23.4774405425
30
0
10
44.2326237688
20
23.5085978225
30
0
10
44.4832478488
20
23.5019092625
30
0
10
44.6935456888
20
23.4626239025
30
0
0
SPLINE
5
12D
100
AcDbEntity
8
reimu
6
ByLayer
62
7
370
-1
100
AcDbSpline
210
0
220
0
230
1
70
8
71
3
72
8
73
4
74
0
42
1e-07
43
1e-07
40
0
40
0
40
0
40
0
40
1
40
1
40
1
40
1
10
44.6935456888
20
23.4626239025
30
0
10
45.1342411288
20
23.3802940625
30
0
10
45.4428456088
20
23.4648285425
30
0
10
45.4428456088
20
23.6679405425
30
0
0
SPLINE
5
12E
100
AcDbEntity
8
reimu
6
ByLayer
62
7
370
-1
100
AcDbSpline
210
0
220
0
230
1
70
8
71
3
72
8
73
4
74
0
42
1e-07
43
1e-07
40
0
40
0
40
0
40
0
40
1
40
1
40
1
40
1
10
45.4428456088
20
23.6679405425
30
0
10
45.4428456088
20
23.7845097425
30
0
10
45.5045628088
20
23.8004879825
30
0
10
45.7984456888
20
23.7610739825
30
0
0
SPLINE
5
12F
100
AcDbEntity
8
reimu
6
ByLayer
62
7
370
-1
100
AcDbSpline
210
0
220
0
230
1
70
8
71
3
72
8
73
4
74
0
42
1e-07
43
1e-07
40
0
40
0
40
0
40
0
40
1
40
1
40
1
40
1
10
45.7984456888
20
23.7610739825
30
0
10
46.2423014488
20
23.7015362225
30
0
10
46.4296010488
20
23.7992483825
30
0
10
46.5011788888
20
24.1251405425
30
0
0
SPLINE
5
130
100
AcDbEntity
8
reimu
6
ByLayer
62
7
370
-1
100
AcDbSpline
210
0
220
0
230
1
70
8
71
3
72
8
73
4
74
0
42
1e-07
43
1e-07
40
0
40
0
40
0
40
0
40
1
40
1
40
1
40
1
10
46.5011788888
20
24.1251405425
30
0
10
46.5627458488
20
24.4054523825
30
0
10
46.6102682488
20
24.4224357425
30
0
10
46.9096956088
20
24.2860072625
30
0
0
SPLINE
5
131
100
AcDbEntity
8
reimu
6
ByLayer
62
7
370
-1
100
AcDbSpline
210
0
220
0
230
1
70
8
71
3
72
8
73
4
74
0
42
1e-07
43
1e-07
40
0
40
0
40
0
40
0
40
1
40
1
40
1
40
1
10
46.9096956088
20
24.2860072625
30
0
10
47.0732337688
20
24.2114951825
30
0
10
47.1892927288
20
24.2295827825
30
0
10
47.5129456888
20
24.3770239025
30
0
0
SPLINE
5
132
100
AcDbEntity
8
reimu
6
ByLayer
62
7
370
-1
100
AcDbSpline
210
0
220
0
230
1
70
8
71
3
72
8
73
4
74
0
42
1e-07
43
1e-07
40
0
40
0
40
0
40
0
40
1
40
1
40
1
40
1
10
47.5129456888
20
24.3770239025
30
0
10
47.7339710488
20
24.4777130225
30
0
10
47.9641504888
20
24.5414467025
30
0
10
48.0230623288
20
24.5188406225
30
0
0
SPLINE
5
133
100
AcDbEntity
8
reimu
6
ByLayer
62
7
370
-1
100
AcDbSpline
210
0
220
0
230
1
70
8
71
3
72
8
73
4
74
0
42
1e-07
43
1e-07
40
0
40
0
40
0
40
0
40
1
40
1
40
1
40
1
10
48.0230623288
20
24.5188406225
30
0
10
48.1314016888
20
24.4772659025
30
0
10
48.8223542488
20
23.1187927025
30
0
10
49.1702956888
20
22.2624739025
30
0
0
SPLINE
5
134
100
AcDbEntity
8
reimu
6
ByLayer
62
7
370
-1
100
AcDbSpline
210
0
220
0
230
1
70
8
71
3
72
8
73
4
74
0
42
1e-07
43
1e-07
40
0
40
0
40
0
40
0
40
1
40
1
40
1
40
1
10
49.1702956888
20
22.2624739025
30
0
10
49.2743618488
20
22.0063538225
30
0
10
49.4298789688
20
21.6410409425
30
0
10
49.5174290488
20
21.4496738225
30
0
0
SPLINE
5
135
100
AcDbEntity
8
reimu
6
ByLayer
62
7
370
-1
100
AcDbSpline
210
0
220
0
230
1
70
8
71
3
72
8
73
4
74
0
42
1e-07
43
1e-07
40
0
40
0
40
0
40
0
40
1
40
1
40
1
40
1
10
49.5174290488
20
21.4496738225
30
0
10
49.6049798488
20
21.2583069425
30
0
10
49.6763145688
20
21.0678069425
30
0
10
49.6761789688
20
21.0263407025
30
0
0
SPLINE
5
136
100
AcDbEntity
8
reimu
6
ByLayer
62
7
370
-1
100
AcDbSpline
210
0
220
0
230
1
70
8
71
3
72
8
73
4
74
0
42
1e-07
43
1e-07
40
0
40
0
40
0
40
0
40
1
40
1
40
1
40
1
10
49.6761789688
20
21.0263407025
30
0
10
49.6760488888
20
20.9848742225
30
0
10
49.7496458488
20
20.7977407025
30
0
10
49.8391622488
20
20.6114738225
30
0
0
SPLINE
5
137
100
AcDbEntity
8
reimu
6
ByLayer
62
7
370
-1
100
AcDbSpline
210
0
220
0
230
1
70
8
71
3
72
8
73
4
74
0
42
1e-07
43
1e-07
40
0
40
0
40
0
40
0
40
1
40
1
40
1
40
1
10
49.8391622488
20
20.6114738225
30
0
10
50.2703966488
20
19.7141563025
30
0
10
50.2921905688
20
19.6145171825
30
0
10
50.1545457688
20
19.1657906225
30
0
0
SPLINE
5
138
100
AcDbEntity
8
reimu
6
ByLayer
62
7
370
-1
100
AcDbSpline
210
0
220
0
230
1
70
8
71
3
72
8
73
4
74
0
42
1e-07
43
1e-07
40
0
40
0
40
0
40
0
40
1
40
1
40
1
40
1
10
50.1545457688
20
19.1657906225
30
0
10
49.9360603288
20
18.4535203025
30
0
10
49.9246533688
20
17.9577700625
30
0
10
50.1206788888
20
17.7751406225
30
0
0
SPLINE
5
139
100
AcDbEntity
8
reimu
6
ByLayer
62
7
370
-1
100
AcDbSpline
210
0
220
0
230
1
70
8
71
3
72
8
73
4
74
0
42
1e-07
43
1e-07
40
0
40
0
40
0
40
0
40
1
40
1
40
1
40
1
10
50.1206788888
20
17.7751406225
30
0
10
50.2233796888
20
17.6794605425
30
0
10
50.3056872088
20
17.4634351025
30
0
10
50.3323456888
20
17.2269239825
30
0
0
SPLINE
5
13A
100
AcDbEntity
8
reimu
6
ByLayer
62
7
370
-1
100
AcDbSpline
210
0
220
0
230
1
70
8
71
3
72
8
73
4
74
0
42
1e-07
43
1e-07
40
0
40
0
40
0
40
0
40
1
40
1
40
1
40
1
10
50.3323456888
20
17.2269239825
30
0
10
50.3602389688
20
16.9794535025
30
0
10
50.4352536088
20
16.7976369425
30
0
10
50.5355457688
20
16.7273906225
30
0
0
SPLINE
5
13B
100
AcDbEntity
8
reimu
6
ByLayer
62
7
370
-1
100
AcDbSpline
210
0
220
0
230
1
70
8
71
3
72
8
73
4
74
0
42
1e-07
43
1e-07
40
0
40
0
40
0
40
0
40
1
40
1
40
1
40
1
10
50.5355457688
20
16.7273906225
30
0
10
50.6811859288
20
16.6253841425
30
0
10
50.6823304888
20
16.5960386225
30
0
10
50.5651790488
20
16.3612072625
30
0
0
SPLINE
5
13C
100
AcDbEntity
8
reimu
6
ByLayer
62
7
370
-1
100
AcDbSpline
210
0
220
0
230
1
70
8
71
3
72
8
73
4
74
0
42
1e-07
43
1e-07
40
0
40
0
40
0
40
0
40
1
40
1
40
1
40
1
10
50.5651790488
20
16.3612072625
30
0
10
50.4861660088
20
16.2028197425
30
0
10
50.4191683288
20
15.7217707025
30
0
10
50.3852623288
20
15.0912071825
30
0
0
LWPOLYLINE
5
13D
100
AcDbEntity
8
reimu
6
ByLayer
62
7
370
-1
100
AcDbPolyline
90
3
70
0
43
0
10
40.8602623288
20
25.4544071825
10
41.2095122488
20
25.5030907025
10
41.2095122488
20
25.1432572625
0
SPLINE
5
13E
100
AcDbEntity
8
reimu
6
ByLayer
62
7
370
-1
100
AcDbSpline
210
0
220
0
230
1
70
8
71
3
72
8
73
4
74
0
42
1e-07
43
1e-07
40
0
40
0
40
0
40
0
40
1
40
1
40
1
40
1
10
50.6413790488
20
13.7323072625
30
0
10
50.9730528088
20
13.3651857425
30
0
10
51.6759256888
20
12.9491407025
30
0
10
51.9642957688
20
12.9491407025
30
0
0
SPLINE
5
13F
100
AcDbEntity
8
reimu
6
ByLayer
62
7
370
-1
100
AcDbSpline
210
0
220
0
230
1
70
8
71
3
72
8
73
4
74
0
42
1e-07
43
1e-07
40
0
40
0
40
0
40
0
40
1
40
1
40
1
40
1
10
51.9642957688
20
12.9491407025
30
0
10
52.0597476088
20
12.9491407025
30
0
10
52.1597421688
20
13.0062871025
30
0
10
52.1865456088
20
13.0761405425
30
0
0
SPLINE
5
140
100
AcDbEntity
8
reimu
6
ByLayer
62
7
370
-1
100
AcDbSpline
210
0
220
0
230
1
70
8
71
3
72
8
73
4
74
0
42
1e-07
43
1e-07
40
0
40
0
40
0
40
0
40
1
40
1
40
1
40
1
10
52.1865456088
20
13.0761405425
30
0
10
52.2461815288
20
13.2315479825
30
0
10
52.3855123288
20
13.2452402225
30
0
10
52.3855123288
20
13.0951905425
30
0
0
SPLINE
5
141
100
AcDbEntity
8
reimu
6
ByLayer
62
7
370
-1
100
AcDbSpline
210
0
220
0
230
1
70
8
71
3
72
8
73
4
74
0
42
1e-07
43
1e-07
40
0
40
0
40
0
40
0
40
1
40
1
40
1
40
1
10
52.3855123288
20
13.0951905425
30
0
10
52.3855123288
20
12.8841131825
30
0
10
52.8569179288
20
12.4456787825
30
0
10
53.3570623288
20
12.1913738225
30
0
0
SPLINE
5
142
100
AcDbEntity
8
reimu
6
ByLayer
62
7
370
-1
100
AcDbSpline
210
0
220
0
230
1
70
8
71
3
72
8
73
4
74
0
42
1e-07
43
1e-07
40
0
40
0
40
0
40
0
40
1
40
1
40
1
40
1
10
53.3570623288
20
12.1913738225
30
0
10
53.6351774488
20
12.0499603025
30
0
10
53.8985116888
20
11.9331405425
30
0
10
53.9412624088
20
11.9331405425
30
0
0
SPLINE
5
143
100
AcDbEntity
8
reimu
6
ByLayer
62
7
370
-1
100
AcDbSpline
210
0
220
0
230
1
70
8
71
3
72
8
73
4
74
0
42
1e-07
43
1e-07
40
0
40
0
40
0
40
0
40
1
40
1
40
1
40
1
10
53.9412624088
20
11.9331405425
30
0
10
53.9840121688
20
11.9331405425
30
0
10
54.1753372888
20
11.8593417425
30
0
10
54.3667123288
20
11.7701572625
30
0
0
SPLINE
5
144
100
AcDbEntity
8
reimu
6
ByLayer
62
7
370
-1
100
AcDbSpline
210
0
220
0
230
1
70
8
71
3
72
8
73
4
74
0
42
1e-07
43
1e-07
40
0
40
0
40
0
40
0
40
1
40
1
40
1
40
1
10
54.3667123288
20
11.7701572625
30
0
10
55.0646901688
20
11.4448543025
30
0
10
55.9098564088
20
11.2366523825
30
0
10
56.2738288888
20
11.2981406225
30
0
0
SPLINE
5
145
100
AcDbEntity
8
reimu
6
ByLayer
62
7
370
-1
100
AcDbSpline
210
0
220
0
230
1
70
8
71
3
72
8
73
4
74
0
42
1e-07
43
1e-07
40
0
40
0
40
0
40
0
40
1
40
1
40
1
40
1
10
56.2738288888
20
11.2981406225
30
0
10
56.4636556888
20
11.3302123025
30
0
10
56.6188456888
20
11.3854963025
30
0
10
56.6188456888
20
11.4209073425
30
0
0
SPLINE
5
146
100
AcDbEntity
8
reimu
6
ByLayer
62
7
370
-1
100
AcDbSpline
210
0
220
0
230
1
70
8
71
3
72
8
73
4
74
0
42
1e-07
43
1e-07
40
0
40
0
40
0
40
0
40
1
40
1
40
1
40
1
10
56.6188456888
20
11.4209073425
30
0
10
56.6188456888
20
11.4563114225
30
0
10
56.7617203288
20
11.5466644625
30
0
10
56.9363457688
20
11.6219906225
30
0
0
SPLINE
5
147
100
AcDbEntity
8
reimu
6
ByLayer
62
7
370
-1
100
AcDbSpline
210
0
220
0
230
1
70
8
71
3
72
8
73
4
74
0
42
1e-07
43
1e-07
40
0
40
0
40
0
40
0
40
1
40
1
40
1
40
1
10
56.9363457688
20
11.6219906225
30
0
10
57.2883544888
20
11.7738352625
30
0
10
57.5035987288
20
11.9042049425
30
0
10
57.7491456088
20
12.1194071825
30
0
0
SPLINE
5
148
100
AcDbEntity
8
reimu
6
ByLayer
62
7
370
-1
100
AcDbSpline
210
0
220
0
230
1
70
8
71
3
72
8
73
4
74
0
42
1e-07
43
1e-07
40
0
40
0
40
0
40
0
40
1
40
1
40
1
40
1
10
57.7491456088
20
12.1194071825
30
0
10
57.8862628888
20
12.2395864625
30
0
10
57.9121288888
20
12.3769226225
30
0
10
57.9121288888
20
12.9576071825
30
0
0
SPLINE
5
149
100
AcDbEntity
8
reimu
6
ByLayer
62
7
370
-1
100
AcDbSpline
210
0
220
0
230
1
70
8
71
3
72
8
73
4
74
0
42
1e-07
43
1e-07
40
0
40
0
40
0
40
0
40
1
40
1
40
1
40
1
10
57.9121288888
20
12.9576071825
30
0
10
57.9121288888
20
13.5890647025
30
0
10
57.8944540888
20
13.6653561425
30
0
10
57.7110456088
20
13.8063907025
30
0
0
SPLINE
5
14A
100
AcDbEntity
8
reimu
6
ByLayer
62
7
370
-1
100
AcDbSpline
210
0
220
0
230
1
70
8
71
3
72
8
73
4
74
0
42
1e-07
43
1e-07
40
0
40
0
40
0
40
0
40
1
40
1
40
1
40
1
10
57.7110456088
20
13.8063907025
30
0
10
57.6001430488
20
13.8916667825
30
0
10
57.4513533688
20
13.9620079025
30
0
10
57.3808456888
20
13.9630238225
30
0
0
SPLINE
5
14B
100
AcDbEntity
8
reimu
6
ByLayer
62
7
370
-1
100
AcDbSpline
210
0
220
0
230
1
70
8
71
3
72
8
73
4
74
0
42
1e-07
43
1e-07
40
0
40
0
40
0
40
0
40
1
40
1
40
1
40
1
10
57.3808456888
20
13.9630238225
30
0
10
57.1913095288
20
13.9658078225
30
0
10
56.4460267288
20
14.2544702225
30
0
10
56.1510624088
20
14.4392738225
30
0
0
SPLINE
5
14C
100
AcDbEntity
8
reimu
6
ByLayer
62
7
370
-1
100
AcDbSpline
210
0
220
0
230
1
70
8
71
3
72
8
73
4
74
0
42
1e-07
43
1e-07
40
0
40
0
40
0
40
0
40
1
40
1
40
1
40
1
10
56.1510624088
20
14.4392738225
30
0
10
56.0098024888
20
14.5277810225
30
0
10
55.7713824088
20
14.6763405425
30
0
10
55.6218957688
20
14.7694739825
30
0
0
SPLINE
5
14D
100
AcDbEntity
8
reimu
6
ByLayer
62
7
370
-1
100
AcDbSpline
210
0
220
0
230
1
70
8
71
3
72
8
73
4
74
0
42
1e-07
43
1e-07
40
0
40
0
40
0
40
0
40
1
40
1
40
1
40
1
10
55.6218957688
20
14.7694739825
30
0
10
55.4724081688
20
14.8626071825
30
0
10
55.3512333688
20
14.9632015025
30
0
10
55.3509624088
20
14.9917238225
30
0
0
SPLINE
5
14E
100
AcDbEntity
8
reimu
6
ByLayer
62
7
370
-1
100
AcDbSpline
210
0
220
0
230
1
70
8
71
3
72
8
73
4
74
0
42
1e-07
43
1e-07
40
0
40
0
40
0
40
0
40
1
40
1
40
1
40
1
10
55.3509624088
20
14.9917238225
30
0
10
55.3504740088
20
15.0391034225
30
0
10
54.9875872888
20
15.5302072625
30
0
10
54.7413624088
20
15.8193405425
30
0
0
SPLINE
5
14F
100
AcDbEntity
8
reimu
6
ByLayer
62
7
370
-1
100
AcDbSpline
210
0
220
0
230
1
70
8
71
3
72
8
73
4
74
0
42
1e-07
43
1e-07
40
0
40
0
40
0
40
0
40
1
40
1
40
1
40
1
10
54.7413624088
20
15.8193405425
30
0
10
54.6058725688
20
15.9784394225
30
0
10
54.1711051288
20
16.8599109425
30
0
10
54.1677456088
20
16.9813905425
30
0
0
SPLINE
5
150
100
AcDbEntity
8
reimu
6
ByLayer
62
7
370
-1
100
AcDbSpline
210
0
220
0
230
1
70
8
71
3
72
8
73
4
74
0
42
1e-07
43
1e-07
40
0
40
0
40
0
40
0
40
1
40
1
40
1
40
1
10
54.1677456088
20
16.9813905425
30
0
10
54.1662847288
20
17.0342428625
30
0
10
54.0702184888
20
17.1394396625
30
0
10
53.9560790488
20
17.2142239025
30
0
0
SPLINE
5
151
100
AcDbEntity
8
reimu
6
ByLayer
62
7
370
-1
100
AcDbSpline
210
0
220
0
230
1
70
8
71
3
72
8
73
4
74
0
42
1e-07
43
1e-07
40
0
40
0
40
0
40
0
40
1
40
1
40
1
40
1
10
53.9560790488
20
17.2142239025
30
0
10
53.7709584088
20
17.3355208625
30
0
10
53.7600513688
20
17.3774308625
30
0
10
53.8396622488
20
17.6058071825
30
0
0
SPLINE
5
152
100
AcDbEntity
8
reimu
6
ByLayer
62
7
370
-1
100
AcDbSpline
210
0
220
0
230
1
70
8
71
3
72
8
73
4
74
0
42
1e-07
43
1e-07
40
0
40
0
40
0
40
0
40
1
40
1
40
1
40
1
10
53.8396622488
20
17.6058071825
30
0
10
53.9207988088
20
17.8385524625
30
0
10
53.9010403288
20
17.8922414225
30
0
10
53.6301122488
20
18.1921238225
30
0
0
SPLINE
5
153
100
AcDbEntity
8
reimu
6
ByLayer
62
7
370
-1
100
AcDbSpline
210
0
220
0
230
1
70
8
71
3
72
8
73
4
74
0
42
1e-07
43
1e-07
40
0
40
0
40
0
40
0
40
1
40
1
40
1
40
1
10
53.6301122488
20
18.1921238225
30
0
10
53.3707032088
20
18.4792523825
30
0
10
53.3367463288
20
18.5632315025
30
0
10
53.3739957688
20
18.8461739825
30
0
0
SPLINE
5
154
100
AcDbEntity
8
reimu
6
ByLayer
62
7
370
-1
100
AcDbSpline
210
0
220
0
230
1
70
8
71
3
72
8
73
4
74
0
42
1e-07
43
1e-07
40
0
40
0
40
0
40
0
40
1
40
1
40
1
40
1
10
53.3739957688
20
18.8461739825
30
0
10
53.4082226488
20
19.1061616625
30
0
10
53.3702851288
20
19.2399280625
30
0
10
53.1834957688
20
19.5108071825
30
0
0
SPLINE
5
155
100
AcDbEntity
8
reimu
6
ByLayer
62
7
370
-1
100
AcDbSpline
210
0
220
0
230
1
70
8
71
3
72
8
73
4
74
0
42
1e-07
43
1e-07
40
0
40
0
40
0
40
0
40
1
40
1
40
1
40
1
10
53.1834957688
20
19.5108071825
30
0
10
53.0550523288
20
19.6970738225
30
0
10
52.8623284888
20
19.9795015025
30
0
10
52.7538122488
20
20.1373406225
30
0
0
SPLINE
5
156
100
AcDbEntity
8
reimu
6
ByLayer
62
7
370
-1
100
AcDbSpline
210
0
220
0
230
1
70
8
71
3
72
8
73
4
74
0
42
1e-07
43
1e-07
40
0
40
0
40
0
40
0
40
1
40
1
40
1
40
1
10
52.7538122488
20
20.1373406225
30
0
10
52.6452960088
20
20.2951795025
30
0
10
52.5548457688
20
20.4975362225
30
0
10
52.5548457688
20
20.5881907025
30
0
0
SPLINE
5
157
100
AcDbEntity
8
reimu
6
ByLayer
62
7
370
-1
100
AcDbSpline
210
0
220
0
230
1
70
8
71
3
72
8
73
4
74
0
42
1e-07
43
1e-07
40
0
40
0
40
0
40
0
40
1
40
1
40
1
40
1
10
52.5548457688
20
20.5881907025
30
0
10
52.5548457688
20
20.6788449425
30
0
10
52.4835494488
20
21.0271871825
30
0
10
52.3939790488
20
21.3607739825
30
0
0
SPLINE
5
158
100
AcDbEntity
8
reimu
6
ByLayer
62
7
370
-1
100
AcDbSpline
210
0
220
0
230
1
70
8
71
3
72
8
73
4
74
0
42
1e-07
43
1e-07
40
0
40
0
40
0
40
0
40
1
40
1
40
1
40
1
10
52.3939790488
20
21.3607739825
30
0
10
52.0069027288
20
22.8023627825
30
0
10
51.9359661688
20
23.0874184625
30
0
10
51.8796290488
20
23.4478072625
30
0
0
SPLINE
5
159
100
AcDbEntity
8
reimu
6
ByLayer
62
7
370
-1
100
AcDbSpline
210
0
220
0
230
1
70
8
71
3
72
8
73
4
74
0
42
1e-07
43
1e-07
40
0
40
0
40
0
40
0
40
1
40
1
40
1
40
1
10
51.8796290488
20
23.4478072625
30
0
10
51.8239272088
20
23.8041251825
30
0
10
51.7120039288
20
24.2897128625
30
0
10
51.4012622488
20
25.5221407025
30
0
0
SPLINE
5
15A
100
AcDbEntity
8
reimu
6
ByLayer
62
7
370
-1
100
AcDbSpline
210
0
220
0
230
1
70
8
71
3
72
8
73
4
74
0
42
1e-07
43
1e-07
40
0
40
0
40
0
40
0
40
1
40
1
40
1
40
1
10
51.4012622488
20
25.5221407025
30
0
10
51.3308155288
20
25.8015405425
30
0
10
51.2385146488
20
26.2132665425
30
0
10
51.1980624088
20
26.4365407025
30
0
0
SPLINE
5
15B
100
AcDbEntity
8
reimu
6
ByLayer
62
7
370
-1
100
AcDbSpline
210
0
220
0
230
1
70
8
71
3
72
8
73
4
74
0
42
1e-07
43
1e-07
40
0
40
0
40
0
40
0
40
1
40
1
40
1
40
1
10
51.1980624088
20
26.4365407025
30
0
10
51.1576106488
20
26.6598153425
30
0
10
51.1023463288
20
26.9122276625
30
0
10
51.0752956888
20
26.9974571825
30
0
0
SPLINE
5
15C
100
AcDbEntity
8
reimu
6
ByLayer
62
7
370
-1
100
AcDbSpline
210
0
220
0
230
1
70
8
71
3
72
8
73
4
74
0
42
1e-07
43
1e-07
40
0
40
0
40
0
40
0
40
1
40
1
40
1
40
1
10
51.0752956888
20
26.9974571825
30
0
10
51.0361118488
20
27.1209134225
30
0
10
51.0729338488
20
27.1519739825
30
0
10
51.2509790488
20
27.1519739825
30
0
0
SPLINE
5
15D
100
AcDbEntity
8
reimu
6
ByLayer
62
7
370
-1
100
AcDbSpline
210
0
220
0
230
1
70
8
71
3
72
8
73
4
74
0
42
1e-07
43
1e-07
40
0
40
0
40
0
40
0
40
1
40
1
40
1
40
1
10
51.2509790488
20
27.1519739825
30
0
10
51.5984016088
20
27.1519739825
30
0
10
52.1825508088
20
27.7975682225
30
0
10
52.2500457688
20
28.2547571825
30
0
0
SPLINE
5
15E
100
AcDbEntity
8
reimu
6
ByLayer
62
7
370
-1
100
AcDbSpline
210
0
220
0
230
1
70
8
71
3
72
8
73
4
74
0
42
1e-07
43
1e-07
40
0
40
0
40
0
40
0
40
1
40
1
40
1
40
1
10
52.2500457688
20
28.2547571825
30
0
10
52.2976087288
20
28.5769389425
30
0
10
52.2833894488
20
28.6230287825
30
0
10
52.1124624088
20
28.6886738225
30
0
0
SPLINE
5
15F
100
AcDbEntity
8
reimu
6
ByLayer
62
7
370
-1
100
AcDbSpline
210
0
220
0
230
1
70
8
71
3
72
8
73
4
74
0
42
1e-07
43
1e-07
40
0
40
0
40
0
40
0
40
1
40
1
40
1
40
1
10
52.1124624088
20
28.6886738225
30
0
10
51.9821556088
20
28.7387186225
30
0
10
51.8712652888
20
28.9093958225
30
0
10
51.7653290488
20
29.2178407025
30
0
0
SPLINE
5
160
100
AcDbEntity
8
reimu
6
ByLayer
62
7
370
-1
100
AcDbSpline
210
0
220
0
230
1
70
8
71
3
72
8
73
4
74
0
42
1e-07
43
1e-07
40
0
40
0
40
0
40
0
40
1
40
1
40
1
40
1
10
51.7653290488
20
29.2178407025
30
0
10
51.6127346488
20
29.6621339825
30
0
10
51.3545980888
20
30.2637827825
30
0
10
51.0266124088
20
30.9408071825
30
0
0
SPLINE
5
161
100
AcDbEntity
8
reimu
6
ByLayer
62
7
370
-1
100
AcDbSpline
210
0
220
0
230
1
70
8
71
3
72
8
73
4
74
0
42
1e-07
43
1e-07
40
0
40
0
40
0
40
0
40
1
40
1
40
1
40
1
10
51.0266124088
20
30.9408071825
30
0
10
50.8253236888
20
31.3562937425
30
0
10
50.8243706488
20
31.4446869425
30
0
10
51.0308457688
20
31.8721406225
30
0
0
SPLINE
5
162
100
AcDbEntity
8
reimu
6
ByLayer
62
7
370
-1
100
AcDbSpline
210
0
220
0
230
1
70
8
71
3
72
8
73
4
74
0
42
1e-07
43
1e-07
40
0
40
0
40
0
40
0
40
1
40
1
40
1
40
1
10
51.0308457688
20
31.8721406225
30
0
10
51.1208191288
20
32.0584072625
30
0
10
51.1964774488
20
32.2794028625
30
0
10
51.1980624088
20
32.3632072625
30
0
0
SPLINE
5
163
100
AcDbEntity
8
reimu
6
ByLayer
62
7
370
-1
100
AcDbSpline
210
0
220
0
230
1
70
8
71
3
72
8
73
4
74
0
42
1e-07
43
1e-07
40
0
40
0
40
0
40
0
40
1
40
1
40
1
40
1
10
51.1980624088
20
32.3632072625
30
0
10
51.1996425688
20
32.4470109425
30
0
10
51.2585968888
20
32.6265415025
30
0
10
51.3292956088
20
32.7632572625
30
0
0
SPLINE
5
164
100
AcDbEntity
8
reimu
6
ByLayer
62
7
370
-1
100
AcDbSpline
210
0
220
0
230
1
70
8
71
3
72
8
73
4
74
0
42
1e-07
43
1e-07
40
0
40
0
40
0
40
0
40
1
40
1
40
1
40
1
10
51.3292956088
20
32.7632572625
30
0
10
51.5906786488
20
33.2687167025
30
0
10
51.8773768888
20
35.4994807025
30
0
10
51.8775122488
20
37.0368071825
30
0
0
LWPOLYLINE
5
165
100
AcDbEntity
8
reimu
6
ByLayer
62
7
370
-1
100
AcDbPolyline
90
3
70
0
43
0
10
50.3852623288
20
15.0912071825
10
50.3302288888
20
14.0773238225
10
50.6413790488
20
13.7323072625
0
SPLINE
5
166
100
AcDbEntity
8
reimu
6
ByLayer
62
7
370
-1
100
AcDbSpline
210
0
220
0
230
1
70
8
71
3
72
8
73
4
74
0
42
1e-07
43
1e-07
40
0
40
0
40
0
40
0
40
1
40
1
40
1
40
1
10
53.3380123288
20
39.1450072625
30
0
10
54.1417185688
20
39.9315131825
30
0
10
55.9796124088
20
41.7317860625
30
0
10
57.4231790488
20
43.1455072625
30
0
0
SPLINE
5
167
100
AcDbEntity
8
reimu
6
ByLayer
62
7
370
-1
100
AcDbSpline
210
0
220
0
230
1
70
8
71
3
72
8
73
4
74
0
42
1e-07
43
1e-07
40
0
40
0
40
0
40
0
40
1
40
1
40
1
40
1
10
57.4231790488
20
43.1455072625
30
0
10
60.3213326488
20
45.9837412625
30
0
10
60.6355142488
20
46.2586715825
30
0
10
60.3378290488
20
45.7024406225
30
0
0
SPLINE
5
168
100
AcDbEntity
8
reimu
6
ByLayer
62
7
370
-1
100
AcDbSpline
210
0
220
0
230
1
70
8
71
3
72
8
73
4
74
0
42
1e-07
43
1e-07
40
0
40
0
40
0
40
0
40
1
40
1
40
1
40
1
10
60.3378290488
20
45.7024406225
30
0
10
60.2872132888
20
45.6078638225
30
0
10
60.2123875288
20
45.1833107825
30
0
10
60.1727289688
20
44.7605239025
30
0
0
SPLINE
5
169
100
AcDbEntity
8
reimu
6
ByLayer
62
7
370
-1
100
AcDbSpline
210
0
220
0
230
1
70
8
71
3
72
8
73
4
74
0
42
1e-07
43
1e-07
40
0
40
0
40
0
40
0
40
1
40
1
40
1
40
1
10
60.1727289688
20
44.7605239025
30
0
10
60.1208419288
20
44.2073899025
30
0
10
60.0646543288
20
43.9713249425
30
0
10
59.9695288888
20
43.9180905425
30
0
0
SPLINE
5
16A
100
AcDbEntity
8
reimu
6
ByLayer
62
7
370
-1
100
AcDbSpline
210
0
220
0
230
1
70
8
71
3
72
8
73
4
74
0
42
1e-07
43
1e-07
40
0
40
0
40
0
40
0
40
1
40
1
40
1
40
1
10
59.9695288888
20
43.9180905425
30
0
10
59.8968213688
20
43.8774019025
30
0
10
59.8361788888
20
43.7887768625
30
0
10
59.8361788888
20
43.7212406225
30
0
0
SPLINE
5
16B
100
AcDbEntity
8
reimu
6
ByLayer
62
7
370
-1
100
AcDbSpline
210
0
220
0
230
1
70
8
71
3
72
8
73
4
74
0
42
1e-07
43
1e-07
40
0
40
0
40
0
40
0
40
1
40
1
40
1
40
1
10
59.8361788888
20
43.7212406225
30
0
10
59.8361788888
20
43.6537043825
30
0
10
59.8072900888
20
43.5984739025
30
0
10
59.7705624088
20
43.5984739025
30
0
0
SPLINE
5
16C
100
AcDbEntity
8
reimu
6
ByLayer
62
7
370
-1
100
AcDbSpline
210
0
220
0
230
1
70
8
71
3
72
8
73
4
74
0
42
1e-07
43
1e-07
40
0
40
0
40
0
40
0
40
1
40
1
40
1
40
1
10
59.7705624088
20
43.5984739025
30
0
10
59.7338344888
20
43.5984739025
30
0
10
59.5809842488
20
43.3978526225
30
0
10
59.4318957688
20
43.1518571825
30
0
0
LWPOLYLINE
5
16D
100
AcDbEntity
8
reimu
6
ByLayer
62
7
370
-1
100
AcDbPolyline
90
3
70
0
43
0
10
51.8775122488
20
37.0368071825
10
51.8775122488
20
37.7141407025
10
53.3380123288
20
39.1450072625
0
SPLINE
5
16E
100
AcDbEntity
8
reimu
6
ByLayer
62
7
370
-1
100
AcDbSpline
210
0
220
0
230
1
70
8
71
3
72
8
73
4
74
0
42
1e-07
43
1e-07
40
0
40
0
40
0
40
0
40
1
40
1
40
1
40
1
10
59.2519790488
20
41.9580573425
30
0
10
59.3407996888
20
41.2319152625
30
0
10
59.3393760088
20
41.2076397425
30
0
10
59.1546122488
20
41.0711738225
30
0
0
SPLINE
5
16F
100
AcDbEntity
8
reimu
6
ByLayer
62
7
370
-1
100
AcDbSpline
210
0
220
0
230
1
70
8
71
3
72
8
73
4
74
0
42
1e-07
43
1e-07
40
0
40
0
40
0
40
0
40
1
40
1
40
1
40
1
10
59.1546122488
20
41.0711738225
30
0
10
59.0502088888
20
40.9940623025
30
0
10
58.7055756088
20
40.6838239025
30
0
10
58.3904956888
20
40.3811407025
30
0
0
SPLINE
5
170
100
AcDbEntity
8
reimu
6
ByLayer
62
7
370
-1
100
AcDbSpline
210
0
220
0
230
1
70
8
71
3
72
8
73
4
74
0
42
1e-07
43
1e-07
40
0
40
0
40
0
40
0
40
1
40
1
40
1
40
1
10
58.3904956888
20
40.3811407025
30
0
10
57.6827906488
20
39.7012807025
30
0
10
57.5524548088
20
39.3325127825
30
0
10
57.5374790488
20
37.9639072625
30
0
0
SPLINE
5
171
100
AcDbEntity
8
reimu
6
ByLayer
62
7
370
-1
100
AcDbSpline
210
0
220
0
230
1
70
8
71
3
72
8
73
4
74
0
42
1e-07
43
1e-07
40
0
40
0
40
0
40
0
40
1
40
1
40
1
40
1
10
57.5374790488
20
37.9639072625
30
0
10
57.5319045688
20
37.4544422225
30
0
10
57.4970068888
20
36.9540892625
30
0
10
57.4591622488
20
36.8526573425
30
0
0
SPLINE
5
172
100
AcDbEntity
8
reimu
6
ByLayer
62
7
370
-1
100
AcDbSpline
210
0
220
0
230
1
70
8
71
3
72
8
73
4
74
0
42
1e-07
43
1e-07
40
0
40
0
40
0
40
0
40
1
40
1
40
1
40
1
10
57.4591622488
20
36.8526573425
30
0
10
57.3658279288
20
36.6024943025
30
0
10
56.9289444088
20
36.1783070225
30
0
10
56.3140456888
20
35.7435239825
30
0
0
LWPOLYLINE
5
173
100
AcDbEntity
8
reimu
6
ByLayer
62
7
370
-1
100
AcDbPolyline
90
3
70
0
43
0
10
59.4318957688
20
43.1518571825
10
59.1609624088
20
42.7031239025
10
59.2519790488
20
41.9580573425
0
SPLINE
5
174
100
AcDbEntity
8
reimu
6
ByLayer
62
7
370
-1
100
AcDbSpline
210
0
220
0
230
1
70
8
71
3
72
8
73
4
74
0
42
1e-07
43
1e-07
40
0
40
0
40
0
40
0
40
1
40
1
40
1
40
1
10
55.5816789688
20
34.4735239025
30
0
10
55.4596857688
20
33.9735916625
30
0
10
55.3333658488
20
33.4739107025
30
0
10
55.3001623288
20
33.3622739825
30
0
0
SPLINE
5
175
100
AcDbEntity
8
reimu
6
ByLayer
62
7
370
-1
100
AcDbSpline
210
0
220
0
230
1
70
8
71
3
72
8
73
4
74
0
42
1e-07
43
1e-07
40
0
40
0
40
0
40
0
40
1
40
1
40
1
40
1
10
55.3001623288
20
33.3622739825
30
0
10
55.2438256888
20
33.1728556625
30
0
10
55.2547701688
20
33.1639168625
30
0
10
55.4843124088
20
33.2204572625
30
0
0
SPLINE
5
176
100
AcDbEntity
8
reimu
6
ByLayer
62
7
370
-1
100
AcDbSpline
210
0
220
0
230
1
70
8
71
3
72
8
73
4
74
0
42
1e-07
43
1e-07
40
0
40
0
40
0
40
0
40
1
40
1
40
1
40
1
10
55.4843124088
20
33.2204572625
30
0
10
55.7974807288
20
33.2975966225
30
0
10
56.8172805688
20
33.9801400625
30
0
10
57.2242123288
20
34.3846238225
30
0
0
SPLINE
5
177
100
AcDbEntity
8
reimu
6
ByLayer
62
7
370
-1
100
AcDbSpline
210
0
220
0
230
1
70
8
71
3
72
8
73
4
74
0
42
1e-07
43
1e-07
40
0
40
0
40
0
40
0
40
1
40
1
40
1
40
1
10
57.2242123288
20
34.3846238225
30
0
10
57.4895169688
20
34.6483322225
30
0
10
57.5683226488
20
34.8191291825
30
0
10
57.7470290488
20
35.5276238225
30
0
0
SPLINE
5
178
100
AcDbEntity
8
reimu
6
ByLayer
62
7
370
-1
100
AcDbSpline
210
0
220
0
230
1
70
8
71
3
72
8
73
4
74
0
42
1e-07
43
1e-07
40
0
40
0
40
0
40
0
40
1
40
1
40
1
40
1
10
57.7470290488
20
35.5276238225
30
0
10
57.8625847288
20
35.9857538225
30
0
10
57.9815169688
20
36.7138406225
30
0
10
58.0116122488
20
37.1468738225
30
0
0
SPLINE
5
179
100
AcDbEntity
8
reimu
6
ByLayer
62
7
370
-1
100
AcDbSpline
210
0
220
0
230
1
70
8
71
3
72
8
73
4
74
0
42
1e-07
43
1e-07
40
0
40
0
40
0
40
0
40
1
40
1
40
1
40
1
10
58.0116122488
20
37.1468738225
30
0
10
58.0417075288
20
37.5799079825
30
0
10
58.1174551288
20
38.0561579825
30
0
10
58.1809456888
20
38.2052073425
30
0
0
SPLINE
5
17A
100
AcDbEntity
8
reimu
6
ByLayer
62
7
370
-1
100
AcDbSpline
210
0
220
0
230
1
70
8
71
3
72
8
73
4
74
0
42
1e-07
43
1e-07
40
0
40
0
40
0
40
0
40
1
40
1
40
1
40
1
10
58.1809456888
20
38.2052073425
30
0
10
58.2444355288
20
38.3542571825
30
0
10
58.3918387288
20
38.7023138225
30
0
10
58.5090290488
20
38.9777906225
30
0
0
SPLINE
5
17B
100
AcDbEntity
8
reimu
6
ByLayer
62
7
370
-1
100
AcDbSpline
210
0
220
0
230
1
70
8
71
3
72
8
73
4
74
0
42
1e-07
43
1e-07
40
0
40
0
40
0
40
0
40
1
40
1
40
1
40
1
10
58.5090290488
20
38.9777906225
30
0
10
58.6262179288
20
39.2532662225
30
0
10
58.7825714488
20
39.5480097425
30
0
10
58.8561624088
20
39.6339573425
30
0
0
SPLINE
5
17C
100
AcDbEntity
8
reimu
6
ByLayer
62
7
370
-1
100
AcDbSpline
210
0
220
0
230
1
70
8
71
3
72
8
73
4
74
0
42
1e-07
43
1e-07
40
0
40
0
40
0
40
0
40
1
40
1
40
1
40
1
10
58.8561624088
20
39.6339573425
30
0
10
58.9297526488
20
39.7199054225
30
0
10
58.9895124088
20
39.8080067825
30
0
10
58.9895124088
20
39.8286907025
30
0
0
SPLINE
5
17D
100
AcDbEntity
8
reimu
6
ByLayer
62
7
370
-1
100
AcDbSpline
210
0
220
0
230
1
70
8
71
3
72
8
73
4
74
0
42
1e-07
43
1e-07
40
0
40
0
40
0
40
0
40
1
40
1
40
1
40
1
10
58.9895124088
20
39.8286907025
30
0
10
58.9895124088
20
39.9118982225
30
0
10
59.4416906488
20
40.5282175025
30
0
10
59.7155289688
20
40.8192907025
30
0
0
SPLINE
5
17E
100
AcDbEntity
8
reimu
6
ByLayer
62
7
370
-1
100
AcDbSpline
210
0
220
0
230
1
70
8
71
3
72
8
73
4
74
0
42
1e-07
43
1e-07
40
0
40
0
40
0
40
0
40
1
40
1
40
1
40
1
10
59.7155289688
20
40.8192907025
30
0
10
59.9555203288
20
41.0743864625
30
0
10
60.0055123288
20
41.1941248625
30
0
10
60.0055123288
20
41.4966239825
30
0
0
SPLINE
5
17F
100
AcDbEntity
8
reimu
6
ByLayer
62
7
370
-1
100
AcDbSpline
210
0
220
0
230
1
70
8
71
3
72
8
73
4
74
0
42
1e-07
43
1e-07
40
0
40
0
40
0
40
0
40
1
40
1
40
1
40
1
10
60.0055123288
20
41.4966239825
30
0
10
60.0055123288
20
41.6987855825
30
0
10
60.0973240888
20
42.2248655825
30
0
10
60.2087124088
20
42.6671407025
30
0
0
SPLINE
5
180
100
AcDbEntity
8
reimu
6
ByLayer
62
7
370
-1
100
AcDbSpline
210
0
220
0
230
1
70
8
71
3
72
8
73
4
74
0
42
1e-07
43
1e-07
40
0
40
0
40
0
40
0
40
1
40
1
40
1
40
1
10
60.2087124088
20
42.6671407025
30
0
10
60.4436832088
20
43.6001164625
30
0
10
60.5052909688
20
43.7678073425
30
0
10
60.6087624088
20
43.7678073425
30
0
0
SPLINE
5
181
100
AcDbEntity
8
reimu
6
ByLayer
62
7
370
-1
100
AcDbSpline
210
0
220
0
230
1
70
8
71
3
72
8
73
4
74
0
42
1e-07
43
1e-07
40
0
40
0
40
0
40
0
40
1
40
1
40
1
40
1
10
60.6087624088
20
43.7678073425
30
0
10
60.6503457688
20
43.7678073425
30
0
10
60.6828456088
20
43.8137474225
30
0
10
60.6828456088
20
43.8694072625
30
0
0
SPLINE
5
182
100
AcDbEntity
8
reimu
6
ByLayer
62
7
370
-1
100
AcDbSpline
210
0
220
0
230
1
70
8
71
3
72
8
73
4
74
0
42
1e-07
43
1e-07
40
0
40
0
40
0
40
0
40
1
40
1
40
1
40
1
10
60.6828456088
20
43.8694072625
30
0
10
60.6828456088
20
44.0143267025
30
0
10
61.1154768088
20
44.4451406225
30
0
10
61.2606957688
20
44.4451406225
30
0
0
SPLINE
5
183
100
AcDbEntity
8
reimu
6
ByLayer
62
7
370
-1
100
AcDbSpline
210
0
220
0
230
1
70
8
71
3
72
8
73
4
74
0
42
1e-07
43
1e-07
40
0
40
0
40
0
40
0
40
1
40
1
40
1
40
1
10
61.2606957688
20
44.4451406225
30
0
10
61.3545136888
20
44.4451406225
30
0
10
61.3738557688
20
44.5240262225
30
0
10
61.3390123288
20
44.7838072625
30
0
0
SPLINE
5
184
100
AcDbEntity
8
reimu
6
ByLayer
62
7
370
-1
100
AcDbSpline
210
0
220
0
230
1
70
8
71
3
72
8
73
4
74
0
42
1e-07
43
1e-07
40
0
40
0
40
0
40
0
40
1
40
1
40
1
40
1
10
61.3390123288
20
44.7838072625
30
0
10
61.3046817688
20
45.0397607825
30
0
10
61.3210845688
20
45.1224739025
30
0
10
61.4109789688
20
45.1224739025
30
0
0
SPLINE
5
185
100
AcDbEntity
8
reimu
6
ByLayer
62
7
370
-1
100
AcDbSpline
210
0
220
0
230
1
70
8
71
3
72
8
73
4
74
0
42
1e-07
43
1e-07
40
0
40
0
40
0
40
0
40
1
40
1
40
1
40
1
10
61.4109789688
20
45.1224739025
30
0
10
61.4763979288
20
45.1224739025
30
0
10
61.5295123288
20
45.0781979825
30
0
10
61.5295123288
20
45.0229905425
30
0
0
SPLINE
5
186
100
AcDbEntity
8
reimu
6
ByLayer
62
7
370
-1
100
AcDbSpline
210
0
220
0
230
1
70
8
71
3
72
8
73
4
74
0
42
1e-07
43
1e-07
40
0
40
0
40
0
40
0
40
1
40
1
40
1
40
1
10
61.5295123288
20
45.0229905425
30
0
10
61.5295123288
20
44.9677838225
30
0
10
61.5999590488
20
44.8439591825
30
0
10
61.6861456888
20
44.7478238225
30
0
0
SPLINE
5
187
100
AcDbEntity
8
reimu
6
ByLayer
62
7
370
-1
100
AcDbSpline
210
0
220
0
230
1
70
8
71
3
72
8
73
4
74
0
42
1e-07
43
1e-07
40
0
40
0
40
0
40
0
40
1
40
1
40
1
40
1
10
61.6861456888
20
44.7478238225
30
0
10
61.7723308888
20
44.6516894225
30
0
10
61.8913831288
20
44.3976386225
30
0
10
61.9486123288
20
44.1847905425
30
0
0
SPLINE
5
188
100
AcDbEntity
8
reimu
6
ByLayer
62
7
370
-1
100
AcDbSpline
210
0
220
0
230
1
70
8
71
3
72
8
73
4
74
0
42
1e-07
43
1e-07
40
0
40
0
40
0
40
0
40
1
40
1
40
1
40
1
10
61.9486123288
20
44.1847905425
30
0
10
62.0629149688
20
43.7596737425
30
0
10
62.0432731288
20
43.7101737425
30
0
10
61.4787122488
20
42.9020906225
30
0
0
LWPOLYLINE
5
189
100
AcDbEntity
8
reimu
6
ByLayer
62
7
370
-1
100
AcDbPolyline
90
3
70
0
43
0
10
56.3140456888
20
35.7435239825
10
55.8039290488
20
35.3836905425
10
55.5816789688
20
34.4735239025
0
SPLINE
5
18A
100
AcDbEntity
8
reimu
6
ByLayer
62
7
370
-1
100
AcDbSpline
210
0
220
0
230
1
70
8
71
3
72
8
73
4
74
0
42
1e-07
43
1e-07
40
0
40
0
40
0
40
0
40
1
40
1
40
1
40
1
10
61.3707624088
20
41.7717907025
30
0
10
61.5839340088
20
40.7293223825
30
0
10
61.5885338488
20
40.1095178225
30
0
10
61.3834622488
20
39.6741739025
30
0
0
SPLINE
5
18B
100
AcDbEntity
8
reimu
6
ByLayer
62
7
370
-1
100
AcDbSpline
210
0
220
0
230
1
70
8
71
3
72
8
73
4
74
0
42
1e-07
43
1e-07
40
0
40
0
40
0
40
0
40
1
40
1
40
1
40
1
10
61.3834622488
20
39.6741739025
30
0
10
61.0355853688
20
38.9356687025
30
0
10
61.0250059288
20
38.8336567025
30
0
10
61.2437623288
20
38.1840405425
30
0
0
SPLINE
5
18C
100
AcDbEntity
8
reimu
6
ByLayer
62
7
370
-1
100
AcDbSpline
210
0
220
0
230
1
70
8
71
3
72
8
73
4
74
0
42
1e-07
43
1e-07
40
0
40
0
40
0
40
0
40
1
40
1
40
1
40
1
10
61.2437623288
20
38.1840405425
30
0
10
61.4089003288
20
37.6936478225
30
0
10
61.4278771288
20
37.5578039825
30
0
10
61.3411288888
20
37.4537906225
30
0
0
SPLINE
5
18D
100
AcDbEntity
8
reimu
6
ByLayer
62
7
370
-1
100
AcDbSpline
210
0
220
0
230
1
70
8
71
3
72
8
73
4
74
0
42
1e-07
43
1e-07
40
0
40
0
40
0
40
0
40
1
40
1
40
1
40
1
10
61.3411288888
20
37.4537906225
30
0
10
61.1322374488
20
37.2033227825
30
0
10
60.7252603288
20
36.8255469425
30
0
10
60.6637956088
20
36.8251406225
30
0
0
SPLINE
5
18E
100
AcDbEntity
8
reimu
6
ByLayer
62
7
370
-1
100
AcDbSpline
210
0
220
0
230
1
70
8
71
3
72
8
73
4
74
0
42
1e-07
43
1e-07
40
0
40
0
40
0
40
0
40
1
40
1
40
1
40
1
10
60.6637956088
20
36.8251406225
30
0
10
60.4636754488
20
36.8238868625
30
0
10
59.4975122488
20
35.8405180625
30
0
10
59.4975122488
20
35.6376907025
30
0
0
SPLINE
5
18F
100
AcDbEntity
8
reimu
6
ByLayer
62
7
370
-1
100
AcDbSpline
210
0
220
0
230
1
70
8
71
3
72
8
73
4
74
0
42
1e-07
43
1e-07
40
0
40
0
40
0
40
0
40
1
40
1
40
1
40
1
10
59.4975122488
20
35.6376907025
30
0
10
59.4975122488
20
35.5858319825
30
0
10
59.4447067288
20
35.4896349425
30
0
10
59.3789788888
20
35.4239073425
30
0
0
SPLINE
5
190
100
AcDbEntity
8
reimu
6
ByLayer
62
7
370
-1
100
AcDbSpline
210
0
220
0
230
1
70
8
71
3
72
8
73
4
74
0
42
1e-07
43
1e-07
40
0
40
0
40
0
40
0
40
1
40
1
40
1
40
1
10
59.3789788888
20
35.4239073425
30
0
10
59.3132512888
20
35.3581795025
30
0
10
59.1748951288
20
35.0322643025
30
0
10
59.0720623288
20
34.7000073425
30
0
0
SPLINE
5
191
100
AcDbEntity
8
reimu
6
ByLayer
62
7
370
-1
100
AcDbSpline
210
0
220
0
230
1
70
8
71
3
72
8
73
4
74
0
42
1e-07
43
1e-07
40
0
40
0
40
0
40
0
40
1
40
1
40
1
40
1
10
59.0720623288
20
34.7000073425
30
0
10
58.8785841688
20
34.0748637425
30
0
10
58.8840746488
20
33.4580380625
30
0
10
59.0847624088
20
33.2162239025
30
0
0
SPLINE
5
192
100
AcDbEntity
8
reimu
6
ByLayer
62
7
370
-1
100
AcDbSpline
210
0
220
0
230
1
70
8
71
3
72
8
73
4
74
0
42
1e-07
43
1e-07
40
0
40
0
40
0
40
0
40
1
40
1
40
1
40
1
10
59.0847624088
20
33.2162239025
30
0
10
59.1932493688
20
33.0855059825
30
0
10
59.3281790488
20
33.1391692625
30
0
10
59.3281790488
20
33.3135907025
30
0
0
SPLINE
5
193
100
AcDbEntity
8
reimu
6
ByLayer
62
7
370
-1
100
AcDbSpline
210
0
220
0
230
1
70
8
71
3
72
8
73
4
74
0
42
1e-07
43
1e-07
40
0
40
0
40
0
40
0
40
1
40
1
40
1
40
1
10
59.3281790488
20
33.3135907025
30
0
10
59.3281790488
20
33.6644011025
30
0
10
60.1864639288
20
34.6644412625
30
0
10
60.7230624088
20
34.9391906225
30
0
0
SPLINE
5
194
100
AcDbEntity
8
reimu
6
ByLayer
62
7
370
-1
100
AcDbSpline
210
0
220
0
230
1
70
8
71
3
72
8
73
4
74
0
42
1e-07
43
1e-07
40
0
40
0
40
0
40
0
40
1
40
1
40
1
40
1
10
60.7230624088
20
34.9391906225
30
0
10
61.0432080088
20
35.1031120625
30
0
10
61.1050816888
20
35.1940041425
30
0
10
61.1061789688
20
35.5128071825
30
0
0
SPLINE
5
195
100
AcDbEntity
8
reimu
6
ByLayer
62
7
370
-1
100
AcDbSpline
210
0
220
0
230
1
70
8
71
3
72
8
73
4
74
0
42
1e-07
43
1e-07
40
0
40
0
40
0
40
0
40
1
40
1
40
1
40
1
10
61.1061789688
20
35.5128071825
30
0
10
61.1071394488
20
35.7906832625
30
0
10
61.2902164888
20
36.4090749425
30
0
10
61.5400956088
20
36.9754238225
30
0
0
SPLINE
5
196
100
AcDbEntity
8
reimu
6
ByLayer
62
7
370
-1
100
AcDbSpline
210
0
220
0
230
1
70
8
71
3
72
8
73
4
74
0
42
1e-07
43
1e-07
40
0
40
0
40
0
40
0
40
1
40
1
40
1
40
1
10
61.5400956088
20
36.9754238225
30
0
10
61.6279641688
20
37.1745775025
30
0
10
61.6988457688
20
37.3855514225
30
0
10
61.6988457688
20
37.4432073425
30
0
0
SPLINE
5
197
100
AcDbEntity
8
reimu
6
ByLayer
62
7
370
-1
100
AcDbSpline
210
0
220
0
230
1
70
8
71
3
72
8
73
4
74
0
42
1e-07
43
1e-07
40
0
40
0
40
0
40
0
40
1
40
1
40
1
40
1
10
61.6988457688
20
37.4432073425
30
0
10
61.6988457688
20
37.5946495025
30
0
10
62.2147495288
20
38.6350735025
30
0
10
62.3253789688
20
38.7068572625
30
0
0
SPLINE
5
198
100
AcDbEntity
8
reimu
6
ByLayer
62
7
370
-1
100
AcDbSpline
210
0
220
0
230
1
70
8
71
3
72
8
73
4
74
0
42
1e-07
43
1e-07
40
0
40
0
40
0
40
0
40
1
40
1
40
1
40
1
10
62.3253789688
20
38.7068572625
30
0
10
62.4829591288
20
38.8091054225
30
0
10
62.4122551288
20
39.6708211025
30
0
10
62.2068456088
20
40.1483073425
30
0
0
SPLINE
5
199
100
AcDbEntity
8
reimu
6
ByLayer
62
7
370
-1
100
AcDbSpline
210
0
220
0
230
1
70
8
71
3
72
8
73
4
74
0
42
1e-07
43
1e-07
40
0
40
0
40
0
40
0
40
1
40
1
40
1
40
1
10
62.2068456088
20
40.1483073425
30
0
10
61.9444161688
20
40.7583422225
30
0
10
61.9410153688
20
42.0385677425
30
0
10
62.1983788888
20
42.8364739025
30
0
0
SPLINE
5
19A
100
AcDbEntity
8
reimu
6
ByLayer
62
7
370
-1
100
AcDbSpline
210
0
220
0
230
1
70
8
71
3
72
8
73
4
74
0
42
1e-07
43
1e-07
40
0
40
0
40
0
40
0
40
1
40
1
40
1
40
1
10
62.1983788888
20
42.8364739025
30
0
10
62.2960077688
20
43.1391573425
30
0
10
62.3806528888
20
43.5392073425
30
0
10
62.3867623288
20
43.7254739825
30
0
0
SPLINE
5
19B
100
AcDbEntity
8
reimu
6
ByLayer
62
7
370
-1
100
AcDbSpline
210
0
220
0
230
1
70
8
71
3
72
8
73
4
74
0
42
1e-07
43
1e-07
40
0
40
0
40
0
40
0
40
1
40
1
40
1
40
1
10
62.3867623288
20
43.7254739825
30
0
10
62.3928724888
20
43.9117406225
30
0
10
62.4234012088
20
44.1784406225
30
0
10
62.4544956088
20
44.3181405425
30
0
0
SPLINE
5
19C
100
AcDbEntity
8
reimu
6
ByLayer
62
7
370
-1
100
AcDbSpline
210
0
220
0
230
1
70
8
71
3
72
8
73
4
74
0
42
1e-07
43
1e-07
40
0
40
0
40
0
40
0
40
1
40
1
40
1
40
1
10
62.4544956088
20
44.3181405425
30
0
10
62.5468466488
20
44.7330520625
30
0
10
62.3272159288
20
45.7440736625
30
0
10
62.0015289688
20
46.4051738225
30
0
0
SPLINE
5
19D
100
AcDbEntity
8
reimu
6
ByLayer
62
7
370
-1
100
AcDbSpline
210
0
220
0
230
1
70
8
71
3
72
8
73
4
74
0
42
1e-07
43
1e-07
40
0
40
0
40
0
40
0
40
1
40
1
40
1
40
1
10
62.0015289688
20
46.4051738225
30
0
10
61.7994703288
20
46.8153263825
30
0
10
61.6988457688
20
47.1350906225
30
0
10
61.6988457688
20
47.3767238225
30
0
0
SPLINE
5
19E
100
AcDbEntity
8
reimu
6
ByLayer
62
7
370
-1
100
AcDbSpline
210
0
220
0
230
1
70
8
71
3
72
8
73
4
74
0
42
1e-07
43
1e-07
40
0
40
0
40
0
40
0
40
1
40
1
40
1
40
1
10
61.6988457688
20
47.3767238225
30
0
10
61.6988457688
20
47.6528755025
30
0
10
61.6568781688
20
47.7688355825
30
0
10
61.5125788888
20
47.8699072625
30
0
0
SPLINE
5
19F
100
AcDbEntity
8
reimu
6
ByLayer
62
7
370
-1
100
AcDbSpline
210
0
220
0
230
1
70
8
71
3
72
8
73
4
74
0
42
1e-07
43
1e-07
40
0
40
0
40
0
40
0
40
1
40
1
40
1
40
1
10
61.5125788888
20
47.8699072625
30
0
10
61.4090851288
20
47.9423968625
30
0
10
61.2852597688
20
48.0011411825
30
0
10
61.2374124088
20
48.0011407025
30
0
0
SPLINE
5
1A0
100
AcDbEntity
8
reimu
6
ByLayer
62
7
370
-1
100
AcDbSpline
210
0
220
0
230
1
70
8
71
3
72
8
73
4
74
0
42
1e-07
43
1e-07
40
0
40
0
40
0
40
0
40
1
40
1
40
1
40
1
10
61.2374124088
20
48.0011407025
30
0
10
61.1895655288
20
48.0011392625
30
0
10
60.7503765688
20
47.6201392625
30
0
10
60.2637456088
20
47.1544739825
30
0
0
SPLINE
5
1A1
100
AcDbEntity
8
reimu
6
ByLayer
62
7
370
-1
100
AcDbSpline
210
0
220
0
230
1
70
8
71
3
72
8
73
4
74
0
42
1e-07
43
1e-07
40
0
40
0
40
0
40
0
40
1
40
1
40
1
40
1
10
60.2637456088
20
47.1544739825
30
0
10
59.7771156088
20
46.6888079825
30
0
10
59.3674399288
20
46.3078072625
30
0
10
59.3514624088
20
46.3078072625
30
0
0
SPLINE
5
1A2
100
AcDbEntity
8
reimu
6
ByLayer
62
7
370
-1
100
AcDbSpline
210
0
220
0
230
1
70
8
71
3
72
8
73
4
74
0
42
1e-07
43
1e-07
40
0
40
0
40
0
40
0
40
1
40
1
40
1
40
1
10
59.3514624088
20
46.3078072625
30
0
10
59.3354846488
20
46.3078072625
30
0
10
58.9270485688
20
45.9172826225
30
0
10
58.4455288888
20
45.4399739825
30
0
0
SPLINE
5
1A3
100
AcDbEntity
8
reimu
6
ByLayer
62
7
370
-1
100
AcDbSpline
210
0
220
0
230
1
70
8
71
3
72
8
73
4
74
0
42
1e-07
43
1e-07
40
0
40
0
40
0
40
0
40
1
40
1
40
1
40
1
10
58.4455288888
20
45.4399739825
30
0
10
56.3108743288
20
43.3239907025
30
0
10
51.9276662488
20
39.0605851025
30
0
10
51.7822622488
20
38.9587406225
30
0
0
SPLINE
5
1A4
100
AcDbEntity
8
reimu
6
ByLayer
62
7
370
-1
100
AcDbSpline
210
0
220
0
230
1
70
8
71
3
72
8
73
4
74
0
42
1e-07
43
1e-07
40
0
40
0
40
0
40
0
40
1
40
1
40
1
40
1
10
51.7822622488
20
38.9587406225
30
0
10
51.6459820888
20
38.8632866225
30
0
10
51.6155272888
20
38.8670500625
30
0
10
51.5705956888
20
38.9841405425
30
0
0
SPLINE
5
1A5
100
AcDbEntity
8
reimu
6
ByLayer
62
7
370
-1
100
AcDbSpline
210
0
220
0
230
1
70
8
71
3
72
8
73
4
74
0
42
1e-07
43
1e-07
40
0
40
0
40
0
40
0
40
1
40
1
40
1
40
1
10
51.5705956888
20
38.9841405425
30
0
10
51.5136007288
20
39.1326662225
30
0
10
51.4524002488
20
39.2093675825
30
0
10
50.7323956888
20
40.0424738225
30
0
0
SPLINE
5
1A6
100
AcDbEntity
8
reimu
6
ByLayer
62
7
370
-1
100
AcDbSpline
210
0
220
0
230
1
70
8
71
3
72
8
73
4
74
0
42
1e-07
43
1e-07
40
0
40
0
40
0
40
0
40
1
40
1
40
1
40
1
10
50.7323956888
20
40.0424738225
30
0
10
50.4708048088
20
40.3451572625
30
0
10
50.2222084888
20
40.6690072625
30
0
10
50.1799456888
20
40.7621407025
30
0
0
SPLINE
5
1A7
100
AcDbEntity
8
reimu
6
ByLayer
62
7
370
-1
100
AcDbSpline
210
0
220
0
230
1
70
8
71
3
72
8
73
4
74
0
42
1e-07
43
1e-07
40
0
40
0
40
0
40
0
40
1
40
1
40
1
40
1
10
50.1799456888
20
40.7621407025
30
0
10
50.1376833688
20
40.8552739025
30
0
10
50.0068917688
20
41.0838739025
30
0
10
49.8899623288
20
41.2701405425
30
0
0
SPLINE
5
1A8
100
AcDbEntity
8
reimu
6
ByLayer
62
7
370
-1
100
AcDbSpline
210
0
220
0
230
1
70
8
71
3
72
8
73
4
74
0
42
1e-07
43
1e-07
40
0
40
0
40
0
40
0
40
1
40
1
40
1
40
1
10
49.8899623288
20
41.2701405425
30
0
10
49.7730336088
20
41.4564071825
30
0
10
49.6329712888
20
41.7040571825
30
0
10
49.5788124088
20
41.8204739825
30
0
0
SPLINE
5
1A9
100
AcDbEntity
8
reimu
6
ByLayer
62
7
370
-1
100
AcDbSpline
210
0
220
0
230
1
70
8
71
3
72
8
73
4
74
0
42
1e-07
43
1e-07
40
0
40
0
40
0
40
0
40
1
40
1
40
1
40
1
10
49.5788124088
20
41.8204739825
30
0
10
49.5246528088
20
41.9368905425
30
0
10
49.3932520888
20
42.2197111025
30
0
10
49.2845956888
20
42.4491239825
30
0
0
SPLINE
5
1AA
100
AcDbEntity
8
reimu
6
ByLayer
62
7
370
-1
100
AcDbSpline
210
0
220
0
230
1
70
8
71
3
72
8
73
4
74
0
42
1e-07
43
1e-07
40
0
40
0
40
0
40
0
40
1
40
1
40
1
40
1
10
49.2845956888
20
42.4491239825
30
0
10
49.1759385688
20
42.6785354225
30
0
10
49.1015030488
20
42.8819805425
30
0
10
49.1194956088
20
42.8999738225
30
0
0
SPLINE
5
1AB
100
AcDbEntity
8
reimu
6
ByLayer
62
7
370
-1
100
AcDbSpline
210
0
220
0
230
1
70
8
71
3
72
8
73
4
74
0
42
1e-07
43
1e-07
40
0
40
0
40
0
40
0
40
1
40
1
40
1
40
1
10
49.1194956088
20
42.8999738225
30
0
10
49.1374891288
20
42.9179666225
30
0
10
49.4309714488
20
42.8751897425
30
0
10
49.7714289688
20
42.8047238225
30
0
0
SPLINE
5
1AC
100
AcDbEntity
8
reimu
6
ByLayer
62
7
370
-1
100
AcDbSpline
210
0
220
0
230
1
70
8
71
3
72
8
73
4
74
0
42
1e-07
43
1e-07
40
0
40
0
40
0
40
0
40
1
40
1
40
1
40
1
10
49.7714289688
20
42.8047238225
30
0
10
50.5548117688
20
42.6425865425
30
0
10
50.6444256088
20
42.6957491825
30
0
10
50.5630622488
20
43.2873239825
30
0
0
SPLINE
5
1AD
100
AcDbEntity
8
reimu
6
ByLayer
62
7
370
-1
100
AcDbSpline
210
0
220
0
230
1
70
8
71
3
72
8
73
4
74
0
42
1e-07
43
1e-07
40
0
40
0
40
0
40
0
40
1
40
1
40
1
40
1
10
50.5630622488
20
43.2873239825
30
0
10
50.5312135288
20
43.5188961425
30
0
10
50.4520317688
20
43.8353205425
30
0
10
50.3873788888
20
43.9900571825
30
0
0
LWPOLYLINE
5
1AE
100
AcDbEntity
8
reimu
6
ByLayer
62
7
370
-1
100
AcDbPolyline
90
3
70
0
43
0
10
61.4787122488
20
42.9020906225
10
61.2162456088
20
42.5274405425
10
61.3707624088
20
41.7717907025
0
SPLINE
5
1AF
100
AcDbEntity
8
reimu
6
ByLayer
62
7
370
-1
100
AcDbSpline
210
0
220
0
230
1
70
8
71
3
72
8
73
4
74
0
42
1e-07
43
1e-07
40
0
40
0
40
0
40
0
40
1
40
1
40
1
40
1
10
50.5440122488
20
44.2271239025
30
0
10
50.6955052888
20
44.2020232625
30
0
10
50.8935684088
20
44.1650721425
30
0
10
50.9842790488
20
44.1466905425
30
0
0
SPLINE
5
1B0
100
AcDbEntity
8
reimu
6
ByLayer
62
7
370
-1
100
AcDbSpline
210
0
220
0
230
1
70
8
71
3
72
8
73
4
74
0
42
1e-07
43
1e-07
40
0
40
0
40
0
40
0
40
1
40
1
40
1
40
1
10
50.9842790488
20
44.1466905425
30
0
10
51.1762312888
20
44.1077913425
30
0
10
51.3695124088
20
44.2441113425
30
0
10
51.3695124088
20
44.4176239025
30
0
0
SPLINE
5
1B1
100
AcDbEntity
8
reimu
6
ByLayer
62
7
370
-1
100
AcDbSpline
210
0
220
0
230
1
70
8
71
3
72
8
73
4
74
0
42
1e-07
43
1e-07
40
0
40
0
40
0
40
0
40
1
40
1
40
1
40
1
10
51.3695124088
20
44.4176239025
30
0
10
51.3695124088
20
44.6594428625
30
0
10
50.9662816888
20
45.3841732625
30
0
10
50.5651790488
20
45.8633073425
30
0
0
SPLINE
5
1B2
100
AcDbEntity
8
reimu
6
ByLayer
62
7
370
-1
100
AcDbSpline
210
0
220
0
230
1
70
8
71
3
72
8
73
4
74
0
42
1e-07
43
1e-07
40
0
40
0
40
0
40
0
40
1
40
1
40
1
40
1
10
50.5651790488
20
45.8633073425
30
0
10
50.0805415288
20
46.4422255025
30
0
10
49.1262744088
20
47.3238071825
30
0
10
48.9840290488
20
47.3238071825
30
0
0
SPLINE
5
1B3
100
AcDbEntity
8
reimu
6
ByLayer
62
7
370
-1
100
AcDbSpline
210
0
220
0
230
1
70
8
71
3
72
8
73
4
74
0
42
1e-07
43
1e-07
40
0
40
0
40
0
40
0
40
1
40
1
40
1
40
1
10
48.9840290488
20
47.3238071825
30
0
10
48.9430699288
20
47.3238071825
30
0
10
48.8873856088
20
47.3806139825
30
0
10
48.8612623288
20
47.4486907025
30
0
0
SPLINE
5
1B4
100
AcDbEntity
8
reimu
6
ByLayer
62
7
370
-1
100
AcDbSpline
210
0
220
0
230
1
70
8
71
3
72
8
73
4
74
0
42
1e-07
43
1e-07
40
0
40
0
40
0
40
0
40
1
40
1
40
1
40
1
10
48.8612623288
20
47.4486907025
30
0
10
48.8351390488
20
47.5167686225
30
0
10
48.7437388888
20
47.5943925425
30
0
10
48.6559456888
20
47.6222572625
30
0
0
SPLINE
5
1B5
100
AcDbEntity
8
reimu
6
ByLayer
62
7
370
-1
100
AcDbSpline
210
0
220
0
230
1
70
8
71
3
72
8
73
4
74
0
42
1e-07
43
1e-07
40
0
40
0
40
0
40
0
40
1
40
1
40
1
40
1
10
48.6559456888
20
47.6222572625
30
0
10
48.5566154488
20
47.6537836625
30
0
10
48.4603886488
20
47.8058003825
30
0
10
48.4040623288
20
48.0265406225
30
0
0
SPLINE
5
1B6
100
AcDbEntity
8
reimu
6
ByLayer
62
7
370
-1
100
AcDbSpline
210
0
220
0
230
1
70
8
71
3
72
8
73
4
74
0
42
1e-07
43
1e-07
40
0
40
0
40
0
40
0
40
1
40
1
40
1
40
1
10
48.4040623288
20
48.0265406225
30
0
10
48.1899470488
20
48.8656495025
30
0
10
48.0584150488
20
49.0171406225
30
0
10
47.5341122488
20
49.0171406225
30
0
0
LWPOLYLINE
5
1B7
100
AcDbEntity
8
reimu
6
ByLayer
62
7
370
-1
100
AcDbPolyline
90
3
70
0
43
0
10
50.3873788888
20
43.9900571825
10
50.2688457688
20
44.2715738225
10
50.5440122488
20
44.2271239025
0
SPLINE
5
1B8
100
AcDbEntity
8
reimu
6
ByLayer
62
7
370
-1
100
AcDbSpline
210
0
220
0
230
1
70
8
71
3
72
8
73
4
74
0
42
1e-07
43
1e-07
40
0
40
0
40
0
40
0
40
1
40
1
40
1
40
1
10
47.2779957688
20
49.4193071825
30
0
10
47.2977583288
20
49.6404993425
30
0
10
47.3490446488
20
50.1155301425
30
0
10
47.3922957688
20
50.4755239025
30
0
0
SPLINE
5
1B9
100
AcDbEntity
8
reimu
6
ByLayer
62
7
370
-1
100
AcDbSpline
210
0
220
0
230
1
70
8
71
3
72
8
73
4
74
0
42
1e-07
43
1e-07
40
0
40
0
40
0
40
0
40
1
40
1
40
1
40
1
10
47.3922957688
20
50.4755239025
30
0
10
47.4355447288
20
50.8355191025
30
0
10
47.4533092888
20
51.1799303825
30
0
10
47.4303957688
20
51.2396407025
30
0
0
SPLINE
5
1BA
100
AcDbEntity
8
reimu
6
ByLayer
62
7
370
-1
100
AcDbSpline
210
0
220
0
230
1
70
8
71
3
72
8
73
4
74
0
42
1e-07
43
1e-07
40
0
40
0
40
0
40
0
40
1
40
1
40
1
40
1
10
47.4303957688
20
51.2396407025
30
0
10
47.4074822488
20
51.2993510225
30
0
10
47.2757455288
20
51.3968157425
30
0
10
47.1382956088
20
51.4576571825
30
0
0
SPLINE
5
1BB
100
AcDbEntity
8
reimu
6
ByLayer
62
7
370
-1
100
AcDbSpline
210
0
220
0
230
1
70
8
71
3
72
8
73
4
74
0
42
1e-07
43
1e-07
40
0
40
0
40
0
40
0
40
1
40
1
40
1
40
1
10
47.1382956088
20
51.4576571825
30
0
10
46.8663938488
20
51.5780126225
30
0
10
46.7618500888
20
51.8808050225
30
0
10
46.8123290488
20
52.4059238225
30
0
0
SPLINE
5
1BC
100
AcDbEntity
8
reimu
6
ByLayer
62
7
370
-1
100
AcDbSpline
210
0
220
0
230
1
70
8
71
3
72
8
73
4
74
0
42
1e-07
43
1e-07
40
0
40
0
40
0
40
0
40
1
40
1
40
1
40
1
10
46.8123290488
20
52.4059238225
30
0
10
46.8421965688
20
52.7166357425
30
0
10
46.8879600088
20
52.7516356625
30
0
10
47.7288456088
20
53.0853739025
30
0
0
SPLINE
5
1BD
100
AcDbEntity
8
reimu
6
ByLayer
62
7
370
-1
100
AcDbSpline
210
0
220
0
230
1
70
8
71
3
72
8
73
4
74
0
42
1e-07
43
1e-07
40
0
40
0
40
0
40
0
40
1
40
1
40
1
40
1
10
47.7288456088
20
53.0853739025
30
0
10
47.9849623288
20
53.1870235025
30
0
10
48.2087316088
20
53.2810298225
30
0
10
48.2241456088
20
53.2949239025
30
0
0
SPLINE
5
1BE
100
AcDbEntity
8
reimu
6
ByLayer
62
7
370
-1
100
AcDbSpline
210
0
220
0
230
1
70
8
71
3
72
8
73
4
74
0
42
1e-07
43
1e-07
40
0
40
0
40
0
40
0
40
1
40
1
40
1
40
1
10
48.2241456088
20
53.2949239025
30
0
10
48.2809792888
20
53.3461499825
30
0
10
48.0358658488
20
53.7154185425
30
0
10
47.7796456888
20
53.9659072625
30
0
0
SPLINE
5
1BF
100
AcDbEntity
8
reimu
6
ByLayer
62
7
370
-1
100
AcDbSpline
210
0
220
0
230
1
70
8
71
3
72
8
73
4
74
0
42
1e-07
43
1e-07
40
0
40
0
40
0
40
0
40
1
40
1
40
1
40
1
10
47.7796456888
20
53.9659072625
30
0
10
47.2551648088
20
54.4786552625
30
0
10
47.2500753688
20
54.4971376625
30
0
10
47.5362290488
20
54.7998739025
30
0
0
SPLINE
5
1C0
100
AcDbEntity
8
reimu
6
ByLayer
62
7
370
-1
100
AcDbSpline
210
0
220
0
230
1
70
8
71
3
72
8
73
4
74
0
42
1e-07
43
1e-07
40
0
40
0
40
0
40
0
40
1
40
1
40
1
40
1
10
47.5362290488
20
54.7998739025
30
0
10
47.6774774488
20
54.9493072625
30
0
10
47.8116482488
20
55.1660572625
30
0
10
47.8346788888
20
55.2824738225
30
0
0
SPLINE
5
1C1
100
AcDbEntity
8
reimu
6
ByLayer
62
7
370
-1
100
AcDbSpline
210
0
220
0
230
1
70
8
71
3
72
8
73
4
74
0
42
1e-07
43
1e-07
40
0
40
0
40
0
40
0
40
1
40
1
40
1
40
1
10
47.8346788888
20
55.2824738225
30
0
10
47.8577109688
20
55.3988906225
30
0
10
47.9043000088
20
55.5612290225
30
0
10
47.9383956088
20
55.6423072625
30
0
0
SPLINE
5
1C2
100
AcDbEntity
8
reimu
6
ByLayer
62
7
370
-1
100
AcDbSpline
210
0
220
0
230
1
70
8
71
3
72
8
73
4
74
0
42
1e-07
43
1e-07
40
0
40
0
40
0
40
0
40
1
40
1
40
1
40
1
10
47.9383956088
20
55.6423072625
30
0
10
47.9879899288
20
55.7602432625
30
0
10
47.9214007288
20
55.8237376625
30
0
10
47.6039623288
20
55.9598073425
30
0
0
SPLINE
5
1C3
100
AcDbEntity
8
reimu
6
ByLayer
62
7
370
-1
100
AcDbSpline
210
0
220
0
230
1
70
8
71
3
72
8
73
4
74
0
42
1e-07
43
1e-07
40
0
40
0
40
0
40
0
40
1
40
1
40
1
40
1
10
47.6039623288
20
55.9598073425
30
0
10
47.3857281688
20
56.0533538225
30
0
10
47.1492948088
20
56.1291405425
30
0
10
47.0790290488
20
56.1291405425
30
0
0
SPLINE
5
1C4
100
AcDbEntity
8
reimu
6
ByLayer
62
7
370
-1
100
AcDbSpline
210
0
220
0
230
1
70
8
71
3
72
8
73
4
74
0
42
1e-07
43
1e-07
40
0
40
0
40
0
40
0
40
1
40
1
40
1
40
1
10
47.0790290488
20
56.1291405425
30
0
10
46.9605960088
20
56.1291405425
30
0
10
46.8148406488
20
56.2264055825
30
0
10
46.2344788888
20
56.6858239025
30
0
0
SPLINE
5
1C5
100
AcDbEntity
8
reimu
6
ByLayer
62
7
370
-1
100
AcDbSpline
210
0
220
0
230
1
70
8
71
3
72
8
73
4
74
0
42
1e-07
43
1e-07
40
0
40
0
40
0
40
0
40
1
40
1
40
1
40
1
10
46.2344788888
20
56.6858239025
30
0
10
46.0204456888
20
56.8552528625
30
0
10
46.0173612088
20
56.8692695825
30
0
10
46.1476956088
20
57.1091572625
30
0
0
SPLINE
5
1C6
100
AcDbEntity
8
reimu
6
ByLayer
62
7
370
-1
100
AcDbSpline
210
0
220
0
230
1
70
8
71
3
72
8
73
4
74
0
42
1e-07
43
1e-07
40
0
40
0
40
0
40
0
40
1
40
1
40
1
40
1
10
46.1476956088
20
57.1091572625
30
0
10
46.5761896888
20
57.8978217425
30
0
10
46.9216255288
20
58.7480601425
30
0
10
47.2758789688
20
59.8819905425
30
0
0
SPLINE
5
1C7
100
AcDbEntity
8
reimu
6
ByLayer
62
7
370
-1
100
AcDbSpline
210
0
220
0
230
1
70
8
71
3
72
8
73
4
74
0
42
1e-07
43
1e-07
40
0
40
0
40
0
40
0
40
1
40
1
40
1
40
1
10
47.2758789688
20
59.8819905425
30
0
10
47.3604576088
20
60.1527172625
30
0
10
47.4441170488
20
60.3297763025
30
0
10
47.4621456088
20
60.2756906225
30
0
0
SPLINE
5
1C8
100
AcDbEntity
8
reimu
6
ByLayer
62
7
370
-1
100
AcDbSpline
210
0
220
0
230
1
70
8
71
3
72
8
73
4
74
0
42
1e-07
43
1e-07
40
0
40
0
40
0
40
0
40
1
40
1
40
1
40
1
10
47.4621456088
20
60.2756906225
30
0
10
47.5102382488
20
60.1314131825
30
0
10
47.3078647288
20
59.2203184625
30
0
10
47.0811456088
20
58.5654239825
30
0
0
SPLINE
5
1C9
100
AcDbEntity
8
reimu
6
ByLayer
62
7
370
-1
100
AcDbSpline
210
0
220
0
230
1
70
8
71
3
72
8
73
4
74
0
42
1e-07
43
1e-07
40
0
40
0
40
0
40
0
40
1
40
1
40
1
40
1
10
47.0811456088
20
58.5654239825
30
0
10
46.8461280088
20
57.8865563825
30
0
10
46.8309021688
20
57.7591838225
30
0
10
47.0091789688
20
57.9071407025
30
0
0
SPLINE
5
1CA
100
AcDbEntity
8
reimu
6
ByLayer
62
7
370
-1
100
AcDbSpline
210
0
220
0
230
1
70
8
71
3
72
8
73
4
74
0
42
1e-07
43
1e-07
40
0
40
0
40
0
40
0
40
1
40
1
40
1
40
1
10
47.0091789688
20
57.9071407025
30
0
10
47.0790290488
20
57.9651107825
30
0
10
47.1361790488
20
58.0705250225
30
0
10
47.1361790488
20
58.1399738225
30
0
0
SPLINE
5
1CB
100
AcDbEntity
8
reimu
6
ByLayer
62
7
370
-1
100
AcDbSpline
210
0
220
0
230
1
70
8
71
3
72
8
73
4
74
0
42
1e-07
43
1e-07
40
0
40
0
40
0
40
0
40
1
40
1
40
1
40
1
10
47.1361790488
20
58.1399738225
30
0
10
47.1361790488
20
58.2094235825
30
0
10
47.2080230488
20
58.4045668625
30
0
10
47.2949289688
20
58.5738907025
30
0
0
SPLINE
5
1CC
100
AcDbEntity
8
reimu
6
ByLayer
62
7
370
-1
100
AcDbSpline
210
0
220
0
230
1
70
8
71
3
72
8
73
4
74
0
42
1e-07
43
1e-07
40
0
40
0
40
0
40
0
40
1
40
1
40
1
40
1
10
47.2949289688
20
58.5738907025
30
0
10
47.6162762488
20
59.1999837425
30
0
10
47.8135123288
20
59.6649602225
30
0
10
47.8135123288
20
59.7952072625
30
0
0
SPLINE
5
1CD
100
AcDbEntity
8
reimu
6
ByLayer
62
7
370
-1
100
AcDbSpline
210
0
220
0
230
1
70
8
71
3
72
8
73
4
74
0
42
1e-07
43
1e-07
40
0
40
0
40
0
40
0
40
1
40
1
40
1
40
1
10
47.8135123288
20
59.7952072625
30
0
10
47.8135123288
20
59.8688503025
30
0
10
47.8516123288
20
59.9526940625
30
0
10
47.8981790488
20
59.9814739025
30
0
0
SPLINE
5
1CE
100
AcDbEntity
8
reimu
6
ByLayer
62
7
370
-1
100
AcDbSpline
210
0
220
0
230
1
70
8
71
3
72
8
73
4
74
0
42
1e-07
43
1e-07
40
0
40
0
40
0
40
0
40
1
40
1
40
1
40
1
10
47.8981790488
20
59.9814739025
30
0
10
47.9511782488
20
60.0142298225
30
0
10
47.9828457688
20
59.8348334225
30
0
10
47.9828457688
20
59.5031073425
30
0
0
SPLINE
5
1CF
100
AcDbEntity
8
reimu
6
ByLayer
62
7
370
-1
100
AcDbSpline
210
0
220
0
230
1
70
8
71
3
72
8
73
4
74
0
42
1e-07
43
1e-07
40
0
40
0
40
0
40
0
40
1
40
1
40
1
40
1
10
47.9828457688
20
59.5031073425
30
0
10
47.9828457688
20
58.5531947825
30
0
10
48.1267749688
20
59.0992377425
30
0
10
48.2304957688
20
60.4471406225
30
0
0
SPLINE
5
1D0
100
AcDbEntity
8
reimu
6
ByLayer
62
7
370
-1
100
AcDbSpline
210
0
220
0
230
1
70
8
71
3
72
8
73
4
74
0
42
1e-07
43
1e-07
40
0
40
0
40
0
40
0
40
1
40
1
40
1
40
1
10
48.2304957688
20
60.4471406225
30
0
10
48.3394156888
20
61.8626039825
30
0
10
48.2447095288
20
62.9233547825
30
0
10
47.9510956888
20
63.5988573425
30
0
0
SPLINE
5
1D1
100
AcDbEntity
8
reimu
6
ByLayer
62
7
370
-1
100
AcDbSpline
210
0
220
0
230
1
70
8
71
3
72
8
73
4
74
0
42
1e-07
43
1e-07
40
0
40
0
40
0
40
0
40
1
40
1
40
1
40
1
10
47.9510956888
20
63.5988573425
30
0
10
47.8758439288
20
63.7719871025
30
0
10
47.8145419288
20
63.9815371025
30
0
10
47.8135123288
20
64.0645238225
30
0
0
SPLINE
5
1D2
100
AcDbEntity
8
reimu
6
ByLayer
62
7
370
-1
100
AcDbSpline
210
0
220
0
230
1
70
8
71
3
72
8
73
4
74
0
42
1e-07
43
1e-07
40
0
40
0
40
0
40
0
40
1
40
1
40
1
40
1
10
47.8135123288
20
64.0645238225
30
0
10
47.8124767288
20
64.1475115025
30
0
10
47.7352411288
20
64.3100572625
30
0
10
47.6441788888
20
64.4264738225
30
0
0
SPLINE
5
1D3
100
AcDbEntity
8
reimu
6
ByLayer
62
7
370
-1
100
AcDbSpline
210
0
220
0
230
1
70
8
71
3
72
8
73
4
74
0
42
1e-07
43
1e-07
40
0
40
0
40
0
40
0
40
1
40
1
40
1
40
1
10
47.6441788888
20
64.4264738225
30
0
10
47.5531161688
20
64.5428906225
30
0
10
47.4779985688
20
64.7048159825
30
0
10
47.4769622488
20
64.7863072625
30
0
0
SPLINE
5
1D4
100
AcDbEntity
8
reimu
6
ByLayer
62
7
370
-1
100
AcDbSpline
210
0
220
0
230
1
70
8
71
3
72
8
73
4
74
0
42
1e-07
43
1e-07
40
0
40
0
40
0
40
0
40
1
40
1
40
1
40
1
10
47.4769622488
20
64.7863072625
30
0
10
47.4759266488
20
64.8677992625
30
0
10
47.4416793688
20
64.9344739025
30
0
10
47.4007622488
20
64.9344739025
30
0
0
SPLINE
5
1D5
100
AcDbEntity
8
reimu
6
ByLayer
62
7
370
-1
100
AcDbSpline
210
0
220
0
230
1
70
8
71
3
72
8
73
4
74
0
42
1e-07
43
1e-07
40
0
40
0
40
0
40
0
40
1
40
1
40
1
40
1
10
47.4007622488
20
64.9344739025
30
0
10
47.3598453688
20
64.9344739025
30
0
10
47.2827559288
20
65.0392492625
30
0
10
47.2293122488
20
65.1673072625
30
0
0
SPLINE
5
1D6
100
AcDbEntity
8
reimu
6
ByLayer
62
7
370
-1
100
AcDbSpline
210
0
220
0
230
1
70
8
71
3
72
8
73
4
74
0
42
1e-07
43
1e-07
40
0
40
0
40
0
40
0
40
1
40
1
40
1
40
1
10
47.2293122488
20
65.1673072625
30
0
10
47.0894044888
20
65.5025486225
30
0
10
45.7668657688
20
66.9664739825
30
0
10
45.6037123288
20
66.9664739825
30
0
0
SPLINE
5
1D7
100
AcDbEntity
8
reimu
6
ByLayer
62
7
370
-1
100
AcDbSpline
210
0
220
0
230
1
70
8
71
3
72
8
73
4
74
0
42
1e-07
43
1e-07
40
0
40
0
40
0
40
0
40
1
40
1
40
1
40
1
10
45.6037123288
20
66.9664739825
30
0
10
45.5720882488
20
66.9664739825
30
0
10
45.4189236088
20
67.0712493425
30
0
10
45.2650456888
20
67.1993073425
30
0
0
SPLINE
5
1D8
100
AcDbEntity
8
reimu
6
ByLayer
62
7
370
-1
100
AcDbSpline
210
0
220
0
230
1
70
8
71
3
72
8
73
4
74
0
42
1e-07
43
1e-07
40
0
40
0
40
0
40
0
40
1
40
1
40
1
40
1
10
45.2650456888
20
67.1993073425
30
0
10
44.6533317688
20
67.7083780625
30
0
10
44.4268456888
20
67.9716683825
30
0
10
44.4268456888
20
68.1708573425
30
0
0
SPLINE
5
1D9
100
AcDbEntity
8
reimu
6
ByLayer
62
7
370
-1
100
AcDbSpline
210
0
220
0
230
1
70
8
71
3
72
8
73
4
74
0
42
1e-07
43
1e-07
40
0
40
0
40
0
40
0
40
1
40
1
40
1
40
1
10
44.4268456888
20
68.1708573425
30
0
10
44.4268456888
20
68.3565345425
30
0
10
43.7883777688
20
69.4268594225
30
0
10
43.5526622488
20
69.6355905425
30
0
0
SPLINE
5
1DA
100
AcDbEntity
8
reimu
6
ByLayer
62
7
370
-1
100
AcDbSpline
210
0
220
0
230
1
70
8
71
3
72
8
73
4
74
0
42
1e-07
43
1e-07
40
0
40
0
40
0
40
0
40
1
40
1
40
1
40
1
10
43.5526622488
20
69.6355905425
30
0
10
43.4102577688
20
69.7616925425
30
0
10
43.2554464888
20
70.0132411025
30
0
10
43.0996956088
20
70.3743071825
30
0
0
SPLINE
5
1DB
100
AcDbEntity
8
reimu
6
ByLayer
62
7
370
-1
100
AcDbSpline
210
0
220
0
230
1
70
8
71
3
72
8
73
4
74
0
42
1e-07
43
1e-07
40
0
40
0
40
0
40
0
40
1
40
1
40
1
40
1
10
43.0996956088
20
70.3743071825
30
0
10
43.0080585688
20
70.5867424625
30
0
10
42.9038596888
20
70.6913759825
30
0
10
42.7821957688
20
70.6875739025
30
0
0
LWPOLYLINE
5
1DC
100
AcDbEntity
8
reimu
6
ByLayer
62
7
370
-1
100
AcDbPolyline
90
3
70
0
43
0
10
47.5341122488
20
49.0171406225
10
47.2420123288
20
49.0171406225
10
47.2779957688
20
49.4193071825
0
SPLINE
5
1DD
100
AcDbEntity
8
reimu
6
ByLayer
62
7
370
-1
100
AcDbSpline
210
0
220
0
230
1
70
8
71
3
72
8
73
4
74
0
42
1e-07
43
1e-07
40
0
40
0
40
0
40
0
40
1
40
1
40
1
40
1
10
36.0702456088
20
60.5318073425
30
0
10
36.0967111288
20
60.5318073425
30
0
10
35.9692600888
20
60.2365327025
30
0
10
35.7866124088
20
59.8756406225
30
0
0
SPLINE
5
1DE
100
AcDbEntity
8
reimu
6
ByLayer
62
7
370
-1
100
AcDbSpline
210
0
220
0
230
1
70
8
71
3
72
8
73
4
74
0
42
1e-07
43
1e-07
40
0
40
0
40
0
40
0
40
1
40
1
40
1
40
1
10
35.7866124088
20
59.8756406225
30
0
10
35.6039654488
20
59.5147492625
30
0
10
35.4544310488
20
59.1773947025
30
0
10
35.4542956888
20
59.1263407025
30
0
0
SPLINE
5
1DF
100
AcDbEntity
8
reimu
6
ByLayer
62
7
370
-1
100
AcDbSpline
210
0
220
0
230
1
70
8
71
3
72
8
73
4
74
0
42
1e-07
43
1e-07
40
0
40
0
40
0
40
0
40
1
40
1
40
1
40
1
10
35.4542956888
20
59.1263407025
30
0
10
35.4540945688
20
59.0752867025
30
0
10
35.3902152088
20
58.9075151825
30
0
10
35.3124789688
20
58.7516906225
30
0
0
SPLINE
5
1E0
100
AcDbEntity
8
reimu
6
ByLayer
62
7
370
-1
100
AcDbSpline
210
0
220
0
230
1
70
8
71
3
72
8
73
4
74
0
42
1e-07
43
1e-07
40
0
40
0
40
0
40
0
40
1
40
1
40
1
40
1
10
35.3124789688
20
58.7516906225
30
0
10
35.2347434488
20
58.5958653425
30
0
10
35.1176678488
20
58.1423399825
30
0
10
35.0542456888
20
57.7462739825
30
0
0
SPLINE
5
1E1
100
AcDbEntity
8
reimu
6
ByLayer
62
7
370
-1
100
AcDbSpline
210
0
220
0
230
1
70
8
71
3
72
8
73
4
74
0
42
1e-07
43
1e-07
40
0
40
0
40
0
40
0
40
1
40
1
40
1
40
1
10
35.0542456888
20
57.7462739825
30
0
10
34.9908228088
20
57.3502087025
30
0
10
34.9310793688
20
57.0200709425
30
0
10
34.9208956888
20
57.0117907025
30
0
0
SPLINE
5
1E2
100
AcDbEntity
8
reimu
6
ByLayer
62
7
370
-1
100
AcDbSpline
210
0
220
0
230
1
70
8
71
3
72
8
73
4
74
0
42
1e-07
43
1e-07
40
0
40
0
40
0
40
0
40
1
40
1
40
1
40
1
10
34.9208956888
20
57.0117907025
30
0
10
34.9107127288
20
57.0035121425
30
0
10
34.8211027288
20
56.9723697425
30
0
10
34.7219289688
20
56.9419406225
30
0
0
SPLINE
5
1E3
100
AcDbEntity
8
reimu
6
ByLayer
62
7
370
-1
100
AcDbSpline
210
0
220
0
230
1
70
8
71
3
72
8
73
4
74
0
42
1e-07
43
1e-07
40
0
40
0
40
0
40
0
40
1
40
1
40
1
40
1
10
34.7219289688
20
56.9419406225
30
0
10
34.5702211288
20
56.8953943025
30
0
10
34.5198451288
20
56.9413519025
30
0
10
34.4044288888
20
57.2298071825
30
0
0
SPLINE
5
1E4
100
AcDbEntity
8
reimu
6
ByLayer
62
7
370
-1
100
AcDbSpline
210
0
220
0
230
1
70
8
71
3
72
8
73
4
74
0
42
1e-07
43
1e-07
40
0
40
0
40
0
40
0
40
1
40
1
40
1
40
1
10
34.4044288888
20
57.2298071825
30
0
10
34.2368750488
20
57.6485651825
30
0
10
34.2287652088
20
58.0670488625
30
0
10
34.3832623288
20
58.2902572625
30
0
0
SPLINE
5
1E5
100
AcDbEntity
8
reimu
6
ByLayer
62
7
370
-1
100
AcDbSpline
210
0
220
0
230
1
70
8
71
3
72
8
73
4
74
0
42
1e-07
43
1e-07
40
0
40
0
40
0
40
0
40
1
40
1
40
1
40
1
10
34.3832623288
20
58.2902572625
30
0
10
34.4468402488
20
58.3821105425
30
0
10
34.5292195288
20
58.5515908625
30
0
10
34.5652956088
20
58.6670239025
30
0
0
SPLINE
5
1E6
100
AcDbEntity
8
reimu
6
ByLayer
62
7
370
-1
100
AcDbSpline
210
0
220
0
230
1
70
8
71
3
72
8
73
4
74
0
42
1e-07
43
1e-07
40
0
40
0
40
0
40
0
40
1
40
1
40
1
40
1
10
34.5652956088
20
58.6670239025
30
0
10
34.6592959288
20
58.9677931025
30
0
10
35.9214091288
20
60.5318073425
30
0
10
36.0702456088
20
60.5318073425
30
0
0
LWPOLYLINE
5
1E7
100
AcDbEntity
8
reimu
6
ByLayer
62
7
370
-1
100
AcDbPolyline
90
2
70
0
43
0
10
42.7821957688
20
70.6875739025
10
42.7821957688
20
70.6875739025
0
SPLINE
5
1E8
100
AcDbEntity
8
reimu
6
ByLayer
62
7
370
-1
100
AcDbSpline
210
0
220
0
230
1
70
8
71
3
72
8
73
4
74
0
42
1e-07
43
1e-07
40
0
40
0
40
0
40
0
40
1
40
1
40
1
40
1
10
34.9081956088
20
59.9878238225
30
0
10
34.9181748088
20
59.9887831025
30
0
10
34.9246792888
20
59.9861570225
30
0
10
34.9272456088
20
59.9835907025
30
0
0
SPLINE
5
1E9
100
AcDbEntity
8
reimu
6
ByLayer
62
7
370
-1
100
AcDbSpline
210
0
220
0
230
1
70
8
71
3
72
8
73
4
74
0
42
1e-07
43
1e-07
40
0
40
0
40
0
40
0
40
1
40
1
40
1
40
1
10
34.9272456088
20
59.9835907025
30
0
10
34.9571784088
20
59.9536579025
30
0
10
34.9449470488
20
59.9038000625
30
0
10
34.8997288888
20
59.8714072625
30
0
0
SPLINE
5
1EA
100
AcDbEntity
8
reimu
6
ByLayer
62
7
370
-1
100
AcDbSpline
210
0
220
0
230
1
70
8
71
3
72
8
73
4
74
0
42
1e-07
43
1e-07
40
0
40
0
40
0
40
0
40
1
40
1
40
1
40
1
10
34.8997288888
20
59.8714072625
30
0
10
34.8545109688
20
59.8390137425
30
0
10
34.7713202488
20
59.7359407025
30
0
10
34.7134622488
20
59.6428072625
30
0
0
SPLINE
5
1EB
100
AcDbEntity
8
reimu
6
ByLayer
62
7
370
-1
100
AcDbSpline
210
0
220
0
230
1
70
8
71
3
72
8
73
4
74
0
42
1e-07
43
1e-07
40
0
40
0
40
0
40
0
40
1
40
1
40
1
40
1
10
34.7134622488
20
59.6428072625
30
0
10
34.6556044888
20
59.5496738225
30
0
10
34.4786666488
20
59.2258238225
30
0
10
34.3197624088
20
58.9231406225
30
0
0
SPLINE
5
1EC
100
AcDbEntity
8
reimu
6
ByLayer
62
7
370
-1
100
AcDbSpline
210
0
220
0
230
1
70
8
71
3
72
8
73
4
74
0
42
1e-07
43
1e-07
40
0
40
0
40
0
40
0
40
1
40
1
40
1
40
1
10
34.3197624088
20
58.9231406225
30
0
10
34.0350614488
20
58.3808344625
30
0
10
34.0294951288
20
58.3765123025
30
0
10
33.9747456088
20
58.6268073425
30
0
0
SPLINE
5
1ED
100
AcDbEntity
8
reimu
6
ByLayer
62
7
370
-1
100
AcDbSpline
210
0
220
0
230
1
70
8
71
3
72
8
73
4
74
0
42
1e-07
43
1e-07
40
0
40
0
40
0
40
0
40
1
40
1
40
1
40
1
10
33.9747456088
20
58.6268073425
30
0
10
33.9441878488
20
58.7665072625
30
0
10
33.8617130488
20
59.0094499025
30
0
10
33.7927123288
20
59.1665572625
30
0
0
SPLINE
5
1EE
100
AcDbEntity
8
reimu
6
ByLayer
62
7
370
-1
100
AcDbSpline
210
0
220
0
230
1
70
8
71
3
72
8
73
4
74
0
42
1e-07
43
1e-07
40
0
40
0
40
0
40
0
40
1
40
1
40
1
40
1
10
33.7927123288
20
59.1665572625
30
0
10
33.7237116088
20
59.3236641425
30
0
10
33.6795921688
20
59.4623481425
30
0
10
33.6932289688
20
59.4734738225
30
0
0
SPLINE
5
1EF
100
AcDbEntity
8
reimu
6
ByLayer
62
7
370
-1
100
AcDbSpline
210
0
220
0
230
1
70
8
71
3
72
8
73
4
74
0
42
1e-07
43
1e-07
40
0
40
0
40
0
40
0
40
1
40
1
40
1
40
1
10
33.6932289688
20
59.4734738225
30
0
10
33.8288988088
20
59.5841529425
30
0
10
34.7585076088
20
59.9734339025
30
0
10
34.9081956088
20
59.9878238225
30
0
0
LWPOLYLINE
5
1F0
100
AcDbEntity
8
reimu
6
ByLayer
62
7
370
-1
100
AcDbPolyline
90
2
70
0
43
0
10
36.0702456088
20
60.5318073425
10
36.0702456088
20
60.5318073425
0
SPLINE
5
1F1
100
AcDbEntity
8
reimu
6
ByLayer
62
7
370
-1
100
AcDbSpline
210
0
220
0
230
1
70
8
71
3
72
8
73
4
74
0
42
1e-07
43
1e-07
40
0
40
0
40
0
40
0
40
1
40
1
40
1
40
1
10
36.0003957688
20
57.2594407025
30
0
10
36.0208058488
20
57.2557552625
30
0
10
36.0354103288
20
57.2148191825
30
0
10
36.0554289688
20
57.1430239025
30
0
0
SPLINE
5
1F2
100
AcDbEntity
8
reimu
6
ByLayer
62
7
370
-1
100
AcDbSpline
210
0
220
0
230
1
70
8
71
3
72
8
73
4
74
0
42
1e-07
43
1e-07
40
0
40
0
40
0
40
0
40
1
40
1
40
1
40
1
10
36.0554289688
20
57.1430239025
30
0
10
36.0873861688
20
57.0284090225
30
0
10
36.1164060088
20
56.7994399025
30
0
10
36.1210456888
20
56.6350238225
30
0
0
SPLINE
5
1F3
100
AcDbEntity
8
reimu
6
ByLayer
62
7
370
-1
100
AcDbSpline
210
0
220
0
230
1
70
8
71
3
72
8
73
4
74
0
42
1e-07
43
1e-07
40
0
40
0
40
0
40
0
40
1
40
1
40
1
40
1
10
36.1210456888
20
56.6350238225
30
0
10
36.1283236888
20
56.3772443825
30
0
10
36.0945410488
20
56.3218811825
30
0
10
35.8755122488
20
56.2392071825
30
0
0
SPLINE
5
1F4
100
AcDbEntity
8
reimu
6
ByLayer
62
7
370
-1
100
AcDbSpline
210
0
220
0
230
1
70
8
71
3
72
8
73
4
74
0
42
1e-07
43
1e-07
40
0
40
0
40
0
40
0
40
1
40
1
40
1
40
1
10
35.8755122488
20
56.2392071825
30
0
10
35.6465913688
20
56.1527997425
30
0
10
35.6215123288
20
56.1602579825
30
0
10
35.6215123288
20
56.3111738225
30
0
0
SPLINE
5
1F5
100
AcDbEntity
8
reimu
6
ByLayer
62
7
370
-1
100
AcDbSpline
210
0
220
0
230
1
70
8
71
3
72
8
73
4
74
0
42
1e-07
43
1e-07
40
0
40
0
40
0
40
0
40
1
40
1
40
1
40
1
10
35.6215123288
20
56.3111738225
30
0
10
35.6215123288
20
56.4032716625
30
0
10
35.7067946488
20
56.6747596625
30
0
10
35.8098957688
20
56.9144239025
30
0
0
SPLINE
5
1F6
100
AcDbEntity
8
reimu
6
ByLayer
62
7
370
-1
100
AcDbSpline
210
0
220
0
230
1
70
8
71
3
72
8
73
4
74
0
42
1e-07
43
1e-07
40
0
40
0
40
0
40
0
40
1
40
1
40
1
40
1
10
35.8098957688
20
56.9144239025
30
0
10
35.9175333688
20
57.1646349425
30
0
10
35.9663793688
20
57.2655827825
30
0
10
36.0003957688
20
57.2594407025
30
0
0
LWPOLYLINE
5
1F7
100
AcDbEntity
8
reimu
6
ByLayer
62
7
370
-1
100
AcDbPolyline
90
2
70
0
43
0
10
34.9081956088
20
59.9878238225
10
34.9081956088
20
59.9878238225
0
SPLINE
5
1F8
100
AcDbEntity
8
reimu
6
ByLayer
62
7
370
-1
100
AcDbSpline
210
0
220
0
230
1
70
8
71
3
72
8
73
4
74
0
42
1e-07
43
1e-07
40
0
40
0
40
0
40
0
40
1
40
1
40
1
40
1
10
36.5761288888
20
56.8551573425
30
0
10
36.5839718488
20
56.8628971025
30
0
10
36.6139898488
20
56.8055947025
30
0
10
36.6756122488
20
56.6794739825
30
0
0
SPLINE
5
1F9
100
AcDbEntity
8
reimu
6
ByLayer
62
7
370
-1
100
AcDbSpline
210
0
220
0
230
1
70
8
71
3
72
8
73
4
74
0
42
1e-07
43
1e-07
40
0
40
0
40
0
40
0
40
1
40
1
40
1
40
1
10
36.6756122488
20
56.6794739825
30
0
10
36.7438692088
20
56.5397738225
30
0
10
36.8026293688
20
56.3587991825
30
0
10
36.8047288888
20
56.2773071825
30
0
0
SPLINE
5
1FA
100
AcDbEntity
8
reimu
6
ByLayer
62
7
370
-1
100
AcDbSpline
210
0
220
0
230
1
70
8
71
3
72
8
73
4
74
0
42
1e-07
43
1e-07
40
0
40
0
40
0
40
0
40
1
40
1
40
1
40
1
10
36.8047288888
20
56.2773071825
30
0
10
36.8068286488
20
56.1958159025
30
0
10
36.7687456888
20
56.1291405425
30
0
10
36.7221789688
20
56.1291405425
30
0
0
SPLINE
5
1FB
100
AcDbEntity
8
reimu
6
ByLayer
62
7
370
-1
100
AcDbSpline
210
0
220
0
230
1
70
8
71
3
72
8
73
4
74
0
42
1e-07
43
1e-07
40
0
40
0
40
0
40
0
40
1
40
1
40
1
40
1
10
36.7221789688
20
56.1291405425
30
0
10
36.6756122488
20
56.1291405425
30
0
10
36.6381897688
20
56.2148659025
30
0
10
36.6375122488
20
56.3196405425
30
0
0
SPLINE
5
1FC
100
AcDbEntity
8
reimu
6
ByLayer
62
7
370
-1
100
AcDbSpline
210
0
220
0
230
1
70
8
71
3
72
8
73
4
74
0
42
1e-07
43
1e-07
40
0
40
0
40
0
40
0
40
1
40
1
40
1
40
1
10
36.6375122488
20
56.3196405425
30
0
10
36.6368762488
20
56.4244159025
30
0
10
36.6162175288
20
56.6053905425
30
0
10
36.5930623288
20
56.7218073425
30
0
0
SPLINE
5
1FD
100
AcDbEntity
8
reimu
6
ByLayer
62
7
370
-1
100
AcDbSpline
210
0
220
0
230
1
70
8
71
3
72
8
73
4
74
0
42
1e-07
43
1e-07
40
0
40
0
40
0
40
0
40
1
40
1
40
1
40
1
10
36.5930623288
20
56.7218073425
30
0
10
36.5768030488
20
56.8035525425
30
0
10
36.5700290488
20
56.8491371825
30
0
10
36.5761288888
20
56.8551573425
30
0
0
LWPOLYLINE
5
1FE
100
AcDbEntity
8
reimu
6
ByLayer
62
7
370
-1
100
AcDbPolyline
90
2
70
0
43
0
10
36.0003957688
20
57.2594407025
10
36.0003957688
20
57.2594407025
0
SPLINE
5
1FF
100
AcDbEntity
8
reimu
6
ByLayer
62
7
370
-1
100
AcDbSpline
210
0
220
0
230
1
70
8
71
3
72
8
73
4
74
0
42
1e-07
43
1e-07
40
0
40
0
40
0
40
0
40
1
40
1
40
1
40
1
10
33.3291624088
20
54.3405573425
30
0
10
33.3585756088
20
54.3393463025
30
0
10
33.3849453688
20
54.3313408625
30
0
10
33.3990122488
20
54.3172739825
30
0
0
SPLINE
5
200
100
AcDbEntity
8
reimu
6
ByLayer
62
7
370
-1
100
AcDbSpline
210
0
220
0
230
1
70
8
71
3
72
8
73
4
74
0
42
1e-07
43
1e-07
40
0
40
0
40
0
40
0
40
1
40
1
40
1
40
1
10
33.3990122488
20
54.3172739825
30
0
10
33.4271460088
20
54.2891402225
30
0
10
33.3760812088
20
54.2691527825
30
0
10
33.2868290488
20
54.2728238225
30
0
0
SPLINE
5
201
100
AcDbEntity
8
reimu
6
ByLayer
62
7
370
-1
100
AcDbSpline
210
0
220
0
230
1
70
8
71
3
72
8
73
4
74
0
42
1e-07
43
1e-07
40
0
40
0
40
0
40
0
40
1
40
1
40
1
40
1
10
33.2868290488
20
54.2728238225
30
0
10
33.1881964888
20
54.2768858225
30
0
10
33.1684879288
20
54.2965963025
30
0
10
33.2360289688
20
54.3236239025
30
0
0
SPLINE
5
202
100
AcDbEntity
8
reimu
6
ByLayer
62
7
370
-1
100
AcDbSpline
210
0
220
0
230
1
70
8
71
3
72
8
73
4
74
0
42
1e-07
43
1e-07
40
0
40
0
40
0
40
0
40
1
40
1
40
1
40
1
10
33.2360289688
20
54.3236239025
30
0
10
33.2665881688
20
54.3358559825
30
0
10
33.2997492088
20
54.3417683825
30
0
10
33.3291624088
20
54.3405573425
30
0
0
LWPOLYLINE
5
203
100
AcDbEntity
8
reimu
6
ByLayer
62
7
370
-1
100
AcDbPolyline
90
2
70
0
43
0
10
36.5761288888
20
56.8551573425
10
36.5761288888
20
56.8551573425
0
SPLINE
5
204
100
AcDbEntity
8
reimu
6
ByLayer
62
7
370
-1
100
AcDbSpline
210
0
220
0
230
1
70
8
71
3
72
8
73
4
74
0
42
1e-07
43
1e-07
40
0
40
0
40
0
40
0
40
1
40
1
40
1
40
1
10
37.5582624088
20
51.5910071825
30
0
10
37.5878361688
20
51.5940626225
30
0
10
37.6173196888
20
51.5903440625
30
0
10
37.6471622488
20
51.5825407025
30
0
0
SPLINE
5
205
100
AcDbEntity
8
reimu
6
ByLayer
62
7
370
-1
100
AcDbSpline
210
0
220
0
230
1
70
8
71
3
72
8
73
4
74
0
42
1e-07
43
1e-07
40
0
40
0
40
0
40
0
40
1
40
1
40
1
40
1
10
37.6471622488
20
51.5825407025
30
0
10
37.7837980888
20
51.5468085425
30
0
10
38.1615122488
20
50.9036440625
30
0
10
38.1615122488
20
50.7062407025
30
0
0
SPLINE
5
206
100
AcDbEntity
8
reimu
6
ByLayer
62
7
370
-1
100
AcDbSpline
210
0
220
0
230
1
70
8
71
3
72
8
73
4
74
0
42
1e-07
43
1e-07
40
0
40
0
40
0
40
0
40
1
40
1
40
1
40
1
10
38.1615122488
20
50.7062407025
30
0
10
38.1615122488
20
50.6592811025
30
0
10
38.2282113688
20
50.5173079025
30
0
10
38.3096788888
20
50.3929739825
30
0
0
SPLINE
5
207
100
AcDbEntity
8
reimu
6
ByLayer
62
7
370
-1
100
AcDbSpline
210
0
220
0
230
1
70
8
71
3
72
8
73
4
74
0
42
1e-07
43
1e-07
40
0
40
0
40
0
40
0
40
1
40
1
40
1
40
1
10
38.3096788888
20
50.3929739825
30
0
10
38.5182624088
20
50.0746341425
30
0
10
38.6667000088
20
49.6142728625
30
0
10
38.6081289688
20
49.4616405425
30
0
0
SPLINE
5
208
100
AcDbEntity
8
reimu
6
ByLayer
62
7
370
-1
100
AcDbSpline
210
0
220
0
230
1
70
8
71
3
72
8
73
4
74
0
42
1e-07
43
1e-07
40
0
40
0
40
0
40
0
40
1
40
1
40
1
40
1
10
38.6081289688
20
49.4616405425
30
0
10
38.5808649688
20
49.3905904625
30
0
10
38.6175472888
20
49.2886319825
30
0
10
38.6906788888
20
49.2351573425
30
0
0
SPLINE
5
209
100
AcDbEntity
8
reimu
6
ByLayer
62
7
370
-1
100
AcDbSpline
210
0
220
0
230
1
70
8
71
3
72
8
73
4
74
0
42
1e-07
43
1e-07
40
0
40
0
40
0
40
0
40
1
40
1
40
1
40
1
10
38.6906788888
20
49.2351573425
30
0
10
38.7897938488
20
49.1626826225
30
0
10
38.8304757688
20
48.9539752625
30
0
10
38.8473122488
20
48.4202407025
30
0
0
SPLINE
5
20A
100
AcDbEntity
8
reimu
6
ByLayer
62
7
370
-1
100
AcDbSpline
210
0
220
0
230
1
70
8
71
3
72
8
73
4
74
0
42
1e-07
43
1e-07
40
0
40
0
40
0
40
0
40
1
40
1
40
1
40
1
10
38.8473122488
20
48.4202407025
30
0
10
38.8718404888
20
47.6427175025
30
0
10
38.8168932088
20
47.3656691825
30
0
10
38.6250624088
20
47.2920573425
30
0
0
SPLINE
5
20B
100
AcDbEntity
8
reimu
6
ByLayer
62
7
370
-1
100
AcDbSpline
210
0
220
0
230
1
70
8
71
3
72
8
73
4
74
0
42
1e-07
43
1e-07
40
0
40
0
40
0
40
0
40
1
40
1
40
1
40
1
10
38.6250624088
20
47.2920573425
30
0
10
38.5569856888
20
47.2659338225
30
0
10
38.5001788888
20
47.2009382225
30
0
10
38.5001788888
20
47.1481238225
30
0
0
SPLINE
5
20C
100
AcDbEntity
8
reimu
6
ByLayer
62
7
370
-1
100
AcDbSpline
210
0
220
0
230
1
70
8
71
3
72
8
73
4
74
0
42
1e-07
43
1e-07
40
0
40
0
40
0
40
0
40
1
40
1
40
1
40
1
10
38.5001788888
20
47.1481238225
30
0
10
38.5001788888
20
47.0319247025
30
0
10
37.4355165688
20
45.9691406225
30
0
10
37.3190788888
20
45.9691406225
30
0
0
SPLINE
5
20D
100
AcDbEntity
8
reimu
6
ByLayer
62
7
370
-1
100
AcDbSpline
210
0
220
0
230
1
70
8
71
3
72
8
73
4
74
0
42
1e-07
43
1e-07
40
0
40
0
40
0
40
0
40
1
40
1
40
1
40
1
10
37.3190788888
20
45.9691406225
30
0
10
37.2737959288
20
45.9691406225
30
0
10
37.1953552888
20
45.8929406225
30
0
10
37.1455123288
20
45.7998071825
30
0
0
SPLINE
5
20E
100
AcDbEntity
8
reimu
6
ByLayer
62
7
370
-1
100
AcDbSpline
210
0
220
0
230
1
70
8
71
3
72
8
73
4
74
0
42
1e-07
43
1e-07
40
0
40
0
40
0
40
0
40
1
40
1
40
1
40
1
10
37.1455123288
20
45.7998071825
30
0
10
37.0956686488
20
45.7066739825
30
0
10
37.0208246488
20
45.6304739825
30
0
10
36.9782956888
20
45.6304739825
30
0
0
SPLINE
5
20F
100
AcDbEntity
8
reimu
6
ByLayer
62
7
370
-1
100
AcDbSpline
210
0
220
0
230
1
70
8
71
3
72
8
73
4
74
0
42
1e-07
43
1e-07
40
0
40
0
40
0
40
0
40
1
40
1
40
1
40
1
10
36.9782956888
20
45.6304739825
30
0
10
36.9357672088
20
45.6304739825
30
0
10
36.7954867288
20
45.5313746225
30
0
10
36.6650289688
20
45.4103407025
30
0
0
SPLINE
5
210
100
AcDbEntity
8
reimu
6
ByLayer
62
7
370
-1
100
AcDbSpline
210
0
220
0
230
1
70
8
71
3
72
8
73
4
74
0
42
1e-07
43
1e-07
40
0
40
0
40
0
40
0
40
1
40
1
40
1
40
1
10
36.6650289688
20
45.4103407025
30
0
10
36.4041012088
20
45.1682596625
30
0
10
36.3921578488
20
44.9429812625
30
0
10
36.6311623288
20
44.6864407025
30
0
0
SPLINE
5
211
100
AcDbEntity
8
reimu
6
ByLayer
62
7
370
-1
100
AcDbSpline
210
0
220
0
230
1
70
8
71
3
72
8
73
4
74
0
42
1e-07
43
1e-07
40
0
40
0
40
0
40
0
40
1
40
1
40
1
40
1
10
36.6311623288
20
44.6864407025
30
0
10
36.8966553688
20
44.4014675825
30
0
10
37.0348956088
20
44.0847112625
30
0
10
36.9105624088
20
44.0429738225
30
0
0
SPLINE
5
212
100
AcDbEntity
8
reimu
6
ByLayer
62
7
370
-1
100
AcDbSpline
210
0
220
0
230
1
70
8
71
3
72
8
73
4
74
0
42
1e-07
43
1e-07
40
0
40
0
40
0
40
0
40
1
40
1
40
1
40
1
10
36.9105624088
20
44.0429738225
30
0
10
36.8506339288
20
44.0228570225
30
0
10
36.6922557688
20
43.9136363825
30
0
10
36.5591956888
20
43.8016739825
30
0
0
SPLINE
5
213
100
AcDbEntity
8
reimu
6
ByLayer
62
7
370
-1
100
AcDbSpline
210
0
220
0
230
1
70
8
71
3
72
8
73
4
74
0
42
1e-07
43
1e-07
40
0
40
0
40
0
40
0
40
1
40
1
40
1
40
1
10
36.5591956888
20
43.8016739825
30
0
10
36.4261356088
20
43.6897113425
30
0
10
36.2762491288
20
43.5984739025
30
0
10
36.2247624088
20
43.5984739025
30
0
0
SPLINE
5
214
100
AcDbEntity
8
reimu
6
ByLayer
62
7
370
-1
100
AcDbSpline
210
0
220
0
230
1
70
8
71
3
72
8
73
4
74
0
42
1e-07
43
1e-07
40
0
40
0
40
0
40
0
40
1
40
1
40
1
40
1
10
36.2247624088
20
43.5984739025
30
0
10
36.1732761688
20
43.5984739025
30
0
10
36.1295834488
20
43.5698992625
30
0
10
36.1273956088
20
43.5349739825
30
0
0
SPLINE
5
215
100
AcDbEntity
8
reimu
6
ByLayer
62
7
370
-1
100
AcDbSpline
210
0
220
0
230
1
70
8
71
3
72
8
73
4
74
0
42
1e-07
43
1e-07
40
0
40
0
40
0
40
0
40
1
40
1
40
1
40
1
10
36.1273956088
20
43.5349739825
30
0
10
36.1252147288
20
43.5000491825
30
0
10
35.9298900088
20
43.3381238225
30
0
10
35.6934789688
20
43.1751405425
30
0
0
SPLINE
5
216
100
AcDbEntity
8
reimu
6
ByLayer
62
7
370
-1
100
AcDbSpline
210
0
220
0
230
1
70
8
71
3
72
8
73
4
74
0
42
1e-07
43
1e-07
40
0
40
0
40
0
40
0
40
1
40
1
40
1
40
1
10
35.6934789688
20
43.1751405425
30
0
10
35.4570686488
20
43.0121572625
30
0
10
35.2027699288
20
42.8121326225
30
0
10
35.1283288888
20
42.7306406225
30
0
0
SPLINE
5
217
100
AcDbEntity
8
reimu
6
ByLayer
62
7
370
-1
100
AcDbSpline
210
0
220
0
230
1
70
8
71
3
72
8
73
4
74
0
42
1e-07
43
1e-07
40
0
40
0
40
0
40
0
40
1
40
1
40
1
40
1
10
35.1283288888
20
42.7306406225
30
0
10
35.0538888088
20
42.6491493425
30
0
10
34.9468836088
20
42.5824739825
30
0
10
34.8912624088
20
42.5824739825
30
0
0
SPLINE
5
218
100
AcDbEntity
8
reimu
6
ByLayer
62
7
370
-1
100
AcDbSpline
210
0
220
0
230
1
70
8
71
3
72
8
73
4
74
0
42
1e-07
43
1e-07
40
0
40
0
40
0
40
0
40
1
40
1
40
1
40
1
10
34.8912624088
20
42.5824739825
30
0
10
34.8356424088
20
42.5824739825
30
0
10
34.7776687288
20
42.5524058225
30
0
10
34.7621457688
20
42.5147407025
30
0
0
SPLINE
5
219
100
AcDbEntity
8
reimu
6
ByLayer
62
7
370
-1
100
AcDbSpline
210
0
220
0
230
1
70
8
71
3
72
8
73
4
74
0
42
1e-07
43
1e-07
40
0
40
0
40
0
40
0
40
1
40
1
40
1
40
1
10
34.7621457688
20
42.5147407025
30
0
10
34.7466240088
20
42.4770741425
30
0
10
34.5134368888
20
42.2815862225
30
0
10
34.2456789688
20
42.0808238225
30
0
0
SPLINE
5
21A
100
AcDbEntity
8
reimu
6
ByLayer
62
7
370
-1
100
AcDbSpline
210
0
220
0
230
1
70
8
71
3
72
8
73
4
74
0
42
1e-07
43
1e-07
40
0
40
0
40
0
40
0
40
1
40
1
40
1
40
1
10
34.2456789688
20
42.0808238225
30
0
10
33.9779203288
20
41.8800623825
30
0
10
33.7588456888
20
41.6815291025
30
0
10
33.7588456888
20
41.6405572625
30
0
0
SPLINE
5
21B
100
AcDbEntity
8
reimu
6
ByLayer
62
7
370
-1
100
AcDbSpline
210
0
220
0
230
1
70
8
71
3
72
8
73
4
74
0
42
1e-07
43
1e-07
40
0
40
0
40
0
40
0
40
1
40
1
40
1
40
1
10
33.7588456888
20
41.6405572625
30
0
10
33.7588456888
20
41.5995854225
30
0
10
33.7010407288
20
41.5664738225
30
0
10
33.6297290488
20
41.5664738225
30
0
0
SPLINE
5
21C
100
AcDbEntity
8
reimu
6
ByLayer
62
7
370
-1
100
AcDbSpline
210
0
220
0
230
1
70
8
71
3
72
8
73
4
74
0
42
1e-07
43
1e-07
40
0
40
0
40
0
40
0
40
1
40
1
40
1
40
1
10
33.6297290488
20
41.5664738225
30
0
10
33.5584173688
20
41.5664738225
30
0
10
33.4787323288
20
41.5093238225
30
0
10
33.4519288888
20
41.4394739825
30
0
0
SPLINE
5
21D
100
AcDbEntity
8
reimu
6
ByLayer
62
7
370
-1
100
AcDbSpline
210
0
220
0
230
1
70
8
71
3
72
8
73
4
74
0
42
1e-07
43
1e-07
40
0
40
0
40
0
40
0
40
1
40
1
40
1
40
1
10
33.4519288888
20
41.4394739825
30
0
10
33.4251242488
20
41.3696239025
30
0
10
33.3654504088
20
41.3124739025
30
0
10
33.3206956888
20
41.3124739025
30
0
0
SPLINE
5
21E
100
AcDbEntity
8
reimu
6
ByLayer
62
7
370
-1
100
AcDbSpline
210
0
220
0
230
1
70
8
71
3
72
8
73
4
74
0
42
1e-07
43
1e-07
40
0
40
0
40
0
40
0
40
1
40
1
40
1
40
1
10
33.3206956888
20
41.3124739025
30
0
10
33.2759402488
20
41.3124739025
30
0
10
33.3196404088
20
41.4227606225
30
0
10
33.4159456888
20
41.5580073425
30
0
0
SPLINE
5
21F
100
AcDbEntity
8
reimu
6
ByLayer
62
7
370
-1
100
AcDbSpline
210
0
220
0
230
1
70
8
71
3
72
8
73
4
74
0
42
1e-07
43
1e-07
40
0
40
0
40
0
40
0
40
1
40
1
40
1
40
1
10
33.4159456888
20
41.5580073425
30
0
10
33.5122495288
20
41.6932538225
30
0
10
33.5895122488
20
41.8270067825
30
0
10
33.5895122488
20
41.8543406225
30
0
0
SPLINE
5
220
100
AcDbEntity
8
reimu
6
ByLayer
62
7
370
-1
100
AcDbSpline
210
0
220
0
230
1
70
8
71
3
72
8
73
4
74
0
42
1e-07
43
1e-07
40
0
40
0
40
0
40
0
40
1
40
1
40
1
40
1
10
33.5895122488
20
41.8543406225
30
0
10
33.5895122488
20
41.8816737425
30
0
10
33.7284470488
20
42.0830056625
30
0
10
33.8964290488
20
42.3030739025
30
0
0
SPLINE
5
221
100
AcDbEntity
8
reimu
6
ByLayer
62
7
370
-1
100
AcDbSpline
210
0
220
0
230
1
70
8
71
3
72
8
73
4
74
0
42
1e-07
43
1e-07
40
0
40
0
40
0
40
0
40
1
40
1
40
1
40
1
10
33.8964290488
20
42.3030739025
30
0
10
34.0644103288
20
42.5231421425
30
0
10
34.2348972088
20
42.7915559825
30
0
10
34.2753122488
20
42.8978572625
30
0
0
SPLINE
5
222
100
AcDbEntity
8
reimu
6
ByLayer
62
7
370
-1
100
AcDbSpline
210
0
220
0
230
1
70
8
71
3
72
8
73
4
74
0
42
1e-07
43
1e-07
40
0
40
0
40
0
40
0
40
1
40
1
40
1
40
1
10
34.2753122488
20
42.8978572625
30
0
10
34.3157287288
20
43.0041599825
30
0
10
34.3845290488
20
43.0904738225
30
0
10
34.4277122488
20
43.0904738225
30
0
0
SPLINE
5
223
100
AcDbEntity
8
reimu
6
ByLayer
62
7
370
-1
100
AcDbSpline
210
0
220
0
230
1
70
8
71
3
72
8
73
4
74
0
42
1e-07
43
1e-07
40
0
40
0
40
0
40
0
40
1
40
1
40
1
40
1
10
34.4277122488
20
43.0904738225
30
0
10
34.5223459288
20
43.0904738225
30
0
10
34.8538192888
20
44.1513811025
30
0
10
34.9441790488
20
44.7414739025
30
0
0
SPLINE
5
224
100
AcDbEntity
8
reimu
6
ByLayer
62
7
370
-1
100
AcDbSpline
210
0
220
0
230
1
70
8
71
3
72
8
73
4
74
0
42
1e-07
43
1e-07
40
0
40
0
40
0
40
0
40
1
40
1
40
1
40
1
10
34.9441790488
20
44.7414739025
30
0
10
34.9798317688
20
44.9743072625
30
0
10
35.0745859288
20
45.4315072625
30
0
10
35.1537290488
20
45.7574738225
30
0
0
SPLINE
5
225
100
AcDbEntity
8
reimu
6
ByLayer
62
7
370
-1
100
AcDbSpline
210
0
220
0
230
1
70
8
71
3
72
8
73
4
74
0
42
1e-07
43
1e-07
40
0
40
0
40
0
40
0
40
1
40
1
40
1
40
1
10
35.1537290488
20
45.7574738225
30
0
10
35.2328726488
20
46.0834406225
30
0
10
35.3572629688
20
46.5977906225
30
0
10
35.4310123288
20
46.9004738225
30
0
0
SPLINE
5
226
100
AcDbEntity
8
reimu
6
ByLayer
62
7
370
-1
100
AcDbSpline
210
0
220
0
230
1
70
8
71
3
72
8
73
4
74
0
42
1e-07
43
1e-07
40
0
40
0
40
0
40
0
40
1
40
1
40
1
40
1
10
35.4310123288
20
46.9004738225
30
0
10
35.5047624088
20
47.2031572625
30
0
10
35.5813761688
20
47.5841572625
30
0
10
35.6024623288
20
47.7471405425
30
0
0
SPLINE
5
227
100
AcDbEntity
8
reimu
6
ByLayer
62
7
370
-1
100
AcDbSpline
210
0
220
0
230
1
70
8
71
3
72
8
73
4
74
0
42
1e-07
43
1e-07
40
0
40
0
40
0
40
0
40
1
40
1
40
1
40
1
10
35.6024623288
20
47.7471405425
30
0
10
35.6235484888
20
47.9101238225
30
0
10
35.6889043288
20
48.1006238225
30
0
10
35.7463956088
20
48.1704739025
30
0
0
SPLINE
5
228
100
AcDbEntity
8
reimu
6
ByLayer
62
7
370
-1
100
AcDbSpline
210
0
220
0
230
1
70
8
71
3
72
8
73
4
74
0
42
1e-07
43
1e-07
40
0
40
0
40
0
40
0
40
1
40
1
40
1
40
1
10
35.7463956088
20
48.1704739025
30
0
10
35.8038864088
20
48.2403239825
30
0
10
35.9746975288
20
48.5451239825
30
0
10
36.1252790488
20
48.8478071825
30
0
0
SPLINE
5
229
100
AcDbEntity
8
reimu
6
ByLayer
62
7
370
-1
100
AcDbSpline
210
0
220
0
230
1
70
8
71
3
72
8
73
4
74
0
42
1e-07
43
1e-07
40
0
40
0
40
0
40
0
40
1
40
1
40
1
40
1
10
36.1252790488
20
48.8478071825
30
0
10
36.2758617688
20
49.1504906225
30
0
10
36.4493714488
20
49.4933906225
30
0
10
36.5126289688
20
49.6098071825
30
0
0
SPLINE
5
22A
100
AcDbEntity
8
reimu
6
ByLayer
62
7
370
-1
100
AcDbSpline
210
0
220
0
230
1
70
8
71
3
72
8
73
4
74
0
42
1e-07
43
1e-07
40
0
40
0
40
0
40
0
40
1
40
1
40
1
40
1
10
36.5126289688
20
49.6098071825
30
0
10
36.7883503288
20
50.1172322225
30
0
10
37.3148457688
20
51.2553873425
30
0
10
37.3148457688
20
51.3433571825
30
0
0
SPLINE
5
22B
100
AcDbEntity
8
reimu
6
ByLayer
62
7
370
-1
100
AcDbSpline
210
0
220
0
230
1
70
8
71
3
72
8
73
4
74
0
42
1e-07
43
1e-07
40
0
40
0
40
0
40
0
40
1
40
1
40
1
40
1
10
37.3148457688
20
51.3433571825
30
0
10
37.3148457688
20
51.4710988625
30
0
10
37.4301108088
20
51.5777680625
30
0
10
37.5582624088
20
51.5910071825
30
0
0
LWPOLYLINE
5
22C
100
AcDbEntity
8
reimu
6
ByLayer
62
7
370
-1
100
AcDbPolyline
90
2
70
0
43
0
10
33.3291624088
20
54.3405573425
10
33.3291624088
20
54.3405573425
0
SPLINE
5
22D
100
AcDbEntity
8
reimu
6
ByLayer
62
7
370
-1
100
AcDbSpline
210
0
220
0
230
1
70
8
71
3
72
8
73
4
74
0
42
1e-07
43
1e-07
40
0
40
0
40
0
40
0
40
1
40
1
40
1
40
1
10
23.1755124088
20
48.1704739025
30
0
10
23.2220788888
20
48.1704739025
30
0
10
23.2601788888
20
48.1323739025
30
0
10
23.2601788888
20
48.0858071825
30
0
0
SPLINE
5
22E
100
AcDbEntity
8
reimu
6
ByLayer
62
7
370
-1
100
AcDbSpline
210
0
220
0
230
1
70
8
71
3
72
8
73
4
74
0
42
1e-07
43
1e-07
40
0
40
0
40
0
40
0
40
1
40
1
40
1
40
1
10
23.2601788888
20
48.0858071825
30
0
10
23.2601788888
20
48.0392407025
30
0
10
23.2220788888
20
48.0011407025
30
0
10
23.1755124088
20
48.0011407025
30
0
0
SPLINE
5
22F
100
AcDbEntity
8
reimu
6
ByLayer
62
7
370
-1
100
AcDbSpline
210
0
220
0
230
1
70
8
71
3
72
8
73
4
74
0
42
1e-07
43
1e-07
40
0
40
0
40
0
40
0
40
1
40
1
40
1
40
1
10
23.1755124088
20
48.0011407025
30
0
10
23.1289456888
20
48.0011407025
30
0
10
23.0908456888
20
48.0392407025
30
0
10
23.0908456888
20
48.0858071825
30
0
0
SPLINE
5
230
100
AcDbEntity
8
reimu
6
ByLayer
62
7
370
-1
100
AcDbSpline
210
0
220
0
230
1
70
8
71
3
72
8
73
4
74
0
42
1e-07
43
1e-07
40
0
40
0
40
0
40
0
40
1
40
1
40
1
40
1
10
23.0908456888
20
48.0858071825
30
0
10
23.0908456888
20
48.1323739025
30
0
10
23.1289456888
20
48.1704739025
30
0
10
23.1755124088
20
48.1704739025
30
0
0
LWPOLYLINE
5
231
100
AcDbEntity
8
reimu
6
ByLayer
62
7
370
-1
100
AcDbPolyline
90
2
70
0
43
0
10
37.5582624088
20
51.5910071825
10
37.5582624088
20
51.5910071825
0
SPLINE
5
232
100
AcDbEntity
8
reimu
6
ByLayer
62
7
370
-1
100
AcDbSpline
210
0
220
0
230
1
70
8
71
3
72
8
73
4
74
0
42
1e-07
43
1e-07
40
0
40
0
40
0
40
0
40
1
40
1
40
1
40
1
10
47.5510456888
20
47.1629407025
30
0
10
47.5673836888
20
47.1646327025
30
0
10
47.5875477688
20
47.1560716625
30
0
10
47.6103122488
20
47.1333071825
30
0
0
SPLINE
5
233
100
AcDbEntity
8
reimu
6
ByLayer
62
7
370
-1
100
AcDbSpline
210
0
220
0
230
1
70
8
71
3
72
8
73
4
74
0
42
1e-07
43
1e-07
40
0
40
0
40
0
40
0
40
1
40
1
40
1
40
1
10
47.6103122488
20
47.1333071825
30
0
10
47.6377118488
20
47.1059071025
30
0
10
47.6464960888
20
47.0131274225
30
0
10
47.6293622488
20
46.9279905425
30
0
0
SPLINE
5
234
100
AcDbEntity
8
reimu
6
ByLayer
62
7
370
-1
100
AcDbSpline
210
0
220
0
230
1
70
8
71
3
72
8
73
4
74
0
42
1e-07
43
1e-07
40
0
40
0
40
0
40
0
40
1
40
1
40
1
40
1
10
47.6293622488
20
46.9279905425
30
0
10
47.5997085688
20
46.7806449425
30
0
10
47.5940733688
20
46.7817657425
30
0
10
47.5341122488
20
46.9343407025
30
0
0
SPLINE
5
235
100
AcDbEntity
8
reimu
6
ByLayer
62
7
370
-1
100
AcDbSpline
210
0
220
0
230
1
70
8
71
3
72
8
73
4
74
0
42
1e-07
43
1e-07
40
0
40
0
40
0
40
0
40
1
40
1
40
1
40
1
10
47.5341122488
20
46.9343407025
30
0
10
47.4861720088
20
47.0563283825
30
0
10
47.5020312088
20
47.1578639825
30
0
10
47.5510456888
20
47.1629407025
30
0
0
LWPOLYLINE
5
236
100
AcDbEntity
8
reimu
6
ByLayer
62
7
370
-1
100
AcDbPolyline
90
2
70
0
43
0
10
23.1755124088
20
48.1704739025
10
23.1755124088
20
48.1704739025
0
SPLINE
5
237
100
AcDbEntity
8
reimu
6
ByLayer
62
7
370
-1
100
AcDbSpline
210
0
220
0
230
1
70
8
71
3
72
8
73
4
74
0
42
1e-07
43
1e-07
40
0
40
0
40
0
40
0
40
1
40
1
40
1
40
1
10
49.1173790488
20
46.5321739025
30
0
10
49.2558998488
20
46.5355775825
30
0
10
50.2749280888
20
45.3871540625
30
0
10
50.3789124088
20
45.1013073425
30
0
0
SPLINE
5
238
100
AcDbEntity
8
reimu
6
ByLayer
62
7
370
-1
100
AcDbSpline
210
0
220
0
230
1
70
8
71
3
72
8
73
4
74
0
42
1e-07
43
1e-07
40
0
40
0
40
0
40
0
40
1
40
1
40
1
40
1
10
50.3789124088
20
45.1013073425
30
0
10
50.4225088888
20
44.9814626225
30
0
10
50.3865595288
20
44.9531407025
30
0
10
50.1841790488
20
44.9531407025
30
0
0
SPLINE
5
239
100
AcDbEntity
8
reimu
6
ByLayer
62
7
370
-1
100
AcDbSpline
210
0
220
0
230
1
70
8
71
3
72
8
73
4
74
0
42
1e-07
43
1e-07
40
0
40
0
40
0
40
0
40
1
40
1
40
1
40
1
10
50.1841790488
20
44.9531407025
30
0
10
49.9845864088
20
44.9531407025
30
0
10
49.9073697688
20
45.0088046225
30
0
10
49.8052956088
20
45.2283071825
30
0
0
SPLINE
5
23A
100
AcDbEntity
8
reimu
6
ByLayer
62
7
370
-1
100
AcDbSpline
210
0
220
0
230
1
70
8
71
3
72
8
73
4
74
0
42
1e-07
43
1e-07
40
0
40
0
40
0
40
0
40
1
40
1
40
1
40
1
10
49.8052956088
20
45.2283071825
30
0
10
49.7349172888
20
45.3796492625
30
0
10
49.6028935288
20
45.6177739025
30
0
10
49.5110788888
20
45.7574738225
30
0
0
SPLINE
5
23B
100
AcDbEntity
8
reimu
6
ByLayer
62
7
370
-1
100
AcDbSpline
210
0
220
0
230
1
70
8
71
3
72
8
73
4
74
0
42
1e-07
43
1e-07
40
0
40
0
40
0
40
0
40
1
40
1
40
1
40
1
10
49.5110788888
20
45.7574738225
30
0
10
49.2328812088
20
46.1807651825
30
0
10
49.0696106488
20
46.4907556625
30
0
10
49.1067957688
20
46.5279405425
30
0
0
SPLINE
5
23C
100
AcDbEntity
8
reimu
6
ByLayer
62
7
370
-1
100
AcDbSpline
210
0
220
0
230
1
70
8
71
3
72
8
73
4
74
0
42
1e-07
43
1e-07
40
0
40
0
40
0
40
0
40
1
40
1
40
1
40
1
10
49.1067957688
20
46.5279405425
30
0
10
49.1093702488
20
46.5305152625
30
0
10
49.1129107288
20
46.5320642225
30
0
10
49.1173790488
20
46.5321739025
30
0
0
LWPOLYLINE
5
23D
100
AcDbEntity
8
reimu
6
ByLayer
62
7
370
-1
100
AcDbPolyline
90
2
70
0
43
0
10
47.5510456888
20
47.1629407025
10
47.5510456888
20
47.1629407025
0
SPLINE
5
23E
100
AcDbEntity
8
reimu
6
ByLayer
62
7
370
-1
100
AcDbSpline
210
0
220
0
230
1
70
8
71
3
72
8
73
4
74
0
42
1e-07
43
1e-07
40
0
40
0
40
0
40
0
40
1
40
1
40
1
40
1
10
48.4485122488
20
46.4326905425
30
0
10
48.5085206488
20
46.4381037425
30
0
10
48.5564880088
20
46.3542431825
30
0
10
48.6771122488
20
46.1342407025
30
0
0
SPLINE
5
23F
100
AcDbEntity
8
reimu
6
ByLayer
62
7
370
-1
100
AcDbSpline
210
0
220
0
230
1
70
8
71
3
72
8
73
4
74
0
42
1e-07
43
1e-07
40
0
40
0
40
0
40
0
40
1
40
1
40
1
40
1
10
48.6771122488
20
46.1342407025
30
0
10
49.0779616888
20
45.4031493425
30
0
10
49.2437558488
20
45.0784432625
30
0
10
49.2486122488
20
45.0166406225
30
0
0
SPLINE
5
240
100
AcDbEntity
8
reimu
6
ByLayer
62
7
370
-1
100
AcDbSpline
210
0
220
0
230
1
70
8
71
3
72
8
73
4
74
0
42
1e-07
43
1e-07
40
0
40
0
40
0
40
0
40
1
40
1
40
1
40
1
10
49.2486122488
20
45.0166406225
30
0
10
49.2513616888
20
44.9817160625
30
0
10
48.9910792888
20
44.9531407025
30
0
10
48.6707623288
20
44.9531407025
30
0
0
SPLINE
5
241
100
AcDbEntity
8
reimu
6
ByLayer
62
7
370
-1
100
AcDbSpline
210
0
220
0
230
1
70
8
71
3
72
8
73
4
74
0
42
1e-07
43
1e-07
40
0
40
0
40
0
40
0
40
1
40
1
40
1
40
1
10
48.6707623288
20
44.9531407025
30
0
10
48.0338028088
20
44.9531407025
30
0
10
47.9948940088
20
44.9876671025
30
0
10
47.8516123288
20
45.6728073425
30
0
0
SPLINE
5
242
100
AcDbEntity
8
reimu
6
ByLayer
62
7
370
-1
100
AcDbSpline
210
0
220
0
230
1
70
8
71
3
72
8
73
4
74
0
42
1e-07
43
1e-07
40
0
40
0
40
0
40
0
40
1
40
1
40
1
40
1
10
47.8516123288
20
45.6728073425
30
0
10
47.8223976088
20
45.8125072625
30
0
10
47.7796958488
20
45.9959258225
30
0
10
47.7563623288
20
46.0813238225
30
0
0
SPLINE
5
243
100
AcDbEntity
8
reimu
6
ByLayer
62
7
370
-1
100
AcDbSpline
210
0
220
0
230
1
70
8
71
3
72
8
73
4
74
0
42
1e-07
43
1e-07
40
0
40
0
40
0
40
0
40
1
40
1
40
1
40
1
10
47.7563623288
20
46.0813238225
30
0
10
47.7222355288
20
46.2062255825
30
0
10
47.7556653688
20
46.2327220625
30
0
10
47.9256957688
20
46.2104407025
30
0
0
SPLINE
5
244
100
AcDbEntity
8
reimu
6
ByLayer
62
7
370
-1
100
AcDbSpline
210
0
220
0
230
1
70
8
71
3
72
8
73
4
74
0
42
1e-07
43
1e-07
40
0
40
0
40
0
40
0
40
1
40
1
40
1
40
1
10
47.9256957688
20
46.2104407025
30
0
10
48.0454989688
20
46.1947413425
30
0
10
48.2114164888
20
46.2492986225
30
0
10
48.3088123288
20
46.3374405425
30
0
0
SPLINE
5
245
100
AcDbEntity
8
reimu
6
ByLayer
62
7
370
-1
100
AcDbSpline
210
0
220
0
230
1
70
8
71
3
72
8
73
4
74
0
42
1e-07
43
1e-07
40
0
40
0
40
0
40
0
40
1
40
1
40
1
40
1
10
48.3088123288
20
46.3374405425
30
0
10
48.3721809688
20
46.3947878225
30
0
10
48.4125072088
20
46.4294428625
30
0
10
48.4485122488
20
46.4326905425
30
0
0
LWPOLYLINE
5
246
100
AcDbEntity
8
reimu
6
ByLayer
62
7
370
-1
100
AcDbPolyline
90
2
70
0
43
0
10
49.1173790488
20
46.5321739025
10
49.1173790488
20
46.5321739025
0
SPLINE
5
247
100
AcDbEntity
8
reimu
6
ByLayer
62
7
370
-1
100
AcDbSpline
210
0
220
0
230
1
70
8
71
3
72
8
73
4
74
0
42
1e-07
43
1e-07
40
0
40
0
40
0
40
0
40
1
40
1
40
1
40
1
10
61.3622956888
20
46.1384738225
30
0
10
61.4152821688
20
46.1384738225
30
0
10
61.4260197688
20
46.0012015025
30
0
10
61.3919289688
20
45.7786406225
30
0
0
SPLINE
5
248
100
AcDbEntity
8
reimu
6
ByLayer
62
7
370
-1
100
AcDbSpline
210
0
220
0
230
1
70
8
71
3
72
8
73
4
74
0
42
1e-07
43
1e-07
40
0
40
0
40
0
40
0
40
1
40
1
40
1
40
1
10
61.3919289688
20
45.7786406225
30
0
10
61.3163976088
20
45.2855215025
30
0
10
61.2755124088
20
45.2724659825
30
0
10
61.2755124088
20
45.7426571825
30
0
0
SPLINE
5
249
100
AcDbEntity
8
reimu
6
ByLayer
62
7
370
-1
100
AcDbSpline
210
0
220
0
230
1
70
8
71
3
72
8
73
4
74
0
42
1e-07
43
1e-07
40
0
40
0
40
0
40
0
40
1
40
1
40
1
40
1
10
61.2755124088
20
45.7426571825
30
0
10
61.2755124088
20
45.9599687825
30
0
10
61.3151788888
20
46.1384738225
30
0
10
61.3622956888
20
46.1384738225
30
0
0
LWPOLYLINE
5
24A
100
AcDbEntity
8
reimu
6
ByLayer
62
7
370
-1
100
AcDbPolyline
90
2
70
0
43
0
10
48.4485122488
20
46.4326905425
10
48.4485122488
20
46.4326905425
0
SPLINE
5
24B
100
AcDbEntity
8
reimu
6
ByLayer
62
7
370
-1
100
AcDbSpline
210
0
220
0
230
1
70
8
71
3
72
8
73
4
74
0
42
1e-07
43
1e-07
40
0
40
0
40
0
40
0
40
1
40
1
40
1
40
1
10
48.9416956888
20
44.2927406225
30
0
10
49.3124551288
20
44.2978816625
30
0
10
49.5458572888
20
44.2677043025
30
0
10
49.6042123288
20
44.2059573425
30
0
0
SPLINE
5
24C
100
AcDbEntity
8
reimu
6
ByLayer
62
7
370
-1
100
AcDbSpline
210
0
220
0
230
1
70
8
71
3
72
8
73
4
74
0
42
1e-07
43
1e-07
40
0
40
0
40
0
40
0
40
1
40
1
40
1
40
1
10
49.6042123288
20
44.2059573425
30
0
10
49.6342310488
20
44.1741931025
30
0
10
49.6845067288
20
44.0249827025
30
0
10
49.7163957688
20
43.8736406225
30
0
0
SPLINE
5
24D
100
AcDbEntity
8
reimu
6
ByLayer
62
7
370
-1
100
AcDbSpline
210
0
220
0
230
1
70
8
71
3
72
8
73
4
74
0
42
1e-07
43
1e-07
40
0
40
0
40
0
40
0
40
1
40
1
40
1
40
1
10
49.7163957688
20
43.8736406225
30
0
10
49.7845692088
20
43.5500995025
30
0
10
49.7714846488
20
43.5487000625
30
0
10
49.0263624088
20
43.8016739825
30
0
0
SPLINE
5
24E
100
AcDbEntity
8
reimu
6
ByLayer
62
7
370
-1
100
AcDbSpline
210
0
220
0
230
1
70
8
71
3
72
8
73
4
74
0
42
1e-07
43
1e-07
40
0
40
0
40
0
40
0
40
1
40
1
40
1
40
1
10
49.0263624088
20
43.8016739825
30
0
10
48.3662128888
20
44.0257994225
30
0
10
48.2402181688
20
44.2685164625
30
0
10
48.7744790488
20
44.2885072625
30
0
0
SPLINE
5
24F
100
AcDbEntity
8
reimu
6
ByLayer
62
7
370
-1
100
AcDbSpline
210
0
220
0
230
1
70
8
71
3
72
8
73
4
74
0
42
1e-07
43
1e-07
40
0
40
0
40
0
40
0
40
1
40
1
40
1
40
1
10
48.7744790488
20
44.2885072625
30
0
10
48.8329356088
20
44.2906943825
30
0
10
48.8887303288
20
44.2920064625
30
0
10
48.9416956888
20
44.2927406225
30
0
0
LWPOLYLINE
5
250
100
AcDbEntity
8
reimu
6
ByLayer
62
7
370
-1
100
AcDbPolyline
90
2
70
0
43
0
10
61.3622956888
20
46.1384738225
10
61.3622956888
20
46.1384738225
0
LWPOLYLINE
5
251
100
AcDbEntity
8
reimu
6
ByLayer
62
7
370
-1
100
AcDbPolyline
90
2
70
0
43
0
10
48.9416956888
20
44.2927406225
10
48.9416956888
20
44.2927406225
0
ENDSEC
0
SECTION
2
OBJECTS
0
DICTIONARY
5
C
330
0
100
AcDbDictionary
281
1
3
ACAD_GROUP
350
D
0
DICTIONARY
5
D
330
C
100
AcDbDictionary
281
1
0
ENDSEC
0
EOF
