  0
SECTION
  2
HEADER
  9
$ACADVER
  1
AC1014
  9
$HANDSEED
  5
FFFF
  9
$MEASUREMENT
 70
     1
  0
ENDSEC
  0
SECTION
  2
TABLES
  0
TABLE
  2
VPORT
  5
8
330
0
100
AcDbSymbolTable
 70
     4
  0
VPORT
  5
2E
330
8
100
AcDbSymbolTableRecord
100
AcDbViewportTableRecord
  2
*ACTIVE
 70
     0
 10
0.0
 20
0.0
 11
1.0
 21
1.0
 12
210.0
 22
148.5
 13
0.0
 23
0.0
 14
10.0
 24
10.0
 15
10.0
 25
10.0
 16
0.0
 26
0.0
 36
1.0
 17
0.0
 27
0.0
 37
0.0
 40
341.0
 41
1.24
 42
50.0
 43
0.0
 44
0.0
 50
0.0
 51
0.0
 71
     0
 72
   100
 73
     1
 74
     3
 75
     0
 76
     0
 77
     0
 78
     0
  0
ENDTAB
  0
TABLE
  2
LTYPE
  5
5
330
0
100
AcDbSymbolTable
 70
     1
  0
LTYPE
  5
14
330
5
100
AcDbSymbolTableRecord
100
AcDbLinetypeTableRecord
  2
BYBLOCK
 70
     0
  3

 72
    65
 73
     0
 40
0.0
  0
LTYPE
  5
15
330
5
100
AcDbSymbolTableRecord
100
AcDbLinetypeTableRecord
  2
BYLAYER
 70
     0
  3

 72
    65
 73
     0
 40
0.0
  0
LTYPE
  5
16
330
5
100
AcDbSymbolTableRecord
100
AcDbLinetypeTableRecord
  2
CONTINUOUS
 70
     0
  3
Solid line
 72
    65
 73
     0
 40
0.0
  0
ENDTAB
  0
TABLE
  2
LAYER
  5
2
100
AcDbSymbolTable
 70
1
  0
LAYER
  5
50
100
AcDbSymbolTableRecord
100
AcDbLayerTableRecord
  2
0
 70
0
  6
CONTINUOUS
  0
ENDTAB
  0
TABLE
  2
STYLE
  5
3
330
0
100
AcDbSymbolTable
 70
     1
  0
STYLE
  5
11
330
3
100
AcDbSymbolTableRecord
100
AcDbTextStyleTableRecord
  2
STANDARD
 70
     0
 40
0.0
 41
1.0
 50
0.0
 71
     0
 42
2.5
  3
txt
  4

  0
ENDTAB
  0
TABLE
  2
VIEW
  5
6
330
0
100
AcDbSymbolTable
 70
     0
  0
ENDTAB
  0
TABLE
  2
UCS
  5
7
330
0
100
AcDbSymbolTable
 70
     0
  0
ENDTAB
  0
TABLE
  2
APPID
  5
9
330
0
100
AcDbSymbolTable
 70
     2
  0
APPID
  5
12
330
9
100
AcDbSymbolTableRecord
100
AcDbRegAppTableRecord
  2
ACAD
 70
     0
  0
ENDTAB
  0
TABLE
  2
DIMSTYLE
  5
A
330
0
100
AcDbSymbolTable
 70
     1
  0
DIMSTYLE
105
27
330
A
100
AcDbSymbolTableRecord
100
AcDbDimStyleTableRecord
  2
ISO-25
 70
     0
  3

  4

  5

  6

  7

 40
1.0
 41
2.5
 42
0.625
 43
3.75
 44
1.25
 45
0.0
 46
0.0
 47
0.0
 48
0.0
140
2.5
141
2.5
142
0.0
143
0.03937007874016
144
1.0
145
0.0
146
1.0
147
0.625
 71
     0
 72
     0
 73
     0
 74
     0
 75
     0
 76
     0
 77
     1
 78
     8
170
     0
171
     3
172
     1
173
     0
174
     0
175
     0
176
     0
177
     0
178
     0
270
     2
271
     2
272
     2
273
     2
274
     3
340
11
275
     0
280
     0
281
     0
282
     0
283
     0
284
     8
285
     0
286
     0
287
     3
288
     0
  0
ENDTAB
  0
TABLE
  2
BLOCK_RECORD
  5
1
330
0
100
AcDbSymbolTable
 70
     1
  0
BLOCK_RECORD
  5
1F
330
1
100
AcDbSymbolTableRecord
100
AcDbBlockTableRecord
  2
*MODEL_SPACE
  0
BLOCK_RECORD
  5
1B
330
1
100
AcDbSymbolTableRecord
100
AcDbBlockTableRecord
  2
*PAPER_SPACE
  0
ENDTAB
  0
ENDSEC
  0
SECTION
  2
BLOCKS
  0
BLOCK
  5
20
330
1F
100
AcDbEntity
  8
0
100
AcDbBlockBegin
  2
*MODEL_SPACE
 70
     0
 10
0.0
 20
0.0
 30
0.0
  3
*MODEL_SPACE
  1

  0
ENDBLK
  5
21
330
1F
100
AcDbEntity
  8
0
100
AcDbBlockEnd
  0
BLOCK
  5
1C
330
1B
100
AcDbEntity
 67
     1
  8
0
100
AcDbBlockBegin
  2
*PAPER_SPACE
  1

  0
ENDBLK
  5
1D
330
1B
100
AcDbEntity
 67
     1
  8
0
100
AcDbBlockEnd
  0
ENDSEC
  0
SECTION
  2
ENTITIES
  0
SPLINE
  5
100
100
AcDbEntity
  8
0
 62
7
100
AcDbSpline
 70
8
 71
3
 72
8
 73
4
 74
0
 40
0
 40
0
 40
0
 40
0
 40
1
 40
1
 40
1
 40
1
 10
94.606181
 20
249.337494
 30
0.0
 10
94.099247
 20
249.321652
 30
0.0
 10
93.521685
 20
248.853514
 30
0.0
 10
92.842292
 20
247.935202
 30
0.0
  0
SPLINE
  5
101
100
AcDbEntity
  8
0
 62
7
100
AcDbSpline
 70
8
 71
3
 72
8
 73
4
 74
0
 40
0
 40
0
 40
0
 40
0
 40
1
 40
1
 40
1
 40
1
 10
92.842292
 20
247.935202
 30
0.0
 10
92.271497
 20
247.163677
 30
0.0
 10
91.601372
 20
246.532911
 30
0.0
 10
91.360625
 20
246.532911
 30
0.0
  0
SPLINE
  5
102
100
AcDbEntity
  8
0
 62
7
100
AcDbSpline
 70
8
 71
3
 72
8
 73
4
 74
0
 40
0
 40
0
 40
0
 40
0
 40
1
 40
1
 40
1
 40
1
 10
91.360625
 20
246.532911
 30
0.0
 10
91.119878
 20
246.532911
 30
0.0
 10
90.834820
 20
246.225653
 30
0.0
 10
90.716806
 20
245.853814
 30
0.0
  0
SPLINE
  5
103
100
AcDbEntity
  8
0
 62
7
100
AcDbSpline
 70
8
 71
3
 72
8
 73
4
 74
0
 40
0
 40
0
 40
0
 40
0
 40
1
 40
1
 40
1
 40
1
 10
90.716806
 20
245.853814
 30
0.0
 10
90.598789
 20
245.481975
 30
0.0
 10
90.046754
 20
245.024529
 30
0.0
 10
89.490903
 20
244.830758
 30
0.0
  0
SPLINE
  5
104
100
AcDbEntity
  8
0
 62
7
100
AcDbSpline
 70
8
 71
3
 72
8
 73
4
 74
0
 40
0
 40
0
 40
0
 40
0
 40
1
 40
1
 40
1
 40
1
 10
89.490903
 20
244.830758
 30
0.0
 10
88.315227
 20
244.420915
 30
0.0
 10
87.793446
 20
243.223223
 30
0.0
 10
88.450208
 20
242.431869
 30
0.0
  0
SPLINE
  5
105
100
AcDbEntity
  8
0
 62
7
100
AcDbSpline
 70
8
 71
3
 72
8
 73
4
 74
0
 40
0
 40
0
 40
0
 40
0
 40
1
 40
1
 40
1
 40
1
 10
88.450208
 20
242.431869
 30
0.0
 10
88.832523
 20
241.971209
 30
0.0
 10
88.792643
 20
241.907221
 30
0.0
 10
88.212083
 20
242.008536
 30
0.0
  0
SPLINE
  5
106
100
AcDbEntity
  8
0
 62
7
100
AcDbSpline
 70
8
 71
3
 72
8
 73
4
 74
0
 40
0
 40
0
 40
0
 40
0
 40
1
 40
1
 40
1
 40
1
 10
88.212083
 20
242.008536
 30
0.0
 10
87.724477
 20
242.093629
 30
0.0
 10
87.354517
 20
241.774368
 30
0.0
 10
86.924444
 20
240.914925
 30
0.0
  0
SPLINE
  5
107
100
AcDbEntity
  8
0
 62
7
100
AcDbSpline
 70
8
 71
3
 72
8
 73
4
 74
0
 40
0
 40
0
 40
0
 40
0
 40
1
 40
1
 40
1
 40
1
 10
86.924444
 20
240.914925
 30
0.0
 10
86.035986
 20
239.139456
 30
0.0
 10
85.343317
 20
238.527305
 30
0.0
 10
84.816597
 20
239.054022
 30
0.0
  0
SPLINE
  5
108
100
AcDbEntity
  8
0
 62
7
100
AcDbSpline
 70
8
 71
3
 72
8
 73
4
 74
0
 40
0
 40
0
 40
0
 40
0
 40
1
 40
1
 40
1
 40
1
 10
84.816597
 20
239.054022
 30
0.0
 10
84.582378
 20
239.288241
 30
0.0
 10
84.117804
 20
239.477355
 30
0.0
 10
83.784722
 20
239.477355
 30
0.0
  0
SPLINE
  5
109
100
AcDbEntity
  8
0
 62
7
100
AcDbSpline
 70
8
 71
3
 72
8
 73
4
 74
0
 40
0
 40
0
 40
0
 40
0
 40
1
 40
1
 40
1
 40
1
 10
83.784722
 20
239.477355
 30
0.0
 10
83.451644
 20
239.477355
 30
0.0
 10
83.126207
 20
239.607324
 30
0.0
 10
83.061528
 20
239.768397
 30
0.0
  0
SPLINE
  5
10a
100
AcDbEntity
  8
0
 62
7
100
AcDbSpline
 70
8
 71
3
 72
8
 73
4
 74
0
 40
0
 40
0
 40
0
 40
0
 40
1
 40
1
 40
1
 40
1
 10
83.061528
 20
239.768397
 30
0.0
 10
82.868821
 20
240.248333
 30
0.0
 10
78.874335
 20
242.140511
 30
0.0
 10
76.411667
 20
242.916939
 30
0.0
  0
SPLINE
  5
10b
100
AcDbEntity
  8
0
 62
7
100
AcDbSpline
 70
8
 71
3
 72
8
 73
4
 74
0
 40
0
 40
0
 40
0
 40
0
 40
1
 40
1
 40
1
 40
1
 10
76.411667
 20
242.916939
 30
0.0
 10
75.150486
 20
243.314561
 30
0.0
 10
72.689861
 20
243.841541
 30
0.0
 10
70.943611
 20
244.089925
 30
0.0
  0
SPLINE
  5
10c
100
AcDbEntity
  8
0
 62
7
100
AcDbSpline
 70
8
 71
3
 72
8
 73
4
 74
0
 40
0
 40
0
 40
0
 40
0
 40
1
 40
1
 40
1
 40
1
 10
70.943611
 20
244.089925
 30
0.0
 10
69.197361
 20
244.338311
 30
0.0
 10
67.420530
 20
244.768669
 30
0.0
 10
66.992500
 20
245.042425
 30
0.0
  0
SPLINE
  5
10d
100
AcDbEntity
  8
0
 62
7
100
AcDbSpline
 70
8
 71
3
 72
8
 73
4
 74
0
 40
0
 40
0
 40
0
 40
0
 40
1
 40
1
 40
1
 40
1
 10
66.992500
 20
245.042425
 30
0.0
 10
66.564468
 20
245.316183
 30
0.0
 10
66.067570
 20
245.443166
 30
0.0
 10
65.890069
 20
245.333466
 30
0.0
  0
SPLINE
  5
10e
100
AcDbEntity
  8
0
 62
7
100
AcDbSpline
 70
8
 71
3
 72
8
 73
4
 74
0
 40
0
 40
0
 40
0
 40
0
 40
1
 40
1
 40
1
 40
1
 10
65.890069
 20
245.333466
 30
0.0
 10
65.370893
 20
245.012597
 30
0.0
 10
65.113874
 20
243.077749
 30
0.0
 10
65.466736
 20
242.149647
 30
0.0
  0
SPLINE
  5
10f
100
AcDbEntity
  8
0
 62
7
100
AcDbSpline
 70
8
 71
3
 72
8
 73
4
 74
0
 40
0
 40
0
 40
0
 40
0
 40
1
 40
1
 40
1
 40
1
 10
65.466736
 20
242.149647
 30
0.0
 10
65.704937
 20
241.523133
 30
0.0
 10
65.655503
 20
241.181201
 30
0.0
 10
65.281528
 20
240.870827
 30
0.0
  0
SPLINE
  5
110
100
AcDbEntity
  8
0
 62
7
100
AcDbSpline
 70
8
 71
3
 72
8
 73
4
 74
0
 40
0
 40
0
 40
0
 40
0
 40
1
 40
1
 40
1
 40
1
 10
65.281528
 20
240.870827
 30
0.0
 10
64.678035
 20
240.369973
 30
0.0
 10
64.624450
 20
239.355497
 30
0.0
 10
65.149236
 20
238.374925
 30
0.0
  0
SPLINE
  5
111
100
AcDbEntity
  8
0
 62
7
100
AcDbSpline
 70
8
 71
3
 72
8
 73
4
 74
0
 40
0
 40
0
 40
0
 40
0
 40
1
 40
1
 40
1
 40
1
 10
65.149236
 20
238.374925
 30
0.0
 10
65.423618
 20
237.862237
 30
0.0
 10
65.418366
 20
237.533451
 30
0.0
 10
65.113958
 20
237.166661
 30
0.0
  0
SPLINE
  5
112
100
AcDbEntity
  8
0
 62
7
100
AcDbSpline
 70
8
 71
3
 72
8
 73
4
 74
0
 40
0
 40
0
 40
0
 40
0
 40
1
 40
1
 40
1
 40
1
 10
65.113958
 20
237.166661
 30
0.0
 10
64.787645
 20
236.773477
 30
0.0
 10
64.810245
 20
236.408826
 30
0.0
 10
65.237431
 20
235.508605
 30
0.0
  0
SPLINE
  5
113
100
AcDbEntity
  8
0
 62
7
100
AcDbSpline
 70
8
 71
3
 72
8
 73
4
 74
0
 40
0
 40
0
 40
0
 40
0
 40
1
 40
1
 40
1
 40
1
 10
65.237431
 20
235.508605
 30
0.0
 10
65.601311
 20
234.741796
 30
0.0
 10
65.715123
 20
233.842176
 30
0.0
 10
65.581389
 20
232.845133
 30
0.0
  0
SPLINE
  5
114
100
AcDbEntity
  8
0
 62
7
100
AcDbSpline
 70
8
 71
3
 72
8
 73
4
 74
0
 40
0
 40
0
 40
0
 40
0
 40
1
 40
1
 40
1
 40
1
 10
65.581389
 20
232.845133
 30
0.0
 10
65.425594
 20
231.683583
 30
0.0
 10
65.527645
 20
231.187848
 30
0.0
 10
66.031181
 20
230.631452
 30
0.0
  0
SPLINE
  5
115
100
AcDbEntity
  8
0
 62
7
100
AcDbSpline
 70
8
 71
3
 72
8
 73
4
 74
0
 40
0
 40
0
 40
0
 40
0
 40
1
 40
1
 40
1
 40
1
 10
66.031181
 20
230.631452
 30
0.0
 10
66.556455
 20
230.051026
 30
0.0
 10
66.598808
 20
229.853566
 30
0.0
 10
66.216389
 20
229.617216
 30
0.0
  0
SPLINE
  5
116
100
AcDbEntity
  8
0
 62
7
100
AcDbSpline
 70
8
 71
3
 72
8
 73
4
 74
0
 40
0
 40
0
 40
0
 40
0
 40
1
 40
1
 40
1
 40
1
 10
66.216389
 20
229.617216
 30
0.0
 10
65.827577
 20
229.376921
 30
0.0
 10
65.840714
 20
229.180822
 30
0.0
 10
66.313403
 20
228.505966
 30
0.0
  0
SPLINE
  5
117
100
AcDbEntity
  8
0
 62
7
100
AcDbSpline
 70
8
 71
3
 72
8
 73
4
 74
0
 40
0
 40
0
 40
0
 40
0
 40
1
 40
1
 40
1
 40
1
 10
66.313403
 20
228.505966
 30
0.0
 10
66.630234
 20
228.053623
 30
0.0
 10
66.886667
 20
227.324265
 30
0.0
 10
66.886667
 20
226.892008
 30
0.0
  0
SPLINE
  5
118
100
AcDbEntity
  8
0
 62
7
100
AcDbSpline
 70
8
 71
3
 72
8
 73
4
 74
0
 40
0
 40
0
 40
0
 40
0
 40
1
 40
1
 40
1
 40
1
 10
66.886667
 20
226.892008
 30
0.0
 10
66.886667
 20
226.459754
 30
0.0
 10
67.133605
 20
225.966184
 30
0.0
 10
67.433472
 20
225.798397
 30
0.0
  0
SPLINE
  5
119
100
AcDbEntity
  8
0
 62
7
100
AcDbSpline
 70
8
 71
3
 72
8
 73
4
 74
0
 40
0
 40
0
 40
0
 40
0
 40
1
 40
1
 40
1
 40
1
 10
67.433472
 20
225.798397
 30
0.0
 10
67.873793
 20
225.551983
 30
0.0
 10
67.905235
 20
225.310847
 30
0.0
 10
67.601042
 20
224.510758
 30
0.0
  0
SPLINE
  5
11a
100
AcDbEntity
  8
0
 62
7
100
AcDbSpline
 70
8
 71
3
 72
8
 73
4
 74
0
 40
0
 40
0
 40
0
 40
0
 40
1
 40
1
 40
1
 40
1
 10
67.601042
 20
224.510758
 30
0.0
 10
67.290160
 20
223.693078
 30
0.0
 10
67.334150
 20
223.433646
 30
0.0
 10
67.839167
 20
223.064369
 30
0.0
  0
SPLINE
  5
11b
100
AcDbEntity
  8
0
 62
7
100
AcDbSpline
 70
8
 71
3
 72
8
 73
4
 74
0
 40
0
 40
0
 40
0
 40
0
 40
1
 40
1
 40
1
 40
1
 10
67.839167
 20
223.064369
 30
0.0
 10
68.354657
 20
222.687433
 30
0.0
 10
68.373814
 20
222.533134
 30
0.0
 10
67.980278
 20
222.058952
 30
0.0
  0
SPLINE
  5
11c
100
AcDbEntity
  8
0
 62
7
100
AcDbSpline
 70
8
 71
3
 72
8
 73
4
 74
0
 40
0
 40
0
 40
0
 40
0
 40
1
 40
1
 40
1
 40
1
 10
67.980278
 20
222.058952
 30
0.0
 10
67.723365
 20
221.749386
 30
0.0
 10
67.608506
 20
221.262307
 30
0.0
 10
67.715694
 20
220.982980
 30
0.0
  0
SPLINE
  5
11d
100
AcDbEntity
  8
0
 62
7
100
AcDbSpline
 70
8
 71
3
 72
8
 73
4
 74
0
 40
0
 40
0
 40
0
 40
0
 40
1
 40
1
 40
1
 40
1
 10
67.715694
 20
220.982980
 30
0.0
 10
67.822882
 20
220.703654
 30
0.0
 10
67.717391
 20
220.340434
 30
0.0
 10
67.486389
 20
220.171591
 30
0.0
  0
SPLINE
  5
11e
100
AcDbEntity
  8
0
 62
7
100
AcDbSpline
 70
8
 71
3
 72
8
 73
4
 74
0
 40
0
 40
0
 40
0
 40
0
 40
1
 40
1
 40
1
 40
1
 10
67.486389
 20
220.171591
 30
0.0
 10
66.840103
 20
219.699213
 30
0.0
 10
63.811122
 20
218.494940
 30
0.0
 10
60.977639
 20
217.578675
 30
0.0
  0
SPLINE
  5
11f
100
AcDbEntity
  8
0
 62
7
100
AcDbSpline
 70
8
 71
3
 72
8
 73
4
 74
0
 40
0
 40
0
 40
0
 40
0
 40
1
 40
1
 40
1
 40
1
 10
60.977639
 20
217.578675
 30
0.0
 10
59.570936
 20
217.123786
 30
0.0
 10
58.420000
 20
216.607334
 30
0.0
 10
58.420000
 20
216.432147
 30
0.0
  0
SPLINE
  5
120
100
AcDbEntity
  8
0
 62
7
100
AcDbSpline
 70
8
 71
3
 72
8
 73
4
 74
0
 40
0
 40
0
 40
0
 40
0
 40
1
 40
1
 40
1
 40
1
 10
58.420000
 20
216.432147
 30
0.0
 10
58.420000
 20
216.081181
 30
0.0
 10
58.660781
 20
216.125140
 30
0.0
 10
63.006111
 20
217.261175
 30
0.0
  0
SPLINE
  5
121
100
AcDbEntity
  8
0
 62
7
100
AcDbSpline
 70
8
 71
3
 72
8
 73
4
 74
0
 40
0
 40
0
 40
0
 40
0
 40
1
 40
1
 40
1
 40
1
 10
63.006111
 20
217.261175
 30
0.0
 10
64.655347
 20
217.692351
 30
0.0
 10
66.433282
 20
218.263484
 30
0.0
 10
66.957222
 20
218.531175
 30
0.0
  0
SPLINE
  5
122
100
AcDbEntity
  8
0
 62
7
100
AcDbSpline
 70
8
 71
3
 72
8
 73
4
 74
0
 40
0
 40
0
 40
0
 40
0
 40
1
 40
1
 40
1
 40
1
 10
66.957222
 20
218.531175
 30
0.0
 10
68.170648
 20
219.151110
 30
0.0
 10
68.782283
 20
219.150252
 30
0.0
 10
68.544722
 20
218.531175
 30
0.0
  0
SPLINE
  5
123
100
AcDbEntity
  8
0
 62
7
100
AcDbSpline
 70
8
 71
3
 72
8
 73
4
 74
0
 40
0
 40
0
 40
0
 40
0
 40
1
 40
1
 40
1
 40
1
 10
68.544722
 20
218.531175
 30
0.0
 10
68.442304
 20
218.264274
 30
0.0
 10
68.593008
 20
217.593601
 30
0.0
 10
68.879861
 20
217.040689
 30
0.0
  0
SPLINE
  5
124
100
AcDbEntity
  8
0
 62
7
100
AcDbSpline
 70
8
 71
3
 72
8
 73
4
 74
0
 40
0
 40
0
 40
0
 40
0
 40
1
 40
1
 40
1
 40
1
 10
68.879861
 20
217.040689
 30
0.0
 10
69.359326
 20
216.116521
 30
0.0
 10
69.340538
 20
215.920608
 30
0.0
 10
68.624097
 20
214.615341
 30
0.0
  0
SPLINE
  5
125
100
AcDbEntity
  8
0
 62
7
100
AcDbSpline
 70
8
 71
3
 72
8
 73
4
 74
0
 40
0
 40
0
 40
0
 40
0
 40
1
 40
1
 40
1
 40
1
 10
68.624097
 20
214.615341
 30
0.0
 10
67.341298
 20
212.278256
 30
0.0
 10
64.065305
 20
208.432911
 30
0.0
 10
63.358889
 20
208.432911
 30
0.0
  0
SPLINE
  5
126
100
AcDbEntity
  8
0
 62
7
100
AcDbSpline
 70
8
 71
3
 72
8
 73
4
 74
0
 40
0
 40
0
 40
0
 40
0
 40
1
 40
1
 40
1
 40
1
 10
63.358889
 20
208.432911
 30
0.0
 10
63.180508
 20
208.432911
 30
0.0
 10
62.861012
 20
208.115411
 30
0.0
 10
62.653333
 20
207.727355
 30
0.0
  0
SPLINE
  5
127
100
AcDbEntity
  8
0
 62
7
100
AcDbSpline
 70
8
 71
3
 72
8
 73
4
 74
0
 40
0
 40
0
 40
0
 40
0
 40
1
 40
1
 40
1
 40
1
 10
62.653333
 20
207.727355
 30
0.0
 10
62.445652
 20
207.339300
 30
0.0
 10
62.046787
 20
207.021800
 30
0.0
 10
61.762569
 20
207.021800
 30
0.0
  0
SPLINE
  5
128
100
AcDbEntity
  8
0
 62
7
100
AcDbSpline
 70
8
 71
3
 72
8
 73
4
 74
0
 40
0
 40
0
 40
0
 40
0
 40
1
 40
1
 40
1
 40
1
 10
61.762569
 20
207.021800
 30
0.0
 10
61.478355
 20
207.021800
 30
0.0
 10
61.242222
 20
206.881363
 30
0.0
 10
61.242222
 20
206.713119
 30
0.0
  0
SPLINE
  5
129
100
AcDbEntity
  8
0
 62
7
100
AcDbSpline
 70
8
 71
3
 72
8
 73
4
 74
0
 40
0
 40
0
 40
0
 40
0
 40
1
 40
1
 40
1
 40
1
 10
61.242222
 20
206.713119
 30
0.0
 10
61.242222
 20
206.330637
 30
0.0
 10
57.053624
 20
203.494022
 30
0.0
 10
56.488542
 20
203.494022
 30
0.0
  0
SPLINE
  5
12a
100
AcDbEntity
  8
0
 62
7
100
AcDbSpline
 70
8
 71
3
 72
8
 73
4
 74
0
 40
0
 40
0
 40
0
 40
0
 40
1
 40
1
 40
1
 40
1
 10
56.488542
 20
203.494022
 30
0.0
 10
56.437248
 20
203.494022
 30
0.0
 10
56.191661
 20
203.970272
 30
0.0
 10
55.950556
 20
204.552355
 30
0.0
  0
SPLINE
  5
12b
100
AcDbEntity
  8
0
 62
7
100
AcDbSpline
 70
8
 71
3
 72
8
 73
4
 74
0
 40
0
 40
0
 40
0
 40
0
 40
1
 40
1
 40
1
 40
1
 10
55.950556
 20
204.552355
 30
0.0
 10
55.709450
 20
205.134439
 30
0.0
 10
55.380210
 20
205.610689
 30
0.0
 10
55.209722
 20
205.610689
 30
0.0
  0
SPLINE
  5
12c
100
AcDbEntity
  8
0
 62
7
100
AcDbSpline
 70
8
 71
3
 72
8
 73
4
 74
0
 40
0
 40
0
 40
0
 40
0
 40
1
 40
1
 40
1
 40
1
 10
55.209722
 20
205.610689
 30
0.0
 10
55.039235
 20
205.610689
 30
0.0
 10
54.892222
 20
205.823563
 30
0.0
 10
54.892222
 20
206.078119
 30
0.0
  0
SPLINE
  5
12d
100
AcDbEntity
  8
0
 62
7
100
AcDbSpline
 70
8
 71
3
 72
8
 73
4
 74
0
 40
0
 40
0
 40
0
 40
0
 40
1
 40
1
 40
1
 40
1
 10
54.892222
 20
206.078119
 30
0.0
 10
54.892222
 20
207.010796
 30
0.0
 10
50.226045
 20
209.844022
 30
0.0
 10
48.692153
 20
209.844022
 30
0.0
  0
SPLINE
  5
12e
100
AcDbEntity
  8
0
 62
7
100
AcDbSpline
 70
8
 71
3
 72
8
 73
4
 74
0
 40
0
 40
0
 40
0
 40
0
 40
1
 40
1
 40
1
 40
1
 10
48.692153
 20
209.844022
 30
0.0
 10
47.768823
 20
209.844022
 30
0.0
 10
47.131111
 20
208.783894
 30
0.0
 10
47.131111
 20
207.242286
 30
0.0
  0
SPLINE
  5
12f
100
AcDbEntity
  8
0
 62
7
100
AcDbSpline
 70
8
 71
3
 72
8
 73
4
 74
0
 40
0
 40
0
 40
0
 40
0
 40
1
 40
1
 40
1
 40
1
 10
47.131111
 20
207.242286
 30
0.0
 10
47.131111
 20
205.876765
 30
0.0
 10
46.067401
 20
202.783090
 30
0.0
 10
45.349583
 20
202.065272
 30
0.0
  0
SPLINE
  5
130
100
AcDbEntity
  8
0
 62
7
100
AcDbSpline
 70
8
 71
3
 72
8
 73
4
 74
0
 40
0
 40
0
 40
0
 40
0
 40
1
 40
1
 40
1
 40
1
 10
45.349583
 20
202.065272
 30
0.0
 10
44.282185
 20
200.997871
 30
0.0
 10
43.757763
 20
201.221018
 30
0.0
 10
41.945278
 20
203.494022
 30
0.0
  0
SPLINE
  5
131
100
AcDbEntity
  8
0
 62
7
100
AcDbSpline
 70
8
 71
3
 72
8
 73
4
 74
0
 40
0
 40
0
 40
0
 40
0
 40
1
 40
1
 40
1
 40
1
 10
41.945278
 20
203.494022
 30
0.0
 10
40.918265
 20
204.781983
 30
0.0
 10
39.976295
 20
205.611013
 30
0.0
 10
39.546389
 20
205.619508
 30
0.0
  0
SPLINE
  5
132
100
AcDbEntity
  8
0
 62
7
100
AcDbSpline
 70
8
 71
3
 72
8
 73
4
 74
0
 40
0
 40
0
 40
0
 40
0
 40
1
 40
1
 40
1
 40
1
 10
39.546389
 20
205.619508
 30
0.0
 10
39.158333
 20
205.627184
 30
0.0
 10
37.929363
 20
206.087274
 30
0.0
 10
36.812361
 20
206.642564
 30
0.0
  0
SPLINE
  5
133
100
AcDbEntity
  8
0
 62
7
100
AcDbSpline
 70
8
 71
3
 72
8
 73
4
 74
0
 40
0
 40
0
 40
0
 40
0
 40
1
 40
1
 40
1
 40
1
 10
36.812361
 20
206.642564
 30
0.0
 10
35.695357
 20
207.197853
 30
0.0
 10
34.710714
 20
207.539500
 30
0.0
 10
34.625139
 20
207.401036
 30
0.0
  0
SPLINE
  5
134
100
AcDbEntity
  8
0
 62
7
100
AcDbSpline
 70
8
 71
3
 72
8
 73
4
 74
0
 40
0
 40
0
 40
0
 40
0
 40
1
 40
1
 40
1
 40
1
 10
34.625139
 20
207.401036
 30
0.0
 10
34.457595
 20
207.129944
 30
0.0
 10
36.902207
 20
203.418934
 30
0.0
 10
38.011806
 20
202.259300
 30
0.0
  0
SPLINE
  5
135
100
AcDbEntity
  8
0
 62
7
100
AcDbSpline
 70
8
 71
3
 72
8
 73
4
 74
0
 40
0
 40
0
 40
0
 40
0
 40
1
 40
1
 40
1
 40
1
 10
38.011806
 20
202.259300
 30
0.0
 10
38.383123
 20
201.871244
 30
0.0
 10
39.101694
 20
201.085357
 30
0.0
 10
39.608125
 20
200.513050
 30
0.0
  0
SPLINE
  5
136
100
AcDbEntity
  8
0
 62
7
100
AcDbSpline
 70
8
 71
3
 72
8
 73
4
 74
0
 40
0
 40
0
 40
0
 40
0
 40
1
 40
1
 40
1
 40
1
 10
39.608125
 20
200.513050
 30
0.0
 10
41.707587
 20
198.140481
 30
0.0
 10
46.146675
 20
197.062973
 30
0.0
 10
47.810208
 20
198.519855
 30
0.0
  0
SPLINE
  5
137
100
AcDbEntity
  8
0
 62
7
100
AcDbSpline
 70
8
 71
3
 72
8
 73
4
 74
0
 40
0
 40
0
 40
0
 40
0
 40
1
 40
1
 40
1
 40
1
 10
47.810208
 20
198.519855
 30
0.0
 10
48.276462
 20
198.928188
 30
0.0
 10
48.751566
 20
199.260689
 30
0.0
 10
48.868542
 20
199.260689
 30
0.0
  0
SPLINE
  5
138
100
AcDbEntity
  8
0
 62
7
100
AcDbSpline
 70
8
 71
3
 72
8
 73
4
 74
0
 40
0
 40
0
 40
0
 40
0
 40
1
 40
1
 40
1
 40
1
 10
48.868542
 20
199.260689
 30
0.0
 10
49.201169
 20
199.260689
 30
0.0
 10
49.892534
 20
201.021679
 30
0.0
 10
50.359028
 20
203.053050
 30
0.0
  0
SPLINE
  5
139
100
AcDbEntity
  8
0
 62
7
100
AcDbSpline
 70
8
 71
3
 72
8
 73
4
 74
0
 40
0
 40
0
 40
0
 40
0
 40
1
 40
1
 40
1
 40
1
 10
50.359028
 20
203.053050
 30
0.0
 10
50.592956
 20
204.071697
 30
0.0
 10
50.912697
 20
204.905133
 30
0.0
 10
51.073403
 20
204.905133
 30
0.0
  0
SPLINE
  5
13a
100
AcDbEntity
  8
0
 62
7
100
AcDbSpline
 70
8
 71
3
 72
8
 73
4
 74
0
 40
0
 40
0
 40
0
 40
0
 40
1
 40
1
 40
1
 40
1
 10
51.073403
 20
204.905133
 30
0.0
 10
51.234106
 20
204.905133
 30
0.0
 10
51.364444
 20
204.758981
 30
0.0
 10
51.364444
 20
204.578814
 30
0.0
  0
SPLINE
  5
13b
100
AcDbEntity
  8
0
 62
7
100
AcDbSpline
 70
8
 71
3
 72
8
 73
4
 74
0
 40
0
 40
0
 40
0
 40
0
 40
1
 40
1
 40
1
 40
1
 10
51.364444
 20
204.578814
 30
0.0
 10
51.364444
 20
204.398643
 30
0.0
 10
51.574660
 20
204.041454
 30
0.0
 10
51.823056
 20
203.785064
 30
0.0
  0
SPLINE
  5
13c
100
AcDbEntity
  8
0
 62
7
100
AcDbSpline
 70
8
 71
3
 72
8
 73
4
 74
0
 40
0
 40
0
 40
0
 40
0
 40
1
 40
1
 40
1
 40
1
 10
51.823056
 20
203.785064
 30
0.0
 10
52.586580
 20
202.996935
 30
0.0
 10
55.603408
 20
196.358284
 30
0.0
 10
55.606597
 20
195.459508
 30
0.0
  0
SPLINE
  5
13d
100
AcDbEntity
  8
0
 62
7
100
AcDbSpline
 70
8
 71
3
 72
8
 73
4
 74
0
 40
0
 40
0
 40
0
 40
0
 40
1
 40
1
 40
1
 40
1
 10
55.606597
 20
195.459508
 30
0.0
 10
55.607794
 20
195.125151
 30
0.0
 10
55.858227
 20
194.374716
 30
0.0
 10
56.162222
 20
193.792633
 30
0.0
  0
SPLINE
  5
13e
100
AcDbEntity
  8
0
 62
7
100
AcDbSpline
 70
8
 71
3
 72
8
 73
4
 74
0
 40
0
 40
0
 40
0
 40
0
 40
1
 40
1
 40
1
 40
1
 10
56.162222
 20
193.792633
 30
0.0
 10
56.480160
 20
193.183854
 30
0.0
 10
56.626190
 20
192.322210
 30
0.0
 10
56.515000
 20
191.764161
 30
0.0
  0
SPLINE
  5
13f
100
AcDbEntity
  8
0
 62
7
100
AcDbSpline
 70
8
 71
3
 72
8
 73
4
 74
0
 40
0
 40
0
 40
0
 40
0
 40
1
 40
1
 40
1
 40
1
 10
56.515000
 20
191.764161
 30
0.0
 10
56.374089
 20
191.056943
 30
0.0
 10
56.461990
 20
190.794022
 30
0.0
 10
56.841319
 20
190.794022
 30
0.0
  0
SPLINE
  5
140
100
AcDbEntity
  8
0
 62
7
100
AcDbSpline
 70
8
 71
3
 72
8
 73
4
 74
0
 40
0
 40
0
 40
0
 40
0
 40
1
 40
1
 40
1
 40
1
 10
56.841319
 20
190.794022
 30
0.0
 10
57.127510
 20
190.794022
 30
0.0
 10
57.361667
 20
190.508272
 30
0.0
 10
57.361667
 20
190.159022
 30
0.0
  0
SPLINE
  5
141
100
AcDbEntity
  8
0
 62
7
100
AcDbSpline
 70
8
 71
3
 72
8
 73
4
 74
0
 40
0
 40
0
 40
0
 40
0
 40
1
 40
1
 40
1
 40
1
 10
57.361667
 20
190.159022
 30
0.0
 10
57.361667
 20
189.809772
 30
0.0
 10
57.514450
 20
189.373211
 30
0.0
 10
57.696806
 20
189.188883
 30
0.0
  0
SPLINE
  5
142
100
AcDbEntity
  8
0
 62
7
100
AcDbSpline
 70
8
 71
3
 72
8
 73
4
 74
0
 40
0
 40
0
 40
0
 40
0
 40
1
 40
1
 40
1
 40
1
 10
57.696806
 20
189.188883
 30
0.0
 10
58.003127
 20
188.879251
 30
0.0
 10
59.225998
 20
183.715443
 30
0.0
 10
59.037361
 20
183.526800
 30
0.0
  0
SPLINE
  5
143
100
AcDbEntity
  8
0
 62
7
100
AcDbSpline
 70
8
 71
3
 72
8
 73
4
 74
0
 40
0
 40
0
 40
0
 40
0
 40
1
 40
1
 40
1
 40
1
 10
59.037361
 20
183.526800
 30
0.0
 10
58.991288
 20
183.480733
 30
0.0
 10
58.250427
 20
183.914979
 30
0.0
 10
57.396944
 20
184.496939
 30
0.0
  0
SPLINE
  5
144
100
AcDbEntity
  8
0
 62
7
100
AcDbSpline
 70
8
 71
3
 72
8
 73
4
 74
0
 40
0
 40
0
 40
0
 40
0
 40
1
 40
1
 40
1
 40
1
 10
57.396944
 20
184.496939
 30
0.0
 10
56.543462
 20
185.078895
 30
0.0
 10
54.809596
 20
185.878388
 30
0.0
 10
53.542847
 20
186.269647
 30
0.0
  0
SPLINE
  5
145
100
AcDbEntity
  8
0
 62
7
100
AcDbSpline
 70
8
 71
3
 72
8
 73
4
 74
0
 40
0
 40
0
 40
0
 40
0
 40
1
 40
1
 40
1
 40
1
 10
53.542847
 20
186.269647
 30
0.0
 10
51.145460
 20
187.010122
 30
0.0
 10
50.562171
 20
187.016684
 30
0.0
 10
41.971736
 20
186.357841
 30
0.0
  0
SPLINE
  5
146
100
AcDbEntity
  8
0
 62
7
100
AcDbSpline
 70
8
 71
3
 72
8
 73
4
 74
0
 40
0
 40
0
 40
0
 40
0
 40
1
 40
1
 40
1
 40
1
 10
41.971736
 20
186.357841
 30
0.0
 10
38.528492
 20
186.093763
 30
0.0
 10
35.381963
 20
186.656723
 30
0.0
 10
32.596667
 20
188.033536
 30
0.0
  0
SPLINE
  5
147
100
AcDbEntity
  8
0
 62
7
100
AcDbSpline
 70
8
 71
3
 72
8
 73
4
 74
0
 40
0
 40
0
 40
0
 40
0
 40
1
 40
1
 40
1
 40
1
 10
32.596667
 20
188.033536
 30
0.0
 10
31.876791
 20
188.389379
 30
0.0
 10
31.116849
 20
188.677355
 30
0.0
 10
30.912153
 20
188.677355
 30
0.0
  0
SPLINE
  5
148
100
AcDbEntity
  8
0
 62
7
100
AcDbSpline
 70
8
 71
3
 72
8
 73
4
 74
0
 40
0
 40
0
 40
0
 40
0
 40
1
 40
1
 40
1
 40
1
 10
30.912153
 20
188.677355
 30
0.0
 10
30.707457
 20
188.677355
 30
0.0
 10
29.660441
 20
189.193294
 30
0.0
 10
28.583819
 20
189.823883
 30
0.0
  0
SPLINE
  5
149
100
AcDbEntity
  8
0
 62
7
100
AcDbSpline
 70
8
 71
3
 72
8
 73
4
 74
0
 40
0
 40
0
 40
0
 40
0
 40
1
 40
1
 40
1
 40
1
 10
28.583819
 20
189.823883
 30
0.0
 10
27.507200
 20
190.454475
 30
0.0
 10
26.325861
 20
191.140427
 30
0.0
 10
25.955625
 20
191.349647
 30
0.0
  0
SPLINE
  5
14a
100
AcDbEntity
  8
0
 62
7
100
AcDbSpline
 70
8
 71
3
 72
8
 73
4
 74
0
 40
0
 40
0
 40
0
 40
0
 40
1
 40
1
 40
1
 40
1
 10
25.955625
 20
191.349647
 30
0.0
 10
24.116685
 20
192.388831
 30
0.0
 10
21.234733
 20
195.041904
 30
0.0
 10
20.231806
 20
196.614855
 30
0.0
  0
SPLINE
  5
14b
100
AcDbEntity
  8
0
 62
7
100
AcDbSpline
 70
8
 71
3
 72
8
 73
4
 74
0
 40
0
 40
0
 40
0
 40
0
 40
1
 40
1
 40
1
 40
1
 10
20.231806
 20
196.614855
 30
0.0
 10
19.613237
 20
197.584994
 30
0.0
 10
18.899725
 20
198.589779
 30
0.0
 10
18.653125
 20
198.846175
 30
0.0
  0
SPLINE
  5
14c
100
AcDbEntity
  8
0
 62
7
100
AcDbSpline
 70
8
 71
3
 72
8
 73
4
 74
0
 40
0
 40
0
 40
0
 40
0
 40
1
 40
1
 40
1
 40
1
 10
18.653125
 20
198.846175
 30
0.0
 10
18.406522
 20
199.102565
 30
0.0
 10
18.203333
 20
199.459754
 30
0.0
 10
18.203333
 20
199.639925
 30
0.0
  0
SPLINE
  5
14d
100
AcDbEntity
  8
0
 62
7
100
AcDbSpline
 70
8
 71
3
 72
8
 73
4
 74
0
 40
0
 40
0
 40
0
 40
0
 40
1
 40
1
 40
1
 40
1
 10
18.203333
 20
199.639925
 30
0.0
 10
18.203333
 20
199.820093
 30
0.0
 10
17.965208
 20
199.966244
 30
0.0
 10
17.674167
 20
199.966244
 30
0.0
  0
SPLINE
  5
14e
100
AcDbEntity
  8
0
 62
7
100
AcDbSpline
 70
8
 71
3
 72
8
 73
4
 74
0
 40
0
 40
0
 40
0
 40
0
 40
1
 40
1
 40
1
 40
1
 10
17.674167
 20
199.966244
 30
0.0
 10
16.997099
 20
199.966244
 30
0.0
 10
16.976259
 20
200.149494
 30
0.0
 10
18.203333
 20
196.456105
 30
0.0
  0
SPLINE
  5
14f
100
AcDbEntity
  8
0
 62
7
100
AcDbSpline
 70
8
 71
3
 72
8
 73
4
 74
0
 40
0
 40
0
 40
0
 40
0
 40
1
 40
1
 40
1
 40
1
 10
18.203333
 20
196.456105
 30
0.0
 10
20.134964
 20
190.642045
 30
0.0
 10
22.432789
 20
186.570101
 30
0.0
 10
23.794861
 20
186.551869
 30
0.0
  0
SPLINE
  5
150
100
AcDbEntity
  8
0
 62
7
100
AcDbSpline
 70
8
 71
3
 72
8
 73
4
 74
0
 40
0
 40
0
 40
0
 40
0
 40
1
 40
1
 40
1
 40
1
 10
23.794861
 20
186.551869
 30
0.0
 10
24.117162
 20
186.547554
 30
0.0
 10
24.773819
 20
186.234561
 30
0.0
 10
25.258889
 20
185.855133
 30
0.0
  0
SPLINE
  5
151
100
AcDbEntity
  8
0
 62
7
100
AcDbSpline
 70
8
 71
3
 72
8
 73
4
 74
0
 40
0
 40
0
 40
0
 40
0
 40
1
 40
1
 40
1
 40
1
 10
25.258889
 20
185.855133
 30
0.0
 10
25.743958
 20
185.475708
 30
0.0
 10
26.335643
 20
185.162715
 30
0.0
 10
26.572986
 20
185.158397
 30
0.0
  0
SPLINE
  5
152
100
AcDbEntity
  8
0
 62
7
100
AcDbSpline
 70
8
 71
3
 72
8
 73
4
 74
0
 40
0
 40
0
 40
0
 40
0
 40
1
 40
1
 40
1
 40
1
 10
26.572986
 20
185.158397
 30
0.0
 10
26.810329
 20
185.154082
 30
0.0
 10
27.683454
 20
184.842915
 30
0.0
 10
28.513264
 20
184.470480
 30
0.0
  0
SPLINE
  5
153
100
AcDbEntity
  8
0
 62
7
100
AcDbSpline
 70
8
 71
3
 72
8
 73
4
 74
0
 40
0
 40
0
 40
0
 40
0
 40
1
 40
1
 40
1
 40
1
 10
28.513264
 20
184.470480
 30
0.0
 10
31.988791
 20
182.910599
 30
0.0
 10
35.121243
 20
182.326226
 30
0.0
 10
39.952083
 20
182.327355
 30
0.0
  0
SPLINE
  5
154
100
AcDbEntity
  8
0
 62
7
100
AcDbSpline
 70
8
 71
3
 72
8
 73
4
 74
0
 40
0
 40
0
 40
0
 40
0
 40
1
 40
1
 40
1
 40
1
 10
39.952083
 20
182.327355
 30
0.0
 10
42.508819
 20
182.327973
 30
0.0
 10
45.752865
 20
182.553003
 30
0.0
 10
47.184028
 20
182.830064
 30
0.0
  0
SPLINE
  5
155
100
AcDbEntity
  8
0
 62
7
100
AcDbSpline
 70
8
 71
3
 72
8
 73
4
 74
0
 40
0
 40
0
 40
0
 40
0
 40
1
 40
1
 40
1
 40
1
 10
47.184028
 20
182.830064
 30
0.0
 10
50.903931
 20
183.550216
 30
0.0
 10
52.422778
 20
183.728741
 30
0.0
 10
52.422778
 20
183.447425
 30
0.0
  0
SPLINE
  5
156
100
AcDbEntity
  8
0
 62
7
100
AcDbSpline
 70
8
 71
3
 72
8
 73
4
 74
0
 40
0
 40
0
 40
0
 40
0
 40
1
 40
1
 40
1
 40
1
 10
52.422778
 20
183.447425
 30
0.0
 10
52.422778
 20
183.312119
 30
0.0
 10
52.019502
 20
182.765587
 30
0.0
 10
51.523194
 20
182.230341
 30
0.0
  0
SPLINE
  5
157
100
AcDbEntity
  8
0
 62
7
100
AcDbSpline
 70
8
 71
3
 72
8
 73
4
 74
0
 40
0
 40
0
 40
0
 40
0
 40
1
 40
1
 40
1
 40
1
 10
51.523194
 20
182.230341
 30
0.0
 10
50.676641
 20
181.317375
 30
0.0
 10
50.649361
 20
181.179840
 30
0.0
 10
51.082222
 20
179.981383
 30
0.0
  0
SPLINE
  5
158
100
AcDbEntity
  8
0
 62
7
100
AcDbSpline
 70
8
 71
3
 72
8
 73
4
 74
0
 40
0
 40
0
 40
0
 40
0
 40
1
 40
1
 40
1
 40
1
 10
51.082222
 20
179.981383
 30
0.0
 10
51.626000
 20
178.475829
 30
0.0
 10
52.807455
 20
177.591864
 30
0.0
 10
53.922083
 20
177.855897
 30
0.0
  0
SPLINE
  5
159
100
AcDbEntity
  8
0
 62
7
100
AcDbSpline
 70
8
 71
3
 72
8
 73
4
 74
0
 40
0
 40
0
 40
0
 40
0
 40
1
 40
1
 40
1
 40
1
 10
53.922083
 20
177.855897
 30
0.0
 10
54.360058
 20
177.959645
 30
0.0
 10
55.672205
 20
177.933847
 30
0.0
 10
56.832500
 20
177.802980
 30
0.0
  0
SPLINE
  5
15a
100
AcDbEntity
  8
0
 62
7
100
AcDbSpline
 70
8
 71
3
 72
8
 73
4
 74
0
 40
0
 40
0
 40
0
 40
0
 40
1
 40
1
 40
1
 40
1
 10
58.137778
 20
176.815202
 30
0.0
 10
57.675503
 20
176.385197
 30
0.0
 10
56.621220
 20
175.971541
 30
0.0
 10
55.668333
 20
175.845064
 30
0.0
  0
SPLINE
  5
15b
100
AcDbEntity
  8
0
 62
7
100
AcDbSpline
 70
8
 71
3
 72
8
 73
4
 74
0
 40
0
 40
0
 40
0
 40
0
 40
1
 40
1
 40
1
 40
1
 10
55.668333
 20
175.845064
 30
0.0
 10
53.859636
 20
175.604994
 30
0.0
 10
50.311877
 20
174.873519
 30
0.0
 10
45.887569
 20
173.825411
 30
0.0
  0
SPLINE
  5
15c
100
AcDbEntity
  8
0
 62
7
100
AcDbSpline
 70
8
 71
3
 72
8
 73
4
 74
0
 40
0
 40
0
 40
0
 40
0
 40
1
 40
1
 40
1
 40
1
 10
45.887569
 20
173.825411
 30
0.0
 10
44.329062
 20
173.456205
 30
0.0
 10
42.556901
 20
173.155133
 30
0.0
 10
41.945278
 20
173.155133
 30
0.0
  0
SPLINE
  5
15d
100
AcDbEntity
  8
0
 62
7
100
AcDbSpline
 70
8
 71
3
 72
8
 73
4
 74
0
 40
0
 40
0
 40
0
 40
0
 40
1
 40
1
 40
1
 40
1
 10
41.945278
 20
173.155133
 30
0.0
 10
41.333660
 20
173.155133
 30
0.0
 10
39.669316
 20
172.915752
 30
0.0
 10
38.249931
 20
172.617147
 30
0.0
  0
SPLINE
  5
15e
100
AcDbEntity
  8
0
 62
7
100
AcDbSpline
 70
8
 71
3
 72
8
 73
4
 74
0
 40
0
 40
0
 40
0
 40
0
 40
1
 40
1
 40
1
 40
1
 10
38.249931
 20
172.617147
 30
0.0
 10
35.865568
 20
172.115534
 30
0.0
 10
35.564036
 20
172.111515
 30
0.0
 10
34.325278
 20
172.670064
 30
0.0
  0
SPLINE
  5
15f
100
AcDbEntity
  8
0
 62
7
100
AcDbSpline
 70
8
 71
3
 72
8
 73
4
 74
0
 40
0
 40
0
 40
0
 40
0
 40
1
 40
1
 40
1
 40
1
 10
34.325278
 20
172.670064
 30
0.0
 10
33.025024
 20
173.256341
 30
0.0
 10
32.937952
 20
173.255071
 30
0.0
 10
31.370764
 20
172.493675
 30
0.0
  0
LWPOLYLINE
  5
160
100
AcDbEntity
  8
0
 62
7
100
AcDbPolyline
 90
3
 70
0
 10
56.832500
 20
177.802980
 30
0.0
 10
58.940347
 20
177.564855
 30
0.0
 10
58.137778
 20
176.815202
 30
0.0
  0
SPLINE
  5
161
100
AcDbEntity
  8
0
 62
7
100
AcDbSpline
 70
8
 71
3
 72
8
 73
4
 74
0
 40
0
 40
0
 40
0
 40
0
 40
1
 40
1
 40
1
 40
1
 10
28.989514
 20
172.431939
 30
0.0
 10
28.565946
 20
172.829861
 30
0.0
 10
27.766399
 20
173.155133
 30
0.0
 10
27.216806
 20
173.155133
 30
0.0
  0
SPLINE
  5
162
100
AcDbEntity
  8
0
 62
7
100
AcDbSpline
 70
8
 71
3
 72
8
 73
4
 74
0
 40
0
 40
0
 40
0
 40
0
 40
1
 40
1
 40
1
 40
1
 10
27.216806
 20
173.155133
 30
0.0
 10
26.044948
 20
173.155133
 30
0.0
 10
23.694328
 20
171.358602
 30
0.0
 10
22.419028
 20
169.486244
 30
0.0
  0
SPLINE
  5
163
100
AcDbEntity
  8
0
 62
7
100
AcDbSpline
 70
8
 71
3
 72
8
 73
4
 74
0
 40
0
 40
0
 40
0
 40
0
 40
1
 40
1
 40
1
 40
1
 10
22.419028
 20
169.486244
 30
0.0
 10
21.945730
 20
168.791359
 30
0.0
 10
21.297313
 20
168.217655
 30
0.0
 10
20.981458
 20
168.216244
 30
0.0
  0
SPLINE
  5
164
100
AcDbEntity
  8
0
 62
7
100
AcDbSpline
 70
8
 71
3
 72
8
 73
4
 74
0
 40
0
 40
0
 40
0
 40
0
 40
1
 40
1
 40
1
 40
1
 10
20.981458
 20
168.216244
 30
0.0
 10
19.885417
 20
168.211644
 30
0.0
 10
17.706752
 20
169.352730
 30
0.0
 10
15.337014
 20
171.161939
 30
0.0
  0
SPLINE
  5
165
100
AcDbEntity
  8
0
 62
7
100
AcDbSpline
 70
8
 71
3
 72
8
 73
4
 74
0
 40
0
 40
0
 40
0
 40
0
 40
1
 40
1
 40
1
 40
1
 10
15.337014
 20
171.161939
 30
0.0
 10
14.026727
 20
172.162298
 30
0.0
 10
12.226530
 20
173.515178
 30
0.0
 10
11.341806
 20
174.169369
 30
0.0
  0
SPLINE
  5
166
100
AcDbEntity
  8
0
 62
7
100
AcDbSpline
 70
8
 71
3
 72
8
 73
4
 74
0
 40
0
 40
0
 40
0
 40
0
 40
1
 40
1
 40
1
 40
1
 10
11.341806
 20
174.169369
 30
0.0
 10
10.457084
 20
174.823563
 30
0.0
 10
8.926065
 20
176.128121
 30
0.0
 10
7.937500
 20
177.070966
 30
0.0
  0
SPLINE
  5
167
100
AcDbEntity
  8
0
 62
7
100
AcDbSpline
 70
8
 71
3
 72
8
 73
4
 74
0
 40
0
 40
0
 40
0
 40
0
 40
1
 40
1
 40
1
 40
1
 10
7.937500
 20
177.070966
 30
0.0
 10
6.442501
 20
178.496826
 30
0.0
 10
6.025190
 20
178.727329
 30
0.0
 10
5.468056
 20
178.429161
 30
0.0
  0
SPLINE
  5
168
100
AcDbEntity
  8
0
 62
7
100
AcDbSpline
 70
8
 71
3
 72
8
 73
4
 74
0
 40
0
 40
0
 40
0
 40
0
 40
1
 40
1
 40
1
 40
1
 10
5.468056
 20
178.429161
 30
0.0
 10
4.940478
 20
178.146809
 30
0.0
 10
4.797778
 20
177.676934
 30
0.0
 10
4.797778
 20
176.215480
 30
0.0
  0
SPLINE
  5
169
100
AcDbEntity
  8
0
 62
7
100
AcDbSpline
 70
8
 71
3
 72
8
 73
4
 74
0
 40
0
 40
0
 40
0
 40
0
 40
1
 40
1
 40
1
 40
1
 10
4.797778
 20
176.215480
 30
0.0
 10
4.797778
 20
174.474082
 30
0.0
 10
4.909673
 20
174.248905
 30
0.0
 10
6.508750
 20
172.608327
 30
0.0
  0
SPLINE
  5
16a
100
AcDbEntity
  8
0
 62
7
100
AcDbSpline
 70
8
 71
3
 72
8
 73
4
 74
0
 40
0
 40
0
 40
0
 40
0
 40
1
 40
1
 40
1
 40
1
 10
6.508750
 20
172.608327
 30
0.0
 10
8.394438
 20
170.673700
 30
0.0
 10
8.444890
 20
170.634866
 30
0.0
 10
11.041944
 20
168.983536
 30
0.0
  0
SPLINE
  5
16b
100
AcDbEntity
  8
0
 62
7
100
AcDbSpline
 70
8
 71
3
 72
8
 73
4
 74
0
 40
0
 40
0
 40
0
 40
0
 40
1
 40
1
 40
1
 40
1
 10
11.041944
 20
168.983536
 30
0.0
 10
12.376712
 20
168.134826
 30
0.0
 10
12.935509
 20
167.535894
 30
0.0
 10
13.105694
 20
166.761036
 30
0.0
  0
SPLINE
  5
16c
100
AcDbEntity
  8
0
 62
7
100
AcDbSpline
 70
8
 71
3
 72
8
 73
4
 74
0
 40
0
 40
0
 40
0
 40
0
 40
1
 40
1
 40
1
 40
1
 10
13.105694
 20
166.761036
 30
0.0
 10
13.233936
 20
166.177107
 30
0.0
 10
13.278499
 20
165.654109
 30
0.0
 10
13.211528
 20
165.605689
 30
0.0
  0
SPLINE
  5
16d
100
AcDbEntity
  8
0
 62
7
100
AcDbSpline
 70
8
 71
3
 72
8
 73
4
 74
0
 40
0
 40
0
 40
0
 40
0
 40
1
 40
1
 40
1
 40
1
 10
13.211528
 20
165.605689
 30
0.0
 10
13.144556
 20
165.557273
 30
0.0
 10
11.016434
 20
165.244938
 30
0.0
 10
8.484306
 20
164.908952
 30
0.0
  0
SPLINE
  5
16e
100
AcDbEntity
  8
0
 62
7
100
AcDbSpline
 70
8
 71
3
 72
8
 73
4
 74
0
 40
0
 40
0
 40
0
 40
0
 40
1
 40
1
 40
1
 40
1
 10
8.484306
 20
164.908952
 30
0.0
 10
-0.025299
 20
163.779824
 30
0.0
 10
-1.201499
 20
163.169984
 30
0.0
 10
0.908403
 20
160.993119
 30
0.0
  0
SPLINE
  5
16f
100
AcDbEntity
  8
0
 62
7
100
AcDbSpline
 70
8
 71
3
 72
8
 73
4
 74
0
 40
0
 40
0
 40
0
 40
0
 40
1
 40
1
 40
1
 40
1
 10
0.908403
 20
160.993119
 30
0.0
 10
1.943041
 20
159.925647
 30
0.0
 10
2.344897
 20
159.747884
 30
0.0
 10
3.721806
 20
159.749577
 30
0.0
  0
SPLINE
  5
170
100
AcDbEntity
  8
0
 62
7
100
AcDbSpline
 70
8
 71
3
 72
8
 73
4
 74
0
 40
0
 40
0
 40
0
 40
0
 40
1
 40
1
 40
1
 40
1
 10
3.721806
 20
159.749577
 30
0.0
 10
4.605376
 20
159.750774
 30
0.0
 10
5.803194
 20
160.012324
 30
0.0
 10
6.385278
 20
160.322841
 30
0.0
  0
SPLINE
  5
171
100
AcDbEntity
  8
0
 62
7
100
AcDbSpline
 70
8
 71
3
 72
8
 73
4
 74
0
 40
0
 40
0
 40
0
 40
0
 40
1
 40
1
 40
1
 40
1
 10
6.385278
 20
160.322841
 30
0.0
 10
7.657764
 20
161.001668
 30
0.0
 10
11.853333
 20
161.433609
 30
0.0
 10
11.853333
 20
160.887286
 30
0.0
  0
SPLINE
  5
172
100
AcDbEntity
  8
0
 62
7
100
AcDbSpline
 70
8
 71
3
 72
8
 73
4
 74
0
 40
0
 40
0
 40
0
 40
0
 40
1
 40
1
 40
1
 40
1
 10
11.853333
 20
160.887286
 30
0.0
 10
11.853333
 20
160.684117
 30
0.0
 10
11.218333
 20
159.717192
 30
0.0
 10
10.442222
 20
158.735341
 30
0.0
  0
SPLINE
  5
173
100
AcDbEntity
  8
0
 62
7
100
AcDbSpline
 70
8
 71
3
 72
8
 73
4
 74
0
 40
0
 40
0
 40
0
 40
0
 40
1
 40
1
 40
1
 40
1
 10
10.442222
 20
158.735341
 30
0.0
 10
9.631567
 20
157.709783
 30
0.0
 10
9.031111
 20
156.562196
 30
0.0
 10
9.031111
 20
156.045411
 30
0.0
  0
SPLINE
  5
174
100
AcDbEntity
  8
0
 62
7
100
AcDbSpline
 70
8
 71
3
 72
8
 73
4
 74
0
 40
0
 40
0
 40
0
 40
0
 40
1
 40
1
 40
1
 40
1
 10
9.031111
 20
156.045411
 30
0.0
 10
9.031111
 20
155.550641
 30
0.0
 10
8.370511
 20
153.781873
 30
0.0
 10
7.558264
 20
152.111939
 30
0.0
  0
SPLINE
  5
175
100
AcDbEntity
  8
0
 62
7
100
AcDbSpline
 70
8
 71
3
 72
8
 73
4
 74
0
 40
0
 40
0
 40
0
 40
0
 40
1
 40
1
 40
1
 40
1
 10
7.558264
 20
152.111939
 30
0.0
 10
6.141508
 20
149.199154
 30
0.0
 10
6.111514
 20
149.057569
 30
0.0
 10
6.746875
 20
148.592980
 30
0.0
  0
SPLINE
  5
176
100
AcDbEntity
  8
0
 62
7
100
AcDbSpline
 70
8
 71
3
 72
8
 73
4
 74
0
 40
0
 40
0
 40
0
 40
0
 40
1
 40
1
 40
1
 40
1
 10
6.746875
 20
148.592980
 30
0.0
 10
8.487577
 20
147.320147
 30
0.0
 10
10.563747
 20
148.758368
 30
0.0
 10
11.888611
 20
152.156036
 30
0.0
  0
SPLINE
  5
177
100
AcDbEntity
  8
0
 62
7
100
AcDbSpline
 70
8
 71
3
 72
8
 73
4
 74
0
 40
0
 40
0
 40
0
 40
0
 40
1
 40
1
 40
1
 40
1
 10
11.888611
 20
152.156036
 30
0.0
 10
12.624658
 20
154.043651
 30
0.0
 10
12.737739
 20
154.173623
 30
0.0
 10
12.955764
 20
153.390758
 30
0.0
  0
SPLINE
  5
178
100
AcDbEntity
  8
0
 62
7
100
AcDbSpline
 70
8
 71
3
 72
8
 73
4
 74
0
 40
0
 40
0
 40
0
 40
0
 40
1
 40
1
 40
1
 40
1
 10
12.955764
 20
153.390758
 30
0.0
 10
13.089786
 20
152.909527
 30
0.0
 10
13.209834
 20
151.328842
 30
0.0
 10
13.229167
 20
149.871800
 30
0.0
  0
SPLINE
  5
179
100
AcDbEntity
  8
0
 62
7
100
AcDbSpline
 70
8
 71
3
 72
8
 73
4
 74
0
 40
0
 40
0
 40
0
 40
0
 40
1
 40
1
 40
1
 40
1
 10
13.229167
 20
149.871800
 30
0.0
 10
13.259209
 20
147.608468
 30
0.0
 10
13.372143
 20
147.151739
 30
0.0
 10
13.987639
 20
146.767355
 30
0.0
  0
SPLINE
  5
17a
100
AcDbEntity
  8
0
 62
7
100
AcDbSpline
 70
8
 71
3
 72
8
 73
4
 74
0
 40
0
 40
0
 40
0
 40
0
 40
1
 40
1
 40
1
 40
1
 10
13.987639
 20
146.767355
 30
0.0
 10
14.622221
 20
146.371053
 30
0.0
 10
14.839950
 20
146.446680
 30
0.0
 10
15.786806
 20
147.393536
 30
0.0
  0
SPLINE
  5
17b
100
AcDbEntity
  8
0
 62
7
100
AcDbSpline
 70
8
 71
3
 72
8
 73
4
 74
0
 40
0
 40
0
 40
0
 40
0
 40
1
 40
1
 40
1
 40
1
 10
15.786806
 20
147.393536
 30
0.0
 10
16.791709
 20
148.398583
 30
0.0
 10
16.858228
 20
148.628382
 30
0.0
 10
16.792222
 20
150.850758
 30
0.0
  0
SPLINE
  5
17c
100
AcDbEntity
  8
0
 62
7
100
AcDbSpline
 70
8
 71
3
 72
8
 73
4
 74
0
 40
0
 40
0
 40
0
 40
0
 40
1
 40
1
 40
1
 40
1
 10
16.792222
 20
150.850758
 30
0.0
 10
16.698880
 20
153.993667
 30
0.0
 10
16.717160
 20
154.105133
 30
0.0
 10
17.303750
 20
154.105133
 30
0.0
  0
SPLINE
  5
17d
100
AcDbEntity
  8
0
 62
7
100
AcDbSpline
 70
8
 71
3
 72
8
 73
4
 74
0
 40
0
 40
0
 40
0
 40
0
 40
1
 40
1
 40
1
 40
1
 10
17.303750
 20
154.105133
 30
0.0
 10
17.852892
 20
154.105133
 30
0.0
 10
17.896501
 20
153.753611
 30
0.0
 10
18.547292
 20
145.462077
 30
0.0
  0
SPLINE
  5
17e
100
AcDbEntity
  8
0
 62
7
100
AcDbSpline
 70
8
 71
3
 72
8
 73
4
 74
0
 40
0
 40
0
 40
0
 40
0
 40
1
 40
1
 40
1
 40
1
 10
18.547292
 20
145.462077
 30
0.0
 10
18.925018
 20
140.649551
 30
0.0
 10
19.814989
 20
135.798337
 30
0.0
 10
20.910903
 20
132.585689
 30
0.0
  0
SPLINE
  5
17f
100
AcDbEntity
  8
0
 62
7
100
AcDbSpline
 70
8
 71
3
 72
8
 73
4
 74
0
 40
0
 40
0
 40
0
 40
0
 40
1
 40
1
 40
1
 40
1
 10
20.910903
 20
132.585689
 30
0.0
 10
21.208746
 20
131.712564
 30
0.0
 10
21.574308
 20
130.503586
 30
0.0
 10
21.722292
 20
129.895758
 30
0.0
  0
SPLINE
  5
180
100
AcDbEntity
  8
0
 62
7
100
AcDbSpline
 70
8
 71
3
 72
8
 73
4
 74
0
 40
0
 40
0
 40
0
 40
0
 40
1
 40
1
 40
1
 40
1
 10
21.722292
 20
129.895758
 30
0.0
 10
21.870272
 20
129.287933
 30
0.0
 10
22.252350
 20
128.272639
 30
0.0
 10
22.568958
 20
127.637980
 30
0.0
  0
SPLINE
  5
181
100
AcDbEntity
  8
0
 62
7
100
AcDbSpline
 70
8
 71
3
 72
8
 73
4
 74
0
 40
0
 40
0
 40
0
 40
0
 40
1
 40
1
 40
1
 40
1
 10
22.568958
 20
127.637980
 30
0.0
 10
22.885569
 20
127.003325
 30
0.0
 10
23.142222
 20
126.289108
 30
0.0
 10
23.142222
 20
126.059300
 30
0.0
  0
SPLINE
  5
182
100
AcDbEntity
  8
0
 62
7
100
AcDbSpline
 70
8
 71
3
 72
8
 73
4
 74
0
 40
0
 40
0
 40
0
 40
0
 40
1
 40
1
 40
1
 40
1
 10
23.142222
 20
126.059300
 30
0.0
 10
23.142222
 20
125.176469
 30
0.0
 10
27.157795
 20
117.630818
 30
0.0
 10
28.433889
 20
116.110966
 30
0.0
  0
SPLINE
  5
183
100
AcDbEntity
  8
0
 62
7
100
AcDbSpline
 70
8
 71
3
 72
8
 73
4
 74
0
 40
0
 40
0
 40
0
 40
0
 40
1
 40
1
 40
1
 40
1
 10
28.433889
 20
116.110966
 30
0.0
 10
28.630651
 20
115.876620
 30
0.0
 10
28.786667
 20
115.606723
 30
0.0
 10
28.786667
 20
115.511244
 30
0.0
  0
SPLINE
  5
184
100
AcDbEntity
  8
0
 62
7
100
AcDbSpline
 70
8
 71
3
 72
8
 73
4
 74
0
 40
0
 40
0
 40
0
 40
0
 40
1
 40
1
 40
1
 40
1
 10
28.786667
 20
115.511244
 30
0.0
 10
28.786667
 20
115.211208
 30
0.0
 10
31.042681
 20
111.956943
 30
0.0
 10
31.335486
 20
111.833536
 30
0.0
  0
SPLINE
  5
185
100
AcDbEntity
  8
0
 62
7
100
AcDbSpline
 70
8
 71
3
 72
8
 73
4
 74
0
 40
0
 40
0
 40
0
 40
0
 40
1
 40
1
 40
1
 40
1
 10
31.335486
 20
111.833536
 30
0.0
 10
31.488939
 20
111.768856
 30
0.0
 10
31.608889
 20
111.499043
 30
0.0
 10
31.608889
 20
111.233814
 30
0.0
  0
SPLINE
  5
186
100
AcDbEntity
  8
0
 62
7
100
AcDbSpline
 70
8
 71
3
 72
8
 73
4
 74
0
 40
0
 40
0
 40
0
 40
0
 40
1
 40
1
 40
1
 40
1
 10
31.608889
 20
111.233814
 30
0.0
 10
31.608889
 20
110.968581
 30
0.0
 10
31.815583
 20
110.621685
 30
0.0
 10
32.058681
 20
110.466522
 30
0.0
  0
SPLINE
  5
187
100
AcDbEntity
  8
0
 62
7
100
AcDbSpline
 70
8
 71
3
 72
8
 73
4
 74
0
 40
0
 40
0
 40
0
 40
0
 40
1
 40
1
 40
1
 40
1
 10
32.058681
 20
110.466522
 30
0.0
 10
32.301778
 20
110.311362
 30
0.0
 10
32.962551
 20
109.496976
 30
0.0
 10
33.531528
 20
108.658536
 30
0.0
  0
LWPOLYLINE
  5
188
100
AcDbEntity
  8
0
 62
7
100
AcDbPolyline
 90
3
 70
0
 10
31.370764
 20
172.493675
 30
0.0
 10
29.756806
 20
171.708744
 30
0.0
 10
28.989514
 20
172.431939
 30
0.0
  0
SPLINE
  5
189
100
AcDbEntity
  8
0
 62
7
100
AcDbSpline
 70
8
 71
3
 72
8
 73
4
 74
0
 40
0
 40
0
 40
0
 40
0
 40
1
 40
1
 40
1
 40
1
 10
31.591250
 20
104.178258
 30
0.0
 10
29.954556
 20
102.550968
 30
0.0
 10
28.476705
 20
101.214233
 30
0.0
 10
28.310417
 20
101.206105
 30
0.0
  0
SPLINE
  5
18a
100
AcDbEntity
  8
0
 62
7
100
AcDbSpline
 70
8
 71
3
 72
8
 73
4
 74
0
 40
0
 40
0
 40
0
 40
0
 40
1
 40
1
 40
1
 40
1
 10
28.310417
 20
101.206105
 30
0.0
 10
27.797068
 20
101.181027
 30
0.0
 10
23.336092
 20
98.984048
 30
0.0
 10
23.115764
 20
98.648466
 30
0.0
  0
SPLINE
  5
18b
100
AcDbEntity
  8
0
 62
7
100
AcDbSpline
 70
8
 71
3
 72
8
 73
4
 74
0
 40
0
 40
0
 40
0
 40
0
 40
1
 40
1
 40
1
 40
1
 10
23.115764
 20
98.648466
 30
0.0
 10
23.001447
 20
98.474349
 30
0.0
 10
22.078180
 20
98.656637
 30
0.0
 10
21.069653
 20
99.054161
 30
0.0
  0
SPLINE
  5
18c
100
AcDbEntity
  8
0
 62
7
100
AcDbSpline
 70
8
 71
3
 72
8
 73
4
 74
0
 40
0
 40
0
 40
0
 40
0
 40
1
 40
1
 40
1
 40
1
 10
21.069653
 20
99.054161
 30
0.0
 10
18.745127
 20
99.970407
 30
0.0
 10
17.839890
 20
99.975334
 30
0.0
 10
17.603611
 20
99.071800
 30
0.0
  0
SPLINE
  5
18d
100
AcDbEntity
  8
0
 62
7
100
AcDbSpline
 70
8
 71
3
 72
8
 73
4
 74
0
 40
0
 40
0
 40
0
 40
0
 40
1
 40
1
 40
1
 40
1
 10
17.603611
 20
99.071800
 30
0.0
 10
17.464018
 20
98.537996
 30
0.0
 10
17.123410
 20
98.366244
 30
0.0
 10
16.201319
 20
98.366244
 30
0.0
  0
SPLINE
  5
18e
100
AcDbEntity
  8
0
 62
7
100
AcDbSpline
 70
8
 71
3
 72
8
 73
4
 74
0
 40
0
 40
0
 40
0
 40
0
 40
1
 40
1
 40
1
 40
1
 10
16.201319
 20
98.366244
 30
0.0
 10
15.530994
 20
98.366244
 30
0.0
 10
14.755811
 20
98.146641
 30
0.0
 10
14.481528
 20
97.872355
 30
0.0
  0
SPLINE
  5
18f
100
AcDbEntity
  8
0
 62
7
100
AcDbSpline
 70
8
 71
3
 72
8
 73
4
 74
0
 40
0
 40
0
 40
0
 40
0
 40
1
 40
1
 40
1
 40
1
 10
14.481528
 20
97.872355
 30
0.0
 10
14.051782
 20
97.442610
 30
0.0
 10
14.061265
 20
97.198728
 30
0.0
 10
14.516806
 20
96.108466
 30
0.0
  0
SPLINE
  5
190
100
AcDbEntity
  8
0
 62
7
100
AcDbSpline
 70
8
 71
3
 72
8
 73
4
 74
0
 40
0
 40
0
 40
0
 40
0
 40
1
 40
1
 40
1
 40
1
 10
14.516806
 20
96.108466
 30
0.0
 10
14.807551
 20
95.412614
 30
0.0
 10
15.211106
 20
94.838466
 30
0.0
 10
15.416389
 20
94.838466
 30
0.0
  0
SPLINE
  5
191
100
AcDbEntity
  8
0
 62
7
100
AcDbSpline
 70
8
 71
3
 72
8
 73
4
 74
0
 40
0
 40
0
 40
0
 40
0
 40
1
 40
1
 40
1
 40
1
 10
15.416389
 20
94.838466
 30
0.0
 10
15.621672
 20
94.838466
 30
0.0
 10
16.039394
 20
94.585877
 30
0.0
 10
16.351250
 20
94.274022
 30
0.0
  0
SPLINE
  5
192
100
AcDbEntity
  8
0
 62
7
100
AcDbSpline
 70
8
 71
3
 72
8
 73
4
 74
0
 40
0
 40
0
 40
0
 40
0
 40
1
 40
1
 40
1
 40
1
 10
16.351250
 20
94.274022
 30
0.0
 10
16.834547
 20
93.790728
 30
0.0
 10
16.860678
 20
93.477317
 30
0.0
 10
16.510000
 20
92.166175
 30
0.0
  0
SPLINE
  5
193
100
AcDbEntity
  8
0
 62
7
100
AcDbSpline
 70
8
 71
3
 72
8
 73
4
 74
0
 40
0
 40
0
 40
0
 40
0
 40
1
 40
1
 40
1
 40
1
 10
16.510000
 20
92.166175
 30
0.0
 10
15.853241
 20
89.710627
 30
0.0
 10
16.898998
 20
87.903617
 30
0.0
 10
19.076458
 20
87.721175
 30
0.0
  0
SPLINE
  5
194
100
AcDbEntity
  8
0
 62
7
100
AcDbSpline
 70
8
 71
3
 72
8
 73
4
 74
0
 40
0
 40
0
 40
0
 40
0
 40
1
 40
1
 40
1
 40
1
 10
19.076458
 20
87.721175
 30
0.0
 10
20.954495
 20
87.563819
 30
0.0
 10
21.456325
 20
86.688893
 30
0.0
 10
20.346458
 20
85.507494
 30
0.0
  0
SPLINE
  5
195
100
AcDbEntity
  8
0
 62
7
100
AcDbSpline
 70
8
 71
3
 72
8
 73
4
 74
0
 40
0
 40
0
 40
0
 40
0
 40
1
 40
1
 40
1
 40
1
 10
20.346458
 20
85.507494
 30
0.0
 10
19.553420
 20
84.663342
 30
0.0
 10
19.537022
 20
84.576816
 30
0.0
 10
20.099514
 20
83.955272
 30
0.0
  0
SPLINE
  5
196
100
AcDbEntity
  8
0
 62
7
100
AcDbSpline
 70
8
 71
3
 72
8
 73
4
 74
0
 40
0
 40
0
 40
0
 40
0
 40
1
 40
1
 40
1
 40
1
 10
20.099514
 20
83.955272
 30
0.0
 10
20.427191
 20
83.593195
 30
0.0
 10
21.209285
 20
83.023289
 30
0.0
 10
21.836944
 20
82.685272
 30
0.0
  0
SPLINE
  5
197
100
AcDbEntity
  8
0
 62
7
100
AcDbSpline
 70
8
 71
3
 72
8
 73
4
 74
0
 40
0
 40
0
 40
0
 40
0
 40
1
 40
1
 40
1
 40
1
 10
21.836944
 20
82.685272
 30
0.0
 10
22.533125
 20
82.310354
 30
0.0
 10
23.206910
 20
81.531883
 30
0.0
 10
23.565556
 20
80.692077
 30
0.0
  0
SPLINE
  5
198
100
AcDbEntity
  8
0
 62
7
100
AcDbSpline
 70
8
 71
3
 72
8
 73
4
 74
0
 40
0
 40
0
 40
0
 40
0
 40
1
 40
1
 40
1
 40
1
 10
23.565556
 20
80.692077
 30
0.0
 10
24.111709
 20
79.413213
 30
0.0
 10
24.249973
 20
79.316244
 30
0.0
 10
25.585208
 20
79.316244
 30
0.0
  0
SPLINE
  5
199
100
AcDbEntity
  8
0
 62
7
100
AcDbSpline
 70
8
 71
3
 72
8
 73
4
 74
0
 40
0
 40
0
 40
0
 40
0
 40
1
 40
1
 40
1
 40
1
 10
25.585208
 20
79.316244
 30
0.0
 10
26.601468
 20
79.316244
 30
0.0
 10
27.022778
 20
79.164143
 30
0.0
 10
27.022778
 20
78.804716
 30
0.0
  0
SPLINE
  5
19a
100
AcDbEntity
  8
0
 62
7
100
AcDbSpline
 70
8
 71
3
 72
8
 73
4
 74
0
 40
0
 40
0
 40
0
 40
0
 40
1
 40
1
 40
1
 40
1
 10
27.022778
 20
78.804716
 30
0.0
 10
27.022778
 20
78.525124
 30
0.0
 10
26.871803
 20
78.200792
 30
0.0
 10
26.678819
 20
78.081522
 30
0.0
  0
SPLINE
  5
19b
100
AcDbEntity
  8
0
 62
7
100
AcDbSpline
 70
8
 71
3
 72
8
 73
4
 74
0
 40
0
 40
0
 40
0
 40
0
 40
1
 40
1
 40
1
 40
1
 10
26.678819
 20
78.081522
 30
0.0
 10
26.485836
 20
77.962252
 30
0.0
 10
26.164642
 20
77.556013
 30
0.0
 10
25.964444
 20
77.181939
 30
0.0
  0
SPLINE
  5
19c
100
AcDbEntity
  8
0
 62
7
100
AcDbSpline
 70
8
 71
3
 72
8
 73
4
 74
0
 40
0
 40
0
 40
0
 40
0
 40
1
 40
1
 40
1
 40
1
 10
25.964444
 20
77.181939
 30
0.0
 10
25.670318
 20
76.632359
 30
0.0
 10
25.768246
 20
76.358581
 30
0.0
 10
26.484792
 20
75.735550
 30
0.0
  0
SPLINE
  5
19d
100
AcDbEntity
  8
0
 62
7
100
AcDbSpline
 70
8
 71
3
 72
8
 73
4
 74
0
 40
0
 40
0
 40
0
 40
0
 40
1
 40
1
 40
1
 40
1
 10
26.484792
 20
75.735550
 30
0.0
 10
26.972514
 20
75.311483
 30
0.0
 10
27.688246
 20
74.364514
 30
0.0
 10
28.072292
 20
73.627702
 30
0.0
  0
LWPOLYLINE
  5
19e
100
AcDbEntity
  8
0
 62
7
100
AcDbPolyline
 90
3
 70
0
 10
33.531528
 20
108.658536
 30
0.0
 10
34.563403
 20
107.132772
 30
0.0
 10
31.591250
 20
104.178258
 30
0.0
  0
SPLINE
  5
19f
100
AcDbEntity
  8
0
 62
7
100
AcDbSpline
 70
8
 71
3
 72
8
 73
4
 74
0
 40
0
 40
0
 40
0
 40
0
 40
1
 40
1
 40
1
 40
1
 10
28.037014
 20
71.775619
 30
0.0
 10
27.270422
 20
71.238674
 30
0.0
 10
27.413218
 20
70.496800
 30
0.0
 10
28.283958
 20
70.496800
 30
0.0
  0
SPLINE
  5
1a0
100
AcDbEntity
  8
0
 62
7
100
AcDbSpline
 70
8
 71
3
 72
8
 73
4
 74
0
 40
0
 40
0
 40
0
 40
0
 40
1
 40
1
 40
1
 40
1
 10
28.283958
 20
70.496800
 30
0.0
 10
28.563550
 20
70.496800
 30
0.0
 10
28.786667
 20
70.258675
 30
0.0
 10
28.786667
 20
69.967633
 30
0.0
  0
SPLINE
  5
1a1
100
AcDbEntity
  8
0
 62
7
100
AcDbSpline
 70
8
 71
3
 72
8
 73
4
 74
0
 40
0
 40
0
 40
0
 40
0
 40
1
 40
1
 40
1
 40
1
 10
28.786667
 20
69.967633
 30
0.0
 10
28.786667
 20
69.676591
 30
0.0
 10
28.949362
 20
69.438466
 30
0.0
 10
29.139444
 20
69.438466
 30
0.0
  0
SPLINE
  5
1a2
100
AcDbEntity
  8
0
 62
7
100
AcDbSpline
 70
8
 71
3
 72
8
 73
4
 74
0
 40
0
 40
0
 40
0
 40
0
 40
1
 40
1
 40
1
 40
1
 10
29.139444
 20
69.438466
 30
0.0
 10
29.329530
 20
69.438466
 30
0.0
 10
29.801834
 20
68.803466
 30
0.0
 10
30.197778
 20
68.027355
 30
0.0
  0
SPLINE
  5
1a3
100
AcDbEntity
  8
0
 62
7
100
AcDbSpline
 70
8
 71
3
 72
8
 73
4
 74
0
 40
0
 40
0
 40
0
 40
0
 40
1
 40
1
 40
1
 40
1
 10
30.197778
 20
68.027355
 30
0.0
 10
30.593719
 20
67.251244
 30
0.0
 10
31.074848
 20
66.616244
 30
0.0
 10
31.264931
 20
66.616244
 30
0.0
  0
SPLINE
  5
1a4
100
AcDbEntity
  8
0
 62
7
100
AcDbSpline
 70
8
 71
3
 72
8
 73
4
 74
0
 40
0
 40
0
 40
0
 40
0
 40
1
 40
1
 40
1
 40
1
 10
31.264931
 20
66.616244
 30
0.0
 10
31.455016
 20
66.616244
 30
0.0
 10
31.608889
 20
65.914468
 30
0.0
 10
31.608889
 20
65.055202
 30
0.0
  0
SPLINE
  5
1a5
100
AcDbEntity
  8
0
 62
7
100
AcDbSpline
 70
8
 71
3
 72
8
 73
4
 74
0
 40
0
 40
0
 40
0
 40
0
 40
1
 40
1
 40
1
 40
1
 10
31.608889
 20
65.055202
 30
0.0
 10
31.608889
 20
63.288060
 30
0.0
 10
32.273644
 20
62.382911
 30
0.0
 10
33.566806
 20
62.382911
 30
0.0
  0
SPLINE
  5
1a6
100
AcDbEntity
  8
0
 62
7
100
AcDbSpline
 70
8
 71
3
 72
8
 73
4
 74
0
 40
0
 40
0
 40
0
 40
0
 40
1
 40
1
 40
1
 40
1
 10
33.566806
 20
62.382911
 30
0.0
 10
34.032043
 20
62.382911
 30
0.0
 10
35.051317
 20
62.049722
 30
0.0
 10
35.833403
 20
61.642077
 30
0.0
  0
SPLINE
  5
1a7
100
AcDbEntity
  8
0
 62
7
100
AcDbSpline
 70
8
 71
3
 72
8
 73
4
 74
0
 40
0
 40
0
 40
0
 40
0
 40
1
 40
1
 40
1
 40
1
 10
35.833403
 20
61.642077
 30
0.0
 10
37.364416
 20
60.844069
 30
0.0
 10
37.656558
 20
59.897628
 30
0.0
 10
36.838819
 20
58.387702
 30
0.0
  0
SPLINE
  5
1a8
100
AcDbEntity
  8
0
 62
7
100
AcDbSpline
 70
8
 71
3
 72
8
 73
4
 74
0
 40
0
 40
0
 40
0
 40
0
 40
1
 40
1
 40
1
 40
1
 10
36.838819
 20
58.387702
 30
0.0
 10
36.445690
 20
57.661799
 30
0.0
 10
35.789399
 20
55.575079
 30
0.0
 10
34.545764
 20
51.094022
 30
0.0
  0
SPLINE
  5
1a9
100
AcDbEntity
  8
0
 62
7
100
AcDbSpline
 70
8
 71
3
 72
8
 73
4
 74
0
 40
0
 40
0
 40
0
 40
0
 40
1
 40
1
 40
1
 40
1
 10
34.545764
 20
51.094022
 30
0.0
 10
34.249597
 20
50.026883
 30
0.0
 10
33.892253
 20
48.994994
 30
0.0
 10
33.752014
 20
48.800966
 30
0.0
  0
SPLINE
  5
1aa
100
AcDbEntity
  8
0
 62
7
100
AcDbSpline
 70
8
 71
3
 72
8
 73
4
 74
0
 40
0
 40
0
 40
0
 40
0
 40
1
 40
1
 40
1
 40
1
 10
33.752014
 20
48.800966
 30
0.0
 10
33.611772
 20
48.606939
 30
0.0
 10
33.065624
 20
47.019439
 30
0.0
 10
32.534931
 20
45.273189
 30
0.0
  0
SPLINE
  5
1ab
100
AcDbEntity
  8
0
 62
7
100
AcDbSpline
 70
8
 71
3
 72
8
 73
4
 74
0
 40
0
 40
0
 40
0
 40
0
 40
1
 40
1
 40
1
 40
1
 10
32.534931
 20
45.273189
 30
0.0
 10
32.004240
 20
43.526939
 30
0.0
 10
31.261417
 20
41.299373
 30
0.0
 10
30.885694
 20
40.325480
 30
0.0
  0
SPLINE
  5
1ac
100
AcDbEntity
  8
0
 62
7
100
AcDbSpline
 70
8
 71
3
 72
8
 73
4
 74
0
 40
0
 40
0
 40
0
 40
0
 40
1
 40
1
 40
1
 40
1
 10
30.885694
 20
40.325480
 30
0.0
 10
30.509972
 20
39.351588
 30
0.0
 10
30.197778
 20
38.400217
 30
0.0
 10
30.197778
 20
38.208814
 30
0.0
  0
SPLINE
  5
1ad
100
AcDbEntity
  8
0
 62
7
100
AcDbSpline
 70
8
 71
3
 72
8
 73
4
 74
0
 40
0
 40
0
 40
0
 40
0
 40
1
 40
1
 40
1
 40
1
 10
30.197778
 20
38.208814
 30
0.0
 10
30.197778
 20
38.017382
 30
0.0
 10
29.761214
 20
37.663461
 30
0.0
 10
29.227639
 20
37.423883
 30
0.0
  0
SPLINE
  5
1ae
100
AcDbEntity
  8
0
 62
7
100
AcDbSpline
 70
8
 71
3
 72
8
 73
4
 74
0
 40
0
 40
0
 40
0
 40
0
 40
1
 40
1
 40
1
 40
1
 10
29.227639
 20
37.423883
 30
0.0
 10
28.694061
 20
37.184305
 30
0.0
 10
27.429031
 20
36.218921
 30
0.0
 10
26.414236
 20
35.280758
 30
0.0
  0
SPLINE
  5
1af
100
AcDbEntity
  8
0
 62
7
100
AcDbSpline
 70
8
 71
3
 72
8
 73
4
 74
0
 40
0
 40
0
 40
0
 40
0
 40
1
 40
1
 40
1
 40
1
 10
26.414236
 20
35.280758
 30
0.0
 10
24.614745
 20
33.617143
 30
0.0
 10
24.579890
 20
33.548478
 30
0.0
 10
24.950208
 20
32.370341
 30
0.0
  0
SPLINE
  5
1b0
100
AcDbEntity
  8
0
 62
7
100
AcDbSpline
 70
8
 71
3
 72
8
 73
4
 74
0
 40
0
 40
0
 40
0
 40
0
 40
1
 40
1
 40
1
 40
1
 10
24.950208
 20
32.370341
 30
0.0
 10
25.670439
 20
30.079007
 30
0.0
 10
25.703440
 20
29.556388
 30
0.0
 10
25.170694
 20
28.948397
 30
0.0
  0
SPLINE
  5
1b1
100
AcDbEntity
  8
0
 62
7
100
AcDbSpline
 70
8
 71
3
 72
8
 73
4
 74
0
 40
0
 40
0
 40
0
 40
0
 40
1
 40
1
 40
1
 40
1
 10
25.170694
 20
28.948397
 30
0.0
 10
23.932089
 20
27.534830
 30
0.0
 10
23.437477
 20
26.035468
 30
0.0
 10
23.830139
 20
24.909091
 30
0.0
  0
SPLINE
  5
1b2
100
AcDbEntity
  8
0
 62
7
100
AcDbSpline
 70
8
 71
3
 72
8
 73
4
 74
0
 40
0
 40
0
 40
0
 40
0
 40
1
 40
1
 40
1
 40
1
 10
23.830139
 20
24.909091
 30
0.0
 10
24.347060
 20
23.426239
 30
0.0
 10
24.296387
 20
22.561948
 30
0.0
 10
23.671389
 20
21.936939
 30
0.0
  0
SPLINE
  5
1b3
100
AcDbEntity
  8
0
 62
7
100
AcDbSpline
 70
8
 71
3
 72
8
 73
4
 74
0
 40
0
 40
0
 40
0
 40
0
 40
1
 40
1
 40
1
 40
1
 10
23.671389
 20
21.936939
 30
0.0
 10
23.380347
 20
21.645911
 30
0.0
 10
23.146540
 20
20.983804
 30
0.0
 10
23.142222
 20
20.464091
 30
0.0
  0
SPLINE
  5
1b4
100
AcDbEntity
  8
0
 62
7
100
AcDbSpline
 70
8
 71
3
 72
8
 73
4
 74
0
 40
0
 40
0
 40
0
 40
0
 40
1
 40
1
 40
1
 40
1
 10
23.142222
 20
20.464091
 30
0.0
 10
23.137910
 20
19.944379
 30
0.0
 10
22.816095
 20
19.123522
 30
0.0
 10
22.436667
 20
18.638466
 30
0.0
  0
SPLINE
  5
1b5
100
AcDbEntity
  8
0
 62
7
100
AcDbSpline
 70
8
 71
3
 72
8
 73
4
 74
0
 40
0
 40
0
 40
0
 40
0
 40
1
 40
1
 40
1
 40
1
 10
22.436667
 20
18.638466
 30
0.0
 10
22.057239
 20
18.153383
 30
0.0
 10
21.743712
 20
17.597772
 30
0.0
 10
21.739931
 20
17.403744
 30
0.0
  0
SPLINE
  5
1b6
100
AcDbEntity
  8
0
 62
7
100
AcDbSpline
 70
8
 71
3
 72
8
 73
4
 74
0
 40
0
 40
0
 40
0
 40
0
 40
1
 40
1
 40
1
 40
1
 10
21.739931
 20
17.403744
 30
0.0
 10
21.736154
 20
17.209716
 30
0.0
 10
21.432729
 20
16.415966
 30
0.0
 10
21.060833
 20
15.639855
 30
0.0
  0
SPLINE
  5
1b7
100
AcDbEntity
  8
0
 62
7
100
AcDbSpline
 70
8
 71
3
 72
8
 73
4
 74
0
 40
0
 40
0
 40
0
 40
0
 40
1
 40
1
 40
1
 40
1
 10
21.060833
 20
15.639855
 30
0.0
 10
20.688938
 20
14.863744
 30
0.0
 10
19.890850
 20
13.196855
 30
0.0
 10
19.288125
 20
11.935689
 30
0.0
  0
SPLINE
  5
1b8
100
AcDbEntity
  8
0
 62
7
100
AcDbSpline
 70
8
 71
3
 72
8
 73
4
 74
0
 40
0
 40
0
 40
0
 40
0
 40
1
 40
1
 40
1
 40
1
 10
19.288125
 20
11.935689
 30
0.0
 10
18.685400
 20
10.674494
 30
0.0
 10
17.797805
 20
9.007633
 30
0.0
 10
17.312569
 20
8.231522
 30
0.0
  0
SPLINE
  5
1b9
100
AcDbEntity
  8
0
 62
7
100
AcDbSpline
 70
8
 71
3
 72
8
 73
4
 74
0
 40
0
 40
0
 40
0
 40
0
 40
1
 40
1
 40
1
 40
1
 10
17.312569
 20
8.231522
 30
0.0
 10
16.827331
 20
7.455411
 30
0.0
 10
16.326462
 20
6.598979
 30
0.0
 10
16.201319
 20
6.326522
 30
0.0
  0
SPLINE
  5
1ba
100
AcDbEntity
  8
0
 62
7
100
AcDbSpline
 70
8
 71
3
 72
8
 73
4
 74
0
 40
0
 40
0
 40
0
 40
0
 40
1
 40
1
 40
1
 40
1
 10
16.201319
 20
6.326522
 30
0.0
 10
15.915880
 20
5.705097
 30
0.0
 10
16.640700
 20
2.930147
 30
0.0
 10
17.453681
 20
1.528744
 30
0.0
  0
SPLINE
  5
1bb
100
AcDbEntity
  8
0
 62
7
100
AcDbSpline
 70
8
 71
3
 72
8
 73
4
 74
0
 40
0
 40
0
 40
0
 40
0
 40
1
 40
1
 40
1
 40
1
 10
17.453681
 20
1.528744
 30
0.0
 10
17.984524
 20
0.613667
 30
0.0
 10
18.322276
 20
0.446605
 30
0.0
 10
19.984861
 20
0.267564
 30
0.0
  0
SPLINE
  5
1bc
100
AcDbEntity
  8
0
 62
7
100
AcDbSpline
 70
8
 71
3
 72
8
 73
4
 74
0
 40
0
 40
0
 40
0
 40
0
 40
1
 40
1
 40
1
 40
1
 10
19.984861
 20
0.267564
 30
0.0
 10
22.771506
 20
-0.032523
 30
0.0
 10
29.057191
 20
-0.091169
 30
0.0
 10
31.476597
 20
0.161730
 30
0.0
  0
SPLINE
  5
1bd
100
AcDbEntity
  8
0
 62
7
100
AcDbSpline
 70
8
 71
3
 72
8
 73
4
 74
0
 40
0
 40
0
 40
0
 40
0
 40
1
 40
1
 40
1
 40
1
 10
31.476597
 20
0.161730
 30
0.0
 10
33.537598
 20
0.377150
 30
0.0
 10
33.570342
 20
0.397950
 30
0.0
 10
34.360556
 20
2.013814
 30
0.0
  0
SPLINE
  5
1be
100
AcDbEntity
  8
0
 62
7
100
AcDbSpline
 70
8
 71
3
 72
8
 73
4
 74
0
 40
0
 40
0
 40
0
 40
0
 40
1
 40
1
 40
1
 40
1
 10
34.360556
 20
2.013814
 30
0.0
 10
35.106912
 20
3.539958
 30
0.0
 10
35.153425
 20
4.030277
 30
0.0
 10
35.066111
 20
9.466244
 30
0.0
  0
SPLINE
  5
1bf
100
AcDbEntity
  8
0
 62
7
100
AcDbSpline
 70
8
 71
3
 72
8
 73
4
 74
0
 40
0
 40
0
 40
0
 40
0
 40
1
 40
1
 40
1
 40
1
 10
35.066111
 20
9.466244
 30
0.0
 10
34.976144
 20
15.067480
 30
0.0
 10
35.498334
 20
20.064112
 30
0.0
 10
36.256736
 20
20.913883
 30
0.0
  0
SPLINE
  5
1c0
100
AcDbEntity
  8
0
 62
7
100
AcDbSpline
 70
8
 71
3
 72
8
 73
4
 74
0
 40
0
 40
0
 40
0
 40
0
 40
1
 40
1
 40
1
 40
1
 10
36.256736
 20
20.913883
 30
0.0
 10
36.421246
 20
21.098202
 30
0.0
 10
36.547778
 20
21.668362
 30
0.0
 10
36.547778
 20
22.175064
 30
0.0
  0
SPLINE
  5
1c1
100
AcDbEntity
  8
0
 62
7
100
AcDbSpline
 70
8
 71
3
 72
8
 73
4
 74
0
 40
0
 40
0
 40
0
 40
0
 40
1
 40
1
 40
1
 40
1
 10
36.547778
 20
22.175064
 30
0.0
 10
36.547778
 20
22.681765
 30
0.0
 10
36.825589
 20
23.411112
 30
0.0
 10
37.165139
 20
23.797841
 30
0.0
  0
SPLINE
  5
1c2
100
AcDbEntity
  8
0
 62
7
100
AcDbSpline
 70
8
 71
3
 72
8
 73
4
 74
0
 40
0
 40
0
 40
0
 40
0
 40
1
 40
1
 40
1
 40
1
 10
37.165139
 20
23.797841
 30
0.0
 10
37.832620
 20
24.558063
 30
0.0
 10
38.048351
 20
24.873348
 30
0.0
 10
39.793333
 20
27.810689
 30
0.0
  0
SPLINE
  5
1c3
100
AcDbEntity
  8
0
 62
7
100
AcDbSpline
 70
8
 71
3
 72
8
 73
4
 74
0
 40
0
 40
0
 40
0
 40
0
 40
1
 40
1
 40
1
 40
1
 10
39.793333
 20
27.810689
 30
0.0
 10
41.218719
 20
30.210029
 30
0.0
 10
41.353918
 20
32.529557
 30
0.0
 10
40.146111
 20
33.737355
 30
0.0
  0
LWPOLYLINE
  5
1c4
100
AcDbEntity
  8
0
 62
7
100
AcDbPolyline
 90
3
 70
0
 10
28.072292
 20
73.627702
 30
0.0
 10
28.769028
 20
72.287147
 30
0.0
 10
28.037014
 20
71.775619
 30
0.0
  0
SPLINE
  5
1c5
100
AcDbEntity
  8
0
 62
7
100
AcDbSpline
 70
8
 71
3
 72
8
 73
4
 74
0
 40
0
 40
0
 40
0
 40
0
 40
1
 40
1
 40
1
 40
1
 10
40.119653
 20
36.012772
 30
0.0
 10
40.527571
 20
36.839429
 30
0.0
 10
41.187065
 20
38.226438
 30
0.0
 10
41.583681
 20
39.099577
 30
0.0
  0
SPLINE
  5
1c6
100
AcDbEntity
  8
0
 62
7
100
AcDbSpline
 70
8
 71
3
 72
8
 73
4
 74
0
 40
0
 40
0
 40
0
 40
0
 40
1
 40
1
 40
1
 40
1
 10
41.583681
 20
39.099577
 30
0.0
 10
41.980296
 20
39.972688
 30
0.0
 10
42.441772
 20
40.925188
 30
0.0
 10
42.606736
 20
41.216244
 30
0.0
  0
SPLINE
  5
1c7
100
AcDbEntity
  8
0
 62
7
100
AcDbSpline
 70
8
 71
3
 72
8
 73
4
 74
0
 40
0
 40
0
 40
0
 40
0
 40
1
 40
1
 40
1
 40
1
 10
42.606736
 20
41.216244
 30
0.0
 10
42.893542
 20
41.722240
 30
0.0
 10
43.283076
 20
42.541983
 30
0.0
 10
43.779722
 20
43.685689
 30
0.0
  0
SPLINE
  5
1c8
100
AcDbEntity
  8
0
 62
7
100
AcDbSpline
 70
8
 71
3
 72
8
 73
4
 74
0
 40
0
 40
0
 40
0
 40
0
 40
1
 40
1
 40
1
 40
1
 10
43.779722
 20
43.685689
 30
0.0
 10
43.906110
 20
43.976716
 30
0.0
 10
45.002092
 20
46.120081
 30
0.0
 10
46.213889
 20
48.448189
 30
0.0
  0
SPLINE
  5
1c9
100
AcDbEntity
  8
0
 62
7
100
AcDbSpline
 70
8
 71
3
 72
8
 73
4
 74
0
 40
0
 40
0
 40
0
 40
0
 40
1
 40
1
 40
1
 40
1
 10
46.213889
 20
48.448189
 30
0.0
 10
47.753183
 20
51.405511
 30
0.0
 10
48.621064
 20
52.710407
 30
0.0
 10
49.097847
 20
52.778536
 30
0.0
  0
SPLINE
  5
1ca
100
AcDbEntity
  8
0
 62
7
100
AcDbSpline
 70
8
 71
3
 72
8
 73
4
 74
0
 40
0
 40
0
 40
0
 40
0
 40
1
 40
1
 40
1
 40
1
 10
49.097847
 20
52.778536
 30
0.0
 10
49.473191
 20
52.832158
 30
0.0
 10
50.373054
 20
53.052517
 30
0.0
 10
51.099861
 20
53.272425
 30
0.0
  0
SPLINE
  5
1cb
100
AcDbEntity
  8
0
 62
7
100
AcDbSpline
 70
8
 71
3
 72
8
 73
4
 74
0
 40
0
 40
0
 40
0
 40
0
 40
1
 40
1
 40
1
 40
1
 10
51.099861
 20
53.272425
 30
0.0
 10
52.242652
 20
53.618203
 30
0.0
 10
52.520441
 20
53.591562
 30
0.0
 10
53.145972
 20
53.025480
 30
0.0
  0
SPLINE
  5
1cc
100
AcDbEntity
  8
0
 62
7
100
AcDbSpline
 70
8
 71
3
 72
8
 73
4
 74
0
 40
0
 40
0
 40
0
 40
0
 40
1
 40
1
 40
1
 40
1
 10
53.145972
 20
53.025480
 30
0.0
 10
54.110952
 20
52.152172
 30
0.0
 10
56.134610
 20
52.220978
 30
0.0
 10
57.141181
 20
53.166591
 30
0.0
  0
SPLINE
  5
1cd
100
AcDbEntity
  8
0
 62
7
100
AcDbSpline
 70
8
 71
3
 72
8
 73
4
 74
0
 40
0
 40
0
 40
0
 40
0
 40
1
 40
1
 40
1
 40
1
 10
57.141181
 20
53.166591
 30
0.0
 10
58.318081
 20
54.272253
 30
0.0
 10
59.557104
 20
54.293067
 30
0.0
 10
59.822292
 20
53.210689
 30
0.0
  0
SPLINE
  5
1ce
100
AcDbEntity
  8
0
 62
7
100
AcDbSpline
 70
8
 71
3
 72
8
 73
4
 74
0
 40
0
 40
0
 40
0
 40
0
 40
1
 40
1
 40
1
 40
1
 10
59.822292
 20
53.210689
 30
0.0
 10
60.014454
 20
52.426365
 30
0.0
 10
60.249709
 20
52.319036
 30
0.0
 10
61.921319
 20
52.222911
 30
0.0
  0
SPLINE
  5
1cf
100
AcDbEntity
  8
0
 62
7
100
AcDbSpline
 70
8
 71
3
 72
8
 73
4
 74
0
 40
0
 40
0
 40
0
 40
0
 40
1
 40
1
 40
1
 40
1
 10
61.921319
 20
52.222911
 30
0.0
 10
62.955147
 20
52.163475
 30
0.0
 10
64.294769
 20
52.291801
 30
0.0
 10
64.902292
 20
52.505133
 30
0.0
  0
SPLINE
  5
1d0
100
AcDbEntity
  8
0
 62
7
100
AcDbSpline
 70
8
 71
3
 72
8
 73
4
 74
0
 40
0
 40
0
 40
0
 40
0
 40
1
 40
1
 40
1
 40
1
 10
64.902292
 20
52.505133
 30
0.0
 10
65.867729
 20
52.844138
 30
0.0
 10
66.066766
 20
52.799942
 30
0.0
 10
66.489792
 20
52.169994
 30
0.0
  0
SPLINE
  5
1d1
100
AcDbEntity
  8
0
 62
7
100
AcDbSpline
 70
8
 71
3
 72
8
 73
4
 74
0
 40
0
 40
0
 40
0
 40
0
 40
1
 40
1
 40
1
 40
1
 10
66.489792
 20
52.169994
 30
0.0
 10
67.100238
 20
51.260928
 30
0.0
 10
69.017055
 20
51.203820
 30
0.0
 10
70.458542
 20
52.055341
 30
0.0
  0
SPLINE
  5
1d2
100
AcDbEntity
  8
0
 62
7
100
AcDbSpline
 70
8
 71
3
 72
8
 73
4
 74
0
 40
0
 40
0
 40
0
 40
0
 40
1
 40
1
 40
1
 40
1
 10
70.458542
 20
52.055341
 30
0.0
 10
71.332310
 20
52.571469
 30
0.0
 10
71.604672
 20
52.596573
 30
0.0
 10
72.231250
 20
52.205272
 30
0.0
  0
SPLINE
  5
1d3
100
AcDbEntity
  8
0
 62
7
100
AcDbSpline
 70
8
 71
3
 72
8
 73
4
 74
0
 40
0
 40
0
 40
0
 40
0
 40
1
 40
1
 40
1
 40
1
 10
72.231250
 20
52.205272
 30
0.0
 10
72.761949
 20
51.873858
 30
0.0
 10
73.077516
 20
51.852085
 30
0.0
 10
73.351319
 20
52.125897
 30
0.0
  0
SPLINE
  5
1d4
100
AcDbEntity
  8
0
 62
7
100
AcDbSpline
 70
8
 71
3
 72
8
 73
4
 74
0
 40
0
 40
0
 40
0
 40
0
 40
1
 40
1
 40
1
 40
1
 10
73.351319
 20
52.125897
 30
0.0
 10
73.561276
 20
52.335842
 30
0.0
 10
73.993462
 20
52.505133
 30
0.0
 10
74.312639
 20
52.505133
 30
0.0
  0
SPLINE
  5
1d5
100
AcDbEntity
  8
0
 62
7
100
AcDbSpline
 70
8
 71
3
 72
8
 73
4
 74
0
 40
0
 40
0
 40
0
 40
0
 40
1
 40
1
 40
1
 40
1
 10
74.312639
 20
52.505133
 30
0.0
 10
74.631818
 20
52.505133
 30
0.0
 10
75.193669
 20
52.836589
 30
0.0
 10
75.556181
 20
53.237147
 30
0.0
  0
SPLINE
  5
1d6
100
AcDbEntity
  8
0
 62
7
100
AcDbSpline
 70
8
 71
3
 72
8
 73
4
 74
0
 40
0
 40
0
 40
0
 40
0
 40
1
 40
1
 40
1
 40
1
 10
75.556181
 20
53.237147
 30
0.0
 10
76.111357
 20
53.850613
 30
0.0
 10
76.470050
 20
53.929537
 30
0.0
 10
77.849236
 20
53.739855
 30
0.0
  0
SPLINE
  5
1d7
100
AcDbEntity
  8
0
 62
7
100
AcDbSpline
 70
8
 71
3
 72
8
 73
4
 74
0
 40
0
 40
0
 40
0
 40
0
 40
1
 40
1
 40
1
 40
1
 10
77.849236
 20
53.739855
 30
0.0
 10
79.136655
 20
53.562789
 30
0.0
 10
79.613334
 20
53.643067
 30
0.0
 10
80.089375
 20
54.119091
 30
0.0
  0
SPLINE
  5
1d8
100
AcDbEntity
  8
0
 62
7
100
AcDbSpline
 70
8
 71
3
 72
8
 73
4
 74
0
 40
0
 40
0
 40
0
 40
0
 40
1
 40
1
 40
1
 40
1
 10
80.089375
 20
54.119091
 30
0.0
 10
80.422369
 20
54.452085
 30
0.0
 10
81.439283
 20
54.859676
 30
0.0
 10
82.347153
 20
55.027494
 30
0.0
  0
SPLINE
  5
1d9
100
AcDbEntity
  8
0
 62
7
100
AcDbSpline
 70
8
 71
3
 72
8
 73
4
 74
0
 40
0
 40
0
 40
0
 40
0
 40
1
 40
1
 40
1
 40
1
 10
82.347153
 20
55.027494
 30
0.0
 10
84.430780
 20
55.412646
 30
0.0
 10
84.885903
 20
56.010776
 30
0.0
 10
84.666667
 20
58.096661
 30
0.0
  0
SPLINE
  5
1da
100
AcDbEntity
  8
0
 62
7
100
AcDbSpline
 70
8
 71
3
 72
8
 73
4
 74
0
 40
0
 40
0
 40
0
 40
0
 40
1
 40
1
 40
1
 40
1
 10
84.666667
 20
58.096661
 30
0.0
 10
84.449841
 20
60.159539
 30
0.0
 10
84.774986
 20
60.621429
 30
0.0
 10
86.598125
 20
60.865966
 30
0.0
  0
LWPOLYLINE
  5
1db
100
AcDbEntity
  8
0
 62
7
100
AcDbPolyline
 90
3
 70
0
 10
40.146111
 20
33.737355
 30
0.0
 10
39.378819
 20
34.504647
 30
0.0
 10
40.119653
 20
36.012772
 30
0.0
  0
SPLINE
  5
1dc
100
AcDbEntity
  8
0
 62
7
100
AcDbSpline
 70
8
 71
3
 72
8
 73
4
 74
0
 40
0
 40
0
 40
0
 40
0
 40
1
 40
1
 40
1
 40
1
 10
88.053333
 20
59.569508
 30
0.0
 10
88.053333
 20
58.339332
 30
0.0
 10
87.801975
 20
57.770886
 30
0.0
 10
86.642222
 20
56.385689
 30
0.0
  0
SPLINE
  5
1dd
100
AcDbEntity
  8
0
 62
7
100
AcDbSpline
 70
8
 71
3
 72
8
 73
4
 74
0
 40
0
 40
0
 40
0
 40
0
 40
1
 40
1
 40
1
 40
1
 10
86.642222
 20
56.385689
 30
0.0
 10
84.998213
 20
54.422099
 30
0.0
 10
84.893525
 20
53.916244
 30
0.0
 10
86.130694
 20
53.916244
 30
0.0
  0
SPLINE
  5
1de
100
AcDbEntity
  8
0
 62
7
100
AcDbSpline
 70
8
 71
3
 72
8
 73
4
 74
0
 40
0
 40
0
 40
0
 40
0
 40
1
 40
1
 40
1
 40
1
 10
86.130694
 20
53.916244
 30
0.0
 10
86.625399
 20
53.916244
 30
0.0
 10
87.509183
 20
53.669046
 30
0.0
 10
88.088611
 20
53.369439
 30
0.0
  0
SPLINE
  5
1df
100
AcDbEntity
  8
0
 62
7
100
AcDbSpline
 70
8
 71
3
 72
8
 73
4
 74
0
 40
0
 40
0
 40
0
 40
0
 40
1
 40
1
 40
1
 40
1
 10
88.088611
 20
53.369439
 30
0.0
 10
89.070897
 20
52.861467
 30
0.0
 10
89.200499
 20
52.873405
 30
0.0
 10
90.055347
 20
53.545827
 30
0.0
  0
SPLINE
  5
1e0
100
AcDbEntity
  8
0
 62
7
100
AcDbSpline
 70
8
 71
3
 72
8
 73
4
 74
0
 40
0
 40
0
 40
0
 40
0
 40
1
 40
1
 40
1
 40
1
 10
90.055347
 20
53.545827
 30
0.0
 10
91.203292
 20
54.448797
 30
0.0
 10
91.664237
 20
54.455909
 30
0.0
 10
92.471875
 20
53.563466
 30
0.0
  0
SPLINE
  5
1e1
100
AcDbEntity
  8
0
 62
7
100
AcDbSpline
 70
8
 71
3
 72
8
 73
4
 74
0
 40
0
 40
0
 40
0
 40
0
 40
1
 40
1
 40
1
 40
1
 10
92.471875
 20
53.563466
 30
0.0
 10
93.482572
 20
52.446657
 30
0.0
 10
95.132627
 20
51.730052
 30
0.0
 10
95.673333
 20
52.178814
 30
0.0
  0
SPLINE
  5
1e2
100
AcDbEntity
  8
0
 62
7
100
AcDbSpline
 70
8
 71
3
 72
8
 73
4
 74
0
 40
0
 40
0
 40
0
 40
0
 40
1
 40
1
 40
1
 40
1
 10
95.673333
 20
52.178814
 30
0.0
 10
95.924692
 20
52.387404
 30
0.0
 10
96.893036
 20
52.525270
 30
0.0
 10
97.825278
 20
52.478675
 30
0.0
  0
SPLINE
  5
1e3
100
AcDbEntity
  8
0
 62
7
100
AcDbSpline
 70
8
 71
3
 72
8
 73
4
 74
0
 40
0
 40
0
 40
0
 40
0
 40
1
 40
1
 40
1
 40
1
 10
97.825278
 20
52.478675
 30
0.0
 10
98.757526
 20
52.432108
 30
0.0
 10
99.851616
 20
52.498783
 30
0.0
 10
100.250625
 20
52.628605
 30
0.0
  0
SPLINE
  5
1e4
100
AcDbEntity
  8
0
 62
7
100
AcDbSpline
 70
8
 71
3
 72
8
 73
4
 74
0
 40
0
 40
0
 40
0
 40
0
 40
1
 40
1
 40
1
 40
1
 10
100.250625
 20
52.628605
 30
0.0
 10
100.649631
 20
52.758427
 30
0.0
 10
101.693898
 20
52.730558
 30
0.0
 10
102.570139
 20
52.566869
 30
0.0
  0
SPLINE
  5
1e5
100
AcDbEntity
  8
0
 62
7
100
AcDbSpline
 70
8
 71
3
 72
8
 73
4
 74
0
 40
0
 40
0
 40
0
 40
0
 40
1
 40
1
 40
1
 40
1
 10
102.570139
 20
52.566869
 30
0.0
 10
104.406370
 20
52.223828
 30
0.0
 10
105.692222
 20
52.576055
 30
0.0
 10
105.692222
 20
53.422355
 30
0.0
  0
SPLINE
  5
1e6
100
AcDbEntity
  8
0
 62
7
100
AcDbSpline
 70
8
 71
3
 72
8
 73
4
 74
0
 40
0
 40
0
 40
0
 40
0
 40
1
 40
1
 40
1
 40
1
 10
105.692222
 20
53.422355
 30
0.0
 10
105.692222
 20
53.908060
 30
0.0
 10
105.949377
 20
53.974636
 30
0.0
 10
107.173889
 20
53.810411
 30
0.0
  0
SPLINE
  5
1e7
100
AcDbEntity
  8
0
 62
7
100
AcDbSpline
 70
8
 71
3
 72
8
 73
4
 74
0
 40
0
 40
0
 40
0
 40
0
 40
1
 40
1
 40
1
 40
1
 10
107.173889
 20
53.810411
 30
0.0
 10
109.023288
 20
53.562337
 30
0.0
 10
109.803703
 20
53.969471
 30
0.0
 10
110.101944
 20
55.327355
 30
0.0
  0
SPLINE
  5
1e8
100
AcDbEntity
  8
0
 62
7
100
AcDbSpline
 70
8
 71
3
 72
8
 73
4
 74
0
 40
0
 40
0
 40
0
 40
0
 40
1
 40
1
 40
1
 40
1
 10
110.101944
 20
55.327355
 30
0.0
 10
110.358473
 20
56.495321
 30
0.0
 10
110.556483
 20
56.566085
 30
0.0
 10
111.804097
 20
55.997633
 30
0.0
  0
SPLINE
  5
1e9
100
AcDbEntity
  8
0
 62
7
100
AcDbSpline
 70
8
 71
3
 72
8
 73
4
 74
0
 40
0
 40
0
 40
0
 40
0
 40
1
 40
1
 40
1
 40
1
 10
111.804097
 20
55.997633
 30
0.0
 10
112.485506
 20
55.687166
 30
0.0
 10
112.969085
 20
55.762531
 30
0.0
 10
114.317639
 20
56.376869
 30
0.0
  0
SPLINE
  5
1ea
100
AcDbEntity
  8
0
 62
7
100
AcDbSpline
 70
8
 71
3
 72
8
 73
4
 74
0
 40
0
 40
0
 40
0
 40
0
 40
1
 40
1
 40
1
 40
1
 10
114.317639
 20
56.376869
 30
0.0
 10
115.238578
 20
56.796407
 30
0.0
 10
116.197659
 20
57.061964
 30
0.0
 10
116.443125
 20
56.967772
 30
0.0
  0
SPLINE
  5
1eb
100
AcDbEntity
  8
0
 62
7
100
AcDbSpline
 70
8
 71
3
 72
8
 73
4
 74
0
 40
0
 40
0
 40
0
 40
0
 40
1
 40
1
 40
1
 40
1
 10
116.443125
 20
56.967772
 30
0.0
 10
116.894539
 20
56.794544
 30
0.0
 10
119.773508
 20
51.134239
 30
0.0
 10
121.223264
 20
47.566244
 30
0.0
  0
SPLINE
  5
1ec
100
AcDbEntity
  8
0
 62
7
100
AcDbSpline
 70
8
 71
3
 72
8
 73
4
 74
0
 40
0
 40
0
 40
0
 40
0
 40
1
 40
1
 40
1
 40
1
 10
121.223264
 20
47.566244
 30
0.0
 10
121.656873
 20
46.499077
 30
0.0
 10
122.304861
 20
44.976940
 30
0.0
 10
122.669653
 20
44.179577
 30
0.0
  0
SPLINE
  5
1ed
100
AcDbEntity
  8
0
 62
7
100
AcDbSpline
 70
8
 71
3
 72
8
 73
4
 74
0
 40
0
 40
0
 40
0
 40
0
 40
1
 40
1
 40
1
 40
1
 10
122.669653
 20
44.179577
 30
0.0
 10
123.034448
 20
43.382215
 30
0.0
 10
123.331676
 20
42.588465
 30
0.0
 10
123.331111
 20
42.415689
 30
0.0
  0
SPLINE
  5
1ee
100
AcDbEntity
  8
0
 62
7
100
AcDbSpline
 70
8
 71
3
 72
8
 73
4
 74
0
 40
0
 40
0
 40
0
 40
0
 40
1
 40
1
 40
1
 40
1
 10
123.331111
 20
42.415689
 30
0.0
 10
123.330569
 20
42.242912
 30
0.0
 10
123.637223
 20
41.463189
 30
0.0
 10
124.010208
 20
40.687077
 30
0.0
  0
SPLINE
  5
1ef
100
AcDbEntity
  8
0
 62
7
100
AcDbSpline
 70
8
 71
3
 72
8
 73
4
 74
0
 40
0
 40
0
 40
0
 40
0
 40
1
 40
1
 40
1
 40
1
 10
124.010208
 20
40.687077
 30
0.0
 10
125.807018
 20
36.948254
 30
0.0
 10
125.897826
 20
36.533091
 30
0.0
 10
125.324306
 20
34.663397
 30
0.0
  0
SPLINE
  5
1f0
100
AcDbEntity
  8
0
 62
7
100
AcDbSpline
 70
8
 71
3
 72
8
 73
4
 74
0
 40
0
 40
0
 40
0
 40
0
 40
1
 40
1
 40
1
 40
1
 10
125.324306
 20
34.663397
 30
0.0
 10
124.413950
 20
31.695604
 30
0.0
 10
124.366421
 20
29.629978
 30
0.0
 10
125.183194
 20
28.869022
 30
0.0
  0
SPLINE
  5
1f1
100
AcDbEntity
  8
0
 62
7
100
AcDbSpline
 70
8
 71
3
 72
8
 73
4
 74
0
 40
0
 40
0
 40
0
 40
0
 40
1
 40
1
 40
1
 40
1
 10
125.183194
 20
28.869022
 30
0.0
 10
125.611114
 20
28.470355
 30
0.0
 10
125.954062
 20
27.570249
 30
0.0
 10
126.065139
 20
26.584786
 30
0.0
  0
SPLINE
  5
1f2
100
AcDbEntity
  8
0
 62
7
100
AcDbSpline
 70
8
 71
3
 72
8
 73
4
 74
0
 40
0
 40
0
 40
0
 40
0
 40
1
 40
1
 40
1
 40
1
 10
126.065139
 20
26.584786
 30
0.0
 10
126.181361
 20
25.553659
 30
0.0
 10
126.493922
 20
24.796090
 30
0.0
 10
126.911806
 20
24.503397
 30
0.0
  0
SPLINE
  5
1f3
100
AcDbEntity
  8
0
 62
7
100
AcDbSpline
 70
8
 71
3
 72
8
 73
4
 74
0
 40
0
 40
0
 40
0
 40
0
 40
1
 40
1
 40
1
 40
1
 10
126.911806
 20
24.503397
 30
0.0
 10
127.518640
 20
24.078370
 30
0.0
 10
127.523409
 20
23.956097
 30
0.0
 10
127.035278
 20
22.977633
 30
0.0
  0
SPLINE
  5
1f4
100
AcDbEntity
  8
0
 62
7
100
AcDbSpline
 70
8
 71
3
 72
8
 73
4
 74
0
 40
0
 40
0
 40
0
 40
0
 40
1
 40
1
 40
1
 40
1
 10
127.035278
 20
22.977633
 30
0.0
 10
126.706057
 20
22.317685
 30
0.0
 10
126.426900
 20
20.313314
 30
0.0
 10
126.285625
 20
17.685966
 30
0.0
  0
LWPOLYLINE
  5
1f5
100
AcDbEntity
  8
0
 62
7
100
AcDbPolyline
 90
3
 70
0
 10
86.598125
 20
60.865966
 30
0.0
 10
88.053333
 20
61.068814
 30
0.0
 10
88.053333
 20
59.569508
 30
0.0
  0
SPLINE
  5
1f6
100
AcDbEntity
  8
0
 62
7
100
AcDbSpline
 70
8
 71
3
 72
8
 73
4
 74
0
 40
0
 40
0
 40
0
 40
0
 40
1
 40
1
 40
1
 40
1
 10
127.352778
 20
12.023883
 30
0.0
 10
128.734752
 20
10.494210
 30
0.0
 10
131.663389
 20
8.760689
 30
0.0
 10
132.864931
 20
8.760689
 30
0.0
  0
SPLINE
  5
1f7
100
AcDbEntity
  8
0
 62
7
100
AcDbSpline
 70
8
 71
3
 72
8
 73
4
 74
0
 40
0
 40
0
 40
0
 40
0
 40
1
 40
1
 40
1
 40
1
 10
132.864931
 20
8.760689
 30
0.0
 10
133.262647
 20
8.760689
 30
0.0
 10
133.679291
 20
8.998799
 30
0.0
 10
133.790972
 20
9.289855
 30
0.0
  0
SPLINE
  5
1f8
100
AcDbEntity
  8
0
 62
7
100
AcDbSpline
 70
8
 71
3
 72
8
 73
4
 74
0
 40
0
 40
0
 40
0
 40
0
 40
1
 40
1
 40
1
 40
1
 10
133.790972
 20
9.289855
 30
0.0
 10
134.039455
 20
9.937386
 30
0.0
 10
134.620000
 20
9.994437
 30
0.0
 10
134.620000
 20
9.369230
 30
0.0
  0
SPLINE
  5
1f9
100
AcDbEntity
  8
0
 62
7
100
AcDbSpline
 70
8
 71
3
 72
8
 73
4
 74
0
 40
0
 40
0
 40
0
 40
0
 40
1
 40
1
 40
1
 40
1
 10
134.620000
 20
9.369230
 30
0.0
 10
134.620000
 20
8.489741
 30
0.0
 10
136.584190
 20
6.662931
 30
0.0
 10
138.668125
 20
5.603327
 30
0.0
  0
SPLINE
  5
1fa
100
AcDbEntity
  8
0
 62
7
100
AcDbSpline
 70
8
 71
3
 72
8
 73
4
 74
0
 40
0
 40
0
 40
0
 40
0
 40
1
 40
1
 40
1
 40
1
 10
138.668125
 20
5.603327
 30
0.0
 10
139.826938
 20
5.014104
 30
0.0
 10
140.924164
 20
4.527355
 30
0.0
 10
141.102292
 20
4.527355
 30
0.0
  0
SPLINE
  5
1fb
100
AcDbEntity
  8
0
 62
7
100
AcDbSpline
 70
8
 71
3
 72
8
 73
4
 74
0
 40
0
 40
0
 40
0
 40
0
 40
1
 40
1
 40
1
 40
1
 10
141.102292
 20
4.527355
 30
0.0
 10
141.280416
 20
4.527355
 30
0.0
 10
142.077604
 20
4.219860
 30
0.0
 10
142.875000
 20
3.848258
 30
0.0
  0
SPLINE
  5
1fc
100
AcDbEntity
  8
0
 62
7
100
AcDbSpline
 70
8
 71
3
 72
8
 73
4
 74
0
 40
0
 40
0
 40
0
 40
0
 40
1
 40
1
 40
1
 40
1
 10
142.875000
 20
3.848258
 30
0.0
 10
145.783241
 20
2.492829
 30
0.0
 10
149.304767
 20
1.625321
 30
0.0
 10
150.821319
 20
1.881522
 30
0.0
  0
SPLINE
  5
1fd
100
AcDbEntity
  8
0
 62
7
100
AcDbSpline
 70
8
 71
3
 72
8
 73
4
 74
0
 40
0
 40
0
 40
0
 40
0
 40
1
 40
1
 40
1
 40
1
 10
150.821319
 20
1.881522
 30
0.0
 10
151.612264
 20
2.015154
 30
0.0
 10
152.258889
 20
2.245504
 30
0.0
 10
152.258889
 20
2.393050
 30
0.0
  0
SPLINE
  5
1fe
100
AcDbEntity
  8
0
 62
7
100
AcDbSpline
 70
8
 71
3
 72
8
 73
4
 74
0
 40
0
 40
0
 40
0
 40
0
 40
1
 40
1
 40
1
 40
1
 10
152.258889
 20
2.393050
 30
0.0
 10
152.258889
 20
2.540567
 30
0.0
 10
152.854200
 20
2.917038
 30
0.0
 10
153.581806
 20
3.230897
 30
0.0
  0
SPLINE
  5
1ff
100
AcDbEntity
  8
0
 62
7
100
AcDbSpline
 70
8
 71
3
 72
8
 73
4
 74
0
 40
0
 40
0
 40
0
 40
0
 40
1
 40
1
 40
1
 40
1
 10
153.581806
 20
3.230897
 30
0.0
 10
155.048509
 20
3.863583
 30
0.0
 10
155.945360
 20
4.406790
 30
0.0
 10
156.968472
 20
5.303466
 30
0.0
  0
SPLINE
  5
200
100
AcDbEntity
  8
0
 62
7
100
AcDbSpline
 70
8
 71
3
 72
8
 73
4
 74
0
 40
0
 40
0
 40
0
 40
0
 40
1
 40
1
 40
1
 40
1
 10
156.968472
 20
5.303466
 30
0.0
 10
157.539794
 20
5.804213
 30
0.0
 10
157.647569
 20
6.376447
 30
0.0
 10
157.647569
 20
8.795966
 30
0.0
  0
SPLINE
  5
201
100
AcDbEntity
  8
0
 62
7
100
AcDbSpline
 70
8
 71
3
 72
8
 73
4
 74
0
 40
0
 40
0
 40
0
 40
0
 40
1
 40
1
 40
1
 40
1
 10
157.647569
 20
8.795966
 30
0.0
 10
157.647569
 20
11.427039
 30
0.0
 10
157.573924
 20
11.744920
 30
0.0
 10
156.809722
 20
12.332564
 30
0.0
  0
SPLINE
  5
202
100
AcDbEntity
  8
0
 62
7
100
AcDbSpline
 70
8
 71
3
 72
8
 73
4
 74
0
 40
0
 40
0
 40
0
 40
0
 40
1
 40
1
 40
1
 40
1
 10
156.809722
 20
12.332564
 30
0.0
 10
156.347628
 20
12.687881
 30
0.0
 10
155.727671
 20
12.980969
 30
0.0
 10
155.433889
 20
12.985202
 30
0.0
  0
SPLINE
  5
203
100
AcDbEntity
  8
0
 62
7
100
AcDbSpline
 70
8
 71
3
 72
8
 73
4
 74
0
 40
0
 40
0
 40
0
 40
0
 40
1
 40
1
 40
1
 40
1
 10
155.433889
 20
12.985202
 30
0.0
 10
154.644155
 20
12.996802
 30
0.0
 10
151.538810
 20
14.199562
 30
0.0
 10
150.309792
 20
14.969577
 30
0.0
  0
SPLINE
  5
204
100
AcDbEntity
  8
0
 62
7
100
AcDbSpline
 70
8
 71
3
 72
8
 73
4
 74
0
 40
0
 40
0
 40
0
 40
0
 40
1
 40
1
 40
1
 40
1
 10
150.309792
 20
14.969577
 30
0.0
 10
149.721209
 20
15.338357
 30
0.0
 10
148.727792
 20
15.957355
 30
0.0
 10
148.104931
 20
16.345411
 30
0.0
  0
SPLINE
  5
205
100
AcDbEntity
  8
0
 62
7
100
AcDbSpline
 70
8
 71
3
 72
8
 73
4
 74
0
 40
0
 40
0
 40
0
 40
0
 40
1
 40
1
 40
1
 40
1
 10
148.104931
 20
16.345411
 30
0.0
 10
147.482066
 20
16.733466
 30
0.0
 10
146.977171
 20
17.152609
 30
0.0
 10
146.976042
 20
17.271452
 30
0.0
  0
SPLINE
  5
206
100
AcDbEntity
  8
0
 62
7
100
AcDbSpline
 70
8
 71
3
 72
8
 73
4
 74
0
 40
0
 40
0
 40
0
 40
0
 40
1
 40
1
 40
1
 40
1
 10
146.976042
 20
17.271452
 30
0.0
 10
146.974007
 20
17.468867
 30
0.0
 10
145.461979
 20
19.515133
 30
0.0
 10
144.436042
 20
20.719855
 30
0.0
  0
SPLINE
  5
207
100
AcDbEntity
  8
0
 62
7
100
AcDbSpline
 70
8
 71
3
 72
8
 73
4
 74
0
 40
0
 40
0
 40
0
 40
0
 40
1
 40
1
 40
1
 40
1
 10
144.436042
 20
20.719855
 30
0.0
 10
143.871501
 20
21.382767
 30
0.0
 10
142.059970
 20
25.055565
 30
0.0
 10
142.045972
 20
25.561730
 30
0.0
  0
SPLINE
  5
208
100
AcDbEntity
  8
0
 62
7
100
AcDbSpline
 70
8
 71
3
 72
8
 73
4
 74
0
 40
0
 40
0
 40
0
 40
0
 40
1
 40
1
 40
1
 40
1
 10
142.045972
 20
25.561730
 30
0.0
 10
142.039885
 20
25.781948
 30
0.0
 10
141.639609
 20
26.220268
 30
0.0
 10
141.164028
 20
26.531869
 30
0.0
  0
SPLINE
  5
209
100
AcDbEntity
  8
0
 62
7
100
AcDbSpline
 70
8
 71
3
 72
8
 73
4
 74
0
 40
0
 40
0
 40
0
 40
0
 40
1
 40
1
 40
1
 40
1
 10
141.164028
 20
26.531869
 30
0.0
 10
140.392692
 20
27.037273
 30
0.0
 10
140.347246
 20
27.211898
 30
0.0
 10
140.678958
 20
28.163466
 30
0.0
  0
SPLINE
  5
20a
100
AcDbEntity
  8
0
 62
7
100
AcDbSpline
 70
8
 71
3
 72
8
 73
4
 74
0
 40
0
 40
0
 40
0
 40
0
 40
1
 40
1
 40
1
 40
1
 10
140.678958
 20
28.163466
 30
0.0
 10
141.017027
 20
29.133238
 30
0.0
 10
140.934700
 20
29.356942
 30
0.0
 10
139.805833
 20
30.606452
 30
0.0
  0
SPLINE
  5
20b
100
AcDbEntity
  8
0
 62
7
100
AcDbSpline
 70
8
 71
3
 72
8
 73
4
 74
0
 40
0
 40
0
 40
0
 40
0
 40
1
 40
1
 40
1
 40
1
 10
139.805833
 20
30.606452
 30
0.0
 10
138.724962
 20
31.802821
 30
0.0
 10
138.583475
 20
32.152734
 30
0.0
 10
138.738681
 20
33.331661
 30
0.0
  0
SPLINE
  5
20c
100
AcDbEntity
  8
0
 62
7
100
AcDbSpline
 70
8
 71
3
 72
8
 73
4
 74
0
 40
0
 40
0
 40
0
 40
0
 40
1
 40
1
 40
1
 40
1
 10
138.738681
 20
33.331661
 30
0.0
 10
138.881293
 20
34.414943
 30
0.0
 10
138.723220
 20
34.972303
 30
0.0
 10
137.944931
 20
36.100966
 30
0.0
  0
SPLINE
  5
20d
100
AcDbEntity
  8
0
 62
7
100
AcDbSpline
 70
8
 71
3
 72
8
 73
4
 74
0
 40
0
 40
0
 40
0
 40
0
 40
1
 40
1
 40
1
 40
1
 10
137.944931
 20
36.100966
 30
0.0
 10
137.409750
 20
36.877077
 30
0.0
 10
136.606734
 20
38.053859
 30
0.0
 10
136.154583
 20
38.711522
 30
0.0
  0
SPLINE
  5
20e
100
AcDbEntity
  8
0
 62
7
100
AcDbSpline
 70
8
 71
3
 72
8
 73
4
 74
0
 40
0
 40
0
 40
0
 40
0
 40
1
 40
1
 40
1
 40
1
 10
136.154583
 20
38.711522
 30
0.0
 10
135.702432
 20
39.369184
 30
0.0
 10
135.325556
 20
40.212337
 30
0.0
 10
135.325556
 20
40.590064
 30
0.0
  0
SPLINE
  5
20f
100
AcDbEntity
  8
0
 62
7
100
AcDbSpline
 70
8
 71
3
 72
8
 73
4
 74
0
 40
0
 40
0
 40
0
 40
0
 40
1
 40
1
 40
1
 40
1
 10
135.325556
 20
40.590064
 30
0.0
 10
135.325556
 20
40.967790
 30
0.0
 10
135.028488
 20
42.419216
 30
0.0
 10
134.655278
 20
43.809161
 30
0.0
  0
SPLINE
  5
210
100
AcDbEntity
  8
0
 62
7
100
AcDbSpline
 70
8
 71
3
 72
8
 73
4
 74
0
 40
0
 40
0
 40
0
 40
0
 40
1
 40
1
 40
1
 40
1
 10
134.655278
 20
43.809161
 30
0.0
 10
133.042460
 20
49.815781
 30
0.0
 10
132.746891
 20
51.003513
 30
0.0
 10
132.512153
 20
52.505133
 30
0.0
  0
SPLINE
  5
211
100
AcDbEntity
  8
0
 62
7
100
AcDbSpline
 70
8
 71
3
 72
8
 73
4
 74
0
 40
0
 40
0
 40
0
 40
0
 40
1
 40
1
 40
1
 40
1
 10
132.512153
 20
52.505133
 30
0.0
 10
132.280062
 20
53.989791
 30
0.0
 10
131.813715
 20
56.013073
 30
0.0
 10
130.518958
 20
61.148189
 30
0.0
  0
SPLINE
  5
212
100
AcDbEntity
  8
0
 62
7
100
AcDbSpline
 70
8
 71
3
 72
8
 73
4
 74
0
 40
0
 40
0
 40
0
 40
0
 40
1
 40
1
 40
1
 40
1
 10
130.518958
 20
61.148189
 30
0.0
 10
130.225430
 20
62.312355
 30
0.0
 10
129.840843
 20
64.027880
 30
0.0
 10
129.672292
 20
64.958189
 30
0.0
  0
SPLINE
  5
213
100
AcDbEntity
  8
0
 62
7
100
AcDbSpline
 70
8
 71
3
 72
8
 73
4
 74
0
 40
0
 40
0
 40
0
 40
0
 40
1
 40
1
 40
1
 40
1
 10
129.672292
 20
64.958189
 30
0.0
 10
129.503743
 20
65.888500
 30
0.0
 10
129.273475
 20
66.940218
 30
0.0
 10
129.160764
 20
67.295341
 30
0.0
  0
SPLINE
  5
214
100
AcDbEntity
  8
0
 62
7
100
AcDbSpline
 70
8
 71
3
 72
8
 73
4
 74
0
 40
0
 40
0
 40
0
 40
0
 40
1
 40
1
 40
1
 40
1
 10
129.160764
 20
67.295341
 30
0.0
 10
128.997498
 20
67.809742
 30
0.0
 10
129.150923
 20
67.939161
 30
0.0
 10
129.892778
 20
67.939161
 30
0.0
  0
SPLINE
  5
215
100
AcDbEntity
  8
0
 62
7
100
AcDbSpline
 70
8
 71
3
 72
8
 73
4
 74
0
 40
0
 40
0
 40
0
 40
0
 40
1
 40
1
 40
1
 40
1
 10
129.892778
 20
67.939161
 30
0.0
 10
131.340372
 20
67.939161
 30
0.0
 10
133.774327
 20
70.629137
 30
0.0
 10
134.055556
 20
72.534091
 30
0.0
  0
SPLINE
  5
216
100
AcDbEntity
  8
0
 62
7
100
AcDbSpline
 70
8
 71
3
 72
8
 73
4
 74
0
 40
0
 40
0
 40
0
 40
0
 40
1
 40
1
 40
1
 40
1
 10
134.055556
 20
72.534091
 30
0.0
 10
134.253735
 20
73.876515
 30
0.0
 10
134.194488
 20
74.068556
 30
0.0
 10
133.482292
 20
74.342077
 30
0.0
  0
SPLINE
  5
217
100
AcDbEntity
  8
0
 62
7
100
AcDbSpline
 70
8
 71
3
 72
8
 73
4
 74
0
 40
0
 40
0
 40
0
 40
0
 40
1
 40
1
 40
1
 40
1
 10
133.482292
 20
74.342077
 30
0.0
 10
132.939347
 20
74.550597
 30
0.0
 10
132.477304
 20
75.261752
 30
0.0
 10
132.035903
 20
76.546939
 30
0.0
  0
SPLINE
  5
218
100
AcDbEntity
  8
0
 62
7
100
AcDbSpline
 70
8
 71
3
 72
8
 73
4
 74
0
 40
0
 40
0
 40
0
 40
0
 40
1
 40
1
 40
1
 40
1
 10
132.035903
 20
76.546939
 30
0.0
 10
131.400093
 20
78.398161
 30
0.0
 10
130.324524
 20
80.905031
 30
0.0
 10
128.957917
 20
83.725966
 30
0.0
  0
SPLINE
  5
219
100
AcDbEntity
  8
0
 62
7
100
AcDbSpline
 70
8
 71
3
 72
8
 73
4
 74
0
 40
0
 40
0
 40
0
 40
0
 40
1
 40
1
 40
1
 40
1
 10
128.957917
 20
83.725966
 30
0.0
 10
128.119214
 20
85.457160
 30
0.0
 10
128.115243
 20
85.825465
 30
0.0
 10
128.975556
 20
87.606522
 30
0.0
  0
SPLINE
  5
21a
100
AcDbEntity
  8
0
 62
7
100
AcDbSpline
 70
8
 71
3
 72
8
 73
4
 74
0
 40
0
 40
0
 40
0
 40
0
 40
1
 40
1
 40
1
 40
1
 10
128.975556
 20
87.606522
 30
0.0
 10
129.350445
 20
88.382633
 30
0.0
 10
129.665688
 20
89.303448
 30
0.0
 10
129.672292
 20
89.652633
 30
0.0
  0
SPLINE
  5
21b
100
AcDbEntity
  8
0
 62
7
100
AcDbSpline
 70
8
 71
3
 72
8
 73
4
 74
0
 40
0
 40
0
 40
0
 40
0
 40
1
 40
1
 40
1
 40
1
 10
129.672292
 20
89.652633
 30
0.0
 10
129.678876
 20
90.001815
 30
0.0
 10
129.924519
 20
90.749859
 30
0.0
 10
130.219097
 20
91.319508
 30
0.0
  0
SPLINE
  5
21c
100
AcDbEntity
  8
0
 62
7
100
AcDbSpline
 70
8
 71
3
 72
8
 73
4
 74
0
 40
0
 40
0
 40
0
 40
0
 40
1
 40
1
 40
1
 40
1
 10
130.219097
 20
91.319508
 30
0.0
 10
131.308193
 20
93.425589
 30
0.0
 10
132.502769
 20
102.720439
 30
0.0
 10
132.503333
 20
109.125966
 30
0.0
  0
LWPOLYLINE
  5
21d
100
AcDbEntity
  8
0
 62
7
100
AcDbPolyline
 90
3
 70
0
 10
126.285625
 20
17.685966
 30
0.0
 10
126.056319
 20
13.461452
 30
0.0
 10
127.352778
 20
12.023883
 30
0.0
  0
SPLINE
  5
21e
100
AcDbEntity
  8
0
 62
7
100
AcDbSpline
 70
8
 71
3
 72
8
 73
4
 74
0
 40
0
 40
0
 40
0
 40
0
 40
1
 40
1
 40
1
 40
1
 10
138.588750
 20
117.910133
 30
0.0
 10
141.937526
 20
121.187241
 30
0.0
 10
149.595417
 20
128.688378
 30
0.0
 10
155.610278
 20
134.578883
 30
0.0
  0
SPLINE
  5
21f
100
AcDbEntity
  8
0
 62
7
100
AcDbSpline
 70
8
 71
3
 72
8
 73
4
 74
0
 40
0
 40
0
 40
0
 40
0
 40
1
 40
1
 40
1
 40
1
 10
155.610278
 20
134.578883
 30
0.0
 10
167.685918
 20
146.404858
 30
0.0
 10
168.995008
 20
147.550401
 30
0.0
 10
167.754653
 20
145.232772
 30
0.0
  0
SPLINE
  5
220
100
AcDbEntity
  8
0
 62
7
100
AcDbSpline
 70
8
 71
3
 72
8
 73
4
 74
0
 40
0
 40
0
 40
0
 40
0
 40
1
 40
1
 40
1
 40
1
 10
167.754653
 20
145.232772
 30
0.0
 10
167.543754
 20
144.838702
 30
0.0
 10
167.231980
 20
143.069731
 30
0.0
 10
167.066736
 20
141.308119
 30
0.0
  0
SPLINE
  5
221
100
AcDbEntity
  8
0
 62
7
100
AcDbSpline
 70
8
 71
3
 72
8
 73
4
 74
0
 40
0
 40
0
 40
0
 40
0
 40
1
 40
1
 40
1
 40
1
 10
167.066736
 20
141.308119
 30
0.0
 10
166.850540
 20
139.003394
 30
0.0
 10
166.616425
 20
138.019790
 30
0.0
 10
166.220069
 20
137.797980
 30
0.0
  0
SPLINE
  5
222
100
AcDbEntity
  8
0
 62
7
100
AcDbSpline
 70
8
 71
3
 72
8
 73
4
 74
0
 40
0
 40
0
 40
0
 40
0
 40
1
 40
1
 40
1
 40
1
 10
166.220069
 20
137.797980
 30
0.0
 10
165.917121
 20
137.628444
 30
0.0
 10
165.664444
 20
137.259173
 30
0.0
 10
165.664444
 20
136.977772
 30
0.0
  0
SPLINE
  5
223
100
AcDbEntity
  8
0
 62
7
100
AcDbSpline
 70
8
 71
3
 72
8
 73
4
 74
0
 40
0
 40
0
 40
0
 40
0
 40
1
 40
1
 40
1
 40
1
 10
165.664444
 20
136.977772
 30
0.0
 10
165.664444
 20
136.696371
 30
0.0
 10
165.544074
 20
136.466244
 30
0.0
 10
165.391042
 20
136.466244
 30
0.0
  0
SPLINE
  5
224
100
AcDbEntity
  8
0
 62
7
100
AcDbSpline
 70
8
 71
3
 72
8
 73
4
 74
0
 40
0
 40
0
 40
0
 40
0
 40
1
 40
1
 40
1
 40
1
 10
165.391042
 20
136.466244
 30
0.0
 10
165.238009
 20
136.466244
 30
0.0
 10
164.601133
 20
135.630322
 30
0.0
 10
163.979931
 20
134.605341
 30
0.0
  0
LWPOLYLINE
  5
225
100
AcDbEntity
  8
0
 62
7
100
AcDbPolyline
 90
3
 70
0
 10
132.503333
 20
109.125966
 30
0.0
 10
132.503333
 20
111.948189
 30
0.0
 10
138.588750
 20
117.910133
 30
0.0
  0
SPLINE
  5
226
100
AcDbEntity
  8
0
 62
7
100
AcDbSpline
 70
8
 71
3
 72
8
 73
4
 74
0
 40
0
 40
0
 40
0
 40
0
 40
1
 40
1
 40
1
 40
1
 10
163.230278
 20
129.631175
 30
0.0
 10
163.600364
 20
126.605583
 30
0.0
 10
163.594432
 20
126.504435
 30
0.0
 10
162.824583
 20
125.935827
 30
0.0
  0
SPLINE
  5
227
100
AcDbEntity
  8
0
 62
7
100
AcDbSpline
 70
8
 71
3
 72
8
 73
4
 74
0
 40
0
 40
0
 40
0
 40
0
 40
1
 40
1
 40
1
 40
1
 10
162.824583
 20
125.935827
 30
0.0
 10
162.389569
 20
125.614529
 30
0.0
 10
160.953597
 20
124.321869
 30
0.0
 10
159.640764
 20
123.060689
 30
0.0
  0
SPLINE
  5
228
100
AcDbEntity
  8
0
 62
7
100
AcDbSpline
 70
8
 71
3
 72
8
 73
4
 74
0
 40
0
 40
0
 40
0
 40
0
 40
1
 40
1
 40
1
 40
1
 10
159.640764
 20
123.060689
 30
0.0
 10
156.691993
 20
120.227939
 30
0.0
 10
156.148927
 20
118.691406
 30
0.0
 10
156.086528
 20
112.988883
 30
0.0
  0
SPLINE
  5
229
100
AcDbEntity
  8
0
 62
7
100
AcDbSpline
 70
8
 71
3
 72
8
 73
4
 74
0
 40
0
 40
0
 40
0
 40
0
 40
1
 40
1
 40
1
 40
1
 10
156.086528
 20
112.988883
 30
0.0
 10
156.063301
 20
110.866112
 30
0.0
 10
155.917894
 20
108.781308
 30
0.0
 10
155.760208
 20
108.358675
 30
0.0
  0
SPLINE
  5
22a
100
AcDbEntity
  8
0
 62
7
100
AcDbSpline
 70
8
 71
3
 72
8
 73
4
 74
0
 40
0
 40
0
 40
0
 40
0
 40
1
 40
1
 40
1
 40
1
 10
155.760208
 20
108.358675
 30
0.0
 10
155.371315
 20
107.316329
 30
0.0
 10
153.550967
 20
105.548882
 30
0.0
 10
150.988889
 20
103.737286
 30
0.0
  0
LWPOLYLINE
  5
22b
100
AcDbEntity
  8
0
 62
7
100
AcDbPolyline
 90
3
 70
0
 10
163.979931
 20
134.605341
 30
0.0
 10
162.851042
 20
132.735619
 30
0.0
 10
163.230278
 20
129.631175
 30
0.0
  0
SPLINE
  5
22c
100
AcDbEntity
  8
0
 62
7
100
AcDbSpline
 70
8
 71
3
 72
8
 73
4
 74
0
 40
0
 40
0
 40
0
 40
0
 40
1
 40
1
 40
1
 40
1
 10
147.937361
 20
98.445619
 30
0.0
 10
147.429056
 20
96.362568
 30
0.0
 10
146.902723
 20
94.280564
 30
0.0
 10
146.764375
 20
93.815411
 30
0.0
  0
SPLINE
  5
22d
100
AcDbEntity
  8
0
 62
7
100
AcDbSpline
 70
8
 71
3
 72
8
 73
4
 74
0
 40
0
 40
0
 40
0
 40
0
 40
1
 40
1
 40
1
 40
1
 10
146.764375
 20
93.815411
 30
0.0
 10
146.529639
 20
93.026168
 30
0.0
 10
146.575241
 20
92.988923
 30
0.0
 10
147.531667
 20
93.224508
 30
0.0
  0
SPLINE
  5
22e
100
AcDbEntity
  8
0
 62
7
100
AcDbSpline
 70
8
 71
3
 72
8
 73
4
 74
0
 40
0
 40
0
 40
0
 40
0
 40
1
 40
1
 40
1
 40
1
 10
147.531667
 20
93.224508
 30
0.0
 10
148.836535
 20
93.545922
 30
0.0
 10
153.085701
 20
96.389853
 30
0.0
 10
154.781250
 20
98.075202
 30
0.0
  0
SPLINE
  5
22f
100
AcDbEntity
  8
0
 62
7
100
AcDbSpline
 70
8
 71
3
 72
8
 73
4
 74
0
 40
0
 40
0
 40
0
 40
0
 40
1
 40
1
 40
1
 40
1
 10
154.781250
 20
98.075202
 30
0.0
 10
155.886686
 20
99.173987
 30
0.0
 10
156.215043
 20
99.885641
 30
0.0
 10
156.959653
 20
102.837702
 30
0.0
  0
SPLINE
  5
230
100
AcDbEntity
  8
0
 62
7
100
AcDbSpline
 70
8
 71
3
 72
8
 73
4
 74
0
 40
0
 40
0
 40
0
 40
0
 40
1
 40
1
 40
1
 40
1
 10
156.959653
 20
102.837702
 30
0.0
 10
157.441135
 20
104.746577
 30
0.0
 10
157.936686
 20
107.780272
 30
0.0
 10
158.062083
 20
109.584577
 30
0.0
  0
SPLINE
  5
231
100
AcDbEntity
  8
0
 62
7
100
AcDbSpline
 70
8
 71
3
 72
8
 73
4
 74
0
 40
0
 40
0
 40
0
 40
0
 40
1
 40
1
 40
1
 40
1
 10
158.062083
 20
109.584577
 30
0.0
 10
158.187480
 20
111.388886
 30
0.0
 10
158.503095
 20
113.373261
 30
0.0
 10
158.767639
 20
113.994300
 30
0.0
  0
SPLINE
  5
232
100
AcDbEntity
  8
0
 62
7
100
AcDbSpline
 70
8
 71
3
 72
8
 73
4
 74
0
 40
0
 40
0
 40
0
 40
0
 40
1
 40
1
 40
1
 40
1
 10
158.767639
 20
113.994300
 30
0.0
 10
159.032180
 20
114.615341
 30
0.0
 10
159.646360
 20
116.065577
 30
0.0
 10
160.134653
 20
117.213397
 30
0.0
  0
SPLINE
  5
233
100
AcDbEntity
  8
0
 62
7
100
AcDbSpline
 70
8
 71
3
 72
8
 73
4
 74
0
 40
0
 40
0
 40
0
 40
0
 40
1
 40
1
 40
1
 40
1
 10
160.134653
 20
117.213397
 30
0.0
 10
160.622940
 20
118.361212
 30
0.0
 10
161.274413
 20
119.589310
 30
0.0
 10
161.581042
 20
119.947425
 30
0.0
  0
SPLINE
  5
234
100
AcDbEntity
  8
0
 62
7
100
AcDbSpline
 70
8
 71
3
 72
8
 73
4
 74
0
 40
0
 40
0
 40
0
 40
0
 40
1
 40
1
 40
1
 40
1
 10
161.581042
 20
119.947425
 30
0.0
 10
161.887668
 20
120.305542
 30
0.0
 10
162.136667
 20
120.672631
 30
0.0
 10
162.136667
 20
120.758814
 30
0.0
  0
SPLINE
  5
235
100
AcDbEntity
  8
0
 62
7
100
AcDbSpline
 70
8
 71
3
 72
8
 73
4
 74
0
 40
0
 40
0
 40
0
 40
0
 40
1
 40
1
 40
1
 40
1
 10
162.136667
 20
120.758814
 30
0.0
 10
162.136667
 20
121.105512
 30
0.0
 10
164.020743
 20
123.673509
 30
0.0
 10
165.161736
 20
124.886314
 30
0.0
  0
SPLINE
  5
236
100
AcDbEntity
  8
0
 62
7
100
AcDbSpline
 70
8
 71
3
 72
8
 73
4
 74
0
 40
0
 40
0
 40
0
 40
0
 40
1
 40
1
 40
1
 40
1
 10
165.161736
 20
124.886314
 30
0.0
 10
166.161700
 20
125.949213
 30
0.0
 10
166.370000
 20
126.448123
 30
0.0
 10
166.370000
 20
127.708536
 30
0.0
  0
SPLINE
  5
237
100
AcDbEntity
  8
0
 62
7
100
AcDbSpline
 70
8
 71
3
 72
8
 73
4
 74
0
 40
0
 40
0
 40
0
 40
0
 40
1
 40
1
 40
1
 40
1
 10
166.370000
 20
127.708536
 30
0.0
 10
166.370000
 20
128.550876
 30
0.0
 10
166.752549
 20
130.742876
 30
0.0
 10
167.216667
 20
132.585689
 30
0.0
  0
SPLINE
  5
238
100
AcDbEntity
  8
0
 62
7
100
AcDbSpline
 70
8
 71
3
 72
8
 73
4
 74
0
 40
0
 40
0
 40
0
 40
0
 40
1
 40
1
 40
1
 40
1
 10
167.216667
 20
132.585689
 30
0.0
 10
168.195712
 20
136.473088
 30
0.0
 10
168.452411
 20
137.171800
 30
0.0
 10
168.883542
 20
137.171800
 30
0.0
  0
SPLINE
  5
239
100
AcDbEntity
  8
0
 62
7
100
AcDbSpline
 70
8
 71
3
 72
8
 73
4
 74
0
 40
0
 40
0
 40
0
 40
0
 40
1
 40
1
 40
1
 40
1
 10
168.883542
 20
137.171800
 30
0.0
 10
169.056806
 20
137.171800
 30
0.0
 10
169.192222
 20
137.363217
 30
0.0
 10
169.192222
 20
137.595133
 30
0.0
  0
SPLINE
  5
23a
100
AcDbEntity
  8
0
 62
7
100
AcDbSpline
 70
8
 71
3
 72
8
 73
4
 74
0
 40
0
 40
0
 40
0
 40
0
 40
1
 40
1
 40
1
 40
1
 10
169.192222
 20
137.595133
 30
0.0
 10
169.192222
 20
138.198964
 30
0.0
 10
170.994852
 20
139.994022
 30
0.0
 10
171.599931
 20
139.994022
 30
0.0
  0
SPLINE
  5
23b
100
AcDbEntity
  8
0
 62
7
100
AcDbSpline
 70
8
 71
3
 72
8
 73
4
 74
0
 40
0
 40
0
 40
0
 40
0
 40
1
 40
1
 40
1
 40
1
 10
171.599931
 20
139.994022
 30
0.0
 10
171.990839
 20
139.994022
 30
0.0
 10
172.071431
 20
140.322712
 30
0.0
 10
171.926250
 20
141.405133
 30
0.0
  0
SPLINE
  5
23c
100
AcDbEntity
  8
0
 62
7
100
AcDbSpline
 70
8
 71
3
 72
8
 73
4
 74
0
 40
0
 40
0
 40
0
 40
0
 40
1
 40
1
 40
1
 40
1
 10
171.926250
 20
141.405133
 30
0.0
 10
171.783206
 20
142.471606
 30
0.0
 10
171.851551
 20
142.816244
 30
0.0
 10
172.226111
 20
142.816244
 30
0.0
  0
SPLINE
  5
23d
100
AcDbEntity
  8
0
 62
7
100
AcDbSpline
 70
8
 71
3
 72
8
 73
4
 74
0
 40
0
 40
0
 40
0
 40
0
 40
1
 40
1
 40
1
 40
1
 10
172.226111
 20
142.816244
 30
0.0
 10
172.498690
 20
142.816244
 30
0.0
 10
172.720000
 20
142.631761
 30
0.0
 10
172.720000
 20
142.401730
 30
0.0
  0
SPLINE
  5
23e
100
AcDbEntity
  8
0
 62
7
100
AcDbSpline
 70
8
 71
3
 72
8
 73
4
 74
0
 40
0
 40
0
 40
0
 40
0
 40
1
 40
1
 40
1
 40
1
 10
172.720000
 20
142.401730
 30
0.0
 10
172.720000
 20
142.171702
 30
0.0
 10
173.013528
 20
141.655766
 30
0.0
 10
173.372639
 20
141.255202
 30
0.0
  0
SPLINE
  5
23f
100
AcDbEntity
  8
0
 62
7
100
AcDbSpline
 70
8
 71
3
 72
8
 73
4
 74
0
 40
0
 40
0
 40
0
 40
0
 40
1
 40
1
 40
1
 40
1
 10
173.372639
 20
141.255202
 30
0.0
 10
173.731744
 20
140.854642
 30
0.0
 10
174.227795
 20
139.796097
 30
0.0
 10
174.466250
 20
138.909230
 30
0.0
  0
SPLINE
  5
240
100
AcDbEntity
  8
0
 62
7
100
AcDbSpline
 70
8
 71
3
 72
8
 73
4
 74
0
 40
0
 40
0
 40
0
 40
0
 40
1
 40
1
 40
1
 40
1
 10
174.466250
 20
138.909230
 30
0.0
 10
174.942511
 20
137.137910
 30
0.0
 10
174.860670
 20
136.931660
 30
0.0
 10
172.508333
 20
133.564647
 30
0.0
  0
LWPOLYLINE
  5
241
100
AcDbEntity
  8
0
 62
7
100
AcDbPolyline
 90
3
 70
0
 10
150.988889
 20
103.737286
 30
0.0
 10
148.863403
 20
102.237980
 30
0.0
 10
147.937361
 20
98.445619
 30
0.0
  0
SPLINE
  5
242
100
AcDbEntity
  8
0
 62
7
100
AcDbSpline
 70
8
 71
3
 72
8
 73
4
 74
0
 40
0
 40
0
 40
0
 40
0
 40
1
 40
1
 40
1
 40
1
 10
172.058542
 20
128.855064
 30
0.0
 10
172.946757
 20
124.511446
 30
0.0
 10
172.965923
 20
121.928927
 30
0.0
 10
172.111458
 20
120.114994
 30
0.0
  0
SPLINE
  5
243
100
AcDbEntity
  8
0
 62
7
100
AcDbSpline
 70
8
 71
3
 72
8
 73
4
 74
0
 40
0
 40
0
 40
0
 40
0
 40
1
 40
1
 40
1
 40
1
 10
172.111458
 20
120.114994
 30
0.0
 10
170.661971
 20
117.037889
 30
0.0
 10
170.617890
 20
116.612839
 30
0.0
 10
171.529375
 20
113.906105
 30
0.0
  0
SPLINE
  5
244
100
AcDbEntity
  8
0
 62
7
100
AcDbSpline
 70
8
 71
3
 72
8
 73
4
 74
0
 40
0
 40
0
 40
0
 40
0
 40
1
 40
1
 40
1
 40
1
 10
171.529375
 20
113.906105
 30
0.0
 10
172.217450
 20
111.862802
 30
0.0
 10
172.296520
 20
111.296786
 30
0.0
 10
171.935069
 20
110.863397
 30
0.0
  0
SPLINE
  5
245
100
AcDbEntity
  8
0
 62
7
100
AcDbSpline
 70
8
 71
3
 72
8
 73
4
 74
0
 40
0
 40
0
 40
0
 40
0
 40
1
 40
1
 40
1
 40
1
 10
171.935069
 20
110.863397
 30
0.0
 10
171.064688
 20
109.819781
 30
0.0
 10
169.368950
 20
108.245715
 30
0.0
 10
169.112847
 20
108.244022
 30
0.0
  0
SPLINE
  5
246
100
AcDbEntity
  8
0
 62
7
100
AcDbSpline
 70
8
 71
3
 72
8
 73
4
 74
0
 40
0
 40
0
 40
0
 40
0
 40
1
 40
1
 40
1
 40
1
 10
169.112847
 20
108.244022
 30
0.0
 10
168.279013
 20
108.238798
 30
0.0
 10
164.253333
 20
104.141428
 30
0.0
 10
164.253333
 20
103.296314
 30
0.0
  0
SPLINE
  5
247
100
AcDbEntity
  8
0
 62
7
100
AcDbSpline
 70
8
 71
3
 72
8
 73
4
 74
0
 40
0
 40
0
 40
0
 40
0
 40
1
 40
1
 40
1
 40
1
 10
164.253333
 20
103.296314
 30
0.0
 10
164.253333
 20
103.080236
 30
0.0
 10
164.033310
 20
102.679415
 30
0.0
 10
163.759444
 20
102.405550
 30
0.0
  0
SPLINE
  5
248
100
AcDbEntity
  8
0
 62
7
100
AcDbSpline
 70
8
 71
3
 72
8
 73
4
 74
0
 40
0
 40
0
 40
0
 40
0
 40
1
 40
1
 40
1
 40
1
 10
163.759444
 20
102.405550
 30
0.0
 10
163.485579
 20
102.131684
 30
0.0
 10
162.909095
 20
100.773704
 30
0.0
 10
162.480625
 20
99.389300
 30
0.0
  0
SPLINE
  5
249
100
AcDbEntity
  8
0
 62
7
100
AcDbSpline
 70
8
 71
3
 72
8
 73
4
 74
0
 40
0
 40
0
 40
0
 40
0
 40
1
 40
1
 40
1
 40
1
 10
162.480625
 20
99.389300
 30
0.0
 10
161.674466
 20
96.784535
 30
0.0
 10
161.697343
 20
94.214428
 30
0.0
 10
162.533542
 20
93.206869
 30
0.0
  0
SPLINE
  5
24a
100
AcDbEntity
  8
0
 62
7
100
AcDbSpline
 70
8
 71
3
 72
8
 73
4
 74
0
 40
0
 40
0
 40
0
 40
0
 40
1
 40
1
 40
1
 40
1
 10
162.533542
 20
93.206869
 30
0.0
 10
162.985571
 20
92.662211
 30
0.0
 10
163.547778
 20
92.885808
 30
0.0
 10
163.547778
 20
93.612564
 30
0.0
  0
SPLINE
  5
24b
100
AcDbEntity
  8
0
 62
7
100
AcDbSpline
 70
8
 71
3
 72
8
 73
4
 74
0
 40
0
 40
0
 40
0
 40
0
 40
1
 40
1
 40
1
 40
1
 10
163.547778
 20
93.612564
 30
0.0
 10
163.547778
 20
95.074274
 30
0.0
 10
167.123965
 20
99.241108
 30
0.0
 10
169.359792
 20
100.385897
 30
0.0
  0
SPLINE
  5
24c
100
AcDbEntity
  8
0
 62
7
100
AcDbSpline
 70
8
 71
3
 72
8
 73
4
 74
0
 40
0
 40
0
 40
0
 40
0
 40
1
 40
1
 40
1
 40
1
 10
169.359792
 20
100.385897
 30
0.0
 10
170.693732
 20
101.068903
 30
0.0
 10
170.951539
 20
101.447620
 30
0.0
 10
170.956111
 20
102.775966
 30
0.0
  0
SPLINE
  5
24d
100
AcDbEntity
  8
0
 62
7
100
AcDbSpline
 70
8
 71
3
 72
8
 73
4
 74
0
 40
0
 40
0
 40
0
 40
0
 40
1
 40
1
 40
1
 40
1
 10
170.956111
 20
102.775966
 30
0.0
 10
170.960113
 20
103.933783
 30
0.0
 10
171.722934
 20
106.510415
 30
0.0
 10
172.764097
 20
108.870202
 30
0.0
  0
SPLINE
  5
24e
100
AcDbEntity
  8
0
 62
7
100
AcDbSpline
 70
8
 71
3
 72
8
 73
4
 74
0
 40
0
 40
0
 40
0
 40
0
 40
1
 40
1
 40
1
 40
1
 10
172.764097
 20
108.870202
 30
0.0
 10
173.130216
 20
109.700009
 30
0.0
 10
173.425556
 20
110.579067
 30
0.0
 10
173.425556
 20
110.819300
 30
0.0
  0
SPLINE
  5
24f
100
AcDbEntity
  8
0
 62
7
100
AcDbSpline
 70
8
 71
3
 72
8
 73
4
 74
0
 40
0
 40
0
 40
0
 40
0
 40
1
 40
1
 40
1
 40
1
 10
173.425556
 20
110.819300
 30
0.0
 10
173.425556
 20
111.450309
 30
0.0
 10
175.575155
 20
115.785409
 30
0.0
 10
176.036111
 20
116.084508
 30
0.0
  0
SPLINE
  5
250
100
AcDbEntity
  8
0
 62
7
100
AcDbSpline
 70
8
 71
3
 72
8
 73
4
 74
0
 40
0
 40
0
 40
0
 40
0
 40
1
 40
1
 40
1
 40
1
 10
176.036111
 20
116.084508
 30
0.0
 10
176.692695
 20
116.510542
 30
0.0
 10
176.398095
 20
120.101024
 30
0.0
 10
175.542222
 20
122.090550
 30
0.0
  0
SPLINE
  5
251
100
AcDbEntity
  8
0
 62
7
100
AcDbSpline
 70
8
 71
3
 72
8
 73
4
 74
0
 40
0
 40
0
 40
0
 40
0
 40
1
 40
1
 40
1
 40
1
 10
175.542222
 20
122.090550
 30
0.0
 10
174.448766
 20
124.632362
 30
0.0
 10
174.434596
 20
129.966635
 30
0.0
 10
175.506944
 20
133.291244
 30
0.0
  0
SPLINE
  5
252
100
AcDbEntity
  8
0
 62
7
100
AcDbSpline
 70
8
 71
3
 72
8
 73
4
 74
0
 40
0
 40
0
 40
0
 40
0
 40
1
 40
1
 40
1
 40
1
 10
175.506944
 20
133.291244
 30
0.0
 10
175.913731
 20
134.552425
 30
0.0
 10
176.266419
 20
136.219300
 30
0.0
 10
176.291875
 20
136.995411
 30
0.0
  0
SPLINE
  5
253
100
AcDbEntity
  8
0
 62
7
100
AcDbSpline
 70
8
 71
3
 72
8
 73
4
 74
0
 40
0
 40
0
 40
0
 40
0
 40
1
 40
1
 40
1
 40
1
 10
176.291875
 20
136.995411
 30
0.0
 10
176.317334
 20
137.771522
 30
0.0
 10
176.444537
 20
138.882772
 30
0.0
 10
176.574097
 20
139.464855
 30
0.0
  0
SPLINE
  5
254
100
AcDbEntity
  8
0
 62
7
100
AcDbSpline
 70
8
 71
3
 72
8
 73
4
 74
0
 40
0
 40
0
 40
0
 40
0
 40
1
 40
1
 40
1
 40
1
 10
176.574097
 20
139.464855
 30
0.0
 10
176.958893
 20
141.193653
 30
0.0
 10
176.043765
 20
145.406243
 30
0.0
 10
174.686736
 20
148.160827
 30
0.0
  0
SPLINE
  5
255
100
AcDbEntity
  8
0
 62
7
100
AcDbSpline
 70
8
 71
3
 72
8
 73
4
 74
0
 40
0
 40
0
 40
0
 40
0
 40
1
 40
1
 40
1
 40
1
 10
174.686736
 20
148.160827
 30
0.0
 10
173.844825
 20
149.869796
 30
0.0
 10
173.425556
 20
151.202147
 30
0.0
 10
173.425556
 20
152.208952
 30
0.0
  0
SPLINE
  5
256
100
AcDbEntity
  8
0
 62
7
100
AcDbSpline
 70
8
 71
3
 72
8
 73
4
 74
0
 40
0
 40
0
 40
0
 40
0
 40
1
 40
1
 40
1
 40
1
 10
173.425556
 20
152.208952
 30
0.0
 10
173.425556
 20
153.359584
 30
0.0
 10
173.250691
 20
153.842751
 30
0.0
 10
172.649444
 20
154.263883
 30
0.0
  0
SPLINE
  5
257
100
AcDbEntity
  8
0
 62
7
100
AcDbSpline
 70
8
 71
3
 72
8
 73
4
 74
0
 40
0
 40
0
 40
0
 40
0
 40
1
 40
1
 40
1
 40
1
 10
172.649444
 20
154.263883
 30
0.0
 10
172.218220
 20
154.565923
 30
0.0
 10
171.702281
 20
154.810691
 30
0.0
 10
171.502917
 20
154.810689
 30
0.0
  0
SPLINE
  5
258
100
AcDbEntity
  8
0
 62
7
100
AcDbSpline
 70
8
 71
3
 72
8
 73
4
 74
0
 40
0
 40
0
 40
0
 40
0
 40
1
 40
1
 40
1
 40
1
 10
171.502917
 20
154.810689
 30
0.0
 10
171.303555
 20
154.810683
 30
0.0
 10
169.473601
 20
153.223183
 30
0.0
 10
167.445972
 20
151.282911
 30
0.0
  0
SPLINE
  5
259
100
AcDbEntity
  8
0
 62
7
100
AcDbSpline
 70
8
 71
3
 72
8
 73
4
 74
0
 40
0
 40
0
 40
0
 40
0
 40
1
 40
1
 40
1
 40
1
 10
167.445972
 20
151.282911
 30
0.0
 10
165.418347
 20
149.342636
 30
0.0
 10
163.711365
 20
147.755133
 30
0.0
 10
163.644792
 20
147.755133
 30
0.0
  0
SPLINE
  5
25a
100
AcDbEntity
  8
0
 62
7
100
AcDbSpline
 70
8
 71
3
 72
8
 73
4
 74
0
 40
0
 40
0
 40
0
 40
0
 40
1
 40
1
 40
1
 40
1
 10
163.644792
 20
147.755133
 30
0.0
 10
163.578218
 20
147.755133
 30
0.0
 10
161.876401
 20
146.127947
 30
0.0
 10
159.870069
 20
144.139161
 30
0.0
  0
SPLINE
  5
25b
100
AcDbEntity
  8
0
 62
7
100
AcDbSpline
 70
8
 71
3
 72
8
 73
4
 74
0
 40
0
 40
0
 40
0
 40
0
 40
1
 40
1
 40
1
 40
1
 10
159.870069
 20
144.139161
 30
0.0
 10
150.975675
 20
135.322564
 30
0.0
 10
132.712308
 20
117.558374
 30
0.0
 10
132.106458
 20
117.134022
 30
0.0
  0
SPLINE
  5
25c
100
AcDbEntity
  8
0
 62
7
100
AcDbSpline
 70
8
 71
3
 72
8
 73
4
 74
0
 40
0
 40
0
 40
0
 40
0
 40
1
 40
1
 40
1
 40
1
 10
132.106458
 20
117.134022
 30
0.0
 10
131.538624
 20
116.736297
 30
0.0
 10
131.411729
 20
116.751978
 30
0.0
 10
131.224514
 20
117.239855
 30
0.0
  0
SPLINE
  5
25d
100
AcDbEntity
  8
0
 62
7
100
AcDbSpline
 70
8
 71
3
 72
8
 73
4
 74
0
 40
0
 40
0
 40
0
 40
0
 40
1
 40
1
 40
1
 40
1
 10
131.224514
 20
117.239855
 30
0.0
 10
130.987035
 20
117.858712
 30
0.0
 10
130.732033
 20
118.178301
 30
0.0
 10
127.732014
 20
121.649577
 30
0.0
  0
SPLINE
  5
25e
100
AcDbEntity
  8
0
 62
7
100
AcDbSpline
 70
8
 71
3
 72
8
 73
4
 74
0
 40
0
 40
0
 40
0
 40
0
 40
1
 40
1
 40
1
 40
1
 10
127.732014
 20
121.649577
 30
0.0
 10
126.642052
 20
122.910758
 30
0.0
 10
125.606234
 20
124.260133
 30
0.0
 10
125.430139
 20
124.648189
 30
0.0
  0
SPLINE
  5
25f
100
AcDbEntity
  8
0
 62
7
100
AcDbSpline
 70
8
 71
3
 72
8
 73
4
 74
0
 40
0
 40
0
 40
0
 40
0
 40
1
 40
1
 40
1
 40
1
 10
125.430139
 20
124.648189
 30
0.0
 10
125.254046
 20
125.036244
 30
0.0
 10
124.709081
 20
125.988744
 30
0.0
 10
124.221875
 20
126.764855
 30
0.0
  0
SPLINE
  5
260
100
AcDbEntity
  8
0
 62
7
100
AcDbSpline
 70
8
 71
3
 72
8
 73
4
 74
0
 40
0
 40
0
 40
0
 40
0
 40
1
 40
1
 40
1
 40
1
 10
124.221875
 20
126.764855
 30
0.0
 10
123.734672
 20
127.540966
 30
0.0
 10
123.151079
 20
128.572841
 30
0.0
 10
122.925417
 20
129.057911
 30
0.0
  0
SPLINE
  5
261
100
AcDbEntity
  8
0
 62
7
100
AcDbSpline
 70
8
 71
3
 72
8
 73
4
 74
0
 40
0
 40
0
 40
0
 40
0
 40
1
 40
1
 40
1
 40
1
 10
122.925417
 20
129.057911
 30
0.0
 10
122.699752
 20
129.542980
 30
0.0
 10
122.152249
 20
130.721399
 30
0.0
 10
121.699514
 20
131.677286
 30
0.0
  0
SPLINE
  5
262
100
AcDbEntity
  8
0
 62
7
100
AcDbSpline
 70
8
 71
3
 72
8
 73
4
 74
0
 40
0
 40
0
 40
0
 40
0
 40
1
 40
1
 40
1
 40
1
 10
121.699514
 20
131.677286
 30
0.0
 10
121.246776
 20
132.633167
 30
0.0
 10
120.936628
 20
133.480855
 30
0.0
 10
121.011597
 20
133.555827
 30
0.0
  0
SPLINE
  5
263
100
AcDbEntity
  8
0
 62
7
100
AcDbSpline
 70
8
 71
3
 72
8
 73
4
 74
0
 40
0
 40
0
 40
0
 40
0
 40
1
 40
1
 40
1
 40
1
 10
121.011597
 20
133.555827
 30
0.0
 10
121.086570
 20
133.630797
 30
0.0
 10
122.309413
 20
133.452560
 30
0.0
 10
123.727986
 20
133.158952
 30
0.0
  0
SPLINE
  5
264
100
AcDbEntity
  8
0
 62
7
100
AcDbSpline
 70
8
 71
3
 72
8
 73
4
 74
0
 40
0
 40
0
 40
0
 40
0
 40
1
 40
1
 40
1
 40
1
 10
123.727986
 20
133.158952
 30
0.0
 10
126.992081
 20
132.483380
 30
0.0
 10
127.365472
 20
132.704891
 30
0.0
 10
127.026458
 20
135.169786
 30
0.0
  0
SPLINE
  5
265
100
AcDbEntity
  8
0
 62
7
100
AcDbSpline
 70
8
 71
3
 72
8
 73
4
 74
0
 40
0
 40
0
 40
0
 40
0
 40
1
 40
1
 40
1
 40
1
 10
127.026458
 20
135.169786
 30
0.0
 10
126.893755
 20
136.134670
 30
0.0
 10
126.563831
 20
137.453105
 30
0.0
 10
126.294444
 20
138.097841
 30
0.0
  0
LWPOLYLINE
  5
266
100
AcDbEntity
  8
0
 62
7
100
AcDbPolyline
 90
3
 70
0
 10
172.508333
 20
133.564647
 30
0.0
 10
171.414722
 20
132.003605
 30
0.0
 10
172.058542
 20
128.855064
 30
0.0
  0
SPLINE
  5
267
100
AcDbEntity
  8
0
 62
7
100
AcDbSpline
 70
8
 71
3
 72
8
 73
4
 74
0
 40
0
 40
0
 40
0
 40
0
 40
1
 40
1
 40
1
 40
1
 10
126.947083
 20
139.085619
 30
0.0
 10
127.578304
 20
138.981033
 30
0.0
 10
128.403567
 20
138.827070
 30
0.0
 10
128.781528
 20
138.750480
 30
0.0
  0
SPLINE
  5
268
100
AcDbEntity
  8
0
 62
7
100
AcDbSpline
 70
8
 71
3
 72
8
 73
4
 74
0
 40
0
 40
0
 40
0
 40
0
 40
1
 40
1
 40
1
 40
1
 10
128.781528
 20
138.750480
 30
0.0
 10
129.581329
 20
138.588400
 30
0.0
 10
130.386667
 20
139.156400
 30
0.0
 10
130.386667
 20
139.879369
 30
0.0
  0
SPLINE
  5
269
100
AcDbEntity
  8
0
 62
7
100
AcDbSpline
 70
8
 71
3
 72
8
 73
4
 74
0
 40
0
 40
0
 40
0
 40
0
 40
1
 40
1
 40
1
 40
1
 10
130.386667
 20
139.879369
 30
0.0
 10
130.386667
 20
140.886948
 30
0.0
 10
128.706539
 20
143.906658
 30
0.0
 10
127.035278
 20
145.903050
 30
0.0
  0
SPLINE
  5
26a
100
AcDbEntity
  8
0
 62
7
100
AcDbSpline
 70
8
 71
3
 72
8
 73
4
 74
0
 40
0
 40
0
 40
0
 40
0
 40
1
 40
1
 40
1
 40
1
 10
127.035278
 20
145.903050
 30
0.0
 10
125.015955
 20
148.315209
 30
0.0
 10
121.039842
 20
151.988466
 30
0.0
 10
120.447153
 20
151.988466
 30
0.0
  0
SPLINE
  5
26b
100
AcDbEntity
  8
0
 62
7
100
AcDbSpline
 70
8
 71
3
 72
8
 73
4
 74
0
 40
0
 40
0
 40
0
 40
0
 40
1
 40
1
 40
1
 40
1
 10
120.447153
 20
151.988466
 30
0.0
 10
120.276490
 20
151.988466
 30
0.0
 10
120.044472
 20
152.225161
 30
0.0
 10
119.935625
 20
152.508814
 30
0.0
  0
SPLINE
  5
26c
100
AcDbEntity
  8
0
 62
7
100
AcDbSpline
 70
8
 71
3
 72
8
 73
4
 74
0
 40
0
 40
0
 40
0
 40
0
 40
1
 40
1
 40
1
 40
1
 10
119.935625
 20
152.508814
 30
0.0
 10
119.826778
 20
152.792472
 30
0.0
 10
119.445944
 20
153.115905
 30
0.0
 10
119.080139
 20
153.232008
 30
0.0
  0
SPLINE
  5
26d
100
AcDbEntity
  8
0
 62
7
100
AcDbSpline
 70
8
 71
3
 72
8
 73
4
 74
0
 40
0
 40
0
 40
0
 40
0
 40
1
 40
1
 40
1
 40
1
 10
119.080139
 20
153.232008
 30
0.0
 10
118.666263
 20
153.363368
 30
0.0
 10
118.265318
 20
153.996771
 30
0.0
 10
118.030625
 20
154.916522
 30
0.0
  0
SPLINE
  5
26e
100
AcDbEntity
  8
0
 62
7
100
AcDbSpline
 70
8
 71
3
 72
8
 73
4
 74
0
 40
0
 40
0
 40
0
 40
0
 40
1
 40
1
 40
1
 40
1
 10
118.030625
 20
154.916522
 30
0.0
 10
117.138478
 20
158.412809
 30
0.0
 10
116.590428
 20
159.044022
 30
0.0
 10
114.405833
 20
159.044022
 30
0.0
  0
LWPOLYLINE
  5
26f
100
AcDbEntity
  8
0
 62
7
100
AcDbPolyline
 90
3
 70
0
 10
126.294444
 20
138.097841
 30
0.0
 10
125.800556
 20
139.270827
 30
0.0
 10
126.947083
 20
139.085619
 30
0.0
  0
SPLINE
  5
270
100
AcDbEntity
  8
0
 62
7
100
AcDbSpline
 70
8
 71
3
 72
8
 73
4
 74
0
 40
0
 40
0
 40
0
 40
0
 40
1
 40
1
 40
1
 40
1
 10
113.338681
 20
160.719716
 30
0.0
 10
113.421025
 20
161.641350
 30
0.0
 10
113.634718
 20
163.620645
 30
0.0
 10
113.814931
 20
165.120619
 30
0.0
  0
SPLINE
  5
271
100
AcDbEntity
  8
0
 62
7
100
AcDbSpline
 70
8
 71
3
 72
8
 73
4
 74
0
 40
0
 40
0
 40
0
 40
0
 40
1
 40
1
 40
1
 40
1
 10
113.814931
 20
165.120619
 30
0.0
 10
113.995135
 20
166.620599
 30
0.0
 10
114.069154
 20
168.055646
 30
0.0
 10
113.973681
 20
168.304439
 30
0.0
  0
SPLINE
  5
272
100
AcDbEntity
  8
0
 62
7
100
AcDbSpline
 70
8
 71
3
 72
8
 73
4
 74
0
 40
0
 40
0
 40
0
 40
0
 40
1
 40
1
 40
1
 40
1
 10
113.973681
 20
168.304439
 30
0.0
 10
113.878208
 20
168.553232
 30
0.0
 10
113.329305
 20
168.959335
 30
0.0
 10
112.756597
 20
169.212841
 30
0.0
  0
SPLINE
  5
273
100
AcDbEntity
  8
0
 62
7
100
AcDbSpline
 70
8
 71
3
 72
8
 73
4
 74
0
 40
0
 40
0
 40
0
 40
0
 40
1
 40
1
 40
1
 40
1
 10
112.756597
 20
169.212841
 30
0.0
 10
111.623673
 20
169.714322
 30
0.0
 10
111.188074
 20
170.975957
 30
0.0
 10
111.398403
 20
173.163952
 30
0.0
  0
SPLINE
  5
274
100
AcDbEntity
  8
0
 62
7
100
AcDbSpline
 70
8
 71
3
 72
8
 73
4
 74
0
 40
0
 40
0
 40
0
 40
0
 40
1
 40
1
 40
1
 40
1
 10
111.398403
 20
173.163952
 30
0.0
 10
111.522851
 20
174.458585
 30
0.0
 10
111.713532
 20
174.604418
 30
0.0
 10
115.217222
 20
175.994994
 30
0.0
  0
SPLINE
  5
275
100
AcDbEntity
  8
0
 62
7
100
AcDbSpline
 70
8
 71
3
 72
8
 73
4
 74
0
 40
0
 40
0
 40
0
 40
0
 40
1
 40
1
 40
1
 40
1
 10
115.217222
 20
175.994994
 30
0.0
 10
116.284375
 20
176.418534
 30
0.0
 10
117.216747
 20
176.810227
 30
0.0
 10
117.280972
 20
176.868119
 30
0.0
  0
SPLINE
  5
276
100
AcDbEntity
  8
0
 62
7
100
AcDbSpline
 70
8
 71
3
 72
8
 73
4
 74
0
 40
0
 40
0
 40
0
 40
0
 40
1
 40
1
 40
1
 40
1
 10
117.280972
 20
176.868119
 30
0.0
 10
117.517779
 20
177.081561
 30
0.0
 10
116.496473
 20
178.620180
 30
0.0
 10
115.428889
 20
179.663883
 30
0.0
  0
SPLINE
  5
277
100
AcDbEntity
  8
0
 62
7
100
AcDbSpline
 70
8
 71
3
 72
8
 73
4
 74
0
 40
0
 40
0
 40
0
 40
0
 40
1
 40
1
 40
1
 40
1
 10
115.428889
 20
179.663883
 30
0.0
 10
113.243552
 20
181.800333
 30
0.0
 10
113.222346
 20
181.877343
 30
0.0
 10
114.414653
 20
183.138744
 30
0.0
  0
SPLINE
  5
278
100
AcDbEntity
  8
0
 62
7
100
AcDbSpline
 70
8
 71
3
 72
8
 73
4
 74
0
 40
0
 40
0
 40
0
 40
0
 40
1
 40
1
 40
1
 40
1
 10
114.414653
 20
183.138744
 30
0.0
 10
115.003188
 20
183.761383
 30
0.0
 10
115.562233
 20
184.664508
 30
0.0
 10
115.658194
 20
185.149577
 30
0.0
  0
SPLINE
  5
279
100
AcDbEntity
  8
0
 62
7
100
AcDbSpline
 70
8
 71
3
 72
8
 73
4
 74
0
 40
0
 40
0
 40
0
 40
0
 40
1
 40
1
 40
1
 40
1
 10
115.658194
 20
185.149577
 30
0.0
 10
115.754161
 20
185.634647
 30
0.0
 10
115.948282
 20
186.311057
 30
0.0
 10
116.090347
 20
186.648883
 30
0.0
  0
SPLINE
  5
27a
100
AcDbEntity
  8
0
 62
7
100
AcDbSpline
 70
8
 71
3
 72
8
 73
4
 74
0
 40
0
 40
0
 40
0
 40
0
 40
1
 40
1
 40
1
 40
1
 10
116.090347
 20
186.648883
 30
0.0
 10
116.296990
 20
187.140283
 30
0.0
 10
116.019535
 20
187.404843
 30
0.0
 10
114.696875
 20
187.971800
 30
0.0
  0
SPLINE
  5
27b
100
AcDbEntity
  8
0
 62
7
100
AcDbSpline
 70
8
 71
3
 72
8
 73
4
 74
0
 40
0
 40
0
 40
0
 40
0
 40
1
 40
1
 40
1
 40
1
 10
114.696875
 20
187.971800
 30
0.0
 10
113.787566
 20
188.361577
 30
0.0
 10
112.802427
 20
188.677355
 30
0.0
 10
112.509653
 20
188.677355
 30
0.0
  0
SPLINE
  5
27c
100
AcDbEntity
  8
0
 62
7
100
AcDbSpline
 70
8
 71
3
 72
8
 73
4
 74
0
 40
0
 40
0
 40
0
 40
0
 40
1
 40
1
 40
1
 40
1
 10
112.509653
 20
188.677355
 30
0.0
 10
112.016182
 20
188.677355
 30
0.0
 10
111.408868
 20
189.082626
 30
0.0
 10
108.990694
 20
190.996869
 30
0.0
  0
SPLINE
  5
27d
100
AcDbEntity
  8
0
 62
7
100
AcDbSpline
 70
8
 71
3
 72
8
 73
4
 74
0
 40
0
 40
0
 40
0
 40
0
 40
1
 40
1
 40
1
 40
1
 10
108.990694
 20
190.996869
 30
0.0
 10
108.098889
 20
191.702823
 30
0.0
 10
108.086037
 20
191.761226
 30
0.0
 10
108.629097
 20
192.760758
 30
0.0
  0
SPLINE
  5
27e
100
AcDbEntity
  8
0
 62
7
100
AcDbSpline
 70
8
 71
3
 72
8
 73
4
 74
0
 40
0
 40
0
 40
0
 40
0
 40
1
 40
1
 40
1
 40
1
 10
108.629097
 20
192.760758
 30
0.0
 10
110.414489
 20
196.046860
 30
0.0
 10
111.853805
 20
199.589520
 30
0.0
 10
113.329861
 20
204.314230
 30
0.0
  0
SPLINE
  5
27f
100
AcDbEntity
  8
0
 62
7
100
AcDbSpline
 70
8
 71
3
 72
8
 73
4
 74
0
 40
0
 40
0
 40
0
 40
0
 40
1
 40
1
 40
1
 40
1
 10
113.329861
 20
204.314230
 30
0.0
 10
113.682272
 20
205.442258
 30
0.0
 10
114.030853
 20
206.180004
 30
0.0
 10
114.105972
 20
205.954647
 30
0.0
  0
SPLINE
  5
280
100
AcDbEntity
  8
0
 62
7
100
AcDbSpline
 70
8
 71
3
 72
8
 73
4
 74
0
 40
0
 40
0
 40
0
 40
0
 40
1
 40
1
 40
1
 40
1
 10
114.105972
 20
205.954647
 30
0.0
 10
114.306358
 20
205.353491
 30
0.0
 10
113.463135
 20
201.557263
 30
0.0
 10
112.518472
 20
198.828536
 30
0.0
  0
SPLINE
  5
281
100
AcDbEntity
  8
0
 62
7
100
AcDbSpline
 70
8
 71
3
 72
8
 73
4
 74
0
 40
0
 40
0
 40
0
 40
0
 40
1
 40
1
 40
1
 40
1
 10
112.518472
 20
198.828536
 30
0.0
 10
111.539232
 20
195.999921
 30
0.0
 10
111.475791
 20
195.469202
 30
0.0
 10
112.218611
 20
196.085689
 30
0.0
  0
SPLINE
  5
282
100
AcDbEntity
  8
0
 62
7
100
AcDbSpline
 70
8
 71
3
 72
8
 73
4
 74
0
 40
0
 40
0
 40
0
 40
0
 40
1
 40
1
 40
1
 40
1
 10
112.218611
 20
196.085689
 30
0.0
 10
112.509653
 20
196.327231
 30
0.0
 10
112.747778
 20
196.766457
 30
0.0
 10
112.747778
 20
197.055827
 30
0.0
  0
SPLINE
  5
283
100
AcDbEntity
  8
0
 62
7
100
AcDbSpline
 70
8
 71
3
 72
8
 73
4
 74
0
 40
0
 40
0
 40
0
 40
0
 40
1
 40
1
 40
1
 40
1
 10
112.747778
 20
197.055827
 30
0.0
 10
112.747778
 20
197.345201
 30
0.0
 10
113.047128
 20
198.158298
 30
0.0
 10
113.409236
 20
198.863814
 30
0.0
  0
SPLINE
  5
284
100
AcDbEntity
  8
0
 62
7
100
AcDbSpline
 70
8
 71
3
 72
8
 73
4
 74
0
 40
0
 40
0
 40
0
 40
0
 40
1
 40
1
 40
1
 40
1
 10
113.409236
 20
198.863814
 30
0.0
 10
114.748183
 20
201.472535
 30
0.0
 10
115.570000
 20
203.409937
 30
0.0
 10
115.570000
 20
203.952633
 30
0.0
  0
SPLINE
  5
285
100
AcDbEntity
  8
0
 62
7
100
AcDbSpline
 70
8
 71
3
 72
8
 73
4
 74
0
 40
0
 40
0
 40
0
 40
0
 40
1
 40
1
 40
1
 40
1
 10
115.570000
 20
203.952633
 30
0.0
 10
115.570000
 20
204.259479
 30
0.0
 10
115.728750
 20
204.608828
 30
0.0
 10
115.922778
 20
204.728744
 30
0.0
  0
SPLINE
  5
286
100
AcDbEntity
  8
0
 62
7
100
AcDbSpline
 70
8
 71
3
 72
8
 73
4
 74
0
 40
0
 40
0
 40
0
 40
0
 40
1
 40
1
 40
1
 40
1
 10
115.922778
 20
204.728744
 30
0.0
 10
116.143608
 20
204.865227
 30
0.0
 10
116.275556
 20
204.117742
 30
0.0
 10
116.275556
 20
202.735550
 30
0.0
  0
SPLINE
  5
287
100
AcDbEntity
  8
0
 62
7
100
AcDbSpline
 70
8
 71
3
 72
8
 73
4
 74
0
 40
0
 40
0
 40
0
 40
0
 40
1
 40
1
 40
1
 40
1
 10
116.275556
 20
202.735550
 30
0.0
 10
116.275556
 20
198.777581
 30
0.0
 10
116.875261
 20
201.052760
 30
0.0
 10
117.307431
 20
206.669022
 30
0.0
  0
SPLINE
  5
288
100
AcDbEntity
  8
0
 62
7
100
AcDbSpline
 70
8
 71
3
 72
8
 73
4
 74
0
 40
0
 40
0
 40
0
 40
0
 40
1
 40
1
 40
1
 40
1
 10
117.307431
 20
206.669022
 30
0.0
 10
117.761264
 20
212.566786
 30
0.0
 10
117.366655
 20
216.986581
 30
0.0
 10
116.143264
 20
219.801175
 30
0.0
  0
SPLINE
  5
289
100
AcDbEntity
  8
0
 62
7
100
AcDbSpline
 70
8
 71
3
 72
8
 73
4
 74
0
 40
0
 40
0
 40
0
 40
0
 40
1
 40
1
 40
1
 40
1
 10
116.143264
 20
219.801175
 30
0.0
 10
115.829715
 20
220.522549
 30
0.0
 10
115.574290
 20
221.395674
 30
0.0
 10
115.570000
 20
221.741452
 30
0.0
  0
SPLINE
  5
28a
100
AcDbEntity
  8
0
 62
7
100
AcDbSpline
 70
8
 71
3
 72
8
 73
4
 74
0
 40
0
 40
0
 40
0
 40
0
 40
1
 40
1
 40
1
 40
1
 10
115.570000
 20
221.741452
 30
0.0
 10
115.565685
 20
222.087234
 30
0.0
 10
115.243870
 20
222.764508
 30
0.0
 10
114.864444
 20
223.249577
 30
0.0
  0
SPLINE
  5
28b
100
AcDbEntity
  8
0
 62
7
100
AcDbSpline
 70
8
 71
3
 72
8
 73
4
 74
0
 40
0
 40
0
 40
0
 40
0
 40
1
 40
1
 40
1
 40
1
 10
114.864444
 20
223.249577
 30
0.0
 10
114.485016
 20
223.734647
 30
0.0
 10
114.172026
 20
224.409336
 30
0.0
 10
114.167708
 20
224.748883
 30
0.0
  0
SPLINE
  5
28c
100
AcDbEntity
  8
0
 62
7
100
AcDbSpline
 70
8
 71
3
 72
8
 73
4
 74
0
 40
0
 40
0
 40
0
 40
0
 40
1
 40
1
 40
1
 40
1
 10
114.167708
 20
224.748883
 30
0.0
 10
114.163393
 20
225.088433
 30
0.0
 10
114.020696
 20
225.366244
 30
0.0
 10
113.850208
 20
225.366244
 30
0.0
  0
SPLINE
  5
28d
100
AcDbEntity
  8
0
 62
7
100
AcDbSpline
 70
8
 71
3
 72
8
 73
4
 74
0
 40
0
 40
0
 40
0
 40
0
 40
1
 40
1
 40
1
 40
1
 10
113.850208
 20
225.366244
 30
0.0
 10
113.679721
 20
225.366244
 30
0.0
 10
113.358515
 20
225.802808
 30
0.0
 10
113.135833
 20
226.336383
 30
0.0
  0
SPLINE
  5
28e
100
AcDbEntity
  8
0
 62
7
100
AcDbSpline
 70
8
 71
3
 72
8
 73
4
 74
0
 40
0
 40
0
 40
0
 40
0
 40
1
 40
1
 40
1
 40
1
 10
113.135833
 20
226.336383
 30
0.0
 10
112.552884
 20
227.733222
 30
0.0
 10
107.042306
 20
233.832911
 30
0.0
 10
106.362500
 20
233.832911
 30
0.0
  0
SPLINE
  5
28f
100
AcDbEntity
  8
0
 62
7
100
AcDbSpline
 70
8
 71
3
 72
8
 73
4
 74
0
 40
0
 40
0
 40
0
 40
0
 40
1
 40
1
 40
1
 40
1
 10
106.362500
 20
233.832911
 30
0.0
 10
106.230733
 20
233.832911
 30
0.0
 10
105.592547
 20
234.269475
 30
0.0
 10
104.951389
 20
234.803050
 30
0.0
  0
SPLINE
  5
290
100
AcDbEntity
  8
0
 62
7
100
AcDbSpline
 70
8
 71
3
 72
8
 73
4
 74
0
 40
0
 40
0
 40
0
 40
0
 40
1
 40
1
 40
1
 40
1
 10
104.951389
 20
234.803050
 30
0.0
 10
102.402581
 20
236.924178
 30
0.0
 10
101.458889
 20
238.021221
 30
0.0
 10
101.458889
 20
238.851175
 30
0.0
  0
SPLINE
  5
291
100
AcDbEntity
  8
0
 62
7
100
AcDbSpline
 70
8
 71
3
 72
8
 73
4
 74
0
 40
0
 40
0
 40
0
 40
0
 40
1
 40
1
 40
1
 40
1
 10
101.458889
 20
238.851175
 30
0.0
 10
101.458889
 20
239.624830
 30
0.0
 10
98.798606
 20
244.084517
 30
0.0
 10
97.816458
 20
244.954230
 30
0.0
  0
SPLINE
  5
292
100
AcDbEntity
  8
0
 62
7
100
AcDbSpline
 70
8
 71
3
 72
8
 73
4
 74
0
 40
0
 40
0
 40
0
 40
0
 40
1
 40
1
 40
1
 40
1
 10
97.816458
 20
244.954230
 30
0.0
 10
97.223106
 20
245.479655
 30
0.0
 10
96.578059
 20
246.527774
 30
0.0
 10
95.929097
 20
248.032216
 30
0.0
  0
SPLINE
  5
293
100
AcDbEntity
  8
0
 62
7
100
AcDbSpline
 70
8
 71
3
 72
8
 73
4
 74
0
 40
0
 40
0
 40
0
 40
0
 40
1
 40
1
 40
1
 40
1
 10
95.929097
 20
248.032216
 30
0.0
 10
95.547276
 20
248.917363
 30
0.0
 10
95.113114
 20
249.353336
 30
0.0
 10
94.606181
 20
249.337494
 30
0.0
  0
LWPOLYLINE
  5
294
100
AcDbEntity
  8
0
 62
7
100
AcDbPolyline
 90
3
 70
0
 10
114.405833
 20
159.044022
 30
0.0
 10
113.188750
 20
159.044022
 30
0.0
 10
113.338681
 20
160.719716
 30
0.0
  0
SPLINE
  5
295
100
AcDbEntity
  8
0
 62
7
100
AcDbSpline
 70
8
 71
3
 72
8
 73
4
 74
0
 40
0
 40
0
 40
0
 40
0
 40
1
 40
1
 40
1
 40
1
 10
66.639722
 20
207.021800
 30
0.0
 10
66.749995
 20
207.021800
 30
0.0
 10
66.218949
 20
205.791489
 30
0.0
 10
65.457917
 20
204.287772
 30
0.0
  0
SPLINE
  5
296
100
AcDbEntity
  8
0
 62
7
100
AcDbSpline
 70
8
 71
3
 72
8
 73
4
 74
0
 40
0
 40
0
 40
0
 40
0
 40
1
 40
1
 40
1
 40
1
 10
65.457917
 20
204.287772
 30
0.0
 10
64.696888
 20
202.784058
 30
0.0
 10
64.073828
 20
201.378414
 30
0.0
 10
64.073264
 20
201.165689
 30
0.0
  0
SPLINE
  5
297
100
AcDbEntity
  8
0
 62
7
100
AcDbSpline
 70
8
 71
3
 72
8
 73
4
 74
0
 40
0
 40
0
 40
0
 40
0
 40
1
 40
1
 40
1
 40
1
 10
64.073264
 20
201.165689
 30
0.0
 10
64.072426
 20
200.952964
 30
0.0
 10
63.806262
 20
200.253916
 30
0.0
 10
63.482361
 20
199.604647
 30
0.0
  0
SPLINE
  5
298
100
AcDbEntity
  8
0
 62
7
100
AcDbSpline
 70
8
 71
3
 72
8
 73
4
 74
0
 40
0
 40
0
 40
0
 40
0
 40
1
 40
1
 40
1
 40
1
 10
63.482361
 20
199.604647
 30
0.0
 10
63.158463
 20
198.955375
 30
0.0
 10
62.670648
 20
197.065686
 30
0.0
 10
62.406389
 20
195.415411
 30
0.0
  0
SPLINE
  5
299
100
AcDbEntity
  8
0
 62
7
100
AcDbSpline
 70
8
 71
3
 72
8
 73
4
 74
0
 40
0
 40
0
 40
0
 40
0
 40
1
 40
1
 40
1
 40
1
 10
62.406389
 20
195.415411
 30
0.0
 10
62.142127
 20
193.765139
 30
0.0
 10
61.893196
 20
192.389565
 30
0.0
 10
61.850764
 20
192.355064
 30
0.0
  0
SPLINE
  5
29a
100
AcDbEntity
  8
0
 62
7
100
AcDbSpline
 70
8
 71
3
 72
8
 73
4
 74
0
 40
0
 40
0
 40
0
 40
0
 40
1
 40
1
 40
1
 40
1
 10
61.850764
 20
192.355064
 30
0.0
 10
61.808335
 20
192.320570
 30
0.0
 10
61.434960
 20
192.190810
 30
0.0
 10
61.021736
 20
192.064022
 30
0.0
  0
SPLINE
  5
29b
100
AcDbEntity
  8
0
 62
7
100
AcDbSpline
 70
8
 71
3
 72
8
 73
4
 74
0
 40
0
 40
0
 40
0
 40
0
 40
1
 40
1
 40
1
 40
1
 10
61.021736
 20
192.064022
 30
0.0
 10
60.389620
 20
191.870079
 30
0.0
 10
60.179720
 20
192.061569
 30
0.0
 10
59.698819
 20
193.263466
 30
0.0
  0
SPLINE
  5
29c
100
AcDbEntity
  8
0
 62
7
100
AcDbSpline
 70
8
 71
3
 72
8
 73
4
 74
0
 40
0
 40
0
 40
0
 40
0
 40
1
 40
1
 40
1
 40
1
 10
59.698819
 20
193.263466
 30
0.0
 10
59.000678
 20
195.008291
 30
0.0
 10
58.966887
 20
196.751973
 30
0.0
 10
59.610625
 20
197.682008
 30
0.0
  0
SPLINE
  5
29d
100
AcDbEntity
  8
0
 62
7
100
AcDbSpline
 70
8
 71
3
 72
8
 73
4
 74
0
 40
0
 40
0
 40
0
 40
0
 40
1
 40
1
 40
1
 40
1
 10
59.610625
 20
197.682008
 30
0.0
 10
59.875533
 20
198.064730
 30
0.0
 10
60.218780
 20
198.770898
 30
0.0
 10
60.369097
 20
199.251869
 30
0.0
  0
SPLINE
  5
29e
100
AcDbEntity
  8
0
 62
7
100
AcDbSpline
 70
8
 71
3
 72
8
 73
4
 74
0
 40
0
 40
0
 40
0
 40
0
 40
1
 40
1
 40
1
 40
1
 10
60.369097
 20
199.251869
 30
0.0
 10
60.760765
 20
200.505074
 30
0.0
 10
66.019570
 20
207.021800
 30
0.0
 10
66.639722
 20
207.021800
 30
0.0
  0
LWPOLYLINE
  5
29f
100
AcDbEntity
  8
0
 62
7
100
AcDbPolyline
 90
2
 70
0
 10
94.606181
 20
249.337494
 30
0.0
 10
94.606181
 20
249.337494
 30
0.0
  0
SPLINE
  5
2a0
100
AcDbEntity
  8
0
 62
7
100
AcDbSpline
 70
8
 71
3
 72
8
 73
4
 74
0
 40
0
 40
0
 40
0
 40
0
 40
1
 40
1
 40
1
 40
1
 10
61.797847
 20
204.755202
 30
0.0
 10
61.839427
 20
204.759199
 30
0.0
 10
61.866529
 20
204.748257
 30
0.0
 10
61.877222
 20
204.737564
 30
0.0
  0
SPLINE
  5
2a1
100
AcDbEntity
  8
0
 62
7
100
AcDbSpline
 70
8
 71
3
 72
8
 73
4
 74
0
 40
0
 40
0
 40
0
 40
0
 40
1
 40
1
 40
1
 40
1
 10
61.877222
 20
204.737564
 30
0.0
 10
62.001942
 20
204.612844
 30
0.0
 10
61.950978
 20
204.405103
 30
0.0
 10
61.762569
 20
204.270133
 30
0.0
  0
SPLINE
  5
2a2
100
AcDbEntity
  8
0
 62
7
100
AcDbSpline
 70
8
 71
3
 72
8
 73
4
 74
0
 40
0
 40
0
 40
0
 40
0
 40
1
 40
1
 40
1
 40
1
 10
61.762569
 20
204.270133
 30
0.0
 10
61.574161
 20
204.135160
 30
0.0
 10
61.227533
 20
203.705689
 30
0.0
 10
60.986458
 20
203.317633
 30
0.0
  0
SPLINE
  5
2a3
100
AcDbEntity
  8
0
 62
7
100
AcDbSpline
 70
8
 71
3
 72
8
 73
4
 74
0
 40
0
 40
0
 40
0
 40
0
 40
1
 40
1
 40
1
 40
1
 10
60.986458
 20
203.317633
 30
0.0
 10
60.745384
 20
202.929577
 30
0.0
 10
60.008143
 20
201.580202
 30
0.0
 10
59.346042
 20
200.319022
 30
0.0
  0
SPLINE
  5
2a4
100
AcDbEntity
  8
0
 62
7
100
AcDbSpline
 70
8
 71
3
 72
8
 73
4
 74
0
 40
0
 40
0
 40
0
 40
0
 40
1
 40
1
 40
1
 40
1
 10
59.346042
 20
200.319022
 30
0.0
 10
58.159788
 20
198.059413
 30
0.0
 10
58.136595
 20
198.041404
 30
0.0
 10
57.908472
 20
199.084300
 30
0.0
  0
SPLINE
  5
2a5
100
AcDbEntity
  8
0
 62
7
100
AcDbSpline
 70
8
 71
3
 72
8
 73
4
 74
0
 40
0
 40
0
 40
0
 40
0
 40
1
 40
1
 40
1
 40
1
 10
57.908472
 20
199.084300
 30
0.0
 10
57.781148
 20
199.666383
 30
0.0
 10
57.437503
 20
200.678644
 30
0.0
 10
57.150000
 20
201.333258
 30
0.0
  0
SPLINE
  5
2a6
100
AcDbEntity
  8
0
 62
7
100
AcDbSpline
 70
8
 71
3
 72
8
 73
4
 74
0
 40
0
 40
0
 40
0
 40
0
 40
1
 40
1
 40
1
 40
1
 10
57.150000
 20
201.333258
 30
0.0
 10
56.862497
 20
201.987870
 30
0.0
 10
56.678666
 20
202.565720
 30
0.0
 10
56.735486
 20
202.612077
 30
0.0
  0
SPLINE
  5
2a7
100
AcDbEntity
  8
0
 62
7
100
AcDbSpline
 70
8
 71
3
 72
8
 73
4
 74
0
 40
0
 40
0
 40
0
 40
0
 40
1
 40
1
 40
1
 40
1
 10
56.735486
 20
202.612077
 30
0.0
 10
57.300777
 20
203.073240
 30
0.0
 10
61.174147
 20
204.695244
 30
0.0
 10
61.797847
 20
204.755202
 30
0.0
  0
LWPOLYLINE
  5
2a8
100
AcDbEntity
  8
0
 62
7
100
AcDbPolyline
 90
2
 70
0
 10
66.639722
 20
207.021800
 30
0.0
 10
66.639722
 20
207.021800
 30
0.0
  0
SPLINE
  5
2a9
100
AcDbEntity
  8
0
 62
7
100
AcDbSpline
 70
8
 71
3
 72
8
 73
4
 74
0
 40
0
 40
0
 40
0
 40
0
 40
1
 40
1
 40
1
 40
1
 10
66.348681
 20
193.386939
 30
0.0
 10
66.433723
 20
193.371583
 30
0.0
 10
66.494575
 20
193.201016
 30
0.0
 10
66.577986
 20
192.901869
 30
0.0
  0
SPLINE
  5
2aa
100
AcDbEntity
  8
0
 62
7
100
AcDbSpline
 70
8
 71
3
 72
8
 73
4
 74
0
 40
0
 40
0
 40
0
 40
0
 40
1
 40
1
 40
1
 40
1
 10
66.577986
 20
192.901869
 30
0.0
 10
66.711141
 20
192.424307
 30
0.0
 10
66.832057
 20
191.470269
 30
0.0
 10
66.851389
 20
190.785202
 30
0.0
  0
SPLINE
  5
2ab
100
AcDbEntity
  8
0
 62
7
100
AcDbSpline
 70
8
 71
3
 72
8
 73
4
 74
0
 40
0
 40
0
 40
0
 40
0
 40
1
 40
1
 40
1
 40
1
 10
66.851389
 20
190.785202
 30
0.0
 10
66.881714
 20
189.711121
 30
0.0
 10
66.740953
 20
189.480441
 30
0.0
 10
65.828333
 20
189.135966
 30
0.0
  0
SPLINE
  5
2ac
100
AcDbEntity
  8
0
 62
7
100
AcDbSpline
 70
8
 71
3
 72
8
 73
4
 74
0
 40
0
 40
0
 40
0
 40
0
 40
1
 40
1
 40
1
 40
1
 10
65.828333
 20
189.135966
 30
0.0
 10
64.874496
 20
188.775935
 30
0.0
 10
64.770000
 20
188.807011
 30
0.0
 10
64.770000
 20
189.435827
 30
0.0
  0
SPLINE
  5
2ad
100
AcDbEntity
  8
0
 62
7
100
AcDbSpline
 70
8
 71
3
 72
8
 73
4
 74
0
 40
0
 40
0
 40
0
 40
0
 40
1
 40
1
 40
1
 40
1
 10
64.770000
 20
189.435827
 30
0.0
 10
64.770000
 20
189.819568
 30
0.0
 10
65.125343
 20
190.950768
 30
0.0
 10
65.554931
 20
191.949369
 30
0.0
  0
SPLINE
  5
2ae
100
AcDbEntity
  8
0
 62
7
100
AcDbSpline
 70
8
 71
3
 72
8
 73
4
 74
0
 40
0
 40
0
 40
0
 40
0
 40
1
 40
1
 40
1
 40
1
 10
65.554931
 20
191.949369
 30
0.0
 10
66.003421
 20
192.991915
 30
0.0
 10
66.206946
 20
193.412531
 30
0.0
 10
66.348681
 20
193.386939
 30
0.0
  0
LWPOLYLINE
  5
2af
100
AcDbEntity
  8
0
 62
7
100
AcDbPolyline
 90
2
 70
0
 10
61.797847
 20
204.755202
 30
0.0
 10
61.797847
 20
204.755202
 30
0.0
  0
SPLINE
  5
2b0
100
AcDbEntity
  8
0
 62
7
100
AcDbSpline
 70
8
 71
3
 72
8
 73
4
 74
0
 40
0
 40
0
 40
0
 40
0
 40
1
 40
1
 40
1
 40
1
 10
68.747569
 20
191.702425
 30
0.0
 10
68.780248
 20
191.734674
 30
0.0
 10
68.905323
 20
191.495914
 30
0.0
 10
69.162083
 20
190.970411
 30
0.0
  0
SPLINE
  5
2b1
100
AcDbEntity
  8
0
 62
7
100
AcDbSpline
 70
8
 71
3
 72
8
 73
4
 74
0
 40
0
 40
0
 40
0
 40
0
 40
1
 40
1
 40
1
 40
1
 10
69.162083
 20
190.970411
 30
0.0
 10
69.446487
 20
190.388327
 30
0.0
 10
69.691321
 20
189.634266
 30
0.0
 10
69.700069
 20
189.294716
 30
0.0
  0
SPLINE
  5
2b2
100
AcDbEntity
  8
0
 62
7
100
AcDbSpline
 70
8
 71
3
 72
8
 73
4
 74
0
 40
0
 40
0
 40
0
 40
0
 40
1
 40
1
 40
1
 40
1
 10
69.700069
 20
189.294716
 30
0.0
 10
69.708818
 20
188.955169
 30
0.0
 10
69.550139
 20
188.677355
 30
0.0
 10
69.356111
 20
188.677355
 30
0.0
  0
SPLINE
  5
2b3
100
AcDbEntity
  8
0
 62
7
100
AcDbSpline
 70
8
 71
3
 72
8
 73
4
 74
0
 40
0
 40
0
 40
0
 40
0
 40
1
 40
1
 40
1
 40
1
 10
69.356111
 20
188.677355
 30
0.0
 10
69.162083
 20
188.677355
 30
0.0
 10
69.006156
 20
189.034544
 30
0.0
 10
69.003333
 20
189.471105
 30
0.0
  0
SPLINE
  5
2b4
100
AcDbEntity
  8
0
 62
7
100
AcDbSpline
 70
8
 71
3
 72
8
 73
4
 74
0
 40
0
 40
0
 40
0
 40
0
 40
1
 40
1
 40
1
 40
1
 10
69.003333
 20
189.471105
 30
0.0
 10
69.000683
 20
189.907669
 30
0.0
 10
68.914605
 20
190.661730
 30
0.0
 10
68.818125
 20
191.146800
 30
0.0
  0
SPLINE
  5
2b5
100
AcDbEntity
  8
0
 62
7
100
AcDbSpline
 70
8
 71
3
 72
8
 73
4
 74
0
 40
0
 40
0
 40
0
 40
0
 40
1
 40
1
 40
1
 40
1
 10
68.818125
 20
191.146800
 30
0.0
 10
68.750378
 20
191.487405
 30
0.0
 10
68.722153
 20
191.677341
 30
0.0
 10
68.747569
 20
191.702425
 30
0.0
  0
LWPOLYLINE
  5
2b6
100
AcDbEntity
  8
0
 62
7
100
AcDbPolyline
 90
2
 70
0
 10
66.348681
 20
193.386939
 30
0.0
 10
66.348681
 20
193.386939
 30
0.0
  0
SPLINE
  5
2b7
100
AcDbEntity
  8
0
 62
7
100
AcDbSpline
 70
8
 71
3
 72
8
 73
4
 74
0
 40
0
 40
0
 40
0
 40
0
 40
1
 40
1
 40
1
 40
1
 10
55.218542
 20
181.224925
 30
0.0
 10
55.341097
 20
181.219879
 30
0.0
 10
55.450971
 20
181.186523
 30
0.0
 10
55.509583
 20
181.127911
 30
0.0
  0
SPLINE
  5
2b8
100
AcDbEntity
  8
0
 62
7
100
AcDbSpline
 70
8
 71
3
 72
8
 73
4
 74
0
 40
0
 40
0
 40
0
 40
0
 40
1
 40
1
 40
1
 40
1
 10
55.509583
 20
181.127911
 30
0.0
 10
55.626807
 20
181.010687
 30
0.0
 10
55.414037
 20
180.927406
 30
0.0
 10
55.042153
 20
180.942702
 30
0.0
  0
SPLINE
  5
2b9
100
AcDbEntity
  8
0
 62
7
100
AcDbSpline
 70
8
 71
3
 72
8
 73
4
 74
0
 40
0
 40
0
 40
0
 40
0
 40
1
 40
1
 40
1
 40
1
 10
55.042153
 20
180.942702
 30
0.0
 10
54.631184
 20
180.959627
 30
0.0
 10
54.549065
 20
181.041754
 30
0.0
 10
54.830486
 20
181.154369
 30
0.0
  0
SPLINE
  5
2ba
100
AcDbEntity
  8
0
 62
7
100
AcDbSpline
 70
8
 71
3
 72
8
 73
4
 74
0
 40
0
 40
0
 40
0
 40
0
 40
1
 40
1
 40
1
 40
1
 10
54.830486
 20
181.154369
 30
0.0
 10
54.957816
 20
181.205336
 30
0.0
 10
55.095987
 20
181.229971
 30
0.0
 10
55.218542
 20
181.224925
 30
0.0
  0
LWPOLYLINE
  5
2bb
100
AcDbEntity
  8
0
 62
7
100
AcDbPolyline
 90
2
 70
0
 10
68.747569
 20
191.702425
 30
0.0
 10
68.747569
 20
191.702425
 30
0.0
  0
SPLINE
  5
2bc
100
AcDbEntity
  8
0
 62
7
100
AcDbSpline
 70
8
 71
3
 72
8
 73
4
 74
0
 40
0
 40
0
 40
0
 40
0
 40
1
 40
1
 40
1
 40
1
 10
72.839792
 20
169.768466
 30
0.0
 10
72.963016
 20
169.781197
 30
0.0
 10
73.085864
 20
169.765703
 30
0.0
 10
73.210208
 20
169.733189
 30
0.0
  0
SPLINE
  5
2bd
100
AcDbEntity
  8
0
 62
7
100
AcDbSpline
 70
8
 71
3
 72
8
 73
4
 74
0
 40
0
 40
0
 40
0
 40
0
 40
1
 40
1
 40
1
 40
1
 10
73.210208
 20
169.733189
 30
0.0
 10
73.779524
 20
169.584305
 30
0.0
 10
75.353333
 20
166.904453
 30
0.0
 10
75.353333
 20
166.081939
 30
0.0
  0
SPLINE
  5
2be
100
AcDbEntity
  8
0
 62
7
100
AcDbSpline
 70
8
 71
3
 72
8
 73
4
 74
0
 40
0
 40
0
 40
0
 40
0
 40
1
 40
1
 40
1
 40
1
 10
75.353333
 20
166.081939
 30
0.0
 10
75.353333
 20
165.886274
 30
0.0
 10
75.631246
 20
165.294719
 30
0.0
 10
75.970694
 20
164.776661
 30
0.0
  0
SPLINE
  5
2bf
100
AcDbEntity
  8
0
 62
7
100
AcDbSpline
 70
8
 71
3
 72
8
 73
4
 74
0
 40
0
 40
0
 40
0
 40
0
 40
1
 40
1
 40
1
 40
1
 10
75.970694
 20
164.776661
 30
0.0
 10
76.839792
 20
163.450245
 30
0.0
 10
77.458282
 20
161.532073
 30
0.0
 10
77.214236
 20
160.896105
 30
0.0
  0
SPLINE
  5
2c0
100
AcDbEntity
  8
0
 62
7
100
AcDbSpline
 70
8
 71
3
 72
8
 73
4
 74
0
 40
0
 40
0
 40
0
 40
0
 40
1
 40
1
 40
1
 40
1
 10
77.214236
 20
160.896105
 30
0.0
 10
77.100636
 20
160.600063
 30
0.0
 10
77.253479
 20
160.175236
 30
0.0
 10
77.558194
 20
159.952425
 30
0.0
  0
SPLINE
  5
2c1
100
AcDbEntity
  8
0
 62
7
100
AcDbSpline
 70
8
 71
3
 72
8
 73
4
 74
0
 40
0
 40
0
 40
0
 40
0
 40
1
 40
1
 40
1
 40
1
 10
77.558194
 20
159.952425
 30
0.0
 10
77.971173
 20
159.650447
 30
0.0
 10
78.140681
 20
158.780833
 30
0.0
 10
78.210833
 20
156.556939
 30
0.0
  0
SPLINE
  5
2c2
100
AcDbEntity
  8
0
 62
7
100
AcDbSpline
 70
8
 71
3
 72
8
 73
4
 74
0
 40
0
 40
0
 40
0
 40
0
 40
1
 40
1
 40
1
 40
1
 10
78.210833
 20
156.556939
 30
0.0
 10
78.313034
 20
153.317259
 30
0.0
 10
78.084087
 20
152.162891
 30
0.0
 10
77.284792
 20
151.856175
 30
0.0
  0
SPLINE
  5
2c3
100
AcDbEntity
  8
0
 62
7
100
AcDbSpline
 70
8
 71
3
 72
8
 73
4
 74
0
 40
0
 40
0
 40
0
 40
0
 40
1
 40
1
 40
1
 40
1
 10
77.284792
 20
151.856175
 30
0.0
 10
77.001139
 20
151.747327
 30
0.0
 10
76.764444
 20
151.476512
 30
0.0
 10
76.764444
 20
151.256452
 30
0.0
  0
SPLINE
  5
2c4
100
AcDbEntity
  8
0
 62
7
100
AcDbSpline
 70
8
 71
3
 72
8
 73
4
 74
0
 40
0
 40
0
 40
0
 40
0
 40
1
 40
1
 40
1
 40
1
 10
76.764444
 20
151.256452
 30
0.0
 10
76.764444
 20
150.772289
 30
0.0
 10
72.328351
 20
146.344022
 30
0.0
 10
71.843194
 20
146.344022
 30
0.0
  0
SPLINE
  5
2c5
100
AcDbEntity
  8
0
 62
7
100
AcDbSpline
 70
8
 71
3
 72
8
 73
4
 74
0
 40
0
 40
0
 40
0
 40
0
 40
1
 40
1
 40
1
 40
1
 10
71.843194
 20
146.344022
 30
0.0
 10
71.654515
 20
146.344022
 30
0.0
 10
71.327679
 20
146.026522
 30
0.0
 10
71.120000
 20
145.638466
 30
0.0
  0
SPLINE
  5
2c6
100
AcDbEntity
  8
0
 62
7
100
AcDbSpline
 70
8
 71
3
 72
8
 73
4
 74
0
 40
0
 40
0
 40
0
 40
0
 40
1
 40
1
 40
1
 40
1
 10
71.120000
 20
145.638466
 30
0.0
 10
70.912318
 20
145.250411
 30
0.0
 10
70.600468
 20
144.932911
 30
0.0
 10
70.423264
 20
144.932911
 30
0.0
  0
SPLINE
  5
2c7
100
AcDbEntity
  8
0
 62
7
100
AcDbSpline
 70
8
 71
3
 72
8
 73
4
 74
0
 40
0
 40
0
 40
0
 40
0
 40
1
 40
1
 40
1
 40
1
 10
70.423264
 20
144.932911
 30
0.0
 10
70.246062
 20
144.932911
 30
0.0
 10
69.661560
 20
144.519997
 30
0.0
 10
69.117986
 20
144.015689
 30
0.0
  0
SPLINE
  5
2c8
100
AcDbEntity
  8
0
 62
7
100
AcDbSpline
 70
8
 71
3
 72
8
 73
4
 74
0
 40
0
 40
0
 40
0
 40
0
 40
1
 40
1
 40
1
 40
1
 10
69.117986
 20
144.015689
 30
0.0
 10
68.030787
 20
143.007018
 30
0.0
 10
67.981023
 20
142.068358
 30
0.0
 10
68.976875
 20
140.999439
 30
0.0
  0
SPLINE
  5
2c9
100
AcDbEntity
  8
0
 62
7
100
AcDbSpline
 70
8
 71
3
 72
8
 73
4
 74
0
 40
0
 40
0
 40
0
 40
0
 40
1
 40
1
 40
1
 40
1
 10
68.976875
 20
140.999439
 30
0.0
 10
70.083096
 20
139.812051
 30
0.0
 10
70.659097
 20
138.492233
 30
0.0
 10
70.141042
 20
138.318327
 30
0.0
  0
SPLINE
  5
2ca
100
AcDbEntity
  8
0
 62
7
100
AcDbSpline
 70
8
 71
3
 72
8
 73
4
 74
0
 40
0
 40
0
 40
0
 40
0
 40
1
 40
1
 40
1
 40
1
 10
70.141042
 20
138.318327
 30
0.0
 10
69.891340
 20
138.234507
 30
0.0
 10
69.231431
 20
137.779421
 30
0.0
 10
68.677014
 20
137.312911
 30
0.0
  0
SPLINE
  5
2cb
100
AcDbEntity
  8
0
 62
7
100
AcDbSpline
 70
8
 71
3
 72
8
 73
4
 74
0
 40
0
 40
0
 40
0
 40
0
 40
1
 40
1
 40
1
 40
1
 10
68.677014
 20
137.312911
 30
0.0
 10
68.122597
 20
136.846400
 30
0.0
 10
67.498070
 20
136.466244
 30
0.0
 10
67.283542
 20
136.466244
 30
0.0
  0
SPLINE
  5
2cc
100
AcDbEntity
  8
0
 62
7
100
AcDbSpline
 70
8
 71
3
 72
8
 73
4
 74
0
 40
0
 40
0
 40
0
 40
0
 40
1
 40
1
 40
1
 40
1
 10
67.283542
 20
136.466244
 30
0.0
 10
67.069016
 20
136.466244
 30
0.0
 10
66.886963
 20
136.347183
 30
0.0
 10
66.877847
 20
136.201661
 30
0.0
  0
SPLINE
  5
2cd
100
AcDbEntity
  8
0
 62
7
100
AcDbSpline
 70
8
 71
3
 72
8
 73
4
 74
0
 40
0
 40
0
 40
0
 40
0
 40
1
 40
1
 40
1
 40
1
 10
66.877847
 20
136.201661
 30
0.0
 10
66.868760
 20
136.056141
 30
0.0
 10
66.054907
 20
135.381452
 30
0.0
 10
65.069861
 20
134.702355
 30
0.0
  0
SPLINE
  5
2ce
100
AcDbEntity
  8
0
 62
7
100
AcDbSpline
 70
8
 71
3
 72
8
 73
4
 74
0
 40
0
 40
0
 40
0
 40
0
 40
1
 40
1
 40
1
 40
1
 10
65.069861
 20
134.702355
 30
0.0
 10
64.084818
 20
134.023258
 30
0.0
 10
63.025240
 20
133.189822
 30
0.0
 10
62.715069
 20
132.850272
 30
0.0
  0
SPLINE
  5
2cf
100
AcDbEntity
  8
0
 62
7
100
AcDbSpline
 70
8
 71
3
 72
8
 73
4
 74
0
 40
0
 40
0
 40
0
 40
0
 40
1
 40
1
 40
1
 40
1
 10
62.715069
 20
132.850272
 30
0.0
 10
62.404902
 20
132.510725
 30
0.0
 10
61.959047
 20
132.232911
 30
0.0
 10
61.727292
 20
132.232911
 30
0.0
  0
SPLINE
  5
2d0
100
AcDbEntity
  8
0
 62
7
100
AcDbSpline
 70
8
 71
3
 72
8
 73
4
 74
0
 40
0
 40
0
 40
0
 40
0
 40
1
 40
1
 40
1
 40
1
 10
61.727292
 20
132.232911
 30
0.0
 10
61.495542
 20
132.232911
 30
0.0
 10
61.253985
 20
132.107627
 30
0.0
 10
61.189306
 20
131.950689
 30
0.0
  0
SPLINE
  5
2d1
100
AcDbEntity
  8
0
 62
7
100
AcDbSpline
 70
8
 71
3
 72
8
 73
4
 74
0
 40
0
 40
0
 40
0
 40
0
 40
1
 40
1
 40
1
 40
1
 10
61.189306
 20
131.950689
 30
0.0
 10
61.124632
 20
131.793745
 30
0.0
 10
60.153019
 20
130.979212
 30
0.0
 10
59.037361
 20
130.142702
 30
0.0
  0
SPLINE
  5
2d2
100
AcDbEntity
  8
0
 62
7
100
AcDbSpline
 70
8
 71
3
 72
8
 73
4
 74
0
 40
0
 40
0
 40
0
 40
0
 40
1
 40
1
 40
1
 40
1
 10
59.037361
 20
130.142702
 30
0.0
 10
57.921700
 20
129.306196
 30
0.0
 10
57.008889
 20
128.478974
 30
0.0
 10
57.008889
 20
128.308258
 30
0.0
  0
SPLINE
  5
2d3
100
AcDbEntity
  8
0
 62
7
100
AcDbSpline
 70
8
 71
3
 72
8
 73
4
 74
0
 40
0
 40
0
 40
0
 40
0
 40
1
 40
1
 40
1
 40
1
 10
57.008889
 20
128.308258
 30
0.0
 10
57.008889
 20
128.137542
 30
0.0
 10
56.768035
 20
127.999577
 30
0.0
 10
56.470903
 20
127.999577
 30
0.0
  0
SPLINE
  5
2d4
100
AcDbEntity
  8
0
 62
7
100
AcDbSpline
 70
8
 71
3
 72
8
 73
4
 74
0
 40
0
 40
0
 40
0
 40
0
 40
1
 40
1
 40
1
 40
1
 10
56.470903
 20
127.999577
 30
0.0
 10
56.173771
 20
127.999577
 30
0.0
 10
55.841750
 20
127.761452
 30
0.0
 10
55.730069
 20
127.470411
 30
0.0
  0
SPLINE
  5
2d5
100
AcDbEntity
  8
0
 62
7
100
AcDbSpline
 70
8
 71
3
 72
8
 73
4
 74
0
 40
0
 40
0
 40
0
 40
0
 40
1
 40
1
 40
1
 40
1
 10
55.730069
 20
127.470411
 30
0.0
 10
55.618383
 20
127.179369
 30
0.0
 10
55.369742
 20
126.941244
 30
0.0
 10
55.183264
 20
126.941244
 30
0.0
  0
SPLINE
  5
2d6
100
AcDbEntity
  8
0
 62
7
100
AcDbSpline
 70
8
 71
3
 72
8
 73
4
 74
0
 40
0
 40
0
 40
0
 40
0
 40
1
 40
1
 40
1
 40
1
 10
55.183264
 20
126.941244
 30
0.0
 10
54.996783
 20
126.941244
 30
0.0
 10
55.178867
 20
127.400772
 30
0.0
 10
55.580139
 20
127.964300
 30
0.0
  0
SPLINE
  5
2d7
100
AcDbEntity
  8
0
 62
7
100
AcDbSpline
 70
8
 71
3
 72
8
 73
4
 74
0
 40
0
 40
0
 40
0
 40
0
 40
1
 40
1
 40
1
 40
1
 10
55.580139
 20
127.964300
 30
0.0
 10
55.981405
 20
128.527827
 30
0.0
 10
56.303333
 20
129.085131
 30
0.0
 10
56.303333
 20
129.199022
 30
0.0
  0
SPLINE
  5
2d8
100
AcDbEntity
  8
0
 62
7
100
AcDbSpline
 70
8
 71
3
 72
8
 73
4
 74
0
 40
0
 40
0
 40
0
 40
0
 40
1
 40
1
 40
1
 40
1
 10
56.303333
 20
129.199022
 30
0.0
 10
56.303333
 20
129.312910
 30
0.0
 10
56.882228
 20
130.151793
 30
0.0
 10
57.582153
 20
131.068744
 30
0.0
  0
SPLINE
  5
2d9
100
AcDbEntity
  8
0
 62
7
100
AcDbSpline
 70
8
 71
3
 72
8
 73
4
 74
0
 40
0
 40
0
 40
0
 40
0
 40
1
 40
1
 40
1
 40
1
 10
57.582153
 20
131.068744
 30
0.0
 10
58.282075
 20
131.985695
 30
0.0
 10
58.992437
 20
133.104086
 30
0.0
 10
59.160833
 20
133.547008
 30
0.0
  0
SPLINE
  5
2da
100
AcDbEntity
  8
0
 62
7
100
AcDbSpline
 70
8
 71
3
 72
8
 73
4
 74
0
 40
0
 40
0
 40
0
 40
0
 40
1
 40
1
 40
1
 40
1
 10
59.160833
 20
133.547008
 30
0.0
 10
59.329235
 20
133.989936
 30
0.0
 10
59.615903
 20
134.349577
 30
0.0
 10
59.795833
 20
134.349577
 30
0.0
  0
SPLINE
  5
2db
100
AcDbEntity
  8
0
 62
7
100
AcDbSpline
 70
8
 71
3
 72
8
 73
4
 74
0
 40
0
 40
0
 40
0
 40
0
 40
1
 40
1
 40
1
 40
1
 10
59.795833
 20
134.349577
 30
0.0
 10
60.190140
 20
134.349577
 30
0.0
 10
61.571279
 20
138.770024
 30
0.0
 10
61.947778
 20
141.228744
 30
0.0
  0
SPLINE
  5
2dc
100
AcDbEntity
  8
0
 62
7
100
AcDbSpline
 70
8
 71
3
 72
8
 73
4
 74
0
 40
0
 40
0
 40
0
 40
0
 40
1
 40
1
 40
1
 40
1
 10
61.947778
 20
141.228744
 30
0.0
 10
62.096331
 20
142.198883
 30
0.0
 10
62.491140
 20
144.103883
 30
0.0
 10
62.820903
 20
145.462077
 30
0.0
  0
SPLINE
  5
2dd
100
AcDbEntity
  8
0
 62
7
100
AcDbSpline
 70
8
 71
3
 72
8
 73
4
 74
0
 40
0
 40
0
 40
0
 40
0
 40
1
 40
1
 40
1
 40
1
 10
62.820903
 20
145.462077
 30
0.0
 10
63.150668
 20
146.820272
 30
0.0
 10
63.668961
 20
148.963397
 30
0.0
 10
63.976250
 20
150.224577
 30
0.0
  0
SPLINE
  5
2de
100
AcDbEntity
  8
0
 62
7
100
AcDbSpline
 70
8
 71
3
 72
8
 73
4
 74
0
 40
0
 40
0
 40
0
 40
0
 40
1
 40
1
 40
1
 40
1
 10
63.976250
 20
150.224577
 30
0.0
 10
64.283542
 20
151.485758
 30
0.0
 10
64.602766
 20
153.073258
 30
0.0
 10
64.690625
 20
153.752355
 30
0.0
  0
SPLINE
  5
2df
100
AcDbEntity
  8
0
 62
7
100
AcDbSpline
 70
8
 71
3
 72
8
 73
4
 74
0
 40
0
 40
0
 40
0
 40
0
 40
1
 40
1
 40
1
 40
1
 10
64.690625
 20
153.752355
 30
0.0
 10
64.778484
 20
154.431452
 30
0.0
 10
65.050800
 20
155.225202
 30
0.0
 10
65.290347
 20
155.516244
 30
0.0
  0
SPLINE
  5
2e0
100
AcDbEntity
  8
0
 62
7
100
AcDbSpline
 70
8
 71
3
 72
8
 73
4
 74
0
 40
0
 40
0
 40
0
 40
0
 40
1
 40
1
 40
1
 40
1
 10
65.290347
 20
155.516244
 30
0.0
 10
65.529892
 20
155.807286
 30
0.0
 10
66.241605
 20
157.077286
 30
0.0
 10
66.869028
 20
158.338466
 30
0.0
  0
SPLINE
  5
2e1
100
AcDbEntity
  8
0
 62
7
100
AcDbSpline
 70
8
 71
3
 72
8
 73
4
 74
0
 40
0
 40
0
 40
0
 40
0
 40
1
 40
1
 40
1
 40
1
 10
66.869028
 20
158.338466
 30
0.0
 10
67.496456
 20
159.599647
 30
0.0
 10
68.219413
 20
161.028397
 30
0.0
 10
68.482986
 20
161.513466
 30
0.0
  0
SPLINE
  5
2e2
100
AcDbEntity
  8
0
 62
7
100
AcDbSpline
 70
8
 71
3
 72
8
 73
4
 74
0
 40
0
 40
0
 40
0
 40
0
 40
1
 40
1
 40
1
 40
1
 10
68.482986
 20
161.513466
 30
0.0
 10
69.631825
 20
163.627737
 30
0.0
 10
71.825556
 20
168.370050
 30
0.0
 10
71.825556
 20
168.736591
 30
0.0
  0
SPLINE
  5
2e3
100
AcDbEntity
  8
0
 62
7
100
AcDbSpline
 70
8
 71
3
 72
8
 73
4
 74
0
 40
0
 40
0
 40
0
 40
0
 40
1
 40
1
 40
1
 40
1
 10
71.825556
 20
168.736591
 30
0.0
 10
71.825556
 20
169.268848
 30
0.0
 10
72.305827
 20
169.713303
 30
0.0
 10
72.839792
 20
169.768466
 30
0.0
  0
LWPOLYLINE
  5
2e4
100
AcDbEntity
  8
0
 62
7
100
AcDbPolyline
 90
2
 70
0
 10
55.218542
 20
181.224925
 30
0.0
 10
55.218542
 20
181.224925
 30
0.0
  0
SPLINE
  5
2e5
100
AcDbEntity
  8
0
 62
7
100
AcDbSpline
 70
8
 71
3
 72
8
 73
4
 74
0
 40
0
 40
0
 40
0
 40
0
 40
1
 40
1
 40
1
 40
1
 10
12.911667
 20
155.516244
 30
0.0
 10
13.105694
 20
155.516244
 30
0.0
 10
13.264444
 20
155.357494
 30
0.0
 10
13.264444
 20
155.163466
 30
0.0
  0
SPLINE
  5
2e6
100
AcDbEntity
  8
0
 62
7
100
AcDbSpline
 70
8
 71
3
 72
8
 73
4
 74
0
 40
0
 40
0
 40
0
 40
0
 40
1
 40
1
 40
1
 40
1
 10
13.264444
 20
155.163466
 30
0.0
 10
13.264444
 20
154.969439
 30
0.0
 10
13.105694
 20
154.810689
 30
0.0
 10
12.911667
 20
154.810689
 30
0.0
  0
SPLINE
  5
2e7
100
AcDbEntity
  8
0
 62
7
100
AcDbSpline
 70
8
 71
3
 72
8
 73
4
 74
0
 40
0
 40
0
 40
0
 40
0
 40
1
 40
1
 40
1
 40
1
 10
12.911667
 20
154.810689
 30
0.0
 10
12.717639
 20
154.810689
 30
0.0
 10
12.558889
 20
154.969439
 30
0.0
 10
12.558889
 20
155.163466
 30
0.0
  0
SPLINE
  5
2e8
100
AcDbEntity
  8
0
 62
7
100
AcDbSpline
 70
8
 71
3
 72
8
 73
4
 74
0
 40
0
 40
0
 40
0
 40
0
 40
1
 40
1
 40
1
 40
1
 10
12.558889
 20
155.163466
 30
0.0
 10
12.558889
 20
155.357494
 30
0.0
 10
12.717639
 20
155.516244
 30
0.0
 10
12.911667
 20
155.516244
 30
0.0
  0
LWPOLYLINE
  5
2e9
100
AcDbEntity
  8
0
 62
7
100
AcDbPolyline
 90
2
 70
0
 10
72.839792
 20
169.768466
 30
0.0
 10
72.839792
 20
169.768466
 30
0.0
  0
SPLINE
  5
2ea
100
AcDbEntity
  8
0
 62
7
100
AcDbSpline
 70
8
 71
3
 72
8
 73
4
 74
0
 40
0
 40
0
 40
0
 40
0
 40
1
 40
1
 40
1
 40
1
 10
114.476389
 20
151.318189
 30
0.0
 10
114.544464
 20
151.325239
 30
0.0
 10
114.628481
 20
151.289568
 30
0.0
 10
114.723333
 20
151.194716
 30
0.0
  0
SPLINE
  5
2eb
100
AcDbEntity
  8
0
 62
7
100
AcDbSpline
 70
8
 71
3
 72
8
 73
4
 74
0
 40
0
 40
0
 40
0
 40
0
 40
1
 40
1
 40
1
 40
1
 10
114.723333
 20
151.194716
 30
0.0
 10
114.837498
 20
151.080549
 30
0.0
 10
114.874099
 20
150.693967
 30
0.0
 10
114.802708
 20
150.339230
 30
0.0
  0
SPLINE
  5
2ec
100
AcDbEntity
  8
0
 62
7
100
AcDbSpline
 70
8
 71
3
 72
8
 73
4
 74
0
 40
0
 40
0
 40
0
 40
0
 40
1
 40
1
 40
1
 40
1
 10
114.802708
 20
150.339230
 30
0.0
 10
114.679151
 20
149.725290
 30
0.0
 10
114.655671
 20
149.729960
 30
0.0
 10
114.405833
 20
150.365689
 30
0.0
  0
SPLINE
  5
2ed
100
AcDbEntity
  8
0
 62
7
100
AcDbSpline
 70
8
 71
3
 72
8
 73
4
 74
0
 40
0
 40
0
 40
0
 40
0
 40
1
 40
1
 40
1
 40
1
 10
114.405833
 20
150.365689
 30
0.0
 10
114.206082
 20
150.873971
 30
0.0
 10
114.272162
 20
151.297036
 30
0.0
 10
114.476389
 20
151.318189
 30
0.0
  0
LWPOLYLINE
  5
2ee
100
AcDbEntity
  8
0
 62
7
100
AcDbPolyline
 90
2
 70
0
 10
12.911667
 20
155.516244
 30
0.0
 10
12.911667
 20
155.516244
 30
0.0
  0
SPLINE
  5
2ef
100
AcDbEntity
  8
0
 62
7
100
AcDbSpline
 70
8
 71
3
 72
8
 73
4
 74
0
 40
0
 40
0
 40
0
 40
0
 40
1
 40
1
 40
1
 40
1
 10
121.002778
 20
148.689994
 30
0.0
 10
121.579948
 20
148.704176
 30
0.0
 10
125.825899
 20
143.919078
 30
0.0
 10
126.259167
 20
142.728050
 30
0.0
  0
SPLINE
  5
2f0
100
AcDbEntity
  8
0
 62
7
100
AcDbSpline
 70
8
 71
3
 72
8
 73
4
 74
0
 40
0
 40
0
 40
0
 40
0
 40
1
 40
1
 40
1
 40
1
 10
126.259167
 20
142.728050
 30
0.0
 10
126.440819
 20
142.228697
 30
0.0
 10
126.291030
 20
142.110689
 30
0.0
 10
125.447778
 20
142.110689
 30
0.0
  0
SPLINE
  5
2f1
100
AcDbEntity
  8
0
 62
7
100
AcDbSpline
 70
8
 71
3
 72
8
 73
4
 74
0
 40
0
 40
0
 40
0
 40
0
 40
1
 40
1
 40
1
 40
1
 10
125.447778
 20
142.110689
 30
0.0
 10
124.616142
 20
142.110689
 30
0.0
 10
124.294406
 20
142.342622
 30
0.0
 10
123.869097
 20
143.257216
 30
0.0
  0
SPLINE
  5
2f2
100
AcDbEntity
  8
0
 62
7
100
AcDbSpline
 70
8
 71
3
 72
8
 73
4
 74
0
 40
0
 40
0
 40
0
 40
0
 40
1
 40
1
 40
1
 40
1
 10
123.869097
 20
143.257216
 30
0.0
 10
123.575854
 20
143.887808
 30
0.0
 10
123.025755
 20
144.879994
 30
0.0
 10
122.643194
 20
145.462077
 30
0.0
  0
SPLINE
  5
2f3
100
AcDbEntity
  8
0
 62
7
100
AcDbSpline
 70
8
 71
3
 72
8
 73
4
 74
0
 40
0
 40
0
 40
0
 40
0
 40
1
 40
1
 40
1
 40
1
 10
122.643194
 20
145.462077
 30
0.0
 10
121.484037
 20
147.225791
 30
0.0
 10
120.803743
 20
148.517418
 30
0.0
 10
120.958681
 20
148.672355
 30
0.0
  0
SPLINE
  5
2f4
100
AcDbEntity
  8
0
 62
7
100
AcDbSpline
 70
8
 71
3
 72
8
 73
4
 74
0
 40
0
 40
0
 40
0
 40
0
 40
1
 40
1
 40
1
 40
1
 10
120.958681
 20
148.672355
 30
0.0
 10
120.969408
 20
148.683083
 30
0.0
 10
120.984160
 20
148.689537
 30
0.0
 10
121.002778
 20
148.689994
 30
0.0
  0
LWPOLYLINE
  5
2f5
100
AcDbEntity
  8
0
 62
7
100
AcDbPolyline
 90
2
 70
0
 10
114.476389
 20
151.318189
 30
0.0
 10
114.476389
 20
151.318189
 30
0.0
  0
SPLINE
  5
2f6
100
AcDbEntity
  8
0
 62
7
100
AcDbSpline
 70
8
 71
3
 72
8
 73
4
 74
0
 40
0
 40
0
 40
0
 40
0
 40
1
 40
1
 40
1
 40
1
 10
118.215833
 20
148.275480
 30
0.0
 10
118.465868
 20
148.298035
 30
0.0
 10
118.665732
 20
147.948616
 30
0.0
 10
119.168333
 20
147.031939
 30
0.0
  0
SPLINE
  5
2f7
100
AcDbEntity
  8
0
 62
7
100
AcDbSpline
 70
8
 71
3
 72
8
 73
4
 74
0
 40
0
 40
0
 40
0
 40
0
 40
1
 40
1
 40
1
 40
1
 10
119.168333
 20
147.031939
 30
0.0
 10
120.838539
 20
143.985725
 30
0.0
 10
121.529348
 20
142.632783
 30
0.0
 10
121.549583
 20
142.375272
 30
0.0
  0
SPLINE
  5
2f8
100
AcDbEntity
  8
0
 62
7
100
AcDbSpline
 70
8
 71
3
 72
8
 73
4
 74
0
 40
0
 40
0
 40
0
 40
0
 40
1
 40
1
 40
1
 40
1
 10
121.549583
 20
142.375272
 30
0.0
 10
121.561039
 20
142.229753
 30
0.0
 10
120.476529
 20
142.110689
 30
0.0
 10
119.141875
 20
142.110689
 30
0.0
  0
SPLINE
  5
2f9
100
AcDbEntity
  8
0
 62
7
100
AcDbSpline
 70
8
 71
3
 72
8
 73
4
 74
0
 40
0
 40
0
 40
0
 40
0
 40
1
 40
1
 40
1
 40
1
 10
119.141875
 20
142.110689
 30
0.0
 10
116.487877
 20
142.110689
 30
0.0
 10
116.325757
 20
142.254549
 30
0.0
 10
115.728750
 20
145.109300
 30
0.0
  0
SPLINE
  5
2fa
100
AcDbEntity
  8
0
 62
7
100
AcDbSpline
 70
8
 71
3
 72
8
 73
4
 74
0
 40
0
 40
0
 40
0
 40
0
 40
1
 40
1
 40
1
 40
1
 10
115.728750
 20
145.109300
 30
0.0
 10
115.607022
 20
145.691383
 30
0.0
 10
115.429098
 20
146.455627
 30
0.0
 10
115.331875
 20
146.811452
 30
0.0
  0
SPLINE
  5
2fb
100
AcDbEntity
  8
0
 62
7
100
AcDbSpline
 70
8
 71
3
 72
8
 73
4
 74
0
 40
0
 40
0
 40
0
 40
0
 40
1
 40
1
 40
1
 40
1
 10
115.331875
 20
146.811452
 30
0.0
 10
115.189680
 20
147.331876
 30
0.0
 10
115.328971
 20
147.442278
 30
0.0
 10
116.037431
 20
147.349439
 30
0.0
  0
SPLINE
  5
2fc
100
AcDbEntity
  8
0
 62
7
100
AcDbSpline
 70
8
 71
3
 72
8
 73
4
 74
0
 40
0
 40
0
 40
0
 40
0
 40
1
 40
1
 40
1
 40
1
 10
116.037431
 20
147.349439
 30
0.0
 10
116.536611
 20
147.284025
 30
0.0
 10
117.227934
 20
147.511347
 30
0.0
 10
117.633750
 20
147.878605
 30
0.0
  0
SPLINE
  5
2fd
100
AcDbEntity
  8
0
 62
7
100
AcDbSpline
 70
8
 71
3
 72
8
 73
4
 74
0
 40
0
 40
0
 40
0
 40
0
 40
1
 40
1
 40
1
 40
1
 10
117.633750
 20
147.878605
 30
0.0
 10
117.897786
 20
148.117552
 30
0.0
 10
118.065812
 20
148.261948
 30
0.0
 10
118.215833
 20
148.275480
 30
0.0
  0
LWPOLYLINE
  5
2fe
100
AcDbEntity
  8
0
 62
7
100
AcDbPolyline
 90
2
 70
0
 10
121.002778
 20
148.689994
 30
0.0
 10
121.002778
 20
148.689994
 30
0.0
  0
SPLINE
  5
2ff
100
AcDbEntity
  8
0
 62
7
100
AcDbSpline
 70
8
 71
3
 72
8
 73
4
 74
0
 40
0
 40
0
 40
0
 40
0
 40
1
 40
1
 40
1
 40
1
 10
172.023264
 20
147.049577
 30
0.0
 10
172.244041
 20
147.049577
 30
0.0
 10
172.288781
 20
146.477609
 30
0.0
 10
172.146736
 20
145.550272
 30
0.0
  0
SPLINE
  5
300
100
AcDbEntity
  8
0
 62
7
100
AcDbSpline
 70
8
 71
3
 72
8
 73
4
 74
0
 40
0
 40
0
 40
0
 40
0
 40
1
 40
1
 40
1
 40
1
 10
172.146736
 20
145.550272
 30
0.0
 10
171.832022
 20
143.495609
 30
0.0
 10
171.661667
 20
143.441211
 30
0.0
 10
171.661667
 20
145.400341
 30
0.0
  0
SPLINE
  5
301
100
AcDbEntity
  8
0
 62
7
100
AcDbSpline
 70
8
 71
3
 72
8
 73
4
 74
0
 40
0
 40
0
 40
0
 40
0
 40
1
 40
1
 40
1
 40
1
 10
171.661667
 20
145.400341
 30
0.0
 10
171.661667
 20
146.305806
 30
0.0
 10
171.826944
 20
147.049577
 30
0.0
 10
172.023264
 20
147.049577
 30
0.0
  0
LWPOLYLINE
  5
302
100
AcDbEntity
  8
0
 62
7
100
AcDbPolyline
 90
2
 70
0
 10
118.215833
 20
148.275480
 30
0.0
 10
118.215833
 20
148.275480
 30
0.0
  0
SPLINE
  5
303
100
AcDbEntity
  8
0
 62
7
100
AcDbSpline
 70
8
 71
3
 72
8
 73
4
 74
0
 40
0
 40
0
 40
0
 40
0
 40
1
 40
1
 40
1
 40
1
 10
120.270764
 20
139.359022
 30
0.0
 10
121.815595
 20
139.380443
 30
0.0
 10
122.788104
 20
139.254704
 30
0.0
 10
123.031250
 20
138.997425
 30
0.0
  0
SPLINE
  5
304
100
AcDbEntity
  8
0
 62
7
100
AcDbSpline
 70
8
 71
3
 72
8
 73
4
 74
0
 40
0
 40
0
 40
0
 40
0
 40
1
 40
1
 40
1
 40
1
 10
123.031250
 20
138.997425
 30
0.0
 10
123.156328
 20
138.865074
 30
0.0
 10
123.365810
 20
138.243364
 30
0.0
 10
123.498681
 20
137.612772
 30
0.0
  0
SPLINE
  5
305
100
AcDbEntity
  8
0
 62
7
100
AcDbSpline
 70
8
 71
3
 72
8
 73
4
 74
0
 40
0
 40
0
 40
0
 40
0
 40
1
 40
1
 40
1
 40
1
 10
123.498681
 20
137.612772
 30
0.0
 10
123.782737
 20
136.264684
 30
0.0
 10
123.728218
 20
136.258853
 30
0.0
 10
120.623542
 20
137.312911
 30
0.0
  0
SPLINE
  5
306
100
AcDbEntity
  8
0
 62
7
100
AcDbSpline
 70
8
 71
3
 72
8
 73
4
 74
0
 40
0
 40
0
 40
0
 40
0
 40
1
 40
1
 40
1
 40
1
 10
120.623542
 20
137.312911
 30
0.0
 10
117.872919
 20
138.246767
 30
0.0
 10
117.347941
 20
139.258088
 30
0.0
 10
119.574028
 20
139.341383
 30
0.0
  0
SPLINE
  5
307
100
AcDbEntity
  8
0
 62
7
100
AcDbSpline
 70
8
 71
3
 72
8
 73
4
 74
0
 40
0
 40
0
 40
0
 40
0
 40
1
 40
1
 40
1
 40
1
 10
119.574028
 20
139.341383
 30
0.0
 10
119.817597
 20
139.350496
 30
0.0
 10
120.050075
 20
139.355963
 30
0.0
 10
120.270764
 20
139.359022
 30
0.0
  0
LWPOLYLINE
  5
308
100
AcDbEntity
  8
0
 62
7
100
AcDbPolyline
 90
2
 70
0
 10
172.023264
 20
147.049577
 30
0.0
 10
172.023264
 20
147.049577
 30
0.0
  0
LWPOLYLINE
  5
309
100
AcDbEntity
  8
0
 62
7
100
AcDbPolyline
 90
2
 70
0
 10
120.270764
 20
139.359022
 30
0.0
 10
120.270764
 20
139.359022
 30
0.0
  0
ENDSEC
  0
SECTION
  2
OBJECTS
  0
DICTIONARY
  5
C
330
0
100
AcDbDictionary
  3
ACAD_GROUP
350
D
  3
ACAD_MLINESTYLE
350
17
  0
DICTIONARY
  5
D
330
C
100
AcDbDictionary
  0
DICTIONARY
  5
1A
330
C
100
AcDbDictionary
  0
DICTIONARY
  5
17
330
C
100
AcDbDictionary
  3
STANDARD
350
18
  0
DICTIONARY
  5
19
330
C
100
AcDbDictionary
  0
ENDSEC
  0
EOF
