  0
SECTION
  2
HEADER
  9
$ACADVER
  1
AC1014
  9
$HANDSEED
  5
FFFF
  9
$MEASUREMENT
 70
     1
  0
ENDSEC
  0
SECTION
  2
TABLES
  0
TABLE
  2
VPORT
  5
8
330
0
100
AcDbSymbolTable
 70
     4
  0
VPORT
  5
2E
330
8
100
AcDbSymbolTableRecord
100
AcDbViewportTableRecord
  2
*ACTIVE
 70
     0
 10
0.0
 20
0.0
 11
1.0
 21
1.0
 12
210.0
 22
148.5
 13
0.0
 23
0.0
 14
10.0
 24
10.0
 15
10.0
 25
10.0
 16
0.0
 26
0.0
 36
1.0
 17
0.0
 27
0.0
 37
0.0
 40
341.0
 41
1.24
 42
50.0
 43
0.0
 44
0.0
 50
0.0
 51
0.0
 71
     0
 72
   100
 73
     1
 74
     3
 75
     0
 76
     0
 77
     0
 78
     0
  0
ENDTAB
  0
TABLE
  2
LTYPE
  5
5
330
0
100
AcDbSymbolTable
 70
     1
  0
LTYPE
  5
14
330
5
100
AcDbSymbolTableRecord
100
AcDbLinetypeTableRecord
  2
BYBLOCK
 70
     0
  3

 72
    65
 73
     0
 40
0.0
  0
LTYPE
  5
15
330
5
100
AcDbSymbolTableRecord
100
AcDbLinetypeTableRecord
  2
BYLAYER
 70
     0
  3

 72
    65
 73
     0
 40
0.0
  0
LTYPE
  5
16
330
5
100
AcDbSymbolTableRecord
100
AcDbLinetypeTableRecord
  2
CONTINUOUS
 70
     0
  3
Solid line
 72
    65
 73
     0
 40
0.0
  0
ENDTAB
  0
TABLE
  2
LAYER
  5
2
100
AcDbSymbolTable
 70
1
  0
LAYER
  5
50
100
AcDbSymbolTableRecord
100
AcDbLayerTableRecord
  2
0
 70
0
  6
CONTINUOUS
  0
ENDTAB
  0
TABLE
  2
STYLE
  5
3
330
0
100
AcDbSymbolTable
 70
     1
  0
STYLE
  5
11
330
3
100
AcDbSymbolTableRecord
100
AcDbTextStyleTableRecord
  2
STANDARD
 70
     0
 40
0.0
 41
1.0
 50
0.0
 71
     0
 42
2.5
  3
txt
  4

  0
ENDTAB
  0
TABLE
  2
VIEW
  5
6
330
0
100
AcDbSymbolTable
 70
     0
  0
ENDTAB
  0
TABLE
  2
UCS
  5
7
330
0
100
AcDbSymbolTable
 70
     0
  0
ENDTAB
  0
TABLE
  2
APPID
  5
9
330
0
100
AcDbSymbolTable
 70
     2
  0
APPID
  5
12
330
9
100
AcDbSymbolTableRecord
100
AcDbRegAppTableRecord
  2
ACAD
 70
     0
  0
ENDTAB
  0
TABLE
  2
DIMSTYLE
  5
A
330
0
100
AcDbSymbolTable
 70
     1
  0
DIMSTYLE
105
27
330
A
100
AcDbSymbolTableRecord
100
AcDbDimStyleTableRecord
  2
ISO-25
 70
     0
  3

  4

  5

  6

  7

 40
1.0
 41
2.5
 42
0.625
 43
3.75
 44
1.25
 45
0.0
 46
0.0
 47
0.0
 48
0.0
140
2.5
141
2.5
142
0.0
143
0.03937007874016
144
1.0
145
0.0
146
1.0
147
0.625
 71
     0
 72
     0
 73
     0
 74
     0
 75
     0
 76
     0
 77
     1
 78
     8
170
     0
171
     3
172
     1
173
     0
174
     0
175
     0
176
     0
177
     0
178
     0
270
     2
271
     2
272
     2
273
     2
274
     3
340
11
275
     0
280
     0
281
     0
282
     0
283
     0
284
     8
285
     0
286
     0
287
     3
288
     0
  0
ENDTAB
  0
TABLE
  2
BLOCK_RECORD
  5
1
330
0
100
AcDbSymbolTable
 70
     1
  0
BLOCK_RECORD
  5
1F
330
1
100
AcDbSymbolTableRecord
100
AcDbBlockTableRecord
  2
*MODEL_SPACE
  0
BLOCK_RECORD
  5
1B
330
1
100
AcDbSymbolTableRecord
100
AcDbBlockTableRecord
  2
*PAPER_SPACE
  0
ENDTAB
  0
ENDSEC
  0
SECTION
  2
BLOCKS
  0
BLOCK
  5
20
330
1F
100
AcDbEntity
  8
0
100
AcDbBlockBegin
  2
*MODEL_SPACE
 70
     0
 10
0.0
 20
0.0
 30
0.0
  3
*MODEL_SPACE
  1

  0
ENDBLK
  5
21
330
1F
100
AcDbEntity
  8
0
100
AcDbBlockEnd
  0
BLOCK
  5
1C
330
1B
100
AcDbEntity
 67
     1
  8
0
100
AcDbBlockBegin
  2
*PAPER_SPACE
  1

  0
ENDBLK
  5
1D
330
1B
100
AcDbEntity
 67
     1
  8
0
100
AcDbBlockEnd
  0
ENDSEC
  0
SECTION
  2
ENTITIES
  0
SPLINE
  5
100
100
AcDbEntity
  8
0
 62
7
100
AcDbSpline
 70
8
 71
3
 72
8
 73
4
 74
0
 40
0
 40
0
 40
0
 40
0
 40
1
 40
1
 40
1
 40
1
 10
99.792014
 20
261.761111
 30
0.0
 10
97.252211
 20
261.761111
 30
0.0
 10
95.698812
 20
260.969546
 30
0.0
 10
93.697778
 20
258.665486
 30
0.0
  0
SPLINE
  5
101
100
AcDbEntity
  8
0
 62
7
100
AcDbSpline
 70
8
 71
3
 72
8
 73
4
 74
0
 40
0
 40
0
 40
0
 40
0
 40
1
 40
1
 40
1
 40
1
 10
93.697778
 20
258.665486
 30
0.0
 10
93.484198
 20
258.419560
 30
0.0
 10
91.784102
 20
256.673310
 30
0.0
 10
89.923056
 20
254.784931
 30
0.0
  0
SPLINE
  5
102
100
AcDbEntity
  8
0
 62
7
100
AcDbSpline
 70
8
 71
3
 72
8
 73
4
 74
0
 40
0
 40
0
 40
0
 40
0
 40
1
 40
1
 40
1
 40
1
 10
89.923056
 20
254.784931
 30
0.0
 10
88.062006
 20
252.896551
 30
0.0
 10
85.058278
 20
249.687292
 30
0.0
 10
83.246736
 20
247.650000
 30
0.0
  0
SPLINE
  5
103
100
AcDbEntity
  8
0
 62
7
100
AcDbSpline
 70
8
 71
3
 72
8
 73
4
 74
0
 40
0
 40
0
 40
0
 40
0
 40
1
 40
1
 40
1
 40
1
 10
83.246736
 20
247.650000
 30
0.0
 10
78.285727
 20
242.070760
 30
0.0
 10
78.373362
 20
242.167675
 30
0.0
 10
72.654583
 20
236.131806
 30
0.0
  0
SPLINE
  5
104
100
AcDbEntity
  8
0
 62
7
100
AcDbSpline
 70
8
 71
3
 72
8
 73
4
 74
0
 40
0
 40
0
 40
0
 40
0
 40
1
 40
1
 40
1
 40
1
 10
72.654583
 20
236.131806
 30
0.0
 10
71.579351
 20
234.996953
 30
0.0
 10
69.833101
 20
233.036181
 30
0.0
 10
68.774028
 20
231.775000
 30
0.0
  0
SPLINE
  5
105
100
AcDbEntity
  8
0
 62
7
100
AcDbSpline
 70
8
 71
3
 72
8
 73
4
 74
0
 40
0
 40
0
 40
0
 40
0
 40
1
 40
1
 40
1
 40
1
 10
68.774028
 20
231.775000
 30
0.0
 10
67.714952
 20
230.513819
 30
0.0
 10
66.732325
 20
229.431969
 30
0.0
 10
66.586806
 20
229.367292
 30
0.0
  0
SPLINE
  5
106
100
AcDbEntity
  8
0
 62
7
100
AcDbSpline
 70
8
 71
3
 72
8
 73
4
 74
0
 40
0
 40
0
 40
0
 40
0
 40
1
 40
1
 40
1
 40
1
 10
66.586806
 20
229.367292
 30
0.0
 10
66.441283
 20
229.302618
 30
0.0
 10
66.322222
 20
229.032799
 30
0.0
 10
66.322222
 20
228.767569
 30
0.0
  0
SPLINE
  5
107
100
AcDbEntity
  8
0
 62
7
100
AcDbSpline
 70
8
 71
3
 72
8
 73
4
 74
0
 40
0
 40
0
 40
0
 40
0
 40
1
 40
1
 40
1
 40
1
 10
66.322222
 20
228.767569
 30
0.0
 10
66.322222
 20
228.502337
 30
0.0
 10
66.121943
 20
228.155441
 30
0.0
 10
65.872431
 20
228.000278
 30
0.0
  0
SPLINE
  5
108
100
AcDbEntity
  8
0
 62
7
100
AcDbSpline
 70
8
 71
3
 72
8
 73
4
 74
0
 40
0
 40
0
 40
0
 40
0
 40
1
 40
1
 40
1
 40
1
 10
65.872431
 20
228.000278
 30
0.0
 10
65.341799
 20
227.670295
 30
0.0
 10
62.171950
 20
223.084430
 30
0.0
 10
60.827708
 20
220.697778
 30
0.0
  0
SPLINE
  5
109
100
AcDbEntity
  8
0
 62
7
100
AcDbSpline
 70
8
 71
3
 72
8
 73
4
 74
0
 40
0
 40
0
 40
0
 40
0
 40
1
 40
1
 40
1
 40
1
 10
60.827708
 20
220.697778
 30
0.0
 10
60.510115
 20
220.133909
 30
0.0
 10
60.102852
 20
219.498909
 30
0.0
 10
59.919306
 20
219.286667
 30
0.0
  0
SPLINE
  5
10a
100
AcDbEntity
  8
0
 62
7
100
AcDbSpline
 70
8
 71
3
 72
8
 73
4
 74
0
 40
0
 40
0
 40
0
 40
0
 40
1
 40
1
 40
1
 40
1
 10
59.919306
 20
219.286667
 30
0.0
 10
59.735754
 20
219.074421
 30
0.0
 10
58.447886
 20
217.152361
 30
0.0
 10
57.061806
 20
215.018056
 30
0.0
  0
SPLINE
  5
10b
100
AcDbEntity
  8
0
 62
7
100
AcDbSpline
 70
8
 71
3
 72
8
 73
4
 74
0
 40
0
 40
0
 40
0
 40
0
 40
1
 40
1
 40
1
 40
1
 10
57.061806
 20
215.018056
 30
0.0
 10
55.675728
 20
212.883750
 30
0.0
 10
54.445487
 20
211.058125
 30
0.0
 10
54.327778
 20
210.961111
 30
0.0
  0
SPLINE
  5
10c
100
AcDbEntity
  8
0
 62
7
100
AcDbSpline
 70
8
 71
3
 72
8
 73
4
 74
0
 40
0
 40
0
 40
0
 40
0
 40
1
 40
1
 40
1
 40
1
 10
54.327778
 20
210.961111
 30
0.0
 10
54.210069
 20
210.864097
 30
0.0
 10
53.726633
 20
210.155801
 30
0.0
 10
53.251806
 20
209.382431
 30
0.0
  0
SPLINE
  5
10d
100
AcDbEntity
  8
0
 62
7
100
AcDbSpline
 70
8
 71
3
 72
8
 73
4
 74
0
 40
0
 40
0
 40
0
 40
0
 40
1
 40
1
 40
1
 40
1
 10
53.251806
 20
209.382431
 30
0.0
 10
52.776981
 20
208.609063
 30
0.0
 10
52.228750
 20
207.714037
 30
0.0
 10
52.034722
 20
207.398056
 30
0.0
  0
SPLINE
  5
10e
100
AcDbEntity
  8
0
 62
7
100
AcDbSpline
 70
8
 71
3
 72
8
 73
4
 74
0
 40
0
 40
0
 40
0
 40
0
 40
1
 40
1
 40
1
 40
1
 10
52.034722
 20
207.398056
 30
0.0
 10
51.840694
 20
207.082077
 30
0.0
 10
51.321408
 20
206.202873
 30
0.0
 10
50.879375
 20
205.448958
 30
0.0
  0
SPLINE
  5
10f
100
AcDbEntity
  8
0
 62
7
100
AcDbSpline
 70
8
 71
3
 72
8
 73
4
 74
0
 40
0
 40
0
 40
0
 40
0
 40
1
 40
1
 40
1
 40
1
 10
50.879375
 20
205.448958
 30
0.0
 10
50.437344
 20
204.695044
 30
0.0
 10
49.765574
 20
203.605694
 30
0.0
 10
49.388889
 20
203.023611
 30
0.0
  0
SPLINE
  5
110
100
AcDbEntity
  8
0
 62
7
100
AcDbSpline
 70
8
 71
3
 72
8
 73
4
 74
0
 40
0
 40
0
 40
0
 40
0
 40
1
 40
1
 40
1
 40
1
 10
49.388889
 20
203.023611
 30
0.0
 10
49.012198
 20
202.441528
 30
0.0
 10
48.442905
 20
201.489028
 30
0.0
 10
48.118889
 20
200.906944
 30
0.0
  0
SPLINE
  5
111
100
AcDbEntity
  8
0
 62
7
100
AcDbSpline
 70
8
 71
3
 72
8
 73
4
 74
0
 40
0
 40
0
 40
0
 40
0
 40
1
 40
1
 40
1
 40
1
 10
48.118889
 20
200.906944
 30
0.0
 10
47.794872
 20
200.324861
 30
0.0
 10
47.427761
 20
199.769236
 30
0.0
 10
47.307500
 20
199.672222
 30
0.0
  0
SPLINE
  5
112
100
AcDbEntity
  8
0
 62
7
100
AcDbSpline
 70
8
 71
3
 72
8
 73
4
 74
0
 40
0
 40
0
 40
0
 40
0
 40
1
 40
1
 40
1
 40
1
 10
47.307500
 20
199.672222
 30
0.0
 10
46.927262
 20
199.365492
 30
0.0
 10
45.155556
 20
196.526517
 30
0.0
 10
45.155556
 20
196.223819
 30
0.0
  0
SPLINE
  5
113
100
AcDbEntity
  8
0
 62
7
100
AcDbSpline
 70
8
 71
3
 72
8
 73
4
 74
0
 40
0
 40
0
 40
0
 40
0
 40
1
 40
1
 40
1
 40
1
 10
45.155556
 20
196.223819
 30
0.0
 10
45.155556
 20
196.064437
 30
0.0
 10
44.957117
 20
195.740401
 30
0.0
 10
44.714583
 20
195.500625
 30
0.0
  0
SPLINE
  5
114
100
AcDbEntity
  8
0
 62
7
100
AcDbSpline
 70
8
 71
3
 72
8
 73
4
 74
0
 40
0
 40
0
 40
0
 40
0
 40
1
 40
1
 40
1
 40
1
 10
44.714583
 20
195.500625
 30
0.0
 10
44.213275
 20
195.005015
 30
0.0
 10
41.596976
 20
190.287283
 30
0.0
 10
40.719375
 20
188.295139
 30
0.0
  0
SPLINE
  5
115
100
AcDbEntity
  8
0
 62
7
100
AcDbSpline
 70
8
 71
3
 72
8
 73
4
 74
0
 40
0
 40
0
 40
0
 40
0
 40
1
 40
1
 40
1
 40
1
 10
40.719375
 20
188.295139
 30
0.0
 10
40.398844
 20
187.567536
 30
0.0
 10
40.001571
 20
186.972222
 30
0.0
 10
39.828611
 20
186.972222
 30
0.0
  0
SPLINE
  5
116
100
AcDbEntity
  8
0
 62
7
100
AcDbSpline
 70
8
 71
3
 72
8
 73
4
 74
0
 40
0
 40
0
 40
0
 40
0
 40
1
 40
1
 40
1
 40
1
 10
39.828611
 20
186.972222
 30
0.0
 10
39.655651
 20
186.972222
 30
0.0
 10
39.511111
 20
186.686472
 30
0.0
 10
39.511111
 20
186.337222
 30
0.0
  0
SPLINE
  5
117
100
AcDbEntity
  8
0
 62
7
100
AcDbSpline
 70
8
 71
3
 72
8
 73
4
 74
0
 40
0
 40
0
 40
0
 40
0
 40
1
 40
1
 40
1
 40
1
 10
39.511111
 20
186.337222
 30
0.0
 10
39.511111
 20
185.987972
 30
0.0
 10
39.357232
 20
185.548343
 30
0.0
 10
39.167153
 20
185.358264
 30
0.0
  0
SPLINE
  5
118
100
AcDbEntity
  8
0
 62
7
100
AcDbSpline
 70
8
 71
3
 72
8
 73
4
 74
0
 40
0
 40
0
 40
0
 40
0
 40
1
 40
1
 40
1
 40
1
 10
39.167153
 20
185.358264
 30
0.0
 10
38.826849
 20
185.017960
 30
0.0
 10
36.657844
 20
181.088690
 30
0.0
 10
35.286597
 20
178.329167
 30
0.0
  0
SPLINE
  5
119
100
AcDbEntity
  8
0
 62
7
100
AcDbSpline
 70
8
 71
3
 72
8
 73
4
 74
0
 40
0
 40
0
 40
0
 40
0
 40
1
 40
1
 40
1
 40
1
 10
35.286597
 20
178.329167
 30
0.0
 10
34.900938
 20
177.553056
 30
0.0
 10
33.885643
 20
175.648056
 30
0.0
 10
33.028819
 20
174.095833
 30
0.0
  0
SPLINE
  5
11a
100
AcDbEntity
  8
0
 62
7
100
AcDbSpline
 70
8
 71
3
 72
8
 73
4
 74
0
 40
0
 40
0
 40
0
 40
0
 40
1
 40
1
 40
1
 40
1
 10
33.028819
 20
174.095833
 30
0.0
 10
31.151565
 20
170.694999
 30
0.0
 10
30.018696
 20
168.395410
 30
0.0
 10
28.954236
 20
165.805556
 30
0.0
  0
SPLINE
  5
11b
100
AcDbEntity
  8
0
 62
7
100
AcDbSpline
 70
8
 71
3
 72
8
 73
4
 74
0
 40
0
 40
0
 40
0
 40
0
 40
1
 40
1
 40
1
 40
1
 10
28.954236
 20
165.805556
 30
0.0
 10
28.515623
 20
164.738403
 30
0.0
 10
27.852291
 20
163.230278
 30
0.0
 10
27.481389
 20
162.454167
 30
0.0
  0
SPLINE
  5
11c
100
AcDbEntity
  8
0
 62
7
100
AcDbSpline
 70
8
 71
3
 72
8
 73
4
 74
0
 40
0
 40
0
 40
0
 40
0
 40
1
 40
1
 40
1
 40
1
 10
27.481389
 20
162.454167
 30
0.0
 10
27.110490
 20
161.678056
 30
0.0
 10
26.810547
 20
160.898332
 30
0.0
 10
26.811111
 20
160.725556
 30
0.0
  0
SPLINE
  5
11d
100
AcDbEntity
  8
0
 62
7
100
AcDbSpline
 70
8
 71
3
 72
8
 73
4
 74
0
 40
0
 40
0
 40
0
 40
0
 40
1
 40
1
 40
1
 40
1
 10
26.811111
 20
160.725556
 30
0.0
 10
26.811650
 20
160.552779
 30
0.0
 10
26.514448
 20
159.759029
 30
0.0
 10
26.149653
 20
158.961667
 30
0.0
  0
SPLINE
  5
11e
100
AcDbEntity
  8
0
 62
7
100
AcDbSpline
 70
8
 71
3
 72
8
 73
4
 74
0
 40
0
 40
0
 40
0
 40
0
 40
1
 40
1
 40
1
 40
1
 10
26.149653
 20
158.961667
 30
0.0
 10
25.260977
 20
157.019213
 30
0.0
 10
24.212784
 20
154.441271
 30
0.0
 10
23.265694
 20
151.870833
 30
0.0
  0
SPLINE
  5
11f
100
AcDbEntity
  8
0
 62
7
100
AcDbSpline
 70
8
 71
3
 72
8
 73
4
 74
0
 40
0
 40
0
 40
0
 40
0
 40
1
 40
1
 40
1
 40
1
 10
23.265694
 20
151.870833
 30
0.0
 10
22.836751
 20
150.706667
 30
0.0
 10
22.207688
 20
149.119167
 30
0.0
 10
21.872222
 20
148.343056
 30
0.0
  0
SPLINE
  5
120
100
AcDbEntity
  8
0
 62
7
100
AcDbSpline
 70
8
 71
3
 72
8
 73
4
 74
0
 40
0
 40
0
 40
0
 40
0
 40
1
 40
1
 40
1
 40
1
 10
21.872222
 20
148.343056
 30
0.0
 10
21.536753
 20
147.566944
 30
0.0
 10
20.914414
 20
145.979444
 30
0.0
 10
20.487569
 20
144.815278
 30
0.0
  0
SPLINE
  5
121
100
AcDbEntity
  8
0
 62
7
100
AcDbSpline
 70
8
 71
3
 72
8
 73
4
 74
0
 40
0
 40
0
 40
0
 40
0
 40
1
 40
1
 40
1
 40
1
 10
20.487569
 20
144.815278
 30
0.0
 10
20.060722
 20
143.651111
 30
0.0
 10
19.399100
 20
142.020296
 30
0.0
 10
19.023542
 20
141.190486
 30
0.0
  0
SPLINE
  5
122
100
AcDbEntity
  8
0
 62
7
100
AcDbSpline
 70
8
 71
3
 72
8
 73
4
 74
0
 40
0
 40
0
 40
0
 40
0
 40
1
 40
1
 40
1
 40
1
 10
19.023542
 20
141.190486
 30
0.0
 10
18.647983
 20
140.360679
 30
0.0
 10
18.344444
 20
139.511143
 30
0.0
 10
18.344444
 20
139.303125
 30
0.0
  0
SPLINE
  5
123
100
AcDbEntity
  8
0
 62
7
100
AcDbSpline
 70
8
 71
3
 72
8
 73
4
 74
0
 40
0
 40
0
 40
0
 40
0
 40
1
 40
1
 40
1
 40
1
 10
18.344444
 20
139.303125
 30
0.0
 10
18.344444
 20
139.095102
 30
0.0
 10
18.115288
 20
138.424045
 30
0.0
 10
17.832917
 20
137.812639
 30
0.0
  0
SPLINE
  5
124
100
AcDbEntity
  8
0
 62
7
100
AcDbSpline
 70
8
 71
3
 72
8
 73
4
 74
0
 40
0
 40
0
 40
0
 40
0
 40
1
 40
1
 40
1
 40
1
 10
17.832917
 20
137.812639
 30
0.0
 10
17.550545
 20
137.201233
 30
0.0
 10
17.089241
 20
136.066389
 30
0.0
 10
16.809861
 20
135.290278
 30
0.0
  0
SPLINE
  5
125
100
AcDbEntity
  8
0
 62
7
100
AcDbSpline
 70
8
 71
3
 72
8
 73
4
 74
0
 40
0
 40
0
 40
0
 40
0
 40
1
 40
1
 40
1
 40
1
 10
16.809861
 20
135.290278
 30
0.0
 10
16.530480
 20
134.514167
 30
0.0
 10
15.950940
 20
133.006042
 30
0.0
 10
15.522222
 20
131.938889
 30
0.0
  0
SPLINE
  5
126
100
AcDbEntity
  8
0
 62
7
100
AcDbSpline
 70
8
 71
3
 72
8
 73
4
 74
0
 40
0
 40
0
 40
0
 40
0
 40
1
 40
1
 40
1
 40
1
 10
15.522222
 20
131.938889
 30
0.0
 10
15.093505
 20
130.871736
 30
0.0
 10
14.513965
 20
129.363611
 30
0.0
 10
14.234583
 20
128.587500
 30
0.0
  0
SPLINE
  5
127
100
AcDbEntity
  8
0
 62
7
100
AcDbSpline
 70
8
 71
3
 72
8
 73
4
 74
0
 40
0
 40
0
 40
0
 40
0
 40
1
 40
1
 40
1
 40
1
 10
14.234583
 20
128.587500
 30
0.0
 10
13.955202
 20
127.811389
 30
0.0
 10
13.493898
 20
126.676545
 30
0.0
 10
13.211528
 20
126.065139
 30
0.0
  0
SPLINE
  5
128
100
AcDbEntity
  8
0
 62
7
100
AcDbSpline
 70
8
 71
3
 72
8
 73
4
 74
0
 40
0
 40
0
 40
0
 40
0
 40
1
 40
1
 40
1
 40
1
 10
13.211528
 20
126.065139
 30
0.0
 10
12.929157
 20
125.453733
 30
0.0
 10
12.700000
 20
124.795991
 30
0.0
 10
12.700000
 20
124.601111
 30
0.0
  0
SPLINE
  5
129
100
AcDbEntity
  8
0
 62
7
100
AcDbSpline
 70
8
 71
3
 72
8
 73
4
 74
0
 40
0
 40
0
 40
0
 40
0
 40
1
 40
1
 40
1
 40
1
 10
12.700000
 20
124.601111
 30
0.0
 10
12.700000
 20
124.406237
 30
0.0
 10
12.402228
 20
123.636083
 30
0.0
 10
12.038542
 20
122.890139
 30
0.0
  0
SPLINE
  5
12a
100
AcDbEntity
  8
0
 62
7
100
AcDbSpline
 70
8
 71
3
 72
8
 73
4
 74
0
 40
0
 40
0
 40
0
 40
0
 40
1
 40
1
 40
1
 40
1
 10
12.038542
 20
122.890139
 30
0.0
 10
11.148967
 20
121.065575
 30
0.0
 10
10.151783
 20
118.302394
 30
0.0
 10
8.995833
 20
114.476389
 30
0.0
  0
SPLINE
  5
12b
100
AcDbEntity
  8
0
 62
7
100
AcDbSpline
 70
8
 71
3
 72
8
 73
4
 74
0
 40
0
 40
0
 40
0
 40
0
 40
1
 40
1
 40
1
 40
1
 10
8.995833
 20
114.476389
 30
0.0
 10
8.468239
 20
112.730139
 30
0.0
 10
7.809804
 20
110.701184
 30
0.0
 10
7.540625
 20
109.969653
 30
0.0
  0
SPLINE
  5
12c
100
AcDbEntity
  8
0
 62
7
100
AcDbSpline
 70
8
 71
3
 72
8
 73
4
 74
0
 40
0
 40
0
 40
0
 40
0
 40
1
 40
1
 40
1
 40
1
 10
7.540625
 20
109.969653
 30
0.0
 10
7.271447
 20
109.238121
 30
0.0
 10
7.054963
 20
108.285621
 30
0.0
 10
7.055556
 20
107.852986
 30
0.0
  0
SPLINE
  5
12d
100
AcDbEntity
  8
0
 62
7
100
AcDbSpline
 70
8
 71
3
 72
8
 73
4
 74
0
 40
0
 40
0
 40
0
 40
0
 40
1
 40
1
 40
1
 40
1
 10
7.055556
 20
107.852986
 30
0.0
 10
7.056170
 20
107.420351
 30
0.0
 10
6.754286
 20
105.956806
 30
0.0
 10
6.385278
 20
104.598611
 30
0.0
  0
SPLINE
  5
12e
100
AcDbEntity
  8
0
 62
7
100
AcDbSpline
 70
8
 71
3
 72
8
 73
4
 74
0
 40
0
 40
0
 40
0
 40
0
 40
1
 40
1
 40
1
 40
1
 10
6.385278
 20
104.598611
 30
0.0
 10
6.016271
 20
103.240417
 30
0.0
 10
5.381885
 20
100.903586
 30
0.0
 10
4.974167
 20
99.403958
 30
0.0
  0
SPLINE
  5
12f
100
AcDbEntity
  8
0
 62
7
100
AcDbSpline
 70
8
 71
3
 72
8
 73
4
 74
0
 40
0
 40
0
 40
0
 40
0
 40
1
 40
1
 40
1
 40
1
 10
4.974167
 20
99.403958
 30
0.0
 10
4.566449
 20
97.904337
 30
0.0
 10
4.233333
 20
96.266866
 30
0.0
 10
4.233333
 20
95.761528
 30
0.0
  0
SPLINE
  5
130
100
AcDbEntity
  8
0
 62
7
100
AcDbSpline
 70
8
 71
3
 72
8
 73
4
 74
0
 40
0
 40
0
 40
0
 40
0
 40
1
 40
1
 40
1
 40
1
 10
4.233333
 20
95.761528
 30
0.0
 10
4.233333
 20
95.256186
 30
0.0
 10
3.934995
 20
93.624273
 30
0.0
 10
3.571875
 20
92.136736
 30
0.0
  0
SPLINE
  5
131
100
AcDbEntity
  8
0
 62
7
100
AcDbSpline
 70
8
 71
3
 72
8
 73
4
 74
0
 40
0
 40
0
 40
0
 40
0
 40
1
 40
1
 40
1
 40
1
 10
3.571875
 20
92.136736
 30
0.0
 10
3.208756
 20
90.649202
 30
0.0
 10
2.558370
 20
87.365417
 30
0.0
 10
2.125486
 20
84.843056
 30
0.0
  0
SPLINE
  5
132
100
AcDbEntity
  8
0
 62
7
100
AcDbSpline
 70
8
 71
3
 72
8
 73
4
 74
0
 40
0
 40
0
 40
0
 40
0
 40
1
 40
1
 40
1
 40
1
 10
2.125486
 20
84.843056
 30
0.0
 10
1.692602
 20
82.320694
 30
0.0
 10
1.038441
 20
78.726380
 30
0.0
 10
0.670278
 20
76.852639
 30
0.0
  0
SPLINE
  5
133
100
AcDbEntity
  8
0
 62
7
100
AcDbSpline
 70
8
 71
3
 72
8
 73
4
 74
0
 40
0
 40
0
 40
0
 40
0
 40
1
 40
1
 40
1
 40
1
 10
0.670278
 20
76.852639
 30
0.0
 10
-0.175719
 20
72.546989
 30
0.0
 10
-0.229024
 20
63.951273
 30
0.0
 10
0.564444
 20
59.795833
 30
0.0
  0
SPLINE
  5
134
100
AcDbEntity
  8
0
 62
7
100
AcDbSpline
 70
8
 71
3
 72
8
 73
4
 74
0
 40
0
 40
0
 40
0
 40
0
 40
1
 40
1
 40
1
 40
1
 10
0.564444
 20
59.795833
 30
0.0
 10
0.860836
 20
58.243611
 30
0.0
 10
1.250625
 20
55.703611
 30
0.0
 10
1.428750
 20
54.151389
 30
0.0
  0
SPLINE
  5
135
100
AcDbEntity
  8
0
 62
7
100
AcDbSpline
 70
8
 71
3
 72
8
 73
4
 74
0
 40
0
 40
0
 40
0
 40
0
 40
1
 40
1
 40
1
 40
1
 10
1.428750
 20
54.151389
 30
0.0
 10
1.606875
 20
52.599167
 30
0.0
 10
1.992443
 20
50.376667
 30
0.0
 10
2.284236
 20
49.212500
 30
0.0
  0
SPLINE
  5
136
100
AcDbEntity
  8
0
 62
7
100
AcDbSpline
 70
8
 71
3
 72
8
 73
4
 74
0
 40
0
 40
0
 40
0
 40
0
 40
1
 40
1
 40
1
 40
1
 10
2.284236
 20
49.212500
 30
0.0
 10
2.576030
 20
48.048333
 30
0.0
 10
2.810372
 20
46.363664
 30
0.0
 10
2.813403
 20
45.473056
 30
0.0
  0
SPLINE
  5
137
100
AcDbEntity
  8
0
 62
7
100
AcDbSpline
 70
8
 71
3
 72
8
 73
4
 74
0
 40
0
 40
0
 40
0
 40
0
 40
1
 40
1
 40
1
 40
1
 10
2.813403
 20
45.473056
 30
0.0
 10
2.816434
 20
44.582475
 30
0.0
 10
3.139722
 20
42.615894
 30
0.0
 10
3.527778
 20
41.098611
 30
0.0
  0
SPLINE
  5
138
100
AcDbEntity
  8
0
 62
7
100
AcDbSpline
 70
8
 71
3
 72
8
 73
4
 74
0
 40
0
 40
0
 40
0
 40
0
 40
1
 40
1
 40
1
 40
1
 10
3.527778
 20
41.098611
 30
0.0
 10
3.915833
 20
39.581328
 30
0.0
 10
4.233333
 20
37.971956
 30
0.0
 10
4.233333
 20
37.517917
 30
0.0
  0
SPLINE
  5
139
100
AcDbEntity
  8
0
 62
7
100
AcDbSpline
 70
8
 71
3
 72
8
 73
4
 74
0
 40
0
 40
0
 40
0
 40
0
 40
1
 40
1
 40
1
 40
1
 10
4.233333
 20
37.517917
 30
0.0
 10
4.233333
 20
37.063906
 30
0.0
 10
4.352396
 20
36.688889
 30
0.0
 10
4.497917
 20
36.688889
 30
0.0
  0
SPLINE
  5
13a
100
AcDbEntity
  8
0
 62
7
100
AcDbSpline
 70
8
 71
3
 72
8
 73
4
 74
0
 40
0
 40
0
 40
0
 40
0
 40
1
 40
1
 40
1
 40
1
 10
4.497917
 20
36.688889
 30
0.0
 10
4.643438
 20
36.690046
 30
0.0
 10
4.796063
 20
41.015976
 30
0.0
 10
4.841875
 20
46.302083
 30
0.0
  0
SPLINE
  5
13b
100
AcDbEntity
  8
0
 62
7
100
AcDbSpline
 70
8
 71
3
 72
8
 73
4
 74
0
 40
0
 40
0
 40
0
 40
0
 40
1
 40
1
 40
1
 40
1
 10
4.841875
 20
46.302083
 30
0.0
 10
4.938678
 20
57.471818
 30
0.0
 10
5.501567
 20
61.533552
 30
0.0
 10
7.796389
 20
67.759792
 30
0.0
  0
SPLINE
  5
13c
100
AcDbEntity
  8
0
 62
7
100
AcDbSpline
 70
8
 71
3
 72
8
 73
4
 74
0
 40
0
 40
0
 40
0
 40
0
 40
1
 40
1
 40
1
 40
1
 10
7.796389
 20
67.759792
 30
0.0
 10
8.553312
 20
69.813452
 30
0.0
 10
9.172222
 20
71.721938
 30
0.0
 10
9.172222
 20
72.001944
 30
0.0
  0
SPLINE
  5
13d
100
AcDbEntity
  8
0
 62
7
100
AcDbSpline
 70
8
 71
3
 72
8
 73
4
 74
0
 40
0
 40
0
 40
0
 40
0
 40
1
 40
1
 40
1
 40
1
 10
9.172222
 20
72.001944
 30
0.0
 10
9.172222
 20
72.281954
 30
0.0
 10
9.428439
 20
72.889855
 30
0.0
 10
9.745486
 20
73.342500
 30
0.0
  0
SPLINE
  5
13e
100
AcDbEntity
  8
0
 62
7
100
AcDbSpline
 70
8
 71
3
 72
8
 73
4
 74
0
 40
0
 40
0
 40
0
 40
0
 40
1
 40
1
 40
1
 40
1
 10
9.745486
 20
73.342500
 30
0.0
 10
10.062533
 20
73.795151
 30
0.0
 10
10.798966
 20
75.052843
 30
0.0
 10
11.377083
 20
76.147083
 30
0.0
  0
SPLINE
  5
13f
100
AcDbEntity
  8
0
 62
7
100
AcDbSpline
 70
8
 71
3
 72
8
 73
4
 74
0
 40
0
 40
0
 40
0
 40
0
 40
1
 40
1
 40
1
 40
1
 10
11.377083
 20
76.147083
 30
0.0
 10
11.955201
 20
77.241324
 30
0.0
 10
12.619240
 20
78.378403
 30
0.0
 10
12.858750
 20
78.669444
 30
0.0
  0
SPLINE
  5
140
100
AcDbEntity
  8
0
 62
7
100
AcDbSpline
 70
8
 71
3
 72
8
 73
4
 74
0
 40
0
 40
0
 40
0
 40
0
 40
1
 40
1
 40
1
 40
1
 10
12.858750
 20
78.669444
 30
0.0
 10
13.098260
 20
78.960486
 30
0.0
 10
13.399792
 20
79.476425
 30
0.0
 10
13.520208
 20
79.815972
 30
0.0
  0
SPLINE
  5
141
100
AcDbEntity
  8
0
 62
7
100
AcDbSpline
 70
8
 71
3
 72
8
 73
4
 74
0
 40
0
 40
0
 40
0
 40
0
 40
1
 40
1
 40
1
 40
1
 10
13.520208
 20
79.815972
 30
0.0
 10
13.888064
 20
80.853249
 30
0.0
 10
14.901933
 20
80.507112
 30
0.0
 10
17.056806
 20
78.607708
 30
0.0
  0
SPLINE
  5
142
100
AcDbEntity
  8
0
 62
7
100
AcDbSpline
 70
8
 71
3
 72
8
 73
4
 74
0
 40
0
 40
0
 40
0
 40
0
 40
1
 40
1
 40
1
 40
1
 10
17.056806
 20
78.607708
 30
0.0
 10
18.885241
 20
76.996042
 30
0.0
 10
20.097321
 20
75.475448
 30
0.0
 10
21.369514
 20
73.201389
 30
0.0
  0
SPLINE
  5
143
100
AcDbEntity
  8
0
 62
7
100
AcDbSpline
 70
8
 71
3
 72
8
 73
4
 74
0
 40
0
 40
0
 40
0
 40
0
 40
1
 40
1
 40
1
 40
1
 10
21.369514
 20
73.201389
 30
0.0
 10
21.586605
 20
72.813333
 30
0.0
 10
22.089358
 20
71.918034
 30
0.0
 10
22.489583
 20
71.217014
 30
0.0
  0
SPLINE
  5
144
100
AcDbEntity
  8
0
 62
7
100
AcDbSpline
 70
8
 71
3
 72
8
 73
4
 74
0
 40
0
 40
0
 40
0
 40
0
 40
1
 40
1
 40
1
 40
1
 10
22.489583
 20
71.217014
 30
0.0
 10
22.889808
 20
70.515994
 30
0.0
 10
23.411318
 20
69.563491
 30
0.0
 10
23.653750
 20
69.100347
 30
0.0
  0
SPLINE
  5
145
100
AcDbEntity
  8
0
 62
7
100
AcDbSpline
 70
8
 71
3
 72
8
 73
4
 74
0
 40
0
 40
0
 40
0
 40
0
 40
1
 40
1
 40
1
 40
1
 10
23.653750
 20
69.100347
 30
0.0
 10
23.896179
 20
68.637201
 30
0.0
 10
24.225417
 20
68.024375
 30
0.0
 10
24.385764
 20
67.733333
 30
0.0
  0
SPLINE
  5
146
100
AcDbEntity
  8
0
 62
7
100
AcDbSpline
 70
8
 71
3
 72
8
 73
4
 74
0
 40
0
 40
0
 40
0
 40
0
 40
1
 40
1
 40
1
 40
1
 10
24.385764
 20
67.733333
 30
0.0
 10
25.267127
 20
66.133616
 30
0.0
 10
26.864914
 20
62.668190
 30
0.0
 10
27.684236
 20
60.563125
 30
0.0
  0
SPLINE
  5
147
100
AcDbEntity
  8
0
 62
7
100
AcDbSpline
 70
8
 71
3
 72
8
 73
4
 74
0
 40
0
 40
0
 40
0
 40
0
 40
1
 40
1
 40
1
 40
1
 10
27.684236
 20
60.563125
 30
0.0
 10
28.590985
 20
58.233437
 30
0.0
 10
28.887522
 20
57.291156
 30
0.0
 10
30.400625
 20
52.034722
 30
0.0
  0
SPLINE
  5
148
100
AcDbEntity
  8
0
 62
7
100
AcDbSpline
 70
8
 71
3
 72
8
 73
4
 74
0
 40
0
 40
0
 40
0
 40
0
 40
1
 40
1
 40
1
 40
1
 10
30.400625
 20
52.034722
 30
0.0
 10
30.791590
 20
50.676528
 30
0.0
 10
31.357604
 20
48.850903
 30
0.0
 10
31.652986
 20
47.977778
 30
0.0
  0
SPLINE
  5
149
100
AcDbEntity
  8
0
 62
7
100
AcDbSpline
 70
8
 71
3
 72
8
 73
4
 74
0
 40
0
 40
0
 40
0
 40
0
 40
1
 40
1
 40
1
 40
1
 10
31.652986
 20
47.977778
 30
0.0
 10
31.948368
 20
47.104667
 30
0.0
 10
32.257077
 20
45.993417
 30
0.0
 10
32.340903
 20
45.508333
 30
0.0
  0
SPLINE
  5
14a
100
AcDbEntity
  8
0
 62
7
100
AcDbSpline
 70
8
 71
3
 72
8
 73
4
 74
0
 40
0
 40
0
 40
0
 40
0
 40
1
 40
1
 40
1
 40
1
 10
32.340903
 20
45.508333
 30
0.0
 10
32.424728
 20
45.023278
 30
0.0
 10
32.790963
 20
43.594528
 30
0.0
 10
33.161111
 20
42.333333
 30
0.0
  0
SPLINE
  5
14b
100
AcDbEntity
  8
0
 62
7
100
AcDbSpline
 70
8
 71
3
 72
8
 73
4
 74
0
 40
0
 40
0
 40
0
 40
0
 40
1
 40
1
 40
1
 40
1
 10
33.161111
 20
42.333333
 30
0.0
 10
34.084130
 20
39.188390
 30
0.0
 10
35.068067
 20
35.382002
 30
0.0
 10
35.983333
 20
31.397222
 30
0.0
  0
SPLINE
  5
14c
100
AcDbEntity
  8
0
 62
7
100
AcDbSpline
 70
8
 71
3
 72
8
 73
4
 74
0
 40
0
 40
0
 40
0
 40
0
 40
1
 40
1
 40
1
 40
1
 10
35.983333
 20
31.397222
 30
0.0
 10
36.406717
 20
29.553944
 30
0.0
 10
37.059568
 20
27.001258
 30
0.0
 10
37.429722
 20
25.726319
 30
0.0
  0
SPLINE
  5
14d
100
AcDbEntity
  8
0
 62
7
100
AcDbSpline
 70
8
 71
3
 72
8
 73
4
 74
0
 40
0
 40
0
 40
0
 40
0
 40
1
 40
1
 40
1
 40
1
 10
37.429722
 20
25.726319
 30
0.0
 10
37.799879
 20
24.451381
 30
0.0
 10
38.100000
 20
23.080528
 30
0.0
 10
38.100000
 20
22.683611
 30
0.0
  0
SPLINE
  5
14e
100
AcDbEntity
  8
0
 62
7
100
AcDbSpline
 70
8
 71
3
 72
8
 73
4
 74
0
 40
0
 40
0
 40
0
 40
0
 40
1
 40
1
 40
1
 40
1
 10
38.100000
 20
22.683611
 30
0.0
 10
38.100000
 20
21.698966
 30
0.0
 10
40.234777
 20
16.201926
 30
0.0
 10
42.042292
 20
12.523611
 30
0.0
  0
SPLINE
  5
14f
100
AcDbEntity
  8
0
 62
7
100
AcDbSpline
 70
8
 71
3
 72
8
 73
4
 74
0
 40
0
 40
0
 40
0
 40
0
 40
1
 40
1
 40
1
 40
1
 10
42.042292
 20
12.523611
 30
0.0
 10
43.072677
 20
10.426756
 30
0.0
 10
43.075750
 20
10.420152
 30
0.0
 10
42.888958
 20
11.818056
 30
0.0
  0
SPLINE
  5
150
100
AcDbEntity
  8
0
 62
7
100
AcDbSpline
 70
8
 71
3
 72
8
 73
4
 74
0
 40
0
 40
0
 40
0
 40
0
 40
1
 40
1
 40
1
 40
1
 10
42.888958
 20
11.818056
 30
0.0
 10
42.785253
 20
12.594167
 30
0.0
 10
42.531033
 20
14.022917
 30
0.0
 10
42.324514
 20
14.993056
 30
0.0
  0
SPLINE
  5
151
100
AcDbEntity
  8
0
 62
7
100
AcDbSpline
 70
8
 71
3
 72
8
 73
4
 74
0
 40
0
 40
0
 40
0
 40
0
 40
1
 40
1
 40
1
 40
1
 10
42.324514
 20
14.993056
 30
0.0
 10
40.664127
 20
22.792831
 30
0.0
 10
39.799999
 20
48.187695
 30
0.0
 10
40.525347
 20
67.733333
 30
0.0
  0
SPLINE
  5
152
100
AcDbEntity
  8
0
 62
7
100
AcDbSpline
 70
8
 71
3
 72
8
 73
4
 74
0
 40
0
 40
0
 40
0
 40
0
 40
1
 40
1
 40
1
 40
1
 10
40.525347
 20
67.733333
 30
0.0
 10
40.966551
 20
79.622275
 30
0.0
 10
41.378759
 20
84.863364
 30
0.0
 10
42.350972
 20
90.752083
 30
0.0
  0
SPLINE
  5
153
100
AcDbEntity
  8
0
 62
7
100
AcDbSpline
 70
8
 71
3
 72
8
 73
4
 74
0
 40
0
 40
0
 40
0
 40
0
 40
1
 40
1
 40
1
 40
1
 10
42.350972
 20
90.752083
 30
0.0
 10
42.727457
 20
93.032473
 30
0.0
 10
43.038889
 20
95.471877
 30
0.0
 10
43.038889
 20
96.167222
 30
0.0
  0
SPLINE
  5
154
100
AcDbEntity
  8
0
 62
7
100
AcDbSpline
 70
8
 71
3
 72
8
 73
4
 74
0
 40
0
 40
0
 40
0
 40
0
 40
1
 40
1
 40
1
 40
1
 10
43.038889
 20
96.167222
 30
0.0
 10
43.038889
 20
96.862573
 30
0.0
 10
43.364068
 20
99.354629
 30
0.0
 10
43.762083
 20
101.714653
 30
0.0
  0
SPLINE
  5
155
100
AcDbEntity
  8
0
 62
7
100
AcDbSpline
 70
8
 71
3
 72
8
 73
4
 74
0
 40
0
 40
0
 40
0
 40
0
 40
1
 40
1
 40
1
 40
1
 10
43.762083
 20
101.714653
 30
0.0
 10
44.160093
 20
104.074680
 30
0.0
 10
44.808693
 20
107.914722
 30
0.0
 10
45.199653
 20
110.243056
 30
0.0
  0
SPLINE
  5
156
100
AcDbEntity
  8
0
 62
7
100
AcDbSpline
 70
8
 71
3
 72
8
 73
4
 74
0
 40
0
 40
0
 40
0
 40
0
 40
1
 40
1
 40
1
 40
1
 10
45.199653
 20
110.243056
 30
0.0
 10
47.416903
 20
123.447782
 30
0.0
 10
48.482236
 20
127.841313
 30
0.0
 10
49.882778
 20
129.584097
 30
0.0
  0
SPLINE
  5
157
100
AcDbEntity
  8
0
 62
7
100
AcDbSpline
 70
8
 71
3
 72
8
 73
4
 74
0
 40
0
 40
0
 40
0
 40
0
 40
1
 40
1
 40
1
 40
1
 10
51.549653
 20
129.637014
 30
0.0
 10
51.867218
 20
128.917240
 30
0.0
 10
52.232760
 20
127.194197
 30
0.0
 10
52.361042
 20
125.809375
 30
0.0
  0
SPLINE
  5
158
100
AcDbEntity
  8
0
 62
7
100
AcDbSpline
 70
8
 71
3
 72
8
 73
4
 74
0
 40
0
 40
0
 40
0
 40
0
 40
1
 40
1
 40
1
 40
1
 10
52.361042
 20
125.809375
 30
0.0
 10
52.789684
 20
121.182000
 30
0.0
 10
53.952411
 20
113.435968
 30
0.0
 10
54.460069
 20
111.830556
 30
0.0
  0
LWPOLYLINE
  5
159
100
AcDbEntity
  8
0
 62
7
100
AcDbPolyline
 90
3
 70
0
 10
49.882778
 20
129.584097
 30
0.0
 10
50.976389
 20
130.951111
 30
0.0
 10
51.549653
 20
129.637014
 30
0.0
  0
SPLINE
  5
15a
100
AcDbEntity
  8
0
 62
7
100
AcDbSpline
 70
8
 71
3
 72
8
 73
4
 74
0
 40
0
 40
0
 40
0
 40
0
 40
1
 40
1
 40
1
 40
1
 10
54.998056
 20
113.241667
 30
0.0
 10
55.102836
 20
122.724771
 30
0.0
 10
56.530531
 20
130.760309
 30
0.0
 10
58.957986
 20
135.554861
 30
0.0
  0
SPLINE
  5
15b
100
AcDbEntity
  8
0
 62
7
100
AcDbSpline
 70
8
 71
3
 72
8
 73
4
 74
0
 40
0
 40
0
 40
0
 40
0
 40
1
 40
1
 40
1
 40
1
 10
58.957986
 20
135.554861
 30
0.0
 10
59.129899
 20
135.894411
 30
0.0
 10
59.425417
 20
136.489722
 30
0.0
 10
59.619444
 20
136.877778
 30
0.0
  0
LWPOLYLINE
  5
15c
100
AcDbEntity
  8
0
 62
7
100
AcDbPolyline
 90
3
 70
0
 10
54.460069
 20
111.830556
 30
0.0
 10
54.962778
 20
110.243056
 30
0.0
 10
54.998056
 20
113.241667
 30
0.0
  0
SPLINE
  5
15d
100
AcDbEntity
  8
0
 62
7
100
AcDbSpline
 70
8
 71
3
 72
8
 73
4
 74
0
 40
0
 40
0
 40
0
 40
0
 40
1
 40
1
 40
1
 40
1
 10
61.030556
 20
139.700000
 30
0.0
 10
61.224583
 20
140.088056
 30
0.0
 10
61.568124
 20
140.762744
 30
0.0
 10
61.797847
 20
141.199306
 30
0.0
  0
SPLINE
  5
15e
100
AcDbEntity
  8
0
 62
7
100
AcDbSpline
 70
8
 71
3
 72
8
 73
4
 74
0
 40
0
 40
0
 40
0
 40
0
 40
1
 40
1
 40
1
 40
1
 10
61.797847
 20
141.199306
 30
0.0
 10
62.027568
 20
141.635869
 30
0.0
 10
62.429040
 20
142.414368
 30
0.0
 10
62.688611
 20
142.927917
 30
0.0
  0
SPLINE
  5
15f
100
AcDbEntity
  8
0
 62
7
100
AcDbSpline
 70
8
 71
3
 72
8
 73
4
 74
0
 40
0
 40
0
 40
0
 40
0
 40
1
 40
1
 40
1
 40
1
 10
62.688611
 20
142.927917
 30
0.0
 10
63.253928
 20
144.046389
 30
0.0
 10
67.201714
 20
148.166667
 30
0.0
 10
67.706875
 20
148.166667
 30
0.0
  0
SPLINE
  5
160
100
AcDbEntity
  8
0
 62
7
100
AcDbSpline
 70
8
 71
3
 72
8
 73
4
 74
0
 40
0
 40
0
 40
0
 40
0
 40
1
 40
1
 40
1
 40
1
 10
67.706875
 20
148.166667
 30
0.0
 10
67.902461
 20
148.166667
 30
0.0
 10
68.231207
 20
148.484167
 30
0.0
 10
68.438889
 20
148.872222
 30
0.0
  0
SPLINE
  5
161
100
AcDbEntity
  8
0
 62
7
100
AcDbSpline
 70
8
 71
3
 72
8
 73
4
 74
0
 40
0
 40
0
 40
0
 40
0
 40
1
 40
1
 40
1
 40
1
 10
68.438889
 20
148.872222
 30
0.0
 10
68.646568
 20
149.260278
 30
0.0
 10
69.045438
 20
149.577778
 30
0.0
 10
69.329653
 20
149.577778
 30
0.0
  0
SPLINE
  5
162
100
AcDbEntity
  8
0
 62
7
100
AcDbSpline
 70
8
 71
3
 72
8
 73
4
 74
0
 40
0
 40
0
 40
0
 40
0
 40
1
 40
1
 40
1
 40
1
 10
69.329653
 20
149.577778
 30
0.0
 10
69.613870
 20
149.577778
 30
0.0
 10
69.850000
 20
149.707685
 30
0.0
 10
69.850000
 20
149.868819
 30
0.0
  0
SPLINE
  5
163
100
AcDbEntity
  8
0
 62
7
100
AcDbSpline
 70
8
 71
3
 72
8
 73
4
 74
0
 40
0
 40
0
 40
0
 40
0
 40
1
 40
1
 40
1
 40
1
 10
69.850000
 20
149.868819
 30
0.0
 10
69.850000
 20
150.029954
 30
0.0
 10
70.600976
 20
150.701558
 30
0.0
 10
71.516875
 20
151.359306
 30
0.0
  0
SPLINE
  5
164
100
AcDbEntity
  8
0
 62
7
100
AcDbSpline
 70
8
 71
3
 72
8
 73
4
 74
0
 40
0
 40
0
 40
0
 40
0
 40
1
 40
1
 40
1
 40
1
 10
71.516875
 20
151.359306
 30
0.0
 10
72.432774
 20
152.017058
 30
0.0
 10
73.434394
 20
152.799963
 30
0.0
 10
73.748194
 20
153.096736
 30
0.0
  0
SPLINE
  5
165
100
AcDbEntity
  8
0
 62
7
100
AcDbSpline
 70
8
 71
3
 72
8
 73
4
 74
0
 40
0
 40
0
 40
0
 40
0
 40
1
 40
1
 40
1
 40
1
 10
73.748194
 20
153.096736
 30
0.0
 10
74.061995
 20
153.393513
 30
0.0
 10
74.557184
 20
153.793472
 30
0.0
 10
74.850625
 20
153.987500
 30
0.0
  0
SPLINE
  5
166
100
AcDbEntity
  8
0
 62
7
100
AcDbSpline
 70
8
 71
3
 72
8
 73
4
 74
0
 40
0
 40
0
 40
0
 40
0
 40
1
 40
1
 40
1
 40
1
 10
74.850625
 20
153.987500
 30
0.0
 10
76.698187
 20
155.209130
 30
0.0
 10
79.579021
 20
157.186503
 30
0.0
 10
79.727778
 20
157.338889
 30
0.0
  0
SPLINE
  5
167
100
AcDbEntity
  8
0
 62
7
100
AcDbSpline
 70
8
 71
3
 72
8
 73
4
 74
0
 40
0
 40
0
 40
0
 40
0
 40
1
 40
1
 40
1
 40
1
 10
79.727778
 20
157.338889
 30
0.0
 10
81.287298
 20
158.936436
 30
0.0
 10
89.259811
 20
162.243090
 30
0.0
 10
91.722222
 20
162.313056
 30
0.0
  0
SPLINE
  5
168
100
AcDbEntity
  8
0
 62
7
100
AcDbSpline
 70
8
 71
3
 72
8
 73
4
 74
0
 40
0
 40
0
 40
0
 40
0
 40
1
 40
1
 40
1
 40
1
 10
91.722222
 20
162.313056
 30
0.0
 10
92.402914
 20
162.332396
 30
0.0
 10
93.353819
 20
162.464631
 30
0.0
 10
93.838889
 20
162.604097
 30
0.0
  0
SPLINE
  5
169
100
AcDbEntity
  8
0
 62
7
100
AcDbSpline
 70
8
 71
3
 72
8
 73
4
 74
0
 40
0
 40
0
 40
0
 40
0
 40
1
 40
1
 40
1
 40
1
 10
93.838889
 20
162.604097
 30
0.0
 10
94.922171
 20
162.915566
 30
0.0
 10
95.850007
 20
162.538605
 30
0.0
 10
100.303542
 20
160.011181
 30
0.0
  0
SPLINE
  5
16a
100
AcDbEntity
  8
0
 62
7
100
AcDbSpline
 70
8
 71
3
 72
8
 73
4
 74
0
 40
0
 40
0
 40
0
 40
0
 40
1
 40
1
 40
1
 40
1
 10
100.303542
 20
160.011181
 30
0.0
 10
102.211528
 20
158.928379
 30
0.0
 10
103.845783
 20
158.044444
 30
0.0
 10
103.928333
 20
158.044444
 30
0.0
  0
SPLINE
  5
16b
100
AcDbEntity
  8
0
 62
7
100
AcDbSpline
 70
8
 71
3
 72
8
 73
4
 74
0
 40
0
 40
0
 40
0
 40
0
 40
1
 40
1
 40
1
 40
1
 10
103.928333
 20
158.044444
 30
0.0
 10
104.010878
 20
158.044444
 30
0.0
 10
105.460261
 20
157.131633
 30
0.0
 10
107.156250
 20
156.015972
 30
0.0
  0
SPLINE
  5
16c
100
AcDbEntity
  8
0
 62
7
100
AcDbSpline
 70
8
 71
3
 72
8
 73
4
 74
0
 40
0
 40
0
 40
0
 40
0
 40
1
 40
1
 40
1
 40
1
 10
107.156250
 20
156.015972
 30
0.0
 10
108.852239
 20
154.900314
 30
0.0
 10
110.520867
 20
153.871004
 30
0.0
 10
110.860417
 20
153.731736
 30
0.0
  0
SPLINE
  5
16d
100
AcDbEntity
  8
0
 62
7
100
AcDbSpline
 70
8
 71
3
 72
8
 73
4
 74
0
 40
0
 40
0
 40
0
 40
0
 40
1
 40
1
 40
1
 40
1
 10
110.860417
 20
153.731736
 30
0.0
 10
111.199964
 20
153.592468
 30
0.0
 10
111.477778
 20
153.337686
 30
0.0
 10
111.477778
 20
153.158472
 30
0.0
  0
SPLINE
  5
16e
100
AcDbEntity
  8
0
 62
7
100
AcDbSpline
 70
8
 71
3
 72
8
 73
4
 74
0
 40
0
 40
0
 40
0
 40
0
 40
1
 40
1
 40
1
 40
1
 10
111.477778
 20
153.158472
 30
0.0
 10
111.477778
 20
152.979261
 30
0.0
 10
112.124109
 20
152.566661
 30
0.0
 10
112.915347
 20
152.250069
 30
0.0
  0
SPLINE
  5
16f
100
AcDbEntity
  8
0
 62
7
100
AcDbSpline
 70
8
 71
3
 72
8
 73
4
 74
0
 40
0
 40
0
 40
0
 40
0
 40
1
 40
1
 40
1
 40
1
 10
112.915347
 20
152.250069
 30
0.0
 10
114.513304
 20
151.610695
 30
0.0
 10
116.835877
 20
151.869067
 30
0.0
 10
120.650000
 20
153.105556
 30
0.0
  0
SPLINE
  5
170
100
AcDbEntity
  8
0
 62
7
100
AcDbSpline
 70
8
 71
3
 72
8
 73
4
 74
0
 40
0
 40
0
 40
0
 40
0
 40
1
 40
1
 40
1
 40
1
 10
120.650000
 20
153.105556
 30
0.0
 10
124.096828
 20
154.222969
 30
0.0
 10
124.530556
 20
154.268610
 30
0.0
 10
124.530556
 20
153.484792
 30
0.0
  0
SPLINE
  5
171
100
AcDbEntity
  8
0
 62
7
100
AcDbSpline
 70
8
 71
3
 72
8
 73
4
 74
0
 40
0
 40
0
 40
0
 40
0
 40
1
 40
1
 40
1
 40
1
 10
124.530556
 20
153.484792
 30
0.0
 10
124.530556
 20
153.102680
 30
0.0
 10
124.758780
 20
152.655558
 30
0.0
 10
125.042083
 20
152.497014
 30
0.0
  0
SPLINE
  5
172
100
AcDbEntity
  8
0
 62
7
100
AcDbSpline
 70
8
 71
3
 72
8
 73
4
 74
0
 40
0
 40
0
 40
0
 40
0
 40
1
 40
1
 40
1
 40
1
 10
125.042083
 20
152.497014
 30
0.0
 10
125.487853
 20
152.247549
 30
0.0
 10
125.467703
 20
151.853389
 30
0.0
 10
124.874514
 20
149.568958
 30
0.0
  0
SPLINE
  5
173
100
AcDbEntity
  8
0
 62
7
100
AcDbSpline
 70
8
 71
3
 72
8
 73
4
 74
0
 40
0
 40
0
 40
0
 40
0
 40
1
 40
1
 40
1
 40
1
 10
124.874514
 20
149.568958
 30
0.0
 10
124.497521
 20
148.117134
 30
0.0
 10
124.189786
 20
146.436746
 30
0.0
 10
124.186597
 20
145.829514
 30
0.0
  0
SPLINE
  5
174
100
AcDbEntity
  8
0
 62
7
100
AcDbSpline
 70
8
 71
3
 72
8
 73
4
 74
0
 40
0
 40
0
 40
0
 40
0
 40
1
 40
1
 40
1
 40
1
 10
124.186597
 20
145.829514
 30
0.0
 10
124.183273
 20
145.222285
 30
0.0
 10
123.620448
 20
143.634785
 30
0.0
 10
122.934236
 20
142.301736
 30
0.0
  0
SPLINE
  5
175
100
AcDbEntity
  8
0
 62
7
100
AcDbSpline
 70
8
 71
3
 72
8
 73
4
 74
0
 40
0
 40
0
 40
0
 40
0
 40
1
 40
1
 40
1
 40
1
 10
122.934236
 20
142.301736
 30
0.0
 10
121.706722
 20
139.917156
 30
0.0
 10
119.944444
 20
134.671723
 30
0.0
 10
119.944444
 20
133.394097
 30
0.0
  0
SPLINE
  5
176
100
AcDbEntity
  8
0
 62
7
100
AcDbSpline
 70
8
 71
3
 72
8
 73
4
 74
0
 40
0
 40
0
 40
0
 40
0
 40
1
 40
1
 40
1
 40
1
 10
119.944444
 20
133.394097
 30
0.0
 10
119.944444
 20
133.035317
 30
0.0
 10
119.057936
 20
131.802076
 30
0.0
 10
117.977708
 20
130.660069
 30
0.0
  0
SPLINE
  5
177
100
AcDbEntity
  8
0
 62
7
100
AcDbSpline
 70
8
 71
3
 72
8
 73
4
 74
0
 40
0
 40
0
 40
0
 40
0
 40
1
 40
1
 40
1
 40
1
 10
117.977708
 20
130.660069
 30
0.0
 10
115.752513
 20
128.307634
 30
0.0
 10
112.293219
 20
123.442659
 30
0.0
 10
111.610069
 20
121.708333
 30
0.0
  0
SPLINE
  5
178
100
AcDbEntity
  8
0
 62
7
100
AcDbSpline
 70
8
 71
3
 72
8
 73
4
 74
0
 40
0
 40
0
 40
0
 40
0
 40
1
 40
1
 40
1
 40
1
 10
111.610069
 20
121.708333
 30
0.0
 10
110.250249
 20
118.256137
 30
0.0
 10
110.047605
 20
118.039010
 30
0.0
 10
107.447292
 20
117.236875
 30
0.0
  0
SPLINE
  5
179
100
AcDbEntity
  8
0
 62
7
100
AcDbSpline
 70
8
 71
3
 72
8
 73
4
 74
0
 40
0
 40
0
 40
0
 40
0
 40
1
 40
1
 40
1
 40
1
 10
107.447292
 20
117.236875
 30
0.0
 10
106.076603
 20
116.814050
 30
0.0
 10
104.209983
 20
116.380700
 30
0.0
 10
103.302153
 20
116.275556
 30
0.0
  0
SPLINE
  5
17a
100
AcDbEntity
  8
0
 62
7
100
AcDbSpline
 70
8
 71
3
 72
8
 73
4
 74
0
 40
0
 40
0
 40
0
 40
0
 40
1
 40
1
 40
1
 40
1
 10
103.302153
 20
116.275556
 30
0.0
 10
101.774094
 20
116.098571
 30
0.0
 10
101.560633
 20
116.173812
 30
0.0
 10
100.427014
 20
117.307431
 30
0.0
  0
SPLINE
  5
17b
100
AcDbEntity
  8
0
 62
7
100
AcDbSpline
 70
8
 71
3
 72
8
 73
4
 74
0
 40
0
 40
0
 40
0
 40
0
 40
1
 40
1
 40
1
 40
1
 10
100.427014
 20
117.307431
 30
0.0
 10
99.753519
 20
117.980926
 30
0.0
 10
99.093263
 20
118.533333
 30
0.0
 10
98.962986
 20
118.533333
 30
0.0
  0
SPLINE
  5
17c
100
AcDbEntity
  8
0
 62
7
100
AcDbSpline
 70
8
 71
3
 72
8
 73
4
 74
0
 40
0
 40
0
 40
0
 40
0
 40
1
 40
1
 40
1
 40
1
 10
98.962986
 20
118.533333
 30
0.0
 10
98.434931
 20
118.533333
 30
0.0
 10
97.649778
 20
117.400186
 30
0.0
 10
97.137361
 20
115.896319
 30
0.0
  0
SPLINE
  5
17d
100
AcDbEntity
  8
0
 62
7
100
AcDbSpline
 70
8
 71
3
 72
8
 73
4
 74
0
 40
0
 40
0
 40
0
 40
0
 40
1
 40
1
 40
1
 40
1
 10
97.137361
 20
115.896319
 30
0.0
 10
96.607012
 20
114.339833
 30
0.0
 10
96.557832
 20
114.300000
 30
0.0
 10
95.082431
 20
114.300000
 30
0.0
  0
SPLINE
  5
17e
100
AcDbEntity
  8
0
 62
7
100
AcDbSpline
 70
8
 71
3
 72
8
 73
4
 74
0
 40
0
 40
0
 40
0
 40
0
 40
1
 40
1
 40
1
 40
1
 10
95.082431
 20
114.300000
 30
0.0
 10
93.673182
 20
114.300000
 30
0.0
 10
93.559559
 20
114.226278
 30
0.0
 10
93.353819
 20
113.197569
 30
0.0
  0
SPLINE
  5
17f
100
AcDbEntity
  8
0
 62
7
100
AcDbSpline
 70
8
 71
3
 72
8
 73
4
 74
0
 40
0
 40
0
 40
0
 40
0
 40
1
 40
1
 40
1
 40
1
 10
93.353819
 20
113.197569
 30
0.0
 10
93.065656
 20
111.756749
 30
0.0
 10
93.113919
 20
109.005268
 30
0.0
 10
93.442014
 20
108.170486
 30
0.0
  0
SPLINE
  5
180
100
AcDbEntity
  8
0
 62
7
100
AcDbSpline
 70
8
 71
3
 72
8
 73
4
 74
0
 40
0
 40
0
 40
0
 40
0
 40
1
 40
1
 40
1
 40
1
 10
93.442014
 20
108.170486
 30
0.0
 10
93.627888
 20
107.697555
 30
0.0
 10
93.419893
 20
107.231146
 30
0.0
 10
92.710000
 20
106.521250
 30
0.0
  0
SPLINE
  5
181
100
AcDbEntity
  8
0
 62
7
100
AcDbSpline
 70
8
 71
3
 72
8
 73
4
 74
0
 40
0
 40
0
 40
0
 40
0
 40
1
 40
1
 40
1
 40
1
 10
92.710000
 20
106.521250
 30
0.0
 10
91.659408
 20
105.470661
 30
0.0
 10
91.448763
 20
104.141146
 30
0.0
 10
92.066181
 20
102.517222
 30
0.0
  0
SPLINE
  5
182
100
AcDbEntity
  8
0
 62
7
100
AcDbSpline
 70
8
 71
3
 72
8
 73
4
 74
0
 40
0
 40
0
 40
0
 40
0
 40
1
 40
1
 40
1
 40
1
 10
92.066181
 20
102.517222
 30
0.0
 10
92.385478
 20
101.677402
 30
0.0
 10
92.315332
 20
101.591361
 30
0.0
 10
90.919653
 20
101.176667
 30
0.0
  0
SPLINE
  5
183
100
AcDbEntity
  8
0
 62
7
100
AcDbSpline
 70
8
 71
3
 72
8
 73
4
 74
0
 40
0
 40
0
 40
0
 40
0
 40
1
 40
1
 40
1
 40
1
 10
90.919653
 20
101.176667
 30
0.0
 10
90.102004
 20
100.933727
 30
0.0
 10
88.742263
 20
100.335294
 30
0.0
 10
87.903403
 20
99.844931
 30
0.0
  0
SPLINE
  5
184
100
AcDbEntity
  8
0
 62
7
100
AcDbSpline
 70
8
 71
3
 72
8
 73
4
 74
0
 40
0
 40
0
 40
0
 40
0
 40
1
 40
1
 40
1
 40
1
 10
87.903403
 20
99.844931
 30
0.0
 10
87.064542
 20
99.354569
 30
0.0
 10
86.032667
 20
98.761688
 30
0.0
 10
85.610347
 20
98.522014
 30
0.0
  0
SPLINE
  5
185
100
AcDbEntity
  8
0
 62
7
100
AcDbSpline
 70
8
 71
3
 72
8
 73
4
 74
0
 40
0
 40
0
 40
0
 40
0
 40
1
 40
1
 40
1
 40
1
 10
85.610347
 20
98.522014
 30
0.0
 10
84.544326
 20
97.917031
 30
0.0
 10
83.081772
 20
97.965853
 30
0.0
 10
82.532361
 20
98.627847
 30
0.0
  0
SPLINE
  5
186
100
AcDbEntity
  8
0
 62
7
100
AcDbSpline
 70
8
 71
3
 72
8
 73
4
 74
0
 40
0
 40
0
 40
0
 40
0
 40
1
 40
1
 40
1
 40
1
 10
82.532361
 20
98.627847
 30
0.0
 10
82.279050
 20
98.933071
 30
0.0
 10
81.438363
 20
99.506597
 30
0.0
 10
80.671458
 20
99.897847
 30
0.0
  0
SPLINE
  5
187
100
AcDbEntity
  8
0
 62
7
100
AcDbSpline
 70
8
 71
3
 72
8
 73
4
 74
0
 40
0
 40
0
 40
0
 40
0
 40
1
 40
1
 40
1
 40
1
 10
80.671458
 20
99.897847
 30
0.0
 10
79.151996
 20
100.673016
 30
0.0
 10
79.197928
 20
100.691710
 30
0.0
 10
78.069722
 20
98.601389
 30
0.0
  0
SPLINE
  5
188
100
AcDbEntity
  8
0
 62
7
100
AcDbSpline
 70
8
 71
3
 72
8
 73
4
 74
0
 40
0
 40
0
 40
0
 40
0
 40
1
 40
1
 40
1
 40
1
 10
78.069722
 20
98.601389
 30
0.0
 10
77.441019
 20
97.436545
 30
0.0
 10
77.258695
 20
93.794721
 30
0.0
 10
77.716944
 20
91.634028
 30
0.0
  0
SPLINE
  5
189
100
AcDbEntity
  8
0
 62
7
100
AcDbSpline
 70
8
 71
3
 72
8
 73
4
 74
0
 40
0
 40
0
 40
0
 40
0
 40
1
 40
1
 40
1
 40
1
 10
77.716944
 20
91.634028
 30
0.0
 10
77.997101
 20
90.312804
 30
0.0
 10
77.995786
 20
90.311111
 30
0.0
 10
76.817361
 20
90.311111
 30
0.0
  0
SPLINE
  5
18a
100
AcDbEntity
  8
0
 62
7
100
AcDbSpline
 70
8
 71
3
 72
8
 73
4
 74
0
 40
0
 40
0
 40
0
 40
0
 40
1
 40
1
 40
1
 40
1
 10
76.817361
 20
90.311111
 30
0.0
 10
75.243202
 20
90.311111
 30
0.0
 10
74.788889
 20
89.768804
 30
0.0
 10
74.788889
 20
87.894583
 30
0.0
  0
SPLINE
  5
18b
100
AcDbEntity
  8
0
 62
7
100
AcDbSpline
 70
8
 71
3
 72
8
 73
4
 74
0
 40
0
 40
0
 40
0
 40
0
 40
1
 40
1
 40
1
 40
1
 10
74.788889
 20
87.894583
 30
0.0
 10
74.788889
 20
85.863244
 30
0.0
 10
75.984741
 20
83.497999
 30
0.0
 10
77.787500
 20
81.950278
 30
0.0
  0
SPLINE
  5
18c
100
AcDbEntity
  8
0
 62
7
100
AcDbSpline
 70
8
 71
3
 72
8
 73
4
 74
0
 40
0
 40
0
 40
0
 40
0
 40
1
 40
1
 40
1
 40
1
 10
77.787500
 20
81.950278
 30
0.0
 10
79.083826
 20
80.837346
 30
0.0
 10
79.360161
 20
80.744294
 30
0.0
 10
81.138889
 20
80.847847
 30
0.0
  0
LWPOLYLINE
  5
18d
100
AcDbEntity
  8
0
 62
7
100
AcDbPolyline
 90
3
 70
0
 10
59.619444
 20
136.877778
 30
0.0
 10
60.325000
 20
138.288889
 30
0.0
 10
61.030556
 20
139.700000
 30
0.0
  0
SPLINE
  5
18e
100
AcDbEntity
  8
0
 62
7
100
AcDbSpline
 70
8
 71
3
 72
8
 73
4
 74
0
 40
0
 40
0
 40
0
 40
0
 40
1
 40
1
 40
1
 40
1
 10
83.273194
 20
77.425903
 30
0.0
 10
83.493500
 20
73.408591
 30
0.0
 10
84.374555
 20
71.289666
 30
0.0
 10
86.254167
 20
70.255694
 30
0.0
  0
SPLINE
  5
18f
100
AcDbEntity
  8
0
 62
7
100
AcDbSpline
 70
8
 71
3
 72
8
 73
4
 74
0
 40
0
 40
0
 40
0
 40
0
 40
1
 40
1
 40
1
 40
1
 10
86.254167
 20
70.255694
 30
0.0
 10
86.836250
 20
69.935488
 30
0.0
 10
87.373954
 20
69.632737
 30
0.0
 10
87.453611
 20
69.585417
 30
0.0
  0
SPLINE
  5
190
100
AcDbEntity
  8
0
 62
7
100
AcDbSpline
 70
8
 71
3
 72
8
 73
4
 74
0
 40
0
 40
0
 40
0
 40
0
 40
1
 40
1
 40
1
 40
1
 10
87.453611
 20
69.585417
 30
0.0
 10
87.533266
 20
69.538099
 30
0.0
 10
87.334829
 20
69.209418
 30
0.0
 10
87.012639
 20
68.853403
 30
0.0
  0
SPLINE
  5
191
100
AcDbEntity
  8
0
 62
7
100
AcDbSpline
 70
8
 71
3
 72
8
 73
4
 74
0
 40
0
 40
0
 40
0
 40
0
 40
1
 40
1
 40
1
 40
1
 10
87.012639
 20
68.853403
 30
0.0
 10
86.690448
 20
68.497385
 30
0.0
 10
86.430556
 20
68.024319
 30
0.0
 10
86.430556
 20
67.803889
 30
0.0
  0
SPLINE
  5
192
100
AcDbEntity
  8
0
 62
7
100
AcDbSpline
 70
8
 71
3
 72
8
 73
4
 74
0
 40
0
 40
0
 40
0
 40
0
 40
1
 40
1
 40
1
 40
1
 10
86.430556
 20
67.803889
 30
0.0
 10
86.430556
 20
67.161001
 30
0.0
 10
87.571148
 20
66.742273
 30
0.0
 10
88.811806
 20
66.930764
 30
0.0
  0
SPLINE
  5
193
100
AcDbEntity
  8
0
 62
7
100
AcDbSpline
 70
8
 71
3
 72
8
 73
4
 74
0
 40
0
 40
0
 40
0
 40
0
 40
1
 40
1
 40
1
 40
1
 10
88.811806
 20
66.930764
 30
0.0
 10
89.996306
 20
67.110720
 30
0.0
 10
91.722222
 20
66.307236
 30
0.0
 10
91.722222
 20
65.572569
 30
0.0
  0
SPLINE
  5
194
100
AcDbEntity
  8
0
 62
7
100
AcDbSpline
 70
8
 71
3
 72
8
 73
4
 74
0
 40
0
 40
0
 40
0
 40
0
 40
1
 40
1
 40
1
 40
1
 10
91.722222
 20
65.572569
 30
0.0
 10
91.722222
 20
65.108811
 30
0.0
 10
93.774319
 20
62.433812
 30
0.0
 10
94.597361
 20
61.824306
 30
0.0
  0
SPLINE
  5
195
100
AcDbEntity
  8
0
 62
7
100
AcDbSpline
 70
8
 71
3
 72
8
 73
4
 74
0
 40
0
 40
0
 40
0
 40
0
 40
1
 40
1
 40
1
 40
1
 10
94.597361
 20
61.824306
 30
0.0
 10
94.931416
 20
61.576915
 30
0.0
 10
95.108632
 20
61.100693
 30
0.0
 10
95.011875
 20
60.730694
 30
0.0
  0
SPLINE
  5
196
100
AcDbEntity
  8
0
 62
7
100
AcDbSpline
 70
8
 71
3
 72
8
 73
4
 74
0
 40
0
 40
0
 40
0
 40
0
 40
1
 40
1
 40
1
 40
1
 10
95.011875
 20
60.730694
 30
0.0
 10
94.771461
 20
59.811344
 30
0.0
 10
98.435109
 20
56.591541
 30
0.0
 10
100.065417
 20
56.285694
 30
0.0
  0
SPLINE
  5
197
100
AcDbEntity
  8
0
 62
7
100
AcDbSpline
 70
8
 71
3
 72
8
 73
4
 74
0
 40
0
 40
0
 40
0
 40
0
 40
1
 40
1
 40
1
 40
1
 10
100.065417
 20
56.285694
 30
0.0
 10
101.127822
 20
56.086386
 30
0.0
 10
101.248419
 20
55.955266
 30
0.0
 10
101.026736
 20
55.280278
 30
0.0
  0
SPLINE
  5
198
100
AcDbEntity
  8
0
 62
7
100
AcDbSpline
 70
8
 71
3
 72
8
 73
4
 74
0
 40
0
 40
0
 40
0
 40
0
 40
1
 40
1
 40
1
 40
1
 10
101.026736
 20
55.280278
 30
0.0
 10
100.886844
 20
54.854331
 30
0.0
 10
100.497132
 20
53.551667
 30
0.0
 10
100.162431
 20
52.387500
 30
0.0
  0
SPLINE
  5
199
100
AcDbEntity
  8
0
 62
7
100
AcDbSpline
 70
8
 71
3
 72
8
 73
4
 74
0
 40
0
 40
0
 40
0
 40
0
 40
1
 40
1
 40
1
 40
1
 10
100.162431
 20
52.387500
 30
0.0
 10
99.504376
 20
50.098650
 30
0.0
 10
99.033714
 20
48.724075
 30
0.0
 10
98.019306
 20
46.152153
 30
0.0
  0
SPLINE
  5
19a
100
AcDbEntity
  8
0
 62
7
100
AcDbSpline
 70
8
 71
3
 72
8
 73
4
 74
0
 40
0
 40
0
 40
0
 40
0
 40
1
 40
1
 40
1
 40
1
 10
98.019306
 20
46.152153
 30
0.0
 10
97.660742
 20
45.243059
 30
0.0
 10
97.366667
 20
44.276151
 30
0.0
 10
97.366667
 20
44.009028
 30
0.0
  0
SPLINE
  5
19b
100
AcDbEntity
  8
0
 62
7
100
AcDbSpline
 70
8
 71
3
 72
8
 73
4
 74
0
 40
0
 40
0
 40
0
 40
0
 40
1
 40
1
 40
1
 40
1
 10
97.366667
 20
44.009028
 30
0.0
 10
97.366667
 20
43.741876
 30
0.0
 10
97.049167
 20
42.863107
 30
0.0
 10
96.661111
 20
42.059931
 30
0.0
  0
SPLINE
  5
19c
100
AcDbEntity
  8
0
 62
7
100
AcDbSpline
 70
8
 71
3
 72
8
 73
4
 74
0
 40
0
 40
0
 40
0
 40
0
 40
1
 40
1
 40
1
 40
1
 10
96.661111
 20
42.059931
 30
0.0
 10
96.273056
 20
41.256754
 30
0.0
 10
95.955556
 20
40.354321
 30
0.0
 10
95.955556
 20
40.049097
 30
0.0
  0
SPLINE
  5
19d
100
AcDbEntity
  8
0
 62
7
100
AcDbSpline
 70
8
 71
3
 72
8
 73
4
 74
0
 40
0
 40
0
 40
0
 40
0
 40
1
 40
1
 40
1
 40
1
 10
95.955556
 20
40.049097
 30
0.0
 10
95.955556
 20
39.743902
 30
0.0
 10
95.592127
 20
39.355113
 30
0.0
 10
95.144167
 20
39.184792
 30
0.0
  0
SPLINE
  5
19e
100
AcDbEntity
  8
0
 62
7
100
AcDbSpline
 70
8
 71
3
 72
8
 73
4
 74
0
 40
0
 40
0
 40
0
 40
0
 40
1
 40
1
 40
1
 40
1
 10
95.144167
 20
39.184792
 30
0.0
 10
94.473037
 20
38.929635
 30
0.0
 10
94.224684
 20
38.385792
 30
0.0
 10
93.733056
 20
36.097986
 30
0.0
  0
SPLINE
  5
19f
100
AcDbEntity
  8
0
 62
7
100
AcDbSpline
 70
8
 71
3
 72
8
 73
4
 74
0
 40
0
 40
0
 40
0
 40
0
 40
1
 40
1
 40
1
 40
1
 10
93.733056
 20
36.097986
 30
0.0
 10
93.404904
 20
34.570910
 30
0.0
 10
93.133333
 20
32.989689
 30
0.0
 10
93.133333
 20
32.579028
 30
0.0
  0
SPLINE
  5
1a0
100
AcDbEntity
  8
0
 62
7
100
AcDbSpline
 70
8
 71
3
 72
8
 73
4
 74
0
 40
0
 40
0
 40
0
 40
0
 40
1
 40
1
 40
1
 40
1
 10
93.133333
 20
32.579028
 30
0.0
 10
93.133333
 20
32.168366
 30
0.0
 10
92.498333
 20
30.543571
 30
0.0
 10
91.722222
 20
28.971875
 30
0.0
  0
SPLINE
  5
1a1
100
AcDbEntity
  8
0
 62
7
100
AcDbSpline
 70
8
 71
3
 72
8
 73
4
 74
0
 40
0
 40
0
 40
0
 40
0
 40
1
 40
1
 40
1
 40
1
 10
91.722222
 20
28.971875
 30
0.0
 10
90.859539
 20
27.224891
 30
0.0
 10
90.302927
 20
25.593633
 30
0.0
 10
90.293472
 20
24.782639
 30
0.0
  0
SPLINE
  5
1a2
100
AcDbEntity
  8
0
 62
7
100
AcDbSpline
 70
8
 71
3
 72
8
 73
4
 74
0
 40
0
 40
0
 40
0
 40
0
 40
1
 40
1
 40
1
 40
1
 10
90.293472
 20
24.782639
 30
0.0
 10
90.284955
 20
24.053010
 30
0.0
 10
90.037325
 20
22.824722
 30
0.0
 10
89.737847
 20
22.048611
 30
0.0
  0
SPLINE
  5
1a3
100
AcDbEntity
  8
0
 62
7
100
AcDbSpline
 70
8
 71
3
 72
8
 73
4
 74
0
 40
0
 40
0
 40
0
 40
0
 40
1
 40
1
 40
1
 40
1
 10
89.737847
 20
22.048611
 30
0.0
 10
89.438373
 20
21.272500
 30
0.0
 10
89.076959
 20
20.002500
 30
0.0
 10
88.935278
 20
19.226389
 30
0.0
  0
SPLINE
  5
1a4
100
AcDbEntity
  8
0
 62
7
100
AcDbSpline
 70
8
 71
3
 72
8
 73
4
 74
0
 40
0
 40
0
 40
0
 40
0
 40
1
 40
1
 40
1
 40
1
 10
88.935278
 20
19.226389
 30
0.0
 10
88.793591
 20
18.450278
 30
0.0
 10
88.417248
 20
17.259639
 30
0.0
 10
88.106250
 20
16.580556
 30
0.0
  0
SPLINE
  5
1a5
100
AcDbEntity
  8
0
 62
7
100
AcDbSpline
 70
8
 71
3
 72
8
 73
4
 74
0
 40
0
 40
0
 40
0
 40
0
 40
1
 40
1
 40
1
 40
1
 10
88.106250
 20
16.580556
 30
0.0
 10
87.168242
 20
14.532300
 30
0.0
 10
86.933238
 20
11.744918
 30
0.0
 10
87.312500
 20
7.346597
 30
0.0
  0
SPLINE
  5
1a6
100
AcDbEntity
  8
0
 62
7
100
AcDbSpline
 70
8
 71
3
 72
8
 73
4
 74
0
 40
0
 40
0
 40
0
 40
0
 40
1
 40
1
 40
1
 40
1
 10
87.312500
 20
7.346597
 30
0.0
 10
87.640013
 20
3.548422
 30
0.0
 10
87.753458
 20
3.096923
 30
0.0
 10
88.802986
 20
1.613958
 30
0.0
  0
LWPOLYLINE
  5
1a7
100
AcDbEntity
  8
0
 62
7
100
AcDbPolyline
 90
3
 70
0
 10
81.138889
 20
80.847847
 30
0.0
 10
83.079167
 20
80.962500
 30
0.0
 10
83.273194
 20
77.425903
 30
0.0
  0
SPLINE
  5
1a8
100
AcDbEntity
  8
0
 62
7
100
AcDbSpline
 70
8
 71
3
 72
8
 73
4
 74
0
 40
0
 40
0
 40
0
 40
0
 40
1
 40
1
 40
1
 40
1
 10
93.459653
 20
0.000000
 30
0.0
 10
96.692085
 20
0.000000
 30
0.0
 10
97.020400
 20
0.063937
 30
0.0
 10
97.525417
 20
0.784931
 30
0.0
  0
SPLINE
  5
1a9
100
AcDbEntity
  8
0
 62
7
100
AcDbSpline
 70
8
 71
3
 72
8
 73
4
 74
0
 40
0
 40
0
 40
0
 40
0
 40
1
 40
1
 40
1
 40
1
 10
97.525417
 20
0.784931
 30
0.0
 10
97.827459
 20
1.216166
 30
0.0
 10
98.076724
 20
1.811486
 30
0.0
 10
98.081042
 20
2.107847
 30
0.0
  0
SPLINE
  5
1aa
100
AcDbEntity
  8
0
 62
7
100
AcDbSpline
 70
8
 71
3
 72
8
 73
4
 74
0
 40
0
 40
0
 40
0
 40
0
 40
1
 40
1
 40
1
 40
1
 10
98.081042
 20
2.107847
 30
0.0
 10
98.085357
 20
2.404237
 30
0.0
 10
98.398350
 20
3.042694
 30
0.0
 10
98.777778
 20
3.527778
 30
0.0
  0
SPLINE
  5
1ab
100
AcDbEntity
  8
0
 62
7
100
AcDbSpline
 70
8
 71
3
 72
8
 73
4
 74
0
 40
0
 40
0
 40
0
 40
0
 40
1
 40
1
 40
1
 40
1
 10
98.777778
 20
3.527778
 30
0.0
 10
99.371150
 20
4.286363
 30
0.0
 10
99.465130
 20
4.977186
 30
0.0
 10
99.465694
 20
8.466667
 30
0.0
  0
SPLINE
  5
1ac
100
AcDbEntity
  8
0
 62
7
100
AcDbSpline
 70
8
 71
3
 72
8
 73
4
 74
0
 40
0
 40
0
 40
0
 40
0
 40
1
 40
1
 40
1
 40
1
 10
99.465694
 20
8.466667
 30
0.0
 10
99.466191
 20
10.697972
 30
0.0
 10
99.243442
 20
13.793611
 30
0.0
 10
98.962986
 20
15.345833
 30
0.0
  0
SPLINE
  5
1ad
100
AcDbEntity
  8
0
 62
7
100
AcDbSpline
 70
8
 71
3
 72
8
 73
4
 74
0
 40
0
 40
0
 40
0
 40
0
 40
1
 40
1
 40
1
 40
1
 10
98.962986
 20
15.345833
 30
0.0
 10
98.410406
 20
18.404191
 30
0.0
 10
98.297977
 20
21.665480
 30
0.0
 10
98.654306
 20
24.632708
 30
0.0
  0
SPLINE
  5
1ae
100
AcDbEntity
  8
0
 62
7
100
AcDbSpline
 70
8
 71
3
 72
8
 73
4
 74
0
 40
0
 40
0
 40
0
 40
0
 40
1
 40
1
 40
1
 40
1
 10
98.654306
 20
24.632708
 30
0.0
 10
98.839441
 20
26.174375
 30
0.0
 10
99.032791
 20
26.570263
 30
0.0
 10
99.712639
 20
26.828750
 30
0.0
  0
SPLINE
  5
1af
100
AcDbEntity
  8
0
 62
7
100
AcDbSpline
 70
8
 71
3
 72
8
 73
4
 74
0
 40
0
 40
0
 40
0
 40
0
 40
1
 40
1
 40
1
 40
1
 10
99.712639
 20
26.828750
 30
0.0
 10
100.168812
 20
27.002176
 30
0.0
 10
100.541667
 20
27.359554
 30
0.0
 10
100.541667
 20
27.622500
 30
0.0
  0
SPLINE
  5
1b0
100
AcDbEntity
  8
0
 62
7
100
AcDbSpline
 70
8
 71
3
 72
8
 73
4
 74
0
 40
0
 40
0
 40
0
 40
0
 40
1
 40
1
 40
1
 40
1
 10
100.541667
 20
27.622500
 30
0.0
 10
100.541667
 20
27.885475
 30
0.0
 10
100.916190
 20
28.841390
 30
0.0
 10
101.370694
 20
29.739167
 30
0.0
  0
SPLINE
  5
1b1
100
AcDbEntity
  8
0
 62
7
100
AcDbSpline
 70
8
 71
3
 72
8
 73
4
 74
0
 40
0
 40
0
 40
0
 40
0
 40
1
 40
1
 40
1
 40
1
 10
101.370694
 20
29.739167
 30
0.0
 10
102.188989
 20
31.355482
 30
0.0
 10
102.082354
 20
32.102778
 30
0.0
 10
101.035556
 20
32.102778
 30
0.0
  0
SPLINE
  5
1b2
100
AcDbEntity
  8
0
 62
7
100
AcDbSpline
 70
8
 71
3
 72
8
 73
4
 74
0
 40
0
 40
0
 40
0
 40
0
 40
1
 40
1
 40
1
 40
1
 10
101.035556
 20
32.102778
 30
0.0
 10
100.473290
 20
32.102778
 30
0.0
 10
100.811008
 20
33.437505
 30
0.0
 10
101.652917
 20
34.528125
 30
0.0
  0
SPLINE
  5
1b3
100
AcDbEntity
  8
0
 62
7
100
AcDbSpline
 70
8
 71
3
 72
8
 73
4
 74
0
 40
0
 40
0
 40
0
 40
0
 40
1
 40
1
 40
1
 40
1
 10
101.652917
 20
34.528125
 30
0.0
 10
102.010128
 20
34.990857
 30
0.0
 10
102.305556
 20
35.896705
 30
0.0
 10
102.305556
 20
36.538958
 30
0.0
  0
SPLINE
  5
1b4
100
AcDbEntity
  8
0
 62
7
100
AcDbSpline
 70
8
 71
3
 72
8
 73
4
 74
0
 40
0
 40
0
 40
0
 40
0
 40
1
 40
1
 40
1
 40
1
 10
102.305556
 20
36.538958
 30
0.0
 10
102.305556
 20
37.181211
 30
0.0
 10
102.845670
 20
38.790485
 30
0.0
 10
103.505000
 20
40.110833
 30
0.0
  0
SPLINE
  5
1b5
100
AcDbEntity
  8
0
 62
7
100
AcDbSpline
 70
8
 71
3
 72
8
 73
4
 74
0
 40
0
 40
0
 40
0
 40
0
 40
1
 40
1
 40
1
 40
1
 10
103.505000
 20
40.110833
 30
0.0
 10
104.164336
 20
41.431210
 30
0.0
 10
104.950754
 20
43.065361
 30
0.0
 10
105.251250
 20
43.744444
 30
0.0
  0
SPLINE
  5
1b6
100
AcDbEntity
  8
0
 62
7
100
AcDbSpline
 70
8
 71
3
 72
8
 73
4
 74
0
 40
0
 40
0
 40
0
 40
0
 40
1
 40
1
 40
1
 40
1
 10
105.251250
 20
43.744444
 30
0.0
 10
105.987740
 20
45.408850
 30
0.0
 10
108.623797
 20
50.188410
 30
0.0
 10
109.034792
 20
50.605972
 30
0.0
  0
SPLINE
  5
1b7
100
AcDbEntity
  8
0
 62
7
100
AcDbSpline
 70
8
 71
3
 72
8
 73
4
 74
0
 40
0
 40
0
 40
0
 40
0
 40
1
 40
1
 40
1
 40
1
 10
109.034792
 20
50.605972
 30
0.0
 10
109.216218
 20
50.790300
 30
0.0
 10
109.361111
 20
51.226861
 30
0.0
 10
109.361111
 20
51.576111
 30
0.0
  0
SPLINE
  5
1b8
100
AcDbEntity
  8
0
 62
7
100
AcDbSpline
 70
8
 71
3
 72
8
 73
4
 74
0
 40
0
 40
0
 40
0
 40
0
 40
1
 40
1
 40
1
 40
1
 10
109.361111
 20
51.576111
 30
0.0
 10
109.361111
 20
51.925361
 30
0.0
 10
109.497873
 20
52.211111
 30
0.0
 10
109.669792
 20
52.211111
 30
0.0
  0
SPLINE
  5
1b9
100
AcDbEntity
  8
0
 62
7
100
AcDbSpline
 70
8
 71
3
 72
8
 73
4
 74
0
 40
0
 40
0
 40
0
 40
0
 40
1
 40
1
 40
1
 40
1
 10
109.669792
 20
52.211111
 30
0.0
 10
109.841713
 20
52.211111
 30
0.0
 10
110.257830
 20
52.778587
 30
0.0
 10
110.587014
 20
53.472292
 30
0.0
  0
SPLINE
  5
1ba
100
AcDbEntity
  8
0
 62
7
100
AcDbSpline
 70
8
 71
3
 72
8
 73
4
 74
0
 40
0
 40
0
 40
0
 40
0
 40
1
 40
1
 40
1
 40
1
 10
110.587014
 20
53.472292
 30
0.0
 10
110.994850
 20
54.331743
 30
0.0
 10
111.355525
 20
54.668914
 30
0.0
 10
111.715903
 20
54.530625
 30
0.0
  0
SPLINE
  5
1bb
100
AcDbEntity
  8
0
 62
7
100
AcDbSpline
 70
8
 71
3
 72
8
 73
4
 74
0
 40
0
 40
0
 40
0
 40
0
 40
1
 40
1
 40
1
 40
1
 10
111.715903
 20
54.530625
 30
0.0
 10
112.006778
 20
54.419003
 30
0.0
 10
112.363778
 20
54.327778
 30
0.0
 10
112.509653
 20
54.327778
 30
0.0
  0
SPLINE
  5
1bc
100
AcDbEntity
  8
0
 62
7
100
AcDbSpline
 70
8
 71
3
 72
8
 73
4
 74
0
 40
0
 40
0
 40
0
 40
0
 40
1
 40
1
 40
1
 40
1
 10
112.509653
 20
54.327778
 30
0.0
 10
112.655525
 20
54.327778
 30
0.0
 10
113.459319
 20
53.692778
 30
0.0
 10
114.300000
 20
52.916667
 30
0.0
  0
SPLINE
  5
1bd
100
AcDbEntity
  8
0
 62
7
100
AcDbSpline
 70
8
 71
3
 72
8
 73
4
 74
0
 40
0
 40
0
 40
0
 40
0
 40
1
 40
1
 40
1
 40
1
 10
114.300000
 20
52.916667
 30
0.0
 10
116.028081
 20
51.321310
 30
0.0
 10
116.593510
 20
51.222825
 30
0.0
 10
118.321667
 20
52.193472
 30
0.0
  0
SPLINE
  5
1be
100
AcDbEntity
  8
0
 62
7
100
AcDbSpline
 70
8
 71
3
 72
8
 73
4
 74
0
 40
0
 40
0
 40
0
 40
0
 40
1
 40
1
 40
1
 40
1
 10
118.321667
 20
52.193472
 30
0.0
 10
120.491306
 20
53.412088
 30
0.0
 10
121.799240
 20
53.452432
 30
0.0
 10
123.772083
 20
52.378681
 30
0.0
  0
SPLINE
  5
1bf
100
AcDbEntity
  8
0
 62
7
100
AcDbSpline
 70
8
 71
3
 72
8
 73
4
 74
0
 40
0
 40
0
 40
0
 40
0
 40
1
 40
1
 40
1
 40
1
 10
123.772083
 20
52.378681
 30
0.0
 10
125.389674
 20
51.498274
 30
0.0
 10
125.623729
 20
51.461100
 30
0.0
 10
126.620764
 20
51.902431
 30
0.0
  0
SPLINE
  5
1c0
100
AcDbEntity
  8
0
 62
7
100
AcDbSpline
 70
8
 71
3
 72
8
 73
4
 74
0
 40
0
 40
0
 40
0
 40
0
 40
1
 40
1
 40
1
 40
1
 10
126.620764
 20
51.902431
 30
0.0
 10
127.217616
 20
52.166619
 30
0.0
 10
127.705556
 20
52.476519
 30
0.0
 10
127.705556
 20
52.590347
 30
0.0
  0
SPLINE
  5
1c1
100
AcDbEntity
  8
0
 62
7
100
AcDbSpline
 70
8
 71
3
 72
8
 73
4
 74
0
 40
0
 40
0
 40
0
 40
0
 40
1
 40
1
 40
1
 40
1
 10
127.705556
 20
52.590347
 30
0.0
 10
127.705556
 20
53.050846
 30
0.0
 10
131.005648
 20
56.444444
 30
0.0
 10
131.453819
 20
56.444444
 30
0.0
  0
SPLINE
  5
1c2
100
AcDbEntity
  8
0
 62
7
100
AcDbSpline
 70
8
 71
3
 72
8
 73
4
 74
0
 40
0
 40
0
 40
0
 40
0
 40
1
 40
1
 40
1
 40
1
 10
131.453819
 20
56.444444
 30
0.0
 10
131.719100
 20
56.444444
 30
0.0
 10
131.938889
 20
56.603194
 30
0.0
 10
131.938889
 20
56.797222
 30
0.0
  0
SPLINE
  5
1c3
100
AcDbEntity
  8
0
 62
7
100
AcDbSpline
 70
8
 71
3
 72
8
 73
4
 74
0
 40
0
 40
0
 40
0
 40
0
 40
1
 40
1
 40
1
 40
1
 10
131.938889
 20
56.797222
 30
0.0
 10
131.938889
 20
57.416116
 30
0.0
 10
133.273007
 20
57.177638
 30
0.0
 10
134.902222
 20
56.268056
 30
0.0
  0
SPLINE
  5
1c4
100
AcDbEntity
  8
0
 62
7
100
AcDbSpline
 70
8
 71
3
 72
8
 73
4
 74
0
 40
0
 40
0
 40
0
 40
0
 40
1
 40
1
 40
1
 40
1
 10
134.902222
 20
56.268056
 30
0.0
 10
137.258417
 20
54.952604
 30
0.0
 10
138.796519
 20
55.078150
 30
0.0
 10
140.290903
 20
56.709028
 30
0.0
  0
SPLINE
  5
1c5
100
AcDbEntity
  8
0
 62
7
100
AcDbSpline
 70
8
 71
3
 72
8
 73
4
 74
0
 40
0
 40
0
 40
0
 40
0
 40
1
 40
1
 40
1
 40
1
 10
140.290903
 20
56.709028
 30
0.0
 10
141.439014
 20
57.962004
 30
0.0
 10
141.615231
 20
58.031705
 30
0.0
 10
143.686389
 20
58.040764
 30
0.0
  0
SPLINE
  5
1c6
100
AcDbEntity
  8
0
 62
7
100
AcDbSpline
 70
8
 71
3
 72
8
 73
4
 74
0
 40
0
 40
0
 40
0
 40
0
 40
1
 40
1
 40
1
 40
1
 10
143.686389
 20
58.040764
 30
0.0
 10
144.889113
 20
58.046027
 30
0.0
 10
146.159192
 20
58.184641
 30
0.0
 10
146.508611
 20
58.349444
 30
0.0
  0
SPLINE
  5
1c7
100
AcDbEntity
  8
0
 62
7
100
AcDbSpline
 70
8
 71
3
 72
8
 73
4
 74
0
 40
0
 40
0
 40
0
 40
0
 40
1
 40
1
 40
1
 40
1
 10
146.508611
 20
58.349444
 30
0.0
 10
146.963734
 20
58.564103
 30
0.0
 10
147.371754
 20
58.429946
 30
0.0
 10
147.955000
 20
57.882014
 30
0.0
  0
SPLINE
  5
1c8
100
AcDbEntity
  8
0
 62
7
100
AcDbSpline
 70
8
 71
3
 72
8
 73
4
 74
0
 40
0
 40
0
 40
0
 40
0
 40
1
 40
1
 40
1
 40
1
 10
147.955000
 20
57.882014
 30
0.0
 10
148.402788
 20
57.461339
 30
0.0
 10
149.355802
 20
56.959604
 30
0.0
 10
150.071667
 20
56.761944
 30
0.0
  0
SPLINE
  5
1c9
100
AcDbEntity
  8
0
 62
7
100
AcDbSpline
 70
8
 71
3
 72
8
 73
4
 74
0
 40
0
 40
0
 40
0
 40
0
 40
1
 40
1
 40
1
 40
1
 10
150.071667
 20
56.761944
 30
0.0
 10
151.093418
 20
56.479824
 30
0.0
 10
151.332178
 20
56.263410
 30
0.0
 10
151.174097
 20
55.765347
 30
0.0
  0
SPLINE
  5
1ca
100
AcDbEntity
  8
0
 62
7
100
AcDbSpline
 70
8
 71
3
 72
8
 73
4
 74
0
 40
0
 40
0
 40
0
 40
0
 40
1
 40
1
 40
1
 40
1
 10
151.174097
 20
55.765347
 30
0.0
 10
150.828203
 20
54.675526
 30
0.0
 10
151.860157
 20
54.156743
 30
0.0
 10
153.431875
 20
54.627639
 30
0.0
  0
SPLINE
  5
1cb
100
AcDbEntity
  8
0
 62
7
100
AcDbSpline
 70
8
 71
3
 72
8
 73
4
 74
0
 40
0
 40
0
 40
0
 40
0
 40
1
 40
1
 40
1
 40
1
 10
153.431875
 20
54.627639
 30
0.0
 10
154.178810
 20
54.851427
 30
0.0
 10
154.983129
 20
55.274408
 30
0.0
 10
155.222222
 20
55.562500
 30
0.0
  0
SPLINE
  5
1cc
100
AcDbEntity
  8
0
 62
7
100
AcDbSpline
 70
8
 71
3
 72
8
 73
4
 74
0
 40
0
 40
0
 40
0
 40
0
 40
1
 40
1
 40
1
 40
1
 10
155.222222
 20
55.562500
 30
0.0
 10
155.604794
 20
56.023468
 30
0.0
 10
155.785151
 20
56.014318
 30
0.0
 10
156.739167
 20
55.474306
 30
0.0
  0
SPLINE
  5
1cd
100
AcDbEntity
  8
0
 62
7
100
AcDbSpline
 70
8
 71
3
 72
8
 73
4
 74
0
 40
0
 40
0
 40
0
 40
0
 40
1
 40
1
 40
1
 40
1
 10
156.739167
 20
55.474306
 30
0.0
 10
157.335406
 20
55.136813
 30
0.0
 10
158.226170
 20
54.402905
 30
0.0
 10
158.723542
 20
53.851528
 30
0.0
  0
SPLINE
  5
1ce
100
AcDbEntity
  8
0
 62
7
100
AcDbSpline
 70
8
 71
3
 72
8
 73
4
 74
0
 40
0
 40
0
 40
0
 40
0
 40
1
 40
1
 40
1
 40
1
 10
158.723542
 20
53.851528
 30
0.0
 10
161.412781
 20
50.870279
 30
0.0
 10
162.762923
 20
49.778372
 30
0.0
 10
164.412083
 20
49.238958
 30
0.0
  0
SPLINE
  5
1cf
100
AcDbEntity
  8
0
 62
7
100
AcDbSpline
 70
8
 71
3
 72
8
 73
4
 74
0
 40
0
 40
0
 40
0
 40
0
 40
1
 40
1
 40
1
 40
1
 10
164.412083
 20
49.238958
 30
0.0
 10
166.555821
 20
48.537777
 30
0.0
 10
167.200653
 20
48.810604
 30
0.0
 10
168.089792
 20
50.782361
 30
0.0
  0
SPLINE
  5
1d0
100
AcDbEntity
  8
0
 62
7
100
AcDbSpline
 70
8
 71
3
 72
8
 73
4
 74
0
 40
0
 40
0
 40
0
 40
0
 40
1
 40
1
 40
1
 40
1
 10
168.089792
 20
50.782361
 30
0.0
 10
168.445084
 20
51.570263
 30
0.0
 10
168.931347
 20
52.211111
 30
0.0
 10
169.174583
 20
52.211111
 30
0.0
  0
SPLINE
  5
1d1
100
AcDbEntity
  8
0
 62
7
100
AcDbSpline
 70
8
 71
3
 72
8
 73
4
 74
0
 40
0
 40
0
 40
0
 40
0
 40
1
 40
1
 40
1
 40
1
 10
169.174583
 20
52.211111
 30
0.0
 10
169.417825
 20
52.211111
 30
0.0
 10
170.227808
 20
52.517816
 30
0.0
 10
170.973750
 20
52.890208
 30
0.0
  0
SPLINE
  5
1d2
100
AcDbEntity
  8
0
 62
7
100
AcDbSpline
 70
8
 71
3
 72
8
 73
4
 74
0
 40
0
 40
0
 40
0
 40
0
 40
1
 40
1
 40
1
 40
1
 10
170.973750
 20
52.890208
 30
0.0
 10
174.112188
 20
54.456996
 30
0.0
 10
179.285448
 20
54.389836
 30
0.0
 10
180.472292
 20
52.766736
 30
0.0
  0
SPLINE
  5
1d3
100
AcDbEntity
  8
0
 62
7
100
AcDbSpline
 70
8
 71
3
 72
8
 73
4
 74
0
 40
0
 40
0
 40
0
 40
0
 40
1
 40
1
 40
1
 40
1
 10
180.472292
 20
52.766736
 30
0.0
 10
181.183060
 20
51.794701
 30
0.0
 10
183.586109
 20
51.890862
 30
0.0
 10
184.696806
 20
52.934306
 30
0.0
  0
SPLINE
  5
1d4
100
AcDbEntity
  8
0
 62
7
100
AcDbSpline
 70
8
 71
3
 72
8
 73
4
 74
0
 40
0
 40
0
 40
0
 40
0
 40
1
 40
1
 40
1
 40
1
 10
184.696806
 20
52.934306
 30
0.0
 10
185.174035
 20
53.382641
 30
0.0
 10
185.561111
 20
53.898588
 30
0.0
 10
185.561111
 20
54.089653
 30
0.0
  0
SPLINE
  5
1d5
100
AcDbEntity
  8
0
 62
7
100
AcDbSpline
 70
8
 71
3
 72
8
 73
4
 74
0
 40
0
 40
0
 40
0
 40
0
 40
1
 40
1
 40
1
 40
1
 10
185.561111
 20
54.089653
 30
0.0
 10
185.561111
 20
54.476354
 30
0.0
 10
188.751825
 20
57.502778
 30
0.0
 10
189.159444
 20
57.502778
 30
0.0
  0
SPLINE
  5
1d6
100
AcDbEntity
  8
0
 62
7
100
AcDbSpline
 70
8
 71
3
 72
8
 73
4
 74
0
 40
0
 40
0
 40
0
 40
0
 40
1
 40
1
 40
1
 40
1
 10
189.159444
 20
57.502778
 30
0.0
 10
189.479267
 20
57.502778
 30
0.0
 10
190.093132
 20
55.258279
 30
0.0
 10
190.544097
 20
52.458056
 30
0.0
  0
SPLINE
  5
1d7
100
AcDbEntity
  8
0
 62
7
100
AcDbSpline
 70
8
 71
3
 72
8
 73
4
 74
0
 40
0
 40
0
 40
0
 40
0
 40
1
 40
1
 40
1
 40
1
 10
190.544097
 20
52.458056
 30
0.0
 10
190.731092
 20
51.296926
 30
0.0
 10
191.111257
 20
49.374648
 30
0.0
 10
191.390764
 20
48.189444
 30
0.0
  0
SPLINE
  5
1d8
100
AcDbEntity
  8
0
 62
7
100
AcDbSpline
 70
8
 71
3
 72
8
 73
4
 74
0
 40
0
 40
0
 40
0
 40
0
 40
1
 40
1
 40
1
 40
1
 10
191.390764
 20
48.189444
 30
0.0
 10
192.134470
 20
45.035978
 30
0.0
 10
192.067112
 20
43.501225
 30
0.0
 10
191.170278
 20
43.021250
 30
0.0
  0
SPLINE
  5
1d9
100
AcDbEntity
  8
0
 62
7
100
AcDbSpline
 70
8
 71
3
 72
8
 73
4
 74
0
 40
0
 40
0
 40
0
 40
0
 40
1
 40
1
 40
1
 40
1
 10
191.170278
 20
43.021250
 30
0.0
 10
190.653834
 20
42.744870
 30
0.0
 10
190.493596
 20
42.402153
 30
0.0
 10
190.623472
 20
41.865903
 30
0.0
  0
SPLINE
  5
1da
100
AcDbEntity
  8
0
 62
7
100
AcDbSpline
 70
8
 71
3
 72
8
 73
4
 74
0
 40
0
 40
0
 40
0
 40
0
 40
1
 40
1
 40
1
 40
1
 10
190.623472
 20
41.865903
 30
0.0
 10
190.725343
 20
41.445279
 30
0.0
 10
190.918138
 20
40.638081
 30
0.0
 10
191.055625
 20
40.075556
 30
0.0
  0
SPLINE
  5
1db
100
AcDbEntity
  8
0
 62
7
100
AcDbSpline
 70
8
 71
3
 72
8
 73
4
 74
0
 40
0
 40
0
 40
0
 40
0
 40
1
 40
1
 40
1
 40
1
 10
191.055625
 20
40.075556
 30
0.0
 10
191.219410
 20
39.405419
 30
0.0
 10
191.179636
 20
39.134316
 30
0.0
 10
190.940972
 20
39.281806
 30
0.0
  0
SPLINE
  5
1dc
100
AcDbEntity
  8
0
 62
7
100
AcDbSpline
 70
8
 71
3
 72
8
 73
4
 74
0
 40
0
 40
0
 40
0
 40
0
 40
1
 40
1
 40
1
 40
1
 10
190.940972
 20
39.281806
 30
0.0
 10
190.740628
 20
39.405616
 30
0.0
 10
190.382946
 20
39.258946
 30
0.0
 10
190.138403
 20
38.964306
 30
0.0
  0
SPLINE
  5
1dd
100
AcDbEntity
  8
0
 62
7
100
AcDbSpline
 70
8
 71
3
 72
8
 73
4
 74
0
 40
0
 40
0
 40
0
 40
0
 40
1
 40
1
 40
1
 40
1
 10
190.138403
 20
38.964306
 30
0.0
 10
189.795833
 20
38.551527
 30
0.0
 10
189.782535
 20
38.228623
 30
0.0
 10
190.094306
 20
37.544375
 30
0.0
  0
SPLINE
  5
1de
100
AcDbEntity
  8
0
 62
7
100
AcDbSpline
 70
8
 71
3
 72
8
 73
4
 74
0
 40
0
 40
0
 40
0
 40
0
 40
1
 40
1
 40
1
 40
1
 10
190.094306
 20
37.544375
 30
0.0
 10
190.316860
 20
37.055933
 30
0.0
 10
190.500000
 20
36.341883
 30
0.0
 10
190.500000
 20
35.956875
 30
0.0
  0
SPLINE
  5
1df
100
AcDbEntity
  8
0
 62
7
100
AcDbSpline
 70
8
 71
3
 72
8
 73
4
 74
0
 40
0
 40
0
 40
0
 40
0
 40
1
 40
1
 40
1
 40
1
 10
190.500000
 20
35.956875
 30
0.0
 10
190.500000
 20
35.571867
 30
0.0
 10
190.738125
 20
35.160148
 30
0.0
 10
191.029167
 20
35.048472
 30
0.0
  0
SPLINE
  5
1e0
100
AcDbEntity
  8
0
 62
7
100
AcDbSpline
 70
8
 71
3
 72
8
 73
4
 74
0
 40
0
 40
0
 40
0
 40
0
 40
1
 40
1
 40
1
 40
1
 10
191.029167
 20
35.048472
 30
0.0
 10
191.618452
 20
34.822328
 30
0.0
 10
191.734065
 20
33.836525
 30
0.0
 10
191.232014
 20
33.319861
 30
0.0
  0
SPLINE
  5
1e1
100
AcDbEntity
  8
0
 62
7
100
AcDbSpline
 70
8
 71
3
 72
8
 73
4
 74
0
 40
0
 40
0
 40
0
 40
0
 40
1
 40
1
 40
1
 40
1
 10
191.232014
 20
33.319861
 30
0.0
 10
191.052899
 20
33.135542
 30
0.0
 10
190.750729
 20
32.190972
 30
0.0
 10
190.561736
 20
31.220833
 30
0.0
  0
SPLINE
  5
1e2
100
AcDbEntity
  8
0
 62
7
100
AcDbSpline
 70
8
 71
3
 72
8
 73
4
 74
0
 40
0
 40
0
 40
0
 40
0
 40
1
 40
1
 40
1
 40
1
 10
190.561736
 20
31.220833
 30
0.0
 10
190.372746
 20
30.250694
 30
0.0
 10
189.714649
 20
28.107584
 30
0.0
 10
189.097708
 20
26.458333
 30
0.0
  0
SPLINE
  5
1e3
100
AcDbEntity
  8
0
 62
7
100
AcDbSpline
 70
8
 71
3
 72
8
 73
4
 74
0
 40
0
 40
0
 40
0
 40
0
 40
1
 40
1
 40
1
 40
1
 10
189.097708
 20
26.458333
 30
0.0
 10
188.480771
 20
24.809111
 30
0.0
 10
187.890542
 20
23.096446
 30
0.0
 10
187.783611
 20
22.648333
 30
0.0
  0
SPLINE
  5
1e4
100
AcDbEntity
  8
0
 62
7
100
AcDbSpline
 70
8
 71
3
 72
8
 73
4
 74
0
 40
0
 40
0
 40
0
 40
0
 40
1
 40
1
 40
1
 40
1
 10
187.783611
 20
22.648333
 30
0.0
 10
187.676683
 20
22.200249
 30
0.0
 10
187.050491
 20
21.406499
 30
0.0
 10
186.390139
 20
20.884444
 30
0.0
  0
SPLINE
  5
1e5
100
AcDbEntity
  8
0
 62
7
100
AcDbSpline
 70
8
 71
3
 72
8
 73
4
 74
0
 40
0
 40
0
 40
0
 40
0
 40
1
 40
1
 40
1
 40
1
 10
186.390139
 20
20.884444
 30
0.0
 10
184.405987
 20
19.315882
 30
0.0
 10
184.042411
 20
18.536581
 30
0.0
 10
184.564514
 20
17.003889
 30
0.0
  0
SPLINE
  5
1e6
100
AcDbEntity
  8
0
 62
7
100
AcDbSpline
 70
8
 71
3
 72
8
 73
4
 74
0
 40
0
 40
0
 40
0
 40
0
 40
1
 40
1
 40
1
 40
1
 10
184.564514
 20
17.003889
 30
0.0
 10
184.809658
 20
16.284250
 30
0.0
 10
185.277512
 20
15.296289
 30
0.0
 10
185.605208
 20
14.807847
 30
0.0
  0
SPLINE
  5
1e7
100
AcDbEntity
  8
0
 62
7
100
AcDbSpline
 70
8
 71
3
 72
8
 73
4
 74
0
 40
0
 40
0
 40
0
 40
0
 40
1
 40
1
 40
1
 40
1
 10
185.605208
 20
14.807847
 30
0.0
 10
187.069253
 20
12.625649
 30
0.0
 10
193.728131
 20
11.917666
 30
0.0
 10
196.056250
 20
13.696597
 30
0.0
  0
SPLINE
  5
1e8
100
AcDbEntity
  8
0
 62
7
100
AcDbSpline
 70
8
 71
3
 72
8
 73
4
 74
0
 40
0
 40
0
 40
0
 40
0
 40
1
 40
1
 40
1
 40
1
 10
196.056250
 20
13.696597
 30
0.0
 10
196.905722
 20
14.345708
 30
0.0
 10
197.640775
 20
17.881826
 30
0.0
 10
198.305208
 20
24.518056
 30
0.0
  0
SPLINE
  5
1e9
100
AcDbEntity
  8
0
 62
7
100
AcDbSpline
 70
8
 71
3
 72
8
 73
4
 74
0
 40
0
 40
0
 40
0
 40
0
 40
1
 40
1
 40
1
 40
1
 10
198.305208
 20
24.518056
 30
0.0
 10
198.769444
 20
29.154741
 30
0.0
 10
199.039424
 20
44.450000
 30
0.0
 10
198.657986
 20
44.450000
 30
0.0
  0
SPLINE
  5
1ea
100
AcDbEntity
  8
0
 62
7
100
AcDbSpline
 70
8
 71
3
 72
8
 73
4
 74
0
 40
0
 40
0
 40
0
 40
0
 40
1
 40
1
 40
1
 40
1
 10
198.657986
 20
44.450000
 30
0.0
 10
198.494402
 20
44.450000
 30
0.0
 10
198.255673
 20
45.918459
 30
0.0
 10
198.128819
 20
47.713194
 30
0.0
  0
SPLINE
  5
1eb
100
AcDbEntity
  8
0
 62
7
100
AcDbSpline
 70
8
 71
3
 72
8
 73
4
 74
0
 40
0
 40
0
 40
0
 40
0
 40
1
 40
1
 40
1
 40
1
 10
198.128819
 20
47.713194
 30
0.0
 10
197.904492
 20
50.887051
 30
0.0
 10
197.153200
 20
59.040127
 30
0.0
 10
196.497222
 20
65.413819
 30
0.0
  0
SPLINE
  5
1ec
100
AcDbEntity
  8
0
 62
7
100
AcDbSpline
 70
8
 71
3
 72
8
 73
4
 74
0
 40
0
 40
0
 40
0
 40
0
 40
1
 40
1
 40
1
 40
1
 10
196.497222
 20
65.413819
 30
0.0
 10
196.319134
 20
67.144172
 30
0.0
 10
196.256348
 20
68.691986
 30
0.0
 10
196.356111
 20
68.853403
 30
0.0
  0
SPLINE
  5
1ed
100
AcDbEntity
  8
0
 62
7
100
AcDbSpline
 70
8
 71
3
 72
8
 73
4
 74
0
 40
0
 40
0
 40
0
 40
0
 40
1
 40
1
 40
1
 40
1
 10
196.356111
 20
68.853403
 30
0.0
 10
196.654914
 20
69.336878
 30
0.0
 10
202.173919
 20
69.176443
 30
0.0
 10
204.249514
 20
68.624097
 30
0.0
  0
SPLINE
  5
1ee
100
AcDbEntity
  8
0
 62
7
100
AcDbSpline
 70
8
 71
3
 72
8
 73
4
 74
0
 40
0
 40
0
 40
0
 40
0
 40
1
 40
1
 40
1
 40
1
 10
204.249514
 20
68.624097
 30
0.0
 10
205.961731
 20
68.168441
 30
0.0
 10
206.422529
 20
68.172480
 30
0.0
 10
208.306458
 20
68.659375
 30
0.0
  0
SPLINE
  5
1ef
100
AcDbEntity
  8
0
 62
7
100
AcDbSpline
 70
8
 71
3
 72
8
 73
4
 74
0
 40
0
 40
0
 40
0
 40
0
 40
1
 40
1
 40
1
 40
1
 10
208.306458
 20
68.659375
 30
0.0
 10
209.475389
 20
68.961480
 30
0.0
 10
210.719837
 20
69.514305
 30
0.0
 10
211.066944
 20
69.885278
 30
0.0
  0
SPLINE
  5
1f0
100
AcDbEntity
  8
0
 62
7
100
AcDbSpline
 70
8
 71
3
 72
8
 73
4
 74
0
 40
0
 40
0
 40
0
 40
0
 40
1
 40
1
 40
1
 40
1
 10
211.066944
 20
69.885278
 30
0.0
 10
211.414050
 20
70.256248
 30
0.0
 10
211.850611
 20
70.555556
 30
0.0
 10
212.037083
 20
70.555556
 30
0.0
  0
SPLINE
  5
1f1
100
AcDbEntity
  8
0
 62
7
100
AcDbSpline
 70
8
 71
3
 72
8
 73
4
 74
0
 40
0
 40
0
 40
0
 40
0
 40
1
 40
1
 40
1
 40
1
 10
212.037083
 20
70.555556
 30
0.0
 10
212.223550
 20
70.555556
 30
0.0
 10
212.372222
 20
70.731679
 30
0.0
 10
212.372222
 20
70.943611
 30
0.0
  0
SPLINE
  5
1f2
100
AcDbEntity
  8
0
 62
7
100
AcDbSpline
 70
8
 71
3
 72
8
 73
4
 74
0
 40
0
 40
0
 40
0
 40
0
 40
1
 40
1
 40
1
 40
1
 10
212.372222
 20
70.943611
 30
0.0
 10
212.372222
 20
71.155543
 30
0.0
 10
212.689722
 20
71.729100
 30
0.0
 10
213.077778
 20
72.222431
 30
0.0
  0
SPLINE
  5
1f3
100
AcDbEntity
  8
0
 62
7
100
AcDbSpline
 70
8
 71
3
 72
8
 73
4
 74
0
 40
0
 40
0
 40
0
 40
0
 40
1
 40
1
 40
1
 40
1
 10
213.077778
 20
72.222431
 30
0.0
 10
213.465833
 20
72.715763
 30
0.0
 10
213.783333
 20
73.619312
 30
0.0
 10
213.783333
 20
74.233264
 30
0.0
  0
SPLINE
  5
1f4
100
AcDbEntity
  8
0
 62
7
100
AcDbSpline
 70
8
 71
3
 72
8
 73
4
 74
0
 40
0
 40
0
 40
0
 40
0
 40
1
 40
1
 40
1
 40
1
 10
213.783333
 20
74.233264
 30
0.0
 10
213.783333
 20
75.191945
 30
0.0
 10
213.607390
 20
75.413887
 30
0.0
 10
212.530972
 20
75.803125
 30
0.0
  0
SPLINE
  5
1f5
100
AcDbEntity
  8
0
 62
7
100
AcDbSpline
 70
8
 71
3
 72
8
 73
4
 74
0
 40
0
 40
0
 40
0
 40
0
 40
1
 40
1
 40
1
 40
1
 10
212.530972
 20
75.803125
 30
0.0
 10
211.487650
 20
76.180394
 30
0.0
 10
211.344741
 20
76.342867
 30
0.0
 10
211.701944
 20
76.773264
 30
0.0
  0
SPLINE
  5
1f6
100
AcDbEntity
  8
0
 62
7
100
AcDbSpline
 70
8
 71
3
 72
8
 73
4
 74
0
 40
0
 40
0
 40
0
 40
0
 40
1
 40
1
 40
1
 40
1
 10
211.701944
 20
76.773264
 30
0.0
 10
212.282715
 20
77.473056
 30
0.0
 10
214.703903
 20
78.550541
 30
0.0
 10
216.429167
 20
78.872292
 30
0.0
  0
SPLINE
  5
1f7
100
AcDbEntity
  8
0
 62
7
100
AcDbSpline
 70
8
 71
3
 72
8
 73
4
 74
0
 40
0
 40
0
 40
0
 40
0
 40
1
 40
1
 40
1
 40
1
 10
216.429167
 20
78.872292
 30
0.0
 10
218.357109
 20
79.231837
 30
0.0
 10
220.210425
 20
80.525905
 30
0.0
 10
221.129931
 20
82.161944
 30
0.0
  0
SPLINE
  5
1f8
100
AcDbEntity
  8
0
 62
7
100
AcDbSpline
 70
8
 71
3
 72
8
 73
4
 74
0
 40
0
 40
0
 40
0
 40
0
 40
1
 40
1
 40
1
 40
1
 10
221.129931
 20
82.161944
 30
0.0
 10
222.067298
 20
83.829765
 30
0.0
 10
222.081575
 20
84.342989
 30
0.0
 10
221.235764
 20
85.733819
 30
0.0
  0
SPLINE
  5
1f9
100
AcDbEntity
  8
0
 62
7
100
AcDbSpline
 70
8
 71
3
 72
8
 73
4
 74
0
 40
0
 40
0
 40
0
 40
0
 40
1
 40
1
 40
1
 40
1
 10
221.235764
 20
85.733819
 30
0.0
 10
220.755580
 20
86.523457
 30
0.0
 10
220.623861
 20
87.245577
 30
0.0
 10
220.750694
 20
88.370833
 30
0.0
  0
SPLINE
  5
1fa
100
AcDbEntity
  8
0
 62
7
100
AcDbSpline
 70
8
 71
3
 72
8
 73
4
 74
0
 40
0
 40
0
 40
0
 40
0
 40
1
 40
1
 40
1
 40
1
 10
220.750694
 20
88.370833
 30
0.0
 10
220.982554
 20
90.427889
 30
0.0
 10
220.586213
 20
92.427778
 30
0.0
 10
219.948125
 20
92.427778
 30
0.0
  0
SPLINE
  5
1fb
100
AcDbEntity
  8
0
 62
7
100
AcDbSpline
 70
8
 71
3
 72
8
 73
4
 74
0
 40
0
 40
0
 40
0
 40
0
 40
1
 40
1
 40
1
 40
1
 10
219.948125
 20
92.427778
 30
0.0
 10
219.670565
 20
92.427778
 30
0.0
 10
218.925349
 20
92.109558
 30
0.0
 10
218.290069
 20
91.722222
 30
0.0
  0
SPLINE
  5
1fc
100
AcDbEntity
  8
0
 62
7
100
AcDbSpline
 70
8
 71
3
 72
8
 73
4
 74
0
 40
0
 40
0
 40
0
 40
0
 40
1
 40
1
 40
1
 40
1
 10
218.290069
 20
91.722222
 30
0.0
 10
216.716189
 20
90.762627
 30
0.0
 10
216.431495
 20
90.818524
 30
0.0
 10
215.529583
 20
92.277847
 30
0.0
  0
LWPOLYLINE
  5
1fd
100
AcDbEntity
  8
0
 62
7
100
AcDbPolyline
 90
3
 70
0
 10
88.802986
 20
1.613958
 30
0.0
 10
89.940694
 20
0.000000
 30
0.0
 10
93.459653
 20
0.000000
 30
0.0
  0
SPLINE
  5
1fe
100
AcDbEntity
  8
0
 62
7
100
AcDbSpline
 70
8
 71
3
 72
8
 73
4
 74
0
 40
0
 40
0
 40
0
 40
0
 40
1
 40
1
 40
1
 40
1
 10
215.511944
 20
94.482708
 30
0.0
 10
215.932306
 20
95.000120
 30
0.0
 10
216.688015
 20
96.271382
 30
0.0
 10
217.187639
 20
97.304931
 30
0.0
  0
SPLINE
  5
1ff
100
AcDbEntity
  8
0
 62
7
100
AcDbSpline
 70
8
 71
3
 72
8
 73
4
 74
0
 40
0
 40
0
 40
0
 40
0
 40
1
 40
1
 40
1
 40
1
 10
217.187639
 20
97.304931
 30
0.0
 10
218.025565
 20
99.038303
 30
0.0
 10
218.058063
 20
99.305169
 30
0.0
 10
217.655069
 20
100.744514
 30
0.0
  0
SPLINE
  5
200
100
AcDbEntity
  8
0
 62
7
100
AcDbSpline
 70
8
 71
3
 72
8
 73
4
 74
0
 40
0
 40
0
 40
0
 40
0
 40
1
 40
1
 40
1
 40
1
 10
217.655069
 20
100.744514
 30
0.0
 10
217.265318
 20
102.136578
 30
0.0
 10
217.106683
 20
102.305556
 30
0.0
 10
216.182222
 20
102.305556
 30
0.0
  0
SPLINE
  5
201
100
AcDbEntity
  8
0
 62
7
100
AcDbSpline
 70
8
 71
3
 72
8
 73
4
 74
0
 40
0
 40
0
 40
0
 40
0
 40
1
 40
1
 40
1
 40
1
 10
216.182222
 20
102.305556
 30
0.0
 10
215.314222
 20
102.305556
 30
0.0
 10
215.178538
 20
102.415394
 30
0.0
 10
215.362014
 20
102.993472
 30
0.0
  0
SPLINE
  5
202
100
AcDbEntity
  8
0
 62
7
100
AcDbSpline
 70
8
 71
3
 72
8
 73
4
 74
0
 40
0
 40
0
 40
0
 40
0
 40
1
 40
1
 40
1
 40
1
 10
215.362014
 20
102.993472
 30
0.0
 10
215.810265
 20
104.405791
 30
0.0
 10
215.154338
 20
106.093926
 30
0.0
 10
213.509931
 20
107.738333
 30
0.0
  0
SPLINE
  5
203
100
AcDbEntity
  8
0
 62
7
100
AcDbSpline
 70
8
 71
3
 72
8
 73
4
 74
0
 40
0
 40
0
 40
0
 40
0
 40
1
 40
1
 40
1
 40
1
 10
213.509931
 20
107.738333
 30
0.0
 10
212.015753
 20
109.232511
 30
0.0
 10
210.255556
 20
109.923964
 30
0.0
 10
210.255556
 20
109.017153
 30
0.0
  0
SPLINE
  5
204
100
AcDbEntity
  8
0
 62
7
100
AcDbSpline
 70
8
 71
3
 72
8
 73
4
 74
0
 40
0
 40
0
 40
0
 40
0
 40
1
 40
1
 40
1
 40
1
 10
210.255556
 20
109.017153
 30
0.0
 10
210.255556
 20
108.829949
 30
0.0
 10
209.939966
 20
108.511481
 30
0.0
 10
209.550000
 20
108.302778
 30
0.0
  0
SPLINE
  5
205
100
AcDbEntity
  8
0
 62
7
100
AcDbSpline
 70
8
 71
3
 72
8
 73
4
 74
0
 40
0
 40
0
 40
0
 40
0
 40
1
 40
1
 40
1
 40
1
 10
209.550000
 20
108.302778
 30
0.0
 10
208.937112
 20
107.974771
 30
0.0
 10
208.743463
 20
108.086057
 30
0.0
 10
208.121250
 20
109.140625
 30
0.0
  0
SPLINE
  5
206
100
AcDbEntity
  8
0
 62
7
100
AcDbSpline
 70
8
 71
3
 72
8
 73
4
 74
0
 40
0
 40
0
 40
0
 40
0
 40
1
 40
1
 40
1
 40
1
 10
208.121250
 20
109.140625
 30
0.0
 10
206.802716
 20
111.375379
 30
0.0
 10
201.446119
 20
114.926985
 30
0.0
 10
196.655972
 20
116.742986
 30
0.0
  0
SPLINE
  5
207
100
AcDbEntity
  8
0
 62
7
100
AcDbSpline
 70
8
 71
3
 72
8
 73
4
 74
0
 40
0
 40
0
 40
0
 40
0
 40
1
 40
1
 40
1
 40
1
 10
196.655972
 20
116.742986
 30
0.0
 10
196.053346
 20
116.971448
 30
0.0
 10
195.408254
 20
117.563993
 30
0.0
 10
195.183125
 20
118.101181
 30
0.0
  0
SPLINE
  5
208
100
AcDbEntity
  8
0
 62
7
100
AcDbSpline
 70
8
 71
3
 72
8
 73
4
 74
0
 40
0
 40
0
 40
0
 40
0
 40
1
 40
1
 40
1
 40
1
 10
195.183125
 20
118.101181
 30
0.0
 10
193.501752
 20
122.113192
 30
0.0
 10
186.108986
 20
133.282955
 30
0.0
 10
185.102500
 20
133.332361
 30
0.0
  0
SPLINE
  5
209
100
AcDbEntity
  8
0
 62
7
100
AcDbSpline
 70
8
 71
3
 72
8
 73
4
 74
0
 40
0
 40
0
 40
0
 40
0
 40
1
 40
1
 40
1
 40
1
 10
185.102500
 20
133.332361
 30
0.0
 10
184.947425
 20
133.339975
 30
0.0
 10
183.901151
 20
134.262814
 30
0.0
 10
182.774167
 20
135.378472
 30
0.0
  0
SPLINE
  5
20a
100
AcDbEntity
  8
0
 62
7
100
AcDbSpline
 70
8
 71
3
 72
8
 73
4
 74
0
 40
0
 40
0
 40
0
 40
0
 40
1
 40
1
 40
1
 40
1
 10
182.774167
 20
135.378472
 30
0.0
 10
181.647177
 20
136.494133
 30
0.0
 10
180.424952
 20
137.599155
 30
0.0
 10
180.057778
 20
137.830278
 30
0.0
  0
SPLINE
  5
20b
100
AcDbEntity
  8
0
 62
7
100
AcDbSpline
 70
8
 71
3
 72
8
 73
4
 74
0
 40
0
 40
0
 40
0
 40
0
 40
1
 40
1
 40
1
 40
1
 10
180.057778
 20
137.830278
 30
0.0
 10
178.844710
 20
138.593861
 30
0.0
 10
183.053296
 20
138.368684
 30
0.0
 10
184.679167
 20
137.583333
 30
0.0
  0
SPLINE
  5
20c
100
AcDbEntity
  8
0
 62
7
100
AcDbSpline
 70
8
 71
3
 72
8
 73
4
 74
0
 40
0
 40
0
 40
0
 40
0
 40
1
 40
1
 40
1
 40
1
 10
184.679167
 20
137.583333
 30
0.0
 10
185.455278
 20
137.208443
 30
0.0
 10
186.278929
 20
136.893173
 30
0.0
 10
186.513611
 20
136.886597
 30
0.0
  0
SPLINE
  5
20d
100
AcDbEntity
  8
0
 62
7
100
AcDbSpline
 70
8
 71
3
 72
8
 73
4
 74
0
 40
0
 40
0
 40
0
 40
0
 40
1
 40
1
 40
1
 40
1
 10
186.513611
 20
136.886597
 30
0.0
 10
186.748293
 20
136.880016
 30
0.0
 10
187.303918
 20
136.488444
 30
0.0
 10
187.748333
 20
136.013472
 30
0.0
  0
SPLINE
  5
20e
100
AcDbEntity
  8
0
 62
7
100
AcDbSpline
 70
8
 71
3
 72
8
 73
4
 74
0
 40
0
 40
0
 40
0
 40
0
 40
1
 40
1
 40
1
 40
1
 10
187.748333
 20
136.013472
 30
0.0
 10
188.192749
 20
135.538498
 30
0.0
 10
189.292199
 20
134.961822
 30
0.0
 10
190.182500
 20
134.725833
 30
0.0
  0
LWPOLYLINE
  5
20f
100
AcDbEntity
  8
0
 62
7
100
AcDbPolyline
 90
3
 70
0
 10
215.529583
 20
92.277847
 30
0.0
 10
214.744653
 20
93.547847
 30
0.0
 10
215.511944
 20
94.482708
 30
0.0
  0
SPLINE
  5
210
100
AcDbEntity
  8
0
 62
7
100
AcDbSpline
 70
8
 71
3
 72
8
 73
4
 74
0
 40
0
 40
0
 40
0
 40
0
 40
1
 40
1
 40
1
 40
1
 10
193.551528
 20
136.022292
 30
0.0
 10
194.515726
 20
136.975785
 30
0.0
 10
196.514810
 20
138.521988
 30
0.0
 10
197.996528
 20
139.453056
 30
0.0
  0
LWPOLYLINE
  5
211
100
AcDbEntity
  8
0
 62
7
100
AcDbPolyline
 90
3
 70
0
 10
190.182500
 20
134.725833
 30
0.0
 10
191.796458
 20
134.293681
 30
0.0
 10
193.551528
 20
136.022292
 30
0.0
  0
SPLINE
  5
212
100
AcDbEntity
  8
0
 62
7
100
AcDbSpline
 70
8
 71
3
 72
8
 73
4
 74
0
 40
0
 40
0
 40
0
 40
0
 40
1
 40
1
 40
1
 40
1
 10
202.106389
 20
140.423194
 30
0.0
 10
202.885534
 20
140.025701
 30
0.0
 10
203.742694
 20
139.700000
 30
0.0
 10
204.011389
 20
139.700000
 30
0.0
  0
SPLINE
  5
213
100
AcDbEntity
  8
0
 62
7
100
AcDbSpline
 70
8
 71
3
 72
8
 73
4
 74
0
 40
0
 40
0
 40
0
 40
0
 40
1
 40
1
 40
1
 40
1
 10
204.011389
 20
139.700000
 30
0.0
 10
204.280090
 20
139.700000
 30
0.0
 10
204.789092
 20
139.382500
 30
0.0
 10
205.140278
 20
138.994444
 30
0.0
  0
SPLINE
  5
214
100
AcDbEntity
  8
0
 62
7
100
AcDbSpline
 70
8
 71
3
 72
8
 73
4
 74
0
 40
0
 40
0
 40
0
 40
0
 40
1
 40
1
 40
1
 40
1
 10
205.140278
 20
138.994444
 30
0.0
 10
205.491464
 20
138.606389
 30
0.0
 10
205.893992
 20
138.288889
 30
0.0
 10
206.031042
 20
138.288889
 30
0.0
  0
SPLINE
  5
215
100
AcDbEntity
  8
0
 62
7
100
AcDbSpline
 70
8
 71
3
 72
8
 73
4
 74
0
 40
0
 40
0
 40
0
 40
0
 40
1
 40
1
 40
1
 40
1
 10
206.031042
 20
138.288889
 30
0.0
 10
206.301343
 20
138.288889
 30
0.0
 10
206.273451
 20
138.558894
 30
0.0
 10
205.660625
 20
142.522222
 30
0.0
  0
SPLINE
  5
216
100
AcDbEntity
  8
0
 62
7
100
AcDbSpline
 70
8
 71
3
 72
8
 73
4
 74
0
 40
0
 40
0
 40
0
 40
0
 40
1
 40
1
 40
1
 40
1
 10
205.660625
 20
142.522222
 30
0.0
 10
204.940981
 20
147.176343
 30
0.0
 10
205.816601
 20
146.753165
 30
0.0
 10
197.044028
 20
146.685000
 30
0.0
  0
SPLINE
  5
217
100
AcDbEntity
  8
0
 62
7
100
AcDbSpline
 70
8
 71
3
 72
8
 73
4
 74
0
 40
0
 40
0
 40
0
 40
0
 40
1
 40
1
 40
1
 40
1
 10
197.044028
 20
146.685000
 30
0.0
 10
192.869741
 20
146.652561
 30
0.0
 10
189.350057
 20
146.723687
 30
0.0
 10
189.230000
 20
146.843750
 30
0.0
  0
SPLINE
  5
218
100
AcDbEntity
  8
0
 62
7
100
AcDbSpline
 70
8
 71
3
 72
8
 73
4
 74
0
 40
0
 40
0
 40
0
 40
0
 40
1
 40
1
 40
1
 40
1
 10
189.230000
 20
146.843750
 30
0.0
 10
188.896255
 20
147.177495
 30
0.0
 10
190.054809
 20
151.361309
 30
0.0
 10
190.667569
 20
152.038403
 30
0.0
  0
SPLINE
  5
219
100
AcDbEntity
  8
0
 62
7
100
AcDbSpline
 70
8
 71
3
 72
8
 73
4
 74
0
 40
0
 40
0
 40
0
 40
0
 40
1
 40
1
 40
1
 40
1
 10
190.667569
 20
152.038403
 30
0.0
 10
190.964967
 20
152.367022
 30
0.0
 10
191.205556
 20
152.835274
 30
0.0
 10
191.205556
 20
153.087917
 30
0.0
  0
SPLINE
  5
21a
100
AcDbEntity
  8
0
 62
7
100
AcDbSpline
 70
8
 71
3
 72
8
 73
4
 74
0
 40
0
 40
0
 40
0
 40
0
 40
1
 40
1
 40
1
 40
1
 10
191.205556
 20
153.087917
 30
0.0
 10
191.205556
 20
153.413869
 30
0.0
 10
191.557278
 20
153.491494
 30
0.0
 10
192.413819
 20
153.352500
 30
0.0
  0
LWPOLYLINE
  5
21b
100
AcDbEntity
  8
0
 62
7
100
AcDbPolyline
 90
3
 70
0
 10
197.996528
 20
139.453056
 30
0.0
 10
200.695278
 20
141.146389
 30
0.0
 10
202.106389
 20
140.423194
 30
0.0
  0
SPLINE
  5
21c
100
AcDbEntity
  8
0
 62
7
100
AcDbSpline
 70
8
 71
3
 72
8
 73
4
 74
0
 40
0
 40
0
 40
0
 40
0
 40
1
 40
1
 40
1
 40
1
 10
192.916528
 20
154.349097
 30
0.0
 10
192.187020
 20
155.585499
 30
0.0
 10
190.807854
 20
156.330989
 30
0.0
 10
190.570556
 20
155.619097
 30
0.0
  0
SPLINE
  5
21d
100
AcDbEntity
  8
0
 62
7
100
AcDbSpline
 70
8
 71
3
 72
8
 73
4
 74
0
 40
0
 40
0
 40
0
 40
0
 40
1
 40
1
 40
1
 40
1
 10
190.570556
 20
155.619097
 30
0.0
 10
190.497299
 20
155.399319
 30
0.0
 10
190.213062
 20
155.222222
 30
0.0
 10
189.935556
 20
155.222222
 30
0.0
  0
SPLINE
  5
21e
100
AcDbEntity
  8
0
 62
7
100
AcDbSpline
 70
8
 71
3
 72
8
 73
4
 74
0
 40
0
 40
0
 40
0
 40
0
 40
1
 40
1
 40
1
 40
1
 10
189.935556
 20
155.222222
 30
0.0
 10
189.658052
 20
155.222222
 30
0.0
 10
189.152403
 20
155.084780
 30
0.0
 10
188.815486
 20
154.913542
 30
0.0
  0
SPLINE
  5
21f
100
AcDbEntity
  8
0
 62
7
100
AcDbSpline
 70
8
 71
3
 72
8
 73
4
 74
0
 40
0
 40
0
 40
0
 40
0
 40
1
 40
1
 40
1
 40
1
 10
188.815486
 20
154.913542
 30
0.0
 10
186.914257
 20
153.947235
 30
0.0
 10
184.110068
 20
153.105668
 30
0.0
 10
182.730069
 20
153.087917
 30
0.0
  0
SPLINE
  5
220
100
AcDbEntity
  8
0
 62
7
100
AcDbSpline
 70
8
 71
3
 72
8
 73
4
 74
0
 40
0
 40
0
 40
0
 40
0
 40
1
 40
1
 40
1
 40
1
 10
182.730069
 20
153.087917
 30
0.0
 10
181.860692
 20
153.076732
 30
0.0
 10
180.516389
 20
152.943216
 30
0.0
 10
179.740278
 20
152.796875
 30
0.0
  0
SPLINE
  5
221
100
AcDbEntity
  8
0
 62
7
100
AcDbSpline
 70
8
 71
3
 72
8
 73
4
 74
0
 40
0
 40
0
 40
0
 40
0
 40
1
 40
1
 40
1
 40
1
 10
179.740278
 20
152.796875
 30
0.0
 10
178.930179
 20
152.644131
 30
0.0
 10
177.979141
 20
152.681534
 30
0.0
 10
177.508958
 20
152.885069
 30
0.0
  0
SPLINE
  5
222
100
AcDbEntity
  8
0
 62
7
100
AcDbSpline
 70
8
 71
3
 72
8
 73
4
 74
0
 40
0
 40
0
 40
0
 40
0
 40
1
 40
1
 40
1
 40
1
 10
177.508958
 20
152.885069
 30
0.0
 10
176.982436
 20
153.112989
 30
0.0
 10
176.604473
 20
153.122463
 30
0.0
 10
176.450625
 20
152.902708
 30
0.0
  0
SPLINE
  5
223
100
AcDbEntity
  8
0
 62
7
100
AcDbSpline
 70
8
 71
3
 72
8
 73
4
 74
0
 40
0
 40
0
 40
0
 40
0
 40
1
 40
1
 40
1
 40
1
 10
176.450625
 20
152.902708
 30
0.0
 10
175.777531
 20
151.941287
 30
0.0
 10
173.026324
 20
150.181366
 30
0.0
 10
171.220694
 20
149.560139
 30
0.0
  0
SPLINE
  5
224
100
AcDbEntity
  8
0
 62
7
100
AcDbSpline
 70
8
 71
3
 72
8
 73
4
 74
0
 40
0
 40
0
 40
0
 40
0
 40
1
 40
1
 40
1
 40
1
 10
171.220694
 20
149.560139
 30
0.0
 10
168.978509
 20
148.788713
 30
0.0
 10
168.275000
 20
148.864616
 30
0.0
 10
168.275000
 20
149.868819
 30
0.0
  0
SPLINE
  5
225
100
AcDbEntity
  8
0
 62
7
100
AcDbSpline
 70
8
 71
3
 72
8
 73
4
 74
0
 40
0
 40
0
 40
0
 40
0
 40
1
 40
1
 40
1
 40
1
 10
168.275000
 20
149.868819
 30
0.0
 10
168.275000
 20
150.232892
 30
0.0
 10
167.957500
 20
150.814092
 30
0.0
 10
167.569444
 20
151.165278
 30
0.0
  0
SPLINE
  5
226
100
AcDbEntity
  8
0
 62
7
100
AcDbSpline
 70
8
 71
3
 72
8
 73
4
 74
0
 40
0
 40
0
 40
0
 40
0
 40
1
 40
1
 40
1
 40
1
 10
167.569444
 20
151.165278
 30
0.0
 10
167.181389
 20
151.516464
 30
0.0
 10
166.863889
 20
152.233977
 30
0.0
 10
166.863889
 20
152.761597
 30
0.0
  0
SPLINE
  5
227
100
AcDbEntity
  8
0
 62
7
100
AcDbSpline
 70
8
 71
3
 72
8
 73
4
 74
0
 40
0
 40
0
 40
0
 40
0
 40
1
 40
1
 40
1
 40
1
 10
166.863889
 20
152.761597
 30
0.0
 10
166.863889
 20
153.289214
 30
0.0
 10
166.651545
 20
154.337933
 30
0.0
 10
166.387639
 20
155.089931
 30
0.0
  0
SPLINE
  5
228
100
AcDbEntity
  8
0
 62
7
100
AcDbSpline
 70
8
 71
3
 72
8
 73
4
 74
0
 40
0
 40
0
 40
0
 40
0
 40
1
 40
1
 40
1
 40
1
 10
166.387639
 20
155.089931
 30
0.0
 10
166.123739
 20
155.841929
 30
0.0
 10
165.786833
 20
157.380895
 30
0.0
 10
165.646806
 20
158.511875
 30
0.0
  0
SPLINE
  5
229
100
AcDbEntity
  8
0
 62
7
100
AcDbSpline
 70
8
 71
3
 72
8
 73
4
 74
0
 40
0
 40
0
 40
0
 40
0
 40
1
 40
1
 40
1
 40
1
 10
165.646806
 20
158.511875
 30
0.0
 10
165.394764
 20
160.547583
 30
0.0
 10
165.404394
 20
160.569326
 30
0.0
 10
166.167153
 20
160.161111
 30
0.0
  0
SPLINE
  5
22a
100
AcDbEntity
  8
0
 62
7
100
AcDbSpline
 70
8
 71
3
 72
8
 73
4
 74
0
 40
0
 40
0
 40
0
 40
0
 40
1
 40
1
 40
1
 40
1
 10
166.167153
 20
160.161111
 30
0.0
 10
166.590921
 20
159.934303
 30
0.0
 10
167.236501
 20
159.826695
 30
0.0
 10
167.604722
 20
159.922986
 30
0.0
  0
SPLINE
  5
22b
100
AcDbEntity
  8
0
 62
7
100
AcDbSpline
 70
8
 71
3
 72
8
 73
4
 74
0
 40
0
 40
0
 40
0
 40
0
 40
1
 40
1
 40
1
 40
1
 10
167.604722
 20
159.922986
 30
0.0
 10
167.972940
 20
160.019280
 30
0.0
 10
168.275000
 20
159.948917
 30
0.0
 10
168.275000
 20
159.773056
 30
0.0
  0
SPLINE
  5
22c
100
AcDbEntity
  8
0
 62
7
100
AcDbSpline
 70
8
 71
3
 72
8
 73
4
 74
0
 40
0
 40
0
 40
0
 40
0
 40
1
 40
1
 40
1
 40
1
 10
168.275000
 20
159.773056
 30
0.0
 10
168.275000
 20
159.346931
 30
0.0
 10
169.811184
 20
159.368964
 30
0.0
 10
170.241736
 20
159.799514
 30
0.0
  0
SPLINE
  5
22d
100
AcDbEntity
  8
0
 62
7
100
AcDbSpline
 70
8
 71
3
 72
8
 73
4
 74
0
 40
0
 40
0
 40
0
 40
0
 40
1
 40
1
 40
1
 40
1
 10
170.241736
 20
159.799514
 30
0.0
 10
170.595423
 20
160.153203
 30
0.0
 10
171.785689
 20
159.808268
 30
0.0
 10
174.448611
 20
158.591250
 30
0.0
  0
SPLINE
  5
22e
100
AcDbEntity
  8
0
 62
7
100
AcDbSpline
 70
8
 71
3
 72
8
 73
4
 74
0
 40
0
 40
0
 40
0
 40
0
 40
1
 40
1
 40
1
 40
1
 10
174.448611
 20
158.591250
 30
0.0
 10
175.224722
 20
158.236547
 30
0.0
 10
176.494722
 20
157.672986
 30
0.0
 10
177.270833
 20
157.338889
 30
0.0
  0
SPLINE
  5
22f
100
AcDbEntity
  8
0
 62
7
100
AcDbSpline
 70
8
 71
3
 72
8
 73
4
 74
0
 40
0
 40
0
 40
0
 40
0
 40
1
 40
1
 40
1
 40
1
 10
177.270833
 20
157.338889
 30
0.0
 10
178.046944
 20
157.004794
 30
0.0
 10
179.410346
 20
156.395474
 30
0.0
 10
180.304722
 20
155.980694
 30
0.0
  0
SPLINE
  5
230
100
AcDbEntity
  8
0
 62
7
100
AcDbSpline
 70
8
 71
3
 72
8
 73
4
 74
0
 40
0
 40
0
 40
0
 40
0
 40
1
 40
1
 40
1
 40
1
 10
180.304722
 20
155.980694
 30
0.0
 10
181.199099
 20
155.565918
 30
0.0
 10
182.202695
 20
155.222222
 30
0.0
 10
182.527222
 20
155.222222
 30
0.0
  0
SPLINE
  5
231
100
AcDbEntity
  8
0
 62
7
100
AcDbSpline
 70
8
 71
3
 72
8
 73
4
 74
0
 40
0
 40
0
 40
0
 40
0
 40
1
 40
1
 40
1
 40
1
 10
182.527222
 20
155.222222
 30
0.0
 10
182.851750
 20
155.222222
 30
0.0
 10
183.677628
 20
154.982553
 30
0.0
 10
184.370486
 20
154.693056
 30
0.0
  0
SPLINE
  5
232
100
AcDbEntity
  8
0
 62
7
100
AcDbSpline
 70
8
 71
3
 72
8
 73
4
 74
0
 40
0
 40
0
 40
0
 40
0
 40
1
 40
1
 40
1
 40
1
 10
184.370486
 20
154.693056
 30
0.0
 10
185.063344
 20
154.403580
 30
0.0
 10
185.842396
 20
154.284502
 30
0.0
 10
186.099097
 20
154.428472
 30
0.0
  0
SPLINE
  5
233
100
AcDbEntity
  8
0
 62
7
100
AcDbSpline
 70
8
 71
3
 72
8
 73
4
 74
0
 40
0
 40
0
 40
0
 40
0
 40
1
 40
1
 40
1
 40
1
 10
186.099097
 20
154.428472
 30
0.0
 10
186.628950
 20
154.725647
 30
0.0
 10
188.383333
 20
157.210927
 30
0.0
 10
188.383333
 20
157.665208
 30
0.0
  0
SPLINE
  5
234
100
AcDbEntity
  8
0
 62
7
100
AcDbSpline
 70
8
 71
3
 72
8
 73
4
 74
0
 40
0
 40
0
 40
0
 40
0
 40
1
 40
1
 40
1
 40
1
 10
188.383333
 20
157.665208
 30
0.0
 10
188.383333
 20
157.829431
 30
0.0
 10
188.696275
 20
158.662664
 30
0.0
 10
189.080069
 20
159.508472
 30
0.0
  0
SPLINE
  5
235
100
AcDbEntity
  8
0
 62
7
100
AcDbSpline
 70
8
 71
3
 72
8
 73
4
 74
0
 40
0
 40
0
 40
0
 40
0
 40
1
 40
1
 40
1
 40
1
 10
189.080069
 20
159.508472
 30
0.0
 10
189.831952
 20
161.165472
 30
0.0
 10
189.979879
 20
163.214090
 30
0.0
 10
189.476944
 20
164.967708
 30
0.0
  0
SPLINE
  5
236
100
AcDbEntity
  8
0
 62
7
100
AcDbSpline
 70
8
 71
3
 72
8
 73
4
 74
0
 40
0
 40
0
 40
0
 40
0
 40
1
 40
1
 40
1
 40
1
 10
189.476944
 20
164.967708
 30
0.0
 10
189.188268
 20
165.974276
 30
0.0
 10
189.253735
 20
166.107796
 30
0.0
 10
190.270694
 20
166.643403
 30
0.0
  0
SPLINE
  5
237
100
AcDbEntity
  8
0
 62
7
100
AcDbSpline
 70
8
 71
3
 72
8
 73
4
 74
0
 40
0
 40
0
 40
0
 40
0
 40
1
 40
1
 40
1
 40
1
 10
190.270694
 20
166.643403
 30
0.0
 10
190.880306
 20
166.964470
 30
0.0
 10
192.016944
 20
167.613330
 30
0.0
 10
192.793056
 20
168.080972
 30
0.0
  0
SPLINE
  5
238
100
AcDbEntity
  8
0
 62
7
100
AcDbSpline
 70
8
 71
3
 72
8
 73
4
 74
0
 40
0
 40
0
 40
0
 40
0
 40
1
 40
1
 40
1
 40
1
 10
192.793056
 20
168.080972
 30
0.0
 10
193.569167
 20
168.548614
 30
0.0
 10
194.718189
 20
169.174036
 30
0.0
 10
195.341875
 20
169.465625
 30
0.0
  0
SPLINE
  5
239
100
AcDbEntity
  8
0
 62
7
100
AcDbSpline
 70
8
 71
3
 72
8
 73
4
 74
0
 40
0
 40
0
 40
0
 40
0
 40
1
 40
1
 40
1
 40
1
 10
195.341875
 20
169.465625
 30
0.0
 10
196.080233
 20
169.810828
 30
0.0
 10
196.552366
 20
170.335750
 30
0.0
 10
196.708889
 20
170.982569
 30
0.0
  0
SPLINE
  5
23a
100
AcDbEntity
  8
0
 62
7
100
AcDbSpline
 70
8
 71
3
 72
8
 73
4
 74
0
 40
0
 40
0
 40
0
 40
0
 40
1
 40
1
 40
1
 40
1
 10
196.708889
 20
170.982569
 30
0.0
 10
196.841102
 20
171.528932
 30
0.0
 10
197.248709
 20
172.399009
 30
0.0
 10
197.608472
 20
172.914028
 30
0.0
  0
SPLINE
  5
23b
100
AcDbEntity
  8
0
 62
7
100
AcDbSpline
 70
8
 71
3
 72
8
 73
4
 74
0
 40
0
 40
0
 40
0
 40
0
 40
1
 40
1
 40
1
 40
1
 10
197.608472
 20
172.914028
 30
0.0
 10
197.968229
 20
173.429049
 30
0.0
 10
198.261111
 20
174.069996
 30
0.0
 10
198.261111
 20
174.333958
 30
0.0
  0
SPLINE
  5
23c
100
AcDbEntity
  8
0
 62
7
100
AcDbSpline
 70
8
 71
3
 72
8
 73
4
 74
0
 40
0
 40
0
 40
0
 40
0
 40
1
 40
1
 40
1
 40
1
 10
198.261111
 20
174.333958
 30
0.0
 10
198.261111
 20
174.597921
 30
0.0
 10
198.555472
 20
175.368706
 30
0.0
 10
198.913750
 20
176.044931
 30
0.0
  0
SPLINE
  5
23d
100
AcDbEntity
  8
0
 62
7
100
AcDbSpline
 70
8
 71
3
 72
8
 73
4
 74
0
 40
0
 40
0
 40
0
 40
0
 40
1
 40
1
 40
1
 40
1
 10
198.913750
 20
176.044931
 30
0.0
 10
199.272031
 20
176.721155
 30
0.0
 10
199.667362
 20
177.667708
 30
0.0
 10
199.795694
 20
178.152778
 30
0.0
  0
SPLINE
  5
23e
100
AcDbEntity
  8
0
 62
7
100
AcDbSpline
 70
8
 71
3
 72
8
 73
4
 74
0
 40
0
 40
0
 40
0
 40
0
 40
1
 40
1
 40
1
 40
1
 10
199.795694
 20
178.152778
 30
0.0
 10
200.205961
 20
179.703530
 30
0.0
 10
202.810748
 20
181.948732
 30
0.0
 10
203.120625
 20
181.019097
 30
0.0
  0
SPLINE
  5
23f
100
AcDbEntity
  8
0
 62
7
100
AcDbSpline
 70
8
 71
3
 72
8
 73
4
 74
0
 40
0
 40
0
 40
0
 40
0
 40
1
 40
1
 40
1
 40
1
 10
203.120625
 20
181.019097
 30
0.0
 10
203.194113
 20
180.798637
 30
0.0
 10
203.412908
 20
180.622222
 30
0.0
 10
203.605694
 20
180.622222
 30
0.0
  0
SPLINE
  5
240
100
AcDbEntity
  8
0
 62
7
100
AcDbSpline
 70
8
 71
3
 72
8
 73
4
 74
0
 40
0
 40
0
 40
0
 40
0
 40
1
 40
1
 40
1
 40
1
 10
203.605694
 20
180.622222
 30
0.0
 10
203.947522
 20
180.622222
 30
0.0
 10
206.022222
 20
178.714304
 30
0.0
 10
206.022222
 20
178.399722
 30
0.0
  0
SPLINE
  5
241
100
AcDbEntity
  8
0
 62
7
100
AcDbSpline
 70
8
 71
3
 72
8
 73
4
 74
0
 40
0
 40
0
 40
0
 40
0
 40
1
 40
1
 40
1
 40
1
 10
206.022222
 20
178.399722
 30
0.0
 10
206.022222
 20
178.312727
 30
0.0
 10
206.817615
 20
177.415187
 30
0.0
 10
207.794931
 20
176.406528
 30
0.0
  0
SPLINE
  5
242
100
AcDbEntity
  8
0
 62
7
100
AcDbSpline
 70
8
 71
3
 72
8
 73
4
 74
0
 40
0
 40
0
 40
0
 40
0
 40
1
 40
1
 40
1
 40
1
 10
207.794931
 20
176.406528
 30
0.0
 10
209.430995
 20
174.717992
 30
0.0
 10
211.218430
 20
171.520008
 30
0.0
 10
213.580486
 20
166.026042
 30
0.0
  0
SPLINE
  5
243
100
AcDbEntity
  8
0
 62
7
100
AcDbSpline
 70
8
 71
3
 72
8
 73
4
 74
0
 40
0
 40
0
 40
0
 40
0
 40
1
 40
1
 40
1
 40
1
 10
213.580486
 20
166.026042
 30
0.0
 10
214.124345
 20
164.761065
 30
0.0
 10
214.601363
 20
162.114171
 30
0.0
 10
215.159167
 20
157.338889
 30
0.0
  0
SPLINE
  5
244
100
AcDbEntity
  8
0
 62
7
100
AcDbSpline
 70
8
 71
3
 72
8
 73
4
 74
0
 40
0
 40
0
 40
0
 40
0
 40
1
 40
1
 40
1
 40
1
 10
215.159167
 20
157.338889
 30
0.0
 10
215.317155
 20
155.986390
 30
0.0
 10
215.457840
 20
155.612349
 30
0.0
 10
215.626597
 20
156.104167
 30
0.0
  0
SPLINE
  5
245
100
AcDbEntity
  8
0
 62
7
100
AcDbSpline
 70
8
 71
3
 72
8
 73
4
 74
0
 40
0
 40
0
 40
0
 40
0
 40
1
 40
1
 40
1
 40
1
 10
215.626597
 20
156.104167
 30
0.0
 10
216.097677
 20
157.477017
 30
0.0
 10
216.603016
 20
161.427806
 30
0.0
 10
216.605556
 20
163.812361
 30
0.0
  0
SPLINE
  5
246
100
AcDbEntity
  8
0
 62
7
100
AcDbSpline
 70
8
 71
3
 72
8
 73
4
 74
0
 40
0
 40
0
 40
0
 40
0
 40
1
 40
1
 40
1
 40
1
 10
216.605556
 20
163.812361
 30
0.0
 10
216.607238
 20
165.338342
 30
0.0
 10
216.822508
 20
166.684393
 30
0.0
 10
217.196458
 20
167.472431
 30
0.0
  0
LWPOLYLINE
  5
247
100
AcDbEntity
  8
0
 62
7
100
AcDbPolyline
 90
3
 70
0
 10
192.413819
 20
153.352500
 30
0.0
 10
193.622083
 20
153.158472
 30
0.0
 10
192.916528
 20
154.349097
 30
0.0
  0
SPLINE
  5
248
100
AcDbEntity
  8
0
 62
7
100
AcDbSpline
 70
8
 71
3
 72
8
 73
4
 74
0
 40
0
 40
0
 40
0
 40
0
 40
1
 40
1
 40
1
 40
1
 10
219.163194
 20
167.172569
 30
0.0
 10
221.469464
 20
164.573949
 30
0.0
 10
221.370322
 20
164.712111
 30
0.0
 10
223.176042
 20
161.316458
 30
0.0
  0
SPLINE
  5
249
100
AcDbEntity
  8
0
 62
7
100
AcDbSpline
 70
8
 71
3
 72
8
 73
4
 74
0
 40
0
 40
0
 40
0
 40
0
 40
1
 40
1
 40
1
 40
1
 10
223.176042
 20
161.316458
 30
0.0
 10
223.784448
 20
160.172355
 30
0.0
 10
225.252884
 20
157.532389
 30
0.0
 10
226.439236
 20
155.442708
 30
0.0
  0
SPLINE
  5
24a
100
AcDbEntity
  8
0
 62
7
100
AcDbSpline
 70
8
 71
3
 72
8
 73
4
 74
0
 40
0
 40
0
 40
0
 40
0
 40
1
 40
1
 40
1
 40
1
 10
226.439236
 20
155.442708
 30
0.0
 10
227.625591
 20
153.353028
 30
0.0
 10
228.600000
 20
151.487132
 30
0.0
 10
228.600000
 20
151.297569
 30
0.0
  0
SPLINE
  5
24b
100
AcDbEntity
  8
0
 62
7
100
AcDbSpline
 70
8
 71
3
 72
8
 73
4
 74
0
 40
0
 40
0
 40
0
 40
0
 40
1
 40
1
 40
1
 40
1
 10
228.600000
 20
151.297569
 30
0.0
 10
228.600000
 20
151.108012
 30
0.0
 10
228.899483
 20
150.365869
 30
0.0
 10
229.270278
 20
149.648333
 30
0.0
  0
SPLINE
  5
24c
100
AcDbEntity
  8
0
 62
7
100
AcDbSpline
 70
8
 71
3
 72
8
 73
4
 74
0
 40
0
 40
0
 40
0
 40
0
 40
1
 40
1
 40
1
 40
1
 10
229.270278
 20
149.648333
 30
0.0
 10
229.641073
 20
148.930795
 30
0.0
 10
230.299534
 20
147.469931
 30
0.0
 10
230.725486
 20
146.402778
 30
0.0
  0
SPLINE
  5
24d
100
AcDbEntity
  8
0
 62
7
100
AcDbSpline
 70
8
 71
3
 72
8
 73
4
 74
0
 40
0
 40
0
 40
0
 40
0
 40
1
 40
1
 40
1
 40
1
 10
230.725486
 20
146.402778
 30
0.0
 10
231.151438
 20
145.335625
 30
0.0
 10
231.795636
 20
143.784185
 30
0.0
 10
232.163056
 20
142.954375
 30
0.0
  0
SPLINE
  5
24e
100
AcDbEntity
  8
0
 62
7
100
AcDbSpline
 70
8
 71
3
 72
8
 73
4
 74
0
 40
0
 40
0
 40
0
 40
0
 40
1
 40
1
 40
1
 40
1
 10
232.163056
 20
142.954375
 30
0.0
 10
232.530475
 20
142.124568
 30
0.0
 10
232.833333
 20
141.237047
 30
0.0
 10
232.833333
 20
140.987639
 30
0.0
  0
SPLINE
  5
24f
100
AcDbEntity
  8
0
 62
7
100
AcDbSpline
 70
8
 71
3
 72
8
 73
4
 74
0
 40
0
 40
0
 40
0
 40
0
 40
1
 40
1
 40
1
 40
1
 10
232.833333
 20
140.987639
 30
0.0
 10
232.833333
 20
140.738233
 30
0.0
 10
233.150833
 20
139.876998
 30
0.0
 10
233.538889
 20
139.073819
 30
0.0
  0
SPLINE
  5
250
100
AcDbEntity
  8
0
 62
7
100
AcDbSpline
 70
8
 71
3
 72
8
 73
4
 74
0
 40
0
 40
0
 40
0
 40
0
 40
1
 40
1
 40
1
 40
1
 10
233.538889
 20
139.073819
 30
0.0
 10
233.926944
 20
138.270635
 30
0.0
 10
234.244444
 20
137.455221
 30
0.0
 10
234.244444
 20
137.257014
 30
0.0
  0
SPLINE
  5
251
100
AcDbEntity
  8
0
 62
7
100
AcDbSpline
 70
8
 71
3
 72
8
 73
4
 74
0
 40
0
 40
0
 40
0
 40
0
 40
1
 40
1
 40
1
 40
1
 10
234.244444
 20
137.257014
 30
0.0
 10
234.244444
 20
137.058801
 30
0.0
 10
234.541238
 20
136.217098
 30
0.0
 10
234.905903
 20
135.387292
 30
0.0
  0
SPLINE
  5
252
100
AcDbEntity
  8
0
 62
7
100
AcDbSpline
 70
8
 71
3
 72
8
 73
4
 74
0
 40
0
 40
0
 40
0
 40
0
 40
1
 40
1
 40
1
 40
1
 10
234.905903
 20
135.387292
 30
0.0
 10
235.540417
 20
133.943412
 30
0.0
 10
236.194278
 20
131.877500
 30
0.0
 10
237.719306
 20
126.470833
 30
0.0
  0
SPLINE
  5
253
100
AcDbEntity
  8
0
 62
7
100
AcDbSpline
 70
8
 71
3
 72
8
 73
4
 74
0
 40
0
 40
0
 40
0
 40
0
 40
1
 40
1
 40
1
 40
1
 10
237.719306
 20
126.470833
 30
0.0
 10
238.102402
 20
125.112639
 30
0.0
 10
238.696726
 20
123.048889
 30
0.0
 10
239.042222
 20
121.884722
 30
0.0
  0
SPLINE
  5
254
100
AcDbEntity
  8
0
 62
7
100
AcDbSpline
 70
8
 71
3
 72
8
 73
4
 74
0
 40
0
 40
0
 40
0
 40
0
 40
1
 40
1
 40
1
 40
1
 10
239.042222
 20
121.884722
 30
0.0
 10
239.387719
 20
120.720556
 30
0.0
 10
239.774959
 20
118.815556
 30
0.0
 10
239.906528
 20
117.651389
 30
0.0
  0
SPLINE
  5
255
100
AcDbEntity
  8
0
 62
7
100
AcDbSpline
 70
8
 71
3
 72
8
 73
4
 74
0
 40
0
 40
0
 40
0
 40
0
 40
1
 40
1
 40
1
 40
1
 10
239.906528
 20
117.651389
 30
0.0
 10
240.038097
 20
116.487222
 30
0.0
 10
240.411282
 20
113.629722
 30
0.0
 10
240.726736
 20
111.301389
 30
0.0
  0
SPLINE
  5
256
100
AcDbEntity
  8
0
 62
7
100
AcDbSpline
 70
8
 71
3
 72
8
 73
4
 74
0
 40
0
 40
0
 40
0
 40
0
 40
1
 40
1
 40
1
 40
1
 10
240.726736
 20
111.301389
 30
0.0
 10
241.042193
 20
108.973056
 30
0.0
 10
241.420757
 20
105.163056
 30
0.0
 10
241.573403
 20
102.834722
 30
0.0
  0
LWPOLYLINE
  5
257
100
AcDbEntity
  8
0
 62
7
100
AcDbPolyline
 90
3
 70
0
 10
217.196458
 20
167.472431
 30
0.0
 10
217.787361
 20
168.724792
 30
0.0
 10
219.163194
 20
167.172569
 30
0.0
  0
SPLINE
  5
258
100
AcDbEntity
  8
0
 62
7
100
AcDbSpline
 70
8
 71
3
 72
8
 73
4
 74
0
 40
0
 40
0
 40
0
 40
0
 40
1
 40
1
 40
1
 40
1
 10
242.278958
 20
100.365278
 30
0.0
 10
242.512480
 20
101.335417
 30
0.0
 10
242.893232
 20
105.004735
 30
0.0
 10
243.125625
 20
108.523264
 30
0.0
  0
SPLINE
  5
259
100
AcDbEntity
  8
0
 62
7
100
AcDbSpline
 70
8
 71
3
 72
8
 73
4
 74
0
 40
0
 40
0
 40
0
 40
0
 40
1
 40
1
 40
1
 40
1
 10
243.125625
 20
108.523264
 30
0.0
 10
243.564907
 20
115.174155
 30
0.0
 10
243.282885
 20
121.592083
 30
0.0
 10
242.305417
 20
127.255764
 30
0.0
  0
SPLINE
  5
25a
100
AcDbEntity
  8
0
 62
7
100
AcDbSpline
 70
8
 71
3
 72
8
 73
4
 74
0
 40
0
 40
0
 40
0
 40
0
 40
1
 40
1
 40
1
 40
1
 10
242.305417
 20
127.255764
 30
0.0
 10
242.063682
 20
128.656357
 30
0.0
 10
241.961845
 20
129.893170
 30
0.0
 10
242.076111
 20
130.007431
 30
0.0
  0
SPLINE
  5
25b
100
AcDbEntity
  8
0
 62
7
100
AcDbSpline
 70
8
 71
3
 72
8
 73
4
 74
0
 40
0
 40
0
 40
0
 40
0
 40
1
 40
1
 40
1
 40
1
 10
242.076111
 20
130.007431
 30
0.0
 10
242.190374
 20
130.121697
 30
0.0
 10
243.012956
 20
129.449717
 30
0.0
 10
243.910556
 20
128.516944
 30
0.0
  0
SPLINE
  5
25c
100
AcDbEntity
  8
0
 62
7
100
AcDbSpline
 70
8
 71
3
 72
8
 73
4
 74
0
 40
0
 40
0
 40
0
 40
0
 40
1
 40
1
 40
1
 40
1
 10
243.910556
 20
128.516944
 30
0.0
 10
245.462007
 20
126.904694
 30
0.0
 10
248.355556
 20
121.655250
 30
0.0
 10
248.355556
 20
120.447153
 30
0.0
  0
SPLINE
  5
25d
100
AcDbEntity
  8
0
 62
7
100
AcDbSpline
 70
8
 71
3
 72
8
 73
4
 74
0
 40
0
 40
0
 40
0
 40
0
 40
1
 40
1
 40
1
 40
1
 10
248.355556
 20
120.447153
 30
0.0
 10
248.355556
 20
120.147326
 30
0.0
 10
248.658569
 20
119.151386
 30
0.0
 10
249.025833
 20
118.242292
 30
0.0
  0
SPLINE
  5
25e
100
AcDbEntity
  8
0
 62
7
100
AcDbSpline
 70
8
 71
3
 72
8
 73
4
 74
0
 40
0
 40
0
 40
0
 40
0
 40
1
 40
1
 40
1
 40
1
 10
249.025833
 20
118.242292
 30
0.0
 10
249.848539
 20
116.205827
 30
0.0
 10
251.179189
 20
111.522355
 30
0.0
 10
251.177778
 20
110.675208
 30
0.0
  0
SPLINE
  5
25f
100
AcDbEntity
  8
0
 62
7
100
AcDbSpline
 70
8
 71
3
 72
8
 73
4
 74
0
 40
0
 40
0
 40
0
 40
0
 40
1
 40
1
 40
1
 40
1
 10
251.177778
 20
110.675208
 30
0.0
 10
251.177165
 20
110.331569
 30
0.0
 10
251.482228
 20
108.902819
 30
0.0
 10
251.856875
 20
107.500208
 30
0.0
  0
SPLINE
  5
260
100
AcDbEntity
  8
0
 62
7
100
AcDbSpline
 70
8
 71
3
 72
8
 73
4
 74
0
 40
0
 40
0
 40
0
 40
0
 40
1
 40
1
 40
1
 40
1
 10
251.856875
 20
107.500208
 30
0.0
 10
252.843295
 20
103.807229
 30
0.0
 10
253.675171
 20
99.107363
 30
0.0
 10
254.026458
 20
95.258819
 30
0.0
  0
SPLINE
  5
261
100
AcDbEntity
  8
0
 62
7
100
AcDbSpline
 70
8
 71
3
 72
8
 73
4
 74
0
 40
0
 40
0
 40
0
 40
0
 40
1
 40
1
 40
1
 40
1
 10
254.026458
 20
95.258819
 30
0.0
 10
254.195055
 20
93.411768
 30
0.0
 10
254.512753
 20
90.628611
 30
0.0
 10
254.723194
 20
89.076389
 30
0.0
  0
SPLINE
  5
262
100
AcDbEntity
  8
0
 62
7
100
AcDbSpline
 70
8
 71
3
 72
8
 73
4
 74
0
 40
0
 40
0
 40
0
 40
0
 40
1
 40
1
 40
1
 40
1
 10
254.723194
 20
89.076389
 30
0.0
 10
254.933633
 20
87.524167
 30
0.0
 10
255.185810
 20
81.094792
 30
0.0
 10
255.287639
 20
74.788889
 30
0.0
  0
SPLINE
  5
263
100
AcDbEntity
  8
0
 62
7
100
AcDbSpline
 70
8
 71
3
 72
8
 73
4
 74
0
 40
0
 40
0
 40
0
 40
0
 40
1
 40
1
 40
1
 40
1
 10
255.287639
 20
74.788889
 30
0.0
 10
255.456272
 20
64.346274
 30
0.0
 10
255.402811
 20
62.900619
 30
0.0
 10
254.732014
 20
58.596389
 30
0.0
  0
SPLINE
  5
264
100
AcDbEntity
  8
0
 62
7
100
AcDbSpline
 70
8
 71
3
 72
8
 73
4
 74
0
 40
0
 40
0
 40
0
 40
0
 40
1
 40
1
 40
1
 40
1
 10
254.732014
 20
58.596389
 30
0.0
 10
253.958336
 20
53.632004
 30
0.0
 10
253.810643
 20
51.616105
 30
0.0
 10
254.335139
 20
53.269444
 30
0.0
  0
SPLINE
  5
265
100
AcDbEntity
  8
0
 62
7
100
AcDbSpline
 70
8
 71
3
 72
8
 73
4
 74
0
 40
0
 40
0
 40
0
 40
0
 40
1
 40
1
 40
1
 40
1
 10
254.335139
 20
53.269444
 30
0.0
 10
254.489021
 20
53.754514
 30
0.0
 10
254.960526
 20
55.421389
 30
0.0
 10
255.384653
 20
56.973611
 30
0.0
  0
SPLINE
  5
266
100
AcDbEntity
  8
0
 62
7
100
AcDbSpline
 70
8
 71
3
 72
8
 73
4
 74
0
 40
0
 40
0
 40
0
 40
0
 40
1
 40
1
 40
1
 40
1
 10
255.384653
 20
56.973611
 30
0.0
 10
255.808779
 20
58.525833
 30
0.0
 10
256.448052
 20
60.827708
 30
0.0
 10
256.804583
 20
62.088889
 30
0.0
  0
SPLINE
  5
267
100
AcDbEntity
  8
0
 62
7
100
AcDbSpline
 70
8
 71
3
 72
8
 73
4
 74
0
 40
0
 40
0
 40
0
 40
0
 40
1
 40
1
 40
1
 40
1
 10
256.804583
 20
62.088889
 30
0.0
 10
258.442017
 20
67.881133
 30
0.0
 10
260.349153
 20
77.859272
 30
0.0
 10
260.350000
 20
80.645000
 30
0.0
  0
SPLINE
  5
268
100
AcDbEntity
  8
0
 62
7
100
AcDbSpline
 70
8
 71
3
 72
8
 73
4
 74
0
 40
0
 40
0
 40
0
 40
0
 40
1
 40
1
 40
1
 40
1
 10
260.350000
 20
80.645000
 30
0.0
 10
260.350299
 20
81.633658
 30
0.0
 10
260.651269
 20
84.808658
 30
0.0
 10
261.020278
 20
87.700556
 30
0.0
  0
SPLINE
  5
269
100
AcDbEntity
  8
0
 62
7
100
AcDbSpline
 70
8
 71
3
 72
8
 73
4
 74
0
 40
0
 40
0
 40
0
 40
0
 40
1
 40
1
 40
1
 40
1
 10
261.020278
 20
87.700556
 30
0.0
 10
263.012039
 20
103.309835
 30
0.0
 10
263.110483
 20
107.316225
 30
0.0
 10
261.796389
 20
120.226667
 30
0.0
  0
SPLINE
  5
26a
100
AcDbEntity
  8
0
 62
7
100
AcDbSpline
 70
8
 71
3
 72
8
 73
4
 74
0
 40
0
 40
0
 40
0
 40
0
 40
1
 40
1
 40
1
 40
1
 10
261.796389
 20
120.226667
 30
0.0
 10
261.370197
 20
124.413803
 30
0.0
 10
259.938531
 20
130.887755
 30
0.0
 10
258.542014
 20
134.937500
 30
0.0
  0
SPLINE
  5
26b
100
AcDbEntity
  8
0
 62
7
100
AcDbSpline
 70
8
 71
3
 72
8
 73
4
 74
0
 40
0
 40
0
 40
0
 40
0
 40
1
 40
1
 40
1
 40
1
 10
258.542014
 20
134.937500
 30
0.0
 10
258.341292
 20
135.519583
 30
0.0
 10
257.970932
 20
136.710208
 30
0.0
 10
257.721806
 20
137.583333
 30
0.0
  0
SPLINE
  5
26c
100
AcDbEntity
  8
0
 62
7
100
AcDbSpline
 70
8
 71
3
 72
8
 73
4
 74
0
 40
0
 40
0
 40
0
 40
0
 40
1
 40
1
 40
1
 40
1
 10
257.721806
 20
137.583333
 30
0.0
 10
257.472677
 20
138.456458
 30
0.0
 10
256.987167
 20
139.805833
 30
0.0
 10
256.645833
 20
140.581944
 30
0.0
  0
SPLINE
  5
26d
100
AcDbEntity
  8
0
 62
7
100
AcDbSpline
 70
8
 71
3
 72
8
 73
4
 74
0
 40
0
 40
0
 40
0
 40
0
 40
1
 40
1
 40
1
 40
1
 10
256.645833
 20
140.581944
 30
0.0
 10
256.304505
 20
141.358056
 30
0.0
 10
255.715965
 20
142.707431
 30
0.0
 10
255.331736
 20
143.580556
 30
0.0
  0
SPLINE
  5
26e
100
AcDbEntity
  8
0
 62
7
100
AcDbSpline
 70
8
 71
3
 72
8
 73
4
 74
0
 40
0
 40
0
 40
0
 40
0
 40
1
 40
1
 40
1
 40
1
 10
255.331736
 20
143.580556
 30
0.0
 10
254.343797
 20
145.825571
 30
0.0
 10
251.521095
 20
151.753553
 30
0.0
 10
250.842639
 20
153.017361
 30
0.0
  0
SPLINE
  5
26f
100
AcDbEntity
  8
0
 62
7
100
AcDbSpline
 70
8
 71
3
 72
8
 73
4
 74
0
 40
0
 40
0
 40
0
 40
0
 40
1
 40
1
 40
1
 40
1
 10
250.842639
 20
153.017361
 30
0.0
 10
250.660360
 20
153.356911
 30
0.0
 10
249.700189
 20
155.380972
 30
0.0
 10
248.699514
 20
157.515278
 30
0.0
  0
SPLINE
  5
270
100
AcDbEntity
  8
0
 62
7
100
AcDbSpline
 70
8
 71
3
 72
8
 73
4
 74
0
 40
0
 40
0
 40
0
 40
0
 40
1
 40
1
 40
1
 40
1
 10
248.699514
 20
157.515278
 30
0.0
 10
247.698841
 20
159.649583
 30
0.0
 10
245.580693
 20
163.973521
 30
0.0
 10
243.998750
 20
167.128472
 30
0.0
  0
SPLINE
  5
271
100
AcDbEntity
  8
0
 62
7
100
AcDbSpline
 70
8
 71
3
 72
8
 73
4
 74
0
 40
0
 40
0
 40
0
 40
0
 40
1
 40
1
 40
1
 40
1
 10
243.998750
 20
167.128472
 30
0.0
 10
242.416810
 20
170.283423
 30
0.0
 10
240.832234
 20
173.458423
 30
0.0
 10
240.470972
 20
174.184028
 30
0.0
  0
SPLINE
  5
272
100
AcDbEntity
  8
0
 62
7
100
AcDbSpline
 70
8
 71
3
 72
8
 73
4
 74
0
 40
0
 40
0
 40
0
 40
0
 40
1
 40
1
 40
1
 40
1
 10
240.470972
 20
174.184028
 30
0.0
 10
240.109708
 20
174.909632
 30
0.0
 10
239.673144
 20
175.556923
 30
0.0
 10
239.500833
 20
175.621597
 30
0.0
  0
SPLINE
  5
273
100
AcDbEntity
  8
0
 62
7
100
AcDbSpline
 70
8
 71
3
 72
8
 73
4
 74
0
 40
0
 40
0
 40
0
 40
0
 40
1
 40
1
 40
1
 40
1
 10
239.500833
 20
175.621597
 30
0.0
 10
239.328520
 20
175.686277
 30
0.0
 10
239.183333
 20
176.037271
 30
0.0
 10
239.183333
 20
176.397708
 30
0.0
  0
SPLINE
  5
274
100
AcDbEntity
  8
0
 62
7
100
AcDbSpline
 70
8
 71
3
 72
8
 73
4
 74
0
 40
0
 40
0
 40
0
 40
0
 40
1
 40
1
 40
1
 40
1
 10
239.183333
 20
176.397708
 30
0.0
 10
239.183333
 20
176.758143
 30
0.0
 10
239.009101
 20
177.165141
 30
0.0
 10
238.795278
 20
177.297292
 30
0.0
  0
SPLINE
  5
275
100
AcDbEntity
  8
0
 62
7
100
AcDbSpline
 70
8
 71
3
 72
8
 73
4
 74
0
 40
0
 40
0
 40
0
 40
0
 40
1
 40
1
 40
1
 40
1
 10
238.795278
 20
177.297292
 30
0.0
 10
238.581452
 20
177.429442
 30
0.0
 10
238.174191
 20
178.030942
 30
0.0
 10
237.895694
 20
178.637847
 30
0.0
  0
SPLINE
  5
276
100
AcDbEntity
  8
0
 62
7
100
AcDbSpline
 70
8
 71
3
 72
8
 73
4
 74
0
 40
0
 40
0
 40
0
 40
0
 40
1
 40
1
 40
1
 40
1
 10
237.895694
 20
178.637847
 30
0.0
 10
237.617198
 20
179.244749
 30
0.0
 10
236.923233
 20
180.454653
 30
0.0
 10
236.352292
 20
181.327778
 30
0.0
  0
SPLINE
  5
277
100
AcDbEntity
  8
0
 62
7
100
AcDbSpline
 70
8
 71
3
 72
8
 73
4
 74
0
 40
0
 40
0
 40
0
 40
0
 40
1
 40
1
 40
1
 40
1
 10
236.352292
 20
181.327778
 30
0.0
 10
235.781356
 20
182.200903
 30
0.0
 10
235.153386
 20
183.232778
 30
0.0
 10
234.958819
 20
183.620833
 30
0.0
  0
SPLINE
  5
278
100
AcDbEntity
  8
0
 62
7
100
AcDbSpline
 70
8
 71
3
 72
8
 73
4
 74
0
 40
0
 40
0
 40
0
 40
0
 40
1
 40
1
 40
1
 40
1
 10
234.958819
 20
183.620833
 30
0.0
 10
234.764253
 20
184.008889
 30
0.0
 10
234.252208
 20
184.887794
 30
0.0
 10
233.812292
 20
185.578750
 30
0.0
  0
SPLINE
  5
279
100
AcDbEntity
  8
0
 62
7
100
AcDbSpline
 70
8
 71
3
 72
8
 73
4
 74
0
 40
0
 40
0
 40
0
 40
0
 40
1
 40
1
 40
1
 40
1
 10
233.812292
 20
185.578750
 30
0.0
 10
233.372375
 20
186.269701
 30
0.0
 10
232.658666
 20
187.380951
 30
0.0
 10
232.233611
 20
188.048194
 30
0.0
  0
SPLINE
  5
27a
100
AcDbEntity
  8
0
 62
7
100
AcDbSpline
 70
8
 71
3
 72
8
 73
4
 74
0
 40
0
 40
0
 40
0
 40
0
 40
1
 40
1
 40
1
 40
1
 10
232.233611
 20
188.048194
 30
0.0
 10
231.808553
 20
188.715433
 30
0.0
 10
231.292617
 20
189.454268
 30
0.0
 10
231.087083
 20
189.688611
 30
0.0
  0
SPLINE
  5
27b
100
AcDbEntity
  8
0
 62
7
100
AcDbSpline
 70
8
 71
3
 72
8
 73
4
 74
0
 40
0
 40
0
 40
0
 40
0
 40
1
 40
1
 40
1
 40
1
 10
231.087083
 20
189.688611
 30
0.0
 10
230.881549
 20
189.922957
 30
0.0
 10
230.716667
 20
190.259803
 30
0.0
 10
230.716667
 20
190.438264
 30
0.0
  0
SPLINE
  5
27c
100
AcDbEntity
  8
0
 62
7
100
AcDbSpline
 70
8
 71
3
 72
8
 73
4
 74
0
 40
0
 40
0
 40
0
 40
0
 40
1
 40
1
 40
1
 40
1
 10
230.716667
 20
190.438264
 30
0.0
 10
230.716667
 20
190.616724
 30
0.0
 10
230.473301
 20
190.969858
 30
0.0
 10
230.178681
 20
191.214375
 30
0.0
  0
SPLINE
  5
27d
100
AcDbEntity
  8
0
 62
7
100
AcDbSpline
 70
8
 71
3
 72
8
 73
4
 74
0
 40
0
 40
0
 40
0
 40
0
 40
1
 40
1
 40
1
 40
1
 10
230.178681
 20
191.214375
 30
0.0
 10
229.884057
 20
191.458890
 30
0.0
 10
229.394639
 20
192.193604
 30
0.0
 10
229.085069
 20
192.845972
 30
0.0
  0
SPLINE
  5
27e
100
AcDbEntity
  8
0
 62
7
100
AcDbSpline
 70
8
 71
3
 72
8
 73
4
 74
0
 40
0
 40
0
 40
0
 40
0
 40
1
 40
1
 40
1
 40
1
 10
229.085069
 20
192.845972
 30
0.0
 10
228.775503
 20
193.498340
 30
0.0
 10
228.375046
 20
194.027778
 30
0.0
 10
228.203125
 20
194.027778
 30
0.0
  0
SPLINE
  5
27f
100
AcDbEntity
  8
0
 62
7
100
AcDbSpline
 70
8
 71
3
 72
8
 73
4
 74
0
 40
0
 40
0
 40
0
 40
0
 40
1
 40
1
 40
1
 40
1
 10
228.203125
 20
194.027778
 30
0.0
 10
228.031207
 20
194.027778
 30
0.0
 10
227.894444
 20
194.178614
 30
0.0
 10
227.894444
 20
194.362917
 30
0.0
  0
SPLINE
  5
280
100
AcDbEntity
  8
0
 62
7
100
AcDbSpline
 70
8
 71
3
 72
8
 73
4
 74
0
 40
0
 40
0
 40
0
 40
0
 40
1
 40
1
 40
1
 40
1
 10
227.894444
 20
194.362917
 30
0.0
 10
227.894444
 20
194.547219
 30
0.0
 10
227.378506
 20
195.438530
 30
0.0
 10
226.747917
 20
196.338472
 30
0.0
  0
SPLINE
  5
281
100
AcDbEntity
  8
0
 62
7
100
AcDbSpline
 70
8
 71
3
 72
8
 73
4
 74
0
 40
0
 40
0
 40
0
 40
0
 40
1
 40
1
 40
1
 40
1
 10
226.747917
 20
196.338472
 30
0.0
 10
226.117325
 20
197.238414
 30
0.0
 10
225.442639
 20
198.240215
 30
0.0
 10
225.248611
 20
198.569792
 30
0.0
  0
SPLINE
  5
282
100
AcDbEntity
  8
0
 62
7
100
AcDbSpline
 70
8
 71
3
 72
8
 73
4
 74
0
 40
0
 40
0
 40
0
 40
0
 40
1
 40
1
 40
1
 40
1
 10
225.248611
 20
198.569792
 30
0.0
 10
225.054583
 20
198.899371
 30
0.0
 10
224.687065
 20
199.397120
 30
0.0
 10
224.437222
 20
199.681042
 30
0.0
  0
SPLINE
  5
283
100
AcDbEntity
  8
0
 62
7
100
AcDbSpline
 70
8
 71
3
 72
8
 73
4
 74
0
 40
0
 40
0
 40
0
 40
0
 40
1
 40
1
 40
1
 40
1
 10
224.437222
 20
199.681042
 30
0.0
 10
223.417630
 20
200.839716
 30
0.0
 10
220.838889
 20
204.621387
 30
0.0
 10
220.838889
 20
204.955069
 30
0.0
  0
SPLINE
  5
284
100
AcDbEntity
  8
0
 62
7
100
AcDbSpline
 70
8
 71
3
 72
8
 73
4
 74
0
 40
0
 40
0
 40
0
 40
0
 40
1
 40
1
 40
1
 40
1
 10
220.838889
 20
204.955069
 30
0.0
 10
220.838889
 20
205.152157
 30
0.0
 10
220.709625
 20
205.316667
 30
0.0
 10
220.547847
 20
205.316667
 30
0.0
  0
SPLINE
  5
285
100
AcDbEntity
  8
0
 62
7
100
AcDbSpline
 70
8
 71
3
 72
8
 73
4
 74
0
 40
0
 40
0
 40
0
 40
0
 40
1
 40
1
 40
1
 40
1
 10
220.547847
 20
205.316667
 30
0.0
 10
220.386072
 20
205.316667
 30
0.0
 10
219.629284
 20
206.229481
 30
0.0
 10
218.872153
 20
207.345139
 30
0.0
  0
SPLINE
  5
286
100
AcDbEntity
  8
0
 62
7
100
AcDbSpline
 70
8
 71
3
 72
8
 73
4
 74
0
 40
0
 40
0
 40
0
 40
0
 40
1
 40
1
 40
1
 40
1
 10
218.872153
 20
207.345139
 30
0.0
 10
218.115021
 20
208.460800
 30
0.0
 10
217.300604
 20
209.500673
 30
0.0
 10
217.055347
 20
209.655833
 30
0.0
  0
SPLINE
  5
287
100
AcDbEntity
  8
0
 62
7
100
AcDbSpline
 70
8
 71
3
 72
8
 73
4
 74
0
 40
0
 40
0
 40
0
 40
0
 40
1
 40
1
 40
1
 40
1
 10
217.055347
 20
209.655833
 30
0.0
 10
216.810090
 20
209.810996
 30
0.0
 10
216.605556
 20
210.157893
 30
0.0
 10
216.605556
 20
210.423125
 30
0.0
  0
SPLINE
  5
288
100
AcDbEntity
  8
0
 62
7
100
AcDbSpline
 70
8
 71
3
 72
8
 73
4
 74
0
 40
0
 40
0
 40
0
 40
0
 40
1
 40
1
 40
1
 40
1
 10
216.605556
 20
210.423125
 30
0.0
 10
216.605556
 20
210.688355
 30
0.0
 10
216.486943
 20
210.958168
 30
0.0
 10
216.340972
 20
211.022847
 30
0.0
  0
SPLINE
  5
289
100
AcDbEntity
  8
0
 62
7
100
AcDbSpline
 70
8
 71
3
 72
8
 73
4
 74
0
 40
0
 40
0
 40
0
 40
0
 40
1
 40
1
 40
1
 40
1
 10
216.340972
 20
211.022847
 30
0.0
 10
216.195004
 20
211.087521
 30
0.0
 10
215.220454
 20
212.248750
 30
0.0
 10
214.171389
 20
213.606944
 30
0.0
  0
SPLINE
  5
28a
100
AcDbEntity
  8
0
 62
7
100
AcDbSpline
 70
8
 71
3
 72
8
 73
4
 74
0
 40
0
 40
0
 40
0
 40
0
 40
1
 40
1
 40
1
 40
1
 10
214.171389
 20
213.606944
 30
0.0
 10
211.323304
 20
217.294277
 30
0.0
 10
208.669320
 20
220.104422
 30
0.0
 10
206.022222
 20
222.250000
 30
0.0
  0
SPLINE
  5
28b
100
AcDbEntity
  8
0
 62
7
100
AcDbSpline
 70
8
 71
3
 72
8
 73
4
 74
0
 40
0
 40
0
 40
0
 40
0
 40
1
 40
1
 40
1
 40
1
 10
206.022222
 20
222.250000
 30
0.0
 10
205.184389
 20
222.929097
 30
0.0
 10
204.329592
 20
223.642149
 30
0.0
 10
204.117222
 20
223.837500
 30
0.0
  0
SPLINE
  5
28c
100
AcDbEntity
  8
0
 62
7
100
AcDbSpline
 70
8
 71
3
 72
8
 73
4
 74
0
 40
0
 40
0
 40
0
 40
0
 40
1
 40
1
 40
1
 40
1
 10
204.117222
 20
223.837500
 30
0.0
 10
203.904853
 20
224.032846
 30
0.0
 10
202.498853
 20
225.220558
 30
0.0
 10
200.995139
 20
226.474514
 30
0.0
  0
SPLINE
  5
28d
100
AcDbEntity
  8
0
 62
7
100
AcDbSpline
 70
8
 71
3
 72
8
 73
4
 74
0
 40
0
 40
0
 40
0
 40
0
 40
1
 40
1
 40
1
 40
1
 10
200.995139
 20
226.474514
 30
0.0
 10
199.491422
 20
227.728472
 30
0.0
 10
198.261111
 20
228.880732
 30
0.0
 10
198.261111
 20
229.032153
 30
0.0
  0
SPLINE
  5
28e
100
AcDbEntity
  8
0
 62
7
100
AcDbSpline
 70
8
 71
3
 72
8
 73
4
 74
0
 40
0
 40
0
 40
0
 40
0
 40
1
 40
1
 40
1
 40
1
 10
198.261111
 20
229.032153
 30
0.0
 10
198.261111
 20
229.183576
 30
0.0
 10
198.024981
 20
229.305556
 30
0.0
 10
197.740764
 20
229.305556
 30
0.0
  0
SPLINE
  5
28f
100
AcDbEntity
  8
0
 62
7
100
AcDbSpline
 70
8
 71
3
 72
8
 73
4
 74
0
 40
0
 40
0
 40
0
 40
0
 40
1
 40
1
 40
1
 40
1
 10
197.740764
 20
229.305556
 30
0.0
 10
197.456549
 20
229.305556
 30
0.0
 10
197.057679
 20
229.623056
 30
0.0
 10
196.850000
 20
230.011111
 30
0.0
  0
SPLINE
  5
290
100
AcDbEntity
  8
0
 62
7
100
AcDbSpline
 70
8
 71
3
 72
8
 73
4
 74
0
 40
0
 40
0
 40
0
 40
0
 40
1
 40
1
 40
1
 40
1
 10
196.850000
 20
230.011111
 30
0.0
 10
196.642318
 20
230.399167
 30
0.0
 10
196.243454
 20
230.716667
 30
0.0
 10
195.959236
 20
230.716667
 30
0.0
  0
SPLINE
  5
291
100
AcDbEntity
  8
0
 62
7
100
AcDbSpline
 70
8
 71
3
 72
8
 73
4
 74
0
 40
0
 40
0
 40
0
 40
0
 40
1
 40
1
 40
1
 40
1
 10
195.959236
 20
230.716667
 30
0.0
 10
195.675021
 20
230.716667
 30
0.0
 10
195.438889
 20
230.847559
 30
0.0
 10
195.438889
 20
231.007708
 30
0.0
  0
SPLINE
  5
292
100
AcDbEntity
  8
0
 62
7
100
AcDbSpline
 70
8
 71
3
 72
8
 73
4
 74
0
 40
0
 40
0
 40
0
 40
0
 40
1
 40
1
 40
1
 40
1
 10
195.438889
 20
231.007708
 30
0.0
 10
195.438889
 20
231.167858
 30
0.0
 10
194.446700
 20
232.112699
 30
0.0
 10
193.234028
 20
233.106736
 30
0.0
  0
SPLINE
  5
293
100
AcDbEntity
  8
0
 62
7
100
AcDbSpline
 70
8
 71
3
 72
8
 73
4
 74
0
 40
0
 40
0
 40
0
 40
0
 40
1
 40
1
 40
1
 40
1
 10
193.234028
 20
233.106736
 30
0.0
 10
192.021353
 20
234.100774
 30
0.0
 10
190.611145
 20
235.279568
 30
0.0
 10
190.103125
 20
235.726111
 30
0.0
  0
SPLINE
  5
294
100
AcDbEntity
  8
0
 62
7
100
AcDbSpline
 70
8
 71
3
 72
8
 73
4
 74
0
 40
0
 40
0
 40
0
 40
0
 40
1
 40
1
 40
1
 40
1
 10
190.103125
 20
235.726111
 30
0.0
 10
189.595108
 20
236.172654
 30
0.0
 10
188.514409
 20
237.093125
 30
0.0
 10
187.695417
 20
237.772222
 30
0.0
  0
SPLINE
  5
295
100
AcDbEntity
  8
0
 62
7
100
AcDbSpline
 70
8
 71
3
 72
8
 73
4
 74
0
 40
0
 40
0
 40
0
 40
0
 40
1
 40
1
 40
1
 40
1
 10
187.695417
 20
237.772222
 30
0.0
 10
186.876425
 20
238.451319
 30
0.0
 10
186.015630
 20
239.164822
 30
0.0
 10
185.790417
 20
239.359722
 30
0.0
  0
SPLINE
  5
296
100
AcDbEntity
  8
0
 62
7
100
AcDbSpline
 70
8
 71
3
 72
8
 73
4
 74
0
 40
0
 40
0
 40
0
 40
0
 40
1
 40
1
 40
1
 40
1
 10
185.790417
 20
239.359722
 30
0.0
 10
185.565206
 20
239.554622
 30
0.0
 10
184.511597
 20
240.430417
 30
0.0
 10
183.444444
 20
241.300000
 30
0.0
  0
SPLINE
  5
297
100
AcDbEntity
  8
0
 62
7
100
AcDbSpline
 70
8
 71
3
 72
8
 73
4
 74
0
 40
0
 40
0
 40
0
 40
0
 40
1
 40
1
 40
1
 40
1
 10
183.444444
 20
241.300000
 30
0.0
 10
182.377292
 20
242.169586
 30
0.0
 10
181.424792
 20
242.961541
 30
0.0
 10
181.327778
 20
243.063889
 30
0.0
  0
SPLINE
  5
298
100
AcDbEntity
  8
0
 62
7
100
AcDbSpline
 70
8
 71
3
 72
8
 73
4
 74
0
 40
0
 40
0
 40
0
 40
0
 40
1
 40
1
 40
1
 40
1
 10
181.327778
 20
243.063889
 30
0.0
 10
181.230764
 20
243.166237
 30
0.0
 10
180.278264
 20
243.958096
 30
0.0
 10
179.211111
 20
244.827778
 30
0.0
  0
SPLINE
  5
299
100
AcDbEntity
  8
0
 62
7
100
AcDbSpline
 70
8
 71
3
 72
8
 73
4
 74
0
 40
0
 40
0
 40
0
 40
0
 40
1
 40
1
 40
1
 40
1
 10
179.211111
 20
244.827778
 30
0.0
 10
178.143958
 20
245.697457
 30
0.0
 10
177.112083
 20
246.590106
 30
0.0
 10
176.918056
 20
246.803333
 30
0.0
  0
SPLINE
  5
29a
100
AcDbEntity
  8
0
 62
7
100
AcDbSpline
 70
8
 71
3
 72
8
 73
4
 74
0
 40
0
 40
0
 40
0
 40
0
 40
1
 40
1
 40
1
 40
1
 10
176.918056
 20
246.803333
 30
0.0
 10
175.488332
 20
248.374518
 30
0.0
 10
171.170710
 20
250.472222
 30
0.0
 10
169.368611
 20
250.472222
 30
0.0
  0
SPLINE
  5
29b
100
AcDbEntity
  8
0
 62
7
100
AcDbSpline
 70
8
 71
3
 72
8
 73
4
 74
0
 40
0
 40
0
 40
0
 40
0
 40
1
 40
1
 40
1
 40
1
 10
169.368611
 20
250.472222
 30
0.0
 10
167.939573
 20
250.472222
 30
0.0
 10
167.389621
 20
250.077052
 30
0.0
 10
165.285208
 20
247.508889
 30
0.0
  0
SPLINE
  5
29c
100
AcDbEntity
  8
0
 62
7
100
AcDbSpline
 70
8
 71
3
 72
8
 73
4
 74
0
 40
0
 40
0
 40
0
 40
0
 40
1
 40
1
 40
1
 40
1
 10
165.285208
 20
247.508889
 30
0.0
 10
164.069784
 20
246.025630
 30
0.0
 10
163.921468
 20
245.616366
 30
0.0
 10
163.618333
 20
242.799306
 30
0.0
  0
SPLINE
  5
29d
100
AcDbEntity
  8
0
 62
7
100
AcDbSpline
 70
8
 71
3
 72
8
 73
4
 74
0
 40
0
 40
0
 40
0
 40
0
 40
1
 40
1
 40
1
 40
1
 10
163.618333
 20
242.799306
 30
0.0
 10
163.247581
 20
239.353883
 30
0.0
 10
163.470500
 20
235.488590
 30
0.0
 10
164.121042
 20
233.997500
 30
0.0
  0
SPLINE
  5
29e
100
AcDbEntity
  8
0
 62
7
100
AcDbSpline
 70
8
 71
3
 72
8
 73
4
 74
0
 40
0
 40
0
 40
0
 40
0
 40
1
 40
1
 40
1
 40
1
 10
164.121042
 20
233.997500
 30
0.0
 10
165.112189
 20
231.725721
 30
0.0
 10
167.839023
 20
230.575928
 30
0.0
 10
168.980556
 20
231.951389
 30
0.0
  0
SPLINE
  5
29f
100
AcDbEntity
  8
0
 62
7
100
AcDbSpline
 70
8
 71
3
 72
8
 73
4
 74
0
 40
0
 40
0
 40
0
 40
0
 40
1
 40
1
 40
1
 40
1
 10
168.980556
 20
231.951389
 30
0.0
 10
169.347470
 20
232.393490
 30
0.0
 10
169.297435
 20
232.480556
 30
0.0
 10
168.671875
 20
232.480556
 30
0.0
  0
SPLINE
  5
2a0
100
AcDbEntity
  8
0
 62
7
100
AcDbSpline
 70
8
 71
3
 72
8
 73
4
 74
0
 40
0
 40
0
 40
0
 40
0
 40
1
 40
1
 40
1
 40
1
 10
168.671875
 20
232.480556
 30
0.0
 10
168.260062
 20
232.480556
 30
0.0
 10
167.582370
 20
232.811585
 30
0.0
 10
167.172569
 20
233.221389
 30
0.0
  0
SPLINE
  5
2a1
100
AcDbEntity
  8
0
 62
7
100
AcDbSpline
 70
8
 71
3
 72
8
 73
4
 74
0
 40
0
 40
0
 40
0
 40
0
 40
1
 40
1
 40
1
 40
1
 10
167.172569
 20
233.221389
 30
0.0
 10
166.084953
 20
234.309003
 30
0.0
 10
166.363664
 20
237.315400
 30
0.0
 10
167.807569
 20
240.082917
 30
0.0
  0
SPLINE
  5
2a2
100
AcDbEntity
  8
0
 62
7
100
AcDbSpline
 70
8
 71
3
 72
8
 73
4
 74
0
 40
0
 40
0
 40
0
 40
0
 40
1
 40
1
 40
1
 40
1
 10
167.807569
 20
240.082917
 30
0.0
 10
169.394878
 20
243.125295
 30
0.0
 10
169.668994
 20
243.187206
 30
0.0
 10
171.688125
 20
241.035417
 30
0.0
  0
SPLINE
  5
2a3
100
AcDbEntity
  8
0
 62
7
100
AcDbSpline
 70
8
 71
3
 72
8
 73
4
 74
0
 40
0
 40
0
 40
0
 40
0
 40
1
 40
1
 40
1
 40
1
 10
171.688125
 20
241.035417
 30
0.0
 10
173.432947
 20
239.175962
 30
0.0
 10
173.887189
 20
238.629111
 30
0.0
 10
175.692153
 20
236.184722
 30
0.0
  0
SPLINE
  5
2a4
100
AcDbEntity
  8
0
 62
7
100
AcDbSpline
 70
8
 71
3
 72
8
 73
4
 74
0
 40
0
 40
0
 40
0
 40
0
 40
1
 40
1
 40
1
 40
1
 10
175.692153
 20
236.184722
 30
0.0
 10
176.265245
 20
235.408611
 30
0.0
 10
176.849597
 20
234.614861
 30
0.0
 10
176.997431
 20
234.420833
 30
0.0
  0
SPLINE
  5
2a5
100
AcDbEntity
  8
0
 62
7
100
AcDbSpline
 70
8
 71
3
 72
8
 73
4
 74
0
 40
0
 40
0
 40
0
 40
0
 40
1
 40
1
 40
1
 40
1
 10
176.997431
 20
234.420833
 30
0.0
 10
177.466876
 20
233.804714
 30
0.0
 10
179.076624
 20
231.266571
 30
0.0
 10
179.343403
 20
230.716667
 30
0.0
  0
SPLINE
  5
2a6
100
AcDbEntity
  8
0
 62
7
100
AcDbSpline
 70
8
 71
3
 72
8
 73
4
 74
0
 40
0
 40
0
 40
0
 40
0
 40
1
 40
1
 40
1
 40
1
 10
179.343403
 20
230.716667
 30
0.0
 10
179.484596
 20
230.425625
 30
0.0
 10
179.977003
 20
229.552500
 30
0.0
 10
180.437014
 20
228.776389
 30
0.0
  0
SPLINE
  5
2a7
100
AcDbEntity
  8
0
 62
7
100
AcDbSpline
 70
8
 71
3
 72
8
 73
4
 74
0
 40
0
 40
0
 40
0
 40
0
 40
1
 40
1
 40
1
 40
1
 10
180.437014
 20
228.776389
 30
0.0
 10
181.228661
 20
227.440761
 30
0.0
 10
188.395130
 20
213.147473
 30
0.0
 10
189.829722
 20
210.043889
 30
0.0
  0
SPLINE
  5
2a8
100
AcDbEntity
  8
0
 62
7
100
AcDbSpline
 70
8
 71
3
 72
8
 73
4
 74
0
 40
0
 40
0
 40
0
 40
0
 40
1
 40
1
 40
1
 40
1
 10
189.829722
 20
210.043889
 30
0.0
 10
190.198296
 20
209.246526
 30
0.0
 10
190.500000
 20
208.405087
 30
0.0
 10
190.500000
 20
208.174167
 30
0.0
  0
SPLINE
  5
2a9
100
AcDbEntity
  8
0
 62
7
100
AcDbSpline
 70
8
 71
3
 72
8
 73
4
 74
0
 40
0
 40
0
 40
0
 40
0
 40
1
 40
1
 40
1
 40
1
 10
190.500000
 20
208.174167
 30
0.0
 10
190.500000
 20
207.943250
 30
0.0
 10
190.735870
 20
207.286135
 30
0.0
 10
191.029167
 20
206.718958
 30
0.0
  0
SPLINE
  5
2aa
100
AcDbEntity
  8
0
 62
7
100
AcDbSpline
 70
8
 71
3
 72
8
 73
4
 74
0
 40
0
 40
0
 40
0
 40
0
 40
1
 40
1
 40
1
 40
1
 10
191.029167
 20
206.718958
 30
0.0
 10
191.986919
 20
204.866869
 30
0.0
 10
192.626615
 20
200.350049
 30
0.0
 10
192.660764
 20
195.200764
 30
0.0
  0
SPLINE
  5
2ab
100
AcDbEntity
  8
0
 62
7
100
AcDbSpline
 70
8
 71
3
 72
8
 73
4
 74
0
 40
0
 40
0
 40
0
 40
0
 40
1
 40
1
 40
1
 40
1
 10
192.660764
 20
195.200764
 30
0.0
 10
192.693507
 20
190.260433
 30
0.0
 10
192.510777
 20
188.869252
 30
0.0
 10
191.179097
 20
183.894236
 30
0.0
  0
SPLINE
  5
2ac
100
AcDbEntity
  8
0
 62
7
100
AcDbSpline
 70
8
 71
3
 72
8
 73
4
 74
0
 40
0
 40
0
 40
0
 40
0
 40
1
 40
1
 40
1
 40
1
 10
191.179097
 20
183.894236
 30
0.0
 10
190.803651
 20
182.491628
 30
0.0
 10
190.500000
 20
181.169028
 30
0.0
 10
190.500000
 20
180.957361
 30
0.0
  0
SPLINE
  5
2ad
100
AcDbEntity
  8
0
 62
7
100
AcDbSpline
 70
8
 71
3
 72
8
 73
4
 74
0
 40
0
 40
0
 40
0
 40
0
 40
1
 40
1
 40
1
 40
1
 10
190.500000
 20
180.957361
 30
0.0
 10
190.500000
 20
179.859477
 30
0.0
 10
186.970676
 20
175.923005
 30
0.0
 10
186.451875
 20
176.441806
 30
0.0
  0
SPLINE
  5
2ae
100
AcDbEntity
  8
0
 62
7
100
AcDbSpline
 70
8
 71
3
 72
8
 73
4
 74
0
 40
0
 40
0
 40
0
 40
0
 40
1
 40
1
 40
1
 40
1
 10
186.451875
 20
176.441806
 30
0.0
 10
186.371710
 20
176.521974
 30
0.0
 10
186.122722
 20
177.373226
 30
0.0
 10
185.896250
 20
178.337986
 30
0.0
  0
SPLINE
  5
2af
100
AcDbEntity
  8
0
 62
7
100
AcDbSpline
 70
8
 71
3
 72
8
 73
4
 74
0
 40
0
 40
0
 40
0
 40
0
 40
1
 40
1
 40
1
 40
1
 10
185.896250
 20
178.337986
 30
0.0
 10
185.669781
 20
179.302746
 30
0.0
 10
185.190037
 20
181.283681
 30
0.0
 10
184.837917
 20
182.738889
 30
0.0
  0
SPLINE
  5
2b0
100
AcDbEntity
  8
0
 62
7
100
AcDbSpline
 70
8
 71
3
 72
8
 73
4
 74
0
 40
0
 40
0
 40
0
 40
0
 40
1
 40
1
 40
1
 40
1
 10
184.837917
 20
182.738889
 30
0.0
 10
183.572737
 20
187.967510
 30
0.0
 10
182.724481
 20
192.107541
 30
0.0
 10
182.730069
 20
193.013542
 30
0.0
  0
SPLINE
  5
2b1
100
AcDbEntity
  8
0
 62
7
100
AcDbSpline
 70
8
 71
3
 72
8
 73
4
 74
0
 40
0
 40
0
 40
0
 40
0
 40
1
 40
1
 40
1
 40
1
 10
182.730069
 20
193.013542
 30
0.0
 10
182.733196
 20
193.520952
 30
0.0
 10
182.421389
 20
194.337014
 30
0.0
 10
182.033333
 20
194.830347
 30
0.0
  0
SPLINE
  5
2b2
100
AcDbEntity
  8
0
 62
7
100
AcDbSpline
 70
8
 71
3
 72
8
 73
4
 74
0
 40
0
 40
0
 40
0
 40
0
 40
1
 40
1
 40
1
 40
1
 10
182.033333
 20
194.830347
 30
0.0
 10
181.645278
 20
195.323677
 30
0.0
 10
181.323248
 20
195.936924
 30
0.0
 10
181.318958
 20
196.197361
 30
0.0
  0
SPLINE
  5
2b3
100
AcDbEntity
  8
0
 62
7
100
AcDbSpline
 70
8
 71
3
 72
8
 73
4
 74
0
 40
0
 40
0
 40
0
 40
0
 40
1
 40
1
 40
1
 40
1
 10
181.318958
 20
196.197361
 30
0.0
 10
181.314643
 20
196.457801
 30
0.0
 10
181.001647
 20
197.070486
 30
0.0
 10
180.622222
 20
197.555556
 30
0.0
  0
SPLINE
  5
2b4
100
AcDbEntity
  8
0
 62
7
100
AcDbSpline
 70
8
 71
3
 72
8
 73
4
 74
0
 40
0
 40
0
 40
0
 40
0
 40
1
 40
1
 40
1
 40
1
 10
180.622222
 20
197.555556
 30
0.0
 10
180.242794
 20
198.040625
 30
0.0
 10
179.929804
 20
198.652658
 30
0.0
 10
179.925486
 20
198.913750
 30
0.0
  0
SPLINE
  5
2b5
100
AcDbEntity
  8
0
 62
7
100
AcDbSpline
 70
8
 71
3
 72
8
 73
4
 74
0
 40
0
 40
0
 40
0
 40
0
 40
1
 40
1
 40
1
 40
1
 10
179.925486
 20
198.913750
 30
0.0
 10
179.921171
 20
199.174839
 30
0.0
 10
179.620511
 20
199.809839
 30
0.0
 10
179.264028
 20
200.324861
 30
0.0
  0
SPLINE
  5
2b6
100
AcDbEntity
  8
0
 62
7
100
AcDbSpline
 70
8
 71
3
 72
8
 73
4
 74
0
 40
0
 40
0
 40
0
 40
0
 40
1
 40
1
 40
1
 40
1
 10
179.264028
 20
200.324861
 30
0.0
 10
178.907542
 20
200.839880
 30
0.0
 10
178.524462
 20
201.519395
 30
0.0
 10
178.408542
 20
201.841806
 30
0.0
  0
SPLINE
  5
2b7
100
AcDbEntity
  8
0
 62
7
100
AcDbSpline
 70
8
 71
3
 72
8
 73
4
 74
0
 40
0
 40
0
 40
0
 40
0
 40
1
 40
1
 40
1
 40
1
 10
178.408542
 20
201.841806
 30
0.0
 10
178.292619
 20
202.164213
 30
0.0
 10
177.636280
 20
202.641175
 30
0.0
 10
176.944514
 20
202.891319
 30
0.0
  0
SPLINE
  5
2b8
100
AcDbEntity
  8
0
 62
7
100
AcDbSpline
 70
8
 71
3
 72
8
 73
4
 74
0
 40
0
 40
0
 40
0
 40
0
 40
1
 40
1
 40
1
 40
1
 10
176.944514
 20
202.891319
 30
0.0
 10
176.252751
 20
203.141467
 30
0.0
 10
175.683333
 20
203.468286
 30
0.0
 10
175.683333
 20
203.623333
 30
0.0
  0
SPLINE
  5
2b9
100
AcDbEntity
  8
0
 62
7
100
AcDbSpline
 70
8
 71
3
 72
8
 73
4
 74
0
 40
0
 40
0
 40
0
 40
0
 40
1
 40
1
 40
1
 40
1
 10
175.683333
 20
203.623333
 30
0.0
 10
175.683333
 20
203.778383
 30
0.0
 10
175.200894
 20
203.905556
 30
0.0
 10
174.616181
 20
203.905556
 30
0.0
  0
SPLINE
  5
2ba
100
AcDbEntity
  8
0
 62
7
100
AcDbSpline
 70
8
 71
3
 72
8
 73
4
 74
0
 40
0
 40
0
 40
0
 40
0
 40
1
 40
1
 40
1
 40
1
 10
174.616181
 20
203.905556
 30
0.0
 10
174.031464
 20
203.905556
 30
0.0
 10
173.238383
 20
204.105408
 30
0.0
 10
172.852292
 20
204.346528
 30
0.0
  0
SPLINE
  5
2bb
100
AcDbEntity
  8
0
 62
7
100
AcDbSpline
 70
8
 71
3
 72
8
 73
4
 74
0
 40
0
 40
0
 40
0
 40
0
 40
1
 40
1
 40
1
 40
1
 10
172.852292
 20
204.346528
 30
0.0
 10
171.735324
 20
205.044082
 30
0.0
 10
170.984912
 20
204.278710
 30
0.0
 10
170.391667
 20
201.841806
 30
0.0
  0
SPLINE
  5
2bc
100
AcDbEntity
  8
0
 62
7
100
AcDbSpline
 70
8
 71
3
 72
8
 73
4
 74
0
 40
0
 40
0
 40
0
 40
0
 40
1
 40
1
 40
1
 40
1
 10
170.391667
 20
201.841806
 30
0.0
 10
169.834673
 20
199.553819
 30
0.0
 10
169.139464
 20
198.792253
 30
0.0
 10
169.536181
 20
200.906944
 30
0.0
  0
SPLINE
  5
2bd
100
AcDbEntity
  8
0
 62
7
100
AcDbSpline
 70
8
 71
3
 72
8
 73
4
 74
0
 40
0
 40
0
 40
0
 40
0
 40
1
 40
1
 40
1
 40
1
 10
169.536181
 20
200.906944
 30
0.0
 10
169.853305
 20
202.597360
 30
0.0
 10
169.220650
 20
203.404676
 30
0.0
 10
168.160347
 20
202.662014
 30
0.0
  0
SPLINE
  5
2be
100
AcDbEntity
  8
0
 62
7
100
AcDbSpline
 70
8
 71
3
 72
8
 73
4
 74
0
 40
0
 40
0
 40
0
 40
0
 40
1
 40
1
 40
1
 40
1
 10
168.160347
 20
202.662014
 30
0.0
 10
167.749920
 20
202.374537
 30
0.0
 10
167.144051
 20
202.141667
 30
0.0
 10
166.819792
 20
202.141667
 30
0.0
  0
SPLINE
  5
2bf
100
AcDbEntity
  8
0
 62
7
100
AcDbSpline
 70
8
 71
3
 72
8
 73
4
 74
0
 40
0
 40
0
 40
0
 40
0
 40
1
 40
1
 40
1
 40
1
 10
166.819792
 20
202.141667
 30
0.0
 10
166.314097
 20
202.141667
 30
0.0
 10
166.282655
 20
202.339750
 30
0.0
 10
166.555208
 20
203.552778
 30
0.0
  0
SPLINE
  5
2c0
100
AcDbEntity
  8
0
 62
7
100
AcDbSpline
 70
8
 71
3
 72
8
 73
4
 74
0
 40
0
 40
0
 40
0
 40
0
 40
1
 40
1
 40
1
 40
1
 10
166.555208
 20
203.552778
 30
0.0
 10
166.829128
 20
204.771927
 30
0.0
 10
166.750788
 20
205.158554
 30
0.0
 10
165.999583
 20
206.348542
 30
0.0
  0
SPLINE
  5
2c1
100
AcDbEntity
  8
0
 62
7
100
AcDbSpline
 70
8
 71
3
 72
8
 73
4
 74
0
 40
0
 40
0
 40
0
 40
0
 40
1
 40
1
 40
1
 40
1
 10
165.999583
 20
206.348542
 30
0.0
 10
165.520314
 20
207.107750
 30
0.0
 10
164.639729
 20
208.011299
 30
0.0
 10
164.050486
 20
208.359375
 30
0.0
  0
SPLINE
  5
2c2
100
AcDbEntity
  8
0
 62
7
100
AcDbSpline
 70
8
 71
3
 72
8
 73
4
 74
0
 40
0
 40
0
 40
0
 40
0
 40
1
 40
1
 40
1
 40
1
 10
164.050486
 20
208.359375
 30
0.0
 10
163.461240
 20
208.707451
 30
0.0
 10
162.983333
 20
209.124403
 30
0.0
 10
162.983333
 20
209.276597
 30
0.0
  0
SPLINE
  5
2c3
100
AcDbEntity
  8
0
 62
7
100
AcDbSpline
 70
8
 71
3
 72
8
 73
4
 74
0
 40
0
 40
0
 40
0
 40
0
 40
1
 40
1
 40
1
 40
1
 10
162.983333
 20
209.276597
 30
0.0
 10
162.983333
 20
209.428791
 30
0.0
 10
162.728487
 20
209.550000
 30
0.0
 10
162.418889
 20
209.550000
 30
0.0
  0
SPLINE
  5
2c4
100
AcDbEntity
  8
0
 62
7
100
AcDbSpline
 70
8
 71
3
 72
8
 73
4
 74
0
 40
0
 40
0
 40
0
 40
0
 40
1
 40
1
 40
1
 40
1
 10
162.418889
 20
209.550000
 30
0.0
 10
162.109291
 20
209.550000
 30
0.0
 10
161.434605
 20
209.843384
 30
0.0
 10
160.919583
 20
210.202639
 30
0.0
  0
SPLINE
  5
2c5
100
AcDbEntity
  8
0
 62
7
100
AcDbSpline
 70
8
 71
3
 72
8
 73
4
 74
0
 40
0
 40
0
 40
0
 40
0
 40
1
 40
1
 40
1
 40
1
 10
160.919583
 20
210.202639
 30
0.0
 10
160.404564
 20
210.561894
 30
0.0
 10
158.138227
 20
211.759193
 30
0.0
 10
155.883681
 20
212.866111
 30
0.0
  0
SPLINE
  5
2c6
100
AcDbEntity
  8
0
 62
7
100
AcDbSpline
 70
8
 71
3
 72
8
 73
4
 74
0
 40
0
 40
0
 40
0
 40
0
 40
1
 40
1
 40
1
 40
1
 10
155.883681
 20
212.866111
 30
0.0
 10
152.055802
 20
214.745485
 30
0.0
 10
151.571596
 20
214.894301
 30
0.0
 10
148.572361
 20
215.088611
 30
0.0
  0
SPLINE
  5
2c7
100
AcDbEntity
  8
0
 62
7
100
AcDbSpline
 70
8
 71
3
 72
8
 73
4
 74
0
 40
0
 40
0
 40
0
 40
0
 40
1
 40
1
 40
1
 40
1
 10
148.572361
 20
215.088611
 30
0.0
 10
145.926912
 20
215.260005
 30
0.0
 10
144.847592
 20
215.160781
 30
0.0
 10
142.442847
 20
214.524167
 30
0.0
  0
SPLINE
  5
2c8
100
AcDbEntity
  8
0
 62
7
100
AcDbSpline
 70
8
 71
3
 72
8
 73
4
 74
0
 40
0
 40
0
 40
0
 40
0
 40
1
 40
1
 40
1
 40
1
 10
142.442847
 20
214.524167
 30
0.0
 10
137.384406
 20
213.185034
 30
0.0
 10
134.635172
 20
212.216560
 30
0.0
 10
134.082014
 20
211.578472
 30
0.0
  0
SPLINE
  5
2c9
100
AcDbEntity
  8
0
 62
7
100
AcDbSpline
 70
8
 71
3
 72
8
 73
4
 74
0
 40
0
 40
0
 40
0
 40
0
 40
1
 40
1
 40
1
 40
1
 10
134.082014
 20
211.578472
 30
0.0
 10
133.787659
 20
211.238925
 30
0.0
 10
133.412360
 20
210.961111
 30
0.0
 10
133.252986
 20
210.961111
 30
0.0
  0
SPLINE
  5
2ca
100
AcDbEntity
  8
0
 62
7
100
AcDbSpline
 70
8
 71
3
 72
8
 73
4
 74
0
 40
0
 40
0
 40
0
 40
0
 40
1
 40
1
 40
1
 40
1
 10
133.252986
 20
210.961111
 30
0.0
 10
133.093607
 20
210.961111
 30
0.0
 10
132.541391
 20
210.564236
 30
0.0
 10
132.018264
 20
210.079167
 30
0.0
  0
SPLINE
  5
2cb
100
AcDbEntity
  8
0
 62
7
100
AcDbSpline
 70
8
 71
3
 72
8
 73
4
 74
0
 40
0
 40
0
 40
0
 40
0
 40
1
 40
1
 40
1
 40
1
 10
132.018264
 20
210.079167
 30
0.0
 10
131.495140
 20
209.594097
 30
0.0
 10
130.975772
 20
209.197222
 30
0.0
 10
130.871736
 20
209.197222
 30
0.0
  0
SPLINE
  5
2cc
100
AcDbEntity
  8
0
 62
7
100
AcDbSpline
 70
8
 71
3
 72
8
 73
4
 74
0
 40
0
 40
0
 40
0
 40
0
 40
1
 40
1
 40
1
 40
1
 10
130.871736
 20
209.197222
 30
0.0
 10
130.767698
 20
209.197222
 30
0.0
 10
129.910563
 20
210.229097
 30
0.0
 10
128.957917
 20
211.490278
 30
0.0
  0
SPLINE
  5
2cd
100
AcDbEntity
  8
0
 62
7
100
AcDbSpline
 70
8
 71
3
 72
8
 73
4
 74
0
 40
0
 40
0
 40
0
 40
0
 40
1
 40
1
 40
1
 40
1
 10
128.957917
 20
211.490278
 30
0.0
 10
128.005267
 20
212.751458
 30
0.0
 10
127.016854
 20
213.783333
 30
0.0
 10
126.761875
 20
213.783333
 30
0.0
  0
SPLINE
  5
2ce
100
AcDbEntity
  8
0
 62
7
100
AcDbSpline
 70
8
 71
3
 72
8
 73
4
 74
0
 40
0
 40
0
 40
0
 40
0
 40
1
 40
1
 40
1
 40
1
 10
126.761875
 20
213.783333
 30
0.0
 10
126.506893
 20
213.783333
 30
0.0
 10
126.294444
 20
213.937204
 30
0.0
 10
126.294444
 20
214.127292
 30
0.0
  0
SPLINE
  5
2cf
100
AcDbEntity
  8
0
 62
7
100
AcDbSpline
 70
8
 71
3
 72
8
 73
4
 74
0
 40
0
 40
0
 40
0
 40
0
 40
1
 40
1
 40
1
 40
1
 10
126.294444
 20
214.127292
 30
0.0
 10
126.294444
 20
214.317377
 30
0.0
 10
125.699131
 20
214.796539
 30
0.0
 10
124.971528
 20
215.194444
 30
0.0
  0
SPLINE
  5
2d0
100
AcDbEntity
  8
0
 62
7
100
AcDbSpline
 70
8
 71
3
 72
8
 73
4
 74
0
 40
0
 40
0
 40
0
 40
0
 40
1
 40
1
 40
1
 40
1
 10
124.971528
 20
215.194444
 30
0.0
 10
124.243922
 20
215.592347
 30
0.0
 10
122.854861
 20
216.388544
 30
0.0
 10
121.884722
 20
216.958333
 30
0.0
  0
SPLINE
  5
2d1
100
AcDbEntity
  8
0
 62
7
100
AcDbSpline
 70
8
 71
3
 72
8
 73
4
 74
0
 40
0
 40
0
 40
0
 40
0
 40
1
 40
1
 40
1
 40
1
 10
121.884722
 20
216.958333
 30
0.0
 10
120.058699
 20
218.030806
 30
0.0
 10
118.570460
 20
218.444276
 30
0.0
 10
119.662222
 20
217.575694
 30
0.0
  0
SPLINE
  5
2d2
100
AcDbEntity
  8
0
 62
7
100
AcDbSpline
 70
8
 71
3
 72
8
 73
4
 74
0
 40
0
 40
0
 40
0
 40
0
 40
1
 40
1
 40
1
 40
1
 10
119.662222
 20
217.575694
 30
0.0
 10
121.007519
 20
216.505409
 30
0.0
 10
120.662477
 20
213.318454
 30
0.0
 10
119.036042
 20
211.754861
 30
0.0
  0
SPLINE
  5
2d3
100
AcDbEntity
  8
0
 62
7
100
AcDbSpline
 70
8
 71
3
 72
8
 73
4
 74
0
 40
0
 40
0
 40
0
 40
0
 40
1
 40
1
 40
1
 40
1
 10
119.036042
 20
211.754861
 30
0.0
 10
118.581932
 20
211.318300
 30
0.0
 10
118.084439
 20
210.961111
 30
0.0
 10
117.924792
 20
210.961111
 30
0.0
  0
SPLINE
  5
2d4
100
AcDbEntity
  8
0
 62
7
100
AcDbSpline
 70
8
 71
3
 72
8
 73
4
 74
0
 40
0
 40
0
 40
0
 40
0
 40
1
 40
1
 40
1
 40
1
 10
117.924792
 20
210.961111
 30
0.0
 10
117.765147
 20
210.961111
 30
0.0
 10
117.029645
 20
210.379962
 30
0.0
 10
116.293194
 20
209.664653
 30
0.0
  0
SPLINE
  5
2d5
100
AcDbEntity
  8
0
 62
7
100
AcDbSpline
 70
8
 71
3
 72
8
 73
4
 74
0
 40
0
 40
0
 40
0
 40
0
 40
1
 40
1
 40
1
 40
1
 10
116.293194
 20
209.664653
 30
0.0
 10
114.957248
 20
208.367049
 30
0.0
 10
114.952416
 20
208.358813
 30
0.0
 10
115.137847
 20
206.048681
 30
0.0
  0
SPLINE
  5
2d6
100
AcDbEntity
  8
0
 62
7
100
AcDbSpline
 70
8
 71
3
 72
8
 73
4
 74
0
 40
0
 40
0
 40
0
 40
0
 40
1
 40
1
 40
1
 40
1
 10
115.137847
 20
206.048681
 30
0.0
 10
115.483253
 20
201.745537
 30
0.0
 10
115.757477
 20
200.377778
 30
0.0
 10
116.275556
 20
200.377778
 30
0.0
  0
SPLINE
  5
2d7
100
AcDbEntity
  8
0
 62
7
100
AcDbSpline
 70
8
 71
3
 72
8
 73
4
 74
0
 40
0
 40
0
 40
0
 40
0
 40
1
 40
1
 40
1
 40
1
 10
116.275556
 20
200.377778
 30
0.0
 10
117.244893
 20
200.377778
 30
0.0
 10
116.709540
 20
199.839467
 30
0.0
 10
114.908542
 20
198.993125
 30
0.0
  0
SPLINE
  5
2d8
100
AcDbEntity
  8
0
 62
7
100
AcDbSpline
 70
8
 71
3
 72
8
 73
4
 74
0
 40
0
 40
0
 40
0
 40
0
 40
1
 40
1
 40
1
 40
1
 10
114.908542
 20
198.993125
 30
0.0
 10
113.902290
 20
198.520256
 30
0.0
 10
112.389398
 20
197.647131
 30
0.0
 10
111.539514
 20
197.052847
 30
0.0
  0
SPLINE
  5
2d9
100
AcDbEntity
  8
0
 62
7
100
AcDbSpline
 70
8
 71
3
 72
8
 73
4
 74
0
 40
0
 40
0
 40
0
 40
0
 40
1
 40
1
 40
1
 40
1
 10
111.539514
 20
197.052847
 30
0.0
 10
109.492562
 20
195.621512
 30
0.0
 10
108.222071
 20
194.793946
 30
0.0
 10
107.667778
 20
194.521667
 30
0.0
  0
SPLINE
  5
2da
100
AcDbEntity
  8
0
 62
7
100
AcDbSpline
 70
8
 71
3
 72
8
 73
4
 74
0
 40
0
 40
0
 40
0
 40
0
 40
1
 40
1
 40
1
 40
1
 10
107.667778
 20
194.521667
 30
0.0
 10
107.042935
 20
194.214727
 30
0.0
 10
106.186111
 20
192.463784
 30
0.0
 10
106.186111
 20
191.505417
 30
0.0
  0
SPLINE
  5
2db
100
AcDbEntity
  8
0
 62
7
100
AcDbSpline
 70
8
 71
3
 72
8
 73
4
 74
0
 40
0
 40
0
 40
0
 40
0
 40
1
 40
1
 40
1
 40
1
 10
106.186111
 20
191.505417
 30
0.0
 10
106.186111
 20
190.799796
 30
0.0
 10
106.233457
 20
190.777574
 30
0.0
 10
106.627083
 20
191.293750
 30
0.0
  0
SPLINE
  5
2dc
100
AcDbEntity
  8
0
 62
7
100
AcDbSpline
 70
8
 71
3
 72
8
 73
4
 74
0
 40
0
 40
0
 40
0
 40
0
 40
1
 40
1
 40
1
 40
1
 10
106.627083
 20
191.293750
 30
0.0
 10
106.869617
 20
191.611798
 30
0.0
 10
107.530621
 20
191.923083
 30
0.0
 10
108.099931
 20
191.981667
 30
0.0
  0
SPLINE
  5
2dd
100
AcDbEntity
  8
0
 62
7
100
AcDbSpline
 70
8
 71
3
 72
8
 73
4
 74
0
 40
0
 40
0
 40
0
 40
0
 40
1
 40
1
 40
1
 40
1
 10
108.099931
 20
191.981667
 30
0.0
 10
109.014314
 20
192.075765
 30
0.0
 10
109.315961
 20
191.830342
 30
0.0
 10
110.684028
 20
189.882639
 30
0.0
  0
SPLINE
  5
2de
100
AcDbEntity
  8
0
 62
7
100
AcDbSpline
 70
8
 71
3
 72
8
 73
4
 74
0
 40
0
 40
0
 40
0
 40
0
 40
1
 40
1
 40
1
 40
1
 10
110.684028
 20
189.882639
 30
0.0
 10
111.543502
 20
188.659022
 30
0.0
 10
112.499061
 20
187.683775
 30
0.0
 10
112.827153
 20
187.686597
 30
0.0
  0
SPLINE
  5
2df
100
AcDbEntity
  8
0
 62
7
100
AcDbSpline
 70
8
 71
3
 72
8
 73
4
 74
0
 40
0
 40
0
 40
0
 40
0
 40
1
 40
1
 40
1
 40
1
 10
112.827153
 20
187.686597
 30
0.0
 10
113.152309
 20
187.689352
 30
0.0
 10
114.544475
 20
187.414289
 30
0.0
 10
115.922778
 20
187.078056
 30
0.0
  0
SPLINE
  5
2e0
100
AcDbEntity
  8
0
 62
7
100
AcDbSpline
 70
8
 71
3
 72
8
 73
4
 74
0
 40
0
 40
0
 40
0
 40
0
 40
1
 40
1
 40
1
 40
1
 10
115.922778
 20
187.078056
 30
0.0
 10
118.184780
 20
186.526246
 30
0.0
 10
118.502501
 20
186.334152
 30
0.0
 10
119.185972
 20
185.146597
 30
0.0
  0
SPLINE
  5
2e1
100
AcDbEntity
  8
0
 62
7
100
AcDbSpline
 70
8
 71
3
 72
8
 73
4
 74
0
 40
0
 40
0
 40
0
 40
0
 40
1
 40
1
 40
1
 40
1
 10
119.185972
 20
185.146597
 30
0.0
 10
119.602425
 20
184.422991
 30
0.0
 10
119.957243
 20
183.547117
 30
0.0
 10
119.970903
 20
183.197500
 30
0.0
  0
SPLINE
  5
2e2
100
AcDbEntity
  8
0
 62
7
100
AcDbSpline
 70
8
 71
3
 72
8
 73
4
 74
0
 40
0
 40
0
 40
0
 40
0
 40
1
 40
1
 40
1
 40
1
 10
119.970903
 20
183.197500
 30
0.0
 10
119.992925
 20
182.632900
 30
0.0
 10
120.027929
 20
182.641375
 30
0.0
 10
120.297222
 20
183.268056
 30
0.0
  0
SPLINE
  5
2e3
100
AcDbEntity
  8
0
 62
7
100
AcDbSpline
 70
8
 71
3
 72
8
 73
4
 74
0
 40
0
 40
0
 40
0
 40
0
 40
1
 40
1
 40
1
 40
1
 10
120.297222
 20
183.268056
 30
0.0
 10
120.463976
 20
183.656111
 30
0.0
 10
120.609882
 20
185.442050
 30
0.0
 10
120.623542
 20
187.236806
 30
0.0
  0
SPLINE
  5
2e4
100
AcDbEntity
  8
0
 62
7
100
AcDbSpline
 70
8
 71
3
 72
8
 73
4
 74
0
 40
0
 40
0
 40
0
 40
0
 40
1
 40
1
 40
1
 40
1
 10
120.623542
 20
187.236806
 30
0.0
 10
120.637179
 20
189.031564
 30
0.0
 10
120.746097
 20
190.500000
 30
0.0
 10
120.861667
 20
190.500000
 30
0.0
  0
SPLINE
  5
2e5
100
AcDbEntity
  8
0
 62
7
100
AcDbSpline
 70
8
 71
3
 72
8
 73
4
 74
0
 40
0
 40
0
 40
0
 40
0
 40
1
 40
1
 40
1
 40
1
 10
120.861667
 20
190.500000
 30
0.0
 10
120.977237
 20
190.500000
 30
0.0
 10
121.493173
 20
190.202470
 30
0.0
 10
122.008194
 20
189.838542
 30
0.0
  0
SPLINE
  5
2e6
100
AcDbEntity
  8
0
 62
7
100
AcDbSpline
 70
8
 71
3
 72
8
 73
4
 74
0
 40
0
 40
0
 40
0
 40
0
 40
1
 40
1
 40
1
 40
1
 10
122.008194
 20
189.838542
 30
0.0
 10
122.523213
 20
189.474608
 30
0.0
 10
123.458992
 20
189.066695
 30
0.0
 10
124.089583
 20
188.930139
 30
0.0
  0
SPLINE
  5
2e7
100
AcDbEntity
  8
0
 62
7
100
AcDbSpline
 70
8
 71
3
 72
8
 73
4
 74
0
 40
0
 40
0
 40
0
 40
0
 40
1
 40
1
 40
1
 40
1
 10
124.089583
 20
188.930139
 30
0.0
 10
124.720172
 20
188.793586
 30
0.0
 10
125.236111
 20
188.548481
 30
0.0
 10
125.236111
 20
188.392153
 30
0.0
  0
SPLINE
  5
2e8
100
AcDbEntity
  8
0
 62
7
100
AcDbSpline
 70
8
 71
3
 72
8
 73
4
 74
0
 40
0
 40
0
 40
0
 40
0
 40
1
 40
1
 40
1
 40
1
 10
125.236111
 20
188.392153
 30
0.0
 10
125.236111
 20
187.659131
 30
0.0
 10
123.983208
 20
184.227148
 30
0.0
 10
123.410486
 20
183.391528
 30
0.0
  0
SPLINE
  5
2e9
100
AcDbEntity
  8
0
 62
7
100
AcDbSpline
 70
8
 71
3
 72
8
 73
4
 74
0
 40
0
 40
0
 40
0
 40
0
 40
1
 40
1
 40
1
 40
1
 10
123.410486
 20
183.391528
 30
0.0
 10
122.612864
 20
182.227756
 30
0.0
 10
122.542667
 20
179.483408
 30
0.0
 10
123.295833
 20
178.858333
 30
0.0
  0
SPLINE
  5
2ea
100
AcDbEntity
  8
0
 62
7
100
AcDbSpline
 70
8
 71
3
 72
8
 73
4
 74
0
 40
0
 40
0
 40
0
 40
0
 40
1
 40
1
 40
1
 40
1
 10
123.295833
 20
178.858333
 30
0.0
 10
123.586875
 20
178.616791
 30
0.0
 10
123.825000
 20
178.235830
 30
0.0
 10
123.825000
 20
178.011667
 30
0.0
  0
SPLINE
  5
2eb
100
AcDbEntity
  8
0
 62
7
100
AcDbSpline
 70
8
 71
3
 72
8
 73
4
 74
0
 40
0
 40
0
 40
0
 40
0
 40
1
 40
1
 40
1
 40
1
 10
123.825000
 20
178.011667
 30
0.0
 10
123.825000
 20
177.539695
 30
0.0
 10
122.575317
 20
176.388889
 30
0.0
 10
122.061111
 20
176.388889
 30
0.0
  0
SPLINE
  5
2ec
100
AcDbEntity
  8
0
 62
7
100
AcDbSpline
 70
8
 71
3
 72
8
 73
4
 74
0
 40
0
 40
0
 40
0
 40
0
 40
1
 40
1
 40
1
 40
1
 10
122.061111
 20
176.388889
 30
0.0
 10
121.869302
 20
176.388889
 30
0.0
 10
121.708319
 20
176.215624
 30
0.0
 10
121.708333
 20
176.000833
 30
0.0
  0
SPLINE
  5
2ed
100
AcDbEntity
  8
0
 62
7
100
AcDbSpline
 70
8
 71
3
 72
8
 73
4
 74
0
 40
0
 40
0
 40
0
 40
0
 40
1
 40
1
 40
1
 40
1
 10
121.708333
 20
176.000833
 30
0.0
 10
121.708333
 20
175.786028
 30
0.0
 10
121.946458
 20
175.695119
 30
0.0
 10
122.237500
 20
175.806806
 30
0.0
  0
SPLINE
  5
2ee
100
AcDbEntity
  8
0
 62
7
100
AcDbSpline
 70
8
 71
3
 72
8
 73
4
 74
0
 40
0
 40
0
 40
0
 40
0
 40
1
 40
1
 40
1
 40
1
 10
122.237500
 20
175.806806
 30
0.0
 10
122.638253
 20
175.960588
 30
0.0
 10
122.769235
 20
175.740670
 30
0.0
 10
122.784306
 20
174.880764
 30
0.0
  0
LWPOLYLINE
  5
2ef
100
AcDbEntity
  8
0
 62
7
100
AcDbPolyline
 90
3
 70
0
 10
241.573403
 20
102.834722
 30
0.0
 10
241.855625
 20
98.601389
 30
0.0
 10
242.278958
 20
100.365278
 30
0.0
  0
SPLINE
  5
2f0
100
AcDbEntity
  8
0
 62
7
100
AcDbSpline
 70
8
 71
3
 72
8
 73
4
 74
0
 40
0
 40
0
 40
0
 40
0
 40
1
 40
1
 40
1
 40
1
 10
123.225278
 20
174.951319
 30
0.0
 10
123.802775
 20
176.608435
 30
0.0
 10
124.397928
 20
176.680887
 30
0.0
 10
124.689306
 20
175.127708
 30
0.0
  0
SPLINE
  5
2f1
100
AcDbEntity
  8
0
 62
7
100
AcDbSpline
 70
8
 71
3
 72
8
 73
4
 74
0
 40
0
 40
0
 40
0
 40
0
 40
1
 40
1
 40
1
 40
1
 10
124.689306
 20
175.127708
 30
0.0
 10
125.098500
 20
172.946526
 30
0.0
 10
126.644197
 20
170.744444
 30
0.0
 10
127.767292
 20
170.744444
 30
0.0
  0
SPLINE
  5
2f2
100
AcDbEntity
  8
0
 62
7
100
AcDbSpline
 70
8
 71
3
 72
8
 73
4
 74
0
 40
0
 40
0
 40
0
 40
0
 40
1
 40
1
 40
1
 40
1
 10
127.767292
 20
170.744444
 30
0.0
 10
128.608695
 20
170.744444
 30
0.0
 10
128.584102
 20
170.591116
 30
0.0
 10
127.555625
 20
169.562639
 30
0.0
  0
SPLINE
  5
2f3
100
AcDbEntity
  8
0
 62
7
100
AcDbSpline
 70
8
 71
3
 72
8
 73
4
 74
0
 40
0
 40
0
 40
0
 40
0
 40
1
 40
1
 40
1
 40
1
 10
127.555625
 20
169.562639
 30
0.0
 10
127.083414
 20
169.090427
 30
0.0
 10
126.580863
 20
168.089422
 30
0.0
 10
126.444375
 20
167.340139
 30
0.0
  0
SPLINE
  5
2f4
100
AcDbEntity
  8
0
 62
7
100
AcDbSpline
 70
8
 71
3
 72
8
 73
4
 74
0
 40
0
 40
0
 40
0
 40
0
 40
1
 40
1
 40
1
 40
1
 10
126.444375
 20
167.340139
 30
0.0
 10
126.307887
 20
166.590859
 30
0.0
 10
125.878054
 20
165.289092
 30
0.0
 10
125.483056
 20
164.438542
 30
0.0
  0
LWPOLYLINE
  5
2f5
100
AcDbEntity
  8
0
 62
7
100
AcDbPolyline
 90
3
 70
0
 10
122.784306
 20
174.880764
 30
0.0
 10
122.801944
 20
173.743056
 30
0.0
 10
123.225278
 20
174.951319
 30
0.0
  0
SPLINE
  5
2f6
100
AcDbEntity
  8
0
 62
7
100
AcDbSpline
 70
8
 71
3
 72
8
 73
4
 74
0
 40
0
 40
0
 40
0
 40
0
 40
1
 40
1
 40
1
 40
1
 10
119.953264
 20
163.062708
 30
0.0
 10
114.491287
 20
163.259135
 30
0.0
 10
113.408830
 20
163.608774
 30
0.0
 10
110.992708
 20
165.946667
 30
0.0
  0
SPLINE
  5
2f7
100
AcDbEntity
  8
0
 62
7
100
AcDbSpline
 70
8
 71
3
 72
8
 73
4
 74
0
 40
0
 40
0
 40
0
 40
0
 40
1
 40
1
 40
1
 40
1
 10
110.992708
 20
165.946667
 30
0.0
 10
110.169678
 20
166.743044
 30
0.0
 10
108.466836
 20
168.345556
 30
0.0
 10
107.209167
 20
169.509722
 30
0.0
  0
SPLINE
  5
2f8
100
AcDbEntity
  8
0
 62
7
100
AcDbSpline
 70
8
 71
3
 72
8
 73
4
 74
0
 40
0
 40
0
 40
0
 40
0
 40
1
 40
1
 40
1
 40
1
 10
107.209167
 20
169.509722
 30
0.0
 10
104.533195
 20
171.986742
 30
0.0
 10
99.483333
 20
177.365327
 30
0.0
 10
99.483333
 20
177.738264
 30
0.0
  0
SPLINE
  5
2f9
100
AcDbEntity
  8
0
 62
7
100
AcDbSpline
 70
8
 71
3
 72
8
 73
4
 74
0
 40
0
 40
0
 40
0
 40
0
 40
1
 40
1
 40
1
 40
1
 10
99.483333
 20
177.738264
 30
0.0
 10
99.483333
 20
177.879954
 30
0.0
 10
99.205519
 20
178.250892
 30
0.0
 10
98.865972
 20
178.567292
 30
0.0
  0
SPLINE
  5
2fa
100
AcDbEntity
  8
0
 62
7
100
AcDbSpline
 70
8
 71
3
 72
8
 73
4
 74
0
 40
0
 40
0
 40
0
 40
0
 40
1
 40
1
 40
1
 40
1
 10
98.865972
 20
178.567292
 30
0.0
 10
98.526422
 20
178.883691
 30
0.0
 10
97.691750
 20
179.912134
 30
0.0
 10
97.013889
 20
180.851528
 30
0.0
  0
SPLINE
  5
2fb
100
AcDbEntity
  8
0
 62
7
100
AcDbSpline
 70
8
 71
3
 72
8
 73
4
 74
0
 40
0
 40
0
 40
0
 40
0
 40
1
 40
1
 40
1
 40
1
 10
97.013889
 20
180.851528
 30
0.0
 10
96.336025
 20
181.790924
 30
0.0
 10
95.688723
 20
182.641875
 30
0.0
 10
95.576319
 20
182.738889
 30
0.0
  0
SPLINE
  5
2fc
100
AcDbEntity
  8
0
 62
7
100
AcDbSpline
 70
8
 71
3
 72
8
 73
4
 74
0
 40
0
 40
0
 40
0
 40
0
 40
1
 40
1
 40
1
 40
1
 10
95.576319
 20
182.738889
 30
0.0
 10
95.463919
 20
182.835903
 30
0.0
 10
95.258331
 20
183.153403
 30
0.0
 10
95.117708
 20
183.444444
 30
0.0
  0
SPLINE
  5
2fd
100
AcDbEntity
  8
0
 62
7
100
AcDbSpline
 70
8
 71
3
 72
8
 73
4
 74
0
 40
0
 40
0
 40
0
 40
0
 40
1
 40
1
 40
1
 40
1
 10
95.117708
 20
183.444444
 30
0.0
 10
94.977083
 20
183.735486
 30
0.0
 10
94.483182
 20
184.608611
 30
0.0
 10
94.015278
 20
185.384722
 30
0.0
  0
SPLINE
  5
2fe
100
AcDbEntity
  8
0
 62
7
100
AcDbSpline
 70
8
 71
3
 72
8
 73
4
 74
0
 40
0
 40
0
 40
0
 40
0
 40
1
 40
1
 40
1
 40
1
 10
94.015278
 20
185.384722
 30
0.0
 10
91.966090
 20
188.783666
 30
0.0
 10
90.311238
 20
192.112601
 30
0.0
 10
89.102847
 20
195.262500
 30
0.0
  0
SPLINE
  5
2ff
100
AcDbEntity
  8
0
 62
7
100
AcDbSpline
 70
8
 71
3
 72
8
 73
4
 74
0
 40
0
 40
0
 40
0
 40
0
 40
1
 40
1
 40
1
 40
1
 10
89.102847
 20
195.262500
 30
0.0
 10
88.581806
 20
196.620694
 30
0.0
 10
87.807941
 20
198.514820
 30
0.0
 10
87.383056
 20
199.469375
 30
0.0
  0
SPLINE
  5
300
100
AcDbEntity
  8
0
 62
7
100
AcDbSpline
 70
8
 71
3
 72
8
 73
4
 74
0
 40
0
 40
0
 40
0
 40
0
 40
1
 40
1
 40
1
 40
1
 10
87.383056
 20
199.469375
 30
0.0
 10
86.400067
 20
201.677761
 30
0.0
 10
86.429870
 20
205.726922
 30
0.0
 10
87.471250
 20
210.731806
 30
0.0
  0
SPLINE
  5
301
100
AcDbEntity
  8
0
 62
7
100
AcDbSpline
 70
8
 71
3
 72
8
 73
4
 74
0
 40
0
 40
0
 40
0
 40
0
 40
1
 40
1
 40
1
 40
1
 10
87.471250
 20
210.731806
 30
0.0
 10
87.869319
 20
212.644934
 30
0.0
 10
88.194444
 20
214.683419
 30
0.0
 10
88.194444
 20
215.256181
 30
0.0
  0
SPLINE
  5
302
100
AcDbEntity
  8
0
 62
7
100
AcDbSpline
 70
8
 71
3
 72
8
 73
4
 74
0
 40
0
 40
0
 40
0
 40
0
 40
1
 40
1
 40
1
 40
1
 10
88.194444
 20
215.256181
 30
0.0
 10
88.194444
 20
215.828948
 30
0.0
 10
88.519440
 20
217.830267
 30
0.0
 10
88.917639
 20
219.710000
 30
0.0
  0
SPLINE
  5
303
100
AcDbEntity
  8
0
 62
7
100
AcDbSpline
 70
8
 71
3
 72
8
 73
4
 74
0
 40
0
 40
0
 40
0
 40
0
 40
1
 40
1
 40
1
 40
1
 10
88.917639
 20
219.710000
 30
0.0
 10
89.315838
 20
221.589727
 30
0.0
 10
89.972648
 20
224.719444
 30
0.0
 10
90.372847
 20
226.659722
 30
0.0
  0
SPLINE
  5
304
100
AcDbEntity
  8
0
 62
7
100
AcDbSpline
 70
8
 71
3
 72
8
 73
4
 74
0
 40
0
 40
0
 40
0
 40
0
 40
1
 40
1
 40
1
 40
1
 10
90.372847
 20
226.659722
 30
0.0
 10
90.773047
 20
228.600000
 30
0.0
 10
91.400554
 20
231.208749
 30
0.0
 10
91.766319
 20
232.454097
 30
0.0
  0
SPLINE
  5
305
100
AcDbEntity
  8
0
 62
7
100
AcDbSpline
 70
8
 71
3
 72
8
 73
4
 74
0
 40
0
 40
0
 40
0
 40
0
 40
1
 40
1
 40
1
 40
1
 10
91.766319
 20
232.454097
 30
0.0
 10
92.132085
 20
233.699448
 30
0.0
 10
92.427778
 20
234.942002
 30
0.0
 10
92.427778
 20
235.223403
 30
0.0
  0
SPLINE
  5
306
100
AcDbEntity
  8
0
 62
7
100
AcDbSpline
 70
8
 71
3
 72
8
 73
4
 74
0
 40
0
 40
0
 40
0
 40
0
 40
1
 40
1
 40
1
 40
1
 10
92.427778
 20
235.223403
 30
0.0
 10
92.427778
 20
235.704467
 30
0.0
 10
92.875927
 20
237.232026
 30
0.0
 10
94.615000
 20
242.711111
 30
0.0
  0
SPLINE
  5
307
100
AcDbEntity
  8
0
 62
7
100
AcDbSpline
 70
8
 71
3
 72
8
 73
4
 74
0
 40
0
 40
0
 40
0
 40
0
 40
1
 40
1
 40
1
 40
1
 10
94.615000
 20
242.711111
 30
0.0
 10
95.547378
 20
245.648641
 30
0.0
 10
97.198299
 20
249.078174
 30
0.0
 10
98.910069
 20
251.618750
 30
0.0
  0
SPLINE
  5
308
100
AcDbEntity
  8
0
 62
7
100
AcDbSpline
 70
8
 71
3
 72
8
 73
4
 74
0
 40
0
 40
0
 40
0
 40
0
 40
1
 40
1
 40
1
 40
1
 10
98.910069
 20
251.618750
 30
0.0
 10
99.757507
 20
252.876493
 30
0.0
 10
101.106512
 20
252.888510
 30
0.0
 10
102.437847
 20
251.654028
 30
0.0
  0
SPLINE
  5
309
100
AcDbEntity
  8
0
 62
7
100
AcDbSpline
 70
8
 71
3
 72
8
 73
4
 74
0
 40
0
 40
0
 40
0
 40
0
 40
1
 40
1
 40
1
 40
1
 10
102.437847
 20
251.654028
 30
0.0
 10
103.886872
 20
250.310416
 30
0.0
 10
104.521212
 20
248.529675
 30
0.0
 10
104.554514
 20
245.700903
 30
0.0
  0
SPLINE
  5
30a
100
AcDbEntity
  8
0
 62
7
100
AcDbSpline
 70
8
 71
3
 72
8
 73
4
 74
0
 40
0
 40
0
 40
0
 40
0
 40
1
 40
1
 40
1
 40
1
 10
104.554514
 20
245.700903
 30
0.0
 10
104.594928
 20
242.266896
 30
0.0
 10
103.761718
 20
240.818077
 30
0.0
 10
101.670556
 20
240.665000
 30
0.0
  0
SPLINE
  5
30b
100
AcDbEntity
  8
0
 62
7
100
AcDbSpline
 70
8
 71
3
 72
8
 73
4
 74
0
 40
0
 40
0
 40
0
 40
0
 40
1
 40
1
 40
1
 40
1
 10
101.670556
 20
240.665000
 30
0.0
 10
99.927212
 20
240.537382
 30
0.0
 10
99.775394
 20
240.142110
 30
0.0
 10
101.238403
 20
239.536111
 30
0.0
  0
SPLINE
  5
30c
100
AcDbEntity
  8
0
 62
7
100
AcDbSpline
 70
8
 71
3
 72
8
 73
4
 74
0
 40
0
 40
0
 40
0
 40
0
 40
1
 40
1
 40
1
 40
1
 10
101.238403
 20
239.536111
 30
0.0
 10
102.666526
 20
238.944565
 30
0.0
 10
104.650060
 20
239.356302
 30
0.0
 10
105.171875
 20
240.347500
 30
0.0
  0
SPLINE
  5
30d
100
AcDbEntity
  8
0
 62
7
100
AcDbSpline
 70
8
 71
3
 72
8
 73
4
 74
0
 40
0
 40
0
 40
0
 40
0
 40
1
 40
1
 40
1
 40
1
 10
105.171875
 20
240.347500
 30
0.0
 10
105.397306
 20
240.775713
 30
0.0
 10
105.734815
 20
241.222203
 30
0.0
 10
105.921528
 20
241.344097
 30
0.0
  0
SPLINE
  5
30e
100
AcDbEntity
  8
0
 62
7
100
AcDbSpline
 70
8
 71
3
 72
8
 73
4
 74
0
 40
0
 40
0
 40
0
 40
0
 40
1
 40
1
 40
1
 40
1
 10
105.921528
 20
241.344097
 30
0.0
 10
106.108240
 20
241.465995
 30
0.0
 10
106.397131
 20
242.180370
 30
0.0
 10
106.556528
 20
242.931597
 30
0.0
  0
SPLINE
  5
30f
100
AcDbEntity
  8
0
 62
7
100
AcDbSpline
 70
8
 71
3
 72
8
 73
4
 74
0
 40
0
 40
0
 40
0
 40
0
 40
1
 40
1
 40
1
 40
1
 10
106.556528
 20
242.931597
 30
0.0
 10
106.715924
 20
243.682828
 30
0.0
 10
107.006870
 20
244.933611
 30
0.0
 10
107.209167
 20
245.709722
 30
0.0
  0
SPLINE
  5
310
100
AcDbEntity
  8
0
 62
7
100
AcDbSpline
 70
8
 71
3
 72
8
 73
4
 74
0
 40
0
 40
0
 40
0
 40
0
 40
1
 40
1
 40
1
 40
1
 10
107.209167
 20
245.709722
 30
0.0
 10
108.099476
 20
249.125334
 30
0.0
 10
107.413798
 20
252.157095
 30
0.0
 10
104.660347
 20
256.892778
 30
0.0
  0
SPLINE
  5
311
100
AcDbEntity
  8
0
 62
7
100
AcDbSpline
 70
8
 71
3
 72
8
 73
4
 74
0
 40
0
 40
0
 40
0
 40
0
 40
1
 40
1
 40
1
 40
1
 10
104.660347
 20
256.892778
 30
0.0
 10
103.658388
 20
258.616058
 30
0.0
 10
102.629236
 20
260.419641
 30
0.0
 10
102.376111
 20
260.896806
 30
0.0
  0
SPLINE
  5
312
100
AcDbEntity
  8
0
 62
7
100
AcDbSpline
 70
8
 71
3
 72
8
 73
4
 74
0
 40
0
 40
0
 40
0
 40
0
 40
1
 40
1
 40
1
 40
1
 10
102.376111
 20
260.896806
 30
0.0
 10
101.965356
 20
261.671125
 30
0.0
 10
101.684684
 20
261.761111
 30
0.0
 10
99.792014
 20
261.761111
 30
0.0
  0
LWPOLYLINE
  5
313
100
AcDbEntity
  8
0
 62
7
100
AcDbPolyline
 90
3
 70
0
 10
125.483056
 20
164.438542
 30
0.0
 10
124.759861
 20
162.886319
 30
0.0
 10
119.953264
 20
163.062708
 30
0.0
  0
SPLINE
  5
314
100
AcDbEntity
  8
0
 62
7
100
AcDbSpline
 70
8
 71
3
 72
8
 73
4
 74
0
 40
0
 40
0
 40
0
 40
0
 40
1
 40
1
 40
1
 40
1
 10
170.065347
 20
197.546736
 30
0.0
 10
170.461302
 20
197.556041
 30
0.0
 10
170.744444
 20
197.387893
 30
0.0
 10
170.744444
 20
197.026389
 30
0.0
  0
SPLINE
  5
315
100
AcDbEntity
  8
0
 62
7
100
AcDbSpline
 70
8
 71
3
 72
8
 73
4
 74
0
 40
0
 40
0
 40
0
 40
0
 40
1
 40
1
 40
1
 40
1
 10
170.744444
 20
197.026389
 30
0.0
 10
170.744444
 20
196.735347
 30
0.0
 10
171.379444
 20
195.862222
 30
0.0
 10
172.155556
 20
195.086111
 30
0.0
  0
LWPOLYLINE
  5
316
100
AcDbEntity
  8
0
 62
7
100
AcDbPolyline
 90
2
 70
0
 10
99.792014
 20
261.761111
 30
0.0
 10
99.792014
 20
261.761111
 30
0.0
  0
SPLINE
  5
317
100
AcDbEntity
  8
0
 62
7
100
AcDbSpline
 70
8
 71
3
 72
8
 73
4
 74
0
 40
0
 40
0
 40
0
 40
0
 40
1
 40
1
 40
1
 40
1
 10
172.596528
 20
193.701458
 30
0.0
 10
171.518961
 20
193.727982
 30
0.0
 10
170.038889
 20
194.339295
 30
0.0
 10
170.038889
 20
194.759792
 30
0.0
  0
SPLINE
  5
318
100
AcDbEntity
  8
0
 62
7
100
AcDbSpline
 70
8
 71
3
 72
8
 73
4
 74
0
 40
0
 40
0
 40
0
 40
0
 40
1
 40
1
 40
1
 40
1
 10
170.038889
 20
194.759792
 30
0.0
 10
170.038889
 20
194.909121
 30
0.0
 10
169.478909
 20
195.213295
 30
0.0
 10
168.795347
 20
195.438889
 30
0.0
  0
LWPOLYLINE
  5
319
100
AcDbEntity
  8
0
 62
7
100
AcDbPolyline
 90
3
 70
0
 10
172.155556
 20
195.086111
 30
0.0
 10
173.566667
 20
193.675000
 30
0.0
 10
172.596528
 20
193.701458
 30
0.0
  0
SPLINE
  5
31a
100
AcDbEntity
  8
0
 62
7
100
AcDbSpline
 70
8
 71
3
 72
8
 73
4
 74
0
 40
0
 40
0
 40
0
 40
0
 40
1
 40
1
 40
1
 40
1
 10
168.354375
 20
196.700069
 30
0.0
 10
168.861136
 20
197.234604
 30
0.0
 10
169.556263
 20
197.534773
 30
0.0
 10
170.065347
 20
197.546736
 30
0.0
  0
LWPOLYLINE
  5
31b
100
AcDbEntity
  8
0
 62
7
100
AcDbPolyline
 90
3
 70
0
 10
168.795347
 20
195.438889
 30
0.0
 10
167.551806
 20
195.853403
 30
0.0
 10
168.354375
 20
196.700069
 30
0.0
  0
SPLINE
  5
31c
100
AcDbEntity
  8
0
 62
7
100
AcDbSpline
 70
8
 71
3
 72
8
 73
4
 74
0
 40
0
 40
0
 40
0
 40
0
 40
1
 40
1
 40
1
 40
1
 10
121.725972
 20
193.322222
 30
0.0
 10
121.908550
 20
193.322222
 30
0.0
 10
122.061111
 20
193.163472
 30
0.0
 10
122.061111
 20
192.969444
 30
0.0
  0
SPLINE
  5
31d
100
AcDbEntity
  8
0
 62
7
100
AcDbSpline
 70
8
 71
3
 72
8
 73
4
 74
0
 40
0
 40
0
 40
0
 40
0
 40
1
 40
1
 40
1
 40
1
 10
122.061111
 20
192.969444
 30
0.0
 10
122.061111
 20
192.775417
 30
0.0
 10
121.816800
 20
192.616667
 30
0.0
 10
121.514306
 20
192.616667
 30
0.0
  0
SPLINE
  5
31e
100
AcDbEntity
  8
0
 62
7
100
AcDbSpline
 70
8
 71
3
 72
8
 73
4
 74
0
 40
0
 40
0
 40
0
 40
0
 40
1
 40
1
 40
1
 40
1
 10
121.514306
 20
192.616667
 30
0.0
 10
121.211806
 20
192.616667
 30
0.0
 10
121.059250
 20
192.775417
 30
0.0
 10
121.179167
 20
192.969444
 30
0.0
  0
SPLINE
  5
31f
100
AcDbEntity
  8
0
 62
7
100
AcDbSpline
 70
8
 71
3
 72
8
 73
4
 74
0
 40
0
 40
0
 40
0
 40
0
 40
1
 40
1
 40
1
 40
1
 10
121.179167
 20
192.969444
 30
0.0
 10
121.299083
 20
193.163472
 30
0.0
 10
121.543397
 20
193.322222
 30
0.0
 10
121.725972
 20
193.322222
 30
0.0
  0
LWPOLYLINE
  5
320
100
AcDbEntity
  8
0
 62
7
100
AcDbPolyline
 90
2
 70
0
 10
170.065347
 20
197.546736
 30
0.0
 10
170.065347
 20
197.546736
 30
0.0
  0
SPLINE
  5
321
100
AcDbEntity
  8
0
 62
7
100
AcDbSpline
 70
8
 71
3
 72
8
 73
4
 74
0
 40
0
 40
0
 40
0
 40
0
 40
1
 40
1
 40
1
 40
1
 10
174.245764
 20
193.066458
 30
0.0
 10
174.642585
 20
193.084515
 30
0.0
 10
174.863856
 20
192.941160
 30
0.0
 10
175.189444
 20
192.581389
 30
0.0
  0
SPLINE
  5
322
100
AcDbEntity
  8
0
 62
7
100
AcDbSpline
 70
8
 71
3
 72
8
 73
4
 74
0
 40
0
 40
0
 40
0
 40
0
 40
1
 40
1
 40
1
 40
1
 10
175.189444
 20
192.581389
 30
0.0
 10
175.521233
 20
192.214768
 30
0.0
 10
176.165928
 20
191.911111
 30
0.0
 10
176.627014
 20
191.911111
 30
0.0
  0
SPLINE
  5
323
100
AcDbEntity
  8
0
 62
7
100
AcDbSpline
 70
8
 71
3
 72
8
 73
4
 74
0
 40
0
 40
0
 40
0
 40
0
 40
1
 40
1
 40
1
 40
1
 10
176.627014
 20
191.911111
 30
0.0
 10
177.601629
 20
191.911111
 30
0.0
 10
177.490366
 20
192.223060
 30
0.0
 10
178.452639
 20
186.795833
 30
0.0
  0
SPLINE
  5
324
100
AcDbEntity
  8
0
 62
7
100
AcDbSpline
 70
8
 71
3
 72
8
 73
4
 74
0
 40
0
 40
0
 40
0
 40
0
 40
1
 40
1
 40
1
 40
1
 10
178.452639
 20
186.795833
 30
0.0
 10
179.382764
 20
181.549901
 30
0.0
 10
179.916667
 20
177.197467
 30
0.0
 10
179.916667
 20
174.801389
 30
0.0
  0
LWPOLYLINE
  5
325
100
AcDbEntity
  8
0
 62
7
100
AcDbPolyline
 90
2
 70
0
 10
121.725972
 20
193.322222
 30
0.0
 10
121.725972
 20
193.322222
 30
0.0
  0
SPLINE
  5
326
100
AcDbEntity
  8
0
 62
7
100
AcDbSpline
 70
8
 71
3
 72
8
 73
4
 74
0
 40
0
 40
0
 40
0
 40
0
 40
1
 40
1
 40
1
 40
1
 10
177.297292
 20
172.208472
 30
0.0
 10
175.858830
 20
171.790507
 30
0.0
 10
174.539710
 20
171.450000
 30
0.0
 10
174.360417
 20
171.450000
 30
0.0
  0
SPLINE
  5
327
100
AcDbEntity
  8
0
 62
7
100
AcDbSpline
 70
8
 71
3
 72
8
 73
4
 74
0
 40
0
 40
0
 40
0
 40
0
 40
1
 40
1
 40
1
 40
1
 10
174.360417
 20
171.450000
 30
0.0
 10
174.181127
 20
171.450000
 30
0.0
 10
173.611004
 20
172.301016
 30
0.0
 10
173.099236
 20
173.346181
 30
0.0
  0
SPLINE
  5
328
100
AcDbEntity
  8
0
 62
7
100
AcDbSpline
 70
8
 71
3
 72
8
 73
4
 74
0
 40
0
 40
0
 40
0
 40
0
 40
1
 40
1
 40
1
 40
1
 10
173.099236
 20
173.346181
 30
0.0
 10
171.847592
 20
175.902377
 30
0.0
 10
170.270571
 20
176.875835
 30
0.0
 10
167.331319
 20
176.900417
 30
0.0
  0
SPLINE
  5
329
100
AcDbEntity
  8
0
 62
7
100
AcDbSpline
 70
8
 71
3
 72
8
 73
4
 74
0
 40
0
 40
0
 40
0
 40
0
 40
1
 40
1
 40
1
 40
1
 10
167.331319
 20
176.900417
 30
0.0
 10
166.133568
 20
176.910427
 30
0.0
 10
165.045796
 20
177.033995
 30
0.0
 10
164.914792
 20
177.165000
 30
0.0
  0
SPLINE
  5
32a
100
AcDbEntity
  8
0
 62
7
100
AcDbSpline
 70
8
 71
3
 72
8
 73
4
 74
0
 40
0
 40
0
 40
0
 40
0
 40
1
 40
1
 40
1
 40
1
 10
164.914792
 20
177.165000
 30
0.0
 10
164.502234
 20
177.577558
 30
0.0
 10
165.937032
 20
179.209954
 30
0.0
 10
166.511111
 20
178.981806
 30
0.0
  0
SPLINE
  5
32b
100
AcDbEntity
  8
0
 62
7
100
AcDbSpline
 70
8
 71
3
 72
8
 73
4
 74
0
 40
0
 40
0
 40
0
 40
0
 40
1
 40
1
 40
1
 40
1
 10
166.511111
 20
178.981806
 30
0.0
 10
166.802153
 20
178.866140
 30
0.0
 10
167.449322
 20
178.608324
 30
0.0
 10
167.948681
 20
178.408542
 30
0.0
  0
SPLINE
  5
32c
100
AcDbEntity
  8
0
 62
7
100
AcDbSpline
 70
8
 71
3
 72
8
 73
4
 74
0
 40
0
 40
0
 40
0
 40
0
 40
1
 40
1
 40
1
 40
1
 10
167.948681
 20
178.408542
 30
0.0
 10
168.473732
 20
178.198481
 30
0.0
 10
169.291951
 20
178.166722
 30
0.0
 10
169.888958
 20
178.329167
 30
0.0
  0
SPLINE
  5
32d
100
AcDbEntity
  8
0
 62
7
100
AcDbSpline
 70
8
 71
3
 72
8
 73
4
 74
0
 40
0
 40
0
 40
0
 40
0
 40
1
 40
1
 40
1
 40
1
 10
169.888958
 20
178.329167
 30
0.0
 10
170.908816
 20
178.606662
 30
0.0
 10
170.912454
 20
178.612602
 30
0.0
 10
170.074167
 20
178.831875
 30
0.0
  0
SPLINE
  5
32e
100
AcDbEntity
  8
0
 62
7
100
AcDbSpline
 70
8
 71
3
 72
8
 73
4
 74
0
 40
0
 40
0
 40
0
 40
0
 40
1
 40
1
 40
1
 40
1
 10
170.074167
 20
178.831875
 30
0.0
 10
168.647404
 20
179.205077
 30
0.0
 10
168.409267
 20
180.015656
 30
0.0
 10
169.430347
 20
181.036736
 30
0.0
  0
SPLINE
  5
32f
100
AcDbEntity
  8
0
 62
7
100
AcDbSpline
 70
8
 71
3
 72
8
 73
4
 74
0
 40
0
 40
0
 40
0
 40
0
 40
1
 40
1
 40
1
 40
1
 10
169.430347
 20
181.036736
 30
0.0
 10
169.922602
 20
181.528991
 30
0.0
 10
170.608238
 20
182.834757
 30
0.0
 10
170.956111
 20
183.938333
 30
0.0
  0
SPLINE
  5
330
100
AcDbEntity
  8
0
 62
7
100
AcDbSpline
 70
8
 71
3
 72
8
 73
4
 74
0
 40
0
 40
0
 40
0
 40
0
 40
1
 40
1
 40
1
 40
1
 10
170.956111
 20
183.938333
 30
0.0
 10
171.473439
 20
185.579489
 30
0.0
 10
171.802326
 20
186.043768
 30
0.0
 10
172.755278
 20
186.495972
 30
0.0
  0
SPLINE
  5
331
100
AcDbEntity
  8
0
 62
7
100
AcDbSpline
 70
8
 71
3
 72
8
 73
4
 74
0
 40
0
 40
0
 40
0
 40
0
 40
1
 40
1
 40
1
 40
1
 10
172.755278
 20
186.495972
 30
0.0
 10
174.016560
 20
187.094492
 30
0.0
 10
174.339010
 20
187.718138
 30
0.0
 10
173.240347
 20
187.430833
 30
0.0
  0
SPLINE
  5
332
100
AcDbEntity
  8
0
 62
7
100
AcDbSpline
 70
8
 71
3
 72
8
 73
4
 74
0
 40
0
 40
0
 40
0
 40
0
 40
1
 40
1
 40
1
 40
1
 10
173.240347
 20
187.430833
 30
0.0
 10
172.637185
 20
187.273102
 30
0.0
 10
172.589376
 20
187.411035
 30
0.0
 10
172.755278
 20
188.647917
 30
0.0
  0
SPLINE
  5
333
100
AcDbEntity
  8
0
 62
7
100
AcDbSpline
 70
8
 71
3
 72
8
 73
4
 74
0
 40
0
 40
0
 40
0
 40
0
 40
1
 40
1
 40
1
 40
1
 10
172.755278
 20
188.647917
 30
0.0
 10
172.879227
 20
189.572011
 30
0.0
 10
172.736406
 20
190.414015
 30
0.0
 10
172.340764
 20
191.179097
 30
0.0
  0
SPLINE
  5
334
100
AcDbEntity
  8
0
 62
7
100
AcDbSpline
 70
8
 71
3
 72
8
 73
4
 74
0
 40
0
 40
0
 40
0
 40
0
 40
1
 40
1
 40
1
 40
1
 10
172.340764
 20
191.179097
 30
0.0
 10
172.014106
 20
191.810790
 30
0.0
 10
171.801703
 20
192.362399
 30
0.0
 10
171.864514
 20
192.405000
 30
0.0
  0
SPLINE
  5
335
100
AcDbEntity
  8
0
 62
7
100
AcDbSpline
 70
8
 71
3
 72
8
 73
4
 74
0
 40
0
 40
0
 40
0
 40
0
 40
1
 40
1
 40
1
 40
1
 10
171.864514
 20
192.405000
 30
0.0
 10
171.927331
 20
192.447596
 30
0.0
 10
172.567513
 20
192.654637
 30
0.0
 10
173.284444
 20
192.863611
 30
0.0
  0
SPLINE
  5
336
100
AcDbEntity
  8
0
 62
7
100
AcDbSpline
 70
8
 71
3
 72
8
 73
4
 74
0
 40
0
 40
0
 40
0
 40
0
 40
1
 40
1
 40
1
 40
1
 10
173.284444
 20
192.863611
 30
0.0
 10
173.706570
 20
192.986654
 30
0.0
 10
174.007670
 20
193.055624
 30
0.0
 10
174.245764
 20
193.066458
 30
0.0
  0
LWPOLYLINE
  5
337
100
AcDbEntity
  8
0
 62
7
100
AcDbPolyline
 90
3
 70
0
 10
179.916667
 20
174.801389
 30
0.0
 10
179.916667
 20
172.966944
 30
0.0
 10
177.297292
 20
172.208472
 30
0.0
  0
SPLINE
  5
338
100
AcDbEntity
  8
0
 62
7
100
AcDbSpline
 70
8
 71
3
 72
8
 73
4
 74
0
 40
0
 40
0
 40
0
 40
0
 40
1
 40
1
 40
1
 40
1
 10
170.515139
 20
189.353472
 30
0.0
 10
170.560972
 20
189.372850
 30
0.0
 10
170.687410
 20
189.284113
 30
0.0
 10
170.912014
 20
189.097708
 30
0.0
  0
SPLINE
  5
339
100
AcDbEntity
  8
0
 62
7
100
AcDbSpline
 70
8
 71
3
 72
8
 73
4
 74
0
 40
0
 40
0
 40
0
 40
0
 40
1
 40
1
 40
1
 40
1
 10
170.912014
 20
189.097708
 30
0.0
 10
171.207495
 20
188.852480
 30
0.0
 10
171.450000
 20
188.588879
 30
0.0
 10
171.450000
 20
188.515625
 30
0.0
  0
SPLINE
  5
33a
100
AcDbEntity
  8
0
 62
7
100
AcDbSpline
 70
8
 71
3
 72
8
 73
4
 74
0
 40
0
 40
0
 40
0
 40
0
 40
1
 40
1
 40
1
 40
1
 10
171.450000
 20
188.515625
 30
0.0
 10
171.450000
 20
188.120395
 30
0.0
 10
170.784272
 20
188.470918
 30
0.0
 10
170.594514
 20
188.965417
 30
0.0
  0
SPLINE
  5
33b
100
AcDbEntity
  8
0
 62
7
100
AcDbSpline
 70
8
 71
3
 72
8
 73
4
 74
0
 40
0
 40
0
 40
0
 40
0
 40
1
 40
1
 40
1
 40
1
 10
170.594514
 20
188.965417
 30
0.0
 10
170.501618
 20
189.207507
 30
0.0
 10
170.469306
 20
189.334095
 30
0.0
 10
170.515139
 20
189.353472
 30
0.0
  0
LWPOLYLINE
  5
33c
100
AcDbEntity
  8
0
 62
7
100
AcDbPolyline
 90
2
 70
0
 10
174.245764
 20
193.066458
 30
0.0
 10
174.245764
 20
193.066458
 30
0.0
  0
SPLINE
  5
33d
100
AcDbEntity
  8
0
 62
7
100
AcDbSpline
 70
8
 71
3
 72
8
 73
4
 74
0
 40
0
 40
0
 40
0
 40
0
 40
1
 40
1
 40
1
 40
1
 10
170.506319
 20
186.548889
 30
0.0
 10
170.579040
 20
186.539672
 30
0.0
 10
170.679612
 20
186.472613
 30
0.0
 10
170.806181
 20
186.346042
 30
0.0
  0
SPLINE
  5
33e
100
AcDbEntity
  8
0
 62
7
100
AcDbSpline
 70
8
 71
3
 72
8
 73
4
 74
0
 40
0
 40
0
 40
0
 40
0
 40
1
 40
1
 40
1
 40
1
 10
170.806181
 20
186.346042
 30
0.0
 10
171.035780
 20
186.116440
 30
0.0
 10
171.144554
 20
185.846565
 30
0.0
 10
171.044306
 20
185.746319
 30
0.0
  0
SPLINE
  5
33f
100
AcDbEntity
  8
0
 62
7
100
AcDbSpline
 70
8
 71
3
 72
8
 73
4
 74
0
 40
0
 40
0
 40
0
 40
0
 40
1
 40
1
 40
1
 40
1
 10
171.044306
 20
185.746319
 30
0.0
 10
170.808864
 20
185.510878
 30
0.0
 10
170.391667
 20
185.928076
 30
0.0
 10
170.391667
 20
186.398958
 30
0.0
  0
SPLINE
  5
340
100
AcDbEntity
  8
0
 62
7
100
AcDbSpline
 70
8
 71
3
 72
8
 73
4
 74
0
 40
0
 40
0
 40
0
 40
0
 40
1
 40
1
 40
1
 40
1
 10
170.391667
 20
186.398958
 30
0.0
 10
170.391667
 20
186.509485
 30
0.0
 10
170.433599
 20
186.558106
 30
0.0
 10
170.506319
 20
186.548889
 30
0.0
  0
LWPOLYLINE
  5
341
100
AcDbEntity
  8
0
 62
7
100
AcDbPolyline
 90
2
 70
0
 10
170.515139
 20
189.353472
 30
0.0
 10
170.515139
 20
189.353472
 30
0.0
  0
SPLINE
  5
342
100
AcDbEntity
  8
0
 62
7
100
AcDbSpline
 70
8
 71
3
 72
8
 73
4
 74
0
 40
0
 40
0
 40
0
 40
0
 40
1
 40
1
 40
1
 40
1
 10
124.054306
 20
181.521806
 30
0.0
 10
124.122790
 20
181.528353
 30
0.0
 10
124.136333
 20
181.164574
 30
0.0
 10
124.151319
 20
180.357639
 30
0.0
  0
SPLINE
  5
343
100
AcDbEntity
  8
0
 62
7
100
AcDbSpline
 70
8
 71
3
 72
8
 73
4
 74
0
 40
0
 40
0
 40
0
 40
0
 40
1
 40
1
 40
1
 40
1
 10
124.151319
 20
180.357639
 30
0.0
 10
124.179666
 20
178.831694
 30
0.0
 10
123.962487
 20
178.445818
 30
0.0
 10
123.604514
 20
179.378681
 30
0.0
  0
SPLINE
  5
344
100
AcDbEntity
  8
0
 62
7
100
AcDbSpline
 70
8
 71
3
 72
8
 73
4
 74
0
 40
0
 40
0
 40
0
 40
0
 40
1
 40
1
 40
1
 40
1
 10
123.604514
 20
179.378681
 30
0.0
 10
123.495288
 20
179.663324
 30
0.0
 10
123.566250
 20
180.338010
 30
0.0
 10
123.763264
 20
180.877986
 30
0.0
  0
SPLINE
  5
345
100
AcDbEntity
  8
0
 62
7
100
AcDbSpline
 70
8
 71
3
 72
8
 73
4
 74
0
 40
0
 40
0
 40
0
 40
0
 40
1
 40
1
 40
1
 40
1
 10
123.763264
 20
180.877986
 30
0.0
 10
123.913209
 20
181.288964
 30
0.0
 10
124.001039
 20
181.516711
 30
0.0
 10
124.054306
 20
181.521806
 30
0.0
  0
LWPOLYLINE
  5
346
100
AcDbEntity
  8
0
 62
7
100
AcDbPolyline
 90
2
 70
0
 10
170.506319
 20
186.548889
 30
0.0
 10
170.506319
 20
186.548889
 30
0.0
  0
SPLINE
  5
347
100
AcDbEntity
  8
0
 62
7
100
AcDbSpline
 70
8
 71
3
 72
8
 73
4
 74
0
 40
0
 40
0
 40
0
 40
0
 40
1
 40
1
 40
1
 40
1
 10
163.971111
 20
179.167014
 30
0.0
 10
164.030951
 20
179.159693
 30
0.0
 10
164.015530
 20
179.019180
 30
0.0
 10
163.918194
 20
178.743681
 30
0.0
  0
SPLINE
  5
348
100
AcDbEntity
  8
0
 62
7
100
AcDbSpline
 70
8
 71
3
 72
8
 73
4
 74
0
 40
0
 40
0
 40
0
 40
0
 40
1
 40
1
 40
1
 40
1
 10
163.918194
 20
178.743681
 30
0.0
 10
163.792625
 20
178.388264
 30
0.0
 10
163.688889
 20
177.872328
 30
0.0
 10
163.688889
 20
177.597153
 30
0.0
  0
SPLINE
  5
349
100
AcDbEntity
  8
0
 62
7
100
AcDbSpline
 70
8
 71
3
 72
8
 73
4
 74
0
 40
0
 40
0
 40
0
 40
0
 40
1
 40
1
 40
1
 40
1
 10
163.688889
 20
177.597153
 30
0.0
 10
163.688889
 20
177.321983
 30
0.0
 10
163.516759
 20
177.094447
 30
0.0
 10
163.309653
 20
177.094444
 30
0.0
  0
SPLINE
  5
34a
100
AcDbEntity
  8
0
 62
7
100
AcDbSpline
 70
8
 71
3
 72
8
 73
4
 74
0
 40
0
 40
0
 40
0
 40
0
 40
1
 40
1
 40
1
 40
1
 10
163.309653
 20
177.094444
 30
0.0
 10
162.876859
 20
177.094444
 30
0.0
 10
163.212698
 20
178.489305
 30
0.0
 10
163.777083
 20
179.034722
 30
0.0
  0
SPLINE
  5
34b
100
AcDbEntity
  8
0
 62
7
100
AcDbSpline
 70
8
 71
3
 72
8
 73
4
 74
0
 40
0
 40
0
 40
0
 40
0
 40
1
 40
1
 40
1
 40
1
 10
163.777083
 20
179.034722
 30
0.0
 10
163.870462
 20
179.124960
 30
0.0
 10
163.935207
 20
179.171405
 30
0.0
 10
163.971111
 20
179.167014
 30
0.0
  0
LWPOLYLINE
  5
34c
100
AcDbEntity
  8
0
 62
7
100
AcDbPolyline
 90
2
 70
0
 10
124.054306
 20
181.521806
 30
0.0
 10
124.054306
 20
181.521806
 30
0.0
  0
SPLINE
  5
34d
100
AcDbEntity
  8
0
 62
7
100
AcDbSpline
 70
8
 71
3
 72
8
 73
4
 74
0
 40
0
 40
0
 40
0
 40
0
 40
1
 40
1
 40
1
 40
1
 10
160.725556
 20
178.152778
 30
0.0
 10
160.801806
 20
178.152778
 30
0.0
 10
160.866667
 20
177.914653
 30
0.0
 10
160.866667
 20
177.623611
 30
0.0
  0
SPLINE
  5
34e
100
AcDbEntity
  8
0
 62
7
100
AcDbSpline
 70
8
 71
3
 72
8
 73
4
 74
0
 40
0
 40
0
 40
0
 40
0
 40
1
 40
1
 40
1
 40
1
 10
160.866667
 20
177.623611
 30
0.0
 10
160.866667
 20
177.332569
 30
0.0
 10
160.710649
 20
177.094444
 30
0.0
 10
160.522708
 20
177.094444
 30
0.0
  0
SPLINE
  5
34f
100
AcDbEntity
  8
0
 62
7
100
AcDbSpline
 70
8
 71
3
 72
8
 73
4
 74
0
 40
0
 40
0
 40
0
 40
0
 40
1
 40
1
 40
1
 40
1
 10
160.522708
 20
177.094444
 30
0.0
 10
160.334774
 20
177.094444
 30
0.0
 10
160.278736
 20
177.332569
 30
0.0
 10
160.390417
 20
177.623611
 30
0.0
  0
SPLINE
  5
350
100
AcDbEntity
  8
0
 62
7
100
AcDbSpline
 70
8
 71
3
 72
8
 73
4
 74
0
 40
0
 40
0
 40
0
 40
0
 40
1
 40
1
 40
1
 40
1
 10
160.390417
 20
177.623611
 30
0.0
 10
160.502103
 20
177.914653
 30
0.0
 10
160.649299
 20
178.152778
 30
0.0
 10
160.725556
 20
178.152778
 30
0.0
  0
LWPOLYLINE
  5
351
100
AcDbEntity
  8
0
 62
7
100
AcDbPolyline
 90
2
 70
0
 10
163.971111
 20
179.167014
 30
0.0
 10
163.971111
 20
179.167014
 30
0.0
  0
LWPOLYLINE
  5
352
100
AcDbEntity
  8
0
 62
7
100
AcDbPolyline
 90
2
 70
0
 10
160.725556
 20
178.152778
 30
0.0
 10
160.725556
 20
178.152778
 30
0.0
  0
SPLINE
  5
353
100
AcDbEntity
  8
0
 62
7
100
AcDbSpline
 70
8
 71
3
 72
8
 73
4
 74
0
 40
0
 40
0
 40
0
 40
0
 40
1
 40
1
 40
1
 40
1
 10
128.181806
 20
175.895000
 30
0.0
 10
128.467366
 20
174.869924
 30
0.0
 10
128.998173
 20
174.204576
 30
0.0
 10
130.254375
 20
173.302083
 30
0.0
  0
SPLINE
  5
354
100
AcDbEntity
  8
0
 62
7
100
AcDbSpline
 70
8
 71
3
 72
8
 73
4
 74
0
 40
0
 40
0
 40
0
 40
0
 40
1
 40
1
 40
1
 40
1
 10
130.254375
 20
173.302083
 30
0.0
 10
131.933180
 20
172.095981
 30
0.0
 10
132.149314
 20
171.450000
 30
0.0
 10
130.880556
 20
171.450000
 30
0.0
  0
SPLINE
  5
355
100
AcDbEntity
  8
0
 62
7
100
AcDbSpline
 70
8
 71
3
 72
8
 73
4
 74
0
 40
0
 40
0
 40
0
 40
0
 40
1
 40
1
 40
1
 40
1
 10
130.880556
 20
171.450000
 30
0.0
 10
130.515402
 20
171.450000
 30
0.0
 10
130.118527
 20
171.291250
 30
0.0
 10
129.998611
 20
171.097222
 30
0.0
  0
SPLINE
  5
356
100
AcDbEntity
  8
0
 62
7
100
AcDbSpline
 70
8
 71
3
 72
8
 73
4
 74
0
 40
0
 40
0
 40
0
 40
0
 40
1
 40
1
 40
1
 40
1
 10
129.998611
 20
171.097222
 30
0.0
 10
129.771194
 20
170.729250
 30
0.0
 10
129.686454
 20
170.725485
 30
0.0
 10
128.666875
 20
170.991389
 30
0.0
  0
SPLINE
  5
357
100
AcDbEntity
  8
0
 62
7
100
AcDbSpline
 70
8
 71
3
 72
8
 73
4
 74
0
 40
0
 40
0
 40
0
 40
0
 40
1
 40
1
 40
1
 40
1
 10
128.666875
 20
170.991389
 30
0.0
 10
127.877711
 20
171.197202
 30
0.0
 10
127.001792
 20
172.879811
 30
0.0
 10
127.008819
 20
174.166389
 30
0.0
  0
SPLINE
  5
358
100
AcDbEntity
  8
0
 62
7
100
AcDbSpline
 70
8
 71
3
 72
8
 73
4
 74
0
 40
0
 40
0
 40
0
 40
0
 40
1
 40
1
 40
1
 40
1
 10
127.008819
 20
174.166389
 30
0.0
 10
127.013016
 20
174.933697
 30
0.0
 10
127.087097
 20
175.036110
 30
0.0
 10
127.352778
 20
174.625000
 30
0.0
  0
SPLINE
  5
359
100
AcDbEntity
  8
0
 62
7
100
AcDbSpline
 70
8
 71
3
 72
8
 73
4
 74
0
 40
0
 40
0
 40
0
 40
0
 40
1
 40
1
 40
1
 40
1
 10
127.352778
 20
174.625000
 30
0.0
 10
127.603868
 20
174.236467
 30
0.0
 10
127.704136
 20
174.517739
 30
0.0
 10
127.740833
 20
175.683333
 30
0.0
  0
LWPOLYLINE
  5
35a
100
AcDbEntity
  8
0
 62
7
100
AcDbPolyline
 90
2
 70
0
 10
127.793750
 20
177.270833
 30
0.0
 10
128.181806
 20
175.895000
 30
0.0
  0
SPLINE
  5
35b
100
AcDbEntity
  8
0
 62
7
100
AcDbSpline
 70
8
 71
3
 72
8
 73
4
 74
0
 40
0
 40
0
 40
0
 40
0
 40
1
 40
1
 40
1
 40
1
 10
140.273264
 20
152.347083
 30
0.0
 10
141.242006
 20
152.344938
 30
0.0
 10
141.651104
 20
151.809501
 30
0.0
 10
142.522222
 20
150.115764
 30
0.0
  0
SPLINE
  5
35c
100
AcDbEntity
  8
0
 62
7
100
AcDbSpline
 70
8
 71
3
 72
8
 73
4
 74
0
 40
0
 40
0
 40
0
 40
0
 40
1
 40
1
 40
1
 40
1
 10
142.522222
 20
150.115764
 30
0.0
 10
143.287603
 20
148.627626
 30
0.0
 10
143.297786
 20
148.479233
 30
0.0
 10
142.751528
 20
147.875625
 30
0.0
  0
SPLINE
  5
35d
100
AcDbEntity
  8
0
 62
7
100
AcDbSpline
 70
8
 71
3
 72
8
 73
4
 74
0
 40
0
 40
0
 40
0
 40
0
 40
1
 40
1
 40
1
 40
1
 10
142.751528
 20
147.875625
 30
0.0
 10
142.430136
 20
147.520493
 30
0.0
 10
142.169444
 20
146.951471
 30
0.0
 10
142.169444
 20
146.614444
 30
0.0
  0
SPLINE
  5
35e
100
AcDbEntity
  8
0
 62
7
100
AcDbSpline
 70
8
 71
3
 72
8
 73
4
 74
0
 40
0
 40
0
 40
0
 40
0
 40
1
 40
1
 40
1
 40
1
 10
142.169444
 20
146.614444
 30
0.0
 10
142.169444
 20
145.599376
 30
0.0
 10
141.483532
 20
144.638889
 30
0.0
 10
140.758333
 20
144.638889
 30
0.0
  0
SPLINE
  5
35f
100
AcDbEntity
  8
0
 62
7
100
AcDbSpline
 70
8
 71
3
 72
8
 73
4
 74
0
 40
0
 40
0
 40
0
 40
0
 40
1
 40
1
 40
1
 40
1
 10
140.758333
 20
144.638889
 30
0.0
 10
140.383006
 20
144.638889
 30
0.0
 10
139.551562
 20
144.342999
 30
0.0
 10
138.915069
 20
143.986250
 30
0.0
  0
SPLINE
  5
360
100
AcDbEntity
  8
0
 62
7
100
AcDbSpline
 70
8
 71
3
 72
8
 73
4
 74
0
 40
0
 40
0
 40
0
 40
0
 40
1
 40
1
 40
1
 40
1
 10
138.915069
 20
143.986250
 30
0.0
 10
138.278579
 20
143.629499
 30
0.0
 10
137.362847
 20
143.254366
 30
0.0
 10
136.877778
 20
143.148403
 30
0.0
  0
SPLINE
  5
361
100
AcDbEntity
  8
0
 62
7
100
AcDbSpline
 70
8
 71
3
 72
8
 73
4
 74
0
 40
0
 40
0
 40
0
 40
0
 40
1
 40
1
 40
1
 40
1
 10
136.877778
 20
143.148403
 30
0.0
 10
136.392708
 20
143.042440
 30
0.0
 10
134.883745
 20
142.544580
 30
0.0
 10
133.526389
 20
142.037153
 30
0.0
  0
SPLINE
  5
362
100
AcDbEntity
  8
0
 62
7
100
AcDbSpline
 70
8
 71
3
 72
8
 73
4
 74
0
 40
0
 40
0
 40
0
 40
0
 40
1
 40
1
 40
1
 40
1
 10
133.526389
 20
142.037153
 30
0.0
 10
130.910172
 20
141.059123
 30
0.0
 10
130.527778
 20
140.966698
 30
0.0
 10
130.527778
 20
141.349236
 30
0.0
  0
SPLINE
  5
363
100
AcDbEntity
  8
0
 62
7
100
AcDbSpline
 70
8
 71
3
 72
8
 73
4
 74
0
 40
0
 40
0
 40
0
 40
0
 40
1
 40
1
 40
1
 40
1
 10
130.527778
 20
141.349236
 30
0.0
 10
130.527778
 20
141.785848
 30
0.0
 10
131.999355
 20
146.199013
 30
0.0
 10
132.767917
 20
148.060833
 30
0.0
  0
SPLINE
  5
364
100
AcDbEntity
  8
0
 62
7
100
AcDbSpline
 70
8
 71
3
 72
8
 73
4
 74
0
 40
0
 40
0
 40
0
 40
0
 40
1
 40
1
 40
1
 40
1
 10
132.767917
 20
148.060833
 30
0.0
 10
133.540565
 20
149.932573
 30
0.0
 10
134.713241
 20
150.895648
 30
0.0
 10
135.387292
 20
150.221597
 30
0.0
  0
SPLINE
  5
365
100
AcDbEntity
  8
0
 62
7
100
AcDbSpline
 70
8
 71
3
 72
8
 73
4
 74
0
 40
0
 40
0
 40
0
 40
0
 40
1
 40
1
 40
1
 40
1
 10
135.387292
 20
150.221597
 30
0.0
 10
135.983661
 20
149.625228
 30
0.0
 10
137.012307
 20
150.053080
 30
0.0
 10
137.230556
 20
150.988889
 30
0.0
  0
SPLINE
  5
366
100
AcDbEntity
  8
0
 62
7
100
AcDbSpline
 70
8
 71
3
 72
8
 73
4
 74
0
 40
0
 40
0
 40
0
 40
0
 40
1
 40
1
 40
1
 40
1
 10
137.230556
 20
150.988889
 30
0.0
 10
137.397702
 20
151.705572
 30
0.0
 10
137.741742
 20
151.927111
 30
0.0
 10
139.082639
 20
152.188333
 30
0.0
  0
SPLINE
  5
367
100
AcDbEntity
  8
0
 62
7
100
AcDbSpline
 70
8
 71
3
 72
8
 73
4
 74
0
 40
0
 40
0
 40
0
 40
0
 40
1
 40
1
 40
1
 40
1
 10
139.082639
 20
152.188333
 30
0.0
 10
139.569289
 20
152.283140
 30
0.0
 10
139.950351
 20
152.347797
 30
0.0
 10
140.273264
 20
152.347083
 30
0.0
  0
LWPOLYLINE
  5
368
100
AcDbEntity
  8
0
 62
7
100
AcDbPolyline
 90
3
 70
0
 10
127.740833
 20
175.683333
 30
0.0
 10
127.793750
 20
177.270833
 30
0.0
 10
127.793750
 20
177.270833
 30
0.0
  0
LWPOLYLINE
  5
369
100
AcDbEntity
  8
0
 62
7
100
AcDbPolyline
 90
2
 70
0
 10
140.273264
 20
152.347083
 30
0.0
 10
140.273264
 20
152.347083
 30
0.0
  0
ENDSEC
  0
SECTION
  2
OBJECTS
  0
DICTIONARY
  5
C
330
0
100
AcDbDictionary
  3
ACAD_GROUP
350
D
  3
ACAD_MLINESTYLE
350
17
  0
DICTIONARY
  5
D
330
C
100
AcDbDictionary
  0
DICTIONARY
  5
1A
330
C
100
AcDbDictionary
  0
DICTIONARY
  5
17
330
C
100
AcDbDictionary
  3
STANDARD
350
18
  0
DICTIONARY
  5
19
330
C
100
AcDbDictionary
  0
ENDSEC
  0
EOF
