  0
SECTION
  2
HEADER
  9
$ACADVER
  1
AC1014
  9
$HANDSEED
  5
FFFF
  9
$MEASUREMENT
 70
     1
  0
ENDSEC
  0
SECTION
  2
TABLES
  0
TABLE
  2
VPORT
  5
8
330
0
100
AcDbSymbolTable
 70
     4
  0
VPORT
  5
2E
330
8
100
AcDbSymbolTableRecord
100
AcDbViewportTableRecord
  2
*ACTIVE
 70
     0
 10
0.0
 20
0.0
 11
1.0
 21
1.0
 12
210.0
 22
148.5
 13
0.0
 23
0.0
 14
10.0
 24
10.0
 15
10.0
 25
10.0
 16
0.0
 26
0.0
 36
1.0
 17
0.0
 27
0.0
 37
0.0
 40
341.0
 41
1.24
 42
50.0
 43
0.0
 44
0.0
 50
0.0
 51
0.0
 71
     0
 72
   100
 73
     1
 74
     3
 75
     0
 76
     0
 77
     0
 78
     0
  0
ENDTAB
  0
TABLE
  2
LTYPE
  5
5
330
0
100
AcDbSymbolTable
 70
     1
  0
LTYPE
  5
14
330
5
100
AcDbSymbolTableRecord
100
AcDbLinetypeTableRecord
  2
BYBLOCK
 70
     0
  3

 72
    65
 73
     0
 40
0.0
  0
LTYPE
  5
15
330
5
100
AcDbSymbolTableRecord
100
AcDbLinetypeTableRecord
  2
BYLAYER
 70
     0
  3

 72
    65
 73
     0
 40
0.0
  0
LTYPE
  5
16
330
5
100
AcDbSymbolTableRecord
100
AcDbLinetypeTableRecord
  2
CONTINUOUS
 70
     0
  3
Solid line
 72
    65
 73
     0
 40
0.0
  0
ENDTAB
  0
TABLE
  2
LAYER
  5
2
100
AcDbSymbolTable
 70
1
  0
LAYER
  5
50
100
AcDbSymbolTableRecord
100
AcDbLayerTableRecord
  2
0
 70
0
  6
CONTINUOUS
  0
ENDTAB
  0
TABLE
  2
STYLE
  5
3
330
0
100
AcDbSymbolTable
 70
     1
  0
STYLE
  5
11
330
3
100
AcDbSymbolTableRecord
100
AcDbTextStyleTableRecord
  2
STANDARD
 70
     0
 40
0.0
 41
1.0
 50
0.0
 71
     0
 42
2.5
  3
txt
  4

  0
ENDTAB
  0
TABLE
  2
VIEW
  5
6
330
0
100
AcDbSymbolTable
 70
     0
  0
ENDTAB
  0
TABLE
  2
UCS
  5
7
330
0
100
AcDbSymbolTable
 70
     0
  0
ENDTAB
  0
TABLE
  2
APPID
  5
9
330
0
100
AcDbSymbolTable
 70
     2
  0
APPID
  5
12
330
9
100
AcDbSymbolTableRecord
100
AcDbRegAppTableRecord
  2
ACAD
 70
     0
  0
ENDTAB
  0
TABLE
  2
DIMSTYLE
  5
A
330
0
100
AcDbSymbolTable
 70
     1
  0
DIMSTYLE
105
27
330
A
100
AcDbSymbolTableRecord
100
AcDbDimStyleTableRecord
  2
ISO-25
 70
     0
  3

  4

  5

  6

  7

 40
1.0
 41
2.5
 42
0.625
 43
3.75
 44
1.25
 45
0.0
 46
0.0
 47
0.0
 48
0.0
140
2.5
141
2.5
142
0.0
143
0.03937007874016
144
1.0
145
0.0
146
1.0
147
0.625
 71
     0
 72
     0
 73
     0
 74
     0
 75
     0
 76
     0
 77
     1
 78
     8
170
     0
171
     3
172
     1
173
     0
174
     0
175
     0
176
     0
177
     0
178
     0
270
     2
271
     2
272
     2
273
     2
274
     3
340
11
275
     0
280
     0
281
     0
282
     0
283
     0
284
     8
285
     0
286
     0
287
     3
288
     0
  0
ENDTAB
  0
TABLE
  2
BLOCK_RECORD
  5
1
330
0
100
AcDbSymbolTable
 70
     1
  0
BLOCK_RECORD
  5
1F
330
1
100
AcDbSymbolTableRecord
100
AcDbBlockTableRecord
  2
*MODEL_SPACE
  0
BLOCK_RECORD
  5
1B
330
1
100
AcDbSymbolTableRecord
100
AcDbBlockTableRecord
  2
*PAPER_SPACE
  0
ENDTAB
  0
ENDSEC
  0
SECTION
  2
BLOCKS
  0
BLOCK
  5
20
330
1F
100
AcDbEntity
  8
0
100
AcDbBlockBegin
  2
*MODEL_SPACE
 70
     0
 10
0.0
 20
0.0
 30
0.0
  3
*MODEL_SPACE
  1

  0
ENDBLK
  5
21
330
1F
100
AcDbEntity
  8
0
100
AcDbBlockEnd
  0
BLOCK
  5
1C
330
1B
100
AcDbEntity
 67
     1
  8
0
100
AcDbBlockBegin
  2
*PAPER_SPACE
  1

  0
ENDBLK
  5
1D
330
1B
100
AcDbEntity
 67
     1
  8
0
100
AcDbBlockEnd
  0
ENDSEC
  0
SECTION
  2
ENTITIES
  0
SPLINE
  5
100
100
AcDbEntity
  8
0
 62
7
100
AcDbSpline
 70
8
 71
3
 72
8
 73
4
 74
0
 40
0
 40
0
 40
0
 40
0
 40
1
 40
1
 40
1
 40
1
 10
112.333264
 20
223.988463
 30
0.0
 10
111.945273
 20
223.937632
 30
0.0
 10
110.364496
 20
217.378223
 30
0.0
 10
110.075486
 20
214.534019
 30
0.0
  0
SPLINE
  5
101
100
AcDbEntity
  8
0
 62
7
100
AcDbSpline
 70
8
 71
3
 72
8
 73
4
 74
0
 40
0
 40
0
 40
0
 40
0
 40
1
 40
1
 40
1
 40
1
 10
110.075486
 20
214.534019
 30
0.0
 10
109.983792
 20
213.631645
 30
0.0
 10
109.811244
 20
212.893602
 30
0.0
 10
109.687431
 20
212.893602
 30
0.0
  0
SPLINE
  5
102
100
AcDbEntity
  8
0
 62
7
100
AcDbSpline
 70
8
 71
3
 72
8
 73
4
 74
0
 40
0
 40
0
 40
0
 40
0
 40
1
 40
1
 40
1
 40
1
 10
109.687431
 20
212.893602
 30
0.0
 10
109.403792
 20
212.893602
 30
0.0
 10
109.386415
 20
205.357157
 30
0.0
 10
109.669792
 20
205.238325
 30
0.0
  0
SPLINE
  5
103
100
AcDbEntity
  8
0
 62
7
100
AcDbSpline
 70
8
 71
3
 72
8
 73
4
 74
0
 40
0
 40
0
 40
0
 40
0
 40
1
 40
1
 40
1
 40
1
 10
109.669792
 20
205.238325
 30
0.0
 10
109.858937
 20
205.159009
 30
0.0
 10
110.512679
 20
199.310129
 30
0.0
 10
112.527292
 20
179.820686
 30
0.0
  0
SPLINE
  5
104
100
AcDbEntity
  8
0
 62
7
100
AcDbSpline
 70
8
 71
3
 72
8
 73
4
 74
0
 40
0
 40
0
 40
0
 40
0
 40
1
 40
1
 40
1
 40
1
 10
112.527292
 20
179.820686
 30
0.0
 10
112.907866
 20
176.138992
 30
0.0
 10
113.324375
 20
173.086657
 30
0.0
 10
113.444514
 20
173.038533
 30
0.0
  0
SPLINE
  5
105
100
AcDbEntity
  8
0
 62
7
100
AcDbSpline
 70
8
 71
3
 72
8
 73
4
 74
0
 40
0
 40
0
 40
0
 40
0
 40
1
 40
1
 40
1
 40
1
 10
113.444514
 20
173.038533
 30
0.0
 10
113.564653
 20
172.990403
 30
0.0
 10
113.656181
 20
172.312465
 30
0.0
 10
113.656181
 20
171.530408
 30
0.0
  0
SPLINE
  5
106
100
AcDbEntity
  8
0
 62
7
100
AcDbSpline
 70
8
 71
3
 72
8
 73
4
 74
0
 40
0
 40
0
 40
0
 40
0
 40
1
 40
1
 40
1
 40
1
 10
113.656181
 20
171.530408
 30
0.0
 10
113.656181
 20
170.332544
 30
0.0
 10
113.580731
 20
170.101658
 30
0.0
 10
113.179931
 20
170.101658
 30
0.0
  0
SPLINE
  5
107
100
AcDbEntity
  8
0
 62
7
100
AcDbSpline
 70
8
 71
3
 72
8
 73
4
 74
0
 40
0
 40
0
 40
0
 40
0
 40
1
 40
1
 40
1
 40
1
 10
113.179931
 20
170.101658
 30
0.0
 10
112.578419
 20
170.101658
 30
0.0
 10
108.530833
 20
168.748764
 30
0.0
 10
107.412014
 20
168.170200
 30
0.0
  0
SPLINE
  5
108
100
AcDbEntity
  8
0
 62
7
100
AcDbSpline
 70
8
 71
3
 72
8
 73
4
 74
0
 40
0
 40
0
 40
0
 40
0
 40
1
 40
1
 40
1
 40
1
 10
107.412014
 20
168.170200
 30
0.0
 10
106.651679
 20
167.777013
 30
0.0
 10
106.574167
 20
167.609955
 30
0.0
 10
106.574167
 20
166.538602
 30
0.0
  0
SPLINE
  5
109
100
AcDbEntity
  8
0
 62
7
100
AcDbSpline
 70
8
 71
3
 72
8
 73
4
 74
0
 40
0
 40
0
 40
0
 40
0
 40
1
 40
1
 40
1
 40
1
 10
106.574167
 20
166.538602
 30
0.0
 10
106.574167
 20
165.885430
 30
0.0
 10
106.756815
 20
165.003167
 30
0.0
 10
106.979861
 20
164.571866
 30
0.0
  0
SPLINE
  5
10a
100
AcDbEntity
  8
0
 62
7
100
AcDbSpline
 70
8
 71
3
 72
8
 73
4
 74
0
 40
0
 40
0
 40
0
 40
0
 40
1
 40
1
 40
1
 40
1
 10
106.979861
 20
164.571866
 30
0.0
 10
107.434081
 20
163.693500
 30
0.0
 10
106.931818
 20
163.687046
 30
0.0
 10
111.821736
 20
164.598325
 30
0.0
  0
SPLINE
  5
10b
100
AcDbEntity
  8
0
 62
7
100
AcDbSpline
 70
8
 71
3
 72
8
 73
4
 74
0
 40
0
 40
0
 40
0
 40
0
 40
1
 40
1
 40
1
 40
1
 10
111.821736
 20
164.598325
 30
0.0
 10
113.655783
 20
164.940113
 30
0.0
 10
114.366125
 20
164.986005
 30
0.0
 10
114.502847
 20
164.765894
 30
0.0
  0
SPLINE
  5
10c
100
AcDbEntity
  8
0
 62
7
100
AcDbSpline
 70
8
 71
3
 72
8
 73
4
 74
0
 40
0
 40
0
 40
0
 40
0
 40
1
 40
1
 40
1
 40
1
 10
114.502847
 20
164.765894
 30
0.0
 10
114.605096
 20
164.601282
 30
0.0
 10
114.768387
 20
163.841382
 30
0.0
 10
114.864444
 20
163.072561
 30
0.0
  0
SPLINE
  5
10d
100
AcDbEntity
  8
0
 62
7
100
AcDbSpline
 70
8
 71
3
 72
8
 73
4
 74
0
 40
0
 40
0
 40
0
 40
0
 40
1
 40
1
 40
1
 40
1
 10
114.864444
 20
163.072561
 30
0.0
 10
115.023423
 20
161.800136
 30
0.0
 10
114.970997
 20
161.610238
 30
0.0
 10
114.344097
 20
160.955894
 30
0.0
  0
SPLINE
  5
10e
100
AcDbEntity
  8
0
 62
7
100
AcDbSpline
 70
8
 71
3
 72
8
 73
4
 74
0
 40
0
 40
0
 40
0
 40
0
 40
1
 40
1
 40
1
 40
1
 10
114.344097
 20
160.955894
 30
0.0
 10
113.965315
 20
160.560529
 30
0.0
 10
113.656181
 20
160.087776
 30
0.0
 10
113.656181
 20
159.915200
 30
0.0
  0
SPLINE
  5
10f
100
AcDbEntity
  8
0
 62
7
100
AcDbSpline
 70
8
 71
3
 72
8
 73
4
 74
0
 40
0
 40
0
 40
0
 40
0
 40
1
 40
1
 40
1
 40
1
 10
113.656181
 20
159.915200
 30
0.0
 10
113.656181
 20
159.742626
 30
0.0
 10
113.550660
 20
159.606519
 30
0.0
 10
113.418056
 20
159.606519
 30
0.0
  0
SPLINE
  5
110
100
AcDbEntity
  8
0
 62
7
100
AcDbSpline
 70
8
 71
3
 72
8
 73
4
 74
0
 40
0
 40
0
 40
0
 40
0
 40
1
 40
1
 40
1
 40
1
 10
113.418056
 20
159.606519
 30
0.0
 10
113.285451
 20
159.606519
 30
0.0
 10
112.933661
 20
159.210852
 30
0.0
 10
112.633125
 20
158.724575
 30
0.0
  0
SPLINE
  5
111
100
AcDbEntity
  8
0
 62
7
100
AcDbSpline
 70
8
 71
3
 72
8
 73
4
 74
0
 40
0
 40
0
 40
0
 40
0
 40
1
 40
1
 40
1
 40
1
 10
112.633125
 20
158.724575
 30
0.0
 10
112.043295
 20
157.770209
 30
0.0
 10
111.906149
 20
156.334689
 30
0.0
 10
112.377361
 20
156.043463
 30
0.0
  0
SPLINE
  5
112
100
AcDbEntity
  8
0
 62
7
100
AcDbSpline
 70
8
 71
3
 72
8
 73
4
 74
0
 40
0
 40
0
 40
0
 40
0
 40
1
 40
1
 40
1
 40
1
 10
112.377361
 20
156.043463
 30
0.0
 10
112.554077
 20
155.934246
 30
0.0
 10
112.603723
 20
155.491242
 30
0.0
 10
112.509653
 20
154.914575
 30
0.0
  0
SPLINE
  5
113
100
AcDbEntity
  8
0
 62
7
100
AcDbSpline
 70
8
 71
3
 72
8
 73
4
 74
0
 40
0
 40
0
 40
0
 40
0
 40
1
 40
1
 40
1
 40
1
 10
112.509653
 20
154.914575
 30
0.0
 10
112.359686
 20
153.995272
 30
0.0
 10
113.009022
 20
150.689612
 30
0.0
 10
113.391597
 20
150.416658
 30
0.0
  0
SPLINE
  5
114
100
AcDbEntity
  8
0
 62
7
100
AcDbSpline
 70
8
 71
3
 72
8
 73
4
 74
0
 40
0
 40
0
 40
0
 40
0
 40
1
 40
1
 40
1
 40
1
 10
113.391597
 20
150.416658
 30
0.0
 10
113.905428
 20
150.050060
 30
0.0
 10
114.090927
 20
149.283601
 30
0.0
 10
113.814931
 20
148.688047
 30
0.0
  0
SPLINE
  5
115
100
AcDbEntity
  8
0
 62
7
100
AcDbSpline
 70
8
 71
3
 72
8
 73
4
 74
0
 40
0
 40
0
 40
0
 40
0
 40
1
 40
1
 40
1
 40
1
 10
113.814931
 20
148.688047
 30
0.0
 10
113.655712
 20
148.344484
 30
0.0
 10
113.428625
 20
148.054176
 30
0.0
 10
113.312222
 20
148.053047
 30
0.0
  0
SPLINE
  5
116
100
AcDbEntity
  8
0
 62
7
100
AcDbSpline
 70
8
 71
3
 72
8
 73
4
 74
0
 40
0
 40
0
 40
0
 40
0
 40
1
 40
1
 40
1
 40
1
 10
113.312222
 20
148.053047
 30
0.0
 10
112.847179
 20
148.048545
 30
0.0
 10
112.070707
 20
145.627810
 30
0.0
 10
111.768819
 20
143.237630
 30
0.0
  0
SPLINE
  5
117
100
AcDbEntity
  8
0
 62
7
100
AcDbSpline
 70
8
 71
3
 72
8
 73
4
 74
0
 40
0
 40
0
 40
0
 40
0
 40
1
 40
1
 40
1
 40
1
 10
111.768819
 20
143.237630
 30
0.0
 10
111.517021
 20
141.244097
 30
0.0
 10
111.521948
 20
139.975680
 30
0.0
 10
111.777639
 20
137.231588
 30
0.0
  0
SPLINE
  5
118
100
AcDbEntity
  8
0
 62
7
100
AcDbSpline
 70
8
 71
3
 72
8
 73
4
 74
0
 40
0
 40
0
 40
0
 40
0
 40
1
 40
1
 40
1
 40
1
 10
111.777639
 20
137.231588
 30
0.0
 10
112.145084
 20
133.288106
 30
0.0
 10
112.990159
 20
128.810540
 30
0.0
 10
113.391597
 20
128.676727
 30
0.0
  0
SPLINE
  5
119
100
AcDbEntity
  8
0
 62
7
100
AcDbSpline
 70
8
 71
3
 72
8
 73
4
 74
0
 40
0
 40
0
 40
0
 40
0
 40
1
 40
1
 40
1
 40
1
 10
113.391597
 20
128.676727
 30
0.0
 10
113.539230
 20
128.627516
 30
0.0
 10
113.656181
 20
128.359654
 30
0.0
 10
113.656181
 20
128.085825
 30
0.0
  0
SPLINE
  5
11a
100
AcDbEntity
  8
0
 62
7
100
AcDbSpline
 70
8
 71
3
 72
8
 73
4
 74
0
 40
0
 40
0
 40
0
 40
0
 40
1
 40
1
 40
1
 40
1
 10
113.656181
 20
128.085825
 30
0.0
 10
113.656181
 20
127.811998
 30
0.0
 10
114.147637
 20
126.375984
 30
0.0
 10
114.740972
 20
124.893186
 30
0.0
  0
SPLINE
  5
11b
100
AcDbEntity
  8
0
 62
7
100
AcDbSpline
 70
8
 71
3
 72
8
 73
4
 74
0
 40
0
 40
0
 40
0
 40
0
 40
1
 40
1
 40
1
 40
1
 10
114.740972
 20
124.893186
 30
0.0
 10
115.334308
 20
123.410387
 30
0.0
 10
115.877416
 20
122.048592
 30
0.0
 10
115.949236
 20
121.868116
 30
0.0
  0
SPLINE
  5
11c
100
AcDbEntity
  8
0
 62
7
100
AcDbSpline
 70
8
 71
3
 72
8
 73
4
 74
0
 40
0
 40
0
 40
0
 40
0
 40
1
 40
1
 40
1
 40
1
 10
115.949236
 20
121.868116
 30
0.0
 10
116.041229
 20
121.636959
 30
0.0
 10
115.747072
 20
121.541797
 30
0.0
 10
114.970278
 20
121.541797
 30
0.0
  0
SPLINE
  5
11d
100
AcDbEntity
  8
0
 62
7
100
AcDbSpline
 70
8
 71
3
 72
8
 73
4
 74
0
 40
0
 40
0
 40
0
 40
0
 40
1
 40
1
 40
1
 40
1
 10
114.970278
 20
121.541797
 30
0.0
 10
114.088347
 20
121.541797
 30
0.0
 10
113.845365
 20
121.651059
 30
0.0
 10
113.735556
 20
122.070963
 30
0.0
  0
SPLINE
  5
11e
100
AcDbEntity
  8
0
 62
7
100
AcDbSpline
 70
8
 71
3
 72
8
 73
4
 74
0
 40
0
 40
0
 40
0
 40
0
 40
1
 40
1
 40
1
 40
1
 10
113.735556
 20
122.070963
 30
0.0
 10
113.559074
 20
122.745827
 30
0.0
 10
112.748963
 20
122.745827
 30
0.0
 10
112.024583
 20
122.070963
 30
0.0
  0
SPLINE
  5
11f
100
AcDbEntity
  8
0
 62
7
100
AcDbSpline
 70
8
 71
3
 72
8
 73
4
 74
0
 40
0
 40
0
 40
0
 40
0
 40
1
 40
1
 40
1
 40
1
 10
112.024583
 20
122.070963
 30
0.0
 10
111.714650
 20
121.782202
 30
0.0
 10
111.583018
 20
121.541797
 30
0.0
 10
111.733542
 20
121.541797
 30
0.0
  0
SPLINE
  5
120
100
AcDbEntity
  8
0
 62
7
100
AcDbSpline
 70
8
 71
3
 72
8
 73
4
 74
0
 40
0
 40
0
 40
0
 40
0
 40
1
 40
1
 40
1
 40
1
 10
111.733542
 20
121.541797
 30
0.0
 10
111.884062
 20
121.541797
 30
0.0
 10
112.297038
 20
121.275749
 30
0.0
 10
112.650764
 20
120.950894
 30
0.0
  0
SPLINE
  5
121
100
AcDbEntity
  8
0
 62
7
100
AcDbSpline
 70
8
 71
3
 72
8
 73
4
 74
0
 40
0
 40
0
 40
0
 40
0
 40
1
 40
1
 40
1
 40
1
 10
112.650764
 20
120.950894
 30
0.0
 10
113.004490
 20
120.626037
 30
0.0
 10
113.766569
 20
120.033867
 30
0.0
 10
114.344097
 20
119.636797
 30
0.0
  0
SPLINE
  5
122
100
AcDbEntity
  8
0
 62
7
100
AcDbSpline
 70
8
 71
3
 72
8
 73
4
 74
0
 40
0
 40
0
 40
0
 40
0
 40
1
 40
1
 40
1
 40
1
 10
114.344097
 20
119.636797
 30
0.0
 10
114.921628
 20
119.239724
 30
0.0
 10
115.785592
 20
118.510434
 30
0.0
 10
116.266736
 20
118.014019
 30
0.0
  0
SPLINE
  5
123
100
AcDbEntity
  8
0
 62
7
100
AcDbSpline
 70
8
 71
3
 72
8
 73
4
 74
0
 40
0
 40
0
 40
0
 40
0
 40
1
 40
1
 40
1
 40
1
 10
116.187361
 20
116.206033
 30
0.0
 10
115.661028
 20
115.709635
 30
0.0
 10
115.098706
 20
114.939372
 30
0.0
 10
114.943819
 20
114.495061
 30
0.0
  0
SPLINE
  5
124
100
AcDbEntity
  8
0
 62
7
100
AcDbSpline
 70
8
 71
3
 72
8
 73
4
 74
0
 40
0
 40
0
 40
0
 40
0
 40
1
 40
1
 40
1
 40
1
 10
114.943819
 20
114.495061
 30
0.0
 10
114.713210
 20
113.833529
 30
0.0
 10
114.259924
 20
113.497848
 30
0.0
 10
112.439097
 20
112.616519
 30
0.0
  0
SPLINE
  5
125
100
AcDbEntity
  8
0
 62
7
100
AcDbSpline
 70
8
 71
3
 72
8
 73
4
 74
0
 40
0
 40
0
 40
0
 40
0
 40
1
 40
1
 40
1
 40
1
 10
112.439097
 20
112.616519
 30
0.0
 10
111.216161
 20
112.024583
 30
0.0
 10
110.155612
 20
111.370118
 30
0.0
 10
110.075486
 20
111.161311
 30
0.0
  0
SPLINE
  5
126
100
AcDbEntity
  8
0
 62
7
100
AcDbSpline
 70
8
 71
3
 72
8
 73
4
 74
0
 40
0
 40
0
 40
0
 40
0
 40
1
 40
1
 40
1
 40
1
 10
110.075486
 20
111.161311
 30
0.0
 10
109.995358
 20
110.952500
 30
0.0
 10
109.803842
 20
110.782075
 30
0.0
 10
109.652153
 20
110.782075
 30
0.0
  0
SPLINE
  5
127
100
AcDbEntity
  8
0
 62
7
100
AcDbSpline
 70
8
 71
3
 72
8
 73
4
 74
0
 40
0
 40
0
 40
0
 40
0
 40
1
 40
1
 40
1
 40
1
 10
109.652153
 20
110.782075
 30
0.0
 10
109.500461
 20
110.782075
 30
0.0
 10
108.753687
 20
110.300939
 30
0.0
 10
107.994097
 20
109.714922
 30
0.0
  0
SPLINE
  5
128
100
AcDbEntity
  8
0
 62
7
100
AcDbSpline
 70
8
 71
3
 72
8
 73
4
 74
0
 40
0
 40
0
 40
0
 40
0
 40
1
 40
1
 40
1
 40
1
 10
107.994097
 20
109.714922
 30
0.0
 10
106.637907
 20
108.668631
 30
0.0
 10
106.582594
 20
108.650583
 30
0.0
 10
105.048403
 20
108.824158
 30
0.0
  0
SPLINE
  5
129
100
AcDbEntity
  8
0
 62
7
100
AcDbSpline
 70
8
 71
3
 72
8
 73
4
 74
0
 40
0
 40
0
 40
0
 40
0
 40
1
 40
1
 40
1
 40
1
 10
105.048403
 20
108.824158
 30
0.0
 10
104.004610
 20
108.942248
 30
0.0
 10
103.431772
 20
108.904967
 30
0.0
 10
103.310972
 20
108.709505
 30
0.0
  0
SPLINE
  5
12a
100
AcDbEntity
  8
0
 62
7
100
AcDbSpline
 70
8
 71
3
 72
8
 73
4
 74
0
 40
0
 40
0
 40
0
 40
0
 40
1
 40
1
 40
1
 40
1
 10
103.310972
 20
108.709505
 30
0.0
 10
103.209838
 20
108.545870
 30
0.0
 10
103.292360
 20
108.418463
 30
0.0
 10
103.505000
 20
108.418463
 30
0.0
  0
SPLINE
  5
12b
100
AcDbEntity
  8
0
 62
7
100
AcDbSpline
 70
8
 71
3
 72
8
 73
4
 74
0
 40
0
 40
0
 40
0
 40
0
 40
1
 40
1
 40
1
 40
1
 10
103.505000
 20
108.418463
 30
0.0
 10
103.990620
 20
108.418463
 30
0.0
 10
105.254947
 20
107.389622
 30
0.0
 10
104.783819
 20
107.377769
 30
0.0
  0
SPLINE
  5
12c
100
AcDbEntity
  8
0
 62
7
100
AcDbSpline
 70
8
 71
3
 72
8
 73
4
 74
0
 40
0
 40
0
 40
0
 40
0
 40
1
 40
1
 40
1
 40
1
 10
104.783819
 20
107.377769
 30
0.0
 10
104.396046
 20
107.368007
 30
0.0
 10
103.681389
 20
106.734153
 30
0.0
 10
103.681389
 20
106.398811
 30
0.0
  0
SPLINE
  5
12d
100
AcDbEntity
  8
0
 62
7
100
AcDbSpline
 70
8
 71
3
 72
8
 73
4
 74
0
 40
0
 40
0
 40
0
 40
0
 40
1
 40
1
 40
1
 40
1
 10
103.681389
 20
106.398811
 30
0.0
 10
103.681389
 20
106.029701
 30
0.0
 10
105.475027
 20
104.507747
 30
0.0
 10
106.574167
 20
103.947005
 30
0.0
  0
SPLINE
  5
12e
100
AcDbEntity
  8
0
 62
7
100
AcDbSpline
 70
8
 71
3
 72
8
 73
4
 74
0
 40
0
 40
0
 40
0
 40
0
 40
1
 40
1
 40
1
 40
1
 10
106.574167
 20
103.947005
 30
0.0
 10
107.147944
 20
103.654287
 30
0.0
 10
107.623681
 20
103.356368
 30
0.0
 10
107.623681
 20
103.276727
 30
0.0
  0
SPLINE
  5
12f
100
AcDbEntity
  8
0
 62
7
100
AcDbSpline
 70
8
 71
3
 72
8
 73
4
 74
0
 40
0
 40
0
 40
0
 40
0
 40
1
 40
1
 40
1
 40
1
 10
107.623681
 20
103.276727
 30
0.0
 10
107.623681
 20
102.981187
 30
0.0
 10
106.248801
 20
100.807283
 30
0.0
 10
106.062639
 20
100.807283
 30
0.0
  0
SPLINE
  5
130
100
AcDbEntity
  8
0
 62
7
100
AcDbSpline
 70
8
 71
3
 72
8
 73
4
 74
0
 40
0
 40
0
 40
0
 40
0
 40
1
 40
1
 40
1
 40
1
 10
106.062639
 20
100.807283
 30
0.0
 10
105.956374
 20
100.807283
 30
0.0
 10
105.708094
 20
100.481133
 30
0.0
 10
105.507014
 20
100.084088
 30
0.0
  0
SPLINE
  5
131
100
AcDbEntity
  8
0
 62
7
100
AcDbSpline
 70
8
 71
3
 72
8
 73
4
 74
0
 40
0
 40
0
 40
0
 40
0
 40
1
 40
1
 40
1
 40
1
 10
105.507014
 20
100.084088
 30
0.0
 10
105.042321
 20
99.166516
 30
0.0
 10
102.289085
 20
95.295130
 30
0.0
 10
102.102708
 20
95.295130
 30
0.0
  0
SPLINE
  5
132
100
AcDbEntity
  8
0
 62
7
100
AcDbSpline
 70
8
 71
3
 72
8
 73
4
 74
0
 40
0
 40
0
 40
0
 40
0
 40
1
 40
1
 40
1
 40
1
 10
102.102708
 20
95.295130
 30
0.0
 10
102.025667
 20
95.295130
 30
0.0
 10
101.625375
 20
96.179013
 30
0.0
 10
101.211944
 20
97.261866
 30
0.0
  0
SPLINE
  5
133
100
AcDbEntity
  8
0
 62
7
100
AcDbSpline
 70
8
 71
3
 72
8
 73
4
 74
0
 40
0
 40
0
 40
0
 40
0
 40
1
 40
1
 40
1
 40
1
 10
101.211944
 20
97.261866
 30
0.0
 10
100.798514
 20
98.344716
 30
0.0
 10
100.358250
 20
99.228602
 30
0.0
 10
100.232986
 20
99.228602
 30
0.0
  0
SPLINE
  5
134
100
AcDbEntity
  8
0
 62
7
100
AcDbSpline
 70
8
 71
3
 72
8
 73
4
 74
0
 40
0
 40
0
 40
0
 40
0
 40
1
 40
1
 40
1
 40
1
 10
100.232986
 20
99.228602
 30
0.0
 10
100.107719
 20
99.228602
 30
0.0
 10
100.003681
 20
99.381781
 30
0.0
 10
100.003681
 20
99.563741
 30
0.0
  0
SPLINE
  5
135
100
AcDbEntity
  8
0
 62
7
100
AcDbSpline
 70
8
 71
3
 72
8
 73
4
 74
0
 40
0
 40
0
 40
0
 40
0
 40
1
 40
1
 40
1
 40
1
 10
100.003681
 20
99.563741
 30
0.0
 10
100.003681
 20
100.013214
 30
0.0
 10
98.486121
 20
103.465856
 30
0.0
 10
97.446042
 20
105.375755
 30
0.0
  0
SPLINE
  5
136
100
AcDbEntity
  8
0
 62
7
100
AcDbSpline
 70
8
 71
3
 72
8
 73
4
 74
0
 40
0
 40
0
 40
0
 40
0
 40
1
 40
1
 40
1
 40
1
 10
97.446042
 20
105.375755
 30
0.0
 10
96.979980
 20
106.231580
 30
0.0
 10
96.599375
 20
107.024114
 30
0.0
 10
96.599375
 20
107.130825
 30
0.0
  0
SPLINE
  5
137
100
AcDbEntity
  8
0
 62
7
100
AcDbSpline
 70
8
 71
3
 72
8
 73
4
 74
0
 40
0
 40
0
 40
0
 40
0
 40
1
 40
1
 40
1
 40
1
 10
96.599375
 20
107.130825
 30
0.0
 10
96.599375
 20
107.237536
 30
0.0
 10
96.505886
 20
107.364919
 30
0.0
 10
96.396528
 20
107.413047
 30
0.0
  0
SPLINE
  5
138
100
AcDbEntity
  8
0
 62
7
100
AcDbSpline
 70
8
 71
3
 72
8
 73
4
 74
0
 40
0
 40
0
 40
0
 40
0
 40
1
 40
1
 40
1
 40
1
 10
96.396528
 20
107.413047
 30
0.0
 10
96.287169
 20
107.461174
 30
0.0
 10
95.791522
 20
108.033337
 30
0.0
 10
95.294097
 20
108.683047
 30
0.0
  0
SPLINE
  5
139
100
AcDbEntity
  8
0
 62
7
100
AcDbSpline
 70
8
 71
3
 72
8
 73
4
 74
0
 40
0
 40
0
 40
0
 40
0
 40
1
 40
1
 40
1
 40
1
 10
95.294097
 20
108.683047
 30
0.0
 10
92.818356
 20
111.916732
 30
0.0
 10
91.222305
 20
112.864702
 30
0.0
 10
87.709375
 20
113.189783
 30
0.0
  0
SPLINE
  5
13a
100
AcDbEntity
  8
0
 62
7
100
AcDbSpline
 70
8
 71
3
 72
8
 73
4
 74
0
 40
0
 40
0
 40
0
 40
0
 40
1
 40
1
 40
1
 40
1
 10
87.709375
 20
113.189783
 30
0.0
 10
86.259684
 20
113.323934
 30
0.0
 10
84.725216
 20
113.640977
 30
0.0
 10
83.969931
 20
113.965894
 30
0.0
  0
SPLINE
  5
13b
100
AcDbEntity
  8
0
 62
7
100
AcDbSpline
 70
8
 71
3
 72
8
 73
4
 74
0
 40
0
 40
0
 40
0
 40
0
 40
1
 40
1
 40
1
 40
1
 10
83.969931
 20
113.965894
 30
0.0
 10
82.640102
 20
114.537970
 30
0.0
 10
82.731020
 20
114.539107
 30
0.0
 10
77.946250
 20
114.045269
 30
0.0
  0
SPLINE
  5
13c
100
AcDbEntity
  8
0
 62
7
100
AcDbSpline
 70
8
 71
3
 72
8
 73
4
 74
0
 40
0
 40
0
 40
0
 40
0
 40
1
 40
1
 40
1
 40
1
 10
77.946250
 20
114.045269
 30
0.0
 10
75.898299
 20
113.833899
 30
0.0
 10
75.713122
 20
113.980730
 30
0.0
 10
75.318056
 20
116.117838
 30
0.0
  0
SPLINE
  5
13d
100
AcDbEntity
  8
0
 62
7
100
AcDbSpline
 70
8
 71
3
 72
8
 73
4
 74
0
 40
0
 40
0
 40
0
 40
0
 40
1
 40
1
 40
1
 40
1
 10
75.318056
 20
116.117838
 30
0.0
 10
74.985694
 20
117.915741
 30
0.0
 10
75.079916
 20
121.403629
 30
0.0
 10
75.441528
 20
120.642213
 30
0.0
  0
SPLINE
  5
13e
100
AcDbEntity
  8
0
 62
7
100
AcDbSpline
 70
8
 71
3
 72
8
 73
4
 74
0
 40
0
 40
0
 40
0
 40
0
 40
1
 40
1
 40
1
 40
1
 10
75.441528
 20
120.642213
 30
0.0
 10
75.572987
 20
120.365413
 30
0.0
 10
76.347026
 20
119.443342
 30
0.0
 10
77.152500
 20
118.587283
 30
0.0
  0
SPLINE
  5
13f
100
AcDbEntity
  8
0
 62
7
100
AcDbSpline
 70
8
 71
3
 72
8
 73
4
 74
0
 40
0
 40
0
 40
0
 40
0
 40
1
 40
1
 40
1
 40
1
 10
77.152500
 20
118.587283
 30
0.0
 10
77.957976
 20
117.731224
 30
0.0
 10
78.703915
 20
116.858480
 30
0.0
 10
78.819375
 20
116.655825
 30
0.0
  0
SPLINE
  5
140
100
AcDbEntity
  8
0
 62
7
100
AcDbSpline
 70
8
 71
3
 72
8
 73
4
 74
0
 40
0
 40
0
 40
0
 40
0
 40
1
 40
1
 40
1
 40
1
 10
78.819375
 20
116.655825
 30
0.0
 10
79.291112
 20
115.827830
 30
0.0
 10
79.470939
 20
116.415143
 30
0.0
 10
79.436736
 20
118.693116
 30
0.0
  0
SPLINE
  5
141
100
AcDbEntity
  8
0
 62
7
100
AcDbSpline
 70
8
 71
3
 72
8
 73
4
 74
0
 40
0
 40
0
 40
0
 40
0
 40
1
 40
1
 40
1
 40
1
 10
79.436736
 20
118.693116
 30
0.0
 10
79.415719
 20
120.092789
 30
0.0
 10
79.513086
 20
121.136481
 30
0.0
 10
79.666042
 20
121.189019
 30
0.0
  0
SPLINE
  5
142
100
AcDbEntity
  8
0
 62
7
100
AcDbSpline
 70
8
 71
3
 72
8
 73
4
 74
0
 40
0
 40
0
 40
0
 40
0
 40
1
 40
1
 40
1
 40
1
 10
79.666042
 20
121.189019
 30
0.0
 10
79.810424
 20
121.238611
 30
0.0
 10
80.314092
 20
120.478245
 30
0.0
 10
80.786111
 20
119.504505
 30
0.0
  0
SPLINE
  5
143
100
AcDbEntity
  8
0
 62
7
100
AcDbSpline
 70
8
 71
3
 72
8
 73
4
 74
0
 40
0
 40
0
 40
0
 40
0
 40
1
 40
1
 40
1
 40
1
 10
80.786111
 20
119.504505
 30
0.0
 10
82.005297
 20
116.989428
 30
0.0
 10
82.324905
 20
116.454332
 30
0.0
 10
82.973333
 20
115.879713
 30
0.0
  0
LWPOLYLINE
  5
144
100
AcDbEntity
  8
0
 62
7
100
AcDbPolyline
 90
3
 70
0
 10
116.266736
 20
118.014019
 30
0.0
 10
117.139861
 20
117.114436
 30
0.0
 10
116.187361
 20
116.206033
 30
0.0
  0
SPLINE
  5
145
100
AcDbEntity
  8
0
 62
7
100
AcDbSpline
 70
8
 71
3
 72
8
 73
4
 74
0
 40
0
 40
0
 40
0
 40
0
 40
1
 40
1
 40
1
 40
1
 10
83.370208
 20
116.426519
 30
0.0
 10
82.846745
 20
119.512074
 30
0.0
 10
82.424727
 20
123.737861
 30
0.0
 10
82.452986
 20
125.598741
 30
0.0
  0
LWPOLYLINE
  5
146
100
AcDbEntity
  8
0
 62
7
100
AcDbPolyline
 90
3
 70
0
 10
82.973333
 20
115.879713
 30
0.0
 10
83.546597
 20
115.377005
 30
0.0
 10
83.370208
 20
116.426519
 30
0.0
  0
SPLINE
  5
147
100
AcDbEntity
  8
0
 62
7
100
AcDbSpline
 70
8
 71
3
 72
8
 73
4
 74
0
 40
0
 40
0
 40
0
 40
0
 40
1
 40
1
 40
1
 40
1
 10
82.893958
 20
125.607561
 30
0.0
 10
83.120569
 20
124.452521
 30
0.0
 10
83.390215
 20
123.448761
 30
0.0
 10
83.493681
 20
123.376241
 30
0.0
  0
SPLINE
  5
148
100
AcDbEntity
  8
0
 62
7
100
AcDbSpline
 70
8
 71
3
 72
8
 73
4
 74
0
 40
0
 40
0
 40
0
 40
0
 40
1
 40
1
 40
1
 40
1
 10
83.493681
 20
123.376241
 30
0.0
 10
83.597146
 20
123.303719
 30
0.0
 10
83.768729
 20
122.793910
 30
0.0
 10
83.872917
 20
122.238533
 30
0.0
  0
SPLINE
  5
149
100
AcDbEntity
  8
0
 62
7
100
AcDbSpline
 70
8
 71
3
 72
8
 73
4
 74
0
 40
0
 40
0
 40
0
 40
0
 40
1
 40
1
 40
1
 40
1
 10
83.872917
 20
122.238533
 30
0.0
 10
84.072665
 20
121.173788
 30
0.0
 10
84.508862
 20
121.371377
 30
0.0
 10
84.516736
 20
122.529575
 30
0.0
  0
SPLINE
  5
14a
100
AcDbEntity
  8
0
 62
7
100
AcDbSpline
 70
8
 71
3
 72
8
 73
4
 74
0
 40
0
 40
0
 40
0
 40
0
 40
1
 40
1
 40
1
 40
1
 10
84.516736
 20
122.529575
 30
0.0
 10
84.518946
 20
122.854432
 30
0.0
 10
84.630435
 20
123.120477
 30
0.0
 10
84.763681
 20
123.120477
 30
0.0
  0
SPLINE
  5
14b
100
AcDbEntity
  8
0
 62
7
100
AcDbSpline
 70
8
 71
3
 72
8
 73
4
 74
0
 40
0
 40
0
 40
0
 40
0
 40
1
 40
1
 40
1
 40
1
 10
84.763681
 20
123.120477
 30
0.0
 10
84.903397
 20
123.120477
 30
0.0
 10
84.937747
 20
123.951786
 30
0.0
 10
84.851875
 20
125.087213
 30
0.0
  0
LWPOLYLINE
  5
14c
100
AcDbEntity
  8
0
 62
7
100
AcDbPolyline
 90
3
 70
0
 10
82.452986
 20
125.598741
 30
0.0
 10
82.488264
 20
127.706588
 30
0.0
 10
82.893958
 20
125.607561
 30
0.0
  0
SPLINE
  5
14d
100
AcDbEntity
  8
0
 62
7
100
AcDbSpline
 70
8
 71
3
 72
8
 73
4
 74
0
 40
0
 40
0
 40
0
 40
0
 40
1
 40
1
 40
1
 40
1
 10
85.381042
 20
127.053950
 30
0.0
 10
85.906077
 20
127.053950
 30
0.0
 10
86.081548
 20
126.893684
 30
0.0
 10
86.192431
 20
126.330755
 30
0.0
  0
SPLINE
  5
14e
100
AcDbEntity
  8
0
 62
7
100
AcDbSpline
 70
8
 71
3
 72
8
 73
4
 74
0
 40
0
 40
0
 40
0
 40
0
 40
1
 40
1
 40
1
 40
1
 10
86.192431
 20
126.330755
 30
0.0
 10
86.270640
 20
125.933711
 30
0.0
 10
86.473606
 20
124.869519
 30
0.0
 10
86.642222
 20
123.967144
 30
0.0
  0
SPLINE
  5
14f
100
AcDbEntity
  8
0
 62
7
100
AcDbSpline
 70
8
 71
3
 72
8
 73
4
 74
0
 40
0
 40
0
 40
0
 40
0
 40
1
 40
1
 40
1
 40
1
 10
86.642222
 20
123.967144
 30
0.0
 10
86.810842
 20
123.064767
 30
0.0
 10
87.028158
 20
122.326727
 30
0.0
 10
87.127292
 20
122.326727
 30
0.0
  0
SPLINE
  5
150
100
AcDbEntity
  8
0
 62
7
100
AcDbSpline
 70
8
 71
3
 72
8
 73
4
 74
0
 40
0
 40
0
 40
0
 40
0
 40
1
 40
1
 40
1
 40
1
 10
87.127292
 20
122.326727
 30
0.0
 10
87.226428
 20
122.326727
 30
0.0
 10
87.596184
 20
121.417201
 30
0.0
 10
87.947500
 20
120.298255
 30
0.0
  0
LWPOLYLINE
  5
151
100
AcDbEntity
  8
0
 62
7
100
AcDbPolyline
 90
3
 70
0
 10
84.851875
 20
125.087213
 30
0.0
 10
84.710764
 20
127.053950
 30
0.0
 10
85.381042
 20
127.053950
 30
0.0
  0
SPLINE
  5
152
100
AcDbEntity
  8
0
 62
7
100
AcDbSpline
 70
8
 71
3
 72
8
 73
4
 74
0
 40
0
 40
0
 40
0
 40
0
 40
1
 40
1
 40
1
 40
1
 10
88.670694
 20
119.698533
 30
0.0
 10
88.772687
 20
121.499859
 30
0.0
 10
89.204941
 20
121.823325
 30
0.0
 10
89.781944
 20
120.536380
 30
0.0
  0
SPLINE
  5
153
100
AcDbEntity
  8
0
 62
7
100
AcDbSpline
 70
8
 71
3
 72
8
 73
4
 74
0
 40
0
 40
0
 40
0
 40
0
 40
1
 40
1
 40
1
 40
1
 10
89.781944
 20
120.536380
 30
0.0
 10
90.221353
 20
119.556327
 30
0.0
 10
90.984541
 20
118.731546
 30
0.0
 10
91.228333
 20
118.975338
 30
0.0
  0
SPLINE
  5
154
100
AcDbEntity
  8
0
 62
7
100
AcDbSpline
 70
8
 71
3
 72
8
 73
4
 74
0
 40
0
 40
0
 40
0
 40
0
 40
1
 40
1
 40
1
 40
1
 10
91.228333
 20
118.975338
 30
0.0
 10
91.301940
 20
119.048945
 30
0.0
 10
91.238527
 20
119.658376
 30
0.0
 10
91.087222
 20
120.333533
 30
0.0
  0
SPLINE
  5
155
100
AcDbEntity
  8
0
 62
7
100
AcDbSpline
 70
8
 71
3
 72
8
 73
4
 74
0
 40
0
 40
0
 40
0
 40
0
 40
1
 40
1
 40
1
 40
1
 10
91.087222
 20
120.333533
 30
0.0
 10
90.935914
 20
121.008693
 30
0.0
 10
90.739268
 20
122.639066
 30
0.0
 10
90.646250
 20
123.949505
 30
0.0
  0
SPLINE
  5
156
100
AcDbEntity
  8
0
 62
7
100
AcDbSpline
 70
8
 71
3
 72
8
 73
4
 74
0
 40
0
 40
0
 40
0
 40
0
 40
1
 40
1
 40
1
 40
1
 10
90.646250
 20
123.949505
 30
0.0
 10
90.478791
 20
126.308714
 30
0.0
 10
90.481582
 20
126.330800
 30
0.0
 10
91.025486
 20
126.039713
 30
0.0
  0
SPLINE
  5
157
100
AcDbEntity
  8
0
 62
7
100
AcDbSpline
 70
8
 71
3
 72
8
 73
4
 74
0
 40
0
 40
0
 40
0
 40
0
 40
1
 40
1
 40
1
 40
1
 10
91.025486
 20
126.039713
 30
0.0
 10
91.953927
 20
125.542827
 30
0.0
 10
92.472736
 20
125.658349
 30
0.0
 10
92.304306
 20
126.330755
 30
0.0
  0
SPLINE
  5
158
100
AcDbEntity
  8
0
 62
7
100
AcDbSpline
 70
8
 71
3
 72
8
 73
4
 74
0
 40
0
 40
0
 40
0
 40
0
 40
1
 40
1
 40
1
 40
1
 10
92.304306
 20
126.330755
 30
0.0
 10
92.222935
 20
126.655610
 30
0.0
 10
91.818364
 20
128.226256
 30
0.0
 10
91.395903
 20
129.814436
 30
0.0
  0
SPLINE
  5
159
100
AcDbEntity
  8
0
 62
7
100
AcDbSpline
 70
8
 71
3
 72
8
 73
4
 74
0
 40
0
 40
0
 40
0
 40
0
 40
1
 40
1
 40
1
 40
1
 10
91.395903
 20
129.814436
 30
0.0
 10
90.757451
 20
132.214595
 30
0.0
 10
90.011964
 20
137.007995
 30
0.0
 10
90.478681
 20
135.714644
 30
0.0
  0
SPLINE
  5
15a
100
AcDbEntity
  8
0
 62
7
100
AcDbSpline
 70
8
 71
3
 72
8
 73
4
 74
0
 40
0
 40
0
 40
0
 40
0
 40
1
 40
1
 40
1
 40
1
 10
90.478681
 20
135.714644
 30
0.0
 10
90.556834
 20
135.498072
 30
0.0
 10
90.758591
 20
135.206384
 30
0.0
 10
90.928472
 20
135.062005
 30
0.0
  0
SPLINE
  5
15b
100
AcDbEntity
  8
0
 62
7
100
AcDbSpline
 70
8
 71
3
 72
8
 73
4
 74
0
 40
0
 40
0
 40
0
 40
0
 40
1
 40
1
 40
1
 40
1
 10
90.928472
 20
135.062005
 30
0.0
 10
91.666624
 20
134.434656
 30
0.0
 10
94.235764
 20
129.105798
 30
0.0
 10
94.235764
 20
128.200477
 30
0.0
  0
SPLINE
  5
15c
100
AcDbEntity
  8
0
 62
7
100
AcDbSpline
 70
8
 71
3
 72
8
 73
4
 74
0
 40
0
 40
0
 40
0
 40
0
 40
1
 40
1
 40
1
 40
1
 10
94.235764
 20
128.200477
 30
0.0
 10
94.235764
 20
128.025931
 30
0.0
 10
94.393766
 20
127.716156
 30
0.0
 10
94.588542
 20
127.521380
 30
0.0
  0
SPLINE
  5
15d
100
AcDbEntity
  8
0
 62
7
100
AcDbSpline
 70
8
 71
3
 72
8
 73
4
 74
0
 40
0
 40
0
 40
0
 40
0
 40
1
 40
1
 40
1
 40
1
 10
94.588542
 20
127.521380
 30
0.0
 10
94.783320
 20
127.326602
 30
0.0
 10
95.090271
 20
126.735899
 30
0.0
 10
95.267639
 20
126.198463
 30
0.0
  0
SPLINE
  5
15e
100
AcDbEntity
  8
0
 62
7
100
AcDbSpline
 70
8
 71
3
 72
8
 73
4
 74
0
 40
0
 40
0
 40
0
 40
0
 40
1
 40
1
 40
1
 40
1
 10
95.267639
 20
126.198463
 30
0.0
 10
95.445010
 20
125.661028
 30
0.0
 10
95.634497
 20
125.219505
 30
0.0
 10
95.690972
 20
125.219505
 30
0.0
  0
SPLINE
  5
15f
100
AcDbEntity
  8
0
 62
7
100
AcDbSpline
 70
8
 71
3
 72
8
 73
4
 74
0
 40
0
 40
0
 40
0
 40
0
 40
1
 40
1
 40
1
 40
1
 10
95.690972
 20
125.219505
 30
0.0
 10
95.979748
 20
125.219505
 30
0.0
 10
95.210892
 20
133.351041
 30
0.0
 10
94.615000
 20
136.596588
 30
0.0
  0
SPLINE
  5
160
100
AcDbEntity
  8
0
 62
7
100
AcDbSpline
 70
8
 71
3
 72
8
 73
4
 74
0
 40
0
 40
0
 40
0
 40
0
 40
1
 40
1
 40
1
 40
1
 10
94.615000
 20
136.596588
 30
0.0
 10
94.200613
 20
138.853565
 30
0.0
 10
94.126276
 20
139.947627
 30
0.0
 10
94.429792
 20
139.498186
 30
0.0
  0
SPLINE
  5
161
100
AcDbEntity
  8
0
 62
7
100
AcDbSpline
 70
8
 71
3
 72
8
 73
4
 74
0
 40
0
 40
0
 40
0
 40
0
 40
1
 40
1
 40
1
 40
1
 10
94.429792
 20
139.498186
 30
0.0
 10
94.915378
 20
138.779140
 30
0.0
 10
99.801008
 20
138.307764
 30
0.0
 10
101.176667
 20
138.845547
 30
0.0
  0
SPLINE
  5
162
100
AcDbEntity
  8
0
 62
7
100
AcDbSpline
 70
8
 71
3
 72
8
 73
4
 74
0
 40
0
 40
0
 40
0
 40
0
 40
1
 40
1
 40
1
 40
1
 10
101.176667
 20
138.845547
 30
0.0
 10
101.612996
 20
139.016122
 30
0.0
 10
101.472546
 20
139.158909
 30
0.0
 10
100.259444
 20
139.762769
 30
0.0
  0
SPLINE
  5
163
100
AcDbEntity
  8
0
 62
7
100
AcDbSpline
 70
8
 71
3
 72
8
 73
4
 74
0
 40
0
 40
0
 40
0
 40
0
 40
1
 40
1
 40
1
 40
1
 10
100.259444
 20
139.762769
 30
0.0
 10
99.470255
 20
140.155611
 30
0.0
 10
98.650391
 20
140.681752
 30
0.0
 10
98.433819
 20
140.935755
 30
0.0
  0
SPLINE
  5
164
100
AcDbEntity
  8
0
 62
7
100
AcDbSpline
 70
8
 71
3
 72
8
 73
4
 74
0
 40
0
 40
0
 40
0
 40
0
 40
1
 40
1
 40
1
 40
1
 10
98.433819
 20
140.935755
 30
0.0
 10
98.217251
 20
141.189764
 30
0.0
 10
97.365368
 20
141.954165
 30
0.0
 10
96.546458
 20
142.637908
 30
0.0
  0
SPLINE
  5
165
100
AcDbEntity
  8
0
 62
7
100
AcDbSpline
 70
8
 71
3
 72
8
 73
4
 74
0
 40
0
 40
0
 40
0
 40
0
 40
1
 40
1
 40
1
 40
1
 10
96.546458
 20
142.637908
 30
0.0
 10
94.238637
 20
144.564806
 30
0.0
 10
93.569925
 20
146.202866
 30
0.0
 10
93.159792
 20
150.884088
 30
0.0
  0
SPLINE
  5
166
100
AcDbEntity
  8
0
 62
7
100
AcDbSpline
 70
8
 71
3
 72
8
 73
4
 74
0
 40
0
 40
0
 40
0
 40
0
 40
1
 40
1
 40
1
 40
1
 10
93.159792
 20
150.884088
 30
0.0
 10
92.979782
 20
152.938717
 30
0.0
 10
92.733410
 20
154.614713
 30
0.0
 10
92.612986
 20
154.614713
 30
0.0
  0
SPLINE
  5
167
100
AcDbEntity
  8
0
 62
7
100
AcDbSpline
 70
8
 71
3
 72
8
 73
4
 74
0
 40
0
 40
0
 40
0
 40
0
 40
1
 40
1
 40
1
 40
1
 10
92.612986
 20
154.614713
 30
0.0
 10
92.492562
 20
154.614713
 30
0.0
 10
92.392500
 20
154.947840
 30
0.0
 10
92.392500
 20
155.355547
 30
0.0
  0
SPLINE
  5
168
100
AcDbEntity
  8
0
 62
7
100
AcDbSpline
 70
8
 71
3
 72
8
 73
4
 74
0
 40
0
 40
0
 40
0
 40
0
 40
1
 40
1
 40
1
 40
1
 10
92.392500
 20
155.355547
 30
0.0
 10
92.392500
 20
158.225597
 30
0.0
 10
89.546755
 20
172.209505
 30
0.0
 10
88.961736
 20
172.209505
 30
0.0
  0
SPLINE
  5
169
100
AcDbEntity
  8
0
 62
7
100
AcDbSpline
 70
8
 71
3
 72
8
 73
4
 74
0
 40
0
 40
0
 40
0
 40
0
 40
1
 40
1
 40
1
 40
1
 10
88.961736
 20
172.209505
 30
0.0
 10
88.840708
 20
172.209505
 30
0.0
 10
88.512362
 20
172.947547
 30
0.0
 10
88.229722
 20
173.849922
 30
0.0
  0
SPLINE
  5
16a
100
AcDbEntity
  8
0
 62
7
100
AcDbSpline
 70
8
 71
3
 72
8
 73
4
 74
0
 40
0
 40
0
 40
0
 40
0
 40
1
 40
1
 40
1
 40
1
 10
88.229722
 20
173.849922
 30
0.0
 10
87.614300
 20
175.814756
 30
0.0
 10
85.618642
 20
180.104381
 30
0.0
 10
85.151736
 20
180.473325
 30
0.0
  0
SPLINE
  5
16b
100
AcDbEntity
  8
0
 62
7
100
AcDbSpline
 70
8
 71
3
 72
8
 73
4
 74
0
 40
0
 40
0
 40
0
 40
0
 40
1
 40
1
 40
1
 40
1
 10
85.151736
 20
180.473325
 30
0.0
 10
84.969017
 20
180.617707
 30
0.0
 10
84.552460
 20
181.270001
 30
0.0
 10
84.225694
 20
181.919713
 30
0.0
  0
SPLINE
  5
16c
100
AcDbEntity
  8
0
 62
7
100
AcDbSpline
 70
8
 71
3
 72
8
 73
4
 74
0
 40
0
 40
0
 40
0
 40
0
 40
1
 40
1
 40
1
 40
1
 10
84.225694
 20
181.919713
 30
0.0
 10
83.653139
 20
183.058127
 30
0.0
 10
78.456220
 20
188.481380
 30
0.0
 10
77.937431
 20
188.481380
 30
0.0
  0
SPLINE
  5
16d
100
AcDbEntity
  8
0
 62
7
100
AcDbSpline
 70
8
 71
3
 72
8
 73
4
 74
0
 40
0
 40
0
 40
0
 40
0
 40
1
 40
1
 40
1
 40
1
 10
77.937431
 20
188.481380
 30
0.0
 10
77.663794
 20
188.481380
 30
0.0
 10
75.552531
 20
189.795695
 30
0.0
 10
75.318056
 20
190.112977
 30
0.0
  0
SPLINE
  5
16e
100
AcDbEntity
  8
0
 62
7
100
AcDbSpline
 70
8
 71
3
 72
8
 73
4
 74
0
 40
0
 40
0
 40
0
 40
0
 40
1
 40
1
 40
1
 40
1
 10
75.318056
 20
190.112977
 30
0.0
 10
75.099788
 20
190.408317
 30
0.0
 10
71.775484
 20
191.978624
 30
0.0
 10
69.558958
 20
192.829366
 30
0.0
  0
SPLINE
  5
16f
100
AcDbEntity
  8
0
 62
7
100
AcDbSpline
 70
8
 71
3
 72
8
 73
4
 74
0
 40
0
 40
0
 40
0
 40
0
 40
1
 40
1
 40
1
 40
1
 10
69.558958
 20
192.829366
 30
0.0
 10
68.476106
 20
193.244986
 30
0.0
 10
67.532120
 20
193.658623
 30
0.0
 10
67.459931
 20
193.755408
 30
0.0
  0
SPLINE
  5
170
100
AcDbEntity
  8
0
 62
7
100
AcDbSpline
 70
8
 71
3
 72
8
 73
4
 74
0
 40
0
 40
0
 40
0
 40
0
 40
1
 40
1
 40
1
 40
1
 10
67.459931
 20
193.755408
 30
0.0
 10
67.192229
 20
194.114324
 30
0.0
 10
60.295457
 20
196.248455
 30
0.0
 10
56.823681
 20
197.045061
 30
0.0
  0
SPLINE
  5
171
100
AcDbEntity
  8
0
 62
7
100
AcDbSpline
 70
8
 71
3
 72
8
 73
4
 74
0
 40
0
 40
0
 40
0
 40
0
 40
1
 40
1
 40
1
 40
1
 10
56.823681
 20
197.045061
 30
0.0
 10
56.390540
 20
197.144442
 30
0.0
 10
55.978648
 20
197.305786
 30
0.0
 10
55.906458
 20
197.406658
 30
0.0
  0
SPLINE
  5
172
100
AcDbEntity
  8
0
 62
7
100
AcDbSpline
 70
8
 71
3
 72
8
 73
4
 74
0
 40
0
 40
0
 40
0
 40
0
 40
1
 40
1
 40
1
 40
1
 10
55.906458
 20
197.406658
 30
0.0
 10
55.590838
 20
197.847675
 30
0.0
 10
38.611192
 20
200.838398
 30
0.0
 10
37.729583
 20
200.608116
 30
0.0
  0
SPLINE
  5
173
100
AcDbEntity
  8
0
 62
7
100
AcDbSpline
 70
8
 71
3
 72
8
 73
4
 74
0
 40
0
 40
0
 40
0
 40
0
 40
1
 40
1
 40
1
 40
1
 10
37.729583
 20
200.608116
 30
0.0
 10
37.621297
 20
200.579832
 30
0.0
 10
37.526736
 20
200.716574
 30
0.0
 10
37.526736
 20
200.907977
 30
0.0
  0
SPLINE
  5
174
100
AcDbEntity
  8
0
 62
7
100
AcDbSpline
 70
8
 71
3
 72
8
 73
4
 74
0
 40
0
 40
0
 40
0
 40
0
 40
1
 40
1
 40
1
 40
1
 10
37.526736
 20
200.907977
 30
0.0
 10
37.526736
 20
201.762755
 30
0.0
 10
35.471532
 20
202.918811
 30
0.0
 10
33.954861
 20
202.918811
 30
0.0
  0
SPLINE
  5
175
100
AcDbEntity
  8
0
 62
7
100
AcDbSpline
 70
8
 71
3
 72
8
 73
4
 74
0
 40
0
 40
0
 40
0
 40
0
 40
1
 40
1
 40
1
 40
1
 10
33.954861
 20
202.918811
 30
0.0
 10
33.027829
 20
202.918811
 30
0.0
 10
30.828852
 20
201.670720
 30
0.0
 10
30.347708
 20
200.872700
 30
0.0
  0
SPLINE
  5
176
100
AcDbEntity
  8
0
 62
7
100
AcDbSpline
 70
8
 71
3
 72
8
 73
4
 74
0
 40
0
 40
0
 40
0
 40
0
 40
1
 40
1
 40
1
 40
1
 10
30.347708
 20
200.872700
 30
0.0
 10
30.223635
 20
200.666914
 30
0.0
 10
29.803697
 20
200.145969
 30
0.0
 10
29.412847
 20
199.708533
 30
0.0
  0
SPLINE
  5
177
100
AcDbEntity
  8
0
 62
7
100
AcDbSpline
 70
8
 71
3
 72
8
 73
4
 74
0
 40
0
 40
0
 40
0
 40
0
 40
1
 40
1
 40
1
 40
1
 10
29.412847
 20
199.708533
 30
0.0
 10
28.056055
 20
198.190019
 30
0.0
 10
25.447622
 20
198.890105
 30
0.0
 10
23.389167
 20
201.331311
 30
0.0
  0
SPLINE
  5
178
100
AcDbEntity
  8
0
 62
7
100
AcDbSpline
 70
8
 71
3
 72
8
 73
4
 74
0
 40
0
 40
0
 40
0
 40
0
 40
1
 40
1
 40
1
 40
1
 10
23.389167
 20
201.331311
 30
0.0
 10
22.189629
 20
202.753891
 30
0.0
 10
20.587851
 20
203.529077
 30
0.0
 10
20.178889
 20
202.883533
 30
0.0
  0
SPLINE
  5
179
100
AcDbEntity
  8
0
 62
7
100
AcDbSpline
 70
8
 71
3
 72
8
 73
4
 74
0
 40
0
 40
0
 40
0
 40
0
 40
1
 40
1
 40
1
 40
1
 10
20.178889
 20
202.883533
 30
0.0
 10
20.053873
 20
202.686198
 30
0.0
 10
19.945195
 20
200.994572
 30
0.0
 10
19.940764
 20
199.117630
 30
0.0
  0
SPLINE
  5
17a
100
AcDbEntity
  8
0
 62
7
100
AcDbSpline
 70
8
 71
3
 72
8
 73
4
 74
0
 40
0
 40
0
 40
0
 40
0
 40
1
 40
1
 40
1
 40
1
 10
19.940764
 20
199.117630
 30
0.0
 10
19.933880
 20
196.194982
 30
0.0
 10
19.700477
 20
194.589290
 30
0.0
 10
19.349861
 20
195.051866
 30
0.0
  0
SPLINE
  5
17b
100
AcDbEntity
  8
0
 62
7
100
AcDbSpline
 70
8
 71
3
 72
8
 73
4
 74
0
 40
0
 40
0
 40
0
 40
0
 40
1
 40
1
 40
1
 40
1
 10
19.349861
 20
195.051866
 30
0.0
 10
19.298310
 20
195.119873
 30
0.0
 10
19.062096
 20
195.494515
 30
0.0
 10
18.820694
 20
195.880894
 30
0.0
  0
SPLINE
  5
17c
100
AcDbEntity
  8
0
 62
7
100
AcDbSpline
 70
8
 71
3
 72
8
 73
4
 74
0
 40
0
 40
0
 40
0
 40
0
 40
1
 40
1
 40
1
 40
1
 10
18.820694
 20
195.880894
 30
0.0
 10
18.579296
 20
196.267268
 30
0.0
 10
17.962674
 20
196.728712
 30
0.0
 10
17.453681
 20
196.912769
 30
0.0
  0
SPLINE
  5
17d
100
AcDbEntity
  8
0
 62
7
100
AcDbSpline
 70
8
 71
3
 72
8
 73
4
 74
0
 40
0
 40
0
 40
0
 40
0
 40
1
 40
1
 40
1
 40
1
 10
17.453681
 20
196.912769
 30
0.0
 10
16.944687
 20
197.096823
 30
0.0
 10
16.527639
 20
197.344199
 30
0.0
 10
16.527639
 20
197.459575
 30
0.0
  0
SPLINE
  5
17e
100
AcDbEntity
  8
0
 62
7
100
AcDbSpline
 70
8
 71
3
 72
8
 73
4
 74
0
 40
0
 40
0
 40
0
 40
0
 40
1
 40
1
 40
1
 40
1
 10
16.527639
 20
197.459575
 30
0.0
 10
16.527639
 20
197.574950
 30
0.0
 10
15.703855
 20
197.671241
 30
0.0
 10
14.693194
 20
197.671241
 30
0.0
  0
SPLINE
  5
17f
100
AcDbEntity
  8
0
 62
7
100
AcDbSpline
 70
8
 71
3
 72
8
 73
4
 74
0
 40
0
 40
0
 40
0
 40
0
 40
1
 40
1
 40
1
 40
1
 10
14.693194
 20
197.671241
 30
0.0
 10
13.682531
 20
197.671241
 30
0.0
 10
12.858750
 20
197.567860
 30
0.0
 10
12.858750
 20
197.441936
 30
0.0
  0
SPLINE
  5
180
100
AcDbEntity
  8
0
 62
7
100
AcDbSpline
 70
8
 71
3
 72
8
 73
4
 74
0
 40
0
 40
0
 40
0
 40
0
 40
1
 40
1
 40
1
 40
1
 10
12.858750
 20
197.441936
 30
0.0
 10
12.858750
 20
197.316008
 30
0.0
 10
12.412399
 20
197.140624
 30
0.0
 10
11.870972
 20
197.053880
 30
0.0
  0
SPLINE
  5
181
100
AcDbEntity
  8
0
 62
7
100
AcDbSpline
 70
8
 71
3
 72
8
 73
4
 74
0
 40
0
 40
0
 40
0
 40
0
 40
1
 40
1
 40
1
 40
1
 10
11.870972
 20
197.053880
 30
0.0
 10
10.655325
 20
196.859110
 30
0.0
 10
6.840931
 20
195.028941
 30
0.0
 10
6.244167
 20
194.355130
 30
0.0
  0
SPLINE
  5
182
100
AcDbEntity
  8
0
 62
7
100
AcDbSpline
 70
8
 71
3
 72
8
 73
4
 74
0
 40
0
 40
0
 40
0
 40
0
 40
1
 40
1
 40
1
 40
1
 10
6.244167
 20
194.355130
 30
0.0
 10
5.825812
 20
193.882766
 30
0.0
 10
5.870084
 20
193.819537
 30
0.0
 10
7.082014
 20
192.944019
 30
0.0
  0
SPLINE
  5
183
100
AcDbEntity
  8
0
 62
7
100
AcDbSpline
 70
8
 71
3
 72
8
 73
4
 74
0
 40
0
 40
0
 40
0
 40
0
 40
1
 40
1
 40
1
 40
1
 10
7.082014
 20
192.944019
 30
0.0
 10
8.426326
 20
191.972864
 30
0.0
 10
10.365291
 20
189.372706
 30
0.0
 10
10.715625
 20
188.075686
 30
0.0
  0
SPLINE
  5
184
100
AcDbEntity
  8
0
 62
7
100
AcDbSpline
 70
8
 71
3
 72
8
 73
4
 74
0
 40
0
 40
0
 40
0
 40
0
 40
1
 40
1
 40
1
 40
1
 10
10.715625
 20
188.075686
 30
0.0
 10
10.903311
 20
187.380832
 30
0.0
 10
10.809122
 20
187.189214
 30
0.0
 10
9.727847
 20
186.188325
 30
0.0
  0
SPLINE
  5
185
100
AcDbEntity
  8
0
 62
7
100
AcDbSpline
 70
8
 71
3
 72
8
 73
4
 74
0
 40
0
 40
0
 40
0
 40
0
 40
1
 40
1
 40
1
 40
1
 10
9.727847
 20
186.188325
 30
0.0
 10
9.066617
 20
185.576247
 30
0.0
 10
8.392216
 20
185.069948
 30
0.0
 10
8.228542
 20
185.068255
 30
0.0
  0
SPLINE
  5
186
100
AcDbEntity
  8
0
 62
7
100
AcDbSpline
 70
8
 71
3
 72
8
 73
4
 74
0
 40
0
 40
0
 40
0
 40
0
 40
1
 40
1
 40
1
 40
1
 10
8.228542
 20
185.068255
 30
0.0
 10
7.797269
 20
185.064197
 30
0.0
 10
6.138616
 20
183.161440
 30
0.0
 10
5.556250
 20
181.999088
 30
0.0
  0
SPLINE
  5
187
100
AcDbEntity
  8
0
 62
7
100
AcDbSpline
 70
8
 71
3
 72
8
 73
4
 74
0
 40
0
 40
0
 40
0
 40
0
 40
1
 40
1
 40
1
 40
1
 10
5.556250
 20
181.999088
 30
0.0
 10
4.649261
 20
180.188811
 30
0.0
 10
4.624857
 20
179.618970
 30
0.0
 10
5.406319
 20
178.074436
 30
0.0
  0
SPLINE
  5
188
100
AcDbEntity
  8
0
 62
7
100
AcDbSpline
 70
8
 71
3
 72
8
 73
4
 74
0
 40
0
 40
0
 40
0
 40
0
 40
1
 40
1
 40
1
 40
1
 10
5.406319
 20
178.074436
 30
0.0
 10
6.172313
 20
176.560477
 30
0.0
 10
6.788057
 20
176.077332
 30
0.0
 10
9.242778
 20
175.084644
 30
0.0
  0
SPLINE
  5
189
100
AcDbEntity
  8
0
 62
7
100
AcDbSpline
 70
8
 71
3
 72
8
 73
4
 74
0
 40
0
 40
0
 40
0
 40
0
 40
1
 40
1
 40
1
 40
1
 10
9.242778
 20
175.084644
 30
0.0
 10
10.072963
 20
174.748921
 30
0.0
 10
10.750903
 20
174.330563
 30
0.0
 10
10.750903
 20
174.158602
 30
0.0
  0
SPLINE
  5
18a
100
AcDbEntity
  8
0
 62
7
100
AcDbSpline
 70
8
 71
3
 72
8
 73
4
 74
0
 40
0
 40
0
 40
0
 40
0
 40
1
 40
1
 40
1
 40
1
 10
10.750903
 20
174.158602
 30
0.0
 10
10.750903
 20
173.734332
 30
0.0
 10
8.409573
 20
168.703639
 30
0.0
 10
8.131528
 20
168.531797
 30
0.0
  0
SPLINE
  5
18b
100
AcDbEntity
  8
0
 62
7
100
AcDbSpline
 70
8
 71
3
 72
8
 73
4
 74
0
 40
0
 40
0
 40
0
 40
0
 40
1
 40
1
 40
1
 40
1
 10
8.131528
 20
168.531797
 30
0.0
 10
8.009630
 20
168.456460
 30
0.0
 10
7.728520
 20
167.925891
 30
0.0
 10
7.514167
 20
167.349991
 30
0.0
  0
SPLINE
  5
18c
100
AcDbEntity
  8
0
 62
7
100
AcDbSpline
 70
8
 71
3
 72
8
 73
4
 74
0
 40
0
 40
0
 40
0
 40
0
 40
1
 40
1
 40
1
 40
1
 10
7.514167
 20
167.349991
 30
0.0
 10
5.780284
 20
162.691589
 30
0.0
 10
5.000442
 20
160.319946
 30
0.0
 10
4.841875
 20
159.262561
 30
0.0
  0
SPLINE
  5
18d
100
AcDbEntity
  8
0
 62
7
100
AcDbSpline
 70
8
 71
3
 72
8
 73
4
 74
0
 40
0
 40
0
 40
0
 40
0
 40
1
 40
1
 40
1
 40
1
 10
4.841875
 20
159.262561
 30
0.0
 10
4.739928
 20
158.582716
 30
0.0
 10
4.555349
 20
158.027838
 30
0.0
 10
4.427361
 20
158.027838
 30
0.0
  0
SPLINE
  5
18e
100
AcDbEntity
  8
0
 62
7
100
AcDbSpline
 70
8
 71
3
 72
8
 73
4
 74
0
 40
0
 40
0
 40
0
 40
0
 40
1
 40
1
 40
1
 40
1
 10
4.427361
 20
158.027838
 30
0.0
 10
4.299373
 20
158.027838
 30
0.0
 10
4.189236
 20
157.384361
 30
0.0
 10
4.189236
 20
156.590269
 30
0.0
  0
SPLINE
  5
18f
100
AcDbEntity
  8
0
 62
7
100
AcDbSpline
 70
8
 71
3
 72
8
 73
4
 74
0
 40
0
 40
0
 40
0
 40
0
 40
1
 40
1
 40
1
 40
1
 10
4.189236
 20
156.590269
 30
0.0
 10
4.189236
 20
155.796178
 30
0.0
 10
4.309440
 20
155.143880
 30
0.0
 10
4.453819
 20
155.143880
 30
0.0
  0
SPLINE
  5
190
100
AcDbEntity
  8
0
 62
7
100
AcDbSpline
 70
8
 71
3
 72
8
 73
4
 74
0
 40
0
 40
0
 40
0
 40
0
 40
1
 40
1
 40
1
 40
1
 10
4.453819
 20
155.143880
 30
0.0
 10
4.598202
 20
155.143880
 30
0.0
 10
4.718403
 20
154.945749
 30
0.0
 10
4.718403
 20
154.702908
 30
0.0
  0
SPLINE
  5
191
100
AcDbEntity
  8
0
 62
7
100
AcDbSpline
 70
8
 71
3
 72
8
 73
4
 74
0
 40
0
 40
0
 40
0
 40
0
 40
1
 40
1
 40
1
 40
1
 10
4.718403
 20
154.702908
 30
0.0
 10
4.718403
 20
153.917642
 30
0.0
 10
6.597983
 20
146.131178
 30
0.0
 10
7.134931
 20
144.692838
 30
0.0
  0
SPLINE
  5
192
100
AcDbEntity
  8
0
 62
7
100
AcDbSpline
 70
8
 71
3
 72
8
 73
4
 74
0
 40
0
 40
0
 40
0
 40
0
 40
1
 40
1
 40
1
 40
1
 10
7.134931
 20
144.692838
 30
0.0
 10
7.710867
 20
143.150062
 30
0.0
 10
10.128586
 20
140.505245
 30
0.0
 10
11.527014
 20
139.886241
 30
0.0
  0
SPLINE
  5
193
100
AcDbEntity
  8
0
 62
7
100
AcDbSpline
 70
8
 71
3
 72
8
 73
4
 74
0
 40
0
 40
0
 40
0
 40
0
 40
1
 40
1
 40
1
 40
1
 10
11.527014
 20
139.886241
 30
0.0
 10
11.969163
 20
139.690526
 30
0.0
 10
12.329583
 20
139.431480
 30
0.0
 10
12.329583
 20
139.312977
 30
0.0
  0
SPLINE
  5
194
100
AcDbEntity
  8
0
 62
7
100
AcDbSpline
 70
8
 71
3
 72
8
 73
4
 74
0
 40
0
 40
0
 40
0
 40
0
 40
1
 40
1
 40
1
 40
1
 10
12.329583
 20
139.312977
 30
0.0
 10
12.329583
 20
139.088563
 30
0.0
 10
16.544431
 20
137.028741
 30
0.0
 10
17.003889
 20
137.028741
 30
0.0
  0
SPLINE
  5
195
100
AcDbEntity
  8
0
 62
7
100
AcDbSpline
 70
8
 71
3
 72
8
 73
4
 74
0
 40
0
 40
0
 40
0
 40
0
 40
1
 40
1
 40
1
 40
1
 10
17.003889
 20
137.028741
 30
0.0
 10
17.148133
 20
137.028741
 30
0.0
 10
17.643771
 20
136.591209
 30
0.0
 10
18.106319
 20
136.049783
 30
0.0
  0
SPLINE
  5
196
100
AcDbEntity
  8
0
 62
7
100
AcDbSpline
 70
8
 71
3
 72
8
 73
4
 74
0
 40
0
 40
0
 40
0
 40
0
 40
1
 40
1
 40
1
 40
1
 10
18.106319
 20
136.049783
 30
0.0
 10
18.945456
 20
135.067545
 30
0.0
 10
19.561141
 20
134.564089
 30
0.0
 10
21.766389
 20
133.086450
 30
0.0
  0
SPLINE
  5
197
100
AcDbEntity
  8
0
 62
7
100
AcDbSpline
 70
8
 71
3
 72
8
 73
4
 74
0
 40
0
 40
0
 40
0
 40
0
 40
1
 40
1
 40
1
 40
1
 10
21.766389
 20
133.086450
 30
0.0
 10
23.204633
 20
132.122734
 30
0.0
 10
23.956679
 20
132.018543
 30
0.0
 10
23.186319
 20
132.892422
 30
0.0
  0
SPLINE
  5
198
100
AcDbEntity
  8
0
 62
7
100
AcDbSpline
 70
8
 71
3
 72
8
 73
4
 74
0
 40
0
 40
0
 40
0
 40
0
 40
1
 40
1
 40
1
 40
1
 10
23.186319
 20
132.892422
 30
0.0
 10
22.162781
 20
134.053495
 30
0.0
 10
21.825701
 20
135.714644
 30
0.0
 10
22.613056
 20
135.714644
 30
0.0
  0
SPLINE
  5
199
100
AcDbEntity
  8
0
 62
7
100
AcDbSpline
 70
8
 71
3
 72
8
 73
4
 74
0
 40
0
 40
0
 40
0
 40
0
 40
1
 40
1
 40
1
 40
1
 10
22.613056
 20
135.714644
 30
0.0
 10
22.752301
 20
135.714644
 30
0.0
 10
22.681187
 20
135.902274
 30
0.0
 10
22.454306
 20
136.129158
 30
0.0
  0
SPLINE
  5
19a
100
AcDbEntity
  8
0
 62
7
100
AcDbSpline
 70
8
 71
3
 72
8
 73
4
 74
0
 40
0
 40
0
 40
0
 40
0
 40
1
 40
1
 40
1
 40
1
 10
22.454306
 20
136.129158
 30
0.0
 10
22.203873
 20
136.379588
 30
0.0
 10
22.047553
 20
136.971365
 30
0.0
 10
22.057431
 20
137.637283
 30
0.0
  0
LWPOLYLINE
  5
19b
100
AcDbEntity
  8
0
 62
7
100
AcDbPolyline
 90
3
 70
0
 10
87.947500
 20
120.298255
 30
0.0
 10
88.591319
 20
118.260963
 30
0.0
 10
88.670694
 20
119.698533
 30
0.0
  0
SPLINE
  5
19c
100
AcDbEntity
  8
0
 62
7
100
AcDbSpline
 70
8
 71
3
 72
8
 73
4
 74
0
 40
0
 40
0
 40
0
 40
0
 40
1
 40
1
 40
1
 40
1
 10
22.648333
 20
137.557908
 30
0.0
 10
22.964233
 20
136.908196
 30
0.0
 10
23.301585
 20
136.317177
 30
0.0
 10
23.397986
 20
136.243811
 30
0.0
  0
SPLINE
  5
19d
100
AcDbEntity
  8
0
 62
7
100
AcDbSpline
 70
8
 71
3
 72
8
 73
4
 74
0
 40
0
 40
0
 40
0
 40
0
 40
1
 40
1
 40
1
 40
1
 10
23.397986
 20
136.243811
 30
0.0
 10
23.892327
 20
135.867592
 30
0.0
 10
25.219431
 20
131.085418
 30
0.0
 10
25.990903
 20
126.886380
 30
0.0
  0
SPLINE
  5
19e
100
AcDbEntity
  8
0
 62
7
100
AcDbSpline
 70
8
 71
3
 72
8
 73
4
 74
0
 40
0
 40
0
 40
0
 40
0
 40
1
 40
1
 40
1
 40
1
 10
25.990903
 20
126.886380
 30
0.0
 10
27.054333
 20
121.098251
 30
0.0
 10
26.915830
 20
116.381747
 30
0.0
 10
25.594028
 20
113.075130
 30
0.0
  0
SPLINE
  5
19f
100
AcDbEntity
  8
0
 62
7
100
AcDbSpline
 70
8
 71
3
 72
8
 73
4
 74
0
 40
0
 40
0
 40
0
 40
0
 40
1
 40
1
 40
1
 40
1
 10
25.594028
 20
113.075130
 30
0.0
 10
24.978467
 20
111.535247
 30
0.0
 10
25.111267
 20
111.222358
 30
0.0
 10
26.079097
 20
111.955061
 30
0.0
  0
SPLINE
  5
1a0
100
AcDbEntity
  8
0
 62
7
100
AcDbSpline
 70
8
 71
3
 72
8
 73
4
 74
0
 40
0
 40
0
 40
0
 40
0
 40
1
 40
1
 40
1
 40
1
 10
26.079097
 20
111.955061
 30
0.0
 10
26.351780
 20
112.161501
 30
0.0
 10
26.712393
 20
112.558367
 30
0.0
 10
26.872847
 20
112.828186
 30
0.0
  0
SPLINE
  5
1a1
100
AcDbEntity
  8
0
 62
7
100
AcDbSpline
 70
8
 71
3
 72
8
 73
4
 74
0
 40
0
 40
0
 40
0
 40
0
 40
1
 40
1
 40
1
 40
1
 10
26.872847
 20
112.828186
 30
0.0
 10
27.033305
 20
113.098001
 30
0.0
 10
27.430510
 20
113.719122
 30
0.0
 10
27.754792
 20
114.212838
 30
0.0
  0
SPLINE
  5
1a2
100
AcDbEntity
  8
0
 62
7
100
AcDbSpline
 70
8
 71
3
 72
8
 73
4
 74
0
 40
0
 40
0
 40
0
 40
0
 40
1
 40
1
 40
1
 40
1
 10
27.754792
 20
114.212838
 30
0.0
 10
28.079076
 20
114.706555
 30
0.0
 10
28.380890
 20
115.232626
 30
0.0
 10
28.433889
 20
115.377005
 30
0.0
  0
SPLINE
  5
1a3
100
AcDbEntity
  8
0
 62
7
100
AcDbSpline
 70
8
 71
3
 72
8
 73
4
 74
0
 40
0
 40
0
 40
0
 40
0
 40
1
 40
1
 40
1
 40
1
 10
28.433889
 20
115.377005
 30
0.0
 10
28.692069
 20
116.080373
 30
0.0
 10
28.971339
 20
114.941999
 30
0.0
 10
29.333472
 20
111.690477
 30
0.0
  0
SPLINE
  5
1a4
100
AcDbEntity
  8
0
 62
7
100
AcDbSpline
 70
8
 71
3
 72
8
 73
4
 74
0
 40
0
 40
0
 40
0
 40
0
 40
1
 40
1
 40
1
 40
1
 10
29.333472
 20
111.690477
 30
0.0
 10
29.790525
 20
107.586715
 30
0.0
 10
29.804690
 20
107.665444
 30
0.0
 10
27.719514
 20
105.490408
 30
0.0
  0
SPLINE
  5
1a5
100
AcDbEntity
  8
0
 62
7
100
AcDbSpline
 70
8
 71
3
 72
8
 73
4
 74
0
 40
0
 40
0
 40
0
 40
0
 40
1
 40
1
 40
1
 40
1
 10
27.719514
 20
105.490408
 30
0.0
 10
26.353437
 20
104.065457
 30
0.0
 10
24.723750
 20
101.680196
 30
0.0
 10
23.971250
 20
100.013533
 30
0.0
  0
SPLINE
  5
1a6
100
AcDbEntity
  8
0
 62
7
100
AcDbSpline
 70
8
 71
3
 72
8
 73
4
 74
0
 40
0
 40
0
 40
0
 40
0
 40
1
 40
1
 40
1
 40
1
 10
23.971250
 20
100.013533
 30
0.0
 10
23.743093
 20
99.508203
 30
0.0
 10
23.448343
 20
99.028067
 30
0.0
 10
23.318611
 20
98.946380
 30
0.0
  0
SPLINE
  5
1a7
100
AcDbEntity
  8
0
 62
7
100
AcDbSpline
 70
8
 71
3
 72
8
 73
4
 74
0
 40
0
 40
0
 40
0
 40
0
 40
1
 40
1
 40
1
 40
1
 10
23.318611
 20
98.946380
 30
0.0
 10
22.877103
 20
98.668380
 30
0.0
 10
22.086384
 20
95.956563
 30
0.0
 10
21.907500
 20
94.113325
 30
0.0
  0
SPLINE
  5
1a8
100
AcDbEntity
  8
0
 62
7
100
AcDbSpline
 70
8
 71
3
 72
8
 73
4
 74
0
 40
0
 40
0
 40
0
 40
0
 40
1
 40
1
 40
1
 40
1
 10
21.907500
 20
94.113325
 30
0.0
 10
21.656915
 20
91.531285
 30
0.0
 10
22.345300
 20
88.202273
 30
0.0
 10
23.424444
 20
86.757908
 30
0.0
  0
SPLINE
  5
1a9
100
AcDbEntity
  8
0
 62
7
100
AcDbSpline
 70
8
 71
3
 72
8
 73
4
 74
0
 40
0
 40
0
 40
0
 40
0
 40
1
 40
1
 40
1
 40
1
 10
23.424444
 20
86.757908
 30
0.0
 10
25.728267
 20
83.674396
 30
0.0
 10
25.632941
 20
83.903769
 30
0.0
 10
25.805694
 20
81.042908
 30
0.0
  0
SPLINE
  5
1aa
100
AcDbEntity
  8
0
 62
7
100
AcDbSpline
 70
8
 71
3
 72
8
 73
4
 74
0
 40
0
 40
0
 40
0
 40
0
 40
1
 40
1
 40
1
 40
1
 10
25.805694
 20
81.042908
 30
0.0
 10
25.974063
 20
78.254710
 30
0.0
 10
26.678529
 20
73.995336
 30
0.0
 10
27.013958
 20
73.766866
 30
0.0
  0
SPLINE
  5
1ab
100
AcDbEntity
  8
0
 62
7
100
AcDbSpline
 70
8
 71
3
 72
8
 73
4
 74
0
 40
0
 40
0
 40
0
 40
0
 40
1
 40
1
 40
1
 40
1
 10
27.013958
 20
73.766866
 30
0.0
 10
27.119944
 20
73.694677
 30
0.0
 10
27.462367
 20
72.690586
 30
0.0
 10
27.772431
 20
71.535547
 30
0.0
  0
SPLINE
  5
1ac
100
AcDbEntity
  8
0
 62
7
100
AcDbSpline
 70
8
 71
3
 72
8
 73
4
 74
0
 40
0
 40
0
 40
0
 40
0
 40
1
 40
1
 40
1
 40
1
 10
27.772431
 20
71.535547
 30
0.0
 10
28.082494
 20
70.380504
 30
0.0
 10
28.700764
 20
68.432432
 30
0.0
 10
29.148264
 20
67.205200
 30
0.0
  0
SPLINE
  5
1ad
100
AcDbEntity
  8
0
 62
7
100
AcDbSpline
 70
8
 71
3
 72
8
 73
4
 74
0
 40
0
 40
0
 40
0
 40
0
 40
1
 40
1
 40
1
 40
1
 10
29.148264
 20
67.205200
 30
0.0
 10
29.595770
 20
65.977968
 30
0.0
 10
30.083912
 20
64.527526
 30
0.0
 10
30.233056
 20
63.986102
 30
0.0
  0
SPLINE
  5
1ae
100
AcDbEntity
  8
0
 62
7
100
AcDbSpline
 70
8
 71
3
 72
8
 73
4
 74
0
 40
0
 40
0
 40
0
 40
0
 40
1
 40
1
 40
1
 40
1
 10
30.233056
 20
63.986102
 30
0.0
 10
30.382196
 20
63.444676
 30
0.0
 10
30.589530
 20
62.998325
 30
0.0
 10
30.691667
 20
62.998325
 30
0.0
  0
SPLINE
  5
1af
100
AcDbEntity
  8
0
 62
7
100
AcDbSpline
 70
8
 71
3
 72
8
 73
4
 74
0
 40
0
 40
0
 40
0
 40
0
 40
1
 40
1
 40
1
 40
1
 10
30.691667
 20
62.998325
 30
0.0
 10
30.891754
 20
62.998325
 30
0.0
 10
31.481096
 20
61.730165
 30
0.0
 10
32.808333
 20
58.412213
 30
0.0
  0
SPLINE
  5
1b0
100
AcDbEntity
  8
0
 62
7
100
AcDbSpline
 70
8
 71
3
 72
8
 73
4
 74
0
 40
0
 40
0
 40
0
 40
0
 40
1
 40
1
 40
1
 40
1
 10
32.808333
 20
58.412213
 30
0.0
 10
34.342366
 20
54.577285
 30
0.0
 10
34.497351
 20
54.205245
 30
0.0
 10
34.651597
 20
54.073047
 30
0.0
  0
SPLINE
  5
1b1
100
AcDbEntity
  8
0
 62
7
100
AcDbSpline
 70
8
 71
3
 72
8
 73
4
 74
0
 40
0
 40
0
 40
0
 40
0
 40
1
 40
1
 40
1
 40
1
 10
34.651597
 20
54.073047
 30
0.0
 10
35.099868
 20
53.688852
 30
0.0
 10
37.205245
 20
46.754181
 30
0.0
 10
37.835417
 20
43.577908
 30
0.0
  0
SPLINE
  5
1b2
100
AcDbEntity
  8
0
 62
7
100
AcDbSpline
 70
8
 71
3
 72
8
 73
4
 74
0
 40
0
 40
0
 40
0
 40
0
 40
1
 40
1
 40
1
 40
1
 10
37.835417
 20
43.577908
 30
0.0
 10
38.021610
 20
42.639437
 30
0.0
 10
38.235506
 20
41.806834
 30
0.0
 10
38.320486
 20
41.734644
 30
0.0
  0
SPLINE
  5
1b3
100
AcDbEntity
  8
0
 62
7
100
AcDbSpline
 70
8
 71
3
 72
8
 73
4
 74
0
 40
0
 40
0
 40
0
 40
0
 40
1
 40
1
 40
1
 40
1
 10
38.320486
 20
41.734644
 30
0.0
 10
38.734850
 20
41.382648
 30
0.0
 10
39.945513
 20
30.926924
 30
0.0
 10
39.608125
 20
30.613325
 30
0.0
  0
SPLINE
  5
1b4
100
AcDbEntity
  8
0
 62
7
100
AcDbSpline
 70
8
 71
3
 72
8
 73
4
 74
0
 40
0
 40
0
 40
0
 40
0
 40
1
 40
1
 40
1
 40
1
 10
39.608125
 20
30.613325
 30
0.0
 10
39.449211
 20
30.465615
 30
0.0
 10
33.486412
 20
31.814189
 30
0.0
 10
33.328681
 20
32.033255
 30
0.0
  0
SPLINE
  5
1b5
100
AcDbEntity
  8
0
 62
7
100
AcDbSpline
 70
8
 71
3
 72
8
 73
4
 74
0
 40
0
 40
0
 40
0
 40
0
 40
1
 40
1
 40
1
 40
1
 10
33.328681
 20
32.033255
 30
0.0
 10
33.194063
 20
32.220219
 30
0.0
 10
27.655864
 20
33.160417
 30
0.0
 10
24.138819
 20
33.594297
 30
0.0
  0
SPLINE
  5
1b6
100
AcDbEntity
  8
0
 62
7
100
AcDbSpline
 70
8
 71
3
 72
8
 73
4
 74
0
 40
0
 40
0
 40
0
 40
0
 40
1
 40
1
 40
1
 40
1
 10
24.138819
 20
33.594297
 30
0.0
 10
19.628849
 20
34.150675
 30
0.0
 10
11.753390
 20
34.439657
 30
0.0
 10
6.032500
 20
34.264575
 30
0.0
  0
SPLINE
  5
1b7
100
AcDbEntity
  8
0
 62
7
100
AcDbSpline
 70
8
 71
3
 72
8
 73
4
 74
0
 40
0
 40
0
 40
0
 40
0
 40
1
 40
1
 40
1
 40
1
 10
6.032500
 20
34.264575
 30
0.0
 10
2.784760
 20
34.165182
 30
0.0
 10
0.079637
 20
34.044351
 30
0.0
 10
0.026458
 20
33.991172
 30
0.0
  0
SPLINE
  5
1b8
100
AcDbEntity
  8
0
 62
7
100
AcDbSpline
 70
8
 71
3
 72
8
 73
4
 74
0
 40
0
 40
0
 40
0
 40
0
 40
1
 40
1
 40
1
 40
1
 10
0.026458
 20
33.991172
 30
0.0
 10
-0.157271
 20
33.807445
 30
0.0
 10
0.566987
 20
31.239505
 30
0.0
 10
0.802569
 20
31.239505
 30
0.0
  0
SPLINE
  5
1b9
100
AcDbEntity
  8
0
 62
7
100
AcDbSpline
 70
8
 71
3
 72
8
 73
4
 74
0
 40
0
 40
0
 40
0
 40
0
 40
1
 40
1
 40
1
 40
1
 10
0.802569
 20
31.239505
 30
0.0
 10
0.932550
 20
31.239505
 30
0.0
 10
1.040694
 20
31.020089
 30
0.0
 10
1.040694
 20
30.754436
 30
0.0
  0
SPLINE
  5
1ba
100
AcDbEntity
  8
0
 62
7
100
AcDbSpline
 70
8
 71
3
 72
8
 73
4
 74
0
 40
0
 40
0
 40
0
 40
0
 40
1
 40
1
 40
1
 40
1
 10
1.040694
 20
30.754436
 30
0.0
 10
1.040694
 20
29.753549
 30
0.0
 10
3.843091
 20
22.569204
 30
0.0
 10
4.436181
 20
22.049644
 30
0.0
  0
SPLINE
  5
1bb
100
AcDbEntity
  8
0
 62
7
100
AcDbSpline
 70
8
 71
3
 72
8
 73
4
 74
0
 40
0
 40
0
 40
0
 40
0
 40
1
 40
1
 40
1
 40
1
 10
4.436181
 20
22.049644
 30
0.0
 10
4.660022
 20
21.853553
 30
0.0
 10
6.374401
 20
19.136436
 30
0.0
 10
6.790972
 20
18.319019
 30
0.0
  0
SPLINE
  5
1bc
100
AcDbEntity
  8
0
 62
7
100
AcDbSpline
 70
8
 71
3
 72
8
 73
4
 74
0
 40
0
 40
0
 40
0
 40
0
 40
1
 40
1
 40
1
 40
1
 10
6.790972
 20
18.319019
 30
0.0
 10
6.990551
 20
17.927396
 30
0.0
 10
7.471159
 20
17.275099
 30
0.0
 10
7.858125
 20
16.872630
 30
0.0
  0
SPLINE
  5
1bd
100
AcDbEntity
  8
0
 62
7
100
AcDbSpline
 70
8
 71
3
 72
8
 73
4
 74
0
 40
0
 40
0
 40
0
 40
0
 40
1
 40
1
 40
1
 40
1
 10
7.858125
 20
16.872630
 30
0.0
 10
8.245091
 20
16.470162
 30
0.0
 10
9.294557
 20
15.025144
 30
0.0
 10
10.186458
 20
13.653533
 30
0.0
  0
SPLINE
  5
1be
100
AcDbEntity
  8
0
 62
7
100
AcDbSpline
 70
8
 71
3
 72
8
 73
4
 74
0
 40
0
 40
0
 40
0
 40
0
 40
1
 40
1
 40
1
 40
1
 10
10.186458
 20
13.653533
 30
0.0
 10
11.078357
 20
12.281922
 30
0.0
 10
12.044265
 20
10.857123
 30
0.0
 10
12.329583
 20
10.496172
 30
0.0
  0
SPLINE
  5
1bf
100
AcDbEntity
  8
0
 62
7
100
AcDbSpline
 70
8
 71
3
 72
8
 73
4
 74
0
 40
0
 40
0
 40
0
 40
0
 40
1
 40
1
 40
1
 40
1
 10
12.329583
 20
10.496172
 30
0.0
 10
12.949880
 20
9.711453
 30
0.0
 10
15.123803
 20
5.303918
 30
0.0
 10
15.363472
 20
4.349019
 30
0.0
  0
SPLINE
  5
1c0
100
AcDbEntity
  8
0
 62
7
100
AcDbSpline
 70
8
 71
3
 72
8
 73
4
 74
0
 40
0
 40
0
 40
0
 40
0
 40
1
 40
1
 40
1
 40
1
 10
15.363472
 20
4.349019
 30
0.0
 10
15.456552
 20
3.978151
 30
0.0
 10
15.627728
 20
3.678741
 30
0.0
 10
15.733889
 20
3.678741
 30
0.0
  0
SPLINE
  5
1c1
100
AcDbEntity
  8
0
 62
7
100
AcDbSpline
 70
8
 71
3
 72
8
 73
4
 74
0
 40
0
 40
0
 40
0
 40
0
 40
1
 40
1
 40
1
 40
1
 10
15.733889
 20
3.678741
 30
0.0
 10
15.840052
 20
3.678741
 30
0.0
 10
16.201201
 20
2.846143
 30
0.0
 10
16.545278
 20
1.835477
 30
0.0
  0
LWPOLYLINE
  5
1c2
100
AcDbEntity
  8
0
 62
7
100
AcDbPolyline
 90
3
 70
0
 10
22.057431
 20
137.637283
 30
0.0
 10
22.075069
 20
138.739713
 30
0.0
 10
22.648333
 20
137.557908
 30
0.0
  0
SPLINE
  5
1c3
100
AcDbEntity
  8
0
 62
7
100
AcDbSpline
 70
8
 71
3
 72
8
 73
4
 74
0
 40
0
 40
0
 40
0
 40
0
 40
1
 40
1
 40
1
 40
1
 10
99.668542
 20
1.068186
 30
0.0
 10
99.538290
 20
2.039284
 30
0.0
 10
99.586994
 20
2.150649
 30
0.0
 10
100.224167
 20
2.391102
 30
0.0
  0
SPLINE
  5
1c4
100
AcDbEntity
  8
0
 62
7
100
AcDbSpline
 70
8
 71
3
 72
8
 73
4
 74
0
 40
0
 40
0
 40
0
 40
0
 40
1
 40
1
 40
1
 40
1
 10
100.224167
 20
2.391102
 30
0.0
 10
101.492109
 20
2.869638
 30
0.0
 10
103.161042
 20
3.768022
 30
0.0
 10
103.161042
 20
3.969783
 30
0.0
  0
SPLINE
  5
1c5
100
AcDbEntity
  8
0
 62
7
100
AcDbSpline
 70
8
 71
3
 72
8
 73
4
 74
0
 40
0
 40
0
 40
0
 40
0
 40
1
 40
1
 40
1
 40
1
 10
103.161042
 20
3.969783
 30
0.0
 10
103.161042
 20
4.078862
 30
0.0
 10
103.427090
 20
4.246798
 30
0.0
 10
103.751944
 20
4.349019
 30
0.0
  0
SPLINE
  5
1c6
100
AcDbEntity
  8
0
 62
7
100
AcDbSpline
 70
8
 71
3
 72
8
 73
4
 74
0
 40
0
 40
0
 40
0
 40
0
 40
1
 40
1
 40
1
 40
1
 10
103.751944
 20
4.349019
 30
0.0
 10
104.076799
 20
4.451240
 30
0.0
 10
105.011070
 20
4.991272
 30
0.0
 10
105.833333
 20
5.548463
 30
0.0
  0
SPLINE
  5
1c7
100
AcDbEntity
  8
0
 62
7
100
AcDbSpline
 70
8
 71
3
 72
8
 73
4
 74
0
 40
0
 40
0
 40
0
 40
0
 40
1
 40
1
 40
1
 40
1
 10
105.833333
 20
5.548463
 30
0.0
 10
106.655596
 20
6.105683
 30
0.0
 10
107.409375
 20
6.562700
 30
0.0
 10
107.509028
 20
6.562700
 30
0.0
  0
SPLINE
  5
1c8
100
AcDbEntity
  8
0
 62
7
100
AcDbSpline
 70
8
 71
3
 72
8
 73
4
 74
0
 40
0
 40
0
 40
0
 40
0
 40
1
 40
1
 40
1
 40
1
 10
107.509028
 20
6.562700
 30
0.0
 10
107.608678
 20
6.562700
 30
0.0
 10
107.988007
 20
6.888836
 30
0.0
 10
108.346875
 20
7.285894
 30
0.0
  0
SPLINE
  5
1c9
100
AcDbEntity
  8
0
 62
7
100
AcDbSpline
 70
8
 71
3
 72
8
 73
4
 74
0
 40
0
 40
0
 40
0
 40
0
 40
1
 40
1
 40
1
 40
1
 10
108.346875
 20
7.285894
 30
0.0
 10
108.705743
 20
7.682924
 30
0.0
 10
109.694094
 20
8.743236
 30
0.0
 10
110.542917
 20
9.640686
 30
0.0
  0
SPLINE
  5
1ca
100
AcDbEntity
  8
0
 62
7
100
AcDbSpline
 70
8
 71
3
 72
8
 73
4
 74
0
 40
0
 40
0
 40
0
 40
0
 40
1
 40
1
 40
1
 40
1
 10
110.542917
 20
9.640686
 30
0.0
 10
111.391742
 20
10.538138
 30
0.0
 10
112.086319
 20
11.325883
 30
0.0
 10
112.086319
 20
11.395755
 30
0.0
  0
SPLINE
  5
1cb
100
AcDbEntity
  8
0
 62
7
100
AcDbSpline
 70
8
 71
3
 72
8
 73
4
 74
0
 40
0
 40
0
 40
0
 40
0
 40
1
 40
1
 40
1
 40
1
 10
112.086319
 20
11.395755
 30
0.0
 10
112.086319
 20
11.465628
 30
0.0
 10
112.443982
 20
12.054874
 30
0.0
 10
112.880069
 20
12.701033
 30
0.0
  0
SPLINE
  5
1cc
100
AcDbEntity
  8
0
 62
7
100
AcDbSpline
 70
8
 71
3
 72
8
 73
4
 74
0
 40
0
 40
0
 40
0
 40
0
 40
1
 40
1
 40
1
 40
1
 10
112.880069
 20
12.701033
 30
0.0
 10
113.558032
 20
13.705583
 30
0.0
 10
113.912735
 20
13.954464
 30
0.0
 10
115.367153
 20
14.438463
 30
0.0
  0
SPLINE
  5
1cd
100
AcDbEntity
  8
0
 62
7
100
AcDbSpline
 70
8
 71
3
 72
8
 73
4
 74
0
 40
0
 40
0
 40
0
 40
0
 40
1
 40
1
 40
1
 40
1
 10
115.367153
 20
14.438463
 30
0.0
 10
116.302677
 20
14.749786
 30
0.0
 10
117.069306
 20
15.101979
 30
0.0
 10
117.069306
 20
15.223394
 30
0.0
  0
SPLINE
  5
1ce
100
AcDbEntity
  8
0
 62
7
100
AcDbSpline
 70
8
 71
3
 72
8
 73
4
 74
0
 40
0
 40
0
 40
0
 40
0
 40
1
 40
1
 40
1
 40
1
 10
117.069306
 20
15.223394
 30
0.0
 10
117.069306
 20
15.344803
 30
0.0
 10
117.515657
 20
15.592459
 30
0.0
 10
118.057083
 20
15.770200
 30
0.0
  0
SPLINE
  5
1cf
100
AcDbEntity
  8
0
 62
7
100
AcDbSpline
 70
8
 71
3
 72
8
 73
4
 74
0
 40
0
 40
0
 40
0
 40
0
 40
1
 40
1
 40
1
 40
1
 10
118.057083
 20
15.770200
 30
0.0
 10
119.384358
 20
16.205925
 30
0.0
 10
120.827729
 20
17.139886
 30
0.0
 10
121.505486
 20
18.001519
 30
0.0
  0
SPLINE
  5
1d0
100
AcDbEntity
  8
0
 62
7
100
AcDbSpline
 70
8
 71
3
 72
8
 73
4
 74
0
 40
0
 40
0
 40
0
 40
0
 40
1
 40
1
 40
1
 40
1
 10
121.505486
 20
18.001519
 30
0.0
 10
122.013043
 20
18.646772
 30
0.0
 10
122.061111
 20
19.036668
 30
0.0
 10
122.061111
 20
22.340686
 30
0.0
  0
SPLINE
  5
1d1
100
AcDbEntity
  8
0
 62
7
100
AcDbSpline
 70
8
 71
3
 72
8
 73
4
 74
0
 40
0
 40
0
 40
0
 40
0
 40
1
 40
1
 40
1
 40
1
 10
122.061111
 20
22.340686
 30
0.0
 10
122.061111
 20
24.940649
 30
0.0
 10
121.940097
 20
26.309264
 30
0.0
 10
121.646597
 20
27.173741
 30
0.0
  0
SPLINE
  5
1d2
100
AcDbEntity
  8
0
 62
7
100
AcDbSpline
 70
8
 71
3
 72
8
 73
4
 74
0
 40
0
 40
0
 40
0
 40
0
 40
1
 40
1
 40
1
 40
1
 10
121.646597
 20
27.173741
 30
0.0
 10
121.082641
 20
28.834842
 30
0.0
 10
121.216612
 20
29.553871
 30
0.0
 10
122.061111
 20
29.449158
 30
0.0
  0
SPLINE
  5
1d3
100
AcDbEntity
  8
0
 62
7
100
AcDbSpline
 70
8
 71
3
 72
8
 73
4
 74
0
 40
0
 40
0
 40
0
 40
0
 40
1
 40
1
 40
1
 40
1
 10
122.061111
 20
29.449158
 30
0.0
 10
122.422059
 20
29.404397
 30
0.0
 10
123.222989
 20
29.307217
 30
0.0
 10
123.842639
 20
29.228672
 30
0.0
  0
SPLINE
  5
1d4
100
AcDbEntity
  8
0
 62
7
100
AcDbSpline
 70
8
 71
3
 72
8
 73
4
 74
0
 40
0
 40
0
 40
0
 40
0
 40
1
 40
1
 40
1
 40
1
 10
123.842639
 20
29.228672
 30
0.0
 10
125.285923
 20
29.045721
 30
0.0
 10
126.391269
 20
29.486533
 30
0.0
 10
127.635000
 20
30.745616
 30
0.0
  0
SPLINE
  5
1d5
100
AcDbEntity
  8
0
 62
7
100
AcDbSpline
 70
8
 71
3
 72
8
 73
4
 74
0
 40
0
 40
0
 40
0
 40
0
 40
1
 40
1
 40
1
 40
1
 10
127.635000
 20
30.745616
 30
0.0
 10
128.415714
 20
31.535971
 30
0.0
 10
128.622778
 20
31.941818
 30
0.0
 10
128.622778
 20
32.712352
 30
0.0
  0
SPLINE
  5
1d6
100
AcDbEntity
  8
0
 62
7
100
AcDbSpline
 70
8
 71
3
 72
8
 73
4
 74
0
 40
0
 40
0
 40
0
 40
0
 40
1
 40
1
 40
1
 40
1
 10
128.622778
 20
32.712352
 30
0.0
 10
128.622778
 20
33.781086
 30
0.0
 10
127.343109
 20
36.051428
 30
0.0
 10
126.479653
 20
36.513533
 30
0.0
  0
SPLINE
  5
1d7
100
AcDbEntity
  8
0
 62
7
100
AcDbSpline
 70
8
 71
3
 72
8
 73
4
 74
0
 40
0
 40
0
 40
0
 40
0
 40
1
 40
1
 40
1
 40
1
 10
126.479653
 20
36.513533
 30
0.0
 10
126.204322
 20
36.660887
 30
0.0
 10
125.629444
 20
37.262407
 30
0.0
 10
125.200833
 20
37.854088
 30
0.0
  0
SPLINE
  5
1d8
100
AcDbEntity
  8
0
 62
7
100
AcDbSpline
 70
8
 71
3
 72
8
 73
4
 74
0
 40
0
 40
0
 40
0
 40
0
 40
1
 40
1
 40
1
 40
1
 10
125.200833
 20
37.854088
 30
0.0
 10
124.019922
 20
39.484286
 30
0.0
 10
124.167118
 20
41.462012
 30
0.0
 10
125.553611
 20
42.563672
 30
0.0
  0
SPLINE
  5
1d9
100
AcDbEntity
  8
0
 62
7
100
AcDbSpline
 70
8
 71
3
 72
8
 73
4
 74
0
 40
0
 40
0
 40
0
 40
0
 40
1
 40
1
 40
1
 40
1
 10
125.553611
 20
42.563672
 30
0.0
 10
126.198082
 20
43.075747
 30
0.0
 10
126.098481
 20
43.389028
 30
0.0
 10
124.371806
 20
46.267838
 30
0.0
  0
SPLINE
  5
1da
100
AcDbEntity
  8
0
 62
7
100
AcDbSpline
 70
8
 71
3
 72
8
 73
4
 74
0
 40
0
 40
0
 40
0
 40
0
 40
1
 40
1
 40
1
 40
1
 10
124.371806
 20
46.267838
 30
0.0
 10
122.894254
 20
48.731289
 30
0.0
 10
119.951686
 20
50.654249
 30
0.0
 10
117.660208
 20
50.659922
 30
0.0
  0
SPLINE
  5
1db
100
AcDbEntity
  8
0
 62
7
100
AcDbSpline
 70
8
 71
3
 72
8
 73
4
 74
0
 40
0
 40
0
 40
0
 40
0
 40
1
 40
1
 40
1
 40
1
 10
117.660208
 20
50.659922
 30
0.0
 10
117.335354
 20
50.660726
 30
0.0
 10
117.069306
 20
50.760986
 30
0.0
 10
117.069306
 20
50.880408
 30
0.0
  0
SPLINE
  5
1dc
100
AcDbEntity
  8
0
 62
7
100
AcDbSpline
 70
8
 71
3
 72
8
 73
4
 74
0
 40
0
 40
0
 40
0
 40
0
 40
1
 40
1
 40
1
 40
1
 10
117.069306
 20
50.880408
 30
0.0
 10
117.069306
 20
50.999830
 30
0.0
 10
116.331266
 20
51.233815
 30
0.0
 10
115.428889
 20
51.400755
 30
0.0
  0
SPLINE
  5
1dd
100
AcDbEntity
  8
0
 62
7
100
AcDbSpline
 70
8
 71
3
 72
8
 73
4
 74
0
 40
0
 40
0
 40
0
 40
0
 40
1
 40
1
 40
1
 40
1
 10
115.428889
 20
51.400755
 30
0.0
 10
113.495181
 20
51.758497
 30
0.0
 10
110.404388
 20
52.905406
 30
0.0
 10
109.969653
 20
53.429227
 30
0.0
  0
SPLINE
  5
1de
100
AcDbEntity
  8
0
 62
7
100
AcDbSpline
 70
8
 71
3
 72
8
 73
4
 74
0
 40
0
 40
0
 40
0
 40
0
 40
1
 40
1
 40
1
 40
1
 10
109.969653
 20
53.429227
 30
0.0
 10
109.734723
 20
53.712302
 30
0.0
 10
109.767745
 20
54.088211
 30
0.0
 10
110.101944
 20
55.052005
 30
0.0
  0
SPLINE
  5
1df
100
AcDbEntity
  8
0
 62
7
100
AcDbSpline
 70
8
 71
3
 72
8
 73
4
 74
0
 40
0
 40
0
 40
0
 40
0
 40
1
 40
1
 40
1
 40
1
 10
110.101944
 20
55.052005
 30
0.0
 10
110.340964
 20
55.741319
 30
0.0
 10
110.607752
 20
57.097859
 30
0.0
 10
110.692847
 20
58.068255
 30
0.0
  0
LWPOLYLINE
  5
1e0
100
AcDbEntity
  8
0
 62
7
100
AcDbPolyline
 90
5
 70
0
 10
16.545278
 20
1.835477
 30
0.0
 10
17.171458
 20
0.001033
 30
0.0
 10
58.490556
 20
0.001033
 30
0.0
 10
99.818472
 20
0.001033
 30
0.0
 10
99.668542
 20
1.068186
 30
0.0
  0
SPLINE
  5
1e1
100
AcDbEntity
  8
0
 62
7
100
AcDbSpline
 70
8
 71
3
 72
8
 73
4
 74
0
 40
0
 40
0
 40
0
 40
0
 40
1
 40
1
 40
1
 40
1
 10
110.022569
 20
59.602838
 30
0.0
 10
109.467134
 20
59.443544
 30
0.0
 10
109.193542
 20
59.450498
 30
0.0
 10
109.193542
 20
59.638116
 30
0.0
  0
SPLINE
  5
1e2
100
AcDbEntity
  8
0
 62
7
100
AcDbSpline
 70
8
 71
3
 72
8
 73
4
 74
0
 40
0
 40
0
 40
0
 40
0
 40
1
 40
1
 40
1
 40
1
 10
109.193542
 20
59.638116
 30
0.0
 10
109.193542
 20
59.948245
 30
0.0
 10
111.326868
 20
64.105494
 30
0.0
 10
111.592431
 20
64.312422
 30
0.0
  0
SPLINE
  5
1e3
100
AcDbEntity
  8
0
 62
7
100
AcDbSpline
 70
8
 71
3
 72
8
 73
4
 74
0
 40
0
 40
0
 40
0
 40
0
 40
1
 40
1
 40
1
 40
1
 10
111.592431
 20
64.312422
 30
0.0
 10
111.685078
 20
64.384611
 30
0.0
 10
112.490417
 20
65.844863
 30
0.0
 10
113.373958
 20
67.549158
 30
0.0
  0
SPLINE
  5
1e4
100
AcDbEntity
  8
0
 62
7
100
AcDbSpline
 70
8
 71
3
 72
8
 73
4
 74
0
 40
0
 40
0
 40
0
 40
0
 40
1
 40
1
 40
1
 40
1
 10
113.373958
 20
67.549158
 30
0.0
 10
114.257500
 20
69.253456
 30
0.0
 10
115.090671
 20
70.780820
 30
0.0
 10
115.234861
 20
70.953463
 30
0.0
  0
SPLINE
  5
1e5
100
AcDbEntity
  8
0
 62
7
100
AcDbSpline
 70
8
 71
3
 72
8
 73
4
 74
0
 40
0
 40
0
 40
0
 40
0
 40
1
 40
1
 40
1
 40
1
 10
115.234861
 20
70.953463
 30
0.0
 10
115.379054
 20
71.126110
 30
0.0
 10
116.213738
 20
72.690296
 30
0.0
 10
117.086944
 20
74.419505
 30
0.0
  0
SPLINE
  5
1e6
100
AcDbEntity
  8
0
 62
7
100
AcDbSpline
 70
8
 71
3
 72
8
 73
4
 74
0
 40
0
 40
0
 40
0
 40
0
 40
1
 40
1
 40
1
 40
1
 10
117.086944
 20
74.419505
 30
0.0
 10
117.960148
 20
76.148712
 30
0.0
 10
118.766635
 20
77.624793
 30
0.0
 10
118.877292
 20
77.700338
 30
0.0
  0
SPLINE
  5
1e7
100
AcDbEntity
  8
0
 62
7
100
AcDbSpline
 70
8
 71
3
 72
8
 73
4
 74
0
 40
0
 40
0
 40
0
 40
0
 40
1
 40
1
 40
1
 40
1
 10
118.877292
 20
77.700338
 30
0.0
 10
118.987948
 20
77.775884
 30
0.0
 10
119.874885
 20
79.454556
 30
0.0
 10
120.852847
 20
81.439783
 30
0.0
  0
SPLINE
  5
1e8
100
AcDbEntity
  8
0
 62
7
100
AcDbSpline
 70
8
 71
3
 72
8
 73
4
 74
0
 40
0
 40
0
 40
0
 40
0
 40
1
 40
1
 40
1
 40
1
 10
120.852847
 20
81.439783
 30
0.0
 10
121.830806
 20
83.425010
 30
0.0
 10
122.724486
 20
85.055755
 30
0.0
 10
122.837222
 20
85.055755
 30
0.0
  0
SPLINE
  5
1e9
100
AcDbEntity
  8
0
 62
7
100
AcDbSpline
 70
8
 71
3
 72
8
 73
4
 74
0
 40
0
 40
0
 40
0
 40
0
 40
1
 40
1
 40
1
 40
1
 10
122.837222
 20
85.055755
 30
0.0
 10
122.949962
 20
85.055755
 30
0.0
 10
123.196488
 20
85.433188
 30
0.0
 10
123.384028
 20
85.902422
 30
0.0
  0
SPLINE
  5
1ea
100
AcDbEntity
  8
0
 62
7
100
AcDbSpline
 70
8
 71
3
 72
8
 73
4
 74
0
 40
0
 40
0
 40
0
 40
0
 40
1
 40
1
 40
1
 40
1
 10
123.384028
 20
85.902422
 30
0.0
 10
123.571564
 20
86.371659
 30
0.0
 10
124.181523
 20
87.569585
 30
0.0
 10
124.733403
 20
88.557075
 30
0.0
  0
SPLINE
  5
1eb
100
AcDbEntity
  8
0
 62
7
100
AcDbSpline
 70
8
 71
3
 72
8
 73
4
 74
0
 40
0
 40
0
 40
0
 40
0
 40
1
 40
1
 40
1
 40
1
 10
124.733403
 20
88.557075
 30
0.0
 10
125.285283
 20
89.544570
 30
0.0
 10
125.738557
 20
90.488556
 30
0.0
 10
125.738819
 20
90.656102
 30
0.0
  0
SPLINE
  5
1ec
100
AcDbEntity
  8
0
 62
7
100
AcDbSpline
 70
8
 71
3
 72
8
 73
4
 74
0
 40
0
 40
0
 40
0
 40
0
 40
1
 40
1
 40
1
 40
1
 10
125.738819
 20
90.656102
 30
0.0
 10
125.739158
 20
90.823652
 30
0.0
 10
126.065221
 20
91.345715
 30
0.0
 10
126.470833
 20
91.820269
 30
0.0
  0
SPLINE
  5
1ed
100
AcDbEntity
  8
0
 62
7
100
AcDbSpline
 70
8
 71
3
 72
8
 73
4
 74
0
 40
0
 40
0
 40
0
 40
0
 40
1
 40
1
 40
1
 40
1
 10
126.470833
 20
91.820269
 30
0.0
 10
127.207797
 20
92.682500
 30
0.0
 10
127.213182
 20
92.680909
 30
0.0
 10
127.696736
 20
92.146588
 30
0.0
  0
SPLINE
  5
1ee
100
AcDbEntity
  8
0
 62
7
100
AcDbSpline
 70
8
 71
3
 72
8
 73
4
 74
0
 40
0
 40
0
 40
0
 40
0
 40
1
 40
1
 40
1
 40
1
 10
127.696736
 20
92.146588
 30
0.0
 10
127.962872
 20
91.852510
 30
0.0
 10
128.310829
 20
91.617422
 30
0.0
 10
128.472847
 20
91.617422
 30
0.0
  0
SPLINE
  5
1ef
100
AcDbEntity
  8
0
 62
7
100
AcDbSpline
 70
8
 71
3
 72
8
 73
4
 74
0
 40
0
 40
0
 40
0
 40
0
 40
1
 40
1
 40
1
 40
1
 10
128.472847
 20
91.617422
 30
0.0
 10
128.634863
 20
91.617422
 30
0.0
 10
129.179698
 20
91.234683
 30
0.0
 10
129.681111
 20
90.770755
 30
0.0
  0
SPLINE
  5
1f0
100
AcDbEntity
  8
0
 62
7
100
AcDbSpline
 70
8
 71
3
 72
8
 73
4
 74
0
 40
0
 40
0
 40
0
 40
0
 40
1
 40
1
 40
1
 40
1
 10
129.681111
 20
90.770755
 30
0.0
 10
130.655046
 20
89.869634
 30
0.0
 10
133.068509
 20
88.880628
 30
0.0
 10
133.429375
 20
89.236172
 30
0.0
  0
SPLINE
  5
1f1
100
AcDbEntity
  8
0
 62
7
100
AcDbSpline
 70
8
 71
3
 72
8
 73
4
 74
0
 40
0
 40
0
 40
0
 40
0
 40
1
 40
1
 40
1
 40
1
 10
133.429375
 20
89.236172
 30
0.0
 10
133.549051
 20
89.354087
 30
0.0
 10
133.719988
 20
89.937627
 30
0.0
 10
133.799792
 20
90.532630
 30
0.0
  0
SPLINE
  5
1f2
100
AcDbEntity
  8
0
 62
7
100
AcDbSpline
 70
8
 71
3
 72
8
 73
4
 74
0
 40
0
 40
0
 40
0
 40
0
 40
1
 40
1
 40
1
 40
1
 10
133.799792
 20
90.532630
 30
0.0
 10
133.879601
 20
91.127631
 30
0.0
 10
134.044840
 20
91.617422
 30
0.0
 10
134.170208
 20
91.617422
 30
0.0
  0
SPLINE
  5
1f3
100
AcDbEntity
  8
0
 62
7
100
AcDbSpline
 70
8
 71
3
 72
8
 73
4
 74
0
 40
0
 40
0
 40
0
 40
0
 40
1
 40
1
 40
1
 40
1
 10
134.170208
 20
91.617422
 30
0.0
 10
134.295577
 20
91.617422
 30
0.0
 10
134.399514
 20
92.913197
 30
0.0
 10
134.399514
 20
94.501380
 30
0.0
  0
SPLINE
  5
1f4
100
AcDbEntity
  8
0
 62
7
100
AcDbSpline
 70
8
 71
3
 72
8
 73
4
 74
0
 40
0
 40
0
 40
0
 40
0
 40
1
 40
1
 40
1
 40
1
 10
134.399514
 20
94.501380
 30
0.0
 10
134.399514
 20
96.251443
 30
0.0
 10
134.294025
 20
97.394158
 30
0.0
 10
134.134931
 20
97.394158
 30
0.0
  0
SPLINE
  5
1f5
100
AcDbEntity
  8
0
 62
7
100
AcDbSpline
 70
8
 71
3
 72
8
 73
4
 74
0
 40
0
 40
0
 40
0
 40
0
 40
1
 40
1
 40
1
 40
1
 10
134.134931
 20
97.394158
 30
0.0
 10
133.990548
 20
97.394158
 30
0.0
 10
133.870347
 20
97.956929
 30
0.0
 10
133.870347
 20
98.646519
 30
0.0
  0
SPLINE
  5
1f6
100
AcDbEntity
  8
0
 62
7
100
AcDbSpline
 70
8
 71
3
 72
8
 73
4
 74
0
 40
0
 40
0
 40
0
 40
0
 40
1
 40
1
 40
1
 40
1
 10
133.870347
 20
98.646519
 30
0.0
 10
133.870347
 20
99.336112
 30
0.0
 10
133.745825
 20
100.872296
 30
0.0
 10
133.596944
 20
102.059644
 30
0.0
  0
SPLINE
  5
1f7
100
AcDbEntity
  8
0
 62
7
100
AcDbSpline
 70
8
 71
3
 72
8
 73
4
 74
0
 40
0
 40
0
 40
0
 40
0
 40
1
 40
1
 40
1
 40
1
 10
133.596944
 20
102.059644
 30
0.0
 10
133.318899
 20
104.277078
 30
0.0
 10
133.624145
 20
108.360391
 30
0.0
 10
134.090833
 20
108.665408
 30
0.0
  0
SPLINE
  5
1f8
100
AcDbEntity
  8
0
 62
7
100
AcDbSpline
 70
8
 71
3
 72
8
 73
4
 74
0
 40
0
 40
0
 40
0
 40
0
 40
1
 40
1
 40
1
 40
1
 10
134.090833
 20
108.665408
 30
0.0
 10
134.214935
 20
108.746513
 30
0.0
 10
134.463482
 20
109.251152
 30
0.0
 10
134.637639
 20
109.785477
 30
0.0
  0
SPLINE
  5
1f9
100
AcDbEntity
  8
0
 62
7
100
AcDbSpline
 70
8
 71
3
 72
8
 73
4
 74
0
 40
0
 40
0
 40
0
 40
0
 40
1
 40
1
 40
1
 40
1
 10
134.637639
 20
109.785477
 30
0.0
 10
134.811793
 20
110.319803
 30
0.0
 10
135.238038
 20
111.180451
 30
0.0
 10
135.590139
 20
111.699297
 30
0.0
  0
SPLINE
  5
1fa
100
AcDbEntity
  8
0
 62
7
100
AcDbSpline
 70
8
 71
3
 72
8
 73
4
 74
0
 40
0
 40
0
 40
0
 40
0
 40
1
 40
1
 40
1
 40
1
 10
135.590139
 20
111.699297
 30
0.0
 10
135.942234
 20
112.218140
 30
0.0
 10
136.233958
 20
112.745478
 30
0.0
 10
136.233958
 20
112.872283
 30
0.0
  0
SPLINE
  5
1fb
100
AcDbEntity
  8
0
 62
7
100
AcDbSpline
 70
8
 71
3
 72
8
 73
4
 74
0
 40
0
 40
0
 40
0
 40
0
 40
1
 40
1
 40
1
 40
1
 10
136.233958
 20
112.872283
 30
0.0
 10
136.233958
 20
113.130364
 30
0.0
 10
138.501047
 20
115.081572
 30
0.0
 10
139.911667
 20
116.038463
 30
0.0
  0
SPLINE
  5
1fc
100
AcDbEntity
  8
0
 62
7
100
AcDbSpline
 70
8
 71
3
 72
8
 73
4
 74
0
 40
0
 40
0
 40
0
 40
0
 40
1
 40
1
 40
1
 40
1
 10
139.911667
 20
116.038463
 30
0.0
 10
140.416997
 20
116.381256
 30
0.0
 10
140.925096
 20
116.812063
 30
0.0
 10
141.040556
 20
116.999783
 30
0.0
  0
SPLINE
  5
1fd
100
AcDbEntity
  8
0
 62
7
100
AcDbSpline
 70
8
 71
3
 72
8
 73
4
 74
0
 40
0
 40
0
 40
0
 40
0
 40
1
 40
1
 40
1
 40
1
 10
141.040556
 20
116.999783
 30
0.0
 10
141.156015
 20
117.187503
 30
0.0
 10
141.357421
 20
117.343741
 30
0.0
 10
141.490347
 20
117.343741
 30
0.0
  0
SPLINE
  5
1fe
100
AcDbEntity
  8
0
 62
7
100
AcDbSpline
 70
8
 71
3
 72
8
 73
4
 74
0
 40
0
 40
0
 40
0
 40
0
 40
1
 40
1
 40
1
 40
1
 10
141.490347
 20
117.343741
 30
0.0
 10
141.623277
 20
117.343741
 30
0.0
 10
142.392679
 20
117.644141
 30
0.0
 10
143.201319
 20
118.014019
 30
0.0
  0
SPLINE
  5
1ff
100
AcDbEntity
  8
0
 62
7
100
AcDbSpline
 70
8
 71
3
 72
8
 73
4
 74
0
 40
0
 40
0
 40
0
 40
0
 40
1
 40
1
 40
1
 40
1
 10
143.201319
 20
118.014019
 30
0.0
 10
144.469683
 20
118.594180
 30
0.0
 10
144.629316
 20
118.740216
 30
0.0
 10
144.339028
 20
119.089991
 30
0.0
  0
SPLINE
  5
200
100
AcDbEntity
  8
0
 62
7
100
AcDbSpline
 70
8
 71
3
 72
8
 73
4
 74
0
 40
0
 40
0
 40
0
 40
0
 40
1
 40
1
 40
1
 40
1
 10
144.339028
 20
119.089991
 30
0.0
 10
144.084858
 20
119.396233
 30
0.0
 10
143.647510
 20
119.471423
 30
0.0
 10
142.557500
 20
119.381033
 30
0.0
  0
SPLINE
  5
201
100
AcDbEntity
  8
0
 62
7
100
AcDbSpline
 70
8
 71
3
 72
8
 73
4
 74
0
 40
0
 40
0
 40
0
 40
0
 40
1
 40
1
 40
1
 40
1
 10
142.557500
 20
119.381033
 30
0.0
 10
141.437230
 20
119.288131
 30
0.0
 10
140.815735
 20
119.394292
 30
0.0
 10
139.788194
 20
119.857283
 30
0.0
  0
SPLINE
  5
202
100
AcDbEntity
  8
0
 62
7
100
AcDbSpline
 70
8
 71
3
 72
8
 73
4
 74
0
 40
0
 40
0
 40
0
 40
0
 40
1
 40
1
 40
1
 40
1
 10
139.788194
 20
119.857283
 30
0.0
 10
139.060211
 20
120.185299
 30
0.0
 10
137.833608
 20
120.508522
 30
0.0
 10
137.062986
 20
120.580477
 30
0.0
  0
SPLINE
  5
203
100
AcDbEntity
  8
0
 62
7
100
AcDbSpline
 70
8
 71
3
 72
8
 73
4
 74
0
 40
0
 40
0
 40
0
 40
0
 40
1
 40
1
 40
1
 40
1
 10
137.062986
 20
120.580477
 30
0.0
 10
136.292364
 20
120.652436
 30
0.0
 10
135.603166
 20
120.770294
 30
0.0
 10
135.528403
 20
120.845061
 30
0.0
  0
SPLINE
  5
204
100
AcDbEntity
  8
0
 62
7
100
AcDbSpline
 70
8
 71
3
 72
8
 73
4
 74
0
 40
0
 40
0
 40
0
 40
0
 40
1
 40
1
 40
1
 40
1
 10
135.528403
 20
120.845061
 30
0.0
 10
135.453636
 20
120.919827
 30
0.0
 10
135.635898
 20
122.436568
 30
0.0
 10
135.934097
 20
124.214088
 30
0.0
  0
SPLINE
  5
205
100
AcDbEntity
  8
0
 62
7
100
AcDbSpline
 70
8
 71
3
 72
8
 73
4
 74
0
 40
0
 40
0
 40
0
 40
0
 40
1
 40
1
 40
1
 40
1
 10
135.934097
 20
124.214088
 30
0.0
 10
136.786617
 20
129.295878
 30
0.0
 10
137.093833
 20
133.917645
 30
0.0
 10
136.763125
 20
136.578950
 30
0.0
  0
SPLINE
  5
206
100
AcDbEntity
  8
0
 62
7
100
AcDbSpline
 70
8
 71
3
 72
8
 73
4
 74
0
 40
0
 40
0
 40
0
 40
0
 40
1
 40
1
 40
1
 40
1
 10
136.763125
 20
136.578950
 30
0.0
 10
136.418695
 20
139.350708
 30
0.0
 10
135.610987
 20
141.570549
 30
0.0
 10
134.646458
 20
142.382144
 30
0.0
  0
SPLINE
  5
207
100
AcDbEntity
  8
0
 62
7
100
AcDbSpline
 70
8
 71
3
 72
8
 73
4
 74
0
 40
0
 40
0
 40
0
 40
0
 40
1
 40
1
 40
1
 40
1
 10
134.646458
 20
142.382144
 30
0.0
 10
133.781363
 20
143.110074
 30
0.0
 10
133.213921
 20
144.161705
 30
0.0
 10
132.970764
 20
145.504227
 30
0.0
  0
SPLINE
  5
208
100
AcDbEntity
  8
0
 62
7
100
AcDbSpline
 70
8
 71
3
 72
8
 73
4
 74
0
 40
0
 40
0
 40
0
 40
0
 40
1
 40
1
 40
1
 40
1
 10
132.970764
 20
145.504227
 30
0.0
 10
132.871752
 20
146.050906
 30
0.0
 10
132.323673
 20
147.431119
 30
0.0
 10
131.753681
 20
148.573394
 30
0.0
  0
SPLINE
  5
209
100
AcDbEntity
  8
0
 62
7
100
AcDbSpline
 70
8
 71
3
 72
8
 73
4
 74
0
 40
0
 40
0
 40
0
 40
0
 40
1
 40
1
 40
1
 40
1
 10
131.753681
 20
148.573394
 30
0.0
 10
131.183688
 20
149.715669
 30
0.0
 10
130.721806
 20
150.768964
 30
0.0
 10
130.721806
 20
150.910547
 30
0.0
  0
SPLINE
  5
20a
100
AcDbEntity
  8
0
 62
7
100
AcDbSpline
 70
8
 71
3
 72
8
 73
4
 74
0
 40
0
 40
0
 40
0
 40
0
 40
1
 40
1
 40
1
 40
1
 10
130.721806
 20
150.910547
 30
0.0
 10
130.721806
 20
151.052129
 30
0.0
 10
130.568943
 20
151.327990
 30
0.0
 10
130.377847
 20
151.519088
 30
0.0
  0
SPLINE
  5
20b
100
AcDbEntity
  8
0
 62
7
100
AcDbSpline
 70
8
 71
3
 72
8
 73
4
 74
0
 40
0
 40
0
 40
0
 40
0
 40
1
 40
1
 40
1
 40
1
 10
130.377847
 20
151.519088
 30
0.0
 10
129.949804
 20
151.947129
 30
0.0
 10
128.989444
 20
155.525193
 30
0.0
 10
128.755069
 20
157.578047
 30
0.0
  0
SPLINE
  5
20c
100
AcDbEntity
  8
0
 62
7
100
AcDbSpline
 70
8
 71
3
 72
8
 73
4
 74
0
 40
0
 40
0
 40
0
 40
0
 40
1
 40
1
 40
1
 40
1
 10
128.755069
 20
157.578047
 30
0.0
 10
128.555521
 20
159.325874
 30
0.0
 10
128.171750
 20
160.185803
 30
0.0
 10
127.282222
 20
160.876519
 30
0.0
  0
SPLINE
  5
20d
100
AcDbEntity
  8
0
 62
7
100
AcDbSpline
 70
8
 71
3
 72
8
 73
4
 74
0
 40
0
 40
0
 40
0
 40
0
 40
1
 40
1
 40
1
 40
1
 10
127.282222
 20
160.876519
 30
0.0
 10
126.279983
 20
161.654755
 30
0.0
 10
123.728833
 20
162.490477
 30
0.0
 10
122.360972
 20
162.490477
 30
0.0
  0
LWPOLYLINE
  5
20e
100
AcDbEntity
  8
0
 62
7
100
AcDbPolyline
 90
3
 70
0
 10
110.692847
 20
58.068255
 30
0.0
 10
110.842778
 20
59.840963
 30
0.0
 10
110.022569
 20
59.602838
 30
0.0
  0
SPLINE
  5
20f
100
AcDbEntity
  8
0
 62
7
100
AcDbSpline
 70
8
 71
3
 72
8
 73
4
 74
0
 40
0
 40
0
 40
0
 40
0
 40
1
 40
1
 40
1
 40
1
 10
120.817569
 20
164.660061
 30
0.0
 10
120.647700
 20
165.946681
 30
0.0
 10
120.622794
 20
166.883080
 30
0.0
 10
120.764653
 20
166.970755
 30
0.0
  0
SPLINE
  5
210
100
AcDbEntity
  8
0
 62
7
100
AcDbSpline
 70
8
 71
3
 72
8
 73
4
 74
0
 40
0
 40
0
 40
0
 40
0
 40
1
 40
1
 40
1
 40
1
 10
120.764653
 20
166.970755
 30
0.0
 10
120.895914
 20
167.051877
 30
0.0
 10
122.539108
 20
167.583344
 30
0.0
 10
124.415903
 20
168.152561
 30
0.0
  0
SPLINE
  5
211
100
AcDbEntity
  8
0
 62
7
100
AcDbSpline
 70
8
 71
3
 72
8
 73
4
 74
0
 40
0
 40
0
 40
0
 40
0
 40
1
 40
1
 40
1
 40
1
 10
124.415903
 20
168.152561
 30
0.0
 10
127.820073
 20
169.185020
 30
0.0
 10
127.837029
 20
169.193456
 30
0.0
 10
128.005417
 20
170.084019
 30
0.0
  0
SPLINE
  5
212
100
AcDbEntity
  8
0
 62
7
100
AcDbSpline
 70
8
 71
3
 72
8
 73
4
 74
0
 40
0
 40
0
 40
0
 40
0
 40
1
 40
1
 40
1
 40
1
 10
128.005417
 20
170.084019
 30
0.0
 10
128.098254
 20
170.575010
 30
0.0
 10
128.063295
 20
171.398794
 30
0.0
 10
127.934861
 20
171.918463
 30
0.0
  0
SPLINE
  5
213
100
AcDbEntity
  8
0
 62
7
100
AcDbSpline
 70
8
 71
3
 72
8
 73
4
 74
0
 40
0
 40
0
 40
0
 40
0
 40
1
 40
1
 40
1
 40
1
 10
127.934861
 20
171.918463
 30
0.0
 10
127.709264
 20
172.831272
 30
0.0
 10
127.659486
 20
172.869166
 30
0.0
 10
126.391458
 20
172.941519
 30
0.0
  0
SPLINE
  5
214
100
AcDbEntity
  8
0
 62
7
100
AcDbSpline
 70
8
 71
3
 72
8
 73
4
 74
0
 40
0
 40
0
 40
0
 40
0
 40
1
 40
1
 40
1
 40
1
 10
126.391458
 20
172.941519
 30
0.0
 10
125.669559
 20
172.982709
 30
0.0
 10
123.989304
 20
172.791913
 30
0.0
 10
122.660833
 20
172.518186
 30
0.0
  0
LWPOLYLINE
  5
215
100
AcDbEntity
  8
0
 62
7
100
AcDbPolyline
 90
3
 70
0
 10
122.360972
 20
162.490477
 30
0.0
 10
121.099792
 20
162.490477
 30
0.0
 10
120.817569
 20
164.660061
 30
0.0
  0
SPLINE
  5
216
100
AcDbEntity
  8
0
 62
7
100
AcDbSpline
 70
8
 71
3
 72
8
 73
4
 74
0
 40
0
 40
0
 40
0
 40
0
 40
1
 40
1
 40
1
 40
1
 10
120.112014
 20
172.703394
 30
0.0
 10
120.039601
 20
173.080310
 30
0.0
 10
119.779105
 20
175.159080
 30
0.0
 10
119.529931
 20
177.324783
 30
0.0
  0
SPLINE
  5
217
100
AcDbEntity
  8
0
 62
7
100
AcDbSpline
 70
8
 71
3
 72
8
 73
4
 74
0
 40
0
 40
0
 40
0
 40
0
 40
1
 40
1
 40
1
 40
1
 10
119.529931
 20
177.324783
 30
0.0
 10
119.280759
 20
179.490486
 30
0.0
 10
118.997027
 20
181.318357
 30
0.0
 10
118.903750
 20
181.390547
 30
0.0
  0
SPLINE
  5
218
100
AcDbEntity
  8
0
 62
7
100
AcDbSpline
 70
8
 71
3
 72
8
 73
4
 74
0
 40
0
 40
0
 40
0
 40
0
 40
1
 40
1
 40
1
 40
1
 10
118.903750
 20
181.390547
 30
0.0
 10
118.810470
 20
181.462736
 30
0.0
 10
118.472562
 20
183.771421
 30
0.0
 10
118.145278
 20
186.514644
 30
0.0
  0
SPLINE
  5
219
100
AcDbEntity
  8
0
 62
7
100
AcDbSpline
 70
8
 71
3
 72
8
 73
4
 74
0
 40
0
 40
0
 40
0
 40
0
 40
1
 40
1
 40
1
 40
1
 10
118.145278
 20
186.514644
 30
0.0
 10
117.817996
 20
189.257867
 30
0.0
 10
117.215333
 20
194.278306
 30
0.0
 10
116.804722
 20
197.671241
 30
0.0
  0
SPLINE
  5
21a
100
AcDbEntity
  8
0
 62
7
100
AcDbSpline
 70
8
 71
3
 72
8
 73
4
 74
0
 40
0
 40
0
 40
0
 40
0
 40
1
 40
1
 40
1
 40
1
 10
116.804722
 20
197.671241
 30
0.0
 10
116.394117
 20
201.064173
 30
0.0
 10
115.903962
 20
205.166268
 30
0.0
 10
115.719931
 20
206.790547
 30
0.0
  0
SPLINE
  5
21b
100
AcDbEntity
  8
0
 62
7
100
AcDbSpline
 70
8
 71
3
 72
8
 73
4
 74
0
 40
0
 40
0
 40
0
 40
0
 40
1
 40
1
 40
1
 40
1
 10
115.719931
 20
206.790547
 30
0.0
 10
115.535902
 20
208.414823
 30
0.0
 10
115.308295
 20
209.745061
 30
0.0
 10
115.208403
 20
209.745061
 30
0.0
  0
SPLINE
  5
21c
100
AcDbEntity
  8
0
 62
7
100
AcDbSpline
 70
8
 71
3
 72
8
 73
4
 74
0
 40
0
 40
0
 40
0
 40
0
 40
1
 40
1
 40
1
 40
1
 10
115.208403
 20
209.745061
 30
0.0
 10
115.108513
 20
209.745061
 30
0.0
 10
114.943334
 20
210.483103
 30
0.0
 10
114.846806
 20
211.385477
 30
0.0
  0
SPLINE
  5
21d
100
AcDbEntity
  8
0
 62
7
100
AcDbSpline
 70
8
 71
3
 72
8
 73
4
 74
0
 40
0
 40
0
 40
0
 40
0
 40
1
 40
1
 40
1
 40
1
 10
114.846806
 20
211.385477
 30
0.0
 10
114.750277
 20
212.287855
 30
0.0
 10
114.486752
 20
214.090083
 30
0.0
 10
114.264722
 20
215.389505
 30
0.0
  0
SPLINE
  5
21e
100
AcDbEntity
  8
0
 62
7
100
AcDbSpline
 70
8
 71
3
 72
8
 73
4
 74
0
 40
0
 40
0
 40
0
 40
0
 40
1
 40
1
 40
1
 40
1
 10
114.264722
 20
215.389505
 30
0.0
 10
114.042692
 20
216.688927
 30
0.0
 10
113.812678
 20
218.394494
 30
0.0
 10
113.753194
 20
219.181866
 30
0.0
  0
SPLINE
  5
21f
100
AcDbEntity
  8
0
 62
7
100
AcDbSpline
 70
8
 71
3
 72
8
 73
4
 74
0
 40
0
 40
0
 40
0
 40
0
 40
1
 40
1
 40
1
 40
1
 10
113.753194
 20
219.181866
 30
0.0
 10
113.693705
 20
219.969238
 30
0.0
 10
113.547751
 20
220.681637
 30
0.0
 10
113.426875
 20
220.760547
 30
0.0
  0
SPLINE
  5
220
100
AcDbEntity
  8
0
 62
7
100
AcDbSpline
 70
8
 71
3
 72
8
 73
4
 74
0
 40
0
 40
0
 40
0
 40
0
 40
1
 40
1
 40
1
 40
1
 10
113.426875
 20
220.760547
 30
0.0
 10
113.305999
 20
220.839456
 30
0.0
 10
113.053752
 20
221.553955
 30
0.0
 10
112.862431
 20
222.348047
 30
0.0
  0
SPLINE
  5
221
100
AcDbEntity
  8
0
 62
7
100
AcDbSpline
 70
8
 71
3
 72
8
 73
4
 74
0
 40
0
 40
0
 40
0
 40
0
 40
1
 40
1
 40
1
 40
1
 10
112.862431
 20
222.348047
 30
0.0
 10
112.671109
 20
223.142138
 30
0.0
 10
112.441654
 20
223.870066
 30
0.0
 10
112.359722
 20
223.970825
 30
0.0
  0
SPLINE
  5
222
100
AcDbEntity
  8
0
 62
7
100
AcDbSpline
 70
8
 71
3
 72
8
 73
4
 74
0
 40
0
 40
0
 40
0
 40
0
 40
1
 40
1
 40
1
 40
1
 10
112.359722
 20
223.970825
 30
0.0
 10
112.349765
 20
223.983069
 30
0.0
 10
112.345780
 20
223.990103
 30
0.0
 10
112.333264
 20
223.988463
 30
0.0
  0
LWPOLYLINE
  5
223
100
AcDbEntity
  8
0
 62
7
100
AcDbPolyline
 90
3
 70
0
 10
122.660833
 20
172.518186
 30
0.0
 10
120.244306
 20
172.015477
 30
0.0
 10
120.112014
 20
172.703394
 30
0.0
  0
SPLINE
  5
224
100
AcDbEntity
  8
0
 62
7
100
AcDbSpline
 70
8
 71
3
 72
8
 73
4
 74
0
 40
0
 40
0
 40
0
 40
0
 40
1
 40
1
 40
1
 40
1
 10
31.935208
 20
122.864713
 30
0.0
 10
32.196828
 20
122.927564
 30
0.0
 10
32.583388
 20
121.872307
 30
0.0
 10
33.108194
 20
119.707352
 30
0.0
  0
SPLINE
  5
225
100
AcDbEntity
  8
0
 62
7
100
AcDbSpline
 70
8
 71
3
 72
8
 73
4
 74
0
 40
0
 40
0
 40
0
 40
0
 40
1
 40
1
 40
1
 40
1
 10
33.108194
 20
119.707352
 30
0.0
 10
33.304864
 20
118.896040
 30
0.0
 10
33.458997
 20
116.790241
 30
0.0
 10
33.460972
 20
114.909575
 30
0.0
  0
SPLINE
  5
226
100
AcDbEntity
  8
0
 62
7
100
AcDbSpline
 70
8
 71
3
 72
8
 73
4
 74
0
 40
0
 40
0
 40
0
 40
0
 40
1
 40
1
 40
1
 40
1
 10
33.460972
 20
114.909575
 30
0.0
 10
33.462663
 20
113.068822
 30
0.0
 10
33.550820
 20
111.567101
 30
0.0
 10
33.655000
 20
111.567005
 30
0.0
  0
SPLINE
  5
227
100
AcDbEntity
  8
0
 62
7
100
AcDbSpline
 70
8
 71
3
 72
8
 73
4
 74
0
 40
0
 40
0
 40
0
 40
0
 40
1
 40
1
 40
1
 40
1
 10
33.655000
 20
111.567005
 30
0.0
 10
33.759180
 20
111.566912
 30
0.0
 10
34.332771
 20
112.596735
 30
0.0
 10
34.933819
 20
113.860061
 30
0.0
  0
SPLINE
  5
228
100
AcDbEntity
  8
0
 62
7
100
AcDbSpline
 70
8
 71
3
 72
8
 73
4
 74
0
 40
0
 40
0
 40
0
 40
0
 40
1
 40
1
 40
1
 40
1
 10
34.933819
 20
113.860061
 30
0.0
 10
35.534865
 20
115.123386
 30
0.0
 10
36.097052
 20
116.222038
 30
0.0
 10
36.186181
 20
116.294227
 30
0.0
  0
SPLINE
  5
229
100
AcDbEntity
  8
0
 62
7
100
AcDbSpline
 70
8
 71
3
 72
8
 73
4
 74
0
 40
0
 40
0
 40
0
 40
0
 40
1
 40
1
 40
1
 40
1
 10
36.186181
 20
116.294227
 30
0.0
 10
36.275309
 20
116.366417
 30
0.0
 10
36.543206
 20
116.838408
 30
0.0
 10
36.777083
 20
117.343741
 30
0.0
  0
LWPOLYLINE
  5
22a
100
AcDbEntity
  8
0
 62
7
100
AcDbPolyline
 90
2
 70
0
 10
112.333264
 20
223.988463
 30
0.0
 10
112.333264
 20
223.988463
 30
0.0
  0
SPLINE
  5
22b
100
AcDbEntity
  8
0
 62
7
100
AcDbSpline
 70
8
 71
3
 72
8
 73
4
 74
0
 40
0
 40
0
 40
0
 40
0
 40
1
 40
1
 40
1
 40
1
 10
37.500278
 20
117.211450
 30
0.0
 10
37.665460
 20
116.633930
 30
0.0
 10
37.877225
 20
115.483998
 30
0.0
 10
37.967708
 20
114.653811
 30
0.0
  0
SPLINE
  5
22c
100
AcDbEntity
  8
0
 62
7
100
AcDbSpline
 70
8
 71
3
 72
8
 73
4
 74
0
 40
0
 40
0
 40
0
 40
0
 40
1
 40
1
 40
1
 40
1
 10
37.967708
 20
114.653811
 30
0.0
 10
38.058186
 20
113.823626
 30
0.0
 10
38.214224
 20
113.145686
 30
0.0
 10
38.311667
 20
113.145686
 30
0.0
  0
SPLINE
  5
22d
100
AcDbEntity
  8
0
 62
7
100
AcDbSpline
 70
8
 71
3
 72
8
 73
4
 74
0
 40
0
 40
0
 40
0
 40
0
 40
1
 40
1
 40
1
 40
1
 10
38.311667
 20
113.145686
 30
0.0
 10
38.542736
 20
113.145686
 30
0.0
 10
39.370000
 20
115.780484
 30
0.0
 10
39.370000
 20
116.514713
 30
0.0
  0
SPLINE
  5
22e
100
AcDbEntity
  8
0
 62
7
100
AcDbSpline
 70
8
 71
3
 72
8
 73
4
 74
0
 40
0
 40
0
 40
0
 40
0
 40
1
 40
1
 40
1
 40
1
 10
39.370000
 20
116.514713
 30
0.0
 10
39.370000
 20
117.233438
 30
0.0
 10
39.464578
 20
117.222699
 30
0.0
 10
40.243125
 20
116.444158
 30
0.0
  0
SPLINE
  5
22f
100
AcDbEntity
  8
0
 62
7
100
AcDbSpline
 70
8
 71
3
 72
8
 73
4
 74
0
 40
0
 40
0
 40
0
 40
0
 40
1
 40
1
 40
1
 40
1
 10
40.243125
 20
116.444158
 30
0.0
 10
41.671390
 20
115.015893
 30
0.0
 10
44.304283
 20
114.905163
 30
0.0
 10
47.307500
 20
116.153116
 30
0.0
  0
SPLINE
  5
230
100
AcDbEntity
  8
0
 62
7
100
AcDbSpline
 70
8
 71
3
 72
8
 73
4
 74
0
 40
0
 40
0
 40
0
 40
0
 40
1
 40
1
 40
1
 40
1
 10
47.307500
 20
116.153116
 30
0.0
 10
47.910727
 20
116.403778
 30
0.0
 10
47.914614
 20
115.802114
 30
0.0
 10
47.316319
 20
114.759644
 30
0.0
  0
SPLINE
  5
231
100
AcDbEntity
  8
0
 62
7
100
AcDbSpline
 70
8
 71
3
 72
8
 73
4
 74
0
 40
0
 40
0
 40
0
 40
0
 40
1
 40
1
 40
1
 40
1
 10
47.316319
 20
114.759644
 30
0.0
 10
46.915581
 20
114.061395
 30
0.0
 10
46.908870
 20
113.898646
 30
0.0
 10
47.245764
 20
113.269158
 30
0.0
  0
SPLINE
  5
232
100
AcDbEntity
  8
0
 62
7
100
AcDbSpline
 70
8
 71
3
 72
8
 73
4
 74
0
 40
0
 40
0
 40
0
 40
0
 40
1
 40
1
 40
1
 40
1
 10
47.245764
 20
113.269158
 30
0.0
 10
47.594819
 20
112.616942
 30
0.0
 10
47.583451
 20
112.519590
 30
0.0
 10
47.060556
 20
112.096172
 30
0.0
  0
SPLINE
  5
233
100
AcDbEntity
  8
0
 62
7
100
AcDbSpline
 70
8
 71
3
 72
8
 73
4
 74
0
 40
0
 40
0
 40
0
 40
0
 40
1
 40
1
 40
1
 40
1
 10
47.060556
 20
112.096172
 30
0.0
 10
46.571346
 20
111.700036
 30
0.0
 10
45.697346
 20
111.618962
 30
0.0
 10
40.772292
 20
111.505269
 30
0.0
  0
SPLINE
  5
234
100
AcDbEntity
  8
0
 62
7
100
AcDbSpline
 70
8
 71
3
 72
8
 73
4
 74
0
 40
0
 40
0
 40
0
 40
0
 40
1
 40
1
 40
1
 40
1
 10
40.772292
 20
111.505269
 30
0.0
 10
36.836065
 20
111.414402
 30
0.0
 10
35.028945
 20
111.287941
 30
0.0
 10
34.960278
 20
111.081936
 30
0.0
  0
SPLINE
  5
235
100
AcDbEntity
  8
0
 62
7
100
AcDbSpline
 70
8
 71
3
 72
8
 73
4
 74
0
 40
0
 40
0
 40
0
 40
0
 40
1
 40
1
 40
1
 40
1
 10
34.960278
 20
111.081936
 30
0.0
 10
34.905450
 20
110.917454
 30
0.0
 10
34.602821
 20
110.774102
 30
0.0
 10
34.290000
 20
110.773255
 30
0.0
  0
SPLINE
  5
236
100
AcDbEntity
  8
0
 62
7
100
AcDbSpline
 70
8
 71
3
 72
8
 73
4
 74
0
 40
0
 40
0
 40
0
 40
0
 40
1
 40
1
 40
1
 40
1
 10
34.290000
 20
110.773255
 30
0.0
 10
33.977176
 20
110.772366
 30
0.0
 10
33.389451
 20
110.600879
 30
0.0
 10
32.975903
 20
110.385200
 30
0.0
  0
SPLINE
  5
237
100
AcDbEntity
  8
0
 62
7
100
AcDbSpline
 70
8
 71
3
 72
8
 73
4
 74
0
 40
0
 40
0
 40
0
 40
0
 40
1
 40
1
 40
1
 40
1
 10
32.975903
 20
110.385200
 30
0.0
 10
32.562354
 20
110.169517
 30
0.0
 10
32.197057
 20
109.988325
 30
0.0
 10
32.164514
 20
109.988325
 30
0.0
  0
SPLINE
  5
238
100
AcDbEntity
  8
0
 62
7
100
AcDbSpline
 70
8
 71
3
 72
8
 73
4
 74
0
 40
0
 40
0
 40
0
 40
0
 40
1
 40
1
 40
1
 40
1
 10
32.164514
 20
109.988325
 30
0.0
 10
31.940540
 20
109.988325
 30
0.0
 10
31.491301
 20
115.547798
 30
0.0
 10
31.494236
 20
118.313880
 30
0.0
  0
SPLINE
  5
239
100
AcDbEntity
  8
0
 62
7
100
AcDbSpline
 70
8
 71
3
 72
8
 73
4
 74
0
 40
0
 40
0
 40
0
 40
0
 40
1
 40
1
 40
1
 40
1
 10
31.494236
 20
118.313880
 30
0.0
 10
31.497405
 20
121.285327
 30
0.0
 10
31.638706
 20
122.793481
 30
0.0
 10
31.935208
 20
122.864713
 30
0.0
  0
LWPOLYLINE
  5
23a
100
AcDbEntity
  8
0
 62
7
100
AcDbPolyline
 90
3
 70
0
 10
36.777083
 20
117.343741
 30
0.0
 10
37.200417
 20
118.260963
 30
0.0
 10
37.500278
 20
117.211450
 30
0.0
  0
LWPOLYLINE
  5
23b
100
AcDbEntity
  8
0
 62
7
100
AcDbPolyline
 90
2
 70
0
 10
31.935208
 20
122.864713
 30
0.0
 10
31.935208
 20
122.864713
 30
0.0
  0
ENDSEC
  0
SECTION
  2
OBJECTS
  0
DICTIONARY
  5
C
330
0
100
AcDbDictionary
  3
ACAD_GROUP
350
D
  3
ACAD_MLINESTYLE
350
17
  0
DICTIONARY
  5
D
330
C
100
AcDbDictionary
  0
DICTIONARY
  5
1A
330
C
100
AcDbDictionary
  0
DICTIONARY
  5
17
330
C
100
AcDbDictionary
  3
STANDARD
350
18
  0
DICTIONARY
  5
19
330
C
100
AcDbDictionary
  0
ENDSEC
  0
EOF
