999
dxfrw 0.5.10
0
SECTION
2
HEADER
9
$ACADVER
1
AC1021
9
$HANDSEED
5
20000
9
$DWGCODEPAGE
3
ANSI_1252
9
$INSBASE
10
0
20
0
30
0
9
$EXTMIN
10
2.5
20
2.5
30
0
9
$EXTMAX
10
77.5
20
77.5
30
0
9
$LIMMIN
10
0
20
0
9
$LIMMAX
10
420
20
297
9
$ORTHOMODE
70
0
9
$LTSCALE
40
1
9
$TEXTSTYLE
7
STANDARD
9
$CLAYER
8
name
9
$DIMASZ
40
2.5
9
$DIMLFAC
40
1
9
$DIMSCALE
40
1
9
$DIMEXO
40
0.625
9
$DIMEXE
40
1.25
9
$DIMTXT
40
2.5
9
$DIMTSZ
40
0
9
$DIMAUNIT
70
0
9
$DIMADEC
70
0
9
$DIMLUNIT
70
2
9
$DIMSTYLE
2
Standard
9
$DIMGAP
40
0.625
9
$DIMTIH
70
0
9
$LUNITS
70
2
9
$LUPREC
70
4
9
$AUNITS
70
0
9
$AUPREC
70
2
9
$SPLINESEGS
70
8
9
$GRIDMODE
70
0
9
$SNAPSTYLE
70
0
9
$PINSBASE
10
0
20
0
30
0
9
$PLIMMIN
10
0
20
0
9
$PLIMMAX
10
210
20
297
9
$INSUNITS
70
4
9
$PSVPSCALE
40
1
0
ENDSEC
0
SECTION
2
CLASSES
0
ENDSEC
0
SECTION
2
TABLES
0
TABLE
2
VPORT
5
8
330
0
100
AcDbSymbolTable
70
1
0
VPORT
5
31
330
2
100
AcDbSymbolTableRecord
100
AcDbViewportTableRecord
2
*ACTIVE
70
0
10
0
20
0
11
1
21
1
12
59.8675271739
22
39.2323369565
13
0
23
0
14
10
24
10
15
10
25
10
16
0
26
0
36
1
17
0
27
0
37
0
40
77.0380434783
41
2.06878306878
42
50
43
0
44
0
50
0
51
0
71
0
72
100
73
1
74
3
75
0
76
0
77
0
78
0
281
0
65
1
110
0
120
0
130
0
111
1
121
0
131
0
112
0
122
1
132
0
79
0
146
0
348
10020
60
7
61
5
292
1
282
1
141
0
142
0
63
250
421
3358443
0
ENDTAB
0
TABLE
2
LTYPE
5
5
330
0
100
AcDbSymbolTable
70
4
0
LTYPE
5
14
330
5
100
AcDbSymbolTableRecord
100
AcDbLinetypeTableRecord
2
ByBlock
70
0
3

72
65
73
0
40
0
0
LTYPE
5
15
330
5
100
AcDbSymbolTableRecord
100
AcDbLinetypeTableRecord
2
ByLayer
70
0
3

72
65
73
0
40
0
0
LTYPE
5
16
330
5
100
AcDbSymbolTableRecord
100
AcDbLinetypeTableRecord
2
Continuous
70
0
3
Solid line
72
65
73
0
40
0
0
LTYPE
5
32
330
5
100
AcDbSymbolTableRecord
100
AcDbLinetypeTableRecord
2
DOT
70
0
3
Dot . . . . . . . . . . . . . . . . . . . . . .
72
65
73
2
40
6.35
49
0
74
0
49
-6.35
74
0
0
LTYPE
5
33
330
5
100
AcDbSymbolTableRecord
100
AcDbLinetypeTableRecord
2
DOT2
70
0
3
Dot (.5x) .....................................
72
65
73
2
40
3.175
49
0
74
0
49
-3.175
74
0
0
LTYPE
5
34
330
5
100
AcDbSymbolTableRecord
100
AcDbLinetypeTableRecord
2
DOTX2
70
0
3
Dot (2x) .  .  .  .  .  .  .  .  .  .  .  .  .
72
65
73
2
40
12.7
49
0
74
0
49
-12.7
74
0
0
LTYPE
5
35
330
5
100
AcDbSymbolTableRecord
100
AcDbLinetypeTableRecord
2
DASHED
70
0
3
Dot . . . . . . . . . . . . . . . . . . . . . .
72
65
73
2
40
19.05
49
12.7
74
0
49
-6.35
74
0
0
LTYPE
5
36
330
5
100
AcDbSymbolTableRecord
100
AcDbLinetypeTableRecord
2
DASHED2
70
0
3
Dashed (.5x) _ _ _ _ _ _ _ _ _ _ _ _ _ _ _ _ _
72
65
73
2
40
9.525
49
6.35
74
0
49
-3.175
74
0
0
LTYPE
5
37
330
5
100
AcDbSymbolTableRecord
100
AcDbLinetypeTableRecord
2
DASHEDX2
70
0
3
Dashed (2x) ____  ____  ____  ____  ____  ___
72
65
73
2
40
38.1
49
25.4
74
0
49
-12.7
74
0
0
LTYPE
5
38
330
5
100
AcDbSymbolTableRecord
100
AcDbLinetypeTableRecord
2
DASHDOT
70
0
3
Dash dot __ . __ . __ . __ . __ . __ . __ . __
72
65
73
4
40
25.4
49
12.7
74
0
49
-6.35
74
0
49
0
74
0
49
-6.35
74
0
0
LTYPE
5
39
330
5
100
AcDbSymbolTableRecord
100
AcDbLinetypeTableRecord
2
DASHDOT2
70
0
3
Dash dot (.5x) _._._._._._._._._._._._._._._.
72
65
73
4
40
12.7
49
6.35
74
0
49
-3.175
74
0
49
0
74
0
49
-3.175
74
0
0
LTYPE
5
3A
330
5
100
AcDbSymbolTableRecord
100
AcDbLinetypeTableRecord
2
DASHDOTX2
70
0
3
Dash dot (2x) ____  .  ____  .  ____  .  ___
72
65
73
4
40
50.8
49
25.4
74
0
49
-12.7
74
0
49
0
74
0
49
-12.7
74
0
0
LTYPE
5
3B
330
5
100
AcDbSymbolTableRecord
100
AcDbLinetypeTableRecord
2
DIVIDE
70
0
3
Divide ____ . . ____ . . ____ . . ____ . . ____
72
65
73
6
40
31.75
49
12.7
74
0
49
-6.35
74
0
49
0
74
0
49
-6.35
74
0
49
0
74
0
49
-6.35
74
0
0
LTYPE
5
3C
330
5
100
AcDbSymbolTableRecord
100
AcDbLinetypeTableRecord
2
DIVIDE2
70
0
3
Divide (.5x) __..__..__..__..__..__..__..__.._
72
65
73
6
40
15.875
49
6.35
74
0
49
-3.175
74
0
49
0
74
0
49
-3.175
74
0
49
0
74
0
49
-3.175
74
0
0
LTYPE
5
3D
330
5
100
AcDbSymbolTableRecord
100
AcDbLinetypeTableRecord
2
DIVIDEX2
70
0
3
Divide (2x) ________  .  .  ________  .  .  _
72
65
73
6
40
63.5
49
25.4
74
0
49
-12.7
74
0
49
0
74
0
49
-12.7
74
0
49
0
74
0
49
-12.7
74
0
0
LTYPE
5
3E
330
5
100
AcDbSymbolTableRecord
100
AcDbLinetypeTableRecord
2
BORDER
70
0
3
Border __ __ . __ __ . __ __ . __ __ . __ __ .
72
65
73
6
40
44.45
49
12.7
74
0
49
-6.35
74
0
49
12.7
74
0
49
-6.35
74
0
49
0
74
0
49
-6.35
74
0
0
LTYPE
5
3F
330
5
100
AcDbSymbolTableRecord
100
AcDbLinetypeTableRecord
2
BORDER2
70
0
3
Border (.5x) __.__.__.__.__.__.__.__.__.__.__.
72
65
73
6
40
22.225
49
6.35
74
0
49
-3.175
74
0
49
6.35
74
0
49
-3.175
74
0
49
0
74
0
49
-3.175
74
0
0
LTYPE
5
40
330
5
100
AcDbSymbolTableRecord
100
AcDbLinetypeTableRecord
2
BORDERX2
70
0
3
Border (2x) ____  ____  .  ____  ____  .  ___
72
65
73
6
40
88.9
49
25.4
74
0
49
-12.7
74
0
49
25.4
74
0
49
-12.7
74
0
49
0
74
0
49
-12.7
74
0
0
LTYPE
5
41
330
5
100
AcDbSymbolTableRecord
100
AcDbLinetypeTableRecord
2
CENTER
70
0
3
Center ____ _ ____ _ ____ _ ____ _ ____ _ ____
72
65
73
4
40
50.8
49
31.75
74
0
49
-6.35
74
0
49
6.35
74
0
49
-6.35
74
0
0
LTYPE
5
42
330
5
100
AcDbSymbolTableRecord
100
AcDbLinetypeTableRecord
2
CENTER2
70
0
3
Center (.5x) ___ _ ___ _ ___ _ ___ _ ___ _ ___
72
65
73
4
40
28.575
49
19.05
74
0
49
-3.175
74
0
49
3.175
74
0
49
-3.175
74
0
0
LTYPE
5
43
330
5
100
AcDbSymbolTableRecord
100
AcDbLinetypeTableRecord
2
CENTERX2
70
0
3
Center (2x) ________  __  ________  __  _____
72
65
73
4
40
101.6
49
63.5
74
0
49
-12.7
74
0
49
12.7
74
0
49
-12.7
74
0
0
ENDTAB
0
TABLE
2
LAYER
5
2
330
0
100
AcDbSymbolTable
70
1
0
LAYER
5
10
330
2
100
AcDbSymbolTableRecord
100
AcDbLayerTableRecord
2
0
70
0
62
7
6
CONTINUOUS
370
-3
390
F
0
LAYER
5
44
330
2
100
AcDbSymbolTableRecord
100
AcDbLayerTableRecord
2
sakuya
70
0
62
7
6
CONTINUOUS
370
0
390
F
0
LAYER
5
45
330
2
100
AcDbSymbolTableRecord
100
AcDbLayerTableRecord
2
name
70
0
62
7
6
CONTINUOUS
370
-3
390
F
0
ENDTAB
0
TABLE
2
STYLE
5
3
330
0
100
AcDbSymbolTable
70
3
0
STYLE
5
46
330
2
100
AcDbSymbolTableRecord
100
AcDbTextStyleTableRecord
2
Standard
70
0
40
0
41
1
50
0
71
0
42
1
3
txt
4

0
ENDTAB
0
TABLE
2
VIEW
5
6
330
0
100
AcDbSymbolTable
70
0
0
ENDTAB
0
TABLE
2
UCS
5
7
330
0
100
AcDbSymbolTable
70
0
0
ENDTAB
0
TABLE
2
APPID
5
9
330
0
100
AcDbSymbolTable
70
1
0
APPID
5
12
330
9
100
AcDbSymbolTableRecord
100
AcDbRegAppTableRecord
2
ACAD
70
0
0
ENDTAB
0
TABLE
2
DIMSTYLE
5
A
330
0
100
AcDbSymbolTable
70
1
100
AcDbDimStyleTable
71
1
0
DIMSTYLE
105
47
330
A
100
AcDbSymbolTableRecord
100
AcDbDimStyleTableRecord
2
Standard
70
0
40
1
41
2.5
42
0.625
43
0.38
44
1.25
45
0
46
0
47
0
48
0
140
2.5
141
0.09
142
0
143
25.4
144
1
145
0
146
1
147
0.625
148
0
71
0
72
0
73
0
74
1
75
0
76
0
77
0
78
0
79
0
170
0
171
2
172
0
173
0
174
0
175
0
176
0
177
0
178
0
179
0
271
4
272
4
273
2
274
2
275
0
276
0
277
2
278
46
279
0
280
0
281
0
282
0
283
1
284
0
285
0
286
0
288
0
289
3
340
Standard
341

371
-2
372
-2
0
ENDTAB
0
TABLE
2
BLOCK_RECORD
5
1
330
0
100
AcDbSymbolTable
70
2
0
BLOCK_RECORD
5
1F
330
1
100
AcDbSymbolTableRecord
100
AcDbBlockTableRecord
2
*Model_Space
70
0
280
1
281
0
0
BLOCK_RECORD
5
1E
330
1
100
AcDbSymbolTableRecord
100
AcDbBlockTableRecord
2
*Paper_Space
70
0
280
1
281
0
0
ENDTAB
0
ENDSEC
0
SECTION
2
BLOCKS
0
BLOCK
5
20
330
1F
100
AcDbEntity
8
0
100
AcDbBlockBegin
2
*Model_Space
70
0
10
0
20
0
30
0
3
*Model_Space
1

0
ENDBLK
5
21
330
1F
100
AcDbEntity
8
0
100
AcDbBlockEnd
0
BLOCK
5
1C
330
1B
100
AcDbEntity
8
0
100
AcDbBlockBegin
2
*Paper_Space
70
0
10
0
20
0
30
0
3
*Paper_Space
1

0
ENDBLK
5
1D
330
1F
100
AcDbEntity
8
0
100
AcDbBlockEnd
0
ENDSEC
0
SECTION
2
ENTITIES
0
CIRCLE
5
48
100
AcDbEntity
8
0
6
ByLayer
62
256
370
-1
100
AcDbCircle
10
40
20
40
40
37.5
0
SPLINE
5
49
100
AcDbEntity
8
sakuya
6
ByLayer
62
7
370
-1
100
AcDbSpline
210
0
220
0
230
1
70
8
71
3
72
8
73
4
74
0
42
1e-07
43
1e-07
40
0
40
0
40
0
40
0
40
1
40
1
40
1
40
1
10
49.62998128
20
70.77688501
30
0
10
49.52522371
20
70.76316064
30
0
10
49.09841392
20
68.99212021
30
0
10
49.02038122
20
68.22418513
30
0
0
SPLINE
5
4A
100
AcDbEntity
8
sakuya
6
ByLayer
62
7
370
-1
100
AcDbSpline
210
0
220
0
230
1
70
8
71
3
72
8
73
4
74
0
42
1e-07
43
1e-07
40
0
40
0
40
0
40
0
40
1
40
1
40
1
40
1
10
49.02038122
20
68.22418513
30
0
10
48.99562384
20
67.98054415
30
0
10
48.94903588
20
67.78127254
30
0
10
48.91560637
20
67.78127254
30
0
0
SPLINE
5
4B
100
AcDbEntity
8
sakuya
6
ByLayer
62
7
370
-1
100
AcDbSpline
210
0
220
0
230
1
70
8
71
3
72
8
73
4
74
0
42
1e-07
43
1e-07
40
0
40
0
40
0
40
0
40
1
40
1
40
1
40
1
10
48.91560637
20
67.78127254
30
0
10
48.83902384
20
67.78127254
30
0
10
48.83433205
20
65.74643239
30
0
10
48.91084384
20
65.71434775
30
0
0
SPLINE
5
4C
100
AcDbEntity
8
sakuya
6
ByLayer
62
7
370
-1
100
AcDbSpline
210
0
220
0
230
1
70
8
71
3
72
8
73
4
74
0
42
1e-07
43
1e-07
40
0
40
0
40
0
40
0
40
1
40
1
40
1
40
1
10
48.91084384
20
65.71434775
30
0
10
48.96191299
20
65.69293243
30
0
10
49.13842333
20
64.11373483
30
0
10
49.68236884
20
58.85158522
30
0
0
SPLINE
5
4D
100
AcDbEntity
8
sakuya
6
ByLayer
62
7
370
-1
100
AcDbSpline
210
0
220
0
230
1
70
8
71
3
72
8
73
4
74
0
42
1e-07
43
1e-07
40
0
40
0
40
0
40
0
40
1
40
1
40
1
40
1
10
49.68236884
20
58.85158522
30
0
10
49.78512382
20
57.85752784
30
0
10
49.89758125
20
57.03339739
30
0
10
49.93001878
20
57.02040391
30
0
0
SPLINE
5
4E
100
AcDbEntity
8
sakuya
6
ByLayer
62
7
370
-1
100
AcDbSpline
210
0
220
0
230
1
70
8
71
3
72
8
73
4
74
0
42
1e-07
43
1e-07
40
0
40
0
40
0
40
0
40
1
40
1
40
1
40
1
10
49.93001878
20
57.02040391
30
0
10
49.96245631
20
57.00740881
30
0
10
49.98716887
20
56.82436555
30
0
10
49.98716887
20
56.61321016
30
0
0
SPLINE
5
4F
100
AcDbEntity
8
sakuya
6
ByLayer
62
7
370
-1
100
AcDbSpline
210
0
220
0
230
1
70
8
71
3
72
8
73
4
74
0
42
1e-07
43
1e-07
40
0
40
0
40
0
40
0
40
1
40
1
40
1
40
1
10
49.98716887
20
56.61321016
30
0
10
49.98716887
20
56.28978688
30
0
10
49.96679737
20
56.22744766
30
0
10
49.85858137
20
56.22744766
30
0
0
SPLINE
5
50
100
AcDbEntity
8
sakuya
6
ByLayer
62
7
370
-1
100
AcDbSpline
210
0
220
0
230
1
70
8
71
3
72
8
73
4
74
0
42
1e-07
43
1e-07
40
0
40
0
40
0
40
0
40
1
40
1
40
1
40
1
10
49.85858137
20
56.22744766
30
0
10
49.69617313
20
56.22744766
30
0
10
48.60332491
20
55.86216628
30
0
10
48.30124378
20
55.705954
30
0
0
SPLINE
5
51
100
AcDbEntity
8
sakuya
6
ByLayer
62
7
370
-1
100
AcDbSpline
210
0
220
0
230
1
70
8
71
3
72
8
73
4
74
0
42
1e-07
43
1e-07
40
0
40
0
40
0
40
0
40
1
40
1
40
1
40
1
10
48.30124378
20
55.705954
30
0
10
48.09595333
20
55.59979351
30
0
10
48.07502509
20
55.55468785
30
0
10
48.07502509
20
55.26542254
30
0
0
SPLINE
5
52
100
AcDbEntity
8
sakuya
6
ByLayer
62
7
370
-1
100
AcDbSpline
210
0
220
0
230
1
70
8
71
3
72
8
73
4
74
0
42
1e-07
43
1e-07
40
0
40
0
40
0
40
0
40
1
40
1
40
1
40
1
10
48.07502509
20
55.26542254
30
0
10
48.07502509
20
55.0890661
30
0
10
48.12434005
20
54.85085509
30
0
10
48.18456247
20
54.73440382
30
0
0
SPLINE
5
53
100
AcDbEntity
8
sakuya
6
ByLayer
62
7
370
-1
100
AcDbSpline
210
0
220
0
230
1
70
8
71
3
72
8
73
4
74
0
42
1e-07
43
1e-07
40
0
40
0
40
0
40
0
40
1
40
1
40
1
40
1
10
48.18456247
20
54.73440382
30
0
10
48.30720187
20
54.497245
30
0
10
48.17159086
20
54.49550242
30
0
10
49.49186872
20
54.74154775
30
0
0
SPLINE
5
54
100
AcDbEntity
8
sakuya
6
ByLayer
62
7
370
-1
100
AcDbSpline
210
0
220
0
230
1
70
8
71
3
72
8
73
4
74
0
42
1e-07
43
1e-07
40
0
40
0
40
0
40
0
40
1
40
1
40
1
40
1
10
49.49186872
20
54.74154775
30
0
10
49.98706141
20
54.83383051
30
0
10
50.17885375
20
54.84622135
30
0
10
50.21576869
20
54.78679138
30
0
0
SPLINE
5
55
100
AcDbEntity
8
sakuya
6
ByLayer
62
7
370
-1
100
AcDbSpline
210
0
220
0
230
1
70
8
71
3
72
8
73
4
74
0
42
1e-07
43
1e-07
40
0
40
0
40
0
40
0
40
1
40
1
40
1
40
1
10
50.21576869
20
54.78679138
30
0
10
50.24337592
20
54.74234614
30
0
10
50.28746449
20
54.53717314
30
0
10
50.31339988
20
54.32959147
30
0
0
SPLINE
5
56
100
AcDbEntity
8
sakuya
6
ByLayer
62
7
370
-1
100
AcDbSpline
210
0
220
0
230
1
70
8
71
3
72
8
73
4
74
0
42
1e-07
43
1e-07
40
0
40
0
40
0
40
0
40
1
40
1
40
1
40
1
10
50.31339988
20
54.32959147
30
0
10
50.35632421
20
53.98603672
30
0
10
50.34216919
20
53.93476426
30
0
10
50.17290619
20
53.75809138
30
0
0
SPLINE
5
57
100
AcDbEntity
8
sakuya
6
ByLayer
62
7
370
-1
100
AcDbSpline
210
0
220
0
230
1
70
8
71
3
72
8
73
4
74
0
42
1e-07
43
1e-07
40
0
40
0
40
0
40
0
40
1
40
1
40
1
40
1
10
50.17290619
20
53.75809138
30
0
10
50.07063505
20
53.65134283
30
0
10
49.98716887
20
53.52369952
30
0
10
49.98716887
20
53.477104
30
0
0
SPLINE
5
58
100
AcDbEntity
8
sakuya
6
ByLayer
62
7
370
-1
100
AcDbSpline
210
0
220
0
230
1
70
8
71
3
72
8
73
4
74
0
42
1e-07
43
1e-07
40
0
40
0
40
0
40
0
40
1
40
1
40
1
40
1
10
49.98716887
20
53.477104
30
0
10
49.98716887
20
53.43050902
30
0
10
49.9586782
20
53.39376013
30
0
10
49.92287512
20
53.39376013
30
0
0
SPLINE
5
59
100
AcDbEntity
8
sakuya
6
ByLayer
62
7
370
-1
100
AcDbSpline
210
0
220
0
230
1
70
8
71
3
72
8
73
4
74
0
42
1e-07
43
1e-07
40
0
40
0
40
0
40
0
40
1
40
1
40
1
40
1
10
49.92287512
20
53.39376013
30
0
10
49.88707177
20
53.39376013
30
0
10
49.79208847
20
53.28693004
30
0
10
49.71094375
20
53.15563525
30
0
0
SPLINE
5
5A
100
AcDbEntity
8
sakuya
6
ByLayer
62
7
370
-1
100
AcDbSpline
210
0
220
0
230
1
70
8
71
3
72
8
73
4
74
0
42
1e-07
43
1e-07
40
0
40
0
40
0
40
0
40
1
40
1
40
1
40
1
10
49.71094375
20
53.15563525
30
0
10
49.55168965
20
52.89795643
30
0
10
49.51466023
20
52.51036603
30
0
10
49.64188747
20
52.43173501
30
0
0
SPLINE
5
5B
100
AcDbEntity
8
sakuya
6
ByLayer
62
7
370
-1
100
AcDbSpline
210
0
220
0
230
1
70
8
71
3
72
8
73
4
74
0
42
1e-07
43
1e-07
40
0
40
0
40
0
40
0
40
1
40
1
40
1
40
1
10
49.64188747
20
52.43173501
30
0
10
49.68960079
20
52.40224642
30
0
10
49.70300521
20
52.28263534
30
0
10
49.67760631
20
52.12693525
30
0
0
SPLINE
5
5C
100
AcDbEntity
8
sakuya
6
ByLayer
62
7
370
-1
100
AcDbSpline
210
0
220
0
230
1
70
8
71
3
72
8
73
4
74
0
42
1e-07
43
1e-07
40
0
40
0
40
0
40
0
40
1
40
1
40
1
40
1
10
49.67760631
20
52.12693525
30
0
10
49.63711522
20
51.87872344
30
0
10
49.81243594
20
50.98619524
30
0
10
49.91573119
20
50.91249766
30
0
0
SPLINE
5
5D
100
AcDbEntity
8
sakuya
6
ByLayer
62
7
370
-1
100
AcDbSpline
210
0
220
0
230
1
70
8
71
3
72
8
73
4
74
0
42
1e-07
43
1e-07
40
0
40
0
40
0
40
0
40
1
40
1
40
1
40
1
10
49.91573119
20
50.91249766
30
0
10
50.05446556
20
50.8135162
30
0
10
50.10455029
20
50.60657227
30
0
10
50.03003137
20
50.44577269
30
0
0
SPLINE
5
5E
100
AcDbEntity
8
sakuya
6
ByLayer
62
7
370
-1
100
AcDbSpline
210
0
220
0
230
1
70
8
71
3
72
8
73
4
74
0
42
1e-07
43
1e-07
40
0
40
0
40
0
40
0
40
1
40
1
40
1
40
1
10
50.03003137
20
50.44577269
30
0
10
49.98704224
20
50.35301068
30
0
10
49.92572875
20
50.27462752
30
0
10
49.89429994
20
50.27432269
30
0
0
SPLINE
5
5F
100
AcDbEntity
8
sakuya
6
ByLayer
62
7
370
-1
100
AcDbSpline
210
0
220
0
230
1
70
8
71
3
72
8
73
4
74
0
42
1e-07
43
1e-07
40
0
40
0
40
0
40
0
40
1
40
1
40
1
40
1
10
49.89429994
20
50.27432269
30
0
10
49.76873833
20
50.27310715
30
0
10
49.55909089
20
49.6195087
30
0
10
49.47758113
20
48.9741601
30
0
0
SPLINE
5
60
100
AcDbEntity
8
sakuya
6
ByLayer
62
7
370
-1
100
AcDbSpline
210
0
220
0
230
1
70
8
71
3
72
8
73
4
74
0
42
1e-07
43
1e-07
40
0
40
0
40
0
40
0
40
1
40
1
40
1
40
1
10
49.47758113
20
48.9741601
30
0
10
49.40959567
20
48.43590619
30
0
10
49.41092596
20
48.0934336
30
0
10
49.47996253
20
47.35252876
30
0
0
SPLINE
5
61
100
AcDbEntity
8
sakuya
6
ByLayer
62
7
370
-1
100
AcDbSpline
210
0
220
0
230
1
70
8
71
3
72
8
73
4
74
0
42
1e-07
43
1e-07
40
0
40
0
40
0
40
0
40
1
40
1
40
1
40
1
10
49.47996253
20
47.35252876
30
0
10
49.57917268
20
46.28778862
30
0
10
49.80734293
20
45.0788458
30
0
10
49.91573119
20
45.04271629
30
0
0
SPLINE
5
62
100
AcDbEntity
8
sakuya
6
ByLayer
62
7
370
-1
100
AcDbSpline
210
0
220
0
230
1
70
8
71
3
72
8
73
4
74
0
42
1e-07
43
1e-07
40
0
40
0
40
0
40
0
40
1
40
1
40
1
40
1
10
49.91573119
20
45.04271629
30
0
10
49.9555921
20
45.02942932
30
0
10
49.98716887
20
44.95710658
30
0
10
49.98716887
20
44.88317275
30
0
0
SPLINE
5
63
100
AcDbEntity
8
sakuya
6
ByLayer
62
7
370
-1
100
AcDbSpline
210
0
220
0
230
1
70
8
71
3
72
8
73
4
74
0
42
1e-07
43
1e-07
40
0
40
0
40
0
40
0
40
1
40
1
40
1
40
1
10
49.98716887
20
44.88317275
30
0
10
49.98716887
20
44.80923946
30
0
10
50.11986199
20
44.42151568
30
0
10
50.28006244
20
44.02116022
30
0
0
SPLINE
5
64
100
AcDbEntity
8
sakuya
6
ByLayer
62
7
370
-1
100
AcDbSpline
210
0
220
0
230
1
70
8
71
3
72
8
73
4
74
0
42
1e-07
43
1e-07
40
0
40
0
40
0
40
0
40
1
40
1
40
1
40
1
10
50.28006244
20
44.02116022
30
0
10
50.44026316
20
43.62080449
30
0
10
50.58690232
20
43.25311984
30
0
10
50.60629372
20
43.20439132
30
0
0
SPLINE
5
65
100
AcDbEntity
8
sakuya
6
ByLayer
62
7
370
-1
100
AcDbSpline
210
0
220
0
230
1
70
8
71
3
72
8
73
4
74
0
42
1e-07
43
1e-07
40
0
40
0
40
0
40
0
40
1
40
1
40
1
40
1
10
50.60629372
20
43.20439132
30
0
10
50.63113183
20
43.14197893
30
0
10
50.55170944
20
43.11628519
30
0
10
50.34197506
20
43.11628519
30
0
0
SPLINE
5
66
100
AcDbEntity
8
sakuya
6
ByLayer
62
7
370
-1
100
AcDbSpline
210
0
220
0
230
1
70
8
71
3
72
8
73
4
74
0
42
1e-07
43
1e-07
40
0
40
0
40
0
40
0
40
1
40
1
40
1
40
1
10
50.34197506
20
43.11628519
30
0
10
50.10385369
20
43.11628519
30
0
10
50.03824855
20
43.14578593
30
0
10
50.00860012
20
43.25916001
30
0
0
SPLINE
5
67
100
AcDbEntity
8
sakuya
6
ByLayer
62
7
370
-1
100
AcDbSpline
210
0
220
0
230
1
70
8
71
3
72
8
73
4
74
0
42
1e-07
43
1e-07
40
0
40
0
40
0
40
0
40
1
40
1
40
1
40
1
10
50.00860012
20
43.25916001
30
0
10
49.96094998
20
43.44137329
30
0
10
49.74222001
20
43.44137329
30
0
10
49.54663741
20
43.25916001
30
0
0
SPLINE
5
68
100
AcDbEntity
8
sakuya
6
ByLayer
62
7
370
-1
100
AcDbSpline
210
0
220
0
230
1
70
8
71
3
72
8
73
4
74
0
42
1e-07
43
1e-07
40
0
40
0
40
0
40
0
40
1
40
1
40
1
40
1
10
49.54663741
20
43.25916001
30
0
10
49.4629555
20
43.18119454
30
0
10
49.42741486
20
43.11628519
30
0
10
49.46805634
20
43.11628519
30
0
0
SPLINE
5
69
100
AcDbEntity
8
sakuya
6
ByLayer
62
7
370
-1
100
AcDbSpline
210
0
220
0
230
1
70
8
71
3
72
8
73
4
74
0
42
1e-07
43
1e-07
40
0
40
0
40
0
40
0
40
1
40
1
40
1
40
1
10
49.46805634
20
43.11628519
30
0
10
49.50869674
20
43.11628519
30
0
10
49.62020026
20
43.04445223
30
0
10
49.71570628
20
42.95674138
30
0
0
SPLINE
5
6A
100
AcDbEntity
8
sakuya
6
ByLayer
62
7
370
-1
100
AcDbSpline
210
0
220
0
230
1
70
8
71
3
72
8
73
4
74
0
42
1e-07
43
1e-07
40
0
40
0
40
0
40
0
40
1
40
1
40
1
40
1
10
49.71570628
20
42.95674138
30
0
10
49.8112123
20
42.86902999
30
0
10
50.01697363
20
42.70914409
30
0
10
50.17290619
20
42.60193519
30
0
0
SPLINE
5
6B
100
AcDbEntity
8
sakuya
6
ByLayer
62
7
370
-1
100
AcDbSpline
210
0
220
0
230
1
70
8
71
3
72
8
73
4
74
0
42
1e-07
43
1e-07
40
0
40
0
40
0
40
0
40
1
40
1
40
1
40
1
10
50.17290619
20
42.60193519
30
0
10
50.32883956
20
42.49472548
30
0
10
50.56210984
20
42.29781718
30
0
10
50.69201872
20
42.16378513
30
0
0
SPLINE
5
6C
100
AcDbEntity
8
sakuya
6
ByLayer
62
7
370
-1
100
AcDbSpline
210
0
220
0
230
1
70
8
71
3
72
8
73
4
74
0
42
1e-07
43
1e-07
40
0
40
0
40
0
40
0
40
1
40
1
40
1
40
1
10
50.67058747
20
41.67562891
30
0
10
50.52847756
20
41.54160145
30
0
10
50.37665062
20
41.33363044
30
0
10
50.33483113
20
41.21366647
30
0
0
SPLINE
5
6D
100
AcDbEntity
8
sakuya
6
ByLayer
62
7
370
-1
100
AcDbSpline
210
0
220
0
230
1
70
8
71
3
72
8
73
4
74
0
42
1e-07
43
1e-07
40
0
40
0
40
0
40
0
40
1
40
1
40
1
40
1
10
50.33483113
20
41.21366647
30
0
10
50.2725667
20
41.03505283
30
0
10
50.15017948
20
40.94441896
30
0
10
49.65855619
20
40.70646013
30
0
0
SPLINE
5
6E
100
AcDbEntity
8
sakuya
6
ByLayer
62
7
370
-1
100
AcDbSpline
210
0
220
0
230
1
70
8
71
3
72
8
73
4
74
0
42
1e-07
43
1e-07
40
0
40
0
40
0
40
0
40
1
40
1
40
1
40
1
10
49.65855619
20
40.70646013
30
0
10
49.32836347
20
40.54663741
30
0
10
49.04201524
20
40.36993186
30
0
10
49.02038122
20
40.31355397
30
0
0
SPLINE
5
6F
100
AcDbEntity
8
sakuya
6
ByLayer
62
7
370
-1
100
AcDbSpline
210
0
220
0
230
1
70
8
71
3
72
8
73
4
74
0
42
1e-07
43
1e-07
40
0
40
0
40
0
40
0
40
1
40
1
40
1
40
1
10
49.02038122
20
40.31355397
30
0
10
48.99874666
20
40.257175
30
0
10
48.94703734
20
40.21116025
30
0
10
48.90608131
20
40.21116025
30
0
0
SPLINE
5
70
100
AcDbEntity
8
sakuya
6
ByLayer
62
7
370
-1
100
AcDbSpline
210
0
220
0
230
1
70
8
71
3
72
8
73
4
74
0
42
1e-07
43
1e-07
40
0
40
0
40
0
40
0
40
1
40
1
40
1
40
1
10
48.90608131
20
40.21116025
30
0
10
48.86512447
20
40.21116025
30
0
10
48.66349549
20
40.08125353
30
0
10
48.45840619
20
39.92302894
30
0
0
SPLINE
5
71
100
AcDbEntity
8
sakuya
6
ByLayer
62
7
370
-1
100
AcDbSpline
210
0
220
0
230
1
70
8
71
3
72
8
73
4
74
0
42
1e-07
43
1e-07
40
0
40
0
40
0
40
0
40
1
40
1
40
1
40
1
10
48.45840619
20
39.92302894
30
0
10
48.09223489
20
39.64053037
30
0
10
48.07730038
20
39.63565741
30
0
10
47.66306881
20
39.68252266
30
0
0
SPLINE
5
72
100
AcDbEntity
8
sakuya
6
ByLayer
62
7
370
-1
100
AcDbSpline
210
0
220
0
230
1
70
8
71
3
72
8
73
4
74
0
42
1e-07
43
1e-07
40
0
40
0
40
0
40
0
40
1
40
1
40
1
40
1
10
47.66306881
20
39.68252266
30
0
10
47.3812447
20
39.71440696
30
0
10
47.22657844
20
39.70434109
30
0
10
47.19396244
20
39.65156635
30
0
0
SPLINE
5
73
100
AcDbEntity
8
sakuya
6
ByLayer
62
7
370
-1
100
AcDbSpline
210
0
220
0
230
1
70
8
71
3
72
8
73
4
74
0
42
1e-07
43
1e-07
40
0
40
0
40
0
40
0
40
1
40
1
40
1
40
1
10
47.19396244
20
39.65156635
30
0
10
47.16665626
20
39.6073849
30
0
10
47.1889372
20
39.57298501
30
0
10
47.24635
20
39.57298501
30
0
0
SPLINE
5
74
100
AcDbEntity
8
sakuya
6
ByLayer
62
7
370
-1
100
AcDbSpline
210
0
220
0
230
1
70
8
71
3
72
8
73
4
74
0
42
1e-07
43
1e-07
40
0
40
0
40
0
40
0
40
1
40
1
40
1
40
1
10
47.24635
20
39.57298501
30
0
10
47.3774674
20
39.57298501
30
0
10
47.71883569
20
39.29519794
30
0
10
47.59163113
20
39.29199763
30
0
0
SPLINE
5
75
100
AcDbEntity
8
sakuya
6
ByLayer
62
7
370
-1
100
AcDbSpline
210
0
220
0
230
1
70
8
71
3
72
8
73
4
74
0
42
1e-07
43
1e-07
40
0
40
0
40
0
40
0
40
1
40
1
40
1
40
1
10
47.59163113
20
39.29199763
30
0
10
47.48693242
20
39.28936189
30
0
10
47.29397503
20
39.11822131
30
0
10
47.29397503
20
39.02767897
30
0
0
SPLINE
5
76
100
AcDbEntity
8
sakuya
6
ByLayer
62
7
370
-1
100
AcDbSpline
210
0
220
0
230
1
70
8
71
3
72
8
73
4
74
0
42
1e-07
43
1e-07
40
0
40
0
40
0
40
0
40
1
40
1
40
1
40
1
10
47.29397503
20
39.02767897
30
0
10
47.29397503
20
38.92801927
30
0
10
47.77825729
20
38.51709169
30
0
10
48.07502509
20
38.36569135
30
0
0
SPLINE
5
77
100
AcDbEntity
8
sakuya
6
ByLayer
62
7
370
-1
100
AcDbSpline
210
0
220
0
230
1
70
8
71
3
72
8
73
4
74
0
42
1e-07
43
1e-07
40
0
40
0
40
0
40
0
40
1
40
1
40
1
40
1
10
48.07502509
20
38.36569135
30
0
10
48.22994488
20
38.28665749
30
0
10
48.35839387
20
38.20621936
30
0
10
48.35839387
20
38.18471629
30
0
0
SPLINE
5
78
100
AcDbEntity
8
sakuya
6
ByLayer
62
7
370
-1
100
AcDbSpline
210
0
220
0
230
1
70
8
71
3
72
8
73
4
74
0
42
1e-07
43
1e-07
40
0
40
0
40
0
40
0
40
1
40
1
40
1
40
1
10
48.35839387
20
38.18471629
30
0
10
48.35839387
20
38.10492049
30
0
10
47.98717627
20
37.51796641
30
0
10
47.93691253
20
37.51796641
30
0
0
SPLINE
5
79
100
AcDbEntity
8
sakuya
6
ByLayer
62
7
370
-1
100
AcDbSpline
210
0
220
0
230
1
70
8
71
3
72
8
73
4
74
0
42
1e-07
43
1e-07
40
0
40
0
40
0
40
0
40
1
40
1
40
1
40
1
10
47.93691253
20
37.51796641
30
0
10
47.90822098
20
37.51796641
30
0
10
47.84118538
20
37.42990591
30
0
10
47.78689378
20
37.32270376
30
0
0
SPLINE
5
7A
100
AcDbEntity
8
sakuya
6
ByLayer
62
7
370
-1
100
AcDbSpline
210
0
220
0
230
1
70
8
71
3
72
8
73
4
74
0
42
1e-07
43
1e-07
40
0
40
0
40
0
40
0
40
1
40
1
40
1
40
1
10
47.78689378
20
37.32270376
30
0
10
47.66142667
20
37.07495932
30
0
10
46.91805295
20
36.0296851
30
0
10
46.86773116
20
36.0296851
30
0
0
SPLINE
5
7B
100
AcDbEntity
8
sakuya
6
ByLayer
62
7
370
-1
100
AcDbSpline
210
0
220
0
230
1
70
8
71
3
72
8
73
4
74
0
42
1e-07
43
1e-07
40
0
40
0
40
0
40
0
40
1
40
1
40
1
40
1
10
46.86773116
20
36.0296851
30
0
10
46.84693009
20
36.0296851
30
0
10
46.73885125
20
36.26833351
30
0
10
46.62722488
20
36.56070382
30
0
0
SPLINE
5
7C
100
AcDbEntity
8
sakuya
6
ByLayer
62
7
370
-1
100
AcDbSpline
210
0
220
0
230
1
70
8
71
3
72
8
73
4
74
0
42
1e-07
43
1e-07
40
0
40
0
40
0
40
0
40
1
40
1
40
1
40
1
10
46.62722488
20
36.56070382
30
0
10
46.51559878
20
36.85307332
30
0
10
46.3967275
20
37.09172254
30
0
10
46.36290622
20
37.09172254
30
0
0
SPLINE
5
7D
100
AcDbEntity
8
sakuya
6
ByLayer
62
7
370
-1
100
AcDbSpline
210
0
220
0
230
1
70
8
71
3
72
8
73
4
74
0
42
1e-07
43
1e-07
40
0
40
0
40
0
40
0
40
1
40
1
40
1
40
1
10
46.36290622
20
37.09172254
30
0
10
46.32908413
20
37.09172254
30
0
10
46.30099387
20
37.13308087
30
0
10
46.30099387
20
37.18221007
30
0
0
SPLINE
5
7E
100
AcDbEntity
8
sakuya
6
ByLayer
62
7
370
-1
100
AcDbSpline
210
0
220
0
230
1
70
8
71
3
72
8
73
4
74
0
42
1e-07
43
1e-07
40
0
40
0
40
0
40
0
40
1
40
1
40
1
40
1
10
46.30099387
20
37.18221007
30
0
10
46.30099387
20
37.30356778
30
0
10
45.89125267
20
38.23578112
30
0
10
45.61043134
20
38.75145385
30
0
0
SPLINE
5
7F
100
AcDbEntity
8
sakuya
6
ByLayer
62
7
370
-1
100
AcDbSpline
210
0
220
0
230
1
70
8
71
3
72
8
73
4
74
0
42
1e-07
43
1e-07
40
0
40
0
40
0
40
0
40
1
40
1
40
1
40
1
10
45.61043134
20
38.75145385
30
0
10
45.4845946
20
38.9825266
30
0
10
45.38183125
20
39.19651078
30
0
10
45.38183125
20
39.22532275
30
0
0
SPLINE
5
80
100
AcDbEntity
8
sakuya
6
ByLayer
62
7
370
-1
100
AcDbSpline
210
0
220
0
230
1
70
8
71
3
72
8
73
4
74
0
42
1e-07
43
1e-07
40
0
40
0
40
0
40
0
40
1
40
1
40
1
40
1
10
45.38183125
20
39.22532275
30
0
10
45.38183125
20
39.25413472
30
0
10
45.35658922
20
39.28852813
30
0
10
45.32706256
20
39.30152269
30
0
0
SPLINE
5
81
100
AcDbEntity
8
sakuya
6
ByLayer
62
7
370
-1
100
AcDbSpline
210
0
220
0
230
1
70
8
71
3
72
8
73
4
74
0
42
1e-07
43
1e-07
40
0
40
0
40
0
40
0
40
1
40
1
40
1
40
1
10
45.32706256
20
39.30152269
30
0
10
45.29753563
20
39.31451698
30
0
10
45.16371094
20
39.46900099
30
0
10
45.02940619
20
39.64442269
30
0
0
SPLINE
5
82
100
AcDbEntity
8
sakuya
6
ByLayer
62
7
370
-1
100
AcDbSpline
210
0
220
0
230
1
70
8
71
3
72
8
73
4
74
0
42
1e-07
43
1e-07
40
0
40
0
40
0
40
0
40
1
40
1
40
1
40
1
10
45.02940619
20
39.64442269
30
0
10
44.36095612
20
40.51751764
30
0
10
43.93002235
20
40.77346954
30
0
10
42.98153125
20
40.86124141
30
0
0
SPLINE
5
83
100
AcDbEntity
8
sakuya
6
ByLayer
62
7
370
-1
100
AcDbSpline
210
0
220
0
230
1
70
8
71
3
72
8
73
4
74
0
42
1e-07
43
1e-07
40
0
40
0
40
0
40
0
40
1
40
1
40
1
40
1
10
42.98153125
20
40.86124141
30
0
10
42.59011468
20
40.89746218
30
0
10
42.17580832
20
40.98306379
30
0
10
41.97188137
20
41.07079138
30
0
0
SPLINE
5
84
100
AcDbEntity
8
sakuya
6
ByLayer
62
7
370
-1
100
AcDbSpline
210
0
220
0
230
1
70
8
71
3
72
8
73
4
74
0
42
1e-07
43
1e-07
40
0
40
0
40
0
40
0
40
1
40
1
40
1
40
1
10
41.97188137
20
41.07079138
30
0
10
41.61282754
20
41.2252519
30
0
10
41.6373754
20
41.22555889
30
0
10
40.3454875
20
41.09222263
30
0
0
SPLINE
5
85
100
AcDbEntity
8
sakuya
6
ByLayer
62
7
370
-1
100
AcDbSpline
210
0
220
0
230
1
70
8
71
3
72
8
73
4
74
0
42
1e-07
43
1e-07
40
0
40
0
40
0
40
0
40
1
40
1
40
1
40
1
10
40.3454875
20
41.09222263
30
0
10
39.79254073
20
41.03515273
30
0
10
39.74254294
20
41.0747971
30
0
10
39.63587512
20
41.65181626
30
0
0
SPLINE
5
86
100
AcDbEntity
8
sakuya
6
ByLayer
62
7
370
-1
100
AcDbSpline
210
0
220
0
230
1
70
8
71
3
72
8
73
4
74
0
42
1e-07
43
1e-07
40
0
40
0
40
0
40
0
40
1
40
1
40
1
40
1
10
39.63587512
20
41.65181626
30
0
10
39.54613738
20
42.13725007
30
0
10
39.57157732
20
43.07897983
30
0
10
39.66921256
20
42.87339751
30
0
0
SPLINE
5
87
100
AcDbEntity
8
sakuya
6
ByLayer
62
7
370
-1
100
AcDbSpline
210
0
220
0
230
1
70
8
71
3
72
8
73
4
74
0
42
1e-07
43
1e-07
40
0
40
0
40
0
40
0
40
1
40
1
40
1
40
1
10
39.66921256
20
42.87339751
30
0
10
39.70470649
20
42.79866151
30
0
10
39.91369702
20
42.54970234
30
0
10
40.131175
20
42.31856641
30
0
0
SPLINE
5
88
100
AcDbEntity
8
sakuya
6
ByLayer
62
7
370
-1
100
AcDbSpline
210
0
220
0
230
1
70
8
71
3
72
8
73
4
74
0
42
1e-07
43
1e-07
40
0
40
0
40
0
40
0
40
1
40
1
40
1
40
1
10
40.131175
20
42.31856641
30
0
10
40.34865352
20
42.08743048
30
0
10
40.55005705
20
41.8517896
30
0
10
40.58123125
20
41.79707275
30
0
0
SPLINE
5
89
100
AcDbEntity
8
sakuya
6
ByLayer
62
7
370
-1
100
AcDbSpline
210
0
220
0
230
1
70
8
71
3
72
8
73
4
74
0
42
1e-07
43
1e-07
40
0
40
0
40
0
40
0
40
1
40
1
40
1
40
1
10
40.58123125
20
41.79707275
30
0
10
40.70860024
20
41.5735141
30
0
10
40.75715353
20
41.73208861
30
0
10
40.74791872
20
42.34714132
30
0
0
SPLINE
5
8A
100
AcDbEntity
8
sakuya
6
ByLayer
62
7
370
-1
100
AcDbSpline
210
0
220
0
230
1
70
8
71
3
72
8
73
4
74
0
42
1e-07
43
1e-07
40
0
40
0
40
0
40
0
40
1
40
1
40
1
40
1
10
40.74791872
20
42.34714132
30
0
10
40.74224413
20
42.72505303
30
0
10
40.76853322
20
43.00684987
30
0
10
40.80983134
20
43.02103513
30
0
0
SPLINE
5
8B
100
AcDbEntity
8
sakuya
6
ByLayer
62
7
370
-1
100
AcDbSpline
210
0
220
0
230
1
70
8
71
3
72
8
73
4
74
0
42
1e-07
43
1e-07
40
0
40
0
40
0
40
0
40
1
40
1
40
1
40
1
10
40.80983134
20
43.02103513
30
0
10
40.84881448
20
43.03442497
30
0
10
40.98480484
20
42.82912615
30
0
10
41.11224997
20
42.56621635
30
0
0
SPLINE
5
8C
100
AcDbEntity
8
sakuya
6
ByLayer
62
7
370
-1
100
AcDbSpline
210
0
220
0
230
1
70
8
71
3
72
8
73
4
74
0
42
1e-07
43
1e-07
40
0
40
0
40
0
40
0
40
1
40
1
40
1
40
1
10
41.11224997
20
42.56621635
30
0
10
41.44143019
20
41.88714556
30
0
10
41.52772435
20
41.74266964
30
0
10
41.70279991
20
41.58752251
30
0
0
LWPOLYLINE
5
8D
100
AcDbEntity
8
sakuya
6
ByLayer
62
7
370
-1
100
AcDbPolyline
90
3
70
0
43
0
10
50.69201872
20
42.16378513
10
50.92776247
20
41.92089772
10
50.67058747
20
41.67562891
0
SPLINE
5
8E
100
AcDbEntity
8
sakuya
6
ByLayer
62
7
370
-1
100
AcDbSpline
210
0
220
0
230
1
70
8
71
3
72
8
73
4
74
0
42
1e-07
43
1e-07
40
0
40
0
40
0
40
0
40
1
40
1
40
1
40
1
10
41.80995616
20
41.73516013
30
0
10
41.66862115
20
42.56825998
30
0
10
41.55467629
20
43.70922247
30
0
10
41.56230622
20
44.21166007
30
0
0
LWPOLYLINE
5
8F
100
AcDbEntity
8
sakuya
6
ByLayer
62
7
370
-1
100
AcDbPolyline
90
3
70
0
43
0
10
41.70279991
20
41.58752251
10
41.85758119
20
41.45179135
10
41.80995616
20
41.73516013
0
SPLINE
5
90
100
AcDbEntity
8
sakuya
6
ByLayer
62
7
370
-1
100
AcDbSpline
210
0
220
0
230
1
70
8
71
3
72
8
73
4
74
0
42
1e-07
43
1e-07
40
0
40
0
40
0
40
0
40
1
40
1
40
1
40
1
10
41.68136866
20
44.21404147
30
0
10
41.74255363
20
43.90218067
30
0
10
41.81535805
20
43.63116547
30
0
10
41.84329387
20
43.61158507
30
0
0
SPLINE
5
91
100
AcDbEntity
8
sakuya
6
ByLayer
62
7
370
-1
100
AcDbSpline
210
0
220
0
230
1
70
8
71
3
72
8
73
4
74
0
42
1e-07
43
1e-07
40
0
40
0
40
0
40
0
40
1
40
1
40
1
40
1
10
41.84329387
20
43.61158507
30
0
10
41.87122942
20
43.59200413
30
0
10
41.91755683
20
43.4543557
30
0
10
41.94568759
20
43.30440391
30
0
0
SPLINE
5
92
100
AcDbEntity
8
sakuya
6
ByLayer
62
7
370
-1
100
AcDbSpline
210
0
220
0
230
1
70
8
71
3
72
8
73
4
74
0
42
1e-07
43
1e-07
40
0
40
0
40
0
40
0
40
1
40
1
40
1
40
1
10
41.94568759
20
43.30440391
30
0
10
41.99961955
20
43.01692276
30
0
10
42.11739274
20
43.07027179
30
0
10
42.11951872
20
43.38298525
30
0
0
SPLINE
5
93
100
AcDbEntity
8
sakuya
6
ByLayer
62
7
370
-1
100
AcDbSpline
210
0
220
0
230
1
70
8
71
3
72
8
73
4
74
0
42
1e-07
43
1e-07
40
0
40
0
40
0
40
0
40
1
40
1
40
1
40
1
10
42.11951872
20
43.38298525
30
0
10
42.12011542
20
43.47069664
30
0
10
42.15021745
20
43.54252879
30
0
10
42.18619387
20
43.54252879
30
0
0
SPLINE
5
94
100
AcDbEntity
8
sakuya
6
ByLayer
62
7
370
-1
100
AcDbSpline
210
0
220
0
230
1
70
8
71
3
72
8
73
4
74
0
42
1e-07
43
1e-07
40
0
40
0
40
0
40
0
40
1
40
1
40
1
40
1
10
42.18619387
20
43.54252879
30
0
10
42.22391719
20
43.54252879
30
0
10
42.23319169
20
43.76698222
30
0
10
42.21000625
20
44.07354751
30
0
0
LWPOLYLINE
5
95
100
AcDbEntity
8
sakuya
6
ByLayer
62
7
370
-1
100
AcDbPolyline
90
3
70
0
43
0
10
41.56230622
20
44.21166007
10
41.57183128
20
44.78077876
10
41.68136866
20
44.21404147
0
SPLINE
5
96
100
AcDbEntity
8
sakuya
6
ByLayer
62
7
370
-1
100
AcDbSpline
210
0
220
0
230
1
70
8
71
3
72
8
73
4
74
0
42
1e-07
43
1e-07
40
0
40
0
40
0
40
0
40
1
40
1
40
1
40
1
10
42.35288134
20
44.6045665
30
0
10
42.49464079
20
44.6045665
30
0
10
42.54201796
20
44.56129468
30
0
10
42.57195637
20
44.40930385
30
0
0
SPLINE
5
97
100
AcDbEntity
8
sakuya
6
ByLayer
62
7
370
-1
100
AcDbSpline
210
0
220
0
230
1
70
8
71
3
72
8
73
4
74
0
42
1e-07
43
1e-07
40
0
40
0
40
0
40
0
40
1
40
1
40
1
40
1
10
42.57195637
20
44.40930385
30
0
10
42.5930728
20
44.30210197
30
0
10
42.64787362
20
44.01477013
30
0
10
42.69339994
20
43.77112888
30
0
0
SPLINE
5
98
100
AcDbEntity
8
sakuya
6
ByLayer
62
7
370
-1
100
AcDbSpline
210
0
220
0
230
1
70
8
71
3
72
8
73
4
74
0
42
1e-07
43
1e-07
40
0
40
0
40
0
40
0
40
1
40
1
40
1
40
1
10
42.69339994
20
43.77112888
30
0
10
42.73892734
20
43.52748709
30
0
10
42.79760266
20
43.32821629
30
0
10
42.82436884
20
43.32821629
30
0
0
SPLINE
5
99
100
AcDbEntity
8
sakuya
6
ByLayer
62
7
370
-1
100
AcDbSpline
210
0
220
0
230
1
70
8
71
3
72
8
73
4
74
0
42
1e-07
43
1e-07
40
0
40
0
40
0
40
0
40
1
40
1
40
1
40
1
10
42.82436884
20
43.32821629
30
0
10
42.85113556
20
43.32821629
30
0
10
42.95096968
20
43.08264427
30
0
10
43.045825
20
42.78052885
30
0
0
LWPOLYLINE
5
9A
100
AcDbEntity
8
sakuya
6
ByLayer
62
7
370
-1
100
AcDbPolyline
90
3
70
0
43
0
10
42.21000625
20
44.07354751
10
42.17190628
20
44.6045665
10
42.35288134
20
44.6045665
0
SPLINE
5
9B
100
AcDbEntity
8
sakuya
6
ByLayer
62
7
370
-1
100
AcDbSpline
210
0
220
0
230
1
70
8
71
3
72
8
73
4
74
0
42
1e-07
43
1e-07
40
0
40
0
40
0
40
0
40
1
40
1
40
1
40
1
10
43.24108738
20
42.61860391
30
0
10
43.26862549
20
43.10496193
30
0
10
43.38533407
20
43.19229775
30
0
10
43.54112488
20
42.8448226
30
0
0
SPLINE
5
9C
100
AcDbEntity
8
sakuya
6
ByLayer
62
7
370
-1
100
AcDbSpline
210
0
220
0
230
1
70
8
71
3
72
8
73
4
74
0
42
1e-07
43
1e-07
40
0
40
0
40
0
40
0
40
1
40
1
40
1
40
1
10
43.54112488
20
42.8448226
30
0
10
43.65976531
20
42.58020829
30
0
10
43.86582607
20
42.35751742
30
0
10
43.93164991
20
42.42334126
30
0
0
SPLINE
5
9D
100
AcDbEntity
8
sakuya
6
ByLayer
62
7
370
-1
100
AcDbSpline
210
0
220
0
230
1
70
8
71
3
72
8
73
4
74
0
42
1e-07
43
1e-07
40
0
40
0
40
0
40
0
40
1
40
1
40
1
40
1
10
43.93164991
20
42.42334126
30
0
10
43.9515238
20
42.44321515
30
0
10
43.93440229
20
42.60776152
30
0
10
43.89354994
20
42.79005391
30
0
0
SPLINE
5
9E
100
AcDbEntity
8
sakuya
6
ByLayer
62
7
370
-1
100
AcDbSpline
210
0
220
0
230
1
70
8
71
3
72
8
73
4
74
0
42
1e-07
43
1e-07
40
0
40
0
40
0
40
0
40
1
40
1
40
1
40
1
10
43.89354994
20
42.79005391
30
0
10
43.85269678
20
42.97234711
30
0
10
43.79960236
20
43.41254782
30
0
10
43.7744875
20
43.76636635
30
0
0
SPLINE
5
9F
100
AcDbEntity
8
sakuya
6
ByLayer
62
7
370
-1
100
AcDbSpline
210
0
220
0
230
1
70
8
71
3
72
8
73
4
74
0
42
1e-07
43
1e-07
40
0
40
0
40
0
40
0
40
1
40
1
40
1
40
1
10
43.7744875
20
43.76636635
30
0
10
43.72927357
20
44.40335278
30
0
10
43.73002714
20
44.409316
30
0
10
43.87688122
20
44.33072251
30
0
0
SPLINE
5
A0
100
AcDbEntity
8
sakuya
6
ByLayer
62
7
370
-1
100
AcDbSpline
210
0
220
0
230
1
70
8
71
3
72
8
73
4
74
0
42
1e-07
43
1e-07
40
0
40
0
40
0
40
0
40
1
40
1
40
1
40
1
10
43.87688122
20
44.33072251
30
0
10
44.12756029
20
44.19656329
30
0
10
44.26763872
20
44.22775423
30
0
10
44.22216262
20
44.40930385
30
0
0
SPLINE
5
A1
100
AcDbEntity
8
sakuya
6
ByLayer
62
7
370
-1
100
AcDbSpline
210
0
220
0
230
1
70
8
71
3
72
8
73
4
74
0
42
1e-07
43
1e-07
40
0
40
0
40
0
40
0
40
1
40
1
40
1
40
1
10
44.22216262
20
44.40930385
30
0
10
44.20019245
20
44.4970147
30
0
10
44.09095828
20
44.92108912
30
0
10
43.97689381
20
45.34989772
30
0
0
SPLINE
5
A2
100
AcDbEntity
8
sakuya
6
ByLayer
62
7
370
-1
100
AcDbSpline
210
0
220
0
230
1
70
8
71
3
72
8
73
4
74
0
42
1e-07
43
1e-07
40
0
40
0
40
0
40
0
40
1
40
1
40
1
40
1
10
43.97689381
20
45.34989772
30
0
10
43.80451177
20
45.99794065
30
0
10
43.60323028
20
47.29215865
30
0
10
43.72924387
20
46.94295388
30
0
0
SPLINE
5
A3
100
AcDbEntity
8
sakuya
6
ByLayer
62
7
370
-1
100
AcDbSpline
210
0
220
0
230
1
70
8
71
3
72
8
73
4
74
0
42
1e-07
43
1e-07
40
0
40
0
40
0
40
0
40
1
40
1
40
1
40
1
10
43.72924387
20
46.94295388
30
0
10
43.75034518
20
46.88447944
30
0
10
43.80481957
20
46.80572368
30
0
10
43.85068744
20
46.76674135
30
0
0
SPLINE
5
A4
100
AcDbEntity
8
sakuya
6
ByLayer
62
7
370
-1
100
AcDbSpline
210
0
220
0
230
1
70
8
71
3
72
8
73
4
74
0
42
1e-07
43
1e-07
40
0
40
0
40
0
40
0
40
1
40
1
40
1
40
1
10
43.85068744
20
46.76674135
30
0
10
44.04998848
20
46.59735712
30
0
10
44.74365628
20
45.15856546
30
0
10
44.74365628
20
44.91412879
30
0
0
SPLINE
5
A5
100
AcDbEntity
8
sakuya
6
ByLayer
62
7
370
-1
100
AcDbSpline
210
0
220
0
230
1
70
8
71
3
72
8
73
4
74
0
42
1e-07
43
1e-07
40
0
40
0
40
0
40
0
40
1
40
1
40
1
40
1
10
44.74365628
20
44.91412879
30
0
10
44.74365628
20
44.86700137
30
0
10
44.78631682
20
44.78336212
30
0
10
44.83890634
20
44.7307726
30
0
0
SPLINE
5
A6
100
AcDbEntity
8
sakuya
6
ByLayer
62
7
370
-1
100
AcDbSpline
210
0
220
0
230
1
70
8
71
3
72
8
73
4
74
0
42
1e-07
43
1e-07
40
0
40
0
40
0
40
0
40
1
40
1
40
1
40
1
10
44.83890634
20
44.7307726
30
0
10
44.8914964
20
44.67818254
30
0
10
44.97437317
20
44.51869273
30
0
10
45.02226253
20
44.37358501
30
0
0
SPLINE
5
A7
100
AcDbEntity
8
sakuya
6
ByLayer
62
7
370
-1
100
AcDbSpline
210
0
220
0
230
1
70
8
71
3
72
8
73
4
74
0
42
1e-07
43
1e-07
40
0
40
0
40
0
40
0
40
1
40
1
40
1
40
1
10
45.02226253
20
44.37358501
30
0
10
45.0701527
20
44.22847756
30
0
10
45.12131419
20
44.10926635
30
0
10
45.13656244
20
44.10926635
30
0
0
SPLINE
5
A8
100
AcDbEntity
8
sakuya
6
ByLayer
62
7
370
-1
100
AcDbSpline
210
0
220
0
230
1
70
8
71
3
72
8
73
4
74
0
42
1e-07
43
1e-07
40
0
40
0
40
0
40
0
40
1
40
1
40
1
40
1
10
45.13656244
20
44.10926635
30
0
10
45.21453196
20
44.10926635
30
0
10
45.00694084
20
46.30478107
30
0
10
44.84605
20
47.18107876
30
0
0
SPLINE
5
A9
100
AcDbEntity
8
sakuya
6
ByLayer
62
7
370
-1
100
AcDbSpline
210
0
220
0
230
1
70
8
71
3
72
8
73
4
74
0
42
1e-07
43
1e-07
40
0
40
0
40
0
40
0
40
1
40
1
40
1
40
1
10
44.84605
20
47.18107876
30
0
10
44.73416551
20
47.79046255
30
0
10
44.71409452
20
48.08585929
30
0
10
44.79604384
20
47.96451022
30
0
0
SPLINE
5
AA
100
AcDbEntity
8
sakuya
6
ByLayer
62
7
370
-1
100
AcDbSpline
210
0
220
0
230
1
70
8
71
3
72
8
73
4
74
0
42
1e-07
43
1e-07
40
0
40
0
40
0
40
0
40
1
40
1
40
1
40
1
10
44.79604384
20
47.96451022
30
0
10
44.92715206
20
47.7703678
30
0
10
46.24627216
20
47.64309628
30
0
10
46.61770009
20
47.78829769
30
0
0
SPLINE
5
AB
100
AcDbEntity
8
sakuya
6
ByLayer
62
7
370
-1
100
AcDbSpline
210
0
220
0
230
1
70
8
71
3
72
8
73
4
74
0
42
1e-07
43
1e-07
40
0
40
0
40
0
40
0
40
1
40
1
40
1
40
1
10
46.61770009
20
47.78829769
30
0
10
46.73550892
20
47.83435294
30
0
10
46.69758742
20
47.87290543
30
0
10
46.37004988
20
48.03594763
30
0
0
SPLINE
5
AC
100
AcDbEntity
8
sakuya
6
ByLayer
62
7
370
-1
100
AcDbSpline
210
0
220
0
230
1
70
8
71
3
72
8
73
4
74
0
42
1e-07
43
1e-07
40
0
40
0
40
0
40
0
40
1
40
1
40
1
40
1
10
46.37004988
20
48.03594763
30
0
10
46.15696885
20
48.14201497
30
0
10
45.93560557
20
48.28407304
30
0
10
45.87713113
20
48.35265385
30
0
0
SPLINE
5
AD
100
AcDbEntity
8
sakuya
6
ByLayer
62
7
370
-1
100
AcDbSpline
210
0
220
0
230
1
70
8
71
3
72
8
73
4
74
0
42
1e-07
43
1e-07
40
0
40
0
40
0
40
0
40
1
40
1
40
1
40
1
10
45.87713113
20
48.35265385
30
0
10
45.81865777
20
48.42123628
30
0
10
45.58864936
20
48.62762455
30
0
10
45.36754366
20
48.81223516
30
0
0
SPLINE
5
AE
100
AcDbEntity
8
sakuya
6
ByLayer
62
7
370
-1
100
AcDbSpline
210
0
220
0
230
1
70
8
71
3
72
8
73
4
74
0
42
1e-07
43
1e-07
40
0
40
0
40
0
40
0
40
1
40
1
40
1
40
1
10
45.36754366
20
48.81223516
30
0
10
44.74443199
20
49.33249762
30
0
10
44.56387975
20
49.77477382
30
0
10
44.45314384
20
51.03870376
30
0
0
SPLINE
5
AF
100
AcDbEntity
8
sakuya
6
ByLayer
62
7
370
-1
100
AcDbSpline
210
0
220
0
230
1
70
8
71
3
72
8
73
4
74
0
42
1e-07
43
1e-07
40
0
40
0
40
0
40
0
40
1
40
1
40
1
40
1
10
44.45314384
20
51.03870376
30
0
10
44.40454114
20
51.59345359
30
0
10
44.3380207
20
52.04597251
30
0
10
44.30550622
20
52.04597251
30
0
0
SPLINE
5
B0
100
AcDbEntity
8
sakuya
6
ByLayer
62
7
370
-1
100
AcDbSpline
210
0
220
0
230
1
70
8
71
3
72
8
73
4
74
0
42
1e-07
43
1e-07
40
0
40
0
40
0
40
0
40
1
40
1
40
1
40
1
10
44.30550622
20
52.04597251
30
0
10
44.27299174
20
52.04597251
30
0
10
44.245975
20
52.1359168
30
0
10
44.245975
20
52.24599769
30
0
0
SPLINE
5
B1
100
AcDbEntity
8
sakuya
6
ByLayer
62
7
370
-1
100
AcDbSpline
210
0
220
0
230
1
70
8
71
3
72
8
73
4
74
0
42
1e-07
43
1e-07
40
0
40
0
40
0
40
0
40
1
40
1
40
1
40
1
10
44.245975
20
52.24599769
30
0
10
44.245975
20
53.02091119
30
0
10
43.47762385
20
56.79656635
30
0
10
43.31966872
20
56.79656635
30
0
0
SPLINE
5
B2
100
AcDbEntity
8
sakuya
6
ByLayer
62
7
370
-1
100
AcDbSpline
210
0
220
0
230
1
70
8
71
3
72
8
73
4
74
0
42
1e-07
43
1e-07
40
0
40
0
40
0
40
0
40
1
40
1
40
1
40
1
10
43.31966872
20
56.79656635
30
0
10
43.28699116
20
56.79656635
30
0
10
43.19833774
20
56.99583769
30
0
10
43.12202494
20
57.23947894
30
0
0
SPLINE
5
B3
100
AcDbEntity
8
sakuya
6
ByLayer
62
7
370
-1
100
AcDbSpline
210
0
220
0
230
1
70
8
71
3
72
8
73
4
74
0
42
1e-07
43
1e-07
40
0
40
0
40
0
40
0
40
1
40
1
40
1
40
1
10
43.12202494
20
57.23947894
30
0
10
42.955861
20
57.76998412
30
0
10
42.41703334
20
58.92818287
30
0
10
42.29096872
20
59.02779775
30
0
0
SPLINE
5
B4
100
AcDbEntity
8
sakuya
6
ByLayer
62
7
370
-1
100
AcDbSpline
210
0
220
0
230
1
70
8
71
3
72
8
73
4
74
0
42
1e-07
43
1e-07
40
0
40
0
40
0
40
0
40
1
40
1
40
1
40
1
10
42.29096872
20
59.02779775
30
0
10
42.24163459
20
59.06678089
30
0
10
42.1291642
20
59.24290027
30
0
10
42.04093738
20
59.41832251
30
0
0
SPLINE
5
B5
100
AcDbEntity
8
sakuya
6
ByLayer
62
7
370
-1
100
AcDbSpline
210
0
220
0
230
1
70
8
71
3
72
8
73
4
74
0
42
1e-07
43
1e-07
40
0
40
0
40
0
40
0
40
1
40
1
40
1
40
1
10
42.04093738
20
59.41832251
30
0
10
41.88634753
20
59.72569429
30
0
10
40.4831794
20
61.1899726
30
0
10
40.34310637
20
61.1899726
30
0
0
SPLINE
5
B6
100
AcDbEntity
8
sakuya
6
ByLayer
62
7
370
-1
100
AcDbSpline
210
0
220
0
230
1
70
8
71
3
72
8
73
4
74
0
42
1e-07
43
1e-07
40
0
40
0
40
0
40
0
40
1
40
1
40
1
40
1
10
40.34310637
20
61.1899726
30
0
10
40.26922438
20
61.1899726
30
0
10
39.69918337
20
61.54483765
30
0
10
39.63587512
20
61.63050379
30
0
0
SPLINE
5
B7
100
AcDbEntity
8
sakuya
6
ByLayer
62
7
370
-1
100
AcDbSpline
210
0
220
0
230
1
70
8
71
3
72
8
73
4
74
0
42
1e-07
43
1e-07
40
0
40
0
40
0
40
0
40
1
40
1
40
1
40
1
10
39.63587512
20
61.63050379
30
0
10
39.57694276
20
61.71024559
30
0
10
38.67938068
20
62.13422848
30
0
10
38.08091866
20
62.36392882
30
0
0
SPLINE
5
B8
100
AcDbEntity
8
sakuya
6
ByLayer
62
7
370
-1
100
AcDbSpline
210
0
220
0
230
1
70
8
71
3
72
8
73
4
74
0
42
1e-07
43
1e-07
40
0
40
0
40
0
40
0
40
1
40
1
40
1
40
1
10
38.08091866
20
62.36392882
30
0
10
37.78854862
20
62.47614622
30
0
10
37.5336724
20
62.58782821
30
0
10
37.51418137
20
62.61396016
30
0
0
SPLINE
5
B9
100
AcDbEntity
8
sakuya
6
ByLayer
62
7
370
-1
100
AcDbSpline
210
0
220
0
230
1
70
8
71
3
72
8
73
4
74
0
42
1e-07
43
1e-07
40
0
40
0
40
0
40
0
40
1
40
1
40
1
40
1
10
37.51418137
20
62.61396016
30
0
10
37.44190183
20
62.71086748
30
0
10
35.57977339
20
63.28708285
30
0
10
34.64239387
20
63.50216647
30
0
0
SPLINE
5
BA
100
AcDbEntity
8
sakuya
6
ByLayer
62
7
370
-1
100
AcDbSpline
210
0
220
0
230
1
70
8
71
3
72
8
73
4
74
0
42
1e-07
43
1e-07
40
0
40
0
40
0
40
0
40
1
40
1
40
1
40
1
10
34.64239387
20
63.50216647
30
0
10
34.5254458
20
63.52899934
30
0
10
34.41423496
20
63.57256222
30
0
10
34.39474366
20
63.59979766
30
0
0
SPLINE
5
BB
100
AcDbEntity
8
sakuya
6
ByLayer
62
7
370
-1
100
AcDbSpline
210
0
220
0
230
1
70
8
71
3
72
8
73
4
74
0
42
1e-07
43
1e-07
40
0
40
0
40
0
40
0
40
1
40
1
40
1
40
1
10
34.39474366
20
63.59979766
30
0
10
34.30952626
20
63.71887225
30
0
10
29.72502184
20
64.52636746
30
0
10
29.48698741
20
64.46419132
30
0
0
SPLINE
5
BC
100
AcDbEntity
8
sakuya
6
ByLayer
62
7
370
-1
100
AcDbSpline
210
0
220
0
230
1
70
8
71
3
72
8
73
4
74
0
42
1e-07
43
1e-07
40
0
40
0
40
0
40
0
40
1
40
1
40
1
40
1
10
29.48698741
20
64.46419132
30
0
10
29.45775019
20
64.45655464
30
0
10
29.43221872
20
64.49347498
30
0
10
29.43221872
20
64.54515379
30
0
0
SPLINE
5
BD
100
AcDbEntity
8
sakuya
6
ByLayer
62
7
370
-1
100
AcDbSpline
210
0
220
0
230
1
70
8
71
3
72
8
73
4
74
0
42
1e-07
43
1e-07
40
0
40
0
40
0
40
0
40
1
40
1
40
1
40
1
10
29.43221872
20
64.54515379
30
0
10
29.43221872
20
64.77594385
30
0
10
28.87731364
20
65.08807897
30
0
10
28.46781247
20
65.08807897
30
0
0
SPLINE
5
BE
100
AcDbEntity
8
sakuya
6
ByLayer
62
7
370
-1
100
AcDbSpline
210
0
220
0
230
1
70
8
71
3
72
8
73
4
74
0
42
1e-07
43
1e-07
40
0
40
0
40
0
40
0
40
1
40
1
40
1
40
1
10
28.46781247
20
65.08807897
30
0
10
28.21751383
20
65.08807897
30
0
10
27.62379004
20
64.7510944
30
0
10
27.49388116
20
64.535629
30
0
0
SPLINE
5
BF
100
AcDbEntity
8
sakuya
6
ByLayer
62
7
370
-1
100
AcDbSpline
210
0
220
0
230
1
70
8
71
3
72
8
73
4
74
0
42
1e-07
43
1e-07
40
0
40
0
40
0
40
0
40
1
40
1
40
1
40
1
10
27.49388116
20
64.535629
30
0
10
27.46038145
20
64.48006678
30
0
10
27.34699819
20
64.33941163
30
0
10
27.24146869
20
64.22130391
30
0
0
SPLINE
5
C0
100
AcDbEntity
8
sakuya
6
ByLayer
62
7
370
-1
100
AcDbSpline
210
0
220
0
230
1
70
8
71
3
72
8
73
4
74
0
42
1e-07
43
1e-07
40
0
40
0
40
0
40
0
40
1
40
1
40
1
40
1
10
27.24146869
20
64.22130391
30
0
10
26.87513485
20
63.81130513
30
0
10
26.17085794
20
64.00032835
30
0
10
25.61507509
20
64.65945397
30
0
0
SPLINE
5
C1
100
AcDbEntity
8
sakuya
6
ByLayer
62
7
370
-1
100
AcDbSpline
210
0
220
0
230
1
70
8
71
3
72
8
73
4
74
0
42
1e-07
43
1e-07
40
0
40
0
40
0
40
0
40
1
40
1
40
1
40
1
10
25.61507509
20
64.65945397
30
0
10
25.29119983
20
65.04355057
30
0
10
24.85871977
20
65.25285079
30
0
10
24.74830003
20
65.07855391
30
0
0
SPLINE
5
C2
100
AcDbEntity
8
sakuya
6
ByLayer
62
7
370
-1
100
AcDbSpline
210
0
220
0
230
1
70
8
71
3
72
8
73
4
74
0
42
1e-07
43
1e-07
40
0
40
0
40
0
40
0
40
1
40
1
40
1
40
1
10
24.74830003
20
65.07855391
30
0
10
24.71454571
20
65.02527346
30
0
10
24.68520265
20
64.56853444
30
0
10
24.68400628
20
64.0617601
30
0
0
SPLINE
5
C3
100
AcDbEntity
8
sakuya
6
ByLayer
62
7
370
-1
100
AcDbSpline
210
0
220
0
230
1
70
8
71
3
72
8
73
4
74
0
42
1e-07
43
1e-07
40
0
40
0
40
0
40
0
40
1
40
1
40
1
40
1
10
24.68400628
20
64.0617601
30
0
10
24.6821476
20
63.27264514
30
0
10
24.61912879
20
62.8391083
30
0
10
24.52446247
20
62.96400382
30
0
0
SPLINE
5
C4
100
AcDbEntity
8
sakuya
6
ByLayer
62
7
370
-1
100
AcDbSpline
210
0
220
0
230
1
70
8
71
3
72
8
73
4
74
0
42
1e-07
43
1e-07
40
0
40
0
40
0
40
0
40
1
40
1
40
1
40
1
10
24.52446247
20
62.96400382
30
0
10
24.5105437
20
62.98236571
30
0
10
24.44676592
20
63.08351905
30
0
10
24.38158738
20
63.18784138
30
0
0
SPLINE
5
C5
100
AcDbEntity
8
sakuya
6
ByLayer
62
7
370
-1
100
AcDbSpline
210
0
220
0
230
1
70
8
71
3
72
8
73
4
74
0
42
1e-07
43
1e-07
40
0
40
0
40
0
40
0
40
1
40
1
40
1
40
1
10
24.38158738
20
63.18784138
30
0
10
24.31640992
20
63.29216236
30
0
10
24.14992198
20
63.41675224
30
0
10
24.01249387
20
63.46644763
30
0
0
SPLINE
5
C6
100
AcDbEntity
8
sakuya
6
ByLayer
62
7
370
-1
100
AcDbSpline
210
0
220
0
230
1
70
8
71
3
72
8
73
4
74
0
42
1e-07
43
1e-07
40
0
40
0
40
0
40
0
40
1
40
1
40
1
40
1
10
24.01249387
20
63.46644763
30
0
10
23.87506549
20
63.51614221
30
0
10
23.76246253
20
63.58293373
30
0
10
23.76246253
20
63.61408525
30
0
0
SPLINE
5
C7
100
AcDbEntity
8
sakuya
6
ByLayer
62
7
370
-1
100
AcDbSpline
210
0
220
0
230
1
70
8
71
3
72
8
73
4
74
0
42
1e-07
43
1e-07
40
0
40
0
40
0
40
0
40
1
40
1
40
1
40
1
10
23.76246253
20
63.61408525
30
0
10
23.76246253
20
63.6452365
30
0
10
23.54004085
20
63.67123507
30
0
10
23.26716238
20
63.67123507
30
0
0
SPLINE
5
C8
100
AcDbEntity
8
sakuya
6
ByLayer
62
7
370
-1
100
AcDbSpline
210
0
220
0
230
1
70
8
71
3
72
8
73
4
74
0
42
1e-07
43
1e-07
40
0
40
0
40
0
40
0
40
1
40
1
40
1
40
1
10
23.26716238
20
63.67123507
30
0
10
22.99428337
20
63.67123507
30
0
10
22.7718625
20
63.6433222
30
0
10
22.7718625
20
63.60932272
30
0
0
SPLINE
5
C9
100
AcDbEntity
8
sakuya
6
ByLayer
62
7
370
-1
100
AcDbSpline
210
0
220
0
230
1
70
8
71
3
72
8
73
4
74
0
42
1e-07
43
1e-07
40
0
40
0
40
0
40
0
40
1
40
1
40
1
40
1
10
22.7718625
20
63.60932272
30
0
10
22.7718625
20
63.57532216
30
0
10
22.65134773
20
63.52796848
30
0
10
22.50516244
20
63.5045476
30
0
0
SPLINE
5
CA
100
AcDbEntity
8
sakuya
6
ByLayer
62
7
370
-1
100
AcDbSpline
210
0
220
0
230
1
70
8
71
3
72
8
73
4
74
0
42
1e-07
43
1e-07
40
0
40
0
40
0
40
0
40
1
40
1
40
1
40
1
10
22.50516244
20
63.5045476
30
0
10
22.17693775
20
63.4519597
30
0
10
21.14705137
20
62.95781407
30
0
10
20.98592509
20
62.7758851
30
0
0
SPLINE
5
CB
100
AcDbEntity
8
sakuya
6
ByLayer
62
7
370
-1
100
AcDbSpline
210
0
220
0
230
1
70
8
71
3
72
8
73
4
74
0
42
1e-07
43
1e-07
40
0
40
0
40
0
40
0
40
1
40
1
40
1
40
1
10
20.98592509
20
62.7758851
30
0
10
20.87296924
20
62.64834682
30
0
10
20.88492268
20
62.63127499
30
0
10
21.21214378
20
62.39488513
30
0
0
SPLINE
5
CC
100
AcDbEntity
8
sakuya
6
ByLayer
62
7
370
-1
100
AcDbSpline
210
0
220
0
230
1
70
8
71
3
72
8
73
4
74
0
42
1e-07
43
1e-07
40
0
40
0
40
0
40
0
40
1
40
1
40
1
40
1
10
21.21214378
20
62.39488513
30
0
10
21.57510802
20
62.13267328
30
0
10
22.09862857
20
61.43063062
30
0
10
22.19321875
20
61.08043522
30
0
0
SPLINE
5
CD
100
AcDbEntity
8
sakuya
6
ByLayer
62
7
370
-1
100
AcDbSpline
210
0
220
0
230
1
70
8
71
3
72
8
73
4
74
0
42
1e-07
43
1e-07
40
0
40
0
40
0
40
0
40
1
40
1
40
1
40
1
10
22.19321875
20
61.08043522
30
0
10
22.24389397
20
60.89282464
30
0
10
22.21846294
20
60.84108778
30
0
10
21.92651869
20
60.57084775
30
0
0
SPLINE
5
CE
100
AcDbEntity
8
sakuya
6
ByLayer
62
7
370
-1
100
AcDbSpline
210
0
220
0
230
1
70
8
71
3
72
8
73
4
74
0
42
1e-07
43
1e-07
40
0
40
0
40
0
40
0
40
1
40
1
40
1
40
1
10
21.92651869
20
60.57084775
30
0
10
21.74798659
20
60.40558669
30
0
10
21.56589832
20
60.26888596
30
0
10
21.52170634
20
60.26842885
30
0
0
SPLINE
5
CF
100
AcDbEntity
8
sakuya
6
ByLayer
62
7
370
-1
100
AcDbSpline
210
0
220
0
230
1
70
8
71
3
72
8
73
4
74
0
42
1e-07
43
1e-07
40
0
40
0
40
0
40
0
40
1
40
1
40
1
40
1
10
21.52170634
20
60.26842885
30
0
10
21.40526263
20
60.26733319
30
0
10
20.95742632
20
59.7535888
30
0
10
20.8001875
20
59.43975376
30
0
0
SPLINE
5
D0
100
AcDbEntity
8
sakuya
6
ByLayer
62
7
370
-1
100
AcDbSpline
210
0
220
0
230
1
70
8
71
3
72
8
73
4
74
0
42
1e-07
43
1e-07
40
0
40
0
40
0
40
0
40
1
40
1
40
1
40
1
10
20.8001875
20
59.43975376
30
0
10
20.55530047
20
58.95097897
30
0
10
20.54871139
20
58.7971219
30
0
10
20.75970613
20
58.38009772
30
0
0
SPLINE
5
D1
100
AcDbEntity
8
sakuya
6
ByLayer
62
7
370
-1
100
AcDbSpline
210
0
220
0
230
1
70
8
71
3
72
8
73
4
74
0
42
1e-07
43
1e-07
40
0
40
0
40
0
40
0
40
1
40
1
40
1
40
1
10
20.75970613
20
58.38009772
30
0
10
20.96652451
20
57.97132879
30
0
10
21.13277539
20
57.84087964
30
0
10
21.79555006
20
57.57285388
30
0
0
SPLINE
5
D2
100
AcDbEntity
8
sakuya
6
ByLayer
62
7
370
-1
100
AcDbSpline
210
0
220
0
230
1
70
8
71
3
72
8
73
4
74
0
42
1e-07
43
1e-07
40
0
40
0
40
0
40
0
40
1
40
1
40
1
40
1
10
21.79555006
20
57.57285388
30
0
10
22.01970001
20
57.48220867
30
0
10
22.20274381
20
57.36925201
30
0
10
22.20274381
20
57.32282254
30
0
0
SPLINE
5
D3
100
AcDbEntity
8
sakuya
6
ByLayer
62
7
370
-1
100
AcDbSpline
210
0
220
0
230
1
70
8
71
3
72
8
73
4
74
0
42
1e-07
43
1e-07
40
0
40
0
40
0
40
0
40
1
40
1
40
1
40
1
10
22.20274381
20
57.32282254
30
0
10
22.20274381
20
57.20826964
30
0
10
21.57058471
20
55.84998253
30
0
10
21.49551256
20
55.80358519
30
0
0
SPLINE
5
D4
100
AcDbEntity
8
sakuya
6
ByLayer
62
7
370
-1
100
AcDbSpline
210
0
220
0
230
1
70
8
71
3
72
8
73
4
74
0
42
1e-07
43
1e-07
40
0
40
0
40
0
40
0
40
1
40
1
40
1
40
1
10
21.49551256
20
55.80358519
30
0
10
21.4626001
20
55.7832442
30
0
10
21.3867004
20
55.63999057
30
0
10
21.32882509
20
55.48449757
30
0
0
SPLINE
5
D5
100
AcDbEntity
8
sakuya
6
ByLayer
62
7
370
-1
100
AcDbSpline
210
0
220
0
230
1
70
8
71
3
72
8
73
4
74
0
42
1e-07
43
1e-07
40
0
40
0
40
0
40
0
40
1
40
1
40
1
40
1
10
21.32882509
20
55.48449757
30
0
10
20.86067668
20
54.22672903
30
0
10
20.65011934
20
53.58638542
30
0
10
20.60730625
20
53.30089147
30
0
0
SPLINE
5
D6
100
AcDbEntity
8
sakuya
6
ByLayer
62
7
370
-1
100
AcDbSpline
210
0
220
0
230
1
70
8
71
3
72
8
73
4
74
0
42
1e-07
43
1e-07
40
0
40
0
40
0
40
0
40
1
40
1
40
1
40
1
10
20.60730625
20
53.30089147
30
0
10
20.57978056
20
53.11733332
30
0
10
20.52994423
20
52.96751626
30
0
10
20.49538747
20
52.96751626
30
0
0
SPLINE
5
D7
100
AcDbEntity
8
sakuya
6
ByLayer
62
7
370
-1
100
AcDbSpline
210
0
220
0
230
1
70
8
71
3
72
8
73
4
74
0
42
1e-07
43
1e-07
40
0
40
0
40
0
40
0
40
1
40
1
40
1
40
1
10
20.49538747
20
52.96751626
30
0
10
20.46083071
20
52.96751626
30
0
10
20.43109372
20
52.79377747
30
0
10
20.43109372
20
52.57937263
30
0
0
SPLINE
5
D8
100
AcDbEntity
8
sakuya
6
ByLayer
62
7
370
-1
100
AcDbSpline
210
0
220
0
230
1
70
8
71
3
72
8
73
4
74
0
42
1e-07
43
1e-07
40
0
40
0
40
0
40
0
40
1
40
1
40
1
40
1
10
20.43109372
20
52.57937263
30
0
10
20.43109372
20
52.36496806
30
0
10
20.4635488
20
52.1888476
30
0
10
20.50253113
20
52.1888476
30
0
0
SPLINE
5
D9
100
AcDbEntity
8
sakuya
6
ByLayer
62
7
370
-1
100
AcDbSpline
210
0
220
0
230
1
70
8
71
3
72
8
73
4
74
0
42
1e-07
43
1e-07
40
0
40
0
40
0
40
0
40
1
40
1
40
1
40
1
10
20.50253113
20
52.1888476
30
0
10
20.54151454
20
52.1888476
30
0
10
20.57396881
20
52.13535223
30
0
10
20.57396881
20
52.06978516
30
0
0
SPLINE
5
DA
100
AcDbEntity
8
sakuya
6
ByLayer
62
7
370
-1
100
AcDbSpline
210
0
220
0
230
1
70
8
71
3
72
8
73
4
74
0
42
1e-07
43
1e-07
40
0
40
0
40
0
40
0
40
1
40
1
40
1
40
1
10
20.57396881
20
52.06978516
30
0
10
20.57396881
20
51.85776334
30
0
10
21.08145541
20
49.75541806
30
0
10
21.22643137
20
49.36706626
30
0
0
SPLINE
5
DB
100
AcDbEntity
8
sakuya
6
ByLayer
62
7
370
-1
100
AcDbSpline
210
0
220
0
230
1
70
8
71
3
72
8
73
4
74
0
42
1e-07
43
1e-07
40
0
40
0
40
0
40
0
40
1
40
1
40
1
40
1
10
21.22643137
20
49.36706626
30
0
10
21.38193409
20
48.95051674
30
0
10
22.03471822
20
48.23641615
30
0
10
22.41229378
20
48.06928507
30
0
0
SPLINE
5
DC
100
AcDbEntity
8
sakuya
6
ByLayer
62
7
370
-1
100
AcDbSpline
210
0
220
0
230
1
70
8
71
3
72
8
73
4
74
0
42
1e-07
43
1e-07
40
0
40
0
40
0
40
0
40
1
40
1
40
1
40
1
10
22.41229378
20
48.06928507
30
0
10
22.53167401
20
48.01644202
30
0
10
22.62898741
20
47.9464996
30
0
10
22.62898741
20
47.91450379
30
0
0
SPLINE
5
DD
100
AcDbEntity
8
sakuya
6
ByLayer
62
7
370
-1
100
AcDbSpline
210
0
220
0
230
1
70
8
71
3
72
8
73
4
74
0
42
1e-07
43
1e-07
40
0
40
0
40
0
40
0
40
1
40
1
40
1
40
1
10
22.62898741
20
47.91450379
30
0
10
22.62898741
20
47.85391201
30
0
10
23.76699637
20
47.29776007
30
0
10
23.89105003
20
47.29776007
30
0
0
SPLINE
5
DE
100
AcDbEntity
8
sakuya
6
ByLayer
62
7
370
-1
100
AcDbSpline
210
0
220
0
230
1
70
8
71
3
72
8
73
4
74
0
42
1e-07
43
1e-07
40
0
40
0
40
0
40
0
40
1
40
1
40
1
40
1
10
23.89105003
20
47.29776007
30
0
10
23.92999591
20
47.29776007
30
0
10
24.06381817
20
47.17962643
30
0
10
24.18870613
20
47.03344141
30
0
0
SPLINE
5
DF
100
AcDbEntity
8
sakuya
6
ByLayer
62
7
370
-1
100
AcDbSpline
210
0
220
0
230
1
70
8
71
3
72
8
73
4
74
0
42
1e-07
43
1e-07
40
0
40
0
40
0
40
0
40
1
40
1
40
1
40
1
10
24.18870613
20
47.03344141
30
0
10
24.41527312
20
46.76823715
30
0
10
24.58150807
20
46.63230403
30
0
10
25.17692503
20
46.2333415
30
0
0
SPLINE
5
E0
100
AcDbEntity
8
sakuya
6
ByLayer
62
7
370
-1
100
AcDbSpline
210
0
220
0
230
1
70
8
71
3
72
8
73
4
74
0
42
1e-07
43
1e-07
40
0
40
0
40
0
40
0
40
1
40
1
40
1
40
1
10
25.17692503
20
46.2333415
30
0
10
25.56525091
20
45.97313818
30
0
10
25.76830333
20
45.94500661
30
0
10
25.56030613
20
46.18095394
30
0
0
SPLINE
5
E1
100
AcDbEntity
8
sakuya
6
ByLayer
62
7
370
-1
100
AcDbSpline
210
0
220
0
230
1
70
8
71
3
72
8
73
4
74
0
42
1e-07
43
1e-07
40
0
40
0
40
0
40
0
40
1
40
1
40
1
40
1
10
25.56030613
20
46.18095394
30
0
10
25.28395087
20
46.49444365
30
0
10
25.19293927
20
46.94295388
30
0
10
25.40552512
20
46.94295388
30
0
0
SPLINE
5
E2
100
AcDbEntity
8
sakuya
6
ByLayer
62
7
370
-1
100
AcDbSpline
210
0
220
0
230
1
70
8
71
3
72
8
73
4
74
0
42
1e-07
43
1e-07
40
0
40
0
40
0
40
0
40
1
40
1
40
1
40
1
10
25.40552512
20
46.94295388
30
0
10
25.44312127
20
46.94295388
30
0
10
25.42392049
20
46.99361398
30
0
10
25.36266262
20
47.05487266
30
0
0
SPLINE
5
E3
100
AcDbEntity
8
sakuya
6
ByLayer
62
7
370
-1
100
AcDbSpline
210
0
220
0
230
1
70
8
71
3
72
8
73
4
74
0
42
1e-07
43
1e-07
40
0
40
0
40
0
40
0
40
1
40
1
40
1
40
1
10
25.36266262
20
47.05487266
30
0
10
25.29504571
20
47.12248876
30
0
10
25.25283931
20
47.28226855
30
0
10
25.25550637
20
47.46206641
30
0
0
LWPOLYLINE
5
E4
100
AcDbEntity
8
sakuya
6
ByLayer
62
7
370
-1
100
AcDbPolyline
90
3
70
0
43
0
10
43.045825
20
42.78052885
10
43.21965613
20
42.23046001
10
43.24108738
20
42.61860391
0
SPLINE
5
E5
100
AcDbEntity
8
sakuya
6
ByLayer
62
7
370
-1
100
AcDbSpline
210
0
220
0
230
1
70
8
71
3
72
8
73
4
74
0
42
1e-07
43
1e-07
40
0
40
0
40
0
40
0
40
1
40
1
40
1
40
1
10
25.41504991
20
47.44063516
30
0
10
25.50034291
20
47.26521292
30
0
10
25.59142795
20
47.10563779
30
0
10
25.61745622
20
47.08582897
30
0
0
SPLINE
5
E6
100
AcDbEntity
8
sakuya
6
ByLayer
62
7
370
-1
100
AcDbSpline
210
0
220
0
230
1
70
8
71
3
72
8
73
4
74
0
42
1e-07
43
1e-07
40
0
40
0
40
0
40
0
40
1
40
1
40
1
40
1
10
25.61745622
20
47.08582897
30
0
10
25.75092829
20
46.98424984
30
0
10
26.10924637
20
45.69306286
30
0
10
26.31754381
20
44.5593226
30
0
0
SPLINE
5
E7
100
AcDbEntity
8
sakuya
6
ByLayer
62
7
370
-1
100
AcDbSpline
210
0
220
0
230
1
70
8
71
3
72
8
73
4
74
0
42
1e-07
43
1e-07
40
0
40
0
40
0
40
0
40
1
40
1
40
1
40
1
10
26.31754381
20
44.5593226
30
0
10
26.60466991
20
42.99652777
30
0
10
26.5672741
20
41.72307169
30
0
10
26.21038756
20
40.8302851
30
0
0
SPLINE
5
E8
100
AcDbEntity
8
sakuya
6
ByLayer
62
7
370
-1
100
AcDbSpline
210
0
220
0
230
1
70
8
71
3
72
8
73
4
74
0
42
1e-07
43
1e-07
40
0
40
0
40
0
40
0
40
1
40
1
40
1
40
1
10
26.21038756
20
40.8302851
30
0
10
26.04418609
20
40.41451669
30
0
10
26.08004209
20
40.33003666
30
0
10
26.34135619
20
40.52786647
30
0
0
SPLINE
5
E9
100
AcDbEntity
8
sakuya
6
ByLayer
62
7
370
-1
100
AcDbSpline
210
0
220
0
230
1
70
8
71
3
72
8
73
4
74
0
42
1e-07
43
1e-07
40
0
40
0
40
0
40
0
40
1
40
1
40
1
40
1
10
26.34135619
20
40.52786647
30
0
10
26.4149806
20
40.58360527
30
0
10
26.51234611
20
40.69075909
30
0
10
26.55566869
20
40.76361022
30
0
0
SPLINE
5
EA
100
AcDbEntity
8
sakuya
6
ByLayer
62
7
370
-1
100
AcDbSpline
210
0
220
0
230
1
70
8
71
3
72
8
73
4
74
0
42
1e-07
43
1e-07
40
0
40
0
40
0
40
0
40
1
40
1
40
1
40
1
10
26.55566869
20
40.76361022
30
0
10
26.59899235
20
40.83646027
30
0
10
26.7062377
20
41.00416294
30
0
10
26.79379384
20
41.13746626
30
0
0
SPLINE
5
EB
100
AcDbEntity
8
sakuya
6
ByLayer
62
7
370
-1
100
AcDbSpline
210
0
220
0
230
1
70
8
71
3
72
8
73
4
74
0
42
1e-07
43
1e-07
40
0
40
0
40
0
40
0
40
1
40
1
40
1
40
1
10
26.79379384
20
41.13746626
30
0
10
26.88135052
20
41.27076985
30
0
10
26.9628403
20
41.41280902
30
0
10
26.97715003
20
41.45179135
30
0
0
SPLINE
5
EC
100
AcDbEntity
8
sakuya
6
ByLayer
62
7
370
-1
100
AcDbSpline
210
0
220
0
230
1
70
8
71
3
72
8
73
4
74
0
42
1e-07
43
1e-07
40
0
40
0
40
0
40
0
40
1
40
1
40
1
40
1
10
26.97715003
20
41.45179135
30
0
10
27.04685863
20
41.64170071
30
0
10
27.12226153
20
41.33433973
30
0
10
27.22003744
20
40.45642879
30
0
0
SPLINE
5
ED
100
AcDbEntity
8
sakuya
6
ByLayer
62
7
370
-1
100
AcDbSpline
210
0
220
0
230
1
70
8
71
3
72
8
73
4
74
0
42
1e-07
43
1e-07
40
0
40
0
40
0
40
0
40
1
40
1
40
1
40
1
10
27.22003744
20
40.45642879
30
0
10
27.34344175
20
39.34841305
30
0
10
27.3472663
20
39.36966988
30
0
10
26.78426878
20
38.78241016
30
0
0
SPLINE
5
EE
100
AcDbEntity
8
sakuya
6
ByLayer
62
7
370
-1
100
AcDbSpline
210
0
220
0
230
1
70
8
71
3
72
8
73
4
74
0
42
1e-07
43
1e-07
40
0
40
0
40
0
40
0
40
1
40
1
40
1
40
1
10
26.78426878
20
38.78241016
30
0
10
26.41542799
20
38.39767339
30
0
10
25.9754125
20
37.75365292
30
0
10
25.7722375
20
37.30365391
30
0
0
SPLINE
5
EF
100
AcDbEntity
8
sakuya
6
ByLayer
62
7
370
-1
100
AcDbSpline
210
0
220
0
230
1
70
8
71
3
72
8
73
4
74
0
42
1e-07
43
1e-07
40
0
40
0
40
0
40
0
40
1
40
1
40
1
40
1
10
25.7722375
20
37.30365391
30
0
10
25.71063511
20
37.16721481
30
0
10
25.63105261
20
37.03757809
30
0
10
25.59602497
20
37.0155226
30
0
0
SPLINE
5
F0
100
AcDbEntity
8
sakuya
6
ByLayer
62
7
370
-1
100
AcDbSpline
210
0
220
0
230
1
70
8
71
3
72
8
73
4
74
0
42
1e-07
43
1e-07
40
0
40
0
40
0
40
0
40
1
40
1
40
1
40
1
10
25.59602497
20
37.0155226
30
0
10
25.47681781
20
36.9404626
30
0
10
25.26332368
20
36.20827201
30
0
10
25.215025
20
35.71059775
30
0
0
SPLINE
5
F1
100
AcDbEntity
8
sakuya
6
ByLayer
62
7
370
-1
100
AcDbSpline
210
0
220
0
230
1
70
8
71
3
72
8
73
4
74
0
42
1e-07
43
1e-07
40
0
40
0
40
0
40
0
40
1
40
1
40
1
40
1
10
25.215025
20
35.71059775
30
0
10
25.14736705
20
35.01344695
30
0
10
25.333231
20
34.11461371
30
0
10
25.62459988
20
33.72463516
30
0
0
SPLINE
5
F2
100
AcDbEntity
8
sakuya
6
ByLayer
62
7
370
-1
100
AcDbSpline
210
0
220
0
230
1
70
8
71
3
72
8
73
4
74
0
42
1e-07
43
1e-07
40
0
40
0
40
0
40
0
40
1
40
1
40
1
40
1
10
25.62459988
20
33.72463516
30
0
10
26.24663209
20
32.89208692
30
0
10
26.22089407
20
32.95401763
30
0
10
26.26753738
20
32.18158516
30
0
0
SPLINE
5
F3
100
AcDbEntity
8
sakuya
6
ByLayer
62
7
370
-1
100
AcDbSpline
210
0
220
0
230
1
70
8
71
3
72
8
73
4
74
0
42
1e-07
43
1e-07
40
0
40
0
40
0
40
0
40
1
40
1
40
1
40
1
10
26.26753738
20
32.18158516
30
0
10
26.31299701
20
31.4287717
30
0
10
26.50320283
20
30.27874072
30
0
10
26.59376866
20
30.21705382
30
0
0
SPLINE
5
F4
100
AcDbEntity
8
sakuya
6
ByLayer
62
7
370
-1
100
AcDbSpline
210
0
220
0
230
1
70
8
71
3
72
8
73
4
74
0
42
1e-07
43
1e-07
40
0
40
0
40
0
40
0
40
1
40
1
40
1
40
1
10
26.59376866
20
30.21705382
30
0
10
26.62238488
20
30.19756279
30
0
10
26.71483909
20
29.92645822
30
0
10
26.79855637
20
29.61459769
30
0
0
SPLINE
5
F5
100
AcDbEntity
8
sakuya
6
ByLayer
62
7
370
-1
100
AcDbSpline
210
0
220
0
230
1
70
8
71
3
72
8
73
4
74
0
42
1e-07
43
1e-07
40
0
40
0
40
0
40
0
40
1
40
1
40
1
40
1
10
26.79855637
20
29.61459769
30
0
10
26.88227338
20
29.30273608
30
0
10
27.04920628
20
28.77675664
30
0
10
27.17003128
20
28.445404
30
0
0
SPLINE
5
F6
100
AcDbEntity
8
sakuya
6
ByLayer
62
7
370
-1
100
AcDbSpline
210
0
220
0
230
1
70
8
71
3
72
8
73
4
74
0
42
1e-07
43
1e-07
40
0
40
0
40
0
40
0
40
1
40
1
40
1
40
1
10
27.17003128
20
28.445404
30
0
10
27.2908579
20
28.11405136
30
0
10
27.42265624
20
27.72243202
30
0
10
27.46292512
20
27.57624754
30
0
0
SPLINE
5
F7
100
AcDbEntity
8
sakuya
6
ByLayer
62
7
370
-1
100
AcDbSpline
210
0
220
0
230
1
70
8
71
3
72
8
73
4
74
0
42
1e-07
43
1e-07
40
0
40
0
40
0
40
0
40
1
40
1
40
1
40
1
10
27.46292512
20
27.57624754
30
0
10
27.50319292
20
27.43006252
30
0
10
27.5591731
20
27.30954775
30
0
10
27.58675009
20
27.30954775
30
0
0
SPLINE
5
F8
100
AcDbEntity
8
sakuya
6
ByLayer
62
7
370
-1
100
AcDbSpline
210
0
220
0
230
1
70
8
71
3
72
8
73
4
74
0
42
1e-07
43
1e-07
40
0
40
0
40
0
40
0
40
1
40
1
40
1
40
1
10
27.58675009
20
27.30954775
30
0
10
27.64077358
20
27.30954775
30
0
10
27.79989592
20
26.96714455
30
0
10
28.15824991
20
26.07129751
30
0
0
SPLINE
5
F9
100
AcDbEntity
8
sakuya
6
ByLayer
62
7
370
-1
100
AcDbSpline
210
0
220
0
230
1
70
8
71
3
72
8
73
4
74
0
42
1e-07
43
1e-07
40
0
40
0
40
0
40
0
40
1
40
1
40
1
40
1
10
28.15824991
20
26.07129751
30
0
10
28.57243882
20
25.03586695
30
0
10
28.61428477
20
24.93541615
30
0
10
28.65593119
20
24.89972269
30
0
0
SPLINE
5
FA
100
AcDbEntity
8
sakuya
6
ByLayer
62
7
370
-1
100
AcDbSpline
210
0
220
0
230
1
70
8
71
3
72
8
73
4
74
0
42
1e-07
43
1e-07
40
0
40
0
40
0
40
0
40
1
40
1
40
1
40
1
10
28.65593119
20
24.89972269
30
0
10
28.77696436
20
24.79599004
30
0
10
29.34541615
20
22.92362887
30
0
10
29.51556259
20
22.06603516
30
0
0
SPLINE
5
FB
100
AcDbEntity
8
sakuya
6
ByLayer
62
7
370
-1
100
AcDbSpline
210
0
220
0
230
1
70
8
71
3
72
8
73
4
74
0
42
1e-07
43
1e-07
40
0
40
0
40
0
40
0
40
1
40
1
40
1
40
1
10
29.51556259
20
22.06603516
30
0
10
29.5658347
20
21.81264799
30
0
10
29.62358662
20
21.58784518
30
0
10
29.64653122
20
21.56835388
30
0
0
SPLINE
5
FC
100
AcDbEntity
8
sakuya
6
ByLayer
62
7
370
-1
100
AcDbSpline
210
0
220
0
230
1
70
8
71
3
72
8
73
4
74
0
42
1e-07
43
1e-07
40
0
40
0
40
0
40
0
40
1
40
1
40
1
40
1
10
29.64653122
20
21.56835388
30
0
10
29.7584095
20
21.47331496
30
0
10
30.08528851
20
18.65026948
30
0
10
29.99419375
20
18.56559775
30
0
0
SPLINE
5
FD
100
AcDbEntity
8
sakuya
6
ByLayer
62
7
370
-1
100
AcDbSpline
210
0
220
0
230
1
70
8
71
3
72
8
73
4
74
0
42
1e-07
43
1e-07
40
0
40
0
40
0
40
0
40
1
40
1
40
1
40
1
10
29.99419375
20
18.56559775
30
0
10
29.95128697
20
18.52571605
30
0
10
28.34133124
20
18.88983103
30
0
10
28.29874387
20
18.94897885
30
0
0
SPLINE
5
FE
100
AcDbEntity
8
sakuya
6
ByLayer
62
7
370
-1
100
AcDbSpline
210
0
220
0
230
1
70
8
71
3
72
8
73
4
74
0
42
1e-07
43
1e-07
40
0
40
0
40
0
40
0
40
1
40
1
40
1
40
1
10
28.29874387
20
18.94897885
30
0
10
28.26239701
20
18.99945913
30
0
10
26.76708328
20
19.25331259
30
0
10
25.81748113
20
19.37046019
30
0
0
SPLINE
5
FF
100
AcDbEntity
8
sakuya
6
ByLayer
62
7
370
-1
100
AcDbSpline
210
0
220
0
230
1
70
8
71
3
72
8
73
4
74
0
42
1e-07
43
1e-07
40
0
40
0
40
0
40
0
40
1
40
1
40
1
40
1
10
25.81748113
20
19.37046019
30
0
10
24.59978923
20
19.52068225
30
0
10
22.4734153
20
19.59870739
30
0
10
20.928775
20
19.55143525
30
0
0
SPLINE
5
100
100
AcDbEntity
8
sakuya
6
ByLayer
62
7
370
-1
100
AcDbSpline
210
0
220
0
230
1
70
8
71
3
72
8
73
4
74
0
42
1e-07
43
1e-07
40
0
40
0
40
0
40
0
40
1
40
1
40
1
40
1
10
20.928775
20
19.55143525
30
0
10
20.0518852
20
19.52459914
30
0
10
19.32150199
20
19.49197477
30
0
10
19.30714366
20
19.47761644
30
0
0
SPLINE
5
101
100
AcDbEntity
8
sakuya
6
ByLayer
62
7
370
-1
100
AcDbSpline
210
0
220
0
230
1
70
8
71
3
72
8
73
4
74
0
42
1e-07
43
1e-07
40
0
40
0
40
0
40
0
40
1
40
1
40
1
40
1
10
19.30714366
20
19.47761644
30
0
10
19.25753683
20
19.42801015
30
0
10
19.45308649
20
18.73466635
30
0
10
19.51669363
20
18.73466635
30
0
0
SPLINE
5
102
100
AcDbEntity
8
sakuya
6
ByLayer
62
7
370
-1
100
AcDbSpline
210
0
220
0
230
1
70
8
71
3
72
8
73
4
74
0
42
1e-07
43
1e-07
40
0
40
0
40
0
40
0
40
1
40
1
40
1
40
1
10
19.51669363
20
18.73466635
30
0
10
19.5517885
20
18.73466635
30
0
10
19.58098738
20
18.67542403
30
0
10
19.58098738
20
18.60369772
30
0
0
SPLINE
5
103
100
AcDbEntity
8
sakuya
6
ByLayer
62
7
370
-1
100
AcDbSpline
210
0
220
0
230
1
70
8
71
3
72
8
73
4
74
0
42
1e-07
43
1e-07
40
0
40
0
40
0
40
0
40
1
40
1
40
1
40
1
10
19.58098738
20
18.60369772
30
0
10
19.58098738
20
18.33345823
30
0
10
20.33763457
20
16.39368508
30
0
10
20.49776887
20
16.25340388
30
0
0
SPLINE
5
104
100
AcDbEntity
8
sakuya
6
ByLayer
62
7
370
-1
100
AcDbSpline
210
0
220
0
230
1
70
8
71
3
72
8
73
4
74
0
42
1e-07
43
1e-07
40
0
40
0
40
0
40
0
40
1
40
1
40
1
40
1
10
20.49776887
20
16.25340388
30
0
10
20.55820594
20
16.20045931
30
0
10
21.02108827
20
15.46683772
30
0
10
21.13356244
20
15.24613513
30
0
0
SPLINE
5
105
100
AcDbEntity
8
sakuya
6
ByLayer
62
7
370
-1
100
AcDbSpline
210
0
220
0
230
1
70
8
71
3
72
8
73
4
74
0
42
1e-07
43
1e-07
40
0
40
0
40
0
40
0
40
1
40
1
40
1
40
1
10
21.13356244
20
15.24613513
30
0
10
21.18744877
20
15.14039692
30
0
10
21.31721293
20
14.96427673
30
0
10
21.42169375
20
14.8556101
30
0
0
SPLINE
5
106
100
AcDbEntity
8
sakuya
6
ByLayer
62
7
370
-1
100
AcDbSpline
210
0
220
0
230
1
70
8
71
3
72
8
73
4
74
0
42
1e-07
43
1e-07
40
0
40
0
40
0
40
0
40
1
40
1
40
1
40
1
10
21.42169375
20
14.8556101
30
0
10
21.52617457
20
14.74694374
30
0
10
21.80953039
20
14.35678888
30
0
10
22.05034366
20
13.98645391
30
0
0
SPLINE
5
107
100
AcDbEntity
8
sakuya
6
ByLayer
62
7
370
-1
100
AcDbSpline
210
0
220
0
230
1
70
8
71
3
72
8
73
4
74
0
42
1e-07
43
1e-07
40
0
40
0
40
0
40
0
40
1
40
1
40
1
40
1
10
22.05034366
20
13.98645391
30
0
10
22.29115639
20
13.61611894
30
0
10
22.55195155
20
13.23142321
30
0
10
22.62898741
20
13.13396644
30
0
0
SPLINE
5
108
100
AcDbEntity
8
sakuya
6
ByLayer
62
7
370
-1
100
AcDbSpline
210
0
220
0
230
1
70
8
71
3
72
8
73
4
74
0
42
1e-07
43
1e-07
40
0
40
0
40
0
40
0
40
1
40
1
40
1
40
1
10
22.62898741
20
13.13396644
30
0
10
22.7964676
20
12.92209231
30
0
10
23.38342681
20
11.73205786
30
0
10
23.44813744
20
11.47423513
30
0
0
SPLINE
5
109
100
AcDbEntity
8
sakuya
6
ByLayer
62
7
370
-1
100
AcDbSpline
210
0
220
0
230
1
70
8
71
3
72
8
73
4
74
0
42
1e-07
43
1e-07
40
0
40
0
40
0
40
0
40
1
40
1
40
1
40
1
10
23.44813744
20
11.47423513
30
0
10
23.47326904
20
11.37410077
30
0
10
23.51948656
20
11.29326007
30
0
10
23.54815003
20
11.29326007
30
0
0
SPLINE
5
10A
100
AcDbEntity
8
sakuya
6
ByLayer
62
7
370
-1
100
AcDbSpline
210
0
220
0
230
1
70
8
71
3
72
8
73
4
74
0
42
1e-07
43
1e-07
40
0
40
0
40
0
40
0
40
1
40
1
40
1
40
1
10
23.54815003
20
11.29326007
30
0
10
23.57681404
20
11.29326007
30
0
10
23.67432427
20
11.06845861
30
0
10
23.76722506
20
10.79557879
30
0
0
LWPOLYLINE
5
10B
100
AcDbEntity
8
sakuya
6
ByLayer
62
7
370
-1
100
AcDbPolyline
90
3
70
0
43
0
10
25.25550637
20
47.46206641
10
25.26026863
20
47.75972251
10
25.41504991
20
47.44063516
0
SPLINE
5
10C
100
AcDbEntity
8
sakuya
6
ByLayer
62
7
370
-1
100
AcDbSpline
210
0
220
0
230
1
70
8
71
3
72
8
73
4
74
0
42
1e-07
43
1e-07
40
0
40
0
40
0
40
0
40
1
40
1
40
1
40
1
10
46.21050634
20
10.58841022
30
0
10
46.1753383
20
10.85060668
30
0
10
46.18848838
20
10.88067523
30
0
10
46.36052509
20
10.94559754
30
0
0
SPLINE
5
10D
100
AcDbEntity
8
sakuya
6
ByLayer
62
7
370
-1
100
AcDbSpline
210
0
220
0
230
1
70
8
71
3
72
8
73
4
74
0
42
1e-07
43
1e-07
40
0
40
0
40
0
40
0
40
1
40
1
40
1
40
1
10
46.36052509
20
10.94559754
30
0
10
46.70286943
20
11.07480226
30
0
10
47.15348134
20
11.31736594
30
0
10
47.15348134
20
11.37184141
30
0
0
SPLINE
5
10E
100
AcDbEntity
8
sakuya
6
ByLayer
62
7
370
-1
100
AcDbSpline
210
0
220
0
230
1
70
8
71
3
72
8
73
4
74
0
42
1e-07
43
1e-07
40
0
40
0
40
0
40
0
40
1
40
1
40
1
40
1
10
47.15348134
20
11.37184141
30
0
10
47.15348134
20
11.40129274
30
0
10
47.2253143
20
11.44663546
30
0
10
47.31302488
20
11.47423513
30
0
0
SPLINE
5
10F
100
AcDbEntity
8
sakuya
6
ByLayer
62
7
370
-1
100
AcDbSpline
210
0
220
0
230
1
70
8
71
3
72
8
73
4
74
0
42
1e-07
43
1e-07
40
0
40
0
40
0
40
0
40
1
40
1
40
1
40
1
10
47.31302488
20
11.47423513
30
0
10
47.40073573
20
11.5018348
30
0
10
47.6529889
20
11.64764344
30
0
10
47.87499991
20
11.79808501
30
0
0
SPLINE
5
110
100
AcDbEntity
8
sakuya
6
ByLayer
62
7
370
-1
100
AcDbSpline
210
0
220
0
230
1
70
8
71
3
72
8
73
4
74
0
42
1e-07
43
1e-07
40
0
40
0
40
0
40
0
40
1
40
1
40
1
40
1
10
47.87499991
20
11.79808501
30
0
10
48.09701092
20
11.94853441
30
0
10
48.30053125
20
12.071929
30
0
10
48.32743756
20
12.071929
30
0
0
SPLINE
5
111
100
AcDbEntity
8
sakuya
6
ByLayer
62
7
370
-1
100
AcDbSpline
210
0
220
0
230
1
70
8
71
3
72
8
73
4
74
0
42
1e-07
43
1e-07
40
0
40
0
40
0
40
0
40
1
40
1
40
1
40
1
10
48.32743756
20
12.071929
30
0
10
48.35434306
20
12.071929
30
0
10
48.45676189
20
12.15998572
30
0
10
48.55365625
20
12.26719138
30
0
0
SPLINE
5
112
100
AcDbEntity
8
sakuya
6
ByLayer
62
7
370
-1
100
AcDbSpline
210
0
220
0
230
1
70
8
71
3
72
8
73
4
74
0
42
1e-07
43
1e-07
40
0
40
0
40
0
40
0
40
1
40
1
40
1
40
1
10
48.55365625
20
12.26719138
30
0
10
48.65055061
20
12.37438948
30
0
10
48.91740538
20
12.66067372
30
0
10
49.14658759
20
12.90298522
30
0
0
SPLINE
5
113
100
AcDbEntity
8
sakuya
6
ByLayer
62
7
370
-1
100
AcDbSpline
210
0
220
0
230
1
70
8
71
3
72
8
73
4
74
0
42
1e-07
43
1e-07
40
0
40
0
40
0
40
0
40
1
40
1
40
1
40
1
10
49.14658759
20
12.90298522
30
0
10
49.37577034
20
13.14529726
30
0
10
49.56330613
20
13.35798841
30
0
10
49.56330613
20
13.37685385
30
0
0
SPLINE
5
114
100
AcDbEntity
8
sakuya
6
ByLayer
62
7
370
-1
100
AcDbSpline
210
0
220
0
230
1
70
8
71
3
72
8
73
4
74
0
42
1e-07
43
1e-07
40
0
40
0
40
0
40
0
40
1
40
1
40
1
40
1
10
49.56330613
20
13.37685385
30
0
10
49.56330613
20
13.39571956
30
0
10
49.65987514
20
13.55481598
30
0
10
49.77761863
20
13.72927891
30
0
0
SPLINE
5
115
100
AcDbEntity
8
sakuya
6
ByLayer
62
7
370
-1
100
AcDbSpline
210
0
220
0
230
1
70
8
71
3
72
8
73
4
74
0
42
1e-07
43
1e-07
40
0
40
0
40
0
40
0
40
1
40
1
40
1
40
1
10
49.77761863
20
13.72927891
30
0
10
49.96066864
20
14.00050741
30
0
10
50.05643845
20
14.06770528
30
0
10
50.44913131
20
14.19838501
30
0
0
SPLINE
5
116
100
AcDbEntity
8
sakuya
6
ByLayer
62
7
370
-1
100
AcDbSpline
210
0
220
0
230
1
70
8
71
3
72
8
73
4
74
0
42
1e-07
43
1e-07
40
0
40
0
40
0
40
0
40
1
40
1
40
1
40
1
10
50.44913131
20
14.19838501
30
0
10
50.70172279
20
14.28244222
30
0
10
50.90871262
20
14.37753433
30
0
10
50.90871262
20
14.41031638
30
0
0
SPLINE
5
117
100
AcDbEntity
8
sakuya
6
ByLayer
62
7
370
-1
100
AcDbSpline
210
0
220
0
230
1
70
8
71
3
72
8
73
4
74
0
42
1e-07
43
1e-07
40
0
40
0
40
0
40
0
40
1
40
1
40
1
40
1
10
50.90871262
20
14.41031638
30
0
10
50.90871262
20
14.44309681
30
0
10
51.02922739
20
14.50996393
30
0
10
51.17541241
20
14.557954
30
0
0
SPLINE
5
118
100
AcDbEntity
8
sakuya
6
ByLayer
62
7
370
-1
100
AcDbSpline
210
0
220
0
230
1
70
8
71
3
72
8
73
4
74
0
42
1e-07
43
1e-07
40
0
40
0
40
0
40
0
40
1
40
1
40
1
40
1
10
51.17541241
20
14.557954
30
0
10
51.53377666
20
14.67559975
30
0
10
51.92348683
20
14.92776922
30
0
10
52.10648122
20
15.16041013
30
0
0
SPLINE
5
119
100
AcDbEntity
8
sakuya
6
ByLayer
62
7
370
-1
100
AcDbSpline
210
0
220
0
230
1
70
8
71
3
72
8
73
4
74
0
42
1e-07
43
1e-07
40
0
40
0
40
0
40
0
40
1
40
1
40
1
40
1
10
52.10648122
20
15.16041013
30
0
10
52.24352161
20
15.33462844
30
0
10
52.25649997
20
15.43990036
30
0
10
52.25649997
20
16.33198522
30
0
0
SPLINE
5
11A
100
AcDbEntity
8
sakuya
6
ByLayer
62
7
370
-1
100
AcDbSpline
210
0
220
0
230
1
70
8
71
3
72
8
73
4
74
0
42
1e-07
43
1e-07
40
0
40
0
40
0
40
0
40
1
40
1
40
1
40
1
10
52.25649997
20
16.33198522
30
0
10
52.25649997
20
17.03397523
30
0
10
52.22382619
20
17.40350128
30
0
10
52.14458119
20
17.63691007
30
0
0
SPLINE
5
11B
100
AcDbEntity
8
sakuya
6
ByLayer
62
7
370
-1
100
AcDbSpline
210
0
220
0
230
1
70
8
71
3
72
8
73
4
74
0
42
1e-07
43
1e-07
40
0
40
0
40
0
40
0
40
1
40
1
40
1
40
1
10
52.14458119
20
17.63691007
30
0
10
51.99231307
20
18.08540734
30
0
10
52.02848524
20
18.27954517
30
0
10
52.25649997
20
18.25127266
30
0
0
SPLINE
5
11C
100
AcDbEntity
8
sakuya
6
ByLayer
62
7
370
-1
100
AcDbSpline
210
0
220
0
230
1
70
8
71
3
72
8
73
4
74
0
42
1e-07
43
1e-07
40
0
40
0
40
0
40
0
40
1
40
1
40
1
40
1
10
52.25649997
20
18.25127266
30
0
10
52.35395593
20
18.23918719
30
0
10
52.57020703
20
18.21294859
30
0
10
52.73751253
20
18.19174144
30
0
0
SPLINE
5
11D
100
AcDbEntity
8
sakuya
6
ByLayer
62
7
370
-1
100
AcDbSpline
210
0
220
0
230
1
70
8
71
3
72
8
73
4
74
0
42
1e-07
43
1e-07
40
0
40
0
40
0
40
0
40
1
40
1
40
1
40
1
10
52.73751253
20
18.19174144
30
0
10
53.12719921
20
18.14234467
30
0
10
53.42564263
20
18.26136391
30
0
10
53.76145
20
18.60131632
30
0
0
SPLINE
5
11E
100
AcDbEntity
8
sakuya
6
ByLayer
62
7
370
-1
100
AcDbSpline
210
0
220
0
230
1
70
8
71
3
72
8
73
4
74
0
42
1e-07
43
1e-07
40
0
40
0
40
0
40
0
40
1
40
1
40
1
40
1
10
53.76145
20
18.60131632
30
0
10
53.97224278
20
18.81471217
30
0
10
54.02815006
20
18.92429086
30
0
10
54.02815006
20
19.13233504
30
0
0
SPLINE
5
11F
100
AcDbEntity
8
sakuya
6
ByLayer
62
7
370
-1
100
AcDbSpline
210
0
220
0
230
1
70
8
71
3
72
8
73
4
74
0
42
1e-07
43
1e-07
40
0
40
0
40
0
40
0
40
1
40
1
40
1
40
1
10
54.02815006
20
19.13233504
30
0
10
54.02815006
20
19.42089322
30
0
10
53.68263943
20
20.03388556
30
0
10
53.44950631
20
20.15865391
30
0
0
SPLINE
5
120
100
AcDbEntity
8
sakuya
6
ByLayer
62
7
370
-1
100
AcDbSpline
210
0
220
0
230
1
70
8
71
3
72
8
73
4
74
0
42
1e-07
43
1e-07
40
0
40
0
40
0
40
0
40
1
40
1
40
1
40
1
10
53.44950631
20
20.15865391
30
0
10
53.37516694
20
20.19843949
30
0
10
53.21994988
20
20.36084989
30
0
10
53.10422491
20
20.52060376
30
0
0
SPLINE
5
121
100
AcDbEntity
8
sakuya
6
ByLayer
62
7
370
-1
100
AcDbSpline
210
0
220
0
230
1
70
8
71
3
72
8
73
4
74
0
42
1e-07
43
1e-07
40
0
40
0
40
0
40
0
40
1
40
1
40
1
40
1
10
53.10422491
20
20.52060376
30
0
10
52.78537894
20
20.96075722
30
0
10
52.82512186
20
21.49474324
30
0
10
53.19947497
20
21.79219144
30
0
0
SPLINE
5
122
100
AcDbEntity
8
sakuya
6
ByLayer
62
7
370
-1
100
AcDbSpline
210
0
220
0
230
1
70
8
71
3
72
8
73
4
74
0
42
1e-07
43
1e-07
40
0
40
0
40
0
40
0
40
1
40
1
40
1
40
1
10
53.19947497
20
21.79219144
30
0
10
53.37348214
20
21.93045169
30
0
10
53.34658987
20
22.01503756
30
0
10
52.88038762
20
22.79231626
30
0
0
SPLINE
5
123
100
AcDbEntity
8
sakuya
6
ByLayer
62
7
370
-1
100
AcDbSpline
210
0
220
0
230
1
70
8
71
3
72
8
73
4
74
0
42
1e-07
43
1e-07
40
0
40
0
40
0
40
0
40
1
40
1
40
1
40
1
10
52.88038762
20
22.79231626
30
0
10
52.48144858
20
23.45744803
30
0
10
51.68695522
20
23.97664723
30
0
10
51.06825616
20
23.97817894
30
0
0
SPLINE
5
124
100
AcDbEntity
8
sakuya
6
ByLayer
62
7
370
-1
100
AcDbSpline
210
0
220
0
230
1
70
8
71
3
72
8
73
4
74
0
42
1e-07
43
1e-07
40
0
40
0
40
0
40
0
40
1
40
1
40
1
40
1
10
51.06825616
20
23.97817894
30
0
10
50.98054558
20
23.97839602
30
0
10
50.90871262
20
24.00546622
30
0
10
50.90871262
20
24.03771016
30
0
0
SPLINE
5
125
100
AcDbEntity
8
sakuya
6
ByLayer
62
7
370
-1
100
AcDbSpline
210
0
220
0
230
1
70
8
71
3
72
8
73
4
74
0
42
1e-07
43
1e-07
40
0
40
0
40
0
40
0
40
1
40
1
40
1
40
1
10
50.90871262
20
24.03771016
30
0
10
50.90871262
20
24.0699541
30
0
10
50.70944182
20
24.13313005
30
0
10
50.46580003
20
24.17820385
30
0
0
SPLINE
5
126
100
AcDbEntity
8
sakuya
6
ByLayer
62
7
370
-1
100
AcDbSpline
210
0
220
0
230
1
70
8
71
3
72
8
73
4
74
0
42
1e-07
43
1e-07
40
0
40
0
40
0
40
0
40
1
40
1
40
1
40
1
10
50.46580003
20
24.17820385
30
0
10
49.94369887
20
24.27479419
30
0
10
49.10918476
20
24.58445962
30
0
10
48.99180631
20
24.72589129
30
0
0
SPLINE
5
127
100
AcDbEntity
8
sakuya
6
ByLayer
62
7
370
-1
100
AcDbSpline
210
0
220
0
230
1
70
8
71
3
72
8
73
4
74
0
42
1e-07
43
1e-07
40
0
40
0
40
0
40
0
40
1
40
1
40
1
40
1
10
48.99180631
20
24.72589129
30
0
10
48.92837521
20
24.80232154
30
0
10
48.93729115
20
24.90381697
30
0
10
49.02752488
20
25.16404135
30
0
0
SPLINE
5
128
100
AcDbEntity
8
sakuya
6
ByLayer
62
7
370
-1
100
AcDbSpline
210
0
220
0
230
1
70
8
71
3
72
8
73
4
74
0
42
1e-07
43
1e-07
40
0
40
0
40
0
40
0
40
1
40
1
40
1
40
1
10
49.02752488
20
25.16404135
30
0
10
49.09206028
20
25.35015613
30
0
10
49.16409304
20
25.71642193
30
0
10
49.18706869
20
25.97842885
30
0
0
LWPOLYLINE
5
129
100
AcDbEntity
8
sakuya
6
ByLayer
62
7
370
-1
100
AcDbPolyline
90
5
70
0
43
0
10
23.76722506
20
10.79557879
10
23.93629366
20
10.30027891
10
35.09245012
20
10.30027891
10
46.25098744
20
10.30027891
10
46.21050634
20
10.58841022
0
SPLINE
5
12A
100
AcDbEntity
8
sakuya
6
ByLayer
62
7
370
-1
100
AcDbSpline
210
0
220
0
230
1
70
8
71
3
72
8
73
4
74
0
42
1e-07
43
1e-07
40
0
40
0
40
0
40
0
40
1
40
1
40
1
40
1
10
49.00609363
20
26.39276626
30
0
10
48.85612618
20
26.34975688
30
0
10
48.78225634
20
26.35163446
30
0
10
48.78225634
20
26.40229132
30
0
0
SPLINE
5
12B
100
AcDbEntity
8
sakuya
6
ByLayer
62
7
370
-1
100
AcDbSpline
210
0
220
0
230
1
70
8
71
3
72
8
73
4
74
0
42
1e-07
43
1e-07
40
0
40
0
40
0
40
0
40
1
40
1
40
1
40
1
10
48.78225634
20
26.40229132
30
0
10
48.78225634
20
26.48602615
30
0
10
49.35825436
20
27.60848338
30
0
10
49.42995637
20
27.66435394
30
0
0
SPLINE
5
12C
100
AcDbEntity
8
sakuya
6
ByLayer
62
7
370
-1
100
AcDbSpline
210
0
220
0
230
1
70
8
71
3
72
8
73
4
74
0
42
1e-07
43
1e-07
40
0
40
0
40
0
40
0
40
1
40
1
40
1
40
1
10
49.42995637
20
27.66435394
30
0
10
49.45497106
20
27.68384497
30
0
10
49.67241259
20
28.07811301
30
0
10
49.91096866
20
28.53827266
30
0
0
SPLINE
5
12D
100
AcDbEntity
8
sakuya
6
ByLayer
62
7
370
-1
100
AcDbSpline
210
0
220
0
230
1
70
8
71
3
72
8
73
4
74
0
42
1e-07
43
1e-07
40
0
40
0
40
0
40
0
40
1
40
1
40
1
40
1
10
49.91096866
20
28.53827266
30
0
10
50.149525
20
28.99843312
30
0
10
50.37448117
20
29.4108214
30
0
10
50.41341247
20
29.45743501
30
0
0
SPLINE
5
12E
100
AcDbEntity
8
sakuya
6
ByLayer
62
7
370
-1
100
AcDbSpline
210
0
220
0
230
1
70
8
71
3
72
8
73
4
74
0
42
1e-07
43
1e-07
40
0
40
0
40
0
40
0
40
1
40
1
40
1
40
1
10
50.41341247
20
29.45743501
30
0
10
50.45234458
20
29.5040497
30
0
10
50.67770926
20
29.92637992
30
0
10
50.91347488
20
30.39326635
30
0
0
SPLINE
5
12F
100
AcDbEntity
8
sakuya
6
ByLayer
62
7
370
-1
100
AcDbSpline
210
0
220
0
230
1
70
8
71
3
72
8
73
4
74
0
42
1e-07
43
1e-07
40
0
40
0
40
0
40
0
40
1
40
1
40
1
40
1
10
50.91347488
20
30.39326635
30
0
10
51.14923996
20
30.86015224
30
0
10
51.36699145
20
31.25869411
30
0
10
51.39686884
20
31.27909126
30
0
0
SPLINE
5
130
100
AcDbEntity
8
sakuya
6
ByLayer
62
7
370
-1
100
AcDbSpline
210
0
220
0
230
1
70
8
71
3
72
8
73
4
74
0
42
1e-07
43
1e-07
40
0
40
0
40
0
40
0
40
1
40
1
40
1
40
1
10
51.39686884
20
31.27909126
30
0
10
51.42674596
20
31.29948868
30
0
10
51.66621895
20
31.75273012
30
0
10
51.93026869
20
32.28874141
30
0
0
SPLINE
5
131
100
AcDbEntity
8
sakuya
6
ByLayer
62
7
370
-1
100
AcDbSpline
210
0
220
0
230
1
70
8
71
3
72
8
73
4
74
0
42
1e-07
43
1e-07
40
0
40
0
40
0
40
0
40
1
40
1
40
1
40
1
10
51.93026869
20
32.28874141
30
0
10
52.19431762
20
32.8247527
30
0
10
52.43561122
20
33.26505385
30
0
10
52.46604994
20
33.26505385
30
0
0
SPLINE
5
132
100
AcDbEntity
8
sakuya
6
ByLayer
62
7
370
-1
100
AcDbSpline
210
0
220
0
230
1
70
8
71
3
72
8
73
4
74
0
42
1e-07
43
1e-07
40
0
40
0
40
0
40
0
40
1
40
1
40
1
40
1
10
52.46604994
20
33.26505385
30
0
10
52.49648974
20
33.26505385
30
0
10
52.56305176
20
33.36696076
30
0
10
52.61368756
20
33.49365394
30
0
0
SPLINE
5
133
100
AcDbEntity
8
sakuya
6
ByLayer
62
7
370
-1
100
AcDbSpline
210
0
220
0
230
1
70
8
71
3
72
8
73
4
74
0
42
1e-07
43
1e-07
40
0
40
0
40
0
40
0
40
1
40
1
40
1
40
1
10
52.61368756
20
33.49365394
30
0
10
52.66432228
20
33.62034793
30
0
10
52.82901121
20
33.94378795
30
0
10
52.97801881
20
34.21041025
30
0
0
SPLINE
5
134
100
AcDbEntity
8
sakuya
6
ByLayer
62
7
370
-1
100
AcDbSpline
210
0
220
0
230
1
70
8
71
3
72
8
73
4
74
0
42
1e-07
43
1e-07
40
0
40
0
40
0
40
0
40
1
40
1
40
1
40
1
10
52.97801881
20
34.21041025
30
0
10
53.12702641
20
34.4770339
30
0
10
53.24941039
20
34.73191012
30
0
10
53.24948113
20
34.77714754
30
0
0
SPLINE
5
135
100
AcDbEntity
8
sakuya
6
ByLayer
62
7
370
-1
100
AcDbSpline
210
0
220
0
230
1
70
8
71
3
72
8
73
4
74
0
42
1e-07
43
1e-07
40
0
40
0
40
0
40
0
40
1
40
1
40
1
40
1
10
53.24948113
20
34.77714754
30
0
10
53.24957266
20
34.82238604
30
0
10
53.33760967
20
34.96334305
30
0
10
53.44712491
20
35.09147263
30
0
0
SPLINE
5
136
100
AcDbEntity
8
sakuya
6
ByLayer
62
7
370
-1
100
AcDbSpline
210
0
220
0
230
1
70
8
71
3
72
8
73
4
74
0
42
1e-07
43
1e-07
40
0
40
0
40
0
40
0
40
1
40
1
40
1
40
1
10
53.44712491
20
35.09147263
30
0
10
53.64610519
20
35.324275
30
0
10
53.64755914
20
35.32384543
30
0
10
53.77811872
20
35.17957876
30
0
0
SPLINE
5
137
100
AcDbEntity
8
sakuya
6
ByLayer
62
7
370
-1
100
AcDbSpline
210
0
220
0
230
1
70
8
71
3
72
8
73
4
74
0
42
1e-07
43
1e-07
40
0
40
0
40
0
40
0
40
1
40
1
40
1
40
1
10
53.77811872
20
35.17957876
30
0
10
53.84997544
20
35.1001777
30
0
10
53.94392383
20
35.03670394
30
0
10
53.98766869
20
35.03670394
30
0
0
SPLINE
5
138
100
AcDbEntity
8
sakuya
6
ByLayer
62
7
370
-1
100
AcDbSpline
210
0
220
0
230
1
70
8
71
3
72
8
73
4
74
0
42
1e-07
43
1e-07
40
0
40
0
40
0
40
0
40
1
40
1
40
1
40
1
10
53.98766869
20
35.03670394
30
0
10
54.03141301
20
35.03670394
30
0
10
54.17851846
20
34.93336441
30
0
10
54.31389997
20
34.80810385
30
0
0
SPLINE
5
139
100
AcDbEntity
8
sakuya
6
ByLayer
62
7
370
-1
100
AcDbSpline
210
0
220
0
230
1
70
8
71
3
72
8
73
4
74
0
42
1e-07
43
1e-07
40
0
40
0
40
0
40
0
40
1
40
1
40
1
40
1
10
54.31389997
20
34.80810385
30
0
10
54.57686242
20
34.56480118
30
0
10
55.22849743
20
34.29776956
30
0
10
55.32593125
20
34.39376644
30
0
0
SPLINE
5
13A
100
AcDbEntity
8
sakuya
6
ByLayer
62
7
370
-1
100
AcDbSpline
210
0
220
0
230
1
70
8
71
3
72
8
73
4
74
0
42
1e-07
43
1e-07
40
0
40
0
40
0
40
0
40
1
40
1
40
1
40
1
10
55.32593125
20
34.39376644
30
0
10
55.35824377
20
34.42560349
30
0
10
55.40439676
20
34.58315929
30
0
10
55.42594384
20
34.7438101
30
0
0
SPLINE
5
13B
100
AcDbEntity
8
sakuya
6
ByLayer
62
7
370
-1
100
AcDbSpline
210
0
220
0
230
1
70
8
71
3
72
8
73
4
74
0
42
1e-07
43
1e-07
40
0
40
0
40
0
40
0
40
1
40
1
40
1
40
1
10
55.42594384
20
34.7438101
30
0
10
55.44749227
20
34.90446037
30
0
10
55.4921068
20
35.03670394
30
0
10
55.52595616
20
35.03670394
30
0
0
SPLINE
5
13C
100
AcDbEntity
8
sakuya
6
ByLayer
62
7
370
-1
100
AcDbSpline
210
0
220
0
230
1
70
8
71
3
72
8
73
4
74
0
42
1e-07
43
1e-07
40
0
40
0
40
0
40
0
40
1
40
1
40
1
40
1
10
55.52595616
20
35.03670394
30
0
10
55.55980579
20
35.03670394
30
0
10
55.58786878
20
35.38656319
30
0
10
55.58786878
20
35.8153726
30
0
0
SPLINE
5
13D
100
AcDbEntity
8
sakuya
6
ByLayer
62
7
370
-1
100
AcDbSpline
210
0
220
0
230
1
70
8
71
3
72
8
73
4
74
0
42
1e-07
43
1e-07
40
0
40
0
40
0
40
0
40
1
40
1
40
1
40
1
10
55.58786878
20
35.8153726
30
0
10
55.58786878
20
36.28788961
30
0
10
55.55938675
20
36.59642266
30
0
10
55.51643137
20
36.59642266
30
0
0
SPLINE
5
13E
100
AcDbEntity
8
sakuya
6
ByLayer
62
7
370
-1
100
AcDbSpline
210
0
220
0
230
1
70
8
71
3
72
8
73
4
74
0
42
1e-07
43
1e-07
40
0
40
0
40
0
40
0
40
1
40
1
40
1
40
1
10
55.51643137
20
36.59642266
30
0
10
55.47744796
20
36.59642266
30
0
10
55.44499369
20
36.74837083
30
0
10
55.44499369
20
36.93456013
30
0
0
SPLINE
5
13F
100
AcDbEntity
8
sakuya
6
ByLayer
62
7
370
-1
100
AcDbSpline
210
0
220
0
230
1
70
8
71
3
72
8
73
4
74
0
42
1e-07
43
1e-07
40
0
40
0
40
0
40
0
40
1
40
1
40
1
40
1
10
55.44499369
20
36.93456013
30
0
10
55.44499369
20
37.12075024
30
0
10
55.41137275
20
37.53551992
30
0
10
55.37117488
20
37.85610388
30
0
0
SPLINE
5
140
100
AcDbEntity
8
sakuya
6
ByLayer
62
7
370
-1
100
AcDbSpline
210
0
220
0
230
1
70
8
71
3
72
8
73
4
74
0
42
1e-07
43
1e-07
40
0
40
0
40
0
40
0
40
1
40
1
40
1
40
1
10
55.37117488
20
37.85610388
30
0
10
55.29610273
20
38.45481106
30
0
10
55.37851915
20
39.55730557
30
0
10
55.50452491
20
39.63966016
30
0
0
SPLINE
5
141
100
AcDbEntity
8
sakuya
6
ByLayer
62
7
370
-1
100
AcDbSpline
210
0
220
0
230
1
70
8
71
3
72
8
73
4
74
0
42
1e-07
43
1e-07
40
0
40
0
40
0
40
0
40
1
40
1
40
1
40
1
10
55.50452491
20
39.63966016
30
0
10
55.53803245
20
39.66155851
30
0
10
55.60514014
20
39.79781104
30
0
10
55.65216253
20
39.94207879
30
0
0
SPLINE
5
142
100
AcDbEntity
8
sakuya
6
ByLayer
62
7
370
-1
100
AcDbSpline
210
0
220
0
230
1
70
8
71
3
72
8
73
4
74
0
42
1e-07
43
1e-07
40
0
40
0
40
0
40
0
40
1
40
1
40
1
40
1
10
55.65216253
20
39.94207879
30
0
10
55.69918411
20
40.08634681
30
0
10
55.81427026
20
40.31872177
30
0
10
55.90933753
20
40.45881019
30
0
0
SPLINE
5
143
100
AcDbEntity
8
sakuya
6
ByLayer
62
7
370
-1
100
AcDbSpline
210
0
220
0
230
1
70
8
71
3
72
8
73
4
74
0
42
1e-07
43
1e-07
40
0
40
0
40
0
40
0
40
1
40
1
40
1
40
1
10
55.90933753
20
40.45881019
30
0
10
56.00440318
20
40.5988978
30
0
10
56.08316866
20
40.74127906
30
0
10
56.08316866
20
40.77551641
30
0
0
SPLINE
5
144
100
AcDbEntity
8
sakuya
6
ByLayer
62
7
370
-1
100
AcDbSpline
210
0
220
0
230
1
70
8
71
3
72
8
73
4
74
0
42
1e-07
43
1e-07
40
0
40
0
40
0
40
0
40
1
40
1
40
1
40
1
10
56.08316866
20
40.77551641
30
0
10
56.08316866
20
40.84519828
30
0
10
56.69528269
20
41.37202444
30
0
10
57.07615009
20
41.63038501
30
0
0
SPLINE
5
145
100
AcDbEntity
8
sakuya
6
ByLayer
62
7
370
-1
100
AcDbSpline
210
0
220
0
230
1
70
8
71
3
72
8
73
4
74
0
42
1e-07
43
1e-07
40
0
40
0
40
0
40
0
40
1
40
1
40
1
40
1
10
57.07615009
20
41.63038501
30
0
10
57.21258919
20
41.72293912
30
0
10
57.34977592
20
41.83925701
30
0
10
57.38095012
20
41.88994141
30
0
0
SPLINE
5
146
100
AcDbEntity
8
sakuya
6
ByLayer
62
7
370
-1
100
AcDbSpline
210
0
220
0
230
1
70
8
71
3
72
8
73
4
74
0
42
1e-07
43
1e-07
40
0
40
0
40
0
40
0
40
1
40
1
40
1
40
1
10
57.38095012
20
41.88994141
30
0
10
57.41212405
20
41.94062581
30
0
10
57.46650367
20
41.98281007
30
0
10
57.50239369
20
41.98281007
30
0
0
SPLINE
5
147
100
AcDbEntity
8
sakuya
6
ByLayer
62
7
370
-1
100
AcDbSpline
210
0
220
0
230
1
70
8
71
3
72
8
73
4
74
0
42
1e-07
43
1e-07
40
0
40
0
40
0
40
0
40
1
40
1
40
1
40
1
10
57.50239369
20
41.98281007
30
0
10
57.53828479
20
41.98281007
30
0
10
57.74602333
20
42.06391807
30
0
10
57.96435613
20
42.16378513
30
0
0
SPLINE
5
148
100
AcDbEntity
8
sakuya
6
ByLayer
62
7
370
-1
100
AcDbSpline
210
0
220
0
230
1
70
8
71
3
72
8
73
4
74
0
42
1e-07
43
1e-07
40
0
40
0
40
0
40
0
40
1
40
1
40
1
40
1
10
57.96435613
20
42.16378513
30
0
10
58.30681441
20
42.3204286
30
0
10
58.34991532
20
42.35985832
30
0
10
58.27153756
20
42.45429757
30
0
0
SPLINE
5
149
100
AcDbEntity
8
sakuya
6
ByLayer
62
7
370
-1
100
AcDbSpline
210
0
220
0
230
1
70
8
71
3
72
8
73
4
74
0
42
1e-07
43
1e-07
40
0
40
0
40
0
40
0
40
1
40
1
40
1
40
1
10
58.27153756
20
42.45429757
30
0
10
58.20291166
20
42.53698291
30
0
10
58.0848277
20
42.55728421
30
0
10
57.790525
20
42.53287891
30
0
0
SPLINE
5
14A
100
AcDbEntity
8
sakuya
6
ByLayer
62
7
370
-1
100
AcDbSpline
210
0
220
0
230
1
70
8
71
3
72
8
73
4
74
0
42
1e-07
43
1e-07
40
0
40
0
40
0
40
0
40
1
40
1
40
1
40
1
10
57.790525
20
42.53287891
30
0
10
57.4880521
20
42.50779537
30
0
10
57.32024845
20
42.53645884
30
0
10
57.04281238
20
42.66146641
30
0
0
SPLINE
5
14B
100
AcDbEntity
8
sakuya
6
ByLayer
62
7
370
-1
100
AcDbSpline
210
0
220
0
230
1
70
8
71
3
72
8
73
4
74
0
42
1e-07
43
1e-07
40
0
40
0
40
0
40
0
40
1
40
1
40
1
40
1
10
57.04281238
20
42.66146641
30
0
10
56.84625697
20
42.75003073
30
0
10
56.51507416
20
42.83730094
30
0
10
56.30700622
20
42.85672879
30
0
0
SPLINE
5
14C
100
AcDbEntity
8
sakuya
6
ByLayer
62
7
370
-1
100
AcDbSpline
210
0
220
0
230
1
70
8
71
3
72
8
73
4
74
0
42
1e-07
43
1e-07
40
0
40
0
40
0
40
0
40
1
40
1
40
1
40
1
10
56.30700622
20
42.85672879
30
0
10
56.09893828
20
42.87615772
30
0
10
55.91285482
20
42.90797938
30
0
10
55.89266881
20
42.92816647
30
0
0
SPLINE
5
14D
100
AcDbEntity
8
sakuya
6
ByLayer
62
7
370
-1
100
AcDbSpline
210
0
220
0
230
1
70
8
71
3
72
8
73
4
74
0
42
1e-07
43
1e-07
40
0
40
0
40
0
40
0
40
1
40
1
40
1
40
1
10
55.89266881
20
42.92816647
30
0
10
55.87248172
20
42.94835329
30
0
10
55.92169246
20
43.35787336
30
0
10
56.00220619
20
43.83780376
30
0
0
SPLINE
5
14E
100
AcDbEntity
8
sakuya
6
ByLayer
62
7
370
-1
100
AcDbSpline
210
0
220
0
230
1
70
8
71
3
72
8
73
4
74
0
42
1e-07
43
1e-07
40
0
40
0
40
0
40
0
40
1
40
1
40
1
40
1
10
56.00220619
20
43.83780376
30
0
10
56.23238659
20
45.20988706
30
0
10
56.31533491
20
46.45776415
30
0
10
56.22604375
20
47.1763165
30
0
0
SPLINE
5
14F
100
AcDbEntity
8
sakuya
6
ByLayer
62
7
370
-1
100
AcDbSpline
210
0
220
0
230
1
70
8
71
3
72
8
73
4
74
0
42
1e-07
43
1e-07
40
0
40
0
40
0
40
0
40
1
40
1
40
1
40
1
10
56.22604375
20
47.1763165
30
0
10
56.13304765
20
47.92469116
30
0
10
55.91496649
20
48.52404823
30
0
10
55.65454366
20
48.74317888
30
0
0
SPLINE
5
150
100
AcDbEntity
8
sakuya
6
ByLayer
62
7
370
-1
100
AcDbSpline
210
0
220
0
230
1
70
8
71
3
72
8
73
4
74
0
42
1e-07
43
1e-07
40
0
40
0
40
0
40
0
40
1
40
1
40
1
40
1
10
55.65454366
20
48.74317888
30
0
10
55.42096801
20
48.93971998
30
0
10
55.26775867
20
49.22366035
30
0
10
55.20210628
20
49.58614129
30
0
0
SPLINE
5
151
100
AcDbEntity
8
sakuya
6
ByLayer
62
7
370
-1
100
AcDbSpline
210
0
220
0
230
1
70
8
71
3
72
8
73
4
74
0
42
1e-07
43
1e-07
40
0
40
0
40
0
40
0
40
1
40
1
40
1
40
1
10
55.20210628
20
49.58614129
30
0
10
55.17537304
20
49.73374462
30
0
10
55.02739171
20
50.10640213
30
0
10
54.87349387
20
50.41481638
30
0
0
SPLINE
5
152
100
AcDbEntity
8
sakuya
6
ByLayer
62
7
370
-1
100
AcDbSpline
210
0
220
0
230
1
70
8
71
3
72
8
73
4
74
0
42
1e-07
43
1e-07
40
0
40
0
40
0
40
0
40
1
40
1
40
1
40
1
10
54.87349387
20
50.41481638
30
0
10
54.71959576
20
50.72323063
30
0
10
54.59488762
20
51.00762028
30
0
10
54.59488762
20
51.04584769
30
0
0
SPLINE
5
153
100
AcDbEntity
8
sakuya
6
ByLayer
62
7
370
-1
100
AcDbSpline
210
0
220
0
230
1
70
8
71
3
72
8
73
4
74
0
42
1e-07
43
1e-07
40
0
40
0
40
0
40
0
40
1
40
1
40
1
40
1
10
54.59488762
20
51.04584769
30
0
10
54.59488762
20
51.08407483
30
0
10
54.55361461
20
51.1585573
30
0
10
54.50201869
20
51.21015376
30
0
0
SPLINE
5
154
100
AcDbEntity
8
sakuya
6
ByLayer
62
7
370
-1
100
AcDbSpline
210
0
220
0
230
1
70
8
71
3
72
8
73
4
74
0
42
1e-07
43
1e-07
40
0
40
0
40
0
40
0
40
1
40
1
40
1
40
1
10
54.50201869
20
51.21015376
30
0
10
54.38644708
20
51.32572483
30
0
10
54.12714988
20
52.29180211
30
0
10
54.06386863
20
52.84607269
30
0
0
SPLINE
5
155
100
AcDbEntity
8
sakuya
6
ByLayer
62
7
370
-1
100
AcDbSpline
210
0
220
0
230
1
70
8
71
3
72
8
73
4
74
0
42
1e-07
43
1e-07
40
0
40
0
40
0
40
0
40
1
40
1
40
1
40
1
10
54.06386863
20
52.84607269
30
0
10
54.00999067
20
53.31798598
30
0
10
53.9063725
20
53.55016681
30
0
10
53.66619994
20
53.73666013
30
0
0
SPLINE
5
156
100
AcDbEntity
8
sakuya
6
ByLayer
62
7
370
-1
100
AcDbSpline
210
0
220
0
230
1
70
8
71
3
72
8
73
4
74
0
42
1e-07
43
1e-07
40
0
40
0
40
0
40
0
40
1
40
1
40
1
40
1
10
53.66619994
20
53.73666013
30
0
10
53.39559541
20
53.94678385
30
0
10
52.70678491
20
54.17242879
30
0
10
52.33746244
20
54.17242879
30
0
0
LWPOLYLINE
5
157
100
AcDbEntity
8
sakuya
6
ByLayer
62
7
370
-1
100
AcDbPolyline
90
3
70
0
43
0
10
49.18706869
20
25.97842885
10
49.22755006
20
26.45706001
10
49.00609363
20
26.39276626
0
SPLINE
5
158
100
AcDbEntity
8
sakuya
6
ByLayer
62
7
370
-1
100
AcDbSpline
210
0
220
0
230
1
70
8
71
3
72
8
73
4
74
0
42
1e-07
43
1e-07
40
0
40
0
40
0
40
0
40
1
40
1
40
1
40
1
10
51.92074363
20
54.75821647
30
0
10
51.874879
20
55.10560387
30
0
10
51.86815438
20
55.3584316
30
0
10
51.90645631
20
55.38210385
30
0
0
SPLINE
5
159
100
AcDbEntity
8
sakuya
6
ByLayer
62
7
370
-1
100
AcDbSpline
210
0
220
0
230
1
70
8
71
3
72
8
73
4
74
0
42
1e-07
43
1e-07
40
0
40
0
40
0
40
0
40
1
40
1
40
1
40
1
10
51.90645631
20
55.38210385
30
0
10
51.94189678
20
55.40400679
30
0
10
52.38555916
20
55.54750288
30
0
10
52.89229381
20
55.70119147
30
0
0
SPLINE
5
15A
100
AcDbEntity
8
sakuya
6
ByLayer
62
7
370
-1
100
AcDbSpline
210
0
220
0
230
1
70
8
71
3
72
8
73
4
74
0
42
1e-07
43
1e-07
40
0
40
0
40
0
40
0
40
1
40
1
40
1
40
1
10
52.89229381
20
55.70119147
30
0
10
53.81141971
20
55.9799554
30
0
10
53.81599783
20
55.98223312
30
0
10
53.86146259
20
56.22268513
30
0
0
SPLINE
5
15B
100
AcDbEntity
8
sakuya
6
ByLayer
62
7
370
-1
100
AcDbSpline
210
0
220
0
230
1
70
8
71
3
72
8
73
4
74
0
42
1e-07
43
1e-07
40
0
40
0
40
0
40
0
40
1
40
1
40
1
40
1
10
53.86146259
20
56.22268513
30
0
10
53.88652858
20
56.3552527
30
0
10
53.87708965
20
56.57767438
30
0
10
53.84241247
20
56.71798501
30
0
0
SPLINE
5
15C
100
AcDbEntity
8
sakuya
6
ByLayer
62
7
370
-1
100
AcDbSpline
210
0
220
0
230
1
70
8
71
3
72
8
73
4
74
0
42
1e-07
43
1e-07
40
0
40
0
40
0
40
0
40
1
40
1
40
1
40
1
10
53.84241247
20
56.71798501
30
0
10
53.78150128
20
56.96444344
30
0
10
53.76806122
20
56.97467482
30
0
10
53.42569366
20
56.99421013
30
0
0
SPLINE
5
15D
100
AcDbEntity
8
sakuya
6
ByLayer
62
7
370
-1
100
AcDbSpline
210
0
220
0
230
1
70
8
71
3
72
8
73
4
74
0
42
1e-07
43
1e-07
40
0
40
0
40
0
40
0
40
1
40
1
40
1
40
1
10
53.42569366
20
56.99421013
30
0
10
53.23078093
20
57.00533143
30
0
10
52.77711208
20
56.95381651
30
0
10
52.41842491
20
56.87991022
30
0
0
LWPOLYLINE
5
15E
100
AcDbEntity
8
sakuya
6
ByLayer
62
7
370
-1
100
AcDbPolyline
90
3
70
0
43
0
10
52.33746244
20
54.17242879
10
51.99694384
20
54.17242879
10
51.92074363
20
54.75821647
0
SPLINE
5
15F
100
AcDbEntity
8
sakuya
6
ByLayer
62
7
370
-1
100
AcDbSpline
210
0
220
0
230
1
70
8
71
3
72
8
73
4
74
0
42
1e-07
43
1e-07
40
0
40
0
40
0
40
0
40
1
40
1
40
1
40
1
10
51.73024378
20
56.92991638
30
0
10
51.71069227
20
57.0316837
30
0
10
51.64035835
20
57.5929516
30
0
10
51.57308137
20
58.17769141
30
0
0
SPLINE
5
160
100
AcDbEntity
8
sakuya
6
ByLayer
62
7
370
-1
100
AcDbSpline
210
0
220
0
230
1
70
8
71
3
72
8
73
4
74
0
42
1e-07
43
1e-07
40
0
40
0
40
0
40
0
40
1
40
1
40
1
40
1
10
51.57308137
20
58.17769141
30
0
10
51.50580493
20
58.76243122
30
0
10
51.42919729
20
59.25595639
30
0
10
51.4040125
20
59.27544769
30
0
0
SPLINE
5
161
100
AcDbEntity
8
sakuya
6
ByLayer
62
7
370
-1
100
AcDbSpline
210
0
220
0
230
1
70
8
71
3
72
8
73
4
74
0
42
1e-07
43
1e-07
40
0
40
0
40
0
40
0
40
1
40
1
40
1
40
1
10
51.4040125
20
59.27544769
30
0
10
51.3788269
20
59.29493872
30
0
10
51.28759174
20
59.91828367
30
0
10
51.19922506
20
60.65895388
30
0
0
SPLINE
5
162
100
AcDbEntity
8
sakuya
6
ByLayer
62
7
370
-1
100
AcDbSpline
210
0
220
0
230
1
70
8
71
3
72
8
73
4
74
0
42
1e-07
43
1e-07
40
0
40
0
40
0
40
0
40
1
40
1
40
1
40
1
10
51.19922506
20
60.65895388
30
0
10
51.11085892
20
61.39962409
30
0
10
50.94813991
20
62.75514262
30
0
10
50.83727494
20
63.67123507
30
0
0
SPLINE
5
163
100
AcDbEntity
8
sakuya
6
ByLayer
62
7
370
-1
100
AcDbSpline
210
0
220
0
230
1
70
8
71
3
72
8
73
4
74
0
42
1e-07
43
1e-07
40
0
40
0
40
0
40
0
40
1
40
1
40
1
40
1
10
50.83727494
20
63.67123507
30
0
10
50.72641159
20
64.58732671
30
0
10
50.59406974
20
65.69489236
30
0
10
50.54438137
20
66.13344769
30
0
0
SPLINE
5
164
100
AcDbEntity
8
sakuya
6
ByLayer
62
7
370
-1
100
AcDbSpline
210
0
220
0
230
1
70
8
71
3
72
8
73
4
74
0
42
1e-07
43
1e-07
40
0
40
0
40
0
40
0
40
1
40
1
40
1
40
1
10
50.54438137
20
66.13344769
30
0
10
50.49469354
20
66.57200221
30
0
10
50.43323965
20
66.93116647
30
0
10
50.40626881
20
66.93116647
30
0
0
SPLINE
5
165
100
AcDbEntity
8
sakuya
6
ByLayer
62
7
370
-1
100
AcDbSpline
210
0
220
0
230
1
70
8
71
3
72
8
73
4
74
0
42
1e-07
43
1e-07
40
0
40
0
40
0
40
0
40
1
40
1
40
1
40
1
10
50.40626881
20
66.93116647
30
0
10
50.37929851
20
66.93116647
30
0
10
50.33470018
20
67.13043781
30
0
10
50.30863762
20
67.37407879
30
0
0
SPLINE
5
166
100
AcDbEntity
8
sakuya
6
ByLayer
62
7
370
-1
100
AcDbSpline
210
0
220
0
230
1
70
8
71
3
72
8
73
4
74
0
42
1e-07
43
1e-07
40
0
40
0
40
0
40
0
40
1
40
1
40
1
40
1
10
50.30863762
20
67.37407879
30
0
10
50.28257479
20
67.61772085
30
0
10
50.21142304
20
68.10432241
30
0
10
50.15147494
20
68.45516635
30
0
0
SPLINE
5
167
100
AcDbEntity
8
sakuya
6
ByLayer
62
7
370
-1
100
AcDbSpline
210
0
220
0
230
1
70
8
71
3
72
8
73
4
74
0
42
1e-07
43
1e-07
40
0
40
0
40
0
40
0
40
1
40
1
40
1
40
1
10
50.15147494
20
68.45516635
30
0
10
50.09152684
20
68.80601029
30
0
10
50.02942306
20
69.26651338
30
0
10
50.01336238
20
69.47910382
30
0
0
SPLINE
5
168
100
AcDbEntity
8
sakuya
6
ByLayer
62
7
370
-1
100
AcDbSpline
210
0
220
0
230
1
70
8
71
3
72
8
73
4
74
0
42
1e-07
43
1e-07
40
0
40
0
40
0
40
0
40
1
40
1
40
1
40
1
10
50.01336238
20
69.47910382
30
0
10
49.99730035
20
69.69169426
30
0
10
49.95789277
20
69.88404199
30
0
10
49.92525625
20
69.90534769
30
0
0
SPLINE
5
169
100
AcDbEntity
8
sakuya
6
ByLayer
62
7
370
-1
100
AcDbSpline
210
0
220
0
230
1
70
8
71
3
72
8
73
4
74
0
42
1e-07
43
1e-07
40
0
40
0
40
0
40
0
40
1
40
1
40
1
40
1
10
49.92525625
20
69.90534769
30
0
10
49.89261973
20
69.92665312
30
0
10
49.82451304
20
70.11956785
30
0
10
49.77285637
20
70.33397269
30
0
0
SPLINE
5
16A
100
AcDbEntity
8
sakuya
6
ByLayer
62
7
370
-1
100
AcDbSpline
210
0
220
0
230
1
70
8
71
3
72
8
73
4
74
0
42
1e-07
43
1e-07
40
0
40
0
40
0
40
0
40
1
40
1
40
1
40
1
10
49.77285637
20
70.33397269
30
0
10
49.72119943
20
70.54837726
30
0
10
49.65924658
20
70.74491782
30
0
10
49.63712494
20
70.77212275
30
0
0
SPLINE
5
16B
100
AcDbEntity
8
sakuya
6
ByLayer
62
7
370
-1
100
AcDbSpline
210
0
220
0
230
1
70
8
71
3
72
8
73
4
74
0
42
1e-07
43
1e-07
40
0
40
0
40
0
40
0
40
1
40
1
40
1
40
1
10
49.63712494
20
70.77212275
30
0
10
49.63443655
20
70.77542863
30
0
10
49.6333606
20
70.77732781
30
0
10
49.62998128
20
70.77688501
30
0
0
LWPOLYLINE
5
16C
100
AcDbEntity
8
sakuya
6
ByLayer
62
7
370
-1
100
AcDbPolyline
90
3
70
0
43
0
10
52.41842491
20
56.87991022
10
51.76596262
20
56.74417879
10
51.73024378
20
56.92991638
0
SPLINE
5
16D
100
AcDbEntity
8
sakuya
6
ByLayer
62
7
370
-1
100
AcDbSpline
210
0
220
0
230
1
70
8
71
3
72
8
73
4
74
0
42
1e-07
43
1e-07
40
0
40
0
40
0
40
0
40
1
40
1
40
1
40
1
10
27.92250616
20
43.47347251
30
0
10
27.99314356
20
43.49044228
30
0
10
28.09751476
20
43.20552289
30
0
10
28.23921238
20
42.62098504
30
0
0
SPLINE
5
16E
100
AcDbEntity
8
sakuya
6
ByLayer
62
7
370
-1
100
AcDbSpline
210
0
220
0
230
1
70
8
71
3
72
8
73
4
74
0
42
1e-07
43
1e-07
40
0
40
0
40
0
40
0
40
1
40
1
40
1
40
1
10
28.23921238
20
42.62098504
30
0
10
28.29231328
20
42.4019308
30
0
10
28.33392919
20
41.83336507
30
0
10
28.33446244
20
41.32558525
30
0
0
SPLINE
5
16F
100
AcDbEntity
8
sakuya
6
ByLayer
62
7
370
-1
100
AcDbSpline
210
0
220
0
230
1
70
8
71
3
72
8
73
4
74
0
42
1e-07
43
1e-07
40
0
40
0
40
0
40
0
40
1
40
1
40
1
40
1
10
28.33446244
20
41.32558525
30
0
10
28.33491901
20
40.82858194
30
0
10
28.3587214
20
40.42311727
30
0
10
28.38685
20
40.42309135
30
0
0
SPLINE
5
170
100
AcDbEntity
8
sakuya
6
ByLayer
62
7
370
-1
100
AcDbSpline
210
0
220
0
230
1
70
8
71
3
72
8
73
4
74
0
42
1e-07
43
1e-07
40
0
40
0
40
0
40
0
40
1
40
1
40
1
40
1
10
28.38685
20
40.42309135
30
0
10
28.4149786
20
40.42306624
30
0
10
28.56984817
20
40.70111845
30
0
10
28.73213113
20
41.04221647
30
0
0
SPLINE
5
171
100
AcDbEntity
8
sakuya
6
ByLayer
62
7
370
-1
100
AcDbSpline
210
0
220
0
230
1
70
8
71
3
72
8
73
4
74
0
42
1e-07
43
1e-07
40
0
40
0
40
0
40
0
40
1
40
1
40
1
40
1
10
28.73213113
20
41.04221647
30
0
10
28.89441355
20
41.38331422
30
0
10
29.04620404
20
41.67995026
30
0
10
29.07026887
20
41.69944129
30
0
0
SPLINE
5
172
100
AcDbEntity
8
sakuya
6
ByLayer
62
7
370
-1
100
AcDbSpline
210
0
220
0
230
1
70
8
71
3
72
8
73
4
74
0
42
1e-07
43
1e-07
40
0
40
0
40
0
40
0
40
1
40
1
40
1
40
1
10
29.07026887
20
41.69944129
30
0
10
29.09433343
20
41.71893259
30
0
10
29.16666562
20
41.84637016
30
0
10
29.22981241
20
41.98281007
30
0
0
LWPOLYLINE
5
173
100
AcDbEntity
8
sakuya
6
ByLayer
62
7
370
-1
100
AcDbPolyline
90
2
70
0
43
0
10
49.62998128
20
70.77688501
10
49.62998128
20
70.77688501
0
SPLINE
5
174
100
AcDbEntity
8
sakuya
6
ByLayer
62
7
370
-1
100
AcDbSpline
210
0
220
0
230
1
70
8
71
3
72
8
73
4
74
0
42
1e-07
43
1e-07
40
0
40
0
40
0
40
0
40
1
40
1
40
1
40
1
10
29.42507506
20
41.9470915
30
0
10
29.4696742
20
41.7911611
30
0
10
29.52685075
20
41.48067946
30
0
10
29.55128116
20
41.25652897
30
0
0
SPLINE
5
175
100
AcDbEntity
8
sakuya
6
ByLayer
62
7
370
-1
100
AcDbSpline
210
0
220
0
230
1
70
8
71
3
72
8
73
4
74
0
42
1e-07
43
1e-07
40
0
40
0
40
0
40
0
40
1
40
1
40
1
40
1
10
29.55128116
20
41.25652897
30
0
10
29.57571022
20
41.03237902
30
0
10
29.61784048
20
40.84933522
30
0
10
29.64415009
20
40.84933522
30
0
0
SPLINE
5
176
100
AcDbEntity
8
sakuya
6
ByLayer
62
7
370
-1
100
AcDbSpline
210
0
220
0
230
1
70
8
71
3
72
8
73
4
74
0
42
1e-07
43
1e-07
40
0
40
0
40
0
40
0
40
1
40
1
40
1
40
1
10
29.64415009
20
40.84933522
30
0
10
29.70653872
20
40.84933522
30
0
10
29.9299
20
41.56073068
30
0
10
29.9299
20
41.75897251
30
0
0
SPLINE
5
177
100
AcDbEntity
8
sakuya
6
ByLayer
62
7
370
-1
100
AcDbSpline
210
0
220
0
230
1
70
8
71
3
72
8
73
4
74
0
42
1e-07
43
1e-07
40
0
40
0
40
0
40
0
40
1
40
1
40
1
40
1
10
29.9299
20
41.75897251
30
0
10
29.9299
20
41.95302826
30
0
10
29.95543606
20
41.95012873
30
0
10
30.16564375
20
41.73992266
30
0
0
SPLINE
5
178
100
AcDbEntity
8
sakuya
6
ByLayer
62
7
370
-1
100
AcDbSpline
210
0
220
0
230
1
70
8
71
3
72
8
73
4
74
0
42
1e-07
43
1e-07
40
0
40
0
40
0
40
0
40
1
40
1
40
1
40
1
10
30.16564375
20
41.73992266
30
0
10
30.5512753
20
41.35429111
30
0
10
31.26215641
20
41.32439401
30
0
10
32.073025
20
41.66134132
30
0
0
SPLINE
5
179
100
AcDbEntity
8
sakuya
6
ByLayer
62
7
370
-1
100
AcDbSpline
210
0
220
0
230
1
70
8
71
3
72
8
73
4
74
0
42
1e-07
43
1e-07
40
0
40
0
40
0
40
0
40
1
40
1
40
1
40
1
10
32.073025
20
41.66134132
30
0
10
32.23589629
20
41.72902006
30
0
10
32.23694578
20
41.56657078
30
0
10
32.07540613
20
41.28510388
30
0
0
SPLINE
5
17A
100
AcDbEntity
8
sakuya
6
ByLayer
62
7
370
-1
100
AcDbSpline
210
0
220
0
230
1
70
8
71
3
72
8
73
4
74
0
42
1e-07
43
1e-07
40
0
40
0
40
0
40
0
40
1
40
1
40
1
40
1
10
32.07540613
20
41.28510388
30
0
10
31.96720687
20
41.09657665
30
0
10
31.9653949
20
41.05263442
30
0
10
32.05635628
20
40.88267266
30
0
0
SPLINE
5
17B
100
AcDbEntity
8
sakuya
6
ByLayer
62
7
370
-1
100
AcDbSpline
210
0
220
0
230
1
70
8
71
3
72
8
73
4
74
0
42
1e-07
43
1e-07
40
0
40
0
40
0
40
0
40
1
40
1
40
1
40
1
10
32.05635628
20
40.88267266
30
0
10
32.15060113
20
40.70657434
30
0
10
32.14753177
20
40.6802893
30
0
10
32.00635012
20
40.56596644
30
0
0
SPLINE
5
17C
100
AcDbEntity
8
sakuya
6
ByLayer
62
7
370
-1
100
AcDbSpline
210
0
220
0
230
1
70
8
71
3
72
8
73
4
74
0
42
1e-07
43
1e-07
40
0
40
0
40
0
40
0
40
1
40
1
40
1
40
1
10
32.00635012
20
40.56596644
30
0
10
31.87426342
20
40.45900972
30
0
10
31.63828342
20
40.43711974
30
0
10
30.30851884
20
40.40642263
30
0
0
SPLINE
5
17D
100
AcDbEntity
8
sakuya
6
ByLayer
62
7
370
-1
100
AcDbSpline
210
0
220
0
230
1
70
8
71
3
72
8
73
4
74
0
42
1e-07
43
1e-07
40
0
40
0
40
0
40
0
40
1
40
1
40
1
40
1
10
30.30851884
20
40.40642263
30
0
10
29.24573755
20
40.38188854
30
0
10
28.75781515
20
40.34774407
30
0
10
28.73927506
20
40.29212272
30
0
0
SPLINE
5
17E
100
AcDbEntity
8
sakuya
6
ByLayer
62
7
370
-1
100
AcDbSpline
210
0
220
0
230
1
70
8
71
3
72
8
73
4
74
0
42
1e-07
43
1e-07
40
0
40
0
40
0
40
0
40
1
40
1
40
1
40
1
10
28.73927506
20
40.29212272
30
0
10
28.7244715
20
40.24771258
30
0
10
28.64276167
20
40.20900754
30
0
10
28.5583
20
40.20877885
30
0
0
SPLINE
5
17F
100
AcDbEntity
8
sakuya
6
ByLayer
62
7
370
-1
100
AcDbSpline
210
0
220
0
230
1
70
8
71
3
72
8
73
4
74
0
42
1e-07
43
1e-07
40
0
40
0
40
0
40
0
40
1
40
1
40
1
40
1
10
28.5583
20
40.20877885
30
0
10
28.47383752
20
40.20853882
30
0
10
28.31515177
20
40.16223733
30
0
10
28.20349381
20
40.104004
30
0
0
SPLINE
5
180
100
AcDbEntity
8
sakuya
6
ByLayer
62
7
370
-1
100
AcDbSpline
210
0
220
0
230
1
70
8
71
3
72
8
73
4
74
0
42
1e-07
43
1e-07
40
0
40
0
40
0
40
0
40
1
40
1
40
1
40
1
10
28.20349381
20
40.104004
30
0
10
28.09183558
20
40.04576959
30
0
10
27.99320539
20
39.99684775
30
0
10
27.98441878
20
39.99684775
30
0
0
SPLINE
5
181
100
AcDbEntity
8
sakuya
6
ByLayer
62
7
370
-1
100
AcDbSpline
210
0
220
0
230
1
70
8
71
3
72
8
73
4
74
0
42
1e-07
43
1e-07
40
0
40
0
40
0
40
0
40
1
40
1
40
1
40
1
10
27.98441878
20
39.99684775
30
0
10
27.9239458
20
39.99684775
30
0
10
27.80265127
20
41.49790546
30
0
10
27.80344372
20
42.2447476
30
0
0
SPLINE
5
182
100
AcDbEntity
8
sakuya
6
ByLayer
62
7
370
-1
100
AcDbSpline
210
0
220
0
230
1
70
8
71
3
72
8
73
4
74
0
42
1e-07
43
1e-07
40
0
40
0
40
0
40
0
40
1
40
1
40
1
40
1
10
27.80344372
20
42.2447476
30
0
10
27.80429935
20
43.04703829
30
0
10
27.84245062
20
43.45423987
30
0
10
27.92250616
20
43.47347251
30
0
0
LWPOLYLINE
5
183
100
AcDbEntity
8
sakuya
6
ByLayer
62
7
370
-1
100
AcDbPolyline
90
3
70
0
43
0
10
29.22981241
20
41.98281007
10
29.34411259
20
42.23046001
10
29.42507506
20
41.9470915
0
LWPOLYLINE
5
184
100
AcDbEntity
8
sakuya
6
ByLayer
62
7
370
-1
100
AcDbPolyline
90
2
70
0
43
0
10
27.92250616
20
43.47347251
10
27.92250616
20
43.47347251
0
SPLINE
5
185
100
AcDbEntity
8
name
6
ByLayer
62
7
370
-1
100
AcDbSpline
210
0
220
0
230
1
70
8
71
3
72
8
73
4
74
0
42
1e-07
43
1e-07
40
0
40
0
40
0
40
0
40
1
40
1
40
1
40
1
10
65.4469321097
20
44.6053320822
30
0
10
65.3290731097
20
44.9775760822
30
0
10
65.0022151097
20
45.6886290822
30
0
10
64.7981341097
20
46.0167460822
30
0
0
LWPOLYLINE
5
186
100
AcDbEntity
8
name
6
ByLayer
62
7
370
-1
100
AcDbPolyline
90
26
70
0
43
0
10
65.1065321097
20
50.7796320822
10
65.1065321097
20
53.7049310822
10
62.8526131097
20
53.7049310822
10
60.5986961097
20
53.7049310822
10
60.5986961097
20
54.1125550822
10
60.5986961097
20
54.5201790822
10
62.8526131097
20
54.5201790822
10
65.1065321097
20
54.5201790822
10
65.1065321097
20
56.2226070822
10
65.1065321097
20
57.9250350822
10
65.5141571097
20
57.9250350822
10
65.9217791097
20
57.9250350822
10
65.9217791097
20
56.2226070822
10
65.9217791097
20
54.5201790822
10
68.2236541097
20
54.5201790822
10
70.5255291097
20
54.5201790822
10
70.5255291097
20
54.1125550822
10
70.5255291097
20
53.7049310822
10
68.2236541097
20
53.7049310822
10
65.9217791097
20
53.7049310822
10
65.9217791097
20
50.7796320822
10
65.9217791097
20
47.8543320822
10
65.5141571097
20
47.8543320822
10
65.1065321097
20
47.8543320822
10
65.1065321097
20
50.7796320822
10
65.1065321097
20
50.7796320822
0
SPLINE
5
187
100
AcDbEntity
8
name
6
ByLayer
62
7
370
-1
100
AcDbSpline
210
0
220
0
230
1
70
8
71
3
72
8
73
4
74
0
42
1e-07
43
1e-07
40
0
40
0
40
0
40
0
40
1
40
1
40
1
40
1
10
65.5504031097
20
46.3543320822
30
0
10
65.6780891097
20
46.1928110822
30
0
10
66.1370611097
20
45.2381560822
30
0
10
66.2768011097
20
44.8434410822
30
0
0
SPLINE
5
188
100
AcDbEntity
8
name
6
ByLayer
62
7
370
-1
100
AcDbSpline
210
0
220
0
230
1
70
8
71
3
72
8
73
4
74
0
42
1e-07
43
1e-07
40
0
40
0
40
0
40
0
40
1
40
1
40
1
40
1
10
66.2768011097
20
44.8434410822
30
0
10
66.3683251097
20
44.5849220822
30
0
10
66.3850081097
20
44.4885440822
30
0
10
66.3409641097
20
44.4727520822
30
0
0
SPLINE
5
189
100
AcDbEntity
8
name
6
ByLayer
62
7
370
-1
100
AcDbSpline
210
0
220
0
230
1
70
8
71
3
72
8
73
4
74
0
42
1e-07
43
1e-07
40
0
40
0
40
0
40
0
40
1
40
1
40
1
40
1
10
66.3409641097
20
44.4727520822
30
0
10
66.1582391097
20
44.4072360822
30
0
10
65.6506431097
20
44.2587990822
30
0
10
65.6075191097
20
44.2582710822
30
0
0
SPLINE
5
18A
100
AcDbEntity
8
name
6
ByLayer
62
7
370
-1
100
AcDbSpline
210
0
220
0
230
1
70
8
71
3
72
8
73
4
74
0
42
1e-07
43
1e-07
40
0
40
0
40
0
40
0
40
1
40
1
40
1
40
1
10
65.6075191097
20
44.2582710822
30
0
10
65.5797491097
20
44.2579330822
30
0
10
65.5074771097
20
44.4141080822
30
0
10
65.4469321097
20
44.6053320822
30
0
0
LWPOLYLINE
5
18B
100
AcDbEntity
8
name
6
ByLayer
62
7
370
-1
100
AcDbPolyline
90
5
70
0
43
0
10
64.7981341097
20
46.0167460822
10
64.6734091097
20
46.2172770822
10
65.0698041097
20
46.3390630822
10
65.4662021097
20
46.4608480822
10
65.5504031097
20
46.3543320822
0
LWPOLYLINE
5
18C
100
AcDbEntity
8
name
6
ByLayer
62
7
370
-1
100
AcDbPolyline
90
2
70
0
43
0
10
65.4469321097
20
44.6053320822
10
65.4469321097
20
44.6053320822
0
SPLINE
5
18D
100
AcDbEntity
8
name
6
ByLayer
62
7
370
-1
100
AcDbSpline
210
0
220
0
230
1
70
8
71
3
72
8
73
4
74
0
42
1e-07
43
1e-07
40
0
40
0
40
0
40
0
40
1
40
1
40
1
40
1
10
69.4321041097
20
37.6839750822
30
0
10
68.7453671097
20
38.8342050822
30
0
10
67.8012611097
20
40.1454480822
30
0
10
66.9904761097
20
41.0750910822
30
0
0
LWPOLYLINE
5
18E
100
AcDbEntity
8
name
6
ByLayer
62
7
370
-1
100
AcDbPolyline
90
10
70
0
43
0
10
60.7425611097
20
43.3464940822
10
60.7425611097
20
43.7301400822
10
65.5621121097
20
43.7301400822
10
70.3816641097
20
43.7301400822
10
70.3816641097
20
43.3464940822
10
70.3816641097
20
42.9628480822
10
65.5621121097
20
42.9628480822
10
60.7425611097
20
42.9628480822
10
60.7425611097
20
43.3464940822
10
60.7425611097
20
43.3464940822
0
SPLINE
5
18F
100
AcDbEntity
8
name
6
ByLayer
62
7
370
-1
100
AcDbSpline
210
0
220
0
230
1
70
8
71
3
72
8
73
4
74
0
42
1e-07
43
1e-07
40
0
40
0
40
0
40
0
40
1
40
1
40
1
40
1
10
67.6185131097
20
41.6083130822
30
0
10
68.0116381097
20
41.1902390822
30
0
10
68.9988571097
20
39.9527920822
30
0
10
69.4337891097
20
39.3329240822
30
0
0
SPLINE
5
190
100
AcDbEntity
8
name
6
ByLayer
62
7
370
-1
100
AcDbSpline
210
0
220
0
230
1
70
8
71
3
72
8
73
4
74
0
42
1e-07
43
1e-07
40
0
40
0
40
0
40
0
40
1
40
1
40
1
40
1
10
69.4337891097
20
39.3329240822
30
0
10
69.9109261097
20
38.6529050822
30
0
10
70.5315211097
20
37.6799470822
30
0
10
70.5147851097
20
37.6381590822
30
0
0
SPLINE
5
191
100
AcDbEntity
8
name
6
ByLayer
62
7
370
-1
100
AcDbSpline
210
0
220
0
230
1
70
8
71
3
72
8
73
4
74
0
42
1e-07
43
1e-07
40
0
40
0
40
0
40
0
40
1
40
1
40
1
40
1
10
70.5147851097
20
37.6381590822
30
0
10
70.5075041097
20
37.6199870822
30
0
10
70.3612821097
20
37.4547750822
30
0
10
70.1898401097
20
37.2710190822
30
0
0
LWPOLYLINE
5
192
100
AcDbEntity
8
name
6
ByLayer
62
7
370
-1
100
AcDbPolyline
90
5
70
0
43
0
10
66.9904761097
20
41.0750910822
10
66.6902791097
20
41.4192970822
10
67.0133751097
20
41.6637740822
10
67.3364751097
20
41.9082510822
10
67.6185131097
20
41.6083130822
0
SPLINE
5
193
100
AcDbEntity
8
name
6
ByLayer
62
7
370
-1
100
AcDbSpline
210
0
220
0
230
1
70
8
71
3
72
8
73
4
74
0
42
1e-07
43
1e-07
40
0
40
0
40
0
40
0
40
1
40
1
40
1
40
1
10
60.8509711097
20
37.1210450822
30
0
10
60.6990311097
20
37.2577620822
30
0
10
60.5686421097
20
37.3838890822
30
0
10
60.5612171097
20
37.4013280822
30
0
0
SPLINE
5
194
100
AcDbEntity
8
name
6
ByLayer
62
7
370
-1
100
AcDbSpline
210
0
220
0
230
1
70
8
71
3
72
8
73
4
74
0
42
1e-07
43
1e-07
40
0
40
0
40
0
40
0
40
1
40
1
40
1
40
1
10
60.5612171097
20
37.4013280822
30
0
10
60.5537941097
20
37.4187670822
30
0
10
60.7671121097
20
37.6683750822
30
0
10
61.0352621097
20
37.9560120822
30
0
0
SPLINE
5
195
100
AcDbEntity
8
name
6
ByLayer
62
7
370
-1
100
AcDbSpline
210
0
220
0
230
1
70
8
71
3
72
8
73
4
74
0
42
1e-07
43
1e-07
40
0
40
0
40
0
40
0
40
1
40
1
40
1
40
1
10
61.0352621097
20
37.9560120822
30
0
10
62.0063161097
20
38.9976260822
30
0
10
62.9436521097
20
40.2595870822
30
0
10
63.5965051097
20
41.4042870822
30
0
0
SPLINE
5
196
100
AcDbEntity
8
name
6
ByLayer
62
7
370
-1
100
AcDbSpline
210
0
220
0
230
1
70
8
71
3
72
8
73
4
74
0
42
1e-07
43
1e-07
40
0
40
0
40
0
40
0
40
1
40
1
40
1
40
1
10
63.5965051097
20
41.4042870822
30
0
10
63.7469351097
20
41.6680430822
30
0
10
63.8751551097
20
41.8895130822
30
0
10
63.8814421097
20
41.8964420822
30
0
0
SPLINE
5
197
100
AcDbEntity
8
name
6
ByLayer
62
7
370
-1
100
AcDbSpline
210
0
220
0
230
1
70
8
71
3
72
8
73
4
74
0
42
1e-07
43
1e-07
40
0
40
0
40
0
40
0
40
1
40
1
40
1
40
1
10
63.8814421097
20
41.8964420822
30
0
10
63.8877361097
20
41.9033710822
30
0
10
64.0571961097
20
41.8174960822
30
0
10
64.2580341097
20
41.7056080822
30
0
0
LWPOLYLINE
5
198
100
AcDbEntity
8
name
6
ByLayer
62
7
370
-1
100
AcDbPolyline
90
4
70
0
43
0
10
70.1898401097
20
37.2710190822
10
69.8781281097
20
36.9369180822
10
69.4321041097
20
37.6839750822
10
69.4321041097
20
37.6839750822
0
SPLINE
5
199
100
AcDbEntity
8
name
6
ByLayer
62
7
370
-1
100
AcDbSpline
210
0
220
0
230
1
70
8
71
3
72
8
73
4
74
0
42
1e-07
43
1e-07
40
0
40
0
40
0
40
0
40
1
40
1
40
1
40
1
10
64.4978861097
20
41.2853860822
30
0
10
63.9089171097
20
40.2664530822
30
0
10
63.0891911097
20
39.0557540822
30
0
10
62.4375511097
20
38.2423620822
30
0
0
SPLINE
5
19A
100
AcDbEntity
8
name
6
ByLayer
62
7
370
-1
100
AcDbSpline
210
0
220
0
230
1
70
8
71
3
72
8
73
4
74
0
42
1e-07
43
1e-07
40
0
40
0
40
0
40
0
40
1
40
1
40
1
40
1
10
62.4375511097
20
38.2423620822
30
0
10
61.9955911097
20
37.6906990822
30
0
10
61.2380251097
20
36.8724700822
30
0
10
61.1692221097
20
36.8724700822
30
0
0
SPLINE
5
19B
100
AcDbEntity
8
name
6
ByLayer
62
7
370
-1
100
AcDbSpline
210
0
220
0
230
1
70
8
71
3
72
8
73
4
74
0
42
1e-07
43
1e-07
40
0
40
0
40
0
40
0
40
1
40
1
40
1
40
1
10
61.1692221097
20
36.8724700822
30
0
10
61.1461081097
20
36.8724700822
30
0
10
61.0029081097
20
36.9843290822
30
0
10
60.8509711097
20
37.1210450822
30
0
0
LWPOLYLINE
5
19C
100
AcDbEntity
8
name
6
ByLayer
62
7
370
-1
100
AcDbPolyline
90
3
70
0
43
0
10
64.2580341097
20
41.7056080822
10
64.6231961097
20
41.5021760822
10
64.4978861097
20
41.2853860822
0
LWPOLYLINE
5
19D
100
AcDbEntity
8
name
6
ByLayer
62
7
370
-1
100
AcDbPolyline
90
3
70
0
43
0
10
60.8509711097
20
37.1210450822
10
60.8509711097
20
37.1210450822
10
60.8509711097
20
37.1210450822
0
SPLINE
5
19E
100
AcDbEntity
8
name
6
ByLayer
62
7
370
-1
100
AcDbSpline
210
0
220
0
230
1
70
8
71
3
72
8
73
4
74
0
42
1e-07
43
1e-07
40
0
40
0
40
0
40
0
40
1
40
1
40
1
40
1
10
65.0910891097
20
34.4200750822
30
0
10
65.0759901097
20
34.4955420822
30
0
10
65.0056861097
20
34.6796990822
30
0
10
64.9348481097
20
34.8293120822
30
0
0
SPLINE
5
19F
100
AcDbEntity
8
name
6
ByLayer
62
7
370
-1
100
AcDbSpline
210
0
220
0
230
1
70
8
71
3
72
8
73
4
74
0
42
1e-07
43
1e-07
40
0
40
0
40
0
40
0
40
1
40
1
40
1
40
1
10
64.9348481097
20
34.8293120822
30
0
10
64.8640101097
20
34.9789260822
30
0
10
64.8143171097
20
35.1084640822
30
0
10
64.8244171097
20
35.1171750822
30
0
0
SPLINE
5
1A0
100
AcDbEntity
8
name
6
ByLayer
62
7
370
-1
100
AcDbSpline
210
0
220
0
230
1
70
8
71
3
72
8
73
4
74
0
42
1e-07
43
1e-07
40
0
40
0
40
0
40
0
40
1
40
1
40
1
40
1
10
64.8244171097
20
35.1171750822
30
0
10
64.8345211097
20
35.1258840822
30
0
10
65.0243491097
20
35.1928470822
30
0
10
65.2462631097
20
35.2659780822
30
0
0
SPLINE
5
1A1
100
AcDbEntity
8
name
6
ByLayer
62
7
370
-1
100
AcDbSpline
210
0
220
0
230
1
70
8
71
3
72
8
73
4
74
0
42
1e-07
43
1e-07
40
0
40
0
40
0
40
0
40
1
40
1
40
1
40
1
10
65.2462631097
20
35.2659780822
30
0
10
65.6389251097
20
35.3953790822
30
0
10
65.6516141097
20
35.3965180822
30
0
10
65.7195781097
20
35.3084700822
30
0
0
SPLINE
5
1A2
100
AcDbEntity
8
name
6
ByLayer
62
7
370
-1
100
AcDbSpline
210
0
220
0
230
1
70
8
71
3
72
8
73
4
74
0
42
1e-07
43
1e-07
40
0
40
0
40
0
40
0
40
1
40
1
40
1
40
1
10
65.7195781097
20
35.3084700822
30
0
10
65.8118681097
20
35.1889120822
30
0
10
66.0973531097
20
34.5801450822
30
0
10
66.1390621097
20
34.4139600822
30
0
0
LWPOLYLINE
5
1A3
100
AcDbEntity
8
name
6
ByLayer
62
7
370
-1
100
AcDbPolyline
90
5
70
0
43
0
10
60.5507381097
20
33.8752370822
10
60.5507381097
20
34.2828610822
10
62.8346291097
20
34.2828610822
10
65.1185211097
20
34.2828610822
10
65.0910891097
20
34.4200750822
0
LWPOLYLINE
5
1A4
100
AcDbEntity
8
name
6
ByLayer
62
7
370
-1
100
AcDbPolyline
90
10
70
0
43
0
10
66.1390621097
20
34.4139600822
10
66.1719661097
20
34.2828610822
10
68.3727301097
20
34.2828610822
10
70.5734961097
20
34.2828610822
10
70.5734961097
20
33.8752370822
10
70.5734961097
20
33.4676140822
10
65.5621211097
20
33.4676140822
10
60.5507461097
20
33.4676140822
10
60.5507461097
20
33.8752370822
10
60.5507381097
20
33.8752370822
0
SPLINE
5
1A5
100
AcDbEntity
8
name
6
ByLayer
62
7
370
-1
100
AcDbSpline
210
0
220
0
230
1
70
8
71
3
72
8
73
4
74
0
42
1e-07
43
1e-07
40
0
40
0
40
0
40
0
40
1
40
1
40
1
40
1
10
64.2570461097
20
26.2253560822
30
0
10
64.6971551097
20
26.3827350822
30
0
10
65.3600751097
20
26.7244350822
30
0
10
65.7551301097
20
26.9975360822
30
0
0
SPLINE
5
1A6
100
AcDbEntity
8
name
6
ByLayer
62
7
370
-1
100
AcDbSpline
210
0
220
0
230
1
70
8
71
3
72
8
73
4
74
0
42
1e-07
43
1e-07
40
0
40
0
40
0
40
0
40
1
40
1
40
1
40
1
10
65.7551301097
20
26.9975360822
30
0
10
66.3448671097
20
27.4052200822
30
0
10
66.3497581097
20
27.3272280822
30
0
10
65.6933201097
20
27.9832650822
30
0
0
SPLINE
5
1A7
100
AcDbEntity
8
name
6
ByLayer
62
7
370
-1
100
AcDbSpline
210
0
220
0
230
1
70
8
71
3
72
8
73
4
74
0
42
1e-07
43
1e-07
40
0
40
0
40
0
40
0
40
1
40
1
40
1
40
1
10
65.6933201097
20
27.9832650822
30
0
10
65.2500451097
20
28.4262750822
30
0
10
64.7397201097
20
29.0076810822
30
0
10
64.5456441097
20
29.2907980822
30
0
0
SPLINE
5
1A8
100
AcDbEntity
8
name
6
ByLayer
62
7
370
-1
100
AcDbSpline
210
0
220
0
230
1
70
8
71
3
72
8
73
4
74
0
42
1e-07
43
1e-07
40
0
40
0
40
0
40
0
40
1
40
1
40
1
40
1
10
64.5456441097
20
29.2907980822
30
0
10
64.5383631097
20
29.3014090822
30
0
10
64.4840121097
20
29.2474680822
30
0
10
64.4248591097
20
29.1709070822
30
0
0
SPLINE
5
1A9
100
AcDbEntity
8
name
6
ByLayer
62
7
370
-1
100
AcDbSpline
210
0
220
0
230
1
70
8
71
3
72
8
73
4
74
0
42
1e-07
43
1e-07
40
0
40
0
40
0
40
0
40
1
40
1
40
1
40
1
10
64.4248591097
20
29.1709070822
30
0
10
64.3657081097
20
29.0943480822
30
0
10
64.2250881097
20
28.9345990822
30
0
10
64.1123681097
20
28.8159080822
30
0
0
LWPOLYLINE
5
1AA
100
AcDbEntity
8
name
6
ByLayer
62
7
370
-1
100
AcDbPolyline
90
3
70
0
43
0
10
64.1841571097
20
25.6995310822
10
63.9590511097
20
26.1187950822
10
64.2570461097
20
26.2253560822
0
SPLINE
5
1AB
100
AcDbEntity
8
name
6
ByLayer
62
7
370
-1
100
AcDbSpline
210
0
220
0
230
1
70
8
71
3
72
8
73
4
74
0
42
1e-07
43
1e-07
40
0
40
0
40
0
40
0
40
1
40
1
40
1
40
1
10
63.7429501097
20
29.6127740822
30
0
10
64.3847891097
20
30.4338580822
30
0
10
64.9548131097
20
31.4618280822
30
0
10
65.3486731097
20
32.5084990822
30
0
0
SPLINE
5
1AC
100
AcDbEntity
8
name
6
ByLayer
62
7
370
-1
100
AcDbSpline
210
0
220
0
230
1
70
8
71
3
72
8
73
4
74
0
42
1e-07
43
1e-07
40
0
40
0
40
0
40
0
40
1
40
1
40
1
40
1
10
65.3486731097
20
32.5084990822
30
0
10
65.4628131097
20
32.8118190822
30
0
10
65.5632081097
20
33.0692640822
30
0
10
65.5717731097
20
33.0805990822
30
0
0
SPLINE
5
1AD
100
AcDbEntity
8
name
6
ByLayer
62
7
370
-1
100
AcDbSpline
210
0
220
0
230
1
70
8
71
3
72
8
73
4
74
0
42
1e-07
43
1e-07
40
0
40
0
40
0
40
0
40
1
40
1
40
1
40
1
10
65.5717731097
20
33.0805990822
30
0
10
65.5870411097
20
33.1007870822
30
0
10
66.2973861097
20
32.9467960822
30
0
10
66.3624381097
20
32.9092010822
30
0
0
SPLINE
5
1AE
100
AcDbEntity
8
name
6
ByLayer
62
7
370
-1
100
AcDbSpline
210
0
220
0
230
1
70
8
71
3
72
8
73
4
74
0
42
1e-07
43
1e-07
40
0
40
0
40
0
40
0
40
1
40
1
40
1
40
1
10
66.3624381097
20
32.9092010822
30
0
10
66.3806131097
20
32.8986990822
30
0
10
66.3536331097
20
32.7684990822
30
0
10
66.3024941097
20
32.6198630822
30
0
0
SPLINE
5
1AF
100
AcDbEntity
8
name
6
ByLayer
62
7
370
-1
100
AcDbSpline
210
0
220
0
230
1
70
8
71
3
72
8
73
4
74
0
42
1e-07
43
1e-07
40
0
40
0
40
0
40
0
40
1
40
1
40
1
40
1
10
66.3024941097
20
32.6198630822
30
0
10
66.2513561097
20
32.4712280822
30
0
10
66.2095161097
20
32.3206250822
30
0
10
66.2095161097
20
32.2851910822
30
0
0
SPLINE
5
1B0
100
AcDbEntity
8
name
6
ByLayer
62
7
370
-1
100
AcDbSpline
210
0
220
0
230
1
70
8
71
3
72
8
73
4
74
0
42
1e-07
43
1e-07
40
0
40
0
40
0
40
0
40
1
40
1
40
1
40
1
10
66.2095161097
20
32.2851910822
30
0
10
66.2095161097
20
32.2324050822
30
0
10
66.5344391097
20
32.2207650822
30
0
10
68.0078561097
20
32.2207650822
30
0
0
LWPOLYLINE
5
1B1
100
AcDbEntity
8
name
6
ByLayer
62
7
370
-1
100
AcDbPolyline
90
5
70
0
43
0
10
64.1123681097
20
28.8159080822
10
63.9074271097
20
28.6001070822
10
63.6518181097
20
28.8846520822
10
63.3962071097
20
29.1691990822
10
63.7429501097
20
29.6127740822
0
SPLINE
5
1B2
100
AcDbEntity
8
name
6
ByLayer
62
7
370
-1
100
AcDbSpline
210
0
220
0
230
1
70
8
71
3
72
8
73
4
74
0
42
1e-07
43
1e-07
40
0
40
0
40
0
40
0
40
1
40
1
40
1
40
1
10
69.8061961097
20
31.9141040822
30
0
10
69.8061961097
20
31.5626800822
30
0
10
69.7060271097
20
31.2068980822
30
0
10
69.3688871097
20
30.3608540822
30
0
0
SPLINE
5
1B3
100
AcDbEntity
8
name
6
ByLayer
62
7
370
-1
100
AcDbSpline
210
0
220
0
230
1
70
8
71
3
72
8
73
4
74
0
42
1e-07
43
1e-07
40
0
40
0
40
0
40
0
40
1
40
1
40
1
40
1
10
69.3688871097
20
30.3608540822
30
0
10
68.9166201097
20
29.2258980822
30
0
10
68.4119871097
20
28.3615700822
30
0
10
67.8419431097
20
27.7455350822
30
0
0
SPLINE
5
1B4
100
AcDbEntity
8
name
6
ByLayer
62
7
370
-1
100
AcDbSpline
210
0
220
0
230
1
70
8
71
3
72
8
73
4
74
0
42
1e-07
43
1e-07
40
0
40
0
40
0
40
0
40
1
40
1
40
1
40
1
10
67.8419431097
20
27.7455350822
30
0
10
67.5898141097
20
27.4730610822
30
0
10
67.5836031097
20
27.4599880822
30
0
10
67.6741001097
20
27.3923620822
30
0
0
SPLINE
5
1B5
100
AcDbEntity
8
name
6
ByLayer
62
7
370
-1
100
AcDbSpline
210
0
220
0
230
1
70
8
71
3
72
8
73
4
74
0
42
1e-07
43
1e-07
40
0
40
0
40
0
40
0
40
1
40
1
40
1
40
1
10
67.6741001097
20
27.3923620822
30
0
10
68.0754231097
20
27.0924760822
30
0
10
69.3470481097
20
26.4632500822
30
0
10
70.0346241097
20
26.2243260822
30
0
0
LWPOLYLINE
5
1B6
100
AcDbEntity
8
name
6
ByLayer
62
7
370
-1
100
AcDbPolyline
90
3
70
0
43
0
10
68.0078561097
20
32.2207650822
10
69.8061961097
20
32.2207650822
10
69.8061961097
20
31.9141040822
0
SPLINE
5
1B7
100
AcDbEntity
8
name
6
ByLayer
62
7
370
-1
100
AcDbSpline
210
0
220
0
230
1
70
8
71
3
72
8
73
4
74
0
42
1e-07
43
1e-07
40
0
40
0
40
0
40
0
40
1
40
1
40
1
40
1
10
70.3028981097
20
25.7524960822
30
0
10
70.0116651097
20
25.2270460822
30
0
10
70.0817941097
20
25.2560360822
30
0
10
69.5903941097
20
25.4579380822
30
0
0
SPLINE
5
1B8
100
AcDbEntity
8
name
6
ByLayer
62
7
370
-1
100
AcDbSpline
210
0
220
0
230
1
70
8
71
3
72
8
73
4
74
0
42
1e-07
43
1e-07
40
0
40
0
40
0
40
0
40
1
40
1
40
1
40
1
10
69.5903941097
20
25.4579380822
30
0
10
68.7878591097
20
25.7876750822
30
0
10
68.0347071097
20
26.1926580822
30
0
10
67.0699501097
20
26.8132280822
30
0
0
SPLINE
5
1B9
100
AcDbEntity
8
name
6
ByLayer
62
7
370
-1
100
AcDbSpline
210
0
220
0
230
1
70
8
71
3
72
8
73
4
74
0
42
1e-07
43
1e-07
40
0
40
0
40
0
40
0
40
1
40
1
40
1
40
1
10
67.0699501097
20
26.8132280822
30
0
10
67.0116451097
20
26.8507300822
30
0
10
66.9049651097
20
26.7889570822
30
0
10
66.5840171097
20
26.5317990822
30
0
0
SPLINE
5
1BA
100
AcDbEntity
8
name
6
ByLayer
62
7
370
-1
100
AcDbSpline
210
0
220
0
230
1
70
8
71
3
72
8
73
4
74
0
42
1e-07
43
1e-07
40
0
40
0
40
0
40
0
40
1
40
1
40
1
40
1
10
66.5840171097
20
26.5317990822
30
0
10
66.0873991097
20
26.1339080822
30
0
10
65.3170651097
20
25.6656020822
30
0
10
64.7938641097
20
25.4435190822
30
0
0
LWPOLYLINE
5
1BB
100
AcDbEntity
8
name
6
ByLayer
62
7
370
-1
100
AcDbPolyline
90
3
70
0
43
0
10
70.0346241097
20
26.2243260822
10
70.4788551097
20
26.0699620822
10
70.3028981097
20
25.7524960822
0
SPLINE
5
1BC
100
AcDbEntity
8
name
6
ByLayer
62
7
370
-1
100
AcDbSpline
210
0
220
0
230
1
70
8
71
3
72
8
73
4
74
0
42
1e-07
43
1e-07
40
0
40
0
40
0
40
0
40
1
40
1
40
1
40
1
10
67.4044871097
20
28.5281740822
30
0
10
67.7310471097
20
28.9591670822
30
0
10
68.0109801097
20
29.4016710822
30
0
10
68.2238771097
20
29.8234160822
30
0
0
SPLINE
5
1BD
100
AcDbEntity
8
name
6
ByLayer
62
7
370
-1
100
AcDbSpline
210
0
220
0
230
1
70
8
71
3
72
8
73
4
74
0
42
1e-07
43
1e-07
40
0
40
0
40
0
40
0
40
1
40
1
40
1
40
1
10
68.2238771097
20
29.8234160822
30
0
10
68.4023521097
20
30.1769720822
30
0
10
68.7696361097
20
31.0752710822
30
0
10
68.8401801097
20
31.3307560822
30
0
0
LWPOLYLINE
5
1BE
100
AcDbEntity
8
name
6
ByLayer
62
7
370
-1
100
AcDbPolyline
90
5
70
0
43
0
10
64.7938641097
20
25.4435190822
10
64.4092631097
20
25.2802670822
10
64.1841571097
20
25.6995310822
10
64.1841571097
20
25.6995310822
10
64.1841571097
20
25.6995310822
0
SPLINE
5
1BF
100
AcDbEntity
8
name
6
ByLayer
62
7
370
-1
100
AcDbSpline
210
0
220
0
230
1
70
8
71
3
72
8
73
4
74
0
42
1e-07
43
1e-07
40
0
40
0
40
0
40
0
40
1
40
1
40
1
40
1
10
65.7095621097
20
31.2017050822
30
0
10
65.6386991097
20
31.0368580822
30
0
10
65.4740251097
20
30.7133260822
30
0
10
65.3436251097
20
30.4827470822
30
0
0
SPLINE
5
1C0
100
AcDbEntity
8
name
6
ByLayer
62
7
370
-1
100
AcDbSpline
210
0
220
0
230
1
70
8
71
3
72
8
73
4
74
0
42
1e-07
43
1e-07
40
0
40
0
40
0
40
0
40
1
40
1
40
1
40
1
10
65.3436251097
20
30.4827470822
30
0
10
65.2132241097
20
30.2521680822
30
0
10
65.1065321097
20
30.0325120822
30
0
10
65.1065321097
20
29.9946230822
30
0
0
SPLINE
5
1C1
100
AcDbEntity
8
name
6
ByLayer
62
7
370
-1
100
AcDbSpline
210
0
220
0
230
1
70
8
71
3
72
8
73
4
74
0
42
1e-07
43
1e-07
40
0
40
0
40
0
40
0
40
1
40
1
40
1
40
1
10
65.1065321097
20
29.9946230822
30
0
10
65.1065321097
20
29.9078300822
30
0
10
65.7357411097
20
29.0729840822
30
0
10
66.0742531097
20
28.7106330822
30
0
0
SPLINE
5
1C2
100
AcDbEntity
8
name
6
ByLayer
62
7
370
-1
100
AcDbSpline
210
0
220
0
230
1
70
8
71
3
72
8
73
4
74
0
42
1e-07
43
1e-07
40
0
40
0
40
0
40
0
40
1
40
1
40
1
40
1
10
66.0742531097
20
28.7106330822
30
0
10
66.2145881097
20
28.5604150822
30
0
10
66.4571831097
20
28.3281380822
30
0
10
66.6133561097
20
28.1944570822
30
0
0
LWPOLYLINE
5
1C3
100
AcDbEntity
8
name
6
ByLayer
62
7
370
-1
100
AcDbPolyline
90
5
70
0
43
0
10
68.8401801097
20
31.3307560822
10
68.8873061097
20
31.5014290822
10
67.3628571097
20
31.5014290822
10
65.8384051097
20
31.5014290822
10
65.7095621097
20
31.2017050822
0
SPLINE
5
1C4
100
AcDbEntity
8
name
6
ByLayer
62
7
370
-1
100
AcDbSpline
210
0
220
0
230
1
70
8
71
3
72
8
73
4
74
0
42
1e-07
43
1e-07
40
0
40
0
40
0
40
0
40
1
40
1
40
1
40
1
10
67.0146401097
20
28.0599530822
30
0
10
67.0791731097
20
28.1196570822
30
0
10
67.2546051097
20
28.3303560822
30
0
10
67.4044871097
20
28.5281740822
30
0
0
LWPOLYLINE
5
1C5
100
AcDbEntity
8
name
6
ByLayer
62
7
370
-1
100
AcDbPolyline
90
3
70
0
43
0
10
66.6133561097
20
28.1944570822
10
66.8973061097
20
27.9514020822
10
67.0146401097
20
28.0599530822
0
LWPOLYLINE
5
1C6
100
AcDbEntity
8
name
6
ByLayer
62
7
370
-1
100
AcDbPolyline
90
2
70
0
43
0
10
67.4044871097
20
28.5281740822
10
67.4044871097
20
28.5281740822
0
SPLINE
5
1C7
100
AcDbEntity
8
name
6
ByLayer
62
7
370
-1
100
AcDbSpline
210
0
220
0
230
1
70
8
71
3
72
8
73
4
74
0
42
1e-07
43
1e-07
40
0
40
0
40
0
40
0
40
1
40
1
40
1
40
1
10
66.6984921097
20
30.6486190822
30
0
10
67.1110781097
20
30.3289520822
30
0
10
67.5215311097
20
29.8899280822
30
0
10
67.4771601097
20
29.8157530822
30
0
0
SPLINE
5
1C8
100
AcDbEntity
8
name
6
ByLayer
62
7
370
-1
100
AcDbSpline
210
0
220
0
230
1
70
8
71
3
72
8
73
4
74
0
42
1e-07
43
1e-07
40
0
40
0
40
0
40
0
40
1
40
1
40
1
40
1
10
67.4771601097
20
29.8157530822
30
0
10
67.3784381097
20
29.6507210822
30
0
10
67.0579751097
20
29.2483680822
30
0
10
67.0309891097
20
29.2555680822
30
0
0
SPLINE
5
1C9
100
AcDbEntity
8
name
6
ByLayer
62
7
370
-1
100
AcDbSpline
210
0
220
0
230
1
70
8
71
3
72
8
73
4
74
0
42
1e-07
43
1e-07
40
0
40
0
40
0
40
0
40
1
40
1
40
1
40
1
10
67.0309891097
20
29.2555680822
30
0
10
67.0143661097
20
29.2599990822
30
0
10
66.7593501097
20
29.5048380822
30
0
10
66.4642611097
20
29.7996490822
30
0
0
LWPOLYLINE
5
1CA
100
AcDbEntity
8
name
6
ByLayer
62
7
370
-1
100
AcDbPolyline
90
5
70
0
43
0
10
66.4642611097
20
29.7996490822
10
65.9277371097
20
30.3356720822
10
66.1859481097
20
30.5906740822
10
66.4441561097
20
30.8456760822
10
66.6984921097
20
30.6486190822
0
LWPOLYLINE
5
1CB
100
AcDbEntity
8
name
6
ByLayer
62
7
370
-1
100
AcDbPolyline
90
3
70
0
43
0
10
66.4642611097
20
29.7996490822
10
66.4642611097
20
29.7996490822
10
66.4642611097
20
29.7996490822
0
SPLINE
5
1CC
100
AcDbEntity
8
name
6
ByLayer
62
7
370
-1
100
AcDbSpline
210
0
220
0
230
1
70
8
71
3
72
8
73
4
74
0
42
1e-07
43
1e-07
40
0
40
0
40
0
40
0
40
1
40
1
40
1
40
1
10
61.6184151097
20
28.8542560822
30
0
10
61.4803131097
20
28.6617240822
30
0
10
61.2537221097
20
28.3780400822
30
0
10
61.1148831097
20
28.2238480822
30
0
0
LWPOLYLINE
5
1CD
100
AcDbEntity
8
name
6
ByLayer
62
7
370
-1
100
AcDbPolyline
90
3
70
0
43
0
10
61.8820481097
20
27.2597290822
10
61.8695171097
20
29.2043190822
10
61.6184151097
20
28.8542560822
0
SPLINE
5
1CE
100
AcDbEntity
8
name
6
ByLayer
62
7
370
-1
100
AcDbSpline
210
0
220
0
230
1
70
8
71
3
72
8
73
4
74
0
42
1e-07
43
1e-07
40
0
40
0
40
0
40
0
40
1
40
1
40
1
40
1
10
60.7277191097
20
29.1108530822
30
0
10
61.5968201097
20
30.2561530822
30
0
10
62.3291551097
20
31.5711600822
30
0
10
62.7333911097
20
32.7123110822
30
0
0
SPLINE
5
1CF
100
AcDbEntity
8
name
6
ByLayer
62
7
370
-1
100
AcDbSpline
210
0
220
0
230
1
70
8
71
3
72
8
73
4
74
0
42
1e-07
43
1e-07
40
0
40
0
40
0
40
0
40
1
40
1
40
1
40
1
10
62.7333911097
20
32.7123110822
30
0
10
62.8058001097
20
32.9167220822
30
0
10
62.8904131097
20
33.0839680822
30
0
10
62.9214181097
20
33.0839680822
30
0
0
SPLINE
5
1D0
100
AcDbEntity
8
name
6
ByLayer
62
7
370
-1
100
AcDbSpline
210
0
220
0
230
1
70
8
71
3
72
8
73
4
74
0
42
1e-07
43
1e-07
40
0
40
0
40
0
40
0
40
1
40
1
40
1
40
1
10
62.9214181097
20
33.0839680822
30
0
10
62.9524261097
20
33.0839680822
30
0
10
63.1276641097
20
33.0325320822
30
0
10
63.3108341097
20
32.9696660822
30
0
0
SPLINE
5
1D1
100
AcDbEntity
8
name
6
ByLayer
62
7
370
-1
100
AcDbSpline
210
0
220
0
230
1
70
8
71
3
72
8
73
4
74
0
42
1e-07
43
1e-07
40
0
40
0
40
0
40
0
40
1
40
1
40
1
40
1
10
63.3108341097
20
32.9696660822
30
0
10
63.5299911097
20
32.8944510822
30
0
10
63.6386831097
20
32.8329550822
30
0
10
63.6286841097
20
32.7898320822
30
0
0
SPLINE
5
1D2
100
AcDbEntity
8
name
6
ByLayer
62
7
370
-1
100
AcDbSpline
210
0
220
0
230
1
70
8
71
3
72
8
73
4
74
0
42
1e-07
43
1e-07
40
0
40
0
40
0
40
0
40
1
40
1
40
1
40
1
10
63.6286841097
20
32.7898320822
30
0
10
63.5958791097
20
32.6483370822
30
0
10
63.2581431097
20
31.8329040822
30
0
10
63.0139481097
20
31.3056000822
30
0
0
LWPOLYLINE
5
1D3
100
AcDbEntity
8
name
6
ByLayer
62
7
370
-1
100
AcDbPolyline
90
5
70
0
43
0
10
61.1148831097
20
28.2238480822
10
60.8624461097
20
27.9435030822
10
60.6613521097
20
28.3509500822
10
60.4602601097
20
28.7583970822
10
60.7277191097
20
29.1108530822
0
LWPOLYLINE
5
1D4
100
AcDbEntity
8
name
6
ByLayer
62
7
370
-1
100
AcDbPolyline
90
9
70
0
43
0
10
63.0139481097
20
31.3056000822
10
62.7566971097
20
30.7501040822
10
62.7566971097
20
28.0326230822
10
62.7566971097
20
25.3151390822
10
62.3256331097
20
25.3151390822
10
61.8945701097
20
25.3151390822
10
61.8820391097
20
27.2597290822
10
61.8820391097
20
27.2597290822
10
61.8820481097
20
27.2597290822
0
SPLINE
5
1D5
100
AcDbEntity
8
name
6
ByLayer
62
7
370
-1
100
AcDbSpline
210
0
220
0
230
1
70
8
71
3
72
8
73
4
74
0
42
1e-07
43
1e-07
40
0
40
0
40
0
40
0
40
1
40
1
40
1
40
1
10
8.81325371251
20
30.6609328082
30
0
10
8.81325371251
20
31.7291468082
30
0
10
8.79706871251
20
32.6023208082
30
0
10
8.77728671251
20
32.6013198082
30
0
0
SPLINE
5
1D6
100
AcDbEntity
8
name
6
ByLayer
62
7
370
-1
100
AcDbSpline
210
0
220
0
230
1
70
8
71
3
72
8
73
4
74
0
42
1e-07
43
1e-07
40
0
40
0
40
0
40
0
40
1
40
1
40
1
40
1
10
8.77728671251
20
32.6013198082
30
0
10
8.75750471251
20
32.6003328082
30
0
10
8.66105071251
20
32.4838478082
30
0
10
8.56294371251
20
32.3424938082
30
0
0
SPLINE
5
1D7
100
AcDbEntity
8
name
6
ByLayer
62
7
370
-1
100
AcDbSpline
210
0
220
0
230
1
70
8
71
3
72
8
73
4
74
0
42
1e-07
43
1e-07
40
0
40
0
40
0
40
0
40
1
40
1
40
1
40
1
10
8.56294371251
20
32.3424938082
30
0
10
8.46483671251
20
32.2011398082
30
0
10
8.24903671251
20
31.9219558082
30
0
10
8.08338671251
20
31.7220838082
30
0
0
SPLINE
5
1D8
100
AcDbEntity
8
name
6
ByLayer
62
7
370
-1
100
AcDbSpline
210
0
220
0
230
1
70
8
71
3
72
8
73
4
74
0
42
1e-07
43
1e-07
40
0
40
0
40
0
40
0
40
1
40
1
40
1
40
1
10
7.58080171251
20
31.7531208082
30
0
10
7.47002971251
20
31.9700628082
30
0
10
7.37831471251
20
32.1599738082
30
0
10
7.37698971251
20
32.1751448082
30
0
0
SPLINE
5
1D9
100
AcDbEntity
8
name
6
ByLayer
62
7
370
-1
100
AcDbSpline
210
0
220
0
230
1
70
8
71
3
72
8
73
4
74
0
42
1e-07
43
1e-07
40
0
40
0
40
0
40
0
40
1
40
1
40
1
40
1
10
7.37698971251
20
32.1751448082
30
0
10
7.37566571251
20
32.1903168082
30
0
10
7.47497671251
20
32.3305868082
30
0
10
7.59768171251
20
32.4868568082
30
0
0
SPLINE
5
1DA
100
AcDbEntity
8
name
6
ByLayer
62
7
370
-1
100
AcDbSpline
210
0
220
0
230
1
70
8
71
3
72
8
73
4
74
0
42
1e-07
43
1e-07
40
0
40
0
40
0
40
0
40
1
40
1
40
1
40
1
10
7.59768171251
20
32.4868568082
30
0
10
8.40979071251
20
33.5211108082
30
0
10
9.21003171251
20
34.9771858082
30
0
10
9.69532771251
20
36.3036178082
30
0
0
LWPOLYLINE
5
1DB
100
AcDbEntity
8
name
6
ByLayer
62
7
370
-1
100
AcDbPolyline
90
3
70
0
43
0
10
8.08338671251
20
31.7220838082
10
7.78220571251
20
31.3586818082
10
7.58080171251
20
31.7531208082
0
SPLINE
5
1DC
100
AcDbEntity
8
name
6
ByLayer
62
7
370
-1
100
AcDbSpline
210
0
220
0
230
1
70
8
71
3
72
8
73
4
74
0
42
1e-07
43
1e-07
40
0
40
0
40
0
40
0
40
1
40
1
40
1
40
1
10
10.1464247125
20
36.4047158082
30
0
10
10.3495167125
20
36.3372908082
30
0
10
10.5242267125
20
36.2748438082
30
0
10
10.5346707125
20
36.2659428082
30
0
0
SPLINE
5
1DD
100
AcDbEntity
8
name
6
ByLayer
62
7
370
-1
100
AcDbSpline
210
0
220
0
230
1
70
8
71
3
72
8
73
4
74
0
42
1e-07
43
1e-07
40
0
40
0
40
0
40
0
40
1
40
1
40
1
40
1
10
10.5346707125
20
36.2659428082
30
0
10
10.5638147125
20
36.2411078082
30
0
10
10.1736797125
20
35.2816298082
30
0
10
9.88581271251
20
34.6701758082
30
0
0
LWPOLYLINE
5
1DE
100
AcDbEntity
8
name
6
ByLayer
62
7
370
-1
100
AcDbPolyline
90
3
70
0
43
0
10
9.69532771251
20
36.3036178082
10
9.77716771251
20
36.5273058082
10
10.1464247125
20
36.4047158082
0
SPLINE
5
1DF
100
AcDbEntity
8
name
6
ByLayer
62
7
370
-1
100
AcDbSpline
210
0
220
0
230
1
70
8
71
3
72
8
73
4
74
0
42
1e-07
43
1e-07
40
0
40
0
40
0
40
0
40
1
40
1
40
1
40
1
10
11.2736437125
20
28.7775878082
30
0
10
11.1642977125
20
28.9200288082
30
0
10
10.8687887125
20
29.4954418082
30
0
10
10.8927027125
20
29.5193548082
30
0
0
SPLINE
5
1E0
100
AcDbEntity
8
name
6
ByLayer
62
7
370
-1
100
AcDbSpline
210
0
220
0
230
1
70
8
71
3
72
8
73
4
74
0
42
1e-07
43
1e-07
40
0
40
0
40
0
40
0
40
1
40
1
40
1
40
1
10
10.8927027125
20
29.5193548082
30
0
10
10.9070557125
20
29.5337088082
30
0
10
11.1194277125
20
29.6267148082
30
0
10
11.3646427125
20
29.7260358082
30
0
0
SPLINE
5
1E1
100
AcDbEntity
8
name
6
ByLayer
62
7
370
-1
100
AcDbSpline
210
0
220
0
230
1
70
8
71
3
72
8
73
4
74
0
42
1e-07
43
1e-07
40
0
40
0
40
0
40
0
40
1
40
1
40
1
40
1
10
11.3646427125
20
29.7260358082
30
0
10
11.9662137125
20
29.9696968082
30
0
10
12.6272497125
20
30.3527548082
30
0
10
13.0494517125
20
30.7023508082
30
0
0
LWPOLYLINE
5
1E2
100
AcDbEntity
8
name
6
ByLayer
62
7
370
-1
100
AcDbPolyline
90
8
70
0
43
0
10
9.88581271251
20
34.6701758082
10
9.62850071251
20
34.1236238082
10
9.62850071251
20
31.4211748082
10
9.62850071251
20
28.7187258082
10
9.22087771251
20
28.7187258082
10
8.81325371251
20
28.7187258082
10
8.81325371251
20
30.6609328082
10
8.81325371251
20
30.6609328082
0
SPLINE
5
1E3
100
AcDbEntity
8
name
6
ByLayer
62
7
370
-1
100
AcDbSpline
210
0
220
0
230
1
70
8
71
3
72
8
73
4
74
0
42
1e-07
43
1e-07
40
0
40
0
40
0
40
0
40
1
40
1
40
1
40
1
10
12.6728787125
20
31.3134108082
30
0
10
12.3909717125
20
31.5875628082
30
0
10
11.9966617125
20
32.0131758082
30
0
10
11.7966337125
20
32.2592158082
30
0
0
LWPOLYLINE
5
1E4
100
AcDbEntity
8
name
6
ByLayer
62
7
370
-1
100
AcDbPolyline
90
3
70
0
43
0
10
13.0494517125
20
30.7023508082
10
13.1854357125
20
30.8149498082
10
12.6728787125
20
31.3134108082
0
SPLINE
5
1E5
100
AcDbEntity
8
name
6
ByLayer
62
7
370
-1
100
AcDbSpline
210
0
220
0
230
1
70
8
71
3
72
8
73
4
74
0
42
1e-07
43
1e-07
40
0
40
0
40
0
40
0
40
1
40
1
40
1
40
1
10
10.6487287125
20
32.1805648082
30
0
10
10.5577767125
20
32.2679148082
30
0
10
10.4415587125
20
32.3973948082
30
0
10
10.3904657125
20
32.4682978082
30
0
0
LWPOLYLINE
5
1E6
100
AcDbEntity
8
name
6
ByLayer
62
7
370
-1
100
AcDbPolyline
90
5
70
0
43
0
10
11.7966337125
20
32.2592158082
10
11.4329457125
20
32.7065608082
10
11.1235207125
20
32.3641538082
10
10.8140947125
20
32.0217468082
10
10.6487287125
20
32.1805648082
0
SPLINE
5
1E7
100
AcDbEntity
8
name
6
ByLayer
62
7
370
-1
100
AcDbSpline
210
0
220
0
230
1
70
8
71
3
72
8
73
4
74
0
42
1e-07
43
1e-07
40
0
40
0
40
0
40
0
40
1
40
1
40
1
40
1
10
10.6535077125
20
33.0525518082
30
0
10
11.3145787125
20
33.8982398082
30
0
10
11.8885337125
20
34.9453108082
30
0
10
12.2895727125
20
36.0372428082
30
0
0
LWPOLYLINE
5
1E8
100
AcDbEntity
8
name
6
ByLayer
62
7
370
-1
100
AcDbPolyline
90
3
70
0
43
0
10
10.3904657125
20
32.4682978082
10
10.2975707125
20
32.5972128082
10
10.6535077125
20
33.0525518082
0
SPLINE
5
1E9
100
AcDbEntity
8
name
6
ByLayer
62
7
370
-1
100
AcDbSpline
210
0
220
0
230
1
70
8
71
3
72
8
73
4
74
0
42
1e-07
43
1e-07
40
0
40
0
40
0
40
0
40
1
40
1
40
1
40
1
10
12.8583977125
20
36.4256518082
30
0
10
13.0733167125
20
36.3726218082
30
0
10
13.2567527125
20
36.3230948082
30
0
10
13.2660337125
20
36.3155898082
30
0
0
SPLINE
5
1EA
100
AcDbEntity
8
name
6
ByLayer
62
7
370
-1
100
AcDbSpline
210
0
220
0
230
1
70
8
71
3
72
8
73
4
74
0
42
1e-07
43
1e-07
40
0
40
0
40
0
40
0
40
1
40
1
40
1
40
1
10
13.2660337125
20
36.3155898082
30
0
10
13.2799977125
20
36.3042978082
30
0
10
13.1809987125
20
35.9702118082
30
0
10
13.0931757125
20
35.7322508082
30
0
0
SPLINE
5
1EB
100
AcDbEntity
8
name
6
ByLayer
62
7
370
-1
100
AcDbSpline
210
0
220
0
230
1
70
8
71
3
72
8
73
4
74
0
42
1e-07
43
1e-07
40
0
40
0
40
0
40
0
40
1
40
1
40
1
40
1
10
13.0931757125
20
35.7322508082
30
0
10
13.0757257125
20
35.6849658082
30
0
10
13.4519177125
20
35.6723068082
30
0
10
14.8745227125
20
35.6723068082
30
0
0
LWPOLYLINE
5
1EC
100
AcDbEntity
8
name
6
ByLayer
62
7
370
-1
100
AcDbPolyline
90
3
70
0
43
0
10
12.2895727125
20
36.0372428082
10
12.4676377125
20
36.5220678082
10
12.8583977125
20
36.4256518082
0
SPLINE
5
1ED
100
AcDbEntity
8
name
6
ByLayer
62
7
370
-1
100
AcDbSpline
210
0
220
0
230
1
70
8
71
3
72
8
73
4
74
0
42
1e-07
43
1e-07
40
0
40
0
40
0
40
0
40
1
40
1
40
1
40
1
10
16.6779927125
20
35.2976568082
30
0
10
16.6779927125
20
34.8838998082
30
0
10
16.5806117125
20
34.5452458082
30
0
10
16.1834147125
20
33.5777148082
30
0
0
SPLINE
5
1EE
100
AcDbEntity
8
name
6
ByLayer
62
7
370
-1
100
AcDbSpline
210
0
220
0
230
1
70
8
71
3
72
8
73
4
74
0
42
1e-07
43
1e-07
40
0
40
0
40
0
40
0
40
1
40
1
40
1
40
1
10
16.1834147125
20
33.5777148082
30
0
10
15.7726757125
20
32.5772008082
30
0
10
15.3464987125
20
31.8569458082
30
0
10
14.7696737125
20
31.1884458082
30
0
0
LWPOLYLINE
5
1EF
100
AcDbEntity
8
name
6
ByLayer
62
7
370
-1
100
AcDbPolyline
90
3
70
0
43
0
10
14.8745227125
20
35.6723068082
10
16.6779927125
20
35.6723068082
10
16.6779927125
20
35.2976568082
0
SPLINE
5
1F0
100
AcDbEntity
8
name
6
ByLayer
62
7
370
-1
100
AcDbSpline
210
0
220
0
230
1
70
8
71
3
72
8
73
4
74
0
42
1e-07
43
1e-07
40
0
40
0
40
0
40
0
40
1
40
1
40
1
40
1
10
14.7277917125
20
30.6964588082
30
0
10
15.1229157125
20
30.4472118082
30
0
10
16.3748957125
20
29.8414078082
30
0
10
16.8458377125
20
29.6715858082
30
0
0
SPLINE
5
1F1
100
AcDbEntity
8
name
6
ByLayer
62
7
370
-1
100
AcDbSpline
210
0
220
0
230
1
70
8
71
3
72
8
73
4
74
0
42
1e-07
43
1e-07
40
0
40
0
40
0
40
0
40
1
40
1
40
1
40
1
10
16.8458377125
20
29.6715858082
30
0
10
17.0832187125
20
29.5859858082
30
0
10
17.2967757125
20
29.4995888082
30
0
10
17.3204097125
20
29.4795938082
30
0
0
SPLINE
5
1F2
100
AcDbEntity
8
name
6
ByLayer
62
7
370
-1
100
AcDbSpline
210
0
220
0
230
1
70
8
71
3
72
8
73
4
74
0
42
1e-07
43
1e-07
40
0
40
0
40
0
40
0
40
1
40
1
40
1
40
1
10
17.3204097125
20
29.4795938082
30
0
10
17.3526827125
20
29.4522888082
30
0
10
17.0522317125
20
28.8626308082
30
0
10
16.9349097125
20
28.7230208082
30
0
0
SPLINE
5
1F3
100
AcDbEntity
8
name
6
ByLayer
62
7
370
-1
100
AcDbSpline
210
0
220
0
230
1
70
8
71
3
72
8
73
4
74
0
42
1e-07
43
1e-07
40
0
40
0
40
0
40
0
40
1
40
1
40
1
40
1
10
16.9349097125
20
28.7230208082
30
0
10
16.8672387125
20
28.6424938082
30
0
10
15.0834077125
20
29.5104868082
30
0
10
14.3853817125
20
29.9635938082
30
0
0
SPLINE
5
1F4
100
AcDbEntity
8
name
6
ByLayer
62
7
370
-1
100
AcDbSpline
210
0
220
0
230
1
70
8
71
3
72
8
73
4
74
0
42
1e-07
43
1e-07
40
0
40
0
40
0
40
0
40
1
40
1
40
1
40
1
10
14.3853817125
20
29.9635938082
30
0
10
14.1399067125
20
30.1229368082
30
0
10
13.9222477125
20
30.2533088082
30
0
10
13.9016937125
20
30.2533088082
30
0
0
SPLINE
5
1F5
100
AcDbEntity
8
name
6
ByLayer
62
7
370
-1
100
AcDbSpline
210
0
220
0
230
1
70
8
71
3
72
8
73
4
74
0
42
1e-07
43
1e-07
40
0
40
0
40
0
40
0
40
1
40
1
40
1
40
1
10
13.9016937125
20
30.2533088082
30
0
10
13.8811397125
20
30.2533088082
30
0
10
13.7259117125
20
30.1418208082
30
0
10
13.5567407125
20
30.0055578082
30
0
0
SPLINE
5
1F6
100
AcDbEntity
8
name
6
ByLayer
62
7
370
-1
100
AcDbSpline
210
0
220
0
230
1
70
8
71
3
72
8
73
4
74
0
42
1e-07
43
1e-07
40
0
40
0
40
0
40
0
40
1
40
1
40
1
40
1
10
13.5567407125
20
30.0055578082
30
0
10
13.0919967125
20
29.6312168082
30
0
10
12.4361697125
20
29.2128048082
30
0
10
11.9543537125
20
28.9832488082
30
0
0
SPLINE
5
1F7
100
AcDbEntity
8
name
6
ByLayer
62
7
370
-1
100
AcDbSpline
210
0
220
0
230
1
70
8
71
3
72
8
73
4
74
0
42
1e-07
43
1e-07
40
0
40
0
40
0
40
0
40
1
40
1
40
1
40
1
10
11.9543537125
20
28.9832488082
30
0
10
11.4132307125
20
28.7254368082
30
0
10
11.3324207125
20
28.7010218082
30
0
10
11.2736437125
20
28.7775878082
30
0
0
LWPOLYLINE
5
1F8
100
AcDbEntity
8
name
6
ByLayer
62
7
370
-1
100
AcDbPolyline
90
3
70
0
43
0
10
14.7696737125
20
31.1884458082
10
14.4800187125
20
30.8527558082
10
14.7277917125
20
30.6964588082
0
SPLINE
5
1F9
100
AcDbEntity
8
name
6
ByLayer
62
7
370
-1
100
AcDbSpline
210
0
220
0
230
1
70
8
71
3
72
8
73
4
74
0
42
1e-07
43
1e-07
40
0
40
0
40
0
40
0
40
1
40
1
40
1
40
1
10
14.3444407125
20
32.0036928082
30
0
10
14.6704467125
20
32.4309538082
30
0
10
14.9508587125
20
32.8957198082
30
0
10
15.2124497125
20
33.4423648082
30
0
0
SPLINE
5
1FA
100
AcDbEntity
8
name
6
ByLayer
62
7
370
-1
100
AcDbSpline
210
0
220
0
230
1
70
8
71
3
72
8
73
4
74
0
42
1e-07
43
1e-07
40
0
40
0
40
0
40
0
40
1
40
1
40
1
40
1
10
15.2124497125
20
33.4423648082
30
0
10
15.4187957125
20
33.8735628082
30
0
10
15.7668337125
20
34.7603838082
30
0
10
15.7668337125
20
34.8549648082
30
0
0
SPLINE
5
1FB
100
AcDbEntity
8
name
6
ByLayer
62
7
370
-1
100
AcDbSpline
210
0
220
0
230
1
70
8
71
3
72
8
73
4
74
0
42
1e-07
43
1e-07
40
0
40
0
40
0
40
0
40
1
40
1
40
1
40
1
10
15.7668337125
20
34.8549648082
30
0
10
15.7668337125
20
34.8887108082
30
0
10
15.2708537125
20
34.9044788082
30
0
10
14.2442397125
20
34.9033698082
30
0
0
LWPOLYLINE
5
1FC
100
AcDbEntity
8
name
6
ByLayer
62
7
370
-1
100
AcDbPolyline
90
3
70
0
43
0
10
11.2736437125
20
28.7775878082
10
11.2736437125
20
28.7775878082
10
11.2736437125
20
28.7775878082
0
SPLINE
5
1FD
100
AcDbEntity
8
name
6
ByLayer
62
7
370
-1
100
AcDbSpline
210
0
220
0
230
1
70
8
71
3
72
8
73
4
74
0
42
1e-07
43
1e-07
40
0
40
0
40
0
40
0
40
1
40
1
40
1
40
1
10
12.5543717125
20
34.5317208082
30
0
10
12.4623717125
20
34.3282148082
30
0
10
12.2925267125
20
33.9921258082
30
0
10
12.1769387125
20
33.7848568082
30
0
0
LWPOLYLINE
5
1FE
100
AcDbEntity
8
name
6
ByLayer
62
7
370
-1
100
AcDbPolyline
90
3
70
0
43
0
10
14.2442397125
20
34.9033698082
10
12.7216457125
20
34.9017328082
10
12.5543717125
20
34.5317208082
0
SPLINE
5
1FF
100
AcDbEntity
8
name
6
ByLayer
62
7
370
-1
100
AcDbSpline
210
0
220
0
230
1
70
8
71
3
72
8
73
4
74
0
42
1e-07
43
1e-07
40
0
40
0
40
0
40
0
40
1
40
1
40
1
40
1
10
12.1721047125
20
33.1134768082
30
0
10
12.5129417125
20
32.6245648082
30
0
10
13.0347827125
20
32.0317068082
30
0
10
13.4337217125
20
31.6801678082
30
0
0
LWPOLYLINE
5
200
100
AcDbEntity
8
name
6
ByLayer
62
7
370
-1
100
AcDbPolyline
90
3
70
0
43
0
10
12.1769387125
20
33.7848568082
10
11.9667787125
20
33.4080048082
10
12.1721047125
20
33.1134768082
0
SPLINE
5
201
100
AcDbEntity
8
name
6
ByLayer
62
7
370
-1
100
AcDbSpline
210
0
220
0
230
1
70
8
71
3
72
8
73
4
74
0
42
1e-07
43
1e-07
40
0
40
0
40
0
40
0
40
1
40
1
40
1
40
1
10
13.9495017125
20
31.5079958082
30
0
10
14.0258437125
20
31.5960038082
30
0
10
14.2035657125
20
31.8190718082
30
0
10
14.3444407125
20
32.0037018082
30
0
0
LWPOLYLINE
5
202
100
AcDbEntity
8
name
6
ByLayer
62
7
370
-1
100
AcDbPolyline
90
3
70
0
43
0
10
13.4337217125
20
31.6801678082
10
13.8106977125
20
31.3479808082
10
13.9495017125
20
31.5079958082
0
SPLINE
5
203
100
AcDbEntity
8
name
6
ByLayer
62
7
370
-1
100
AcDbSpline
210
0
220
0
230
1
70
8
71
3
72
8
73
4
74
0
42
1e-07
43
1e-07
40
0
40
0
40
0
40
0
40
1
40
1
40
1
40
1
10
13.7194727125
20
32.8788848082
30
0
10
13.6138167125
20
33.0041698082
30
0
10
13.3634387125
20
33.2469458082
30
0
10
13.1630767125
20
33.4183868082
30
0
0
LWPOLYLINE
5
204
100
AcDbEntity
8
name
6
ByLayer
62
7
370
-1
100
AcDbPolyline
90
2
70
0
43
0
10
14.3444407125
20
32.0037018082
10
14.3444407125
20
32.0036928082
0
SPLINE
5
205
100
AcDbEntity
8
name
6
ByLayer
62
7
370
-1
100
AcDbSpline
210
0
220
0
230
1
70
8
71
3
72
8
73
4
74
0
42
1e-07
43
1e-07
40
0
40
0
40
0
40
0
40
1
40
1
40
1
40
1
10
13.0463107125
20
33.9818668082
30
0
10
13.1824507125
20
34.1203388082
30
0
10
13.3130947125
20
34.2336348082
30
0
10
13.3366317125
20
34.2336348082
30
0
0
SPLINE
5
206
100
AcDbEntity
8
name
6
ByLayer
62
7
370
-1
100
AcDbSpline
210
0
220
0
230
1
70
8
71
3
72
8
73
4
74
0
42
1e-07
43
1e-07
40
0
40
0
40
0
40
0
40
1
40
1
40
1
40
1
10
13.3366317125
20
34.2336348082
30
0
10
13.4014467125
20
34.2336348082
30
0
10
13.9382067125
20
33.7927148082
30
0
10
14.2013367125
20
33.5233258082
30
0
0
LWPOLYLINE
5
207
100
AcDbEntity
8
name
6
ByLayer
62
7
370
-1
100
AcDbPolyline
90
3
70
0
43
0
10
13.1630767125
20
33.4183868082
10
12.7987837125
20
33.7300988082
10
13.0463107125
20
33.9818668082
0
SPLINE
5
208
100
AcDbEntity
8
name
6
ByLayer
62
7
370
-1
100
AcDbSpline
210
0
220
0
230
1
70
8
71
3
72
8
73
4
74
0
42
1e-07
43
1e-07
40
0
40
0
40
0
40
0
40
1
40
1
40
1
40
1
10
14.2013367125
20
32.9699898082
30
0
10
14.0732737125
20
32.7967658082
30
0
10
13.9556877125
20
32.6541498082
30
0
10
13.9400347125
20
32.6530658082
30
0
0
SPLINE
5
209
100
AcDbEntity
8
name
6
ByLayer
62
7
370
-1
100
AcDbSpline
210
0
220
0
230
1
70
8
71
3
72
8
73
4
74
0
42
1e-07
43
1e-07
40
0
40
0
40
0
40
0
40
1
40
1
40
1
40
1
10
13.9400347125
20
32.6530658082
30
0
10
13.9243827125
20
32.6519938082
30
0
10
13.8251287125
20
32.7536008082
30
0
10
13.7194727125
20
32.8788848082
30
0
0
LWPOLYLINE
5
20A
100
AcDbEntity
8
name
6
ByLayer
62
7
370
-1
100
AcDbPolyline
90
3
70
0
43
0
10
14.2013367125
20
33.5233258082
10
14.4341787125
20
33.2849448082
10
14.2013367125
20
32.9699898082
0
LWPOLYLINE
5
20B
100
AcDbEntity
8
name
6
ByLayer
62
7
370
-1
100
AcDbPolyline
90
2
70
0
43
0
10
13.7194727125
20
32.8788848082
10
13.7194727125
20
32.8788848082
0
SPLINE
5
20C
100
AcDbEntity
8
name
6
ByLayer
62
7
370
-1
100
AcDbSpline
210
0
220
0
230
1
70
8
71
3
72
8
73
4
74
0
42
1e-07
43
1e-07
40
0
40
0
40
0
40
0
40
1
40
1
40
1
40
1
10
9.72441271251
20
37.6864468082
30
0
10
10.9904437125
20
37.6864468082
30
0
10
12.0262877125
20
37.6938578082
30
0
10
12.0262877125
20
37.7029178082
30
0
0
SPLINE
5
20D
100
AcDbEntity
8
name
6
ByLayer
62
7
370
-1
100
AcDbSpline
210
0
220
0
230
1
70
8
71
3
72
8
73
4
74
0
42
1e-07
43
1e-07
40
0
40
0
40
0
40
0
40
1
40
1
40
1
40
1
10
12.0262877125
20
37.7029178082
30
0
10
12.0262877125
20
37.7509158082
30
0
10
11.8346397125
20
38.2663388082
30
0
10
11.7711217125
20
38.3891718082
30
0
0
LWPOLYLINE
5
20E
100
AcDbEntity
8
name
6
ByLayer
62
7
370
-1
100
AcDbPolyline
90
3
70
0
43
0
10
7.42253771251
20
37.2788238082
10
7.42253771251
20
37.6864468082
10
9.72441271251
20
37.6864468082
0
SPLINE
5
20F
100
AcDbEntity
8
name
6
ByLayer
62
7
370
-1
100
AcDbSpline
210
0
220
0
230
1
70
8
71
3
72
8
73
4
74
0
42
1e-07
43
1e-07
40
0
40
0
40
0
40
0
40
1
40
1
40
1
40
1
10
12.0924087125
20
38.6607358082
30
0
10
12.3097517125
20
38.7315178082
30
0
10
12.5102617125
20
38.7894288082
30
0
10
12.5379857125
20
38.7894288082
30
0
0
SPLINE
5
210
100
AcDbEntity
8
name
6
ByLayer
62
7
370
-1
100
AcDbSpline
210
0
220
0
230
1
70
8
71
3
72
8
73
4
74
0
42
1e-07
43
1e-07
40
0
40
0
40
0
40
0
40
1
40
1
40
1
40
1
10
12.5379857125
20
38.7894288082
30
0
10
12.6004507125
20
38.7894288082
30
0
10
12.8695547125
20
38.2908748082
30
0
10
12.9867757125
20
37.9579808082
30
0
0
LWPOLYLINE
5
211
100
AcDbEntity
8
name
6
ByLayer
62
7
370
-1
100
AcDbPolyline
90
3
70
0
43
0
10
11.7711217125
20
38.3891718082
10
11.6972387125
20
38.5320438082
10
12.0924087125
20
38.6607358082
0
SPLINE
5
212
100
AcDbEntity
8
name
6
ByLayer
62
7
370
-1
100
AcDbSpline
210
0
220
0
230
1
70
8
71
3
72
8
73
4
74
0
42
1e-07
43
1e-07
40
0
40
0
40
0
40
0
40
1
40
1
40
1
40
1
10
11.1428137125
20
40.3023318082
30
0
10
11.0220847125
20
40.4750368082
30
0
10
10.9237707125
20
40.6314928082
30
0
10
10.9243397125
20
40.6500108082
30
0
0
SPLINE
5
213
100
AcDbEntity
8
name
6
ByLayer
62
7
370
-1
100
AcDbSpline
210
0
220
0
230
1
70
8
71
3
72
8
73
4
74
0
42
1e-07
43
1e-07
40
0
40
0
40
0
40
0
40
1
40
1
40
1
40
1
10
10.9243397125
20
40.6500108082
30
0
10
10.9249037125
20
40.6685308082
30
0
10
11.0474867125
20
40.7700008082
30
0
10
11.1967357125
20
40.8755028082
30
0
0
SPLINE
5
214
100
AcDbEntity
8
name
6
ByLayer
62
7
370
-1
100
AcDbSpline
210
0
220
0
230
1
70
8
71
3
72
8
73
4
74
0
42
1e-07
43
1e-07
40
0
40
0
40
0
40
0
40
1
40
1
40
1
40
1
10
11.1967357125
20
40.8755028082
30
0
10
11.5990987125
20
41.1599298082
30
0
10
12.3779517125
20
41.9215208082
30
0
10
12.6893217125
20
42.3350098082
30
0
0
SPLINE
5
215
100
AcDbEntity
8
name
6
ByLayer
62
7
370
-1
100
AcDbSpline
210
0
220
0
230
1
70
8
71
3
72
8
73
4
74
0
42
1e-07
43
1e-07
40
0
40
0
40
0
40
0
40
1
40
1
40
1
40
1
10
12.6893217125
20
42.3350098082
30
0
10
12.8395857125
20
42.5345558082
30
0
10
13.0524387125
20
42.8707638082
30
0
10
13.1623287125
20
43.0821388082
30
0
0
SPLINE
5
216
100
AcDbEntity
8
name
6
ByLayer
62
7
370
-1
100
AcDbSpline
210
0
220
0
230
1
70
8
71
3
72
8
73
4
74
0
42
1e-07
43
1e-07
40
0
40
0
40
0
40
0
40
1
40
1
40
1
40
1
10
13.1623287125
20
43.0821388082
30
0
10
13.3439997125
20
43.4315878082
30
0
10
13.6088267125
20
44.1259568082
30
0
10
13.6088267125
20
44.2528488082
30
0
0
SPLINE
5
217
100
AcDbEntity
8
name
6
ByLayer
62
7
370
-1
100
AcDbSpline
210
0
220
0
230
1
70
8
71
3
72
8
73
4
74
0
42
1e-07
43
1e-07
40
0
40
0
40
0
40
0
40
1
40
1
40
1
40
1
10
13.6088267125
20
44.2528488082
30
0
10
13.6088267125
20
44.2882098082
30
0
10
13.2182847125
20
44.3043378082
30
0
10
12.3619777125
20
44.3043378082
30
0
0
LWPOLYLINE
5
218
100
AcDbEntity
8
name
6
ByLayer
62
7
370
-1
100
AcDbPolyline
90
10
70
0
43
0
10
12.9867757125
20
37.9579808082
10
13.0739477125
20
37.7104248082
10
15.2596167125
20
37.6979508082
10
17.4452847125
20
37.6854788082
10
17.4452847125
20
37.2783388082
10
17.4452847125
20
36.8711998082
10
12.4339107125
20
36.8711998082
10
7.42253771251
20
36.8711998082
10
7.42253771251
20
37.2788228082
10
7.42253771251
20
37.2788238082
0
SPLINE
5
219
100
AcDbEntity
8
name
6
ByLayer
62
7
370
-1
100
AcDbSpline
210
0
220
0
230
1
70
8
71
3
72
8
73
4
74
0
42
1e-07
43
1e-07
40
0
40
0
40
0
40
0
40
1
40
1
40
1
40
1
10
15.0889297125
20
48.3925638082
30
0
10
15.2465807125
20
48.7156648082
30
0
10
15.4554347125
20
49.2120068082
30
0
10
15.5530507125
20
49.4955448082
30
0
0
SPLINE
5
21A
100
AcDbEntity
8
name
6
ByLayer
62
7
370
-1
100
AcDbSpline
210
0
220
0
230
1
70
8
71
3
72
8
73
4
74
0
42
1e-07
43
1e-07
40
0
40
0
40
0
40
0
40
1
40
1
40
1
40
1
10
15.5530507125
20
49.4955448082
30
0
10
15.6506677125
20
49.7790838082
30
0
10
15.7481257125
20
50.0110698082
30
0
10
15.7696247125
20
50.0110698082
30
0
0
SPLINE
5
21B
100
AcDbEntity
8
name
6
ByLayer
62
7
370
-1
100
AcDbSpline
210
0
220
0
230
1
70
8
71
3
72
8
73
4
74
0
42
1e-07
43
1e-07
40
0
40
0
40
0
40
0
40
1
40
1
40
1
40
1
10
15.7696247125
20
50.0110698082
30
0
10
15.8378407125
20
50.0110698082
30
0
10
16.5928037125
20
49.8245088082
30
0
10
16.6151937125
20
49.8021188082
30
0
0
SPLINE
5
21C
100
AcDbEntity
8
name
6
ByLayer
62
7
370
-1
100
AcDbSpline
210
0
220
0
230
1
70
8
71
3
72
8
73
4
74
0
42
1e-07
43
1e-07
40
0
40
0
40
0
40
0
40
1
40
1
40
1
40
1
10
16.6151937125
20
49.8021188082
30
0
10
16.6539427125
20
49.7633708082
30
0
10
16.1983347125
20
48.7513588082
30
0
10
15.9439877125
20
48.3112108082
30
0
0
SPLINE
5
21D
100
AcDbEntity
8
name
6
ByLayer
62
7
370
-1
100
AcDbSpline
210
0
220
0
230
1
70
8
71
3
72
8
73
4
74
0
42
1e-07
43
1e-07
40
0
40
0
40
0
40
0
40
1
40
1
40
1
40
1
10
15.9439877125
20
48.3112108082
30
0
10
15.8069897125
20
48.0741358082
30
0
10
15.6877077125
20
47.8632768082
30
0
10
15.6789157125
20
47.8426358082
30
0
0
SPLINE
5
21E
100
AcDbEntity
8
name
6
ByLayer
62
7
370
-1
100
AcDbSpline
210
0
220
0
230
1
70
8
71
3
72
8
73
4
74
0
42
1e-07
43
1e-07
40
0
40
0
40
0
40
0
40
1
40
1
40
1
40
1
10
15.6789157125
20
47.8426358082
30
0
10
15.6701247125
20
47.8219938082
30
0
10
15.9992197125
20
47.8051058082
30
0
10
16.4102407125
20
47.8051058082
30
0
0
LWPOLYLINE
5
21F
100
AcDbEntity
8
name
6
ByLayer
62
7
370
-1
100
AcDbPolyline
90
15
70
0
43
0
10
12.3619777125
20
44.3043378082
10
11.1151287125
20
44.3043378082
10
11.1151287125
20
44.6879838082
10
11.1151287125
20
45.0716298082
10
12.4578887125
20
45.0716298082
10
13.8006497125
20
45.0716298082
10
13.8006497125
20
46.0547218082
10
13.8006497125
20
47.0378148082
10
12.5538007125
20
47.0378148082
10
11.3069517125
20
47.0378148082
10
11.3069517125
20
47.4214598082
10
11.3069517125
20
47.8051058082
10
13.0546227125
20
47.8051058082
10
14.8022937125
20
47.8051058082
10
15.0889297125
20
48.3925638082
0
SPLINE
5
220
100
AcDbEntity
8
name
6
ByLayer
62
7
370
-1
100
AcDbSpline
210
0
220
0
230
1
70
8
71
3
72
8
73
4
74
0
42
1e-07
43
1e-07
40
0
40
0
40
0
40
0
40
1
40
1
40
1
40
1
10
14.6152477125
20
46.1626218082
30
0
10
14.6148807125
20
45.6812668082
30
0
10
14.6015797125
20
45.2388748082
30
0
10
14.5856767125
20
45.1795298082
30
0
0
LWPOLYLINE
5
221
100
AcDbEntity
8
name
6
ByLayer
62
7
370
-1
100
AcDbPolyline
90
7
70
0
43
0
10
16.4102407125
20
47.8051058082
10
17.1575507125
20
47.8051058082
10
17.1575507125
20
47.4214598082
10
17.1575507125
20
47.0378148082
10
15.8867237125
20
47.0378148082
10
14.6158967125
20
47.0378148082
10
14.6152477125
20
46.1626218082
0
SPLINE
5
222
100
AcDbEntity
8
name
6
ByLayer
62
7
370
-1
100
AcDbSpline
210
0
220
0
230
1
70
8
71
3
72
8
73
4
74
0
42
1e-07
43
1e-07
40
0
40
0
40
0
40
0
40
1
40
1
40
1
40
1
10
16.1504857125
20
44.3043378082
30
0
10
15.4383427125
20
44.3043378082
30
0
10
14.8556807125
20
44.2930688082
30
0
10
14.8556807125
20
44.2792958082
30
0
0
SPLINE
5
223
100
AcDbEntity
8
name
6
ByLayer
62
7
370
-1
100
AcDbSpline
210
0
220
0
230
1
70
8
71
3
72
8
73
4
74
0
42
1e-07
43
1e-07
40
0
40
0
40
0
40
0
40
1
40
1
40
1
40
1
10
14.8556807125
20
44.2792958082
30
0
10
14.8556807125
20
44.1949598082
30
0
10
15.2846097125
20
43.4266318082
30
0
10
15.5672657125
20
43.0046528082
30
0
0
SPLINE
5
224
100
AcDbEntity
8
name
6
ByLayer
62
7
370
-1
100
AcDbSpline
210
0
220
0
230
1
70
8
71
3
72
8
73
4
74
0
42
1e-07
43
1e-07
40
0
40
0
40
0
40
0
40
1
40
1
40
1
40
1
10
15.5672657125
20
43.0046528082
30
0
10
16.1067347125
20
42.1992768082
30
0
10
16.7113907125
20
41.5654048082
30
0
10
17.3601307125
20
41.1251578082
30
0
0
SPLINE
5
225
100
AcDbEntity
8
name
6
ByLayer
62
7
370
-1
100
AcDbSpline
210
0
220
0
230
1
70
8
71
3
72
8
73
4
74
0
42
1e-07
43
1e-07
40
0
40
0
40
0
40
0
40
1
40
1
40
1
40
1
10
17.3601307125
20
41.1251578082
30
0
10
17.4847357125
20
41.0405998082
30
0
10
17.5872407125
20
40.9547998082
30
0
10
17.5879207125
20
40.9344908082
30
0
0
SPLINE
5
226
100
AcDbEntity
8
name
6
ByLayer
62
7
370
-1
100
AcDbSpline
210
0
220
0
230
1
70
8
71
3
72
8
73
4
74
0
42
1e-07
43
1e-07
40
0
40
0
40
0
40
0
40
1
40
1
40
1
40
1
10
17.5879207125
20
40.9344908082
30
0
10
17.5899247125
20
40.8743968082
30
0
10
17.1593327125
20
40.0362788082
30
0
10
17.1264457125
20
40.0362788082
30
0
0
SPLINE
5
227
100
AcDbEntity
8
name
6
ByLayer
62
7
370
-1
100
AcDbSpline
210
0
220
0
230
1
70
8
71
3
72
8
73
4
74
0
42
1e-07
43
1e-07
40
0
40
0
40
0
40
0
40
1
40
1
40
1
40
1
10
17.1264457125
20
40.0362788082
30
0
10
17.0628397125
20
40.0362788082
30
0
10
16.4286977125
20
40.5857258082
30
0
10
16.1566267125
20
40.8765708082
30
0
0
SPLINE
5
228
100
AcDbEntity
8
name
6
ByLayer
62
7
370
-1
100
AcDbSpline
210
0
220
0
230
1
70
8
71
3
72
8
73
4
74
0
42
1e-07
43
1e-07
40
0
40
0
40
0
40
0
40
1
40
1
40
1
40
1
10
16.1566267125
20
40.8765708082
30
0
10
15.5763887125
20
41.4968488082
30
0
10
15.1134747125
20
42.1669598082
30
0
10
14.6352147125
20
43.0789588082
30
0
0
LWPOLYLINE
5
229
100
AcDbEntity
8
name
6
ByLayer
62
7
370
-1
100
AcDbPolyline
90
7
70
0
43
0
10
14.5856767125
20
45.1795298082
10
14.5567607125
20
45.0716298082
10
16.0010257125
20
45.0716298082
10
17.4452897125
20
45.0716298082
10
17.4452897125
20
44.6879838082
10
17.4452897125
20
44.3043378082
10
16.1504857125
20
44.3043378082
0
SPLINE
5
22A
100
AcDbEntity
8
name
6
ByLayer
62
7
370
-1
100
AcDbSpline
210
0
220
0
230
1
70
8
71
3
72
8
73
4
74
0
42
1e-07
43
1e-07
40
0
40
0
40
0
40
0
40
1
40
1
40
1
40
1
10
14.2755727125
20
43.5105608082
30
0
10
13.8220677125
20
42.4272678082
30
0
10
13.3513567125
20
41.6939458082
30
0
10
12.6752957125
20
41.0174858082
30
0
0
SPLINE
5
22B
100
AcDbEntity
8
name
6
ByLayer
62
7
370
-1
100
AcDbSpline
210
0
220
0
230
1
70
8
71
3
72
8
73
4
74
0
42
1e-07
43
1e-07
40
0
40
0
40
0
40
0
40
1
40
1
40
1
40
1
10
12.6752957125
20
41.0174858082
30
0
10
12.2206427125
20
40.5625648082
30
0
10
11.5147307125
20
39.9883228082
30
0
10
11.4101507125
20
39.9883228082
30
0
0
SPLINE
5
22C
100
AcDbEntity
8
name
6
ByLayer
62
7
370
-1
100
AcDbSpline
210
0
220
0
230
1
70
8
71
3
72
8
73
4
74
0
42
1e-07
43
1e-07
40
0
40
0
40
0
40
0
40
1
40
1
40
1
40
1
10
11.4101507125
20
39.9883228082
30
0
10
11.3838477125
20
39.9883228082
30
0
10
11.2635487125
20
40.1296278082
30
0
10
11.1428197125
20
40.3023328082
30
0
0
LWPOLYLINE
5
22D
100
AcDbEntity
8
name
6
ByLayer
62
7
370
-1
100
AcDbPolyline
90
3
70
0
43
0
10
14.6352147125
20
43.0789588082
10
14.3347507125
20
43.6519188082
10
14.2755727125
20
43.5105608082
0
LWPOLYLINE
5
22E
100
AcDbEntity
8
name
6
ByLayer
62
7
370
-1
100
AcDbPolyline
90
3
70
0
43
0
10
11.1428197125
20
40.3023328082
10
11.1428197125
20
40.3023328082
10
11.1428137125
20
40.3023318082
0
LWPOLYLINE
5
22F
100
AcDbEntity
8
name
6
ByLayer
62
7
370
-1
100
AcDbPolyline
90
18
70
0
43
0
10
7.71027171251
20
45.4552748082
10
7.71027171251
20
49.0999108082
10
9.17292171251
20
49.0999108082
10
10.6355717125
20
49.0999108082
10
10.6355717125
20
45.6470978082
10
10.6355717125
20
42.1942858082
10
10.2279477125
20
42.1942858082
10
9.82032371251
20
42.1942858082
10
9.82032371251
20
42.5553068082
10
9.82032371251
20
42.9163278082
10
9.16093271251
20
42.9029848082
10
8.50154171251
20
42.8896408082
10
8.48798171251
20
42.3501398082
10
8.47442271251
20
41.8106378082
10
8.09234671251
20
41.8106378082
10
7.71027171251
20
41.8106378082
10
7.71027171251
20
45.4552728082
10
7.71027171251
20
45.4552748082
0
SPLINE
5
230
100
AcDbEntity
8
name
6
ByLayer
62
7
370
-1
100
AcDbSpline
210
0
220
0
230
1
70
8
71
3
72
8
73
4
74
0
42
1e-07
43
1e-07
40
0
40
0
40
0
40
0
40
1
40
1
40
1
40
1
10
12.6249477125
20
48.4034818082
30
0
10
12.4983767125
20
48.6289988082
30
0
10
12.2505087125
20
48.9933758082
30
0
10
12.0741307125
20
49.2132068082
30
0
0
LWPOLYLINE
5
231
100
AcDbEntity
8
name
6
ByLayer
62
7
370
-1
100
AcDbPolyline
90
10
70
0
43
0
10
9.82032371251
20
46.0067658082
10
9.82032371251
20
48.3326188082
10
9.14894371251
20
48.3326188082
10
8.47756371251
20
48.3326188082
10
8.47756371251
20
46.0067658082
10
8.47756371251
20
43.6809128082
10
9.14894371251
20
43.6809128082
10
9.82032371251
20
43.6809128082
10
9.82032371251
20
46.0067658082
10
9.82032371251
20
46.0067658082
0
SPLINE
5
232
100
AcDbEntity
8
name
6
ByLayer
62
7
370
-1
100
AcDbSpline
210
0
220
0
230
1
70
8
71
3
72
8
73
4
74
0
42
1e-07
43
1e-07
40
0
40
0
40
0
40
0
40
1
40
1
40
1
40
1
10
12.5657777125
20
49.8816588082
30
0
10
12.8674217125
20
49.5968068082
30
0
10
13.6094737125
20
48.5759848082
30
0
10
13.6085057125
20
48.4472048082
30
0
0
SPLINE
5
233
100
AcDbEntity
8
name
6
ByLayer
62
7
370
-1
100
AcDbSpline
210
0
220
0
230
1
70
8
71
3
72
8
73
4
74
0
42
1e-07
43
1e-07
40
0
40
0
40
0
40
0
40
1
40
1
40
1
40
1
10
13.6085057125
20
48.4472048082
30
0
10
13.6082607125
20
48.4148548082
30
0
10
13.1110147125
20
48.1126188082
30
0
10
12.8845617125
20
48.0071788082
30
0
0
SPLINE
5
234
100
AcDbEntity
8
name
6
ByLayer
62
7
370
-1
100
AcDbSpline
210
0
220
0
230
1
70
8
71
3
72
8
73
4
74
0
42
1e-07
43
1e-07
40
0
40
0
40
0
40
0
40
1
40
1
40
1
40
1
10
12.8845617125
20
48.0071788082
30
0
10
12.8683447125
20
47.9996288082
30
0
10
12.7515197125
20
48.1779648082
30
0
10
12.6249477125
20
48.4034818082
30
0
0
LWPOLYLINE
5
235
100
AcDbEntity
8
name
6
ByLayer
62
7
370
-1
100
AcDbPolyline
90
5
70
0
43
0
10
12.0741307125
20
49.2132068082
10
11.7534427125
20
49.6129008082
10
12.0884777125
20
49.8144528082
10
12.4235117125
20
50.0160038082
10
12.5657777125
20
49.8816588082
0
LWPOLYLINE
5
236
100
AcDbEntity
8
name
6
ByLayer
62
7
370
-1
100
AcDbPolyline
90
3
70
0
43
0
10
12.6249477125
20
48.4034818082
10
12.6249477125
20
48.4034818082
10
12.6249477125
20
48.4034818082
0
ENDSEC
0
SECTION
2
OBJECTS
0
DICTIONARY
5
C
330
0
100
AcDbDictionary
281
1
3
ACAD_GROUP
350
D
0
DICTIONARY
5
D
330
C
100
AcDbDictionary
281
1
0
ENDSEC
0
EOF
