999
dxfrw 0.5.10
0
SECTION
2
HEADER
9
$ACADVER
1
AC1021
9
$HANDSEED
5
20000
9
$DWGCODEPAGE
3
ANSI_1252
9
$INSBASE
10
0
20
0
30
0
9
$EXTMIN
10
31.009167
20
-0.000567
30
0
9
$EXTMAX
10
200.077917
20
182.714550841
30
0
9
$LIMMIN
10
0
20
0
9
$LIMMAX
10
420
20
297
9
$ORTHOMODE
70
0
9
$LTSCALE
40
1
9
$TEXTSTYLE
7
STANDARD
9
$CLAYER
8
0
9
$DIMASZ
40
2.5
9
$DIMLFAC
40
1
9
$DIMSCALE
40
1
9
$DIMEXO
40
0.625
9
$DIMEXE
40
1.25
9
$DIMTXT
40
2.5
9
$DIMTSZ
40
0
9
$DIMAUNIT
70
0
9
$DIMADEC
70
0
9
$DIMLUNIT
70
2
9
$DIMSTYLE
2
Standard
9
$DIMGAP
40
0.625
9
$DIMTIH
70
0
9
$LUNITS
70
2
9
$LUPREC
70
4
9
$AUNITS
70
0
9
$AUPREC
70
2
9
$SPLINESEGS
70
8
9
$GRIDMODE
70
0
9
$SNAPSTYLE
70
0
9
$PINSBASE
10
0
20
0
30
0
9
$PLIMMIN
10
0
20
0
9
$PLIMMAX
10
210
20
297
9
$INSUNITS
70
4
9
$PSVPSCALE
40
1
0
ENDSEC
0
SECTION
2
CLASSES
0
ENDSEC
0
SECTION
2
TABLES
0
TABLE
2
VPORT
5
8
330
0
100
AcDbSymbolTable
70
1
0
VPORT
5
31
330
2
100
AcDbSymbolTableRecord
100
AcDbViewportTableRecord
2
*ACTIVE
70
0
10
0
20
0
11
1
21
1
12
210.056
22
148.676
13
0
23
0
14
10
24
10
15
10
25
10
16
0
26
0
36
1
17
0
27
0
37
0
40
341
41
2.08533333333
42
50
43
0
44
0
50
0
51
0
71
0
72
100
73
1
74
3
75
0
76
0
77
0
78
0
281
0
65
1
110
0
120
0
130
0
111
1
121
0
131
0
112
0
122
1
132
0
79
0
146
0
348
10020
60
7
61
5
292
1
282
1
141
0
142
0
63
250
421
3358443
0
ENDTAB
0
TABLE
2
LTYPE
5
5
330
0
100
AcDbSymbolTable
70
4
0
LTYPE
5
14
330
5
100
AcDbSymbolTableRecord
100
AcDbLinetypeTableRecord
2
ByBlock
70
0
3

72
65
73
0
40
0
0
LTYPE
5
15
330
5
100
AcDbSymbolTableRecord
100
AcDbLinetypeTableRecord
2
ByLayer
70
0
3

72
65
73
0
40
0
0
LTYPE
5
16
330
5
100
AcDbSymbolTableRecord
100
AcDbLinetypeTableRecord
2
Continuous
70
0
3
Solid line
72
65
73
0
40
0
0
LTYPE
5
32
330
5
100
AcDbSymbolTableRecord
100
AcDbLinetypeTableRecord
2
DOT
70
0
3
Dot . . . . . . . . . . . . . . . . . . . . . .
72
65
73
2
40
6.35
49
0
74
0
49
-6.35
74
0
0
LTYPE
5
33
330
5
100
AcDbSymbolTableRecord
100
AcDbLinetypeTableRecord
2
DOT2
70
0
3
Dot (.5x) .....................................
72
65
73
2
40
3.175
49
0
74
0
49
-3.175
74
0
0
LTYPE
5
34
330
5
100
AcDbSymbolTableRecord
100
AcDbLinetypeTableRecord
2
DOTX2
70
0
3
Dot (2x) .  .  .  .  .  .  .  .  .  .  .  .  .
72
65
73
2
40
12.7
49
0
74
0
49
-12.7
74
0
0
LTYPE
5
35
330
5
100
AcDbSymbolTableRecord
100
AcDbLinetypeTableRecord
2
DASHED
70
0
3
Dot . . . . . . . . . . . . . . . . . . . . . .
72
65
73
2
40
19.05
49
12.7
74
0
49
-6.35
74
0
0
LTYPE
5
36
330
5
100
AcDbSymbolTableRecord
100
AcDbLinetypeTableRecord
2
DASHED2
70
0
3
Dashed (.5x) _ _ _ _ _ _ _ _ _ _ _ _ _ _ _ _ _
72
65
73
2
40
9.525
49
6.35
74
0
49
-3.175
74
0
0
LTYPE
5
37
330
5
100
AcDbSymbolTableRecord
100
AcDbLinetypeTableRecord
2
DASHEDX2
70
0
3
Dashed (2x) ____  ____  ____  ____  ____  ___
72
65
73
2
40
38.1
49
25.4
74
0
49
-12.7
74
0
0
LTYPE
5
38
330
5
100
AcDbSymbolTableRecord
100
AcDbLinetypeTableRecord
2
DASHDOT
70
0
3
Dash dot __ . __ . __ . __ . __ . __ . __ . __
72
65
73
4
40
25.4
49
12.7
74
0
49
-6.35
74
0
49
0
74
0
49
-6.35
74
0
0
LTYPE
5
39
330
5
100
AcDbSymbolTableRecord
100
AcDbLinetypeTableRecord
2
DASHDOT2
70
0
3
Dash dot (.5x) _._._._._._._._._._._._._._._.
72
65
73
4
40
12.7
49
6.35
74
0
49
-3.175
74
0
49
0
74
0
49
-3.175
74
0
0
LTYPE
5
3A
330
5
100
AcDbSymbolTableRecord
100
AcDbLinetypeTableRecord
2
DASHDOTX2
70
0
3
Dash dot (2x) ____  .  ____  .  ____  .  ___
72
65
73
4
40
50.8
49
25.4
74
0
49
-12.7
74
0
49
0
74
0
49
-12.7
74
0
0
LTYPE
5
3B
330
5
100
AcDbSymbolTableRecord
100
AcDbLinetypeTableRecord
2
DIVIDE
70
0
3
Divide ____ . . ____ . . ____ . . ____ . . ____
72
65
73
6
40
31.75
49
12.7
74
0
49
-6.35
74
0
49
0
74
0
49
-6.35
74
0
49
0
74
0
49
-6.35
74
0
0
LTYPE
5
3C
330
5
100
AcDbSymbolTableRecord
100
AcDbLinetypeTableRecord
2
DIVIDE2
70
0
3
Divide (.5x) __..__..__..__..__..__..__..__.._
72
65
73
6
40
15.875
49
6.35
74
0
49
-3.175
74
0
49
0
74
0
49
-3.175
74
0
49
0
74
0
49
-3.175
74
0
0
LTYPE
5
3D
330
5
100
AcDbSymbolTableRecord
100
AcDbLinetypeTableRecord
2
DIVIDEX2
70
0
3
Divide (2x) ________  .  .  ________  .  .  _
72
65
73
6
40
63.5
49
25.4
74
0
49
-12.7
74
0
49
0
74
0
49
-12.7
74
0
49
0
74
0
49
-12.7
74
0
0
LTYPE
5
3E
330
5
100
AcDbSymbolTableRecord
100
AcDbLinetypeTableRecord
2
BORDER
70
0
3
Border __ __ . __ __ . __ __ . __ __ . __ __ .
72
65
73
6
40
44.45
49
12.7
74
0
49
-6.35
74
0
49
12.7
74
0
49
-6.35
74
0
49
0
74
0
49
-6.35
74
0
0
LTYPE
5
3F
330
5
100
AcDbSymbolTableRecord
100
AcDbLinetypeTableRecord
2
BORDER2
70
0
3
Border (.5x) __.__.__.__.__.__.__.__.__.__.__.
72
65
73
6
40
22.225
49
6.35
74
0
49
-3.175
74
0
49
6.35
74
0
49
-3.175
74
0
49
0
74
0
49
-3.175
74
0
0
LTYPE
5
40
330
5
100
AcDbSymbolTableRecord
100
AcDbLinetypeTableRecord
2
BORDERX2
70
0
3
Border (2x) ____  ____  .  ____  ____  .  ___
72
65
73
6
40
88.9
49
25.4
74
0
49
-12.7
74
0
49
25.4
74
0
49
-12.7
74
0
49
0
74
0
49
-12.7
74
0
0
LTYPE
5
41
330
5
100
AcDbSymbolTableRecord
100
AcDbLinetypeTableRecord
2
CENTER
70
0
3
Center ____ _ ____ _ ____ _ ____ _ ____ _ ____
72
65
73
4
40
50.8
49
31.75
74
0
49
-6.35
74
0
49
6.35
74
0
49
-6.35
74
0
0
LTYPE
5
42
330
5
100
AcDbSymbolTableRecord
100
AcDbLinetypeTableRecord
2
CENTER2
70
0
3
Center (.5x) ___ _ ___ _ ___ _ ___ _ ___ _ ___
72
65
73
4
40
28.575
49
19.05
74
0
49
-3.175
74
0
49
3.175
74
0
49
-3.175
74
0
0
LTYPE
5
43
330
5
100
AcDbSymbolTableRecord
100
AcDbLinetypeTableRecord
2
CENTERX2
70
0
3
Center (2x) ________  __  ________  __  _____
72
65
73
4
40
101.6
49
63.5
74
0
49
-12.7
74
0
49
12.7
74
0
49
-12.7
74
0
0
ENDTAB
0
TABLE
2
LAYER
5
2
330
0
100
AcDbSymbolTable
70
1
0
LAYER
5
10
330
2
100
AcDbSymbolTableRecord
100
AcDbLayerTableRecord
2
0
70
0
62
7
6
CONTINUOUS
370
-3
390
F
0
ENDTAB
0
TABLE
2
STYLE
5
3
330
0
100
AcDbSymbolTable
70
3
0
STYLE
5
44
330
2
100
AcDbSymbolTableRecord
100
AcDbTextStyleTableRecord
2
Standard
70
0
40
0
41
1
50
0
71
0
42
1
3
txt
4

0
ENDTAB
0
TABLE
2
VIEW
5
6
330
0
100
AcDbSymbolTable
70
0
0
ENDTAB
0
TABLE
2
UCS
5
7
330
0
100
AcDbSymbolTable
70
0
0
ENDTAB
0
TABLE
2
APPID
5
9
330
0
100
AcDbSymbolTable
70
1
0
APPID
5
12
330
9
100
AcDbSymbolTableRecord
100
AcDbRegAppTableRecord
2
ACAD
70
0
0
ENDTAB
0
TABLE
2
DIMSTYLE
5
A
330
0
100
AcDbSymbolTable
70
1
100
AcDbDimStyleTable
71
1
0
DIMSTYLE
105
45
330
A
100
AcDbSymbolTableRecord
100
AcDbDimStyleTableRecord
2
Standard
70
0
40
1
41
2.5
42
0.625
43
0.38
44
1.25
45
0
46
0
47
0
48
0
140
2.5
141
0.09
142
0
143
25.4
144
1
145
0
146
1
147
0.625
148
0
71
0
72
0
73
0
74
1
75
0
76
0
77
0
78
0
79
0
170
0
171
2
172
0
173
0
174
0
175
0
176
0
177
0
178
0
179
0
271
4
272
4
273
2
274
2
275
0
276
0
277
2
278
46
279
0
280
0
281
0
282
0
283
1
284
0
285
0
286
0
288
0
289
3
340
Standard
341

371
-2
372
-2
0
ENDTAB
0
TABLE
2
BLOCK_RECORD
5
1
330
0
100
AcDbSymbolTable
70
2
0
BLOCK_RECORD
5
1F
330
1
100
AcDbSymbolTableRecord
100
AcDbBlockTableRecord
2
*Model_Space
70
0
280
1
281
0
0
BLOCK_RECORD
5
1E
330
1
100
AcDbSymbolTableRecord
100
AcDbBlockTableRecord
2
*Paper_Space
70
0
280
1
281
0
0
ENDTAB
0
ENDSEC
0
SECTION
2
BLOCKS
0
BLOCK
5
20
330
1F
100
AcDbEntity
8
0
100
AcDbBlockBegin
2
*Model_Space
70
0
10
0
20
0
30
0
3
*Model_Space
1

0
ENDBLK
5
21
330
1F
100
AcDbEntity
8
0
100
AcDbBlockEnd
0
BLOCK
5
1C
330
1B
100
AcDbEntity
8
0
100
AcDbBlockBegin
2
*Paper_Space
70
0
10
0
20
0
30
0
3
*Paper_Space
1

0
ENDBLK
5
1D
330
1F
100
AcDbEntity
8
0
100
AcDbBlockEnd
0
ENDSEC
0
SECTION
2
ENTITIES
0
SPLINE
5
46
100
AcDbEntity
8
0
6
ByLayer
62
7
370
-1
100
AcDbSpline
210
0
220
0
230
1
70
8
71
3
72
8
73
4
74
0
42
1e-07
43
1e-07
40
0
40
0
40
0
40
0
40
1
40
1
40
1
40
1
10
77.443542
20
161.853877
30
0
10
75.358453
20
161.830815
30
0
10
73.288739
20
161.487016
30
0
10
71.331667
20
160.830822
30
0
0
SPLINE
5
47
100
AcDbEntity
8
0
6
ByLayer
62
7
370
-1
100
AcDbSpline
210
0
220
0
230
1
70
8
71
3
72
8
73
4
74
0
42
1e-07
43
1e-07
40
0
40
0
40
0
40
0
40
1
40
1
40
1
40
1
10
67.257083
20
160.513322
30
0
10
64.296349
20
161.476049
30
0
10
63.079108
20
161.574435
30
0
10
60.571944
20
161.033669
30
0
0
SPLINE
5
48
100
AcDbEntity
8
0
6
ByLayer
62
7
370
-1
100
AcDbSpline
210
0
220
0
230
1
70
8
71
3
72
8
73
4
74
0
42
1e-07
43
1e-07
40
0
40
0
40
0
40
0
40
1
40
1
40
1
40
1
10
60.571944
20
161.033669
30
0
10
58.079124
20
160.495996
30
0
10
56.056389
20
159.812764
30
0
10
56.056389
20
159.507905
30
0
0
SPLINE
5
49
100
AcDbEntity
8
0
6
ByLayer
62
7
370
-1
100
AcDbSpline
210
0
220
0
230
1
70
8
71
3
72
8
73
4
74
0
42
1e-07
43
1e-07
40
0
40
0
40
0
40
0
40
1
40
1
40
1
40
1
10
56.056389
20
159.507905
30
0
10
56.056389
20
159.400934
30
0
10
55.469725
20
159.04775
30
0
10
54.751111
20
158.722974
30
0
0
SPLINE
5
4A
100
AcDbEntity
8
0
6
ByLayer
62
7
370
-1
100
AcDbSpline
210
0
220
0
230
1
70
8
71
3
72
8
73
4
74
0
42
1e-07
43
1e-07
40
0
40
0
40
0
40
0
40
1
40
1
40
1
40
1
10
54.751111
20
158.722974
30
0
10
53.32045
20
158.076398
30
0
10
50.791181
20
155.952503
30
0
10
50.791181
20
155.398044
30
0
0
SPLINE
5
4B
100
AcDbEntity
8
0
6
ByLayer
62
7
370
-1
100
AcDbSpline
210
0
220
0
230
1
70
8
71
3
72
8
73
4
74
0
42
1e-07
43
1e-07
40
0
40
0
40
0
40
0
40
1
40
1
40
1
40
1
10
50.791181
20
155.398044
30
0
10
50.791181
20
155.206404
30
0
10
50.705712
20
155.01414
30
0
10
50.597153
20
154.965891
30
0
0
SPLINE
5
4C
100
AcDbEntity
8
0
6
ByLayer
62
7
370
-1
100
AcDbSpline
210
0
220
0
230
1
70
8
71
3
72
8
73
4
74
0
42
1e-07
43
1e-07
40
0
40
0
40
0
40
0
40
1
40
1
40
1
40
1
10
50.597153
20
154.965891
30
0
10
50.488596
20
154.917645
30
0
10
49.891194
20
154.265452
30
0
10
49.274236
20
153.519502
30
0
0
SPLINE
5
4D
100
AcDbEntity
8
0
6
ByLayer
62
7
370
-1
100
AcDbSpline
210
0
220
0
230
1
70
8
71
3
72
8
73
4
74
0
42
1e-07
43
1e-07
40
0
40
0
40
0
40
0
40
1
40
1
40
1
40
1
10
49.274236
20
153.519502
30
0
10
48.112739
20
152.115156
30
0
10
46.848889
20
149.592487
30
0
10
46.848889
20
148.686447
30
0
0
SPLINE
5
4E
100
AcDbEntity
8
0
6
ByLayer
62
7
370
-1
100
AcDbSpline
210
0
220
0
230
1
70
8
71
3
72
8
73
4
74
0
42
1e-07
43
1e-07
40
0
40
0
40
0
40
0
40
1
40
1
40
1
40
1
10
46.848889
20
148.686447
30
0
10
46.848889
20
148.401086
30
0
10
46.729049
20
148.166099
30
0
10
46.584306
20
148.166099
30
0
0
SPLINE
5
4F
100
AcDbEntity
8
0
6
ByLayer
62
7
370
-1
100
AcDbSpline
210
0
220
0
230
1
70
8
71
3
72
8
73
4
74
0
42
1e-07
43
1e-07
40
0
40
0
40
0
40
0
40
1
40
1
40
1
40
1
10
46.584306
20
148.166099
30
0
10
46.439559
20
148.166099
30
0
10
46.319722
20
147.515806
30
0
10
46.319722
20
146.719711
30
0
0
SPLINE
5
50
100
AcDbEntity
8
0
6
ByLayer
62
7
370
-1
100
AcDbSpline
210
0
220
0
230
1
70
8
71
3
72
8
73
4
74
0
42
1e-07
43
1e-07
40
0
40
0
40
0
40
0
40
1
40
1
40
1
40
1
10
46.319722
20
146.719711
30
0
10
46.319722
20
145.923615
30
0
10
46.439559
20
145.273322
30
0
10
46.584306
20
145.273322
30
0
0
SPLINE
5
51
100
AcDbEntity
8
0
6
ByLayer
62
7
370
-1
100
AcDbSpline
210
0
220
0
230
1
70
8
71
3
72
8
73
4
74
0
42
1e-07
43
1e-07
40
0
40
0
40
0
40
0
40
1
40
1
40
1
40
1
10
46.584306
20
145.273322
30
0
10
46.729049
20
145.273322
30
0
10
46.848889
20
145.036529
30
0
10
46.848889
20
144.752974
30
0
0
SPLINE
5
52
100
AcDbEntity
8
0
6
ByLayer
62
7
370
-1
100
AcDbSpline
210
0
220
0
230
1
70
8
71
3
72
8
73
4
74
0
42
1e-07
43
1e-07
40
0
40
0
40
0
40
0
40
1
40
1
40
1
40
1
10
46.848889
20
144.752974
30
0
10
46.848889
20
144.46942
30
0
10
47.392477
20
143.141723
30
0
10
48.065972
20
141.798461
30
0
0
SPLINE
5
53
100
AcDbEntity
8
0
6
ByLayer
62
7
370
-1
100
AcDbSpline
210
0
220
0
230
1
70
8
71
3
72
8
73
4
74
0
42
1e-07
43
1e-07
40
0
40
0
40
0
40
0
40
1
40
1
40
1
40
1
10
48.065972
20
141.798461
30
0
10
48.987261
20
139.960991
30
0
10
49.339937
20
139.474713
30
0
10
49.468264
20
139.840544
30
0
0
SPLINE
5
54
100
AcDbEntity
8
0
6
ByLayer
62
7
370
-1
100
AcDbSpline
210
0
220
0
230
1
70
8
71
3
72
8
73
4
74
0
42
1e-07
43
1e-07
40
0
40
0
40
0
40
0
40
1
40
1
40
1
40
1
10
49.468264
20
139.840544
30
0
10
49.621595
20
140.277658
30
0
10
49.691691
20
140.250271
30
0
10
50.235556
20
139.567141
30
0
0
SPLINE
5
55
100
AcDbEntity
8
0
6
ByLayer
62
7
370
-1
100
AcDbSpline
210
0
220
0
230
1
70
8
71
3
72
8
73
4
74
0
42
1e-07
43
1e-07
40
0
40
0
40
0
40
0
40
1
40
1
40
1
40
1
10
50.235556
20
139.567141
30
0
10
50.568298
20
139.14919
30
0
10
51.413636
20
137.623711
30
0
10
52.114097
20
136.180474
30
0
0
SPLINE
5
56
100
AcDbEntity
8
0
6
ByLayer
62
7
370
-1
100
AcDbSpline
210
0
220
0
230
1
70
8
71
3
72
8
73
4
74
0
42
1e-07
43
1e-07
40
0
40
0
40
0
40
0
40
1
40
1
40
1
40
1
10
52.114097
20
136.180474
30
0
10
53.386296
20
133.559271
30
0
10
53.394582
20
133.563908
30
0
10
53.410556
20
134.681169
30
0
0
SPLINE
5
57
100
AcDbEntity
8
0
6
ByLayer
62
7
370
-1
100
AcDbSpline
210
0
220
0
230
1
70
8
71
3
72
8
73
4
74
0
42
1e-07
43
1e-07
40
0
40
0
40
0
40
0
40
1
40
1
40
1
40
1
10
53.410556
20
134.681169
30
0
10
53.419344
20
135.296331
30
0
10
53.513665
20
135.793266
30
0
10
53.622222
20
135.792419
30
0
0
SPLINE
5
58
100
AcDbEntity
8
0
6
ByLayer
62
7
370
-1
100
AcDbSpline
210
0
220
0
230
1
70
8
71
3
72
8
73
4
74
0
42
1e-07
43
1e-07
40
0
40
0
40
0
40
0
40
1
40
1
40
1
40
1
10
53.622222
20
135.792419
30
0
10
53.957914
20
135.790198
30
0
10
55.190173
20
134.671236
30
0
10
56.171042
20
133.472905
30
0
0
SPLINE
5
59
100
AcDbEntity
8
0
6
ByLayer
62
7
370
-1
100
AcDbSpline
210
0
220
0
230
1
70
8
71
3
72
8
73
4
74
0
42
1e-07
43
1e-07
40
0
40
0
40
0
40
0
40
1
40
1
40
1
40
1
10
56.171042
20
133.472905
30
0
10
57.422124
20
131.944457
30
0
10
57.397294
20
131.254384
30
0
10
56.056389
20
130.500752
30
0
0
SPLINE
5
5A
100
AcDbEntity
8
0
6
ByLayer
62
7
370
-1
100
AcDbSpline
210
0
220
0
230
1
70
8
71
3
72
8
73
4
74
0
42
1e-07
43
1e-07
40
0
40
0
40
0
40
0
40
1
40
1
40
1
40
1
10
56.056389
20
130.500752
30
0
10
55.47741
20
130.175347
30
0
10
55.006875
20
129.756989
30
0
10
55.006875
20
129.574711
30
0
0
SPLINE
5
5B
100
AcDbEntity
8
0
6
ByLayer
62
7
370
-1
100
AcDbSpline
210
0
220
0
230
1
70
8
71
3
72
8
73
4
74
0
42
1e-07
43
1e-07
40
0
40
0
40
0
40
0
40
1
40
1
40
1
40
1
10
55.006875
20
129.574711
30
0
10
55.006875
20
129.392432
30
0
10
54.647358
20
129.037469
30
0
10
54.213125
20
128.780961
30
0
0
SPLINE
5
5C
100
AcDbEntity
8
0
6
ByLayer
62
7
370
-1
100
AcDbSpline
210
0
220
0
230
1
70
8
71
3
72
8
73
4
74
0
42
1e-07
43
1e-07
40
0
40
0
40
0
40
0
40
1
40
1
40
1
40
1
10
54.213125
20
128.780961
30
0
10
53.778889
20
128.524452
30
0
10
53.428194
20
128.236743
30
0
10
53.428194
20
128.145961
30
0
0
SPLINE
5
5D
100
AcDbEntity
8
0
6
ByLayer
62
7
370
-1
100
AcDbSpline
210
0
220
0
230
1
70
8
71
3
72
8
73
4
74
0
42
1e-07
43
1e-07
40
0
40
0
40
0
40
0
40
1
40
1
40
1
40
1
10
53.428194
20
128.145961
30
0
10
53.428194
20
128.055181
30
0
10
52.901094
20
127.715143
30
0
10
52.264028
20
127.387488
30
0
0
SPLINE
5
5E
100
AcDbEntity
8
0
6
ByLayer
62
7
370
-1
100
AcDbSpline
210
0
220
0
230
1
70
8
71
3
72
8
73
4
74
0
42
1e-07
43
1e-07
40
0
40
0
40
0
40
0
40
1
40
1
40
1
40
1
10
52.264028
20
127.387488
30
0
10
50.608961
20
126.536255
30
0
10
49.398795
20
125.46687
30
0
10
47.968958
20
123.603947
30
0
0
SPLINE
5
5F
100
AcDbEntity
8
0
6
ByLayer
62
7
370
-1
100
AcDbSpline
210
0
220
0
230
1
70
8
71
3
72
8
73
4
74
0
42
1e-07
43
1e-07
40
0
40
0
40
0
40
0
40
1
40
1
40
1
40
1
10
47.968958
20
123.603947
30
0
10
47.282092
20
122.70904
30
0
10
46.390182
20
121.708728
30
0
10
45.993403
20
121.372627
30
0
0
SPLINE
5
60
100
AcDbEntity
8
0
6
ByLayer
62
7
370
-1
100
AcDbSpline
210
0
220
0
230
1
70
8
71
3
72
8
73
4
74
0
42
1e-07
43
1e-07
40
0
40
0
40
0
40
0
40
1
40
1
40
1
40
1
10
45.993403
20
121.372627
30
0
10
45.596624
20
121.036526
30
0
10
45.127723
20
120.488758
30
0
10
44.943889
20
120.155544
30
0
0
SPLINE
5
61
100
AcDbEntity
8
0
6
ByLayer
62
7
370
-1
100
AcDbSpline
210
0
220
0
230
1
70
8
71
3
72
8
73
4
74
0
42
1e-07
43
1e-07
40
0
40
0
40
0
40
0
40
1
40
1
40
1
40
1
10
44.943889
20
120.155544
30
0
10
44.760058
20
119.82233
30
0
10
44.371999
20
119.144881
30
0
10
44.088403
20
118.656238
30
0
0
SPLINE
5
62
100
AcDbEntity
8
0
6
ByLayer
62
7
370
-1
100
AcDbSpline
210
0
220
0
230
1
70
8
71
3
72
8
73
4
74
0
42
1e-07
43
1e-07
40
0
40
0
40
0
40
0
40
1
40
1
40
1
40
1
10
44.088403
20
118.656238
30
0
10
43.640477
20
117.884454
30
0
10
43.567779
20
117.216476
30
0
10
43.532778
20
113.558599
30
0
0
SPLINE
5
63
100
AcDbEntity
8
0
6
ByLayer
62
7
370
-1
100
AcDbSpline
210
0
220
0
230
1
70
8
71
3
72
8
73
4
74
0
42
1e-07
43
1e-07
40
0
40
0
40
0
40
0
40
1
40
1
40
1
40
1
10
43.532778
20
113.558599
30
0
10
43.494777
20
109.58725
30
0
10
43.226143
20
107.500002
30
0
10
42.70375
20
107.138044
30
0
0
SPLINE
5
64
100
AcDbEntity
8
0
6
ByLayer
62
7
370
-1
100
AcDbSpline
210
0
220
0
230
1
70
8
71
3
72
8
73
4
74
0
42
1e-07
43
1e-07
40
0
40
0
40
0
40
0
40
1
40
1
40
1
40
1
10
42.70375
20
107.138044
30
0
10
42.577636
20
107.050659
30
0
10
42.212638
20
106.285479
30
0
10
41.892361
20
105.435891
30
0
0
SPLINE
5
65
100
AcDbEntity
8
0
6
ByLayer
62
7
370
-1
100
AcDbSpline
210
0
220
0
230
1
70
8
71
3
72
8
73
4
74
0
42
1e-07
43
1e-07
40
0
40
0
40
0
40
0
40
1
40
1
40
1
40
1
10
41.892361
20
105.435891
30
0
10
41.572084
20
104.586306
30
0
10
41.035343
20
103.558605
30
0
10
40.692917
20
103.151655
30
0
0
SPLINE
5
66
100
AcDbEntity
8
0
6
ByLayer
62
7
370
-1
100
AcDbSpline
210
0
220
0
230
1
70
8
71
3
72
8
73
4
74
0
42
1e-07
43
1e-07
40
0
40
0
40
0
40
0
40
1
40
1
40
1
40
1
10
40.692917
20
103.151655
30
0
10
40.350494
20
102.744707
30
0
10
39.794919
20
101.838342
30
0
10
39.458194
20
101.140822
30
0
0
SPLINE
5
67
100
AcDbEntity
8
0
6
ByLayer
62
7
370
-1
100
AcDbSpline
210
0
220
0
230
1
70
8
71
3
72
8
73
4
74
0
42
1e-07
43
1e-07
40
0
40
0
40
0
40
0
40
1
40
1
40
1
40
1
10
39.458194
20
101.140822
30
0
10
39.121467
20
100.443301
30
0
10
38.6334
20
99.63989
30
0
10
38.373403
20
99.359294
30
0
0
SPLINE
5
68
100
AcDbEntity
8
0
6
ByLayer
62
7
370
-1
100
AcDbSpline
210
0
220
0
230
1
70
8
71
3
72
8
73
4
74
0
42
1e-07
43
1e-07
40
0
40
0
40
0
40
0
40
1
40
1
40
1
40
1
10
38.373403
20
99.359294
30
0
10
38.113406
20
99.078697
30
0
10
37.897153
20
98.768467
30
0
10
37.897153
20
98.662558
30
0
0
SPLINE
5
69
100
AcDbEntity
8
0
6
ByLayer
62
7
370
-1
100
AcDbSpline
210
0
220
0
230
1
70
8
71
3
72
8
73
4
74
0
42
1e-07
43
1e-07
40
0
40
0
40
0
40
0
40
1
40
1
40
1
40
1
10
37.897153
20
98.662558
30
0
10
37.897153
20
98.556651
30
0
10
37.238982
20
97.093111
30
0
10
36.433125
20
95.417002
30
0
0
SPLINE
5
6A
100
AcDbEntity
8
0
6
ByLayer
62
7
370
-1
100
AcDbSpline
210
0
220
0
230
1
70
8
71
3
72
8
73
4
74
0
42
1e-07
43
1e-07
40
0
40
0
40
0
40
0
40
1
40
1
40
1
40
1
10
36.433125
20
95.417002
30
0
10
34.865482
20
92.156441
30
0
10
34.567461
20
91.91321
30
0
10
33.425694
20
92.903461
30
0
0
SPLINE
5
6B
100
AcDbEntity
8
0
6
ByLayer
62
7
370
-1
100
AcDbSpline
210
0
220
0
230
1
70
8
71
3
72
8
73
4
74
0
42
1e-07
43
1e-07
40
0
40
0
40
0
40
0
40
1
40
1
40
1
40
1
10
33.425694
20
92.903461
30
0
10
33.09191
20
93.19295
30
0
10
32.686806
20
93.423808
30
0
10
32.526111
20
93.423808
30
0
0
SPLINE
5
6C
100
AcDbEntity
8
0
6
ByLayer
62
7
370
-1
100
AcDbSpline
210
0
220
0
230
1
70
8
71
3
72
8
73
4
74
0
42
1e-07
43
1e-07
40
0
40
0
40
0
40
0
40
1
40
1
40
1
40
1
10
32.526111
20
93.423808
30
0
10
32.031946
20
93.423808
30
0
10
24.716912
20
96.556249
30
0
10
24.473958
20
96.872211
30
0
0
SPLINE
5
6D
100
AcDbEntity
8
0
6
ByLayer
62
7
370
-1
100
AcDbSpline
210
0
220
0
230
1
70
8
71
3
72
8
73
4
74
0
42
1e-07
43
1e-07
40
0
40
0
40
0
40
0
40
1
40
1
40
1
40
1
10
24.473958
20
96.872211
30
0
10
24.401585
20
96.966329
30
0
10
22.681565
20
97.854488
30
0
10
20.655139
20
98.838947
30
0
0
SPLINE
5
6E
100
AcDbEntity
8
0
6
ByLayer
62
7
370
-1
100
AcDbSpline
210
0
220
0
230
1
70
8
71
3
72
8
73
4
74
0
42
1e-07
43
1e-07
40
0
40
0
40
0
40
0
40
1
40
1
40
1
40
1
10
20.655139
20
98.838947
30
0
10
18.628713
20
99.823408
30
0
10
16.815923
20
100.782368
30
0
10
16.624653
20
100.973252
30
0
0
SPLINE
5
6F
100
AcDbEntity
8
0
6
ByLayer
62
7
370
-1
100
AcDbSpline
210
0
220
0
230
1
70
8
71
3
72
8
73
4
74
0
42
1e-07
43
1e-07
40
0
40
0
40
0
40
0
40
1
40
1
40
1
40
1
10
16.624653
20
100.973252
30
0
10
15.676697
20
101.919284
30
0
10
14.208125
20
100.863287
30
0
10
14.208125
20
99.235822
30
0
0
SPLINE
5
70
100
AcDbEntity
8
0
6
ByLayer
62
7
370
-1
100
AcDbSpline
210
0
220
0
230
1
70
8
71
3
72
8
73
4
74
0
42
1e-07
43
1e-07
40
0
40
0
40
0
40
0
40
1
40
1
40
1
40
1
10
14.208125
20
99.235822
30
0
10
14.208125
20
98.505504
30
0
10
14.370699
20
98.372016
30
0
10
16.51
20
97.366099
30
0
0
SPLINE
5
71
100
AcDbEntity
8
0
6
ByLayer
62
7
370
-1
100
AcDbSpline
210
0
220
0
230
1
70
8
71
3
72
8
73
4
74
0
42
1e-07
43
1e-07
40
0
40
0
40
0
40
0
40
1
40
1
40
1
40
1
10
16.51
20
97.366099
30
0
10
17.776515
20
96.770574
30
0
10
19.411069
20
96.034152
30
0
10
20.134792
20
95.725683
30
0
0
SPLINE
5
72
100
AcDbEntity
8
0
6
ByLayer
62
7
370
-1
100
AcDbSpline
210
0
220
0
230
1
70
8
71
3
72
8
73
4
74
0
42
1e-07
43
1e-07
40
0
40
0
40
0
40
0
40
1
40
1
40
1
40
1
10
20.134792
20
95.725683
30
0
10
20.858517
20
95.417217
30
0
10
21.507357
20
95.080737
30
0
10
21.581181
20
94.97603
30
0
0
SPLINE
5
73
100
AcDbEntity
8
0
6
ByLayer
62
7
370
-1
100
AcDbSpline
210
0
220
0
230
1
70
8
71
3
72
8
73
4
74
0
42
1e-07
43
1e-07
40
0
40
0
40
0
40
0
40
1
40
1
40
1
40
1
10
21.581181
20
94.97603
30
0
10
21.736823
20
94.755273
30
0
10
24.33088
20
93.423808
30
0
10
24.60625
20
93.423808
30
0
0
SPLINE
5
74
100
AcDbEntity
8
0
6
ByLayer
62
7
370
-1
100
AcDbSpline
210
0
220
0
230
1
70
8
71
3
72
8
73
4
74
0
42
1e-07
43
1e-07
40
0
40
0
40
0
40
0
40
1
40
1
40
1
40
1
10
24.60625
20
93.423808
30
0
10
24.708098
20
93.423808
30
0
10
25.164378
20
93.252651
30
0
10
25.620486
20
93.044572
30
0
0
SPLINE
5
75
100
AcDbEntity
8
0
6
ByLayer
62
7
370
-1
100
AcDbSpline
210
0
220
0
230
1
70
8
71
3
72
8
73
4
74
0
42
1e-07
43
1e-07
40
0
40
0
40
0
40
0
40
1
40
1
40
1
40
1
10
25.620486
20
93.044572
30
0
10
26.076597
20
92.836492
30
0
10
27.219645
20
92.355769
30
0
10
28.160486
20
91.968599
30
0
0
SPLINE
5
76
100
AcDbEntity
8
0
6
ByLayer
62
7
370
-1
100
AcDbSpline
210
0
220
0
230
1
70
8
71
3
72
8
73
4
74
0
42
1e-07
43
1e-07
40
0
40
0
40
0
40
0
40
1
40
1
40
1
40
1
10
28.160486
20
91.968599
30
0
10
29.101328
20
91.581433
30
0
10
29.931377
20
91.1705
30
0
10
30.00375
20
91.060197
30
0
0
SPLINE
5
77
100
AcDbEntity
8
0
6
ByLayer
62
7
370
-1
100
AcDbSpline
210
0
220
0
230
1
70
8
71
3
72
8
73
4
74
0
42
1e-07
43
1e-07
40
0
40
0
40
0
40
0
40
1
40
1
40
1
40
1
10
30.00375
20
91.060197
30
0
10
30.076123
20
90.949887
30
0
10
30.751966
20
90.591928
30
0
10
31.511875
20
90.266447
30
0
0
SPLINE
5
78
100
AcDbEntity
8
0
6
ByLayer
62
7
370
-1
100
AcDbSpline
210
0
220
0
230
1
70
8
71
3
72
8
73
4
74
0
42
1e-07
43
1e-07
40
0
40
0
40
0
40
0
40
1
40
1
40
1
40
1
10
31.511875
20
90.266447
30
0
10
33.41996
20
89.449185
30
0
10
33.372242
20
88.958637
30
0
10
31.123819
20
86.668113
30
0
0
SPLINE
5
79
100
AcDbEntity
8
0
6
ByLayer
62
7
370
-1
100
AcDbSpline
210
0
220
0
230
1
70
8
71
3
72
8
73
4
74
0
42
1e-07
43
1e-07
40
0
40
0
40
0
40
0
40
1
40
1
40
1
40
1
10
31.123819
20
86.668113
30
0
10
30.146794
20
85.672786
30
0
10
28.877271
20
84.179125
30
0
10
28.310417
20
83.352002
30
0
0
SPLINE
5
7A
100
AcDbEntity
8
0
6
ByLayer
62
7
370
-1
100
AcDbSpline
210
0
220
0
230
1
70
8
71
3
72
8
73
4
74
0
42
1e-07
43
1e-07
40
0
40
0
40
0
40
0
40
1
40
1
40
1
40
1
10
28.310417
20
83.352002
30
0
10
27.743565
20
82.524882
30
0
10
27.200693
20
81.843877
30
0
10
27.102153
20
81.843877
30
0
0
SPLINE
5
7B
100
AcDbEntity
8
0
6
ByLayer
62
7
370
-1
100
AcDbSpline
210
0
220
0
230
1
70
8
71
3
72
8
73
4
74
0
42
1e-07
43
1e-07
40
0
40
0
40
0
40
0
40
1
40
1
40
1
40
1
10
27.102153
20
81.843877
30
0
10
27.003618
20
81.843877
30
0
10
26.661189
20
81.625361
30
0
10
26.343681
20
81.349988
30
0
0
SPLINE
5
7C
100
AcDbEntity
8
0
6
ByLayer
62
7
370
-1
100
AcDbSpline
210
0
220
0
230
1
70
8
71
3
72
8
73
4
74
0
42
1e-07
43
1e-07
40
0
40
0
40
0
40
0
40
1
40
1
40
1
40
1
10
26.343681
20
81.349988
30
0
10
25.961433
20
81.018465
30
0
10
25.040223
20
80.750729
30
0
10
23.609653
20
80.565058
30
0
0
SPLINE
5
7D
100
AcDbEntity
8
0
6
ByLayer
62
7
370
-1
100
AcDbSpline
210
0
220
0
230
1
70
8
71
3
72
8
73
4
74
0
42
1e-07
43
1e-07
40
0
40
0
40
0
40
0
40
1
40
1
40
1
40
1
10
23.609653
20
80.565058
30
0
10
16.012335
20
79.579013
30
0
10
14.737292
20
79.514124
30
0
10
14.737292
20
80.132905
30
0
0
SPLINE
5
7E
100
AcDbEntity
8
0
6
ByLayer
62
7
370
-1
100
AcDbSpline
210
0
220
0
230
1
70
8
71
3
72
8
73
4
74
0
42
1e-07
43
1e-07
40
0
40
0
40
0
40
0
40
1
40
1
40
1
40
1
10
14.737292
20
80.132905
30
0
10
14.737292
20
80.672367
30
0
10
14.506095
20
80.631287
30
0
10
13.987639
20
79.991794
30
0
0
SPLINE
5
7F
100
AcDbEntity
8
0
6
ByLayer
62
7
370
-1
100
AcDbSpline
210
0
220
0
230
1
70
8
71
3
72
8
73
4
74
0
42
1e-07
43
1e-07
40
0
40
0
40
0
40
0
40
1
40
1
40
1
40
1
10
13.987639
20
79.991794
30
0
10
13.474486
20
79.358843
30
0
10
12.250051
20
79.146239
30
0
10
5.538611
20
78.536586
30
0
0
SPLINE
5
80
100
AcDbEntity
8
0
6
ByLayer
62
7
370
-1
100
AcDbSpline
210
0
220
0
230
1
70
8
71
3
72
8
73
4
74
0
42
1e-07
43
1e-07
40
0
40
0
40
0
40
0
40
1
40
1
40
1
40
1
10
5.538611
20
78.536586
30
0
10
1.058808
20
78.129649
30
0
10
0
20
77.904128
30
0
10
0
20
77.345961
30
0
0
SPLINE
5
81
100
AcDbEntity
8
0
6
ByLayer
62
7
370
-1
100
AcDbSpline
210
0
220
0
230
1
70
8
71
3
72
8
73
4
74
0
42
1e-07
43
1e-07
40
0
40
0
40
0
40
0
40
1
40
1
40
1
40
1
10
0
20
77.345961
30
0
10
0
20
77.196202
30
0
10
0.347202
20
76.558247
30
0
10
0.776111
20
75.934849
30
0
0
SPLINE
5
82
100
AcDbEntity
8
0
6
ByLayer
62
7
370
-1
100
AcDbSpline
210
0
220
0
230
1
70
8
71
3
72
8
73
4
74
0
42
1e-07
43
1e-07
40
0
40
0
40
0
40
0
40
1
40
1
40
1
40
1
10
0.776111
20
75.934849
30
0
10
1.89787
20
74.304429
30
0
10
3.085954
20
73.898159
30
0
10
7.064375
20
73.747627
30
0
0
SPLINE
5
83
100
AcDbEntity
8
0
6
ByLayer
62
7
370
-1
100
AcDbSpline
210
0
220
0
230
1
70
8
71
3
72
8
73
4
74
0
42
1e-07
43
1e-07
40
0
40
0
40
0
40
0
40
1
40
1
40
1
40
1
10
7.064375
20
73.747627
30
0
10
9.345481
20
73.661321
30
0
10
10.343481
20
73.523348
30
0
10
10.433403
20
73.289016
30
0
0
SPLINE
5
84
100
AcDbEntity
8
0
6
ByLayer
62
7
370
-1
100
AcDbSpline
210
0
220
0
230
1
70
8
71
3
72
8
73
4
74
0
42
1e-07
43
1e-07
40
0
40
0
40
0
40
0
40
1
40
1
40
1
40
1
10
10.433403
20
73.289016
30
0
10
10.522517
20
73.056784
30
0
10
10.753663
20
73.150665
30
0
10
11.191875
20
73.588877
30
0
0
SPLINE
5
85
100
AcDbEntity
8
0
6
ByLayer
62
7
370
-1
100
AcDbSpline
210
0
220
0
230
1
70
8
71
3
72
8
73
4
74
0
42
1e-07
43
1e-07
40
0
40
0
40
0
40
0
40
1
40
1
40
1
40
1
10
11.191875
20
73.588877
30
0
10
11.665142
20
74.062144
30
0
10
12.107579
20
74.215058
30
0
10
12.982222
20
74.215058
30
0
0
SPLINE
5
86
100
AcDbEntity
8
0
6
ByLayer
62
7
370
-1
100
AcDbSpline
210
0
220
0
230
1
70
8
71
3
72
8
73
4
74
0
42
1e-07
43
1e-07
40
0
40
0
40
0
40
0
40
1
40
1
40
1
40
1
10
12.982222
20
74.215058
30
0
10
13.621506
20
74.215058
30
0
10
15.818719
20
74.395161
30
0
10
17.868194
20
74.620752
30
0
0
SPLINE
5
87
100
AcDbEntity
8
0
6
ByLayer
62
7
370
-1
100
AcDbSpline
210
0
220
0
230
1
70
8
71
3
72
8
73
4
74
0
42
1e-07
43
1e-07
40
0
40
0
40
0
40
0
40
1
40
1
40
1
40
1
10
17.868194
20
74.620752
30
0
10
19.917672
20
74.846344
30
0
10
22.039388
20
75.000553
30
0
10
22.577778
20
74.955891
30
0
0
SPLINE
5
88
100
AcDbEntity
8
0
6
ByLayer
62
7
370
-1
100
AcDbSpline
210
0
220
0
230
1
70
8
71
3
72
8
73
4
74
0
42
1e-07
43
1e-07
40
0
40
0
40
0
40
0
40
1
40
1
40
1
40
1
10
22.577778
20
74.955891
30
0
10
23.547237
20
74.875472
30
0
10
23.556736
20
74.861603
30
0
10
23.556736
20
73.712349
30
0
0
SPLINE
5
89
100
AcDbEntity
8
0
6
ByLayer
62
7
370
-1
100
AcDbSpline
210
0
220
0
230
1
70
8
71
3
72
8
73
4
74
0
42
1e-07
43
1e-07
40
0
40
0
40
0
40
0
40
1
40
1
40
1
40
1
10
23.556736
20
73.712349
30
0
10
23.556736
20
72.34176
30
0
10
23.964386
20
72.06475
30
0
10
24.491597
20
73.086169
30
0
0
SPLINE
5
8A
100
AcDbEntity
8
0
6
ByLayer
62
7
370
-1
100
AcDbSpline
210
0
220
0
230
1
70
8
71
3
72
8
73
4
74
0
42
1e-07
43
1e-07
40
0
40
0
40
0
40
0
40
1
40
1
40
1
40
1
10
24.491597
20
73.086169
30
0
10
25.186654
20
74.432787
30
0
10
25.465899
20
74.567793
30
0
10
25.655764
20
73.624155
30
0
0
SPLINE
5
8B
100
AcDbEntity
8
0
6
ByLayer
62
7
370
-1
100
AcDbSpline
210
0
220
0
230
1
70
8
71
3
72
8
73
4
74
0
42
1e-07
43
1e-07
40
0
40
0
40
0
40
0
40
1
40
1
40
1
40
1
10
25.655764
20
73.624155
30
0
10
25.917675
20
72.322419
30
0
10
26.548057
20
71.089658
30
0
10
27.102153
20
70.793113
30
0
0
SPLINE
5
8C
100
AcDbEntity
8
0
6
ByLayer
62
7
370
-1
100
AcDbSpline
210
0
220
0
230
1
70
8
71
3
72
8
73
4
74
0
42
1e-07
43
1e-07
40
0
40
0
40
0
40
0
40
1
40
1
40
1
40
1
10
27.102153
20
70.793113
30
0
10
27.755108
20
70.443657
30
0
10
27.967333
20
70.455957
30
0
10
27.737153
20
70.828391
30
0
0
SPLINE
5
8D
100
AcDbEntity
8
0
6
ByLayer
62
7
370
-1
100
AcDbSpline
210
0
220
0
230
1
70
8
71
3
72
8
73
4
74
0
42
1e-07
43
1e-07
40
0
40
0
40
0
40
0
40
1
40
1
40
1
40
1
10
27.737153
20
70.828391
30
0
10
27.603617
20
71.044466
30
0
10
27.772538
20
71.078242
30
0
10
28.319236
20
70.934224
30
0
0
SPLINE
5
8E
100
AcDbEntity
8
0
6
ByLayer
62
7
370
-1
100
AcDbSpline
210
0
220
0
230
1
70
8
71
3
72
8
73
4
74
0
42
1e-07
43
1e-07
40
0
40
0
40
0
40
0
40
1
40
1
40
1
40
1
10
28.319236
20
70.934224
30
0
10
29.620357
20
70.591468
30
0
10
29.86326
20
70.636054
30
0
10
29.950833
20
71.251724
30
0
0
SPLINE
5
8F
100
AcDbEntity
8
0
6
ByLayer
62
7
370
-1
100
AcDbSpline
210
0
220
0
230
1
70
8
71
3
72
8
73
4
74
0
42
1e-07
43
1e-07
40
0
40
0
40
0
40
0
40
1
40
1
40
1
40
1
10
29.950833
20
71.251724
30
0
10
30.020449
20
71.741146
30
0
10
30.208593
20
71.843629
30
0
10
31.009167
20
71.851447
30
0
0
LWPOLYLINE
5
90
100
AcDbEntity
8
0
6
ByLayer
62
7
370
-1
100
AcDbPolyline
90
3
70
0
43
0
10
71.331667
20
160.830822
10
68.853403
20
160.001794
10
67.257083
20
160.513322
0
SPLINE
5
91
100
AcDbEntity
8
0
6
ByLayer
62
7
370
-1
100
AcDbSpline
210
0
220
0
230
1
70
8
71
3
72
8
73
4
74
0
42
1e-07
43
1e-07
40
0
40
0
40
0
40
0
40
1
40
1
40
1
40
1
10
31.247292
20
72.459988
30
0
10
30.848732
20
72.786313
30
0
10
30.524097
20
73.31649
30
0
10
30.524097
20
73.641794
30
0
0
SPLINE
5
92
100
AcDbEntity
8
0
6
ByLayer
62
7
370
-1
100
AcDbSpline
210
0
220
0
230
1
70
8
71
3
72
8
73
4
74
0
42
1e-07
43
1e-07
40
0
40
0
40
0
40
0
40
1
40
1
40
1
40
1
10
30.524097
20
73.641794
30
0
10
30.524097
20
74.576709
30
0
10
31.219405
20
75.991006
30
0
10
31.75
20
76.137697
30
0
0
SPLINE
5
93
100
AcDbEntity
8
0
6
ByLayer
62
7
370
-1
100
AcDbSpline
210
0
220
0
230
1
70
8
71
3
72
8
73
4
74
0
42
1e-07
43
1e-07
40
0
40
0
40
0
40
0
40
1
40
1
40
1
40
1
10
31.75
20
76.137697
30
0
10
34.138926
20
76.798145
30
0
10
43.232761
20
78.296502
30
0
10
44.273611
20
78.201447
30
0
0
SPLINE
5
94
100
AcDbEntity
8
0
6
ByLayer
62
7
370
-1
100
AcDbSpline
210
0
220
0
230
1
70
8
71
3
72
8
73
4
74
0
42
1e-07
43
1e-07
40
0
40
0
40
0
40
0
40
1
40
1
40
1
40
1
10
44.273611
20
78.201447
30
0
10
44.769351
20
78.156175
30
0
10
44.751995
20
77.923156
30
0
10
44.070764
20
74.876516
30
0
0
SPLINE
5
95
100
AcDbEntity
8
0
6
ByLayer
62
7
370
-1
100
AcDbSpline
210
0
220
0
230
1
70
8
71
3
72
8
73
4
74
0
42
1e-07
43
1e-07
40
0
40
0
40
0
40
0
40
1
40
1
40
1
40
1
10
44.070764
20
74.876516
30
0
10
43.876572
20
74.008048
30
0
10
43.506864
20
72.347946
30
0
10
43.250556
20
71.189988
30
0
0
SPLINE
5
96
100
AcDbEntity
8
0
6
ByLayer
62
7
370
-1
100
AcDbSpline
210
0
220
0
230
1
70
8
71
3
72
8
73
4
74
0
42
1e-07
43
1e-07
40
0
40
0
40
0
40
0
40
1
40
1
40
1
40
1
10
43.250556
20
71.189988
30
0
10
42.99425
20
70.032031
30
0
10
42.709564
20
69.022222
30
0
10
42.615556
20
68.949849
30
0
0
SPLINE
5
97
100
AcDbEntity
8
0
6
ByLayer
62
7
370
-1
100
AcDbSpline
210
0
220
0
230
1
70
8
71
3
72
8
73
4
74
0
42
1e-07
43
1e-07
40
0
40
0
40
0
40
0
40
1
40
1
40
1
40
1
10
42.615556
20
68.949849
30
0
10
42.241151
20
68.66161
30
0
10
38.946667
20
54.503038
30
0
10
38.946667
20
53.180683
30
0
0
SPLINE
5
98
100
AcDbEntity
8
0
6
ByLayer
62
7
370
-1
100
AcDbSpline
210
0
220
0
230
1
70
8
71
3
72
8
73
4
74
0
42
1e-07
43
1e-07
40
0
40
0
40
0
40
0
40
1
40
1
40
1
40
1
10
38.946667
20
53.180683
30
0
10
38.946667
20
52.881984
30
0
10
38.826827
20
52.633877
30
0
10
38.682083
20
52.633877
30
0
0
SPLINE
5
99
100
AcDbEntity
8
0
6
ByLayer
62
7
370
-1
100
AcDbSpline
210
0
220
0
230
1
70
8
71
3
72
8
73
4
74
0
42
1e-07
43
1e-07
40
0
40
0
40
0
40
0
40
1
40
1
40
1
40
1
10
38.682083
20
52.633877
30
0
10
38.51612
20
52.633877
30
0
10
38.426319
20
50.835887
30
0
10
38.426319
20
47.765544
30
0
0
SPLINE
5
9A
100
AcDbEntity
8
0
6
ByLayer
62
7
370
-1
100
AcDbSpline
210
0
220
0
230
1
70
8
71
3
72
8
73
4
74
0
42
1e-07
43
1e-07
40
0
40
0
40
0
40
0
40
1
40
1
40
1
40
1
10
38.426319
20
47.765544
30
0
10
38.426319
20
44.946864
30
0
10
38.523045
20
42.897211
30
0
10
38.664444
20
42.897211
30
0
0
SPLINE
5
9B
100
AcDbEntity
8
0
6
ByLayer
62
7
370
-1
100
AcDbSpline
210
0
220
0
230
1
70
8
71
3
72
8
73
4
74
0
42
1e-07
43
1e-07
40
0
40
0
40
0
40
0
40
1
40
1
40
1
40
1
10
38.664444
20
42.897211
30
0
10
38.798774
20
42.897211
30
0
10
38.9885
20
42.212548
30
0
10
39.087778
20
41.380266
30
0
0
SPLINE
5
9C
100
AcDbEntity
8
0
6
ByLayer
62
7
370
-1
100
AcDbSpline
210
0
220
0
230
1
70
8
71
3
72
8
73
4
74
0
42
1e-07
43
1e-07
40
0
40
0
40
0
40
0
40
1
40
1
40
1
40
1
10
39.087778
20
41.380266
30
0
10
39.220253
20
40.26964
30
0
10
39.460554
20
39.675652
30
0
10
39.969722
20
39.131308
30
0
0
SPLINE
5
9D
100
AcDbEntity
8
0
6
ByLayer
62
7
370
-1
100
AcDbSpline
210
0
220
0
230
1
70
8
71
3
72
8
73
4
74
0
42
1e-07
43
1e-07
40
0
40
0
40
0
40
0
40
1
40
1
40
1
40
1
10
39.969722
20
39.131308
30
0
10
40.970234
20
38.061671
30
0
10
40.900037
20
36.008612
30
0
10
39.749236
20
32.234502
30
0
0
SPLINE
5
9E
100
AcDbEntity
8
0
6
ByLayer
62
7
370
-1
100
AcDbSpline
210
0
220
0
230
1
70
8
71
3
72
8
73
4
74
0
42
1e-07
43
1e-07
40
0
40
0
40
0
40
0
40
1
40
1
40
1
40
1
10
39.749236
20
32.234502
30
0
10
39.263746
20
30.642312
30
0
10
38.794837
20
29.281806
30
0
10
38.699722
20
29.209433
30
0
0
SPLINE
5
9F
100
AcDbEntity
8
0
6
ByLayer
62
7
370
-1
100
AcDbSpline
210
0
220
0
230
1
70
8
71
3
72
8
73
4
74
0
42
1e-07
43
1e-07
40
0
40
0
40
0
40
0
40
1
40
1
40
1
40
1
10
38.699722
20
29.209433
30
0
10
38.474001
20
29.037684
30
0
10
37.996227
20
26.750704
30
0
10
37.606111
20
23.970683
30
0
0
SPLINE
5
A0
100
AcDbEntity
8
0
6
ByLayer
62
7
370
-1
100
AcDbSpline
210
0
220
0
230
1
70
8
71
3
72
8
73
4
74
0
42
1e-07
43
1e-07
40
0
40
0
40
0
40
0
40
1
40
1
40
1
40
1
10
37.606111
20
23.970683
30
0
10
37.387112
20
22.410062
30
0
10
37.348654
20
19.368426
30
0
10
37.473819
20
13.704849
30
0
0
SPLINE
5
A1
100
AcDbEntity
8
0
6
ByLayer
62
7
370
-1
100
AcDbSpline
210
0
220
0
230
1
70
8
71
3
72
8
73
4
74
0
42
1e-07
43
1e-07
40
0
40
0
40
0
40
0
40
1
40
1
40
1
40
1
10
37.473819
20
13.704849
30
0
10
37.64865
20
5.794073
30
0
10
37.637635
20
5.645664
30
0
10
37.085764
20
4.753113
30
0
0
SPLINE
5
A2
100
AcDbEntity
8
0
6
ByLayer
62
7
370
-1
100
AcDbSpline
210
0
220
0
230
1
70
8
71
3
72
8
73
4
74
0
42
1e-07
43
1e-07
40
0
40
0
40
0
40
0
40
1
40
1
40
1
40
1
10
37.085764
20
4.753113
30
0
10
36.517286
20
3.833707
30
0
10
35.789306
20
1.451904
30
0
10
35.789306
20
0.510961
30
0
0
SPLINE
5
A3
100
AcDbEntity
8
0
6
ByLayer
62
7
370
-1
100
AcDbSpline
210
0
220
0
230
1
70
8
71
3
72
8
73
4
74
0
42
1e-07
43
1e-07
40
0
40
0
40
0
40
0
40
1
40
1
40
1
40
1
10
35.789306
20
0.510961
30
0
10
35.789306
20
0.023139
30
0
10
36.004791
20
-0.000567
30
0
10
40.005
20
-0.000567
30
0
0
LWPOLYLINE
5
A4
100
AcDbEntity
8
0
6
ByLayer
62
7
370
-1
100
AcDbPolyline
90
3
70
0
43
0
10
31.009167
20
71.851447
10
31.979306
20
71.869086
10
31.247292
20
72.459988
0
SPLINE
5
A5
100
AcDbEntity
8
0
6
ByLayer
62
7
370
-1
100
AcDbSpline
210
0
220
0
230
1
70
8
71
3
72
8
73
4
74
0
42
1e-07
43
1e-07
40
0
40
0
40
0
40
0
40
1
40
1
40
1
40
1
10
44.211875
20
1.428183
30
0
10
44.211875
20
2.213235
30
0
10
44.071873
20
3.449103
30
0
10
43.903194
20
4.179849
30
0
0
SPLINE
5
A6
100
AcDbEntity
8
0
6
ByLayer
62
7
370
-1
100
AcDbSpline
210
0
220
0
230
1
70
8
71
3
72
8
73
4
74
0
42
1e-07
43
1e-07
40
0
40
0
40
0
40
0
40
1
40
1
40
1
40
1
10
43.903194
20
4.179849
30
0
10
43.597912
20
5.502408
30
0
10
43.895202
20
7.838242
30
0
10
44.502917
20
8.93353
30
0
0
SPLINE
5
A7
100
AcDbEntity
8
0
6
ByLayer
62
7
370
-1
100
AcDbSpline
210
0
220
0
230
1
70
8
71
3
72
8
73
4
74
0
42
1e-07
43
1e-07
40
0
40
0
40
0
40
0
40
1
40
1
40
1
40
1
10
44.502917
20
8.93353
30
0
10
44.803895
20
9.475981
30
0
10
45.584229
20
14.509304
30
0
10
46.575486
20
22.242072
30
0
0
SPLINE
5
A8
100
AcDbEntity
8
0
6
ByLayer
62
7
370
-1
100
AcDbSpline
210
0
220
0
230
1
70
8
71
3
72
8
73
4
74
0
42
1e-07
43
1e-07
40
0
40
0
40
0
40
0
40
1
40
1
40
1
40
1
10
46.575486
20
22.242072
30
0
10
47.020799
20
25.715945
30
0
10
47.433526
20
28.727733
30
0
10
47.492708
20
28.944849
30
0
0
SPLINE
5
A9
100
AcDbEntity
8
0
6
ByLayer
62
7
370
-1
100
AcDbSpline
210
0
220
0
230
1
70
8
71
3
72
8
73
4
74
0
42
1e-07
43
1e-07
40
0
40
0
40
0
40
0
40
1
40
1
40
1
40
1
10
47.492708
20
28.944849
30
0
10
47.55189
20
29.161966
30
0
10
47.730644
20
29.846628
30
0
10
47.889583
20
30.461794
30
0
0
SPLINE
5
AA
100
AcDbEntity
8
0
6
ByLayer
62
7
370
-1
100
AcDbSpline
210
0
220
0
230
1
70
8
71
3
72
8
73
4
74
0
42
1e-07
43
1e-07
40
0
40
0
40
0
40
0
40
1
40
1
40
1
40
1
10
47.889583
20
30.461794
30
0
10
48.158245
20
31.501633
30
0
10
48.239663
20
31.581863
30
0
10
49.071389
20
31.581863
30
0
0
SPLINE
5
AB
100
AcDbEntity
8
0
6
ByLayer
62
7
370
-1
100
AcDbSpline
210
0
220
0
230
1
70
8
71
3
72
8
73
4
74
0
42
1e-07
43
1e-07
40
0
40
0
40
0
40
0
40
1
40
1
40
1
40
1
10
49.071389
20
31.581863
30
0
10
49.563432
20
31.581863
30
0
10
50.715393
20
31.411314
30
0
10
51.629028
20
31.202627
30
0
0
SPLINE
5
AC
100
AcDbEntity
8
0
6
ByLayer
62
7
370
-1
100
AcDbSpline
210
0
220
0
230
1
70
8
71
3
72
8
73
4
74
0
42
1e-07
43
1e-07
40
0
40
0
40
0
40
0
40
1
40
1
40
1
40
1
10
51.629028
20
31.202627
30
0
10
52.542666
20
30.993938
30
0
10
54.861717
20
30.739393
30
0
10
56.779583
20
30.638183
30
0
0
SPLINE
5
AD
100
AcDbEntity
8
0
6
ByLayer
62
7
370
-1
100
AcDbSpline
210
0
220
0
230
1
70
8
71
3
72
8
73
4
74
0
42
1e-07
43
1e-07
40
0
40
0
40
0
40
0
40
1
40
1
40
1
40
1
10
56.779583
20
30.638183
30
0
10
58.697453
20
30.536972
30
0
10
60.263264
20
30.35589
30
0
10
60.263264
20
30.241308
30
0
0
SPLINE
5
AE
100
AcDbEntity
8
0
6
ByLayer
62
7
370
-1
100
AcDbSpline
210
0
220
0
230
1
70
8
71
3
72
8
73
4
74
0
42
1e-07
43
1e-07
40
0
40
0
40
0
40
0
40
1
40
1
40
1
40
1
10
60.263264
20
30.241308
30
0
10
60.263264
20
29.95286
30
0
10
61.336964
20
29.622581
30
0
10
61.974236
20
29.712141
30
0
0
SPLINE
5
AF
100
AcDbEntity
8
0
6
ByLayer
62
7
370
-1
100
AcDbSpline
210
0
220
0
230
1
70
8
71
3
72
8
73
4
74
0
42
1e-07
43
1e-07
40
0
40
0
40
0
40
0
40
1
40
1
40
1
40
1
10
61.974236
20
29.712141
30
0
10
62.263726
20
29.752823
30
0
10
62.783065
20
30.04323
30
0
10
63.120764
20
30.355961
30
0
0
SPLINE
5
B0
100
AcDbEntity
8
0
6
ByLayer
62
7
370
-1
100
AcDbSpline
210
0
220
0
230
1
70
8
71
3
72
8
73
4
74
0
42
1e-07
43
1e-07
40
0
40
0
40
0
40
0
40
1
40
1
40
1
40
1
10
63.120764
20
30.355961
30
0
10
63.676033
20
30.870195
30
0
10
63.984415
20
30.916005
30
0
10
66.3575
20
30.858669
30
0
0
SPLINE
5
B1
100
AcDbEntity
8
0
6
ByLayer
62
7
370
-1
100
AcDbSpline
210
0
220
0
230
1
70
8
71
3
72
8
73
4
74
0
42
1e-07
43
1e-07
40
0
40
0
40
0
40
0
40
1
40
1
40
1
40
1
10
66.3575
20
30.858669
30
0
10
68.210997
20
30.813891
30
0
10
69.257254
20
30.907843
30
0
10
69.920556
20
31.184988
30
0
0
SPLINE
5
B2
100
AcDbEntity
8
0
6
ByLayer
62
7
370
-1
100
AcDbSpline
210
0
220
0
230
1
70
8
71
3
72
8
73
4
74
0
42
1e-07
43
1e-07
40
0
40
0
40
0
40
0
40
1
40
1
40
1
40
1
10
69.920556
20
31.184988
30
0
10
70.437036
20
31.40079
30
0
10
70.945609
20
31.581863
30
0
10
71.049444
20
31.581863
30
0
0
SPLINE
5
B3
100
AcDbEntity
8
0
6
ByLayer
62
7
370
-1
100
AcDbSpline
210
0
220
0
230
1
70
8
71
3
72
8
73
4
74
0
42
1e-07
43
1e-07
40
0
40
0
40
0
40
0
40
1
40
1
40
1
40
1
10
71.049444
20
31.581863
30
0
10
71.578933
20
31.581863
30
0
10
72.259531
20
28.7214
30
0
10
73.324861
20
22.039224
30
0
0
SPLINE
5
B4
100
AcDbEntity
8
0
6
ByLayer
62
7
370
-1
100
AcDbSpline
210
0
220
0
230
1
70
8
71
3
72
8
73
4
74
0
42
1e-07
43
1e-07
40
0
40
0
40
0
40
0
40
1
40
1
40
1
40
1
10
73.324861
20
22.039224
30
0
10
73.572934
20
20.483218
30
0
10
73.874071
20
19.208183
30
0
10
73.995139
20
19.208183
30
0
0
SPLINE
5
B5
100
AcDbEntity
8
0
6
ByLayer
62
7
370
-1
100
AcDbSpline
210
0
220
0
230
1
70
8
71
3
72
8
73
4
74
0
42
1e-07
43
1e-07
40
0
40
0
40
0
40
0
40
1
40
1
40
1
40
1
10
73.995139
20
19.208183
30
0
10
74.116209
20
19.208183
30
0
10
74.215625
20
18.862192
30
0
10
74.215625
20
18.432072
30
0
0
SPLINE
5
B6
100
AcDbEntity
8
0
6
ByLayer
62
7
370
-1
100
AcDbSpline
210
0
220
0
230
1
70
8
71
3
72
8
73
4
74
0
42
1e-07
43
1e-07
40
0
40
0
40
0
40
0
40
1
40
1
40
1
40
1
10
74.215625
20
18.432072
30
0
10
74.215625
20
18.001951
30
0
10
74.388588
20
16.786835
30
0
10
74.603681
20
15.733322
30
0
0
SPLINE
5
B7
100
AcDbEntity
8
0
6
ByLayer
62
7
370
-1
100
AcDbSpline
210
0
220
0
230
1
70
8
71
3
72
8
73
4
74
0
42
1e-07
43
1e-07
40
0
40
0
40
0
40
0
40
1
40
1
40
1
40
1
10
74.603681
20
15.733322
30
0
10
74.818773
20
14.679809
30
0
10
75.420686
20
11.772457
30
0
10
75.935417
20
9.277488
30
0
0
SPLINE
5
B8
100
AcDbEntity
8
0
6
ByLayer
62
7
370
-1
100
AcDbSpline
210
0
220
0
230
1
70
8
71
3
72
8
73
4
74
0
42
1e-07
43
1e-07
40
0
40
0
40
0
40
0
40
1
40
1
40
1
40
1
10
75.935417
20
9.277488
30
0
10
76.660987
20
5.760551
30
0
10
76.801099
20
4.620864
30
0
10
76.579236
20
4.206308
30
0
0
SPLINE
5
B9
100
AcDbEntity
8
0
6
ByLayer
62
7
370
-1
100
AcDbSpline
210
0
220
0
230
1
70
8
71
3
72
8
73
4
74
0
42
1e-07
43
1e-07
40
0
40
0
40
0
40
0
40
1
40
1
40
1
40
1
10
76.579236
20
4.206308
30
0
10
76.421841
20
3.912215
30
0
10
76.333652
20
2.878734
30
0
10
76.376389
20
1.904433
30
0
0
LWPOLYLINE
5
BA
100
AcDbEntity
8
0
6
ByLayer
62
7
370
-1
100
AcDbPolyline
90
3
70
0
43
0
10
40.005
20
-0.000567
10
44.211875
20
-0.000567
10
44.211875
20
1.428183
0
SPLINE
5
BB
100
AcDbEntity
8
0
6
ByLayer
62
7
370
-1
100
AcDbSpline
210
0
220
0
230
1
70
8
71
3
72
8
73
4
74
0
42
1e-07
43
1e-07
40
0
40
0
40
0
40
0
40
1
40
1
40
1
40
1
10
80.724375
20
0.061169
30
0
10
84.957556
20
-0.010411
30
0
10
85.001806
20
-0.009443
30
0
10
85.001806
20
0.555058
30
0
0
SPLINE
5
BC
100
AcDbEntity
8
0
6
ByLayer
62
7
370
-1
100
AcDbSpline
210
0
220
0
230
1
70
8
71
3
72
8
73
4
74
0
42
1e-07
43
1e-07
40
0
40
0
40
0
40
0
40
1
40
1
40
1
40
1
10
85.001806
20
0.555058
30
0
10
85.001806
20
1.604388
30
0
10
83.93789
20
4.716187
30
0
10
83.493681
20
4.96478
30
0
0
SPLINE
5
BD
100
AcDbEntity
8
0
6
ByLayer
62
7
370
-1
100
AcDbSpline
210
0
220
0
230
1
70
8
71
3
72
8
73
4
74
0
42
1e-07
43
1e-07
40
0
40
0
40
0
40
0
40
1
40
1
40
1
40
1
10
83.493681
20
4.96478
30
0
10
82.962383
20
5.262107
30
0
10
82.686694
20
8.928938
30
0
10
82.655833
20
16.059641
30
0
0
SPLINE
5
BE
100
AcDbEntity
8
0
6
ByLayer
62
7
370
-1
100
AcDbSpline
210
0
220
0
230
1
70
8
71
3
72
8
73
4
74
0
42
1e-07
43
1e-07
40
0
40
0
40
0
40
0
40
1
40
1
40
1
40
1
10
82.655833
20
16.059641
30
0
10
82.635395
20
20.782901
30
0
10
82.377509
20
23.677095
30
0
10
81.685694
20
27.048669
30
0
0
SPLINE
5
BF
100
AcDbEntity
8
0
6
ByLayer
62
7
370
-1
100
AcDbSpline
210
0
220
0
230
1
70
8
71
3
72
8
73
4
74
0
42
1e-07
43
1e-07
40
0
40
0
40
0
40
0
40
1
40
1
40
1
40
1
10
81.685694
20
27.048669
30
0
10
81.259011
20
29.128113
30
0
10
80.199535
20
32.461169
30
0
10
79.595486
20
33.619155
30
0
0
SPLINE
5
C0
100
AcDbEntity
8
0
6
ByLayer
62
7
370
-1
100
AcDbSpline
210
0
220
0
230
1
70
8
71
3
72
8
73
4
74
0
42
1e-07
43
1e-07
40
0
40
0
40
0
40
0
40
1
40
1
40
1
40
1
10
79.595486
20
33.619155
30
0
10
79.386983
20
34.018861
30
0
10
79.217097
20
34.624351
30
0
10
79.21625
20
34.96853
30
0
0
SPLINE
5
C1
100
AcDbEntity
8
0
6
ByLayer
62
7
370
-1
100
AcDbSpline
210
0
220
0
230
1
70
8
71
3
72
8
73
4
74
0
42
1e-07
43
1e-07
40
0
40
0
40
0
40
0
40
1
40
1
40
1
40
1
10
79.21625
20
34.96853
30
0
10
79.21474
20
35.551378
30
0
10
79.285186
20
35.583944
30
0
10
80.265764
20
35.427141
30
0
0
SPLINE
5
C2
100
AcDbEntity
8
0
6
ByLayer
62
7
370
-1
100
AcDbSpline
210
0
220
0
230
1
70
8
71
3
72
8
73
4
74
0
42
1e-07
43
1e-07
40
0
40
0
40
0
40
0
40
1
40
1
40
1
40
1
10
80.265764
20
35.427141
30
0
10
81.763766
20
35.187602
30
0
10
84.78638
20
35.920401
30
0
10
85.672083
20
36.741238
30
0
0
SPLINE
5
C3
100
AcDbEntity
8
0
6
ByLayer
62
7
370
-1
100
AcDbSpline
210
0
220
0
230
1
70
8
71
3
72
8
73
4
74
0
42
1e-07
43
1e-07
40
0
40
0
40
0
40
0
40
1
40
1
40
1
40
1
10
85.672083
20
36.741238
30
0
10
86.062611
20
37.103166
30
0
10
86.873328
20
37.707367
30
0
10
87.47125
20
38.081794
30
0
0
SPLINE
5
C4
100
AcDbEntity
8
0
6
ByLayer
62
7
370
-1
100
AcDbSpline
210
0
220
0
230
1
70
8
71
3
72
8
73
4
74
0
42
1e-07
43
1e-07
40
0
40
0
40
0
40
0
40
1
40
1
40
1
40
1
10
87.47125
20
38.081794
30
0
10
88.069172
20
38.456224
30
0
10
88.61596
20
38.84466
30
0
10
88.688333
20
38.946099
30
0
0
SPLINE
5
C5
100
AcDbEntity
8
0
6
ByLayer
62
7
370
-1
100
AcDbSpline
210
0
220
0
230
1
70
8
71
3
72
8
73
4
74
0
42
1e-07
43
1e-07
40
0
40
0
40
0
40
0
40
1
40
1
40
1
40
1
10
88.688333
20
38.946099
30
0
10
88.98117
20
39.356541
30
0
10
90.016815
20
39.739849
30
0
10
90.849097
20
39.739849
30
0
0
SPLINE
5
C6
100
AcDbEntity
8
0
6
ByLayer
62
7
370
-1
100
AcDbSpline
210
0
220
0
230
1
70
8
71
3
72
8
73
4
74
0
42
1e-07
43
1e-07
40
0
40
0
40
0
40
0
40
1
40
1
40
1
40
1
10
90.849097
20
39.739849
30
0
10
91.509638
20
39.739849
30
0
10
92.028024
20
40.004571
30
0
10
92.895208
20
40.789363
30
0
0
SPLINE
5
C7
100
AcDbEntity
8
0
6
ByLayer
62
7
370
-1
100
AcDbSpline
210
0
220
0
230
1
70
8
71
3
72
8
73
4
74
0
42
1e-07
43
1e-07
40
0
40
0
40
0
40
0
40
1
40
1
40
1
40
1
10
92.895208
20
40.789363
30
0
10
93.532895
20
41.36646
30
0
10
94.479759
20
41.971186
30
0
10
94.994236
20
42.138738
30
0
0
SPLINE
5
C8
100
AcDbEntity
8
0
6
ByLayer
62
7
370
-1
100
AcDbSpline
210
0
220
0
230
1
70
8
71
3
72
8
73
4
74
0
42
1e-07
43
1e-07
40
0
40
0
40
0
40
0
40
1
40
1
40
1
40
1
10
94.994236
20
42.138738
30
0
10
96.603134
20
42.662706
30
0
10
100.268264
20
45.60178
30
0
10
100.268264
20
46.363252
30
0
0
SPLINE
5
C9
100
AcDbEntity
8
0
6
ByLayer
62
7
370
-1
100
AcDbSpline
210
0
220
0
230
1
70
8
71
3
72
8
73
4
74
0
42
1e-07
43
1e-07
40
0
40
0
40
0
40
0
40
1
40
1
40
1
40
1
10
100.268264
20
46.363252
30
0
10
100.268264
20
46.886676
30
0
10
102.386424
20
48.700701
30
0
10
103.178681
20
48.859155
30
0
0
SPLINE
5
CA
100
AcDbEntity
8
0
6
ByLayer
62
7
370
-1
100
AcDbSpline
210
0
220
0
230
1
70
8
71
3
72
8
73
4
74
0
42
1e-07
43
1e-07
40
0
40
0
40
0
40
0
40
1
40
1
40
1
40
1
10
103.178681
20
48.859155
30
0
10
104.253072
20
49.074033
30
0
10
106.13727
20
50.991273
30
0
10
105.956806
20
51.681377
30
0
0
SPLINE
5
CB
100
AcDbEntity
8
0
6
ByLayer
62
7
370
-1
100
AcDbSpline
210
0
220
0
230
1
70
8
71
3
72
8
73
4
74
0
42
1e-07
43
1e-07
40
0
40
0
40
0
40
0
40
1
40
1
40
1
40
1
10
105.956806
20
51.681377
30
0
10
105.796266
20
52.295275
30
0
10
106.542705
20
53.683391
30
0
10
107.032778
20
53.683391
30
0
0
SPLINE
5
CC
100
AcDbEntity
8
0
6
ByLayer
62
7
370
-1
100
AcDbSpline
210
0
220
0
230
1
70
8
71
3
72
8
73
4
74
0
42
1e-07
43
1e-07
40
0
40
0
40
0
40
0
40
1
40
1
40
1
40
1
10
107.032778
20
53.683391
30
0
10
107.218683
20
53.683391
30
0
10
107.376736
20
53.803231
30
0
10
107.376736
20
53.947974
30
0
0
SPLINE
5
CD
100
AcDbEntity
8
0
6
ByLayer
62
7
370
-1
100
AcDbSpline
210
0
220
0
230
1
70
8
71
3
72
8
73
4
74
0
42
1e-07
43
1e-07
40
0
40
0
40
0
40
0
40
1
40
1
40
1
40
1
10
107.376736
20
53.947974
30
0
10
107.376736
20
54.092721
30
0
10
107.541839
20
54.212558
30
0
10
107.747153
20
54.212558
30
0
0
SPLINE
5
CE
100
AcDbEntity
8
0
6
ByLayer
62
7
370
-1
100
AcDbSpline
210
0
220
0
230
1
70
8
71
3
72
8
73
4
74
0
42
1e-07
43
1e-07
40
0
40
0
40
0
40
0
40
1
40
1
40
1
40
1
10
107.747153
20
54.212558
30
0
10
108.304688
20
54.212558
30
0
10
109.163843
20
55.783573
30
0
10
109.493403
20
57.396377
30
0
0
SPLINE
5
CF
100
AcDbEntity
8
0
6
ByLayer
62
7
370
-1
100
AcDbSpline
210
0
220
0
230
1
70
8
71
3
72
8
73
4
74
0
42
1e-07
43
1e-07
40
0
40
0
40
0
40
0
40
1
40
1
40
1
40
1
10
109.493403
20
57.396377
30
0
10
110.271721
20
61.20537
30
0
10
110.585552
20
62.232608
30
0
10
111.072083
20
62.573391
30
0
0
SPLINE
5
D0
100
AcDbEntity
8
0
6
ByLayer
62
7
370
-1
100
AcDbSpline
210
0
220
0
230
1
70
8
71
3
72
8
73
4
74
0
42
1e-07
43
1e-07
40
0
40
0
40
0
40
0
40
1
40
1
40
1
40
1
10
111.072083
20
62.573391
30
0
10
111.352734
20
62.769964
30
0
10
111.583611
20
63.154408
30
0
10
111.583611
20
63.428877
30
0
0
SPLINE
5
D1
100
AcDbEntity
8
0
6
ByLayer
62
7
370
-1
100
AcDbSpline
210
0
220
0
230
1
70
8
71
3
72
8
73
4
74
0
42
1e-07
43
1e-07
40
0
40
0
40
0
40
0
40
1
40
1
40
1
40
1
10
111.583611
20
63.428877
30
0
10
111.583611
20
64.067165
30
0
10
111.04317
20
65.263322
30
0
10
110.754583
20
65.263322
30
0
0
SPLINE
5
D2
100
AcDbEntity
8
0
6
ByLayer
62
7
370
-1
100
AcDbSpline
210
0
220
0
230
1
70
8
71
3
72
8
73
4
74
0
42
1e-07
43
1e-07
40
0
40
0
40
0
40
0
40
1
40
1
40
1
40
1
10
110.754583
20
65.263322
30
0
10
110.633073
20
65.263322
30
0
10
110.534097
20
65.47347
30
0
10
110.534097
20
65.730752
30
0
0
SPLINE
5
D3
100
AcDbEntity
8
0
6
ByLayer
62
7
370
-1
100
AcDbSpline
210
0
220
0
230
1
70
8
71
3
72
8
73
4
74
0
42
1e-07
43
1e-07
40
0
40
0
40
0
40
0
40
1
40
1
40
1
40
1
10
110.534097
20
65.730752
30
0
10
110.534097
20
65.988037
30
0
10
110.343188
20
66.474893
30
0
10
110.110764
20
66.806724
30
0
0
SPLINE
5
D4
100
AcDbEntity
8
0
6
ByLayer
62
7
370
-1
100
AcDbSpline
210
0
220
0
230
1
70
8
71
3
72
8
73
4
74
0
42
1e-07
43
1e-07
40
0
40
0
40
0
40
0
40
1
40
1
40
1
40
1
10
110.110764
20
66.806724
30
0
10
109.744603
20
67.329493
30
0
10
109.538835
20
67.387978
30
0
10
108.593819
20
67.238877
30
0
0
SPLINE
5
D5
100
AcDbEntity
8
0
6
ByLayer
62
7
370
-1
100
AcDbSpline
210
0
220
0
230
1
70
8
71
3
72
8
73
4
74
0
42
1e-07
43
1e-07
40
0
40
0
40
0
40
0
40
1
40
1
40
1
40
1
10
108.593819
20
67.238877
30
0
10
107.993965
20
67.144237
30
0
10
107.054416
20
66.938189
30
0
10
106.503611
20
66.780266
30
0
0
SPLINE
5
D6
100
AcDbEntity
8
0
6
ByLayer
62
7
370
-1
100
AcDbSpline
210
0
220
0
230
1
70
8
71
3
72
8
73
4
74
0
42
1e-07
43
1e-07
40
0
40
0
40
0
40
0
40
1
40
1
40
1
40
1
10
106.503611
20
66.780266
30
0
10
105.532075
20
66.501713
30
0
10
103.801999
20
66.731981
30
0
10
102.243819
20
67.35353
30
0
0
SPLINE
5
D7
100
AcDbEntity
8
0
6
ByLayer
62
7
370
-1
100
AcDbSpline
210
0
220
0
230
1
70
8
71
3
72
8
73
4
74
0
42
1e-07
43
1e-07
40
0
40
0
40
0
40
0
40
1
40
1
40
1
40
1
10
102.243819
20
67.35353
30
0
10
101.95433
20
67.469004
30
0
10
100.354147
20
67.944582
30
0
10
98.689583
20
68.411863
30
0
0
SPLINE
5
D8
100
AcDbEntity
8
0
6
ByLayer
62
7
370
-1
100
AcDbSpline
210
0
220
0
230
1
70
8
71
3
72
8
73
4
74
0
42
1e-07
43
1e-07
40
0
40
0
40
0
40
0
40
1
40
1
40
1
40
1
10
98.689583
20
68.411863
30
0
10
97.02502
20
68.879144
30
0
10
95.604595
20
69.351466
30
0
10
95.532222
20
69.461377
30
0
0
SPLINE
5
D9
100
AcDbEntity
8
0
6
ByLayer
62
7
370
-1
100
AcDbSpline
210
0
220
0
230
1
70
8
71
3
72
8
73
4
74
0
42
1e-07
43
1e-07
40
0
40
0
40
0
40
0
40
1
40
1
40
1
40
1
10
95.532222
20
69.461377
30
0
10
95.459849
20
69.571289
30
0
10
94.929396
20
69.810145
30
0
10
94.350417
20
69.990544
30
0
0
SPLINE
5
DA
100
AcDbEntity
8
0
6
ByLayer
62
7
370
-1
100
AcDbSpline
210
0
220
0
230
1
70
8
71
3
72
8
73
4
74
0
42
1e-07
43
1e-07
40
0
40
0
40
0
40
0
40
1
40
1
40
1
40
1
10
94.350417
20
69.990544
30
0
10
93.771438
20
70.170943
30
0
10
92.171255
20
70.711624
30
0
10
90.796181
20
71.189988
30
0
0
SPLINE
5
DB
100
AcDbEntity
8
0
6
ByLayer
62
7
370
-1
100
AcDbSpline
210
0
220
0
230
1
70
8
71
3
72
8
73
4
74
0
42
1e-07
43
1e-07
40
0
40
0
40
0
40
0
40
1
40
1
40
1
40
1
10
90.796181
20
71.189988
30
0
10
89.421106
20
71.668352
30
0
10
87.624375
20
72.245482
30
0
10
86.800972
20
72.477627
30
0
0
SPLINE
5
DC
100
AcDbEntity
8
0
6
ByLayer
62
7
370
-1
100
AcDbSpline
210
0
220
0
230
1
70
8
71
3
72
8
73
4
74
0
42
1e-07
43
1e-07
40
0
40
0
40
0
40
0
40
1
40
1
40
1
40
1
10
86.800972
20
72.477627
30
0
10
85.977566
20
72.709769
30
0
10
85.138074
20
73.064548
30
0
10
84.940069
20
73.262558
30
0
0
SPLINE
5
DD
100
AcDbEntity
8
0
6
ByLayer
62
7
370
-1
100
AcDbSpline
210
0
220
0
230
1
70
8
71
3
72
8
73
4
74
0
42
1e-07
43
1e-07
40
0
40
0
40
0
40
0
40
1
40
1
40
1
40
1
10
84.940069
20
73.262558
30
0
10
84.742065
20
73.460562
30
0
10
84.168477
20
73.711017
30
0
10
83.670069
20
73.818183
30
0
0
SPLINE
5
DE
100
AcDbEntity
8
0
6
ByLayer
62
7
370
-1
100
AcDbSpline
210
0
220
0
230
1
70
8
71
3
72
8
73
4
74
0
42
1e-07
43
1e-07
40
0
40
0
40
0
40
0
40
1
40
1
40
1
40
1
10
83.670069
20
73.818183
30
0
10
83.171665
20
73.925343
30
0
10
82.505939
20
74.148281
30
0
10
82.188403
20
74.312072
30
0
0
SPLINE
5
DF
100
AcDbEntity
8
0
6
ByLayer
62
7
370
-1
100
AcDbSpline
210
0
220
0
230
1
70
8
71
3
72
8
73
4
74
0
42
1e-07
43
1e-07
40
0
40
0
40
0
40
0
40
1
40
1
40
1
40
1
10
82.188403
20
74.312072
30
0
10
81.4384
20
74.698931
30
0
10
78.951667
20
77.084324
30
0
10
78.951667
20
77.416516
30
0
0
SPLINE
5
E0
100
AcDbEntity
8
0
6
ByLayer
62
7
370
-1
100
AcDbSpline
210
0
220
0
230
1
70
8
71
3
72
8
73
4
74
0
42
1e-07
43
1e-07
40
0
40
0
40
0
40
0
40
1
40
1
40
1
40
1
10
78.951667
20
77.416516
30
0
10
78.951667
20
77.557334
30
0
10
78.602386
20
78.180794
30
0
10
78.175556
20
78.801169
30
0
0
SPLINE
5
E1
100
AcDbEntity
8
0
6
ByLayer
62
7
370
-1
100
AcDbSpline
210
0
220
0
230
1
70
8
71
3
72
8
73
4
74
0
42
1e-07
43
1e-07
40
0
40
0
40
0
40
0
40
1
40
1
40
1
40
1
10
78.175556
20
78.801169
30
0
10
77.748723
20
79.421547
30
0
10
77.101169
20
80.599325
30
0
10
76.737986
20
81.420544
30
0
0
SPLINE
5
E2
100
AcDbEntity
8
0
6
ByLayer
62
7
370
-1
100
AcDbSpline
210
0
220
0
230
1
70
8
71
3
72
8
73
4
74
0
42
1e-07
43
1e-07
40
0
40
0
40
0
40
0
40
1
40
1
40
1
40
1
10
76.737986
20
81.420544
30
0
10
76.374806
20
82.241763
30
0
10
75.894034
20
83.093526
30
0
10
75.670833
20
83.316724
30
0
0
SPLINE
5
E3
100
AcDbEntity
8
0
6
ByLayer
62
7
370
-1
100
AcDbSpline
210
0
220
0
230
1
70
8
71
3
72
8
73
4
74
0
42
1e-07
43
1e-07
40
0
40
0
40
0
40
0
40
1
40
1
40
1
40
1
10
75.670833
20
83.316724
30
0
10
75.086647
20
83.900913
30
0
10
75.176205
20
84.455948
30
0
10
75.891319
20
84.727836
30
0
0
SPLINE
5
E4
100
AcDbEntity
8
0
6
ByLayer
62
7
370
-1
100
AcDbSpline
210
0
220
0
230
1
70
8
71
3
72
8
73
4
74
0
42
1e-07
43
1e-07
40
0
40
0
40
0
40
0
40
1
40
1
40
1
40
1
10
75.891319
20
84.727836
30
0
10
76.232862
20
84.857689
30
0
10
79.09926
20
85.461294
30
0
10
82.267778
20
86.068391
30
0
0
SPLINE
5
E5
100
AcDbEntity
8
0
6
ByLayer
62
7
370
-1
100
AcDbSpline
210
0
220
0
230
1
70
8
71
3
72
8
73
4
74
0
42
1e-07
43
1e-07
40
0
40
0
40
0
40
0
40
1
40
1
40
1
40
1
10
82.267778
20
86.068391
30
0
10
85.436298
20
86.675493
30
0
10
88.086794
20
87.256468
30
0
10
88.159167
20
87.364849
30
0
0
SPLINE
5
E6
100
AcDbEntity
8
0
6
ByLayer
62
7
370
-1
100
AcDbSpline
210
0
220
0
230
1
70
8
71
3
72
8
73
4
74
0
42
1e-07
43
1e-07
40
0
40
0
40
0
40
0
40
1
40
1
40
1
40
1
10
88.159167
20
87.364849
30
0
10
88.23154
20
87.473231
30
0
10
89.061589
20
87.687802
30
0
10
90.002431
20
87.83228
30
0
0
SPLINE
5
E7
100
AcDbEntity
8
0
6
ByLayer
62
7
370
-1
100
AcDbSpline
210
0
220
0
230
1
70
8
71
3
72
8
73
4
74
0
42
1e-07
43
1e-07
40
0
40
0
40
0
40
0
40
1
40
1
40
1
40
1
10
90.002431
20
87.83228
30
0
10
93.097996
20
88.307649
30
0
10
97.496974
20
89.279264
30
0
10
97.860556
20
89.569711
30
0
0
SPLINE
5
E8
100
AcDbEntity
8
0
6
ByLayer
62
7
370
-1
100
AcDbSpline
210
0
220
0
230
1
70
8
71
3
72
8
73
4
74
0
42
1e-07
43
1e-07
40
0
40
0
40
0
40
0
40
1
40
1
40
1
40
1
10
97.860556
20
89.569711
30
0
10
98.216537
20
89.854089
30
0
10
98.212918
20
90.104112
30
0
10
97.745903
20
93.159224
30
0
0
SPLINE
5
E9
100
AcDbEntity
8
0
6
ByLayer
62
7
370
-1
100
AcDbSpline
210
0
220
0
230
1
70
8
71
3
72
8
73
4
74
0
42
1e-07
43
1e-07
40
0
40
0
40
0
40
0
40
1
40
1
40
1
40
1
10
97.745903
20
93.159224
30
0
10
97.499091
20
94.773801
30
0
10
96.693389
20
95.892143
30
0
10
95.955556
20
95.655127
30
0
0
SPLINE
5
EA
100
AcDbEntity
8
0
6
ByLayer
62
7
370
-1
100
AcDbSpline
210
0
220
0
230
1
70
8
71
3
72
8
73
4
74
0
42
1e-07
43
1e-07
40
0
40
0
40
0
40
0
40
1
40
1
40
1
40
1
10
95.955556
20
95.655127
30
0
10
95.258749
20
95.431294
30
0
10
89.528636
20
94.094057
30
0
10
86.712778
20
93.494363
30
0
0
SPLINE
5
EB
100
AcDbEntity
8
0
6
ByLayer
62
7
370
-1
100
AcDbSpline
210
0
220
0
230
1
70
8
71
3
72
8
73
4
74
0
42
1e-07
43
1e-07
40
0
40
0
40
0
40
0
40
1
40
1
40
1
40
1
10
86.712778
20
93.494363
30
0
10
85.55482
20
93.247755
30
0
10
84.553831
20
92.969594
30
0
10
84.481458
20
92.877002
30
0
0
SPLINE
5
EC
100
AcDbEntity
8
0
6
ByLayer
62
7
370
-1
100
AcDbSpline
210
0
220
0
230
1
70
8
71
3
72
8
73
4
74
0
42
1e-07
43
1e-07
40
0
40
0
40
0
40
0
40
1
40
1
40
1
40
1
10
84.481458
20
92.877002
30
0
10
84.348681
20
92.707124
30
0
10
77.755727
20
91.253951
30
0
10
74.347917
20
90.645683
30
0
0
SPLINE
5
ED
100
AcDbEntity
8
0
6
ByLayer
62
7
370
-1
100
AcDbSpline
210
0
220
0
230
1
70
8
71
3
72
8
73
4
74
0
42
1e-07
43
1e-07
40
0
40
0
40
0
40
0
40
1
40
1
40
1
40
1
10
74.347917
20
90.645683
30
0
10
72.588998
20
90.331727
30
0
10
72.478034
20
90.348971
30
0
10
71.975486
20
90.883808
30
0
0
SPLINE
5
EE
100
AcDbEntity
8
0
6
ByLayer
62
7
370
-1
100
AcDbSpline
210
0
220
0
230
1
70
8
71
3
72
8
73
4
74
0
42
1e-07
43
1e-07
40
0
40
0
40
0
40
0
40
1
40
1
40
1
40
1
10
71.975486
20
90.883808
30
0
10
71.575972
20
91.308992
30
0
10
71.455139
20
91.797914
30
0
10
71.455139
20
92.938738
30
0
0
SPLINE
5
EF
100
AcDbEntity
8
0
6
ByLayer
62
7
370
-1
100
AcDbSpline
210
0
220
0
230
1
70
8
71
3
72
8
73
4
74
0
42
1e-07
43
1e-07
40
0
40
0
40
0
40
0
40
1
40
1
40
1
40
1
10
71.455139
20
92.938738
30
0
10
71.455139
20
94.3162
30
0
10
71.525122
20
94.516643
30
0
10
72.345903
20
95.249433
30
0
0
SPLINE
5
F0
100
AcDbEntity
8
0
6
ByLayer
62
7
370
-1
100
AcDbSpline
210
0
220
0
230
1
70
8
71
3
72
8
73
4
74
0
42
1e-07
43
1e-07
40
0
40
0
40
0
40
0
40
1
40
1
40
1
40
1
10
72.345903
20
95.249433
30
0
10
73.230963
20
96.039613
30
0
10
73.244462
20
96.074131
30
0
10
73.307222
20
98.486169
30
0
0
SPLINE
5
F1
100
AcDbEntity
8
0
6
ByLayer
62
7
370
-1
100
AcDbSpline
210
0
220
0
230
1
70
8
71
3
72
8
73
4
74
0
42
1e-07
43
1e-07
40
0
40
0
40
0
40
0
40
1
40
1
40
1
40
1
10
73.307222
20
98.486169
30
0
10
73.34215
20
99.828556
30
0
10
73.679719
20
102.798651
30
0
10
74.056875
20
105.083113
30
0
0
SPLINE
5
F2
100
AcDbEntity
8
0
6
ByLayer
62
7
370
-1
100
AcDbSpline
210
0
220
0
230
1
70
8
71
3
72
8
73
4
74
0
42
1e-07
43
1e-07
40
0
40
0
40
0
40
0
40
1
40
1
40
1
40
1
10
74.056875
20
105.083113
30
0
10
74.434031
20
107.367578
30
0
10
74.744792
20
109.926016
30
0
10
74.744792
20
110.771655
30
0
0
SPLINE
5
F3
100
AcDbEntity
8
0
6
ByLayer
62
7
370
-1
100
AcDbSpline
210
0
220
0
230
1
70
8
71
3
72
8
73
4
74
0
42
1e-07
43
1e-07
40
0
40
0
40
0
40
0
40
1
40
1
40
1
40
1
10
74.744792
20
110.771655
30
0
10
74.744792
20
112.71344
30
0
10
74.980831
20
113.956039
30
0
10
75.362153
20
113.955474
30
0
0
SPLINE
5
F4
100
AcDbEntity
8
0
6
ByLayer
62
7
370
-1
100
AcDbSpline
210
0
220
0
230
1
70
8
71
3
72
8
73
4
74
0
42
1e-07
43
1e-07
40
0
40
0
40
0
40
0
40
1
40
1
40
1
40
1
10
75.362153
20
113.955474
30
0
10
75.617973
20
113.955102
30
0
10
76.938601
20
112.629086
30
0
10
77.769861
20
111.538947
30
0
0
SPLINE
5
F5
100
AcDbEntity
8
0
6
ByLayer
62
7
370
-1
100
AcDbSpline
210
0
220
0
230
1
70
8
71
3
72
8
73
4
74
0
42
1e-07
43
1e-07
40
0
40
0
40
0
40
0
40
1
40
1
40
1
40
1
10
77.769861
20
111.538947
30
0
10
77.916679
20
111.346409
30
0
10
78.177249
20
110.528975
30
0
10
78.343125
20
109.722141
30
0
0
SPLINE
5
F6
100
AcDbEntity
8
0
6
ByLayer
62
7
370
-1
100
AcDbSpline
210
0
220
0
230
1
70
8
71
3
72
8
73
4
74
0
42
1e-07
43
1e-07
40
0
40
0
40
0
40
0
40
1
40
1
40
1
40
1
10
78.343125
20
109.722141
30
0
10
78.831742
20
107.345528
30
0
10
80.719673
20
103.598602
30
0
10
82.311875
20
101.864016
30
0
0
SPLINE
5
F7
100
AcDbEntity
8
0
6
ByLayer
62
7
370
-1
100
AcDbSpline
210
0
220
0
230
1
70
8
71
3
72
8
73
4
74
0
42
1e-07
43
1e-07
40
0
40
0
40
0
40
0
40
1
40
1
40
1
40
1
10
82.311875
20
101.864016
30
0
10
82.787007
20
101.346392
30
0
10
83.596824
20
100.306855
30
0
10
84.102222
20
99.553322
30
0
0
SPLINE
5
F8
100
AcDbEntity
8
0
6
ByLayer
62
7
370
-1
100
AcDbSpline
210
0
220
0
230
1
70
8
71
3
72
8
73
4
74
0
42
1e-07
43
1e-07
40
0
40
0
40
0
40
0
40
1
40
1
40
1
40
1
10
84.102222
20
99.553322
30
0
10
84.965464
20
98.266253
30
0
10
85.47987
20
97.726613
30
0
10
85.636806
20
97.939363
30
0
0
SPLINE
5
F9
100
AcDbEntity
8
0
6
ByLayer
62
7
370
-1
100
AcDbSpline
210
0
220
0
230
1
70
8
71
3
72
8
73
4
74
0
42
1e-07
43
1e-07
40
0
40
0
40
0
40
0
40
1
40
1
40
1
40
1
10
85.636806
20
97.939363
30
0
10
85.834714
20
98.207661
30
0
10
85.268559
20
101.968475
30
0
10
84.781319
20
103.619086
30
0
0
SPLINE
5
FA
100
AcDbEntity
8
0
6
ByLayer
62
7
370
-1
100
AcDbSpline
210
0
220
0
230
1
70
8
71
3
72
8
73
4
74
0
42
1e-07
43
1e-07
40
0
40
0
40
0
40
0
40
1
40
1
40
1
40
1
10
84.781319
20
103.619086
30
0
10
84.154157
20
105.743708
30
0
10
84.105877
20
106.272118
30
0
10
84.490278
20
106.847002
30
0
0
SPLINE
5
FB
100
AcDbEntity
8
0
6
ByLayer
62
7
370
-1
100
AcDbSpline
210
0
220
0
230
1
70
8
71
3
72
8
73
4
74
0
42
1e-07
43
1e-07
40
0
40
0
40
0
40
0
40
1
40
1
40
1
40
1
10
84.490278
20
106.847002
30
0
10
84.720492
20
107.191296
30
0
10
84.782708
20
107.186942
30
0
10
85.019444
20
106.785266
30
0
0
SPLINE
5
FC
100
AcDbEntity
8
0
6
ByLayer
62
7
370
-1
100
AcDbSpline
210
0
220
0
230
1
70
8
71
3
72
8
73
4
74
0
42
1e-07
43
1e-07
40
0
40
0
40
0
40
0
40
1
40
1
40
1
40
1
10
85.019444
20
106.785266
30
0
10
85.168732
20
106.53196
30
0
10
85.445597
20
106.317836
30
0
10
85.627986
20
106.317836
30
0
0
SPLINE
5
FD
100
AcDbEntity
8
0
6
ByLayer
62
7
370
-1
100
AcDbSpline
210
0
220
0
230
1
70
8
71
3
72
8
73
4
74
0
42
1e-07
43
1e-07
40
0
40
0
40
0
40
0
40
1
40
1
40
1
40
1
10
85.627986
20
106.317836
30
0
10
86.05566
20
106.317836
30
0
10
88.197797
20
104.533855
30
0
10
91.228333
20
101.64353
30
0
0
SPLINE
5
FE
100
AcDbEntity
8
0
6
ByLayer
62
7
370
-1
100
AcDbSpline
210
0
220
0
230
1
70
8
71
3
72
8
73
4
74
0
42
1e-07
43
1e-07
40
0
40
0
40
0
40
0
40
1
40
1
40
1
40
1
10
91.228333
20
101.64353
30
0
10
92.551047
20
100.382011
30
0
10
93.791713
20
99.217915
30
0
10
93.988819
20
99.059433
30
0
0
SPLINE
5
FF
100
AcDbEntity
8
0
6
ByLayer
62
7
370
-1
100
AcDbSpline
210
0
220
0
230
1
70
8
71
3
72
8
73
4
74
0
42
1e-07
43
1e-07
40
0
40
0
40
0
40
0
40
1
40
1
40
1
40
1
10
93.988819
20
99.059433
30
0
10
94.185923
20
98.900948
30
0
10
94.900567
20
98.190736
30
0
10
95.576319
20
97.480752
30
0
0
SPLINE
5
100
100
AcDbEntity
8
0
6
ByLayer
62
7
370
-1
100
AcDbSpline
210
0
220
0
230
1
70
8
71
3
72
8
73
4
74
0
42
1e-07
43
1e-07
40
0
40
0
40
0
40
0
40
1
40
1
40
1
40
1
10
95.576319
20
97.480752
30
0
10
96.252072
20
96.770766
30
0
10
97.594843
20
95.482901
30
0
10
98.566111
20
94.614433
30
0
0
SPLINE
5
101
100
AcDbEntity
8
0
6
ByLayer
62
7
370
-1
100
AcDbSpline
210
0
220
0
230
1
70
8
71
3
72
8
73
4
74
0
42
1e-07
43
1e-07
40
0
40
0
40
0
40
0
40
1
40
1
40
1
40
1
10
98.566111
20
94.614433
30
0
10
102.148928
20
91.410827
30
0
10
103.690208
20
89.712515
30
0
10
103.690208
20
88.969988
30
0
0
SPLINE
5
102
100
AcDbEntity
8
0
6
ByLayer
62
7
370
-1
100
AcDbSpline
210
0
220
0
230
1
70
8
71
3
72
8
73
4
74
0
42
1e-07
43
1e-07
40
0
40
0
40
0
40
0
40
1
40
1
40
1
40
1
10
103.690208
20
88.969988
30
0
10
103.690208
20
88.115546
30
0
10
104.125152
20
87.638252
30
0
10
104.898472
20
87.638252
30
0
0
SPLINE
5
103
100
AcDbEntity
8
0
6
ByLayer
62
7
370
-1
100
AcDbSpline
210
0
220
0
230
1
70
8
71
3
72
8
73
4
74
0
42
1e-07
43
1e-07
40
0
40
0
40
0
40
0
40
1
40
1
40
1
40
1
10
104.898472
20
87.638252
30
0
10
105.594074
20
87.638252
30
0
10
105.86339
20
87.057323
30
0
10
105.551111
20
86.235961
30
0
0
SPLINE
5
104
100
AcDbEntity
8
0
6
ByLayer
62
7
370
-1
100
AcDbSpline
210
0
220
0
230
1
70
8
71
3
72
8
73
4
74
0
42
1e-07
43
1e-07
40
0
40
0
40
0
40
0
40
1
40
1
40
1
40
1
10
105.551111
20
86.235961
30
0
10
105.266191
20
85.486562
30
0
10
105.644069
20
84.745474
30
0
10
106.309583
20
84.745474
30
0
0
SPLINE
5
105
100
AcDbEntity
8
0
6
ByLayer
62
7
370
-1
100
AcDbSpline
210
0
220
0
230
1
70
8
71
3
72
8
73
4
74
0
42
1e-07
43
1e-07
40
0
40
0
40
0
40
0
40
1
40
1
40
1
40
1
10
106.309583
20
84.745474
30
0
10
106.579012
20
84.745474
30
0
10
107.099543
20
84.38596
30
0
10
107.464931
20
83.951724
30
0
0
SPLINE
5
106
100
AcDbEntity
8
0
6
ByLayer
62
7
370
-1
100
AcDbSpline
210
0
220
0
230
1
70
8
71
3
72
8
73
4
74
0
42
1e-07
43
1e-07
40
0
40
0
40
0
40
0
40
1
40
1
40
1
40
1
10
107.464931
20
83.951724
30
0
10
108.096772
20
83.200821
30
0
10
109.22
20
82.861585
30
0
10
109.22
20
83.422558
30
0
0
SPLINE
5
107
100
AcDbEntity
8
0
6
ByLayer
62
7
370
-1
100
AcDbSpline
210
0
220
0
230
1
70
8
71
3
72
8
73
4
74
0
42
1e-07
43
1e-07
40
0
40
0
40
0
40
0
40
1
40
1
40
1
40
1
10
109.22
20
83.422558
30
0
10
109.22
20
83.567304
30
0
10
109.450858
20
83.687141
30
0
10
109.740347
20
83.687141
30
0
0
SPLINE
5
108
100
AcDbEntity
8
0
6
ByLayer
62
7
370
-1
100
AcDbSpline
210
0
220
0
230
1
70
8
71
3
72
8
73
4
74
0
42
1e-07
43
1e-07
40
0
40
0
40
0
40
0
40
1
40
1
40
1
40
1
10
109.740347
20
83.687141
30
0
10
110.174972
20
83.687141
30
0
10
110.269514
20
83.513092
30
0
10
110.269514
20
82.681724
30
0
0
SPLINE
5
109
100
AcDbEntity
8
0
6
ByLayer
62
7
370
-1
100
AcDbSpline
210
0
220
0
230
1
70
8
71
3
72
8
73
4
74
0
42
1e-07
43
1e-07
40
0
40
0
40
0
40
0
40
1
40
1
40
1
40
1
10
110.269514
20
82.681724
30
0
10
110.269514
20
81.946883
30
0
10
110.448643
20
81.503252
30
0
10
110.930972
20
81.050127
30
0
0
LWPOLYLINE
5
10A
100
AcDbEntity
8
0
6
ByLayer
62
7
370
-1
100
AcDbPolyline
90
3
70
0
43
0
10
76.376389
20
1.904433
10
76.455764
20
0.131724
10
80.724375
20
0.061169
0
SPLINE
5
10B
100
AcDbEntity
8
0
6
ByLayer
62
7
370
-1
100
AcDbSpline
210
0
220
0
230
1
70
8
71
3
72
8
73
4
74
0
42
1e-07
43
1e-07
40
0
40
0
40
0
40
0
40
1
40
1
40
1
40
1
10
112.783056
20
81.270613
30
0
10
113.437035
20
81.731581
30
0
10
114.102188
20
82.108461
30
0
10
114.264722
20
82.108461
30
0
0
SPLINE
5
10C
100
AcDbEntity
8
0
6
ByLayer
62
7
370
-1
100
AcDbSpline
210
0
220
0
230
1
70
8
71
3
72
8
73
4
74
0
42
1e-07
43
1e-07
40
0
40
0
40
0
40
0
40
1
40
1
40
1
40
1
10
114.264722
20
82.108461
30
0
10
114.618708
20
82.108461
30
0
10
116.608688
20
80.692077
30
0
10
117.721944
20
79.647836
30
0
0
SPLINE
5
10D
100
AcDbEntity
8
0
6
ByLayer
62
7
370
-1
100
AcDbSpline
210
0
220
0
230
1
70
8
71
3
72
8
73
4
74
0
42
1e-07
43
1e-07
40
0
40
0
40
0
40
0
40
1
40
1
40
1
40
1
10
117.721944
20
79.647836
30
0
10
118.160639
20
79.236336
30
0
10
119.311606
20
78.268226
30
0
10
120.279583
20
77.495891
30
0
0
SPLINE
5
10E
100
AcDbEntity
8
0
6
ByLayer
62
7
370
-1
100
AcDbSpline
210
0
220
0
230
1
70
8
71
3
72
8
73
4
74
0
42
1e-07
43
1e-07
40
0
40
0
40
0
40
0
40
1
40
1
40
1
40
1
10
120.279583
20
77.495891
30
0
10
121.24756
20
76.723559
30
0
10
122.23406
20
75.894195
30
0
10
122.475625
20
75.652627
30
0
0
SPLINE
5
10F
100
AcDbEntity
8
0
6
ByLayer
62
7
370
-1
100
AcDbSpline
210
0
220
0
230
1
70
8
71
3
72
8
73
4
74
0
42
1e-07
43
1e-07
40
0
40
0
40
0
40
0
40
1
40
1
40
1
40
1
10
122.475625
20
75.652627
30
0
10
123.418964
20
74.709288
30
0
10
126.650138
20
72.107211
30
0
10
126.876528
20
72.107211
30
0
0
SPLINE
5
110
100
AcDbEntity
8
0
6
ByLayer
62
7
370
-1
100
AcDbSpline
210
0
220
0
230
1
70
8
71
3
72
8
73
4
74
0
42
1e-07
43
1e-07
40
0
40
0
40
0
40
0
40
1
40
1
40
1
40
1
10
126.876528
20
72.107211
30
0
10
127.008151
20
72.107211
30
0
10
127.119493
20
71.961821
30
0
10
127.123472
20
71.780891
30
0
0
SPLINE
5
111
100
AcDbEntity
8
0
6
ByLayer
62
7
370
-1
100
AcDbSpline
210
0
220
0
230
1
70
8
71
3
72
8
73
4
74
0
42
1e-07
43
1e-07
40
0
40
0
40
0
40
0
40
1
40
1
40
1
40
1
10
127.123472
20
71.780891
30
0
10
127.127457
20
71.599958
30
0
10
127.55786
20
71.154976
30
0
10
128.084792
20
70.793113
30
0
0
SPLINE
5
112
100
AcDbEntity
8
0
6
ByLayer
62
7
370
-1
100
AcDbSpline
210
0
220
0
230
1
70
8
71
3
72
8
73
4
74
0
42
1e-07
43
1e-07
40
0
40
0
40
0
40
0
40
1
40
1
40
1
40
1
10
128.084792
20
70.793113
30
0
10
128.611723
20
70.431251
30
0
10
129.739204
20
69.455812
30
0
10
130.589514
20
68.62353
30
0
0
SPLINE
5
113
100
AcDbEntity
8
0
6
ByLayer
62
7
370
-1
100
AcDbSpline
210
0
220
0
230
1
70
8
71
3
72
8
73
4
74
0
42
1e-07
43
1e-07
40
0
40
0
40
0
40
0
40
1
40
1
40
1
40
1
10
130.589514
20
68.62353
30
0
10
131.439821
20
67.791245
30
0
10
132.205442
20
67.106586
30
0
10
132.291667
20
67.106586
30
0
0
SPLINE
5
114
100
AcDbEntity
8
0
6
ByLayer
62
7
370
-1
100
AcDbSpline
210
0
220
0
230
1
70
8
71
3
72
8
73
4
74
0
42
1e-07
43
1e-07
40
0
40
0
40
0
40
0
40
1
40
1
40
1
40
1
10
132.291667
20
67.106586
30
0
10
132.377886
20
67.106586
30
0
10
132.945513
20
66.6616
30
0
10
133.552847
20
66.118808
30
0
0
SPLINE
5
115
100
AcDbEntity
8
0
6
ByLayer
62
7
370
-1
100
AcDbSpline
210
0
220
0
230
1
70
8
71
3
72
8
73
4
74
0
42
1e-07
43
1e-07
40
0
40
0
40
0
40
0
40
1
40
1
40
1
40
1
10
133.552847
20
66.118808
30
0
10
134.160187
20
65.576013
30
0
10
135.060428
20
64.796108
30
0
10
135.554861
20
64.381377
30
0
0
SPLINE
5
116
100
AcDbEntity
8
0
6
ByLayer
62
7
370
-1
100
AcDbSpline
210
0
220
0
230
1
70
8
71
3
72
8
73
4
74
0
42
1e-07
43
1e-07
40
0
40
0
40
0
40
0
40
1
40
1
40
1
40
1
10
135.554861
20
64.381377
30
0
10
136.0493
20
63.96664
30
0
10
137.298125
20
62.871364
30
0
10
138.332986
20
61.947211
30
0
0
SPLINE
5
117
100
AcDbEntity
8
0
6
ByLayer
62
7
370
-1
100
AcDbSpline
210
0
220
0
230
1
70
8
71
3
72
8
73
4
74
0
42
1e-07
43
1e-07
40
0
40
0
40
0
40
0
40
1
40
1
40
1
40
1
10
138.332986
20
61.947211
30
0
10
139.367847
20
61.023054
30
0
10
140.266934
20
60.262697
30
0
10
140.326181
20
60.262697
30
0
0
SPLINE
5
118
100
AcDbEntity
8
0
6
ByLayer
62
7
370
-1
100
AcDbSpline
210
0
220
0
230
1
70
8
71
3
72
8
73
4
74
0
42
1e-07
43
1e-07
40
0
40
0
40
0
40
0
40
1
40
1
40
1
40
1
10
140.326181
20
60.262697
30
0
10
140.385427
20
60.262697
30
0
10
141.252948
20
59.498732
30
0
10
142.257639
20
58.560544
30
0
0
SPLINE
5
119
100
AcDbEntity
8
0
6
ByLayer
62
7
370
-1
100
AcDbSpline
210
0
220
0
230
1
70
8
71
3
72
8
73
4
74
0
42
1e-07
43
1e-07
40
0
40
0
40
0
40
0
40
1
40
1
40
1
40
1
10
142.257639
20
58.560544
30
0
10
143.26233
20
57.622355
30
0
10
144.166762
20
56.852112
30
0
10
144.268472
20
56.849572
30
0
0
SPLINE
5
11A
100
AcDbEntity
8
0
6
ByLayer
62
7
370
-1
100
AcDbSpline
210
0
220
0
230
1
70
8
71
3
72
8
73
4
74
0
42
1e-07
43
1e-07
40
0
40
0
40
0
40
0
40
1
40
1
40
1
40
1
10
144.268472
20
56.849572
30
0
10
144.370179
20
56.846919
30
0
10
145.26015
20
56.076418
30
0
10
146.244028
20
55.138599
30
0
0
SPLINE
5
11B
100
AcDbEntity
8
0
6
ByLayer
62
7
370
-1
100
AcDbSpline
210
0
220
0
230
1
70
8
71
3
72
8
73
4
74
0
42
1e-07
43
1e-07
40
0
40
0
40
0
40
0
40
1
40
1
40
1
40
1
10
146.244028
20
55.138599
30
0
10
147.227902
20
54.200778
30
0
10
148.177117
20
53.430647
30
0
10
148.351875
20
53.427627
30
0
0
SPLINE
5
11C
100
AcDbEntity
8
0
6
ByLayer
62
7
370
-1
100
AcDbSpline
210
0
220
0
230
1
70
8
71
3
72
8
73
4
74
0
42
1e-07
43
1e-07
40
0
40
0
40
0
40
0
40
1
40
1
40
1
40
1
10
148.351875
20
53.427627
30
0
10
148.526635
20
53.424607
30
0
10
148.989621
20
53.021992
30
0
10
149.38375
20
52.528044
30
0
0
SPLINE
5
11D
100
AcDbEntity
8
0
6
ByLayer
62
7
370
-1
100
AcDbSpline
210
0
220
0
230
1
70
8
71
3
72
8
73
4
74
0
42
1e-07
43
1e-07
40
0
40
0
40
0
40
0
40
1
40
1
40
1
40
1
10
149.38375
20
52.528044
30
0
10
149.777879
20
52.034099
30
0
10
150.687072
20
51.16968
30
0
10
151.403403
20
50.614224
30
0
0
SPLINE
5
11E
100
AcDbEntity
8
0
6
ByLayer
62
7
370
-1
100
AcDbSpline
210
0
220
0
230
1
70
8
71
3
72
8
73
4
74
0
42
1e-07
43
1e-07
40
0
40
0
40
0
40
0
40
1
40
1
40
1
40
1
10
151.403403
20
50.614224
30
0
10
152.119734
20
50.058774
30
0
10
153.137094
20
49.189372
30
0
10
153.661181
20
48.682766
30
0
0
SPLINE
5
11F
100
AcDbEntity
8
0
6
ByLayer
62
7
370
-1
100
AcDbSpline
210
0
220
0
230
1
70
8
71
3
72
8
73
4
74
0
42
1e-07
43
1e-07
40
0
40
0
40
0
40
0
40
1
40
1
40
1
40
1
10
153.661181
20
48.682766
30
0
10
154.18527
20
48.17616
30
0
10
155.474416
20
47.065043
30
0
10
156.5275
20
46.213322
30
0
0
SPLINE
5
120
100
AcDbEntity
8
0
6
ByLayer
62
7
370
-1
100
AcDbSpline
210
0
220
0
230
1
70
8
71
3
72
8
73
4
74
0
42
1e-07
43
1e-07
40
0
40
0
40
0
40
0
40
1
40
1
40
1
40
1
10
156.5275
20
46.213322
30
0
10
157.580584
20
45.3616
30
0
10
158.530473
20
44.527922
30
0
10
158.635347
20
44.352419
30
0
0
SPLINE
5
121
100
AcDbEntity
8
0
6
ByLayer
62
7
370
-1
100
AcDbSpline
210
0
220
0
230
1
70
8
71
3
72
8
73
4
74
0
42
1e-07
43
1e-07
40
0
40
0
40
0
40
0
40
1
40
1
40
1
40
1
10
158.635347
20
44.352419
30
0
10
158.740221
20
44.176916
30
0
10
159.419747
20
43.58215
30
0
10
160.143472
20
43.038322
30
0
0
SPLINE
5
122
100
AcDbEntity
8
0
6
ByLayer
62
7
370
-1
100
AcDbSpline
210
0
220
0
230
1
70
8
71
3
72
8
73
4
74
0
42
1e-07
43
1e-07
40
0
40
0
40
0
40
0
40
1
40
1
40
1
40
1
10
160.143472
20
43.038322
30
0
10
160.867194
20
42.494488
30
0
10
161.868186
20
41.676286
30
0
10
162.374792
20
41.212697
30
0
0
SPLINE
5
123
100
AcDbEntity
8
0
6
ByLayer
62
7
370
-1
100
AcDbSpline
210
0
220
0
230
1
70
8
71
3
72
8
73
4
74
0
42
1e-07
43
1e-07
40
0
40
0
40
0
40
0
40
1
40
1
40
1
40
1
10
162.374792
20
41.212697
30
0
10
165.897007
20
37.989533
30
0
10
167.258419
20
36.847072
30
0
10
167.560625
20
36.847072
30
0
0
SPLINE
5
124
100
AcDbEntity
8
0
6
ByLayer
62
7
370
-1
100
AcDbSpline
210
0
220
0
230
1
70
8
71
3
72
8
73
4
74
0
42
1e-07
43
1e-07
40
0
40
0
40
0
40
0
40
1
40
1
40
1
40
1
10
167.560625
20
36.847072
30
0
10
167.751131
20
36.847072
30
0
10
167.904583
20
36.72809
30
0
10
167.904583
20
36.591308
30
0
0
SPLINE
5
125
100
AcDbEntity
8
0
6
ByLayer
62
7
370
-1
100
AcDbSpline
210
0
220
0
230
1
70
8
71
3
72
8
73
4
74
0
42
1e-07
43
1e-07
40
0
40
0
40
0
40
0
40
1
40
1
40
1
40
1
10
167.904583
20
36.591308
30
0
10
167.904583
20
36.235039
30
0
10
170.222359
20
34.08803
30
0
10
171.379444
20
33.372211
30
0
0
SPLINE
5
126
100
AcDbEntity
8
0
6
ByLayer
62
7
370
-1
100
AcDbSpline
210
0
220
0
230
1
70
8
71
3
72
8
73
4
74
0
42
1e-07
43
1e-07
40
0
40
0
40
0
40
0
40
1
40
1
40
1
40
1
10
171.379444
20
33.372211
30
0
10
171.918345
20
33.038827
30
0
10
172.363328
20
32.639988
30
0
10
172.367222
20
32.490266
30
0
0
SPLINE
5
127
100
AcDbEntity
8
0
6
ByLayer
62
7
370
-1
100
AcDbSpline
210
0
220
0
230
1
70
8
71
3
72
8
73
4
74
0
42
1e-07
43
1e-07
40
0
40
0
40
0
40
0
40
1
40
1
40
1
40
1
10
172.367222
20
32.490266
30
0
10
172.371117
20
32.340542
30
0
10
172.70119
20
32.025618
30
0
10
173.099236
20
31.784711
30
0
0
SPLINE
5
128
100
AcDbEntity
8
0
6
ByLayer
62
7
370
-1
100
AcDbSpline
210
0
220
0
230
1
70
8
71
3
72
8
73
4
74
0
42
1e-07
43
1e-07
40
0
40
0
40
0
40
0
40
1
40
1
40
1
40
1
10
173.099236
20
31.784711
30
0
10
173.497285
20
31.543806
30
0
10
174.615026
20
30.597757
30
0
10
175.5775
20
29.685683
30
0
0
SPLINE
5
129
100
AcDbEntity
8
0
6
ByLayer
62
7
370
-1
100
AcDbSpline
210
0
220
0
230
1
70
8
71
3
72
8
73
4
74
0
42
1e-07
43
1e-07
40
0
40
0
40
0
40
0
40
1
40
1
40
1
40
1
10
175.5775
20
29.685683
30
0
10
177.990099
20
27.39942
30
0
10
179.022508
20
26.501762
30
0
10
179.907847
20
25.937419
30
0
0
SPLINE
5
12A
100
AcDbEntity
8
0
6
ByLayer
62
7
370
-1
100
AcDbSpline
210
0
220
0
230
1
70
8
71
3
72
8
73
4
74
0
42
1e-07
43
1e-07
40
0
40
0
40
0
40
0
40
1
40
1
40
1
40
1
10
179.907847
20
25.937419
30
0
10
180.324562
20
25.671791
30
0
10
181.177638
20
24.877621
30
0
10
181.804028
20
24.17353
30
0
0
SPLINE
5
12B
100
AcDbEntity
8
0
6
ByLayer
62
7
370
-1
100
AcDbSpline
210
0
220
0
230
1
70
8
71
3
72
8
73
4
74
0
42
1e-07
43
1e-07
40
0
40
0
40
0
40
0
40
1
40
1
40
1
40
1
10
181.804028
20
24.17353
30
0
10
182.430417
20
23.469436
30
0
10
183.080711
20
22.889504
30
0
10
183.250417
20
22.885891
30
0
0
SPLINE
5
12C
100
AcDbEntity
8
0
6
ByLayer
62
7
370
-1
100
AcDbSpline
210
0
220
0
230
1
70
8
71
3
72
8
73
4
74
0
42
1e-07
43
1e-07
40
0
40
0
40
0
40
0
40
1
40
1
40
1
40
1
10
183.250417
20
22.885891
30
0
10
183.611715
20
22.878184
30
0
10
185.799236
20
20.872964
30
0
10
185.799236
20
20.548738
30
0
0
SPLINE
5
12D
100
AcDbEntity
8
0
6
ByLayer
62
7
370
-1
100
AcDbSpline
210
0
220
0
230
1
70
8
71
3
72
8
73
4
74
0
42
1e-07
43
1e-07
40
0
40
0
40
0
40
0
40
1
40
1
40
1
40
1
10
185.799236
20
20.548738
30
0
10
185.799236
20
20.427301
30
0
10
186.155347
20
20.160971
30
0
10
186.592986
20
19.949016
30
0
0
SPLINE
5
12E
100
AcDbEntity
8
0
6
ByLayer
62
7
370
-1
100
AcDbSpline
210
0
220
0
230
1
70
8
71
3
72
8
73
4
74
0
42
1e-07
43
1e-07
40
0
40
0
40
0
40
0
40
1
40
1
40
1
40
1
10
186.592986
20
19.949016
30
0
10
187.030625
20
19.737059
30
0
10
188.182239
20
18.804342
30
0
10
189.150625
20
17.876447
30
0
0
SPLINE
5
12F
100
AcDbEntity
8
0
6
ByLayer
62
7
370
-1
100
AcDbSpline
210
0
220
0
230
1
70
8
71
3
72
8
73
4
74
0
42
1e-07
43
1e-07
40
0
40
0
40
0
40
0
40
1
40
1
40
1
40
1
10
189.150625
20
17.876447
30
0
10
190.119011
20
16.948551
30
0
10
191.388633
20
15.84651
30
0
10
191.972847
20
15.433461
30
0
0
SPLINE
5
130
100
AcDbEntity
8
0
6
ByLayer
62
7
370
-1
100
AcDbSpline
210
0
220
0
230
1
70
8
71
3
72
8
73
4
74
0
42
1e-07
43
1e-07
40
0
40
0
40
0
40
0
40
1
40
1
40
1
40
1
10
191.972847
20
15.433461
30
0
10
192.557061
20
15.020411
30
0
10
193.450616
20
14.283955
30
0
10
193.957222
20
13.793044
30
0
0
SPLINE
5
131
100
AcDbEntity
8
0
6
ByLayer
62
7
370
-1
100
AcDbSpline
210
0
220
0
230
1
70
8
71
3
72
8
73
4
74
0
42
1e-07
43
1e-07
40
0
40
0
40
0
40
0
40
1
40
1
40
1
40
1
10
193.957222
20
13.793044
30
0
10
195.237532
20
12.552401
30
0
10
198.406433
20
10.177755
30
0
10
199.319444
20
9.780197
30
0
0
LWPOLYLINE
5
132
100
AcDbEntity
8
0
6
ByLayer
62
7
370
-1
100
AcDbPolyline
90
3
70
0
43
0
10
110.930972
20
81.050127
10
111.592431
20
80.432766
10
112.783056
20
81.270613
0
SPLINE
5
133
100
AcDbEntity
8
0
6
ByLayer
62
7
370
-1
100
AcDbSpline
210
0
220
0
230
1
70
8
71
3
72
8
73
4
74
0
42
1e-07
43
1e-07
40
0
40
0
40
0
40
0
40
1
40
1
40
1
40
1
10
199.910347
20
10.291724
30
0
10
199.787152
20
10.907705
30
0
10
198.844298
20
12.028167
30
0
10
196.338472
20
14.516238
30
0
0
SPLINE
5
134
100
AcDbEntity
8
0
6
ByLayer
62
7
370
-1
100
AcDbSpline
210
0
220
0
230
1
70
8
71
3
72
8
73
4
74
0
42
1e-07
43
1e-07
40
0
40
0
40
0
40
0
40
1
40
1
40
1
40
1
10
196.338472
20
14.516238
30
0
10
194.46433
20
16.37711
30
0
10
192.838053
20
17.893848
30
0
10
192.7225
20
17.894086
30
0
0
SPLINE
5
135
100
AcDbEntity
8
0
6
ByLayer
62
7
370
-1
100
AcDbSpline
210
0
220
0
230
1
70
8
71
3
72
8
73
4
74
0
42
1e-07
43
1e-07
40
0
40
0
40
0
40
0
40
1
40
1
40
1
40
1
10
192.7225
20
17.894086
30
0
10
192.606953
20
17.894325
30
0
10
192.075125
20
18.357963
30
0
10
191.540694
20
18.925961
30
0
0
SPLINE
5
136
100
AcDbEntity
8
0
6
ByLayer
62
7
370
-1
100
AcDbSpline
210
0
220
0
230
1
70
8
71
3
72
8
73
4
74
0
42
1e-07
43
1e-07
40
0
40
0
40
0
40
0
40
1
40
1
40
1
40
1
10
191.540694
20
18.925961
30
0
10
191.006267
20
19.493958
30
0
10
189.902132
20
20.450669
30
0
10
189.088889
20
21.051447
30
0
0
SPLINE
5
137
100
AcDbEntity
8
0
6
ByLayer
62
7
370
-1
100
AcDbSpline
210
0
220
0
230
1
70
8
71
3
72
8
73
4
74
0
42
1e-07
43
1e-07
40
0
40
0
40
0
40
0
40
1
40
1
40
1
40
1
10
189.088889
20
21.051447
30
0
10
188.275643
20
21.652224
30
0
10
187.543076
20
22.314908
30
0
10
187.466111
20
22.515474
30
0
0
SPLINE
5
138
100
AcDbEntity
8
0
6
ByLayer
62
7
370
-1
100
AcDbSpline
210
0
220
0
230
1
70
8
71
3
72
8
73
4
74
0
42
1e-07
43
1e-07
40
0
40
0
40
0
40
0
40
1
40
1
40
1
40
1
10
187.466111
20
22.515474
30
0
10
187.389149
20
22.716036
30
0
10
186.482482
20
23.549198
30
0
10
185.446458
20
24.376377
30
0
0
SPLINE
5
139
100
AcDbEntity
8
0
6
ByLayer
62
7
370
-1
100
AcDbSpline
210
0
220
0
230
1
70
8
71
3
72
8
73
4
74
0
42
1e-07
43
1e-07
40
0
40
0
40
0
40
0
40
1
40
1
40
1
40
1
10
185.446458
20
24.376377
30
0
10
184.410437
20
25.203556
30
0
10
183.032787
20
26.396448
30
0
10
182.386111
20
27.022211
30
0
0
SPLINE
5
13A
100
AcDbEntity
8
0
6
ByLayer
62
7
370
-1
100
AcDbSpline
210
0
220
0
230
1
70
8
71
3
72
8
73
4
74
0
42
1e-07
43
1e-07
40
0
40
0
40
0
40
0
40
1
40
1
40
1
40
1
10
182.386111
20
27.022211
30
0
10
181.739436
20
27.647973
30
0
10
181.099003
20
28.159919
30
0
10
180.966181
20
28.159919
30
0
0
SPLINE
5
13B
100
AcDbEntity
8
0
6
ByLayer
62
7
370
-1
100
AcDbSpline
210
0
220
0
230
1
70
8
71
3
72
8
73
4
74
0
42
1e-07
43
1e-07
40
0
40
0
40
0
40
0
40
1
40
1
40
1
40
1
10
180.966181
20
28.159919
30
0
10
180.833358
20
28.159919
30
0
10
180.470897
20
28.425146
30
0
10
180.154792
20
28.750822
30
0
0
SPLINE
5
13C
100
AcDbEntity
8
0
6
ByLayer
62
7
370
-1
100
AcDbSpline
210
0
220
0
230
1
70
8
71
3
72
8
73
4
74
0
42
1e-07
43
1e-07
40
0
40
0
40
0
40
0
40
1
40
1
40
1
40
1
10
180.154792
20
28.750822
30
0
10
179.536304
20
29.388029
30
0
10
177.928648
20
30.811594
30
0
10
175.921458
20
32.499086
30
0
0
SPLINE
5
13D
100
AcDbEntity
8
0
6
ByLayer
62
7
370
-1
100
AcDbSpline
210
0
220
0
230
1
70
8
71
3
72
8
73
4
74
0
42
1e-07
43
1e-07
40
0
40
0
40
0
40
0
40
1
40
1
40
1
40
1
10
175.921458
20
32.499086
30
0
10
175.232791
20
33.078064
30
0
10
174.340153
20
33.848195
30
0
10
173.945903
20
34.210058
30
0
0
SPLINE
5
13E
100
AcDbEntity
8
0
6
ByLayer
62
7
370
-1
100
AcDbSpline
210
0
220
0
230
1
70
8
71
3
72
8
73
4
74
0
42
1e-07
43
1e-07
40
0
40
0
40
0
40
0
40
1
40
1
40
1
40
1
10
173.945903
20
34.210058
30
0
10
173.097399
20
34.988861
30
0
10
172.418954
20
35.560392
30
0
10
170.65625
20
36.970544
30
0
0
SPLINE
5
13F
100
AcDbEntity
8
0
6
ByLayer
62
7
370
-1
100
AcDbSpline
210
0
220
0
230
1
70
8
71
3
72
8
73
4
74
0
42
1e-07
43
1e-07
40
0
40
0
40
0
40
0
40
1
40
1
40
1
40
1
10
170.65625
20
36.970544
30
0
10
169.936708
20
37.546173
30
0
10
169.016183
20
38.344994
30
0
10
168.610139
20
38.743252
30
0
0
SPLINE
5
140
100
AcDbEntity
8
0
6
ByLayer
62
7
370
-1
100
AcDbSpline
210
0
220
0
230
1
70
8
71
3
72
8
73
4
74
0
42
1e-07
43
1e-07
40
0
40
0
40
0
40
0
40
1
40
1
40
1
40
1
10
168.610139
20
38.743252
30
0
10
168.204097
20
39.141507
30
0
10
167.322946
20
39.903804
30
0
10
166.643403
20
40.445405
30
0
0
SPLINE
5
141
100
AcDbEntity
8
0
6
ByLayer
62
7
370
-1
100
AcDbSpline
210
0
220
0
230
1
70
8
71
3
72
8
73
4
74
0
42
1e-07
43
1e-07
40
0
40
0
40
0
40
0
40
1
40
1
40
1
40
1
10
166.643403
20
40.445405
30
0
10
165.963862
20
40.987009
30
0
10
164.828474
20
41.980499
30
0
10
164.129861
20
42.650266
30
0
0
SPLINE
5
142
100
AcDbEntity
8
0
6
ByLayer
62
7
370
-1
100
AcDbSpline
210
0
220
0
230
1
70
8
71
3
72
8
73
4
74
0
42
1e-07
43
1e-07
40
0
40
0
40
0
40
0
40
1
40
1
40
1
40
1
10
164.129861
20
42.650266
30
0
10
163.431248
20
43.320033
30
0
10
162.405097
20
44.154573
30
0
10
161.845625
20
44.502349
30
0
0
SPLINE
5
143
100
AcDbEntity
8
0
6
ByLayer
62
7
370
-1
100
AcDbSpline
210
0
220
0
230
1
70
8
71
3
72
8
73
4
74
0
42
1e-07
43
1e-07
40
0
40
0
40
0
40
0
40
1
40
1
40
1
40
1
10
161.845625
20
44.502349
30
0
10
161.286156
20
44.850123
30
0
10
160.695121
20
45.368207
30
0
10
160.531528
20
45.657697
30
0
0
SPLINE
5
144
100
AcDbEntity
8
0
6
ByLayer
62
7
370
-1
100
AcDbSpline
210
0
220
0
230
1
70
8
71
3
72
8
73
4
74
0
42
1e-07
43
1e-07
40
0
40
0
40
0
40
0
40
1
40
1
40
1
40
1
10
160.531528
20
45.657697
30
0
10
160.367932
20
45.947186
30
0
10
159.530728
20
46.714695
30
0
10
158.670625
20
47.359849
30
0
0
SPLINE
5
145
100
AcDbEntity
8
0
6
ByLayer
62
7
370
-1
100
AcDbSpline
210
0
220
0
230
1
70
8
71
3
72
8
73
4
74
0
42
1e-07
43
1e-07
40
0
40
0
40
0
40
0
40
1
40
1
40
1
40
1
10
158.670625
20
47.359849
30
0
10
157.810522
20
48.005007
30
0
10
156.662933
20
48.954896
30
0
10
156.121806
20
49.467697
30
0
0
SPLINE
5
146
100
AcDbEntity
8
0
6
ByLayer
62
7
370
-1
100
AcDbSpline
210
0
220
0
230
1
70
8
71
3
72
8
73
4
74
0
42
1e-07
43
1e-07
40
0
40
0
40
0
40
0
40
1
40
1
40
1
40
1
10
156.121806
20
49.467697
30
0
10
155.580678
20
49.9805
30
0
10
154.48335
20
50.919586
30
0
10
153.687639
20
51.557905
30
0
0
SPLINE
5
147
100
AcDbEntity
8
0
6
ByLayer
62
7
370
-1
100
AcDbSpline
210
0
220
0
230
1
70
8
71
3
72
8
73
4
74
0
42
1e-07
43
1e-07
40
0
40
0
40
0
40
0
40
1
40
1
40
1
40
1
10
153.687639
20
51.557905
30
0
10
152.891927
20
52.196227
30
0
10
151.830634
20
53.11922
30
0
10
151.324028
20
53.612836
30
0
0
SPLINE
5
148
100
AcDbEntity
8
0
6
ByLayer
62
7
370
-1
100
AcDbSpline
210
0
220
0
230
1
70
8
71
3
72
8
73
4
74
0
42
1e-07
43
1e-07
40
0
40
0
40
0
40
0
40
1
40
1
40
1
40
1
10
151.324028
20
53.612836
30
0
10
150.817422
20
54.106453
30
0
10
149.927451
20
54.870356
30
0
10
149.348472
20
55.306169
30
0
0
SPLINE
5
149
100
AcDbEntity
8
0
6
ByLayer
62
7
370
-1
100
AcDbSpline
210
0
220
0
230
1
70
8
71
3
72
8
73
4
74
0
42
1e-07
43
1e-07
40
0
40
0
40
0
40
0
40
1
40
1
40
1
40
1
10
149.348472
20
55.306169
30
0
10
148.769493
20
55.741982
30
0
10
147.821184
20
56.530189
30
0
10
147.240625
20
57.061238
30
0
0
SPLINE
5
14A
100
AcDbEntity
8
0
6
ByLayer
62
7
370
-1
100
AcDbSpline
210
0
220
0
230
1
70
8
71
3
72
8
73
4
74
0
42
1e-07
43
1e-07
40
0
40
0
40
0
40
0
40
1
40
1
40
1
40
1
10
147.240625
20
57.061238
30
0
10
146.660063
20
57.592285
30
0
10
145.239638
20
58.786116
30
0
10
144.083264
20
59.715891
30
0
0
SPLINE
5
14B
100
AcDbEntity
8
0
6
ByLayer
62
7
370
-1
100
AcDbSpline
210
0
220
0
230
1
70
8
71
3
72
8
73
4
74
0
42
1e-07
43
1e-07
40
0
40
0
40
0
40
0
40
1
40
1
40
1
40
1
10
144.083264
20
59.715891
30
0
10
142.926887
20
60.645667
30
0
10
141.804477
20
61.609306
30
0
10
141.587361
20
61.850197
30
0
0
SPLINE
5
14C
100
AcDbEntity
8
0
6
ByLayer
62
7
370
-1
100
AcDbSpline
210
0
220
0
230
1
70
8
71
3
72
8
73
4
74
0
42
1e-07
43
1e-07
40
0
40
0
40
0
40
0
40
1
40
1
40
1
40
1
10
141.587361
20
61.850197
30
0
10
141.102069
20
62.38862
30
0
10
137.03926
20
65.806018
30
0
10
135.184444
20
67.238877
30
0
0
SPLINE
5
14D
100
AcDbEntity
8
0
6
ByLayer
62
7
370
-1
100
AcDbSpline
210
0
220
0
230
1
70
8
71
3
72
8
73
4
74
0
42
1e-07
43
1e-07
40
0
40
0
40
0
40
0
40
1
40
1
40
1
40
1
10
135.184444
20
67.238877
30
0
10
134.434964
20
67.817856
30
0
10
133.116038
20
68.973384
30
0
10
132.247569
20
69.805336
30
0
0
SPLINE
5
14E
100
AcDbEntity
8
0
6
ByLayer
62
7
370
-1
100
AcDbSpline
210
0
220
0
230
1
70
8
71
3
72
8
73
4
74
0
42
1e-07
43
1e-07
40
0
40
0
40
0
40
0
40
1
40
1
40
1
40
1
10
132.247569
20
69.805336
30
0
10
131.379101
20
70.637287
30
0
10
130.549673
20
71.322017
30
0
10
130.404306
20
71.32228
30
0
0
SPLINE
5
14F
100
AcDbEntity
8
0
6
ByLayer
62
7
370
-1
100
AcDbSpline
210
0
220
0
230
1
70
8
71
3
72
8
73
4
74
0
42
1e-07
43
1e-07
40
0
40
0
40
0
40
0
40
1
40
1
40
1
40
1
10
130.404306
20
71.32228
30
0
10
130.258939
20
71.322613
30
0
10
129.340799
20
72.092411
30
0
10
128.367014
20
73.033252
30
0
0
SPLINE
5
150
100
AcDbEntity
8
0
6
ByLayer
62
7
370
-1
100
AcDbSpline
210
0
220
0
230
1
70
8
71
3
72
8
73
4
74
0
42
1e-07
43
1e-07
40
0
40
0
40
0
40
0
40
1
40
1
40
1
40
1
10
128.367014
20
73.033252
30
0
10
127.393232
20
73.974094
30
0
10
126.502637
20
74.742531
30
0
10
126.391458
20
74.744224
30
0
0
SPLINE
5
151
100
AcDbEntity
8
0
6
ByLayer
62
7
370
-1
100
AcDbSpline
210
0
220
0
230
1
70
8
71
3
72
8
73
4
74
0
42
1e-07
43
1e-07
40
0
40
0
40
0
40
0
40
1
40
1
40
1
40
1
10
126.391458
20
74.744224
30
0
10
126.28028
20
74.745796
30
0
10
125.428923
20
75.456009
30
0
10
124.495278
20
76.322905
30
0
0
SPLINE
5
152
100
AcDbEntity
8
0
6
ByLayer
62
7
370
-1
100
AcDbSpline
210
0
220
0
230
1
70
8
71
3
72
8
73
4
74
0
42
1e-07
43
1e-07
40
0
40
0
40
0
40
0
40
1
40
1
40
1
40
1
10
124.495278
20
76.322905
30
0
10
123.561627
20
77.189801
30
0
10
122.73359
20
77.901586
30
0
10
122.652014
20
77.901586
30
0
0
SPLINE
5
153
100
AcDbEntity
8
0
6
ByLayer
62
7
370
-1
100
AcDbSpline
210
0
220
0
230
1
70
8
71
3
72
8
73
4
74
0
42
1e-07
43
1e-07
40
0
40
0
40
0
40
0
40
1
40
1
40
1
40
1
10
122.652014
20
77.901586
30
0
10
122.570443
20
77.901586
30
0
10
121.709265
20
78.611798
30
0
10
120.747014
20
79.480266
30
0
0
SPLINE
5
154
100
AcDbEntity
8
0
6
ByLayer
62
7
370
-1
100
AcDbSpline
210
0
220
0
230
1
70
8
71
3
72
8
73
4
74
0
42
1e-07
43
1e-07
40
0
40
0
40
0
40
0
40
1
40
1
40
1
40
1
10
120.747014
20
79.480266
30
0
10
119.784757
20
80.348734
30
0
10
118.959195
20
81.058947
30
0
10
118.90375
20
81.058947
30
0
0
SPLINE
5
155
100
AcDbEntity
8
0
6
ByLayer
62
7
370
-1
100
AcDbSpline
210
0
220
0
230
1
70
8
71
3
72
8
73
4
74
0
42
1e-07
43
1e-07
40
0
40
0
40
0
40
0
40
1
40
1
40
1
40
1
10
118.90375
20
81.058947
30
0
10
118.848307
20
81.058947
30
0
10
118.18432
20
81.623843
30
0
10
117.430903
20
82.320127
30
0
0
SPLINE
5
156
100
AcDbEntity
8
0
6
ByLayer
62
7
370
-1
100
AcDbSpline
210
0
220
0
230
1
70
8
71
3
72
8
73
4
74
0
42
1e-07
43
1e-07
40
0
40
0
40
0
40
0
40
1
40
1
40
1
40
1
10
117.430903
20
82.320127
30
0
10
115.958578
20
83.680794
30
0
10
115.832136
20
84.068409
30
0
10
116.469583
20
85.301099
30
0
0
SPLINE
5
157
100
AcDbEntity
8
0
6
ByLayer
62
7
370
-1
100
AcDbSpline
210
0
220
0
230
1
70
8
71
3
72
8
73
4
74
0
42
1e-07
43
1e-07
40
0
40
0
40
0
40
0
40
1
40
1
40
1
40
1
10
116.469583
20
85.301099
30
0
10
116.952703
20
86.235345
30
0
10
116.783341
20
87.375215
30
0
10
116.063889
20
88.026308
30
0
0
SPLINE
5
158
100
AcDbEntity
8
0
6
ByLayer
62
7
370
-1
100
AcDbSpline
210
0
220
0
230
1
70
8
71
3
72
8
73
4
74
0
42
1e-07
43
1e-07
40
0
40
0
40
0
40
0
40
1
40
1
40
1
40
1
10
116.063889
20
88.026308
30
0
10
115.599899
20
88.446212
30
0
10
115.511134
20
88.430766
30
0
10
114.414653
20
87.788183
30
0
0
SPLINE
5
159
100
AcDbEntity
8
0
6
ByLayer
62
7
370
-1
100
AcDbSpline
210
0
220
0
230
1
70
8
71
3
72
8
73
4
74
0
42
1e-07
43
1e-07
40
0
40
0
40
0
40
0
40
1
40
1
40
1
40
1
10
114.414653
20
87.788183
30
0
10
113.775815
20
87.413801
30
0
10
113.183484
20
87.109086
30
0
10
113.100556
20
87.109086
30
0
0
SPLINE
5
15A
100
AcDbEntity
8
0
6
ByLayer
62
7
370
-1
100
AcDbSpline
210
0
220
0
230
1
70
8
71
3
72
8
73
4
74
0
42
1e-07
43
1e-07
40
0
40
0
40
0
40
0
40
1
40
1
40
1
40
1
10
113.100556
20
87.109086
30
0
10
113.017625
20
87.109086
30
0
10
112.680516
20
87.662918
30
0
10
112.350903
20
88.343808
30
0
0
SPLINE
5
15B
100
AcDbEntity
8
0
6
ByLayer
62
7
370
-1
100
AcDbSpline
210
0
220
0
230
1
70
8
71
3
72
8
73
4
74
0
42
1e-07
43
1e-07
40
0
40
0
40
0
40
0
40
1
40
1
40
1
40
1
10
112.350903
20
88.343808
30
0
10
111.592129
20
89.911225
30
0
10
106.878662
20
94.737905
30
0
10
106.106736
20
94.737905
30
0
0
SPLINE
5
15C
100
AcDbEntity
8
0
6
ByLayer
62
7
370
-1
100
AcDbSpline
210
0
220
0
230
1
70
8
71
3
72
8
73
4
74
0
42
1e-07
43
1e-07
40
0
40
0
40
0
40
0
40
1
40
1
40
1
40
1
10
106.106736
20
94.737905
30
0
10
105.782725
20
94.737905
30
0
10
105.252207
20
95.139462
30
0
10
104.819097
20
95.708044
30
0
0
SPLINE
5
15D
100
AcDbEntity
8
0
6
ByLayer
62
7
370
-1
100
AcDbSpline
210
0
220
0
230
1
70
8
71
3
72
8
73
4
74
0
42
1e-07
43
1e-07
40
0
40
0
40
0
40
0
40
1
40
1
40
1
40
1
10
104.819097
20
95.708044
30
0
10
104.414876
20
96.238692
30
0
10
103.847406
20
96.922601
30
0
10
103.557917
20
97.233808
30
0
0
SPLINE
5
15E
100
AcDbEntity
8
0
6
ByLayer
62
7
370
-1
100
AcDbSpline
210
0
220
0
230
1
70
8
71
3
72
8
73
4
74
0
42
1e-07
43
1e-07
40
0
40
0
40
0
40
0
40
1
40
1
40
1
40
1
10
103.557917
20
97.233808
30
0
10
102.59323
20
98.270859
30
0
10
101.164658
20
100.124565
30
0
10
100.559306
20
101.123183
30
0
0
SPLINE
5
15F
100
AcDbEntity
8
0
6
ByLayer
62
7
370
-1
100
AcDbSpline
210
0
220
0
230
1
70
8
71
3
72
8
73
4
74
0
42
1e-07
43
1e-07
40
0
40
0
40
0
40
0
40
1
40
1
40
1
40
1
10
100.559306
20
101.123183
30
0
10
100.230206
20
101.666082
30
0
10
99.741931
20
102.267611
30
0
10
99.474514
20
102.454919
30
0
0
SPLINE
5
160
100
AcDbEntity
8
0
6
ByLayer
62
7
370
-1
100
AcDbSpline
210
0
220
0
230
1
70
8
71
3
72
8
73
4
74
0
42
1e-07
43
1e-07
40
0
40
0
40
0
40
0
40
1
40
1
40
1
40
1
10
99.474514
20
102.454919
30
0
10
99.207097
20
102.642224
30
0
10
98.590416
20
103.391075
30
0
10
98.098681
20
104.121794
30
0
0
SPLINE
5
161
100
AcDbEntity
8
0
6
ByLayer
62
7
370
-1
100
AcDbSpline
210
0
220
0
230
1
70
8
71
3
72
8
73
4
74
0
42
1e-07
43
1e-07
40
0
40
0
40
0
40
0
40
1
40
1
40
1
40
1
10
98.098681
20
104.121794
30
0
10
96.723917
20
106.164682
30
0
10
95.500721
20
107.61187
30
0
10
95.020694
20
107.764224
30
0
0
SPLINE
5
162
100
AcDbEntity
8
0
6
ByLayer
62
7
370
-1
100
AcDbSpline
210
0
220
0
230
1
70
8
71
3
72
8
73
4
74
0
42
1e-07
43
1e-07
40
0
40
0
40
0
40
0
40
1
40
1
40
1
40
1
10
95.020694
20
107.764224
30
0
10
94.781415
20
107.840168
30
0
10
93.882134
20
108.761736
30
0
10
93.0275
20
109.810336
30
0
0
SPLINE
5
163
100
AcDbEntity
8
0
6
ByLayer
62
7
370
-1
100
AcDbSpline
210
0
220
0
230
1
70
8
71
3
72
8
73
4
74
0
42
1e-07
43
1e-07
40
0
40
0
40
0
40
0
40
1
40
1
40
1
40
1
10
93.0275
20
109.810336
30
0
10
92.172866
20
110.858935
30
0
10
91.337045
20
111.802757
30
0
10
91.166597
20
111.909363
30
0
0
SPLINE
5
164
100
AcDbEntity
8
0
6
ByLayer
62
7
370
-1
100
AcDbSpline
210
0
220
0
230
1
70
8
71
3
72
8
73
4
74
0
42
1e-07
43
1e-07
40
0
40
0
40
0
40
0
40
1
40
1
40
1
40
1
10
91.166597
20
111.909363
30
0
10
90.738627
20
112.177031
30
0
10
89.2175
20
114.578339
30
0
10
89.2175
20
114.987349
30
0
0
SPLINE
5
165
100
AcDbEntity
8
0
6
ByLayer
62
7
370
-1
100
AcDbSpline
210
0
220
0
230
1
70
8
71
3
72
8
73
4
74
0
42
1e-07
43
1e-07
40
0
40
0
40
0
40
0
40
1
40
1
40
1
40
1
10
89.2175
20
114.987349
30
0
10
89.2175
20
115.170774
30
0
10
88.918186
20
115.915578
30
0
10
88.556042
20
116.636586
30
0
0
SPLINE
5
166
100
AcDbEntity
8
0
6
ByLayer
62
7
370
-1
100
AcDbSpline
210
0
220
0
230
1
70
8
71
3
72
8
73
4
74
0
42
1e-07
43
1e-07
40
0
40
0
40
0
40
0
40
1
40
1
40
1
40
1
10
88.556042
20
116.636586
30
0
10
88.1939
20
117.357596
30
0
10
87.826424
20
118.407211
30
0
10
87.735833
20
118.973738
30
0
0
SPLINE
5
167
100
AcDbEntity
8
0
6
ByLayer
62
7
370
-1
100
AcDbSpline
210
0
220
0
230
1
70
8
71
3
72
8
73
4
74
0
42
1e-07
43
1e-07
40
0
40
0
40
0
40
0
40
1
40
1
40
1
40
1
10
87.735833
20
118.973738
30
0
10
87.645243
20
119.540268
30
0
10
87.465205
20
120.005613
30
0
10
87.338958
20
120.005613
30
0
0
SPLINE
5
168
100
AcDbEntity
8
0
6
ByLayer
62
7
370
-1
100
AcDbSpline
210
0
220
0
230
1
70
8
71
3
72
8
73
4
74
0
42
1e-07
43
1e-07
40
0
40
0
40
0
40
0
40
1
40
1
40
1
40
1
10
87.338958
20
120.005613
30
0
10
87.212715
20
120.005613
30
0
10
87.109653
20
120.242567
30
0
10
87.109653
20
120.525961
30
0
0
SPLINE
5
169
100
AcDbEntity
8
0
6
ByLayer
62
7
370
-1
100
AcDbSpline
210
0
220
0
230
1
70
8
71
3
72
8
73
4
74
0
42
1e-07
43
1e-07
40
0
40
0
40
0
40
0
40
1
40
1
40
1
40
1
10
87.109653
20
120.525961
30
0
10
87.109653
20
121.024912
30
0
10
85.981458
20
122.322319
30
0
10
84.340347
20
123.70978
30
0
0
SPLINE
5
16A
100
AcDbEntity
8
0
6
ByLayer
62
7
370
-1
100
AcDbSpline
210
0
220
0
230
1
70
8
71
3
72
8
73
4
74
0
42
1e-07
43
1e-07
40
0
40
0
40
0
40
0
40
1
40
1
40
1
40
1
10
84.340347
20
123.70978
30
0
10
83.90183
20
124.080518
30
0
10
82.121891
20
125.196662
30
0
10
80.389236
20
126.188044
30
0
0
SPLINE
5
16B
100
AcDbEntity
8
0
6
ByLayer
62
7
370
-1
100
AcDbSpline
210
0
220
0
230
1
70
8
71
3
72
8
73
4
74
0
42
1e-07
43
1e-07
40
0
40
0
40
0
40
0
40
1
40
1
40
1
40
1
10
80.389236
20
126.188044
30
0
10
78.656581
20
127.179426
30
0
10
77.173413
20
128.092194
30
0
10
77.090764
20
128.216516
30
0
0
SPLINE
5
16C
100
AcDbEntity
8
0
6
ByLayer
62
7
370
-1
100
AcDbSpline
210
0
220
0
230
1
70
8
71
3
72
8
73
4
74
0
42
1e-07
43
1e-07
40
0
40
0
40
0
40
0
40
1
40
1
40
1
40
1
10
77.090764
20
128.216516
30
0
10
77.008112
20
128.340838
30
0
10
76.16667
20
128.660466
30
0
10
75.221042
20
128.930891
30
0
0
SPLINE
5
16D
100
AcDbEntity
8
0
6
ByLayer
62
7
370
-1
100
AcDbSpline
210
0
220
0
230
1
70
8
71
3
72
8
73
4
74
0
42
1e-07
43
1e-07
40
0
40
0
40
0
40
0
40
1
40
1
40
1
40
1
10
75.221042
20
128.930891
30
0
10
72.742524
20
129.639684
30
0
10
68.950417
20
131.11003
30
0
10
68.950417
20
131.365058
30
0
0
SPLINE
5
16E
100
AcDbEntity
8
0
6
ByLayer
62
7
370
-1
100
AcDbSpline
210
0
220
0
230
1
70
8
71
3
72
8
73
4
74
0
42
1e-07
43
1e-07
40
0
40
0
40
0
40
0
40
1
40
1
40
1
40
1
10
68.950417
20
131.365058
30
0
10
68.950417
20
131.484923
30
0
10
69.195196
20
131.585544
30
0
10
69.488403
20
131.585544
30
0
0
SPLINE
5
16F
100
AcDbEntity
8
0
6
ByLayer
62
7
370
-1
100
AcDbSpline
210
0
220
0
230
1
70
8
71
3
72
8
73
4
74
0
42
1e-07
43
1e-07
40
0
40
0
40
0
40
0
40
1
40
1
40
1
40
1
10
69.488403
20
131.585544
30
0
10
69.999578
20
131.585544
30
0
10
69.997845
20
131.616439
30
0
10
69.594236
20
132.396933
30
0
0
SPLINE
5
170
100
AcDbEntity
8
0
6
ByLayer
62
7
370
-1
100
AcDbSpline
210
0
220
0
230
1
70
8
71
3
72
8
73
4
74
0
42
1e-07
43
1e-07
40
0
40
0
40
0
40
0
40
1
40
1
40
1
40
1
10
69.594236
20
132.396933
30
0
10
69.067779
20
133.414993
30
0
10
69.257204
20
133.616471
30
0
10
70.361528
20
133.217141
30
0
0
SPLINE
5
171
100
AcDbEntity
8
0
6
ByLayer
62
7
370
-1
100
AcDbSpline
210
0
220
0
230
1
70
8
71
3
72
8
73
4
74
0
42
1e-07
43
1e-07
40
0
40
0
40
0
40
0
40
1
40
1
40
1
40
1
10
70.361528
20
133.217141
30
0
10
71.541801
20
132.790351
30
0
10
71.865371
20
132.814339
30
0
10
71.666806
20
133.331794
30
0
0
SPLINE
5
172
100
AcDbEntity
8
0
6
ByLayer
62
7
370
-1
100
AcDbSpline
210
0
220
0
230
1
70
8
71
3
72
8
73
4
74
0
42
1e-07
43
1e-07
40
0
40
0
40
0
40
0
40
1
40
1
40
1
40
1
10
71.666806
20
133.331794
30
0
10
71.498158
20
133.771277
30
0
10
71.829916
20
133.76495
30
0
10
73.518889
20
133.261238
30
0
0
SPLINE
5
173
100
AcDbEntity
8
0
6
ByLayer
62
7
370
-1
100
AcDbSpline
210
0
220
0
230
1
70
8
71
3
72
8
73
4
74
0
42
1e-07
43
1e-07
40
0
40
0
40
0
40
0
40
1
40
1
40
1
40
1
10
73.518889
20
133.261238
30
0
10
73.957251
20
133.130502
30
0
10
73.990389
20
133.22355
30
0
10
73.827569
20
134.18728
30
0
0
LWPOLYLINE
5
174
100
AcDbEntity
8
0
6
ByLayer
62
7
370
-1
100
AcDbPolyline
90
3
70
0
43
0
10
199.319444
20
9.780197
10
200.077917
20
9.453877
10
199.910347
20
10.291724
0
SPLINE
5
175
100
AcDbEntity
8
0
6
ByLayer
62
7
370
-1
100
AcDbSpline
210
0
220
0
230
1
70
8
71
3
72
8
73
4
74
0
42
1e-07
43
1e-07
40
0
40
0
40
0
40
0
40
1
40
1
40
1
40
1
10
74.480208
20
134.972211
30
0
10
74.938125
20
134.81258
30
0
10
75.374003
20
134.518513
30
0
10
75.450347
20
134.319572
30
0
0
SPLINE
5
176
100
AcDbEntity
8
0
6
ByLayer
62
7
370
-1
100
AcDbSpline
210
0
220
0
230
1
70
8
71
3
72
8
73
4
74
0
42
1e-07
43
1e-07
40
0
40
0
40
0
40
0
40
1
40
1
40
1
40
1
10
75.450347
20
134.319572
30
0
10
75.738979
20
133.567404
30
0
10
76.504413
20
134.112158
30
0
10
77.161319
20
135.536655
30
0
0
SPLINE
5
177
100
AcDbEntity
8
0
6
ByLayer
62
7
370
-1
100
AcDbSpline
210
0
220
0
230
1
70
8
71
3
72
8
73
4
74
0
42
1e-07
43
1e-07
40
0
40
0
40
0
40
0
40
1
40
1
40
1
40
1
10
77.161319
20
135.536655
30
0
10
77.304039
20
135.846145
30
0
10
77.383665
20
135.798044
30
0
10
77.522917
20
135.333808
30
0
0
SPLINE
5
178
100
AcDbEntity
8
0
6
ByLayer
62
7
370
-1
100
AcDbSpline
210
0
220
0
230
1
70
8
71
3
72
8
73
4
74
0
42
1e-07
43
1e-07
40
0
40
0
40
0
40
0
40
1
40
1
40
1
40
1
10
77.522917
20
135.333808
30
0
10
77.719448
20
134.678606
30
0
10
78.157917
20
134.533485
30
0
10
78.157917
20
135.122141
30
0
0
SPLINE
5
179
100
AcDbEntity
8
0
6
ByLayer
62
7
370
-1
100
AcDbSpline
210
0
220
0
230
1
70
8
71
3
72
8
73
4
74
0
42
1e-07
43
1e-07
40
0
40
0
40
0
40
0
40
1
40
1
40
1
40
1
10
78.157917
20
135.122141
30
0
10
78.157917
20
135.328155
30
0
10
78.457512
20
135.847441
30
0
10
78.819375
20
136.277488
30
0
0
SPLINE
5
17A
100
AcDbEntity
8
0
6
ByLayer
62
7
370
-1
100
AcDbSpline
210
0
220
0
230
1
70
8
71
3
72
8
73
4
74
0
42
1e-07
43
1e-07
40
0
40
0
40
0
40
0
40
1
40
1
40
1
40
1
10
78.819375
20
136.277488
30
0
10
79.181238
20
136.707536
30
0
10
79.480833
20
137.203773
30
0
10
79.480833
20
137.379919
30
0
0
SPLINE
5
17B
100
AcDbEntity
8
0
6
ByLayer
62
7
370
-1
100
AcDbSpline
210
0
220
0
230
1
70
8
71
3
72
8
73
4
74
0
42
1e-07
43
1e-07
40
0
40
0
40
0
40
0
40
1
40
1
40
1
40
1
10
79.480833
20
137.379919
30
0
10
79.480833
20
137.60395
30
0
10
79.756663
20
137.643009
30
0
10
80.406875
20
137.52103
30
0
0
SPLINE
5
17C
100
AcDbEntity
8
0
6
ByLayer
62
7
370
-1
100
AcDbSpline
210
0
220
0
230
1
70
8
71
3
72
8
73
4
74
0
42
1e-07
43
1e-07
40
0
40
0
40
0
40
0
40
1
40
1
40
1
40
1
10
80.406875
20
137.52103
30
0
10
81.30124
20
137.353246
30
0
10
81.327495
20
137.377689
30
0
10
81.165347
20
138.023738
30
0
0
SPLINE
5
17D
100
AcDbEntity
8
0
6
ByLayer
62
7
370
-1
100
AcDbSpline
210
0
220
0
230
1
70
8
71
3
72
8
73
4
74
0
42
1e-07
43
1e-07
40
0
40
0
40
0
40
0
40
1
40
1
40
1
40
1
10
81.165347
20
138.023738
30
0
10
81.038198
20
138.530344
30
0
10
81.10001
20
138.694016
30
0
10
81.412292
20
138.694016
30
0
0
SPLINE
5
17E
100
AcDbEntity
8
0
6
ByLayer
62
7
370
-1
100
AcDbSpline
210
0
220
0
230
1
70
8
71
3
72
8
73
4
74
0
42
1e-07
43
1e-07
40
0
40
0
40
0
40
0
40
1
40
1
40
1
40
1
10
81.412292
20
138.694016
30
0
10
81.85104
20
138.694016
30
0
10
81.872938
20
138.656749
30
0
10
80.133472
20
140.607836
30
0
0
SPLINE
5
17F
100
AcDbEntity
8
0
6
ByLayer
62
7
370
-1
100
AcDbSpline
210
0
220
0
230
1
70
8
71
3
72
8
73
4
74
0
42
1e-07
43
1e-07
40
0
40
0
40
0
40
0
40
1
40
1
40
1
40
1
10
80.133472
20
140.607836
30
0
10
79.414697
20
141.414057
30
0
10
79.345068
20
141.586794
30
0
10
79.736597
20
141.586794
30
0
0
SPLINE
5
180
100
AcDbEntity
8
0
6
ByLayer
62
7
370
-1
100
AcDbSpline
210
0
220
0
230
1
70
8
71
3
72
8
73
4
74
0
42
1e-07
43
1e-07
40
0
40
0
40
0
40
0
40
1
40
1
40
1
40
1
10
79.736597
20
141.586794
30
0
10
80.559696
20
141.586794
30
0
10
83.397745
20
144.663916
30
0
10
84.252153
20
146.481586
30
0
0
SPLINE
5
181
100
AcDbEntity
8
0
6
ByLayer
62
7
370
-1
100
AcDbSpline
210
0
220
0
230
1
70
8
71
3
72
8
73
4
74
0
42
1e-07
43
1e-07
40
0
40
0
40
0
40
0
40
1
40
1
40
1
40
1
10
84.252153
20
146.481586
30
0
10
84.536362
20
147.086218
30
0
10
85.18249
20
148.060066
30
0
10
85.680903
20
148.642349
30
0
0
SPLINE
5
182
100
AcDbEntity
8
0
6
ByLayer
62
7
370
-1
100
AcDbSpline
210
0
220
0
230
1
70
8
71
3
72
8
73
4
74
0
42
1e-07
43
1e-07
40
0
40
0
40
0
40
0
40
1
40
1
40
1
40
1
10
85.680903
20
148.642349
30
0
10
86.179316
20
149.224633
30
0
10
86.580486
20
149.789715
30
0
10
86.580486
20
149.90353
30
0
0
SPLINE
5
183
100
AcDbEntity
8
0
6
ByLayer
62
7
370
-1
100
AcDbSpline
210
0
220
0
230
1
70
8
71
3
72
8
73
4
74
0
42
1e-07
43
1e-07
40
0
40
0
40
0
40
0
40
1
40
1
40
1
40
1
10
86.580486
20
149.90353
30
0
10
86.580486
20
150.017345
30
0
10
86.873834
20
150.419274
30
0
10
87.233125
20
150.794294
30
0
0
SPLINE
5
184
100
AcDbEntity
8
0
6
ByLayer
62
7
370
-1
100
AcDbSpline
210
0
220
0
230
1
70
8
71
3
72
8
73
4
74
0
42
1e-07
43
1e-07
40
0
40
0
40
0
40
0
40
1
40
1
40
1
40
1
10
87.233125
20
150.794294
30
0
10
87.592414
20
151.169311
30
0
10
87.964196
20
151.839103
30
0
10
88.053333
20
152.28478
30
0
0
SPLINE
5
185
100
AcDbEntity
8
0
6
ByLayer
62
7
370
-1
100
AcDbSpline
210
0
220
0
230
1
70
8
71
3
72
8
73
4
74
0
42
1e-07
43
1e-07
40
0
40
0
40
0
40
0
40
1
40
1
40
1
40
1
10
88.053333
20
152.28478
30
0
10
88.187327
20
152.954756
30
0
10
88.074805
20
153.235592
30
0
10
87.400694
20
153.925197
30
0
0
SPLINE
5
186
100
AcDbEntity
8
0
6
ByLayer
62
7
370
-1
100
AcDbSpline
210
0
220
0
230
1
70
8
71
3
72
8
73
4
74
0
42
1e-07
43
1e-07
40
0
40
0
40
0
40
0
40
1
40
1
40
1
40
1
10
87.400694
20
153.925197
30
0
10
86.414051
20
154.934519
30
0
10
86.362328
20
155.770936
30
0
10
87.241944
20
156.535752
30
0
0
SPLINE
5
187
100
AcDbEntity
8
0
6
ByLayer
62
7
370
-1
100
AcDbSpline
210
0
220
0
230
1
70
8
71
3
72
8
73
4
74
0
42
1e-07
43
1e-07
40
0
40
0
40
0
40
0
40
1
40
1
40
1
40
1
10
87.241944
20
156.535752
30
0
10
88.171932
20
157.344367
30
0
10
88.10439
20
158.33635
30
0
10
87.047917
20
159.287419
30
0
0
SPLINE
5
188
100
AcDbEntity
8
0
6
ByLayer
62
7
370
-1
100
AcDbSpline
210
0
220
0
230
1
70
8
71
3
72
8
73
4
74
0
42
1e-07
43
1e-07
40
0
40
0
40
0
40
0
40
1
40
1
40
1
40
1
10
87.047917
20
159.287419
30
0
10
85.816793
20
160.39572
30
0
10
85.177272
20
160.664034
30
0
10
82.303056
20
161.324711
30
0
0
SPLINE
5
189
100
AcDbEntity
8
0
6
ByLayer
62
7
370
-1
100
AcDbSpline
210
0
220
0
230
1
70
8
71
3
72
8
73
4
74
0
42
1e-07
43
1e-07
40
0
40
0
40
0
40
0
40
1
40
1
40
1
40
1
10
82.303056
20
161.324711
30
0
10
80.696649
20
161.693964
30
0
10
79.065278
20
161.871815
30
0
10
77.443542
20
161.853877
30
0
0
LWPOLYLINE
5
18A
100
AcDbEntity
8
0
6
ByLayer
62
7
370
-1
100
AcDbPolyline
90
3
70
0
43
0
10
73.827569
20
134.18728
10
73.642361
20
135.254433
10
74.480208
20
134.972211
0
SPLINE
5
18B
100
AcDbEntity
8
0
6
ByLayer
62
7
370
-1
100
AcDbSpline
210
0
220
0
230
1
70
8
71
3
72
8
73
4
74
0
42
1e-07
43
1e-07
40
0
40
0
40
0
40
0
40
1
40
1
40
1
40
1
10
52.202292
20
107.614294
30
0
10
52.469519
20
107.643529
30
0
10
52.636587
20
107.446801
30
0
10
52.634444
20
107.04103
30
0
0
SPLINE
5
18C
100
AcDbEntity
8
0
6
ByLayer
62
7
370
-1
100
AcDbSpline
210
0
220
0
230
1
70
8
71
3
72
8
73
4
74
0
42
1e-07
43
1e-07
40
0
40
0
40
0
40
0
40
1
40
1
40
1
40
1
10
52.634444
20
107.04103
30
0
10
52.627056
20
105.640121
30
0
10
50.992227
20
101.061447
30
0
10
50.500139
20
101.061447
30
0
0
SPLINE
5
18D
100
AcDbEntity
8
0
6
ByLayer
62
7
370
-1
100
AcDbSpline
210
0
220
0
230
1
70
8
71
3
72
8
73
4
74
0
42
1e-07
43
1e-07
40
0
40
0
40
0
40
0
40
1
40
1
40
1
40
1
10
50.500139
20
101.061447
30
0
10
50.373221
20
101.061447
30
0
10
50.262014
20
100.894831
30
0
10
50.262014
20
100.69103
30
0
0
SPLINE
5
18E
100
AcDbEntity
8
0
6
ByLayer
62
7
370
-1
100
AcDbSpline
210
0
220
0
230
1
70
8
71
3
72
8
73
4
74
0
42
1e-07
43
1e-07
40
0
40
0
40
0
40
0
40
1
40
1
40
1
40
1
10
50.262014
20
100.69103
30
0
10
50.262014
20
100.487229
30
0
10
49.842403
20
99.537179
30
0
10
49.327153
20
98.583183
30
0
0
SPLINE
5
18F
100
AcDbEntity
8
0
6
ByLayer
62
7
370
-1
100
AcDbSpline
210
0
220
0
230
1
70
8
71
3
72
8
73
4
74
0
42
1e-07
43
1e-07
40
0
40
0
40
0
40
0
40
1
40
1
40
1
40
1
10
49.327153
20
98.583183
30
0
10
48.811902
20
97.62919
30
0
10
48.458453
20
96.734345
30
0
10
48.542222
20
96.598808
30
0
0
SPLINE
5
190
100
AcDbEntity
8
0
6
ByLayer
62
7
370
-1
100
AcDbSpline
210
0
220
0
230
1
70
8
71
3
72
8
73
4
74
0
42
1e-07
43
1e-07
40
0
40
0
40
0
40
0
40
1
40
1
40
1
40
1
10
48.542222
20
96.598808
30
0
10
48.625986
20
96.463273
30
0
10
49.37261
20
96.105909
30
0
10
50.200278
20
95.796238
30
0
0
SPLINE
5
191
100
AcDbEntity
8
0
6
ByLayer
62
7
370
-1
100
AcDbSpline
210
0
220
0
230
1
70
8
71
3
72
8
73
4
74
0
42
1e-07
43
1e-07
40
0
40
0
40
0
40
0
40
1
40
1
40
1
40
1
10
50.200278
20
95.796238
30
0
10
51.027948
20
95.486567
30
0
10
51.794227
20
95.093231
30
0
10
51.902431
20
94.923113
30
0
0
SPLINE
5
192
100
AcDbEntity
8
0
6
ByLayer
62
7
370
-1
100
AcDbSpline
210
0
220
0
230
1
70
8
71
3
72
8
73
4
74
0
42
1e-07
43
1e-07
40
0
40
0
40
0
40
0
40
1
40
1
40
1
40
1
10
51.902431
20
94.923113
30
0
10
52.29687
20
94.302964
30
0
10
52.090992
20
93.173482
30
0
10
51.452639
20
92.453669
30
0
0
SPLINE
5
193
100
AcDbEntity
8
0
6
ByLayer
62
7
370
-1
100
AcDbSpline
210
0
220
0
230
1
70
8
71
3
72
8
73
4
74
0
42
1e-07
43
1e-07
40
0
40
0
40
0
40
0
40
1
40
1
40
1
40
1
10
51.452639
20
92.453669
30
0
10
50.347793
20
91.207827
30
0
10
50.262014
20
91.087061
30
0
10
50.262014
20
90.777974
30
0
0
SPLINE
5
194
100
AcDbEntity
8
0
6
ByLayer
62
7
370
-1
100
AcDbSpline
210
0
220
0
230
1
70
8
71
3
72
8
73
4
74
0
42
1e-07
43
1e-07
40
0
40
0
40
0
40
0
40
1
40
1
40
1
40
1
10
50.262014
20
90.777974
30
0
10
50.262014
20
90.335314
30
0
10
49.447145
20
88.923769
30
0
10
48.709792
20
88.096863
30
0
0
SPLINE
5
195
100
AcDbEntity
8
0
6
ByLayer
62
7
370
-1
100
AcDbSpline
210
0
220
0
230
1
70
8
71
3
72
8
73
4
74
0
42
1e-07
43
1e-07
40
0
40
0
40
0
40
0
40
1
40
1
40
1
40
1
10
48.709792
20
88.096863
30
0
10
48.354852
20
87.698814
30
0
10
47.997522
20
87.374981
30
0
10
47.916042
20
87.382488
30
0
0
SPLINE
5
196
100
AcDbEntity
8
0
6
ByLayer
62
7
370
-1
100
AcDbSpline
210
0
220
0
230
1
70
8
71
3
72
8
73
4
74
0
42
1e-07
43
1e-07
40
0
40
0
40
0
40
0
40
1
40
1
40
1
40
1
10
47.916042
20
87.382488
30
0
10
47.503108
20
87.420458
30
0
10
43.768134
20
89.04349
30
0
10
43.426944
20
89.331586
30
0
0
SPLINE
5
197
100
AcDbEntity
8
0
6
ByLayer
62
7
370
-1
100
AcDbSpline
210
0
220
0
230
1
70
8
71
3
72
8
73
4
74
0
42
1e-07
43
1e-07
40
0
40
0
40
0
40
0
40
1
40
1
40
1
40
1
10
43.426944
20
89.331586
30
0
10
43.209828
20
89.51492
30
0
10
42.824764
20
89.735643
30
0
10
42.571458
20
89.825474
30
0
0
SPLINE
5
198
100
AcDbEntity
8
0
6
ByLayer
62
7
370
-1
100
AcDbSpline
210
0
220
0
230
1
70
8
71
3
72
8
73
4
74
0
42
1e-07
43
1e-07
40
0
40
0
40
0
40
0
40
1
40
1
40
1
40
1
10
42.571458
20
89.825474
30
0
10
42.193495
20
89.959513
30
0
10
42.104028
20
90.311224
30
0
10
42.104028
20
91.792211
30
0
0
SPLINE
5
199
100
AcDbEntity
8
0
6
ByLayer
62
7
370
-1
100
AcDbSpline
210
0
220
0
230
1
70
8
71
3
72
8
73
4
74
0
42
1e-07
43
1e-07
40
0
40
0
40
0
40
0
40
1
40
1
40
1
40
1
10
42.104028
20
91.792211
30
0
10
42.104028
20
93.376835
30
0
10
42.187752
20
93.674805
30
0
10
42.765486
20
94.217558
30
0
0
SPLINE
5
19A
100
AcDbEntity
8
0
6
ByLayer
62
7
370
-1
100
AcDbSpline
210
0
220
0
230
1
70
8
71
3
72
8
73
4
74
0
42
1e-07
43
1e-07
40
0
40
0
40
0
40
0
40
1
40
1
40
1
40
1
10
42.765486
20
94.217558
30
0
10
43.127349
20
94.557511
30
0
10
43.424969
20
94.961442
30
0
10
43.426944
20
95.117141
30
0
0
SPLINE
5
19B
100
AcDbEntity
8
0
6
ByLayer
62
7
370
-1
100
AcDbSpline
210
0
220
0
230
1
70
8
71
3
72
8
73
4
74
0
42
1e-07
43
1e-07
40
0
40
0
40
0
40
0
40
1
40
1
40
1
40
1
10
43.426944
20
95.117141
30
0
10
43.428985
20
95.27284
30
0
10
43.884988
20
95.902853
30
0
10
44.441181
20
96.519433
30
0
0
SPLINE
5
19C
100
AcDbEntity
8
0
6
ByLayer
62
7
370
-1
100
AcDbSpline
210
0
220
0
230
1
70
8
71
3
72
8
73
4
74
0
42
1e-07
43
1e-07
40
0
40
0
40
0
40
0
40
1
40
1
40
1
40
1
10
44.441181
20
96.519433
30
0
10
45.448643
20
97.636274
30
0
10
47.898403
20
102.053319
30
0
10
47.898403
20
102.75478
30
0
0
SPLINE
5
19D
100
AcDbEntity
8
0
6
ByLayer
62
7
370
-1
100
AcDbSpline
210
0
220
0
230
1
70
8
71
3
72
8
73
4
74
0
42
1e-07
43
1e-07
40
0
40
0
40
0
40
0
40
1
40
1
40
1
40
1
10
47.898403
20
102.75478
30
0
10
47.898403
20
102.957627
30
0
10
48.043792
20
103.286704
30
0
10
48.224722
20
103.477974
30
0
0
SPLINE
5
19E
100
AcDbEntity
8
0
6
ByLayer
62
7
370
-1
100
AcDbSpline
210
0
220
0
230
1
70
8
71
3
72
8
73
4
74
0
42
1e-07
43
1e-07
40
0
40
0
40
0
40
0
40
1
40
1
40
1
40
1
10
48.224722
20
103.477974
30
0
10
48.405655
20
103.669245
30
0
10
48.815278
20
104.372537
30
0
10
49.133125
20
105.047836
30
0
0
SPLINE
5
19F
100
AcDbEntity
8
0
6
ByLayer
62
7
370
-1
100
AcDbSpline
210
0
220
0
230
1
70
8
71
3
72
8
73
4
74
0
42
1e-07
43
1e-07
40
0
40
0
40
0
40
0
40
1
40
1
40
1
40
1
10
49.133125
20
105.047836
30
0
10
49.476688
20
105.777767
30
0
10
49.948838
20
106.348349
30
0
10
50.297292
20
106.458947
30
0
0
SPLINE
5
1A0
100
AcDbEntity
8
0
6
ByLayer
62
7
370
-1
100
AcDbSpline
210
0
220
0
230
1
70
8
71
3
72
8
73
4
74
0
42
1e-07
43
1e-07
40
0
40
0
40
0
40
0
40
1
40
1
40
1
40
1
10
50.297292
20
106.458947
30
0
10
50.619668
20
106.561263
30
0
10
51.125636
20
106.87508
30
0
10
51.417361
20
107.146863
30
0
0
SPLINE
5
1A1
100
AcDbEntity
8
0
6
ByLayer
62
7
370
-1
100
AcDbSpline
210
0
220
0
230
1
70
8
71
3
72
8
73
4
74
0
42
1e-07
43
1e-07
40
0
40
0
40
0
40
0
40
1
40
1
40
1
40
1
10
51.417361
20
107.146863
30
0
10
51.729313
20
107.43749
30
0
10
51.994449
20
107.591555
30
0
10
52.202292
20
107.614294
30
0
0
LWPOLYLINE
5
1A2
100
AcDbEntity
8
0
6
ByLayer
62
7
370
-1
100
AcDbPolyline
90
2
70
0
43
0
10
77.443542
20
161.853877
10
77.443542
20
161.853877
0
SPLINE
5
1A3
100
AcDbEntity
8
0
6
ByLayer
62
7
370
-1
100
AcDbSpline
210
0
220
0
230
1
70
8
71
3
72
8
73
4
74
0
42
1e-07
43
1e-07
40
0
40
0
40
0
40
0
40
1
40
1
40
1
40
1
10
40.701736
20
85.318738
30
0
10
41.327073
20
85.320629
30
0
10
42.897778
20
84.65443
30
0
10
42.897778
20
84.357419
30
0
0
SPLINE
5
1A4
100
AcDbEntity
8
0
6
ByLayer
62
7
370
-1
100
AcDbSpline
210
0
220
0
230
1
70
8
71
3
72
8
73
4
74
0
42
1e-07
43
1e-07
40
0
40
0
40
0
40
0
40
1
40
1
40
1
40
1
10
42.897778
20
84.357419
30
0
10
42.897778
20
84.201023
30
0
10
41.349089
20
83.812499
30
0
10
39.414097
20
83.484294
30
0
0
SPLINE
5
1A5
100
AcDbEntity
8
0
6
ByLayer
62
7
370
-1
100
AcDbSpline
210
0
220
0
230
1
70
8
71
3
72
8
73
4
74
0
42
1e-07
43
1e-07
40
0
40
0
40
0
40
0
40
1
40
1
40
1
40
1
10
39.414097
20
83.484294
30
0
10
34.582563
20
82.664783
30
0
10
34.58959
20
82.655548
30
0
10
35.40125
20
84.225127
30
0
0
SPLINE
5
1A6
100
AcDbEntity
8
0
6
ByLayer
62
7
370
-1
100
AcDbSpline
210
0
220
0
230
1
70
8
71
3
72
8
73
4
74
0
42
1e-07
43
1e-07
40
0
40
0
40
0
40
0
40
1
40
1
40
1
40
1
10
35.40125
20
84.225127
30
0
10
35.871254
20
85.134013
30
0
10
36.320053
20
85.210046
30
0
10
36.979931
20
84.480891
30
0
0
SPLINE
5
1A7
100
AcDbEntity
8
0
6
ByLayer
62
7
370
-1
100
AcDbSpline
210
0
220
0
230
1
70
8
71
3
72
8
73
4
74
0
42
1e-07
43
1e-07
40
0
40
0
40
0
40
0
40
1
40
1
40
1
40
1
10
36.979931
20
84.480891
30
0
10
37.605942
20
83.789156
30
0
10
38.146792
20
83.813334
30
0
10
39.299444
20
84.595544
30
0
0
SPLINE
5
1A8
100
AcDbEntity
8
0
6
ByLayer
62
7
370
-1
100
AcDbSpline
210
0
220
0
230
1
70
8
71
3
72
8
73
4
74
0
42
1e-07
43
1e-07
40
0
40
0
40
0
40
0
40
1
40
1
40
1
40
1
10
39.299444
20
84.595544
30
0
10
39.821832
20
84.950046
30
0
10
40.401734
20
85.273504
30
0
10
40.587083
20
85.309919
30
0
0
SPLINE
5
1A9
100
AcDbEntity
8
0
6
ByLayer
62
7
370
-1
100
AcDbSpline
210
0
220
0
230
1
70
8
71
3
72
8
73
4
74
0
42
1e-07
43
1e-07
40
0
40
0
40
0
40
0
40
1
40
1
40
1
40
1
10
40.587083
20
85.309919
30
0
10
40.619595
20
85.316306
30
0
10
40.660046
20
85.318611
30
0
10
40.701736
20
85.318738
30
0
0
LWPOLYLINE
5
1AA
100
AcDbEntity
8
0
6
ByLayer
62
7
370
-1
100
AcDbPolyline
90
2
70
0
43
0
10
52.202292
20
107.614294
10
52.202292
20
107.614294
0
LWPOLYLINE
5
1AB
100
AcDbEntity
8
0
6
ByLayer
62
7
370
-1
100
AcDbPolyline
90
2
70
0
43
0
10
40.701736
20
85.318738
10
40.701736
20
85.318738
0
SPLINE
5
1AC
100
AcDbEntity
8
0
6
ByLayer
62
7
370
-1
100
AcDbSpline
210
0
220
0
230
1
70
8
71
3
72
8
73
4
74
0
42
1e-07
43
1e-07
40
0
40
0
40
0
40
0
40
1
40
1
40
1
40
1
10
159.980771
20
150.367264
30
0
10
156.724389
20
151.148673
30
0
10
155.138427
20
152.063555
30
0
10
152.656009
20
154.592654
30
0
0
SPLINE
5
1AD
100
AcDbEntity
8
0
6
ByLayer
62
7
370
-1
100
AcDbSpline
210
0
220
0
230
1
70
8
71
3
72
8
73
4
74
0
42
1e-07
43
1e-07
40
0
40
0
40
0
40
0
40
1
40
1
40
1
40
1
10
152.656009
20
154.592654
30
0
10
150.41304
20
156.877799
30
0
10
149.390388
20
158.575369
30
0
10
148.268571
20
161.875664
30
0
0
SPLINE
5
1AE
100
AcDbEntity
8
0
6
ByLayer
62
7
370
-1
100
AcDbSpline
210
0
220
0
230
1
70
8
71
3
72
8
73
4
74
0
42
1e-07
43
1e-07
40
0
40
0
40
0
40
0
40
1
40
1
40
1
40
1
10
148.268571
20
161.875664
30
0
10
147.689556
20
163.579073
30
0
10
147.915469
20
166.628123
30
0
10
148.854041
20
169.777531
30
0
0
SPLINE
5
1AF
100
AcDbEntity
8
0
6
ByLayer
62
7
370
-1
100
AcDbSpline
210
0
220
0
230
1
70
8
71
3
72
8
73
4
74
0
42
1e-07
43
1e-07
40
0
40
0
40
0
40
0
40
1
40
1
40
1
40
1
10
148.854041
20
169.777531
30
0
10
149.236867
20
171.062119
30
0
10
149.608673
20
172.456779
30
0
10
149.680275
20
172.87678
30
0
0
SPLINE
5
1B0
100
AcDbEntity
8
0
6
ByLayer
62
7
370
-1
100
AcDbSpline
210
0
220
0
230
1
70
8
71
3
72
8
73
4
74
0
42
1e-07
43
1e-07
40
0
40
0
40
0
40
0
40
1
40
1
40
1
40
1
10
145.004928
20
173.450724
30
0
10
142.361889
20
173.346394
30
0
10
140.006869
20
173.159815
30
0
10
139.771552
20
173.0361
30
0
0
SPLINE
5
1B1
100
AcDbEntity
8
0
6
ByLayer
62
7
370
-1
100
AcDbSpline
210
0
220
0
230
1
70
8
71
3
72
8
73
4
74
0
42
1e-07
43
1e-07
40
0
40
0
40
0
40
0
40
1
40
1
40
1
40
1
10
139.771552
20
173.0361
30
0
10
139.536235
20
172.912385
30
0
10
137.271221
20
172.654109
30
0
10
134.738189
20
172.462156
30
0
0
SPLINE
5
1B2
100
AcDbEntity
8
0
6
ByLayer
62
7
370
-1
100
AcDbSpline
210
0
220
0
230
1
70
8
71
3
72
8
73
4
74
0
42
1e-07
43
1e-07
40
0
40
0
40
0
40
0
40
1
40
1
40
1
40
1
10
134.738189
20
172.462156
30
0
10
126.449751
20
171.83405
30
0
10
117.855653
20
172.099444
30
0
10
117.10565
20
173.006664
30
0
0
SPLINE
5
1B3
100
AcDbEntity
8
0
6
ByLayer
62
7
370
-1
100
AcDbSpline
210
0
220
0
230
1
70
8
71
3
72
8
73
4
74
0
42
1e-07
43
1e-07
40
0
40
0
40
0
40
0
40
1
40
1
40
1
40
1
10
117.10565
20
173.006664
30
0
10
117.033277
20
173.094209
30
0
10
116.322712
20
173.49162
30
0
10
115.526617
20
173.889805
30
0
0
SPLINE
5
1B4
100
AcDbEntity
8
0
6
ByLayer
62
7
370
-1
100
AcDbSpline
210
0
220
0
230
1
70
8
71
3
72
8
73
4
74
0
42
1e-07
43
1e-07
40
0
40
0
40
0
40
0
40
1
40
1
40
1
40
1
10
115.526617
20
173.889805
30
0
10
114.230822
20
174.537923
30
0
10
113.675298
20
174.996824
30
0
10
111.683094
20
177.064822
30
0
0
SPLINE
5
1B5
100
AcDbEntity
8
0
6
ByLayer
62
7
370
-1
100
AcDbSpline
210
0
220
0
230
1
70
8
71
3
72
8
73
4
74
0
42
1e-07
43
1e-07
40
0
40
0
40
0
40
0
40
1
40
1
40
1
40
1
10
111.683094
20
177.064822
30
0
10
111.154134
20
177.613902
30
0
10
110
20
179.936568
30
0
10
110
20
180.452002
30
0
0
SPLINE
5
1B6
100
AcDbEntity
8
0
6
ByLayer
62
7
370
-1
100
AcDbSpline
210
0
220
0
230
1
70
8
71
3
72
8
73
4
74
0
42
1e-07
43
1e-07
40
0
40
0
40
0
40
0
40
1
40
1
40
1
40
1
10
110
20
180.452002
30
0
10
110
20
180.586862
30
0
10
110.549673
20
180.139633
30
0
10
111.221497
20
179.458162
30
0
0
SPLINE
5
1B7
100
AcDbEntity
8
0
6
ByLayer
62
7
370
-1
100
AcDbSpline
210
0
220
0
230
1
70
8
71
3
72
8
73
4
74
0
42
1e-07
43
1e-07
40
0
40
0
40
0
40
0
40
1
40
1
40
1
40
1
10
111.221497
20
179.458162
30
0
10
111.89361
20
178.776395
30
0
10
113.284398
20
177.799847
30
0
10
114.313769
20
177.286908
30
0
0
SPLINE
5
1B8
100
AcDbEntity
8
0
6
ByLayer
62
7
370
-1
100
AcDbSpline
210
0
220
0
230
1
70
8
71
3
72
8
73
4
74
0
42
1e-07
43
1e-07
40
0
40
0
40
0
40
0
40
1
40
1
40
1
40
1
10
114.313769
20
177.286908
30
0
10
116.074952
20
176.409301
30
0
10
116.366962
20
176.348274
30
0
10
119.298313
20
176.24515
30
0
0
SPLINE
5
1B9
100
AcDbEntity
8
0
6
ByLayer
62
7
370
-1
100
AcDbSpline
210
0
220
0
230
1
70
8
71
3
72
8
73
4
74
0
42
1e-07
43
1e-07
40
0
40
0
40
0
40
0
40
1
40
1
40
1
40
1
10
119.298313
20
176.24515
30
0
10
121.646766
20
176.162532
30
0
10
123.296192
20
176.27603
30
0
10
126.009205
20
176.706939
30
0
0
SPLINE
5
1BA
100
AcDbEntity
8
0
6
ByLayer
62
7
370
-1
100
AcDbSpline
210
0
220
0
230
1
70
8
71
3
72
8
73
4
74
0
42
1e-07
43
1e-07
40
0
40
0
40
0
40
0
40
1
40
1
40
1
40
1
10
126.009205
20
176.706939
30
0
10
132.473161
20
177.733607
30
0
10
135.650108
20
178.311612
30
0
10
136.185636
20
178.558412
30
0
0
SPLINE
5
1BB
100
AcDbEntity
8
0
6
ByLayer
62
7
370
-1
100
AcDbSpline
210
0
220
0
230
1
70
8
71
3
72
8
73
4
74
0
42
1e-07
43
1e-07
40
0
40
0
40
0
40
0
40
1
40
1
40
1
40
1
10
136.185636
20
178.558412
30
0
10
136.686914
20
178.789431
30
0
10
138.436138
20
179.134558
30
0
10
143.422872
20
179.986341
30
0
0
SPLINE
5
1BC
100
AcDbEntity
8
0
6
ByLayer
62
7
370
-1
100
AcDbSpline
210
0
220
0
230
1
70
8
71
3
72
8
73
4
74
0
42
1e-07
43
1e-07
40
0
40
0
40
0
40
0
40
1
40
1
40
1
40
1
10
143.422872
20
179.986341
30
0
10
147.335686
20
180.654688
30
0
10
156.046088
20
181.695053
30
0
10
160.265894
20
181.998061
30
0
0
SPLINE
5
1BD
100
AcDbEntity
8
0
6
ByLayer
62
7
370
-1
100
AcDbSpline
210
0
220
0
230
1
70
8
71
3
72
8
73
4
74
0
42
1e-07
43
1e-07
40
0
40
0
40
0
40
0
40
1
40
1
40
1
40
1
10
160.265894
20
181.998061
30
0
10
162.509437
20
182.159159
30
0
10
164.496606
20
182.416526
30
0
10
164.681823
20
182.569987
30
0
0
SPLINE
5
1BE
100
AcDbEntity
8
0
6
ByLayer
62
7
370
-1
100
AcDbSpline
210
0
220
0
230
1
70
8
71
3
72
8
73
4
74
0
42
1e-07
43
1e-07
40
0
40
0
40
0
40
0
40
1
40
1
40
1
40
1
10
164.681823
20
182.569987
30
0
10
164.919697
20
182.767077
30
0
10
165.207481
20
182.762936
30
0
10
165.661907
20
182.555876
30
0
0
SPLINE
5
1BF
100
AcDbEntity
8
0
6
ByLayer
62
7
370
-1
100
AcDbSpline
210
0
220
0
230
1
70
8
71
3
72
8
73
4
74
0
42
1e-07
43
1e-07
40
0
40
0
40
0
40
0
40
1
40
1
40
1
40
1
10
165.661907
20
182.555876
30
0
10
166.015735
20
182.394659
30
0
10
167.581394
20
182.185165
30
0
10
169.141143
20
182.09033
30
0
0
SPLINE
5
1C0
100
AcDbEntity
8
0
6
ByLayer
62
7
370
-1
100
AcDbSpline
210
0
220
0
230
1
70
8
71
3
72
8
73
4
74
0
42
1e-07
43
1e-07
40
0
40
0
40
0
40
0
40
1
40
1
40
1
40
1
10
169.141143
20
182.09033
30
0
10
170.700897
20
181.995495
30
0
10
172.579256
20
181.766277
30
0
10
173.315274
20
181.580956
30
0
0
SPLINE
5
1C1
100
AcDbEntity
8
0
6
ByLayer
62
7
370
-1
100
AcDbSpline
210
0
220
0
230
1
70
8
71
3
72
8
73
4
74
0
42
1e-07
43
1e-07
40
0
40
0
40
0
40
0
40
1
40
1
40
1
40
1
10
173.315274
20
181.580956
30
0
10
176.569395
20
180.761603
30
0
10
179.674938
20
178.423939
30
0
10
181.094572
20
175.725169
30
0
0
SPLINE
5
1C2
100
AcDbEntity
8
0
6
ByLayer
62
7
370
-1
100
AcDbSpline
210
0
220
0
230
1
70
8
71
3
72
8
73
4
74
0
42
1e-07
43
1e-07
40
0
40
0
40
0
40
0
40
1
40
1
40
1
40
1
10
181.094572
20
175.725169
30
0
10
181.757038
20
174.465804
30
0
10
181.846017
20
174.020519
30
0
10
181.846017
20
171.964697
30
0
0
SPLINE
5
1C3
100
AcDbEntity
8
0
6
ByLayer
62
7
370
-1
100
AcDbSpline
210
0
220
0
230
1
70
8
71
3
72
8
73
4
74
0
42
1e-07
43
1e-07
40
0
40
0
40
0
40
0
40
1
40
1
40
1
40
1
10
181.846017
20
171.964697
30
0
10
181.846017
20
168.531189
30
0
10
181.253666
20
167.129728
30
0
10
179.067017
20
165.389754
30
0
0
SPLINE
5
1C4
100
AcDbEntity
8
0
6
ByLayer
62
7
370
-1
100
AcDbSpline
210
0
220
0
230
1
70
8
71
3
72
8
73
4
74
0
42
1e-07
43
1e-07
40
0
40
0
40
0
40
0
40
1
40
1
40
1
40
1
10
179.067017
20
165.389754
30
0
10
178.13388
20
164.647236
30
0
10
177.310759
20
163.78376
30
0
10
177.237858
20
163.470914
30
0
0
SPLINE
5
1C5
100
AcDbEntity
8
0
6
ByLayer
62
7
370
-1
100
AcDbSpline
210
0
220
0
230
1
70
8
71
3
72
8
73
4
74
0
42
1e-07
43
1e-07
40
0
40
0
40
0
40
0
40
1
40
1
40
1
40
1
10
177.237858
20
163.470914
30
0
10
177.16496
20
163.158071
30
0
10
176.936177
20
161.994686
30
0
10
176.729458
20
160.885617
30
0
0
SPLINE
5
1C6
100
AcDbEntity
8
0
6
ByLayer
62
7
370
-1
100
AcDbSpline
210
0
220
0
230
1
70
8
71
3
72
8
73
4
74
0
42
1e-07
43
1e-07
40
0
40
0
40
0
40
0
40
1
40
1
40
1
40
1
10
176.729458
20
160.885617
30
0
10
176.181043
20
157.943358
30
0
10
174.976781
20
155.305088
30
0
10
173.405354
20
153.603241
30
0
0
SPLINE
5
1C7
100
AcDbEntity
8
0
6
ByLayer
62
7
370
-1
100
AcDbSpline
210
0
220
0
230
1
70
8
71
3
72
8
73
4
74
0
42
1e-07
43
1e-07
40
0
40
0
40
0
40
0
40
1
40
1
40
1
40
1
10
173.405354
20
153.603241
30
0
10
170.768978
20
150.748067
30
0
10
164.595372
20
149.259923
30
0
10
159.980771
20
150.367253
30
0
0
LWPOLYLINE
5
1C8
100
AcDbEntity
8
0
6
ByLayer
62
7
370
-1
100
AcDbPolyline
90
3
70
0
43
0
10
149.680275
20
172.87678
10
149.810459
20
173.640411
10
145.004928
20
173.450724
0
LWPOLYLINE
5
1C9
100
AcDbEntity
8
0
6
ByLayer
62
7
370
-1
100
AcDbPolyline
90
3
70
0
43
0
10
159.980771
20
150.367253
10
159.980771
20
150.367253
10
159.980771
20
150.367264
0
ENDSEC
0
SECTION
2
OBJECTS
0
DICTIONARY
5
C
330
0
100
AcDbDictionary
281
1
3
ACAD_GROUP
350
D
0
DICTIONARY
5
D
330
C
100
AcDbDictionary
281
1
0
ENDSEC
0
EOF
