999
dxfrw 0.5.10
0
SECTION
2
HEADER
9
$ACADVER
1
AC1021
9
$HANDSEED
5
20000
9
$DWGCODEPAGE
3
ANSI_1252
9
$INSBASE
10
0
20
0
30
0
9
$EXTMIN
10
2.5
20
2.5
30
0
9
$EXTMAX
10
77.5
20
77.5
30
0
9
$LIMMIN
10
0
20
0
9
$LIMMAX
10
420
20
297
9
$ORTHOMODE
70
0
9
$LTSCALE
40
1
9
$TEXTSTYLE
7
STANDARD
9
$CLAYER
8
youmu
9
$DIMASZ
40
2.5
9
$DIMLFAC
40
1
9
$DIMSCALE
40
1
9
$DIMEXO
40
0.625
9
$DIMEXE
40
1.25
9
$DIMTXT
40
2.5
9
$DIMTSZ
40
0
9
$DIMAUNIT
70
0
9
$DIMADEC
70
0
9
$DIMLUNIT
70
2
9
$DIMSTYLE
2
Standard
9
$DIMGAP
40
0.625
9
$DIMTIH
70
0
9
$LUNITS
70
2
9
$LUPREC
70
4
9
$AUNITS
70
0
9
$AUPREC
70
2
9
$SPLINESEGS
70
8
9
$GRIDMODE
70
0
9
$SNAPSTYLE
70
0
9
$PINSBASE
10
0
20
0
30
0
9
$PLIMMIN
10
0
20
0
9
$PLIMMAX
10
210
20
297
9
$INSUNITS
70
4
9
$PSVPSCALE
40
1
0
ENDSEC
0
SECTION
2
CLASSES
0
ENDSEC
0
SECTION
2
TABLES
0
TABLE
2
VPORT
5
8
330
0
100
AcDbSymbolTable
70
1
0
VPORT
5
31
330
2
100
AcDbSymbolTableRecord
100
AcDbViewportTableRecord
2
*ACTIVE
70
0
10
0
20
0
11
1
21
1
12
60.2054794521
22
39.2465753425
13
0
23
0
14
10
24
10
15
10
25
10
16
0
26
0
36
1
17
0
27
0
37
0
40
77.0547945205
41
2.08533333333
42
50
43
0
44
0
50
0
51
0
71
0
72
100
73
1
74
3
75
0
76
0
77
0
78
0
281
0
65
1
110
0
120
0
130
0
111
1
121
0
131
0
112
0
122
1
132
0
79
0
146
0
348
10020
60
7
61
5
292
1
282
1
141
0
142
0
63
250
421
3358443
0
ENDTAB
0
TABLE
2
LTYPE
5
5
330
0
100
AcDbSymbolTable
70
4
0
LTYPE
5
14
330
5
100
AcDbSymbolTableRecord
100
AcDbLinetypeTableRecord
2
ByBlock
70
0
3

72
65
73
0
40
0
0
LTYPE
5
15
330
5
100
AcDbSymbolTableRecord
100
AcDbLinetypeTableRecord
2
ByLayer
70
0
3

72
65
73
0
40
0
0
LTYPE
5
16
330
5
100
AcDbSymbolTableRecord
100
AcDbLinetypeTableRecord
2
Continuous
70
0
3
Solid line
72
65
73
0
40
0
0
LTYPE
5
32
330
5
100
AcDbSymbolTableRecord
100
AcDbLinetypeTableRecord
2
DOT
70
0
3
Dot . . . . . . . . . . . . . . . . . . . . . .
72
65
73
2
40
6.35
49
0
74
0
49
-6.35
74
0
0
LTYPE
5
33
330
5
100
AcDbSymbolTableRecord
100
AcDbLinetypeTableRecord
2
DOT2
70
0
3
Dot (.5x) .....................................
72
65
73
2
40
3.175
49
0
74
0
49
-3.175
74
0
0
LTYPE
5
34
330
5
100
AcDbSymbolTableRecord
100
AcDbLinetypeTableRecord
2
DOTX2
70
0
3
Dot (2x) .  .  .  .  .  .  .  .  .  .  .  .  .
72
65
73
2
40
12.7
49
0
74
0
49
-12.7
74
0
0
LTYPE
5
35
330
5
100
AcDbSymbolTableRecord
100
AcDbLinetypeTableRecord
2
DASHED
70
0
3
Dot . . . . . . . . . . . . . . . . . . . . . .
72
65
73
2
40
19.05
49
12.7
74
0
49
-6.35
74
0
0
LTYPE
5
36
330
5
100
AcDbSymbolTableRecord
100
AcDbLinetypeTableRecord
2
DASHED2
70
0
3
Dashed (.5x) _ _ _ _ _ _ _ _ _ _ _ _ _ _ _ _ _
72
65
73
2
40
9.525
49
6.35
74
0
49
-3.175
74
0
0
LTYPE
5
37
330
5
100
AcDbSymbolTableRecord
100
AcDbLinetypeTableRecord
2
DASHEDX2
70
0
3
Dashed (2x) ____  ____  ____  ____  ____  ___
72
65
73
2
40
38.1
49
25.4
74
0
49
-12.7
74
0
0
LTYPE
5
38
330
5
100
AcDbSymbolTableRecord
100
AcDbLinetypeTableRecord
2
DASHDOT
70
0
3
Dash dot __ . __ . __ . __ . __ . __ . __ . __
72
65
73
4
40
25.4
49
12.7
74
0
49
-6.35
74
0
49
0
74
0
49
-6.35
74
0
0
LTYPE
5
39
330
5
100
AcDbSymbolTableRecord
100
AcDbLinetypeTableRecord
2
DASHDOT2
70
0
3
Dash dot (.5x) _._._._._._._._._._._._._._._.
72
65
73
4
40
12.7
49
6.35
74
0
49
-3.175
74
0
49
0
74
0
49
-3.175
74
0
0
LTYPE
5
3A
330
5
100
AcDbSymbolTableRecord
100
AcDbLinetypeTableRecord
2
DASHDOTX2
70
0
3
Dash dot (2x) ____  .  ____  .  ____  .  ___
72
65
73
4
40
50.8
49
25.4
74
0
49
-12.7
74
0
49
0
74
0
49
-12.7
74
0
0
LTYPE
5
3B
330
5
100
AcDbSymbolTableRecord
100
AcDbLinetypeTableRecord
2
DIVIDE
70
0
3
Divide ____ . . ____ . . ____ . . ____ . . ____
72
65
73
6
40
31.75
49
12.7
74
0
49
-6.35
74
0
49
0
74
0
49
-6.35
74
0
49
0
74
0
49
-6.35
74
0
0
LTYPE
5
3C
330
5
100
AcDbSymbolTableRecord
100
AcDbLinetypeTableRecord
2
DIVIDE2
70
0
3
Divide (.5x) __..__..__..__..__..__..__..__.._
72
65
73
6
40
15.875
49
6.35
74
0
49
-3.175
74
0
49
0
74
0
49
-3.175
74
0
49
0
74
0
49
-3.175
74
0
0
LTYPE
5
3D
330
5
100
AcDbSymbolTableRecord
100
AcDbLinetypeTableRecord
2
DIVIDEX2
70
0
3
Divide (2x) ________  .  .  ________  .  .  _
72
65
73
6
40
63.5
49
25.4
74
0
49
-12.7
74
0
49
0
74
0
49
-12.7
74
0
49
0
74
0
49
-12.7
74
0
0
LTYPE
5
3E
330
5
100
AcDbSymbolTableRecord
100
AcDbLinetypeTableRecord
2
BORDER
70
0
3
Border __ __ . __ __ . __ __ . __ __ . __ __ .
72
65
73
6
40
44.45
49
12.7
74
0
49
-6.35
74
0
49
12.7
74
0
49
-6.35
74
0
49
0
74
0
49
-6.35
74
0
0
LTYPE
5
3F
330
5
100
AcDbSymbolTableRecord
100
AcDbLinetypeTableRecord
2
BORDER2
70
0
3
Border (.5x) __.__.__.__.__.__.__.__.__.__.__.
72
65
73
6
40
22.225
49
6.35
74
0
49
-3.175
74
0
49
6.35
74
0
49
-3.175
74
0
49
0
74
0
49
-3.175
74
0
0
LTYPE
5
40
330
5
100
AcDbSymbolTableRecord
100
AcDbLinetypeTableRecord
2
BORDERX2
70
0
3
Border (2x) ____  ____  .  ____  ____  .  ___
72
65
73
6
40
88.9
49
25.4
74
0
49
-12.7
74
0
49
25.4
74
0
49
-12.7
74
0
49
0
74
0
49
-12.7
74
0
0
LTYPE
5
41
330
5
100
AcDbSymbolTableRecord
100
AcDbLinetypeTableRecord
2
CENTER
70
0
3
Center ____ _ ____ _ ____ _ ____ _ ____ _ ____
72
65
73
4
40
50.8
49
31.75
74
0
49
-6.35
74
0
49
6.35
74
0
49
-6.35
74
0
0
LTYPE
5
42
330
5
100
AcDbSymbolTableRecord
100
AcDbLinetypeTableRecord
2
CENTER2
70
0
3
Center (.5x) ___ _ ___ _ ___ _ ___ _ ___ _ ___
72
65
73
4
40
28.575
49
19.05
74
0
49
-3.175
74
0
49
3.175
74
0
49
-3.175
74
0
0
LTYPE
5
43
330
5
100
AcDbSymbolTableRecord
100
AcDbLinetypeTableRecord
2
CENTERX2
70
0
3
Center (2x) ________  __  ________  __  _____
72
65
73
4
40
101.6
49
63.5
74
0
49
-12.7
74
0
49
12.7
74
0
49
-12.7
74
0
0
ENDTAB
0
TABLE
2
LAYER
5
2
330
0
100
AcDbSymbolTable
70
1
0
LAYER
5
10
330
2
100
AcDbSymbolTableRecord
100
AcDbLayerTableRecord
2
0
70
0
62
7
6
CONTINUOUS
370
-3
390
F
0
LAYER
5
44
330
2
100
AcDbSymbolTableRecord
100
AcDbLayerTableRecord
2
youmu
70
0
62
7
6
CONTINUOUS
370
0
390
F
0
ENDTAB
0
TABLE
2
STYLE
5
3
330
0
100
AcDbSymbolTable
70
3
0
STYLE
5
45
330
2
100
AcDbSymbolTableRecord
100
AcDbTextStyleTableRecord
2
Standard
70
0
40
0
41
1
50
0
71
0
42
1
3
txt
4

0
ENDTAB
0
TABLE
2
VIEW
5
6
330
0
100
AcDbSymbolTable
70
0
0
ENDTAB
0
TABLE
2
UCS
5
7
330
0
100
AcDbSymbolTable
70
0
0
ENDTAB
0
TABLE
2
APPID
5
9
330
0
100
AcDbSymbolTable
70
1
0
APPID
5
12
330
9
100
AcDbSymbolTableRecord
100
AcDbRegAppTableRecord
2
ACAD
70
0
0
ENDTAB
0
TABLE
2
DIMSTYLE
5
A
330
0
100
AcDbSymbolTable
70
1
100
AcDbDimStyleTable
71
1
0
DIMSTYLE
105
46
330
A
100
AcDbSymbolTableRecord
100
AcDbDimStyleTableRecord
2
Standard
70
0
40
1
41
2.5
42
0.625
43
0.38
44
1.25
45
0
46
0
47
0
48
0
140
2.5
141
0.09
142
0
143
25.4
144
1
145
0
146
1
147
0.625
148
0
71
0
72
0
73
0
74
1
75
0
76
0
77
0
78
0
79
0
170
0
171
2
172
0
173
0
174
0
175
0
176
0
177
0
178
0
179
0
271
4
272
4
273
2
274
2
275
0
276
0
277
2
278
46
279
0
280
0
281
0
282
0
283
1
284
0
285
0
286
0
288
0
289
3
340
Standard
341

371
-2
372
-2
0
ENDTAB
0
TABLE
2
BLOCK_RECORD
5
1
330
0
100
AcDbSymbolTable
70
2
0
BLOCK_RECORD
5
1F
330
1
100
AcDbSymbolTableRecord
100
AcDbBlockTableRecord
2
*Model_Space
70
0
280
1
281
0
0
BLOCK_RECORD
5
1E
330
1
100
AcDbSymbolTableRecord
100
AcDbBlockTableRecord
2
*Paper_Space
70
0
280
1
281
0
0
ENDTAB
0
ENDSEC
0
SECTION
2
BLOCKS
0
BLOCK
5
20
330
1F
100
AcDbEntity
8
0
100
AcDbBlockBegin
2
*Model_Space
70
0
10
0
20
0
30
0
3
*Model_Space
1

0
ENDBLK
5
21
330
1F
100
AcDbEntity
8
0
100
AcDbBlockEnd
0
BLOCK
5
1C
330
1B
100
AcDbEntity
8
0
100
AcDbBlockBegin
2
*Paper_Space
70
0
10
0
20
0
30
0
3
*Paper_Space
1

0
ENDBLK
5
1D
330
1F
100
AcDbEntity
8
0
100
AcDbBlockEnd
0
ENDSEC
0
SECTION
2
ENTITIES
0
CIRCLE
5
47
100
AcDbEntity
8
0
6
ByLayer
62
256
370
-1
100
AcDbCircle
10
40
20
40
40
37.5
0
SPLINE
5
48
100
AcDbEntity
8
youmu
6
ByLayer
62
7
370
-1
100
AcDbSpline
210
0
220
0
230
1
70
8
71
3
72
8
73
4
74
0
42
1e-07
43
1e-07
40
0
40
0
40
0
40
0
40
1
40
1
40
1
40
1
10
30.7086864739
20
65.375669898
30
0
10
30.0581387059
20
65.368474554
30
0
10
29.4123879379
20
65.261209266
30
0
10
28.8017814739
20
65.056476738
30
0
0
SPLINE
5
49
100
AcDbEntity
8
youmu
6
ByLayer
62
7
370
-1
100
AcDbSpline
210
0
220
0
230
1
70
8
71
3
72
8
73
4
74
0
42
1e-07
43
1e-07
40
0
40
0
40
0
40
0
40
1
40
1
40
1
40
1
10
27.5305112659
20
64.957416738
30
0
10
26.6067622579
20
65.257787562
30
0
10
26.2269830659
20
65.288483994
30
0
10
25.4447478979
20
65.119765002
30
0
0
SPLINE
5
4A
100
AcDbEntity
8
youmu
6
ByLayer
62
7
370
-1
100
AcDbSpline
210
0
220
0
230
1
70
8
71
3
72
8
73
4
74
0
42
1e-07
43
1e-07
40
0
40
0
40
0
40
0
40
1
40
1
40
1
40
1
10
25.4447478979
20
65.119765002
30
0
10
24.6669880579
20
64.952011026
30
0
10
24.0358947379
20
64.738842642
30
0
10
24.0358947379
20
64.643726634
30
0
0
SPLINE
5
4B
100
AcDbEntity
8
youmu
6
ByLayer
62
7
370
-1
100
AcDbSpline
210
0
220
0
230
1
70
8
71
3
72
8
73
4
74
0
42
1e-07
43
1e-07
40
0
40
0
40
0
40
0
40
1
40
1
40
1
40
1
10
24.0358947379
20
64.643726634
30
0
10
24.0358947379
20
64.610351682
30
0
10
23.8528555699
20
64.500158274
30
0
10
23.6286480019
20
64.398828162
30
0
0
SPLINE
5
4C
100
AcDbEntity
8
youmu
6
ByLayer
62
7
370
-1
100
AcDbSpline
210
0
220
0
230
1
70
8
71
3
72
8
73
4
74
0
42
1e-07
43
1e-07
40
0
40
0
40
0
40
0
40
1
40
1
40
1
40
1
10
23.6286480019
20
64.398828162
30
0
10
23.1822817699
20
64.19709645
30
0
10
22.3931498419
20
63.53444121
30
0
10
22.3931498419
20
63.361450002
30
0
0
SPLINE
5
4D
100
AcDbEntity
8
youmu
6
ByLayer
62
7
370
-1
100
AcDbSpline
210
0
220
0
230
1
70
8
71
3
72
8
73
4
74
0
42
1e-07
43
1e-07
40
0
40
0
40
0
40
0
40
1
40
1
40
1
40
1
10
22.3931498419
20
63.361450002
30
0
10
22.3931498419
20
63.301658322
30
0
10
22.3664835139
20
63.241671954
30
0
10
22.3326131059
20
63.226618266
30
0
0
SPLINE
5
4E
100
AcDbEntity
8
youmu
6
ByLayer
62
7
370
-1
100
AcDbSpline
210
0
220
0
230
1
70
8
71
3
72
8
73
4
74
0
42
1e-07
43
1e-07
40
0
40
0
40
0
40
0
40
1
40
1
40
1
40
1
10
22.3326131059
20
63.226618266
30
0
10
22.2987433219
20
63.211565514
30
0
10
22.1123538979
20
63.008081298
30
0
10
21.9198630019
20
62.775344898
30
0
0
SPLINE
5
4F
100
AcDbEntity
8
youmu
6
ByLayer
62
7
370
-1
100
AcDbSpline
210
0
220
0
230
1
70
8
71
3
72
8
73
4
74
0
42
1e-07
43
1e-07
40
0
40
0
40
0
40
0
40
1
40
1
40
1
40
1
10
21.9198630019
20
62.775344898
30
0
10
21.5574759379
20
62.337188946
30
0
10
21.1631547379
20
61.550116218
30
0
10
21.1631547379
20
61.267431738
30
0
0
SPLINE
5
50
100
AcDbEntity
8
youmu
6
ByLayer
62
7
370
-1
100
AcDbSpline
210
0
220
0
230
1
70
8
71
3
72
8
73
4
74
0
42
1e-07
43
1e-07
40
0
40
0
40
0
40
0
40
1
40
1
40
1
40
1
10
21.1631547379
20
61.267431738
30
0
10
21.1631547379
20
61.178399106
30
0
10
21.1257646579
20
61.105083162
30
0
10
21.0806048419
20
61.105083162
30
0
0
SPLINE
5
51
100
AcDbEntity
8
youmu
6
ByLayer
62
7
370
-1
100
AcDbSpline
210
0
220
0
230
1
70
8
71
3
72
8
73
4
74
0
42
1e-07
43
1e-07
40
0
40
0
40
0
40
0
40
1
40
1
40
1
40
1
10
21.0806048419
20
61.105083162
30
0
10
21.0354437779
20
61.105083162
30
0
10
20.9980546339
20
60.902191746
30
0
10
20.9980546339
20
60.653810106
30
0
0
SPLINE
5
52
100
AcDbEntity
8
youmu
6
ByLayer
62
7
370
-1
100
AcDbSpline
210
0
220
0
230
1
70
8
71
3
72
8
73
4
74
0
42
1e-07
43
1e-07
40
0
40
0
40
0
40
0
40
1
40
1
40
1
40
1
10
20.9980546339
20
60.653810106
30
0
10
20.9980546339
20
60.405428154
30
0
10
21.0354437779
20
60.202536738
30
0
10
21.0806048419
20
60.202536738
30
0
0
SPLINE
5
53
100
AcDbEntity
8
youmu
6
ByLayer
62
7
370
-1
100
AcDbSpline
210
0
220
0
230
1
70
8
71
3
72
8
73
4
74
0
42
1e-07
43
1e-07
40
0
40
0
40
0
40
0
40
1
40
1
40
1
40
1
10
21.0806048419
20
60.202536738
30
0
10
21.1257646579
20
60.202536738
30
0
10
21.1631547379
20
60.128657322
30
0
10
21.1631547379
20
60.040188162
30
0
0
SPLINE
5
54
100
AcDbEntity
8
youmu
6
ByLayer
62
7
370
-1
100
AcDbSpline
210
0
220
0
230
1
70
8
71
3
72
8
73
4
74
0
42
1e-07
43
1e-07
40
0
40
0
40
0
40
0
40
1
40
1
40
1
40
1
10
21.1631547379
20
60.040188162
30
0
10
21.1631547379
20
59.951719314
30
0
10
21.3327541939
20
59.53747785
30
0
10
21.5428846339
20
59.118380106
30
0
0
SPLINE
5
55
100
AcDbEntity
8
youmu
6
ByLayer
62
7
370
-1
100
AcDbSpline
210
0
220
0
230
1
70
8
71
3
72
8
73
4
74
0
42
1e-07
43
1e-07
40
0
40
0
40
0
40
0
40
1
40
1
40
1
40
1
10
21.5428846339
20
59.118380106
30
0
10
21.8303268019
20
58.545089466
30
0
10
21.9403617139
20
58.39337073
30
0
10
21.9803997379
20
58.507510002
30
0
0
SPLINE
5
56
100
AcDbEntity
8
youmu
6
ByLayer
62
7
370
-1
100
AcDbSpline
210
0
220
0
230
1
70
8
71
3
72
8
73
4
74
0
42
1e-07
43
1e-07
40
0
40
0
40
0
40
0
40
1
40
1
40
1
40
1
10
21.9803997379
20
58.507510002
30
0
10
22.0282390099
20
58.64388957
30
0
10
22.0501089619
20
58.635344826
30
0
10
22.2197948419
20
58.422208266
30
0
0
SPLINE
5
57
100
AcDbEntity
8
youmu
6
ByLayer
62
7
370
-1
100
AcDbSpline
210
0
220
0
230
1
70
8
71
3
72
8
73
4
74
0
42
1e-07
43
1e-07
40
0
40
0
40
0
40
0
40
1
40
1
40
1
40
1
10
22.2197948419
20
58.422208266
30
0
10
22.3236103459
20
58.291807554
30
0
10
22.5873558019
20
57.815858106
30
0
10
22.8058996339
20
57.365568162
30
0
0
SPLINE
5
58
100
AcDbEntity
8
youmu
6
ByLayer
62
7
370
-1
100
AcDbSpline
210
0
220
0
230
1
70
8
71
3
72
8
73
4
74
0
42
1e-07
43
1e-07
40
0
40
0
40
0
40
0
40
1
40
1
40
1
40
1
10
22.8058996339
20
57.365568162
30
0
10
23.2028257219
20
56.547752826
30
0
10
23.2054109539
20
56.54919957
30
0
10
23.2103948419
20
56.897785002
30
0
0
SPLINE
5
59
100
AcDbEntity
8
youmu
6
ByLayer
62
7
370
-1
100
AcDbSpline
210
0
220
0
230
1
70
8
71
3
72
8
73
4
74
0
42
1e-07
43
1e-07
40
0
40
0
40
0
40
0
40
1
40
1
40
1
40
1
10
23.2103948419
20
56.897785002
30
0
10
23.2131366979
20
57.089715546
30
0
10
23.2425648499
20
57.244759266
30
0
10
23.2764346339
20
57.244495002
30
0
0
SPLINE
5
5A
100
AcDbEntity
8
youmu
6
ByLayer
62
7
370
-1
100
AcDbSpline
210
0
220
0
230
1
70
8
71
3
72
8
73
4
74
0
42
1e-07
43
1e-07
40
0
40
0
40
0
40
0
40
1
40
1
40
1
40
1
10
23.2764346339
20
57.244495002
30
0
10
23.3811705379
20
57.24380205
30
0
10
23.7656353459
20
56.894685906
30
0
10
24.0716664739
20
56.520806634
30
0
0
SPLINE
5
5B
100
AcDbEntity
8
youmu
6
ByLayer
62
7
370
-1
100
AcDbSpline
210
0
220
0
230
1
70
8
71
3
72
8
73
4
74
0
42
1e-07
43
1e-07
40
0
40
0
40
0
40
0
40
1
40
1
40
1
40
1
10
24.0716664739
20
56.520806634
30
0
10
24.4620040579
20
56.043930858
30
0
10
24.4542570979
20
55.828628082
30
0
10
24.0358947379
20
55.593494898
30
0
0
SPLINE
5
5C
100
AcDbEntity
8
youmu
6
ByLayer
62
7
370
-1
100
AcDbSpline
210
0
220
0
230
1
70
8
71
3
72
8
73
4
74
0
42
1e-07
43
1e-07
40
0
40
0
40
0
40
0
40
1
40
1
40
1
40
1
10
24.0358947379
20
55.593494898
30
0
10
23.8552532899
20
55.491968538
30
0
10
23.7084463699
20
55.361440842
30
0
10
23.7084463699
20
55.304570106
30
0
0
SPLINE
5
5D
100
AcDbEntity
8
youmu
6
ByLayer
62
7
370
-1
100
AcDbSpline
210
0
220
0
230
1
70
8
71
3
72
8
73
4
74
0
42
1e-07
43
1e-07
40
0
40
0
40
0
40
0
40
1
40
1
40
1
40
1
10
23.7084463699
20
55.304570106
30
0
10
23.7084463699
20
55.247699058
30
0
10
23.5962770659
20
55.136950602
30
0
10
23.4607963699
20
55.056920106
30
0
0
SPLINE
5
5E
100
AcDbEntity
8
youmu
6
ByLayer
62
7
370
-1
100
AcDbSpline
210
0
220
0
230
1
70
8
71
3
72
8
73
4
74
0
42
1e-07
43
1e-07
40
0
40
0
40
0
40
0
40
1
40
1
40
1
40
1
10
23.4607963699
20
55.056920106
30
0
10
23.3253147379
20
54.976889298
30
0
10
23.2158978979
20
54.88712409
30
0
10
23.2158978979
20
54.858800106
30
0
0
SPLINE
5
5F
100
AcDbEntity
8
youmu
6
ByLayer
62
7
370
-1
100
AcDbSpline
210
0
220
0
230
1
70
8
71
3
72
8
73
4
74
0
42
1e-07
43
1e-07
40
0
40
0
40
0
40
0
40
1
40
1
40
1
40
1
10
23.2158978979
20
54.858800106
30
0
10
23.2158978979
20
54.830476746
30
0
10
23.0514426979
20
54.72438489
30
0
10
22.8526781059
20
54.62215653
30
0
0
SPLINE
5
60
100
AcDbEntity
8
youmu
6
ByLayer
62
7
370
-1
100
AcDbSpline
210
0
220
0
230
1
70
8
71
3
72
8
73
4
74
0
42
1e-07
43
1e-07
40
0
40
0
40
0
40
0
40
1
40
1
40
1
40
1
10
22.8526781059
20
54.62215653
30
0
10
22.3362972019
20
54.356571834
30
0
10
21.9587254099
20
54.022923714
30
0
10
21.5126162659
20
53.441691738
30
0
0
SPLINE
5
61
100
AcDbEntity
8
youmu
6
ByLayer
62
7
370
-1
100
AcDbSpline
210
0
220
0
230
1
70
8
71
3
72
8
73
4
74
0
42
1e-07
43
1e-07
40
0
40
0
40
0
40
0
40
1
40
1
40
1
40
1
10
21.5126162659
20
53.441691738
30
0
10
21.2983140739
20
53.162480754
30
0
10
21.0200381539
20
52.85038341
30
0
10
20.8962431059
20
52.745519898
30
0
0
SPLINE
5
62
100
AcDbEntity
8
youmu
6
ByLayer
62
7
370
-1
100
AcDbSpline
210
0
220
0
230
1
70
8
71
3
72
8
73
4
74
0
42
1e-07
43
1e-07
40
0
40
0
40
0
40
0
40
1
40
1
40
1
40
1
10
20.8962431059
20
52.745519898
30
0
10
20.7724480579
20
52.640656386
30
0
10
20.6261509459
20
52.46975277
30
0
10
20.5687947379
20
52.365790002
30
0
0
SPLINE
5
63
100
AcDbEntity
8
youmu
6
ByLayer
62
7
370
-1
100
AcDbSpline
210
0
220
0
230
1
70
8
71
3
72
8
73
4
74
0
42
1e-07
43
1e-07
40
0
40
0
40
0
40
0
40
1
40
1
40
1
40
1
10
20.5687947379
20
52.365790002
30
0
10
20.5114394659
20
52.261827234
30
0
10
20.3903650579
20
52.050463146
30
0
10
20.3018831059
20
51.89800653
30
0
0
SPLINE
5
64
100
AcDbEntity
8
youmu
6
ByLayer
62
7
370
-1
100
AcDbSpline
210
0
220
0
230
1
70
8
71
3
72
8
73
4
74
0
42
1e-07
43
1e-07
40
0
40
0
40
0
40
0
40
1
40
1
40
1
40
1
10
20.3018831059
20
51.89800653
30
0
10
20.1621301939
20
51.657209922
30
0
10
20.1394484179
20
51.448800786
30
0
10
20.1285281059
20
50.307543162
30
0
0
SPLINE
5
65
100
AcDbEntity
8
youmu
6
ByLayer
62
7
370
-1
100
AcDbSpline
210
0
220
0
230
1
70
8
71
3
72
8
73
4
74
0
42
1e-07
43
1e-07
40
0
40
0
40
0
40
0
40
1
40
1
40
1
40
1
10
20.1285281059
20
50.307543162
30
0
10
20.1166717939
20
49.068482274
30
0
10
20.0328579859
20
48.417260898
30
0
10
19.8698713699
20
48.304330002
30
0
0
SPLINE
5
66
100
AcDbEntity
8
youmu
6
ByLayer
62
7
370
-1
100
AcDbSpline
210
0
220
0
230
1
70
8
71
3
72
8
73
4
74
0
42
1e-07
43
1e-07
40
0
40
0
40
0
40
0
40
1
40
1
40
1
40
1
10
19.8698713699
20
48.304330002
30
0
10
19.8305238019
20
48.277065882
30
0
10
19.7166444259
20
48.038329722
30
0
10
19.6167180019
20
47.773258266
30
0
0
SPLINE
5
67
100
AcDbEntity
8
youmu
6
ByLayer
62
7
370
-1
100
AcDbSpline
210
0
220
0
230
1
70
8
71
3
72
8
73
4
74
0
42
1e-07
43
1e-07
40
0
40
0
40
0
40
0
40
1
40
1
40
1
40
1
10
19.6167180019
20
47.773258266
30
0
10
19.5167915779
20
47.508187746
30
0
10
19.3493283859
20
47.187545034
30
0
10
19.2424914739
20
47.060576634
30
0
0
SPLINE
5
68
100
AcDbEntity
8
youmu
6
ByLayer
62
7
370
-1
100
AcDbSpline
210
0
220
0
230
1
70
8
71
3
72
8
73
4
74
0
42
1e-07
43
1e-07
40
0
40
0
40
0
40
0
40
1
40
1
40
1
40
1
10
19.2424914739
20
47.060576634
30
0
10
19.1356554979
20
46.933608858
30
0
10
18.9623160979
20
46.650822978
30
0
10
18.8572578979
20
46.433196738
30
0
0
SPLINE
5
69
100
AcDbEntity
8
youmu
6
ByLayer
62
7
370
-1
100
AcDbSpline
210
0
220
0
230
1
70
8
71
3
72
8
73
4
74
0
42
1e-07
43
1e-07
40
0
40
0
40
0
40
0
40
1
40
1
40
1
40
1
10
18.8572578979
20
46.433196738
30
0
10
18.7521990739
20
46.215570186
30
0
10
18.5999221699
20
45.964905954
30
0
10
18.5188031059
20
45.877360002
30
0
0
SPLINE
5
6A
100
AcDbEntity
8
youmu
6
ByLayer
62
7
370
-1
100
AcDbSpline
210
0
220
0
230
1
70
8
71
3
72
8
73
4
74
0
42
1e-07
43
1e-07
40
0
40
0
40
0
40
0
40
1
40
1
40
1
40
1
10
18.5188031059
20
45.877360002
30
0
10
18.4376840419
20
45.789813738
30
0
10
18.3702131059
20
45.693021978
30
0
10
18.3702131059
20
45.65997837
30
0
0
SPLINE
5
6B
100
AcDbEntity
8
youmu
6
ByLayer
62
7
370
-1
100
AcDbSpline
210
0
220
0
230
1
70
8
71
3
72
8
73
4
74
0
42
1e-07
43
1e-07
40
0
40
0
40
0
40
0
40
1
40
1
40
1
40
1
10
18.3702131059
20
45.65997837
30
0
10
18.3702131059
20
45.626935386
30
0
10
18.1648637539
20
45.170310906
30
0
10
17.9134363699
20
44.647364898
30
0
0
SPLINE
5
6C
100
AcDbEntity
8
youmu
6
ByLayer
62
7
370
-1
100
AcDbSpline
210
0
220
0
230
1
70
8
71
3
72
8
73
4
74
0
42
1e-07
43
1e-07
40
0
40
0
40
0
40
0
40
1
40
1
40
1
40
1
10
17.9134363699
20
44.647364898
30
0
10
17.4243317539
20
43.630069866
30
0
10
17.3313492019
20
43.554181794
30
0
10
16.9751178979
20
43.863140106
30
0
0
SPLINE
5
6D
100
AcDbEntity
8
youmu
6
ByLayer
62
7
370
-1
100
AcDbSpline
210
0
220
0
230
1
70
8
71
3
72
8
73
4
74
0
42
1e-07
43
1e-07
40
0
40
0
40
0
40
0
40
1
40
1
40
1
40
1
10
16.9751178979
20
43.863140106
30
0
10
16.8709772899
20
43.953460674
30
0
10
16.7445848419
20
44.02548837
30
0
10
16.6944480019
20
44.02548837
30
0
0
SPLINE
5
6E
100
AcDbEntity
8
youmu
6
ByLayer
62
7
370
-1
100
AcDbSpline
210
0
220
0
230
1
70
8
71
3
72
8
73
4
74
0
42
1e-07
43
1e-07
40
0
40
0
40
0
40
0
40
1
40
1
40
1
40
1
10
16.6944480019
20
44.02548837
30
0
10
16.5402685219
20
44.02548837
30
0
10
14.2579779139
20
45.002809962
30
0
10
14.1821762659
20
45.101390106
30
0
0
SPLINE
5
6F
100
AcDbEntity
8
youmu
6
ByLayer
62
7
370
-1
100
AcDbSpline
210
0
220
0
230
1
70
8
71
3
72
8
73
4
74
0
42
1e-07
43
1e-07
40
0
40
0
40
0
40
0
40
1
40
1
40
1
40
1
10
14.1821762659
20
45.101390106
30
0
10
14.1595958899
20
45.130754922
30
0
10
13.6229496499
20
45.40786053
30
0
10
12.9907047379
20
45.715011738
30
0
0
SPLINE
5
70
100
AcDbEntity
8
youmu
6
ByLayer
62
7
370
-1
100
AcDbSpline
210
0
220
0
230
1
70
8
71
3
72
8
73
4
74
0
42
1e-07
43
1e-07
40
0
40
0
40
0
40
0
40
1
40
1
40
1
40
1
10
12.9907047379
20
45.715011738
30
0
10
12.3584598259
20
46.02216357
30
0
10
11.7928693459
20
46.32135909
30
0
10
11.7331931059
20
46.380914898
30
0
0
SPLINE
5
71
100
AcDbEntity
8
youmu
6
ByLayer
62
7
370
-1
100
AcDbSpline
210
0
220
0
230
1
70
8
71
3
72
8
73
4
74
0
42
1e-07
43
1e-07
40
0
40
0
40
0
40
0
40
1
40
1
40
1
40
1
10
11.7331931059
20
46.380914898
30
0
10
11.4374308339
20
46.676076882
30
0
10
10.9792363699
20
46.346605818
30
0
10
10.9792363699
20
45.838836738
30
0
0
SPLINE
5
72
100
AcDbEntity
8
youmu
6
ByLayer
62
7
370
-1
100
AcDbSpline
210
0
220
0
230
1
70
8
71
3
72
8
73
4
74
0
42
1e-07
43
1e-07
40
0
40
0
40
0
40
0
40
1
40
1
40
1
40
1
10
10.9792363699
20
45.838836738
30
0
10
10.9792363699
20
45.610977522
30
0
10
11.0299594579
20
45.569329266
30
0
10
11.6974213699
20
45.255483162
30
0
0
SPLINE
5
73
100
AcDbEntity
8
youmu
6
ByLayer
62
7
370
-1
100
AcDbSpline
210
0
220
0
230
1
70
8
71
3
72
8
73
4
74
0
42
1e-07
43
1e-07
40
0
40
0
40
0
40
0
40
1
40
1
40
1
40
1
10
11.6974213699
20
45.255483162
30
0
10
12.0925740499
20
45.069679362
30
0
10
12.6025548979
20
44.839915698
30
0
10
12.8283564739
20
44.74367337
30
0
0
SPLINE
5
74
100
AcDbEntity
8
youmu
6
ByLayer
62
7
370
-1
100
AcDbSpline
210
0
220
0
230
1
70
8
71
3
72
8
73
4
74
0
42
1e-07
43
1e-07
40
0
40
0
40
0
40
0
40
1
40
1
40
1
40
1
10
12.8283564739
20
44.74367337
30
0
10
13.0541586739
20
44.647431978
30
0
10
13.2565967539
20
44.542450218
30
0
10
13.2796298419
20
44.509781634
30
0
0
SPLINE
5
75
100
AcDbEntity
8
youmu
6
ByLayer
62
7
370
-1
100
AcDbSpline
210
0
220
0
230
1
70
8
71
3
72
8
73
4
74
0
42
1e-07
43
1e-07
40
0
40
0
40
0
40
0
40
1
40
1
40
1
40
1
10
13.2796298419
20
44.509781634
30
0
10
13.3281901459
20
44.44090545
30
0
10
14.1375359299
20
44.02548837
30
0
10
14.2234513699
20
44.02548837
30
0
0
SPLINE
5
76
100
AcDbEntity
8
youmu
6
ByLayer
62
7
370
-1
100
AcDbSpline
210
0
220
0
230
1
70
8
71
3
72
8
73
4
74
0
42
1e-07
43
1e-07
40
0
40
0
40
0
40
0
40
1
40
1
40
1
40
1
10
14.2234513699
20
44.02548837
30
0
10
14.2552279459
20
44.02548837
30
0
10
14.3975873059
20
43.972087386
30
0
10
14.5398930019
20
43.907166738
30
0
0
SPLINE
5
77
100
AcDbEntity
8
youmu
6
ByLayer
62
7
370
-1
100
AcDbSpline
210
0
220
0
230
1
70
8
71
3
72
8
73
4
74
0
42
1e-07
43
1e-07
40
0
40
0
40
0
40
0
40
1
40
1
40
1
40
1
10
14.5398930019
20
43.907166738
30
0
10
14.6821996339
20
43.842245778
30
0
10
15.0388306099
20
43.692260202
30
0
10
15.3323730019
20
43.571463162
30
0
0
SPLINE
5
78
100
AcDbEntity
8
youmu
6
ByLayer
62
7
370
-1
100
AcDbSpline
210
0
220
0
230
1
70
8
71
3
72
8
73
4
74
0
42
1e-07
43
1e-07
40
0
40
0
40
0
40
0
40
1
40
1
40
1
40
1
10
15.3323730019
20
43.571463162
30
0
10
15.6259157059
20
43.45066737
30
0
10
15.8848909939
20
43.322456274
30
0
10
15.9074713699
20
43.288041738
30
0
0
SPLINE
5
79
100
AcDbEntity
8
youmu
6
ByLayer
62
7
370
-1
100
AcDbSpline
210
0
220
0
230
1
70
8
71
3
72
8
73
4
74
0
42
1e-07
43
1e-07
40
0
40
0
40
0
40
0
40
1
40
1
40
1
40
1
10
15.9074713699
20
43.288041738
30
0
10
15.9300517459
20
43.253625018
30
0
10
16.1409147619
20
43.14194181
30
0
10
16.3780063699
20
43.040391738
30
0
0
SPLINE
5
7A
100
AcDbEntity
8
youmu
6
ByLayer
62
7
370
-1
100
AcDbSpline
210
0
220
0
230
1
70
8
71
3
72
8
73
4
74
0
42
1e-07
43
1e-07
40
0
40
0
40
0
40
0
40
1
40
1
40
1
40
1
10
16.3780063699
20
43.040391738
30
0
10
16.9733288899
20
42.785405994
30
0
10
16.9584408739
20
42.632355018
30
0
10
16.2569328979
20
41.91771153
30
0
0
SPLINE
5
7B
100
AcDbEntity
8
youmu
6
ByLayer
62
7
370
-1
100
AcDbSpline
210
0
220
0
230
1
70
8
71
3
72
8
73
4
74
0
42
1e-07
43
1e-07
40
0
40
0
40
0
40
0
40
1
40
1
40
1
40
1
10
16.2569328979
20
41.91771153
30
0
10
15.9521010979
20
41.607169506
30
0
10
15.5560099219
20
41.141147274
30
0
10
15.3791514739
20
40.883084898
30
0
0
SPLINE
5
7C
100
AcDbEntity
8
youmu
6
ByLayer
62
7
370
-1
100
AcDbSpline
210
0
220
0
230
1
70
8
71
3
72
8
73
4
74
0
42
1e-07
43
1e-07
40
0
40
0
40
0
40
0
40
1
40
1
40
1
40
1
10
15.3791514739
20
40.883084898
30
0
10
15.2022936499
20
40.625023458
30
0
10
15.0329175859
20
40.412549898
30
0
10
15.0021731059
20
40.412549898
30
0
0
SPLINE
5
7D
100
AcDbEntity
8
youmu
6
ByLayer
62
7
370
-1
100
AcDbSpline
210
0
220
0
230
1
70
8
71
3
72
8
73
4
74
0
42
1e-07
43
1e-07
40
0
40
0
40
0
40
0
40
1
40
1
40
1
40
1
10
15.0021731059
20
40.412549898
30
0
10
14.9714301859
20
40.412549898
30
0
10
14.8645923379
20
40.344372906
30
0
10
14.7655298419
20
40.25845653
30
0
0
SPLINE
5
7E
100
AcDbEntity
8
youmu
6
ByLayer
62
7
370
-1
100
AcDbSpline
210
0
220
0
230
1
70
8
71
3
72
8
73
4
74
0
42
1e-07
43
1e-07
40
0
40
0
40
0
40
0
40
1
40
1
40
1
40
1
10
14.7655298419
20
40.25845653
30
0
10
14.6462684659
20
40.155021354
30
0
10
14.3588509459
20
40.071487722
30
0
10
13.9125131059
20
40.01355837
30
0
0
SPLINE
5
7F
100
AcDbEntity
8
youmu
6
ByLayer
62
7
370
-1
100
AcDbSpline
210
0
220
0
230
1
70
8
71
3
72
8
73
4
74
0
42
1e-07
43
1e-07
40
0
40
0
40
0
40
0
40
1
40
1
40
1
40
1
10
13.9125131059
20
40.01355837
30
0
10
11.5421498899
20
39.70591233
30
0
10
11.1443364739
20
39.685666962
30
0
10
11.1443364739
20
39.878726634
30
0
0
SPLINE
5
80
100
AcDbEntity
8
youmu
6
ByLayer
62
7
370
-1
100
AcDbSpline
210
0
220
0
230
1
70
8
71
3
72
8
73
4
74
0
42
1e-07
43
1e-07
40
0
40
0
40
0
40
0
40
1
40
1
40
1
40
1
10
11.1443364739
20
39.878726634
30
0
10
11.1443364739
20
40.047038778
30
0
10
11.0722030099
20
40.034221818
30
0
10
10.9104447379
20
39.834700002
30
0
0
SPLINE
5
81
100
AcDbEntity
8
youmu
6
ByLayer
62
7
370
-1
100
AcDbSpline
210
0
220
0
230
1
70
8
71
3
72
8
73
4
74
0
42
1e-07
43
1e-07
40
0
40
0
40
0
40
0
40
1
40
1
40
1
40
1
10
10.9104447379
20
39.834700002
30
0
10
10.7503410019
20
39.63721929
30
0
10
10.3683172819
20
39.570886842
30
0
10
8.27434800186
20
39.380675106
30
0
0
SPLINE
5
82
100
AcDbEntity
8
youmu
6
ByLayer
62
7
370
-1
100
AcDbSpline
210
0
220
0
230
1
70
8
71
3
72
8
73
4
74
0
42
1e-07
43
1e-07
40
0
40
0
40
0
40
0
40
1
40
1
40
1
40
1
10
8.27434800186
20
39.380675106
30
0
10
6.87664946586
20
39.253710762
30
0
10
6.54630136986
20
39.18334821
30
0
10
6.54630136986
20
39.009200106
30
0
0
SPLINE
5
83
100
AcDbEntity
8
youmu
6
ByLayer
62
7
370
-1
100
AcDbSpline
210
0
220
0
230
1
70
8
71
3
72
8
73
4
74
0
42
1e-07
43
1e-07
40
0
40
0
40
0
40
0
40
1
40
1
40
1
40
1
10
6.54630136986
20
39.009200106
30
0
10
6.54630136986
20
38.962475298
30
0
10
6.65462839386
20
38.763433338
30
0
10
6.78844800186
20
38.568933162
30
0
0
SPLINE
5
84
100
AcDbEntity
8
youmu
6
ByLayer
62
7
370
-1
100
AcDbSpline
210
0
220
0
230
1
70
8
71
3
72
8
73
4
74
0
42
1e-07
43
1e-07
40
0
40
0
40
0
40
0
40
1
40
1
40
1
40
1
10
6.78844800186
20
38.568933162
30
0
10
7.13843680986
20
38.060242122
30
0
10
7.50911901786
20
37.933485882
30
0
10
8.75038636986
20
37.886519898
30
0
0
SPLINE
5
85
100
AcDbEntity
8
youmu
6
ByLayer
62
7
370
-1
100
AcDbSpline
210
0
220
0
230
1
70
8
71
3
72
8
73
4
74
0
42
1e-07
43
1e-07
40
0
40
0
40
0
40
0
40
1
40
1
40
1
40
1
10
8.75038636986
20
37.886519898
30
0
10
9.46209144186
20
37.859592426
30
0
10
9.77346744186
20
37.81654485
30
0
10
9.80152310586
20
37.743433266
30
0
0
SPLINE
5
86
100
AcDbEntity
8
youmu
6
ByLayer
62
7
370
-1
100
AcDbSpline
210
0
220
0
230
1
70
8
71
3
72
8
73
4
74
0
42
1e-07
43
1e-07
40
0
40
0
40
0
40
0
40
1
40
1
40
1
40
1
10
9.80152310586
20
37.743433266
30
0
10
9.82932667386
20
37.670976882
30
0
10
9.90144422586
20
37.700267754
30
0
10
10.0381663699
20
37.836989898
30
0
0
SPLINE
5
87
100
AcDbEntity
8
youmu
6
ByLayer
62
7
370
-1
100
AcDbSpline
210
0
220
0
230
1
70
8
71
3
72
8
73
4
74
0
42
1e-07
43
1e-07
40
0
40
0
40
0
40
0
40
1
40
1
40
1
40
1
10
10.0381663699
20
37.836989898
30
0
10
10.1858256739
20
37.984649202
30
0
10
10.3238660179
20
38.03235837
30
0
10
10.5967546339
20
38.03235837
30
0
0
SPLINE
5
88
100
AcDbEntity
8
youmu
6
ByLayer
62
7
370
-1
100
AcDbSpline
210
0
220
0
230
1
70
8
71
3
72
8
73
4
74
0
42
1e-07
43
1e-07
40
0
40
0
40
0
40
0
40
1
40
1
40
1
40
1
10
10.5967546339
20
38.03235837
30
0
10
10.7962112419
20
38.03235837
30
0
10
11.4817416979
20
38.088550506
30
0
10
12.1211778979
20
38.158934898
30
0
0
SPLINE
5
89
100
AcDbEntity
8
youmu
6
ByLayer
62
7
370
-1
100
AcDbSpline
210
0
220
0
230
1
70
8
71
3
72
8
73
4
74
0
42
1e-07
43
1e-07
40
0
40
0
40
0
40
0
40
1
40
1
40
1
40
1
10
12.1211778979
20
38.158934898
30
0
10
12.7606150339
20
38.229319602
30
0
10
13.4225904259
20
38.27743281
30
0
10
13.5905681059
20
38.263498266
30
0
0
SPLINE
5
8A
100
AcDbEntity
8
youmu
6
ByLayer
62
7
370
-1
100
AcDbSpline
210
0
220
0
230
1
70
8
71
3
72
8
73
4
74
0
42
1e-07
43
1e-07
40
0
40
0
40
0
40
0
40
1
40
1
40
1
40
1
10
13.5905681059
20
38.263498266
30
0
10
13.8930393139
20
38.238407538
30
0
10
13.8960030019
20
38.23408041
30
0
10
13.8960030019
20
37.875513162
30
0
0
SPLINE
5
8B
100
AcDbEntity
8
youmu
6
ByLayer
62
7
370
-1
100
AcDbSpline
210
0
220
0
230
1
70
8
71
3
72
8
73
4
74
0
42
1e-07
43
1e-07
40
0
40
0
40
0
40
0
40
1
40
1
40
1
40
1
10
13.8960030019
20
37.875513162
30
0
10
13.8960030019
20
37.447889394
30
0
10
14.0231898019
20
37.361462274
30
0
10
14.1876796339
20
37.680145002
30
0
0
SPLINE
5
8C
100
AcDbEntity
8
youmu
6
ByLayer
62
7
370
-1
100
AcDbSpline
210
0
220
0
230
1
70
8
71
3
72
8
73
4
74
0
42
1e-07
43
1e-07
40
0
40
0
40
0
40
0
40
1
40
1
40
1
40
1
10
14.1876796339
20
37.680145002
30
0
10
14.4045374179
20
38.100289818
30
0
10
14.4916618579
20
38.14241169
30
0
10
14.5508997379
20
37.847996634
30
0
0
SPLINE
5
8D
100
AcDbEntity
8
youmu
6
ByLayer
62
7
370
-1
100
AcDbSpline
210
0
220
0
230
1
70
8
71
3
72
8
73
4
74
0
42
1e-07
43
1e-07
40
0
40
0
40
0
40
0
40
1
40
1
40
1
40
1
10
14.5508997379
20
37.847996634
30
0
10
14.6326159699
20
37.441855002
30
0
10
14.8292951539
20
37.05723357
30
0
10
15.0021731059
20
36.96471153
30
0
0
SPLINE
5
8E
100
AcDbEntity
8
youmu
6
ByLayer
62
7
370
-1
100
AcDbSpline
210
0
220
0
230
1
70
8
71
3
72
8
73
4
74
0
42
1e-07
43
1e-07
40
0
40
0
40
0
40
0
40
1
40
1
40
1
40
1
10
15.0021731059
20
36.96471153
30
0
10
15.2058950659
20
36.855681258
30
0
10
15.2721092659
20
36.859518858
30
0
10
15.2002931059
20
36.975718266
30
0
0
SPLINE
5
8F
100
AcDbEntity
8
youmu
6
ByLayer
62
7
370
-1
100
AcDbSpline
210
0
220
0
230
1
70
8
71
3
72
8
73
4
74
0
42
1e-07
43
1e-07
40
0
40
0
40
0
40
0
40
1
40
1
40
1
40
1
10
15.2002931059
20
36.975718266
30
0
10
15.1586298739
20
37.043133666
30
0
10
15.2113332259
20
37.053671778
30
0
10
15.3819030019
20
37.008738162
30
0
0
SPLINE
5
90
100
AcDbEntity
8
youmu
6
ByLayer
62
7
370
-1
100
AcDbSpline
210
0
220
0
230
1
70
8
71
3
72
8
73
4
74
0
42
1e-07
43
1e-07
40
0
40
0
40
0
40
0
40
1
40
1
40
1
40
1
10
15.3819030019
20
37.008738162
30
0
10
15.7878527539
20
36.90179829
30
0
10
15.8636384899
20
36.915709122
30
0
10
15.8909612659
20
37.107798162
30
0
0
SPLINE
5
91
100
AcDbEntity
8
youmu
6
ByLayer
62
7
370
-1
100
AcDbSpline
210
0
220
0
230
1
70
8
71
3
72
8
73
4
74
0
42
1e-07
43
1e-07
40
0
40
0
40
0
40
0
40
1
40
1
40
1
40
1
10
15.8909612659
20
37.107798162
30
0
10
15.9126814579
20
37.260497826
30
0
10
15.9713823859
20
37.292472522
30
0
10
16.2211614739
20
37.294911738
30
0
0
LWPOLYLINE
5
92
100
AcDbEntity
8
youmu
6
ByLayer
62
7
370
-1
100
AcDbPolyline
90
3
70
0
43
0
10
28.8017814739
20
65.056476738
10
28.0285631059
20
64.797820002
10
27.5305112659
20
64.957416738
0
SPLINE
5
93
100
AcDbEntity
8
youmu
6
ByLayer
62
7
370
-1
100
AcDbSpline
210
0
220
0
230
1
70
8
71
3
72
8
73
4
74
0
42
1e-07
43
1e-07
40
0
40
0
40
0
40
0
40
1
40
1
40
1
40
1
10
16.2954564739
20
37.48477653
30
0
10
16.1711057539
20
37.58658993
30
0
10
16.0698196339
20
37.752005154
30
0
10
16.0698196339
20
37.853500002
30
0
0
SPLINE
5
94
100
AcDbEntity
8
youmu
6
ByLayer
62
7
370
-1
100
AcDbSpline
210
0
220
0
230
1
70
8
71
3
72
8
73
4
74
0
42
1e-07
43
1e-07
40
0
40
0
40
0
40
0
40
1
40
1
40
1
40
1
10
16.0698196339
20
37.853500002
30
0
10
16.0698196339
20
38.145193482
30
0
10
16.2867557299
20
38.586454146
30
0
10
16.4523013699
20
38.632221738
30
0
0
SPLINE
5
95
100
AcDbEntity
8
youmu
6
ByLayer
62
7
370
-1
100
AcDbSpline
210
0
220
0
230
1
70
8
71
3
72
8
73
4
74
0
42
1e-07
43
1e-07
40
0
40
0
40
0
40
0
40
1
40
1
40
1
40
1
10
16.4523013699
20
38.632221738
30
0
10
17.1976462819
20
38.838281514
30
0
10
20.0349228019
20
39.305768898
30
0
10
20.3596680019
20
39.276111738
30
0
0
SPLINE
5
96
100
AcDbEntity
8
youmu
6
ByLayer
62
7
370
-1
100
AcDbSpline
210
0
220
0
230
1
70
8
71
3
72
8
73
4
74
0
42
1e-07
43
1e-07
40
0
40
0
40
0
40
0
40
1
40
1
40
1
40
1
10
20.3596680019
20
39.276111738
30
0
10
20.5143388819
20
39.261986874
30
0
10
20.5089238099
20
39.189284946
30
0
10
20.2963797379
20
38.238733266
30
0
0
SPLINE
5
97
100
AcDbEntity
8
youmu
6
ByLayer
62
7
370
-1
100
AcDbSpline
210
0
220
0
230
1
70
8
71
3
72
8
73
4
74
0
42
1e-07
43
1e-07
40
0
40
0
40
0
40
0
40
1
40
1
40
1
40
1
10
20.2963797379
20
38.238733266
30
0
10
20.2357918339
20
37.96777125
30
0
10
20.1204429379
20
37.449819426
30
0
10
20.0404748419
20
37.08853653
30
0
0
SPLINE
5
98
100
AcDbEntity
8
youmu
6
ByLayer
62
7
370
-1
100
AcDbSpline
210
0
220
0
230
1
70
8
71
3
72
8
73
4
74
0
42
1e-07
43
1e-07
40
0
40
0
40
0
40
0
40
1
40
1
40
1
40
1
10
20.0404748419
20
37.08853653
30
0
10
19.9605073699
20
36.727253946
30
0
10
19.8716853379
20
36.412193538
30
0
10
19.8423548419
20
36.389613162
30
0
0
SPLINE
5
99
100
AcDbEntity
8
youmu
6
ByLayer
62
7
370
-1
100
AcDbSpline
210
0
220
0
230
1
70
8
71
3
72
8
73
4
74
0
42
1e-07
43
1e-07
40
0
40
0
40
0
40
0
40
1
40
1
40
1
40
1
10
19.8423548419
20
36.389613162
30
0
10
19.7255404819
20
36.299682594
30
0
10
18.6976614739
20
31.88220813
30
0
10
18.6976614739
20
31.46963337
30
0
0
SPLINE
5
9A
100
AcDbEntity
8
youmu
6
ByLayer
62
7
370
-1
100
AcDbSpline
210
0
220
0
230
1
70
8
71
3
72
8
73
4
74
0
42
1e-07
43
1e-07
40
0
40
0
40
0
40
0
40
1
40
1
40
1
40
1
10
18.6976614739
20
31.46963337
30
0
10
18.6976614739
20
31.376439282
30
0
10
18.6602713939
20
31.299029898
30
0
10
18.6151112659
20
31.299029898
30
0
0
SPLINE
5
9B
100
AcDbEntity
8
youmu
6
ByLayer
62
7
370
-1
100
AcDbSpline
210
0
220
0
230
1
70
8
71
3
72
8
73
4
74
0
42
1e-07
43
1e-07
40
0
40
0
40
0
40
0
40
1
40
1
40
1
40
1
10
18.6151112659
20
31.299029898
30
0
10
18.5633308099
20
31.299029898
30
0
10
18.5353128979
20
30.738057018
30
0
10
18.5353128979
20
29.780110002
30
0
0
SPLINE
5
9C
100
AcDbEntity
8
youmu
6
ByLayer
62
7
370
-1
100
AcDbSpline
210
0
220
0
230
1
70
8
71
3
72
8
73
4
74
0
42
1e-07
43
1e-07
40
0
40
0
40
0
40
0
40
1
40
1
40
1
40
1
10
18.5353128979
20
29.780110002
30
0
10
18.5353128979
20
28.900681842
30
0
10
18.5654914099
20
28.261190106
30
0
10
18.6096078979
20
28.261190106
30
0
0
SPLINE
5
9D
100
AcDbEntity
8
youmu
6
ByLayer
62
7
370
-1
100
AcDbSpline
210
0
220
0
230
1
70
8
71
3
72
8
73
4
74
0
42
1e-07
43
1e-07
40
0
40
0
40
0
40
0
40
1
40
1
40
1
40
1
10
18.6096078979
20
28.261190106
30
0
10
18.6515188579
20
28.261190106
30
0
10
18.7107133699
20
28.04757525
30
0
10
18.7416881059
20
27.787903266
30
0
0
SPLINE
5
9E
100
AcDbEntity
8
youmu
6
ByLayer
62
7
370
-1
100
AcDbSpline
210
0
220
0
230
1
70
8
71
3
72
8
73
4
74
0
42
1e-07
43
1e-07
40
0
40
0
40
0
40
0
40
1
40
1
40
1
40
1
10
18.7416881059
20
27.787903266
30
0
10
18.7830203059
20
27.441387954
30
0
10
18.8579942179
20
27.256063698
30
0
10
19.0168546339
20
27.08622837
30
0
0
SPLINE
5
9F
100
AcDbEntity
8
youmu
6
ByLayer
62
7
370
-1
100
AcDbSpline
210
0
220
0
230
1
70
8
71
3
72
8
73
4
74
0
42
1e-07
43
1e-07
40
0
40
0
40
0
40
0
40
1
40
1
40
1
40
1
10
19.0168546339
20
27.08622837
30
0
10
19.3290143779
20
26.752501626
30
0
10
19.3071129139
20
26.111947218
30
0
10
18.9480630019
20
24.934424898
30
0
0
SPLINE
5
A0
100
AcDbEntity
8
youmu
6
ByLayer
62
7
370
-1
100
AcDbSpline
210
0
220
0
230
1
70
8
71
3
72
8
73
4
74
0
42
1e-07
43
1e-07
40
0
40
0
40
0
40
0
40
1
40
1
40
1
40
1
10
18.9480630019
20
24.934424898
30
0
10
18.7965901219
20
24.437661618
30
0
10
18.6502905139
20
24.013183746
30
0
10
18.6206146339
20
23.99060337
30
0
0
SPLINE
5
A1
100
AcDbEntity
8
youmu
6
ByLayer
62
7
370
-1
100
AcDbSpline
210
0
220
0
230
1
70
8
71
3
72
8
73
4
74
0
42
1e-07
43
1e-07
40
0
40
0
40
0
40
0
40
1
40
1
40
1
40
1
10
18.6206146339
20
23.99060337
30
0
10
18.5501896819
20
23.937017682
30
0
10
18.4011241939
20
23.223479922
30
0
10
18.2794080019
20
22.35611337
30
0
0
SPLINE
5
A2
100
AcDbEntity
8
youmu
6
ByLayer
62
7
370
-1
100
AcDbSpline
210
0
220
0
230
1
70
8
71
3
72
8
73
4
74
0
42
1e-07
43
1e-07
40
0
40
0
40
0
40
0
40
1
40
1
40
1
40
1
10
18.2794080019
20
22.35611337
30
0
10
18.2110803139
20
21.869199618
30
0
10
18.1990814179
20
20.920209186
30
0
10
18.2381328979
20
19.153173162
30
0
0
SPLINE
5
A3
100
AcDbEntity
8
youmu
6
ByLayer
62
7
370
-1
100
AcDbSpline
210
0
220
0
230
1
70
8
71
3
72
8
73
4
74
0
42
1e-07
43
1e-07
40
0
40
0
40
0
40
0
40
1
40
1
40
1
40
1
10
18.2381328979
20
19.153173162
30
0
10
18.2926801699
20
16.68501105
30
0
10
18.2892434899
20
16.638707442
30
0
10
18.1170597379
20
16.36023153
30
0
0
SPLINE
5
A4
100
AcDbEntity
8
youmu
6
ByLayer
62
7
370
-1
100
AcDbSpline
210
0
220
0
230
1
70
8
71
3
72
8
73
4
74
0
42
1e-07
43
1e-07
40
0
40
0
40
0
40
0
40
1
40
1
40
1
40
1
10
18.1170597379
20
16.36023153
30
0
10
17.9396946019
20
16.073376858
30
0
10
17.7125648419
20
15.330254322
30
0
10
17.7125648419
20
15.036680106
30
0
0
SPLINE
5
A5
100
AcDbEntity
8
youmu
6
ByLayer
62
7
370
-1
100
AcDbSpline
210
0
220
0
230
1
70
8
71
3
72
8
73
4
74
0
42
1e-07
43
1e-07
40
0
40
0
40
0
40
0
40
1
40
1
40
1
40
1
10
17.7125648419
20
15.036680106
30
0
10
17.7125648419
20
14.884479642
30
0
10
17.7797961619
20
14.87708337
30
0
10
19.0278613699
20
14.87708337
30
0
0
LWPOLYLINE
5
A6
100
AcDbEntity
8
youmu
6
ByLayer
62
7
370
-1
100
AcDbPolyline
90
3
70
0
43
0
10
16.2211614739
20
37.294911738
10
16.5238448419
20
37.300415106
10
16.2954564739
20
37.48477653
0
SPLINE
5
A7
100
AcDbEntity
8
youmu
6
ByLayer
62
7
370
-1
100
AcDbSpline
210
0
220
0
230
1
70
8
71
3
72
8
73
4
74
0
42
1e-07
43
1e-07
40
0
40
0
40
0
40
0
40
1
40
1
40
1
40
1
10
20.3404063699
20
15.32285337
30
0
10
20.3404063699
20
15.567789594
30
0
10
20.2967257459
20
15.95338041
30
0
10
20.2440978979
20
16.181373162
30
0
0
SPLINE
5
A8
100
AcDbEntity
8
youmu
6
ByLayer
62
7
370
-1
100
AcDbSpline
210
0
220
0
230
1
70
8
71
3
72
8
73
4
74
0
42
1e-07
43
1e-07
40
0
40
0
40
0
40
0
40
1
40
1
40
1
40
1
10
20.2440978979
20
16.181373162
30
0
10
20.1488499139
20
16.59401157
30
0
10
20.2416043939
20
17.322791778
30
0
10
20.4312114739
20
17.664521634
30
0
0
SPLINE
5
A9
100
AcDbEntity
8
youmu
6
ByLayer
62
7
370
-1
100
AcDbSpline
210
0
220
0
230
1
70
8
71
3
72
8
73
4
74
0
42
1e-07
43
1e-07
40
0
40
0
40
0
40
0
40
1
40
1
40
1
40
1
10
20.4312114739
20
17.664521634
30
0
10
20.5251166099
20
17.833766346
30
0
10
20.7685808179
20
19.404163122
30
0
10
21.0778530019
20
21.816786738
30
0
0
SPLINE
5
AA
100
AcDbEntity
8
youmu
6
ByLayer
62
7
370
-1
100
AcDbSpline
210
0
220
0
230
1
70
8
71
3
72
8
73
4
74
0
42
1e-07
43
1e-07
40
0
40
0
40
0
40
0
40
1
40
1
40
1
40
1
10
21.0778530019
20
21.816786738
30
0
10
21.2167906579
20
22.900635114
30
0
10
21.3455614819
20
23.84031297
30
0
10
21.3640262659
20
23.908053162
30
0
0
SPLINE
5
AB
100
AcDbEntity
8
youmu
6
ByLayer
62
7
370
-1
100
AcDbSpline
210
0
220
0
230
1
70
8
71
3
72
8
73
4
74
0
42
1e-07
43
1e-07
40
0
40
0
40
0
40
0
40
1
40
1
40
1
40
1
10
21.3640262659
20
23.908053162
30
0
10
21.3824910499
20
23.975793666
30
0
10
21.4382622979
20
24.18940821
30
0
10
21.4878512659
20
24.381340002
30
0
0
SPLINE
5
AC
100
AcDbEntity
8
youmu
6
ByLayer
62
7
370
-1
100
AcDbSpline
210
0
220
0
230
1
70
8
71
3
72
8
73
4
74
0
42
1e-07
43
1e-07
40
0
40
0
40
0
40
0
40
1
40
1
40
1
40
1
10
21.4878512659
20
24.381340002
30
0
10
21.5716738099
20
24.70576977
30
0
10
21.5970762259
20
24.73080153
30
0
10
21.8565747379
20
24.73080153
30
0
0
SPLINE
5
AD
100
AcDbEntity
8
youmu
6
ByLayer
62
7
370
-1
100
AcDbSpline
210
0
220
0
230
1
70
8
71
3
72
8
73
4
74
0
42
1e-07
43
1e-07
40
0
40
0
40
0
40
0
40
1
40
1
40
1
40
1
10
21.8565747379
20
24.73080153
30
0
10
22.0100921539
20
24.73080153
30
0
10
22.3695039859
20
24.677590242
30
0
10
22.6545581059
20
24.612479898
30
0
0
SPLINE
5
AE
100
AcDbEntity
8
youmu
6
ByLayer
62
7
370
-1
100
AcDbSpline
210
0
220
0
230
1
70
8
71
3
72
8
73
4
74
0
42
1e-07
43
1e-07
40
0
40
0
40
0
40
0
40
1
40
1
40
1
40
1
10
22.6545581059
20
24.612479898
30
0
10
22.9396131619
20
24.54736893
30
0
10
23.6631570739
20
24.46795089
30
0
10
24.2615312659
20
24.43637337
30
0
0
SPLINE
5
AF
100
AcDbEntity
8
youmu
6
ByLayer
62
7
370
-1
100
AcDbSpline
210
0
220
0
230
1
70
8
71
3
72
8
73
4
74
0
42
1e-07
43
1e-07
40
0
40
0
40
0
40
0
40
1
40
1
40
1
40
1
10
24.2615312659
20
24.43637337
30
0
10
24.8599067059
20
24.404795538
30
0
10
25.3484397379
20
24.348297954
30
0
10
25.3484397379
20
24.31254837
30
0
0
SPLINE
5
B0
100
AcDbEntity
8
youmu
6
ByLayer
62
7
370
-1
100
AcDbSpline
210
0
220
0
230
1
70
8
71
3
72
8
73
4
74
0
42
1e-07
43
1e-07
40
0
40
0
40
0
40
0
40
1
40
1
40
1
40
1
10
25.3484397379
20
24.31254837
30
0
10
25.3484397379
20
24.222552594
30
0
10
25.6834341379
20
24.119505546
30
0
10
25.8822630019
20
24.147448266
30
0
0
SPLINE
5
B1
100
AcDbEntity
8
youmu
6
ByLayer
62
7
370
-1
100
AcDbSpline
210
0
220
0
230
1
70
8
71
3
72
8
73
4
74
0
42
1e-07
43
1e-07
40
0
40
0
40
0
40
0
40
1
40
1
40
1
40
1
10
25.8822630019
20
24.147448266
30
0
10
25.9725838819
20
24.16014105
30
0
10
26.1346176499
20
24.250748034
30
0
10
26.2399797379
20
24.348320106
30
0
0
SPLINE
5
B2
100
AcDbEntity
8
youmu
6
ByLayer
62
7
370
-1
100
AcDbSpline
210
0
220
0
230
1
70
8
71
3
72
8
73
4
74
0
42
1e-07
43
1e-07
40
0
40
0
40
0
40
0
40
1
40
1
40
1
40
1
10
26.2399797379
20
24.348320106
30
0
10
26.4132236659
20
24.508761114
30
0
10
26.5094388499
20
24.523053834
30
0
10
27.2498413699
20
24.505165002
30
0
0
SPLINE
5
B3
100
AcDbEntity
8
youmu
6
ByLayer
62
7
370
-1
100
AcDbSpline
210
0
220
0
230
1
70
8
71
3
72
8
73
4
74
0
42
1e-07
43
1e-07
40
0
40
0
40
0
40
0
40
1
40
1
40
1
40
1
10
27.2498413699
20
24.505165002
30
0
10
27.8281324339
20
24.491194266
30
0
10
28.1545646179
20
24.52050729
30
0
10
28.3615148419
20
24.60697653
30
0
0
SPLINE
5
B4
100
AcDbEntity
8
youmu
6
ByLayer
62
7
370
-1
100
AcDbSpline
210
0
220
0
230
1
70
8
71
3
72
8
73
4
74
0
42
1e-07
43
1e-07
40
0
40
0
40
0
40
0
40
1
40
1
40
1
40
1
10
28.3615148419
20
24.60697653
30
0
10
28.5226566019
20
24.674306754
30
0
10
28.6813313779
20
24.73080153
30
0
10
28.7137278979
20
24.73080153
30
0
0
SPLINE
5
B5
100
AcDbEntity
8
youmu
6
ByLayer
62
7
370
-1
100
AcDbSpline
210
0
220
0
230
1
70
8
71
3
72
8
73
4
74
0
42
1e-07
43
1e-07
40
0
40
0
40
0
40
0
40
1
40
1
40
1
40
1
10
28.7137278979
20
24.73080153
30
0
10
28.8789284659
20
24.73080153
30
0
10
29.0912750419
20
23.838337074
30
0
10
29.4236580019
20
21.753498162
30
0
0
SPLINE
5
B6
100
AcDbEntity
8
youmu
6
ByLayer
62
7
370
-1
100
AcDbSpline
210
0
220
0
230
1
70
8
71
3
72
8
73
4
74
0
42
1e-07
43
1e-07
40
0
40
0
40
0
40
0
40
1
40
1
40
1
40
1
10
29.4236580019
20
21.753498162
30
0
10
29.5010567779
20
21.26802429
30
0
10
29.5950115219
20
20.87021337
30
0
10
29.6327847379
20
20.87021337
30
0
0
SPLINE
5
B7
100
AcDbEntity
8
youmu
6
ByLayer
62
7
370
-1
100
AcDbSpline
210
0
220
0
230
1
70
8
71
3
72
8
73
4
74
0
42
1e-07
43
1e-07
40
0
40
0
40
0
40
0
40
1
40
1
40
1
40
1
10
29.6327847379
20
20.87021337
30
0
10
29.6705585779
20
20.87021337
30
0
10
29.7015763699
20
20.762264178
30
0
10
29.7015763699
20
20.628066738
30
0
0
SPLINE
5
B8
100
AcDbEntity
8
youmu
6
ByLayer
62
7
370
-1
100
AcDbSpline
210
0
220
0
230
1
70
8
71
3
72
8
73
4
74
0
42
1e-07
43
1e-07
40
0
40
0
40
0
40
0
40
1
40
1
40
1
40
1
10
29.7015763699
20
20.628066738
30
0
10
29.7015763699
20
20.493868986
30
0
10
29.7555408259
20
20.114752794
30
0
10
29.8226498419
20
19.786056738
30
0
0
SPLINE
5
B9
100
AcDbEntity
8
youmu
6
ByLayer
62
7
370
-1
100
AcDbSpline
210
0
220
0
230
1
70
8
71
3
72
8
73
4
74
0
42
1e-07
43
1e-07
40
0
40
0
40
0
40
0
40
1
40
1
40
1
40
1
10
29.8226498419
20
19.786056738
30
0
10
29.8897585459
20
19.457360682
30
0
10
30.0775554019
20
18.550266858
30
0
10
30.2381514739
20
17.77183653
30
0
0
SPLINE
5
BA
100
AcDbEntity
8
youmu
6
ByLayer
62
7
370
-1
100
AcDbSpline
210
0
220
0
230
1
70
8
71
3
72
8
73
4
74
0
42
1e-07
43
1e-07
40
0
40
0
40
0
40
0
40
1
40
1
40
1
40
1
10
30.2381514739
20
17.77183653
30
0
10
30.4645293139
20
16.674552186
30
0
10
30.5082442579
20
16.318969842
30
0
10
30.4390230019
20
16.18962837
30
0
0
SPLINE
5
BB
100
AcDbEntity
8
youmu
6
ByLayer
62
7
370
-1
100
AcDbSpline
210
0
220
0
230
1
70
8
71
3
72
8
73
4
74
0
42
1e-07
43
1e-07
40
0
40
0
40
0
40
0
40
1
40
1
40
1
40
1
10
30.4390230019
20
16.18962837
30
0
10
30.3899157619
20
16.097871354
30
0
10
30.3624007939
20
15.775425282
30
0
10
30.3757347379
20
15.47144337
30
0
0
LWPOLYLINE
5
BC
100
AcDbEntity
8
youmu
6
ByLayer
62
7
370
-1
100
AcDbPolyline
90
3
70
0
43
0
10
19.0278613699
20
14.87708337
10
20.3404063699
20
14.87708337
10
20.3404063699
20
15.32285337
0
SPLINE
5
BD
100
AcDbEntity
8
youmu
6
ByLayer
62
7
370
-1
100
AcDbSpline
210
0
220
0
230
1
70
8
71
3
72
8
73
4
74
0
42
1e-07
43
1e-07
40
0
40
0
40
0
40
0
40
1
40
1
40
1
40
1
10
31.7323063699
20
14.896345002
30
0
10
33.0530588419
20
14.874012042
30
0
10
33.0668648419
20
14.874314058
30
0
10
33.0668648419
20
15.05043837
30
0
0
SPLINE
5
BE
100
AcDbEntity
8
youmu
6
ByLayer
62
7
370
-1
100
AcDbSpline
210
0
220
0
230
1
70
8
71
3
72
8
73
4
74
0
42
1e-07
43
1e-07
40
0
40
0
40
0
40
0
40
1
40
1
40
1
40
1
10
33.0668648419
20
15.05043837
30
0
10
33.0668648419
20
15.37782933
30
0
10
32.7349230499
20
16.348710618
30
0
10
32.5963298419
20
16.426271634
30
0
0
SPLINE
5
BF
100
AcDbEntity
8
youmu
6
ByLayer
62
7
370
-1
100
AcDbSpline
210
0
220
0
230
1
70
8
71
3
72
8
73
4
74
0
42
1e-07
43
1e-07
40
0
40
0
40
0
40
0
40
1
40
1
40
1
40
1
10
32.5963298419
20
16.426271634
30
0
10
32.4305648659
20
16.519037658
30
0
10
32.3445498979
20
17.66308893
30
0
10
32.3349212659
20
19.887868266
30
0
0
SPLINE
5
C0
100
AcDbEntity
8
youmu
6
ByLayer
62
7
370
-1
100
AcDbSpline
210
0
220
0
230
1
70
8
71
3
72
8
73
4
74
0
42
1e-07
43
1e-07
40
0
40
0
40
0
40
0
40
1
40
1
40
1
40
1
10
32.3349212659
20
19.887868266
30
0
10
32.3285446099
20
21.361525386
30
0
10
32.2480841779
20
22.264513914
30
0
10
32.0322378979
20
23.316445002
30
0
0
SPLINE
5
C1
100
AcDbEntity
8
youmu
6
ByLayer
62
7
370
-1
100
AcDbSpline
210
0
220
0
230
1
70
8
71
3
72
8
73
4
74
0
42
1e-07
43
1e-07
40
0
40
0
40
0
40
0
40
1
40
1
40
1
40
1
10
32.0322378979
20
23.316445002
30
0
10
31.8991128019
20
23.96523153
30
0
10
31.5685562899
20
25.005145002
30
0
10
31.3800930019
20
25.366436634
30
0
0
SPLINE
5
C2
100
AcDbEntity
8
youmu
6
ByLayer
62
7
370
-1
100
AcDbSpline
210
0
220
0
230
1
70
8
71
3
72
8
73
4
74
0
42
1e-07
43
1e-07
40
0
40
0
40
0
40
0
40
1
40
1
40
1
40
1
10
31.3800930019
20
25.366436634
30
0
10
31.3150400659
20
25.491144906
30
0
10
31.2620356339
20
25.680057786
30
0
10
31.2617713699
20
25.787441634
30
0
0
SPLINE
5
C3
100
AcDbEntity
8
youmu
6
ByLayer
62
7
370
-1
100
AcDbSpline
210
0
220
0
230
1
70
8
71
3
72
8
73
4
74
0
42
1e-07
43
1e-07
40
0
40
0
40
0
40
0
40
1
40
1
40
1
40
1
10
31.2617713699
20
25.787441634
30
0
10
31.2613002499
20
25.96929021
30
0
10
31.2832794019
20
25.979450802
30
0
10
31.5892197379
20
25.930528266
30
0
0
SPLINE
5
C4
100
AcDbEntity
8
youmu
6
ByLayer
62
7
370
-1
100
AcDbSpline
210
0
220
0
230
1
70
8
71
3
72
8
73
4
74
0
42
1e-07
43
1e-07
40
0
40
0
40
0
40
0
40
1
40
1
40
1
40
1
10
31.5892197379
20
25.930528266
30
0
10
32.0565963619
20
25.855792098
30
0
10
32.9996519299
20
26.084425386
30
0
10
33.2759912659
20
26.34052653
30
0
0
SPLINE
5
C5
100
AcDbEntity
8
youmu
6
ByLayer
62
7
370
-1
100
AcDbSpline
210
0
220
0
230
1
70
8
71
3
72
8
73
4
74
0
42
1e-07
43
1e-07
40
0
40
0
40
0
40
0
40
1
40
1
40
1
40
1
10
33.2759912659
20
26.34052653
30
0
10
33.3978360019
20
26.453448066
30
0
10
33.6507797059
20
26.641958778
30
0
10
33.8373313699
20
26.758780002
30
0
0
SPLINE
5
C6
100
AcDbEntity
8
youmu
6
ByLayer
62
7
370
-1
100
AcDbSpline
210
0
220
0
230
1
70
8
71
3
72
8
73
4
74
0
42
1e-07
43
1e-07
40
0
40
0
40
0
40
0
40
1
40
1
40
1
40
1
10
33.8373313699
20
26.758780002
30
0
10
34.0238830339
20
26.875602162
30
0
10
34.1944808899
20
26.996794194
30
0
10
34.2170612659
20
27.028443162
30
0
0
SPLINE
5
C7
100
AcDbEntity
8
youmu
6
ByLayer
62
7
370
-1
100
AcDbSpline
210
0
220
0
230
1
70
8
71
3
72
8
73
4
74
0
42
1e-07
43
1e-07
40
0
40
0
40
0
40
0
40
1
40
1
40
1
40
1
10
34.2170612659
20
27.028443162
30
0
10
34.3084264099
20
27.156501066
30
0
10
34.6315476499
20
27.276093162
30
0
10
34.8912196339
20
27.276093162
30
0
0
SPLINE
5
C8
100
AcDbEntity
8
youmu
6
ByLayer
62
7
370
-1
100
AcDbSpline
210
0
220
0
230
1
70
8
71
3
72
8
73
4
74
0
42
1e-07
43
1e-07
40
0
40
0
40
0
40
0
40
1
40
1
40
1
40
1
10
34.8912196339
20
27.276093162
30
0
10
35.0973084259
20
27.276093162
30
0
10
35.2590448579
20
27.358686426
30
0
10
35.5296062659
20
27.60354153
30
0
0
SPLINE
5
C9
100
AcDbEntity
8
youmu
6
ByLayer
62
7
370
-1
100
AcDbSpline
210
0
220
0
230
1
70
8
71
3
72
8
73
4
74
0
42
1e-07
43
1e-07
40
0
40
0
40
0
40
0
40
1
40
1
40
1
40
1
10
35.5296062659
20
27.60354153
30
0
10
35.7285646099
20
27.783595794
30
0
10
36.0239861779
20
27.972270306
30
0
10
36.1845030019
20
28.02454653
30
0
0
SPLINE
5
CA
100
AcDbEntity
8
youmu
6
ByLayer
62
7
370
-1
100
AcDbSpline
210
0
220
0
230
1
70
8
71
3
72
8
73
4
74
0
42
1e-07
43
1e-07
40
0
40
0
40
0
40
0
40
1
40
1
40
1
40
1
10
36.1845030019
20
28.02454653
30
0
10
36.6864791779
20
28.188024546
30
0
10
37.8299997379
20
29.105015634
30
0
10
37.8299997379
20
29.342594898
30
0
0
SPLINE
5
CB
100
AcDbEntity
8
youmu
6
ByLayer
62
7
370
-1
100
AcDbSpline
210
0
220
0
230
1
70
8
71
3
72
8
73
4
74
0
42
1e-07
43
1e-07
40
0
40
0
40
0
40
0
40
1
40
1
40
1
40
1
10
37.8299997379
20
29.342594898
30
0
10
37.8299997379
20
29.505903186
30
0
10
38.4908656579
20
30.071878986
30
0
10
38.7380498419
20
30.121316634
30
0
0
SPLINE
5
CC
100
AcDbEntity
8
youmu
6
ByLayer
62
7
370
-1
100
AcDbSpline
210
0
220
0
230
1
70
8
71
3
72
8
73
4
74
0
42
1e-07
43
1e-07
40
0
40
0
40
0
40
0
40
1
40
1
40
1
40
1
10
38.7380498419
20
30.121316634
30
0
10
39.0732598339
20
30.18835857
30
0
10
39.6611296099
20
30.78653745
30
0
10
39.6048248419
20
31.001849898
30
0
0
SPLINE
5
CD
100
AcDbEntity
8
youmu
6
ByLayer
62
7
370
-1
100
AcDbSpline
210
0
220
0
230
1
70
8
71
3
72
8
73
4
74
0
42
1e-07
43
1e-07
40
0
40
0
40
0
40
0
40
1
40
1
40
1
40
1
10
39.6048248419
20
31.001849898
30
0
10
39.5547363619
20
31.193386074
30
0
10
39.7876253299
20
31.626478266
30
0
10
39.9405281059
20
31.626478266
30
0
0
SPLINE
5
CE
100
AcDbEntity
8
youmu
6
ByLayer
62
7
370
-1
100
AcDbSpline
210
0
220
0
230
1
70
8
71
3
72
8
73
4
74
0
42
1e-07
43
1e-07
40
0
40
0
40
0
40
0
40
1
40
1
40
1
40
1
10
39.9405281059
20
31.626478266
30
0
10
39.9985304659
20
31.626478266
30
0
10
40.0478430019
20
31.663868346
30
0
10
40.0478430019
20
31.709028162
30
0
0
SPLINE
5
CF
100
AcDbEntity
8
youmu
6
ByLayer
62
7
370
-1
100
AcDbSpline
210
0
220
0
230
1
70
8
71
3
72
8
73
4
74
0
42
1e-07
43
1e-07
40
0
40
0
40
0
40
0
40
1
40
1
40
1
40
1
10
40.0478430019
20
31.709028162
30
0
10
40.0478430019
20
31.754189226
30
0
10
40.0993551379
20
31.79157837
30
0
10
40.1634131059
20
31.79157837
30
0
0
SPLINE
5
D0
100
AcDbEntity
8
youmu
6
ByLayer
62
7
370
-1
100
AcDbSpline
210
0
220
0
230
1
70
8
71
3
72
8
73
4
74
0
42
1e-07
43
1e-07
40
0
40
0
40
0
40
0
40
1
40
1
40
1
40
1
10
40.1634131059
20
31.79157837
30
0
10
40.3373640259
20
31.79157837
30
0
10
40.6054203859
20
32.28173505
30
0
10
40.7082431059
20
32.784929898
30
0
0
SPLINE
5
D1
100
AcDbEntity
8
youmu
6
ByLayer
62
7
370
-1
100
AcDbSpline
210
0
220
0
230
1
70
8
71
3
72
8
73
4
74
0
42
1e-07
43
1e-07
40
0
40
0
40
0
40
0
40
1
40
1
40
1
40
1
10
40.7082431059
20
32.784929898
30
0
10
40.9510783219
20
33.973335714
30
0
10
41.0489935939
20
34.29383397
30
0
10
41.2007912659
20
34.400158266
30
0
0
SPLINE
5
D2
100
AcDbEntity
8
youmu
6
ByLayer
62
7
370
-1
100
AcDbSpline
210
0
220
0
230
1
70
8
71
3
72
8
73
4
74
0
42
1e-07
43
1e-07
40
0
40
0
40
0
40
0
40
1
40
1
40
1
40
1
10
41.2007912659
20
34.400158266
30
0
10
41.2883543779
20
34.461489042
30
0
10
41.3603880019
20
34.58143557
30
0
10
41.3603880019
20
34.667069898
30
0
0
SPLINE
5
D3
100
AcDbEntity
8
youmu
6
ByLayer
62
7
370
-1
100
AcDbSpline
210
0
220
0
230
1
70
8
71
3
72
8
73
4
74
0
42
1e-07
43
1e-07
40
0
40
0
40
0
40
0
40
1
40
1
40
1
40
1
10
41.3603880019
20
34.667069898
30
0
10
41.3603880019
20
34.866215754
30
0
10
41.1917704099
20
35.239416738
30
0
10
41.1017312659
20
35.239416738
30
0
0
SPLINE
5
D4
100
AcDbEntity
8
youmu
6
ByLayer
62
7
370
-1
100
AcDbSpline
210
0
220
0
230
1
70
8
71
3
72
8
73
4
74
0
42
1e-07
43
1e-07
40
0
40
0
40
0
40
0
40
1
40
1
40
1
40
1
10
41.1017312659
20
35.239416738
30
0
10
41.0638201459
20
35.239416738
30
0
10
41.0329396339
20
35.304982914
30
0
10
41.0329396339
20
35.385254898
30
0
0
SPLINE
5
D5
100
AcDbEntity
8
youmu
6
ByLayer
62
7
370
-1
100
AcDbSpline
210
0
220
0
230
1
70
8
71
3
72
8
73
4
74
0
42
1e-07
43
1e-07
40
0
40
0
40
0
40
0
40
1
40
1
40
1
40
1
10
41.0329396339
20
35.385254898
30
0
10
41.0329396339
20
35.465527818
30
0
10
40.9733760259
20
35.61742689
30
0
10
40.9008597379
20
35.720958162
30
0
0
SPLINE
5
D6
100
AcDbEntity
8
youmu
6
ByLayer
62
7
370
-1
100
AcDbSpline
210
0
220
0
230
1
70
8
71
3
72
8
73
4
74
0
42
1e-07
43
1e-07
40
0
40
0
40
0
40
0
40
1
40
1
40
1
40
1
10
40.9008597379
20
35.720958162
30
0
10
40.7866175059
20
35.88406209
30
0
10
40.7224178899
20
35.90230941
30
0
10
40.4275728979
20
35.855789898
30
0
0
SPLINE
5
D7
100
AcDbEntity
8
youmu
6
ByLayer
62
7
370
-1
100
AcDbSpline
210
0
220
0
230
1
70
8
71
3
72
8
73
4
74
0
42
1e-07
43
1e-07
40
0
40
0
40
0
40
0
40
1
40
1
40
1
40
1
10
40.4275728979
20
35.855789898
30
0
10
40.2404184499
20
35.826262218
30
0
10
39.9472791619
20
35.761975242
30
0
10
39.7754280019
20
35.712703266
30
0
0
SPLINE
5
D8
100
AcDbEntity
8
youmu
6
ByLayer
62
7
370
-1
100
AcDbSpline
210
0
220
0
230
1
70
8
71
3
72
8
73
4
74
0
42
1e-07
43
1e-07
40
0
40
0
40
0
40
0
40
1
40
1
40
1
40
1
10
39.7754280019
20
35.712703266
30
0
10
39.4723087699
20
35.62579473
30
0
10
38.9325250579
20
35.697638346
30
0
10
38.4463728979
20
35.891561634
30
0
0
SPLINE
5
D9
100
AcDbEntity
8
youmu
6
ByLayer
62
7
370
-1
100
AcDbSpline
210
0
220
0
230
1
70
8
71
3
72
8
73
4
74
0
42
1e-07
43
1e-07
40
0
40
0
40
0
40
0
40
1
40
1
40
1
40
1
10
38.4463728979
20
35.891561634
30
0
10
38.3560523299
20
35.927589522
30
0
10
37.8567952339
20
36.075969858
30
0
10
37.3374512659
20
36.22176153
30
0
0
SPLINE
5
DA
100
AcDbEntity
8
youmu
6
ByLayer
62
7
370
-1
100
AcDbSpline
210
0
220
0
230
1
70
8
71
3
72
8
73
4
74
0
42
1e-07
43
1e-07
40
0
40
0
40
0
40
0
40
1
40
1
40
1
40
1
10
37.3374512659
20
36.22176153
30
0
10
36.8181076099
20
36.367553202
30
0
10
36.3749350099
20
36.514917666
30
0
10
36.3523546339
20
36.549209898
30
0
0
SPLINE
5
DB
100
AcDbEntity
8
youmu
6
ByLayer
62
7
370
-1
100
AcDbSpline
210
0
220
0
230
1
70
8
71
3
72
8
73
4
74
0
42
1e-07
43
1e-07
40
0
40
0
40
0
40
0
40
1
40
1
40
1
40
1
10
36.3523546339
20
36.549209898
30
0
10
36.3297742579
20
36.583502442
30
0
10
36.1642729219
20
36.658025514
30
0
10
35.9836314739
20
36.714310002
30
0
0
SPLINE
5
DC
100
AcDbEntity
8
youmu
6
ByLayer
62
7
370
-1
100
AcDbSpline
210
0
220
0
230
1
70
8
71
3
72
8
73
4
74
0
42
1e-07
43
1e-07
40
0
40
0
40
0
40
0
40
1
40
1
40
1
40
1
10
35.9836314739
20
36.714310002
30
0
10
35.8029900259
20
36.77059449
30
0
10
35.3037329299
20
36.939286962
30
0
10
34.8747098419
20
37.08853653
30
0
0
SPLINE
5
DD
100
AcDbEntity
8
youmu
6
ByLayer
62
7
370
-1
100
AcDbSpline
210
0
220
0
230
1
70
8
71
3
72
8
73
4
74
0
42
1e-07
43
1e-07
40
0
40
0
40
0
40
0
40
1
40
1
40
1
40
1
10
34.8747098419
20
37.08853653
30
0
10
34.4456864419
20
37.237786098
30
0
10
33.8851063699
20
37.417850658
30
0
10
33.6282046339
20
37.490279898
30
0
0
SPLINE
5
DE
100
AcDbEntity
8
youmu
6
ByLayer
62
7
370
-1
100
AcDbSpline
210
0
220
0
230
1
70
8
71
3
72
8
73
4
74
0
42
1e-07
43
1e-07
40
0
40
0
40
0
40
0
40
1
40
1
40
1
40
1
10
33.6282046339
20
37.490279898
30
0
10
33.3713019619
20
37.562708202
30
0
10
33.1093804579
20
37.67339925
30
0
10
33.0476028979
20
37.73517837
30
0
0
SPLINE
5
DF
100
AcDbEntity
8
youmu
6
ByLayer
62
7
370
-1
100
AcDbSpline
210
0
220
0
230
1
70
8
71
3
72
8
73
4
74
0
42
1e-07
43
1e-07
40
0
40
0
40
0
40
0
40
1
40
1
40
1
40
1
10
33.0476028979
20
37.73517837
30
0
10
32.9858256499
20
37.796955618
30
0
10
32.8068661939
20
37.875097578
30
0
10
32.6513628979
20
37.90853337
30
0
0
SPLINE
5
E0
100
AcDbEntity
8
youmu
6
ByLayer
62
7
370
-1
100
AcDbSpline
210
0
220
0
230
1
70
8
71
3
72
8
73
4
74
0
42
1e-07
43
1e-07
40
0
40
0
40
0
40
0
40
1
40
1
40
1
40
1
10
32.6513628979
20
37.90853337
30
0
10
32.4958608499
20
37.94196729
30
0
10
32.2881543379
20
38.011523946
30
0
10
32.1890831059
20
38.062626738
30
0
0
SPLINE
5
E1
100
AcDbEntity
8
youmu
6
ByLayer
62
7
370
-1
100
AcDbSpline
210
0
220
0
230
1
70
8
71
3
72
8
73
4
74
0
42
1e-07
43
1e-07
40
0
40
0
40
0
40
0
40
1
40
1
40
1
40
1
10
32.1890831059
20
38.062626738
30
0
10
31.9550821699
20
38.183326746
30
0
10
31.1792214739
20
38.927569362
30
0
10
31.1792214739
20
39.031213266
30
0
0
SPLINE
5
E2
100
AcDbEntity
8
youmu
6
ByLayer
62
7
370
-1
100
AcDbSpline
210
0
220
0
230
1
70
8
71
3
72
8
73
4
74
0
42
1e-07
43
1e-07
40
0
40
0
40
0
40
0
40
1
40
1
40
1
40
1
10
31.1792214739
20
39.031213266
30
0
10
31.1792214739
20
39.075148482
30
0
10
31.0702458019
20
39.269668002
30
0
10
30.9370748419
20
39.463225002
30
0
0
SPLINE
5
E3
100
AcDbEntity
8
youmu
6
ByLayer
62
7
370
-1
100
AcDbSpline
210
0
220
0
230
1
70
8
71
3
72
8
73
4
74
0
42
1e-07
43
1e-07
40
0
40
0
40
0
40
0
40
1
40
1
40
1
40
1
10
30.9370748419
20
39.463225002
30
0
10
30.8039029459
20
39.656782938
30
0
10
30.6018660979
20
40.024249674
30
0
10
30.4885530019
20
40.280470002
30
0
0
SPLINE
5
E4
100
AcDbEntity
8
youmu
6
ByLayer
62
7
370
-1
100
AcDbSpline
210
0
220
0
230
1
70
8
71
3
72
8
73
4
74
0
42
1e-07
43
1e-07
40
0
40
0
40
0
40
0
40
1
40
1
40
1
40
1
10
30.4885530019
20
40.280470002
30
0
10
30.3752408419
20
40.53669033
30
0
10
30.2252399779
20
40.802440386
30
0
10
30.1556012659
20
40.872078162
30
0
0
SPLINE
5
E5
100
AcDbEntity
8
youmu
6
ByLayer
62
7
370
-1
100
AcDbSpline
210
0
220
0
230
1
70
8
71
3
72
8
73
4
74
0
42
1e-07
43
1e-07
40
0
40
0
40
0
40
0
40
1
40
1
40
1
40
1
10
30.1556012659
20
40.872078162
30
0
10
29.9733352339
20
41.05434513
30
0
10
30.0012773299
20
41.22751605
30
0
10
30.2243928979
20
41.312345106
30
0
0
SPLINE
5
E6
100
AcDbEntity
8
youmu
6
ByLayer
62
7
370
-1
100
AcDbSpline
210
0
220
0
230
1
70
8
71
3
72
8
73
4
74
0
42
1e-07
43
1e-07
40
0
40
0
40
0
40
0
40
1
40
1
40
1
40
1
10
30.2243928979
20
41.312345106
30
0
10
30.3309543139
20
41.352859242
30
0
10
31.2252704899
20
41.541184002
30
0
10
32.2138481059
20
41.730598266
30
0
0
SPLINE
5
E7
100
AcDbEntity
8
youmu
6
ByLayer
62
7
370
-1
100
AcDbSpline
210
0
220
0
230
1
70
8
71
3
72
8
73
4
74
0
42
1e-07
43
1e-07
40
0
40
0
40
0
40
0
40
1
40
1
40
1
40
1
10
32.2138481059
20
41.730598266
30
0
10
33.2024263459
20
41.92001409
30
0
10
34.0293810979
20
42.10127829
30
0
10
34.0519614739
20
42.135093162
30
0
0
SPLINE
5
E8
100
AcDbEntity
8
youmu
6
ByLayer
62
7
370
-1
100
AcDbSpline
210
0
220
0
230
1
70
8
71
3
72
8
73
4
74
0
42
1e-07
43
1e-07
40
0
40
0
40
0
40
0
40
1
40
1
40
1
40
1
10
34.0519614739
20
42.135093162
30
0
10
34.0745418499
20
42.168908346
30
0
10
34.3335171379
20
42.235854498
30
0
10
34.6270598419
20
42.280931634
30
0
0
SPLINE
5
E9
100
AcDbEntity
8
youmu
6
ByLayer
62
7
370
-1
100
AcDbSpline
210
0
220
0
230
1
70
8
71
3
72
8
73
4
74
0
42
1e-07
43
1e-07
40
0
40
0
40
0
40
0
40
1
40
1
40
1
40
1
10
34.6270598419
20
42.280931634
30
0
10
35.5928761219
20
42.429246762
30
0
10
36.9653572579
20
42.732390642
30
0
10
37.0787948419
20
42.823010106
30
0
0
SPLINE
5
EA
100
AcDbEntity
8
youmu
6
ByLayer
62
7
370
-1
100
AcDbSpline
210
0
220
0
230
1
70
8
71
3
72
8
73
4
74
0
42
1e-07
43
1e-07
40
0
40
0
40
0
40
0
40
1
40
1
40
1
40
1
10
37.0787948419
20
42.823010106
30
0
10
37.1898609139
20
42.911736042
30
0
10
37.1887317859
20
42.989743218
30
0
10
37.0430231059
20
43.942938162
30
0
0
SPLINE
5
EB
100
AcDbEntity
8
youmu
6
ByLayer
62
7
370
-1
100
AcDbSpline
210
0
220
0
230
1
70
8
71
3
72
8
73
4
74
0
42
1e-07
43
1e-07
40
0
40
0
40
0
40
0
40
1
40
1
40
1
40
1
10
37.0430231059
20
43.942938162
30
0
10
36.9660177619
20
44.446686186
30
0
10
36.7146387379
20
44.79560889
30
0
10
36.4844348419
20
44.721659898
30
0
0
SPLINE
5
EC
100
AcDbEntity
8
youmu
6
ByLayer
62
7
370
-1
100
AcDbSpline
210
0
220
0
230
1
70
8
71
3
72
8
73
4
74
0
42
1e-07
43
1e-07
40
0
40
0
40
0
40
0
40
1
40
1
40
1
40
1
10
36.4844348419
20
44.721659898
30
0
10
36.2670310579
20
44.651824002
30
0
10
34.4792358019
20
44.234606058
30
0
10
33.6006881059
20
44.04750153
30
0
0
SPLINE
5
ED
100
AcDbEntity
8
youmu
6
ByLayer
62
7
370
-1
100
AcDbSpline
210
0
220
0
230
1
70
8
71
3
72
8
73
4
74
0
42
1e-07
43
1e-07
40
0
40
0
40
0
40
0
40
1
40
1
40
1
40
1
10
33.6006881059
20
44.04750153
30
0
10
33.2394052099
20
43.970559834
30
0
10
32.9270966419
20
43.883773602
30
0
10
32.9045162659
20
43.854884898
30
0
0
SPLINE
5
EE
100
AcDbEntity
8
youmu
6
ByLayer
62
7
370
-1
100
AcDbSpline
210
0
220
0
230
1
70
8
71
3
72
8
73
4
74
0
42
1e-07
43
1e-07
40
0
40
0
40
0
40
0
40
1
40
1
40
1
40
1
10
32.9045162659
20
43.854884898
30
0
10
32.8630898419
20
43.801882962
30
0
10
30.8060881939
20
43.348492986
30
0
10
29.7428514739
20
43.15871337
30
0
0
SPLINE
5
EF
100
AcDbEntity
8
youmu
6
ByLayer
62
7
370
-1
100
AcDbSpline
210
0
220
0
230
1
70
8
71
3
72
8
73
4
74
0
42
1e-07
43
1e-07
40
0
40
0
40
0
40
0
40
1
40
1
40
1
40
1
10
29.7428514739
20
43.15871337
30
0
10
29.1940687459
20
43.060759098
30
0
10
29.1594479779
20
43.066139226
30
0
10
29.0026530019
20
43.23300837
30
0
0
SPLINE
5
F0
100
AcDbEntity
8
youmu
6
ByLayer
62
7
370
-1
100
AcDbSpline
210
0
220
0
230
1
70
8
71
3
72
8
73
4
74
0
42
1e-07
43
1e-07
40
0
40
0
40
0
40
0
40
1
40
1
40
1
40
1
10
29.0026530019
20
43.23300837
30
0
10
28.8780046339
20
43.365665778
30
0
10
28.8403047379
20
43.518209442
30
0
10
28.8403047379
20
43.87414653
30
0
0
SPLINE
5
F1
100
AcDbEntity
8
youmu
6
ByLayer
62
7
370
-1
100
AcDbSpline
210
0
220
0
230
1
70
8
71
3
72
8
73
4
74
0
42
1e-07
43
1e-07
40
0
40
0
40
0
40
0
40
1
40
1
40
1
40
1
10
28.8403047379
20
43.87414653
30
0
10
28.8403047379
20
44.303914674
30
0
10
28.8621394339
20
44.36645289
30
0
10
29.1182231059
20
44.59508337
30
0
0
SPLINE
5
F2
100
AcDbEntity
8
youmu
6
ByLayer
62
7
370
-1
100
AcDbSpline
210
0
220
0
230
1
70
8
71
3
72
8
73
4
74
0
42
1e-07
43
1e-07
40
0
40
0
40
0
40
0
40
1
40
1
40
1
40
1
10
29.1182231059
20
44.59508337
30
0
10
29.3943618259
20
44.84161953
30
0
10
29.3985735139
20
44.852389146
30
0
10
29.4181546339
20
45.604945002
30
0
0
SPLINE
5
F3
100
AcDbEntity
8
youmu
6
ByLayer
62
7
370
-1
100
AcDbSpline
210
0
220
0
230
1
70
8
71
3
72
8
73
4
74
0
42
1e-07
43
1e-07
40
0
40
0
40
0
40
0
40
1
40
1
40
1
40
1
10
29.4181546339
20
45.604945002
30
0
10
29.4290521699
20
46.023769746
30
0
10
29.5343736979
20
46.950439386
30
0
10
29.6520463699
20
47.66319153
30
0
0
SPLINE
5
F4
100
AcDbEntity
8
youmu
6
ByLayer
62
7
370
-1
100
AcDbSpline
210
0
220
0
230
1
70
8
71
3
72
8
73
4
74
0
42
1e-07
43
1e-07
40
0
40
0
40
0
40
0
40
1
40
1
40
1
40
1
10
29.6520463699
20
47.66319153
30
0
10
29.7697190419
20
48.37594461
30
0
10
29.8666764739
20
49.174177266
30
0
10
29.8666764739
20
49.438016634
30
0
0
SPLINE
5
F5
100
AcDbEntity
8
youmu
6
ByLayer
62
7
370
-1
100
AcDbSpline
210
0
220
0
230
1
70
8
71
3
72
8
73
4
74
0
42
1e-07
43
1e-07
40
0
40
0
40
0
40
0
40
1
40
1
40
1
40
1
10
29.8666764739
20
49.438016634
30
0
10
29.8666764739
20
50.043853554
30
0
10
29.9403206419
20
50.431544442
30
0
10
30.0592931059
20
50.431368162
30
0
0
SPLINE
5
F6
100
AcDbEntity
8
youmu
6
ByLayer
62
7
370
-1
100
AcDbSpline
210
0
220
0
230
1
70
8
71
3
72
8
73
4
74
0
42
1e-07
43
1e-07
40
0
40
0
40
0
40
0
40
1
40
1
40
1
40
1
10
30.0592931059
20
50.431368162
30
0
10
30.1391089459
20
50.431252098
30
0
10
30.5511448819
20
50.017535106
30
0
10
30.8104980019
20
49.677411738
30
0
0
SPLINE
5
F7
100
AcDbEntity
8
youmu
6
ByLayer
62
7
370
-1
100
AcDbSpline
210
0
220
0
230
1
70
8
71
3
72
8
73
4
74
0
42
1e-07
43
1e-07
40
0
40
0
40
0
40
0
40
1
40
1
40
1
40
1
10
30.8104980019
20
49.677411738
30
0
10
30.8563052179
20
49.617339882
30
0
10
30.9376030579
20
49.362300474
30
0
10
30.9893563699
20
49.110568266
30
0
0
SPLINE
5
F8
100
AcDbEntity
8
youmu
6
ByLayer
62
7
370
-1
100
AcDbSpline
210
0
220
0
230
1
70
8
71
3
72
8
73
4
74
0
42
1e-07
43
1e-07
40
0
40
0
40
0
40
0
40
1
40
1
40
1
40
1
10
30.9893563699
20
49.110568266
30
0
10
31.1418048739
20
48.36906501
30
0
10
31.7308393459
20
47.200024098
30
0
10
32.2276063699
20
46.658833266
30
0
0
SPLINE
5
F9
100
AcDbEntity
8
youmu
6
ByLayer
62
7
370
-1
100
AcDbSpline
210
0
220
0
230
1
70
8
71
3
72
8
73
4
74
0
42
1e-07
43
1e-07
40
0
40
0
40
0
40
0
40
1
40
1
40
1
40
1
10
32.2276063699
20
46.658833266
30
0
10
32.3758475539
20
46.497334578
30
0
10
32.6285104579
20
46.172999034
30
0
10
32.7861946339
20
45.937896738
30
0
0
SPLINE
5
FA
100
AcDbEntity
8
youmu
6
ByLayer
62
7
370
-1
100
AcDbSpline
210
0
220
0
230
1
70
8
71
3
72
8
73
4
74
0
42
1e-07
43
1e-07
40
0
40
0
40
0
40
0
40
1
40
1
40
1
40
1
10
32.7861946339
20
45.937896738
30
0
10
33.0555261379
20
45.53633121
30
0
10
33.2160208099
20
45.36796353
30
0
10
33.2649848419
20
45.43434153
30
0
0
SPLINE
5
FB
100
AcDbEntity
8
youmu
6
ByLayer
62
7
370
-1
100
AcDbSpline
210
0
220
0
230
1
70
8
71
3
72
8
73
4
74
0
42
1e-07
43
1e-07
40
0
40
0
40
0
40
0
40
1
40
1
40
1
40
1
10
33.2649848419
20
45.43434153
30
0
10
33.3267321379
20
45.518050506
30
0
10
33.1500917779
20
46.691424474
30
0
10
32.9980728979
20
47.206415106
30
0
0
SPLINE
5
FC
100
AcDbEntity
8
youmu
6
ByLayer
62
7
370
-1
100
AcDbSpline
210
0
220
0
230
1
70
8
71
3
72
8
73
4
74
0
42
1e-07
43
1e-07
40
0
40
0
40
0
40
0
40
1
40
1
40
1
40
1
10
32.9980728979
20
47.206415106
30
0
10
32.8023983539
20
47.86929717
30
0
10
32.7873349939
20
48.03416109
30
0
10
32.9072681059
20
48.213524898
30
0
0
SPLINE
5
FD
100
AcDbEntity
8
youmu
6
ByLayer
62
7
370
-1
100
AcDbSpline
210
0
220
0
230
1
70
8
71
3
72
8
73
4
74
0
42
1e-07
43
1e-07
40
0
40
0
40
0
40
0
40
1
40
1
40
1
40
1
10
32.9072681059
20
48.213524898
30
0
10
32.9790948739
20
48.320944626
30
0
10
32.9985062659
20
48.319586178
30
0
10
33.0723678979
20
48.194263266
30
0
0
SPLINE
5
FE
100
AcDbEntity
8
youmu
6
ByLayer
62
7
370
-1
100
AcDbSpline
210
0
220
0
230
1
70
8
71
3
72
8
73
4
74
0
42
1e-07
43
1e-07
40
0
40
0
40
0
40
0
40
1
40
1
40
1
40
1
10
33.0723678979
20
48.194263266
30
0
10
33.1189457539
20
48.115231794
30
0
10
33.2053276339
20
48.048425106
30
0
10
33.2622330019
20
48.048425106
30
0
0
SPLINE
5
FF
100
AcDbEntity
8
youmu
6
ByLayer
62
7
370
-1
100
AcDbSpline
210
0
220
0
230
1
70
8
71
3
72
8
73
4
74
0
42
1e-07
43
1e-07
40
0
40
0
40
0
40
0
40
1
40
1
40
1
40
1
10
33.2622330019
20
48.048425106
30
0
10
33.3956672899
20
48.048425106
30
0
10
34.0640140339
20
47.491823034
30
0
10
35.0095412659
20
46.590041634
30
0
0
SPLINE
5
100
100
AcDbEntity
8
youmu
6
ByLayer
62
7
370
-1
100
AcDbSpline
210
0
220
0
230
1
70
8
71
3
72
8
73
4
74
0
42
1e-07
43
1e-07
40
0
40
0
40
0
40
0
40
1
40
1
40
1
40
1
10
35.0095412659
20
46.590041634
30
0
10
35.4222280339
20
46.196447706
30
0
10
35.8093158259
20
45.833249754
30
0
10
35.8708128979
20
45.78380337
30
0
0
SPLINE
5
101
100
AcDbEntity
8
youmu
6
ByLayer
62
7
370
-1
100
AcDbSpline
210
0
220
0
230
1
70
8
71
3
72
8
73
4
74
0
42
1e-07
43
1e-07
40
0
40
0
40
0
40
0
40
1
40
1
40
1
40
1
10
35.8708128979
20
45.78380337
30
0
10
35.9323093459
20
45.73435605
30
0
10
36.1552782739
20
45.512769906
30
0
10
36.3661128979
20
45.291254898
30
0
0
SPLINE
5
102
100
AcDbEntity
8
youmu
6
ByLayer
62
7
370
-1
100
AcDbSpline
210
0
220
0
230
1
70
8
71
3
72
8
73
4
74
0
42
1e-07
43
1e-07
40
0
40
0
40
0
40
0
40
1
40
1
40
1
40
1
10
36.3661128979
20
45.291254898
30
0
10
36.5769478339
20
45.069739266
30
0
10
36.9958923859
20
44.667925386
30
0
10
37.2989280019
20
44.39696337
30
0
0
SPLINE
5
103
100
AcDbEntity
8
youmu
6
ByLayer
62
7
370
-1
100
AcDbSpline
210
0
220
0
230
1
70
8
71
3
72
8
73
4
74
0
42
1e-07
43
1e-07
40
0
40
0
40
0
40
0
40
1
40
1
40
1
40
1
10
37.2989280019
20
44.39696337
30
0
10
38.4167669059
20
43.397438298
30
0
10
38.8976462659
20
42.867564954
30
0
10
38.8976462659
20
42.63589653
30
0
0
SPLINE
5
104
100
AcDbEntity
8
youmu
6
ByLayer
62
7
370
-1
100
AcDbSpline
210
0
220
0
230
1
70
8
71
3
72
8
73
4
74
0
42
1e-07
43
1e-07
40
0
40
0
40
0
40
0
40
1
40
1
40
1
40
1
10
38.8976462659
20
42.63589653
30
0
10
38.8976462659
20
42.369310626
30
0
10
39.0333487939
20
42.220394898
30
0
10
39.2746246339
20
42.220394898
30
0
0
SPLINE
5
105
100
AcDbEntity
8
youmu
6
ByLayer
62
7
370
-1
100
AcDbSpline
210
0
220
0
230
1
70
8
71
3
72
8
73
4
74
0
42
1e-07
43
1e-07
40
0
40
0
40
0
40
0
40
1
40
1
40
1
40
1
10
39.2746246339
20
42.220394898
30
0
10
39.4916524579
20
42.220394898
30
0
10
39.5756790499
20
42.03914505
30
0
10
39.4782480019
20
41.782880106
30
0
0
SPLINE
5
106
100
AcDbEntity
8
youmu
6
ByLayer
62
7
370
-1
100
AcDbSpline
210
0
220
0
230
1
70
8
71
3
72
8
73
4
74
0
42
1e-07
43
1e-07
40
0
40
0
40
0
40
0
40
1
40
1
40
1
40
1
10
39.4782480019
20
41.782880106
30
0
10
39.3893529619
20
41.549067618
30
0
10
39.5072508979
20
41.317848162
30
0
10
39.7148912659
20
41.317848162
30
0
0
SPLINE
5
107
100
AcDbEntity
8
youmu
6
ByLayer
62
7
370
-1
100
AcDbSpline
210
0
220
0
230
1
70
8
71
3
72
8
73
4
74
0
42
1e-07
43
1e-07
40
0
40
0
40
0
40
0
40
1
40
1
40
1
40
1
10
39.7148912659
20
41.317848162
30
0
10
39.7989531139
20
41.317848162
30
0
10
39.9613587859
20
41.205679794
30
0
10
40.0753598419
20
41.070198162
30
0
0
SPLINE
5
108
100
AcDbEntity
8
youmu
6
ByLayer
62
7
370
-1
100
AcDbSpline
210
0
220
0
230
1
70
8
71
3
72
8
73
4
74
0
42
1e-07
43
1e-07
40
0
40
0
40
0
40
0
40
1
40
1
40
1
40
1
10
40.0753598419
20
41.070198162
30
0
10
40.2724942339
20
40.835916426
30
0
10
40.6229413699
20
40.730074794
30
0
10
40.6229413699
20
40.90509837
30
0
0
SPLINE
5
109
100
AcDbEntity
8
youmu
6
ByLayer
62
7
370
-1
100
AcDbSpline
210
0
220
0
230
1
70
8
71
3
72
8
73
4
74
0
42
1e-07
43
1e-07
40
0
40
0
40
0
40
0
40
1
40
1
40
1
40
1
10
40.6229413699
20
40.90509837
30
0
10
40.6229413699
20
40.950259122
30
0
10
40.6949690659
20
40.987648266
30
0
10
40.7852896339
20
40.987648266
30
0
0
SPLINE
5
10A
100
AcDbEntity
8
youmu
6
ByLayer
62
7
370
-1
100
AcDbSpline
210
0
220
0
230
1
70
8
71
3
72
8
73
4
74
0
42
1e-07
43
1e-07
40
0
40
0
40
0
40
0
40
1
40
1
40
1
40
1
10
40.7852896339
20
40.987648266
30
0
10
40.9208926339
20
40.987648266
30
0
10
40.9503897379
20
40.933344978
30
0
10
40.9503897379
20
40.673958162
30
0
0
SPLINE
5
10B
100
AcDbEntity
8
youmu
6
ByLayer
62
7
370
-1
100
AcDbSpline
210
0
220
0
230
1
70
8
71
3
72
8
73
4
74
0
42
1e-07
43
1e-07
40
0
40
0
40
0
40
0
40
1
40
1
40
1
40
1
10
40.9503897379
20
40.673958162
30
0
10
40.9503897379
20
40.44468777
30
0
10
41.0062779859
20
40.306274898
30
0
10
41.1567646339
20
40.164899898
30
0
0
LWPOLYLINE
5
10C
100
AcDbEntity
8
youmu
6
ByLayer
62
7
370
-1
100
AcDbPolyline
90
3
70
0
43
0
10
30.3757347379
20
15.47144337
10
30.4004997379
20
14.918358162
10
31.7323063699
20
14.896345002
0
SPLINE
5
10D
100
AcDbEntity
8
youmu
6
ByLayer
62
7
370
-1
100
AcDbSpline
210
0
220
0
230
1
70
8
71
3
72
8
73
4
74
0
42
1e-07
43
1e-07
40
0
40
0
40
0
40
0
40
1
40
1
40
1
40
1
10
41.7346148419
20
40.23369153
30
0
10
41.9386562899
20
40.377513546
30
0
10
42.1461840259
20
40.495100106
30
0
10
42.1968946339
20
40.495100106
30
0
0
SPLINE
5
10E
100
AcDbEntity
8
youmu
6
ByLayer
62
7
370
-1
100
AcDbSpline
210
0
220
0
230
1
70
8
71
3
72
8
73
4
74
0
42
1e-07
43
1e-07
40
0
40
0
40
0
40
0
40
1
40
1
40
1
40
1
10
42.1968946339
20
40.495100106
30
0
10
42.3073382659
20
40.495100106
30
0
10
42.9282120259
20
40.053188298
30
0
10
43.2755478979
20
39.727385106
30
0
0
SPLINE
5
10F
100
AcDbEntity
8
youmu
6
ByLayer
62
7
370
-1
100
AcDbSpline
210
0
220
0
230
1
70
8
71
3
72
8
73
4
74
0
42
1e-07
43
1e-07
40
0
40
0
40
0
40
0
40
1
40
1
40
1
40
1
10
43.2755478979
20
39.727385106
30
0
10
43.4124207379
20
39.598997106
30
0
10
43.7715224419
20
39.296946786
30
0
10
44.0735312659
20
39.055978266
30
0
0
SPLINE
5
110
100
AcDbEntity
8
youmu
6
ByLayer
62
7
370
-1
100
AcDbSpline
210
0
220
0
230
1
70
8
71
3
72
8
73
4
74
0
42
1e-07
43
1e-07
40
0
40
0
40
0
40
0
40
1
40
1
40
1
40
1
10
44.0735312659
20
39.055978266
30
0
10
44.3755400899
20
38.815010682
30
0
10
44.6833280899
20
38.556249114
30
0
10
44.7586963699
20
38.480879898
30
0
0
SPLINE
5
111
100
AcDbEntity
8
youmu
6
ByLayer
62
7
370
-1
100
AcDbSpline
210
0
220
0
230
1
70
8
71
3
72
8
73
4
74
0
42
1e-07
43
1e-07
40
0
40
0
40
0
40
0
40
1
40
1
40
1
40
1
10
44.7586963699
20
38.480879898
30
0
10
45.0530181379
20
38.18655813
30
0
10
46.0611444259
20
37.374710106
30
0
10
46.1317781059
20
37.374710106
30
0
0
SPLINE
5
112
100
AcDbEntity
8
youmu
6
ByLayer
62
7
370
-1
100
AcDbSpline
210
0
220
0
230
1
70
8
71
3
72
8
73
4
74
0
42
1e-07
43
1e-07
40
0
40
0
40
0
40
0
40
1
40
1
40
1
40
1
10
46.1317781059
20
37.374710106
30
0
10
46.1728444819
20
37.374710106
30
0
10
46.2075831859
20
37.329348426
30
0
10
46.2088246339
20
37.272898266
30
0
0
SPLINE
5
113
100
AcDbEntity
8
youmu
6
ByLayer
62
7
370
-1
100
AcDbSpline
210
0
220
0
230
1
70
8
71
3
72
8
73
4
74
0
42
1e-07
43
1e-07
40
0
40
0
40
0
40
0
40
1
40
1
40
1
40
1
10
46.2088246339
20
37.272898266
30
0
10
46.2100679539
20
37.21644717
30
0
10
46.3443536899
20
37.077612786
30
0
10
46.5087564739
20
36.96471153
30
0
0
SPLINE
5
114
100
AcDbEntity
8
youmu
6
ByLayer
62
7
370
-1
100
AcDbSpline
210
0
220
0
230
1
70
8
71
3
72
8
73
4
74
0
42
1e-07
43
1e-07
40
0
40
0
40
0
40
0
40
1
40
1
40
1
40
1
10
46.5087564739
20
36.96471153
30
0
10
46.6731589459
20
36.851810586
30
0
10
47.0249330179
20
36.547473618
30
0
10
47.2902297379
20
36.287801634
30
0
0
SPLINE
5
115
100
AcDbEntity
8
youmu
6
ByLayer
62
7
370
-1
100
AcDbSpline
210
0
220
0
230
1
70
8
71
3
72
8
73
4
74
0
42
1e-07
43
1e-07
40
0
40
0
40
0
40
0
40
1
40
1
40
1
40
1
10
47.2902297379
20
36.287801634
30
0
10
47.5555255219
20
36.028128714
30
0
10
47.7943992739
20
35.814515106
30
0
10
47.8213014739
20
35.814515106
30
0
0
SPLINE
5
116
100
AcDbEntity
8
youmu
6
ByLayer
62
7
370
-1
100
AcDbSpline
210
0
220
0
230
1
70
8
71
3
72
8
73
4
74
0
42
1e-07
43
1e-07
40
0
40
0
40
0
40
0
40
1
40
1
40
1
40
1
10
47.8213014739
20
35.814515106
30
0
10
47.8482018019
20
35.814515106
30
0
10
48.0253014259
20
35.675679474
30
0
10
48.2147896339
20
35.50632837
30
0
0
SPLINE
5
117
100
AcDbEntity
8
youmu
6
ByLayer
62
7
370
-1
100
AcDbSpline
210
0
220
0
230
1
70
8
71
3
72
8
73
4
74
0
42
1e-07
43
1e-07
40
0
40
0
40
0
40
0
40
1
40
1
40
1
40
1
10
48.2147896339
20
35.50632837
30
0
10
48.4042797139
20
35.33697633
30
0
10
48.6851549059
20
35.09364597
30
0
10
48.8394180019
20
34.964249898
30
0
0
SPLINE
5
118
100
AcDbEntity
8
youmu
6
ByLayer
62
7
370
-1
100
AcDbSpline
210
0
220
0
230
1
70
8
71
3
72
8
73
4
74
0
42
1e-07
43
1e-07
40
0
40
0
40
0
40
0
40
1
40
1
40
1
40
1
10
48.8394180019
20
34.964249898
30
0
10
48.9936829699
20
34.834851954
30
0
10
49.3833163699
20
34.493125842
30
0
10
49.7061930019
20
34.204790106
30
0
0
SPLINE
5
119
100
AcDbEntity
8
youmu
6
ByLayer
62
7
370
-1
100
AcDbSpline
210
0
220
0
230
1
70
8
71
3
72
8
73
4
74
0
42
1e-07
43
1e-07
40
0
40
0
40
0
40
0
40
1
40
1
40
1
40
1
10
49.7061930019
20
34.204790106
30
0
10
50.0290696339
20
33.916453122
30
0
10
50.3095847779
20
33.679221738
30
0
10
50.3280698419
20
33.679221738
30
0
0
SPLINE
5
11A
100
AcDbEntity
8
youmu
6
ByLayer
62
7
370
-1
100
AcDbSpline
210
0
220
0
230
1
70
8
71
3
72
8
73
4
74
0
42
1e-07
43
1e-07
40
0
40
0
40
0
40
0
40
1
40
1
40
1
40
1
10
50.3280698419
20
33.679221738
30
0
10
50.3465545939
20
33.679221738
30
0
10
50.6172211459
20
33.440864658
30
0
10
50.9306847379
20
33.148150002
30
0
0
SPLINE
5
11B
100
AcDbEntity
8
youmu
6
ByLayer
62
7
370
-1
100
AcDbSpline
210
0
220
0
230
1
70
8
71
3
72
8
73
4
74
0
42
1e-07
43
1e-07
40
0
40
0
40
0
40
0
40
1
40
1
40
1
40
1
10
50.9306847379
20
33.148150002
30
0
10
51.2441483299
20
32.855435034
30
0
10
51.5263311139
20
32.615119218
30
0
10
51.5580646339
20
32.614326738
30
0
0
SPLINE
5
11C
100
AcDbEntity
8
youmu
6
ByLayer
62
7
370
-1
100
AcDbSpline
210
0
220
0
230
1
70
8
71
3
72
8
73
4
74
0
42
1e-07
43
1e-07
40
0
40
0
40
0
40
0
40
1
40
1
40
1
40
1
10
51.5580646339
20
32.614326738
30
0
10
51.5897972179
20
32.613499002
30
0
10
51.8674681699
20
32.37310269
30
0
10
52.1744381059
20
32.080503162
30
0
0
SPLINE
5
11D
100
AcDbEntity
8
youmu
6
ByLayer
62
7
370
-1
100
AcDbSpline
210
0
220
0
230
1
70
8
71
3
72
8
73
4
74
0
42
1e-07
43
1e-07
40
0
40
0
40
0
40
0
40
1
40
1
40
1
40
1
10
52.1744381059
20
32.080503162
30
0
10
52.4814067939
20
31.78790301
30
0
10
52.7775618739
20
31.547622138
30
0
10
52.8320863699
20
31.546679898
30
0
0
SPLINE
5
11E
100
AcDbEntity
8
youmu
6
ByLayer
62
7
370
-1
100
AcDbSpline
210
0
220
0
230
1
70
8
71
3
72
8
73
4
74
0
42
1e-07
43
1e-07
40
0
40
0
40
0
40
0
40
1
40
1
40
1
40
1
10
52.8320863699
20
31.546679898
30
0
10
52.8866114899
20
31.545737658
30
0
10
53.0310631219
20
31.420121778
30
0
10
53.1540313699
20
31.266010002
30
0
0
SPLINE
5
11F
100
AcDbEntity
8
youmu
6
ByLayer
62
7
370
-1
100
AcDbSpline
210
0
220
0
230
1
70
8
71
3
72
8
73
4
74
0
42
1e-07
43
1e-07
40
0
40
0
40
0
40
0
40
1
40
1
40
1
40
1
10
53.1540313699
20
31.266010002
30
0
10
53.2769996179
20
31.111899162
30
0
10
53.5606678339
20
30.842200434
30
0
10
53.7841631059
20
30.668898162
30
0
0
SPLINE
5
120
100
AcDbEntity
8
youmu
6
ByLayer
62
7
370
-1
100
AcDbSpline
210
0
220
0
230
1
70
8
71
3
72
8
73
4
74
0
42
1e-07
43
1e-07
40
0
40
0
40
0
40
0
40
1
40
1
40
1
40
1
10
53.7841631059
20
30.668898162
30
0
10
54.0076583779
20
30.495597762
30
0
10
54.3250746979
20
30.224344338
30
0
10
54.4885898419
20
30.066283266
30
0
0
SPLINE
5
121
100
AcDbEntity
8
youmu
6
ByLayer
62
7
370
-1
100
AcDbSpline
210
0
220
0
230
1
70
8
71
3
72
8
73
4
74
0
42
1e-07
43
1e-07
40
0
40
0
40
0
40
0
40
1
40
1
40
1
40
1
10
54.4885898419
20
30.066283266
30
0
10
54.6521056099
20
29.908222194
30
0
10
55.0543191619
20
29.56155369
30
0
10
55.3828813699
20
29.295816738
30
0
0
SPLINE
5
122
100
AcDbEntity
8
youmu
6
ByLayer
62
7
370
-1
100
AcDbSpline
210
0
220
0
230
1
70
8
71
3
72
8
73
4
74
0
42
1e-07
43
1e-07
40
0
40
0
40
0
40
0
40
1
40
1
40
1
40
1
10
55.3828813699
20
29.295816738
30
0
10
55.7114435779
20
29.030079474
30
0
10
56.0078089459
20
28.769971938
30
0
10
56.0405296339
20
28.715215002
30
0
0
SPLINE
5
123
100
AcDbEntity
8
youmu
6
ByLayer
62
7
370
-1
100
AcDbSpline
210
0
220
0
230
1
70
8
71
3
72
8
73
4
74
0
42
1e-07
43
1e-07
40
0
40
0
40
0
40
0
40
1
40
1
40
1
40
1
10
56.0405296339
20
28.715215002
30
0
10
56.0732503219
20
28.660458066
30
0
10
56.2852624339
20
28.474891074
30
0
10
56.5110646339
20
28.305216738
30
0
0
SPLINE
5
124
100
AcDbEntity
8
youmu
6
ByLayer
62
7
370
-1
100
AcDbSpline
210
0
220
0
230
1
70
8
71
3
72
8
73
4
74
0
42
1e-07
43
1e-07
40
0
40
0
40
0
40
0
40
1
40
1
40
1
40
1
10
56.5110646339
20
28.305216738
30
0
10
56.7368658979
20
28.13554053
30
0
10
57.0491754019
20
27.880261506
30
0
10
57.2072364739
20
27.735621738
30
0
0
SPLINE
5
125
100
AcDbEntity
8
youmu
6
ByLayer
62
7
370
-1
100
AcDbSpline
210
0
220
0
230
1
70
8
71
3
72
8
73
4
74
0
42
1e-07
43
1e-07
40
0
40
0
40
0
40
0
40
1
40
1
40
1
40
1
10
57.2072364739
20
27.735621738
30
0
10
58.3061675539
20
26.72999457
30
0
10
58.7309280979
20
26.373546738
30
0
10
58.8252163699
20
26.373546738
30
0
0
SPLINE
5
126
100
AcDbEntity
8
youmu
6
ByLayer
62
7
370
-1
100
AcDbSpline
210
0
220
0
230
1
70
8
71
3
72
8
73
4
74
0
42
1e-07
43
1e-07
40
0
40
0
40
0
40
0
40
1
40
1
40
1
40
1
10
58.8252163699
20
26.373546738
30
0
10
58.8846542419
20
26.373546738
30
0
10
58.9325312659
20
26.336424354
30
0
10
58.9325312659
20
26.29374837
30
0
0
SPLINE
5
127
100
AcDbEntity
8
youmu
6
ByLayer
62
7
370
-1
100
AcDbSpline
210
0
220
0
230
1
70
8
71
3
72
8
73
4
74
0
42
1e-07
43
1e-07
40
0
40
0
40
0
40
0
40
1
40
1
40
1
40
1
10
58.9325312659
20
26.29374837
30
0
10
58.9325312659
20
26.182592442
30
0
10
59.6556773779
20
25.512725634
30
0
10
60.0166878979
20
25.289390106
30
0
0
SPLINE
5
128
100
AcDbEntity
8
youmu
6
ByLayer
62
7
370
-1
100
AcDbSpline
210
0
220
0
230
1
70
8
71
3
72
8
73
4
74
0
42
1e-07
43
1e-07
40
0
40
0
40
0
40
0
40
1
40
1
40
1
40
1
10
60.0166878979
20
25.289390106
30
0
10
60.1848250099
20
25.185374298
30
0
10
60.3236597059
20
25.06093653
30
0
10
60.3248746339
20
25.014223266
30
0
0
SPLINE
5
129
100
AcDbEntity
8
youmu
6
ByLayer
62
7
370
-1
100
AcDbSpline
210
0
220
0
230
1
70
8
71
3
72
8
73
4
74
0
42
1e-07
43
1e-07
40
0
40
0
40
0
40
0
40
1
40
1
40
1
40
1
10
60.3248746339
20
25.014223266
30
0
10
60.3260898739
20
24.967509378
30
0
10
60.4290726499
20
24.86925309
30
0
10
60.5532630019
20
24.794090106
30
0
0
SPLINE
5
12A
100
AcDbEntity
8
youmu
6
ByLayer
62
7
370
-1
100
AcDbSpline
210
0
220
0
230
1
70
8
71
3
72
8
73
4
74
0
42
1e-07
43
1e-07
40
0
40
0
40
0
40
0
40
1
40
1
40
1
40
1
10
60.5532630019
20
24.794090106
30
0
10
60.6774542899
20
24.718927746
30
0
10
61.0261894819
20
24.423760458
30
0
10
61.3264813699
20
24.13919337
30
0
0
SPLINE
5
12B
100
AcDbEntity
8
youmu
6
ByLayer
62
7
370
-1
100
AcDbSpline
210
0
220
0
230
1
70
8
71
3
72
8
73
4
74
0
42
1e-07
43
1e-07
40
0
40
0
40
0
40
0
40
1
40
1
40
1
40
1
10
61.3264813699
20
24.13919337
30
0
10
62.0792122579
20
23.425879314
30
0
10
62.4013238659
20
23.145810018
30
0
10
62.6775496339
20
22.969735002
30
0
0
SPLINE
5
12C
100
AcDbEntity
8
youmu
6
ByLayer
62
7
370
-1
100
AcDbSpline
210
0
220
0
230
1
70
8
71
3
72
8
73
4
74
0
42
1e-07
43
1e-07
40
0
40
0
40
0
40
0
40
1
40
1
40
1
40
1
10
62.6775496339
20
22.969735002
30
0
10
62.8075647139
20
22.886859066
30
0
10
63.0737244259
20
22.639078026
30
0
10
63.2691581059
20
22.419401634
30
0
0
SPLINE
5
12D
100
AcDbEntity
8
youmu
6
ByLayer
62
7
370
-1
100
AcDbSpline
210
0
220
0
230
1
70
8
71
3
72
8
73
4
74
0
42
1e-07
43
1e-07
40
0
40
0
40
0
40
0
40
1
40
1
40
1
40
1
10
63.2691581059
20
22.419401634
30
0
10
63.4645914739
20
22.199724306
30
0
10
63.6674832019
20
22.018785522
30
0
10
63.7204314739
20
22.017658266
30
0
0
SPLINE
5
12E
100
AcDbEntity
8
youmu
6
ByLayer
62
7
370
-1
100
AcDbSpline
210
0
220
0
230
1
70
8
71
3
72
8
73
4
74
0
42
1e-07
43
1e-07
40
0
40
0
40
0
40
0
40
1
40
1
40
1
40
1
10
63.7204314739
20
22.017658266
30
0
10
63.8331564499
20
22.015253682
30
0
10
64.5156630019
20
21.389625042
30
0
10
64.5156630019
20
21.28846653
30
0
0
SPLINE
5
12F
100
AcDbEntity
8
youmu
6
ByLayer
62
7
370
-1
100
AcDbSpline
210
0
220
0
230
1
70
8
71
3
72
8
73
4
74
0
42
1e-07
43
1e-07
40
0
40
0
40
0
40
0
40
1
40
1
40
1
40
1
10
64.5156630019
20
21.28846653
30
0
10
64.5156630019
20
21.250578186
30
0
10
64.6267696339
20
21.167483226
30
0
10
64.7633130019
20
21.101353266
30
0
0
SPLINE
5
130
100
AcDbEntity
8
youmu
6
ByLayer
62
7
370
-1
100
AcDbSpline
210
0
220
0
230
1
70
8
71
3
72
8
73
4
74
0
42
1e-07
43
1e-07
40
0
40
0
40
0
40
0
40
1
40
1
40
1
40
1
10
64.7633130019
20
21.101353266
30
0
10
64.8998563699
20
21.035222682
30
0
10
65.2591599379
20
20.744214978
30
0
10
65.5612963699
20
20.454711738
30
0
0
SPLINE
5
131
100
AcDbEntity
8
youmu
6
ByLayer
62
7
370
-1
100
AcDbSpline
210
0
220
0
230
1
70
8
71
3
72
8
73
4
74
0
42
1e-07
43
1e-07
40
0
40
0
40
0
40
0
40
1
40
1
40
1
40
1
10
65.5612963699
20
20.454711738
30
0
10
65.8634328019
20
20.165208186
30
0
10
66.2595548659
20
19.821371394
30
0
10
66.4418296339
20
19.692500106
30
0
0
SPLINE
5
132
100
AcDbEntity
8
youmu
6
ByLayer
62
7
370
-1
100
AcDbSpline
210
0
220
0
230
1
70
8
71
3
72
8
73
4
74
0
42
1e-07
43
1e-07
40
0
40
0
40
0
40
0
40
1
40
1
40
1
40
1
10
66.4418296339
20
19.692500106
30
0
10
66.6241044019
20
19.563628506
30
0
10
66.9028935619
20
19.333854234
30
0
10
67.0609546339
20
19.180690002
30
0
0
SPLINE
5
133
100
AcDbEntity
8
youmu
6
ByLayer
62
7
370
-1
100
AcDbSpline
210
0
220
0
230
1
70
8
71
3
72
8
73
4
74
0
42
1e-07
43
1e-07
40
0
40
0
40
0
40
0
40
1
40
1
40
1
40
1
10
67.0609546339
20
19.180690002
30
0
10
67.4604113539
20
18.793609386
30
0
10
68.4491084659
20
18.052719834
30
0
10
68.7339678979
20
17.928681738
30
0
0
LWPOLYLINE
5
134
100
AcDbEntity
8
youmu
6
ByLayer
62
7
370
-1
100
AcDbPolyline
90
3
70
0
43
0
10
41.1567646339
20
40.164899898
10
41.3631398419
20
39.972283266
10
41.7346148419
20
40.23369153
0
SPLINE
5
135
100
AcDbEntity
8
youmu
6
ByLayer
62
7
370
-1
100
AcDbSpline
210
0
220
0
230
1
70
8
71
3
72
8
73
4
74
0
42
1e-07
43
1e-07
40
0
40
0
40
0
40
0
40
1
40
1
40
1
40
1
10
68.9183296339
20
18.088278162
30
0
10
68.8798927939
20
18.280464234
30
0
10
68.5857223459
20
18.630048378
30
0
10
67.8039046339
20
19.40632653
30
0
0
SPLINE
5
136
100
AcDbEntity
8
youmu
6
ByLayer
62
7
370
-1
100
AcDbSpline
210
0
220
0
230
1
70
8
71
3
72
8
73
4
74
0
42
1e-07
43
1e-07
40
0
40
0
40
0
40
0
40
1
40
1
40
1
40
1
10
67.8039046339
20
19.40632653
30
0
10
67.2191723299
20
19.986918594
30
0
10
66.7117739059
20
20.46014085
30
0
10
66.6757213699
20
20.460215106
30
0
0
SPLINE
5
137
100
AcDbEntity
8
youmu
6
ByLayer
62
7
370
-1
100
AcDbSpline
210
0
220
0
230
1
70
8
71
3
72
8
73
4
74
0
42
1e-07
43
1e-07
40
0
40
0
40
0
40
0
40
1
40
1
40
1
40
1
10
66.6757213699
20
20.460215106
30
0
10
66.6396707059
20
20.460289674
30
0
10
66.4737403699
20
20.60494473
30
0
10
66.3069978979
20
20.782160106
30
0
0
SPLINE
5
138
100
AcDbEntity
8
youmu
6
ByLayer
62
7
370
-1
100
AcDbSpline
210
0
220
0
230
1
70
8
71
3
72
8
73
4
74
0
42
1e-07
43
1e-07
40
0
40
0
40
0
40
0
40
1
40
1
40
1
40
1
10
66.3069978979
20
20.782160106
30
0
10
66.1402566739
20
20.95937517
30
0
10
65.7957665539
20
21.257869002
30
0
10
65.5420347379
20
21.445311738
30
0
0
SPLINE
5
139
100
AcDbEntity
8
youmu
6
ByLayer
62
7
370
-1
100
AcDbSpline
210
0
220
0
230
1
70
8
71
3
72
8
73
4
74
0
42
1e-07
43
1e-07
40
0
40
0
40
0
40
0
40
1
40
1
40
1
40
1
10
65.5420347379
20
21.445311738
30
0
10
65.2883019859
20
21.632754162
30
0
10
65.0597410819
20
21.83951157
30
0
10
65.0357280019
20
21.902088162
30
0
0
SPLINE
5
13A
100
AcDbEntity
8
youmu
6
ByLayer
62
7
370
-1
100
AcDbSpline
210
0
220
0
230
1
70
8
71
3
72
8
73
4
74
0
42
1e-07
43
1e-07
40
0
40
0
40
0
40
0
40
1
40
1
40
1
40
1
10
65.0357280019
20
21.902088162
30
0
10
65.0117158579
20
21.964663506
30
0
10
64.7288357539
20
22.22461005
30
0
10
64.4055962659
20
22.482689898
30
0
0
SPLINE
5
13B
100
AcDbEntity
8
youmu
6
ByLayer
62
7
370
-1
100
AcDbSpline
210
0
220
0
230
1
70
8
71
3
72
8
73
4
74
0
42
1e-07
43
1e-07
40
0
40
0
40
0
40
0
40
1
40
1
40
1
40
1
10
64.4055962659
20
22.482689898
30
0
10
64.0823577139
20
22.740769746
30
0
10
63.6525309139
20
23.11295205
30
0
10
63.4507680019
20
23.308190106
30
0
0
SPLINE
5
13C
100
AcDbEntity
8
youmu
6
ByLayer
62
7
370
-1
100
AcDbSpline
210
0
220
0
230
1
70
8
71
3
72
8
73
4
74
0
42
1e-07
43
1e-07
40
0
40
0
40
0
40
0
40
1
40
1
40
1
40
1
10
63.4507680019
20
23.308190106
30
0
10
63.2490054019
20
23.50342785
30
0
10
63.0491903059
20
23.663155002
30
0
10
63.0077498419
20
23.663155002
30
0
0
SPLINE
5
13D
100
AcDbEntity
8
youmu
6
ByLayer
62
7
370
-1
100
AcDbSpline
210
0
220
0
230
1
70
8
71
3
72
8
73
4
74
0
42
1e-07
43
1e-07
40
0
40
0
40
0
40
0
40
1
40
1
40
1
40
1
10
63.0077498419
20
23.663155002
30
0
10
62.9663090659
20
23.663155002
30
0
10
62.8532212339
20
23.745905826
30
0
10
62.7545964739
20
23.847516738
30
0
0
SPLINE
5
13E
100
AcDbEntity
8
youmu
6
ByLayer
62
7
370
-1
100
AcDbSpline
210
0
220
0
230
1
70
8
71
3
72
8
73
4
74
0
42
1e-07
43
1e-07
40
0
40
0
40
0
40
0
40
1
40
1
40
1
40
1
10
62.7545964739
20
23.847516738
30
0
10
62.5616282179
20
24.046325322
30
0
10
62.0600395459
20
24.490477602
30
0
10
61.4337962659
20
25.016975106
30
0
0
SPLINE
5
13F
100
AcDbEntity
8
youmu
6
ByLayer
62
7
370
-1
100
AcDbSpline
210
0
220
0
230
1
70
8
71
3
72
8
73
4
74
0
42
1e-07
43
1e-07
40
0
40
0
40
0
40
0
40
1
40
1
40
1
40
1
10
61.4337962659
20
25.016975106
30
0
10
61.2189321619
20
25.197616242
30
0
10
60.9404291059
20
25.437897114
30
0
10
60.8174231059
20
25.55079837
30
0
0
SPLINE
5
140
100
AcDbEntity
8
youmu
6
ByLayer
62
7
370
-1
100
AcDbSpline
210
0
220
0
230
1
70
8
71
3
72
8
73
4
74
0
42
1e-07
43
1e-07
40
0
40
0
40
0
40
0
40
1
40
1
40
1
40
1
10
60.8174231059
20
25.55079837
30
0
10
60.5526898579
20
25.793784906
30
0
10
60.3410150179
20
25.972102578
30
0
10
59.7910513699
20
26.412070002
30
0
0
SPLINE
5
141
100
AcDbEntity
8
youmu
6
ByLayer
62
7
370
-1
100
AcDbSpline
210
0
220
0
230
1
70
8
71
3
72
8
73
4
74
0
42
1e-07
43
1e-07
40
0
40
0
40
0
40
0
40
1
40
1
40
1
40
1
10
59.7910513699
20
26.412070002
30
0
10
59.5665542659
20
26.59166625
30
0
10
59.2793504659
20
26.840898402
30
0
10
59.1526647379
20
26.965154898
30
0
0
SPLINE
5
142
100
AcDbEntity
8
youmu
6
ByLayer
62
7
370
-1
100
AcDbSpline
210
0
220
0
230
1
70
8
71
3
72
8
73
4
74
0
42
1e-07
43
1e-07
40
0
40
0
40
0
40
0
40
1
40
1
40
1
40
1
10
59.1526647379
20
26.965154898
30
0
10
59.0259796339
20
27.089410458
30
0
10
58.7510605219
20
27.327247122
30
0
10
58.5390431059
20
27.496226634
30
0
0
SPLINE
5
143
100
AcDbEntity
8
youmu
6
ByLayer
62
7
370
-1
100
AcDbSpline
210
0
220
0
230
1
70
8
71
3
72
8
73
4
74
0
42
1e-07
43
1e-07
40
0
40
0
40
0
40
0
40
1
40
1
40
1
40
1
10
58.5390431059
20
27.496226634
30
0
10
58.3270263139
20
27.665207082
30
0
10
57.9727852579
20
27.975175962
30
0
10
57.7548180019
20
28.184143266
30
0
0
SPLINE
5
144
100
AcDbEntity
8
youmu
6
ByLayer
62
7
370
-1
100
AcDbSpline
210
0
220
0
230
1
70
8
71
3
72
8
73
4
74
0
42
1e-07
43
1e-07
40
0
40
0
40
0
40
0
40
1
40
1
40
1
40
1
10
57.7548180019
20
28.184143266
30
0
10
57.5368507459
20
28.39311057
30
0
10
57.2166916339
20
28.65348705
30
0
10
57.0421363699
20
28.761993162
30
0
0
SPLINE
5
145
100
AcDbEntity
8
youmu
6
ByLayer
62
7
370
-1
100
AcDbSpline
210
0
220
0
230
1
70
8
71
3
72
8
73
4
74
0
42
1e-07
43
1e-07
40
0
40
0
40
0
40
0
40
1
40
1
40
1
40
1
10
57.0421363699
20
28.761993162
30
0
10
56.8675820419
20
28.87049865
30
0
10
56.6831791219
20
29.032140858
30
0
10
56.6321381059
20
29.122461738
30
0
0
SPLINE
5
146
100
AcDbEntity
8
youmu
6
ByLayer
62
7
370
-1
100
AcDbSpline
210
0
220
0
230
1
70
8
71
3
72
8
73
4
74
0
42
1e-07
43
1e-07
40
0
40
0
40
0
40
0
40
1
40
1
40
1
40
1
10
56.6321381059
20
29.122461738
30
0
10
56.5810961539
20
29.212782306
30
0
10
56.3198885059
20
29.452245114
30
0
10
56.0515363699
20
29.653533162
30
0
0
SPLINE
5
147
100
AcDbEntity
8
youmu
6
ByLayer
62
7
370
-1
100
AcDbSpline
210
0
220
0
230
1
70
8
71
3
72
8
73
4
74
0
42
1e-07
43
1e-07
40
0
40
0
40
0
40
0
40
1
40
1
40
1
40
1
10
56.0515363699
20
29.653533162
30
0
10
55.7831842339
20
29.854822458
30
0
10
55.4251364659
20
30.151187826
30
0
10
55.2563048419
20
30.311181738
30
0
0
SPLINE
5
148
100
AcDbEntity
8
youmu
6
ByLayer
62
7
370
-1
100
AcDbSpline
210
0
220
0
230
1
70
8
71
3
72
8
73
4
74
0
42
1e-07
43
1e-07
40
0
40
0
40
0
40
0
40
1
40
1
40
1
40
1
10
55.2563048419
20
30.311181738
30
0
10
55.0874729059
20
30.471176274
30
0
10
54.7451065699
20
30.764171106
30
0
10
54.4968447379
20
30.963326634
30
0
0
SPLINE
5
149
100
AcDbEntity
8
youmu
6
ByLayer
62
7
370
-1
100
AcDbSpline
210
0
220
0
230
1
70
8
71
3
72
8
73
4
74
0
42
1e-07
43
1e-07
40
0
40
0
40
0
40
0
40
1
40
1
40
1
40
1
10
54.4968447379
20
30.963326634
30
0
10
54.2485825939
20
31.162483098
30
0
10
53.9174591779
20
31.450456914
30
0
10
53.7593981059
20
31.604465106
30
0
0
SPLINE
5
14A
100
AcDbEntity
8
youmu
6
ByLayer
62
7
370
-1
100
AcDbSpline
210
0
220
0
230
1
70
8
71
3
72
8
73
4
74
0
42
1e-07
43
1e-07
40
0
40
0
40
0
40
0
40
1
40
1
40
1
40
1
10
53.7593981059
20
31.604465106
30
0
10
53.6013370339
20
31.75847361
30
0
10
53.3236660819
20
31.996811346
30
0
10
53.1430246339
20
32.132785002
30
0
0
SPLINE
5
14B
100
AcDbEntity
8
youmu
6
ByLayer
62
7
370
-1
100
AcDbSpline
210
0
220
0
230
1
70
8
71
3
72
8
73
4
74
0
42
1e-07
43
1e-07
40
0
40
0
40
0
40
0
40
1
40
1
40
1
40
1
10
53.1430246339
20
32.132785002
30
0
10
52.9623831859
20
32.268758658
30
0
10
52.6665107779
20
32.514679242
30
0
10
52.4853763699
20
32.68036653
30
0
0
SPLINE
5
14C
100
AcDbEntity
8
youmu
6
ByLayer
62
7
370
-1
100
AcDbSpline
210
0
220
0
230
1
70
8
71
3
72
8
73
4
74
0
42
1e-07
43
1e-07
40
0
40
0
40
0
40
0
40
1
40
1
40
1
40
1
10
52.4853763699
20
32.68036653
30
0
10
52.3042410259
20
32.846053194
30
0
10
51.8610684259
20
33.218528466
30
0
10
51.5002797379
20
33.508618266
30
0
0
SPLINE
5
14D
100
AcDbEntity
8
youmu
6
ByLayer
62
7
370
-1
100
AcDbSpline
210
0
220
0
230
1
70
8
71
3
72
8
73
4
74
0
42
1e-07
43
1e-07
40
0
40
0
40
0
40
0
40
1
40
1
40
1
40
1
10
51.5002797379
20
33.508618266
30
0
10
51.1394901139
20
33.798708378
30
0
10
50.7892981939
20
34.099363746
30
0
10
50.7215580019
20
34.174521738
30
0
0
SPLINE
5
14E
100
AcDbEntity
8
youmu
6
ByLayer
62
7
370
-1
100
AcDbSpline
210
0
220
0
230
1
70
8
71
3
72
8
73
4
74
0
42
1e-07
43
1e-07
40
0
40
0
40
0
40
0
40
1
40
1
40
1
40
1
10
50.7215580019
20
34.174521738
30
0
10
50.5701468979
20
34.342509714
30
0
10
49.3025504899
20
35.40873789
30
0
10
48.7238478979
20
35.855789898
30
0
0
SPLINE
5
14F
100
AcDbEntity
8
youmu
6
ByLayer
62
7
370
-1
100
AcDbSpline
210
0
220
0
230
1
70
8
71
3
72
8
73
4
74
0
42
1e-07
43
1e-07
40
0
40
0
40
0
40
0
40
1
40
1
40
1
40
1
10
48.7238478979
20
35.855789898
30
0
10
48.4900101379
20
36.036431346
30
0
10
48.0785052259
20
36.396956082
30
0
10
47.8075428979
20
36.656525106
30
0
0
SPLINE
5
150
100
AcDbEntity
8
youmu
6
ByLayer
62
7
370
-1
100
AcDbSpline
210
0
220
0
230
1
70
8
71
3
72
8
73
4
74
0
42
1e-07
43
1e-07
40
0
40
0
40
0
40
0
40
1
40
1
40
1
40
1
10
47.8075428979
20
36.656525106
30
0
10
47.5365808819
20
36.916093818
30
0
10
47.2777993459
20
37.129729578
30
0
10
47.2324448419
20
37.129811634
30
0
0
SPLINE
5
151
100
AcDbEntity
8
youmu
6
ByLayer
62
7
370
-1
100
AcDbSpline
210
0
220
0
230
1
70
8
71
3
72
8
73
4
74
0
42
1e-07
43
1e-07
40
0
40
0
40
0
40
0
40
1
40
1
40
1
40
1
10
47.2324448419
20
37.129811634
30
0
10
47.1870903379
20
37.12991553
30
0
10
46.9006306579
20
37.370092506
30
0
10
46.5968097379
20
37.663634898
30
0
0
SPLINE
5
152
100
AcDbEntity
8
youmu
6
ByLayer
62
7
370
-1
100
AcDbSpline
210
0
220
0
230
1
70
8
71
3
72
8
73
4
74
0
42
1e-07
43
1e-07
40
0
40
0
40
0
40
0
40
1
40
1
40
1
40
1
10
46.5968097379
20
37.663634898
30
0
10
46.2929897539
20
37.957177602
30
0
10
46.0151241139
20
38.196929946
30
0
10
45.9804362659
20
38.197458162
30
0
0
SPLINE
5
153
100
AcDbEntity
8
youmu
6
ByLayer
62
7
370
-1
100
AcDbSpline
210
0
220
0
230
1
70
8
71
3
72
8
73
4
74
0
42
1e-07
43
1e-07
40
0
40
0
40
0
40
0
40
1
40
1
40
1
40
1
10
45.9804362659
20
38.197458162
30
0
10
45.9457487299
20
38.197948626
30
0
10
45.6801253459
20
38.419535082
30
0
10
45.3888281059
20
38.690006634
30
0
0
SPLINE
5
154
100
AcDbEntity
8
youmu
6
ByLayer
62
7
370
-1
100
AcDbSpline
210
0
220
0
230
1
70
8
71
3
72
8
73
4
74
0
42
1e-07
43
1e-07
40
0
40
0
40
0
40
0
40
1
40
1
40
1
40
1
10
45.3888281059
20
38.690006634
30
0
10
45.0975289939
20
38.960478186
30
0
10
44.8391814499
20
39.182555106
30
0
10
44.8137297379
20
39.182555106
30
0
0
SPLINE
5
155
100
AcDbEntity
8
youmu
6
ByLayer
62
7
370
-1
100
AcDbSpline
210
0
220
0
230
1
70
8
71
3
72
8
73
4
74
0
42
1e-07
43
1e-07
40
0
40
0
40
0
40
0
40
1
40
1
40
1
40
1
10
44.8137297379
20
39.182555106
30
0
10
44.7882795859
20
39.182555106
30
0
10
44.5195920499
20
39.40414125
30
0
10
44.2193697379
20
39.675103266
30
0
0
SPLINE
5
156
100
AcDbEntity
8
youmu
6
ByLayer
62
7
370
-1
100
AcDbSpline
210
0
220
0
230
1
70
8
71
3
72
8
73
4
74
0
42
1e-07
43
1e-07
40
0
40
0
40
0
40
0
40
1
40
1
40
1
40
1
10
44.2193697379
20
39.675103266
30
0
10
43.9191455539
20
39.946065282
30
0
10
43.6615702099
20
40.167651738
30
0
10
43.6442713699
20
40.167651738
30
0
0
SPLINE
5
157
100
AcDbEntity
8
youmu
6
ByLayer
62
7
370
-1
100
AcDbSpline
210
0
220
0
230
1
70
8
71
3
72
8
73
4
74
0
42
1e-07
43
1e-07
40
0
40
0
40
0
40
0
40
1
40
1
40
1
40
1
10
43.6442713699
20
40.167651738
30
0
10
43.6269731539
20
40.167651738
30
0
10
43.4198092099
20
40.34389929
30
0
10
43.1847431059
20
40.561139898
30
0
0
SPLINE
5
158
100
AcDbEntity
8
youmu
6
ByLayer
62
7
370
-1
100
AcDbSpline
210
0
220
0
230
1
70
8
71
3
72
8
73
4
74
0
42
1e-07
43
1e-07
40
0
40
0
40
0
40
0
40
1
40
1
40
1
40
1
10
43.1847431059
20
40.561139898
30
0
10
42.7253777059
20
40.985668002
30
0
10
42.6859278019
20
41.106603882
30
0
10
42.8848112659
20
41.491203162
30
0
0
SPLINE
5
159
100
AcDbEntity
8
youmu
6
ByLayer
62
7
370
-1
100
AcDbSpline
210
0
220
0
230
1
70
8
71
3
72
8
73
4
74
0
42
1e-07
43
1e-07
40
0
40
0
40
0
40
0
40
1
40
1
40
1
40
1
10
42.8848112659
20
41.491203162
30
0
10
43.0355447059
20
41.782687914
30
0
10
42.9827037619
20
42.138327354
30
0
10
42.7582347379
20
42.34146837
30
0
0
SPLINE
5
15A
100
AcDbEntity
8
youmu
6
ByLayer
62
7
370
-1
100
AcDbSpline
210
0
220
0
230
1
70
8
71
3
72
8
73
4
74
0
42
1e-07
43
1e-07
40
0
40
0
40
0
40
0
40
1
40
1
40
1
40
1
10
42.7582347379
20
42.34146837
30
0
10
42.6134698579
20
42.472478418
30
0
10
42.5857751779
20
42.467659266
30
0
10
42.2436731059
20
42.26717337
30
0
0
SPLINE
5
15B
100
AcDbEntity
8
youmu
6
ByLayer
62
7
370
-1
100
AcDbSpline
210
0
220
0
230
1
70
8
71
3
72
8
73
4
74
0
42
1e-07
43
1e-07
40
0
40
0
40
0
40
0
40
1
40
1
40
1
40
1
10
42.2436731059
20
42.26717337
30
0
10
42.0443556499
20
42.150366186
30
0
10
41.8595483779
20
42.055295106
30
0
10
41.8336748419
20
42.055295106
30
0
0
SPLINE
5
15C
100
AcDbEntity
8
youmu
6
ByLayer
62
7
370
-1
100
AcDbSpline
210
0
220
0
230
1
70
8
71
3
72
8
73
4
74
0
42
1e-07
43
1e-07
40
0
40
0
40
0
40
0
40
1
40
1
40
1
40
1
10
41.8336748419
20
42.055295106
30
0
10
41.8078003699
20
42.055295106
30
0
10
41.7026223619
20
42.22809069
30
0
10
41.5997831059
20
42.44052837
30
0
0
SPLINE
5
15D
100
AcDbEntity
8
youmu
6
ByLayer
62
7
370
-1
100
AcDbSpline
210
0
220
0
230
1
70
8
71
3
72
8
73
4
74
0
42
1e-07
43
1e-07
40
0
40
0
40
0
40
0
40
1
40
1
40
1
40
1
10
41.5997831059
20
42.44052837
30
0
10
41.3630456179
20
42.929562474
30
0
10
39.8924439139
20
44.435486634
30
0
10
39.6516030019
20
44.435486634
30
0
0
SPLINE
5
15E
100
AcDbEntity
8
youmu
6
ByLayer
62
7
370
-1
100
AcDbSpline
210
0
220
0
230
1
70
8
71
3
72
8
73
4
74
0
42
1e-07
43
1e-07
40
0
40
0
40
0
40
0
40
1
40
1
40
1
40
1
10
39.6516030019
20
44.435486634
30
0
10
39.5505115699
20
44.435486634
30
0
10
39.3849899539
20
44.560772418
30
0
10
39.2498596339
20
44.738170002
30
0
0
SPLINE
5
15F
100
AcDbEntity
8
youmu
6
ByLayer
62
7
370
-1
100
AcDbSpline
210
0
220
0
230
1
70
8
71
3
72
8
73
4
74
0
42
1e-07
43
1e-07
40
0
40
0
40
0
40
0
40
1
40
1
40
1
40
1
10
39.2498596339
20
44.738170002
30
0
10
39.1237426819
20
44.903732178
30
0
10
38.9466920419
20
45.117111786
30
0
10
38.8563714739
20
45.21420837
30
0
0
SPLINE
5
160
100
AcDbEntity
8
youmu
6
ByLayer
62
7
370
-1
100
AcDbSpline
210
0
220
0
230
1
70
8
71
3
72
8
73
4
74
0
42
1e-07
43
1e-07
40
0
40
0
40
0
40
0
40
1
40
1
40
1
40
1
10
38.8563714739
20
45.21420837
30
0
10
38.5553891299
20
45.537768282
30
0
10
38.1096746659
20
46.116124554
30
0
10
37.9208048419
20
46.42769337
30
0
0
SPLINE
5
161
100
AcDbEntity
8
youmu
6
ByLayer
62
7
370
-1
100
AcDbSpline
210
0
220
0
230
1
70
8
71
3
72
8
73
4
74
0
42
1e-07
43
1e-07
40
0
40
0
40
0
40
0
40
1
40
1
40
1
40
1
10
37.9208048419
20
46.42769337
30
0
10
37.8181256419
20
46.597077858
30
0
10
37.6657838419
20
46.784754906
30
0
10
37.5823497379
20
46.843195002
30
0
0
SPLINE
5
162
100
AcDbEntity
8
youmu
6
ByLayer
62
7
370
-1
100
AcDbSpline
210
0
220
0
230
1
70
8
71
3
72
8
73
4
74
0
42
1e-07
43
1e-07
40
0
40
0
40
0
40
0
40
1
40
1
40
1
40
1
10
37.5823497379
20
46.843195002
30
0
10
37.4989156339
20
46.901634162
30
0
10
37.3065111619
20
47.135275674
30
0
10
37.1530898419
20
47.363260002
30
0
0
SPLINE
5
163
100
AcDbEntity
8
youmu
6
ByLayer
62
7
370
-1
100
AcDbSpline
210
0
220
0
230
1
70
8
71
3
72
8
73
4
74
0
42
1e-07
43
1e-07
40
0
40
0
40
0
40
0
40
1
40
1
40
1
40
1
10
37.1530898419
20
47.363260002
30
0
10
36.7241634739
20
48.000641058
30
0
10
36.3425263219
20
48.452163714
30
0
10
36.1927578979
20
48.499698162
30
0
0
SPLINE
5
164
100
AcDbEntity
8
youmu
6
ByLayer
62
7
370
-1
100
AcDbSpline
210
0
220
0
230
1
70
8
71
3
72
8
73
4
74
0
42
1e-07
43
1e-07
40
0
40
0
40
0
40
0
40
1
40
1
40
1
40
1
10
36.1927578979
20
48.499698162
30
0
10
36.1181028499
20
48.52339269
30
0
10
35.8375271779
20
48.810921906
30
0
10
35.5708813699
20
49.138085106
30
0
0
SPLINE
5
165
100
AcDbEntity
8
youmu
6
ByLayer
62
7
370
-1
100
AcDbSpline
210
0
220
0
230
1
70
8
71
3
72
8
73
4
74
0
42
1e-07
43
1e-07
40
0
40
0
40
0
40
0
40
1
40
1
40
1
40
1
10
35.5708813699
20
49.138085106
30
0
10
35.3042355619
20
49.465247994
30
0
10
35.0434594099
20
49.759720458
30
0
10
34.9902796339
20
49.79298153
30
0
0
SPLINE
5
166
100
AcDbEntity
8
youmu
6
ByLayer
62
7
370
-1
100
AcDbSpline
210
0
220
0
230
1
70
8
71
3
72
8
73
4
74
0
42
1e-07
43
1e-07
40
0
40
0
40
0
40
0
40
1
40
1
40
1
40
1
10
34.9902796339
20
49.79298153
30
0
10
34.8567529939
20
49.876493946
30
0
10
34.3821613699
20
50.625702042
30
0
10
34.3821613699
20
50.753313162
30
0
0
SPLINE
5
167
100
AcDbEntity
8
youmu
6
ByLayer
62
7
370
-1
100
AcDbSpline
210
0
220
0
230
1
70
8
71
3
72
8
73
4
74
0
42
1e-07
43
1e-07
40
0
40
0
40
0
40
0
40
1
40
1
40
1
40
1
10
34.3821613699
20
50.753313162
30
0
10
34.3821613699
20
50.810541762
30
0
10
34.2887754019
20
51.04292061
30
0
10
34.1757864739
20
51.267875106
30
0
0
SPLINE
5
168
100
AcDbEntity
8
youmu
6
ByLayer
62
7
370
-1
100
AcDbSpline
210
0
220
0
230
1
70
8
71
3
72
8
73
4
74
0
42
1e-07
43
1e-07
40
0
40
0
40
0
40
0
40
1
40
1
40
1
40
1
10
34.1757864739
20
51.267875106
30
0
10
34.0627981699
20
51.492830226
30
0
10
33.9481456579
20
51.820310106
30
0
10
33.9198812659
20
51.99706653
30
0
0
SPLINE
5
169
100
AcDbEntity
8
youmu
6
ByLayer
62
7
370
-1
100
AcDbSpline
210
0
220
0
230
1
70
8
71
3
72
8
73
4
74
0
42
1e-07
43
1e-07
40
0
40
0
40
0
40
0
40
1
40
1
40
1
40
1
10
33.9198812659
20
51.99706653
30
0
10
33.8916171859
20
52.17382389
30
0
10
33.8354453299
20
52.31901153
30
0
10
33.7960562659
20
52.31901153
30
0
0
SPLINE
5
16A
100
AcDbEntity
8
youmu
6
ByLayer
62
7
370
-1
100
AcDbSpline
210
0
220
0
230
1
70
8
71
3
72
8
73
4
74
0
42
1e-07
43
1e-07
40
0
40
0
40
0
40
0
40
1
40
1
40
1
40
1
10
33.7960562659
20
52.31901153
30
0
10
33.7566684499
20
52.31901153
30
0
10
33.7245131059
20
52.392941178
30
0
10
33.7245131059
20
52.481360106
30
0
0
SPLINE
5
16B
100
AcDbEntity
8
youmu
6
ByLayer
62
7
370
-1
100
AcDbSpline
210
0
220
0
230
1
70
8
71
3
72
8
73
4
74
0
42
1e-07
43
1e-07
40
0
40
0
40
0
40
0
40
1
40
1
40
1
40
1
10
33.7245131059
20
52.481360106
30
0
10
33.7245131059
20
52.637032818
30
0
10
33.3725162659
20
53.041823802
30
0
10
32.8604896339
20
53.474711634
30
0
0
SPLINE
5
16C
100
AcDbEntity
8
youmu
6
ByLayer
62
7
370
-1
100
AcDbSpline
210
0
220
0
230
1
70
8
71
3
72
8
73
4
74
0
42
1e-07
43
1e-07
40
0
40
0
40
0
40
0
40
1
40
1
40
1
40
1
10
32.8604896339
20
53.474711634
30
0
10
32.7236723299
20
53.59038189
30
0
10
32.1683313619
20
53.938618818
30
0
10
31.6277430019
20
54.247930002
30
0
0
SPLINE
5
16D
100
AcDbEntity
8
youmu
6
ByLayer
62
7
370
-1
100
AcDbSpline
210
0
220
0
230
1
70
8
71
3
72
8
73
4
74
0
42
1e-07
43
1e-07
40
0
40
0
40
0
40
0
40
1
40
1
40
1
40
1
10
31.6277430019
20
54.247930002
30
0
10
31.0871546419
20
54.557241186
30
0
10
30.6244062259
20
54.842024802
30
0
10
30.5986197379
20
54.880813266
30
0
0
SPLINE
5
16E
100
AcDbEntity
8
youmu
6
ByLayer
62
7
370
-1
100
AcDbSpline
210
0
220
0
230
1
70
8
71
3
72
8
73
4
74
0
42
1e-07
43
1e-07
40
0
40
0
40
0
40
0
40
1
40
1
40
1
40
1
10
30.5986197379
20
54.880813266
30
0
10
30.5728323139
20
54.91960173
30
0
10
30.3103024099
20
55.019325666
30
0
10
30.0152664739
20
55.103698266
30
0
0
SPLINE
5
16F
100
AcDbEntity
8
youmu
6
ByLayer
62
7
370
-1
100
AcDbSpline
210
0
220
0
230
1
70
8
71
3
72
8
73
4
74
0
42
1e-07
43
1e-07
40
0
40
0
40
0
40
0
40
1
40
1
40
1
40
1
10
30.0152664739
20
55.103698266
30
0
10
29.2419688579
20
55.324841682
30
0
10
28.0588314739
20
55.783589634
30
0
10
28.0588314739
20
55.86315837
30
0
0
SPLINE
5
170
100
AcDbEntity
8
youmu
6
ByLayer
62
7
370
-1
100
AcDbSpline
210
0
220
0
230
1
70
8
71
3
72
8
73
4
74
0
42
1e-07
43
1e-07
40
0
40
0
40
0
40
0
40
1
40
1
40
1
40
1
10
28.0588314739
20
55.86315837
30
0
10
28.0588314739
20
55.90055625
30
0
10
28.1352025219
20
55.931950002
30
0
10
28.2266831059
20
55.931950002
30
0
0
SPLINE
5
171
100
AcDbEntity
8
youmu
6
ByLayer
62
7
370
-1
100
AcDbSpline
210
0
220
0
230
1
70
8
71
3
72
8
73
4
74
0
42
1e-07
43
1e-07
40
0
40
0
40
0
40
0
40
1
40
1
40
1
40
1
10
28.2266831059
20
55.931950002
30
0
10
28.3861697059
20
55.931950002
30
0
10
28.3856290099
20
55.941589242
30
0
10
28.2597030019
20
56.18510337
30
0
0
SPLINE
5
172
100
AcDbEntity
8
youmu
6
ByLayer
62
7
370
-1
100
AcDbSpline
210
0
220
0
230
1
70
8
71
3
72
8
73
4
74
0
42
1e-07
43
1e-07
40
0
40
0
40
0
40
0
40
1
40
1
40
1
40
1
10
28.2597030019
20
56.18510337
30
0
10
28.0954484179
20
56.50273809
30
0
10
28.1545490179
20
56.565599226
30
0
10
28.4990981059
20
56.441008266
30
0
0
SPLINE
5
173
100
AcDbEntity
8
youmu
6
ByLayer
62
7
370
-1
100
AcDbSpline
210
0
220
0
230
1
70
8
71
3
72
8
73
4
74
0
42
1e-07
43
1e-07
40
0
40
0
40
0
40
0
40
1
40
1
40
1
40
1
10
28.4990981059
20
56.441008266
30
0
10
28.8673432819
20
56.307849786
30
0
10
28.9682971219
20
56.315334042
30
0
10
28.9063448419
20
56.476780002
30
0
0
SPLINE
5
174
100
AcDbEntity
8
youmu
6
ByLayer
62
7
370
-1
100
AcDbSpline
210
0
220
0
230
1
70
8
71
3
72
8
73
4
74
0
42
1e-07
43
1e-07
40
0
40
0
40
0
40
0
40
1
40
1
40
1
40
1
10
28.9063448419
20
56.476780002
30
0
10
28.8537266659
20
56.613898698
30
0
10
28.9572351619
20
56.611924674
30
0
10
29.4841947379
20
56.45476653
30
0
0
SPLINE
5
175
100
AcDbEntity
8
youmu
6
ByLayer
62
7
370
-1
100
AcDbSpline
210
0
220
0
230
1
70
8
71
3
72
8
73
4
74
0
42
1e-07
43
1e-07
40
0
40
0
40
0
40
0
40
1
40
1
40
1
40
1
10
29.4841947379
20
56.45476653
30
0
10
29.6209636819
20
56.413976898
30
0
10
29.6313027379
20
56.443007874
30
0
10
29.5805028979
20
56.743691634
30
0
0
LWPOLYLINE
5
176
100
AcDbEntity
8
youmu
6
ByLayer
62
7
370
-1
100
AcDbPolyline
90
3
70
0
43
0
10
68.7339678979
20
17.928681738
10
68.9706114739
20
17.826869898
10
68.9183296339
20
18.088278162
0
SPLINE
5
177
100
AcDbEntity
8
youmu
6
ByLayer
62
7
370
-1
100
AcDbSpline
210
0
220
0
230
1
70
8
71
3
72
8
73
4
74
0
42
1e-07
43
1e-07
40
0
40
0
40
0
40
0
40
1
40
1
40
1
40
1
10
29.7841262659
20
56.988590106
30
0
10
29.9269963699
20
56.938785234
30
0
10
30.0629903059
20
56.84703633
30
0
10
30.0868096339
20
56.784966738
30
0
0
SPLINE
5
178
100
AcDbEntity
8
youmu
6
ByLayer
62
7
370
-1
100
AcDbSpline
210
0
220
0
230
1
70
8
71
3
72
8
73
4
74
0
42
1e-07
43
1e-07
40
0
40
0
40
0
40
0
40
1
40
1
40
1
40
1
10
30.0868096339
20
56.784966738
30
0
10
30.1768628179
20
56.550290322
30
0
10
30.4156782259
20
56.72025357
30
0
10
30.6206328979
20
57.164696634
30
0
0
SPLINE
5
179
100
AcDbEntity
8
youmu
6
ByLayer
62
7
370
-1
100
AcDbSpline
210
0
220
0
230
1
70
8
71
3
72
8
73
4
74
0
42
1e-07
43
1e-07
40
0
40
0
40
0
40
0
40
1
40
1
40
1
40
1
10
30.6206328979
20
57.164696634
30
0
10
30.6651615379
20
57.261257514
30
0
10
30.6900048499
20
57.246250002
30
0
10
30.7334514739
20
57.10140837
30
0
0
SPLINE
5
17A
100
AcDbEntity
8
youmu
6
ByLayer
62
7
370
-1
100
AcDbSpline
210
0
220
0
230
1
70
8
71
3
72
8
73
4
74
0
42
1e-07
43
1e-07
40
0
40
0
40
0
40
0
40
1
40
1
40
1
40
1
10
30.7334514739
20
57.10140837
30
0
10
30.7947691459
20
56.896985346
30
0
10
30.9315714739
20
56.851707594
30
0
10
30.9315714739
20
57.035368266
30
0
0
SPLINE
5
17B
100
AcDbEntity
8
youmu
6
ByLayer
62
7
370
-1
100
AcDbSpline
210
0
220
0
230
1
70
8
71
3
72
8
73
4
74
0
42
1e-07
43
1e-07
40
0
40
0
40
0
40
0
40
1
40
1
40
1
40
1
10
30.9315714739
20
57.035368266
30
0
10
30.9315714739
20
57.099644634
30
0
10
31.0250451139
20
57.261661866
30
0
10
31.1379463699
20
57.39583653
30
0
0
SPLINE
5
17C
100
AcDbEntity
8
youmu
6
ByLayer
62
7
370
-1
100
AcDbSpline
210
0
220
0
230
1
70
8
71
3
72
8
73
4
74
0
42
1e-07
43
1e-07
40
0
40
0
40
0
40
0
40
1
40
1
40
1
40
1
10
31.1379463699
20
57.39583653
30
0
10
31.2508476259
20
57.530011506
30
0
10
31.3443212659
20
57.68483745
30
0
10
31.3443212659
20
57.739795002
30
0
0
SPLINE
5
17D
100
AcDbEntity
8
youmu
6
ByLayer
62
7
370
-1
100
AcDbSpline
210
0
220
0
230
1
70
8
71
3
72
8
73
4
74
0
42
1e-07
43
1e-07
40
0
40
0
40
0
40
0
40
1
40
1
40
1
40
1
10
31.3443212659
20
57.739795002
30
0
10
31.3443212659
20
57.809692674
30
0
10
31.4303802259
20
57.821879082
30
0
10
31.6332463699
20
57.783821634
30
0
0
SPLINE
5
17E
100
AcDbEntity
8
youmu
6
ByLayer
62
7
370
-1
100
AcDbSpline
210
0
220
0
230
1
70
8
71
3
72
8
73
4
74
0
42
1e-07
43
1e-07
40
0
40
0
40
0
40
0
40
1
40
1
40
1
40
1
10
31.6332463699
20
57.783821634
30
0
10
31.9122882499
20
57.731473026
30
0
10
31.9204798099
20
57.739099242
30
0
10
31.8698896339
20
57.94066653
30
0
0
SPLINE
5
17F
100
AcDbEntity
8
youmu
6
ByLayer
62
7
370
-1
100
AcDbSpline
210
0
220
0
230
1
70
8
71
3
72
8
73
4
74
0
42
1e-07
43
1e-07
40
0
40
0
40
0
40
0
40
1
40
1
40
1
40
1
10
31.8698896339
20
57.94066653
30
0
10
31.8302191459
20
58.098727602
30
0
10
31.8495044899
20
58.149793266
30
0
10
31.9469364739
20
58.149793266
30
0
0
SPLINE
5
180
100
AcDbEntity
8
youmu
6
ByLayer
62
7
370
-1
100
AcDbSpline
210
0
220
0
230
1
70
8
71
3
72
8
73
4
74
0
42
1e-07
43
1e-07
40
0
40
0
40
0
40
0
40
1
40
1
40
1
40
1
10
31.9469364739
20
58.149793266
30
0
10
32.0838258499
20
58.149793266
30
0
10
32.0906580259
20
58.138165962
30
0
10
31.5479446339
20
58.746905106
30
0
0
SPLINE
5
181
100
AcDbEntity
8
youmu
6
ByLayer
62
7
370
-1
100
AcDbSpline
210
0
220
0
230
1
70
8
71
3
72
8
73
4
74
0
42
1e-07
43
1e-07
40
0
40
0
40
0
40
0
40
1
40
1
40
1
40
1
10
31.5479446339
20
58.746905106
30
0
10
31.3236868339
20
58.998446058
30
0
10
31.3019625859
20
59.052340002
30
0
10
31.4241196339
20
59.052340002
30
0
0
SPLINE
5
182
100
AcDbEntity
8
youmu
6
ByLayer
62
7
370
-1
100
AcDbSpline
210
0
220
0
230
1
70
8
71
3
72
8
73
4
74
0
42
1e-07
43
1e-07
40
0
40
0
40
0
40
0
40
1
40
1
40
1
40
1
10
31.4241196339
20
59.052340002
30
0
10
31.6809265219
20
59.052340002
30
0
10
32.5663978099
20
60.012402066
30
0
10
32.8329731059
20
60.579515106
30
0
0
SPLINE
5
183
100
AcDbEntity
8
youmu
6
ByLayer
62
7
370
-1
100
AcDbSpline
210
0
220
0
230
1
70
8
71
3
72
8
73
4
74
0
42
1e-07
43
1e-07
40
0
40
0
40
0
40
0
40
1
40
1
40
1
40
1
10
32.8329731059
20
60.579515106
30
0
10
32.9216463139
20
60.76816029
30
0
10
33.1232382499
20
61.072000866
30
0
10
33.2787431059
20
61.253673162
30
0
0
SPLINE
5
184
100
AcDbEntity
8
youmu
6
ByLayer
62
7
370
-1
100
AcDbSpline
210
0
220
0
230
1
70
8
71
3
72
8
73
4
74
0
42
1e-07
43
1e-07
40
0
40
0
40
0
40
0
40
1
40
1
40
1
40
1
10
33.2787431059
20
61.253673162
30
0
10
33.4342479619
20
61.43534577
30
0
10
33.5594130019
20
61.611651354
30
0
10
33.5594130019
20
61.647161634
30
0
0
SPLINE
5
185
100
AcDbEntity
8
youmu
6
ByLayer
62
7
370
-1
100
AcDbSpline
210
0
220
0
230
1
70
8
71
3
72
8
73
4
74
0
42
1e-07
43
1e-07
40
0
40
0
40
0
40
0
40
1
40
1
40
1
40
1
10
33.5594130019
20
61.647161634
30
0
10
33.5594130019
20
61.682671914
30
0
10
33.6509375779
20
61.808073762
30
0
10
33.7630363699
20
61.925080002
30
0
0
SPLINE
5
186
100
AcDbEntity
8
youmu
6
ByLayer
62
7
370
-1
100
AcDbSpline
210
0
220
0
230
1
70
8
71
3
72
8
73
4
74
0
42
1e-07
43
1e-07
40
0
40
0
40
0
40
0
40
1
40
1
40
1
40
1
10
33.7630363699
20
61.925080002
30
0
10
33.8751345379
20
62.042085306
30
0
10
33.9911305219
20
62.25106041
30
0
10
34.0189412659
20
62.390111634
30
0
0
SPLINE
5
187
100
AcDbEntity
8
youmu
6
ByLayer
62
7
370
-1
100
AcDbSpline
210
0
220
0
230
1
70
8
71
3
72
8
73
4
74
0
42
1e-07
43
1e-07
40
0
40
0
40
0
40
0
40
1
40
1
40
1
40
1
10
34.0189412659
20
62.390111634
30
0
10
34.0607473939
20
62.599144146
30
0
10
34.0256405299
20
62.686764978
30
0
10
33.8153178979
20
62.901921738
30
0
0
SPLINE
5
188
100
AcDbEntity
8
youmu
6
ByLayer
62
7
370
-1
100
AcDbSpline
210
0
220
0
230
1
70
8
71
3
72
8
73
4
74
0
42
1e-07
43
1e-07
40
0
40
0
40
0
40
0
40
1
40
1
40
1
40
1
10
33.8153178979
20
62.901921738
30
0
10
33.5074852819
20
63.216830202
30
0
10
33.4913477059
20
63.477792306
30
0
10
33.7657878979
20
63.716414898
30
0
0
SPLINE
5
189
100
AcDbEntity
8
youmu
6
ByLayer
62
7
370
-1
100
AcDbSpline
210
0
220
0
230
1
70
8
71
3
72
8
73
4
74
0
42
1e-07
43
1e-07
40
0
40
0
40
0
40
0
40
1
40
1
40
1
40
1
10
33.7657878979
20
63.716414898
30
0
10
34.0559441539
20
63.968702778
30
0
10
34.0348710499
20
64.278201474
30
0
10
33.7052514739
20
64.574935002
30
0
0
SPLINE
5
18A
100
AcDbEntity
8
youmu
6
ByLayer
62
7
370
-1
100
AcDbSpline
210
0
220
0
230
1
70
8
71
3
72
8
73
4
74
0
42
1e-07
43
1e-07
40
0
40
0
40
0
40
0
40
1
40
1
40
1
40
1
10
33.7052514739
20
64.574935002
30
0
10
33.3211407859
20
64.920724914
30
0
10
33.1216102339
20
65.004438882
30
0
10
32.2248548419
20
65.210570106
30
0
0
SPLINE
5
18B
100
AcDbEntity
8
youmu
6
ByLayer
62
7
370
-1
100
AcDbSpline
210
0
220
0
230
1
70
8
71
3
72
8
73
4
74
0
42
1e-07
43
1e-07
40
0
40
0
40
0
40
0
40
1
40
1
40
1
40
1
10
32.2248548419
20
65.210570106
30
0
10
31.7236558579
20
65.325777042
30
0
10
31.2146681059
20
65.381266554
30
0
10
30.7086864739
20
65.375669898
30
0
0
LWPOLYLINE
5
18C
100
AcDbEntity
8
youmu
6
ByLayer
62
7
370
-1
100
AcDbPolyline
90
3
70
0
43
0
10
29.5805028979
20
56.743691634
10
29.5227180019
20
57.07664337
10
29.7841262659
20
56.988590106
0
SPLINE
5
18D
100
AcDbEntity
8
youmu
6
ByLayer
62
7
370
-1
100
AcDbSpline
210
0
220
0
230
1
70
8
71
3
72
8
73
4
74
0
42
1e-07
43
1e-07
40
0
40
0
40
0
40
0
40
1
40
1
40
1
40
1
10
22.8334164739
20
48.452920002
30
0
10
22.9167912979
20
48.462041322
30
0
10
22.9689165139
20
48.400662186
30
0
10
22.9682478979
20
48.274061634
30
0
0
SPLINE
5
18E
100
AcDbEntity
8
youmu
6
ByLayer
62
7
370
-1
100
AcDbSpline
210
0
220
0
230
1
70
8
71
3
72
8
73
4
74
0
42
1e-07
43
1e-07
40
0
40
0
40
0
40
0
40
1
40
1
40
1
40
1
10
22.9682478979
20
48.274061634
30
0
10
22.9659428419
20
47.836978026
30
0
10
22.4558761939
20
46.408431738
30
0
10
22.3023447379
20
46.408431738
30
0
0
SPLINE
5
18F
100
AcDbEntity
8
youmu
6
ByLayer
62
7
370
-1
100
AcDbSpline
210
0
220
0
230
1
70
8
71
3
72
8
73
4
74
0
42
1e-07
43
1e-07
40
0
40
0
40
0
40
0
40
1
40
1
40
1
40
1
10
22.3023447379
20
46.408431738
30
0
10
22.2627463219
20
46.408431738
30
0
10
22.2280497379
20
46.356447546
30
0
10
22.2280497379
20
46.292861634
30
0
0
SPLINE
5
190
100
AcDbEntity
8
youmu
6
ByLayer
62
7
370
-1
100
AcDbSpline
210
0
220
0
230
1
70
8
71
3
72
8
73
4
74
0
42
1e-07
43
1e-07
40
0
40
0
40
0
40
0
40
1
40
1
40
1
40
1
10
22.2280497379
20
46.292861634
30
0
10
22.2280497379
20
46.229275722
30
0
10
22.0971311059
20
45.932860122
30
0
10
21.9363731059
20
45.63521337
30
0
0
SPLINE
5
191
100
AcDbEntity
8
youmu
6
ByLayer
62
7
370
-1
100
AcDbSpline
210
0
220
0
230
1
70
8
71
3
72
8
73
4
74
0
42
1e-07
43
1e-07
40
0
40
0
40
0
40
0
40
1
40
1
40
1
40
1
10
21.9363731059
20
45.63521337
30
0
10
21.7756147939
20
45.337567554
30
0
10
21.6653387059
20
45.058375914
30
0
10
21.6914746339
20
45.01608837
30
0
0
SPLINE
5
192
100
AcDbEntity
8
youmu
6
ByLayer
62
7
370
-1
100
AcDbSpline
210
0
220
0
230
1
70
8
71
3
72
8
73
4
74
0
42
1e-07
43
1e-07
40
0
40
0
40
0
40
0
40
1
40
1
40
1
40
1
10
21.6914746339
20
45.01608837
30
0
10
21.7176090019
20
44.97380145
30
0
10
21.9505556899
20
44.862303882
30
0
10
22.2087881059
20
44.76568653
30
0
0
SPLINE
5
193
100
AcDbEntity
8
youmu
6
ByLayer
62
7
370
-1
100
AcDbSpline
210
0
220
0
230
1
70
8
71
3
72
8
73
4
74
0
42
1e-07
43
1e-07
40
0
40
0
40
0
40
0
40
1
40
1
40
1
40
1
10
22.2087881059
20
44.76568653
30
0
10
22.4670211459
20
44.669069178
30
0
10
22.7061001939
20
44.546348346
30
0
10
22.7398598419
20
44.49327153
30
0
0
SPLINE
5
194
100
AcDbEntity
8
youmu
6
ByLayer
62
7
370
-1
100
AcDbSpline
210
0
220
0
230
1
70
8
71
3
72
8
73
4
74
0
42
1e-07
43
1e-07
40
0
40
0
40
0
40
0
40
1
40
1
40
1
40
1
10
22.7398598419
20
44.49327153
30
0
10
22.8629248099
20
44.299785042
30
0
10
22.7986908739
20
43.947386658
30
0
10
22.5995247379
20
43.722805002
30
0
0
SPLINE
5
195
100
AcDbEntity
8
youmu
6
ByLayer
62
7
370
-1
100
AcDbSpline
210
0
220
0
230
1
70
8
71
3
72
8
73
4
74
0
42
1e-07
43
1e-07
40
0
40
0
40
0
40
0
40
1
40
1
40
1
40
1
10
22.5995247379
20
43.722805002
30
0
10
22.2548127859
20
43.334102298
30
0
10
22.2280497379
20
43.296423306
30
0
10
22.2280497379
20
43.199988162
30
0
0
SPLINE
5
196
100
AcDbEntity
8
youmu
6
ByLayer
62
7
370
-1
100
AcDbSpline
210
0
220
0
230
1
70
8
71
3
72
8
73
4
74
0
42
1e-07
43
1e-07
40
0
40
0
40
0
40
0
40
1
40
1
40
1
40
1
10
22.2280497379
20
43.199988162
30
0
10
22.2280497379
20
43.061878242
30
0
10
21.9738106099
20
42.621476202
30
0
10
21.7437564739
20
42.36348153
30
0
0
SPLINE
5
197
100
AcDbEntity
8
youmu
6
ByLayer
62
7
370
-1
100
AcDbSpline
210
0
220
0
230
1
70
8
71
3
72
8
73
4
74
0
42
1e-07
43
1e-07
40
0
40
0
40
0
40
0
40
1
40
1
40
1
40
1
10
21.7437564739
20
42.36348153
30
0
10
21.6330151939
20
42.239290242
30
0
10
21.5215282339
20
42.138254346
30
0
10
21.4961064739
20
42.14059653
30
0
0
SPLINE
5
198
100
AcDbEntity
8
youmu
6
ByLayer
62
7
370
-1
100
AcDbSpline
210
0
220
0
230
1
70
8
71
3
72
8
73
4
74
0
42
1e-07
43
1e-07
40
0
40
0
40
0
40
0
40
1
40
1
40
1
40
1
10
21.4961064739
20
42.14059653
30
0
10
21.3672710659
20
42.15244317
30
0
10
20.2019591779
20
42.658829154
30
0
10
20.0955078979
20
42.748715106
30
0
0
SPLINE
5
199
100
AcDbEntity
8
youmu
6
ByLayer
62
7
370
-1
100
AcDbSpline
210
0
220
0
230
1
70
8
71
3
72
8
73
4
74
0
42
1e-07
43
1e-07
40
0
40
0
40
0
40
0
40
1
40
1
40
1
40
1
10
20.0955078979
20
42.748715106
30
0
10
20.0277677059
20
42.805915314
30
0
10
19.9076277379
20
42.87478089
30
0
10
19.8285962659
20
42.902808162
30
0
0
SPLINE
5
19A
100
AcDbEntity
8
youmu
6
ByLayer
62
7
370
-1
100
AcDbSpline
210
0
220
0
230
1
70
8
71
3
72
8
73
4
74
0
42
1e-07
43
1e-07
40
0
40
0
40
0
40
0
40
1
40
1
40
1
40
1
10
19.8285962659
20
42.902808162
30
0
10
19.7106718099
20
42.94462833
30
0
10
19.6827581059
20
43.054362162
30
0
10
19.6827581059
20
43.516430106
30
0
0
SPLINE
5
19B
100
AcDbEntity
8
youmu
6
ByLayer
62
7
370
-1
100
AcDbSpline
210
0
220
0
230
1
70
8
71
3
72
8
73
4
74
0
42
1e-07
43
1e-07
40
0
40
0
40
0
40
0
40
1
40
1
40
1
40
1
10
19.6827581059
20
43.516430106
30
0
10
19.6827581059
20
44.010832794
30
0
10
19.7088799939
20
44.103799434
30
0
10
19.8891330019
20
44.27313837
30
0
0
SPLINE
5
19C
100
AcDbEntity
8
youmu
6
ByLayer
62
7
370
-1
100
AcDbSpline
210
0
220
0
230
1
70
8
71
3
72
8
73
4
74
0
42
1e-07
43
1e-07
40
0
40
0
40
0
40
0
40
1
40
1
40
1
40
1
10
19.8891330019
20
44.27313837
30
0
10
20.0020342579
20
44.379203706
30
0
10
20.0948916979
20
44.505230178
30
0
10
20.0955078979
20
44.553808266
30
0
0
SPLINE
5
19D
100
AcDbEntity
8
youmu
6
ByLayer
62
7
370
-1
100
AcDbSpline
210
0
220
0
230
1
70
8
71
3
72
8
73
4
74
0
42
1e-07
43
1e-07
40
0
40
0
40
0
40
0
40
1
40
1
40
1
40
1
10
20.0955078979
20
44.553808266
30
0
10
20.0961446899
20
44.602386354
30
0
10
20.2384176259
20
44.79895041
30
0
10
20.4119498419
20
44.99132337
30
0
0
SPLINE
5
19E
100
AcDbEntity
8
youmu
6
ByLayer
62
7
370
-1
100
AcDbSpline
210
0
220
0
230
1
70
8
71
3
72
8
73
4
74
0
42
1e-07
43
1e-07
40
0
40
0
40
0
40
0
40
1
40
1
40
1
40
1
10
20.4119498419
20
44.99132337
30
0
10
20.7262779859
20
45.339777762
30
0
10
21.4906031059
20
46.717895802
30
0
10
21.4906031059
20
46.936751634
30
0
0
SPLINE
5
19F
100
AcDbEntity
8
youmu
6
ByLayer
62
7
370
-1
100
AcDbSpline
210
0
220
0
230
1
70
8
71
3
72
8
73
4
74
0
42
1e-07
43
1e-07
40
0
40
0
40
0
40
0
40
1
40
1
40
1
40
1
10
21.4906031059
20
46.936751634
30
0
10
21.4906031059
20
47.000039898
30
0
10
21.5359644739
20
47.102711922
30
0
10
21.5924146339
20
47.162388162
30
0
0
SPLINE
5
1A0
100
AcDbEntity
8
youmu
6
ByLayer
62
7
370
-1
100
AcDbSpline
210
0
220
0
230
1
70
8
71
3
72
8
73
4
74
0
42
1e-07
43
1e-07
40
0
40
0
40
0
40
0
40
1
40
1
40
1
40
1
10
21.5924146339
20
47.162388162
30
0
10
21.6488657299
20
47.222064714
30
0
10
21.7766681059
20
47.441491818
30
0
10
21.8758363699
20
47.652185106
30
0
0
SPLINE
5
1A1
100
AcDbEntity
8
youmu
6
ByLayer
62
7
370
-1
100
AcDbSpline
210
0
220
0
230
1
70
8
71
3
72
8
73
4
74
0
42
1e-07
43
1e-07
40
0
40
0
40
0
40
0
40
1
40
1
40
1
40
1
10
21.8758363699
20
47.652185106
30
0
10
21.9830280259
20
47.879923578
30
0
10
22.1303388259
20
48.057945162
30
0
10
22.2390564739
20
48.092451738
30
0
0
SPLINE
5
1A2
100
AcDbEntity
8
youmu
6
ByLayer
62
7
370
-1
100
AcDbSpline
210
0
220
0
230
1
70
8
71
3
72
8
73
4
74
0
42
1e-07
43
1e-07
40
0
40
0
40
0
40
0
40
1
40
1
40
1
40
1
10
22.2390564739
20
48.092451738
30
0
10
22.3396377859
20
48.12437433
30
0
10
22.4974998019
20
48.222285234
30
0
10
22.5885180019
20
48.30708153
30
0
0
SPLINE
5
1A3
100
AcDbEntity
8
youmu
6
ByLayer
62
7
370
-1
100
AcDbSpline
210
0
220
0
230
1
70
8
71
3
72
8
73
4
74
0
42
1e-07
43
1e-07
40
0
40
0
40
0
40
0
40
1
40
1
40
1
40
1
10
22.5885180019
20
48.30708153
30
0
10
22.6858470259
20
48.397757154
30
0
10
22.7685694579
20
48.445825434
30
0
10
22.8334164739
20
48.452920002
30
0
0
LWPOLYLINE
5
1A4
100
AcDbEntity
8
youmu
6
ByLayer
62
7
370
-1
100
AcDbPolyline
90
2
70
0
43
0
10
30.7086864739
20
65.375669898
10
30.7086864739
20
65.375669898
0
SPLINE
5
1A5
100
AcDbEntity
8
youmu
6
ByLayer
62
7
370
-1
100
AcDbSpline
210
0
220
0
230
1
70
8
71
3
72
8
73
4
74
0
42
1e-07
43
1e-07
40
0
40
0
40
0
40
0
40
1
40
1
40
1
40
1
10
19.2452430019
20
41.49670653
30
0
10
19.4403481459
20
41.497296522
30
0
10
19.9304081059
20
41.289442434
30
0
10
19.9304081059
20
41.196775002
30
0
0
SPLINE
5
1A6
100
AcDbEntity
8
youmu
6
ByLayer
62
7
370
-1
100
AcDbSpline
210
0
220
0
230
1
70
8
71
3
72
8
73
4
74
0
42
1e-07
43
1e-07
40
0
40
0
40
0
40
0
40
1
40
1
40
1
40
1
10
19.9304081059
20
41.196775002
30
0
10
19.9304081059
20
41.14797945
30
0
10
19.4472171379
20
41.026759962
30
0
10
18.8434996339
20
40.924360002
30
0
0
SPLINE
5
1A7
100
AcDbEntity
8
youmu
6
ByLayer
62
7
370
-1
100
AcDbSpline
210
0
220
0
230
1
70
8
71
3
72
8
73
4
74
0
42
1e-07
43
1e-07
40
0
40
0
40
0
40
0
40
1
40
1
40
1
40
1
10
18.8434996339
20
40.924360002
30
0
10
17.3360610259
20
40.66867257
30
0
10
17.3382534499
20
40.66579125
30
0
10
17.5914913699
20
41.155499898
30
0
0
SPLINE
5
1A8
100
AcDbEntity
8
youmu
6
ByLayer
62
7
370
-1
100
AcDbSpline
210
0
220
0
230
1
70
8
71
3
72
8
73
4
74
0
42
1e-07
43
1e-07
40
0
40
0
40
0
40
0
40
1
40
1
40
1
40
1
10
17.5914913699
20
41.155499898
30
0
10
17.7381326179
20
41.43907233
30
0
10
17.8781579059
20
41.462794626
30
0
10
18.0840398419
20
41.235298266
30
0
0
SPLINE
5
1A9
100
AcDbEntity
8
youmu
6
ByLayer
62
7
370
-1
100
AcDbSpline
210
0
220
0
230
1
70
8
71
3
72
8
73
4
74
0
42
1e-07
43
1e-07
40
0
40
0
40
0
40
0
40
1
40
1
40
1
40
1
10
18.0840398419
20
41.235298266
30
0
10
18.2793552739
20
41.019476946
30
0
10
18.4481004739
20
41.027020482
30
0
10
18.8077278979
20
41.271070002
30
0
0
SPLINE
5
1AA
100
AcDbEntity
8
youmu
6
ByLayer
62
7
370
-1
100
AcDbSpline
210
0
220
0
230
1
70
8
71
3
72
8
73
4
74
0
42
1e-07
43
1e-07
40
0
40
0
40
0
40
0
40
1
40
1
40
1
40
1
10
18.8077278979
20
41.271070002
30
0
10
18.9707129539
20
41.381674626
30
0
10
19.1516423779
20
41.482593522
30
0
10
19.2094712659
20
41.493955002
30
0
0
SPLINE
5
1AB
100
AcDbEntity
8
youmu
6
ByLayer
62
7
370
-1
100
AcDbSpline
210
0
220
0
230
1
70
8
71
3
72
8
73
4
74
0
42
1e-07
43
1e-07
40
0
40
0
40
0
40
0
40
1
40
1
40
1
40
1
10
19.2094712659
20
41.493955002
30
0
10
19.2196150099
20
41.495947746
30
0
10
19.2322357219
20
41.496666906
30
0
10
19.2452430019
20
41.49670653
30
0
0
LWPOLYLINE
5
1AC
100
AcDbEntity
8
youmu
6
ByLayer
62
7
370
-1
100
AcDbPolyline
90
2
70
0
43
0
10
22.8334164739
20
48.452920002
10
22.8334164739
20
48.452920002
0
LWPOLYLINE
5
1AD
100
AcDbEntity
8
youmu
6
ByLayer
62
7
370
-1
100
AcDbPolyline
90
2
70
0
43
0
10
19.2452430019
20
41.49670653
10
19.2452430019
20
41.49670653
0
SPLINE
5
1AE
100
AcDbEntity
8
youmu
6
ByLayer
62
7
370
-1
100
AcDbSpline
210
0
220
0
230
1
70
8
71
3
72
8
73
4
74
0
42
1e-07
43
1e-07
40
0
40
0
40
0
40
0
40
1
40
1
40
1
40
1
10
55.6589320588
20
54.098695957
30
0
10
54.6429408748
20
54.342495565
30
0
10
54.1481207308
20
54.627938749
30
0
10
53.3736063148
20
55.417017637
30
0
0
SPLINE
5
1AF
100
AcDbEntity
8
youmu
6
ByLayer
62
7
370
-1
100
AcDbSpline
210
0
220
0
230
1
70
8
71
3
72
8
73
4
74
0
42
1e-07
43
1e-07
40
0
40
0
40
0
40
0
40
1
40
1
40
1
40
1
10
53.3736063148
20
55.417017637
30
0
10
52.6737999868
20
56.129982877
30
0
10
52.3547325628
20
56.659624717
30
0
10
52.0047256588
20
57.689316757
30
0
0
SPLINE
5
1B0
100
AcDbEntity
8
youmu
6
ByLayer
62
7
370
-1
100
AcDbSpline
210
0
220
0
230
1
70
8
71
3
72
8
73
4
74
0
42
1e-07
43
1e-07
40
0
40
0
40
0
40
0
40
1
40
1
40
1
40
1
10
52.0047256588
20
57.689316757
30
0
10
51.8240729788
20
58.220780365
30
0
10
51.8945578348
20
59.172083965
30
0
10
52.1873922988
20
60.154699261
30
0
0
SPLINE
5
1B1
100
AcDbEntity
8
youmu
6
ByLayer
62
7
370
-1
100
AcDbSpline
210
0
220
0
230
1
70
8
71
3
72
8
73
4
74
0
42
1e-07
43
1e-07
40
0
40
0
40
0
40
0
40
1
40
1
40
1
40
1
10
52.1873922988
20
60.154699261
30
0
10
52.3068340108
20
60.555490717
30
0
10
52.4228374828
20
60.990624637
30
0
10
52.4451773068
20
61.121664949
30
0
0
SPLINE
5
1B2
100
AcDbEntity
8
youmu
6
ByLayer
62
7
370
-1
100
AcDbSpline
210
0
220
0
230
1
70
8
71
3
72
8
73
4
74
0
42
1e-07
43
1e-07
40
0
40
0
40
0
40
0
40
1
40
1
40
1
40
1
10
50.9864690428
20
61.300735477
30
0
10
50.1618408748
20
61.268184517
30
0
10
49.4270746348
20
61.209971869
30
0
10
49.3536557308
20
61.171372789
30
0
0
SPLINE
5
1B3
100
AcDbEntity
8
youmu
6
ByLayer
62
7
370
-1
100
AcDbSpline
210
0
220
0
230
1
70
8
71
3
72
8
73
4
74
0
42
1e-07
43
1e-07
40
0
40
0
40
0
40
0
40
1
40
1
40
1
40
1
10
49.3536557308
20
61.171372789
30
0
10
49.2802368268
20
61.132773709
30
0
10
48.5735524588
20
61.052191597
30
0
10
47.7832464748
20
60.992302261
30
0
0
SPLINE
5
1B4
100
AcDbEntity
8
youmu
6
ByLayer
62
7
370
-1
100
AcDbSpline
210
0
220
0
230
1
70
8
71
3
72
8
73
4
74
0
42
1e-07
43
1e-07
40
0
40
0
40
0
40
0
40
1
40
1
40
1
40
1
10
47.7832464748
20
60.992302261
30
0
10
45.1972538188
20
60.796333189
30
0
10
42.5158952428
20
60.879136117
30
0
10
42.2818943068
20
61.162188757
30
0
0
SPLINE
5
1B5
100
AcDbEntity
8
youmu
6
ByLayer
62
7
370
-1
100
AcDbSpline
210
0
220
0
230
1
70
8
71
3
72
8
73
4
74
0
42
1e-07
43
1e-07
40
0
40
0
40
0
40
0
40
1
40
1
40
1
40
1
10
42.2818943068
20
61.162188757
30
0
10
42.2593139308
20
61.189502797
30
0
10
42.0376176508
20
61.313495029
30
0
10
41.7892360108
20
61.437728749
30
0
0
SPLINE
5
1B6
100
AcDbEntity
8
youmu
6
ByLayer
62
7
370
-1
100
AcDbSpline
210
0
220
0
230
1
70
8
71
3
72
8
73
4
74
0
42
1e-07
43
1e-07
40
0
40
0
40
0
40
0
40
1
40
1
40
1
40
1
10
41.7892360108
20
61.437728749
30
0
10
41.3849479708
20
61.639941565
30
0
10
41.2116244828
20
61.783118677
30
0
10
40.5900568348
20
62.428334053
30
0
0
SPLINE
5
1B7
100
AcDbEntity
8
youmu
6
ByLayer
62
7
370
-1
100
AcDbSpline
210
0
220
0
230
1
70
8
71
3
72
8
73
4
74
0
42
1e-07
43
1e-07
40
0
40
0
40
0
40
0
40
1
40
1
40
1
40
1
10
40.5900568348
20
62.428334053
30
0
10
40.4250213148
20
62.599647013
30
0
10
40.0649315068
20
63.324318805
30
0
10
40.0649315068
20
63.485134213
30
0
0
SPLINE
5
1B8
100
AcDbEntity
8
youmu
6
ByLayer
62
7
370
-1
100
AcDbSpline
210
0
220
0
230
1
70
8
71
3
72
8
73
4
74
0
42
1e-07
43
1e-07
40
0
40
0
40
0
40
0
40
1
40
1
40
1
40
1
10
40.0649315068
20
63.485134213
30
0
10
40.0649315068
20
63.527210533
30
0
10
40.2364294828
20
63.387675085
30
0
10
40.4460385708
20
63.175056133
30
0
0
SPLINE
5
1B9
100
AcDbEntity
8
youmu
6
ByLayer
62
7
370
-1
100
AcDbSpline
210
0
220
0
230
1
70
8
71
3
72
8
73
4
74
0
42
1e-07
43
1e-07
40
0
40
0
40
0
40
0
40
1
40
1
40
1
40
1
10
40.4460385708
20
63.175056133
30
0
10
40.6557378268
20
62.962344829
30
0
10
41.0896636828
20
62.657661853
30
0
10
41.4108274348
20
62.497624885
30
0
0
SPLINE
5
1BA
100
AcDbEntity
8
youmu
6
ByLayer
62
7
370
-1
100
AcDbSpline
210
0
220
0
230
1
70
8
71
3
72
8
73
4
74
0
42
1e-07
43
1e-07
40
0
40
0
40
0
40
0
40
1
40
1
40
1
40
1
10
41.4108274348
20
62.497624885
30
0
10
41.9603165308
20
62.223811501
30
0
10
42.0514236508
20
62.204771077
30
0
10
42.9660051628
20
62.172596389
30
0
0
SPLINE
5
1BB
100
AcDbEntity
8
youmu
6
ByLayer
62
7
370
-1
100
AcDbSpline
210
0
220
0
230
1
70
8
71
3
72
8
73
4
74
0
42
1e-07
43
1e-07
40
0
40
0
40
0
40
0
40
1
40
1
40
1
40
1
10
42.9660051628
20
62.172596389
30
0
10
43.6987224988
20
62.146819573
30
0
10
44.2133434108
20
62.182230949
30
0
10
45.0598034668
20
62.316674557
30
0
0
SPLINE
5
1BC
100
AcDbEntity
8
youmu
6
ByLayer
62
7
370
-1
100
AcDbSpline
210
0
220
0
230
1
70
8
71
3
72
8
73
4
74
0
42
1e-07
43
1e-07
40
0
40
0
40
0
40
0
40
1
40
1
40
1
40
1
10
45.0598034668
20
62.316674557
30
0
10
47.0765577388
20
62.636994973
30
0
10
48.0677652028
20
62.817332533
30
0
10
48.2348499388
20
62.894334133
30
0
0
SPLINE
5
1BD
100
AcDbEntity
8
youmu
6
ByLayer
62
7
370
-1
100
AcDbSpline
210
0
220
0
230
1
70
8
71
3
72
8
73
4
74
0
42
1e-07
43
1e-07
40
0
40
0
40
0
40
0
40
1
40
1
40
1
40
1
10
48.2348499388
20
62.894334133
30
0
10
48.3912486748
20
62.966412061
30
0
10
48.9370065628
20
63.074091685
30
0
10
50.4928675708
20
63.339847981
30
0
0
SPLINE
5
1BE
100
AcDbEntity
8
youmu
6
ByLayer
62
7
370
-1
100
AcDbSpline
210
0
220
0
230
1
70
8
71
3
72
8
73
4
74
0
42
1e-07
43
1e-07
40
0
40
0
40
0
40
0
40
1
40
1
40
1
40
1
10
50.4928675708
20
63.339847981
30
0
10
51.7136655388
20
63.548372245
30
0
10
54.4313109628
20
63.872966125
30
0
10
55.7478904348
20
63.967504621
30
0
0
SPLINE
5
1BF
100
AcDbEntity
8
youmu
6
ByLayer
62
7
370
-1
100
AcDbSpline
210
0
220
0
230
1
70
8
71
3
72
8
73
4
74
0
42
1e-07
43
1e-07
40
0
40
0
40
0
40
0
40
1
40
1
40
1
40
1
10
55.7478904348
20
63.967504621
30
0
10
56.4478758508
20
64.017767197
30
0
10
57.0678725788
20
64.098065701
30
0
10
57.1256602828
20
64.145945533
30
0
0
SPLINE
5
1C0
100
AcDbEntity
8
youmu
6
ByLayer
62
7
370
-1
100
AcDbSpline
210
0
220
0
230
1
70
8
71
3
72
8
73
4
74
0
42
1e-07
43
1e-07
40
0
40
0
40
0
40
0
40
1
40
1
40
1
40
1
10
57.1256602828
20
64.145945533
30
0
10
57.1998769708
20
64.207437613
30
0
10
57.2896655788
20
64.206145621
30
0
10
57.4314464908
20
64.141542901
30
0
0
SPLINE
5
1C1
100
AcDbEntity
8
youmu
6
ByLayer
62
7
370
-1
100
AcDbSpline
210
0
220
0
230
1
70
8
71
3
72
8
73
4
74
0
42
1e-07
43
1e-07
40
0
40
0
40
0
40
0
40
1
40
1
40
1
40
1
10
57.4314464908
20
64.141542901
30
0
10
57.5418408268
20
64.091243197
30
0
10
58.0303264348
20
64.025881069
30
0
10
58.5169681228
20
63.996292549
30
0
0
SPLINE
5
1C2
100
AcDbEntity
8
youmu
6
ByLayer
62
7
370
-1
100
AcDbSpline
210
0
220
0
230
1
70
8
71
3
72
8
73
4
74
0
42
1e-07
43
1e-07
40
0
40
0
40
0
40
0
40
1
40
1
40
1
40
1
10
58.5169681228
20
63.996292549
30
0
10
59.0036113708
20
63.966704029
30
0
10
59.5896593788
20
63.895188013
30
0
10
59.8192969948
20
63.837367861
30
0
0
SPLINE
5
1C3
100
AcDbEntity
8
youmu
6
ByLayer
62
7
370
-1
100
AcDbSpline
210
0
220
0
230
1
70
8
71
3
72
8
73
4
74
0
42
1e-07
43
1e-07
40
0
40
0
40
0
40
0
40
1
40
1
40
1
40
1
10
59.8192969948
20
63.837367861
30
0
10
60.8345827468
20
63.581729725
30
0
10
61.8035121628
20
62.852378557
30
0
10
62.2464379708
20
62.010362317
30
0
0
SPLINE
5
1C4
100
AcDbEntity
8
youmu
6
ByLayer
62
7
370
-1
100
AcDbSpline
210
0
220
0
230
1
70
8
71
3
72
8
73
4
74
0
42
1e-07
43
1e-07
40
0
40
0
40
0
40
0
40
1
40
1
40
1
40
1
10
62.2464379708
20
62.010362317
30
0
10
62.4531273628
20
61.617440437
30
0
10
62.4808888108
20
61.478511517
30
0
10
62.4808888108
20
60.837095053
30
0
0
SPLINE
5
1C5
100
AcDbEntity
8
youmu
6
ByLayer
62
7
370
-1
100
AcDbSpline
210
0
220
0
230
1
70
8
71
3
72
8
73
4
74
0
42
1e-07
43
1e-07
40
0
40
0
40
0
40
0
40
1
40
1
40
1
40
1
10
62.4808888108
20
60.837095053
30
0
10
62.4808888108
20
59.765840557
30
0
10
62.2960752988
20
59.328584725
30
0
10
61.6138408108
20
58.785712837
30
0
0
SPLINE
5
1C6
100
AcDbEntity
8
youmu
6
ByLayer
62
7
370
-1
100
AcDbSpline
210
0
220
0
230
1
70
8
71
3
72
8
73
4
74
0
42
1e-07
43
1e-07
40
0
40
0
40
0
40
0
40
1
40
1
40
1
40
1
10
61.6138408108
20
58.785712837
30
0
10
61.3227020668
20
58.554047221
30
0
10
61.0658883148
20
58.284642709
30
0
10
61.0431432028
20
58.187034757
30
0
0
SPLINE
5
1C7
100
AcDbEntity
8
youmu
6
ByLayer
62
7
370
-1
100
AcDbSpline
210
0
220
0
230
1
70
8
71
3
72
8
73
4
74
0
42
1e-07
43
1e-07
40
0
40
0
40
0
40
0
40
1
40
1
40
1
40
1
10
61.0431432028
20
58.187034757
30
0
10
61.0203990268
20
58.089427741
30
0
10
60.9490187308
20
57.726451621
30
0
10
60.8845224028
20
57.380422093
30
0
0
SPLINE
5
1C8
100
AcDbEntity
8
youmu
6
ByLayer
62
7
370
-1
100
AcDbSpline
210
0
220
0
230
1
70
8
71
3
72
8
73
4
74
0
42
1e-07
43
1e-07
40
0
40
0
40
0
40
0
40
1
40
1
40
1
40
1
10
60.8845224028
20
57.380422093
30
0
10
60.7134169228
20
56.462437285
30
0
10
60.3376871788
20
55.639297045
30
0
10
59.8474019548
20
55.108320781
30
0
0
SPLINE
5
1C9
100
AcDbEntity
8
youmu
6
ByLayer
62
7
370
-1
100
AcDbSpline
210
0
220
0
230
1
70
8
71
3
72
8
73
4
74
0
42
1e-07
43
1e-07
40
0
40
0
40
0
40
0
40
1
40
1
40
1
40
1
10
59.8474019548
20
55.108320781
30
0
10
59.0248526428
20
54.217506493
30
0
10
57.0986875708
20
53.753205565
30
0
10
55.6589320588
20
54.098692525
30
0
0
LWPOLYLINE
5
1CA
100
AcDbEntity
8
youmu
6
ByLayer
62
7
370
-1
100
AcDbPolyline
90
3
70
0
43
0
10
52.4451773068
20
61.121664949
10
52.4857947148
20
61.359917821
10
50.9864690428
20
61.300735477
0
LWPOLYLINE
5
1CB
100
AcDbEntity
8
youmu
6
ByLayer
62
7
370
-1
100
AcDbPolyline
90
3
70
0
43
0
10
55.6589320588
20
54.098692525
10
55.6589320588
20
54.098692525
10
55.6589320588
20
54.098695957
0
ENDSEC
0
SECTION
2
OBJECTS
0
DICTIONARY
5
C
330
0
100
AcDbDictionary
281
1
3
ACAD_GROUP
350
D
0
DICTIONARY
5
D
330
C
100
AcDbDictionary
281
1
0
ENDSEC
0
EOF
