999
dxfrw 0.5.10
0
SECTION
2
HEADER
9
$ACADVER
1
AC1021
9
$HANDSEED
5
20000
9
$DWGCODEPAGE
3
ANSI_1252
9
$INSBASE
10
0
20
0
30
0
9
$EXTMIN
10
2.5
20
2.5
30
0
9
$EXTMAX
10
77.5
20
77.5
30
0
9
$LIMMIN
10
0
20
0
9
$LIMMAX
10
420
20
297
9
$ORTHOMODE
70
0
9
$LTSCALE
40
1
9
$TEXTSTYLE
7
STANDARD
9
$CLAYER
8
yuuka
9
$DIMASZ
40
2.5
9
$DIMLFAC
40
1
9
$DIMSCALE
40
1
9
$DIMEXO
40
0.625
9
$DIMEXE
40
1.25
9
$DIMTXT
40
2.5
9
$DIMTSZ
40
0
9
$DIMAUNIT
70
0
9
$DIMADEC
70
0
9
$DIMLUNIT
70
2
9
$DIMSTYLE
2
Standard
9
$DIMGAP
40
0.625
9
$DIMTIH
70
0
9
$LUNITS
70
2
9
$LUPREC
70
4
9
$AUNITS
70
0
9
$AUPREC
70
2
9
$SPLINESEGS
70
8
9
$GRIDMODE
70
0
9
$SNAPSTYLE
70
0
9
$PINSBASE
10
0
20
0
30
0
9
$PLIMMIN
10
0
20
0
9
$PLIMMAX
10
210
20
297
9
$INSUNITS
70
4
9
$PSVPSCALE
40
1
0
ENDSEC
0
SECTION
2
CLASSES
0
ENDSEC
0
SECTION
2
TABLES
0
TABLE
2
VPORT
5
8
330
0
100
AcDbSymbolTable
70
1
0
VPORT
5
31
330
2
100
AcDbSymbolTableRecord
100
AcDbViewportTableRecord
2
*ACTIVE
70
0
10
0
20
0
11
1
21
1
12
60.2054794521
22
39.2465753425
13
0
23
0
14
10
24
10
15
10
25
10
16
0
26
0
36
1
17
0
27
0
37
0
40
77.0547945205
41
2.08533333333
42
50
43
0
44
0
50
0
51
0
71
0
72
100
73
1
74
3
75
0
76
0
77
0
78
0
281
0
65
1
110
0
120
0
130
0
111
1
121
0
131
0
112
0
122
1
132
0
79
0
146
0
348
10020
60
7
61
5
292
1
282
1
141
0
142
0
63
250
421
3358443
0
ENDTAB
0
TABLE
2
LTYPE
5
5
330
0
100
AcDbSymbolTable
70
4
0
LTYPE
5
14
330
5
100
AcDbSymbolTableRecord
100
AcDbLinetypeTableRecord
2
ByBlock
70
0
3

72
65
73
0
40
0
0
LTYPE
5
15
330
5
100
AcDbSymbolTableRecord
100
AcDbLinetypeTableRecord
2
ByLayer
70
0
3

72
65
73
0
40
0
0
LTYPE
5
16
330
5
100
AcDbSymbolTableRecord
100
AcDbLinetypeTableRecord
2
Continuous
70
0
3
Solid line
72
65
73
0
40
0
0
LTYPE
5
32
330
5
100
AcDbSymbolTableRecord
100
AcDbLinetypeTableRecord
2
DOT
70
0
3
Dot . . . . . . . . . . . . . . . . . . . . . .
72
65
73
2
40
6.35
49
0
74
0
49
-6.35
74
0
0
LTYPE
5
33
330
5
100
AcDbSymbolTableRecord
100
AcDbLinetypeTableRecord
2
DOT2
70
0
3
Dot (.5x) .....................................
72
65
73
2
40
3.175
49
0
74
0
49
-3.175
74
0
0
LTYPE
5
34
330
5
100
AcDbSymbolTableRecord
100
AcDbLinetypeTableRecord
2
DOTX2
70
0
3
Dot (2x) .  .  .  .  .  .  .  .  .  .  .  .  .
72
65
73
2
40
12.7
49
0
74
0
49
-12.7
74
0
0
LTYPE
5
35
330
5
100
AcDbSymbolTableRecord
100
AcDbLinetypeTableRecord
2
DASHED
70
0
3
Dot . . . . . . . . . . . . . . . . . . . . . .
72
65
73
2
40
19.05
49
12.7
74
0
49
-6.35
74
0
0
LTYPE
5
36
330
5
100
AcDbSymbolTableRecord
100
AcDbLinetypeTableRecord
2
DASHED2
70
0
3
Dashed (.5x) _ _ _ _ _ _ _ _ _ _ _ _ _ _ _ _ _
72
65
73
2
40
9.525
49
6.35
74
0
49
-3.175
74
0
0
LTYPE
5
37
330
5
100
AcDbSymbolTableRecord
100
AcDbLinetypeTableRecord
2
DASHEDX2
70
0
3
Dashed (2x) ____  ____  ____  ____  ____  ___
72
65
73
2
40
38.1
49
25.4
74
0
49
-12.7
74
0
0
LTYPE
5
38
330
5
100
AcDbSymbolTableRecord
100
AcDbLinetypeTableRecord
2
DASHDOT
70
0
3
Dash dot __ . __ . __ . __ . __ . __ . __ . __
72
65
73
4
40
25.4
49
12.7
74
0
49
-6.35
74
0
49
0
74
0
49
-6.35
74
0
0
LTYPE
5
39
330
5
100
AcDbSymbolTableRecord
100
AcDbLinetypeTableRecord
2
DASHDOT2
70
0
3
Dash dot (.5x) _._._._._._._._._._._._._._._.
72
65
73
4
40
12.7
49
6.35
74
0
49
-3.175
74
0
49
0
74
0
49
-3.175
74
0
0
LTYPE
5
3A
330
5
100
AcDbSymbolTableRecord
100
AcDbLinetypeTableRecord
2
DASHDOTX2
70
0
3
Dash dot (2x) ____  .  ____  .  ____  .  ___
72
65
73
4
40
50.8
49
25.4
74
0
49
-12.7
74
0
49
0
74
0
49
-12.7
74
0
0
LTYPE
5
3B
330
5
100
AcDbSymbolTableRecord
100
AcDbLinetypeTableRecord
2
DIVIDE
70
0
3
Divide ____ . . ____ . . ____ . . ____ . . ____
72
65
73
6
40
31.75
49
12.7
74
0
49
-6.35
74
0
49
0
74
0
49
-6.35
74
0
49
0
74
0
49
-6.35
74
0
0
LTYPE
5
3C
330
5
100
AcDbSymbolTableRecord
100
AcDbLinetypeTableRecord
2
DIVIDE2
70
0
3
Divide (.5x) __..__..__..__..__..__..__..__.._
72
65
73
6
40
15.875
49
6.35
74
0
49
-3.175
74
0
49
0
74
0
49
-3.175
74
0
49
0
74
0
49
-3.175
74
0
0
LTYPE
5
3D
330
5
100
AcDbSymbolTableRecord
100
AcDbLinetypeTableRecord
2
DIVIDEX2
70
0
3
Divide (2x) ________  .  .  ________  .  .  _
72
65
73
6
40
63.5
49
25.4
74
0
49
-12.7
74
0
49
0
74
0
49
-12.7
74
0
49
0
74
0
49
-12.7
74
0
0
LTYPE
5
3E
330
5
100
AcDbSymbolTableRecord
100
AcDbLinetypeTableRecord
2
BORDER
70
0
3
Border __ __ . __ __ . __ __ . __ __ . __ __ .
72
65
73
6
40
44.45
49
12.7
74
0
49
-6.35
74
0
49
12.7
74
0
49
-6.35
74
0
49
0
74
0
49
-6.35
74
0
0
LTYPE
5
3F
330
5
100
AcDbSymbolTableRecord
100
AcDbLinetypeTableRecord
2
BORDER2
70
0
3
Border (.5x) __.__.__.__.__.__.__.__.__.__.__.
72
65
73
6
40
22.225
49
6.35
74
0
49
-3.175
74
0
49
6.35
74
0
49
-3.175
74
0
49
0
74
0
49
-3.175
74
0
0
LTYPE
5
40
330
5
100
AcDbSymbolTableRecord
100
AcDbLinetypeTableRecord
2
BORDERX2
70
0
3
Border (2x) ____  ____  .  ____  ____  .  ___
72
65
73
6
40
88.9
49
25.4
74
0
49
-12.7
74
0
49
25.4
74
0
49
-12.7
74
0
49
0
74
0
49
-12.7
74
0
0
LTYPE
5
41
330
5
100
AcDbSymbolTableRecord
100
AcDbLinetypeTableRecord
2
CENTER
70
0
3
Center ____ _ ____ _ ____ _ ____ _ ____ _ ____
72
65
73
4
40
50.8
49
31.75
74
0
49
-6.35
74
0
49
6.35
74
0
49
-6.35
74
0
0
LTYPE
5
42
330
5
100
AcDbSymbolTableRecord
100
AcDbLinetypeTableRecord
2
CENTER2
70
0
3
Center (.5x) ___ _ ___ _ ___ _ ___ _ ___ _ ___
72
65
73
4
40
28.575
49
19.05
74
0
49
-3.175
74
0
49
3.175
74
0
49
-3.175
74
0
0
LTYPE
5
43
330
5
100
AcDbSymbolTableRecord
100
AcDbLinetypeTableRecord
2
CENTERX2
70
0
3
Center (2x) ________  __  ________  __  _____
72
65
73
4
40
101.6
49
63.5
74
0
49
-12.7
74
0
49
12.7
74
0
49
-12.7
74
0
0
ENDTAB
0
TABLE
2
LAYER
5
2
330
0
100
AcDbSymbolTable
70
1
0
LAYER
5
10
330
2
100
AcDbSymbolTableRecord
100
AcDbLayerTableRecord
2
0
70
0
62
7
6
CONTINUOUS
370
-3
390
F
0
LAYER
5
44
330
2
100
AcDbSymbolTableRecord
100
AcDbLayerTableRecord
2
yuuka
70
0
62
7
6
CONTINUOUS
370
0
390
F
0
ENDTAB
0
TABLE
2
STYLE
5
3
330
0
100
AcDbSymbolTable
70
3
0
STYLE
5
45
330
2
100
AcDbSymbolTableRecord
100
AcDbTextStyleTableRecord
2
Standard
70
0
40
0
41
1
50
0
71
0
42
1
3
txt
4

0
ENDTAB
0
TABLE
2
VIEW
5
6
330
0
100
AcDbSymbolTable
70
0
0
ENDTAB
0
TABLE
2
UCS
5
7
330
0
100
AcDbSymbolTable
70
0
0
ENDTAB
0
TABLE
2
APPID
5
9
330
0
100
AcDbSymbolTable
70
1
0
APPID
5
12
330
9
100
AcDbSymbolTableRecord
100
AcDbRegAppTableRecord
2
ACAD
70
0
0
ENDTAB
0
TABLE
2
DIMSTYLE
5
A
330
0
100
AcDbSymbolTable
70
1
100
AcDbDimStyleTable
71
1
0
DIMSTYLE
105
46
330
A
100
AcDbSymbolTableRecord
100
AcDbDimStyleTableRecord
2
Standard
70
0
40
1
41
2.5
42
0.625
43
0.38
44
1.25
45
0
46
0
47
0
48
0
140
2.5
141
0.09
142
0
143
25.4
144
1
145
0
146
1
147
0.625
148
0
71
0
72
0
73
0
74
1
75
0
76
0
77
0
78
0
79
0
170
0
171
2
172
0
173
0
174
0
175
0
176
0
177
0
178
0
179
0
271
4
272
4
273
2
274
2
275
0
276
0
277
2
278
46
279
0
280
0
281
0
282
0
283
1
284
0
285
0
286
0
288
0
289
3
340
Standard
341

371
-2
372
-2
0
ENDTAB
0
TABLE
2
BLOCK_RECORD
5
1
330
0
100
AcDbSymbolTable
70
2
0
BLOCK_RECORD
5
1F
330
1
100
AcDbSymbolTableRecord
100
AcDbBlockTableRecord
2
*Model_Space
70
0
280
1
281
0
0
BLOCK_RECORD
5
1E
330
1
100
AcDbSymbolTableRecord
100
AcDbBlockTableRecord
2
*Paper_Space
70
0
280
1
281
0
0
ENDTAB
0
ENDSEC
0
SECTION
2
BLOCKS
0
BLOCK
5
20
330
1F
100
AcDbEntity
8
0
100
AcDbBlockBegin
2
*Model_Space
70
0
10
0
20
0
30
0
3
*Model_Space
1

0
ENDBLK
5
21
330
1F
100
AcDbEntity
8
0
100
AcDbBlockEnd
0
BLOCK
5
1C
330
1B
100
AcDbEntity
8
0
100
AcDbBlockBegin
2
*Paper_Space
70
0
10
0
20
0
30
0
3
*Paper_Space
1

0
ENDBLK
5
1D
330
1F
100
AcDbEntity
8
0
100
AcDbBlockEnd
0
ENDSEC
0
SECTION
2
ENTITIES
0
CIRCLE
5
47
100
AcDbEntity
8
0
6
ByLayer
62
256
370
-1
100
AcDbCircle
10
40
20
40
40
37.5
0
SPLINE
5
48
100
AcDbEntity
8
yuuka
6
ByLayer
62
7
370
-1
100
AcDbSpline
210
0
220
0
230
1
70
8
71
3
72
8
73
4
74
0
42
1e-07
43
1e-07
40
0
40
0
40
0
40
0
40
1
40
1
40
1
40
1
10
41.0406247479
20
68.4388189329
30
0
10
40.2608320479
20
68.4316144329
30
0
10
39.8635624479
20
68.3983303329
30
0
10
39.7441663479
20
68.3329855329
30
0
0
SPLINE
5
49
100
AcDbEntity
8
yuuka
6
ByLayer
62
7
370
-1
100
AcDbSpline
210
0
220
0
230
1
70
8
71
3
72
8
73
4
74
0
42
1e-07
43
1e-07
40
0
40
0
40
0
40
0
40
1
40
1
40
1
40
1
10
39.7441663479
20
68.3329855329
30
0
10
39.6199399479
20
68.2649965329
30
0
10
39.2770399479
20
68.1636691329
30
0
10
38.9821663479
20
68.1080899329
30
0
0
SPLINE
5
4A
100
AcDbEntity
8
yuuka
6
ByLayer
62
7
370
-1
100
AcDbSpline
210
0
220
0
230
1
70
8
71
3
72
8
73
4
74
0
42
1e-07
43
1e-07
40
0
40
0
40
0
40
0
40
1
40
1
40
1
40
1
10
38.9821663479
20
68.1080899329
30
0
10
38.4061036479
20
67.9995100329
30
0
10
37.3068121479
20
67.6923664329
30
0
10
36.5665204479
20
67.4334022329
30
0
0
SPLINE
5
4B
100
AcDbEntity
8
yuuka
6
ByLayer
62
7
370
-1
100
AcDbSpline
210
0
220
0
230
1
70
8
71
3
72
8
73
4
74
0
42
1e-07
43
1e-07
40
0
40
0
40
0
40
0
40
1
40
1
40
1
40
1
10
36.5665204479
20
67.4334022329
30
0
10
35.4455881479
20
67.0412839329
30
0
10
35.2797616479
20
66.9809284329
30
0
10
34.9922497479
20
66.8486731329
30
0
0
SPLINE
5
4C
100
AcDbEntity
8
yuuka
6
ByLayer
62
7
370
-1
100
AcDbSpline
210
0
220
0
230
1
70
8
71
3
72
8
73
4
74
0
42
1e-07
43
1e-07
40
0
40
0
40
0
40
0
40
1
40
1
40
1
40
1
10
34.9922497479
20
66.8486731329
30
0
10
34.8246097479
20
66.7715587329
30
0
10
34.3674097479
20
66.5643895329
30
0
10
33.9762496479
20
66.3882982329
30
0
0
SPLINE
5
4D
100
AcDbEntity
8
yuuka
6
ByLayer
62
7
370
-1
100
AcDbSpline
210
0
220
0
230
1
70
8
71
3
72
8
73
4
74
0
42
1e-07
43
1e-07
40
0
40
0
40
0
40
0
40
1
40
1
40
1
40
1
10
33.9762496479
20
66.3882982329
30
0
10
33.5850898479
20
66.2122075329
30
0
10
33.1278898479
20
65.9942026329
30
0
10
32.9602498479
20
65.9041105329
30
0
0
SPLINE
5
4E
100
AcDbEntity
8
yuuka
6
ByLayer
62
7
370
-1
100
AcDbSpline
210
0
220
0
230
1
70
8
71
3
72
8
73
4
74
0
42
1e-07
43
1e-07
40
0
40
0
40
0
40
0
40
1
40
1
40
1
40
1
10
32.9602498479
20
65.9041105329
30
0
10
32.7926098479
20
65.8140193329
30
0
10
32.5640098479
20
65.6942371329
30
0
10
32.4522496479
20
65.6395273329
30
0
0
SPLINE
5
4F
100
AcDbEntity
8
yuuka
6
ByLayer
62
7
370
-1
100
AcDbSpline
210
0
220
0
230
1
70
8
71
3
72
8
73
4
74
0
42
1e-07
43
1e-07
40
0
40
0
40
0
40
0
40
1
40
1
40
1
40
1
10
32.4522496479
20
65.6395273329
30
0
10
32.3404897479
20
65.5848166329
30
0
10
32.1788821479
20
65.5027084329
30
0
10
32.0950621479
20
65.4543190329
30
0
0
SPLINE
5
50
100
AcDbEntity
8
yuuka
6
ByLayer
62
7
370
-1
100
AcDbSpline
210
0
220
0
230
1
70
8
71
3
72
8
73
4
74
0
42
1e-07
43
1e-07
40
0
40
0
40
0
40
0
40
1
40
1
40
1
40
1
10
32.0950621479
20
65.4543190329
30
0
10
32.0112421479
20
65.4059302329
30
0
10
31.7833567479
20
65.2863319329
30
0
10
31.5870622479
20
65.1897355329
30
0
0
SPLINE
5
51
100
AcDbEntity
8
yuuka
6
ByLayer
62
7
370
-1
100
AcDbSpline
210
0
220
0
230
1
70
8
71
3
72
8
73
4
74
0
42
1e-07
43
1e-07
40
0
40
0
40
0
40
0
40
1
40
1
40
1
40
1
10
31.5870622479
20
65.1897355329
30
0
10
31.3907683479
20
65.0931403329
30
0
10
31.0852801479
20
64.9106530329
30
0
10
30.9097288479
20
64.7849230329
30
0
0
SPLINE
5
52
100
AcDbEntity
8
yuuka
6
ByLayer
62
7
370
-1
100
AcDbSpline
210
0
220
0
230
1
70
8
71
3
72
8
73
4
74
0
42
1e-07
43
1e-07
40
0
40
0
40
0
40
0
40
1
40
1
40
1
40
1
10
30.9097288479
20
64.7849230329
30
0
10
30.7341760479
20
64.6591930329
30
0
10
30.5574790479
20
64.5573814329
30
0
10
30.5154997479
20
64.5573814329
30
0
0
SPLINE
5
53
100
AcDbEntity
8
yuuka
6
ByLayer
62
7
370
-1
100
AcDbSpline
210
0
220
0
230
1
70
8
71
3
72
8
73
4
74
0
42
1e-07
43
1e-07
40
0
40
0
40
0
40
0
40
1
40
1
40
1
40
1
10
30.5154997479
20
64.5573814329
30
0
10
30.4735210479
20
64.5573814329
30
0
10
30.2885524479
20
64.4430814329
30
0
10
30.1053955479
20
64.3033816329
30
0
0
SPLINE
5
54
100
AcDbEntity
8
yuuka
6
ByLayer
62
7
370
-1
100
AcDbSpline
210
0
220
0
230
1
70
8
71
3
72
8
73
4
74
0
42
1e-07
43
1e-07
40
0
40
0
40
0
40
0
40
1
40
1
40
1
40
1
10
30.1053955479
20
64.3033816329
30
0
10
29.9222395479
20
64.1636815329
30
0
10
29.7523432479
20
64.0493815329
30
0
10
29.7270412479
20
64.0493815329
30
0
0
SPLINE
5
55
100
AcDbEntity
8
yuuka
6
ByLayer
62
7
370
-1
100
AcDbSpline
210
0
220
0
230
1
70
8
71
3
72
8
73
4
74
0
42
1e-07
43
1e-07
40
0
40
0
40
0
40
0
40
1
40
1
40
1
40
1
10
29.7270412479
20
64.0493815329
30
0
10
29.7017413479
20
64.0493815329
30
0
10
29.3983255479
20
63.8556007329
30
0
10
29.0523538479
20
63.6181105329
30
0
0
SPLINE
5
56
100
AcDbEntity
8
yuuka
6
ByLayer
62
7
370
-1
100
AcDbSpline
210
0
220
0
230
1
70
8
71
3
72
8
73
4
74
0
42
1e-07
43
1e-07
40
0
40
0
40
0
40
0
40
1
40
1
40
1
40
1
10
29.0523538479
20
63.6181105329
30
0
10
28.7063821479
20
63.3806206329
30
0
10
28.3286095479
20
63.1325737329
30
0
10
28.2136246479
20
63.0677773329
30
0
0
SPLINE
5
57
100
AcDbEntity
8
yuuka
6
ByLayer
62
7
370
-1
100
AcDbSpline
210
0
220
0
230
1
70
8
71
3
72
8
73
4
74
0
42
1e-07
43
1e-07
40
0
40
0
40
0
40
0
40
1
40
1
40
1
40
1
10
28.2136246479
20
63.0677773329
30
0
10
28.0986406479
20
63.0029812329
30
0
10
27.9754651479
20
62.9084119329
30
0
10
27.9411037479
20
62.8587565329
30
0
0
SPLINE
5
58
100
AcDbEntity
8
yuuka
6
ByLayer
62
7
370
-1
100
AcDbSpline
210
0
220
0
230
1
70
8
71
3
72
8
73
4
74
0
42
1e-07
43
1e-07
40
0
40
0
40
0
40
0
40
1
40
1
40
1
40
1
10
27.9411037479
20
62.8587565329
30
0
10
27.9067426479
20
62.8091002329
30
0
10
27.7359304479
20
62.6692726329
30
0
10
27.5601037479
20
62.5465480329
30
0
0
SPLINE
5
59
100
AcDbEntity
8
yuuka
6
ByLayer
62
7
370
-1
100
AcDbSpline
210
0
220
0
230
1
70
8
71
3
72
8
73
4
74
0
42
1e-07
43
1e-07
40
0
40
0
40
0
40
0
40
1
40
1
40
1
40
1
10
27.5601037479
20
62.5465480329
30
0
10
27.1775215479
20
62.2795102329
30
0
10
27.0166972479
20
62.3401222329
30
0
10
26.3059789479
20
63.0148606329
30
0
0
SPLINE
5
5A
100
AcDbEntity
8
yuuka
6
ByLayer
62
7
370
-1
100
AcDbSpline
210
0
220
0
230
1
70
8
71
3
72
8
73
4
74
0
42
1e-07
43
1e-07
40
0
40
0
40
0
40
0
40
1
40
1
40
1
40
1
10
26.3059789479
20
63.0148606329
30
0
10
25.1639830479
20
64.0990435329
30
0
10
24.9088579479
20
64.3256413329
30
0
10
24.5279788479
20
64.6050064329
30
0
0
SPLINE
5
5B
100
AcDbEntity
8
yuuka
6
ByLayer
62
7
370
-1
100
AcDbSpline
210
0
220
0
230
1
70
8
71
3
72
8
73
4
74
0
42
1e-07
43
1e-07
40
0
40
0
40
0
40
0
40
1
40
1
40
1
40
1
10
24.5279788479
20
64.6050064329
30
0
10
24.3044587479
20
64.7689534329
30
0
10
24.1047514479
20
64.9391359329
30
0
10
24.0861247479
20
64.9833607329
30
0
0
SPLINE
5
5C
100
AcDbEntity
8
yuuka
6
ByLayer
62
7
370
-1
100
AcDbSpline
210
0
220
0
230
1
70
8
71
3
72
8
73
4
74
0
42
1e-07
43
1e-07
40
0
40
0
40
0
40
0
40
1
40
1
40
1
40
1
10
24.0861247479
20
64.9833607329
30
0
10
24.0674980479
20
65.0275846329
30
0
10
23.9964610479
20
65.0653816329
30
0
10
23.9273746479
20
65.0653816329
30
0
0
SPLINE
5
5D
100
AcDbEntity
8
yuuka
6
ByLayer
62
7
370
-1
100
AcDbSpline
210
0
220
0
230
1
70
8
71
3
72
8
73
4
74
0
42
1e-07
43
1e-07
40
0
40
0
40
0
40
0
40
1
40
1
40
1
40
1
10
23.9273746479
20
65.0653816329
30
0
10
23.8582885479
20
65.0653816329
30
0
10
23.7022384479
20
65.1796816329
30
0
10
23.5807705479
20
65.3193814329
30
0
0
SPLINE
5
5E
100
AcDbEntity
8
yuuka
6
ByLayer
62
7
370
-1
100
AcDbSpline
210
0
220
0
230
1
70
8
71
3
72
8
73
4
74
0
42
1e-07
43
1e-07
40
0
40
0
40
0
40
0
40
1
40
1
40
1
40
1
10
23.5807705479
20
65.3193814329
30
0
10
23.4593026479
20
65.4590815329
30
0
10
23.3100961479
20
65.5733815329
30
0
10
23.2500412479
20
65.5733815329
30
0
0
SPLINE
5
5F
100
AcDbEntity
8
yuuka
6
ByLayer
62
7
370
-1
100
AcDbSpline
210
0
220
0
230
1
70
8
71
3
72
8
73
4
74
0
42
1e-07
43
1e-07
40
0
40
0
40
0
40
0
40
1
40
1
40
1
40
1
10
23.2500412479
20
65.5733815329
30
0
10
23.1318856479
20
65.5733815329
30
0
10
23.4545239479
20
65.0766700329
30
0
10
23.7104164479
20
64.8642982329
30
0
0
SPLINE
5
60
100
AcDbEntity
8
yuuka
6
ByLayer
62
7
370
-1
100
AcDbSpline
210
0
220
0
230
1
70
8
71
3
72
8
73
4
74
0
42
1e-07
43
1e-07
40
0
40
0
40
0
40
0
40
1
40
1
40
1
40
1
10
23.7104164479
20
64.8642982329
30
0
10
23.7968449479
20
64.7925685329
30
0
10
23.8665205479
20
64.6885918329
30
0
10
23.8665205479
20
64.6314649329
30
0
0
SPLINE
5
61
100
AcDbEntity
8
yuuka
6
ByLayer
62
7
370
-1
100
AcDbSpline
210
0
220
0
230
1
70
8
71
3
72
8
73
4
74
0
42
1e-07
43
1e-07
40
0
40
0
40
0
40
0
40
1
40
1
40
1
40
1
10
23.8665205479
20
64.6314649329
30
0
10
23.8665205479
20
64.5743377329
30
0
10
23.9583772479
20
64.4316049329
30
0
10
24.0702496479
20
64.3139647329
30
0
0
SPLINE
5
62
100
AcDbEntity
8
yuuka
6
ByLayer
62
7
370
-1
100
AcDbSpline
210
0
220
0
230
1
70
8
71
3
72
8
73
4
74
0
42
1e-07
43
1e-07
40
0
40
0
40
0
40
0
40
1
40
1
40
1
40
1
10
24.0702496479
20
64.3139647329
30
0
10
25.0050010479
20
63.3310186329
30
0
10
26.4065206479
20
61.7067241329
30
0
10
26.4065206479
20
61.6072774329
30
0
0
SPLINE
5
63
100
AcDbEntity
8
yuuka
6
ByLayer
62
7
370
-1
100
AcDbSpline
210
0
220
0
230
1
70
8
71
3
72
8
73
4
74
0
42
1e-07
43
1e-07
40
0
40
0
40
0
40
0
40
1
40
1
40
1
40
1
10
26.4065206479
20
61.6072774329
30
0
10
26.4065206479
20
61.4960506329
30
0
10
26.1247303479
20
61.1275129329
30
0
10
25.5863122479
20
60.5304232329
30
0
0
SPLINE
5
64
100
AcDbEntity
8
yuuka
6
ByLayer
62
7
370
-1
100
AcDbSpline
210
0
220
0
230
1
70
8
71
3
72
8
73
4
74
0
42
1e-07
43
1e-07
40
0
40
0
40
0
40
0
40
1
40
1
40
1
40
1
10
25.5863122479
20
60.5304232329
30
0
10
25.4784316479
20
60.4107874329
30
0
10
25.3905205479
20
60.2835148329
30
0
10
25.3905205479
20
60.2499649329
30
0
0
SPLINE
5
65
100
AcDbEntity
8
yuuka
6
ByLayer
62
7
370
-1
100
AcDbSpline
210
0
220
0
230
1
70
8
71
3
72
8
73
4
74
0
42
1e-07
43
1e-07
40
0
40
0
40
0
40
0
40
1
40
1
40
1
40
1
10
25.3905205479
20
60.2499649329
30
0
10
25.3905205479
20
60.1941280329
30
0
10
24.8708203479
20
59.4741226329
30
0
10
24.5200414479
20
59.0434648329
30
0
0
SPLINE
5
66
100
AcDbEntity
8
yuuka
6
ByLayer
62
7
370
-1
100
AcDbSpline
210
0
220
0
230
1
70
8
71
3
72
8
73
4
74
0
42
1e-07
43
1e-07
40
0
40
0
40
0
40
0
40
1
40
1
40
1
40
1
10
24.5200414479
20
59.0434648329
30
0
10
24.4398688479
20
58.9450363329
30
0
10
24.3745204479
20
58.8005569329
30
0
10
24.3745204479
20
58.7206732329
30
0
0
SPLINE
5
67
100
AcDbEntity
8
yuuka
6
ByLayer
62
7
370
-1
100
AcDbSpline
210
0
220
0
230
1
70
8
71
3
72
8
73
4
74
0
42
1e-07
43
1e-07
40
0
40
0
40
0
40
0
40
1
40
1
40
1
40
1
10
24.3745204479
20
58.7206732329
30
0
10
24.3745204479
20
58.6407901329
30
0
10
24.3278623479
20
58.5465901329
30
0
10
24.2713330479
20
58.5116524329
30
0
0
SPLINE
5
68
100
AcDbEntity
8
yuuka
6
ByLayer
62
7
370
-1
100
AcDbSpline
210
0
220
0
230
1
70
8
71
3
72
8
73
4
74
0
42
1e-07
43
1e-07
40
0
40
0
40
0
40
0
40
1
40
1
40
1
40
1
10
24.2713330479
20
58.5116524329
30
0
10
24.1522054479
20
58.4380279329
30
0
10
23.4683941479
20
57.3863740329
30
0
10
23.3849788479
20
57.1490482329
30
0
0
SPLINE
5
69
100
AcDbEntity
8
yuuka
6
ByLayer
62
7
370
-1
100
AcDbSpline
210
0
220
0
230
1
70
8
71
3
72
8
73
4
74
0
42
1e-07
43
1e-07
40
0
40
0
40
0
40
0
40
1
40
1
40
1
40
1
10
23.3849788479
20
57.1490482329
30
0
10
23.3539687479
20
57.0608221329
30
0
10
23.2694224479
20
56.9180140329
30
0
10
23.1997705479
20
56.8341940329
30
0
0
SPLINE
5
6A
100
AcDbEntity
8
yuuka
6
ByLayer
62
7
370
-1
100
AcDbSpline
210
0
220
0
230
1
70
8
71
3
72
8
73
4
74
0
42
1e-07
43
1e-07
40
0
40
0
40
0
40
0
40
1
40
1
40
1
40
1
10
23.1997705479
20
56.8341940329
30
0
10
23.0861284479
20
56.6974354329
30
0
10
22.7755432479
20
56.1386269329
30
0
10
22.2393331479
20
55.1091106329
30
0
0
SPLINE
5
6B
100
AcDbEntity
8
yuuka
6
ByLayer
62
7
370
-1
100
AcDbSpline
210
0
220
0
230
1
70
8
71
3
72
8
73
4
74
0
42
1e-07
43
1e-07
40
0
40
0
40
0
40
0
40
1
40
1
40
1
40
1
10
22.2393331479
20
55.1091106329
30
0
10
21.8822362479
20
54.4234900329
30
0
10
21.3265204479
20
53.1934765329
30
0
10
21.3265204479
20
53.0876941329
30
0
0
SPLINE
5
6C
100
AcDbEntity
8
yuuka
6
ByLayer
62
7
370
-1
100
AcDbSpline
210
0
220
0
230
1
70
8
71
3
72
8
73
4
74
0
42
1e-07
43
1e-07
40
0
40
0
40
0
40
0
40
1
40
1
40
1
40
1
10
21.3265204479
20
53.0876941329
30
0
10
21.3265204479
20
53.0289421329
30
0
10
21.2382097479
20
52.7842825329
30
0
10
21.1307287479
20
52.5452980329
30
0
0
SPLINE
5
6D
100
AcDbEntity
8
yuuka
6
ByLayer
62
7
370
-1
100
AcDbSpline
210
0
220
0
230
1
70
8
71
3
72
8
73
4
74
0
42
1e-07
43
1e-07
40
0
40
0
40
0
40
0
40
1
40
1
40
1
40
1
10
21.1307287479
20
52.5452980329
30
0
10
20.8510519479
20
51.9234349329
30
0
10
20.3916592479
20
50.4620782329
30
0
10
20.3078746479
20
49.9259230329
30
0
0
SPLINE
5
6E
100
AcDbEntity
8
yuuka
6
ByLayer
62
7
370
-1
100
AcDbSpline
210
0
220
0
230
1
70
8
71
3
72
8
73
4
74
0
42
1e-07
43
1e-07
40
0
40
0
40
0
40
0
40
1
40
1
40
1
40
1
10
20.3078746479
20
49.9259230329
30
0
10
20.2685791479
20
49.6744630329
30
0
10
20.1352123479
20
48.8520322329
30
0
10
20.0088955479
20
48.0976522329
30
0
0
SPLINE
5
6F
100
AcDbEntity
8
yuuka
6
ByLayer
62
7
370
-1
100
AcDbSpline
210
0
220
0
230
1
70
8
71
3
72
8
73
4
74
0
42
1e-07
43
1e-07
40
0
40
0
40
0
40
0
40
1
40
1
40
1
40
1
10
20.0088955479
20
48.0976522329
30
0
10
19.6346554479
20
45.8626402329
30
0
10
19.8206350479
20
43.4051005329
30
0
10
20.5777498479
20
40.5781939329
30
0
0
SPLINE
5
70
100
AcDbEntity
8
yuuka
6
ByLayer
62
7
370
-1
100
AcDbSpline
210
0
220
0
230
1
70
8
71
3
72
8
73
4
74
0
42
1e-07
43
1e-07
40
0
40
0
40
0
40
0
40
1
40
1
40
1
40
1
10
20.5777498479
20
40.5781939329
30
0
10
20.8985245479
20
39.3804874329
30
0
10
20.8860973479
20
39.4053091329
30
0
10
21.4720414479
20
38.9086732329
30
0
0
SPLINE
5
71
100
AcDbEntity
8
yuuka
6
ByLayer
62
7
370
-1
100
AcDbSpline
210
0
220
0
230
1
70
8
71
3
72
8
73
4
74
0
42
1e-07
43
1e-07
40
0
40
0
40
0
40
0
40
1
40
1
40
1
40
1
10
21.4720414479
20
38.9086732329
30
0
10
21.8858962479
20
38.5578958329
30
0
10
21.9722545479
20
38.5198450329
30
0
10
22.0752913479
20
38.6493814329
30
0
0
SPLINE
5
72
100
AcDbEntity
8
yuuka
6
ByLayer
62
7
370
-1
100
AcDbSpline
210
0
220
0
230
1
70
8
71
3
72
8
73
4
74
0
42
1e-07
43
1e-07
40
0
40
0
40
0
40
0
40
1
40
1
40
1
40
1
10
22.0752913479
20
38.6493814329
30
0
10
22.1414701479
20
38.7325801329
30
0
10
22.2849640479
20
38.8523605329
30
0
10
22.3954372479
20
38.9139649329
30
0
0
SPLINE
5
73
100
AcDbEntity
8
yuuka
6
ByLayer
62
7
370
-1
100
AcDbSpline
210
0
220
0
230
1
70
8
71
3
72
8
73
4
74
0
42
1e-07
43
1e-07
40
0
40
0
40
0
40
0
40
1
40
1
40
1
40
1
10
22.3954372479
20
38.9139649329
30
0
10
22.5417523479
20
38.9955556329
30
0
10
22.6057129479
20
39.1520821329
30
0
10
22.6282705479
20
39.4960480329
30
0
0
SPLINE
5
74
100
AcDbEntity
8
yuuka
6
ByLayer
62
7
370
-1
100
AcDbSpline
210
0
220
0
230
1
70
8
71
3
72
8
73
4
74
0
42
1e-07
43
1e-07
40
0
40
0
40
0
40
0
40
1
40
1
40
1
40
1
10
22.6282705479
20
39.4960480329
30
0
10
22.6569124479
20
39.9327928329
30
0
10
22.6792651479
20
39.9702322329
30
0
10
22.9325413479
20
39.9722980329
30
0
0
SPLINE
5
75
100
AcDbEntity
8
yuuka
6
ByLayer
62
7
370
-1
100
AcDbSpline
210
0
220
0
230
1
70
8
71
3
72
8
73
4
74
0
42
1e-07
43
1e-07
40
0
40
0
40
0
40
0
40
1
40
1
40
1
40
1
10
22.9325413479
20
39.9722980329
30
0
10
23.4059500479
20
39.9761563329
30
0
10
23.9991685479
20
40.3262506329
30
0
10
24.5941246479
20
40.9539022329
30
0
0
SPLINE
5
76
100
AcDbEntity
8
yuuka
6
ByLayer
62
7
370
-1
100
AcDbSpline
210
0
220
0
230
1
70
8
71
3
72
8
73
4
74
0
42
1e-07
43
1e-07
40
0
40
0
40
0
40
0
40
1
40
1
40
1
40
1
10
24.5941246479
20
40.9539022329
30
0
10
25.1889952479
20
41.5814644329
30
0
10
25.3894537479
20
42.0292825329
30
0
10
25.3905205479
20
42.7319023329
30
0
0
SPLINE
5
77
100
AcDbEntity
8
yuuka
6
ByLayer
62
7
370
-1
100
AcDbSpline
210
0
220
0
230
1
70
8
71
3
72
8
73
4
74
0
42
1e-07
43
1e-07
40
0
40
0
40
0
40
0
40
1
40
1
40
1
40
1
10
25.3905205479
20
42.7319023329
30
0
10
25.3915525479
20
43.4141530329
30
0
10
25.5222475479
20
43.5908932329
30
0
10
26.1207706479
20
43.7214439329
30
0
0
SPLINE
5
78
100
AcDbEntity
8
yuuka
6
ByLayer
62
7
370
-1
100
AcDbSpline
210
0
220
0
230
1
70
8
71
3
72
8
73
4
74
0
42
1e-07
43
1e-07
40
0
40
0
40
0
40
0
40
1
40
1
40
1
40
1
10
26.1207706479
20
43.7214439329
30
0
10
27.5495797479
20
44.0330977329
30
0
10
27.9827785479
20
44.2179073329
30
0
10
28.5602287479
20
44.7665482329
30
0
0
SPLINE
5
79
100
AcDbEntity
8
yuuka
6
ByLayer
62
7
370
-1
100
AcDbSpline
210
0
220
0
230
1
70
8
71
3
72
8
73
4
74
0
42
1e-07
43
1e-07
40
0
40
0
40
0
40
0
40
1
40
1
40
1
40
1
10
28.5602287479
20
44.7665482329
30
0
10
29.0838703479
20
45.2640640329
30
0
10
29.6582497479
20
46.4993098329
30
0
10
29.6582497479
20
47.1266314329
30
0
0
SPLINE
5
7A
100
AcDbEntity
8
yuuka
6
ByLayer
62
7
370
-1
100
AcDbSpline
210
0
220
0
230
1
70
8
71
3
72
8
73
4
74
0
42
1e-07
43
1e-07
40
0
40
0
40
0
40
0
40
1
40
1
40
1
40
1
10
29.6582497479
20
47.1266314329
30
0
10
29.6582497479
20
47.5407430329
30
0
10
29.6931619479
20
47.6130196329
30
0
10
29.9810413479
20
47.7880897329
30
0
0
SPLINE
5
7B
100
AcDbEntity
8
yuuka
6
ByLayer
62
7
370
-1
100
AcDbSpline
210
0
220
0
230
1
70
8
71
3
72
8
73
4
74
0
42
1e-07
43
1e-07
40
0
40
0
40
0
40
0
40
1
40
1
40
1
40
1
10
29.9810413479
20
47.7880897329
30
0
10
30.1589665479
20
47.8962931329
30
0
10
30.5590165479
20
48.0136672329
30
0
10
30.8700412479
20
48.0473815329
30
0
0
SPLINE
5
7C
100
AcDbEntity
8
yuuka
6
ByLayer
62
7
370
-1
100
AcDbSpline
210
0
220
0
230
1
70
8
71
3
72
8
73
4
74
0
42
1e-07
43
1e-07
40
0
40
0
40
0
40
0
40
1
40
1
40
1
40
1
10
30.8700412479
20
48.0473815329
30
0
10
31.1810668479
20
48.0810958329
30
0
10
31.5635332479
20
48.1791286329
30
0
10
31.7193538479
20
48.2643397329
30
0
0
SPLINE
5
7D
100
AcDbEntity
8
yuuka
6
ByLayer
62
7
370
-1
100
AcDbSpline
210
0
220
0
230
1
70
8
71
3
72
8
73
4
74
0
42
1e-07
43
1e-07
40
0
40
0
40
0
40
0
40
1
40
1
40
1
40
1
10
31.7193538479
20
48.2643397329
30
0
10
31.8751735479
20
48.3495508329
30
0
10
32.1066607479
20
48.4714396329
30
0
10
32.2326454479
20
48.5368606329
30
0
0
SPLINE
5
7E
100
AcDbEntity
8
yuuka
6
ByLayer
62
7
370
-1
100
AcDbSpline
210
0
220
0
230
1
70
8
71
3
72
8
73
4
74
0
42
1e-07
43
1e-07
40
0
40
0
40
0
40
0
40
1
40
1
40
1
40
1
10
32.2326454479
20
48.5368606329
30
0
10
32.5218067479
20
48.6870145329
30
0
10
33.2142496479
20
49.3553173329
30
0
10
33.2142496479
20
49.4840689329
30
0
0
SPLINE
5
7F
100
AcDbEntity
8
yuuka
6
ByLayer
62
7
370
-1
100
AcDbSpline
210
0
220
0
230
1
70
8
71
3
72
8
73
4
74
0
42
1e-07
43
1e-07
40
0
40
0
40
0
40
0
40
1
40
1
40
1
40
1
10
33.2142496479
20
49.4840689329
30
0
10
33.2142496479
20
49.6421797329
30
0
10
33.8501674479
20
50.2090798329
30
0
10
34.1588122479
20
50.3254441329
30
0
0
SPLINE
5
80
100
AcDbEntity
8
yuuka
6
ByLayer
62
7
370
-1
100
AcDbSpline
210
0
220
0
230
1
70
8
71
3
72
8
73
4
74
0
42
1e-07
43
1e-07
40
0
40
0
40
0
40
0
40
1
40
1
40
1
40
1
10
34.1588122479
20
50.3254441329
30
0
10
34.5639844479
20
50.4781996329
30
0
10
34.7696737479
20
50.4641728329
30
0
10
34.7012080479
20
50.2857565329
30
0
0
SPLINE
5
81
100
AcDbEntity
8
yuuka
6
ByLayer
62
7
370
-1
100
AcDbSpline
210
0
220
0
230
1
70
8
71
3
72
8
73
4
74
0
42
1e-07
43
1e-07
40
0
40
0
40
0
40
0
40
1
40
1
40
1
40
1
10
34.7012080479
20
50.2857565329
30
0
10
34.6697305479
20
50.2037254329
30
0
10
34.6874563479
20
50.1097633329
30
0
10
34.7408956479
20
50.0767357329
30
0
0
SPLINE
5
82
100
AcDbEntity
8
yuuka
6
ByLayer
62
7
370
-1
100
AcDbSpline
210
0
220
0
230
1
70
8
71
3
72
8
73
4
74
0
42
1e-07
43
1e-07
40
0
40
0
40
0
40
0
40
1
40
1
40
1
40
1
10
34.7408956479
20
50.0767357329
30
0
10
34.7943355479
20
50.0437081329
30
0
10
34.8387913479
20
49.8347245329
30
0
10
34.8387913479
20
49.6137148329
30
0
0
SPLINE
5
83
100
AcDbEntity
8
yuuka
6
ByLayer
62
7
370
-1
100
AcDbSpline
210
0
220
0
230
1
70
8
71
3
72
8
73
4
74
0
42
1e-07
43
1e-07
40
0
40
0
40
0
40
0
40
1
40
1
40
1
40
1
10
34.8387913479
20
49.6137148329
30
0
10
34.8387913479
20
49.0735246329
30
0
10
35.3188726479
20
48.6126922329
30
0
10
35.8838956479
20
48.6082981329
30
0
0
SPLINE
5
84
100
AcDbEntity
8
yuuka
6
ByLayer
62
7
370
-1
100
AcDbSpline
210
0
220
0
230
1
70
8
71
3
72
8
73
4
74
0
42
1e-07
43
1e-07
40
0
40
0
40
0
40
0
40
1
40
1
40
1
40
1
10
35.8838956479
20
48.6082981329
30
0
10
36.2411320479
20
48.6055201329
30
0
10
36.2608672479
20
48.5886055329
30
0
10
36.2013955479
20
48.3516523329
30
0
0
SPLINE
5
85
100
AcDbEntity
8
yuuka
6
ByLayer
62
7
370
-1
100
AcDbSpline
210
0
220
0
230
1
70
8
71
3
72
8
73
4
74
0
42
1e-07
43
1e-07
40
0
40
0
40
0
40
0
40
1
40
1
40
1
40
1
10
36.2013955479
20
48.3516523329
30
0
10
36.1484941479
20
48.1408747329
30
0
10
36.1744462479
20
48.0976522329
30
0
10
36.3522079479
20
48.0976522329
30
0
0
SPLINE
5
86
100
AcDbEntity
8
yuuka
6
ByLayer
62
7
370
-1
100
AcDbSpline
210
0
220
0
230
1
70
8
71
3
72
8
73
4
74
0
42
1e-07
43
1e-07
40
0
40
0
40
0
40
0
40
1
40
1
40
1
40
1
10
36.3522079479
20
48.0976522329
30
0
10
36.4951744479
20
48.0976522329
30
0
10
36.5665204479
20
48.0337579329
30
0
10
36.5665204479
20
47.9045065329
30
0
0
SPLINE
5
87
100
AcDbEntity
8
yuuka
6
ByLayer
62
7
370
-1
100
AcDbSpline
210
0
220
0
230
1
70
8
71
3
72
8
73
4
74
0
42
1e-07
43
1e-07
40
0
40
0
40
0
40
0
40
1
40
1
40
1
40
1
10
36.5665204479
20
47.9045065329
30
0
10
36.5665204479
20
47.7491557329
30
0
10
36.6670249479
20
47.6959675329
30
0
10
37.0745206479
20
47.6399230329
30
0
0
SPLINE
5
88
100
AcDbEntity
8
yuuka
6
ByLayer
62
7
370
-1
100
AcDbSpline
210
0
220
0
230
1
70
8
71
3
72
8
73
4
74
0
42
1e-07
43
1e-07
40
0
40
0
40
0
40
0
40
1
40
1
40
1
40
1
10
37.0745206479
20
47.6399230329
30
0
10
37.6180609479
20
47.5651666329
30
0
10
37.7068384479
20
47.4597169329
30
0
10
37.3761454479
20
47.2827355329
30
0
0
SPLINE
5
89
100
AcDbEntity
8
yuuka
6
ByLayer
62
7
370
-1
100
AcDbSpline
210
0
220
0
230
1
70
8
71
3
72
8
73
4
74
0
42
1e-07
43
1e-07
40
0
40
0
40
0
40
0
40
1
40
1
40
1
40
1
10
37.3761454479
20
47.2827355329
30
0
10
37.1379358479
20
47.1552505329
30
0
10
37.1932114479
20
46.9824322329
30
0
10
37.4555206479
20
47.0340274329
30
0
0
SPLINE
5
8A
100
AcDbEntity
8
yuuka
6
ByLayer
62
7
370
-1
100
AcDbSpline
210
0
220
0
230
1
70
8
71
3
72
8
73
4
74
0
42
1e-07
43
1e-07
40
0
40
0
40
0
40
0
40
1
40
1
40
1
40
1
10
37.4555206479
20
47.0340274329
30
0
10
37.5532546479
20
47.0532508329
30
0
10
37.8515488479
20
47.0936452329
30
0
10
38.1169789479
20
47.1239857329
30
0
0
SPLINE
5
8B
100
AcDbEntity
8
yuuka
6
ByLayer
62
7
370
-1
100
AcDbSpline
210
0
220
0
230
1
70
8
71
3
72
8
73
4
74
0
42
1e-07
43
1e-07
40
0
40
0
40
0
40
0
40
1
40
1
40
1
40
1
10
38.1169789479
20
47.1239857329
30
0
10
38.5902418479
20
47.1780844329
30
0
10
38.5985206479
20
47.1735148329
30
0
10
38.5985206479
20
46.8964441329
30
0
0
SPLINE
5
8C
100
AcDbEntity
8
yuuka
6
ByLayer
62
7
370
-1
100
AcDbSpline
210
0
220
0
230
1
70
8
71
3
72
8
73
4
74
0
42
1e-07
43
1e-07
40
0
40
0
40
0
40
0
40
1
40
1
40
1
40
1
10
38.5985206479
20
46.8964441329
30
0
10
38.5985206479
20
46.7410492329
30
0
10
38.5413706479
20
46.5527362329
30
0
10
38.4715204479
20
46.4784022329
30
0
0
SPLINE
5
8D
100
AcDbEntity
8
yuuka
6
ByLayer
62
7
370
-1
100
AcDbSpline
210
0
220
0
230
1
70
8
71
3
72
8
73
4
74
0
42
1e-07
43
1e-07
40
0
40
0
40
0
40
0
40
1
40
1
40
1
40
1
10
38.4715204479
20
46.4784022329
30
0
10
38.3667463479
20
46.3669021329
30
0
10
38.4113149479
20
46.3541371329
30
0
10
38.7255205479
20
46.4016730329
30
0
0
SPLINE
5
8E
100
AcDbEntity
8
yuuka
6
ByLayer
62
7
370
-1
100
AcDbSpline
210
0
220
0
230
1
70
8
71
3
72
8
73
4
74
0
42
1e-07
43
1e-07
40
0
40
0
40
0
40
0
40
1
40
1
40
1
40
1
10
38.7255205479
20
46.4016730329
30
0
10
39.2594464479
20
46.4824537329
30
0
10
39.3501175479
20
46.2748180329
30
0
10
39.2705623479
20
45.1607773329
30
0
0
SPLINE
5
8F
100
AcDbEntity
8
yuuka
6
ByLayer
62
7
370
-1
100
AcDbSpline
210
0
220
0
230
1
70
8
71
3
72
8
73
4
74
0
42
1e-07
43
1e-07
40
0
40
0
40
0
40
0
40
1
40
1
40
1
40
1
10
39.2705623479
20
45.1607773329
30
0
10
39.1256578479
20
43.1316169329
30
0
10
39.0122773479
20
42.5238526329
30
0
10
38.3392288479
20
40.1627980329
30
0
0
SPLINE
5
90
100
AcDbEntity
8
yuuka
6
ByLayer
62
7
370
-1
100
AcDbSpline
210
0
220
0
230
1
70
8
71
3
72
8
73
4
74
0
42
1e-07
43
1e-07
40
0
40
0
40
0
40
0
40
1
40
1
40
1
40
1
10
38.3392288479
20
40.1627980329
30
0
10
38.2023067479
20
39.6824740329
30
0
10
38.0905204479
20
39.1922557329
30
0
10
38.0905204479
20
39.0727147329
30
0
0
SPLINE
5
91
100
AcDbEntity
8
yuuka
6
ByLayer
62
7
370
-1
100
AcDbSpline
210
0
220
0
230
1
70
8
71
3
72
8
73
4
74
0
42
1e-07
43
1e-07
40
0
40
0
40
0
40
0
40
1
40
1
40
1
40
1
10
38.0905204479
20
39.0727147329
30
0
10
38.0905204479
20
38.9531731329
30
0
10
37.9762204479
20
38.4594157329
30
0
10
37.8365206479
20
37.9773397329
30
0
0
SPLINE
5
92
100
AcDbEntity
8
yuuka
6
ByLayer
62
7
370
-1
100
AcDbSpline
210
0
220
0
230
1
70
8
71
3
72
8
73
4
74
0
42
1e-07
43
1e-07
40
0
40
0
40
0
40
0
40
1
40
1
40
1
40
1
10
37.8365206479
20
37.9773397329
30
0
10
37.6747276479
20
37.4190265329
30
0
10
37.5825205479
20
36.8473261329
30
0
10
37.5825205479
20
36.4004230329
30
0
0
SPLINE
5
93
100
AcDbEntity
8
yuuka
6
ByLayer
62
7
370
-1
100
AcDbSpline
210
0
220
0
230
1
70
8
71
3
72
8
73
4
74
0
42
1e-07
43
1e-07
40
0
40
0
40
0
40
0
40
1
40
1
40
1
40
1
10
37.5825205479
20
36.4004230329
30
0
10
37.5825205479
20
35.7463942329
30
0
10
37.6169629479
20
35.6371066329
30
0
10
38.0905204479
20
34.7970481329
30
0
0
SPLINE
5
94
100
AcDbEntity
8
yuuka
6
ByLayer
62
7
370
-1
100
AcDbSpline
210
0
220
0
230
1
70
8
71
3
72
8
73
4
74
0
42
1e-07
43
1e-07
40
0
40
0
40
0
40
0
40
1
40
1
40
1
40
1
10
38.0905204479
20
34.7970481329
30
0
10
38.3699206479
20
34.3014121329
30
0
10
38.5985206479
20
33.8419708329
30
0
10
38.5985206479
20
33.7757566329
30
0
0
SPLINE
5
95
100
AcDbEntity
8
yuuka
6
ByLayer
62
7
370
-1
100
AcDbSpline
210
0
220
0
230
1
70
8
71
3
72
8
73
4
74
0
42
1e-07
43
1e-07
40
0
40
0
40
0
40
0
40
1
40
1
40
1
40
1
10
38.5985206479
20
33.7757566329
30
0
10
38.5985206479
20
33.7095430329
30
0
10
38.7084814479
20
33.4641856329
30
0
10
38.8419373479
20
33.2307148329
30
0
0
SPLINE
5
96
100
AcDbEntity
8
yuuka
6
ByLayer
62
7
370
-1
100
AcDbSpline
210
0
220
0
230
1
70
8
71
3
72
8
73
4
74
0
42
1e-07
43
1e-07
40
0
40
0
40
0
40
0
40
1
40
1
40
1
40
1
10
38.8419373479
20
33.2307148329
30
0
10
38.9753923479
20
32.9972449329
30
0
10
39.1121668479
20
32.6457739329
30
0
10
39.1462081479
20
32.4501940329
30
0
0
SPLINE
5
97
100
AcDbEntity
8
yuuka
6
ByLayer
62
7
370
-1
100
AcDbSpline
210
0
220
0
230
1
70
8
71
3
72
8
73
4
74
0
42
1e-07
43
1e-07
40
0
40
0
40
0
40
0
40
1
40
1
40
1
40
1
10
39.1462081479
20
32.4501940329
30
0
10
39.2033350479
20
32.1219787329
30
0
10
39.1607818479
20
32.0437372329
30
0
10
38.5958746479
20
31.4341939329
30
0
0
SPLINE
5
98
100
AcDbEntity
8
yuuka
6
ByLayer
62
7
370
-1
100
AcDbSpline
210
0
220
0
230
1
70
8
71
3
72
8
73
4
74
0
42
1e-07
43
1e-07
40
0
40
0
40
0
40
0
40
1
40
1
40
1
40
1
10
38.5958746479
20
31.4341939329
30
0
10
38.2592527479
20
31.0709740329
30
0
10
37.7670904479
20
30.5346733329
30
0
10
37.5031456479
20
30.2409232329
30
0
0
SPLINE
5
99
100
AcDbEntity
8
yuuka
6
ByLayer
62
7
370
-1
100
AcDbSpline
210
0
220
0
230
1
70
8
71
3
72
8
73
4
74
0
42
1e-07
43
1e-07
40
0
40
0
40
0
40
0
40
1
40
1
40
1
40
1
10
37.5031456479
20
30.2409232329
30
0
10
36.6302668479
20
29.2694755329
30
0
10
34.8446527479
20
27.4733815329
30
0
10
34.7514787479
20
27.4733815329
30
0
0
SPLINE
5
9A
100
AcDbEntity
8
yuuka
6
ByLayer
62
7
370
-1
100
AcDbSpline
210
0
220
0
230
1
70
8
71
3
72
8
73
4
74
0
42
1e-07
43
1e-07
40
0
40
0
40
0
40
0
40
1
40
1
40
1
40
1
10
34.7514787479
20
27.4733815329
30
0
10
34.7011030479
20
27.4733815329
30
0
10
34.5837220479
20
27.3590815329
30
0
10
34.4921872479
20
27.2193814329
30
0
0
SPLINE
5
9B
100
AcDbEntity
8
yuuka
6
ByLayer
62
7
370
-1
100
AcDbSpline
210
0
220
0
230
1
70
8
71
3
72
8
73
4
74
0
42
1e-07
43
1e-07
40
0
40
0
40
0
40
0
40
1
40
1
40
1
40
1
10
34.4921872479
20
27.2193814329
30
0
10
34.4006515479
20
27.0796816329
30
0
10
34.2598645479
20
26.9653816329
30
0
10
34.1773330479
20
26.9653816329
30
0
0
SPLINE
5
9C
100
AcDbEntity
8
yuuka
6
ByLayer
62
7
370
-1
100
AcDbSpline
210
0
220
0
230
1
70
8
71
3
72
8
73
4
74
0
42
1e-07
43
1e-07
40
0
40
0
40
0
40
0
40
1
40
1
40
1
40
1
10
34.1773330479
20
26.9653816329
30
0
10
34.0948015479
20
26.9653816329
30
0
10
34.0265206479
20
26.9285734329
30
0
10
34.0265206479
20
26.8833607329
30
0
0
SPLINE
5
9D
100
AcDbEntity
8
yuuka
6
ByLayer
62
7
370
-1
100
AcDbSpline
210
0
220
0
230
1
70
8
71
3
72
8
73
4
74
0
42
1e-07
43
1e-07
40
0
40
0
40
0
40
0
40
1
40
1
40
1
40
1
10
34.0265206479
20
26.8833607329
30
0
10
34.0265206479
20
26.7658315329
30
0
10
32.8216096479
20
25.9493815329
30
0
10
32.6480413479
20
25.9493815329
30
0
0
SPLINE
5
9E
100
AcDbEntity
8
yuuka
6
ByLayer
62
7
370
-1
100
AcDbSpline
210
0
220
0
230
1
70
8
71
3
72
8
73
4
74
0
42
1e-07
43
1e-07
40
0
40
0
40
0
40
0
40
1
40
1
40
1
40
1
10
32.6480413479
20
25.9493815329
30
0
10
32.5683151479
20
25.9493815329
30
0
10
32.5025206479
20
25.9131796329
30
0
10
32.5025206479
20
25.8700066329
30
0
0
SPLINE
5
9F
100
AcDbEntity
8
yuuka
6
ByLayer
62
7
370
-1
100
AcDbSpline
210
0
220
0
230
1
70
8
71
3
72
8
73
4
74
0
42
1e-07
43
1e-07
40
0
40
0
40
0
40
0
40
1
40
1
40
1
40
1
10
32.5025206479
20
25.8700066329
30
0
10
32.5025206479
20
25.7898847329
30
0
10
32.2706626479
20
25.6625071329
30
0
10
31.2827914479
20
25.2032566329
30
0
0
SPLINE
5
A0
100
AcDbEntity
8
yuuka
6
ByLayer
62
7
370
-1
100
AcDbSpline
210
0
220
0
230
1
70
8
71
3
72
8
73
4
74
0
42
1e-07
43
1e-07
40
0
40
0
40
0
40
0
40
1
40
1
40
1
40
1
10
31.2827914479
20
25.2032566329
30
0
10
29.9346145479
20
24.5765047329
30
0
10
29.5801735479
20
24.4253815329
30
0
10
29.4730414479
20
24.4253815329
30
0
0
SPLINE
5
A1
100
AcDbEntity
8
yuuka
6
ByLayer
62
7
370
-1
100
AcDbSpline
210
0
220
0
230
1
70
8
71
3
72
8
73
4
74
0
42
1e-07
43
1e-07
40
0
40
0
40
0
40
0
40
1
40
1
40
1
40
1
10
29.4730414479
20
24.4253815329
30
0
10
29.4102889479
20
24.4253815329
30
0
10
29.1170638479
20
24.3166882329
30
0
10
28.8221662479
20
24.1846105329
30
0
0
SPLINE
5
A2
100
AcDbEntity
8
yuuka
6
ByLayer
62
7
370
-1
100
AcDbSpline
210
0
220
0
230
1
70
8
71
3
72
8
73
4
74
0
42
1e-07
43
1e-07
40
0
40
0
40
0
40
0
40
1
40
1
40
1
40
1
10
28.8221662479
20
24.1846105329
30
0
10
28.0629433479
20
23.8445698329
30
0
10
26.7069424479
20
23.4061810329
30
0
10
26.4065206479
20
23.4040897329
30
0
0
SPLINE
5
A3
100
AcDbEntity
8
yuuka
6
ByLayer
62
7
370
-1
100
AcDbSpline
210
0
220
0
230
1
70
8
71
3
72
8
73
4
74
0
42
1e-07
43
1e-07
40
0
40
0
40
0
40
0
40
1
40
1
40
1
40
1
10
26.4065206479
20
23.4040897329
30
0
10
26.2668205479
20
23.4031153329
30
0
10
25.8319513479
20
23.3117980329
30
0
10
25.4407912479
20
23.2003606329
30
0
0
SPLINE
5
A4
100
AcDbEntity
8
yuuka
6
ByLayer
62
7
370
-1
100
AcDbSpline
210
0
220
0
230
1
70
8
71
3
72
8
73
4
74
0
42
1e-07
43
1e-07
40
0
40
0
40
0
40
0
40
1
40
1
40
1
40
1
10
25.4407912479
20
23.2003606329
30
0
10
25.0496314479
20
23.0889232329
30
0
10
24.5701006479
20
22.9687279329
30
0
10
24.3745204479
20
22.9331314329
30
0
0
SPLINE
5
A5
100
AcDbEntity
8
yuuka
6
ByLayer
62
7
370
-1
100
AcDbSpline
210
0
220
0
230
1
70
8
71
3
72
8
73
4
74
0
42
1e-07
43
1e-07
40
0
40
0
40
0
40
0
40
1
40
1
40
1
40
1
10
24.3745204479
20
22.9331314329
30
0
10
24.1789405479
20
22.8975358329
30
0
10
23.8474180479
20
22.7622463329
30
0
10
23.6389789479
20
22.6315066329
30
0
0
SPLINE
5
A6
100
AcDbEntity
8
yuuka
6
ByLayer
62
7
370
-1
100
AcDbSpline
210
0
220
0
230
1
70
8
71
3
72
8
73
4
74
0
42
1e-07
43
1e-07
40
0
40
0
40
0
40
0
40
1
40
1
40
1
40
1
10
23.6389789479
20
22.6315066329
30
0
10
23.4305389479
20
22.5007666329
30
0
10
23.2256725479
20
22.3933816329
30
0
10
23.1812497479
20
22.3933816329
30
0
0
SPLINE
5
A7
100
AcDbEntity
8
yuuka
6
ByLayer
62
7
370
-1
100
AcDbSpline
210
0
220
0
230
1
70
8
71
3
72
8
73
4
74
0
42
1e-07
43
1e-07
40
0
40
0
40
0
40
0
40
1
40
1
40
1
40
1
10
23.1812497479
20
22.3933816329
30
0
10
23.0851537479
20
22.3933816329
30
0
10
21.8623360479
20
21.2032822329
30
0
10
21.6043330479
20
20.8587982329
30
0
0
SPLINE
5
A8
100
AcDbEntity
8
yuuka
6
ByLayer
62
7
370
-1
100
AcDbSpline
210
0
220
0
230
1
70
8
71
3
72
8
73
4
74
0
42
1e-07
43
1e-07
40
0
40
0
40
0
40
0
40
1
40
1
40
1
40
1
10
21.6043330479
20
20.8587982329
30
0
10
21.5051866479
20
20.7264184329
30
0
10
21.3781621479
20
20.4518638329
30
0
10
21.3238747479
20
20.2502566329
30
0
0
SPLINE
5
A9
100
AcDbEntity
8
yuuka
6
ByLayer
62
7
370
-1
100
AcDbSpline
210
0
220
0
230
1
70
8
71
3
72
8
73
4
74
0
42
1e-07
43
1e-07
40
0
40
0
40
0
40
0
40
1
40
1
40
1
40
1
10
21.3238747479
20
20.2502566329
30
0
10
21.2695873479
20
20.0486473329
30
0
10
21.1342450479
20
19.8012775329
30
0
10
21.0222496479
20
19.6999231329
30
0
0
SPLINE
5
AA
100
AcDbEntity
8
yuuka
6
ByLayer
62
7
370
-1
100
AcDbSpline
210
0
220
0
230
1
70
8
71
3
72
8
73
4
74
0
42
1e-07
43
1e-07
40
0
40
0
40
0
40
0
40
1
40
1
40
1
40
1
10
21.0222496479
20
19.6999231329
30
0
10
20.8791832479
20
19.5704491329
30
0
10
20.8185205479
20
19.3875388329
30
0
10
20.8185205479
20
19.0834441329
30
0
0
SPLINE
5
AB
100
AcDbEntity
8
yuuka
6
ByLayer
62
7
370
-1
100
AcDbSpline
210
0
220
0
230
1
70
8
71
3
72
8
73
4
74
0
42
1e-07
43
1e-07
40
0
40
0
40
0
40
0
40
1
40
1
40
1
40
1
10
20.8185205479
20
19.0834441329
30
0
10
20.8185205479
20
18.6455158329
30
0
10
20.7030496479
20
18.4433971329
30
0
10
20.0988538479
20
17.8319647329
30
0
0
SPLINE
5
AC
100
AcDbEntity
8
yuuka
6
ByLayer
62
7
370
-1
100
AcDbSpline
210
0
220
0
230
1
70
8
71
3
72
8
73
4
74
0
42
1e-07
43
1e-07
40
0
40
0
40
0
40
0
40
1
40
1
40
1
40
1
10
20.0988538479
20
17.8319647329
30
0
10
19.6217071479
20
17.3491039329
30
0
10
19.2945205479
20
16.8394810329
30
0
10
19.2945205479
20
16.5778399329
30
0
0
SPLINE
5
AD
100
AcDbEntity
8
yuuka
6
ByLayer
62
7
370
-1
100
AcDbSpline
210
0
220
0
230
1
70
8
71
3
72
8
73
4
74
0
42
1e-07
43
1e-07
40
0
40
0
40
0
40
0
40
1
40
1
40
1
40
1
10
19.2945205479
20
16.5778399329
30
0
10
19.2945205479
20
16.2917563329
30
0
10
19.7554315479
20
15.8820262329
30
0
10
20.3634373479
20
15.6279856329
30
0
0
SPLINE
5
AE
100
AcDbEntity
8
yuuka
6
ByLayer
62
7
370
-1
100
AcDbSpline
210
0
220
0
230
1
70
8
71
3
72
8
73
4
74
0
42
1e-07
43
1e-07
40
0
40
0
40
0
40
0
40
1
40
1
40
1
40
1
10
20.3634373479
20
15.6279856329
30
0
10
20.5602838479
20
15.5457379329
30
0
10
20.8112365479
20
15.3892069329
30
0
10
20.9217079479
20
15.2787355329
30
0
0
SPLINE
5
AF
100
AcDbEntity
8
yuuka
6
ByLayer
62
7
370
-1
100
AcDbSpline
210
0
220
0
230
1
70
8
71
3
72
8
73
4
74
0
42
1e-07
43
1e-07
40
0
40
0
40
0
40
0
40
1
40
1
40
1
40
1
10
20.9217079479
20
15.2787355329
30
0
10
21.0321802479
20
15.1682644329
30
0
10
21.1700989479
20
15.0776524329
30
0
10
21.2259787479
20
15.0776524329
30
0
0
SPLINE
5
B0
100
AcDbEntity
8
yuuka
6
ByLayer
62
7
370
-1
100
AcDbSpline
210
0
220
0
230
1
70
8
71
3
72
8
73
4
74
0
42
1e-07
43
1e-07
40
0
40
0
40
0
40
0
40
1
40
1
40
1
40
1
10
21.2259787479
20
15.0776524329
30
0
10
21.2818588479
20
15.0776524329
30
0
10
21.3265204479
20
15.0146104329
30
0
10
21.3265204479
20
14.9374231329
30
0
0
SPLINE
5
B1
100
AcDbEntity
8
yuuka
6
ByLayer
62
7
370
-1
100
AcDbSpline
210
0
220
0
230
1
70
8
71
3
72
8
73
4
74
0
42
1e-07
43
1e-07
40
0
40
0
40
0
40
0
40
1
40
1
40
1
40
1
10
21.3265204479
20
14.9374231329
30
0
10
21.3265204479
20
14.8602352329
30
0
10
21.4816534479
20
14.6792803329
30
0
10
21.6704788479
20
14.5352566329
30
0
0
SPLINE
5
B2
100
AcDbEntity
8
yuuka
6
ByLayer
62
7
370
-1
100
AcDbSpline
210
0
220
0
230
1
70
8
71
3
72
8
73
4
74
0
42
1e-07
43
1e-07
40
0
40
0
40
0
40
0
40
1
40
1
40
1
40
1
10
21.6704788479
20
14.5352566329
30
0
10
22.0396417479
20
14.2536832329
30
0
10
22.9074793479
20
14.0630071329
30
0
10
23.8347706479
20
14.0616523329
30
0
0
SPLINE
5
B3
100
AcDbEntity
8
yuuka
6
ByLayer
62
7
370
-1
100
AcDbSpline
210
0
220
0
230
1
70
8
71
3
72
8
73
4
74
0
42
1e-07
43
1e-07
40
0
40
0
40
0
40
0
40
1
40
1
40
1
40
1
10
23.8347706479
20
14.0616523329
30
0
10
24.1252558479
20
14.0612308329
30
0
10
24.7217326479
20
13.9454584329
30
0
10
25.1576872479
20
13.8050065329
30
0
0
SPLINE
5
B4
100
AcDbEntity
8
yuuka
6
ByLayer
62
7
370
-1
100
AcDbSpline
210
0
220
0
230
1
70
8
71
3
72
8
73
4
74
0
42
1e-07
43
1e-07
40
0
40
0
40
0
40
0
40
1
40
1
40
1
40
1
10
25.1576872479
20
13.8050065329
30
0
10
25.8584977479
20
13.5792268329
30
0
10
26.0424319479
20
13.4614258329
30
0
10
26.7610621479
20
12.7890064329
30
0
0
SPLINE
5
B5
100
AcDbEntity
8
yuuka
6
ByLayer
62
7
370
-1
100
AcDbSpline
210
0
220
0
230
1
70
8
71
3
72
8
73
4
74
0
42
1e-07
43
1e-07
40
0
40
0
40
0
40
0
40
1
40
1
40
1
40
1
10
26.7610621479
20
12.7890064329
30
0
10
27.2081023479
20
12.3707134329
30
0
10
27.6125719479
20
12.0297082329
30
0
10
27.6579997479
20
12.0296524329
30
0
0
SPLINE
5
B6
100
AcDbEntity
8
yuuka
6
ByLayer
62
7
370
-1
100
AcDbSpline
210
0
220
0
230
1
70
8
71
3
72
8
73
4
74
0
42
1e-07
43
1e-07
40
0
40
0
40
0
40
0
40
1
40
1
40
1
40
1
10
27.6579997479
20
12.0296524329
30
0
10
27.7034275479
20
12.0295972329
30
0
10
27.9766891479
20
11.9187535329
30
0
10
28.2665413479
20
11.7835897329
30
0
0
SPLINE
5
B7
100
AcDbEntity
8
yuuka
6
ByLayer
62
7
370
-1
100
AcDbSpline
210
0
220
0
230
1
70
8
71
3
72
8
73
4
74
0
42
1e-07
43
1e-07
40
0
40
0
40
0
40
0
40
1
40
1
40
1
40
1
10
28.2665413479
20
11.7835897329
30
0
10
28.7473666479
20
11.5593712329
30
0
10
30.0053380479
20
11.2140295329
30
0
10
31.0287913479
20
11.0242357329
30
0
0
SPLINE
5
B8
100
AcDbEntity
8
yuuka
6
ByLayer
62
7
370
-1
100
AcDbSpline
210
0
220
0
230
1
70
8
71
3
72
8
73
4
74
0
42
1e-07
43
1e-07
40
0
40
0
40
0
40
0
40
1
40
1
40
1
40
1
10
31.0287913479
20
11.0242357329
30
0
10
31.2523114479
20
10.9827844329
30
0
10
31.6648498479
20
10.8442003329
30
0
10
31.9442497479
20
10.7173189329
30
0
0
SPLINE
5
B9
100
AcDbEntity
8
yuuka
6
ByLayer
62
7
370
-1
100
AcDbSpline
210
0
220
0
230
1
70
8
71
3
72
8
73
4
74
0
42
1e-07
43
1e-07
40
0
40
0
40
0
40
0
40
1
40
1
40
1
40
1
10
31.9442497479
20
10.7173189329
30
0
10
32.2236496479
20
10.5904375329
30
0
10
32.7728188479
20
10.4484904329
30
0
10
33.1639789479
20
10.4024647329
30
0
0
SPLINE
5
BA
100
AcDbEntity
8
yuuka
6
ByLayer
62
7
370
-1
100
AcDbSpline
210
0
220
0
230
1
70
8
71
3
72
8
73
4
74
0
42
1e-07
43
1e-07
40
0
40
0
40
0
40
0
40
1
40
1
40
1
40
1
10
33.1639789479
20
10.4024647329
30
0
10
33.5551387479
20
10.3564393329
30
0
10
34.5588622479
20
10.3439365329
30
0
10
35.3970622479
20
10.3733605329
30
0
0
SPLINE
5
BB
100
AcDbEntity
8
yuuka
6
ByLayer
62
7
370
-1
100
AcDbSpline
210
0
220
0
230
1
70
8
71
3
72
8
73
4
74
0
42
1e-07
43
1e-07
40
0
40
0
40
0
40
0
40
1
40
1
40
1
40
1
10
35.3970622479
20
10.3733605329
30
0
10
37.3063174479
20
10.4403811329
30
0
10
40.2541222479
20
10.4342131329
30
0
10
45.4300621479
20
10.3521940329
30
0
0
SPLINE
5
BC
100
AcDbEntity
8
yuuka
6
ByLayer
62
7
370
-1
100
AcDbSpline
210
0
220
0
230
1
70
8
71
3
72
8
73
4
74
0
42
1e-07
43
1e-07
40
0
40
0
40
0
40
0
40
1
40
1
40
1
40
1
10
49.4649580479
20
12.2519023329
30
0
10
49.4625043479
20
13.3316149329
30
0
10
49.4191102479
20
14.5580107329
30
0
10
49.3670623479
20
14.9771107329
30
0
0
SPLINE
5
BD
100
AcDbEntity
8
yuuka
6
ByLayer
62
7
370
-1
100
AcDbSpline
210
0
220
0
230
1
70
8
71
3
72
8
73
4
74
0
42
1e-07
43
1e-07
40
0
40
0
40
0
40
0
40
1
40
1
40
1
40
1
10
49.3670623479
20
14.9771107329
30
0
10
49.3150150479
20
15.3962107329
30
0
10
49.2234175479
20
16.9491031329
30
0
10
49.1659789479
20
18.4299232329
30
0
0
SPLINE
5
BE
100
AcDbEntity
8
yuuka
6
ByLayer
62
7
370
-1
100
AcDbSpline
210
0
220
0
230
1
70
8
71
3
72
8
73
4
74
0
42
1e-07
43
1e-07
40
0
40
0
40
0
40
0
40
1
40
1
40
1
40
1
10
49.1659789479
20
18.4299232329
30
0
10
49.1085418479
20
19.9107430329
30
0
10
49.0162510479
20
22.3333741329
30
0
10
48.9596038479
20
23.8141939329
30
0
0
SPLINE
5
BF
100
AcDbEntity
8
yuuka
6
ByLayer
62
7
370
-1
100
AcDbSpline
210
0
220
0
230
1
70
8
71
3
72
8
73
4
74
0
42
1e-07
43
1e-07
40
0
40
0
40
0
40
0
40
1
40
1
40
1
40
1
10
48.9596038479
20
23.8141939329
30
0
10
48.9029569479
20
25.2950140329
30
0
10
48.7900378479
20
26.9201905329
30
0
10
48.7082497479
20
27.4231105329
30
0
0
SPLINE
5
C0
100
AcDbEntity
8
yuuka
6
ByLayer
62
7
370
-1
100
AcDbSpline
210
0
220
0
230
1
70
8
71
3
72
8
73
4
74
0
42
1e-07
43
1e-07
40
0
40
0
40
0
40
0
40
1
40
1
40
1
40
1
10
48.7082497479
20
27.4231105329
30
0
10
48.6264607479
20
27.9260305329
30
0
10
48.5105269479
20
28.8998632329
30
0
10
48.4516039479
20
29.5900480329
30
0
0
SPLINE
5
C1
100
AcDbEntity
8
yuuka
6
ByLayer
62
7
370
-1
100
AcDbSpline
210
0
220
0
230
1
70
8
71
3
72
8
73
4
74
0
42
1e-07
43
1e-07
40
0
40
0
40
0
40
0
40
1
40
1
40
1
40
1
10
48.4516039479
20
29.5900480329
30
0
10
48.3926809479
20
30.2802331329
30
0
10
48.2758825479
20
31.1718544329
30
0
10
48.1923121479
20
31.5691315329
30
0
0
SPLINE
5
C2
100
AcDbEntity
8
yuuka
6
ByLayer
62
7
370
-1
100
AcDbSpline
210
0
220
0
230
1
70
8
71
3
72
8
73
4
74
0
42
1e-07
43
1e-07
40
0
40
0
40
0
40
0
40
1
40
1
40
1
40
1
10
48.1923121479
20
31.5691315329
30
0
10
48.1087420479
20
31.9664077329
30
0
10
48.0144985479
20
32.6185681329
30
0
10
47.9806456479
20
33.0190480329
30
0
0
LWPOLYLINE
5
C3
100
AcDbEntity
8
yuuka
6
ByLayer
62
7
370
-1
100
AcDbPolyline
90
3
70
0
43
0
10
45.4300621479
20
10.3521940329
10
49.4702497479
20
10.2886939329
10
49.4649580479
20
12.2519023329
0
SPLINE
5
C4
100
AcDbEntity
8
yuuka
6
ByLayer
62
7
370
-1
100
AcDbSpline
210
0
220
0
230
1
70
8
71
3
72
8
73
4
74
0
42
1e-07
43
1e-07
40
0
40
0
40
0
40
0
40
1
40
1
40
1
40
1
10
48.2743330479
20
33.8657149329
30
0
10
48.4707775479
20
33.9305476329
30
0
10
48.7146319479
20
34.0733233329
30
0
10
48.8140831479
20
34.1832148329
30
0
0
SPLINE
5
C5
100
AcDbEntity
8
yuuka
6
ByLayer
62
7
370
-1
100
AcDbSpline
210
0
220
0
230
1
70
8
71
3
72
8
73
4
74
0
42
1e-07
43
1e-07
40
0
40
0
40
0
40
0
40
1
40
1
40
1
40
1
10
48.8140831479
20
34.1832148329
30
0
10
48.9135334479
20
34.2931078329
30
0
10
49.1720020479
20
34.4311951329
30
0
10
49.3908748479
20
34.4901316329
30
0
0
SPLINE
5
C6
100
AcDbEntity
8
yuuka
6
ByLayer
62
7
370
-1
100
AcDbSpline
210
0
220
0
230
1
70
8
71
3
72
8
73
4
74
0
42
1e-07
43
1e-07
40
0
40
0
40
0
40
0
40
1
40
1
40
1
40
1
10
49.3908748479
20
34.4901316329
30
0
10
49.7002162479
20
34.5734281329
30
0
10
49.8225181479
20
34.6722079329
30
0
10
49.9332706479
20
34.9372774329
30
0
0
SPLINE
5
C7
100
AcDbEntity
8
yuuka
6
ByLayer
62
7
370
-1
100
AcDbSpline
210
0
220
0
230
1
70
8
71
3
72
8
73
4
74
0
42
1e-07
43
1e-07
40
0
40
0
40
0
40
0
40
1
40
1
40
1
40
1
10
49.9332706479
20
34.9372774329
30
0
10
50.0317972479
20
35.1730825329
30
0
10
50.1769876479
20
35.3137249329
30
0
10
50.4068746479
20
35.3897149329
30
0
0
SPLINE
5
C8
100
AcDbEntity
8
yuuka
6
ByLayer
62
7
370
-1
100
AcDbSpline
210
0
220
0
230
1
70
8
71
3
72
8
73
4
74
0
42
1e-07
43
1e-07
40
0
40
0
40
0
40
0
40
1
40
1
40
1
40
1
10
50.4068746479
20
35.3897149329
30
0
10
50.5897150479
20
35.4501532329
30
0
10
50.9401969479
20
35.6819521329
30
0
10
51.1847497479
20
35.9056522329
30
0
0
SPLINE
5
C9
100
AcDbEntity
8
yuuka
6
ByLayer
62
7
370
-1
100
AcDbSpline
210
0
220
0
230
1
70
8
71
3
72
8
73
4
74
0
42
1e-07
43
1e-07
40
0
40
0
40
0
40
0
40
1
40
1
40
1
40
1
10
51.1847497479
20
35.9056522329
30
0
10
51.4293016479
20
36.1293535329
30
0
10
51.6415990479
20
36.3131107329
30
0
10
51.6557080479
20
36.3131107329
30
0
0
SPLINE
5
CA
100
AcDbEntity
8
yuuka
6
ByLayer
62
7
370
-1
100
AcDbSpline
210
0
220
0
230
1
70
8
71
3
72
8
73
4
74
0
42
1e-07
43
1e-07
40
0
40
0
40
0
40
0
40
1
40
1
40
1
40
1
10
51.6557080479
20
36.3131107329
30
0
10
51.6698152479
20
36.3131107329
30
0
10
51.9341353479
20
36.1594297329
30
0
10
52.2457288479
20
35.9717980329
30
0
0
SPLINE
5
CB
100
AcDbEntity
8
yuuka
6
ByLayer
62
7
370
-1
100
AcDbSpline
210
0
220
0
230
1
70
8
71
3
72
8
73
4
74
0
42
1e-07
43
1e-07
40
0
40
0
40
0
40
0
40
1
40
1
40
1
40
1
10
52.2457288479
20
35.9717980329
30
0
10
52.7615056479
20
35.6612137329
30
0
10
52.8578917479
20
35.6355655329
30
0
10
53.3014162479
20
35.7072148329
30
0
0
SPLINE
5
CC
100
AcDbEntity
8
yuuka
6
ByLayer
62
7
370
-1
100
AcDbSpline
210
0
220
0
230
1
70
8
71
3
72
8
73
4
74
0
42
1e-07
43
1e-07
40
0
40
0
40
0
40
0
40
1
40
1
40
1
40
1
10
53.3014162479
20
35.7072148329
30
0
10
53.9825587479
20
35.8172509329
30
0
10
54.1466080479
20
35.8899874329
30
0
10
54.5343748479
20
36.2496106329
30
0
0
SPLINE
5
CD
100
AcDbEntity
8
yuuka
6
ByLayer
62
7
370
-1
100
AcDbSpline
210
0
220
0
230
1
70
8
71
3
72
8
73
4
74
0
42
1e-07
43
1e-07
40
0
40
0
40
0
40
0
40
1
40
1
40
1
40
1
10
54.5343748479
20
36.2496106329
30
0
10
55.6002121479
20
37.2380905329
30
0
10
55.6196743479
20
39.1804651329
30
0
10
54.5740621479
20
40.2501106329
30
0
0
SPLINE
5
CE
100
AcDbEntity
8
yuuka
6
ByLayer
62
7
370
-1
100
AcDbSpline
210
0
220
0
230
1
70
8
71
3
72
8
73
4
74
0
42
1e-07
43
1e-07
40
0
40
0
40
0
40
0
40
1
40
1
40
1
40
1
10
54.5740621479
20
40.2501106329
30
0
10
54.2278660479
20
40.6042645329
30
0
10
53.5390825479
20
40.9856524329
30
0
10
53.2458538479
20
40.9856524329
30
0
0
SPLINE
5
CF
100
AcDbEntity
8
yuuka
6
ByLayer
62
7
370
-1
100
AcDbSpline
210
0
220
0
230
1
70
8
71
3
72
8
73
4
74
0
42
1e-07
43
1e-07
40
0
40
0
40
0
40
0
40
1
40
1
40
1
40
1
10
53.2458538479
20
40.9856524329
30
0
10
52.7315782479
20
40.9856524329
30
0
10
52.6808335479
20
40.2421045329
30
0
10
53.1770623479
20
39.9696523329
30
0
0
SPLINE
5
D0
100
AcDbEntity
8
yuuka
6
ByLayer
62
7
370
-1
100
AcDbSpline
210
0
220
0
230
1
70
8
71
3
72
8
73
4
74
0
42
1e-07
43
1e-07
40
0
40
0
40
0
40
0
40
1
40
1
40
1
40
1
10
53.1770623479
20
39.9696523329
30
0
10
53.3447023479
20
39.8776111329
30
0
10
53.6530648479
20
39.5782213329
30
0
10
53.8623331479
20
39.3029023329
30
0
0
SPLINE
5
D1
100
AcDbEntity
8
yuuka
6
ByLayer
62
7
370
-1
100
AcDbSpline
210
0
220
0
230
1
70
8
71
3
72
8
73
4
74
0
42
1e-07
43
1e-07
40
0
40
0
40
0
40
0
40
1
40
1
40
1
40
1
10
53.8623331479
20
39.3029023329
30
0
10
54.1924975479
20
38.8685302329
30
0
10
54.2429098479
20
38.7296395329
30
0
10
54.2433331479
20
38.2551523329
30
0
0
SPLINE
5
D2
100
AcDbEntity
8
yuuka
6
ByLayer
62
7
370
-1
100
AcDbSpline
210
0
220
0
230
1
70
8
71
3
72
8
73
4
74
0
42
1e-07
43
1e-07
40
0
40
0
40
0
40
0
40
1
40
1
40
1
40
1
10
54.2433331479
20
38.2551523329
30
0
10
54.2444413479
20
37.0708417329
30
0
10
53.2851298479
20
36.4331080329
30
0
10
52.5420622479
20
37.1253814329
30
0
0
SPLINE
5
D3
100
AcDbEntity
8
yuuka
6
ByLayer
62
7
370
-1
100
AcDbSpline
210
0
220
0
230
1
70
8
71
3
72
8
73
4
74
0
42
1e-07
43
1e-07
40
0
40
0
40
0
40
0
40
1
40
1
40
1
40
1
10
52.5420622479
20
37.1253814329
30
0
10
52.4079535479
20
37.2503224329
30
0
10
52.3145206479
20
37.4557321329
30
0
10
52.3145206479
20
37.6307356329
30
0
0
SPLINE
5
D4
100
AcDbEntity
8
yuuka
6
ByLayer
62
7
370
-1
100
AcDbSpline
210
0
220
0
230
1
70
8
71
3
72
8
73
4
74
0
42
1e-07
43
1e-07
40
0
40
0
40
0
40
0
40
1
40
1
40
1
40
1
10
52.3145206479
20
37.6307356329
30
0
10
52.3145206479
20
37.8550819329
30
0
10
52.2226099479
20
37.9932436329
30
0
10
51.9335206479
20
38.2048816329
30
0
0
SPLINE
5
D5
100
AcDbEntity
8
yuuka
6
ByLayer
62
7
370
-1
100
AcDbSpline
210
0
220
0
230
1
70
8
71
3
72
8
73
4
74
0
42
1e-07
43
1e-07
40
0
40
0
40
0
40
0
40
1
40
1
40
1
40
1
10
51.9335206479
20
38.2048816329
30
0
10
51.7239706479
20
38.3582890329
30
0
10
51.3015898479
20
38.7466372329
30
0
10
50.9942497479
20
39.0674230329
30
0
0
SPLINE
5
D6
100
AcDbEntity
8
yuuka
6
ByLayer
62
7
370
-1
100
AcDbSpline
210
0
220
0
230
1
70
8
71
3
72
8
73
4
74
0
42
1e-07
43
1e-07
40
0
40
0
40
0
40
0
40
1
40
1
40
1
40
1
10
50.9942497479
20
39.0674230329
30
0
10
50.5806988479
20
39.4990657329
30
0
10
50.2813768479
20
39.7079587329
30
0
10
49.8406663479
20
39.8717566329
30
0
0
SPLINE
5
D7
100
AcDbEntity
8
yuuka
6
ByLayer
62
7
370
-1
100
AcDbSpline
210
0
220
0
230
1
70
8
71
3
72
8
73
4
74
0
42
1e-07
43
1e-07
40
0
40
0
40
0
40
0
40
1
40
1
40
1
40
1
10
49.8406663479
20
39.8717566329
30
0
10
49.4679991479
20
40.0102645329
30
0
10
49.0957333479
20
40.2466849329
30
0
10
48.8484787479
20
40.5014647329
30
0
0
LWPOLYLINE
5
D8
100
AcDbEntity
8
yuuka
6
ByLayer
62
7
370
-1
100
AcDbPolyline
90
3
70
0
43
0
10
47.9806456479
20
33.0190480329
10
47.9171455479
20
33.7466524329
10
48.2743330479
20
33.8657149329
0
SPLINE
5
D9
100
AcDbEntity
8
yuuka
6
ByLayer
62
7
370
-1
100
AcDbSpline
210
0
220
0
230
1
70
8
71
3
72
8
73
4
74
0
42
1e-07
43
1e-07
40
0
40
0
40
0
40
0
40
1
40
1
40
1
40
1
10
48.4542496479
20
41.7635272329
30
0
10
48.4542496479
20
42.5830261329
30
0
10
48.3633472479
20
42.9386338329
30
0
10
48.0229789479
20
43.4753815329
30
0
0
SPLINE
5
DA
100
AcDbEntity
8
yuuka
6
ByLayer
62
7
370
-1
100
AcDbSpline
210
0
220
0
230
1
70
8
71
3
72
8
73
4
74
0
42
1e-07
43
1e-07
40
0
40
0
40
0
40
0
40
1
40
1
40
1
40
1
10
48.0229789479
20
43.4753815329
30
0
10
47.8820815479
20
43.6975705329
30
0
10
46.3404532479
20
45.2533816329
30
0
10
46.2608539479
20
45.2533816329
30
0
0
SPLINE
5
DB
100
AcDbEntity
8
yuuka
6
ByLayer
62
7
370
-1
100
AcDbSpline
210
0
220
0
230
1
70
8
71
3
72
8
73
4
74
0
42
1e-07
43
1e-07
40
0
40
0
40
0
40
0
40
1
40
1
40
1
40
1
10
46.2608539479
20
45.2533816329
30
0
10
46.2337825479
20
45.2533816329
30
0
10
46.0290763479
20
45.4471624329
30
0
10
45.8057704479
20
45.6846523329
30
0
0
SPLINE
5
DC
100
AcDbEntity
8
yuuka
6
ByLayer
62
7
370
-1
100
AcDbSpline
210
0
220
0
230
1
70
8
71
3
72
8
73
4
74
0
42
1e-07
43
1e-07
40
0
40
0
40
0
40
0
40
1
40
1
40
1
40
1
10
45.8057704479
20
45.6846523329
30
0
10
45.5824648479
20
45.9221422329
30
0
10
45.1764634479
20
46.3445230329
30
0
10
44.9061871479
20
46.6239232329
30
0
0
SPLINE
5
DD
100
AcDbEntity
8
yuuka
6
ByLayer
62
7
370
-1
100
AcDbSpline
210
0
220
0
230
1
70
8
71
3
72
8
73
4
74
0
42
1e-07
43
1e-07
40
0
40
0
40
0
40
0
40
1
40
1
40
1
40
1
10
44.9061871479
20
46.6239232329
30
0
10
44.6359117479
20
46.9033231329
30
0
10
44.3303566479
20
47.2685539329
30
0
10
44.2262080479
20
47.4361939329
30
0
0
SPLINE
5
DE
100
AcDbEntity
8
yuuka
6
ByLayer
62
7
370
-1
100
AcDbSpline
210
0
220
0
230
1
70
8
71
3
72
8
73
4
74
0
42
1e-07
43
1e-07
40
0
40
0
40
0
40
0
40
1
40
1
40
1
40
1
10
44.2262080479
20
47.4361939329
30
0
10
43.9601548479
20
47.8644448329
30
0
10
43.7774341479
20
47.9881021329
30
0
10
43.4059996479
20
47.9918191329
30
0
0
SPLINE
5
DF
100
AcDbEntity
8
yuuka
6
ByLayer
62
7
370
-1
100
AcDbSpline
210
0
220
0
230
1
70
8
71
3
72
8
73
4
74
0
42
1e-07
43
1e-07
40
0
40
0
40
0
40
0
40
1
40
1
40
1
40
1
10
43.4059996479
20
47.9918191329
30
0
10
42.9613624479
20
47.9962675329
30
0
10
42.7462423479
20
48.2394046329
30
0
10
42.7842289479
20
48.6929647329
30
0
0
SPLINE
5
E0
100
AcDbEntity
8
yuuka
6
ByLayer
62
7
370
-1
100
AcDbSpline
210
0
220
0
230
1
70
8
71
3
72
8
73
4
74
0
42
1e-07
43
1e-07
40
0
40
0
40
0
40
0
40
1
40
1
40
1
40
1
10
42.7842289479
20
48.6929647329
30
0
10
42.8054995479
20
48.9469402329
30
0
10
42.8703796479
20
49.0718455329
30
0
10
42.9932497479
20
49.0951315329
30
0
0
SPLINE
5
E1
100
AcDbEntity
8
yuuka
6
ByLayer
62
7
370
-1
100
AcDbSpline
210
0
220
0
230
1
70
8
71
3
72
8
73
4
74
0
42
1e-07
43
1e-07
40
0
40
0
40
0
40
0
40
1
40
1
40
1
40
1
10
42.9932497479
20
49.0951315329
30
0
10
43.1162467479
20
49.1184412329
30
0
10
43.1705206479
20
49.0635829329
30
0
10
43.1705206479
20
48.9178606329
30
0
0
SPLINE
5
E2
100
AcDbEntity
8
yuuka
6
ByLayer
62
7
370
-1
100
AcDbSpline
210
0
220
0
230
1
70
8
71
3
72
8
73
4
74
0
42
1e-07
43
1e-07
40
0
40
0
40
0
40
0
40
1
40
1
40
1
40
1
10
43.1705206479
20
48.9178606329
30
0
10
43.1705206479
20
48.6974080329
30
0
10
43.3168441479
20
48.6351568329
30
0
10
43.4245204479
20
48.8093815329
30
0
0
SPLINE
5
E3
100
AcDbEntity
8
yuuka
6
ByLayer
62
7
370
-1
100
AcDbSpline
210
0
220
0
230
1
70
8
71
3
72
8
73
4
74
0
42
1e-07
43
1e-07
40
0
40
0
40
0
40
0
40
1
40
1
40
1
40
1
10
43.4245204479
20
48.8093815329
30
0
10
43.5192931479
20
48.9627271329
30
0
10
43.8481012479
20
48.9308425329
30
0
10
44.0277706479
20
48.7511731329
30
0
0
SPLINE
5
E4
100
AcDbEntity
8
yuuka
6
ByLayer
62
7
370
-1
100
AcDbSpline
210
0
220
0
230
1
70
8
71
3
72
8
73
4
74
0
42
1e-07
43
1e-07
40
0
40
0
40
0
40
0
40
1
40
1
40
1
40
1
10
44.0277706479
20
48.7511731329
30
0
10
44.2641310479
20
48.5148127329
30
0
10
44.5144210479
20
48.6501877329
30
0
10
44.7950623479
20
49.1639230329
30
0
0
SPLINE
5
E5
100
AcDbEntity
8
yuuka
6
ByLayer
62
7
370
-1
100
AcDbSpline
210
0
220
0
230
1
70
8
71
3
72
8
73
4
74
0
42
1e-07
43
1e-07
40
0
40
0
40
0
40
0
40
1
40
1
40
1
40
1
10
44.7950623479
20
49.1639230329
30
0
10
44.9326243479
20
49.4157439329
30
0
10
45.0788572479
20
49.6216522329
30
0
10
45.1204996479
20
49.6216522329
30
0
0
SPLINE
5
E6
100
AcDbEntity
8
yuuka
6
ByLayer
62
7
370
-1
100
AcDbSpline
210
0
220
0
230
1
70
8
71
3
72
8
73
4
74
0
42
1e-07
43
1e-07
40
0
40
0
40
0
40
0
40
1
40
1
40
1
40
1
10
45.1204996479
20
49.6216522329
30
0
10
45.1621420479
20
49.6216522329
30
0
10
45.2692885479
20
49.4850214329
30
0
10
45.3559789479
20
49.3173814329
30
0
0
SPLINE
5
E7
100
AcDbEntity
8
yuuka
6
ByLayer
62
7
370
-1
100
AcDbSpline
210
0
220
0
230
1
70
8
71
3
72
8
73
4
74
0
42
1e-07
43
1e-07
40
0
40
0
40
0
40
0
40
1
40
1
40
1
40
1
10
45.3559789479
20
49.3173814329
30
0
10
45.4426690479
20
49.1497414329
30
0
10
45.5331895479
20
49.0131106329
30
0
10
45.5570623479
20
49.0131106329
30
0
0
SPLINE
5
E8
100
AcDbEntity
8
yuuka
6
ByLayer
62
7
370
-1
100
AcDbSpline
210
0
220
0
230
1
70
8
71
3
72
8
73
4
74
0
42
1e-07
43
1e-07
40
0
40
0
40
0
40
0
40
1
40
1
40
1
40
1
10
45.5570623479
20
49.0131106329
30
0
10
45.5809348479
20
49.0131106329
30
0
10
45.5760022479
20
49.2292222329
30
0
10
45.5464789479
20
49.4946523329
30
0
0
SPLINE
5
E9
100
AcDbEntity
8
yuuka
6
ByLayer
62
7
370
-1
100
AcDbSpline
210
0
220
0
230
1
70
8
71
3
72
8
73
4
74
0
42
1e-07
43
1e-07
40
0
40
0
40
0
40
0
40
1
40
1
40
1
40
1
10
45.5464789479
20
49.4946523329
30
0
10
45.5091994479
20
49.8298087329
30
0
10
45.5561410479
20
50.1742369329
30
0
10
45.7025830479
20
50.6244232329
30
0
0
SPLINE
5
EA
100
AcDbEntity
8
yuuka
6
ByLayer
62
7
370
-1
100
AcDbSpline
210
0
220
0
230
1
70
8
71
3
72
8
73
4
74
0
42
1e-07
43
1e-07
40
0
40
0
40
0
40
0
40
1
40
1
40
1
40
1
10
45.7025830479
20
50.6244232329
30
0
10
45.8185594479
20
50.9809528329
30
0
10
45.9142498479
20
51.3788278329
30
0
10
45.9142498479
20
51.5081314329
30
0
0
SPLINE
5
EB
100
AcDbEntity
8
yuuka
6
ByLayer
62
7
370
-1
100
AcDbSpline
210
0
220
0
230
1
70
8
71
3
72
8
73
4
74
0
42
1e-07
43
1e-07
40
0
40
0
40
0
40
0
40
1
40
1
40
1
40
1
10
45.9142498479
20
51.5081314329
30
0
10
45.9142498479
20
51.6374362329
30
0
10
46.0260766479
20
51.8725741329
30
0
10
46.1629579479
20
52.0293607329
30
0
0
SPLINE
5
EC
100
AcDbEntity
8
yuuka
6
ByLayer
62
7
370
-1
100
AcDbSpline
210
0
220
0
230
1
70
8
71
3
72
8
73
4
74
0
42
1e-07
43
1e-07
40
0
40
0
40
0
40
0
40
1
40
1
40
1
40
1
10
46.1629579479
20
52.0293607329
30
0
10
46.4022775479
20
52.3034800329
30
0
10
46.4090281479
20
52.3052503329
30
0
10
46.3508122479
20
52.0743397329
30
0
0
SPLINE
5
ED
100
AcDbEntity
8
yuuka
6
ByLayer
62
7
370
-1
100
AcDbSpline
210
0
220
0
230
1
70
8
71
3
72
8
73
4
74
0
42
1e-07
43
1e-07
40
0
40
0
40
0
40
0
40
1
40
1
40
1
40
1
10
46.3508122479
20
52.0743397329
30
0
10
46.2938644479
20
51.8484577329
30
0
10
46.3043557479
20
51.8412847329
30
0
10
46.5333748479
20
51.9632149329
30
0
0
SPLINE
5
EE
100
AcDbEntity
8
yuuka
6
ByLayer
62
7
370
-1
100
AcDbSpline
210
0
220
0
230
1
70
8
71
3
72
8
73
4
74
0
42
1e-07
43
1e-07
40
0
40
0
40
0
40
0
40
1
40
1
40
1
40
1
10
46.5333748479
20
51.9632149329
30
0
10
47.2920058479
20
52.3671103329
30
0
10
47.7770053479
20
52.9392403329
30
0
10
48.0362080479
20
53.7412147329
30
0
0
SPLINE
5
EF
100
AcDbEntity
8
yuuka
6
ByLayer
62
7
370
-1
100
AcDbSpline
210
0
220
0
230
1
70
8
71
3
72
8
73
4
74
0
42
1e-07
43
1e-07
40
0
40
0
40
0
40
0
40
1
40
1
40
1
40
1
10
48.0362080479
20
53.7412147329
30
0
10
48.1500787479
20
54.0935323329
30
0
10
48.1437955479
20
54.2341636329
30
0
10
48.0044581479
20
54.7069441329
30
0
0
SPLINE
5
F0
100
AcDbEntity
8
yuuka
6
ByLayer
62
7
370
-1
100
AcDbSpline
210
0
220
0
230
1
70
8
71
3
72
8
73
4
74
0
42
1e-07
43
1e-07
40
0
40
0
40
0
40
0
40
1
40
1
40
1
40
1
10
48.0044581479
20
54.7069441329
30
0
10
47.9148103479
20
55.0111267329
30
0
10
47.7547294479
20
55.4438614329
30
0
10
47.6472706479
20
55.6673815329
30
0
0
SPLINE
5
F1
100
AcDbEntity
8
yuuka
6
ByLayer
62
7
370
-1
100
AcDbSpline
210
0
220
0
230
1
70
8
71
3
72
8
73
4
74
0
42
1e-07
43
1e-07
40
0
40
0
40
0
40
0
40
1
40
1
40
1
40
1
10
47.6472706479
20
55.6673815329
30
0
10
47.5398106479
20
55.8909016329
30
0
10
47.3122072479
20
56.3829205329
30
0
10
47.1419164479
20
56.7601105329
30
0
0
SPLINE
5
F2
100
AcDbEntity
8
yuuka
6
ByLayer
62
7
370
-1
100
AcDbSpline
210
0
220
0
230
1
70
8
71
3
72
8
73
4
74
0
42
1e-07
43
1e-07
40
0
40
0
40
0
40
0
40
1
40
1
40
1
40
1
10
47.1419164479
20
56.7601105329
30
0
10
46.9078834479
20
57.2784907329
30
0
10
46.7812195479
20
57.4453816329
30
0
10
46.6259788479
20
57.4453816329
30
0
0
SPLINE
5
F3
100
AcDbEntity
8
yuuka
6
ByLayer
62
7
370
-1
100
AcDbSpline
210
0
220
0
230
1
70
8
71
3
72
8
73
4
74
0
42
1e-07
43
1e-07
40
0
40
0
40
0
40
0
40
1
40
1
40
1
40
1
10
46.6259788479
20
57.4453816329
30
0
10
46.5130201479
20
57.4453816329
30
0
10
46.4222497479
20
57.4818127329
30
0
10
46.4222497479
20
57.5274022329
30
0
0
SPLINE
5
F4
100
AcDbEntity
8
yuuka
6
ByLayer
62
7
370
-1
100
AcDbSpline
210
0
220
0
230
1
70
8
71
3
72
8
73
4
74
0
42
1e-07
43
1e-07
40
0
40
0
40
0
40
0
40
1
40
1
40
1
40
1
10
46.4222497479
20
57.5274022329
30
0
10
46.4222497479
20
57.5729929329
30
0
10
46.2442786479
20
57.7101298329
30
0
10
46.0280206479
20
57.8316730329
30
0
0
SPLINE
5
F5
100
AcDbEntity
8
yuuka
6
ByLayer
62
7
370
-1
100
AcDbSpline
210
0
220
0
230
1
70
8
71
3
72
8
73
4
74
0
42
1e-07
43
1e-07
40
0
40
0
40
0
40
0
40
1
40
1
40
1
40
1
10
46.0280206479
20
57.8316730329
30
0
10
45.8117632479
20
57.9532171329
30
0
10
45.5816425479
20
58.1188183329
30
0
10
45.5147287479
20
58.1994439329
30
0
0
SPLINE
5
F6
100
AcDbEntity
8
yuuka
6
ByLayer
62
7
370
-1
100
AcDbSpline
210
0
220
0
230
1
70
8
71
3
72
8
73
4
74
0
42
1e-07
43
1e-07
40
0
40
0
40
0
40
0
40
1
40
1
40
1
40
1
10
45.5147287479
20
58.1994439329
30
0
10
45.2934694479
20
58.4660458329
30
0
10
44.2455985479
20
58.9441744329
30
0
10
43.7287912479
20
59.0143606329
30
0
0
SPLINE
5
F7
100
AcDbEntity
8
yuuka
6
ByLayer
62
7
370
-1
100
AcDbSpline
210
0
220
0
230
1
70
8
71
3
72
8
73
4
74
0
42
1e-07
43
1e-07
40
0
40
0
40
0
40
0
40
1
40
1
40
1
40
1
10
43.7287912479
20
59.0143606329
30
0
10
43.4491804479
20
59.0523337329
30
0
10
43.1134282479
20
59.1644356329
30
0
10
42.9826663479
20
59.2630690329
30
0
0
SPLINE
5
F8
100
AcDbEntity
8
yuuka
6
ByLayer
62
7
370
-1
100
AcDbSpline
210
0
220
0
230
1
70
8
71
3
72
8
73
4
74
0
42
1e-07
43
1e-07
40
0
40
0
40
0
40
0
40
1
40
1
40
1
40
1
10
42.9826663479
20
59.2630690329
30
0
10
42.7658578479
20
59.4266068329
30
0
10
42.7520647479
20
59.4896995329
30
0
10
42.8159788479
20
60.0012565329
30
0
0
SPLINE
5
F9
100
AcDbEntity
8
yuuka
6
ByLayer
62
7
370
-1
100
AcDbSpline
210
0
220
0
230
1
70
8
71
3
72
8
73
4
74
0
42
1e-07
43
1e-07
40
0
40
0
40
0
40
0
40
1
40
1
40
1
40
1
10
42.8159788479
20
60.0012565329
30
0
10
42.8545285479
20
60.3097861329
30
0
10
42.9199333479
20
60.6192724329
30
0
10
42.9614998479
20
60.6865273329
30
0
0
SPLINE
5
FA
100
AcDbEntity
8
yuuka
6
ByLayer
62
7
370
-1
100
AcDbSpline
210
0
220
0
230
1
70
8
71
3
72
8
73
4
74
0
42
1e-07
43
1e-07
40
0
40
0
40
0
40
0
40
1
40
1
40
1
40
1
10
42.9614998479
20
60.6865273329
30
0
10
43.0030651479
20
60.7537822329
30
0
10
43.4202295479
20
60.8714707329
30
0
10
43.8901873479
20
60.9484648329
30
0
0
SPLINE
5
FB
100
AcDbEntity
8
yuuka
6
ByLayer
62
7
370
-1
100
AcDbSpline
210
0
220
0
230
1
70
8
71
3
72
8
73
4
74
0
42
1e-07
43
1e-07
40
0
40
0
40
0
40
0
40
1
40
1
40
1
40
1
10
43.8901873479
20
60.9484648329
30
0
10
45.0360820479
20
61.1361988329
30
0
10
45.3606991479
20
61.2886765329
30
0
10
46.0015621479
20
61.9565272329
30
0
0
SPLINE
5
FC
100
AcDbEntity
8
yuuka
6
ByLayer
62
7
370
-1
100
AcDbSpline
210
0
220
0
230
1
70
8
71
3
72
8
73
4
74
0
42
1e-07
43
1e-07
40
0
40
0
40
0
40
0
40
1
40
1
40
1
40
1
10
46.0015621479
20
61.9565272329
30
0
10
46.3007428479
20
62.2683073329
30
0
10
46.5838852479
20
62.5253815329
30
0
10
46.6312705479
20
62.5253815329
30
0
0
SPLINE
5
FD
100
AcDbEntity
8
yuuka
6
ByLayer
62
7
370
-1
100
AcDbSpline
210
0
220
0
230
1
70
8
71
3
72
8
73
4
74
0
42
1e-07
43
1e-07
40
0
40
0
40
0
40
0
40
1
40
1
40
1
40
1
10
46.6312705479
20
62.5253815329
30
0
10
46.8033082479
20
62.5253815329
30
0
10
47.3586451479
20
63.4665031329
30
0
10
47.4091456479
20
63.8430064329
30
0
0
SPLINE
5
FE
100
AcDbEntity
8
yuuka
6
ByLayer
62
7
370
-1
100
AcDbSpline
210
0
220
0
230
1
70
8
71
3
72
8
73
4
74
0
42
1e-07
43
1e-07
40
0
40
0
40
0
40
0
40
1
40
1
40
1
40
1
10
47.4091456479
20
63.8430064329
30
0
10
47.4592021479
20
64.2162121329
30
0
10
47.4772318479
20
64.2319855329
30
0
10
47.9356663479
20
64.2927982329
30
0
0
SPLINE
5
FF
100
AcDbEntity
8
yuuka
6
ByLayer
62
7
370
-1
100
AcDbSpline
210
0
220
0
230
1
70
8
71
3
72
8
73
4
74
0
42
1e-07
43
1e-07
40
0
40
0
40
0
40
0
40
1
40
1
40
1
40
1
10
47.9356663479
20
64.2927982329
30
0
10
48.5374381479
20
64.3726261329
30
0
10
48.8143996479
20
64.5671197329
30
0
10
48.9622498479
20
65.0151106329
30
0
0
SPLINE
5
100
100
AcDbEntity
8
yuuka
6
ByLayer
62
7
370
-1
100
AcDbSpline
210
0
220
0
230
1
70
8
71
3
72
8
73
4
74
0
42
1e-07
43
1e-07
40
0
40
0
40
0
40
0
40
1
40
1
40
1
40
1
10
48.9622498479
20
65.0151106329
30
0
10
49.0421548479
20
65.2572235329
30
0
10
49.1413552479
20
65.3696524329
30
0
10
49.2744580479
20
65.3696524329
30
0
0
SPLINE
5
101
100
AcDbEntity
8
yuuka
6
ByLayer
62
7
370
-1
100
AcDbSpline
210
0
220
0
230
1
70
8
71
3
72
8
73
4
74
0
42
1e-07
43
1e-07
40
0
40
0
40
0
40
0
40
1
40
1
40
1
40
1
10
49.2744580479
20
65.3696524329
30
0
10
49.4647936479
20
65.3696524329
30
0
10
49.6301698479
20
65.5074550329
30
0
10
50.0099998479
20
65.9755480329
30
0
0
SPLINE
5
102
100
AcDbEntity
8
yuuka
6
ByLayer
62
7
370
-1
100
AcDbSpline
210
0
220
0
230
1
70
8
71
3
72
8
73
4
74
0
42
1e-07
43
1e-07
40
0
40
0
40
0
40
0
40
1
40
1
40
1
40
1
10
50.0099998479
20
65.9755480329
30
0
10
50.1662782479
20
66.1681402329
30
0
10
50.1782323479
20
66.2487682329
30
0
10
50.0787913479
20
66.4888399329
30
0
0
SPLINE
5
103
100
AcDbEntity
8
yuuka
6
ByLayer
62
7
370
-1
100
AcDbSpline
210
0
220
0
230
1
70
8
71
3
72
8
73
4
74
0
42
1e-07
43
1e-07
40
0
40
0
40
0
40
0
40
1
40
1
40
1
40
1
10
50.0787913479
20
66.4888399329
30
0
10
49.8976090479
20
66.9262525329
30
0
10
49.2131314479
20
67.4861497329
30
0
10
48.7796872479
20
67.5524647329
30
0
0
SPLINE
5
104
100
AcDbEntity
8
yuuka
6
ByLayer
62
7
370
-1
100
AcDbSpline
210
0
220
0
230
1
70
8
71
3
72
8
73
4
74
0
42
1e-07
43
1e-07
40
0
40
0
40
0
40
0
40
1
40
1
40
1
40
1
10
48.7796872479
20
67.5524647329
30
0
10
48.5723299479
20
67.5841894329
30
0
10
48.2647021479
20
67.6495918329
30
0
10
48.0970621479
20
67.6979857329
30
0
0
SPLINE
5
105
100
AcDbEntity
8
yuuka
6
ByLayer
62
7
370
-1
100
AcDbSpline
210
0
220
0
230
1
70
8
71
3
72
8
73
4
74
0
42
1e-07
43
1e-07
40
0
40
0
40
0
40
0
40
1
40
1
40
1
40
1
10
48.0970621479
20
67.6979857329
30
0
10
46.4527609479
20
68.1726565329
30
0
10
44.4470059479
20
68.4151624329
30
0
10
41.9507914479
20
68.4388189329
30
0
0
SPLINE
5
106
100
AcDbEntity
8
yuuka
6
ByLayer
62
7
370
-1
100
AcDbSpline
210
0
220
0
230
1
70
8
71
3
72
8
73
4
74
0
42
1e-07
43
1e-07
40
0
40
0
40
0
40
0
40
1
40
1
40
1
40
1
10
41.9507914479
20
68.4388189329
30
0
10
41.6016955479
20
68.4421276329
30
0
10
41.3005555479
20
68.4412204329
30
0
10
41.0406247479
20
68.4388189329
30
0
0
LWPOLYLINE
5
107
100
AcDbEntity
8
yuuka
6
ByLayer
62
7
370
-1
100
AcDbPolyline
90
3
70
0
43
0
10
48.8484787479
20
40.5014647329
10
48.4542496479
20
40.9089232329
10
48.4542496479
20
41.7635272329
0
SPLINE
5
108
100
AcDbEntity
8
yuuka
6
ByLayer
62
7
370
-1
100
AcDbSpline
210
0
220
0
230
1
70
8
71
3
72
8
73
4
74
0
42
1e-07
43
1e-07
40
0
40
0
40
0
40
0
40
1
40
1
40
1
40
1
10
48.3113746479
20
39.2896732329
30
0
10
48.3437842479
20
39.2891923329
30
0
10
48.3291124479
20
39.1237882329
30
0
10
48.2902081479
20
38.6996524329
30
0
0
SPLINE
5
109
100
AcDbEntity
8
yuuka
6
ByLayer
62
7
370
-1
100
AcDbSpline
210
0
220
0
230
1
70
8
71
3
72
8
73
4
74
0
42
1e-07
43
1e-07
40
0
40
0
40
0
40
0
40
1
40
1
40
1
40
1
10
48.2902081479
20
38.6996524329
30
0
10
48.2543281479
20
38.3084923329
30
0
10
48.2060890479
20
37.9531039329
30
0
10
48.1817287479
20
37.9111939329
30
0
0
SPLINE
5
10A
100
AcDbEntity
8
yuuka
6
ByLayer
62
7
370
-1
100
AcDbSpline
210
0
220
0
230
1
70
8
71
3
72
8
73
4
74
0
42
1e-07
43
1e-07
40
0
40
0
40
0
40
0
40
1
40
1
40
1
40
1
10
48.1817287479
20
37.9111939329
30
0
10
48.1301557479
20
37.8224650329
30
0
10
48.0026098479
20
37.8125014329
30
0
10
47.9250829479
20
37.8900274329
30
0
0
SPLINE
5
10B
100
AcDbEntity
8
yuuka
6
ByLayer
62
7
370
-1
100
AcDbSpline
210
0
220
0
230
1
70
8
71
3
72
8
73
4
74
0
42
1e-07
43
1e-07
40
0
40
0
40
0
40
0
40
1
40
1
40
1
40
1
10
47.9250829479
20
37.8900274329
30
0
10
47.8389076479
20
37.9762036329
30
0
10
48.0252994479
20
38.8254493329
30
0
10
48.1976038479
20
39.1309231329
30
0
0
SPLINE
5
10C
100
AcDbEntity
8
yuuka
6
ByLayer
62
7
370
-1
100
AcDbSpline
210
0
220
0
230
1
70
8
71
3
72
8
73
4
74
0
42
1e-07
43
1e-07
40
0
40
0
40
0
40
0
40
1
40
1
40
1
40
1
10
48.1976038479
20
39.1309231329
30
0
10
48.2538901479
20
39.2307112329
30
0
10
48.2919292479
20
39.2899618329
30
0
10
48.3113746479
20
39.2896732329
30
0
0
LWPOLYLINE
5
10D
100
AcDbEntity
8
yuuka
6
ByLayer
62
7
370
-1
100
AcDbPolyline
90
2
70
0
43
0
10
41.0406247479
20
68.4388189329
10
41.0406247479
20
68.4388189329
0
LWPOLYLINE
5
10E
100
AcDbEntity
8
yuuka
6
ByLayer
62
7
370
-1
100
AcDbPolyline
90
2
70
0
43
0
10
48.3113746479
20
39.2896732329
10
48.3113746479
20
39.2896732329
0
ENDSEC
0
SECTION
2
OBJECTS
0
DICTIONARY
5
C
330
0
100
AcDbDictionary
281
1
3
ACAD_GROUP
350
D
0
DICTIONARY
5
D
330
C
100
AcDbDictionary
281
1
0
ENDSEC
0
EOF
