  0
SECTION
  2
HEADER
  9
$ACADVER
  1
AC1014
  9
$HANDSEED
  5
FFFF
  9
$MEASUREMENT
 70
     1
  0
ENDSEC
  0
SECTION
  2
TABLES
  0
TABLE
  2
VPORT
  5
8
330
0
100
AcDbSymbolTable
 70
     4
  0
VPORT
  5
2E
330
8
100
AcDbSymbolTableRecord
100
AcDbViewportTableRecord
  2
*ACTIVE
 70
     0
 10
0.0
 20
0.0
 11
1.0
 21
1.0
 12
210.0
 22
148.5
 13
0.0
 23
0.0
 14
10.0
 24
10.0
 15
10.0
 25
10.0
 16
0.0
 26
0.0
 36
1.0
 17
0.0
 27
0.0
 37
0.0
 40
341.0
 41
1.24
 42
50.0
 43
0.0
 44
0.0
 50
0.0
 51
0.0
 71
     0
 72
   100
 73
     1
 74
     3
 75
     0
 76
     0
 77
     0
 78
     0
  0
ENDTAB
  0
TABLE
  2
LTYPE
  5
5
330
0
100
AcDbSymbolTable
 70
     1
  0
LTYPE
  5
14
330
5
100
AcDbSymbolTableRecord
100
AcDbLinetypeTableRecord
  2
BYBLOCK
 70
     0
  3

 72
    65
 73
     0
 40
0.0
  0
LTYPE
  5
15
330
5
100
AcDbSymbolTableRecord
100
AcDbLinetypeTableRecord
  2
BYLAYER
 70
     0
  3

 72
    65
 73
     0
 40
0.0
  0
LTYPE
  5
16
330
5
100
AcDbSymbolTableRecord
100
AcDbLinetypeTableRecord
  2
CONTINUOUS
 70
     0
  3
Solid line
 72
    65
 73
     0
 40
0.0
  0
ENDTAB
  0
TABLE
  2
LAYER
  5
2
100
AcDbSymbolTable
 70
1
  0
LAYER
  5
50
100
AcDbSymbolTableRecord
100
AcDbLayerTableRecord
  2
0
 70
0
  6
CONTINUOUS
  0
ENDTAB
  0
TABLE
  2
STYLE
  5
3
330
0
100
AcDbSymbolTable
 70
     1
  0
STYLE
  5
11
330
3
100
AcDbSymbolTableRecord
100
AcDbTextStyleTableRecord
  2
STANDARD
 70
     0
 40
0.0
 41
1.0
 50
0.0
 71
     0
 42
2.5
  3
txt
  4

  0
ENDTAB
  0
TABLE
  2
VIEW
  5
6
330
0
100
AcDbSymbolTable
 70
     0
  0
ENDTAB
  0
TABLE
  2
UCS
  5
7
330
0
100
AcDbSymbolTable
 70
     0
  0
ENDTAB
  0
TABLE
  2
APPID
  5
9
330
0
100
AcDbSymbolTable
 70
     2
  0
APPID
  5
12
330
9
100
AcDbSymbolTableRecord
100
AcDbRegAppTableRecord
  2
ACAD
 70
     0
  0
ENDTAB
  0
TABLE
  2
DIMSTYLE
  5
A
330
0
100
AcDbSymbolTable
 70
     1
  0
DIMSTYLE
105
27
330
A
100
AcDbSymbolTableRecord
100
AcDbDimStyleTableRecord
  2
ISO-25
 70
     0
  3

  4

  5

  6

  7

 40
1.0
 41
2.5
 42
0.625
 43
3.75
 44
1.25
 45
0.0
 46
0.0
 47
0.0
 48
0.0
140
2.5
141
2.5
142
0.0
143
0.03937007874016
144
1.0
145
0.0
146
1.0
147
0.625
 71
     0
 72
     0
 73
     0
 74
     0
 75
     0
 76
     0
 77
     1
 78
     8
170
     0
171
     3
172
     1
173
     0
174
     0
175
     0
176
     0
177
     0
178
     0
270
     2
271
     2
272
     2
273
     2
274
     3
340
11
275
     0
280
     0
281
     0
282
     0
283
     0
284
     8
285
     0
286
     0
287
     3
288
     0
  0
ENDTAB
  0
TABLE
  2
BLOCK_RECORD
  5
1
330
0
100
AcDbSymbolTable
 70
     1
  0
BLOCK_RECORD
  5
1F
330
1
100
AcDbSymbolTableRecord
100
AcDbBlockTableRecord
  2
*MODEL_SPACE
  0
BLOCK_RECORD
  5
1B
330
1
100
AcDbSymbolTableRecord
100
AcDbBlockTableRecord
  2
*PAPER_SPACE
  0
ENDTAB
  0
ENDSEC
  0
SECTION
  2
BLOCKS
  0
BLOCK
  5
20
330
1F
100
AcDbEntity
  8
0
100
AcDbBlockBegin
  2
*MODEL_SPACE
 70
     0
 10
0.0
 20
0.0
 30
0.0
  3
*MODEL_SPACE
  1

  0
ENDBLK
  5
21
330
1F
100
AcDbEntity
  8
0
100
AcDbBlockEnd
  0
BLOCK
  5
1C
330
1B
100
AcDbEntity
 67
     1
  8
0
100
AcDbBlockBegin
  2
*PAPER_SPACE
  1

  0
ENDBLK
  5
1D
330
1B
100
AcDbEntity
 67
     1
  8
0
100
AcDbBlockEnd
  0
ENDSEC
  0
SECTION
  2
ENTITIES
  0
SPLINE
  5
100
100
AcDbEntity
  8
0
 62
7
100
AcDbSpline
 70
8
 71
3
 72
8
 73
4
 74
0
 40
0
 40
0
 40
0
 40
0
 40
1
 40
1
 40
1
 40
1
 10
72.487014
 20
193.837159
 30
0.0
 10
69.887705
 20
193.813144
 30
0.0
 10
68.563473
 20
193.702197
 30
0.0
 10
68.165486
 20
193.484381
 30
0.0
  0
SPLINE
  5
101
100
AcDbEntity
  8
0
 62
7
100
AcDbSpline
 70
8
 71
3
 72
8
 73
4
 74
0
 40
0
 40
0
 40
0
 40
0
 40
1
 40
1
 40
1
 40
1
 10
68.165486
 20
193.484381
 30
0.0
 10
67.751398
 20
193.257751
 30
0.0
 10
66.608398
 20
192.919993
 30
0.0
 10
65.625486
 20
192.734729
 30
0.0
  0
SPLINE
  5
102
100
AcDbEntity
  8
0
 62
7
100
AcDbSpline
 70
8
 71
3
 72
8
 73
4
 74
0
 40
0
 40
0
 40
0
 40
0
 40
1
 40
1
 40
1
 40
1
 10
65.625486
 20
192.734729
 30
0.0
 10
63.705277
 20
192.372796
 30
0.0
 10
60.040972
 20
191.348984
 30
0.0
 10
57.573333
 20
190.485770
 30
0.0
  0
SPLINE
  5
103
100
AcDbEntity
  8
0
 62
7
100
AcDbSpline
 70
8
 71
3
 72
8
 73
4
 74
0
 40
0
 40
0
 40
0
 40
0
 40
1
 40
1
 40
1
 40
1
 10
57.573333
 20
190.485770
 30
0.0
 10
53.836892
 20
189.178709
 30
0.0
 10
53.284137
 20
188.977524
 30
0.0
 10
52.325764
 20
188.536673
 30
0.0
  0
SPLINE
  5
104
100
AcDbEntity
  8
0
 62
7
100
AcDbSpline
 70
8
 71
3
 72
8
 73
4
 74
0
 40
0
 40
0
 40
0
 40
0
 40
1
 40
1
 40
1
 40
1
 10
52.325764
 20
188.536673
 30
0.0
 10
51.766964
 20
188.279625
 30
0.0
 10
50.242964
 20
187.589061
 30
0.0
 10
48.939097
 20
187.002090
 30
0.0
  0
SPLINE
  5
105
100
AcDbEntity
  8
0
 62
7
100
AcDbSpline
 70
8
 71
3
 72
8
 73
4
 74
0
 40
0
 40
0
 40
0
 40
0
 40
1
 40
1
 40
1
 40
1
 10
48.939097
 20
187.002090
 30
0.0
 10
47.635231
 20
186.415121
 30
0.0
 10
46.111231
 20
185.688438
 30
0.0
 10
45.552431
 20
185.388131
 30
0.0
  0
SPLINE
  5
106
100
AcDbEntity
  8
0
 62
7
100
AcDbSpline
 70
8
 71
3
 72
8
 73
4
 74
0
 40
0
 40
0
 40
0
 40
0
 40
1
 40
1
 40
1
 40
1
 10
45.552431
 20
185.388131
 30
0.0
 10
44.993631
 20
185.087827
 30
0.0
 10
44.231631
 20
184.688553
 30
0.0
 10
43.859097
 20
184.506187
 30
0.0
  0
SPLINE
  5
107
100
AcDbEntity
  8
0
 62
7
100
AcDbSpline
 70
8
 71
3
 72
8
 73
4
 74
0
 40
0
 40
0
 40
0
 40
0
 40
1
 40
1
 40
1
 40
1
 10
43.859097
 20
184.506187
 30
0.0
 10
43.486564
 20
184.323818
 30
0.0
 10
42.947872
 20
184.050124
 30
0.0
 10
42.668472
 20
183.888826
 30
0.0
  0
SPLINE
  5
108
100
AcDbEntity
  8
0
 62
7
100
AcDbSpline
 70
8
 71
3
 72
8
 73
4
 74
0
 40
0
 40
0
 40
0
 40
0
 40
1
 40
1
 40
1
 40
1
 10
42.668472
 20
183.888826
 30
0.0
 10
42.389072
 20
183.727530
 30
0.0
 10
41.629454
 20
183.328869
 30
0.0
 10
40.975139
 20
183.006881
 30
0.0
  0
SPLINE
  5
109
100
AcDbEntity
  8
0
 62
7
100
AcDbSpline
 70
8
 71
3
 72
8
 73
4
 74
0
 40
0
 40
0
 40
0
 40
0
 40
1
 40
1
 40
1
 40
1
 10
40.975139
 20
183.006881
 30
0.0
 10
40.320826
 20
182.684897
 30
0.0
 10
39.302532
 20
182.076606
 30
0.0
 10
38.717361
 20
181.657506
 30
0.0
  0
SPLINE
  5
10a
100
AcDbEntity
  8
0
 62
7
100
AcDbSpline
 70
8
 71
3
 72
8
 73
4
 74
0
 40
0
 40
0
 40
0
 40
0
 40
1
 40
1
 40
1
 40
1
 10
38.717361
 20
181.657506
 30
0.0
 10
38.132185
 20
181.238406
 30
0.0
 10
37.543195
 20
180.899034
 30
0.0
 10
37.403264
 20
180.899034
 30
0.0
  0
SPLINE
  5
10b
100
AcDbEntity
  8
0
 62
7
100
AcDbSpline
 70
8
 71
3
 72
8
 73
4
 74
0
 40
0
 40
0
 40
0
 40
0
 40
1
 40
1
 40
1
 40
1
 10
37.403264
 20
180.899034
 30
0.0
 10
37.263335
 20
180.899034
 30
0.0
 10
36.646773
 20
180.518034
 30
0.0
 10
36.036250
 20
180.052368
 30
0.0
  0
SPLINE
  5
10c
100
AcDbEntity
  8
0
 62
7
100
AcDbSpline
 70
8
 71
3
 72
8
 73
4
 74
0
 40
0
 40
0
 40
0
 40
0
 40
1
 40
1
 40
1
 40
1
 10
36.036250
 20
180.052368
 30
0.0
 10
35.425730
 20
179.586701
 30
0.0
 10
34.859409
 20
179.205701
 30
0.0
 10
34.775069
 20
179.205701
 30
0.0
  0
SPLINE
  5
10d
100
AcDbEntity
  8
0
 62
7
100
AcDbSpline
 70
8
 71
3
 72
8
 73
4
 74
0
 40
0
 40
0
 40
0
 40
0
 40
1
 40
1
 40
1
 40
1
 10
34.775069
 20
179.205701
 30
0.0
 10
34.690736
 20
179.205701
 30
0.0
 10
33.679350
 20
178.559765
 30
0.0
 10
32.526111
 20
177.768131
 30
0.0
  0
SPLINE
  5
10e
100
AcDbEntity
  8
0
 62
7
100
AcDbSpline
 70
8
 71
3
 72
8
 73
4
 74
0
 40
0
 40
0
 40
0
 40
0
 40
1
 40
1
 40
1
 40
1
 10
32.526111
 20
177.768131
 30
0.0
 10
31.372872
 20
176.976498
 30
0.0
 10
30.113630
 20
176.149675
 30
0.0
 10
29.730347
 20
175.933687
 30
0.0
  0
SPLINE
  5
10f
100
AcDbEntity
  8
0
 62
7
100
AcDbSpline
 70
8
 71
3
 72
8
 73
4
 74
0
 40
0
 40
0
 40
0
 40
0
 40
1
 40
1
 40
1
 40
1
 10
29.730347
 20
175.933687
 30
0.0
 10
29.347067
 20
175.717700
 30
0.0
 10
28.936482
 20
175.402469
 30
0.0
 10
28.821944
 20
175.236951
 30
0.0
  0
SPLINE
  5
110
100
AcDbEntity
  8
0
 62
7
100
AcDbSpline
 70
8
 71
3
 72
8
 73
4
 74
0
 40
0
 40
0
 40
0
 40
0
 40
1
 40
1
 40
1
 40
1
 10
28.821944
 20
175.236951
 30
0.0
 10
28.707407
 20
175.071430
 30
0.0
 10
28.138033
 20
174.605338
 30
0.0
 10
27.551944
 20
174.196256
 30
0.0
  0
SPLINE
  5
111
100
AcDbEntity
  8
0
 62
7
100
AcDbSpline
 70
8
 71
3
 72
8
 73
4
 74
0
 40
0
 40
0
 40
0
 40
0
 40
1
 40
1
 40
1
 40
1
 10
27.551944
 20
174.196256
 30
0.0
 10
26.276670
 20
173.306130
 30
0.0
 10
25.740589
 20
173.508170
 30
0.0
 10
23.371528
 20
175.757298
 30
0.0
  0
SPLINE
  5
112
100
AcDbEntity
  8
0
 62
7
100
AcDbSpline
 70
8
 71
3
 72
8
 73
4
 74
0
 40
0
 40
0
 40
0
 40
0
 40
1
 40
1
 40
1
 40
1
 10
23.371528
 20
175.757298
 30
0.0
 10
19.564875
 20
179.371241
 30
0.0
 10
18.714458
 20
180.126567
 30
0.0
 10
17.444861
 20
181.057784
 30
0.0
  0
SPLINE
  5
113
100
AcDbEntity
  8
0
 62
7
100
AcDbSpline
 70
8
 71
3
 72
8
 73
4
 74
0
 40
0
 40
0
 40
0
 40
0
 40
1
 40
1
 40
1
 40
1
 10
17.444861
 20
181.057784
 30
0.0
 10
16.699794
 20
181.604274
 30
0.0
 10
16.034103
 20
182.171549
 30
0.0
 10
15.972014
 20
182.318965
 30
0.0
  0
SPLINE
  5
114
100
AcDbEntity
  8
0
 62
7
100
AcDbSpline
 70
8
 71
3
 72
8
 73
4
 74
0
 40
0
 40
0
 40
0
 40
0
 40
1
 40
1
 40
1
 40
1
 10
15.972014
 20
182.318965
 30
0.0
 10
15.909925
 20
182.466378
 30
0.0
 10
15.673135
 20
182.592368
 30
0.0
 10
15.442847
 20
182.592368
 30
0.0
  0
SPLINE
  5
115
100
AcDbEntity
  8
0
 62
7
100
AcDbSpline
 70
8
 71
3
 72
8
 73
4
 74
0
 40
0
 40
0
 40
0
 40
0
 40
1
 40
1
 40
1
 40
1
 10
15.442847
 20
182.592368
 30
0.0
 10
15.212560
 20
182.592368
 30
0.0
 10
14.692393
 20
182.973368
 30
0.0
 10
14.287500
 20
183.439034
 30
0.0
  0
SPLINE
  5
116
100
AcDbEntity
  8
0
 62
7
100
AcDbSpline
 70
8
 71
3
 72
8
 73
4
 74
0
 40
0
 40
0
 40
0
 40
0
 40
1
 40
1
 40
1
 40
1
 10
14.287500
 20
183.439034
 30
0.0
 10
13.882607
 20
183.904701
 30
0.0
 10
13.385252
 20
184.285701
 30
0.0
 10
13.185069
 20
184.285701
 30
0.0
  0
SPLINE
  5
117
100
AcDbEntity
  8
0
 62
7
100
AcDbSpline
 70
8
 71
3
 72
8
 73
4
 74
0
 40
0
 40
0
 40
0
 40
0
 40
1
 40
1
 40
1
 40
1
 10
13.185069
 20
184.285701
 30
0.0
 10
12.791217
 20
184.285701
 30
0.0
 10
13.866678
 20
182.629996
 30
0.0
 10
14.719653
 20
181.922090
 30
0.0
  0
SPLINE
  5
118
100
AcDbEntity
  8
0
 62
7
100
AcDbSpline
 70
8
 71
3
 72
8
 73
4
 74
0
 40
0
 40
0
 40
0
 40
0
 40
1
 40
1
 40
1
 40
1
 10
14.719653
 20
181.922090
 30
0.0
 10
15.007748
 20
181.682991
 30
0.0
 10
15.240000
 20
181.336402
 30
0.0
 10
15.240000
 20
181.145979
 30
0.0
  0
SPLINE
  5
119
100
AcDbEntity
  8
0
 62
7
100
AcDbSpline
 70
8
 71
3
 72
8
 73
4
 74
0
 40
0
 40
0
 40
0
 40
0
 40
1
 40
1
 40
1
 40
1
 10
15.240000
 20
181.145979
 30
0.0
 10
15.240000
 20
180.955555
 30
0.0
 10
15.546189
 20
180.479779
 30
0.0
 10
15.919097
 20
180.087645
 30
0.0
  0
SPLINE
  5
11a
100
AcDbEntity
  8
0
 62
7
100
AcDbSpline
 70
8
 71
3
 72
8
 73
4
 74
0
 40
0
 40
0
 40
0
 40
0
 40
1
 40
1
 40
1
 40
1
 10
15.919097
 20
180.087645
 30
0.0
 10
19.034935
 20
176.811158
 30
0.0
 10
23.706667
 20
171.396843
 30
0.0
 10
23.706667
 20
171.065354
 30
0.0
  0
SPLINE
  5
11b
100
AcDbEntity
  8
0
 62
7
100
AcDbSpline
 70
8
 71
3
 72
8
 73
4
 74
0
 40
0
 40
0
 40
0
 40
0
 40
1
 40
1
 40
1
 40
1
 10
23.706667
 20
171.065354
 30
0.0
 10
23.706667
 20
170.694598
 30
0.0
 10
22.767366
 20
169.466139
 30
0.0
 10
20.972639
 20
167.475840
 30
0.0
  0
SPLINE
  5
11c
100
AcDbEntity
  8
0
 62
7
100
AcDbSpline
 70
8
 71
3
 72
8
 73
4
 74
0
 40
0
 40
0
 40
0
 40
0
 40
1
 40
1
 40
1
 40
1
 10
20.972639
 20
167.475840
 30
0.0
 10
20.613037
 20
167.077054
 30
0.0
 10
20.320000
 20
166.652812
 30
0.0
 10
20.320000
 20
166.540979
 30
0.0
  0
SPLINE
  5
11d
100
AcDbEntity
  8
0
 62
7
100
AcDbSpline
 70
8
 71
3
 72
8
 73
4
 74
0
 40
0
 40
0
 40
0
 40
0
 40
1
 40
1
 40
1
 40
1
 10
20.320000
 20
166.540979
 30
0.0
 10
20.320000
 20
166.354856
 30
0.0
 10
18.587666
 20
163.954838
 30
0.0
 10
17.418403
 20
162.519312
 30
0.0
  0
SPLINE
  5
11e
100
AcDbEntity
  8
0
 62
7
100
AcDbSpline
 70
8
 71
3
 72
8
 73
4
 74
0
 40
0
 40
0
 40
0
 40
0
 40
1
 40
1
 40
1
 40
1
 10
17.418403
 20
162.519312
 30
0.0
 10
17.151161
 20
162.191217
 30
0.0
 10
16.933333
 20
161.709619
 30
0.0
 10
16.933333
 20
161.443340
 30
0.0
  0
SPLINE
  5
11f
100
AcDbEntity
  8
0
 62
7
100
AcDbSpline
 70
8
 71
3
 72
8
 73
4
 74
0
 40
0
 40
0
 40
0
 40
0
 40
1
 40
1
 40
1
 40
1
 10
16.933333
 20
161.443340
 30
0.0
 10
16.933333
 20
161.177063
 30
0.0
 10
16.777806
 20
160.863063
 30
0.0
 10
16.589375
 20
160.746604
 30
0.0
  0
SPLINE
  5
120
100
AcDbEntity
  8
0
 62
7
100
AcDbSpline
 70
8
 71
3
 72
8
 73
4
 74
0
 40
0
 40
0
 40
0
 40
0
 40
1
 40
1
 40
1
 40
1
 10
16.589375
 20
160.746604
 30
0.0
 10
16.192283
 20
160.501189
 30
0.0
 10
13.912912
 20
156.995676
 30
0.0
 10
13.634861
 20
156.204590
 30
0.0
  0
SPLINE
  5
121
100
AcDbEntity
  8
0
 62
7
100
AcDbSpline
 70
8
 71
3
 72
8
 73
4
 74
0
 40
0
 40
0
 40
0
 40
0
 40
1
 40
1
 40
1
 40
1
 10
13.634861
 20
156.204590
 30
0.0
 10
13.531494
 20
155.910503
 30
0.0
 10
13.249673
 20
155.434476
 30
0.0
 10
13.017500
 20
155.155076
 30
0.0
  0
SPLINE
  5
122
100
AcDbEntity
  8
0
 62
7
100
AcDbSpline
 70
8
 71
3
 72
8
 73
4
 74
0
 40
0
 40
0
 40
0
 40
0
 40
1
 40
1
 40
1
 40
1
 10
13.017500
 20
155.155076
 30
0.0
 10
12.638693
 20
154.699214
 30
0.0
 10
11.603409
 20
152.836519
 30
0.0
 10
9.816042
 20
149.404798
 30
0.0
  0
SPLINE
  5
123
100
AcDbEntity
  8
0
 62
7
100
AcDbSpline
 70
8
 71
3
 72
8
 73
4
 74
0
 40
0
 40
0
 40
0
 40
0
 40
1
 40
1
 40
1
 40
1
 10
9.816042
 20
149.404798
 30
0.0
 10
8.625719
 20
147.119396
 30
0.0
 10
6.773333
 20
143.019351
 30
0.0
 10
6.773333
 20
142.666743
 30
0.0
  0
SPLINE
  5
124
100
AcDbEntity
  8
0
 62
7
100
AcDbSpline
 70
8
 71
3
 72
8
 73
4
 74
0
 40
0
 40
0
 40
0
 40
0
 40
1
 40
1
 40
1
 40
1
 10
6.773333
 20
142.666743
 30
0.0
 10
6.773333
 20
142.470903
 30
0.0
 10
6.478964
 20
141.655371
 30
0.0
 10
6.120694
 20
140.858756
 30
0.0
  0
SPLINE
  5
125
100
AcDbEntity
  8
0
 62
7
100
AcDbSpline
 70
8
 71
3
 72
8
 73
4
 74
0
 40
0
 40
0
 40
0
 40
0
 40
1
 40
1
 40
1
 40
1
 10
6.120694
 20
140.858756
 30
0.0
 10
5.188438
 20
138.785879
 30
0.0
 10
3.657129
 20
133.914690
 30
0.0
 10
3.377847
 20
132.127506
 30
0.0
  0
SPLINE
  5
126
100
AcDbEntity
  8
0
 62
7
100
AcDbSpline
 70
8
 71
3
 72
8
 73
4
 74
0
 40
0
 40
0
 40
0
 40
0
 40
1
 40
1
 40
1
 40
1
 10
3.377847
 20
132.127506
 30
0.0
 10
3.246862
 20
131.289306
 30
0.0
 10
2.802306
 20
128.547870
 30
0.0
 10
2.381250
 20
126.033270
 30
0.0
  0
SPLINE
  5
127
100
AcDbEntity
  8
0
 62
7
100
AcDbSpline
 70
8
 71
3
 72
8
 73
4
 74
0
 40
0
 40
0
 40
0
 40
0
 40
1
 40
1
 40
1
 40
1
 10
2.381250
 20
126.033270
 30
0.0
 10
1.133783
 20
118.583230
 30
0.0
 10
1.753715
 20
110.391431
 30
0.0
 10
4.277431
 20
100.968409
 30
0.0
  0
SPLINE
  5
128
100
AcDbEntity
  8
0
 62
7
100
AcDbSpline
 70
8
 71
3
 72
8
 73
4
 74
0
 40
0
 40
0
 40
0
 40
0
 40
1
 40
1
 40
1
 40
1
 10
4.277431
 20
100.968409
 30
0.0
 10
5.346680
 20
96.976054
 30
0.0
 10
5.305256
 20
97.058793
 30
0.0
 10
7.258403
 20
95.403340
 30
0.0
  0
SPLINE
  5
129
100
AcDbEntity
  8
0
 62
7
100
AcDbSpline
 70
8
 71
3
 72
8
 73
4
 74
0
 40
0
 40
0
 40
0
 40
0
 40
1
 40
1
 40
1
 40
1
 10
7.258403
 20
95.403340
 30
0.0
 10
8.637919
 20
94.234082
 30
0.0
 10
8.925780
 20
94.107246
 30
0.0
 10
9.269236
 20
94.539034
 30
0.0
  0
SPLINE
  5
12a
100
AcDbEntity
  8
0
 62
7
100
AcDbSpline
 70
8
 71
3
 72
8
 73
4
 74
0
 40
0
 40
0
 40
0
 40
0
 40
1
 40
1
 40
1
 40
1
 10
9.269236
 20
94.539034
 30
0.0
 10
9.489832
 20
94.816363
 30
0.0
 10
9.968145
 20
95.215631
 30
0.0
 10
10.336389
 20
95.420979
 30
0.0
  0
SPLINE
  5
12b
100
AcDbEntity
  8
0
 62
7
100
AcDbSpline
 70
8
 71
3
 72
8
 73
4
 74
0
 40
0
 40
0
 40
0
 40
0
 40
1
 40
1
 40
1
 40
1
 10
10.336389
 20
95.420979
 30
0.0
 10
10.824106
 20
95.692948
 30
0.0
 10
11.037308
 20
96.214703
 30
0.0
 10
11.112500
 20
97.361256
 30
0.0
  0
SPLINE
  5
12c
100
AcDbEntity
  8
0
 62
7
100
AcDbSpline
 70
8
 71
3
 72
8
 73
4
 74
0
 40
0
 40
0
 40
0
 40
0
 40
1
 40
1
 40
1
 40
1
 10
11.112500
 20
97.361256
 30
0.0
 10
11.207973
 20
98.817072
 30
0.0
 10
11.282482
 20
98.941870
 30
0.0
 10
12.126736
 20
98.948756
 30
0.0
  0
SPLINE
  5
12d
100
AcDbEntity
  8
0
 62
7
100
AcDbSpline
 70
8
 71
3
 72
8
 73
4
 74
0
 40
0
 40
0
 40
0
 40
0
 40
1
 40
1
 40
1
 40
1
 10
12.126736
 20
98.948756
 30
0.0
 10
13.704765
 20
98.961617
 30
0.0
 10
15.682160
 20
100.128598
 30
0.0
 10
17.665347
 20
102.220770
 30
0.0
  0
SPLINE
  5
12e
100
AcDbEntity
  8
0
 62
7
100
AcDbSpline
 70
8
 71
3
 72
8
 73
4
 74
0
 40
0
 40
0
 40
0
 40
0
 40
1
 40
1
 40
1
 40
1
 10
17.665347
 20
102.220770
 30
0.0
 10
19.648249
 20
104.312644
 30
0.0
 10
20.316444
 20
105.805371
 30
0.0
 10
20.320000
 20
108.147437
 30
0.0
  0
SPLINE
  5
12f
100
AcDbEntity
  8
0
 62
7
100
AcDbSpline
 70
8
 71
3
 72
8
 73
4
 74
0
 40
0
 40
0
 40
0
 40
0
 40
1
 40
1
 40
1
 40
1
 10
20.320000
 20
108.147437
 30
0.0
 10
20.323440
 20
110.421606
 30
0.0
 10
20.759090
 20
111.010740
 30
0.0
 10
22.754167
 20
111.445909
 30
0.0
  0
SPLINE
  5
130
100
AcDbEntity
  8
0
 62
7
100
AcDbSpline
 70
8
 71
3
 72
8
 73
4
 74
0
 40
0
 40
0
 40
0
 40
0
 40
1
 40
1
 40
1
 40
1
 10
22.754167
 20
111.445909
 30
0.0
 10
27.516864
 20
112.484755
 30
0.0
 10
28.960860
 20
113.100787
 30
0.0
 10
30.885694
 20
114.929590
 30
0.0
  0
SPLINE
  5
131
100
AcDbEntity
  8
0
 62
7
100
AcDbSpline
 70
8
 71
3
 72
8
 73
4
 74
0
 40
0
 40
0
 40
0
 40
0
 40
1
 40
1
 40
1
 40
1
 10
30.885694
 20
114.929590
 30
0.0
 10
32.631166
 20
116.587976
 30
0.0
 10
34.545764
 20
120.705462
 30
0.0
 10
34.545764
 20
122.796534
 30
0.0
  0
SPLINE
  5
132
100
AcDbEntity
  8
0
 62
7
100
AcDbSpline
 70
8
 71
3
 72
8
 73
4
 74
0
 40
0
 40
0
 40
0
 40
0
 40
1
 40
1
 40
1
 40
1
 10
34.545764
 20
122.796534
 30
0.0
 10
34.545764
 20
124.176906
 30
0.0
 10
34.662138
 20
124.417828
 30
0.0
 10
35.621736
 20
125.001395
 30
0.0
  0
SPLINE
  5
133
100
AcDbEntity
  8
0
 62
7
100
AcDbSpline
 70
8
 71
3
 72
8
 73
4
 74
0
 40
0
 40
0
 40
0
 40
0
 40
1
 40
1
 40
1
 40
1
 10
35.621736
 20
125.001395
 30
0.0
 10
36.214820
 20
125.362073
 30
0.0
 10
37.548320
 20
125.753320
 30
0.0
 10
38.585069
 20
125.865701
 30
0.0
  0
SPLINE
  5
134
100
AcDbEntity
  8
0
 62
7
100
AcDbSpline
 70
8
 71
3
 72
8
 73
4
 74
0
 40
0
 40
0
 40
0
 40
0
 40
1
 40
1
 40
1
 40
1
 10
38.585069
 20
125.865701
 30
0.0
 10
39.621821
 20
125.978082
 30
0.0
 10
40.896709
 20
126.304858
 30
0.0
 10
41.416111
 20
126.588895
 30
0.0
  0
SPLINE
  5
135
100
AcDbEntity
  8
0
 62
7
100
AcDbSpline
 70
8
 71
3
 72
8
 73
4
 74
0
 40
0
 40
0
 40
0
 40
0
 40
1
 40
1
 40
1
 40
1
 10
41.416111
 20
126.588895
 30
0.0
 10
41.935510
 20
126.872932
 30
0.0
 10
42.707134
 20
127.279228
 30
0.0
 10
43.127083
 20
127.497298
 30
0.0
  0
SPLINE
  5
136
100
AcDbEntity
  8
0
 62
7
100
AcDbSpline
 70
8
 71
3
 72
8
 73
4
 74
0
 40
0
 40
0
 40
0
 40
0
 40
1
 40
1
 40
1
 40
1
 10
43.127083
 20
127.497298
 30
0.0
 10
44.090954
 20
127.997811
 30
0.0
 10
46.399097
 20
130.225487
 30
0.0
 10
46.399097
 20
130.654659
 30
0.0
  0
SPLINE
  5
137
100
AcDbEntity
  8
0
 62
7
100
AcDbSpline
 70
8
 71
3
 72
8
 73
4
 74
0
 40
0
 40
0
 40
0
 40
0
 40
1
 40
1
 40
1
 40
1
 10
46.399097
 20
130.654659
 30
0.0
 10
46.399097
 20
131.181695
 30
0.0
 10
48.518823
 20
133.071362
 30
0.0
 10
49.547639
 20
133.459243
 30
0.0
  0
SPLINE
  5
138
100
AcDbEntity
  8
0
 62
7
100
AcDbSpline
 70
8
 71
3
 72
8
 73
4
 74
0
 40
0
 40
0
 40
0
 40
0
 40
1
 40
1
 40
1
 40
1
 10
49.547639
 20
133.459243
 30
0.0
 10
50.898213
 20
133.968428
 30
0.0
 10
51.583844
 20
133.921672
 30
0.0
 10
51.355625
 20
133.326951
 30
0.0
  0
SPLINE
  5
139
100
AcDbEntity
  8
0
 62
7
100
AcDbSpline
 70
8
 71
3
 72
8
 73
4
 74
0
 40
0
 40
0
 40
0
 40
0
 40
1
 40
1
 40
1
 40
1
 10
51.355625
 20
133.326951
 30
0.0
 10
51.250700
 20
133.053514
 30
0.0
 10
51.309786
 20
132.740307
 30
0.0
 10
51.487917
 20
132.630215
 30
0.0
  0
SPLINE
  5
13a
100
AcDbEntity
  8
0
 62
7
100
AcDbSpline
 70
8
 71
3
 72
8
 73
4
 74
0
 40
0
 40
0
 40
0
 40
0
 40
1
 40
1
 40
1
 40
1
 10
51.487917
 20
132.630215
 30
0.0
 10
51.666050
 20
132.520123
 30
0.0
 10
51.814236
 20
131.823511
 30
0.0
 10
51.814236
 20
131.086812
 30
0.0
  0
SPLINE
  5
13b
100
AcDbEntity
  8
0
 62
7
100
AcDbSpline
 70
8
 71
3
 72
8
 73
4
 74
0
 40
0
 40
0
 40
0
 40
0
 40
1
 40
1
 40
1
 40
1
 10
51.814236
 20
131.086812
 30
0.0
 10
51.814236
 20
129.286178
 30
0.0
 10
53.414507
 20
127.750070
 30
0.0
 10
55.297917
 20
127.735423
 30
0.0
  0
SPLINE
  5
13c
100
AcDbEntity
  8
0
 62
7
100
AcDbSpline
 70
8
 71
3
 72
8
 73
4
 74
0
 40
0
 40
0
 40
0
 40
0
 40
1
 40
1
 40
1
 40
1
 10
55.297917
 20
127.735423
 30
0.0
 10
56.488705
 20
127.726163
 30
0.0
 10
56.554489
 20
127.669781
 30
0.0
 10
56.356250
 20
126.879937
 30
0.0
  0
SPLINE
  5
13d
100
AcDbEntity
  8
0
 62
7
100
AcDbSpline
 70
8
 71
3
 72
8
 73
4
 74
0
 40
0
 40
0
 40
0
 40
0
 40
1
 40
1
 40
1
 40
1
 10
56.356250
 20
126.879937
 30
0.0
 10
56.179912
 20
126.177345
 30
0.0
 10
56.266419
 20
126.033270
 30
0.0
 10
56.858958
 20
126.033270
 30
0.0
  0
SPLINE
  5
13e
100
AcDbEntity
  8
0
 62
7
100
AcDbSpline
 70
8
 71
3
 72
8
 73
4
 74
0
 40
0
 40
0
 40
0
 40
0
 40
1
 40
1
 40
1
 40
1
 10
56.858958
 20
126.033270
 30
0.0
 10
57.335513
 20
126.033270
 30
0.0
 10
57.573333
 20
125.820289
 30
0.0
 10
57.573333
 20
125.389451
 30
0.0
  0
SPLINE
  5
13f
100
AcDbEntity
  8
0
 62
7
100
AcDbSpline
 70
8
 71
3
 72
8
 73
4
 74
0
 40
0
 40
0
 40
0
 40
0
 40
1
 40
1
 40
1
 40
1
 10
57.573333
 20
125.389451
 30
0.0
 10
57.573333
 20
124.871615
 30
0.0
 10
57.908348
 20
124.694321
 30
0.0
 10
59.266667
 20
124.507506
 30
0.0
  0
SPLINE
  5
140
100
AcDbEntity
  8
0
 62
7
100
AcDbSpline
 70
8
 71
3
 72
8
 73
4
 74
0
 40
0
 40
0
 40
0
 40
0
 40
1
 40
1
 40
1
 40
1
 10
59.266667
 20
124.507506
 30
0.0
 10
61.078468
 20
124.258318
 30
0.0
 10
61.374393
 20
123.906819
 30
0.0
 10
60.272083
 20
123.316881
 30
0.0
  0
SPLINE
  5
141
100
AcDbEntity
  8
0
 62
7
100
AcDbSpline
 70
8
 71
3
 72
8
 73
4
 74
0
 40
0
 40
0
 40
0
 40
0
 40
1
 40
1
 40
1
 40
1
 10
60.272083
 20
123.316881
 30
0.0
 10
59.478051
 20
122.891931
 30
0.0
 10
59.662303
 20
122.315870
 30
0.0
 10
60.536667
 20
122.487854
 30
0.0
  0
SPLINE
  5
142
100
AcDbEntity
  8
0
 62
7
100
AcDbSpline
 70
8
 71
3
 72
8
 73
4
 74
0
 40
0
 40
0
 40
0
 40
0
 40
1
 40
1
 40
1
 40
1
 10
60.536667
 20
122.487854
 30
0.0
 10
60.862447
 20
122.551932
 30
0.0
 10
61.856761
 20
122.686580
 30
0.0
 10
62.741528
 20
122.787715
 30
0.0
  0
SPLINE
  5
143
100
AcDbEntity
  8
0
 62
7
100
AcDbSpline
 70
8
 71
3
 72
8
 73
4
 74
0
 40
0
 40
0
 40
0
 40
0
 40
1
 40
1
 40
1
 40
1
 10
62.741528
 20
122.787715
 30
0.0
 10
64.319071
 20
122.968044
 30
0.0
 10
64.346667
 20
122.952812
 30
0.0
 10
64.346667
 20
122.029243
 30
0.0
  0
SPLINE
  5
144
100
AcDbEntity
  8
0
 62
7
100
AcDbSpline
 70
8
 71
3
 72
8
 73
4
 74
0
 40
0
 40
0
 40
0
 40
0
 40
1
 40
1
 40
1
 40
1
 10
64.346667
 20
122.029243
 30
0.0
 10
64.346667
 20
121.511260
 30
0.0
 10
64.156167
 20
120.883550
 30
0.0
 10
63.923333
 20
120.635770
 30
0.0
  0
SPLINE
  5
145
100
AcDbEntity
  8
0
 62
7
100
AcDbSpline
 70
8
 71
3
 72
8
 73
4
 74
0
 40
0
 40
0
 40
0
 40
0
 40
1
 40
1
 40
1
 40
1
 10
63.923333
 20
120.635770
 30
0.0
 10
63.574086
 20
120.264103
 30
0.0
 10
63.722648
 20
120.221553
 30
0.0
 10
64.770000
 20
120.380006
 30
0.0
  0
SPLINE
  5
146
100
AcDbEntity
  8
0
 62
7
100
AcDbSpline
 70
8
 71
3
 72
8
 73
4
 74
0
 40
0
 40
0
 40
0
 40
0
 40
1
 40
1
 40
1
 40
1
 10
64.770000
 20
120.380006
 30
0.0
 10
66.549753
 20
120.649275
 30
0.0
 10
66.851990
 20
119.957156
 30
0.0
 10
66.586806
 20
116.243687
 30
0.0
  0
SPLINE
  5
147
100
AcDbEntity
  8
0
 62
7
100
AcDbSpline
 70
8
 71
3
 72
8
 73
4
 74
0
 40
0
 40
0
 40
0
 40
0
 40
1
 40
1
 40
1
 40
1
 10
66.586806
 20
116.243687
 30
0.0
 10
66.103791
 20
109.479819
 30
0.0
 10
65.725856
 20
107.453938
 30
0.0
 10
63.482361
 20
99.583756
 30
0.0
  0
SPLINE
  5
148
100
AcDbEntity
  8
0
 62
7
100
AcDbSpline
 70
8
 71
3
 72
8
 73
4
 74
0
 40
0
 40
0
 40
0
 40
0
 40
1
 40
1
 40
1
 40
1
 10
63.482361
 20
99.583756
 30
0.0
 10
63.025954
 20
97.982676
 30
0.0
 10
62.653333
 20
96.348615
 30
0.0
 10
62.653333
 20
95.950145
 30
0.0
  0
SPLINE
  5
149
100
AcDbEntity
  8
0
 62
7
100
AcDbSpline
 70
8
 71
3
 72
8
 73
4
 74
0
 40
0
 40
0
 40
0
 40
0
 40
1
 40
1
 40
1
 40
1
 10
62.653333
 20
95.950145
 30
0.0
 10
62.653333
 20
95.551673
 30
0.0
 10
62.272333
 20
93.905815
 30
0.0
 10
61.806667
 20
92.298895
 30
0.0
  0
SPLINE
  5
14a
100
AcDbEntity
  8
0
 62
7
100
AcDbSpline
 70
8
 71
3
 72
8
 73
4
 74
0
 40
0
 40
0
 40
0
 40
0
 40
1
 40
1
 40
1
 40
1
 10
61.806667
 20
92.298895
 30
0.0
 10
61.267357
 20
90.437851
 30
0.0
 10
60.960000
 20
88.532183
 30
0.0
 10
60.960000
 20
87.042506
 30
0.0
  0
SPLINE
  5
14b
100
AcDbEntity
  8
0
 62
7
100
AcDbSpline
 70
8
 71
3
 72
8
 73
4
 74
0
 40
0
 40
0
 40
0
 40
0
 40
1
 40
1
 40
1
 40
1
 10
60.960000
 20
87.042506
 30
0.0
 10
60.960000
 20
84.862410
 30
0.0
 10
61.074808
 20
84.498118
 30
0.0
 10
62.653333
 20
81.697923
 30
0.0
  0
SPLINE
  5
14c
100
AcDbEntity
  8
0
 62
7
100
AcDbSpline
 70
8
 71
3
 72
8
 73
4
 74
0
 40
0
 40
0
 40
0
 40
0
 40
1
 40
1
 40
1
 40
1
 10
62.653333
 20
81.697923
 30
0.0
 10
63.584667
 20
80.045803
 30
0.0
 10
64.346667
 20
78.514332
 30
0.0
 10
64.346667
 20
78.293618
 30
0.0
  0
SPLINE
  5
14d
100
AcDbEntity
  8
0
 62
7
100
AcDbSpline
 70
8
 71
3
 72
8
 73
4
 74
0
 40
0
 40
0
 40
0
 40
0
 40
1
 40
1
 40
1
 40
1
 10
64.346667
 20
78.293618
 30
0.0
 10
64.346667
 20
78.072906
 30
0.0
 10
64.713203
 20
77.255048
 30
0.0
 10
65.158056
 20
76.476812
 30
0.0
  0
SPLINE
  5
14e
100
AcDbEntity
  8
0
 62
7
100
AcDbSpline
 70
8
 71
3
 72
8
 73
4
 74
0
 40
0
 40
0
 40
0
 40
0
 40
1
 40
1
 40
1
 40
1
 10
65.158056
 20
76.476812
 30
0.0
 10
65.602906
 20
75.698579
 30
0.0
 10
66.058821
 20
74.527009
 30
0.0
 10
66.172292
 20
73.875076
 30
0.0
  0
SPLINE
  5
14f
100
AcDbEntity
  8
0
 62
7
100
AcDbSpline
 70
8
 71
3
 72
8
 73
4
 74
0
 40
0
 40
0
 40
0
 40
0
 40
1
 40
1
 40
1
 40
1
 10
66.172292
 20
73.875076
 30
0.0
 10
66.362715
 20
72.781025
 30
0.0
 10
66.220871
 20
72.520220
 30
0.0
 10
64.337847
 20
70.488409
 30
0.0
  0
SPLINE
  5
150
100
AcDbEntity
  8
0
 62
7
100
AcDbSpline
 70
8
 71
3
 72
8
 73
4
 74
0
 40
0
 40
0
 40
0
 40
0
 40
1
 40
1
 40
1
 40
1
 10
64.337847
 20
70.488409
 30
0.0
 10
63.215774
 20
69.277676
 30
0.0
 10
61.575233
 20
67.490007
 30
0.0
 10
60.695417
 20
66.510840
 30
0.0
  0
SPLINE
  5
151
100
AcDbEntity
  8
0
 62
7
100
AcDbSpline
 70
8
 71
3
 72
8
 73
4
 74
0
 40
0
 40
0
 40
0
 40
0
 40
1
 40
1
 40
1
 40
1
 10
60.695417
 20
66.510840
 30
0.0
 10
57.785821
 20
63.272681
 30
0.0
 10
51.833774
 20
57.285701
 30
0.0
 10
51.523194
 20
57.285701
 30
0.0
  0
SPLINE
  5
152
100
AcDbEntity
  8
0
 62
7
100
AcDbSpline
 70
8
 71
3
 72
8
 73
4
 74
0
 40
0
 40
0
 40
0
 40
0
 40
1
 40
1
 40
1
 40
1
 10
51.523194
 20
57.285701
 30
0.0
 10
51.355275
 20
57.285701
 30
0.0
 10
50.964005
 20
56.904701
 30
0.0
 10
50.658889
 20
56.439034
 30
0.0
  0
SPLINE
  5
153
100
AcDbEntity
  8
0
 62
7
100
AcDbSpline
 70
8
 71
3
 72
8
 73
4
 74
0
 40
0
 40
0
 40
0
 40
0
 40
1
 40
1
 40
1
 40
1
 10
50.658889
 20
56.439034
 30
0.0
 10
50.353770
 20
55.973368
 30
0.0
 10
49.884480
 20
55.592368
 30
0.0
 10
49.609375
 20
55.592368
 30
0.0
  0
SPLINE
  5
154
100
AcDbEntity
  8
0
 62
7
100
AcDbSpline
 70
8
 71
3
 72
8
 73
4
 74
0
 40
0
 40
0
 40
0
 40
0
 40
1
 40
1
 40
1
 40
1
 10
49.609375
 20
55.592368
 30
0.0
 10
49.334270
 20
55.592368
 30
0.0
 10
49.106667
 20
55.469674
 30
0.0
 10
49.106667
 20
55.318965
 30
0.0
  0
SPLINE
  5
155
100
AcDbEntity
  8
0
 62
7
100
AcDbSpline
 70
8
 71
3
 72
8
 73
4
 74
0
 40
0
 40
0
 40
0
 40
0
 40
1
 40
1
 40
1
 40
1
 10
49.106667
 20
55.318965
 30
0.0
 10
49.106667
 20
54.927201
 30
0.0
 10
45.090297
 20
52.205701
 30
0.0
 10
44.511736
 20
52.205701
 30
0.0
  0
SPLINE
  5
156
100
AcDbEntity
  8
0
 62
7
100
AcDbSpline
 70
8
 71
3
 72
8
 73
4
 74
0
 40
0
 40
0
 40
0
 40
0
 40
1
 40
1
 40
1
 40
1
 10
44.511736
 20
52.205701
 30
0.0
 10
44.245982
 20
52.205701
 30
0.0
 10
44.026667
 20
52.085028
 30
0.0
 10
44.026667
 20
51.941118
 30
0.0
  0
SPLINE
  5
157
100
AcDbEntity
  8
0
 62
7
100
AcDbSpline
 70
8
 71
3
 72
8
 73
4
 74
0
 40
0
 40
0
 40
0
 40
0
 40
1
 40
1
 40
1
 40
1
 10
44.026667
 20
51.941118
 30
0.0
 10
44.026667
 20
51.674045
 30
0.0
 10
43.253807
 20
51.249453
 30
0.0
 10
39.960903
 20
49.718618
 30
0.0
  0
SPLINE
  5
158
100
AcDbEntity
  8
0
 62
7
100
AcDbSpline
 70
8
 71
3
 72
8
 73
4
 74
0
 40
0
 40
0
 40
0
 40
0
 40
1
 40
1
 40
1
 40
1
 10
39.960903
 20
49.718618
 30
0.0
 10
35.466980
 20
47.629445
 30
0.0
 10
34.285510
 20
47.125701
 30
0.0
 10
33.928403
 20
47.125701
 30
0.0
  0
SPLINE
  5
159
100
AcDbEntity
  8
0
 62
7
100
AcDbSpline
 70
8
 71
3
 72
8
 73
4
 74
0
 40
0
 40
0
 40
0
 40
0
 40
1
 40
1
 40
1
 40
1
 10
33.928403
 20
47.125701
 30
0.0
 10
33.719228
 20
47.125701
 30
0.0
 10
32.741811
 20
46.763390
 30
0.0
 10
31.758819
 20
46.323131
 30
0.0
  0
SPLINE
  5
15a
100
AcDbEntity
  8
0
 62
7
100
AcDbSpline
 70
8
 71
3
 72
8
 73
4
 74
0
 40
0
 40
0
 40
0
 40
0
 40
1
 40
1
 40
1
 40
1
 10
31.758819
 20
46.323131
 30
0.0
 10
29.228076
 20
45.189662
 30
0.0
 10
24.708073
 20
43.728366
 30
0.0
 10
23.706667
 20
43.721395
 30
0.0
  0
SPLINE
  5
15b
100
AcDbEntity
  8
0
 62
7
100
AcDbSpline
 70
8
 71
3
 72
8
 73
4
 74
0
 40
0
 40
0
 40
0
 40
0
 40
1
 40
1
 40
1
 40
1
 10
23.706667
 20
43.721395
 30
0.0
 10
23.241000
 20
43.718147
 30
0.0
 10
21.791436
 20
43.413756
 30
0.0
 10
20.487569
 20
43.042298
 30
0.0
  0
SPLINE
  5
15c
100
AcDbEntity
  8
0
 62
7
100
AcDbSpline
 70
8
 71
3
 72
8
 73
4
 74
0
 40
0
 40
0
 40
0
 40
0
 40
1
 40
1
 40
1
 40
1
 10
20.487569
 20
43.042298
 30
0.0
 10
19.183703
 20
42.670840
 30
0.0
 10
17.585267
 20
42.270189
 30
0.0
 10
16.933333
 20
42.151534
 30
0.0
  0
SPLINE
  5
15d
100
AcDbEntity
  8
0
 62
7
100
AcDbSpline
 70
8
 71
3
 72
8
 73
4
 74
0
 40
0
 40
0
 40
0
 40
0
 40
1
 40
1
 40
1
 40
1
 10
16.933333
 20
42.151534
 30
0.0
 10
16.281400
 20
42.032882
 30
0.0
 10
15.176325
 20
41.581917
 30
0.0
 10
14.481528
 20
41.146118
 30
0.0
  0
SPLINE
  5
15e
100
AcDbEntity
  8
0
 62
7
100
AcDbSpline
 70
8
 71
3
 72
8
 73
4
 74
0
 40
0
 40
0
 40
0
 40
0
 40
1
 40
1
 40
1
 40
1
 10
14.481528
 20
41.146118
 30
0.0
 10
13.786728
 20
40.710318
 30
0.0
 10
13.103840
 20
40.352368
 30
0.0
 10
12.955764
 20
40.352368
 30
0.0
  0
SPLINE
  5
15f
100
AcDbEntity
  8
0
 62
7
100
AcDbSpline
 70
8
 71
3
 72
8
 73
4
 74
0
 40
0
 40
0
 40
0
 40
0
 40
1
 40
1
 40
1
 40
1
 10
12.955764
 20
40.352368
 30
0.0
 10
12.635444
 20
40.352368
 30
0.0
 10
8.559385
 20
36.385370
 30
0.0
 10
7.699375
 20
35.237090
 30
0.0
  0
SPLINE
  5
160
100
AcDbEntity
  8
0
 62
7
100
AcDbSpline
 70
8
 71
3
 72
8
 73
4
 74
0
 40
0
 40
0
 40
0
 40
0
 40
1
 40
1
 40
1
 40
1
 10
7.699375
 20
35.237090
 30
0.0
 10
7.368887
 20
34.795824
 30
0.0
 10
6.945472
 20
33.880642
 30
0.0
 10
6.764514
 20
33.208618
 30
0.0
  0
SPLINE
  5
161
100
AcDbEntity
  8
0
 62
7
100
AcDbSpline
 70
8
 71
3
 72
8
 73
4
 74
0
 40
0
 40
0
 40
0
 40
0
 40
1
 40
1
 40
1
 40
1
 10
6.764514
 20
33.208618
 30
0.0
 10
6.583556
 20
32.536587
 30
0.0
 10
6.132415
 20
31.712021
 30
0.0
 10
5.759097
 20
31.374173
 30
0.0
  0
SPLINE
  5
162
100
AcDbEntity
  8
0
 62
7
100
AcDbSpline
 70
8
 71
3
 72
8
 73
4
 74
0
 40
0
 40
0
 40
0
 40
0
 40
1
 40
1
 40
1
 40
1
 10
5.759097
 20
31.374173
 30
0.0
 10
5.282209
 20
30.942593
 30
0.0
 10
5.080000
 20
30.332892
 30
0.0
 10
5.080000
 20
29.319243
 30
0.0
  0
SPLINE
  5
163
100
AcDbEntity
  8
0
 62
7
100
AcDbSpline
 70
8
 71
3
 72
8
 73
4
 74
0
 40
0
 40
0
 40
0
 40
0
 40
1
 40
1
 40
1
 40
1
 10
5.080000
 20
29.319243
 30
0.0
 10
5.080000
 20
27.859482
 30
0.0
 10
4.695097
 20
27.185753
 30
0.0
 10
2.681111
 20
25.147645
 30
0.0
  0
SPLINE
  5
164
100
AcDbEntity
  8
0
 62
7
100
AcDbSpline
 70
8
 71
3
 72
8
 73
4
 74
0
 40
0
 40
0
 40
0
 40
0
 40
1
 40
1
 40
1
 40
1
 10
2.681111
 20
25.147645
 30
0.0
 10
1.090622
 20
23.538109
 30
0.0
 10
0.000000
 20
21.839366
 30
0.0
 10
0.000000
 20
20.967229
 30
0.0
  0
SPLINE
  5
165
100
AcDbEntity
  8
0
 62
7
100
AcDbSpline
 70
8
 71
3
 72
8
 73
4
 74
0
 40
0
 40
0
 40
0
 40
0
 40
1
 40
1
 40
1
 40
1
 10
0.000000
 20
20.967229
 30
0.0
 10
0.000000
 20
20.013617
 30
0.0
 10
1.536370
 20
18.647850
 30
0.0
 10
3.563056
 20
17.801048
 30
0.0
  0
SPLINE
  5
166
100
AcDbEntity
  8
0
 62
7
100
AcDbSpline
 70
8
 71
3
 72
8
 73
4
 74
0
 40
0
 40
0
 40
0
 40
0
 40
1
 40
1
 40
1
 40
1
 10
3.563056
 20
17.801048
 30
0.0
 10
4.219211
 20
17.526889
 30
0.0
 10
5.055720
 20
17.005119
 30
0.0
 10
5.423958
 20
16.636881
 30
0.0
  0
SPLINE
  5
167
100
AcDbEntity
  8
0
 62
7
100
AcDbSpline
 70
8
 71
3
 72
8
 73
4
 74
0
 40
0
 40
0
 40
0
 40
0
 40
1
 40
1
 40
1
 40
1
 10
5.423958
 20
16.636881
 30
0.0
 10
5.792199
 20
16.268644
 30
0.0
 10
6.251928
 20
15.966604
 30
0.0
 10
6.438194
 20
15.966604
 30
0.0
  0
SPLINE
  5
168
100
AcDbEntity
  8
0
 62
7
100
AcDbSpline
 70
8
 71
3
 72
8
 73
4
 74
0
 40
0
 40
0
 40
0
 40
0
 40
1
 40
1
 40
1
 40
1
 10
6.438194
 20
15.966604
 30
0.0
 10
6.624461
 20
15.966604
 30
0.0
 10
6.773333
 20
15.756464
 30
0.0
 10
6.773333
 20
15.499173
 30
0.0
  0
SPLINE
  5
169
100
AcDbEntity
  8
0
 62
7
100
AcDbSpline
 70
8
 71
3
 72
8
 73
4
 74
0
 40
0
 40
0
 40
0
 40
0
 40
1
 40
1
 40
1
 40
1
 10
6.773333
 20
15.499173
 30
0.0
 10
6.773333
 20
15.241880
 30
0.0
 10
7.290443
 20
14.638697
 30
0.0
 10
7.919861
 20
14.158618
 30
0.0
  0
SPLINE
  5
16a
100
AcDbEntity
  8
0
 62
7
100
AcDbSpline
 70
8
 71
3
 72
8
 73
4
 74
0
 40
0
 40
0
 40
0
 40
0
 40
1
 40
1
 40
1
 40
1
 10
7.919861
 20
14.158618
 30
0.0
 10
9.150404
 20
13.220040
 30
0.0
 10
12.043196
 20
12.584453
 30
0.0
 10
15.134167
 20
12.579937
 30
0.0
  0
SPLINE
  5
16b
100
AcDbEntity
  8
0
 62
7
100
AcDbSpline
 70
8
 71
3
 72
8
 73
4
 74
0
 40
0
 40
0
 40
0
 40
0
 40
1
 40
1
 40
1
 40
1
 10
15.134167
 20
12.579937
 30
0.0
 10
16.102451
 20
12.578532
 30
0.0
 10
18.090707
 20
12.192624
 30
0.0
 10
19.543889
 20
11.724451
 30
0.0
  0
SPLINE
  5
16c
100
AcDbEntity
  8
0
 62
7
100
AcDbSpline
 70
8
 71
3
 72
8
 73
4
 74
0
 40
0
 40
0
 40
0
 40
0
 40
1
 40
1
 40
1
 40
1
 10
19.543889
 20
11.724451
 30
0.0
 10
21.879924
 20
10.971852
 30
0.0
 10
22.493038
 20
10.579182
 30
0.0
 10
24.888472
 20
8.337784
 30
0.0
  0
SPLINE
  5
16d
100
AcDbEntity
  8
0
 62
7
100
AcDbSpline
 70
8
 71
3
 72
8
 73
4
 74
0
 40
0
 40
0
 40
0
 40
0
 40
1
 40
1
 40
1
 40
1
 10
24.888472
 20
8.337784
 30
0.0
 10
26.378606
 20
6.943474
 30
0.0
 10
27.726838
 20
5.806790
 30
0.0
 10
27.878264
 20
5.806604
 30
0.0
  0
SPLINE
  5
16e
100
AcDbEntity
  8
0
 62
7
100
AcDbSpline
 70
8
 71
3
 72
8
 73
4
 74
0
 40
0
 40
0
 40
0
 40
0
 40
1
 40
1
 40
1
 40
1
 10
27.878264
 20
5.806604
 30
0.0
 10
28.029690
 20
5.806420
 30
0.0
 10
28.940562
 20
5.436941
 30
0.0
 10
29.906736
 20
4.986395
 30
0.0
  0
SPLINE
  5
16f
100
AcDbEntity
  8
0
 62
7
100
AcDbSpline
 70
8
 71
3
 72
8
 73
4
 74
0
 40
0
 40
0
 40
0
 40
0
 40
1
 40
1
 40
1
 40
1
 10
29.906736
 20
4.986395
 30
0.0
 10
31.509487
 20
4.239000
 30
0.0
 10
35.702725
 20
3.087861
 30
0.0
 10
39.114236
 20
2.455215
 30
0.0
  0
SPLINE
  5
170
100
AcDbEntity
  8
0
 62
7
100
AcDbSpline
 70
8
 71
3
 72
8
 73
4
 74
0
 40
0
 40
0
 40
0
 40
0
 40
1
 40
1
 40
1
 40
1
 10
39.114236
 20
2.455215
 30
0.0
 10
39.859303
 20
2.317044
 30
0.0
 10
41.234431
 20
1.855097
 30
0.0
 10
42.165764
 20
1.432159
 30
0.0
  0
SPLINE
  5
171
100
AcDbEntity
  8
0
 62
7
100
AcDbSpline
 70
8
 71
3
 72
8
 73
4
 74
0
 40
0
 40
0
 40
0
 40
0
 40
1
 40
1
 40
1
 40
1
 10
42.165764
 20
1.432159
 30
0.0
 10
43.097097
 20
1.009221
 30
0.0
 10
44.927661
 20
0.536064
 30
0.0
 10
46.231528
 20
0.382645
 30
0.0
  0
SPLINE
  5
172
100
AcDbEntity
  8
0
 62
7
100
AcDbSpline
 70
8
 71
3
 72
8
 73
4
 74
0
 40
0
 40
0
 40
0
 40
0
 40
1
 40
1
 40
1
 40
1
 10
46.231528
 20
0.382645
 30
0.0
 10
47.535394
 20
0.229227
 30
0.0
 10
50.881139
 20
0.187551
 30
0.0
 10
53.675139
 20
0.285631
 30
0.0
  0
SPLINE
  5
173
100
AcDbEntity
  8
0
 62
7
100
AcDbSpline
 70
8
 71
3
 72
8
 73
4
 74
0
 40
0
 40
0
 40
0
 40
0
 40
1
 40
1
 40
1
 40
1
 10
53.675139
 20
0.285631
 30
0.0
 10
60.039323
 20
0.509033
 30
0.0
 10
69.865339
 20
0.488473
 30
0.0
 10
87.118472
 20
0.215076
 30
0.0
  0
SPLINE
  5
174
100
AcDbEntity
  8
0
 62
7
100
AcDbSpline
 70
8
 71
3
 72
8
 73
4
 74
0
 40
0
 40
0
 40
0
 40
0
 40
1
 40
1
 40
1
 40
1
 10
100.568125
 20
6.547437
 30
0.0
 10
100.559946
 20
10.146479
 30
0.0
 10
100.415299
 20
14.234465
 30
0.0
 10
100.241806
 20
15.631465
 30
0.0
  0
SPLINE
  5
175
100
AcDbEntity
  8
0
 62
7
100
AcDbSpline
 70
8
 71
3
 72
8
 73
4
 74
0
 40
0
 40
0
 40
0
 40
0
 40
1
 40
1
 40
1
 40
1
 10
100.241806
 20
15.631465
 30
0.0
 10
100.068315
 20
17.028465
 30
0.0
 10
99.762990
 20
22.204773
 30
0.0
 10
99.571528
 20
27.140840
 30
0.0
  0
SPLINE
  5
176
100
AcDbEntity
  8
0
 62
7
100
AcDbSpline
 70
8
 71
3
 72
8
 73
4
 74
0
 40
0
 40
0
 40
0
 40
0
 40
1
 40
1
 40
1
 40
1
 10
99.571528
 20
27.140840
 30
0.0
 10
99.380071
 20
32.076906
 30
0.0
 10
99.072435
 20
40.152343
 30
0.0
 10
98.883611
 20
45.088409
 30
0.0
  0
SPLINE
  5
177
100
AcDbEntity
  8
0
 62
7
100
AcDbSpline
 70
8
 71
3
 72
8
 73
4
 74
0
 40
0
 40
0
 40
0
 40
0
 40
1
 40
1
 40
1
 40
1
 10
98.883611
 20
45.088409
 30
0.0
 10
98.694788
 20
50.024476
 30
0.0
 10
98.318391
 20
55.441731
 30
0.0
 10
98.045764
 20
57.118131
 30
0.0
  0
SPLINE
  5
178
100
AcDbEntity
  8
0
 62
7
100
AcDbSpline
 70
8
 71
3
 72
8
 73
4
 74
0
 40
0
 40
0
 40
0
 40
0
 40
1
 40
1
 40
1
 40
1
 10
98.045764
 20
57.118131
 30
0.0
 10
97.773134
 20
58.794531
 30
0.0
 10
97.386688
 20
62.040640
 30
0.0
 10
97.190278
 20
64.341256
 30
0.0
  0
SPLINE
  5
179
100
AcDbEntity
  8
0
 62
7
100
AcDbSpline
 70
8
 71
3
 72
8
 73
4
 74
0
 40
0
 40
0
 40
0
 40
0
 40
1
 40
1
 40
1
 40
1
 10
97.190278
 20
64.341256
 30
0.0
 10
96.993868
 20
66.641873
 30
0.0
 10
96.604540
 20
69.613944
 30
0.0
 10
96.325972
 20
70.938201
 30
0.0
  0
SPLINE
  5
17a
100
AcDbEntity
  8
0
 62
7
100
AcDbSpline
 70
8
 71
3
 72
8
 73
4
 74
0
 40
0
 40
0
 40
0
 40
0
 40
1
 40
1
 40
1
 40
1
 10
96.325972
 20
70.938201
 30
0.0
 10
96.047405
 20
72.262455
 30
0.0
 10
95.733260
 20
74.436323
 30
0.0
 10
95.620417
 20
75.771256
 30
0.0
  0
LWPOLYLINE
  5
17b
100
AcDbEntity
  8
0
 62
7
100
AcDbPolyline
 90
3
 70
0
 10
87.118472
 20
0.215076
 30
0.0
 10
100.585764
 20
0.003409
 30
0.0
 10
100.568125
 20
6.547437
 30
0.0
  0
SPLINE
  5
17c
100
AcDbEntity
  8
0
 62
7
100
AcDbSpline
 70
8
 71
3
 72
8
 73
4
 74
0
 40
0
 40
0
 40
0
 40
0
 40
1
 40
1
 40
1
 40
1
 10
96.599375
 20
78.593479
 30
0.0
 10
97.254190
 20
78.809588
 30
0.0
 10
98.067038
 20
79.285507
 30
0.0
 10
98.398542
 20
79.651812
 30
0.0
  0
SPLINE
  5
17d
100
AcDbEntity
  8
0
 62
7
100
AcDbSpline
 70
8
 71
3
 72
8
 73
4
 74
0
 40
0
 40
0
 40
0
 40
0
 40
1
 40
1
 40
1
 40
1
 10
98.398542
 20
79.651812
 30
0.0
 10
98.730043
 20
80.018122
 30
0.0
 10
99.591605
 20
80.478413
 30
0.0
 10
100.321181
 20
80.674868
 30
0.0
  0
SPLINE
  5
17e
100
AcDbEntity
  8
0
 62
7
100
AcDbSpline
 70
8
 71
3
 72
8
 73
4
 74
0
 40
0
 40
0
 40
0
 40
0
 40
1
 40
1
 40
1
 40
1
 10
100.321181
 20
80.674868
 30
0.0
 10
101.352319
 20
80.952523
 30
0.0
 10
101.759992
 20
81.281789
 30
0.0
 10
102.129167
 20
82.165354
 30
0.0
  0
SPLINE
  5
17f
100
AcDbEntity
  8
0
 62
7
100
AcDbSpline
 70
8
 71
3
 72
8
 73
4
 74
0
 40
0
 40
0
 40
0
 40
0
 40
1
 40
1
 40
1
 40
1
 10
102.129167
 20
82.165354
 30
0.0
 10
102.457589
 20
82.951371
 30
0.0
 10
102.941557
 20
83.420179
 30
0.0
 10
103.707847
 20
83.673479
 30
0.0
  0
SPLINE
  5
180
100
AcDbEntity
  8
0
 62
7
100
AcDbSpline
 70
8
 71
3
 72
8
 73
4
 74
0
 40
0
 40
0
 40
0
 40
0
 40
1
 40
1
 40
1
 40
1
 10
103.707847
 20
83.673479
 30
0.0
 10
104.317315
 20
83.874940
 30
0.0
 10
105.485588
 20
84.647603
 30
0.0
 10
106.300764
 20
85.393270
 30
0.0
  0
SPLINE
  5
181
100
AcDbEntity
  8
0
 62
7
100
AcDbSpline
 70
8
 71
3
 72
8
 73
4
 74
0
 40
0
 40
0
 40
0
 40
0
 40
1
 40
1
 40
1
 40
1
 10
106.300764
 20
85.393270
 30
0.0
 10
107.115937
 20
86.138941
 30
0.0
 10
107.823595
 20
86.751465
 30
0.0
 10
107.870625
 20
86.751465
 30
0.0
  0
SPLINE
  5
182
100
AcDbEntity
  8
0
 62
7
100
AcDbSpline
 70
8
 71
3
 72
8
 73
4
 74
0
 40
0
 40
0
 40
0
 40
0
 40
1
 40
1
 40
1
 40
1
 10
107.870625
 20
86.751465
 30
0.0
 10
107.917649
 20
86.751465
 30
0.0
 10
108.798716
 20
86.239195
 30
0.0
 10
109.837361
 20
85.613756
 30
0.0
  0
SPLINE
  5
183
100
AcDbEntity
  8
0
 62
7
100
AcDbSpline
 70
8
 71
3
 72
8
 73
4
 74
0
 40
0
 40
0
 40
0
 40
0
 40
1
 40
1
 40
1
 40
1
 10
109.837361
 20
85.613756
 30
0.0
 10
111.556617
 20
84.578475
 30
0.0
 10
111.877904
 20
84.492981
 30
0.0
 10
113.356319
 20
84.731812
 30
0.0
  0
SPLINE
  5
184
100
AcDbEntity
  8
0
 62
7
100
AcDbSpline
 70
8
 71
3
 72
8
 73
4
 74
0
 40
0
 40
0
 40
0
 40
0
 40
1
 40
1
 40
1
 40
1
 10
113.356319
 20
84.731812
 30
0.0
 10
115.626794
 20
85.098599
 30
0.0
 10
116.173625
 20
85.341054
 30
0.0
 10
117.466181
 20
86.539798
 30
0.0
  0
SPLINE
  5
185
100
AcDbEntity
  8
0
 62
7
100
AcDbSpline
 70
8
 71
3
 72
8
 73
4
 74
0
 40
0
 40
0
 40
0
 40
0
 40
1
 40
1
 40
1
 40
1
 10
117.466181
 20
86.539798
 30
0.0
 10
121.018972
 20
89.834731
 30
0.0
 10
121.083846
 20
96.309313
 30
0.0
 10
117.598472
 20
99.874798
 30
0.0
  0
SPLINE
  5
186
100
AcDbEntity
  8
0
 62
7
100
AcDbSpline
 70
8
 71
3
 72
8
 73
4
 74
0
 40
0
 40
0
 40
0
 40
0
 40
1
 40
1
 40
1
 40
1
 10
117.598472
 20
99.874798
 30
0.0
 10
116.444485
 20
101.055311
 30
0.0
 10
114.148540
 20
102.326604
 30
0.0
 10
113.171111
 20
102.326604
 30
0.0
  0
SPLINE
  5
187
100
AcDbEntity
  8
0
 62
7
100
AcDbSpline
 70
8
 71
3
 72
8
 73
4
 74
0
 40
0
 40
0
 40
0
 40
0
 40
1
 40
1
 40
1
 40
1
 10
113.171111
 20
102.326604
 30
0.0
 10
111.456859
 20
102.326604
 30
0.0
 10
111.287710
 20
99.848111
 30
0.0
 10
112.941806
 20
98.939937
 30
0.0
  0
SPLINE
  5
188
100
AcDbEntity
  8
0
 62
7
100
AcDbSpline
 70
8
 71
3
 72
8
 73
4
 74
0
 40
0
 40
0
 40
0
 40
0
 40
1
 40
1
 40
1
 40
1
 10
112.941806
 20
98.939937
 30
0.0
 10
113.500606
 20
98.633133
 30
0.0
 10
114.528481
 20
97.635167
 30
0.0
 10
115.226042
 20
96.717437
 30
0.0
  0
SPLINE
  5
189
100
AcDbEntity
  8
0
 62
7
100
AcDbSpline
 70
8
 71
3
 72
8
 73
4
 74
0
 40
0
 40
0
 40
0
 40
0
 40
1
 40
1
 40
1
 40
1
 10
115.226042
 20
96.717437
 30
0.0
 10
116.326590
 20
95.269530
 30
0.0
 10
116.494631
 20
94.806561
 30
0.0
 10
116.496042
 20
93.224937
 30
0.0
  0
SPLINE
  5
18a
100
AcDbEntity
  8
0
 62
7
100
AcDbSpline
 70
8
 71
3
 72
8
 73
4
 74
0
 40
0
 40
0
 40
0
 40
0
 40
1
 40
1
 40
1
 40
1
 10
116.496042
 20
93.224937
 30
0.0
 10
116.499736
 20
89.277235
 30
0.0
 10
113.302031
 20
87.151456
 30
0.0
 10
110.825139
 20
89.459034
 30
0.0
  0
SPLINE
  5
18b
100
AcDbEntity
  8
0
 62
7
100
AcDbSpline
 70
8
 71
3
 72
8
 73
4
 74
0
 40
0
 40
0
 40
0
 40
0
 40
1
 40
1
 40
1
 40
1
 10
110.825139
 20
89.459034
 30
0.0
 10
110.378110
 20
89.875504
 30
0.0
 10
110.066667
 20
90.560203
 30
0.0
 10
110.066667
 20
91.143548
 30
0.0
  0
SPLINE
  5
18c
100
AcDbEntity
  8
0
 62
7
100
AcDbSpline
 70
8
 71
3
 72
8
 73
4
 74
0
 40
0
 40
0
 40
0
 40
0
 40
1
 40
1
 40
1
 40
1
 10
110.066667
 20
91.143548
 30
0.0
 10
110.066667
 20
91.891369
 30
0.0
 10
109.760298
 20
92.351908
 30
0.0
 10
108.796667
 20
93.057368
 30
0.0
  0
SPLINE
  5
18d
100
AcDbEntity
  8
0
 62
7
100
AcDbSpline
 70
8
 71
3
 72
8
 73
4
 74
0
 40
0
 40
0
 40
0
 40
0
 40
1
 40
1
 40
1
 40
1
 10
108.796667
 20
93.057368
 30
0.0
 10
108.098167
 20
93.568726
 30
0.0
 10
106.690231
 20
94.863220
 30
0.0
 10
105.665764
 20
95.932506
 30
0.0
  0
SPLINE
  5
18e
100
AcDbEntity
  8
0
 62
7
100
AcDbSpline
 70
8
 71
3
 72
8
 73
4
 74
0
 40
0
 40
0
 40
0
 40
0
 40
1
 40
1
 40
1
 40
1
 10
105.665764
 20
95.932506
 30
0.0
 10
104.287261
 20
97.371315
 30
0.0
 10
103.289521
 20
98.067625
 30
0.0
 10
101.820486
 20
98.613618
 30
0.0
  0
SPLINE
  5
18f
100
AcDbEntity
  8
0
 62
7
100
AcDbSpline
 70
8
 71
3
 72
8
 73
4
 74
0
 40
0
 40
0
 40
0
 40
0
 40
1
 40
1
 40
1
 40
1
 10
101.820486
 20
98.613618
 30
0.0
 10
100.578262
 20
99.075311
 30
0.0
 10
99.337376
 20
99.863379
 30
0.0
 10
98.513194
 20
100.712645
 30
0.0
  0
LWPOLYLINE
  5
190
100
AcDbEntity
  8
0
 62
7
100
AcDbPolyline
 90
3
 70
0
 10
95.620417
 20
75.771256
 30
0.0
 10
95.408750
 20
78.196604
 30
0.0
 10
96.599375
 20
78.593479
 30
0.0
  0
SPLINE
  5
191
100
AcDbEntity
  8
0
 62
7
100
AcDbSpline
 70
8
 71
3
 72
8
 73
4
 74
0
 40
0
 40
0
 40
0
 40
0
 40
1
 40
1
 40
1
 40
1
 10
97.199097
 20
104.919520
 30
0.0
 10
97.199097
 20
107.651183
 30
0.0
 10
96.896089
 20
108.836542
 30
0.0
 10
95.761528
 20
110.625701
 30
0.0
  0
SPLINE
  5
192
100
AcDbEntity
  8
0
 62
7
100
AcDbSpline
 70
8
 71
3
 72
8
 73
4
 74
0
 40
0
 40
0
 40
0
 40
0
 40
1
 40
1
 40
1
 40
1
 10
95.761528
 20
110.625701
 30
0.0
 10
95.291870
 20
111.366331
 30
0.0
 10
90.153109
 20
116.552368
 30
0.0
 10
89.887778
 20
116.552368
 30
0.0
  0
SPLINE
  5
193
100
AcDbEntity
  8
0
 62
7
100
AcDbSpline
 70
8
 71
3
 72
8
 73
4
 74
0
 40
0
 40
0
 40
0
 40
0
 40
1
 40
1
 40
1
 40
1
 10
89.887778
 20
116.552368
 30
0.0
 10
89.797540
 20
116.552368
 30
0.0
 10
89.115186
 20
117.198304
 30
0.0
 10
88.370833
 20
117.989937
 30
0.0
  0
SPLINE
  5
194
100
AcDbEntity
  8
0
 62
7
100
AcDbSpline
 70
8
 71
3
 72
8
 73
4
 74
0
 40
0
 40
0
 40
0
 40
0
 40
1
 40
1
 40
1
 40
1
 10
88.370833
 20
117.989937
 30
0.0
 10
87.626481
 20
118.781570
 30
0.0
 10
86.273143
 20
120.189506
 30
0.0
 10
85.372222
 20
121.120840
 30
0.0
  0
SPLINE
  5
195
100
AcDbEntity
  8
0
 62
7
100
AcDbSpline
 70
8
 71
3
 72
8
 73
4
 74
0
 40
0
 40
0
 40
0
 40
0
 40
1
 40
1
 40
1
 40
1
 10
85.372222
 20
121.120840
 30
0.0
 10
84.471304
 20
122.052173
 30
0.0
 10
83.452787
 20
123.269609
 30
0.0
 10
83.105625
 20
123.828409
 30
0.0
  0
SPLINE
  5
196
100
AcDbEntity
  8
0
 62
7
100
AcDbSpline
 70
8
 71
3
 72
8
 73
4
 74
0
 40
0
 40
0
 40
0
 40
0
 40
1
 40
1
 40
1
 40
1
 10
83.105625
 20
123.828409
 30
0.0
 10
82.218781
 20
125.255912
 30
0.0
 10
81.609712
 20
125.668103
 30
0.0
 10
80.371597
 20
125.680493
 30
0.0
  0
SPLINE
  5
197
100
AcDbEntity
  8
0
 62
7
100
AcDbSpline
 70
8
 71
3
 72
8
 73
4
 74
0
 40
0
 40
0
 40
0
 40
0
 40
1
 40
1
 40
1
 40
1
 10
80.371597
 20
125.680493
 30
0.0
 10
78.889473
 20
125.695321
 30
0.0
 10
78.172406
 20
126.505778
 30
0.0
 10
78.299028
 20
128.017645
 30
0.0
  0
SPLINE
  5
198
100
AcDbEntity
  8
0
 62
7
100
AcDbSpline
 70
8
 71
3
 72
8
 73
4
 74
0
 40
0
 40
0
 40
0
 40
0
 40
1
 40
1
 40
1
 40
1
 10
78.299028
 20
128.017645
 30
0.0
 10
78.369930
 20
128.864230
 30
0.0
 10
78.586197
 20
129.280581
 30
0.0
 10
78.995764
 20
129.358201
 30
0.0
  0
SPLINE
  5
199
100
AcDbEntity
  8
0
 62
7
100
AcDbSpline
 70
8
 71
3
 72
8
 73
4
 74
0
 40
0
 40
0
 40
0
 40
0
 40
1
 40
1
 40
1
 40
1
 10
78.995764
 20
129.358201
 30
0.0
 10
79.405754
 20
129.435900
 30
0.0
 10
79.586667
 20
129.253039
 30
0.0
 10
79.586667
 20
128.767298
 30
0.0
  0
SPLINE
  5
19a
100
AcDbEntity
  8
0
 62
7
100
AcDbSpline
 70
8
 71
3
 72
8
 73
4
 74
0
 40
0
 40
0
 40
0
 40
0
 40
1
 40
1
 40
1
 40
1
 10
79.586667
 20
128.767298
 30
0.0
 10
79.586667
 20
128.032456
 30
0.0
 10
80.074412
 20
127.824952
 30
0.0
 10
80.433333
 20
128.405701
 30
0.0
  0
SPLINE
  5
19b
100
AcDbEntity
  8
0
 62
7
100
AcDbSpline
 70
8
 71
3
 72
8
 73
4
 74
0
 40
0
 40
0
 40
0
 40
0
 40
1
 40
1
 40
1
 40
1
 10
80.433333
 20
128.405701
 30
0.0
 10
80.749242
 20
128.916853
 30
0.0
 10
81.845269
 20
128.810571
 30
0.0
 10
82.444167
 20
128.211673
 30
0.0
  0
SPLINE
  5
19c
100
AcDbEntity
  8
0
 62
7
100
AcDbSpline
 70
8
 71
3
 72
8
 73
4
 74
0
 40
0
 40
0
 40
0
 40
0
 40
1
 40
1
 40
1
 40
1
 10
82.444167
 20
128.211673
 30
0.0
 10
83.232035
 20
127.423805
 30
0.0
 10
84.066335
 20
127.875055
 30
0.0
 10
85.001806
 20
129.587506
 30
0.0
  0
SPLINE
  5
19d
100
AcDbEntity
  8
0
 62
7
100
AcDbSpline
 70
8
 71
3
 72
8
 73
4
 74
0
 40
0
 40
0
 40
0
 40
0
 40
1
 40
1
 40
1
 40
1
 10
85.001806
 20
129.587506
 30
0.0
 10
85.460346
 20
130.426909
 30
0.0
 10
85.947789
 20
131.113270
 30
0.0
 10
86.086597
 20
131.113270
 30
0.0
  0
SPLINE
  5
19e
100
AcDbEntity
  8
0
 62
7
100
AcDbSpline
 70
8
 71
3
 72
8
 73
4
 74
0
 40
0
 40
0
 40
0
 40
0
 40
1
 40
1
 40
1
 40
1
 10
86.086597
 20
131.113270
 30
0.0
 10
86.225405
 20
131.113270
 30
0.0
 10
86.582560
 20
130.657834
 30
0.0
 10
86.871528
 20
130.099034
 30
0.0
  0
SPLINE
  5
19f
100
AcDbEntity
  8
0
 62
7
100
AcDbSpline
 70
8
 71
3
 72
8
 73
4
 74
0
 40
0
 40
0
 40
0
 40
0
 40
1
 40
1
 40
1
 40
1
 10
86.871528
 20
130.099034
 30
0.0
 10
87.160495
 20
129.540234
 30
0.0
 10
87.462230
 20
129.084798
 30
0.0
 10
87.541806
 20
129.084798
 30
0.0
  0
SPLINE
  5
1a0
100
AcDbEntity
  8
0
 62
7
100
AcDbSpline
 70
8
 71
3
 72
8
 73
4
 74
0
 40
0
 40
0
 40
0
 40
0
 40
1
 40
1
 40
1
 40
1
 10
87.541806
 20
129.084798
 30
0.0
 10
87.621381
 20
129.084798
 30
0.0
 10
87.604939
 20
129.805170
 30
0.0
 10
87.506528
 20
130.689937
 30
0.0
  0
SPLINE
  5
1a1
100
AcDbEntity
  8
0
 62
7
100
AcDbSpline
 70
8
 71
3
 72
8
 73
4
 74
0
 40
0
 40
0
 40
0
 40
0
 40
1
 40
1
 40
1
 40
1
 10
87.506528
 20
130.689937
 30
0.0
 10
87.382263
 20
131.807125
 30
0.0
 10
87.538735
 20
132.955219
 30
0.0
 10
88.026875
 20
134.455840
 30
0.0
  0
SPLINE
  5
1a2
100
AcDbEntity
  8
0
 62
7
100
AcDbSpline
 70
8
 71
3
 72
8
 73
4
 74
0
 40
0
 40
0
 40
0
 40
0
 40
1
 40
1
 40
1
 40
1
 10
88.026875
 20
134.455840
 30
0.0
 10
88.413463
 20
135.644272
 30
0.0
 10
88.732431
 20
136.970522
 30
0.0
 10
88.732431
 20
137.401534
 30
0.0
  0
SPLINE
  5
1a3
100
AcDbEntity
  8
0
 62
7
100
AcDbSpline
 70
8
 71
3
 72
8
 73
4
 74
0
 40
0
 40
0
 40
0
 40
0
 40
1
 40
1
 40
1
 40
1
 10
88.732431
 20
137.401534
 30
0.0
 10
88.732431
 20
137.832550
 30
0.0
 10
89.105187
 20
138.616343
 30
0.0
 10
89.561458
 20
139.138965
 30
0.0
  0
SPLINE
  5
1a4
100
AcDbEntity
  8
0
 62
7
100
AcDbSpline
 70
8
 71
3
 72
8
 73
4
 74
0
 40
0
 40
0
 40
0
 40
0
 40
1
 40
1
 40
1
 40
1
 10
89.561458
 20
139.138965
 30
0.0
 10
90.359190
 20
140.052696
 30
0.0
 10
90.381692
 20
140.058597
 30
0.0
 10
90.187639
 20
139.288895
 30
0.0
  0
SPLINE
  5
1a5
100
AcDbEntity
  8
0
 62
7
100
AcDbSpline
 70
8
 71
3
 72
8
 73
4
 74
0
 40
0
 40
0
 40
0
 40
0
 40
1
 40
1
 40
1
 40
1
 10
90.187639
 20
139.288895
 30
0.0
 10
89.997813
 20
138.535955
 30
0.0
 10
90.032784
 20
138.512045
 30
0.0
 10
90.796181
 20
138.918479
 30
0.0
  0
SPLINE
  5
1a6
100
AcDbEntity
  8
0
 62
7
100
AcDbSpline
 70
8
 71
3
 72
8
 73
4
 74
0
 40
0
 40
0
 40
0
 40
0
 40
1
 40
1
 40
1
 40
1
 10
90.796181
 20
138.918479
 30
0.0
 10
93.324951
 20
140.264797
 30
0.0
 10
94.941616
 20
142.171897
 30
0.0
 10
95.805625
 20
144.845145
 30
0.0
  0
SPLINE
  5
1a7
100
AcDbEntity
  8
0
 62
7
100
AcDbSpline
 70
8
 71
3
 72
8
 73
4
 74
0
 40
0
 40
0
 40
0
 40
0
 40
1
 40
1
 40
1
 40
1
 10
95.805625
 20
144.845145
 30
0.0
 10
96.185194
 20
146.019537
 30
0.0
 10
96.164250
 20
146.488308
 30
0.0
 10
95.699792
 20
148.064243
 30
0.0
  0
SPLINE
  5
1a8
100
AcDbEntity
  8
0
 62
7
100
AcDbSpline
 70
8
 71
3
 72
8
 73
4
 74
0
 40
0
 40
0
 40
0
 40
0
 40
1
 40
1
 40
1
 40
1
 10
95.699792
 20
148.064243
 30
0.0
 10
95.400966
 20
149.078185
 30
0.0
 10
94.867363
 20
150.520634
 30
0.0
 10
94.509167
 20
151.265701
 30
0.0
  0
SPLINE
  5
1a9
100
AcDbEntity
  8
0
 62
7
100
AcDbSpline
 70
8
 71
3
 72
8
 73
4
 74
0
 40
0
 40
0
 40
0
 40
0
 40
1
 40
1
 40
1
 40
1
 10
94.509167
 20
151.265701
 30
0.0
 10
94.150967
 20
152.010768
 30
0.0
 10
93.392289
 20
153.650831
 30
0.0
 10
92.824653
 20
154.908131
 30
0.0
  0
SPLINE
  5
1aa
100
AcDbEntity
  8
0
 62
7
100
AcDbSpline
 70
8
 71
3
 72
8
 73
4
 74
0
 40
0
 40
0
 40
0
 40
0
 40
1
 40
1
 40
1
 40
1
 10
92.824653
 20
154.908131
 30
0.0
 10
92.044543
 20
156.636065
 30
0.0
 10
91.622330
 20
157.192368
 30
0.0
 10
91.104861
 20
157.192368
 30
0.0
  0
SPLINE
  5
1ab
100
AcDbEntity
  8
0
 62
7
100
AcDbSpline
 70
8
 71
3
 72
8
 73
4
 74
0
 40
0
 40
0
 40
0
 40
0
 40
1
 40
1
 40
1
 40
1
 10
91.104861
 20
157.192368
 30
0.0
 10
90.728332
 20
157.192368
 30
0.0
 10
90.425764
 20
157.313805
 30
0.0
 10
90.425764
 20
157.465770
 30
0.0
  0
SPLINE
  5
1ac
100
AcDbEntity
  8
0
 62
7
100
AcDbSpline
 70
8
 71
3
 72
8
 73
4
 74
0
 40
0
 40
0
 40
0
 40
0
 40
1
 40
1
 40
1
 40
1
 10
90.425764
 20
157.465770
 30
0.0
 10
90.425764
 20
157.617739
 30
0.0
 10
89.832527
 20
158.074862
 30
0.0
 10
89.111667
 20
158.480006
 30
0.0
  0
SPLINE
  5
1ad
100
AcDbEntity
  8
0
 62
7
100
AcDbSpline
 70
8
 71
3
 72
8
 73
4
 74
0
 40
0
 40
0
 40
0
 40
0
 40
1
 40
1
 40
1
 40
1
 10
89.111667
 20
158.480006
 30
0.0
 10
88.390809
 20
158.885153
 30
0.0
 10
87.623740
 20
159.437157
 30
0.0
 10
87.400694
 20
159.705909
 30
0.0
  0
SPLINE
  5
1ae
100
AcDbEntity
  8
0
 62
7
100
AcDbSpline
 70
8
 71
3
 72
8
 73
4
 74
0
 40
0
 40
0
 40
0
 40
0
 40
1
 40
1
 40
1
 40
1
 10
87.400694
 20
159.705909
 30
0.0
 10
86.663163
 20
160.594582
 30
0.0
 10
83.170260
 20
162.188344
 30
0.0
 10
81.447569
 20
162.422298
 30
0.0
  0
SPLINE
  5
1af
100
AcDbEntity
  8
0
 62
7
100
AcDbSpline
 70
8
 71
3
 72
8
 73
4
 74
0
 40
0
 40
0
 40
0
 40
0
 40
1
 40
1
 40
1
 40
1
 10
81.447569
 20
162.422298
 30
0.0
 10
80.515533
 20
162.548875
 30
0.0
 10
79.396359
 20
162.922548
 30
0.0
 10
78.960486
 20
163.251326
 30
0.0
  0
SPLINE
  5
1b0
100
AcDbEntity
  8
0
 62
7
100
AcDbSpline
 70
8
 71
3
 72
8
 73
4
 74
0
 40
0
 40
0
 40
0
 40
0
 40
1
 40
1
 40
1
 40
1
 10
78.960486
 20
163.251326
 30
0.0
 10
78.237791
 20
163.796452
 30
0.0
 10
78.191814
 20
164.006761
 30
0.0
 10
78.404861
 20
165.711951
 30
0.0
  0
SPLINE
  5
1b1
100
AcDbEntity
  8
0
 62
7
100
AcDbSpline
 70
8
 71
3
 72
8
 73
4
 74
0
 40
0
 40
0
 40
0
 40
0
 40
1
 40
1
 40
1
 40
1
 10
78.404861
 20
165.711951
 30
0.0
 10
78.533360
 20
166.740383
 30
0.0
 10
78.751376
 20
167.772004
 30
0.0
 10
78.889931
 20
167.996187
 30
0.0
  0
SPLINE
  5
1b2
100
AcDbEntity
  8
0
 62
7
100
AcDbSpline
 70
8
 71
3
 72
8
 73
4
 74
0
 40
0
 40
0
 40
0
 40
0
 40
1
 40
1
 40
1
 40
1
 10
78.889931
 20
167.996187
 30
0.0
 10
79.028482
 20
168.220370
 30
0.0
 10
80.419030
 20
168.612665
 30
0.0
 10
81.985556
 20
168.869312
 30
0.0
  0
SPLINE
  5
1b3
100
AcDbEntity
  8
0
 62
7
100
AcDbSpline
 70
8
 71
3
 72
8
 73
4
 74
0
 40
0
 40
0
 40
0
 40
0
 40
1
 40
1
 40
1
 40
1
 10
81.985556
 20
168.869312
 30
0.0
 10
85.805205
 20
169.495092
 30
0.0
 10
86.887262
 20
170.003351
 30
0.0
 10
89.023472
 20
172.229520
 30
0.0
  0
SPLINE
  5
1b4
100
AcDbEntity
  8
0
 62
7
100
AcDbSpline
 70
8
 71
3
 72
8
 73
4
 74
0
 40
0
 40
0
 40
0
 40
0
 40
1
 40
1
 40
1
 40
1
 10
89.023472
 20
172.229520
 30
0.0
 10
90.020741
 20
173.268787
 30
0.0
 10
90.964549
 20
174.125701
 30
0.0
 10
91.122500
 20
174.125701
 30
0.0
  0
SPLINE
  5
1b5
100
AcDbEntity
  8
0
 62
7
100
AcDbSpline
 70
8
 71
3
 72
8
 73
4
 74
0
 40
0
 40
0
 40
0
 40
0
 40
1
 40
1
 40
1
 40
1
 10
91.122500
 20
174.125701
 30
0.0
 10
91.695959
 20
174.125701
 30
0.0
 10
93.547082
 20
177.262773
 30
0.0
 10
93.715417
 20
178.517784
 30
0.0
  0
SPLINE
  5
1b6
100
AcDbEntity
  8
0
 62
7
100
AcDbSpline
 70
8
 71
3
 72
8
 73
4
 74
0
 40
0
 40
0
 40
0
 40
0
 40
1
 40
1
 40
1
 40
1
 10
93.715417
 20
178.517784
 30
0.0
 10
93.882272
 20
179.761803
 30
0.0
 10
93.942371
 20
179.814381
 30
0.0
 10
95.470486
 20
180.017090
 30
0.0
  0
SPLINE
  5
1b7
100
AcDbEntity
  8
0
 62
7
100
AcDbSpline
 70
8
 71
3
 72
8
 73
4
 74
0
 40
0
 40
0
 40
0
 40
0
 40
1
 40
1
 40
1
 40
1
 10
95.470486
 20
180.017090
 30
0.0
 10
97.476392
 20
180.283183
 30
0.0
 10
98.399597
 20
180.931495
 30
0.0
 10
98.892431
 20
182.424798
 30
0.0
  0
SPLINE
  5
1b8
100
AcDbEntity
  8
0
 62
7
100
AcDbSpline
 70
8
 71
3
 72
8
 73
4
 74
0
 40
0
 40
0
 40
0
 40
0
 40
1
 40
1
 40
1
 40
1
 10
98.892431
 20
182.424798
 30
0.0
 10
99.158781
 20
183.231841
 30
0.0
 10
99.489449
 20
183.606604
 30
0.0
 10
99.933125
 20
183.606604
 30
0.0
  0
SPLINE
  5
1b9
100
AcDbEntity
  8
0
 62
7
100
AcDbSpline
 70
8
 71
3
 72
8
 73
4
 74
0
 40
0
 40
0
 40
0
 40
0
 40
1
 40
1
 40
1
 40
1
 10
99.933125
 20
183.606604
 30
0.0
 10
100.567577
 20
183.606604
 30
0.0
 10
101.118831
 20
184.065946
 30
0.0
 10
102.384931
 20
185.626256
 30
0.0
  0
SPLINE
  5
1ba
100
AcDbEntity
  8
0
 62
7
100
AcDbSpline
 70
8
 71
3
 72
8
 73
4
 74
0
 40
0
 40
0
 40
0
 40
0
 40
1
 40
1
 40
1
 40
1
 10
102.384931
 20
185.626256
 30
0.0
 10
102.905859
 20
186.268230
 30
0.0
 10
102.945706
 20
186.536990
 30
0.0
 10
102.614236
 20
187.337229
 30
0.0
  0
SPLINE
  5
1bb
100
AcDbEntity
  8
0
 62
7
100
AcDbSpline
 70
8
 71
3
 72
8
 73
4
 74
0
 40
0
 40
0
 40
0
 40
0
 40
1
 40
1
 40
1
 40
1
 10
102.614236
 20
187.337229
 30
0.0
 10
102.010295
 20
188.795271
 30
0.0
 10
99.728703
 20
190.661595
 30
0.0
 10
98.283889
 20
190.882645
 30
0.0
  0
SPLINE
  5
1bc
100
AcDbEntity
  8
0
 62
7
100
AcDbSpline
 70
8
 71
3
 72
8
 73
4
 74
0
 40
0
 40
0
 40
0
 40
0
 40
1
 40
1
 40
1
 40
1
 10
98.283889
 20
190.882645
 30
0.0
 10
97.592698
 20
190.988394
 30
0.0
 10
96.567272
 20
191.206402
 30
0.0
 10
96.008472
 20
191.367715
 30
0.0
  0
SPLINE
  5
1bd
100
AcDbEntity
  8
0
 62
7
100
AcDbSpline
 70
8
 71
3
 72
8
 73
4
 74
0
 40
0
 40
0
 40
0
 40
0
 40
1
 40
1
 40
1
 40
1
 10
96.008472
 20
191.367715
 30
0.0
 10
90.527468
 20
192.949951
 30
0.0
 10
83.841618
 20
193.758304
 30
0.0
 10
75.520903
 20
193.837159
 30
0.0
  0
SPLINE
  5
1be
100
AcDbEntity
  8
0
 62
7
100
AcDbSpline
 70
8
 71
3
 72
8
 73
4
 74
0
 40
0
 40
0
 40
0
 40
0
 40
1
 40
1
 40
1
 40
1
 10
75.520903
 20
193.837159
 30
0.0
 10
74.357250
 20
193.848188
 30
0.0
 10
73.353450
 20
193.845164
 30
0.0
 10
72.487014
 20
193.837159
 30
0.0
  0
LWPOLYLINE
  5
1bf
100
AcDbEntity
  8
0
 62
7
100
AcDbPolyline
 90
3
 70
0
 10
98.513194
 20
100.712645
 30
0.0
 10
97.199097
 20
102.070840
 30
0.0
 10
97.199097
 20
104.919520
 30
0.0
  0
SPLINE
  5
1c0
100
AcDbEntity
  8
0
 62
7
100
AcDbSpline
 70
8
 71
3
 72
8
 73
4
 74
0
 40
0
 40
0
 40
0
 40
0
 40
1
 40
1
 40
1
 40
1
 10
96.722847
 20
96.673340
 30
0.0
 10
96.830879
 20
96.671737
 30
0.0
 10
96.781973
 20
96.120390
 30
0.0
 10
96.652292
 20
94.706604
 30
0.0
  0
SPLINE
  5
1c1
100
AcDbEntity
  8
0
 62
7
100
AcDbSpline
 70
8
 71
3
 72
8
 73
4
 74
0
 40
0
 40
0
 40
0
 40
0
 40
1
 40
1
 40
1
 40
1
 10
96.652292
 20
94.706604
 30
0.0
 10
96.532692
 20
93.402737
 30
0.0
 10
96.371895
 20
92.218109
 30
0.0
 10
96.290694
 20
92.078409
 30
0.0
  0
SPLINE
  5
1c2
100
AcDbEntity
  8
0
 62
7
100
AcDbSpline
 70
8
 71
3
 72
8
 73
4
 74
0
 40
0
 40
0
 40
0
 40
0
 40
1
 40
1
 40
1
 40
1
 10
96.290694
 20
92.078409
 30
0.0
 10
96.118784
 20
91.782646
 30
0.0
 10
95.693631
 20
91.749434
 30
0.0
 10
95.435208
 20
92.007854
 30
0.0
  0
SPLINE
  5
1c3
100
AcDbEntity
  8
0
 62
7
100
AcDbSpline
 70
8
 71
3
 72
8
 73
4
 74
0
 40
0
 40
0
 40
0
 40
0
 40
1
 40
1
 40
1
 40
1
 10
95.435208
 20
92.007854
 30
0.0
 10
95.147957
 20
92.295108
 30
0.0
 10
95.769263
 20
95.125927
 30
0.0
 10
96.343611
 20
96.144173
 30
0.0
  0
SPLINE
  5
1c4
100
AcDbEntity
  8
0
 62
7
100
AcDbSpline
 70
8
 71
3
 72
8
 73
4
 74
0
 40
0
 40
0
 40
0
 40
0
 40
1
 40
1
 40
1
 40
1
 10
96.343611
 20
96.144173
 30
0.0
 10
96.531232
 20
96.476800
 30
0.0
 10
96.658029
 20
96.674302
 30
0.0
 10
96.722847
 20
96.673340
 30
0.0
  0
LWPOLYLINE
  5
1c5
100
AcDbEntity
  8
0
 62
7
100
AcDbPolyline
 90
2
 70
0
 10
72.487014
 20
193.837159
 30
0.0
 10
72.487014
 20
193.837159
 30
0.0
  0
LWPOLYLINE
  5
1c6
100
AcDbEntity
  8
0
 62
7
100
AcDbPolyline
 90
2
 70
0
 10
96.722847
 20
96.673340
 30
0.0
 10
96.722847
 20
96.673340
 30
0.0
  0
ENDSEC
  0
SECTION
  2
OBJECTS
  0
DICTIONARY
  5
C
330
0
100
AcDbDictionary
  3
ACAD_GROUP
350
D
  3
ACAD_MLINESTYLE
350
17
  0
DICTIONARY
  5
D
330
C
100
AcDbDictionary
  0
DICTIONARY
  5
1A
330
C
100
AcDbDictionary
  0
DICTIONARY
  5
17
330
C
100
AcDbDictionary
  3
STANDARD
350
18
  0
DICTIONARY
  5
19
330
C
100
AcDbDictionary
  0
ENDSEC
  0
EOF
