999
dxfrw 0.5.10
0
SECTION
2
HEADER
9
$ACADVER
1
AC1021
9
$HANDSEED
5
20000
9
$DWGCODEPAGE
3
ANSI_1252
9
$INSBASE
10
0
20
0
30
0
9
$EXTMIN
10
2.5
20
2.5
30
0
9
$EXTMAX
10
77.5
20
77.5
30
0
9
$LIMMIN
10
0
20
0
9
$LIMMAX
10
420
20
297
9
$ORTHOMODE
70
0
9
$LTSCALE
40
1
9
$TEXTSTYLE
7
STANDARD
9
$CLAYER
8
name
9
$DIMASZ
40
2.5
9
$DIMLFAC
40
1
9
$DIMSCALE
40
1
9
$DIMEXO
40
0.625
9
$DIMEXE
40
1.25
9
$DIMTXT
40
2.5
9
$DIMTSZ
40
0
9
$DIMAUNIT
70
0
9
$DIMADEC
70
0
9
$DIMLUNIT
70
2
9
$DIMSTYLE
2
Standard
9
$DIMGAP
40
0.625
9
$DIMTIH
70
0
9
$LUNITS
70
2
9
$LUPREC
70
4
9
$AUNITS
70
0
9
$AUPREC
70
2
9
$SPLINESEGS
70
8
9
$GRIDMODE
70
0
9
$SNAPSTYLE
70
0
9
$PINSBASE
10
0
20
0
30
0
9
$PLIMMIN
10
0
20
0
9
$PLIMMAX
10
210
20
297
9
$INSUNITS
70
4
9
$PSVPSCALE
40
1
0
ENDSEC
0
SECTION
2
CLASSES
0
ENDSEC
0
SECTION
2
TABLES
0
TABLE
2
VPORT
5
8
330
0
100
AcDbSymbolTable
70
1
0
VPORT
5
31
330
2
100
AcDbSymbolTableRecord
100
AcDbViewportTableRecord
2
*ACTIVE
70
0
10
0
20
0
11
1
21
1
12
59.8675271739
22
39.2323369565
13
0
23
0
14
10
24
10
15
10
25
10
16
0
26
0
36
1
17
0
27
0
37
0
40
77.0380434783
41
2.06878306878
42
50
43
0
44
0
50
0
51
0
71
0
72
100
73
1
74
3
75
0
76
0
77
0
78
0
281
0
65
1
110
0
120
0
130
0
111
1
121
0
131
0
112
0
122
1
132
0
79
0
146
0
348
10020
60
7
61
5
292
1
282
1
141
0
142
0
63
250
421
3358443
0
ENDTAB
0
TABLE
2
LTYPE
5
5
330
0
100
AcDbSymbolTable
70
4
0
LTYPE
5
14
330
5
100
AcDbSymbolTableRecord
100
AcDbLinetypeTableRecord
2
ByBlock
70
0
3

72
65
73
0
40
0
0
LTYPE
5
15
330
5
100
AcDbSymbolTableRecord
100
AcDbLinetypeTableRecord
2
ByLayer
70
0
3

72
65
73
0
40
0
0
LTYPE
5
16
330
5
100
AcDbSymbolTableRecord
100
AcDbLinetypeTableRecord
2
Continuous
70
0
3
Solid line
72
65
73
0
40
0
0
LTYPE
5
32
330
5
100
AcDbSymbolTableRecord
100
AcDbLinetypeTableRecord
2
DOT
70
0
3
Dot . . . . . . . . . . . . . . . . . . . . . .
72
65
73
2
40
6.35
49
0
74
0
49
-6.35
74
0
0
LTYPE
5
33
330
5
100
AcDbSymbolTableRecord
100
AcDbLinetypeTableRecord
2
DOT2
70
0
3
Dot (.5x) .....................................
72
65
73
2
40
3.175
49
0
74
0
49
-3.175
74
0
0
LTYPE
5
34
330
5
100
AcDbSymbolTableRecord
100
AcDbLinetypeTableRecord
2
DOTX2
70
0
3
Dot (2x) .  .  .  .  .  .  .  .  .  .  .  .  .
72
65
73
2
40
12.7
49
0
74
0
49
-12.7
74
0
0
LTYPE
5
35
330
5
100
AcDbSymbolTableRecord
100
AcDbLinetypeTableRecord
2
DASHED
70
0
3
Dot . . . . . . . . . . . . . . . . . . . . . .
72
65
73
2
40
19.05
49
12.7
74
0
49
-6.35
74
0
0
LTYPE
5
36
330
5
100
AcDbSymbolTableRecord
100
AcDbLinetypeTableRecord
2
DASHED2
70
0
3
Dashed (.5x) _ _ _ _ _ _ _ _ _ _ _ _ _ _ _ _ _
72
65
73
2
40
9.525
49
6.35
74
0
49
-3.175
74
0
0
LTYPE
5
37
330
5
100
AcDbSymbolTableRecord
100
AcDbLinetypeTableRecord
2
DASHEDX2
70
0
3
Dashed (2x) ____  ____  ____  ____  ____  ___
72
65
73
2
40
38.1
49
25.4
74
0
49
-12.7
74
0
0
LTYPE
5
38
330
5
100
AcDbSymbolTableRecord
100
AcDbLinetypeTableRecord
2
DASHDOT
70
0
3
Dash dot __ . __ . __ . __ . __ . __ . __ . __
72
65
73
4
40
25.4
49
12.7
74
0
49
-6.35
74
0
49
0
74
0
49
-6.35
74
0
0
LTYPE
5
39
330
5
100
AcDbSymbolTableRecord
100
AcDbLinetypeTableRecord
2
DASHDOT2
70
0
3
Dash dot (.5x) _._._._._._._._._._._._._._._.
72
65
73
4
40
12.7
49
6.35
74
0
49
-3.175
74
0
49
0
74
0
49
-3.175
74
0
0
LTYPE
5
3A
330
5
100
AcDbSymbolTableRecord
100
AcDbLinetypeTableRecord
2
DASHDOTX2
70
0
3
Dash dot (2x) ____  .  ____  .  ____  .  ___
72
65
73
4
40
50.8
49
25.4
74
0
49
-12.7
74
0
49
0
74
0
49
-12.7
74
0
0
LTYPE
5
3B
330
5
100
AcDbSymbolTableRecord
100
AcDbLinetypeTableRecord
2
DIVIDE
70
0
3
Divide ____ . . ____ . . ____ . . ____ . . ____
72
65
73
6
40
31.75
49
12.7
74
0
49
-6.35
74
0
49
0
74
0
49
-6.35
74
0
49
0
74
0
49
-6.35
74
0
0
LTYPE
5
3C
330
5
100
AcDbSymbolTableRecord
100
AcDbLinetypeTableRecord
2
DIVIDE2
70
0
3
Divide (.5x) __..__..__..__..__..__..__..__.._
72
65
73
6
40
15.875
49
6.35
74
0
49
-3.175
74
0
49
0
74
0
49
-3.175
74
0
49
0
74
0
49
-3.175
74
0
0
LTYPE
5
3D
330
5
100
AcDbSymbolTableRecord
100
AcDbLinetypeTableRecord
2
DIVIDEX2
70
0
3
Divide (2x) ________  .  .  ________  .  .  _
72
65
73
6
40
63.5
49
25.4
74
0
49
-12.7
74
0
49
0
74
0
49
-12.7
74
0
49
0
74
0
49
-12.7
74
0
0
LTYPE
5
3E
330
5
100
AcDbSymbolTableRecord
100
AcDbLinetypeTableRecord
2
BORDER
70
0
3
Border __ __ . __ __ . __ __ . __ __ . __ __ .
72
65
73
6
40
44.45
49
12.7
74
0
49
-6.35
74
0
49
12.7
74
0
49
-6.35
74
0
49
0
74
0
49
-6.35
74
0
0
LTYPE
5
3F
330
5
100
AcDbSymbolTableRecord
100
AcDbLinetypeTableRecord
2
BORDER2
70
0
3
Border (.5x) __.__.__.__.__.__.__.__.__.__.__.
72
65
73
6
40
22.225
49
6.35
74
0
49
-3.175
74
0
49
6.35
74
0
49
-3.175
74
0
49
0
74
0
49
-3.175
74
0
0
LTYPE
5
40
330
5
100
AcDbSymbolTableRecord
100
AcDbLinetypeTableRecord
2
BORDERX2
70
0
3
Border (2x) ____  ____  .  ____  ____  .  ___
72
65
73
6
40
88.9
49
25.4
74
0
49
-12.7
74
0
49
25.4
74
0
49
-12.7
74
0
49
0
74
0
49
-12.7
74
0
0
LTYPE
5
41
330
5
100
AcDbSymbolTableRecord
100
AcDbLinetypeTableRecord
2
CENTER
70
0
3
Center ____ _ ____ _ ____ _ ____ _ ____ _ ____
72
65
73
4
40
50.8
49
31.75
74
0
49
-6.35
74
0
49
6.35
74
0
49
-6.35
74
0
0
LTYPE
5
42
330
5
100
AcDbSymbolTableRecord
100
AcDbLinetypeTableRecord
2
CENTER2
70
0
3
Center (.5x) ___ _ ___ _ ___ _ ___ _ ___ _ ___
72
65
73
4
40
28.575
49
19.05
74
0
49
-3.175
74
0
49
3.175
74
0
49
-3.175
74
0
0
LTYPE
5
43
330
5
100
AcDbSymbolTableRecord
100
AcDbLinetypeTableRecord
2
CENTERX2
70
0
3
Center (2x) ________  __  ________  __  _____
72
65
73
4
40
101.6
49
63.5
74
0
49
-12.7
74
0
49
12.7
74
0
49
-12.7
74
0
0
ENDTAB
0
TABLE
2
LAYER
5
2
330
0
100
AcDbSymbolTable
70
1
0
LAYER
5
10
330
2
100
AcDbSymbolTableRecord
100
AcDbLayerTableRecord
2
0
70
0
62
7
6
CONTINUOUS
370
-3
390
F
0
LAYER
5
44
330
2
100
AcDbSymbolTableRecord
100
AcDbLayerTableRecord
2
yuyuko
70
0
62
7
6
CONTINUOUS
370
0
390
F
0
LAYER
5
45
330
2
100
AcDbSymbolTableRecord
100
AcDbLayerTableRecord
2
name
70
0
62
7
6
CONTINUOUS
370
-3
390
F
0
ENDTAB
0
TABLE
2
STYLE
5
3
330
0
100
AcDbSymbolTable
70
3
0
STYLE
5
46
330
2
100
AcDbSymbolTableRecord
100
AcDbTextStyleTableRecord
2
Standard
70
0
40
0
41
1
50
0
71
0
42
1
3
txt
4

0
ENDTAB
0
TABLE
2
VIEW
5
6
330
0
100
AcDbSymbolTable
70
0
0
ENDTAB
0
TABLE
2
UCS
5
7
330
0
100
AcDbSymbolTable
70
0
0
ENDTAB
0
TABLE
2
APPID
5
9
330
0
100
AcDbSymbolTable
70
1
0
APPID
5
12
330
9
100
AcDbSymbolTableRecord
100
AcDbRegAppTableRecord
2
ACAD
70
0
0
ENDTAB
0
TABLE
2
DIMSTYLE
5
A
330
0
100
AcDbSymbolTable
70
1
100
AcDbDimStyleTable
71
1
0
DIMSTYLE
105
47
330
A
100
AcDbSymbolTableRecord
100
AcDbDimStyleTableRecord
2
Standard
70
0
40
1
41
2.5
42
0.625
43
0.38
44
1.25
45
0
46
0
47
0
48
0
140
2.5
141
0.09
142
0
143
25.4
144
1
145
0
146
1
147
0.625
148
0
71
0
72
0
73
0
74
1
75
0
76
0
77
0
78
0
79
0
170
0
171
2
172
0
173
0
174
0
175
0
176
0
177
0
178
0
179
0
271
4
272
4
273
2
274
2
275
0
276
0
277
2
278
46
279
0
280
0
281
0
282
0
283
1
284
0
285
0
286
0
288
0
289
3
340
Standard
341

371
-2
372
-2
0
ENDTAB
0
TABLE
2
BLOCK_RECORD
5
1
330
0
100
AcDbSymbolTable
70
2
0
BLOCK_RECORD
5
1F
330
1
100
AcDbSymbolTableRecord
100
AcDbBlockTableRecord
2
*Model_Space
70
0
280
1
281
0
0
BLOCK_RECORD
5
1E
330
1
100
AcDbSymbolTableRecord
100
AcDbBlockTableRecord
2
*Paper_Space
70
0
280
1
281
0
0
ENDTAB
0
ENDSEC
0
SECTION
2
BLOCKS
0
BLOCK
5
20
330
1F
100
AcDbEntity
8
0
100
AcDbBlockBegin
2
*Model_Space
70
0
10
0
20
0
30
0
3
*Model_Space
1

0
ENDBLK
5
21
330
1F
100
AcDbEntity
8
0
100
AcDbBlockEnd
0
BLOCK
5
1C
330
1B
100
AcDbEntity
8
0
100
AcDbBlockBegin
2
*Paper_Space
70
0
10
0
20
0
30
0
3
*Paper_Space
1

0
ENDBLK
5
1D
330
1F
100
AcDbEntity
8
0
100
AcDbBlockEnd
0
ENDSEC
0
SECTION
2
ENTITIES
0
CIRCLE
5
48
100
AcDbEntity
8
0
6
ByLayer
62
256
370
-1
100
AcDbCircle
10
40
20
40
40
37.5
0
SPLINE
5
49
100
AcDbEntity
8
yuyuko
6
ByLayer
62
7
370
-1
100
AcDbSpline
210
0
220
0
230
1
70
8
71
3
72
8
73
4
74
0
42
1e-07
43
1e-07
40
0
40
0
40
0
40
0
40
1
40
1
40
1
40
1
10
40.2798739726
20
65.57903592
30
0
10
40.2551959726
20
65.58004512
30
0
10
40.2359779726
20
65.56316664
30
0
10
40.2206074126
20
65.52611928
30
0
0
SPLINE
5
4A
100
AcDbEntity
8
yuyuko
6
ByLayer
62
7
370
-1
100
AcDbSpline
210
0
220
0
230
1
70
8
71
3
72
8
73
4
74
0
42
1e-07
43
1e-07
40
0
40
0
40
0
40
0
40
1
40
1
40
1
40
1
10
40.2206074126
20
65.52611928
30
0
10
40.2096799726
20
65.49978024
30
0
10
40.0185588526
20
65.3867412
30
0
10
39.7972740526
20
65.27635248
30
0
0
SPLINE
5
4B
100
AcDbEntity
8
yuyuko
6
ByLayer
62
7
370
-1
100
AcDbSpline
210
0
220
0
230
1
70
8
71
3
72
8
73
4
74
0
42
1e-07
43
1e-07
40
0
40
0
40
0
40
0
40
1
40
1
40
1
40
1
10
39.7972740526
20
65.27635248
30
0
10
39.5759892526
20
65.165964
30
0
10
39.3951072526
20
65.0559024
30
0
10
39.3951072526
20
65.03081928
30
0
0
SPLINE
5
4C
100
AcDbEntity
8
yuyuko
6
ByLayer
62
7
370
-1
100
AcDbSpline
210
0
220
0
230
1
70
8
71
3
72
8
73
4
74
0
42
1e-07
43
1e-07
40
0
40
0
40
0
40
0
40
1
40
1
40
1
40
1
10
39.3951072526
20
65.03081928
30
0
10
39.3951072526
20
65.00573592
30
0
10
39.2350481326
20
64.90370256
30
0
10
39.0395074126
20
64.80433584
30
0
0
SPLINE
5
4D
100
AcDbEntity
8
yuyuko
6
ByLayer
62
7
370
-1
100
AcDbSpline
210
0
220
0
230
1
70
8
71
3
72
8
73
4
74
0
42
1e-07
43
1e-07
40
0
40
0
40
0
40
0
40
1
40
1
40
1
40
1
10
39.0395074126
20
64.80433584
30
0
10
38.8439659726
20
64.70496912
30
0
10
38.5724981326
20
64.51533696
30
0
10
38.4362573326
20
64.38311928
30
0
0
SPLINE
5
4E
100
AcDbEntity
8
yuyuko
6
ByLayer
62
7
370
-1
100
AcDbSpline
210
0
220
0
230
1
70
8
71
3
72
8
73
4
74
0
42
1e-07
43
1e-07
40
0
40
0
40
0
40
0
40
1
40
1
40
1
40
1
10
38.4362573326
20
64.38311928
30
0
10
38.3000150926
20
64.2509016
30
0
10
38.1543586126
20
64.1418192
30
0
10
38.1102905326
20
64.1418192
30
0
0
SPLINE
5
4F
100
AcDbEntity
8
yuyuko
6
ByLayer
62
7
370
-1
100
AcDbSpline
210
0
220
0
230
1
70
8
71
3
72
8
73
4
74
0
42
1e-07
43
1e-07
40
0
40
0
40
0
40
0
40
1
40
1
40
1
40
1
10
38.1102905326
20
64.1418192
30
0
10
38.0662226926
20
64.1418192
30
0
10
38.0016619726
20
64.09164792
30
0
10
37.9684740526
20
64.02963576
30
0
0
SPLINE
5
50
100
AcDbEntity
8
yuyuko
6
ByLayer
62
7
370
-1
100
AcDbSpline
210
0
220
0
230
1
70
8
71
3
72
8
73
4
74
0
42
1e-07
43
1e-07
40
0
40
0
40
0
40
0
40
1
40
1
40
1
40
1
10
37.9684740526
20
64.02963576
30
0
10
37.8895313326
20
63.88213008
30
0
10
37.4170392526
20
63.60557232
30
0
10
37.2403406926
20
63.60418584
30
0
0
SPLINE
5
51
100
AcDbEntity
8
yuyuko
6
ByLayer
62
7
370
-1
100
AcDbSpline
210
0
220
0
230
1
70
8
71
3
72
8
73
4
74
0
42
1e-07
43
1e-07
40
0
40
0
40
0
40
0
40
1
40
1
40
1
40
1
10
37.2403406926
20
63.60418584
30
0
10
37.1642213326
20
63.60358848
30
0
10
36.6726674926
20
63.66058392
30
0
10
36.1481405326
20
63.72906912
30
0
0
SPLINE
5
52
100
AcDbEntity
8
yuyuko
6
ByLayer
62
7
370
-1
100
AcDbSpline
210
0
220
0
230
1
70
8
71
3
72
8
73
4
74
0
42
1e-07
43
1e-07
40
0
40
0
40
0
40
0
40
1
40
1
40
1
40
1
10
36.1481405326
20
63.72906912
30
0
10
35.6236138126
20
63.79755456
30
0
10
34.9795373326
20
63.8794836
30
0
10
34.7172739726
20
63.9132192
30
0
0
SPLINE
5
53
100
AcDbEntity
8
yuyuko
6
ByLayer
62
7
370
-1
100
AcDbSpline
210
0
220
0
230
1
70
8
71
3
72
8
73
4
74
0
42
1e-07
43
1e-07
40
0
40
0
40
0
40
0
40
1
40
1
40
1
40
1
10
34.7172739726
20
63.9132192
30
0
10
34.0640489326
20
63.99724512
30
0
10
31.9735625326
20
63.94301688
30
0
10
31.4089238926
20
63.82643592
30
0
0
SPLINE
5
54
100
AcDbEntity
8
yuyuko
6
ByLayer
62
7
370
-1
100
AcDbSpline
210
0
220
0
230
1
70
8
71
3
72
8
73
4
74
0
42
1e-07
43
1e-07
40
0
40
0
40
0
40
0
40
1
40
1
40
1
40
1
10
31.4089238926
20
63.82643592
30
0
10
30.7217489326
20
63.6845544
30
0
10
30.3950405326
20
63.59084544
30
0
10
30.3950405326
20
63.53645256
30
0
0
SPLINE
5
55
100
AcDbEntity
8
yuyuko
6
ByLayer
62
7
370
-1
100
AcDbSpline
210
0
220
0
230
1
70
8
71
3
72
8
73
4
74
0
42
1e-07
43
1e-07
40
0
40
0
40
0
40
0
40
1
40
1
40
1
40
1
10
30.3950405326
20
63.53645256
30
0
10
30.3950405326
20
63.50919288
30
0
10
30.3561806926
20
63.48776928
30
0
10
30.3082572526
20
63.48776928
30
0
0
SPLINE
5
56
100
AcDbEntity
8
yuyuko
6
ByLayer
62
7
370
-1
100
AcDbSpline
210
0
220
0
230
1
70
8
71
3
72
8
73
4
74
0
42
1e-07
43
1e-07
40
0
40
0
40
0
40
0
40
1
40
1
40
1
40
1
10
30.3082572526
20
63.48776928
30
0
10
30.1790993326
20
63.48776928
30
0
10
29.3218906126
20
63.0681516
30
0
10
29.3218906126
20
63.00516912
30
0
0
SPLINE
5
57
100
AcDbEntity
8
yuyuko
6
ByLayer
62
7
370
-1
100
AcDbSpline
210
0
220
0
230
1
70
8
71
3
72
8
73
4
74
0
42
1e-07
43
1e-07
40
0
40
0
40
0
40
0
40
1
40
1
40
1
40
1
10
29.3218906126
20
63.00516912
30
0
10
29.3218906126
20
62.97538536
30
0
10
29.2358184526
20
62.91395592
30
0
10
29.1292740526
20
62.86758576
30
0
0
SPLINE
5
58
100
AcDbEntity
8
yuyuko
6
ByLayer
62
7
370
-1
100
AcDbSpline
210
0
220
0
230
1
70
8
71
3
72
8
73
4
74
0
42
1e-07
43
1e-07
40
0
40
0
40
0
40
0
40
1
40
1
40
1
40
1
10
29.1292740526
20
62.86758576
30
0
10
29.0227294126
20
62.82121584
30
0
10
28.8683314126
20
62.71903968
30
0
10
28.7863740526
20
62.64110256
30
0
0
SPLINE
5
59
100
AcDbEntity
8
yuyuko
6
ByLayer
62
7
370
-1
100
AcDbSpline
210
0
220
0
230
1
70
8
71
3
72
8
73
4
74
0
42
1e-07
43
1e-07
40
0
40
0
40
0
40
0
40
1
40
1
40
1
40
1
10
28.7863740526
20
62.64110256
30
0
10
28.7044166926
20
62.56316544
30
0
10
28.5433975726
20
62.4336516
30
0
10
28.4286574126
20
62.35323576
30
0
0
SPLINE
5
5A
100
AcDbEntity
8
yuyuko
6
ByLayer
62
7
370
-1
100
AcDbSpline
210
0
220
0
230
1
70
8
71
3
72
8
73
4
74
0
42
1e-07
43
1e-07
40
0
40
0
40
0
40
0
40
1
40
1
40
1
40
1
10
28.4286574126
20
62.35323576
30
0
10
28.1977469326
20
62.19140232
30
0
10
27.5946905326
20
61.59277512
30
0
10
27.5946905326
20
61.52561928
30
0
0
SPLINE
5
5B
100
AcDbEntity
8
yuyuko
6
ByLayer
62
7
370
-1
100
AcDbSpline
210
0
220
0
230
1
70
8
71
3
72
8
73
4
74
0
42
1e-07
43
1e-07
40
0
40
0
40
0
40
0
40
1
40
1
40
1
40
1
10
27.5946905326
20
61.52561928
30
0
10
27.5946905326
20
61.50215112
30
0
10
27.4998809326
20
61.37995296
30
0
10
27.3851405326
20
61.25468592
30
0
0
SPLINE
5
5C
100
AcDbEntity
8
yuyuko
6
ByLayer
62
7
370
-1
100
AcDbSpline
210
0
220
0
230
1
70
8
71
3
72
8
73
4
74
0
42
1e-07
43
1e-07
40
0
40
0
40
0
40
0
40
1
40
1
40
1
40
1
10
27.3851405326
20
61.25468592
30
0
10
27.2704003726
20
61.12941864
30
0
10
27.1777073326
20
61.0151436
30
0
10
27.1777073326
20
61.00068576
30
0
0
SPLINE
5
5D
100
AcDbEntity
8
yuyuko
6
ByLayer
62
7
370
-1
100
AcDbSpline
210
0
220
0
230
1
70
8
71
3
72
8
73
4
74
0
42
1e-07
43
1e-07
40
0
40
0
40
0
40
0
40
1
40
1
40
1
40
1
10
27.1777073326
20
61.00068576
30
0
10
27.1777073326
20
60.98622744
30
0
10
27.1093812526
20
60.88800408
30
0
10
27.0274238926
20
60.78055248
30
0
0
SPLINE
5
5E
100
AcDbEntity
8
yuyuko
6
ByLayer
62
7
370
-1
100
AcDbSpline
210
0
220
0
230
1
70
8
71
3
72
8
73
4
74
0
42
1e-07
43
1e-07
40
0
40
0
40
0
40
0
40
1
40
1
40
1
40
1
10
27.0274238926
20
60.78055248
30
0
10
26.9454665326
20
60.67310112
30
0
10
26.8792572526
20
60.5546436
30
0
10
26.8792572526
20
60.51808584
30
0
0
SPLINE
5
5F
100
AcDbEntity
8
yuyuko
6
ByLayer
62
7
370
-1
100
AcDbSpline
210
0
220
0
230
1
70
8
71
3
72
8
73
4
74
0
42
1e-07
43
1e-07
40
0
40
0
40
0
40
0
40
1
40
1
40
1
40
1
10
26.8792572526
20
60.51808584
30
0
10
26.8792572526
20
60.48152808
30
0
10
26.8144330126
20
60.38997432
30
0
10
26.7353239726
20
60.31488576
30
0
0
SPLINE
5
60
100
AcDbEntity
8
yuyuko
6
ByLayer
62
7
370
-1
100
AcDbSpline
210
0
220
0
230
1
70
8
71
3
72
8
73
4
74
0
42
1e-07
43
1e-07
40
0
40
0
40
0
40
0
40
1
40
1
40
1
40
1
10
26.7353239726
20
60.31488576
30
0
10
26.6562134926
20
60.23979792
30
0
10
26.5190138926
20
60.00515832
30
0
10
26.4305239726
20
59.79206928
30
0
0
SPLINE
5
61
100
AcDbEntity
8
yuyuko
6
ByLayer
62
7
370
-1
100
AcDbSpline
210
0
220
0
230
1
70
8
71
3
72
8
73
4
74
0
42
1e-07
43
1e-07
40
0
40
0
40
0
40
0
40
1
40
1
40
1
40
1
10
26.4305239726
20
59.79206928
30
0
10
26.3420340526
20
59.57898
30
0
10
26.2496143726
20
59.38936056
30
0
10
26.2252073326
20
59.37296928
30
0
0
SPLINE
5
62
100
AcDbEntity
8
yuyuko
6
ByLayer
62
7
370
-1
100
AcDbSpline
210
0
220
0
230
1
70
8
71
3
72
8
73
4
74
0
42
1e-07
43
1e-07
40
0
40
0
40
0
40
0
40
1
40
1
40
1
40
1
10
26.2252073326
20
59.37296928
30
0
10
26.2008002926
20
59.35657776
30
0
10
26.0916382126
20
59.08962336
30
0
10
25.9839072526
20
58.77818592
30
0
0
SPLINE
5
63
100
AcDbEntity
8
yuyuko
6
ByLayer
62
7
370
-1
100
AcDbSpline
210
0
220
0
230
1
70
8
71
3
72
8
73
4
74
0
42
1e-07
43
1e-07
40
0
40
0
40
0
40
0
40
1
40
1
40
1
40
1
10
25.9839072526
20
58.77818592
30
0
10
25.8761765326
20
58.466748
30
0
10
25.7690959726
20
58.19767728
30
0
10
25.7447239726
20
58.18128576
30
0
0
SPLINE
5
64
100
AcDbEntity
8
yuyuko
6
ByLayer
62
7
370
-1
100
AcDbSpline
210
0
220
0
230
1
70
8
71
3
72
8
73
4
74
0
42
1e-07
43
1e-07
40
0
40
0
40
0
40
0
40
1
40
1
40
1
40
1
10
25.7447239726
20
58.18128576
30
0
10
25.6757618926
20
58.13490552
30
0
10
25.4016127726
20
57.0521976
30
0
10
25.3552572526
20
56.64246912
30
0
0
SPLINE
5
65
100
AcDbEntity
8
yuyuko
6
ByLayer
62
7
370
-1
100
AcDbSpline
210
0
220
0
230
1
70
8
71
3
72
8
73
4
74
0
42
1e-07
43
1e-07
40
0
40
0
40
0
40
0
40
1
40
1
40
1
40
1
10
25.3552572526
20
56.64246912
30
0
10
25.3323749326
20
56.44021608
30
0
10
25.2906725326
20
56.2741692
30
0
10
25.2621240526
20
56.2741692
30
0
0
SPLINE
5
66
100
AcDbEntity
8
yuyuko
6
ByLayer
62
7
370
-1
100
AcDbSpline
210
0
220
0
230
1
70
8
71
3
72
8
73
4
74
0
42
1e-07
43
1e-07
40
0
40
0
40
0
40
0
40
1
40
1
40
1
40
1
10
25.2621240526
20
56.2741692
30
0
10
25.1950049326
20
56.2741692
30
0
10
25.1929250926
20
55.51511616
30
0
10
25.2600072526
20
55.48888584
30
0
0
SPLINE
5
67
100
AcDbEntity
8
yuyuko
6
ByLayer
62
7
370
-1
100
AcDbSpline
210
0
220
0
230
1
70
8
71
3
72
8
73
4
74
0
42
1e-07
43
1e-07
40
0
40
0
40
0
40
0
40
1
40
1
40
1
40
1
10
25.2600072526
20
55.48888584
30
0
10
25.2879542926
20
55.4779584
30
0
10
25.3306488526
20
55.22177256
30
0
10
25.3531406926
20
54.91738584
30
0
0
SPLINE
5
68
100
AcDbEntity
8
yuyuko
6
ByLayer
62
7
370
-1
100
AcDbSpline
210
0
220
0
230
1
70
8
71
3
72
8
73
4
74
0
42
1e-07
43
1e-07
40
0
40
0
40
0
40
0
40
1
40
1
40
1
40
1
10
25.1711074126
20
54.26968584
30
0
10
25.0487590126
20
54.21856608
30
0
10
24.8537827726
20
54.16105656
30
0
10
24.7371905326
20
54.14268576
30
0
0
SPLINE
5
69
100
AcDbEntity
8
yuyuko
6
ByLayer
62
7
370
-1
100
AcDbSpline
210
0
220
0
230
1
70
8
71
3
72
8
73
4
74
0
42
1e-07
43
1e-07
40
0
40
0
40
0
40
0
40
1
40
1
40
1
40
1
10
24.7371905326
20
54.14268576
30
0
10
24.6205982926
20
54.1243152
30
0
10
24.5101654126
20
54.09206544
30
0
10
24.4937738926
20
54.07071912
30
0
0
SPLINE
5
6A
100
AcDbEntity
8
yuyuko
6
ByLayer
62
7
370
-1
100
AcDbSpline
210
0
220
0
230
1
70
8
71
3
72
8
73
4
74
0
42
1e-07
43
1e-07
40
0
40
0
40
0
40
0
40
1
40
1
40
1
40
1
10
24.4937738926
20
54.07071912
30
0
10
24.4773826126
20
54.04937232
30
0
10
24.2562077326
20
53.95761816
30
0
10
24.0005906926
20
53.86540248
30
0
0
SPLINE
5
6B
100
AcDbEntity
8
yuyuko
6
ByLayer
62
7
370
-1
100
AcDbSpline
210
0
220
0
230
1
70
8
71
3
72
8
73
4
74
0
42
1e-07
43
1e-07
40
0
40
0
40
0
40
0
40
1
40
1
40
1
40
1
10
24.0005906926
20
53.86540248
30
0
10
23.7449734126
20
53.77318704
30
0
10
23.5028866126
20
53.66754048
30
0
10
23.4629573326
20
53.63045256
30
0
0
SPLINE
5
6C
100
AcDbEntity
8
yuyuko
6
ByLayer
62
7
370
-1
100
AcDbSpline
210
0
220
0
230
1
70
8
71
3
72
8
73
4
74
0
42
1e-07
43
1e-07
40
0
40
0
40
0
40
0
40
1
40
1
40
1
40
1
10
23.4629573326
20
53.63045256
30
0
10
23.4230280526
20
53.59336512
30
0
10
23.2880174926
20
53.51153112
30
0
10
23.1645072526
20
53.44841928
30
0
0
SPLINE
5
6D
100
AcDbEntity
8
yuyuko
6
ByLayer
62
7
370
-1
100
AcDbSpline
210
0
220
0
230
1
70
8
71
3
72
8
73
4
74
0
42
1e-07
43
1e-07
40
0
40
0
40
0
40
0
40
1
40
1
40
1
40
1
10
23.1645072526
20
53.44841928
30
0
10
22.9480392526
20
53.33780928
30
0
10
22.9251338926
20
53.33661984
30
0
10
22.5104573326
20
53.4336024
30
0
0
SPLINE
5
6E
100
AcDbEntity
8
yuyuko
6
ByLayer
62
7
370
-1
100
AcDbSpline
210
0
220
0
230
1
70
8
71
3
72
8
73
4
74
0
42
1e-07
43
1e-07
40
0
40
0
40
0
40
0
40
1
40
1
40
1
40
1
10
22.5104573326
20
53.4336024
30
0
10
22.2738554926
20
53.48893728
30
0
10
22.0211856526
20
53.53349232
30
0
10
21.9474240526
20
53.53308576
30
0
0
SPLINE
5
6F
100
AcDbEntity
8
yuyuko
6
ByLayer
62
7
370
-1
100
AcDbSpline
210
0
220
0
230
1
70
8
71
3
72
8
73
4
74
0
42
1e-07
43
1e-07
40
0
40
0
40
0
40
0
40
1
40
1
40
1
40
1
10
21.9474240526
20
53.53308576
30
0
10
21.8736624526
20
53.532666
30
0
10
21.8119572526
20
53.55956952
30
0
10
21.8119572526
20
53.59235256
30
0
0
SPLINE
5
70
100
AcDbEntity
8
yuyuko
6
ByLayer
62
7
370
-1
100
AcDbSpline
210
0
220
0
230
1
70
8
71
3
72
8
73
4
74
0
42
1e-07
43
1e-07
40
0
40
0
40
0
40
0
40
1
40
1
40
1
40
1
10
21.8119572526
20
53.59235256
30
0
10
21.8119572526
20
53.6610252
30
0
10
21.5349194926
20
53.67439656
30
0
10
21.5050406926
20
53.6071692
30
0
0
SPLINE
5
71
100
AcDbEntity
8
yuyuko
6
ByLayer
62
7
370
-1
100
AcDbSpline
210
0
220
0
230
1
70
8
71
3
72
8
73
4
74
0
42
1e-07
43
1e-07
40
0
40
0
40
0
40
0
40
1
40
1
40
1
40
1
10
21.5050406926
20
53.6071692
30
0
10
21.4941130126
20
53.58258192
30
0
10
21.4044228526
20
53.52192144
30
0
10
21.3060739726
20
53.4717024
30
0
0
SPLINE
5
72
100
AcDbEntity
8
yuyuko
6
ByLayer
62
7
370
-1
100
AcDbSpline
210
0
220
0
230
1
70
8
71
3
72
8
73
4
74
0
42
1e-07
43
1e-07
40
0
40
0
40
0
40
0
40
1
40
1
40
1
40
1
10
21.3060739726
20
53.4717024
30
0
10
21.1539636526
20
53.39403336
30
0
10
21.1240586926
20
53.34053688
30
0
10
21.1071072526
20
53.11398576
30
0
0
SPLINE
5
73
100
AcDbEntity
8
yuyuko
6
ByLayer
62
7
370
-1
100
AcDbSpline
210
0
220
0
230
1
70
8
71
3
72
8
73
4
74
0
42
1e-07
43
1e-07
40
0
40
0
40
0
40
0
40
1
40
1
40
1
40
1
10
21.1071072526
20
53.11398576
30
0
10
21.0861742126
20
52.83422016
30
0
10
21.2036508526
20
52.22075256
30
0
10
21.2785572526
20
52.22075256
30
0
0
SPLINE
5
74
100
AcDbEntity
8
yuyuko
6
ByLayer
62
7
370
-1
100
AcDbSpline
210
0
220
0
230
1
70
8
71
3
72
8
73
4
74
0
42
1e-07
43
1e-07
40
0
40
0
40
0
40
0
40
1
40
1
40
1
40
1
10
21.2785572526
20
52.22075256
30
0
10
21.3026182126
20
52.22075256
30
0
10
21.3927144526
20
52.04736864
30
0
10
21.4775239726
20
51.8355192
30
0
0
LWPOLYLINE
5
75
100
AcDbEntity
8
yuyuko
6
ByLayer
62
7
370
-1
100
AcDbPolyline
90
3
70
0
43
0
10
25.3531406926
20
54.91738584
10
25.3933572526
20
54.36281928
10
25.1711074126
20
54.26968584
0
SPLINE
5
76
100
AcDbEntity
8
yuyuko
6
ByLayer
62
7
370
-1
100
AcDbSpline
210
0
220
0
230
1
70
8
71
3
72
8
73
4
74
0
42
1e-07
43
1e-07
40
0
40
0
40
0
40
0
40
1
40
1
40
1
40
1
10
21.5198573326
20
51.19628592
30
0
10
21.4588291726
20
51.05571888
30
0
10
21.3522602926
20
50.87501376
30
0
10
21.2827906126
20
50.79623592
30
0
0
SPLINE
5
77
100
AcDbEntity
8
yuyuko
6
ByLayer
62
7
370
-1
100
AcDbSpline
210
0
220
0
230
1
70
8
71
3
72
8
73
4
74
0
42
1e-07
43
1e-07
40
0
40
0
40
0
40
0
40
1
40
1
40
1
40
1
10
21.2827906126
20
50.79623592
30
0
10
21.1499933326
20
50.64564576
30
0
10
21.1298537326
20
50.562606
30
0
10
21.2023572526
20
50.4639192
30
0
0
SPLINE
5
78
100
AcDbEntity
8
yuyuko
6
ByLayer
62
7
370
-1
100
AcDbSpline
210
0
220
0
230
1
70
8
71
3
72
8
73
4
74
0
42
1e-07
43
1e-07
40
0
40
0
40
0
40
0
40
1
40
1
40
1
40
1
10
21.2023572526
20
50.4639192
30
0
10
21.2496178126
20
50.39959224
30
0
10
22.1146397326
20
50.02414488
30
0
10
22.3347739726
20
49.97285256
30
0
0
SPLINE
5
79
100
AcDbEntity
8
yuyuko
6
ByLayer
62
7
370
-1
100
AcDbSpline
210
0
220
0
230
1
70
8
71
3
72
8
73
4
74
0
42
1e-07
43
1e-07
40
0
40
0
40
0
40
0
40
1
40
1
40
1
40
1
10
22.3347739726
20
49.97285256
30
0
10
22.4085355726
20
49.95566592
30
0
10
22.4681239726
20
49.91926392
30
0
10
22.4681239726
20
49.8903024
30
0
0
SPLINE
5
7A
100
AcDbEntity
8
yuyuko
6
ByLayer
62
7
370
-1
100
AcDbSpline
210
0
220
0
230
1
70
8
71
3
72
8
73
4
74
0
42
1e-07
43
1e-07
40
0
40
0
40
0
40
0
40
1
40
1
40
1
40
1
10
22.4681239726
20
49.8903024
30
0
10
22.4681239726
20
49.86134184
30
0
10
22.5028222126
20
49.83738576
30
0
10
22.5464405326
20
49.83738576
30
0
0
SPLINE
5
7B
100
AcDbEntity
8
yuyuko
6
ByLayer
62
7
370
-1
100
AcDbSpline
210
0
220
0
230
1
70
8
71
3
72
8
73
4
74
0
42
1e-07
43
1e-07
40
0
40
0
40
0
40
0
40
1
40
1
40
1
40
1
10
22.5464405326
20
49.83738576
30
0
10
22.5900590926
20
49.83738576
30
0
10
22.7576990926
20
49.77103824
30
0
10
22.9189740526
20
49.68921912
30
0
0
SPLINE
5
7C
100
AcDbEntity
8
yuyuko
6
ByLayer
62
7
370
-1
100
AcDbSpline
210
0
220
0
230
1
70
8
71
3
72
8
73
4
74
0
42
1e-07
43
1e-07
40
0
40
0
40
0
40
0
40
1
40
1
40
1
40
1
10
22.9189740526
20
49.68921912
30
0
10
23.0802490126
20
49.60739856
30
0
10
23.2444037326
20
49.53907128
30
0
10
23.2830406126
20
49.53893592
30
0
0
SPLINE
5
7D
100
AcDbEntity
8
yuyuko
6
ByLayer
62
7
370
-1
100
AcDbSpline
210
0
220
0
230
1
70
8
71
3
72
8
73
4
74
0
42
1e-07
43
1e-07
40
0
40
0
40
0
40
0
40
1
40
1
40
1
40
1
10
23.2830406126
20
49.53893592
30
0
10
23.3216777326
20
49.53879768
30
0
10
23.3896663726
20
49.5042768
30
0
10
23.4333240526
20
49.46061912
30
0
0
SPLINE
5
7E
100
AcDbEntity
8
yuyuko
6
ByLayer
62
7
370
-1
100
AcDbSpline
210
0
220
0
230
1
70
8
71
3
72
8
73
4
74
0
42
1e-07
43
1e-07
40
0
40
0
40
0
40
0
40
1
40
1
40
1
40
1
10
23.4333240526
20
49.46061912
30
0
10
23.4769814926
20
49.41696168
30
0
10
23.7678067726
20
49.28936688
30
0
10
24.0789072526
20
49.17910248
30
0
0
SPLINE
5
7F
100
AcDbEntity
8
yuyuko
6
ByLayer
62
7
370
-1
100
AcDbSpline
210
0
220
0
230
1
70
8
71
3
72
8
73
4
74
0
42
1e-07
43
1e-07
40
0
40
0
40
0
40
0
40
1
40
1
40
1
40
1
10
24.0789072526
20
49.17910248
30
0
10
24.3900079726
20
49.06883808
30
0
10
24.6605772526
20
48.95544288
30
0
10
24.6800405326
20
48.92721912
30
0
0
SPLINE
5
80
100
AcDbEntity
8
yuyuko
6
ByLayer
62
7
370
-1
100
AcDbSpline
210
0
220
0
230
1
70
8
71
3
72
8
73
4
74
0
42
1e-07
43
1e-07
40
0
40
0
40
0
40
0
40
1
40
1
40
1
40
1
10
24.6800405326
20
48.92721912
30
0
10
24.6995038126
20
48.89899536
30
0
10
24.8607238126
20
48.86104248
30
0
10
25.0398739726
20
48.8425524
30
0
0
SPLINE
5
81
100
AcDbEntity
8
yuyuko
6
ByLayer
62
7
370
-1
100
AcDbSpline
210
0
220
0
230
1
70
8
71
3
72
8
73
4
74
0
42
1e-07
43
1e-07
40
0
40
0
40
0
40
0
40
1
40
1
40
1
40
1
10
25.0398739726
20
48.8425524
30
0
10
25.3006418926
20
48.81563856
30
0
10
25.3865666926
20
48.82941168
30
0
10
25.4695572526
20
48.91240248
30
0
0
SPLINE
5
82
100
AcDbEntity
8
yuyuko
6
ByLayer
62
7
370
-1
100
AcDbSpline
210
0
220
0
230
1
70
8
71
3
72
8
73
4
74
0
42
1e-07
43
1e-07
40
0
40
0
40
0
40
0
40
1
40
1
40
1
40
1
10
25.4695572526
20
48.91240248
30
0
10
25.5265726126
20
48.96941712
30
0
10
25.5861139726
20
49.00327968
30
0
10
25.6029072526
20
48.98648592
30
0
0
SPLINE
5
83
100
AcDbEntity
8
yuyuko
6
ByLayer
62
7
370
-1
100
AcDbSpline
210
0
220
0
230
1
70
8
71
3
72
8
73
4
74
0
42
1e-07
43
1e-07
40
0
40
0
40
0
40
0
40
1
40
1
40
1
40
1
10
25.6029072526
20
48.98648592
30
0
10
25.6462421326
20
48.94315152
30
0
10
25.4554320526
20
46.01911416
30
0
10
25.3848905326
20
45.64638576
30
0
0
SPLINE
5
84
100
AcDbEntity
8
yuyuko
6
ByLayer
62
7
370
-1
100
AcDbSpline
210
0
220
0
230
1
70
8
71
3
72
8
73
4
74
0
42
1e-07
43
1e-07
40
0
40
0
40
0
40
0
40
1
40
1
40
1
40
1
10
25.3848905326
20
45.64638576
30
0
10
25.3526875726
20
45.47623032
30
0
10
25.3006174126
20
45.32711328
30
0
10
25.2684739726
20
45.31618584
30
0
0
SPLINE
5
85
100
AcDbEntity
8
yuyuko
6
ByLayer
62
7
370
-1
100
AcDbSpline
210
0
220
0
230
1
70
8
71
3
72
8
73
4
74
0
42
1e-07
43
1e-07
40
0
40
0
40
0
40
0
40
1
40
1
40
1
40
1
10
25.2684739726
20
45.31618584
30
0
10
25.2363305326
20
45.30525768
30
0
10
25.2092074126
20
45.25136232
30
0
10
25.2092074126
20
45.19553592
30
0
0
SPLINE
5
86
100
AcDbEntity
8
yuyuko
6
ByLayer
62
7
370
-1
100
AcDbSpline
210
0
220
0
230
1
70
8
71
3
72
8
73
4
74
0
42
1e-07
43
1e-07
40
0
40
0
40
0
40
0
40
1
40
1
40
1
40
1
10
25.2092074126
20
45.19553592
30
0
10
25.2092074126
20
45.1397088
30
0
10
25.1471681326
20
44.93384472
30
0
10
25.0716240526
20
44.73833592
30
0
0
SPLINE
5
87
100
AcDbEntity
8
yuyuko
6
ByLayer
62
7
370
-1
100
AcDbSpline
210
0
220
0
230
1
70
8
71
3
72
8
73
4
74
0
42
1e-07
43
1e-07
40
0
40
0
40
0
40
0
40
1
40
1
40
1
40
1
10
25.0716240526
20
44.73833592
30
0
10
24.9693629326
20
44.47368264
30
0
10
24.8911915726
20
44.36096424
30
0
10
24.7604738926
20
44.29806912
30
0
0
SPLINE
5
88
100
AcDbEntity
8
yuyuko
6
ByLayer
62
7
370
-1
100
AcDbSpline
210
0
220
0
230
1
70
8
71
3
72
8
73
4
74
0
42
1e-07
43
1e-07
40
0
40
0
40
0
40
0
40
1
40
1
40
1
40
1
10
24.7604738926
20
44.29806912
30
0
10
24.6639077326
20
44.25160536
30
0
10
24.5561902126
20
44.1805032
30
0
10
24.5234074126
20
44.1393192
30
0
0
SPLINE
5
89
100
AcDbEntity
8
yuyuko
6
ByLayer
62
7
370
-1
100
AcDbSpline
210
0
220
0
230
1
70
8
71
3
72
8
73
4
74
0
42
1e-07
43
1e-07
40
0
40
0
40
0
40
0
40
1
40
1
40
1
40
1
10
24.5234074126
20
44.1393192
30
0
10
24.4906243726
20
44.09813592
30
0
10
24.3317220526
20
43.99168008
30
0
10
24.1678073326
20
43.90225248
30
0
0
SPLINE
5
8A
100
AcDbEntity
8
yuyuko
6
ByLayer
62
7
370
-1
100
AcDbSpline
210
0
220
0
230
1
70
8
71
3
72
8
73
4
74
0
42
1e-07
43
1e-07
40
0
40
0
40
0
40
0
40
1
40
1
40
1
40
1
10
24.1678073326
20
43.90225248
30
0
10
24.0038926126
20
43.81282488
30
0
10
23.8561154926
20
43.72265352
30
0
10
23.8397239726
20
43.7011692
30
0
0
SPLINE
5
8B
100
AcDbEntity
8
yuyuko
6
ByLayer
62
7
370
-1
100
AcDbSpline
210
0
220
0
230
1
70
8
71
3
72
8
73
4
74
0
42
1e-07
43
1e-07
40
0
40
0
40
0
40
0
40
1
40
1
40
1
40
1
10
23.8397239726
20
43.7011692
30
0
10
23.8233324526
20
43.6796856
30
0
10
23.7219017326
20
43.62573048
30
0
10
23.6153573326
20
43.58263584
30
0
0
SPLINE
5
8C
100
AcDbEntity
8
yuyuko
6
ByLayer
62
7
370
-1
100
AcDbSpline
210
0
220
0
230
1
70
8
71
3
72
8
73
4
74
0
42
1e-07
43
1e-07
40
0
40
0
40
0
40
0
40
1
40
1
40
1
40
1
10
23.6153573326
20
43.58263584
30
0
10
23.5088126926
20
43.5395412
30
0
10
23.4227405326
20
43.48020816
30
0
10
23.4227405326
20
43.4514024
30
0
0
SPLINE
5
8D
100
AcDbEntity
8
yuyuko
6
ByLayer
62
7
370
-1
100
AcDbSpline
210
0
220
0
230
1
70
8
71
3
72
8
73
4
74
0
42
1e-07
43
1e-07
40
0
40
0
40
0
40
0
40
1
40
1
40
1
40
1
10
23.4227405326
20
43.4514024
30
0
10
23.4227405326
20
43.38222384
30
0
10
23.5855994926
20
43.3841196
30
0
10
23.6111239726
20
43.4535192
30
0
0
SPLINE
5
8E
100
AcDbEntity
8
yuyuko
6
ByLayer
62
7
370
-1
100
AcDbSpline
210
0
220
0
230
1
70
8
71
3
72
8
73
4
74
0
42
1e-07
43
1e-07
40
0
40
0
40
0
40
0
40
1
40
1
40
1
40
1
10
23.6111239726
20
43.4535192
30
0
10
23.6386034926
20
43.52823576
30
0
10
24.2679530926
20
43.59407328
30
0
10
24.3604238926
20
43.53183576
30
0
0
SPLINE
5
8F
100
AcDbEntity
8
yuyuko
6
ByLayer
62
7
370
-1
100
AcDbSpline
210
0
220
0
230
1
70
8
71
3
72
8
73
4
74
0
42
1e-07
43
1e-07
40
0
40
0
40
0
40
0
40
1
40
1
40
1
40
1
10
24.3604238926
20
43.53183576
30
0
10
24.4184071726
20
43.49280936
30
0
10
24.4219987726
20
43.43681016
30
0
10
24.3710074126
20
43.29053592
30
0
0
SPLINE
5
90
100
AcDbEntity
8
yuyuko
6
ByLayer
62
7
370
-1
100
AcDbSpline
210
0
220
0
230
1
70
8
71
3
72
8
73
4
74
0
42
1e-07
43
1e-07
40
0
40
0
40
0
40
0
40
1
40
1
40
1
40
1
10
24.3710074126
20
43.29053592
30
0
10
24.3346248526
20
43.18616904
30
0
10
24.2851783726
20
43.10215248
30
0
10
24.2630573326
20
43.10215248
30
0
0
SPLINE
5
91
100
AcDbEntity
8
yuyuko
6
ByLayer
62
7
370
-1
100
AcDbSpline
210
0
220
0
230
1
70
8
71
3
72
8
73
4
74
0
42
1e-07
43
1e-07
40
0
40
0
40
0
40
0
40
1
40
1
40
1
40
1
10
24.2630573326
20
43.10215248
30
0
10
24.2409362926
20
43.10215248
30
0
10
24.1778700526
20
43.00734288
30
0
10
24.1212406126
20
42.89260248
30
0
0
LWPOLYLINE
5
92
100
AcDbEntity
8
yuyuko
6
ByLayer
62
7
370
-1
100
AcDbPolyline
90
3
70
0
43
0
10
21.4775239726
20
51.8355192
10
21.6320405326
20
51.45028584
10
21.5198573326
20
51.19628592
0
SPLINE
5
93
100
AcDbEntity
8
yuyuko
6
ByLayer
62
7
370
-1
100
AcDbSpline
210
0
220
0
230
1
70
8
71
3
72
8
73
4
74
0
42
1e-07
43
1e-07
40
0
40
0
40
0
40
0
40
1
40
1
40
1
40
1
10
23.9138074126
20
42.47561928
30
0
10
23.8571779726
20
42.36087888
30
0
10
23.7909686926
20
42.26818584
30
0
10
23.7656405326
20
42.26818584
30
0
0
SPLINE
5
94
100
AcDbEntity
8
yuyuko
6
ByLayer
62
7
370
-1
100
AcDbSpline
210
0
220
0
230
1
70
8
71
3
72
8
73
4
74
0
42
1e-07
43
1e-07
40
0
40
0
40
0
40
0
40
1
40
1
40
1
40
1
10
23.7656405326
20
42.26818584
30
0
10
23.7403126126
20
42.26818584
30
0
10
23.7190740526
20
42.22350144
30
0
10
23.7190740526
20
42.17081928
30
0
0
SPLINE
5
95
100
AcDbEntity
8
yuyuko
6
ByLayer
62
7
370
-1
100
AcDbSpline
210
0
220
0
230
1
70
8
71
3
72
8
73
4
74
0
42
1e-07
43
1e-07
40
0
40
0
40
0
40
0
40
1
40
1
40
1
40
1
10
23.7190740526
20
42.17081928
30
0
10
23.7190740526
20
42.10297344
30
0
10
23.7510235726
20
42.08748744
30
0
10
23.8249073326
20
42.1179024
30
0
0
SPLINE
5
96
100
AcDbEntity
8
yuyuko
6
ByLayer
62
7
370
-1
100
AcDbSpline
210
0
220
0
230
1
70
8
71
3
72
8
73
4
74
0
42
1e-07
43
1e-07
40
0
40
0
40
0
40
0
40
1
40
1
40
1
40
1
10
23.8249073326
20
42.1179024
30
0
10
24.0922826926
20
42.22797528
30
0
10
24.1581624526
20
42.22938408
30
0
10
24.1170072526
20
42.12213576
30
0
0
SPLINE
5
97
100
AcDbEntity
8
yuyuko
6
ByLayer
62
7
370
-1
100
AcDbSpline
210
0
220
0
230
1
70
8
71
3
72
8
73
4
74
0
42
1e-07
43
1e-07
40
0
40
0
40
0
40
0
40
1
40
1
40
1
40
1
10
24.1170072526
20
42.12213576
30
0
10
24.0949464526
20
42.0646464
30
0
10
24.0618984526
20
41.9467764
30
0
10
24.0429240526
20
41.85966912
30
0
0
SPLINE
5
98
100
AcDbEntity
8
yuyuko
6
ByLayer
62
7
370
-1
100
AcDbSpline
210
0
220
0
230
1
70
8
71
3
72
8
73
4
74
0
42
1e-07
43
1e-07
40
0
40
0
40
0
40
0
40
1
40
1
40
1
40
1
10
24.0429240526
20
41.85966912
30
0
10
23.9781422926
20
41.5622724
30
0
10
23.8110226126
20
41.10555336
30
0
10
23.7508238926
20
41.06168592
30
0
0
SPLINE
5
99
100
AcDbEntity
8
yuyuko
6
ByLayer
62
7
370
-1
100
AcDbSpline
210
0
220
0
230
1
70
8
71
3
72
8
73
4
74
0
42
1e-07
43
1e-07
40
0
40
0
40
0
40
0
40
1
40
1
40
1
40
1
10
23.7508238926
20
41.06168592
30
0
10
23.7129545326
20
41.03409072
30
0
10
23.7177154126
20
41.01784536
30
0
10
23.7635239726
20
41.01723576
30
0
0
SPLINE
5
9A
100
AcDbEntity
8
yuyuko
6
ByLayer
62
7
370
-1
100
AcDbSpline
210
0
220
0
230
1
70
8
71
3
72
8
73
4
74
0
42
1e-07
43
1e-07
40
0
40
0
40
0
40
0
40
1
40
1
40
1
40
1
10
23.7635239726
20
41.01723576
30
0
10
23.8487726926
20
41.01616632
30
0
10
24.2437524526
20
41.22932448
30
0
10
24.3794738926
20
41.34955248
30
0
0
SPLINE
5
9B
100
AcDbEntity
8
yuyuko
6
ByLayer
62
7
370
-1
100
AcDbSpline
210
0
220
0
230
1
70
8
71
3
72
8
73
4
74
0
42
1e-07
43
1e-07
40
0
40
0
40
0
40
0
40
1
40
1
40
1
40
1
10
24.3794738926
20
41.34955248
30
0
10
24.4312296526
20
41.39540064
30
0
10
24.5015335726
20
41.4321024
30
0
10
24.5361072526
20
41.4321024
30
0
0
SPLINE
5
9C
100
AcDbEntity
8
yuyuko
6
ByLayer
62
7
370
-1
100
AcDbSpline
210
0
220
0
230
1
70
8
71
3
72
8
73
4
74
0
42
1e-07
43
1e-07
40
0
40
0
40
0
40
0
40
1
40
1
40
1
40
1
10
24.5361072526
20
41.4321024
30
0
10
24.5706811726
20
41.4321024
30
0
10
24.6174026926
20
41.4938076
30
0
10
24.6398239726
20
41.5675692
30
0
0
SPLINE
5
9D
100
AcDbEntity
8
yuyuko
6
ByLayer
62
7
370
-1
100
AcDbSpline
210
0
220
0
230
1
70
8
71
3
72
8
73
4
74
0
42
1e-07
43
1e-07
40
0
40
0
40
0
40
0
40
1
40
1
40
1
40
1
10
24.6398239726
20
41.5675692
30
0
10
24.6665674126
20
41.65554936
30
0
10
24.6927974926
20
41.6742756
30
0
10
24.7139074126
20
41.6226024
30
0
0
SPLINE
5
9E
100
AcDbEntity
8
yuyuko
6
ByLayer
62
7
370
-1
100
AcDbSpline
210
0
220
0
230
1
70
8
71
3
72
8
73
4
74
0
42
1e-07
43
1e-07
40
0
40
0
40
0
40
0
40
1
40
1
40
1
40
1
10
24.7139074126
20
41.6226024
30
0
10
24.7316054926
20
41.57928024
30
0
10
24.6947861326
20
41.48447064
30
0
10
24.6334740526
20
41.4130524
30
0
0
SPLINE
5
9F
100
AcDbEntity
8
yuyuko
6
ByLayer
62
7
370
-1
100
AcDbSpline
210
0
220
0
230
1
70
8
71
3
72
8
73
4
74
0
42
1e-07
43
1e-07
40
0
40
0
40
0
40
0
40
1
40
1
40
1
40
1
10
24.6334740526
20
41.4130524
30
0
10
24.5721617326
20
41.34163392
30
0
10
24.4716804526
20
41.18912616
30
0
10
24.4091074126
20
41.07438576
30
0
0
SPLINE
5
A0
100
AcDbEntity
8
yuyuko
6
ByLayer
62
7
370
-1
100
AcDbSpline
210
0
220
0
230
1
70
8
71
3
72
8
73
4
74
0
42
1e-07
43
1e-07
40
0
40
0
40
0
40
0
40
1
40
1
40
1
40
1
10
24.4091074126
20
41.07438576
30
0
10
24.3465341326
20
40.9596456
30
0
10
24.2600330926
20
40.84448544
30
0
10
24.2164906126
20
40.81826928
30
0
0
SPLINE
5
A1
100
AcDbEntity
8
yuyuko
6
ByLayer
62
7
370
-1
100
AcDbSpline
210
0
220
0
230
1
70
8
71
3
72
8
73
4
74
0
42
1e-07
43
1e-07
40
0
40
0
40
0
40
0
40
1
40
1
40
1
40
1
10
24.2164906126
20
40.81826928
30
0
10
24.0506342926
20
40.71840936
30
0
10
24.1370018926
20
40.6467852
30
0
10
24.3752405326
20
40.68703584
30
0
0
LWPOLYLINE
5
A2
100
AcDbEntity
8
yuyuko
6
ByLayer
62
7
370
-1
100
AcDbPolyline
90
2
70
0
43
0
10
24.1212406126
20
42.89260248
10
23.9138074126
20
42.47561928
0
SPLINE
5
A3
100
AcDbEntity
8
yuyuko
6
ByLayer
62
7
370
-1
100
AcDbSpline
210
0
220
0
230
1
70
8
71
3
72
8
73
4
74
0
42
1e-07
43
1e-07
40
0
40
0
40
0
40
0
40
1
40
1
40
1
40
1
10
24.6123072526
20
40.4986524
30
0
10
24.6118094926
20
40.37283456
30
0
10
24.5565466126
20
39.97449816
30
0
10
24.4895405326
20
39.61388592
30
0
0
SPLINE
5
A4
100
AcDbEntity
8
yuyuko
6
ByLayer
62
7
370
-1
100
AcDbSpline
210
0
220
0
230
1
70
8
71
3
72
8
73
4
74
0
42
1e-07
43
1e-07
40
0
40
0
40
0
40
0
40
1
40
1
40
1
40
1
10
24.4895405326
20
39.61388592
30
0
10
24.4225344526
20
39.25327368
30
0
10
24.3537667726
20
38.87164704
30
0
10
24.3350239726
20
38.7651024
30
0
0
SPLINE
5
A5
100
AcDbEntity
8
yuyuko
6
ByLayer
62
7
370
-1
100
AcDbSpline
210
0
220
0
230
1
70
8
71
3
72
8
73
4
74
0
42
1e-07
43
1e-07
40
0
40
0
40
0
40
0
40
1
40
1
40
1
40
1
10
24.3350239726
20
38.7651024
30
0
10
24.3162811726
20
38.658558
30
0
10
24.2794356526
20
38.57248584
30
0
10
24.2545906126
20
38.57248584
30
0
0
SPLINE
5
A6
100
AcDbEntity
8
yuyuko
6
ByLayer
62
7
370
-1
100
AcDbSpline
210
0
220
0
230
1
70
8
71
3
72
8
73
4
74
0
42
1e-07
43
1e-07
40
0
40
0
40
0
40
0
40
1
40
1
40
1
40
1
10
24.2545906126
20
38.57248584
30
0
10
24.2297455726
20
38.57248584
30
0
10
24.1906080526
20
38.47105512
30
0
10
24.1678073326
20
38.3481192
30
0
0
SPLINE
5
A7
100
AcDbEntity
8
yuyuko
6
ByLayer
62
7
370
-1
100
AcDbSpline
210
0
220
0
230
1
70
8
71
3
72
8
73
4
74
0
42
1e-07
43
1e-07
40
0
40
0
40
0
40
0
40
1
40
1
40
1
40
1
10
24.1678073326
20
38.3481192
30
0
10
24.1319129326
20
38.15458536
30
0
10
23.9062834126
20
37.77152976
30
0
10
23.7719906926
20
37.67713584
30
0
0
SPLINE
5
A8
100
AcDbEntity
8
yuyuko
6
ByLayer
62
7
370
-1
100
AcDbSpline
210
0
220
0
230
1
70
8
71
3
72
8
73
4
74
0
42
1e-07
43
1e-07
40
0
40
0
40
0
40
0
40
1
40
1
40
1
40
1
10
23.7719906926
20
37.67713584
30
0
10
23.6221606126
20
37.57182192
30
0
10
23.4816672526
20
36.66536928
30
0
10
23.6153573326
20
36.66536928
30
0
0
SPLINE
5
A9
100
AcDbEntity
8
yuyuko
6
ByLayer
62
7
370
-1
100
AcDbSpline
210
0
220
0
230
1
70
8
71
3
72
8
73
4
74
0
42
1e-07
43
1e-07
40
0
40
0
40
0
40
0
40
1
40
1
40
1
40
1
10
23.6153573326
20
36.66536928
30
0
10
23.6950702126
20
36.66536928
30
0
10
23.9582573326
20
36.97205904
30
0
10
23.9582573326
20
37.06541928
30
0
0
SPLINE
5
AA
100
AcDbEntity
8
yuyuko
6
ByLayer
62
7
370
-1
100
AcDbSpline
210
0
220
0
230
1
70
8
71
3
72
8
73
4
74
0
42
1e-07
43
1e-07
40
0
40
0
40
0
40
0
40
1
40
1
40
1
40
1
10
23.9582573326
20
37.06541928
30
0
10
23.9582573326
20
37.09164408
30
0
10
24.0101393326
20
37.14576648
30
0
10
24.0746738926
20
37.1860692
30
0
0
SPLINE
5
AB
100
AcDbEntity
8
yuyuko
6
ByLayer
62
7
370
-1
100
AcDbSpline
210
0
220
0
230
1
70
8
71
3
72
8
73
4
74
0
42
1e-07
43
1e-07
40
0
40
0
40
0
40
0
40
1
40
1
40
1
40
1
10
24.0746738926
20
37.1860692
30
0
10
24.1392084526
20
37.22637192
30
0
10
24.2343550126
20
37.33728312
30
0
10
24.2842238926
20
37.4337192
30
0
0
SPLINE
5
AC
100
AcDbEntity
8
yuyuko
6
ByLayer
62
7
370
-1
100
AcDbSpline
210
0
220
0
230
1
70
8
71
3
72
8
73
4
74
0
42
1e-07
43
1e-07
40
0
40
0
40
0
40
0
40
1
40
1
40
1
40
1
10
24.2842238926
20
37.4337192
30
0
10
24.3965222926
20
37.65088032
30
0
10
24.8930983726
20
38.17154856
30
0
10
25.0843238926
20
38.2719192
30
0
0
SPLINE
5
AD
100
AcDbEntity
8
yuyuko
6
ByLayer
62
7
370
-1
100
AcDbSpline
210
0
220
0
230
1
70
8
71
3
72
8
73
4
74
0
42
1e-07
43
1e-07
40
0
40
0
40
0
40
0
40
1
40
1
40
1
40
1
10
25.0843238926
20
38.2719192
30
0
10
25.2054617326
20
38.3355012
30
0
10
25.2995753326
20
38.3205132
30
0
10
25.7383740526
20
38.1766692
30
0
0
SPLINE
5
AE
100
AcDbEntity
8
yuyuko
6
ByLayer
62
7
370
-1
100
AcDbSpline
210
0
220
0
230
1
70
8
71
3
72
8
73
4
74
0
42
1e-07
43
1e-07
40
0
40
0
40
0
40
0
40
1
40
1
40
1
40
1
10
25.7383740526
20
38.1766692
30
0
10
26.0209706926
20
38.08402968
30
0
10
26.2659658126
20
37.9941108
30
0
10
26.2823573326
20
37.97558592
30
0
0
SPLINE
5
AF
100
AcDbEntity
8
yuyuko
6
ByLayer
62
7
370
-1
100
AcDbSpline
210
0
220
0
230
1
70
8
71
3
72
8
73
4
74
0
42
1e-07
43
1e-07
40
0
40
0
40
0
40
0
40
1
40
1
40
1
40
1
10
26.2823573326
20
37.97558592
30
0
10
26.2987488526
20
37.95706008
30
0
10
26.4975518926
20
37.8602808
30
0
10
26.7247406926
20
37.76180256
30
0
0
SPLINE
5
B0
100
AcDbEntity
8
yuyuko
6
ByLayer
62
7
370
-1
100
AcDbSpline
210
0
220
0
230
1
70
8
71
3
72
8
73
4
74
0
42
1e-07
43
1e-07
40
0
40
0
40
0
40
0
40
1
40
1
40
1
40
1
10
26.7247406926
20
37.76180256
30
0
10
26.9519282926
20
37.6633236
30
0
10
27.1498932526
20
37.55102856
30
0
10
27.1628906926
20
37.51203576
30
0
0
SPLINE
5
B1
100
AcDbEntity
8
yuyuko
6
ByLayer
62
7
370
-1
100
AcDbSpline
210
0
220
0
230
1
70
8
71
3
72
8
73
4
74
0
42
1e-07
43
1e-07
40
0
40
0
40
0
40
0
40
1
40
1
40
1
40
1
10
27.1628906926
20
37.51203576
30
0
10
27.1758886126
20
37.4730432
30
0
10
27.0830194126
20
37.3943892
30
0
10
26.9575740526
20
37.3363524
30
0
0
SPLINE
5
B2
100
AcDbEntity
8
yuyuko
6
ByLayer
62
7
370
-1
100
AcDbSpline
210
0
220
0
230
1
70
8
71
3
72
8
73
4
74
0
42
1e-07
43
1e-07
40
0
40
0
40
0
40
0
40
1
40
1
40
1
40
1
10
26.9575740526
20
37.3363524
30
0
10
26.8321284526
20
37.27831584
30
0
10
26.6926553326
20
37.19397576
30
0
10
26.6464238926
20
37.15008576
30
0
0
SPLINE
5
B3
100
AcDbEntity
8
yuyuko
6
ByLayer
62
7
370
-1
100
AcDbSpline
210
0
220
0
230
1
70
8
71
3
72
8
73
4
74
0
42
1e-07
43
1e-07
40
0
40
0
40
0
40
0
40
1
40
1
40
1
40
1
10
26.6464238926
20
37.15008576
30
0
10
26.6001919726
20
37.10619528
30
0
10
26.4193102126
20
37.00225248
30
0
10
26.2442573326
20
36.9193692
30
0
0
SPLINE
5
B4
100
AcDbEntity
8
yuyuko
6
ByLayer
62
7
370
-1
100
AcDbSpline
210
0
220
0
230
1
70
8
71
3
72
8
73
4
74
0
42
1e-07
43
1e-07
40
0
40
0
40
0
40
0
40
1
40
1
40
1
40
1
10
26.2442573326
20
36.9193692
30
0
10
26.0692044526
20
36.8364852
30
0
10
25.9246406926
20
36.75148464
30
0
10
25.9246406926
20
36.7288692
30
0
0
SPLINE
5
B5
100
AcDbEntity
8
yuyuko
6
ByLayer
62
7
370
-1
100
AcDbSpline
210
0
220
0
230
1
70
8
71
3
72
8
73
4
74
0
42
1e-07
43
1e-07
40
0
40
0
40
0
40
0
40
1
40
1
40
1
40
1
10
25.9246406926
20
36.7288692
30
0
10
25.9246406926
20
36.70625376
30
0
10
25.7237959726
20
36.59409336
30
0
10
25.4780239726
20
36.4812192
30
0
0
SPLINE
5
B6
100
AcDbEntity
8
yuyuko
6
ByLayer
62
7
370
-1
100
AcDbSpline
210
0
220
0
230
1
70
8
71
3
72
8
73
4
74
0
42
1e-07
43
1e-07
40
0
40
0
40
0
40
0
40
1
40
1
40
1
40
1
10
25.4780239726
20
36.4812192
30
0
10
25.2322522126
20
36.36834504
30
0
10
25.0315090126
20
36.25692432
30
0
10
25.0314072526
20
36.2335692
30
0
0
SPLINE
5
B7
100
AcDbEntity
8
yuyuko
6
ByLayer
62
7
370
-1
100
AcDbSpline
210
0
220
0
230
1
70
8
71
3
72
8
73
4
74
0
42
1e-07
43
1e-07
40
0
40
0
40
0
40
0
40
1
40
1
40
1
40
1
10
25.0314072526
20
36.2335692
30
0
10
25.0313071726
20
36.21021408
30
0
10
24.8237460526
20
36.093162
30
0
10
24.5699738926
20
35.97110256
30
0
0
SPLINE
5
B8
100
AcDbEntity
8
yuyuko
6
ByLayer
62
7
370
-1
100
AcDbSpline
210
0
220
0
230
1
70
8
71
3
72
8
73
4
74
0
42
1e-07
43
1e-07
40
0
40
0
40
0
40
0
40
1
40
1
40
1
40
1
10
24.5699738926
20
35.97110256
30
0
10
24.3162019726
20
35.8490436
30
0
10
24.0802361326
20
35.72531592
30
0
10
24.0471574126
20
35.6980524
30
0
0
SPLINE
5
B9
100
AcDbEntity
8
yuyuko
6
ByLayer
62
7
370
-1
100
AcDbSpline
210
0
220
0
230
1
70
8
71
3
72
8
73
4
74
0
42
1e-07
43
1e-07
40
0
40
0
40
0
40
0
40
1
40
1
40
1
40
1
10
24.0471574126
20
35.6980524
30
0
10
24.0140786926
20
35.67078912
30
0
10
23.8959012526
20
35.58956664
30
0
10
23.7825739726
20
35.51601912
30
0
0
SPLINE
5
BA
100
AcDbEntity
8
yuyuko
6
ByLayer
62
7
370
-1
100
AcDbSpline
210
0
220
0
230
1
70
8
71
3
72
8
73
4
74
0
42
1e-07
43
1e-07
40
0
40
0
40
0
40
0
40
1
40
1
40
1
40
1
10
23.7825739726
20
35.51601912
30
0
10
23.6692466926
20
35.4424716
30
0
10
23.5214693326
20
35.27426472
30
0
10
23.4544906126
20
35.14348584
30
0
0
SPLINE
5
BB
100
AcDbEntity
8
yuyuko
6
ByLayer
62
7
370
-1
100
AcDbSpline
210
0
220
0
230
1
70
8
71
3
72
8
73
4
74
0
42
1e-07
43
1e-07
40
0
40
0
40
0
40
0
40
1
40
1
40
1
40
1
10
23.4544906126
20
35.14348584
30
0
10
23.3875118926
20
35.01270768
30
0
10
23.3154938926
20
34.89317736
30
0
10
23.2957406926
20
34.87678584
30
0
0
SPLINE
5
BC
100
AcDbEntity
8
yuyuko
6
ByLayer
62
7
370
-1
100
AcDbSpline
210
0
220
0
230
1
70
8
71
3
72
8
73
4
74
0
42
1e-07
43
1e-07
40
0
40
0
40
0
40
0
40
1
40
1
40
1
40
1
10
23.2957406926
20
34.87678584
30
0
10
23.2232146126
20
34.81660272
30
0
10
23.0569620526
20
34.2186576
30
0
10
23.0756074126
20
34.08726912
30
0
0
SPLINE
5
BD
100
AcDbEntity
8
yuyuko
6
ByLayer
62
7
370
-1
100
AcDbSpline
210
0
220
0
230
1
70
8
71
3
72
8
73
4
74
0
42
1e-07
43
1e-07
40
0
40
0
40
0
40
0
40
1
40
1
40
1
40
1
10
23.0756074126
20
34.08726912
30
0
10
23.0879040526
20
34.00061736
30
0
10
23.1369581326
20
33.9493404
30
0
10
23.2131905326
20
33.9454524
30
0
0
SPLINE
5
BE
100
AcDbEntity
8
yuyuko
6
ByLayer
62
7
370
-1
100
AcDbSpline
210
0
220
0
230
1
70
8
71
3
72
8
73
4
74
0
42
1e-07
43
1e-07
40
0
40
0
40
0
40
0
40
1
40
1
40
1
40
1
10
23.2131905326
20
33.9454524
30
0
10
23.2787566126
20
33.94211064
30
0
10
23.3635198126
20
33.93548544
30
0
10
23.4015739726
20
33.93063576
30
0
0
SPLINE
5
BF
100
AcDbEntity
8
yuyuko
6
ByLayer
62
7
370
-1
100
AcDbSpline
210
0
220
0
230
1
70
8
71
3
72
8
73
4
74
0
42
1e-07
43
1e-07
40
0
40
0
40
0
40
0
40
1
40
1
40
1
40
1
10
23.4015739726
20
33.93063576
30
0
10
23.5014233326
20
33.91789992
30
0
10
23.7190740526
20
33.438726
30
0
10
23.7190740526
20
33.23213592
30
0
0
SPLINE
5
C0
100
AcDbEntity
8
yuyuko
6
ByLayer
62
7
370
-1
100
AcDbSpline
210
0
220
0
230
1
70
8
71
3
72
8
73
4
74
0
42
1e-07
43
1e-07
40
0
40
0
40
0
40
0
40
1
40
1
40
1
40
1
10
23.7190740526
20
33.23213592
30
0
10
23.7190740526
20
33.13547904
30
0
10
23.6626807726
20
32.91033
30
0
10
23.5941905326
20
32.73048576
30
0
0
SPLINE
5
C1
100
AcDbEntity
8
yuyuko
6
ByLayer
62
7
370
-1
100
AcDbSpline
210
0
220
0
230
1
70
8
71
3
72
8
73
4
74
0
42
1e-07
43
1e-07
40
0
40
0
40
0
40
0
40
1
40
1
40
1
40
1
10
23.5941905326
20
32.73048576
30
0
10
23.5257002926
20
32.55064296
30
0
10
23.4411662926
20
32.31633048
30
0
10
23.4058073326
20
32.20978584
30
0
0
SPLINE
5
C2
100
AcDbEntity
8
yuyuko
6
ByLayer
62
7
370
-1
100
AcDbSpline
210
0
220
0
230
1
70
8
71
3
72
8
73
4
74
0
42
1e-07
43
1e-07
40
0
40
0
40
0
40
0
40
1
40
1
40
1
40
1
10
23.4058073326
20
32.20978584
30
0
10
23.3704483726
20
32.1032412
30
0
10
23.3226317326
20
32.01505248
30
0
10
23.2978572526
20
32.01505248
30
0
0
SPLINE
5
C3
100
AcDbEntity
8
yuyuko
6
ByLayer
62
7
370
-1
100
AcDbSpline
210
0
220
0
230
1
70
8
71
3
72
8
73
4
74
0
42
1e-07
43
1e-07
40
0
40
0
40
0
40
0
40
1
40
1
40
1
40
1
10
23.2978572526
20
32.01505248
30
0
10
23.2475786926
20
32.01505248
30
0
10
22.9790078926
20
30.88649592
30
0
10
22.8872239726
20
30.2878524
30
0
0
SPLINE
5
C4
100
AcDbEntity
8
yuyuko
6
ByLayer
62
7
370
-1
100
AcDbSpline
210
0
220
0
230
1
70
8
71
3
72
8
73
4
74
0
42
1e-07
43
1e-07
40
0
40
0
40
0
40
0
40
1
40
1
40
1
40
1
10
22.8872239726
20
30.2878524
30
0
10
22.8545803726
20
30.07494096
30
0
10
22.7998870126
20
29.89044072
30
0
10
22.7665740526
20
29.87933592
30
0
0
SPLINE
5
C5
100
AcDbEntity
8
yuyuko
6
ByLayer
62
7
370
-1
100
AcDbSpline
210
0
220
0
230
1
70
8
71
3
72
8
73
4
74
0
42
1e-07
43
1e-07
40
0
40
0
40
0
40
0
40
1
40
1
40
1
40
1
10
22.7665740526
20
29.87933592
30
0
10
22.7332608526
20
29.8682316
30
0
10
22.7073072526
20
29.82269256
30
0
10
22.7073072526
20
29.77773576
30
0
0
SPLINE
5
C6
100
AcDbEntity
8
yuyuko
6
ByLayer
62
7
370
-1
100
AcDbSpline
210
0
220
0
230
1
70
8
71
3
72
8
73
4
74
0
42
1e-07
43
1e-07
40
0
40
0
40
0
40
0
40
1
40
1
40
1
40
1
10
22.7073072526
20
29.77773576
30
0
10
22.7073072526
20
29.73019104
30
0
10
22.6129536526
20
29.67843888
30
0
10
22.4829406126
20
29.65496928
30
0
0
SPLINE
5
C7
100
AcDbEntity
8
yuyuko
6
ByLayer
62
7
370
-1
100
AcDbSpline
210
0
220
0
230
1
70
8
71
3
72
8
73
4
74
0
42
1e-07
43
1e-07
40
0
40
0
40
0
40
0
40
1
40
1
40
1
40
1
10
22.4829406126
20
29.65496928
30
0
10
22.0947670126
20
29.58489696
30
0
10
22.0726831726
20
29.55732744
30
0
10
22.0320905326
20
29.07711912
30
0
0
SPLINE
5
C8
100
AcDbEntity
8
yuyuko
6
ByLayer
62
7
370
-1
100
AcDbSpline
210
0
220
0
230
1
70
8
71
3
72
8
73
4
74
0
42
1e-07
43
1e-07
40
0
40
0
40
0
40
0
40
1
40
1
40
1
40
1
10
22.0320905326
20
29.07711912
30
0
10
21.9846509326
20
28.51590912
30
0
10
21.9525782926
20
28.43788584
30
0
10
21.7696238926
20
28.43788584
30
0
0
SPLINE
5
C9
100
AcDbEntity
8
yuyuko
6
ByLayer
62
7
370
-1
100
AcDbSpline
210
0
220
0
230
1
70
8
71
3
72
8
73
4
74
0
42
1e-07
43
1e-07
40
0
40
0
40
0
40
0
40
1
40
1
40
1
40
1
10
21.7696238926
20
28.43788584
30
0
10
21.6510845326
20
28.43788584
30
0
10
21.6296302126
20
28.4171472
30
0
10
21.6637906126
20
28.33416912
30
0
0
SPLINE
5
CA
100
AcDbEntity
8
yuyuko
6
ByLayer
62
7
370
-1
100
AcDbSpline
210
0
220
0
230
1
70
8
71
3
72
8
73
4
74
0
42
1e-07
43
1e-07
40
0
40
0
40
0
40
0
40
1
40
1
40
1
40
1
10
21.6637906126
20
28.33416912
30
0
10
21.6874087726
20
28.27679904
30
0
10
21.7213910926
20
28.17748512
30
0
10
21.7399906126
20
28.11191928
30
0
0
SPLINE
5
CB
100
AcDbEntity
8
yuyuko
6
ByLayer
62
7
370
-1
100
AcDbSpline
210
0
220
0
230
1
70
8
71
3
72
8
73
4
74
0
42
1e-07
43
1e-07
40
0
40
0
40
0
40
0
40
1
40
1
40
1
40
1
10
21.7399906126
20
28.11191928
30
0
10
21.7585903726
20
28.0463532
30
0
10
21.8080459726
20
27.95715384
30
0
10
21.8500572526
20
27.91506912
30
0
0
SPLINE
5
CC
100
AcDbEntity
8
yuyuko
6
ByLayer
62
7
370
-1
100
AcDbSpline
210
0
220
0
230
1
70
8
71
3
72
8
73
4
74
0
42
1e-07
43
1e-07
40
0
40
0
40
0
40
0
40
1
40
1
40
1
40
1
10
21.8500572526
20
27.91506912
30
0
10
21.9611222926
20
27.80380968
30
0
10
22.0507613326
20
27.44112888
30
0
10
22.0511405326
20
27.09380256
30
0
0
SPLINE
5
CD
100
AcDbEntity
8
yuyuko
6
ByLayer
62
7
370
-1
100
AcDbSpline
210
0
220
0
230
1
70
8
71
3
72
8
73
4
74
0
42
1e-07
43
1e-07
40
0
40
0
40
0
40
0
40
1
40
1
40
1
40
1
10
22.0511405326
20
27.09380256
30
0
10
22.0515302926
20
26.73939792
30
0
10
21.8791642126
20
25.68085608
30
0
10
21.8140740526
20
25.63753584
30
0
0
SPLINE
5
CE
100
AcDbEntity
8
yuyuko
6
ByLayer
62
7
370
-1
100
AcDbSpline
210
0
220
0
230
1
70
8
71
3
72
8
73
4
74
0
42
1e-07
43
1e-07
40
0
40
0
40
0
40
0
40
1
40
1
40
1
40
1
10
21.8140740526
20
25.63753584
30
0
10
21.7894450126
20
25.62114432
30
0
10
21.7482732526
20
25.53957648
30
0
10
21.7230574126
20
25.45761912
30
0
0
SPLINE
5
CF
100
AcDbEntity
8
yuyuko
6
ByLayer
62
7
370
-1
100
AcDbSpline
210
0
220
0
230
1
70
8
71
3
72
8
73
4
74
0
42
1e-07
43
1e-07
40
0
40
0
40
0
40
0
40
1
40
1
40
1
40
1
10
21.7230574126
20
25.45761912
30
0
10
21.6694680526
20
25.28344224
30
0
10
21.3466397326
20
24.80410368
30
0
10
21.2171738926
20
24.7062024
30
0
0
SPLINE
5
D0
100
AcDbEntity
8
yuyuko
6
ByLayer
62
7
370
-1
100
AcDbSpline
210
0
220
0
230
1
70
8
71
3
72
8
73
4
74
0
42
1e-07
43
1e-07
40
0
40
0
40
0
40
0
40
1
40
1
40
1
40
1
10
21.2171738926
20
24.7062024
30
0
10
20.8387368526
20
24.42003192
30
0
10
20.8333368526
20
24.4114224
30
0
10
20.9102573326
20
24.22571928
30
0
0
SPLINE
5
D1
100
AcDbEntity
8
yuyuko
6
ByLayer
62
7
370
-1
100
AcDbSpline
210
0
220
0
230
1
70
8
71
3
72
8
73
4
74
0
42
1e-07
43
1e-07
40
0
40
0
40
0
40
0
40
1
40
1
40
1
40
1
10
20.9102573326
20
24.22571928
30
0
10
20.9946362926
20
24.0220104
30
0
10
20.9343084526
20
23.80738728
30
0
10
20.7409238926
20
23.61400248
30
0
0
SPLINE
5
D2
100
AcDbEntity
8
yuyuko
6
ByLayer
62
7
370
-1
100
AcDbSpline
210
0
220
0
230
1
70
8
71
3
72
8
73
4
74
0
42
1e-07
43
1e-07
40
0
40
0
40
0
40
0
40
1
40
1
40
1
40
1
10
20.7409238926
20
23.61400248
30
0
10
20.6740488526
20
23.54712744
30
0
10
20.6202739726
20
23.44036752
30
0
10
20.6202739726
20
23.37693576
30
0
0
SPLINE
5
D3
100
AcDbEntity
8
yuyuko
6
ByLayer
62
7
370
-1
100
AcDbSpline
210
0
220
0
230
1
70
8
71
3
72
8
73
4
74
0
42
1e-07
43
1e-07
40
0
40
0
40
0
40
0
40
1
40
1
40
1
40
1
10
20.6202739726
20
23.37693576
30
0
10
20.6202739726
20
23.2281732
30
0
10
20.7200714926
20
22.9669176
30
0
10
20.8150073326
20
22.86681912
30
0
0
SPLINE
5
D4
100
AcDbEntity
8
yuyuko
6
ByLayer
62
7
370
-1
100
AcDbSpline
210
0
220
0
230
1
70
8
71
3
72
8
73
4
74
0
42
1e-07
43
1e-07
40
0
40
0
40
0
40
0
40
1
40
1
40
1
40
1
10
20.8150073326
20
22.86681912
30
0
10
20.8558586926
20
22.82374632
30
0
10
20.9378880526
20
22.7221848
30
0
10
20.9970406126
20
22.64033592
30
0
0
SPLINE
5
D5
100
AcDbEntity
8
yuyuko
6
ByLayer
62
7
370
-1
100
AcDbSpline
210
0
220
0
230
1
70
8
71
3
72
8
73
4
74
0
42
1e-07
43
1e-07
40
0
40
0
40
0
40
0
40
1
40
1
40
1
40
1
10
20.9970406126
20
22.64033592
30
0
10
21.0561931726
20
22.55848752
30
0
10
21.1819908526
20
22.47549936
30
0
10
21.2785572526
20
22.45618584
30
0
0
SPLINE
5
D6
100
AcDbEntity
8
yuyuko
6
ByLayer
62
7
370
-1
100
AcDbSpline
210
0
220
0
230
1
70
8
71
3
72
8
73
4
74
0
42
1e-07
43
1e-07
40
0
40
0
40
0
40
0
40
1
40
1
40
1
40
1
10
21.2785572526
20
22.45618584
30
0
10
21.3985447726
20
22.43218872
30
0
10
21.4542406126
20
22.38706272
30
0
10
21.4542406126
20
22.31013576
30
0
0
SPLINE
5
D7
100
AcDbEntity
8
yuyuko
6
ByLayer
62
7
370
-1
100
AcDbSpline
210
0
220
0
230
1
70
8
71
3
72
8
73
4
74
0
42
1e-07
43
1e-07
40
0
40
0
40
0
40
0
40
1
40
1
40
1
40
1
10
21.4542406126
20
22.31013576
30
0
10
21.4542406126
20
22.12005312
30
0
10
21.3368076526
20
21.56181384
30
0
10
21.2891405326
20
21.5269692
30
0
0
SPLINE
5
D8
100
AcDbEntity
8
yuyuko
6
ByLayer
62
7
370
-1
100
AcDbSpline
210
0
220
0
230
1
70
8
71
3
72
8
73
4
74
0
42
1e-07
43
1e-07
40
0
40
0
40
0
40
0
40
1
40
1
40
1
40
1
10
21.2891405326
20
21.5269692
30
0
10
21.2643950926
20
21.50887968
30
0
10
21.1544770126
20
21.1202136
30
0
10
21.0436073326
20
20.66125248
30
0
0
SPLINE
5
D9
100
AcDbEntity
8
yuyuko
6
ByLayer
62
7
370
-1
100
AcDbSpline
210
0
220
0
230
1
70
8
71
3
72
8
73
4
74
0
42
1e-07
43
1e-07
40
0
40
0
40
0
40
0
40
1
40
1
40
1
40
1
10
21.0436073326
20
20.66125248
30
0
10
20.9327374126
20
20.20229136
30
0
10
20.8147428526
20
19.80971856
30
0
10
20.7832572526
20
19.78918584
30
0
0
SPLINE
5
DA
100
AcDbEntity
8
yuyuko
6
ByLayer
62
7
370
-1
100
AcDbSpline
210
0
220
0
230
1
70
8
71
3
72
8
73
4
74
0
42
1e-07
43
1e-07
40
0
40
0
40
0
40
0
40
1
40
1
40
1
40
1
10
20.7832572526
20
19.78918584
30
0
10
20.7517716526
20
19.76865312
30
0
10
20.7135588526
20
19.62749688
30
0
10
20.6964739726
20
19.47591912
30
0
0
LWPOLYLINE
5
DB
100
AcDbEntity
8
yuyuko
6
ByLayer
62
7
370
-1
100
AcDbPolyline
90
3
70
0
43
0
10
24.3752405326
20
40.68703584
10
24.6144240526
20
40.7272524
10
24.6123072526
20
40.4986524
0
SPLINE
5
DC
100
AcDbEntity
8
yuyuko
6
ByLayer
62
7
370
-1
100
AcDbSpline
210
0
220
0
230
1
70
8
71
3
72
8
73
4
74
0
42
1e-07
43
1e-07
40
0
40
0
40
0
40
0
40
1
40
1
40
1
40
1
10
32.1455239726
20
19.2007524
30
0
10
39.7603058926
20
19.2007524
30
0
10
43.6284406126
20
19.22048856
30
0
10
43.6284406126
20
19.2600192
30
0
0
SPLINE
5
DD
100
AcDbEntity
8
yuyuko
6
ByLayer
62
7
370
-1
100
AcDbSpline
210
0
220
0
230
1
70
8
71
3
72
8
73
4
74
0
42
1e-07
43
1e-07
40
0
40
0
40
0
40
0
40
1
40
1
40
1
40
1
10
43.6284406126
20
19.2600192
30
0
10
43.6284406126
20
19.292802
30
0
10
43.6681661326
20
19.31928576
30
0
10
43.7173406926
20
19.31928576
30
0
0
SPLINE
5
DE
100
AcDbEntity
8
yuyuko
6
ByLayer
62
7
370
-1
100
AcDbSpline
210
0
220
0
230
1
70
8
71
3
72
8
73
4
74
0
42
1e-07
43
1e-07
40
0
40
0
40
0
40
0
40
1
40
1
40
1
40
1
10
43.7173406926
20
19.31928576
30
0
10
43.7665150126
20
19.31928576
30
0
10
43.8062405326
20
19.292802
30
0
10
43.8062405326
20
19.2600192
30
0
0
SPLINE
5
DF
100
AcDbEntity
8
yuyuko
6
ByLayer
62
7
370
-1
100
AcDbSpline
210
0
220
0
230
1
70
8
71
3
72
8
73
4
74
0
42
1e-07
43
1e-07
40
0
40
0
40
0
40
0
40
1
40
1
40
1
40
1
10
43.8062405326
20
19.2600192
30
0
10
43.8062405326
20
19.22082264
30
0
10
45.1892666926
20
19.20189048
30
0
10
47.8448405326
20
19.20498576
30
0
0
SPLINE
5
E0
100
AcDbEntity
8
yuyuko
6
ByLayer
62
7
370
-1
100
AcDbSpline
210
0
220
0
230
1
70
8
71
3
72
8
73
4
74
0
42
1e-07
43
1e-07
40
0
40
0
40
0
40
0
40
1
40
1
40
1
40
1
10
47.8448405326
20
19.20498576
30
0
10
50.0658842926
20
19.20757392
30
0
10
51.8503358926
20
19.22231736
30
0
10
51.8093573326
20
19.2388524
30
0
0
SPLINE
5
E1
100
AcDbEntity
8
yuyuko
6
ByLayer
62
7
370
-1
100
AcDbSpline
210
0
220
0
230
1
70
8
71
3
72
8
73
4
74
0
42
1e-07
43
1e-07
40
0
40
0
40
0
40
0
40
1
40
1
40
1
40
1
10
51.8093573326
20
19.2388524
30
0
10
51.7683785326
20
19.25538768
30
0
10
51.7336313326
20
19.31333136
30
0
10
51.7331573326
20
19.36796928
30
0
0
SPLINE
5
E2
100
AcDbEntity
8
yuyuko
6
ByLayer
62
7
370
-1
100
AcDbSpline
210
0
220
0
230
1
70
8
71
3
72
8
73
4
74
0
42
1e-07
43
1e-07
40
0
40
0
40
0
40
0
40
1
40
1
40
1
40
1
10
51.7331573326
20
19.36796928
30
0
10
51.7316266126
20
19.53745488
30
0
10
51.3509009326
20
20.44716984
30
0
10
51.2547905326
20
20.51096928
30
0
0
SPLINE
5
E3
100
AcDbEntity
8
yuyuko
6
ByLayer
62
7
370
-1
100
AcDbSpline
210
0
220
0
230
1
70
8
71
3
72
8
73
4
74
0
42
1e-07
43
1e-07
40
0
40
0
40
0
40
0
40
1
40
1
40
1
40
1
10
51.2547905326
20
20.51096928
30
0
10
51.2300978926
20
20.52736056
30
0
10
51.1221017326
20
20.7413472
30
0
10
51.0134906926
20
20.98721928
30
0
0
SPLINE
5
E4
100
AcDbEntity
8
yuyuko
6
ByLayer
62
7
370
-1
100
AcDbSpline
210
0
220
0
230
1
70
8
71
3
72
8
73
4
74
0
42
1e-07
43
1e-07
40
0
40
0
40
0
40
0
40
1
40
1
40
1
40
1
10
51.0134906926
20
20.98721928
30
0
10
50.9048796526
20
21.23309112
30
0
10
50.7990374926
20
21.44919432
30
0
10
50.7785405326
20
21.46558584
30
0
0
SPLINE
5
E5
100
AcDbEntity
8
yuyuko
6
ByLayer
62
7
370
-1
100
AcDbSpline
210
0
220
0
230
1
70
8
71
3
72
8
73
4
74
0
42
1e-07
43
1e-07
40
0
40
0
40
0
40
0
40
1
40
1
40
1
40
1
10
50.7785405326
20
21.46558584
30
0
10
50.7580438126
20
21.48197736
30
0
10
50.6530428526
20
21.66948
30
0
10
50.5457074126
20
21.88256928
30
0
0
SPLINE
5
E6
100
AcDbEntity
8
yuyuko
6
ByLayer
62
7
370
-1
100
AcDbSpline
210
0
220
0
230
1
70
8
71
3
72
8
73
4
74
0
42
1e-07
43
1e-07
40
0
40
0
40
0
40
0
40
1
40
1
40
1
40
1
10
50.5457074126
20
21.88256928
30
0
10
50.4383717326
20
22.09565832
30
0
10
50.3325946126
20
22.28316096
30
0
10
50.3107572526
20
22.29955248
30
0
0
SPLINE
5
E7
100
AcDbEntity
8
yuyuko
6
ByLayer
62
7
370
-1
100
AcDbSpline
210
0
220
0
230
1
70
8
71
3
72
8
73
4
74
0
42
1e-07
43
1e-07
40
0
40
0
40
0
40
0
40
1
40
1
40
1
40
1
10
50.3107572526
20
22.29955248
30
0
10
50.2889201326
20
22.315944
30
0
10
50.1665705326
20
22.56965616
30
0
10
50.0377073326
20
22.86470256
30
0
0
SPLINE
5
E8
100
AcDbEntity
8
yuyuko
6
ByLayer
62
7
370
-1
100
AcDbSpline
210
0
220
0
230
1
70
8
71
3
72
8
73
4
74
0
42
1e-07
43
1e-07
40
0
40
0
40
0
40
0
40
1
40
1
40
1
40
1
10
50.0377073326
20
22.86470256
30
0
10
49.9088438926
20
23.15974896
30
0
10
49.7866922926
20
23.41557768
30
0
10
49.7667739726
20
23.4319692
30
0
0
SPLINE
5
E9
100
AcDbEntity
8
yuyuko
6
ByLayer
62
7
370
-1
100
AcDbSpline
210
0
220
0
230
1
70
8
71
3
72
8
73
4
74
0
42
1e-07
43
1e-07
40
0
40
0
40
0
40
0
40
1
40
1
40
1
40
1
10
49.7667739726
20
23.4319692
30
0
10
49.7468556526
20
23.44836072
30
0
10
49.6660584526
20
23.6226216
30
0
10
49.5889740526
20
23.81931912
30
0
0
SPLINE
5
EA
100
AcDbEntity
8
yuyuko
6
ByLayer
62
7
370
-1
100
AcDbSpline
210
0
220
0
230
1
70
8
71
3
72
8
73
4
74
0
42
1e-07
43
1e-07
40
0
40
0
40
0
40
0
40
1
40
1
40
1
40
1
10
49.5889740526
20
23.81931912
30
0
10
49.5118894126
20
24.01601688
30
0
10
49.4258172526
20
24.20828928
30
0
10
49.3963572526
20
24.24688584
30
0
0
SPLINE
5
EB
100
AcDbEntity
8
yuyuko
6
ByLayer
62
7
370
-1
100
AcDbSpline
210
0
220
0
230
1
70
8
71
3
72
8
73
4
74
0
42
1e-07
43
1e-07
40
0
40
0
40
0
40
0
40
1
40
1
40
1
40
1
10
49.3963572526
20
24.24688584
30
0
10
49.3637004526
20
24.2896704
30
0
10
49.3745558926
20
24.4100208
30
0
10
49.4238739726
20
24.5559192
30
0
0
SPLINE
5
EC
100
AcDbEntity
8
yuyuko
6
ByLayer
62
7
370
-1
100
AcDbSpline
210
0
220
0
230
1
70
8
71
3
72
8
73
4
74
0
42
1e-07
43
1e-07
40
0
40
0
40
0
40
0
40
1
40
1
40
1
40
1
10
49.4238739726
20
24.5559192
30
0
10
49.4846220526
20
24.73562784
30
0
10
49.4912767726
20
24.9040212
30
0
10
49.4513906926
20
25.23113592
30
0
0
SPLINE
5
ED
100
AcDbEntity
8
yuyuko
6
ByLayer
62
7
370
-1
100
AcDbSpline
210
0
220
0
230
1
70
8
71
3
72
8
73
4
74
0
42
1e-07
43
1e-07
40
0
40
0
40
0
40
0
40
1
40
1
40
1
40
1
10
49.4513906926
20
25.23113592
30
0
10
49.4045489326
20
25.61528544
30
0
10
49.4134747726
20
25.69888872
30
0
10
49.5233573326
20
25.94233584
30
0
0
SPLINE
5
EE
100
AcDbEntity
8
yuyuko
6
ByLayer
62
7
370
-1
100
AcDbSpline
210
0
220
0
230
1
70
8
71
3
72
8
73
4
74
0
42
1e-07
43
1e-07
40
0
40
0
40
0
40
0
40
1
40
1
40
1
40
1
10
49.5233573326
20
25.94233584
30
0
10
49.5918845326
20
26.0941608
30
0
10
49.7110085326
20
26.26095744
30
0
10
49.7900573326
20
26.31275256
30
0
0
SPLINE
5
EF
100
AcDbEntity
8
yuyuko
6
ByLayer
62
7
370
-1
100
AcDbSpline
210
0
220
0
230
1
70
8
71
3
72
8
73
4
74
0
42
1e-07
43
1e-07
40
0
40
0
40
0
40
0
40
1
40
1
40
1
40
1
10
49.7900573326
20
26.31275256
30
0
10
49.9922791726
20
26.44525392
30
0
10
50.0522753326
20
26.82304656
30
0
10
49.9085906926
20
27.06628584
30
0
0
SPLINE
5
F0
100
AcDbEntity
8
yuyuko
6
ByLayer
62
7
370
-1
100
AcDbSpline
210
0
220
0
230
1
70
8
71
3
72
8
73
4
74
0
42
1e-07
43
1e-07
40
0
40
0
40
0
40
0
40
1
40
1
40
1
40
1
10
49.9085906926
20
27.06628584
30
0
10
49.8496944526
20
27.16598808
30
0
10
49.7784958126
20
27.24620256
30
0
10
49.7498405326
20
27.24620256
30
0
0
SPLINE
5
F1
100
AcDbEntity
8
yuyuko
6
ByLayer
62
7
370
-1
100
AcDbSpline
210
0
220
0
230
1
70
8
71
3
72
8
73
4
74
0
42
1e-07
43
1e-07
40
0
40
0
40
0
40
0
40
1
40
1
40
1
40
1
10
49.7498405326
20
27.24620256
30
0
10
49.7211847726
20
27.24620256
30
0
10
49.6518698926
20
27.29870592
30
0
10
49.5974405326
20
27.36261912
30
0
0
SPLINE
5
F2
100
AcDbEntity
8
yuyuko
6
ByLayer
62
7
370
-1
100
AcDbSpline
210
0
220
0
230
1
70
8
71
3
72
8
73
4
74
0
42
1e-07
43
1e-07
40
0
40
0
40
0
40
0
40
1
40
1
40
1
40
1
10
49.5974405326
20
27.36261912
30
0
10
49.5430106926
20
27.42653304
30
0
10
49.3314031726
20
27.53387016
30
0
10
49.1254238926
20
27.6018024
30
0
0
SPLINE
5
F3
100
AcDbEntity
8
yuyuko
6
ByLayer
62
7
370
-1
100
AcDbSpline
210
0
220
0
230
1
70
8
71
3
72
8
73
4
74
0
42
1e-07
43
1e-07
40
0
40
0
40
0
40
0
40
1
40
1
40
1
40
1
10
49.1254238926
20
27.6018024
30
0
10
48.9194462926
20
27.6697344
30
0
10
48.6754855726
20
27.79294392
30
0
10
48.5835574126
20
27.87485256
30
0
0
SPLINE
5
F4
100
AcDbEntity
8
yuyuko
6
ByLayer
62
7
370
-1
100
AcDbSpline
210
0
220
0
230
1
70
8
71
3
72
8
73
4
74
0
42
1e-07
43
1e-07
40
0
40
0
40
0
40
0
40
1
40
1
40
1
40
1
10
48.5835574126
20
27.87485256
30
0
10
48.4290547726
20
28.0125144
30
0
10
48.4157345326
20
28.05856488
30
0
10
48.4099906126
20
28.48445256
30
0
0
SPLINE
5
F5
100
AcDbEntity
8
yuyuko
6
ByLayer
62
7
370
-1
100
AcDbSpline
210
0
220
0
230
1
70
8
71
3
72
8
73
4
74
0
42
1e-07
43
1e-07
40
0
40
0
40
0
40
0
40
1
40
1
40
1
40
1
10
48.4099906126
20
28.48445256
30
0
10
48.4055282926
20
28.8151164
30
0
10
48.4552466926
20
29.15120112
30
0
10
48.5856739726
20
29.67613584
30
0
0
SPLINE
5
F6
100
AcDbEntity
8
yuyuko
6
ByLayer
62
7
370
-1
100
AcDbSpline
210
0
220
0
230
1
70
8
71
3
72
8
73
4
74
0
42
1e-07
43
1e-07
40
0
40
0
40
0
40
0
40
1
40
1
40
1
40
1
10
48.5856739726
20
29.67613584
30
0
10
48.8731078126
20
30.83298456
30
0
10
48.7863665326
20
30.99054864
30
0
10
47.8998739726
20
30.9186192
30
0
0
SPLINE
5
F7
100
AcDbEntity
8
yuyuko
6
ByLayer
62
7
370
-1
100
AcDbSpline
210
0
220
0
230
1
70
8
71
3
72
8
73
4
74
0
42
1e-07
43
1e-07
40
0
40
0
40
0
40
0
40
1
40
1
40
1
40
1
10
47.8998739726
20
30.9186192
30
0
10
47.4793853326
20
30.88450128
30
0
10
47.3813158126
20
30.89319408
30
0
10
47.3008572526
20
30.9736524
30
0
0
SPLINE
5
F8
100
AcDbEntity
8
yuyuko
6
ByLayer
62
7
370
-1
100
AcDbSpline
210
0
220
0
230
1
70
8
71
3
72
8
73
4
74
0
42
1e-07
43
1e-07
40
0
40
0
40
0
40
0
40
1
40
1
40
1
40
1
10
47.3008572526
20
30.9736524
30
0
10
47.2479353326
20
31.02657384
30
0
10
47.2034906926
20
31.0781664
30
0
10
47.2034906926
20
31.0879524
30
0
0
SPLINE
5
F9
100
AcDbEntity
8
yuyuko
6
ByLayer
62
7
370
-1
100
AcDbSpline
210
0
220
0
230
1
70
8
71
3
72
8
73
4
74
0
42
1e-07
43
1e-07
40
0
40
0
40
0
40
0
40
1
40
1
40
1
40
1
10
47.2034906926
20
31.0879524
30
0
10
47.2034906926
20
31.17360888
30
0
10
46.8257527726
20
32.34954
30
0
10
46.7907406126
20
32.37276912
30
0
0
SPLINE
5
FA
100
AcDbEntity
8
yuyuko
6
ByLayer
62
7
370
-1
100
AcDbSpline
210
0
220
0
230
1
70
8
71
3
72
8
73
4
74
0
42
1e-07
43
1e-07
40
0
40
0
40
0
40
0
40
1
40
1
40
1
40
1
10
46.7907406126
20
32.37276912
30
0
10
46.7655938926
20
32.3894532
30
0
10
46.6555265326
20
32.64196176
30
0
10
46.5452074126
20
32.9358024
30
0
0
SPLINE
5
FB
100
AcDbEntity
8
yuyuko
6
ByLayer
62
7
370
-1
100
AcDbSpline
210
0
220
0
230
1
70
8
71
3
72
8
73
4
74
0
42
1e-07
43
1e-07
40
0
40
0
40
0
40
0
40
1
40
1
40
1
40
1
10
46.5452074126
20
32.9358024
30
0
10
46.4348887726
20
33.22964328
30
0
10
46.2968664526
20
33.51857664
30
0
10
46.2382906126
20
33.57715248
30
0
0
SPLINE
5
FC
100
AcDbEntity
8
yuyuko
6
ByLayer
62
7
370
-1
100
AcDbSpline
210
0
220
0
230
1
70
8
71
3
72
8
73
4
74
0
42
1e-07
43
1e-07
40
0
40
0
40
0
40
0
40
1
40
1
40
1
40
1
10
46.2382906126
20
33.57715248
30
0
10
46.1797147726
20
33.63572832
30
0
10
46.1303405326
20
33.71612784
30
0
10
46.1303405326
20
33.7549524
30
0
0
SPLINE
5
FD
100
AcDbEntity
8
yuyuko
6
ByLayer
62
7
370
-1
100
AcDbSpline
210
0
220
0
230
1
70
8
71
3
72
8
73
4
74
0
42
1e-07
43
1e-07
40
0
40
0
40
0
40
0
40
1
40
1
40
1
40
1
10
46.1303405326
20
33.7549524
30
0
10
46.1303405326
20
33.86391096
30
0
10
45.8822666926
20
34.35529872
30
0
10
45.7599240526
20
34.48731912
30
0
0
SPLINE
5
FE
100
AcDbEntity
8
yuyuko
6
ByLayer
62
7
370
-1
100
AcDbSpline
210
0
220
0
230
1
70
8
71
3
72
8
73
4
74
0
42
1e-07
43
1e-07
40
0
40
0
40
0
40
0
40
1
40
1
40
1
40
1
10
45.7599240526
20
34.48731912
30
0
10
45.5276921326
20
34.7379216
30
0
10
45.5787970126
20
35.06532912
30
0
10
45.8678738926
20
35.17523592
30
0
0
SPLINE
5
FF
100
AcDbEntity
8
yuyuko
6
ByLayer
62
7
370
-1
100
AcDbSpline
210
0
220
0
230
1
70
8
71
3
72
8
73
4
74
0
42
1e-07
43
1e-07
40
0
40
0
40
0
40
0
40
1
40
1
40
1
40
1
10
45.8678738926
20
35.17523592
30
0
10
46.1691470926
20
35.28977904
30
0
10
46.1979250126
20
35.79483672
30
0
10
45.9207905326
20
36.09386928
30
0
0
SPLINE
5
100
100
AcDbEntity
8
yuyuko
6
ByLayer
62
7
370
-1
100
AcDbSpline
210
0
220
0
230
1
70
8
71
3
72
8
73
4
74
0
42
1e-07
43
1e-07
40
0
40
0
40
0
40
0
40
1
40
1
40
1
40
1
10
45.9207905326
20
36.09386928
30
0
10
45.8395694926
20
36.18150792
30
0
10
45.7747406926
20
36.2752896
30
0
10
45.7747406926
20
36.30130248
30
0
0
SPLINE
5
101
100
AcDbEntity
8
yuyuko
6
ByLayer
62
7
370
-1
100
AcDbSpline
210
0
220
0
230
1
70
8
71
3
72
8
73
4
74
0
42
1e-07
43
1e-07
40
0
40
0
40
0
40
0
40
1
40
1
40
1
40
1
10
45.7747406926
20
36.30130248
30
0
10
45.7747406926
20
36.3273156
30
0
10
45.7190700526
20
36.39721488
30
0
10
45.6519739726
20
36.45793584
30
0
0
SPLINE
5
102
100
AcDbEntity
8
yuyuko
6
ByLayer
62
7
370
-1
100
AcDbSpline
210
0
220
0
230
1
70
8
71
3
72
8
73
4
74
0
42
1e-07
43
1e-07
40
0
40
0
40
0
40
0
40
1
40
1
40
1
40
1
10
45.6519739726
20
36.45793584
30
0
10
45.5848778926
20
36.5186568
30
0
10
45.4881610126
20
36.65531496
30
0
10
45.4381906126
20
36.76061928
30
0
0
SPLINE
5
103
100
AcDbEntity
8
yuyuko
6
ByLayer
62
7
370
-1
100
AcDbSpline
210
0
220
0
230
1
70
8
71
3
72
8
73
4
74
0
42
1e-07
43
1e-07
40
0
40
0
40
0
40
0
40
1
40
1
40
1
40
1
10
45.4381906126
20
36.76061928
30
0
10
45.3355440526
20
36.97693176
30
0
10
45.3083762926
20
36.98599512
30
0
10
44.5068574126
20
37.08446928
30
0
0
SPLINE
5
104
100
AcDbEntity
8
yuyuko
6
ByLayer
62
7
370
-1
100
AcDbSpline
210
0
220
0
230
1
70
8
71
3
72
8
73
4
74
0
42
1e-07
43
1e-07
40
0
40
0
40
0
40
0
40
1
40
1
40
1
40
1
10
44.5068574126
20
37.08446928
30
0
10
44.1872237326
20
37.12373952
30
0
10
43.9268906926
20
37.17850056
30
0
10
43.9268906926
20
37.20723576
30
0
0
SPLINE
5
105
100
AcDbEntity
8
yuyuko
6
ByLayer
62
7
370
-1
100
AcDbSpline
210
0
220
0
230
1
70
8
71
3
72
8
73
4
74
0
42
1e-07
43
1e-07
40
0
40
0
40
0
40
0
40
1
40
1
40
1
40
1
10
43.9268906926
20
37.20723576
30
0
10
43.9268906926
20
37.23597096
30
0
10
43.8472138126
20
37.2601524
30
0
10
43.7512073326
20
37.2601524
30
0
0
SPLINE
5
106
100
AcDbEntity
8
yuyuko
6
ByLayer
62
7
370
-1
100
AcDbSpline
210
0
220
0
230
1
70
8
71
3
72
8
73
4
74
0
42
1e-07
43
1e-07
40
0
40
0
40
0
40
0
40
1
40
1
40
1
40
1
10
43.7512073326
20
37.2601524
30
0
10
43.5608062126
20
37.2601524
30
0
10
43.3650569326
20
37.41269952
30
0
10
43.4167740526
20
37.52050248
30
0
0
SPLINE
5
107
100
AcDbEntity
8
yuyuko
6
ByLayer
62
7
370
-1
100
AcDbSpline
210
0
220
0
230
1
70
8
71
3
72
8
73
4
74
0
42
1e-07
43
1e-07
40
0
40
0
40
0
40
0
40
1
40
1
40
1
40
1
10
43.4167740526
20
37.52050248
30
0
10
43.4346082126
20
37.55767584
30
0
10
43.4647529326
20
37.63430736
30
0
10
43.4845073326
20
37.68983592
30
0
0
SPLINE
5
108
100
AcDbEntity
8
yuyuko
6
ByLayer
62
7
370
-1
100
AcDbSpline
210
0
220
0
230
1
70
8
71
3
72
8
73
4
74
0
42
1e-07
43
1e-07
40
0
40
0
40
0
40
0
40
1
40
1
40
1
40
1
10
43.4845073326
20
37.68983592
30
0
10
43.5042610126
20
37.74536352
30
0
10
43.5791870926
20
37.79833104
30
0
10
43.6496074126
20
37.80836928
30
0
0
SPLINE
5
109
100
AcDbEntity
8
yuyuko
6
ByLayer
62
7
370
-1
100
AcDbSpline
210
0
220
0
230
1
70
8
71
3
72
8
73
4
74
0
42
1e-07
43
1e-07
40
0
40
0
40
0
40
0
40
1
40
1
40
1
40
1
10
43.6496074126
20
37.80836928
30
0
10
43.7320373326
20
37.82011968
30
0
10
43.7849066926
20
37.87616352
30
0
10
43.7977740526
20
37.9671192
30
0
0
SPLINE
5
10A
100
AcDbEntity
8
yuyuko
6
ByLayer
62
7
370
-1
100
AcDbSpline
210
0
220
0
230
1
70
8
71
3
72
8
73
4
74
0
42
1e-07
43
1e-07
40
0
40
0
40
0
40
0
40
1
40
1
40
1
40
1
10
43.7977740526
20
37.9671192
30
0
10
43.8159677326
20
38.0957292
30
0
10
43.8378898126
20
38.10672576
30
0
10
44.0581238926
20
38.07718584
30
0
0
SPLINE
5
10B
100
AcDbEntity
8
yuyuko
6
ByLayer
62
7
370
-1
100
AcDbSpline
210
0
220
0
230
1
70
8
71
3
72
8
73
4
74
0
42
1e-07
43
1e-07
40
0
40
0
40
0
40
0
40
1
40
1
40
1
40
1
10
44.0581238926
20
38.07718584
30
0
10
44.1911834926
20
38.05933872
30
0
10
44.3176610926
20
38.0213004
30
0
10
44.3375239726
20
37.99251912
30
0
0
SPLINE
5
10C
100
AcDbEntity
8
yuyuko
6
ByLayer
62
7
370
-1
100
AcDbSpline
210
0
220
0
230
1
70
8
71
3
72
8
73
4
74
0
42
1e-07
43
1e-07
40
0
40
0
40
0
40
0
40
1
40
1
40
1
40
1
10
44.3375239726
20
37.99251912
30
0
10
44.3573861326
20
37.96373856
30
0
10
44.4725707726
20
37.89431736
30
0
10
44.5936406926
20
37.83800256
30
0
0
SPLINE
5
10D
100
AcDbEntity
8
yuyuko
6
ByLayer
62
7
370
-1
100
AcDbSpline
210
0
220
0
230
1
70
8
71
3
72
8
73
4
74
0
42
1e-07
43
1e-07
40
0
40
0
40
0
40
0
40
1
40
1
40
1
40
1
10
44.5936406926
20
37.83800256
30
0
10
44.7147106126
20
37.78168824
30
0
10
44.8662360526
20
37.66742424
30
0
10
44.9301905326
20
37.5861192
30
0
0
SPLINE
5
10E
100
AcDbEntity
8
yuyuko
6
ByLayer
62
7
370
-1
100
AcDbSpline
210
0
220
0
230
1
70
8
71
3
72
8
73
4
74
0
42
1e-07
43
1e-07
40
0
40
0
40
0
40
0
40
1
40
1
40
1
40
1
10
44.9301905326
20
37.5861192
30
0
10
44.9941445326
20
37.50481488
30
0
10
45.0656093326
20
37.44006912
30
0
10
45.0889406926
20
37.44006912
30
0
0
SPLINE
5
10F
100
AcDbEntity
8
yuyuko
6
ByLayer
62
7
370
-1
100
AcDbSpline
210
0
220
0
230
1
70
8
71
3
72
8
73
4
74
0
42
1e-07
43
1e-07
40
0
40
0
40
0
40
0
40
1
40
1
40
1
40
1
10
45.0889406926
20
37.44006912
30
0
10
45.1122734926
20
37.44006912
30
0
10
45.2135016526
20
37.36919784
30
0
10
45.3154238926
20
37.28343576
30
0
0
SPLINE
5
110
100
AcDbEntity
8
yuyuko
6
ByLayer
62
7
370
-1
100
AcDbSpline
210
0
220
0
230
1
70
8
71
3
72
8
73
4
74
0
42
1e-07
43
1e-07
40
0
40
0
40
0
40
0
40
1
40
1
40
1
40
1
10
45.3154238926
20
37.28343576
30
0
10
45.4886702926
20
37.13765808
30
0
10
45.5305253326
20
37.12972848
30
0
10
45.9504240526
20
37.15855248
30
0
0
SPLINE
5
111
100
AcDbEntity
8
yuyuko
6
ByLayer
62
7
370
-1
100
AcDbSpline
210
0
220
0
230
1
70
8
71
3
72
8
73
4
74
0
42
1e-07
43
1e-07
40
0
40
0
40
0
40
0
40
1
40
1
40
1
40
1
10
45.9504240526
20
37.15855248
30
0
10
46.4223823726
20
37.1909508
30
0
10
46.7861470126
20
37.33366152
30
0
10
47.0722572526
20
37.59881928
30
0
0
SPLINE
5
112
100
AcDbEntity
8
yuyuko
6
ByLayer
62
7
370
-1
100
AcDbSpline
210
0
220
0
230
1
70
8
71
3
72
8
73
4
74
0
42
1e-07
43
1e-07
40
0
40
0
40
0
40
0
40
1
40
1
40
1
40
1
10
47.0722572526
20
37.59881928
30
0
10
47.1546948526
20
37.6752204
30
0
10
47.2549070926
20
37.7364024
30
0
10
47.2945073326
20
37.7364024
30
0
0
SPLINE
5
113
100
AcDbEntity
8
yuyuko
6
ByLayer
62
7
370
-1
100
AcDbSpline
210
0
220
0
230
1
70
8
71
3
72
8
73
4
74
0
42
1e-07
43
1e-07
40
0
40
0
40
0
40
0
40
1
40
1
40
1
40
1
10
47.2945073326
20
37.7364024
30
0
10
47.3341075726
20
37.7364024
30
0
10
47.4330828526
20
37.80067272
30
0
10
47.5167574126
20
37.87821912
30
0
0
SPLINE
5
114
100
AcDbEntity
8
yuyuko
6
ByLayer
62
7
370
-1
100
AcDbSpline
210
0
220
0
230
1
70
8
71
3
72
8
73
4
74
0
42
1e-07
43
1e-07
40
0
40
0
40
0
40
0
40
1
40
1
40
1
40
1
10
47.5167574126
20
37.87821912
30
0
10
47.7393744526
20
38.08453416
30
0
10
48.1952299726
20
38.2923312
30
0
10
48.2978074126
20
38.2338192
30
0
0
SPLINE
5
115
100
AcDbEntity
8
yuyuko
6
ByLayer
62
7
370
-1
100
AcDbSpline
210
0
220
0
230
1
70
8
71
3
72
8
73
4
74
0
42
1e-07
43
1e-07
40
0
40
0
40
0
40
0
40
1
40
1
40
1
40
1
10
48.2978074126
20
38.2338192
30
0
10
48.4982878126
20
38.11946376
30
0
10
49.6482406126
20
37.05251664
30
0
10
49.6482406126
20
36.98075256
30
0
0
SPLINE
5
116
100
AcDbEntity
8
yuyuko
6
ByLayer
62
7
370
-1
100
AcDbSpline
210
0
220
0
230
1
70
8
71
3
72
8
73
4
74
0
42
1e-07
43
1e-07
40
0
40
0
40
0
40
0
40
1
40
1
40
1
40
1
10
49.6482406126
20
36.98075256
30
0
10
49.6482406126
20
36.90318288
30
0
10
49.9236816526
20
36.60398592
30
0
10
49.9953739726
20
36.60398592
30
0
0
SPLINE
5
117
100
AcDbEntity
8
yuyuko
6
ByLayer
62
7
370
-1
100
AcDbSpline
210
0
220
0
230
1
70
8
71
3
72
8
73
4
74
0
42
1e-07
43
1e-07
40
0
40
0
40
0
40
0
40
1
40
1
40
1
40
1
10
49.9953739726
20
36.60398592
30
0
10
50.0641613326
20
36.60398592
30
0
10
50.0761452526
20
36.66999744
30
0
10
50.0504074126
20
36.9193692
30
0
0
SPLINE
5
118
100
AcDbEntity
8
yuyuko
6
ByLayer
62
7
370
-1
100
AcDbSpline
210
0
220
0
230
1
70
8
71
3
72
8
73
4
74
0
42
1e-07
43
1e-07
40
0
40
0
40
0
40
0
40
1
40
1
40
1
40
1
10
50.0504074126
20
36.9193692
30
0
10
50.0177258926
20
37.23602448
30
0
10
49.8458722126
20
37.67713584
30
0
10
49.7561906926
20
37.67713584
30
0
0
SPLINE
5
119
100
AcDbEntity
8
yuyuko
6
ByLayer
62
7
370
-1
100
AcDbSpline
210
0
220
0
230
1
70
8
71
3
72
8
73
4
74
0
42
1e-07
43
1e-07
40
0
40
0
40
0
40
0
40
1
40
1
40
1
40
1
10
49.7561906926
20
37.67713584
30
0
10
49.7294786926
20
37.67713584
30
0
10
49.7075074126
20
37.71367464
30
0
10
49.7075074126
20
37.7575692
30
0
0
SPLINE
5
11A
100
AcDbEntity
8
yuyuko
6
ByLayer
62
7
370
-1
100
AcDbSpline
210
0
220
0
230
1
70
8
71
3
72
8
73
4
74
0
42
1e-07
43
1e-07
40
0
40
0
40
0
40
0
40
1
40
1
40
1
40
1
10
49.7075074126
20
37.7575692
30
0
10
49.7075074126
20
37.86345072
30
0
10
49.3968862126
20
38.2691556
30
0
10
49.3138073326
20
38.2719192
30
0
0
SPLINE
5
11B
100
AcDbEntity
8
yuyuko
6
ByLayer
62
7
370
-1
100
AcDbSpline
210
0
220
0
230
1
70
8
71
3
72
8
73
4
74
0
42
1e-07
43
1e-07
40
0
40
0
40
0
40
0
40
1
40
1
40
1
40
1
10
49.3138073326
20
38.2719192
30
0
10
49.2039473326
20
38.27557536
30
0
10
49.0754983726
20
38.46651576
30
0
10
48.9603240526
20
38.79473592
30
0
0
SPLINE
5
11C
100
AcDbEntity
8
yuyuko
6
ByLayer
62
7
370
-1
100
AcDbSpline
210
0
220
0
230
1
70
8
71
3
72
8
73
4
74
0
42
1e-07
43
1e-07
40
0
40
0
40
0
40
0
40
1
40
1
40
1
40
1
10
48.9603240526
20
38.79473592
30
0
10
48.8999287726
20
38.96684616
30
0
10
48.8305102126
20
39.1080024
30
0
10
48.8079240526
20
39.1080024
30
0
0
SPLINE
5
11D
100
AcDbEntity
8
yuyuko
6
ByLayer
62
7
370
-1
100
AcDbSpline
210
0
220
0
230
1
70
8
71
3
72
8
73
4
74
0
42
1e-07
43
1e-07
40
0
40
0
40
0
40
0
40
1
40
1
40
1
40
1
10
48.8079240526
20
39.1080024
30
0
10
48.7853383726
20
39.1080024
30
0
10
48.7544959726
20
39.18294936
30
0
10
48.7380739726
20
39.27310248
30
0
0
SPLINE
5
11E
100
AcDbEntity
8
yuyuko
6
ByLayer
62
7
370
-1
100
AcDbSpline
210
0
220
0
230
1
70
8
71
3
72
8
73
4
74
0
42
1e-07
43
1e-07
40
0
40
0
40
0
40
0
40
1
40
1
40
1
40
1
10
48.7380739726
20
39.27310248
30
0
10
48.6868154926
20
39.55450056
30
0
10
48.3151200526
20
40.7447244
30
0
10
48.2681738926
20
40.77805248
30
0
0
SPLINE
5
11F
100
AcDbEntity
8
yuyuko
6
ByLayer
62
7
370
-1
100
AcDbSpline
210
0
220
0
230
1
70
8
71
3
72
8
73
4
74
0
42
1e-07
43
1e-07
40
0
40
0
40
0
40
0
40
1
40
1
40
1
40
1
10
48.2681738926
20
40.77805248
30
0
10
48.2103108526
20
40.81913016
30
0
10
48.0520517326
20
41.38821816
30
0
10
47.8871738926
20
42.14753592
30
0
0
SPLINE
5
120
100
AcDbEntity
8
yuyuko
6
ByLayer
62
7
370
-1
100
AcDbSpline
210
0
220
0
230
1
70
8
71
3
72
8
73
4
74
0
42
1e-07
43
1e-07
40
0
40
0
40
0
40
0
40
1
40
1
40
1
40
1
10
47.8871738926
20
42.14753592
30
0
10
47.8622597326
20
42.26227608
30
0
10
47.8185518926
20
42.3711276
30
0
10
47.7919238926
20
42.38883576
30
0
0
SPLINE
5
121
100
AcDbEntity
8
yuyuko
6
ByLayer
62
7
370
-1
100
AcDbSpline
210
0
220
0
230
1
70
8
71
3
72
8
73
4
74
0
42
1e-07
43
1e-07
40
0
40
0
40
0
40
0
40
1
40
1
40
1
40
1
10
47.7919238926
20
42.38883576
30
0
10
47.7652958926
20
42.40654416
30
0
10
47.6568386926
20
42.8212752
30
0
10
47.5506240526
20
43.31170248
30
0
0
SPLINE
5
122
100
AcDbEntity
8
yuyuko
6
ByLayer
62
7
370
-1
100
AcDbSpline
210
0
220
0
230
1
70
8
71
3
72
8
73
4
74
0
42
1e-07
43
1e-07
40
0
40
0
40
0
40
0
40
1
40
1
40
1
40
1
10
47.5506240526
20
43.31170248
30
0
10
47.4444098926
20
43.80212976
30
0
10
47.3420114926
20
44.21817768
30
0
10
47.3220240526
20
44.2345692
30
0
0
SPLINE
5
123
100
AcDbEntity
8
yuyuko
6
ByLayer
62
7
370
-1
100
AcDbSpline
210
0
220
0
230
1
70
8
71
3
72
8
73
4
74
0
42
1e-07
43
1e-07
40
0
40
0
40
0
40
0
40
1
40
1
40
1
40
1
10
47.3220240526
20
44.2345692
30
0
10
47.2768200526
20
44.2716396
30
0
10
47.1352140526
20
45.0108636
30
0
10
46.9579572526
20
46.14168576
30
0
0
SPLINE
5
124
100
AcDbEntity
8
yuyuko
6
ByLayer
62
7
370
-1
100
AcDbSpline
210
0
220
0
230
1
70
8
71
3
72
8
73
4
74
0
42
1e-07
43
1e-07
40
0
40
0
40
0
40
0
40
1
40
1
40
1
40
1
10
46.9579572526
20
46.14168576
30
0
10
46.8834458926
20
46.6170384
30
0
10
46.8022032526
20
47.01552504
30
0
10
46.7759239726
20
47.02645248
30
0
0
SPLINE
5
125
100
AcDbEntity
8
yuyuko
6
ByLayer
62
7
370
-1
100
AcDbSpline
210
0
220
0
230
1
70
8
71
3
72
8
73
4
74
0
42
1e-07
43
1e-07
40
0
40
0
40
0
40
0
40
1
40
1
40
1
40
1
10
46.7759239726
20
47.02645248
30
0
10
46.7154665326
20
47.0515932
30
0
10
46.7114222926
20
47.39307264
30
0
10
46.7716906126
20
47.39051928
30
0
0
SPLINE
5
126
100
AcDbEntity
8
yuyuko
6
ByLayer
62
7
370
-1
100
AcDbSpline
210
0
220
0
230
1
70
8
71
3
72
8
73
4
74
0
42
1e-07
43
1e-07
40
0
40
0
40
0
40
0
40
1
40
1
40
1
40
1
10
46.7716906126
20
47.39051928
30
0
10
46.7962778926
20
47.389476
30
0
10
46.8689218126
20
47.34975048
30
0
10
46.9325573326
20
47.3016192
30
0
0
SPLINE
5
127
100
AcDbEntity
8
yuyuko
6
ByLayer
62
7
370
-1
100
AcDbSpline
210
0
220
0
230
1
70
8
71
3
72
8
73
4
74
0
42
1e-07
43
1e-07
40
0
40
0
40
0
40
0
40
1
40
1
40
1
40
1
10
46.9325573326
20
47.3016192
30
0
10
46.9961933326
20
47.2534872
30
0
10
47.1387430126
20
47.21483592
30
0
10
47.2500574126
20
47.21483592
30
0
0
SPLINE
5
128
100
AcDbEntity
8
yuyuko
6
ByLayer
62
7
370
-1
100
AcDbSpline
210
0
220
0
230
1
70
8
71
3
72
8
73
4
74
0
42
1e-07
43
1e-07
40
0
40
0
40
0
40
0
40
1
40
1
40
1
40
1
10
47.2500574126
20
47.21483592
30
0
10
47.4163589326
20
47.21483592
30
0
10
47.5086530926
20
47.27244168
30
0
10
47.7665239726
20
47.53656912
30
0
0
SPLINE
5
129
100
AcDbEntity
8
yuyuko
6
ByLayer
62
7
370
-1
100
AcDbSpline
210
0
220
0
230
1
70
8
71
3
72
8
73
4
74
0
42
1e-07
43
1e-07
40
0
40
0
40
0
40
0
40
1
40
1
40
1
40
1
10
47.7665239726
20
47.53656912
30
0
10
48.1668571726
20
47.94661536
30
0
10
48.2165849326
20
48.16813992
30
0
10
48.0078240526
20
48.62453592
30
0
0
SPLINE
5
12A
100
AcDbEntity
8
yuyuko
6
ByLayer
62
7
370
-1
100
AcDbSpline
210
0
220
0
230
1
70
8
71
3
72
8
73
4
74
0
42
1e-07
43
1e-07
40
0
40
0
40
0
40
0
40
1
40
1
40
1
40
1
10
48.0078240526
20
48.62453592
30
0
10
47.9275810126
20
48.79996584
30
0
10
47.8356425326
20
48.94203576
30
0
10
47.8046239726
20
48.94203576
30
0
0
SPLINE
5
12B
100
AcDbEntity
8
yuyuko
6
ByLayer
62
7
370
-1
100
AcDbSpline
210
0
220
0
230
1
70
8
71
3
72
8
73
4
74
0
42
1e-07
43
1e-07
40
0
40
0
40
0
40
0
40
1
40
1
40
1
40
1
10
47.8046239726
20
48.94203576
30
0
10
47.7736054126
20
48.94203576
30
0
10
47.7315674926
20
49.00374096
30
0
10
47.7093739726
20
49.07750256
30
0
0
SPLINE
5
12C
100
AcDbEntity
8
yuyuko
6
ByLayer
62
7
370
-1
100
AcDbSpline
210
0
220
0
230
1
70
8
71
3
72
8
73
4
74
0
42
1e-07
43
1e-07
40
0
40
0
40
0
40
0
40
1
40
1
40
1
40
1
10
47.7093739726
20
49.07750256
30
0
10
47.6324952526
20
49.3330068
30
0
10
47.3584286926
20
49.89665256
30
0
10
47.3114405326
20
49.89665256
30
0
0
SPLINE
5
12D
100
AcDbEntity
8
yuyuko
6
ByLayer
62
7
370
-1
100
AcDbSpline
210
0
220
0
230
1
70
8
71
3
72
8
73
4
74
0
42
1e-07
43
1e-07
40
0
40
0
40
0
40
0
40
1
40
1
40
1
40
1
10
47.3114405326
20
49.89665256
30
0
10
47.2854797326
20
49.89665256
30
0
10
47.2648740526
20
49.92170376
30
0
10
47.2648740526
20
49.95168576
30
0
0
SPLINE
5
12E
100
AcDbEntity
8
yuyuko
6
ByLayer
62
7
370
-1
100
AcDbSpline
210
0
220
0
230
1
70
8
71
3
72
8
73
4
74
0
42
1e-07
43
1e-07
40
0
40
0
40
0
40
0
40
1
40
1
40
1
40
1
10
47.2648740526
20
49.95168576
30
0
10
47.2648740526
20
50.05480776
30
0
10
46.8953806126
20
50.97312408
30
0
10
46.8246072526
20
51.04600248
30
0
0
SPLINE
5
12F
100
AcDbEntity
8
yuyuko
6
ByLayer
62
7
370
-1
100
AcDbSpline
210
0
220
0
230
1
70
8
71
3
72
8
73
4
74
0
42
1e-07
43
1e-07
40
0
40
0
40
0
40
0
40
1
40
1
40
1
40
1
10
46.8246072526
20
51.04600248
30
0
10
46.7344997326
20
51.13879032
30
0
10
46.6087073326
20
51.55981752
30
0
10
46.6087073326
20
51.76990248
30
0
0
SPLINE
5
130
100
AcDbEntity
8
yuyuko
6
ByLayer
62
7
370
-1
100
AcDbSpline
210
0
220
0
230
1
70
8
71
3
72
8
73
4
74
0
42
1e-07
43
1e-07
40
0
40
0
40
0
40
0
40
1
40
1
40
1
40
1
10
46.6087073326
20
51.76990248
30
0
10
46.6087073326
20
51.93527208
30
0
10
46.7040480526
20
52.16475192
30
0
10
46.7992073326
20
52.22710248
30
0
0
SPLINE
5
131
100
AcDbEntity
8
yuyuko
6
ByLayer
62
7
370
-1
100
AcDbSpline
210
0
220
0
230
1
70
8
71
3
72
8
73
4
74
0
42
1e-07
43
1e-07
40
0
40
0
40
0
40
0
40
1
40
1
40
1
40
1
10
46.7992073326
20
52.22710248
30
0
10
46.8287424526
20
52.24645464
30
0
10
46.9204051726
20
52.5001668
30
0
10
47.0024074126
20
52.79225256
30
0
0
SPLINE
5
132
100
AcDbEntity
8
yuyuko
6
ByLayer
62
7
370
-1
100
AcDbSpline
210
0
220
0
230
1
70
8
71
3
72
8
73
4
74
0
42
1e-07
43
1e-07
40
0
40
0
40
0
40
0
40
1
40
1
40
1
40
1
10
47.0024074126
20
52.79225256
30
0
10
47.1440335726
20
53.29671672
30
0
10
47.1495686926
20
53.38282488
30
0
10
47.1251738926
20
54.51521928
30
0
0
SPLINE
5
133
100
AcDbEntity
8
yuyuko
6
ByLayer
62
7
370
-1
100
AcDbSpline
210
0
220
0
230
1
70
8
71
3
72
8
73
4
74
0
42
1e-07
43
1e-07
40
0
40
0
40
0
40
0
40
1
40
1
40
1
40
1
10
47.1251738926
20
54.51521928
30
0
10
47.1051187726
20
55.44612456
30
0
10
47.0723690926
20
55.83198912
30
0
10
46.9727738926
20
56.2741692
30
0
0
SPLINE
5
134
100
AcDbEntity
8
yuyuko
6
ByLayer
62
7
370
-1
100
AcDbSpline
210
0
220
0
230
1
70
8
71
3
72
8
73
4
74
0
42
1e-07
43
1e-07
40
0
40
0
40
0
40
0
40
1
40
1
40
1
40
1
10
46.9727738926
20
56.2741692
30
0
10
46.9026266926
20
56.58560712
30
0
10
46.8186799726
20
56.8495584
30
0
10
46.7865072526
20
56.86048584
30
0
0
SPLINE
5
135
100
AcDbEntity
8
yuyuko
6
ByLayer
62
7
370
-1
100
AcDbSpline
210
0
220
0
230
1
70
8
71
3
72
8
73
4
74
0
42
1e-07
43
1e-07
40
0
40
0
40
0
40
0
40
1
40
1
40
1
40
1
10
46.7865072526
20
56.86048584
30
0
10
46.7543345326
20
56.871414
30
0
10
46.7272406926
20
56.92734816
30
0
10
46.7272406926
20
56.98536912
30
0
0
SPLINE
5
136
100
AcDbEntity
8
yuyuko
6
ByLayer
62
7
370
-1
100
AcDbSpline
210
0
220
0
230
1
70
8
71
3
72
8
73
4
74
0
42
1e-07
43
1e-07
40
0
40
0
40
0
40
0
40
1
40
1
40
1
40
1
10
46.7272406926
20
56.98536912
30
0
10
46.7272406926
20
57.04339032
30
0
10
46.6578965326
20
57.27573792
30
0
10
46.5727238926
20
57.50183592
30
0
0
SPLINE
5
137
100
AcDbEntity
8
yuyuko
6
ByLayer
62
7
370
-1
100
AcDbSpline
210
0
220
0
230
1
70
8
71
3
72
8
73
4
74
0
42
1e-07
43
1e-07
40
0
40
0
40
0
40
0
40
1
40
1
40
1
40
1
10
46.5727238926
20
57.50183592
30
0
10
46.4875512526
20
57.7279332
30
0
10
46.4034557326
20
57.97417416
30
0
10
46.3864572526
20
58.04793576
30
0
0
SPLINE
5
138
100
AcDbEntity
8
yuyuko
6
ByLayer
62
7
370
-1
100
AcDbSpline
210
0
220
0
230
1
70
8
71
3
72
8
73
4
74
0
42
1e-07
43
1e-07
40
0
40
0
40
0
40
0
40
1
40
1
40
1
40
1
10
46.3864572526
20
58.04793576
30
0
10
46.3694590126
20
58.12169736
30
0
10
46.3376081326
20
58.18128576
30
0
10
46.3144906126
20
58.18128576
30
0
0
SPLINE
5
139
100
AcDbEntity
8
yuyuko
6
ByLayer
62
7
370
-1
100
AcDbSpline
210
0
220
0
230
1
70
8
71
3
72
8
73
4
74
0
42
1e-07
43
1e-07
40
0
40
0
40
0
40
0
40
1
40
1
40
1
40
1
10
46.3144906126
20
58.18128576
30
0
10
46.2913733326
20
58.18128576
30
0
10
46.2087391726
20
58.31941512
30
0
10
46.1324573326
20
58.48820256
30
0
0
SPLINE
5
13A
100
AcDbEntity
8
yuyuko
6
ByLayer
62
7
370
-1
100
AcDbSpline
210
0
220
0
230
1
70
8
71
3
72
8
73
4
74
0
42
1e-07
43
1e-07
40
0
40
0
40
0
40
0
40
1
40
1
40
1
40
1
10
46.1324573326
20
58.48820256
30
0
10
46.0561747726
20
58.65699
30
0
10
45.9521213326
20
58.8395388
30
0
10
45.8996239726
20
58.89248592
30
0
0
SPLINE
5
13B
100
AcDbEntity
8
yuyuko
6
ByLayer
62
7
370
-1
100
AcDbSpline
210
0
220
0
230
1
70
8
71
3
72
8
73
4
74
0
42
1e-07
43
1e-07
40
0
40
0
40
0
40
0
40
1
40
1
40
1
40
1
10
45.8996239726
20
58.89248592
30
0
10
45.8471266126
20
58.94543232
30
0
10
45.7710634126
20
59.05439568
30
0
10
45.7302905326
20
59.13590256
30
0
0
SPLINE
5
13C
100
AcDbEntity
8
yuyuko
6
ByLayer
62
7
370
-1
100
AcDbSpline
210
0
220
0
230
1
70
8
71
3
72
8
73
4
74
0
42
1e-07
43
1e-07
40
0
40
0
40
0
40
0
40
1
40
1
40
1
40
1
10
45.7302905326
20
59.13590256
30
0
10
45.4709023726
20
59.6544492
30
0
10
45.4233557326
20
59.711142
30
0
10
44.4814572526
20
60.64720248
30
0
0
SPLINE
5
13D
100
AcDbEntity
8
yuyuko
6
ByLayer
62
7
370
-1
100
AcDbSpline
210
0
220
0
230
1
70
8
71
3
72
8
73
4
74
0
42
1e-07
43
1e-07
40
0
40
0
40
0
40
0
40
1
40
1
40
1
40
1
10
44.4814572526
20
60.64720248
30
0
10
43.6263653326
20
61.49699472
30
0
10
43.4584068526
20
61.6508964
30
0
10
43.2918905326
20
61.73728584
30
0
0
SPLINE
5
13E
100
AcDbEntity
8
yuyuko
6
ByLayer
62
7
370
-1
100
AcDbSpline
210
0
220
0
230
1
70
8
71
3
72
8
73
4
74
0
42
1e-07
43
1e-07
40
0
40
0
40
0
40
0
40
1
40
1
40
1
40
1
10
43.2918905326
20
61.73728584
30
0
10
42.9976610926
20
61.889934
30
0
10
42.7615102126
20
62.02907568
30
0
10
42.7330906126
20
62.0653692
30
0
0
SPLINE
5
13F
100
AcDbEntity
8
yuyuko
6
ByLayer
62
7
370
-1
100
AcDbSpline
210
0
220
0
230
1
70
8
71
3
72
8
73
4
74
0
42
1e-07
43
1e-07
40
0
40
0
40
0
40
0
40
1
40
1
40
1
40
1
10
42.7330906126
20
62.0653692
30
0
10
42.6882701326
20
62.12260896
30
0
10
41.9273585326
20
62.47388592
30
0
10
41.8483238926
20
62.47388592
30
0
0
SPLINE
5
140
100
AcDbEntity
8
yuyuko
6
ByLayer
62
7
370
-1
100
AcDbSpline
210
0
220
0
230
1
70
8
71
3
72
8
73
4
74
0
42
1e-07
43
1e-07
40
0
40
0
40
0
40
0
40
1
40
1
40
1
40
1
10
41.8483238926
20
62.47388592
30
0
10
41.8105200526
20
62.47388592
30
0
10
41.7805906126
20
62.49834552
30
0
10
41.7805906126
20
62.52891912
30
0
0
SPLINE
5
141
100
AcDbEntity
8
yuyuko
6
ByLayer
62
7
370
-1
100
AcDbSpline
210
0
220
0
230
1
70
8
71
3
72
8
73
4
74
0
42
1e-07
43
1e-07
40
0
40
0
40
0
40
0
40
1
40
1
40
1
40
1
10
41.7805906126
20
62.52891912
30
0
10
41.7805906126
20
62.55949296
30
0
10
41.7262894126
20
62.60099424
30
0
10
41.6599406926
20
62.62205256
30
0
0
SPLINE
5
142
100
AcDbEntity
8
yuyuko
6
ByLayer
62
7
370
-1
100
AcDbSpline
210
0
220
0
230
1
70
8
71
3
72
8
73
4
74
0
42
1e-07
43
1e-07
40
0
40
0
40
0
40
0
40
1
40
1
40
1
40
1
10
41.6599406926
20
62.62205256
30
0
10
41.5802950126
20
62.64733104
30
0
10
41.5138980526
20
62.75059944
30
0
10
41.4673238926
20
62.92473576
30
0
0
SPLINE
5
143
100
AcDbEntity
8
yuyuko
6
ByLayer
62
7
370
-1
100
AcDbSpline
210
0
220
0
230
1
70
8
71
3
72
8
73
4
74
0
42
1e-07
43
1e-07
40
0
40
0
40
0
40
0
40
1
40
1
40
1
40
1
10
41.4673238926
20
62.92473576
30
0
10
41.4285250126
20
63.06980136
30
0
10
41.3791426126
20
63.1893192
30
0
10
41.3572572526
20
63.1893192
30
0
0
SPLINE
5
144
100
AcDbEntity
8
yuyuko
6
ByLayer
62
7
370
-1
100
AcDbSpline
210
0
220
0
230
1
70
8
71
3
72
8
73
4
74
0
42
1e-07
43
1e-07
40
0
40
0
40
0
40
0
40
1
40
1
40
1
40
1
10
41.3572572526
20
63.1893192
30
0
10
41.3353714126
20
63.1893192
30
0
10
41.3018196526
20
63.27539136
30
0
10
41.2810572526
20
63.38193576
30
0
0
SPLINE
5
145
100
AcDbEntity
8
yuyuko
6
ByLayer
62
7
370
-1
100
AcDbSpline
210
0
220
0
230
1
70
8
71
3
72
8
73
4
74
0
42
1e-07
43
1e-07
40
0
40
0
40
0
40
0
40
1
40
1
40
1
40
1
10
41.2810572526
20
63.38193576
30
0
10
41.2168042126
20
63.71166264
30
0
10
40.9350096526
20
64.5588024
30
0
10
40.8894739726
20
64.5588024
30
0
0
SPLINE
5
146
100
AcDbEntity
8
yuyuko
6
ByLayer
62
7
370
-1
100
AcDbSpline
210
0
220
0
230
1
70
8
71
3
72
8
73
4
74
0
42
1e-07
43
1e-07
40
0
40
0
40
0
40
0
40
1
40
1
40
1
40
1
10
40.8894739726
20
64.5588024
30
0
10
40.8657326926
20
64.5588024
30
0
10
40.7427046126
20
64.7881476
30
0
10
40.6185406126
20
65.06680248
30
0
0
SPLINE
5
147
100
AcDbEntity
8
yuyuko
6
ByLayer
62
7
370
-1
100
AcDbSpline
210
0
220
0
230
1
70
8
71
3
72
8
73
4
74
0
42
1e-07
43
1e-07
40
0
40
0
40
0
40
0
40
1
40
1
40
1
40
1
10
40.6185406126
20
65.06680248
30
0
10
40.4685994126
20
65.40330792
30
0
10
40.3539079726
20
65.57600784
30
0
10
40.2798739726
20
65.57903592
30
0
0
LWPOLYLINE
5
148
100
AcDbEntity
8
yuyuko
6
ByLayer
62
7
370
-1
100
AcDbPolyline
90
3
70
0
43
0
10
20.6964739726
20
19.47591912
10
20.6647238926
20
19.2007524
10
32.1455239726
20
19.2007524
0
SPLINE
5
149
100
AcDbEntity
8
yuyuko
6
ByLayer
62
7
370
-1
100
AcDbSpline
210
0
220
0
230
1
70
8
71
3
72
8
73
4
74
0
42
1e-07
43
1e-07
40
0
40
0
40
0
40
0
40
1
40
1
40
1
40
1
10
42.2018074126
20
38.6719692
30
0
10
42.4575677326
20
38.6730984
30
0
10
42.7716878926
20
38.59913352
30
0
10
42.8791406926
20
38.49628584
30
0
0
SPLINE
5
14A
100
AcDbEntity
8
yuyuko
6
ByLayer
62
7
370
-1
100
AcDbSpline
210
0
220
0
230
1
70
8
71
3
72
8
73
4
74
0
42
1e-07
43
1e-07
40
0
40
0
40
0
40
0
40
1
40
1
40
1
40
1
10
42.8791406926
20
38.49628584
30
0
10
42.9220042126
20
38.45525976
30
0
10
43.0148748526
20
38.38363512
30
0
10
43.0844573326
20
38.33541912
30
0
0
SPLINE
5
14B
100
AcDbEntity
8
yuyuko
6
ByLayer
62
7
370
-1
100
AcDbSpline
210
0
220
0
230
1
70
8
71
3
72
8
73
4
74
0
42
1e-07
43
1e-07
40
0
40
0
40
0
40
0
40
1
40
1
40
1
40
1
10
43.0844573326
20
38.33541912
30
0
10
43.1920063726
20
38.26089552
30
0
10
43.2114574126
20
38.18878608
30
0
10
43.2114574126
20
37.8507024
30
0
0
SPLINE
5
14C
100
AcDbEntity
8
yuyuko
6
ByLayer
62
7
370
-1
100
AcDbSpline
210
0
220
0
230
1
70
8
71
3
72
8
73
4
74
0
42
1e-07
43
1e-07
40
0
40
0
40
0
40
0
40
1
40
1
40
1
40
1
10
43.2114574126
20
37.8507024
30
0
10
43.2114574126
20
37.54303608
30
0
10
43.1891460526
20
37.44477456
30
0
10
43.1162074126
20
37.41678576
30
0
0
SPLINE
5
14D
100
AcDbEntity
8
yuyuko
6
ByLayer
62
7
370
-1
100
AcDbSpline
210
0
220
0
230
1
70
8
71
3
72
8
73
4
74
0
42
1e-07
43
1e-07
40
0
40
0
40
0
40
0
40
1
40
1
40
1
40
1
10
43.1162074126
20
37.41678576
30
0
10
43.0643520526
20
37.3968864
30
0
10
42.9782798926
20
37.38323064
30
0
10
42.9235906126
20
37.38715248
30
0
0
SPLINE
5
14E
100
AcDbEntity
8
yuyuko
6
ByLayer
62
7
370
-1
100
AcDbSpline
210
0
220
0
230
1
70
8
71
3
72
8
73
4
74
0
42
1e-07
43
1e-07
40
0
40
0
40
0
40
0
40
1
40
1
40
1
40
1
10
42.9235906126
20
37.38715248
30
0
10
42.7361758126
20
37.40058744
30
0
10
41.5119677326
20
37.70055048
30
0
10
41.4821405326
20
37.74063576
30
0
0
SPLINE
5
14F
100
AcDbEntity
8
yuyuko
6
ByLayer
62
7
370
-1
100
AcDbSpline
210
0
220
0
230
1
70
8
71
3
72
8
73
4
74
0
42
1e-07
43
1e-07
40
0
40
0
40
0
40
0
40
1
40
1
40
1
40
1
10
41.4821405326
20
37.74063576
30
0
10
41.4657492526
20
37.76266488
30
0
10
41.2255334926
20
37.83523704
30
0
10
40.9487405326
20
37.89938592
30
0
0
SPLINE
5
150
100
AcDbEntity
8
yuyuko
6
ByLayer
62
7
370
-1
100
AcDbSpline
210
0
220
0
230
1
70
8
71
3
72
8
73
4
74
0
42
1e-07
43
1e-07
40
0
40
0
40
0
40
0
40
1
40
1
40
1
40
1
10
40.9487405326
20
37.89938592
30
0
10
40.6719478126
20
37.9635348
30
0
10
40.4392512526
20
38.04066264
30
0
10
40.4301574126
20
38.07083592
30
0
0
SPLINE
5
151
100
AcDbEntity
8
yuyuko
6
ByLayer
62
7
370
-1
100
AcDbSpline
210
0
220
0
230
1
70
8
71
3
72
8
73
4
74
0
42
1e-07
43
1e-07
40
0
40
0
40
0
40
0
40
1
40
1
40
1
40
1
10
41.2239072526
20
38.45395248
30
0
10
41.2621536526
20
38.45355024
30
0
10
41.3042918926
20
38.48343888
30
0
10
41.3170406926
20
38.52168576
30
0
0
SPLINE
5
152
100
AcDbEntity
8
yuyuko
6
ByLayer
62
7
370
-1
100
AcDbSpline
210
0
220
0
230
1
70
8
71
3
72
8
73
4
74
0
42
1e-07
43
1e-07
40
0
40
0
40
0
40
0
40
1
40
1
40
1
40
1
10
41.3170406926
20
38.52168576
30
0
10
41.3297899726
20
38.55993216
30
0
10
41.4327216526
20
38.5889856
30
0
10
41.5456406926
20
38.58518592
30
0
0
SPLINE
5
153
100
AcDbEntity
8
yuyuko
6
ByLayer
62
7
370
-1
100
AcDbSpline
210
0
220
0
230
1
70
8
71
3
72
8
73
4
74
0
42
1e-07
43
1e-07
40
0
40
0
40
0
40
0
40
1
40
1
40
1
40
1
10
41.5456406926
20
38.58518592
30
0
10
41.6585594926
20
38.58138936
30
0
10
41.8517045326
20
38.60786424
30
0
10
41.9753239726
20
38.64445248
30
0
0
SPLINE
5
154
100
AcDbEntity
8
yuyuko
6
ByLayer
62
7
370
-1
100
AcDbSpline
210
0
220
0
230
1
70
8
71
3
72
8
73
4
74
0
42
1e-07
43
1e-07
40
0
40
0
40
0
40
0
40
1
40
1
40
1
40
1
10
41.9753239726
20
38.64445248
30
0
10
42.0374016526
20
38.66282592
30
0
10
42.1165541326
20
38.67159264
30
0
10
42.2018074126
20
38.6719692
30
0
0
LWPOLYLINE
5
155
100
AcDbEntity
8
yuyuko
6
ByLayer
62
7
370
-1
100
AcDbPolyline
90
2
70
0
43
0
10
40.2798739726
20
65.57903592
10
40.2798739726
20
65.57903592
0
SPLINE
5
156
100
AcDbEntity
8
yuyuko
6
ByLayer
62
7
370
-1
100
AcDbSpline
210
0
220
0
230
1
70
8
71
3
72
8
73
4
74
0
42
1e-07
43
1e-07
40
0
40
0
40
0
40
0
40
1
40
1
40
1
40
1
10
53.8392406126
20
35.62608576
30
0
10
52.6050730126
20
35.62254744
30
0
10
51.4191773326
20
35.5642656
30
0
10
50.9944406926
20
35.45886912
30
0
0
LWPOLYLINE
5
157
100
AcDbEntity
8
yuyuko
6
ByLayer
62
7
370
-1
100
AcDbPolyline
90
2
70
0
43
0
10
42.2018074126
20
38.6719692
10
42.2018074126
20
38.6719692
0
SPLINE
5
158
100
AcDbEntity
8
yuyuko
6
ByLayer
62
7
370
-1
100
AcDbSpline
210
0
220
0
230
1
70
8
71
3
72
8
73
4
74
0
42
1e-07
43
1e-07
40
0
40
0
40
0
40
0
40
1
40
1
40
1
40
1
10
50.7425573326
20
34.4598024
30
0
10
50.7640985326
20
33.95089224
30
0
10
50.8070162926
20
33.387042
30
0
10
50.8378073326
20
33.20673576
30
0
0
SPLINE
5
159
100
AcDbEntity
8
yuyuko
6
ByLayer
62
7
370
-1
100
AcDbSpline
210
0
220
0
230
1
70
8
71
3
72
8
73
4
74
0
42
1e-07
43
1e-07
40
0
40
0
40
0
40
0
40
1
40
1
40
1
40
1
10
50.8378073326
20
33.20673576
30
0
10
50.8685981326
20
33.02642976
30
0
10
50.9254440526
20
32.51026776
30
0
10
50.9648074126
20
32.0595024
30
0
0
SPLINE
5
15A
100
AcDbEntity
8
yuyuko
6
ByLayer
62
7
370
-1
100
AcDbSpline
210
0
220
0
230
1
70
8
71
3
72
8
73
4
74
0
42
1e-07
43
1e-07
40
0
40
0
40
0
40
0
40
1
40
1
40
1
40
1
10
50.9648074126
20
32.0595024
30
0
10
51.0041705326
20
31.60873728
30
0
10
51.0563508526
20
31.2403524
30
0
10
51.0812239726
20
31.2403524
30
0
0
SPLINE
5
15B
100
AcDbEntity
8
yuyuko
6
ByLayer
62
7
370
-1
100
AcDbSpline
210
0
220
0
230
1
70
8
71
3
72
8
73
4
74
0
42
1e-07
43
1e-07
40
0
40
0
40
0
40
0
40
1
40
1
40
1
40
1
10
51.0812239726
20
31.2403524
30
0
10
51.1060970926
20
31.2403524
30
0
10
51.1434614926
20
31.00650312
30
0
10
51.1637738926
20
30.71965248
30
0
0
SPLINE
5
15C
100
AcDbEntity
8
yuyuko
6
ByLayer
62
7
370
-1
100
AcDbSpline
210
0
220
0
230
1
70
8
71
3
72
8
73
4
74
0
42
1e-07
43
1e-07
40
0
40
0
40
0
40
0
40
1
40
1
40
1
40
1
10
51.1637738926
20
30.71965248
30
0
10
51.1840858126
20
30.43280184
30
0
10
51.2262653326
20
30.04905864
30
0
10
51.2569073326
20
29.8687524
30
0
0
SPLINE
5
15D
100
AcDbEntity
8
yuyuko
6
ByLayer
62
7
370
-1
100
AcDbSpline
210
0
220
0
230
1
70
8
71
3
72
8
73
4
74
0
42
1e-07
43
1e-07
40
0
40
0
40
0
40
0
40
1
40
1
40
1
40
1
10
51.2569073326
20
29.8687524
30
0
10
51.2875490926
20
29.6884464
30
0
10
51.3593669326
20
29.04437016
30
0
10
51.4156572526
20
28.43788584
30
0
0
SPLINE
5
15E
100
AcDbEntity
8
yuyuko
6
ByLayer
62
7
370
-1
100
AcDbSpline
210
0
220
0
230
1
70
8
71
3
72
8
73
4
74
0
42
1e-07
43
1e-07
40
0
40
0
40
0
40
0
40
1
40
1
40
1
40
1
10
51.4156572526
20
28.43788584
30
0
10
51.4719485326
20
27.83140152
30
0
10
51.5344567726
20
27.32186064
30
0
10
51.5553574126
20
27.30546912
30
0
0
SPLINE
5
15F
100
AcDbEntity
8
yuyuko
6
ByLayer
62
7
370
-1
100
AcDbSpline
210
0
220
0
230
1
70
8
71
3
72
8
73
4
74
0
42
1e-07
43
1e-07
40
0
40
0
40
0
40
0
40
1
40
1
40
1
40
1
10
51.5553574126
20
27.30546912
30
0
10
51.5762585326
20
27.2890776
30
0
10
51.6403193326
20
26.79277872
30
0
10
51.6971738926
20
26.20268592
30
0
0
SPLINE
5
160
100
AcDbEntity
8
yuyuko
6
ByLayer
62
7
370
-1
100
AcDbSpline
210
0
220
0
230
1
70
8
71
3
72
8
73
4
74
0
42
1e-07
43
1e-07
40
0
40
0
40
0
40
0
40
1
40
1
40
1
40
1
10
51.6971738926
20
26.20268592
30
0
10
51.7540286926
20
25.61259312
30
0
10
51.8256466126
20
24.95739168
30
0
10
51.8559240526
20
24.7443024
30
0
0
SPLINE
5
161
100
AcDbEntity
8
yuyuko
6
ByLayer
62
7
370
-1
100
AcDbSpline
210
0
220
0
230
1
70
8
71
3
72
8
73
4
74
0
42
1e-07
43
1e-07
40
0
40
0
40
0
40
0
40
1
40
1
40
1
40
1
10
51.8559240526
20
24.7443024
30
0
10
51.8862022126
20
24.53121336
30
0
10
51.9273595726
20
24.12760752
30
0
10
51.9490572526
20
23.8489524
30
0
0
SPLINE
5
162
100
AcDbEntity
8
yuyuko
6
ByLayer
62
7
370
-1
100
AcDbSpline
210
0
220
0
230
1
70
8
71
3
72
8
73
4
74
0
42
1e-07
43
1e-07
40
0
40
0
40
0
40
0
40
1
40
1
40
1
40
1
10
51.9490572526
20
23.8489524
30
0
10
51.9707556526
20
23.57029752
30
0
10
52.0084805326
20
23.32982736
30
0
10
52.0316074126
20
23.31343584
30
0
0
SPLINE
5
163
100
AcDbEntity
8
yuyuko
6
ByLayer
62
7
370
-1
100
AcDbSpline
210
0
220
0
230
1
70
8
71
3
72
8
73
4
74
0
42
1e-07
43
1e-07
40
0
40
0
40
0
40
0
40
1
40
1
40
1
40
1
10
52.0316074126
20
23.31343584
30
0
10
52.0712508526
20
23.28533808
30
0
10
52.2228917326
20
22.02697656
30
0
10
52.3300572526
20
20.8390524
30
0
0
SPLINE
5
164
100
AcDbEntity
8
yuyuko
6
ByLayer
62
7
370
-1
100
AcDbSpline
210
0
220
0
230
1
70
8
71
3
72
8
73
4
74
0
42
1e-07
43
1e-07
40
0
40
0
40
0
40
0
40
1
40
1
40
1
40
1
10
52.3300572526
20
20.8390524
30
0
10
52.3566737326
20
20.544006
30
0
10
52.4083826926
20
20.1445752
30
0
10
52.4443572526
20
19.95005256
30
0
0
SPLINE
5
165
100
AcDbEntity
8
yuyuko
6
ByLayer
62
7
370
-1
100
AcDbSpline
210
0
220
0
230
1
70
8
71
3
72
8
73
4
74
0
42
1e-07
43
1e-07
40
0
40
0
40
0
40
0
40
1
40
1
40
1
40
1
10
52.4443572526
20
19.95005256
30
0
10
52.4803310926
20
19.75552992
30
0
10
52.5099739726
20
19.50632208
30
0
10
52.5099739726
20
19.39760256
30
0
0
LWPOLYLINE
5
166
100
AcDbEntity
8
yuyuko
6
ByLayer
62
7
370
-1
100
AcDbPolyline
90
3
70
0
43
0
10
50.9944406926
20
35.45886912
10
50.7044573326
20
35.38478592
10
50.7425573326
20
34.4598024
0
SPLINE
5
167
100
AcDbEntity
8
yuyuko
6
ByLayer
62
7
370
-1
100
AcDbSpline
210
0
220
0
230
1
70
8
71
3
72
8
73
4
74
0
42
1e-07
43
1e-07
40
0
40
0
40
0
40
0
40
1
40
1
40
1
40
1
10
58.3752574126
20
19.33198584
30
0
10
58.4258873326
20
19.40427144
30
0
10
58.5134623726
20
19.5983952
30
0
10
58.5678739726
20
19.76378592
30
0
0
SPLINE
5
168
100
AcDbEntity
8
yuyuko
6
ByLayer
62
7
370
-1
100
AcDbSpline
210
0
220
0
230
1
70
8
71
3
72
8
73
4
74
0
42
1e-07
43
1e-07
40
0
40
0
40
0
40
0
40
1
40
1
40
1
40
1
10
58.5678739726
20
19.76378592
30
0
10
58.6222855726
20
19.92917712
30
0
10
58.6814186926
20
20.07759432
30
0
10
58.7012239726
20
20.09398584
30
0
0
SPLINE
5
169
100
AcDbEntity
8
yuyuko
6
ByLayer
62
7
370
-1
100
AcDbSpline
210
0
220
0
230
1
70
8
71
3
72
8
73
4
74
0
42
1e-07
43
1e-07
40
0
40
0
40
0
40
0
40
1
40
1
40
1
40
1
10
58.7012239726
20
20.09398584
30
0
10
58.7565437326
20
20.13977016
30
0
10
58.8830866126
20
20.40091944
30
0
10
58.9446406126
20
20.59986912
30
0
0
SPLINE
5
16A
100
AcDbEntity
8
yuyuko
6
ByLayer
62
7
370
-1
100
AcDbSpline
210
0
220
0
230
1
70
8
71
3
72
8
73
4
74
0
42
1e-07
43
1e-07
40
0
40
0
40
0
40
0
40
1
40
1
40
1
40
1
10
58.9446406126
20
20.59986912
30
0
10
59.0559936526
20
20.95977288
30
0
10
59.1944981326
20
21.31523688
30
0
10
59.2367405326
20
21.34493592
30
0
0
SPLINE
5
16B
100
AcDbEntity
8
yuyuko
6
ByLayer
62
7
370
-1
100
AcDbSpline
210
0
220
0
230
1
70
8
71
3
72
8
73
4
74
0
42
1e-07
43
1e-07
40
0
40
0
40
0
40
0
40
1
40
1
40
1
40
1
10
59.2367405326
20
21.34493592
30
0
10
59.2605780526
20
21.3616944
30
0
10
59.3704190926
20
21.61715616
30
0
10
59.4801574126
20
21.91220256
30
0
0
SPLINE
5
16C
100
AcDbEntity
8
yuyuko
6
ByLayer
62
7
370
-1
100
AcDbSpline
210
0
220
0
230
1
70
8
71
3
72
8
73
4
74
0
42
1e-07
43
1e-07
40
0
40
0
40
0
40
0
40
1
40
1
40
1
40
1
10
59.4801574126
20
21.91220256
30
0
10
59.5898954926
20
22.20724896
30
0
10
59.6985072526
20
22.46096112
30
0
10
59.7214572526
20
22.4773524
30
0
0
SPLINE
5
16D
100
AcDbEntity
8
yuyuko
6
ByLayer
62
7
370
-1
100
AcDbSpline
210
0
220
0
230
1
70
8
71
3
72
8
73
4
74
0
42
1e-07
43
1e-07
40
0
40
0
40
0
40
0
40
1
40
1
40
1
40
1
10
59.7214572526
20
22.4773524
30
0
10
59.7444067726
20
22.49374392
30
0
10
59.8185456526
20
22.67086992
30
0
10
59.8865573326
20
22.86893592
30
0
0
SPLINE
5
16E
100
AcDbEntity
8
yuyuko
6
ByLayer
62
7
370
-1
100
AcDbSpline
210
0
220
0
230
1
70
8
71
3
72
8
73
4
74
0
42
1e-07
43
1e-07
40
0
40
0
40
0
40
0
40
1
40
1
40
1
40
1
10
59.8865573326
20
22.86893592
30
0
10
60.0459067726
20
23.33299992
30
0
10
60.1459210126
20
23.55050256
30
0
10
60.1998240526
20
23.55050256
30
0
0
SPLINE
5
16F
100
AcDbEntity
8
yuyuko
6
ByLayer
62
7
370
-1
100
AcDbSpline
210
0
220
0
230
1
70
8
71
3
72
8
73
4
74
0
42
1e-07
43
1e-07
40
0
40
0
40
0
40
0
40
1
40
1
40
1
40
1
10
60.1998240526
20
23.55050256
30
0
10
60.2235230926
20
23.55050256
30
0
10
60.2569685326
20
23.61220752
30
0
10
60.2739072526
20
23.68596912
30
0
0
SPLINE
5
170
100
AcDbEntity
8
yuyuko
6
ByLayer
62
7
370
-1
100
AcDbSpline
210
0
220
0
230
1
70
8
71
3
72
8
73
4
74
0
42
1e-07
43
1e-07
40
0
40
0
40
0
40
0
40
1
40
1
40
1
40
1
10
60.2739072526
20
23.68596912
30
0
10
60.2908466926
20
23.75973072
30
0
10
60.3633348526
20
23.96709648
30
0
10
60.4347739726
20
24.14740248
30
0
0
SPLINE
5
171
100
AcDbEntity
8
yuyuko
6
ByLayer
62
7
370
-1
100
AcDbSpline
210
0
220
0
230
1
70
8
71
3
72
8
73
4
74
0
42
1e-07
43
1e-07
40
0
40
0
40
0
40
0
40
1
40
1
40
1
40
1
10
60.4347739726
20
24.14740248
30
0
10
60.5062123726
20
24.32770872
30
0
10
60.5914315726
20
24.561558
30
0
10
60.6231574126
20
24.6681024
30
0
0
SPLINE
5
172
100
AcDbEntity
8
yuyuko
6
ByLayer
62
7
370
-1
100
AcDbSpline
210
0
220
0
230
1
70
8
71
3
72
8
73
4
74
0
42
1e-07
43
1e-07
40
0
40
0
40
0
40
0
40
1
40
1
40
1
40
1
10
60.6231574126
20
24.6681024
30
0
10
60.6548822926
20
24.77464704
30
0
10
60.7034186926
20
24.86283576
30
0
10
60.7311072526
20
24.86283576
30
0
0
SPLINE
5
173
100
AcDbEntity
8
yuyuko
6
ByLayer
62
7
370
-1
100
AcDbSpline
210
0
220
0
230
1
70
8
71
3
72
8
73
4
74
0
42
1e-07
43
1e-07
40
0
40
0
40
0
40
0
40
1
40
1
40
1
40
1
10
60.7311072526
20
24.86283576
30
0
10
60.7587953326
20
24.86283576
30
0
10
60.7981699726
20
24.93566616
30
0
10
60.8200073326
20
25.02581928
30
0
0
SPLINE
5
174
100
AcDbEntity
8
yuyuko
6
ByLayer
62
7
370
-1
100
AcDbSpline
210
0
220
0
230
1
70
8
71
3
72
8
73
4
74
0
42
1e-07
43
1e-07
40
0
40
0
40
0
40
0
40
1
40
1
40
1
40
1
10
60.8200073326
20
25.02581928
30
0
10
60.8720081326
20
25.24050936
30
0
10
61.1551294126
20
25.95697968
30
0
10
61.2031238926
20
25.99525248
30
0
0
SPLINE
5
175
100
AcDbEntity
8
yuyuko
6
ByLayer
62
7
370
-1
100
AcDbSpline
210
0
220
0
230
1
70
8
71
3
72
8
73
4
74
0
42
1e-07
43
1e-07
40
0
40
0
40
0
40
0
40
1
40
1
40
1
40
1
10
61.2031238926
20
25.99525248
30
0
10
61.2420490126
20
26.02629192
30
0
10
61.3098785326
20
26.1974412
30
0
10
61.5206239726
20
26.79958584
30
0
0
SPLINE
5
176
100
AcDbEntity
8
yuyuko
6
ByLayer
62
7
370
-1
100
AcDbSpline
210
0
220
0
230
1
70
8
71
3
72
8
73
4
74
0
42
1e-07
43
1e-07
40
0
40
0
40
0
40
0
40
1
40
1
40
1
40
1
10
61.5206239726
20
26.79958584
30
0
10
61.5894667726
20
26.99628336
30
0
10
61.6683809326
20
27.17203656
30
0
10
61.6941905326
20
27.18905256
30
0
0
SPLINE
5
177
100
AcDbEntity
8
yuyuko
6
ByLayer
62
7
370
-1
100
AcDbSpline
210
0
220
0
230
1
70
8
71
3
72
8
73
4
74
0
42
1e-07
43
1e-07
40
0
40
0
40
0
40
0
40
1
40
1
40
1
40
1
10
61.6941905326
20
27.18905256
30
0
10
61.7200010926
20
27.20606928
30
0
10
61.8251422126
20
27.4540884
30
0
10
61.9291406926
20
27.74150256
30
0
0
SPLINE
5
178
100
AcDbEntity
8
yuyuko
6
ByLayer
62
7
370
-1
100
AcDbSpline
210
0
220
0
230
1
70
8
71
3
72
8
73
4
74
0
42
1e-07
43
1e-07
40
0
40
0
40
0
40
0
40
1
40
1
40
1
40
1
10
61.9291406926
20
27.74150256
30
0
10
62.0331396526
20
28.02891744
30
0
10
62.1489806926
20
28.29649584
30
0
10
62.1873739726
20
28.33628592
30
0
0
SPLINE
5
179
100
AcDbEntity
8
yuyuko
6
ByLayer
62
7
370
-1
100
AcDbSpline
210
0
220
0
230
1
70
8
71
3
72
8
73
4
74
0
42
1e-07
43
1e-07
40
0
40
0
40
0
40
0
40
1
40
1
40
1
40
1
10
62.1873739726
20
28.33628592
30
0
10
62.2257665326
20
28.37607504
30
0
10
62.2878475726
20
28.50306216
30
0
10
62.3249573326
20
28.61780256
30
0
0
SPLINE
5
17A
100
AcDbEntity
8
yuyuko
6
ByLayer
62
7
370
-1
100
AcDbSpline
210
0
220
0
230
1
70
8
71
3
72
8
73
4
74
0
42
1e-07
43
1e-07
40
0
40
0
40
0
40
0
40
1
40
1
40
1
40
1
10
62.3249573326
20
28.61780256
30
0
10
62.4528763726
20
29.01331632
30
0
10
62.6389406926
20
29.47278816
30
0
10
62.6847905326
20
29.5068024
30
0
0
SPLINE
5
17B
100
AcDbEntity
8
yuyuko
6
ByLayer
62
7
370
-1
100
AcDbSpline
210
0
220
0
230
1
70
8
71
3
72
8
73
4
74
0
42
1e-07
43
1e-07
40
0
40
0
40
0
40
0
40
1
40
1
40
1
40
1
10
62.6847905326
20
29.5068024
30
0
10
62.7309542926
20
29.5410492
30
0
10
62.7788830126
20
29.65407432
30
0
10
63.0192240526
20
30.31536912
30
0
0
SPLINE
5
17C
100
AcDbEntity
8
yuyuko
6
ByLayer
62
7
370
-1
100
AcDbSpline
210
0
220
0
230
1
70
8
71
3
72
8
73
4
74
0
42
1e-07
43
1e-07
40
0
40
0
40
0
40
0
40
1
40
1
40
1
40
1
10
63.0192240526
20
30.31536912
30
0
10
63.0907111726
20
30.51206688
30
0
10
63.1669123726
20
30.68218848
30
0
10
63.1885572526
20
30.69213576
30
0
0
SPLINE
5
17D
100
AcDbEntity
8
yuyuko
6
ByLayer
62
7
370
-1
100
AcDbSpline
210
0
220
0
230
1
70
8
71
3
72
8
73
4
74
0
42
1e-07
43
1e-07
40
0
40
0
40
0
40
0
40
1
40
1
40
1
40
1
10
63.1885572526
20
30.69213576
30
0
10
63.2102014126
20
30.70208256
30
0
10
63.3291838126
20
30.9976368
30
0
10
63.4531406926
20
31.34830248
30
0
0
SPLINE
5
17E
100
AcDbEntity
8
yuyuko
6
ByLayer
62
7
370
-1
100
AcDbSpline
210
0
220
0
230
1
70
8
71
3
72
8
73
4
74
0
42
1e-07
43
1e-07
40
0
40
0
40
0
40
0
40
1
40
1
40
1
40
1
10
63.4531406926
20
31.34830248
30
0
10
63.5770966126
20
31.69896744
30
0
10
63.6942720526
20
31.99866096
30
0
10
63.7134905326
20
32.01505248
30
0
0
SPLINE
5
17F
100
AcDbEntity
8
yuyuko
6
ByLayer
62
7
370
-1
100
AcDbSpline
210
0
220
0
230
1
70
8
71
3
72
8
73
4
74
0
42
1e-07
43
1e-07
40
0
40
0
40
0
40
0
40
1
40
1
40
1
40
1
10
63.7134905326
20
32.01505248
30
0
10
63.7548254926
20
32.05030848
30
0
10
63.9170854126
20
32.43294288
30
0
10
64.0182905326
20
32.73471912
30
0
0
SPLINE
5
180
100
AcDbEntity
8
yuyuko
6
ByLayer
62
7
370
-1
100
AcDbSpline
210
0
220
0
230
1
70
8
71
3
72
8
73
4
74
0
42
1e-07
43
1e-07
40
0
40
0
40
0
40
0
40
1
40
1
40
1
40
1
10
64.0182905326
20
32.73471912
30
0
10
64.0587329326
20
32.8553076
30
0
10
64.0723817326
20
33.04108032
30
0
10
64.0500406126
20
33.16016928
30
0
0
SPLINE
5
181
100
AcDbEntity
8
yuyuko
6
ByLayer
62
7
370
-1
100
AcDbSpline
210
0
220
0
230
1
70
8
71
3
72
8
73
4
74
0
42
1e-07
43
1e-07
40
0
40
0
40
0
40
0
40
1
40
1
40
1
40
1
10
64.0500406126
20
33.16016928
30
0
10
64.0143559726
20
33.35038536
30
0
10
63.9731038126
20
33.3879828
30
0
10
63.6394073326
20
33.53270256
30
0
0
SPLINE
5
182
100
AcDbEntity
8
yuyuko
6
ByLayer
62
7
370
-1
100
AcDbSpline
210
0
220
0
230
1
70
8
71
3
72
8
73
4
74
0
42
1e-07
43
1e-07
40
0
40
0
40
0
40
0
40
1
40
1
40
1
40
1
10
63.6394073326
20
33.53270256
30
0
10
63.4356883726
20
33.62105256
30
0
10
63.2561822926
20
33.71162832
30
0
10
63.2393573326
20
33.73378584
30
0
0
SPLINE
5
183
100
AcDbEntity
8
yuyuko
6
ByLayer
62
7
370
-1
100
AcDbSpline
210
0
220
0
230
1
70
8
71
3
72
8
73
4
74
0
42
1e-07
43
1e-07
40
0
40
0
40
0
40
0
40
1
40
1
40
1
40
1
10
63.2393573326
20
33.73378584
30
0
10
63.2027542126
20
33.78199224
30
0
10
62.9288561326
20
33.8870712
30
0
10
62.4032738926
20
34.05551928
30
0
0
SPLINE
5
184
100
AcDbEntity
8
yuyuko
6
ByLayer
62
7
370
-1
100
AcDbSpline
210
0
220
0
230
1
70
8
71
3
72
8
73
4
74
0
42
1e-07
43
1e-07
40
0
40
0
40
0
40
0
40
1
40
1
40
1
40
1
10
62.4032738926
20
34.05551928
30
0
10
62.1901848526
20
34.12381392
30
0
10
62.0008344526
20
34.20273552
30
0
10
61.9820573326
20
34.2312024
30
0
0
SPLINE
5
185
100
AcDbEntity
8
yuyuko
6
ByLayer
62
7
370
-1
100
AcDbSpline
210
0
220
0
230
1
70
8
71
3
72
8
73
4
74
0
42
1e-07
43
1e-07
40
0
40
0
40
0
40
0
40
1
40
1
40
1
40
1
10
61.9820573326
20
34.2312024
30
0
10
61.9632802126
20
34.25967024
30
0
10
61.6147584526
20
34.37911728
30
0
10
61.2073572526
20
34.4979024
30
0
0
SPLINE
5
186
100
AcDbEntity
8
yuyuko
6
ByLayer
62
7
370
-1
100
AcDbSpline
210
0
220
0
230
1
70
8
71
3
72
8
73
4
74
0
42
1e-07
43
1e-07
40
0
40
0
40
0
40
0
40
1
40
1
40
1
40
1
10
61.2073572526
20
34.4979024
30
0
10
60.7999562926
20
34.61668776
30
0
10
60.4532820526
20
34.73101632
30
0
10
60.4368905326
20
34.75190256
30
0
0
SPLINE
5
187
100
AcDbEntity
8
yuyuko
6
ByLayer
62
7
370
-1
100
AcDbSpline
210
0
220
0
230
1
70
8
71
3
72
8
73
4
74
0
42
1e-07
43
1e-07
40
0
40
0
40
0
40
0
40
1
40
1
40
1
40
1
10
60.4368905326
20
34.75190256
30
0
10
60.4204992526
20
34.77278952
30
0
10
60.2727218926
20
34.82172
30
0
10
60.1088074126
20
34.8598524
30
0
0
SPLINE
5
188
100
AcDbEntity
8
yuyuko
6
ByLayer
62
7
370
-1
100
AcDbSpline
210
0
220
0
230
1
70
8
71
3
72
8
73
4
74
0
42
1e-07
43
1e-07
40
0
40
0
40
0
40
0
40
1
40
1
40
1
40
1
10
60.1088074126
20
34.8598524
30
0
10
59.9448926926
20
34.89798504
30
0
10
59.5783550926
20
34.98513
30
0
10
59.2938905326
20
35.0524692
30
0
0
SPLINE
5
189
100
AcDbEntity
8
yuyuko
6
ByLayer
62
7
370
-1
100
AcDbSpline
210
0
220
0
230
1
70
8
71
3
72
8
73
4
74
0
42
1e-07
43
1e-07
40
0
40
0
40
0
40
0
40
1
40
1
40
1
40
1
10
59.2938905326
20
35.0524692
30
0
10
59.0094276526
20
35.11980768
30
0
10
58.6955112526
20
35.17523592
30
0
10
58.5975072526
20
35.17523592
30
0
0
SPLINE
5
18A
100
AcDbEntity
8
yuyuko
6
ByLayer
62
7
370
-1
100
AcDbSpline
210
0
220
0
230
1
70
8
71
3
72
8
73
4
74
0
42
1e-07
43
1e-07
40
0
40
0
40
0
40
0
40
1
40
1
40
1
40
1
10
58.5975072526
20
35.17523592
30
0
10
58.4995032526
20
35.17523592
30
0
10
58.4115854926
20
35.198868
30
0
10
58.4006573326
20
35.23026912
30
0
0
SPLINE
5
18B
100
AcDbEntity
8
yuyuko
6
ByLayer
62
7
370
-1
100
AcDbSpline
210
0
220
0
230
1
70
8
71
3
72
8
73
4
74
0
42
1e-07
43
1e-07
40
0
40
0
40
0
40
0
40
1
40
1
40
1
40
1
10
58.4006573326
20
35.23026912
30
0
10
58.3807375726
20
35.28750864
30
0
10
57.4765639726
20
35.42767392
30
0
10
56.4723739726
20
35.5287192
30
0
0
SPLINE
5
18C
100
AcDbEntity
8
yuyuko
6
ByLayer
62
7
370
-1
100
AcDbSpline
210
0
220
0
230
1
70
8
71
3
72
8
73
4
74
0
42
1e-07
43
1e-07
40
0
40
0
40
0
40
0
40
1
40
1
40
1
40
1
10
56.4723739726
20
35.5287192
30
0
10
55.7885585326
20
35.59752672
30
0
10
54.7991486926
20
35.62883784
30
0
10
53.8392406126
20
35.62608576
30
0
0
LWPOLYLINE
5
18D
100
AcDbEntity
8
yuyuko
6
ByLayer
62
7
370
-1
100
AcDbPolyline
90
5
70
0
43
0
10
52.5099739726
20
19.39760256
10
52.5099739726
20
19.2007524
10
55.3971072526
20
19.2007524
10
58.2842405326
20
19.2007524
10
58.3752574126
20
19.33198584
0
SPLINE
5
18E
100
AcDbEntity
8
yuyuko
6
ByLayer
62
7
370
-1
100
AcDbSpline
210
0
220
0
230
1
70
8
71
3
72
8
73
4
74
0
42
1e-07
43
1e-07
40
0
40
0
40
0
40
0
40
1
40
1
40
1
40
1
10
44.2295738926
20
22.53873576
30
0
10
44.3107922926
20
22.53873576
30
0
10
44.2963406926
20
20.77446336
30
0
10
44.2126406926
20
20.48768592
30
0
0
SPLINE
5
18F
100
AcDbEntity
8
yuyuko
6
ByLayer
62
7
370
-1
100
AcDbSpline
210
0
220
0
230
1
70
8
71
3
72
8
73
4
74
0
42
1e-07
43
1e-07
40
0
40
0
40
0
40
0
40
1
40
1
40
1
40
1
10
44.2126406926
20
20.48768592
30
0
10
44.1732576526
20
20.35275024
30
0
10
44.1233633326
20
20.22891072
30
0
10
44.1025740526
20
20.2125192
30
0
0
SPLINE
5
190
100
AcDbEntity
8
yuyuko
6
ByLayer
62
7
370
-1
100
AcDbSpline
210
0
220
0
230
1
70
8
71
3
72
8
73
4
74
0
42
1e-07
43
1e-07
40
0
40
0
40
0
40
0
40
1
40
1
40
1
40
1
10
44.1025740526
20
20.2125192
30
0
10
44.0817852526
20
20.19612768
30
0
10
44.0325674926
20
20.1299184
30
0
10
43.9925074126
20
20.06435256
30
0
0
SPLINE
5
191
100
AcDbEntity
8
yuyuko
6
ByLayer
62
7
370
-1
100
AcDbSpline
210
0
220
0
230
1
70
8
71
3
72
8
73
4
74
0
42
1e-07
43
1e-07
40
0
40
0
40
0
40
0
40
1
40
1
40
1
40
1
10
43.9925074126
20
20.06435256
30
0
10
43.9285562926
20
19.95968544
30
0
10
43.9238100526
20
19.97008608
30
0
10
43.9522906126
20
20.1532524
30
0
0
SPLINE
5
192
100
AcDbEntity
8
yuyuko
6
ByLayer
62
7
370
-1
100
AcDbSpline
210
0
220
0
230
1
70
8
71
3
72
8
73
4
74
0
42
1e-07
43
1e-07
40
0
40
0
40
0
40
0
40
1
40
1
40
1
40
1
10
43.9522906126
20
20.1532524
30
0
10
44.0359534126
20
20.69130912
30
0
10
44.1006917326
20
21.31139976
30
0
10
44.1364406926
20
21.89738592
30
0
0
SPLINE
5
193
100
AcDbEntity
8
yuyuko
6
ByLayer
62
7
370
-1
100
AcDbSpline
210
0
220
0
230
1
70
8
71
3
72
8
73
4
74
0
42
1e-07
43
1e-07
40
0
40
0
40
0
40
0
40
1
40
1
40
1
40
1
10
44.1364406926
20
21.89738592
30
0
10
44.1579398926
20
22.2498024
30
0
10
44.1999461326
20
22.53873576
30
0
10
44.2295738926
20
22.53873576
30
0
0
LWPOLYLINE
5
194
100
AcDbEntity
8
yuyuko
6
ByLayer
62
7
370
-1
100
AcDbPolyline
90
2
70
0
43
0
10
53.8392406126
20
35.62608576
10
53.8392406126
20
35.62608576
0
LWPOLYLINE
5
195
100
AcDbEntity
8
yuyuko
6
ByLayer
62
7
370
-1
100
AcDbPolyline
90
2
70
0
43
0
10
44.2295738926
20
22.53873576
10
44.2295738926
20
22.53873576
0
SPLINE
5
196
100
AcDbEntity
8
yuyuko
6
ByLayer
62
7
370
-1
100
AcDbSpline
210
0
220
0
230
1
70
8
71
3
72
8
73
4
74
0
42
1e-07
43
1e-07
40
0
40
0
40
0
40
0
40
1
40
1
40
1
40
1
10
40.4301574126
20
38.07083592
30
0
10
40.4134548526
20
38.12624928
30
0
10
41.0951767726
20
38.45530728
30
0
10
41.2239072526
20
38.45395248
30
0
0
SPLINE
5
197
100
AcDbEntity
8
name
6
ByLayer
62
7
370
-1
100
AcDbSpline
210
0
220
0
230
1
70
8
71
3
72
8
73
4
74
0
42
1e-07
43
1e-07
40
0
40
0
40
0
40
0
40
1
40
1
40
1
40
1
10
14.1299836348
20
41.0888493217
30
0
10
13.4371084348
20
41.5521885217
30
0
10
12.2717876348
20
42.1873701217
30
0
10
11.5005820348
20
42.5220589217
30
0
0
SPLINE
5
198
100
AcDbEntity
8
name
6
ByLayer
62
7
370
-1
100
AcDbSpline
210
0
220
0
230
1
70
8
71
3
72
8
73
4
74
0
42
1e-07
43
1e-07
40
0
40
0
40
0
40
0
40
1
40
1
40
1
40
1
10
11.5005820348
20
42.5220589217
30
0
10
11.3426916348
20
42.5905797217
30
0
10
11.2083468348
20
42.6511301217
30
0
10
11.2020380348
20
42.6566149217
30
0
0
SPLINE
5
199
100
AcDbEntity
8
name
6
ByLayer
62
7
370
-1
100
AcDbSpline
210
0
220
0
230
1
70
8
71
3
72
8
73
4
74
0
42
1e-07
43
1e-07
40
0
40
0
40
0
40
0
40
1
40
1
40
1
40
1
10
11.2020380348
20
42.6566149217
30
0
10
11.1957284348
20
42.6620989217
30
0
10
11.2554684348
20
42.7977501217
30
0
10
11.3347932348
20
42.9580629217
30
0
0
SPLINE
5
19A
100
AcDbEntity
8
name
6
ByLayer
62
7
370
-1
100
AcDbSpline
210
0
220
0
230
1
70
8
71
3
72
8
73
4
74
0
42
1e-07
43
1e-07
40
0
40
0
40
0
40
0
40
1
40
1
40
1
40
1
10
11.3347932348
20
42.9580629217
30
0
10
11.5024644348
20
43.2969197217
30
0
10
11.4248300348
20
43.2935109217
30
0
10
12.1130044348
20
42.9922333217
30
0
0
SPLINE
5
19B
100
AcDbEntity
8
name
6
ByLayer
62
7
370
-1
100
AcDbSpline
210
0
220
0
230
1
70
8
71
3
72
8
73
4
74
0
42
1e-07
43
1e-07
40
0
40
0
40
0
40
0
40
1
40
1
40
1
40
1
10
12.1130044348
20
42.9922333217
30
0
10
12.3761540348
20
42.8770285217
30
0
10
12.6373308348
20
42.7640429217
30
0
10
12.6933972348
20
42.7411557217
30
0
0
SPLINE
5
19C
100
AcDbEntity
8
name
6
ByLayer
62
7
370
-1
100
AcDbSpline
210
0
220
0
230
1
70
8
71
3
72
8
73
4
74
0
42
1e-07
43
1e-07
40
0
40
0
40
0
40
0
40
1
40
1
40
1
40
1
10
12.6933972348
20
42.7411557217
30
0
10
12.7863500348
20
42.7032093217
30
0
10
12.8217748348
20
42.7194085217
30
0
10
13.0952996348
20
42.9249373217
30
0
0
SPLINE
5
19D
100
AcDbEntity
8
name
6
ByLayer
62
7
370
-1
100
AcDbSpline
210
0
220
0
230
1
70
8
71
3
72
8
73
4
74
0
42
1e-07
43
1e-07
40
0
40
0
40
0
40
0
40
1
40
1
40
1
40
1
10
13.0952996348
20
42.9249373217
30
0
10
13.4635084348
20
43.2016149217
30
0
10
14.0758588348
20
43.7894501217
30
0
10
14.3705980348
20
44.1491813217
30
0
0
SPLINE
5
19E
100
AcDbEntity
8
name
6
ByLayer
62
7
370
-1
100
AcDbSpline
210
0
220
0
230
1
70
8
71
3
72
8
73
4
74
0
42
1e-07
43
1e-07
40
0
40
0
40
0
40
0
40
1
40
1
40
1
40
1
10
14.3705980348
20
44.1491813217
30
0
10
14.7711372348
20
44.6380413217
30
0
10
15.2260116348
20
45.4121821217
30
0
10
15.3104860348
20
45.7487565217
30
0
0
SPLINE
5
19F
100
AcDbEntity
8
name
6
ByLayer
62
7
370
-1
100
AcDbSpline
210
0
220
0
230
1
70
8
71
3
72
8
73
4
74
0
42
1e-07
43
1e-07
40
0
40
0
40
0
40
0
40
1
40
1
40
1
40
1
10
11.7491116348
20
45.6898061217
30
0
10
11.6369436348
20
45.5178773217
30
0
10
10.8405004348
20
44.4563397217
30
0
10
10.6822884348
20
44.2678925217
30
0
0
LWPOLYLINE
5
1A0
100
AcDbEntity
8
name
6
ByLayer
62
7
370
-1
100
AcDbPolyline
90
5
70
0
43
0
10
15.3104860348
20
45.7487565217
10
15.3365196348
20
45.8524805217
10
13.5958812348
20
45.8524805217
10
11.8552420348
20
45.8524805217
10
11.7491116348
20
45.6898061217
0
SPLINE
5
1A1
100
AcDbEntity
8
name
6
ByLayer
62
7
370
-1
100
AcDbSpline
210
0
220
0
230
1
70
8
71
3
72
8
73
4
74
0
42
1e-07
43
1e-07
40
0
40
0
40
0
40
0
40
1
40
1
40
1
40
1
10
10.3080412348
20
44.3595821217
30
0
10
10.1534356348
20
44.4710325217
30
0
10
10.0207452348
20
44.5673445217
30
0
10
10.0131732348
20
44.5736093217
30
0
0
SPLINE
5
1A2
100
AcDbEntity
8
name
6
ByLayer
62
7
370
-1
100
AcDbSpline
210
0
220
0
230
1
70
8
71
3
72
8
73
4
74
0
42
1e-07
43
1e-07
40
0
40
0
40
0
40
0
40
1
40
1
40
1
40
1
10
10.0131732348
20
44.5736093217
30
0
10
10.0056004348
20
44.5798733217
30
0
10
10.1460852348
20
44.7719605217
30
0
10
10.3253604348
20
45.0004685217
30
0
0
SPLINE
5
1A3
100
AcDbEntity
8
name
6
ByLayer
62
7
370
-1
100
AcDbSpline
210
0
220
0
230
1
70
8
71
3
72
8
73
4
74
0
42
1e-07
43
1e-07
40
0
40
0
40
0
40
0
40
1
40
1
40
1
40
1
10
10.3253604348
20
45.0004685217
30
0
10
10.9768180348
20
45.8308309217
30
0
10
11.5743076348
20
46.7674061217
30
0
10
12.0200292348
20
47.6568909217
30
0
0
LWPOLYLINE
5
1A4
100
AcDbEntity
8
name
6
ByLayer
62
7
370
-1
100
AcDbPolyline
90
3
70
0
43
0
10
10.6822884348
20
44.2678925217
10
10.5891420348
20
44.1569453217
10
10.3080412348
20
44.3595821217
0
SPLINE
5
1A5
100
AcDbEntity
8
name
6
ByLayer
62
7
370
-1
100
AcDbSpline
210
0
220
0
230
1
70
8
71
3
72
8
73
4
74
0
42
1e-07
43
1e-07
40
0
40
0
40
0
40
0
40
1
40
1
40
1
40
1
10
12.5538236348
20
47.9572493217
30
0
10
12.7113612348
20
47.8509437217
30
0
10
12.8402556348
20
47.7474653217
30
0
10
12.8402556348
20
47.7272965217
30
0
0
SPLINE
5
1A6
100
AcDbEntity
8
name
6
ByLayer
62
7
370
-1
100
AcDbSpline
210
0
220
0
230
1
70
8
71
3
72
8
73
4
74
0
42
1e-07
43
1e-07
40
0
40
0
40
0
40
0
40
1
40
1
40
1
40
1
10
12.8402556348
20
47.7272965217
30
0
10
12.8402556348
20
47.7071277217
30
0
10
12.7153788348
20
47.4363685217
30
0
10
12.5627516348
20
47.1256093217
30
0
0
SPLINE
5
1A7
100
AcDbEntity
8
name
6
ByLayer
62
7
370
-1
100
AcDbSpline
210
0
220
0
230
1
70
8
71
3
72
8
73
4
74
0
42
1e-07
43
1e-07
40
0
40
0
40
0
40
0
40
1
40
1
40
1
40
1
10
12.5627516348
20
47.1256093217
30
0
10
12.4101244348
20
46.8148509217
30
0
10
12.2795060348
20
46.5476757217
30
0
10
12.2724892348
20
46.5318861217
30
0
0
SPLINE
5
1A8
100
AcDbEntity
8
name
6
ByLayer
62
7
370
-1
100
AcDbSpline
210
0
220
0
230
1
70
8
71
3
72
8
73
4
74
0
42
1e-07
43
1e-07
40
0
40
0
40
0
40
0
40
1
40
1
40
1
40
1
10
12.2724892348
20
46.5318861217
30
0
10
12.2654716348
20
46.5160981217
30
0
10
13.1246868348
20
46.5031789217
30
0
10
14.1818564348
20
46.5031789217
30
0
0
LWPOLYLINE
5
1A9
100
AcDbEntity
8
name
6
ByLayer
62
7
370
-1
100
AcDbPolyline
90
3
70
0
43
0
10
12.0200292348
20
47.6568909217
10
12.2673924348
20
48.1505309217
10
12.5538236348
20
47.9572493217
0
SPLINE
5
1AA
100
AcDbEntity
8
name
6
ByLayer
62
7
370
-1
100
AcDbSpline
210
0
220
0
230
1
70
8
71
3
72
8
73
4
74
0
42
1e-07
43
1e-07
40
0
40
0
40
0
40
0
40
1
40
1
40
1
40
1
10
16.0858740348
20
46.1271005217
30
0
10
16.0687100348
20
45.7706581217
30
0
10
16.0575556348
20
45.7296509217
30
0
10
15.8722316348
20
45.3416925217
30
0
0
SPLINE
5
1AB
100
AcDbEntity
8
name
6
ByLayer
62
7
370
-1
100
AcDbSpline
210
0
220
0
230
1
70
8
71
3
72
8
73
4
74
0
42
1e-07
43
1e-07
40
0
40
0
40
0
40
0
40
1
40
1
40
1
40
1
10
15.8722316348
20
45.3416925217
30
0
10
15.6306132348
20
44.8358853217
30
0
10
15.2440276348
20
44.1900237217
30
0
10
14.9601356348
20
43.8178693217
30
0
0
SPLINE
5
1AC
100
AcDbEntity
8
name
6
ByLayer
62
7
370
-1
100
AcDbSpline
210
0
220
0
230
1
70
8
71
3
72
8
73
4
74
0
42
1e-07
43
1e-07
40
0
40
0
40
0
40
0
40
1
40
1
40
1
40
1
10
14.9601356348
20
43.8178693217
30
0
10
14.6960404348
20
43.4716677217
30
0
10
14.1828236348
20
42.9439293217
30
0
10
13.7863956348
20
42.6109181217
30
0
0
LWPOLYLINE
5
1AD
100
AcDbEntity
8
name
6
ByLayer
62
7
370
-1
100
AcDbPolyline
90
3
70
0
43
0
10
14.1818564348
20
46.5031789217
10
16.1039836348
20
46.5031789217
10
16.0858740348
20
46.1271005217
0
SPLINE
5
1AE
100
AcDbEntity
8
name
6
ByLayer
62
7
370
-1
100
AcDbSpline
210
0
220
0
230
1
70
8
71
3
72
8
73
4
74
0
42
1e-07
43
1e-07
40
0
40
0
40
0
40
0
40
1
40
1
40
1
40
1
10
14.7458116348
20
41.1676637217
30
0
10
14.6196380348
20
40.9970253217
30
0
10
14.5129892348
20
40.8536285217
30
0
10
14.5088132348
20
40.8490037217
30
0
0
SPLINE
5
1AF
100
AcDbEntity
8
name
6
ByLayer
62
7
370
-1
100
AcDbSpline
210
0
220
0
230
1
70
8
71
3
72
8
73
4
74
0
42
1e-07
43
1e-07
40
0
40
0
40
0
40
0
40
1
40
1
40
1
40
1
10
14.5088132348
20
40.8490037217
30
0
10
14.5046364348
20
40.8443805217
30
0
10
14.3341644348
20
40.9523101217
30
0
10
14.1299836348
20
41.0888493217
30
0
0
LWPOLYLINE
5
1B0
100
AcDbEntity
8
name
6
ByLayer
62
7
370
-1
100
AcDbPolyline
90
5
70
0
43
0
10
13.7863956348
20
42.6109181217
10
13.4885540348
20
42.3607221217
10
14.2318860348
20
41.9193189217
10
14.9752172348
20
41.4779157217
10
14.7458116348
20
41.1676637217
0
SPLINE
5
1B1
100
AcDbEntity
8
name
6
ByLayer
62
7
370
-1
100
AcDbSpline
210
0
220
0
230
1
70
8
71
3
72
8
73
4
74
0
42
1e-07
43
1e-07
40
0
40
0
40
0
40
0
40
1
40
1
40
1
40
1
10
11.9488812348
20
31.5184637217
30
0
10
11.7638788348
20
31.5482709217
30
0
10
11.5983700348
20
31.5814021217
30
0
10
11.5810828348
20
31.5920853217
30
0
0
SPLINE
5
1B2
100
AcDbEntity
8
name
6
ByLayer
62
7
370
-1
100
AcDbSpline
210
0
220
0
230
1
70
8
71
3
72
8
73
4
74
0
42
1e-07
43
1e-07
40
0
40
0
40
0
40
0
40
1
40
1
40
1
40
1
10
11.5810828348
20
31.5920853217
30
0
10
11.5637948348
20
31.6027645217
30
0
10
11.5380388348
20
31.7103165217
30
0
10
11.5238452348
20
31.8310781217
30
0
0
SPLINE
5
1B3
100
AcDbEntity
8
name
6
ByLayer
62
7
370
-1
100
AcDbSpline
210
0
220
0
230
1
70
8
71
3
72
8
73
4
74
0
42
1e-07
43
1e-07
40
0
40
0
40
0
40
0
40
1
40
1
40
1
40
1
10
11.5238452348
20
31.8310781217
30
0
10
11.5096524348
20
31.9518397217
30
0
10
11.4888028348
20
32.0874469217
30
0
10
11.4775132348
20
32.1324261217
30
0
0
SPLINE
5
1B4
100
AcDbEntity
8
name
6
ByLayer
62
7
370
-1
100
AcDbSpline
210
0
220
0
230
1
70
8
71
3
72
8
73
4
74
0
42
1e-07
43
1e-07
40
0
40
0
40
0
40
0
40
1
40
1
40
1
40
1
10
11.4775132348
20
32.1324261217
30
0
10
11.4571860348
20
32.2134173217
30
0
10
11.4593300348
20
32.2137109217
30
0
10
11.6988740348
20
32.1628021217
30
0
0
SPLINE
5
1B5
100
AcDbEntity
8
name
6
ByLayer
62
7
370
-1
100
AcDbSpline
210
0
220
0
230
1
70
8
71
3
72
8
73
4
74
0
42
1e-07
43
1e-07
40
0
40
0
40
0
40
0
40
1
40
1
40
1
40
1
10
11.6988740348
20
32.1628021217
30
0
10
11.9748284348
20
32.1041517217
30
0
10
12.7687556348
20
32.0774765217
30
0
10
12.9263772348
20
32.1215549217
30
0
0
LWPOLYLINE
5
1B6
100
AcDbEntity
8
name
6
ByLayer
62
7
370
-1
100
AcDbPolyline
90
3
70
0
43
0
10
14.1299836348
20
41.0888493217
10
14.1299836348
20
41.0888493217
10
14.1299836348
20
41.0888493217
0
SPLINE
5
1B7
100
AcDbEntity
8
name
6
ByLayer
62
7
370
-1
100
AcDbSpline
210
0
220
0
230
1
70
8
71
3
72
8
73
4
74
0
42
1e-07
43
1e-07
40
0
40
0
40
0
40
0
40
1
40
1
40
1
40
1
10
13.5770756348
20
37.1427149217
30
0
10
14.3522236348
20
37.6251205217
30
0
10
15.6341292348
20
38.4789709217
30
0
10
15.6342932348
20
38.5129829217
30
0
0
SPLINE
5
1B8
100
AcDbEntity
8
name
6
ByLayer
62
7
370
-1
100
AcDbSpline
210
0
220
0
230
1
70
8
71
3
72
8
73
4
74
0
42
1e-07
43
1e-07
40
0
40
0
40
0
40
0
40
1
40
1
40
1
40
1
10
15.6342932348
20
38.5129829217
30
0
10
15.6343692348
20
38.5287717217
30
0
10
14.4373380348
20
38.5416901217
30
0
10
12.9742228348
20
38.5416901217
30
0
0
LWPOLYLINE
5
1B9
100
AcDbEntity
8
name
6
ByLayer
62
7
370
-1
100
AcDbPolyline
90
13
70
0
43
0
10
12.9263772348
20
32.1215549217
10
13.0316372348
20
32.1509917217
10
13.0316372348
20
33.6813181217
10
13.0316372348
20
35.2116445217
10
11.2135092348
20
35.2116445217
10
9.39538043478
20
35.2116445217
10
9.39538043478
20
35.5369933217
10
9.39538043478
20
35.8623429217
10
11.2135092348
20
35.8623429217
10
13.0316372348
20
35.8623429217
10
13.0316372348
20
36.3328045217
10
13.0316372348
20
36.8032661217
10
13.5770756348
20
37.1427149217
0
SPLINE
5
1BA
100
AcDbEntity
8
name
6
ByLayer
62
7
370
-1
100
AcDbSpline
210
0
220
0
230
1
70
8
71
3
72
8
73
4
74
0
42
1e-07
43
1e-07
40
0
40
0
40
0
40
0
40
1
40
1
40
1
40
1
10
16.1294596348
20
38.1148965217
30
0
10
15.5174388348
20
37.6406949217
30
0
10
14.8860132348
20
37.1997909217
30
0
10
14.2660508348
20
36.8137365217
30
0
0
LWPOLYLINE
5
1BB
100
AcDbEntity
8
name
6
ByLayer
62
7
370
-1
100
AcDbPolyline
90
9
70
0
43
0
10
12.9742228348
20
38.5416901217
10
10.3140140348
20
38.5416901217
10
10.3140140348
20
38.8861773217
10
10.3140140348
20
39.2306653217
10
13.4526772348
20
39.2306653217
10
16.5913412348
20
39.2306653217
10
16.5913412348
20
38.8517173217
10
16.5913412348
20
38.4727685217
10
16.1294596348
20
38.1148965217
0
SPLINE
5
1BC
100
AcDbEntity
8
name
6
ByLayer
62
7
370
-1
100
AcDbSpline
210
0
220
0
230
1
70
8
71
3
72
8
73
4
74
0
42
1e-07
43
1e-07
40
0
40
0
40
0
40
0
40
1
40
1
40
1
40
1
10
13.7588884348
20
33.6121461217
30
0
10
13.7588884348
20
32.0295277217
30
0
10
13.7579852348
20
32.0108469217
30
0
10
13.6727668348
20
31.8418637217
30
0
0
SPLINE
5
1BD
100
AcDbEntity
8
name
6
ByLayer
62
7
370
-1
100
AcDbSpline
210
0
220
0
230
1
70
8
71
3
72
8
73
4
74
0
42
1e-07
43
1e-07
40
0
40
0
40
0
40
0
40
1
40
1
40
1
40
1
10
13.6727668348
20
31.8418637217
30
0
10
13.6068244348
20
31.7110957217
30
0
10
13.5418012348
20
31.6486725217
30
0
10
13.3952628348
20
31.5754597217
30
0
0
SPLINE
5
1BE
100
AcDbEntity
8
name
6
ByLayer
62
7
370
-1
100
AcDbSpline
210
0
220
0
230
1
70
8
71
3
72
8
73
4
74
0
42
1e-07
43
1e-07
40
0
40
0
40
0
40
0
40
1
40
1
40
1
40
1
10
13.3952628348
20
31.5754597217
30
0
10
13.2268852348
20
31.4913349217
30
0
10
13.1486708348
20
31.4789053217
30
0
10
12.7445644348
20
31.4720533217
30
0
0
SPLINE
5
1BF
100
AcDbEntity
8
name
6
ByLayer
62
7
370
-1
100
AcDbSpline
210
0
220
0
230
1
70
8
71
3
72
8
73
4
74
0
42
1e-07
43
1e-07
40
0
40
0
40
0
40
0
40
1
40
1
40
1
40
1
10
12.7445644348
20
31.4720533217
30
0
10
12.4908804348
20
31.4677637217
30
0
10
12.1346588348
20
31.4885349217
30
0
10
11.9488812348
20
31.5184637217
30
0
0
LWPOLYLINE
5
1C0
100
AcDbEntity
8
name
6
ByLayer
62
7
370
-1
100
AcDbPolyline
90
11
70
0
43
0
10
14.2660508348
20
36.8137365217
10
13.7588884348
20
36.4979245217
10
13.7588884348
20
36.1801333217
10
13.7588884348
20
35.8623429217
10
15.5578788348
20
35.8623429217
10
17.3568692348
20
35.8623429217
10
17.3568692348
20
35.5369933217
10
17.3568692348
20
35.2116445217
10
15.5578788348
20
35.2116445217
10
13.7588884348
20
35.2116445217
10
13.7588884348
20
33.6121461217
0
LWPOLYLINE
5
1C1
100
AcDbEntity
8
name
6
ByLayer
62
7
370
-1
100
AcDbPolyline
90
3
70
0
43
0
10
11.9488812348
20
31.5184637217
10
11.9488812348
20
31.5184637217
10
11.9488812348
20
31.5184637217
0
SPLINE
5
1C2
100
AcDbEntity
8
name
6
ByLayer
62
7
370
-1
100
AcDbSpline
210
0
220
0
230
1
70
8
71
3
72
8
73
4
74
0
42
1e-07
43
1e-07
40
0
40
0
40
0
40
0
40
1
40
1
40
1
40
1
10
12.2859788348
20
51.4283645217
30
0
10
12.2589652348
20
51.6728453217
30
0
10
12.2269292348
20
51.8618733217
30
0
10
12.2125108348
20
51.8618733217
30
0
0
SPLINE
5
1C3
100
AcDbEntity
8
name
6
ByLayer
62
7
370
-1
100
AcDbSpline
210
0
220
0
230
1
70
8
71
3
72
8
73
4
74
0
42
1e-07
43
1e-07
40
0
40
0
40
0
40
0
40
1
40
1
40
1
40
1
10
12.2125108348
20
51.8618733217
30
0
10
12.2074284348
20
51.8618733217
30
0
10
12.0213460348
20
51.7933181217
30
0
10
11.7989932348
20
51.7095277217
30
0
0
SPLINE
5
1C4
100
AcDbEntity
8
name
6
ByLayer
62
7
370
-1
100
AcDbSpline
210
0
220
0
230
1
70
8
71
3
72
8
73
4
74
0
42
1e-07
43
1e-07
40
0
40
0
40
0
40
0
40
1
40
1
40
1
40
1
10
11.7989932348
20
51.7095277217
30
0
10
11.3610212348
20
51.5444845217
30
0
10
10.6484612348
20
51.3484893217
30
0
10
10.5751932348
20
51.3729117217
30
0
0
SPLINE
5
1C5
100
AcDbEntity
8
name
6
ByLayer
62
7
370
-1
100
AcDbSpline
210
0
220
0
230
1
70
8
71
3
72
8
73
4
74
0
42
1e-07
43
1e-07
40
0
40
0
40
0
40
0
40
1
40
1
40
1
40
1
10
10.5751932348
20
51.3729117217
30
0
10
10.5502060348
20
51.3812405217
30
0
10
10.5025084348
20
51.4903581217
30
0
10
10.4691980348
20
51.6153957217
30
0
0
LWPOLYLINE
5
1C6
100
AcDbEntity
8
name
6
ByLayer
62
7
370
-1
100
AcDbPolyline
90
30
70
0
43
0
10
16.5147884348
20
49.7949485217
10
16.5147884348
20
50.0628837217
10
13.0699140348
20
50.0628837217
10
9.62503883478
20
50.0628837217
10
9.62503883478
20
53.3163765217
10
9.62503883478
20
56.5698693217
10
9.93125003478
20
56.5698693217
10
10.2374612348
20
56.5698693217
10
10.2374612348
20
53.6225877217
10
10.2374612348
20
50.6753053217
10
11.6345492348
20
50.6753053217
10
13.0316372348
20
50.6753053217
10
13.0316372348
20
54.1393189217
10
13.0316372348
20
57.6033317217
10
13.3761252348
20
57.6033317217
10
13.7206124348
20
57.6033317217
10
13.7206124348
20
54.1393189217
10
13.7206124348
20
50.6753053217
10
15.1177004348
20
50.6753053217
10
16.5147884348
20
50.6753053217
10
16.5147884348
20
53.6225877217
10
16.5147884348
20
56.5698693217
10
16.8209996348
20
56.5698693217
10
17.1272108348
20
56.5698693217
10
17.1272108348
20
53.0484413217
10
17.1272108348
20
49.5270141217
10
16.8209996348
20
49.5270141217
10
16.5147884348
20
49.5270141217
10
16.5147884348
20
49.7949485217
10
16.5147884348
20
49.7949485217
0
SPLINE
5
1C7
100
AcDbEntity
8
name
6
ByLayer
62
7
370
-1
100
AcDbSpline
210
0
220
0
230
1
70
8
71
3
72
8
73
4
74
0
42
1e-07
43
1e-07
40
0
40
0
40
0
40
0
40
1
40
1
40
1
40
1
10
10.6138516348
20
52.1680845217
30
0
10
10.8837180348
20
52.5959285217
30
0
10
11.5893260348
20
54.0204261217
30
0
10
11.5395980348
20
54.0370021217
30
0
0
SPLINE
5
1C8
100
AcDbEntity
8
name
6
ByLayer
62
7
370
-1
100
AcDbSpline
210
0
220
0
230
1
70
8
71
3
72
8
73
4
74
0
42
1e-07
43
1e-07
40
0
40
0
40
0
40
0
40
1
40
1
40
1
40
1
10
11.5395980348
20
54.0370021217
30
0
10
11.5182532348
20
54.0441165217
30
0
10
11.3930900348
20
54.0152757217
30
0
10
11.2614580348
20
53.9729093217
30
0
0
SPLINE
5
1C9
100
AcDbEntity
8
name
6
ByLayer
62
7
370
-1
100
AcDbSpline
210
0
220
0
230
1
70
8
71
3
72
8
73
4
74
0
42
1e-07
43
1e-07
40
0
40
0
40
0
40
0
40
1
40
1
40
1
40
1
10
11.2614580348
20
53.9729093217
30
0
10
10.9736444348
20
53.8802757217
30
0
10
10.6477860348
20
53.8120325217
30
0
10
10.6207116348
20
53.8387197217
30
0
0
SPLINE
5
1CA
100
AcDbEntity
8
name
6
ByLayer
62
7
370
-1
100
AcDbSpline
210
0
220
0
230
1
70
8
71
3
72
8
73
4
74
0
42
1e-07
43
1e-07
40
0
40
0
40
0
40
0
40
1
40
1
40
1
40
1
10
10.6207116348
20
53.8387197217
30
0
10
10.6099180348
20
53.8493581217
30
0
10
10.5736932348
20
53.9816309217
30
0
10
10.5402124348
20
54.1326589217
30
0
0
LWPOLYLINE
5
1CB
100
AcDbEntity
8
name
6
ByLayer
62
7
370
-1
100
AcDbPolyline
90
3
70
0
43
0
10
10.4691980348
20
51.6153957217
10
10.4086348348
20
51.8427357217
10
10.6138516348
20
52.1680845217
0
SPLINE
5
1CC
100
AcDbEntity
8
name
6
ByLayer
62
7
370
-1
100
AcDbSpline
210
0
220
0
230
1
70
8
71
3
72
8
73
4
74
0
42
1e-07
43
1e-07
40
0
40
0
40
0
40
0
40
1
40
1
40
1
40
1
10
10.6072732348
20
54.6648165217
30
0
10
10.8951204348
20
55.2443213217
30
0
10
11.1066876348
20
55.8416077217
30
0
10
11.3295220348
20
56.7038365217
30
0
0
SPLINE
5
1CD
100
AcDbEntity
8
name
6
ByLayer
62
7
370
-1
100
AcDbSpline
210
0
220
0
230
1
70
8
71
3
72
8
73
4
74
0
42
1e-07
43
1e-07
40
0
40
0
40
0
40
0
40
1
40
1
40
1
40
1
10
11.3295220348
20
56.7038365217
30
0
10
11.4220140348
20
57.0617213217
30
0
10
11.5112580348
20
57.3525005217
30
0
10
11.5278428348
20
57.3500133217
30
0
0
SPLINE
5
1CE
100
AcDbEntity
8
name
6
ByLayer
62
7
370
-1
100
AcDbSpline
210
0
220
0
230
1
70
8
71
3
72
8
73
4
74
0
42
1e-07
43
1e-07
40
0
40
0
40
0
40
0
40
1
40
1
40
1
40
1
10
11.5278428348
20
57.3500133217
30
0
10
11.5444276348
20
57.3475261217
30
0
10
11.6756284348
20
57.3144565217
30
0
10
11.8194020348
20
57.2765253217
30
0
0
LWPOLYLINE
5
1CF
100
AcDbEntity
8
name
6
ByLayer
62
7
370
-1
100
AcDbPolyline
90
3
70
0
43
0
10
10.5402124348
20
54.1326589217
10
10.4793388348
20
54.4072533217
10
10.6072732348
20
54.6648165217
0
SPLINE
5
1D0
100
AcDbEntity
8
name
6
ByLayer
62
7
370
-1
100
AcDbSpline
210
0
220
0
230
1
70
8
71
3
72
8
73
4
74
0
42
1e-07
43
1e-07
40
0
40
0
40
0
40
0
40
1
40
1
40
1
40
1
10
12.0570116348
20
57.0807181217
30
0
10
11.9415332348
20
56.4651693217
30
0
10
11.5910852348
20
55.4431413217
30
0
10
11.3004300348
20
54.8742701217
30
0
0
SPLINE
5
1D1
100
AcDbEntity
8
name
6
ByLayer
62
7
370
-1
100
AcDbSpline
210
0
220
0
230
1
70
8
71
3
72
8
73
4
74
0
42
1e-07
43
1e-07
40
0
40
0
40
0
40
0
40
1
40
1
40
1
40
1
10
11.3004300348
20
54.8742701217
30
0
10
11.1950324348
20
54.6679845217
30
0
10
11.1151332348
20
54.4941997217
30
0
10
11.1228772348
20
54.4880805217
30
0
0
SPLINE
5
1D2
100
AcDbEntity
8
name
6
ByLayer
62
7
370
-1
100
AcDbSpline
210
0
220
0
230
1
70
8
71
3
72
8
73
4
74
0
42
1e-07
43
1e-07
40
0
40
0
40
0
40
0
40
1
40
1
40
1
40
1
10
11.1228772348
20
54.4880805217
30
0
10
11.1511204348
20
54.4657653217
30
0
10
11.7763852348
20
54.5721725217
30
0
10
11.8043932348
20
54.6040621217
30
0
0
SPLINE
5
1D3
100
AcDbEntity
8
name
6
ByLayer
62
7
370
-1
100
AcDbSpline
210
0
220
0
230
1
70
8
71
3
72
8
73
4
74
0
42
1e-07
43
1e-07
40
0
40
0
40
0
40
0
40
1
40
1
40
1
40
1
10
11.8043932348
20
54.6040621217
30
0
10
11.8202604348
20
54.6221293217
30
0
10
11.9156276348
20
54.8522165217
30
0
10
12.0163196348
20
55.1153669217
30
0
0
SPLINE
5
1D4
100
AcDbEntity
8
name
6
ByLayer
62
7
370
-1
100
AcDbSpline
210
0
220
0
230
1
70
8
71
3
72
8
73
4
74
0
42
1e-07
43
1e-07
40
0
40
0
40
0
40
0
40
1
40
1
40
1
40
1
10
12.0163196348
20
55.1153669217
30
0
10
12.1170116348
20
55.3785165217
30
0
10
12.2125604348
20
55.6083381217
30
0
10
12.2286500348
20
55.6260813217
30
0
0
SPLINE
5
1D5
100
AcDbEntity
8
name
6
ByLayer
62
7
370
-1
100
AcDbSpline
210
0
220
0
230
1
70
8
71
3
72
8
73
4
74
0
42
1e-07
43
1e-07
40
0
40
0
40
0
40
0
40
1
40
1
40
1
40
1
10
12.2286500348
20
55.6260813217
30
0
10
12.2716908348
20
55.6735445217
30
0
10
12.7254260348
20
55.4981037217
30
0
10
12.7254260348
20
55.4339973217
30
0
0
SPLINE
5
1D6
100
AcDbEntity
8
name
6
ByLayer
62
7
370
-1
100
AcDbSpline
210
0
220
0
230
1
70
8
71
3
72
8
73
4
74
0
42
1e-07
43
1e-07
40
0
40
0
40
0
40
0
40
1
40
1
40
1
40
1
10
12.7254260348
20
55.4339973217
30
0
10
12.7254260348
20
55.3688965217
30
0
10
12.5189940348
20
54.7723589217
30
0
10
12.3237612348
20
54.2732861217
30
0
0
SPLINE
5
1D7
100
AcDbEntity
8
name
6
ByLayer
62
7
370
-1
100
AcDbSpline
210
0
220
0
230
1
70
8
71
3
72
8
73
4
74
0
42
1e-07
43
1e-07
40
0
40
0
40
0
40
0
40
1
40
1
40
1
40
1
10
12.3237612348
20
54.2732861217
30
0
10
12.1276772348
20
53.7720365217
30
0
10
11.7048532348
20
52.8981341217
30
0
10
11.4438164348
20
52.4545949217
30
0
0
SPLINE
5
1D8
100
AcDbEntity
8
name
6
ByLayer
62
7
370
-1
100
AcDbSpline
210
0
220
0
230
1
70
8
71
3
72
8
73
4
74
0
42
1e-07
43
1e-07
40
0
40
0
40
0
40
0
40
1
40
1
40
1
40
1
10
11.4438164348
20
52.4545949217
30
0
10
11.3242068348
20
52.2513597217
30
0
10
11.2333100348
20
52.0781101217
30
0
10
11.2418244348
20
52.0695957217
30
0
0
SPLINE
5
1D9
100
AcDbEntity
8
name
6
ByLayer
62
7
370
-1
100
AcDbSpline
210
0
220
0
230
1
70
8
71
3
72
8
73
4
74
0
42
1e-07
43
1e-07
40
0
40
0
40
0
40
0
40
1
40
1
40
1
40
1
10
11.2418244348
20
52.0695957217
30
0
10
11.2503388348
20
52.0610813217
30
0
10
11.4455316348
20
52.1296757217
30
0
10
11.6755852348
20
52.2220285217
30
0
0
SPLINE
5
1DA
100
AcDbEntity
8
name
6
ByLayer
62
7
370
-1
100
AcDbSpline
210
0
220
0
230
1
70
8
71
3
72
8
73
4
74
0
42
1e-07
43
1e-07
40
0
40
0
40
0
40
0
40
1
40
1
40
1
40
1
10
11.6755852348
20
52.2220285217
30
0
10
12.1737564348
20
52.4220125217
30
0
10
12.1770284348
20
52.4292965217
30
0
10
12.0145612348
20
52.9765485217
30
0
0
SPLINE
5
1DB
100
AcDbEntity
8
name
6
ByLayer
62
7
370
-1
100
AcDbSpline
210
0
220
0
230
1
70
8
71
3
72
8
73
4
74
0
42
1e-07
43
1e-07
40
0
40
0
40
0
40
0
40
1
40
1
40
1
40
1
10
12.0145612348
20
52.9765485217
30
0
10
12.0000188348
20
53.0255301217
30
0
10
12.0498236348
20
53.0521085217
30
0
10
12.2507068348
20
53.1025693217
30
0
0
SPLINE
5
1DC
100
AcDbEntity
8
name
6
ByLayer
62
7
370
-1
100
AcDbSpline
210
0
220
0
230
1
70
8
71
3
72
8
73
4
74
0
42
1e-07
43
1e-07
40
0
40
0
40
0
40
0
40
1
40
1
40
1
40
1
10
12.2507068348
20
53.1025693217
30
0
10
12.3907228348
20
53.1377397217
30
0
10
12.5121364348
20
53.1596605217
30
0
10
12.5205148348
20
53.1512829217
30
0
0
SPLINE
5
1DD
100
AcDbEntity
8
name
6
ByLayer
62
7
370
-1
100
AcDbSpline
210
0
220
0
230
1
70
8
71
3
72
8
73
4
74
0
42
1e-07
43
1e-07
40
0
40
0
40
0
40
0
40
1
40
1
40
1
40
1
10
12.5205148348
20
53.1512829217
30
0
10
12.5464116348
20
53.1253861217
30
0
10
12.7196740348
20
52.3216925217
30
0
10
12.7819868348
20
51.9384261217
30
0
0
SPLINE
5
1DE
100
AcDbEntity
8
name
6
ByLayer
62
7
370
-1
100
AcDbSpline
210
0
220
0
230
1
70
8
71
3
72
8
73
4
74
0
42
1e-07
43
1e-07
40
0
40
0
40
0
40
0
40
1
40
1
40
1
40
1
10
12.7819868348
20
51.9384261217
30
0
10
12.8145020348
20
51.7384325217
30
0
10
12.8486892348
20
51.5294685217
30
0
10
12.8579572348
20
51.4740621217
30
0
0
SPLINE
5
1DF
100
AcDbEntity
8
name
6
ByLayer
62
7
370
-1
100
AcDbSpline
210
0
220
0
230
1
70
8
71
3
72
8
73
4
74
0
42
1e-07
43
1e-07
40
0
40
0
40
0
40
0
40
1
40
1
40
1
40
1
10
12.8579572348
20
51.4740621217
30
0
10
12.8737532348
20
51.3796445217
30
0
10
12.8600348348
20
51.3691805217
30
0
10
12.6394596348
20
51.3072885217
30
0
0
SPLINE
5
1E0
100
AcDbEntity
8
name
6
ByLayer
62
7
370
-1
100
AcDbSpline
210
0
220
0
230
1
70
8
71
3
72
8
73
4
74
0
42
1e-07
43
1e-07
40
0
40
0
40
0
40
0
40
1
40
1
40
1
40
1
10
12.6394596348
20
51.3072885217
30
0
10
12.5100172348
20
51.2709685217
30
0
10
12.3830740348
20
51.2331805217
30
0
10
12.3573644348
20
51.2233141217
30
0
0
SPLINE
5
1E1
100
AcDbEntity
8
name
6
ByLayer
62
7
370
-1
100
AcDbSpline
210
0
220
0
230
1
70
8
71
3
72
8
73
4
74
0
42
1e-07
43
1e-07
40
0
40
0
40
0
40
0
40
1
40
1
40
1
40
1
10
12.3573644348
20
51.2233141217
30
0
10
12.3253844348
20
51.2110437217
30
0
10
12.3028356348
20
51.2758109217
30
0
10
12.2859788348
20
51.4283645217
30
0
0
LWPOLYLINE
5
1E2
100
AcDbEntity
8
name
6
ByLayer
62
7
370
-1
100
AcDbPolyline
90
3
70
0
43
0
10
11.8194020348
20
57.2765253217
10
12.0808068348
20
57.2075605217
10
12.0570116348
20
57.0807181217
0
SPLINE
5
1E3
100
AcDbEntity
8
name
6
ByLayer
62
7
370
-1
100
AcDbSpline
210
0
220
0
230
1
70
8
71
3
72
8
73
4
74
0
42
1e-07
43
1e-07
40
0
40
0
40
0
40
0
40
1
40
1
40
1
40
1
10
15.8121516348
20
51.3867669217
30
0
10
15.7986140348
20
51.4855357217
30
0
10
15.7875372348
20
51.6232117217
30
0
10
15.7875372348
20
51.6927125217
30
0
0
SPLINE
5
1E4
100
AcDbEntity
8
name
6
ByLayer
62
7
370
-1
100
AcDbSpline
210
0
220
0
230
1
70
8
71
3
72
8
73
4
74
0
42
1e-07
43
1e-07
40
0
40
0
40
0
40
0
40
1
40
1
40
1
40
1
10
15.7875372348
20
51.6927125217
30
0
10
15.7875372348
20
51.7622149217
30
0
10
15.7710804348
20
51.8292501217
30
0
10
15.7509676348
20
51.8416805217
30
0
0
SPLINE
5
1E5
100
AcDbEntity
8
name
6
ByLayer
62
7
370
-1
100
AcDbSpline
210
0
220
0
230
1
70
8
71
3
72
8
73
4
74
0
42
1e-07
43
1e-07
40
0
40
0
40
0
40
0
40
1
40
1
40
1
40
1
10
15.7509676348
20
51.8416805217
30
0
10
15.7308556348
20
51.8541117217
30
0
10
15.6145900348
20
51.8225797217
30
0
10
15.4926020348
20
51.7716101217
30
0
0
SPLINE
5
1E6
100
AcDbEntity
8
name
6
ByLayer
62
7
370
-1
100
AcDbSpline
210
0
220
0
230
1
70
8
71
3
72
8
73
4
74
0
42
1e-07
43
1e-07
40
0
40
0
40
0
40
0
40
1
40
1
40
1
40
1
10
15.4926020348
20
51.7716101217
30
0
10
15.0144476348
20
51.5718277217
30
0
10
14.1478492348
20
51.3322765217
30
0
10
14.0722644348
20
51.3789909217
30
0
0
SPLINE
5
1E7
100
AcDbEntity
8
name
6
ByLayer
62
7
370
-1
100
AcDbSpline
210
0
220
0
230
1
70
8
71
3
72
8
73
4
74
0
42
1e-07
43
1e-07
40
0
40
0
40
0
40
0
40
1
40
1
40
1
40
1
10
14.0722644348
20
51.3789909217
30
0
10
14.0545476348
20
51.3899413217
30
0
10
14.0094988348
20
51.4998069217
30
0
10
13.9721572348
20
51.6231389217
30
0
0
LWPOLYLINE
5
1E8
100
AcDbEntity
8
name
6
ByLayer
62
7
370
-1
100
AcDbPolyline
90
3
70
0
43
0
10
12.2859788348
20
51.4283645217
10
12.2859788348
20
51.4283645217
10
12.2859788348
20
51.4283645217
0
SPLINE
5
1E9
100
AcDbEntity
8
name
6
ByLayer
62
7
370
-1
100
AcDbSpline
210
0
220
0
230
1
70
8
71
3
72
8
73
4
74
0
42
1e-07
43
1e-07
40
0
40
0
40
0
40
0
40
1
40
1
40
1
40
1
10
14.1142084348
20
52.1704061217
30
0
10
14.5172828348
20
52.7905861217
30
0
10
15.1368300348
20
54.0106653217
30
0
10
15.0617556348
20
54.0364205217
30
0
0
SPLINE
5
1EA
100
AcDbEntity
8
name
6
ByLayer
62
7
370
-1
100
AcDbSpline
210
0
220
0
230
1
70
8
71
3
72
8
73
4
74
0
42
1e-07
43
1e-07
40
0
40
0
40
0
40
0
40
1
40
1
40
1
40
1
10
15.0617556348
20
54.0364205217
30
0
10
15.0426284348
20
54.0429813217
30
0
10
14.9447388348
20
54.0204285217
30
0
10
14.8442228348
20
53.9863037217
30
0
0
SPLINE
5
1EB
100
AcDbEntity
8
name
6
ByLayer
62
7
370
-1
100
AcDbSpline
210
0
220
0
230
1
70
8
71
3
72
8
73
4
74
0
42
1e-07
43
1e-07
40
0
40
0
40
0
40
0
40
1
40
1
40
1
40
1
10
14.8442228348
20
53.9863037217
30
0
10
14.6284740348
20
53.9130549217
30
0
10
14.1681804348
20
53.8129589217
30
0
10
14.1465516348
20
53.8345877217
30
0
0
SPLINE
5
1EC
100
AcDbEntity
8
name
6
ByLayer
62
7
370
-1
100
AcDbSpline
210
0
220
0
230
1
70
8
71
3
72
8
73
4
74
0
42
1e-07
43
1e-07
40
0
40
0
40
0
40
0
40
1
40
1
40
1
40
1
10
14.1465516348
20
53.8345877217
30
0
10
14.1382452348
20
53.8428941217
30
0
10
14.1027012348
20
53.9751413217
30
0
10
14.0675636348
20
54.1284709217
30
0
0
LWPOLYLINE
5
1ED
100
AcDbEntity
8
name
6
ByLayer
62
7
370
-1
100
AcDbPolyline
90
3
70
0
43
0
10
13.9721572348
20
51.6231389217
10
13.9042628348
20
51.8473781217
10
14.1142084348
20
52.1704061217
0
SPLINE
5
1EE
100
AcDbEntity
8
name
6
ByLayer
62
7
370
-1
100
AcDbSpline
210
0
220
0
230
1
70
8
71
3
72
8
73
4
74
0
42
1e-07
43
1e-07
40
0
40
0
40
0
40
0
40
1
40
1
40
1
40
1
10
14.2044436348
20
54.8282933217
30
0
10
14.4501004348
20
55.3434749217
30
0
10
14.7052196348
20
56.0826741217
30
0
10
14.8870060348
20
56.8059933217
30
0
0
SPLINE
5
1EF
100
AcDbEntity
8
name
6
ByLayer
62
7
370
-1
100
AcDbSpline
210
0
220
0
230
1
70
8
71
3
72
8
73
4
74
0
42
1e-07
43
1e-07
40
0
40
0
40
0
40
0
40
1
40
1
40
1
40
1
10
14.8870060348
20
56.8059933217
30
0
10
14.9621796348
20
57.1051045217
30
0
10
15.0276140348
20
57.3526405217
30
0
10
15.0324164348
20
57.3560741217
30
0
0
SPLINE
5
1F0
100
AcDbEntity
8
name
6
ByLayer
62
7
370
-1
100
AcDbSpline
210
0
220
0
230
1
70
8
71
3
72
8
73
4
74
0
42
1e-07
43
1e-07
40
0
40
0
40
0
40
0
40
1
40
1
40
1
40
1
10
15.0324164348
20
57.3560741217
30
0
10
15.0372188348
20
57.3595069217
30
0
10
15.1660244348
20
57.3278325217
30
0
10
15.3186516348
20
57.2856861217
30
0
0
SPLINE
5
1F1
100
AcDbEntity
8
name
6
ByLayer
62
7
370
-1
100
AcDbSpline
210
0
220
0
230
1
70
8
71
3
72
8
73
4
74
0
42
1e-07
43
1e-07
40
0
40
0
40
0
40
0
40
1
40
1
40
1
40
1
10
15.3186516348
20
57.2856861217
30
0
10
15.5322588348
20
57.2267013217
30
0
10
15.5961556348
20
57.1931589217
30
0
10
15.5961556348
20
57.1400117217
30
0
0
SPLINE
5
1F2
100
AcDbEntity
8
name
6
ByLayer
62
7
370
-1
100
AcDbSpline
210
0
220
0
230
1
70
8
71
3
72
8
73
4
74
0
42
1e-07
43
1e-07
40
0
40
0
40
0
40
0
40
1
40
1
40
1
40
1
10
15.5961556348
20
57.1400117217
30
0
10
15.5961556348
20
57.0157485217
30
0
10
15.2561540348
20
55.8936933217
30
0
10
15.0988780348
20
55.4989237217
30
0
0
SPLINE
5
1F3
100
AcDbEntity
8
name
6
ByLayer
62
7
370
-1
100
AcDbSpline
210
0
220
0
230
1
70
8
71
3
72
8
73
4
74
0
42
1e-07
43
1e-07
40
0
40
0
40
0
40
0
40
1
40
1
40
1
40
1
10
15.0988780348
20
55.4989237217
30
0
10
15.0143268348
20
55.2866949217
30
0
10
14.8752316348
20
54.9739973217
30
0
10
14.7897788348
20
54.8040381217
30
0
0
SPLINE
5
1F4
100
AcDbEntity
8
name
6
ByLayer
62
7
370
-1
100
AcDbSpline
210
0
220
0
230
1
70
8
71
3
72
8
73
4
74
0
42
1e-07
43
1e-07
40
0
40
0
40
0
40
0
40
1
40
1
40
1
40
1
10
14.7897788348
20
54.8040381217
30
0
10
14.7043252348
20
54.6340797217
30
0
10
14.6398028348
20
54.4909581217
30
0
10
14.6463964348
20
54.4859893217
30
0
0
SPLINE
5
1F5
100
AcDbEntity
8
name
6
ByLayer
62
7
370
-1
100
AcDbSpline
210
0
220
0
230
1
70
8
71
3
72
8
73
4
74
0
42
1e-07
43
1e-07
40
0
40
0
40
0
40
0
40
1
40
1
40
1
40
1
10
14.6463964348
20
54.4859893217
30
0
10
14.6746276348
20
54.4647165217
30
0
10
15.3001820348
20
54.5744245217
30
0
10
15.3319852348
20
54.6062277217
30
0
0
SPLINE
5
1F6
100
AcDbEntity
8
name
6
ByLayer
62
7
370
-1
100
AcDbSpline
210
0
220
0
230
1
70
8
71
3
72
8
73
4
74
0
42
1e-07
43
1e-07
40
0
40
0
40
0
40
0
40
1
40
1
40
1
40
1
10
15.3319852348
20
54.6062277217
30
0
10
15.3512444348
20
54.6254869217
30
0
10
15.4455132348
20
54.8638661217
30
0
10
15.5414732348
20
55.1359621217
30
0
0
SPLINE
5
1F7
100
AcDbEntity
8
name
6
ByLayer
62
7
370
-1
100
AcDbSpline
210
0
220
0
230
1
70
8
71
3
72
8
73
4
74
0
42
1e-07
43
1e-07
40
0
40
0
40
0
40
0
40
1
40
1
40
1
40
1
10
15.5414732348
20
55.1359621217
30
0
10
15.6374340348
20
55.4080573217
30
0
10
15.7223420348
20
55.6370765217
30
0
10
15.7301588348
20
55.6448925217
30
0
0
SPLINE
5
1F8
100
AcDbEntity
8
name
6
ByLayer
62
7
370
-1
100
AcDbSpline
210
0
220
0
230
1
70
8
71
3
72
8
73
4
74
0
42
1e-07
43
1e-07
40
0
40
0
40
0
40
0
40
1
40
1
40
1
40
1
10
15.7301588348
20
55.6448925217
30
0
10
15.7418476348
20
55.6565805217
30
0
10
16.2442764348
20
55.5048853217
30
0
10
16.2754980348
20
55.4802421217
30
0
0
SPLINE
5
1F9
100
AcDbEntity
8
name
6
ByLayer
62
7
370
-1
100
AcDbSpline
210
0
220
0
230
1
70
8
71
3
72
8
73
4
74
0
42
1e-07
43
1e-07
40
0
40
0
40
0
40
0
40
1
40
1
40
1
40
1
10
16.2754980348
20
55.4802421217
30
0
10
16.2932460348
20
55.4662349217
30
0
10
15.9381332348
20
54.5291789217
30
0
10
15.7270916348
20
54.0331285217
30
0
0
SPLINE
5
1FA
100
AcDbEntity
8
name
6
ByLayer
62
7
370
-1
100
AcDbSpline
210
0
220
0
230
1
70
8
71
3
72
8
73
4
74
0
42
1e-07
43
1e-07
40
0
40
0
40
0
40
0
40
1
40
1
40
1
40
1
10
15.7270916348
20
54.0331285217
30
0
10
15.4651980348
20
53.4175517217
30
0
10
15.2387204348
20
52.9650741217
30
0
10
14.9444236348
20
52.4694429217
30
0
0
SPLINE
5
1FB
100
AcDbEntity
8
name
6
ByLayer
62
7
370
-1
100
AcDbSpline
210
0
220
0
230
1
70
8
71
3
72
8
73
4
74
0
42
1e-07
43
1e-07
40
0
40
0
40
0
40
0
40
1
40
1
40
1
40
1
10
14.9444236348
20
52.4694429217
30
0
10
14.8186796348
20
52.2576749217
30
0
10
14.7157988348
20
52.0762397217
30
0
10
14.7157988348
20
52.0662533217
30
0
0
SPLINE
5
1FC
100
AcDbEntity
8
name
6
ByLayer
62
7
370
-1
100
AcDbSpline
210
0
220
0
230
1
70
8
71
3
72
8
73
4
74
0
42
1e-07
43
1e-07
40
0
40
0
40
0
40
0
40
1
40
1
40
1
40
1
10
14.7157988348
20
52.0662533217
30
0
10
14.7157988348
20
52.0412789217
30
0
10
14.8243276348
20
52.0770637217
30
0
10
15.2789604348
20
52.2519469217
30
0
0
LWPOLYLINE
5
1FD
100
AcDbEntity
8
name
6
ByLayer
62
7
370
-1
100
AcDbPolyline
90
3
70
0
43
0
10
14.0675636348
20
54.1284709217
10
14.0036764348
20
54.4072533217
10
14.2044436348
20
54.8282933217
0
SPLINE
5
1FE
100
AcDbEntity
8
name
6
ByLayer
62
7
370
-1
100
AcDbSpline
210
0
220
0
230
1
70
8
71
3
72
8
73
4
74
0
42
1e-07
43
1e-07
40
0
40
0
40
0
40
0
40
1
40
1
40
1
40
1
10
15.6481188348
20
52.5244301217
30
0
10
15.6361500348
20
52.5915901217
30
0
10
15.6043852348
20
52.7353877217
30
0
10
15.5775308348
20
52.8439805217
30
0
0
LWPOLYLINE
5
1FF
100
AcDbEntity
8
name
6
ByLayer
62
7
370
-1
100
AcDbPolyline
90
3
70
0
43
0
10
15.2789604348
20
52.2519469217
10
15.6698788348
20
52.4023197217
10
15.6481188348
20
52.5244301217
0
SPLINE
5
200
100
AcDbEntity
8
name
6
ByLayer
62
7
370
-1
100
AcDbSpline
210
0
220
0
230
1
70
8
71
3
72
8
73
4
74
0
42
1e-07
43
1e-07
40
0
40
0
40
0
40
0
40
1
40
1
40
1
40
1
10
15.7790492348
20
53.1043053217
30
0
10
15.9823884348
20
53.1553821217
30
0
10
16.0352108348
20
53.1578389217
30
0
10
16.0603716348
20
53.1173845217
30
0
0
SPLINE
5
201
100
AcDbEntity
8
name
6
ByLayer
62
7
370
-1
100
AcDbSpline
210
0
220
0
230
1
70
8
71
3
72
8
73
4
74
0
42
1e-07
43
1e-07
40
0
40
0
40
0
40
0
40
1
40
1
40
1
40
1
10
16.0603716348
20
53.1173845217
30
0
10
16.1315996348
20
53.0028637217
30
0
10
16.2995300348
20
52.1811389217
30
0
10
16.3803676348
20
51.5515645217
30
0
0
LWPOLYLINE
5
202
100
AcDbEntity
8
name
6
ByLayer
62
7
370
-1
100
AcDbPolyline
90
3
70
0
43
0
10
15.5775308348
20
52.8439805217
10
15.5287044348
20
53.0414213217
10
15.7790492348
20
53.1043053217
0
SPLINE
5
203
100
AcDbEntity
8
name
6
ByLayer
62
7
370
-1
100
AcDbSpline
210
0
220
0
230
1
70
8
71
3
72
8
73
4
74
0
42
1e-07
43
1e-07
40
0
40
0
40
0
40
0
40
1
40
1
40
1
40
1
10
16.1642740348
20
51.3082381217
30
0
10
16.0329692348
20
51.2713957217
30
0
10
15.9055644348
20
51.2335877217
30
0
10
15.8811524348
20
51.2242189217
30
0
0
SPLINE
5
204
100
AcDbEntity
8
name
6
ByLayer
62
7
370
-1
100
AcDbSpline
210
0
220
0
230
1
70
8
71
3
72
8
73
4
74
0
42
1e-07
43
1e-07
40
0
40
0
40
0
40
0
40
1
40
1
40
1
40
1
10
15.8811524348
20
51.2242189217
30
0
10
15.8532292348
20
51.2135037217
30
0
10
15.8276372348
20
51.2737933217
30
0
10
15.8121524348
20
51.3867669217
30
0
0
LWPOLYLINE
5
205
100
AcDbEntity
8
name
6
ByLayer
62
7
370
-1
100
AcDbPolyline
90
3
70
0
43
0
10
16.3803676348
20
51.5515645217
10
16.4030100348
20
51.3752237217
10
16.1642740348
20
51.3082381217
0
LWPOLYLINE
5
206
100
AcDbEntity
8
name
6
ByLayer
62
7
370
-1
100
AcDbPolyline
90
2
70
0
43
0
10
15.8121524348
20
51.3867669217
10
15.8121516348
20
51.3867669217
0
LWPOLYLINE
5
207
100
AcDbEntity
8
name
6
ByLayer
62
7
370
-1
100
AcDbPolyline
90
34
70
0
43
0
10
53.6716942087
20
61.5115241739
10
53.6716942087
20
64.3248385739
10
54.7625710087
20
64.3248385739
10
55.8534502087
20
64.3248385739
10
55.8534502087
20
65.0903665739
10
55.8534502087
20
65.8558945739
10
54.5137750087
20
65.8558945739
10
53.1741030087
20
65.8558945739
10
53.1741030087
20
66.1621057739
10
53.1741030087
20
66.4683161739
10
57.1548470087
20
66.4683161739
10
61.1355918087
20
66.4683161739
10
61.1355918087
20
66.1621057739
10
61.1355918087
20
65.8558945739
10
59.8150558087
20
65.8558945739
10
58.4945198087
20
65.8558945739
10
58.4945198087
20
65.0903665739
10
58.4945198087
20
64.3248385739
10
59.5662598087
20
64.3248385739
10
60.6379974087
20
64.3248385739
10
60.6379974087
20
61.5115241739
10
60.6379974087
20
58.6982097739
10
60.2935102087
20
58.6982097739
10
59.9490230087
20
58.6982097739
10
59.9490230087
20
59.0235585739
10
59.9490230087
20
59.3489081739
10
57.1548470087
20
59.3489081739
10
54.3606710087
20
59.3489081739
10
54.3606710087
20
59.0235585739
10
54.3606710087
20
58.6982097739
10
54.0161838087
20
58.6982097739
10
53.6716942087
20
58.6982097739
10
53.6716942087
20
61.5115241739
10
53.6716942087
20
61.5115241739
0
SPLINE
5
208
100
AcDbEntity
8
name
6
ByLayer
62
7
370
-1
100
AcDbSpline
210
0
220
0
230
1
70
8
71
3
72
8
73
4
74
0
42
1e-07
43
1e-07
40
0
40
0
40
0
40
0
40
1
40
1
40
1
40
1
10
59.2918902087
20
61.3775569739
30
0
10
58.4402246087
20
61.3775569739
30
0
10
58.1710910087
20
61.4223369739
30
0
10
58.0117598087
20
61.5905553739
30
0
0
SPLINE
5
209
100
AcDbEntity
8
name
6
ByLayer
62
7
370
-1
100
AcDbSpline
210
0
220
0
230
1
70
8
71
3
72
8
73
4
74
0
42
1e-07
43
1e-07
40
0
40
0
40
0
40
0
40
1
40
1
40
1
40
1
10
58.0117598087
20
61.5905553739
30
0
10
57.8357542087
20
61.7763753739
30
0
10
57.8055454087
20
61.9635353739
30
0
10
57.8055454087
20
62.8681473739
30
0
0
LWPOLYLINE
5
20A
100
AcDbEntity
8
name
6
ByLayer
62
7
370
-1
100
AcDbPolyline
90
3
70
0
43
0
10
59.9490230087
20
60.6885817739
10
59.9490230087
20
61.3775569739
10
59.2918902087
20
61.3775569739
0
SPLINE
5
20B
100
AcDbEntity
8
name
6
ByLayer
62
7
370
-1
100
AcDbSpline
210
0
220
0
230
1
70
8
71
3
72
8
73
4
74
0
42
1e-07
43
1e-07
40
0
40
0
40
0
40
0
40
1
40
1
40
1
40
1
10
56.5424246087
20
63.5435401739
30
0
10
56.5424246087
20
63.4717097739
30
0
10
56.5169006087
20
63.2779353739
30
0
10
56.4857046087
20
63.1129305739
30
0
0
SPLINE
5
20C
100
AcDbEntity
8
name
6
ByLayer
62
7
370
-1
100
AcDbSpline
210
0
220
0
230
1
70
8
71
3
72
8
73
4
74
0
42
1e-07
43
1e-07
40
0
40
0
40
0
40
0
40
1
40
1
40
1
40
1
10
56.4857046087
20
63.1129305739
30
0
10
56.4029190087
20
62.6750337739
30
0
10
56.1815910087
20
62.2535841739
30
0
10
55.8453110087
20
61.8935009739
30
0
0
SPLINE
5
20D
100
AcDbEntity
8
name
6
ByLayer
62
7
370
-1
100
AcDbSpline
210
0
220
0
230
1
70
8
71
3
72
8
73
4
74
0
42
1e-07
43
1e-07
40
0
40
0
40
0
40
0
40
1
40
1
40
1
40
1
10
55.8453110087
20
61.8935009739
30
0
10
55.5855334087
20
61.6153329739
30
0
10
55.0884678087
20
61.2240529739
30
0
10
54.9957974087
20
61.2247785739
30
0
0
SPLINE
5
20E
100
AcDbEntity
8
name
6
ByLayer
62
7
370
-1
100
AcDbSpline
210
0
220
0
230
1
70
8
71
3
72
8
73
4
74
0
42
1e-07
43
1e-07
40
0
40
0
40
0
40
0
40
1
40
1
40
1
40
1
10
54.9957974087
20
61.2247785739
30
0
10
54.9635654087
20
61.2250497739
30
0
10
54.6586662087
20
61.6677745739
30
0
10
54.5985078087
20
61.8016793739
30
0
0
SPLINE
5
20F
100
AcDbEntity
8
name
6
ByLayer
62
7
370
-1
100
AcDbSpline
210
0
220
0
230
1
70
8
71
3
72
8
73
4
74
0
42
1e-07
43
1e-07
40
0
40
0
40
0
40
0
40
1
40
1
40
1
40
1
10
54.5985078087
20
61.8016793739
30
0
10
54.5924790087
20
61.8150945739
30
0
10
54.7043406087
20
61.9017049739
30
0
10
54.8470846087
20
61.9941465739
30
0
0
SPLINE
5
210
100
AcDbEntity
8
name
6
ByLayer
62
7
370
-1
100
AcDbSpline
210
0
220
0
230
1
70
8
71
3
72
8
73
4
74
0
42
1e-07
43
1e-07
40
0
40
0
40
0
40
0
40
1
40
1
40
1
40
1
10
54.8470846087
20
61.9941465739
30
0
10
55.4508070087
20
62.3851233739
30
0
10
55.8078502087
20
62.8930609739
30
0
10
55.8451214087
20
63.4139833739
30
0
0
LWPOLYLINE
5
211
100
AcDbEntity
8
name
6
ByLayer
62
7
370
-1
100
AcDbPolyline
90
5
70
0
43
0
10
57.8055454087
20
62.8681473739
10
57.8055454087
20
63.6741401739
10
57.1739838087
20
63.6741401739
10
56.5424246087
20
63.6741401739
10
56.5424246087
20
63.5435401739
0
LWPOLYLINE
5
212
100
AcDbEntity
8
name
6
ByLayer
62
7
370
-1
100
AcDbPolyline
90
10
70
0
43
0
10
55.8451214087
20
63.4139833739
10
55.8637254087
20
63.6741401739
10
55.1121950087
20
63.6741401739
10
54.3606622087
20
63.6741401739
10
54.3606622087
20
61.8368737739
10
54.3606622087
20
59.9996065739
10
57.1548382087
20
59.9996065739
10
59.9490142087
20
59.9996065739
10
59.9490142087
20
60.6885817739
10
59.9490230087
20
60.6885817739
0
SPLINE
5
213
100
AcDbEntity
8
name
6
ByLayer
62
7
370
-1
100
AcDbSpline
210
0
220
0
230
1
70
8
71
3
72
8
73
4
74
0
42
1e-07
43
1e-07
40
0
40
0
40
0
40
0
40
1
40
1
40
1
40
1
10
58.4951974087
20
62.9373193739
30
0
10
58.4954230087
20
62.5320681739
30
0
10
58.5098950087
20
62.1782377739
30
0
10
58.5271654087
20
62.1510297739
30
0
0
SPLINE
5
214
100
AcDbEntity
8
name
6
ByLayer
62
7
370
-1
100
AcDbSpline
210
0
220
0
230
1
70
8
71
3
72
8
73
4
74
0
42
1e-07
43
1e-07
40
0
40
0
40
0
40
0
40
1
40
1
40
1
40
1
10
58.5271654087
20
62.1510297739
30
0
10
58.5444142087
20
62.1238217739
30
0
10
58.6087542087
20
62.0865473739
30
0
10
58.6701166087
20
62.0681977739
30
0
0
SPLINE
5
215
100
AcDbEntity
8
name
6
ByLayer
62
7
370
-1
100
AcDbSpline
210
0
220
0
230
1
70
8
71
3
72
8
73
4
74
0
42
1e-07
43
1e-07
40
0
40
0
40
0
40
0
40
1
40
1
40
1
40
1
10
58.6701166087
20
62.0681977739
30
0
10
58.8007222087
20
62.0291417739
30
0
10
59.5970670087
20
62.0183585739
30
0
10
59.8055750087
20
62.0528225739
30
0
0
LWPOLYLINE
5
216
100
AcDbEntity
8
name
6
ByLayer
62
7
370
-1
100
AcDbPolyline
90
7
70
0
43
0
10
59.8054870087
20
62.0528225739
10
59.9490230087
20
62.0765481739
10
59.9490230087
20
62.8753441739
10
59.9490230087
20
63.6741401739
10
59.2217726087
20
63.6741401739
10
58.4945198087
20
63.6741401739
10
58.4951974087
20
62.9373193739
0
LWPOLYLINE
5
217
100
AcDbEntity
8
name
6
ByLayer
62
7
370
-1
100
AcDbPolyline
90
3
70
0
43
0
10
59.8055750087
20
62.0528225739
10
59.8055774087
20
62.0528225739
10
59.8054870087
20
62.0528225739
0
LWPOLYLINE
5
218
100
AcDbEntity
8
name
6
ByLayer
62
7
370
-1
100
AcDbPolyline
90
10
70
0
43
0
10
57.8055454087
20
65.0903665739
10
57.8055454087
20
65.8558945739
10
57.1739838087
20
65.8558945739
10
56.5424246087
20
65.8558945739
10
56.5424246087
20
65.0903665739
10
56.5424246087
20
64.3248385739
10
57.1739838087
20
64.3248385739
10
57.8055454087
20
64.3248385739
10
57.8055454087
20
65.0903665739
10
57.8055454087
20
65.0903665739
0
SPLINE
5
219
100
AcDbEntity
8
name
6
ByLayer
62
7
370
-1
100
AcDbSpline
210
0
220
0
230
1
70
8
71
3
72
8
73
4
74
0
42
1e-07
43
1e-07
40
0
40
0
40
0
40
0
40
1
40
1
40
1
40
1
10
53.3118814087
20
55.8400345739
30
0
10
53.6577414087
20
56.1052465739
30
0
10
54.4651454087
20
56.9644809739
30
0
10
54.6848334087
20
57.3011209739
30
0
0
SPLINE
5
21A
100
AcDbEntity
8
name
6
ByLayer
62
7
370
-1
100
AcDbSpline
210
0
220
0
230
1
70
8
71
3
72
8
73
4
74
0
42
1e-07
43
1e-07
40
0
40
0
40
0
40
0
40
1
40
1
40
1
40
1
10
54.6848334087
20
57.3011209739
30
0
10
54.8084782087
20
57.4905897739
30
0
10
54.9202502087
20
57.6583033739
30
0
10
54.9332142087
20
57.6738177739
30
0
0
SPLINE
5
21B
100
AcDbEntity
8
name
6
ByLayer
62
7
370
-1
100
AcDbSpline
210
0
220
0
230
1
70
8
71
3
72
8
73
4
74
0
42
1e-07
43
1e-07
40
0
40
0
40
0
40
0
40
1
40
1
40
1
40
1
10
54.9332142087
20
57.6738177739
30
0
10
54.9461734087
20
57.6893337739
30
0
10
55.0812766087
20
57.6365201739
30
0
10
55.2334310087
20
57.5564553739
30
0
0
LWPOLYLINE
5
21C
100
AcDbEntity
8
name
6
ByLayer
62
7
370
-1
100
AcDbPolyline
90
3
70
0
43
0
10
53.3501598087
20
55.4718785739
10
53.1625894087
20
55.7255545739
10
53.3118814087
20
55.8400345739
0
SPLINE
5
21D
100
AcDbEntity
8
name
6
ByLayer
62
7
370
-1
100
AcDbSpline
210
0
220
0
230
1
70
8
71
3
72
8
73
4
74
0
42
1e-07
43
1e-07
40
0
40
0
40
0
40
0
40
1
40
1
40
1
40
1
10
55.3269278087
20
57.1061529739
30
0
10
54.9706614087
20
56.5133817739
30
0
10
54.5046470087
20
55.9767217739
30
0
10
53.9286070087
20
55.4958545739
30
0
0
SPLINE
5
21E
100
AcDbEntity
8
name
6
ByLayer
62
7
370
-1
100
AcDbSpline
210
0
220
0
230
1
70
8
71
3
72
8
73
4
74
0
42
1e-07
43
1e-07
40
0
40
0
40
0
40
0
40
1
40
1
40
1
40
1
10
53.9286070087
20
55.4958545739
30
0
10
53.7436046087
20
55.3414169739
30
0
10
53.5799718087
20
55.2157657739
30
0
10
53.5649830087
20
55.2166305739
30
0
0
SPLINE
5
21F
100
AcDbEntity
8
name
6
ByLayer
62
7
370
-1
100
AcDbSpline
210
0
220
0
230
1
70
8
71
3
72
8
73
4
74
0
42
1e-07
43
1e-07
40
0
40
0
40
0
40
0
40
1
40
1
40
1
40
1
10
53.5649830087
20
55.2166305739
30
0
10
53.5499910087
20
55.2174881739
30
0
10
53.4533222087
20
55.3323569739
30
0
10
53.3501598087
20
55.4718785739
30
0
0
LWPOLYLINE
5
220
100
AcDbEntity
8
name
6
ByLayer
62
7
370
-1
100
AcDbPolyline
90
3
70
0
43
0
10
55.2334310087
20
57.5564553739
10
55.5100742087
20
57.4108825739
10
55.3269278087
20
57.1061529739
0
LWPOLYLINE
5
221
100
AcDbEntity
8
name
6
ByLayer
62
7
370
-1
100
AcDbPolyline
90
3
70
0
43
0
10
53.3501598087
20
55.4718785739
10
53.3501598087
20
55.4718785739
10
53.3501598087
20
55.4718785739
0
SPLINE
5
222
100
AcDbEntity
8
name
6
ByLayer
62
7
370
-1
100
AcDbSpline
210
0
220
0
230
1
70
8
71
3
72
8
73
4
74
0
42
1e-07
43
1e-07
40
0
40
0
40
0
40
0
40
1
40
1
40
1
40
1
10
58.0847894087
20
49.7104473739
30
0
10
57.9526190087
20
49.7345785739
30
0
10
57.8792870087
20
49.7684721739
30
0
10
57.8668822087
20
49.8111609739
30
0
0
SPLINE
5
223
100
AcDbEntity
8
name
6
ByLayer
62
7
370
-1
100
AcDbSpline
210
0
220
0
230
1
70
8
71
3
72
8
73
4
74
0
42
1e-07
43
1e-07
40
0
40
0
40
0
40
0
40
1
40
1
40
1
40
1
10
57.8668822087
20
49.8111609739
30
0
10
57.8199614087
20
49.9726289739
30
0
10
57.7589046087
20
50.3583521739
30
0
10
57.7773478087
20
50.3767953739
30
0
0
SPLINE
5
224
100
AcDbEntity
8
name
6
ByLayer
62
7
370
-1
100
AcDbSpline
210
0
220
0
230
1
70
8
71
3
72
8
73
4
74
0
42
1e-07
43
1e-07
40
0
40
0
40
0
40
0
40
1
40
1
40
1
40
1
10
57.7773478087
20
50.3767953739
30
0
10
57.7886142087
20
50.3880705739
30
0
10
57.9625334087
20
50.3789401739
30
0
10
58.1638142087
20
50.3564889739
30
0
0
SPLINE
5
225
100
AcDbEntity
8
name
6
ByLayer
62
7
370
-1
100
AcDbSpline
210
0
220
0
230
1
70
8
71
3
72
8
73
4
74
0
42
1e-07
43
1e-07
40
0
40
0
40
0
40
0
40
1
40
1
40
1
40
1
10
58.1638142087
20
50.3564889739
30
0
10
58.7760038087
20
50.2882257739
30
0
10
58.9798382087
20
50.2999273739
30
0
10
59.0895438087
20
50.4096321739
30
0
0
LWPOLYLINE
5
226
100
AcDbEntity
8
name
6
ByLayer
62
7
370
-1
100
AcDbPolyline
90
10
70
0
43
0
10
56.6189774087
20
56.9183577739
10
56.6189774087
20
57.2437065739
10
58.7241790087
20
57.2437065739
10
60.8293806087
20
57.2437065739
10
60.8293806087
20
56.9183577739
10
60.8293806087
20
56.5930081739
10
58.7241790087
20
56.5930081739
10
56.6189774087
20
56.5930081739
10
56.6189774087
20
56.9183577739
10
56.6189774087
20
56.9183577739
0
SPLINE
5
227
100
AcDbEntity
8
name
6
ByLayer
62
7
370
-1
100
AcDbSpline
210
0
220
0
230
1
70
8
71
3
72
8
73
4
74
0
42
1e-07
43
1e-07
40
0
40
0
40
0
40
0
40
1
40
1
40
1
40
1
10
59.8715678087
20
52.2582081739
30
0
10
59.8708902087
20
50.3584625739
30
0
10
59.8659230087
20
50.2095889739
30
0
10
59.8000662087
20
50.0668849739
30
0
0
SPLINE
5
228
100
AcDbEntity
8
name
6
ByLayer
62
7
370
-1
100
AcDbSpline
210
0
220
0
230
1
70
8
71
3
72
8
73
4
74
0
42
1e-07
43
1e-07
40
0
40
0
40
0
40
0
40
1
40
1
40
1
40
1
10
59.8000662087
20
50.0668849739
30
0
10
59.7087750087
20
49.8690833739
30
0
10
59.5846294087
20
49.7591137739
30
0
10
59.3939550087
20
49.7071417739
30
0
0
SPLINE
5
229
100
AcDbEntity
8
name
6
ByLayer
62
7
370
-1
100
AcDbSpline
210
0
220
0
230
1
70
8
71
3
72
8
73
4
74
0
42
1e-07
43
1e-07
40
0
40
0
40
0
40
0
40
1
40
1
40
1
40
1
10
59.3939550087
20
49.7071417739
30
0
10
59.2106598087
20
49.6571809739
30
0
10
58.3647766087
20
49.6593177739
30
0
10
58.0847286087
20
49.7104489739
30
0
0
LWPOLYLINE
5
22A
100
AcDbEntity
8
name
6
ByLayer
62
7
370
-1
100
AcDbPolyline
90
15
70
0
43
0
10
59.0895438087
20
50.4096321739
10
59.1834942087
20
50.5035833739
10
59.1834942087
20
52.4000041739
10
59.1834942087
20
54.2964257739
10
57.7289934087
20
54.2964257739
10
56.2744902087
20
54.2964257739
10
56.2744902087
20
54.6217753739
10
56.2744902087
20
54.9471241739
10
58.7433158087
20
54.9471241739
10
61.2121438087
20
54.9471241739
10
61.2121438087
20
54.6217753739
10
61.2121438087
20
54.2964257739
10
60.5423062087
20
54.2964257739
10
59.8724710087
20
54.2964257739
10
59.8715678087
20
52.2582081739
0
SPLINE
5
22B
100
AcDbEntity
8
name
6
ByLayer
62
7
370
-1
100
AcDbSpline
210
0
220
0
230
1
70
8
71
3
72
8
73
4
74
0
42
1e-07
43
1e-07
40
0
40
0
40
0
40
0
40
1
40
1
40
1
40
1
10
54.2458406087
20
51.4448337739
30
0
10
54.2458406087
20
52.4448041739
30
0
10
54.2357030087
20
53.2629625739
30
0
10
54.2233302087
20
53.2629625739
30
0
0
SPLINE
5
22C
100
AcDbEntity
8
name
6
ByLayer
62
7
370
-1
100
AcDbSpline
210
0
220
0
230
1
70
8
71
3
72
8
73
4
74
0
42
1e-07
43
1e-07
40
0
40
0
40
0
40
0
40
1
40
1
40
1
40
1
10
54.2233302087
20
53.2629625739
30
0
10
54.2109574087
20
53.2629625739
30
0
10
54.0521814087
20
53.1251673739
30
0
10
53.8705094087
20
52.9567513739
30
0
0
SPLINE
5
22D
100
AcDbEntity
8
name
6
ByLayer
62
7
370
-1
100
AcDbSpline
210
0
220
0
230
1
70
8
71
3
72
8
73
4
74
0
42
1e-07
43
1e-07
40
0
40
0
40
0
40
0
40
1
40
1
40
1
40
1
10
53.8705094087
20
52.9567513739
30
0
10
53.6888374087
20
52.7883353739
30
0
10
53.5224166087
20
52.6512473739
30
0
10
53.5006830087
20
52.6521129739
30
0
0
SPLINE
5
22E
100
AcDbEntity
8
name
6
ByLayer
62
7
370
-1
100
AcDbSpline
210
0
220
0
230
1
70
8
71
3
72
8
73
4
74
0
42
1e-07
43
1e-07
40
0
40
0
40
0
40
0
40
1
40
1
40
1
40
1
10
53.5006830087
20
52.6521129739
30
0
10
53.4789406087
20
52.6529705739
30
0
10
53.3785942087
20
52.7654073739
30
0
10
53.2776670087
20
52.9019569739
30
0
0
LWPOLYLINE
5
22F
100
AcDbEntity
8
name
6
ByLayer
62
7
370
-1
100
AcDbPolyline
90
3
70
0
43
0
10
58.0847286087
20
49.7104489739
10
58.0847286087
20
49.7104489739
10
58.0847894087
20
49.7104473739
0
SPLINE
5
230
100
AcDbEntity
8
name
6
ByLayer
62
7
370
-1
100
AcDbSpline
210
0
220
0
230
1
70
8
71
3
72
8
73
4
74
0
42
1e-07
43
1e-07
40
0
40
0
40
0
40
0
40
1
40
1
40
1
40
1
10
53.2202518087
20
53.2512873739
30
0
10
53.2896014087
20
53.3068697739
30
0
10
53.5799566087
20
53.5862937739
30
0
10
53.8654862087
20
53.8722305739
30
0
0
SPLINE
5
231
100
AcDbEntity
8
name
6
ByLayer
62
7
370
-1
100
AcDbSpline
210
0
220
0
230
1
70
8
71
3
72
8
73
4
74
0
42
1e-07
43
1e-07
40
0
40
0
40
0
40
0
40
1
40
1
40
1
40
1
10
53.8654862087
20
53.8722305739
30
0
10
54.4100758087
20
54.4175993739
30
0
10
54.7590494087
20
54.8539305739
30
0
10
55.0763886087
20
55.3862633739
30
0
0
LWPOLYLINE
5
232
100
AcDbEntity
8
name
6
ByLayer
62
7
370
-1
100
AcDbPolyline
90
3
70
0
43
0
10
53.2776670087
20
52.9019569739
10
53.0941622087
20
53.1502289739
10
53.2202518087
20
53.2512873739
0
SPLINE
5
233
100
AcDbEntity
8
name
6
ByLayer
62
7
370
-1
100
AcDbSpline
210
0
220
0
230
1
70
8
71
3
72
8
73
4
74
0
42
1e-07
43
1e-07
40
0
40
0
40
0
40
0
40
1
40
1
40
1
40
1
10
55.7330230087
20
55.2411505739
30
0
10
55.6198742087
20
55.0176545739
30
0
10
55.3446558087
20
54.5951873739
30
0
10
55.1018094087
20
54.2722209739
30
0
0
LWPOLYLINE
5
234
100
AcDbEntity
8
name
6
ByLayer
62
7
370
-1
100
AcDbPolyline
90
5
70
0
43
0
10
55.0763886087
20
55.3862633739
10
55.2663766087
20
55.7049665739
10
55.5402174087
20
55.5530889739
10
55.8140566087
20
55.4012105739
10
55.7330230087
20
55.2411505739
0
LWPOLYLINE
5
235
100
AcDbEntity
8
name
6
ByLayer
62
7
370
-1
100
AcDbPolyline
90
8
70
0
43
0
10
55.1018094087
20
54.2722209739
10
54.8965342087
20
53.9992217739
10
54.8965342087
20
51.8129633739
10
54.8965342087
20
49.6267057739
10
54.5711862087
20
49.6267057739
10
54.2458358087
20
49.6267057739
10
54.2458358087
20
51.4448337739
10
54.2458406087
20
51.4448337739
0
SPLINE
5
236
100
AcDbEntity
8
name
6
ByLayer
62
7
370
-1
100
AcDbSpline
210
0
220
0
230
1
70
8
71
3
72
8
73
4
74
0
42
1e-07
43
1e-07
40
0
40
0
40
0
40
0
40
1
40
1
40
1
40
1
10
57.4993342087
20
40.6377081739
30
0
10
57.3203918087
20
40.6583441739
30
0
10
57.1630814087
20
40.6869777739
30
0
10
57.1497558087
20
40.7013369739
30
0
0
SPLINE
5
237
100
AcDbEntity
8
name
6
ByLayer
62
7
370
-1
100
AcDbSpline
210
0
220
0
230
1
70
8
71
3
72
8
73
4
74
0
42
1e-07
43
1e-07
40
0
40
0
40
0
40
0
40
1
40
1
40
1
40
1
10
57.1497558087
20
40.7013369739
30
0
10
57.1278782087
20
40.7249033739
30
0
10
56.9994422087
20
41.3720369739
30
0
10
57.0145462087
20
41.3825513739
30
0
0
SPLINE
5
238
100
AcDbEntity
8
name
6
ByLayer
62
7
370
-1
100
AcDbSpline
210
0
220
0
230
1
70
8
71
3
72
8
73
4
74
0
42
1e-07
43
1e-07
40
0
40
0
40
0
40
0
40
1
40
1
40
1
40
1
10
57.0145462087
20
41.3825513739
30
0
10
57.0180238087
20
41.3849673739
30
0
10
57.1672878087
20
41.3655505739
30
0
10
57.3462278087
20
41.3393897739
30
0
0
SPLINE
5
239
100
AcDbEntity
8
name
6
ByLayer
62
7
370
-1
100
AcDbSpline
210
0
220
0
230
1
70
8
71
3
72
8
73
4
74
0
42
1e-07
43
1e-07
40
0
40
0
40
0
40
0
40
1
40
1
40
1
40
1
10
57.3462278087
20
41.3393897739
30
0
10
57.5251702087
20
41.3132241739
30
0
10
57.8468382087
20
41.2798089739
30
0
10
58.0610470087
20
41.2651313739
30
0
0
SPLINE
5
23A
100
AcDbEntity
8
name
6
ByLayer
62
7
370
-1
100
AcDbSpline
210
0
220
0
230
1
70
8
71
3
72
8
73
4
74
0
42
1e-07
43
1e-07
40
0
40
0
40
0
40
0
40
1
40
1
40
1
40
1
10
58.0610470087
20
41.2651313739
30
0
10
58.6439686087
20
41.2251929739
30
0
10
58.6093502087
20
41.1515961739
30
0
10
58.6093502087
20
42.4307449739
30
0
0
LWPOLYLINE
5
23B
100
AcDbEntity
8
name
6
ByLayer
62
7
370
-1
100
AcDbPolyline
90
34
70
0
43
0
10
53.0975494087
20
45.5694081739
10
53.0975494087
20
45.8756193739
10
54.9348174087
20
45.8756193739
10
56.7720838087
20
45.8756193739
10
56.7720838087
20
46.4306265739
10
56.7720838087
20
46.9856345739
10
55.2218886087
20
46.9856345739
10
53.6716942087
20
46.9856345739
10
53.6716942087
20
47.3109841739
10
53.6716942087
20
47.6363329739
10
55.2218886087
20
47.6363329739
10
56.7720838087
20
47.6363329739
10
56.7720838087
20
48.1722025739
10
56.7720838087
20
48.7080721739
10
57.1357078087
20
48.7080721739
10
57.4993342087
20
48.7080721739
10
57.4993342087
20
48.1722025739
10
57.4993342087
20
47.6363329739
10
59.0495270087
20
47.6363329739
10
60.5997214087
20
47.6363329739
10
60.5997214087
20
47.3109841739
10
60.5997214087
20
46.9856345739
10
59.0495270087
20
46.9856345739
10
57.4993342087
20
46.9856345739
10
57.4993342087
20
46.4306265739
10
57.4993342087
20
45.8756193739
10
59.3557382087
20
45.8756193739
10
61.2121438087
20
45.8756193739
10
61.2121438087
20
45.5694081739
10
61.2121438087
20
45.2631969739
10
57.1548470087
20
45.2631969739
10
53.0975494087
20
45.2631969739
10
53.0975494087
20
45.5694081739
10
53.0975494087
20
45.5694081739
0
SPLINE
5
23C
100
AcDbEntity
8
name
6
ByLayer
62
7
370
-1
100
AcDbSpline
210
0
220
0
230
1
70
8
71
3
72
8
73
4
74
0
42
1e-07
43
1e-07
40
0
40
0
40
0
40
0
40
1
40
1
40
1
40
1
10
59.2983246087
20
42.4168305739
30
0
10
59.2983246087
20
41.0423785739
30
0
10
59.2644582087
20
40.8744881739
30
0
10
58.9498366087
20
40.6891673739
30
0
0
SPLINE
5
23D
100
AcDbEntity
8
name
6
ByLayer
62
7
370
-1
100
AcDbSpline
210
0
220
0
230
1
70
8
71
3
72
8
73
4
74
0
42
1e-07
43
1e-07
40
0
40
0
40
0
40
0
40
1
40
1
40
1
40
1
10
58.9498366087
20
40.6891673739
30
0
10
58.8397294087
20
40.6243153739
30
0
10
58.7438278087
20
40.6116665739
30
0
10
58.3222766087
20
40.6064017739
30
0
0
SPLINE
5
23E
100
AcDbEntity
8
name
6
ByLayer
62
7
370
-1
100
AcDbSpline
210
0
220
0
230
1
70
8
71
3
72
8
73
4
74
0
42
1e-07
43
1e-07
40
0
40
0
40
0
40
0
40
1
40
1
40
1
40
1
10
58.3222766087
20
40.6064017739
30
0
10
58.0485998087
20
40.6029929739
30
0
10
57.6782766087
20
40.6170809739
30
0
10
57.4993342087
20
40.6377081739
30
0
0
LWPOLYLINE
5
23F
100
AcDbEntity
8
name
6
ByLayer
62
7
370
-1
100
AcDbPolyline
90
21
70
0
43
0
10
58.6093502087
20
42.4307449739
10
58.6093502087
20
43.4642065739
10
56.0065550087
20
43.4642065739
10
53.4037614087
20
43.4642065739
10
53.4037614087
20
43.7895569739
10
53.4037614087
20
44.1149049739
10
56.0065550087
20
44.1149049739
10
58.6093502087
20
44.1149049739
10
58.6093502087
20
44.4976689739
10
58.6093502087
20
44.8804329739
10
58.9538374087
20
44.8804329739
10
59.2983246087
20
44.8804329739
10
59.2983246087
20
44.4976689739
10
59.2983246087
20
44.1149049739
10
60.1978190087
20
44.1149049739
10
61.0973150087
20
44.1149049739
10
61.0973150087
20
43.7895569739
10
61.0973150087
20
43.4642065739
10
60.1978190087
20
43.4642065739
10
59.2983246087
20
43.4642065739
10
59.2983246087
20
42.4168305739
0
SPLINE
5
240
100
AcDbEntity
8
name
6
ByLayer
62
7
370
-1
100
AcDbSpline
210
0
220
0
230
1
70
8
71
3
72
8
73
4
74
0
42
1e-07
43
1e-07
40
0
40
0
40
0
40
0
40
1
40
1
40
1
40
1
10
55.4807678087
20
41.5980513739
30
0
10
55.3195518087
20
41.9096065739
30
0
10
55.1027822087
20
42.2372241739
30
0
10
54.8568966087
20
42.5409489739
30
0
0
SPLINE
5
241
100
AcDbEntity
8
name
6
ByLayer
62
7
370
-1
100
AcDbSpline
210
0
220
0
230
1
70
8
71
3
72
8
73
4
74
0
42
1e-07
43
1e-07
40
0
40
0
40
0
40
0
40
1
40
1
40
1
40
1
10
54.8568966087
20
42.5409489739
30
0
10
54.7038286087
20
42.7300225739
30
0
10
54.6708854087
20
42.7928289739
30
0
10
54.7108974087
20
42.8192857739
30
0
0
SPLINE
5
242
100
AcDbEntity
8
name
6
ByLayer
62
7
370
-1
100
AcDbSpline
210
0
220
0
230
1
70
8
71
3
72
8
73
4
74
0
42
1e-07
43
1e-07
40
0
40
0
40
0
40
0
40
1
40
1
40
1
40
1
10
54.7108974087
20
42.8192857739
30
0
10
55.0701462087
20
43.0568105739
30
0
10
55.2181814087
20
43.1287913739
30
0
10
55.2750662087
20
43.0936017739
30
0
0
SPLINE
5
243
100
AcDbEntity
8
name
6
ByLayer
62
7
370
-1
100
AcDbSpline
210
0
220
0
230
1
70
8
71
3
72
8
73
4
74
0
42
1e-07
43
1e-07
40
0
40
0
40
0
40
0
40
1
40
1
40
1
40
1
10
55.2750662087
20
43.0936017739
30
0
10
55.3783262087
20
43.0297217739
30
0
10
55.9399190087
20
42.2647257739
30
0
10
56.0940326087
20
41.9780105739
30
0
0
LWPOLYLINE
5
244
100
AcDbEntity
8
name
6
ByLayer
62
7
370
-1
100
AcDbPolyline
90
2
70
0
43
0
10
57.4993342087
20
40.6377081739
10
57.4993342087
20
40.6377081739
0
SPLINE
5
245
100
AcDbEntity
8
name
6
ByLayer
62
7
370
-1
100
AcDbSpline
210
0
220
0
230
1
70
8
71
3
72
8
73
4
74
0
42
1e-07
43
1e-07
40
0
40
0
40
0
40
0
40
1
40
1
40
1
40
1
10
55.9720670087
20
41.5526001739
30
0
10
55.8252934087
20
41.4668793739
30
0
10
55.6825814087
20
41.3881705739
30
0
10
55.6549310087
20
41.3776929739
30
0
0
SPLINE
5
246
100
AcDbEntity
8
name
6
ByLayer
62
7
370
-1
100
AcDbSpline
210
0
220
0
230
1
70
8
71
3
72
8
73
4
74
0
42
1e-07
43
1e-07
40
0
40
0
40
0
40
0
40
1
40
1
40
1
40
1
10
55.6549310087
20
41.3776929739
30
0
10
55.6230510087
20
41.3656137739
30
0
10
55.5593206087
20
41.4462457739
30
0
10
55.4807678087
20
41.5980513739
30
0
0
LWPOLYLINE
5
247
100
AcDbEntity
8
name
6
ByLayer
62
7
370
-1
100
AcDbPolyline
90
3
70
0
43
0
10
56.0940326087
20
41.9780105739
10
56.2389254087
20
41.7084521739
10
55.9720670087
20
41.5526001739
0
LWPOLYLINE
5
248
100
AcDbEntity
8
name
6
ByLayer
62
7
370
-1
100
AcDbPolyline
90
3
70
0
43
0
10
55.4807678087
20
41.5980513739
10
55.4807678087
20
41.5980513739
10
55.4807678087
20
41.5980513739
0
ENDSEC
0
SECTION
2
OBJECTS
0
DICTIONARY
5
C
330
0
100
AcDbDictionary
281
1
3
ACAD_GROUP
350
D
0
DICTIONARY
5
D
330
C
100
AcDbDictionary
281
1
0
ENDSEC
0
EOF
