  0
SECTION
  2
HEADER
  9
$ACADVER
  1
AC1014
  9
$HANDSEED
  5
FFFF
  9
$MEASUREMENT
 70
     1
  0
ENDSEC
  0
SECTION
  2
TABLES
  0
TABLE
  2
VPORT
  5
8
330
0
100
AcDbSymbolTable
 70
     4
  0
VPORT
  5
2E
330
8
100
AcDbSymbolTableRecord
100
AcDbViewportTableRecord
  2
*ACTIVE
 70
     0
 10
0.0
 20
0.0
 11
1.0
 21
1.0
 12
210.0
 22
148.5
 13
0.0
 23
0.0
 14
10.0
 24
10.0
 15
10.0
 25
10.0
 16
0.0
 26
0.0
 36
1.0
 17
0.0
 27
0.0
 37
0.0
 40
341.0
 41
1.24
 42
50.0
 43
0.0
 44
0.0
 50
0.0
 51
0.0
 71
     0
 72
   100
 73
     1
 74
     3
 75
     0
 76
     0
 77
     0
 78
     0
  0
ENDTAB
  0
TABLE
  2
LTYPE
  5
5
330
0
100
AcDbSymbolTable
 70
     1
  0
LTYPE
  5
14
330
5
100
AcDbSymbolTableRecord
100
AcDbLinetypeTableRecord
  2
BYBLOCK
 70
     0
  3

 72
    65
 73
     0
 40
0.0
  0
LTYPE
  5
15
330
5
100
AcDbSymbolTableRecord
100
AcDbLinetypeTableRecord
  2
BYLAYER
 70
     0
  3

 72
    65
 73
     0
 40
0.0
  0
LTYPE
  5
16
330
5
100
AcDbSymbolTableRecord
100
AcDbLinetypeTableRecord
  2
CONTINUOUS
 70
     0
  3
Solid line
 72
    65
 73
     0
 40
0.0
  0
ENDTAB
  0
TABLE
  2
LAYER
  5
2
100
AcDbSymbolTable
 70
1
  0
LAYER
  5
50
100
AcDbSymbolTableRecord
100
AcDbLayerTableRecord
  2
0
 70
0
  6
CONTINUOUS
  0
ENDTAB
  0
TABLE
  2
STYLE
  5
3
330
0
100
AcDbSymbolTable
 70
     1
  0
STYLE
  5
11
330
3
100
AcDbSymbolTableRecord
100
AcDbTextStyleTableRecord
  2
STANDARD
 70
     0
 40
0.0
 41
1.0
 50
0.0
 71
     0
 42
2.5
  3
txt
  4

  0
ENDTAB
  0
TABLE
  2
VIEW
  5
6
330
0
100
AcDbSymbolTable
 70
     0
  0
ENDTAB
  0
TABLE
  2
UCS
  5
7
330
0
100
AcDbSymbolTable
 70
     0
  0
ENDTAB
  0
TABLE
  2
APPID
  5
9
330
0
100
AcDbSymbolTable
 70
     2
  0
APPID
  5
12
330
9
100
AcDbSymbolTableRecord
100
AcDbRegAppTableRecord
  2
ACAD
 70
     0
  0
ENDTAB
  0
TABLE
  2
DIMSTYLE
  5
A
330
0
100
AcDbSymbolTable
 70
     1
  0
DIMSTYLE
105
27
330
A
100
AcDbSymbolTableRecord
100
AcDbDimStyleTableRecord
  2
ISO-25
 70
     0
  3

  4

  5

  6

  7

 40
1.0
 41
2.5
 42
0.625
 43
3.75
 44
1.25
 45
0.0
 46
0.0
 47
0.0
 48
0.0
140
2.5
141
2.5
142
0.0
143
0.03937007874016
144
1.0
145
0.0
146
1.0
147
0.625
 71
     0
 72
     0
 73
     0
 74
     0
 75
     0
 76
     0
 77
     1
 78
     8
170
     0
171
     3
172
     1
173
     0
174
     0
175
     0
176
     0
177
     0
178
     0
270
     2
271
     2
272
     2
273
     2
274
     3
340
11
275
     0
280
     0
281
     0
282
     0
283
     0
284
     8
285
     0
286
     0
287
     3
288
     0
  0
ENDTAB
  0
TABLE
  2
BLOCK_RECORD
  5
1
330
0
100
AcDbSymbolTable
 70
     1
  0
BLOCK_RECORD
  5
1F
330
1
100
AcDbSymbolTableRecord
100
AcDbBlockTableRecord
  2
*MODEL_SPACE
  0
BLOCK_RECORD
  5
1B
330
1
100
AcDbSymbolTableRecord
100
AcDbBlockTableRecord
  2
*PAPER_SPACE
  0
ENDTAB
  0
ENDSEC
  0
SECTION
  2
BLOCKS
  0
BLOCK
  5
20
330
1F
100
AcDbEntity
  8
0
100
AcDbBlockBegin
  2
*MODEL_SPACE
 70
     0
 10
0.0
 20
0.0
 30
0.0
  3
*MODEL_SPACE
  1

  0
ENDBLK
  5
21
330
1F
100
AcDbEntity
  8
0
100
AcDbBlockEnd
  0
BLOCK
  5
1C
330
1B
100
AcDbEntity
 67
     1
  8
0
100
AcDbBlockBegin
  2
*PAPER_SPACE
  1

  0
ENDBLK
  5
1D
330
1B
100
AcDbEntity
 67
     1
  8
0
100
AcDbBlockEnd
  0
ENDSEC
  0
SECTION
  2
ENTITIES
  0
SPLINE
  5
100
100
AcDbEntity
  8
0
 62
7
100
AcDbSpline
 70
8
 71
3
 72
8
 73
4
 74
0
 40
0
 40
0
 40
0
 40
0
 40
1
 40
1
 40
1
 40
1
 10
81.915000
 20
193.245983
 30
0.0
 10
81.812175
 20
193.250188
 30
0.0
 10
81.732100
 20
193.179861
 30
0.0
 10
81.668056
 20
193.025497
 30
0.0
  0
SPLINE
  5
101
100
AcDbEntity
  8
0
 62
7
100
AcDbSpline
 70
8
 71
3
 72
8
 73
4
 74
0
 40
0
 40
0
 40
0
 40
0
 40
1
 40
1
 40
1
 40
1
 10
81.668056
 20
193.025497
 30
0.0
 10
81.622525
 20
192.915751
 30
0.0
 10
80.826187
 20
192.444755
 30
0.0
 10
79.904167
 20
191.984802
 30
0.0
  0
SPLINE
  5
102
100
AcDbEntity
  8
0
 62
7
100
AcDbSpline
 70
8
 71
3
 72
8
 73
4
 74
0
 40
0
 40
0
 40
0
 40
0
 40
1
 40
1
 40
1
 40
1
 10
79.904167
 20
191.984802
 30
0.0
 10
78.982147
 20
191.524850
 30
0.0
 10
78.228472
 20
191.066260
 30
0.0
 10
78.228472
 20
190.961747
 30
0.0
  0
SPLINE
  5
103
100
AcDbEntity
  8
0
 62
7
100
AcDbSpline
 70
8
 71
3
 72
8
 73
4
 74
0
 40
0
 40
0
 40
0
 40
0
 40
1
 40
1
 40
1
 40
1
 10
78.228472
 20
190.961747
 30
0.0
 10
78.228472
 20
190.857233
 30
0.0
 10
77.561559
 20
190.432094
 30
0.0
 10
76.746806
 20
190.018066
 30
0.0
  0
SPLINE
  5
104
100
AcDbEntity
  8
0
 62
7
100
AcDbSpline
 70
8
 71
3
 72
8
 73
4
 74
0
 40
0
 40
0
 40
0
 40
0
 40
1
 40
1
 40
1
 40
1
 10
76.746806
 20
190.018066
 30
0.0
 10
75.932050
 20
189.604038
 30
0.0
 10
74.800934
 20
188.813904
 30
0.0
 10
74.233264
 20
188.262997
 30
0.0
  0
SPLINE
  5
105
100
AcDbEntity
  8
0
 62
7
100
AcDbSpline
 70
8
 71
3
 72
8
 73
4
 74
0
 40
0
 40
0
 40
0
 40
0
 40
1
 40
1
 40
1
 40
1
 10
74.233264
 20
188.262997
 30
0.0
 10
73.665588
 20
187.712090
 30
0.0
 10
73.058686
 20
187.257580
 30
0.0
 10
72.875069
 20
187.257580
 30
0.0
  0
SPLINE
  5
106
100
AcDbEntity
  8
0
 62
7
100
AcDbSpline
 70
8
 71
3
 72
8
 73
4
 74
0
 40
0
 40
0
 40
0
 40
0
 40
1
 40
1
 40
1
 40
1
 10
72.875069
 20
187.257580
 30
0.0
 10
72.691453
 20
187.257580
 30
0.0
 10
72.422450
 20
187.048533
 30
0.0
 10
72.284167
 20
186.790149
 30
0.0
  0
SPLINE
  5
107
100
AcDbEntity
  8
0
 62
7
100
AcDbSpline
 70
8
 71
3
 72
8
 73
4
 74
0
 40
0
 40
0
 40
0
 40
0
 40
1
 40
1
 40
1
 40
1
 10
72.284167
 20
186.790149
 30
0.0
 10
71.955239
 20
186.175542
 30
0.0
 10
69.986522
 20
185.023218
 30
0.0
 10
69.250278
 20
185.017441
 30
0.0
  0
SPLINE
  5
108
100
AcDbEntity
  8
0
 62
7
100
AcDbSpline
 70
8
 71
3
 72
8
 73
4
 74
0
 40
0
 40
0
 40
0
 40
0
 40
1
 40
1
 40
1
 40
1
 10
69.250278
 20
185.017441
 30
0.0
 10
68.933114
 20
185.014952
 30
0.0
 10
66.884973
 20
185.252433
 30
0.0
 10
64.699444
 20
185.537788
 30
0.0
  0
SPLINE
  5
109
100
AcDbEntity
  8
0
 62
7
100
AcDbSpline
 70
8
 71
3
 72
8
 73
4
 74
0
 40
0
 40
0
 40
0
 40
0
 40
1
 40
1
 40
1
 40
1
 10
64.699444
 20
185.537788
 30
0.0
 10
62.513916
 20
185.823144
 30
0.0
 10
59.830264
 20
186.164515
 30
0.0
 10
58.737500
 20
186.305080
 30
0.0
  0
SPLINE
  5
10a
100
AcDbEntity
  8
0
 62
7
100
AcDbSpline
 70
8
 71
3
 72
8
 73
4
 74
0
 40
0
 40
0
 40
0
 40
0
 40
1
 40
1
 40
1
 40
1
 10
58.737500
 20
186.305080
 30
0.0
 10
56.015729
 20
186.655188
 30
0.0
 10
47.305369
 20
186.429237
 30
0.0
 10
44.952708
 20
185.943483
 30
0.0
  0
SPLINE
  5
10b
100
AcDbEntity
  8
0
 62
7
100
AcDbSpline
 70
8
 71
3
 72
8
 73
4
 74
0
 40
0
 40
0
 40
0
 40
0
 40
1
 40
1
 40
1
 40
1
 10
44.952708
 20
185.943483
 30
0.0
 10
42.089479
 20
185.352310
 30
0.0
 10
40.728194
 20
184.961856
 30
0.0
 10
40.728194
 20
184.735219
 30
0.0
  0
SPLINE
  5
10c
100
AcDbEntity
  8
0
 62
7
100
AcDbSpline
 70
8
 71
3
 72
8
 73
4
 74
0
 40
0
 40
0
 40
0
 40
0
 40
1
 40
1
 40
1
 40
1
 10
40.728194
 20
184.735219
 30
0.0
 10
40.728194
 20
184.621637
 30
0.0
 10
40.566278
 20
184.532372
 30
0.0
 10
40.366597
 20
184.532372
 30
0.0
  0
SPLINE
  5
10d
100
AcDbEntity
  8
0
 62
7
100
AcDbSpline
 70
8
 71
3
 72
8
 73
4
 74
0
 40
0
 40
0
 40
0
 40
0
 40
1
 40
1
 40
1
 40
1
 10
40.366597
 20
184.532372
 30
0.0
 10
39.828439
 20
184.532372
 30
0.0
 10
36.256736
 20
182.783965
 30
0.0
 10
36.256736
 20
182.521538
 30
0.0
  0
SPLINE
  5
10e
100
AcDbEntity
  8
0
 62
7
100
AcDbSpline
 70
8
 71
3
 72
8
 73
4
 74
0
 40
0
 40
0
 40
0
 40
0
 40
1
 40
1
 40
1
 40
1
 10
36.256736
 20
182.521538
 30
0.0
 10
36.256736
 20
182.397439
 30
0.0
 10
35.898102
 20
182.141483
 30
0.0
 10
35.454167
 20
181.948274
 30
0.0
  0
SPLINE
  5
10f
100
AcDbEntity
  8
0
 62
7
100
AcDbSpline
 70
8
 71
3
 72
8
 73
4
 74
0
 40
0
 40
0
 40
0
 40
0
 40
1
 40
1
 40
1
 40
1
 10
35.454167
 20
181.948274
 30
0.0
 10
35.010231
 20
181.755066
 30
0.0
 10
34.366906
 20
181.329332
 30
0.0
 10
34.025417
 20
181.004594
 30
0.0
  0
SPLINE
  5
110
100
AcDbEntity
  8
0
 62
7
100
AcDbSpline
 70
8
 71
3
 72
8
 73
4
 74
0
 40
0
 40
0
 40
0
 40
0
 40
1
 40
1
 40
1
 40
1
 10
34.025417
 20
181.004594
 30
0.0
 10
33.683928
 20
180.679856
 30
0.0
 10
33.013015
 20
180.140215
 30
0.0
 10
32.534931
 20
179.805149
 30
0.0
  0
SPLINE
  5
111
100
AcDbEntity
  8
0
 62
7
100
AcDbSpline
 70
8
 71
3
 72
8
 73
4
 74
0
 40
0
 40
0
 40
0
 40
0
 40
1
 40
1
 40
1
 40
1
 10
32.534931
 20
179.805149
 30
0.0
 10
31.572804
 20
179.130843
 30
0.0
 10
29.060069
 20
176.636563
 30
0.0
 10
29.060069
 20
176.356747
 30
0.0
  0
SPLINE
  5
112
100
AcDbEntity
  8
0
 62
7
100
AcDbSpline
 70
8
 71
3
 72
8
 73
4
 74
0
 40
0
 40
0
 40
0
 40
0
 40
1
 40
1
 40
1
 40
1
 10
29.060069
 20
176.356747
 30
0.0
 10
29.060069
 20
176.258963
 30
0.0
 10
28.665029
 20
175.749804
 30
0.0
 10
28.186944
 20
175.227858
 30
0.0
  0
SPLINE
  5
113
100
AcDbEntity
  8
0
 62
7
100
AcDbSpline
 70
8
 71
3
 72
8
 73
4
 74
0
 40
0
 40
0
 40
0
 40
0
 40
1
 40
1
 40
1
 40
1
 10
28.186944
 20
175.227858
 30
0.0
 10
27.708860
 20
174.705911
 30
0.0
 10
27.322639
 20
174.229765
 30
0.0
 10
27.322639
 20
174.169524
 30
0.0
  0
SPLINE
  5
114
100
AcDbEntity
  8
0
 62
7
100
AcDbSpline
 70
8
 71
3
 72
8
 73
4
 74
0
 40
0
 40
0
 40
0
 40
0
 40
1
 40
1
 40
1
 40
1
 10
27.322639
 20
174.169524
 30
0.0
 10
27.322639
 20
174.109281
 30
0.0
 10
27.037947
 20
173.700017
 30
0.0
 10
26.696458
 20
173.252302
 30
0.0
  0
SPLINE
  5
115
100
AcDbEntity
  8
0
 62
7
100
AcDbSpline
 70
8
 71
3
 72
8
 73
4
 74
0
 40
0
 40
0
 40
0
 40
0
 40
1
 40
1
 40
1
 40
1
 10
26.696458
 20
173.252302
 30
0.0
 10
26.354969
 20
172.804588
 30
0.0
 10
26.079097
 20
172.311015
 30
0.0
 10
26.079097
 20
172.158691
 30
0.0
  0
SPLINE
  5
116
100
AcDbEntity
  8
0
 62
7
100
AcDbSpline
 70
8
 71
3
 72
8
 73
4
 74
0
 40
0
 40
0
 40
0
 40
0
 40
1
 40
1
 40
1
 40
1
 10
26.079097
 20
172.158691
 30
0.0
 10
26.079097
 20
172.006367
 30
0.0
 10
25.808996
 20
171.624893
 30
0.0
 10
25.479375
 20
171.312024
 30
0.0
  0
SPLINE
  5
117
100
AcDbEntity
  8
0
 62
7
100
AcDbSpline
 70
8
 71
3
 72
8
 73
4
 74
0
 40
0
 40
0
 40
0
 40
0
 40
1
 40
1
 40
1
 40
1
 10
25.479375
 20
171.312024
 30
0.0
 10
25.149748
 20
170.999158
 30
0.0
 10
24.578083
 20
170.021493
 30
0.0
 10
24.209375
 20
169.133622
 30
0.0
  0
SPLINE
  5
118
100
AcDbEntity
  8
0
 62
7
100
AcDbSpline
 70
8
 71
3
 72
8
 73
4
 74
0
 40
0
 40
0
 40
0
 40
0
 40
1
 40
1
 40
1
 40
1
 10
24.209375
 20
169.133622
 30
0.0
 10
23.840667
 20
168.245750
 30
0.0
 10
23.455585
 20
167.455669
 30
0.0
 10
23.353889
 20
167.387372
 30
0.0
  0
SPLINE
  5
119
100
AcDbEntity
  8
0
 62
7
100
AcDbSpline
 70
8
 71
3
 72
8
 73
4
 74
0
 40
0
 40
0
 40
0
 40
0
 40
1
 40
1
 40
1
 40
1
 10
23.353889
 20
167.387372
 30
0.0
 10
23.252193
 20
167.319074
 30
0.0
 10
22.797351
 20
166.206764
 30
0.0
 10
22.348472
 20
164.909108
 30
0.0
  0
SPLINE
  5
11a
100
AcDbEntity
  8
0
 62
7
100
AcDbSpline
 70
8
 71
3
 72
8
 73
4
 74
0
 40
0
 40
0
 40
0
 40
0
 40
1
 40
1
 40
1
 40
1
 10
22.348472
 20
164.909108
 30
0.0
 10
21.899594
 20
163.611450
 30
0.0
 10
21.453425
 20
162.490322
 30
0.0
 10
21.351875
 20
162.422024
 30
0.0
  0
SPLINE
  5
11b
100
AcDbEntity
  8
0
 62
7
100
AcDbSpline
 70
8
 71
3
 72
8
 73
4
 74
0
 40
0
 40
0
 40
0
 40
0
 40
1
 40
1
 40
1
 40
1
 10
21.351875
 20
162.422024
 30
0.0
 10
21.064533
 20
162.228773
 30
0.0
 10
19.922245
 20
157.717490
 30
0.0
 10
19.729097
 20
156.010288
 30
0.0
  0
SPLINE
  5
11c
100
AcDbEntity
  8
0
 62
7
100
AcDbSpline
 70
8
 71
3
 72
8
 73
4
 74
0
 40
0
 40
0
 40
0
 40
0
 40
1
 40
1
 40
1
 40
1
 10
19.729097
 20
156.010288
 30
0.0
 10
19.633754
 20
155.167567
 30
0.0
 10
19.459994
 20
154.475705
 30
0.0
 10
19.341042
 20
154.475705
 30
0.0
  0
SPLINE
  5
11d
100
AcDbEntity
  8
0
 62
7
100
AcDbSpline
 70
8
 71
3
 72
8
 73
4
 74
0
 40
0
 40
0
 40
0
 40
0
 40
1
 40
1
 40
1
 40
1
 10
19.341042
 20
154.475705
 30
0.0
 10
19.061379
 20
154.475705
 30
0.0
 10
19.052713
 20
151.312984
 30
0.0
 10
19.332222
 20
151.203691
 30
0.0
  0
SPLINE
  5
11e
100
AcDbEntity
  8
0
 62
7
100
AcDbSpline
 70
8
 71
3
 72
8
 73
4
 74
0
 40
0
 40
0
 40
0
 40
0
 40
1
 40
1
 40
1
 40
1
 10
19.332222
 20
151.203691
 30
0.0
 10
19.448668
 20
151.158160
 30
0.0
 10
19.626562
 20
150.090719
 30
0.0
 10
19.720278
 20
148.822441
 30
0.0
  0
SPLINE
  5
11f
100
AcDbEntity
  8
0
 62
7
100
AcDbSpline
 70
8
 71
3
 72
8
 73
4
 74
0
 40
0
 40
0
 40
0
 40
0
 40
1
 40
1
 40
1
 40
1
 10
18.961806
 20
146.123691
 30
0.0
 10
18.452021
 20
145.910692
 30
0.0
 10
17.639620
 20
145.671069
 30
0.0
 10
17.153819
 20
145.594524
 30
0.0
  0
SPLINE
  5
120
100
AcDbEntity
  8
0
 62
7
100
AcDbSpline
 70
8
 71
3
 72
8
 73
4
 74
0
 40
0
 40
0
 40
0
 40
0
 40
1
 40
1
 40
1
 40
1
 10
17.153819
 20
145.594524
 30
0.0
 10
16.668018
 20
145.517980
 30
0.0
 10
16.207881
 20
145.383606
 30
0.0
 10
16.139583
 20
145.294663
 30
0.0
  0
SPLINE
  5
121
100
AcDbEntity
  8
0
 62
7
100
AcDbSpline
 70
8
 71
3
 72
8
 73
4
 74
0
 40
0
 40
0
 40
0
 40
0
 40
1
 40
1
 40
1
 40
1
 10
16.139583
 20
145.294663
 30
0.0
 10
16.071286
 20
145.205718
 30
0.0
 10
15.149724
 20
144.823409
 30
0.0
 10
14.084653
 20
144.439177
 30
0.0
  0
SPLINE
  5
122
100
AcDbEntity
  8
0
 62
7
100
AcDbSpline
 70
8
 71
3
 72
8
 73
4
 74
0
 40
0
 40
0
 40
0
 40
0
 40
1
 40
1
 40
1
 40
1
 10
14.084653
 20
144.439177
 30
0.0
 10
13.019581
 20
144.054946
 30
0.0
 10
12.010886
 20
143.614752
 30
0.0
 10
11.844514
 20
143.460219
 30
0.0
  0
SPLINE
  5
123
100
AcDbEntity
  8
0
 62
7
100
AcDbSpline
 70
8
 71
3
 72
8
 73
4
 74
0
 40
0
 40
0
 40
0
 40
0
 40
1
 40
1
 40
1
 40
1
 10
11.844514
 20
143.460219
 30
0.0
 10
11.678142
 20
143.305688
 30
0.0
 10
11.115598
 20
142.964713
 30
0.0
 10
10.600972
 20
142.701747
 30
0.0
  0
SPLINE
  5
124
100
AcDbEntity
  8
0
 62
7
100
AcDbSpline
 70
8
 71
3
 72
8
 73
4
 74
0
 40
0
 40
0
 40
0
 40
0
 40
1
 40
1
 40
1
 40
1
 10
10.600972
 20
142.701747
 30
0.0
 10
9.699022
 20
142.240872
 30
0.0
 10
9.603583
 20
142.235916
 30
0.0
 10
7.875764
 20
142.640010
 30
0.0
  0
SPLINE
  5
125
100
AcDbEntity
  8
0
 62
7
100
AcDbSpline
 70
8
 71
3
 72
8
 73
4
 74
0
 40
0
 40
0
 40
0
 40
0
 40
1
 40
1
 40
1
 40
1
 10
7.875764
 20
142.640010
 30
0.0
 10
6.889923
 20
142.870572
 30
0.0
 10
5.837132
 20
143.056218
 30
0.0
 10
5.529792
 20
143.054524
 30
0.0
  0
SPLINE
  5
126
100
AcDbEntity
  8
0
 62
7
100
AcDbSpline
 70
8
 71
3
 72
8
 73
4
 74
0
 40
0
 40
0
 40
0
 40
0
 40
1
 40
1
 40
1
 40
1
 10
5.529792
 20
143.054524
 30
0.0
 10
5.222452
 20
143.052775
 30
0.0
 10
4.965347
 20
143.164873
 30
0.0
 10
4.965347
 20
143.301469
 30
0.0
  0
SPLINE
  5
127
100
AcDbEntity
  8
0
 62
7
100
AcDbSpline
 70
8
 71
3
 72
8
 73
4
 74
0
 40
0
 40
0
 40
0
 40
0
 40
1
 40
1
 40
1
 40
1
 10
4.965347
 20
143.301469
 30
0.0
 10
4.965347
 20
143.587605
 30
0.0
 10
3.811023
 20
143.643319
 30
0.0
 10
3.686528
 20
143.363205
 30
0.0
  0
SPLINE
  5
128
100
AcDbEntity
  8
0
 62
7
100
AcDbSpline
 70
8
 71
3
 72
8
 73
4
 74
0
 40
0
 40
0
 40
0
 40
0
 40
1
 40
1
 40
1
 40
1
 10
3.686528
 20
143.363205
 30
0.0
 10
3.640996
 20
143.260758
 30
0.0
 10
3.267287
 20
143.008006
 30
0.0
 10
2.857500
 20
142.798760
 30
0.0
  0
SPLINE
  5
129
100
AcDbEntity
  8
0
 62
7
100
AcDbSpline
 70
8
 71
3
 72
8
 73
4
 74
0
 40
0
 40
0
 40
0
 40
0
 40
1
 40
1
 40
1
 40
1
 10
2.857500
 20
142.798760
 30
0.0
 10
2.223707
 20
142.475139
 30
0.0
 10
2.099103
 20
142.252237
 30
0.0
 10
2.028472
 20
141.308274
 30
0.0
  0
SPLINE
  5
12a
100
AcDbEntity
  8
0
 62
7
100
AcDbSpline
 70
8
 71
3
 72
8
 73
4
 74
0
 40
0
 40
0
 40
0
 40
0
 40
1
 40
1
 40
1
 40
1
 10
2.028472
 20
141.308274
 30
0.0
 10
1.941251
 20
140.142584
 30
0.0
 10
2.430737
 20
137.586469
 30
0.0
 10
2.742847
 20
137.586469
 30
0.0
  0
SPLINE
  5
12b
100
AcDbEntity
  8
0
 62
7
100
AcDbSpline
 70
8
 71
3
 72
8
 73
4
 74
0
 40
0
 40
0
 40
0
 40
0
 40
1
 40
1
 40
1
 40
1
 10
2.742847
 20
137.586469
 30
0.0
 10
2.843101
 20
137.586469
 30
0.0
 10
3.218502
 20
136.864036
 30
0.0
 10
3.571875
 20
135.981330
 30
0.0
  0
LWPOLYLINE
  5
12c
100
AcDbEntity
  8
0
 62
7
100
AcDbPolyline
 90
3
 70
0
 10
19.720278
 20
148.822441
 30
0.0
 10
19.887847
 20
146.511747
 30
0.0
 10
18.961806
 20
146.123691
 30
0.0
  0
SPLINE
  5
12d
100
AcDbEntity
  8
0
 62
7
100
AcDbSpline
 70
8
 71
3
 72
8
 73
4
 74
0
 40
0
 40
0
 40
0
 40
0
 40
1
 40
1
 40
1
 40
1
 10
3.748264
 20
133.317858
 30
0.0
 10
3.493980
 20
132.732162
 30
0.0
 10
3.049943
 20
131.979224
 30
0.0
 10
2.760486
 20
131.650983
 30
0.0
  0
SPLINE
  5
12e
100
AcDbEntity
  8
0
 62
7
100
AcDbSpline
 70
8
 71
3
 72
8
 73
4
 74
0
 40
0
 40
0
 40
0
 40
0
 40
1
 40
1
 40
1
 40
1
 10
2.760486
 20
131.650983
 30
0.0
 10
2.207164
 20
131.023524
 30
0.0
 10
2.123249
 20
130.677525
 30
0.0
 10
2.425347
 20
130.266330
 30
0.0
  0
SPLINE
  5
12f
100
AcDbEntity
  8
0
 62
7
100
AcDbSpline
 70
8
 71
3
 72
8
 73
4
 74
0
 40
0
 40
0
 40
0
 40
0
 40
1
 40
1
 40
1
 40
1
 10
2.425347
 20
130.266330
 30
0.0
 10
2.622266
 20
129.998301
 30
0.0
 10
6.226524
 20
128.433937
 30
0.0
 10
7.143750
 20
128.220219
 30
0.0
  0
SPLINE
  5
130
100
AcDbEntity
  8
0
 62
7
100
AcDbSpline
 70
8
 71
3
 72
8
 73
4
 74
0
 40
0
 40
0
 40
0
 40
0
 40
1
 40
1
 40
1
 40
1
 10
7.143750
 20
128.220219
 30
0.0
 10
7.451090
 20
128.148608
 30
0.0
 10
7.699375
 20
127.996933
 30
0.0
 10
7.699375
 20
127.876260
 30
0.0
  0
SPLINE
  5
131
100
AcDbEntity
  8
0
 62
7
100
AcDbSpline
 70
8
 71
3
 72
8
 73
4
 74
0
 40
0
 40
0
 40
0
 40
0
 40
1
 40
1
 40
1
 40
1
 10
7.699375
 20
127.876260
 30
0.0
 10
7.699375
 20
127.755591
 30
0.0
 10
7.843951
 20
127.655774
 30
0.0
 10
8.025694
 20
127.655774
 30
0.0
  0
SPLINE
  5
132
100
AcDbEntity
  8
0
 62
7
100
AcDbSpline
 70
8
 71
3
 72
8
 73
4
 74
0
 40
0
 40
0
 40
0
 40
0
 40
1
 40
1
 40
1
 40
1
 10
8.025694
 20
127.655774
 30
0.0
 10
8.207438
 20
127.655774
 30
0.0
 10
8.905938
 20
127.379326
 30
0.0
 10
9.577917
 20
127.038413
 30
0.0
  0
SPLINE
  5
133
100
AcDbEntity
  8
0
 62
7
100
AcDbSpline
 70
8
 71
3
 72
8
 73
4
 74
0
 40
0
 40
0
 40
0
 40
0
 40
1
 40
1
 40
1
 40
1
 10
9.577917
 20
127.038413
 30
0.0
 10
10.249896
 20
126.697494
 30
0.0
 10
10.933874
 20
126.412797
 30
0.0
 10
11.094861
 20
126.412233
 30
0.0
  0
SPLINE
  5
134
100
AcDbEntity
  8
0
 62
7
100
AcDbSpline
 70
8
 71
3
 72
8
 73
4
 74
0
 40
0
 40
0
 40
0
 40
0
 40
1
 40
1
 40
1
 40
1
 10
11.094861
 20
126.412233
 30
0.0
 10
11.255849
 20
126.411657
 30
0.0
 10
11.539135
 20
126.267820
 30
0.0
 10
11.721042
 20
126.085913
 30
0.0
  0
SPLINE
  5
135
100
AcDbEntity
  8
0
 62
7
100
AcDbSpline
 70
8
 71
3
 72
8
 73
4
 74
0
 40
0
 40
0
 40
0
 40
0
 40
1
 40
1
 40
1
 40
1
 10
11.721042
 20
126.085913
 30
0.0
 10
11.902948
 20
125.904007
 30
0.0
 10
13.114720
 20
125.372362
 30
0.0
 10
14.410972
 20
124.912927
 30
0.0
  0
SPLINE
  5
136
100
AcDbEntity
  8
0
 62
7
100
AcDbSpline
 70
8
 71
3
 72
8
 73
4
 74
0
 40
0
 40
0
 40
0
 40
0
 40
1
 40
1
 40
1
 40
1
 10
14.410972
 20
124.912927
 30
0.0
 10
15.707225
 20
124.453492
 30
0.0
 10
16.834597
 20
123.981012
 30
0.0
 10
16.915694
 20
123.863413
 30
0.0
  0
SPLINE
  5
137
100
AcDbEntity
  8
0
 62
7
100
AcDbSpline
 70
8
 71
3
 72
8
 73
4
 74
0
 40
0
 40
0
 40
0
 40
0
 40
1
 40
1
 40
1
 40
1
 10
16.915694
 20
123.863413
 30
0.0
 10
16.996791
 20
123.745814
 30
0.0
 10
17.668541
 20
123.587677
 30
0.0
 10
18.415000
 20
123.510635
 30
0.0
  0
SPLINE
  5
138
100
AcDbEntity
  8
0
 62
7
100
AcDbSpline
 70
8
 71
3
 72
8
 73
4
 74
0
 40
0
 40
0
 40
0
 40
0
 40
1
 40
1
 40
1
 40
1
 10
18.415000
 20
123.510635
 30
0.0
 10
19.501533
 20
123.398494
 30
0.0
 10
19.859553
 20
123.455882
 30
0.0
 10
20.205347
 20
123.801677
 30
0.0
  0
SPLINE
  5
139
100
AcDbEntity
  8
0
 62
7
100
AcDbSpline
 70
8
 71
3
 72
8
 73
4
 74
0
 40
0
 40
0
 40
0
 40
0
 40
1
 40
1
 40
1
 40
1
 10
20.205347
 20
123.801677
 30
0.0
 10
20.442911
 20
124.039238
 30
0.0
 10
20.691000
 20
124.180332
 30
0.0
 10
20.760972
 20
124.110358
 30
0.0
  0
SPLINE
  5
13a
100
AcDbEntity
  8
0
 62
7
100
AcDbSpline
 70
8
 71
3
 72
8
 73
4
 74
0
 40
0
 40
0
 40
0
 40
0
 40
1
 40
1
 40
1
 40
1
 10
20.760972
 20
124.110358
 30
0.0
 10
20.941534
 20
123.929798
 30
0.0
 10
20.146492
 20
111.746309
 30
0.0
 10
19.852569
 20
110.193274
 30
0.0
  0
SPLINE
  5
13b
100
AcDbEntity
  8
0
 62
7
100
AcDbSpline
 70
8
 71
3
 72
8
 73
4
 74
0
 40
0
 40
0
 40
0
 40
0
 40
1
 40
1
 40
1
 40
1
 10
19.852569
 20
110.193274
 30
0.0
 10
19.718390
 20
109.484293
 30
0.0
 10
19.501431
 20
108.862972
 30
0.0
 10
19.367500
 20
108.817441
 30
0.0
  0
SPLINE
  5
13c
100
AcDbEntity
  8
0
 62
7
100
AcDbSpline
 70
8
 71
3
 72
8
 73
4
 74
0
 40
0
 40
0
 40
0
 40
0
 40
1
 40
1
 40
1
 40
1
 10
19.367500
 20
108.817441
 30
0.0
 10
19.233569
 20
108.771907
 30
0.0
 10
19.120556
 20
108.547343
 30
0.0
 10
19.120556
 20
108.314733
 30
0.0
  0
SPLINE
  5
13d
100
AcDbEntity
  8
0
 62
7
100
AcDbSpline
 70
8
 71
3
 72
8
 73
4
 74
0
 40
0
 40
0
 40
0
 40
0
 40
1
 40
1
 40
1
 40
1
 10
19.120556
 20
108.314733
 30
0.0
 10
19.120556
 20
108.082120
 30
0.0
 10
18.862059
 20
107.224353
 30
0.0
 10
18.547292
 20
106.409733
 30
0.0
  0
SPLINE
  5
13e
100
AcDbEntity
  8
0
 62
7
100
AcDbSpline
 70
8
 71
3
 72
8
 73
4
 74
0
 40
0
 40
0
 40
0
 40
0
 40
1
 40
1
 40
1
 40
1
 10
18.547292
 20
106.409733
 30
0.0
 10
18.121204
 20
105.307011
 30
0.0
 10
17.795490
 20
104.837351
 30
0.0
 10
17.250833
 20
104.575288
 30
0.0
  0
SPLINE
  5
13f
100
AcDbEntity
  8
0
 62
7
100
AcDbSpline
 70
8
 71
3
 72
8
 73
4
 74
0
 40
0
 40
0
 40
0
 40
0
 40
1
 40
1
 40
1
 40
1
 10
17.250833
 20
104.575288
 30
0.0
 10
16.848474
 20
104.381689
 30
0.0
 10
16.399651
 20
104.085430
 30
0.0
 10
16.263056
 20
103.913830
 30
0.0
  0
SPLINE
  5
140
100
AcDbEntity
  8
0
 62
7
100
AcDbSpline
 70
8
 71
3
 72
8
 73
4
 74
0
 40
0
 40
0
 40
0
 40
0
 40
1
 40
1
 40
1
 40
1
 10
16.263056
 20
103.913830
 30
0.0
 10
16.126460
 20
103.742233
 30
0.0
 10
15.464367
 20
103.298667
 30
0.0
 10
14.781389
 20
102.926052
 30
0.0
  0
SPLINE
  5
141
100
AcDbEntity
  8
0
 62
7
100
AcDbSpline
 70
8
 71
3
 72
8
 73
4
 74
0
 40
0
 40
0
 40
0
 40
0
 40
1
 40
1
 40
1
 40
1
 10
14.781389
 20
102.926052
 30
0.0
 10
14.098411
 20
102.553437
 30
0.0
 10
13.482673
 20
102.177723
 30
0.0
 10
13.414375
 20
102.088205
 30
0.0
  0
SPLINE
  5
142
100
AcDbEntity
  8
0
 62
7
100
AcDbSpline
 70
8
 71
3
 72
8
 73
4
 74
0
 40
0
 40
0
 40
0
 40
0
 40
1
 40
1
 40
1
 40
1
 10
13.414375
 20
102.088205
 30
0.0
 10
13.346077
 20
101.998690
 30
0.0
 10
12.923449
 20
101.773877
 30
0.0
 10
12.479514
 20
101.594316
 30
0.0
  0
SPLINE
  5
143
100
AcDbEntity
  8
0
 62
7
100
AcDbSpline
 70
8
 71
3
 72
8
 73
4
 74
0
 40
0
 40
0
 40
0
 40
0
 40
1
 40
1
 40
1
 40
1
 10
12.479514
 20
101.594316
 30
0.0
 10
12.035578
 20
101.414755
 30
0.0
 10
11.676944
 20
101.167534
 30
0.0
 10
11.676944
 20
101.047510
 30
0.0
  0
SPLINE
  5
144
100
AcDbEntity
  8
0
 62
7
100
AcDbSpline
 70
8
 71
3
 72
8
 73
4
 74
0
 40
0
 40
0
 40
0
 40
0
 40
1
 40
1
 40
1
 40
1
 10
11.676944
 20
101.047510
 30
0.0
 10
11.676944
 20
100.759266
 30
0.0
 10
12.355523
 20
100.767165
 30
0.0
 10
12.461875
 20
101.056330
 30
0.0
  0
SPLINE
  5
145
100
AcDbEntity
  8
0
 62
7
100
AcDbSpline
 70
8
 71
3
 72
8
 73
4
 74
0
 40
0
 40
0
 40
0
 40
0
 40
1
 40
1
 40
1
 40
1
 10
12.461875
 20
101.056330
 30
0.0
 10
12.576373
 20
101.367649
 30
0.0
 10
15.198663
 20
101.641972
 30
0.0
 10
15.583958
 20
101.382649
 30
0.0
  0
SPLINE
  5
146
100
AcDbEntity
  8
0
 62
7
100
AcDbSpline
 70
8
 71
3
 72
8
 73
4
 74
0
 40
0
 40
0
 40
0
 40
0
 40
1
 40
1
 40
1
 40
1
 10
15.583958
 20
101.382649
 30
0.0
 10
15.825555
 20
101.220039
 30
0.0
 10
15.840520
 20
100.986709
 30
0.0
 10
15.628056
 20
100.377233
 30
0.0
  0
SPLINE
  5
147
100
AcDbEntity
  8
0
 62
7
100
AcDbSpline
 70
8
 71
3
 72
8
 73
4
 74
0
 40
0
 40
0
 40
0
 40
0
 40
1
 40
1
 40
1
 40
1
 10
15.628056
 20
100.377233
 30
0.0
 10
15.476462
 20
99.942371
 30
0.0
 10
15.270435
 20
99.592302
 30
0.0
 10
15.178264
 20
99.592302
 30
0.0
  0
SPLINE
  5
148
100
AcDbEntity
  8
0
 62
7
100
AcDbSpline
 70
8
 71
3
 72
8
 73
4
 74
0
 40
0
 40
0
 40
0
 40
0
 40
1
 40
1
 40
1
 40
1
 10
15.178264
 20
99.592302
 30
0.0
 10
15.086093
 20
99.592302
 30
0.0
 10
14.823317
 20
99.197262
 30
0.0
 10
14.587361
 20
98.719177
 30
0.0
  0
LWPOLYLINE
  5
149
100
AcDbEntity
  8
0
 62
7
100
AcDbPolyline
 90
3
 70
0
 10
3.571875
 20
135.981330
 30
0.0
 10
4.215694
 20
134.376191
 30
0.0
 10
3.748264
 20
133.317858
 30
0.0
  0
SPLINE
  5
14a
100
AcDbEntity
  8
0
 62
7
100
AcDbSpline
 70
8
 71
3
 72
8
 73
4
 74
0
 40
0
 40
0
 40
0
 40
0
 40
1
 40
1
 40
1
 40
1
 10
13.723056
 20
96.981747
 30
0.0
 10
13.487100
 20
96.503662
 30
0.0
 10
13.211228
 20
96.117441
 30
0.0
 10
13.105694
 20
96.117441
 30
0.0
  0
SPLINE
  5
14b
100
AcDbEntity
  8
0
 62
7
100
AcDbSpline
 70
8
 71
3
 72
8
 73
4
 74
0
 40
0
 40
0
 40
0
 40
0
 40
1
 40
1
 40
1
 40
1
 10
13.105694
 20
96.117441
 30
0.0
 10
13.000161
 20
96.117441
 30
0.0
 10
12.911667
 20
95.931256
 30
0.0
 10
12.911667
 20
95.711747
 30
0.0
  0
SPLINE
  5
14c
100
AcDbEntity
  8
0
 62
7
100
AcDbSpline
 70
8
 71
3
 72
8
 73
4
 74
0
 40
0
 40
0
 40
0
 40
0
 40
1
 40
1
 40
1
 40
1
 10
12.911667
 20
95.711747
 30
0.0
 10
12.911667
 20
95.429056
 30
0.0
 10
13.044790
 20
95.364531
 30
0.0
 10
13.352639
 20
95.491260
 30
0.0
  0
SPLINE
  5
14d
100
AcDbEntity
  8
0
 62
7
100
AcDbSpline
 70
8
 71
3
 72
8
 73
4
 74
0
 40
0
 40
0
 40
0
 40
0
 40
1
 40
1
 40
1
 40
1
 10
13.352639
 20
95.491260
 30
0.0
 10
14.466703
 20
95.949897
 30
0.0
 10
14.741202
 20
95.955767
 30
0.0
 10
14.569722
 20
95.508899
 30
0.0
  0
SPLINE
  5
14e
100
AcDbEntity
  8
0
 62
7
100
AcDbSpline
 70
8
 71
3
 72
8
 73
4
 74
0
 40
0
 40
0
 40
0
 40
0
 40
1
 40
1
 40
1
 40
1
 10
14.569722
 20
95.508899
 30
0.0
 10
14.477802
 20
95.269360
 30
0.0
 10
14.340102
 20
94.778235
 30
0.0
 10
14.261042
 20
94.415288
 30
0.0
  0
SPLINE
  5
14f
100
AcDbEntity
  8
0
 62
7
100
AcDbSpline
 70
8
 71
3
 72
8
 73
4
 74
0
 40
0
 40
0
 40
0
 40
0
 40
1
 40
1
 40
1
 40
1
 10
14.261042
 20
94.415288
 30
0.0
 10
13.991118
 20
93.176135
 30
0.0
 10
13.294786
 20
91.273139
 30
0.0
 10
13.043958
 20
91.090358
 30
0.0
  0
SPLINE
  5
150
100
AcDbEntity
  8
0
 62
7
100
AcDbSpline
 70
8
 71
3
 72
8
 73
4
 74
0
 40
0
 40
0
 40
0
 40
0
 40
1
 40
1
 40
1
 40
1
 10
13.043958
 20
91.090358
 30
0.0
 10
12.886169
 20
90.975378
 30
0.0
 10
12.906006
 20
90.907689
 30
0.0
 10
13.096875
 20
90.905149
 30
0.0
  0
SPLINE
  5
151
100
AcDbEntity
  8
0
 62
7
100
AcDbSpline
 70
8
 71
3
 72
8
 73
4
 74
0
 40
0
 40
0
 40
0
 40
0
 40
1
 40
1
 40
1
 40
1
 10
13.096875
 20
90.905149
 30
0.0
 10
13.452078
 20
90.900693
 30
0.0
 10
15.097827
 20
91.788852
 30
0.0
 10
15.663333
 20
92.289802
 30
0.0
  0
SPLINE
  5
152
100
AcDbEntity
  8
0
 62
7
100
AcDbSpline
 70
8
 71
3
 72
8
 73
4
 74
0
 40
0
 40
0
 40
0
 40
0
 40
1
 40
1
 40
1
 40
1
 10
15.663333
 20
92.289802
 30
0.0
 10
15.878982
 20
92.480836
 30
0.0
 10
16.171915
 20
92.633760
 30
0.0
 10
16.315972
 20
92.633760
 30
0.0
  0
SPLINE
  5
153
100
AcDbEntity
  8
0
 62
7
100
AcDbSpline
 70
8
 71
3
 72
8
 73
4
 74
0
 40
0
 40
0
 40
0
 40
0
 40
1
 40
1
 40
1
 40
1
 10
16.315972
 20
92.633760
 30
0.0
 10
16.460030
 20
92.633760
 30
0.0
 10
16.654703
 20
92.890865
 30
0.0
 10
16.748125
 20
93.198205
 30
0.0
  0
SPLINE
  5
154
100
AcDbEntity
  8
0
 62
7
100
AcDbSpline
 70
8
 71
3
 72
8
 73
4
 74
0
 40
0
 40
0
 40
0
 40
0
 40
1
 40
1
 40
1
 40
1
 10
16.748125
 20
93.198205
 30
0.0
 10
16.859556
 20
93.564789
 30
0.0
 10
16.968848
 20
93.642815
 30
0.0
 10
17.056806
 20
93.427510
 30
0.0
  0
SPLINE
  5
155
100
AcDbEntity
  8
0
 62
7
100
AcDbSpline
 70
8
 71
3
 72
8
 73
4
 74
0
 40
0
 40
0
 40
0
 40
0
 40
1
 40
1
 40
1
 40
1
 10
17.056806
 20
93.427510
 30
0.0
 10
17.130548
 20
93.247001
 30
0.0
 10
16.977134
 20
92.851961
 30
0.0
 10
16.721667
 20
92.554385
 30
0.0
  0
SPLINE
  5
156
100
AcDbEntity
  8
0
 62
7
100
AcDbSpline
 70
8
 71
3
 72
8
 73
4
 74
0
 40
0
 40
0
 40
0
 40
0
 40
1
 40
1
 40
1
 40
1
 10
16.721667
 20
92.554385
 30
0.0
 10
16.466199
 20
92.256808
 30
0.0
 10
16.047527
 20
91.621359
 30
0.0
 10
15.786806
 20
91.143274
 30
0.0
  0
SPLINE
  5
157
100
AcDbEntity
  8
0
 62
7
100
AcDbSpline
 70
8
 71
3
 72
8
 73
4
 74
0
 40
0
 40
0
 40
0
 40
0
 40
1
 40
1
 40
1
 40
1
 10
15.786806
 20
91.143274
 30
0.0
 10
15.526084
 20
90.665190
 30
0.0
 10
15.165663
 20
90.185356
 30
0.0
 10
14.984236
 20
90.076122
 30
0.0
  0
SPLINE
  5
158
100
AcDbEntity
  8
0
 62
7
100
AcDbSpline
 70
8
 71
3
 72
8
 73
4
 74
0
 40
0
 40
0
 40
0
 40
0
 40
1
 40
1
 40
1
 40
1
 10
14.984236
 20
90.076122
 30
0.0
 10
14.293168
 20
89.660039
 30
0.0
 10
14.653033
 20
89.361605
 30
0.0
 10
15.645694
 20
89.529316
 30
0.0
  0
LWPOLYLINE
  5
159
100
AcDbEntity
  8
0
 62
7
100
AcDbPolyline
 90
2
 70
0
 10
14.587361
 20
98.719177
 30
0.0
 10
13.723056
 20
96.981747
 30
0.0
  0
SPLINE
  5
15a
100
AcDbEntity
  8
0
 62
7
100
AcDbSpline
 70
8
 71
3
 72
8
 73
4
 74
0
 40
0
 40
0
 40
0
 40
0
 40
1
 40
1
 40
1
 40
1
 10
16.633472
 20
88.744385
 30
0.0
 10
16.631398
 20
88.220144
 30
0.0
 10
16.401136
 20
86.560409
 30
0.0
 10
16.121944
 20
85.057858
 30
0.0
  0
SPLINE
  5
15b
100
AcDbEntity
  8
0
 62
7
100
AcDbSpline
 70
8
 71
3
 72
8
 73
4
 74
0
 40
0
 40
0
 40
0
 40
0
 40
1
 40
1
 40
1
 40
1
 10
16.121944
 20
85.057858
 30
0.0
 10
15.842752
 20
83.555307
 30
0.0
 10
15.556220
 20
81.965196
 30
0.0
 10
15.478125
 20
81.521260
 30
0.0
  0
SPLINE
  5
15c
100
AcDbEntity
  8
0
 62
7
100
AcDbSpline
 70
8
 71
3
 72
8
 73
4
 74
0
 40
0
 40
0
 40
0
 40
0
 40
1
 40
1
 40
1
 40
1
 10
15.478125
 20
81.521260
 30
0.0
 10
15.400030
 20
81.077325
 30
0.0
 10
15.246507
 20
80.718691
 30
0.0
 10
15.142986
 20
80.718691
 30
0.0
  0
SPLINE
  5
15d
100
AcDbEntity
  8
0
 62
7
100
AcDbSpline
 70
8
 71
3
 72
8
 73
4
 74
0
 40
0
 40
0
 40
0
 40
0
 40
1
 40
1
 40
1
 40
1
 10
15.142986
 20
80.718691
 30
0.0
 10
15.039465
 20
80.718691
 30
0.0
 10
14.876392
 20
80.296063
 30
0.0
 10
14.781389
 20
79.783830
 30
0.0
  0
SPLINE
  5
15e
100
AcDbEntity
  8
0
 62
7
100
AcDbSpline
 70
8
 71
3
 72
8
 73
4
 74
0
 40
0
 40
0
 40
0
 40
0
 40
1
 40
1
 40
1
 40
1
 10
14.781389
 20
79.783830
 30
0.0
 10
14.631829
 20
78.977439
 30
0.0
 10
13.691706
 20
77.381374
 30
0.0
 10
13.132153
 20
76.988066
 30
0.0
  0
SPLINE
  5
15f
100
AcDbEntity
  8
0
 62
7
100
AcDbSpline
 70
8
 71
3
 72
8
 73
4
 74
0
 40
0
 40
0
 40
0
 40
0
 40
1
 40
1
 40
1
 40
1
 10
13.132153
 20
76.988066
 30
0.0
 10
12.507861
 20
76.549258
 30
0.0
 10
11.922472
 20
72.772372
 30
0.0
 10
12.479514
 20
72.772372
 30
0.0
  0
SPLINE
  5
160
100
AcDbEntity
  8
0
 62
7
100
AcDbSpline
 70
8
 71
3
 72
8
 73
4
 74
0
 40
0
 40
0
 40
0
 40
0
 40
1
 40
1
 40
1
 40
1
 10
12.479514
 20
72.772372
 30
0.0
 10
12.811651
 20
72.772372
 30
0.0
 10
13.908264
 20
74.050246
 30
0.0
 10
13.908264
 20
74.439247
 30
0.0
  0
SPLINE
  5
161
100
AcDbEntity
  8
0
 62
7
100
AcDbSpline
 70
8
 71
3
 72
8
 73
4
 74
0
 40
0
 40
0
 40
0
 40
0
 40
1
 40
1
 40
1
 40
1
 10
13.908264
 20
74.439247
 30
0.0
 10
13.908264
 20
74.548517
 30
0.0
 10
14.124439
 20
74.774027
 30
0.0
 10
14.393333
 20
74.941955
 30
0.0
  0
SPLINE
  5
162
100
AcDbEntity
  8
0
 62
7
100
AcDbSpline
 70
8
 71
3
 72
8
 73
4
 74
0
 40
0
 40
0
 40
0
 40
0
 40
1
 40
1
 40
1
 40
1
 10
14.393333
 20
74.941955
 30
0.0
 10
14.662227
 20
75.109883
 30
0.0
 10
15.058671
 20
75.572013
 30
0.0
 10
15.266458
 20
75.973830
 30
0.0
  0
SPLINE
  5
163
100
AcDbEntity
  8
0
 62
7
100
AcDbSpline
 70
8
 71
3
 72
8
 73
4
 74
0
 40
0
 40
0
 40
0
 40
0
 40
1
 40
1
 40
1
 40
1
 10
15.266458
 20
75.973830
 30
0.0
 10
15.734368
 20
76.878668
 30
0.0
 10
17.803435
 20
79.048119
 30
0.0
 10
18.600208
 20
79.466330
 30
0.0
  0
SPLINE
  5
164
100
AcDbEntity
  8
0
 62
7
100
AcDbSpline
 70
8
 71
3
 72
8
 73
4
 74
0
 40
0
 40
0
 40
0
 40
0
 40
1
 40
1
 40
1
 40
1
 10
18.600208
 20
79.466330
 30
0.0
 10
19.104949
 20
79.731255
 30
0.0
 10
19.497089
 20
79.668805
 30
0.0
 10
21.325417
 20
79.069455
 30
0.0
  0
SPLINE
  5
165
100
AcDbEntity
  8
0
 62
7
100
AcDbSpline
 70
8
 71
3
 72
8
 73
4
 74
0
 40
0
 40
0
 40
0
 40
0
 40
1
 40
1
 40
1
 40
1
 10
21.325417
 20
79.069455
 30
0.0
 10
22.502903
 20
78.683457
 30
0.0
 10
23.523716
 20
78.308795
 30
0.0
 10
23.592014
 20
78.231608
 30
0.0
  0
SPLINE
  5
166
100
AcDbEntity
  8
0
 62
7
100
AcDbSpline
 70
8
 71
3
 72
8
 73
4
 74
0
 40
0
 40
0
 40
0
 40
0
 40
1
 40
1
 40
1
 40
1
 10
23.592014
 20
78.231608
 30
0.0
 10
23.660312
 20
78.154417
 30
0.0
 10
24.488658
 20
77.751170
 30
0.0
 10
25.435278
 20
77.340844
 30
0.0
  0
SPLINE
  5
167
100
AcDbEntity
  8
0
 62
7
100
AcDbSpline
 70
8
 71
3
 72
8
 73
4
 74
0
 40
0
 40
0
 40
0
 40
0
 40
1
 40
1
 40
1
 40
1
 10
25.435278
 20
77.340844
 30
0.0
 10
26.381893
 20
76.930515
 30
0.0
 10
27.206747
 20
76.462619
 30
0.0
 10
27.260903
 20
76.300149
 30
0.0
  0
SPLINE
  5
168
100
AcDbEntity
  8
0
 62
7
100
AcDbSpline
 70
8
 71
3
 72
8
 73
4
 74
0
 40
0
 40
0
 40
0
 40
0
 40
1
 40
1
 40
1
 40
1
 10
27.260903
 20
76.300149
 30
0.0
 10
27.315061
 20
76.137680
 30
0.0
 10
26.928106
 20
75.809955
 30
0.0
 10
26.405417
 20
75.568135
 30
0.0
  0
SPLINE
  5
169
100
AcDbEntity
  8
0
 62
7
100
AcDbSpline
 70
8
 71
3
 72
8
 73
4
 74
0
 40
0
 40
0
 40
0
 40
0
 40
1
 40
1
 40
1
 40
1
 10
26.405417
 20
75.568135
 30
0.0
 10
25.882727
 20
75.326316
 30
0.0
 10
25.301589
 20
74.974899
 30
0.0
 10
25.108958
 20
74.792024
 30
0.0
  0
SPLINE
  5
16a
100
AcDbEntity
  8
0
 62
7
100
AcDbSpline
 70
8
 71
3
 72
8
 73
4
 74
0
 40
0
 40
0
 40
0
 40
0
 40
1
 40
1
 40
1
 40
1
 10
25.108958
 20
74.792024
 30
0.0
 10
24.916325
 20
74.609147
 30
0.0
 10
24.162651
 20
74.176052
 30
0.0
 10
23.433264
 20
73.830705
 30
0.0
  0
SPLINE
  5
16b
100
AcDbEntity
  8
0
 62
7
100
AcDbSpline
 70
8
 71
3
 72
8
 73
4
 74
0
 40
0
 40
0
 40
0
 40
0
 40
1
 40
1
 40
1
 40
1
 10
23.433264
 20
73.830705
 30
0.0
 10
22.703877
 20
73.485355
 30
0.0
 10
22.101528
 20
73.131186
 30
0.0
 10
22.101528
 20
73.036955
 30
0.0
  0
SPLINE
  5
16c
100
AcDbEntity
  8
0
 62
7
100
AcDbSpline
 70
8
 71
3
 72
8
 73
4
 74
0
 40
0
 40
0
 40
0
 40
0
 40
1
 40
1
 40
1
 40
1
 10
22.101528
 20
73.036955
 30
0.0
 10
22.101528
 20
72.942724
 30
0.0
 10
21.264675
 20
72.475389
 30
0.0
 10
20.240625
 20
72.005080
 30
0.0
  0
SPLINE
  5
16d
100
AcDbEntity
  8
0
 62
7
100
AcDbSpline
 70
8
 71
3
 72
8
 73
4
 74
0
 40
0
 40
0
 40
0
 40
0
 40
1
 40
1
 40
1
 40
1
 10
20.240625
 20
72.005080
 30
0.0
 10
19.216576
 20
71.534771
 30
0.0
 10
18.380146
 20
71.070518
 30
0.0
 10
18.379722
 20
70.973205
 30
0.0
  0
SPLINE
  5
16e
100
AcDbEntity
  8
0
 62
7
100
AcDbSpline
 70
8
 71
3
 72
8
 73
4
 74
0
 40
0
 40
0
 40
0
 40
0
 40
1
 40
1
 40
1
 40
1
 10
18.379722
 20
70.973205
 30
0.0
 10
18.379305
 20
70.875892
 30
0.0
 10
17.514467
 20
70.388175
 30
0.0
 10
16.457083
 20
69.879594
 30
0.0
  0
SPLINE
  5
16f
100
AcDbEntity
  8
0
 62
7
100
AcDbSpline
 70
8
 71
3
 72
8
 73
4
 74
0
 40
0
 40
0
 40
0
 40
0
 40
1
 40
1
 40
1
 40
1
 10
16.457083
 20
69.879594
 30
0.0
 10
15.399700
 20
69.371015
 30
0.0
 10
14.416509
 20
68.855483
 30
0.0
 10
14.278681
 20
68.741885
 30
0.0
  0
SPLINE
  5
170
100
AcDbEntity
  8
0
 62
7
100
AcDbSpline
 70
8
 71
3
 72
8
 73
4
 74
0
 40
0
 40
0
 40
0
 40
0
 40
1
 40
1
 40
1
 40
1
 10
14.278681
 20
68.741885
 30
0.0
 10
14.140853
 20
68.628288
 30
0.0
 10
13.648447
 20
68.289861
 30
0.0
 10
13.176250
 20
67.983413
 30
0.0
  0
SPLINE
  5
171
100
AcDbEntity
  8
0
 62
7
100
AcDbSpline
 70
8
 71
3
 72
8
 73
4
 74
0
 40
0
 40
0
 40
0
 40
0
 40
1
 40
1
 40
1
 40
1
 10
13.176250
 20
67.983413
 30
0.0
 10
12.704053
 20
67.676965
 30
0.0
 10
12.088314
 20
66.976103
 30
0.0
 10
11.809236
 20
66.431191
 30
0.0
  0
SPLINE
  5
172
100
AcDbEntity
  8
0
 62
7
100
AcDbSpline
 70
8
 71
3
 72
8
 73
4
 74
0
 40
0
 40
0
 40
0
 40
0
 40
1
 40
1
 40
1
 40
1
 10
11.809236
 20
66.431191
 30
0.0
 10
11.530158
 20
65.886282
 30
0.0
 10
11.230083
 20
65.388239
 30
0.0
 10
11.147778
 20
65.319941
 30
0.0
  0
SPLINE
  5
173
100
AcDbEntity
  8
0
 62
7
100
AcDbSpline
 70
8
 71
3
 72
8
 73
4
 74
0
 40
0
 40
0
 40
0
 40
0
 40
1
 40
1
 40
1
 40
1
 10
11.147778
 20
65.319941
 30
0.0
 10
10.845586
 20
65.069178
 30
0.0
 10
10.152867
 20
62.577740
 30
0.0
 10
10.230556
 20
62.030288
 30
0.0
  0
SPLINE
  5
174
100
AcDbEntity
  8
0
 62
7
100
AcDbSpline
 70
8
 71
3
 72
8
 73
4
 74
0
 40
0
 40
0
 40
0
 40
0
 40
1
 40
1
 40
1
 40
1
 10
10.230556
 20
62.030288
 30
0.0
 10
10.281792
 20
61.669239
 30
0.0
 10
10.486184
 20
61.455585
 30
0.0
 10
10.803819
 20
61.439385
 30
0.0
  0
SPLINE
  5
175
100
AcDbEntity
  8
0
 62
7
100
AcDbSpline
 70
8
 71
3
 72
8
 73
4
 74
0
 40
0
 40
0
 40
0
 40
0
 40
1
 40
1
 40
1
 40
1
 10
10.803819
 20
61.439385
 30
0.0
 10
11.077011
 20
61.425461
 30
0.0
 10
11.430191
 20
61.397856
 30
0.0
 10
11.588750
 20
61.377649
 30
0.0
  0
SPLINE
  5
176
100
AcDbEntity
  8
0
 62
7
100
AcDbSpline
 70
8
 71
3
 72
8
 73
4
 74
0
 40
0
 40
0
 40
0
 40
0
 40
1
 40
1
 40
1
 40
1
 10
11.588750
 20
61.377649
 30
0.0
 10
12.004789
 20
61.324583
 30
0.0
 10
12.911667
 20
59.328025
 30
0.0
 10
12.911667
 20
58.467233
 30
0.0
  0
SPLINE
  5
177
100
AcDbEntity
  8
0
 62
7
100
AcDbSpline
 70
8
 71
3
 72
8
 73
4
 74
0
 40
0
 40
0
 40
0
 40
0
 40
1
 40
1
 40
1
 40
1
 10
12.911667
 20
58.467233
 30
0.0
 10
12.911667
 20
58.064496
 30
0.0
 10
12.676695
 20
57.126375
 30
0.0
 10
12.391319
 20
56.377024
 30
0.0
  0
SPLINE
  5
178
100
AcDbEntity
  8
0
 62
7
100
AcDbSpline
 70
8
 71
3
 72
8
 73
4
 74
0
 40
0
 40
0
 40
0
 40
0
 40
1
 40
1
 40
1
 40
1
 10
12.391319
 20
56.377024
 30
0.0
 10
12.105943
 20
55.627679
 30
0.0
 10
11.753718
 20
54.651377
 30
0.0
 10
11.606389
 20
54.207441
 30
0.0
  0
SPLINE
  5
179
100
AcDbEntity
  8
0
 62
7
100
AcDbSpline
 70
8
 71
3
 72
8
 73
4
 74
0
 40
0
 40
0
 40
0
 40
0
 40
1
 40
1
 40
1
 40
1
 10
11.606389
 20
54.207441
 30
0.0
 10
11.459060
 20
53.763505
 30
0.0
 10
11.259824
 20
53.396052
 30
0.0
 10
11.156597
 20
53.396052
 30
0.0
  0
SPLINE
  5
17a
100
AcDbEntity
  8
0
 62
7
100
AcDbSpline
 70
8
 71
3
 72
8
 73
4
 74
0
 40
0
 40
0
 40
0
 40
0
 40
1
 40
1
 40
1
 40
1
 10
11.156597
 20
53.396052
 30
0.0
 10
10.947103
 20
53.396052
 30
0.0
 10
9.828058
 20
48.693733
 30
0.0
 10
9.445625
 20
46.199385
 30
0.0
  0
SPLINE
  5
17b
100
AcDbEntity
  8
0
 62
7
100
AcDbSpline
 70
8
 71
3
 72
8
 73
4
 74
0
 40
0
 40
0
 40
0
 40
0
 40
1
 40
1
 40
1
 40
1
 10
9.445625
 20
46.199385
 30
0.0
 10
9.309610
 20
45.312254
 30
0.0
 10
9.081721
 20
44.543503
 30
0.0
 10
8.942917
 20
44.497233
 30
0.0
  0
SPLINE
  5
17c
100
AcDbEntity
  8
0
 62
7
100
AcDbSpline
 70
8
 71
3
 72
8
 73
4
 74
0
 40
0
 40
0
 40
0
 40
0
 40
1
 40
1
 40
1
 40
1
 10
8.942917
 20
44.497233
 30
0.0
 10
8.804112
 20
44.450965
 30
0.0
 10
8.695972
 20
44.261219
 30
0.0
 10
8.695972
 20
44.073899
 30
0.0
  0
SPLINE
  5
17d
100
AcDbEntity
  8
0
 62
7
100
AcDbSpline
 70
8
 71
3
 72
8
 73
4
 74
0
 40
0
 40
0
 40
0
 40
0
 40
1
 40
1
 40
1
 40
1
 10
8.695972
 20
44.073899
 30
0.0
 10
8.695972
 20
43.875796
 30
0.0
 10
8.302832
 20
43.660162
 30
0.0
 10
7.761111
 20
43.562372
 30
0.0
  0
SPLINE
  5
17e
100
AcDbEntity
  8
0
 62
7
100
AcDbSpline
 70
8
 71
3
 72
8
 73
4
 74
0
 40
0
 40
0
 40
0
 40
0
 40
1
 40
1
 40
1
 40
1
 10
7.761111
 20
43.562372
 30
0.0
 10
6.143721
 20
43.270404
 30
0.0
 10
6.051705
 20
43.155531
 30
0.0
 10
5.882569
 20
41.154663
 30
0.0
  0
SPLINE
  5
17f
100
AcDbEntity
  8
0
 62
7
100
AcDbSpline
 70
8
 71
3
 72
8
 73
4
 74
0
 40
0
 40
0
 40
0
 40
0
 40
1
 40
1
 40
1
 40
1
 10
5.882569
 20
41.154663
 30
0.0
 10
5.684904
 20
38.816288
 30
0.0
 10
5.551268
 20
38.491191
 30
0.0
 10
4.788958
 20
38.491191
 30
0.0
  0
SPLINE
  5
180
100
AcDbEntity
  8
0
 62
7
100
AcDbSpline
 70
8
 71
3
 72
8
 73
4
 74
0
 40
0
 40
0
 40
0
 40
0
 40
1
 40
1
 40
1
 40
1
 10
4.788958
 20
38.491191
 30
0.0
 10
4.295044
 20
38.491191
 30
0.0
 10
4.205651
 20
38.404780
 30
0.0
 10
4.347986
 20
38.059038
 30
0.0
  0
SPLINE
  5
181
100
AcDbEntity
  8
0
 62
7
100
AcDbSpline
 70
8
 71
3
 72
8
 73
4
 74
0
 40
0
 40
0
 40
0
 40
0
 40
1
 40
1
 40
1
 40
1
 10
4.347986
 20
38.059038
 30
0.0
 10
4.446395
 20
37.819996
 30
0.0
 10
4.587988
 20
37.406188
 30
0.0
 10
4.665486
 20
37.132997
 30
0.0
  0
SPLINE
  5
182
100
AcDbEntity
  8
0
 62
7
100
AcDbSpline
 70
8
 71
3
 72
8
 73
4
 74
0
 40
0
 40
0
 40
0
 40
0
 40
1
 40
1
 40
1
 40
1
 10
4.665486
 20
37.132997
 30
0.0
 10
4.742985
 20
36.859805
 30
0.0
 10
4.949050
 20
36.488141
 30
0.0
 10
5.124097
 20
36.312788
 30
0.0
  0
SPLINE
  5
183
100
AcDbEntity
  8
0
 62
7
100
AcDbSpline
 70
8
 71
3
 72
8
 73
4
 74
0
 40
0
 40
0
 40
0
 40
0
 40
1
 40
1
 40
1
 40
1
 10
5.124097
 20
36.312788
 30
0.0
 10
5.586868
 20
35.849207
 30
0.0
 10
5.960364
 20
34.338037
 30
0.0
 10
5.961944
 20
32.890844
 30
0.0
  0
SPLINE
  5
184
100
AcDbEntity
  8
0
 62
7
100
AcDbSpline
 70
8
 71
3
 72
8
 73
4
 74
0
 40
0
 40
0
 40
0
 40
0
 40
1
 40
1
 40
1
 40
1
 10
5.961944
 20
32.890844
 30
0.0
 10
5.963568
 20
31.414158
 30
0.0
 10
5.245376
 20
27.003567
 30
0.0
 10
4.974167
 20
26.823066
 30
0.0
  0
SPLINE
  5
185
100
AcDbEntity
  8
0
 62
7
100
AcDbSpline
 70
8
 71
3
 72
8
 73
4
 74
0
 40
0
 40
0
 40
0
 40
0
 40
1
 40
1
 40
1
 40
1
 10
4.974167
 20
26.823066
 30
0.0
 10
4.871546
 20
26.754768
 30
0.0
 10
4.699997
 20
26.414902
 30
0.0
 10
4.594931
 20
26.073413
 30
0.0
  0
SPLINE
  5
186
100
AcDbEntity
  8
0
 62
7
100
AcDbSpline
 70
8
 71
3
 72
8
 73
4
 74
0
 40
0
 40
0
 40
0
 40
0
 40
1
 40
1
 40
1
 40
1
 10
4.594931
 20
26.073413
 30
0.0
 10
4.371642
 20
25.347676
 30
0.0
 10
3.026524
 20
23.350432
 30
0.0
 10
2.487083
 20
22.942510
 30
0.0
  0
SPLINE
  5
187
100
AcDbEntity
  8
0
 62
7
100
AcDbSpline
 70
8
 71
3
 72
8
 73
4
 74
0
 40
0
 40
0
 40
0
 40
0
 40
1
 40
1
 40
1
 40
1
 10
2.487083
 20
22.942510
 30
0.0
 10
0.910262
 20
21.750133
 30
0.0
 10
0.887762
 20
21.714260
 30
0.0
 10
1.208264
 20
20.940497
 30
0.0
  0
SPLINE
  5
188
100
AcDbEntity
  8
0
 62
7
100
AcDbSpline
 70
8
 71
3
 72
8
 73
4
 74
0
 40
0
 40
0
 40
0
 40
0
 40
1
 40
1
 40
1
 40
1
 10
1.208264
 20
20.940497
 30
0.0
 10
1.559843
 20
20.091710
 30
0.0
 10
1.308477
 20
19.197447
 30
0.0
 10
0.502708
 20
18.391677
 30
0.0
  0
SPLINE
  5
189
100
AcDbEntity
  8
0
 62
7
100
AcDbSpline
 70
8
 71
3
 72
8
 73
4
 74
0
 40
0
 40
0
 40
0
 40
0
 40
1
 40
1
 40
1
 40
1
 10
0.502708
 20
18.391677
 30
0.0
 10
0.224062
 20
18.113031
 30
0.0
 10
0.000000
 20
17.668198
 30
0.0
 10
0.000000
 20
17.403899
 30
0.0
  0
SPLINE
  5
18a
100
AcDbEntity
  8
0
 62
7
100
AcDbSpline
 70
8
 71
3
 72
8
 73
4
 74
0
 40
0
 40
0
 40
0
 40
0
 40
1
 40
1
 40
1
 40
1
 10
0.000000
 20
17.403899
 30
0.0
 10
-0.000000
 20
16.784055
 30
0.0
 10
0.415823
 20
15.695490
 30
0.0
 10
0.811389
 20
15.278413
 30
0.0
  0
SPLINE
  5
18b
100
AcDbEntity
  8
0
 62
7
100
AcDbSpline
 70
8
 71
3
 72
8
 73
4
 74
0
 40
0
 40
0
 40
0
 40
0
 40
1
 40
1
 40
1
 40
1
 10
0.811389
 20
15.278413
 30
0.0
 10
0.981603
 20
15.098943
 30
0.0
 10
1.323392
 20
14.675770
 30
0.0
 10
1.569861
 20
14.334733
 30
0.0
  0
SPLINE
  5
18c
100
AcDbEntity
  8
0
 62
7
100
AcDbSpline
 70
8
 71
3
 72
8
 73
4
 74
0
 40
0
 40
0
 40
0
 40
0
 40
1
 40
1
 40
1
 40
1
 10
1.569861
 20
14.334733
 30
0.0
 10
1.816330
 20
13.993698
 30
0.0
 10
2.340487
 20
13.647914
 30
0.0
 10
2.742847
 20
13.567441
 30
0.0
  0
SPLINE
  5
18d
100
AcDbEntity
  8
0
 62
7
100
AcDbSpline
 70
8
 71
3
 72
8
 73
4
 74
0
 40
0
 40
0
 40
0
 40
0
 40
1
 40
1
 40
1
 40
1
 10
2.742847
 20
13.567441
 30
0.0
 10
3.242795
 20
13.467453
 30
0.0
 10
3.474861
 20
13.279428
 30
0.0
 10
3.474861
 20
12.958899
 30
0.0
  0
SPLINE
  5
18e
100
AcDbEntity
  8
0
 62
7
100
AcDbSpline
 70
8
 71
3
 72
8
 73
4
 74
0
 40
0
 40
0
 40
0
 40
0
 40
1
 40
1
 40
1
 40
1
 10
3.474861
 20
12.958899
 30
0.0
 10
3.474861
 20
12.166888
 30
0.0
 10
2.985557
 20
9.840891
 30
0.0
 10
2.786944
 20
9.695705
 30
0.0
  0
SPLINE
  5
18f
100
AcDbEntity
  8
0
 62
7
100
AcDbSpline
 70
8
 71
3
 72
8
 73
4
 74
0
 40
0
 40
0
 40
0
 40
0
 40
1
 40
1
 40
1
 40
1
 10
2.786944
 20
9.695705
 30
0.0
 10
2.683838
 20
9.620332
 30
0.0
 10
2.225846
 20
8.000890
 30
0.0
 10
1.763889
 20
6.088552
 30
0.0
  0
SPLINE
  5
190
100
AcDbEntity
  8
0
 62
7
100
AcDbSpline
 70
8
 71
3
 72
8
 73
4
 74
0
 40
0
 40
0
 40
0
 40
0
 40
1
 40
1
 40
1
 40
1
 10
1.763889
 20
6.088552
 30
0.0
 10
1.301931
 20
4.176214
 30
0.0
 10
0.810287
 20
2.540494
 30
0.0
 10
0.679097
 20
2.454941
 30
0.0
  0
SPLINE
  5
191
100
AcDbEntity
  8
0
 62
7
100
AcDbSpline
 70
8
 71
3
 72
8
 73
4
 74
0
 40
0
 40
0
 40
0
 40
0
 40
1
 40
1
 40
1
 40
1
 10
0.679097
 20
2.454941
 30
0.0
 10
0.547907
 20
2.369388
 30
0.0
 10
0.388687
 20
1.781237
 30
0.0
 10
0.317500
 20
1.149663
 30
0.0
  0
LWPOLYLINE
  5
192
100
AcDbEntity
  8
0
 62
7
100
AcDbPolyline
 90
3
 70
0
 10
15.645694
 20
89.529316
 30
0.0
 10
16.642292
 20
89.696885
 30
0.0
 10
16.633472
 20
88.744385
 30
0.0
  0
SPLINE
  5
193
100
AcDbEntity
  8
0
 62
7
100
AcDbSpline
 70
8
 71
3
 72
8
 73
4
 74
0
 40
0
 40
0
 40
0
 40
0
 40
1
 40
1
 40
1
 40
1
 10
48.021875
 20
0.003135
 30
0.0
 10
79.750133
 20
0.003135
 30
0.0
 10
95.867361
 20
0.085369
 30
0.0
 10
95.867361
 20
0.250080
 30
0.0
  0
SPLINE
  5
194
100
AcDbEntity
  8
0
 62
7
100
AcDbSpline
 70
8
 71
3
 72
8
 73
4
 74
0
 40
0
 40
0
 40
0
 40
0
 40
1
 40
1
 40
1
 40
1
 10
95.867361
 20
0.250080
 30
0.0
 10
95.867361
 20
0.386675
 30
0.0
 10
96.032884
 20
0.497024
 30
0.0
 10
96.237778
 20
0.497024
 30
0.0
  0
SPLINE
  5
195
100
AcDbEntity
  8
0
 62
7
100
AcDbSpline
 70
8
 71
3
 72
8
 73
4
 74
0
 40
0
 40
0
 40
0
 40
0
 40
1
 40
1
 40
1
 40
1
 10
96.237778
 20
0.497024
 30
0.0
 10
96.442671
 20
0.497024
 30
0.0
 10
96.608194
 20
0.386675
 30
0.0
 10
96.608194
 20
0.250080
 30
0.0
  0
SPLINE
  5
196
100
AcDbEntity
  8
0
 62
7
100
AcDbSpline
 70
8
 71
3
 72
8
 73
4
 74
0
 40
0
 40
0
 40
0
 40
0
 40
1
 40
1
 40
1
 40
1
 10
96.608194
 20
0.250080
 30
0.0
 10
96.608194
 20
0.086761
 30
0.0
 10
102.370803
 20
0.007877
 30
0.0
 10
113.435694
 20
0.020774
 30
0.0
  0
SPLINE
  5
197
100
AcDbEntity
  8
0
 62
7
100
AcDbSpline
 70
8
 71
3
 72
8
 73
4
 74
0
 40
0
 40
0
 40
0
 40
0
 40
1
 40
1
 40
1
 40
1
 10
113.435694
 20
0.020774
 30
0.0
 10
122.690043
 20
0.031558
 30
0.0
 10
130.125258
 20
0.092989
 30
0.0
 10
129.954514
 20
0.161885
 30
0.0
  0
SPLINE
  5
198
100
AcDbEntity
  8
0
 62
7
100
AcDbSpline
 70
8
 71
3
 72
8
 73
4
 74
0
 40
0
 40
0
 40
0
 40
0
 40
1
 40
1
 40
1
 40
1
 10
129.954514
 20
0.161885
 30
0.0
 10
129.783769
 20
0.230782
 30
0.0
 10
129.638989
 20
0.472214
 30
0.0
 10
129.637014
 20
0.699872
 30
0.0
  0
SPLINE
  5
199
100
AcDbEntity
  8
0
 62
7
100
AcDbSpline
 70
8
 71
3
 72
8
 73
4
 74
0
 40
0
 40
0
 40
0
 40
0
 40
1
 40
1
 40
1
 40
1
 10
129.637014
 20
0.699872
 30
0.0
 10
129.630636
 20
1.406062
 30
0.0
 10
128.044279
 20
5.196541
 30
0.0
 10
127.643819
 20
5.462372
 30
0.0
  0
SPLINE
  5
19a
100
AcDbEntity
  8
0
 62
7
100
AcDbSpline
 70
8
 71
3
 72
8
 73
4
 74
0
 40
0
 40
0
 40
0
 40
0
 40
1
 40
1
 40
1
 40
1
 10
127.643819
 20
5.462372
 30
0.0
 10
127.540933
 20
5.530669
 30
0.0
 10
127.090949
 20
6.422280
 30
0.0
 10
126.638403
 20
7.446747
 30
0.0
  0
SPLINE
  5
19b
100
AcDbEntity
  8
0
 62
7
100
AcDbSpline
 70
8
 71
3
 72
8
 73
4
 74
0
 40
0
 40
0
 40
0
 40
0
 40
1
 40
1
 40
1
 40
1
 10
126.638403
 20
7.446747
 30
0.0
 10
126.185857
 20
8.471213
 30
0.0
 10
125.744848
 20
9.371643
 30
0.0
 10
125.659444
 20
9.439941
 30
0.0
  0
SPLINE
  5
19c
100
AcDbEntity
  8
0
 62
7
100
AcDbSpline
 70
8
 71
3
 72
8
 73
4
 74
0
 40
0
 40
0
 40
0
 40
0
 40
1
 40
1
 40
1
 40
1
 10
125.659444
 20
9.439941
 30
0.0
 10
125.574041
 20
9.508239
 30
0.0
 10
125.136537
 20
10.289500
 30
0.0
 10
124.689306
 20
11.177372
 30
0.0
  0
SPLINE
  5
19d
100
AcDbEntity
  8
0
 62
7
100
AcDbSpline
 70
8
 71
3
 72
8
 73
4
 74
0
 40
0
 40
0
 40
0
 40
0
 40
1
 40
1
 40
1
 40
1
 10
124.689306
 20
11.177372
 30
0.0
 10
124.242074
 20
12.065243
 30
0.0
 10
123.801336
 20
12.846504
 30
0.0
 10
123.710347
 20
12.914802
 30
0.0
  0
SPLINE
  5
19e
100
AcDbEntity
  8
0
 62
7
100
AcDbSpline
 70
8
 71
3
 72
8
 73
4
 74
0
 40
0
 40
0
 40
0
 40
0
 40
1
 40
1
 40
1
 40
1
 10
123.710347
 20
12.914802
 30
0.0
 10
123.619359
 20
12.983100
 30
0.0
 10
123.109569
 20
14.040234
 30
0.0
 10
122.572639
 20
15.269594
 30
0.0
  0
SPLINE
  5
19f
100
AcDbEntity
  8
0
 62
7
100
AcDbSpline
 70
8
 71
3
 72
8
 73
4
 74
0
 40
0
 40
0
 40
0
 40
0
 40
1
 40
1
 40
1
 40
1
 10
122.572639
 20
15.269594
 30
0.0
 10
122.035708
 20
16.498954
 30
0.0
 10
121.526743
 20
17.564907
 30
0.0
 10
121.443750
 20
17.633205
 30
0.0
  0
SPLINE
  5
1a0
100
AcDbEntity
  8
0
 62
7
100
AcDbSpline
 70
8
 71
3
 72
8
 73
4
 74
0
 40
0
 40
0
 40
0
 40
0
 40
1
 40
1
 40
1
 40
1
 10
121.443750
 20
17.633205
 30
0.0
 10
121.360757
 20
17.701503
 30
0.0
 10
121.024102
 20
18.427590
 30
0.0
 10
120.702917
 20
19.247163
 30
0.0
  0
SPLINE
  5
1a1
100
AcDbEntity
  8
0
 62
7
100
AcDbSpline
 70
8
 71
3
 72
8
 73
4
 74
0
 40
0
 40
0
 40
0
 40
0
 40
1
 40
1
 40
1
 40
1
 10
120.702917
 20
19.247163
 30
0.0
 10
120.381731
 20
20.066737
 30
0.0
 10
120.023097
 20
20.867872
 30
0.0
 10
119.900347
 20
21.028691
 30
0.0
  0
SPLINE
  5
1a2
100
AcDbEntity
  8
0
 62
7
100
AcDbSpline
 70
8
 71
3
 72
8
 73
4
 74
0
 40
0
 40
0
 40
0
 40
0
 40
1
 40
1
 40
1
 40
1
 10
119.900347
 20
21.028691
 30
0.0
 10
119.764277
 20
21.206960
 30
0.0
 10
119.809508
 20
21.708420
 30
0.0
 10
120.015000
 20
22.316330
 30
0.0
  0
SPLINE
  5
1a3
100
AcDbEntity
  8
0
 62
7
100
AcDbSpline
 70
8
 71
3
 72
8
 73
4
 74
0
 40
0
 40
0
 40
0
 40
0
 40
1
 40
1
 40
1
 40
1
 10
120.015000
 20
22.316330
 30
0.0
 10
120.268117
 20
23.065116
 30
0.0
 10
120.295845
 20
23.766755
 30
0.0
 10
120.129653
 20
25.129733
 30
0.0
  0
SPLINE
  5
1a4
100
AcDbEntity
  8
0
 62
7
100
AcDbSpline
 70
8
 71
3
 72
8
 73
4
 74
0
 40
0
 40
0
 40
0
 40
0
 40
1
 40
1
 40
1
 40
1
 10
120.129653
 20
25.129733
 30
0.0
 10
119.934479
 20
26.730356
 30
0.0
 10
119.971670
 20
27.078703
 30
0.0
 10
120.429514
 20
28.093066
 30
0.0
  0
SPLINE
  5
1a5
100
AcDbEntity
  8
0
 62
7
100
AcDbSpline
 70
8
 71
3
 72
8
 73
4
 74
0
 40
0
 40
0
 40
0
 40
0
 40
1
 40
1
 40
1
 40
1
 10
120.429514
 20
28.093066
 30
0.0
 10
120.715044
 20
28.725670
 30
0.0
 10
121.211394
 20
29.420656
 30
0.0
 10
121.540764
 20
29.636469
 30
0.0
  0
SPLINE
  5
1a6
100
AcDbEntity
  8
0
 62
7
100
AcDbSpline
 70
8
 71
3
 72
8
 73
4
 74
0
 40
0
 40
0
 40
0
 40
0
 40
1
 40
1
 40
1
 40
1
 10
121.540764
 20
29.636469
 30
0.0
 10
122.383355
 20
30.188558
 30
0.0
 10
122.633339
 20
31.762694
 30
0.0
 10
122.034653
 20
32.776191
 30
0.0
  0
SPLINE
  5
1a7
100
AcDbEntity
  8
0
 62
7
100
AcDbSpline
 70
8
 71
3
 72
8
 73
4
 74
0
 40
0
 40
0
 40
0
 40
0
 40
1
 40
1
 40
1
 40
1
 10
122.034653
 20
32.776191
 30
0.0
 10
121.789252
 20
33.191617
 30
0.0
 10
121.492591
 20
33.525844
 30
0.0
 10
121.373194
 20
33.525844
 30
0.0
  0
SPLINE
  5
1a8
100
AcDbEntity
  8
0
 62
7
100
AcDbSpline
 70
8
 71
3
 72
8
 73
4
 74
0
 40
0
 40
0
 40
0
 40
0
 40
1
 40
1
 40
1
 40
1
 10
121.373194
 20
33.525844
 30
0.0
 10
121.253795
 20
33.525844
 30
0.0
 10
120.964983
 20
33.744608
 30
0.0
 10
120.738194
 20
34.010913
 30
0.0
  0
SPLINE
  5
1a9
100
AcDbEntity
  8
0
 62
7
100
AcDbSpline
 70
8
 71
3
 72
8
 73
4
 74
0
 40
0
 40
0
 40
0
 40
0
 40
1
 40
1
 40
1
 40
1
 10
120.738194
 20
34.010913
 30
0.0
 10
120.511403
 20
34.277221
 30
0.0
 10
119.629705
 20
34.724459
 30
0.0
 10
118.771458
 20
35.007510
 30
0.0
  0
SPLINE
  5
1aa
100
AcDbEntity
  8
0
 62
7
100
AcDbSpline
 70
8
 71
3
 72
8
 73
4
 74
0
 40
0
 40
0
 40
0
 40
0
 40
1
 40
1
 40
1
 40
1
 10
118.771458
 20
35.007510
 30
0.0
 10
117.913218
 20
35.290560
 30
0.0
 10
116.896715
 20
35.803933
 30
0.0
 10
116.513681
 20
36.145219
 30
0.0
  0
SPLINE
  5
1ab
100
AcDbEntity
  8
0
 62
7
100
AcDbSpline
 70
8
 71
3
 72
8
 73
4
 74
0
 40
0
 40
0
 40
0
 40
0
 40
1
 40
1
 40
1
 40
1
 10
116.513681
 20
36.145219
 30
0.0
 10
115.869920
 20
36.718810
 30
0.0
 10
115.814419
 20
36.910687
 30
0.0
 10
115.790486
 20
38.685219
 30
0.0
  0
SPLINE
  5
1ac
100
AcDbEntity
  8
0
 62
7
100
AcDbSpline
 70
8
 71
3
 72
8
 73
4
 74
0
 40
0
 40
0
 40
0
 40
0
 40
1
 40
1
 40
1
 40
1
 10
115.790486
 20
38.685219
 30
0.0
 10
115.771893
 20
40.062985
 30
0.0
 10
115.979053
 20
41.463338
 30
0.0
 10
116.522500
 20
43.650566
 30
0.0
  0
SPLINE
  5
1ad
100
AcDbEntity
  8
0
 62
7
100
AcDbSpline
 70
8
 71
3
 72
8
 73
4
 74
0
 40
0
 40
0
 40
0
 40
0
 40
1
 40
1
 40
1
 40
1
 10
116.522500
 20
43.650566
 30
0.0
 10
117.720141
 20
48.470769
 30
0.0
 10
117.358719
 20
49.127286
 30
0.0
 10
113.665000
 20
48.827580
 30
0.0
  0
SPLINE
  5
1ae
100
AcDbEntity
  8
0
 62
7
100
AcDbSpline
 70
8
 71
3
 72
8
 73
4
 74
0
 40
0
 40
0
 40
0
 40
0
 40
1
 40
1
 40
1
 40
1
 10
113.665000
 20
48.827580
 30
0.0
 10
111.912964
 20
48.685422
 30
0.0
 10
111.504341
 20
48.721642
 30
0.0
 10
111.169097
 20
49.056885
 30
0.0
  0
SPLINE
  5
1af
100
AcDbEntity
  8
0
 62
7
100
AcDbSpline
 70
8
 71
3
 72
8
 73
4
 74
0
 40
0
 40
0
 40
0
 40
0
 40
1
 40
1
 40
1
 40
1
 10
111.169097
 20
49.056885
 30
0.0
 10
110.948589
 20
49.277391
 30
0.0
 10
110.763403
 20
49.492360
 30
0.0
 10
110.763403
 20
49.533135
 30
0.0
  0
SPLINE
  5
1b0
100
AcDbEntity
  8
0
 62
7
100
AcDbSpline
 70
8
 71
3
 72
8
 73
4
 74
0
 40
0
 40
0
 40
0
 40
0
 40
1
 40
1
 40
1
 40
1
 10
110.763403
 20
49.533135
 30
0.0
 10
110.763403
 20
49.890037
 30
0.0
 10
109.189495
 20
54.789750
 30
0.0
 10
109.043611
 20
54.886538
 30
0.0
  0
SPLINE
  5
1b1
100
AcDbEntity
  8
0
 62
7
100
AcDbSpline
 70
8
 71
3
 72
8
 73
4
 74
0
 40
0
 40
0
 40
0
 40
0
 40
1
 40
1
 40
1
 40
1
 10
109.043611
 20
54.886538
 30
0.0
 10
108.938833
 20
54.956055
 30
0.0
 10
108.480219
 20
56.008174
 30
0.0
 10
108.020556
 20
57.232510
 30
0.0
  0
SPLINE
  5
1b2
100
AcDbEntity
  8
0
 62
7
100
AcDbSpline
 70
8
 71
3
 72
8
 73
4
 74
0
 40
0
 40
0
 40
0
 40
0
 40
1
 40
1
 40
1
 40
1
 10
108.020556
 20
57.232510
 30
0.0
 10
107.560895
 20
58.456847
 30
0.0
 10
106.985802
 20
59.660736
 30
0.0
 10
106.741736
 20
59.904802
 30
0.0
  0
SPLINE
  5
1b3
100
AcDbEntity
  8
0
 62
7
100
AcDbSpline
 70
8
 71
3
 72
8
 73
4
 74
0
 40
0
 40
0
 40
0
 40
0
 40
1
 40
1
 40
1
 40
1
 10
106.741736
 20
59.904802
 30
0.0
 10
106.497670
 20
60.148868
 30
0.0
 10
106.291944
 20
60.483866
 30
0.0
 10
106.291944
 20
60.645635
 30
0.0
  0
SPLINE
  5
1b4
100
AcDbEntity
  8
0
 62
7
100
AcDbSpline
 70
8
 71
3
 72
8
 73
4
 74
0
 40
0
 40
0
 40
0
 40
0
 40
1
 40
1
 40
1
 40
1
 10
106.291944
 20
60.645635
 30
0.0
 10
106.291944
 20
61.099629
 30
0.0
 10
105.258303
 20
63.147078
 30
0.0
 10
104.748542
 20
63.697163
 30
0.0
  0
SPLINE
  5
1b5
100
AcDbEntity
  8
0
 62
7
100
AcDbSpline
 70
8
 71
3
 72
8
 73
4
 74
0
 40
0
 40
0
 40
0
 40
0
 40
1
 40
1
 40
1
 40
1
 10
104.748542
 20
63.697163
 30
0.0
 10
103.780909
 20
64.741340
 30
0.0
 10
103.993846
 20
66.105538
 30
0.0
 10
105.198333
 20
66.563483
 30
0.0
  0
SPLINE
  5
1b6
100
AcDbEntity
  8
0
 62
7
100
AcDbSpline
 70
8
 71
3
 72
8
 73
4
 74
0
 40
0
 40
0
 40
0
 40
0
 40
1
 40
1
 40
1
 40
1
 10
105.198333
 20
66.563483
 30
0.0
 10
106.453638
 20
67.040746
 30
0.0
 10
106.573546
 20
69.145153
 30
0.0
 10
105.418819
 20
70.391122
 30
0.0
  0
SPLINE
  5
1b7
100
AcDbEntity
  8
0
 62
7
100
AcDbSpline
 70
8
 71
3
 72
8
 73
4
 74
0
 40
0
 40
0
 40
0
 40
0
 40
1
 40
1
 40
1
 40
1
 10
105.418819
 20
70.391122
 30
0.0
 10
105.080398
 20
70.756283
 30
0.0
 10
104.810278
 20
71.147040
 30
0.0
 10
104.810278
 20
71.255427
 30
0.0
  0
SPLINE
  5
1b8
100
AcDbEntity
  8
0
 62
7
100
AcDbSpline
 70
8
 71
3
 72
8
 73
4
 74
0
 40
0
 40
0
 40
0
 40
0
 40
1
 40
1
 40
1
 40
1
 10
104.810278
 20
71.255427
 30
0.0
 10
104.810278
 20
71.363815
 30
0.0
 10
104.578317
 20
71.655062
 30
0.0
 10
104.298750
 20
71.908066
 30
0.0
  0
SPLINE
  5
1b9
100
AcDbEntity
  8
0
 62
7
100
AcDbSpline
 70
8
 71
3
 72
8
 73
4
 74
0
 40
0
 40
0
 40
0
 40
0
 40
1
 40
1
 40
1
 40
1
 10
104.298750
 20
71.908066
 30
0.0
 10
104.019183
 20
72.161070
 30
0.0
 10
103.616196
 20
72.730479
 30
0.0
 10
103.407986
 20
73.169247
 30
0.0
  0
SPLINE
  5
1ba
100
AcDbEntity
  8
0
 62
7
100
AcDbSpline
 70
8
 71
3
 72
8
 73
4
 74
0
 40
0
 40
0
 40
0
 40
0
 40
1
 40
1
 40
1
 40
1
 10
103.407986
 20
73.169247
 30
0.0
 10
102.980292
 20
74.070549
 30
0.0
 10
102.867093
 20
74.108313
 30
0.0
 10
99.527431
 20
74.518622
 30
0.0
  0
SPLINE
  5
1bb
100
AcDbEntity
  8
0
 62
7
100
AcDbSpline
 70
8
 71
3
 72
8
 73
4
 74
0
 40
0
 40
0
 40
0
 40
0
 40
1
 40
1
 40
1
 40
1
 10
99.527431
 20
74.518622
 30
0.0
 10
98.195624
 20
74.682248
 30
0.0
 10
97.110903
 20
74.910419
 30
0.0
 10
97.110903
 20
75.030149
 30
0.0
  0
SPLINE
  5
1bc
100
AcDbEntity
  8
0
 62
7
100
AcDbSpline
 70
8
 71
3
 72
8
 73
4
 74
0
 40
0
 40
0
 40
0
 40
0
 40
1
 40
1
 40
1
 40
1
 10
97.110903
 20
75.030149
 30
0.0
 10
97.110903
 20
75.149879
 30
0.0
 10
96.778916
 20
75.250635
 30
0.0
 10
96.378889
 20
75.250635
 30
0.0
  0
SPLINE
  5
1bd
100
AcDbEntity
  8
0
 62
7
100
AcDbSpline
 70
8
 71
3
 72
8
 73
4
 74
0
 40
0
 40
0
 40
0
 40
0
 40
1
 40
1
 40
1
 40
1
 10
96.378889
 20
75.250635
 30
0.0
 10
95.585551
 20
75.250635
 30
0.0
 10
94.769929
 20
75.886248
 30
0.0
 10
94.985417
 20
76.335427
 30
0.0
  0
SPLINE
  5
1be
100
AcDbEntity
  8
0
 62
7
100
AcDbSpline
 70
8
 71
3
 72
8
 73
4
 74
0
 40
0
 40
0
 40
0
 40
0
 40
1
 40
1
 40
1
 40
1
 10
94.985417
 20
76.335427
 30
0.0
 10
95.059726
 20
76.490316
 30
0.0
 10
95.185329
 20
76.809614
 30
0.0
 10
95.267639
 20
77.040983
 30
0.0
  0
SPLINE
  5
1bf
100
AcDbEntity
  8
0
 62
7
100
AcDbSpline
 70
8
 71
3
 72
8
 73
4
 74
0
 40
0
 40
0
 40
0
 40
0
 40
1
 40
1
 40
1
 40
1
 10
95.267639
 20
77.040983
 30
0.0
 10
95.349946
 20
77.272348
 30
0.0
 10
95.662138
 20
77.493046
 30
0.0
 10
95.955556
 20
77.534872
 30
0.0
  0
SPLINE
  5
1c0
100
AcDbEntity
  8
0
 62
7
100
AcDbSpline
 70
8
 71
3
 72
8
 73
4
 74
0
 40
0
 40
0
 40
0
 40
0
 40
1
 40
1
 40
1
 40
1
 10
95.955556
 20
77.534872
 30
0.0
 10
96.299014
 20
77.583832
 30
0.0
 10
96.519303
 20
77.817348
 30
0.0
 10
96.572917
 20
78.196330
 30
0.0
  0
SPLINE
  5
1c1
100
AcDbEntity
  8
0
 62
7
100
AcDbSpline
 70
8
 71
3
 72
8
 73
4
 74
0
 40
0
 40
0
 40
0
 40
0
 40
1
 40
1
 40
1
 40
1
 10
96.572917
 20
78.196330
 30
0.0
 10
96.648724
 20
78.732205
 30
0.0
 10
96.740066
 20
78.778024
 30
0.0
 10
97.657708
 20
78.654941
 30
0.0
  0
SPLINE
  5
1c2
100
AcDbEntity
  8
0
 62
7
100
AcDbSpline
 70
8
 71
3
 72
8
 73
4
 74
0
 40
0
 40
0
 40
0
 40
0
 40
1
 40
1
 40
1
 40
1
 10
97.657708
 20
78.654941
 30
0.0
 10
98.212123
 20
78.580578
 30
0.0
 10
98.739113
 20
78.422085
 30
0.0
 10
98.821875
 20
78.302163
 30
0.0
  0
SPLINE
  5
1c3
100
AcDbEntity
  8
0
 62
7
100
AcDbSpline
 70
8
 71
3
 72
8
 73
4
 74
0
 40
0
 40
0
 40
0
 40
0
 40
1
 40
1
 40
1
 40
1
 10
98.821875
 20
78.302163
 30
0.0
 10
98.904634
 20
78.182244
 30
0.0
 10
99.384570
 20
77.892989
 30
0.0
 10
99.889028
 20
77.658344
 30
0.0
  0
SPLINE
  5
1c4
100
AcDbEntity
  8
0
 62
7
100
AcDbSpline
 70
8
 71
3
 72
8
 73
4
 74
0
 40
0
 40
0
 40
0
 40
0
 40
1
 40
1
 40
1
 40
1
 10
99.889028
 20
77.658344
 30
0.0
 10
100.393486
 20
77.423701
 30
0.0
 10
101.024842
 20
76.947601
 30
0.0
 10
101.291319
 20
76.608830
 30
0.0
  0
SPLINE
  5
1c5
100
AcDbEntity
  8
0
 62
7
100
AcDbSpline
 70
8
 71
3
 72
8
 73
4
 74
0
 40
0
 40
0
 40
0
 40
0
 40
1
 40
1
 40
1
 40
1
 10
101.291319
 20
76.608830
 30
0.0
 10
101.557794
 20
76.270062
 30
0.0
 10
101.855564
 20
76.000288
 30
0.0
 10
101.952778
 20
76.000288
 30
0.0
  0
SPLINE
  5
1c6
100
AcDbEntity
  8
0
 62
7
100
AcDbSpline
 70
8
 71
3
 72
8
 73
4
 74
0
 40
0
 40
0
 40
0
 40
0
 40
1
 40
1
 40
1
 40
1
 10
101.952778
 20
76.000288
 30
0.0
 10
102.049998
 20
76.000288
 30
0.0
 10
102.471782
 20
75.704991
 30
0.0
 10
102.896458
 20
75.347649
 30
0.0
  0
SPLINE
  5
1c7
100
AcDbEntity
  8
0
 62
7
100
AcDbSpline
 70
8
 71
3
 72
8
 73
4
 74
0
 40
0
 40
0
 40
0
 40
0
 40
1
 40
1
 40
1
 40
1
 10
102.896458
 20
75.347649
 30
0.0
 10
103.618318
 20
74.740242
 30
0.0
 10
103.792714
 20
74.707202
 30
0.0
 10
105.542292
 20
74.827302
 30
0.0
  0
SPLINE
  5
1c8
100
AcDbEntity
  8
0
 62
7
100
AcDbSpline
 70
8
 71
3
 72
8
 73
4
 74
0
 40
0
 40
0
 40
0
 40
0
 40
1
 40
1
 40
1
 40
1
 10
105.542292
 20
74.827302
 30
0.0
 10
107.508785
 20
74.962295
 30
0.0
 10
109.024471
 20
75.556923
 30
0.0
 10
110.216597
 20
76.661747
 30
0.0
  0
SPLINE
  5
1c9
100
AcDbEntity
  8
0
 62
7
100
AcDbSpline
 70
8
 71
3
 72
8
 73
4
 74
0
 40
0
 40
0
 40
0
 40
0
 40
1
 40
1
 40
1
 40
1
 10
110.216597
 20
76.661747
 30
0.0
 10
110.560087
 20
76.980085
 30
0.0
 10
110.977638
 20
77.235010
 30
0.0
 10
111.142639
 20
77.235010
 30
0.0
  0
SPLINE
  5
1ca
100
AcDbEntity
  8
0
 62
7
100
AcDbSpline
 70
8
 71
3
 72
8
 73
4
 74
0
 40
0
 40
0
 40
0
 40
0
 40
1
 40
1
 40
1
 40
1
 10
111.142639
 20
77.235010
 30
0.0
 10
111.307640
 20
77.235010
 30
0.0
 10
111.720037
 20
77.502803
 30
0.0
 10
112.068681
 20
77.825913
 30
0.0
  0
SPLINE
  5
1cb
100
AcDbEntity
  8
0
 62
7
100
AcDbSpline
 70
8
 71
3
 72
8
 73
4
 74
0
 40
0
 40
0
 40
0
 40
0
 40
1
 40
1
 40
1
 40
1
 10
112.068681
 20
77.825913
 30
0.0
 10
112.996252
 20
78.685559
 30
0.0
 10
114.895650
 20
79.551380
 30
0.0
 10
115.323056
 20
79.307580
 30
0.0
  0
SPLINE
  5
1cc
100
AcDbEntity
  8
0
 62
7
100
AcDbSpline
 70
8
 71
3
 72
8
 73
4
 74
0
 40
0
 40
0
 40
0
 40
0
 40
1
 40
1
 40
1
 40
1
 10
115.323056
 20
79.307580
 30
0.0
 10
116.158391
 20
78.831099
 30
0.0
 10
120.949861
 20
74.385486
 30
0.0
 10
120.949861
 20
74.086469
 30
0.0
  0
SPLINE
  5
1cd
100
AcDbEntity
  8
0
 62
7
100
AcDbSpline
 70
8
 71
3
 72
8
 73
4
 74
0
 40
0
 40
0
 40
0
 40
0
 40
1
 40
1
 40
1
 40
1
 10
120.949861
 20
74.086469
 30
0.0
 10
120.949861
 20
73.763262
 30
0.0
 10
122.097532
 20
72.516608
 30
0.0
 10
122.396250
 20
72.516608
 30
0.0
  0
SPLINE
  5
1ce
100
AcDbEntity
  8
0
 62
7
100
AcDbSpline
 70
8
 71
3
 72
8
 73
4
 74
0
 40
0
 40
0
 40
0
 40
0
 40
1
 40
1
 40
1
 40
1
 10
122.396250
 20
72.516608
 30
0.0
 10
122.682864
 20
72.516608
 30
0.0
 10
122.732797
 20
72.791656
 30
0.0
 10
122.625556
 20
73.830705
 30
0.0
  0
SPLINE
  5
1cf
100
AcDbEntity
  8
0
 62
7
100
AcDbSpline
 70
8
 71
3
 72
8
 73
4
 74
0
 40
0
 40
0
 40
0
 40
0
 40
1
 40
1
 40
1
 40
1
 10
122.625556
 20
73.830705
 30
0.0
 10
122.489383
 20
75.150102
 30
0.0
 10
121.773326
 20
76.988066
 30
0.0
 10
121.399653
 20
76.988066
 30
0.0
  0
SPLINE
  5
1d0
100
AcDbEntity
  8
0
 62
7
100
AcDbSpline
 70
8
 71
3
 72
8
 73
4
 74
0
 40
0
 40
0
 40
0
 40
0
 40
1
 40
1
 40
1
 40
1
 10
121.399653
 20
76.988066
 30
0.0
 10
121.288353
 20
76.988066
 30
0.0
 10
121.196806
 20
77.140311
 30
0.0
 10
121.196806
 20
77.323205
 30
0.0
  0
SPLINE
  5
1d1
100
AcDbEntity
  8
0
 62
7
100
AcDbSpline
 70
8
 71
3
 72
8
 73
4
 74
0
 40
0
 40
0
 40
0
 40
0
 40
1
 40
1
 40
1
 40
1
 10
121.196806
 20
77.323205
 30
0.0
 10
121.196806
 20
77.764378
 30
0.0
 10
119.902551
 20
79.454815
 30
0.0
 10
119.556389
 20
79.466330
 30
0.0
  0
SPLINE
  5
1d2
100
AcDbEntity
  8
0
 62
7
100
AcDbSpline
 70
8
 71
3
 72
8
 73
4
 74
0
 40
0
 40
0
 40
0
 40
0
 40
1
 40
1
 40
1
 40
1
 10
119.556389
 20
79.466330
 30
0.0
 10
119.098639
 20
79.481564
 30
0.0
 10
118.563435
 20
80.277149
 30
0.0
 10
118.083542
 20
81.644733
 30
0.0
  0
SPLINE
  5
1d3
100
AcDbEntity
  8
0
 62
7
100
AcDbSpline
 70
8
 71
3
 72
8
 73
4
 74
0
 40
0
 40
0
 40
0
 40
0
 40
1
 40
1
 40
1
 40
1
 10
118.083542
 20
81.644733
 30
0.0
 10
117.831895
 20
82.361859
 30
0.0
 10
117.542651
 20
82.950010
 30
0.0
 10
117.448542
 20
82.950010
 30
0.0
  0
SPLINE
  5
1d4
100
AcDbEntity
  8
0
 62
7
100
AcDbSpline
 70
8
 71
3
 72
8
 73
4
 74
0
 40
0
 40
0
 40
0
 40
0
 40
1
 40
1
 40
1
 40
1
 10
117.448542
 20
82.950010
 30
0.0
 10
117.354435
 20
82.950010
 30
0.0
 10
117.225925
 20
83.262289
 30
0.0
 10
117.157500
 20
83.637927
 30
0.0
  0
SPLINE
  5
1d5
100
AcDbEntity
  8
0
 62
7
100
AcDbSpline
 70
8
 71
3
 72
8
 73
4
 74
0
 40
0
 40
0
 40
0
 40
0
 40
1
 40
1
 40
1
 40
1
 10
117.157500
 20
83.637927
 30
0.0
 10
116.943923
 20
84.810419
 30
0.0
 10
115.395192
 20
89.769685
 30
0.0
 10
115.199583
 20
89.908552
 30
0.0
  0
SPLINE
  5
1d6
100
AcDbEntity
  8
0
 62
7
100
AcDbSpline
 70
8
 71
3
 72
8
 73
4
 74
0
 40
0
 40
0
 40
0
 40
0
 40
1
 40
1
 40
1
 40
1
 10
115.199583
 20
89.908552
 30
0.0
 10
114.958487
 20
90.079709
 30
0.0
 10
114.299074
 20
92.450909
 30
0.0
 10
113.612083
 20
95.614733
 30
0.0
  0
SPLINE
  5
1d7
100
AcDbEntity
  8
0
 62
7
100
AcDbSpline
 70
8
 71
3
 72
8
 73
4
 74
0
 40
0
 40
0
 40
0
 40
0
 40
1
 40
1
 40
1
 40
1
 10
113.612083
 20
95.614733
 30
0.0
 10
113.508274
 20
96.092817
 30
0.0
 10
113.326158
 20
96.546365
 30
0.0
 10
113.215208
 20
96.620149
 30
0.0
  0
SPLINE
  5
1d8
100
AcDbEntity
  8
0
 62
7
100
AcDbSpline
 70
8
 71
3
 72
8
 73
4
 74
0
 40
0
 40
0
 40
0
 40
0
 40
1
 40
1
 40
1
 40
1
 10
113.215208
 20
96.620149
 30
0.0
 10
113.104258
 20
96.693934
 30
0.0
 10
112.652353
 20
98.421980
 30
0.0
 10
112.209792
 20
100.465427
 30
0.0
  0
SPLINE
  5
1d9
100
AcDbEntity
  8
0
 62
7
100
AcDbSpline
 70
8
 71
3
 72
8
 73
4
 74
0
 40
0
 40
0
 40
0
 40
0
 40
1
 40
1
 40
1
 40
1
 10
112.209792
 20
100.465427
 30
0.0
 10
111.767233
 20
102.508874
 30
0.0
 10
111.340573
 20
104.242407
 30
0.0
 10
111.257292
 20
104.310705
 30
0.0
  0
SPLINE
  5
1da
100
AcDbEntity
  8
0
 62
7
100
AcDbSpline
 70
8
 71
3
 72
8
 73
4
 74
0
 40
0
 40
0
 40
0
 40
0
 40
1
 40
1
 40
1
 40
1
 10
111.257292
 20
104.310705
 30
0.0
 10
111.068942
 20
104.465165
 30
0.0
 10
110.478917
 20
107.545265
 30
0.0
 10
109.740347
 20
112.257024
 30
0.0
  0
SPLINE
  5
1db
100
AcDbEntity
  8
0
 62
7
100
AcDbSpline
 70
8
 71
3
 72
8
 73
4
 74
0
 40
0
 40
0
 40
0
 40
0
 40
1
 40
1
 40
1
 40
1
 10
109.740347
 20
112.257024
 30
0.0
 10
109.429883
 20
114.237660
 30
0.0
 10
109.091372
 20
115.898021
 30
0.0
 10
108.981875
 20
115.943552
 30
0.0
  0
SPLINE
  5
1dc
100
AcDbEntity
  8
0
 62
7
100
AcDbSpline
 70
8
 71
3
 72
8
 73
4
 74
0
 40
0
 40
0
 40
0
 40
0
 40
1
 40
1
 40
1
 40
1
 10
108.981875
 20
115.943552
 30
0.0
 10
108.729969
 20
116.048305
 30
0.0
 10
108.713118
 20
117.471136
 30
0.0
 10
108.964236
 20
117.460497
 30
0.0
  0
SPLINE
  5
1dd
100
AcDbEntity
  8
0
 62
7
100
AcDbSpline
 70
8
 71
3
 72
8
 73
4
 74
0
 40
0
 40
0
 40
0
 40
0
 40
1
 40
1
 40
1
 40
1
 10
108.964236
 20
117.460497
 30
0.0
 10
109.066683
 20
117.456150
 30
0.0
 10
109.369366
 20
117.290627
 30
0.0
 10
109.634514
 20
117.090080
 30
0.0
  0
SPLINE
  5
1de
100
AcDbEntity
  8
0
 62
7
100
AcDbSpline
 70
8
 71
3
 72
8
 73
4
 74
0
 40
0
 40
0
 40
0
 40
0
 40
1
 40
1
 40
1
 40
1
 10
109.634514
 20
117.090080
 30
0.0
 10
109.899664
 20
116.889530
 30
0.0
 10
110.493621
 20
116.728483
 30
0.0
 10
110.957431
 20
116.728483
 30
0.0
  0
SPLINE
  5
1df
100
AcDbEntity
  8
0
 62
7
100
AcDbSpline
 70
8
 71
3
 72
8
 73
4
 74
0
 40
0
 40
0
 40
0
 40
0
 40
1
 40
1
 40
1
 40
1
 10
110.957431
 20
116.728483
 30
0.0
 10
111.650354
 20
116.728483
 30
0.0
 10
112.034913
 20
116.968507
 30
0.0
 10
113.109375
 20
118.069038
 30
0.0
  0
SPLINE
  5
1e0
100
AcDbEntity
  8
0
 62
7
100
AcDbSpline
 70
8
 71
3
 72
8
 73
4
 74
0
 40
0
 40
0
 40
0
 40
0
 40
1
 40
1
 40
1
 40
1
 10
113.109375
 20
118.069038
 30
0.0
 10
114.777430
 20
119.777564
 30
0.0
 10
114.984629
 20
120.700583
 30
0.0
 10
114.114792
 20
122.602233
 30
0.0
  0
SPLINE
  5
1e1
100
AcDbEntity
  8
0
 62
7
100
AcDbSpline
 70
8
 71
3
 72
8
 73
4
 74
0
 40
0
 40
0
 40
0
 40
0
 40
1
 40
1
 40
1
 40
1
 10
114.114792
 20
122.602233
 30
0.0
 10
113.780446
 20
123.333191
 30
0.0
 10
113.397369
 20
123.925149
 30
0.0
 10
113.268125
 20
123.925149
 30
0.0
  0
SPLINE
  5
1e2
100
AcDbEntity
  8
0
 62
7
100
AcDbSpline
 70
8
 71
3
 72
8
 73
4
 74
0
 40
0
 40
0
 40
0
 40
0
 40
1
 40
1
 40
1
 40
1
 10
113.268125
 20
123.925149
 30
0.0
 10
113.138881
 20
123.925149
 30
0.0
 10
112.963723
 20
124.182254
 30
0.0
 10
112.871250
 20
124.489594
 30
0.0
  0
SPLINE
  5
1e3
100
AcDbEntity
  8
0
 62
7
100
AcDbSpline
 70
8
 71
3
 72
8
 73
4
 74
0
 40
0
 40
0
 40
0
 40
0
 40
1
 40
1
 40
1
 40
1
 10
112.871250
 20
124.489594
 30
0.0
 10
112.550922
 20
125.554195
 30
0.0
 10
111.408978
 20
127.902719
 30
0.0
 10
111.213194
 20
127.902719
 30
0.0
  0
SPLINE
  5
1e4
100
AcDbEntity
  8
0
 62
7
100
AcDbSpline
 70
8
 71
3
 72
8
 73
4
 74
0
 40
0
 40
0
 40
0
 40
0
 40
1
 40
1
 40
1
 40
1
 10
111.213194
 20
127.902719
 30
0.0
 10
111.105024
 20
127.902719
 30
0.0
 10
111.019167
 20
128.007099
 30
0.0
 10
111.019167
 20
128.132024
 30
0.0
  0
SPLINE
  5
1e5
100
AcDbEntity
  8
0
 62
7
100
AcDbSpline
 70
8
 71
3
 72
8
 73
4
 74
0
 40
0
 40
0
 40
0
 40
0
 40
1
 40
1
 40
1
 40
1
 10
111.019167
 20
128.132024
 30
0.0
 10
111.019167
 20
128.561699
 30
0.0
 10
109.479611
 20
132.388017
 30
0.0
 10
109.184722
 20
132.691677
 30
0.0
  0
SPLINE
  5
1e6
100
AcDbEntity
  8
0
 62
7
100
AcDbSpline
 70
8
 71
3
 72
8
 73
4
 74
0
 40
0
 40
0
 40
0
 40
0
 40
1
 40
1
 40
1
 40
1
 10
109.184722
 20
132.691677
 30
0.0
 10
108.809274
 20
133.078293
 30
0.0
 10
108.285139
 20
134.832573
 30
0.0
 10
108.285139
 20
135.707927
 30
0.0
  0
SPLINE
  5
1e7
100
AcDbEntity
  8
0
 62
7
100
AcDbSpline
 70
8
 71
3
 72
8
 73
4
 74
0
 40
0
 40
0
 40
0
 40
0
 40
1
 40
1
 40
1
 40
1
 10
108.285139
 20
135.707927
 30
0.0
 10
108.285139
 20
136.396967
 30
0.0
 10
108.682392
 20
137.353133
 30
0.0
 10
109.078889
 20
137.612927
 30
0.0
  0
SPLINE
  5
1e8
100
AcDbEntity
  8
0
 62
7
100
AcDbSpline
 70
8
 71
3
 72
8
 73
4
 74
0
 40
0
 40
0
 40
0
 40
0
 40
1
 40
1
 40
1
 40
1
 10
109.078889
 20
137.612927
 30
0.0
 10
109.201952
 20
137.693561
 30
0.0
 10
109.583880
 20
138.750695
 30
0.0
 10
109.925556
 20
139.967719
 30
0.0
  0
SPLINE
  5
1e9
100
AcDbEntity
  8
0
 62
7
100
AcDbSpline
 70
8
 71
3
 72
8
 73
4
 74
0
 40
0
 40
0
 40
0
 40
0
 40
1
 40
1
 40
1
 40
1
 10
109.925556
 20
139.967719
 30
0.0
 10
110.515665
 20
142.069653
 30
0.0
 10
110.538728
 20
142.428437
 30
0.0
 10
110.437083
 20
147.146747
 30
0.0
  0
SPLINE
  5
1ea
100
AcDbEntity
  8
0
 62
7
100
AcDbSpline
 70
8
 71
3
 72
8
 73
4
 74
0
 40
0
 40
0
 40
0
 40
0
 40
1
 40
1
 40
1
 40
1
 10
110.437083
 20
147.146747
 30
0.0
 10
110.353520
 20
151.025519
 30
0.0
 10
110.217063
 20
152.633288
 30
0.0
 10
109.802083
 20
154.475705
 30
0.0
  0
SPLINE
  5
1eb
100
AcDbEntity
  8
0
 62
7
100
AcDbSpline
 70
8
 71
3
 72
8
 73
4
 74
0
 40
0
 40
0
 40
0
 40
0
 40
1
 40
1
 40
1
 40
1
 10
109.802083
 20
154.475705
 30
0.0
 10
109.509803
 20
155.773363
 30
0.0
 10
109.160025
 20
156.873160
 30
0.0
 10
109.025972
 20
156.918691
 30
0.0
  0
SPLINE
  5
1ec
100
AcDbEntity
  8
0
 62
7
100
AcDbSpline
 70
8
 71
3
 72
8
 73
4
 74
0
 40
0
 40
0
 40
0
 40
0
 40
1
 40
1
 40
1
 40
1
 10
109.025972
 20
156.918691
 30
0.0
 10
108.891919
 20
156.964225
 30
0.0
 10
108.779028
 20
157.197284
 30
0.0
 10
108.779028
 20
157.439038
 30
0.0
  0
SPLINE
  5
1ed
100
AcDbEntity
  8
0
 62
7
100
AcDbSpline
 70
8
 71
3
 72
8
 73
4
 74
0
 40
0
 40
0
 40
0
 40
0
 40
1
 40
1
 40
1
 40
1
 10
108.779028
 20
157.439038
 30
0.0
 10
108.779028
 20
157.680793
 30
0.0
 10
108.490094
 20
158.648908
 30
0.0
 10
108.135208
 20
159.590983
 30
0.0
  0
SPLINE
  5
1ee
100
AcDbEntity
  8
0
 62
7
100
AcDbSpline
 70
8
 71
3
 72
8
 73
4
 74
0
 40
0
 40
0
 40
0
 40
0
 40
1
 40
1
 40
1
 40
1
 10
108.135208
 20
159.590983
 30
0.0
 10
107.780322
 20
160.533055
 30
0.0
 10
107.429924
 20
161.559059
 30
0.0
 10
107.359097
 20
161.866399
 30
0.0
  0
SPLINE
  5
1ef
100
AcDbEntity
  8
0
 62
7
100
AcDbSpline
 70
8
 71
3
 72
8
 73
4
 74
0
 40
0
 40
0
 40
0
 40
0
 40
1
 40
1
 40
1
 40
1
 10
107.359097
 20
161.866399
 30
0.0
 10
107.288271
 20
162.173739
 30
0.0
 10
107.155559
 20
162.422024
 30
0.0
 10
107.059236
 20
162.422024
 30
0.0
  0
SPLINE
  5
1f0
100
AcDbEntity
  8
0
 62
7
100
AcDbSpline
 70
8
 71
3
 72
8
 73
4
 74
0
 40
0
 40
0
 40
0
 40
0
 40
1
 40
1
 40
1
 40
1
 10
107.059236
 20
162.422024
 30
0.0
 10
106.962914
 20
162.422024
 30
0.0
 10
106.618605
 20
162.997563
 30
0.0
 10
106.300764
 20
163.700844
 30
0.0
  0
SPLINE
  5
1f1
100
AcDbEntity
  8
0
 62
7
100
AcDbSpline
 70
8
 71
3
 72
8
 73
4
 74
0
 40
0
 40
0
 40
0
 40
0
 40
1
 40
1
 40
1
 40
1
 10
106.300764
 20
163.700844
 30
0.0
 10
105.982920
 20
164.404125
 30
0.0
 10
105.549364
 20
165.164745
 30
0.0
 10
105.330625
 20
165.385358
 30
0.0
  0
SPLINE
  5
1f2
100
AcDbEntity
  8
0
 62
7
100
AcDbSpline
 70
8
 71
3
 72
8
 73
4
 74
0
 40
0
 40
0
 40
0
 40
0
 40
1
 40
1
 40
1
 40
1
 10
105.330625
 20
165.385358
 30
0.0
 10
105.111886
 20
165.605968
 30
0.0
 10
104.794956
 20
166.059982
 30
0.0
 10
104.625069
 20
166.399594
 30
0.0
  0
SPLINE
  5
1f3
100
AcDbEntity
  8
0
 62
7
100
AcDbSpline
 70
8
 71
3
 72
8
 73
4
 74
0
 40
0
 40
0
 40
0
 40
0
 40
1
 40
1
 40
1
 40
1
 10
104.625069
 20
166.399594
 30
0.0
 10
103.544285
 20
168.560205
 30
0.0
 10
103.346174
 20
168.796425
 30
0.0
 10
99.421597
 20
172.696677
 30
0.0
  0
SPLINE
  5
1f4
100
AcDbEntity
  8
0
 62
7
100
AcDbSpline
 70
8
 71
3
 72
8
 73
4
 74
0
 40
0
 40
0
 40
0
 40
0
 40
1
 40
1
 40
1
 40
1
 10
99.421597
 20
172.696677
 30
0.0
 10
95.858714
 20
176.237478
 30
0.0
 10
95.158887
 20
176.878735
 30
0.0
 10
94.465069
 20
177.238691
 30
0.0
  0
SPLINE
  5
1f5
100
AcDbEntity
  8
0
 62
7
100
AcDbSpline
 70
8
 71
3
 72
8
 73
4
 74
0
 40
0
 40
0
 40
0
 40
0
 40
1
 40
1
 40
1
 40
1
 10
94.465069
 20
177.238691
 30
0.0
 10
93.239113
 20
177.874725
 30
0.0
 10
92.255151
 20
178.454482
 30
0.0
 10
92.136736
 20
178.605705
 30
0.0
  0
SPLINE
  5
1f6
100
AcDbEntity
  8
0
 62
7
100
AcDbSpline
 70
8
 71
3
 72
8
 73
4
 74
0
 40
0
 40
0
 40
0
 40
0
 40
1
 40
1
 40
1
 40
1
 10
92.136736
 20
178.605705
 30
0.0
 10
91.949984
 20
178.844204
 30
0.0
 10
88.779519
 20
180.307858
 30
0.0
 10
88.450208
 20
180.307858
 30
0.0
  0
SPLINE
  5
1f7
100
AcDbEntity
  8
0
 62
7
100
AcDbSpline
 70
8
 71
3
 72
8
 73
4
 74
0
 40
0
 40
0
 40
0
 40
0
 40
1
 40
1
 40
1
 40
1
 10
88.450208
 20
180.307858
 30
0.0
 10
88.292692
 20
180.307858
 30
0.0
 10
88.167986
 20
180.409773
 30
0.0
 10
88.167986
 20
180.537163
 30
0.0
  0
SPLINE
  5
1f8
100
AcDbEntity
  8
0
 62
7
100
AcDbSpline
 70
8
 71
3
 72
8
 73
4
 74
0
 40
0
 40
0
 40
0
 40
0
 40
1
 40
1
 40
1
 40
1
 10
88.167986
 20
180.537163
 30
0.0
 10
88.167986
 20
180.664554
 30
0.0
 10
87.941731
 20
180.837476
 30
0.0
 10
87.665278
 20
180.925219
 30
0.0
  0
SPLINE
  5
1f9
100
AcDbEntity
  8
0
 62
7
100
AcDbSpline
 70
8
 71
3
 72
8
 73
4
 74
0
 40
0
 40
0
 40
0
 40
0
 40
1
 40
1
 40
1
 40
1
 10
87.665278
 20
180.925219
 30
0.0
 10
87.333421
 20
181.030546
 30
0.0
 10
87.056767
 20
181.460831
 30
0.0
 10
86.862708
 20
182.186399
 30
0.0
  0
SPLINE
  5
1fa
100
AcDbEntity
  8
0
 62
7
100
AcDbSpline
 70
8
 71
3
 72
8
 73
4
 74
0
 40
0
 40
0
 40
0
 40
0
 40
1
 40
1
 40
1
 40
1
 10
86.862708
 20
182.186399
 30
0.0
 10
86.701046
 20
182.790839
 30
0.0
 10
86.495286
 20
183.288830
 30
0.0
 10
86.404097
 20
183.288830
 30
0.0
  0
SPLINE
  5
1fb
100
AcDbEntity
  8
0
 62
7
100
AcDbSpline
 70
8
 71
3
 72
8
 73
4
 74
0
 40
0
 40
0
 40
0
 40
0
 40
1
 40
1
 40
1
 40
1
 10
86.404097
 20
183.288830
 30
0.0
 10
86.312906
 20
183.288830
 30
0.0
 10
86.173107
 20
183.647464
 30
0.0
 10
86.086597
 20
184.091399
 30
0.0
  0
SPLINE
  5
1fc
100
AcDbEntity
  8
0
 62
7
100
AcDbSpline
 70
8
 71
3
 72
8
 73
4
 74
0
 40
0
 40
0
 40
0
 40
0
 40
1
 40
1
 40
1
 40
1
 10
86.086597
 20
184.091399
 30
0.0
 10
85.818876
 20
185.465261
 30
0.0
 10
84.644732
 20
188.995010
 30
0.0
 10
84.455000
 20
188.995010
 30
0.0
  0
SPLINE
  5
1fd
100
AcDbEntity
  8
0
 62
7
100
AcDbSpline
 70
8
 71
3
 72
8
 73
4
 74
0
 40
0
 40
0
 40
0
 40
0
 40
1
 40
1
 40
1
 40
1
 10
84.455000
 20
188.995010
 30
0.0
 10
84.356078
 20
188.995010
 30
0.0
 10
83.843461
 20
189.950615
 30
0.0
 10
83.326111
 20
191.111677
 30
0.0
  0
SPLINE
  5
1fe
100
AcDbEntity
  8
0
 62
7
100
AcDbSpline
 70
8
 71
3
 72
8
 73
4
 74
0
 40
0
 40
0
 40
0
 40
0
 40
1
 40
1
 40
1
 40
1
 10
83.326111
 20
191.111677
 30
0.0
 10
82.701356
 20
192.513783
 30
0.0
 10
82.223475
 20
193.233366
 30
0.0
 10
81.915000
 20
193.245983
 30
0.0
  0
LWPOLYLINE
  5
1ff
100
AcDbEntity
  8
0
 62
7
100
AcDbPolyline
 90
3
 70
0
 10
0.317500
 20
1.149663
 30
0.0
 10
0.185208
 20
0.003135
 30
0.0
 10
48.021875
 20
0.003135
 30
0.0
  0
SPLINE
  5
200
100
AcDbEntity
  8
0
 62
7
100
AcDbSpline
 70
8
 71
3
 72
8
 73
4
 74
0
 40
0
 40
0
 40
0
 40
0
 40
1
 40
1
 40
1
 40
1
 10
89.923056
 20
81.133205
 30
0.0
 10
90.988724
 20
81.137910
 30
0.0
 10
92.297558
 20
80.829723
 30
0.0
 10
92.745278
 20
80.401191
 30
0.0
  0
SPLINE
  5
201
100
AcDbEntity
  8
0
 62
7
100
AcDbSpline
 70
8
 71
3
 72
8
 73
4
 74
0
 40
0
 40
0
 40
0
 40
0
 40
1
 40
1
 40
1
 40
1
 10
92.745278
 20
80.401191
 30
0.0
 10
92.923876
 20
80.230249
 30
0.0
 10
93.310837
 20
79.931813
 30
0.0
 10
93.600764
 20
79.730913
 30
0.0
  0
SPLINE
  5
202
100
AcDbEntity
  8
0
 62
7
100
AcDbSpline
 70
8
 71
3
 72
8
 73
4
 74
0
 40
0
 40
0
 40
0
 40
0
 40
1
 40
1
 40
1
 40
1
 10
93.600764
 20
79.730913
 30
0.0
 10
94.048885
 20
79.420398
 30
0.0
 10
94.129931
 20
79.119942
 30
0.0
 10
94.129931
 20
77.711260
 30
0.0
  0
SPLINE
  5
203
100
AcDbEntity
  8
0
 62
7
100
AcDbSpline
 70
8
 71
3
 72
8
 73
4
 74
0
 40
0
 40
0
 40
0
 40
0
 40
1
 40
1
 40
1
 40
1
 10
94.129931
 20
77.711260
 30
0.0
 10
94.129931
 20
76.429317
 30
0.0
 10
94.036967
 20
76.019894
 30
0.0
 10
93.733056
 20
75.903274
 30
0.0
  0
SPLINE
  5
204
100
AcDbEntity
  8
0
 62
7
100
AcDbSpline
 70
8
 71
3
 72
8
 73
4
 74
0
 40
0
 40
0
 40
0
 40
0
 40
1
 40
1
 40
1
 40
1
 10
93.733056
 20
75.903274
 30
0.0
 10
93.516992
 20
75.820360
 30
0.0
 10
93.158358
 20
75.763461
 30
0.0
 10
92.930486
 20
75.779802
 30
0.0
  0
SPLINE
  5
205
100
AcDbEntity
  8
0
 62
7
100
AcDbSpline
 70
8
 71
3
 72
8
 73
4
 74
0
 40
0
 40
0
 40
0
 40
0
 40
1
 40
1
 40
1
 40
1
 10
92.930486
 20
75.779802
 30
0.0
 10
92.149591
 20
75.835781
 30
0.0
 10
87.048724
 20
77.085627
 30
0.0
 10
86.924444
 20
77.252649
 30
0.0
  0
SPLINE
  5
206
100
AcDbEntity
  8
0
 62
7
100
AcDbSpline
 70
8
 71
3
 72
8
 73
4
 74
0
 40
0
 40
0
 40
0
 40
0
 40
1
 40
1
 40
1
 40
1
 10
86.924444
 20
77.252649
 30
0.0
 10
86.856147
 20
77.344437
 30
0.0
 10
85.855248
 20
77.646821
 30
0.0
 10
84.701944
 20
77.914108
 30
0.0
  0
SPLINE
  5
207
100
AcDbEntity
  8
0
 62
7
100
AcDbSpline
 70
8
 71
3
 72
8
 73
4
 74
0
 40
0
 40
0
 40
0
 40
0
 40
1
 40
1
 40
1
 40
1
 10
84.701944
 20
77.914108
 30
0.0
 10
83.548641
 20
78.181395
 30
0.0
 10
82.579072
 20
78.502761
 30
0.0
 10
82.541181
 20
78.628483
 30
0.0
  0
SPLINE
  5
208
100
AcDbEntity
  8
0
 62
7
100
AcDbSpline
 70
8
 71
3
 72
8
 73
4
 74
0
 40
0
 40
0
 40
0
 40
0
 40
1
 40
1
 40
1
 40
1
 10
82.541181
 20
78.628483
 30
0.0
 10
82.471587
 20
78.859372
 30
0.0
 10
85.312095
 20
80.230447
 30
0.0
 10
85.848472
 20
80.224802
 30
0.0
  0
SPLINE
  5
209
100
AcDbEntity
  8
0
 62
7
100
AcDbSpline
 70
8
 71
3
 72
8
 73
4
 74
0
 40
0
 40
0
 40
0
 40
0
 40
1
 40
1
 40
1
 40
1
 10
85.848472
 20
80.224802
 30
0.0
 10
86.007832
 20
80.223126
 30
0.0
 10
86.183408
 20
80.347662
 30
0.0
 10
86.236528
 20
80.507024
 30
0.0
  0
SPLINE
  5
20a
100
AcDbEntity
  8
0
 62
7
100
AcDbSpline
 70
8
 71
3
 72
8
 73
4
 74
0
 40
0
 40
0
 40
0
 40
0
 40
1
 40
1
 40
1
 40
1
 10
86.236528
 20
80.507024
 30
0.0
 10
86.289650
 20
80.666384
 30
0.0
 10
86.718532
 20
80.787440
 30
0.0
 10
87.189028
 20
80.771608
 30
0.0
  0
SPLINE
  5
20b
100
AcDbEntity
  8
0
 62
7
100
AcDbSpline
 70
8
 71
3
 72
8
 73
4
 74
0
 40
0
 40
0
 40
0
 40
0
 40
1
 40
1
 40
1
 40
1
 10
87.189028
 20
80.771608
 30
0.0
 10
87.659523
 20
80.755789
 30
0.0
 10
88.464294
 20
80.866101
 30
0.0
 10
88.979375
 20
81.018552
 30
0.0
  0
SPLINE
  5
20c
100
AcDbEntity
  8
0
 62
7
100
AcDbSpline
 70
8
 71
3
 72
8
 73
4
 74
0
 40
0
 40
0
 40
0
 40
0
 40
1
 40
1
 40
1
 40
1
 10
88.979375
 20
81.018552
 30
0.0
 10
89.238032
 20
81.095108
 30
0.0
 10
89.567834
 20
81.131636
 30
0.0
 10
89.923056
 20
81.133205
 30
0.0
  0
LWPOLYLINE
  5
20d
100
AcDbEntity
  8
0
 62
7
100
AcDbPolyline
 90
2
 70
0
 10
81.915000
 20
193.245983
 30
0.0
 10
81.915000
 20
193.245983
 30
0.0
  0
SPLINE
  5
20e
100
AcDbEntity
  8
0
 62
7
100
AcDbSpline
 70
8
 71
3
 72
8
 73
4
 74
0
 40
0
 40
0
 40
0
 40
0
 40
1
 40
1
 40
1
 40
1
 10
138.412361
 20
68.442024
 30
0.0
 10
133.269996
 20
68.427281
 30
0.0
 10
128.328764
 20
68.184440
 30
0.0
 10
126.559028
 20
67.745288
 30
0.0
  0
LWPOLYLINE
  5
20f
100
AcDbEntity
  8
0
 62
7
100
AcDbPolyline
 90
2
 70
0
 10
89.923056
 20
81.133205
 30
0.0
 10
89.923056
 20
81.133205
 30
0.0
  0
SPLINE
  5
210
100
AcDbEntity
  8
0
 62
7
100
AcDbSpline
 70
8
 71
3
 72
8
 73
4
 74
0
 40
0
 40
0
 40
0
 40
0
 40
1
 40
1
 40
1
 40
1
 10
125.509514
 20
63.582510
 30
0.0
 10
125.599269
 20
61.462051
 30
0.0
 10
125.778093
 20
59.112675
 30
0.0
 10
125.906389
 20
58.361399
 30
0.0
  0
SPLINE
  5
211
100
AcDbEntity
  8
0
 62
7
100
AcDbSpline
 70
8
 71
3
 72
8
 73
4
 74
0
 40
0
 40
0
 40
0
 40
0
 40
1
 40
1
 40
1
 40
1
 10
125.906389
 20
58.361399
 30
0.0
 10
126.034684
 20
57.610124
 30
0.0
 10
126.271542
 20
55.459449
 30
0.0
 10
126.435556
 20
53.581260
 30
0.0
  0
SPLINE
  5
212
100
AcDbEntity
  8
0
 62
7
100
AcDbSpline
 70
8
 71
3
 72
8
 73
4
 74
0
 40
0
 40
0
 40
0
 40
0
 40
1
 40
1
 40
1
 40
1
 10
126.435556
 20
53.581260
 30
0.0
 10
126.599569
 20
51.703072
 30
0.0
 10
126.816987
 20
50.168135
 30
0.0
 10
126.920625
 20
50.168135
 30
0.0
  0
SPLINE
  5
213
100
AcDbEntity
  8
0
 62
7
100
AcDbSpline
 70
8
 71
3
 72
8
 73
4
 74
0
 40
0
 40
0
 40
0
 40
0
 40
1
 40
1
 40
1
 40
1
 10
126.920625
 20
50.168135
 30
0.0
 10
127.024263
 20
50.168135
 30
0.0
 10
127.179948
 20
49.193763
 30
0.0
 10
127.264583
 20
47.998552
 30
0.0
  0
SPLINE
  5
214
100
AcDbEntity
  8
0
 62
7
100
AcDbSpline
 70
8
 71
3
 72
8
 73
4
 74
0
 40
0
 40
0
 40
0
 40
0
 40
1
 40
1
 40
1
 40
1
 10
127.264583
 20
47.998552
 30
0.0
 10
127.349216
 20
46.803341
 30
0.0
 10
127.524964
 20
45.204411
 30
0.0
 10
127.652639
 20
44.453135
 30
0.0
  0
SPLINE
  5
215
100
AcDbEntity
  8
0
 62
7
100
AcDbSpline
 70
8
 71
3
 72
8
 73
4
 74
0
 40
0
 40
0
 40
0
 40
0
 40
1
 40
1
 40
1
 40
1
 10
127.652639
 20
44.453135
 30
0.0
 10
127.780313
 20
43.701860
 30
0.0
 10
128.079554
 20
41.018209
 30
0.0
 10
128.314097
 20
38.491191
 30
0.0
  0
SPLINE
  5
216
100
AcDbEntity
  8
0
 62
7
100
AcDbSpline
 70
8
 71
3
 72
8
 73
4
 74
0
 40
0
 40
0
 40
0
 40
0
 40
1
 40
1
 40
1
 40
1
 10
128.314097
 20
38.491191
 30
0.0
 10
128.548644
 20
35.964173
 30
0.0
 10
128.809095
 20
33.841086
 30
0.0
 10
128.896181
 20
33.772788
 30
0.0
  0
SPLINE
  5
217
100
AcDbEntity
  8
0
 62
7
100
AcDbSpline
 70
8
 71
3
 72
8
 73
4
 74
0
 40
0
 40
0
 40
0
 40
0
 40
1
 40
1
 40
1
 40
1
 10
128.896181
 20
33.772788
 30
0.0
 10
128.983269
 20
33.704490
 30
0.0
 10
129.250189
 20
31.636578
 30
0.0
 10
129.487083
 20
29.177858
 30
0.0
  0
SPLINE
  5
218
100
AcDbEntity
  8
0
 62
7
100
AcDbSpline
 70
8
 71
3
 72
8
 73
4
 74
0
 40
0
 40
0
 40
0
 40
0
 40
1
 40
1
 40
1
 40
1
 10
129.487083
 20
29.177858
 30
0.0
 10
129.723978
 20
26.719138
 30
0.0
 10
130.022386
 20
23.989132
 30
0.0
 10
130.148542
 20
23.101260
 30
0.0
  0
SPLINE
  5
219
100
AcDbEntity
  8
0
 62
7
100
AcDbSpline
 70
8
 71
3
 72
8
 73
4
 74
0
 40
0
 40
0
 40
0
 40
0
 40
1
 40
1
 40
1
 40
1
 10
130.148542
 20
23.101260
 30
0.0
 10
130.274701
 20
22.213389
 30
0.0
 10
130.446190
 20
20.531698
 30
0.0
 10
130.536597
 20
19.370635
 30
0.0
  0
SPLINE
  5
21a
100
AcDbEntity
  8
0
 62
7
100
AcDbSpline
 70
8
 71
3
 72
8
 73
4
 74
0
 40
0
 40
0
 40
0
 40
0
 40
1
 40
1
 40
1
 40
1
 10
130.536597
 20
19.370635
 30
0.0
 10
130.627007
 20
18.209573
 30
0.0
 10
130.784194
 20
17.207614
 30
0.0
 10
130.880556
 20
17.139316
 30
0.0
  0
SPLINE
  5
21b
100
AcDbEntity
  8
0
 62
7
100
AcDbSpline
 70
8
 71
3
 72
8
 73
4
 74
0
 40
0
 40
0
 40
0
 40
0
 40
1
 40
1
 40
1
 40
1
 10
130.880556
 20
17.139316
 30
0.0
 10
131.045737
 20
17.022242
 30
0.0
 10
131.677574
 20
11.779069
 30
0.0
 10
132.124097
 20
6.829385
 30
0.0
  0
SPLINE
  5
21c
100
AcDbEntity
  8
0
 62
7
100
AcDbSpline
 70
8
 71
3
 72
8
 73
4
 74
0
 40
0
 40
0
 40
0
 40
0
 40
1
 40
1
 40
1
 40
1
 10
132.124097
 20
6.829385
 30
0.0
 10
132.234999
 20
5.600025
 30
0.0
 10
132.450453
 20
3.935730
 30
0.0
 10
132.600347
 20
3.125219
 30
0.0
  0
SPLINE
  5
21d
100
AcDbEntity
  8
0
 62
7
100
AcDbSpline
 70
8
 71
3
 72
8
 73
4
 74
0
 40
0
 40
0
 40
0
 40
0
 40
1
 40
1
 40
1
 40
1
 10
132.600347
 20
3.125219
 30
0.0
 10
132.750238
 20
2.314708
 30
0.0
 10
132.873750
 20
1.276342
 30
0.0
 10
132.873750
 20
0.823344
 30
0.0
  0
LWPOLYLINE
  5
21e
100
AcDbEntity
  8
0
 62
7
100
AcDbPolyline
 90
3
 70
0
 10
126.559028
 20
67.745288
 30
0.0
 10
125.350764
 20
67.436608
 30
0.0
 10
125.509514
 20
63.582510
 30
0.0
  0
SPLINE
  5
21f
100
AcDbEntity
  8
0
 62
7
100
AcDbSpline
 70
8
 71
3
 72
8
 73
4
 74
0
 40
0
 40
0
 40
0
 40
0
 40
1
 40
1
 40
1
 40
1
 10
157.312431
 20
0.549941
 30
0.0
 10
157.523389
 20
0.851131
 30
0.0
 10
157.888285
 20
1.659980
 30
0.0
 10
158.115000
 20
2.349108
 30
0.0
  0
SPLINE
  5
220
100
AcDbEntity
  8
0
 62
7
100
AcDbSpline
 70
8
 71
3
 72
8
 73
4
 74
0
 40
0
 40
0
 40
0
 40
0
 40
1
 40
1
 40
1
 40
1
 10
158.115000
 20
2.349108
 30
0.0
 10
158.341715
 20
3.038238
 30
0.0
 10
158.588103
 20
3.656643
 30
0.0
 10
158.670625
 20
3.724941
 30
0.0
  0
SPLINE
  5
221
100
AcDbEntity
  8
0
 62
7
100
AcDbSpline
 70
8
 71
3
 72
8
 73
4
 74
0
 40
0
 40
0
 40
0
 40
0
 40
1
 40
1
 40
1
 40
1
 10
158.670625
 20
3.724941
 30
0.0
 10
158.901124
 20
3.915709
 30
0.0
 10
159.428386
 20
5.003831
 30
0.0
 10
159.684861
 20
5.832788
 30
0.0
  0
SPLINE
  5
222
100
AcDbEntity
  8
0
 62
7
100
AcDbSpline
 70
8
 71
3
 72
8
 73
4
 74
0
 40
0
 40
0
 40
0
 40
0
 40
1
 40
1
 40
1
 40
1
 10
159.684861
 20
5.832788
 30
0.0
 10
160.148832
 20
7.332387
 30
0.0
 10
160.725934
 20
8.813487
 30
0.0
 10
160.901944
 20
8.937233
 30
0.0
  0
SPLINE
  5
223
100
AcDbEntity
  8
0
 62
7
100
AcDbSpline
 70
8
 71
3
 72
8
 73
4
 74
0
 40
0
 40
0
 40
0
 40
0
 40
1
 40
1
 40
1
 40
1
 10
160.901944
 20
8.937233
 30
0.0
 10
161.001267
 20
9.007060
 30
0.0
 10
161.458938
 20
10.071484
 30
0.0
 10
161.916181
 20
11.300844
 30
0.0
  0
SPLINE
  5
224
100
AcDbEntity
  8
0
 62
7
100
AcDbSpline
 70
8
 71
3
 72
8
 73
4
 74
0
 40
0
 40
0
 40
0
 40
0
 40
1
 40
1
 40
1
 40
1
 10
161.916181
 20
11.300844
 30
0.0
 10
162.373423
 20
12.530204
 30
0.0
 10
162.825972
 20
13.587338
 30
0.0
 10
162.921597
 20
13.655635
 30
0.0
  0
SPLINE
  5
225
100
AcDbEntity
  8
0
 62
7
100
AcDbSpline
 70
8
 71
3
 72
8
 73
4
 74
0
 40
0
 40
0
 40
0
 40
0
 40
1
 40
1
 40
1
 40
1
 10
162.921597
 20
13.655635
 30
0.0
 10
163.017220
 20
13.723933
 30
0.0
 10
163.326132
 20
14.461958
 30
0.0
 10
163.609514
 20
15.287233
 30
0.0
  0
SPLINE
  5
226
100
AcDbEntity
  8
0
 62
7
100
AcDbSpline
 70
8
 71
3
 72
8
 73
4
 74
0
 40
0
 40
0
 40
0
 40
0
 40
1
 40
1
 40
1
 40
1
 10
163.609514
 20
15.287233
 30
0.0
 10
164.273470
 20
17.220833
 30
0.0
 10
164.690196
 20
18.127094
 30
0.0
 10
164.914792
 20
18.127094
 30
0.0
  0
SPLINE
  5
227
100
AcDbEntity
  8
0
 62
7
100
AcDbSpline
 70
8
 71
3
 72
8
 73
4
 74
0
 40
0
 40
0
 40
0
 40
0
 40
1
 40
1
 40
1
 40
1
 10
164.914792
 20
18.127094
 30
0.0
 10
165.013538
 20
18.127094
 30
0.0
 10
165.152894
 20
18.384198
 30
0.0
 10
165.223472
 20
18.691538
 30
0.0
  0
SPLINE
  5
228
100
AcDbEntity
  8
0
 62
7
100
AcDbSpline
 70
8
 71
3
 72
8
 73
4
 74
0
 40
0
 40
0
 40
0
 40
0
 40
1
 40
1
 40
1
 40
1
 10
165.223472
 20
18.691538
 30
0.0
 10
165.294053
 20
18.998878
 30
0.0
 10
165.596087
 20
19.862902
 30
0.0
 10
165.893750
 20
20.614177
 30
0.0
  0
SPLINE
  5
229
100
AcDbEntity
  8
0
 62
7
100
AcDbSpline
 70
8
 71
3
 72
8
 73
4
 74
0
 40
0
 40
0
 40
0
 40
0
 40
1
 40
1
 40
1
 40
1
 10
165.893750
 20
20.614177
 30
0.0
 10
166.191410
 20
21.365453
 30
0.0
 10
166.546490
 20
22.339825
 30
0.0
 10
166.678681
 20
22.783760
 30
0.0
  0
SPLINE
  5
22a
100
AcDbEntity
  8
0
 62
7
100
AcDbSpline
 70
8
 71
3
 72
8
 73
4
 74
0
 40
0
 40
0
 40
0
 40
0
 40
1
 40
1
 40
1
 40
1
 10
166.678681
 20
22.783760
 30
0.0
 10
166.810868
 20
23.227696
 30
0.0
 10
167.013103
 20
23.595149
 30
0.0
 10
167.128472
 20
23.595149
 30
0.0
  0
SPLINE
  5
22b
100
AcDbEntity
  8
0
 62
7
100
AcDbSpline
 70
8
 71
3
 72
8
 73
4
 74
0
 40
0
 40
0
 40
0
 40
0
 40
1
 40
1
 40
1
 40
1
 10
167.128472
 20
23.595149
 30
0.0
 10
167.243839
 20
23.595149
 30
0.0
 10
167.407900
 20
23.898609
 30
0.0
 10
167.498889
 20
24.274247
 30
0.0
  0
SPLINE
  5
22c
100
AcDbEntity
  8
0
 62
7
100
AcDbSpline
 70
8
 71
3
 72
8
 73
4
 74
0
 40
0
 40
0
 40
0
 40
0
 40
1
 40
1
 40
1
 40
1
 10
167.498889
 20
24.274247
 30
0.0
 10
167.715559
 20
25.168789
 30
0.0
 10
168.895231
 20
28.154082
 30
0.0
 10
169.095208
 20
28.313552
 30
0.0
  0
SPLINE
  5
22d
100
AcDbEntity
  8
0
 62
7
100
AcDbSpline
 70
8
 71
3
 72
8
 73
4
 74
0
 40
0
 40
0
 40
0
 40
0
 40
1
 40
1
 40
1
 40
1
 10
169.095208
 20
28.313552
 30
0.0
 10
169.257396
 20
28.442883
 30
0.0
 10
169.540019
 20
29.156005
 30
0.0
 10
170.418125
 20
31.664941
 30
0.0
  0
SPLINE
  5
22e
100
AcDbEntity
  8
0
 62
7
100
AcDbSpline
 70
8
 71
3
 72
8
 73
4
 74
0
 40
0
 40
0
 40
0
 40
0
 40
1
 40
1
 40
1
 40
1
 10
170.418125
 20
31.664941
 30
0.0
 10
170.704970
 20
32.484514
 30
0.0
 10
171.033779
 20
33.216819
 30
0.0
 10
171.141319
 20
33.287719
 30
0.0
  0
SPLINE
  5
22f
100
AcDbEntity
  8
0
 62
7
100
AcDbSpline
 70
8
 71
3
 72
8
 73
4
 74
0
 40
0
 40
0
 40
0
 40
0
 40
1
 40
1
 40
1
 40
1
 10
171.141319
 20
33.287719
 30
0.0
 10
171.248863
 20
33.358622
 30
0.0
 10
171.686951
 20
34.392035
 30
0.0
 10
172.120278
 20
35.589594
 30
0.0
  0
SPLINE
  5
230
100
AcDbEntity
  8
0
 62
7
100
AcDbSpline
 70
8
 71
3
 72
8
 73
4
 74
0
 40
0
 40
0
 40
0
 40
0
 40
1
 40
1
 40
1
 40
1
 10
172.120278
 20
35.589594
 30
0.0
 10
172.553607
 20
36.787156
 30
0.0
 10
173.036278
 20
37.902066
 30
0.0
 10
173.196250
 20
38.067858
 30
0.0
  0
SPLINE
  5
231
100
AcDbEntity
  8
0
 62
7
100
AcDbSpline
 70
8
 71
3
 72
8
 73
4
 74
0
 40
0
 40
0
 40
0
 40
0
 40
1
 40
1
 40
1
 40
1
 10
173.196250
 20
38.067858
 30
0.0
 10
173.356219
 20
38.233646
 30
0.0
 10
173.614890
 20
38.762759
 30
0.0
 10
173.769514
 20
39.240844
 30
0.0
  0
SPLINE
  5
232
100
AcDbEntity
  8
0
 62
7
100
AcDbSpline
 70
8
 71
3
 72
8
 73
4
 74
0
 40
0
 40
0
 40
0
 40
0
 40
1
 40
1
 40
1
 40
1
 10
173.769514
 20
39.240844
 30
0.0
 10
174.302510
 20
40.888818
 30
0.0
 10
175.077778
 20
42.803284
 30
0.0
 10
175.268819
 20
42.945010
 30
0.0
  0
SPLINE
  5
233
100
AcDbEntity
  8
0
 62
7
100
AcDbSpline
 70
8
 71
3
 72
8
 73
4
 74
0
 40
0
 40
0
 40
0
 40
0
 40
1
 40
1
 40
1
 40
1
 10
175.268819
 20
42.945010
 30
0.0
 10
175.461168
 20
43.087705
 30
0.0
 10
175.660871
 20
43.558643
 30
0.0
 10
176.662292
 20
46.314038
 30
0.0
  0
SPLINE
  5
234
100
AcDbEntity
  8
0
 62
7
100
AcDbSpline
 70
8
 71
3
 72
8
 73
4
 74
0
 40
0
 40
0
 40
0
 40
0
 40
1
 40
1
 40
1
 40
1
 10
176.662292
 20
46.314038
 30
0.0
 10
176.960155
 20
47.133612
 30
0.0
 10
177.277660
 20
47.842452
 30
0.0
 10
177.367847
 20
47.883899
 30
0.0
  0
SPLINE
  5
235
100
AcDbEntity
  8
0
 62
7
100
AcDbSpline
 70
8
 71
3
 72
8
 73
4
 74
0
 40
0
 40
0
 40
0
 40
0
 40
1
 40
1
 40
1
 40
1
 10
177.367847
 20
47.883899
 30
0.0
 10
177.458031
 20
47.925344
 30
0.0
 10
177.953791
 20
49.156820
 30
0.0
 10
178.470278
 20
50.617927
 30
0.0
  0
SPLINE
  5
236
100
AcDbEntity
  8
0
 62
7
100
AcDbSpline
 70
8
 71
3
 72
8
 73
4
 74
0
 40
0
 40
0
 40
0
 40
0
 40
1
 40
1
 40
1
 40
1
 10
178.470278
 20
50.617927
 30
0.0
 10
178.986761
 20
52.079031
 30
0.0
 10
179.474992
 20
53.327754
 30
0.0
 10
179.555069
 20
53.396052
 30
0.0
  0
SPLINE
  5
237
100
AcDbEntity
  8
0
 62
7
100
AcDbSpline
 70
8
 71
3
 72
8
 73
4
 74
0
 40
0
 40
0
 40
0
 40
0
 40
1
 40
1
 40
1
 40
1
 10
179.555069
 20
53.396052
 30
0.0
 10
179.727298
 20
53.542952
 30
0.0
 10
180.403381
 20
55.137262
 30
0.0
 10
180.825069
 20
56.394663
 30
0.0
  0
SPLINE
  5
238
100
AcDbEntity
  8
0
 62
7
100
AcDbSpline
 70
8
 71
3
 72
8
 73
4
 74
0
 40
0
 40
0
 40
0
 40
0
 40
1
 40
1
 40
1
 40
1
 10
180.825069
 20
56.394663
 30
0.0
 10
180.993579
 20
56.897115
 30
0.0
 10
181.050449
 20
57.671168
 30
0.0
 10
180.957361
 20
58.167372
 30
0.0
  0
SPLINE
  5
239
100
AcDbEntity
  8
0
 62
7
100
AcDbSpline
 70
8
 71
3
 72
8
 73
4
 74
0
 40
0
 40
0
 40
0
 40
0
 40
1
 40
1
 40
1
 40
1
 10
180.957361
 20
58.167372
 30
0.0
 10
180.808675
 20
58.959939
 30
0.0
 10
180.636791
 20
59.116595
 30
0.0
 10
179.246389
 20
59.719594
 30
0.0
  0
SPLINE
  5
23a
100
AcDbEntity
  8
0
 62
7
100
AcDbSpline
 70
8
 71
3
 72
8
 73
4
 74
0
 40
0
 40
0
 40
0
 40
0
 40
1
 40
1
 40
1
 40
1
 10
179.246389
 20
59.719594
 30
0.0
 10
178.397560
 20
60.087719
 30
0.0
 10
177.649618
 20
60.465118
 30
0.0
 10
177.579514
 20
60.557441
 30
0.0
  0
SPLINE
  5
23b
100
AcDbEntity
  8
0
 62
7
100
AcDbSpline
 70
8
 71
3
 72
8
 73
4
 74
0
 40
0
 40
0
 40
0
 40
0
 40
1
 40
1
 40
1
 40
1
 10
177.579514
 20
60.557441
 30
0.0
 10
177.427001
 20
60.758301
 30
0.0
 10
176.285759
 20
61.196130
 30
0.0
 10
174.095833
 20
61.897997
 30
0.0
  0
SPLINE
  5
23c
100
AcDbEntity
  8
0
 62
7
100
AcDbSpline
 70
8
 71
3
 72
8
 73
4
 74
0
 40
0
 40
0
 40
0
 40
0
 40
1
 40
1
 40
1
 40
1
 10
174.095833
 20
61.897997
 30
0.0
 10
173.207962
 20
62.182558
 30
0.0
 10
172.419002
 20
62.511398
 30
0.0
 10
172.340764
 20
62.630010
 30
0.0
  0
SPLINE
  5
23d
100
AcDbEntity
  8
0
 62
7
100
AcDbSpline
 70
8
 71
3
 72
8
 73
4
 74
0
 40
0
 40
0
 40
0
 40
0
 40
1
 40
1
 40
1
 40
1
 10
172.340764
 20
62.630010
 30
0.0
 10
172.262526
 20
62.748626
 30
0.0
 10
170.810352
 20
63.246322
 30
0.0
 10
169.112847
 20
63.741260
 30
0.0
  0
SPLINE
  5
23e
100
AcDbEntity
  8
0
 62
7
100
AcDbSpline
 70
8
 71
3
 72
8
 73
4
 74
0
 40
0
 40
0
 40
0
 40
0
 40
1
 40
1
 40
1
 40
1
 10
169.112847
 20
63.741260
 30
0.0
 10
167.415343
 20
64.236199
 30
0.0
 10
165.970867
 20
64.712568
 30
0.0
 10
165.902569
 20
64.799594
 30
0.0
  0
SPLINE
  5
23f
100
AcDbEntity
  8
0
 62
7
100
AcDbSpline
 70
8
 71
3
 72
8
 73
4
 74
0
 40
0
 40
0
 40
0
 40
0
 40
1
 40
1
 40
1
 40
1
 10
165.902569
 20
64.799594
 30
0.0
 10
165.834272
 20
64.886623
 30
0.0
 10
165.218533
 20
65.090500
 30
0.0
 10
164.535556
 20
65.249385
 30
0.0
  0
SPLINE
  5
240
100
AcDbEntity
  8
0
 62
7
100
AcDbSpline
 70
8
 71
3
 72
8
 73
4
 74
0
 40
0
 40
0
 40
0
 40
0
 40
1
 40
1
 40
1
 40
1
 10
164.535556
 20
65.249385
 30
0.0
 10
163.852578
 20
65.408271
 30
0.0
 10
162.325338
 20
65.771375
 30
0.0
 10
161.140069
 20
66.051955
 30
0.0
  0
SPLINE
  5
241
100
AcDbEntity
  8
0
 62
7
100
AcDbSpline
 70
8
 71
3
 72
8
 73
4
 74
0
 40
0
 40
0
 40
0
 40
0
 40
1
 40
1
 40
1
 40
1
 10
161.140069
 20
66.051955
 30
0.0
 10
159.954807
 20
66.332532
 30
0.0
 10
158.646822
 20
66.563483
 30
0.0
 10
158.238472
 20
66.563483
 30
0.0
  0
SPLINE
  5
242
100
AcDbEntity
  8
0
 62
7
100
AcDbSpline
 70
8
 71
3
 72
8
 73
4
 74
0
 40
0
 40
0
 40
0
 40
0
 40
1
 40
1
 40
1
 40
1
 10
158.238472
 20
66.563483
 30
0.0
 10
157.830122
 20
66.563483
 30
0.0
 10
157.463798
 20
66.661950
 30
0.0
 10
157.418264
 20
66.792788
 30
0.0
  0
SPLINE
  5
243
100
AcDbEntity
  8
0
 62
7
100
AcDbSpline
 70
8
 71
3
 72
8
 73
4
 74
0
 40
0
 40
0
 40
0
 40
0
 40
1
 40
1
 40
1
 40
1
 10
157.418264
 20
66.792788
 30
0.0
 10
157.335265
 20
67.031286
 30
0.0
 10
153.567875
 20
67.615308
 30
0.0
 10
149.383750
 20
68.036330
 30
0.0
  0
SPLINE
  5
244
100
AcDbEntity
  8
0
 62
7
100
AcDbSpline
 70
8
 71
3
 72
8
 73
4
 74
0
 40
0
 40
0
 40
0
 40
0
 40
1
 40
1
 40
1
 40
1
 10
149.383750
 20
68.036330
 30
0.0
 10
146.534519
 20
68.323028
 30
0.0
 10
142.411978
 20
68.453491
 30
0.0
 10
138.412361
 20
68.442024
 30
0.0
  0
LWPOLYLINE
  5
245
100
AcDbEntity
  8
0
 62
7
100
AcDbPolyline
 90
5
 70
0
 10
132.873750
 20
0.823344
 30
0.0
 10
132.873750
 20
0.003135
 30
0.0
 10
144.903472
 20
0.003135
 30
0.0
 10
156.933194
 20
0.003135
 30
0.0
 10
157.312431
 20
0.549941
 30
0.0
  0
SPLINE
  5
246
100
AcDbEntity
  8
0
 62
7
100
AcDbSpline
 70
8
 71
3
 72
8
 73
4
 74
0
 40
0
 40
0
 40
0
 40
0
 40
1
 40
1
 40
1
 40
1
 10
98.372083
 20
13.911399
 30
0.0
 10
98.710493
 20
13.911399
 30
0.0
 10
98.650278
 20
6.560264
 30
0.0
 10
98.301528
 20
5.365358
 30
0.0
  0
SPLINE
  5
247
100
AcDbEntity
  8
0
 62
7
100
AcDbSpline
 70
8
 71
3
 72
8
 73
4
 74
0
 40
0
 40
0
 40
0
 40
0
 40
1
 40
1
 40
1
 40
1
 10
98.301528
 20
5.365358
 30
0.0
 10
98.137432
 20
4.803126
 30
0.0
 10
97.929539
 20
4.287128
 30
0.0
 10
97.842917
 20
4.218830
 30
0.0
  0
SPLINE
  5
248
100
AcDbEntity
  8
0
 62
7
100
AcDbSpline
 70
8
 71
3
 72
8
 73
4
 74
0
 40
0
 40
0
 40
0
 40
0
 40
1
 40
1
 40
1
 40
1
 10
97.842917
 20
4.218830
 30
0.0
 10
97.756297
 20
4.150532
 30
0.0
 10
97.551223
 20
3.874660
 30
0.0
 10
97.384306
 20
3.601469
 30
0.0
  0
SPLINE
  5
249
100
AcDbEntity
  8
0
 62
7
100
AcDbSpline
 70
8
 71
3
 72
8
 73
4
 74
0
 40
0
 40
0
 40
0
 40
0
 40
1
 40
1
 40
1
 40
1
 10
97.384306
 20
3.601469
 30
0.0
 10
97.117843
 20
3.165356
 30
0.0
 10
97.098067
 20
3.208692
 30
0.0
 10
97.216736
 20
3.971885
 30
0.0
  0
SPLINE
  5
24a
100
AcDbEntity
  8
0
 62
7
100
AcDbSpline
 70
8
 71
3
 72
8
 73
4
 74
0
 40
0
 40
0
 40
0
 40
0
 40
1
 40
1
 40
1
 40
1
 10
97.216736
 20
3.971885
 30
0.0
 10
97.565331
 20
6.213788
 30
0.0
 10
97.835074
 20
8.797499
 30
0.0
 10
97.984028
 20
11.239108
 30
0.0
  0
SPLINE
  5
24b
100
AcDbEntity
  8
0
 62
7
100
AcDbSpline
 70
8
 71
3
 72
8
 73
4
 74
0
 40
0
 40
0
 40
0
 40
0
 40
1
 40
1
 40
1
 40
1
 10
97.984028
 20
11.239108
 30
0.0
 10
98.073608
 20
12.707510
 30
0.0
 10
98.248634
 20
13.911399
 30
0.0
 10
98.372083
 20
13.911399
 30
0.0
  0
LWPOLYLINE
  5
24c
100
AcDbEntity
  8
0
 62
7
100
AcDbPolyline
 90
2
 70
0
 10
138.412361
 20
68.442024
 30
0.0
 10
138.412361
 20
68.442024
 30
0.0
  0
LWPOLYLINE
  5
24d
100
AcDbEntity
  8
0
 62
7
100
AcDbPolyline
 90
2
 70
0
 10
98.372083
 20
13.911399
 30
0.0
 10
98.372083
 20
13.911399
 30
0.0
  0
ENDSEC
  0
SECTION
  2
OBJECTS
  0
DICTIONARY
  5
C
330
0
100
AcDbDictionary
  3
ACAD_GROUP
350
D
  3
ACAD_MLINESTYLE
350
17
  0
DICTIONARY
  5
D
330
C
100
AcDbDictionary
  0
DICTIONARY
  5
1A
330
C
100
AcDbDictionary
  0
DICTIONARY
  5
17
330
C
100
AcDbDictionary
  3
STANDARD
350
18
  0
DICTIONARY
  5
19
330
C
100
AcDbDictionary
  0
ENDSEC
  0
EOF
