<?xml version="1.0" encoding="UTF-8" standalone="no"?>
<!-- Created with Inkscape (http://www.inkscape.org/) -->

<svg
   xmlns:dc="http://purl.org/dc/elements/1.1/"
   xmlns:cc="http://creativecommons.org/ns#"
   xmlns:rdf="http://www.w3.org/1999/02/22-rdf-syntax-ns#"
   xmlns:svg="http://www.w3.org/2000/svg"
   xmlns="http://www.w3.org/2000/svg"
   xmlns:sodipodi="http://sodipodi.sourceforge.net/DTD/sodipodi-0.dtd"
   xmlns:inkscape="http://www.inkscape.org/namespaces/inkscape"
   id="svg2"
   version="1.1"
   inkscape:version="0.48.4 r9939"
   width="875.48413"
   height="873.06732"
   sodipodi:docname="flandre_scarlet_by_taruf-d3au8k4.png">
  <metadata
     id="metadata8">
    <rdf:RDF>
      <cc:Work
         rdf:about="">
        <dc:format>image/svg+xml</dc:format>
        <dc:type
           rdf:resource="http://purl.org/dc/dcmitype/StillImage" />
        <dc:title></dc:title>
      </cc:Work>
    </rdf:RDF>
  </metadata>
  <defs
     id="defs6" />
  <sodipodi:namedview
     pagecolor="#ffffff"
     bordercolor="#666666"
     borderopacity="1"
     objecttolerance="10"
     gridtolerance="10"
     guidetolerance="10"
     inkscape:pageopacity="0"
     inkscape:pageshadow="2"
     inkscape:window-width="956"
     inkscape:window-height="1041"
     id="namedview4"
     showgrid="false"
     fit-margin-top="0"
     fit-margin-left="0"
     fit-margin-right="0"
     fit-margin-bottom="0"
     inkscape:zoom="0.91378012"
     inkscape:cx="437.74207"
     inkscape:cy="436.53368"
     inkscape:window-x="960"
     inkscape:window-y="18"
     inkscape:window-maximized="0"
     inkscape:current-layer="svg2" />
  <path
     style="fill:#ff0000"
     d="m 342.84157,872.62063 c -3.22545,-0.4239 -7.52857,-1.7405 -9.5625,-2.9257 l -3.69805,-2.1549 -0.69912,-12.3168 c -0.43959,-7.7444 -0.18264,-15.6579 0.69216,-21.3168 0.76521,-4.95 1.46089,-11.6886 1.54595,-14.9747 0.0861,-3.3255 1.18375,-8.23371 2.47546,-11.06922 1.33986,-2.94118 2.52733,-8.38056 2.80943,-12.86903 0.26874,-4.276 0.70488,-11.22993 0.9692,-15.45317 l 0.48059,-7.67862 -3.70975,-1.34146 c -5.4462,-1.96938 -10.71727,-7.3764 -9.9714,-10.2286 0.33818,-1.29322 0.0663,-2.3227 -0.6135,-2.3227 -0.6715,0 -0.92951,-0.75938 -0.57335,-1.6875 0.35616,-0.92813 0.0872,-1.6875 -0.59781,-1.6875 -0.68495,0 -1.20539,-0.88594 -1.15654,-1.96875 0.0531,-1.17612 0.31726,-1.40258 0.65624,-0.5625 0.31209,0.77344 2.04401,1.40625 3.84869,1.40625 2.98476,0 3.28125,-0.34732 3.28125,-3.84375 0,-2.11406 -0.63281,-4.0991 -1.40625,-4.41118 -0.89541,-0.36131 -0.74112,-0.5997 0.42475,-0.65625 1.00705,-0.0488 2.46122,0.67055 3.2315,1.59868 1.05643,1.27293 1.07106,1.6875 0.0595,1.6875 -0.74717,0 -1.1818,1.12088 -0.98149,2.53125 0.26011,1.83148 1.23772,2.63187 3.53629,2.89524 2.8688,0.32869 3.15229,0.056 2.9241,-2.8125 -0.13898,-1.74707 -0.17636,-5.8343 -0.083,-9.08274 0.14739,-5.13099 0.46962,-5.90625 2.45496,-5.90625 1.25692,0 2.48746,-0.63281 2.73454,-1.40625 0.24708,-0.77344 1.25786,-21.15 2.24617,-45.28125 0.9883,-24.13125 2.30384,-46.73185 2.92341,-50.22354 1.22419,-6.89912 6.83825,-24.72984 12.95104,-41.13358 3.56847,-9.57607 3.85953,-11.32875 3.85953,-23.24123 l 0,-12.88411 -5.90625,-0.0752 c -3.24843,-0.0414 -8.18437,-0.11081 -10.96875,-0.15438 -2.78437,-0.0435 -7.73493,0.24709 -11.00126,0.64592 -5.88104,0.71808 -10.0146,-0.72207 -8.60745,-2.99888 0.33907,-0.54864 -0.396,-0.99753 -1.6335,-0.99753 -1.2375,0 -2.56288,0.50625 -2.94529,1.125 -0.38241,0.61875 -5.20577,1.125 -10.71858,1.125 -8.13084,0 -9.90915,-0.29747 -9.41871,-1.57554 0.43243,-1.12689 -0.68943,-1.79416 -3.93969,-2.34328 -2.49935,-0.42227 -5.7781,-1.73827 -7.28609,-2.92446 -3.12721,-2.45987 -12.59554,-3.0309 -13.3377,-0.8044 -0.62562,1.87686 -9.15465,-3.33044 -15.20745,-9.28472 l -4.78321,-4.70536 3.65821,-3.28018 c 2.01202,-1.80409 5.07435,-4.14639 6.80516,-5.20509 2.32916,-1.4247 2.99107,-2.54601 2.5471,-4.31492 -0.41492,-1.65315 1.21616,-5.15321 5.29056,-11.35279 3.23972,-4.92954 6.39665,-9.77843 7.0154,-10.77529 3.25241,-5.23996 11.97222,-17.55044 14.51813,-20.49647 1.60415,-1.85625 2.91725,-3.75031 2.918,-4.20902 7.5e-4,-0.4587 1.79658,-3.24308 3.99071,-6.1875 2.19415,-2.94441 6.37071,-8.57224 9.28125,-12.50627 2.91056,-3.93404 7.19035,-9.22508 9.51066,-11.75787 2.32032,-2.5328 4.21875,-4.96691 4.21875,-5.40913 0,-0.44222 2.025,-2.97566 4.5,-5.62986 2.475,-2.65419 4.5,-5.48102 4.5,-6.28183 0,-0.80081 0.41666,-1.45602 0.92591,-1.45602 0.50926,0 4.17406,-4.05 8.144,-9 3.96995,-4.95 7.60328,-9 8.07409,-9 0.4708,0 0.856,-0.55995 0.856,-1.24436 0,-0.68439 1.44622,-3.08908 3.21382,-5.34375 1.7676,-2.25466 6.05684,-10.17583 9.53162,-17.60259 6.19302,-13.23649 6.48138,-14.4238 6.42013,-26.4343 -0.008,-1.54687 0.28296,-12.10272 0.64634,-23.45745 0.47217,-14.75445 0.29457,-21.01107 -0.62246,-21.9281 -0.96085,-0.96085 -1.5168,-0.90506 -2.21344,0.22212 -0.671,1.0857 -1.27698,0.5108 -2.17406,-2.06253 -1.25623,-3.60357 -3.55198,-3.75483 -3.55198,-0.23404 0,1.04897 -1.33046,5.44879 -2.95657,9.77735 -1.62612,4.32857 -3.19907,9.24016 -3.49546,10.91464 -0.2964,1.67447 -3.14878,7.44465 -6.33862,12.82261 -5.27024,8.88538 -6.72287,10.42362 -15.9108,16.84849 -5.56108,3.88871 -10.76847,7.10446 -11.57198,7.14613 -0.8035,0.0416 -4.50961,2.10076 -8.23579,4.57576 -3.7262,2.475 -7.253,4.5 -7.83737,4.5 -0.58437,0 -3.71264,1.54151 -6.9517,3.42558 -8.61223,5.00949 -9.00203,5.22086 -12.07671,6.54855 -1.54688,0.66797 -6.10313,3.01937 -10.125,5.22536 -6.96661,3.82116 -7.685,3.97907 -15.1875,3.33837 -4.84217,-0.4135 -13.8621,-2.67988 -23.42105,-5.88485 l -15.54606,-5.21237 -6.85639,3.76932 -6.85639,3.76932 -2.11113,-2.60713 c -1.16113,-1.43392 -2.48374,-3.27295 -2.93915,-4.08673 -0.65267,-1.16625 -1.68993,-1.21506 -4.89795,-0.2305 -6.33978,1.94573 -8.99858,0.60804 -12.11232,-6.09392 -1.50726,-3.24418 -5.17757,-9.25984 -8.15625,-13.36815 -2.9787,-4.10831 -5.40455,-8.15831 -5.39079,-9 0.0137,-0.84169 1.015,-2.79597 2.22498,-4.34285 1.20998,-1.54687 2.21122,-3.67462 2.22498,-4.72832 0.0305,-2.33488 2.36146,-7.64668 3.3556,-7.64668 1.89925,0 3.41942,3.11774 3.41942,7.01295 0,3.73656 0.52621,4.6234 3.9375,6.63611 2.16562,1.27776 3.9375,2.77943 3.9375,3.33707 0,1.51789 4.96716,1.22175 6.58108,-0.39238 0.92203,-0.92214 6.13108,-1.54274 15.13125,-1.80271 7.54884,-0.21806 14.31871,-0.88026 15.04413,-1.47156 0.72543,-0.59131 1.84106,-2.57278 2.47917,-4.40329 1.09039,-3.12785 0.89248,-3.50537 -3.28771,-6.27169 -4.64881,-3.07644 -5.84094,-6.68056 -2.61869,-7.91706 3.66768,-1.40742 10.03322,2.33962 18.78858,11.05975 4.88042,4.8608 9.57857,8.83781 10.44035,8.83781 0.86176,0 1.56684,0.66466 1.56684,1.47702 0,1.99058 5.88738,7.52298 8.00568,7.52298 0.93228,0 2.72377,-0.9584 3.98109,-2.12977 2.0248,-1.88639 17.4068,-12.22532 25.20503,-16.94142 1.58362,-0.95772 7.05496,-4.27256 12.15853,-7.36631 5.10357,-3.09375 11.23668,-6.6702 13.62913,-7.94769 6.7146,-3.58535 7.59423,-4.66915 8.41639,-10.36981 0.68199,-4.72869 1.91459,-10.50788 6.40567,-30.03355 0.70856,-3.08057 2.64561,-8.90245 4.30456,-12.9375 3.44353,-8.37572 4.74007,-13.88862 3.82635,-16.26973 -0.34727,-0.90497 -2.29536,-2.19456 -4.32912,-2.86575 l -3.69771,-1.22036 6.32845,-6.17902 6.32845,-6.179 -3.91143,-3.0613 c -2.1513,-1.6837 -4.34014,-3.06129 -4.86411,-3.06129 -0.8848,0 -3.75602,6.71402 -13.23021,30.9375 -3.58401,9.16353 -5.14914,11.63471 -6.74444,10.64876 -0.90648,-0.56024 -2.03848,-11.8213 -3.33223,-33.14876 -0.54425,-8.97187 -1.34373,-20.0024 -1.77663,-24.51227 -0.57543,-5.99488 -0.37608,-9.01995 0.74137,-11.25 2.86428,-5.71605 10.61214,-15.93492 12.58643,-16.60057 1.08281,-0.36508 1.96875,-1.58801 1.96875,-2.71761 0,-1.1296 -0.88594,-2.43008 -1.96875,-2.88995 -3.10516,-1.31873 -40.7904,-2.09545 -42.0198,-0.86605 -0.68464,0.68464 -0.21335,2.17263 1.2958,4.0912 1.30447,1.65839 3.39285,6.6234 4.64084,11.03336 l 2.26907,8.01814 -4.51784,9.12812 c -6.04458,12.21284 -20.88301,43.96468 -23.45532,50.19063 -1.04465,2.52844 -1.25153,2.13076 -2.04825,-3.9375 -0.48744,-3.7125 -1.21901,-18.9 -1.62572,-33.75 l -0.73947,-27 3.09937,-5.0625 c 3.43192,-5.60564 8.40736,-11.18085 11.59711,-12.99504 2.59555,-1.47625 1.70871,-6.16536 -1.47851,-7.81746 -1.19369,-0.61875 -5.20865,-3.25728 -8.92213,-5.86341 -5.72735,-4.01947 -16.88382,-9.32159 -19.61807,-9.32353 -2.00024,-0.001 -3.19069,4.53973 -1.84309,7.03069 0.75316,1.39219 1.96609,5.97904 2.69539,10.19301 l 1.326,7.66175 -4.34331,6.71995 c -2.38882,3.69598 -4.34332,7.17333 -4.34332,7.72745 0,0.55412 -2.025,4.05618 -4.5,7.78237 -2.475,3.72618 -4.5,7.23746 -4.5,7.80283 0,0.56538 -0.95393,2.24069 -2.11986,3.72291 -1.16592,1.48224 -4.00602,6.23333 -6.31134,10.55797 -6.62271,12.42385 -7.3188,12.68145 -7.3188,2.70849 0,-4.64704 0.54306,-19.04394 1.2068,-31.9931 l 1.20679,-23.54394 4.98071,-5.32477 c 2.73938,-2.92863 4.9807,-5.85272 4.9807,-6.49797 0,-0.64526 0.70329,-1.1732 1.56287,-1.1732 2.34268,0 7.15768,-4.52583 5.53794,-5.20535 -0.73519,-0.30843 -5.49038,-3.08362 -10.5671,-6.16707 l -9.2304,-5.60629 -3.8929,1.84729 c -2.14108,1.01601 -5.85633,3.62115 -8.2561,5.78921 -3.68239,3.32681 -4.1787,4.28669 -3.18069,6.15147 0.84187,1.57306 0.81559,2.65168 -0.0912,3.74434 -0.96414,1.1617 -0.81668,2.41865 0.6066,5.17096 1.33441,2.58047 1.74478,5.5102 1.41346,10.09073 -0.45321,6.26556 -0.75953,6.79555 -10.46216,18.10088 -5.49742,6.40548 -11.0376,12.74546 -12.31154,14.08884 -1.27394,1.34337 -4.34125,4.81914 -6.81625,7.72392 -7.40007,8.68509 -10.75607,12.0775 -11.35519,11.47838 -0.72353,-0.72353 2.15346,-15.94445 6.99884,-37.02763 2.08662,-9.0793 3.79385,-16.79962 3.79385,-17.15625 0,-1.63709 -4.10055,-0.36436 -7.76881,2.41128 -7.29775,5.52194 -8.31579,6.78931 -7.61283,9.47738 0.36436,1.39333 0.13558,3.16819 -0.50839,3.94414 -1.29887,1.56504 -0.30669,6.01877 1.34084,6.01877 0.57705,0 1.04919,3.6137 1.04919,8.03044 0,7.69833 -0.17448,8.22382 -4.21875,12.70644 -2.32031,2.57179 -6.49688,7.34342 -9.28125,10.60363 -2.78438,3.2602 -6.58125,7.64665 -8.4375,9.74767 -1.85625,2.10102 -5.24122,5.99225 -7.52216,8.64718 -8.98925,10.46318 -11.00197,12.55301 -11.55608,11.9989 -0.76764,-0.76764 1.00124,-10.00912 6.27403,-32.77838 5.41739,-23.39373 5.56378,-27.65296 0.79082,-23.00966 -0.81764,0.79543 -3.8913,3.15937 -6.83036,5.25321 -5.30402,3.77868 -6.63774,6.1786 -3.9375,7.08523 1.09669,0.36822 1.05217,1.13681 -0.20227,3.49148 -1.23576,2.31964 -1.30095,3.3269 -0.28125,4.3466 0.79699,0.79698 1.32727,4.8989 1.32727,10.26685 0,8.93933 -1.4e-4,8.93972 -4.78125,14.21694 -2.62969,2.90255 -6.44663,7.25817 -8.4821,9.67917 -2.03547,2.42099 -5.249148,6.17367 -7.141518,8.3393 -1.89236,2.16563 -5.74384,6.84844 -8.55885,10.40625 -2.815,3.55781 -5.54975,6.46875 -6.07723,6.46875 -0.52747,0 -0.95904,0.65663 -0.95904,1.45918 0,1.82056 -8.33437,10.08145 -9.248673,9.16714 -0.368192,-0.36819 0.346293,-4.04879 1.587733,-8.17913 1.24144,-4.13032 2.72154,-10.17306 3.2891,-13.4283 0.56756,-3.25524 1.74218,-8.06461 2.61026,-10.6875 3.36746,-10.17469 6.10982,-20.76913 6.8349,-26.40497 l 0.75727,-5.88607 -6.47885,3.90136 c -3.56336,2.14574 -7.45958,4.21263 -8.658267,4.59308 -1.713479,0.54384 -2.041608,1.38078 -1.534807,3.91479 0.488977,2.44489 0.0866,3.61392 -1.666566,4.84188 -1.954453,1.36896 -2.108454,1.99761 -0.997749,4.07299 1.029232,1.92313 0.922942,4.19806 -0.491222,10.51361 -0.992559,4.43269 -2.2746,8.81882 -2.848979,9.74694 -0.574379,0.92812 -12.079973,12.74025 -25.567988,26.24916 -22.733812,22.76905 -24.551099,24.33453 -24.899582,21.44957 -0.206756,-1.71165 1.727742,-8.96753 4.298883,-16.12416 11.479502,-31.95259 13.514482,-38.04686 14.192871,-42.50424 l 0.721734,-4.74215 -3.231285,0.96564 c -1.777205,0.5311 -7.281283,2.71469 -12.231283,4.85241 -9.1648081,3.95794 -20.3866961,6.83895 -15.7500001,4.04352 1.2375,-0.74608 2.918973,-2.02211 3.736607,-2.83563 0.817634,-0.81351 2.296522,-1.47912 3.286417,-1.47912 0.989895,0 2.5990471,-0.69028 3.5758921,-1.53395 0.976847,-0.84368 7.344834,-4.45673 14.151084,-8.02901 6.80625,-3.57227 14.90625,-7.87718 18,-9.56646 3.09375,-1.68929 9.154056,-4.96837 13.467348,-7.28687 4.31329,-2.31849 9.619872,-5.4233 11.792401,-6.89958 2.17253,-1.47627 4.363391,-2.68413 4.868571,-2.68413 0.50519,0 3.82309,-1.92926 7.37312,-4.28726 3.55002,-2.35799 7.30175,-4.61235 8.33717,-5.00967 1.03541,-0.39733 7.69302,-4.54306 14.794688,-9.21274 7.10167,-4.66968 13.21883,-8.49033 13.59369,-8.49033 0.37488,0 3.42273,-2.025 6.77301,-4.5 3.35028,-2.475 6.32115,-4.5 6.60193,-4.5 0.28077,0 6.61362,-4.05 14.07299,-9 7.45937,-4.95 13.85423,-9 14.21081,-9 0.35657,0 3.33041,-2.025 6.60852,-4.5 3.27811,-2.475 6.42046,-4.50218 6.98298,-4.50484 0.56252,-0.002 3.69085,-2.02766 6.95185,-4.5 3.26098,-2.47234 6.3862,-4.49516 6.94492,-4.49516 0.55872,0 2.4469,-1.20167 4.19593,-2.67037 3.40076,-2.85567 18.46699,-12.43539 24.36231,-15.49052 3.37428,-1.74865 3.80823,-1.7252 8.0421,0.43476 2.46144,1.25575 6.26578,3.468 8.45406,4.91615 2.18829,1.44813 6.39073,3.35889 9.33876,4.24611 2.94803,0.88723 10.44936,4.56924 16.66963,8.18226 6.22027,3.613 12.66039,7.3278 14.31139,8.25509 1.651,0.92729 5.94969,3.33773 9.55264,5.35653 3.60295,2.01879 8.41232,4.1426 10.6875,4.71957 2.27518,0.57696 6.4148,1.66576 9.19918,2.41955 7.08436,1.91785 30.24811,1.59801 41.0625,-0.56698 4.95,-0.99097 9.78048,-1.80185 10.73439,-1.80196 0.99579,-1.1e-4 3.07776,2.75457 4.8889,6.46856 4.21543,8.64429 9.79943,15.95368 12.22046,15.99646 1.08281,0.0191 1.96875,-0.4356 1.96875,-1.0105 0,-1.22171 8.48721,-7.11254 14.43601,-10.01978 2.26958,-1.10917 8.08585,-3.22367 12.92506,-4.6989 9.6107,-2.92981 11.55682,-4.83287 9.76409,-9.5481 -1.80204,-4.73974 -1.39338,-6.18793 1.74613,-6.18793 2.75639,0 2.85768,-0.23594 2.53125,-5.89571 -0.26281,-4.55662 -0.78721,-5.98072 -2.30879,-6.27 -1.1172,-0.21238 -1.96875,0.3083 -1.96875,1.2038 0,0.90125 -1.05751,1.53975 -2.4657,1.48873 -1.91078,-0.0692 -2.64099,0.74639 -3.24459,3.62402 -1.44786,6.90263 -2.16471,5.14517 -2.16471,-5.30709 0,-7.82159 -0.34928,-10.29141 -1.40625,-9.94389 -0.77344,0.25429 -1.7099,2.70117 -2.08104,5.4375 -0.56882,4.19397 -0.70131,4.40105 -0.84375,1.31889 -0.11205,-2.4249 -0.73728,-3.65625 -1.85646,-3.65625 -1.24419,0 -1.72299,1.4038 -1.8226,5.34375 l -0.1351,5.34375 -1.075,-5.0625 c -0.59123,-2.78437 -1.29946,-6.20156 -1.57383,-7.59375 -0.27436,-1.39219 -1.24857,-2.53125 -2.1649,-2.53125 -0.97268,0 -1.67324,1.05347 -1.68329,2.53125 -0.0118,1.73898 -0.30408,2.07917 -0.9337,1.0869 -0.50522,-0.79623 -1.75954,-1.12084 -2.79527,-0.72339 -1.58753,0.60919 -1.87881,-0.0826 -1.87881,-4.4619 0,-5.49667 -1.69247,-6.87003 -3.26774,-2.65161 -0.75491,2.0216 -1.14402,1.06175 -1.93249,-4.76718 -0.75386,-5.5729 -1.45273,-7.38775 -2.95602,-7.67623 -1.14398,-0.21955 -1.96875,0.30598 -1.96875,1.25442 0,0.89773 -0.75938,2.26246 -1.6875,3.03274 -2.13591,1.77265 -2.13071,0.41406 0.0218,-5.68676 2.11489,-5.99424 1.09196,-7.25684 -4.6049,-5.68385 -2.3597,0.65154 -4.46513,1.00987 -4.67872,0.79629 -0.21358,-0.2136 2.07753,-2.60537 5.09137,-5.31507 3.01383,-2.7097 6.02401,-5.9438 6.68929,-7.18689 1.31856,-2.4638 0.63759,-8.42372 -0.96251,-8.42372 -0.54662,0 -0.99385,-0.75937 -0.99385,-1.6875 0,-2.203145 -2.75114,-2.148125 -6.21945,0.12438 -2.67002,1.74947 -2.87211,1.68618 -5.86666,-1.837275 -1.70577,-2.00704 -5.99759,-6.9628 -9.53739,-11.0128 l -6.43601,-7.36363 3.36444,-2.04605 c 2.69119,-1.63661 3.22921,-2.58491 2.68861,-4.73885 -0.91428,-3.64277 1.12043,-4.63331 6.12482,-2.98171 3.69544,1.2196 4.77459,1.06387 10.28636,-1.48441 10.48326,-4.84678 11.94783,-6.74221 12.72768,-16.47215 0.76841,-9.58715 4.48511,-20.87923 9.6179,-29.22107 1.92483,-3.12825 3.4997,-5.92282 3.4997,-6.21016 0,-1.89962 11.61017,-10.6195304 17.72831,-13.3149904 11.03596,-4.8621 17.44355,-5.04034 34.66783,-0.96434 7.99775,1.8926 19.60386,4.54859 25.79136,5.90218 6.1875,1.3535904 13.37379,3.4110904 15.96953,4.5722304 2.59574,1.16113 5.15058,2.11115 5.67744,2.11115 1.72028,0 6.34512,3.80296 13.79053,11.33981 8.42733,8.53083 11.70865,15.48073 13.66677,28.94642 0.69191,4.7582 1.41454,8.83306 1.60585,9.05525 0.19131,0.22219 1.76917,-0.55826 3.50635,-1.73433 11.52685,-7.80364 24.72434,-9.92824 31.53723,-5.07703 9.33167,6.64473 12.01909,32.33883 4.707,45.002925 -1.18151,2.04631 -2.1482,4.17179 -2.1482,4.72329 0,0.55151 -1.26563,2.36837 -2.8125,4.03747 -3.21586,3.46998 -3.51528,6.39463 -1.12404,10.97953 1.78638,3.42516 1.39829,5.22666 -1.12596,5.22666 -2.76984,0 -2.88812,1.94679 -0.62749,10.328 2.74709,10.18473 6.02226,29.08973 5.18471,29.92729 -0.34084,0.34084 -0.61972,0.0291 -0.61972,-0.69279 0,-0.72187 -0.82266,-1.3125 -1.82813,-1.3125 -1.45389,0 -1.68179,0.73167 -1.11327,3.57421 0.39316,1.96583 0.97197,3.83136 1.28625,4.14564 0.58784,0.58785 6.96011,-1.3752 16.84265,-5.18856 5.39174,-2.08049 24.15451,-13.58759 27.32547,-16.75855 0.83751,-0.8375 2.11939,-1.52756 2.84864,-1.53343 0.72923,-0.006 4.5103,-2.03088 8.40235,-4.5 3.89206,-2.46913 7.52319,-4.48931 8.06919,-4.48931 0.93256,0 20.7114,-10.0878 24.86609,-12.68245 1.47144,-0.91892 2.61673,-0.63399 5.00607,1.24546 1.70397,1.34035 3.5003,2.43699 3.99185,2.43699 0.49155,0 3.84047,1.95355 7.44204,4.34124 3.60156,2.38768 7.81392,4.72803 9.3608,5.20077 2.57943,0.78833 10.32529,5.10546 20.25,11.28627 2.16562,1.3487 7.48125,4.38336 11.8125,6.7437 4.33125,2.36035 9.08234,5.22225 10.55797,6.35979 1.47563,1.13753 3.468,2.06823 4.42749,2.06823 0.95949,0 2.78965,0.94327 4.06703,2.09614 1.27738,1.15287 5.33978,3.72537 9.02757,5.71666 3.68777,1.99128 7.99089,4.50193 9.5625,5.57921 3.68389,2.52521 14.24265,8.47778 24.23244,13.66118 4.33125,2.24736 9.9,5.13879 12.375,6.42539 11.06936,5.75431 42.22801,20.52142 43.30024,20.52142 0.65296,0 5.21473,2.025 10.13726,4.5 4.92253,2.475 9.47279,4.5 10.11169,4.5 0.6389,0 5.2624,2.025 10.27443,4.5 5.01205,2.475 9.70618,4.5 10.43141,4.5 1.70434,0 16.72157,7.96089 16.13109,8.55137 -0.65097,0.65097 -22.58486,-5.5701 -33.16737,-9.4072 -2.8208,-1.0228 -2.30763,0.76676 6.8587,23.91833 2.20482,5.56875 4.82126,12.5599 5.81431,15.53589 0.99305,2.976 3.29397,8.62662 5.11315,12.55697 1.81917,3.93033 3.28701,8.83605 3.26187,10.9016 l -0.0457,3.75554 -3.12996,-3.65625 c -1.72147,-2.01094 -3.63476,-3.65625 -4.25175,-3.65625 -0.61699,0 -3.21724,-2.15156 -5.77832,-4.78125 -2.5611,-2.62969 -6.8288,-6.71713 -9.48379,-9.08319 -2.65497,-2.36608 -7.13028,-6.41608 -9.9451,-9 -2.81483,-2.58394 -7.92032,-7.22931 -11.34554,-10.32306 -7.52449,-6.7963 -9.11998,-9.19358 -12.13671,-18.23573 -1.89983,-5.69447 -2.09031,-7.51317 -1.03051,-9.83919 1.06584,-2.33926 0.96387,-3.22499 -0.56588,-4.91535 -1.02634,-1.13404 -1.86604,-3.05008 -1.86604,-4.25787 0,-1.61208 -2.2484,-3.3085 -8.45611,-6.38016 -7.57669,-3.74905 -11.79389,-5.07423 -11.79389,-3.70602 0,0.263 1.708,5.45207 3.79556,11.53125 2.08755,6.07919 4.30675,13.07807 4.93154,15.55307 0.62478,2.475 2.684,9.05625 4.57604,14.625 4.53828,13.35738 7.07776,22.18159 6.5387,22.72067 -0.24016,0.24014 -1.89187,-1.17651 -3.67049,-3.14814 -1.77862,-1.97163 -5.51198,-5.92139 -8.29635,-8.77723 -2.78438,-2.85585 -8.2818,-8.73122 -12.21651,-13.05637 -3.9347,-4.32516 -10.85354,-11.77312 -15.3752,-16.55103 l -8.22118,-8.68711 -0.37481,-8.06484 c -0.26133,-5.62321 0.10339,-8.74539 1.20458,-10.31274 1.18308,-1.68387 1.27157,-2.74078 0.35267,-4.21218 -0.67468,-1.08035 -0.95977,-2.98503 -0.63351,-4.23263 0.47017,-1.79797 -0.81497,-3.22464 -6.1972,-6.87964 -6.75761,-4.589 -11.3871,-5.88561 -11.44335,-3.20501 -0.028,1.33707 4.09595,15.56258 11.35009,39.1515 5.01427,16.30532 4.71186,16.92564 -4.20341,8.62228 -4.12931,-3.84589 -14.18911,-13.64024 -22.35513,-21.76523 l -14.8473,-14.7727 -0.55035,-7.1648 c -0.37814,-4.92294 -0.0494,-8.15812 1.05081,-10.33936 1.20449,-2.3881 1.2856,-3.5548 0.32741,-4.70934 -0.91672,-1.10458 -0.93653,-2.16487 -0.0707,-3.78273 0.66166,-1.23638 1.20304,-2.4886 1.20304,-2.78275 0,-0.88447 -15.57624,-10.86312 -16.95688,-10.86312 -1.9835,0 -0.75115,6.96369 3.78269,21.375 7.26831,23.10308 9.80929,32.01865 9.8042,34.4 -0.003,1.73044 -4.6349,-2.21381 -17.83263,-15.1875 -9.80518,-9.63875 -20.18331,-19.68699 -23.0625,-22.32943 -5.18931,-4.76257 -5.23485,-4.86731 -5.23485,-12.04075 0,-3.98003 0.55834,-8.46181 1.24074,-9.95953 0.85521,-1.87698 0.88485,-3.38812 0.0954,-4.86324 -0.76605,-1.43137 -0.77306,-2.80534 -0.0212,-4.1489 0.89274,-1.59522 0.46777,-2.57959 -2.06414,-4.78127 -1.75357,-1.52487 -4.32738,-3.0674 -5.71957,-3.42786 -1.39218,-0.36046 -2.53125,-1.02121 -2.53125,-1.46833 0,-0.44712 -1.20092,-1.45566 -2.66873,-2.2412 -2.40252,-1.28579 -3.55279,-0.9132 -11.53125,3.73509 -13.33166,7.76708 -12.47122,6.9435 -10.04967,9.61929 1.1541,1.27528 2.71293,2.31868 3.46406,2.31868 0.75113,0 4.08986,3.05388 7.41939,6.78639 6.94425,7.78473 7.04556,8.17053 8.85303,33.71361 0.63487,8.97187 1.61165,20.10441 2.17063,24.73896 0.55898,4.63456 0.74366,8.86766 0.4104,9.40688 -0.33326,0.53923 -1.60333,-0.59486 -2.82237,-2.52021 -1.21908,-1.92535 -2.67301,-3.50063 -3.231,-3.50063 -0.55798,0 -1.01452,-0.74176 -1.01452,-1.64835 0,-0.9066 -1.45907,-3.31129 -3.24237,-5.34375 -1.78332,-2.03247 -4.18801,-5.26817 -5.34375,-7.19044 -3.37206,-5.60854 -14.17383,-21.05822 -16.38533,-23.43584 -1.11568,-1.19949 -2.0285,-2.78281 -2.0285,-3.51851 0,-0.73568 -0.63485,-1.86449 -1.41077,-2.50845 -1.42946,-1.18635 -1.02815,-11.43442 0.87908,-22.44841 0.70658,-4.08041 0.54657,-4.78125 -1.09164,-4.78125 -5.10688,0 -31.00167,16.59008 -31.00167,19.86192 0,2.47142 1.35807,4.88808 2.7469,4.88808 1.45623,0 7.3781,6.10714 7.3781,7.60894 0,0.48313 1.52623,2.72999 3.39162,4.99303 l 3.39161,4.11462 -0.29786,34.00589 -0.29787,34.00589 -4.57008,-7.77043 c -2.51354,-4.27374 -6.02653,-10.80794 -7.80665,-14.52044 -1.78011,-3.7125 -3.89939,-7.41822 -4.70949,-8.23492 -0.81009,-0.81671 -1.81261,-2.83842 -2.2278,-4.4927 -0.41521,-1.65428 -2.25105,-5.54231 -4.07966,-8.64008 -1.82862,-3.09777 -4.54138,-8.28875 -6.02837,-11.53551 -2.62854,-5.73928 -2.65587,-6.08747 -0.98454,-12.5374 0.94551,-3.64879 1.71909,-7.95327 1.71909,-9.56552 0,-1.61226 0.50625,-2.93137 1.125,-2.93137 0.61875,0 1.125,-1.08132 1.125,-2.40291 0,-2.21141 -0.41599,-2.34591 -5.21952,-1.6875 -2.87074,0.39347 -7.31881,0.71541 -9.88462,0.71541 l -4.66509,0 -2.63879,8.15625 c -1.45134,4.48594 -3.34445,10.23237 -4.20692,12.76985 -0.86245,2.5375 -1.24805,5.44767 -0.85687,6.46707 0.66728,1.73889 -0.13504,15.45709 -3.00362,51.35683 -0.66745,8.35313 -1.44593,15.91845 -1.72995,16.81183 -0.65343,2.05544 -4.62025,-4.10994 -7.19761,-11.18683 -1.01406,-2.78437 -3.24489,-8.60625 -4.95741,-12.9375 -1.71252,-4.33125 -3.96616,-10.15313 -5.0081,-12.9375 -1.04193,-2.78437 -2.40144,-5.0625 -3.02112,-5.0625 -0.61968,0 -3.03517,1.57312 -5.36773,3.49583 -3.59495,2.96324 -4.12574,3.95524 -3.48415,6.51152 0.47384,1.88794 2.38687,3.94631 5.11553,5.50417 2.39725,1.36867 4.36254,3.08682 4.36731,3.81813 0.0101,1.47951 -5.83044,5.98285 -7.75876,5.98285 -1.95845,0 -1.48865,2.11723 2.61089,11.76622 2.11391,4.97546 5.92999,17.65253 8.48018,28.17128 2.55019,10.51875 5.00516,20.60546 5.45548,22.4149 0.65487,2.63132 2.51613,4.20779 9.2977,7.875 4.6634,2.5218 9.70402,5.47104 11.20136,6.55385 1.49734,1.08281 3.10623,1.96875 3.57529,1.96875 0.46905,0 3.64834,1.78827 7.06506,3.97392 3.41673,2.18565 7.09686,4.30449 8.17809,4.70853 1.08123,0.40404 4.81166,2.66577 8.28984,5.02608 3.47819,2.36031 6.67003,4.29147 7.09298,4.29147 0.42296,0 3.83861,2.08453 7.59037,4.6323 3.75175,2.54776 7.14116,4.15463 7.53202,3.57081 0.39087,-0.58382 2.17854,-3.34323 3.9726,-6.13204 1.79407,-2.78881 4.95369,-6.22976 7.02137,-7.64656 2.06768,-1.4168 4.90054,-4.86085 6.29524,-7.65346 3.21828,-6.44398 8.8665,-10.84605 13.91637,-10.84605 7.35477,0 7.98092,5.33439 1.01603,8.65572 -3.56452,1.69979 -3.84462,2.18179 -3.22339,5.54667 1.3731,7.43724 3.04304,8.10821 22.0848,8.87331 l 17.12764,0.68819 3.53913,-4.06319 c 2.15913,-2.47886 3.76951,-5.76131 4.12997,-8.41816 0.68591,-5.05573 1.93387,-6.67809 4.40692,-5.7291 1.99164,0.76427 3.07347,3.93203 3.09612,9.06595 0.009,2.03763 0.94865,4.3265 2.26536,5.51811 1.2375,1.11993 2.25,2.90649 2.25,3.97016 0,2.11796 -5.18136,11.93536 -6.84025,12.96062 -0.56911,0.35173 -1.03475,2.68031 -1.03475,5.17462 0,3.13691 -0.95382,5.88378 -3.09375,8.90958 -2.90783,4.11159 -3.44331,4.37592 -8.91061,4.3985 -5.64546,0.0233 -5.83991,0.13176 -6.59866,3.68027 -1.53105,7.16031 -3.16782,7.36748 -13.9973,1.77164 l -6.16283,-3.18447 -4.7053,2.21176 c -6.41818,3.0169 -12.08836,4.14819 -28.35108,5.65651 l -13.88204,1.28752 -13.11796,-6.40056 c -7.21488,-3.52031 -18.18047,-9.20383 -24.36797,-12.63005 -6.1875,-3.42623 -13.275,-7.31158 -15.75,-8.63414 -2.475,-1.32256 -7.28438,-4.1571 -10.6875,-6.29897 -3.40313,-2.14186 -7.64071,-4.64052 -9.41686,-5.55257 -8.09316,-4.15584 -19.65646,-23.38111 -24.02572,-39.94542 -2.998,-11.36576 -5.03254,-10.67128 -6.5915,2.25 -0.95602,7.9238 -0.8797,12.69306 0.35105,21.9375 0.87867,6.59989 1.26276,14.72185 0.87042,18.40549 -0.68824,6.46169 -0.54465,6.91341 7.21025,22.68155 5.33835,10.85454 8.9295,16.78609 11.03866,18.23266 1.71941,1.17927 7.68245,4.10332 13.2512,6.49792 5.56875,2.3946 10.60594,4.76524 11.19375,5.26809 0.58781,0.50287 1.99588,0.91429 3.12905,0.91429 1.13318,0 2.35171,0.75938 2.70787,1.6875 0.94815,2.47082 5.66086,2.05847 8.4595,-0.74017 l 2.42767,-2.42767 -0.63485,2.42767 c -0.42809,1.63704 -0.11957,2.42767 0.94733,2.42767 0.8702,0 1.58218,-0.50625 1.58218,-1.125 0,-0.61875 1.38429,-1.125 3.0762,-1.125 3.05058,0 3.04356,0.0176 -0.84375,2.10229 -2.15597,1.15626 -3.91995,2.7115 -3.91995,3.45609 0,1.39808 11.71106,8.41806 12.58517,7.54394 0.27016,-0.27015 1.66615,0.59475 3.10221,1.922 1.43606,1.32725 6.6629,4.38492 11.6152,6.79484 l 9.00418,4.38166 -3.18166,3.11018 c -1.74992,1.71059 -5.01113,6.743 -7.24713,11.18311 -2.23601,4.4401 -5.55608,10.13067 -7.37796,12.64569 -1.82189,2.51503 -3.31251,5.52033 -3.31251,6.67845 0,1.85359 11.30188,14.43175 12.96739,14.43175 0.35272,0 4.16061,3.46391 8.46196,7.69757 4.88289,4.80604 7.82065,8.60942 7.82065,10.125 0,1.6572 0.69652,2.42743 2.19511,2.42743 2.14712,0 14.68582,3.00592 15.36285,3.68297 1.25895,1.25893 -3.81345,10.97552 -7.51215,14.39013 -3.30558,3.0517 -4.42081,4.95608 -4.42081,7.54899 0,2.35687 -1.17123,4.72547 -3.65625,7.39409 -2.01094,2.15952 -4.21104,4.85338 -4.88914,5.98635 -0.67808,1.13298 -2.95621,2.62969 -5.0625,3.32602 -2.37906,0.78651 -3.95703,2.10466 -4.16602,3.4801 -0.35923,2.36421 -7.65269,7.06635 -10.96057,7.06635 -1.09485,0 -3.67761,-1.28672 -5.73947,-2.85937 -3.9495,-3.01243 -6.15451,-2.73997 -9.39159,1.16046 -1.02156,1.23091 -2.47329,1.58363 -4.59757,1.11706 -3.28834,-0.72224 -7.836,1.18373 -17.60226,7.37731 -6.49264,4.11751 -10.6862,3.70784 -15.07383,-1.47255 l -2.95168,-3.48502 -8.86082,2.52296 c -13.72981,3.90931 -13.9233,4.02802 -13.9233,8.54203 0,2.17312 1.79781,8.63867 3.99513,14.36787 2.19732,5.72921 4.94681,13.70737 6.10996,17.72925 1.16316,4.02187 3.34089,11.3625 4.8394,16.3125 2.17692,7.19094 2.99522,13.63571 4.07105,32.0625 0.74055,12.68437 1.82751,29.61838 2.41546,37.63113 0.58795,8.01275 1.069,19.83045 1.069,26.26157 0,10.74682 0.18206,11.74055 2.25,12.28133 1.76273,0.46097 2.25,1.53452 2.25,4.95718 0,3.61879 0.38626,4.36879 2.25,4.36879 1.30263,0 2.25,-0.75 2.25,-1.78125 0,-0.97969 0.63281,-1.57055 1.40625,-1.31303 2.00293,0.6669 2.45598,4.21928 0.5381,4.21928 -1.86721,0 -5.31935,3.52547 -5.31935,5.43233 0,0.81135 1.942,1.31767 5.05394,1.31767 5.9482,0 10.78571,3.35166 9.87331,6.84069 -0.31056,1.18761 -0.97303,2.15931 -1.47215,2.15931 -0.49911,0 -2.40657,1.26141 -4.23881,2.80314 -2.90258,2.44235 -3.51058,2.58715 -4.72406,1.125 -1.84009,-2.21718 -4.3882,-2.13326 -5.27345,0.17367 -0.39083,1.01848 0.34968,5.19504 1.64558,9.28125 5.298,16.70542 6.24635,23.55358 6.74514,48.70694 0.4714,23.7715 0.41754,24.5206 -2.08245,28.9688 -1.52855,2.7197 -3.39248,4.5662 -4.60921,4.5662 -1.51385,0 -2.04284,0.8626 -2.04284,3.3312 0,3.5985 -2.85252,6.9427 -8.4375,9.8919 -4.61852,2.4389 -23.41254,2.6179 -28.09391,0.2677 -4.31139,-2.1645 -5.28313,-7.1941 -4.8516,-25.1112 l 0.32051,-13.308 4.5,-4.11 c 4.88821,-4.4647 7.61741,-9.5243 8.91936,-16.53547 0.45844,-2.46875 1.67662,-5.42609 2.70708,-6.57187 1.51475,-1.68427 1.94361,-5.07247 2.23938,-17.69193 l 0.36581,-15.6087 -4.46618,-0.71416 c -2.4564,-0.3928 -5.8242,-1.60503 -7.48401,-2.69384 l -3.01781,-1.97966 3.76237,-2.32527 c 2.06932,-1.27891 4.90444,-3.54095 6.30028,-5.02676 2.50857,-2.67025 2.51746,-2.78961 0.76944,-10.32695 -1.52175,-6.56164 -1.54788,-7.88177 -0.18731,-9.46249 1.36676,-1.58788 1.21949,-3.5152 -1.08596,-14.212 -1.46693,-6.80625 -3.11063,-15.66563 -3.65267,-19.6875 -0.54204,-4.02188 -2.54653,-12.88125 -4.45443,-19.6875 -1.9079,-6.80625 -3.95765,-15.66563 -4.55501,-19.6875 -0.59736,-4.02188 -2.64813,-14.65312 -4.55725,-23.625 -1.90913,-8.97188 -3.91083,-19.35 -4.44823,-23.0625 -0.62985,-4.35123 -3.21866,-11.44443 -7.28472,-19.95987 -3.46921,-7.26543 -6.30764,-14.19875 -6.30764,-15.40737 0,-1.28943 -1.27842,-2.80742 -3.09375,-3.67352 -2.5362,-1.21003 -3.15547,-2.32337 -3.43621,-6.17773 l -0.34245,-4.70166 -11.47005,-0.47677 c -6.30852,-0.26221 -12.87997,-0.8629 -14.60321,-1.33486 -2.34168,-0.64132 -3.71922,-0.32773 -5.45306,1.24137 -1.86755,1.69011 -4.04012,2.0851 -11.14259,2.02576 l -8.82271,-0.0737 -1.22414,7.95669 c -1.78501,11.60228 -3.10352,16.02849 -7.42411,24.92266 -2.63778,5.43001 -4.22147,10.74048 -4.97468,16.68115 -1.985,15.65613 -6.87159,39.04642 -13.17678,63.07233 -2.10654,8.02694 -4.28545,18.15194 -4.84204,22.5 -0.5566,4.34805 -1.79549,11.60895 -2.7531,16.13535 -2.2612,10.68806 -2.21452,14.45597 0.1958,15.80485 1.8253,1.02149 1.81284,1.58227 -0.21647,9.73152 l -2.1534,8.64757 2.74773,2.12675 c 1.51124,1.1697 4.39303,2.73925 6.40397,3.48787 2.01094,0.74862 3.65625,1.93057 3.65625,2.62653 0,1.63433 -4.80507,6.15757 -6.54126,6.15757 -0.73355,0 -1.33374,0.50625 -1.33374,1.125 0,0.61875 -1.0125,1.125 -2.25,1.125 -1.25,0 -2.25,-0.75 -2.25,-1.6875 0,-0.92813 -0.75553,-1.6875 -1.67894,-1.6875 -1.43709,0 -1.60489,2.44394 -1.16489,16.96606 0.28272,9.33133 1.00867,18.57039 1.61321,20.53125 0.60456,1.96085 1.66133,7.74293 2.3484,12.849 0.68707,5.1062 2.01474,11.1161 2.95038,13.3554 1.38829,3.3226 1.55413,6.968 0.90168,19.821 l -0.79947,15.7496 -4.61643,1.9846 c -5.63463,2.4222 -12.81123,3.1692 -20.60589,2.1448 l 0,0 z M 669.68184,377.42477 c 0.2918,-1.51523 -0.40224,-1.95584 -3.08084,-1.95584 -3.68861,0 -4.3077,0.94978 -2.07464,3.18284 1.85968,1.85968 4.6908,1.18587 5.15548,-1.227 z M 516.89352,222.13143 c 0,-1.42313 -0.58078,-3.16828 -1.29063,-3.87813 -1.72841,-1.72841 1.12466,-21.6663 3.21519,-22.4685 1.65199,-0.63394 2.00043,-4.81587 0.40125,-4.81587 -0.57705,0 -1.37054,-1.0125 -1.76331,-2.25 -0.39277,-1.2375 -1.0751,-2.25 -1.51628,-2.25 -0.75214,0 -13.51613,14.66315 -16.90075,19.41542 -1.41301,1.98397 -0.80118,2.85831 7.3125,10.44983 4.86999,4.55659 9.23422,8.30722 9.69828,8.33473 0.46406,0.0275 0.84375,-1.11436 0.84375,-2.53748 l 0,0 z M 352.9759,220.93147 c 1.36406,-1.46434 4.16732,-4.47196 6.22944,-6.68358 4.40225,-4.72141 4.53223,-4.36794 -5.61964,-15.28211 l -7.49533,-8.05814 -2.34842,3.29806 c -2.45915,3.45356 -3.01513,5.76323 -1.38731,5.76323 1.52493,0 6.07082,16.69404 5.53674,20.33285 -0.60304,4.10884 1.59059,4.38052 5.08452,0.62969 l 0,0 z m 192.96461,-19.64441 c 0.23874,-1.62249 -0.23361,-2.44313 -1.40625,-2.44313 -1.14864,0 -1.76574,1.01568 -1.76574,2.90625 0,3.52431 2.64203,3.13857 3.17199,-0.46312 l 0,0 z m -55.47001,-2.2482 c 1.16176,-2.14991 8.50545,-13.49792 13.4126,-20.72618 2.61845,-3.85699 3.31149,-4.21875 8.08217,-4.21875 l 5.21812,0 -0.91536,-5.90625 c -1.0909,-7.03899 -1.09206,-6.45639 0.0716,-36.15489 0.76988,-19.6488 0.66922,-23.4148 -0.61446,-22.98691 -0.84437,0.28146 -2.49385,2.24959 -3.66552,4.37364 -1.17168,2.12405 -3.04527,4.87441 -4.16353,6.11191 -4.2729,4.72851 -6.7526,10.73136 -6.7526,16.34672 0,3.07493 0.38447,5.59078 0.85439,5.59078 0.46991,0 1.52676,1.07664 2.34853,2.39251 1.46297,2.34257 1.38642,2.37637 -3.66688,1.61858 l -5.16099,-0.77396 0,6.42858 0,6.42856 -2.25123,-2.59569 -2.25122,-2.59569 -2.8099,3.26731 c -1.54545,1.79702 -2.81052,2.63449 -2.81128,1.86105 -0.003,-3.04417 -2.13381,-1.15017 -4.10868,3.65203 -1.92404,4.67858 -3.76769,6.6074 -3.76769,3.94172 0,-0.61875 -0.47036,-1.125 -1.04524,-1.125 -0.57488,0 -1.62327,2.78437 -2.32976,6.1875 -0.70649,3.40313 -1.56074,6.1875 -1.89831,6.1875 -0.33759,0 -0.25019,-3.39536 0.19422,-7.54525 0.70494,-6.58266 0.59605,-7.36932 -0.85355,-6.16626 -0.91387,0.75844 -2.06076,3.52099 -2.54865,6.139 -0.71254,3.82358 -0.9762,4.20671 -1.34021,1.94751 -0.90157,-5.59548 -2.65859,-11.25 -3.49571,-11.25 -0.47051,0 -2.09631,1.97698 -3.61288,4.39329 -1.51658,2.41631 -3.64335,4.95185 -4.72616,5.63453 -1.77816,1.12109 -1.96875,0.69579 -1.96875,-4.39329 0,-4.22626 -0.41641,-5.63453 -1.66607,-5.63453 -1.85638,0 -2.39795,1.91778 -3.36761,11.92544 -0.7841,8.09247 -0.77096,8.10839 10.09618,12.23201 9.06284,3.43897 15.06013,6.27544 16.79229,7.94207 0.66423,0.63912 2.97958,2.38559 5.14521,3.88105 2.16562,1.49546 4.34234,3.37724 4.83715,4.18173 1.27924,2.07984 3.44187,1.80957 4.73983,-0.59237 l 0,0 z m -42.38799,-33.80492 c 0.50463,-3.55119 -1.03905,-4.83002 -3.57228,-2.9594 -1.43362,1.05865 -1.83673,2.26657 -1.31013,3.92575 1.00178,3.15631 4.39193,2.48532 4.88241,-0.96635 z m 71.06101,-5.76501 c 0,-0.61875 -0.47637,-1.125 -1.0586,-1.125 -0.58224,0 -1.37149,0.50625 -1.7539,1.125 -0.38241,0.61875 0.0939,1.125 1.0586,1.125 0.96464,0 1.7539,-0.50625 1.7539,-1.125 z m -71.15625,-7.82454 c 0.15469,-0.0278 0.28125,-0.55671 0.28125,-1.17546 0,-0.61875 -1.71401,-1.125 -3.8089,-1.125 -2.0949,0 -5.25896,-0.75626 -7.03125,-1.68057 -1.77229,-0.92431 -4.14157,-1.68369 -5.26506,-1.6875 -1.12349,-0.003 -3.14849,-0.58524 -4.5,-1.29205 -4.28074,-2.23875 -14.817,-9.32216 -15.20729,-10.22367 -0.20625,-0.47642 -1.1263,-0.86621 -2.04456,-0.86621 -3.88493,0 2.19171,9.88274 8.45786,13.75543 6.11668,3.78033 20.31409,5.8745 29.11795,4.29503 z"
     id="path2987"
     inkscape:connector-curvature="0" />
  <path
     style="fill:#ff0000"
     id="path2993"
     d="m 446.02437,161.21748 c -0.10427,0.50739 -0.17842,1.02137 -0.25968,1.53317 -0.14065,0.54281 -0.33484,1.06677 -0.43521,1.61966 -0.0737,0.47327 -0.0819,0.95271 -0.085,1.4306 -0.004,0.48625 -0.002,0.97254 -6.1e-4,1.4588 0.004,0.47179 0.0147,0.94292 -0.0357,1.41256 -0.15791,1.13954 0.80387,0.0922 -2.63448,1.35 -0.0385,0.0141 -0.0413,-0.63488 -0.0425,-0.6886 -0.004,-0.61261 -0.003,-1.22538 0.001,-1.83804 -0.002,-0.62078 0.003,-1.24157 0.001,-1.86235 0.007,-0.52856 -0.0845,-1.05167 -0.14183,-1.57569 -0.0381,-0.49609 -0.0689,-0.99339 -0.0408,-1.49055 0.20437,-1.24563 0.88616,-1.05079 2.63503,-1.9229 0.12082,-0.0602 0.36903,0.59413 0.38901,0.64174 0.2701,0.57954 0.31013,1.2174 0.43993,1.83296 0.16495,0.54211 0.28369,1.09133 0.351,1.65356 0.0788,0.48232 0.15418,0.96434 0.24954,1.44361 0.0541,0.23711 0.0733,0.48072 0.13613,0.71602 0.0216,0.0808 0.0752,0.29557 0.11583,0.22251 -3.65361,1.97917 -2.74419,2.01941 -2.30184,0.8631 0.14103,-0.36866 0.22811,-0.74467 0.31046,-1.12965 0.2226,-0.92101 0.40225,-1.85061 0.4999,-2.79324 0.0357,-0.6043 0.13838,-1.20127 0.19719,-1.80335 0.0373,-0.50368 0.03,-0.99917 0.15075,-1.49171 0.42934,-1.65824 0.98528,-1.33788 3.01332,-2.4719 0.44731,0.342 0.34963,1.02999 0.35559,1.53027 0.006,0.88215 0.006,1.76437 0.0142,2.64651 0.003,0.61494 0.009,1.22982 0.012,1.84476 0.006,0.5037 -1.1e-4,1.00739 -5e-5,1.5111 -0.008,0.59106 -0.006,1.18229 -0.001,1.77338 -0.007,0.49894 0.0216,0.99913 -0.0107,1.49726 -0.0701,1.22977 -1.87133,3.06809 -3.02844,1.93641 -0.38659,-0.51394 -0.37886,-1.18952 -0.40716,-1.80467 -0.0241,-0.85165 -0.0284,-1.70357 -0.0291,-2.5555 0.003,-0.73261 -0.007,-1.46526 -0.002,-2.19784 0.006,-0.6611 -0.005,-1.32215 -0.006,-1.98324 -0.0112,-0.49869 0.005,-0.99793 -0.0123,-1.49643 -0.206,-0.9708 -0.0942,-0.3327 2.53895,-1.18429 0.0931,-0.0301 -0.009,0.19549 -0.0123,0.29327 -0.004,0.12595 -0.007,0.25194 -0.0104,0.37793 -0.0144,0.56751 -0.0103,0.38624 -0.0154,0.97095 -0.0104,0.95899 0.007,1.91794 0.008,2.87693 0.008,0.65151 0.0137,1.30302 0.0202,1.95454 9.3e-4,0.54935 -0.003,1.09874 -0.001,1.64812 0.004,0.50202 0.002,1.00403 0.005,1.50606 -0.008,0.49193 0.0143,0.98389 -0.0187,1.47501 -0.27284,1.1826 -0.94927,0.9343 -2.74737,1.63486 -0.11621,0.0453 -0.32144,-0.70426 -0.34245,-0.78007 -0.14996,-0.79592 -0.15269,-1.60976 -0.17178,-2.41675 -0.0102,-0.78347 -0.008,-1.56706 -0.007,-2.35059 0.007,-0.69055 -0.003,-1.38114 -0.008,-2.07168 -0.0186,-0.20169 0.0643,-1.14617 -0.1173,-1.21023 0.82091,-0.39736 1.63161,-0.81653 2.46272,-1.19207 0.074,-0.0334 -0.13788,0.0936 -0.18217,0.16159 -0.077,0.1183 -0.13018,0.25187 -0.17437,0.38594 -0.23962,0.72708 -0.34604,1.52188 -0.49557,2.26974 -0.53782,2.47966 -1.34833,4.88913 -2.07675,7.3173 -0.41287,1.44272 -0.82293,2.88834 -1.05525,4.37282 -0.32095,1.13944 -0.10468,0.56924 -2.57694,1.75287 -0.0897,0.0429 -0.13721,-0.14707 -0.18386,-0.23486 -0.15356,-0.28893 -0.1451,-0.69087 -0.16794,-1.00366 -0.0551,-1.33991 -0.0219,-2.68108 -0.009,-4.02144 -0.0114,-1.90828 0.2022,-3.80748 0.36672,-5.70597 0.0468,-0.94055 0.15452,-1.87461 0.28252,-2.80688 0,0 2.45968,-1.20645 2.45968,-1.20645 l 0,0 c -0.1589,0.93731 -0.30941,1.87607 -0.36053,2.82702 -0.18152,1.88924 -0.43467,3.78033 -0.37507,5.68265 0.016,1.31341 0.0256,2.62898 0.11303,3.93986 0.18179,1.59807 0.60283,0.57444 -2.19779,2.17815 -0.0659,0.0377 0.0892,-0.12286 0.13382,-0.1843 0.39001,-1.506 0.751,-3.01912 1.25206,-4.49457 0.75764,-2.3892 1.56506,-4.77756 2.00654,-7.24967 0.0913,-0.54336 0.18803,-1.08583 0.27361,-1.63011 0.0128,-0.0815 0.16917,-1.25255 0.29009,-1.32181 0.86325,-0.49444 1.78546,-0.87799 2.67818,-1.31698 0.25516,0.42357 0.15879,0.93787 0.16769,1.41023 -0.006,0.69422 -0.0169,1.38845 -0.0128,2.0827 -0.003,0.78323 -0.008,1.56643 -0.002,2.34967 0.007,0.78082 0.0129,1.56953 0.1665,2.33797 0.039,0.13726 0.0798,0.32848 0.1602,0.45527 0.0181,0.0285 0.10635,0.0474 0.0776,0.0651 -0.7854,0.48409 -1.61523,0.893 -2.40521,1.36959 -0.0386,0.0233 0.0957,0.0215 0.1353,-1.8e-4 0.0495,-0.0271 0.0707,-0.088 0.10603,-0.13203 0.059,-0.48002 0.0161,-0.9669 0.0276,-1.44978 0.003,-0.50379 0.001,-1.00755 0.005,-1.51133 0.001,-0.54902 -0.002,-1.09805 -0.001,-1.64703 0.006,-0.65836 0.0118,-1.31672 0.0202,-1.97507 4.9e-4,-0.96168 0.0183,-1.92332 0.008,-2.885 -0.004,-0.44099 -0.0104,-0.88175 -0.0259,-1.32251 -0.003,-0.0936 -0.0892,-0.22726 -0.0123,-0.28075 0.80862,-0.56251 1.69148,-1.01069 2.55363,-1.48712 0.0249,-0.0138 -0.01,0.056 -0.0147,0.0841 -0.0168,0.50271 -0.001,1.00609 -0.0123,1.50898 -0.001,0.66335 -0.0117,1.32666 -0.007,1.99002 0.003,0.7348 -0.01,1.46961 -0.0106,2.20441 -0.003,0.84719 -0.015,1.69512 0.0218,2.54173 0.0326,0.51711 0.009,1.13608 0.34413,1.5635 0.93155,0.4145 0.0818,0.005 -2.27208,1.4211 -0.041,0.0246 0.099,-0.0106 0.1383,-0.0379 0.16457,-0.11418 0.16534,-0.36302 0.20127,-0.53426 0.0708,-0.48821 0.0151,-0.98543 0.0356,-1.47729 0.004,-0.59061 0.007,-1.18135 -0.001,-1.77192 7e-5,-0.50391 -0.006,-1.00781 6.8e-4,-1.51171 0.004,-0.62028 0.0121,-1.24046 0.0186,-1.86072 0.0113,-0.88 0.0195,-1.76068 -0.006,-2.64045 -0.0153,-0.31116 -0.0224,-0.62638 -0.0761,-0.93423 -0.01,-0.0556 0.003,-0.182 -0.0493,-0.16195 -0.0152,0.006 -0.0176,0.0272 -0.0265,0.0408 0.78745,-0.46023 1.5771,-0.91672 2.36236,-1.38068 0.0447,-0.0264 -0.0988,0.0365 -0.14028,0.0678 -0.2501,0.18895 -0.31455,0.53533 -0.40041,0.81591 -0.0129,0.0447 -0.11934,0.40474 -0.12702,0.45936 -0.0457,0.32517 0.0109,0.66554 -0.0425,0.99121 -0.0641,0.61054 -0.17841,1.21381 -0.23601,1.8247 -0.10677,0.94934 -0.28994,1.88312 -0.49795,2.81536 -0.0616,0.39743 -0.14526,0.76849 -0.25691,1.15432 -0.0276,0.0953 -0.0551,0.19064 -0.0825,0.28601 -0.016,0.0557 0.002,0.13734 -0.0477,0.16714 -0.83784,0.50264 -1.71505,0.93654 -2.57258,1.4048 -0.22518,-0.32525 -0.21276,-0.75672 -0.29947,-1.12958 -0.10383,-0.48709 -0.1743,-0.97795 -0.26221,-1.46827 -0.0507,-0.55496 -0.15688,-1.09893 -0.31738,-1.63326 -0.1448,-0.59088 -0.15335,-1.21627 -0.42662,-1.77377 -0.0376,-0.0741 -0.0715,-0.15009 -0.11267,-0.22225 -0.0193,-0.0338 -0.0338,-0.0765 -0.0681,-0.0948 -0.0159,-0.008 -0.0254,0.0624 -0.01,0.0532 4.45184,-2.63241 2.47895,-2.08135 2.16631,-1.11242 -0.0555,0.47858 -0.007,0.96378 0.0188,1.44352 0.0471,0.53631 0.1466,1.06998 0.1381,1.60908 -0.003,0.62142 0.002,1.24286 -0.004,1.86428 0.001,0.60753 -0.007,1.21508 0.009,1.82249 0.006,0.16087 0.0484,0.60526 0.0436,0.60809 -0.82982,0.49529 -1.70132,0.91715 -2.55197,1.37573 0.0959,0.002 0.0498,0.0189 0.10599,-0.1019 0.10853,-0.45295 0.0659,-0.91354 0.0717,-1.37595 -0.001,-0.48657 -0.003,-0.97313 -0.004,-1.4597 0.005,-0.49183 0.005,-0.98573 0.072,-1.47395 0.0861,-0.55847 0.25012,-1.09063 0.44338,-1.62136 0.0817,-0.50656 0.16706,-1.0111 0.21264,-1.52251 0,0 2.58208,-1.25206 2.58208,-1.25206 z"
     inkscape:connector-curvature="0" />
  <path
     style="fill:#ff0000"
     id="path2995"
     d="m 522.59665,154.30753 c -0.43576,0.39277 -0.82958,0.81414 -1.1566,1.30125 -0.31137,0.51262 -0.72887,0.94448 -1.07121,1.43509 -0.28218,0.37808 -0.37138,0.82435 -0.42523,1.28154 -0.0204,0.51404 -0.0213,1.01704 -0.12939,1.52185 -0.13489,0.52546 -0.21342,1.06179 -0.25424,1.60204 -0.0872,1.67067 0.48706,0.54318 -2.57511,1.98693 0.028,-0.51396 0.0274,-1.02883 0.0305,-1.54336 -0.004,-0.55646 -0.004,-1.11292 -0.007,-1.66938 7.2e-4,-0.48719 -0.004,-0.97443 -9.8e-4,-1.46162 -0.002,-0.48431 8.2e-4,-0.96861 -6.5e-4,-1.45293 -0.005,-0.45743 0.01,-0.91519 -0.008,-1.37241 -0.14091,-0.95783 -2.5984,0.87079 2.55365,-1.29935 0.0446,-0.0188 -0.005,0.0967 -0.007,0.14503 -0.004,0.12654 -0.005,0.24763 -0.007,0.3744 -0.0113,0.53009 -0.0108,1.06034 -0.01,1.59052 0.004,0.50159 0.002,1.00317 0.005,1.50477 -0.001,0.488 -0.001,0.97599 -0.001,1.46399 -0.0214,0.51632 0.0203,1.02668 0.0751,1.53923 0.0339,0.2707 0.052,0.54297 0.0775,0.81445 0.0177,0.18835 0.0342,0.37915 0.04,0.28188 -2.67959,1.33397 -2.43531,2.21439 -2.57756,1.0912 -0.0463,-0.36577 -0.07,-0.73298 -0.0944,-1.10082 -0.0339,-0.60966 -0.0336,-1.22032 -0.0413,-1.83066 -0.003,-0.51773 -0.008,-1.03555 -0.005,-1.55329 -0.0103,-0.45711 -0.12354,-0.8973 -0.23405,-1.33745 -0.0926,-0.41379 -0.17061,-0.83912 -0.43131,-1.18378 -0.0229,-0.0111 -0.0584,-0.0567 -0.0686,-0.0334 -0.0199,0.0455 -0.0257,0.17056 0.0186,0.14793 0.8232,-0.4211 1.59314,-0.93955 2.40262,-1.38647 0.0265,-0.0147 -0.0342,0.052 -0.0397,0.0818 -0.0136,0.0742 0.006,0.26057 0.0108,0.32706 0.0499,0.41804 0.0715,0.83773 0.0836,1.25826 0.0115,0.43339 0.0143,0.86693 0.016,1.30045 -0.004,0.44687 -9.5e-4,0.8938 -0.005,1.34067 -0.0107,0.52656 -0.15317,1.03339 -0.26121,1.54479 -0.21643,1.23413 0.53986,0.31282 -2.64646,1.45556 -0.007,0.002 -0.009,-0.15997 -0.0141,-0.37062 2.2e-4,-0.48088 0.004,-0.96173 0.006,-1.4426 -2.2e-4,-0.48456 0.002,-0.96908 4e-4,-1.45365 0.002,-0.4877 0.002,-0.9754 0.002,-1.46311 -0.0122,-1.62665 -0.29309,-0.62521 2.54517,-1.97805 -0.0296,0.49753 -0.0196,0.99632 -0.0267,1.49445 -0.0298,0.56685 0.0474,1.12761 0.11452,1.68863 0.0265,0.48726 0.11763,0.96532 0.19294,1.4464 0.0686,0.42653 0.0797,0.85804 0.0863,1.28894 0.0263,0.30789 0.0738,0.6135 0.11087,0.92028 0,0 -2.51061,1.31682 -2.51061,1.31682 l 0,0 c -0.0367,-0.31555 -0.0865,-0.62895 -0.12854,-0.9438 -0.007,-0.41933 -0.0179,-0.83956 -0.0696,-1.2562 -0.0662,-0.48653 -0.17027,-0.96765 -0.18884,-1.45968 -0.0588,-0.57309 -0.15179,-1.14348 -0.11855,-1.72173 -0.007,-0.48903 0.003,-0.9788 -0.0267,-1.4672 3.05943,-1.65957 2.53184,-2.24713 2.54522,-0.61563 1.8e-4,0.48718 -5e-5,0.97436 0.002,1.46155 -0.003,0.48555 -7.7e-4,0.97107 -0.004,1.45661 -0.001,0.47567 -0.005,0.95151 0.005,1.42708 0.002,0.0609 0.003,0.12194 0.006,0.18286 0.002,0.0516 0.0539,0.12824 0.01,0.15464 -0.83681,0.49756 -1.72392,0.90539 -2.57805,1.3726 -0.0144,0.008 0.036,0.0228 0.0478,0.0115 0.0677,-0.0652 0.0227,-0.20989 0.0844,-0.269 0.10158,-0.49768 0.26704,-0.98276 0.28906,-1.4939 -0.004,-0.44525 -4e-4,-0.89055 -0.004,-1.3358 0.001,-0.43222 0.003,-0.86451 -0.006,-1.29667 -0.0122,-0.41233 -0.0328,-0.82486 -0.0858,-1.23427 -0.006,-0.05 -0.0984,-0.52746 -0.0654,-0.55071 1.19023,-0.84003 1.93896,-2.28972 2.73258,-1.3489 0.23357,0.3942 0.39259,0.8231 0.47008,1.27524 0.10948,0.46388 0.23204,0.92315 0.2568,1.40236 0.002,0.51899 -0.005,1.03799 -0.005,1.55698 -0.002,0.60571 0.003,1.21171 0.0326,1.81682 0.11763,2.03314 0.73912,0.89528 -2.3704,2.70422 -0.0761,-0.38348 0.0108,-0.80019 -0.0813,-1.18498 -0.0618,-0.51992 -0.13394,-1.03676 -0.1001,-1.56213 -1.6e-4,-0.48752 9e-5,-0.97504 -0.001,-1.46256 0.003,-0.50324 0.001,-1.00646 0.005,-1.50969 0.001,-0.52687 0.002,-1.05382 -0.01,-1.5806 -0.002,-0.12752 -0.0227,-0.50023 -0.0134,-0.5058 4.52909,-2.70762 2.68239,-2.29394 2.55366,-1.30297 -0.0171,0.45989 -0.004,0.92025 -0.008,1.38034 -0.001,0.48453 0.002,0.96904 -6.4e-4,1.45358 0.003,0.48752 -0.002,0.97511 -9.8e-4,1.46264 -0.003,0.55922 -0.004,1.11844 -0.008,1.67766 0.002,0.50456 -1.7e-4,1.00948 0.0263,1.51353 -3.00846,1.61583 -2.57827,2.24195 -2.52089,0.58807 0.0357,-0.5544 0.1057,-1.10398 0.2397,-1.64433 0.0174,-0.0701 0.11039,-0.433 0.11872,-0.51299 0.0332,-0.31927 -0.027,-0.64969 0.018,-0.96946 0.0316,-0.49009 0.10235,-0.99119 0.36758,-1.41546 0.34171,-0.49968 0.74848,-0.9396 1.0924,-1.43586 0.029,-0.0459 0.32778,-0.52138 0.35906,-0.56362 0.21053,-0.28437 0.49088,-0.50712 0.72448,-0.77082 0,0 2.64794,-1.09681 2.64794,-1.09681 z"
     inkscape:connector-curvature="0" />
  <path
     style="fill:#ff0000"
     id="path2997"
     d="m 543.56213,195.32975 c 0.29104,0.50341 0.45304,1.06977 0.56539,1.63653 0.11906,0.78955 0.19005,1.58591 0.30911,2.37524 0.13256,0.58904 0.30157,1.16877 0.45239,1.75311 0.14135,0.52081 0.13139,1.06347 0.19093,1.59566 0.0754,0.50253 0.13084,1.00617 0.15939,1.51342 0.0109,0.23552 0.0277,0.48017 -0.0361,0.71095 -0.27686,1.00123 -1.71011,1.19949 -2.6536,1.63416 -0.0789,0.0363 -0.12449,-0.12114 -0.18674,-0.18171 -0.34065,-0.54853 -0.38335,-1.22744 -0.51099,-1.84815 -0.23201,-0.80108 -0.33411,-1.62189 -0.40344,-2.44989 -0.0569,-0.66833 -0.057,-1.33922 -0.062,-2.00933 0.006,-0.59649 -0.003,-1.19297 -0.001,-1.78944 -0.004,-0.49977 -0.001,-0.99952 -0.003,-1.49929 -3.8e-4,-0.0772 -0.001,-0.1545 -0.001,-0.23175 1.5e-4,-0.12785 0.006,-0.31266 -0.004,-0.44447 -0.002,-0.026 -0.0375,-0.0654 -0.0141,-0.0769 2.63044,-1.29717 2.6052,-2.11001 2.54942,-0.96031 -0.0188,0.85265 -0.0337,1.70555 -0.0461,2.5584 -0.004,1.03827 0.007,2.07656 0.0199,3.11473 0.0161,0.59937 0.002,1.1996 0.0282,1.79868 0.0908,1.05679 1.47404,-0.34437 -2.55151,1.34751 -0.046,0.0193 0.006,-0.0997 0.008,-0.14955 0.005,-0.14582 0.008,-0.29173 0.0125,-0.43758 0.0301,-0.91889 0.0592,-1.83936 0.1547,-2.75411 0.0671,-0.63728 0.18182,-1.26851 0.33257,-1.89108 0.14391,-0.48394 0.4132,-0.91467 0.69501,-1.32864 0.70982,-1.00083 1.52496,-1.17776 2.89397,-1.88756 0.091,-0.0472 0.29956,0.17754 0.3277,0.21742 0.0442,0.0626 0.0681,0.13723 0.10223,0.20585 0.1503,0.45589 0.1441,0.94073 0.15279,1.41523 0.006,0.53079 -0.007,1.06156 -0.008,1.59235 0.0316,0.49131 -0.0347,0.97507 -0.10098,1.46 -0.0648,0.44098 -0.0731,0.88671 -0.0854,1.33136 -0.011,0.48568 0.009,0.97185 -0.022,1.45679 0.0131,0.0257 -0.0662,0.41618 0.047,0.43139 0.0113,0.002 0.13003,-0.23056 0.0233,-0.17484 -0.8129,0.42437 -1.58789,0.91769 -2.38183,1.37653 0.19549,-0.36158 0.29688,-0.76216 0.46029,-1.1392 0.17114,-0.36515 0.24459,-0.75683 0.28315,-1.15485 0.0249,-0.42611 0.0468,-0.85498 0.0113,-1.28087 -0.0709,-0.42724 -0.21359,-0.83432 -0.28661,-1.26229 -0.045,-0.47202 -0.12612,-0.93877 -0.19438,-1.4077 -0.0212,-0.54355 -0.15424,-1.06591 -0.32775,-1.57887 -0.27147,-1.1733 -0.0228,-0.55601 2.54049,-1.56252 0.031,-0.0122 0.21321,0.70077 0.22304,0.74044 0.12945,0.66244 0.1405,1.33411 0.27582,1.99551 0.1362,0.60572 0.23305,1.21676 0.28134,1.8354 0.0358,0.50623 -0.17986,0.95961 -0.37595,1.41135 -0.24631,0.41105 -0.39335,0.86228 -0.53961,1.31523 -0.14031,0.48477 -0.18037,0.98978 -0.2565,1.4869 -0.26827,1.94661 -0.0836,1.1224 -2.82995,2.5887 -0.37527,-0.45672 -0.3663,-1.0909 -0.44011,-1.65297 -0.13662,-0.74809 -0.25319,-1.49718 -0.31205,-2.2555 -0.0341,-0.84777 -0.0298,-1.6949 -0.0937,-2.54123 -0.009,-0.68979 -0.18955,-1.33849 -0.41024,-1.98498 -0.24575,-0.76342 -0.58796,-1.48711 -0.85695,-2.24288 -0.30068,-0.90104 -0.47091,-1.837 -0.71038,-2.75384 -0.20668,-0.76032 -0.44302,-1.51269 -0.63274,-2.27749 -0.14598,-0.68264 -0.38558,-1.33653 -0.68248,-1.9668 -0.045,-0.0941 -0.0899,-0.18818 -0.13489,-0.28228 0,0 2.45146,-1.38663 2.45146,-1.38663 l 0,0 c 0.0429,0.095 0.0859,0.18992 0.12885,0.28488 0.30172,0.64844 0.55063,1.31769 0.70384,2.01756 0.18922,0.76559 0.39579,1.52612 0.61009,2.28502 0.24145,0.90868 0.3776,1.84667 0.69873,2.73474 0.26327,0.75868 0.63276,1.46899 0.89176,2.2286 0.22049,0.67365 0.42718,1.3424 0.414,2.06118 0.0654,0.84428 0.0705,1.68834 0.10927,2.53399 0.0526,0.75245 0.14719,1.50027 0.30392,2.23878 0.0256,0.17019 0.12712,1.2184 0.29259,1.27879 -0.79555,0.46351 -1.59575,0.91911 -2.38664,1.39053 -0.0402,0.0239 0.098,-0.0149 0.13224,-0.0468 0.0465,-0.0434 0.0744,-0.1052 0.0952,-0.16528 0.0931,-0.2691 0.0623,-0.56629 0.12052,-0.8417 0.0788,-0.50647 0.10931,-1.01938 0.23344,-1.51804 0.12506,-0.46307 0.26332,-0.93874 0.51566,-1.34972 0.20042,-0.40612 0.4233,-0.83147 0.44929,-1.28925 -0.0342,-0.60985 -0.10779,-1.21655 -0.24094,-1.81339 -0.0275,-0.13253 -0.12832,-0.60756 -0.14536,-0.73735 -0.0539,-0.41007 -0.0355,-0.83182 -0.14747,-1.23463 -0.052,-0.20043 -0.0651,-0.27733 -0.13856,-0.46565 -0.0137,-0.0352 -0.0824,-0.0825 -0.0499,-0.10177 0.81943,-0.48656 1.69119,-0.88063 2.51405,-1.36136 0.0297,-0.0173 -0.0539,-0.0704 -0.0857,-0.0573 -0.0332,0.0136 -0.0188,0.0693 -0.0282,0.10397 0.1331,0.53597 0.34911,1.05348 0.35153,1.61398 0.0598,0.46801 0.15834,0.92968 0.1916,1.40073 0.0678,0.43433 0.21555,0.84405 0.29675,1.27435 0.0572,0.43888 0.0246,0.88455 0.0186,1.32622 -0.0288,0.42391 -0.0827,0.84711 -0.25003,1.24206 -0.16387,0.37867 -0.31128,0.75455 -0.4223,1.15272 -0.7876,0.49961 -2.90534,2.74493 -2.84657,0.80183 0.0613,-0.47571 0.0122,-0.95782 0.0315,-1.43652 0.002,-0.45325 0.0122,-0.90815 0.0634,-1.35877 0.0662,-0.47745 0.16979,-0.95013 0.1367,-1.43556 0.002,-0.52762 -0.003,-1.05524 -4.1e-4,-1.58286 -0.003,-0.43149 0.004,-0.87299 -0.11117,-1.29226 -0.0198,-0.0394 -0.0307,-0.12129 -0.0996,-0.10049 -0.0287,0.009 -0.10131,0.064 -0.0755,0.0488 4.36384,-2.57697 2.5527,-1.7605 1.9268,-1.03063 -0.26605,0.40166 -0.55143,0.79508 -0.73296,1.24495 -0.18685,0.61061 -0.29223,1.24491 -0.3926,1.87455 -0.12311,0.89431 -0.18187,1.79902 -0.12464,2.70122 0.005,0.1429 0.0339,0.55836 0.0201,0.56663 -3.83376,2.29553 -2.6346,2.30805 -2.5515,1.25262 0.0253,-0.60871 0.0125,-1.21845 0.0282,-1.82742 0.0126,-1.04493 0.0235,-2.08997 0.0199,-3.13499 -0.0124,-0.83718 -0.0273,-1.67444 -0.0461,-2.51141 -0.06,-1.17775 -0.0753,-0.25734 2.54946,-1.63772 0.0273,-0.0143 -0.0121,0.0606 -0.0141,0.0914 -0.0152,0.22686 0.003,0.45439 -0.005,0.6814 -0.002,0.50125 4.8e-4,1.00248 -0.005,1.50372 -1.4e-4,0.59777 -0.0131,1.1955 -0.008,1.7933 -0.003,0.66777 -7e-5,1.33593 0.0298,2.00314 0.0515,0.81586 0.15908,1.62502 0.38036,2.41423 0.1356,0.53834 0.17376,1.14885 0.46919,1.62732 0.87279,-0.40773 -0.20456,0.0936 -2.28398,1.36673 -0.0435,0.0267 0.11017,-0.0125 0.14471,-0.05 0.13963,-0.15191 0.0751,-0.4619 0.0848,-0.63892 -0.023,-0.50128 -0.0679,-1.00122 -0.14904,-1.49676 -0.0672,-0.52137 -0.0425,-1.05388 -0.17006,-1.56817 -0.13899,-0.59819 -0.31738,-1.18647 -0.44458,-1.78772 -0.11138,-0.78545 -0.1617,-1.57928 -0.30458,-2.36087 -0.10592,-0.52132 -0.24298,-1.05712 -0.55897,-1.49501 0,0 2.46833,-1.46483 2.46833,-1.46483 z"
     inkscape:connector-curvature="0" />
</svg>
