<?xml version="1.0" encoding="UTF-8" standalone="no"?>
<!-- Created with Inkscape (http://www.inkscape.org/) -->

<svg
   xmlns:dc="http://purl.org/dc/elements/1.1/"
   xmlns:cc="http://creativecommons.org/ns#"
   xmlns:rdf="http://www.w3.org/1999/02/22-rdf-syntax-ns#"
   xmlns:svg="http://www.w3.org/2000/svg"
   xmlns="http://www.w3.org/2000/svg"
   xmlns:sodipodi="http://sodipodi.sourceforge.net/DTD/sodipodi-0.dtd"
   xmlns:inkscape="http://www.inkscape.org/namespaces/inkscape"
   id="svg2"
   version="1.1"
   inkscape:version="0.48.4 r9939"
   width="366.97607"
   height="653.79254"
   sodipodi:docname="iPod_Touhou_Kaguya_by_Zraty.png">
  <metadata
     id="metadata8">
    <rdf:RDF>
      <cc:Work
         rdf:about="">
        <dc:format>image/svg+xml</dc:format>
        <dc:type
           rdf:resource="http://purl.org/dc/dcmitype/StillImage" />
        <dc:title></dc:title>
      </cc:Work>
    </rdf:RDF>
  </metadata>
  <defs
     id="defs6" />
  <sodipodi:namedview
     pagecolor="#ffffff"
     bordercolor="#666666"
     borderopacity="1"
     objecttolerance="10"
     gridtolerance="10"
     guidetolerance="10"
     inkscape:pageopacity="0"
     inkscape:pageshadow="2"
     inkscape:window-width="956"
     inkscape:window-height="1041"
     id="namedview4"
     showgrid="false"
     fit-margin-top="0"
     fit-margin-left="0"
     fit-margin-right="0"
     fit-margin-bottom="0"
     inkscape:zoom="1.2377522"
     inkscape:cx="187.82582"
     inkscape:cy="327.47836"
     inkscape:window-x="960"
     inkscape:window-y="18"
     inkscape:window-maximized="0"
     inkscape:current-layer="svg2" />
  <path
     style="fill:#ff0000"
     d="m 95.723382,653.33341 c -1.9996,-0.41997 -4.03927,-1.31322 -4.53261,-1.985 -0.49334,-0.67178 -1.26509,-1.22141 -1.715,-1.22141 -1.011,0 -5.745927,-5.40678 -6.898346,-7.87719 -0.466394,-0.99979 -1.148316,-1.81781 -1.515376,-1.81781 -0.983339,0 -2.923883,-5.05566 -3.554383,-9.26013 -0.526913,-3.51371 -0.663,-3.66653 -3.265055,-3.66653 -2.189624,0 -2.953831,-0.46141 -3.947847,-2.38362 -0.677942,-1.311 -1.232622,-2.91674 -1.232622,-3.5683 0,-0.65157 -0.454453,-1.33615 -1.009895,-1.5213 -1.296502,-0.43217 -1.437251,-17.3441 -0.151533,-18.20758 0.4721,-0.31706 1.505733,-2.66696 2.296964,-5.22199 0.791231,-2.55504 1.712248,-4.64552 2.046706,-4.64552 0.923524,0 3.281088,-11.62675 3.281088,-16.18128 0,-4.57876 0.561991,-4.37945 -8.699747,-3.08526 -5.333582,0.7453 -7.328359,0.71943 -9.896973,-0.12828 -1.769359,-0.58394 -3.217017,-1.34259 -3.217017,-1.68587 0,-0.34329 -0.745352,-0.86072 -1.656337,-1.14986 -0.910986,-0.28914 -4.273937,-3.07157 -7.473225,-6.18318 -5.060552,-4.92187 -6.342131,-5.74728 -9.856468,-6.34814 -7.253655,-1.24018 -9.291037,-1.7855 -9.291037,-2.48685 0,-0.37977 -1.454249,-1.4324 -3.231664,-2.33917 -1.777416,-0.90678 -3.231665,-1.96245 -3.231665,-2.34594 0,-0.3835 -0.636234,-0.9109 -1.413853,-1.172 -3.809359,-1.27907 -9.4937261,-6.95073 -10.7345941,-10.71061 -0.496938,-1.50573 -1.183662,-2.73769 -1.526055,-2.73769 -0.725078,0 -3.291738,-7.57931 -3.291738,-9.72045 0,-0.80065 -0.305932,-1.57691 -0.67985,-1.72503 -0.37391704,-0.14812 -0.90305104,-1.41529 -1.17585404,-2.81592 -0.387719,-1.99065 -0.06398,-3.04895 1.48289804,-4.8475 1.088397,-1.26549 2.799109,-3.31995 3.801583,-4.56549 1.002473,-1.24554 3.367818,-3.92201 5.2563221,-5.94771 1.888504,-2.02572 3.433644,-3.95026 3.433644,-4.27677 0,-0.32651 1.272468,-1.90387 2.827707,-3.50525 1.555238,-1.60138 2.827706,-3.12858 2.827706,-3.39378 0,-0.26519 3.908295,-4.42082 8.685099,-9.23474 4.776805,-4.81392 9.594005,-9.9449 10.70489,-11.40219 1.110884,-1.45729 2.580728,-3.24316 3.266318,-3.9686 0.685591,-0.72542 1.741512,-2.57584 2.346491,-4.11202 0.604979,-1.53618 1.527244,-3.15661 2.049478,-3.60097 0.522234,-0.44435 1.606189,-2.53483 2.408789,-4.64551 0.8026,-2.11069 1.694072,-3.83761 1.981048,-3.83761 0.286975,0 1.010769,-1.65612 1.608429,-3.68027 0.59766,-2.02415 1.585937,-4.17956 2.196171,-4.78979 0.610234,-0.61024 1.109515,-1.65937 1.109515,-2.33141 0,-0.67205 0.291568,-1.40211 0.647927,-1.62235 0.35636,-0.22024 1.149206,-2.24129 1.761881,-4.49122 0.612673,-2.24992 1.354232,-4.09078 1.647906,-4.09078 0.293674,0 1.19442,-2.18137 2.001658,-4.84749 0.807237,-2.66613 1.715346,-4.8475 2.01802,-4.8475 0.302675,0 1.226128,-2.36316 2.052118,-5.25146 0.825991,-2.8883 1.759417,-5.25145 2.074281,-5.25145 0.314863,0 1.21985,-2.09048 2.011081,-4.64552 0.791231,-2.55503 1.67483,-4.8273 1.963552,-5.04948 0.288724,-0.22217 1.198245,-2.67622 2.021158,-5.45343 0.822914,-2.77721 1.726956,-5.04948 2.008983,-5.04948 0.282025,0 1.386639,-2.8176 2.454696,-6.26135 1.068057,-3.44374 2.349008,-6.68625 2.846564,-7.20557 0.497547,-0.51932 1.370969,-2.6098 1.940937,-4.64551 0.569961,-2.03572 1.318778,-3.7013 1.664025,-3.7013 0.345247,0 1.256671,-1.9996 2.025391,-4.44354 0.76871,-2.44395 1.69737,-4.44354 2.06368,-4.44354 0.36631,0 1.2267,-1.88802 1.91198,-4.1956 0.68528,-2.30759 1.51738,-4.39807 1.84912,-4.64552 0.90013,-0.67145 3.43085,-6.38708 3.43085,-7.74858 0,-0.65145 0.28524,-1.18446 0.63388,-1.18446 0.34863,0 1.51763,-2.36315 2.59779,-5.25145 1.080148,-2.8883 2.230568,-5.25146 2.556498,-5.25146 0.32592,0 1.2229,-1.99959 1.99329,-4.44354 0.77039,-2.44394 1.66136,-4.44354 1.97994,-4.44354 0.31858,0 1.23291,-1.81781 2.03184,-4.03958 0.79894,-2.22177 1.70785,-4.03958 2.01979,-4.03958 0.31196,0 1.22086,-1.81781 2.01979,-4.03958 0.79894,-2.22177 1.7143,-4.03958 2.03412,-4.03958 0.31982,0 1.2063,-1.63603 1.96995,-3.63562 0.76365,-1.99959 1.62431,-3.63562 1.91257,-3.63562 0.28827,0 1.40788,-2.36316 2.48803,-5.25146 1.08015,-2.8883 2.24915,-5.25146 2.59779,-5.25146 1.26052,0 0.59655,-2.05837 -0.98196,-3.04417 -0.88871,-0.555 -1.61583,-1.48281 -1.61583,-2.06178 0,-0.57898 -0.66796,-1.76965 -1.48435,-2.64595 -2.27017,-2.43673 -2.75376,-5.43934 -1.11696,-6.93504 0.76419,-0.69831 3.29073,-3.28242 5.61452,-5.74246 2.3238,-2.46005 5.05235,-5.14126 6.06345,-5.95825 1.0111,-0.817 2.54019,-2.57614 3.39799,-3.9092 0.8578,-1.33306 2.4011,-3.08637 3.42956,-3.89624 1.02847,-0.80987 1.86994,-1.99145 1.86994,-2.62573 0,-0.63428 0.36357,-1.15324 0.80792,-1.15324 0.44435,0 0.80792,-1.24217 0.80792,-2.76038 0,-1.5182 0.45445,-2.94477 1.00989,-3.17016 1.52845,-0.62018 -0.78047,-1.96783 -4.42701,-2.58391 -1.67542,-0.28306 -3.04621,-0.85526 -3.04621,-1.27155 0,-0.4163 -0.91823,-1.10601 -2.0405,-1.53269 -1.12227,-0.42669 -2.28278,-1.41749 -2.5789,-2.20177 -0.29613,-0.7843 -1.55928,-2.45375 -2.807,-3.7099 -1.24773,-1.25616 -2.26279,-2.52862 -2.2557,-2.82771 0.007,-0.29909 1.13951,-1.81626 2.51647,-3.3715 2.49625,-2.81944 2.50243,-2.84977 2.11489,-10.38848 -0.21378,-4.15843 -0.76747,-7.79488 -1.23044,-8.08101 -0.46297,-0.28613 -1.08475,-1.81545 -1.38172,-3.39849 -0.62076,-3.30891 -1.71451,-5.38014 -2.45175,-4.6429 -0.27914,0.27913 -0.92155,2.99532 -1.42758,6.03598 -0.50603,3.04065 -1.1803,5.71561 -1.49837,5.94435 -0.31807,0.22874 -1.37629,3.77347 -2.3516,7.87718 -0.97531,4.10371 -2.09202,7.46129 -2.48158,7.46129 -1.25543,0 -0.75495,5.03921 0.59878,6.02908 1.02295,0.748 1.18314,1.68939 0.73691,4.33063 -0.3136,1.85618 -0.90179,3.37487 -1.30709,3.37487 -0.40529,0 -0.7369,0.9089 -0.7369,2.01979 0,1.11088 0.29806,2.01979 0.66235,2.01979 1.21333,0 2.82696,12.55147 1.84865,14.37947 -0.48478,0.90582 -0.79363,3.63509 -0.68632,6.06503 0.17057,3.86227 -0.059,4.62393 -1.82468,6.05437 -1.93208,1.56523 -2.02103,2.02731 -2.04851,10.64154 -0.0183,5.75982 -0.35568,9.20732 -0.93595,9.56595 -0.49898,0.30838 -1.51912,2.92207 -2.26699,5.80819 -0.74787,2.88612 -1.61305,5.43017 -1.92263,5.65343 -0.30958,0.22327 -1.27602,2.6782 -2.14766,5.45542 -0.87165,2.77721 -1.84739,5.04947 -2.16834,5.04947 -0.32093,0 -1.16482,1.9996 -1.87529,4.44354 -0.71047,2.44395 -1.58521,4.44354 -1.943848,4.44354 -0.35865,0 -1.46787,2.18137 -2.46493,4.8475 -0.99707,2.66612 -2.10201,4.84749 -2.45544,4.84749 -0.35342,0 -1.26739,1.63604 -2.03104,3.63563 -0.76365,1.99959 -1.61174,3.63979 -1.88464,3.64489 -0.27289,0.005 -1.22329,1.54352 -2.112,3.41871 -0.88871,1.8752 -2.25207,4.0524 -3.029688,4.83823 -0.777619,0.78583 -1.413853,1.95606 -1.413853,2.60051 0,0.64445 -0.454453,1.46247 -1.009895,1.81781 -0.555443,0.35535 -1.881023,2.24434 -2.945736,4.19776 -3.202865,5.87626 -4.246484,6.54728 -10.182902,6.54728 -2.888301,0 -5.251456,-0.27735 -5.251456,-0.61634 0,-0.33898 -0.818015,-0.97521 -1.817811,-1.41385 -0.999796,-0.43863 -1.933988,-1.61553 -2.075982,-2.61533 -0.141994,-0.99979 -0.552001,-1.81781 -0.911127,-1.81781 -0.617117,0 -1.087759,-2.7272 -3.381045,-19.59197 -0.528707,-3.88809 -1.266308,-7.06926 -1.639115,-7.06926 -0.372807,0 -0.67783,-0.73992 -0.67783,-1.64426 0,-1.37527 -0.255644,-1.50744 -1.562719,-0.80791 -3.136636,1.67867 -3.22662,1.25686 -2.722905,-12.76398 0.268734,-7.48017 0.245322,-14.56964 -0.05202,-15.75437 -0.623782,-2.48534 -2.371435,-2.80067 -3.89768,-0.70326 -0.580639,0.79793 -2.509956,2.32793 -4.287372,3.39999 -1.777415,1.07206 -3.595227,2.36268 -4.039581,2.86803 -1.408757,1.60215 -5.952211,2.98617 -8.063479,2.45627 -2.6322,-0.66064 -2.576201,-1.71004 0.186293,-3.49115 2.751344,-1.77391 9.896973,-8.91386 9.896973,-9.8891 0,-0.39442 0.837289,-1.37975 1.860643,-2.18962 1.023353,-0.80987 2.568493,-2.74496 3.433644,-4.3002 0.86515,-1.55524 2.013141,-3.11044 2.55109,-3.45599 1.207895,-0.7759 2.646979,-5.767 2.653027,-9.20137 0.0025,-1.40711 0.277178,-2.67958 0.610443,-2.8277 1.137057,-0.50536 3.433644,-6.37773 3.433644,-8.77984 0,-1.31799 0.305205,-2.39634 0.678234,-2.39634 1.0838,0 2.553431,-3.88164 2.553431,-6.74423 0,-2.65972 1.574987,-6.97245 2.550533,-6.98404 0.291908,-0.003 1.183516,-2.09678 1.98135,-4.65182 0.797834,-2.55503 1.889185,-5.09276 2.425224,-5.6394 0.536039,-0.54663 1.222744,-2.46254 1.526013,-4.25757 0.303268,-1.79503 0.994626,-3.71094 1.536351,-4.25757 0.541725,-0.54664 1.685589,-3.44793 2.541918,-6.44732 0.856331,-2.99939 1.808378,-5.45344 2.115663,-5.45344 0.307284,0 1.165989,-2.09048 1.908233,-4.64551 0.742244,-2.55504 1.617059,-4.8273 1.944034,-5.04948 0.326974,-0.22218 1.017949,-1.9491 1.535501,-3.8376 l 1.882005,-6.86729 c 0.517551,-1.8885 1.209685,-3.61542 1.53807,-3.8376 0.328394,-0.22218 1.157873,-2.5518 1.843301,-5.17695 0.68542,-2.62514 1.568723,-4.98829 1.962905,-5.25146 0.394175,-0.26315 1.392703,-3.11429 2.218933,-6.33585 0.82624,-3.22157 1.74518,-5.85739 2.04208,-5.85739 0.29691,0 1.20421,-3.63563 2.01622,-8.07917 0.81201,-4.44353 1.77148,-8.07916 2.13214,-8.07916 0.36066,0 0.65575,-0.84414 0.65575,-1.87587 0,-2.14748 2.38868,-9.63693 3.26685,-10.24287 1.5131,-1.04405 4.004398,-6.79777 4.004398,-9.24828 0,-1.5047 0.31764,-2.857 0.70587,-3.00512 1.2808,-0.48865 2.65735,-24.08291 2.9819,-51.110343 0.17571,-14.631963 0.63799,-26.8113 1.0273,-27.065198 0.3893,-0.253898 0.95956,-2.730248 1.26724,-5.503001 0.56482,-5.090027 1.89389,-9.969553 2.91797,-10.712997 0.30604,-0.222177 1.18462,-2.31266 1.95238,-4.645518 0.76777,-2.332858 1.67209,-4.24156 2.00961,-4.24156 0.33752,0 1.10637,-1.492882 1.70855,-3.317517 0.60218,-1.824634 1.56928,-3.499561 2.14911,-3.722061 0.57982,-0.222499 1.05422,-0.855075 1.05422,-1.405725 0,-0.55065 1.72693,-2.500055 3.83761,-4.33201 2.11068,-1.831957 4.47874,-3.892371 5.26236,-4.5787 0.78361,-0.6863278 2.96499,-1.8601398 4.8475,-2.6084688 1.8825,-0.74833 3.84709,-1.778044 4.36575,-2.288254 0.51866,-0.51021 3.24537,-1.408573 6.05937,-1.996362 2.814,-0.58779 5.30425,-1.346158 5.5339,-1.685264 0.22965,-0.339105 3.60502,-1.040728 7.50082,-1.55916102 5.4497,-0.725221 8.66065,-0.718697 13.92296,0.02829 3.76184,0.53399302 6.8397,1.29690702 6.8397,1.69536402 0,0.398457 0.68537,0.724468 1.52306,0.724468 2.2894,0 9.78777,2.569785 9.78777,3.354393 0,0.376854 0.3995,0.685188 0.88779,0.685188 1.28298,0 6.49124,2.562729 8.15524,4.0127888 6.06249,5.283076 13.44856,13.372362 14.31453,15.677403 0.18258,0.485976 1.18237,1.552532 2.22177,2.370124 1.0394,0.817592 1.88982,1.966589 1.88982,2.553328 0,0.586739 0.55079,1.27816 1.224,1.53649 0.67319,0.258331 1.5731,1.387915 1.99979,2.510187 0.42669,1.122271 1.10358,2.040494 1.50422,2.040494 0.40063,0 1.54595,1.908702 2.54515,4.24156 0.9992,2.332858 2.10386,4.425769 2.45482,4.650913 2.33728,1.499432 4.53149,33.007996 2.39076,34.331046 -0.50391,0.31142 -0.80792,-1.30287 -0.80792,-4.290033 0,-5.720591 -2.20095,-19.036559 -3.20457,-19.387922 -0.39021,-0.136611 -1.17001,-2.045313 -1.73289,-4.24156 -1.19187,-4.650408 -2.33378,-5.220672 -2.33378,-1.165471 0,1.555239 0.36356,2.827707 0.80791,2.827707 0.49871,0 0.80792,4.174234 0.80792,10.906868 0,6.441136 -0.31804,10.906869 -0.77678,10.906869 -0.42723,0 -1.15425,1.363358 -1.61561,3.029682 -1.68264,6.07724 -2.51426,5.73398 -1.95734,-0.807913 0.36117,-4.242621 0.25417,-6.26135 -0.33189,-6.26135 -0.89761,0 -1.28769,0.975926 -2.20154,5.508025 -0.29724,1.474178 -1.05151,2.876428 -1.67615,3.116128 -1.17826,0.45214 -1.61719,3.49459 -0.50415,3.49459 0.34734,0 1.12053,1.65612 1.71819,3.68027 0.59766,2.02415 1.52124,4.11486 2.05241,4.64602 0.53116,0.53117 1.62518,2.69245 2.43115,4.80286 0.80597,2.11039 1.70775,3.837093 2.00395,3.837093 0.29621,0 1.1933,1.82077 1.99354,4.04616 0.80025,2.2254 1.90633,4.31588 2.45798,4.64552 0.55163,0.32965 1.65414,2.32628 2.44999,4.43696 0.79587,2.11068 1.67851,3.8376 1.96145,3.8376 0.28294,0 1.23334,1.36336 2.11201,3.02968 0.87867,1.66633 2.23381,3.73448 3.01143,4.59588 0.77762,0.86141 1.41385,1.98736 1.41385,2.50211 0,0.51476 0.71518,1.76052 1.58929,2.76838 0.8741,1.00785 2.05354,2.88129 2.62096,4.1632 0.56744,1.2819 1.27407,2.33074 1.57032,2.33074 0.29624,0 1.37022,1.72692 2.38661,3.8376 1.0164,2.11068 2.32129,4.31802 2.89978,4.9052 0.57848,0.58718 1.05178,1.58698 1.05178,2.22177 0,0.63479 0.67848,1.83265 1.50773,2.66189 0.82924,0.82925 2.15111,3.1924 2.93747,5.25146 0.78636,2.05905 1.68486,3.74373 1.99667,3.74373 0.31181,0 1.24661,1.99959 2.07734,4.44354 0.83072,2.44394 1.74891,4.44354 2.04042,4.44354 0.2915,0 1.18109,2.09048 1.97686,4.64552 0.79576,2.55503 1.71361,4.82729 2.03965,5.04947 0.77298,0.52674 4.00594,11.02777 4.00594,13.01177 0,0.84189 0.32579,1.53072 0.72398,1.53072 1.24715,0 3.31896,13.77898 3.31724,22.06192 -0.002,7.89584 -1.11536,14.77941 -2.63955,16.3141 -0.53194,0.53561 -0.63565,0.098 -0.3077,-1.29838 1.37738,-5.86474 1.43898,-15.97895 0.14211,-23.33112 -0.74345,-4.21479 -1.59881,-7.85042 -1.9008,-8.07916 -0.30197,-0.22875 -1.43296,-3.86974 -2.51329,-8.09111 -1.08032,-4.22136 -2.44326,-8.15562 -3.02873,-8.7428 -0.58548,-0.58718 -1.06451,-1.58698 -1.06451,-2.22177 0,-0.63479 -0.36356,-1.15417 -0.80792,-1.15417 -1.17206,0 -0.99353,3.03514 0.20198,3.43365 0.77317,0.25772 1.0099,5.22901 1.0099,21.2078 0,15.97878 -0.23673,20.95007 -1.0099,21.2078 -0.55544,0.18515 -1.00989,1.03346 -1.00989,1.88513 0,0.85168 -0.31342,1.54851 -0.69648,1.54851 -0.38307,0 -0.93438,-2.81761 -1.22514,-6.26135 -0.72007,-8.52815 -2.25171,-18.29249 -2.94651,-18.78405 -0.31403,-0.22218 -1.15436,-3.28444 -1.8674,-6.80502 -0.71305,-3.5206 -1.59721,-6.61088 -1.96482,-6.86729 -0.36762,-0.25643 -1.34471,-2.73849 -2.17131,-5.5157 -0.8266,-2.77721 -1.75219,-5.04948 -2.05687,-5.04948 -0.30466,0 -1.41846,-2.72672 -2.47508,-6.05937 -1.05663,-3.33265 -2.17585,-6.05937 -2.48715,-6.05937 -0.3113,0 -0.98705,-1.27579 -1.50167,-2.83509 -0.51461,-1.5593 -1.36082,-3.28623 -1.88047,-3.8376 -0.51964,-0.55138 -1.64008,-3.093 -2.48987,-5.64803 -0.84979,-2.55504 -1.81308,-4.64552 -2.14063,-4.64552 -0.32756,0 -1.24924,-1.81781 -2.04817,-4.03958 -0.79894,-2.22177 -1.71429,-4.03958 -2.03411,-4.03958 -0.31982,0 -1.2063,-1.63603 -1.96995,-3.63563 -0.76365,-1.99959 -1.61174,-3.63719 -1.88464,-3.6391 -0.27289,-0.002 -1.40508,-2.18172 -2.51596,-4.84402 -1.11089,-2.66229 -2.24307,-4.8421 -2.51596,-4.84401 -0.2729,-0.002 -1.12099,-1.63951 -1.88464,-3.63911 -0.76365,-1.99959 -1.69188,-3.63562 -2.06273,-3.63562 -0.37085,0 -1.29015,-1.61266 -2.0429,-3.5837 -1.47121,-3.85232 -4.16911,-6.02476 -3.33663,-2.68678 0.25059,1.00482 0.88966,4.46277 1.42014,7.68434 0.53049,3.22156 1.27481,5.85739 1.65404,5.85739 0.37924,0 0.68952,0.58421 0.68952,1.29825 0,2.01851 2.67294,12.79167 3.28604,13.24424 0.30099,0.22218 1.16245,3.1237 1.91435,6.44783 0.75191,3.32414 1.63827,6.23264 1.9697,6.46333 0.33143,0.2307 1.45151,3.69152 2.48907,7.6907 1.03756,3.99919 2.12428,7.45303 2.41494,7.67521 0.65349,0.49952 3.27631,8.65841 3.27631,10.19172 0,0.61551 0.34191,1.1191 0.75982,1.1191 0.4179,0 1.40739,2.18138 2.19885,4.8475 0.79147,2.66612 1.7032,4.8475 2.02609,4.8475 0.32287,0 1.19911,2.18137 1.94719,4.84749 0.74807,2.66613 1.62602,4.8475 1.95099,4.8475 0.32497,0 1.2198,1.99959 1.98852,4.44354 0.76872,2.44395 1.64907,4.44354 1.95635,4.44354 0.30727,0 1.44244,2.36315 2.52259,5.25145 1.08015,2.8883 2.21265,5.25146 2.51665,5.25146 0.30401,0 1.20642,1.81781 2.00535,4.03958 0.79894,2.22177 1.70784,4.03958 2.01979,4.03958 0.31195,0 1.22086,1.81781 2.01979,4.03958 0.79894,2.22177 1.70785,4.03958 2.01979,4.03958 0.31195,0 1.22086,1.81781 2.01979,4.03958 0.79894,2.22177 1.71429,4.03958 2.03412,4.03958 0.31982,0 1.20629,1.63603 1.96995,3.63563 0.76365,1.99959 1.63781,3.63562 1.94259,3.63562 0.30478,0 1.37569,1.81781 2.3798,4.03958 1.00412,2.22177 2.08507,4.03958 2.40213,4.03958 0.31705,0 1.25113,1.63603 2.07573,3.63562 0.82459,1.9996 1.79098,3.63563 2.14752,3.63563 0.35654,0 1.25208,1.27246 1.99009,2.8277 0.73802,1.55524 1.60548,2.82771 1.92772,2.82771 0.32224,0 1.2806,1.45008 2.12972,3.2224 0.8491,1.77232 1.79099,3.22656 2.09309,3.23166 0.30209,0.005 1.36633,1.6453 2.36497,3.64489 0.99865,1.9996 2.13339,3.63563 2.52165,3.63563 0.38827,0 1.23761,1.27246 1.88743,2.8277 0.64982,1.55524 1.4575,2.82771 1.79484,2.82771 0.33734,0 1.29863,1.27247 2.13618,2.82771 0.83755,1.55523 1.77063,2.8277 2.07353,2.8277 0.30289,0 1.24543,1.45008 2.09455,3.2224 0.8491,1.77232 1.79944,3.22657 2.11186,3.23166 0.31242,0.005 1.17185,1.28174 1.90986,2.83698 0.73802,1.55524 1.66549,2.8277 2.06107,2.8277 0.39557,0 1.51296,1.81782 2.48308,4.03959 0.97013,2.22176 2.04224,4.03958 2.38248,4.03958 0.34024,0 1.25229,1.36335 2.02679,3.02968 0.77449,1.66633 1.83456,3.29375 2.3557,3.61648 0.52115,0.32274 1.40289,1.68609 1.95942,3.02968 0.55654,1.3436 1.27612,2.4429 1.59908,2.4429 0.32296,0 1.27864,1.54217 2.12376,3.42703 0.8451,1.88487 2.17278,4.06625 2.9504,4.8475 0.77762,0.78126 1.41385,1.93984 1.41385,2.57463 0,0.63479 0.47682,1.63459 1.0596,2.22177 0.58278,0.58718 1.92006,2.9763 2.97173,5.30916 1.05166,2.33286 2.15268,4.24156 2.44671,4.24156 0.29401,0 1.02728,1.49289 1.62946,3.31752 0.60218,1.82463 1.56928,3.49956 2.1491,3.72206 0.57983,0.2225 1.05423,1.07131 1.05423,1.88626 0,0.81494 0.36356,1.7064 0.80792,1.98103 0.44435,0.27463 0.80791,1.17902 0.80791,2.00976 0,0.83074 0.48066,1.9911 1.06812,2.57856 0.58746,0.58746 1.72753,2.7948 2.5335,4.9052 0.80597,2.1104 1.70747,3.8371 2.00332,3.8371 0.29585,0 1.21372,2.36315 2.03971,5.25145 0.82599,2.8883 1.75193,5.25146 2.05766,5.25146 0.30572,0 1.39088,3.18117 2.41147,7.06926 1.02058,3.8881 2.11095,7.25105 2.42304,7.47323 0.3121,0.22218 1.22356,3.13067 2.02546,6.46333 0.80191,3.33265 1.71443,6.24115 2.02783,6.46333 0.31339,0.22218 1.1917,3.22156 1.95182,6.66531 0.76012,3.44374 1.6514,6.26135 1.98063,6.26135 0.32923,0 1.27387,3.36295 2.0992,7.47322 0.82533,4.11028 1.77564,7.65917 2.11179,7.88642 0.33616,0.22726 1.25084,4.04466 2.03262,8.48312 0.78177,4.43846 1.65739,8.25171 1.94584,8.47388 2.7081,2.086 4.05575,37.05041 2.05523,53.32247 -0.7375,5.99878 -1.68593,11.02806 -2.10763,11.17617 -0.42169,0.14813 -0.76671,0.85202 -0.76671,1.56422 0,1.91965 -2.55671,11.83669 -3.17235,12.30501 -0.29207,0.22218 -1.0443,1.9972 -1.67164,3.94449 -0.62733,1.94728 -1.52099,3.96223 -1.98591,4.47765 -1.27404,1.41245 -2.85889,3.94697 -3.34256,5.34552 -0.40105,1.15961 -5.80651,4.0065 -7.60724,4.0065 -1.39102,0 -0.86948,-1.48564 0.69596,-1.9825 1.69284,-0.53729 7.38875,-5.9898 7.38875,-7.07301 0,-0.38888 0.69256,-1.45043 1.53903,-2.359 0.84647,-0.90859 1.76689,-2.86652 2.04537,-4.35096 0.27849,-1.48445 0.8456,-2.81635 1.26026,-2.95978 0.9042,-0.31276 3.2345,-10.96733 3.2345,-14.78876 0,-1.48916 0.45445,-2.85921 1.00989,-3.04455 1.41125,-0.47092 1.34768,-51.66102 -0.0647,-52.13182 -0.59069,-0.19689 -0.94518,-2.25939 -0.94518,-5.49918 0,-4.0695 -0.26056,-5.18413 -1.21188,-5.18413 -0.99789,0 -1.21324,1.46219 -1.21965,8.28114 -0.009,9.42543 -2.09167,29.78636 -3.1156,30.45712 -0.37419,0.24512 -1.14168,2.91846 -1.70553,5.94073 -0.56385,3.02229 -1.44592,5.93079 -1.96018,6.46333 -0.51425,0.53256 -1.44266,2.53164 -2.06313,4.44242 -1.05302,3.24281 -2.14673,4.78223 -2.87807,4.0509 -0.4513,-0.4513 2.30549,-10.67342 3.02033,-11.19934 1.27023,-0.93452 2.50157,-13.84785 2.53857,-26.62256 0.0368,-12.69337 -1.5303,-32.26313 -2.65247,-33.12457 -0.28943,-0.22217 -1.37511,-5.13026 -2.41264,-10.90687 -1.03752,-5.7766 -2.13313,-10.68469 -2.43469,-10.90686 -0.30156,-0.22218 -1.16343,-3.28922 -1.91526,-6.81565 -0.75184,-3.52643 -1.66344,-6.61671 -2.0258,-6.86729 -0.36235,-0.25058 -1.33361,-3.45499 -2.15835,-7.12091 -0.82474,-3.66592 -1.74527,-6.6653 -2.04561,-6.6653 -0.30034,0 -1.22188,-2.36316 -2.04787,-5.25146 -0.82599,-2.8883 -1.79326,-5.25145 -2.14948,-5.25145 -0.35622,0 -0.64767,-0.43646 -0.64767,-0.96992 0,-1.75456 -2.76959,-10.34091 -3.33553,-10.34091 -0.30452,0 -1.18766,-2.09048 -1.96255,-4.64552 -0.77488,-2.55503 -1.80852,-5.00908 -2.29696,-5.45343 -0.48845,-0.44436 -1.58337,-2.8984 -2.43316,-5.45344 -0.84979,-2.55503 -1.8002,-4.64552 -2.112,-4.64552 -0.31182,0 -1.19175,-1.63603 -1.9554,-3.63562 -0.76365,-1.99959 -1.65012,-3.63562 -1.96995,-3.63562 -0.31982,0 -1.23517,-1.81781 -2.03411,-4.03958 -0.79893,-2.22177 -1.70512,-4.03958 -2.01375,-4.03958 -0.30862,0 -1.22705,-1.6148 -2.04094,-3.58844 -0.81389,-1.97365 -1.90818,-3.75282 -2.43175,-3.95373 -0.52356,-0.20091 -1.45049,-1.87596 -2.05984,-3.72233 -0.60937,-1.84637 -1.53996,-3.61192 -2.06799,-3.92345 -0.52803,-0.31153 -1.56399,-1.748 -2.30214,-3.19215 -0.73814,-1.44415 -1.6539,-2.62572 -2.03502,-2.62572 -0.38112,0 -0.88308,-0.72713 -1.11549,-1.61584 -0.42876,-1.6396 -2.18965,-2.28931 -2.18965,-0.80791 0,0.44435 0.31565,0.80791 0.70145,0.80791 0.3858,0 1.31352,2.18138 2.06159,4.8475 0.74808,2.66612 1.64089,4.8475 1.98402,4.8475 0.34313,0 1.47902,2.72672 2.52418,6.05937 1.04517,3.33265 2.13902,6.05937 2.43077,6.05937 0.29174,0 1.20944,2.72672 2.03933,6.05937 0.82989,3.33266 1.76048,6.05937 2.06799,6.05937 0.30751,0 1.19899,2.63583 1.98108,5.8574 0.78208,3.22156 1.66017,6.03917 1.95131,6.26135 0.29115,0.22217 1.21464,3.49423 2.05222,7.27124 0.83759,3.77701 1.76903,7.04907 2.06987,7.27125 0.8316,0.61415 3.18159,15.40774 3.18159,20.02867 0,2.45935 0.38575,4.20275 0.97325,4.39858 1.44101,0.48033 1.47712,65.37497 0.0367,65.85645 -0.55544,0.18566 -1.0099,1.46793 -1.0099,2.84948 0,3.46682 -2.58653,17.86344 -3.29847,18.35925 -0.31902,0.22218 -1.21138,3.58513 -1.98301,7.47323 -0.77164,3.88809 -1.66887,7.06926 -1.99386,7.06926 -0.32499,0 -1.22625,2.27227 -2.00281,5.04948 -0.77655,2.77721 -1.80608,5.29765 -2.28783,5.60097 -1.1168,0.70317 -1.14784,6.24546 -0.0391,6.97617 0.46027,0.30332 1.46734,3.09071 2.23794,6.19419 0.7706,3.10348 1.66583,5.8302 1.98941,6.05937 0.71041,0.50317 3.33813,9.90187 3.33813,11.93971 0,1.82206 -2.04392,3.5904 -6.34155,5.4865 -1.8444,0.81375 -3.35345,1.71174 -3.35345,1.99555 0,0.2838 -2.63582,1.38286 -5.85739,2.44236 -3.22157,1.05951 -6.03917,2.15354 -6.26135,2.43118 -0.22218,0.27764 -2.94889,1.17673 -6.05937,1.99798 -3.11048,0.82125 -5.8372,1.75206 -6.05937,2.06847 -0.22218,0.31641 -2.49444,1.18258 -5.04948,1.92483 -2.55503,0.74224 -4.64552,1.64788 -4.64552,2.01253 0,0.36465 -0.81801,0.87303 -1.81781,1.12971 -0.99979,0.25669 -3.27206,1.74338 -5.04947,3.30376 -1.77742,1.56036 -3.64723,2.84401 -4.15513,2.85254 -0.5079,0.008 -1.10691,0.49359 -1.33115,1.07793 -0.60025,1.56422 -8.2135,3.78467 -12.98659,3.78762 -3.98936,0.002 -15.83577,-2.92663 -16.67347,-4.12261 -0.22327,-0.31875 -2.76732,-1.19145 -5.65344,-1.93932 -2.88612,-0.74787 -5.43017,-1.63112 -5.65343,-1.96278 -0.56333,-0.83681 -8.01305,-2.6182 -8.83218,-2.11196 -0.36748,0.22712 -0.93197,5.69048 -1.25441,12.14081 -0.32246,6.45033 -0.85761,11.72788 -1.18923,11.72788 -0.33162,0 -0.83554,3.36295 -1.11983,7.47322 -0.76831,11.10836 -2.33342,23.57563 -3.01771,24.03827 -0.33088,0.2237 -1.24123,5.59961 -2.02301,11.94648 -1.2093,9.81768 -1.70232,11.84284 -3.30374,13.5708 -2.37647,2.56425 -6.65336,4.37286 -10.3407,4.37286 -1.56951,0 -2.85365,0.36356 -2.85365,0.80791 0,0.44436 -0.54535,0.80792 -1.21188,0.80792 -0.66653,0 -1.21187,-0.36356 -1.21187,-0.80792 0,-0.45426 -2.25818,-0.80791 -5.1587,-0.80791 -5.07201,0 -8.71533,-1.0093 -11.03592,-3.05725 -0.64657,-0.57059 -1.82954,-1.48758 -2.62881,-2.03774 -2.63084,-1.81088 -2.86879,-15.82492 -0.31458,-18.52691 0.53009,-0.56075 1.69004,-2.46825 2.57767,-4.23888 0.88765,-1.77064 1.99428,-3.63125 2.4592,-4.13468 0.46491,-0.50344 1.36282,-2.50858 1.99534,-4.45587 0.63252,-1.94729 1.54844,-3.9539 2.03539,-4.45913 0.48694,-0.50524 1.35974,-3.05018 1.93955,-5.65542 0.57981,-2.60524 1.30309,-4.91858 1.6073,-5.14076 0.91866,-0.67095 3.38289,-12.08272 3.87396,-17.94021 0.25311,-3.01915 0.77104,-5.48936 1.15095,-5.48936 0.3799,0 0.69073,-4.14156 0.69073,-9.20345 0,-8.99295 -0.0435,-9.21438 -1.90325,-9.68114 -2.00479,-0.50317 -11.07106,1.52616 -11.80568,2.6425 -0.23628,0.35905 -1.88385,1.329 -3.66126,2.15545 -1.77742,0.82645 -3.75502,2.01381 -4.39467,2.63858 -0.63965,0.62478 -2.18479,1.49215 -3.43365,1.9275 -1.24885,0.43536 -2.27064,1.10249 -2.27064,1.48253 0,0.38004 -1.36336,1.32532 -3.02968,2.10064 -1.66633,0.77532 -3.2149,1.67211 -3.44127,1.99288 -0.22637,0.32076 -2.40431,1.36867 -4.83987,2.32868 -2.43557,0.96 -4.61351,2.00668 -4.83988,2.32592 -0.83156,1.17275 -7.19573,2.52158 -11.89756,2.52158 -4.51075,0 -9.80358,-1.18994 -10.73171,-2.4127 -0.65268,-0.85987 -9.98357,-3.24272 -12.69799,-3.24272 l -2.49302,0 -0.58727,9.399 c -0.47243,7.561 -0.30989,10.72081 0.83121,16.15832 0.78017,3.71763 1.67617,6.75933 1.99112,6.75933 0.761,0 3.26095,10.46314 3.26095,13.64819 0,1.38058 0.36356,2.51013 0.80792,2.51013 0.44435,0 0.80791,0.57684 0.80791,1.28186 0,0.70503 1.95502,3.19057 4.34448,5.52342 2.38946,2.33286 4.70469,4.93719 5.14495,5.78741 1.00118,1.93341 2.0626,14.92368 1.36742,16.73527 -0.28308,0.73771 -1.84188,1.71532 -3.464,2.17244 -4.30952,1.21448 -16.115078,1.67405 -20.319498,0.791 z M 108.93857,128.6171 c 0.66653,-0.66653 2.32854,-1.21187 3.69334,-1.21187 2.21856,0 2.48145,-0.25678 2.48145,-2.42375 0,-1.33306 -0.30044,-2.42375 -0.66764,-2.42375 -0.3672,0 -1.14585,-5.63522 -1.73032,-12.5227 -0.58448,-6.88749 -1.3279,-12.522703 -1.65202,-12.522703 -0.63443,0 -1.23788,4.013923 -2.09522,13.936553 -0.29755,3.44374 -0.80436,6.26135 -1.12624,6.26135 -0.32189,0 -0.81823,1.9087 -1.103,4.24156 -0.28475,2.33286 -0.74077,5.05958 -1.01337,6.05937 -0.58922,2.16104 1.30138,2.51758 3.21302,0.60594 z"
     id="path2987"
     inkscape:connector-curvature="0" />
</svg>
