<?xml version="1.0" encoding="UTF-8" standalone="no"?>
<!-- Created with Inkscape (http://www.inkscape.org/) -->

<svg
   xmlns:dc="http://purl.org/dc/elements/1.1/"
   xmlns:cc="http://creativecommons.org/ns#"
   xmlns:rdf="http://www.w3.org/1999/02/22-rdf-syntax-ns#"
   xmlns:svg="http://www.w3.org/2000/svg"
   xmlns="http://www.w3.org/2000/svg"
   xmlns:sodipodi="http://sodipodi.sourceforge.net/DTD/sodipodi-0.dtd"
   xmlns:inkscape="http://www.inkscape.org/namespaces/inkscape"
   id="svg2"
   version="1.1"
   inkscape:version="0.48.4 r9939"
   width="609.03455"
   height="676.29877"
   sodipodi:docname="mokou.bmp">
  <metadata
     id="metadata8">
    <rdf:RDF>
      <cc:Work
         rdf:about="">
        <dc:format>image/svg+xml</dc:format>
        <dc:type
           rdf:resource="http://purl.org/dc/dcmitype/StillImage" />
        <dc:title></dc:title>
      </cc:Work>
    </rdf:RDF>
  </metadata>
  <defs
     id="defs6" />
  <sodipodi:namedview
     pagecolor="#ffffff"
     bordercolor="#666666"
     borderopacity="1"
     objecttolerance="10"
     gridtolerance="10"
     guidetolerance="10"
     inkscape:pageopacity="0"
     inkscape:pageshadow="2"
     inkscape:window-width="956"
     inkscape:window-height="1041"
     id="namedview4"
     showgrid="false"
     fit-margin-top="0"
     fit-margin-left="0"
     fit-margin-right="0"
     fit-margin-bottom="0"
     inkscape:zoom="1.2701487"
     inkscape:cx="304.51727"
     inkscape:cy="338.14939"
     inkscape:window-x="960"
     inkscape:window-y="18"
     inkscape:window-maximized="0"
     inkscape:current-layer="svg2" />
  <path
     style="fill:#ff0000"
     d="m 172.71675,674.44525 c -0.54734,-2.07925 0.26155,-10.68956 1.06407,-11.32656 0.28539,-0.22653 1.32466,-4.85457 2.3095,-10.28454 0.98484,-5.42996 2.17797,-10.00177 2.65139,-10.15958 0.47343,-0.1578 0.86078,-0.81552 0.86078,-1.46158 0,-2.34489 3.58201,-15.9868 4.19771,-15.9868 0.34783,0 1.26651,-2.87283 2.04152,-6.38406 0.77502,-3.51124 1.67912,-6.56941 2.00911,-6.79594 0.33,-0.22653 1.41971,-4.02608 2.42158,-8.44344 1.00186,-4.41736 2.12058,-8.03156 2.48603,-8.03156 0.36544,0 0.91129,-1.39008 1.21299,-3.08906 1.04135,-5.86421 3.15358,-13.79908 3.78257,-14.20969 0.34702,-0.22653 1.25012,-2.54333 2.00691,-5.14844 0.75679,-2.60511 1.67716,-4.73656 2.04525,-4.73656 0.3681,0 0.87192,-0.83405 1.11961,-1.85344 0.97071,-3.99513 3.40861,-10.14562 4.43125,-11.17946 0.5922,-0.59869 1.07672,-1.60551 1.07672,-2.23737 0,-1.3784 2.61194,-7.1828 3.54044,-7.86776 0.36152,-0.26669 1.18558,-2.48749 1.83125,-4.9351 0.64566,-2.44761 1.55461,-4.5771 2.01988,-4.73219 0.46526,-0.15508 0.84593,-0.70398 0.84593,-1.21977 0,-1.43463 3.53468,-12.46111 4.14444,-12.92866 0.29543,-0.22653 1.38376,-3.56272 2.41851,-7.41375 1.60562,-5.97569 1.80222,-8.14879 1.34146,-14.8275 -0.62495,-9.05861 -2.40183,-17.26418 -3.94754,-18.22954 -0.79173,-0.49446 -1.1409,0.0806 -1.32941,2.18947 -0.14062,1.57303 -0.60398,2.86007 -1.02969,2.86007 -0.9814,0 -1.02258,3.06395 -0.0461,3.43229 0.40034,0.15102 0.99131,2.31337 1.31326,4.80521 0.52379,4.05417 0.46039,4.36579 -0.60293,2.96321 -1.60402,-2.11577 -2.65852,-1.25301 -3.90353,3.1937 -0.57409,2.05045 -1.28178,3.72809 -1.57264,3.72809 -0.76847,0 -2.74,10.16136 -3.30319,17.02491 -0.26647,3.24736 -0.71238,6.13185 -0.99092,6.40998 -0.27853,0.27812 -0.68727,-3.24989 -0.90831,-7.84003 -0.22102,-4.59014 -0.76312,-8.5867 -1.20464,-8.88122 -0.72038,-0.48055 -3.20924,-12.9388 -4.17998,-20.92333 -0.20655,-1.69898 -0.65627,-3.08906 -0.99936,-3.08906 -0.3431,0 -0.87264,-2.13145 -1.17677,-4.73656 -0.30412,-2.60511 -0.92548,-6.12664 -1.38079,-7.82563 -0.71551,-2.6699 -1.15227,-3.08906 -3.21873,-3.08906 -1.31498,0 -2.61998,0.37069 -2.89999,0.82375 -0.28,0.45306 -1.17188,0.82375 -1.98195,0.82375 -0.81006,0 -2.32765,0.74137 -3.37242,1.6475 -2.57921,2.23693 -6.06761,2.095 -8.50881,-0.3462 -2.14752,-2.14751 -2.55849,-4.33539 -3.53254,-18.80599 l -0.54062,-8.03156 2.37817,-0.009 c 5.11295,-0.0195 8.77253,-1.05177 9.17422,-2.58781 0.21889,-0.83703 0.72544,-1.52187 1.12565,-1.52187 0.40022,0 0.72768,-1.6681 0.72768,-3.70688 0,-2.03878 -0.37069,-3.70687 -0.82375,-3.70687 -0.48187,0 -0.82751,-2.82052 -0.83282,-6.79594 -0.0117,-8.79374 -0.71541,-12.97406 -2.18394,-12.97406 -0.63454,0 -1.38665,0.6487 -1.67138,1.44156 -0.28473,0.79286 -1.66318,2.58056 -3.06322,3.97267 -1.40003,1.39211 -3.28689,3.55669 -4.19302,4.81018 -2.83111,3.91643 -12.31037,13.66047 -13.29119,13.66245 -0.51422,8.3e-4 -1.51691,0.89007 -2.22819,1.97563 -0.84109,1.28365 -2.74626,2.34613 -5.44911,3.03885 -2.28574,0.5858 -4.15588,1.36572 -4.15588,1.73313 0,0.36741 -3.52153,0.66802 -7.82563,0.66802 -4.30409,0 -7.82562,-0.28018 -7.82562,-0.62263 0,-0.34245 -1.76077,-1.43257 -3.91281,-2.42248 -3.07937,-1.41647 -4.35147,-2.64367 -5.97219,-5.76143 -1.13266,-2.17887 -2.35052,-4.17692 -2.70637,-4.44011 -0.35585,-0.2632 -1.40738,-1.89723 -2.33673,-3.63119 -0.92934,-1.73396 -2.25738,-3.72033 -2.9512,-4.41415 -0.69382,-0.69382 -1.62467,-2.30329 -2.06856,-3.57662 -0.44388,-1.27333 -1.10405,-2.31514 -1.46705,-2.31514 -0.363,0 -1.47686,-1.56718 -2.47524,-3.48262 -0.99838,-1.91543 -2.51856,-3.97523 -3.37817,-4.57733 -0.85961,-0.60209 -1.56293,-1.62119 -1.56293,-2.26464 0,-0.64346 -0.92672,-1.77714 -2.05938,-2.51929 -1.13265,-0.74214 -2.05937,-1.72084 -2.05937,-2.17487 0,-0.45403 -1.29433,-2.17216 -2.876291,-3.81807 -1.58196,-1.6459 -4.64013,-4.8751 -6.79594,-7.17599 -2.15581,-2.30089 -5.21705,-5.07098 -6.80277,-6.15574 -5.168051,-3.53539 -11.448302,-10.61558 -11.993363,-13.521 -0.280912,-1.49739 -0.570151,-5.8325 -0.642754,-9.63361 -0.113119,-5.92222 -0.397207,-7.19557 -1.985446,-8.89929 -1.01939,-1.09351 -1.853437,-2.22963 -1.853437,-2.5247 0,-0.53053 -4.908323,-1.46592 -17.710625,-3.37518 -3.6245,-0.54053 -6.775344,-1.23261 -7.001875,-1.53795 -0.226531,-0.30534 -3.160089,-1.26018 -6.519016,-2.12186 -3.358928,-0.86169 -6.509772,-1.95175 -7.001875,-2.42235 -0.492104,-0.47062 -3.564282,-1.73743 -6.827062,-2.81514 -3.262781,-1.0777 -6.123975,-2.45888 -6.358209,-3.06929 -0.234235,-0.61041 -0.910935,-1.10983 -1.503778,-1.10983 -0.592843,0 -2.365242,-1.10128 -3.938666,-2.44729 -1.573422,-1.346 -4.2912476,-3.6628 -6.0396116,-5.14843 -1.748363,-1.48564 -3.545391,-3.72055 -3.993396,-4.96647 -0.448004,-1.24592 -1.148978,-2.26531 -1.55771897,-2.26531 -1.491954,0 -0.688618,-2.74476 1.35864897,-4.6421 1.616951,-1.49854 3.035489,-1.9479 6.149142,-1.9479 3.0587276,0 4.2417246,-0.36323 4.8431926,-1.48709 0.612316,-1.14412 2.946269,-1.82115 10.119921,-2.93554 7.894161,-1.22632 10.903132,-1.31846 19.620928,-0.60084 10.219611,0.84126 21.930432,0.42657 22.690656,-0.80351 0.217911,-0.35259 -0.13095,-2.24392 -0.775248,-4.20298 -0.644297,-1.95905 -1.43061,-4.85932 -1.747363,-6.44504 -1.056586,-5.28945 -4.661517,-8.05483 -12.34242,-9.46799 l -4.9425,-0.90934 -0.507857,-4.68538 c -0.279321,-2.57696 -0.940977,-5.20726 -1.470346,-5.84511 -1.415055,-1.70503 -1.546256,-27.16373 -0.148666,-28.84773 1.341278,-1.61614 1.660383,-13.50181 0.384457,-14.31984 -1.323612,-0.84861 -1.934414,-3.2841 -2.27586,-9.07466 -0.299409,-5.07766 -1.423387,-7.57745 -3.407041,-7.57745 -0.575003,0 -1.278051,-0.92672 -1.56233,-2.05938 -0.284279,-1.13265 -0.823776,-2.05937 -1.198884,-2.05937 -1.231052,0 -3.981482,-2.84529 -4.578649,-4.73656 -0.321871,-1.01939 -0.930928,-1.85344 -1.35346,-1.85344 -0.422531,0 -0.768239,-0.55603 -0.768239,-1.23563 0,-0.67959 0.370687,-1.23562 0.82375,-1.23562 0.453062,0 0.82375,-1.27317 0.82375,-2.82927 0,-4.42168 2.343247,-14.45916 3.689853,-15.80576 0.668771,-0.66877 1.687563,-1.84643 2.263984,-2.61702 1.089231,-1.45614 7.93944,-5.10795 9.581702,-5.10795 0.516703,0 0.939461,-0.31439 0.939461,-0.69865 0,-0.38424 1.48275,-1.36727 3.295,-2.18448 1.81225,-0.8172 3.295,-1.76999 3.295,-2.11729 0,-0.34731 1.390078,-1.4803 3.089063,-2.51777 1.698984,-1.03747 3.482292,-2.40274 3.962906,-3.03393 0.480614,-0.63119 2.589419,-1.34099 4.686234,-1.57734 3.378786,-0.38083 4.167372,-0.1371 6.933529,2.143 1.91068,1.57494 4.04957,2.57271 5.515071,2.57271 2.996663,0 8.763197,1.68734 8.763197,2.56419 0,0.36076 0.93515,1.69217 2.0781,2.95868 4.01791,4.45229 4.29984,5.00798 4.87458,9.60803 0.31879,2.55151 0.92363,4.6391 1.3441,4.6391 0.42046,0 0.76447,0.55603 0.76447,1.23562 0,0.6796 0.55603,1.23563 1.23562,1.23563 0.6796,0 1.23563,0.35389 1.23563,0.78643 0,0.43252 1.20737,1.01292 2.683051,1.28976 2.58586,0.48511 4.7307,3.1663 4.7307,5.91366 0,0.58927 0.30054,1.0714 0.66786,1.0714 0.36731,0 1.33407,2.22412 2.14836,4.9425 0.81428,2.71837 1.77225,4.9425 2.12881,4.9425 0.35657,0 1.52125,0.92032 2.5882,2.04514 1.20574,1.27116 2.87514,2.05531 4.41114,2.072 3.18077,0.0345 4.15284,0.72976 4.81691,3.44494 0.29697,1.21424 1.10038,2.76816 1.78536,3.45314 0.68498,0.68498 1.48727,2.47166 1.78288,3.97041 0.70041,3.55126 2.48922,7.82994 3.54675,8.48353 1.092,0.67489 1.10383,12.77584 0.0125,12.77584 -0.45306,0 -0.82375,0.57444 -0.82375,1.27653 0,2.70614 -5.86639,11.07972 -7.76226,11.07972 -0.78116,0 -3.77024,3.23292 -3.77024,4.07782 0,0.43055 -0.47117,1.07925 -1.04704,1.44156 -1.82432,1.14779 -3.08919,5.14754 -3.62232,11.45455 -0.40721,4.81722 -0.9366,6.59131 -2.4969,8.36754 -5.02234,5.71737 -8.54397,9.25603 -9.21149,9.25603 -0.40087,0 -0.946671,0.6487 -1.212891,1.44156 -0.6032,1.79648 -2.04526,3.94371 -4.44467,6.61814 -1.01939,1.13623 -1.85344,2.31378 -1.85344,2.61677 0,0.72898 -5.48963,3.32728 -7.029825,3.32728 -0.664222,0 -1.207675,0.3359 -1.207675,0.74645 0,0.41055 -1.811154,0.99555 -4.024793,1.3 -3.305514,0.45463 -3.956856,0.81337 -3.644621,2.00736 0.209097,0.79958 1.649568,1.95186 3.201046,2.56061 1.551477,0.60876 2.820868,1.4215 2.820868,1.8061 0,0.3846 1.691381,1.42429 3.75862,2.31041 2.06724,0.88613 4.36121,2.21372 5.0977,2.95021 1.03242,1.03243 2.2797,1.22768 5.44649,0.85262 2.25909,-0.26756 4.341451,-0.86512 4.627471,-1.32791 0.28602,-0.4628 2.80071,-1.07982 5.5882,-1.37117 4.89975,-0.51213 5.10107,-0.45752 6.05831,1.64342 0.54459,1.19524 1.31052,2.17315 1.70208,2.17315 0.39155,0 1.0522,0.89505 1.46812,1.98901 0.45191,1.18858 1.93544,2.41542 3.68649,3.04861 1.61165,0.58278 2.93027,1.35582 2.93027,1.71786 0,0.36205 0.46336,0.65998 1.02969,0.66208 1.91317,0.007 6.21265,4.84664 7.65045,8.61148 0.78578,2.05753 1.69032,3.74096 2.0101,3.74096 0.31978,0 1.25483,2.22412 2.07788,4.9425 0.82306,2.71837 1.80847,4.9425 2.1898,4.9425 0.38133,0 0.69333,0.5066 0.69333,1.12578 0,1.84433 3.5449,9.87126 5.11475,11.58163 0.80102,0.87272 1.67097,2.2628 1.93321,3.08906 0.30982,0.97613 1.27358,1.50228 2.75174,1.50228 1.94231,0 2.5661,-0.63231 4.26635,-4.32469 1.09528,-2.37858 2.45606,-4.81452 3.02394,-5.41321 0.56788,-0.59869 1.03251,-1.54818 1.03251,-2.10999 0,-0.5618 0.66407,-1.74006 1.47572,-2.61835 0.81166,-0.87829 2.36792,-3.82101 3.45837,-6.53939 1.09045,-2.71837 2.44846,-5.31318 3.01781,-5.76625 1.98056,-1.57606 2.54522,-4.83441 1.71301,-9.885 -0.97354,-5.90832 0.0422,-10.52343 3.09821,-14.07689 1.1343,-1.31896 2.06282,-2.70442 2.06338,-3.07879 0.001,-0.9126 10.70061,-11.26369 11.64256,-11.26369 0.40774,0 1.38405,-1.39008 2.16958,-3.08906 0.78553,-1.69899 1.70067,-3.29284 2.03364,-3.54189 0.33298,-0.24905 0.84267,-1.63913 1.13266,-3.08906 0.48865,-2.44329 0.36502,-2.63624 -1.68925,-2.63624 -2.3842,0 -5.44048,-1.33314 -6.42027,-2.8005 -0.86813,-1.30016 -0.78756,-5.88944 0.33876,-19.29458 l 0.9913,-11.79821 2.40516,-1.24375 c 1.6956,-0.87684 4.30959,-1.17159 8.86079,-0.99913 5.80873,0.2201 6.61459,0.0614 8.04157,-1.58395 0.89307,-1.02972 1.81565,-3.716 2.1118,-6.14891 1.57515,-12.94005 2.53966,-19.19196 3.01757,-19.55972 0.2944,-0.22653 1.38072,-6.52822 2.41409,-14.00375 1.03335,-7.47553 2.18764,-13.79027 2.56506,-14.03275 0.37744,-0.24248 1.30115,-5.61744 2.05269,-11.94437 0.75154,-6.32693 1.67939,-12.24488 2.0619,-13.15101 0.38252,-0.90612 1.08526,-6.83712 1.56167,-13.18 1.22763,-16.34486 2.41005,-25.49221 3.33641,-25.81083 0.43907,-0.15102 0.79831,-0.97147 0.79831,-1.82321 0,-2.22591 3.50644,-15.9466 4.20051,-16.43658 0.32088,-0.22653 1.1631,-2.63199 1.87158,-5.34546 0.70848,-2.71347 1.67088,-5.06115 2.13866,-5.21708 0.46778,-0.15593 0.8505,-0.79723 0.8505,-1.42511 0,-1.33492 3.29848,-7.97322 4.30936,-8.67275 1.2264,-0.84868 3.92814,-6.46645 3.92814,-8.16787 0,-0.95127 -0.54839,-1.65048 -1.29447,-1.65048 -2.24092,0 -3.87294,-2.450986 -4.84584,-7.277518 l -0.9407,-4.666857 -3.6673,0.142966 c -2.01702,0.07863 -8.52307,0.40383 -14.45786,0.722664 -7.31132,0.392785 -11.6938,0.279298 -13.59188,-0.35197 -3.07983,-1.024293 -6.5082,-5.335615 -6.5082,-8.184321 0,-0.991355 -0.37069,-1.802464 -0.82375,-1.802464 -0.99847,0 -1.11385,-5.515201 -0.12351,-5.903542 0.38513,-0.151021 1.51103,-4.894848 2.50199,-10.541839 0.99095,-5.646991 2.10863,-10.465929 2.48373,-10.70875 0.37509,-0.242822 0.93027,-1.368213 1.23373,-2.500869 1.40161,-5.231574 2.52306,-8.684127 2.94325,-9.06125 0.25241,-0.226531 1.33486,-3.192031 2.40547,-6.59 1.07061,-3.397969 2.2002,-6.363469 2.5102,-6.59 0.30999,-0.226531 1.22737,-2.555033 2.03861,-5.174447 0.81124,-2.619416 1.99283,-5.280422 2.62575,-5.913349 0.63293,-0.632926 1.16311,-1.455269 1.17819,-1.827427 C 212.64115,2.871201 215.81217,0 217.42114,0 c 0.94677,0 1.7214,0.287152 1.7214,0.638115 0,0.350963 3.15084,1.328935 7.00187,2.17327 3.85104,0.844336 7.00188,1.816453 7.00188,2.160262 0,0.343808 3.52153,1.46187 7.82562,2.484581 4.3041,1.022712 7.82563,2.172911 7.82563,2.555999 0,0.383088 0.4529,0.696523 1.00645,0.696523 1.58168,0 12.53845,3.540064 12.99971,4.200127 0.22785,0.326061 2.08129,1.248792 4.11875,2.050514 2.03745,0.80172 3.97007,1.892325 4.29468,2.423565 0.32463,0.53124 2.32033,1.626627 4.43492,2.434194 2.11458,0.807566 4.53647,2.160076 5.38197,3.005576 0.84549,0.845501 2.02341,1.537274 2.61757,1.537274 0.59416,0 1.80999,0.648703 2.70185,1.441562 0.89185,0.79286 2.90786,2.162137 4.48001,3.042839 1.57215,0.880702 3.3483,2.085436 3.94699,2.677188 0.59869,0.591751 1.56395,1.075911 2.14503,1.075911 0.58107,0 1.95864,0.834047 3.06127,1.853437 3.69477,3.415867 6.20416,4.091197 11.11687,2.991781 2.42972,-0.54375 4.41768,-1.300334 4.41768,-1.681301 0,-0.380967 2.03878,-0.692667 4.53062,-0.692667 2.49185,0 4.53063,0.308706 4.53063,0.686013 0,0.377308 1.94611,1.095464 4.32469,1.595903 2.37858,0.500439 5.33762,1.160431 6.57565,1.46665 2.30312,0.569658 12.16466,-1.872204 12.16466,-3.012148 0,-0.329609 2.68748,-1.425443 5.97219,-2.435186 3.2847,-1.009743 6.17739,-2.14939 6.42819,-2.53255 0.2508,-0.38316 3.03095,-1.322852 6.17812,-2.088205 3.14717,-0.765351 5.90747,-1.620714 6.134,-1.900805 0.64885,-0.802257 6.42738,-2.275801 13.38594,-3.413456 3.51123,-0.574052 6.38406,-1.297882 6.38406,-1.60851 0,-0.989958 18.2288,-2.526821 26.77187,-2.257128 l 8.2375,0.260047 0.26285,4.11875 c 0.26328,4.125661 -2.92293,25.997024 -3.90012,26.771875 -0.28568,0.226531 -1.21226,3.933406 -2.05906,8.2375 -0.84681,4.304094 -1.78831,8.010969 -2.09222,8.2375 -0.30392,0.226531 -1.40144,4.026078 -2.43894,8.443437 -1.03751,4.41736 -2.15192,8.031563 -2.47647,8.031563 -0.32455,0 -1.10324,1.884452 -1.73043,4.187665 -1.1395,4.184605 -5.72266,9.816085 -7.98877,9.816085 -0.57954,0 -1.05371,0.37069 -1.05371,0.82375 0,0.45306 -0.55603,0.82375 -1.23563,0.82375 -0.67959,0 -1.23562,-0.33619 -1.23562,-0.74708 0,-0.4109 -2.07418,-1.3995 -4.60929,-2.19689 -2.53511,-0.79739 -5.18558,-2.02608 -5.88994,-2.73044 -1.42402,-1.42402 -4.94181,-3.38684 -6.06993,-3.38684 -1.30369,0 -0.77009,2.34904 0.78466,3.45423 0.83284,0.59201 2.40826,2.74345 3.50094,4.78096 1.09268,2.03752 2.23985,3.89747 2.54927,4.13324 0.30942,0.23576 1.17933,2.24525 1.93314,4.46553 0.7538,2.22028 1.87675,4.54307 2.49543,5.16175 1.40102,1.40101 2.68028,5.86512 3.37519,11.77804 0.29285,2.49184 0.9397,4.80296 1.43743,5.13583 0.62511,0.41803 0.58655,0.60909 -0.12471,0.61781 -0.56633,0.007 -1.02969,0.56864 -1.02969,1.24823 0,0.6796 0.37069,1.23563 0.82375,1.23563 0.45764,0 0.82375,2.19667 0.82375,4.9425 0,2.74583 -0.36611,4.9425 -0.82375,4.9425 -0.45306,0 -0.82664,1.76077 -0.83018,3.91281 -0.008,5.16107 -2.68552,16.19557 -4.32752,17.83756 -0.71476,0.71477 -1.75383,2.69304 -2.30905,4.39616 -0.55522,1.70313 -1.27456,3.28194 -1.59853,3.50847 -0.32397,0.22653 -1.43432,2.80715 -2.46744,5.73472 -1.03312,2.92756 -2.43275,5.87718 -3.11028,6.55472 -1.05638,1.05637 -1.17478,4.6931 -0.83106,25.52682 0.28461,17.25085 0.67529,24.38645 1.34745,24.6105 0.65875,0.21958 0.94661,4.20213 0.94661,13.09645 0,10.0554 0.28351,13.37839 1.32948,15.58261 1.22908,2.59008 2.78927,3.75863 2.78927,2.0891 0,-0.78728 9.60092,-4.22992 11.79651,-4.22992 0.76092,0 1.38349,-0.37069 1.38349,-0.82375 0,-0.45306 1.48275,-0.82375 3.295,-0.82375 1.81225,0 3.295,0.36363 3.295,0.80806 0,0.44443 0.92672,1.04064 2.05937,1.32493 l 2.05938,0.51687 0,11.44319 c 0,6.29376 -0.28976,11.4432 -0.64391,11.4432 -0.35415,0 -1.13254,1.65486 -1.72974,3.67747 -0.6676,2.26102 -1.68871,3.86881 -2.65109,4.17426 -1.46816,0.46597 -2.29126,3.67096 -0.94745,3.68912 0.3398,0.005 1.52269,2.04337 2.62865,4.53063 1.10595,2.48725 2.28468,4.52227 2.61939,4.52227 0.33471,0 1.44166,1.66809 2.45987,3.70687 1.01822,2.03879 2.12947,3.70688 2.46945,3.70688 0.33998,0 1.27232,1.48275 2.07189,3.295 0.79956,1.81225 1.72003,3.295 2.04548,3.295 0.32546,0 1.4333,1.76077 2.46186,3.91281 1.02856,2.15205 2.17775,4.12254 2.55374,4.37888 0.376,0.25632 1.46073,2.66579 2.41051,5.35437 1.98309,5.61358 1.80267,13.08477 -0.41643,17.24456 -0.72507,1.35919 -1.3206,3.14695 -1.3234,3.97279 -0.007,2.21478 3.40143,15.72906 4.08867,16.20909 0.32431,0.22653 1.19516,3.74512 1.93522,7.81908 0.74007,4.07398 1.72508,7.53373 2.18893,7.68834 0.46385,0.15462 0.84543,1.26962 0.84796,2.47779 0.007,3.25259 1.50348,8.05736 2.86075,9.18379 0.91543,0.75973 1.86154,0.76557 4.10465,0.0253 1.60324,-0.52912 2.915,-1.21772 2.915,-1.53023 0,-0.3125 2.22413,-1.4516 4.9425,-2.53134 2.71837,-1.07974 4.9425,-2.20482 4.9425,-2.5002 0,-0.29538 1.85344,-1.20354 4.11875,-2.01813 2.26531,-0.81459 4.11875,-1.82372 4.11875,-2.24249 0,-0.41878 0.83405,-1.12204 1.85344,-1.5628 2.41368,-1.04364 4.48035,-2.43067 7.03001,-4.71815 1.13623,-1.01939 2.5413,-1.85343 3.12237,-1.85343 0.58108,0 1.54634,-0.46769 2.14503,-1.0393 2.57464,-2.45819 6.3248,-3.28276 15.91602,-3.49957 9.5512,-0.21589 15.23938,0.78587 15.23938,2.68385 0,1.41059 5.46998,2.75063 7.72626,1.89279 1.18731,-0.45141 2.15874,-1.15025 2.15874,-1.55297 0,-0.40272 1.66809,-1.36928 3.70688,-2.1479 2.03878,-0.77861 3.70687,-1.68246 3.70687,-2.00855 0,-0.73949 6.78211,-3.13655 10.91469,-3.85767 1.69898,-0.29647 3.08906,-0.86847 3.08906,-1.27111 0,-0.40618 8.61799,-0.73209 19.35812,-0.73209 11.11258,0 19.35813,0.32004 19.35813,0.75134 0,0.41324 1.44856,0.99608 3.21903,1.2952 4.80249,0.81138 6.0037,2.05963 6.44982,6.70245 0.53683,5.58695 -0.54341,6.3498 -9.103,6.42844 l -6.74397,0.0619 0.28132,4.53063 c 0.15474,2.49184 0.4181,4.67043 0.58527,4.8413 0.16715,0.17087 1.7487,0.34856 3.51454,0.39486 2.74977,0.0721 3.69109,-0.41589 6.55797,-3.39973 3.70532,-3.8565 7.96434,-4.82121 9.01659,-2.04237 0.90756,2.39674 2.38692,3.4279 4.22736,2.94661 0.96001,-0.25104 2.98766,-0.22341 4.50588,0.0614 3.0248,0.56746 4.61426,2.71897 4.90433,6.63856 0.15015,2.02878 -0.27974,2.66021 -2.55723,3.7562 -1.50575,0.72459 -2.9885,1.69818 -3.295,2.16353 -0.586,0.88972 -14.46725,4.40967 -17.38981,4.40967 -0.93602,0 -1.70185,0.33013 -1.70185,0.73362 0,0.4035 -1.20473,0.91764 -2.67719,1.14252 -6.3914,0.97617 -13.44967,2.49747 -14.20969,3.06268 -0.45306,0.33694 -2.30649,0.86046 -4.11875,1.1634 -5.30906,0.88746 -14.79216,3.31244 -15.23937,3.89695 -0.22653,0.29608 -3.37738,0.97647 -7.00187,1.51196 -8.12627,1.2006 -13.59188,2.50697 -13.59188,3.24868 0,0.30826 -1.22172,1.00226 -2.71493,1.54221 -1.98958,0.71944 -3.00792,1.79198 -3.81156,4.01441 -1.41528,3.91387 -5.54847,7.69107 -8.41595,7.69107 -1.22046,0 -2.34863,0.38885 -2.50706,0.86412 -0.15842,0.47526 -5.28626,1.43617 -11.39521,2.13533 -6.10894,0.69918 -11.23073,1.60773 -11.38175,2.01901 -0.15102,0.41129 -1.26308,0.75581 -2.47125,0.76562 -3.55949,0.0289 -16.99987,3.22154 -17.29875,4.10917 -0.15102,0.44853 -0.73729,0.8155 -1.30283,0.8155 -1.51948,0 -12.35861,3.45844 -12.83821,4.09629 -0.22653,0.30127 -2.07889,1.2046 -4.11634,2.00738 -2.03746,0.80279 -3.9375,1.83665 -4.22231,2.29749 -0.8081,1.30753 -13.20467,4.01703 -15.96198,3.48878 -4.29243,-0.82235 -10.29687,-2.93478 -10.29687,-3.62257 0,-0.36381 -0.6487,-0.87929 -1.44156,-1.14551 -3.09951,-1.04072 -8.32811,-5.70606 -8.44329,-7.53374 -0.072,-1.14256 -3.98221,-3.88858 -4.80928,-3.37742 -0.37157,0.22964 -1.16882,2.47358 -1.77166,4.98654 -0.60285,2.51295 -1.40758,4.56901 -1.78827,4.56901 -0.38071,0 -0.69219,0.57637 -0.69219,1.28082 0,2.9196 -3.34562,8.5855 -5.36955,9.09347 -2.68343,0.6735 -5.83623,-0.16257 -7.72118,-2.04752 -0.83397,-0.83397 -3.22991,-2.17075 -5.3243,-2.9706 -3.08442,-1.17795 -4.04451,-1.25799 -5.05273,-0.42124 -1.83065,1.51931 -1.55862,2.53657 1.63903,6.12939 1.58536,1.78129 2.88248,3.91274 2.88248,4.73656 0,0.82383 0.37069,1.49787 0.82375,1.49787 0.47595,0 0.82375,2.60854 0.82375,6.17812 0,3.56959 -0.3478,6.17813 -0.82375,6.17813 -0.45306,0 -0.82655,2.13145 -0.82997,4.73656 -0.003,2.60511 -0.3966,7.14275 -0.87373,10.08364 -0.93793,5.78113 -0.36894,12.62007 1.18461,14.23839 0.53237,0.55456 1.87427,3.97378 2.982,7.59828 1.10774,3.62451 2.24546,6.77535 2.52826,7.00188 0.28279,0.22653 1.35567,3.56272 2.38416,7.41375 1.02849,3.85103 2.14058,7.18722 2.47131,7.41375 0.33073,0.22653 1.26639,2.17264 2.07925,4.32469 0.81287,2.15204 1.74859,3.91281 2.0794,3.91281 0.3308,0 1.41242,2.22413 2.40359,4.9425 0.99117,2.71837 2.06357,4.9425 2.38312,4.9425 0.31955,0 1.50102,2.9655 2.6255,6.59 1.12448,3.6245 2.3038,6.59 2.62071,6.59 0.31692,0 1.23647,2.22412 2.04345,4.9425 0.80698,2.71837 1.75576,4.9425 2.10841,4.9425 0.35265,0 0.64118,0.60873 0.64118,1.35275 0,1.9176 3.35611,12.97954 4.08814,13.47475 0.33486,0.22653 0.82333,1.33859 1.08549,2.47125 1.58219,6.83589 3.36434,12.35625 3.989,12.35625 0.3973,0 0.72237,0.51346 0.72237,1.14103 0,1.61008 2.68541,9.89505 3.36819,10.39147 0.31157,0.22653 1.40799,3.56272 2.43648,7.41375 1.02849,3.85103 2.19436,7.21676 2.59083,7.47939 0.39647,0.26263 1.46308,3.58514 2.37026,7.38334 0.90717,3.79821 1.94352,7.10485 2.30299,7.34812 0.35948,0.24325 1.2771,3.59312 2.03915,7.44415 0.76207,3.85103 1.7521,7.12544 2.20008,7.27646 0.44799,0.15102 0.81452,2.09713 0.81452,4.32468 l 0,4.05011 -132.52768,0 -132.52767,0 -0.48789,-1.85344 0,0 z M 195.64392,447.3313 c 0.26807,-0.43375 0.0405,-3.2139 -0.50565,-6.17813 -0.7703,-4.18055 -1.31315,-5.38948 -2.42005,-5.38948 -1.24857,0 -1.37158,0.64375 -0.98372,5.14844 0.42435,4.92858 1.29323,7.20781 2.74774,7.20781 0.37084,0 0.8936,-0.35489 1.16168,-0.78864 l 0,0 z m 190.65698,-5.94284 c 2.29987,-0.53087 4.18159,-1.25384 4.18159,-1.60659 0,-0.35276 2.23242,-0.89394 4.96094,-1.20264 2.7285,-0.3087 5.12205,-0.82197 5.31898,-1.14061 0.46153,-0.74678 -1.35886,-6.88403 -2.22298,-7.49453 -0.36217,-0.25586 -1.35026,-2.42959 -2.19578,-4.83049 -0.8455,-2.4009 -1.87739,-4.60102 -2.29307,-4.88915 -0.41568,-0.28814 -1.65799,-3.21137 -2.76067,-6.49607 -1.10269,-3.28471 -2.25131,-5.97219 -2.55248,-5.97219 -0.30118,0 -0.78018,-0.92672 -1.06445,-2.05938 -0.28429,-1.13265 -0.81748,-2.05937 -1.18488,-2.05937 -0.73099,0 -3.07719,11.51109 -3.94558,19.35812 -0.30083,2.71838 -0.80224,5.12785 -1.11425,5.35438 -0.98488,0.71506 -2.19617,10.45627 -1.5256,12.26897 0.74789,2.02175 0.89616,2.03958 6.39823,0.76955 l 0,0 z m 180.11106,-51.28405 c 1.86789,-1.8679 1.39641,-3.07667 -1.08853,-2.79075 -1.62197,0.18663 -2.34007,0.78702 -2.52854,2.11409 -0.3068,2.16017 1.74897,2.54475 3.61707,0.67666 z M 225.71248,133.44744 c 0.37904,0 0.98895,-1.94611 1.35537,-4.32469 0.87198,-5.66042 0.86923,-5.78649 -0.13327,-6.12066 -1.13095,-0.37698 -3.36436,9.79867 -2.83501,12.9166 0.11538,0.67959 0.37042,0.40158 0.56677,-0.61781 0.19634,-1.01939 0.66711,-1.85344 1.04614,-1.85344 z m 3.03681,-15.03344 c -0.22851,-0.56633 -0.41549,-0.10297 -0.41549,1.02969 0,1.13266 0.18698,1.59602 0.41549,1.02969 0.22852,-0.56633 0.22852,-1.49305 0,-2.05938 z"
     id="path2987"
     inkscape:connector-curvature="0" />
  <path
     style="fill:#ff0000"
     d="m 541.72027,354.98952 c -2.2215,-0.37215 -4.26783,-1.04673 -4.54739,-1.49907 -0.27956,-0.45234 -1.42747,-1.21544 -2.5509,-1.69576 -4.46057,-1.90711 -6.36055,-3.60002 -8.38063,-7.46725 -0.59166,-1.13266 -1.54875,-2.43215 -2.12688,-2.88776 -1.7327,-1.36552 -3.45928,-9.45895 -3.4697,-16.26443 -0.005,-3.51123 -0.35101,-6.38406 -0.76808,-6.38406 -0.41706,0 -1.01084,-1.14981 -1.3195,-2.55512 -0.30866,-1.40532 -1.19792,-3.19185 -1.97614,-3.97007 -1.90147,-1.90148 -5.00731,-14.22936 -5.00731,-19.87535 0,-1.33689 -0.31132,-2.43071 -0.69182,-2.43071 -0.38051,0 -1.16359,-2.63983 -1.74019,-5.86629 -0.87139,-4.87601 -0.8609,-5.98215 0.0622,-6.55264 0.69988,-0.43255 1.35851,-0.24325 1.78112,0.51192 0.36882,0.65904 1.2082,1.19826 1.86528,1.19826 0.65708,0 1.19469,0.52728 1.19469,1.17174 0,0.64446 1.33551,1.6125 2.96781,2.15121 4.59579,1.51675 5.58622,0.009 5.26096,-8.00914 -0.50411,-12.42711 -0.47056,-12.71071 1.70015,-14.36812 1.1085,-0.84637 2.42094,-1.87023 2.91654,-2.27524 0.49559,-0.40501 2.07101,-1.34138 3.50093,-2.08082 1.42992,-0.73944 2.59986,-1.89095 2.59986,-2.55891 0,-0.66796 0.47927,-1.21447 1.06504,-1.21447 0.58577,0 1.7804,-2.13145 2.65474,-4.73656 0.87434,-2.60511 2.06317,-5.2264 2.64184,-5.82509 0.57867,-0.59869 1.05213,-1.72929 1.05213,-2.51244 0,-1.71054 1.54639,-3.40091 3.11124,-3.40091 1.74042,0 5.53836,-4.20259 6.62491,-7.33073 1.29578,-3.73055 1.28412,-17.5645 -0.0159,-18.86452 -0.76883,-0.76883 -0.76883,-0.9885 0,-0.9885 0.54368,0 0.9885,-0.41919 0.9885,-0.93153 0,-1.31746 -5.45676,-0.31939 -7.06913,1.29298 -0.70733,0.70733 -1.60001,1.28605 -1.98374,1.28605 -0.38373,0 -2.24094,1.48275 -4.12713,3.295 -3.83206,3.68184 -4.68713,3.93472 -6.26705,1.85344 -1.85395,-2.44228 -1.28245,-4.71835 2.13667,-8.5096 1.80586,-2.00239 3.28861,-4.08565 3.295,-4.62947 0.006,-0.54382 0.52777,-1.28519 1.1586,-1.6475 0.63083,-0.36231 1.76566,-2.1415 2.52184,-3.95375 1.17881,-2.82512 1.49096,-3.08943 2.18896,-1.85343 0.44775,0.79286 1.53705,1.44156 2.42066,1.44156 0.88361,0 1.60657,0.32384 1.60657,0.71964 0,0.39581 1.39819,2.24925 3.10709,4.11875 2.05858,2.25206 3.80367,3.39911 5.1713,3.39911 2.39493,0 4.63056,2.29329 5.40821,5.5477 0.29938,1.25286 0.8292,2.64861 1.17739,3.10167 0.34819,0.45307 0.8952,2.58452 1.21557,4.73657 0.32038,2.15204 0.88452,3.91281 1.25365,3.91281 0.36912,0 1.13677,2.08066 1.70588,4.6237 0.5691,2.54303 1.42973,5.04517 1.91251,5.56031 0.48278,0.51514 1.72577,2.67324 2.7622,4.79577 2.13578,4.3739 5.03229,5.83155 10.89994,5.48533 2.99339,-0.17662 3.70884,0.123 5.22687,2.18892 2.26725,3.08555 4.51786,9.85439 4.5874,13.79691 0.03,1.69898 0.34425,3.08906 0.6984,3.08906 0.35415,0 1.14249,1.68858 1.75187,3.7524 0.60937,2.06382 1.54198,4.19527 2.07246,4.73656 1.22249,1.24739 3.53087,8.84982 4.23825,13.95823 0.298,2.15204 0.87042,3.91281 1.27204,3.91281 0.40162,0 0.73022,3.70687 0.73022,8.2375 0,4.9425 -0.3295,8.2375 -0.82375,8.2375 -0.45306,0 -0.82375,0.67175 -0.82375,1.49278 0,1.52766 -3.06617,8.4738 -4.06812,9.21597 -0.30582,0.22653 -1.05558,1.70928 -1.66613,3.295 -0.61054,1.58572 -1.54157,3.25381 -2.06895,3.70687 -0.52738,0.45307 -1.8599,2.67719 -2.96114,4.9425 -1.10124,2.26532 -2.21142,4.3041 -2.46705,4.53063 -0.25564,0.22653 -1.34457,2.82134 -2.41986,5.76625 -1.07529,2.94491 -2.16388,5.53972 -2.4191,5.76625 -0.25521,0.22653 -1.17669,1.6894 -2.04772,3.25083 -1.91923,3.44045 -5.33342,6.57269 -7.20297,6.60814 -0.75511,0.0143 -1.56093,0.48939 -1.79073,1.05572 -0.2963,0.73023 -0.61572,0.76711 -1.09833,0.12681 -0.71342,-0.94651 -8.55765,-3.55032 -11.38927,-3.78054 -3.02565,-0.246 -6.94779,1.15593 -7.42304,2.65328 -0.35158,1.10774 -5.1458,3.78528 -5.67395,3.16887 -0.0457,-0.0533 -1.90061,-0.40137 -4.12211,-0.77353 l 0,0 z"
     id="path2989"
     inkscape:connector-curvature="0" />
  <path
     style="fill:#ff0000"
     d="M 69.301718,103.03463 C 68.342763,98.71208 68.427983,93.699 69.5479,88.553065 c 0.197201,-0.906125 0.389438,-2.25357 0.427193,-2.994323 0.03776,-0.740753 0.92613,-1.908668 1.974166,-2.595368 1.784255,-1.169089 2.085686,-1.091243 4.736563,1.223229 2.693949,2.352078 2.831042,2.737045 2.831042,7.949747 0,4.33331 -0.503576,6.55376 -2.409964,10.6264 -2.055308,4.39078 -2.727347,5.14844 -4.566643,5.14844 -1.9617,0 -2.254485,-0.44087 -3.238539,-4.87656 z"
     id="path2991"
     inkscape:connector-curvature="0" />
  <path
     style="fill:#ff0000"
     d="m 116.0166,204.55526 c -0.76603,-0.20203 -2.10479,-1.9198 -2.97504,-3.81726 -1.44927,-3.15995 -1.5137,-4.31199 -0.76657,-13.70569 0.52762,-6.63376 1.21466,-10.65471 1.94535,-11.3854 0.62131,-0.62131 1.12965,-1.61287 1.12965,-2.20347 0,-1.17837 4.25151,-2.31695 6.0601,-1.62293 0.71999,0.27629 1.34105,2.44082 1.69689,5.91404 0.3087,3.01304 0.96027,5.95903 1.44795,6.54665 1.1417,1.37567 1.2563,11.72027 0.13793,12.45105 -0.46784,0.3057 -1.08014,2.00857 -1.36068,3.78416 -0.67697,4.2847 -2.52171,5.30316 -7.31558,4.03885 l 0,0 z"
     id="path2993"
     inkscape:connector-curvature="0" />
</svg>
