<?xml version="1.0" encoding="UTF-8" standalone="no"?>
<!-- Created with Inkscape (http://www.inkscape.org/) -->

<svg
   xmlns:dc="http://purl.org/dc/elements/1.1/"
   xmlns:cc="http://creativecommons.org/ns#"
   xmlns:rdf="http://www.w3.org/1999/02/22-rdf-syntax-ns#"
   xmlns:svg="http://www.w3.org/2000/svg"
   xmlns="http://www.w3.org/2000/svg"
   xmlns:sodipodi="http://sodipodi.sourceforge.net/DTD/sodipodi-0.dtd"
   xmlns:inkscape="http://www.inkscape.org/namespaces/inkscape"
   id="svg2"
   version="1.1"
   inkscape:version="0.48.4 r9939"
   width="535.52228"
   height="683.4942"
   sodipodi:docname="patchy.bmp">
  <metadata
     id="metadata8">
    <rdf:RDF>
      <cc:Work
         rdf:about="">
        <dc:format>image/svg+xml</dc:format>
        <dc:type
           rdf:resource="http://purl.org/dc/dcmitype/StillImage" />
        <dc:title></dc:title>
      </cc:Work>
    </rdf:RDF>
  </metadata>
  <defs
     id="defs6" />
  <sodipodi:namedview
     pagecolor="#ffffff"
     bordercolor="#666666"
     borderopacity="1"
     objecttolerance="10"
     gridtolerance="10"
     guidetolerance="10"
     inkscape:pageopacity="0"
     inkscape:pageshadow="2"
     inkscape:window-width="956"
     inkscape:window-height="1041"
     id="namedview4"
     showgrid="false"
     fit-margin-top="0"
     fit-margin-left="0"
     fit-margin-right="0"
     fit-margin-bottom="0"
     inkscape:zoom="1.2567773"
     inkscape:cx="267.76114"
     inkscape:cy="341.74709"
     inkscape:window-x="960"
     inkscape:window-y="18"
     inkscape:window-maximized="0"
     inkscape:current-layer="svg2" />
  <path
     style="fill:#ff0000"
     d="m 251.00921,681.45406 c 0.2145,-1.12209 0.65769,-2.04017 0.98489,-2.04017 0.32718,0 1.42384,-3.48868 2.43701,-7.75262 1.01317,-4.26394 2.10904,-7.75262 2.43526,-7.75262 0.32623,0 1.21874,-2.9113 1.98338,-6.46956 0.76463,-3.55827 1.66962,-6.58791 2.01108,-6.73254 0.34147,-0.14463 1.43524,-3.91625 2.43061,-8.38137 0.99536,-4.46513 2.09019,-8.32104 2.43295,-8.56869 0.34276,-0.24765 1.32968,-3.38811 2.19315,-6.9788 0.86347,-3.59069 1.80282,-6.71214 2.08745,-6.93656 0.28464,-0.22441 1.2106,-3.16225 2.0577,-6.52852 0.8471,-3.36627 1.7713,-6.3041 2.05377,-6.52852 0.28247,-0.22442 1.37216,-4.26394 2.42153,-8.97672 1.04937,-4.71277 2.15553,-8.75229 2.45816,-8.97671 0.72016,-0.53405 3.22707,-14.33161 3.22492,-17.74942 -8.1e-4,-1.45872 0.29338,-2.65221 0.654,-2.65221 0.36061,0 1.51923,-6.15109 2.57472,-13.66909 1.0555,-7.51801 2.20461,-13.85908 2.5536,-14.09129 0.34898,-0.23221 1.2593,-5.37342 2.02294,-11.42491 0.76364,-6.0515 1.66221,-11.18634 1.99683,-11.41075 0.83845,-0.56231 3.18175,-18.15556 3.80431,-28.56229 0.28194,-4.71277 0.75743,-8.7523 1.05667,-8.97671 0.51751,-0.38813 2.05949,-24.06062 3.05651,-46.92375 0.25445,-5.83487 0.74247,-10.79246 1.08448,-11.01688 0.95037,-0.6236 2.41198,-27.59146 2.41198,-44.50301 0,-17.90273 0.0685,-17.80985 -7.66209,-10.37738 -1.0504,1.00988 -2.30592,1.83615 -2.79005,1.83615 -0.48412,0 -1.36568,0.64265 -1.959,1.42811 -1.17383,1.55396 -3.2986,3.03036 -6.12176,4.2537 -4.38948,1.90209 -6.2717,5.18207 -7.18961,12.52874 -0.3188,2.5516 -0.87607,4.63928 -1.23838,4.63928 -0.36231,0 -1.07668,1.26632 -1.58747,2.81404 -1.00156,3.03474 0.29628,12.59245 1.84905,13.61709 0.43163,0.28483 0.96746,5.42604 1.19072,11.42491 0.40494,10.88023 0.4007,10.91265 -1.72386,13.18459 -2.22905,2.38367 -7.51189,4.65902 -10.81719,4.65902 -1.06565,0 -1.93755,0.3244 -1.93755,0.72088 0,0.39649 -0.67877,0.89839 -1.50837,1.11534 -1.53415,0.40119 -2.57196,3.61765 -2.57196,7.97126 0,1.24238 -0.47919,2.44276 -1.06486,2.6675 -0.58567,0.22475 -1.56253,1.91656 -2.17078,3.75961 -0.99443,3.01314 -2.47682,4.55695 -2.47682,2.57944 0,-0.42435 -1.00988,-1.25971 -2.24418,-1.85637 -1.85357,-0.89602 -2.22433,-1.57844 -2.13016,-3.92084 0.1295,-3.22083 2.01346,-8.9565 2.9419,-8.9565 0.33901,0 0.61638,-0.41693 0.61638,-0.9265 0,-1.23201 -3.88168,-4.78595 -5.22731,-4.78595 -0.58459,0 -2.0535,-0.91808 -3.26426,-2.04017 -3.46105,-3.20759 -5.44097,-2.48274 -6.67767,2.44468 -0.33621,1.33956 -1.0138,2.83806 -1.50576,3.33002 -0.49195,0.49196 -1.59971,3.61359 -2.46169,6.93697 -0.86197,3.32338 -2.23367,6.75785 -3.04822,7.63216 -0.81454,0.87431 -1.48098,1.93609 -1.48098,2.3595 0,1.45548 -5.91172,6.36514 -7.1104,5.90517 -0.65106,-0.24984 -1.33732,-0.45425 -1.52503,-0.45425 -0.18771,0 -0.34129,-0.91807 -0.34129,-2.04016 0,-1.12209 0.36024,-2.04016 0.80052,-2.04016 0.44028,0 1.0324,-0.92389 1.31581,-2.05308 0.2834,-1.12918 1.32741,-2.69188 2.32,-3.47266 0.9926,-0.78077 2.47014,-3.16195 3.28343,-5.29152 0.81328,-2.12955 1.72536,-3.87192 2.02684,-3.87192 0.61785,0 3.31044,-5.79395 3.31044,-7.12345 0,-0.47442 0.45904,-1.0432 1.02008,-1.26395 0.56105,-0.22076 1.72419,-2.64704 2.58475,-5.39174 0.86057,-2.74469 1.84043,-4.99036 2.17747,-4.99036 0.33703,0 1.27499,-2.5706 2.08435,-5.71245 0.80937,-3.14185 1.72689,-5.71246 2.03896,-5.71246 0.31207,0 1.36298,-2.5706 2.33537,-5.71246 0.97239,-3.14185 2.01283,-5.71383 2.3121,-5.71551 0.29928,-0.002 1.2107,-1.6241 2.0254,-3.60539 0.8147,-1.98127 1.98045,-3.79387 2.59054,-4.02798 0.6101,-0.23412 1.76054,-1.82495 2.55654,-3.53519 0.79599,-1.71024 1.83362,-3.37118 2.30585,-3.69098 0.47222,-0.3198 0.98819,-4.15299 1.1466,-8.51821 0.22266,-6.13533 0.0268,-8.13343 -0.86311,-8.80329 -0.63313,-0.47659 -2.02271,-2.70269 -3.08797,-4.94687 -1.06527,-2.24418 -2.19438,-4.26394 -2.50913,-4.48836 -0.80041,-0.57069 -3.21256,-7.89394 -3.21256,-9.75329 0,-0.84459 -0.40753,-1.67146 -0.90563,-1.83748 -1.17512,-0.39172 -1.42538,-11.12046 -0.27759,-11.90065 0.47132,-0.32038 1.48317,-3.52033 2.24857,-7.11102 0.7654,-3.59069 1.75687,-6.65093 2.2033,-6.80054 0.9687,-0.32465 1.1025,-3.40028 0.14793,-3.40028 -0.36507,0 -1.15822,-1.26022 -1.76259,-2.8005 -0.63528,-1.6191 -1.82875,-2.9837 -2.82912,-3.23478 -1.92273,-0.48257 -5.35339,0.20354 -5.35339,1.07065 0,0.30662 -2.75422,1.24332 -6.12049,2.08158 -3.36627,0.83826 -6.12049,1.76102 -6.12049,2.05058 0,0.28955 -3.30506,1.37854 -7.34458,2.41997 -4.03953,1.04144 -7.34459,2.15886 -7.34459,2.48317 0,0.32429 -2.93784,1.22439 -6.52852,2.00021 -3.59069,0.7758 -6.52852,1.68934 -6.52852,2.03006 0,0.34073 -3.58049,1.28671 -7.95664,2.10217 -4.37615,0.81547 -8.21867,1.88302 -8.53892,2.37232 -0.39052,0.59667 -6.37998,0.88965 -18.18721,0.88965 -14.74676,0 -17.72742,-0.19818 -18.35937,-1.2207 -0.59256,-0.95878 -2.52527,-1.21066 -9.00773,-1.17391 -4.74069,0.0268 -8.48793,0.40657 -8.80457,0.89213 -0.3032,0.46494 -2.93826,1.08248 -5.85569,1.37232 -10.31417,1.02466 -24.89547,3.25443 -25.30765,3.87003 -0.229709,0.34308 -4.452849,1.22107 -9.384749,1.95109 -4.9319,0.73003 -9.0895,1.67616 -9.23911,2.10252 -0.14962,0.42636 -1.14085,0.7752 -2.20275,0.7752 -2.90779,0 -19.485258,3.31276 -19.960632,3.98882 -0.227933,0.32417 -4.821175,1.26503 -10.207206,2.0908 -5.38603,0.82577 -9.976397,1.77083 -10.200815,2.10014 -0.224418,0.32931 -5.182014,1.46005 -11.01688,2.51277 -5.834866,1.05272 -10.731257,2.19901 -10.880869,2.54731 -0.149612,0.3483 -1.824706,0.63327 -3.722431,0.63327 -2.405412,0 -4.0222609,-0.53276 -5.3385679,-1.75908 -1.832553,-1.70729 -1.877211,-2.08186 -1.516441,-12.71929 0.227636,-6.71191 0.720275,-11.17562 1.270965,-11.51597 0.494587,-0.30568 1.730603,-4.22176 2.7467039,-8.70242 1.0161,-4.48067 2.114316,-8.33443 2.440478,-8.56392 0.326163,-0.22949 1.185035,-2.96996 1.908604,-6.08993 0.723569,-3.11997 1.586667,-5.87004 1.917995,-6.11126 1.456424,-1.06036 3.420944,-5.04482 3.420944,-6.93841 0,-1.13788 0.367229,-2.06887 0.816065,-2.06887 0.448836,0 0.816065,-0.489 0.816065,-1.08666 0,-2.10491 3.425463,-11.97038 4.156323,-11.97038 0.407038,0 0.740068,-1.03367 0.740068,-2.29705 0,-1.82592 -0.591496,-2.57912 -2.883914,-3.6723 -1.586154,-0.75637 -3.4223,-1.37524 -4.080326,-1.37524 -0.658026,0 -1.199277,-0.27542 -1.202778,-0.61205 -0.0065,-0.6247 -3.869098,-2.65221 -5.052719,-2.65221 -1.542755,0 -7.1457099,-6.67532 -7.9020039,-9.4144 -0.45435,-1.64551 -1.336442,-3.41369 -1.960206,-3.92929 -2.684773,-2.2192 -4.833914,-14.02841 -3.06271998,-16.82918 0.43066198,-0.681 0.44977798,-1.39459 0.04408,-1.64533 -0.394029,-0.24352 -0.08157,-1.2844 0.69434198,-2.31306 l 1.410758,-1.87028 2.817013,2.51308 c 2.536725,2.26304 3.190899,2.46475 6.5747589,2.02723 2.576845,-0.33317 4.115576,-0.14634 4.896391,0.5945 3.267721,3.10044 5.073572,3.34964 18.669255,2.57635 7.245833,-0.41212 13.426622,-1.10941 13.735087,-1.54954 0.308464,-0.44012 1.557805,-1.43439 2.776312,-2.20949 2.480957,-1.57814 10.387498,-1.83842 17.370097,-0.57182 2.244179,0.40708 5.732854,0.9925 7.752614,1.30094 2.01976,0.30844 3.87676,0.87022 4.12666,1.2484 0.24989,0.37819 3.73857,1.29194 7.75261,2.03055 4.01405,0.73862 7.48359,1.62574 7.71011,1.97137 0.22651,0.34564 5.367719,1.44984 11.424909,2.45378 6.05719,1.00395 11.19668,2.08645 11.4211,2.40556 0.22442,0.31911 4.08033,1.25613 8.56869,2.08228 4.48835,0.82613 8.34426,1.73493 8.56868,2.01954 0.22442,0.28462 4.9984,1.36177 10.60885,2.39368 5.61045,1.03191 10.38443,2.13162 10.60885,2.44381 0.22441,0.3122 3.50795,1.18142 7.29674,1.93162 3.78878,0.7502 7.09385,1.69041 7.34458,2.08936 1.63488,2.60133 13.25887,3.05517 15.74735,0.61484 0.56641,-0.55545 3.60044,-1.69394 6.74229,-2.52997 3.14185,-0.83603 5.89607,-1.78204 6.12049,-2.10225 0.44863,-0.64013 13.7989,-4.05358 15.85385,-4.05358 0.70593,0 1.28352,-0.29781 1.28352,-0.66179 0,-0.36398 1.85889,-1.13821 4.13086,-1.72049 2.27197,-0.5823 4.75077,-1.68961 5.50844,-2.4607 0.75767,-0.7711 2.66288,-1.88972 4.23381,-2.48581 1.57092,-0.5961 3.23617,-1.54 3.70055,-2.09756 1.07846,-1.29483 6.63718,-3.6307 8.64008,-3.6307 0.84287,0 1.53248,-0.29797 1.53248,-0.66218 0,-0.36419 3.02964,-1.3425 6.73253,-2.17403 3.7029,-0.83152 6.91616,-1.72703 7.14057,-1.99003 0.84833,-0.99416 5.75517,-2.35437 7.16408,-1.98593 0.80788,0.21126 1.82164,1.16402 2.2528,2.11724 0.43117,0.95321 1.88563,2.08736 3.23213,2.52032 1.34651,0.43297 2.63182,1.01504 2.85623,1.29351 0.78068,0.96867 4.98517,2.51324 6.84134,2.51324 1.63482,0 2.03771,-0.70256 3.22586,-5.62521 0.74674,-3.09386 1.35772,-6.18471 1.35772,-6.86855 0,-0.68384 0.32809,-1.36575 0.72911,-1.51537 0.72991,-0.27232 3.35121,-18.49164 3.35121,-23.29259 0,-1.40221 0.31967,-2.67188 0.71038,-2.82149 0.3907,-0.14961 0.84973,-6.43997 1.02008,-13.97858 l 0.3097,-13.70656 -3.22212,-1.79868 c -1.77217,-0.98927 -3.88374,-2.44133 -4.69238,-3.22679 -0.80864,-0.78547 -2.00284,-1.42812 -2.65379,-1.42812 -0.65095,0 -1.47722,-0.46952 -1.83615,-1.04339 -0.35893,-0.57385 -2.27826,-1.7606 -4.26517,-2.6372 -1.98692,-0.8766 -4.1903,-2.17942 -4.89639,-2.89516 -0.7061,-0.71574 -2.56912,-1.80571 -4.14005,-2.42216 -1.57092,-0.61645 -3.33609,-1.78193 -3.92258,-2.58997 -0.5865,-0.80804 -1.5747,-1.46916 -2.19602,-1.46916 -1.64437,0 -2.08529,-1.06826 -2.94419,-7.1332 -0.42411,-2.99469 -1.14668,-5.67702 -1.60574,-5.96073 -0.72355,-0.44718 -2.37878,-5.33562 -3.75988,-11.10414 -0.25378,-1.05996 0.17737,-2.40108 1.08748,-3.38261 3.49481,-3.76906 5.18028,-6.08341 5.18028,-7.11312 0,-0.60307 0.6104,-1.70689 1.35645,-2.45293 0.81875,-0.81875 1.037,-1.56971 0.55059,-1.89444 -0.44322,-0.2959 -1.50004,-1.73149 -2.34847,-3.1902 -0.84843,-1.45872 -1.92718,-2.65222 -2.39724,-2.65222 -0.82475,0 -2.22169,-2.13232 -3.34144,-5.1004 -0.29632,-0.78547 -0.86317,-1.42812 -1.25966,-1.42812 -3.14598,0 5.54502,-9.904304 11.11206,-12.663354 1.79535,-0.88978 3.46287,-1.8824 3.70561,-2.20581 0.81108,-1.08064 7.48285,-3.08427 10.2701,-3.08427 1.5145,0 2.75363,-0.36723 2.75363,-0.816067 0,-0.448836 0.61658,-0.816065 1.37017,-0.816065 1.27843,0 4.35838,-0.860015 9.26225,-2.586301 1.76795,-0.622363 2.33747,-1.775676 3.9736,-8.04681 1.05043,-4.026178 2.20295,-7.320323 2.56115,-7.320323 0.3582,0 1.28238,-1.652532 2.05373,-3.672294 0.77136,-2.019761 1.64603,-3.672293 1.94373,-3.672293 0.29769,0 1.02106,-1.326895 1.6075,-2.948655 0.60978,-1.686314 3.464,-5.26729 6.66706,-8.364668 7.22503,-6.986644 7.92152,-7.54814 11.77944,-9.49634 1.77762,-0.897671 3.67671,-2.044987 4.22022,-2.54959 0.54351,-0.504602 3.48695,-1.583706 6.54098,-2.398008 3.05401,-0.814302 5.73638,-1.708486 5.9608,-1.987075 0.43859,-0.544465 14.2022,-3.280541 16.45732,-3.271558 0.74805,0.003 1.50094,-0.417113 1.67308,-0.933539 0.42526,-1.275781 35.59424,-1.407704 36.39851,-0.136534 0.30552,0.482874 2.48344,1.140474 4.83983,1.461332 4.0274,0.548391 4.28434,0.477548 4.28434,-1.181268 0,-2.178775 -5.98506,-8.35474 -9.58876,-9.894611 -1.45872,-0.623314 -2.65222,-1.368231 -2.65222,-1.655372 0,-0.28714 -2.11156,-1.367395 -4.69237,-2.400565 -2.58081,-1.0331711 -4.98604,-2.3611241 -5.34497,-2.9510091 -0.35893,-0.589884 -1.19429,-1.072517 -1.85635,-1.072517 -1.25946,0 -3.10287,-3.738821 -2.4023,-4.87236 0.82956,-1.34226202 6.3896,-1.71701702 10.88009,-0.73333602 2.552,0.55903902 4.82362,1.26040902 5.04804,1.55860102 0.22441,0.298192 2.33598,1.176674 4.69237,1.952183 2.35639,0.775509 4.28434,1.675188 4.28434,1.999287 0,0.3241 1.83914,1.250618 4.08698,2.058929 2.24784,0.808312 4.35941,1.8995531 4.69237,2.4249811 0.33297,0.525426 1.70709,1.657271 3.0536,2.51521 1.34651,0.85794 3.05288,2.318041 3.79194,3.24467 0.73906,0.926629 2.29934,2.786468 3.46728,4.132976 1.16794,1.346508 2.12398,2.881001 2.12453,3.409986 5.5e-4,0.528986 0.49098,1.451775 1.08985,2.050642 0.59887,0.598867 1.34383,2.683408 1.65547,4.632314 0.72726,4.548027 2.53406,8.020769 4.49723,8.643855 1.99786,0.634098 14.59991,13.238426 15.23423,15.236988 0.26622,0.838778 0.81905,1.525051 1.22851,1.525051 0.40947,0 1.49387,1.468917 2.40979,3.264261 0.91592,1.795343 2.02507,3.26426 2.46478,3.26426 0.43972,0 0.79948,0.490142 0.79948,1.089204 0,1.829909 4.41036,5.146714 8.76829,6.594186 2.27102,0.754313 4.95569,2.088353 5.96594,2.964534 1.01024,0.876179 2.12893,1.593054 2.48597,1.593054 0.35703,0 1.67795,0.934357 2.93537,2.076348 6.49237,5.896356 8.40672,8.075216 8.40672,9.568286 0,1.84576 -2.15389,3.79549 -4.23618,3.83465 -2.08399,0.0392 -2.31624,1.04064 -1.05949,4.56827 1.49875,4.20691 1.49607,6.066534 -0.009,6.066534 -0.67325,0 -1.2241,0.29043 -1.2241,0.64541 0,0.35497 -2.4212,1.29056 -5.38044,2.07909 -6.22761,1.65942 -8.9614,3.97894 -9.77008,8.28956 -0.5332,2.84225 -0.33539,3.25378 3.1033,6.45622 2.02005,1.88126 3.89319,4.13668 4.16253,5.01206 0.56857,1.84785 -0.62608,7.72036 -1.71768,8.44351 -0.40902,0.27096 -1.42432,2.05339 -2.25623,3.96094 -0.83189,1.90755 -1.80909,3.46828 -2.17156,3.46828 -0.36245,0 -0.65901,0.50187 -0.65901,1.11527 0,1.54823 -3.46713,9.84081 -4.25359,10.17363 -0.92044,0.38951 -0.79655,5.65907 0.1407,5.98448 1.17834,0.4091 2.82057,16.7318 2.98314,29.65036 0.0791,6.28371 0.182,11.90306 0.22873,12.48745 0.0468,0.58439 1.18664,1.44658 2.53315,1.91598 1.34651,0.4694 2.4482,1.14192 2.4482,1.4945 0,0.35258 0.64265,0.85684 1.42811,1.12058 2.06428,0.69311 4.47117,2.36848 9.00648,6.26911 0.80184,0.68964 2.8216,2.0967 4.48836,3.12681 1.66676,1.03012 3.03048,2.18547 3.03048,2.56745 0,0.38199 0.64265,0.90111 1.42812,1.15362 0.78546,0.2525 2.71341,1.56168 4.28434,2.9093 1.57092,1.34762 3.31215,2.45107 3.8694,2.45212 0.55724,8.2e-4 1.47183,0.73638 2.03244,1.63405 0.5606,0.89767 1.38999,1.638 1.84306,1.64516 0.45308,0.007 2.10908,1.14635 3.68001,2.5315 1.57093,1.38516 3.86611,3.04126 5.10041,3.68022 1.2343,0.63896 2.24418,1.45749 2.24418,1.81896 0,0.36147 1.00988,1.17317 2.24418,1.80379 1.23429,0.63062 3.06148,1.88616 4.06041,2.79011 4.1677,3.77141 5.32677,4.63356 8.34232,6.20536 1.74201,0.90799 3.3707,2.18098 3.61933,2.82887 0.24862,0.6479 0.99358,1.17799 1.65547,1.17799 0.66189,0 1.68329,0.67505 2.26979,1.50012 0.58649,0.82507 2.60893,2.38351 4.49429,3.46322 4.21825,2.41568 5.39606,4.66959 4.21322,8.06267 -0.47534,1.36357 -1.15101,2.47923 -1.50149,2.47923 -0.35047,0 -1.09717,1.11038 -1.65932,2.46753 -0.56215,1.35714 -1.43296,2.73425 -1.93515,3.06025 -0.50218,0.32598 -1.80272,2.24524 -2.89007,4.265 -1.08736,2.01976 -2.46447,3.96596 -3.06025,4.32489 -0.59578,0.35893 -1.08323,1.11595 -1.08323,1.68227 0,0.56632 -0.72967,1.81288 -1.62149,2.77013 -0.89182,0.95726 -2.39782,3.22988 -3.34666,5.05027 -0.94884,1.8204 -2.01076,3.30981 -2.35983,3.30981 -0.34907,0 -1.0946,1.11038 -1.65675,2.46753 -0.56215,1.35714 -1.45278,2.73425 -1.97918,3.06025 -0.52641,0.32598 -1.59717,1.96982 -2.37947,3.65295 -0.7823,1.68313 -1.74245,3.06024 -2.13368,3.06024 -0.39121,0 -1.54113,1.83615 -2.55537,4.08033 -1.01424,2.24418 -2.12859,4.08033 -2.47631,4.08033 -1.04468,0 -2.33168,5.82281 -2.33654,10.57125 -0.007,6.43603 1.84039,22.07135 2.60724,22.07135 0.35886,0 0.65247,1.253 0.65247,2.78444 0,1.53145 0.55078,5.66278 1.22396,9.18074 0.67317,3.51796 1.21966,9.15051 1.21441,12.51678 -0.01,6.17676 -1.70779,14.5462 -3.13133,15.43289 -0.42417,0.26421 -1.42212,1.98486 -2.21765,3.82367 -0.82072,1.89702 -2.70033,4.19165 -4.34501,5.30442 -1.59421,1.07863 -3.51432,2.5664 -4.26691,3.30616 -0.75258,0.73976 -2.50741,1.59521 -3.89962,1.90099 -1.3922,0.30578 -2.53128,0.89402 -2.53128,1.30719 0,0.41317 -2.75422,0.75122 -6.12049,0.75122 -3.36627,0 -6.12049,-0.32555 -6.12049,-0.72344 0,-0.3979 -1.00988,-0.92437 -2.24418,-1.16995 -1.2343,-0.24559 -3.98798,-0.89986 -6.11929,-1.45394 -2.13131,-0.55408 -4.00702,-0.85387 -4.16825,-0.66619 -0.54039,0.62902 1.33854,22.36967 1.96924,22.78574 0.63432,0.41846 2.67709,24.476 2.12517,25.02792 -0.29645,0.29644 -1.65754,-7.76288 -2.60788,-15.44187 -0.26385,-2.13197 -0.75133,-3.87631 -1.08328,-3.87631 -0.33196,0 -1.07116,-2.84603 -1.6427,-6.32451 -0.57153,-3.47847 -1.23568,-7.518 -1.47589,-8.97671 -0.24021,-1.45872 -0.72399,-2.65222 -1.07506,-2.65222 -1.15121,0 -1.72003,4.19061 -0.92502,6.81471 0.42826,1.41352 0.99084,5.68998 1.25021,9.50324 0.25935,3.81326 0.84331,7.05712 1.29769,7.20858 0.45437,0.15146 0.82613,1.55339 0.82613,3.1154 0,4.02314 2.57198,20.2001 3.28949,20.68986 0.5211,0.35569 2.64302,9.0405 3.83816,15.70925 0.2212,1.2343 0.66496,2.24418 0.98613,2.24418 0.32116,0 1.26989,3.48868 2.10826,7.75262 0.83839,4.26394 1.75989,7.75262 2.0478,7.75262 0.2879,0 1.19316,3.94771 2.01169,8.7727 0.81853,4.82498 1.76789,8.96065 2.10969,9.19036 0.73122,0.49143 2.9764,15.0537 3.73119,24.20054 0.29012,3.51575 0.79643,6.57589 1.12514,6.80031 0.72284,0.4935 2.21498,21.83215 2.95308,42.23137 0.29639,8.19126 0.78024,14.89319 1.07521,14.89319 0.29498,0 0.99377,11.29231 1.55288,25.09401 0.55911,13.8017 1.36001,30.0516 1.77978,36.11088 0.41976,6.05929 0.76471,13.86291 0.76653,17.34139 0.002,3.67008 0.34582,6.3245 0.81938,6.3245 0.44884,0 0.81607,1.28531 0.81607,2.85623 l 0,2.85623 -119.84842,0 -119.84842,0 0.39001,-2.04016 0,0 z"
     id="path2987"
     inkscape:connector-curvature="0" />
</svg>
