<?xml version="1.0" encoding="UTF-8" standalone="no"?>
<!-- Created with Inkscape (http://www.inkscape.org/) -->

<svg
   xmlns:dc="http://purl.org/dc/elements/1.1/"
   xmlns:cc="http://creativecommons.org/ns#"
   xmlns:rdf="http://www.w3.org/1999/02/22-rdf-syntax-ns#"
   xmlns:svg="http://www.w3.org/2000/svg"
   xmlns="http://www.w3.org/2000/svg"
   xmlns:sodipodi="http://sodipodi.sourceforge.net/DTD/sodipodi-0.dtd"
   xmlns:inkscape="http://www.inkscape.org/namespaces/inkscape"
   id="svg2"
   version="1.1"
   inkscape:version="0.48.4 r9939"
   width="625.95776"
   height="883.47931"
   sodipodi:docname="Hakurei.Reimu.full.1015539.bmp">
  <metadata
     id="metadata8">
    <rdf:RDF>
      <cc:Work
         rdf:about="">
        <dc:format>image/svg+xml</dc:format>
        <dc:type
           rdf:resource="http://purl.org/dc/dcmitype/StillImage" />
        <dc:title></dc:title>
      </cc:Work>
    </rdf:RDF>
  </metadata>
  <defs
     id="defs6" />
  <sodipodi:namedview
     pagecolor="#ffffff"
     bordercolor="#666666"
     borderopacity="1"
     objecttolerance="10"
     gridtolerance="10"
     guidetolerance="10"
     inkscape:pageopacity="0"
     inkscape:pageshadow="2"
     inkscape:window-width="956"
     inkscape:window-height="1041"
     id="namedview4"
     showgrid="false"
     fit-margin-top="0"
     fit-margin-left="0"
     fit-margin-right="0"
     fit-margin-bottom="0"
     inkscape:zoom="0.97229216"
     inkscape:cx="312.97889"
     inkscape:cy="441.73966"
     inkscape:window-x="960"
     inkscape:window-y="18"
     inkscape:window-maximized="0"
     inkscape:current-layer="svg2" />
  <path
     style="fill:#ff0000"
     d="m 70.825428,882.54431 c -5.89105,-0.6344 -7.10781,-1.2413 -8.98875,-4.4837 -2.88064,-4.9656 -5.44349,-14.7928 -4.43209,-16.9947 0.44342,-0.9654 2.21296,-4.0053 3.93231,-6.7553 1.71934,-2.75 4.87341,-8.6562 7.00905,-13.125 2.13564,-4.4687 4.96112,-10.375 6.27886,-13.125 1.31774,-2.75 2.40684,-5.5625 2.42022,-6.25 0.0134,-0.6875 1.1243,-2.6562 2.46873,-4.375 1.34443,-1.7187 2.45692,-4.6317 2.4722,-6.4732 0.0153,-1.8415 0.87155,-4.192 1.9028,-5.2232 2.21456,-2.2146 2.37064,-5.2587 0.53903,-10.5129 -1.39132,-3.9911 0.37704,-9.3007 4.7658,-14.3094 1.88768,-2.1543 1.76719,-4.0176 -0.78481,-12.1365 -1.31215,-4.1745 -1.18386,-4.4296 5.19229,-10.3243 3.59573,-3.3242 8.084562,-6.7385 9.975192,-7.5874 1.89062,-0.8489 3.4375,-2.0983 3.4375,-2.7766 0,-0.6782 1.08924,-4.0565 2.42054,-7.5073 1.3313,-3.4508 3.95906,-11.3367 5.83946,-17.5242 1.88041,-6.1875 3.8255,-11.8125 4.32242,-12.5 0.49691,-0.6875 1.76209,-4.3438 2.8115,-8.125 4.40658,-15.87776 6.73442,-23.28323 8.1274,-25.85533 2.8975,-5.35013 1.86504,-8.69087 -3.55981,-11.51846 -2.77117,-1.44441 -6.38724,-2.62621 -8.03572,-2.62621 -4.58207,0 -6.92579,-3.20276 -6.92579,-9.46429 0,-3.04464 -0.55107,-5.53571 -1.2246,-5.53571 -0.67352,0 -2.37246,-2.25 -3.7754,-5 -1.40295,-2.75 -3.10188,-5 -3.77541,-5 -0.67352,0 -1.22459,-0.84375 -1.22459,-1.875 0,-1.03125 -0.81055,-1.875 -1.80123,-1.875 -3.085302,0 -3.592312,-2.61397 -0.876042,-4.51653 l 2.593752,-1.81673 -2.474182,-4.7468 c -1.36079,-2.61075 -3.88812,-5.97623 -5.61627,-7.47883 -2.53894,-2.20759 -2.89452,-3.19462 -1.85234,-5.14195 0.70936,-1.32546 1.84923,-2.7557 2.53303,-3.17831 0.6838,-0.42261 1.24328,-1.57895 1.24328,-2.56963 0,-1.27356 -1.49191,-1.80122 -5.09283,-1.80122 -4.73115,0 -5.24076,-0.3464 -7.17595,-4.87781 -1.27079,-2.97569 -3.65996,-5.727 -6.12674,-7.05545 -2.22399,-1.1977 -4.99358,-3.22734 -6.15464,-4.51029 -1.99308,-2.20232 -1.94474,-2.50964 0.86524,-5.50073 3.9326,-4.18606 2.15993,-7.27545 -4.49453,-7.83301 -7.71541,-0.64645 -11.40867,-7.05321 -9.08157,-15.75397 1.24256,-4.64578 1.16116,-5.74718 -0.55131,-7.45964 -1.105,-1.105 -2.60423,-2.0091 -3.33161,-2.0091 -0.72738,0 -2.16541,-2.01734 -3.19561,-4.48296 -1.61412,-3.86313 -1.62878,-4.72728 -0.10606,-6.25 0.97187,-0.97188 3.71036,-1.76704 6.08553,-1.76704 3.26725,0 4.47765,-0.60857 4.97227,-2.5 0.83721,-3.2015 4.05605,-3.18554 12.29256,0.061 3.57352,1.40855 6.82872,2.05622 7.23378,1.43927 0.78069,-1.18907 16.59623,-8.96375 18.415182,-9.05261 0.58921,-0.0288 5.81618,-4.76997 11.61549,-10.53596 l 10.5442,-10.48364 -3.66557,-5.40152 c -2.01606,-2.97085 -4.37033,-5.85137 -5.2317,-6.40115 -0.86137,-0.54979 -1.56613,-1.76854 -1.56613,-2.70834 0,-0.93979 -0.44486,-1.89621 -0.98859,-2.12539 -1.0375,-0.43727 -9.01141,-11.96896 -9.01141,-13.03208 0,-0.33831 -0.57042,-1.29448 -1.26761,-2.12484 -4.521592,-5.3853 -18.732392,-32.14198 -18.732392,-35.27012 0,-0.81428 -0.91787,-3.32045 -2.03972,-5.56923 -1.12184,-2.24879 -2.46872,-5.85084 -2.99306,-8.00455 -0.52435,-2.15372 -1.81683,-6.44709 -2.87218,-9.54084 -3.88316,-11.3834 -7.0396,-28.57274 -8.378,-45.625 -2.30595,-29.37945 -2.48621,-30.625 -4.43199,-30.625 -2.07847,0 -2.14295,0.41087 -1.81221,11.54716 0.23388,7.87456 0.002,8.6698 -3.55868,12.23099 -3.355,3.355 -4.11297,3.61887 -6.36149,2.21465 -2.18089,-1.36199 -2.57082,-2.96131 -2.67727,-10.98099 -0.0685,-5.16275 -0.51314,-10.78194 -0.98802,-12.48709 -0.77253,-2.77393 -1.17025,-2.3134 -3.77829,4.375 -4.6944,12.03898 -12.06012,17.14437 -18.22796,12.63433 -2.25128,-1.64618 -2.13392,-2.15341 2.88608,-12.4743 2.87804,-5.91709 5.23279,-12.19271 5.23279,-13.94583 0,-1.83113 2.1276,-5.87908 5,-9.51295 2.75,-3.479 5,-6.91447 5,-7.63436 0,-1.93579 -14.86619,-0.38779 -19.375,2.0175 -2.0625,1.10026 -6.31153,2.00395 -9.44229,2.00819 -4.8788104,0.006 -6.3035604,-0.62298 -9.9696004,-4.40536 -7.47603,-7.7133 -3.30318,-9.86894 26.8489604,-13.86979 8.97211,-1.1905 16.50708,-2.30491 16.74438,-2.47646 0.2373,-0.17157 0.0596,-2.00478 -0.3948,-4.07382 -0.60302,-2.74556 -2.57696,-4.87506 -7.30645,-7.8823 -9.20216,-5.85117 -9.38638,-5.99853 -16.06795,-12.85351 -5.66602,-5.81307 -6.03725,-6.5982 -6.03725,-12.76851 0,-5.17838 0.50403,-6.84434 2.3734,-7.8448 1.9741,-1.0565 3.44486,-0.24829 8.7421,4.80397 3.50279,3.34079 8.93358,7.97072 12.06842,10.28873 3.13485,2.318 9.49833,7.11466 14.14108,10.65924 8.39671,6.41058 16.13154,10.43807 20.01515,10.42177 1.11917,-0.005 3.40698,-2.02306 5.08402,-4.48525 4.51878,-6.63434 12.84676,-13.00621 16.99901,-13.00621 1.94738,0 4.768652,1.1536 6.269482,2.56356 l 2.72879,2.56356 5.72604,-2.78192 c 5.55303,-2.69786 5.86957,-2.7172 10.47677,-0.63984 4.3893,1.97911 5.44643,1.99573 13.89496,0.21836 5.02932,-1.05805 10.91735,-1.92372 13.0845,-1.92372 2.16717,0 8.45852,-1.07035 13.98079,-2.37856 15.67668,-3.71377 28.25669,-6.31368 34.66546,-7.16432 3.37637,-0.44815 7.0871,-1.90732 8.72508,-3.43096 l 2.8501,-2.65116 -7.47508,-0.84309 c -4.11128,-0.4637 -8.7448,-0.54231 -10.29668,-0.1747 -3.94947,0.93555 -8.13652,-2.19897 -10.06329,-7.53361 -1.53376,-4.2465 -1.4371,-4.73988 1.5625,-7.9748 1.75857,-1.89654 3.1974,-3.84051 3.1974,-4.31994 0,-0.99679 -5.39044,-0.36089 -18.5712,2.19083 -5.07105,0.98171 -16.5657,1.78208 -25.625,1.78427 -17.11715,0.004 -28.20988,-2.07746 -40.52474,-7.6046 -2.940272,-1.31965 -6.034022,-2.41187 -6.875002,-2.42716 -0.84098,-0.0153 -2.93531,-1.12778 -4.65406,-2.4722 -1.71875,-1.34443 -4.05937,-2.45691 -5.20138,-2.4722 -4.82624,-0.0646 -12.97881,-14.5007 -19.82317,-35.1017 -4.3479,-13.08681 -4.24951,-12.4261 -1.85045,-12.4261 1.03125,0 1.875,0.52232 1.875,1.16071 0,0.6384 0.71491,1.90403 1.5887,2.8125 0.87378,0.90849 3.38196,4.46429 5.57374,7.90179 3.55368,5.57345 13.77659,14.96997 20.29252,18.65212 1.31186,0.74133 5.50639,3.176 9.321182,5.41038 3.8148,2.23437 7.52942,4.0625 8.25472,4.0625 0.7253,0 3.4057,1.03161 5.95644,2.29247 9.86916,4.87847 21.01249,6.86923 33.21296,5.93352 30.43855,-2.33448 32.51425,-2.31905 41.00893,0.30468 4.48848,1.38635 10.63518,4.20778 13.65933,6.26983 3.02415,2.06206 5.63202,3.61562 5.79527,3.45239 0.6684,-0.66842 -3.6536,-18.96827 -4.73899,-20.06539 -0.64614,-0.65313 -1.1748,-2.2 -1.1748,-3.4375 0,-1.2375 -0.82969,-2.25 -1.84375,-2.25 -1.34408,0 -1.65813,-0.93161 -1.15884,-3.4375 0.39398,-1.97734 -0.147,-5.03041 -1.27355,-7.1875 -1.07715,-2.0625 -1.96192,-4.71933 -1.96616,-5.90406 -0.0113,-3.18464 -10.70206,-26.70515 -13.40746,-29.49773 -0.88014,-0.90847 -1.60024,-2.1741 -1.60024,-2.8125 0,-0.63839 -0.46589,-1.16071 -1.03531,-1.16071 -0.56943,0 -1.71349,2.95312 -2.54237,6.5625 -1.65293,7.19777 -4.1076,13.4375 -5.2862,13.4375 -0.41448,0 -2.10528,1.18377 -3.75736,2.63062 -5.89441,5.16218 -21.60921,1.33814 -29.04825,-7.0686 -1.79444,-2.02786 -4.33906,-4.81202 -5.65475,-6.18702 -3.93165,-4.10894 -12.58805,-17.25565 -11.99439,-18.21621 0.30322,-0.49062 3.78958,0.7178 7.74747,2.68536 3.95788,1.96756 8.32116,3.59965 9.69616,3.62685 1.52329,0.0301 4.83329,2.9756 8.47231,7.53924 6.42219,8.05395 8.30169,8.84076 12.08381,5.05863 2.54345,-2.54345 6.31888,-13.50091 6.31888,-18.33937 0,-5.46239 2.25627,-9.2295 5.52791,-9.2295 5.43505,0 21.97209,10.05531 21.97209,13.36007 0,0.90197 0.49426,1.63993 1.09835,1.63993 0.60409,0 1.79734,1.6875 2.65165,3.75 0.85431,2.0625 1.70201,3.75 1.88376,3.75 2.00226,0 16.86624,-10.06086 16.86624,-11.41611 0,-0.59614 0.82396,-1.08389 1.83102,-1.08389 1.00707,0 2.4331,-1.125 3.16898,-2.5 0.73587,-1.375 1.8551,-2.5 2.48716,-2.5 2.50305,0 14.09994,-13.62494 18.64529,-21.90595 2.53857,-4.62496 2.61229,-5.31842 0.9134,-8.59303 -1.01641,-1.95914 -1.5511,-4.33584 -1.1882,-5.28155 0.84175,-2.19358 -1.30769,-2.19162 -5.60723,0.005 -1.85648,0.94851 -8.15667,2.97457 -14.00042,4.50236 -15.39684,4.02532 -16.25,4.17946 -16.25,2.93588 0,-0.62074 4.07812,-2.44737 9.0625,-4.05918 10.0399,-3.24661 20.76071,-7.52489 23.0507,-9.19867 0.81851,-0.59826 1.17745,-1.89754 0.79765,-2.88728 -0.3798,-0.989742 0.0543,-2.696982 0.96462,-3.793872 1.39442,-1.68017 1.31362,-2.24409 -0.51292,-3.57969 -1.78943,-1.30846 -1.93499,-2.19842 -0.83344,-5.09571 1.07785,-2.83496 0.96295,-3.71839 -0.59724,-4.59151 -1.06252,-0.59452 -1.93187,-2.33417 -1.93187,-3.86578 0,-1.53162 -0.91853,-4.09613 -2.04116,-5.69892 -1.67488,-2.39122 -1.73988,-3.10038 -0.3622,-3.95182 1.35503,-0.83746 1.23402,-1.52929 -0.62719,-3.58592 -1.78418,-1.97148 -2.14464,-3.75236 -1.59261,-7.86809 0.47386,-3.53283 0.0614,-6.69416 -1.22794,-9.4112 -1.51365,-3.18976 -1.61468,-4.48515 -0.45845,-5.87832 1.07861,-1.29965 1.11851,-2.46806 0.14629,-4.28467 -1.85948,-3.47447 -1.66785,-7.08117 0.47051,-8.85585 1.32511,-1.09975 1.50016,-2.30759 0.65614,-4.52752 -1.2503,-3.28855 -0.33657,-10.15053 1.50303,-11.28747 0.62894,-0.3887 2.3844,0.0869 3.90105,1.05691 1.51664,0.97 7.82003,2.48372 14.00753,3.36383 6.1875,0.8801 14.90625,2.75293 19.375,4.16183 8.72599,2.75112 22.85884,9.43794 23.54166,11.1385 0.22918,0.57073 1.3823,1.03769 2.5625,1.03769 1.18021,0 2.82485,0.67902 3.65476,1.50893 1.86633,1.86632 4.33762,-0.31434 7.4857,-6.60537 1.52388,-3.04527 2.84074,-4.15645 4.56848,-3.85494 2.0571,0.35899 2.18356,0.12975 0.8289,-1.50251 -2.32711,-2.80401 -0.49093,-7.05452 3.67485,-8.50672 1.96955,-0.68659 3.92314,-2.32633 4.34131,-3.64387 0.41816,-1.31754 1.45825,-2.3955199 2.31129,-2.3955199 0.85304,0 3.20576,-2.2367 5.22826,-4.97045 4.8146,-6.50772 8.23926,-6.61474 10.94509,-0.34205 2.29947,5.3307 4.57389,9.0469599 6.67632,10.9086999 3.48005,3.08166 12.93088,18.89514 12.93088,21.63644 0,2.94078 3.34527,6.81405 12.37648,14.32986 2.27182,1.89062 4.51258,3.4375 4.97947,3.4375 2.40876,0 21.94719,21.61307 24.01276,26.5625 0.78903,1.89062 1.92885,3.4375 2.53294,3.4375 0.60409,0 1.11086,0.98437 1.12615,2.1875 0.0153,1.20312 1.12777,3.59375 2.4722,5.3125 1.34442,1.71875 2.45691,4.12744 2.4722,5.35265 0.0152,1.2252 0.93681,4.318952 2.04781,6.875002 4.33485,9.97297 5.71738,25.62476 4.10931,46.52235 -1.53131,19.90014 -3.62932,27.95052 -3.62932,13.92622 0,-4.89753 -0.46753,-7.53482 -1.25,-7.05122 -0.6875,0.4249 -1.25,1.66211 -1.25,2.74936 0,1.92294 -2.92285,8.80233 -7.66715,18.04583 -1.28306,2.49986 -2.33285,5.38411 -2.33285,6.40945 0,1.02533 -0.84375,2.5645 -1.875,3.42036 -2.63204,2.1844 -2.43189,0.31167 1.03786,-9.71098 3.34723,-9.66872 6.35299,-23.11647 5.64296,-25.24655 -0.26617,-0.79851 -1.5056,1.8184 -2.7543,5.81535 -5.23012,16.7411 -10.33771,29.28643 -16.6639,40.9301 -1.92423,3.54165 -1.88192,3.74859 1.27802,6.25 8.56833,6.78275 10.74241,8.21208 12.49093,8.21208 1.03739,0 4.52232,1.12999 7.74428,2.51109 4.68659,2.0089 5.67509,2.94632 4.94289,4.6875 -0.50338,1.19702 -1.19344,3.58266 -1.53348,5.30141 -0.34002,1.71875 -2.32445,4.93007 -4.40981,7.13627 -4.22471,4.46953 -4.14921,4.72789 3.59411,12.29799 3.78278,3.69816 7.38329,9.14651 6.54421,9.9028 -0.22757,0.20513 -3.50752,1.60083 -7.28877,3.10156 -12.41465,4.92724 -13.09278,5.42912 -13.53374,10.0164 -0.74526,7.75274 0.78973,12.22743 4.80403,14.00433 2.02928,0.89825 3.96638,2.35445 4.30467,3.236 0.33829,0.88155 0.0926,5.95135 -0.54592,11.26624 -0.63855,5.31487 -1.3997,12.33528 -1.69147,15.60091 l -0.53048,5.9375 4.30363,0 c 7.74069,0 9.69754,2.22369 12.85869,14.61211 0.83159,3.25896 2.2265,5.51964 3.69299,5.98509 1.29616,0.41139 2.67221,1.5703 3.05789,2.57539 0.38568,1.00507 1.19601,1.82741 1.80072,1.82741 2.10008,0 16.19891,13.0201 23.35399,21.56712 5.92179,7.07383 11.875,17.77428 11.875,21.34444 0,2.5617 -2.85611,4.56466 -5.69005,3.99036 -1.33923,-0.27138 -4.2649,-0.79665 -6.50151,-1.16723 l -4.06655,-0.67382 1.7355,4.15364 c 0.95452,2.2845 2.12022,6.95093 2.59043,10.36981 1.20123,8.73388 -0.1225,9.54364 -11.68819,7.14988 -5.02644,-1.04034 -9.35632,-1.67418 -9.62197,-1.40854 -0.26564,0.26565 0.82954,3.25418 2.43373,6.64116 1.60418,3.387 3.57092,7.56443 4.37052,9.28318 0.79959,1.71875 2.86625,5.375 4.59256,8.125 1.72632,2.75 3.64928,6.125 4.27323,7.5 0.62396,1.375 4.29435,6.15625 8.15642,10.625 10.62999,12.2998 11.52657,13.4325 12.36803,15.6253 0.66336,1.7287 1.12926,1.78432 3.14127,0.37506 2.14671,-1.50361 66.85719,-64.44795 98.37276,-95.68786 7.10905,-7.04688 13.11856,-12.8125 13.35445,-12.8125 0.23589,0 6.30713,-5.62499 13.49163,-12.49998 7.18451,-6.87498 13.6407,-12.49998 14.3471,-12.5 0.70641,-1e-5 2.53454,0.87563 4.0625,1.94585 2.1304,1.4922 2.77814,3.18549 2.77814,7.26253 0,3.56742 1.46274,8.2858 4.44589,14.3412 4.80837,9.76034 8.04802,24.69974 6.68457,30.8254 -0.45907,2.0625 -0.90849,6 -0.9987,8.75 -0.0902,2.75 -1.34334,8.65625 -2.78471,13.125 -3.79966,11.78011 -3.7316,30.69307 0.14285,39.69949 3.03262,7.0495 4.08214,19.77086 1.75566,21.28043 -1.63331,1.0598 -9.24556,16.41967 -9.24556,18.65553 0,0.85122 -1.0614,3.95335 -2.35867,6.89361 -3.68916,8.36145 -6.40248,17.49344 -6.41666,21.59594 -0.0162,4.70674 -0.90527,6.04261 -5.63183,8.46271 -7.92222,4.05634 -20.59284,18.82764 -20.59284,24.00693 0,2.57512 -2.00506,3.38287 -3.60674,1.45298 -2.96291,-3.57009 -3.03877,-12.69203 -0.1823,-21.92151 1.5182,-4.90537 3.55431,-9.71281 4.5247,-10.6832 0.97039,-0.97039 1.76434,-2.39076 1.76434,-3.15639 0,-2.9945 14.24726,-17.5238 17.20179,-17.54231 0.90745,-0.006 6.91055,-5.57572 9.99458,-9.27357 1.28073,-1.53563 1.01808,-3.52723 -1.41998,-10.76728 -3.22967,-9.59079 -3.08741,-11.12009 2.04857,-22.02322 3.02763,-6.42732 2.97753,-15.56683 -0.16969,-30.9576 l -2.28052,-11.15248 3.87512,-5.54666 c 8.33505,-11.93036 8.60093,-12.65856 6.91339,-18.93489 -0.84492,-3.14244 -2.57731,-6.87476 -3.84973,-8.29407 -1.27244,-1.41932 -2.31353,-3.24744 -2.31353,-4.0625 0,-0.81507 -0.79022,-1.48194 -1.75605,-1.48194 -1.32718,0 -1.59226,1.22116 -1.08541,5 0.51442,3.83535 0.25002,5 -1.13509,5 -2.14398,0 -8.52345,6.36634 -8.52345,8.5059 0,0.82175 -0.50233,1.4941 -1.11626,1.4941 -1.52763,0 -2.42467,2.47284 -5.89373,16.24709 -1.64451,6.52965 -2.99001,14.31408 -2.99001,17.29875 0,4.46603 -0.76211,6.23673 -4.30529,10.00291 -4.04289,4.29734 -10.69471,13.38901 -10.69471,14.61747 0,0.30537 -0.88894,1.5934 -1.97541,2.86232 -1.08648,1.26891 -3.391,5.63472 -5.12115,9.70178 -1.73017,4.06708 -3.91268,9.19513 -4.85003,11.39567 -0.93736,2.20053 -2.06784,9.23178 -2.51216,15.625 -0.44432,6.39321 -2.20371,17.15797 -3.90975,23.9217 -2.63838,10.46006 -3.79,12.98167 -7.7069,16.875 -6.00785,5.97171 -21.0575,16.03733 -25.68105,17.1762 -3.38891,0.83475 -3.57193,0.69433 -2.74019,-2.1022 0.49021,-1.64818 2.3649,-9.0356 4.16598,-16.41649 l 3.2747,-13.41979 7.53834,-5.33021 c 9.07823,-6.41904 15.53561,-12.66408 16.91358,-16.35743 0.55873,-1.49752 1.0832,-8.87685 1.1655,-16.39848 0.2211,-20.20579 2.14599,-25.66199 12.59439,-35.69929 4.65177,-4.46875 9.71892,-9.05648 11.26031,-10.19494 2.72781,-2.01475 2.76661,-2.3636 1.45528,-13.0842 l -1.34726,-11.01425 4.00202,-6.6033 c 2.20111,-3.63182 4.44567,-6.60331 4.98791,-6.60331 0.54224,0 0.98589,-0.8158 0.98589,-1.81289 0,-0.99709 0.87828,-2.3044 1.95172,-2.90512 1.40441,-0.78594 2.25027,-4.27485 3.01632,-12.4412 0.58551,-6.24193 1.67599,-12.49139 2.42327,-13.8877 4.39496,-8.21207 -0.22861,-4.15473 -43.01631,37.74833 -21.3125,20.87187 -48.45834,47.4494 -60.32408,59.0612 l -21.57407,21.11238 -10e-4,10 c -0.002,22.69675 -4.21875,55.61847 -8.07775,63.08096 -1.04378,2.01844 -1.91686,4.6822 -1.94019,5.91946 -0.0234,1.23727 -1.12924,4.49958 -2.45759,7.24958 -3.04835,6.31083 -3.05638,7.61585 -0.0846,13.75 4.84231,9.99544 8.65521,18.8919 10.90808,25.45135 1.56402,4.55381 3.20886,7.04977 5.13268,7.78862 2.52353,0.96917 2.7455,1.66703 2.04329,6.42365 -0.99648,6.74984 -9.63994,16.27388 -14.76921,16.27388 -2.62862,0 -3.15182,0.46516 -2.57332,2.28784 0.39937,1.25831 1.21478,4.98487 1.812,8.28125 0.59723,3.29637 1.93684,9.36841 2.9769,13.49341 4.58772,18.19529 6.24125,25.3644 7.06362,30.625 0.83175,5.3207 1.87155,9.5463 7.58626,30.8296 1.3224,4.925 2.40437,10.0497 2.40437,11.3881 0,1.3384 1.31083,4.3401 2.91294,6.6704 1.60211,2.3303 4.46445,6.4869 6.36076,9.2369 2.75772,3.9992 3.32139,5.9606 2.81607,9.799 -0.54994,4.1773 -0.0619,5.4299 3.76796,9.669 3.99992,4.4274 4.28,5.2135 3.08212,8.6497 -1.17536,3.3717 -0.98681,3.9965 1.74627,5.7873 1.68513,1.1041 3.08154,2.646 3.10311,3.4263 0.0496,1.7935 6.4901,14.8082 8.49044,17.1571 3.63521,4.2687 8.97102,11.5465 8.97823,12.246 0.004,0.4211 1.81364,1.8906 4.02064,3.2656 2.20699,1.375 5.71906,3.5691 7.80459,4.8758 4.35479,2.7284 15.35096,6.9859 18.14923,7.027 1.04096,0.015 3.23228,1.0579 4.86962,2.3169 2.7078,2.0822 2.97697,3.2159 2.97697,12.5386 0,8.5731 -0.39583,10.5963 -2.4202,12.3706 -3.6252,3.1772 -6.77426,5.1115 -11.97124,7.3533 -2.57813,1.1121 -4.6875,2.4498 -4.6875,2.9725 0,0.5228 -2.29302,1.338 -5.09558,1.8115 -5.37361,0.9078 -17.86155,-2.1944 -28.16634,-6.9971 -2.82542,-1.3167 -5.65344,-2.3941 -6.28459,-2.3941 -0.63116,0 -4.50705,-1.7082 -8.61308,-3.796 -7.38402,-3.7545 -14.34081,-10.228 -14.34081,-13.3443 0,-2.2153 -2.07159,-2.0291 -2.95204,0.2653 -0.39572,1.0313 -1.87251,1.875 -3.28174,1.875 -4.25743,0 -14.62422,-6.1381 -19.52098,-11.5582 l -4.60749,-5.1 0.80536,-14.9779 c 0.50058,-9.3095 1.51561,-16.4016 2.68214,-18.74 1.7296,-3.467 1.6938,-3.8903 -0.4564,-5.3963 -1.48069,-1.0371 -2.5703,-3.7378 -2.98211,-7.3914 -0.39358,-3.4918 -1.63267,-6.6737 -3.14892,-8.0863 -2.89408,-2.6963 -2.71058,-10.008 0.51509,-20.5238 2.03216,-6.6249 1.7097,-8.1033 -4.65695,-21.3511 -1.3216,-2.75 -2.40135,-5.5009 -2.39943,-6.1131 0.002,-0.6122 -1.05409,-3.4247 -2.34667,-6.25 -1.29257,-2.8253 -3.6072,-8.2306 -5.14361,-12.0119 -5.13693,-12.6425 -15.33114,-32.70313 -16.93064,-33.31693 -0.86976,-0.33375 -4.25124,0.60944 -7.51441,2.09599 -4.77834,2.17679 -6.51649,2.43696 -8.93093,1.33688 -4.42068,-2.0142 -5.0986,-1.744 -6.00756,2.39446 -1.05676,4.8114 -3.8263,6.2427 -10.37929,5.3637 -4.33882,-0.5819 -5.24342,-0.3444 -5.24342,1.3766 0,2.9987 -4.58248,4.2545 -11.08881,3.039 -3.10479,-0.58 -6.80183,-0.6783 -8.21563,-0.2183 -1.41381,0.46 -5.27321,0.7012 -8.57645,0.5362 -3.30322,-0.1651 -6.73457,0.3046 -7.62521,1.0437 -1.91589,1.5901 -7.77929,-0.9348 -11.3605,-4.892 -2.86171,-3.1622 -4.47734,-3.1535 -8.54486,0.046 -3.02899,2.3826 -3.50096,2.4249 -6.9815,0.625 -2.05309,-1.0616 -5.16708,-1.9303 -6.91997,-1.9303 -4.38367,0 -4.0123,-1.7924 1.81293,-8.75 4.10936,-4.90818 5,-6.91667 5,-11.27556 l 0,-5.30362 -5.18015,0.6948 c -6.45994,0.86647 -7.59794,2.50117 -6.82966,9.81058 0.77682,7.39093 -0.8311,9.52206 -8.21403,10.88677 -3.21686,0.59463 -6.81421,2.04653 -7.99411,3.22643 -1.68676,1.6867 -3.38524,1.9747 -7.94696,1.3473 -4.88688,-0.6721 -6.16997,-0.391 -8.13713,1.7827 -1.28449,1.4193 -3.26075,2.5806 -4.3917,2.5806 -1.13094,0 -2.66495,0.6087 -3.40889,1.3526 -0.97017,0.9702 -2.09392,0.8897 -3.97435,-0.2846 -2.22016,-1.3865 -3.1817,-1.3065 -6.27773,0.5223 -5.10763,3.0172 -11.89233,2.8269 -14.05533,-0.3942 -1.49891,-2.2321 -2.20802,-2.3807 -5.62886,-1.1795 -2.15264,0.7559 -6.91103,1.202 -10.5742,0.9914 -5.92303,-0.3406 -6.74506,-0.7289 -7.42595,-3.508 -0.93964,-3.8352 -5.32898,-3.7644 -9.4991,0.1533 -3.56659,3.3506 -10.73991,3.6138 -14.15913,0.5194 -2.21645,-2.0058 -3.1961,-2.1279 -7.24536,-0.9027 -2.5753,0.7792 -5.77051,1.5722 -7.10047,1.7622 -1.68939,0.2414 -4.77079,4.8655 -10.22498,15.3442 -4.29377,8.2492 -8.17326,15.8424 -8.62109,16.8736 -1.75977,4.0525 -3.13922,6.9571 -4.15546,8.75 -0.58452,1.0313 -2.21259,4.4063 -3.61792,7.5 -1.40533,3.0938 -3.73772,8.0216 -5.1831,10.9507 l -2.62797,5.3257 2.7128,2.7128 c 4.27963,4.2796 3.78323,12.5092 -1.26735,21.0108 -6.18301,10.4079 -6.91923,11.5363 -9.28432,14.23 -1.20313,1.3703 -2.1875,3.9603 -2.1875,5.7557 0,1.7954 -0.47693,3.7987 -1.05984,4.4518 -2.68725,3.011 -4.52175,20.7156 -4.20297,40.5625 0.30938,19.2613 0.14405,21.0079 -2.50052,26.4155 -2.79997,5.7255 -2.91484,5.7992 -10.2176,6.5625 -8.5727,0.8961 -30.833462,0.6941 -40.707402,-0.3692 l 0,0 z M 197.4658,431.81061 c 0.39572,-1.03125 1.5809,-1.875 2.63373,-1.875 1.05283,0 1.91423,-0.49491 1.91423,-1.09981 0,-0.6049 3.23437,-3.52493 7.1875,-6.48893 3.95312,-2.96401 7.375,-5.84409 7.60416,-6.40019 0.22918,-0.55608 1.08854,-1.01107 1.9097,-1.01107 0.82118,0 2.39224,-0.98438 3.49126,-2.1875 1.09903,-1.20313 4.85394,-4.15625 8.34425,-6.5625 3.49032,-2.40625 6.37238,-4.79688 6.40458,-5.3125 0.0323,-0.51563 0.68047,-0.9375 1.4406,-0.9375 0.76014,0 2.98935,-1.35245 4.95382,-3.00544 1.96447,-1.65299 4.29567,-3.24845 5.18044,-3.54545 1.83563,-0.6162 -0.18971,-5.30377 -4.10939,-9.51105 -3.52861,-3.78751 -3.3823,-7.11507 0.46998,-10.6891 1.92605,-1.78692 4.01564,-3.24896 4.64352,-3.24896 0.62789,0 1.7437,-1.125 2.47958,-2.5 0.73587,-1.375 1.88496,-2.5 2.55351,-2.5 1.71906,0 17.44649,-15.69521 17.44649,-17.41075 0,-0.77974 0.82234,-1.73328 1.82741,-2.11896 2.83215,-1.08679 3.63818,-5.1874 3.27605,-16.66658 -0.24857,-7.87994 -0.83326,-10.93675 -2.29657,-12.00675 -1.0797,-0.78949 -1.63375,-2.29369 -1.23123,-3.34266 0.86473,-2.25343 -1.30934,-9.07891 -4.38882,-13.77881 -1.20277,-1.83564 -2.18684,-3.90478 -2.18684,-4.59808 0,-2.91442 -5.58153,-12.4379 -7.59879,-12.96544 -2.3498,-0.61448 -4.90121,1.23863 -4.90121,3.5598 0,1.29877 -7.77434,18.08672 -11.84503,25.57823 -0.93392,1.71875 -3.51698,6.78125 -5.74015,11.25 -2.22315,4.46875 -4.73655,8.96875 -5.58533,10 -0.84879,1.03125 -1.79797,3.84375 -2.10928,6.25 -0.31131,2.40625 -1.45687,8.03125 -2.5457,12.5 -1.08882,4.46875 -2.93569,12.0625 -4.10415,16.875 -1.16845,4.8125 -2.55514,11.5625 -3.08151,15 -1.33405,8.712 -6.24439,24.375 -7.64154,24.375 -0.63755,0 -1.64739,1.28406 -2.24409,2.85349 -0.59668,1.56941 -3.11401,5.51177 -5.59405,8.76081 -2.48005,3.24904 -4.50917,6.23751 -4.50917,6.64105 0,0.40355 -1.1633,2.36744 -2.58511,4.36419 -1.42183,1.99675 -2.0445,3.63046 -1.38374,3.63046 0.66075,0 1.52515,-0.84375 1.92089,-1.875 z m 240.14058,-35.9375 c -0.4708,-2.23438 -1.21862,-4.44619 -1.66181,-4.91515 -0.98462,-1.04185 -5.34695,-1.4751 -12.25129,-1.21675 -7.88771,0.29514 -6.03567,3.8865 3.71063,7.19544 11.00082,3.73485 11.20897,3.71315 10.20247,-1.06354 z m -6.91641,-16.875 c -0.0717,-0.91244 -2.53066,-5.71783 -8.44871,-16.5115 -2.8494,-5.19691 -2.9396,-5.24651 -5.43443,-2.98874 -1.43793,1.30131 -3.88876,2.11874 -5.65751,1.88696 -2.51029,-0.32896 -2.9981,0.0394 -2.49426,1.88342 0.34449,1.2608 0.97924,3.97986 1.41056,6.04236 2.11538,10.11526 2.69586,10.625 12.09979,10.625 4.72909,0 8.56515,-0.42188 8.52456,-0.9375 l 0,0 z m 16.69958,-1.25 c -1.58472,-4.35631 -17.57383,-22.28113 -18.79008,-21.06488 -0.54899,0.54899 1.84766,5.128 5.95491,11.37738 1.35553,2.0625 3.31472,5.57812 4.35377,7.8125 1.507,3.24069 2.63642,4.0625 5.58316,4.0625 2.9879,0 3.54189,-0.41814 2.89824,-2.1875 l 0,0 z m 162.59003,-10 c 0.50331,-3.28584 0.33123,-5.3125 -0.45105,-5.3125 -0.69562,0 -1.26477,2.625 -1.26477,5.83334 0,6.9418 0.60069,6.75946 1.71582,-0.52084 z M 406.49926,347.75443 c -1.34436,-1.34436 -2.05806,0.53844 -1.11435,2.93977 0.88525,2.25258 0.95211,2.25648 1.38991,0.0811 0.25296,-1.25694 0.12896,-2.61631 -0.27556,-3.02084 l 0,-5e-5 z M 47.013758,333.68561 c 0,-0.6875 -0.5625,-1.25 -1.25,-1.25 -0.6875,0 -1.25,0.5625 -1.25,1.25 0,0.6875 0.5625,1.25 1.25,1.25 0.6875,0 1.25,-0.5625 1.25,-1.25 z M 196.67522,241.6804 c -0.41537,-0.41537 -1.4935,-0.45977 -2.39584,-0.0986 -0.99716,0.39903 -0.70097,0.69523 0.75522,0.7552 1.3177,0.0542 2.05598,-0.24116 1.64062,-0.65652 l 0,-5e-5 z m 40.21394,-34.20634 c -0.0685,-2.4274 -0.51063,-5.79794 -0.98244,-7.49009 -0.78812,-2.82659 -1.08277,-2.55377 -3.6254,3.35673 -1.52216,3.53835 -2.76756,7.54585 -2.76756,8.90556 0,2.22809 0.37026,2.33242 3.75,1.05672 3.23369,-1.22058 3.73285,-2.02312 3.6254,-5.82892 z m 10.06822,5.27405 c -0.031,-1.20313 -0.8809,-3.875 -1.88863,-5.9375 -1.61739,-3.31026 -1.75937,-3.38355 -1.21069,-0.625 0.34186,1.71875 0.62925,4.39062 0.63864,5.9375 0.01,1.54687 0.57956,2.8125 1.26706,2.8125 0.6875,0 1.22462,-0.98438 1.19362,-2.1875 l 0,0 z m -27.79527,-10.8453 c 0.15035,-0.12225 1.03946,-5.00649 1.97582,-10.85391 0.93635,-5.84743 2.64148,-12.51397 3.78915,-14.81454 1.14768,-2.30056 2.08912,-4.79955 2.09209,-5.5533 0.002,-0.75375 2.2117,-5.72983 4.90826,-11.05795 2.69657,-5.32813 4.58315,-9.6875 4.19242,-9.6875 -2.19739,0 -20.83663,23.0859 -22.22443,27.52639 -0.53262,1.70423 -1.73639,4.20815 -2.67504,5.56425 -2.28096,3.2954 -2.15501,9.48813 0.31872,15.67058 1.70398,4.25869 2.44772,4.93222 4.6875,4.24502 1.46418,-0.44925 2.78517,-0.91682 2.93551,-1.03904 l 0,0 z m -3.07645,-38.8422 c 0.8542,-1.375 2.09931,-2.89129 2.7669,-3.36954 0.66759,-0.47824 0.85222,-1.2311 0.4103,-1.67302 -0.60626,-0.60627 -16.10365,5.81642 -18.24018,7.5594 -0.20133,0.16426 0.46743,2.19641 1.48614,4.5159 1.01871,2.3195 2.22134,5.90476 2.67249,7.96726 0.80831,3.6953 0.8825,3.63149 5.08576,-4.375 2.34603,-4.46875 4.96439,-9.25 5.81859,-10.625 l 0,0 z"
     id="path2987"
     inkscape:connector-curvature="0" />
</svg>
