<?xml version="1.0" encoding="UTF-8" standalone="no"?>
<!-- Created with Inkscape (http://www.inkscape.org/) -->

<svg
   xmlns:dc="http://purl.org/dc/elements/1.1/"
   xmlns:cc="http://creativecommons.org/ns#"
   xmlns:rdf="http://www.w3.org/1999/02/22-rdf-syntax-ns#"
   xmlns:svg="http://www.w3.org/2000/svg"
   xmlns="http://www.w3.org/2000/svg"
   xmlns:sodipodi="http://sodipodi.sourceforge.net/DTD/sodipodi-0.dtd"
   xmlns:inkscape="http://www.inkscape.org/namespaces/inkscape"
   id="svg2"
   version="1.1"
   inkscape:version="0.48.4 r9939"
   width="930.71478"
   height="927.5"
   sodipodi:docname="Remilia.Scarlet.full.1015541.bmp">
  <metadata
     id="metadata8">
    <rdf:RDF>
      <cc:Work
         rdf:about="">
        <dc:format>image/svg+xml</dc:format>
        <dc:type
           rdf:resource="http://purl.org/dc/dcmitype/StillImage" />
        <dc:title></dc:title>
      </cc:Work>
    </rdf:RDF>
  </metadata>
  <defs
     id="defs6" />
  <sodipodi:namedview
     pagecolor="#ffffff"
     bordercolor="#666666"
     borderopacity="1"
     objecttolerance="10"
     gridtolerance="10"
     guidetolerance="10"
     inkscape:pageopacity="0"
     inkscape:pageshadow="2"
     inkscape:window-width="956"
     inkscape:window-height="1041"
     id="namedview4"
     showgrid="false"
     fit-margin-top="0"
     fit-margin-left="0"
     fit-margin-right="0"
     fit-margin-bottom="0"
     inkscape:zoom="0.8"
     inkscape:cx="522.49929"
     inkscape:cy="483.5"
     inkscape:window-x="960"
     inkscape:window-y="18"
     inkscape:window-maximized="0"
     inkscape:current-layer="svg2" />
  <path
     style="fill:#ff0000"
     d="m 314.66103,921.7961 c -3.7188,-5.2546 -4.13595,-6.8544 -5.29643,-20.3125 -1.34384,-15.5846 -0.48652,-25.476 2.83713,-32.7336 1.10196,-2.4062 2.41432,-6.625 2.91636,-9.375 0.50202,-2.75 1.78099,-7.25 2.84212,-10 1.06114,-2.75 1.95404,-7.1152 1.98422,-9.7005 0.0335,-2.8736 1.99811,-8.6356 5.05486,-14.8257 2.75,-5.569 5,-11.3159 5,-12.771 0,-1.4551 0.95132,-7.0727 2.11406,-12.4836 1.74199,-8.1064 2.62198,-10.031 5,-10.9351 1.58726,-0.6035 2.88594,-1.9821 2.88594,-3.0635 0,-1.0815 1.125,-4.2949 2.5,-7.1408 1.375,-2.8459 2.5,-5.9488 2.5,-6.8954 0,-0.9465 1.03949,-4.3565 2.30999,-7.5777 3.59436,-9.11311 5.27462,-13.9966 7.60631,-22.1067 1.18595,-4.125 2.56184,-8.73486 3.05752,-10.24412 0.78549,-2.39169 0.3465,-2.84821 -3.41793,-3.55442 -5.77668,-1.08371 -18.74435,-12.51476 -17.89249,-15.7723 0.34284,-1.31102 -0.30613,-2.99946 -1.48979,-3.87604 -2.91629,-2.15967 -10.17361,-11.62344 -10.17361,-13.26668 0,-2.60315 -6.1131,-5.46597 -10.31015,-4.82833 -4.39603,0.66788 -8.43985,-0.81321 -8.43985,-3.09116 0,-0.78105 0.93405,-2.45221 2.07567,-3.71369 1.14162,-1.26147 1.84474,-2.43076 1.5625,-2.59842 -0.28225,-0.16767 -2.20067,-1.23313 -4.26317,-2.36772 -6.66004,-3.66368 -9.78235,-11.17431 -10.56296,-25.40888 l -0.68704,-12.52824 -6.875,0.40025 c -6.30258,0.36692 -7.29218,0.0421 -11.88546,-3.90136 -6.38773,-5.48405 -10.61454,-13.87564 -10.61454,-21.0733 0,-6.64094 1.60391,-8.55059 7.18164,-8.55059 4.17552,0 4.18018,-0.006 3.1875,-4.6875 -1.62372,-7.656 -0.96229,-20.5601 1.2654,-24.6875 3.99758,-7.40665 3.8331,-7.32494 9.21702,-4.57828 2.71738,1.38632 5.67505,3.40542 6.57261,4.48692 1.94673,2.34565 7.14434,2.52908 10.92158,0.38544 1.49641,-0.84924 5.15266,-2.96567 8.125,-4.70317 2.97234,-1.73751 7.77467,-3.86341 10.67185,-4.72422 4.94532,-1.46939 5.19387,-1.75905 4.0625,-4.73479 -2.1877,-5.75406 -1.42188,-10.48244 2.30069,-14.205 2.51537,-2.51538 3.24647,-4.16561 2.58786,-5.84135 -1.16254,-2.95789 -1.33345,-12.69903 -0.3124,-17.8043 0.729,-3.64503 1.1391,-3.90625 6.1325,-3.90625 5.2278,0 5.39562,-0.13024 7.27481,-5.64535 1.81565,-5.32866 4.60109,-9.35465 6.47215,-9.35465 0.46161,0 2.79179,1.9525 5.17819,4.3389 4.01676,4.01676 4.77312,4.28861 10.1875,3.6615 3.21672,-0.37256 9.82232,-1.9032 14.67909,-3.4014 9.21371,-2.84221 9.93475,-3.61681 14.75301,-15.849 2.42061,-6.14525 14.69769,-23.39681 22.58224,-31.73221 3.82758,-4.04648 6.95926,-8.39735 6.95926,-9.66862 0,-4.52702 6.22969,-23.11286 10.57915,-31.56216 2.43146,-4.7234 4.43049,-10.3484 4.44227,-12.5 0.0113,-2.15161 1.11434,-8.12096 2.45014,-13.26522 2.10185,-8.09444 2.18308,-9.49069 0.60358,-10.37462 -1.00383,-0.56177 -1.82514,-2.12916 -1.82514,-3.4831 0,-2.77731 -1.53683,-2.62857 -13.75,1.33077 -13.51461,4.38126 -21.74049,5.28881 -27.40254,3.02331 -2.8036,-1.12178 -5.09746,-2.55915 -5.09746,-3.19415 0,-0.63501 -0.98438,-1.55831 -2.1875,-2.05178 -1.20313,-0.49347 -7.10429,-4.1316 -13.1137,-8.08472 -6.00941,-3.95313 -11.16553,-7.1875 -11.45801,-7.1875 -0.2925,0 -6.06322,-3.13911 -12.8238,-6.97581 -15.78024,-8.95544 -19.07859,-10.27552 -22.91699,-9.17189 -1.71875,0.49417 -5.09838,0.95457 -7.51028,1.0231 -8.72508,0.24791 -36.96386,11.95584 -42.48972,17.61644 -0.52709,0.53995 -10.71868,7.55455 -17.26516,11.88316 -1.03975,0.6875 -2.8002,2.11037 -3.91209,3.16194 -1.11189,1.05156 -4.67688,3.81878 -7.92219,6.1494 -3.24531,2.3306 -5.90056,4.70461 -5.90056,5.27556 0,0.57095 -0.82396,1.0381 -1.83103,1.0381 -1.00706,0 -2.4331,1.125 -3.16897,2.5 -0.73588,1.375 -1.90498,2.5 -2.598,2.5 -1.78994,0 -15.76676,14.60342 -17.76985,18.56651 -0.91974,1.81966 -2.33823,4.57411 -3.1522,6.12099 -0.81398,1.54687 -2.04245,3.9375 -2.72995,5.3125 l -2.5,5 -2.5,5 c -0.6875,1.375 -1.74839,3.48437 -2.35753,4.6875 -8.60122,16.98857 -13.65098,45.46095 -14.02225,79.0625 l -0.11737,10.625 -1.7787,-5.625 c -1.79879,-5.68847 -5.92414,-33.15033 -7.44295,-49.54654 -0.45454,-4.90685 -1.74706,-11.00821 -2.87229,-13.55859 l -2.04586,-4.63705 -3.87624,4.82348 c -4.96255,6.17522 -8.73345,21.7553 -16.58985,68.5437 -1.38529,8.25 -3.67255,21.84187 -5.08282,30.20417 -1.41029,8.36229 -2.56414,17.22003 -2.56414,19.68387 0,2.46382 -1.09146,11.0907 -2.42546,19.17082 -3.44485,20.86554 -4.92162,39.43997 -6.48494,81.56614 -2.57013,69.2562 0.50669,159.238 6.38995,186.875 0.73176,3.4375 1.63114,8.5 1.9986,11.25 0.66186,4.9532 0.63361,4.9298 -3.01736,-2.5 -6.40458,-13.0334 -13.96079,-32.5266 -13.96079,-36.0155 0,-1.4064 -1.0731,-6.2533 -2.38468,-10.7708 -1.31157,-4.5175 -3.61208,-13.5574 -5.11226,-20.0887 -3.24307,-14.1193 -6.72055,-27.6065 -9.99109,-38.75 -1.31155,-4.4688 -2.62765,-9.5313 -2.92467,-11.25 -0.29702,-1.7188 -1.39638,-5.6563 -2.44301,-8.75 -1.04663,-3.09375 -3.03641,-9.5625 -4.42172,-14.375 -5.36139,-18.62516 -6.42888,-21.9717 -9.64177,-30.2265 -2.90311,-7.45889 -8.53627,-19.73021 -11.65921,-25.3985 -0.56816,-1.03125 -1.73585,-3.21769 -2.59485,-4.85876 -0.85901,-1.64106 -2.72211,-5.01607 -4.14023,-7.5 -1.41812,-2.48393 -3.20777,-5.64124 -3.97699,-7.01624 -4.50777,-8.05769 -8.80697,-13.44548 -15.28568,-19.15611 -7.635375,-6.73017 -11.224643,-7.95678 -12.52807,-4.28139 -0.426673,1.20312 -1.470124,3.03125 -2.31878,4.0625 -0.848656,1.03125 -3.219014,5.04727 -5.267463,8.9245 -2.048447,3.87723 -4.643592,8.36176 -5.766988,9.96564 -1.123397,1.60386 -2.042539,3.72788 -2.042539,4.72004 0,0.99215 -2.194373,7.75761 -4.876383,15.03436 -8.131257,22.06148 -10.110477,36.45776 -10.453478,76.03556 -0.162327,18.7303 -0.717014,34.0584 -1.232639,34.0625 -0.515625,0 -0.9375,-1.3089 -0.9375,-2.9176 0,-1.6088 -1.125,-7.3238 -2.5,-12.7 -1.375,-5.3762 -2.5087868,-12.3568 -2.5195258,-15.5124 -0.01074,-3.1557 -0.865456,-9.1126 -1.89937,-13.2376 -1.033914,-4.125 -2.396242,-12 -3.027395,-17.5 -0.631153,-5.5 -2.006813,-14.5 -3.05702,-20 -2.81150196,-14.724 -2.62246996,-45.17241 0.375156,-60.42865 1.304515,-6.63924 3.626806,-19.38385 5.160648,-28.32135 1.533841,-8.9375 3.8415108,-20.56247 5.1281538,-25.83326 1.286644,-5.2708 2.339353,-11.04829 2.339353,-12.83887 0,-1.79057 1.182004,-7.6031 2.626674,-12.91672 1.444671,-5.31364 3.696452,-13.59865 5.003958,-18.41115 1.307508,-4.8125 2.375504,-10.00424 2.373327,-11.5372 -0.0021,-1.53296 0.77641,-4.90796 1.730192,-7.5 0.953784,-2.59204 3.263684,-9.7753 5.133113,-15.9628 4.095885,-13.55671 7.637696,-23.34063 10.789732,-29.80562 1.288653,-2.64311 2.343004,-5.37059 2.343004,-6.06109 0,-0.69052 0.818612,-3.02798 1.819139,-5.19438 1.000526,-2.1664 2.629086,-6.18891 3.619021,-8.93891 0.989934,-2.75 3.042762,-8.09375 4.56184,-11.875 1.519077,-3.78125 3.571906,-9.125 4.56184,-11.875 0.98993,-2.75 2.61849,-6.77251 3.61902,-8.93891 1.00053,-2.1664 1.81914,-4.54198 1.81914,-5.27907 0,-0.73707 1.08877,-3.74582 2.41949,-6.68608 1.33072,-2.94027 3.65695,-8.72094 5.1694,-12.84594 1.51244,-4.125 3.72244,-9.75 4.91111,-12.5 1.18866,-2.75 3.40474,-8.375 4.92462,-12.5 3.35583,-9.10785 7.07639,-18.2542 10.22524,-25.13691 1.29258,-2.8253 2.34858,-5.6378 2.34667,-6.25 -0.002,-0.6122 1.07179,-3.36309 2.386,-6.11309 1.31422,-2.75 3.66105,-8.09375 5.21519,-11.875 3.77171,-9.17665 7.77285,-17.3248 14.42454,-29.375 3.03599,-5.5 6.63805,-12.25 8.00456,-15 4.85875,-9.77784 12.54282,-23.69464 13.74862,-24.90044 0.67351,-0.67351 1.22456,-2.23706 1.22456,-3.47456 0,-1.2375 0.50142,-2.25 1.11427,-2.25 0.61285,0 2.04353,-2.10938 3.17927,-4.6875 3.10961,-7.05878 12.36767,-23.76166 14.14396,-25.51776 0.85937,-0.8496 1.5625,-2.0068 1.5625,-2.57154 0,-1.07255 6.27909,-11.13636 7.62639,-12.2232 0.42612,-0.34375 1.71412,-2.3125 2.86221,-4.375 1.14809,-2.0625 3.17946,-5.4375 4.51419,-7.5 1.33471,-2.0625 3.70822,-5.93565 5.27447,-8.607 1.56626,-2.67135 3.41024,-5.77305 4.09774,-6.89266 0.6875,-1.11962 2.62656,-4.27772 4.30901,-7.018 1.68246,-2.74029 3.40028,-5.26359 3.81736,-5.60734 0.41708,-0.34375 4.77668,-6.8125 9.68798,-14.375 4.91131,-7.5625 9.46176,-14.3653 10.11214,-15.11735 0.65036,-0.75204 2.10318,-3.00204 3.22851,-5 4.76306,-8.45664 15.98236,-24.71303 17.86255,-25.88226 0.8841,-0.54979 1.60745,-1.76854 1.60745,-2.70834 0,-0.93979 0.42187,-1.89622 0.9375,-2.12538 0.51562,-0.22917 4.00782,-4.07292 7.76045,-8.54167 3.75262,-4.46875 9.94012,-11.41501 13.75,-15.43614 C 277.71063,69.42692 277.39613,69.76896 294.97451,50 c 6.41885,-7.21875 17.06595,-18.59955 23.66022,-25.29066 6.59426,-6.69111 12.60875,-12.87861 13.36553,-13.75 C 339.09054,2.79535 344.5996,0 353.5989,0 c 6.70631,0 7.68925,0.33042 9.14468,3.07407 0.8969,1.69074 4.53546,8.06999 8.08571,14.1761 9.75632,16.77998 12.2117,27.52227 9.05706,39.62483 -0.7168,2.75 -1.76537,7.17786 -2.33016,9.8397 -0.56479,2.66183 -1.56818,5.19308 -2.22976,5.625 -0.66158,0.43191 -1.85643,2.02672 -2.6552,3.54401 -1.84895,3.51212 -8.8825,4.95369 -13.94278,2.85766 -5.18389,-2.14724 -4.65557,-3.52981 1.52163,-3.982 7.40963,-0.5424 10.35195,-5.68897 10.20875,-17.85671 -0.118,-10.02321 -2.3613,-16.3377 -7.49564,-21.09853 -4.71733,-4.37415 -9.48975,-4.3232 -12.49248,0.13337 -6.06533,9.00204 -11.93076,21.15393 -15.23446,31.5625 -6.16207,19.41408 -7.73696,24.81152 -7.73696,26.51608 0,0.99709 -1.06039,5.42325 -2.35641,9.83591 -1.29602,4.41265 -3.51662,13.64801 -4.93465,20.52301 -1.41803,6.875 -3.73265,17.94947 -5.14359,24.60992 -1.41094,6.66047 -2.56535,13.77043 -2.56535,15.79992 0,2.02947 -1.15403,9.23626 -2.56451,16.01506 -3.68993,17.73384 -3.80623,32.1005 -0.3232,39.92549 1.5055,3.38228 4.24781,10.08711 6.09402,14.89961 4.2817,11.16106 10.14908,22.9565 17.40998,35 1.65793,2.75 3.42212,5.84375 3.9204,6.875 0.49827,1.03125 1.23181,2.15625 1.63008,2.5 0.39828,0.34375 2.6893,3.34837 5.09118,6.67694 2.40187,3.32856 5.35142,6.9692 6.55455,8.0903 1.20312,1.1211 2.1875,2.44912 2.1875,2.95117 0,1.32143 17.89482,20.37975 27.37661,29.15659 4.45631,4.125 10.4884,9.80876 13.40465,12.63057 8.56106,8.28387 12.4041,9.52014 31.75756,10.21614 l 17.0288,0.61241 2.54472,-5.47956 c 1.3996,-3.01376 2.94041,-7.65179 3.42403,-10.30672 0.48362,-2.65494 2.24828,-6.19613 3.92147,-7.86932 3.64421,-3.64421 3.7414,-4.17852 0.76005,-4.17852 -3.97947,0 -9.4568,-7.79691 -10.9067,-15.52551 -1.03244,-5.50339 -3.13189,-5.25227 -5.17814,0.6194 l -1.49195,4.28111 -0.0705,-4.02328 c -0.0534,-3.04691 -0.52556,-3.84866 -1.94555,-3.30376 -1.03125,0.39574 -1.875,0.0969 -1.875,-0.66422 -5e-5,-0.76107 0.55602,-1.38374 1.23566,-1.38374 1.82199,0 6.26429,-4.07741 6.26429,-5.74975 0,-0.79428 -0.84375,-2.14439 -1.875,-3.00025 -2.6687,-2.21483 -2.42716,-11.93344 0.39906,-16.05704 2.02933,-2.96086 6.47594,-15.13987 6.47594,-17.73719 0,-0.55392 -1.82813,-1.40302 -4.0625,-1.88687 -2.23438,-0.48386 -5.55559,-1.9348 -7.38046,-3.22433 -1.82488,-1.28951 -3.653,-2.34457 -4.0625,-2.34457 -0.4095,0 -0.78408,5.20312 -0.8324,11.5625 -0.0484,6.35937 -0.57128,12.6875 -1.16214,14.0625 -0.95419,2.22052 -1.08411,2.2482 -1.16214,0.24765 -0.0484,-1.2388 -1.2952,-4.35015 -2.77082,-6.91411 -2.42175,-4.20787 -3.54753,-4.87267 -11.5625,-6.8279 -4.88375,-1.19138 -9.82219,-2.15815 -10.97432,-2.14839 -1.16253,0.01 -4.53692,-3.4591 -7.5823,-7.79475 -4.84748,-6.90131 -5.91527,-7.76848 -9.15521,-7.43506 -2.01724,0.20758 -4.37084,1.29947 -5.23021,2.42641 -1.39474,1.82897 -1.5625,1.74822 -1.5625,-0.75201 0,-3.39579 3.05225,-9.57655 5.26626,-10.66413 1.96403,-0.96477 6.43766,-3.89465 13.69064,-8.96631 3.0114,-2.10573 8.39249,-5.19948 11.95795,-6.875 6.38149,-2.99885 8.27067,-4.9214 4.83601,-4.9214 -1.83571,0 -2.80529,-4.83184 -4.02917,-20.0792 -0.65704,-8.18551 -0.64774,-8.21469 4.08593,-12.8125 2.60947,-2.53456 5.20732,-4.6083 5.77299,-4.6083 0.56568,0 2.34499,-1.26563 3.95404,-2.8125 5.76296,-5.54029 6.96831,-16.83265 2.20151,-20.625 -3.86845,-3.07765 1.41868,-1.60948 7.88884,2.19062 3.4375,2.01894 8.35937,4.82435 10.9375,6.23424 2.57812,1.4099 4.6875,3.11451 4.6875,3.78804 0,0.67354 0.73921,1.2246 1.64269,1.2246 0.90347,0 4.40448,3.65625 7.78001,8.125 3.37552,4.46875 6.43895,8.125 6.80759,8.125 0.36863,0 2.18683,-1.40625 4.04042,-3.125 1.8536,-1.71875 3.83221,-3.125 4.39694,-3.125 0.56471,0 1.8801,-0.98438 2.92309,-2.1875 1.96001,-2.26094 11.7056,-5.69475 29.62921,-10.43971 8.52075,-2.25572 12.35171,-2.60863 21.72535,-2.00133 10.62721,0.6885 12.34171,1.20926 25.90506,7.86846 7.98855,3.92215 16.01773,8.17268 17.8426,9.44563 1.82488,1.27295 4.2155,2.31445 5.3125,2.31445 1.097,0 1.99454,0.44122 1.99454,0.98049 0,0.53927 1.70826,1.98958 3.79614,3.22292 2.08787,1.23334 5.18556,4.44344 6.88376,7.13355 2.66175,4.21649 2.93232,5.58226 1.96174,9.90208 -0.96574,4.29813 -0.82873,5.01096 0.9631,5.01096 1.14895,0 3.27886,-0.83341 4.73313,-1.85203 3.75698,-2.63148 5.99584,0.22367 4.87217,6.21333 -1.40569,7.493 1.07145,4.8146 3.04505,-3.29244 2.10205,-8.6347 4.76587,-11.3439 8.72363,-8.87225 1.36804,0.85436 4.18249,1.55339 6.25432,1.55339 2.07182,0 3.76696,0.4495 3.76696,0.99889 0,0.54938 2.00547,1.72407 4.4566,2.61042 2.45114,0.88634 4.79266,2.54621 5.20341,3.6886 0.41074,1.1424 1.78026,3.57018 3.0434,5.39505 1.26313,1.82488 2.3091,4.07488 2.32439,5 0.0153,0.92513 1.12777,3.08829 2.4722,4.80704 1.34442,1.71875 2.45691,3.88002 2.4722,4.80284 0.0152,0.92281 1.1528,3.10805 2.5278,4.85607 1.375,1.74803 2.49095,4.64925 2.47987,6.44716 -0.0198,3.21024 2.98973,17.86732 7.47265,36.39393 1.24767,5.15625 2.92504,12.17191 3.72749,15.59035 0.80246,3.41844 1.69144,6.44776 1.97549,6.73182 1.83827,1.83827 14.3445,-12.12111 14.3445,-16.01125 0,-0.75 1.08842,-5.4299 2.41874,-10.39977 4.71855,-17.62801 5.36697,-22.57778 5.25095,-40.08289 -0.121,-18.2455 -2.38654,-34.23762 -5.78015,-40.80014 -1.03924,-2.00968 -1.88954,-4.32342 -1.88954,-5.14163 0,-0.81822 -1.06851,-3.79928 -2.37448,-6.62458 -5.0832,-10.99695 -30.48762,-61.65437 -33.29267,-66.38691 -1.62996,-2.75 -3.37291,-5.84375 -3.8732,-6.875 -0.94528,-1.94848 -6.62369,-10.9419 -8.28708,-13.125 -0.52382,-0.6875 -2.61383,-3.5 -4.64447,-6.25 -6.39554,-8.66122 -8.00021,-10.60677 -14.18265,-17.19539 -7.1544,-7.62445 -8.11663,-7.38683 -13.74095,3.39325 -5.1162,9.80616 -6.09836,20.43328 -2.2446,24.28703 1.45205,1.45206 3.83397,2.64011 5.29315,2.64011 2.21655,0 2.39704,0.3085 1.09695,1.875 -4.0448,4.87368 -13.7084,0.81228 -17.22034,-7.23733 -2.30507,-5.28339 -3.08166,-18.98532 -1.76797,-31.19351 1.0741,-9.98171 1.58573,-11.43058 5.89235,-16.68622 C 593.10991,41.40815 595.04734,40 600.11086,40 c 6.38539,0 21.69748,7.44414 26.76343,13.01133 0.6875,0.75553 4.34375,3.89495 8.125,6.97649 3.78125,3.08155 7.15625,5.89953 7.5,6.26218 0.34375,0.36265 3.71875,3.18036 7.5,6.26157 3.78125,3.0812 7.52791,6.16722 8.3259,6.85781 0.798,0.69059 3.82522,3.22437 6.72716,5.63062 2.90194,2.40625 6.74903,5.66956 8.54909,7.2518 1.80007,1.58224 6.78847,5.75858 11.08535,9.28076 4.29687,3.52218 7.8125,6.86824 7.8125,7.4357 0,0.56746 0.82396,1.03174 1.83102,1.03174 1.00707,0 2.4331,1.125 3.16898,2.5 0.73587,1.375 2.16191,2.5 3.16897,2.5 1.00707,0 1.83103,0.43898 1.83103,0.97552 0,0.53653 4.35937,4.61082 9.6875,9.05398 5.32812,4.44315 10.30316,8.6448 11.05565,9.33697 0.75249,0.69219 3.79709,3.22728 6.76579,5.63353 9.37948,7.60244 18.76016,17.55965 28.8518,30.625 3.71716,4.8125 7.18165,8.9375 7.69886,9.16666 0.51722,0.22918 0.9404,1.1856 0.9404,2.12539 0,0.9398 0.71102,2.15855 1.58004,2.70834 0.86902,0.54978 3.77502,4.23398 6.45777,8.18711 2.68275,3.95312 5.34674,7.1875 5.91996,7.1875 0.57323,0 1.04223,0.57136 1.04223,1.2697 0,1.18234 9.15269,14.5789 12.76542,18.68444 0.88527,1.00602 2.17208,2.78461 2.85958,3.95241 0.6875,1.16779 3.07812,4.73225 5.3125,7.92102 2.23437,3.18877 4.0625,6.33205 4.0625,6.98509 0,0.65304 0.49841,1.18734 1.10757,1.18734 0.60917,0 2.00504,1.89126 3.10193,4.2028 1.0969,2.31154 2.8485,4.91166 3.89244,5.77805 1.04393,0.8664 1.89806,2.09262 1.89806,2.72496 0,0.63234 0.59585,1.82909 1.32412,2.65945 0.72827,0.83035 2.55639,3.44413 4.0625,5.80836 1.5061,2.36425 4.01373,6.30175 5.57249,8.75 1.55876,2.44827 3.39819,5.57638 4.0876,6.95138 0.68941,1.375 2.90866,5.03125 4.93166,8.125 2.02302,3.09375 4.48557,7.38446 5.47237,9.5349 0.9868,2.15045 2.41407,4.29302 3.17172,4.76127 0.75764,0.46825 1.37754,1.8963 1.37754,3.17343 0,1.27714 0.49955,2.50956 1.11011,2.73874 0.61055,0.22916 2.15743,2.52023 3.4375,5.09127 1.28006,2.57104 6.91355,13.82104 12.51885,25 5.60531,11.17896 13.09249,26.51289 16.63818,34.07539 3.5457,7.5625 6.97516,14.73437 7.62103,15.9375 2.40398,4.47806 12.37942,25.48272 15.87999,33.4375 1.36144,3.09375 3.46488,7.875 4.67431,10.625 1.20945,2.75 2.92123,7.53125 3.80397,10.625 0.88273,3.09375 2.1869,7.3125 2.89812,9.375 4.94829,14.34949 10.02381,37.28599 11.53394,52.1223 4.65624,45.74566 4.31872,59.94992 -2.7387,115.25839 -1.30751,10.24688 -2.37818,21.49688 -2.37924,25 -0.003,9.87069 -6.75439,45.22061 -12.55632,65.74431 -1.2633,4.46875 -3.52647,12.625 -5.02928,18.125 -1.50281,5.5 -3.17849,11.40625 -3.72374,13.125 -1.85845,5.85829 -1.3205,-1.28986 1.42088,-18.8802 2.37684,-15.25121 2.55109,-20.36841 1.95357,-57.3698 -0.36081,-22.34375 -1.26611,-45.125 -2.01176,-50.625 -0.74566,-5.5 -1.84451,-15.35472 -2.4419,-21.89939 -1.24472,-13.63657 -4.20071,-30.3014 -7.6959,-43.38676 -1.32749,-4.96988 -2.41182,-10.03238 -2.40965,-11.25 0.005,-3.0017 -4.72282,-19.60476 -7.63792,-26.82058 -1.30133,-3.2212 -2.36604,-6.72593 -2.36604,-7.78831 0,-4.28066 -10.24319,-22.90154 -15.74046,-28.61424 -3.18047,-3.3051 -6.11392,-5.67801 -6.51879,-5.27313 -0.40488,0.40486 -0.0354,4.79653 0.82114,9.75926 3.46347,20.06816 4.45646,42.78932 2.89995,66.35547 -0.82344,12.46723 -2.17415,25.48018 -3.00159,28.91768 l -1.50441,6.25 -0.98343,-15 c -0.54087,-8.25 -1.89794,-21.75 -3.0157,-30 -1.11775,-8.25 -2.41371,-18.375 -2.8799,-22.5 -0.46619,-4.125 -1.84924,-10.875 -3.07344,-15 -1.2242,-4.125 -3.33645,-11.4375 -4.69388,-16.25 -5.40364,-19.15748 -7.71192,-26.47983 -9.9602,-31.59594 -1.29212,-2.94026 -2.34929,-5.92056 -2.34929,-6.62289 0,-0.70231 -1.125,-3.60542 -2.5,-6.45135 -1.375,-2.84591 -2.5,-5.89745 -2.5,-6.78117 0,-0.88373 -1.06518,-4.01245 -2.36706,-6.95271 -1.30188,-2.94027 -3.60192,-8.43969 -5.1112,-12.22094 -1.50928,-3.78125 -3.8191,-8.95519 -5.13294,-11.49765 -1.31384,-2.54245 -2.3888,-5.17219 -2.3888,-5.84385 0,-0.67168 -3.43931,-7.27935 -7.64293,-14.68373 -4.20361,-7.40438 -9.40673,-16.77935 -11.5625,-20.83326 -6.39822,-12.03184 -6.06148,-11.54096 -14.2333,-20.74867 l -4.8654,-5.48217 -2.09793,4.42108 c -1.32502,2.79226 -2.10142,7.57514 -2.10738,12.98216 -0.009,8.44921 -1.77401,22.44666 -3.44319,27.31109 -0.59796,1.74266 -1.10111,0.41732 -1.66091,-4.375 -1.97647,-16.92029 -3.68901,-26.30989 -5.61607,-30.79209 -8.36949,-19.46681 -14.67707,-30.79815 -20.47415,-36.78115 -3.46293,-3.57399 -6.29624,-6.75036 -6.29624,-7.05861 0,-1.11466 -7.33848,-7.86815 -8.54968,-7.86815 -0.6831,0 -1.45503,-0.63914 -1.71542,-1.4203 -1.09799,-3.29398 -10.33811,4.67551 -11.79181,10.1703 -0.45472,1.71875 -1.86543,5.08542 -3.13493,7.48149 -1.26949,2.39607 -2.30816,5.12173 -2.30816,6.05703 0,0.9353 -1.04298,3.19364 -2.31771,5.01852 -1.27475,1.82487 -2.70102,4.9019 -3.16949,6.83783 -0.55461,2.29188 -2.25356,4.17524 -4.86979,5.3984 -2.20991,1.03319 -6.26801,3.23425 -9.01801,4.89125 -2.75,1.657 -6.7673,3.94353 -8.92734,5.08117 -3.6034,1.89782 -3.83537,2.38903 -2.8125,5.95561 1.78205,6.21361 1.25154,13.48144 -1.41261,19.3527 -1.3599,2.99696 -2.47255,5.9251 -2.47255,6.50699 0,1.60966 -6.2112,10.41857 -8.08863,11.47155 -0.90957,0.51013 -3.66241,0.0882 -6.11742,-0.9375 -2.45501,-1.02578 -5.40449,-1.86504 -6.55439,-1.86504 -1.1499,0 -4.6836,-1.20248 -7.85265,-2.67216 -3.16905,-1.46969 -8.01191,-3.64073 -10.76191,-4.82453 -2.75,-1.18381 -7.25,-3.18067 -10,-4.43749 -9.43555,-4.31227 -13.66743,-5.5234 -14.92065,-4.27017 -1.52558,1.52557 -6.95435,1.58129 -6.95435,0.0714 0,-0.62313 -1.0675,-0.85382 -2.37221,-0.51262 -1.30472,0.34119 -3.60074,-0.0371 -5.10228,-0.84075 -2.70269,-1.44643 -2.72102,-1.388 -1.82796,5.82514 0.49616,4.00741 1.66719,9.46631 2.60227,12.13087 0.9351,2.66456 1.70018,6.37425 1.70018,8.24376 0,1.86952 1.125,4.41722 2.5,5.66158 1.375,1.24436 2.5,3.31794 2.5,4.60796 0,3.5582 2.48816,3.81653 10.43291,1.08313 6.3979,-2.2012 16.1551,-8.43112 18.54008,-11.83773 0.54513,-0.77866 1.88437,-0.76259 3.75,0.045 1.666,0.72119 5.03158,0.8547 7.90201,0.31348 2.75,-0.51853 7.52037,-0.97519 10.60084,-1.01482 4.88976,-0.0629 14.83306,-3.04493 21.5697,-6.46885 1.1938,-0.60675 2.97505,-1.10318 3.95833,-1.10318 0.98329,0 2.00018,-0.63714 2.25975,-1.41588 0.84082,-2.52245 5.71285,0.12088 8.29772,4.50183 l 2.49286,4.2251 -4.2771,-0.69408 c -3.03499,-0.4925 -4.2771,-0.22139 -4.2771,0.93356 0,0.89519 -0.86216,2.5803 -1.91593,3.7447 -2.1712,2.39915 -6.25637,17.19914 -5.07381,18.3817 0.4254,0.42542 12.87501,0.67944 27.66579,0.5645 31.08392,-0.24153 27.99807,-1.7324 30.54799,14.75858 2.17143,14.04329 2.25412,15 1.29636,15 -0.48561,0 -1.90104,-1.125 -3.1454,-2.5 -1.24436,-1.375 -3.04145,-2.5 -3.99354,-2.5 -0.95207,0 -3.98985,-1.15235 -6.7506,-2.56079 l -5.01955,-2.56077 -9.54579,5.99827 c -5.25018,3.29906 -12.34106,8.76254 -15.75751,12.14106 l -6.21171,6.14277 -5.73565,-1.5203 c -3.15461,-0.83618 -7.02404,-2.8973 -8.59874,-4.58028 -1.5747,-1.68297 -3.54345,-3.07905 -4.375,-3.10237 -0.83155,-0.0233 -3.76191,-1.12924 -6.51191,-2.45759 -5.76096,-2.78274 -20.68278,-3.5696 -16.38451,-0.86399 1.30101,0.81894 5.63268,4.72336 9.62595,8.67649 3.99325,3.95312 7.71003,7.20957 8.25951,7.23655 3.56629,0.17506 29.75874,39.75246 35.71636,53.96825 0.7977,1.90342 3.09189,4.0255 5.22718,4.83501 16.97296,6.43465 35.93335,19.00756 40.60532,26.92598 2.20469,3.73666 2.89123,4.14053 5.06288,2.9783 1.38177,-0.7395 2.51231,-1.88725 2.51231,-2.55057 0,-3.21311 6.23234,-0.76315 11.52667,4.53118 5.82664,5.82664 8.16928,11.81316 6.58099,16.81744 -0.65011,2.04831 -0.17994,2.44536 2.89565,2.44536 3.27565,0 3.8388,0.5965 5.21981,5.52901 1.42793,5.10004 1.2983,6.04563 -1.67073,12.1875 -1.77032,3.66218 -4.43742,8.1585 -5.92689,9.99185 l -2.70813,3.33336 2.76827,4.47914 c 3.19575,5.17083 4.20533,5.3746 9.78207,1.97446 2.25099,-1.37245 4.89738,-2.49535 5.88086,-2.49535 2.26094,0 3.66273,7.09832 2.84118,14.3871 -0.44941,3.98713 0.0198,6.52919 1.72124,9.32712 2.99697,4.92814 2.94255,6.74654 -0.37883,12.65614 -3.25809,5.79699 -9.82587,10.3999 -16.65716,11.67388 -6.11314,1.14006 -14.67881,4.93451 -16.73666,7.41409 -1.26568,1.52503 -0.77623,2.1012 2.92058,3.43798 3.81408,1.37919 4.44108,2.16433 4.44108,5.56123 0,2.17542 -1.125,5.38552 -2.5,7.13355 -1.375,1.74802 -2.5,3.79263 -2.5,4.54357 0,0.75094 -0.54059,1.36534 -1.2013,1.36534 -0.66073,0 -2.2076,1.07546 -3.4375,2.38992 -1.22991,1.31447 -5.62501,3.26575 -9.76689,4.3362 -6.67534,1.72522 -8.30809,1.73941 -14.375,0.12488 -7.35447,-1.95713 -26.90572,-2.52423 -27.96447,-0.81113 -0.35349,0.57195 -0.12642,6.05633 0.5046,12.1875 2.32433,22.58395 4.98716,51.46418 5.78202,62.71013 0.44948,6.3593 1.29146,11.5625 1.87109,11.5625 1.35155,0 0.38379,54.1958 -1.26114,70.625 -2.35429,23.5142 -4.95627,36.0357 -7.96621,38.3357 -8.24924,6.3033 -31.85265,3.7932 -37.04021,-3.939 -1.16113,-1.7307 -2.82183,-5.2331 -3.69045,-7.783 -1.84997,-5.4308 -0.55909,-8.169 6.47137,-13.7269 2.33983,-1.8498 4.56423,-4.6623 4.94311,-6.25 0.37889,-1.5878 2.47744,-7.6681 4.66344,-13.5118 2.18601,-5.8438 4.52248,-13.4375 5.19213,-16.875 0.66966,-3.4375 1.73682,-6.7844 2.37148,-7.4375 1.77892,-1.8307 1.36695,-5.3383 -0.72107,-6.1396 -1.03125,-0.3957 -1.875,-1.8357 -1.875,-3.1999 0,-1.3642 -0.6452,-3.8965 -1.43378,-5.6272 -1.1047,-2.4245 -1.0722,-3.5825 0.14163,-5.0451 0.86649,-1.044 2.15621,-1.5392 2.86609,-1.1005 0.84566,0.5226 0.98527,-0.4518 0.40493,-2.8263 -0.48716,-1.9932 -1.18107,-4.8433 -1.54203,-6.3337 -0.46019,-1.9001 0.1235,-3.1272 1.95342,-4.1065 3.17776,-1.7007 3.40724,-7.1455 0.77206,-18.3192 -0.99038,-4.19954 -2.34282,-11.00169 -3.0054,-15.11593 -1.59791,-9.92205 -3.78662,-17.87357 -4.91985,-17.87357 -1.44432,0 -12.73707,10.71311 -12.73707,12.08331 0,0.677 -1.38353,2.53066 -3.0745,4.11925 -3.93554,3.69724 -12.44034,4.03065 -14.95881,0.58643 -4.20535,-5.75114 -22.52687,-5.98969 -33.64732,-0.43808 -2.6431,1.3195 -5.51078,2.39909 -6.37266,2.39909 -0.86186,0 -2.59705,2.28417 -3.85596,5.07595 -3.15049,6.98654 -5.42299,7.93856 -13.01891,5.45406 -5.84348,-1.91131 -10.62228,-5.78936 -20.15108,-16.35284 -1.76234,-1.9537 -4.93279,-4.53058 -7.04545,-5.72642 -3.38037,-1.91343 -4.02597,-1.9516 -5.38154,-0.31825 -0.84718,1.0208 -3.70576,2.50478 -6.35238,3.29773 -5.56908,1.66853 -9.20993,-0.16974 -7.98432,-4.03131 0.56013,-1.76479 -0.27797,-2.52187 -3.89835,-3.52151 -2.53653,-0.70037 -5.91005,-2.49297 -7.4967,-3.98355 -2.06662,-1.94149 -3.52328,-2.40901 -5.13592,-1.64841 -1.2381,0.58395 -5.73788,1.07699 -9.9995,1.09564 -7.33875,0.0321 -7.97548,0.28173 -12.04359,4.72141 -5.29506,5.7787 -10.72559,6.22355 -19.07431,1.5625 -5.77281,-3.22293 -10.5087,-4.06793 -10.5087,-1.875 0,0.6875 -0.76908,1.25 -1.70905,1.25 -1.58801,0 -13.29095,12.02471 -13.29095,13.6564 0,0.40333 -1.73031,1.49924 -3.84514,2.43534 -3.5328,1.56377 -4.35185,1.42623 -10.08347,-1.69332 -6.99039,-3.80463 -11.64104,-3.64201 -19.32874,0.67592 -6.12339,3.4393 -8.11953,3.0785 -14.24265,-2.57434 -2.97879,-2.75 -5.83888,-5 -6.35575,-5 -0.51688,0 -1.78305,-0.32359 -2.81371,-0.7191 -1.27693,-0.49 -2.54958,0.7047 -3.99467,3.75 -1.1664,2.45801 -2.61913,4.4691 -3.2283,4.4691 -0.60916,0 -1.10757,1.0125 -1.10757,2.25 0,1.2375 -0.52598,2.78437 -1.16883,3.4375 -1.45628,1.47955 -10.79032,18.415 -13.39993,24.3125 -1.06475,2.4062 -3.84735,8.2028 -6.18358,12.8813 -2.33621,4.6784 -4.24766,10.3682 -4.24766,12.6439 0,2.2757 -1.03558,5.4791 -2.30129,7.1187 -2.98314,3.8644 -4.19897,8.6061 -2.20669,8.6061 3.70913,0 4.08555,2.6628 1.18608,8.3899 -1.61045,3.1811 -2.9281,6.5461 -2.9281,7.4779 0,0.9317 -1.32248,2.1969 -2.93884,2.8114 -2.40891,0.9159 -3.08315,2.319 -3.73914,7.7816 -1.26258,10.5138 -0.88597,22.0775 1.07199,32.9142 0.99374,5.5 1.80536,16.4688 1.8036,24.375 -0.002,12.3643 -0.34511,14.8121 -2.44761,17.5 -1.34443,1.7188 -2.45691,3.9842 -2.4722,5.0344 -0.0153,1.0501 -0.90345,3.1595 -1.97368,4.6875 -1.78943,2.5547 -2.94726,2.7781 -14.40076,2.7781 l -12.45489,0 -4.03673,-5.7039 z M 473.1297,424.23099 c 4.80953,-1.79797 10.15084,-3.57622 11.86959,-3.95168 1.71875,-0.37546 4.97024,-1.71691 7.22552,-2.98099 2.25529,-1.26407 5.18862,-2.29832 6.51852,-2.29832 2.5696,0 5.00596,-3.4102 5.00596,-7.0069 0,-1.19419 0.93172,-3.2008 2.07051,-4.45914 1.93556,-2.13877 1.88144,-2.65552 -0.83054,-7.92845 -4.11552,-8.00191 -5.28811,-8.71084 -12.18551,-7.36714 -4.75121,0.92559 -5.96955,1.71564 -6.5618,4.25507 -0.77332,3.31586 -4.41565,4.83357 -6.52877,2.72045 -2.38837,-2.38837 -6.52972,1.04017 -9.26745,7.67232 -2.72325,6.597 -7.94644,22.21736 -7.94644,23.76441 0,1.35545 1.36035,1.04583 10.63041,-2.41963 l 0,0 z M 460.62429,321.25 c 0.4249,-0.6875 1.83115,-1.25 3.125,-1.25 4.4956,0 3.71742,-2.28889 -2.2311,-6.56248 -4.45111,-3.19781 -6.33111,-5.54825 -7.34294,-9.18041 l -1.36004,-4.88211 -0.1771,5.625 c -0.13003,4.13006 -0.49913,5.12669 -1.38882,3.75 -0.94139,-1.45669 -1.21599,-1.09424 -1.23086,1.62457 -0.0249,4.55874 3.10512,10.53124 5.90137,11.2605 3.61268,0.94218 3.89868,0.91877 4.70449,-0.38507 z m 167.6079,-3.94268 9.2671,-2.69266 0,-6.48357 c 0,-8.49004 -1.87779,-23.91814 -5.17351,-42.50609 -3.40963,-19.23033 -3.01517,-18.125 -6.46853,-18.125 -1.63377,0 -3.93236,-1.06285 -5.10799,-2.3619 -1.84586,-2.03965 -2.76763,-2.17821 -6.75622,-1.01561 -2.54031,0.74046 -4.80085,1.4698 -5.02343,1.62073 -0.22256,0.15095 0.54235,2.10577 1.6998,4.34405 1.40188,2.71092 1.88437,5.71067 1.44518,8.98502 -0.58784,4.38265 -0.39949,4.84747 1.7377,4.28858 3.8929,-1.01801 2.7378,1.19255 -1.73131,3.31329 -3.3766,1.6023 -4.53638,3.25356 -6.36943,9.06868 -1.23262,3.91031 -3.66821,8.53675 -5.41242,10.28096 -3.618,3.618 -2.777,6.50844 2.27846,7.83081 2.97031,0.77695 2.96242,0.79851 -0.65125,1.78176 -2.11538,0.57559 -5.01458,0.45254 -6.875,-0.29177 -1.76938,-0.70789 -4.0608,-1.62239 -5.09205,-2.03223 -2.03414,-0.8084 -7.11351,4.99078 -5.65169,6.4526 0.46419,0.46419 4.31634,0.87303 8.56034,0.9085 10.41467,0.0871 16.01505,3.5358 20.45001,12.59319 1.81335,3.70334 3.81678,6.73334 4.45206,6.73334 0.63529,0 5.32527,-1.2117 10.42218,-2.69268 l 0,0 z M 569.99929,298.125 c 0,-1.03125 -0.22108,-1.875 -0.49126,-1.875 -0.2702,0 -0.81504,0.84375 -1.21078,1.875 -0.39572,1.03125 -0.17465,1.875 0.49126,1.875 0.66593,0 1.21078,-0.84375 1.21078,-1.875 z m 10,0.10225 c 0,-0.97503 0.36404,-2.80315 0.80897,-4.0625 0.55182,-1.56188 0.3978,-1.89239 -0.48451,-1.03974 -1.99979,1.93258 -3.19222,6.875 -1.6587,6.875 0.73384,-10e-6 1.33424,-0.79776 1.33424,-1.77277 l 0,1e-5 z M 439.9006,288.4375 c -0.0944,-5.08306 -0.1535,-5.16226 -1.36791,-1.83376 -0.69808,1.9133 -0.95256,4.30392 -0.56554,5.3125 1.26841,3.30542 2.03389,1.92815 1.93345,-3.47874 z m 165.32785,-21.20834 c -0.89695,-0.89695 -1.47916,-0.97075 -1.47916,-0.1875 0,1.66848 1.47826,3.14674 2.3125,2.3125 0.35521,-0.3552 -0.0198,-1.31145 -0.83334,-2.125 z m 2.27084,-7.70111 c 0,-0.25956 -0.85663,-1.18288 -1.90361,-2.0518 -1.59169,-1.32098 -1.7746,-1.24365 -1.11627,0.47195 0.67237,1.75216 3.01988,2.98027 3.01988,1.57985 z m -175,-15.77805 c 0,-0.6875 -0.5293,-1.25 -1.17623,-1.25 -0.64692,0 -1.52387,0.5625 -1.94877,1.25 -0.4249,0.6875 0.10437,1.25 1.17622,1.25 1.07183,0 1.94878,-0.5625 1.94878,-1.25 z m 177.5,-7.5 c -2.75,-2.75 -5,-5.84375 -5,-6.875 0,-2.92781 -5.27406,-2.20198 -8.46626,1.16516 l -2.84127,2.99698 4.40377,1.45337 c 2.42207,0.79935 4.40376,1.88629 4.40376,2.41541 0,1.48995 5.24435,3.6655 9.0625,3.75948 l 3.4375,0.0846 -5,-5 z"
     id="path2987"
     inkscape:connector-curvature="0" />
</svg>
