<?xml version="1.0" encoding="UTF-8" standalone="no"?>
<!-- Created with Inkscape (http://www.inkscape.org/) -->

<svg
   xmlns:dc="http://purl.org/dc/elements/1.1/"
   xmlns:cc="http://creativecommons.org/ns#"
   xmlns:rdf="http://www.w3.org/1999/02/22-rdf-syntax-ns#"
   xmlns:svg="http://www.w3.org/2000/svg"
   xmlns="http://www.w3.org/2000/svg"
   xmlns:sodipodi="http://sodipodi.sourceforge.net/DTD/sodipodi-0.dtd"
   xmlns:inkscape="http://www.inkscape.org/namespaces/inkscape"
   id="svg2"
   version="1.1"
   inkscape:version="0.48.4 r9939"
   width="254.57249"
   height="115.91775"
   sodipodi:docname="youmu_phantom-half.svg">
  <metadata
     id="metadata8">
    <rdf:RDF>
      <cc:Work
         rdf:about="">
        <dc:format>image/svg+xml</dc:format>
        <dc:type
           rdf:resource="http://purl.org/dc/dcmitype/StillImage" />
        <dc:title></dc:title>
      </cc:Work>
    </rdf:RDF>
  </metadata>
  <defs
     id="defs6" />
  <sodipodi:namedview
     pagecolor="#ffffff"
     bordercolor="#666666"
     borderopacity="1"
     objecttolerance="10"
     gridtolerance="10"
     guidetolerance="10"
     inkscape:pageopacity="0"
     inkscape:pageshadow="2"
     inkscape:window-width="956"
     inkscape:window-height="1041"
     id="namedview4"
     showgrid="false"
     inkscape:zoom="1.0723861"
     inkscape:cx="-3.73"
     inkscape:cy="-207.64409"
     inkscape:window-x="960"
     inkscape:window-y="18"
     inkscape:window-maximized="0"
     inkscape:current-layer="svg2"
     fit-margin-top="0"
     fit-margin-left="0"
     fit-margin-right="0"
     fit-margin-bottom="0" />
  <path
     style="fill:#ff0000"
     d="m 177.09722,114.61642 c -11.53836,-2.76877 -17.15791,-6.01048 -25.95388,-14.971855 -7.94753,-8.09697 -11.5711,-14.11198 -15.54604,-25.80594 -2.05163,-6.0357 -1.25115,-16.83942 2.0745,-27.99874 1.35647,-4.55169 2.67389,-9.4934 2.9276,-10.98159 l 0.46128,-2.70578 -17.02747,0.67212 c -9.3651,0.36967 -17.70966,1.03078 -18.54346,1.46914 -0.8338,0.43836 -8.85944,1.35351 -17.83475,2.03366 -29.36848,2.22557 -59.82001,1.2852 -62.4775,-1.92936 -0.25644,-0.3102 -2.77419,-1.71835 -5.595,-3.12924 C 14.9911,28.972355 13.02271,27.346325 5.96372,20.018775 4.08945,18.073215 0,9.8432951 0,8.0169551 c 0,-0.47785 1.94766,1.10682 4.32814,3.5214799 2.3815,2.41571 7.30949,5.87592 10.95687,7.69342 6.24041,3.10963 7.27509,3.32587 17.66177,3.69127 8.32129,0.29274 14.16571,-0.10942 23.77875,-1.63626 22.90378,-3.6378 34.16068,-5.68585 36.05822,-6.56034 1.77618,-0.81857 7.97422,-2.04146 25.64375,-5.0595899 13.8643,-2.36816 44.72793,-6.05449 59.68,-7.12814 7.94956,-0.57082 14.99071,-1.48275 15.64699,-2.02651005 0.84286,-0.69835 1.86257,-0.68368 3.47274,0.05 1.25372,0.57124005 6.80133,1.31354005 12.328,1.64957005 5.52669,0.33603 12.18229,1.14822 14.79023,1.80487 11.53035,2.90322 22.53424,11.1862799 27.56444,20.7488499 2.34732,4.46232 2.6626,6.0401 2.6626,13.32451 0,12.16597 -2.09888,17.13178 -9.84685,23.29704 -3.30639,2.63097 -6.22296,5.69053 -6.48127,6.79904 -0.2583,1.1085 -1.06895,5.23073 -1.80142,9.1605 -1.9432,10.42533 -6.21027,19.77353 -11.77832,25.803695 -9.34149,10.11676 -31.21647,15.38971 -47.56742,11.4661 l 0,0 z"
     id="path2989"
     inkscape:connector-curvature="0" />
</svg>
