<?xml version="1.0" encoding="UTF-8" standalone="no"?>
<!-- Created with Inkscape (http://www.inkscape.org/) -->

<svg
   xmlns:dc="http://purl.org/dc/elements/1.1/"
   xmlns:cc="http://creativecommons.org/ns#"
   xmlns:rdf="http://www.w3.org/1999/02/22-rdf-syntax-ns#"
   xmlns:svg="http://www.w3.org/2000/svg"
   xmlns="http://www.w3.org/2000/svg"
   xmlns:sodipodi="http://sodipodi.sourceforge.net/DTD/sodipodi-0.dtd"
   xmlns:inkscape="http://www.inkscape.org/namespaces/inkscape"
   id="svg2"
   version="1.1"
   inkscape:version="0.48.4 r9939"
   width="272.83847"
   height="486.01862"
   sodipodi:docname="yukari.bmp">
  <metadata
     id="metadata8">
    <rdf:RDF>
      <cc:Work
         rdf:about="">
        <dc:format>image/svg+xml</dc:format>
        <dc:type
           rdf:resource="http://purl.org/dc/dcmitype/StillImage" />
        <dc:title></dc:title>
      </cc:Work>
    </rdf:RDF>
  </metadata>
  <defs
     id="defs6" />
  <sodipodi:namedview
     pagecolor="#ffffff"
     bordercolor="#666666"
     borderopacity="1"
     objecttolerance="10"
     gridtolerance="10"
     guidetolerance="10"
     inkscape:pageopacity="0"
     inkscape:pageshadow="2"
     inkscape:window-width="956"
     inkscape:window-height="1041"
     id="namedview4"
     showgrid="false"
     fit-margin-top="0"
     fit-margin-left="0"
     fit-margin-right="0"
     fit-margin-bottom="0"
     inkscape:zoom="1.7077535"
     inkscape:cx="126.482"
     inkscape:cy="244.64919"
     inkscape:window-x="960"
     inkscape:window-y="18"
     inkscape:window-maximized="0"
     inkscape:current-layer="svg2" />
  <path
     style="fill:#ff0000"
     d="m 102.76664,484.84719 c -0.20444,-0.64412 -0.61745,-1.17113 -0.91781,-1.17113 -0.31349,0 -0.5461,-3.74131 -0.5461,-8.78347 0,-5.46527 0.22121,-8.78347 0.58556,-8.78347 0.35577,0 0.58557,-2.59195 0.58557,-6.60472 0,-6.07094 -0.10045,-6.67433 -1.24288,-7.46595 -0.68358,-0.47367 -1.539966,-1.18146 -1.903086,-1.57286 -1.76807,-1.9058 -2.1306,-2.26814 -2.9497,-2.94814 -1.00214,-0.83197 -7.37232,-1.00981 -7.37232,-0.20582 0,0.28937 -1.84453,0.71137 -4.09895,0.93777 -2.25442,0.22641 -4.09895,0.6484 -4.09895,0.93778 0,0.28937 -0.90031,0.52613 -2.00068,0.52613 -1.10037,0 -2.10903,0.32503 -2.24144,0.72229 -0.34217,1.02649 -11.661293,1.03561 -12.005633,0.01 -0.13511,-0.40258 -0.72252,-0.73196 -1.30534,-0.73196 -0.58283,0 -1.21136,-0.39525 -1.39674,-0.87834 -0.18538,-0.4831 -0.80979,-0.87835 -1.38758,-0.87835 -0.57779,0 -1.54523,-0.65876 -2.14987,-1.46391 -0.60465,-0.80515 -1.33473,-1.46391 -1.62242,-1.46391 -0.28768,0 -1.44532,-0.92227 -2.57253,-2.04948 -1.12722,-1.12721 -2.28644,-2.04948 -2.57607,-2.04948 -0.28962,0 -0.69365,-0.52639 -0.89785,-1.16977 -0.2042,-0.64337 -1.01247,-1.33069 -1.79616,-1.52738 -0.78368,-0.19669 -1.42488,-0.59255 -1.42488,-0.8797 0,-0.28715 -0.52701,-0.52209 -1.17113,-0.52209 -0.64412,0 -1.17113,-0.2635 -1.17113,-0.58556 0,-0.32206 -0.65876,-0.58557 -1.46391,-0.58557 -0.80515,0 -1.46391,-0.23952 -1.46391,-0.53226 0,-0.29274 -2.811,-0.62212 -6.24667,-0.73196 -4.32815,-0.13836 -6.3214,-0.42449 -6.49,-0.93164 -0.13384,-0.40258 -0.71983,-0.73196 -1.3022,-0.73196 -0.64109,0 -1.20381,-0.57758 -1.42627,-1.46391 -0.20208,-0.80515 -0.6259,-1.46391 -0.94183,-1.46391 -0.31592,0 -0.5744,-0.49882 -0.5744,-1.10848 0,-0.60967 -0.39526,-1.26015 -0.87835,-1.44554 -0.48309,-0.18538 -0.87835,-0.87233 -0.87835,-1.52656 0,-0.65423 -0.26121,-1.1895 -0.58047,-1.1895 -0.31926,0 -1.33593,-0.79052 -2.25926,-1.7567 -0.92334,-0.96618 -2.1114,-1.75669 -2.64014,-1.75669 -0.52873,0 -0.96134,-0.26351 -0.96134,-0.58557 0,-0.32206 -0.65876,-0.58556 -1.46391,-0.58556 -0.80515,0 -1.46391,-0.2635 -1.46391,-0.58557 0,-0.32206 -0.65876,-0.58556 -1.46391,-0.58556 -0.80516,0 -1.46392,-0.2635 -1.46392,-0.58556 0,-0.32207 -0.63993,-0.58557 -1.42208,-0.58557 -1.328031,0 -1.821738,-0.34545 -3.701606,-2.59 -0.844226,-1.00801 -0.977038,-2.68008 -0.212879,-2.68008 0.285493,0 0.696895,-1.18577 0.914226,-2.63504 0.217332,-1.44927 0.642508,-2.63504 0.944835,-2.63504 0.302327,0 0.549685,-0.39526 0.549685,-0.87835 0,-0.48309 0.247358,-0.87835 0.549685,-0.87835 0.302327,0 0.730564,-1.2062 0.951644,-2.68045 0.44602,-2.97427 -0.37002,-5.51745 -1.770401,-5.51745 -1.982284,0 -1.839476,-5.78018 0.1864,-7.5446 0.597451,-0.52035 1.269201,-1.52549 1.492771,-2.23366 0.22358,-0.70815 0.92003,-1.45055 1.54768,-1.64976 0.62764,-0.1992 1.14117,-0.87144 1.14117,-1.49386 0,-0.62242 0.24575,-1.13167 0.54611,-1.13167 0.30036,0 0.72007,-0.54812 0.93269,-1.21804 0.21263,-0.66992 1.67966,-2.51793 3.26007,-4.10668 1.58041,-1.58875 2.87347,-3.22225 2.87347,-3.62999 0,-0.40774 0.56237,-1.1289 1.2497,-1.60258 0.68734,-0.47367 1.54373,-1.20848 1.90309,-1.63292 0.35936,-0.42444 2.16853,-2.29463 4.02038,-4.15599 1.85185,-1.86136 3.367,-3.59361 3.367,-3.84943 0,-0.25582 0.79051,-1.22058 1.75669,-2.14391 0.96618,-0.92334 1.75669,-1.96604 1.75669,-2.31712 0,-0.35107 0.79052,-1.37676 1.7567,-2.27931 0.96618,-0.90255 1.75669,-1.91856 1.75669,-2.2578 0,-0.33923 0.62718,-1.24397 1.39373,-2.01052 0.76655,-0.76656 1.57482,-1.9643 1.79615,-2.66166 0.22134,-0.69736 0.64818,-1.26793 0.94853,-1.26793 0.30036,0 0.54611,-0.39525 0.54611,-0.87834 0,-0.4831 0.24575,-0.87835 0.5461,-0.87835 0.30036,0 0.73331,-0.59289 0.96211,-1.31752 0.22881,-0.72464 0.90532,-1.74368 1.50338,-2.26456 0.59805,-0.52086 1.08736,-1.2455 1.08736,-1.6103 0,-0.36479 0.25849,-0.66327 0.57441,-0.66327 0.31592,0 0.73975,-0.65876 0.94183,-1.46391 0.20208,-0.80515 0.60235,-1.46391 0.8895,-1.46391 0.28715,0 0.52208,-0.52701 0.52208,-1.17113 0,-0.64412 0.25849,-1.17113 0.57441,-1.17113 0.31593,0 0.73975,-0.65876 0.94183,-1.46391 0.20208,-0.80515 0.60236,-1.46391 0.8895,-1.46391 0.28715,0 0.52209,-0.27453 0.52209,-0.61005 0,-0.33553 0.51389,-1.16165 1.14198,-1.83583 0.62809,-0.67417 1.30779,-1.98067 1.51044,-2.90333 0.20265,-0.92266 0.61102,-1.67757 0.90749,-1.67757 0.29647,0 0.53904,-0.39525 0.53904,-0.87834 0,-0.4831 0.23418,-0.87835 0.5204,-0.87835 0.28621,0 0.69341,-0.92227 0.90488,-2.04948 0.21146,-1.12721 0.63605,-2.04947 0.94351,-2.04947 0.30747,0 0.55903,-0.52701 0.55903,-1.17113 0,-0.64412 0.26351,-1.17113 0.58557,-1.17113 0.32206,0 0.58556,-0.3733 0.58556,-0.82955 0,-0.45625 0.2805,-0.92305 0.62334,-1.03733 0.34284,-0.11428 0.77279,-1.32201 0.95545,-2.68384 0.18266,-1.36183 0.56092,-2.47606 0.84057,-2.47606 0.27966,0 0.50846,-0.54433 0.50846,-1.20962 0,-0.6653 0.26422,-1.70332 0.58715,-2.30672 0.39249,-0.73337 0.39249,-1.21741 0,-1.45998 -0.7337,-0.45345 -0.78035,-3.80715 -0.053,-3.80715 0.29381,0 0.72292,-3.16205 0.95359,-7.02677 0.23066,-3.86473 0.64904,-7.02678 0.929723,-7.02678 0.28067,0 0.51032,-2.07585 0.51032,-4.613 0,-2.53716 0.35639,-5.50158 0.79198,-6.58761 0.48842,-1.21775 0.81567,-4.5525 0.85379,-8.7004 0.0376,-4.08932 0.30098,-6.80553 0.67194,-6.92918 0.33556,-0.11186 0.61011,-1.10368 0.61011,-2.20405 0,-1.10038 0.26351,-2.00068 0.58557,-2.00068 0.32206,0 0.58556,-0.22121 0.58556,-0.49157 0,-0.41626 -0.82145,-0.93696 -3.65978,-2.31987 -0.24154,-0.11769 -0.43917,0.20323 -0.43917,0.71317 0,0.50992 0.39526,0.92714 0.87835,0.92714 1.17366,0 1.17366,3.30172 0,4.47539 -0.78075,0.78075 -0.87835,0.77146 -0.87835,-0.0837 0,-0.92049 -1.306323,-2.63504 -2.007653,-2.63504 -0.89478,0 -0.1817,3.21585 0.92612,4.17666 1.036363,0.89884 1.088463,1.09342 0.29278,1.09342 -0.53237,0 -0.96794,-0.2635 -0.96794,-0.58556 0,-0.32206 -0.37971,-0.58556 -0.84379,-0.58556 -1.07305,0 -1.8318,-1.18259 -1.07519,-1.67577 0.31532,-0.20554 0.73594,-1.03247 0.9347,-1.83762 1.24678,-5.05043 1.89045,-7.02678 2.288543,-7.02678 0.24884,0 0.45243,-0.65876 0.45243,-1.46391 0,-0.80515 0.24736,-1.46391 0.54969,-1.46391 0.30232,0 0.7275,-1.18577 0.94483,-2.63504 0.21733,-1.44927 0.62873,-2.63504 0.91422,-2.63504 0.2855,0 0.51908,-0.39526 0.51908,-0.87835 0,-0.48309 0.26351,-0.87835 0.58557,-0.87835 0.32206,0 0.58556,-0.527 0.58556,-1.17113 0,-0.64412 0.25157,-1.17112 0.55904,-1.17112 0.30746,0 0.73205,-0.92227 0.94351,-2.04948 0.21147,-1.12721 0.61866,-2.04948 0.90488,-2.04948 0.28622,0 0.5204,-0.65876 0.5204,-1.46391 0,-0.80515 0.23358,-1.46391 0.51908,-1.46391 0.28549,0 0.69689,-1.18577 0.91422,-2.63504 0.21733,-1.44927 0.64251,-2.63504 0.94483,-2.63504 0.30233,0 0.54969,-0.52701 0.54969,-1.17113 0,-0.64412 0.2635,-1.17113 0.58556,-1.17113 0.32206,0 0.58557,-0.51146 0.58557,-1.13657 0,-0.62511 0.24828,-1.29002 0.55173,-1.47756 0.30345,-0.18754 0.72863,-1.52062 0.94484,-2.96238 0.2162,-1.44177 0.62668,-2.62139 0.91217,-2.62139 0.28549,0 0.51908,-0.63681 0.51908,-1.41512 0,-0.77831 0.3219,-1.52241 0.71532,-1.65355 0.45048,-0.15017 0.0871,-0.86667 -0.98149,-1.93525 -1.06858,-1.06858 -1.78508,-1.43197 -1.93524,-0.98149 -0.3175,0.95251 -1.20673,0.90423 -2.23215,-0.1212 -0.94581,-0.94581 -1.14947,-5.01912 -0.25095,-5.01912 0.32206,0 0.58556,-0.27239 0.58556,-0.6053 0,-0.89382 3.28865,-3.95007 4.50184,-4.18371 1.28768,-0.24798 1.58296,-1.59639 1.08166,-4.93933 -0.31101,-2.07392 -0.65755,-2.63258 -1.81287,-2.92255 -0.78561,-0.19717 -1.42837,-0.59343 -1.42837,-0.88058 0,-0.28714 -0.76856,-0.52208 -1.7079,-0.52208 -0.93934,0 -1.81525,-0.32206 -1.94646,-0.71569 -0.16012,-0.48035 -1.70504,-0.71569 -4.69817,-0.71569 -3.8793,0 -4.60644,0.16932 -5.588173,1.30125 -0.62071,0.71569 -1.41686,1.30126 -1.76921,1.30126 -0.35236,0 -1.68418,1.05401 -2.95961,2.34226 -1.27543,1.28824 -2.71713,2.34225 -3.20378,2.34225 -0.48664,0 -1.0433,0.49937 -1.23701,1.10971 -0.21825,0.68764 -1.12411,1.25452 -2.38172,1.49045 -1.11623,0.2094 -2.02951,0.6323 -2.02951,0.93976 0,0.30747 -0.39526,0.55904 -0.87835,0.55904 -0.48309,0 -0.87834,0.23314 -0.87834,0.51809 0,0.28495 -1.44928,0.69917 -3.22061,0.92048 -1.77133,0.22131 -3.2206,0.64693 -3.2206,0.94582 0,0.29889 -1.05402,0.54343 -2.34226,0.54343 -1.28824,0 -2.34226,0.2635 -2.34226,0.58556 0,0.76407 -5.67621,0.76407 -6.14843,0 -0.19904,-0.32206 -0.87335,-0.58556 -1.49847,-0.58556 -0.62511,0 -1.13657,-0.26351 -1.13657,-0.58557 0,-0.32206 -0.63614,-0.58556 -1.41364,-0.58556 -1.45784,0 -5.61313,-3.51773 -5.61313,-4.75188 0,-0.37049 -0.48932,-1.09978 -1.08737,-1.62064 -0.59805,-0.52088 -1.27029,-1.52644 -1.49387,-2.23461 -0.22357,-0.70816 -0.92002,-1.45055 -1.54767,-1.64976 -0.62765,-0.1992 -1.14118,-0.87971 -1.14118,-1.51224 0,-0.63253 -0.39525,-1.30172 -0.87834,-1.4871 -0.48309,-0.18538 -0.87835,-0.72478 -0.87835,-1.19867 0,-0.47389 -1.04373,-1.89497 -2.3194,-3.15796 -1.92874,-1.90955 -2.71778,-2.29634 -4.684521,-2.29634 -1.300812,0 -2.365113,0.26351 -2.365113,0.58557 0,0.32206 -1.317521,0.58556 -2.927823,0.58556 l -2.927824,0 0,-2.34226 c 0,-1.28824 0.263505,-2.34225 0.585565,-2.34225 0.322061,0 0.585565,-0.92227 0.585565,-2.04948 0,-1.12721 0.23508,-2.04948 0.5224,-2.04948 0.28732,0 0.711,-2.63504 0.941511,-5.85564 0.230511,-3.22061 0.654192,-5.85565 0.941512,-5.85565 0.28732,0 0.5224,-3.42555 0.5224,-7.61234 0,-4.68452 0.225217,-7.61234 0.585564,-7.61234 0.322061,0 0.585565,-0.92226 0.585565,-2.04948 0,-1.12721 0.242567,-2.04947 0.539039,-2.04947 0.29647,0 0.72713,-0.85638 0.957019,-1.90306 0.229891,-1.04668 0.909588,-2.24739 1.510439,-2.66825 0.60085,-0.42085 1.092452,-1.15376 1.092452,-1.6287 0,-0.47494 0.39526,-1.0152 0.87835,-1.20057 0.48309,-0.18539 0.87835,-0.77334 0.87835,-1.30656 0,-0.53322 0.65876,-1.4642 1.46391,-2.06884 0.80515,-0.60465 1.46391,-1.5717 1.46391,-2.149 0,-0.57731 0.51353,-1.21264 1.14118,-1.41184 0.62764,-0.19921 1.30416,-0.87573 1.50337,-1.50338 0.19921,-0.62765 0.56645,-1.14117 0.81609,-1.14117 0.24964,0 0.95139,-0.92379 1.55943,-2.05286 0.60805,-1.12907 1.51681,-2.18339 2.01947,-2.34293 0.50267,-0.15954 2.07828,-1.34379 3.50136,-2.63166 1.42309,-1.28788 2.7956,-2.34159 3.05004,-2.34159 0.25444,0 1.51663,-1.05401 2.80487,-2.34226 1.28824,-1.28824 2.60605,-2.34226 2.92847,-2.34226 0.32242,0 1.60911,-1.05401 2.8593,-2.34225 1.2502,-1.28825 2.68142,-2.34226 3.1805,-2.34226 0.49907,0 1.07467,-0.52701 1.27911,-1.17113 0.20444,-0.64412 0.84404,-1.17113 1.42135,-1.17113 0.57731,0 1.54436,-0.65876 2.149,-1.46391 0.60464,-0.80515 1.53563,-1.46391 2.06885,-1.46391 0.53322,0 1.12117,-0.39526 1.30655,-0.87835 0.18538,-0.48309 0.87233,-0.87835 1.52656,-0.87835 0.65423,0 1.18951,-0.263497 1.18951,-0.585557 0,-0.32206 0.39525,-0.58557 0.87834,-0.58557 0.48309,0 0.87835,-0.25848 0.87835,-0.57441 0,-0.31592 0.65876,-0.73974 1.46391,-0.94182 0.80515,-0.20208 1.46391,-0.60236 1.46391,-0.88951 0,-0.28714 0.52701,-0.52208 1.17113,-0.52208 0.64412,0 1.17113,-0.2635 1.17113,-0.58556 0,-0.32207 0.39526,-0.58557 0.87835,-0.58557 0.48309,0 0.87835,-0.2635 0.87835,-0.58556 0,-0.32206 0.53527,-0.58557 1.1895,-0.58557 0.65423,0 1.34118,-0.39525 1.52656,-0.87835 0.18538,-0.48309 0.83587,-0.87834 1.44554,-0.87834 0.60966,0 1.10848,-0.23494 1.10848,-0.52209 0,-0.28715 0.68145,-0.69312 1.514343,-0.90216 0.83289,-0.20904 2.13543,-1.001166 2.89455,-1.760276 0.75912,-0.75912 1.6783,-1.47958 2.04262,-1.60102 0.36432,-0.12144 0.81115,-1.86116 0.99295,-3.86605 0.18179,-2.00489 0.55744,-3.64526 0.83477,-3.64526 0.27733,0 0.50424,-1.05402 0.50424,-2.34226 0,-1.28824 0.22569,-2.34226 0.50154,-2.34226 0.27586,0 0.68423,-2.43741 0.90751,-5.41647 0.22328,-2.97906 0.65634,-5.50431 0.96237,-5.61166 0.30602,-0.10736 0.5564,-1.0955 0.5564,-2.19587 0,-1.10037 0.2635,-2.00068 0.58556,-2.00068 0.32206,0 0.58557,-0.90671 0.58557,-2.01491 0,-1.10821 0.2331,-2.15899 0.518,-2.33506 0.2849,-0.17608 0.6963,-1.50915 0.91423,-2.96238 0.21792,-1.45324 0.64358,-2.64224 0.9459,-2.64224 0.30233,0 0.54969,-0.28233 0.54969,-0.6274 0,-0.34506 0.32938,-0.99468 0.73196,-1.44359 1.59026,-1.77329 2.19587,-2.57955 2.19587,-2.92343 0,-0.58279 1.62178,-2.03236 2.27381,-2.03236 0.33043,0 1.22796,-0.62718 1.99451,-1.39373 0.76655,-0.76655 1.95081,-1.57054 2.6317,-1.78665 0.68088,-0.2161 1.40096,-0.90644 1.60017,-1.53409 0.1992,-0.62765 0.87144,-1.14118 1.49386,-1.14118 0.62242,0 1.13167,-0.25848 1.13167,-0.5744 0,-0.31593 0.65876,-0.73975 1.46391,-0.94183 0.80516,-0.20208 1.46392,-0.60236 1.46392,-0.8895 0,-0.28715 0.28232,-0.52209 0.62739,-0.52209 0.34506,0 1.02264,-0.39526 1.50574,-0.87835 0.48309,-0.48309 1.386516,-0.87834 2.007636,-0.87834 1.5696,0 1.53941,-2.959271 -0.0418,-4.098956 -0.91665,-0.660679 -1.17113,-1.515846 -1.17113,-3.935438 -2e-5,-1.700236 0.26348,-3.091337 0.58554,-3.091337 0.32206,0 0.58557,-0.527008 0.58557,-1.171129 0,-0.644121 0.2635,-1.17113 0.58556,-1.17113 0.86469,0 0.72774,-5.115118 -0.14639,-5.467837 -0.58556,-0.236281 -0.58556,-0.304597 0,-0.34158 0.41815,-0.02641 0.73196,-0.824178 0.73196,-1.860818 0,-0.998024 0.42577,-2.711844 0.94616,-3.808488 0.89394,-1.883842 0.88001,-2.815909 -0.0888,-5.941823 C 103.0239,0.326126 103.15714,0 103.86946,0 c 0.52066,0 0.94665,0.395256 0.94665,0.878347 0,0.483091 0.2635,0.878347 0.58556,0.878347 0.32206,0 0.58556,0.538129 0.58556,1.195843 0,1.2575 0.15087,1.476988 3.65978,5.32457 1.47046,1.612372 2.19587,2.964229 2.19587,4.092124 0,0.926376 0.26351,1.68432 0.58557,1.68432 0.32206,0 0.58556,0.274625 0.58556,0.610279 0,0.757389 1.08693,2.096942 3.63946,4.485366 1.36653,1.278673 2.21619,2.458561 2.21619,3.077545 0,0.335653 0.2635,0.610279 0.58556,0.610279 0.32206,0 0.58557,0.527008 0.58557,1.171129 0,0.644121 0.2635,1.171129 0.58556,1.171129 0.32206,0 0.58556,0.395256 0.58556,0.878347 0,0.483091 0.39526,0.878347 0.87835,0.878347 0.48309,0 0.87835,0.22284 0.87835,0.495199 0,0.272359 3.35895,0.665439 7.46434,0.87351 4.14829,0.210245 7.55176,0.640598 7.66113,0.968713 0.10824,0.32472 0.5701,0.590401 1.02635,0.590401 0.45625,0 0.82955,0.263504 0.82955,0.585565 0,0.322057 0.65876,0.585567 1.46391,0.585567 0.80516,0 1.46392,0.24575 1.46392,0.5461 0,0.30036 0.57278,0.7279 1.27285,0.9501 1.15146,0.36546 9.85287,8.64347 9.85287,9.37345 0,0.29482 0.65818,1.15494 2.19587,2.86961 0.40258,0.44891 0.73196,0.9856 0.73196,1.19264 0,0.20703 0.32938,0.74372 0.73195,1.19263 1.67063,1.86291 2.19587,2.58896 2.19587,3.0354 0,0.25922 0.65876,0.96601 1.46391,1.57065 0.80515,0.60464 1.46391,1.52691 1.46391,2.04948 0,0.52256 0.65876,1.44483 1.46391,2.04947 0.80515,0.60465 1.46392,1.5717 1.46392,2.149 0,0.57731 0.527,1.21691 1.17112,1.42135 0.64413,0.20444 1.17113,0.62943 1.17113,0.94442 0,1.39159 2.93162,3.44732 4.91613,3.44732 1.12284,0 2.20439,0.2635 2.40343,0.58556 0.21669,0.35061 4.09351,0.58557 9.66182,0.58557 5.11495,0 9.44295,0.23143 9.61777,0.5143 0.17482,0.28286 4.14293,0.70551 8.81803,0.93921 4.67509,0.23371 8.50017,0.66104 8.50017,0.94962 0,0.28858 1.58102,0.52469 3.51339,0.52469 1.93236,0 3.51338,0.23877 3.51338,0.53061 0,0.29184 1.31752,0.71183 2.92783,0.9333 1.6103,0.22147 2.92782,0.64146 2.92782,0.9333 0,0.29184 0.52701,0.53061 1.17113,0.53061 0.64412,0 1.17113,0.26351 1.17113,0.58557 0,0.32206 0.65876,0.58556 1.46391,0.58556 0.80515,0 1.46391,0.26039 1.46391,0.57864 0,0.31826 1.05402,0.7472 2.34226,0.95319 1.28824,0.206 2.34226,0.60437 2.34226,0.88527 0,0.2809 0.52701,0.51072 1.17113,0.51072 0.64412,0 1.17113,0.23494 1.17113,0.52209 0,0.28715 0.65876,0.68742 1.46391,0.8895 0.80515,0.20208 1.46391,0.6259 1.46391,0.94183 0,0.31592 0.39526,0.57441 0.87835,0.57441 0.48309,0 0.87834,0.2635 0.87834,0.58556 0,0.32206 0.38585,0.58557 0.85745,0.58557 0.95002,0 10.26828,9.05622 10.26828,9.97953 0,0.31972 0.98814,1.500756 2.19587,2.624516 2.72727,2.53765 2.53558,2.34562 5.68505,5.69484 1.43856,1.52979 2.88082,2.781427 3.20503,2.781427 0.91872,0 7.65212,6.98147 7.65212,7.93405 0,0.46718 0.2635,0.84942 0.58556,0.84942 0.86174,0 0.67822,1.87774 -0.3114,3.18613 -0.47285,0.62517 -0.85973,1.74506 -0.85973,2.48865 0,0.7436 -0.2635,1.352 -0.58556,1.352 -0.32206,0 -0.58556,0.79051 -0.58556,1.75669 0,0.96618 -0.23677,1.75669 -0.52614,1.75669 -0.28937,0 -0.71137,1.84453 -0.93778,4.09896 -0.2264,2.25442 -0.6484,4.09895 -0.93777,4.09895 -0.28938,0 -0.52614,0.39526 -0.52614,0.87835 0,0.48309 -0.2635,0.87834 -0.58556,0.87834 -0.32206,0 -0.58557,0.52701 -0.58557,1.17113 0,0.64412 -0.25156,1.17113 -0.55903,1.17113 -0.30746,0 -0.73205,0.92227 -0.94351,2.04948 -0.21147,1.12721 -0.57717,2.04947 -0.81267,2.04947 -0.23551,0 -0.93082,0.9743 -1.54514,2.16511 -1.46153,2.83306 -3.92486,5.44723 -5.1329,5.44723 -0.52874,0 -0.96134,0.26351 -0.96134,0.58557 0,0.32206 -0.39526,0.58556 -0.87835,0.58556 -0.48309,0 -0.87835,0.26351 -0.87835,0.58557 0,0.3238 -1.53499,0.58556 -3.43383,0.58556 l -3.43383,0 -1.00634,-2.63504 c -0.84913,-2.22341 -1.25031,-2.63213 -2.5682,-2.61642 -1.51696,0.0181 -3.61135,1.16385 -3.61135,1.97564 0,0.22067 -0.59288,1.03533 -1.31752,1.81034 -2.29063,2.44985 -2.67262,3.0287 -2.94333,4.46023 l -0.26418,1.39699 -0.0797,-1.35935 c -0.13695,-2.33452 -1.42591,-3.03239 -5.60078,-3.03239 -2.1164,0 -3.848,0.22961 -3.848,0.51023 0,0.28063 -2.89854,0.6981 -6.44121,0.9277 -3.54267,0.22961 -6.44121,0.65877 -6.44121,0.95369 0,0.29491 -1.05402,0.5362 -2.34226,0.5362 -1.28824,0 -2.34226,0.22946 -2.34226,0.50991 0,0.28044 -1.83847,0.69106 -4.08549,0.91248 -2.24701,0.22141 -4.23885,0.65071 -4.42629,0.95401 -0.18744,0.30328 -0.98402,0.55143 -1.77016,0.55143 -0.78614,0 -1.42935,0.22983 -1.42935,0.51072 0,0.2809 -1.05402,0.67927 -2.34226,0.88527 -1.28824,0.206 -2.34226,0.63493 -2.34226,0.95319 0,0.31825 -0.52701,0.57864 -1.17113,0.57864 -0.64412,0 -1.17113,0.26351 -1.17113,0.58557 0,0.32206 -0.65876,0.58556 -1.46391,0.58556 -0.80515,0 -1.46391,0.25156 -1.46391,0.55903 0,0.30747 -0.92226,0.73205 -2.04948,0.94352 -1.12721,0.21146 -2.04947,0.61866 -2.04947,0.90488 0,0.28621 -0.39526,0.52039 -0.87835,0.52039 -0.48309,0 -0.87835,0.23494 -0.87835,0.52209 0,0.28715 -0.65876,0.68742 -1.46391,0.8895 -0.80515,0.20208 -1.46391,0.6259 -1.46391,0.94183 0,0.31592 -0.38031,0.57441 -0.84514,0.57441 -0.46483,0 -1.18947,0.47885 -1.61031,1.06411 -0.42083,0.58526 -1.62154,1.56434 -2.66824,2.17573 -1.41332,0.82554 -1.90308,1.52439 -1.90308,2.71552 0,1.36943 0.29962,1.66012 2.04947,1.98839 1.12721,0.21147 2.04948,0.61866 2.04948,0.90488 0,0.28622 0.65876,0.5204 1.46391,0.5204 0.80515,0 1.46391,0.25156 1.46391,0.55903 0,0.30747 0.92227,0.73205 2.04948,0.94352 1.12721,0.21146 2.04947,0.61866 2.04947,0.90488 0,0.28621 0.65876,0.52039 1.46392,0.52039 0.80515,0 1.46391,0.26351 1.46391,0.58557 0,0.32206 0.28232,0.58556 0.62739,0.58556 0.34506,0 1.02265,0.39526 1.50574,0.87835 0.48309,0.48309 1.51828,0.87835 2.30043,0.87835 0.78214,0 1.42208,0.2635 1.42208,0.58556 0,0.32206 1.18935,0.58557 2.64299,0.58557 1.45364,0 3.16642,0.32689 3.80617,0.72642 0.92582,0.57818 1.40055,0.57818 2.32637,0 0.63975,-0.39953 2.35253,-0.72642 3.80617,-0.72642 1.45364,0 2.64298,-0.26351 2.64298,-0.58557 0,-0.32206 0.53528,-0.58556 1.18951,-0.58556 0.65423,0 1.34118,-0.39526 1.52656,-0.87835 0.18538,-0.48309 0.87084,-0.87835 1.52324,-0.87835 0.65241,0 1.6126,-0.49166 2.13377,-1.09257 0.52117,-0.60092 1.75254,-1.26937 2.73638,-1.48546 0.98383,-0.21608 2.16165,-0.91019 2.61736,-1.54246 0.45572,-0.63228 1.15368,-1.14959 1.55104,-1.14959 0.63956,0 1.25356,-0.5419 4.11465,-3.63158 0.38714,-0.41808 1.0459,-1.05721 1.46391,-1.42028 0.418,-0.36308 1.28701,-1.40042 1.93113,-2.30522 0.64412,-0.9048 1.76401,-2.29311 2.48865,-3.08515 1.27398,-1.39249 1.31752,-1.39933 1.31752,-0.20709 0,0.67813 -1.05402,2.30828 -2.34226,3.62255 -1.28824,1.31426 -2.34226,2.75642 -2.34226,3.2048 0,0.44838 -0.52701,0.98249 -1.17113,1.18693 -0.64412,0.20444 -1.17113,0.57713 -1.17113,0.82821 0,0.73393 -2.12764,2.97796 -2.8235,2.97796 -0.35016,0 -1.26383,0.62718 -2.03038,1.39373 -0.76656,0.76655 -1.9643,1.57482 -2.66166,1.79615 -0.69736,0.22134 -1.26793,0.64817 -1.26793,0.94853 0,0.30036 -0.39525,0.54611 -0.87834,0.54611 -0.4831,0 -0.87835,0.24736 -0.87835,0.54968 0,0.30233 -1.18577,0.7275 -2.63504,0.94484 -1.44927,0.21733 -2.63504,0.62873 -2.63504,0.91422 0,0.28549 -0.65876,0.51908 -1.46391,0.51908 -0.80516,0 -1.46392,0.2635 -1.46392,0.58556 0,0.85046 -14.39506,0.74962 -16.7934,-0.11763 -1.06957,-0.38676 -1.94466,-0.88444 -1.94466,-1.10596 0,-0.22152 -0.92227,-0.57578 -2.04948,-0.78725 -1.12721,-0.21146 -2.04948,-0.63605 -2.04948,-0.94351 0,-0.30747 -0.3739,-0.55903 -0.83089,-0.55903 -0.97709,0 -4.64433,-1.85228 -4.92716,-2.48865 -0.10735,-0.24155 -1.07353,-0.43918 -2.14707,-0.43918 -1.07353,0 -2.04135,-0.26839 -2.15069,-0.59643 -0.30386,-0.91158 -9.39948,-1.03861 -9.70409,-0.13552 -0.13579,0.40257 -0.65584,0.73195 -1.15568,0.73195 -0.49984,0 -1.51931,0.65876 -2.2655,1.46392 -0.74619,0.80515 -1.73598,1.46391 -2.19953,1.46391 -1.35238,0 -1.69675,2.74566 -0.62709,4.99979 0.52903,1.11484 1.16602,2.02698 1.41554,2.02698 0.24952,0 0.6267,0.92227 0.83816,2.04948 0.21147,1.12721 0.63605,2.04947 0.94352,2.04947 0.30746,0 0.55903,0.65876 0.55903,1.46392 0,0.80515 0.2635,1.46391 0.58556,1.46391 0.33461,0 0.58557,1.75669 0.58557,4.09895 0,2.34226 -0.25096,4.09895 -0.58557,4.09895 -0.32206,0 -0.58556,1.31752 -0.58556,2.92783 0,1.6103 0.2635,2.92782 0.58556,2.92782 0.32206,0 0.58557,0.52701 0.58557,1.17113 0,0.64412 0.2635,1.17113 0.58556,1.17113 0.32206,0 0.58557,0.38328 0.58557,0.85173 0,0.46845 0.72452,1.57625 1.61006,2.46179 2.96991,2.96991 3.72679,5.43988 2.25932,7.37303 -1.02839,1.35474 -2.11269,1.30418 -2.11269,-0.0985 0,-1.89785 -0.659,-2.97571 -1.81934,-2.97571 -0.60966,0 -1.10848,0.24517 -1.10848,0.54484 0,0.29966 -0.59289,0.62904 -1.31752,0.73195 -1.25486,0.17822 -1.30744,0.39601 -1.10557,4.57885 0.11658,2.41546 0.44596,4.47957 0.73196,4.58692 0.286,0.10736 0.52,0.96375 0.52,1.90309 0,0.93934 0.2635,1.7079 0.58556,1.7079 0.32206,0 0.58557,1.18577 0.58557,2.63504 0,1.44927 0.2635,2.63504 0.58556,2.63504 0.32206,0 0.58557,0.38507 0.58557,0.85572 0,0.47064 1.05401,1.89925 2.34226,3.17468 1.28824,1.27543 2.34225,2.73489 2.34225,3.24324 0,0.50834 0.25157,0.92426 0.55904,0.92426 0.30746,0 0.71968,0.98814 0.91604,2.19587 0.19635,1.20773 0.86705,3.20891 1.49044,4.44707 1.19075,2.36505 1.54877,6.82505 0.54787,6.82505 -0.32206,0 -0.58556,0.28232 -0.58556,0.62739 0,0.34506 -0.39526,1.02265 -0.87835,1.50574 -0.48309,0.48309 -0.87835,1.38653 -0.87835,2.00765 0,0.62111 -0.2635,1.1293 -0.58556,1.1293 -0.33032,0 -0.58557,1.6591 -0.58557,3.80617 0,2.14707 -0.25524,3.80617 -0.58556,3.80617 -0.32206,0 -0.58556,0.42161 -0.58556,0.9369 0,1.21565 -3.7031,4.91875 -4.91875,4.91875 -0.51529,0 -0.9369,0.2635 -0.9369,0.58556 0,0.32206 -0.39526,0.58557 -0.87835,0.58557 -0.48309,0 -0.87834,0.2635 -0.87834,0.58556 0,0.33461 -1.7567,0.58557 -4.09896,0.58557 -2.25442,0 -4.09895,0.23494 -4.09895,0.52208 0,0.28715 -0.65876,0.68742 -1.46391,0.8895 -1.15194,0.28912 -1.46391,0.7394 -1.46391,2.11296 0,0.96004 0.22334,1.74554 0.49632,1.74554 0.27298,0 0.67523,3.35967 0.89389,7.46595 0.21866,4.10627 0.65408,7.55378 0.96759,7.66113 0.31351,0.10736 0.57002,2.26571 0.57002,4.79635 0,2.53064 0.22528,4.7404 0.50062,4.91057 0.27534,0.17016 0.68605,3.01838 0.91269,6.32937 0.22665,3.31099 0.66012,6.27031 0.96329,6.57627 0.30317,0.30595 0.55122,1.5576 0.55122,2.78143 0,1.22383 0.26351,2.22514 0.58557,2.22514 0.32206,0 0.58556,1.18577 0.58556,2.63504 0,1.44928 0.24755,2.63504 0.55011,2.63504 0.30256,0 0.73186,1.84453 0.95401,4.09896 0.22214,2.25442 0.63336,4.09895 0.9138,4.09895 0.28045,0 0.50991,0.79051 0.50991,1.75669 0,0.96618 0.2254,1.7567 0.50089,1.7567 0.27548,0 0.66523,1.75996 0.8661,3.91104 0.20087,2.15107 0.63423,4.18005 0.96303,4.50885 0.32878,0.32879 0.5978,1.33561 0.5978,2.23738 0,0.90177 0.2635,1.63958 0.58556,1.63958 0.32206,0 0.58557,0.92227 0.58557,2.04948 0,1.12721 0.24454,2.04948 0.54343,2.04948 0.29889,0 0.72494,1.45275 0.94678,3.22834 0.22185,1.77559 0.63607,3.37216 0.92048,3.54794 0.28442,0.17579 0.51713,0.96282 0.51713,1.74896 0,0.78615 0.24454,1.42935 0.54343,1.42935 0.29889,0 0.72494,1.45276 0.94679,3.22835 0.22184,1.77559 0.63606,3.37216 0.92047,3.54794 0.28443,0.17578 0.51713,0.96282 0.51713,1.74896 0,0.78615 0.23878,1.42935 0.53062,1.42935 0.29184,0 0.71944,1.37288 0.95022,3.05085 0.23078,1.67797 0.65076,3.5225 0.93329,4.09896 0.28253,0.57645 0.7772,1.57153 1.09926,2.21128 0.32206,0.63975 0.58557,1.95727 0.58557,2.92782 0,0.97055 0.25041,1.76464 0.55648,1.76464 0.30607,0 0.73537,1.58103 0.95399,3.51339 0.21862,1.93236 0.62696,3.51339 0.90742,3.51339 0.28046,0 0.50993,1.30197 0.50993,2.89326 0,1.5913 0.23894,3.04094 0.53098,3.22143 0.29204,0.18049 0.753,2.89696 1.02437,6.03659 0.71143,8.23106 0.28031,12.44243 -1.27372,12.44243 -0.47696,0 -1.3942,0.52701 -2.03832,1.17113 -1.03392,1.03392 -1.17113,1.95188 -1.17113,7.83483 l 0,6.6637 -3.31692,-0.0761 c -2.19009,-0.0502 -3.40024,0.17256 -3.56218,0.65586 -0.1349,0.40258 -0.61857,0.73196 -1.07482,0.73196 -0.45626,0 -0.82955,0.24575 -0.82955,0.5461 0,0.30036 -0.52701,0.71337 -1.17113,0.91781 -0.87453,0.27756 -1.17113,0.88597 -1.17113,2.40232 0,1.11684 -0.42348,2.67693 -0.94107,3.46687 -0.77712,1.18603 -0.8683,2.35565 -0.5234,6.71339 0.22972,2.90243 0.6532,5.27714 0.94107,5.27714 0.28787,0 0.5234,0.65876 0.5234,1.46391 0,0.80515 0.2635,1.46391 0.58556,1.46391 0.32206,0 0.58557,0.6368 0.58557,1.41512 0,0.77831 0.32938,1.52483 0.73195,1.65893 0.52879,0.17615 0.73196,2.10613 0.73196,6.95328 0,6.65533 -0.014,6.72344 -1.7343,8.44206 -1.69615,1.69449 -1.86275,1.73177 -7.57596,1.69532 -3.95657,-0.0252 -5.9164,-0.26145 -6.07324,-0.73196 -0.12735,-0.38207 -0.60486,-0.69468 -1.0611,-0.69468 -0.45626,0 -0.82956,-0.22983 -0.82956,-0.51072 0,-0.28091 -1.08406,-0.68408 -2.40903,-0.89595 -3.31076,-0.52941 -4.57377,-2.19372 -4.59826,-6.05928 -0.0107,-1.69082 0.24402,-3.07421 0.56608,-3.07421 0.32206,0 0.58557,-0.53528 0.58557,-1.18951 0,-0.65423 0.39525,-1.34118 0.87834,-1.52656 0.4831,-0.18538 0.87835,-0.72181 0.87835,-1.19207 0,-0.47027 0.92227,-1.72483 2.04948,-2.78793 1.12721,-1.0631 2.04947,-2.23117 2.04947,-2.59572 0,-0.36454 0.26351,-0.66281 0.58557,-0.66281 0.32206,0 0.58556,-1.18577 0.58556,-2.63504 0,-1.44928 -0.2635,-2.63504 -0.58556,-2.63504 -0.32206,0 -0.58557,-0.79052 -0.58557,-1.7567 0,-0.96618 -0.23494,-1.75669 -0.52208,-1.75669 -0.28715,0 -0.68742,-0.65876 -0.8895,-1.46391 -0.20209,-0.80515 -0.62591,-1.46391 -0.94183,-1.46391 -0.31592,0 -0.57441,-0.51146 -0.57441,-1.13657 0,-0.62512 -0.2635,-1.29943 -0.58556,-1.49848 -0.32206,-0.19904 -0.58557,-1.28743 -0.58557,-2.41864 0,-2.35295 -0.80372,-3.37654 -3.0845,-3.92828 -0.88001,-0.21289 -2.24516,-0.54693 -3.03366,-0.74233 -1.43471,-0.35552 -5.00757,0.83554 -5.00757,1.66933 0,0.24345 -0.60839,0.44263 -1.35199,0.44263 -0.7436,0 -1.86349,0.38687 -2.48865,0.85972 -0.62516,0.47284 -1.53962,0.8681 -2.03212,0.87835 -0.49251,0.0102 -1.26833,0.53593 -1.72405,1.16821 -0.45571,0.63226 -1.5837,1.31543 -2.50664,1.51814 -1.03113,0.22647 -1.88469,0.91204 -2.21403,1.77824 -0.29477,0.77532 -0.80598,1.40968 -1.13601,1.40968 -0.33003,0 -0.60006,0.527 -0.60006,1.17112 0,0.64413 -0.2635,1.17113 -0.58556,1.17113 -0.34164,0 -0.58557,1.95366 -0.58557,4.68985 0,4.36039 0.11758,4.81288 1.6737,6.44121 0.92054,0.96325 2.04814,1.75137 2.50577,1.75137 0.45764,0 1.21192,0.527 1.67618,1.17112 0.46426,0.64413 1.0697,1.17113 1.34544,1.17113 0.72331,0 3.92464,3.30677 3.92464,4.05391 0,0.34683 0.26351,0.63061 0.58557,0.63061 0.32531,0 0.58556,1.56151 0.58556,3.51339 0,1.95188 -0.26025,3.51339 -0.58556,3.51339 -0.32206,0 -0.58557,0.39525 -0.58557,0.87834 0,0.54653 -0.55303,0.87835 -1.46391,0.87835 -0.80515,0 -1.46391,0.2635 -1.46391,0.58556 0,0.32206 -0.28233,0.58557 -0.62739,0.58557 -0.34506,0 -1.02265,0.39525 -1.50574,0.87835 -0.48309,0.48309 -1.38653,0.87834 -2.00765,0.87834 -0.62111,0 -1.1293,0.26351 -1.1293,0.58557 0,0.32206 -0.39526,0.58556 -0.87835,0.58556 -0.48309,0 -0.87835,0.26351 -0.87835,0.58557 0,0.32206 -0.39525,0.58556 -0.87834,0.58556 -0.48309,0 -0.87835,0.26351 -0.87835,0.58557 0,0.34899 -2.23151,0.58556 -5.5234,0.58556 -5.00913,0 -5.55802,-0.10904 -5.89511,-1.17113 z m 52.40803,-217.24447 c 0,-0.32206 0.39526,-0.58556 0.87835,-0.58556 0.48309,0 0.87835,-0.24575 0.87835,-0.54611 0,-0.30036 0.527,-0.71337 1.17113,-0.91781 1.03274,-0.32778 1.17112,-0.88597 1.17112,-4.72397 0,-2.51114 -0.24771,-4.35228 -0.58556,-4.35228 -0.32206,0 -0.58556,-0.66988 -0.58556,-1.48863 0,-1.47978 -0.32438,-2.02908 -2.71126,-4.59119 -0.68603,-0.73641 -1.42842,-1.90949 -1.64975,-2.60685 -0.22134,-0.69736 -0.64818,-1.26793 -0.94854,-1.26793 -0.30035,0 -0.5461,-0.39525 -0.5461,-0.87834 0,-0.48309 -0.24575,-0.87835 -0.5461,-0.87835 -0.30036,0 -0.7272,-0.57057 -0.94854,-1.26793 -0.3859,-1.21588 -2.79198,-4.00215 -3.45605,-4.00215 -0.17567,0 -0.31939,3.6671 -0.31939,8.14911 0,5.78247 -0.2025,8.2166 -0.69726,8.38152 -0.40815,0.13605 -0.79789,1.81289 -0.93997,4.04429 -0.24799,3.89462 -0.22224,3.95939 2.47054,6.21466 0.48067,0.40258 1.41208,0.73196 2.06979,0.73196 0.65772,0 1.19585,0.2635 1.19585,0.58556 0,0.32206 0.92226,0.58557 2.04948,0.58557 1.12721,0 2.04947,-0.26351 2.04947,-0.58557 z m -14.97979,-20.85019 c 0.76617,-0.29401 0.92624,-1.45776 0.92624,-6.734 0,-5.82458 -0.0944,-6.37856 -1.08746,-6.37856 -0.94371,0 -1.13062,0.62983 -1.41405,4.76491 -0.28409,4.14487 -0.0323,8.70308 0.48076,8.70308 0.0926,0 0.58508,-0.15994 1.09451,-0.35543 z M 41.575131,200.75195 c 2.41546,-0.28122 4.47957,-0.76984 4.58693,-1.0858 0.10735,-0.31597 0.56848,-0.57449 1.02473,-0.57449 0.45626,0 0.82955,-0.2635 0.82955,-0.58556 0,-0.32206 0.54583,-0.58557 1.21296,-0.58557 0.66713,0 1.60821,-0.39525 2.0913,-0.87834 0.48309,-0.4831 1.39908,-0.87835 2.03554,-0.87835 1.37919,0 6.95706,-5.39801 6.95706,-6.73273 0,-1.04041 -2.53398,-3.80743 -3.48677,-3.80743 -0.3367,0 -0.61218,-0.24575 -0.61218,-0.54611 0,-0.30036 -0.59288,-0.73331 -1.31752,-0.96211 -0.72464,-0.2288 -1.74326,-0.90483 -2.26361,-1.50228 -0.52034,-0.59745 -1.77199,-1.25145 -2.78143,-1.45335 -1.00944,-0.20188 -1.83535,-0.59763 -1.83535,-0.87943 0,-0.2818 -0.39525,-0.51237 -0.87834,-0.51237 -0.48309,0 -0.87835,-0.2635 -0.87835,-0.58557 0,-0.32206 -0.51146,-0.58556 -1.13657,-0.58556 -0.62511,0 -1.29002,-0.24828 -1.47756,-0.55173 -0.18754,-0.30345 -1.52062,-0.72863 -2.96238,-0.94484 -1.44177,-0.2162 -2.62139,-0.62668 -2.62139,-0.91217 0,-0.2855 -3.68906,-0.51908 -8.19791,-0.51908 -4.50885,0 -8.1979,0.22663 -8.1979,0.50364 0,0.277 -1.51093,0.65958 -3.35761,0.85018 -1.84668,0.19059 -3.44967,0.62272 -3.56218,0.96026 -0.11252,0.33756 -0.54561,0.61374 -0.96243,0.61374 -0.41682,0 -1.08926,0.39932 -1.49431,0.88737 -0.60577,0.72991 -0.52945,1.06761 0.43011,1.90309 0.6416,0.55864 1.35375,1.60859 1.58256,2.33323 0.2288,0.72464 0.66175,1.31752 0.96211,1.31752 0.30035,0 0.5461,0.27548 0.5461,0.61218 0,0.3367 0.65876,1.27094 1.46391,2.0761 0.80515,0.80515 1.46391,1.7504 1.46391,2.10056 0,0.35016 0.48932,1.06282 1.08737,1.58368 0.59805,0.52088 1.27457,1.53992 1.50337,2.26456 0.2288,0.72463 0.66175,1.31752 0.96211,1.31752 0.30036,0 0.54611,0.27548 0.54611,0.61218 0,0.76865 2.68008,3.48677 3.43797,3.48677 0.30986,0 0.66797,0.31376 0.7958,0.69726 0.13691,0.41072 1.84135,0.7997 4.14775,0.94656 2.15343,0.13712 3.91533,0.5103 3.91533,0.8293 0,0.32991 0.44186,0.38995 1.02474,0.13925 0.56361,-0.24241 3.00102,-0.67085 5.41647,-0.95208 z m 41.575103,-13.66436 c 0,-0.48309 0.2635,-0.87835 0.58556,-0.87835 0.32206,0 0.58556,-0.79051 0.58556,-1.75669 0,-1.56151 -0.19518,-1.7567 -1.75669,-1.7567 -0.96618,0 -1.75669,0.25157 -1.75669,0.55903 0,0.30747 -0.92227,0.73205 -2.04948,0.94352 -1.48313,0.27824 -2.04948,0.6901 -2.04948,1.49044 0,0.71559 0.41338,1.10596 1.17113,1.10596 0.64412,0 1.17113,0.26351 1.17113,0.58557 0,0.32206 0.92227,0.58556 2.04948,0.58556 1.43138,0 2.04948,-0.26489 2.04948,-0.87834 z m -79.14538,-7.31956 c 1.304493,0 2.808208,-3.37861 2.043369,-4.59114 C 5.242052,173.89884 4.099,173.64378 4.099,174.74193 c 0,0.50993 -0.19918,0.92715 -0.442622,0.92715 -0.798691,0 -1.934867,3.32579 -1.512338,4.42688 0.24702,0.64373 0.507346,0.7943 0.647308,0.37442 0.128764,-0.38629 0.674842,-0.70235 1.213506,-0.70235 z m 3.607533,-14.63912 c 0.438499,-1.6103 1.013141,-2.92782 1.276983,-2.92782 0.263841,0 0.479711,-1.05402 0.479711,-2.34226 0,-1.28824 -0.263504,-2.34226 -0.585564,-2.34226 -0.322061,0 -0.585565,-0.39525 -0.585565,-0.87834 0,-0.48797 -0.520502,-0.87835 -1.171129,-0.87835 -1.079276,0 -1.171129,0.39038 -1.171129,4.9773 0,2.92782 -0.241115,4.9773 -0.585565,4.9773 -0.322061,0 -0.585565,0.52701 -0.585565,1.17113 0,0.74196 0.390377,1.17113 1.065276,1.17113 0.781653,0 1.277546,-0.77952 1.862547,-2.92783 z M 254.72066,142.87746 c 0.46425,-0.64412 1.14086,-1.17113 1.50358,-1.17113 1.02528,0 2.96878,-1.90813 3.42941,-3.367 0.2288,-0.72463 0.66175,-1.31752 0.96211,-1.31752 0.30036,0 0.54611,-0.39525 0.54611,-0.87834 0,-0.4831 0.2635,-0.87835 0.58556,-0.87835 0.32206,0 0.58557,-0.52701 0.58557,-1.17113 0,-0.64412 0.25156,-1.17113 0.55903,-1.17113 0.30746,0 0.73259,-0.92517 0.94472,-2.05595 0.21214,-1.13076 0.61933,-2.20033 0.90488,-2.37681 0.28555,-0.17648 0.51919,-0.83233 0.51919,-1.45745 0,-0.62511 0.25042,-1.13656 0.55648,-1.13656 0.30607,0 0.73537,-1.58103 0.95399,-3.51339 0.21862,-1.93237 0.62696,-3.51339 0.90742,-3.51339 0.28046,0 0.50993,-0.92226 0.50993,-2.04948 0,-1.95188 -0.0976,-2.04947 -2.04947,-2.04947 -1.12722,0 -2.04948,0.25443 -2.04948,0.5654 0,0.31096 -1.31752,0.74017 -2.92782,0.95378 -1.61031,0.21361 -2.92783,0.61795 -2.92783,0.89851 0,0.28057 -0.527,0.51013 -1.17113,0.51013 -0.64412,0 -1.17112,0.23494 -1.17112,0.52208 0,0.28715 -0.72464,0.70176 -1.61031,0.92135 -0.88566,0.21959 -2.46611,1.30218 -3.5121,2.40574 -1.046,1.10356 -2.16589,2.00648 -2.48865,2.00648 -0.32277,0 -0.58685,0.53527 -0.58685,1.1895 0,0.65423 -0.39526,1.34118 -0.87835,1.52656 -0.48309,0.18539 -0.87834,0.80768 -0.87834,1.38289 0,0.5752 -0.39526,1.1975 -0.87835,1.38289 -0.48309,0.18537 -0.87835,0.87232 -0.87835,1.52656 0,0.65422 -0.2635,1.1895 -0.58556,1.1895 -1.16787,0 -0.5591,3.00826 0.87835,4.34045 0.80515,0.74619 1.46391,1.65587 1.46391,2.02152 0,0.36564 0.24575,0.66481 0.5461,0.66481 0.30036,0 0.72619,0.56739 0.9463,1.26088 1.1334,3.57103 5.52944,5.2822 7.29107,2.83807 z"
     id="path2987"
     inkscape:connector-curvature="0" />
</svg>
