<?xml version="1.0" encoding="UTF-8" standalone="no"?>
<!-- Created with Inkscape (http://www.inkscape.org/) -->

<svg
   xmlns:dc="http://purl.org/dc/elements/1.1/"
   xmlns:cc="http://creativecommons.org/ns#"
   xmlns:rdf="http://www.w3.org/1999/02/22-rdf-syntax-ns#"
   xmlns:svg="http://www.w3.org/2000/svg"
   xmlns="http://www.w3.org/2000/svg"
   xmlns:sodipodi="http://sodipodi.sourceforge.net/DTD/sodipodi-0.dtd"
   xmlns:inkscape="http://www.inkscape.org/namespaces/inkscape"
   id="svg2"
   version="1.1"
   inkscape:version="0.48.4 r9939"
   width="425.80383"
   height="686.85583"
   sodipodi:docname="yuka.bmp">
  <metadata
     id="metadata8">
    <rdf:RDF>
      <cc:Work
         rdf:about="">
        <dc:format>image/svg+xml</dc:format>
        <dc:type
           rdf:resource="http://purl.org/dc/dcmitype/StillImage" />
        <dc:title></dc:title>
      </cc:Work>
    </rdf:RDF>
  </metadata>
  <defs
     id="defs6" />
  <sodipodi:namedview
     pagecolor="#ffffff"
     bordercolor="#666666"
     borderopacity="1"
     objecttolerance="10"
     gridtolerance="10"
     guidetolerance="10"
     inkscape:pageopacity="0"
     inkscape:pageshadow="2"
     inkscape:window-width="956"
     inkscape:window-height="1041"
     id="namedview4"
     showgrid="false"
     fit-margin-top="0"
     fit-margin-left="0"
     fit-margin-right="0"
     fit-margin-bottom="0"
     inkscape:zoom="1.2506264"
     inkscape:cx="212.90191"
     inkscape:cy="343.42793"
     inkscape:window-x="1860"
     inkscape:window-y="18"
     inkscape:window-maximized="0"
     inkscape:current-layer="svg2" />
  <path
     style="fill:#ff0000"
     d="m 163.8,685.49259 c -4.62,-0.54361 -11.1,-2.2145 -14.4,-3.7131 -3.3,-1.4986 -8.16,-3.12528 -10.8,-3.61486 -12.08803,-2.24166 -26.94542,-6.33075 -32.62446,-8.979 -3.42345,-1.59642 -6.66345,-2.90312 -7.2,-2.90377 -0.53655,-6.6e-4 -5.29554,-4.0434 -10.57554,-8.98387 -8.48776,-7.94196 -10.68466,-9.33211 -18.96195,-11.9988 -5.14907,-1.65888 -12.16907,-3.02022 -15.6,-3.0252 -10.95226,-0.016 -21.22291,-2.25726 -25.5831,-5.58293 C 25.82473,634.98999 24,632.85229 24,631.94062 c 0,-0.91166 -0.54,-1.65757 -1.2,-1.65757 -0.66,0 -2.26755,-1.06756 -3.57234,-2.37234 -1.30478,-1.30478 -4.27457,-3.16714 -6.59953,-4.13857 C 5.44696,620.77166 0,615.93283 0,612.55389 0,609.46364 3.85854,603.44307 9.49413,597.73999 16.6303,590.51835 18,588.13948 18,582.9671 c 0,-3.59167 0.7153,-5.75941 2.40506,-7.28863 1.32278,-1.1971 2.92967,-4.1248 3.57086,-6.50601 0.64119,-2.38119 2.12392,-5.60871 3.29494,-7.17225 3.04728,-4.06871 17.48787,-18.11716 18.62286,-18.11716 0.52468,0 2.96824,-1.26341 5.43013,-2.80758 C 53.78573,539.5313 57.69,537.9239 60,537.50348 c 2.31,-0.42043 7.98,-1.84129 12.6,-3.15748 4.62,-1.31619 9.75,-2.40248 11.4,-2.41399 3.54829,-0.0247 19.5656,-5.1964 28.5328,-9.21263 3.48304,-1.55997 6.93922,-2.83633 7.68039,-2.83633 1.26534,0 5.46346,-1.80798 21.38681,-9.21056 11.66777,-5.42422 14.4,-6.916 14.4,-7.86232 0,-0.50992 0.77045,-0.92712 1.7121,-0.92712 2.05002,0 16.2879,-9.64093 16.2879,-11.02907 0,-0.53401 0.79756,-0.97093 1.77234,-0.97093 0.97478,0 2.65688,-1.35 3.73801,-3 1.08112,-1.65 2.45248,-3 3.04747,-3 1.10048,0 22.20069,-21.21805 32.51028,-32.69184 3.11746,-3.46949 8.92108,-9.81816 12.89693,-14.10816 6.67213,-7.19933 7.17252,-8.12344 6.49779,-12 -0.40206,-2.31 -2.02068,-6.45616 -3.59692,-9.21368 -1.57625,-2.75753 -2.8659,-5.65355 -2.8659,-6.4356 0,-0.78206 -2.7,-6.21153 -6,-12.0655 -5.5932,-9.92195 -6,-11.20542 -6,-18.93017 0,-5.27838 1.08906,-12.04469 3,-18.63894 1.65,-5.69381 3,-11.50758 3,-12.91949 0,-1.4119 1.32316,-7.20874 2.94035,-12.88186 7.94939,-27.88647 9.28758,-35.06895 10.99905,-59.03541 0.93963,-13.15796 -0.13488,-15.60144 -6.44109,-14.64734 -3.71109,0.56145 -4.2358,0.40121 -2.99831,-0.91572 0.825,-0.87796 1.5,-3.09796 1.5,-4.93333 0,-3.27249 -0.11028,-3.32444 -5.7,-2.68548 -3.135,0.35835 -6.64446,0.83733 -7.7988,1.06438 -3.09814,0.60939 -3.74831,-1.43814 -0.93481,-2.94387 3.90582,-2.09033 2.85338,-3.33504 -3.56639,-4.21799 -4.81294,-0.66194 -6,-1.27776 -6,-3.11261 0,-1.52659 -0.84151,-2.28739 -2.53009,-2.28739 -2.09955,0 -2.40196,-0.5105 -1.77714,-3 0.70242,-2.79866 0.44942,-3.00236 -3.76991,-3.03517 -6.6735,-0.0519 -12.32286,-5.4969 -12.32286,-11.8771 0,-2.61035 -0.51642,-5.06525 -1.1476,-5.45534 -0.63117,-0.39009 -0.84339,-1.50196 -0.47161,-2.47083 0.80865,-2.10728 -1.61717,-2.29216 -6.40267,-0.48796 -3.64541,1.37438 -11.17812,8.07313 -11.17812,9.94058 0,1.52069 -8.18689,9.41723 -11.60218,11.1907 -1.48801,0.77269 -4.21125,2.22832 -6.05164,3.23475 -1.8404,1.00643 -6.35178,2.15567 -10.02531,2.55387 -3.67352,0.3982 -8.39852,1.76962 -10.5,3.04761 -3.40015,2.06776 -3.82087,2.92882 -3.82087,7.8199 0,7.40931 -6.79099,21.99709 -12.97573,27.87326 -6.82028,6.48001 -11.93132,8.67165 -28.80702,12.3526 -7.06917,1.54194 -8.61175,3.63317 -8.62394,11.69125 -0.0126,8.29866 -2.38128,13.58586 -9.40731,20.99801 -7.02704,7.41321 -14.02881,11.55195 -19.62025,11.59752 -2.99145,0.0244 -3.26171,0.44503 -3.6,5.60343 -0.26643,4.06259 -1.00997,5.93633 -2.7381,6.9 -1.3048,0.72761 -3.01188,2.12692 -3.79352,3.10958 -1.21697,1.52996 -2.2413,1.09153 -7.12935,-3.05151 -6.9206,-5.86578 -6.77249,-5.58901 -10.56117,-19.73515 -8.9423,-33.38866 -11.13683,-62.40222 -6.71667,-88.8 1.49193,-8.91 3.09233,-18.63 3.55645,-21.6 0.98958,-6.33254 6.40523,-23.58726 9.7085,-30.9321 C 22.96135,184.9283 24,182.05111 24,181.35719 c 0,-1.2494 6.55481,-15.77626 10.77249,-23.87414 6.33319,-12.15964 10.02473,-18.78474 11.36696,-20.4 0.82266,-0.99 1.79542,-2.65258 2.16168,-3.69462 0.98522,-2.80306 9.07791,-15.22718 10.48493,-16.09676 C 59.45373,116.87902 60,115.76945 60,114.82595 c 0,-0.94351 0.77475,-2.66664 1.72167,-3.82918 C 65.86473,105.91026 72,97.401295 72,96.741805 c 0,-0.39626 1.04251,-1.87659 2.31669,-3.28961 C 80.67596,86.399955 84,82.027025 84,80.713325 84,79.538755 67.44279,60.366365 56.40242,48.756765 55.08109,47.367315 54,45.678435 54,45.003705 c 0,-0.67473 -0.83521,-1.91994 -1.85602,-2.76714 -3.02235,-2.50833 -6.8133,-8.35351 -5.41776,-8.35351 0.70931,0 2.46346,1.35 3.89812,3 1.43466,1.65 3.27608,3 4.09206,3 0.81598,0 1.6636,0.42737 1.8836,0.9497 0.22,0.52234 2.56,2.53401 5.2,4.47039 4.49857,3.29959 7.51186,5.99762 21,18.80293 8.39431,7.96935 10.30551,8.68206 14.8242,5.52807 2.07669,-1.4495 4.10785,-3.11531 4.51369,-3.7018 0.40584,-0.58648 1.84906,-1.6925 3.20714,-2.45781 1.35809,-0.76531 5.81257,-3.68648 9.89885,-6.49148 4.08628,-2.805 7.6741,-5.1 7.97292,-5.1 0.29884,0 2.31327,-1.35 4.47653,-3 2.16327,-1.65 4.33888,-3 4.83469,-3 0.49582,0 2.59794,-1.215 4.6714,-2.7 2.07344,-1.485 5.66681,-3.63346 7.98524,-4.77435 2.31844,-1.1409 5.02534,-2.54197 6.01534,-3.11349 0.99,-0.57153 2.88,-1.56783 4.2,-2.21402 1.32,-0.64618 4.02,-2.04549 6,-3.10956 1.98,-1.06408 7.38,-3.63636 12,-5.71617 4.62,-2.07982 10.02,-4.52668 12,-5.43748 3.39581,-1.56207 5.36064,-2.29359 18.6,-6.92491 8.7436,-3.0586305 21.7284,-6.6841605 28.53229,-7.9666005 3.48276,-0.65645 7.53276,-1.85055 9,-2.65357 1.88025,-1.02904995 9.57498,-1.39455995 26.06771,-1.23824995 29.48285,0.27941 53.17912,3.13134995 72.6,8.73769995 1.98,0.57158 5.60382,1.3458105 8.05292,1.7205105 5.11942,0.78325 13.19946,7.40539 15.33941,12.57168 1.1745,2.83549 1.04776,3.8003 -0.79805,6.07501 -4.48618,5.52866 -6.45316,7.1435 -8.70122,7.1435 -1.57208,0 -2.74808,1.33668 -3.69184,4.19628 -1.74626,5.29123 -5.01052,7.58964 -12.11806,8.53249 -5.41458,0.71826 -5.6243,0.89727 -6.21552,5.30521 -0.59646,4.44689 -7.16856,15.56602 -9.2005,15.56602 -0.55967,0 -3.90872,3.0129 -7.44235,6.69534 -7.56925,7.888 -11.38276,9.71409 -24.91695,11.93142 -5.55068,0.90938 -10.49383,2.30335 -10.98476,3.0977 -0.49094,0.79435 -1.26512,4.42578 -1.72043,8.06983 -0.75489,6.042005 -0.58049,6.812105 1.98024,8.743655 1.54443,1.16496 5.51008,2.48507 8.81257,2.93357 6.10402,0.82897 18.4662,6.46998 21.0795,9.61882 0.79032,0.95227 3.52677,2.90594 6.08099,4.3415 2.55423,1.43555 4.64405,3.05066 4.64405,3.58913 0,0.53846 1.09158,0.97903 2.42574,0.97903 1.83355,0 3.31847,1.9774 6.08264,8.1 2.01131,4.455 4.69535,10.26 5.96456,12.9 1.2692,2.64 3.17396,7.73948 4.23279,11.33219 1.64572,5.58402 1.69678,7.23877 0.35185,11.4 -3.06145,9.47214 -8.77294,16.23879 -17.73315,21.00921 -2.70495,1.44012 -2.83314,1.36269 -2.16053,-1.30521 0.68759,-2.72729 0.60218,-2.70691 -2.22443,0.53072 -1.61671,1.85181 -2.93947,4.61646 -2.93947,6.14368 0,1.52721 -1.12074,6.22211 -2.49054,10.43309 -1.72963,5.31716 -2.29685,9.39778 -1.85654,13.35632 0.3487,3.135 0.40332,5.7 0.12136,5.7 -0.28196,0 -1.35038,-1.62 -2.37428,-3.6 -1.0239,-1.98 -2.26404,-3.6 -2.75588,-3.6 -0.49184,0 -2.22359,2.43348 -3.84834,5.40774 -3.31466,6.06774 -6.29352,7.66595 -9.08518,4.87429 -2.12208,-2.12208 -5.99124,-2.4932 -7.1106,-0.68203 -1.27177,2.05777 -3,1.31579 -3,-1.28798 0,-1.72113 -0.64728,-2.36534 -2.1,-2.09003 -1.45122,0.27503 -2.21231,1.73903 -2.46354,4.73874 -0.44866,5.35701 2.09764,8.22489 7.34926,8.27743 4.38702,0.0439 6.54144,1.50376 9.6838,6.56184 1.2301,1.98 4.84836,6.3 8.04059,9.6 3.19224,3.3 7.96199,8.295 10.59946,11.1 2.63747,2.805 5.05699,5.1 5.37673,5.1 0.94015,0 19.1759,18.37572 20.84004,21 4.0201,6.33954 5.07366,10.53764 5.07366,20.21676 l 0,10.09385 4.66654,4.80854 c 2.92033,3.00921 7.29842,5.78673 11.7,7.42265 5.20524,1.93462 8.749,4.40471 13.63346,9.50285 3.63,3.78881 8.625,8.37121 11.1,10.18311 3.41444,2.49966 4.5,4.13681 4.5,6.78657 0,2.06697 1.09216,4.50968 2.67612,5.98536 8.77639,8.17646 20.13092,0.64659 20.11783,-13.34133 -0.005,-5.60418 -0.60042,-7.24033 -4.5,-12.37071 -2.47167,-3.2518 -6.11395,-6.80181 -8.09395,-7.88891 -5.86097,-3.21794 -5.27938,-11.99874 0.79474,-11.99874 3.46333,0 11.59857,4.50581 15.6875,8.68873 12.34975,12.63361 12.12443,35.56273 -0.4642,47.23769 -4.57992,4.24752 -6.52707,5.10306 -14.57206,6.4027 -5.23848,0.84625 -6.35355,0.56852 -12.4454,-3.0998 -3.68024,-2.21612 -6.82768,-4.02932 -6.9943,-4.02932 -0.16664,0 -2.66621,2.16175 -5.55462,4.80389 -2.88842,2.64213 -7.01855,5.38794 -9.17808,6.10178 -2.7152,0.89752 -4.44554,2.54032 -5.60924,5.32542 -1.3081,3.13074 -2.72936,4.30933 -6.383,5.29315 -2.58511,0.6961 -5.66126,2.32758 -6.83587,3.62553 -1.17462,1.29793 -4.03402,2.98639 -6.35423,3.75213 l -4.21854,1.39224 0.72697,8.60014 c 0.39984,4.73008 1.53456,12.43925 2.52161,17.13149 0.98705,4.69225 2.36404,15.201 3.05998,23.35279 0.69594,8.15179 2.05572,19.68144 3.02173,25.62144 0.966,5.94 2.30378,25.11 2.97284,42.6 0.66906,17.49 1.77153,46.11 2.44992,63.6 0.67841,17.49 1.73643,35.85 2.35116,40.8 0.61474,4.95 1.14142,19.43387 1.1704,32.18638 l 0.0527,23.18637 -47.7,-0.75585 c -61.13315,-0.96873 -95.94974,-1.04242 -118.5,-0.25084 -9.9,0.34753 -21.78,0.18709 -26.4,-0.35652 z M 341.18148,360.58305 c 0.28772,-0.495 0.86986,-4.68 1.29364,-9.3 0.7352,-8.01517 0.68539,-8.2491 -1.0874,-5.10617 -2.03509,3.60796 -4.24352,13.65036 -3.2257,14.66819 0.91567,0.91566 2.41033,0.78596 3.01946,-0.26202 l 0,0 z"
     id="path3015"
     inkscape:connector-curvature="0" />
</svg>
