<?xml version="1.0" encoding="UTF-8" standalone="no"?>
<!-- Created with Inkscape (http://www.inkscape.org/) -->

<svg
   xmlns:dc="http://purl.org/dc/elements/1.1/"
   xmlns:cc="http://creativecommons.org/ns#"
   xmlns:rdf="http://www.w3.org/1999/02/22-rdf-syntax-ns#"
   xmlns:svg="http://www.w3.org/2000/svg"
   xmlns="http://www.w3.org/2000/svg"
   xmlns:sodipodi="http://sodipodi.sourceforge.net/DTD/sodipodi-0.dtd"
   xmlns:inkscape="http://www.inkscape.org/namespaces/inkscape"
   id="svg2"
   version="1.1"
   inkscape:version="0.48.4 r9939"
   width="641.34161"
   height="684.72986"
   sodipodi:docname="yuyuko2.bmp">
  <metadata
     id="metadata8">
    <rdf:RDF>
      <cc:Work
         rdf:about="">
        <dc:format>image/svg+xml</dc:format>
        <dc:type
           rdf:resource="http://purl.org/dc/dcmitype/StillImage" />
        <dc:title></dc:title>
      </cc:Work>
    </rdf:RDF>
  </metadata>
  <defs
     id="defs6" />
  <sodipodi:namedview
     pagecolor="#ffffff"
     bordercolor="#666666"
     borderopacity="1"
     objecttolerance="10"
     gridtolerance="10"
     guidetolerance="10"
     inkscape:pageopacity="0"
     inkscape:pageshadow="2"
     inkscape:window-width="956"
     inkscape:window-height="1041"
     id="namedview4"
     showgrid="false"
     fit-margin-top="0"
     fit-margin-left="0"
     fit-margin-right="0"
     fit-margin-bottom="0"
     inkscape:zoom="1.1363636"
     inkscape:cx="339.68"
     inkscape:cy="430.144"
     inkscape:window-x="960"
     inkscape:window-y="18"
     inkscape:window-maximized="0"
     inkscape:current-layer="svg2" />
  <path
     style="fill:#ff0000"
     d="m 1.109725,680.66102 c 0.252239,-2.23786 0.838946,-4.31686 1.303792,-4.62 0.464846,-0.30314 2.184421,-6.09516 3.821278,-12.87116 1.636857,-6.776 3.275016,-12.5385 3.640353,-12.80557 0.703747,-0.51444 2.444852,-8.7302 2.444852,-11.53654 0,-1.13573 -0.820689,-1.82603 -2.592157,-2.18032 -1.425686,-0.28514 -3.306686,-1.50712 -4.18,-2.71551 -0.873314,-1.2084 -2.081306,-2.71738 -2.684427,-3.3533 C 1.461806,629.10079 0,625.26887 0,623.07257 c 0,-0.93649 0.807814,-2.51052 1.795142,-3.49785 2.855085,-2.85509 3.731029,-6.04604 2.485277,-9.05355 -1.135638,-2.74168 -1.067582,-2.84818 4.519581,-7.07314 1.911404,-1.44539 6.689162,-8.54666 7.480341,-11.11817 0.372281,-1.21 0.974377,-2.398 1.337993,-2.64 0.960978,-0.63957 3.50251,-16.26272 3.496758,-21.49507 -0.0056,-5.12785 -1.309403,-10.49263 -2.949143,-12.13524 -0.620247,-0.62133 -1.352394,-1.92169 -1.626996,-2.88969 -0.274601,-0.968 -0.78457,-2.453 -1.133264,-3.3 -0.504336,-1.22507 -0.184081,-1.54 1.56601,-1.54 2.701099,0 3.162615,-1.12419 3.863003,-9.40977 0.599299,-7.08969 0.934388,-7.51975 6.665298,-8.55428 1.919484,-0.3465 3.3,-1.10055 3.3,-1.80249 0,-0.66373 0.402405,-1.34093 0.894231,-1.50487 0.491828,-0.16395 1.28855,-2.86995 1.770493,-6.01333 1.355076,-8.83824 5.312657,-25.51526 6.054959,-25.51526 0.365763,0 1.092138,-1.287 1.614169,-2.86 0.522031,-1.573 1.776473,-5.03241 2.787648,-7.68757 1.011175,-2.65518 1.8385,-5.99515 1.8385,-7.42217 0,-3.05005 -3.224346,-10.13252 -4.698501,-10.32055 -0.561825,-0.0716 -1.813499,-0.17066 -2.781499,-0.22 -1.125481,-0.0574 -1.862351,-0.81095 -2.043898,-2.09026 -0.275275,-1.93979 2.202902,-10.75092 3.273659,-11.63945 0.291631,-0.242 1.339306,-2.01972 2.328166,-3.9505 0.98886,-1.93079 3.16686,-4.39892 4.84,-5.48476 1.67314,-1.08584 3.441646,-2.30359 3.930011,-2.7061 0.488367,-0.40251 3.953367,-2.20626 7.7,-4.00831 3.746635,-1.80206 6.813272,-3.55859 6.81475,-3.9034 0.0015,-0.34481 2.971479,-1.99038 6.6,-3.65683 3.628522,-1.66645 6.597312,-3.30309 6.597312,-3.63698 0,-0.33389 2.114544,-1.60827 4.698986,-2.83195 2.584443,-1.22367 5.257444,-2.75503 5.940004,-3.40302 0.68255,-0.64798 2.75633,-1.8792 4.60838,-2.73604 1.85205,-0.85684 3.21037,-2.02889 3.01847,-2.60457 -0.19189,-0.57568 -3.09321,-2.23626 -6.44736,-3.69018 -3.354165,-1.45391 -6.29648,-2.86726 -6.53848,-3.14077 -0.242,-0.2735 -3.853614,-1.6163 -8.02581,-2.98401 -6.478326,-2.12368 -7.891549,-2.32625 -9.68,-1.38754 -2.823214,1.48185 -10.152963,9.14985 -11.81091,12.35597 -0.736254,1.42376 -2.118188,3.07548 -3.070962,3.6705 C 50.059543,419.78639 49.28,420.59 49.28,420.97718 c 0,1.37835 -3.871489,5.91268 -5.048354,5.91268 -1.973771,0 0.07787,-13.38726 2.289927,-14.94209 1.982669,-1.39361 5.332316,-7.06062 5.862253,-9.91791 0.336626,-1.815 0.912161,-3.3 1.278969,-3.3 0.366807,0 0.893324,-1.287 1.170038,-2.86 0.276715,-1.573 1.312514,-7.216 2.301779,-12.54 0.989263,-5.324 1.804675,-11.1998 1.812024,-13.05735 l 0.01336,-3.37735 -3.52,0.5947 c -3.517306,0.59425 -4.799848,-0.46196 -2.351182,-1.93627 0.64285,-0.38705 1.924668,-2.08973 2.848484,-3.78373 0.923816,-1.694 2.420283,-3.94269 3.325483,-4.9971 0.9052,-1.0544 1.432033,-2.4404 1.170742,-3.08 -0.311661,-0.76289 -0.682103,-0.48182 -1.076937,0.8171 -0.331024,1.089 -1.019494,1.98 -1.529934,1.98 -0.51044,0 -1.553254,0.55381 -2.317364,1.2307 -2.003761,1.77502 -7.857465,4.93162 -9.116058,4.91583 -0.676307,-0.009 -0.745098,-0.25259 -0.186001,-0.66 0.88876,-0.64765 3.359498,-7.39408 4.315922,-11.78478 0.280136,-1.28603 0.775822,-3.03269 1.101522,-3.88145 0.607604,-1.58339 -0.377206,-1.57109 -4.324677,0.054 -1.090804,0.44904 -1.54,0.22148 -1.54,-0.78018 0,-0.77779 0.305948,-1.41415 0.679884,-1.41415 0.373937,0 1.363937,-1.386 2.2,-3.08 l 3.040232,-6.16 c 0.836063,-1.694 1.787324,-3.08 2.113914,-3.08 0.326589,0 1.03328,-1.2607 1.570424,-2.80155 0.752826,-2.15956 0.722138,-2.97283 -0.133914,-3.54901 -1.36522,-0.91886 -10.678173,0.0499 -11.083873,1.153 -0.376837,1.0246 -2.786667,1.04564 -2.786667,0.0243 0,-0.42528 1.287,-1.2938 2.86,-1.93004 1.573,-0.63624 3.058,-1.41632 3.3,-1.7335 0.242,-0.31719 2.42,-1.65695 4.84,-2.97724 2.42,-1.32029 4.796,-2.898 5.28,-3.50602 0.484,-0.60803 2.046466,-1.66676 3.472147,-2.35274 1.929886,-0.92857 3.11024,-2.58804 4.62,-6.49532 1.115319,-2.88645 2.027853,-5.92245 2.027853,-6.74667 0,-0.82421 0.388275,-1.63056 0.862835,-1.7919 0.474559,-0.16133 1.25183,-2.34872 1.727269,-4.86086 1.041459,-5.50288 3.86428,-48.67142 3.224495,-49.3112 -0.247934,-0.24794 -1.139505,0.23793 -1.981268,1.07968 -1.225256,1.22526 -2.489527,1.4315 -6.339447,1.03415 -2.644932,-0.27298 -5.044075,-0.83726 -5.331426,-1.25395 -0.287352,-0.41669 -4.280384,-2.08955 -8.873405,-3.71747 -4.593021,-1.62792 -8.878307,-3.48722 -9.522857,-4.13177 -0.644551,-0.64455 -1.638624,-1.17356 -2.209054,-1.1756 -0.570428,-0.002 -2.985255,-0.99202 -5.366283,-2.2 -2.381027,-1.20796 -4.856027,-2.19631 -5.5,-2.19631 -0.643972,0 -1.170859,-0.34984 -1.170859,-0.77741 0,-0.42758 -0.891,-0.98503 -1.98,-1.23877 -3.250012,-0.75727 -16.00878,-6.27411 -16.706525,-7.22382 -1.070428,-1.45699 -0.769275,-2.70207 1.191316,-4.92535 1.025635,-1.16306 2.601976,-3.81261 3.502981,-5.88791 l 1.63819,-3.77325 -2.27656,-5.68675 c -1.252108,-3.1277 -2.567203,-5.68674 -2.922432,-5.68674 -1.105904,0 -2.850229,-9.04157 -2.541176,-13.17197 0.250267,-3.34475 0.688484,-4.13331 2.934206,-5.28 1.452,-0.74142 2.772,-1.64503 2.933333,-2.00803 0.441126,-0.99253 4.546667,-0.79387 4.546667,0.22 0,0.484 0.891,0.87492 1.98,0.86872 1.089,-0.006 4.838024,0.65715 8.331162,1.4741 6.122192,1.43183 6.470691,1.42431 9.666576,-0.20871 1.823477,-0.93177 3.797737,-2.14211 4.387244,-2.68966 0.589509,-0.54756 4.159549,-2.10946 7.933426,-3.47091 3.773875,-1.36145 7.059592,-2.73321 7.301592,-3.04837 0.242,-0.31515 1.848371,-0.79491 3.569714,-1.06613 1.721342,-0.27122 4.607615,-1.11063 6.413938,-1.86535 l 3.284224,-1.37224 -0.603752,-8.17073 c -0.332064,-4.4939 -0.941336,-8.30272 -1.353938,-8.46405 -0.990387,-0.38726 -0.974779,-11.58667 0.01615,-11.58667 0.421483,0 1.04274,-2.44312 1.380571,-5.42914 0.684382,-6.04914 4.728882,-22.04611 5.747024,-22.73086 0.359824,-0.242 1.955556,-4.202 3.546071,-8.8 1.590515,-4.597996 3.186668,-8.557996 3.547007,-8.799996 0.36034,-0.242 1.724074,-3.014 3.030521,-6.16 1.306445,-3.146 3.33095,-6.62703 4.49892,-7.73561 1.16795,-1.10859 2.12355,-2.45721 2.12355,-2.99694 0,-0.53973 0.99,-2.27928 2.2,-3.86567 1.21,-1.58639 2.2,-3.059 2.2,-3.27246 0,-0.21345 1.386,-1.90126 3.08,-3.750678 1.694,-1.849417 3.08,-3.646056 3.08,-3.992532 0,-0.991474 8.91089,-9.828227 12.32,-12.217502 1.694,-1.18724 4.07,-3.100055 5.28,-4.250702 1.21,-1.150646 3.487,-2.652208 5.06,-3.336805 1.573,-0.684596 2.86,-1.604493 2.86,-2.044216 0,-0.929857 12.64672,-7.096885 14.55358,-7.096885 0.70753,0 1.28642,-0.329283 1.28642,-0.73174 0,-0.803045 4.8147,-2.178241 14.96,-4.272946 8.3362,-1.721177 39.19593,-2.546099 48.84,-1.305558 3.872,0.498065 13.376,1.732839 21.12,2.743942 7.744,1.011103 14.99949,1.831154 16.1233,1.822336 2.60874,-0.02047 9.60226,-4.093684 10.76775,-6.271428 0.48998,-0.915533 1.42319,-1.664606 2.0738,-1.664606 0.65061,0 2.82864,-1.597118 4.84009,-3.549151 2.01143,-1.952033 6.01918,-4.749447 8.90611,-6.216477 C 274.83797,9.9771573 277.2,8.4738673 277.2,8.1035443 c 0,-0.370324 2.673,-2.006751 5.94,-3.636504 3.267,-1.629753 6.072,-3.281346 6.23333,-3.67020703 0.90771,-2.18784597 2.94051,0.148858 5.89211,6.77298103 1.83313,4.1139997 3.61975,7.4799997 3.97026,7.4799997 0.67228,0 4.83836,12.511988 5.78698,17.38 0.30653,1.573 0.82169,2.86 1.14481,2.86 0.32311,0 1.05615,1.752312 1.62897,3.894026 0.68761,2.570912 1.64665,4.086096 2.82252,4.459302 0.97956,0.3109 1.78102,0.934589 1.78102,1.385973 0,0.451384 0.45665,0.820699 1.01478,0.820699 1.16685,0 12.4035,5.193008 13.06522,6.038085 0.41958,0.53583 3.89752,2.572501 8.24146,4.826166 2.45841,1.275435 4.92602,3.536696 17.55041,16.082839 13.90598,13.81979 14.60412,14.66514 18.43367,22.32085 0.60196,1.20335 1.7286,2.8275 2.50366,3.60919 0.77506,0.7817 2.33065,3.460126 3.45687,5.952066 1.12621,2.49194 2.32691,4.5308 2.66821,4.5308 0.3413,0 0.82587,0.891 1.07683,1.98 0.25096,1.089 1.48512,4.71113 2.74259,8.04918 1.25747,3.33806 2.2863,6.77006 2.2863,7.62667 0,0.85661 0.38863,1.68948 0.86362,1.85082 0.47499,0.16133 1.71095,4.05533 2.74659,8.65333 1.4704,6.52825 1.96605,12.21632 2.26214,25.96 0.36016,16.71842 0.2689,17.99273 -1.82204,25.44053 -1.21066,4.31229 -2.55796,8.07429 -2.99401,8.36 -1.40491,0.92053 -2.8163,4.29804 -2.8163,6.73952 0,3.10165 1.85214,9.32712 3.18247,10.69702 1.04488,1.07596 6.49753,14.63565 6.49753,16.15812 0,0.44265 0.3136,0.80481 0.69688,0.80481 0.69372,0 4.73095,8.32779 5.86597,12.1 0.32766,1.089 0.97043,1.98 1.42838,1.98 0.45795,0 1.80192,2.11909 2.98661,4.7091 3.0821,6.73813 2.35838,10.01132 -3.55205,16.06515 -3.80715,3.89952 -5.16613,4.74575 -7.62137,4.74575 -1.64342,0 -3.75672,-0.58141 -4.69623,-1.29202 -0.9395,-0.7106 -2.00519,-1.3046 -2.36819,-1.32 -0.88979,-0.0377 -0.84718,5.02752 0.0454,5.39869 0.38798,0.16133 1.60548,6.03533 2.70555,13.05333 2.61698,16.69521 4.69654,27.6127 5.36392,28.16 0.29509,0.242 1.81954,6.36409 3.38766,13.60465 1.56813,7.24056 3.17278,13.37856 3.56591,13.64 0.39313,0.26144 1.01574,1.86135 1.38357,3.55535 2.43422,11.2104 4.77052,19.60561 5.6248,20.21207 0.6931,0.49205 6.18534,18.09343 6.94211,22.24793 0.24245,1.331 0.71365,2.42 1.0471,2.42 0.33346,0 1.33582,2.079 2.22748,4.62 1.70041,4.84577 3.62092,7.67809 5.24287,7.73207 1.22656,0.0408 5.80361,6.02643 5.80361,7.58964 0,0.64805 0.32265,1.17829 0.71702,1.17829 1.32404,0 3.84867,6.53323 4.33117,11.20826 0.37999,3.68167 0.21598,4.63174 -0.79958,4.63174 -1.05845,0 -5.1286,-4.40378 -5.1286,-5.549 0,-1.05951 -16.96038,-16.80505 -19.92023,-18.49337 -1.51443,-0.86386 -8.24401,2.19478 -11.53068,5.24077 -1.23535,1.14488 -2.72444,2.0816 -3.30909,2.0816 -0.58465,0 -2.0588,0.92287 -3.27589,2.05084 -4.22407,3.91473 -9.58733,6.01991 -16.55522,6.49823 -6.19929,0.42555 -6.80926,0.30529 -9.36703,-1.84694 -1.50476,-1.26617 -3.01777,-2.30213 -3.36225,-2.30213 -0.34446,0 -1.39885,-0.98212 -2.34305,-2.18248 -0.94421,-1.20037 -3.1792,-2.86274 -4.96665,-3.69415 -1.78745,-0.83142 -3.48984,-1.85933 -3.78308,-2.28424 -0.29325,-0.42492 -2.14047,-0.98816 -4.10493,-1.25165 -3.25149,-0.43612 -3.59822,-0.29205 -3.86683,1.60672 -0.18997,1.34285 -0.96838,2.18177 -2.18536,2.35525 -1.03967,0.1482 -2.12893,0.9402 -2.42057,1.76 -0.29165,0.81981 -0.7457,1.93959 -1.009,2.48841 -0.76354,1.59158 2.13168,3.84214 4.94272,3.84214 1.41742,0 2.57714,0.34711 2.57714,0.77135 0,0.42424 3.861,1.2457 8.58,1.82548 11.83345,1.45385 12.24104,1.59575 13.75649,4.78934 0.73775,1.55469 2.15185,3.56019 3.14244,4.45666 0.99059,0.89647 1.80107,1.94417 1.80107,2.32822 0,0.38405 0.9811,1.7569 2.18023,3.05078 4.09155,4.41485 3.65698,11.86074 -0.79095,13.55183 -4.26787,1.62264 -5.03126,6.46401 -1.60264,10.16385 1.80624,1.94912 5.49336,9.21168 5.49336,10.82032 0,0.5732 0.70756,1.74973 1.57236,2.61453 0.8648,0.8648 2.90495,5.1218 4.53367,9.46 1.62873,4.3382 3.26508,8.08919 3.63634,8.33551 0.51691,0.34295 6.09763,17.69911 6.09763,18.96372 0,0.14448 0.63927,0.90197 1.4206,1.68329 1.18787,1.18787 2.63692,1.32191 8.84492,0.8182 13.08798,-1.06195 14.36398,1.24894 10.12037,18.3284 -1.9256,7.75002 -2.65713,12.71881 -2.59125,17.60066 0.0848,6.28771 0.27841,6.96843 2.55945,9.00084 1.35721,1.20928 4.95577,3.01928 7.99678,4.02221 3.04103,1.00294 6.1866,2.59556 6.99019,3.53917 0.80358,0.9436 1.8072,1.71564 2.23027,1.71564 0.42306,0 1.48062,1.20435 2.35015,2.67633 2.12133,3.59113 1.2559,9.14615 -1.72966,11.10237 -1.16706,0.76469 -2.94971,3.22431 -3.96143,5.46582 -1.62228,3.5942 -1.74691,4.83492 -1.05535,10.50642 0.58887,4.82945 0.48675,7.31077 -0.41012,9.96395 -0.72812,2.15401 -0.88561,3.9374 -0.40347,4.56906 0.43494,0.56983 1.72194,3.41205 2.86,6.31605 1.13806,2.904 2.30981,5.478 2.60388,5.72 0.29407,0.242 2.09127,4.004 3.99378,8.36 1.90251,4.356 3.72289,8.118 4.04529,8.36 0.3224,0.242 1.88275,3.014 3.46743,6.16 1.58468,3.146 3.12882,5.918 3.43143,6.16 0.30261,0.242 1.86215,3.41 3.46566,7.04 1.60351,3.63 3.21375,6.798 3.57831,7.04 1.41895,0.94192 7.03692,14.36442 7.05952,16.86667 0.007,0.80666 0.50825,1.6664 1.11325,1.91052 0.605,0.24412 -25.729,0.47512 -58.52,0.51333 -39.20631,0.0457 -59.62,-0.23183 -59.62,-0.81052 0,-0.484 -0.594,-0.88 -1.32,-0.88 -0.726,0 -1.32,0.396 -1.32,0.88 0,0.58362 -57.09148,0.88 -169.51444,0.88 l -169.51445,0 0.458617,-4.06884 z M 346.68763,669.76986 c 0.30693,-0.242 1.03377,-2.06994 1.61521,-4.0621 1.23573,-4.23392 1.46093,-30.2579 0.26184,-30.2579 -0.43742,0 -1.05502,4.257 -1.37243,9.46 -0.52779,8.65137 -1.49928,17.79625 -2.73446,25.74 -0.42048,2.70423 -0.34771,2.86528 0.59645,1.32 0.59144,-0.968 1.32647,-1.958 1.63339,-2.2 z M 332.12802,415.79571 c 1.07685,-0.41322 1.39198,-1.86341 1.39198,-6.40573 0,-4.99139 -0.28,-6.0656 -1.86783,-7.16585 -1.0273,-0.71185 -2.38559,-1.78985 -3.01842,-2.39555 -2.11521,-2.02456 -9.6894,-3.25543 -13.35541,-2.17038 -1.82509,0.54018 -4.68234,0.93628 -6.34945,0.88023 -1.66711,-0.0561 -3.18511,0.3601 -3.37334,0.92476 -0.18822,0.56467 -0.80422,1.0218 -1.36888,1.01586 -1.90055,-0.02 -11.97742,4.84263 -11.73083,5.66074 0.13426,0.44547 3.58763,1.58482 7.67414,2.5319 4.08651,0.94708 7.62802,1.98806 7.87002,2.31329 0.44036,0.59181 18.50107,5.04129 21.26802,5.23964 0.80742,0.0579 2.09442,-0.13512 2.86,-0.42891 l 0,0 z"
     id="path2987"
     inkscape:connector-curvature="0" />
  <path
     style="fill:#ff0000"
     d="m 470.8,681.81148 c 0,-1.60511 -0.43455,-5.26811 -0.96566,-8.14 -0.53112,-2.87189 -1.28718,-8.78562 -1.68014,-13.14162 -1.58217,-17.53825 -3.82372,-36.10517 -4.40901,-36.52 -0.34144,-0.242 -0.8829,-3.806 -1.20325,-7.92 -0.32034,-4.114 -0.94818,-10.054 -1.3952,-13.2 -0.44701,-3.146 -1.49952,-12.848 -2.33891,-21.56 -0.83939,-8.712 -1.77863,-16.038 -2.08721,-16.28 -0.30857,-0.242 -1.241,-7.766 -2.07207,-16.72 -0.83106,-8.954 -1.88115,-18.458 -2.33354,-21.12 -0.45239,-2.662 -1.06788,-8.305 -1.36776,-12.54 -0.29989,-4.235 -0.84569,-7.7 -1.21291,-7.7 -0.36722,0 -1.14315,-5.445 -1.7243,-12.1 -0.58115,-6.655 -1.42857,-14.278 -1.88316,-16.94 -0.45459,-2.662 -1.08673,-10.98737 -1.40476,-18.50081 l -0.57825,-13.66082 4.30807,-1.06902 c 11.14795,-2.76631 57.79218,-3.37191 80.86806,-1.04994 14.82564,1.49181 28.15924,3.55262 28.45333,4.39769 0.16134,0.4636 1.47717,0.8429 2.92408,0.8429 1.44691,0 6.06691,0.81342 10.26666,1.80759 4.19977,0.99418 9.61593,2.26821 12.03593,2.83119 2.42,0.56298 4.598,1.27589 4.84,1.58426 0.242,0.30836 5.36119,1.99553 11.37597,3.74925 6.01478,1.75372 11.16278,3.53245 11.44,3.95274 0.27722,0.42028 3.07803,1.58912 6.22403,2.59741 7.75958,2.48693 11.79123,4.04064 12.33163,4.75235 0.2484,0.32713 2.91243,1.66201 5.92009,2.96639 4.92662,2.13661 5.52639,2.68046 6.05323,5.48877 0.32984,1.7582 0.1233,4.49327 -0.47378,6.27361 -1.49417,4.45536 -3.88821,10.11593 -4.49847,10.63644 -0.28374,0.242 -2.01321,4.67585 -3.84327,9.85299 -1.83007,5.17715 -3.58886,9.53315 -3.90841,9.68 -0.31956,0.14686 -1.44456,2.64301 -2.49998,5.54701 -3.54834,9.76321 -4.23815,11.43786 -4.9197,11.94347 -0.67692,0.50218 -3.42592,7.29725 -5.31449,13.13653 -0.54788,1.694 -1.4599,3.56064 -2.02672,4.14808 -0.56683,0.58745 -2.28683,4.5399 -3.82225,8.78323 -1.53541,4.24332 -3.10343,7.92069 -3.48449,8.17192 -0.38105,0.25122 -1.5244,2.83277 -2.54078,5.73677 -3.1114,8.88993 -4.10971,11.42174 -4.68439,11.88 -0.70858,0.56505 -4.88511,11.13036 -5.65284,14.3 -0.3224,1.331 -0.92063,2.42 -1.32941,2.42 -0.40879,0 -1.12646,1.287 -1.59484,2.86 -0.46839,1.573 -1.71455,5.038 -2.76925,7.7 -1.05471,2.662 -2.12226,5.731 -2.37235,6.82 -0.25008,1.089 -0.74097,1.98 -1.09086,1.98 -0.79581,0 -2.28099,3.23193 -4.63359,10.08327 -1.00411,2.9242 -2.10287,5.51473 -2.44169,5.75673 -0.33883,0.242 -1.94163,4.004 -3.56178,8.36 -1.62015,4.356 -3.23367,8.12244 -3.5856,8.36986 -0.62366,0.43847 -2.68873,5.6766 -4.33272,10.99014 -0.90877,2.93725 -2.7554,6.80405 -3.57213,7.48 -0.2924,0.242 -1.18889,2.43784 -1.99221,4.87964 -0.80332,2.44179 -2.07217,5.31279 -2.81966,6.38 l -1.35909,1.94036 -42.6301,0 -42.6301,0 0,-2.91838 z"
     id="path2989"
     inkscape:connector-curvature="0" />
</svg>
