  0
SECTION
  2
HEADER
  9
$ACADVER
  1
AC1014
  9
$HANDSEED
  5
FFFF
  9
$MEASUREMENT
 70
     1
  0
ENDSEC
  0
SECTION
  2
TABLES
  0
TABLE
  2
VPORT
  5
8
330
0
100
AcDbSymbolTable
 70
     4
  0
VPORT
  5
2E
330
8
100
AcDbSymbolTableRecord
100
AcDbViewportTableRecord
  2
*ACTIVE
 70
     0
 10
0.0
 20
0.0
 11
1.0
 21
1.0
 12
210.0
 22
148.5
 13
0.0
 23
0.0
 14
10.0
 24
10.0
 15
10.0
 25
10.0
 16
0.0
 26
0.0
 36
1.0
 17
0.0
 27
0.0
 37
0.0
 40
341.0
 41
1.24
 42
50.0
 43
0.0
 44
0.0
 50
0.0
 51
0.0
 71
     0
 72
   100
 73
     1
 74
     3
 75
     0
 76
     0
 77
     0
 78
     0
  0
ENDTAB
  0
TABLE
  2
LTYPE
  5
5
330
0
100
AcDbSymbolTable
 70
     1
  0
LTYPE
  5
14
330
5
100
AcDbSymbolTableRecord
100
AcDbLinetypeTableRecord
  2
BYBLOCK
 70
     0
  3

 72
    65
 73
     0
 40
0.0
  0
LTYPE
  5
15
330
5
100
AcDbSymbolTableRecord
100
AcDbLinetypeTableRecord
  2
BYLAYER
 70
     0
  3

 72
    65
 73
     0
 40
0.0
  0
LTYPE
  5
16
330
5
100
AcDbSymbolTableRecord
100
AcDbLinetypeTableRecord
  2
CONTINUOUS
 70
     0
  3
Solid line
 72
    65
 73
     0
 40
0.0
  0
ENDTAB
  0
TABLE
  2
LAYER
  5
2
100
AcDbSymbolTable
 70
2
  0
LAYER
  5
50
100
AcDbSymbolTableRecord
100
AcDbLayerTableRecord
  2
0
 70
0
  6
CONTINUOUS
  0
LAYER
  5
51
100
AcDbSymbolTableRecord
100
AcDbLayerTableRecord
  2
Layer_1
 70
0
  6
CONTINUOUS
  0
ENDTAB
  0
TABLE
  2
STYLE
  5
3
330
0
100
AcDbSymbolTable
 70
     1
  0
STYLE
  5
11
330
3
100
AcDbSymbolTableRecord
100
AcDbTextStyleTableRecord
  2
STANDARD
 70
     0
 40
0.0
 41
1.0
 50
0.0
 71
     0
 42
2.5
  3
txt
  4

  0
ENDTAB
  0
TABLE
  2
VIEW
  5
6
330
0
100
AcDbSymbolTable
 70
     0
  0
ENDTAB
  0
TABLE
  2
UCS
  5
7
330
0
100
AcDbSymbolTable
 70
     0
  0
ENDTAB
  0
TABLE
  2
APPID
  5
9
330
0
100
AcDbSymbolTable
 70
     2
  0
APPID
  5
12
330
9
100
AcDbSymbolTableRecord
100
AcDbRegAppTableRecord
  2
ACAD
 70
     0
  0
ENDTAB
  0
TABLE
  2
DIMSTYLE
  5
A
330
0
100
AcDbSymbolTable
 70
     1
  0
DIMSTYLE
105
27
330
A
100
AcDbSymbolTableRecord
100
AcDbDimStyleTableRecord
  2
ISO-25
 70
     0
  3

  4

  5

  6

  7

 40
1.0
 41
2.5
 42
0.625
 43
3.75
 44
1.25
 45
0.0
 46
0.0
 47
0.0
 48
0.0
140
2.5
141
2.5
142
0.0
143
0.03937007874016
144
1.0
145
0.0
146
1.0
147
0.625
 71
     0
 72
     0
 73
     0
 74
     0
 75
     0
 76
     0
 77
     1
 78
     8
170
     0
171
     3
172
     1
173
     0
174
     0
175
     0
176
     0
177
     0
178
     0
270
     2
271
     2
272
     2
273
     2
274
     3
340
11
275
     0
280
     0
281
     0
282
     0
283
     0
284
     8
285
     0
286
     0
287
     3
288
     0
  0
ENDTAB
  0
TABLE
  2
BLOCK_RECORD
  5
1
330
0
100
AcDbSymbolTable
 70
     1
  0
BLOCK_RECORD
  5
1F
330
1
100
AcDbSymbolTableRecord
100
AcDbBlockTableRecord
  2
*MODEL_SPACE
  0
BLOCK_RECORD
  5
1B
330
1
100
AcDbSymbolTableRecord
100
AcDbBlockTableRecord
  2
*PAPER_SPACE
  0
ENDTAB
  0
ENDSEC
  0
SECTION
  2
BLOCKS
  0
BLOCK
  5
20
330
1F
100
AcDbEntity
  8
0
100
AcDbBlockBegin
  2
*MODEL_SPACE
 70
     0
 10
0.0
 20
0.0
 30
0.0
  3
*MODEL_SPACE
  1

  0
ENDBLK
  5
21
330
1F
100
AcDbEntity
  8
0
100
AcDbBlockEnd
  0
BLOCK
  5
1C
330
1B
100
AcDbEntity
 67
     1
  8
0
100
AcDbBlockBegin
  2
*PAPER_SPACE
  1

  0
ENDBLK
  5
1D
330
1B
100
AcDbEntity
 67
     1
  8
0
100
AcDbBlockEnd
  0
ENDSEC
  0
SECTION
  2
ENTITIES
  0
LWPOLYLINE
  5
100
100
AcDbEntity
  8
Layer_1
 62
7
100
AcDbPolyline
 90
26
 70
0
 10
14.444720
 20
23.539208
 30
0.0
 10
14.444720
 20
23.970810
 30
0.0
 10
16.358781
 20
23.970810
 30
0.0
 10
18.272843
 20
23.970810
 30
0.0
 10
18.272843
 20
28.268067
 30
0.0
 10
18.272843
 20
32.565323
 30
0.0
 10
18.723211
 20
32.565323
 30
0.0
 10
19.173578
 20
32.565323
 30
0.0
 10
19.173578
 20
31.026568
 30
0.0
 10
19.173578
 20
29.487812
 30
0.0
 10
21.331589
 20
29.487812
 30
0.0
 10
23.489600
 20
29.487812
 30
0.0
 10
23.489600
 20
29.056210
 30
0.0
 10
23.489600
 20
28.624608
 30
0.0
 10
21.331589
 20
28.624608
 30
0.0
 10
19.173578
 20
28.624608
 30
0.0
 10
19.173578
 20
26.297709
 30
0.0
 10
19.173578
 20
23.970810
 30
0.0
 10
21.594304
 20
23.970810
 30
0.0
 10
24.015029
 20
23.970810
 30
0.0
 10
24.015029
 20
23.539208
 30
0.0
 10
24.015029
 20
23.107606
 30
0.0
 10
19.229874
 20
23.107606
 30
0.0
 10
14.444720
 20
23.107606
 30
0.0
 10
14.444720
 20
23.539208
 30
0.0
 10
14.444720
 20
23.539208
 30
0.0
  0
SPLINE
  5
101
100
AcDbEntity
  8
Layer_1
 62
7
100
AcDbSpline
 70
8
 71
3
 72
8
 73
4
 74
0
 40
0
 40
0
 40
0
 40
0
 40
1
 40
1
 40
1
 40
1
 10
17.890157
 20
20.114539
 30
0.0
 10
18.013073
 20
20.317682
 30
0.0
 10
18.234936
 20
20.912382
 30
0.0
 10
18.300473
 20
21.214386
 30
0.0
  0
SPLINE
  5
102
100
AcDbEntity
  8
Layer_1
 62
7
100
AcDbSpline
 70
8
 71
3
 72
8
 73
4
 74
0
 40
0
 40
0
 40
0
 40
0
 40
1
 40
1
 40
1
 40
1
 10
18.300473
 20
21.214386
 30
0.0
 10
18.355987
 20
21.470200
 30
0.0
 10
18.369969
 20
21.496758
 30
0.0
 10
18.439494
 20
21.478441
 30
0.0
  0
SPLINE
  5
103
100
AcDbEntity
  8
Layer_1
 62
7
100
AcDbSpline
 70
8
 71
3
 72
8
 73
4
 74
0
 40
0
 40
0
 40
0
 40
0
 40
1
 40
1
 40
1
 40
1
 10
18.439494
 20
21.478441
 30
0.0
 10
18.482008
 20
21.467239
 30
0.0
 10
18.694125
 20
21.420962
 30
0.0
 10
18.910864
 20
21.375603
 30
0.0
  0
SPLINE
  5
104
100
AcDbEntity
  8
Layer_1
 62
7
100
AcDbSpline
 70
8
 71
3
 72
8
 73
4
 74
0
 40
0
 40
0
 40
0
 40
0
 40
1
 40
1
 40
1
 40
1
 10
18.910864
 20
21.375603
 30
0.0
 10
19.127603
 20
21.330243
 30
0.0
 10
19.311568
 20
21.288017
 30
0.0
 10
19.319673
 20
21.281768
 30
0.0
  0
SPLINE
  5
105
100
AcDbEntity
  8
Layer_1
 62
7
100
AcDbSpline
 70
8
 71
3
 72
8
 73
4
 74
0
 40
0
 40
0
 40
0
 40
0
 40
1
 40
1
 40
1
 40
1
 10
19.319673
 20
21.281768
 30
0.0
 10
19.344080
 20
21.262949
 30
0.0
 10
19.135362
 20
20.710130
 30
0.0
 10
18.964001
 20
20.339722
 30
0.0
  0
LWPOLYLINE
  5
106
100
AcDbEntity
  8
Layer_1
 62
7
100
AcDbPolyline
 90
13
 70
0
 10
22.476273
 20
11.773357
 30
0.0
 10
22.476273
 20
12.223725
 30
0.0
 10
19.192344
 20
12.223725
 30
0.0
 10
15.908414
 20
12.223725
 30
0.0
 10
15.908414
 20
11.792122
 30
0.0
 10
15.908414
 20
11.360520
 30
0.0
 10
15.476812
 20
11.360520
 30
0.0
 10
15.045209
 20
11.360520
 30
0.0
 10
15.045209
 20
15.676542
 30
0.0
 10
15.045209
 20
19.992564
 30
0.0
 10
16.430782
 20
19.992564
 30
0.0
 10
17.816354
 20
19.992564
 30
0.0
 10
17.890157
 20
20.114539
 30
0.0
  0
LWPOLYLINE
  5
107
100
AcDbEntity
  8
Layer_1
 62
7
100
AcDbPolyline
 90
10
 70
0
 10
18.964001
 20
20.339722
 30
0.0
 10
18.803396
 20
19.992564
 30
0.0
 10
21.052671
 20
19.992564
 30
0.0
 10
23.301947
 20
19.992564
 30
0.0
 10
23.301947
 20
15.657777
 30
0.0
 10
23.301947
 20
11.322990
 30
0.0
 10
22.889110
 20
11.322990
 30
0.0
 10
22.476273
 20
11.322990
 30
0.0
 10
22.476273
 20
11.773357
 30
0.0
 10
22.476273
 20
11.773357
 30
0.0
  0
LWPOLYLINE
  5
108
100
AcDbEntity
  8
Layer_1
 62
7
100
AcDbPolyline
 90
10
 70
0
 10
22.476273
 20
14.419266
 30
0.0
 10
22.476273
 20
15.789134
 30
0.0
 10
19.192344
 20
15.789134
 30
0.0
 10
15.908414
 20
15.789134
 30
0.0
 10
15.908414
 20
14.419266
 30
0.0
 10
15.908414
 20
13.049398
 30
0.0
 10
19.192344
 20
13.049398
 30
0.0
 10
22.476273
 20
13.049398
 30
0.0
 10
22.476273
 20
14.419266
 30
0.0
 10
22.476273
 20
14.419266
 30
0.0
  0
LWPOLYLINE
  5
109
100
AcDbEntity
  8
Layer_1
 62
7
100
AcDbPolyline
 90
10
 70
0
 10
22.476273
 20
17.909614
 30
0.0
 10
22.476273
 20
19.204421
 30
0.0
 10
19.192344
 20
19.204421
 30
0.0
 10
15.908414
 20
19.204421
 30
0.0
 10
15.908414
 20
17.909614
 30
0.0
 10
15.908414
 20
16.614808
 30
0.0
 10
19.192344
 20
16.614808
 30
0.0
 10
22.476273
 20
16.614808
 30
0.0
 10
22.476273
 20
17.909614
 30
0.0
 10
22.476273
 20
17.909614
 30
0.0
  0
SPLINE
  5
10a
100
AcDbEntity
  8
Layer_1
 62
7
100
AcDbSpline
 70
8
 71
3
 72
8
 73
4
 74
0
 40
0
 40
0
 40
0
 40
0
 40
1
 40
1
 40
1
 40
1
 10
17.098378
 20
0.936063
 30
0.0
 10
17.428191
 20
1.420134
 30
0.0
 10
17.752492
 20
2.270828
 30
0.0
 10
17.915511
 20
3.079533
 30
0.0
  0
SPLINE
  5
10b
100
AcDbEntity
  8
Layer_1
 62
7
100
AcDbSpline
 70
8
 71
3
 72
8
 73
4
 74
0
 40
0
 40
0
 40
0
 40
0
 40
1
 40
1
 40
1
 40
1
 10
17.915511
 20
3.079533
 30
0.0
 10
18.143556
 20
4.210829
 30
0.0
 10
18.196930
 20
5.116058
 30
0.0
 10
18.197423
 20
7.860789
 30
0.0
  0
LWPOLYLINE
  5
10c
100
AcDbEntity
  8
Layer_1
 62
7
100
AcDbPolyline
 90
3
 70
0
 10
17.252452
 20
0.384302
 30
0.0
 10
16.963908
 20
0.738700
 30
0.0
 10
17.098378
 20
0.936063
 30
0.0
  0
SPLINE
  5
10d
100
AcDbEntity
  8
Layer_1
 62
7
100
AcDbSpline
 70
8
 71
3
 72
8
 73
4
 74
0
 40
0
 40
0
 40
0
 40
0
 40
1
 40
1
 40
1
 40
1
 10
21.784714
 20
5.365003
 30
0.0
 10
22.055263
 20
4.147981
 30
0.0
 10
22.446513
 20
3.156749
 30
0.0
 10
22.958122
 20
2.392172
 30
0.0
  0
SPLINE
  5
10e
100
AcDbEntity
  8
Layer_1
 62
7
100
AcDbSpline
 70
8
 71
3
 72
8
 73
4
 74
0
 40
0
 40
0
 40
0
 40
0
 40
1
 40
1
 40
1
 40
1
 10
22.958122
 20
2.392172
 30
0.0
 10
23.214892
 20
2.008440
 30
0.0
 10
23.748501
 20
1.441117
 30
0.0
 10
24.095026
 20
1.183440
 30
0.0
  0
LWPOLYLINE
  5
10f
100
AcDbEntity
  8
Layer_1
 62
7
100
AcDbPolyline
 90
9
 70
0
 10
18.197423
 20
7.860789
 30
0.0
 10
18.197790
 20
9.859295
 30
0.0
 10
20.824934
 20
9.859295
 30
0.0
 10
23.452077
 20
9.859295
 30
0.0
 10
23.452077
 20
7.663753
 30
0.0
 10
23.452077
 20
5.468212
 30
0.0
 10
22.606923
 20
5.468212
 30
0.0
 10
21.761769
 20
5.468212
 30
0.0
 10
21.784714
 20
5.365003
 30
0.0
  0
SPLINE
  5
110
100
AcDbEntity
  8
Layer_1
 62
7
100
AcDbSpline
 70
8
 71
3
 72
8
 73
4
 74
0
 40
0
 40
0
 40
0
 40
0
 40
1
 40
1
 40
1
 40
1
 10
23.717719
 20
0.188654
 30
0.0
 10
23.432020
 20
0.388549
 30
0.0
 10
22.809139
 20
1.038600
 30
0.0
 10
22.552997
 20
1.404183
 30
0.0
  0
SPLINE
  5
111
100
AcDbEntity
  8
Layer_1
 62
7
100
AcDbSpline
 70
8
 71
3
 72
8
 73
4
 74
0
 40
0
 40
0
 40
0
 40
0
 40
1
 40
1
 40
1
 40
1
 10
22.552997
 20
1.404183
 30
0.0
 10
22.231377
 20
1.863220
 30
0.0
 10
21.956647
 20
2.348148
 30
0.0
 10
21.741996
 20
2.835687
 30
0.0
  0
SPLINE
  5
112
100
AcDbEntity
  8
Layer_1
 62
7
100
AcDbSpline
 70
8
 71
3
 72
8
 73
4
 74
0
 40
0
 40
0
 40
0
 40
0
 40
1
 40
1
 40
1
 40
1
 10
21.741996
 20
2.835687
 30
0.0
 10
21.512970
 20
3.355876
 30
0.0
 10
21.160115
 20
4.427299
 30
0.0
 10
21.026429
 20
5.008462
 30
0.0
  0
LWPOLYLINE
  5
113
100
AcDbEntity
  8
Layer_1
 62
7
100
AcDbPolyline
 90
5
 70
0
 10
24.095026
 20
1.183440
 30
0.0
 10
24.348785
 20
0.994743
 30
0.0
 10
24.118361
 20
0.532150
 30
0.0
 10
23.887938
 20
0.069556
 30
0.0
 10
23.717719
 20
0.188654
 30
0.0
  0
SPLINE
  5
114
100
AcDbEntity
  8
Layer_1
 62
7
100
AcDbSpline
 70
8
 71
3
 72
8
 73
4
 74
0
 40
0
 40
0
 40
0
 40
0
 40
1
 40
1
 40
1
 40
1
 10
18.985934
 20
5.156703
 30
0.0
 10
18.985934
 20
4.985375
 30
0.0
 10
18.968180
 20
4.618043
 30
0.0
 10
18.946481
 20
4.340411
 30
0.0
  0
SPLINE
  5
115
100
AcDbEntity
  8
Layer_1
 62
7
100
AcDbSpline
 70
8
 71
3
 72
8
 73
4
 74
0
 40
0
 40
0
 40
0
 40
0
 40
1
 40
1
 40
1
 40
1
 10
18.946481
 20
4.340411
 30
0.0
 10
18.835093
 20
2.915260
 30
0.0
 10
18.537350
 20
1.756777
 30
0.0
 10
18.041064
 20
0.817547
 30
0.0
  0
SPLINE
  5
116
100
AcDbEntity
  8
Layer_1
 62
7
100
AcDbSpline
 70
8
 71
3
 72
8
 73
4
 74
0
 40
0
 40
0
 40
0
 40
0
 40
1
 40
1
 40
1
 40
1
 10
18.041064
 20
0.817547
 30
0.0
 10
17.881354
 20
0.515295
 30
0.0
 10
17.574113
 20
0.022372
 30
0.0
 10
17.548989
 20
0.028087
 30
0.0
  0
SPLINE
  5
117
100
AcDbEntity
  8
Layer_1
 62
7
100
AcDbSpline
 70
8
 71
3
 72
8
 73
4
 74
0
 40
0
 40
0
 40
0
 40
0
 40
1
 40
1
 40
1
 40
1
 10
17.548989
 20
0.028087
 30
0.0
 10
17.544598
 20
0.029216
 30
0.0
 10
17.411160
 20
0.189382
 30
0.0
 10
17.252461
 20
0.384302
 30
0.0
  0
LWPOLYLINE
  5
118
100
AcDbEntity
  8
Layer_1
 62
7
100
AcDbPolyline
 90
5
 70
0
 10
21.026429
 20
5.008462
 30
0.0
 10
20.920671
 20
5.468212
 30
0.0
 10
19.953303
 20
5.468212
 30
0.0
 10
18.985934
 20
5.468212
 30
0.0
 10
18.985934
 20
5.156703
 30
0.0
  0
LWPOLYLINE
  5
119
100
AcDbEntity
  8
Layer_1
 62
7
100
AcDbPolyline
 90
3
 70
0
 10
17.252461
 20
0.384302
 30
0.0
 10
17.252461
 20
0.384302
 30
0.0
 10
17.252452
 20
0.384302
 30
0.0
  0
SPLINE
  5
11a
100
AcDbEntity
  8
Layer_1
 62
7
100
AcDbSpline
 70
8
 71
3
 72
8
 73
4
 74
0
 40
0
 40
0
 40
0
 40
0
 40
1
 40
1
 40
1
 40
1
 10
16.565200
 20
8.344396
 30
0.0
 10
16.277373
 20
8.577795
 30
0.0
 10
15.367832
 20
9.198968
 30
0.0
 10
14.988576
 20
9.421154
 30
0.0
  0
LWPOLYLINE
  5
11b
100
AcDbEntity
  8
Layer_1
 62
7
100
AcDbPolyline
 90
10
 70
0
 10
22.588865
 20
7.663753
 30
0.0
 10
22.588865
 20
9.033621
 30
0.0
 10
20.787395
 20
9.033621
 30
0.0
 10
18.985925
 20
9.033621
 30
0.0
 10
18.985925
 20
7.663753
 30
0.0
 10
18.985925
 20
6.293886
 30
0.0
 10
20.787395
 20
6.293886
 30
0.0
 10
22.588865
 20
6.293886
 30
0.0
 10
22.588865
 20
7.663753
 30
0.0
 10
22.588865
 20
7.663753
 30
0.0
  0
SPLINE
  5
11c
100
AcDbEntity
  8
Layer_1
 62
7
100
AcDbSpline
 70
8
 71
3
 72
8
 73
4
 74
0
 40
0
 40
0
 40
0
 40
0
 40
1
 40
1
 40
1
 40
1
 10
15.539359
 20
10.025551
 30
0.0
 10
15.995028
 20
9.820601
 30
0.0
 10
17.447169
 20
8.889653
 30
0.0
 10
17.447169
 20
8.802480
 30
0.0
  0
SPLINE
  5
11d
100
AcDbEntity
  8
Layer_1
 62
7
100
AcDbSpline
 70
8
 71
3
 72
8
 73
4
 74
0
 40
0
 40
0
 40
0
 40
0
 40
1
 40
1
 40
1
 40
1
 10
17.447169
 20
8.802480
 30
0.0
 10
17.447169
 20
8.765396
 30
0.0
 10
16.913997
 20
8.100985
 30
0.0
 10
16.884210
 20
8.100949
 30
0.0
  0
SPLINE
  5
11e
100
AcDbEntity
  8
Layer_1
 62
7
100
AcDbSpline
 70
8
 71
3
 72
8
 73
4
 74
0
 40
0
 40
0
 40
0
 40
0
 40
1
 40
1
 40
1
 40
1
 10
16.884210
 20
8.100949
 30
0.0
 10
16.873889
 20
8.100937
 30
0.0
 10
16.730335
 20
8.210488
 30
0.0
 10
16.565200
 20
8.344396
 30
0.0
  0
LWPOLYLINE
  5
11f
100
AcDbEntity
  8
Layer_1
 62
7
100
AcDbPolyline
 90
5
 70
0
 10
14.988576
 20
9.421154
 30
0.0
 10
14.807552
 20
9.527206
 30
0.0
 10
15.092939
 20
9.812593
 30
0.0
 10
15.378326
 20
10.097980
 30
0.0
 10
15.539359
 20
10.025551
 30
0.0
  0
SPLINE
  5
120
100
AcDbEntity
  8
Layer_1
 62
7
100
AcDbSpline
 70
8
 71
3
 72
8
 73
4
 74
0
 40
0
 40
0
 40
0
 40
0
 40
1
 40
1
 40
1
 40
1
 10
15.962024
 20
5.750865
 30
0.0
 10
15.546058
 20
6.082950
 30
0.0
 10
15.093177
 20
6.397407
 30
0.0
 10
14.677660
 20
6.642661
 30
0.0
  0
LWPOLYLINE
  5
121
100
AcDbEntity
  8
Layer_1
 62
7
100
AcDbPolyline
 90
2
 70
0
 10
16.565200
 20
8.344396
 30
0.0
 10
16.565200
 20
8.344396
 30
0.0
  0
SPLINE
  5
122
100
AcDbEntity
  8
Layer_1
 62
7
100
AcDbSpline
 70
8
 71
3
 72
8
 73
4
 74
0
 40
0
 40
0
 40
0
 40
0
 40
1
 40
1
 40
1
 40
1
 10
15.098142
 20
7.337146
 30
0.0
 10
15.453293
 20
7.158141
 30
0.0
 10
16.040918
 20
6.797837
 30
0.0
 10
16.444113
 20
6.511858
 30
0.0
  0
SPLINE
  5
123
100
AcDbEntity
  8
Layer_1
 62
7
100
AcDbSpline
 70
8
 71
3
 72
8
 73
4
 74
0
 40
0
 40
0
 40
0
 40
0
 40
1
 40
1
 40
1
 40
1
 10
16.444113
 20
6.511858
 30
0.0
 10
16.809738
 20
6.252528
 30
0.0
 10
16.810709
 20
6.251417
 30
0.0
 10
16.744358
 20
6.168455
 30
0.0
  0
SPLINE
  5
124
100
AcDbEntity
  8
Layer_1
 62
7
100
AcDbSpline
 70
8
 71
3
 72
8
 73
4
 74
0
 40
0
 40
0
 40
0
 40
0
 40
1
 40
1
 40
1
 40
1
 10
16.744358
 20
6.168455
 30
0.0
 10
16.514144
 20
5.880608
 30
0.0
 10
16.236550
 20
5.543273
 30
0.0
 10
16.229893
 20
5.543273
 30
0.0
  0
SPLINE
  5
125
100
AcDbEntity
  8
Layer_1
 62
7
100
AcDbSpline
 70
8
 71
3
 72
8
 73
4
 74
0
 40
0
 40
0
 40
0
 40
0
 40
1
 40
1
 40
1
 40
1
 10
16.229893
 20
5.543273
 30
0.0
 10
16.225581
 20
5.543273
 30
0.0
 10
16.105039
 20
5.636690
 30
0.0
 10
15.962024
 20
5.750865
 30
0.0
  0
LWPOLYLINE
  5
126
100
AcDbEntity
  8
Layer_1
 62
7
100
AcDbPolyline
 90
5
 70
0
 10
14.677660
 20
6.642661
 30
0.0
 10
14.291346
 20
6.870679
 30
0.0
 10
14.580470
 20
7.161509
 30
0.0
 10
14.869594
 20
7.452339
 30
0.0
 10
15.098142
 20
7.337146
 30
0.0
  0
SPLINE
  5
127
100
AcDbEntity
  8
Layer_1
 62
7
100
AcDbSpline
 70
8
 71
3
 72
8
 73
4
 74
0
 40
0
 40
0
 40
0
 40
0
 40
1
 40
1
 40
1
 40
1
 10
14.610885
 20
0.313100
 30
0.0
 10
14.426606
 20
0.449016
 30
0.0
 10
14.245965
 20
0.581223
 30
0.0
 10
14.209462
 20
0.606891
 30
0.0
  0
SPLINE
  5
128
100
AcDbEntity
  8
Layer_1
 62
7
100
AcDbSpline
 70
8
 71
3
 72
8
 73
4
 74
0
 40
0
 40
0
 40
0
 40
0
 40
1
 40
1
 40
1
 40
1
 10
14.209462
 20
0.606891
 30
0.0
 10
14.148598
 20
0.649690
 30
0.0
 10
14.167680
 20
0.690589
 30
0.0
 10
14.439490
 20
1.099913
 30
0.0
  0
SPLINE
  5
129
100
AcDbEntity
  8
Layer_1
 62
7
100
AcDbSpline
 70
8
 71
3
 72
8
 73
4
 74
0
 40
0
 40
0
 40
0
 40
0
 40
1
 40
1
 40
1
 40
1
 10
14.439490
 20
1.099913
 30
0.0
 10
15.016822
 20
1.969321
 30
0.0
 10
15.715751
 20
3.287279
 30
0.0
 10
16.079351
 20
4.192171
 30
0.0
  0
SPLINE
  5
12a
100
AcDbEntity
  8
Layer_1
 62
7
100
AcDbSpline
 70
8
 71
3
 72
8
 73
4
 74
0
 40
0
 40
0
 40
0
 40
0
 40
1
 40
1
 40
1
 40
1
 10
16.079351
 20
4.192171
 30
0.0
 10
16.158147
 20
4.388268
 30
0.0
 10
16.227600
 20
4.555429
 30
0.0
 10
16.233693
 20
4.563640
 30
0.0
  0
SPLINE
  5
12b
100
AcDbEntity
  8
Layer_1
 62
7
100
AcDbSpline
 70
8
 71
3
 72
8
 73
4
 74
0
 40
0
 40
0
 40
0
 40
0
 40
1
 40
1
 40
1
 40
1
 10
16.233693
 20
4.563640
 30
0.0
 10
16.239786
 20
4.571850
 30
0.0
 10
16.404554
 20
4.456348
 30
0.0
 10
16.599846
 20
4.306968
 30
0.0
  0
LWPOLYLINE
  5
12c
100
AcDbEntity
  8
Layer_1
 62
7
100
AcDbPolyline
 90
2
 70
0
 10
15.962024
 20
5.750865
 30
0.0
 10
15.962024
 20
5.750865
 30
0.0
  0
SPLINE
  5
12d
100
AcDbEntity
  8
Layer_1
 62
7
100
AcDbSpline
 70
8
 71
3
 72
8
 73
4
 74
0
 40
0
 40
0
 40
0
 40
0
 40
1
 40
1
 40
1
 40
1
 10
16.842572
 20
3.729081
 30
0.0
 10
16.434957
 20
2.617831
 30
0.0
 10
15.687076
 20
1.156662
 30
0.0
 10
15.033967
 20
0.195526
 30
0.0
  0
LWPOLYLINE
  5
12e
100
AcDbEntity
  8
Layer_1
 62
7
100
AcDbPolyline
 90
3
 70
0
 10
16.599846
 20
4.306968
 30
0.0
 10
16.954921
 20
4.035371
 30
0.0
 10
16.842572
 20
3.729081
 30
0.0
  0
LWPOLYLINE
  5
12f
100
AcDbEntity
  8
Layer_1
 62
7
100
AcDbPolyline
 90
4
 70
0
 10
15.033967
 20
0.195526
 30
0.0
 10
14.945939
 20
0.065984
 30
0.0
 10
14.610885
 20
0.313100
 30
0.0
 10
14.610885
 20
0.313100
 30
0.0
  0
LWPOLYLINE
  5
130
100
AcDbEntity
  8
Layer_1
 62
7
100
AcDbPolyline
 90
18
 70
0
 10
1.421592
 20
13.931368
 30
0.0
 10
1.421592
 20
16.502216
 30
0.0
 10
5.005767
 20
16.502216
 30
0.0
 10
8.589942
 20
16.502216
 30
0.0
 10
8.589942
 20
13.931368
 30
0.0
 10
8.589942
 20
11.360520
 30
0.0
 10
8.158340
 20
11.360520
 30
0.0
 10
7.726738
 20
11.360520
 30
0.0
 10
7.726738
 20
11.623234
 30
0.0
 10
7.726738
 20
11.885949
 30
0.0
 10
5.005767
 20
11.885949
 30
0.0
 10
2.284797
 20
11.885949
 30
0.0
 10
2.284797
 20
11.623234
 30
0.0
 10
2.284797
 20
11.360520
 30
0.0
 10
1.853195
 20
11.360520
 30
0.0
 10
1.421592
 20
11.360520
 30
0.0
 10
1.421592
 20
13.931368
 30
0.0
 10
1.421592
 20
13.931368
 30
0.0
  0
LWPOLYLINE
  5
131
100
AcDbEntity
  8
Layer_1
 62
7
100
AcDbPolyline
 90
10
 70
0
 10
7.726738
 20
13.255817
 30
0.0
 10
7.726738
 20
13.837541
 30
0.0
 10
5.005767
 20
13.837541
 30
0.0
 10
2.284797
 20
13.837541
 30
0.0
 10
2.284797
 20
13.255817
 30
0.0
 10
2.284797
 20
12.674092
 30
0.0
 10
5.005767
 20
12.674092
 30
0.0
 10
7.726738
 20
12.674092
 30
0.0
 10
7.726738
 20
13.255817
 30
0.0
 10
7.726738
 20
13.255817
 30
0.0
  0
LWPOLYLINE
  5
132
100
AcDbEntity
  8
Layer_1
 62
7
100
AcDbPolyline
 90
10
 70
0
 10
7.726738
 20
15.151113
 30
0.0
 10
7.726738
 20
15.714073
 30
0.0
 10
5.005767
 20
15.714073
 30
0.0
 10
2.284797
 20
15.714073
 30
0.0
 10
2.284797
 20
15.151113
 30
0.0
 10
2.284797
 20
14.588154
 30
0.0
 10
5.005767
 20
14.588154
 30
0.0
 10
7.726738
 20
14.588154
 30
0.0
 10
7.726738
 20
15.151113
 30
0.0
 10
7.726738
 20
15.151113
 30
0.0
  0
SPLINE
  5
133
100
AcDbEntity
  8
Layer_1
 62
7
100
AcDbSpline
 70
8
 71
3
 72
8
 73
4
 74
0
 40
0
 40
0
 40
0
 40
0
 40
1
 40
1
 40
1
 40
1
 10
2.769644
 20
18.350599
 30
0.0
 10
2.727284
 20
18.458969
 30
0.0
 10
2.593380
 20
18.737204
 30
0.0
 10
2.472078
 20
18.968901
 30
0.0
  0
LWPOLYLINE
  5
134
100
AcDbEntity
  8
Layer_1
 62
7
100
AcDbPolyline
 90
5
 70
0
 10
0.032959
 20
17.759492
 30
0.0
 10
0.032959
 20
18.153563
 30
0.0
 10
1.439810
 20
18.153563
 30
0.0
 10
2.846661
 20
18.153563
 30
0.0
 10
2.769644
 20
18.350599
 30
0.0
  0
SPLINE
  5
135
100
AcDbEntity
  8
Layer_1
 62
7
100
AcDbSpline
 70
8
 71
3
 72
8
 73
4
 74
0
 40
0
 40
0
 40
0
 40
0
 40
1
 40
1
 40
1
 40
1
 10
2.619482
 20
19.503712
 30
0.0
 10
2.821855
 20
19.566162
 30
0.0
 10
3.013894
 20
19.617258
 30
0.0
 10
3.046235
 20
19.617258
 30
0.0
  0
SPLINE
  5
136
100
AcDbEntity
  8
Layer_1
 62
7
100
AcDbSpline
 70
8
 71
3
 72
8
 73
4
 74
0
 40
0
 40
0
 40
0
 40
0
 40
1
 40
1
 40
1
 40
1
 10
3.046235
 20
19.617258
 30
0.0
 10
3.150843
 20
19.617258
 30
0.0
 10
3.506213
 20
18.968253
 30
0.0
 10
3.673020
 20
18.472574
 30
0.0
  0
LWPOLYLINE
  5
137
100
AcDbEntity
  8
Layer_1
 62
7
100
AcDbPolyline
 90
3
 70
0
 10
2.472078
 20
18.968901
 30
0.0
 10
2.251530
 20
19.390166
 30
0.0
 10
2.619482
 20
19.503712
 30
0.0
  0
SPLINE
  5
138
100
AcDbEntity
  8
Layer_1
 62
7
100
AcDbSpline
 70
8
 71
3
 72
8
 73
4
 74
0
 40
0
 40
0
 40
0
 40
0
 40
1
 40
1
 40
1
 40
1
 10
6.622681
 20
18.884909
 30
0.0
 10
6.825795
 20
19.287700
 30
0.0
 10
7.007724
 20
19.617256
 30
0.0
 10
7.026967
 20
19.617256
 30
0.0
  0
SPLINE
  5
139
100
AcDbEntity
  8
Layer_1
 62
7
100
AcDbSpline
 70
8
 71
3
 72
8
 73
4
 74
0
 40
0
 40
0
 40
0
 40
0
 40
1
 40
1
 40
1
 40
1
 10
7.026967
 20
19.617256
 30
0.0
 10
7.046209
 20
19.617256
 30
0.0
 10
7.261207
 20
19.555629
 30
0.0
 10
7.504737
 20
19.480308
 30
0.0
  0
LWPOLYLINE
  5
13a
100
AcDbEntity
  8
Layer_1
 62
7
100
AcDbPolyline
 90
5
 70
0
 10
3.673020
 20
18.472574
 30
0.0
 10
3.774059
 20
18.172329
 30
0.0
 10
5.013721
 20
18.162445
 30
0.0
 10
6.253383
 20
18.152562
 30
0.0
 10
6.622681
 20
18.884909
 30
0.0
  0
SPLINE
  5
13b
100
AcDbEntity
  8
Layer_1
 62
7
100
AcDbSpline
 70
8
 71
3
 72
8
 73
4
 74
0
 40
0
 40
0
 40
0
 40
0
 40
1
 40
1
 40
1
 40
1
 10
7.854604
 20
19.160001
 30
0.0
 10
7.803501
 20
19.059154
 30
0.0
 10
7.636535
 20
18.791449
 30
0.0
 10
7.483568
 20
18.565102
 30
0.0
  0
LWPOLYLINE
  5
13c
100
AcDbEntity
  8
Layer_1
 62
7
100
AcDbPolyline
 90
3
 70
0
 10
7.504737
 20
19.480308
 30
0.0
 10
7.947519
 20
19.343359
 30
0.0
 10
7.854604
 20
19.160001
 30
0.0
  0
LWPOLYLINE
  5
13d
100
AcDbEntity
  8
Layer_1
 62
7
100
AcDbPolyline
 90
10
 70
0
 10
7.483568
 20
18.565102
 30
0.0
 10
7.205445
 20
18.153561
 30
0.0
 10
8.667072
 20
18.153561
 30
0.0
 10
10.128698
 20
18.153561
 30
0.0
 10
10.128698
 20
17.759490
 30
0.0
 10
10.128698
 20
17.365418
 30
0.0
 10
5.080828
 20
17.365418
 30
0.0
 10
0.032959
 20
17.365418
 30
0.0
 10
0.032959
 20
17.759490
 30
0.0
 10
0.032959
 20
17.759492
 30
0.0
  0
SPLINE
  5
13e
100
AcDbEntity
  8
Layer_1
 62
7
100
AcDbSpline
 70
8
 71
3
 72
8
 73
4
 74
0
 40
0
 40
0
 40
0
 40
0
 40
1
 40
1
 40
1
 40
1
 10
4.384848
 20
20.982339
 30
0.0
 10
4.280730
 20
21.144842
 30
0.0
 10
4.200511
 20
21.282220
 30
0.0
 10
4.206583
 20
21.287623
 30
0.0
  0
SPLINE
  5
13f
100
AcDbEntity
  8
Layer_1
 62
7
100
AcDbSpline
 70
8
 71
3
 72
8
 73
4
 74
0
 40
0
 40
0
 40
0
 40
0
 40
1
 40
1
 40
1
 40
1
 10
4.206583
 20
21.287623
 30
0.0
 10
4.212657
 20
21.293028
 30
0.0
 10
4.402178
 20
21.349647
 30
0.0
 10
4.627743
 20
21.413447
 30
0.0
  0
SPLINE
  5
140
100
AcDbEntity
  8
Layer_1
 62
7
100
AcDbSpline
 70
8
 71
3
 72
8
 73
4
 74
0
 40
0
 40
0
 40
0
 40
0
 40
1
 40
1
 40
1
 40
1
 10
4.627743
 20
21.413447
 30
0.0
 10
4.941976
 20
21.502326
 30
0.0
 10
5.049953
 20
21.519413
 30
0.0
 10
5.089573
 20
21.486532
 30
0.0
  0
SPLINE
  5
141
100
AcDbEntity
  8
Layer_1
 62
7
100
AcDbSpline
 70
8
 71
3
 72
8
 73
4
 74
0
 40
0
 40
0
 40
0
 40
0
 40
1
 40
1
 40
1
 40
1
 10
5.089573
 20
21.486532
 30
0.0
 10
5.162553
 20
21.425963
 30
0.0
 10
5.420337
 20
20.976999
 30
0.0
 10
5.478678
 20
20.808855
 30
0.0
  0
LWPOLYLINE
  5
142
100
AcDbEntity
  8
Layer_1
 62
7
100
AcDbPolyline
 90
5
 70
0
 10
0.633449
 20
20.254946
 30
0.0
 10
0.633449
 20
20.667452
 30
0.0
 10
2.603801
 20
20.677166
 30
0.0
 10
4.574153
 20
20.686880
 30
0.0
 10
4.384848
 20
20.982339
 30
0.0
  0
LWPOLYLINE
  5
143
100
AcDbEntity
  8
Layer_1
 62
7
100
AcDbPolyline
 90
10
 70
0
 10
5.478678
 20
20.808855
 30
0.0
 10
5.527510
 20
20.668115
 30
0.0
 10
7.509093
 20
20.668115
 30
0.0
 10
9.490677
 20
20.668115
 30
0.0
 10
9.490677
 20
20.255278
 30
0.0
 10
9.490677
 20
19.842441
 30
0.0
 10
5.062063
 20
19.842441
 30
0.0
 10
0.633449
 20
19.842441
 30
0.0
 10
0.633449
 20
20.254946
 30
0.0
 10
0.633449
 20
20.254946
 30
0.0
  0
SPLINE
  5
144
100
AcDbEntity
  8
Layer_1
 62
7
100
AcDbSpline
 70
8
 71
3
 72
8
 73
4
 74
0
 40
0
 40
0
 40
0
 40
0
 40
1
 40
1
 40
1
 40
1
 10
9.246330
 20
23.098223
 30
0.0
 10
9.104026
 20
23.477471
 30
0.0
 10
8.742937
 20
24.195479
 30
0.0
 10
8.499434
 20
24.583388
 30
0.0
  0
SPLINE
  5
145
100
AcDbEntity
  8
Layer_1
 62
7
100
AcDbSpline
 70
8
 71
3
 72
8
 73
4
 74
0
 40
0
 40
0
 40
0
 40
0
 40
1
 40
1
 40
1
 40
1
 10
8.499434
 20
24.583388
 30
0.0
 10
8.359332
 20
24.806576
 30
0.0
 10
8.250604
 20
24.994104
 30
0.0
 10
8.257817
 20
25.000117
 30
0.0
  0
SPLINE
  5
146
100
AcDbEntity
  8
Layer_1
 62
7
100
AcDbSpline
 70
8
 71
3
 72
8
 73
4
 74
0
 40
0
 40
0
 40
0
 40
0
 40
1
 40
1
 40
1
 40
1
 10
8.257817
 20
25.000117
 30
0.0
 10
8.265031
 20
25.006131
 30
0.0
 10
8.431167
 20
25.081173
 30
0.0
 10
8.627011
 20
25.166879
 30
0.0
  0
LWPOLYLINE
  5
147
100
AcDbEntity
  8
Layer_1
 62
7
100
AcDbPolyline
 90
138
 70
0
 10
0.783572
 20
25.884872
 30
0.0
 10
0.783572
 20
26.222648
 30
0.0
 10
4.480338
 20
26.222648
 30
0.0
 10
8.177105
 20
26.222648
 30
0.0
 10
8.177105
 20
26.466597
 30
0.0
 10
8.177105
 20
26.710546
 30
0.0
 10
4.555400
 20
26.710546
 30
0.0
 10
0.933694
 20
26.710546
 30
0.0
 10
0.933694
 20
27.029556
 30
0.0
 10
0.933694
 20
27.348566
 30
0.0
 10
4.555400
 20
27.348566
 30
0.0
 10
8.177105
 20
27.348566
 30
0.0
 10
8.177105
 20
27.592516
 30
0.0
 10
8.177105
 20
27.836465
 30
0.0
 10
4.442808
 20
27.836465
 30
0.0
 10
0.708511
 20
27.836465
 30
0.0
 10
0.708511
 20
28.193005
 30
0.0
 10
0.708511
 20
28.549546
 30
0.0
 10
1.496654
 20
28.549546
 30
0.0
 10
2.284797
 20
28.549546
 30
0.0
 10
2.284797
 20
28.849792
 30
0.0
 10
2.284797
 20
29.150037
 30
0.0
 10
1.215174
 20
29.150037
 30
0.0
 10
0.145551
 20
29.150037
 30
0.0
 10
0.145551
 20
29.505993
 30
0.0
 10
0.145551
 20
29.861949
 30
0.0
 10
1.205791
 20
29.871918
 30
0.0
 10
2.266032
 20
29.881886
 30
0.0
 10
2.277129
 20
30.135217
 30
0.0
 10
2.288227
 20
30.388549
 30
0.0
 10
1.442073
 20
30.388549
 30
0.0
 10
0.595919
 20
30.388549
 30
0.0
 10
0.595919
 20
30.707559
 30
0.0
 10
0.595919
 20
31.026570
 30
0.0
 10
1.440358
 20
31.026570
 30
0.0
 10
2.284797
 20
31.026570
 30
0.0
 10
2.284797
 20
31.289284
 30
0.0
 10
2.284797
 20
31.551999
 30
0.0
 10
1.327766
 20
31.551999
 30
0.0
 10
0.370735
 20
31.551999
 30
0.0
 10
0.370735
 20
31.908539
 30
0.0
 10
0.370735
 20
32.265080
 30
0.0
 10
1.327766
 20
32.265080
 30
0.0
 10
2.284797
 20
32.265080
 30
0.0
 10
2.284797
 20
32.509029
 30
0.0
 10
2.284797
 20
32.752979
 30
0.0
 10
2.660103
 20
32.752979
 30
0.0
 10
3.035410
 20
32.752979
 30
0.0
 10
3.035410
 20
32.509029
 30
0.0
 10
3.035410
 20
32.265080
 30
0.0
 10
3.936145
 20
32.265080
 30
0.0
 10
4.836880
 20
32.265080
 30
0.0
 10
4.836880
 20
31.908539
 30
0.0
 10
4.836880
 20
31.551999
 30
0.0
 10
3.936145
 20
31.551999
 30
0.0
 10
3.035410
 20
31.551999
 30
0.0
 10
3.035410
 20
31.289284
 30
0.0
 10
3.035410
 20
31.026570
 30
0.0
 10
3.823553
 20
31.026570
 30
0.0
 10
4.611696
 20
31.026570
 30
0.0
 10
4.611696
 20
30.707559
 30
0.0
 10
4.611696
 20
30.388549
 30
0.0
 10
3.823553
 20
30.388549
 30
0.0
 10
3.035410
 20
30.388549
 30
0.0
 10
3.035410
 20
30.125835
 30
0.0
 10
3.035410
 20
29.863120
 30
0.0
 10
3.954910
 20
29.863120
 30
0.0
 10
4.874410
 20
29.863120
 30
0.0
 10
4.874410
 20
29.506579
 30
0.0
 10
4.874410
 20
29.150039
 30
0.0
 10
3.954910
 20
29.150039
 30
0.0
 10
3.035410
 20
29.150039
 30
0.0
 10
3.035410
 20
28.849794
 30
0.0
 10
3.035410
 20
28.549548
 30
0.0
 10
5.099594
 20
28.549548
 30
0.0
 10
7.163778
 20
28.549548
 30
0.0
 10
7.163778
 20
28.849794
 30
0.0
 10
7.163778
 20
29.150039
 30
0.0
 10
6.187982
 20
29.150039
 30
0.0
 10
5.212186
 20
29.150039
 30
0.0
 10
5.212186
 20
29.506579
 30
0.0
 10
5.212186
 20
29.863120
 30
0.0
 10
6.187982
 20
29.863120
 30
0.0
 10
7.163778
 20
29.863120
 30
0.0
 10
7.163778
 20
30.125835
 30
0.0
 10
7.163778
 20
30.388549
 30
0.0
 10
6.319339
 20
30.388549
 30
0.0
 10
5.474900
 20
30.388549
 30
0.0
 10
5.474900
 20
30.707559
 30
0.0
 10
5.474900
 20
31.026570
 30
0.0
 10
6.319339
 20
31.026570
 30
0.0
 10
7.163778
 20
31.026570
 30
0.0
 10
7.163778
 20
31.289284
 30
0.0
 10
7.163778
 20
31.551999
 30
0.0
 10
6.244278
 20
31.551999
 30
0.0
 10
5.324778
 20
31.551999
 30
0.0
 10
5.324778
 20
31.908539
 30
0.0
 10
5.324778
 20
32.265080
 30
0.0
 10
6.244278
 20
32.265080
 30
0.0
 10
7.163778
 20
32.265080
 30
0.0
 10
7.163778
 20
32.509029
 30
0.0
 10
7.163778
 20
32.752979
 30
0.0
 10
7.557850
 20
32.752979
 30
0.0
 10
7.951921
 20
32.752979
 30
0.0
 10
7.951921
 20
32.509029
 30
0.0
 10
7.951921
 20
32.265080
 30
0.0
 10
8.908953
 20
32.265080
 30
0.0
 10
9.865983
 20
32.265080
 30
0.0
 10
9.865983
 20
31.908539
 30
0.0
 10
9.865983
 20
31.551999
 30
0.0
 10
8.908953
 20
31.551999
 30
0.0
 10
7.951921
 20
31.551999
 30
0.0
 10
7.951921
 20
31.289284
 30
0.0
 10
7.951921
 20
31.026570
 30
0.0
 10
8.758830
 20
31.026570
 30
0.0
 10
9.565738
 20
31.026570
 30
0.0
 10
9.565738
 20
30.707559
 30
0.0
 10
9.565738
 20
30.388549
 30
0.0
 10
8.758830
 20
30.388549
 30
0.0
 10
7.951921
 20
30.388549
 30
0.0
 10
7.951921
 20
30.125835
 30
0.0
 10
7.951921
 20
29.863120
 30
0.0
 10
8.946483
 20
29.863120
 30
0.0
 10
9.941045
 20
29.863120
 30
0.0
 10
9.941045
 20
29.506579
 30
0.0
 10
9.941045
 20
29.150039
 30
0.0
 10
8.946483
 20
29.150039
 30
0.0
 10
7.951921
 20
29.150039
 30
0.0
 10
7.951921
 20
28.849794
 30
0.0
 10
7.951921
 20
28.549548
 30
0.0
 10
8.458585
 20
28.549548
 30
0.0
 10
8.965248
 20
28.549548
 30
0.0
 10
8.965248
 20
27.048323
 30
0.0
 10
8.965248
 20
25.547098
 30
0.0
 10
4.874410
 20
25.547098
 30
0.0
 10
0.783572
 20
25.547098
 30
0.0
 10
0.783572
 20
25.884874
 30
0.0
 10
0.783572
 20
25.884872
 30
0.0
  0
SPLINE
  5
148
100
AcDbEntity
  8
Layer_1
 62
7
100
AcDbSpline
 70
8
 71
3
 72
8
 73
4
 74
0
 40
0
 40
0
 40
0
 40
0
 40
1
 40
1
 40
1
 40
1
 10
9.049089
 20
25.237867
 30
0.0
 10
9.338642
 20
24.865642
 30
0.0
 10
9.754655
 20
24.163142
 30
0.0
 10
10.016791
 20
23.603759
 30
0.0
  0
LWPOLYLINE
  5
149
100
AcDbEntity
  8
Layer_1
 62
7
100
AcDbPolyline
 90
3
 70
0
 10
8.627011
 20
25.166879
 30
0.0
 10
8.983090
 20
25.322708
 30
0.0
 10
9.049089
 20
25.237867
 30
0.0
  0
SPLINE
  5
14a
100
AcDbEntity
  8
Layer_1
 62
7
100
AcDbSpline
 70
8
 71
3
 72
8
 73
4
 74
0
 40
0
 40
0
 40
0
 40
0
 40
1
 40
1
 40
1
 40
1
 10
10.005216
 20
23.222226
 30
0.0
 10
9.918317
 20
23.184235
 30
0.0
 10
9.731644
 20
23.100682
 30
0.0
 10
9.590388
 20
23.036552
 30
0.0
  0
SPLINE
  5
14b
100
AcDbEntity
  8
Layer_1
 62
7
100
AcDbSpline
 70
8
 71
3
 72
8
 73
4
 74
0
 40
0
 40
0
 40
0
 40
0
 40
1
 40
1
 40
1
 40
1
 10
9.590388
 20
23.036552
 30
0.0
 10
9.449131
 20
22.972423
 30
0.0
 10
9.328982
 20
22.919953
 30
0.0
 10
9.323389
 20
22.919953
 30
0.0
  0
SPLINE
  5
14c
100
AcDbEntity
  8
Layer_1
 62
7
100
AcDbSpline
 70
8
 71
3
 72
8
 73
4
 74
0
 40
0
 40
0
 40
0
 40
0
 40
1
 40
1
 40
1
 40
1
 10
9.323389
 20
22.919953
 30
0.0
 10
9.317796
 20
22.919953
 30
0.0
 10
9.283120
 20
23.000174
 30
0.0
 10
9.246330
 20
23.098223
 30
0.0
  0
LWPOLYLINE
  5
14d
100
AcDbEntity
  8
Layer_1
 62
7
100
AcDbPolyline
 90
3
 70
0
 10
10.016791
 20
23.603759
 30
0.0
 10
10.163215
 20
23.291300
 30
0.0
 10
10.005216
 20
23.222226
 30
0.0
  0
SPLINE
  5
14e
100
AcDbEntity
  8
Layer_1
 62
7
100
AcDbSpline
 70
8
 71
3
 72
8
 73
4
 74
0
 40
0
 40
0
 40
0
 40
0
 40
1
 40
1
 40
1
 40
1
 10
3.649405
 20
22.808715
 30
0.0
 10
2.947425
 20
22.866399
 30
0.0
 10
2.720741
 20
22.959796
 30
0.0
 10
2.578945
 20
23.249761
 30
0.0
  0
SPLINE
  5
14f
100
AcDbEntity
  8
Layer_1
 62
7
100
AcDbSpline
 70
8
 71
3
 72
8
 73
4
 74
0
 40
0
 40
0
 40
0
 40
0
 40
1
 40
1
 40
1
 40
1
 10
2.578945
 20
23.249761
 30
0.0
 10
2.498156
 20
23.414971
 30
0.0
 10
2.491534
 20
23.481602
 30
0.0
 10
2.478383
 20
24.261672
 30
0.0
  0
LWPOLYLINE
  5
150
100
AcDbEntity
  8
Layer_1
 62
7
100
AcDbPolyline
 90
2
 70
0
 10
9.246330
 20
23.098223
 30
0.0
 10
9.246330
 20
23.098223
 30
0.0
  0
SPLINE
  5
151
100
AcDbEntity
  8
Layer_1
 62
7
100
AcDbSpline
 70
8
 71
3
 72
8
 73
4
 74
0
 40
0
 40
0
 40
0
 40
0
 40
1
 40
1
 40
1
 40
1
 10
3.335654
 20
24.498005
 30
0.0
 10
3.335654
 20
23.880524
 30
0.0
 10
3.358641
 20
23.758673
 30
0.0
 10
3.490677
 20
23.676215
 30
0.0
  0
SPLINE
  5
152
100
AcDbEntity
  8
Layer_1
 62
7
100
AcDbSpline
 70
8
 71
3
 72
8
 73
4
 74
0
 40
0
 40
0
 40
0
 40
0
 40
1
 40
1
 40
1
 40
1
 10
3.490677
 20
23.676215
 30
0.0
 10
3.602444
 20
23.606415
 30
0.0
 10
4.591863
 20
23.546857
 30
0.0
 10
5.230951
 20
23.571459
 30
0.0
  0
SPLINE
  5
153
100
AcDbEntity
  8
Layer_1
 62
7
100
AcDbSpline
 70
8
 71
3
 72
8
 73
4
 74
0
 40
0
 40
0
 40
0
 40
0
 40
1
 40
1
 40
1
 40
1
 10
5.230951
 20
23.571459
 30
0.0
 10
5.899943
 20
23.597212
 30
0.0
 10
6.887163
 20
23.662717
 30
0.0
 10
7.000061
 20
23.688844
 30
0.0
  0
SPLINE
  5
154
100
AcDbEntity
  8
Layer_1
 62
7
100
AcDbSpline
 70
8
 71
3
 72
8
 73
4
 74
0
 40
0
 40
0
 40
0
 40
0
 40
1
 40
1
 40
1
 40
1
 10
7.000061
 20
23.688844
 30
0.0
 10
7.104370
 20
23.712983
 30
0.0
 10
7.182513
 20
23.910885
 30
0.0
 10
7.242522
 20
24.302887
 30
0.0
  0
SPLINE
  5
155
100
AcDbEntity
  8
Layer_1
 62
7
100
AcDbSpline
 70
8
 71
3
 72
8
 73
4
 74
0
 40
0
 40
0
 40
0
 40
0
 40
1
 40
1
 40
1
 40
1
 10
7.242522
 20
24.302887
 30
0.0
 10
7.268436
 20
24.472164
 30
0.0
 10
7.299319
 20
24.606029
 30
0.0
 10
7.311152
 20
24.600365
 30
0.0
  0
SPLINE
  5
156
100
AcDbEntity
  8
Layer_1
 62
7
100
AcDbSpline
 70
8
 71
3
 72
8
 73
4
 74
0
 40
0
 40
0
 40
0
 40
0
 40
1
 40
1
 40
1
 40
1
 10
7.311152
 20
24.600365
 30
0.0
 10
7.440544
 20
24.538424
 30
0.0
 10
8.139574
 20
24.149319
 30
0.0
 10
8.139574
 20
24.139235
 30
0.0
  0
SPLINE
  5
157
100
AcDbEntity
  8
Layer_1
 62
7
100
AcDbSpline
 70
8
 71
3
 72
8
 73
4
 74
0
 40
0
 40
0
 40
0
 40
0
 40
1
 40
1
 40
1
 40
1
 10
8.139574
 20
24.139235
 30
0.0
 10
8.139574
 20
24.059780
 30
0.0
 10
8.012717
 20
23.560192
 30
0.0
 10
7.949929
 20
23.392377
 30
0.0
  0
SPLINE
  5
158
100
AcDbEntity
  8
Layer_1
 62
7
100
AcDbSpline
 70
8
 71
3
 72
8
 73
4
 74
0
 40
0
 40
0
 40
0
 40
0
 40
1
 40
1
 40
1
 40
1
 10
7.949929
 20
23.392377
 30
0.0
 10
7.832223
 20
23.077778
 30
0.0
 10
7.690999
 20
22.933438
 30
0.0
 10
7.452446
 20
22.883914
 30
0.0
  0
SPLINE
  5
159
100
AcDbEntity
  8
Layer_1
 62
7
100
AcDbSpline
 70
8
 71
3
 72
8
 73
4
 74
0
 40
0
 40
0
 40
0
 40
0
 40
1
 40
1
 40
1
 40
1
 10
7.452446
 20
22.883914
 30
0.0
 10
6.968713
 20
22.783492
 30
0.0
 10
4.540632
 20
22.735480
 30
0.0
 10
3.649405
 20
22.808715
 30
0.0
  0
LWPOLYLINE
  5
15a
100
AcDbEntity
  8
Layer_1
 62
7
100
AcDbPolyline
 90
5
 70
0
 10
2.478383
 20
24.261672
 30
0.0
 10
2.464305
 20
25.096729
 30
0.0
 10
2.899980
 20
25.096729
 30
0.0
 10
3.335654
 20
25.096729
 30
0.0
 10
3.335654
 20
24.498005
 30
0.0
  0
SPLINE
  5
15b
100
AcDbEntity
  8
Layer_1
 62
7
100
AcDbSpline
 70
8
 71
3
 72
8
 73
4
 74
0
 40
0
 40
0
 40
0
 40
0
 40
1
 40
1
 40
1
 40
1
 10
4.857655
 20
24.287651
 30
0.0
 10
4.803181
 20
24.437011
 30
0.0
 10
4.691430
 20
24.674179
 30
0.0
 10
4.609320
 20
24.814690
 30
0.0
  0
SPLINE
  5
15c
100
AcDbEntity
  8
Layer_1
 62
7
100
AcDbSpline
 70
8
 71
3
 72
8
 73
4
 74
0
 40
0
 40
0
 40
0
 40
0
 40
1
 40
1
 40
1
 40
1
 10
4.609320
 20
24.814690
 30
0.0
 10
4.527210
 20
24.955201
 30
0.0
 10
4.464599
 20
25.074258
 30
0.0
 10
4.470184
 20
25.079262
 30
0.0
  0
SPLINE
  5
15d
100
AcDbEntity
  8
Layer_1
 62
7
100
AcDbSpline
 70
8
 71
3
 72
8
 73
4
 74
0
 40
0
 40
0
 40
0
 40
0
 40
1
 40
1
 40
1
 40
1
 10
4.470184
 20
25.079262
 30
0.0
 10
4.483234
 20
25.090951
 30
0.0
 10
5.207260
 20
25.321913
 30
0.0
 10
5.230859
 20
25.321913
 30
0.0
  0
SPLINE
  5
15e
100
AcDbEntity
  8
Layer_1
 62
7
100
AcDbSpline
 70
8
 71
3
 72
8
 73
4
 74
0
 40
0
 40
0
 40
0
 40
0
 40
1
 40
1
 40
1
 40
1
 10
5.230859
 20
25.321913
 30
0.0
 10
5.294687
 20
25.321913
 30
0.0
 10
5.720062
 20
24.311941
 30
0.0
 10
5.673792
 20
24.270253
 30
0.0
  0
SPLINE
  5
15f
100
AcDbEntity
  8
Layer_1
 62
7
100
AcDbSpline
 70
8
 71
3
 72
8
 73
4
 74
0
 40
0
 40
0
 40
0
 40
0
 40
1
 40
1
 40
1
 40
1
 10
5.673792
 20
24.270253
 30
0.0
 10
5.657291
 20
24.255385
 30
0.0
 10
5.489193
 20
24.192115
 30
0.0
 10
5.300244
 20
24.129653
 30
0.0
  0
LWPOLYLINE
  5
160
100
AcDbEntity
  8
Layer_1
 62
7
100
AcDbPolyline
 90
3
 70
0
 10
3.649405
 20
22.808715
 30
0.0
 10
3.649405
 20
22.808715
 30
0.0
 10
3.649405
 20
22.808715
 30
0.0
  0
LWPOLYLINE
  5
161
100
AcDbEntity
  8
Layer_1
 62
7
100
AcDbPolyline
 90
5
 70
0
 10
5.300244
 20
24.129653
 30
0.0
 10
4.956700
 20
24.016087
 30
0.0
 10
4.857655
 20
24.287651
 30
0.0
 10
4.857655
 20
24.287651
 30
0.0
 10
4.857655
 20
24.287651
 30
0.0
  0
SPLINE
  5
162
100
AcDbEntity
  8
Layer_1
 62
7
100
AcDbSpline
 70
8
 71
3
 72
8
 73
4
 74
0
 40
0
 40
0
 40
0
 40
0
 40
1
 40
1
 40
1
 40
1
 10
0.316649
 20
23.776492
 30
0.0
 10
0.591940
 20
24.093755
 30
0.0
 10
1.004675
 20
24.671498
 30
0.0
 10
1.212895
 20
25.031050
 30
0.0
  0
SPLINE
  5
163
100
AcDbEntity
  8
Layer_1
 62
7
100
AcDbSpline
 70
8
 71
3
 72
8
 73
4
 74
0
 40
0
 40
0
 40
0
 40
0
 40
1
 40
1
 40
1
 40
1
 10
1.212895
 20
25.031050
 30
0.0
 10
1.269676
 20
25.129099
 30
0.0
 10
1.329596
 20
25.209321
 30
0.0
 10
1.346050
 20
25.209321
 30
0.0
  0
SPLINE
  5
164
100
AcDbEntity
  8
Layer_1
 62
7
100
AcDbSpline
 70
8
 71
3
 72
8
 73
4
 74
0
 40
0
 40
0
 40
0
 40
0
 40
1
 40
1
 40
1
 40
1
 10
1.346050
 20
25.209321
 30
0.0
 10
1.397210
 20
25.209321
 30
0.0
 10
1.984552
 20
24.868674
 30
0.0
 10
1.984552
 20
24.839002
 30
0.0
  0
SPLINE
  5
165
100
AcDbEntity
  8
Layer_1
 62
7
100
AcDbSpline
 70
8
 71
3
 72
8
 73
4
 74
0
 40
0
 40
0
 40
0
 40
0
 40
1
 40
1
 40
1
 40
1
 10
1.984552
 20
24.839002
 30
0.0
 10
1.984552
 20
24.823562
 30
0.0
 10
1.858999
 20
24.595785
 30
0.0
 10
1.705546
 20
24.332833
 30
0.0
  0
SPLINE
  5
166
100
AcDbEntity
  8
Layer_1
 62
7
100
AcDbSpline
 70
8
 71
3
 72
8
 73
4
 74
0
 40
0
 40
0
 40
0
 40
0
 40
1
 40
1
 40
1
 40
1
 10
1.705546
 20
24.332833
 30
0.0
 10
1.393037
 20
23.797327
 30
0.0
 10
1.085190
 20
23.355762
 30
0.0
 10
0.825966
 20
23.071193
 30
0.0
  0
LWPOLYLINE
  5
167
100
AcDbEntity
  8
Layer_1
 62
7
100
AcDbPolyline
 90
3
 70
0
 10
0.343136
 20
23.165635
 30
0.0
 10
0.034058
 20
23.450816
 30
0.0
 10
0.316649
 20
23.776492
 30
0.0
  0
LWPOLYLINE
  5
168
100
AcDbEntity
  8
Layer_1
 62
7
100
AcDbPolyline
 90
4
 70
0
 10
0.825966
 20
23.071193
 30
0.0
 10
0.652215
 20
22.880454
 30
0.0
 10
0.343136
 20
23.165635
 30
0.0
 10
0.343136
 20
23.165635
 30
0.0
  0
ENDSEC
  0
SECTION
  2
OBJECTS
  0
DICTIONARY
  5
C
330
0
100
AcDbDictionary
  3
ACAD_GROUP
350
D
  3
ACAD_MLINESTYLE
350
17
  0
DICTIONARY
  5
D
330
C
100
AcDbDictionary
  0
DICTIONARY
  5
1A
330
C
100
AcDbDictionary
  0
DICTIONARY
  5
17
330
C
100
AcDbDictionary
  3
STANDARD
350
18
  0
DICTIONARY
  5
19
330
C
100
AcDbDictionary
  0
ENDSEC
  0
EOF
