  0
SECTION
  2
HEADER
  9
$ACADVER
  1
AC1014
  9
$HANDSEED
  5
FFFF
  9
$MEASUREMENT
 70
     1
  0
ENDSEC
  0
SECTION
  2
TABLES
  0
TABLE
  2
VPORT
  5
8
330
0
100
AcDbSymbolTable
 70
     4
  0
VPORT
  5
2E
330
8
100
AcDbSymbolTableRecord
100
AcDbViewportTableRecord
  2
*ACTIVE
 70
     0
 10
0.0
 20
0.0
 11
1.0
 21
1.0
 12
210.0
 22
148.5
 13
0.0
 23
0.0
 14
10.0
 24
10.0
 15
10.0
 25
10.0
 16
0.0
 26
0.0
 36
1.0
 17
0.0
 27
0.0
 37
0.0
 40
341.0
 41
1.24
 42
50.0
 43
0.0
 44
0.0
 50
0.0
 51
0.0
 71
     0
 72
   100
 73
     1
 74
     3
 75
     0
 76
     0
 77
     0
 78
     0
  0
ENDTAB
  0
TABLE
  2
LTYPE
  5
5
330
0
100
AcDbSymbolTable
 70
     1
  0
LTYPE
  5
14
330
5
100
AcDbSymbolTableRecord
100
AcDbLinetypeTableRecord
  2
BYBLOCK
 70
     0
  3

 72
    65
 73
     0
 40
0.0
  0
LTYPE
  5
15
330
5
100
AcDbSymbolTableRecord
100
AcDbLinetypeTableRecord
  2
BYLAYER
 70
     0
  3

 72
    65
 73
     0
 40
0.0
  0
LTYPE
  5
16
330
5
100
AcDbSymbolTableRecord
100
AcDbLinetypeTableRecord
  2
CONTINUOUS
 70
     0
  3
Solid line
 72
    65
 73
     0
 40
0.0
  0
ENDTAB
  0
TABLE
  2
LAYER
  5
2
100
AcDbSymbolTable
 70
2
  0
LAYER
  5
50
100
AcDbSymbolTableRecord
100
AcDbLayerTableRecord
  2
0
 70
0
  6
CONTINUOUS
  0
LAYER
  5
51
100
AcDbSymbolTableRecord
100
AcDbLayerTableRecord
  2
Layer_1
 70
0
  6
CONTINUOUS
  0
ENDTAB
  0
TABLE
  2
STYLE
  5
3
330
0
100
AcDbSymbolTable
 70
     1
  0
STYLE
  5
11
330
3
100
AcDbSymbolTableRecord
100
AcDbTextStyleTableRecord
  2
STANDARD
 70
     0
 40
0.0
 41
1.0
 50
0.0
 71
     0
 42
2.5
  3
txt
  4

  0
ENDTAB
  0
TABLE
  2
VIEW
  5
6
330
0
100
AcDbSymbolTable
 70
     0
  0
ENDTAB
  0
TABLE
  2
UCS
  5
7
330
0
100
AcDbSymbolTable
 70
     0
  0
ENDTAB
  0
TABLE
  2
APPID
  5
9
330
0
100
AcDbSymbolTable
 70
     2
  0
APPID
  5
12
330
9
100
AcDbSymbolTableRecord
100
AcDbRegAppTableRecord
  2
ACAD
 70
     0
  0
ENDTAB
  0
TABLE
  2
DIMSTYLE
  5
A
330
0
100
AcDbSymbolTable
 70
     1
  0
DIMSTYLE
105
27
330
A
100
AcDbSymbolTableRecord
100
AcDbDimStyleTableRecord
  2
ISO-25
 70
     0
  3

  4

  5

  6

  7

 40
1.0
 41
2.5
 42
0.625
 43
3.75
 44
1.25
 45
0.0
 46
0.0
 47
0.0
 48
0.0
140
2.5
141
2.5
142
0.0
143
0.03937007874016
144
1.0
145
0.0
146
1.0
147
0.625
 71
     0
 72
     0
 73
     0
 74
     0
 75
     0
 76
     0
 77
     1
 78
     8
170
     0
171
     3
172
     1
173
     0
174
     0
175
     0
176
     0
177
     0
178
     0
270
     2
271
     2
272
     2
273
     2
274
     3
340
11
275
     0
280
     0
281
     0
282
     0
283
     0
284
     8
285
     0
286
     0
287
     3
288
     0
  0
ENDTAB
  0
TABLE
  2
BLOCK_RECORD
  5
1
330
0
100
AcDbSymbolTable
 70
     1
  0
BLOCK_RECORD
  5
1F
330
1
100
AcDbSymbolTableRecord
100
AcDbBlockTableRecord
  2
*MODEL_SPACE
  0
BLOCK_RECORD
  5
1B
330
1
100
AcDbSymbolTableRecord
100
AcDbBlockTableRecord
  2
*PAPER_SPACE
  0
ENDTAB
  0
ENDSEC
  0
SECTION
  2
BLOCKS
  0
BLOCK
  5
20
330
1F
100
AcDbEntity
  8
0
100
AcDbBlockBegin
  2
*MODEL_SPACE
 70
     0
 10
0.0
 20
0.0
 30
0.0
  3
*MODEL_SPACE
  1

  0
ENDBLK
  5
21
330
1F
100
AcDbEntity
  8
0
100
AcDbBlockEnd
  0
BLOCK
  5
1C
330
1B
100
AcDbEntity
 67
     1
  8
0
100
AcDbBlockBegin
  2
*PAPER_SPACE
  1

  0
ENDBLK
  5
1D
330
1B
100
AcDbEntity
 67
     1
  8
0
100
AcDbBlockEnd
  0
ENDSEC
  0
SECTION
  2
ENTITIES
  0
SPLINE
  5
100
100
AcDbEntity
  8
Layer_1
 62
7
100
AcDbSpline
 70
8
 71
3
 72
8
 73
4
 74
0
 40
0
 40
0
 40
0
 40
0
 40
1
 40
1
 40
1
 40
1
 10
3.084597
 20
0.139665
 30
0.0
 10
2.498682
 20
0.219539
 30
0.0
 10
2.539741
 20
0.188710
 30
0.0
 10
2.459112
 20
0.609313
 30
0.0
  0
SPLINE
  5
101
100
AcDbEntity
  8
Layer_1
 62
7
100
AcDbSpline
 70
8
 71
3
 72
8
 73
4
 74
0
 40
0
 40
0
 40
0
 40
0
 40
1
 40
1
 40
1
 40
1
 10
2.459112
 20
0.609313
 30
0.0
 10
2.420445
 20
0.811025
 30
0.0
 10
2.388808
 20
0.993926
 30
0.0
 10
2.388808
 20
1.015761
 30
0.0
  0
SPLINE
  5
102
100
AcDbEntity
  8
Layer_1
 62
7
100
AcDbSpline
 70
8
 71
3
 72
8
 73
4
 74
0
 40
0
 40
0
 40
0
 40
0
 40
1
 40
1
 40
1
 40
1
 10
2.388808
 20
1.015761
 30
0.0
 10
2.388808
 20
1.038776
 30
0.0
 10
2.567745
 20
1.024358
 30
0.0
 10
2.814532
 20
0.981462
 30
0.0
  0
SPLINE
  5
103
100
AcDbEntity
  8
Layer_1
 62
7
100
AcDbSpline
 70
8
 71
3
 72
8
 73
4
 74
0
 40
0
 40
0
 40
0
 40
0
 40
1
 40
1
 40
1
 40
1
 10
2.814532
 20
0.981462
 30
0.0
 10
3.048680
 20
0.940763
 30
0.0
 10
3.513148
 20
0.895131
 30
0.0
 10
3.846681
 20
0.880059
 30
0.0
  0
SPLINE
  5
104
100
AcDbEntity
  8
Layer_1
 62
7
100
AcDbSpline
 70
8
 71
3
 72
8
 73
4
 74
0
 40
0
 40
0
 40
0
 40
0
 40
1
 40
1
 40
1
 40
1
 10
3.846681
 20
0.880059
 30
0.0
 10
4.430432
 20
0.853680
 30
0.0
 10
4.456444
 20
0.855991
 30
0.0
 10
4.542377
 20
0.941925
 30
0.0
  0
SPLINE
  5
105
100
AcDbEntity
  8
Layer_1
 62
7
100
AcDbSpline
 70
8
 71
3
 72
8
 73
4
 74
0
 40
0
 40
0
 40
0
 40
0
 40
1
 40
1
 40
1
 40
1
 10
5.494503
 20
5.444191
 30
0.0
 10
5.483776
 20
1.000134
 30
0.0
 10
5.478665
 20
0.709862
 30
0.0
 10
5.408430
 20
0.554121
 30
0.0
  0
SPLINE
  5
106
100
AcDbEntity
  8
Layer_1
 62
7
100
AcDbSpline
 70
8
 71
3
 72
8
 73
4
 74
0
 40
0
 40
0
 40
0
 40
0
 40
1
 40
1
 40
1
 40
1
 10
5.408430
 20
0.554121
 30
0.0
 10
5.226939
 20
0.151676
 30
0.0
 10
5.015108
 20
0.074039
 30
0.0
 10
4.115318
 20
0.080192
 30
0.0
  0
SPLINE
  5
107
100
AcDbEntity
  8
Layer_1
 62
7
100
AcDbSpline
 70
8
 71
3
 72
8
 73
4
 74
0
 40
0
 40
0
 40
0
 40
0
 40
1
 40
1
 40
1
 40
1
 10
4.115318
 20
0.080192
 30
0.0
 10
3.771097
 20
0.082534
 30
0.0
 10
3.307273
 20
0.109309
 30
0.0
 10
3.084598
 20
0.139665
 30
0.0
  0
LWPOLYLINE
  5
108
100
AcDbEntity
  8
Layer_1
 62
7
100
AcDbPolyline
 90
7
 70
0
 10
4.542377
 20
0.941925
 30
0.0
 10
4.631648
 20
1.031196
 30
0.0
 10
4.631648
 20
5.599944
 30
0.0
 10
4.631648
 20
10.168692
 30
0.0
 10
5.068778
 20
10.168692
 30
0.0
 10
5.505908
 20
10.168692
 30
0.0
 10
5.494503
 20
5.444191
 30
0.0
  0
SPLINE
  5
109
100
AcDbEntity
  8
Layer_1
 62
7
100
AcDbSpline
 70
8
 71
3
 72
8
 73
4
 74
0
 40
0
 40
0
 40
0
 40
0
 40
1
 40
1
 40
1
 40
1
 10
0.512455
 20
2.331634
 30
0.0
 10
0.337101
 20
2.450190
 30
0.0
 10
0.159824
 20
2.567740
 30
0.0
 10
0.118506
 20
2.592856
 30
0.0
  0
SPLINE
  5
10a
100
AcDbEntity
  8
Layer_1
 62
7
100
AcDbSpline
 70
8
 71
3
 72
8
 73
4
 74
0
 40
0
 40
0
 40
0
 40
0
 40
1
 40
1
 40
1
 40
1
 10
0.118506
 20
2.592856
 30
0.0
 10
0.049333
 20
2.634905
 30
0.0
 10
0.070202
 20
2.690834
 30
0.0
 10
0.381969
 20
3.298935
 30
0.0
  0
SPLINE
  5
10b
100
AcDbEntity
  8
Layer_1
 62
7
100
AcDbSpline
 70
8
 71
3
 72
8
 73
4
 74
0
 40
0
 40
0
 40
0
 40
0
 40
1
 40
1
 40
1
 40
1
 10
0.381969
 20
3.298935
 30
0.0
 10
1.010456
 20
4.524802
 30
0.0
 10
1.557881
 20
5.957082
 30
0.0
 10
1.912283
 20
7.302841
 30
0.0
  0
SPLINE
  5
10c
100
AcDbEntity
  8
Layer_1
 62
7
100
AcDbSpline
 70
8
 71
3
 72
8
 73
4
 74
0
 40
0
 40
0
 40
0
 40
0
 40
1
 40
1
 40
1
 40
1
 10
1.912283
 20
7.302841
 30
0.0
 10
1.999513
 20
7.634075
 30
0.0
 10
2.083340
 20
7.919836
 30
0.0
 10
2.098566
 20
7.937866
 30
0.0
  0
SPLINE
  5
10d
100
AcDbEntity
  8
Layer_1
 62
7
100
AcDbSpline
 70
8
 71
3
 72
8
 73
4
 74
0
 40
0
 40
0
 40
0
 40
0
 40
1
 40
1
 40
1
 40
1
 10
2.098566
 20
7.937866
 30
0.0
 10
2.118733
 20
7.961745
 30
0.0
 10
2.801291
 20
7.752174
 30
0.0
 10
2.875778
 20
7.699233
 30
0.0
  0
SPLINE
  5
10e
100
AcDbEntity
  8
Layer_1
 62
7
100
AcDbSpline
 70
8
 71
3
 72
8
 73
4
 74
0
 40
0
 40
0
 40
0
 40
0
 40
1
 40
1
 40
1
 40
1
 10
2.875778
 20
7.699233
 30
0.0
 10
2.913237
 20
7.672609
 30
0.0
 10
2.398485
 20
5.869552
 30
0.0
 10
2.110451
 20
5.018467
 30
0.0
  0
SPLINE
  5
10f
100
AcDbEntity
  8
Layer_1
 62
7
100
AcDbSpline
 70
8
 71
3
 72
8
 73
4
 74
0
 40
0
 40
0
 40
0
 40
0
 40
1
 40
1
 40
1
 40
1
 10
2.110451
 20
5.018467
 30
0.0
 10
1.789539
 20
4.070232
 30
0.0
 10
0.940676
 20
2.104918
 30
0.0
 10
0.855767
 20
2.113580
 30
0.0
  0
SPLINE
  5
110
100
AcDbEntity
  8
Layer_1
 62
7
100
AcDbSpline
 70
8
 71
3
 72
8
 73
4
 74
0
 40
0
 40
0
 40
0
 40
0
 40
1
 40
1
 40
1
 40
1
 10
0.855767
 20
2.113580
 30
0.0
 10
0.842299
 20
2.114955
 30
0.0
 10
0.687809
 20
2.213078
 30
0.0
 10
0.512455
 20
2.331634
 30
0.0
  0
LWPOLYLINE
  5
111
100
AcDbEntity
  8
Layer_1
 62
7
100
AcDbPolyline
 90
3
 70
0
 10
3.084598
 20
0.139665
 30
0.0
 10
3.084598
 20
0.139665
 30
0.0
 10
3.084597
 20
0.139665
 30
0.0
  0
SPLINE
  5
112
100
AcDbEntity
  8
Layer_1
 62
7
100
AcDbSpline
 70
8
 71
3
 72
8
 73
4
 74
0
 40
0
 40
0
 40
0
 40
0
 40
1
 40
1
 40
1
 40
1
 10
8.893452
 20
2.744476
 30
0.0
 10
8.522238
 20
4.108144
 30
0.0
 10
7.910857
 20
5.794892
 30
0.0
 10
7.332265
 20
7.051661
 30
0.0
  0
LWPOLYLINE
  5
113
100
AcDbEntity
  8
Layer_1
 62
7
100
AcDbPolyline
 90
2
 70
0
 10
0.512455
 20
2.331634
 30
0.0
 10
0.512455
 20
2.331634
 30
0.0
  0
SPLINE
  5
114
100
AcDbEntity
  8
Layer_1
 62
7
100
AcDbSpline
 70
8
 71
3
 72
8
 73
4
 74
0
 40
0
 40
0
 40
0
 40
0
 40
1
 40
1
 40
1
 40
1
 10
7.410782
 20
7.810120
 30
0.0
 10
7.606960
 20
7.894951
 30
0.0
 10
7.787371
 20
7.965040
 30
0.0
 10
7.811695
 20
7.965872
 30
0.0
  0
SPLINE
  5
115
100
AcDbEntity
  8
Layer_1
 62
7
100
AcDbSpline
 70
8
 71
3
 72
8
 73
4
 74
0
 40
0
 40
0
 40
0
 40
0
 40
1
 40
1
 40
1
 40
1
 10
7.811695
 20
7.965872
 30
0.0
 10
7.836020
 20
7.966705
 30
0.0
 10
7.890095
 20
7.897297
 30
0.0
 10
7.931864
 20
7.811633
 30
0.0
  0
SPLINE
  5
116
100
AcDbEntity
  8
Layer_1
 62
7
100
AcDbSpline
 70
8
 71
3
 72
8
 73
4
 74
0
 40
0
 40
0
 40
0
 40
0
 40
1
 40
1
 40
1
 40
1
 10
7.931864
 20
7.811633
 30
0.0
 10
8.273760
 20
7.110444
 30
0.0
 10
8.682982
 20
6.183528
 30
0.0
 10
8.981645
 20
5.433808
 30
0.0
  0
SPLINE
  5
117
100
AcDbEntity
  8
Layer_1
 62
7
100
AcDbSpline
 70
8
 71
3
 72
8
 73
4
 74
0
 40
0
 40
0
 40
0
 40
0
 40
1
 40
1
 40
1
 40
1
 10
8.981645
 20
5.433808
 30
0.0
 10
9.378097
 20
4.438614
 30
0.0
 10
10.001285
 20
2.602923
 30
0.0
 10
9.956297
 20
2.562832
 30
0.0
  0
SPLINE
  5
118
100
AcDbEntity
  8
Layer_1
 62
7
100
AcDbSpline
 70
8
 71
3
 72
8
 73
4
 74
0
 40
0
 40
0
 40
0
 40
0
 40
1
 40
1
 40
1
 40
1
 10
9.956297
 20
2.562832
 30
0.0
 10
9.932220
 20
2.541374
 30
0.0
 10
9.084480
 20
2.152616
 30
0.0
 10
9.061770
 20
2.152616
 30
0.0
  0
SPLINE
  5
119
100
AcDbEntity
  8
Layer_1
 62
7
100
AcDbSpline
 70
8
 71
3
 72
8
 73
4
 74
0
 40
0
 40
0
 40
0
 40
0
 40
1
 40
1
 40
1
 40
1
 10
9.061770
 20
2.152616
 30
0.0
 10
9.057807
 20
2.152616
 30
0.0
 10
8.982065
 20
2.418953
 30
0.0
 10
8.893452
 20
2.744476
 30
0.0
  0
LWPOLYLINE
  5
11a
100
AcDbEntity
  8
Layer_1
 62
7
100
AcDbPolyline
 90
3
 70
0
 10
7.332265
 20
7.051661
 30
0.0
 10
7.054093
 20
7.655881
 30
0.0
 10
7.410782
 20
7.810120
 30
0.0
  0
SPLINE
  5
11b
100
AcDbEntity
  8
Layer_1
 62
7
100
AcDbSpline
 70
8
 71
3
 72
8
 73
4
 74
0
 40
0
 40
0
 40
0
 40
0
 40
1
 40
1
 40
1
 40
1
 10
17.083192
 20
0.133568
 30
0.0
 10
16.929935
 20
0.160898
 30
0.0
 10
16.796432
 20
0.191813
 30
0.0
 10
16.786519
 20
0.202270
 30
0.0
  0
SPLINE
  5
11c
100
AcDbEntity
  8
Layer_1
 62
7
100
AcDbSpline
 70
8
 71
3
 72
8
 73
4
 74
0
 40
0
 40
0
 40
0
 40
0
 40
1
 40
1
 40
1
 40
1
 10
16.786519
 20
0.202270
 30
0.0
 10
16.776604
 20
0.212726
 30
0.0
 10
16.732165
 20
0.413148
 30
0.0
 10
16.687762
 20
0.647651
 30
0.0
  0
SPLINE
  5
11d
100
AcDbEntity
  8
Layer_1
 62
7
100
AcDbSpline
 70
8
 71
3
 72
8
 73
4
 74
0
 40
0
 40
0
 40
0
 40
0
 40
1
 40
1
 40
1
 40
1
 10
16.687762
 20
0.647651
 30
0.0
 10
16.615669
 20
1.028393
 30
0.0
 10
16.614082
 20
1.071895
 30
0.0
 10
16.672928
 20
1.054152
 30
0.0
  0
SPLINE
  5
11e
100
AcDbEntity
  8
Layer_1
 62
7
100
AcDbSpline
 70
8
 71
3
 72
8
 73
4
 74
0
 40
0
 40
0
 40
0
 40
0
 40
1
 40
1
 40
1
 40
1
 10
16.672928
 20
1.054152
 30
0.0
 10
16.907279
 20
0.983494
 30
0.0
 10
17.169968
 20
0.944708
 30
0.0
 10
17.572205
 20
0.921372
 30
0.0
  0
LWPOLYLINE
  5
11f
100
AcDbEntity
  8
Layer_1
 62
7
100
AcDbPolyline
 90
3
 70
0
 10
8.893452
 20
2.744476
 30
0.0
 10
8.893452
 20
2.744476
 30
0.0
 10
8.893452
 20
2.744476
 30
0.0
  0
SPLINE
  5
120
100
AcDbEntity
  8
Layer_1
 62
7
100
AcDbSpline
 70
8
 71
3
 72
8
 73
4
 74
0
 40
0
 40
0
 40
0
 40
0
 40
1
 40
1
 40
1
 40
1
 10
18.122531
 20
1.010089
 30
0.0
 10
18.213149
 20
1.125290
 30
0.0
 10
18.213288
 20
1.128702
 30
0.0
 10
18.213288
 20
3.238103
 30
0.0
  0
LWPOLYLINE
  5
121
100
AcDbEntity
  8
Layer_1
 62
7
100
AcDbPolyline
 90
3
 70
0
 10
17.572205
 20
0.921372
 30
0.0
 10
18.031775
 20
0.894710
 30
0.0
 10
18.122531
 20
1.010089
 30
0.0
  0
SPLINE
  5
122
100
AcDbEntity
  8
Layer_1
 62
7
100
AcDbSpline
 70
8
 71
3
 72
8
 73
4
 74
0
 40
0
 40
0
 40
0
 40
0
 40
1
 40
1
 40
1
 40
1
 10
17.527976
 20
6.098353
 30
0.0
 10
18.247553
 20
6.098353
 30
0.0
 10
18.836299
 20
6.111027
 30
0.0
 10
18.836299
 20
6.126521
 30
0.0
  0
SPLINE
  5
123
100
AcDbEntity
  8
Layer_1
 62
7
100
AcDbSpline
 70
8
 71
3
 72
8
 73
4
 74
0
 40
0
 40
0
 40
0
 40
0
 40
1
 40
1
 40
1
 40
1
 10
18.836299
 20
6.126521
 30
0.0
 10
18.836299
 20
6.187759
 30
0.0
 10
17.787917
 20
7.224924
 30
0.0
 10
17.300512
 20
7.645877
 30
0.0
  0
LWPOLYLINE
  5
124
100
AcDbEntity
  8
Layer_1
 62
7
100
AcDbPolyline
 90
7
 70
0
 10
18.213288
 20
3.238103
 30
0.0
 10
18.213288
 20
5.350739
 30
0.0
 10
17.216470
 20
5.350739
 30
0.0
 10
16.219652
 20
5.350739
 30
0.0
 10
16.219652
 20
5.724546
 30
0.0
 10
16.219652
 20
6.098353
 30
0.0
 10
17.527976
 20
6.098353
 30
0.0
  0
SPLINE
  5
125
100
AcDbEntity
  8
Layer_1
 62
7
100
AcDbSpline
 70
8
 71
3
 72
8
 73
4
 74
0
 40
0
 40
0
 40
0
 40
0
 40
1
 40
1
 40
1
 40
1
 10
17.780973
 20
8.250941
 30
0.0
 10
17.878310
 20
8.181038
 30
0.0
 10
18.113526
 20
7.996825
 30
0.0
 10
18.303673
 20
7.841579
 30
0.0
  0
SPLINE
  5
126
100
AcDbEntity
  8
Layer_1
 62
7
100
AcDbSpline
 70
8
 71
3
 72
8
 73
4
 74
0
 40
0
 40
0
 40
0
 40
0
 40
1
 40
1
 40
1
 40
1
 10
18.303673
 20
7.841579
 30
0.0
 10
18.559616
 20
7.632613
 30
0.0
 10
18.662981
 20
7.570561
 30
0.0
 10
18.701711
 20
7.602629
 30
0.0
  0
SPLINE
  5
127
100
AcDbEntity
  8
Layer_1
 62
7
100
AcDbSpline
 70
8
 71
3
 72
8
 73
4
 74
0
 40
0
 40
0
 40
0
 40
0
 40
1
 40
1
 40
1
 40
1
 10
18.701711
 20
7.602629
 30
0.0
 10
18.872757
 20
7.744253
 30
0.0
 10
19.583912
 20
8.815917
 30
0.0
 10
19.583912
 20
8.932048
 30
0.0
  0
SPLINE
  5
128
100
AcDbEntity
  8
Layer_1
 62
7
100
AcDbSpline
 70
8
 71
3
 72
8
 73
4
 74
0
 40
0
 40
0
 40
0
 40
0
 40
1
 40
1
 40
1
 40
1
 10
19.583912
 20
8.932048
 30
0.0
 10
19.583912
 20
8.949734
 30
0.0
 10
18.873679
 20
8.964204
 30
0.0
 10
18.005617
 20
8.964204
 30
0.0
  0
LWPOLYLINE
  5
129
100
AcDbEntity
  8
Layer_1
 62
7
100
AcDbPolyline
 90
5
 70
0
 10
17.300512
 20
7.645877
 30
0.0
 10
17.073049
 20
7.842328
 30
0.0
 10
17.338522
 20
8.110182
 30
0.0
 10
17.603995
 20
8.378037
 30
0.0
 10
17.780973
 20
8.250941
 30
0.0
  0
SPLINE
  5
12a
100
AcDbEntity
  8
Layer_1
 62
7
100
AcDbSpline
 70
8
 71
3
 72
8
 73
4
 74
0
 40
0
 40
0
 40
0
 40
0
 40
1
 40
1
 40
1
 40
1
 10
20.408075
 20
8.594814
 30
0.0
 10
20.111067
 20
8.099142
 30
0.0
 10
19.929004
 20
7.834526
 30
0.0
 10
19.561560
 20
7.364467
 30
0.0
  0
LWPOLYLINE
  5
12b
100
AcDbEntity
  8
Layer_1
 62
7
100
AcDbPolyline
 90
9
 70
0
 10
18.005617
 20
8.964204
 30
0.0
 10
16.427323
 20
8.964204
 30
0.0
 10
16.427323
 20
9.358778
 30
0.0
 10
16.427323
 20
9.753351
 30
0.0
 10
18.524793
 20
9.753351
 30
0.0
 10
20.622264
 20
9.753351
 30
0.0
 10
20.622264
 20
9.352811
 30
0.0
 10
20.622264
 20
8.952271
 30
0.0
 10
20.408075
 20
8.594814
 30
0.0
  0
SPLINE
  5
12c
100
AcDbEntity
  8
Layer_1
 62
7
100
AcDbSpline
 70
8
 71
3
 72
8
 73
4
 74
0
 40
0
 40
0
 40
0
 40
0
 40
1
 40
1
 40
1
 40
1
 10
21.120673
 20
5.752655
 30
0.0
 10
21.120673
 20
5.260497
 30
0.0
 10
20.857329
 20
4.226145
 30
0.0
 10
20.519867
 20
3.392827
 30
0.0
  0
SPLINE
  5
12d
100
AcDbEntity
  8
Layer_1
 62
7
100
AcDbSpline
 70
8
 71
3
 72
8
 73
4
 74
0
 40
0
 40
0
 40
0
 40
0
 40
1
 40
1
 40
1
 40
1
 10
20.519867
 20
3.392827
 30
0.0
 10
20.495223
 20
3.331977
 30
0.0
 10
20.450259
 20
3.338558
 30
0.0
 10
20.098119
 20
3.454551
 30
0.0
  0
SPLINE
  5
12e
100
AcDbEntity
  8
Layer_1
 62
7
100
AcDbSpline
 70
8
 71
3
 72
8
 73
4
 74
0
 40
0
 40
0
 40
0
 40
0
 40
1
 40
1
 40
1
 40
1
 10
20.098119
 20
3.454551
 30
0.0
 10
19.796293
 20
3.553970
 30
0.0
 10
19.708998
 20
3.599116
 30
0.0
 10
19.725483
 20
3.647265
 30
0.0
  0
SPLINE
  5
12f
100
AcDbEntity
  8
Layer_1
 62
7
100
AcDbSpline
 70
8
 71
3
 72
8
 73
4
 74
0
 40
0
 40
0
 40
0
 40
0
 40
1
 40
1
 40
1
 40
1
 10
19.725483
 20
3.647265
 30
0.0
 10
19.831052
 20
3.955595
 30
0.0
 10
20.164123
 20
5.072480
 30
0.0
 10
20.187036
 20
5.194987
 30
0.0
  0
LWPOLYLINE
  5
130
100
AcDbEntity
  8
Layer_1
 62
7
100
AcDbPolyline
 90
9
 70
0
 10
19.561560
 20
7.364467
 30
0.0
 10
19.244746
 20
6.959177
 30
0.0
 10
19.482564
 20
6.718851
 30
0.0
 10
19.720382
 20
6.478525
 30
0.0
 10
19.588185
 20
6.298823
 30
0.0
 10
19.455988
 20
6.119120
 30
0.0
 10
20.288330
 20
6.107876
 30
0.0
 10
21.120673
 20
6.096633
 30
0.0
 10
21.120673
 20
5.752655
 30
0.0
  0
SPLINE
  5
131
100
AcDbEntity
  8
Layer_1
 62
7
100
AcDbSpline
 70
8
 71
3
 72
8
 73
4
 74
0
 40
0
 40
0
 40
0
 40
0
 40
1
 40
1
 40
1
 40
1
 10
19.075067
 20
3.055982
 30
0.0
 10
19.063767
 20
1.321408
 30
0.0
 10
19.046963
 20
0.721144
 30
0.0
 10
19.006228
 20
0.597037
 30
0.0
  0
SPLINE
  5
132
100
AcDbEntity
  8
Layer_1
 62
7
100
AcDbSpline
 70
8
 71
3
 72
8
 73
4
 74
0
 40
0
 40
0
 40
0
 40
0
 40
1
 40
1
 40
1
 40
1
 10
19.006228
 20
0.597037
 30
0.0
 10
18.935923
 20
0.382838
 30
0.0
 10
18.728608
 20
0.179086
 30
0.0
 10
18.522844
 20
0.121959
 30
0.0
  0
SPLINE
  5
133
100
AcDbEntity
  8
Layer_1
 62
7
100
AcDbSpline
 70
8
 71
3
 72
8
 73
4
 74
0
 40
0
 40
0
 40
0
 40
0
 40
1
 40
1
 40
1
 40
1
 10
18.522844
 20
0.121959
 30
0.0
 10
18.309875
 20
0.062832
 30
0.0
 10
17.440544
 20
0.069842
 30
0.0
 10
17.083190
 20
0.133567
 30
0.0
  0
LWPOLYLINE
  5
134
100
AcDbEntity
  8
Layer_1
 62
7
100
AcDbPolyline
 90
5
 70
0
 10
20.187036
 20
5.194987
 30
0.0
 10
20.216168
 20
5.350739
 30
0.0
 10
19.653092
 20
5.350739
 30
0.0
 10
19.090016
 20
5.350739
 30
0.0
 10
19.075067
 20
3.055982
 30
0.0
  0
SPLINE
  5
135
100
AcDbEntity
  8
Layer_1
 62
7
100
AcDbSpline
 70
8
 71
3
 72
8
 73
4
 74
0
 40
0
 40
0
 40
0
 40
0
 40
1
 40
1
 40
1
 40
1
 10
11.263738
 20
0.482230
 30
0.0
 10
11.235433
 20
0.533081
 30
0.0
 10
11.099162
 20
1.282664
 30
0.0
 10
11.115906
 20
1.295408
 30
0.0
  0
SPLINE
  5
136
100
AcDbEntity
  8
Layer_1
 62
7
100
AcDbSpline
 70
8
 71
3
 72
8
 73
4
 74
0
 40
0
 40
0
 40
0
 40
0
 40
1
 40
1
 40
1
 40
1
 10
11.115906
 20
1.295408
 30
0.0
 10
11.124610
 20
1.302032
 30
0.0
 10
11.552262
 20
1.359030
 30
0.0
 10
12.066247
 20
1.422070
 30
0.0
  0
SPLINE
  5
137
100
AcDbEntity
  8
Layer_1
 62
7
100
AcDbSpline
 70
8
 71
3
 72
8
 73
4
 74
0
 40
0
 40
0
 40
0
 40
0
 40
1
 40
1
 40
1
 40
1
 10
12.066247
 20
1.422070
 30
0.0
 10
12.580231
 20
1.485109
 30
0.0
 10
13.033471
 20
1.545699
 30
0.0
 10
13.073448
 20
1.556712
 30
0.0
  0
SPLINE
  5
138
100
AcDbEntity
  8
Layer_1
 62
7
100
AcDbSpline
 70
8
 71
3
 72
8
 73
4
 74
0
 40
0
 40
0
 40
0
 40
0
 40
1
 40
1
 40
1
 40
1
 10
13.073448
 20
1.556712
 30
0.0
 10
13.138235
 20
1.574560
 30
0.0
 10
13.146132
 20
1.639611
 30
0.0
 10
13.146132
 20
2.155415
 30
0.0
  0
LWPOLYLINE
  5
139
100
AcDbEntity
  8
Layer_1
 62
7
100
AcDbPolyline
 90
3
 70
0
 10
17.083190
 20
0.133567
 30
0.0
 10
17.083190
 20
0.133567
 30
0.0
 10
17.083192
 20
0.133568
 30
0.0
  0
SPLINE
  5
13a
100
AcDbEntity
  8
Layer_1
 62
7
100
AcDbSpline
 70
8
 71
3
 72
8
 73
4
 74
0
 40
0
 40
0
 40
0
 40
0
 40
1
 40
1
 40
1
 40
1
 10
13.976814
 20
2.214917
 30
0.0
 10
13.976814
 20
1.929370
 30
0.0
 10
13.990832
 20
1.695801
 30
0.0
 10
14.007964
 20
1.695874
 30
0.0
  0
SPLINE
  5
13b
100
AcDbEntity
  8
Layer_1
 62
7
100
AcDbSpline
 70
8
 71
3
 72
8
 73
4
 74
0
 40
0
 40
0
 40
0
 40
0
 40
1
 40
1
 40
1
 40
1
 10
14.007964
 20
1.695874
 30
0.0
 10
14.074507
 20
1.696156
 30
0.0
 10
14.816387
 20
1.829093
 30
0.0
 10
15.423842
 20
1.949582
 30
0.0
  0
SPLINE
  5
13c
100
AcDbEntity
  8
Layer_1
 62
7
100
AcDbSpline
 70
8
 71
3
 72
8
 73
4
 74
0
 40
0
 40
0
 40
0
 40
0
 40
1
 40
1
 40
1
 40
1
 10
15.423842
 20
1.949582
 30
0.0
 10
15.774255
 20
2.019086
 30
0.0
 10
16.066416
 20
2.069840
 30
0.0
 10
16.073089
 20
2.062367
 30
0.0
  0
SPLINE
  5
13d
100
AcDbEntity
  8
Layer_1
 62
7
100
AcDbSpline
 70
8
 71
3
 72
8
 73
4
 74
0
 40
0
 40
0
 40
0
 40
0
 40
1
 40
1
 40
1
 40
1
 10
16.073089
 20
2.062367
 30
0.0
 10
16.079761
 20
2.054894
 30
0.0
 10
16.112258
 20
1.886935
 30
0.0
 10
16.145302
 20
1.689122
 30
0.0
  0
LWPOLYLINE
  5
13e
100
AcDbEntity
  8
Layer_1
 62
7
100
AcDbPolyline
 90
29
 70
0
 10
13.146132
 20
2.155415
 30
0.0
 10
13.146132
 20
2.734093
 30
0.0
 10
12.232383
 20
2.734093
 30
0.0
 10
11.318633
 20
2.734093
 30
0.0
 10
11.318633
 20
3.107900
 30
0.0
 10
11.318633
 20
3.481706
 30
0.0
 10
12.232383
 20
3.481706
 30
0.0
 10
13.146132
 20
3.481706
 30
0.0
 10
13.146132
 20
4.042416
 30
0.0
 10
13.146132
 20
4.603126
 30
0.0
 10
12.211616
 20
4.603126
 30
0.0
 10
11.277099
 20
4.603126
 30
0.0
 10
11.277099
 20
7.136705
 30
0.0
 10
11.277099
 20
9.670283
 30
0.0
 10
13.540706
 20
9.670283
 30
0.0
 10
15.804313
 20
9.670283
 30
0.0
 10
15.804313
 20
7.136705
 30
0.0
 10
15.804313
 20
4.603126
 30
0.0
 10
14.890563
 20
4.603126
 30
0.0
 10
13.976814
 20
4.603126
 30
0.0
 10
13.976814
 20
4.042416
 30
0.0
 10
13.976814
 20
3.481706
 30
0.0
 10
14.869796
 20
3.481706
 30
0.0
 10
15.762779
 20
3.481706
 30
0.0
 10
15.762779
 20
3.107900
 30
0.0
 10
15.762779
 20
2.734093
 30
0.0
 10
14.869796
 20
2.734093
 30
0.0
 10
13.976814
 20
2.734093
 30
0.0
 10
13.976814
 20
2.214917
 30
0.0
  0
SPLINE
  5
13f
100
AcDbEntity
  8
Layer_1
 62
7
100
AcDbSpline
 70
8
 71
3
 72
8
 73
4
 74
0
 40
0
 40
0
 40
0
 40
0
 40
1
 40
1
 40
1
 40
1
 10
16.098299
 20
1.306381
 30
0.0
 10
14.558887
 20
0.974562
 30
0.0
 10
13.432840
 20
0.767652
 30
0.0
 10
12.232383
 20
0.596023
 30
0.0
  0
SPLINE
  5
140
100
AcDbEntity
  8
Layer_1
 62
7
100
AcDbSpline
 70
8
 71
3
 72
8
 73
4
 74
0
 40
0
 40
0
 40
0
 40
0
 40
1
 40
1
 40
1
 40
1
 10
12.232383
 20
0.596023
 30
0.0
 10
11.832617
 20
0.538869
 30
0.0
 10
11.454863
 20
0.483182
 30
0.0
 10
11.392928
 20
0.472273
 30
0.0
  0
SPLINE
  5
141
100
AcDbEntity
  8
Layer_1
 62
7
100
AcDbSpline
 70
8
 71
3
 72
8
 73
4
 74
0
 40
0
 40
0
 40
0
 40
0
 40
1
 40
1
 40
1
 40
1
 10
11.392928
 20
0.472273
 30
0.0
 10
11.330994
 20
0.461365
 30
0.0
 10
11.272858
 20
0.465844
 30
0.0
 10
11.263738
 20
0.482229
 30
0.0
  0
LWPOLYLINE
  5
142
100
AcDbEntity
  8
Layer_1
 62
7
100
AcDbPolyline
 90
3
 70
0
 10
16.145302
 20
1.689122
 30
0.0
 10
16.205382
 20
1.329464
 30
0.0
 10
16.098299
 20
1.306381
 30
0.0
  0
LWPOLYLINE
  5
143
100
AcDbEntity
  8
Layer_1
 62
7
100
AcDbPolyline
 90
3
 70
0
 10
11.263738
 20
0.482229
 30
0.0
 10
11.263738
 20
0.482229
 30
0.0
 10
11.263738
 20
0.482230
 30
0.0
  0
LWPOLYLINE
  5
144
100
AcDbEntity
  8
Layer_1
 62
7
100
AcDbPolyline
 90
10
 70
0
 10
13.146132
 20
6.077586
 30
0.0
 10
13.146132
 20
6.804432
 30
0.0
 10
12.606189
 20
6.804432
 30
0.0
 10
12.066247
 20
6.804432
 30
0.0
 10
12.066247
 20
6.077586
 30
0.0
 10
12.066247
 20
5.350739
 30
0.0
 10
12.606189
 20
5.350739
 30
0.0
 10
13.146132
 20
5.350739
 30
0.0
 10
13.146132
 20
6.077586
 30
0.0
 10
13.146132
 20
6.077586
 30
0.0
  0
LWPOLYLINE
  5
145
100
AcDbEntity
  8
Layer_1
 62
7
100
AcDbPolyline
 90
10
 70
0
 10
15.015166
 20
6.077586
 30
0.0
 10
15.015166
 20
6.804432
 30
0.0
 10
14.495990
 20
6.804432
 30
0.0
 10
13.976814
 20
6.804432
 30
0.0
 10
13.976814
 20
6.077586
 30
0.0
 10
13.976814
 20
5.350739
 30
0.0
 10
14.495990
 20
5.350739
 30
0.0
 10
15.015166
 20
5.350739
 30
0.0
 10
15.015166
 20
6.077586
 30
0.0
 10
15.015166
 20
6.077586
 30
0.0
  0
LWPOLYLINE
  5
146
100
AcDbEntity
  8
Layer_1
 62
7
100
AcDbPolyline
 90
10
 70
0
 10
13.146132
 20
8.195823
 30
0.0
 10
13.146132
 20
8.922670
 30
0.0
 10
12.606189
 20
8.922670
 30
0.0
 10
12.066247
 20
8.922670
 30
0.0
 10
12.066247
 20
8.195823
 30
0.0
 10
12.066247
 20
7.468977
 30
0.0
 10
12.606189
 20
7.468977
 30
0.0
 10
13.146132
 20
7.468977
 30
0.0
 10
13.146132
 20
8.195823
 30
0.0
 10
13.146132
 20
8.195823
 30
0.0
  0
SPLINE
  5
147
100
AcDbEntity
  8
Layer_1
 62
7
100
AcDbSpline
 70
8
 71
3
 72
8
 73
4
 74
0
 40
0
 40
0
 40
0
 40
0
 40
1
 40
1
 40
1
 40
1
 10
28.234180
 20
0.108100
 30
0.0
 10
28.207451
 20
0.125103
 30
0.0
 10
28.139005
 20
0.322434
 30
0.0
 10
28.082080
 20
0.546614
 30
0.0
  0
SPLINE
  5
148
100
AcDbEntity
  8
Layer_1
 62
7
100
AcDbSpline
 70
8
 71
3
 72
8
 73
4
 74
0
 40
0
 40
0
 40
0
 40
0
 40
1
 40
1
 40
1
 40
1
 10
28.082080
 20
0.546614
 30
0.0
 10
27.990987
 20
0.905351
 30
0.0
 10
27.986855
 20
0.951022
 30
0.0
 10
28.047612
 20
0.927596
 30
0.0
  0
SPLINE
  5
149
100
AcDbEntity
  8
Layer_1
 62
7
100
AcDbSpline
 70
8
 71
3
 72
8
 73
4
 74
0
 40
0
 40
0
 40
0
 40
0
 40
1
 40
1
 40
1
 40
1
 10
28.047612
 20
0.927596
 30
0.0
 10
28.085580
 20
0.912958
 30
0.0
 10
28.307284
 20
0.890136
 30
0.0
 10
28.540287
 20
0.876880
 30
0.0
  0
SPLINE
  5
14a
100
AcDbEntity
  8
Layer_1
 62
7
100
AcDbSpline
 70
8
 71
3
 72
8
 73
4
 74
0
 40
0
 40
0
 40
0
 40
0
 40
1
 40
1
 40
1
 40
1
 10
28.540287
 20
0.876880
 30
0.0
 10
29.046562
 20
0.848079
 30
0.0
 10
29.129386
 20
0.884542
 30
0.0
 10
29.239901
 20
1.184888
 30
0.0
  0
SPLINE
  5
14b
100
AcDbEntity
  8
Layer_1
 62
7
100
AcDbSpline
 70
8
 71
3
 72
8
 73
4
 74
0
 40
0
 40
0
 40
0
 40
0
 40
1
 40
1
 40
1
 40
1
 10
29.239901
 20
1.184888
 30
0.0
 10
29.295361
 20
1.335613
 30
0.0
 10
29.317767
 20
1.553922
 30
0.0
 10
29.331765
 20
2.079931
 30
0.0
  0
SPLINE
  5
14c
100
AcDbEntity
  8
Layer_1
 62
7
100
AcDbSpline
 70
8
 71
3
 72
8
 73
4
 74
0
 40
0
 40
0
 40
0
 40
0
 40
1
 40
1
 40
1
 40
1
 10
29.331765
 20
2.079931
 30
0.0
 10
29.341953
 20
2.462564
 30
0.0
 10
29.336083
 20
2.775627
 30
0.0
 10
29.318698
 20
2.775627
 30
0.0
  0
SPLINE
  5
14d
100
AcDbEntity
  8
Layer_1
 62
7
100
AcDbSpline
 70
8
 71
3
 72
8
 73
4
 74
0
 40
0
 40
0
 40
0
 40
0
 40
1
 40
1
 40
1
 40
1
 10
29.318698
 20
2.775627
 30
0.0
 10
29.301341
 20
2.775627
 30
0.0
 10
29.098534
 20
2.592678
 30
0.0
 10
28.868020
 20
2.369073
 30
0.0
  0
SPLINE
  5
14e
100
AcDbEntity
  8
Layer_1
 62
7
100
AcDbSpline
 70
8
 71
3
 72
8
 73
4
 74
0
 40
0
 40
0
 40
0
 40
0
 40
1
 40
1
 40
1
 40
1
 10
28.868020
 20
2.369073
 30
0.0
 10
28.406062
 20
1.920961
 30
0.0
 10
27.932118
 20
1.546979
 30
0.0
 10
27.437104
 20
1.239961
 30
0.0
  0
SPLINE
  5
14f
100
AcDbEntity
  8
Layer_1
 62
7
100
AcDbSpline
 70
8
 71
3
 72
8
 73
4
 74
0
 40
0
 40
0
 40
0
 40
0
 40
1
 40
1
 40
1
 40
1
 10
27.437104
 20
1.239961
 30
0.0
 10
27.091578
 20
1.025659
 30
0.0
 10
26.297683
 20
0.615855
 30
0.0
 10
26.228050
 20
0.615855
 30
0.0
  0
SPLINE
  5
150
100
AcDbEntity
  8
Layer_1
 62
7
100
AcDbSpline
 70
8
 71
3
 72
8
 73
4
 74
0
 40
0
 40
0
 40
0
 40
0
 40
1
 40
1
 40
1
 40
1
 10
26.228050
 20
0.615855
 30
0.0
 10
26.188073
 20
0.615855
 30
0.0
 10
25.833831
 20
1.276431
 30
0.0
 10
25.860785
 20
1.300717
 30
0.0
  0
SPLINE
  5
151
100
AcDbEntity
  8
Layer_1
 62
7
100
AcDbSpline
 70
8
 71
3
 72
8
 73
4
 74
0
 40
0
 40
0
 40
0
 40
0
 40
1
 40
1
 40
1
 40
1
 10
25.860785
 20
1.300717
 30
0.0
 10
25.867939
 20
1.307162
 30
0.0
 10
26.087088
 20
1.419046
 30
0.0
 10
26.347782
 20
1.549346
 30
0.0
  0
SPLINE
  5
152
100
AcDbEntity
  8
Layer_1
 62
7
100
AcDbSpline
 70
8
 71
3
 72
8
 73
4
 74
0
 40
0
 40
0
 40
0
 40
0
 40
1
 40
1
 40
1
 40
1
 10
26.347782
 20
1.549346
 30
0.0
 10
27.396926
 20
2.073728
 30
0.0
 10
28.242793
 20
2.708622
 30
0.0
 10
28.927473
 20
3.485616
 30
0.0
  0
LWPOLYLINE
  5
153
100
AcDbEntity
  8
Layer_1
 62
7
100
AcDbPolyline
 90
10
 70
0
 10
15.015166
 20
8.195823
 30
0.0
 10
15.015166
 20
8.922670
 30
0.0
 10
14.495990
 20
8.922670
 30
0.0
 10
13.976814
 20
8.922670
 30
0.0
 10
13.976814
 20
8.195823
 30
0.0
 10
13.976814
 20
7.468977
 30
0.0
 10
14.495990
 20
7.468977
 30
0.0
 10
15.015166
 20
7.468977
 30
0.0
 10
15.015166
 20
8.195823
 30
0.0
 10
15.015166
 20
8.195823
 30
0.0
  0
SPLINE
  5
154
100
AcDbEntity
  8
Layer_1
 62
7
100
AcDbSpline
 70
8
 71
3
 72
8
 73
4
 74
0
 40
0
 40
0
 40
0
 40
0
 40
1
 40
1
 40
1
 40
1
 10
29.194701
 20
4.013959
 30
0.0
 10
29.155850
 20
4.295272
 30
0.0
 10
29.056604
 20
4.777658
 30
0.0
 10
29.032649
 20
4.801613
 30
0.0
  0
SPLINE
  5
155
100
AcDbEntity
  8
Layer_1
 62
7
100
AcDbSpline
 70
8
 71
3
 72
8
 73
4
 74
0
 40
0
 40
0
 40
0
 40
0
 40
1
 40
1
 40
1
 40
1
 10
29.032649
 20
4.801613
 30
0.0
 10
29.021360
 20
4.812891
 30
0.0
 10
28.808799
 20
4.619060
 30
0.0
 10
28.560265
 20
4.370877
 30
0.0
  0
LWPOLYLINE
  5
156
100
AcDbEntity
  8
Layer_1
 62
7
100
AcDbPolyline
 90
3
 70
0
 10
28.927473
 20
3.485616
 30
0.0
 10
29.221568
 20
3.819366
 30
0.0
 10
29.194701
 20
4.013959
 30
0.0
  0
SPLINE
  5
157
100
AcDbEntity
  8
Layer_1
 62
7
100
AcDbSpline
 70
8
 71
3
 72
8
 73
4
 74
0
 40
0
 40
0
 40
0
 40
0
 40
1
 40
1
 40
1
 40
1
 10
28.268264
 20
3.571934
 30
0.0
 10
28.356199
 20
3.380697
 30
0.0
 10
28.428143
 20
3.211120
 30
0.0
 10
28.428143
 20
3.195096
 30
0.0
  0
SPLINE
  5
158
100
AcDbEntity
  8
Layer_1
 62
7
100
AcDbSpline
 70
8
 71
3
 72
8
 73
4
 74
0
 40
0
 40
0
 40
0
 40
0
 40
1
 40
1
 40
1
 40
1
 10
28.428143
 20
3.195096
 30
0.0
 10
28.428143
 20
3.161904
 30
0.0
 10
27.806300
 20
2.800703
 30
0.0
 10
27.787936
 20
2.823229
 30
0.0
  0
SPLINE
  5
159
100
AcDbEntity
  8
Layer_1
 62
7
100
AcDbSpline
 70
8
 71
3
 72
8
 73
4
 74
0
 40
0
 40
0
 40
0
 40
0
 40
1
 40
1
 40
1
 40
1
 10
27.787936
 20
2.823229
 30
0.0
 10
27.781347
 20
2.831314
 30
0.0
 10
27.723495
 20
2.973433
 30
0.0
 10
27.659379
 20
3.139050
 30
0.0
  0
SPLINE
  5
15a
100
AcDbEntity
  8
Layer_1
 62
7
100
AcDbSpline
 70
8
 71
3
 72
8
 73
4
 74
0
 40
0
 40
0
 40
0
 40
0
 40
1
 40
1
 40
1
 40
1
 10
27.659379
 20
3.139050
 30
0.0
 10
27.595263
 20
3.304667
 30
0.0
 10
27.527110
 20
3.440172
 30
0.0
 10
27.507929
 20
3.440172
 30
0.0
  0
SPLINE
  5
15b
100
AcDbEntity
  8
Layer_1
 62
7
100
AcDbSpline
 70
8
 71
3
 72
8
 73
4
 74
0
 40
0
 40
0
 40
0
 40
0
 40
1
 40
1
 40
1
 40
1
 10
27.507929
 20
3.440172
 30
0.0
 10
27.488746
 20
3.440172
 30
0.0
 10
27.384230
 20
3.376864
 30
0.0
 10
27.275669
 20
3.299488
 30
0.0
  0
SPLINE
  5
15c
100
AcDbEntity
  8
Layer_1
 62
7
100
AcDbSpline
 70
8
 71
3
 72
8
 73
4
 74
0
 40
0
 40
0
 40
0
 40
0
 40
1
 40
1
 40
1
 40
1
 10
27.275669
 20
3.299488
 30
0.0
 10
27.064494
 20
3.148973
 30
0.0
 10
26.352885
 20
2.734093
 30
0.0
 10
26.305894
 20
2.734093
 30
0.0
  0
SPLINE
  5
15d
100
AcDbEntity
  8
Layer_1
 62
7
100
AcDbSpline
 70
8
 71
3
 72
8
 73
4
 74
0
 40
0
 40
0
 40
0
 40
0
 40
1
 40
1
 40
1
 40
1
 10
26.305894
 20
2.734093
 30
0.0
 10
26.273787
 20
2.734093
 30
0.0
 10
25.920983
 20
3.398154
 30
0.0
 10
25.942731
 20
3.417653
 30
0.0
  0
SPLINE
  5
15e
100
AcDbEntity
  8
Layer_1
 62
7
100
AcDbSpline
 70
8
 71
3
 72
8
 73
4
 74
0
 40
0
 40
0
 40
0
 40
0
 40
1
 40
1
 40
1
 40
1
 10
25.942731
 20
3.417653
 30
0.0
 10
25.950506
 20
3.424624
 30
0.0
 10
26.078354
 20
3.491103
 30
0.0
 10
26.226838
 20
3.565384
 30
0.0
  0
SPLINE
  5
15f
100
AcDbEntity
  8
Layer_1
 62
7
100
AcDbSpline
 70
8
 71
3
 72
8
 73
4
 74
0
 40
0
 40
0
 40
0
 40
0
 40
1
 40
1
 40
1
 40
1
 10
26.226838
 20
3.565384
 30
0.0
 10
26.502809
 20
3.703442
 30
0.0
 10
27.140587
 20
4.098136
 30
0.0
 10
27.140587
 20
4.130865
 30
0.0
  0
SPLINE
  5
160
100
AcDbEntity
  8
Layer_1
 62
7
100
AcDbSpline
 70
8
 71
3
 72
8
 73
4
 74
0
 40
0
 40
0
 40
0
 40
0
 40
1
 40
1
 40
1
 40
1
 10
27.140587
 20
4.130865
 30
0.0
 10
27.140587
 20
4.161042
 30
0.0
 10
26.937140
 20
4.534902
 30
0.0
 10
26.871780
 20
4.624833
 30
0.0
  0
SPLINE
  5
161
100
AcDbEntity
  8
Layer_1
 62
7
100
AcDbSpline
 70
8
 71
3
 72
8
 73
4
 74
0
 40
0
 40
0
 40
0
 40
0
 40
1
 40
1
 40
1
 40
1
 10
26.871780
 20
4.624833
 30
0.0
 10
26.813890
 20
4.704484
 30
0.0
 10
26.825975
 20
4.718016
 30
0.0
 10
27.104789
 20
4.885746
 30
0.0
  0
SPLINE
  5
162
100
AcDbEntity
  8
Layer_1
 62
7
100
AcDbSpline
 70
8
 71
3
 72
8
 73
4
 74
0
 40
0
 40
0
 40
0
 40
0
 40
1
 40
1
 40
1
 40
1
 10
27.104789
 20
4.885746
 30
0.0
 10
27.435938
 20
5.084961
 30
0.0
 10
27.444123
 20
5.083372
 30
0.0
 10
27.618333
 20
4.786106
 30
0.0
  0
SPLINE
  5
163
100
AcDbEntity
  8
Layer_1
 62
7
100
AcDbSpline
 70
8
 71
3
 72
8
 73
4
 74
0
 40
0
 40
0
 40
0
 40
0
 40
1
 40
1
 40
1
 40
1
 10
27.618333
 20
4.786106
 30
0.0
 10
27.711733
 20
4.626731
 30
0.0
 10
27.736788
 20
4.608083
 30
0.0
 10
27.807019
 20
4.645670
 30
0.0
  0
SPLINE
  5
164
100
AcDbEntity
  8
Layer_1
 62
7
100
AcDbSpline
 70
8
 71
3
 72
8
 73
4
 74
0
 40
0
 40
0
 40
0
 40
0
 40
1
 40
1
 40
1
 40
1
 10
27.807019
 20
4.645670
 30
0.0
 10
27.938521
 20
4.716047
 30
0.0
 10
28.671602
 20
5.433337
 30
0.0
 10
28.698436
 20
5.517885
 30
0.0
  0
SPLINE
  5
165
100
AcDbEntity
  8
Layer_1
 62
7
100
AcDbSpline
 70
8
 71
3
 72
8
 73
4
 74
0
 40
0
 40
0
 40
0
 40
0
 40
1
 40
1
 40
1
 40
1
 10
28.698436
 20
5.517885
 30
0.0
 10
28.725275
 20
5.602401
 30
0.0
 10
28.577055
 20
5.984939
 30
0.0
 10
28.489258
 20
6.057805
 30
0.0
  0
SPLINE
  5
166
100
AcDbEntity
  8
Layer_1
 62
7
100
AcDbSpline
 70
8
 71
3
 72
8
 73
4
 74
0
 40
0
 40
0
 40
0
 40
0
 40
1
 40
1
 40
1
 40
1
 10
28.489258
 20
6.057805
 30
0.0
 10
28.448068
 20
6.091988
 30
0.0
 10
28.365916
 20
6.053735
 30
0.0
 10
28.150687
 20
5.900159
 30
0.0
  0
SPLINE
  5
167
100
AcDbEntity
  8
Layer_1
 62
7
100
AcDbSpline
 70
8
 71
3
 72
8
 73
4
 74
0
 40
0
 40
0
 40
0
 40
0
 40
1
 40
1
 40
1
 40
1
 10
28.150687
 20
5.900159
 30
0.0
 10
27.713348
 20
5.588097
 30
0.0
 10
27.174862
 20
5.274971
 30
0.0
 10
26.732397
 20
5.075433
 30
0.0
  0
SPLINE
  5
168
100
AcDbEntity
  8
Layer_1
 62
7
100
AcDbSpline
 70
8
 71
3
 72
8
 73
4
 74
0
 40
0
 40
0
 40
0
 40
0
 40
1
 40
1
 40
1
 40
1
 10
26.732397
 20
5.075433
 30
0.0
 10
26.511449
 20
4.975791
 30
0.0
 10
26.311409
 20
4.894176
 30
0.0
 10
26.287863
 20
4.894066
 30
0.0
  0
SPLINE
  5
169
100
AcDbEntity
  8
Layer_1
 62
7
100
AcDbSpline
 70
8
 71
3
 72
8
 73
4
 74
0
 40
0
 40
0
 40
0
 40
0
 40
1
 40
1
 40
1
 40
1
 10
26.287863
 20
4.894066
 30
0.0
 10
26.247839
 20
4.893878
 30
0.0
 10
25.917288
 20
5.513412
 30
0.0
 10
25.944419
 20
5.537766
 30
0.0
  0
SPLINE
  5
16a
100
AcDbEntity
  8
Layer_1
 62
7
100
AcDbSpline
 70
8
 71
3
 72
8
 73
4
 74
0
 40
0
 40
0
 40
0
 40
0
 40
1
 40
1
 40
1
 40
1
 10
25.944419
 20
5.537766
 30
0.0
 10
25.951266
 20
5.543913
 30
0.0
 10
26.087699
 20
5.600462
 30
0.0
 10
26.247605
 20
5.663434
 30
0.0
  0
SPLINE
  5
16b
100
AcDbEntity
  8
Layer_1
 62
7
100
AcDbSpline
 70
8
 71
3
 72
8
 73
4
 74
0
 40
0
 40
0
 40
0
 40
0
 40
1
 40
1
 40
1
 40
1
 10
26.247605
 20
5.663434
 30
0.0
 10
26.663349
 20
5.827156
 30
0.0
 10
27.153354
 20
6.077767
 30
0.0
 10
27.491873
 20
6.299811
 30
0.0
  0
SPLINE
  5
16c
100
AcDbEntity
  8
Layer_1
 62
7
100
AcDbSpline
 70
8
 71
3
 72
8
 73
4
 74
0
 40
0
 40
0
 40
0
 40
0
 40
1
 40
1
 40
1
 40
1
 10
27.491873
 20
6.299811
 30
0.0
 10
27.775968
 20
6.486156
 30
0.0
 10
28.511212
 20
7.153991
 30
0.0
 10
28.511212
 20
7.225694
 30
0.0
  0
SPLINE
  5
16d
100
AcDbEntity
  8
Layer_1
 62
7
100
AcDbSpline
 70
8
 71
3
 72
8
 73
4
 74
0
 40
0
 40
0
 40
0
 40
0
 40
1
 40
1
 40
1
 40
1
 10
28.511212
 20
7.225694
 30
0.0
 10
28.511212
 20
7.245281
 30
0.0
 10
28.184131
 20
7.261307
 30
0.0
 10
27.784366
 20
7.261307
 30
0.0
  0
LWPOLYLINE
  5
16e
100
AcDbEntity
  8
Layer_1
 62
7
100
AcDbPolyline
 90
3
 70
0
 10
28.560265
 20
4.370877
 30
0.0
 10
28.108385
 20
3.919636
 30
0.0
 10
28.268264
 20
3.571934
 30
0.0
  0
SPLINE
  5
16f
100
AcDbEntity
  8
Layer_1
 62
7
100
AcDbSpline
 70
8
 71
3
 72
8
 73
4
 74
0
 40
0
 40
0
 40
0
 40
0
 40
1
 40
1
 40
1
 40
1
 10
30.297176
 20
7.261307
 30
0.0
 10
29.863147
 20
7.261307
 30
0.0
 10
29.508029
 20
7.246346
 30
0.0
 10
29.508029
 20
7.228064
 30
0.0
  0
SPLINE
  5
170
100
AcDbEntity
  8
Layer_1
 62
7
100
AcDbSpline
 70
8
 71
3
 72
8
 73
4
 74
0
 40
0
 40
0
 40
0
 40
0
 40
1
 40
1
 40
1
 40
1
 10
29.508029
 20
7.228064
 30
0.0
 10
29.508029
 20
7.209778
 30
0.0
 10
29.412915
 20
7.088105
 30
0.0
 10
29.296665
 20
6.957674
 30
0.0
  0
LWPOLYLINE
  5
171
100
AcDbEntity
  8
Layer_1
 62
7
100
AcDbPolyline
 90
9
 70
0
 10
27.784366
 20
7.261307
 30
0.0
 10
27.057519
 20
7.261307
 30
0.0
 10
27.057519
 20
7.635114
 30
0.0
 10
27.057519
 20
8.008920
 30
0.0
 10
29.071923
 20
8.008920
 30
0.0
 10
31.086323
 20
8.008920
 30
0.0
 10
31.086323
 20
7.635114
 30
0.0
 10
31.086323
 20
7.261307
 30
0.0
 10
30.297176
 20
7.261307
 30
0.0
  0
SPLINE
  5
172
100
AcDbEntity
  8
Layer_1
 62
7
100
AcDbSpline
 70
8
 71
3
 72
8
 73
4
 74
0
 40
0
 40
0
 40
0
 40
0
 40
1
 40
1
 40
1
 40
1
 10
29.370192
 20
6.149852
 30
0.0
 10
29.526882
 20
5.835981
 30
0.0
 10
29.676860
 20
5.517329
 30
0.0
 10
29.703477
 20
5.441738
 30
0.0
  0
SPLINE
  5
173
100
AcDbEntity
  8
Layer_1
 62
7
100
AcDbSpline
 70
8
 71
3
 72
8
 73
4
 74
0
 40
0
 40
0
 40
0
 40
0
 40
1
 40
1
 40
1
 40
1
 10
29.703477
 20
5.441738
 30
0.0
 10
29.751153
 20
5.306337
 30
0.0
 10
29.753636
 20
5.305212
 30
0.0
 10
29.870998
 20
5.365902
 30
0.0
  0
SPLINE
  5
174
100
AcDbEntity
  8
Layer_1
 62
7
100
AcDbSpline
 70
8
 71
3
 72
8
 73
4
 74
0
 40
0
 40
0
 40
0
 40
0
 40
1
 40
1
 40
1
 40
1
 10
29.870998
 20
5.365902
 30
0.0
 10
30.103981
 20
5.486383
 30
0.0
 10
30.738335
 20
6.010311
 30
0.0
 10
31.065913
 20
6.352814
 30
0.0
  0
LWPOLYLINE
  5
175
100
AcDbEntity
  8
Layer_1
 62
7
100
AcDbPolyline
 90
3
 70
0
 10
29.296665
 20
6.957674
 30
0.0
 10
29.085300
 20
6.720528
 30
0.0
 10
29.370192
 20
6.149852
 30
0.0
  0
SPLINE
  5
176
100
AcDbEntity
  8
Layer_1
 62
7
100
AcDbSpline
 70
8
 71
3
 72
8
 73
4
 74
0
 40
0
 40
0
 40
0
 40
0
 40
1
 40
1
 40
1
 40
1
 10
31.637007
 20
6.448143
 30
0.0
 10
31.768164
 20
6.309293
 30
0.0
 10
31.875470
 20
6.174225
 30
0.0
 10
31.875470
 20
6.147991
 30
0.0
  0
SPLINE
  5
177
100
AcDbEntity
  8
Layer_1
 62
7
100
AcDbSpline
 70
8
 71
3
 72
8
 73
4
 74
0
 40
0
 40
0
 40
0
 40
0
 40
1
 40
1
 40
1
 40
1
 10
31.875470
 20
6.147991
 30
0.0
 10
31.875470
 20
6.121759
 30
0.0
 10
31.652433
 20
5.872553
 30
0.0
 10
31.379829
 20
5.594202
 30
0.0
  0
LWPOLYLINE
  5
178
100
AcDbEntity
  8
Layer_1
 62
7
100
AcDbPolyline
 90
3
 70
0
 10
31.065913
 20
6.352814
 30
0.0
 10
31.398543
 20
6.700597
 30
0.0
 10
31.637007
 20
6.448143
 30
0.0
  0
SPLINE
  5
179
100
AcDbEntity
  8
Layer_1
 62
7
100
AcDbSpline
 70
8
 71
3
 72
8
 73
4
 74
0
 40
0
 40
0
 40
0
 40
0
 40
1
 40
1
 40
1
 40
1
 10
31.026583
 20
4.618326
 30
0.0
 10
31.336384
 20
3.596271
 30
0.0
 10
31.775857
 20
2.782437
 30
0.0
 10
32.394500
 20
2.085174
 30
0.0
  0
LWPOLYLINE
  5
17a
100
AcDbEntity
  8
Layer_1
 62
7
100
AcDbPolyline
 90
3
 70
0
 10
31.379829
 20
5.594202
 30
0.0
 10
30.884185
 20
5.088111
 30
0.0
 10
31.026583
 20
4.618326
 30
0.0
  0
SPLINE
  5
17b
100
AcDbEntity
  8
Layer_1
 62
7
100
AcDbSpline
 70
8
 71
3
 72
8
 73
4
 74
0
 40
0
 40
0
 40
0
 40
0
 40
1
 40
1
 40
1
 40
1
 10
32.285943
 20
1.493314
 30
0.0
 10
32.122387
 20
1.284837
 30
0.0
 10
31.977141
 20
1.114880
 30
0.0
 10
31.963171
 20
1.115633
 30
0.0
  0
SPLINE
  5
17c
100
AcDbEntity
  8
Layer_1
 62
7
100
AcDbSpline
 70
8
 71
3
 72
8
 73
4
 74
0
 40
0
 40
0
 40
0
 40
0
 40
1
 40
1
 40
1
 40
1
 10
31.963171
 20
1.115633
 30
0.0
 10
31.926318
 20
1.117609
 30
0.0
 10
31.499598
 20
1.714482
 30
0.0
 10
31.319493
 20
2.015955
 30
0.0
  0
SPLINE
  5
17d
100
AcDbEntity
  8
Layer_1
 62
7
100
AcDbSpline
 70
8
 71
3
 72
8
 73
4
 74
0
 40
0
 40
0
 40
0
 40
0
 40
1
 40
1
 40
1
 40
1
 10
31.319493
 20
2.015955
 30
0.0
 10
30.938823
 20
2.653154
 30
0.0
 10
30.583497
 20
3.496073
 30
0.0
 10
30.232652
 20
4.594195
 30
0.0
  0
SPLINE
  5
17e
100
AcDbEntity
  8
Layer_1
 62
7
100
AcDbSpline
 70
8
 71
3
 72
8
 73
4
 74
0
 40
0
 40
0
 40
0
 40
0
 40
1
 40
1
 40
1
 40
1
 10
30.232652
 20
4.594195
 30
0.0
 10
30.219303
 20
4.635974
 30
0.0
 10
30.187502
 20
4.633035
 30
0.0
 10
30.086221
 20
4.580660
 30
0.0
  0
SPLINE
  5
17f
100
AcDbEntity
  8
Layer_1
 62
7
100
AcDbSpline
 70
8
 71
3
 72
8
 73
4
 74
0
 40
0
 40
0
 40
0
 40
0
 40
1
 40
1
 40
1
 40
1
 10
30.086221
 20
4.580660
 30
0.0
 10
29.968306
 20
4.519682
 30
0.0
 10
29.959258
 20
4.500876
 30
0.0
 10
29.984110
 20
4.368398
 30
0.0
  0
SPLINE
  5
180
100
AcDbEntity
  8
Layer_1
 62
7
100
AcDbSpline
 70
8
 71
3
 72
8
 73
4
 74
0
 40
0
 40
0
 40
0
 40
0
 40
1
 40
1
 40
1
 40
1
 10
29.984110
 20
4.368398
 30
0.0
 10
30.081169
 20
3.851038
 30
0.0
 10
30.138187
 20
3.217927
 30
0.0
 10
30.159616
 20
2.419643
 30
0.0
  0
SPLINE
  5
181
100
AcDbEntity
  8
Layer_1
 62
7
100
AcDbSpline
 70
8
 71
3
 72
8
 73
4
 74
0
 40
0
 40
0
 40
0
 40
0
 40
1
 40
1
 40
1
 40
1
 10
30.159616
 20
2.419643
 30
0.0
 10
30.187838
 20
1.368378
 30
0.0
 10
30.140820
 20
1.029330
 30
0.0
 10
29.917469
 20
0.673417
 30
0.0
  0
SPLINE
  5
182
100
AcDbEntity
  8
Layer_1
 62
7
100
AcDbSpline
 70
8
 71
3
 72
8
 73
4
 74
0
 40
0
 40
0
 40
0
 40
0
 40
1
 40
1
 40
1
 40
1
 10
29.917469
 20
0.673417
 30
0.0
 10
29.731157
 20
0.376525
 30
0.0
 10
29.635823
 20
0.283886
 30
0.0
 10
29.404194
 20
0.174655
 30
0.0
  0
SPLINE
  5
183
100
AcDbEntity
  8
Layer_1
 62
7
100
AcDbSpline
 70
8
 71
3
 72
8
 73
4
 74
0
 40
0
 40
0
 40
0
 40
0
 40
1
 40
1
 40
1
 40
1
 10
29.404194
 20
0.174655
 30
0.0
 10
29.225158
 20
0.090226
 30
0.0
 10
29.133529
 20
0.076755
 30
0.0
 10
28.739648
 20
0.076953
 30
0.0
  0
SPLINE
  5
184
100
AcDbEntity
  8
Layer_1
 62
7
100
AcDbSpline
 70
8
 71
3
 72
8
 73
4
 74
0
 40
0
 40
0
 40
0
 40
0
 40
1
 40
1
 40
1
 40
1
 10
28.739648
 20
0.076953
 30
0.0
 10
28.488369
 20
0.077078
 30
0.0
 10
28.260904
 20
0.091095
 30
0.0
 10
28.234174
 20
0.108099
 30
0.0
  0
LWPOLYLINE
  5
185
100
AcDbEntity
  8
Layer_1
 62
7
100
AcDbPolyline
 90
3
 70
0
 10
32.394500
 20
2.085174
 30
0.0
 10
32.583315
 20
1.872364
 30
0.0
 10
32.285943
 20
1.493314
 30
0.0
  0
LWPOLYLINE
  5
186
100
AcDbEntity
  8
Layer_1
 62
7
100
AcDbPolyline
 90
3
 70
0
 10
28.234174
 20
0.108099
 30
0.0
 10
28.234174
 20
0.108099
 30
0.0
 10
28.234180
 20
0.108100
 30
0.0
  0
SPLINE
  5
187
100
AcDbEntity
  8
Layer_1
 62
7
100
AcDbSpline
 70
8
 71
3
 72
8
 73
4
 74
0
 40
0
 40
0
 40
0
 40
0
 40
1
 40
1
 40
1
 40
1
 10
22.468015
 20
2.152590
 30
0.0
 10
22.426103
 20
2.381013
 30
0.0
 10
22.399612
 20
2.573367
 30
0.0
 10
22.409144
 20
2.580044
 30
0.0
  0
SPLINE
  5
188
100
AcDbEntity
  8
Layer_1
 62
7
100
AcDbSpline
 70
8
 71
3
 72
8
 73
4
 74
0
 40
0
 40
0
 40
0
 40
0
 40
1
 40
1
 40
1
 40
1
 10
22.409144
 20
2.580044
 30
0.0
 10
22.418678
 20
2.586721
 30
0.0
 10
22.631919
 20
2.653787
 30
0.0
 10
22.883016
 20
2.729081
 30
0.0
  0
SPLINE
  5
189
100
AcDbEntity
  8
Layer_1
 62
7
100
AcDbSpline
 70
8
 71
3
 72
8
 73
4
 74
0
 40
0
 40
0
 40
0
 40
0
 40
1
 40
1
 40
1
 40
1
 10
22.883016
 20
2.729081
 30
0.0
 10
23.134113
 20
2.804374
 30
0.0
 10
23.400450
 20
2.891421
 30
0.0
 10
23.474876
 20
2.922518
 30
0.0
  0
LWPOLYLINE
  5
18a
100
AcDbEntity
  8
Layer_1
 62
7
100
AcDbPolyline
 90
18
 70
0
 10
25.853037
 20
8.673465
 30
0.0
 10
25.853037
 20
9.753351
 30
0.0
 10
29.071928
 20
9.753351
 30
0.0
 10
32.290817
 20
9.753351
 30
0.0
 10
32.290817
 20
8.714999
 30
0.0
 10
32.290817
 20
7.676648
 30
0.0
 10
31.896245
 20
7.676648
 30
0.0
 10
31.501670
 20
7.676648
 30
0.0
 10
31.501670
 20
8.341193
 30
0.0
 10
31.501670
 20
9.005738
 30
0.0
 10
29.071928
 20
9.005738
 30
0.0
 10
26.642184
 20
9.005738
 30
0.0
 10
26.642184
 20
8.299659
 30
0.0
 10
26.642184
 20
7.593579
 30
0.0
 10
26.247611
 20
7.593579
 30
0.0
 10
25.853037
 20
7.593579
 30
0.0
 10
25.853037
 20
8.673465
 30
0.0
 10
25.853037
 20
8.673465
 30
0.0
  0
SPLINE
  5
18b
100
AcDbEntity
  8
Layer_1
 62
7
100
AcDbSpline
 70
8
 71
3
 72
8
 73
4
 74
0
 40
0
 40
0
 40
0
 40
0
 40
1
 40
1
 40
1
 40
1
 10
24.492796
 20
3.256031
 30
0.0
 10
24.544194
 20
3.272049
 30
0.0
 10
24.770889
 20
3.366761
 30
0.0
 10
24.996561
 20
3.466500
 30
0.0
  0
SPLINE
  5
18c
100
AcDbEntity
  8
Layer_1
 62
7
100
AcDbSpline
 70
8
 71
3
 72
8
 73
4
 74
0
 40
0
 40
0
 40
0
 40
0
 40
1
 40
1
 40
1
 40
1
 10
24.996561
 20
3.466500
 30
0.0
 10
25.222233
 20
3.566238
 30
0.0
 10
25.412121
 20
3.647843
 30
0.0
 10
25.418532
 20
3.647843
 30
0.0
  0
SPLINE
  5
18d
100
AcDbEntity
  8
Layer_1
 62
7
100
AcDbSpline
 70
8
 71
3
 72
8
 73
4
 74
0
 40
0
 40
0
 40
0
 40
0
 40
1
 40
1
 40
1
 40
1
 10
25.418532
 20
3.647843
 30
0.0
 10
25.424944
 20
3.647843
 30
0.0
 10
25.451958
 20
3.512338
 30
0.0
 10
25.478563
 20
3.346721
 30
0.0
  0
SPLINE
  5
18e
100
AcDbEntity
  8
Layer_1
 62
7
100
AcDbSpline
 70
8
 71
3
 72
8
 73
4
 74
0
 40
0
 40
0
 40
0
 40
0
 40
1
 40
1
 40
1
 40
1
 10
25.478563
 20
3.346721
 30
0.0
 10
25.505168
 20
3.181104
 30
0.0
 10
25.535246
 20
3.015744
 30
0.0
 10
25.545403
 20
2.979256
 30
0.0
  0
SPLINE
  5
18f
100
AcDbEntity
  8
Layer_1
 62
7
100
AcDbSpline
 70
8
 71
3
 72
8
 73
4
 74
0
 40
0
 40
0
 40
0
 40
0
 40
1
 40
1
 40
1
 40
1
 10
25.545403
 20
2.979256
 30
0.0
 10
25.565678
 20
2.906419
 30
0.0
 10
25.098405
 20
2.672108
 30
0.0
 10
24.253975
 20
2.331677
 30
0.0
  0
SPLINE
  5
190
100
AcDbEntity
  8
Layer_1
 62
7
100
AcDbSpline
 70
8
 71
3
 72
8
 73
4
 74
0
 40
0
 40
0
 40
0
 40
0
 40
1
 40
1
 40
1
 40
1
 10
24.253975
 20
2.331677
 30
0.0
 10
23.891489
 20
2.185541
 30
0.0
 10
22.611414
 20
1.737275
 30
0.0
 10
22.556593
 20
1.737275
 30
0.0
  0
SPLINE
  5
191
100
AcDbEntity
  8
Layer_1
 62
7
100
AcDbSpline
 70
8
 71
3
 72
8
 73
4
 74
0
 40
0
 40
0
 40
0
 40
0
 40
1
 40
1
 40
1
 40
1
 10
22.556593
 20
1.737275
 30
0.0
 10
22.549786
 20
1.737275
 30
0.0
 10
22.509926
 20
1.924167
 30
0.0
 10
22.468015
 20
2.152590
 30
0.0
  0
LWPOLYLINE
  5
192
100
AcDbEntity
  8
Layer_1
 62
7
100
AcDbPolyline
 90
25
 70
0
 10
23.474876
 20
2.922518
 30
0.0
 10
23.610197
 20
2.979059
 30
0.0
 10
23.610197
 20
4.870978
 30
0.0
 10
23.610197
 20
6.762898
 30
0.0
 10
23.070254
 20
6.762898
 30
0.0
 10
22.530311
 20
6.762898
 30
0.0
 10
22.530311
 20
7.157472
 30
0.0
 10
22.530311
 20
7.552045
 30
0.0
 10
23.070254
 20
7.552045
 30
0.0
 10
23.610197
 20
7.552045
 30
0.0
 10
23.610197
 20
8.777300
 30
0.0
 10
23.610197
 20
10.002556
 30
0.0
 10
24.004771
 20
10.002556
 30
0.0
 10
24.399344
 20
10.002556
 30
0.0
 10
24.399344
 20
8.777300
 30
0.0
 10
24.399344
 20
7.552045
 30
0.0
 10
25.001588
 20
7.552045
 30
0.0
 10
25.603832
 20
7.552045
 30
0.0
 10
25.603832
 20
7.157472
 30
0.0
 10
25.603832
 20
6.762898
 30
0.0
 10
25.001588
 20
6.762898
 30
0.0
 10
24.399344
 20
6.762898
 30
0.0
 10
24.399344
 20
4.994901
 30
0.0
 10
24.399344
 20
3.226904
 30
0.0
 10
24.492796
 20
3.256031
 30
0.0
  0
SPLINE
  5
193
100
AcDbEntity
  8
Layer_1
 62
7
100
AcDbSpline
 70
8
 71
3
 72
8
 73
4
 74
0
 40
0
 40
0
 40
0
 40
0
 40
1
 40
1
 40
1
 40
1
 10
45.612809
 20
2.370670
 30
0.0
 10
45.390136
 20
2.513443
 30
0.0
 10
45.207942
 20
2.641471
 30
0.0
 10
45.207933
 20
2.655176
 30
0.0
  0
SPLINE
  5
194
100
AcDbEntity
  8
Layer_1
 62
7
100
AcDbSpline
 70
8
 71
3
 72
8
 73
4
 74
0
 40
0
 40
0
 40
0
 40
0
 40
1
 40
1
 40
1
 40
1
 10
45.207933
 20
2.655176
 30
0.0
 10
45.207922
 20
2.668880
 30
0.0
 10
45.303660
 20
2.855784
 30
0.0
 10
45.420686
 20
3.070517
 30
0.0
  0
SPLINE
  5
195
100
AcDbEntity
  8
Layer_1
 62
7
100
AcDbSpline
 70
8
 71
3
 72
8
 73
4
 74
0
 40
0
 40
0
 40
0
 40
0
 40
1
 40
1
 40
1
 40
1
 10
45.420686
 20
3.070517
 30
0.0
 10
46.061695
 20
4.246730
 30
0.0
 10
46.660779
 20
5.788003
 30
0.0
 10
47.079487
 20
7.338149
 30
0.0
  0
SPLINE
  5
196
100
AcDbEntity
  8
Layer_1
 62
7
100
AcDbSpline
 70
8
 71
3
 72
8
 73
4
 74
0
 40
0
 40
0
 40
0
 40
0
 40
1
 40
1
 40
1
 40
1
 10
47.079487
 20
7.338149
 30
0.0
 10
47.168627
 20
7.668161
 30
0.0
 10
47.249865
 20
7.946476
 30
0.0
 10
47.260013
 20
7.956627
 30
0.0
  0
SPLINE
  5
197
100
AcDbEntity
  8
Layer_1
 62
7
100
AcDbSpline
 70
8
 71
3
 72
8
 73
4
 74
0
 40
0
 40
0
 40
0
 40
0
 40
1
 40
1
 40
1
 40
1
 10
47.260013
 20
7.956627
 30
0.0
 10
47.275197
 20
7.971799
 30
0.0
 10
47.983256
 20
7.731058
 30
0.0
 10
48.023825
 20
7.696934
 30
0.0
  0
SPLINE
  5
198
100
AcDbEntity
  8
Layer_1
 62
7
100
AcDbSpline
 70
8
 71
3
 72
8
 73
4
 74
0
 40
0
 40
0
 40
0
 40
0
 40
1
 40
1
 40
1
 40
1
 10
48.023825
 20
7.696934
 30
0.0
 10
48.030627
 20
7.691216
 30
0.0
 10
47.987348
 20
7.492736
 30
0.0
 10
47.927658
 20
7.255868
 30
0.0
  0
SPLINE
  5
199
100
AcDbEntity
  8
Layer_1
 62
7
100
AcDbSpline
 70
8
 71
3
 72
8
 73
4
 74
0
 40
0
 40
0
 40
0
 40
0
 40
1
 40
1
 40
1
 40
1
 10
47.927658
 20
7.255868
 30
0.0
 10
47.643802
 20
6.129464
 30
0.0
 10
47.211954
 20
4.790331
 30
0.0
 10
46.817706
 20
3.813979
 30
0.0
  0
SPLINE
  5
19a
100
AcDbEntity
  8
Layer_1
 62
7
100
AcDbSpline
 70
8
 71
3
 72
8
 73
4
 74
0
 40
0
 40
0
 40
0
 40
0
 40
1
 40
1
 40
1
 40
1
 10
46.817706
 20
3.813979
 30
0.0
 10
46.618576
 20
3.320837
 30
0.0
 10
46.059784
 20
2.111082
 30
0.0
 10
46.031127
 20
2.111082
 30
0.0
  0
SPLINE
  5
19b
100
AcDbEntity
  8
Layer_1
 62
7
100
AcDbSpline
 70
8
 71
3
 72
8
 73
4
 74
0
 40
0
 40
0
 40
0
 40
0
 40
1
 40
1
 40
1
 40
1
 10
46.031127
 20
2.111082
 30
0.0
 10
46.023733
 20
2.111082
 30
0.0
 10
45.835480
 20
2.227897
 30
0.0
 10
45.612809
 20
2.370670
 30
0.0
  0
LWPOLYLINE
  5
19c
100
AcDbEntity
  8
Layer_1
 62
7
100
AcDbPolyline
 90
2
 70
0
 10
22.468015
 20
2.152590
 30
0.0
 10
22.468015
 20
2.152590
 30
0.0
  0
SPLINE
  5
19d
100
AcDbEntity
  8
Layer_1
 62
7
100
AcDbSpline
 70
8
 71
3
 72
8
 73
4
 74
0
 40
0
 40
0
 40
0
 40
0
 40
1
 40
1
 40
1
 40
1
 10
48.572174
 20
0.098230
 30
0.0
 10
48.537910
 20
0.105207
 30
0.0
 10
48.337033
 20
0.133777
 30
0.0
 10
48.125781
 20
0.161722
 30
0.0
  0
SPLINE
  5
19e
100
AcDbEntity
  8
Layer_1
 62
7
100
AcDbSpline
 70
8
 71
3
 72
8
 73
4
 74
0
 40
0
 40
0
 40
0
 40
0
 40
1
 40
1
 40
1
 40
1
 10
48.125781
 20
0.161722
 30
0.0
 10
47.914532
 20
0.189668
 30
0.0
 10
47.725719
 20
0.233191
 30
0.0
 10
47.706198
 20
0.258441
 30
0.0
  0
SPLINE
  5
19f
100
AcDbEntity
  8
Layer_1
 62
7
100
AcDbSpline
 70
8
 71
3
 72
8
 73
4
 74
0
 40
0
 40
0
 40
0
 40
0
 40
1
 40
1
 40
1
 40
1
 10
47.706198
 20
0.258441
 30
0.0
 10
47.669058
 20
0.306480
 30
0.0
 10
47.518148
 20
1.031040
 30
0.0
 10
47.541284
 20
1.050236
 30
0.0
  0
SPLINE
  5
1a0
100
AcDbEntity
  8
Layer_1
 62
7
100
AcDbSpline
 70
8
 71
3
 72
8
 73
4
 74
0
 40
0
 40
0
 40
0
 40
0
 40
1
 40
1
 40
1
 40
1
 10
47.541284
 20
1.050236
 30
0.0
 10
47.548594
 20
1.056310
 30
0.0
 10
47.750837
 20
1.026338
 30
0.0
 10
47.990698
 20
0.983634
 30
0.0
  0
SPLINE
  5
1a1
100
AcDbEntity
  8
Layer_1
 62
7
100
AcDbSpline
 70
8
 71
3
 72
8
 73
4
 74
0
 40
0
 40
0
 40
0
 40
0
 40
1
 40
1
 40
1
 40
1
 10
47.990698
 20
0.983634
 30
0.0
 10
48.230556
 20
0.940931
 30
0.0
 10
48.697814
 20
0.894340
 30
0.0
 10
49.029050
 20
0.880100
 30
0.0
  0
SPLINE
  5
1a2
100
AcDbEntity
  8
Layer_1
 62
7
100
AcDbSpline
 70
8
 71
3
 72
8
 73
4
 74
0
 40
0
 40
0
 40
0
 40
0
 40
1
 40
1
 40
1
 40
1
 10
49.029050
 20
0.880100
 30
0.0
 10
49.616002
 20
0.854864
 30
0.0
 10
49.633401
 20
0.856565
 30
0.0
 10
49.714362
 20
0.947053
 30
0.0
  0
SPLINE
  5
1a3
100
AcDbEntity
  8
Layer_1
 62
7
100
AcDbSpline
 70
8
 71
3
 72
8
 73
4
 74
0
 40
0
 40
0
 40
0
 40
0
 40
1
 40
1
 40
1
 40
1
 10
49.714362
 20
0.947053
 30
0.0
 10
49.796217
 20
1.038543
 30
0.0
 10
49.797592
 20
1.106551
 30
0.0
 10
49.808528
 20
5.604295
 30
0.0
  0
LWPOLYLINE
  5
1a4
100
AcDbEntity
  8
Layer_1
 62
7
100
AcDbPolyline
 90
2
 70
0
 10
45.612809
 20
2.370670
 30
0.0
 10
45.612809
 20
2.370670
 30
0.0
  0
SPLINE
  5
1a5
100
AcDbEntity
  8
Layer_1
 62
7
100
AcDbSpline
 70
8
 71
3
 72
8
 73
4
 74
0
 40
0
 40
0
 40
0
 40
0
 40
1
 40
1
 40
1
 40
1
 10
50.648873
 20
5.539687
 30
0.0
 10
50.648873
 20
2.330521
 30
0.0
 10
50.634875
 20
0.845353
 30
0.0
 10
50.603195
 20
0.697693
 30
0.0
  0
SPLINE
  5
1a6
100
AcDbEntity
  8
Layer_1
 62
7
100
AcDbSpline
 70
8
 71
3
 72
8
 73
4
 74
0
 40
0
 40
0
 40
0
 40
0
 40
1
 40
1
 40
1
 40
1
 10
50.603195
 20
0.697693
 30
0.0
 10
50.575424
 20
0.568279
 30
0.0
 10
50.508716
 20
0.429124
 30
0.0
 10
50.433148
 20
0.343057
 30
0.0
  0
SPLINE
  5
1a7
100
AcDbEntity
  8
Layer_1
 62
7
100
AcDbSpline
 70
8
 71
3
 72
8
 73
4
 74
0
 40
0
 40
0
 40
0
 40
0
 40
1
 40
1
 40
1
 40
1
 10
50.433148
 20
0.343057
 30
0.0
 10
50.244288
 20
0.127957
 30
0.0
 10
50.007433
 20
0.074979
 30
0.0
 10
49.260325
 20
0.080731
 30
0.0
  0
SPLINE
  5
1a8
100
AcDbEntity
  8
Layer_1
 62
7
100
AcDbSpline
 70
8
 71
3
 72
8
 73
4
 74
0
 40
0
 40
0
 40
0
 40
0
 40
1
 40
1
 40
1
 40
1
 10
49.260325
 20
0.080731
 30
0.0
 10
48.916105
 20
0.083383
 30
0.0
 10
48.606433
 20
0.091255
 30
0.0
 10
48.572169
 20
0.098231
 30
0.0
  0
LWPOLYLINE
  5
1a9
100
AcDbEntity
  8
Layer_1
 62
7
100
AcDbPolyline
 90
5
 70
0
 10
49.808528
 20
5.604295
 30
0.0
 10
49.819619
 20
10.168692
 30
0.0
 10
50.234246
 20
10.168692
 30
0.0
 10
50.648873
 20
10.168692
 30
0.0
 10
50.648873
 20
5.539687
 30
0.0
  0
LWPOLYLINE
  5
1aa
100
AcDbEntity
  8
Layer_1
 62
7
100
AcDbPolyline
 90
2
 70
0
 10
48.572169
 20
0.098231
 30
0.0
 10
48.572174
 20
0.098230
 30
0.0
  0
SPLINE
  5
1ab
100
AcDbEntity
  8
Layer_1
 62
7
100
AcDbSpline
 70
8
 71
3
 72
8
 73
4
 74
0
 40
0
 40
0
 40
0
 40
0
 40
1
 40
1
 40
1
 40
1
 10
62.257711
 20
0.449719
 30
0.0
 10
62.153741
 20
0.956944
 30
0.0
 10
62.151912
 20
0.946557
 30
0.0
 10
62.337298
 20
0.901656
 30
0.0
  0
SPLINE
  5
1ac
100
AcDbEntity
  8
Layer_1
 62
7
100
AcDbSpline
 70
8
 71
3
 72
8
 73
4
 74
0
 40
0
 40
0
 40
0
 40
0
 40
1
 40
1
 40
1
 40
1
 10
62.337298
 20
0.901656
 30
0.0
 10
62.422964
 20
0.880907
 30
0.0
 10
62.722526
 20
0.851976
 30
0.0
 10
63.002993
 20
0.837363
 30
0.0
  0
SPLINE
  5
1ad
100
AcDbEntity
  8
Layer_1
 62
7
100
AcDbSpline
 70
8
 71
3
 72
8
 73
4
 74
0
 40
0
 40
0
 40
0
 40
0
 40
1
 40
1
 40
1
 40
1
 10
63.002993
 20
0.837363
 30
0.0
 10
63.473228
 20
0.812860
 30
0.0
 10
63.517594
 20
0.816950
 30
0.0
 10
63.572765
 20
0.889844
 30
0.0
  0
SPLINE
  5
1ae
100
AcDbEntity
  8
Layer_1
 62
7
100
AcDbSpline
 70
8
 71
3
 72
8
 73
4
 74
0
 40
0
 40
0
 40
0
 40
0
 40
1
 40
1
 40
1
 40
1
 10
63.572765
 20
0.889844
 30
0.0
 10
63.623853
 20
0.957340
 30
0.0
 10
63.632791
 20
1.544094
 30
0.0
 10
63.633917
 20
4.904248
 30
0.0
  0
LWPOLYLINE
  5
1af
100
AcDbEntity
  8
Layer_1
 62
7
100
AcDbPolyline
 90
3
 70
0
 10
62.494634
 20
0.071423
 30
0.0
 10
62.330079
 20
0.096679
 30
0.0
 10
62.257711
 20
0.449719
 30
0.0
  0
SPLINE
  5
1b0
100
AcDbEntity
  8
Layer_1
 62
7
100
AcDbSpline
 70
8
 71
3
 72
8
 73
4
 74
0
 40
0
 40
0
 40
0
 40
0
 40
1
 40
1
 40
1
 40
1
 10
64.498516
 20
4.758879
 30
0.0
 10
64.486861
 20
0.709581
 30
0.0
 10
64.486099
 20
0.676717
 30
0.0
 10
64.399355
 20
0.491253
 30
0.0
  0
SPLINE
  5
1b1
100
AcDbEntity
  8
Layer_1
 62
7
100
AcDbSpline
 70
8
 71
3
 72
8
 73
4
 74
0
 40
0
 40
0
 40
0
 40
0
 40
1
 40
1
 40
1
 40
1
 10
64.399355
 20
0.491253
 30
0.0
 10
64.219647
 20
0.107047
 30
0.0
 10
64.037715
 20
0.036515
 30
0.0
 10
63.240756
 20
0.042095
 30
0.0
  0
SPLINE
  5
1b2
100
AcDbEntity
  8
Layer_1
 62
7
100
AcDbSpline
 70
8
 71
3
 72
8
 73
4
 74
0
 40
0
 40
0
 40
0
 40
0
 40
1
 40
1
 40
1
 40
1
 10
63.240756
 20
0.042095
 30
0.0
 10
62.920942
 20
0.044325
 30
0.0
 10
62.585227
 20
0.057530
 30
0.0
 10
62.494724
 20
0.071423
 30
0.0
  0
LWPOLYLINE
  5
1b3
100
AcDbEntity
  8
Layer_1
 62
7
100
AcDbPolyline
 90
13
 70
0
 10
63.633917
 20
4.904248
 30
0.0
 10
63.635328
 20
8.839601
 30
0.0
 10
62.534676
 20
8.839601
 30
0.0
 10
61.434023
 20
8.839601
 30
0.0
 10
61.434023
 20
9.213408
 30
0.0
 10
61.434023
 20
9.587215
 30
0.0
 10
63.926068
 20
9.587215
 30
0.0
 10
66.418113
 20
9.587215
 30
0.0
 10
66.418113
 20
9.213408
 30
0.0
 10
66.418113
 20
8.839601
 30
0.0
 10
65.464185
 20
8.839601
 30
0.0
 10
64.510257
 20
8.839601
 30
0.0
 10
64.498516
 20
4.758879
 30
0.0
  0
LWPOLYLINE
  5
1b4
100
AcDbEntity
  8
Layer_1
 62
7
100
AcDbPolyline
 90
2
 70
0
 10
62.494724
 20
0.071423
 30
0.0
 10
62.494634
 20
0.071423
 30
0.0
  0
LWPOLYLINE
  5
1b5
100
AcDbEntity
  8
Layer_1
 62
7
100
AcDbPolyline
 90
18
 70
0
 10
56.491378
 20
5.267671
 30
0.0
 10
56.491378
 20
9.338010
 30
0.0
 10
58.734218
 20
9.338010
 30
0.0
 10
60.977058
 20
9.338010
 30
0.0
 10
60.977058
 20
5.537643
 30
0.0
 10
60.977058
 20
1.737275
 30
0.0
 10
60.584656
 20
1.737275
 30
0.0
 10
60.192251
 20
1.737275
 30
0.0
 10
60.179692
 20
1.955329
 30
0.0
 10
60.167133
 20
2.173383
 30
0.0
 10
58.744592
 20
2.184311
 30
0.0
 10
57.322048
 20
2.195238
 30
0.0
 10
57.322048
 20
1.696284
 30
0.0
 10
57.322048
 20
1.197330
 30
0.0
 10
56.906708
 20
1.197330
 30
0.0
 10
56.491367
 20
1.197330
 30
0.0
 10
56.491367
 20
5.267669
 30
0.0
 10
56.491378
 20
5.267671
 30
0.0
  0
LWPOLYLINE
  5
1b6
100
AcDbEntity
  8
Layer_1
 62
7
100
AcDbPolyline
 90
10
 70
0
 10
58.360412
 20
4.167018
 30
0.0
 10
58.360412
 20
5.392274
 30
0.0
 10
57.841236
 20
5.392274
 30
0.0
 10
57.322060
 20
5.392274
 30
0.0
 10
57.322060
 20
4.167018
 30
0.0
 10
57.322060
 20
2.941763
 30
0.0
 10
57.841236
 20
2.941763
 30
0.0
 10
58.360412
 20
2.941763
 30
0.0
 10
58.360412
 20
4.167018
 30
0.0
 10
58.360412
 20
4.167018
 30
0.0
  0
LWPOLYLINE
  5
1b7
100
AcDbEntity
  8
Layer_1
 62
7
100
AcDbPolyline
 90
10
 70
0
 10
60.187911
 20
4.167018
 30
0.0
 10
60.187911
 20
5.392274
 30
0.0
 10
59.647969
 20
5.392274
 30
0.0
 10
59.108024
 20
5.392274
 30
0.0
 10
59.108024
 20
4.167018
 30
0.0
 10
59.108024
 20
2.941763
 30
0.0
 10
59.647969
 20
2.941763
 30
0.0
 10
60.187911
 20
2.941763
 30
0.0
 10
60.187911
 20
4.167018
 30
0.0
 10
60.187911
 20
4.167018
 30
0.0
  0
LWPOLYLINE
  5
1b8
100
AcDbEntity
  8
Layer_1
 62
7
100
AcDbPolyline
 90
10
 70
0
 10
58.360412
 20
7.344375
 30
0.0
 10
58.360412
 20
8.548863
 30
0.0
 10
57.841236
 20
8.548863
 30
0.0
 10
57.322060
 20
8.548863
 30
0.0
 10
57.322060
 20
7.344375
 30
0.0
 10
57.322060
 20
6.139887
 30
0.0
 10
57.841236
 20
6.139887
 30
0.0
 10
58.360412
 20
6.139887
 30
0.0
 10
58.360412
 20
7.344375
 30
0.0
 10
58.360412
 20
7.344375
 30
0.0
  0
SPLINE
  5
1b9
100
AcDbEntity
  8
Layer_1
 62
7
100
AcDbSpline
 70
8
 71
3
 72
8
 73
4
 74
0
 40
0
 40
0
 40
0
 40
0
 40
1
 40
1
 40
1
 40
1
 10
54.163962
 20
2.329136
 30
0.0
 10
53.728183
 20
3.992587
 30
0.0
 10
53.104943
 20
5.730140
 30
0.0
 10
52.403739
 20
7.236529
 30
0.0
  0
SPLINE
  5
1ba
100
AcDbEntity
  8
Layer_1
 62
7
100
AcDbSpline
 70
8
 71
3
 72
8
 73
4
 74
0
 40
0
 40
0
 40
0
 40
0
 40
1
 40
1
 40
1
 40
1
 10
52.403739
 20
7.236529
 30
0.0
 10
52.298431
 20
7.462761
 30
0.0
 10
52.217190
 20
7.651980
 30
0.0
 10
52.223204
 20
7.657017
 30
0.0
  0
SPLINE
  5
1bb
100
AcDbEntity
  8
Layer_1
 62
7
100
AcDbSpline
 70
8
 71
3
 72
8
 73
4
 74
0
 40
0
 40
0
 40
0
 40
0
 40
1
 40
1
 40
1
 40
1
 10
52.223204
 20
7.657017
 30
0.0
 10
52.252321
 20
7.681405
 30
0.0
 10
52.938440
 20
7.967386
 30
0.0
 10
52.967834
 20
7.967386
 30
0.0
  0
SPLINE
  5
1bc
100
AcDbEntity
  8
Layer_1
 62
7
100
AcDbSpline
 70
8
 71
3
 72
8
 73
4
 74
0
 40
0
 40
0
 40
0
 40
0
 40
1
 40
1
 40
1
 40
1
 10
52.967834
 20
7.967386
 30
0.0
 10
53.046003
 20
7.967386
 30
0.0
 10
53.715449
 20
6.507778
 30
0.0
 10
54.196525
 20
5.288438
 30
0.0
  0
SPLINE
  5
1bd
100
AcDbEntity
  8
Layer_1
 62
7
100
AcDbSpline
 70
8
 71
3
 72
8
 73
4
 74
0
 40
0
 40
0
 40
0
 40
0
 40
1
 40
1
 40
1
 40
1
 10
54.196525
 20
5.288438
 30
0.0
 10
54.482836
 20
4.562742
 30
0.0
 10
55.120754
 20
2.713119
 30
0.0
 10
55.120754
 20
2.608656
 30
0.0
  0
SPLINE
  5
1be
100
AcDbEntity
  8
Layer_1
 62
7
100
AcDbSpline
 70
8
 71
3
 72
8
 73
4
 74
0
 40
0
 40
0
 40
0
 40
0
 40
1
 40
1
 40
1
 40
1
 10
55.120754
 20
2.608656
 30
0.0
 10
55.120754
 20
2.574166
 30
0.0
 10
54.292802
 20
2.152616
 30
0.0
 10
54.225060
 20
2.152616
 30
0.0
  0
SPLINE
  5
1bf
100
AcDbEntity
  8
Layer_1
 62
7
100
AcDbSpline
 70
8
 71
3
 72
8
 73
4
 74
0
 40
0
 40
0
 40
0
 40
0
 40
1
 40
1
 40
1
 40
1
 10
54.225060
 20
2.152616
 30
0.0
 10
54.216876
 20
2.152616
 30
0.0
 10
54.189396
 20
2.232050
 30
0.0
 10
54.163962
 20
2.329136
 30
0.0
  0
LWPOLYLINE
  5
1c0
100
AcDbEntity
  8
Layer_1
 62
7
100
AcDbPolyline
 90
10
 70
0
 10
60.187911
 20
7.344375
 30
0.0
 10
60.187911
 20
8.548863
 30
0.0
 10
59.647969
 20
8.548863
 30
0.0
 10
59.108024
 20
8.548863
 30
0.0
 10
59.108024
 20
7.344375
 30
0.0
 10
59.108024
 20
6.139887
 30
0.0
 10
59.647969
 20
6.139887
 30
0.0
 10
60.187911
 20
6.139887
 30
0.0
 10
60.187911
 20
7.344375
 30
0.0
 10
60.187911
 20
7.344375
 30
0.0
  0
LWPOLYLINE
  5
1c1
100
AcDbEntity
  8
Layer_1
 62
7
100
AcDbPolyline
 90
2
 70
0
 10
54.163962
 20
2.329136
 30
0.0
 10
54.163962
 20
2.329136
 30
0.0
  0
ENDSEC
  0
SECTION
  2
OBJECTS
  0
DICTIONARY
  5
C
330
0
100
AcDbDictionary
  3
ACAD_GROUP
350
D
  3
ACAD_MLINESTYLE
350
17
  0
DICTIONARY
  5
D
330
C
100
AcDbDictionary
  0
DICTIONARY
  5
1A
330
C
100
AcDbDictionary
  0
DICTIONARY
  5
17
330
C
100
AcDbDictionary
  3
STANDARD
350
18
  0
DICTIONARY
  5
19
330
C
100
AcDbDictionary
  0
ENDSEC
  0
EOF
