  0
SECTION
  2
HEADER
  9
$ACADVER
  1
AC1014
  9
$HANDSEED
  5
FFFF
  9
$MEASUREMENT
 70
     1
  0
ENDSEC
  0
SECTION
  2
TABLES
  0
TABLE
  2
VPORT
  5
8
330
0
100
AcDbSymbolTable
 70
     4
  0
VPORT
  5
2E
330
8
100
AcDbSymbolTableRecord
100
AcDbViewportTableRecord
  2
*ACTIVE
 70
     0
 10
0.0
 20
0.0
 11
1.0
 21
1.0
 12
210.0
 22
148.5
 13
0.0
 23
0.0
 14
10.0
 24
10.0
 15
10.0
 25
10.0
 16
0.0
 26
0.0
 36
1.0
 17
0.0
 27
0.0
 37
0.0
 40
341.0
 41
1.24
 42
50.0
 43
0.0
 44
0.0
 50
0.0
 51
0.0
 71
     0
 72
   100
 73
     1
 74
     3
 75
     0
 76
     0
 77
     0
 78
     0
  0
ENDTAB
  0
TABLE
  2
LTYPE
  5
5
330
0
100
AcDbSymbolTable
 70
     1
  0
LTYPE
  5
14
330
5
100
AcDbSymbolTableRecord
100
AcDbLinetypeTableRecord
  2
BYBLOCK
 70
     0
  3

 72
    65
 73
     0
 40
0.0
  0
LTYPE
  5
15
330
5
100
AcDbSymbolTableRecord
100
AcDbLinetypeTableRecord
  2
BYLAYER
 70
     0
  3

 72
    65
 73
     0
 40
0.0
  0
LTYPE
  5
16
330
5
100
AcDbSymbolTableRecord
100
AcDbLinetypeTableRecord
  2
CONTINUOUS
 70
     0
  3
Solid line
 72
    65
 73
     0
 40
0.0
  0
ENDTAB
  0
TABLE
  2
LAYER
  5
2
100
AcDbSymbolTable
 70
2
  0
LAYER
  5
50
100
AcDbSymbolTableRecord
100
AcDbLayerTableRecord
  2
0
 70
0
  6
CONTINUOUS
  0
LAYER
  5
51
100
AcDbSymbolTableRecord
100
AcDbLayerTableRecord
  2
Layer_1
 70
0
  6
CONTINUOUS
  0
ENDTAB
  0
TABLE
  2
STYLE
  5
3
330
0
100
AcDbSymbolTable
 70
     1
  0
STYLE
  5
11
330
3
100
AcDbSymbolTableRecord
100
AcDbTextStyleTableRecord
  2
STANDARD
 70
     0
 40
0.0
 41
1.0
 50
0.0
 71
     0
 42
2.5
  3
txt
  4

  0
ENDTAB
  0
TABLE
  2
VIEW
  5
6
330
0
100
AcDbSymbolTable
 70
     0
  0
ENDTAB
  0
TABLE
  2
UCS
  5
7
330
0
100
AcDbSymbolTable
 70
     0
  0
ENDTAB
  0
TABLE
  2
APPID
  5
9
330
0
100
AcDbSymbolTable
 70
     2
  0
APPID
  5
12
330
9
100
AcDbSymbolTableRecord
100
AcDbRegAppTableRecord
  2
ACAD
 70
     0
  0
ENDTAB
  0
TABLE
  2
DIMSTYLE
  5
A
330
0
100
AcDbSymbolTable
 70
     1
  0
DIMSTYLE
105
27
330
A
100
AcDbSymbolTableRecord
100
AcDbDimStyleTableRecord
  2
ISO-25
 70
     0
  3

  4

  5

  6

  7

 40
1.0
 41
2.5
 42
0.625
 43
3.75
 44
1.25
 45
0.0
 46
0.0
 47
0.0
 48
0.0
140
2.5
141
2.5
142
0.0
143
0.03937007874016
144
1.0
145
0.0
146
1.0
147
0.625
 71
     0
 72
     0
 73
     0
 74
     0
 75
     0
 76
     0
 77
     1
 78
     8
170
     0
171
     3
172
     1
173
     0
174
     0
175
     0
176
     0
177
     0
178
     0
270
     2
271
     2
272
     2
273
     2
274
     3
340
11
275
     0
280
     0
281
     0
282
     0
283
     0
284
     8
285
     0
286
     0
287
     3
288
     0
  0
ENDTAB
  0
TABLE
  2
BLOCK_RECORD
  5
1
330
0
100
AcDbSymbolTable
 70
     1
  0
BLOCK_RECORD
  5
1F
330
1
100
AcDbSymbolTableRecord
100
AcDbBlockTableRecord
  2
*MODEL_SPACE
  0
BLOCK_RECORD
  5
1B
330
1
100
AcDbSymbolTableRecord
100
AcDbBlockTableRecord
  2
*PAPER_SPACE
  0
ENDTAB
  0
ENDSEC
  0
SECTION
  2
BLOCKS
  0
BLOCK
  5
20
330
1F
100
AcDbEntity
  8
0
100
AcDbBlockBegin
  2
*MODEL_SPACE
 70
     0
 10
0.0
 20
0.0
 30
0.0
  3
*MODEL_SPACE
  1

  0
ENDBLK
  5
21
330
1F
100
AcDbEntity
  8
0
100
AcDbBlockEnd
  0
BLOCK
  5
1C
330
1B
100
AcDbEntity
 67
     1
  8
0
100
AcDbBlockBegin
  2
*PAPER_SPACE
  1

  0
ENDBLK
  5
1D
330
1B
100
AcDbEntity
 67
     1
  8
0
100
AcDbBlockEnd
  0
ENDSEC
  0
SECTION
  2
ENTITIES
  0
SPLINE
  5
100
100
AcDbEntity
  8
Layer_1
 62
7
100
AcDbSpline
 70
8
 71
3
 72
8
 73
4
 74
0
 40
0
 40
0
 40
0
 40
0
 40
1
 40
1
 40
1
 40
1
 10
3.995690
 20
3.726163
 30
0.0
 10
3.934890
 20
3.936577
 30
0.0
 10
3.866970
 20
4.119967
 30
0.0
 10
3.844756
 20
4.133696
 30
0.0
  0
SPLINE
  5
101
100
AcDbEntity
  8
Layer_1
 62
7
100
AcDbSpline
 70
8
 71
3
 72
8
 73
4
 74
0
 40
0
 40
0
 40
0
 40
0
 40
1
 40
1
 40
1
 40
1
 10
3.844756
 20
4.133696
 30
0.0
 10
3.822542
 20
4.147426
 30
0.0
 10
3.625087
 20
4.104688
 30
0.0
 10
3.405967
 20
4.038724
 30
0.0
  0
SPLINE
  5
102
100
AcDbEntity
  8
Layer_1
 62
7
100
AcDbSpline
 70
8
 71
3
 72
8
 73
4
 74
0
 40
0
 40
0
 40
0
 40
0
 40
1
 40
1
 40
1
 40
1
 10
3.405967
 20
4.038724
 30
0.0
 10
2.681347
 20
3.820587
 30
0.0
 10
0.782100
 20
3.384772
 30
0.0
 10
0.556096
 20
3.384772
 30
0.0
  0
SPLINE
  5
103
100
AcDbEntity
  8
Layer_1
 62
7
100
AcDbSpline
 70
8
 71
3
 72
8
 73
4
 74
0
 40
0
 40
0
 40
0
 40
0
 40
1
 40
1
 40
1
 40
1
 10
0.556096
 20
3.384772
 30
0.0
 10
0.526142
 20
3.384772
 30
0.0
 10
0.444867
 20
3.557932
 30
0.0
 10
0.375484
 20
3.769571
 30
0.0
  0
SPLINE
  5
104
100
AcDbEntity
  8
Layer_1
 62
7
100
AcDbSpline
 70
8
 71
3
 72
8
 73
4
 74
0
 40
0
 40
0
 40
0
 40
0
 40
1
 40
1
 40
1
 40
1
 10
0.383978
 20
4.250247
 30
0.0
 10
0.675565
 20
4.457875
 30
0.0
 10
2.117327
 20
6.189217
 30
0.0
 10
2.117327
 20
6.331741
 30
0.0
  0
SPLINE
  5
105
100
AcDbEntity
  8
Layer_1
 62
7
100
AcDbSpline
 70
8
 71
3
 72
8
 73
4
 74
0
 40
0
 40
0
 40
0
 40
0
 40
1
 40
1
 40
1
 40
1
 10
2.117327
 20
6.331741
 30
0.0
 10
2.117327
 20
6.355403
 30
0.0
 10
2.079432
 20
6.363382
 30
0.0
 10
2.033115
 20
6.349471
 30
0.0
  0
SPLINE
  5
106
100
AcDbEntity
  8
Layer_1
 62
7
100
AcDbSpline
 70
8
 71
3
 72
8
 73
4
 74
0
 40
0
 40
0
 40
0
 40
0
 40
1
 40
1
 40
1
 40
1
 10
2.033115
 20
6.349471
 30
0.0
 10
1.848078
 20
6.293889
 30
0.0
 10
0.968600
 20
6.131039
 30
0.0
 10
0.686848
 20
6.100187
 30
0.0
  0
SPLINE
  5
107
100
AcDbEntity
  8
Layer_1
 62
7
100
AcDbSpline
 70
8
 71
3
 72
8
 73
4
 74
0
 40
0
 40
0
 40
0
 40
0
 40
1
 40
1
 40
1
 40
1
 10
0.686848
 20
6.100187
 30
0.0
 10
0.343173
 20
6.062554
 30
0.0
 10
0.346448
 20
6.058961
 30
0.0
 10
0.235694
 20
6.595178
 30
0.0
  0
LWPOLYLINE
  5
108
100
AcDbEntity
  8
Layer_1
 62
7
100
AcDbPolyline
 90
3
 70
0
 10
0.375484
 20
3.769571
 30
0.0
 10
0.249334
 20
4.154372
 30
0.0
 10
0.383978
 20
4.250247
 30
0.0
  0
SPLINE
  5
109
100
AcDbEntity
  8
Layer_1
 62
7
100
AcDbSpline
 70
8
 71
3
 72
8
 73
4
 74
0
 40
0
 40
0
 40
0
 40
0
 40
1
 40
1
 40
1
 40
1
 10
0.428553
 20
7.188665
 30
0.0
 10
0.889134
 20
7.757634
 30
0.0
 10
1.405293
 20
8.699783
 30
0.0
 10
1.758624
 20
9.616453
 30
0.0
  0
SPLINE
  5
10a
100
AcDbEntity
  8
Layer_1
 62
7
100
AcDbSpline
 70
8
 71
3
 72
8
 73
4
 74
0
 40
0
 40
0
 40
0
 40
0
 40
1
 40
1
 40
1
 40
1
 10
1.758624
 20
9.616453
 30
0.0
 10
1.860640
 20
9.881119
 30
0.0
 10
1.950289
 20
10.106376
 30
0.0
 10
1.957844
 20
10.117024
 30
0.0
  0
SPLINE
  5
10b
100
AcDbEntity
  8
Layer_1
 62
7
100
AcDbSpline
 70
8
 71
3
 72
8
 73
4
 74
0
 40
0
 40
0
 40
0
 40
0
 40
1
 40
1
 40
1
 40
1
 10
1.957844
 20
10.117024
 30
0.0
 10
1.971621
 20
10.136438
 30
0.0
 10
2.530662
 20
9.996578
 30
0.0
 10
2.727599
 20
9.924447
 30
0.0
  0
LWPOLYLINE
  5
10c
100
AcDbEntity
  8
Layer_1
 62
7
100
AcDbPolyline
 90
3
 70
0
 10
0.235694
 20
6.595178
 30
0.0
 10
0.177236
 20
6.878205
 30
0.0
 10
0.428553
 20
7.188665
 30
0.0
  0
SPLINE
  5
10d
100
AcDbEntity
  8
Layer_1
 62
7
100
AcDbSpline
 70
8
 71
3
 72
8
 73
4
 74
0
 40
0
 40
0
 40
0
 40
0
 40
1
 40
1
 40
1
 40
1
 10
2.688364
 20
9.511415
 30
0.0
 10
2.376200
 20
8.700740
 30
0.0
 10
1.881638
 20
7.824161
 30
0.0
 10
1.378849
 20
7.190389
 30
0.0
  0
LWPOLYLINE
  5
10e
100
AcDbEntity
  8
Layer_1
 62
7
100
AcDbPolyline
 90
3
 70
0
 10
2.727599
 20
9.924447
 30
0.0
 10
2.832599
 20
9.885989
 30
0.0
 10
2.688364
 20
9.511415
 30
0.0
  0
SPLINE
  5
10f
100
AcDbEntity
  8
Layer_1
 62
7
100
AcDbSpline
 70
8
 71
3
 72
8
 73
4
 74
0
 40
0
 40
0
 40
0
 40
0
 40
1
 40
1
 40
1
 40
1
 10
1.348927
 20
6.910734
 30
0.0
 10
1.467181
 20
6.926727
 30
0.0
 10
1.799083
 20
6.966973
 30
0.0
 10
2.086487
 20
7.000168
 30
0.0
  0
LWPOLYLINE
  5
110
100
AcDbEntity
  8
Layer_1
 62
7
100
AcDbPolyline
 90
3
 70
0
 10
1.378849
 20
7.190389
 30
0.0
 10
1.133920
 20
6.881654
 30
0.0
 10
1.348927
 20
6.910734
 30
0.0
  0
SPLINE
  5
111
100
AcDbEntity
  8
Layer_1
 62
7
100
AcDbSpline
 70
8
 71
3
 72
8
 73
4
 74
0
 40
0
 40
0
 40
0
 40
0
 40
1
 40
1
 40
1
 40
1
 10
2.715355
 20
7.231703
 30
0.0
 10
2.773829
 20
7.325852
 30
0.0
 10
2.969891
 20
7.673564
 30
0.0
 10
3.151049
 20
8.004397
 30
0.0
  0
SPLINE
  5
112
100
AcDbEntity
  8
Layer_1
 62
7
100
AcDbSpline
 70
8
 71
3
 72
8
 73
4
 74
0
 40
0
 40
0
 40
0
 40
0
 40
1
 40
1
 40
1
 40
1
 10
3.151049
 20
8.004397
 30
0.0
 10
3.332207
 20
8.335229
 30
0.0
 10
3.486838
 20
8.614052
 30
0.0
 10
3.494674
 20
8.624002
 30
0.0
  0
SPLINE
  5
113
100
AcDbEntity
  8
Layer_1
 62
7
100
AcDbSpline
 70
8
 71
3
 72
8
 73
4
 74
0
 40
0
 40
0
 40
0
 40
0
 40
1
 40
1
 40
1
 40
1
 10
3.494674
 20
8.624002
 30
0.0
 10
3.524914
 20
8.662401
 30
0.0
 10
4.282776
 20
8.369832
 30
0.0
 10
4.282776
 20
8.319760
 30
0.0
  0
SPLINE
  5
114
100
AcDbEntity
  8
Layer_1
 62
7
100
AcDbSpline
 70
8
 71
3
 72
8
 73
4
 74
0
 40
0
 40
0
 40
0
 40
0
 40
1
 40
1
 40
1
 40
1
 10
4.282776
 20
8.319760
 30
0.0
 10
4.282776
 20
8.233806
 30
0.0
 10
3.671739
 20
7.158202
 30
0.0
 10
3.287272
 20
6.567379
 30
0.0
  0
SPLINE
  5
115
100
AcDbEntity
  8
Layer_1
 62
7
100
AcDbSpline
 70
8
 71
3
 72
8
 73
4
 74
0
 40
0
 40
0
 40
0
 40
0
 40
1
 40
1
 40
1
 40
1
 10
3.287272
 20
6.567379
 30
0.0
 10
2.835982
 20
5.873868
 30
0.0
 10
2.481449
 20
5.409398
 30
0.0
 10
1.945175
 20
4.809111
 30
0.0
  0
LWPOLYLINE
  5
116
100
AcDbEntity
  8
Layer_1
 62
7
100
AcDbPolyline
 90
3
 70
0
 10
2.086487
 20
7.000168
 30
0.0
 10
2.609039
 20
7.060522
 30
0.0
 10
2.715355
 20
7.231703
 30
0.0
  0
SPLINE
  5
117
100
AcDbEntity
  8
Layer_1
 62
7
100
AcDbSpline
 70
8
 71
3
 72
8
 73
4
 74
0
 40
0
 40
0
 40
0
 40
0
 40
1
 40
1
 40
1
 40
1
 10
1.710160
 20
4.366927
 30
0.0
 10
2.046248
 20
4.427330
 30
0.0
 10
3.468961
 20
4.777876
 30
0.0
 10
3.540494
 20
4.817908
 30
0.0
  0
SPLINE
  5
118
100
AcDbEntity
  8
Layer_1
 62
7
100
AcDbSpline
 70
8
 71
3
 72
8
 73
4
 74
0
 40
0
 40
0
 40
0
 40
0
 40
1
 40
1
 40
1
 40
1
 10
3.540494
 20
4.817908
 30
0.0
 10
3.597040
 20
4.849553
 30
0.0
 10
3.574359
 20
4.929357
 30
0.0
 10
3.415390
 20
5.258084
 30
0.0
  0
SPLINE
  5
119
100
AcDbEntity
  8
Layer_1
 62
7
100
AcDbSpline
 70
8
 71
3
 72
8
 73
4
 74
0
 40
0
 40
0
 40
0
 40
0
 40
1
 40
1
 40
1
 40
1
 10
3.415390
 20
5.258084
 30
0.0
 10
3.308595
 20
5.478923
 30
0.0
 10
3.227282
 20
5.664911
 30
0.0
 10
3.234695
 20
5.671393
 30
0.0
  0
SPLINE
  5
11a
100
AcDbEntity
  8
Layer_1
 62
7
100
AcDbSpline
 70
8
 71
3
 72
8
 73
4
 74
0
 40
0
 40
0
 40
0
 40
0
 40
1
 40
1
 40
1
 40
1
 10
3.234695
 20
5.671393
 30
0.0
 10
3.242109
 20
5.677876
 30
0.0
 10
3.386519
 20
5.752536
 30
0.0
 10
3.555608
 20
5.837308
 30
0.0
  0
SPLINE
  5
11b
100
AcDbEntity
  8
Layer_1
 62
7
100
AcDbSpline
 70
8
 71
3
 72
8
 73
4
 74
0
 40
0
 40
0
 40
0
 40
0
 40
1
 40
1
 40
1
 40
1
 10
3.555608
 20
5.837308
 30
0.0
 10
3.802222
 20
5.960947
 30
0.0
 10
3.872027
 20
5.978735
 30
0.0
 10
3.908455
 20
5.927223
 30
0.0
  0
SPLINE
  5
11c
100
AcDbEntity
  8
Layer_1
 62
7
100
AcDbSpline
 70
8
 71
3
 72
8
 73
4
 74
0
 40
0
 40
0
 40
0
 40
0
 40
1
 40
1
 40
1
 40
1
 10
3.908455
 20
5.927223
 30
0.0
 10
4.089524
 20
5.671175
 30
0.0
 10
4.649054
 20
4.380010
 30
0.0
 10
4.838273
 20
3.781584
 30
0.0
  0
SPLINE
  5
11d
100
AcDbEntity
  8
Layer_1
 62
7
100
AcDbSpline
 70
8
 71
3
 72
8
 73
4
 74
0
 40
0
 40
0
 40
0
 40
0
 40
1
 40
1
 40
1
 40
1
 10
4.838273
 20
3.781584
 30
0.0
 10
4.849596
 20
3.745772
 30
0.0
 10
4.704696
 20
3.644493
 30
0.0
 10
4.481794
 20
3.532420
 30
0.0
  0
LWPOLYLINE
  5
11e
100
AcDbEntity
  8
Layer_1
 62
7
100
AcDbPolyline
 90
3
 70
0
 10
1.945175
 20
4.809111
 30
0.0
 10
1.519537
 20
4.332668
 30
0.0
 10
1.710160
 20
4.366927
 30
0.0
  0
LWPOLYLINE
  5
11f
100
AcDbEntity
  8
Layer_1
 62
7
100
AcDbPolyline
 90
5
 70
0
 10
4.481794
 20
3.532420
 30
0.0
 10
4.106236
 20
3.343593
 30
0.0
 10
3.995690
 20
3.726163
 30
0.0
 10
3.995690
 20
3.726163
 30
0.0
 10
3.995690
 20
3.726163
 30
0.0
  0
SPLINE
  5
120
100
AcDbEntity
  8
Layer_1
 62
7
100
AcDbSpline
 70
8
 71
3
 72
8
 73
4
 74
0
 40
0
 40
0
 40
0
 40
0
 40
1
 40
1
 40
1
 40
1
 10
4.117970
 20
0.893281
 30
0.0
 10
4.072376
 20
1.242272
 30
0.0
 10
3.870174
 20
2.028873
 30
0.0
 10
3.731034
 20
2.398534
 30
0.0
  0
LWPOLYLINE
  5
121
100
AcDbEntity
  8
Layer_1
 62
7
100
AcDbPolyline
 90
26
 70
0
 10
5.197077
 20
0.810293
 30
0.0
 10
5.197077
 20
1.219322
 30
0.0
 10
6.183559
 20
1.219322
 30
0.0
 10
7.170042
 20
1.219322
 30
0.0
 10
7.170042
 20
4.972768
 30
0.0
 10
7.170042
 20
8.726213
 30
0.0
 10
6.255741
 20
8.726213
 30
0.0
 10
5.341440
 20
8.726213
 30
0.0
 10
5.341440
 20
9.135242
 30
0.0
 10
5.341440
 20
9.544272
 30
0.0
 10
7.555011
 20
9.544272
 30
0.0
 10
9.768581
 20
9.544272
 30
0.0
 10
9.768581
 20
9.135242
 30
0.0
 10
9.768581
 20
8.726213
 30
0.0
 10
8.878341
 20
8.726213
 30
0.0
 10
7.988100
 20
8.726213
 30
0.0
 10
7.988100
 20
4.972768
 30
0.0
 10
7.988100
 20
1.219322
 30
0.0
 10
9.022704
 20
1.219322
 30
0.0
 10
10.057308
 20
1.219322
 30
0.0
 10
10.057308
 20
0.810293
 30
0.0
 10
10.057308
 20
0.401264
 30
0.0
 10
7.627192
 20
0.401264
 30
0.0
 10
5.197077
 20
0.401264
 30
0.0
 10
5.197077
 20
0.810293
 30
0.0
 10
5.197077
 20
0.810293
 30
0.0
  0
SPLINE
  5
122
100
AcDbEntity
  8
Layer_1
 62
7
100
AcDbSpline
 70
8
 71
3
 72
8
 73
4
 74
0
 40
0
 40
0
 40
0
 40
0
 40
1
 40
1
 40
1
 40
1
 10
3.981833
 20
2.827706
 30
0.0
 10
4.183142
 20
2.895391
 30
0.0
 10
4.352587
 20
2.945561
 30
0.0
 10
4.358377
 20
2.939195
 30
0.0
  0
SPLINE
  5
123
100
AcDbEntity
  8
Layer_1
 62
7
100
AcDbSpline
 70
8
 71
3
 72
8
 73
4
 74
0
 40
0
 40
0
 40
0
 40
0
 40
1
 40
1
 40
1
 40
1
 10
4.358377
 20
2.939195
 30
0.0
 10
4.388805
 20
2.905740
 30
0.0
 10
4.620508
 20
2.308919
 30
0.0
 10
4.708487
 20
2.037381
 30
0.0
  0
SPLINE
  5
124
100
AcDbEntity
  8
Layer_1
 62
7
100
AcDbSpline
 70
8
 71
3
 72
8
 73
4
 74
0
 40
0
 40
0
 40
0
 40
0
 40
1
 40
1
 40
1
 40
1
 10
4.708487
 20
2.037381
 30
0.0
 10
4.811602
 20
1.719129
 30
0.0
 10
5.010703
 20
0.919797
 30
0.0
 10
4.991229
 20
0.902251
 30
0.0
  0
SPLINE
  5
125
100
AcDbEntity
  8
Layer_1
 62
7
100
AcDbSpline
 70
8
 71
3
 72
8
 73
4
 74
0
 40
0
 40
0
 40
0
 40
0
 40
1
 40
1
 40
1
 40
1
 10
4.991229
 20
0.902251
 30
0.0
 10
4.985345
 20
0.896951
 30
0.0
 10
4.828951
 20
0.846409
 30
0.0
 10
4.643684
 20
0.789937
 30
0.0
  0
SPLINE
  5
126
100
AcDbEntity
  8
Layer_1
 62
7
100
AcDbSpline
 70
8
 71
3
 72
8
 73
4
 74
0
 40
0
 40
0
 40
0
 40
0
 40
1
 40
1
 40
1
 40
1
 10
4.643684
 20
0.789937
 30
0.0
 10
4.458418
 20
0.733465
 30
0.0
 10
4.271804
 20
0.676497
 30
0.0
 10
4.228987
 20
0.663342
 30
0.0
  0
SPLINE
  5
127
100
AcDbEntity
  8
Layer_1
 62
7
100
AcDbSpline
 70
8
 71
3
 72
8
 73
4
 74
0
 40
0
 40
0
 40
0
 40
0
 40
1
 40
1
 40
1
 40
1
 10
4.228987
 20
0.663342
 30
0.0
 10
4.166611
 20
0.644176
 30
0.0
 10
4.144544
 20
0.689882
 30
0.0
 10
4.117970
 20
0.893281
 30
0.0
  0
LWPOLYLINE
  5
128
100
AcDbEntity
  8
Layer_1
 62
7
100
AcDbPolyline
 90
3
 70
0
 10
3.731034
 20
2.398534
 30
0.0
 10
3.615815
 20
2.704644
 30
0.0
 10
3.981833
 20
2.827706
 30
0.0
  0
SPLINE
  5
129
100
AcDbEntity
  8
Layer_1
 62
7
100
AcDbSpline
 70
8
 71
3
 72
8
 73
4
 74
0
 40
0
 40
0
 40
0
 40
0
 40
1
 40
1
 40
1
 40
1
 10
2.198817
 20
0.990747
 30
0.0
 10
2.173466
 20
1.544930
 30
0.0
 10
2.068871
 20
2.377986
 30
0.0
 10
1.994047
 20
2.621648
 30
0.0
  0
SPLINE
  5
12a
100
AcDbEntity
  8
Layer_1
 62
7
100
AcDbSpline
 70
8
 71
3
 72
8
 73
4
 74
0
 40
0
 40
0
 40
0
 40
0
 40
1
 40
1
 40
1
 40
1
 10
1.994047
 20
2.621648
 30
0.0
 10
1.974354
 20
2.685778
 30
0.0
 10
2.027427
 20
2.710681
 30
0.0
 10
2.276075
 20
2.753981
 30
0.0
  0
SPLINE
  5
12b
100
AcDbEntity
  8
Layer_1
 62
7
100
AcDbSpline
 70
8
 71
3
 72
8
 73
4
 74
0
 40
0
 40
0
 40
0
 40
0
 40
1
 40
1
 40
1
 40
1
 10
2.276075
 20
2.753981
 30
0.0
 10
2.444532
 20
2.783317
 30
0.0
 10
2.616110
 20
2.807318
 30
0.0
 10
2.657359
 20
2.807318
 30
0.0
  0
SPLINE
  5
12c
100
AcDbEntity
  8
Layer_1
 62
7
100
AcDbSpline
 70
8
 71
3
 72
8
 73
4
 74
0
 40
0
 40
0
 40
0
 40
0
 40
1
 40
1
 40
1
 40
1
 10
2.657359
 20
2.807318
 30
0.0
 10
2.791904
 20
2.807318
 30
0.0
 10
3.049137
 20
1.637823
 30
0.0
 10
3.092923
 20
0.827053
 30
0.0
  0
LWPOLYLINE
  5
12d
100
AcDbEntity
  8
Layer_1
 62
7
100
AcDbPolyline
 90
2
 70
0
 10
4.117970
 20
0.893281
 30
0.0
 10
4.117970
 20
0.893281
 30
0.0
  0
SPLINE
  5
12e
100
AcDbEntity
  8
Layer_1
 62
7
100
AcDbSpline
 70
8
 71
3
 72
8
 73
4
 74
0
 40
0
 40
0
 40
0
 40
0
 40
1
 40
1
 40
1
 40
1
 10
2.757465
 20
0.405993
 30
0.0
 10
2.177503
 20
0.319735
 30
0.0
 10
2.232128
 20
0.262557
 30
0.0
 10
2.198817
 20
0.990747
 30
0.0
  0
LWPOLYLINE
  5
12f
100
AcDbEntity
  8
Layer_1
 62
7
100
AcDbPolyline
 90
3
 70
0
 10
3.092923
 20
0.827053
 30
0.0
 10
3.112809
 20
0.458844
 30
0.0
 10
2.757465
 20
0.405993
 30
0.0
  0
SPLINE
  5
130
100
AcDbEntity
  8
Layer_1
 62
7
100
AcDbSpline
 70
8
 71
3
 72
8
 73
4
 74
0
 40
0
 40
0
 40
0
 40
0
 40
1
 40
1
 40
1
 40
1
 10
0.409028
 20
0.289009
 30
0.0
 10
0.223762
 20
0.383464
 30
0.0
 10
0.066312
 20
0.465863
 30
0.0
 10
0.059140
 20
0.472116
 30
0.0
  0
SPLINE
  5
131
100
AcDbEntity
  8
Layer_1
 62
7
100
AcDbSpline
 70
8
 71
3
 72
8
 73
4
 74
0
 40
0
 40
0
 40
0
 40
0
 40
1
 40
1
 40
1
 40
1
 10
0.059140
 20
0.472116
 30
0.0
 10
0.051968
 20
0.478369
 30
0.0
 10
0.123578
 20
0.715025
 30
0.0
 10
0.218273
 20
0.998018
 30
0.0
  0
SPLINE
  5
132
100
AcDbEntity
  8
Layer_1
 62
7
100
AcDbSpline
 70
8
 71
3
 72
8
 73
4
 74
0
 40
0
 40
0
 40
0
 40
0
 40
1
 40
1
 40
1
 40
1
 10
0.218273
 20
0.998018
 30
0.0
 10
0.384766
 20
1.495573
 30
0.0
 10
0.624411
 20
2.525695
 30
0.0
 10
0.625191
 20
2.747167
 30
0.0
  0
SPLINE
  5
133
100
AcDbEntity
  8
Layer_1
 62
7
100
AcDbSpline
 70
8
 71
3
 72
8
 73
4
 74
0
 40
0
 40
0
 40
0
 40
0
 40
1
 40
1
 40
1
 40
1
 10
0.625191
 20
2.747167
 30
0.0
 10
0.625401
 20
2.806717
 30
0.0
 10
0.641814
 20
2.855068
 30
0.0
 10
0.661664
 20
2.854615
 30
0.0
  0
SPLINE
  5
134
100
AcDbEntity
  8
Layer_1
 62
7
100
AcDbSpline
 70
8
 71
3
 72
8
 73
4
 74
0
 40
0
 40
0
 40
0
 40
0
 40
1
 40
1
 40
1
 40
1
 10
0.661664
 20
2.854615
 30
0.0
 10
0.716882
 20
2.853345
 30
0.0
 10
1.402097
 20
2.672482
 30
0.0
 10
1.419374
 20
2.654608
 30
0.0
  0
SPLINE
  5
135
100
AcDbEntity
  8
Layer_1
 62
7
100
AcDbSpline
 70
8
 71
3
 72
8
 73
4
 74
0
 40
0
 40
0
 40
0
 40
0
 40
1
 40
1
 40
1
 40
1
 10
1.419374
 20
2.654608
 30
0.0
 10
1.447939
 20
2.625054
 30
0.0
 10
1.293726
 20
1.677022
 30
0.0
 10
1.197642
 20
1.291504
 30
0.0
  0
SPLINE
  5
136
100
AcDbEntity
  8
Layer_1
 62
7
100
AcDbSpline
 70
8
 71
3
 72
8
 73
4
 74
0
 40
0
 40
0
 40
0
 40
0
 40
1
 40
1
 40
1
 40
1
 10
1.197642
 20
1.291504
 30
0.0
 10
1.046499
 20
0.685073
 30
0.0
 10
0.851037
 20
0.112316
 30
0.0
 10
0.796109
 20
0.114904
 30
0.0
  0
SPLINE
  5
137
100
AcDbEntity
  8
Layer_1
 62
7
100
AcDbSpline
 70
8
 71
3
 72
8
 73
4
 74
0
 40
0
 40
0
 40
0
 40
0
 40
1
 40
1
 40
1
 40
1
 10
0.796109
 20
0.114904
 30
0.0
 10
0.768480
 20
0.116202
 30
0.0
 10
0.594294
 20
0.194553
 30
0.0
 10
0.409028
 20
0.289009
 30
0.0
  0
LWPOLYLINE
  5
138
100
AcDbEntity
  8
Layer_1
 62
7
100
AcDbPolyline
 90
2
 70
0
 10
2.198817
 20
0.990747
 30
0.0
 10
2.198817
 20
0.990747
 30
0.0
  0
LWPOLYLINE
  5
139
100
AcDbEntity
  8
Layer_1
 62
7
100
AcDbPolyline
 90
2
 70
0
 10
0.409028
 20
0.289009
 30
0.0
 10
0.409028
 20
0.289009
 30
0.0
  0
SPLINE
  5
13a
100
AcDbEntity
  8
Layer_1
 62
7
100
AcDbSpline
 70
8
 71
3
 72
8
 73
4
 74
0
 40
0
 40
0
 40
0
 40
0
 40
1
 40
1
 40
1
 40
1
 10
0.409722
 20
12.300142
 30
0.0
 10
0.857527
 20
12.712766
 30
0.0
 10
1.328992
 20
13.334808
 30
0.0
 10
1.620339
 20
13.897407
 30
0.0
  0
LWPOLYLINE
  5
13b
100
AcDbEntity
  8
Layer_1
 62
7
100
AcDbPolyline
 90
3
 70
0
 10
0.268427
 20
11.644958
 30
0.0
 10
0.050778
 20
11.969397
 30
0.0
 10
0.409722
 20
12.300142
 30
0.0
  0
SPLINE
  5
13c
100
AcDbEntity
  8
Layer_1
 62
7
100
AcDbSpline
 70
8
 71
3
 72
8
 73
4
 74
0
 40
0
 40
0
 40
0
 40
0
 40
1
 40
1
 40
1
 40
1
 10
1.559441
 20
14.584851
 30
0.0
 10
1.403113
 20
14.725749
 30
0.0
 10
1.064514
 20
15.006052
 30
0.0
 10
0.807000
 20
15.207746
 30
0.0
  0
SPLINE
  5
13d
100
AcDbEntity
  8
Layer_1
 62
7
100
AcDbSpline
 70
8
 71
3
 72
8
 73
4
 74
0
 40
0
 40
0
 40
0
 40
0
 40
1
 40
1
 40
1
 40
1
 10
0.807000
 20
15.207746
 30
0.0
 10
0.380742
 20
15.541606
 30
0.0
 10
0.341699
 20
15.585645
 30
0.0
 10
0.371247
 20
15.699268
 30
0.0
  0
SPLINE
  5
13e
100
AcDbEntity
  8
Layer_1
 62
7
100
AcDbSpline
 70
8
 71
3
 72
8
 73
4
 74
0
 40
0
 40
0
 40
0
 40
0
 40
1
 40
1
 40
1
 40
1
 10
0.371247
 20
15.699268
 30
0.0
 10
0.517832
 20
16.262958
 30
0.0
 10
1.040170
 20
18.622822
 30
0.0
 10
1.024631
 20
18.651189
 30
0.0
  0
SPLINE
  5
13f
100
AcDbEntity
  8
Layer_1
 62
7
100
AcDbSpline
 70
8
 71
3
 72
8
 73
4
 74
0
 40
0
 40
0
 40
0
 40
0
 40
1
 40
1
 40
1
 40
1
 10
1.024631
 20
18.651189
 30
0.0
 10
1.013758
 20
18.671039
 30
0.0
 10
0.778768
 20
18.687279
 30
0.0
 10
0.502430
 20
18.687279
 30
0.0
  0
LWPOLYLINE
  5
140
100
AcDbEntity
  8
Layer_1
 62
7
100
AcDbPolyline
 90
3
 70
0
 10
1.620339
 20
13.897407
 30
0.0
 10
1.843675
 20
14.328674
 30
0.0
 10
1.559441
 20
14.584851
 30
0.0
  0
SPLINE
  5
141
100
AcDbEntity
  8
Layer_1
 62
7
100
AcDbSpline
 70
8
 71
3
 72
8
 73
4
 74
0
 40
0
 40
0
 40
0
 40
0
 40
1
 40
1
 40
1
 40
1
 10
1.217181
 20
19.673762
 30
0.0
 10
1.240488
 20
19.779628
 30
0.0
 10
1.320011
 20
20.212718
 30
0.0
 10
1.393899
 20
20.636184
 30
0.0
  0
SPLINE
  5
142
100
AcDbEntity
  8
Layer_1
 62
7
100
AcDbSpline
 70
8
 71
3
 72
8
 73
4
 74
0
 40
0
 40
0
 40
0
 40
0
 40
1
 40
1
 40
1
 40
1
 10
1.393899
 20
20.636184
 30
0.0
 10
1.544787
 20
21.500951
 30
0.0
 10
1.489049
 20
21.435677
 30
0.0
 10
1.986896
 20
21.330640
 30
0.0
  0
LWPOLYLINE
  5
143
100
AcDbEntity
  8
Layer_1
 62
7
100
AcDbPolyline
 90
7
 70
0
 10
0.502430
 20
18.687279
 30
0.0
 10
-0.000001
 20
18.687279
 30
0.0
 10
-0.000001
 20
19.070767
 30
0.0
 10
-0.000001
 20
19.454255
 30
0.0
 10
0.587402
 20
19.467766
 30
0.0
 10
1.174805
 20
19.481277
 30
0.0
 10
1.217181
 20
19.673762
 30
0.0
  0
SPLINE
  5
144
100
AcDbEntity
  8
Layer_1
 62
7
100
AcDbSpline
 70
8
 71
3
 72
8
 73
4
 74
0
 40
0
 40
0
 40
0
 40
0
 40
1
 40
1
 40
1
 40
1
 10
2.234478
 20
21.050264
 30
0.0
 10
2.217420
 20
20.928386
 30
0.0
 10
2.151600
 20
20.542409
 30
0.0
 10
2.088213
 20
20.192537
 30
0.0
  0
SPLINE
  5
145
100
AcDbEntity
  8
Layer_1
 62
7
100
AcDbSpline
 70
8
 71
3
 72
8
 73
4
 74
0
 40
0
 40
0
 40
0
 40
0
 40
1
 40
1
 40
1
 40
1
 10
2.088213
 20
20.192537
 30
0.0
 10
2.024826
 20
19.842665
 30
0.0
 10
1.972964
 20
19.534088
 30
0.0
 10
1.972964
 20
19.506811
 30
0.0
  0
SPLINE
  5
146
100
AcDbEntity
  8
Layer_1
 62
7
100
AcDbSpline
 70
8
 71
3
 72
8
 73
4
 74
0
 40
0
 40
0
 40
0
 40
0
 40
1
 40
1
 40
1
 40
1
 10
1.972964
 20
19.506811
 30
0.0
 10
1.972964
 20
19.474682
 30
0.0
 10
2.265476
 20
19.457217
 30
0.0
 10
2.803609
 20
19.457217
 30
0.0
  0
LWPOLYLINE
  5
147
100
AcDbEntity
  8
Layer_1
 62
7
100
AcDbPolyline
 90
3
 70
0
 10
1.986896
 20
21.330640
 30
0.0
 10
2.265494
 20
21.271860
 30
0.0
 10
2.234478
 20
21.050264
 30
0.0
  0
SPLINE
  5
148
100
AcDbEntity
  8
Layer_1
 62
7
100
AcDbSpline
 70
8
 71
3
 72
8
 73
4
 74
0
 40
0
 40
0
 40
0
 40
0
 40
1
 40
1
 40
1
 40
1
 10
3.598609
 20
18.843673
 30
0.0
 10
3.517140
 20
17.441372
 30
0.0
 10
3.269228
 20
15.944405
 30
0.0
 10
2.961093
 20
14.994154
 30
0.0
  0
LWPOLYLINE
  5
149
100
AcDbEntity
  8
Layer_1
 62
7
100
AcDbPolyline
 90
3
 70
0
 10
2.803609
 20
19.457217
 30
0.0
 10
3.634254
 20
19.457217
 30
0.0
 10
3.598609
 20
18.843673
 30
0.0
  0
SPLINE
  5
14a
100
AcDbEntity
  8
Layer_1
 62
7
100
AcDbSpline
 70
8
 71
3
 72
8
 73
4
 74
0
 40
0
 40
0
 40
0
 40
0
 40
1
 40
1
 40
1
 40
1
 10
3.370477
 20
13.933698
 30
0.0
 10
3.686975
 20
13.632120
 30
0.0
 10
3.945006
 20
13.371065
 30
0.0
 10
3.943877
 20
13.353576
 30
0.0
  0
SPLINE
  5
14b
100
AcDbEntity
  8
Layer_1
 62
7
100
AcDbSpline
 70
8
 71
3
 72
8
 73
4
 74
0
 40
0
 40
0
 40
0
 40
0
 40
1
 40
1
 40
1
 40
1
 10
3.943877
 20
13.353576
 30
0.0
 10
3.942748
 20
13.336087
 30
0.0
 10
3.793135
 20
13.219929
 30
0.0
 10
3.611401
 20
13.095447
 30
0.0
  0
LWPOLYLINE
  5
14c
100
AcDbEntity
  8
Layer_1
 62
7
100
AcDbPolyline
 90
3
 70
0
 10
2.961093
 20
14.994154
 30
0.0
 10
2.795026
 20
14.482021
 30
0.0
 10
3.370477
 20
13.933698
 30
0.0
  0
SPLINE
  5
14d
100
AcDbEntity
  8
Layer_1
 62
7
100
AcDbSpline
 70
8
 71
3
 72
8
 73
4
 74
0
 40
0
 40
0
 40
0
 40
0
 40
1
 40
1
 40
1
 40
1
 10
2.239647
 20
13.311032
 30
0.0
 10
1.811578
 20
12.591399
 30
0.0
 10
1.227435
 20
11.901597
 30
0.0
 10
0.688158
 20
11.478911
 30
0.0
  0
LWPOLYLINE
  5
14e
100
AcDbEntity
  8
Layer_1
 62
7
100
AcDbPolyline
 90
5
 70
0
 10
3.611401
 20
13.095447
 30
0.0
 10
3.280976
 20
12.869115
 30
0.0
 10
2.874844
 20
13.282616
 30
0.0
 10
2.468711
 20
13.696116
 30
0.0
 10
2.239647
 20
13.311032
 30
0.0
  0
SPLINE
  5
14f
100
AcDbEntity
  8
Layer_1
 62
7
100
AcDbSpline
 70
8
 71
3
 72
8
 73
4
 74
0
 40
0
 40
0
 40
0
 40
0
 40
1
 40
1
 40
1
 40
1
 10
2.275226
 20
15.547378
 30
0.0
 10
2.481977
 20
16.291466
 30
0.0
 10
2.742628
 20
17.954478
 30
0.0
 10
2.742843
 20
18.530886
 30
0.0
  0
LWPOLYLINE
  5
150
100
AcDbEntity
  8
Layer_1
 62
7
100
AcDbPolyline
 90
5
 70
0
 10
0.688158
 20
11.478911
 30
0.0
 10
0.486076
 20
11.320519
 30
0.0
 10
0.268427
 20
11.644958
 30
0.0
 10
0.268427
 20
11.644958
 30
0.0
 10
0.268427
 20
11.644958
 30
0.0
  0
SPLINE
  5
151
100
AcDbEntity
  8
Layer_1
 62
7
100
AcDbSpline
 70
8
 71
3
 72
8
 73
4
 74
0
 40
0
 40
0
 40
0
 40
0
 40
1
 40
1
 40
1
 40
1
 10
1.779978
 20
18.410583
 30
0.0
 10
1.749483
 20
18.258400
 30
0.0
 10
1.617111
 20
17.646661
 30
0.0
 10
1.485820
 20
17.051162
 30
0.0
  0
SPLINE
  5
152
100
AcDbEntity
  8
Layer_1
 62
7
100
AcDbSpline
 70
8
 71
3
 72
8
 73
4
 74
0
 40
0
 40
0
 40
0
 40
0
 40
1
 40
1
 40
1
 40
1
 10
1.485820
 20
17.051162
 30
0.0
 10
1.354528
 20
16.455664
 30
0.0
 10
1.242603
 20
15.929646
 30
0.0
 10
1.237097
 20
15.882235
 30
0.0
  0
SPLINE
  5
153
100
AcDbEntity
  8
Layer_1
 62
7
100
AcDbSpline
 70
8
 71
3
 72
8
 73
4
 74
0
 40
0
 40
0
 40
0
 40
0
 40
1
 40
1
 40
1
 40
1
 10
1.237097
 20
15.882235
 30
0.0
 10
1.230545
 20
15.825810
 30
0.0
 10
1.376692
 20
15.673043
 30
0.0
 10
1.660177
 20
15.439992
 30
0.0
  0
SPLINE
  5
154
100
AcDbEntity
  8
Layer_1
 62
7
100
AcDbSpline
 70
8
 71
3
 72
8
 73
4
 74
0
 40
0
 40
0
 40
0
 40
0
 40
1
 40
1
 40
1
 40
1
 10
1.660177
 20
15.439992
 30
0.0
 10
1.898376
 20
15.244170
 30
0.0
 10
2.104875
 20
15.082658
 30
0.0
 10
2.119063
 20
15.081075
 30
0.0
  0
SPLINE
  5
155
100
AcDbEntity
  8
Layer_1
 62
7
100
AcDbSpline
 70
8
 71
3
 72
8
 73
4
 74
0
 40
0
 40
0
 40
0
 40
0
 40
1
 40
1
 40
1
 40
1
 10
2.119063
 20
15.081075
 30
0.0
 10
2.133251
 20
15.079495
 30
0.0
 10
2.203524
 20
15.289329
 30
0.0
 10
2.275226
 20
15.547378
 30
0.0
  0
LWPOLYLINE
  5
156
100
AcDbEntity
  8
Layer_1
 62
7
100
AcDbPolyline
 90
5
 70
0
 10
2.742843
 20
18.530886
 30
0.0
 10
2.742901
 20
18.687279
 30
0.0
 10
2.289162
 20
18.687279
 30
0.0
 10
1.835424
 20
18.687279
 30
0.0
 10
1.779978
 20
18.410583
 30
0.0
  0
LWPOLYLINE
  5
157
100
AcDbEntity
  8
Layer_1
 62
7
100
AcDbPolyline
 90
2
 70
0
 10
2.275226
 20
15.547378
 30
0.0
 10
2.275226
 20
15.547378
 30
0.0
  0
SPLINE
  5
158
100
AcDbEntity
  8
Layer_1
 62
7
100
AcDbSpline
 70
8
 71
3
 72
8
 73
4
 74
0
 40
0
 40
0
 40
0
 40
0
 40
1
 40
1
 40
1
 40
1
 10
6.207620
 20
15.077994
 30
0.0
 10
5.809262
 20
14.155373
 30
0.0
 10
5.163844
 20
13.097550
 30
0.0
 10
4.485207
 20
12.255003
 30
0.0
  0
LWPOLYLINE
  5
159
100
AcDbEntity
  8
Layer_1
 62
7
100
AcDbPolyline
 90
3
 70
0
 10
6.436696
 20
13.452139
 30
0.0
 10
6.424165
 20
15.579525
 30
0.0
 10
6.207620
 20
15.077994
 30
0.0
  0
SPLINE
  5
15a
100
AcDbEntity
  8
Layer_1
 62
7
100
AcDbSpline
 70
8
 71
3
 72
8
 73
4
 74
0
 40
0
 40
0
 40
0
 40
0
 40
1
 40
1
 40
1
 40
1
 10
3.847596
 20
12.935193
 30
0.0
 10
4.329683
 20
13.509726
 30
0.0
 10
4.683745
 20
14.019560
 30
0.0
 10
5.068492
 20
14.693229
 30
0.0
  0
SPLINE
  5
15b
100
AcDbEntity
  8
Layer_1
 62
7
100
AcDbSpline
 70
8
 71
3
 72
8
 73
4
 74
0
 40
0
 40
0
 40
0
 40
0
 40
1
 40
1
 40
1
 40
1
 10
5.068492
 20
14.693229
 30
0.0
 10
5.372854
 20
15.226148
 30
0.0
 10
5.781666
 20
16.114792
 30
0.0
 10
5.848844
 20
16.389497
 30
0.0
  0
LWPOLYLINE
  5
15c
100
AcDbEntity
  8
Layer_1
 62
7
100
AcDbPolyline
 90
5
 70
0
 10
4.485207
 20
12.255003
 30
0.0
 10
4.168598
 20
11.861924
 30
0.0
 10
3.825718
 20
12.181206
 30
0.0
 10
3.482838
 20
12.500489
 30
0.0
 10
3.847596
 20
12.935193
 30
0.0
  0
SPLINE
  5
15d
100
AcDbEntity
  8
Layer_1
 62
7
100
AcDbSpline
 70
8
 71
3
 72
8
 73
4
 74
0
 40
0
 40
0
 40
0
 40
0
 40
1
 40
1
 40
1
 40
1
 10
8.854280
 20
16.521830
 30
0.0
 10
8.219082
 20
16.521830
 30
0.0
 10
7.699374
 20
16.510522
 30
0.0
 10
7.699374
 20
16.496701
 30
0.0
  0
SPLINE
  5
15e
100
AcDbEntity
  8
Layer_1
 62
7
100
AcDbSpline
 70
8
 71
3
 72
8
 73
4
 74
0
 40
0
 40
0
 40
0
 40
0
 40
1
 40
1
 40
1
 40
1
 10
7.699374
 20
16.496701
 30
0.0
 10
7.699374
 20
16.444953
 30
0.0
 10
8.090587
 20
15.696093
 30
0.0
 10
8.331586
 20
15.286523
 30
0.0
  0
SPLINE
  5
15f
100
AcDbEntity
  8
Layer_1
 62
7
100
AcDbSpline
 70
8
 71
3
 72
8
 73
4
 74
0
 40
0
 40
0
 40
0
 40
0
 40
1
 40
1
 40
1
 40
1
 10
8.331586
 20
15.286523
 30
0.0
 10
8.824988
 20
14.448000
 30
0.0
 10
9.411058
 20
13.609534
 30
0.0
 10
9.944496
 20
12.979000
 30
0.0
  0
LWPOLYLINE
  5
160
100
AcDbEntity
  8
Layer_1
 62
7
100
AcDbPolyline
 90
35
 70
0
 10
5.848844
 20
16.389497
 30
0.0
 10
5.881206
 20
16.521830
 30
0.0
 10
4.985749
 20
16.521830
 30
0.0
 10
4.090292
 20
16.521830
 30
0.0
 10
4.090292
 20
16.906799
 30
0.0
 10
4.090292
 20
17.291768
 30
0.0
 10
5.269259
 20
17.291768
 30
0.0
 10
6.448225
 20
17.291768
 30
0.0
 10
6.448225
 20
18.133887
 30
0.0
 10
6.448225
 20
18.976006
 30
0.0
 10
5.461743
 20
18.976006
 30
0.0
 10
4.475261
 20
18.976006
 30
0.0
 10
4.475261
 20
19.360975
 30
0.0
 10
4.475261
 20
19.745943
 30
0.0
 10
5.461743
 20
19.745943
 30
0.0
 10
6.448225
 20
19.745943
 30
0.0
 10
6.448225
 20
20.588063
 30
0.0
 10
6.448225
 20
21.430182
 30
0.0
 10
6.881315
 20
21.430182
 30
0.0
 10
7.314405
 20
21.430182
 30
0.0
 10
7.314405
 20
20.588063
 30
0.0
 10
7.314405
 20
19.745943
 30
0.0
 10
8.397130
 20
19.745943
 30
0.0
 10
9.479854
 20
19.745943
 30
0.0
 10
9.479854
 20
19.360975
 30
0.0
 10
9.479854
 20
18.976006
 30
0.0
 10
8.397130
 20
18.976006
 30
0.0
 10
7.314405
 20
18.976006
 30
0.0
 10
7.314405
 20
18.133887
 30
0.0
 10
7.314405
 20
17.291768
 30
0.0
 10
8.661796
 20
17.291768
 30
0.0
 10
10.009186
 20
17.291768
 30
0.0
 10
10.009186
 20
16.906799
 30
0.0
 10
10.009186
 20
16.521830
 30
0.0
 10
8.854280
 20
16.521830
 30
0.0
  0
SPLINE
  5
161
100
AcDbEntity
  8
Layer_1
 62
7
100
AcDbSpline
 70
8
 71
3
 72
8
 73
4
 74
0
 40
0
 40
0
 40
0
 40
0
 40
1
 40
1
 40
1
 40
1
 10
9.566110
 20
12.008712
 30
0.0
 10
8.944583
 20
12.811004
 30
0.0
 10
8.243578
 20
13.921373
 30
0.0
 10
7.658643
 20
15.030076
 30
0.0
  0
LWPOLYLINE
  5
162
100
AcDbEntity
  8
Layer_1
 62
7
100
AcDbPolyline
 90
5
 70
0
 10
9.944496
 20
12.979000
 30
0.0
 10
10.193778
 20
12.684343
 30
0.0
 10
9.922567
 20
12.291509
 30
0.0
 10
9.651355
 20
11.898674
 30
0.0
 10
9.566110
 20
12.008712
 30
0.0
  0
SPLINE
  5
163
100
AcDbEntity
  8
Layer_1
 62
7
100
AcDbSpline
 70
8
 71
3
 72
8
 73
4
 74
0
 40
0
 40
0
 40
0
 40
0
 40
1
 40
1
 40
1
 40
1
 10
28.571898
 20
11.501307
 30
0.0
 10
28.393249
 20
11.569011
 30
0.0
 10
28.247080
 20
11.644320
 30
0.0
 10
28.247080
 20
11.668662
 30
0.0
  0
SPLINE
  5
164
100
AcDbEntity
  8
Layer_1
 62
7
100
AcDbSpline
 70
8
 71
3
 72
8
 73
4
 74
0
 40
0
 40
0
 40
0
 40
0
 40
1
 40
1
 40
1
 40
1
 10
28.247080
 20
11.668662
 30
0.0
 10
28.247080
 20
11.693004
 30
0.0
 10
28.300609
 20
11.818553
 30
0.0
 10
28.366034
 20
11.947660
 30
0.0
  0
SPLINE
  5
165
100
AcDbEntity
  8
Layer_1
 62
7
100
AcDbSpline
 70
8
 71
3
 72
8
 73
4
 74
0
 40
0
 40
0
 40
0
 40
0
 40
1
 40
1
 40
1
 40
1
 10
28.366034
 20
11.947660
 30
0.0
 10
28.515889
 20
12.243385
 30
0.0
 10
28.661137
 20
12.757246
 30
0.0
 10
28.761241
 20
13.345838
 30
0.0
  0
SPLINE
  5
166
100
AcDbEntity
  8
Layer_1
 62
7
100
AcDbSpline
 70
8
 71
3
 72
8
 73
4
 74
0
 40
0
 40
0
 40
0
 40
0
 40
1
 40
1
 40
1
 40
1
 10
28.761241
 20
13.345838
 30
0.0
 10
28.824149
 20
13.715698
 30
0.0
 10
28.843010
 20
14.306057
 30
0.0
 10
28.860025
 20
16.437618
 30
0.0
  0
LWPOLYLINE
  5
167
100
AcDbEntity
  8
Layer_1
 62
7
100
AcDbPolyline
 90
8
 70
0
 10
7.658643
 20
15.030076
 30
0.0
 10
7.315906
 20
15.679711
 30
0.0
 10
7.315144
 20
13.502231
 30
0.0
 10
7.314382
 20
11.324752
 30
0.0
 10
6.881793
 20
11.324752
 30
0.0
 10
6.449203
 20
11.324752
 30
0.0
 10
6.436673
 20
13.452138
 30
0.0
 10
6.436696
 20
13.452139
 30
0.0
  0
SPLINE
  5
168
100
AcDbEntity
  8
Layer_1
 62
7
100
AcDbSpline
 70
8
 71
3
 72
8
 73
4
 74
0
 40
0
 40
0
 40
0
 40
0
 40
1
 40
1
 40
1
 40
1
 10
31.663674
 20
15.533802
 30
0.0
 10
31.663674
 20
11.717654
 30
0.0
 10
31.669770
 20
11.812893
 30
0.0
 10
31.409787
 20
11.573301
 30
0.0
  0
SPLINE
  5
169
100
AcDbEntity
  8
Layer_1
 62
7
100
AcDbSpline
 70
8
 71
3
 72
8
 73
4
 74
0
 40
0
 40
0
 40
0
 40
0
 40
1
 40
1
 40
1
 40
1
 10
31.409787
 20
11.573301
 30
0.0
 10
31.228659
 20
11.406384
 30
0.0
 10
30.955392
 20
11.362564
 30
0.0
 10
30.469493
 20
11.422521
 30
0.0
  0
SPLINE
  5
16a
100
AcDbEntity
  8
Layer_1
 62
7
100
AcDbSpline
 70
8
 71
3
 72
8
 73
4
 74
0
 40
0
 40
0
 40
0
 40
0
 40
1
 40
1
 40
1
 40
1
 10
30.469493
 20
11.422521
 30
0.0
 10
29.772424
 20
11.508534
 30
0.0
 10
29.816953
 20
11.476887
 30
0.0
 10
29.760822
 20
11.926150
 30
0.0
  0
LWPOLYLINE
  5
16b
100
AcDbEntity
  8
Layer_1
 62
7
100
AcDbPolyline
 90
5
 70
0
 10
28.860025
 20
16.437618
 30
0.0
 10
28.881050
 20
19.072248
 30
0.0
 10
30.272361
 20
19.072248
 30
0.0
 10
31.663674
 20
19.072248
 30
0.0
 10
31.663674
 20
15.533802
 30
0.0
  0
SPLINE
  5
16c
100
AcDbEntity
  8
Layer_1
 62
7
100
AcDbSpline
 70
8
 71
3
 72
8
 73
4
 74
0
 40
0
 40
0
 40
0
 40
0
 40
1
 40
1
 40
1
 40
1
 10
29.960931
 20
12.172462
 30
0.0
 10
30.090209
 20
12.154135
 30
0.0
 10
30.334517
 20
12.125707
 30
0.0
 10
30.503839
 20
12.109291
 30
0.0
  0
SPLINE
  5
16d
100
AcDbEntity
  8
Layer_1
 62
7
100
AcDbSpline
 70
8
 71
3
 72
8
 73
4
 74
0
 40
0
 40
0
 40
0
 40
0
 40
1
 40
1
 40
1
 40
1
 10
30.503839
 20
12.109291
 30
0.0
 10
30.947078
 20
12.066322
 30
0.0
 10
30.941857
 20
12.053191
 30
0.0
 10
30.941857
 20
13.210672
 30
0.0
  0
LWPOLYLINE
  5
16e
100
AcDbEntity
  8
Layer_1
 62
7
100
AcDbPolyline
 90
3
 70
0
 10
29.760822
 20
11.926150
 30
0.0
 10
29.725882
 20
12.205788
 30
0.0
 10
29.960931
 20
12.172462
 30
0.0
  0
SPLINE
  5
16f
100
AcDbEntity
  8
Layer_1
 62
7
100
AcDbSpline
 70
8
 71
3
 72
8
 73
4
 74
0
 40
0
 40
0
 40
0
 40
0
 40
1
 40
1
 40
1
 40
1
 10
29.594183
 20
13.911261
 30
0.0
 10
29.593901
 20
13.572382
 30
0.0
 10
29.471363
 20
12.777500
 30
0.0
 10
29.352994
 20
12.345473
 30
0.0
  0
SPLINE
  5
170
100
AcDbEntity
  8
Layer_1
 62
7
100
AcDbSpline
 70
8
 71
3
 72
8
 73
4
 74
0
 40
0
 40
0
 40
0
 40
0
 40
1
 40
1
 40
1
 40
1
 10
29.352994
 20
12.345473
 30
0.0
 10
29.245128
 20
11.951786
 30
0.0
 10
28.995531
 20
11.371468
 30
0.0
 10
28.935821
 20
11.375541
 30
0.0
  0
SPLINE
  5
171
100
AcDbEntity
  8
Layer_1
 62
7
100
AcDbSpline
 70
8
 71
3
 72
8
 73
4
 74
0
 40
0
 40
0
 40
0
 40
0
 40
1
 40
1
 40
1
 40
1
 10
28.935821
 20
11.375541
 30
0.0
 10
28.914316
 20
11.377009
 30
0.0
 10
28.750545
 20
11.433603
 30
0.0
 10
28.571896
 20
11.501307
 30
0.0
  0
LWPOLYLINE
  5
172
100
AcDbEntity
  8
Layer_1
 62
7
100
AcDbPolyline
 90
5
 70
0
 10
30.941857
 20
13.210672
 30
0.0
 10
30.941857
 20
14.163897
 30
0.0
 10
30.268161
 20
14.163897
 30
0.0
 10
29.594466
 20
14.163897
 30
0.0
 10
29.594183
 20
13.911261
 30
0.0
  0
LWPOLYLINE
  5
173
100
AcDbEntity
  8
Layer_1
 62
7
100
AcDbPolyline
 90
2
 70
0
 10
28.571896
 20
11.501307
 30
0.0
 10
28.571898
 20
11.501307
 30
0.0
  0
LWPOLYLINE
  5
174
100
AcDbEntity
  8
Layer_1
 62
7
100
AcDbPolyline
 90
10
 70
0
 10
30.941862
 20
15.511287
 30
0.0
 10
30.941862
 20
16.136862
 30
0.0
 10
30.268167
 20
16.136862
 30
0.0
 10
29.594471
 20
16.136862
 30
0.0
 10
29.594471
 20
15.511287
 30
0.0
 10
29.594471
 20
14.885713
 30
0.0
 10
30.268167
 20
14.885713
 30
0.0
 10
30.941862
 20
14.885713
 30
0.0
 10
30.941862
 20
15.511287
 30
0.0
 10
30.941862
 20
15.511287
 30
0.0
  0
LWPOLYLINE
  5
175
100
AcDbEntity
  8
Layer_1
 62
7
100
AcDbPolyline
 90
10
 70
0
 10
30.941862
 20
17.604555
 30
0.0
 10
30.941862
 20
18.350432
 30
0.0
 10
30.268167
 20
18.350432
 30
0.0
 10
29.594471
 20
18.350432
 30
0.0
 10
29.594471
 20
17.604555
 30
0.0
 10
29.594471
 20
16.858678
 30
0.0
 10
30.268167
 20
16.858678
 30
0.0
 10
30.941862
 20
16.858678
 30
0.0
 10
30.941862
 20
17.604555
 30
0.0
 10
30.941862
 20
17.604555
 30
0.0
  0
SPLINE
  5
176
100
AcDbEntity
  8
Layer_1
 62
7
100
AcDbSpline
 70
8
 71
3
 72
8
 73
4
 74
0
 40
0
 40
0
 40
0
 40
0
 40
1
 40
1
 40
1
 40
1
 10
32.333074
 20
14.791920
 30
0.0
 10
32.751364
 20
15.071857
 30
0.0
 10
33.396039
 20
15.627468
 30
0.0
 10
33.396039
 20
15.708035
 30
0.0
  0
SPLINE
  5
177
100
AcDbEntity
  8
Layer_1
 62
7
100
AcDbSpline
 70
8
 71
3
 72
8
 73
4
 74
0
 40
0
 40
0
 40
0
 40
0
 40
1
 40
1
 40
1
 40
1
 10
33.396039
 20
15.708035
 30
0.0
 10
33.396039
 20
15.732481
 30
0.0
 10
33.076577
 20
15.751893
 30
0.0
 10
32.674221
 20
15.751893
 30
0.0
  0
LWPOLYLINE
  5
178
100
AcDbEntity
  8
Layer_1
 62
7
100
AcDbPolyline
 90
3
 70
0
 10
32.082452
 20
14.192557
 30
0.0
 10
31.919743
 20
14.515304
 30
0.0
 10
32.333074
 20
14.791920
 30
0.0
  0
SPLINE
  5
179
100
AcDbEntity
  8
Layer_1
 62
7
100
AcDbSpline
 70
8
 71
3
 72
8
 73
4
 74
0
 40
0
 40
0
 40
0
 40
0
 40
1
 40
1
 40
1
 40
1
 10
34.548871
 20
17.953433
 30
0.0
 10
34.576698
 20
18.052683
 30
0.0
 10
34.636154
 20
18.393741
 30
0.0
 10
34.681019
 20
18.711340
 30
0.0
  0
SPLINE
  5
17a
100
AcDbEntity
  8
Layer_1
 62
7
100
AcDbSpline
 70
8
 71
3
 72
8
 73
4
 74
0
 40
0
 40
0
 40
0
 40
0
 40
1
 40
1
 40
1
 40
1
 10
34.681019
 20
18.711340
 30
0.0
 10
34.725887
 20
19.028939
 30
0.0
 10
34.765968
 20
19.294672
 30
0.0
 10
34.770088
 20
19.301858
 30
0.0
  0
SPLINE
  5
17b
100
AcDbEntity
  8
Layer_1
 62
7
100
AcDbSpline
 70
8
 71
3
 72
8
 73
4
 74
0
 40
0
 40
0
 40
0
 40
0
 40
1
 40
1
 40
1
 40
1
 10
34.770088
 20
19.301858
 30
0.0
 10
34.793654
 20
19.342967
 30
0.0
 10
35.465244
 20
19.140019
 30
0.0
 10
35.465244
 20
19.091787
 30
0.0
  0
SPLINE
  5
17c
100
AcDbEntity
  8
Layer_1
 62
7
100
AcDbSpline
 70
8
 71
3
 72
8
 73
4
 74
0
 40
0
 40
0
 40
0
 40
0
 40
1
 40
1
 40
1
 40
1
 10
35.465244
 20
19.091787
 30
0.0
 10
35.465244
 20
19.059834
 30
0.0
 10
35.421937
 20
18.780361
 30
0.0
 10
35.369003
 20
18.470734
 30
0.0
  0
SPLINE
  5
17d
100
AcDbEntity
  8
Layer_1
 62
7
100
AcDbSpline
 70
8
 71
3
 72
8
 73
4
 74
0
 40
0
 40
0
 40
0
 40
0
 40
1
 40
1
 40
1
 40
1
 10
35.369003
 20
18.470734
 30
0.0
 10
35.316070
 20
18.161108
 30
0.0
 10
35.272760
 20
17.877448
 30
0.0
 10
35.272760
 20
17.840378
 30
0.0
  0
SPLINE
  5
17e
100
AcDbEntity
  8
Layer_1
 62
7
100
AcDbSpline
 70
8
 71
3
 72
8
 73
4
 74
0
 40
0
 40
0
 40
0
 40
0
 40
1
 40
1
 40
1
 40
1
 10
35.272760
 20
17.840378
 30
0.0
 10
35.272760
 20
17.784257
 30
0.0
 10
35.490175
 20
17.772979
 30
0.0
 10
36.572029
 20
17.772979
 30
0.0
  0
LWPOLYLINE
  5
17f
100
AcDbEntity
  8
Layer_1
 62
7
100
AcDbPolyline
 90
15
 70
0
 10
32.674221
 20
15.751893
 30
0.0
 10
31.952404
 20
15.751893
 30
0.0
 10
31.952404
 20
16.088740
 30
0.0
 10
31.952404
 20
16.425588
 30
0.0
 10
32.955783
 20
16.425588
 30
0.0
 10
33.959162
 20
16.425588
 30
0.0
 10
34.107944
 20
16.762436
 30
0.0
 10
34.256726
 20
17.099283
 30
0.0
 10
33.248927
 20
17.099283
 30
0.0
 10
32.241132
 20
17.099283
 30
0.0
 10
32.241132
 20
17.436131
 30
0.0
 10
32.241132
 20
17.772979
 30
0.0
 10
33.369716
 20
17.772979
 30
0.0
 10
34.498300
 20
17.772979
 30
0.0
 10
34.548871
 20
17.953433
 30
0.0
  0
SPLINE
  5
180
100
AcDbEntity
  8
Layer_1
 62
7
100
AcDbSpline
 70
8
 71
3
 72
8
 73
4
 74
0
 40
0
 40
0
 40
0
 40
0
 40
1
 40
1
 40
1
 40
1
 10
34.907429
 20
16.790354
 30
0.0
 10
34.843695
 20
16.633675
 30
0.0
 10
34.791548
 20
16.487507
 30
0.0
 10
34.791548
 20
16.465537
 30
0.0
  0
SPLINE
  5
181
100
AcDbEntity
  8
Layer_1
 62
7
100
AcDbSpline
 70
8
 71
3
 72
8
 73
4
 74
0
 40
0
 40
0
 40
0
 40
0
 40
1
 40
1
 40
1
 40
1
 10
34.791548
 20
16.465537
 30
0.0
 10
34.791548
 20
16.443566
 30
0.0
 10
35.549456
 20
16.425590
 30
0.0
 10
36.475789
 20
16.425590
 30
0.0
  0
LWPOLYLINE
  5
182
100
AcDbEntity
  8
Layer_1
 62
7
100
AcDbPolyline
 90
7
 70
0
 10
36.572029
 20
17.772979
 30
0.0
 10
37.871298
 20
17.772979
 30
0.0
 10
37.871298
 20
17.436847
 30
0.0
 10
37.871298
 20
17.100715
 30
0.0
 10
36.447304
 20
17.087970
 30
0.0
 10
35.023306
 20
17.075225
 30
0.0
 10
34.907429
 20
16.790354
 30
0.0
  0
SPLINE
  5
183
100
AcDbEntity
  8
Layer_1
 62
7
100
AcDbSpline
 70
8
 71
3
 72
8
 73
4
 74
0
 40
0
 40
0
 40
0
 40
0
 40
1
 40
1
 40
1
 40
1
 10
37.462271
 20
15.751895
 30
0.0
 10
37.078505
 20
15.751895
 30
0.0
 10
36.764513
 20
15.734750
 30
0.0
 10
36.764513
 20
15.713793
 30
0.0
  0
SPLINE
  5
184
100
AcDbEntity
  8
Layer_1
 62
7
100
AcDbSpline
 70
8
 71
3
 72
8
 73
4
 74
0
 40
0
 40
0
 40
0
 40
0
 40
1
 40
1
 40
1
 40
1
 10
36.764513
 20
15.713793
 30
0.0
 10
36.764513
 20
15.637328
 30
0.0
 10
37.180878
 20
15.272160
 30
0.0
 10
37.456240
 20
15.107123
 30
0.0
  0
SPLINE
  5
185
100
AcDbEntity
  8
Layer_1
 62
7
100
AcDbSpline
 70
8
 71
3
 72
8
 73
4
 74
0
 40
0
 40
0
 40
0
 40
0
 40
1
 40
1
 40
1
 40
1
 10
37.456240
 20
15.107123
 30
0.0
 10
37.611722
 20
15.013935
 30
0.0
 10
37.882404
 20
14.890615
 30
0.0
 10
38.057754
 20
14.833079
 30
0.0
  0
SPLINE
  5
186
100
AcDbEntity
  8
Layer_1
 62
7
100
AcDbSpline
 70
8
 71
3
 72
8
 73
4
 74
0
 40
0
 40
0
 40
0
 40
0
 40
1
 40
1
 40
1
 40
1
 10
38.057754
 20
14.833079
 30
0.0
 10
38.233104
 20
14.775543
 30
0.0
 10
38.392193
 20
14.719645
 30
0.0
 10
38.411285
 20
14.708861
 30
0.0
  0
SPLINE
  5
187
100
AcDbEntity
  8
Layer_1
 62
7
100
AcDbSpline
 70
8
 71
3
 72
8
 73
4
 74
0
 40
0
 40
0
 40
0
 40
0
 40
1
 40
1
 40
1
 40
1
 10
38.411285
 20
14.708861
 30
0.0
 10
38.459021
 20
14.681897
 30
0.0
 10
38.102822
 20
13.971414
 30
0.0
 10
38.041572
 20
13.971414
 30
0.0
  0
SPLINE
  5
188
100
AcDbEntity
  8
Layer_1
 62
7
100
AcDbSpline
 70
8
 71
3
 72
8
 73
4
 74
0
 40
0
 40
0
 40
0
 40
0
 40
1
 40
1
 40
1
 40
1
 10
38.041572
 20
13.971414
 30
0.0
 10
38.014506
 20
13.971414
 30
0.0
 10
37.790309
 20
14.071680
 30
0.0
 10
37.543382
 20
14.194227
 30
0.0
  0
SPLINE
  5
189
100
AcDbEntity
  8
Layer_1
 62
7
100
AcDbSpline
 70
8
 71
3
 72
8
 73
4
 74
0
 40
0
 40
0
 40
0
 40
0
 40
1
 40
1
 40
1
 40
1
 10
37.543382
 20
14.194227
 30
0.0
 10
36.991087
 20
14.468323
 30
0.0
 10
36.485807
 20
14.937036
 30
0.0
 10
36.214349
 20
15.427077
 30
0.0
  0
LWPOLYLINE
  5
18a
100
AcDbEntity
  8
Layer_1
 62
7
100
AcDbPolyline
 90
5
 70
0
 10
36.475789
 20
16.425590
 30
0.0
 10
38.160026
 20
16.425590
 30
0.0
 10
38.160026
 20
16.088743
 30
0.0
 10
38.160026
 20
15.751895
 30
0.0
 10
37.462271
 20
15.751895
 30
0.0
  0
SPLINE
  5
18b
100
AcDbEntity
  8
Layer_1
 62
7
100
AcDbSpline
 70
8
 71
3
 72
8
 73
4
 74
0
 40
0
 40
0
 40
0
 40
0
 40
1
 40
1
 40
1
 40
1
 10
34.203742
 20
15.523320
 30
0.0
 10
33.819857
 20
15.020464
 30
0.0
 10
33.051936
 20
14.353302
 30
0.0
 10
32.423600
 20
13.976749
 30
0.0
  0
LWPOLYLINE
  5
18c
100
AcDbEntity
  8
Layer_1
 62
7
100
AcDbPolyline
 90
5
 70
0
 10
36.214349
 20
15.427077
 30
0.0
 10
36.034416
 20
15.751895
 30
0.0
 10
35.206325
 20
15.751895
 30
0.0
 10
34.378237
 20
15.751895
 30
0.0
 10
34.203742
 20
15.523320
 30
0.0
  0
SPLINE
  5
18d
100
AcDbEntity
  8
Layer_1
 62
7
100
AcDbSpline
 70
8
 71
3
 72
8
 73
4
 74
0
 40
0
 40
0
 40
0
 40
0
 40
1
 40
1
 40
1
 40
1
 10
33.348730
 20
13.681077
 30
0.0
 10
33.270066
 20
13.836905
 30
0.0
 10
33.181629
 20
13.979282
 30
0.0
 10
33.152201
 20
13.997470
 30
0.0
  0
SPLINE
  5
18e
100
AcDbEntity
  8
Layer_1
 62
7
100
AcDbSpline
 70
8
 71
3
 72
8
 73
4
 74
0
 40
0
 40
0
 40
0
 40
0
 40
1
 40
1
 40
1
 40
1
 10
33.152201
 20
13.997470
 30
0.0
 10
33.120663
 20
14.016963
 30
0.0
 10
33.213043
 20
14.106472
 30
0.0
 10
33.377211
 20
14.215493
 30
0.0
  0
SPLINE
  5
18f
100
AcDbEntity
  8
Layer_1
 62
7
100
AcDbSpline
 70
8
 71
3
 72
8
 73
4
 74
0
 40
0
 40
0
 40
0
 40
0
 40
1
 40
1
 40
1
 40
1
 10
33.377211
 20
14.215493
 30
0.0
 10
33.596789
 20
14.361309
 30
0.0
 10
33.669944
 20
14.388649
 30
0.0
 10
33.722914
 20
14.344689
 30
0.0
  0
SPLINE
  5
190
100
AcDbEntity
  8
Layer_1
 62
7
100
AcDbSpline
 70
8
 71
3
 72
8
 73
4
 74
0
 40
0
 40
0
 40
0
 40
0
 40
1
 40
1
 40
1
 40
1
 10
33.722914
 20
14.344689
 30
0.0
 10
33.790450
 20
14.288638
 30
0.0
 10
34.068439
 20
13.829429
 30
0.0
 10
34.069282
 20
13.772522
 30
0.0
  0
SPLINE
  5
191
100
AcDbEntity
  8
Layer_1
 62
7
100
AcDbSpline
 70
8
 71
3
 72
8
 73
4
 74
0
 40
0
 40
0
 40
0
 40
0
 40
1
 40
1
 40
1
 40
1
 10
34.069282
 20
13.772522
 30
0.0
 10
34.069531
 20
13.755766
 30
0.0
 10
33.939686
 20
13.664587
 30
0.0
 10
33.780741
 20
13.569904
 30
0.0
  0
LWPOLYLINE
  5
192
100
AcDbEntity
  8
Layer_1
 62
7
100
AcDbPolyline
 90
5
 70
0
 10
32.423600
 20
13.976749
 30
0.0
 10
32.245162
 20
13.869813
 30
0.0
 10
32.082452
 20
14.192559
 30
0.0
 10
32.082452
 20
14.192559
 30
0.0
 10
32.082452
 20
14.192557
 30
0.0
  0
LWPOLYLINE
  5
193
100
AcDbEntity
  8
Layer_1
 62
7
100
AcDbPolyline
 90
4
 70
0
 10
33.780741
 20
13.569904
 30
0.0
 10
33.491751
 20
13.397753
 30
0.0
 10
33.348730
 20
13.681077
 30
0.0
 10
33.348730
 20
13.681077
 30
0.0
  0
SPLINE
  5
194
100
AcDbEntity
  8
Layer_1
 62
7
100
AcDbSpline
 70
8
 71
3
 72
8
 73
4
 74
0
 40
0
 40
0
 40
0
 40
0
 40
1
 40
1
 40
1
 40
1
 10
32.269216
 20
12.673672
 30
0.0
 10
32.335504
 20
12.698875
 30
0.0
 10
32.448333
 20
12.733933
 30
0.0
 10
32.519950
 20
12.751578
 30
0.0
  0
SPLINE
  5
195
100
AcDbEntity
  8
Layer_1
 62
7
100
AcDbSpline
 70
8
 71
3
 72
8
 73
4
 74
0
 40
0
 40
0
 40
0
 40
0
 40
1
 40
1
 40
1
 40
1
 10
32.519950
 20
12.751578
 30
0.0
 10
32.631380
 20
12.779033
 30
0.0
 10
33.990607
 20
13.271006
 30
0.0
 10
34.220678
 20
13.367157
 30
0.0
  0
SPLINE
  5
196
100
AcDbEntity
  8
Layer_1
 62
7
100
AcDbSpline
 70
8
 71
3
 72
8
 73
4
 74
0
 40
0
 40
0
 40
0
 40
0
 40
1
 40
1
 40
1
 40
1
 10
34.220678
 20
13.367157
 30
0.0
 10
34.283653
 20
13.393477
 30
0.0
 10
34.319120
 20
13.341796
 30
0.0
 10
34.397634
 20
13.109302
 30
0.0
  0
LWPOLYLINE
  5
197
100
AcDbEntity
  8
Layer_1
 62
7
100
AcDbPolyline
 90
3
 70
0
 10
32.298318
 20
12.289088
 30
0.0
 10
32.148690
 20
12.627849
 30
0.0
 10
32.269216
 20
12.673672
 30
0.0
  0
SPLINE
  5
198
100
AcDbEntity
  8
Layer_1
 62
7
100
AcDbSpline
 70
8
 71
3
 72
8
 73
4
 74
0
 40
0
 40
0
 40
0
 40
0
 40
1
 40
1
 40
1
 40
1
 10
33.909844
 20
12.534535
 30
0.0
 10
33.363397
 20
12.269702
 30
0.0
 10
32.587444
 20
11.950326
 30
0.0
 10
32.490455
 20
11.950326
 30
0.0
  0
SPLINE
  5
199
100
AcDbEntity
  8
Layer_1
 62
7
100
AcDbSpline
 70
8
 71
3
 72
8
 73
4
 74
0
 40
0
 40
0
 40
0
 40
0
 40
1
 40
1
 40
1
 40
1
 10
32.490455
 20
11.950326
 30
0.0
 10
32.467087
 20
11.950326
 30
0.0
 10
32.380614
 20
12.102769
 30
0.0
 10
32.298318
 20
12.289088
 30
0.0
  0
LWPOLYLINE
  5
19a
100
AcDbEntity
  8
Layer_1
 62
7
100
AcDbPolyline
 90
3
 70
0
 10
34.397634
 20
13.109302
 30
0.0
 10
34.495827
 20
12.818530
 30
0.0
 10
33.909844
 20
12.534535
 30
0.0
  0
SPLINE
  5
19b
100
AcDbEntity
  8
Layer_1
 62
7
100
AcDbSpline
 70
8
 71
3
 72
8
 73
4
 74
0
 40
0
 40
0
 40
0
 40
0
 40
1
 40
1
 40
1
 40
1
 10
33.829989
 20
11.385504
 30
0.0
 10
33.675995
 20
11.440233
 30
0.0
 10
33.656815
 20
11.469383
 30
0.0
 10
33.593111
 20
11.745530
 30
0.0
  0
SPLINE
  5
19c
100
AcDbEntity
  8
Layer_1
 62
7
100
AcDbSpline
 70
8
 71
3
 72
8
 73
4
 74
0
 40
0
 40
0
 40
0
 40
0
 40
1
 40
1
 40
1
 40
1
 10
33.593111
 20
11.745530
 30
0.0
 10
33.554989
 20
11.910791
 30
0.0
 10
33.534500
 20
12.056707
 30
0.0
 10
33.547581
 20
12.069788
 30
0.0
  0
SPLINE
  5
19d
100
AcDbEntity
  8
Layer_1
 62
7
100
AcDbSpline
 70
8
 71
3
 72
8
 73
4
 74
0
 40
0
 40
0
 40
0
 40
0
 40
1
 40
1
 40
1
 40
1
 10
33.547581
 20
12.069788
 30
0.0
 10
33.560647
 20
12.082869
 30
0.0
 10
33.746908
 20
12.067982
 30
0.0
 10
33.961462
 20
12.036714
 30
0.0
  0
SPLINE
  5
19e
100
AcDbEntity
  8
Layer_1
 62
7
100
AcDbSpline
 70
8
 71
3
 72
8
 73
4
 74
0
 40
0
 40
0
 40
0
 40
0
 40
1
 40
1
 40
1
 40
1
 10
33.961462
 20
12.036714
 30
0.0
 10
34.409798
 20
11.971369
 30
0.0
 10
34.570667
 20
12.013730
 30
0.0
 10
34.648151
 20
12.217533
 30
0.0
  0
SPLINE
  5
19f
100
AcDbEntity
  8
Layer_1
 62
7
100
AcDbSpline
 70
8
 71
3
 72
8
 73
4
 74
0
 40
0
 40
0
 40
0
 40
0
 40
1
 40
1
 40
1
 40
1
 10
34.648151
 20
12.217533
 30
0.0
 10
34.675132
 20
12.288497
 30
0.0
 10
34.695308
 20
12.957863
 30
0.0
 10
34.695308
 20
13.782061
 30
0.0
  0
LWPOLYLINE
  5
1a0
100
AcDbEntity
  8
Layer_1
 62
7
100
AcDbPolyline
 90
2
 70
0
 10
32.298318
 20
12.289088
 30
0.0
 10
32.298318
 20
12.289088
 30
0.0
  0
SPLINE
  5
1a1
100
AcDbEntity
  8
Layer_1
 62
7
100
AcDbSpline
 70
8
 71
3
 72
8
 73
4
 74
0
 40
0
 40
0
 40
0
 40
0
 40
1
 40
1
 40
1
 40
1
 10
35.959136
 20
13.785571
 30
0.0
 10
36.059497
 20
13.901017
 30
0.0
 10
36.208245
 20
14.098357
 30
0.0
 10
36.289691
 20
14.224105
 30
0.0
  0
LWPOLYLINE
  5
1a2
100
AcDbEntity
  8
Layer_1
 62
7
100
AcDbPolyline
 90
9
 70
0
 10
34.695308
 20
13.782061
 30
0.0
 10
34.695308
 20
15.222561
 30
0.0
 10
35.056216
 20
15.222561
 30
0.0
 10
35.417125
 20
15.222561
 30
0.0
 10
35.417125
 20
14.474228
 30
0.0
 10
35.417125
 20
13.725896
 30
0.0
 10
35.596895
 20
13.650783
 30
0.0
 10
35.776665
 20
13.575670
 30
0.0
 10
35.959136
 20
13.785571
 30
0.0
  0
SPLINE
  5
1a3
100
AcDbEntity
  8
Layer_1
 62
7
100
AcDbSpline
 70
8
 71
3
 72
8
 73
4
 74
0
 40
0
 40
0
 40
0
 40
0
 40
1
 40
1
 40
1
 40
1
 10
36.942900
 20
13.878737
 30
0.0
 10
36.861030
 20
13.759744
 30
0.0
 10
36.721889
 20
13.582517
 30
0.0
 10
36.633698
 20
13.484899
 30
0.0
  0
LWPOLYLINE
  5
1a4
100
AcDbEntity
  8
Layer_1
 62
7
100
AcDbPolyline
 90
5
 70
0
 10
36.289691
 20
14.224105
 30
0.0
 10
36.437773
 20
14.452737
 30
0.0
 10
36.764762
 20
14.273913
 30
0.0
 10
37.091753
 20
14.095089
 30
0.0
 10
36.942900
 20
13.878737
 30
0.0
  0
SPLINE
  5
1a5
100
AcDbEntity
  8
Layer_1
 62
7
100
AcDbSpline
 70
8
 71
3
 72
8
 73
4
 74
0
 40
0
 40
0
 40
0
 40
0
 40
1
 40
1
 40
1
 40
1
 10
37.136234
 20
12.943459
 30
0.0
 10
37.500820
 20
12.743285
 30
0.0
 10
37.878278
 20
12.529972
 30
0.0
 10
37.975029
 20
12.469431
 30
0.0
  0
LWPOLYLINE
  5
1a6
100
AcDbEntity
  8
Layer_1
 62
7
100
AcDbPolyline
 90
3
 70
0
 10
36.633698
 20
13.484899
 30
0.0
 10
36.473347
 20
13.307412
 30
0.0
 10
37.136234
 20
12.943459
 30
0.0
  0
SPLINE
  5
1a7
100
AcDbEntity
  8
Layer_1
 62
7
100
AcDbSpline
 70
8
 71
3
 72
8
 73
4
 74
0
 40
0
 40
0
 40
0
 40
0
 40
1
 40
1
 40
1
 40
1
 10
37.976677
 20
12.058599
 30
0.0
 10
37.880832
 20
11.893183
 30
0.0
 10
37.787648
 20
11.757842
 30
0.0
 10
37.769600
 20
11.757842
 30
0.0
  0
SPLINE
  5
1a8
100
AcDbEntity
  8
Layer_1
 62
7
100
AcDbSpline
 70
8
 71
3
 72
8
 73
4
 74
0
 40
0
 40
0
 40
0
 40
0
 40
1
 40
1
 40
1
 40
1
 10
37.769600
 20
11.757842
 30
0.0
 10
37.751566
 20
11.757842
 30
0.0
 10
37.490956
 20
11.910462
 30
0.0
 10
37.190499
 20
12.096998
 30
0.0
  0
SPLINE
  5
1a9
100
AcDbEntity
  8
Layer_1
 62
7
100
AcDbSpline
 70
8
 71
3
 72
8
 73
4
 74
0
 40
0
 40
0
 40
0
 40
0
 40
1
 40
1
 40
1
 40
1
 10
37.190499
 20
12.096998
 30
0.0
 10
36.648401
 20
12.433554
 30
0.0
 10
35.564597
 20
13.008990
 30
0.0
 10
35.472810
 20
13.008990
 30
0.0
  0
SPLINE
  5
1aa
100
AcDbEntity
  8
Layer_1
 62
7
100
AcDbSpline
 70
8
 71
3
 72
8
 73
4
 74
0
 40
0
 40
0
 40
0
 40
0
 40
1
 40
1
 40
1
 40
1
 10
35.472810
 20
13.008990
 30
0.0
 10
35.444580
 20
13.008990
 30
0.0
 10
35.418435
 20
12.767390
 30
0.0
 10
35.409020
 20
12.419507
 30
0.0
  0
SPLINE
  5
1ab
100
AcDbEntity
  8
Layer_1
 62
7
100
AcDbSpline
 70
8
 71
3
 72
8
 73
4
 74
0
 40
0
 40
0
 40
0
 40
0
 40
1
 40
1
 40
1
 40
1
 10
35.409020
 20
12.419507
 30
0.0
 10
35.391606
 20
11.776234
 30
0.0
 10
35.344145
 20
11.620687
 30
0.0
 10
35.112997
 20
11.449382
 30
0.0
  0
SPLINE
  5
1ac
100
AcDbEntity
  8
Layer_1
 62
7
100
AcDbSpline
 70
8
 71
3
 72
8
 73
4
 74
0
 40
0
 40
0
 40
0
 40
0
 40
1
 40
1
 40
1
 40
1
 10
35.112997
 20
11.449382
 30
0.0
 10
34.999354
 20
11.365162
 30
0.0
 10
34.897658
 20
11.346955
 30
0.0
 10
34.487423
 20
11.337383
 30
0.0
  0
SPLINE
  5
1ad
100
AcDbEntity
  8
Layer_1
 62
7
100
AcDbSpline
 70
8
 71
3
 72
8
 73
4
 74
0
 40
0
 40
0
 40
0
 40
0
 40
1
 40
1
 40
1
 40
1
 10
34.487423
 20
11.337383
 30
0.0
 10
34.190940
 20
11.330466
 30
0.0
 10
33.931403
 20
11.349463
 30
0.0
 10
33.829989
 20
11.385504
 30
0.0
  0
LWPOLYLINE
  5
1ae
100
AcDbEntity
  8
Layer_1
 62
7
100
AcDbPolyline
 90
3
 70
0
 10
37.975029
 20
12.469431
 30
0.0
 10
38.150941
 20
12.359356
 30
0.0
 10
37.976677
 20
12.058599
 30
0.0
  0
LWPOLYLINE
  5
1af
100
AcDbEntity
  8
Layer_1
 62
7
100
AcDbPolyline
 90
3
 70
0
 10
33.829989
 20
11.385504
 30
0.0
 10
33.829989
 20
11.385504
 30
0.0
 10
33.829989
 20
11.385504
 30
0.0
  0
SPLINE
  5
1b0
100
AcDbEntity
  8
Layer_1
 62
7
100
AcDbSpline
 70
8
 71
3
 72
8
 73
4
 74
0
 40
0
 40
0
 40
0
 40
0
 40
1
 40
1
 40
1
 40
1
 10
36.405419
 20
18.645606
 30
0.0
 10
36.538747
 20
18.787626
 30
0.0
 10
36.697000
 20
18.984206
 30
0.0
 10
36.757091
 20
19.082451
 30
0.0
  0
LWPOLYLINE
  5
1b1
100
AcDbEntity
  8
Layer_1
 62
7
100
AcDbPolyline
 90
3
 70
0
 10
36.427656
 20
18.153849
 30
0.0
 10
36.163002
 20
18.387388
 30
0.0
 10
36.405419
 20
18.645606
 30
0.0
  0
SPLINE
  5
1b2
100
AcDbEntity
  8
Layer_1
 62
7
100
AcDbSpline
 70
8
 71
3
 72
8
 73
4
 74
0
 40
0
 40
0
 40
0
 40
0
 40
1
 40
1
 40
1
 40
1
 10
37.176340
 20
19.108213
 30
0.0
 10
37.346834
 20
19.024138
 30
0.0
 10
37.486330
 20
18.934825
 30
0.0
 10
37.486330
 20
18.909739
 30
0.0
  0
SPLINE
  5
1b3
100
AcDbEntity
  8
Layer_1
 62
7
100
AcDbSpline
 70
8
 71
3
 72
8
 73
4
 74
0
 40
0
 40
0
 40
0
 40
0
 40
1
 40
1
 40
1
 40
1
 10
37.486330
 20
18.909739
 30
0.0
 10
37.486330
 20
18.815344
 30
0.0
 10
37.192884
 20
18.413477
 30
0.0
 10
36.947235
 20
18.171461
 30
0.0
  0
LWPOLYLINE
  5
1b4
100
AcDbEntity
  8
Layer_1
 62
7
100
AcDbPolyline
 90
3
 70
0
 10
36.757091
 20
19.082451
 30
0.0
 10
36.866347
 20
19.261077
 30
0.0
 10
37.176340
 20
19.108213
 30
0.0
  0
SPLINE
  5
1b5
100
AcDbEntity
  8
Layer_1
 62
7
100
AcDbSpline
 70
8
 71
3
 72
8
 73
4
 74
0
 40
0
 40
0
 40
0
 40
0
 40
1
 40
1
 40
1
 40
1
 10
33.179563
 20
18.061485
 30
0.0
 10
33.163053
 20
18.113479
 30
0.0
 10
33.035466
 20
18.315041
 30
0.0
 10
32.896020
 20
18.509400
 30
0.0
  0
LWPOLYLINE
  5
1b6
100
AcDbEntity
  8
Layer_1
 62
7
100
AcDbPolyline
 90
4
 70
0
 10
36.947235
 20
18.171461
 30
0.0
 10
36.692312
 20
17.920310
 30
0.0
 10
36.427656
 20
18.153849
 30
0.0
 10
36.427656
 20
18.153849
 30
0.0
  0
SPLINE
  5
1b7
100
AcDbEntity
  8
Layer_1
 62
7
100
AcDbSpline
 70
8
 71
3
 72
8
 73
4
 74
0
 40
0
 40
0
 40
0
 40
0
 40
1
 40
1
 40
1
 40
1
 10
33.383657
 20
19.107172
 30
0.0
 10
33.437802
 20
19.048264
 30
0.0
 10
33.572374
 20
18.859312
 30
0.0
 10
33.682700
 20
18.687279
 30
0.0
  0
LWPOLYLINE
  5
1b8
100
AcDbEntity
  8
Layer_1
 62
7
100
AcDbPolyline
 90
5
 70
0
 10
32.896020
 20
18.509400
 30
0.0
 10
32.642483
 20
18.862780
 30
0.0
 10
32.963846
 20
19.038529
 30
0.0
 10
33.285213
 20
19.214277
 30
0.0
 10
33.383657
 20
19.107172
 30
0.0
  0
SPLINE
  5
1b9
100
AcDbEntity
  8
Layer_1
 62
7
100
AcDbSpline
 70
8
 71
3
 72
8
 73
4
 74
0
 40
0
 40
0
 40
0
 40
0
 40
1
 40
1
 40
1
 40
1
 10
33.775681
 20
18.302311
 30
0.0
 10
33.716493
 20
18.262611
 30
0.0
 10
33.564903
 20
18.170914
 30
0.0
 10
33.438815
 20
18.098540
 30
0.0
  0
SPLINE
  5
1ba
100
AcDbEntity
  8
Layer_1
 62
7
100
AcDbSpline
 70
8
 71
3
 72
8
 73
4
 74
0
 40
0
 40
0
 40
0
 40
0
 40
1
 40
1
 40
1
 40
1
 10
33.438815
 20
18.098540
 30
0.0
 10
33.218207
 20
17.971911
 30
0.0
 10
33.208437
 20
17.970514
 30
0.0
 10
33.179563
 20
18.061485
 30
0.0
  0
LWPOLYLINE
  5
1bb
100
AcDbEntity
  8
Layer_1
 62
7
100
AcDbPolyline
 90
3
 70
0
 10
33.682700
 20
18.687279
 30
0.0
 10
33.883298
 20
18.374492
 30
0.0
 10
33.775681
 20
18.302311
 30
0.0
  0
LWPOLYLINE
  5
1bc
100
AcDbEntity
  8
Layer_1
 62
7
100
AcDbPolyline
 90
3
 70
0
 10
33.179563
 20
18.061485
 30
0.0
 10
33.179563
 20
18.061485
 30
0.0
 10
33.179563
 20
18.061485
 30
0.0
  0
SPLINE
  5
1bd
100
AcDbEntity
  8
Layer_1
 62
7
100
AcDbSpline
 70
8
 71
3
 72
8
 73
4
 74
0
 40
0
 40
0
 40
0
 40
0
 40
1
 40
1
 40
1
 40
1
 10
33.155433
 20
0.089723
 30
0.0
 10
33.115733
 20
0.097501
 30
0.0
 10
32.927682
 20
0.129182
 30
0.0
 10
32.737544
 20
0.160126
 30
0.0
  0
LWPOLYLINE
  5
1be
100
AcDbEntity
  8
Layer_1
 62
7
100
AcDbPolyline
 90
42
 70
0
 10
30.989984
 20
19.770004
 30
0.0
 10
30.989984
 20
20.082791
 30
0.0
 10
29.690715
 20
20.082791
 30
0.0
 10
28.391445
 20
20.082791
 30
0.0
 10
28.391445
 20
20.443699
 30
0.0
 10
28.391445
 20
20.804608
 30
0.0
 10
29.690715
 20
20.804608
 30
0.0
 10
30.989984
 20
20.804608
 30
0.0
 10
30.989984
 20
21.117395
 30
0.0
 10
30.989984
 20
21.430182
 30
0.0
 10
31.423074
 20
21.430182
 30
0.0
 10
31.856164
 20
21.430182
 30
0.0
 10
31.856164
 20
21.117395
 30
0.0
 10
31.856164
 20
20.804608
 30
0.0
 10
33.323857
 20
20.804608
 30
0.0
 10
34.791548
 20
20.804608
 30
0.0
 10
34.791548
 20
21.117395
 30
0.0
 10
34.791548
 20
21.430182
 30
0.0
 10
35.200579
 20
21.430182
 30
0.0
 10
35.609609
 20
21.430182
 30
0.0
 10
35.609609
 20
21.117395
 30
0.0
 10
35.609609
 20
20.804608
 30
0.0
 10
36.932938
 20
20.804608
 30
0.0
 10
38.256269
 20
20.804608
 30
0.0
 10
38.256269
 20
20.443699
 30
0.0
 10
38.256269
 20
20.082791
 30
0.0
 10
36.932938
 20
20.082791
 30
0.0
 10
35.609609
 20
20.082791
 30
0.0
 10
35.609609
 20
19.794065
 30
0.0
 10
35.609609
 20
19.505338
 30
0.0
 10
35.200579
 20
19.505338
 30
0.0
 10
34.791548
 20
19.505338
 30
0.0
 10
34.791548
 20
19.794065
 30
0.0
 10
34.791548
 20
20.082791
 30
0.0
 10
33.323857
 20
20.082791
 30
0.0
 10
31.856164
 20
20.082791
 30
0.0
 10
31.856164
 20
19.770004
 30
0.0
 10
31.856164
 20
19.457217
 30
0.0
 10
31.423074
 20
19.457217
 30
0.0
 10
30.989984
 20
19.457217
 30
0.0
 10
30.989984
 20
19.770004
 30
0.0
 10
30.989984
 20
19.770004
 30
0.0
  0
SPLINE
  5
1bf
100
AcDbEntity
  8
Layer_1
 62
7
100
AcDbSpline
 70
8
 71
3
 72
8
 73
4
 74
0
 40
0
 40
0
 40
0
 40
0
 40
1
 40
1
 40
1
 40
1
 10
32.344312
 20
0.441158
 30
0.0
 10
32.207908
 20
1.086268
 30
0.0
 10
32.200458
 20
1.057039
 30
0.0
 10
32.481737
 20
0.980429
 30
0.0
  0
SPLINE
  5
1c0
100
AcDbEntity
  8
Layer_1
 62
7
100
AcDbSpline
 70
8
 71
3
 72
8
 73
4
 74
0
 40
0
 40
0
 40
0
 40
0
 40
1
 40
1
 40
1
 40
1
 10
32.481737
 20
0.980429
 30
0.0
 10
32.752321
 20
0.906731
 30
0.0
 10
33.479692
 20
0.829361
 30
0.0
 10
33.605383
 20
0.860907
 30
0.0
  0
SPLINE
  5
1c1
100
AcDbEntity
  8
Layer_1
 62
7
100
AcDbSpline
 70
8
 71
3
 72
8
 73
4
 74
0
 40
0
 40
0
 40
0
 40
0
 40
1
 40
1
 40
1
 40
1
 10
33.605383
 20
0.860907
 30
0.0
 10
33.809068
 20
0.912029
 30
0.0
 10
33.829128
 20
1.047902
 30
0.0
 10
33.829128
 20
2.376493
 30
0.0
  0
LWPOLYLINE
  5
1c2
100
AcDbEntity
  8
Layer_1
 62
7
100
AcDbPolyline
 90
3
 70
0
 10
32.737544
 20
0.160126
 30
0.0
 10
32.391838
 20
0.216386
 30
0.0
 10
32.344312
 20
0.441158
 30
0.0
  0
SPLINE
  5
1c3
100
AcDbEntity
  8
Layer_1
 62
7
100
AcDbSpline
 70
8
 71
3
 72
8
 73
4
 74
0
 40
0
 40
0
 40
0
 40
0
 40
1
 40
1
 40
1
 40
1
 10
33.151247
 20
8.124557
 30
0.0
 10
33.205680
 20
8.270044
 30
0.0
 10
33.274770
 20
8.486589
 30
0.0
 10
33.304779
 20
8.605768
 30
0.0
  0
SPLINE
  5
1c4
100
AcDbEntity
  8
Layer_1
 62
7
100
AcDbSpline
 70
8
 71
3
 72
8
 73
4
 74
0
 40
0
 40
0
 40
0
 40
0
 40
1
 40
1
 40
1
 40
1
 10
33.304779
 20
8.605768
 30
0.0
 10
33.334788
 20
8.724946
 30
0.0
 10
33.362186
 20
8.822084
 30
0.0
 10
33.365660
 20
8.821631
 30
0.0
  0
SPLINE
  5
1c5
100
AcDbEntity
  8
Layer_1
 62
7
100
AcDbSpline
 70
8
 71
3
 72
8
 73
4
 74
0
 40
0
 40
0
 40
0
 40
0
 40
1
 40
1
 40
1
 40
1
 10
33.365660
 20
8.821631
 30
0.0
 10
33.452630
 20
8.810277
 30
0.0
 10
34.086176
 20
8.629568
 30
0.0
 10
34.105001
 20
8.610745
 30
0.0
  0
SPLINE
  5
1c6
100
AcDbEntity
  8
Layer_1
 62
7
100
AcDbSpline
 70
8
 71
3
 72
8
 73
4
 74
0
 40
0
 40
0
 40
0
 40
0
 40
1
 40
1
 40
1
 40
1
 10
34.105001
 20
8.610745
 30
0.0
 10
34.126845
 20
8.588896
 30
0.0
 10
34.056317
 20
8.362769
 30
0.0
 10
33.889609
 20
7.920185
 30
0.0
  0
SPLINE
  5
1c7
100
AcDbEntity
  8
Layer_1
 62
7
100
AcDbSpline
 70
8
 71
3
 72
8
 73
4
 74
0
 40
0
 40
0
 40
0
 40
0
 40
1
 40
1
 40
1
 40
1
 10
33.889609
 20
7.920185
 30
0.0
 10
33.871744
 20
7.872737
 30
0.0
 10
34.244074
 20
7.860033
 30
0.0
 10
35.652580
 20
7.860033
 30
0.0
  0
LWPOLYLINE
  5
1c8
100
AcDbEntity
  8
Layer_1
 62
7
100
AcDbPolyline
 90
9
 70
0
 10
33.829128
 20
2.376493
 30
0.0
 10
33.829128
 20
3.625377
 30
0.0
 10
32.361434
 20
3.625377
 30
0.0
 10
30.893741
 20
3.625377
 30
0.0
 10
30.893741
 20
5.742705
 30
0.0
 10
30.893741
 20
7.860033
 30
0.0
 10
31.973009
 20
7.860033
 30
0.0
 10
33.052275
 20
7.860033
 30
0.0
 10
33.151247
 20
8.124557
 30
0.0
  0
SPLINE
  5
1c9
100
AcDbEntity
  8
Layer_1
 62
7
100
AcDbSpline
 70
8
 71
3
 72
8
 73
4
 74
0
 40
0
 40
0
 40
0
 40
0
 40
1
 40
1
 40
1
 40
1
 10
34.686065
 20
2.169714
 30
0.0
 10
34.671474
 20
0.968581
 30
0.0
 10
34.654975
 20
0.684601
 30
0.0
 10
34.591797
 20
0.545627
 30
0.0
  0
SPLINE
  5
1ca
100
AcDbEntity
  8
Layer_1
 62
7
100
AcDbSpline
 70
8
 71
3
 72
8
 73
4
 74
0
 40
0
 40
0
 40
0
 40
0
 40
1
 40
1
 40
1
 40
1
 10
34.591797
 20
0.545627
 30
0.0
 10
34.496852
 20
0.336779
 30
0.0
 10
34.336149
 20
0.190693
 30
0.0
 10
34.122707
 20
0.119203
 30
0.0
  0
SPLINE
  5
1cb
100
AcDbEntity
  8
Layer_1
 62
7
100
AcDbSpline
 70
8
 71
3
 72
8
 73
4
 74
0
 40
0
 40
0
 40
0
 40
0
 40
1
 40
1
 40
1
 40
1
 10
34.122707
 20
0.119203
 30
0.0
 10
33.978077
 20
0.070761
 30
0.0
 10
33.349929
 20
0.051616
 30
0.0
 10
33.155436
 20
0.089723
 30
0.0
  0
LWPOLYLINE
  5
1cc
100
AcDbEntity
  8
Layer_1
 62
7
100
AcDbPolyline
 90
7
 70
0
 10
35.652580
 20
7.860033
 30
0.0
 10
37.438209
 20
7.860033
 30
0.0
 10
37.438209
 20
5.742705
 30
0.0
 10
37.438209
 20
3.625377
 30
0.0
 10
36.070986
 20
3.625377
 30
0.0
 10
34.703760
 20
3.625377
 30
0.0
 10
34.686065
 20
2.169714
 30
0.0
  0
LWPOLYLINE
  5
1cd
100
AcDbEntity
  8
Layer_1
 62
7
100
AcDbPolyline
 90
2
 70
0
 10
33.155436
 20
0.089723
 30
0.0
 10
33.155433
 20
0.089723
 30
0.0
  0
LWPOLYLINE
  5
1ce
100
AcDbEntity
  8
Layer_1
 62
7
100
AcDbPolyline
 90
10
 70
0
 10
36.620151
 20
4.924647
 30
0.0
 10
36.620151
 20
5.453979
 30
0.0
 10
34.117856
 20
5.453979
 30
0.0
 10
31.615558
 20
5.453979
 30
0.0
 10
31.615558
 20
4.924647
 30
0.0
 10
31.615558
 20
4.395314
 30
0.0
 10
34.117856
 20
4.395314
 30
0.0
 10
36.620151
 20
4.395314
 30
0.0
 10
36.620151
 20
4.924647
 30
0.0
 10
36.620151
 20
4.924647
 30
0.0
  0
SPLINE
  5
1cf
100
AcDbEntity
  8
Layer_1
 62
7
100
AcDbSpline
 70
8
 71
3
 72
8
 73
4
 74
0
 40
0
 40
0
 40
0
 40
0
 40
1
 40
1
 40
1
 40
1
 10
28.535808
 20
0.236991
 30
0.0
 10
28.390240
 20
0.330552
 30
0.0
 10
28.239949
 20
0.425199
 30
0.0
 10
28.201823
 20
0.447317
 30
0.0
  0
SPLINE
  5
1d0
100
AcDbEntity
  8
Layer_1
 62
7
100
AcDbSpline
 70
8
 71
3
 72
8
 73
4
 74
0
 40
0
 40
0
 40
0
 40
0
 40
1
 40
1
 40
1
 40
1
 10
28.201823
 20
0.447317
 30
0.0
 10
28.143361
 20
0.481233
 30
0.0
 10
28.156183
 20
0.565563
 30
0.0
 10
28.283687
 20
0.985760
 30
0.0
  0
SPLINE
  5
1d1
100
AcDbEntity
  8
Layer_1
 62
7
100
AcDbSpline
 70
8
 71
3
 72
8
 73
4
 74
0
 40
0
 40
0
 40
0
 40
0
 40
1
 40
1
 40
1
 40
1
 10
28.283687
 20
0.985760
 30
0.0
 10
28.486123
 20
1.652893
 30
0.0
 10
28.610221
 20
2.160423
 30
0.0
 10
28.705553
 20
2.711076
 30
0.0
  0
SPLINE
  5
1d2
100
AcDbEntity
  8
Layer_1
 62
7
100
AcDbSpline
 70
8
 71
3
 72
8
 73
4
 74
0
 40
0
 40
0
 40
0
 40
0
 40
1
 40
1
 40
1
 40
1
 10
28.705553
 20
2.711076
 30
0.0
 10
28.903467
 20
3.854265
 30
0.0
 10
28.927659
 20
4.277032
 30
0.0
 10
28.954087
 20
7.054005
 30
0.0
  0
LWPOLYLINE
  5
1d3
100
AcDbEntity
  8
Layer_1
 62
7
100
AcDbPolyline
 90
10
 70
0
 10
36.620151
 20
6.633378
 30
0.0
 10
36.620151
 20
7.139083
 30
0.0
 10
34.129884
 20
7.126620
 30
0.0
 10
31.639617
 20
7.114157
 30
0.0
 10
31.625901
 20
6.620916
 30
0.0
 10
31.612185
 20
6.127675
 30
0.0
 10
34.116165
 20
6.127675
 30
0.0
 10
36.620145
 20
6.127675
 30
0.0
 10
36.620145
 20
6.633379
 30
0.0
 10
36.620151
 20
6.633378
 30
0.0
  0
SPLINE
  5
1d4
100
AcDbEntity
  8
Layer_1
 62
7
100
AcDbSpline
 70
8
 71
3
 72
8
 73
4
 74
0
 40
0
 40
0
 40
0
 40
0
 40
1
 40
1
 40
1
 40
1
 10
29.786961
 20
6.859109
 30
0.0
 10
29.786961
 20
4.202025
 30
0.0
 10
29.728795
 20
3.364678
 30
0.0
 10
29.450352
 20
2.013321
 30
0.0
  0
SPLINE
  5
1d5
100
AcDbEntity
  8
Layer_1
 62
7
100
AcDbSpline
 70
8
 71
3
 72
8
 73
4
 74
0
 40
0
 40
0
 40
0
 40
0
 40
1
 40
1
 40
1
 40
1
 10
29.450352
 20
2.013321
 30
0.0
 10
29.283302
 20
1.202582
 30
0.0
 10
28.923674
 20
0.062599
 30
0.0
 10
28.835923
 20
0.065648
 30
0.0
  0
SPLINE
  5
1d6
100
AcDbEntity
  8
Layer_1
 62
7
100
AcDbSpline
 70
8
 71
3
 72
8
 73
4
 74
0
 40
0
 40
0
 40
0
 40
0
 40
1
 40
1
 40
1
 40
1
 10
28.835923
 20
0.065648
 30
0.0
 10
28.816421
 20
0.066325
 30
0.0
 10
28.681378
 20
0.143430
 30
0.0
 10
28.535813
 20
0.236991
 30
0.0
  0
LWPOLYLINE
  5
1d7
100
AcDbEntity
  8
Layer_1
 62
7
100
AcDbPolyline
 90
9
 70
0
 10
28.954087
 20
7.054005
 30
0.0
 10
28.980079
 20
9.784877
 30
0.0
 10
33.545994
 20
9.784877
 30
0.0
 10
38.111910
 20
9.784877
 30
0.0
 10
38.111910
 20
9.399908
 30
0.0
 10
38.111910
 20
9.014939
 30
0.0
 10
33.949437
 20
9.014939
 30
0.0
 10
29.786961
 20
9.014939
 30
0.0
 10
29.786961
 20
6.859109
 30
0.0
  0
LWPOLYLINE
  5
1d8
100
AcDbEntity
  8
Layer_1
 62
7
100
AcDbPolyline
 90
2
 70
0
 10
28.535813
 20
0.236991
 30
0.0
 10
28.535808
 20
0.236991
 30
0.0
  0
SPLINE
  5
1d9
100
AcDbEntity
  8
Layer_1
 62
7
100
AcDbSpline
 70
8
 71
3
 72
8
 73
4
 74
0
 40
0
 40
0
 40
0
 40
0
 40
1
 40
1
 40
1
 40
1
 10
30.578744
 20
1.570033
 30
0.0
 10
31.142330
 20
2.140106
 30
0.0
 10
31.623855
 20
2.730932
 30
0.0
 10
31.882983
 20
3.170314
 30
0.0
  0
SPLINE
  5
1da
100
AcDbEntity
  8
Layer_1
 62
7
100
AcDbSpline
 70
8
 71
3
 72
8
 73
4
 74
0
 40
0
 40
0
 40
0
 40
0
 40
1
 40
1
 40
1
 40
1
 10
31.882983
 20
3.170314
 30
0.0
 10
31.929719
 20
3.249561
 30
0.0
 10
31.959110
 20
3.239646
 30
0.0
 10
32.243892
 20
3.048564
 30
0.0
  0
SPLINE
  5
1db
100
AcDbEntity
  8
Layer_1
 62
7
100
AcDbSpline
 70
8
 71
3
 72
8
 73
4
 74
0
 40
0
 40
0
 40
0
 40
0
 40
1
 40
1
 40
1
 40
1
 10
32.243892
 20
3.048564
 30
0.0
 10
32.414405
 20
2.934151
 30
0.0
 10
32.562224
 20
2.833781
 30
0.0
 10
32.572379
 20
2.825520
 30
0.0
  0
SPLINE
  5
1dc
100
AcDbEntity
  8
Layer_1
 62
7
100
AcDbSpline
 70
8
 71
3
 72
8
 73
4
 74
0
 40
0
 40
0
 40
0
 40
0
 40
1
 40
1
 40
1
 40
1
 10
32.572379
 20
2.825520
 30
0.0
 10
32.605139
 20
2.798864
 30
0.0
 10
32.210364
 20
2.169376
 30
0.0
 10
31.897032
 20
1.748655
 30
0.0
  0
SPLINE
  5
1dd
100
AcDbEntity
  8
Layer_1
 62
7
100
AcDbSpline
 70
8
 71
3
 72
8
 73
4
 74
0
 40
0
 40
0
 40
0
 40
0
 40
1
 40
1
 40
1
 40
1
 10
31.897032
 20
1.748655
 30
0.0
 10
31.587242
 20
1.332686
 30
0.0
 10
30.893856
 20
0.605590
 30
0.0
 10
30.625706
 20
0.415518
 30
0.0
  0
LWPOLYLINE
  5
1de
100
AcDbEntity
  8
Layer_1
 62
7
100
AcDbPolyline
 90
3
 70
0
 10
30.190302
 20
0.598470
 30
0.0
 10
29.902633
 20
0.886139
 30
0.0
 10
30.578744
 20
1.570033
 30
0.0
  0
SPLINE
  5
1df
100
AcDbEntity
  8
Layer_1
 62
7
100
AcDbSpline
 70
8
 71
3
 72
8
 73
4
 74
0
 40
0
 40
0
 40
0
 40
0
 40
1
 40
1
 40
1
 40
1
 10
37.171833
 20
0.942626
 30
0.0
 10
37.014768
 20
1.134509
 30
0.0
 10
36.598205
 20
1.586750
 30
0.0
 10
36.246139
 20
1.947605
 30
0.0
  0
LWPOLYLINE
  5
1e0
100
AcDbEntity
  8
Layer_1
 62
7
100
AcDbPolyline
 90
4
 70
0
 10
30.625706
 20
0.415518
 30
0.0
 10
30.477971
 20
0.310800
 30
0.0
 10
30.190302
 20
0.598470
 30
0.0
 10
30.190302
 20
0.598470
 30
0.0
  0
SPLINE
  5
1e1
100
AcDbEntity
  8
Layer_1
 62
7
100
AcDbSpline
 70
8
 71
3
 72
8
 73
4
 74
0
 40
0
 40
0
 40
0
 40
0
 40
1
 40
1
 40
1
 40
1
 10
36.542661
 20
2.845415
 30
0.0
 10
36.849784
 20
2.595365
 30
0.0
 10
38.208148
 20
1.230339
 30
0.0
 10
38.208148
 20
1.171760
 30
0.0
  0
SPLINE
  5
1e2
100
AcDbEntity
  8
Layer_1
 62
7
100
AcDbSpline
 70
8
 71
3
 72
8
 73
4
 74
0
 40
0
 40
0
 40
0
 40
0
 40
1
 40
1
 40
1
 40
1
 10
38.208148
 20
1.171760
 30
0.0
 10
38.208148
 20
1.125864
 30
0.0
 10
37.547951
 20
0.593748
 30
0.0
 10
37.491010
 20
0.593748
 30
0.0
  0
SPLINE
  5
1e3
100
AcDbEntity
  8
Layer_1
 62
7
100
AcDbSpline
 70
8
 71
3
 72
8
 73
4
 74
0
 40
0
 40
0
 40
0
 40
0
 40
1
 40
1
 40
1
 40
1
 10
37.491010
 20
0.593748
 30
0.0
 10
37.472524
 20
0.593748
 30
0.0
 10
37.328898
 20
0.750743
 30
0.0
 10
37.171833
 20
0.942626
 30
0.0
  0
LWPOLYLINE
  5
1e4
100
AcDbEntity
  8
Layer_1
 62
7
100
AcDbPolyline
 90
5
 70
0
 10
36.246139
 20
1.947605
 30
0.0
 10
35.606016
 20
2.603706
 30
0.0
 10
35.951383
 20
2.824668
 30
0.0
 10
36.296750
 20
3.045629
 30
0.0
 10
36.542661
 20
2.845415
 30
0.0
  0
LWPOLYLINE
  5
1e5
100
AcDbEntity
  8
Layer_1
 62
7
100
AcDbPolyline
 90
2
 70
0
 10
37.171833
 20
0.942626
 30
0.0
 10
37.171833
 20
0.942626
 30
0.0
  0
ENDSEC
  0
SECTION
  2
OBJECTS
  0
DICTIONARY
  5
C
330
0
100
AcDbDictionary
  3
ACAD_GROUP
350
D
  3
ACAD_MLINESTYLE
350
17
  0
DICTIONARY
  5
D
330
C
100
AcDbDictionary
  0
DICTIONARY
  5
1A
330
C
100
AcDbDictionary
  0
DICTIONARY
  5
17
330
C
100
AcDbDictionary
  3
STANDARD
350
18
  0
DICTIONARY
  5
19
330
C
100
AcDbDictionary
  0
ENDSEC
  0
EOF
