  0
SECTION
  2
HEADER
  9
$ACADVER
  1
AC1014
  9
$HANDSEED
  5
FFFF
  9
$MEASUREMENT
 70
     1
  0
ENDSEC
  0
SECTION
  2
TABLES
  0
TABLE
  2
VPORT
  5
8
330
0
100
AcDbSymbolTable
 70
     4
  0
VPORT
  5
2E
330
8
100
AcDbSymbolTableRecord
100
AcDbViewportTableRecord
  2
*ACTIVE
 70
     0
 10
0.0
 20
0.0
 11
1.0
 21
1.0
 12
210.0
 22
148.5
 13
0.0
 23
0.0
 14
10.0
 24
10.0
 15
10.0
 25
10.0
 16
0.0
 26
0.0
 36
1.0
 17
0.0
 27
0.0
 37
0.0
 40
341.0
 41
1.24
 42
50.0
 43
0.0
 44
0.0
 50
0.0
 51
0.0
 71
     0
 72
   100
 73
     1
 74
     3
 75
     0
 76
     0
 77
     0
 78
     0
  0
ENDTAB
  0
TABLE
  2
LTYPE
  5
5
330
0
100
AcDbSymbolTable
 70
     1
  0
LTYPE
  5
14
330
5
100
AcDbSymbolTableRecord
100
AcDbLinetypeTableRecord
  2
BYBLOCK
 70
     0
  3

 72
    65
 73
     0
 40
0.0
  0
LTYPE
  5
15
330
5
100
AcDbSymbolTableRecord
100
AcDbLinetypeTableRecord
  2
BYLAYER
 70
     0
  3

 72
    65
 73
     0
 40
0.0
  0
LTYPE
  5
16
330
5
100
AcDbSymbolTableRecord
100
AcDbLinetypeTableRecord
  2
CONTINUOUS
 70
     0
  3
Solid line
 72
    65
 73
     0
 40
0.0
  0
ENDTAB
  0
TABLE
  2
LAYER
  5
2
100
AcDbSymbolTable
 70
2
  0
LAYER
  5
50
100
AcDbSymbolTableRecord
100
AcDbLayerTableRecord
  2
0
 70
0
  6
CONTINUOUS
  0
LAYER
  5
51
100
AcDbSymbolTableRecord
100
AcDbLayerTableRecord
  2
Layer_1
 70
0
  6
CONTINUOUS
  0
ENDTAB
  0
TABLE
  2
STYLE
  5
3
330
0
100
AcDbSymbolTable
 70
     1
  0
STYLE
  5
11
330
3
100
AcDbSymbolTableRecord
100
AcDbTextStyleTableRecord
  2
STANDARD
 70
     0
 40
0.0
 41
1.0
 50
0.0
 71
     0
 42
2.5
  3
txt
  4

  0
ENDTAB
  0
TABLE
  2
VIEW
  5
6
330
0
100
AcDbSymbolTable
 70
     0
  0
ENDTAB
  0
TABLE
  2
UCS
  5
7
330
0
100
AcDbSymbolTable
 70
     0
  0
ENDTAB
  0
TABLE
  2
APPID
  5
9
330
0
100
AcDbSymbolTable
 70
     2
  0
APPID
  5
12
330
9
100
AcDbSymbolTableRecord
100
AcDbRegAppTableRecord
  2
ACAD
 70
     0
  0
ENDTAB
  0
TABLE
  2
DIMSTYLE
  5
A
330
0
100
AcDbSymbolTable
 70
     1
  0
DIMSTYLE
105
27
330
A
100
AcDbSymbolTableRecord
100
AcDbDimStyleTableRecord
  2
ISO-25
 70
     0
  3

  4

  5

  6

  7

 40
1.0
 41
2.5
 42
0.625
 43
3.75
 44
1.25
 45
0.0
 46
0.0
 47
0.0
 48
0.0
140
2.5
141
2.5
142
0.0
143
0.03937007874016
144
1.0
145
0.0
146
1.0
147
0.625
 71
     0
 72
     0
 73
     0
 74
     0
 75
     0
 76
     0
 77
     1
 78
     8
170
     0
171
     3
172
     1
173
     0
174
     0
175
     0
176
     0
177
     0
178
     0
270
     2
271
     2
272
     2
273
     2
274
     3
340
11
275
     0
280
     0
281
     0
282
     0
283
     0
284
     8
285
     0
286
     0
287
     3
288
     0
  0
ENDTAB
  0
TABLE
  2
BLOCK_RECORD
  5
1
330
0
100
AcDbSymbolTable
 70
     1
  0
BLOCK_RECORD
  5
1F
330
1
100
AcDbSymbolTableRecord
100
AcDbBlockTableRecord
  2
*MODEL_SPACE
  0
BLOCK_RECORD
  5
1B
330
1
100
AcDbSymbolTableRecord
100
AcDbBlockTableRecord
  2
*PAPER_SPACE
  0
ENDTAB
  0
ENDSEC
  0
SECTION
  2
BLOCKS
  0
BLOCK
  5
20
330
1F
100
AcDbEntity
  8
0
100
AcDbBlockBegin
  2
*MODEL_SPACE
 70
     0
 10
0.0
 20
0.0
 30
0.0
  3
*MODEL_SPACE
  1

  0
ENDBLK
  5
21
330
1F
100
AcDbEntity
  8
0
100
AcDbBlockEnd
  0
BLOCK
  5
1C
330
1B
100
AcDbEntity
 67
     1
  8
0
100
AcDbBlockBegin
  2
*PAPER_SPACE
  1

  0
ENDBLK
  5
1D
330
1B
100
AcDbEntity
 67
     1
  8
0
100
AcDbBlockEnd
  0
ENDSEC
  0
SECTION
  2
ENTITIES
  0
SPLINE
  5
100
100
AcDbEntity
  8
Layer_1
 62
7
100
AcDbSpline
 70
8
 71
3
 72
8
 73
4
 74
0
 40
0
 40
0
 40
0
 40
0
 40
1
 40
1
 40
1
 40
1
 10
0.387473
 20
14.915969
 30
0.0
 10
0.960398
 20
15.815894
 30
0.0
 10
1.694523
 20
17.229959
 30
0.0
 10
2.026524
 20
18.073092
 30
0.0
  0
SPLINE
  5
101
100
AcDbEntity
  8
Layer_1
 62
7
100
AcDbSpline
 70
8
 71
3
 72
8
 73
4
 74
0
 40
0
 40
0
 40
0
 40
0
 40
1
 40
1
 40
1
 40
1
 10
2.026524
 20
18.073092
 30
0.0
 10
2.098163
 20
18.255023
 30
0.0
 10
2.161412
 20
18.410744
 30
0.0
 10
2.167077
 20
18.419138
 30
0.0
  0
SPLINE
  5
102
100
AcDbEntity
  8
Layer_1
 62
7
100
AcDbSpline
 70
8
 71
3
 72
8
 73
4
 74
0
 40
0
 40
0
 40
0
 40
0
 40
1
 40
1
 40
1
 40
1
 10
2.167077
 20
18.419138
 30
0.0
 10
2.172742
 20
18.427531
 30
0.0
 10
2.320428
 20
18.339971
 30
0.0
 10
2.495266
 20
18.224559
 30
0.0
  0
SPLINE
  5
103
100
AcDbEntity
  8
Layer_1
 62
7
100
AcDbSpline
 70
8
 71
3
 72
8
 73
4
 74
0
 40
0
 40
0
 40
0
 40
0
 40
1
 40
1
 40
1
 40
1
 10
2.495266
 20
18.224559
 30
0.0
 10
2.670105
 20
18.109147
 30
0.0
 10
2.828221
 20
18.004881
 30
0.0
 10
2.846635
 20
17.992857
 30
0.0
  0
SPLINE
  5
104
100
AcDbEntity
  8
Layer_1
 62
7
100
AcDbSpline
 70
8
 71
3
 72
8
 73
4
 74
0
 40
0
 40
0
 40
0
 40
0
 40
1
 40
1
 40
1
 40
1
 10
2.846635
 20
17.992857
 30
0.0
 10
2.922711
 20
17.943182
 30
0.0
 10
2.427070
 20
16.703428
 30
0.0
 10
1.943109
 20
15.732853
 30
0.0
  0
SPLINE
  5
105
100
AcDbEntity
  8
Layer_1
 62
7
100
AcDbSpline
 70
8
 71
3
 72
8
 73
4
 74
0
 40
0
 40
0
 40
0
 40
0
 40
1
 40
1
 40
1
 40
1
 10
1.943109
 20
15.732853
 30
0.0
 10
1.670265
 20
15.185670
 30
0.0
 10
1.120745
 20
14.211078
 30
0.0
 10
0.945204
 20
13.963036
 30
0.0
  0
SPLINE
  5
106
100
AcDbEntity
  8
Layer_1
 62
7
100
AcDbSpline
 70
8
 71
3
 72
8
 73
4
 74
0
 40
0
 40
0
 40
0
 40
0
 40
1
 40
1
 40
1
 40
1
 10
0.945204
 20
13.963036
 30
0.0
 10
0.924868
 20
13.934301
 30
0.0
 10
0.781269
 20
14.017930
 30
0.0
 10
0.519354
 20
14.211045
 30
0.0
  0
LWPOLYLINE
  5
107
100
AcDbEntity
  8
Layer_1
 62
7
100
AcDbPolyline
 90
3
 70
0
 10
0.519354
 20
14.211045
 30
0.0
 10
0.124187
 20
14.502409
 30
0.0
 10
0.387473
 20
14.915969
 30
0.0
  0
LWPOLYLINE
  5
108
100
AcDbEntity
  8
Layer_1
 62
7
100
AcDbPolyline
 90
3
 70
0
 10
0.519354
 20
14.211045
 30
0.0
 10
0.519354
 20
14.211045
 30
0.0
 10
0.519354
 20
14.211045
 30
0.0
  0
LWPOLYLINE
  5
109
100
AcDbEntity
  8
Layer_1
 62
7
100
AcDbPolyline
 90
14
 70
0
 10
3.774833
 20
18.559540
 30
0.0
 10
3.774833
 20
20.797198
 30
0.0
 10
5.428754
 20
20.797198
 30
0.0
 10
7.082675
 20
20.797198
 30
0.0
 10
7.082675
 20
18.870866
 30
0.0
 10
7.082675
 20
16.944534
 30
0.0
 10
5.817912
 20
16.944534
 30
0.0
 10
4.553148
 20
16.944534
 30
0.0
 10
4.553148
 20
16.633208
 30
0.0
 10
4.553148
 20
16.321881
 30
0.0
 10
4.163990
 20
16.321881
 30
0.0
 10
3.774833
 20
16.321881
 30
0.0
 10
3.774833
 20
18.559540
 30
0.0
 10
3.774833
 20
18.559540
 30
0.0
  0
SPLINE
  5
10a
100
AcDbEntity
  8
Layer_1
 62
7
100
AcDbSpline
 70
8
 71
3
 72
8
 73
4
 74
0
 40
0
 40
0
 40
0
 40
0
 40
1
 40
1
 40
1
 40
1
 10
1.400969
 20
19.557643
 30
0.0
 10
1.110597
 20
19.824627
 30
0.0
 10
0.632792
 20
20.187764
 30
0.0
 10
0.310097
 20
20.386719
 30
0.0
  0
LWPOLYLINE
  5
10b
100
AcDbEntity
  8
Layer_1
 62
7
100
AcDbPolyline
 90
10
 70
0
 10
6.265444
 20
18.870866
 30
0.0
 10
6.265444
 20
20.057798
 30
0.0
 10
5.409296
 20
20.057798
 30
0.0
 10
4.553148
 20
20.057798
 30
0.0
 10
4.553148
 20
18.870866
 30
0.0
 10
4.553148
 20
17.683934
 30
0.0
 10
5.409296
 20
17.683934
 30
0.0
 10
6.265444
 20
17.683934
 30
0.0
 10
6.265444
 20
18.870866
 30
0.0
 10
6.265444
 20
18.870866
 30
0.0
  0
SPLINE
  5
10c
100
AcDbEntity
  8
Layer_1
 62
7
100
AcDbSpline
 70
8
 71
3
 72
8
 73
4
 74
0
 40
0
 40
0
 40
0
 40
0
 40
1
 40
1
 40
1
 40
1
 10
0.329848
 20
20.835184
 30
0.0
 10
0.513204
 20
21.017316
 30
0.0
 10
0.636675
 20
21.111471
 30
0.0
 10
0.673587
 20
21.097306
 30
0.0
  0
SPLINE
  5
10d
100
AcDbEntity
  8
Layer_1
 62
7
100
AcDbSpline
 70
8
 71
3
 72
8
 73
4
 74
0
 40
0
 40
0
 40
0
 40
0
 40
1
 40
1
 40
1
 40
1
 10
0.673587
 20
21.097306
 30
0.0
 10
0.803693
 20
21.047380
 30
0.0
 10
1.469950
 20
20.615027
 30
0.0
 10
1.832012
 20
20.345571
 30
0.0
  0
LWPOLYLINE
  5
10e
100
AcDbEntity
  8
Layer_1
 62
7
100
AcDbPolyline
 90
3
 70
0
 10
0.310097
 20
20.386719
 30
0.0
 10
0.043711
 20
20.550957
 30
0.0
 10
0.329848
 20
20.835184
 30
0.0
  0
SPLINE
  5
10f
100
AcDbEntity
  8
Layer_1
 62
7
100
AcDbSpline
 70
8
 71
3
 72
8
 73
4
 74
0
 40
0
 40
0
 40
0
 40
0
 40
1
 40
1
 40
1
 40
1
 10
1.936719
 20
19.709433
 30
0.0
 10
1.781181
 20
19.518172
 30
0.0
 10
1.645165
 20
19.361497
 30
0.0
 10
1.634464
 20
19.361266
 30
0.0
  0
SPLINE
  5
110
100
AcDbEntity
  8
Layer_1
 62
7
100
AcDbSpline
 70
8
 71
3
 72
8
 73
4
 74
0
 40
0
 40
0
 40
0
 40
0
 40
1
 40
1
 40
1
 40
1
 10
1.634464
 20
19.361266
 30
0.0
 10
1.623762
 20
19.361037
 30
0.0
 10
1.518689
 20
19.449405
 30
0.0
 10
1.400969
 20
19.557643
 30
0.0
  0
LWPOLYLINE
  5
111
100
AcDbEntity
  8
Layer_1
 62
7
100
AcDbPolyline
 90
3
 70
0
 10
1.832012
 20
20.345571
 30
0.0
 10
2.219517
 20
20.057180
 30
0.0
 10
1.936719
 20
19.709433
 30
0.0
  0
SPLINE
  5
112
100
AcDbEntity
  8
Layer_1
 62
7
100
AcDbSpline
 70
8
 71
3
 72
8
 73
4
 74
0
 40
0
 40
0
 40
0
 40
0
 40
1
 40
1
 40
1
 40
1
 10
1.692837
 20
22.399880
 30
0.0
 10
1.464651
 20
22.596989
 30
0.0
 10
0.822488
 20
23.069961
 30
0.0
 10
0.558269
 20
23.235524
 30
0.0
  0
SPLINE
  5
113
100
AcDbEntity
  8
Layer_1
 62
7
100
AcDbSpline
 70
8
 71
3
 72
8
 73
4
 74
0
 40
0
 40
0
 40
0
 40
0
 40
1
 40
1
 40
1
 40
1
 10
0.558269
 20
23.235524
 30
0.0
 10
0.492888
 20
23.276492
 30
0.0
 10
0.512453
 20
23.306946
 30
0.0
 10
0.776442
 20
23.575131
 30
0.0
  0
LWPOLYLINE
  5
114
100
AcDbEntity
  8
Layer_1
 62
7
100
AcDbPolyline
 90
2
 70
0
 10
1.400969
 20
19.557643
 30
0.0
 10
1.400969
 20
19.557643
 30
0.0
  0
SPLINE
  5
115
100
AcDbEntity
  8
Layer_1
 62
7
100
AcDbSpline
 70
8
 71
3
 72
8
 73
4
 74
0
 40
0
 40
0
 40
0
 40
0
 40
1
 40
1
 40
1
 40
1
 10
1.243432
 20
23.768649
 30
0.0
 10
1.524216
 20
23.608286
 30
0.0
 10
2.072436
 20
23.235364
 30
0.0
 10
2.327846
 20
23.030986
 30
0.0
  0
LWPOLYLINE
  5
116
100
AcDbEntity
  8
Layer_1
 62
7
100
AcDbPolyline
 90
3
 70
0
 10
0.776442
 20
23.575131
 30
0.0
 10
1.066437
 20
23.869735
 30
0.0
 10
1.243432
 20
23.768649
 30
0.0
  0
SPLINE
  5
117
100
AcDbEntity
  8
Layer_1
 62
7
100
AcDbSpline
 70
8
 71
3
 72
8
 73
4
 74
0
 40
0
 40
0
 40
0
 40
0
 40
1
 40
1
 40
1
 40
1
 10
2.488989
 20
22.744590
 30
0.0
 10
2.448739
 20
22.690200
 30
0.0
 10
2.314432
 20
22.537445
 30
0.0
 10
2.190528
 20
22.405135
 30
0.0
  0
LWPOLYLINE
  5
118
100
AcDbEntity
  8
Layer_1
 62
7
100
AcDbPolyline
 90
3
 70
0
 10
2.327846
 20
23.030986
 30
0.0
 10
2.562169
 20
22.843482
 30
0.0
 10
2.488989
 20
22.744590
 30
0.0
  0
SPLINE
  5
119
100
AcDbEntity
  8
Layer_1
 62
7
100
AcDbSpline
 70
8
 71
3
 72
8
 73
4
 74
0
 40
0
 40
0
 40
0
 40
0
 40
1
 40
1
 40
1
 40
1
 10
7.481747
 20
13.923807
 30
0.0
 10
7.348075
 20
13.951188
 30
0.0
 10
7.230877
 20
13.981423
 30
0.0
 10
7.221305
 20
13.990995
 30
0.0
  0
SPLINE
  5
11a
100
AcDbEntity
  8
Layer_1
 62
7
100
AcDbSpline
 70
8
 71
3
 72
8
 73
4
 74
0
 40
0
 40
0
 40
0
 40
0
 40
1
 40
1
 40
1
 40
1
 10
7.221305
 20
13.990995
 30
0.0
 10
7.194494
 20
14.017806
 30
0.0
 10
7.042213
 20
14.737760
 30
0.0
 10
7.059662
 20
14.755209
 30
0.0
  0
SPLINE
  5
11b
100
AcDbEntity
  8
Layer_1
 62
7
100
AcDbSpline
 70
8
 71
3
 72
8
 73
4
 74
0
 40
0
 40
0
 40
0
 40
0
 40
1
 40
1
 40
1
 40
1
 10
7.059662
 20
14.755209
 30
0.0
 10
7.068129
 20
14.763675
 30
0.0
 10
7.170012
 20
14.753035
 30
0.0
 10
7.286068
 20
14.731595
 30
0.0
  0
SPLINE
  5
11c
100
AcDbEntity
  8
Layer_1
 62
7
100
AcDbSpline
 70
8
 71
3
 72
8
 73
4
 74
0
 40
0
 40
0
 40
0
 40
0
 40
1
 40
1
 40
1
 40
1
 10
7.286068
 20
14.731595
 30
0.0
 10
7.402125
 20
14.710140
 30
0.0
 10
7.644631
 20
14.680645
 30
0.0
 10
7.824970
 20
14.666049
 30
0.0
  0
SPLINE
  5
11d
100
AcDbEntity
  8
Layer_1
 62
7
100
AcDbSpline
 70
8
 71
3
 72
8
 73
4
 74
0
 40
0
 40
0
 40
0
 40
0
 40
1
 40
1
 40
1
 40
1
 10
7.824970
 20
14.666049
 30
0.0
 10
8.211849
 20
14.634736
 30
0.0
 10
8.308374
 20
14.683507
 30
0.0
 10
8.367889
 20
14.940371
 30
0.0
  0
SPLINE
  5
11e
100
AcDbEntity
  8
Layer_1
 62
7
100
AcDbSpline
 70
8
 71
3
 72
8
 73
4
 74
0
 40
0
 40
0
 40
0
 40
0
 40
1
 40
1
 40
1
 40
1
 10
8.367889
 20
14.940371
 30
0.0
 10
8.388664
 20
15.030033
 30
0.0
 10
8.404349
 20
16.675941
 30
0.0
 10
8.404884
 20
18.822222
 30
0.0
  0
LWPOLYLINE
  5
11f
100
AcDbEntity
  8
Layer_1
 62
7
100
AcDbPolyline
 90
4
 70
0
 10
2.190528
 20
22.405135
 30
0.0
 10
1.965248
 20
22.164571
 30
0.0
 10
1.692837
 20
22.399880
 30
0.0
 10
1.692837
 20
22.399880
 30
0.0
  0
SPLINE
  5
120
100
AcDbEntity
  8
Layer_1
 62
7
100
AcDbSpline
 70
8
 71
3
 72
8
 73
4
 74
0
 40
0
 40
0
 40
0
 40
0
 40
1
 40
1
 40
1
 40
1
 10
9.222814
 20
18.569269
 30
0.0
 10
9.222658
 20
16.023660
 30
0.0
 10
9.208508
 20
14.539410
 30
0.0
 10
9.183491
 20
14.449346
 30
0.0
  0
SPLINE
  5
121
100
AcDbEntity
  8
Layer_1
 62
7
100
AcDbSpline
 70
8
 71
3
 72
8
 73
4
 74
0
 40
0
 40
0
 40
0
 40
0
 40
1
 40
1
 40
1
 40
1
 10
9.183491
 20
14.449346
 30
0.0
 10
9.124907
 20
14.238440
 30
0.0
 10
8.988593
 20
14.061733
 30
0.0
 10
8.814415
 20
13.970903
 30
0.0
  0
SPLINE
  5
122
100
AcDbEntity
  8
Layer_1
 62
7
100
AcDbSpline
 70
8
 71
3
 72
8
 73
4
 74
0
 40
0
 40
0
 40
0
 40
0
 40
1
 40
1
 40
1
 40
1
 10
8.814415
 20
13.970903
 30
0.0
 10
8.685209
 20
13.903525
 30
0.0
 10
8.579379
 20
13.888394
 30
0.0
 10
8.191762
 20
13.881875
 30
0.0
  0
SPLINE
  5
123
100
AcDbEntity
  8
Layer_1
 62
7
100
AcDbSpline
 70
8
 71
3
 72
8
 73
4
 74
0
 40
0
 40
0
 40
0
 40
0
 40
1
 40
1
 40
1
 40
1
 10
8.191762
 20
13.881875
 30
0.0
 10
7.931239
 20
13.877495
 30
0.0
 10
7.617319
 20
13.896034
 30
0.0
 10
7.481733
 20
13.923807
 30
0.0
  0
LWPOLYLINE
  5
124
100
AcDbEntity
  8
Layer_1
 62
7
100
AcDbPolyline
 90
13
 70
0
 10
8.404884
 20
18.822222
 30
0.0
 10
8.405815
 20
22.548410
 30
0.0
 10
5.817915
 20
22.548410
 30
0.0
 10
3.230014
 20
22.548410
 30
0.0
 10
3.230014
 20
22.937568
 30
0.0
 10
3.230014
 20
23.326726
 30
0.0
 10
6.674062
 20
23.326726
 30
0.0
 10
10.118110
 20
23.326726
 30
0.0
 10
10.118110
 20
22.937568
 30
0.0
 10
10.118110
 20
22.548410
 30
0.0
 10
9.670579
 20
22.548410
 30
0.0
 10
9.223047
 20
22.548410
 30
0.0
 10
9.222814
 20
18.569269
 30
0.0
  0
SPLINE
  5
125
100
AcDbEntity
  8
Layer_1
 62
7
100
AcDbSpline
 70
8
 71
3
 72
8
 73
4
 74
0
 40
0
 40
0
 40
0
 40
0
 40
1
 40
1
 40
1
 40
1
 10
11.422410
 20
15.631126
 30
0.0
 10
11.369312
 20
15.859958
 30
0.0
 10
11.285582
 20
16.293539
 30
0.0
 10
11.285582
 20
16.339664
 30
0.0
  0
SPLINE
  5
126
100
AcDbEntity
  8
Layer_1
 62
7
100
AcDbSpline
 70
8
 71
3
 72
8
 73
4
 74
0
 40
0
 40
0
 40
0
 40
0
 40
1
 40
1
 40
1
 40
1
 10
11.285582
 20
16.339664
 30
0.0
 10
11.285582
 20
16.368051
 30
0.0
 10
11.333740
 20
16.402564
 30
0.0
 10
11.392600
 20
16.416361
 30
0.0
  0
SPLINE
  5
127
100
AcDbEntity
  8
Layer_1
 62
7
100
AcDbSpline
 70
8
 71
3
 72
8
 73
4
 74
0
 40
0
 40
0
 40
0
 40
0
 40
1
 40
1
 40
1
 40
1
 10
11.392600
 20
16.416361
 30
0.0
 10
11.451460
 20
16.430159
 30
0.0
 10
11.722898
 20
16.514507
 30
0.0
 10
11.995795
 20
16.603803
 30
0.0
  0
LWPOLYLINE
  5
128
100
AcDbEntity
  8
Layer_1
 62
7
100
AcDbPolyline
 90
3
 70
0
 10
7.481733
 20
13.923807
 30
0.0
 10
7.481749
 20
13.923807
 30
0.0
 10
7.481747
 20
13.923807
 30
0.0
  0
SPLINE
  5
129
100
AcDbEntity
  8
Layer_1
 62
7
100
AcDbSpline
 70
8
 71
3
 72
8
 73
4
 74
0
 40
0
 40
0
 40
0
 40
0
 40
1
 40
1
 40
1
 40
1
 10
13.688632
 20
17.183997
 30
0.0
 10
13.897318
 20
17.270823
 30
0.0
 10
14.117847
 20
17.367583
 30
0.0
 10
14.178696
 20
17.399020
 30
0.0
  0
SPLINE
  5
12a
100
AcDbEntity
  8
Layer_1
 62
7
100
AcDbSpline
 70
8
 71
3
 72
8
 73
4
 74
0
 40
0
 40
0
 40
0
 40
0
 40
1
 40
1
 40
1
 40
1
 10
14.178696
 20
17.399020
 30
0.0
 10
14.239545
 20
17.430457
 30
0.0
 10
14.296830
 20
17.448680
 30
0.0
 10
14.305995
 20
17.439514
 30
0.0
  0
SPLINE
  5
12b
100
AcDbEntity
  8
Layer_1
 62
7
100
AcDbSpline
 70
8
 71
3
 72
8
 73
4
 74
0
 40
0
 40
0
 40
0
 40
0
 40
1
 40
1
 40
1
 40
1
 10
14.305995
 20
17.439514
 30
0.0
 10
14.321633
 20
17.423876
 30
0.0
 10
14.437593
 20
16.806237
 30
0.0
 10
14.437708
 20
16.737969
 30
0.0
  0
SPLINE
  5
12c
100
AcDbEntity
  8
Layer_1
 62
7
100
AcDbSpline
 70
8
 71
3
 72
8
 73
4
 74
0
 40
0
 40
0
 40
0
 40
0
 40
1
 40
1
 40
1
 40
1
 10
14.437708
 20
16.737969
 30
0.0
 10
14.437774
 20
16.698329
 30
0.0
 10
13.834495
 20
16.415964
 30
0.0
 10
13.165859
 20
16.142682
 30
0.0
  0
SPLINE
  5
12d
100
AcDbEntity
  8
Layer_1
 62
7
100
AcDbSpline
 70
8
 71
3
 72
8
 73
4
 74
0
 40
0
 40
0
 40
0
 40
0
 40
1
 40
1
 40
1
 40
1
 10
13.165859
 20
16.142682
 30
0.0
 10
12.752100
 20
15.973572
 30
0.0
 10
11.527216
 20
15.543565
 30
0.0
 10
11.459260
 20
15.543565
 30
0.0
  0
SPLINE
  5
12e
100
AcDbEntity
  8
Layer_1
 62
7
100
AcDbSpline
 70
8
 71
3
 72
8
 73
4
 74
0
 40
0
 40
0
 40
0
 40
0
 40
1
 40
1
 40
1
 40
1
 10
11.459260
 20
15.543565
 30
0.0
 10
11.450167
 20
15.543565
 30
0.0
 10
11.433584
 20
15.582967
 30
0.0
 10
11.422410
 20
15.631126
 30
0.0
  0
LWPOLYLINE
  5
12f
100
AcDbEntity
  8
Layer_1
 62
7
100
AcDbPolyline
 90
25
 70
0
 10
11.995795
 20
16.603803
 30
0.0
 10
12.491971
 20
16.766159
 30
0.0
 10
12.491971
 20
18.664931
 30
0.0
 10
12.491971
 20
20.563703
 30
0.0
 10
11.947150
 20
20.563703
 30
0.0
 10
11.402329
 20
20.563703
 30
0.0
 10
11.402329
 20
20.952861
 30
0.0
 10
11.402329
 20
21.342019
 30
0.0
 10
11.947150
 20
21.342019
 30
0.0
 10
12.491971
 20
21.342019
 30
0.0
 10
12.491971
 20
22.567867
 30
0.0
 10
12.491971
 20
23.793715
 30
0.0
 10
12.900587
 20
23.793715
 30
0.0
 10
13.309203
 20
23.793715
 30
0.0
 10
13.309203
 20
22.567867
 30
0.0
 10
13.309203
 20
21.342019
 30
0.0
 10
13.892940
 20
21.342019
 30
0.0
 10
14.476677
 20
21.342019
 30
0.0
 10
14.476677
 20
20.952861
 30
0.0
 10
14.476677
 20
20.563703
 30
0.0
 10
13.892940
 20
20.563703
 30
0.0
 10
13.309203
 20
20.563703
 30
0.0
 10
13.309203
 20
18.794918
 30
0.0
 10
13.309203
 20
17.026132
 30
0.0
 10
13.688632
 20
17.183997
 30
0.0
  0
LWPOLYLINE
  5
130
100
AcDbEntity
  8
Layer_1
 62
7
100
AcDbPolyline
 90
2
 70
0
 10
11.422410
 20
15.631126
 30
0.0
 10
11.422410
 20
15.631126
 30
0.0
  0
SPLINE
  5
131
100
AcDbEntity
  8
Layer_1
 62
7
100
AcDbSpline
 70
8
 71
3
 72
8
 73
4
 74
0
 40
0
 40
0
 40
0
 40
0
 40
1
 40
1
 40
1
 40
1
 10
17.314936
 20
14.624463
 30
0.0
 10
17.705337
 20
14.953916
 30
0.0
 10
18.360136
 20
15.636633
 30
0.0
 10
18.655105
 20
16.021772
 30
0.0
  0
SPLINE
  5
132
100
AcDbEntity
  8
Layer_1
 62
7
100
AcDbSpline
 70
8
 71
3
 72
8
 73
4
 74
0
 40
0
 40
0
 40
0
 40
0
 40
1
 40
1
 40
1
 40
1
 10
18.655105
 20
16.021772
 30
0.0
 10
18.824886
 20
16.243455
 30
0.0
 10
18.878449
 20
16.342812
 30
0.0
 10
18.863612
 20
16.408546
 30
0.0
  0
SPLINE
  5
133
100
AcDbEntity
  8
Layer_1
 62
7
100
AcDbSpline
 70
8
 71
3
 72
8
 73
4
 74
0
 40
0
 40
0
 40
0
 40
0
 40
1
 40
1
 40
1
 40
1
 10
18.863612
 20
16.408546
 30
0.0
 10
18.852631
 20
16.457197
 30
0.0
 10
18.789191
 20
16.699820
 30
0.0
 10
18.722635
 20
16.947707
 30
0.0
  0
SPLINE
  5
134
100
AcDbEntity
  8
Layer_1
 62
7
100
AcDbSpline
 70
8
 71
3
 72
8
 73
4
 74
0
 40
0
 40
0
 40
0
 40
0
 40
1
 40
1
 40
1
 40
1
 10
18.722635
 20
16.947707
 30
0.0
 10
18.489417
 20
17.816331
 30
0.0
 10
18.327048
 20
18.999485
 30
0.0
 10
18.250431
 20
20.388582
 30
0.0
  0
SPLINE
  5
135
100
AcDbEntity
  8
Layer_1
 62
7
100
AcDbSpline
 70
8
 71
3
 72
8
 73
4
 74
0
 40
0
 40
0
 40
0
 40
0
 40
1
 40
1
 40
1
 40
1
 10
18.250431
 20
20.388582
 30
0.0
 10
18.226821
 20
20.816656
 30
0.0
 10
18.198819
 20
21.241325
 30
0.0
 10
18.188206
 20
21.332290
 30
0.0
  0
LWPOLYLINE
  5
136
100
AcDbEntity
  8
Layer_1
 62
7
100
AcDbPolyline
 90
3
 70
0
 10
17.270050
 20
14.081003
 30
0.0
 10
17.008533
 20
14.365894
 30
0.0
 10
17.314936
 20
14.624463
 30
0.0
  0
SPLINE
  5
137
100
AcDbEntity
  8
Layer_1
 62
7
100
AcDbSpline
 70
8
 71
3
 72
8
 73
4
 74
0
 40
0
 40
0
 40
0
 40
0
 40
1
 40
1
 40
1
 40
1
 10
17.784519
 20
18.991931
 30
0.0
 10
17.784519
 20
18.534125
 30
0.0
 10
17.766327
 20
17.846775
 30
0.0
 10
17.744091
 20
17.464485
 30
0.0
  0
SPLINE
  5
138
100
AcDbEntity
  8
Layer_1
 62
7
100
AcDbSpline
 70
8
 71
3
 72
8
 73
4
 74
0
 40
0
 40
0
 40
0
 40
0
 40
1
 40
1
 40
1
 40
1
 10
17.744091
 20
17.464485
 30
0.0
 10
17.656288
 20
15.954924
 30
0.0
 10
17.505200
 20
15.568443
 30
0.0
 10
16.937926
 20
15.402335
 30
0.0
  0
SPLINE
  5
139
100
AcDbEntity
  8
Layer_1
 62
7
100
AcDbSpline
 70
8
 71
3
 72
8
 73
4
 74
0
 40
0
 40
0
 40
0
 40
0
 40
1
 40
1
 40
1
 40
1
 10
16.937926
 20
15.402335
 30
0.0
 10
16.746387
 20
15.346249
 30
0.0
 10
16.670256
 20
15.343224
 30
0.0
 10
16.406857
 20
15.381233
 30
0.0
  0
SPLINE
  5
13a
100
AcDbEntity
  8
Layer_1
 62
7
100
AcDbSpline
 70
8
 71
3
 72
8
 73
4
 74
0
 40
0
 40
0
 40
0
 40
0
 40
1
 40
1
 40
1
 40
1
 10
16.406857
 20
15.381233
 30
0.0
 10
16.237744
 20
15.405637
 30
0.0
 10
16.091124
 20
15.433861
 30
0.0
 10
16.081032
 20
15.443952
 30
0.0
  0
SPLINE
  5
13b
100
AcDbEntity
  8
Layer_1
 62
7
100
AcDbSpline
 70
8
 71
3
 72
8
 73
4
 74
0
 40
0
 40
0
 40
0
 40
0
 40
1
 40
1
 40
1
 40
1
 10
16.081032
 20
15.443952
 30
0.0
 10
16.062414
 20
15.462570
 30
0.0
 10
15.920909
 20
16.110562
 30
0.0
 10
15.918094
 20
16.190092
 30
0.0
  0
SPLINE
  5
13c
100
AcDbEntity
  8
Layer_1
 62
7
100
AcDbSpline
 70
8
 71
3
 72
8
 73
4
 74
0
 40
0
 40
0
 40
0
 40
0
 40
1
 40
1
 40
1
 40
1
 10
15.918094
 20
16.190092
 30
0.0
 10
15.916994
 20
16.220917
 30
0.0
 10
15.972965
 20
16.223172
 30
0.0
 10
16.111987
 20
16.197904
 30
0.0
  0
SPLINE
  5
13d
100
AcDbEntity
  8
Layer_1
 62
7
100
AcDbSpline
 70
8
 71
3
 72
8
 73
4
 74
0
 40
0
 40
0
 40
0
 40
0
 40
1
 40
1
 40
1
 40
1
 10
16.111987
 20
16.197904
 30
0.0
 10
16.219472
 20
16.178368
 30
0.0
 10
16.405944
 20
16.167624
 30
0.0
 10
16.526369
 20
16.174031
 30
0.0
  0
SPLINE
  5
13e
100
AcDbEntity
  8
Layer_1
 62
7
100
AcDbSpline
 70
8
 71
3
 72
8
 73
4
 74
0
 40
0
 40
0
 40
0
 40
0
 40
1
 40
1
 40
1
 40
1
 10
16.526369
 20
16.174031
 30
0.0
 10
16.922271
 20
16.195087
 30
0.0
 10
16.948138
 20
16.296860
 30
0.0
 10
16.990156
 20
17.998821
 30
0.0
  0
LWPOLYLINE
  5
13f
100
AcDbEntity
  8
Layer_1
 62
7
100
AcDbPolyline
 90
9
 70
0
 10
18.188206
 20
21.332290
 30
0.0
 10
18.168907
 20
21.497682
 30
0.0
 10
16.945444
 20
21.497682
 30
0.0
 10
15.721981
 20
21.497682
 30
0.0
 10
15.721981
 20
20.660993
 30
0.0
 10
15.721981
 20
19.824303
 30
0.0
 10
16.753250
 20
19.824303
 30
0.0
 10
17.784519
 20
19.824303
 30
0.0
 10
17.784519
 20
18.991931
 30
0.0
  0
SPLINE
  5
140
100
AcDbEntity
  8
Layer_1
 62
7
100
AcDbSpline
 70
8
 71
3
 72
8
 73
4
 74
0
 40
0
 40
0
 40
0
 40
0
 40
1
 40
1
 40
1
 40
1
 10
15.710755
 20
18.277400
 30
0.0
 10
15.681856
 20
17.166889
 30
0.0
 10
15.568704
 20
16.476681
 30
0.0
 10
15.271455
 20
15.597755
 30
0.0
  0
SPLINE
  5
141
100
AcDbEntity
  8
Layer_1
 62
7
100
AcDbSpline
 70
8
 71
3
 72
8
 73
4
 74
0
 40
0
 40
0
 40
0
 40
0
 40
1
 40
1
 40
1
 40
1
 10
15.271455
 20
15.597755
 30
0.0
 10
15.154805
 20
15.252835
 30
0.0
 10
14.744870
 20
14.374876
 30
0.0
 10
14.569991
 20
14.095425
 30
0.0
  0
LWPOLYLINE
  5
142
100
AcDbEntity
  8
Layer_1
 62
7
100
AcDbPolyline
 90
5
 70
0
 10
16.990156
 20
17.998821
 30
0.0
 10
17.017929
 20
19.123819
 30
0.0
 10
16.375356
 20
19.123819
 30
0.0
 10
15.732782
 20
19.123819
 30
0.0
 10
15.710755
 20
18.277400
 30
0.0
  0
SPLINE
  5
143
100
AcDbEntity
  8
Layer_1
 62
7
100
AcDbSpline
 70
8
 71
3
 72
8
 73
4
 74
0
 40
0
 40
0
 40
0
 40
0
 40
1
 40
1
 40
1
 40
1
 10
14.115712
 20
14.113999
 30
0.0
 10
13.928975
 20
14.225071
 30
0.0
 10
13.776190
 20
14.329241
 30
0.0
 10
13.776190
 20
14.345487
 30
0.0
  0
SPLINE
  5
144
100
AcDbEntity
  8
Layer_1
 62
7
100
AcDbSpline
 70
8
 71
3
 72
8
 73
4
 74
0
 40
0
 40
0
 40
0
 40
0
 40
1
 40
1
 40
1
 40
1
 10
13.776190
 20
14.345487
 30
0.0
 10
13.776190
 20
14.361731
 30
0.0
 10
13.856530
 20
14.519740
 30
0.0
 10
13.954724
 20
14.696614
 30
0.0
  0
SPLINE
  5
145
100
AcDbEntity
  8
Layer_1
 62
7
100
AcDbSpline
 70
8
 71
3
 72
8
 73
4
 74
0
 40
0
 40
0
 40
0
 40
0
 40
1
 40
1
 40
1
 40
1
 10
13.954724
 20
14.696614
 30
0.0
 10
14.429360
 20
15.551561
 30
0.0
 10
14.749797
 20
16.536977
 30
0.0
 10
14.907160
 20
17.625560
 30
0.0
  0
SPLINE
  5
146
100
AcDbEntity
  8
Layer_1
 62
7
100
AcDbSpline
 70
8
 71
3
 72
8
 73
4
 74
0
 40
0
 40
0
 40
0
 40
0
 40
1
 40
1
 40
1
 40
1
 10
14.907160
 20
17.625560
 30
0.0
 10
14.934704
 20
17.816115
 30
0.0
 10
14.959544
 20
18.770971
 30
0.0
 10
14.971188
 20
20.086985
 30
0.0
  0
LWPOLYLINE
  5
147
100
AcDbEntity
  8
Layer_1
 62
7
100
AcDbPolyline
 90
3
 70
0
 10
14.569991
 20
14.095425
 30
0.0
 10
14.455235
 20
13.912050
 30
0.0
 10
14.115712
 20
14.113999
 30
0.0
  0
SPLINE
  5
148
100
AcDbEntity
  8
Layer_1
 62
7
100
AcDbSpline
 70
8
 71
3
 72
8
 73
4
 74
0
 40
0
 40
0
 40
0
 40
0
 40
1
 40
1
 40
1
 40
1
 10
19.006940
 20
20.845843
 30
0.0
 10
19.064423
 20
19.428505
 30
0.0
 10
19.221297
 20
17.892833
 30
0.0
 10
19.353792
 20
17.450440
 30
0.0
  0
LWPOLYLINE
  5
149
100
AcDbEntity
  8
Layer_1
 62
7
100
AcDbPolyline
 90
17
 70
0
 10
14.971188
 20
20.086985
 30
0.0
 10
14.990213
 20
22.237083
 30
0.0
 10
16.586899
 20
22.237083
 30
0.0
 10
18.183584
 20
22.237083
 30
0.0
 10
18.155094
 20
23.093230
 30
0.0
 10
18.126602
 20
23.949378
 30
0.0
 10
18.558756
 20
23.949378
 30
0.0
 10
18.990910
 20
23.949378
 30
0.0
 10
18.990910
 20
23.093230
 30
0.0
 10
18.990910
 20
22.237083
 30
0.0
 10
20.177842
 20
22.237083
 30
0.0
 10
21.364773
 20
22.237083
 30
0.0
 10
21.364773
 20
21.867383
 30
0.0
 10
21.364773
 20
21.497682
 30
0.0
 10
20.172639
 20
21.497682
 30
0.0
 10
18.980504
 20
21.497682
 30
0.0
 10
19.006940
 20
20.845843
 30
0.0
  0
SPLINE
  5
14a
100
AcDbEntity
  8
Layer_1
 62
7
100
AcDbSpline
 70
8
 71
3
 72
8
 73
4
 74
0
 40
0
 40
0
 40
0
 40
0
 40
1
 40
1
 40
1
 40
1
 10
19.474915
 20
17.430981
 30
0.0
 10
19.714349
 20
17.973699
 30
0.0
 10
20.177945
 20
19.621809
 30
0.0
 10
20.260410
 20
20.223464
 30
0.0
  0
SPLINE
  5
14b
100
AcDbEntity
  8
Layer_1
 62
7
100
AcDbSpline
 70
8
 71
3
 72
8
 73
4
 74
0
 40
0
 40
0
 40
0
 40
0
 40
1
 40
1
 40
1
 40
1
 10
20.260410
 20
20.223464
 30
0.0
 10
20.276229
 20
20.338867
 30
0.0
 10
20.305189
 20
20.408040
 30
0.0
 10
20.337687
 20
20.408040
 30
0.0
  0
SPLINE
  5
14c
100
AcDbEntity
  8
Layer_1
 62
7
100
AcDbSpline
 70
8
 71
3
 72
8
 73
4
 74
0
 40
0
 40
0
 40
0
 40
0
 40
1
 40
1
 40
1
 40
1
 10
20.337687
 20
20.408040
 30
0.0
 10
20.422810
 20
20.408040
 30
0.0
 10
20.992769
 20
20.281238
 30
0.0
 10
21.022787
 20
20.255623
 30
0.0
  0
SPLINE
  5
14d
100
AcDbEntity
  8
Layer_1
 62
7
100
AcDbSpline
 70
8
 71
3
 72
8
 73
4
 74
0
 40
0
 40
0
 40
0
 40
0
 40
1
 40
1
 40
1
 40
1
 10
21.022787
 20
20.255623
 30
0.0
 10
21.061796
 20
20.222334
 30
0.0
 10
20.815479
 20
19.103350
 30
0.0
 10
20.610799
 20
18.384013
 30
0.0
  0
SPLINE
  5
14e
100
AcDbEntity
  8
Layer_1
 62
7
100
AcDbSpline
 70
8
 71
3
 72
8
 73
4
 74
0
 40
0
 40
0
 40
0
 40
0
 40
1
 40
1
 40
1
 40
1
 10
20.610799
 20
18.384013
 30
0.0
 10
20.397019
 20
17.632696
 30
0.0
 10
20.212509
 20
17.130538
 30
0.0
 10
19.939694
 20
16.557554
 30
0.0
  0
LWPOLYLINE
  5
14f
100
AcDbEntity
  8
Layer_1
 62
7
100
AcDbPolyline
 90
3
 70
0
 10
19.353792
 20
17.450440
 30
0.0
 10
19.406240
 20
17.275318
 30
0.0
 10
19.474915
 20
17.430981
 30
0.0
  0
SPLINE
  5
150
100
AcDbEntity
  8
Layer_1
 62
7
100
AcDbSpline
 70
8
 71
3
 72
8
 73
4
 74
0
 40
0
 40
0
 40
0
 40
0
 40
1
 40
1
 40
1
 40
1
 10
19.963358
 20
15.632437
 30
0.0
 10
20.294991
 20
14.957430
 30
0.0
 10
20.566951
 20
14.683630
 30
0.0
 10
20.660438
 20
14.930642
 30
0.0
  0
SPLINE
  5
151
100
AcDbEntity
  8
Layer_1
 62
7
100
AcDbSpline
 70
8
 71
3
 72
8
 73
4
 74
0
 40
0
 40
0
 40
0
 40
0
 40
1
 40
1
 40
1
 40
1
 10
20.660438
 20
14.930642
 30
0.0
 10
20.709460
 20
15.060170
 30
0.0
 10
20.774667
 20
15.614895
 30
0.0
 10
20.804697
 20
16.157867
 30
0.0
  0
SPLINE
  5
152
100
AcDbEntity
  8
Layer_1
 62
7
100
AcDbSpline
 70
8
 71
3
 72
8
 73
4
 74
0
 40
0
 40
0
 40
0
 40
0
 40
1
 40
1
 40
1
 40
1
 10
20.804697
 20
16.157867
 30
0.0
 10
20.822680
 20
16.483014
 30
0.0
 10
20.844911
 20
16.630331
 30
0.0
 10
20.874190
 20
16.618355
 30
0.0
  0
SPLINE
  5
153
100
AcDbEntity
  8
Layer_1
 62
7
100
AcDbSpline
 70
8
 71
3
 72
8
 73
4
 74
0
 40
0
 40
0
 40
0
 40
0
 40
1
 40
1
 40
1
 40
1
 10
20.874190
 20
16.618355
 30
0.0
 10
20.897868
 20
16.608669
 30
0.0
 10
21.083606
 20
16.544370
 30
0.0
 10
21.286941
 20
16.475466
 30
0.0
  0
SPLINE
  5
154
100
AcDbEntity
  8
Layer_1
 62
7
100
AcDbSpline
 70
8
 71
3
 72
8
 73
4
 74
0
 40
0
 40
0
 40
0
 40
0
 40
1
 40
1
 40
1
 40
1
 10
21.286941
 20
16.475466
 30
0.0
 10
21.490276
 20
16.406563
 30
0.0
 10
21.662302
 20
16.345455
 30
0.0
 10
21.669220
 20
16.339670
 30
0.0
  0
SPLINE
  5
155
100
AcDbEntity
  8
Layer_1
 62
7
100
AcDbSpline
 70
8
 71
3
 72
8
 73
4
 74
0
 40
0
 40
0
 40
0
 40
0
 40
1
 40
1
 40
1
 40
1
 10
21.669220
 20
16.339670
 30
0.0
 10
21.695698
 20
16.317533
 30
0.0
 10
21.547631
 20
15.429563
 30
0.0
 10
21.459569
 20
15.082386
 30
0.0
  0
SPLINE
  5
156
100
AcDbEntity
  8
Layer_1
 62
7
100
AcDbSpline
 70
8
 71
3
 72
8
 73
4
 74
0
 40
0
 40
0
 40
0
 40
0
 40
1
 40
1
 40
1
 40
1
 10
21.459569
 20
15.082386
 30
0.0
 10
21.222735
 20
14.148692
 30
0.0
 10
20.817586
 20
13.708418
 30
0.0
 10
20.395886
 20
13.926487
 30
0.0
  0
SPLINE
  5
157
100
AcDbEntity
  8
Layer_1
 62
7
100
AcDbSpline
 70
8
 71
3
 72
8
 73
4
 74
0
 40
0
 40
0
 40
0
 40
0
 40
1
 40
1
 40
1
 40
1
 10
20.395886
 20
13.926487
 30
0.0
 10
20.099863
 20
14.079566
 30
0.0
 10
19.755175
 20
14.478722
 30
0.0
 10
19.436340
 20
15.037660
 30
0.0
  0
SPLINE
  5
158
100
AcDbEntity
  8
Layer_1
 62
7
100
AcDbSpline
 70
8
 71
3
 72
8
 73
4
 74
0
 40
0
 40
0
 40
0
 40
0
 40
1
 40
1
 40
1
 40
1
 10
19.436340
 20
15.037660
 30
0.0
 10
19.332561
 20
15.219591
 30
0.0
 10
19.240910
 20
15.377200
 30
0.0
 10
19.232671
 20
15.387902
 30
0.0
  0
SPLINE
  5
159
100
AcDbEntity
  8
Layer_1
 62
7
100
AcDbSpline
 70
8
 71
3
 72
8
 73
4
 74
0
 40
0
 40
0
 40
0
 40
0
 40
1
 40
1
 40
1
 40
1
 10
19.232671
 20
15.387902
 30
0.0
 10
19.224433
 20
15.398604
 30
0.0
 10
19.162966
 20
15.337312
 30
0.0
 10
19.096080
 20
15.251697
 30
0.0
  0
SPLINE
  5
15a
100
AcDbEntity
  8
Layer_1
 62
7
100
AcDbSpline
 70
8
 71
3
 72
8
 73
4
 74
0
 40
0
 40
0
 40
0
 40
0
 40
1
 40
1
 40
1
 40
1
 10
19.096080
 20
15.251697
 30
0.0
 10
18.873753
 20
14.967116
 30
0.0
 10
18.236503
 20
14.331324
 30
0.0
 10
17.901685
 20
14.060036
 30
0.0
  0
SPLINE
  5
15b
100
AcDbEntity
  8
Layer_1
 62
7
100
AcDbSpline
 70
8
 71
3
 72
8
 73
4
 74
0
 40
0
 40
0
 40
0
 40
0
 40
1
 40
1
 40
1
 40
1
 10
17.901685
 20
14.060036
 30
0.0
 10
17.719984
 20
13.912811
 30
0.0
 10
17.562375
 20
13.793200
 30
0.0
 10
17.551443
 20
13.794233
 30
0.0
  0
SPLINE
  5
15c
100
AcDbEntity
  8
Layer_1
 62
7
100
AcDbSpline
 70
8
 71
3
 72
8
 73
4
 74
0
 40
0
 40
0
 40
0
 40
0
 40
1
 40
1
 40
1
 40
1
 10
17.551443
 20
13.794233
 30
0.0
 10
17.540512
 20
13.795277
 30
0.0
 10
17.413884
 20
13.924313
 30
0.0
 10
17.270049
 20
14.081003
 30
0.0
  0
LWPOLYLINE
  5
15d
100
AcDbEntity
  8
Layer_1
 62
7
100
AcDbPolyline
 90
3
 70
0
 10
19.939694
 20
16.557554
 30
0.0
 10
19.727648
 20
16.112200
 30
0.0
 10
19.963358
 20
15.632437
 30
0.0
  0
SPLINE
  5
15e
100
AcDbEntity
  8
Layer_1
 62
7
100
AcDbSpline
 70
8
 71
3
 72
8
 73
4
 74
0
 40
0
 40
0
 40
0
 40
0
 40
1
 40
1
 40
1
 40
1
 10
20.266222
 20
22.679736
 30
0.0
 10
20.186409
 20
22.789438
 30
0.0
 10
19.990774
 20
23.027350
 30
0.0
 10
19.831478
 20
23.208430
 30
0.0
  0
LWPOLYLINE
  5
15f
100
AcDbEntity
  8
Layer_1
 62
7
100
AcDbPolyline
 90
3
 70
0
 10
17.270049
 20
14.081003
 30
0.0
 10
17.270049
 20
14.081003
 30
0.0
 10
17.270050
 20
14.081003
 30
0.0
  0
SPLINE
  5
160
100
AcDbEntity
  8
Layer_1
 62
7
100
AcDbSpline
 70
8
 71
3
 72
8
 73
4
 74
0
 40
0
 40
0
 40
0
 40
0
 40
1
 40
1
 40
1
 40
1
 10
20.247502
 20
23.842626
 30
0.0
 10
20.396510
 20
23.701643
 30
0.0
 10
20.975615
 20
22.983593
 30
0.0
 10
20.975615
 20
22.939817
 30
0.0
  0
SPLINE
  5
161
100
AcDbEntity
  8
Layer_1
 62
7
100
AcDbSpline
 70
8
 71
3
 72
8
 73
4
 74
0
 40
0
 40
0
 40
0
 40
0
 40
1
 40
1
 40
1
 40
1
 10
20.975615
 20
22.939817
 30
0.0
 10
20.975615
 20
22.910582
 30
0.0
 10
20.563130
 20
22.567294
 30
0.0
 10
20.450252
 20
22.502587
 30
0.0
  0
SPLINE
  5
162
100
AcDbEntity
  8
Layer_1
 62
7
100
AcDbSpline
 70
8
 71
3
 72
8
 73
4
 74
0
 40
0
 40
0
 40
0
 40
0
 40
1
 40
1
 40
1
 40
1
 10
20.450252
 20
22.502587
 30
0.0
 10
20.428848
 20
22.490318
 30
0.0
 10
20.346035
 20
22.570035
 30
0.0
 10
20.266222
 20
22.679736
 30
0.0
  0
LWPOLYLINE
  5
163
100
AcDbEntity
  8
Layer_1
 62
7
100
AcDbPolyline
 90
5
 70
0
 10
19.831478
 20
23.208430
 30
0.0
 10
19.541848
 20
23.537666
 30
0.0
 10
19.837980
 20
23.743788
 30
0.0
 10
20.134111
 20
23.949910
 30
0.0
 10
20.247502
 20
23.842626
 30
0.0
  0
SPLINE
  5
164
100
AcDbEntity
  8
Layer_1
 62
7
100
AcDbSpline
 70
8
 71
3
 72
8
 73
4
 74
0
 40
0
 40
0
 40
0
 40
0
 40
1
 40
1
 40
1
 40
1
 10
24.336221
 20
3.118293
 30
0.0
 10
24.283561
 20
3.793211
 30
0.0
 10
24.295665
 20
6.695608
 30
0.0
 10
24.353552
 20
7.273958
 30
0.0
  0
SPLINE
  5
165
100
AcDbEntity
  8
Layer_1
 62
7
100
AcDbSpline
 70
8
 71
3
 72
8
 73
4
 74
0
 40
0
 40
0
 40
0
 40
0
 40
1
 40
1
 40
1
 40
1
 10
24.353552
 20
7.273958
 30
0.0
 10
24.424207
 20
7.979877
 30
0.0
 10
24.555125
 20
8.902670
 30
0.0
 10
24.589598
 20
8.937751
 30
0.0
  0
SPLINE
  5
166
100
AcDbEntity
  8
Layer_1
 62
7
100
AcDbSpline
 70
8
 71
3
 72
8
 73
4
 74
0
 40
0
 40
0
 40
0
 40
0
 40
1
 40
1
 40
1
 40
1
 10
24.589598
 20
8.937751
 30
0.0
 10
24.605451
 20
8.953883
 30
0.0
 10
24.828254
 20
8.938823
 30
0.0
 10
25.084720
 20
8.904265
 30
0.0
  0
LWPOLYLINE
  5
167
100
AcDbEntity
  8
Layer_1
 62
7
100
AcDbPolyline
 90
2
 70
0
 10
20.266222
 20
22.679736
 30
0.0
 10
20.266222
 20
22.679736
 30
0.0
  0
SPLINE
  5
168
100
AcDbEntity
  8
Layer_1
 62
7
100
AcDbSpline
 70
8
 71
3
 72
8
 73
4
 74
0
 40
0
 40
0
 40
0
 40
0
 40
1
 40
1
 40
1
 40
1
 10
25.484170
 20
8.291198
 30
0.0
 10
25.334907
 20
7.062604
 30
0.0
 10
25.314708
 20
6.632227
 30
0.0
 10
25.316559
 20
4.719970
 30
0.0
  0
LWPOLYLINE
  5
169
100
AcDbEntity
  8
Layer_1
 62
7
100
AcDbPolyline
 90
3
 70
0
 10
25.084720
 20
8.904265
 30
0.0
 10
25.551020
 20
8.841449
 30
0.0
 10
25.484170
 20
8.291198
 30
0.0
  0
SPLINE
  5
16a
100
AcDbEntity
  8
Layer_1
 62
7
100
AcDbSpline
 70
8
 71
3
 72
8
 73
4
 74
0
 40
0
 40
0
 40
0
 40
0
 40
1
 40
1
 40
1
 40
1
 10
24.907946
 20
2.781083
 30
0.0
 10
24.682200
 20
2.755525
 30
0.0
 10
24.468580
 20
2.726499
 30
0.0
 10
24.433236
 20
2.716580
 30
0.0
  0
SPLINE
  5
16b
100
AcDbEntity
  8
Layer_1
 62
7
100
AcDbSpline
 70
8
 71
3
 72
8
 73
4
 74
0
 40
0
 40
0
 40
0
 40
0
 40
1
 40
1
 40
1
 40
1
 10
24.433236
 20
2.716580
 30
0.0
 10
24.377718
 20
2.700998
 30
0.0
 10
24.364518
 20
2.755660
 30
0.0
 10
24.336223
 20
3.118293
 30
0.0
  0
LWPOLYLINE
  5
16c
100
AcDbEntity
  8
Layer_1
 62
7
100
AcDbPolyline
 90
3
 70
0
 10
25.316559
 20
4.719970
 30
0.0
 10
25.318393
 20
2.827551
 30
0.0
 10
24.907946
 20
2.781083
 30
0.0
  0
SPLINE
  5
16d
100
AcDbEntity
  8
Layer_1
 62
7
100
AcDbSpline
 70
8
 71
3
 72
8
 73
4
 74
0
 40
0
 40
0
 40
0
 40
0
 40
1
 40
1
 40
1
 40
1
 10
26.529096
 20
0.474933
 30
0.0
 10
26.391406
 20
0.725595
 30
0.0
 10
26.280746
 20
0.933581
 30
0.0
 10
26.283186
 20
0.937123
 30
0.0
  0
SPLINE
  5
16e
100
AcDbEntity
  8
Layer_1
 62
7
100
AcDbSpline
 70
8
 71
3
 72
8
 73
4
 74
0
 40
0
 40
0
 40
0
 40
0
 40
1
 40
1
 40
1
 40
1
 10
26.283186
 20
0.937123
 30
0.0
 10
26.285613
 20
0.940664
 30
0.0
 10
26.495722
 20
0.990225
 30
0.0
 10
26.750065
 20
1.047256
 30
0.0
  0
SPLINE
  5
16f
100
AcDbEntity
  8
Layer_1
 62
7
100
AcDbSpline
 70
8
 71
3
 72
8
 73
4
 74
0
 40
0
 40
0
 40
0
 40
0
 40
1
 40
1
 40
1
 40
1
 10
26.750065
 20
1.047256
 30
0.0
 10
27.901947
 20
1.305542
 30
0.0
 10
28.729059
 20
1.713139
 30
0.0
 10
29.234344
 20
2.271497
 30
0.0
  0
SPLINE
  5
170
100
AcDbEntity
  8
Layer_1
 62
7
100
AcDbSpline
 70
8
 71
3
 72
8
 73
4
 74
0
 40
0
 40
0
 40
0
 40
0
 40
1
 40
1
 40
1
 40
1
 10
29.234344
 20
2.271497
 30
0.0
 10
29.816081
 20
2.914336
 30
0.0
 10
30.081449
 20
4.091181
 30
0.0
 10
30.081779
 20
6.029674
 30
0.0
  0
SPLINE
  5
171
100
AcDbEntity
  8
Layer_1
 62
7
100
AcDbSpline
 70
8
 71
3
 72
8
 73
4
 74
0
 40
0
 40
0
 40
0
 40
0
 40
1
 40
1
 40
1
 40
1
 10
30.081779
 20
6.029674
 30
0.0
 10
30.081926
 20
6.893858
 30
0.0
 10
30.040842
 20
7.339084
 30
0.0
 10
29.924979
 20
7.728883
 30
0.0
  0
SPLINE
  5
172
100
AcDbEntity
  8
Layer_1
 62
7
100
AcDbSpline
 70
8
 71
3
 72
8
 73
4
 74
0
 40
0
 40
0
 40
0
 40
0
 40
1
 40
1
 40
1
 40
1
 10
29.924979
 20
7.728883
 30
0.0
 10
29.806908
 20
8.126114
 30
0.0
 10
29.549282
 20
8.355793
 30
0.0
 10
29.293730
 20
8.291654
 30
0.0
  0
SPLINE
  5
173
100
AcDbEntity
  8
Layer_1
 62
7
100
AcDbSpline
 70
8
 71
3
 72
8
 73
4
 74
0
 40
0
 40
0
 40
0
 40
0
 40
1
 40
1
 40
1
 40
1
 10
29.293730
 20
8.291654
 30
0.0
 10
29.156996
 20
8.257336
 30
0.0
 10
28.696169
 20
7.857947
 30
0.0
 10
28.496220
 20
7.600473
 30
0.0
  0
LWPOLYLINE
  5
174
100
AcDbEntity
  8
Layer_1
 62
7
100
AcDbPolyline
 90
3
 70
0
 10
24.336223
 20
3.118293
 30
0.0
 10
24.336223
 20
3.118293
 30
0.0
 10
24.336221
 20
3.118293
 30
0.0
  0
SPLINE
  5
175
100
AcDbEntity
  8
Layer_1
 62
7
100
AcDbSpline
 70
8
 71
3
 72
8
 73
4
 74
0
 40
0
 40
0
 40
0
 40
0
 40
1
 40
1
 40
1
 40
1
 10
27.767097
 20
8.139048
 30
0.0
 10
27.905733
 20
8.401217
 30
0.0
 10
28.514669
 20
8.973185
 30
0.0
 10
28.815117
 20
9.123443
 30
0.0
  0
SPLINE
  5
176
100
AcDbEntity
  8
Layer_1
 62
7
100
AcDbSpline
 70
8
 71
3
 72
8
 73
4
 74
0
 40
0
 40
0
 40
0
 40
0
 40
1
 40
1
 40
1
 40
1
 10
28.815117
 20
9.123443
 30
0.0
 10
29.060524
 20
9.246176
 30
0.0
 10
29.116232
 20
9.258664
 30
0.0
 10
29.418311
 20
9.258664
 30
0.0
  0
SPLINE
  5
177
100
AcDbEntity
  8
Layer_1
 62
7
100
AcDbSpline
 70
8
 71
3
 72
8
 73
4
 74
0
 40
0
 40
0
 40
0
 40
0
 40
1
 40
1
 40
1
 40
1
 10
29.418311
 20
9.258664
 30
0.0
 10
29.695529
 20
9.258664
 30
0.0
 10
29.786885
 20
9.241807
 30
0.0
 10
29.965165
 20
9.157753
 30
0.0
  0
SPLINE
  5
178
100
AcDbEntity
  8
Layer_1
 62
7
100
AcDbSpline
 70
8
 71
3
 72
8
 73
4
 74
0
 40
0
 40
0
 40
0
 40
0
 40
1
 40
1
 40
1
 40
1
 10
29.965165
 20
9.157753
 30
0.0
 10
30.537333
 20
8.887997
 30
0.0
 10
30.914140
 20
8.169884
 30
0.0
 10
31.053696
 20
7.083246
 30
0.0
  0
SPLINE
  5
179
100
AcDbEntity
  8
Layer_1
 62
7
100
AcDbSpline
 70
8
 71
3
 72
8
 73
4
 74
0
 40
0
 40
0
 40
0
 40
0
 40
1
 40
1
 40
1
 40
1
 10
31.053696
 20
7.083246
 30
0.0
 10
31.109333
 20
6.650040
 30
0.0
 10
31.109522
 20
5.140267
 30
0.0
 10
31.053978
 20
4.558716
 30
0.0
  0
SPLINE
  5
17a
100
AcDbEntity
  8
Layer_1
 62
7
100
AcDbSpline
 70
8
 71
3
 72
8
 73
4
 74
0
 40
0
 40
0
 40
0
 40
0
 40
1
 40
1
 40
1
 40
1
 10
31.053978
 20
4.558716
 30
0.0
 10
30.932428
 20
3.285309
 30
0.0
 10
30.669577
 20
2.430330
 30
0.0
 10
30.221360
 20
1.850448
 30
0.0
  0
SPLINE
  5
17b
100
AcDbEntity
  8
Layer_1
 62
7
100
AcDbSpline
 70
8
 71
3
 72
8
 73
4
 74
0
 40
0
 40
0
 40
0
 40
0
 40
1
 40
1
 40
1
 40
1
 10
30.221360
 20
1.850448
 30
0.0
 10
29.591474
 20
1.035530
 30
0.0
 10
28.635317
 20
0.460613
 30
0.0
 10
27.404943
 20
0.156999
 30
0.0
  0
SPLINE
  5
17c
100
AcDbEntity
  8
Layer_1
 62
7
100
AcDbSpline
 70
8
 71
3
 72
8
 73
4
 74
0
 40
0
 40
0
 40
0
 40
0
 40
1
 40
1
 40
1
 40
1
 10
27.404943
 20
0.156999
 30
0.0
 10
26.716924
 20
-0.012780
 30
0.0
 10
26.816900
 20
-0.049070
 30
0.0
 10
26.529063
 20
0.474933
 30
0.0
  0
LWPOLYLINE
  5
17d
100
AcDbEntity
  8
Layer_1
 62
7
100
AcDbPolyline
 90
5
 70
0
 10
28.496220
 20
7.600473
 30
0.0
 10
28.315423
 20
7.367657
 30
0.0
 10
28.002682
 20
7.680399
 30
0.0
 10
27.689940
 20
7.993140
 30
0.0
 10
27.767097
 20
8.139048
 30
0.0
  0
SPLINE
  5
17e
100
AcDbEntity
  8
Layer_1
 62
7
100
AcDbSpline
 70
8
 71
3
 72
8
 73
4
 74
0
 40
0
 40
0
 40
0
 40
0
 40
1
 40
1
 40
1
 40
1
 10
15.788323
 20
0.367205
 30
0.0
 10
14.830810
 20
0.452837
 30
0.0
 10
14.036115
 20
0.651994
 30
0.0
 10
13.596595
 20
0.916468
 30
0.0
  0
SPLINE
  5
17f
100
AcDbEntity
  8
Layer_1
 62
7
100
AcDbSpline
 70
8
 71
3
 72
8
 73
4
 74
0
 40
0
 40
0
 40
0
 40
0
 40
1
 40
1
 40
1
 40
1
 10
13.596595
 20
0.916468
 30
0.0
 10
13.157976
 20
1.180401
 30
0.0
 10
12.794261
 20
1.690737
 30
0.0
 10
12.690640
 20
2.187633
 30
0.0
  0
SPLINE
  5
180
100
AcDbEntity
  8
Layer_1
 62
7
100
AcDbSpline
 70
8
 71
3
 72
8
 73
4
 74
0
 40
0
 40
0
 40
0
 40
0
 40
1
 40
1
 40
1
 40
1
 10
12.690640
 20
2.187633
 30
0.0
 10
12.629208
 20
2.482220
 30
0.0
 10
12.637546
 20
3.035075
 30
0.0
 10
12.707508
 20
3.306099
 30
0.0
  0
SPLINE
  5
181
100
AcDbEntity
  8
Layer_1
 62
7
100
AcDbSpline
 70
8
 71
3
 72
8
 73
4
 74
0
 40
0
 40
0
 40
0
 40
0
 40
1
 40
1
 40
1
 40
1
 10
12.707508
 20
3.306099
 30
0.0
 10
12.905747
 20
4.074045
 30
0.0
 10
13.510403
 20
4.765140
 30
0.0
 10
14.466866
 20
5.316969
 30
0.0
  0
SPLINE
  5
182
100
AcDbEntity
  8
Layer_1
 62
7
100
AcDbSpline
 70
8
 71
3
 72
8
 73
4
 74
0
 40
0
 40
0
 40
0
 40
0
 40
1
 40
1
 40
1
 40
1
 10
14.466866
 20
5.316969
 30
0.0
 10
14.654193
 20
5.425047
 30
0.0
 10
14.884253
 20
5.546599
 30
0.0
 10
14.978109
 20
5.587084
 30
0.0
  0
LWPOLYLINE
  5
183
100
AcDbEntity
  8
Layer_1
 62
7
100
AcDbPolyline
 90
3
 70
0
 10
26.529063
 20
0.474933
 30
0.0
 10
26.529065
 20
0.474933
 30
0.0
 10
26.529096
 20
0.474933
 30
0.0
  0
SPLINE
  5
184
100
AcDbEntity
  8
Layer_1
 62
7
100
AcDbSpline
 70
8
 71
3
 72
8
 73
4
 74
0
 40
0
 40
0
 40
0
 40
0
 40
1
 40
1
 40
1
 40
1
 10
15.125406
 20
5.864130
 30
0.0
 10
15.013109
 20
6.842460
 30
0.0
 10
14.832691
 20
9.459551
 30
0.0
 10
14.875243
 20
9.492909
 30
0.0
  0
SPLINE
  5
185
100
AcDbEntity
  8
Layer_1
 62
7
100
AcDbSpline
 70
8
 71
3
 72
8
 73
4
 74
0
 40
0
 40
0
 40
0
 40
0
 40
1
 40
1
 40
1
 40
1
 10
14.875243
 20
9.492909
 30
0.0
 10
14.880769
 20
9.497241
 30
0.0
 10
15.098583
 20
9.511767
 30
0.0
 10
15.359271
 20
9.525184
 30
0.0
  0
LWPOLYLINE
  5
186
100
AcDbEntity
  8
Layer_1
 62
7
100
AcDbPolyline
 90
3
 70
0
 10
14.978109
 20
5.587084
 30
0.0
 10
15.148757
 20
5.660692
 30
0.0
 10
15.125406
 20
5.864130
 30
0.0
  0
SPLINE
  5
187
100
AcDbEntity
  8
Layer_1
 62
7
100
AcDbSpline
 70
8
 71
3
 72
8
 73
4
 74
0
 40
0
 40
0
 40
0
 40
0
 40
1
 40
1
 40
1
 40
1
 10
15.853800
 20
9.345747
 30
0.0
 10
15.865103
 20
9.233640
 30
0.0
 10
15.883817
 20
8.844209
 30
0.0
 10
15.895385
 20
8.480347
 30
0.0
  0
SPLINE
  5
188
100
AcDbEntity
  8
Layer_1
 62
7
100
AcDbSpline
 70
8
 71
3
 72
8
 73
4
 74
0
 40
0
 40
0
 40
0
 40
0
 40
1
 40
1
 40
1
 40
1
 10
15.895385
 20
8.480347
 30
0.0
 10
15.915428
 20
7.849912
 30
0.0
 10
15.978143
 20
7.124975
 30
0.0
 10
16.075832
 20
6.394514
 30
0.0
  0
LWPOLYLINE
  5
189
100
AcDbEntity
  8
Layer_1
 62
7
100
AcDbPolyline
 90
3
 70
0
 10
15.359271
 20
9.525184
 30
0.0
 10
15.833249
 20
9.549579
 30
0.0
 10
15.853800
 20
9.345747
 30
0.0
  0
SPLINE
  5
18a
100
AcDbEntity
  8
Layer_1
 62
7
100
AcDbSpline
 70
8
 71
3
 72
8
 73
4
 74
0
 40
0
 40
0
 40
0
 40
0
 40
1
 40
1
 40
1
 40
1
 10
16.631496
 20
6.211480
 30
0.0
 10
17.452986
 20
6.455217
 30
0.0
 10
20.047697
 20
7.137752
 30
0.0
 10
20.152793
 20
7.137752
 30
0.0
  0
SPLINE
  5
18b
100
AcDbEntity
  8
Layer_1
 62
7
100
AcDbSpline
 70
8
 71
3
 72
8
 73
4
 74
0
 40
0
 40
0
 40
0
 40
0
 40
1
 40
1
 40
1
 40
1
 10
20.152793
 20
7.137752
 30
0.0
 10
20.187410
 20
7.137752
 30
0.0
 10
20.489291
 20
6.247045
 30
0.0
 10
20.462396
 20
6.224258
 30
0.0
  0
SPLINE
  5
18c
100
AcDbEntity
  8
Layer_1
 62
7
100
AcDbSpline
 70
8
 71
3
 72
8
 73
4
 74
0
 40
0
 40
0
 40
0
 40
0
 40
1
 40
1
 40
1
 40
1
 10
20.462396
 20
6.224258
 30
0.0
 10
20.455716
 20
6.218599
 30
0.0
 10
20.314671
 20
6.184242
 30
0.0
 10
20.148961
 20
6.147910
 30
0.0
  0
SPLINE
  5
18d
100
AcDbEntity
  8
Layer_1
 62
7
100
AcDbSpline
 70
8
 71
3
 72
8
 73
4
 74
0
 40
0
 40
0
 40
0
 40
0
 40
1
 40
1
 40
1
 40
1
 10
20.148961
 20
6.147910
 30
0.0
 10
19.095797
 20
5.917005
 30
0.0
 10
16.939450
 20
5.289914
 30
0.0
 10
16.033308
 20
4.951030
 30
0.0
  0
SPLINE
  5
18e
100
AcDbEntity
  8
Layer_1
 62
7
100
AcDbSpline
 70
8
 71
3
 72
8
 73
4
 74
0
 40
0
 40
0
 40
0
 40
0
 40
1
 40
1
 40
1
 40
1
 10
16.033308
 20
4.951030
 30
0.0
 10
14.798227
 20
4.489127
 30
0.0
 10
14.028276
 20
3.953105
 30
0.0
 10
13.716768
 20
3.338309
 30
0.0
  0
SPLINE
  5
18f
100
AcDbEntity
  8
Layer_1
 62
7
100
AcDbSpline
 70
8
 71
3
 72
8
 73
4
 74
0
 40
0
 40
0
 40
0
 40
0
 40
1
 40
1
 40
1
 40
1
 10
13.716768
 20
3.338309
 30
0.0
 10
13.611385
 20
3.130323
 30
0.0
 10
13.601071
 20
3.075274
 30
0.0
 10
13.601071
 20
2.720808
 30
0.0
  0
SPLINE
  5
190
100
AcDbEntity
  8
Layer_1
 62
7
100
AcDbSpline
 70
8
 71
3
 72
8
 73
4
 74
0
 40
0
 40
0
 40
0
 40
0
 40
1
 40
1
 40
1
 40
1
 10
13.601071
 20
2.720808
 30
0.0
 10
13.601071
 20
2.368285
 30
0.0
 10
13.610943
 20
2.314859
 30
0.0
 10
13.705936
 20
2.153275
 30
0.0
  0
SPLINE
  5
191
100
AcDbEntity
  8
Layer_1
 62
7
100
AcDbSpline
 70
8
 71
3
 72
8
 73
4
 74
0
 40
0
 40
0
 40
0
 40
0
 40
1
 40
1
 40
1
 40
1
 10
13.705936
 20
2.153275
 30
0.0
 10
14.014863
 20
1.627787
 30
0.0
 10
14.559917
 20
1.403510
 30
0.0
 10
15.772746
 20
1.302830
 30
0.0
  0
SPLINE
  5
192
100
AcDbEntity
  8
Layer_1
 62
7
100
AcDbSpline
 70
8
 71
3
 72
8
 73
4
 74
0
 40
0
 40
0
 40
0
 40
0
 40
1
 40
1
 40
1
 40
1
 10
15.772746
 20
1.302830
 30
0.0
 10
16.757895
 20
1.221052
 30
0.0
 10
17.939222
 20
1.262788
 30
0.0
 10
19.911924
 20
1.449067
 30
0.0
  0
LWPOLYLINE
  5
193
100
AcDbEntity
  8
Layer_1
 62
7
100
AcDbPolyline
 90
3
 70
0
 10
16.075832
 20
6.394514
 30
0.0
 10
16.120583
 20
6.059892
 30
0.0
 10
16.631496
 20
6.211480
 30
0.0
  0
SPLINE
  5
194
100
AcDbEntity
  8
Layer_1
 62
7
100
AcDbSpline
 70
8
 71
3
 72
8
 73
4
 74
0
 40
0
 40
0
 40
0
 40
0
 40
1
 40
1
 40
1
 40
1
 10
20.597394
 20
1.009217
 30
0.0
 10
20.585566
 20
0.730582
 30
0.0
 10
20.573887
 20
0.500589
 30
0.0
 10
20.571443
 20
0.498121
 30
0.0
  0
SPLINE
  5
195
100
AcDbEntity
  8
Layer_1
 62
7
100
AcDbSpline
 70
8
 71
3
 72
8
 73
4
 74
0
 40
0
 40
0
 40
0
 40
0
 40
1
 40
1
 40
1
 40
1
 10
20.571443
 20
0.498121
 30
0.0
 10
20.568988
 20
0.495665
 30
0.0
 10
20.085417
 20
0.463350
 30
0.0
 10
19.496815
 20
0.426338
 30
0.0
  0
SPLINE
  5
196
100
AcDbEntity
  8
Layer_1
 62
7
100
AcDbSpline
 70
8
 71
3
 72
8
 73
4
 74
0
 40
0
 40
0
 40
0
 40
0
 40
1
 40
1
 40
1
 40
1
 10
19.496815
 20
0.426338
 30
0.0
 10
18.257071
 20
0.348380
 30
0.0
 10
16.340524
 20
0.317819
 30
0.0
 10
15.788324
 20
0.367204
 30
0.0
  0
LWPOLYLINE
  5
197
100
AcDbEntity
  8
Layer_1
 62
7
100
AcDbPolyline
 90
3
 70
0
 10
19.911924
 20
1.449067
 30
0.0
 10
20.618902
 20
1.515826
 30
0.0
 10
20.597394
 20
1.009217
 30
0.0
  0
SPLINE
  5
198
100
AcDbEntity
  8
Layer_1
 62
7
100
AcDbSpline
 70
8
 71
3
 72
8
 73
4
 74
0
 40
0
 40
0
 40
0
 40
0
 40
1
 40
1
 40
1
 40
1
 10
1.231626
 20
0.451523
 30
0.0
 10
1.176113
 20
1.333291
 30
0.0
 10
1.158369
 20
4.534554
 30
0.0
 10
1.202655
 20
5.678410
 30
0.0
  0
SPLINE
  5
199
100
AcDbEntity
  8
Layer_1
 62
7
100
AcDbSpline
 70
8
 71
3
 72
8
 73
4
 74
0
 40
0
 40
0
 40
0
 40
0
 40
1
 40
1
 40
1
 40
1
 10
1.202655
 20
5.678410
 30
0.0
 10
1.259582
 20
7.148767
 30
0.0
 10
1.418303
 20
9.121044
 30
0.0
 10
1.484280
 20
9.177892
 30
0.0
  0
SPLINE
  5
19a
100
AcDbEntity
  8
Layer_1
 62
7
100
AcDbSpline
 70
8
 71
3
 72
8
 73
4
 74
0
 40
0
 40
0
 40
0
 40
0
 40
1
 40
1
 40
1
 40
1
 10
1.484280
 20
9.177892
 30
0.0
 10
1.491968
 20
9.184515
 30
0.0
 10
1.713886
 20
9.172179
 30
0.0
 10
1.977431
 20
9.150476
 30
0.0
  0
LWPOLYLINE
  5
19b
100
AcDbEntity
  8
Layer_1
 62
7
100
AcDbPolyline
 90
3
 70
0
 10
15.788324
 20
0.367204
 30
0.0
 10
15.788324
 20
0.367204
 30
0.0
 10
15.788323
 20
0.367205
 30
0.0
  0
SPLINE
  5
19c
100
AcDbEntity
  8
Layer_1
 62
7
100
AcDbSpline
 70
8
 71
3
 72
8
 73
4
 74
0
 40
0
 40
0
 40
0
 40
0
 40
1
 40
1
 40
1
 40
1
 10
2.434556
 20
8.970803
 30
0.0
 10
2.343492
 20
8.391649
 30
0.0
 10
2.230247
 20
6.908760
 30
0.0
 10
2.175695
 20
5.581122
 30
0.0
  0
SPLINE
  5
19d
100
AcDbEntity
  8
Layer_1
 62
7
100
AcDbSpline
 70
8
 71
3
 72
8
 73
4
 74
0
 40
0
 40
0
 40
0
 40
0
 40
1
 40
1
 40
1
 40
1
 10
2.175695
 20
5.581122
 30
0.0
 10
2.131491
 20
4.505337
 30
0.0
 10
2.146880
 20
1.881738
 30
0.0
 10
2.204484
 20
0.673086
 30
0.0
  0
LWPOLYLINE
  5
19e
100
AcDbEntity
  8
Layer_1
 62
7
100
AcDbPolyline
 90
3
 70
0
 10
1.977431
 20
9.150476
 30
0.0
 10
2.456603
 20
9.111016
 30
0.0
 10
2.434556
 20
8.970803
 30
0.0
  0
SPLINE
  5
19f
100
AcDbEntity
  8
Layer_1
 62
7
100
AcDbSpline
 70
8
 71
3
 72
8
 73
4
 74
0
 40
0
 40
0
 40
0
 40
0
 40
1
 40
1
 40
1
 40
1
 10
1.883459
 20
0.117240
 30
0.0
 10
1.693002
 20
0.103030
 30
0.0
 10
1.474111
 20
0.082131
 30
0.0
 10
1.397033
 20
0.070799
 30
0.0
  0
LWPOLYLINE
  5
1a0
100
AcDbEntity
  8
Layer_1
 62
7
100
AcDbPolyline
 90
3
 70
0
 10
2.204484
 20
0.673086
 30
0.0
 10
2.229744
 20
0.143077
 30
0.0
 10
1.883459
 20
0.117240
 30
0.0
  0
LWPOLYLINE
  5
1a1
100
AcDbEntity
  8
Layer_1
 62
7
100
AcDbPolyline
 90
5
 70
0
 10
1.397033
 20
0.070799
 30
0.0
 10
1.256892
 20
0.050194
 30
0.0
 10
1.231626
 20
0.451523
 30
0.0
 10
1.231626
 20
0.451523
 30
0.0
 10
1.231626
 20
0.451523
 30
0.0
  0
SPLINE
  5
1a2
100
AcDbEntity
  8
Layer_1
 62
7
100
AcDbSpline
 70
8
 71
3
 72
8
 73
4
 74
0
 40
0
 40
0
 40
0
 40
0
 40
1
 40
1
 40
1
 40
1
 10
4.115346
 20
7.893957
 30
0.0
 10
5.142228
 20
7.969548
 30
0.0
 10
5.871454
 20
7.996978
 30
0.0
 10
7.462104
 20
8.019846
 30
0.0
  0
LWPOLYLINE
  5
1a3
100
AcDbEntity
  8
Layer_1
 62
7
100
AcDbPolyline
 90
3
 70
0
 10
3.774833
 20
7.402538
 30
0.0
 10
3.774833
 20
7.868890
 30
0.0
 10
4.115346
 20
7.893957
 30
0.0
  0
SPLINE
  5
1a4
100
AcDbEntity
  8
Layer_1
 62
7
100
AcDbSpline
 70
8
 71
3
 72
8
 73
4
 74
0
 40
0
 40
0
 40
0
 40
0
 40
1
 40
1
 40
1
 40
1
 10
7.462104
 20
7.085846
 30
0.0
 10
5.861916
 20
7.062961
 30
0.0
 10
4.997703
 20
7.030923
 30
0.0
 10
4.095888
 20
6.961059
 30
0.0
  0
LWPOLYLINE
  5
1a5
100
AcDbEntity
  8
Layer_1
 62
7
100
AcDbPolyline
 90
5
 70
0
 10
7.462104
 20
8.019846
 30
0.0
 10
9.223044
 20
8.045162
 30
0.0
 10
9.223044
 20
7.578097
 30
0.0
 10
9.223044
 20
7.111032
 30
0.0
 10
7.462104
 20
7.085846
 30
0.0
  0
SPLINE
  5
1a6
100
AcDbEntity
  8
Layer_1
 62
7
100
AcDbSpline
 70
8
 71
3
 72
8
 73
4
 74
0
 40
0
 40
0
 40
0
 40
0
 40
1
 40
1
 40
1
 40
1
 10
6.265444
 20
0.664323
 30
0.0
 10
5.343601
 20
0.752663
 30
0.0
 10
4.802376
 20
0.876281
 30
0.0
 10
4.391002
 20
1.092452
 30
0.0
  0
SPLINE
  5
1a7
100
AcDbEntity
  8
Layer_1
 62
7
100
AcDbSpline
 70
8
 71
3
 72
8
 73
4
 74
0
 40
0
 40
0
 40
0
 40
0
 40
1
 40
1
 40
1
 40
1
 10
4.391002
 20
1.092452
 30
0.0
 10
4.015314
 20
1.289870
 30
0.0
 10
3.727169
 20
1.577460
 30
0.0
 10
3.571099
 20
1.910775
 30
0.0
  0
SPLINE
  5
1a8
100
AcDbEntity
  8
Layer_1
 62
7
100
AcDbSpline
 70
8
 71
3
 72
8
 73
4
 74
0
 40
0
 40
0
 40
0
 40
0
 40
1
 40
1
 40
1
 40
1
 10
3.571099
 20
1.910775
 30
0.0
 10
3.321234
 20
2.444405
 30
0.0
 10
3.393426
 20
3.183988
 30
0.0
 10
3.771696
 20
3.965846
 30
0.0
  0
SPLINE
  5
1a9
100
AcDbEntity
  8
Layer_1
 62
7
100
AcDbSpline
 70
8
 71
3
 72
8
 73
4
 74
0
 40
0
 40
0
 40
0
 40
0
 40
1
 40
1
 40
1
 40
1
 10
3.771696
 20
3.965846
 30
0.0
 10
4.060344
 20
4.562461
 30
0.0
 10
3.999099
 20
4.534311
 30
0.0
 10
4.483912
 20
4.293197
 30
0.0
  0
LWPOLYLINE
  5
1aa
100
AcDbEntity
  8
Layer_1
 62
7
100
AcDbPolyline
 90
4
 70
0
 10
4.095888
 20
6.961059
 30
0.0
 10
3.774833
 20
6.936187
 30
0.0
 10
3.774833
 20
7.402538
 30
0.0
 10
3.774833
 20
7.402538
 30
0.0
  0
SPLINE
  5
1ab
100
AcDbEntity
  8
Layer_1
 62
7
100
AcDbSpline
 70
8
 71
3
 72
8
 73
4
 74
0
 40
0
 40
0
 40
0
 40
0
 40
1
 40
1
 40
1
 40
1
 10
4.744552
 20
3.784677
 30
0.0
 10
4.303194
 20
2.906862
 30
0.0
 10
4.290433
 20
2.401882
 30
0.0
 10
4.700269
 20
2.032378
 30
0.0
  0
SPLINE
  5
1ac
100
AcDbEntity
  8
Layer_1
 62
7
100
AcDbSpline
 70
8
 71
3
 72
8
 73
4
 74
0
 40
0
 40
0
 40
0
 40
0
 40
1
 40
1
 40
1
 40
1
 10
4.700269
 20
2.032378
 30
0.0
 10
4.877962
 20
1.872172
 30
0.0
 10
5.168524
 20
1.767224
 30
0.0
 10
5.663095
 20
1.684618
 30
0.0
  0
SPLINE
  5
1ad
100
AcDbEntity
  8
Layer_1
 62
7
100
AcDbSpline
 70
8
 71
3
 72
8
 73
4
 74
0
 40
0
 40
0
 40
0
 40
0
 40
1
 40
1
 40
1
 40
1
 10
5.663095
 20
1.684618
 30
0.0
 10
6.136780
 20
1.605499
 30
0.0
 10
7.969611
 20
1.616371
 30
0.0
 10
8.924249
 20
1.703964
 30
0.0
  0
SPLINE
  5
1ae
100
AcDbEntity
  8
Layer_1
 62
7
100
AcDbSpline
 70
8
 71
3
 72
8
 73
4
 74
0
 40
0
 40
0
 40
0
 40
0
 40
1
 40
1
 40
1
 40
1
 10
8.924249
 20
1.703964
 30
0.0
 10
9.348513
 20
1.742892
 30
0.0
 10
9.701491
 20
1.768706
 30
0.0
 10
9.708643
 20
1.761329
 30
0.0
  0
SPLINE
  5
1af
100
AcDbEntity
  8
Layer_1
 62
7
100
AcDbSpline
 70
8
 71
3
 72
8
 73
4
 74
0
 40
0
 40
0
 40
0
 40
0
 40
1
 40
1
 40
1
 40
1
 10
9.708643
 20
1.761329
 30
0.0
 10
9.715798
 20
1.753952
 30
0.0
 10
9.703318
 20
1.526829
 30
0.0
 10
9.680912
 20
1.256612
 30
0.0
  0
LWPOLYLINE
  5
1b0
100
AcDbEntity
  8
Layer_1
 62
7
100
AcDbPolyline
 90
3
 70
0
 10
4.483912
 20
4.293197
 30
0.0
 10
4.896949
 20
4.087780
 30
0.0
 10
4.744552
 20
3.784677
 30
0.0
  0
SPLINE
  5
1b1
100
AcDbEntity
  8
Layer_1
 62
7
100
AcDbSpline
 70
8
 71
3
 72
8
 73
4
 74
0
 40
0
 40
0
 40
0
 40
0
 40
1
 40
1
 40
1
 40
1
 10
9.363507
 20
0.740700
 30
0.0
 10
8.356994
 20
0.651176
 30
0.0
 10
6.802542
 20
0.612855
 30
0.0
 10
6.265444
 20
0.664325
 30
0.0
  0
LWPOLYLINE
  5
1b2
100
AcDbEntity
  8
Layer_1
 62
7
100
AcDbPolyline
 90
3
 70
0
 10
9.680912
 20
1.256612
 30
0.0
 10
9.640175
 20
0.765307
 30
0.0
 10
9.363507
 20
0.740700
 30
0.0
  0
LWPOLYLINE
  5
1b3
100
AcDbEntity
  8
Layer_1
 62
7
100
AcDbPolyline
 90
2
 70
0
 10
6.265444
 20
0.664325
 30
0.0
 10
6.265444
 20
0.664323
 30
0.0
  0
ENDSEC
  0
SECTION
  2
OBJECTS
  0
DICTIONARY
  5
C
330
0
100
AcDbDictionary
  3
ACAD_GROUP
350
D
  3
ACAD_MLINESTYLE
350
17
  0
DICTIONARY
  5
D
330
C
100
AcDbDictionary
  0
DICTIONARY
  5
1A
330
C
100
AcDbDictionary
  0
DICTIONARY
  5
17
330
C
100
AcDbDictionary
  3
STANDARD
350
18
  0
DICTIONARY
  5
19
330
C
100
AcDbDictionary
  0
ENDSEC
  0
EOF
