  0
SECTION
  2
HEADER
  9
$ACADVER
  1
AC1014
  9
$HANDSEED
  5
FFFF
  9
$MEASUREMENT
 70
     1
  0
ENDSEC
  0
SECTION
  2
TABLES
  0
TABLE
  2
VPORT
  5
8
330
0
100
AcDbSymbolTable
 70
     4
  0
VPORT
  5
2E
330
8
100
AcDbSymbolTableRecord
100
AcDbViewportTableRecord
  2
*ACTIVE
 70
     0
 10
0.0
 20
0.0
 11
1.0
 21
1.0
 12
210.0
 22
148.5
 13
0.0
 23
0.0
 14
10.0
 24
10.0
 15
10.0
 25
10.0
 16
0.0
 26
0.0
 36
1.0
 17
0.0
 27
0.0
 37
0.0
 40
341.0
 41
1.24
 42
50.0
 43
0.0
 44
0.0
 50
0.0
 51
0.0
 71
     0
 72
   100
 73
     1
 74
     3
 75
     0
 76
     0
 77
     0
 78
     0
  0
ENDTAB
  0
TABLE
  2
LTYPE
  5
5
330
0
100
AcDbSymbolTable
 70
     1
  0
LTYPE
  5
14
330
5
100
AcDbSymbolTableRecord
100
AcDbLinetypeTableRecord
  2
BYBLOCK
 70
     0
  3

 72
    65
 73
     0
 40
0.0
  0
LTYPE
  5
15
330
5
100
AcDbSymbolTableRecord
100
AcDbLinetypeTableRecord
  2
BYLAYER
 70
     0
  3

 72
    65
 73
     0
 40
0.0
  0
LTYPE
  5
16
330
5
100
AcDbSymbolTableRecord
100
AcDbLinetypeTableRecord
  2
CONTINUOUS
 70
     0
  3
Solid line
 72
    65
 73
     0
 40
0.0
  0
ENDTAB
  0
TABLE
  2
LAYER
  5
2
100
AcDbSymbolTable
 70
2
  0
LAYER
  5
50
100
AcDbSymbolTableRecord
100
AcDbLayerTableRecord
  2
0
 70
0
  6
CONTINUOUS
  0
LAYER
  5
51
100
AcDbSymbolTableRecord
100
AcDbLayerTableRecord
  2
Layer_1
 70
0
  6
CONTINUOUS
  0
ENDTAB
  0
TABLE
  2
STYLE
  5
3
330
0
100
AcDbSymbolTable
 70
     1
  0
STYLE
  5
11
330
3
100
AcDbSymbolTableRecord
100
AcDbTextStyleTableRecord
  2
STANDARD
 70
     0
 40
0.0
 41
1.0
 50
0.0
 71
     0
 42
2.5
  3
txt
  4

  0
ENDTAB
  0
TABLE
  2
VIEW
  5
6
330
0
100
AcDbSymbolTable
 70
     0
  0
ENDTAB
  0
TABLE
  2
UCS
  5
7
330
0
100
AcDbSymbolTable
 70
     0
  0
ENDTAB
  0
TABLE
  2
APPID
  5
9
330
0
100
AcDbSymbolTable
 70
     2
  0
APPID
  5
12
330
9
100
AcDbSymbolTableRecord
100
AcDbRegAppTableRecord
  2
ACAD
 70
     0
  0
ENDTAB
  0
TABLE
  2
DIMSTYLE
  5
A
330
0
100
AcDbSymbolTable
 70
     1
  0
DIMSTYLE
105
27
330
A
100
AcDbSymbolTableRecord
100
AcDbDimStyleTableRecord
  2
ISO-25
 70
     0
  3

  4

  5

  6

  7

 40
1.0
 41
2.5
 42
0.625
 43
3.75
 44
1.25
 45
0.0
 46
0.0
 47
0.0
 48
0.0
140
2.5
141
2.5
142
0.0
143
0.03937007874016
144
1.0
145
0.0
146
1.0
147
0.625
 71
     0
 72
     0
 73
     0
 74
     0
 75
     0
 76
     0
 77
     1
 78
     8
170
     0
171
     3
172
     1
173
     0
174
     0
175
     0
176
     0
177
     0
178
     0
270
     2
271
     2
272
     2
273
     2
274
     3
340
11
275
     0
280
     0
281
     0
282
     0
283
     0
284
     8
285
     0
286
     0
287
     3
288
     0
  0
ENDTAB
  0
TABLE
  2
BLOCK_RECORD
  5
1
330
0
100
AcDbSymbolTable
 70
     1
  0
BLOCK_RECORD
  5
1F
330
1
100
AcDbSymbolTableRecord
100
AcDbBlockTableRecord
  2
*MODEL_SPACE
  0
BLOCK_RECORD
  5
1B
330
1
100
AcDbSymbolTableRecord
100
AcDbBlockTableRecord
  2
*PAPER_SPACE
  0
ENDTAB
  0
ENDSEC
  0
SECTION
  2
BLOCKS
  0
BLOCK
  5
20
330
1F
100
AcDbEntity
  8
0
100
AcDbBlockBegin
  2
*MODEL_SPACE
 70
     0
 10
0.0
 20
0.0
 30
0.0
  3
*MODEL_SPACE
  1

  0
ENDBLK
  5
21
330
1F
100
AcDbEntity
  8
0
100
AcDbBlockEnd
  0
BLOCK
  5
1C
330
1B
100
AcDbEntity
 67
     1
  8
0
100
AcDbBlockBegin
  2
*PAPER_SPACE
  1

  0
ENDBLK
  5
1D
330
1B
100
AcDbEntity
 67
     1
  8
0
100
AcDbBlockEnd
  0
ENDSEC
  0
SECTION
  2
ENTITIES
  0
SPLINE
  5
100
100
AcDbEntity
  8
Layer_1
 62
7
100
AcDbSpline
 70
8
 71
3
 72
8
 73
4
 74
0
 40
0
 40
0
 40
0
 40
0
 40
1
 40
1
 40
1
 40
1
 10
2.004113
 20
22.607964
 30
0.0
 10
1.872549
 20
22.750252
 30
0.0
 10
1.771524
 20
22.891335
 30
0.0
 10
1.566947
 20
23.218473
 30
0.0
  0
SPLINE
  5
101
100
AcDbEntity
  8
Layer_1
 62
7
100
AcDbSpline
 70
8
 71
3
 72
8
 73
4
 74
0
 40
0
 40
0
 40
0
 40
0
 40
1
 40
1
 40
1
 40
1
 10
1.628386
 20
27.725867
 30
0.0
 10
1.641668
 20
29.960097
 30
0.0
 10
1.654255
 20
31.791829
 30
0.0
 10
1.656356
 20
31.796382
 30
0.0
  0
SPLINE
  5
102
100
AcDbEntity
  8
Layer_1
 62
7
100
AcDbSpline
 70
8
 71
3
 72
8
 73
4
 74
0
 40
0
 40
0
 40
0
 40
0
 40
1
 40
1
 40
1
 40
1
 10
1.656356
 20
31.796382
 30
0.0
 10
1.658455
 20
31.800934
 30
0.0
 10
1.891041
 20
31.804659
 30
0.0
 10
2.173210
 20
31.804659
 30
0.0
  0
LWPOLYLINE
  5
103
100
AcDbEntity
  8
Layer_1
 62
7
100
AcDbPolyline
 90
5
 70
0
 10
1.566947
 20
23.218473
 30
0.0
 10
1.397402
 20
23.489590
 30
0.0
 10
1.500819
 20
23.576607
 30
0.0
 10
1.604236
 20
23.663628
 30
0.0
 10
1.628386
 20
27.725867
 30
0.0
  0
SPLINE
  5
104
100
AcDbEntity
  8
Layer_1
 62
7
100
AcDbSpline
 70
8
 71
3
 72
8
 73
4
 74
0
 40
0
 40
0
 40
0
 40
0
 40
1
 40
1
 40
1
 40
1
 10
2.670180
 20
31.216932
 30
0.0
 10
2.661345
 20
30.893681
 30
0.0
 10
2.646502
 20
29.457212
 30
0.0
 10
2.637196
 20
28.024779
 30
0.0
  0
SPLINE
  5
105
100
AcDbEntity
  8
Layer_1
 62
7
100
AcDbSpline
 70
8
 71
3
 72
8
 73
4
 74
0
 40
0
 40
0
 40
0
 40
0
 40
1
 40
1
 40
1
 40
1
 10
2.637196
 20
28.024779
 30
0.0
 10
2.627889
 20
26.592343
 30
0.0
 10
2.610490
 20
25.084145
 30
0.0
 10
2.598531
 20
24.673224
 30
0.0
  0
SPLINE
  5
106
100
AcDbEntity
  8
Layer_1
 62
7
100
AcDbSpline
 70
8
 71
3
 72
8
 73
4
 74
0
 40
0
 40
0
 40
0
 40
0
 40
1
 40
1
 40
1
 40
1
 10
2.598531
 20
24.673224
 30
0.0
 10
2.578911
 20
23.999060
 30
0.0
 10
2.582088
 20
23.924062
 30
0.0
 10
2.631056
 20
23.905272
 30
0.0
  0
SPLINE
  5
107
100
AcDbEntity
  8
Layer_1
 62
7
100
AcDbSpline
 70
8
 71
3
 72
8
 73
4
 74
0
 40
0
 40
0
 40
0
 40
0
 40
1
 40
1
 40
1
 40
1
 10
2.631056
 20
23.905272
 30
0.0
 10
2.692997
 20
23.881509
 30
0.0
 10
3.258957
 20
24.086763
 30
0.0
 10
3.795861
 20
24.327722
 30
0.0
  0
SPLINE
  5
108
100
AcDbEntity
  8
Layer_1
 62
7
100
AcDbSpline
 70
8
 71
3
 72
8
 73
4
 74
0
 40
0
 40
0
 40
0
 40
0
 40
1
 40
1
 40
1
 40
1
 10
3.795861
 20
24.327722
 30
0.0
 10
4.904028
 20
24.825057
 30
0.0
 10
6.026542
 20
25.597070
 30
0.0
 10
6.984982
 20
26.521057
 30
0.0
  0
SPLINE
  5
109
100
AcDbEntity
  8
Layer_1
 62
7
100
AcDbSpline
 70
8
 71
3
 72
8
 73
4
 74
0
 40
0
 40
0
 40
0
 40
0
 40
1
 40
1
 40
1
 40
1
 10
6.984982
 20
26.521057
 30
0.0
 10
7.443400
 20
26.962994
 30
0.0
 10
7.996758
 20
27.580545
 30
0.0
 10
8.320137
 20
28.011094
 30
0.0
  0
SPLINE
  5
10a
100
AcDbEntity
  8
Layer_1
 62
7
100
AcDbSpline
 70
8
 71
3
 72
8
 73
4
 74
0
 40
0
 40
0
 40
0
 40
0
 40
1
 40
1
 40
1
 40
1
 10
8.320137
 20
28.011094
 30
0.0
 10
8.435999
 20
28.165354
 30
0.0
 10
8.540042
 20
28.292306
 30
0.0
 10
8.551343
 20
28.293206
 30
0.0
  0
SPLINE
  5
10b
100
AcDbEntity
  8
Layer_1
 62
7
100
AcDbSpline
 70
8
 71
3
 72
8
 73
4
 74
0
 40
0
 40
0
 40
0
 40
0
 40
1
 40
1
 40
1
 40
1
 10
8.551343
 20
28.293206
 30
0.0
 10
8.562646
 20
28.294053
 30
0.0
 10
8.731668
 20
28.108187
 30
0.0
 10
8.926948
 20
27.880047
 30
0.0
  0
LWPOLYLINE
  5
10c
100
AcDbEntity
  8
Layer_1
 62
7
100
AcDbPolyline
 90
3
 70
0
 10
2.173210
 20
31.804659
 30
0.0
 10
2.686244
 20
31.804659
 30
0.0
 10
2.670180
 20
31.216932
 30
0.0
  0
SPLINE
  5
10d
100
AcDbEntity
  8
Layer_1
 62
7
100
AcDbSpline
 70
8
 71
3
 72
8
 73
4
 74
0
 40
0
 40
0
 40
0
 40
0
 40
1
 40
1
 40
1
 40
1
 10
9.093535
 20
27.242651
 30
0.0
 10
7.256731
 20
25.073277
 30
0.0
 10
5.281250
 20
23.678582
 30
0.0
 10
2.942576
 20
22.900070
 30
0.0
  0
SPLINE
  5
10e
100
AcDbEntity
  8
Layer_1
 62
7
100
AcDbSpline
 70
8
 71
3
 72
8
 73
4
 74
0
 40
0
 40
0
 40
0
 40
0
 40
1
 40
1
 40
1
 40
1
 10
2.942576
 20
22.900070
 30
0.0
 10
2.680318
 20
22.812767
 30
0.0
 10
2.446104
 20
22.710140
 30
0.0
 10
2.325840
 20
22.629831
 30
0.0
  0
SPLINE
  5
10f
100
AcDbEntity
  8
Layer_1
 62
7
100
AcDbSpline
 70
8
 71
3
 72
8
 73
4
 74
0
 40
0
 40
0
 40
0
 40
0
 40
1
 40
1
 40
1
 40
1
 10
2.325840
 20
22.629831
 30
0.0
 10
2.219195
 20
22.558617
 30
0.0
 10
2.125567
 20
22.500350
 30
0.0
 10
2.117777
 20
22.500350
 30
0.0
  0
SPLINE
  5
110
100
AcDbEntity
  8
Layer_1
 62
7
100
AcDbSpline
 70
8
 71
3
 72
8
 73
4
 74
0
 40
0
 40
0
 40
0
 40
0
 40
1
 40
1
 40
1
 40
1
 10
2.117777
 20
22.500350
 30
0.0
 10
2.109987
 20
22.500350
 30
0.0
 10
2.058839
 20
22.548776
 30
0.0
 10
2.004113
 20
22.607964
 30
0.0
  0
LWPOLYLINE
  5
111
100
AcDbEntity
  8
Layer_1
 62
7
100
AcDbPolyline
 90
3
 70
0
 10
8.926948
 20
27.880047
 30
0.0
 10
9.282003
 20
27.465245
 30
0.0
 10
9.093535
 20
27.242651
 30
0.0
  0
LWPOLYLINE
  5
112
100
AcDbEntity
  8
Layer_1
 62
7
100
AcDbPolyline
 90
2
 70
0
 10
2.004113
 20
22.607964
 30
0.0
 10
2.004113
 20
22.607964
 30
0.0
  0
SPLINE
  5
113
100
AcDbEntity
  8
Layer_1
 62
7
100
AcDbSpline
 70
8
 71
3
 72
8
 73
4
 74
0
 40
0
 40
0
 40
0
 40
0
 40
1
 40
1
 40
1
 40
1
 10
1.822743
 20
47.391809
 30
0.0
 10
1.581393
 20
47.676638
 30
0.0
 10
1.494704
 20
47.800555
 30
0.0
 10
1.528896
 20
47.811849
 30
0.0
  0
SPLINE
  5
114
100
AcDbEntity
  8
Layer_1
 62
7
100
AcDbSpline
 70
8
 71
3
 72
8
 73
4
 74
0
 40
0
 40
0
 40
0
 40
0
 40
1
 40
1
 40
1
 40
1
 10
1.528896
 20
47.811849
 30
0.0
 10
1.555571
 20
47.820660
 30
0.0
 10
1.718948
 20
47.902239
 30
0.0
 10
1.891955
 20
47.993137
 30
0.0
  0
SPLINE
  5
115
100
AcDbEntity
  8
Layer_1
 62
7
100
AcDbSpline
 70
8
 71
3
 72
8
 73
4
 74
0
 40
0
 40
0
 40
0
 40
0
 40
1
 40
1
 40
1
 40
1
 10
1.891955
 20
47.993137
 30
0.0
 10
3.416282
 20
48.794016
 30
0.0
 10
4.428524
 20
49.849967
 30
0.0
 10
5.092603
 20
51.331991
 30
0.0
  0
SPLINE
  5
116
100
AcDbEntity
  8
Layer_1
 62
7
100
AcDbSpline
 70
8
 71
3
 72
8
 73
4
 74
0
 40
0
 40
0
 40
0
 40
0
 40
1
 40
1
 40
1
 40
1
 10
5.092603
 20
51.331991
 30
0.0
 10
5.548487
 20
52.349386
 30
0.0
 10
5.974137
 20
53.911752
 30
0.0
 10
6.280712
 20
55.692992
 30
0.0
  0
SPLINE
  5
117
100
AcDbEntity
  8
Layer_1
 62
7
100
AcDbSpline
 70
8
 71
3
 72
8
 73
4
 74
0
 40
0
 40
0
 40
0
 40
0
 40
1
 40
1
 40
1
 40
1
 10
6.280712
 20
55.692992
 30
0.0
 10
6.326217
 20
55.957376
 30
0.0
 10
6.368869
 20
56.179112
 30
0.0
 10
6.375495
 20
56.185738
 30
0.0
  0
SPLINE
  5
118
100
AcDbEntity
  8
Layer_1
 62
7
100
AcDbSpline
 70
8
 71
3
 72
8
 73
4
 74
0
 40
0
 40
0
 40
0
 40
0
 40
1
 40
1
 40
1
 40
1
 10
6.375495
 20
56.185738
 30
0.0
 10
6.391263
 20
56.201507
 30
0.0
 10
7.330980
 20
55.958156
 30
0.0
 10
7.364541
 20
55.929613
 30
0.0
  0
SPLINE
  5
119
100
AcDbEntity
  8
Layer_1
 62
7
100
AcDbSpline
 70
8
 71
3
 72
8
 73
4
 74
0
 40
0
 40
0
 40
0
 40
0
 40
1
 40
1
 40
1
 40
1
 10
7.364541
 20
55.929613
 30
0.0
 10
7.392836
 20
55.905549
 30
0.0
 10
7.208494
 20
54.777315
 30
0.0
 10
7.076574
 20
54.167156
 30
0.0
  0
SPLINE
  5
11a
100
AcDbEntity
  8
Layer_1
 62
7
100
AcDbSpline
 70
8
 71
3
 72
8
 73
4
 74
0
 40
0
 40
0
 40
0
 40
0
 40
1
 40
1
 40
1
 40
1
 10
7.076574
 20
54.167156
 30
0.0
 10
6.514367
 20
51.566831
 30
0.0
 10
5.789721
 20
50.018766
 30
0.0
 10
4.524602
 20
48.715368
 30
0.0
  0
SPLINE
  5
11b
100
AcDbEntity
  8
Layer_1
 62
7
100
AcDbSpline
 70
8
 71
3
 72
8
 73
4
 74
0
 40
0
 40
0
 40
0
 40
0
 40
1
 40
1
 40
1
 40
1
 10
4.524602
 20
48.715368
 30
0.0
 10
3.911584
 20
48.083802
 30
0.0
 10
3.201012
 20
47.544476
 30
0.0
 10
2.450693
 20
47.141267
 30
0.0
  0
LWPOLYLINE
  5
11c
100
AcDbEntity
  8
Layer_1
 62
7
100
AcDbPolyline
 90
10
 70
0
 10
3.911751
 20
41.837419
 30
0.0
 10
3.911751
 20
45.943235
 30
0.0
 10
4.458090
 20
45.943235
 30
0.0
 10
5.004428
 20
45.943235
 30
0.0
 10
5.004428
 20
41.837419
 30
0.0
 10
5.004428
 20
37.731603
 30
0.0
 10
4.458090
 20
37.731603
 30
0.0
 10
3.911751
 20
37.731603
 30
0.0
 10
3.911751
 20
41.837419
 30
0.0
 10
3.911751
 20
41.837419
 30
0.0
  0
SPLINE
  5
11d
100
AcDbEntity
  8
Layer_1
 62
7
100
AcDbSpline
 70
8
 71
3
 72
8
 73
4
 74
0
 40
0
 40
0
 40
0
 40
0
 40
1
 40
1
 40
1
 40
1
 10
36.156067
 20
54.653835
 30
0.0
 10
35.889698
 20
54.763343
 30
0.0
 10
35.739931
 20
54.892241
 30
0.0
 10
35.629288
 20
55.107208
 30
0.0
  0
SPLINE
  5
11e
100
AcDbEntity
  8
Layer_1
 62
7
100
AcDbSpline
 70
8
 71
3
 72
8
 73
4
 74
0
 40
0
 40
0
 40
0
 40
0
 40
1
 40
1
 40
1
 40
1
 10
35.629288
 20
55.107208
 30
0.0
 10
35.210564
 20
55.920760
 30
0.0
 10
35.738209
 20
56.856542
 30
0.0
 10
36.615661
 20
56.856542
 30
0.0
  0
SPLINE
  5
11f
100
AcDbEntity
  8
Layer_1
 62
7
100
AcDbSpline
 70
8
 71
3
 72
8
 73
4
 74
0
 40
0
 40
0
 40
0
 40
0
 40
1
 40
1
 40
1
 40
1
 10
36.615661
 20
56.856542
 30
0.0
 10
36.918042
 20
56.856542
 30
0.0
 10
37.153636
 20
56.759822
 30
0.0
 10
37.394549
 20
56.536778
 30
0.0
  0
SPLINE
  5
120
100
AcDbEntity
  8
Layer_1
 62
7
100
AcDbSpline
 70
8
 71
3
 72
8
 73
4
 74
0
 40
0
 40
0
 40
0
 40
0
 40
1
 40
1
 40
1
 40
1
 10
37.394549
 20
56.536778
 30
0.0
 10
37.735132
 20
56.221459
 30
0.0
 10
37.852155
 20
55.852282
 30
0.0
 10
37.744894
 20
55.431549
 30
0.0
  0
SPLINE
  5
121
100
AcDbEntity
  8
Layer_1
 62
7
100
AcDbSpline
 70
8
 71
3
 72
8
 73
4
 74
0
 40
0
 40
0
 40
0
 40
0
 40
1
 40
1
 40
1
 40
1
 10
37.744894
 20
55.431549
 30
0.0
 10
37.605558
 20
54.885014
 30
0.0
 10
37.181276
 20
54.570641
 30
0.0
 10
36.585703
 20
54.572640
 30
0.0
  0
SPLINE
  5
122
100
AcDbEntity
  8
Layer_1
 62
7
100
AcDbSpline
 70
8
 71
3
 72
8
 73
4
 74
0
 40
0
 40
0
 40
0
 40
0
 40
1
 40
1
 40
1
 40
1
 10
36.585703
 20
54.572640
 30
0.0
 10
36.415032
 20
54.573213
 30
0.0
 10
36.298694
 20
54.595199
 30
0.0
 10
36.156067
 20
54.653835
 30
0.0
  0
LWPOLYLINE
  5
123
100
AcDbEntity
  8
Layer_1
 62
7
100
AcDbPolyline
 90
5
 70
0
 10
2.450693
 20
47.141267
 30
0.0
 10
2.165090
 20
46.987789
 30
0.0
 10
1.822743
 20
47.391809
 30
0.0
 10
1.822743
 20
47.391809
 30
0.0
 10
1.822743
 20
47.391809
 30
0.0
  0
SPLINE
  5
124
100
AcDbEntity
  8
Layer_1
 62
7
100
AcDbSpline
 70
8
 71
3
 72
8
 73
4
 74
0
 40
0
 40
0
 40
0
 40
0
 40
1
 40
1
 40
1
 40
1
 10
36.904735
 20
55.226776
 30
0.0
 10
37.044876
 20
55.309560
 30
0.0
 10
37.176332
 20
55.596174
 30
0.0
 10
37.153215
 20
55.768535
 30
0.0
  0
SPLINE
  5
125
100
AcDbEntity
  8
Layer_1
 62
7
100
AcDbSpline
 70
8
 71
3
 72
8
 73
4
 74
0
 40
0
 40
0
 40
0
 40
0
 40
1
 40
1
 40
1
 40
1
 10
37.153215
 20
55.768535
 30
0.0
 10
37.134250
 20
55.909983
 30
0.0
 10
37.012115
 20
56.089378
 30
0.0
 10
36.854875
 20
56.206776
 30
0.0
  0
SPLINE
  5
126
100
AcDbEntity
  8
Layer_1
 62
7
100
AcDbSpline
 70
8
 71
3
 72
8
 73
4
 74
0
 40
0
 40
0
 40
0
 40
0
 40
1
 40
1
 40
1
 40
1
 10
36.854875
 20
56.206776
 30
0.0
 10
36.647555
 20
56.361563
 30
0.0
 10
36.245732
 20
56.239634
 30
0.0
 10
36.125051
 20
55.985318
 30
0.0
  0
SPLINE
  5
127
100
AcDbEntity
  8
Layer_1
 62
7
100
AcDbSpline
 70
8
 71
3
 72
8
 73
4
 74
0
 40
0
 40
0
 40
0
 40
0
 40
1
 40
1
 40
1
 40
1
 10
36.125051
 20
55.985318
 30
0.0
 10
36.024741
 20
55.773933
 30
0.0
 10
36.069479
 20
55.407861
 30
0.0
 10
36.211978
 20
55.273988
 30
0.0
  0
SPLINE
  5
128
100
AcDbEntity
  8
Layer_1
 62
7
100
AcDbSpline
 70
8
 71
3
 72
8
 73
4
 74
0
 40
0
 40
0
 40
0
 40
0
 40
1
 40
1
 40
1
 40
1
 10
36.211978
 20
55.273988
 30
0.0
 10
36.362124
 20
55.132935
 30
0.0
 10
36.706181
 20
55.109487
 30
0.0
 10
36.904735
 20
55.226776
 30
0.0
  0
LWPOLYLINE
  5
129
100
AcDbEntity
  8
Layer_1
 62
7
100
AcDbPolyline
 90
2
 70
0
 10
36.156067
 20
54.653835
 30
0.0
 10
36.156067
 20
54.653835
 30
0.0
  0
SPLINE
  5
12a
100
AcDbEntity
  8
Layer_1
 62
7
100
AcDbSpline
 70
8
 71
3
 72
8
 73
4
 74
0
 40
0
 40
0
 40
0
 40
0
 40
1
 40
1
 40
1
 40
1
 10
36.480166
 20
47.473793
 30
0.0
 10
35.023707
 20
49.472330
 30
0.0
 10
34.169940
 20
52.172318
 30
0.0
 10
33.868411
 20
55.733291
 30
0.0
  0
LWPOLYLINE
  5
12b
100
AcDbEntity
  8
Layer_1
 62
7
100
AcDbPolyline
 90
2
 70
0
 10
36.904735
 20
55.226776
 30
0.0
 10
36.904735
 20
55.226776
 30
0.0
  0
SPLINE
  5
12c
100
AcDbEntity
  8
Layer_1
 62
7
100
AcDbSpline
 70
8
 71
3
 72
8
 73
4
 74
0
 40
0
 40
0
 40
0
 40
0
 40
1
 40
1
 40
1
 40
1
 10
34.304726
 20
56.040045
 30
0.0
 10
34.556390
 20
56.070779
 30
0.0
 10
34.786821
 20
56.095713
 30
0.0
 10
34.816796
 20
56.095453
 30
0.0
  0
SPLINE
  5
12d
100
AcDbEntity
  8
Layer_1
 62
7
100
AcDbSpline
 70
8
 71
3
 72
8
 73
4
 74
0
 40
0
 40
0
 40
0
 40
0
 40
1
 40
1
 40
1
 40
1
 10
34.816796
 20
56.095453
 30
0.0
 10
34.861133
 20
56.095069
 30
0.0
 10
34.875425
 20
56.044050
 30
0.0
 10
34.893453
 20
55.821811
 30
0.0
  0
SPLINE
  5
12e
100
AcDbEntity
  8
Layer_1
 62
7
100
AcDbSpline
 70
8
 71
3
 72
8
 73
4
 74
0
 40
0
 40
0
 40
0
 40
0
 40
1
 40
1
 40
1
 40
1
 10
34.893453
 20
55.821811
 30
0.0
 10
35.149615
 20
52.663899
 30
0.0
 10
35.986779
 20
50.070653
 30
0.0
 10
37.372033
 20
48.144017
 30
0.0
  0
LWPOLYLINE
  5
12f
100
AcDbEntity
  8
Layer_1
 62
7
100
AcDbPolyline
 90
3
 70
0
 10
33.868411
 20
55.733291
 30
0.0
 10
33.847159
 20
55.984163
 30
0.0
 10
34.304726
 20
56.040045
 30
0.0
  0
SPLINE
  5
130
100
AcDbEntity
  8
Layer_1
 62
7
100
AcDbSpline
 70
8
 71
3
 72
8
 73
4
 74
0
 40
0
 40
0
 40
0
 40
0
 40
1
 40
1
 40
1
 40
1
 10
37.349969
 20
47.696899
 30
0.0
 10
37.237961
 20
47.589890
 30
0.0
 10
37.055129
 20
47.415372
 30
0.0
 10
36.943676
 20
47.309079
 30
0.0
  0
LWPOLYLINE
  5
131
100
AcDbEntity
  8
Layer_1
 62
7
100
AcDbPolyline
 90
3
 70
0
 10
37.372033
 20
48.144017
 30
0.0
 10
37.553621
 20
47.891459
 30
0.0
 10
37.349969
 20
47.696899
 30
0.0
  0
SPLINE
  5
132
100
AcDbEntity
  8
Layer_1
 62
7
100
AcDbSpline
 70
8
 71
3
 72
8
 73
4
 74
0
 40
0
 40
0
 40
0
 40
0
 40
1
 40
1
 40
1
 40
1
 10
28.181715
 20
47.413392
 30
0.0
 10
27.969136
 20
47.589917
 30
0.0
 10
27.800807
 20
47.751041
 30
0.0
 10
27.807651
 20
47.771445
 30
0.0
  0
SPLINE
  5
133
100
AcDbEntity
  8
Layer_1
 62
7
100
AcDbSpline
 70
8
 71
3
 72
8
 73
4
 74
0
 40
0
 40
0
 40
0
 40
0
 40
1
 40
1
 40
1
 40
1
 10
27.807651
 20
47.771445
 30
0.0
 10
27.814495
 20
47.791849
 30
0.0
 10
27.916773
 20
47.940850
 30
0.0
 10
28.034936
 20
48.102559
 30
0.0
  0
SPLINE
  5
134
100
AcDbEntity
  8
Layer_1
 62
7
100
AcDbSpline
 70
8
 71
3
 72
8
 73
4
 74
0
 40
0
 40
0
 40
0
 40
0
 40
1
 40
1
 40
1
 40
1
 10
28.034936
 20
48.102559
 30
0.0
 10
29.137621
 20
49.611605
 30
0.0
 10
29.864338
 20
51.581755
 30
0.0
 10
30.140312
 20
53.810292
 30
0.0
  0
SPLINE
  5
135
100
AcDbEntity
  8
Layer_1
 62
7
100
AcDbSpline
 70
8
 71
3
 72
8
 73
4
 74
0
 40
0
 40
0
 40
0
 40
0
 40
1
 40
1
 40
1
 40
1
 10
30.140312
 20
53.810292
 30
0.0
 10
30.217669
 20
54.434957
 30
0.0
 10
30.275711
 20
55.263673
 30
0.0
 10
30.275711
 20
55.743489
 30
0.0
  0
LWPOLYLINE
  5
136
100
AcDbEntity
  8
Layer_1
 62
7
100
AcDbPolyline
 90
5
 70
0
 10
36.943676
 20
47.309079
 30
0.0
 10
36.741032
 20
47.115820
 30
0.0
 10
36.480155
 20
47.473793
 30
0.0
 10
36.480155
 20
47.473793
 30
0.0
 10
36.480166
 20
47.473793
 30
0.0
  0
SPLINE
  5
137
100
AcDbEntity
  8
Layer_1
 62
7
100
AcDbSpline
 70
8
 71
3
 72
8
 73
4
 74
0
 40
0
 40
0
 40
0
 40
0
 40
1
 40
1
 40
1
 40
1
 10
30.762781
 20
56.048899
 30
0.0
 10
31.030669
 20
56.036241
 30
0.0
 10
31.254723
 20
56.021014
 30
0.0
 10
31.260675
 20
56.015061
 30
0.0
  0
SPLINE
  5
138
100
AcDbEntity
  8
Layer_1
 62
7
100
AcDbSpline
 70
8
 71
3
 72
8
 73
4
 74
0
 40
0
 40
0
 40
0
 40
0
 40
1
 40
1
 40
1
 40
1
 10
31.260675
 20
56.015061
 30
0.0
 10
31.281616
 20
55.994124
 30
0.0
 10
31.200076
 20
54.549945
 30
0.0
 10
31.152090
 20
54.091739
 30
0.0
  0
SPLINE
  5
139
100
AcDbEntity
  8
Layer_1
 62
7
100
AcDbSpline
 70
8
 71
3
 72
8
 73
4
 74
0
 40
0
 40
0
 40
0
 40
0
 40
1
 40
1
 40
1
 40
1
 10
31.152090
 20
54.091739
 30
0.0
 10
30.889064
 20
51.580268
 30
0.0
 10
30.170998
 20
49.457184
 30
0.0
 10
28.968054
 20
47.634280
 30
0.0
  0
SPLINE
  5
13a
100
AcDbEntity
  8
Layer_1
 62
7
100
AcDbSpline
 70
8
 71
3
 72
8
 73
4
 74
0
 40
0
 40
0
 40
0
 40
0
 40
1
 40
1
 40
1
 40
1
 10
28.968054
 20
47.634280
 30
0.0
 10
28.799539
 20
47.378919
 30
0.0
 10
28.640639
 20
47.152539
 30
0.0
 10
28.614943
 20
47.131212
 30
0.0
  0
SPLINE
  5
13b
100
AcDbEntity
  8
Layer_1
 62
7
100
AcDbSpline
 70
8
 71
3
 72
8
 73
4
 74
0
 40
0
 40
0
 40
0
 40
0
 40
1
 40
1
 40
1
 40
1
 10
28.614943
 20
47.131212
 30
0.0
 10
28.577258
 20
47.099937
 30
0.0
 10
28.493477
 20
47.154507
 30
0.0
 10
28.181715
 20
47.413392
 30
0.0
  0
LWPOLYLINE
  5
13c
100
AcDbEntity
  8
Layer_1
 62
7
100
AcDbPolyline
 90
3
 70
0
 10
30.275711
 20
55.743489
 30
0.0
 10
30.275711
 20
56.071913
 30
0.0
 10
30.762781
 20
56.048899
 30
0.0
  0
LWPOLYLINE
  5
13d
100
AcDbEntity
  8
Layer_1
 62
7
100
AcDbPolyline
 90
3
 70
0
 10
28.181715
 20
47.413392
 30
0.0
 10
28.181715
 20
47.413392
 30
0.0
 10
28.181715
 20
47.413392
 30
0.0
  0
SPLINE
  5
13e
100
AcDbEntity
  8
Layer_1
 62
7
100
AcDbSpline
 70
8
 71
3
 72
8
 73
4
 74
0
 40
0
 40
0
 40
0
 40
0
 40
1
 40
1
 40
1
 40
1
 10
31.351832
 20
26.132700
 30
0.0
 10
32.967882
 20
26.132700
 30
0.0
 10
33.851743
 20
26.144214
 30
0.0
 10
33.851743
 20
26.165257
 30
0.0
  0
SPLINE
  5
13f
100
AcDbEntity
  8
Layer_1
 62
7
100
AcDbSpline
 70
8
 71
3
 72
8
 73
4
 74
0
 40
0
 40
0
 40
0
 40
0
 40
1
 40
1
 40
1
 40
1
 10
33.851743
 20
26.165257
 30
0.0
 10
33.851743
 20
26.214045
 30
0.0
 10
34.046168
 20
29.664947
 30
0.0
 10
34.060246
 20
29.866013
 30
0.0
  0
LWPOLYLINE
  5
140
100
AcDbEntity
  8
Layer_1
 62
7
100
AcDbPolyline
 90
3
 70
0
 10
28.851919
 20
25.636028
 30
0.0
 10
28.851919
 20
26.132700
 30
0.0
 10
31.351832
 20
26.132700
 30
0.0
  0
SPLINE
  5
141
100
AcDbEntity
  8
Layer_1
 62
7
100
AcDbSpline
 70
8
 71
3
 72
8
 73
4
 74
0
 40
0
 40
0
 40
0
 40
0
 40
1
 40
1
 40
1
 40
1
 10
35.128612
 20
30.726910
 30
0.0
 10
35.090075
 20
30.266910
 30
0.0
 10
34.875464
 20
26.157493
 30
0.0
 10
34.889259
 20
26.143698
 30
0.0
  0
SPLINE
  5
142
100
AcDbEntity
  8
Layer_1
 62
7
100
AcDbSpline
 70
8
 71
3
 72
8
 73
4
 74
0
 40
0
 40
0
 40
0
 40
0
 40
1
 40
1
 40
1
 40
1
 10
34.889259
 20
26.143698
 30
0.0
 10
34.896908
 20
26.136050
 30
0.0
 10
35.262591
 20
26.120640
 30
0.0
 10
35.701899
 20
26.109459
 30
0.0
  0
LWPOLYLINE
  5
143
100
AcDbEntity
  8
Layer_1
 62
7
100
AcDbPolyline
 90
9
 70
0
 10
34.060246
 20
29.866013
 30
0.0
 10
34.072409
 20
30.039848
 30
0.0
 10
31.991943
 20
30.039848
 30
0.0
 10
29.911480
 20
30.039848
 30
0.0
 10
29.911480
 20
30.503408
 30
0.0
 10
29.911480
 20
30.966968
 30
0.0
 10
32.530107
 20
30.966968
 30
0.0
 10
35.148734
 20
30.966968
 30
0.0
 10
35.128612
 20
30.726910
 30
0.0
  0
SPLINE
  5
144
100
AcDbEntity
  8
Layer_1
 62
7
100
AcDbSpline
 70
8
 71
3
 72
8
 73
4
 74
0
 40
0
 40
0
 40
0
 40
0
 40
1
 40
1
 40
1
 40
1
 10
29.580372
 20
35.838975
 30
0.0
 10
29.580372
 20
35.859732
 30
0.0
 10
29.475955
 20
36.069570
 30
0.0
 10
29.348334
 20
36.305280
 30
0.0
  0
SPLINE
  5
145
100
AcDbEntity
  8
Layer_1
 62
7
100
AcDbSpline
 70
8
 71
3
 72
8
 73
4
 74
0
 40
0
 40
0
 40
0
 40
0
 40
1
 40
1
 40
1
 40
1
 10
29.348334
 20
36.305280
 30
0.0
 10
29.220713
 20
36.540990
 30
0.0
 10
29.124741
 20
36.747509
 30
0.0
 10
29.135062
 20
36.764210
 30
0.0
  0
SPLINE
  5
146
100
AcDbEntity
  8
Layer_1
 62
7
100
AcDbSpline
 70
8
 71
3
 72
8
 73
4
 74
0
 40
0
 40
0
 40
0
 40
0
 40
1
 40
1
 40
1
 40
1
 10
29.135062
 20
36.764210
 30
0.0
 10
29.145391
 20
36.780912
 30
0.0
 10
29.175518
 20
36.794577
 30
0.0
 10
29.202027
 20
36.794577
 30
0.0
  0
SPLINE
  5
147
100
AcDbEntity
  8
Layer_1
 62
7
100
AcDbSpline
 70
8
 71
3
 72
8
 73
4
 74
0
 40
0
 40
0
 40
0
 40
0
 40
1
 40
1
 40
1
 40
1
 10
29.202027
 20
36.794577
 30
0.0
 10
29.317213
 20
36.794577
 30
0.0
 10
30.253615
 20
37.130325
 30
0.0
 10
30.540602
 20
37.274525
 30
0.0
  0
SPLINE
  5
148
100
AcDbEntity
  8
Layer_1
 62
7
100
AcDbSpline
 70
8
 71
3
 72
8
 73
4
 74
0
 40
0
 40
0
 40
0
 40
0
 40
1
 40
1
 40
1
 40
1
 10
30.540602
 20
37.274525
 30
0.0
 10
31.306121
 20
37.659172
 30
0.0
 10
31.704898
 20
38.052649
 30
0.0
 10
31.962632
 20
38.677657
 30
0.0
  0
SPLINE
  5
149
100
AcDbEntity
  8
Layer_1
 62
7
100
AcDbSpline
 70
8
 71
3
 72
8
 73
4
 74
0
 40
0
 40
0
 40
0
 40
0
 40
1
 40
1
 40
1
 40
1
 10
31.962632
 20
38.677657
 30
0.0
 10
32.138600
 20
39.104385
 30
0.0
 10
32.261412
 20
39.747693
 30
0.0
 10
32.262123
 20
40.246443
 30
0.0
  0
LWPOLYLINE
  5
14a
100
AcDbEntity
  8
Layer_1
 62
7
100
AcDbPolyline
 90
8
 70
0
 10
35.701899
 20
26.109459
 30
0.0
 10
36.500644
 20
26.089110
 30
0.0
 10
36.500644
 20
25.614232
 30
0.0
 10
36.500644
 20
25.139356
 30
0.0
 10
32.676273
 20
25.139356
 30
0.0
 10
28.851905
 20
25.139356
 30
0.0
 10
28.851905
 20
25.636025
 30
0.0
 10
28.851919
 20
25.636028
 30
0.0
  0
SPLINE
  5
14b
100
AcDbEntity
  8
Layer_1
 62
7
100
AcDbSpline
 70
8
 71
3
 72
8
 73
4
 74
0
 40
0
 40
0
 40
0
 40
0
 40
1
 40
1
 40
1
 40
1
 10
32.262394
 20
42.324184
 30
0.0
 10
32.262394
 20
43.208519
 30
0.0
 10
32.261548
 20
43.218192
 30
0.0
 10
32.193298
 20
43.218192
 30
0.0
  0
SPLINE
  5
14c
100
AcDbEntity
  8
Layer_1
 62
7
100
AcDbSpline
 70
8
 71
3
 72
8
 73
4
 74
0
 40
0
 40
0
 40
0
 40
0
 40
1
 40
1
 40
1
 40
1
 10
32.193298
 20
43.218192
 30
0.0
 10
32.155294
 20
43.218192
 30
0.0
 10
31.942967
 20
43.196063
 30
0.0
 10
31.721459
 20
43.169018
 30
0.0
  0
SPLINE
  5
14d
100
AcDbEntity
  8
Layer_1
 62
7
100
AcDbSpline
 70
8
 71
3
 72
8
 73
4
 74
0
 40
0
 40
0
 40
0
 40
0
 40
1
 40
1
 40
1
 40
1
 10
31.721459
 20
43.169018
 30
0.0
 10
31.200395
 20
43.105396
 30
0.0
 10
29.136981
 20
42.887078
 30
0.0
 10
29.056722
 20
42.887078
 30
0.0
  0
SPLINE
  5
14e
100
AcDbEntity
  8
Layer_1
 62
7
100
AcDbSpline
 70
8
 71
3
 72
8
 73
4
 74
0
 40
0
 40
0
 40
0
 40
0
 40
1
 40
1
 40
1
 40
1
 10
29.056722
 20
42.887078
 30
0.0
 10
29.005400
 20
42.887078
 30
0.0
 10
28.974593
 20
42.965141
 30
0.0
 10
28.871793
 20
43.355683
 30
0.0
  0
SPLINE
  5
14f
100
AcDbEntity
  8
Layer_1
 62
7
100
AcDbSpline
 70
8
 71
3
 72
8
 73
4
 74
0
 40
0
 40
0
 40
0
 40
0
 40
1
 40
1
 40
1
 40
1
 10
28.871793
 20
43.355683
 30
0.0
 10
28.733592
 20
43.880725
 30
0.0
 10
28.733186
 20
43.878824
 30
0.0
 10
28.984366
 20
43.880256
 30
0.0
  0
SPLINE
  5
150
100
AcDbEntity
  8
Layer_1
 62
7
100
AcDbSpline
 70
8
 71
3
 72
8
 73
4
 74
0
 40
0
 40
0
 40
0
 40
0
 40
1
 40
1
 40
1
 40
1
 10
28.984366
 20
43.880256
 30
0.0
 10
29.066315
 20
43.880736
 30
0.0
 10
29.468620
 20
43.910605
 30
0.0
 10
29.878373
 20
43.946659
 30
0.0
  0
SPLINE
  5
151
100
AcDbEntity
  8
Layer_1
 62
7
100
AcDbSpline
 70
8
 71
3
 72
8
 73
4
 74
0
 40
0
 40
0
 40
0
 40
0
 40
1
 40
1
 40
1
 40
1
 10
29.878373
 20
43.946659
 30
0.0
 10
32.270886
 20
44.157179
 30
0.0
 10
33.903621
 20
44.424357
 30
0.0
 10
35.268219
 20
44.828643
 30
0.0
  0
SPLINE
  5
152
100
AcDbEntity
  8
Layer_1
 62
7
100
AcDbSpline
 70
8
 71
3
 72
8
 73
4
 74
0
 40
0
 40
0
 40
0
 40
0
 40
1
 40
1
 40
1
 40
1
 10
35.268219
 20
44.828643
 30
0.0
 10
35.491838
 20
44.894893
 30
0.0
 10
35.680122
 20
44.943323
 30
0.0
 10
35.686630
 20
44.936264
 30
0.0
  0
SPLINE
  5
153
100
AcDbEntity
  8
Layer_1
 62
7
100
AcDbSpline
 70
8
 71
3
 72
8
 73
4
 74
0
 40
0
 40
0
 40
0
 40
0
 40
1
 40
1
 40
1
 40
1
 10
35.686630
 20
44.936264
 30
0.0
 10
35.730313
 20
44.888893
 30
0.0
 10
36.202654
 20
44.139261
 30
0.0
 10
36.202654
 20
44.117306
 30
0.0
  0
SPLINE
  5
154
100
AcDbEntity
  8
Layer_1
 62
7
100
AcDbSpline
 70
8
 71
3
 72
8
 73
4
 74
0
 40
0
 40
0
 40
0
 40
0
 40
1
 40
1
 40
1
 40
1
 10
36.202654
 20
44.117306
 30
0.0
 10
36.202654
 20
44.050348
 30
0.0
 10
34.817084
 20
43.672162
 30
0.0
 10
33.835360
 20
43.471164
 30
0.0
  0
LWPOLYLINE
  5
155
100
AcDbEntity
  8
Layer_1
 62
7
100
AcDbPolyline
 90
9
 70
0
 10
32.262123
 20
40.246443
 30
0.0
 10
32.262394
 20
40.436833
 30
0.0
 10
30.159822
 20
40.436833
 30
0.0
 10
28.057245
 20
40.436833
 30
0.0
 10
28.057245
 20
40.933505
 30
0.0
 10
28.057245
 20
41.430176
 30
0.0
 10
30.159822
 20
41.430176
 30
0.0
 10
32.262394
 20
41.430176
 30
0.0
 10
32.262394
 20
42.324184
 30
0.0
  0
SPLINE
  5
156
100
AcDbEntity
  8
Layer_1
 62
7
100
AcDbSpline
 70
8
 71
3
 72
8
 73
4
 74
0
 40
0
 40
0
 40
0
 40
0
 40
1
 40
1
 40
1
 40
1
 10
33.277158
 20
40.031218
 30
0.0
 10
33.176405
 20
38.154547
 30
0.0
 10
32.554336
 20
37.189183
 30
0.0
 10
30.904307
 20
36.348881
 30
0.0
  0
SPLINE
  5
157
100
AcDbEntity
  8
Layer_1
 62
7
100
AcDbSpline
 70
8
 71
3
 72
8
 73
4
 74
0
 40
0
 40
0
 40
0
 40
0
 40
1
 40
1
 40
1
 40
1
 10
30.904307
 20
36.348881
 30
0.0
 10
30.478140
 20
36.131849
 30
0.0
 10
29.706243
 20
35.801235
 30
0.0
 10
29.625696
 20
35.801235
 30
0.0
  0
SPLINE
  5
158
100
AcDbEntity
  8
Layer_1
 62
7
100
AcDbSpline
 70
8
 71
3
 72
8
 73
4
 74
0
 40
0
 40
0
 40
0
 40
0
 40
1
 40
1
 40
1
 40
1
 10
29.625696
 20
35.801235
 30
0.0
 10
29.600776
 20
35.801235
 30
0.0
 10
29.580366
 20
35.818219
 30
0.0
 10
29.580366
 20
35.838975
 30
0.0
  0
LWPOLYLINE
  5
159
100
AcDbEntity
  8
Layer_1
 62
7
100
AcDbPolyline
 90
11
 70
0
 10
33.835360
 20
43.471164
 30
0.0
 10
33.305406
 20
43.362660
 30
0.0
 10
33.296629
 20
42.396418
 30
0.0
 10
33.287851
 20
41.430176
 30
0.0
 10
35.291593
 20
41.430176
 30
0.0
 10
37.295334
 20
41.430176
 30
0.0
 10
37.295334
 20
40.933505
 30
0.0
 10
37.295334
 20
40.436833
 30
0.0
 10
35.297138
 20
40.436833
 30
0.0
 10
33.298946
 20
40.436833
 30
0.0
 10
33.277158
 20
40.031218
 30
0.0
  0
LWPOLYLINE
  5
15a
100
AcDbEntity
  8
Layer_1
 62
7
100
AcDbPolyline
 90
2
 70
0
 10
29.580366
 20
35.838975
 30
0.0
 10
29.580372
 20
35.838975
 30
0.0
  0
SPLINE
  5
15b
100
AcDbEntity
  8
Layer_1
 62
7
100
AcDbSpline
 70
8
 71
3
 72
8
 73
4
 74
0
 40
0
 40
0
 40
0
 40
0
 40
1
 40
1
 40
1
 40
1
 10
31.401498
 20
13.189308
 30
0.0
 10
31.401498
 20
13.209177
 30
0.0
 10
31.304586
 20
13.435395
 30
0.0
 10
31.186140
 20
13.691994
 30
0.0
  0
SPLINE
  5
15c
100
AcDbEntity
  8
Layer_1
 62
7
100
AcDbSpline
 70
8
 71
3
 72
8
 73
4
 74
0
 40
0
 40
0
 40
0
 40
0
 40
1
 40
1
 40
1
 40
1
 10
31.186140
 20
13.691994
 30
0.0
 10
31.067691
 20
13.948591
 30
0.0
 10
30.976460
 20
14.164217
 30
0.0
 10
30.983403
 20
14.171160
 30
0.0
  0
SPLINE
  5
15d
100
AcDbEntity
  8
Layer_1
 62
7
100
AcDbSpline
 70
8
 71
3
 72
8
 73
4
 74
0
 40
0
 40
0
 40
0
 40
0
 40
1
 40
1
 40
1
 40
1
 10
30.983403
 20
14.171160
 30
0.0
 10
30.990345
 20
14.178102
 30
0.0
 10
31.232534
 20
14.236613
 30
0.0
 10
31.521598
 20
14.301182
 30
0.0
  0
SPLINE
  5
15e
100
AcDbEntity
  8
Layer_1
 62
7
100
AcDbSpline
 70
8
 71
3
 72
8
 73
4
 74
0
 40
0
 40
0
 40
0
 40
0
 40
1
 40
1
 40
1
 40
1
 10
31.521598
 20
14.301182
 30
0.0
 10
32.149816
 20
14.441511
 30
0.0
 10
32.815541
 20
14.655168
 30
0.0
 10
33.156491
 20
14.825878
 30
0.0
  0
SPLINE
  5
15f
100
AcDbEntity
  8
Layer_1
 62
7
100
AcDbSpline
 70
8
 71
3
 72
8
 73
4
 74
0
 40
0
 40
0
 40
0
 40
0
 40
1
 40
1
 40
1
 40
1
 10
33.156491
 20
14.825878
 30
0.0
 10
33.832619
 20
15.164415
 30
0.0
 10
34.293841
 20
15.667355
 30
0.0
 10
34.493155
 20
16.283457
 30
0.0
  0
SPLINE
  5
160
100
AcDbEntity
  8
Layer_1
 62
7
100
AcDbSpline
 70
8
 71
3
 72
8
 73
4
 74
0
 40
0
 40
0
 40
0
 40
0
 40
1
 40
1
 40
1
 40
1
 10
34.493155
 20
16.283457
 30
0.0
 10
34.645360
 20
16.753944
 30
0.0
 10
34.654699
 20
16.936633
 30
0.0
 10
34.669611
 20
19.735323
 30
0.0
  0
LWPOLYLINE
  5
161
100
AcDbEntity
  8
Layer_1
 62
7
100
AcDbPolyline
 90
10
 70
0
 10
32.163060
 20
7.955935
 30
0.0
 10
32.163060
 20
12.061752
 30
0.0
 10
32.692845
 20
12.061752
 30
0.0
 10
33.222627
 20
12.061752
 30
0.0
 10
33.222627
 20
7.955935
 30
0.0
 10
33.222627
 20
3.850118
 30
0.0
 10
32.692845
 20
3.850118
 30
0.0
 10
32.163060
 20
3.850118
 30
0.0
 10
32.163060
 20
7.955935
 30
0.0
 10
32.163060
 20
7.955935
 30
0.0
  0
SPLINE
  5
162
100
AcDbEntity
  8
Layer_1
 62
7
100
AcDbSpline
 70
8
 71
3
 72
8
 73
4
 74
0
 40
0
 40
0
 40
0
 40
0
 40
1
 40
1
 40
1
 40
1
 10
35.788973
 20
20.347884
 30
0.0
 10
35.759785
 20
16.893797
 30
0.0
 10
35.749157
 20
16.712207
 30
0.0
 10
35.537532
 20
16.051677
 30
0.0
  0
SPLINE
  5
163
100
AcDbEntity
  8
Layer_1
 62
7
100
AcDbSpline
 70
8
 71
3
 72
8
 73
4
 74
0
 40
0
 40
0
 40
0
 40
0
 40
1
 40
1
 40
1
 40
1
 10
35.537532
 20
16.051677
 30
0.0
 10
35.293740
 20
15.290738
 30
0.0
 10
34.815103
 20
14.648028
 30
0.0
 10
34.170041
 20
14.215423
 30
0.0
  0
SPLINE
  5
164
100
AcDbEntity
  8
Layer_1
 62
7
100
AcDbSpline
 70
8
 71
3
 72
8
 73
4
 74
0
 40
0
 40
0
 40
0
 40
0
 40
1
 40
1
 40
1
 40
1
 10
34.170041
 20
14.215423
 30
0.0
 10
33.644696
 20
13.863103
 30
0.0
 10
32.793412
 20
13.507909
 30
0.0
 10
31.947852
 20
13.288224
 30
0.0
  0
SPLINE
  5
165
100
AcDbEntity
  8
Layer_1
 62
7
100
AcDbSpline
 70
8
 71
3
 72
8
 73
4
 74
0
 40
0
 40
0
 40
0
 40
0
 40
1
 40
1
 40
1
 40
1
 10
31.947852
 20
13.288224
 30
0.0
 10
31.427143
 20
13.152938
 30
0.0
 10
31.401512
 20
13.148299
 30
0.0
 10
31.401512
 20
13.189308
 30
0.0
  0
LWPOLYLINE
  5
166
100
AcDbEntity
  8
Layer_1
 62
7
100
AcDbPolyline
 90
5
 70
0
 10
34.669611
 20
19.735323
 30
0.0
 10
34.683779
 20
22.392513
 30
0.0
 10
35.245012
 20
22.392513
 30
0.0
 10
35.806245
 20
22.392513
 30
0.0
 10
35.788973
 20
20.347884
 30
0.0
  0
LWPOLYLINE
  5
167
100
AcDbEntity
  8
Layer_1
 62
7
100
AcDbPolyline
 90
2
 70
0
 10
31.401512
 20
13.189308
 30
0.0
 10
31.401498
 20
13.189308
 30
0.0
  0
SPLINE
  5
168
100
AcDbEntity
  8
Layer_1
 62
7
100
AcDbSpline
 70
8
 71
3
 72
8
 73
4
 74
0
 40
0
 40
0
 40
0
 40
0
 40
1
 40
1
 40
1
 40
1
 10
2.595723
 20
11.749823
 30
0.0
 10
2.470811
 20
12.014539
 30
0.0
 10
2.373960
 20
12.234929
 30
0.0
 10
2.380499
 20
12.239577
 30
0.0
  0
SPLINE
  5
169
100
AcDbEntity
  8
Layer_1
 62
7
100
AcDbSpline
 70
8
 71
3
 72
8
 73
4
 74
0
 40
0
 40
0
 40
0
 40
0
 40
1
 40
1
 40
1
 40
1
 10
2.380499
 20
12.239577
 30
0.0
 10
2.387038
 20
12.244234
 30
0.0
 10
2.511589
 20
12.274578
 30
0.0
 10
2.657279
 20
12.307022
 30
0.0
  0
SPLINE
  5
16a
100
AcDbEntity
  8
Layer_1
 62
7
100
AcDbSpline
 70
8
 71
3
 72
8
 73
4
 74
0
 40
0
 40
0
 40
0
 40
0
 40
1
 40
1
 40
1
 40
1
 10
2.657279
 20
12.307022
 30
0.0
 10
4.754104
 20
12.773982
 30
0.0
 10
6.125858
 20
13.779556
 30
0.0
 10
6.561463
 20
15.169018
 30
0.0
  0
SPLINE
  5
16b
100
AcDbEntity
  8
Layer_1
 62
7
100
AcDbSpline
 70
8
 71
3
 72
8
 73
4
 74
0
 40
0
 40
0
 40
0
 40
0
 40
1
 40
1
 40
1
 40
1
 10
6.561463
 20
15.169018
 30
0.0
 10
6.719494
 20
15.673095
 30
0.0
 10
6.881423
 20
16.600466
 30
0.0
 10
7.009511
 20
17.735000
 30
0.0
  0
SPLINE
  5
16c
100
AcDbEntity
  8
Layer_1
 62
7
100
AcDbSpline
 70
8
 71
3
 72
8
 73
4
 74
0
 40
0
 40
0
 40
0
 40
0
 40
1
 40
1
 40
1
 40
1
 10
7.009511
 20
17.735000
 30
0.0
 10
7.044131
 20
18.041645
 30
0.0
 10
7.077350
 20
18.297342
 30
0.0
 10
7.083332
 20
18.303215
 30
0.0
  0
SPLINE
  5
16d
100
AcDbEntity
  8
Layer_1
 62
7
100
AcDbSpline
 70
8
 71
3
 72
8
 73
4
 74
0
 40
0
 40
0
 40
0
 40
0
 40
1
 40
1
 40
1
 40
1
 10
7.083332
 20
18.303215
 30
0.0
 10
7.089316
 20
18.309085
 30
0.0
 10
7.330095
 20
18.275783
 30
0.0
 10
7.618400
 20
18.229199
 30
0.0
  0
LWPOLYLINE
  5
16e
100
AcDbEntity
  8
Layer_1
 62
7
100
AcDbPolyline
 90
10
 70
0
 10
29.580372
 20
19.263484
 30
0.0
 10
29.580372
 20
22.160732
 30
0.0
 10
30.110153
 20
22.160732
 30
0.0
 10
30.639935
 20
22.160732
 30
0.0
 10
30.639935
 20
19.263484
 30
0.0
 10
30.639935
 20
16.366236
 30
0.0
 10
30.110153
 20
16.366236
 30
0.0
 10
29.580372
 20
16.366236
 30
0.0
 10
29.580372
 20
19.263484
 30
0.0
 10
29.580372
 20
19.263484
 30
0.0
  0
SPLINE
  5
16f
100
AcDbEntity
  8
Layer_1
 62
7
100
AcDbSpline
 70
8
 71
3
 72
8
 73
4
 74
0
 40
0
 40
0
 40
0
 40
0
 40
1
 40
1
 40
1
 40
1
 10
8.121127
 20
17.942433
 30
0.0
 10
7.974666
 20
16.563430
 30
0.0
 10
7.788889
 20
15.510713
 30
0.0
 10
7.568334
 20
14.809998
 30
0.0
  0
SPLINE
  5
170
100
AcDbEntity
  8
Layer_1
 62
7
100
AcDbSpline
 70
8
 71
3
 72
8
 73
4
 74
0
 40
0
 40
0
 40
0
 40
0
 40
1
 40
1
 40
1
 40
1
 10
7.568334
 20
14.809998
 30
0.0
 10
7.199690
 20
13.638790
 30
0.0
 10
6.380324
 20
12.724926
 30
0.0
 10
5.141893
 20
12.103712
 30
0.0
  0
SPLINE
  5
171
100
AcDbEntity
  8
Layer_1
 62
7
100
AcDbSpline
 70
8
 71
3
 72
8
 73
4
 74
0
 40
0
 40
0
 40
0
 40
0
 40
1
 40
1
 40
1
 40
1
 10
5.141893
 20
12.103712
 30
0.0
 10
4.566415
 20
11.815044
 30
0.0
 10
3.385908
 20
11.381463
 30
0.0
 10
2.922170
 20
11.288446
 30
0.0
  0
LWPOLYLINE
  5
172
100
AcDbEntity
  8
Layer_1
 62
7
100
AcDbPolyline
 90
3
 70
0
 10
7.618400
 20
18.229199
 30
0.0
 10
8.142590
 20
18.144507
 30
0.0
 10
8.121127
 20
17.942433
 30
0.0
  0
SPLINE
  5
173
100
AcDbEntity
  8
Layer_1
 62
7
100
AcDbSpline
 70
8
 71
3
 72
8
 73
4
 74
0
 40
0
 40
0
 40
0
 40
0
 40
1
 40
1
 40
1
 40
1
 10
4.113804
 20
15.761953
 30
0.0
 10
3.856523
 20
16.362474
 30
0.0
 10
3.306661
 20
17.406036
 30
0.0
 10
2.982245
 20
17.909498
 30
0.0
  0
SPLINE
  5
174
100
AcDbEntity
  8
Layer_1
 62
7
100
AcDbSpline
 70
8
 71
3
 72
8
 73
4
 74
0
 40
0
 40
0
 40
0
 40
0
 40
1
 40
1
 40
1
 40
1
 10
2.982245
 20
17.909498
 30
0.0
 10
2.939298
 20
17.976147
 30
0.0
 10
2.955623
 20
17.990202
 30
0.0
 10
3.343611
 20
18.220622
 30
0.0
  0
SPLINE
  5
175
100
AcDbEntity
  8
Layer_1
 62
7
100
AcDbSpline
 70
8
 71
3
 72
8
 73
4
 74
0
 40
0
 40
0
 40
0
 40
0
 40
1
 40
1
 40
1
 40
1
 10
3.343611
 20
18.220622
 30
0.0
 10
3.567101
 20
18.353349
 30
0.0
 10
3.759567
 20
18.467126
 30
0.0
 10
3.771315
 20
18.473462
 30
0.0
  0
SPLINE
  5
176
100
AcDbEntity
  8
Layer_1
 62
7
100
AcDbSpline
 70
8
 71
3
 72
8
 73
4
 74
0
 40
0
 40
0
 40
0
 40
0
 40
1
 40
1
 40
1
 40
1
 10
3.771315
 20
18.473462
 30
0.0
 10
3.801457
 20
18.489718
 30
0.0
 10
4.327127
 20
17.598822
 30
0.0
 10
4.619124
 20
17.036615
 30
0.0
  0
SPLINE
  5
177
100
AcDbEntity
  8
Layer_1
 62
7
100
AcDbSpline
 70
8
 71
3
 72
8
 73
4
 74
0
 40
0
 40
0
 40
0
 40
0
 40
1
 40
1
 40
1
 40
1
 10
4.619124
 20
17.036615
 30
0.0
 10
4.849284
 20
16.593470
 30
0.0
 10
5.124080
 20
15.996830
 30
0.0
 10
5.124080
 20
15.940250
 30
0.0
  0
SPLINE
  5
178
100
AcDbEntity
  8
Layer_1
 62
7
100
AcDbSpline
 70
8
 71
3
 72
8
 73
4
 74
0
 40
0
 40
0
 40
0
 40
0
 40
1
 40
1
 40
1
 40
1
 10
5.124080
 20
15.940250
 30
0.0
 10
5.124080
 20
15.917616
 30
0.0
 10
4.297103
 20
15.472227
 30
0.0
 10
4.255069
 20
15.472227
 30
0.0
  0
SPLINE
  5
179
100
AcDbEntity
  8
Layer_1
 62
7
100
AcDbSpline
 70
8
 71
3
 72
8
 73
4
 74
0
 40
0
 40
0
 40
0
 40
0
 40
1
 40
1
 40
1
 40
1
 10
4.255069
 20
15.472227
 30
0.0
 10
4.245642
 20
15.472227
 30
0.0
 10
4.182073
 20
15.602602
 30
0.0
 10
4.113804
 20
15.761953
 30
0.0
  0
LWPOLYLINE
  5
17a
100
AcDbEntity
  8
Layer_1
 62
7
100
AcDbPolyline
 90
5
 70
0
 10
2.922170
 20
11.288446
 30
0.0
 10
2.822835
 20
11.268521
 30
0.0
 10
2.595722
 20
11.749820
 30
0.0
 10
2.595722
 20
11.749820
 30
0.0
 10
2.595723
 20
11.749823
 30
0.0
  0
SPLINE
  5
17b
100
AcDbEntity
  8
Layer_1
 62
7
100
AcDbSpline
 70
8
 71
3
 72
8
 73
4
 74
0
 40
0
 40
0
 40
0
 40
0
 40
1
 40
1
 40
1
 40
1
 10
2.055528
 20
14.768610
 30
0.0
 10
1.847618
 20
15.364347
 30
0.0
 10
1.318644
 20
16.416994
 30
0.0
 10
0.953190
 20
16.962241
 30
0.0
  0
SPLINE
  5
17c
100
AcDbEntity
  8
Layer_1
 62
7
100
AcDbSpline
 70
8
 71
3
 72
8
 73
4
 74
0
 40
0
 40
0
 40
0
 40
0
 40
1
 40
1
 40
1
 40
1
 10
0.953190
 20
16.962241
 30
0.0
 10
0.886056
 20
17.062402
 30
0.0
 10
0.820462
 20
17.162560
 30
0.0
 10
0.807426
 20
17.184813
 30
0.0
  0
SPLINE
  5
17d
100
AcDbEntity
  8
Layer_1
 62
7
100
AcDbSpline
 70
8
 71
3
 72
8
 73
4
 74
0
 40
0
 40
0
 40
0
 40
0
 40
1
 40
1
 40
1
 40
1
 10
0.807426
 20
17.184813
 30
0.0
 10
0.791224
 20
17.212471
 30
0.0
 10
0.918046
 20
17.292582
 30
0.0
 10
1.208217
 20
17.437989
 30
0.0
  0
LWPOLYLINE
  5
17e
100
AcDbEntity
  8
Layer_1
 62
7
100
AcDbPolyline
 90
2
 70
0
 10
4.113804
 20
15.761953
 30
0.0
 10
4.113804
 20
15.761953
 30
0.0
  0
SPLINE
  5
17f
100
AcDbEntity
  8
Layer_1
 62
7
100
AcDbSpline
 70
8
 71
3
 72
8
 73
4
 74
0
 40
0
 40
0
 40
0
 40
0
 40
1
 40
1
 40
1
 40
1
 10
1.802048
 20
17.414085
 30
0.0
 10
2.087017
 20
17.015892
 30
0.0
 10
2.338087
 20
16.578377
 30
0.0
 10
2.678882
 20
15.886120
 30
0.0
  0
SPLINE
  5
180
100
AcDbEntity
  8
Layer_1
 62
7
100
AcDbSpline
 70
8
 71
3
 72
8
 73
4
 74
0
 40
0
 40
0
 40
0
 40
0
 40
1
 40
1
 40
1
 40
1
 10
2.678882
 20
15.886120
 30
0.0
 10
2.858188
 20
15.521895
 30
0.0
 10
3.004906
 20
15.208735
 30
0.0
 10
3.004921
 20
15.190210
 30
0.0
  0
SPLINE
  5
181
100
AcDbEntity
  8
Layer_1
 62
7
100
AcDbSpline
 70
8
 71
3
 72
8
 73
4
 74
0
 40
0
 40
0
 40
0
 40
0
 40
1
 40
1
 40
1
 40
1
 10
3.004921
 20
15.190210
 30
0.0
 10
3.004944
 20
15.162157
 30
0.0
 10
2.146432
 20
14.710664
 30
0.0
 10
2.093033
 20
14.710664
 30
0.0
  0
SPLINE
  5
182
100
AcDbEntity
  8
Layer_1
 62
7
100
AcDbSpline
 70
8
 71
3
 72
8
 73
4
 74
0
 40
0
 40
0
 40
0
 40
0
 40
1
 40
1
 40
1
 40
1
 10
2.093033
 20
14.710664
 30
0.0
 10
2.083528
 20
14.710664
 30
0.0
 10
2.066651
 20
14.736741
 30
0.0
 10
2.055528
 20
14.768610
 30
0.0
  0
LWPOLYLINE
  5
183
100
AcDbEntity
  8
Layer_1
 62
7
100
AcDbPolyline
 90
3
 70
0
 10
1.208217
 20
17.437989
 30
0.0
 10
1.632710
 20
17.650703
 30
0.0
 10
1.802048
 20
17.414085
 30
0.0
  0
SPLINE
  5
184
100
AcDbEntity
  8
Layer_1
 62
7
100
AcDbSpline
 70
8
 71
3
 72
8
 73
4
 74
0
 40
0
 40
0
 40
0
 40
0
 40
1
 40
1
 40
1
 40
1
 10
3.650622
 20
6.966912
 30
0.0
 10
3.286348
 20
7.187638
 30
0.0
 10
2.070645
 20
7.765694
 30
0.0
 10
1.465337
 20
8.005995
 30
0.0
  0
LWPOLYLINE
  5
185
100
AcDbEntity
  8
Layer_1
 62
7
100
AcDbPolyline
 90
2
 70
0
 10
2.055528
 20
14.768610
 30
0.0
 10
2.055528
 20
14.768610
 30
0.0
  0
SPLINE
  5
186
100
AcDbEntity
  8
Layer_1
 62
7
100
AcDbSpline
 70
8
 71
3
 72
8
 73
4
 74
0
 40
0
 40
0
 40
0
 40
0
 40
1
 40
1
 40
1
 40
1
 10
0.899873
 20
8.431208
 30
0.0
 10
0.941895
 20
8.524929
 30
0.0
 10
1.034150
 20
8.731704
 30
0.0
 10
1.104883
 20
8.890708
 30
0.0
  0
SPLINE
  5
187
100
AcDbEntity
  8
Layer_1
 62
7
100
AcDbSpline
 70
8
 71
3
 72
8
 73
4
 74
0
 40
0
 40
0
 40
0
 40
0
 40
1
 40
1
 40
1
 40
1
 10
1.104883
 20
8.890708
 30
0.0
 10
1.175616
 20
9.049715
 30
0.0
 10
1.245274
 20
9.180091
 30
0.0
 10
1.259680
 20
9.180435
 30
0.0
  0
SPLINE
  5
188
100
AcDbEntity
  8
Layer_1
 62
7
100
AcDbSpline
 70
8
 71
3
 72
8
 73
4
 74
0
 40
0
 40
0
 40
0
 40
0
 40
1
 40
1
 40
1
 40
1
 10
1.259680
 20
9.180435
 30
0.0
 10
1.274085
 20
9.180717
 30
0.0
 10
1.586988
 20
9.060047
 30
0.0
 10
1.955020
 20
8.912146
 30
0.0
  0
SPLINE
  5
189
100
AcDbEntity
  8
Layer_1
 62
7
100
AcDbSpline
 70
8
 71
3
 72
8
 73
4
 74
0
 40
0
 40
0
 40
0
 40
0
 40
1
 40
1
 40
1
 40
1
 10
1.955020
 20
8.912146
 30
0.0
 10
2.713948
 20
8.607157
 30
0.0
 10
3.549010
 20
8.225674
 30
0.0
 10
4.072335
 20
7.944889
 30
0.0
  0
LWPOLYLINE
  5
18a
100
AcDbEntity
  8
Layer_1
 62
7
100
AcDbPolyline
 90
3
 70
0
 10
1.465337
 20
8.005995
 30
0.0
 10
0.823470
 20
8.260811
 30
0.0
 10
0.899873
 20
8.431208
 30
0.0
  0
SPLINE
  5
18b
100
AcDbEntity
  8
Layer_1
 62
7
100
AcDbSpline
 70
8
 71
3
 72
8
 73
4
 74
0
 40
0
 40
0
 40
0
 40
0
 40
1
 40
1
 40
1
 40
1
 10
4.129695
 20
7.308706
 30
0.0
 10
3.965723
 20
7.063709
 30
0.0
 10
3.828102
 20
6.864009
 30
0.0
 10
3.823872
 20
6.864926
 30
0.0
  0
SPLINE
  5
18c
100
AcDbEntity
  8
Layer_1
 62
7
100
AcDbSpline
 70
8
 71
3
 72
8
 73
4
 74
0
 40
0
 40
0
 40
0
 40
0
 40
1
 40
1
 40
1
 40
1
 10
3.823872
 20
6.864926
 30
0.0
 10
3.819641
 20
6.865772
 30
0.0
 10
3.741678
 20
6.911738
 30
0.0
 10
3.650622
 20
6.966912
 30
0.0
  0
LWPOLYLINE
  5
18d
100
AcDbEntity
  8
Layer_1
 62
7
100
AcDbPolyline
 90
3
 70
0
 10
4.072335
 20
7.944889
 30
0.0
 10
4.427826
 20
7.754152
 30
0.0
 10
4.129695
 20
7.308706
 30
0.0
  0
SPLINE
  5
18e
100
AcDbEntity
  8
Layer_1
 62
7
100
AcDbSpline
 70
8
 71
3
 72
8
 73
4
 74
0
 40
0
 40
0
 40
0
 40
0
 40
1
 40
1
 40
1
 40
1
 10
2.924059
 20
4.235899
 30
0.0
 10
2.611309
 20
4.399362
 30
0.0
 10
1.693010
 20
4.753590
 30
0.0
 10
0.869636
 20
5.028376
 30
0.0
  0
SPLINE
  5
18f
100
AcDbEntity
  8
Layer_1
 62
7
100
AcDbSpline
 70
8
 71
3
 72
8
 73
4
 74
0
 40
0
 40
0
 40
0
 40
0
 40
1
 40
1
 40
1
 40
1
 10
0.869636
 20
5.028376
 30
0.0
 10
0.414149
 20
5.180389
 30
0.0
 10
0.041477
 20
5.317513
 30
0.0
 10
0.041477
 20
5.333100
 30
0.0
  0
SPLINE
  5
190
100
AcDbEntity
  8
Layer_1
 62
7
100
AcDbSpline
 70
8
 71
3
 72
8
 73
4
 74
0
 40
0
 40
0
 40
0
 40
0
 40
1
 40
1
 40
1
 40
1
 10
0.041477
 20
5.333100
 30
0.0
 10
0.041477
 20
5.426843
 30
0.0
 10
0.278580
 20
6.234111
 30
0.0
 10
0.306074
 20
6.233976
 30
0.0
  0
SPLINE
  5
191
100
AcDbEntity
  8
Layer_1
 62
7
100
AcDbSpline
 70
8
 71
3
 72
8
 73
4
 74
0
 40
0
 40
0
 40
0
 40
0
 40
1
 40
1
 40
1
 40
1
 10
0.306074
 20
6.233976
 30
0.0
 10
0.390949
 20
6.233693
 30
0.0
 10
1.377271
 20
5.958118
 30
0.0
 10
1.763271
 20
5.827042
 30
0.0
  0
SPLINE
  5
192
100
AcDbEntity
  8
Layer_1
 62
7
100
AcDbSpline
 70
8
 71
3
 72
8
 73
4
 74
0
 40
0
 40
0
 40
0
 40
0
 40
1
 40
1
 40
1
 40
1
 10
1.763271
 20
5.827042
 30
0.0
 10
2.322071
 20
5.637284
 30
0.0
 10
3.501698
 20
5.144996
 30
0.0
 10
3.501598
 20
5.101590
 30
0.0
  0
SPLINE
  5
193
100
AcDbEntity
  8
Layer_1
 62
7
100
AcDbSpline
 70
8
 71
3
 72
8
 73
4
 74
0
 40
0
 40
0
 40
0
 40
0
 40
1
 40
1
 40
1
 40
1
 10
3.501598
 20
5.101590
 30
0.0
 10
3.501585
 20
5.096200
 30
0.0
 10
3.428734
 20
4.883195
 30
0.0
 10
3.339707
 20
4.628238
 30
0.0
  0
SPLINE
  5
194
100
AcDbEntity
  8
Layer_1
 62
7
100
AcDbSpline
 70
8
 71
3
 72
8
 73
4
 74
0
 40
0
 40
0
 40
0
 40
0
 40
1
 40
1
 40
1
 40
1
 10
3.339707
 20
4.628238
 30
0.0
 10
3.246626
 20
4.361674
 30
0.0
 10
3.158691
 20
4.161635
 30
0.0
 10
3.132783
 20
4.157514
 30
0.0
  0
SPLINE
  5
195
100
AcDbEntity
  8
Layer_1
 62
7
100
AcDbSpline
 70
8
 71
3
 72
8
 73
4
 74
0
 40
0
 40
0
 40
0
 40
0
 40
1
 40
1
 40
1
 40
1
 10
3.132783
 20
4.157514
 30
0.0
 10
3.108001
 20
4.153591
 30
0.0
 10
3.014077
 20
4.188849
 30
0.0
 10
2.924059
 20
4.235899
 30
0.0
  0
LWPOLYLINE
  5
196
100
AcDbEntity
  8
Layer_1
 62
7
100
AcDbPolyline
 90
2
 70
0
 10
3.650622
 20
6.966912
 30
0.0
 10
3.650622
 20
6.966912
 30
0.0
  0
SPLINE
  5
197
100
AcDbEntity
  8
Layer_1
 62
7
100
AcDbSpline
 70
8
 71
3
 72
8
 73
4
 74
0
 40
0
 40
0
 40
0
 40
0
 40
1
 40
1
 40
1
 40
1
 10
0.708015
 20
0.496945
 30
0.0
 10
0.582906
 20
0.759728
 30
0.0
 10
0.493505
 20
0.985912
 30
0.0
 10
0.509346
 20
0.999575
 30
0.0
  0
SPLINE
  5
198
100
AcDbEntity
  8
Layer_1
 62
7
100
AcDbSpline
 70
8
 71
3
 72
8
 73
4
 74
0
 40
0
 40
0
 40
0
 40
0
 40
1
 40
1
 40
1
 40
1
 10
0.509346
 20
0.999575
 30
0.0
 10
0.525187
 20
1.013234
 30
0.0
 10
0.709500
 20
1.073565
 30
0.0
 10
0.918930
 20
1.133636
 30
0.0
  0
SPLINE
  5
199
100
AcDbEntity
  8
Layer_1
 62
7
100
AcDbSpline
 70
8
 71
3
 72
8
 73
4
 74
0
 40
0
 40
0
 40
0
 40
0
 40
1
 40
1
 40
1
 40
1
 10
0.918930
 20
1.133636
 30
0.0
 10
2.211005
 20
1.504230
 30
0.0
 10
3.457379
 20
2.056954
 30
0.0
 10
4.379073
 20
2.668087
 30
0.0
  0
SPLINE
  5
19a
100
AcDbEntity
  8
Layer_1
 62
7
100
AcDbSpline
 70
8
 71
3
 72
8
 73
4
 74
0
 40
0
 40
0
 40
0
 40
0
 40
1
 40
1
 40
1
 40
1
 10
4.379073
 20
2.668087
 30
0.0
 10
5.657054
 20
3.515459
 30
0.0
 10
6.838216
 20
4.892534
 30
0.0
 10
7.810852
 20
6.669083
 30
0.0
  0
SPLINE
  5
19b
100
AcDbEntity
  8
Layer_1
 62
7
100
AcDbSpline
 70
8
 71
3
 72
8
 73
4
 74
0
 40
0
 40
0
 40
0
 40
0
 40
1
 40
1
 40
1
 40
1
 10
7.810852
 20
6.669083
 30
0.0
 10
7.924159
 20
6.876042
 30
0.0
 10
8.020441
 20
7.050425
 30
0.0
 10
8.024812
 20
7.056605
 30
0.0
  0
SPLINE
  5
19c
100
AcDbEntity
  8
Layer_1
 62
7
100
AcDbSpline
 70
8
 71
3
 72
8
 73
4
 74
0
 40
0
 40
0
 40
0
 40
0
 40
1
 40
1
 40
1
 40
1
 10
8.024812
 20
7.056605
 30
0.0
 10
8.030688
 20
7.064903
 30
0.0
 10
8.752407
 20
6.536902
 30
0.0
 10
8.865245
 20
6.441745
 30
0.0
  0
SPLINE
  5
19d
100
AcDbEntity
  8
Layer_1
 62
7
100
AcDbSpline
 70
8
 71
3
 72
8
 73
4
 74
0
 40
0
 40
0
 40
0
 40
0
 40
1
 40
1
 40
1
 40
1
 10
8.865245
 20
6.441745
 30
0.0
 10
8.907192
 20
6.406371
 30
0.0
 10
8.180028
 20
5.169908
 30
0.0
 10
7.793709
 20
4.619718
 30
0.0
  0
SPLINE
  5
19e
100
AcDbEntity
  8
Layer_1
 62
7
100
AcDbSpline
 70
8
 71
3
 72
8
 73
4
 74
0
 40
0
 40
0
 40
0
 40
0
 40
1
 40
1
 40
1
 40
1
 10
7.793709
 20
4.619718
 30
0.0
 10
7.085219
 20
3.610697
 30
0.0
 10
6.312453
 20
2.793323
 30
0.0
 10
5.464281
 20
2.155822
 30
0.0
  0
SPLINE
  5
19f
100
AcDbEntity
  8
Layer_1
 62
7
100
AcDbSpline
 70
8
 71
3
 72
8
 73
4
 74
0
 40
0
 40
0
 40
0
 40
0
 40
1
 40
1
 40
1
 40
1
 10
5.464281
 20
2.155822
 30
0.0
 10
4.350550
 20
1.318723
 30
0.0
 10
2.793690
 20
0.582270
 30
0.0
 10
0.968597
 20
0.029193
 30
0.0
  0
SPLINE
  5
1a0
100
AcDbEntity
  8
Layer_1
 62
7
100
AcDbSpline
 70
8
 71
3
 72
8
 73
4
 74
0
 40
0
 40
0
 40
0
 40
0
 40
1
 40
1
 40
1
 40
1
 10
0.968597
 20
0.029193
 30
0.0
 10
0.950386
 20
0.023662
 30
0.0
 10
0.833124
 20
0.234163
 30
0.0
 10
0.708015
 20
0.496945
 30
0.0
  0
LWPOLYLINE
  5
1a1
100
AcDbEntity
  8
Layer_1
 62
7
100
AcDbPolyline
 90
2
 70
0
 10
2.924059
 20
4.235899
 30
0.0
 10
2.924059
 20
4.235899
 30
0.0
  0
SPLINE
  5
1a2
100
AcDbEntity
  8
Layer_1
 62
7
100
AcDbSpline
 70
8
 71
3
 72
8
 73
4
 74
0
 40
0
 40
0
 40
0
 40
0
 40
1
 40
1
 40
1
 40
1
 10
7.672781
 20
7.830642
 30
0.0
 10
7.435411
 20
8.181729
 30
0.0
 10
7.179148
 20
8.478173
 30
0.0
 10
6.823297
 20
8.813317
 30
0.0
  0
LWPOLYLINE
  5
1a3
100
AcDbEntity
  8
Layer_1
 62
7
100
AcDbPolyline
 90
2
 70
0
 10
0.708015
 20
0.496945
 30
0.0
 10
0.708015
 20
0.496945
 30
0.0
  0
SPLINE
  5
1a4
100
AcDbEntity
  8
Layer_1
 62
7
100
AcDbSpline
 70
8
 71
3
 72
8
 73
4
 74
0
 40
0
 40
0
 40
0
 40
0
 40
1
 40
1
 40
1
 40
1
 10
7.051952
 20
9.558652
 30
0.0
 10
7.581772
 20
9.094493
 30
0.0
 10
7.969363
 20
8.685519
 30
0.0
 10
8.237235
 20
8.307973
 30
0.0
  0
LWPOLYLINE
  5
1a5
100
AcDbEntity
  8
Layer_1
 62
7
100
AcDbPolyline
 90
5
 70
0
 10
6.823297
 20
8.813317
 30
0.0
 10
6.482701
 20
9.134094
 30
0.0
 10
6.729643
 20
9.379387
 30
0.0
 10
6.976584
 20
9.624681
 30
0.0
 10
7.051952
 20
9.558652
 30
0.0
  0
SPLINE
  5
1a6
100
AcDbEntity
  8
Layer_1
 62
7
100
AcDbSpline
 70
8
 71
3
 72
8
 73
4
 74
0
 40
0
 40
0
 40
0
 40
0
 40
1
 40
1
 40
1
 40
1
 10
8.226513
 20
7.941970
 30
0.0
 10
8.131873
 20
7.865745
 30
0.0
 10
8.000219
 20
7.762697
 30
0.0
 10
7.933949
 20
7.712975
 30
0.0
  0
LWPOLYLINE
  5
1a7
100
AcDbEntity
  8
Layer_1
 62
7
100
AcDbPolyline
 90
3
 70
0
 10
8.237235
 20
8.307973
 30
0.0
 10
8.398585
 20
8.080564
 30
0.0
 10
8.226513
 20
7.941970
 30
0.0
  0
SPLINE
  5
1a8
100
AcDbEntity
  8
Layer_1
 62
7
100
AcDbSpline
 70
8
 71
3
 72
8
 73
4
 74
0
 40
0
 40
0
 40
0
 40
0
 40
1
 40
1
 40
1
 40
1
 10
9.033906
 20
8.145391
 30
0.0
 10
8.932189
 20
8.368634
 30
0.0
 10
8.584575
 20
8.804063
 30
0.0
 10
8.196513
 20
9.194326
 30
0.0
  0
SPLINE
  5
1a9
100
AcDbEntity
  8
Layer_1
 62
7
100
AcDbSpline
 70
8
 71
3
 72
8
 73
4
 74
0
 40
0
 40
0
 40
0
 40
0
 40
1
 40
1
 40
1
 40
1
 10
8.196513
 20
9.194326
 30
0.0
 10
7.711887
 20
9.681698
 30
0.0
 10
7.724367
 20
9.608685
 30
0.0
 10
8.073875
 20
9.911817
 30
0.0
  0
LWPOLYLINE
  5
1aa
100
AcDbEntity
  8
Layer_1
 62
7
100
AcDbPolyline
 90
4
 70
0
 10
7.933949
 20
7.712975
 30
0.0
 10
7.813459
 20
7.622571
 30
0.0
 10
7.672781
 20
7.830642
 30
0.0
 10
7.672781
 20
7.830642
 30
0.0
  0
SPLINE
  5
1ab
100
AcDbEntity
  8
Layer_1
 62
7
100
AcDbSpline
 70
8
 71
3
 72
8
 73
4
 74
0
 40
0
 40
0
 40
0
 40
0
 40
1
 40
1
 40
1
 40
1
 10
8.561695
 20
9.808297
 30
0.0
 10
8.728252
 20
9.663117
 30
0.0
 10
8.962923
 20
9.429070
 30
0.0
 10
9.083187
 20
9.288193
 30
0.0
  0
SPLINE
  5
1ac
100
AcDbEntity
  8
Layer_1
 62
7
100
AcDbSpline
 70
8
 71
3
 72
8
 73
4
 74
0
 40
0
 40
0
 40
0
 40
0
 40
1
 40
1
 40
1
 40
1
 10
9.083187
 20
9.288193
 30
0.0
 10
9.311504
 20
9.020748
 30
0.0
 10
9.599203
 20
8.609494
 30
0.0
 10
9.606458
 20
8.540202
 30
0.0
  0
SPLINE
  5
1ad
100
AcDbEntity
  8
Layer_1
 62
7
100
AcDbSpline
 70
8
 71
3
 72
8
 73
4
 74
0
 40
0
 40
0
 40
0
 40
0
 40
1
 40
1
 40
1
 40
1
 10
9.606458
 20
8.540202
 30
0.0
 10
9.610023
 20
8.506161
 30
0.0
 10
9.223904
 20
8.147264
 30
0.0
 10
9.110570
 20
8.079272
 30
0.0
  0
SPLINE
  5
1ae
100
AcDbEntity
  8
Layer_1
 62
7
100
AcDbSpline
 70
8
 71
3
 72
8
 73
4
 74
0
 40
0
 40
0
 40
0
 40
0
 40
1
 40
1
 40
1
 40
1
 10
9.110570
 20
8.079272
 30
0.0
 10
9.089953
 20
8.066910
 30
0.0
 10
9.056536
 20
8.095725
 30
0.0
 10
9.033906
 20
8.145391
 30
0.0
  0
LWPOLYLINE
  5
1af
100
AcDbEntity
  8
Layer_1
 62
7
100
AcDbPolyline
 90
3
 70
0
 10
8.073875
 20
9.911817
 30
0.0
 10
8.258866
 20
10.072263
 30
0.0
 10
8.561695
 20
9.808297
 30
0.0
  0
LWPOLYLINE
  5
1b0
100
AcDbEntity
  8
Layer_1
 62
7
100
AcDbPolyline
 90
3
 70
0
 10
9.033906
 20
8.145391
 30
0.0
 10
9.033906
 20
8.145391
 30
0.0
 10
9.033906
 20
8.145391
 30
0.0
  0
ENDSEC
  0
SECTION
  2
OBJECTS
  0
DICTIONARY
  5
C
330
0
100
AcDbDictionary
  3
ACAD_GROUP
350
D
  3
ACAD_MLINESTYLE
350
17
  0
DICTIONARY
  5
D
330
C
100
AcDbDictionary
  0
DICTIONARY
  5
1A
330
C
100
AcDbDictionary
  0
DICTIONARY
  5
17
330
C
100
AcDbDictionary
  3
STANDARD
350
18
  0
DICTIONARY
  5
19
330
C
100
AcDbDictionary
  0
ENDSEC
  0
EOF
