  0
SECTION
  2
HEADER
  9
$ACADVER
  1
AC1014
  9
$HANDSEED
  5
FFFF
  9
$MEASUREMENT
 70
     1
  0
ENDSEC
  0
SECTION
  2
TABLES
  0
TABLE
  2
VPORT
  5
8
330
0
100
AcDbSymbolTable
 70
     4
  0
VPORT
  5
2E
330
8
100
AcDbSymbolTableRecord
100
AcDbViewportTableRecord
  2
*ACTIVE
 70
     0
 10
0.0
 20
0.0
 11
1.0
 21
1.0
 12
210.0
 22
148.5
 13
0.0
 23
0.0
 14
10.0
 24
10.0
 15
10.0
 25
10.0
 16
0.0
 26
0.0
 36
1.0
 17
0.0
 27
0.0
 37
0.0
 40
341.0
 41
1.24
 42
50.0
 43
0.0
 44
0.0
 50
0.0
 51
0.0
 71
     0
 72
   100
 73
     1
 74
     3
 75
     0
 76
     0
 77
     0
 78
     0
  0
ENDTAB
  0
TABLE
  2
LTYPE
  5
5
330
0
100
AcDbSymbolTable
 70
     1
  0
LTYPE
  5
14
330
5
100
AcDbSymbolTableRecord
100
AcDbLinetypeTableRecord
  2
BYBLOCK
 70
     0
  3

 72
    65
 73
     0
 40
0.0
  0
LTYPE
  5
15
330
5
100
AcDbSymbolTableRecord
100
AcDbLinetypeTableRecord
  2
BYLAYER
 70
     0
  3

 72
    65
 73
     0
 40
0.0
  0
LTYPE
  5
16
330
5
100
AcDbSymbolTableRecord
100
AcDbLinetypeTableRecord
  2
CONTINUOUS
 70
     0
  3
Solid line
 72
    65
 73
     0
 40
0.0
  0
ENDTAB
  0
TABLE
  2
LAYER
  5
2
100
AcDbSymbolTable
 70
2
  0
LAYER
  5
50
100
AcDbSymbolTableRecord
100
AcDbLayerTableRecord
  2
0
 70
0
  6
CONTINUOUS
  0
LAYER
  5
51
100
AcDbSymbolTableRecord
100
AcDbLayerTableRecord
  2
Layer_1
 70
0
  6
CONTINUOUS
  0
ENDTAB
  0
TABLE
  2
STYLE
  5
3
330
0
100
AcDbSymbolTable
 70
     1
  0
STYLE
  5
11
330
3
100
AcDbSymbolTableRecord
100
AcDbTextStyleTableRecord
  2
STANDARD
 70
     0
 40
0.0
 41
1.0
 50
0.0
 71
     0
 42
2.5
  3
txt
  4

  0
ENDTAB
  0
TABLE
  2
VIEW
  5
6
330
0
100
AcDbSymbolTable
 70
     0
  0
ENDTAB
  0
TABLE
  2
UCS
  5
7
330
0
100
AcDbSymbolTable
 70
     0
  0
ENDTAB
  0
TABLE
  2
APPID
  5
9
330
0
100
AcDbSymbolTable
 70
     2
  0
APPID
  5
12
330
9
100
AcDbSymbolTableRecord
100
AcDbRegAppTableRecord
  2
ACAD
 70
     0
  0
ENDTAB
  0
TABLE
  2
DIMSTYLE
  5
A
330
0
100
AcDbSymbolTable
 70
     1
  0
DIMSTYLE
105
27
330
A
100
AcDbSymbolTableRecord
100
AcDbDimStyleTableRecord
  2
ISO-25
 70
     0
  3

  4

  5

  6

  7

 40
1.0
 41
2.5
 42
0.625
 43
3.75
 44
1.25
 45
0.0
 46
0.0
 47
0.0
 48
0.0
140
2.5
141
2.5
142
0.0
143
0.03937007874016
144
1.0
145
0.0
146
1.0
147
0.625
 71
     0
 72
     0
 73
     0
 74
     0
 75
     0
 76
     0
 77
     1
 78
     8
170
     0
171
     3
172
     1
173
     0
174
     0
175
     0
176
     0
177
     0
178
     0
270
     2
271
     2
272
     2
273
     2
274
     3
340
11
275
     0
280
     0
281
     0
282
     0
283
     0
284
     8
285
     0
286
     0
287
     3
288
     0
  0
ENDTAB
  0
TABLE
  2
BLOCK_RECORD
  5
1
330
0
100
AcDbSymbolTable
 70
     1
  0
BLOCK_RECORD
  5
1F
330
1
100
AcDbSymbolTableRecord
100
AcDbBlockTableRecord
  2
*MODEL_SPACE
  0
BLOCK_RECORD
  5
1B
330
1
100
AcDbSymbolTableRecord
100
AcDbBlockTableRecord
  2
*PAPER_SPACE
  0
ENDTAB
  0
ENDSEC
  0
SECTION
  2
BLOCKS
  0
BLOCK
  5
20
330
1F
100
AcDbEntity
  8
0
100
AcDbBlockBegin
  2
*MODEL_SPACE
 70
     0
 10
0.0
 20
0.0
 30
0.0
  3
*MODEL_SPACE
  1

  0
ENDBLK
  5
21
330
1F
100
AcDbEntity
  8
0
100
AcDbBlockEnd
  0
BLOCK
  5
1C
330
1B
100
AcDbEntity
 67
     1
  8
0
100
AcDbBlockBegin
  2
*PAPER_SPACE
  1

  0
ENDBLK
  5
1D
330
1B
100
AcDbEntity
 67
     1
  8
0
100
AcDbBlockEnd
  0
ENDSEC
  0
SECTION
  2
ENTITIES
  0
LWPOLYLINE
  5
100
100
AcDbEntity
  8
Layer_1
 62
7
100
AcDbPolyline
 90
42
 70
0
 10
5.203496
 20
28.778151
 30
0.0
 10
5.203496
 20
30.142235
 30
0.0
 10
3.417786
 20
30.142235
 30
0.0
 10
1.632076
 20
30.142235
 30
0.0
 10
1.632076
 20
29.497396
 30
0.0
 10
1.632076
 20
28.852556
 30
0.0
 10
1.210450
 20
28.852556
 30
0.0
 10
0.788824
 20
28.852556
 30
0.0
 10
0.788824
 20
29.844617
 30
0.0
 10
0.788824
 20
30.836678
 30
0.0
 10
2.996160
 20
30.836678
 30
0.0
 10
5.203496
 20
30.836678
 30
0.0
 10
5.203496
 20
31.183900
 30
0.0
 10
5.203496
 20
31.531121
 30
0.0
 10
3.293779
 20
31.531121
 30
0.0
 10
1.384061
 20
31.531121
 30
0.0
 10
1.384061
 20
31.903144
 30
0.0
 10
1.384061
 20
32.275167
 30
0.0
 10
5.649924
 20
32.275167
 30
0.0
 10
9.915787
 20
32.275167
 30
0.0
 10
9.915787
 20
31.903144
 30
0.0
 10
9.915787
 20
31.531121
 30
0.0
 10
7.981268
 20
31.531121
 30
0.0
 10
6.046748
 20
31.531121
 30
0.0
 10
6.046748
 20
31.183900
 30
0.0
 10
6.046748
 20
30.836678
 30
0.0
 10
8.254085
 20
30.836678
 30
0.0
 10
10.461421
 20
30.836678
 30
0.0
 10
10.461421
 20
29.844617
 30
0.0
 10
10.461421
 20
28.852556
 30
0.0
 10
10.039795
 20
28.852556
 30
0.0
 10
9.618169
 20
28.852556
 30
0.0
 10
9.618169
 20
29.497396
 30
0.0
 10
9.618169
 20
30.142235
 30
0.0
 10
7.832459
 20
30.142235
 30
0.0
 10
6.046748
 20
30.142235
 30
0.0
 10
6.046748
 20
28.778151
 30
0.0
 10
6.046748
 20
27.414067
 30
0.0
 10
5.625122
 20
27.414067
 30
0.0
 10
5.203496
 20
27.414067
 30
0.0
 10
5.203496
 20
28.778151
 30
0.0
 10
5.203496
 20
28.778151
 30
0.0
  0
LWPOLYLINE
  5
101
100
AcDbEntity
  8
Layer_1
 62
7
100
AcDbPolyline
 90
10
 70
0
 10
2.028900
 20
29.174976
 30
0.0
 10
2.028900
 20
29.497396
 30
0.0
 10
3.392984
 20
29.497396
 30
0.0
 10
4.757069
 20
29.497396
 30
0.0
 10
4.757069
 20
29.174976
 30
0.0
 10
4.757069
 20
28.852556
 30
0.0
 10
3.392984
 20
28.852556
 30
0.0
 10
2.028900
 20
28.852556
 30
0.0
 10
2.028900
 20
29.174976
 30
0.0
 10
2.028900
 20
29.174976
 30
0.0
  0
LWPOLYLINE
  5
102
100
AcDbEntity
  8
Layer_1
 62
7
100
AcDbPolyline
 90
10
 70
0
 10
2.028900
 20
27.860495
 30
0.0
 10
2.028900
 20
28.158113
 30
0.0
 10
3.392984
 20
28.158113
 30
0.0
 10
4.757069
 20
28.158113
 30
0.0
 10
4.757069
 20
27.860495
 30
0.0
 10
4.757069
 20
27.562876
 30
0.0
 10
3.392984
 20
27.562876
 30
0.0
 10
2.028900
 20
27.562876
 30
0.0
 10
2.028900
 20
27.860495
 30
0.0
 10
2.028900
 20
27.860495
 30
0.0
  0
LWPOLYLINE
  5
103
100
AcDbEntity
  8
Layer_1
 62
7
100
AcDbPolyline
 90
10
 70
0
 10
6.592382
 20
27.860495
 30
0.0
 10
6.592382
 20
28.158113
 30
0.0
 10
7.882062
 20
28.158113
 30
0.0
 10
9.171741
 20
28.158113
 30
0.0
 10
9.171741
 20
27.860495
 30
0.0
 10
9.171741
 20
27.562876
 30
0.0
 10
7.882062
 20
27.562876
 30
0.0
 10
6.592382
 20
27.562876
 30
0.0
 10
6.592382
 20
27.860495
 30
0.0
 10
6.592382
 20
27.860495
 30
0.0
  0
SPLINE
  5
104
100
AcDbEntity
  8
Layer_1
 62
7
100
AcDbSpline
 70
8
 71
3
 72
8
 73
4
 74
0
 40
0
 40
0
 40
0
 40
0
 40
1
 40
1
 40
1
 40
1
 10
9.838700
 20
34.048476
 30
0.0
 10
8.568525
 20
35.517015
 30
0.0
 10
7.499782
 20
37.963973
 30
0.0
 10
6.962695
 20
40.633283
 30
0.0
  0
SPLINE
  5
105
100
AcDbEntity
  8
Layer_1
 62
7
100
AcDbSpline
 70
8
 71
3
 72
8
 73
4
 74
0
 40
0
 40
0
 40
0
 40
0
 40
1
 40
1
 40
1
 40
1
 10
6.962695
 20
40.633283
 30
0.0
 10
6.772332
 20
41.579376
 30
0.0
 10
6.577683
 20
42.996602
 30
0.0
 10
6.631519
 20
43.044549
 30
0.0
  0
SPLINE
  5
106
100
AcDbEntity
  8
Layer_1
 62
7
100
AcDbSpline
 70
8
 71
3
 72
8
 73
4
 74
0
 40
0
 40
0
 40
0
 40
0
 40
1
 40
1
 40
1
 40
1
 10
6.631519
 20
43.044549
 30
0.0
 10
6.677371
 20
43.085386
 30
0.0
 10
7.385050
 20
43.254959
 30
0.0
 10
7.409129
 20
43.230880
 30
0.0
  0
SPLINE
  5
107
100
AcDbEntity
  8
Layer_1
 62
7
100
AcDbSpline
 70
8
 71
3
 72
8
 73
4
 74
0
 40
0
 40
0
 40
0
 40
0
 40
1
 40
1
 40
1
 40
1
 10
7.409129
 20
43.230880
 30
0.0
 10
7.419250
 20
43.220759
 30
0.0
 10
7.452687
 20
43.022783
 30
0.0
 10
7.483433
 20
42.790934
 30
0.0
  0
SPLINE
  5
108
100
AcDbEntity
  8
Layer_1
 62
7
100
AcDbSpline
 70
8
 71
3
 72
8
 73
4
 74
0
 40
0
 40
0
 40
0
 40
0
 40
1
 40
1
 40
1
 40
1
 10
7.483433
 20
42.790934
 30
0.0
 10
7.964902
 20
39.160266
 30
0.0
 10
8.951570
 20
36.576761
 30
0.0
 10
10.475711
 20
34.955914
 30
0.0
  0
LWPOLYLINE
  5
109
100
AcDbEntity
  8
Layer_1
 62
7
100
AcDbPolyline
 90
10
 70
0
 10
6.542779
 20
29.174976
 30
0.0
 10
6.542779
 20
29.497396
 30
0.0
 10
7.832459
 20
29.497396
 30
0.0
 10
9.122138
 20
29.497396
 30
0.0
 10
9.122138
 20
29.174976
 30
0.0
 10
9.122138
 20
28.852556
 30
0.0
 10
7.832459
 20
28.852556
 30
0.0
 10
6.542779
 20
28.852556
 30
0.0
 10
6.542779
 20
29.174976
 30
0.0
 10
6.542779
 20
29.174976
 30
0.0
  0
SPLINE
  5
10a
100
AcDbEntity
  8
Layer_1
 62
7
100
AcDbSpline
 70
8
 71
3
 72
8
 73
4
 74
0
 40
0
 40
0
 40
0
 40
0
 40
1
 40
1
 40
1
 40
1
 10
10.500513
 20
34.157585
 30
0.0
 10
10.356245
 20
33.886433
 30
0.0
 10
10.223130
 20
33.664461
 30
0.0
 10
10.204702
 20
33.664317
 30
0.0
  0
SPLINE
  5
10b
100
AcDbEntity
  8
Layer_1
 62
7
100
AcDbSpline
 70
8
 71
3
 72
8
 73
4
 74
0
 40
0
 40
0
 40
0
 40
0
 40
1
 40
1
 40
1
 40
1
 10
10.204702
 20
33.664317
 30
0.0
 10
10.186276
 20
33.664168
 30
0.0
 10
10.021573
 20
33.837043
 30
0.0
 10
9.838700
 20
34.048476
 30
0.0
  0
LWPOLYLINE
  5
10c
100
AcDbEntity
  8
Layer_1
 62
7
100
AcDbPolyline
 90
3
 70
0
 10
10.475711
 20
34.955914
 30
0.0
 10
10.762818
 20
34.650590
 30
0.0
 10
10.500513
 20
34.157585
 30
0.0
  0
LWPOLYLINE
  5
10d
100
AcDbEntity
  8
Layer_1
 62
7
100
AcDbPolyline
 90
3
 70
0
 10
9.838700
 20
34.048476
 30
0.0
 10
9.838700
 20
34.048476
 30
0.0
 10
9.838700
 20
34.048476
 30
0.0
  0
SPLINE
  5
10e
100
AcDbEntity
  8
Layer_1
 62
7
100
AcDbSpline
 70
8
 71
3
 72
8
 73
4
 74
0
 40
0
 40
0
 40
0
 40
0
 40
1
 40
1
 40
1
 40
1
 10
0.990280
 20
34.935538
 30
0.0
 10
2.565812
 20
36.798723
 30
0.0
 10
3.463634
 20
39.335933
 30
0.0
 10
3.697032
 20
42.584706
 30
0.0
  0
LWPOLYLINE
  5
10f
100
AcDbEntity
  8
Layer_1
 62
7
100
AcDbPolyline
 90
3
 70
0
 10
0.872154
 20
34.060883
 30
0.0
 10
0.583460
 20
34.454443
 30
0.0
 10
0.990280
 20
34.935538
 30
0.0
  0
SPLINE
  5
110
100
AcDbEntity
  8
Layer_1
 62
7
100
AcDbSpline
 70
8
 71
3
 72
8
 73
4
 74
0
 40
0
 40
0
 40
0
 40
0
 40
1
 40
1
 40
1
 40
1
 10
4.132087
 20
43.013185
 30
0.0
 10
4.353059
 20
42.994016
 30
0.0
 10
4.541545
 20
42.971279
 30
0.0
 10
4.550945
 20
42.962657
 30
0.0
  0
SPLINE
  5
111
100
AcDbEntity
  8
Layer_1
 62
7
100
AcDbSpline
 70
8
 71
3
 72
8
 73
4
 74
0
 40
0
 40
0
 40
0
 40
0
 40
1
 40
1
 40
1
 40
1
 10
4.550945
 20
42.962657
 30
0.0
 10
4.560343
 20
42.954036
 30
0.0
 10
4.543420
 20
42.671935
 30
0.0
 10
4.513336
 20
42.335766
 30
0.0
  0
SPLINE
  5
112
100
AcDbEntity
  8
Layer_1
 62
7
100
AcDbSpline
 70
8
 71
3
 72
8
 73
4
 74
0
 40
0
 40
0
 40
0
 40
0
 40
1
 40
1
 40
1
 40
1
 10
4.513336
 20
42.335766
 30
0.0
 10
4.222298
 20
39.083606
 30
0.0
 10
3.567136
 20
36.909228
 30
0.0
 10
2.318946
 20
35.052938
 30
0.0
  0
SPLINE
  5
113
100
AcDbEntity
  8
Layer_1
 62
7
100
AcDbSpline
 70
8
 71
3
 72
8
 73
4
 74
0
 40
0
 40
0
 40
0
 40
0
 40
1
 40
1
 40
1
 40
1
 10
2.318946
 20
35.052938
 30
0.0
 10
1.954630
 20
34.511133
 30
0.0
 10
1.266473
 20
33.662182
 30
0.0
 10
1.194444
 20
33.665688
 30
0.0
  0
SPLINE
  5
114
100
AcDbEntity
  8
Layer_1
 62
7
100
AcDbSpline
 70
8
 71
3
 72
8
 73
4
 74
0
 40
0
 40
0
 40
0
 40
0
 40
1
 40
1
 40
1
 40
1
 10
1.194444
 20
33.665688
 30
0.0
 10
1.175966
 20
33.666591
 30
0.0
 10
1.030935
 20
33.844425
 30
0.0
 10
0.872154
 20
34.060883
 30
0.0
  0
LWPOLYLINE
  5
115
100
AcDbEntity
  8
Layer_1
 62
7
100
AcDbPolyline
 90
3
 70
0
 10
3.697032
 20
42.584706
 30
0.0
 10
3.730318
 20
43.048037
 30
0.0
 10
4.132087
 20
43.013185
 30
0.0
  0
SPLINE
  5
116
100
AcDbEntity
  8
Layer_1
 62
7
100
AcDbSpline
 70
8
 71
3
 72
8
 73
4
 74
0
 40
0
 40
0
 40
0
 40
0
 40
1
 40
1
 40
1
 40
1
 10
8.977807
 20
22.651518
 30
0.0
 10
8.864053
 20
22.813686
 30
0.0
 10
8.751047
 20
22.958689
 30
0.0
 10
8.726683
 20
22.973747
 30
0.0
  0
SPLINE
  5
117
100
AcDbEntity
  8
Layer_1
 62
7
100
AcDbSpline
 70
8
 71
3
 72
8
 73
4
 74
0
 40
0
 40
0
 40
0
 40
0
 40
1
 40
1
 40
1
 40
1
 10
8.726683
 20
22.973747
 30
0.0
 10
8.702319
 20
22.988803
 30
0.0
 10
8.390941
 20
22.967067
 30
0.0
 10
8.034734
 20
22.925441
 30
0.0
  0
SPLINE
  5
118
100
AcDbEntity
  8
Layer_1
 62
7
100
AcDbSpline
 70
8
 71
3
 72
8
 73
4
 74
0
 40
0
 40
0
 40
0
 40
0
 40
1
 40
1
 40
1
 40
1
 10
8.034734
 20
22.925441
 30
0.0
 10
6.530849
 20
22.749699
 30
0.0
 10
3.722951
 20
22.536927
 30
0.0
 10
2.330842
 20
22.493221
 30
0.0
  0
LWPOLYLINE
  5
119
100
AcDbEntity
  8
Layer_1
 62
7
100
AcDbPolyline
 90
3
 70
0
 10
0.872154
 20
34.060883
 30
0.0
 10
0.872154
 20
34.060883
 30
0.0
 10
0.872154
 20
34.060883
 30
0.0
  0
SPLINE
  5
11a
100
AcDbEntity
  8
Layer_1
 62
7
100
AcDbSpline
 70
8
 71
3
 72
8
 73
4
 74
0
 40
0
 40
0
 40
0
 40
0
 40
1
 40
1
 40
1
 40
1
 10
1.776652
 20
22.726578
 30
0.0
 10
1.728646
 20
22.862986
 30
0.0
 10
1.687638
 20
22.998308
 30
0.0
 10
1.685523
 20
23.027293
 30
0.0
  0
SPLINE
  5
11b
100
AcDbEntity
  8
Layer_1
 62
7
100
AcDbSpline
 70
8
 71
3
 72
8
 73
4
 74
0
 40
0
 40
0
 40
0
 40
0
 40
1
 40
1
 40
1
 40
1
 10
1.685523
 20
23.027293
 30
0.0
 10
1.683410
 20
23.056279
 30
0.0
 10
1.895307
 20
23.219864
 30
0.0
 10
2.156408
 20
23.390816
 30
0.0
  0
SPLINE
  5
11c
100
AcDbEntity
  8
Layer_1
 62
7
100
AcDbSpline
 70
8
 71
3
 72
8
 73
4
 74
0
 40
0
 40
0
 40
0
 40
0
 40
1
 40
1
 40
1
 40
1
 10
2.156408
 20
23.390816
 30
0.0
 10
2.639155
 20
23.706887
 30
0.0
 10
3.566595
 20
24.577207
 30
0.0
 10
3.566595
 20
24.714151
 30
0.0
  0
SPLINE
  5
11d
100
AcDbEntity
  8
Layer_1
 62
7
100
AcDbSpline
 70
8
 71
3
 72
8
 73
4
 74
0
 40
0
 40
0
 40
0
 40
0
 40
1
 40
1
 40
1
 40
1
 10
3.566595
 20
24.714151
 30
0.0
 10
3.566595
 20
24.774056
 30
0.0
 10
3.342599
 20
24.785105
 30
0.0
 10
2.128107
 20
24.785105
 30
0.0
  0
LWPOLYLINE
  5
11e
100
AcDbEntity
  8
Layer_1
 62
7
100
AcDbPolyline
 90
3
 70
0
 10
2.330842
 20
22.493221
 30
0.0
 10
1.863936
 20
22.478563
 30
0.0
 10
1.776652
 20
22.726578
 30
0.0
  0
SPLINE
  5
11f
100
AcDbEntity
  8
Layer_1
 62
7
100
AcDbSpline
 70
8
 71
3
 72
8
 73
4
 74
0
 40
0
 40
0
 40
0
 40
0
 40
1
 40
1
 40
1
 40
1
 10
4.420129
 20
24.447057
 30
0.0
 10
4.281873
 20
24.261131
 30
0.0
 10
3.955144
 20
23.904797
 30
0.0
 10
3.694064
 20
23.655203
 30
0.0
  0
SPLINE
  5
120
100
AcDbEntity
  8
Layer_1
 62
7
100
AcDbSpline
 70
8
 71
3
 72
8
 73
4
 74
0
 40
0
 40
0
 40
0
 40
0
 40
1
 40
1
 40
1
 40
1
 10
3.694064
 20
23.655203
 30
0.0
 10
3.432984
 20
23.405609
 30
0.0
 10
3.219324
 20
23.195008
 30
0.0
 10
3.219262
 20
23.187201
 30
0.0
  0
SPLINE
  5
121
100
AcDbEntity
  8
Layer_1
 62
7
100
AcDbSpline
 70
8
 71
3
 72
8
 73
4
 74
0
 40
0
 40
0
 40
0
 40
0
 40
1
 40
1
 40
1
 40
1
 10
3.219262
 20
23.187201
 30
0.0
 10
3.218585
 20
23.099941
 30
0.0
 10
7.938314
 20
23.532361
 30
0.0
 10
8.030057
 20
23.627964
 30
0.0
  0
SPLINE
  5
122
100
AcDbEntity
  8
Layer_1
 62
7
100
AcDbSpline
 70
8
 71
3
 72
8
 73
4
 74
0
 40
0
 40
0
 40
0
 40
0
 40
1
 40
1
 40
1
 40
1
 10
8.030057
 20
23.627964
 30
0.0
 10
8.044146
 20
23.642645
 30
0.0
 10
7.947129
 20
23.750599
 30
0.0
 10
7.814466
 20
23.867863
 30
0.0
  0
LWPOLYLINE
  5
123
100
AcDbEntity
  8
Layer_1
 62
7
100
AcDbPolyline
 90
11
 70
0
 10
2.128107
 20
24.785105
 30
0.0
 10
0.689618
 20
24.785105
 30
0.0
 10
0.689618
 20
25.132326
 30
0.0
 10
0.689618
 20
25.479548
 30
0.0
 10
5.649924
 20
25.479548
 30
0.0
 10
10.610230
 20
25.479548
 30
0.0
 10
10.610230
 20
25.132326
 30
0.0
 10
10.610230
 20
24.785105
 30
0.0
 10
7.640867
 20
24.785105
 30
0.0
 10
4.671503
 20
24.785105
 30
0.0
 10
4.420129
 20
24.447057
 30
0.0
  0
SPLINE
  5
124
100
AcDbEntity
  8
Layer_1
 62
7
100
AcDbSpline
 70
8
 71
3
 72
8
 73
4
 74
0
 40
0
 40
0
 40
0
 40
0
 40
1
 40
1
 40
1
 40
1
 10
8.522874
 20
24.292310
 30
0.0
 10
8.866362
 20
23.994428
 30
0.0
 10
9.656905
 20
23.177445
 30
0.0
 10
9.805554
 20
22.966731
 30
0.0
  0
LWPOLYLINE
  5
125
100
AcDbEntity
  8
Layer_1
 62
7
100
AcDbPolyline
 90
5
 70
0
 10
7.814466
 20
23.867863
 30
0.0
 10
7.573259
 20
24.081069
 30
0.0
 10
7.909645
 20
24.306733
 30
0.0
 10
8.246031
 20
24.532397
 30
0.0
 10
8.522874
 20
24.292310
 30
0.0
  0
SPLINE
  5
126
100
AcDbEntity
  8
Layer_1
 62
7
100
AcDbSpline
 70
8
 71
3
 72
8
 73
4
 74
0
 40
0
 40
0
 40
0
 40
0
 40
1
 40
1
 40
1
 40
1
 10
9.605914
 20
22.615947
 30
0.0
 10
9.435323
 20
22.509185
 30
0.0
 10
9.270748
 20
22.407172
 30
0.0
 10
9.240191
 20
22.389251
 30
0.0
  0
SPLINE
  5
127
100
AcDbEntity
  8
Layer_1
 62
7
100
AcDbSpline
 70
8
 71
3
 72
8
 73
4
 74
0
 40
0
 40
0
 40
0
 40
0
 40
1
 40
1
 40
1
 40
1
 10
9.240191
 20
22.389251
 30
0.0
 10
9.207805
 20
22.370258
 30
0.0
 10
9.098373
 20
22.479640
 30
0.0
 10
8.977807
 20
22.651518
 30
0.0
  0
LWPOLYLINE
  5
128
100
AcDbEntity
  8
Layer_1
 62
7
100
AcDbPolyline
 90
3
 70
0
 10
9.805554
 20
22.966731
 30
0.0
 10
9.916079
 20
22.810060
 30
0.0
 10
9.605914
 20
22.615947
 30
0.0
  0
LWPOLYLINE
  5
129
100
AcDbEntity
  8
Layer_1
 62
7
100
AcDbPolyline
 90
3
 70
0
 10
8.977807
 20
22.651518
 30
0.0
 10
8.977807
 20
22.651518
 30
0.0
 10
8.977807
 20
22.651518
 30
0.0
  0
LWPOLYLINE
  5
12a
100
AcDbEntity
  8
Layer_1
 62
7
100
AcDbPolyline
 90
10
 70
0
 10
1.632076
 20
26.521212
 30
0.0
 10
1.632076
 20
26.868433
 30
0.0
 10
5.600321
 20
26.868433
 30
0.0
 10
9.568566
 20
26.868433
 30
0.0
 10
9.568566
 20
26.521212
 30
0.0
 10
9.568566
 20
26.173990
 30
0.0
 10
5.600321
 20
26.173990
 30
0.0
 10
1.632076
 20
26.173990
 30
0.0
 10
1.632076
 20
26.521212
 30
0.0
 10
1.632076
 20
26.521212
 30
0.0
  0
LWPOLYLINE
  5
12b
100
AcDbEntity
  8
Layer_1
 62
7
100
AcDbPolyline
 90
18
 70
0
 10
0.590412
 20
0.402198
 30
0.0
 10
0.590412
 20
0.799022
 30
0.0
 10
1.111244
 20
0.799022
 30
0.0
 10
1.632076
 20
0.799022
 30
0.0
 10
1.632076
 20
1.766282
 30
0.0
 10
1.632076
 20
2.733540
 30
0.0
 10
5.625122
 20
2.733540
 30
0.0
 10
9.618169
 20
2.733540
 30
0.0
 10
9.618169
 20
1.766282
 30
0.0
 10
9.618169
 20
0.799022
 30
0.0
 10
10.163802
 20
0.799022
 30
0.0
 10
10.709436
 20
0.799022
 30
0.0
 10
10.709436
 20
0.402198
 30
0.0
 10
10.709436
 20
0.005374
 30
0.0
 10
5.649924
 20
0.005374
 30
0.0
 10
0.590412
 20
0.005374
 30
0.0
 10
0.590412
 20
0.402198
 30
0.0
 10
0.590412
 20
0.402198
 30
0.0
  0
LWPOLYLINE
  5
12c
100
AcDbEntity
  8
Layer_1
 62
7
100
AcDbPolyline
 90
10
 70
0
 10
4.062626
 20
1.394257
 30
0.0
 10
4.062626
 20
1.989495
 30
0.0
 10
3.268977
 20
1.989495
 30
0.0
 10
2.475328
 20
1.989495
 30
0.0
 10
2.475328
 20
1.394257
 30
0.0
 10
2.475328
 20
0.799022
 30
0.0
 10
3.268977
 20
0.799022
 30
0.0
 10
4.062626
 20
0.799022
 30
0.0
 10
4.062626
 20
1.394257
 30
0.0
 10
4.062626
 20
1.394257
 30
0.0
  0
LWPOLYLINE
  5
12d
100
AcDbEntity
  8
Layer_1
 62
7
100
AcDbPolyline
 90
10
 70
0
 10
6.393970
 20
1.394257
 30
0.0
 10
6.393970
 20
1.989495
 30
0.0
 10
5.625122
 20
1.989495
 30
0.0
 10
4.856275
 20
1.989495
 30
0.0
 10
4.856275
 20
1.394257
 30
0.0
 10
4.856275
 20
0.799022
 30
0.0
 10
5.625122
 20
0.799022
 30
0.0
 10
6.393970
 20
0.799022
 30
0.0
 10
6.393970
 20
1.394257
 30
0.0
 10
6.393970
 20
1.394257
 30
0.0
  0
SPLINE
  5
12e
100
AcDbEntity
  8
Layer_1
 62
7
100
AcDbSpline
 70
8
 71
3
 72
8
 73
4
 74
0
 40
0
 40
0
 40
0
 40
0
 40
1
 40
1
 40
1
 40
1
 10
8.685485
 20
3.723646
 30
0.0
 10
8.431686
 20
3.938109
 30
0.0
 10
8.059190
 20
4.221596
 30
0.0
 10
7.857718
 20
4.353616
 30
0.0
  0
SPLINE
  5
12f
100
AcDbEntity
  8
Layer_1
 62
7
100
AcDbSpline
 70
8
 71
3
 72
8
 73
4
 74
0
 40
0
 40
0
 40
0
 40
0
 40
1
 40
1
 40
1
 40
1
 10
7.857718
 20
4.353616
 30
0.0
 10
7.656246
 20
4.485637
 30
0.0
 10
7.490017
 20
4.608599
 30
0.0
 10
7.488321
 20
4.626861
 30
0.0
  0
SPLINE
  5
130
100
AcDbEntity
  8
Layer_1
 62
7
100
AcDbSpline
 70
8
 71
3
 72
8
 73
4
 74
0
 40
0
 40
0
 40
0
 40
0
 40
1
 40
1
 40
1
 40
1
 10
7.488321
 20
4.626861
 30
0.0
 10
7.486628
 20
4.645121
 30
0.0
 10
7.598557
 20
4.784056
 30
0.0
 10
7.737060
 20
4.935598
 30
0.0
  0
LWPOLYLINE
  5
131
100
AcDbEntity
  8
Layer_1
 62
7
100
AcDbPolyline
 90
10
 70
0
 10
8.774917
 20
1.394257
 30
0.0
 10
8.774917
 20
1.989495
 30
0.0
 10
7.981268
 20
1.989495
 30
0.0
 10
7.187619
 20
1.989495
 30
0.0
 10
7.187619
 20
1.394257
 30
0.0
 10
7.187619
 20
0.799022
 30
0.0
 10
7.981268
 20
0.799022
 30
0.0
 10
8.774917
 20
0.799022
 30
0.0
 10
8.774917
 20
1.394257
 30
0.0
 10
8.774917
 20
1.394257
 30
0.0
  0
SPLINE
  5
132
100
AcDbEntity
  8
Layer_1
 62
7
100
AcDbSpline
 70
8
 71
3
 72
8
 73
4
 74
0
 40
0
 40
0
 40
0
 40
0
 40
1
 40
1
 40
1
 40
1
 10
8.423265
 20
4.919054
 30
0.0
 10
8.941657
 20
4.570487
 30
0.0
 10
9.617197
 20
4.033867
 30
0.0
 10
9.652096
 20
3.942921
 30
0.0
  0
SPLINE
  5
133
100
AcDbEntity
  8
Layer_1
 62
7
100
AcDbSpline
 70
8
 71
3
 72
8
 73
4
 74
0
 40
0
 40
0
 40
0
 40
0
 40
1
 40
1
 40
1
 40
1
 10
9.652096
 20
3.942921
 30
0.0
 10
9.674117
 20
3.885534
 30
0.0
 10
9.235172
 20
3.327160
 30
0.0
 10
9.171741
 20
3.331870
 30
0.0
  0
SPLINE
  5
134
100
AcDbEntity
  8
Layer_1
 62
7
100
AcDbSpline
 70
8
 71
3
 72
8
 73
4
 74
0
 40
0
 40
0
 40
0
 40
0
 40
1
 40
1
 40
1
 40
1
 10
9.171741
 20
3.331870
 30
0.0
 10
9.158102
 20
3.332999
 30
0.0
 10
8.939285
 20
3.509182
 30
0.0
 10
8.685485
 20
3.723646
 30
0.0
  0
LWPOLYLINE
  5
135
100
AcDbEntity
  8
Layer_1
 62
7
100
AcDbPolyline
 90
3
 70
0
 10
7.737060
 20
4.935598
 30
0.0
 10
7.988882
 20
5.211132
 30
0.0
 10
8.423265
 20
4.919054
 30
0.0
  0
LWPOLYLINE
  5
136
100
AcDbEntity
  8
Layer_1
 62
7
100
AcDbPolyline
 90
2
 70
0
 10
8.685485
 20
3.723646
 30
0.0
 10
8.685485
 20
3.723646
 30
0.0
  0
LWPOLYLINE
  5
137
100
AcDbEntity
  8
Layer_1
 62
7
100
AcDbPolyline
 90
26
 70
0
 10
1.185648
 20
5.511312
 30
0.0
 10
1.185648
 20
7.743450
 30
0.0
 10
3.616198
 20
7.743450
 30
0.0
 10
6.046748
 20
7.743450
 30
0.0
 10
6.046748
 20
7.421031
 30
0.0
 10
6.046748
 20
7.098609
 30
0.0
 10
5.153893
 20
7.098609
 30
0.0
 10
4.261038
 20
7.098609
 30
0.0
 10
4.261038
 20
6.751388
 30
0.0
 10
4.261038
 20
6.404167
 30
0.0
 10
4.955481
 20
6.404167
 30
0.0
 10
5.649924
 20
6.404167
 30
0.0
 10
5.649924
 20
5.511312
 30
0.0
 10
5.649924
 20
4.618457
 30
0.0
 10
4.955481
 20
4.618457
 30
0.0
 10
4.261038
 20
4.618457
 30
0.0
 10
4.261038
 20
4.246434
 30
0.0
 10
4.261038
 20
3.874412
 30
0.0
 10
5.203496
 20
3.874412
 30
0.0
 10
6.145954
 20
3.874412
 30
0.0
 10
6.145954
 20
3.576791
 30
0.0
 10
6.145954
 20
3.279174
 30
0.0
 10
3.665801
 20
3.279174
 30
0.0
 10
1.185648
 20
3.279174
 30
0.0
 10
1.185648
 20
5.511312
 30
0.0
 10
1.185648
 20
5.511312
 30
0.0
  0
LWPOLYLINE
  5
138
100
AcDbEntity
  8
Layer_1
 62
7
100
AcDbPolyline
 90
10
 70
0
 10
3.516992
 20
4.246434
 30
0.0
 10
3.516992
 20
4.618457
 30
0.0
 10
2.723343
 20
4.618457
 30
0.0
 10
1.929694
 20
4.618457
 30
0.0
 10
1.929694
 20
4.246434
 30
0.0
 10
1.929694
 20
3.874412
 30
0.0
 10
2.723343
 20
3.874412
 30
0.0
 10
3.516992
 20
3.874412
 30
0.0
 10
3.516992
 20
4.246434
 30
0.0
 10
3.516992
 20
4.246434
 30
0.0
  0
LWPOLYLINE
  5
139
100
AcDbEntity
  8
Layer_1
 62
7
100
AcDbPolyline
 90
10
 70
0
 10
4.955481
 20
5.486510
 30
0.0
 10
4.955481
 20
5.858533
 30
0.0
 10
3.442588
 20
5.858533
 30
0.0
 10
1.929694
 20
5.858533
 30
0.0
 10
1.929694
 20
5.486510
 30
0.0
 10
1.929694
 20
5.114488
 30
0.0
 10
3.442588
 20
5.114488
 30
0.0
 10
4.955481
 20
5.114488
 30
0.0
 10
4.955481
 20
5.486510
 30
0.0
 10
4.955481
 20
5.486510
 30
0.0
  0
SPLINE
  5
13a
100
AcDbEntity
  8
Layer_1
 62
7
100
AcDbSpline
 70
8
 71
3
 72
8
 73
4
 74
0
 40
0
 40
0
 40
0
 40
0
 40
1
 40
1
 40
1
 40
1
 10
6.195798
 20
4.842840
 30
0.0
 10
6.045881
 20
4.964173
 30
0.0
 10
5.916644
 20
5.083175
 30
0.0
 10
5.908605
 20
5.107291
 30
0.0
  0
SPLINE
  5
13b
100
AcDbEntity
  8
Layer_1
 62
7
100
AcDbSpline
 70
8
 71
3
 72
8
 73
4
 74
0
 40
0
 40
0
 40
0
 40
0
 40
1
 40
1
 40
1
 40
1
 10
5.908605
 20
5.107291
 30
0.0
 10
5.900567
 20
5.131421
 30
0.0
 10
6.016007
 20
5.382850
 30
0.0
 10
6.165142
 20
5.666049
 30
0.0
  0
SPLINE
  5
13c
100
AcDbEntity
  8
Layer_1
 62
7
100
AcDbSpline
 70
8
 71
3
 72
8
 73
4
 74
0
 40
0
 40
0
 40
0
 40
0
 40
1
 40
1
 40
1
 40
1
 10
6.165142
 20
5.666049
 30
0.0
 10
6.496687
 20
6.295633
 30
0.0
 10
6.745585
 20
6.895157
 30
0.0
 10
6.893740
 20
7.421031
 30
0.0
  0
SPLINE
  5
13d
100
AcDbEntity
  8
Layer_1
 62
7
100
AcDbSpline
 70
8
 71
3
 72
8
 73
4
 74
0
 40
0
 40
0
 40
0
 40
0
 40
1
 40
1
 40
1
 40
1
 10
6.893740
 20
7.421031
 30
0.0
 10
6.955229
 20
7.639284
 30
0.0
 10
7.019754
 20
7.834627
 30
0.0
 10
7.037128
 20
7.855131
 30
0.0
  0
SPLINE
  5
13e
100
AcDbEntity
  8
Layer_1
 62
7
100
AcDbSpline
 70
8
 71
3
 72
8
 73
4
 74
0
 40
0
 40
0
 40
0
 40
0
 40
1
 40
1
 40
1
 40
1
 10
7.037128
 20
7.855131
 30
0.0
 10
7.070404
 20
7.894393
 30
0.0
 10
7.674848
 20
7.711573
 30
0.0
 10
7.755455
 20
7.637862
 30
0.0
  0
SPLINE
  5
13f
100
AcDbEntity
  8
Layer_1
 62
7
100
AcDbSpline
 70
8
 71
3
 72
8
 73
4
 74
0
 40
0
 40
0
 40
0
 40
0
 40
1
 40
1
 40
1
 40
1
 10
7.755455
 20
7.637862
 30
0.0
 10
7.784658
 20
7.611164
 30
0.0
 10
7.761176
 20
7.466700
 30
0.0
 10
7.693451
 20
7.256419
 30
0.0
  0
SPLINE
  5
140
100
AcDbEntity
  8
Layer_1
 62
7
100
AcDbSpline
 70
8
 71
3
 72
8
 73
4
 74
0
 40
0
 40
0
 40
0
 40
0
 40
1
 40
1
 40
1
 40
1
 10
7.693451
 20
7.256419
 30
0.0
 10
7.633497
 20
7.070268
 30
0.0
 10
7.584443
 20
6.891644
 30
0.0
 10
7.584443
 20
6.859476
 30
0.0
  0
SPLINE
  5
141
100
AcDbEntity
  8
Layer_1
 62
7
100
AcDbSpline
 70
8
 71
3
 72
8
 73
4
 74
0
 40
0
 40
0
 40
0
 40
0
 40
1
 40
1
 40
1
 40
1
 10
7.584443
 20
6.859476
 30
0.0
 10
7.584443
 20
6.815909
 30
0.0
 10
7.951374
 20
6.800991
 30
0.0
 10
9.022932
 20
6.800991
 30
0.0
  0
LWPOLYLINE
  5
142
100
AcDbEntity
  8
Layer_1
 62
7
100
AcDbPolyline
 90
10
 70
0
 10
3.516992
 20
6.751388
 30
0.0
 10
3.516992
 20
7.098609
 30
0.0
 10
2.723343
 20
7.098609
 30
0.0
 10
1.929694
 20
7.098609
 30
0.0
 10
1.929694
 20
6.751388
 30
0.0
 10
1.929694
 20
6.404167
 30
0.0
 10
2.723343
 20
6.404167
 30
0.0
 10
3.516992
 20
6.404167
 30
0.0
 10
3.516992
 20
6.751388
 30
0.0
 10
3.516992
 20
6.751388
 30
0.0
  0
SPLINE
  5
143
100
AcDbEntity
  8
Layer_1
 62
7
100
AcDbSpline
 70
8
 71
3
 72
8
 73
4
 74
0
 40
0
 40
0
 40
0
 40
0
 40
1
 40
1
 40
1
 40
1
 10
7.119933
 20
5.704868
 30
0.0
 10
7.009500
 20
5.432109
 30
0.0
 10
6.522637
 20
4.610684
 30
0.0
 10
6.477187
 20
4.620443
 30
0.0
  0
SPLINE
  5
144
100
AcDbEntity
  8
Layer_1
 62
7
100
AcDbSpline
 70
8
 71
3
 72
8
 73
4
 74
0
 40
0
 40
0
 40
0
 40
0
 40
1
 40
1
 40
1
 40
1
 10
6.477187
 20
4.620443
 30
0.0
 10
6.472341
 20
4.621572
 30
0.0
 10
6.345715
 20
4.721603
 30
0.0
 10
6.195798
 20
4.842936
 30
0.0
  0
LWPOLYLINE
  5
145
100
AcDbEntity
  8
Layer_1
 62
7
100
AcDbPolyline
 90
7
 70
0
 10
9.022932
 20
6.800991
 30
0.0
 10
10.461421
 20
6.800991
 30
0.0
 10
10.461421
 20
6.428969
 30
0.0
 10
10.461421
 20
6.056946
 30
0.0
 10
8.861722
 20
6.056382
 30
0.0
 10
7.262023
 20
6.055817
 30
0.0
 10
7.119933
 20
5.704868
 30
0.0
  0
LWPOLYLINE
  5
146
100
AcDbEntity
  8
Layer_1
 62
7
100
AcDbPolyline
 90
3
 70
0
 10
6.195798
 20
4.842936
 30
0.0
 10
6.195798
 20
4.842933
 30
0.0
 10
6.195798
 20
4.842840
 30
0.0
  0
LWPOLYLINE
  5
147
100
AcDbEntity
  8
Layer_1
 62
7
100
AcDbPolyline
 90
42
 70
0
 10
3.318580
 20
8.388291
 30
0.0
 10
3.318580
 20
8.636305
 30
0.0
 10
2.028900
 20
8.636305
 30
0.0
 10
0.739221
 20
8.636305
 30
0.0
 10
0.739221
 20
9.008327
 30
0.0
 10
0.739221
 20
9.380350
 30
0.0
 10
2.028900
 20
9.380350
 30
0.0
 10
3.318580
 20
9.380350
 30
0.0
 10
3.318580
 20
9.628367
 30
0.0
 10
3.318580
 20
9.876381
 30
0.0
 10
3.765008
 20
9.876381
 30
0.0
 10
4.211435
 20
9.876381
 30
0.0
 10
4.211435
 20
9.628367
 30
0.0
 10
4.211435
 20
9.380350
 30
0.0
 10
5.674725
 20
9.380350
 30
0.0
 10
7.138016
 20
9.380350
 30
0.0
 10
7.138016
 20
9.628367
 30
0.0
 10
7.138016
 20
9.876381
 30
0.0
 10
7.559642
 20
9.876381
 30
0.0
 10
7.981268
 20
9.876381
 30
0.0
 10
7.981268
 20
9.628367
 30
0.0
 10
7.981268
 20
9.380350
 30
0.0
 10
9.295749
 20
9.380350
 30
0.0
 10
10.610230
 20
9.380350
 30
0.0
 10
10.610230
 20
9.008327
 30
0.0
 10
10.610230
 20
8.636305
 30
0.0
 10
9.295749
 20
8.636305
 30
0.0
 10
7.981268
 20
8.636305
 30
0.0
 10
7.981268
 20
8.413092
 30
0.0
 10
7.981268
 20
8.189877
 30
0.0
 10
7.559642
 20
8.189877
 30
0.0
 10
7.138016
 20
8.189877
 30
0.0
 10
7.138016
 20
8.413092
 30
0.0
 10
7.138016
 20
8.636305
 30
0.0
 10
5.674725
 20
8.636305
 30
0.0
 10
4.211435
 20
8.636305
 30
0.0
 10
4.211435
 20
8.388291
 30
0.0
 10
4.211435
 20
8.140274
 30
0.0
 10
3.765008
 20
8.140274
 30
0.0
 10
3.318580
 20
8.140274
 30
0.0
 10
3.318580
 20
8.388291
 30
0.0
 10
3.318580
 20
8.388291
 30
0.0
  0
ENDSEC
  0
SECTION
  2
OBJECTS
  0
DICTIONARY
  5
C
330
0
100
AcDbDictionary
  3
ACAD_GROUP
350
D
  3
ACAD_MLINESTYLE
350
17
  0
DICTIONARY
  5
D
330
C
100
AcDbDictionary
  0
DICTIONARY
  5
1A
330
C
100
AcDbDictionary
  0
DICTIONARY
  5
17
330
C
100
AcDbDictionary
  3
STANDARD
350
18
  0
DICTIONARY
  5
19
330
C
100
AcDbDictionary
  0
ENDSEC
  0
EOF
