  0
SECTION
  2
HEADER
  9
$ACADVER
  1
AC1014
  9
$HANDSEED
  5
FFFF
  9
$MEASUREMENT
 70
     1
  0
ENDSEC
  0
SECTION
  2
TABLES
  0
TABLE
  2
VPORT
  5
8
330
0
100
AcDbSymbolTable
 70
     4
  0
VPORT
  5
2E
330
8
100
AcDbSymbolTableRecord
100
AcDbViewportTableRecord
  2
*ACTIVE
 70
     0
 10
0.0
 20
0.0
 11
1.0
 21
1.0
 12
210.0
 22
148.5
 13
0.0
 23
0.0
 14
10.0
 24
10.0
 15
10.0
 25
10.0
 16
0.0
 26
0.0
 36
1.0
 17
0.0
 27
0.0
 37
0.0
 40
341.0
 41
1.24
 42
50.0
 43
0.0
 44
0.0
 50
0.0
 51
0.0
 71
     0
 72
   100
 73
     1
 74
     3
 75
     0
 76
     0
 77
     0
 78
     0
  0
ENDTAB
  0
TABLE
  2
LTYPE
  5
5
330
0
100
AcDbSymbolTable
 70
     1
  0
LTYPE
  5
14
330
5
100
AcDbSymbolTableRecord
100
AcDbLinetypeTableRecord
  2
BYBLOCK
 70
     0
  3

 72
    65
 73
     0
 40
0.0
  0
LTYPE
  5
15
330
5
100
AcDbSymbolTableRecord
100
AcDbLinetypeTableRecord
  2
BYLAYER
 70
     0
  3

 72
    65
 73
     0
 40
0.0
  0
LTYPE
  5
16
330
5
100
AcDbSymbolTableRecord
100
AcDbLinetypeTableRecord
  2
CONTINUOUS
 70
     0
  3
Solid line
 72
    65
 73
     0
 40
0.0
  0
ENDTAB
  0
TABLE
  2
LAYER
  5
2
100
AcDbSymbolTable
 70
2
  0
LAYER
  5
50
100
AcDbSymbolTableRecord
100
AcDbLayerTableRecord
  2
0
 70
0
  6
CONTINUOUS
  0
LAYER
  5
51
100
AcDbSymbolTableRecord
100
AcDbLayerTableRecord
  2
Layer_1
 70
0
  6
CONTINUOUS
  0
ENDTAB
  0
TABLE
  2
STYLE
  5
3
330
0
100
AcDbSymbolTable
 70
     1
  0
STYLE
  5
11
330
3
100
AcDbSymbolTableRecord
100
AcDbTextStyleTableRecord
  2
STANDARD
 70
     0
 40
0.0
 41
1.0
 50
0.0
 71
     0
 42
2.5
  3
txt
  4

  0
ENDTAB
  0
TABLE
  2
VIEW
  5
6
330
0
100
AcDbSymbolTable
 70
     0
  0
ENDTAB
  0
TABLE
  2
UCS
  5
7
330
0
100
AcDbSymbolTable
 70
     0
  0
ENDTAB
  0
TABLE
  2
APPID
  5
9
330
0
100
AcDbSymbolTable
 70
     2
  0
APPID
  5
12
330
9
100
AcDbSymbolTableRecord
100
AcDbRegAppTableRecord
  2
ACAD
 70
     0
  0
ENDTAB
  0
TABLE
  2
DIMSTYLE
  5
A
330
0
100
AcDbSymbolTable
 70
     1
  0
DIMSTYLE
105
27
330
A
100
AcDbSymbolTableRecord
100
AcDbDimStyleTableRecord
  2
ISO-25
 70
     0
  3

  4

  5

  6

  7

 40
1.0
 41
2.5
 42
0.625
 43
3.75
 44
1.25
 45
0.0
 46
0.0
 47
0.0
 48
0.0
140
2.5
141
2.5
142
0.0
143
0.03937007874016
144
1.0
145
0.0
146
1.0
147
0.625
 71
     0
 72
     0
 73
     0
 74
     0
 75
     0
 76
     0
 77
     1
 78
     8
170
     0
171
     3
172
     1
173
     0
174
     0
175
     0
176
     0
177
     0
178
     0
270
     2
271
     2
272
     2
273
     2
274
     3
340
11
275
     0
280
     0
281
     0
282
     0
283
     0
284
     8
285
     0
286
     0
287
     3
288
     0
  0
ENDTAB
  0
TABLE
  2
BLOCK_RECORD
  5
1
330
0
100
AcDbSymbolTable
 70
     1
  0
BLOCK_RECORD
  5
1F
330
1
100
AcDbSymbolTableRecord
100
AcDbBlockTableRecord
  2
*MODEL_SPACE
  0
BLOCK_RECORD
  5
1B
330
1
100
AcDbSymbolTableRecord
100
AcDbBlockTableRecord
  2
*PAPER_SPACE
  0
ENDTAB
  0
ENDSEC
  0
SECTION
  2
BLOCKS
  0
BLOCK
  5
20
330
1F
100
AcDbEntity
  8
0
100
AcDbBlockBegin
  2
*MODEL_SPACE
 70
     0
 10
0.0
 20
0.0
 30
0.0
  3
*MODEL_SPACE
  1

  0
ENDBLK
  5
21
330
1F
100
AcDbEntity
  8
0
100
AcDbBlockEnd
  0
BLOCK
  5
1C
330
1B
100
AcDbEntity
 67
     1
  8
0
100
AcDbBlockBegin
  2
*PAPER_SPACE
  1

  0
ENDBLK
  5
1D
330
1B
100
AcDbEntity
 67
     1
  8
0
100
AcDbBlockEnd
  0
ENDSEC
  0
SECTION
  2
ENTITIES
  0
SPLINE
  5
100
100
AcDbEntity
  8
Layer_1
 62
7
100
AcDbSpline
 70
8
 71
3
 72
8
 73
4
 74
0
 40
0
 40
0
 40
0
 40
0
 40
1
 40
1
 40
1
 40
1
 10
4.890238
 20
47.734228
 30
0.0
 10
4.634717
 20
47.983559
 30
0.0
 10
4.267074
 20
48.281257
 30
0.0
 10
3.992194
 20
48.461418
 30
0.0
  0
SPLINE
  5
101
100
AcDbEntity
  8
Layer_1
 62
7
100
AcDbSpline
 70
8
 71
3
 72
8
 73
4
 74
0
 40
0
 40
0
 40
0
 40
0
 40
1
 40
1
 40
1
 40
1
 10
4.137495
 20
48.780801
 30
0.0
 10
4.260755
 20
48.928053
 30
0.0
 10
4.368048
 20
49.048531
 30
0.0
 10
4.375924
 20
49.048531
 30
0.0
  0
SPLINE
  5
102
100
AcDbEntity
  8
Layer_1
 62
7
100
AcDbSpline
 70
8
 71
3
 72
8
 73
4
 74
0
 40
0
 40
0
 40
0
 40
0
 40
1
 40
1
 40
1
 40
1
 10
4.375924
 20
49.048531
 30
0.0
 10
4.445384
 20
49.048531
 30
0.0
 10
5.251588
 20
48.464003
 30
0.0
 10
5.593133
 20
48.166008
 30
0.0
  0
LWPOLYLINE
  5
103
100
AcDbEntity
  8
Layer_1
 62
7
100
AcDbPolyline
 90
3
 70
0
 10
3.992194
 20
48.461418
 30
0.0
 10
3.913385
 20
48.513070
 30
0.0
 10
4.137495
 20
48.780801
 30
0.0
  0
SPLINE
  5
104
100
AcDbEntity
  8
Layer_1
 62
7
100
AcDbSpline
 70
8
 71
3
 72
8
 73
4
 74
0
 40
0
 40
0
 40
0
 40
0
 40
1
 40
1
 40
1
 40
1
 10
5.593133
 20
47.925957
 30
0.0
 10
5.531612
 20
47.847606
 30
0.0
 10
5.422314
 20
47.707612
 30
0.0
 10
5.350248
 20
47.614859
 30
0.0
  0
SPLINE
  5
105
100
AcDbEntity
  8
Layer_1
 62
7
100
AcDbSpline
 70
8
 71
3
 72
8
 73
4
 74
0
 40
0
 40
0
 40
0
 40
0
 40
1
 40
1
 40
1
 40
1
 10
5.350248
 20
47.614859
 30
0.0
 10
5.278182
 20
47.522107
 30
0.0
 10
5.211849
 20
47.445985
 30
0.0
 10
5.202841
 20
47.445700
 30
0.0
  0
SPLINE
  5
106
100
AcDbEntity
  8
Layer_1
 62
7
100
AcDbSpline
 70
8
 71
3
 72
8
 73
4
 74
0
 40
0
 40
0
 40
0
 40
0
 40
1
 40
1
 40
1
 40
1
 10
5.202841
 20
47.445700
 30
0.0
 10
5.193832
 20
47.445418
 30
0.0
 10
5.053162
 20
47.575253
 30
0.0
 10
4.890238
 20
47.734228
 30
0.0
  0
LWPOLYLINE
  5
107
100
AcDbEntity
  8
Layer_1
 62
7
100
AcDbPolyline
 90
3
 70
0
 10
5.593133
 20
48.166008
 30
0.0
 10
5.704989
 20
48.068415
 30
0.0
 10
5.593133
 20
47.925957
 30
0.0
  0
SPLINE
  5
108
100
AcDbEntity
  8
Layer_1
 62
7
100
AcDbSpline
 70
8
 71
3
 72
8
 73
4
 74
0
 40
0
 40
0
 40
0
 40
0
 40
1
 40
1
 40
1
 40
1
 10
6.857739
 20
47.166916
 30
0.0
 10
6.713969
 20
47.193959
 30
0.0
 10
6.582971
 20
47.229454
 30
0.0
 10
6.566632
 20
47.245794
 30
0.0
  0
SPLINE
  5
109
100
AcDbEntity
  8
Layer_1
 62
7
100
AcDbSpline
 70
8
 71
3
 72
8
 73
4
 74
0
 40
0
 40
0
 40
0
 40
0
 40
1
 40
1
 40
1
 40
1
 10
6.566632
 20
47.245794
 30
0.0
 10
6.536313
 20
47.276112
 30
0.0
 10
6.409649
 20
48.038767
 30
0.0
 10
6.431331
 20
48.060449
 30
0.0
  0
SPLINE
  5
10a
100
AcDbEntity
  8
Layer_1
 62
7
100
AcDbSpline
 70
8
 71
3
 72
8
 73
4
 74
0
 40
0
 40
0
 40
0
 40
0
 40
1
 40
1
 40
1
 40
1
 10
6.431331
 20
48.060449
 30
0.0
 10
6.437889
 20
48.067008
 30
0.0
 10
6.541488
 20
48.047741
 30
0.0
 10
6.661549
 20
48.017630
 30
0.0
  0
SPLINE
  5
10b
100
AcDbEntity
  8
Layer_1
 62
7
100
AcDbSpline
 70
8
 71
3
 72
8
 73
4
 74
0
 40
0
 40
0
 40
0
 40
0
 40
1
 40
1
 40
1
 40
1
 10
6.661549
 20
48.017630
 30
0.0
 10
6.930520
 20
47.950175
 30
0.0
 10
7.436748
 20
47.906695
 30
0.0
 10
7.603246
 20
47.936748
 30
0.0
  0
SPLINE
  5
10c
100
AcDbEntity
  8
Layer_1
 62
7
100
AcDbSpline
 70
8
 71
3
 72
8
 73
4
 74
0
 40
0
 40
0
 40
0
 40
0
 40
1
 40
1
 40
1
 40
1
 10
7.603246
 20
47.936748
 30
0.0
 10
7.877938
 20
47.986330
 30
0.0
 10
7.921258
 20
48.112021
 30
0.0
 10
7.921507
 20
48.860177
 30
0.0
  0
LWPOLYLINE
  5
10d
100
AcDbEntity
  8
Layer_1
 62
7
100
AcDbPolyline
 90
3
 70
0
 10
4.890238
 20
47.734228
 30
0.0
 10
4.890238
 20
47.734228
 30
0.0
 10
4.890238
 20
47.734228
 30
0.0
  0
SPLINE
  5
10e
100
AcDbEntity
  8
Layer_1
 62
7
100
AcDbSpline
 70
8
 71
3
 72
8
 73
4
 74
0
 40
0
 40
0
 40
0
 40
0
 40
1
 40
1
 40
1
 40
1
 10
8.701751
 20
48.598120
 30
0.0
 10
8.692059
 20
47.832640
 30
0.0
 10
8.687273
 20
47.778235
 30
0.0
 10
8.616025
 20
47.623593
 30
0.0
  0
SPLINE
  5
10f
100
AcDbEntity
  8
Layer_1
 62
7
100
AcDbSpline
 70
8
 71
3
 72
8
 73
4
 74
0
 40
0
 40
0
 40
0
 40
0
 40
1
 40
1
 40
1
 40
1
 10
8.616025
 20
47.623593
 30
0.0
 10
8.443380
 20
47.248864
 30
0.0
 10
8.221970
 20
47.144961
 30
0.0
 10
7.561362
 20
47.128659
 30
0.0
  0
SPLINE
  5
110
100
AcDbEntity
  8
Layer_1
 62
7
100
AcDbSpline
 70
8
 71
3
 72
8
 73
4
 74
0
 40
0
 40
0
 40
0
 40
0
 40
1
 40
1
 40
1
 40
1
 10
7.561362
 20
47.128659
 30
0.0
 10
7.263016
 20
47.121296
 30
0.0
 10
7.034093
 20
47.133745
 30
0.0
 10
6.857740
 20
47.166916
 30
0.0
  0
LWPOLYLINE
  5
111
100
AcDbEntity
  8
Layer_1
 62
7
100
AcDbPolyline
 90
21
 70
0
 10
7.921507
 20
48.860177
 30
0.0
 10
7.921690
 20
49.408861
 30
0.0
 10
5.350248
 20
49.408861
 30
0.0
 10
2.778807
 20
49.408861
 30
0.0
 10
2.778807
 20
49.769190
 30
0.0
 10
2.778807
 20
50.129519
 30
0.0
 10
5.350248
 20
50.129519
 30
0.0
 10
7.921690
 20
50.129519
 30
0.0
 10
7.921690
 20
50.375199
 30
0.0
 10
7.921690
 20
50.620878
 30
0.0
 10
8.314776
 20
50.620878
 30
0.0
 10
8.707863
 20
50.620878
 30
0.0
 10
8.707863
 20
50.375199
 30
0.0
 10
8.707863
 20
50.129519
 30
0.0
 10
9.477658
 20
50.129519
 30
0.0
 10
10.247452
 20
50.129519
 30
0.0
 10
10.247452
 20
49.769190
 30
0.0
 10
10.247452
 20
49.408861
 30
0.0
 10
9.479734
 20
49.408861
 30
0.0
 10
8.712015
 20
49.408861
 30
0.0
 10
8.701751
 20
48.598120
 30
0.0
  0
LWPOLYLINE
  5
112
100
AcDbEntity
  8
Layer_1
 62
7
100
AcDbPolyline
 90
2
 70
0
 10
6.857740
 20
47.166916
 30
0.0
 10
6.857739
 20
47.166916
 30
0.0
  0
SPLINE
  5
113
100
AcDbEntity
  8
Layer_1
 62
7
100
AcDbSpline
 70
8
 71
3
 72
8
 73
4
 74
0
 40
0
 40
0
 40
0
 40
0
 40
1
 40
1
 40
1
 40
1
 10
7.364817
 20
56.287876
 30
0.0
 10
7.689113
 20
56.287876
 30
0.0
 10
7.954447
 20
56.297265
 30
0.0
 10
7.954447
 20
56.308740
 30
0.0
  0
SPLINE
  5
114
100
AcDbEntity
  8
Layer_1
 62
7
100
AcDbSpline
 70
8
 71
3
 72
8
 73
4
 74
0
 40
0
 40
0
 40
0
 40
0
 40
1
 40
1
 40
1
 40
1
 10
7.954447
 20
56.308740
 30
0.0
 10
7.954447
 20
56.320216
 30
0.0
 10
7.859481
 20
56.435713
 30
0.0
 10
7.743412
 20
56.565400
 30
0.0
  0
LWPOLYLINE
  5
115
100
AcDbEntity
  8
Layer_1
 62
7
100
AcDbPolyline
 90
19
 70
0
 10
3.335680
 20
52.864747
 30
0.0
 10
3.335680
 20
54.879316
 30
0.0
 10
4.645968
 20
54.879316
 30
0.0
 10
5.956257
 20
54.879316
 30
0.0
 10
5.956257
 20
55.223266
 30
0.0
 10
5.956257
 20
55.567217
 30
0.0
 10
4.482182
 20
55.567217
 30
0.0
 10
3.008107
 20
55.567217
 30
0.0
 10
3.008107
 20
55.927546
 30
0.0
 10
3.008107
 20
56.287876
 30
0.0
 10
4.482182
 20
56.287876
 30
0.0
 10
5.956257
 20
56.287876
 30
0.0
 10
5.956257
 20
56.730098
 30
0.0
 10
5.956257
 20
57.172321
 30
0.0
 10
6.365722
 20
57.172321
 30
0.0
 10
6.775187
 20
57.172321
 30
0.0
 10
6.775187
 20
56.730098
 30
0.0
 10
6.775187
 20
56.287876
 30
0.0
 10
7.364817
 20
56.287876
 30
0.0
  0
SPLINE
  5
116
100
AcDbEntity
  8
Layer_1
 62
7
100
AcDbSpline
 70
8
 71
3
 72
8
 73
4
 74
0
 40
0
 40
0
 40
0
 40
0
 40
1
 40
1
 40
1
 40
1
 10
8.212803
 20
56.999730
 30
0.0
 10
8.442665
 20
56.782700
 30
0.0
 10
8.717367
 20
56.484846
 30
0.0
 10
8.790245
 20
56.373619
 30
0.0
  0
LWPOLYLINE
  5
117
100
AcDbEntity
  8
Layer_1
 62
7
100
AcDbPolyline
 90
5
 70
0
 10
7.743412
 20
56.565400
 30
0.0
 10
7.532377
 20
56.801194
 30
0.0
 10
7.781844
 20
56.986142
 30
0.0
 10
8.031311
 20
57.171090
 30
0.0
 10
8.212803
 20
56.999730
 30
0.0
  0
LWPOLYLINE
  5
118
100
AcDbEntity
  8
Layer_1
 62
7
100
AcDbPolyline
 90
34
 70
0
 10
8.790245
 20
56.373619
 30
0.0
 10
8.846427
 20
56.287876
 30
0.0
 10
9.383153
 20
56.287876
 30
0.0
 10
9.919880
 20
56.287876
 30
0.0
 10
9.919880
 20
55.927546
 30
0.0
 10
9.919880
 20
55.567217
 30
0.0
 10
8.347533
 20
55.567217
 30
0.0
 10
6.775187
 20
55.567217
 30
0.0
 10
6.775187
 20
55.223266
 30
0.0
 10
6.775187
 20
54.879316
 30
0.0
 10
8.101854
 20
54.879316
 30
0.0
 10
9.428521
 20
54.879316
 30
0.0
 10
9.428521
 20
52.864747
 30
0.0
 10
9.428521
 20
50.850178
 30
0.0
 10
9.019056
 20
50.850178
 30
0.0
 10
8.609591
 20
50.850178
 30
0.0
 10
8.609591
 20
51.226886
 30
0.0
 10
8.609591
 20
51.603594
 30
0.0
 10
7.692389
 20
51.603594
 30
0.0
 10
6.775187
 20
51.603594
 30
0.0
 10
6.775187
 20
51.226886
 30
0.0
 10
6.775187
 20
50.850178
 30
0.0
 10
6.365722
 20
50.850178
 30
0.0
 10
5.956257
 20
50.850178
 30
0.0
 10
5.956257
 20
51.226886
 30
0.0
 10
5.956257
 20
51.603594
 30
0.0
 10
5.039055
 20
51.603594
 30
0.0
 10
4.121853
 20
51.603594
 30
0.0
 10
4.121853
 20
51.226886
 30
0.0
 10
4.121853
 20
50.850178
 30
0.0
 10
3.728766
 20
50.850178
 30
0.0
 10
3.335680
 20
50.850178
 30
0.0
 10
3.335680
 20
52.864747
 30
0.0
 10
3.335680
 20
52.864747
 30
0.0
  0
LWPOLYLINE
  5
119
100
AcDbEntity
  8
Layer_1
 62
7
100
AcDbPolyline
 90
10
 70
0
 10
5.956257
 20
52.569932
 30
0.0
 10
5.956257
 20
52.946640
 30
0.0
 10
5.039055
 20
52.946640
 30
0.0
 10
4.121853
 20
52.946640
 30
0.0
 10
4.121853
 20
52.569932
 30
0.0
 10
4.121853
 20
52.193224
 30
0.0
 10
5.039055
 20
52.193224
 30
0.0
 10
5.956257
 20
52.193224
 30
0.0
 10
5.956257
 20
52.569932
 30
0.0
 10
5.956257
 20
52.569932
 30
0.0
  0
LWPOLYLINE
  5
11a
100
AcDbEntity
  8
Layer_1
 62
7
100
AcDbPolyline
 90
10
 70
0
 10
8.609591
 20
52.569932
 30
0.0
 10
8.609591
 20
52.946640
 30
0.0
 10
7.692389
 20
52.946640
 30
0.0
 10
6.775187
 20
52.946640
 30
0.0
 10
6.775187
 20
52.569932
 30
0.0
 10
6.775187
 20
52.193224
 30
0.0
 10
7.692389
 20
52.193224
 30
0.0
 10
8.609591
 20
52.193224
 30
0.0
 10
8.609591
 20
52.569932
 30
0.0
 10
8.609591
 20
52.569932
 30
0.0
  0
LWPOLYLINE
  5
11b
100
AcDbEntity
  8
Layer_1
 62
7
100
AcDbPolyline
 90
10
 70
0
 10
5.956257
 20
53.863842
 30
0.0
 10
5.956257
 20
54.224171
 30
0.0
 10
5.039055
 20
54.224171
 30
0.0
 10
4.121853
 20
54.224171
 30
0.0
 10
4.121853
 20
53.863842
 30
0.0
 10
4.121853
 20
53.503512
 30
0.0
 10
5.039055
 20
53.503512
 30
0.0
 10
5.956257
 20
53.503512
 30
0.0
 10
5.956257
 20
53.863842
 30
0.0
 10
5.956257
 20
53.863842
 30
0.0
  0
LWPOLYLINE
  5
11c
100
AcDbEntity
  8
Layer_1
 62
7
100
AcDbPolyline
 90
10
 70
0
 10
8.609591
 20
53.863842
 30
0.0
 10
8.609591
 20
54.224171
 30
0.0
 10
7.692389
 20
54.224171
 30
0.0
 10
6.775187
 20
54.224171
 30
0.0
 10
6.775187
 20
53.863842
 30
0.0
 10
6.775187
 20
53.503512
 30
0.0
 10
7.692389
 20
53.503512
 30
0.0
 10
8.609591
 20
53.503512
 30
0.0
 10
8.609591
 20
53.863842
 30
0.0
 10
8.609591
 20
53.863842
 30
0.0
  0
LWPOLYLINE
  5
11d
100
AcDbEntity
  8
Layer_1
 62
7
100
AcDbPolyline
 90
26
 70
0
 10
1.075432
 20
50.440713
 30
0.0
 10
1.075432
 20
53.863842
 30
0.0
 10
0.551316
 20
53.863842
 30
0.0
 10
0.027201
 20
53.863842
 30
0.0
 10
0.027201
 20
54.256928
 30
0.0
 10
0.027201
 20
54.650015
 30
0.0
 10
0.551316
 20
54.650015
 30
0.0
 10
1.075432
 20
54.650015
 30
0.0
 10
1.075432
 20
55.894789
 30
0.0
 10
1.075432
 20
57.139563
 30
0.0
 10
1.501276
 20
57.139563
 30
0.0
 10
1.927119
 20
57.139563
 30
0.0
 10
1.927119
 20
55.894789
 30
0.0
 10
1.927119
 20
54.650015
 30
0.0
 10
2.451235
 20
54.650015
 30
0.0
 10
2.975350
 20
54.650015
 30
0.0
 10
2.975350
 20
54.256928
 30
0.0
 10
2.975350
 20
53.863842
 30
0.0
 10
2.451235
 20
53.863842
 30
0.0
 10
1.927119
 20
53.863842
 30
0.0
 10
1.927119
 20
50.440713
 30
0.0
 10
1.927119
 20
47.017584
 30
0.0
 10
1.501276
 20
47.017584
 30
0.0
 10
1.075432
 20
47.017584
 30
0.0
 10
1.075432
 20
50.440713
 30
0.0
 10
1.075432
 20
50.440713
 30
0.0
  0
LWPOLYLINE
  5
11e
100
AcDbEntity
  8
Layer_1
 62
7
100
AcDbPolyline
 90
18
 70
0
 10
5.563170
 20
43.528941
 30
0.0
 10
5.563170
 20
44.593550
 30
0.0
 10
7.512224
 20
44.593550
 30
0.0
 10
9.461279
 20
44.593550
 30
0.0
 10
9.461279
 20
43.528941
 30
0.0
 10
9.461279
 20
42.464331
 30
0.0
 10
9.068192
 20
42.464331
 30
0.0
 10
8.675106
 20
42.464331
 30
0.0
 10
8.675106
 20
43.217747
 30
0.0
 10
8.675106
 20
43.971163
 30
0.0
 10
7.528603
 20
43.971163
 30
0.0
 10
6.382101
 20
43.971163
 30
0.0
 10
6.382101
 20
43.217747
 30
0.0
 10
6.382101
 20
42.464331
 30
0.0
 10
5.972635
 20
42.464331
 30
0.0
 10
5.563170
 20
42.464331
 30
0.0
 10
5.563170
 20
43.528941
 30
0.0
 10
5.563170
 20
43.528941
 30
0.0
  0
LWPOLYLINE
  5
11f
100
AcDbEntity
  8
Layer_1
 62
7
100
AcDbPolyline
 90
10
 70
0
 10
5.301112
 20
45.412481
 30
0.0
 10
5.301112
 20
45.740052
 30
0.0
 10
7.512224
 20
45.740052
 30
0.0
 10
9.723336
 20
45.740052
 30
0.0
 10
9.723336
 20
45.412481
 30
0.0
 10
9.723336
 20
45.084908
 30
0.0
 10
7.512224
 20
45.084908
 30
0.0
 10
5.301112
 20
45.084908
 30
0.0
 10
5.301112
 20
45.412481
 30
0.0
 10
5.301112
 20
45.412481
 30
0.0
  0
LWPOLYLINE
  5
120
100
AcDbEntity
  8
Layer_1
 62
7
100
AcDbPolyline
 90
10
 70
0
 10
0.453045
 20
45.412481
 30
0.0
 10
0.453045
 20
45.740052
 30
0.0
 10
2.598642
 20
45.740052
 30
0.0
 10
4.744240
 20
45.740052
 30
0.0
 10
4.744240
 20
45.412481
 30
0.0
 10
4.744240
 20
45.084908
 30
0.0
 10
2.598642
 20
45.084908
 30
0.0
 10
0.453045
 20
45.084908
 30
0.0
 10
0.453045
 20
45.412481
 30
0.0
 10
0.453045
 20
45.412481
 30
0.0
  0
SPLINE
  5
121
100
AcDbEntity
  8
Layer_1
 62
7
100
AcDbSpline
 70
8
 71
3
 72
8
 73
4
 74
0
 40
0
 40
0
 40
0
 40
0
 40
1
 40
1
 40
1
 40
1
 10
2.746050
 20
42.389398
 30
0.0
 10
2.746050
 20
42.405237
 30
0.0
 10
2.545214
 20
42.628199
 30
0.0
 10
2.299748
 20
42.884867
 30
0.0
  0
SPLINE
  5
122
100
AcDbEntity
  8
Layer_1
 62
7
100
AcDbSpline
 70
8
 71
3
 72
8
 73
4
 74
0
 40
0
 40
0
 40
0
 40
0
 40
1
 40
1
 40
1
 40
1
 10
2.299748
 20
42.884867
 30
0.0
 10
2.054283
 20
43.141536
 30
0.0
 10
1.858968
 20
43.356253
 30
0.0
 10
1.865715
 20
43.362018
 30
0.0
  0
SPLINE
  5
123
100
AcDbEntity
  8
Layer_1
 62
7
100
AcDbSpline
 70
8
 71
3
 72
8
 73
4
 74
0
 40
0
 40
0
 40
0
 40
0
 40
1
 40
1
 40
1
 40
1
 10
1.865715
 20
43.362018
 30
0.0
 10
1.974892
 20
43.455284
 30
0.0
 10
2.366084
 20
43.741862
 30
0.0
 10
2.384220
 20
43.741862
 30
0.0
  0
SPLINE
  5
124
100
AcDbEntity
  8
Layer_1
 62
7
100
AcDbSpline
 70
8
 71
3
 72
8
 73
4
 74
0
 40
0
 40
0
 40
0
 40
0
 40
1
 40
1
 40
1
 40
1
 10
2.384220
 20
43.741862
 30
0.0
 10
2.467358
 20
43.741862
 30
0.0
 10
3.302922
 20
43.019087
 30
0.0
 10
3.302922
 20
42.947172
 30
0.0
  0
SPLINE
  5
125
100
AcDbEntity
  8
Layer_1
 62
7
100
AcDbSpline
 70
8
 71
3
 72
8
 73
4
 74
0
 40
0
 40
0
 40
0
 40
0
 40
1
 40
1
 40
1
 40
1
 10
3.302922
 20
42.947172
 30
0.0
 10
3.302922
 20
42.914149
 30
0.0
 10
2.821791
 20
42.392530
 30
0.0
 10
2.771951
 20
42.371519
 30
0.0
  0
SPLINE
  5
126
100
AcDbEntity
  8
Layer_1
 62
7
100
AcDbSpline
 70
8
 71
3
 72
8
 73
4
 74
0
 40
0
 40
0
 40
0
 40
0
 40
1
 40
1
 40
1
 40
1
 10
2.771951
 20
42.371519
 30
0.0
 10
2.757705
 20
42.365513
 30
0.0
 10
2.746050
 20
42.373551
 30
0.0
 10
2.746050
 20
42.389398
 30
0.0
  0
LWPOLYLINE
  5
127
100
AcDbEntity
  8
Layer_1
 62
7
100
AcDbPolyline
 90
18
 70
0
 10
0.649588
 20
43.512562
 30
0.0
 10
0.649588
 20
44.593550
 30
0.0
 10
2.615021
 20
44.593550
 30
0.0
 10
4.580454
 20
44.593550
 30
0.0
 10
4.580454
 20
43.512562
 30
0.0
 10
4.580454
 20
42.431574
 30
0.0
 10
4.154610
 20
42.431574
 30
0.0
 10
3.728766
 20
42.431574
 30
0.0
 10
3.728766
 20
43.201368
 30
0.0
 10
3.728766
 20
43.971163
 30
0.0
 10
2.582264
 20
43.971163
 30
0.0
 10
1.435761
 20
43.971163
 30
0.0
 10
1.435761
 20
43.201368
 30
0.0
 10
1.435761
 20
42.431574
 30
0.0
 10
1.042675
 20
42.431574
 30
0.0
 10
0.649588
 20
42.431574
 30
0.0
 10
0.649588
 20
43.512562
 30
0.0
 10
0.649588
 20
43.512562
 30
0.0
  0
SPLINE
  5
128
100
AcDbEntity
  8
Layer_1
 62
7
100
AcDbSpline
 70
8
 71
3
 72
8
 73
4
 74
0
 40
0
 40
0
 40
0
 40
0
 40
1
 40
1
 40
1
 40
1
 10
0.420287
 20
35.974062
 30
0.0
 10
0.249131
 20
36.075964
 30
0.0
 10
0.091682
 20
36.170464
 30
0.0
 10
0.070402
 20
36.184061
 30
0.0
  0
SPLINE
  5
129
100
AcDbEntity
  8
Layer_1
 62
7
100
AcDbSpline
 70
8
 71
3
 72
8
 73
4
 74
0
 40
0
 40
0
 40
0
 40
0
 40
1
 40
1
 40
1
 40
1
 10
0.070402
 20
36.184061
 30
0.0
 10
0.042906
 20
36.201629
 30
0.0
 10
0.072734
 20
36.286830
 30
0.0
 10
0.173478
 20
36.478490
 30
0.0
  0
SPLINE
  5
12a
100
AcDbEntity
  8
Layer_1
 62
7
100
AcDbSpline
 70
8
 71
3
 72
8
 73
4
 74
0
 40
0
 40
0
 40
0
 40
0
 40
1
 40
1
 40
1
 40
1
 10
0.173478
 20
36.478490
 30
0.0
 10
0.484965
 20
37.071075
 30
0.0
 10
0.704876
 20
37.777478
 30
0.0
 10
0.795892
 20
38.477818
 30
0.0
  0
SPLINE
  5
12b
100
AcDbEntity
  8
Layer_1
 62
7
100
AcDbSpline
 70
8
 71
3
 72
8
 73
4
 74
0
 40
0
 40
0
 40
0
 40
0
 40
1
 40
1
 40
1
 40
1
 10
0.795892
 20
38.477818
 30
0.0
 10
0.834702
 20
38.776447
 30
0.0
 10
0.846131
 20
39.206816
 30
0.0
 10
0.846131
 20
40.369547
 30
0.0
  0
LWPOLYLINE
  5
12c
100
AcDbEntity
  8
Layer_1
 62
7
100
AcDbPolyline
 90
2
 70
0
 10
2.746050
 20
42.389398
 30
0.0
 10
2.746050
 20
42.389398
 30
0.0
  0
SPLINE
  5
12d
100
AcDbEntity
  8
Layer_1
 62
7
100
AcDbSpline
 70
8
 71
3
 72
8
 73
4
 74
0
 40
0
 40
0
 40
0
 40
0
 40
1
 40
1
 40
1
 40
1
 10
4.759401
 20
41.948405
 30
0.0
 10
4.747297
 20
41.988942
 30
0.0
 10
4.701865
 20
42.086998
 30
0.0
 10
4.658444
 20
42.166308
 30
0.0
  0
SPLINE
  5
12e
100
AcDbEntity
  8
Layer_1
 62
7
100
AcDbSpline
 70
8
 71
3
 72
8
 73
4
 74
0
 40
0
 40
0
 40
0
 40
0
 40
1
 40
1
 40
1
 40
1
 10
4.658444
 20
42.166308
 30
0.0
 10
4.615023
 20
42.245618
 30
0.0
 10
4.583398
 20
42.314169
 30
0.0
 10
4.588165
 20
42.318644
 30
0.0
  0
SPLINE
  5
12f
100
AcDbEntity
  8
Layer_1
 62
7
100
AcDbSpline
 70
8
 71
3
 72
8
 73
4
 74
0
 40
0
 40
0
 40
0
 40
0
 40
1
 40
1
 40
1
 40
1
 10
4.588165
 20
42.318644
 30
0.0
 10
4.592932
 20
42.323120
 30
0.0
 10
4.766351
 20
42.371795
 30
0.0
 10
4.973540
 20
42.426814
 30
0.0
  0
LWPOLYLINE
  5
130
100
AcDbEntity
  8
Layer_1
 62
7
100
AcDbPolyline
 90
5
 70
0
 10
0.846131
 20
40.369547
 30
0.0
 10
0.846131
 20
41.874701
 30
0.0
 10
2.813772
 20
41.874701
 30
0.0
 10
4.781412
 20
41.874701
 30
0.0
 10
4.759401
 20
41.948405
 30
0.0
  0
SPLINE
  5
131
100
AcDbEntity
  8
Layer_1
 62
7
100
AcDbSpline
 70
8
 71
3
 72
8
 73
4
 74
0
 40
0
 40
0
 40
0
 40
0
 40
1
 40
1
 40
1
 40
1
 10
5.458182
 20
42.406535
 30
0.0
 10
5.517546
 20
42.340362
 30
0.0
 10
5.611699
 20
42.193629
 30
0.0
 10
5.667412
 20
42.080461
 30
0.0
  0
LWPOLYLINE
  5
132
100
AcDbEntity
  8
Layer_1
 62
7
100
AcDbPolyline
 90
3
 70
0
 10
4.973540
 20
42.426814
 30
0.0
 10
5.350248
 20
42.526848
 30
0.0
 10
5.458182
 20
42.406535
 30
0.0
  0
SPLINE
  5
133
100
AcDbEntity
  8
Layer_1
 62
7
100
AcDbSpline
 70
8
 71
3
 72
8
 73
4
 74
0
 40
0
 40
0
 40
0
 40
0
 40
1
 40
1
 40
1
 40
1
 10
1.539800
 20
38.263218
 30
0.0
 10
1.458054
 20
37.492070
 30
0.0
 10
1.270526
 20
36.826325
 30
0.0
 10
0.953671
 20
36.182397
 30
0.0
  0
SPLINE
  5
134
100
AcDbEntity
  8
Layer_1
 62
7
100
AcDbSpline
 70
8
 71
3
 72
8
 73
4
 74
0
 40
0
 40
0
 40
0
 40
0
 40
1
 40
1
 40
1
 40
1
 10
0.953671
 20
36.182397
 30
0.0
 10
0.853737
 20
35.979306
 30
0.0
 10
0.762862
 20
35.807660
 30
0.0
 10
0.751727
 20
35.800963
 30
0.0
  0
SPLINE
  5
135
100
AcDbEntity
  8
Layer_1
 62
7
100
AcDbSpline
 70
8
 71
3
 72
8
 73
4
 74
0
 40
0
 40
0
 40
0
 40
0
 40
1
 40
1
 40
1
 40
1
 10
0.751727
 20
35.800963
 30
0.0
 10
0.740592
 20
35.794266
 30
0.0
 10
0.591444
 20
35.872160
 30
0.0
 10
0.420287
 20
35.974062
 30
0.0
  0
LWPOLYLINE
  5
136
100
AcDbEntity
  8
Layer_1
 62
7
100
AcDbPolyline
 90
17
 70
0
 10
5.667412
 20
42.080461
 30
0.0
 10
5.768707
 20
41.874701
 30
0.0
 10
7.811536
 20
41.874701
 30
0.0
 10
9.854365
 20
41.874701
 30
0.0
 10
9.854365
 20
41.530750
 30
0.0
 10
9.854365
 20
41.186800
 30
0.0
 10
8.331155
 20
41.186800
 30
0.0
 10
6.807944
 20
41.186800
 30
0.0
 10
6.807944
 20
40.891985
 30
0.0
 10
6.807944
 20
40.597170
 30
0.0
 10
8.085476
 20
40.597170
 30
0.0
 10
9.363007
 20
40.597170
 30
0.0
 10
9.363007
 20
39.614453
 30
0.0
 10
9.363007
 20
38.631737
 30
0.0
 10
5.470936
 20
38.631737
 30
0.0
 10
1.578865
 20
38.631737
 30
0.0
 10
1.539800
 20
38.263218
 30
0.0
  0
LWPOLYLINE
  5
137
100
AcDbEntity
  8
Layer_1
 62
7
100
AcDbPolyline
 90
2
 70
0
 10
0.420287
 20
35.974062
 30
0.0
 10
0.420287
 20
35.974062
 30
0.0
  0
SPLINE
  5
138
100
AcDbEntity
  8
Layer_1
 62
7
100
AcDbSpline
 70
8
 71
3
 72
8
 73
4
 74
0
 40
0
 40
0
 40
0
 40
0
 40
1
 40
1
 40
1
 40
1
 10
1.599547
 20
39.636292
 30
0.0
 10
1.599547
 20
39.504171
 30
0.0
 10
1.609374
 20
39.386245
 30
0.0
 10
1.621385
 20
39.374234
 30
0.0
  0
SPLINE
  5
139
100
AcDbEntity
  8
Layer_1
 62
7
100
AcDbSpline
 70
8
 71
3
 72
8
 73
4
 74
0
 40
0
 40
0
 40
0
 40
0
 40
1
 40
1
 40
1
 40
1
 10
1.621385
 20
39.374234
 30
0.0
 10
1.633396
 20
39.362223
 30
0.0
 10
2.053507
 20
39.352396
 30
0.0
 10
2.554966
 20
39.352396
 30
0.0
  0
LWPOLYLINE
  5
13a
100
AcDbEntity
  8
Layer_1
 62
7
100
AcDbPolyline
 90
5
 70
0
 10
3.466709
 20
39.614453
 30
0.0
 10
3.466709
 20
39.876511
 30
0.0
 10
2.533128
 20
39.876511
 30
0.0
 10
1.599547
 20
39.876511
 30
0.0
 10
1.599547
 20
39.636292
 30
0.0
  0
LWPOLYLINE
  5
13b
100
AcDbEntity
  8
Layer_1
 62
7
100
AcDbPolyline
 90
4
 70
0
 10
2.554966
 20
39.352396
 30
0.0
 10
3.466708
 20
39.352396
 30
0.0
 10
3.466708
 20
39.614453
 30
0.0
 10
3.466709
 20
39.614453
 30
0.0
  0
LWPOLYLINE
  5
13c
100
AcDbEntity
  8
Layer_1
 62
7
100
AcDbPolyline
 90
10
 70
0
 10
6.054528
 20
39.614453
 30
0.0
 10
6.054528
 20
39.876511
 30
0.0
 10
5.137326
 20
39.876511
 30
0.0
 10
4.220124
 20
39.876511
 30
0.0
 10
4.220124
 20
39.614453
 30
0.0
 10
4.220124
 20
39.352396
 30
0.0
 10
5.137326
 20
39.352396
 30
0.0
 10
6.054528
 20
39.352396
 30
0.0
 10
6.054528
 20
39.614453
 30
0.0
 10
6.054528
 20
39.614453
 30
0.0
  0
LWPOLYLINE
  5
13d
100
AcDbEntity
  8
Layer_1
 62
7
100
AcDbPolyline
 90
10
 70
0
 10
8.609591
 20
39.614453
 30
0.0
 10
8.609591
 20
39.876511
 30
0.0
 10
7.708768
 20
39.876511
 30
0.0
 10
6.807944
 20
39.876511
 30
0.0
 10
6.807944
 20
39.614453
 30
0.0
 10
6.807944
 20
39.352396
 30
0.0
 10
7.708768
 20
39.352396
 30
0.0
 10
8.609591
 20
39.352396
 30
0.0
 10
8.609591
 20
39.614453
 30
0.0
 10
8.609591
 20
39.614453
 30
0.0
  0
LWPOLYLINE
  5
13e
100
AcDbEntity
  8
Layer_1
 62
7
100
AcDbPolyline
 90
10
 70
0
 10
3.466709
 20
40.891985
 30
0.0
 10
3.466709
 20
41.186800
 30
0.0
 10
2.533128
 20
41.186800
 30
0.0
 10
1.599547
 20
41.186800
 30
0.0
 10
1.599547
 20
40.891985
 30
0.0
 10
1.599547
 20
40.597170
 30
0.0
 10
2.533128
 20
40.597170
 30
0.0
 10
3.466709
 20
40.597170
 30
0.0
 10
3.466709
 20
40.891985
 30
0.0
 10
3.466709
 20
40.891985
 30
0.0
  0
SPLINE
  5
13f
100
AcDbEntity
  8
Layer_1
 62
7
100
AcDbSpline
 70
8
 71
3
 72
8
 73
4
 74
0
 40
0
 40
0
 40
0
 40
0
 40
1
 40
1
 40
1
 40
1
 10
7.233788
 20
35.882753
 30
0.0
 10
6.482272
 20
35.915548
 30
0.0
 10
6.227067
 20
35.973367
 30
0.0
 10
6.064281
 20
36.147713
 30
0.0
  0
SPLINE
  5
140
100
AcDbEntity
  8
Layer_1
 62
7
100
AcDbSpline
 70
8
 71
3
 72
8
 73
4
 74
0
 40
0
 40
0
 40
0
 40
0
 40
1
 40
1
 40
1
 40
1
 10
6.064281
 20
36.147713
 30
0.0
 10
5.901079
 20
36.322504
 30
0.0
 10
5.890742
 20
36.399184
 30
0.0
 10
5.890742
 20
37.435046
 30
0.0
  0
LWPOLYLINE
  5
141
100
AcDbEntity
  8
Layer_1
 62
7
100
AcDbPolyline
 90
10
 70
0
 10
6.054528
 20
40.891985
 30
0.0
 10
6.054528
 20
41.186800
 30
0.0
 10
5.137326
 20
41.186800
 30
0.0
 10
4.220124
 20
41.186800
 30
0.0
 10
4.220124
 20
40.891985
 30
0.0
 10
4.220124
 20
40.597170
 30
0.0
 10
5.137326
 20
40.597170
 30
0.0
 10
6.054528
 20
40.597170
 30
0.0
 10
6.054528
 20
40.891985
 30
0.0
 10
6.054528
 20
40.891985
 30
0.0
  0
SPLINE
  5
142
100
AcDbEntity
  8
Layer_1
 62
7
100
AcDbSpline
 70
8
 71
3
 72
8
 73
4
 74
0
 40
0
 40
0
 40
0
 40
0
 40
1
 40
1
 40
1
 40
1
 10
6.644158
 20
38.091243
 30
0.0
 10
6.644158
 20
37.840608
 30
0.0
 10
6.653441
 20
37.780049
 30
0.0
 10
6.691865
 20
37.780049
 30
0.0
  0
SPLINE
  5
143
100
AcDbEntity
  8
Layer_1
 62
7
100
AcDbSpline
 70
8
 71
3
 72
8
 73
4
 74
0
 40
0
 40
0
 40
0
 40
0
 40
1
 40
1
 40
1
 40
1
 10
6.691865
 20
37.780049
 30
0.0
 10
6.872390
 20
37.780049
 30
0.0
 10
8.330054
 20
38.121715
 30
0.0
 10
8.806070
 20
38.275603
 30
0.0
  0
LWPOLYLINE
  5
144
100
AcDbEntity
  8
Layer_1
 62
7
100
AcDbPolyline
 90
5
 70
0
 10
5.890742
 20
37.435046
 30
0.0
 10
5.890742
 20
38.402436
 30
0.0
 10
6.267450
 20
38.402436
 30
0.0
 10
6.644158
 20
38.402436
 30
0.0
 10
6.644158
 20
38.091243
 30
0.0
  0
SPLINE
  5
145
100
AcDbEntity
  8
Layer_1
 62
7
100
AcDbSpline
 70
8
 71
3
 72
8
 73
4
 74
0
 40
0
 40
0
 40
0
 40
0
 40
1
 40
1
 40
1
 40
1
 10
9.243774
 20
38.233715
 30
0.0
 10
9.313390
 20
38.155355
 30
0.0
 10
9.427629
 20
38.022901
 30
0.0
 10
9.497639
 20
37.939371
 30
0.0
  0
LWPOLYLINE
  5
146
100
AcDbEntity
  8
Layer_1
 62
7
100
AcDbPolyline
 90
3
 70
0
 10
8.806070
 20
38.275603
 30
0.0
 10
9.117200
 20
38.376186
 30
0.0
 10
9.243774
 20
38.233715
 30
0.0
  0
SPLINE
  5
147
100
AcDbEntity
  8
Layer_1
 62
7
100
AcDbSpline
 70
8
 71
3
 72
8
 73
4
 74
0
 40
0
 40
0
 40
0
 40
0
 40
1
 40
1
 40
1
 40
1
 10
9.174585
 20
37.637964
 30
0.0
 10
8.589354
 20
37.443641
 30
0.0
 10
7.948370
 20
37.283746
 30
0.0
 10
7.224138
 20
37.151422
 30
0.0
  0
LWPOLYLINE
  5
148
100
AcDbEntity
  8
Layer_1
 62
7
100
AcDbPolyline
 90
3
 70
0
 10
9.497639
 20
37.939371
 30
0.0
 10
9.624928
 20
37.787499
 30
0.0
 10
9.174585
 20
37.637964
 30
0.0
  0
SPLINE
  5
149
100
AcDbEntity
  8
Layer_1
 62
7
100
AcDbSpline
 70
8
 71
3
 72
8
 73
4
 74
0
 40
0
 40
0
 40
0
 40
0
 40
1
 40
1
 40
1
 40
1
 10
6.650886
 20
36.883497
 30
0.0
 10
6.663571
 20
36.671292
 30
0.0
 10
6.743757
 20
36.611125
 30
0.0
 10
7.070001
 20
36.569011
 30
0.0
  0
SPLINE
  5
14a
100
AcDbEntity
  8
Layer_1
 62
7
100
AcDbSpline
 70
8
 71
3
 72
8
 73
4
 74
0
 40
0
 40
0
 40
0
 40
0
 40
1
 40
1
 40
1
 40
1
 10
7.070001
 20
36.569011
 30
0.0
 10
7.382327
 20
36.528695
 30
0.0
 10
8.269760
 20
36.527774
 30
0.0
 10
8.675104
 20
36.567346
 30
0.0
  0
SPLINE
  5
14b
100
AcDbEntity
  8
Layer_1
 62
7
100
AcDbSpline
 70
8
 71
3
 72
8
 73
4
 74
0
 40
0
 40
0
 40
0
 40
0
 40
1
 40
1
 40
1
 40
1
 10
8.675104
 20
36.567346
 30
0.0
 10
9.162864
 20
36.614964
 30
0.0
 10
9.362270
 20
36.708600
 30
0.0
 10
9.488974
 20
36.949520
 30
0.0
  0
LWPOLYLINE
  5
14c
100
AcDbEntity
  8
Layer_1
 62
7
100
AcDbPolyline
 90
3
 70
0
 10
7.224138
 20
37.151422
 30
0.0
 10
6.641236
 20
37.044921
 30
0.0
 10
6.650886
 20
36.883497
 30
0.0
  0
SPLINE
  5
14d
100
AcDbEntity
  8
Layer_1
 62
7
100
AcDbSpline
 70
8
 71
3
 72
8
 73
4
 74
0
 40
0
 40
0
 40
0
 40
0
 40
1
 40
1
 40
1
 40
1
 10
10.112822
 20
36.560902
 30
0.0
 10
9.973837
 20
36.285574
 30
0.0
 10
9.742189
 20
36.061782
 30
0.0
 10
9.531380
 20
35.999179
 30
0.0
  0
SPLINE
  5
14e
100
AcDbEntity
  8
Layer_1
 62
7
100
AcDbSpline
 70
8
 71
3
 72
8
 73
4
 74
0
 40
0
 40
0
 40
0
 40
0
 40
1
 40
1
 40
1
 40
1
 10
9.531380
 20
35.999179
 30
0.0
 10
9.171654
 20
35.892352
 30
0.0
 10
8.173215
 20
35.841758
 30
0.0
 10
7.233787
 20
35.882754
 30
0.0
  0
LWPOLYLINE
  5
14f
100
AcDbEntity
  8
Layer_1
 62
7
100
AcDbPolyline
 90
5
 70
0
 10
9.488974
 20
36.949520
 30
0.0
 10
9.543171
 20
37.052571
 30
0.0
 10
9.877875
 20
36.905545
 30
0.0
 10
10.212579
 20
36.758518
 30
0.0
 10
10.112822
 20
36.560902
 30
0.0
  0
LWPOLYLINE
  5
150
100
AcDbEntity
  8
Layer_1
 62
7
100
AcDbPolyline
 90
2
 70
0
 10
7.233787
 20
35.882754
 30
0.0
 10
7.233788
 20
35.882753
 30
0.0
  0
SPLINE
  5
151
100
AcDbEntity
  8
Layer_1
 62
7
100
AcDbSpline
 70
8
 71
3
 72
8
 73
4
 74
0
 40
0
 40
0
 40
0
 40
0
 40
1
 40
1
 40
1
 40
1
 10
3.040865
 20
36.860640
 30
0.0
 10
3.040865
 20
36.437040
 30
0.0
 10
3.045493
 20
36.401225
 30
0.0
 10
3.098190
 20
36.417084
 30
0.0
  0
SPLINE
  5
152
100
AcDbEntity
  8
Layer_1
 62
7
100
AcDbSpline
 70
8
 71
3
 72
8
 73
4
 74
0
 40
0
 40
0
 40
0
 40
0
 40
1
 40
1
 40
1
 40
1
 10
3.098190
 20
36.417084
 30
0.0
 10
3.220773
 20
36.453978
 30
0.0
 10
5.268413
 20
36.961119
 30
0.0
 10
5.294791
 20
36.961119
 30
0.0
  0
SPLINE
  5
153
100
AcDbEntity
  8
Layer_1
 62
7
100
AcDbSpline
 70
8
 71
3
 72
8
 73
4
 74
0
 40
0
 40
0
 40
0
 40
0
 40
1
 40
1
 40
1
 40
1
 10
5.294791
 20
36.961119
 30
0.0
 10
5.321833
 20
36.961119
 30
0.0
 10
5.544885
 20
36.276279
 30
0.0
 10
5.524248
 20
36.256614
 30
0.0
  0
SPLINE
  5
154
100
AcDbEntity
  8
Layer_1
 62
7
100
AcDbSpline
 70
8
 71
3
 72
8
 73
4
 74
0
 40
0
 40
0
 40
0
 40
0
 40
1
 40
1
 40
1
 40
1
 10
5.524248
 20
36.256614
 30
0.0
 10
5.502895
 20
36.236269
 30
0.0
 10
3.916504
 20
35.911340
 30
0.0
 10
3.368437
 20
35.815056
 30
0.0
  0
SPLINE
  5
155
100
AcDbEntity
  8
Layer_1
 62
7
100
AcDbSpline
 70
8
 71
3
 72
8
 73
4
 74
0
 40
0
 40
0
 40
0
 40
0
 40
1
 40
1
 40
1
 40
1
 10
3.368437
 20
35.815056
 30
0.0
 10
3.053149
 20
35.759666
 30
0.0
 10
2.763978
 20
35.707637
 30
0.0
 10
2.725835
 20
35.699436
 30
0.0
  0
SPLINE
  5
156
100
AcDbEntity
  8
Layer_1
 62
7
100
AcDbSpline
 70
8
 71
3
 72
8
 73
4
 74
0
 40
0
 40
0
 40
0
 40
0
 40
1
 40
1
 40
1
 40
1
 10
2.725835
 20
35.699436
 30
0.0
 10
2.672412
 20
35.687949
 30
0.0
 10
2.610344
 20
35.736441
 30
0.0
 10
2.455588
 20
35.910569
 30
0.0
  0
LWPOLYLINE
  5
157
100
AcDbEntity
  8
Layer_1
 62
7
100
AcDbPolyline
 90
15
 70
0
 10
2.455588
 20
35.910569
 30
0.0
 10
2.254691
 20
36.136613
 30
0.0
 10
2.254691
 20
37.269525
 30
0.0
 10
2.254691
 20
38.402436
 30
0.0
 10
2.647778
 20
38.402436
 30
0.0
 10
3.040865
 20
38.402436
 30
0.0
 10
3.040865
 20
38.173136
 30
0.0
 10
3.040865
 20
37.943835
 30
0.0
 10
4.220124
 20
37.943835
 30
0.0
 10
5.399384
 20
37.943835
 30
0.0
 10
5.399384
 20
37.632642
 30
0.0
 10
5.399384
 20
37.321448
 30
0.0
 10
4.220124
 20
37.321448
 30
0.0
 10
3.040865
 20
37.321448
 30
0.0
 10
3.040865
 20
36.860640
 30
0.0
  0
LWPOLYLINE
  5
158
100
AcDbEntity
  8
Layer_1
 62
7
100
AcDbPolyline
 90
2
 70
0
 10
2.455588
 20
35.910569
 30
0.0
 10
2.455588
 20
35.910569
 30
0.0
  0
SPLINE
  5
159
100
AcDbEntity
  8
Layer_1
 62
7
100
AcDbSpline
 70
8
 71
3
 72
8
 73
4
 74
0
 40
0
 40
0
 40
0
 40
0
 40
1
 40
1
 40
1
 40
1
 10
6.999801
 20
43.546272
 30
0.0
 10
7.137502
 20
43.653734
 30
0.0
 10
7.264907
 20
43.741573
 30
0.0
 10
7.282924
 20
43.741468
 30
0.0
  0
SPLINE
  5
15a
100
AcDbEntity
  8
Layer_1
 62
7
100
AcDbSpline
 70
8
 71
3
 72
8
 73
4
 74
0
 40
0
 40
0
 40
0
 40
0
 40
1
 40
1
 40
1
 40
1
 10
7.282924
 20
43.741468
 30
0.0
 10
7.353400
 20
43.741044
 30
0.0
 10
7.867112
 20
43.309016
 30
0.0
 10
8.125898
 20
43.032511
 30
0.0
  0
LWPOLYLINE
  5
15b
100
AcDbEntity
  8
Layer_1
 62
7
100
AcDbPolyline
 90
3
 70
0
 10
7.212723
 20
42.881794
 30
0.0
 10
6.749436
 20
43.350885
 30
0.0
 10
6.999801
 20
43.546272
 30
0.0
  0
SPLINE
  5
15c
100
AcDbEntity
  8
Layer_1
 62
7
100
AcDbSpline
 70
8
 71
3
 72
8
 73
4
 74
0
 40
0
 40
0
 40
0
 40
0
 40
1
 40
1
 40
1
 40
1
 10
1.192635
 20
0.407447
 30
0.0
 10
1.089549
 20
0.625351
 30
0.0
 10
1.009950
 20
0.807506
 30
0.0
 10
1.015750
 20
0.812230
 30
0.0
  0
SPLINE
  5
15d
100
AcDbEntity
  8
Layer_1
 62
7
100
AcDbSpline
 70
8
 71
3
 72
8
 73
4
 74
0
 40
0
 40
0
 40
0
 40
0
 40
1
 40
1
 40
1
 40
1
 10
1.015750
 20
0.812230
 30
0.0
 10
1.021550
 20
0.816971
 30
0.0
 10
1.240037
 20
0.860431
 30
0.0
 10
1.501276
 20
0.908837
 30
0.0
  0
SPLINE
  5
15e
100
AcDbEntity
  8
Layer_1
 62
7
100
AcDbSpline
 70
8
 71
3
 72
8
 73
4
 74
0
 40
0
 40
0
 40
0
 40
0
 40
1
 40
1
 40
1
 40
1
 10
1.501276
 20
0.908837
 30
0.0
 10
4.127536
 20
1.395484
 30
0.0
 10
6.060885
 20
2.092469
 30
0.0
 10
6.955352
 20
2.875063
 30
0.0
  0
LWPOLYLINE
  5
15f
100
AcDbEntity
  8
Layer_1
 62
7
100
AcDbPolyline
 90
6
 70
0
 10
8.125898
 20
43.032511
 30
0.0
 10
8.215456
 20
42.936821
 30
0.0
 10
7.945733
 20
42.674762
 30
0.0
 10
7.676011
 20
42.412703
 30
0.0
 10
7.212723
 20
42.881794
 30
0.0
 10
7.212723
 20
42.881794
 30
0.0
  0
SPLINE
  5
160
100
AcDbEntity
  8
Layer_1
 62
7
100
AcDbSpline
 70
8
 71
3
 72
8
 73
4
 74
0
 40
0
 40
0
 40
0
 40
0
 40
1
 40
1
 40
1
 40
1
 10
5.131477
 20
2.990833
 30
0.0
 10
3.396898
 20
2.991962
 30
0.0
 10
3.170772
 20
2.986261
 30
0.0
 10
3.125097
 20
2.940586
 30
0.0
  0
SPLINE
  5
161
100
AcDbEntity
  8
Layer_1
 62
7
100
AcDbSpline
 70
8
 71
3
 72
8
 73
4
 74
0
 40
0
 40
0
 40
0
 40
0
 40
1
 40
1
 40
1
 40
1
 10
3.125097
 20
2.940586
 30
0.0
 10
3.096786
 20
2.912277
 30
0.0
 10
3.073622
 20
2.877510
 30
0.0
 10
3.073622
 20
2.863331
 30
0.0
  0
SPLINE
  5
162
100
AcDbEntity
  8
Layer_1
 62
7
100
AcDbSpline
 70
8
 71
3
 72
8
 73
4
 74
0
 40
0
 40
0
 40
0
 40
0
 40
1
 40
1
 40
1
 40
1
 10
3.073622
 20
2.863331
 30
0.0
 10
3.073622
 20
2.849163
 30
0.0
 10
3.155520
 20
2.783174
 30
0.0
 10
3.255618
 20
2.716713
 30
0.0
  0
SPLINE
  5
163
100
AcDbEntity
  8
Layer_1
 62
7
100
AcDbSpline
 70
8
 71
3
 72
8
 73
4
 74
0
 40
0
 40
0
 40
0
 40
0
 40
1
 40
1
 40
1
 40
1
 10
3.255618
 20
2.716713
 30
0.0
 10
3.355717
 20
2.650250
 30
0.0
 10
3.540754
 20
2.497071
 30
0.0
 10
3.666813
 20
2.376314
 30
0.0
  0
LWPOLYLINE
  5
164
100
AcDbEntity
  8
Layer_1
 62
7
100
AcDbPolyline
 90
3
 70
0
 10
6.955352
 20
2.875063
 30
0.0
 10
7.086381
 20
2.989704
 30
0.0
 10
5.131477
 20
2.990833
 30
0.0
  0
SPLINE
  5
165
100
AcDbEntity
  8
Layer_1
 62
7
100
AcDbSpline
 70
8
 71
3
 72
8
 73
4
 74
0
 40
0
 40
0
 40
0
 40
0
 40
1
 40
1
 40
1
 40
1
 10
3.057243
 20
1.884593
 30
0.0
 10
2.895095
 20
2.029683
 30
0.0
 10
2.677480
 20
2.213929
 30
0.0
 10
2.573655
 20
2.294029
 30
0.0
  0
LWPOLYLINE
  5
166
100
AcDbEntity
  8
Layer_1
 62
7
100
AcDbPolyline
 90
5
 70
0
 10
3.666813
 20
2.376314
 30
0.0
 10
3.896012
 20
2.156754
 30
0.0
 10
3.624035
 20
1.888772
 30
0.0
 10
3.352058
 20
1.620791
 30
0.0
 10
3.057243
 20
1.884593
 30
0.0
  0
SPLINE
  5
167
100
AcDbEntity
  8
Layer_1
 62
7
100
AcDbSpline
 70
8
 71
3
 72
8
 73
4
 74
0
 40
0
 40
0
 40
0
 40
0
 40
1
 40
1
 40
1
 40
1
 10
2.164190
 20
2.293908
 30
0.0
 10
1.947593
 20
2.150759
 30
0.0
 10
1.469231
 20
1.897016
 30
0.0
 10
1.454126
 20
1.917263
 30
0.0
  0
SPLINE
  5
168
100
AcDbEntity
  8
Layer_1
 62
7
100
AcDbSpline
 70
8
 71
3
 72
8
 73
4
 74
0
 40
0
 40
0
 40
0
 40
0
 40
1
 40
1
 40
1
 40
1
 10
1.454126
 20
1.917263
 30
0.0
 10
1.449902
 20
1.922935
 30
0.0
 10
1.335436
 20
2.075363
 30
0.0
 10
1.199756
 20
2.256017
 30
0.0
  0
LWPOLYLINE
  5
169
100
AcDbEntity
  8
Layer_1
 62
7
100
AcDbPolyline
 90
3
 70
0
 10
2.573655
 20
2.294029
 30
0.0
 10
2.384882
 20
2.439766
 30
0.0
 10
2.164190
 20
2.293908
 30
0.0
  0
SPLINE
  5
16a
100
AcDbEntity
  8
Layer_1
 62
7
100
AcDbSpline
 70
8
 71
3
 72
8
 73
4
 74
0
 40
0
 40
0
 40
0
 40
0
 40
1
 40
1
 40
1
 40
1
 10
1.217558
 20
2.730997
 30
0.0
 10
1.933164
 20
3.127409
 30
0.0
 10
2.876269
 20
3.781860
 30
0.0
 10
3.335680
 20
4.200827
 30
0.0
  0
LWPOLYLINE
  5
16b
100
AcDbEntity
  8
Layer_1
 62
7
100
AcDbPolyline
 90
3
 70
0
 10
1.199756
 20
2.256017
 30
0.0
 10
0.953064
 20
2.584478
 30
0.0
 10
1.217558
 20
2.730997
 30
0.0
  0
SPLINE
  5
16c
100
AcDbEntity
  8
Layer_1
 62
7
100
AcDbSpline
 70
8
 71
3
 72
8
 73
4
 74
0
 40
0
 40
0
 40
0
 40
0
 40
1
 40
1
 40
1
 40
1
 10
4.375721
 20
4.059180
 30
0.0
 10
4.218077
 20
3.889372
 30
0.0
 10
4.089095
 20
3.741970
 30
0.0
 10
4.089095
 20
3.731624
 30
0.0
  0
SPLINE
  5
16d
100
AcDbEntity
  8
Layer_1
 62
7
100
AcDbSpline
 70
8
 71
3
 72
8
 73
4
 74
0
 40
0
 40
0
 40
0
 40
0
 40
1
 40
1
 40
1
 40
1
 10
4.089095
 20
3.731624
 30
0.0
 10
4.089095
 20
3.721267
 30
0.0
 10
5.032503
 20
3.712800
 30
0.0
 10
6.185557
 20
3.712800
 30
0.0
  0
LWPOLYLINE
  5
16e
100
AcDbEntity
  8
Layer_1
 62
7
100
AcDbPolyline
 90
21
 70
0
 10
3.335680
 20
4.200827
 30
0.0
 10
3.515844
 20
4.365131
 30
0.0
 10
2.295638
 20
4.366542
 30
0.0
 10
1.075432
 20
4.367953
 30
0.0
 10
1.075432
 20
3.860216
 30
0.0
 10
1.075432
 20
3.352478
 30
0.0
 10
0.682345
 20
3.352478
 30
0.0
 10
0.289259
 20
3.352478
 30
0.0
 10
0.289259
 20
4.236923
 30
0.0
 10
0.289259
 20
5.121368
 30
0.0
 10
5.071812
 20
5.121368
 30
0.0
 10
9.854365
 20
5.121368
 30
0.0
 10
9.854365
 20
4.269681
 30
0.0
 10
9.854365
 20
3.417993
 30
0.0
 10
9.461279
 20
3.417993
 30
0.0
 10
9.068192
 20
3.417993
 30
0.0
 10
9.068192
 20
3.892973
 30
0.0
 10
9.068192
 20
4.367953
 30
0.0
 10
6.865269
 20
4.367936
 30
0.0
 10
4.662347
 20
4.367919
 30
0.0
 10
4.375721
 20
4.059180
 30
0.0
  0
SPLINE
  5
16f
100
AcDbEntity
  8
Layer_1
 62
7
100
AcDbSpline
 70
8
 71
3
 72
8
 73
4
 74
0
 40
0
 40
0
 40
0
 40
0
 40
1
 40
1
 40
1
 40
1
 10
7.946316
 20
2.614086
 30
0.0
 10
6.874587
 20
1.564406
 30
0.0
 10
4.970957
 20
0.769346
 30
0.0
 10
2.034701
 20
0.145065
 30
0.0
  0
SPLINE
  5
170
100
AcDbEntity
  8
Layer_1
 62
7
100
AcDbSpline
 70
8
 71
3
 72
8
 73
4
 74
0
 40
0
 40
0
 40
0
 40
0
 40
1
 40
1
 40
1
 40
1
 10
2.034701
 20
0.145065
 30
0.0
 10
1.688500
 20
0.071459
 30
0.0
 10
1.399579
 20
0.011235
 30
0.0
 10
1.392655
 20
0.011235
 30
0.0
  0
SPLINE
  5
171
100
AcDbEntity
  8
Layer_1
 62
7
100
AcDbSpline
 70
8
 71
3
 72
8
 73
4
 74
0
 40
0
 40
0
 40
0
 40
0
 40
1
 40
1
 40
1
 40
1
 10
1.392655
 20
0.011235
 30
0.0
 10
1.385730
 20
0.011235
 30
0.0
 10
1.295721
 20
0.189521
 30
0.0
 10
1.192635
 20
0.407424
 30
0.0
  0
LWPOLYLINE
  5
172
100
AcDbEntity
  8
Layer_1
 62
7
100
AcDbPolyline
 90
5
 70
0
 10
6.185557
 20
3.712800
 30
0.0
 10
8.282019
 20
3.712800
 30
0.0
 10
8.282085
 20
3.327902
 30
0.0
 10
8.282150
 20
2.943005
 30
0.0
 10
7.946316
 20
2.614086
 30
0.0
  0
LWPOLYLINE
  5
173
100
AcDbEntity
  8
Layer_1
 62
7
100
AcDbPolyline
 90
3
 70
0
 10
1.192635
 20
0.407424
 30
0.0
 10
1.192635
 20
0.407424
 30
0.0
 10
1.192635
 20
0.407447
 30
0.0
  0
LWPOLYLINE
  5
174
100
AcDbEntity
  8
Layer_1
 62
7
100
AcDbPolyline
 90
42
 70
0
 10
0.911646
 20
6.923030
 30
0.0
 10
0.911646
 20
8.102290
 30
0.0
 10
1.894362
 20
8.102290
 30
0.0
 10
2.877079
 20
8.102290
 30
0.0
 10
2.877079
 20
8.413482
 30
0.0
 10
2.877079
 20
8.724677
 30
0.0
 10
1.468518
 20
8.724677
 30
0.0
 10
0.059958
 20
8.724677
 30
0.0
 10
0.059958
 20
9.117762
 30
0.0
 10
0.059958
 20
9.510849
 30
0.0
 10
1.468518
 20
9.510849
 30
0.0
 10
2.877079
 20
9.510849
 30
0.0
 10
2.877079
 20
9.838422
 30
0.0
 10
2.877079
 20
10.165994
 30
0.0
 10
3.286544
 20
10.165994
 30
0.0
 10
3.696009
 20
10.165994
 30
0.0
 10
3.696009
 20
9.838422
 30
0.0
 10
3.696009
 20
9.510849
 30
0.0
 10
5.071812
 20
9.510849
 30
0.0
 10
6.447615
 20
9.510849
 30
0.0
 10
6.447615
 20
9.838422
 30
0.0
 10
6.447615
 20
10.165994
 30
0.0
 10
6.824323
 20
10.165994
 30
0.0
 10
7.201031
 20
10.165994
 30
0.0
 10
7.201031
 20
9.838422
 30
0.0
 10
7.201031
 20
9.510849
 30
0.0
 10
8.642348
 20
9.510849
 30
0.0
 10
10.083666
 20
9.510849
 30
0.0
 10
10.083666
 20
9.117762
 30
0.0
 10
10.083666
 20
8.724677
 30
0.0
 10
8.642348
 20
8.724677
 30
0.0
 10
7.201031
 20
8.724677
 30
0.0
 10
7.201031
 20
8.413482
 30
0.0
 10
7.201031
 20
8.102290
 30
0.0
 10
8.150990
 20
8.102290
 30
0.0
 10
9.100949
 20
8.102290
 30
0.0
 10
9.100949
 20
6.923030
 30
0.0
 10
9.100949
 20
5.743770
 30
0.0
 10
5.006298
 20
5.743770
 30
0.0
 10
0.911646
 20
5.743770
 30
0.0
 10
0.911646
 20
6.923030
 30
0.0
 10
0.911646
 20
6.923030
 30
0.0
  0
LWPOLYLINE
  5
175
100
AcDbEntity
  8
Layer_1
 62
7
100
AcDbPolyline
 90
10
 70
0
 10
3.368437
 20
6.906661
 30
0.0
 10
3.368437
 20
7.316126
 30
0.0
 10
2.565885
 20
7.316126
 30
0.0
 10
1.763333
 20
7.316126
 30
0.0
 10
1.763333
 20
6.906661
 30
0.0
 10
1.763333
 20
6.497196
 30
0.0
 10
2.565885
 20
6.497196
 30
0.0
 10
3.368437
 20
6.497196
 30
0.0
 10
3.368437
 20
6.906661
 30
0.0
 10
3.368437
 20
6.906661
 30
0.0
  0
LWPOLYLINE
  5
176
100
AcDbEntity
  8
Layer_1
 62
7
100
AcDbPolyline
 90
10
 70
0
 10
5.890742
 20
6.906661
 30
0.0
 10
5.890742
 20
7.316126
 30
0.0
 10
5.039055
 20
7.316126
 30
0.0
 10
4.187367
 20
7.316126
 30
0.0
 10
4.187367
 20
6.906661
 30
0.0
 10
4.187367
 20
6.497196
 30
0.0
 10
5.039055
 20
6.497196
 30
0.0
 10
5.890742
 20
6.497196
 30
0.0
 10
5.890742
 20
6.906661
 30
0.0
 10
5.890742
 20
6.906661
 30
0.0
  0
LWPOLYLINE
  5
177
100
AcDbEntity
  8
Layer_1
 62
7
100
AcDbPolyline
 90
10
 70
0
 10
8.347533
 20
6.906661
 30
0.0
 10
8.347533
 20
7.316126
 30
0.0
 10
7.512224
 20
7.316126
 30
0.0
 10
6.676915
 20
7.316126
 30
0.0
 10
6.676915
 20
6.906661
 30
0.0
 10
6.676915
 20
6.497196
 30
0.0
 10
7.512224
 20
6.497196
 30
0.0
 10
8.347533
 20
6.497196
 30
0.0
 10
8.347533
 20
6.906661
 30
0.0
 10
8.347533
 20
6.906661
 30
0.0
  0
SPLINE
  5
178
100
AcDbEntity
  8
Layer_1
 62
7
100
AcDbSpline
 70
8
 71
3
 72
8
 73
4
 74
0
 40
0
 40
0
 40
0
 40
0
 40
1
 40
1
 40
1
 40
1
 10
7.492572
 20
12.611789
 30
0.0
 10
7.395282
 20
12.694584
 30
0.0
 10
7.268227
 20
12.803787
 30
0.0
 10
7.210226
 20
12.854460
 30
0.0
  0
LWPOLYLINE
  5
179
100
AcDbEntity
  8
Layer_1
 62
7
100
AcDbPolyline
 90
10
 70
0
 10
6.447615
 20
8.413490
 30
0.0
 10
6.447615
 20
8.724686
 30
0.0
 10
5.071812
 20
8.724686
 30
0.0
 10
3.696009
 20
8.724686
 30
0.0
 10
3.696009
 20
8.413490
 30
0.0
 10
3.696009
 20
8.102298
 30
0.0
 10
5.071812
 20
8.102298
 30
0.0
 10
6.447615
 20
8.102298
 30
0.0
 10
6.447615
 20
8.413490
 30
0.0
 10
6.447615
 20
8.413490
 30
0.0
  0
SPLINE
  5
17a
100
AcDbEntity
  8
Layer_1
 62
7
100
AcDbSpline
 70
8
 71
3
 72
8
 73
4
 74
0
 40
0
 40
0
 40
0
 40
0
 40
1
 40
1
 40
1
 40
1
 10
7.505439
 20
13.349749
 30
0.0
 10
7.725806
 20
13.571488
 30
0.0
 10
7.963653
 20
13.837666
 30
0.0
 10
8.033987
 20
13.941256
 30
0.0
  0
LWPOLYLINE
  5
17b
100
AcDbEntity
  8
Layer_1
 62
7
100
AcDbPolyline
 90
3
 70
0
 10
7.210226
 20
12.854460
 30
0.0
 10
7.104772
 20
12.946589
 30
0.0
 10
7.505439
 20
13.349749
 30
0.0
  0
SPLINE
  5
17c
100
AcDbEntity
  8
Layer_1
 62
7
100
AcDbSpline
 70
8
 71
3
 72
8
 73
4
 74
0
 40
0
 40
0
 40
0
 40
0
 40
1
 40
1
 40
1
 40
1
 10
8.508569
 20
13.945342
 30
0.0
 10
8.699255
 20
13.843999
 30
0.0
 10
8.860719
 20
13.756251
 30
0.0
 10
8.867380
 20
13.750346
 30
0.0
  0
SPLINE
  5
17d
100
AcDbEntity
  8
Layer_1
 62
7
100
AcDbSpline
 70
8
 71
3
 72
8
 73
4
 74
0
 40
0
 40
0
 40
0
 40
0
 40
1
 40
1
 40
1
 40
1
 10
8.867380
 20
13.750346
 30
0.0
 10
8.885524
 20
13.734260
 30
0.0
 10
8.658347
 20
13.426533
 30
0.0
 10
8.409801
 20
13.130522
 30
0.0
  0
SPLINE
  5
17e
100
AcDbEntity
  8
Layer_1
 62
7
100
AcDbSpline
 70
8
 71
3
 72
8
 73
4
 74
0
 40
0
 40
0
 40
0
 40
0
 40
1
 40
1
 40
1
 40
1
 10
8.409801
 20
13.130522
 30
0.0
 10
8.221332
 20
12.906062
 30
0.0
 10
7.849203
 20
12.561999
 30
0.0
 10
7.711288
 20
12.484690
 30
0.0
  0
SPLINE
  5
17f
100
AcDbEntity
  8
Layer_1
 62
7
100
AcDbSpline
 70
8
 71
3
 72
8
 73
4
 74
0
 40
0
 40
0
 40
0
 40
0
 40
1
 40
1
 40
1
 40
1
 10
7.711288
 20
12.484690
 30
0.0
 10
7.685767
 20
12.470381
 30
0.0
 10
7.600514
 20
12.519925
 30
0.0
 10
7.492572
 20
12.611789
 30
0.0
  0
LWPOLYLINE
  5
180
100
AcDbEntity
  8
Layer_1
 62
7
100
AcDbPolyline
 90
3
 70
0
 10
8.033987
 20
13.941256
 30
0.0
 10
8.161868
 20
14.129599
 30
0.0
 10
8.508569
 20
13.945342
 30
0.0
  0
LWPOLYLINE
  5
181
100
AcDbEntity
  8
Layer_1
 62
7
100
AcDbPolyline
 90
2
 70
0
 10
7.492572
 20
12.611789
 30
0.0
 10
7.492572
 20
12.611789
 30
0.0
  0
LWPOLYLINE
  5
182
100
AcDbEntity
  8
Layer_1
 62
7
100
AcDbPolyline
 90
26
 70
0
 10
0.190987
 20
11.918504
 30
0.0
 10
0.190987
 20
12.229699
 30
0.0
 10
1.845226
 20
12.229699
 30
0.0
 10
3.499466
 20
12.229699
 30
0.0
 10
3.499466
 20
13.294309
 30
0.0
 10
3.499466
 20
14.358916
 30
0.0
 10
2.107284
 20
14.358916
 30
0.0
 10
0.715102
 20
14.358916
 30
0.0
 10
0.715102
 20
14.686489
 30
0.0
 10
0.715102
 20
15.014061
 30
0.0
 10
5.104569
 20
15.014061
 30
0.0
 10
9.494036
 20
15.014061
 30
0.0
 10
9.494036
 20
14.686489
 30
0.0
 10
9.494036
 20
14.358916
 30
0.0
 10
8.019961
 20
14.358916
 30
0.0
 10
6.545886
 20
14.358916
 30
0.0
 10
6.545886
 20
13.294309
 30
0.0
 10
6.545886
 20
12.229699
 30
0.0
 10
8.249262
 20
12.229699
 30
0.0
 10
9.952637
 20
12.229699
 30
0.0
 10
9.952637
 20
11.918504
 30
0.0
 10
9.952637
 20
11.607312
 30
0.0
 10
5.071812
 20
11.607312
 30
0.0
 10
0.190987
 20
11.607312
 30
0.0
 10
0.190987
 20
11.918504
 30
0.0
 10
0.190987
 20
11.918504
 30
0.0
  0
SPLINE
  5
183
100
AcDbEntity
  8
Layer_1
 62
7
100
AcDbSpline
 70
8
 71
3
 72
8
 73
4
 74
0
 40
0
 40
0
 40
0
 40
0
 40
1
 40
1
 40
1
 40
1
 10
2.108421
 20
12.617955
 30
0.0
 10
2.015369
 20
12.813247
 30
0.0
 10
1.704289
 20
13.277729
 30
0.0
 10
1.500466
 20
13.525706
 30
0.0
  0
LWPOLYLINE
  5
184
100
AcDbEntity
  8
Layer_1
 62
7
100
AcDbPolyline
 90
10
 70
0
 10
5.759714
 20
13.294309
 30
0.0
 10
5.759714
 20
14.358916
 30
0.0
 10
5.039055
 20
14.358916
 30
0.0
 10
4.318396
 20
14.358916
 30
0.0
 10
4.318396
 20
13.294309
 30
0.0
 10
4.318396
 20
12.229699
 30
0.0
 10
5.039055
 20
12.229699
 30
0.0
 10
5.759714
 20
12.229699
 30
0.0
 10
5.759714
 20
13.294309
 30
0.0
 10
5.759714
 20
13.294309
 30
0.0
  0
SPLINE
  5
185
100
AcDbEntity
  8
Layer_1
 62
7
100
AcDbSpline
 70
8
 71
3
 72
8
 73
4
 74
0
 40
0
 40
0
 40
0
 40
0
 40
1
 40
1
 40
1
 40
1
 10
2.161557
 20
13.872117
 30
0.0
 10
2.469293
 20
13.505871
 30
0.0
 10
2.907219
 20
12.838549
 30
0.0
 10
2.866532
 20
12.797863
 30
0.0
  0
SPLINE
  5
186
100
AcDbEntity
  8
Layer_1
 62
7
100
AcDbSpline
 70
8
 71
3
 72
8
 73
4
 74
0
 40
0
 40
0
 40
0
 40
0
 40
1
 40
1
 40
1
 40
1
 10
2.866532
 20
12.797863
 30
0.0
 10
2.857515
 20
12.788832
 30
0.0
 10
2.696058
 20
12.717791
 30
0.0
 10
2.507742
 20
12.639971
 30
0.0
  0
LWPOLYLINE
  5
187
100
AcDbEntity
  8
Layer_1
 62
7
100
AcDbPolyline
 90
5
 70
0
 10
1.500466
 20
13.525706
 30
0.0
 10
1.310271
 20
13.757106
 30
0.0
 10
1.644546
 20
13.923351
 30
0.0
 10
1.978821
 20
14.089597
 30
0.0
 10
2.161557
 20
13.872117
 30
0.0
  0
LWPOLYLINE
  5
188
100
AcDbEntity
  8
Layer_1
 62
7
100
AcDbPolyline
 90
4
 70
0
 10
2.507742
 20
12.639971
 30
0.0
 10
2.165350
 20
12.498474
 30
0.0
 10
2.108421
 20
12.617955
 30
0.0
 10
2.108421
 20
12.617955
 30
0.0
  0
LWPOLYLINE
  5
189
100
AcDbEntity
  8
Layer_1
 62
7
100
AcDbPolyline
 90
10
 70
0
 10
1.599547
 20
16.029536
 30
0.0
 10
1.599547
 20
16.357109
 30
0.0
 10
5.071812
 20
16.357109
 30
0.0
 10
8.544077
 20
16.357109
 30
0.0
 10
8.544077
 20
16.029536
 30
0.0
 10
8.544077
 20
15.701964
 30
0.0
 10
5.071812
 20
15.701964
 30
0.0
 10
1.599547
 20
15.701964
 30
0.0
 10
1.599547
 20
16.029536
 30
0.0
 10
1.599547
 20
16.029536
 30
0.0
  0
LWPOLYLINE
  5
18a
100
AcDbEntity
  8
Layer_1
 62
7
100
AcDbPolyline
 90
42
 70
0
 10
4.645968
 20
18.027726
 30
0.0
 10
4.645968
 20
19.206986
 30
0.0
 10
2.844321
 20
19.206986
 30
0.0
 10
1.042675
 20
19.206986
 30
0.0
 10
1.042675
 20
18.502706
 30
0.0
 10
1.042675
 20
17.798426
 30
0.0
 10
0.616831
 20
17.798426
 30
0.0
 10
0.190987
 20
17.798426
 30
0.0
 10
0.190987
 20
18.863033
 30
0.0
 10
0.190987
 20
19.927643
 30
0.0
 10
2.418478
 20
19.927643
 30
0.0
 10
4.645968
 20
19.927643
 30
0.0
 10
4.645968
 20
20.238839
 30
0.0
 10
4.645968
 20
20.550031
 30
0.0
 10
2.664157
 20
20.550031
 30
0.0
 10
0.682345
 20
20.550031
 30
0.0
 10
0.682345
 20
20.910361
 30
0.0
 10
0.682345
 20
21.270691
 30
0.0
 10
5.071812
 20
21.270691
 30
0.0
 10
9.461279
 20
21.270691
 30
0.0
 10
9.461279
 20
20.910361
 30
0.0
 10
9.461279
 20
20.550031
 30
0.0
 10
7.479467
 20
20.550031
 30
0.0
 10
5.497656
 20
20.550031
 30
0.0
 10
5.497656
 20
20.238839
 30
0.0
 10
5.497656
 20
19.927643
 30
0.0
 10
7.725146
 20
19.927643
 30
0.0
 10
9.952637
 20
19.927643
 30
0.0
 10
9.952637
 20
18.830279
 30
0.0
 10
9.952637
 20
17.732911
 30
0.0
 10
9.526793
 20
17.732911
 30
0.0
 10
9.100949
 20
17.732911
 30
0.0
 10
9.100949
 20
18.469949
 30
0.0
 10
9.100949
 20
19.206986
 30
0.0
 10
7.299303
 20
19.206986
 30
0.0
 10
5.497656
 20
19.206986
 30
0.0
 10
5.497656
 20
18.027726
 30
0.0
 10
5.497656
 20
16.848466
 30
0.0
 10
5.071812
 20
16.848466
 30
0.0
 10
4.645968
 20
16.848466
 30
0.0
 10
4.645968
 20
18.027726
 30
0.0
 10
4.645968
 20
18.027726
 30
0.0
  0
LWPOLYLINE
  5
18b
100
AcDbEntity
  8
Layer_1
 62
7
100
AcDbPolyline
 90
10
 70
0
 10
1.501276
 20
18.388056
 30
0.0
 10
1.501276
 20
18.715626
 30
0.0
 10
2.844321
 20
18.715626
 30
0.0
 10
4.187367
 20
18.715626
 30
0.0
 10
4.187367
 20
18.388056
 30
0.0
 10
4.187367
 20
18.060484
 30
0.0
 10
2.844321
 20
18.060484
 30
0.0
 10
1.501276
 20
18.060484
 30
0.0
 10
1.501276
 20
18.388056
 30
0.0
 10
1.501276
 20
18.388056
 30
0.0
  0
LWPOLYLINE
  5
18c
100
AcDbEntity
  8
Layer_1
 62
7
100
AcDbPolyline
 90
10
 70
0
 10
1.468518
 20
17.257931
 30
0.0
 10
1.468518
 20
17.569124
 30
0.0
 10
2.795186
 20
17.569124
 30
0.0
 10
4.121853
 20
17.569124
 30
0.0
 10
4.121853
 20
17.257931
 30
0.0
 10
4.121853
 20
16.946739
 30
0.0
 10
2.795186
 20
16.946739
 30
0.0
 10
1.468518
 20
16.946739
 30
0.0
 10
1.468518
 20
17.257931
 30
0.0
 10
1.468518
 20
17.257931
 30
0.0
  0
LWPOLYLINE
  5
18d
100
AcDbEntity
  8
Layer_1
 62
7
100
AcDbPolyline
 90
10
 70
0
 10
5.923500
 20
17.225174
 30
0.0
 10
5.923500
 20
17.536366
 30
0.0
 10
7.282924
 20
17.536366
 30
0.0
 10
8.642348
 20
17.536366
 30
0.0
 10
8.642348
 20
17.225174
 30
0.0
 10
8.642348
 20
16.913981
 30
0.0
 10
7.282924
 20
16.913981
 30
0.0
 10
5.923500
 20
16.913981
 30
0.0
 10
5.923500
 20
17.225174
 30
0.0
 10
5.923500
 20
17.225174
 30
0.0
  0
LWPOLYLINE
  5
18e
100
AcDbEntity
  8
Layer_1
 62
7
100
AcDbPolyline
 90
10
 70
0
 10
5.923500
 20
18.371676
 30
0.0
 10
5.923500
 20
18.682871
 30
0.0
 10
7.299303
 20
18.682871
 30
0.0
 10
8.675106
 20
18.682871
 30
0.0
 10
8.675106
 20
18.371676
 30
0.0
 10
8.675106
 20
18.060484
 30
0.0
 10
7.299303
 20
18.060484
 30
0.0
 10
5.923500
 20
18.060484
 30
0.0
 10
5.923500
 20
18.371676
 30
0.0
 10
5.923500
 20
18.371676
 30
0.0
  0
ENDSEC
  0
SECTION
  2
OBJECTS
  0
DICTIONARY
  5
C
330
0
100
AcDbDictionary
  3
ACAD_GROUP
350
D
  3
ACAD_MLINESTYLE
350
17
  0
DICTIONARY
  5
D
330
C
100
AcDbDictionary
  0
DICTIONARY
  5
1A
330
C
100
AcDbDictionary
  0
DICTIONARY
  5
17
330
C
100
AcDbDictionary
  3
STANDARD
350
18
  0
DICTIONARY
  5
19
330
C
100
AcDbDictionary
  0
ENDSEC
  0
EOF
