  0
SECTION
  2
HEADER
  9
$ACADVER
  1
AC1014
  9
$HANDSEED
  5
FFFF
  9
$MEASUREMENT
 70
     1
  0
ENDSEC
  0
SECTION
  2
TABLES
  0
TABLE
  2
VPORT
  5
8
330
0
100
AcDbSymbolTable
 70
     4
  0
VPORT
  5
2E
330
8
100
AcDbSymbolTableRecord
100
AcDbViewportTableRecord
  2
*ACTIVE
 70
     0
 10
0.0
 20
0.0
 11
1.0
 21
1.0
 12
210.0
 22
148.5
 13
0.0
 23
0.0
 14
10.0
 24
10.0
 15
10.0
 25
10.0
 16
0.0
 26
0.0
 36
1.0
 17
0.0
 27
0.0
 37
0.0
 40
341.0
 41
1.24
 42
50.0
 43
0.0
 44
0.0
 50
0.0
 51
0.0
 71
     0
 72
   100
 73
     1
 74
     3
 75
     0
 76
     0
 77
     0
 78
     0
  0
ENDTAB
  0
TABLE
  2
LTYPE
  5
5
330
0
100
AcDbSymbolTable
 70
     1
  0
LTYPE
  5
14
330
5
100
AcDbSymbolTableRecord
100
AcDbLinetypeTableRecord
  2
BYBLOCK
 70
     0
  3

 72
    65
 73
     0
 40
0.0
  0
LTYPE
  5
15
330
5
100
AcDbSymbolTableRecord
100
AcDbLinetypeTableRecord
  2
BYLAYER
 70
     0
  3

 72
    65
 73
     0
 40
0.0
  0
LTYPE
  5
16
330
5
100
AcDbSymbolTableRecord
100
AcDbLinetypeTableRecord
  2
CONTINUOUS
 70
     0
  3
Solid line
 72
    65
 73
     0
 40
0.0
  0
ENDTAB
  0
TABLE
  2
LAYER
  5
2
100
AcDbSymbolTable
 70
2
  0
LAYER
  5
50
100
AcDbSymbolTableRecord
100
AcDbLayerTableRecord
  2
0
 70
0
  6
CONTINUOUS
  0
LAYER
  5
51
100
AcDbSymbolTableRecord
100
AcDbLayerTableRecord
  2
Layer_1
 70
0
  6
CONTINUOUS
  0
ENDTAB
  0
TABLE
  2
STYLE
  5
3
330
0
100
AcDbSymbolTable
 70
     1
  0
STYLE
  5
11
330
3
100
AcDbSymbolTableRecord
100
AcDbTextStyleTableRecord
  2
STANDARD
 70
     0
 40
0.0
 41
1.0
 50
0.0
 71
     0
 42
2.5
  3
txt
  4

  0
ENDTAB
  0
TABLE
  2
VIEW
  5
6
330
0
100
AcDbSymbolTable
 70
     0
  0
ENDTAB
  0
TABLE
  2
UCS
  5
7
330
0
100
AcDbSymbolTable
 70
     0
  0
ENDTAB
  0
TABLE
  2
APPID
  5
9
330
0
100
AcDbSymbolTable
 70
     2
  0
APPID
  5
12
330
9
100
AcDbSymbolTableRecord
100
AcDbRegAppTableRecord
  2
ACAD
 70
     0
  0
ENDTAB
  0
TABLE
  2
DIMSTYLE
  5
A
330
0
100
AcDbSymbolTable
 70
     1
  0
DIMSTYLE
105
27
330
A
100
AcDbSymbolTableRecord
100
AcDbDimStyleTableRecord
  2
ISO-25
 70
     0
  3

  4

  5

  6

  7

 40
1.0
 41
2.5
 42
0.625
 43
3.75
 44
1.25
 45
0.0
 46
0.0
 47
0.0
 48
0.0
140
2.5
141
2.5
142
0.0
143
0.03937007874016
144
1.0
145
0.0
146
1.0
147
0.625
 71
     0
 72
     0
 73
     0
 74
     0
 75
     0
 76
     0
 77
     1
 78
     8
170
     0
171
     3
172
     1
173
     0
174
     0
175
     0
176
     0
177
     0
178
     0
270
     2
271
     2
272
     2
273
     2
274
     3
340
11
275
     0
280
     0
281
     0
282
     0
283
     0
284
     8
285
     0
286
     0
287
     3
288
     0
  0
ENDTAB
  0
TABLE
  2
BLOCK_RECORD
  5
1
330
0
100
AcDbSymbolTable
 70
     1
  0
BLOCK_RECORD
  5
1F
330
1
100
AcDbSymbolTableRecord
100
AcDbBlockTableRecord
  2
*MODEL_SPACE
  0
BLOCK_RECORD
  5
1B
330
1
100
AcDbSymbolTableRecord
100
AcDbBlockTableRecord
  2
*PAPER_SPACE
  0
ENDTAB
  0
ENDSEC
  0
SECTION
  2
BLOCKS
  0
BLOCK
  5
20
330
1F
100
AcDbEntity
  8
0
100
AcDbBlockBegin
  2
*MODEL_SPACE
 70
     0
 10
0.0
 20
0.0
 30
0.0
  3
*MODEL_SPACE
  1

  0
ENDBLK
  5
21
330
1F
100
AcDbEntity
  8
0
100
AcDbBlockEnd
  0
BLOCK
  5
1C
330
1B
100
AcDbEntity
 67
     1
  8
0
100
AcDbBlockBegin
  2
*PAPER_SPACE
  1

  0
ENDBLK
  5
1D
330
1B
100
AcDbEntity
 67
     1
  8
0
100
AcDbBlockEnd
  0
ENDSEC
  0
SECTION
  2
ENTITIES
  0
SPLINE
  5
100
100
AcDbEntity
  8
Layer_1
 62
7
100
AcDbSpline
 70
8
 71
3
 72
8
 73
4
 74
0
 40
0
 40
0
 40
0
 40
0
 40
1
 40
1
 40
1
 40
1
 10
0.314761
 20
48.035641
 30
0.0
 10
0.573945
 20
48.169670
 30
0.0
 10
1.248634
 20
48.711078
 30
0.0
 10
1.603861
 20
49.070085
 30
0.0
  0
SPLINE
  5
101
100
AcDbEntity
  8
Layer_1
 62
7
100
AcDbSpline
 70
8
 71
3
 72
8
 73
4
 74
0
 40
0
 40
0
 40
0
 40
0
 40
1
 40
1
 40
1
 40
1
 10
1.603861
 20
49.070085
 30
0.0
 10
2.436016
 20
49.911097
 30
0.0
 10
2.940790
 20
50.870492
 30
0.0
 10
3.210714
 20
52.124140
 30
0.0
  0
SPLINE
  5
102
100
AcDbEntity
  8
Layer_1
 62
7
100
AcDbSpline
 70
8
 71
3
 72
8
 73
4
 74
0
 40
0
 40
0
 40
0
 40
0
 40
1
 40
1
 40
1
 40
1
 10
3.210714
 20
52.124140
 30
0.0
 10
3.262424
 20
52.364307
 30
0.0
 10
3.323580
 20
52.716028
 30
0.0
 10
3.346615
 20
52.905743
 30
0.0
  0
SPLINE
  5
103
100
AcDbEntity
  8
Layer_1
 62
7
100
AcDbSpline
 70
8
 71
3
 72
8
 73
4
 74
0
 40
0
 40
0
 40
0
 40
0
 40
1
 40
1
 40
1
 40
1
 10
3.346615
 20
52.905743
 30
0.0
 10
3.369650
 20
53.095457
 30
0.0
 10
3.397347
 20
53.306730
 30
0.0
 10
3.408163
 20
53.375238
 30
0.0
  0
LWPOLYLINE
  5
104
100
AcDbEntity
  8
Layer_1
 62
7
100
AcDbPolyline
 90
3
 70
0
 10
0.558927
 20
47.578159
 30
0.0
 10
0.203865
 20
47.978294
 30
0.0
 10
0.314761
 20
48.035641
 30
0.0
  0
SPLINE
  5
105
100
AcDbEntity
  8
Layer_1
 62
7
100
AcDbSpline
 70
8
 71
3
 72
8
 73
4
 74
0
 40
0
 40
0
 40
0
 40
0
 40
1
 40
1
 40
1
 40
1
 10
3.513838
 20
54.806978
 30
0.0
 10
3.527607
 20
54.983905
 30
0.0
 10
3.538978
 20
55.443417
 30
0.0
 10
3.539105
 20
55.828116
 30
0.0
  0
LWPOLYLINE
  5
106
100
AcDbEntity
  8
Layer_1
 62
7
100
AcDbPolyline
 90
9
 70
0
 10
3.408163
 20
53.375238
 30
0.0
 10
3.427828
 20
53.499799
 30
0.0
 10
1.988859
 20
53.499799
 30
0.0
 10
0.549890
 20
53.499799
 30
0.0
 10
0.549890
 20
54.012208
 30
0.0
 10
0.549890
 20
54.524617
 30
0.0
 10
2.019345
 20
54.504955
 30
0.0
 10
3.488799
 20
54.485293
 30
0.0
 10
3.513838
 20
54.806978
 30
0.0
  0
SPLINE
  5
107
100
AcDbEntity
  8
Layer_1
 62
7
100
AcDbSpline
 70
8
 71
3
 72
8
 73
4
 74
0
 40
0
 40
0
 40
0
 40
0
 40
1
 40
1
 40
1
 40
1
 10
8.657081
 20
54.084275
 30
0.0
 10
8.644937
 20
53.857671
 30
0.0
 10
8.609052
 20
52.861669
 30
0.0
 10
8.577337
 20
51.870937
 30
0.0
  0
SPLINE
  5
108
100
AcDbEntity
  8
Layer_1
 62
7
100
AcDbSpline
 70
8
 71
3
 72
8
 73
4
 74
0
 40
0
 40
0
 40
0
 40
0
 40
1
 40
1
 40
1
 40
1
 10
8.577337
 20
51.870937
 30
0.0
 10
8.545621
 20
50.880205
 30
0.0
 10
8.501820
 20
49.897138
 30
0.0
 10
8.480000
 20
49.686344
 30
0.0
  0
SPLINE
  5
109
100
AcDbEntity
  8
Layer_1
 62
7
100
AcDbSpline
 70
8
 71
3
 72
8
 73
4
 74
0
 40
0
 40
0
 40
0
 40
0
 40
1
 40
1
 40
1
 40
1
 10
8.480000
 20
49.686344
 30
0.0
 10
8.333260
 20
48.268736
 30
0.0
 10
7.887869
 20
47.528890
 30
0.0
 10
7.046181
 20
47.304604
 30
0.0
  0
SPLINE
  5
10a
100
AcDbEntity
  8
Layer_1
 62
7
100
AcDbSpline
 70
8
 71
3
 72
8
 73
4
 74
0
 40
0
 40
0
 40
0
 40
0
 40
1
 40
1
 40
1
 40
1
 10
7.046181
 20
47.304604
 30
0.0
 10
6.940784
 20
47.276520
 30
0.0
 10
6.664836
 20
47.253520
 30
0.0
 10
6.432962
 20
47.253495
 30
0.0
  0
SPLINE
  5
10b
100
AcDbEntity
  8
Layer_1
 62
7
100
AcDbSpline
 70
8
 71
3
 72
8
 73
4
 74
0
 40
0
 40
0
 40
0
 40
0
 40
1
 40
1
 40
1
 40
1
 10
6.432962
 20
47.253495
 30
0.0
 10
6.026966
 20
47.253457
 30
0.0
 10
4.965762
 20
47.346475
 30
0.0
 10
4.926707
 20
47.385530
 30
0.0
  0
SPLINE
  5
10c
100
AcDbEntity
  8
Layer_1
 62
7
100
AcDbSpline
 70
8
 71
3
 72
8
 73
4
 74
0
 40
0
 40
0
 40
0
 40
0
 40
1
 40
1
 40
1
 40
1
 10
4.926707
 20
47.385530
 30
0.0
 10
4.916262
 20
47.395975
 30
0.0
 10
4.870239
 20
47.646987
 30
0.0
 10
4.824435
 20
47.943335
 30
0.0
  0
LWPOLYLINE
  5
10d
100
AcDbEntity
  8
Layer_1
 62
7
100
AcDbPolyline
 90
9
 70
0
 10
3.539105
 20
55.828116
 30
0.0
 10
3.539335
 20
56.527569
 30
0.0
 10
4.062039
 20
56.527569
 30
0.0
 10
4.584743
 20
56.527569
 30
0.0
 10
4.556769
 20
55.511925
 30
0.0
 10
4.528795
 20
54.496281
 30
0.0
 10
6.603979
 20
54.496281
 30
0.0
 10
8.679163
 20
54.496281
 30
0.0
 10
8.657081
 20
54.084275
 30
0.0
  0
SPLINE
  5
10e
100
AcDbEntity
  8
Layer_1
 62
7
100
AcDbSpline
 70
8
 71
3
 72
8
 73
4
 74
0
 40
0
 40
0
 40
0
 40
0
 40
1
 40
1
 40
1
 40
1
 10
4.839697
 20
48.461922
 30
0.0
 10
5.119110
 20
48.404567
 30
0.0
 10
5.632375
 20
48.326703
 30
0.0
 10
5.973048
 20
48.289988
 30
0.0
  0
SPLINE
  5
10f
100
AcDbEntity
  8
Layer_1
 62
7
100
AcDbSpline
 70
8
 71
3
 72
8
 73
4
 74
0
 40
0
 40
0
 40
0
 40
0
 40
1
 40
1
 40
1
 40
1
 10
5.973048
 20
48.289988
 30
0.0
 10
6.981521
 20
48.181304
 30
0.0
 10
7.286147
 20
48.446158
 30
0.0
 10
7.468890
 20
49.590529
 30
0.0
  0
SPLINE
  5
110
100
AcDbEntity
  8
Layer_1
 62
7
100
AcDbSpline
 70
8
 71
3
 72
8
 73
4
 74
0
 40
0
 40
0
 40
0
 40
0
 40
1
 40
1
 40
1
 40
1
 10
7.468890
 20
49.590529
 30
0.0
 10
7.522355
 20
49.925337
 30
0.0
 10
7.638560
 20
53.400058
 30
0.0
 10
7.597620
 20
53.439769
 30
0.0
  0
SPLINE
  5
111
100
AcDbEntity
  8
Layer_1
 62
7
100
AcDbSpline
 70
8
 71
3
 72
8
 73
4
 74
0
 40
0
 40
0
 40
0
 40
0
 40
1
 40
1
 40
1
 40
1
 10
7.597620
 20
53.439769
 30
0.0
 10
7.589441
 20
53.447702
 30
0.0
 10
6.882671
 20
53.466808
 30
0.0
 10
6.027021
 20
53.482223
 30
0.0
  0
LWPOLYLINE
  5
112
100
AcDbEntity
  8
Layer_1
 62
7
100
AcDbPolyline
 90
3
 70
0
 10
4.824435
 20
47.943335
 30
0.0
 10
4.741153
 20
48.482149
 30
0.0
 10
4.839697
 20
48.461922
 30
0.0
  0
SPLINE
  5
113
100
AcDbEntity
  8
Layer_1
 62
7
100
AcDbSpline
 70
8
 71
3
 72
8
 73
4
 74
0
 40
0
 40
0
 40
0
 40
0
 40
1
 40
1
 40
1
 40
1
 10
4.447209
 20
53.227161
 30
0.0
 10
4.413964
 20
52.836384
 30
0.0
 10
4.284666
 20
52.099800
 30
0.0
 10
4.168775
 20
51.640978
 30
0.0
  0
SPLINE
  5
114
100
AcDbEntity
  8
Layer_1
 62
7
100
AcDbSpline
 70
8
 71
3
 72
8
 73
4
 74
0
 40
0
 40
0
 40
0
 40
0
 40
1
 40
1
 40
1
 40
1
 10
4.168775
 20
51.640978
 30
0.0
 10
3.710387
 20
49.826181
 30
0.0
 10
2.837360
 20
48.547643
 30
0.0
 10
1.280882
 20
47.411693
 30
0.0
  0
SPLINE
  5
115
100
AcDbEntity
  8
Layer_1
 62
7
100
AcDbSpline
 70
8
 71
3
 72
8
 73
4
 74
0
 40
0
 40
0
 40
0
 40
0
 40
1
 40
1
 40
1
 40
1
 10
1.280882
 20
47.411693
 30
0.0
 10
1.103243
 20
47.282049
 30
0.0
 10
0.948022
 20
47.176437
 30
0.0
 10
0.935946
 20
47.177000
 30
0.0
  0
SPLINE
  5
116
100
AcDbEntity
  8
Layer_1
 62
7
100
AcDbSpline
 70
8
 71
3
 72
8
 73
4
 74
0
 40
0
 40
0
 40
0
 40
0
 40
1
 40
1
 40
1
 40
1
 10
0.935946
 20
47.177000
 30
0.0
 10
0.923870
 20
47.177563
 30
0.0
 10
0.754212
 20
47.358084
 30
0.0
 10
0.558927
 20
47.578159
 30
0.0
  0
LWPOLYLINE
  5
117
100
AcDbEntity
  8
Layer_1
 62
7
100
AcDbPolyline
 90
3
 70
0
 10
6.027021
 20
53.482223
 30
0.0
 10
4.471294
 20
53.510250
 30
0.0
 10
4.447209
 20
53.227161
 30
0.0
  0
SPLINE
  5
118
100
AcDbEntity
  8
Layer_1
 62
7
100
AcDbSpline
 70
8
 71
3
 72
8
 73
4
 74
0
 40
0
 40
0
 40
0
 40
0
 40
1
 40
1
 40
1
 40
1
 10
8.272443
 20
58.530112
 30
0.0
 10
7.357113
 20
59.610547
 30
0.0
 10
6.268803
 20
60.762544
 30
0.0
 10
5.561554
 20
61.399641
 30
0.0
  0
LWPOLYLINE
  5
119
100
AcDbEntity
  8
Layer_1
 62
7
100
AcDbPolyline
 90
3
 70
0
 10
0.558927
 20
47.578159
 30
0.0
 10
0.558927
 20
47.578159
 30
0.0
 10
0.558927
 20
47.578159
 30
0.0
  0
SPLINE
  5
11a
100
AcDbEntity
  8
Layer_1
 62
7
100
AcDbSpline
 70
8
 71
3
 72
8
 73
4
 74
0
 40
0
 40
0
 40
0
 40
0
 40
1
 40
1
 40
1
 40
1
 10
4.526747
 20
61.000169
 30
0.0
 10
3.779836
 20
60.252049
 30
0.0
 10
3.269340
 20
59.833884
 30
0.0
 10
2.408711
 20
59.265209
 30
0.0
  0
SPLINE
  5
11b
100
AcDbEntity
  8
Layer_1
 62
7
100
AcDbSpline
 70
8
 71
3
 72
8
 73
4
 74
0
 40
0
 40
0
 40
0
 40
0
 40
1
 40
1
 40
1
 40
1
 10
2.408711
 20
59.265209
 30
0.0
 10
1.920175
 20
58.942400
 30
0.0
 10
0.800332
 20
58.290573
 30
0.0
 10
0.734281
 20
58.290573
 30
0.0
  0
SPLINE
  5
11c
100
AcDbEntity
  8
Layer_1
 62
7
100
AcDbSpline
 70
8
 71
3
 72
8
 73
4
 74
0
 40
0
 40
0
 40
0
 40
0
 40
1
 40
1
 40
1
 40
1
 10
0.734281
 20
58.290573
 30
0.0
 10
0.709449
 20
58.290573
 30
0.0
 10
0.140585
 20
58.976819
 30
0.0
 10
0.077570
 20
59.082792
 30
0.0
  0
SPLINE
  5
11d
100
AcDbEntity
  8
Layer_1
 62
7
100
AcDbSpline
 70
8
 71
3
 72
8
 73
4
 74
0
 40
0
 40
0
 40
0
 40
0
 40
1
 40
1
 40
1
 40
1
 10
0.077570
 20
59.082792
 30
0.0
 10
0.060022
 20
59.112303
 30
0.0
 10
0.237882
 20
59.224440
 30
0.0
 10
0.597421
 20
59.410548
 30
0.0
  0
SPLINE
  5
11e
100
AcDbEntity
  8
Layer_1
 62
7
100
AcDbSpline
 70
8
 71
3
 72
8
 73
4
 74
0
 40
0
 40
0
 40
0
 40
0
 40
1
 40
1
 40
1
 40
1
 10
0.597421
 20
59.410548
 30
0.0
 10
3.259575
 20
60.788558
 30
0.0
 10
5.211008
 20
62.863135
 30
0.0
 10
6.195376
 20
65.361756
 30
0.0
  0
SPLINE
  5
11f
100
AcDbEntity
  8
Layer_1
 62
7
100
AcDbSpline
 70
8
 71
3
 72
8
 73
4
 74
0
 40
0
 40
0
 40
0
 40
0
 40
1
 40
1
 40
1
 40
1
 10
6.195376
 20
65.361756
 30
0.0
 10
6.412523
 20
65.912940
 30
0.0
 10
6.468700
 20
65.860072
 30
0.0
 10
5.666438
 20
65.859534
 30
0.0
  0
SPLINE
  5
120
100
AcDbEntity
  8
Layer_1
 62
7
100
AcDbSpline
 70
8
 71
3
 72
8
 73
4
 74
0
 40
0
 40
0
 40
0
 40
0
 40
1
 40
1
 40
1
 40
1
 10
5.666438
 20
65.859534
 30
0.0
 10
5.287008
 20
65.859281
 30
0.0
 10
4.135785
 20
65.843594
 30
0.0
 10
3.108164
 20
65.824676
 30
0.0
  0
LWPOLYLINE
  5
121
100
AcDbEntity
  8
Layer_1
 62
7
100
AcDbPolyline
 90
3
 70
0
 10
5.561554
 20
61.399641
 30
0.0
 10
5.226714
 20
61.701269
 30
0.0
 10
4.526747
 20
61.000169
 30
0.0
  0
SPLINE
  5
122
100
AcDbEntity
  8
Layer_1
 62
7
100
AcDbSpline
 70
8
 71
3
 72
8
 73
4
 74
0
 40
0
 40
0
 40
0
 40
0
 40
1
 40
1
 40
1
 40
1
 10
3.983621
 20
66.837314
 30
0.0
 10
6.661958
 20
66.837314
 30
0.0
 10
6.729789
 20
66.839129
 30
0.0
 10
6.824137
 20
66.913344
 30
0.0
  0
LWPOLYLINE
  5
123
100
AcDbEntity
  8
Layer_1
 62
7
100
AcDbPolyline
 90
5
 70
0
 10
3.108164
 20
65.824676
 30
0.0
 10
1.239762
 20
65.790281
 30
0.0
 10
1.239762
 20
66.313797
 30
0.0
 10
1.239762
 20
66.837314
 30
0.0
 10
3.983621
 20
66.837314
 30
0.0
  0
SPLINE
  5
124
100
AcDbEntity
  8
Layer_1
 62
7
100
AcDbSpline
 70
8
 71
3
 72
8
 73
4
 74
0
 40
0
 40
0
 40
0
 40
0
 40
1
 40
1
 40
1
 40
1
 10
7.153732
 20
66.827110
 30
0.0
 10
7.281848
 20
66.737865
 30
0.0
 10
7.480700
 20
66.577806
 30
0.0
 10
7.595623
 20
66.471423
 30
0.0
  0
SPLINE
  5
125
100
AcDbEntity
  8
Layer_1
 62
7
100
AcDbSpline
 70
8
 71
3
 72
8
 73
4
 74
0
 40
0
 40
0
 40
0
 40
0
 40
1
 40
1
 40
1
 40
1
 10
7.595623
 20
66.471423
 30
0.0
 10
7.792548
 20
66.289133
 30
0.0
 10
7.801728
 20
66.272587
 30
0.0
 10
7.755112
 20
66.183976
 30
0.0
  0
SPLINE
  5
126
100
AcDbEntity
  8
Layer_1
 62
7
100
AcDbSpline
 70
8
 71
3
 72
8
 73
4
 74
0
 40
0
 40
0
 40
0
 40
0
 40
1
 40
1
 40
1
 40
1
 10
7.755112
 20
66.183976
 30
0.0
 10
7.727905
 20
66.132264
 30
0.0
 10
7.658397
 20
66.035533
 30
0.0
 10
7.600645
 20
65.969020
 30
0.0
  0
SPLINE
  5
127
100
AcDbEntity
  8
Layer_1
 62
7
100
AcDbSpline
 70
8
 71
3
 72
8
 73
4
 74
0
 40
0
 40
0
 40
0
 40
0
 40
1
 40
1
 40
1
 40
1
 10
7.600645
 20
65.969020
 30
0.0
 10
7.542894
 20
65.902507
 30
0.0
 10
7.449282
 20
65.708880
 30
0.0
 10
7.392619
 20
65.538737
 30
0.0
  0
SPLINE
  5
128
100
AcDbEntity
  8
Layer_1
 62
7
100
AcDbSpline
 70
8
 71
3
 72
8
 73
4
 74
0
 40
0
 40
0
 40
0
 40
0
 40
1
 40
1
 40
1
 40
1
 10
7.392619
 20
65.538737
 30
0.0
 10
7.202680
 20
64.968400
 30
0.0
 10
6.337262
 20
63.291592
 30
0.0
 10
5.864793
 20
62.578464
 30
0.0
  0
LWPOLYLINE
  5
129
100
AcDbEntity
  8
Layer_1
 62
7
100
AcDbPolyline
 90
3
 70
0
 10
6.824137
 20
66.913344
 30
0.0
 10
6.920793
 20
66.989374
 30
0.0
 10
7.153732
 20
66.827110
 30
0.0
  0
SPLINE
  5
12a
100
AcDbEntity
  8
Layer_1
 62
7
100
AcDbSpline
 70
8
 71
3
 72
8
 73
4
 74
0
 40
0
 40
0
 40
0
 40
0
 40
1
 40
1
 40
1
 40
1
 10
6.307230
 20
62.043600
 30
0.0
 10
6.924064
 20
61.517157
 30
0.0
 10
8.236360
 20
60.211349
 30
0.0
 10
8.807856
 20
59.555337
 30
0.0
  0
SPLINE
  5
12b
100
AcDbEntity
  8
Layer_1
 62
7
100
AcDbSpline
 70
8
 71
3
 72
8
 73
4
 74
0
 40
0
 40
0
 40
0
 40
0
 40
1
 40
1
 40
1
 40
1
 10
8.807856
 20
59.555337
 30
0.0
 10
9.037402
 20
59.291845
 30
0.0
 10
9.266800
 20
59.030601
 30
0.0
 10
9.317630
 20
58.974795
 30
0.0
  0
LWPOLYLINE
  5
12c
100
AcDbEntity
  8
Layer_1
 62
7
100
AcDbPolyline
 90
3
 70
0
 10
5.864793
 20
62.578464
 30
0.0
 10
5.798236
 20
62.478006
 30
0.0
 10
6.307230
 20
62.043600
 30
0.0
  0
SPLINE
  5
12d
100
AcDbEntity
  8
Layer_1
 62
7
100
AcDbSpline
 70
8
 71
3
 72
8
 73
4
 74
0
 40
0
 40
0
 40
0
 40
0
 40
1
 40
1
 40
1
 40
1
 10
9.000195
 20
58.543626
 30
0.0
 10
8.774776
 20
58.362288
 30
0.0
 10
8.579087
 20
58.213921
 30
0.0
 10
8.565329
 20
58.213921
 30
0.0
  0
SPLINE
  5
12e
100
AcDbEntity
  8
Layer_1
 62
7
100
AcDbSpline
 70
8
 71
3
 72
8
 73
4
 74
0
 40
0
 40
0
 40
0
 40
0
 40
1
 40
1
 40
1
 40
1
 10
8.565329
 20
58.213921
 30
0.0
 10
8.551571
 20
58.213921
 30
0.0
 10
8.419773
 20
58.356207
 30
0.0
 10
8.272443
 20
58.530112
 30
0.0
  0
LWPOLYLINE
  5
12f
100
AcDbEntity
  8
Layer_1
 62
7
100
AcDbPolyline
 90
3
 70
0
 10
9.317630
 20
58.974795
 30
0.0
 10
9.410047
 20
58.873331
 30
0.0
 10
9.000195
 20
58.543626
 30
0.0
  0
LWPOLYLINE
  5
130
100
AcDbEntity
  8
Layer_1
 62
7
100
AcDbPolyline
 90
2
 70
0
 10
8.272443
 20
58.530112
 30
0.0
 10
8.272443
 20
58.530112
 30
0.0
  0
SPLINE
  5
131
100
AcDbEntity
  8
Layer_1
 62
7
100
AcDbSpline
 70
8
 71
3
 72
8
 73
4
 74
0
 40
0
 40
0
 40
0
 40
0
 40
1
 40
1
 40
1
 40
1
 10
2.267418
 20
22.560494
 30
0.0
 10
2.213439
 20
22.618460
 30
0.0
 10
2.054542
 20
22.838359
 30
0.0
 10
1.914315
 20
23.049151
 30
0.0
  0
LWPOLYLINE
  5
132
100
AcDbEntity
  8
Layer_1
 62
7
100
AcDbPolyline
 90
10
 70
0
 10
4.190879
 20
41.771498
 30
0.0
 10
4.190879
 20
45.872400
 30
0.0
 10
4.727446
 20
45.872400
 30
0.0
 10
5.264013
 20
45.872400
 30
0.0
 10
5.264013
 20
41.771498
 30
0.0
 10
5.264013
 20
37.670596
 30
0.0
 10
4.727446
 20
37.670596
 30
0.0
 10
4.190879
 20
37.670596
 30
0.0
 10
4.190879
 20
41.771498
 30
0.0
 10
4.190879
 20
41.771498
 30
0.0
  0
SPLINE
  5
133
100
AcDbEntity
  8
Layer_1
 62
7
100
AcDbSpline
 70
8
 71
3
 72
8
 73
4
 74
0
 40
0
 40
0
 40
0
 40
0
 40
1
 40
1
 40
1
 40
1
 10
1.895016
 20
27.683417
 30
0.0
 10
1.907596
 20
29.919597
 30
0.0
 10
1.920531
 20
31.753510
 30
0.0
 10
1.923761
 20
31.758779
 30
0.0
  0
SPLINE
  5
134
100
AcDbEntity
  8
Layer_1
 62
7
100
AcDbSpline
 70
8
 71
3
 72
8
 73
4
 74
0
 40
0
 40
0
 40
0
 40
0
 40
1
 40
1
 40
1
 40
1
 10
1.923761
 20
31.758779
 30
0.0
 10
1.926991
 20
31.764057
 30
0.0
 10
2.153842
 20
31.768375
 30
0.0
 10
2.427874
 20
31.768375
 30
0.0
  0
LWPOLYLINE
  5
135
100
AcDbEntity
  8
Layer_1
 62
7
100
AcDbPolyline
 90
5
 70
0
 10
1.914315
 20
23.049151
 30
0.0
 10
1.659355
 20
23.432414
 30
0.0
 10
1.765750
 20
23.525025
 30
0.0
 10
1.872144
 20
23.617636
 30
0.0
 10
1.895016
 20
27.683417
 30
0.0
  0
SPLINE
  5
136
100
AcDbEntity
  8
Layer_1
 62
7
100
AcDbSpline
 70
8
 71
3
 72
8
 73
4
 74
0
 40
0
 40
0
 40
0
 40
0
 40
1
 40
1
 40
1
 40
1
 10
2.925398
 20
30.474866
 30
0.0
 10
2.925003
 20
29.763437
 30
0.0
 10
2.907912
 20
27.992036
 30
0.0
 10
2.887416
 20
26.538422
 30
0.0
  0
SPLINE
  5
137
100
AcDbEntity
  8
Layer_1
 62
7
100
AcDbSpline
 70
8
 71
3
 72
8
 73
4
 74
0
 40
0
 40
0
 40
0
 40
0
 40
1
 40
1
 40
1
 40
1
 10
2.887416
 20
26.538422
 30
0.0
 10
2.863323
 20
24.829753
 30
0.0
 10
2.863300
 20
23.882335
 30
0.0
 10
2.887350
 20
23.858284
 30
0.0
  0
SPLINE
  5
138
100
AcDbEntity
  8
Layer_1
 62
7
100
AcDbSpline
 70
8
 71
3
 72
8
 73
4
 74
0
 40
0
 40
0
 40
0
 40
0
 40
1
 40
1
 40
1
 40
1
 10
2.887350
 20
23.858284
 30
0.0
 10
2.956410
 20
23.789225
 30
0.0
 10
4.093760
 20
24.259438
 30
0.0
 10
4.788342
 20
24.644211
 30
0.0
  0
SPLINE
  5
139
100
AcDbEntity
  8
Layer_1
 62
7
100
AcDbSpline
 70
8
 71
3
 72
8
 73
4
 74
0
 40
0
 40
0
 40
0
 40
0
 40
1
 40
1
 40
1
 40
1
 10
4.788342
 20
24.644211
 30
0.0
 10
6.230492
 20
25.443106
 30
0.0
 10
7.612171
 20
26.656766
 30
0.0
 10
8.635254
 20
28.023314
 30
0.0
  0
SPLINE
  5
13a
100
AcDbEntity
  8
Layer_1
 62
7
100
AcDbSpline
 70
8
 71
3
 72
8
 73
4
 74
0
 40
0
 40
0
 40
0
 40
0
 40
1
 40
1
 40
1
 40
1
 10
8.635254
 20
28.023314
 30
0.0
 10
8.726542
 20
28.145251
 30
0.0
 10
8.813962
 20
28.240109
 30
0.0
 10
8.829520
 20
28.234109
 30
0.0
  0
SPLINE
  5
13b
100
AcDbEntity
  8
Layer_1
 62
7
100
AcDbSpline
 70
8
 71
3
 72
8
 73
4
 74
0
 40
0
 40
0
 40
0
 40
0
 40
1
 40
1
 40
1
 40
1
 10
8.829520
 20
28.234109
 30
0.0
 10
8.870122
 20
28.218446
 30
0.0
 10
9.518219
 20
27.449133
 30
0.0
 10
9.518219
 20
27.416593
 30
0.0
  0
SPLINE
  5
13c
100
AcDbEntity
  8
Layer_1
 62
7
100
AcDbSpline
 70
8
 71
3
 72
8
 73
4
 74
0
 40
0
 40
0
 40
0
 40
0
 40
1
 40
1
 40
1
 40
1
 10
9.518219
 20
27.416593
 30
0.0
 10
9.518219
 20
27.307192
 30
0.0
 10
8.293931
 20
26.009168
 30
0.0
 10
7.682841
 20
25.470674
 30
0.0
  0
SPLINE
  5
13d
100
AcDbEntity
  8
Layer_1
 62
7
100
AcDbSpline
 70
8
 71
3
 72
8
 73
4
 74
0
 40
0
 40
0
 40
0
 40
0
 40
1
 40
1
 40
1
 40
1
 10
7.682841
 20
25.470674
 30
0.0
 10
6.311070
 20
24.261862
 30
0.0
 10
5.015701
 20
23.496501
 30
0.0
 10
3.322196
 20
22.894208
 30
0.0
  0
SPLINE
  5
13e
100
AcDbEntity
  8
Layer_1
 62
7
100
AcDbSpline
 70
8
 71
3
 72
8
 73
4
 74
0
 40
0
 40
0
 40
0
 40
0
 40
1
 40
1
 40
1
 40
1
 10
3.322196
 20
22.894208
 30
0.0
 10
2.989528
 20
22.775897
 30
0.0
 10
2.648816
 20
22.628699
 30
0.0
 10
2.565059
 20
22.567104
 30
0.0
  0
SPLINE
  5
13f
100
AcDbEntity
  8
Layer_1
 62
7
100
AcDbSpline
 70
8
 71
3
 72
8
 73
4
 74
0
 40
0
 40
0
 40
0
 40
0
 40
1
 40
1
 40
1
 40
1
 10
2.565059
 20
22.567104
 30
0.0
 10
2.481301
 20
22.505506
 30
0.0
 10
2.402150
 20
22.455109
 30
0.0
 10
2.389167
 20
22.455109
 30
0.0
  0
SPLINE
  5
140
100
AcDbEntity
  8
Layer_1
 62
7
100
AcDbSpline
 70
8
 71
3
 72
8
 73
4
 74
0
 40
0
 40
0
 40
0
 40
0
 40
1
 40
1
 40
1
 40
1
 10
2.389167
 20
22.455109
 30
0.0
 10
2.376184
 20
22.455109
 30
0.0
 10
2.321397
 20
22.502540
 30
0.0
 10
2.267418
 20
22.560508
 30
0.0
  0
LWPOLYLINE
  5
141
100
AcDbEntity
  8
Layer_1
 62
7
100
AcDbPolyline
 90
3
 70
0
 10
2.427874
 20
31.768375
 30
0.0
 10
2.926115
 20
31.768375
 30
0.0
 10
2.925398
 20
30.474866
 30
0.0
  0
SPLINE
  5
142
100
AcDbEntity
  8
Layer_1
 62
7
100
AcDbSpline
 70
8
 71
3
 72
8
 73
4
 74
0
 40
0
 40
0
 40
0
 40
0
 40
1
 40
1
 40
1
 40
1
 10
2.870691
 20
11.694498
 30
0.0
 10
2.749080
 20
11.948696
 30
0.0
 10
2.658136
 20
12.165231
 30
0.0
 10
2.668594
 20
12.175690
 30
0.0
  0
SPLINE
  5
143
100
AcDbEntity
  8
Layer_1
 62
7
100
AcDbSpline
 70
8
 71
3
 72
8
 73
4
 74
0
 40
0
 40
0
 40
0
 40
0
 40
1
 40
1
 40
1
 40
1
 10
2.668594
 20
12.175690
 30
0.0
 10
2.679052
 20
12.186132
 30
0.0
 10
2.909429
 20
12.252624
 30
0.0
 10
3.180542
 20
12.323411
 30
0.0
  0
SPLINE
  5
144
100
AcDbEntity
  8
Layer_1
 62
7
100
AcDbSpline
 70
8
 71
3
 72
8
 73
4
 74
0
 40
0
 40
0
 40
0
 40
0
 40
1
 40
1
 40
1
 40
1
 10
3.180542
 20
12.323411
 30
0.0
 10
3.812334
 20
12.488378
 30
0.0
 10
4.273077
 20
12.651646
 30
0.0
 10
4.719107
 20
12.868622
 30
0.0
  0
SPLINE
  5
145
100
AcDbEntity
  8
Layer_1
 62
7
100
AcDbSpline
 70
8
 71
3
 72
8
 73
4
 74
0
 40
0
 40
0
 40
0
 40
0
 40
1
 40
1
 40
1
 40
1
 10
4.719107
 20
12.868622
 30
0.0
 10
5.583250
 20
13.288989
 30
0.0
 10
6.350244
 20
14.014802
 30
0.0
 10
6.679855
 20
14.724089
 30
0.0
  0
SPLINE
  5
146
100
AcDbEntity
  8
Layer_1
 62
7
100
AcDbSpline
 70
8
 71
3
 72
8
 73
4
 74
0
 40
0
 40
0
 40
0
 40
0
 40
1
 40
1
 40
1
 40
1
 10
6.679855
 20
14.724089
 30
0.0
 10
6.924118
 20
15.249719
 30
0.0
 10
7.136620
 20
16.358618
 30
0.0
 10
7.314803
 20
18.037445
 30
0.0
  0
LWPOLYLINE
  5
147
100
AcDbEntity
  8
Layer_1
 62
7
100
AcDbPolyline
 90
2
 70
0
 10
2.267418
 20
22.560508
 30
0.0
 10
2.267418
 20
22.560494
 30
0.0
  0
SPLINE
  5
148
100
AcDbEntity
  8
Layer_1
 62
7
100
AcDbSpline
 70
8
 71
3
 72
8
 73
4
 74
0
 40
0
 40
0
 40
0
 40
0
 40
1
 40
1
 40
1
 40
1
 10
7.855766
 20
18.185734
 30
0.0
 10
8.139741
 20
18.139590
 30
0.0
 10
8.379594
 20
18.094327
 30
0.0
 10
8.388772
 20
18.085150
 30
0.0
  0
SPLINE
  5
149
100
AcDbEntity
  8
Layer_1
 62
7
100
AcDbSpline
 70
8
 71
3
 72
8
 73
4
 74
0
 40
0
 40
0
 40
0
 40
0
 40
1
 40
1
 40
1
 40
1
 10
8.388772
 20
18.085150
 30
0.0
 10
8.397950
 20
18.075977
 30
0.0
 10
8.371038
 20
17.776410
 30
0.0
 10
8.328964
 20
17.419458
 30
0.0
  0
SPLINE
  5
14a
100
AcDbEntity
  8
Layer_1
 62
7
100
AcDbSpline
 70
8
 71
3
 72
8
 73
4
 74
0
 40
0
 40
0
 40
0
 40
0
 40
1
 40
1
 40
1
 40
1
 10
8.328964
 20
17.419458
 30
0.0
 10
8.042637
 20
14.990250
 30
0.0
 10
7.701546
 20
14.001470
 30
0.0
 10
6.837564
 20
13.096087
 30
0.0
  0
SPLINE
  5
14b
100
AcDbEntity
  8
Layer_1
 62
7
100
AcDbSpline
 70
8
 71
3
 72
8
 73
4
 74
0
 40
0
 40
0
 40
0
 40
0
 40
1
 40
1
 40
1
 40
1
 10
6.837564
 20
13.096087
 30
0.0
 10
6.266178
 20
12.497319
 30
0.0
 10
5.566271
 20
12.068115
 30
0.0
 10
4.516653
 20
11.672832
 30
0.0
  0
SPLINE
  5
14c
100
AcDbEntity
  8
Layer_1
 62
7
100
AcDbSpline
 70
8
 71
3
 72
8
 73
4
 74
0
 40
0
 40
0
 40
0
 40
0
 40
1
 40
1
 40
1
 40
1
 10
4.516653
 20
11.672832
 30
0.0
 10
4.119951
 20
11.523438
 30
0.0
 10
3.206856
 20
11.232723
 30
0.0
 10
3.133520
 20
11.232467
 30
0.0
  0
SPLINE
  5
14d
100
AcDbEntity
  8
Layer_1
 62
7
100
AcDbSpline
 70
8
 71
3
 72
8
 73
4
 74
0
 40
0
 40
0
 40
0
 40
0
 40
1
 40
1
 40
1
 40
1
 10
3.133520
 20
11.232467
 30
0.0
 10
3.110577
 20
11.232390
 30
0.0
 10
2.992304
 20
11.440301
 30
0.0
 10
2.870693
 20
11.694498
 30
0.0
  0
LWPOLYLINE
  5
14e
100
AcDbEntity
  8
Layer_1
 62
7
100
AcDbPolyline
 90
3
 70
0
 10
7.314803
 20
18.037445
 30
0.0
 10
7.339447
 20
18.269627
 30
0.0
 10
7.855766
 20
18.185734
 30
0.0
  0
SPLINE
  5
14f
100
AcDbEntity
  8
Layer_1
 62
7
100
AcDbSpline
 70
8
 71
3
 72
8
 73
4
 74
0
 40
0
 40
0
 40
0
 40
0
 40
1
 40
1
 40
1
 40
1
 10
4.400797
 20
15.668797
 30
0.0
 10
4.220697
 20
16.099821
 30
0.0
 10
3.714734
 20
17.090604
 30
0.0
 10
3.454081
 20
17.522669
 30
0.0
  0
LWPOLYLINE
  5
150
100
AcDbEntity
  8
Layer_1
 62
7
100
AcDbPolyline
 90
3
 70
0
 10
2.870693
 20
11.694498
 30
0.0
 10
2.870693
 20
11.694498
 30
0.0
 10
2.870691
 20
11.694498
 30
0.0
  0
SPLINE
  5
151
100
AcDbEntity
  8
Layer_1
 62
7
100
AcDbSpline
 70
8
 71
3
 72
8
 73
4
 74
0
 40
0
 40
0
 40
0
 40
0
 40
1
 40
1
 40
1
 40
1
 10
4.219062
 20
18.163195
 30
0.0
 10
4.714464
 20
17.367137
 30
0.0
 10
5.407614
 20
15.996138
 30
0.0
 10
5.366169
 20
15.894304
 30
0.0
  0
SPLINE
  5
152
100
AcDbEntity
  8
Layer_1
 62
7
100
AcDbSpline
 70
8
 71
3
 72
8
 73
4
 74
0
 40
0
 40
0
 40
0
 40
0
 40
1
 40
1
 40
1
 40
1
 10
5.366169
 20
15.894304
 30
0.0
 10
5.356392
 20
15.870286
 30
0.0
 10
5.159486
 20
15.751558
 30
0.0
 10
4.928599
 20
15.630471
 30
0.0
  0
LWPOLYLINE
  5
153
100
AcDbEntity
  8
Layer_1
 62
7
100
AcDbPolyline
 90
5
 70
0
 10
3.454081
 20
17.522669
 30
0.0
 10
3.208383
 20
17.929944
 30
0.0
 10
3.629779
 20
18.181458
 30
0.0
 10
4.051175
 20
18.432971
 30
0.0
 10
4.219062
 20
18.163195
 30
0.0
  0
SPLINE
  5
154
100
AcDbEntity
  8
Layer_1
 62
7
100
AcDbSpline
 70
8
 71
3
 72
8
 73
4
 74
0
 40
0
 40
0
 40
0
 40
0
 40
1
 40
1
 40
1
 40
1
 10
2.338632
 20
14.710424
 30
0.0
 10
2.329220
 20
14.726228
 30
0.0
 10
2.257565
 20
14.894390
 30
0.0
 10
2.179398
 20
15.084106
 30
0.0
  0
SPLINE
  5
155
100
AcDbEntity
  8
Layer_1
 62
7
100
AcDbSpline
 70
8
 71
3
 72
8
 73
4
 74
0
 40
0
 40
0
 40
0
 40
0
 40
1
 40
1
 40
1
 40
1
 10
2.179398
 20
15.084106
 30
0.0
 10
1.972096
 20
15.587240
 30
0.0
 10
1.545344
 20
16.411004
 30
0.0
 10
1.280812
 20
16.818658
 30
0.0
  0
LWPOLYLINE
  5
156
100
AcDbEntity
  8
Layer_1
 62
7
100
AcDbPolyline
 90
5
 70
0
 10
4.928599
 20
15.630471
 30
0.0
 10
4.508803
 20
15.410312
 30
0.0
 10
4.400797
 20
15.668797
 30
0.0
 10
4.400797
 20
15.668797
 30
0.0
 10
4.400797
 20
15.668797
 30
0.0
  0
SPLINE
  5
157
100
AcDbEntity
  8
Layer_1
 62
7
100
AcDbSpline
 70
8
 71
3
 72
8
 73
4
 74
0
 40
0
 40
0
 40
0
 40
0
 40
1
 40
1
 40
1
 40
1
 10
1.998867
 20
17.449819
 30
0.0
 10
2.162586
 20
17.242070
 30
0.0
 10
2.427484
 20
16.822913
 30
0.0
 10
2.658312
 20
16.406359
 30
0.0
  0
SPLINE
  5
158
100
AcDbEntity
  8
Layer_1
 62
7
100
AcDbSpline
 70
8
 71
3
 72
8
 73
4
 74
0
 40
0
 40
0
 40
0
 40
0
 40
1
 40
1
 40
1
 40
1
 10
2.658312
 20
16.406359
 30
0.0
 10
2.864983
 20
16.033397
 30
0.0
 10
3.285431
 20
15.142255
 30
0.0
 10
3.263885
 20
15.122841
 30
0.0
  0
SPLINE
  5
159
100
AcDbEntity
  8
Layer_1
 62
7
100
AcDbSpline
 70
8
 71
3
 72
8
 73
4
 74
0
 40
0
 40
0
 40
0
 40
0
 40
1
 40
1
 40
1
 40
1
 10
3.263885
 20
15.122841
 30
0.0
 10
3.242041
 20
15.103170
 30
0.0
 10
2.391173
 20
14.681679
 30
0.0
 10
2.373285
 20
14.681679
 30
0.0
  0
SPLINE
  5
15a
100
AcDbEntity
  8
Layer_1
 62
7
100
AcDbSpline
 70
8
 71
3
 72
8
 73
4
 74
0
 40
0
 40
0
 40
0
 40
0
 40
1
 40
1
 40
1
 40
1
 10
2.373285
 20
14.681679
 30
0.0
 10
2.363639
 20
14.681679
 30
0.0
 10
2.348045
 20
14.694605
 30
0.0
 10
2.338632
 20
14.710424
 30
0.0
  0
LWPOLYLINE
  5
15b
100
AcDbEntity
  8
Layer_1
 62
7
100
AcDbPolyline
 90
5
 70
0
 10
1.280812
 20
16.818658
 30
0.0
 10
1.050572
 20
17.173467
 30
0.0
 10
1.468453
 20
17.383043
 30
0.0
 10
1.886335
 20
17.592618
 30
0.0
 10
1.998867
 20
17.449819
 30
0.0
  0
LWPOLYLINE
  5
15c
100
AcDbEntity
  8
Layer_1
 62
7
100
AcDbPolyline
 90
2
 70
0
 10
2.338632
 20
14.710424
 30
0.0
 10
2.338632
 20
14.710424
 30
0.0
  0
SPLINE
  5
15d
100
AcDbEntity
  8
Layer_1
 62
7
100
AcDbSpline
 70
8
 71
3
 72
8
 73
4
 74
0
 40
0
 40
0
 40
0
 40
0
 40
1
 40
1
 40
1
 40
1
 10
4.699033
 20
6.023581
 30
0.0
 10
6.016152
 20
5.736903
 30
0.0
 10
7.484483
 20
5.307713
 30
0.0
 10
8.502564
 20
4.911818
 30
0.0
  0
SPLINE
  5
15e
100
AcDbEntity
  8
Layer_1
 62
7
100
AcDbSpline
 70
8
 71
3
 72
8
 73
4
 74
0
 40
0
 40
0
 40
0
 40
0
 40
1
 40
1
 40
1
 40
1
 10
8.502564
 20
4.911818
 30
0.0
 10
8.963965
 20
4.732392
 30
0.0
 10
8.944149
 20
4.784894
 30
0.0
 10
8.733989
 20
4.298679
 30
0.0
  0
SPLINE
  5
15f
100
AcDbEntity
  8
Layer_1
 62
7
100
AcDbSpline
 70
8
 71
3
 72
8
 73
4
 74
0
 40
0
 40
0
 40
0
 40
0
 40
1
 40
1
 40
1
 40
1
 10
8.733989
 20
4.298679
 30
0.0
 10
8.632958
 20
4.064937
 30
0.0
 10
8.536100
 20
3.873694
 30
0.0
 10
8.518750
 20
3.873694
 30
0.0
  0
SPLINE
  5
160
100
AcDbEntity
  8
Layer_1
 62
7
100
AcDbSpline
 70
8
 71
3
 72
8
 73
4
 74
0
 40
0
 40
0
 40
0
 40
0
 40
1
 40
1
 40
1
 40
1
 10
8.518750
 20
3.873694
 30
0.0
 10
8.501399
 20
3.873694
 30
0.0
 10
8.320581
 20
3.934008
 30
0.0
 10
8.116932
 20
4.007727
 30
0.0
  0
SPLINE
  5
161
100
AcDbEntity
  8
Layer_1
 62
7
100
AcDbSpline
 70
8
 71
3
 72
8
 73
4
 74
0
 40
0
 40
0
 40
0
 40
0
 40
1
 40
1
 40
1
 40
1
 10
8.116932
 20
4.007727
 30
0.0
 10
7.029928
 20
4.401204
 30
0.0
 10
5.738176
 20
4.763061
 30
0.0
 10
4.008817
 20
5.158525
 30
0.0
  0
LWPOLYLINE
  5
162
100
AcDbEntity
  8
Layer_1
 62
7
100
AcDbPolyline
 90
7
 70
0
 10
2.887789
 20
4.697707
 30
0.0
 10
2.887789
 20
9.392666
 30
0.0
 10
3.405192
 20
9.392666
 30
0.0
 10
3.922596
 20
9.392666
 30
0.0
 10
3.922935
 20
7.792547
 30
0.0
 10
3.923273
 20
6.192426
 30
0.0
 10
4.699033
 20
6.023581
 30
0.0
  0
SPLINE
  5
163
100
AcDbEntity
  8
Layer_1
 62
7
100
AcDbSpline
 70
8
 71
3
 72
8
 73
4
 74
0
 40
0
 40
0
 40
0
 40
0
 40
1
 40
1
 40
1
 40
1
 10
34.024882
 20
28.580734
 30
0.0
 10
33.870464
 20
28.764523
 30
0.0
 10
33.720421
 20
28.943071
 30
0.0
 10
33.691448
 20
28.977508
 30
0.0
  0
SPLINE
  5
164
100
AcDbEntity
  8
Layer_1
 62
7
100
AcDbSpline
 70
8
 71
3
 72
8
 73
4
 74
0
 40
0
 40
0
 40
0
 40
0
 40
1
 40
1
 40
1
 40
1
 10
33.691448
 20
28.977508
 30
0.0
 10
33.644845
 20
29.032899
 30
0.0
 10
33.686594
 20
29.088136
 30
0.0
 10
34.053435
 20
29.456583
 30
0.0
  0
SPLINE
  5
165
100
AcDbEntity
  8
Layer_1
 62
7
100
AcDbSpline
 70
8
 71
3
 72
8
 73
4
 74
0
 40
0
 40
0
 40
0
 40
0
 40
1
 40
1
 40
1
 40
1
 10
34.053435
 20
29.456583
 30
0.0
 10
34.542568
 20
29.947844
 30
0.0
 10
35.008390
 20
30.484233
 30
0.0
 10
35.432674
 20
31.044763
 30
0.0
  0
SPLINE
  5
166
100
AcDbEntity
  8
Layer_1
 62
7
100
AcDbSpline
 70
8
 71
3
 72
8
 73
4
 74
0
 40
0
 40
0
 40
0
 40
0
 40
1
 40
1
 40
1
 40
1
 10
35.432674
 20
31.044763
 30
0.0
 10
35.798674
 20
31.528294
 30
0.0
 10
36.210434
 20
32.134767
 30
0.0
 10
36.210434
 20
32.190314
 30
0.0
  0
SPLINE
  5
167
100
AcDbEntity
  8
Layer_1
 62
7
100
AcDbSpline
 70
8
 71
3
 72
8
 73
4
 74
0
 40
0
 40
0
 40
0
 40
0
 40
1
 40
1
 40
1
 40
1
 10
36.210434
 20
32.190314
 30
0.0
 10
36.210434
 20
32.244927
 30
0.0
 10
36.048619
 20
32.243341
 30
0.0
 10
32.059718
 20
32.149612
 30
0.0
  0
SPLINE
  5
168
100
AcDbEntity
  8
Layer_1
 62
7
100
AcDbSpline
 70
8
 71
3
 72
8
 73
4
 74
0
 40
0
 40
0
 40
0
 40
0
 40
1
 40
1
 40
1
 40
1
 10
32.059718
 20
32.149612
 30
0.0
 10
30.145715
 20
32.104637
 30
0.0
 10
28.572558
 20
32.074995
 30
0.0
 10
28.563814
 20
32.083739
 30
0.0
  0
SPLINE
  5
169
100
AcDbEntity
  8
Layer_1
 62
7
100
AcDbSpline
 70
8
 71
3
 72
8
 73
4
 74
0
 40
0
 40
0
 40
0
 40
0
 40
1
 40
1
 40
1
 40
1
 10
28.563814
 20
32.083739
 30
0.0
 10
28.555066
 20
32.092488
 30
0.0
 10
28.536061
 20
32.335952
 30
0.0
 10
28.521564
 20
32.624787
 30
0.0
  0
LWPOLYLINE
  5
16a
100
AcDbEntity
  8
Layer_1
 62
7
100
AcDbPolyline
 90
8
 70
0
 10
4.008817
 20
5.158525
 30
0.0
 10
3.922584
 20
5.178252
 30
0.0
 10
3.922584
 20
2.590503
 30
0.0
 10
3.922584
 20
0.002757
 30
0.0
 10
3.405180
 20
0.002757
 30
0.0
 10
2.887776
 20
0.002757
 30
0.0
 10
2.887776
 20
4.697715
 30
0.0
 10
2.887789
 20
4.697707
 30
0.0
  0
SPLINE
  5
16b
100
AcDbEntity
  8
Layer_1
 62
7
100
AcDbSpline
 70
8
 71
3
 72
8
 73
4
 74
0
 40
0
 40
0
 40
0
 40
0
 40
1
 40
1
 40
1
 40
1
 10
29.622080
 20
33.150787
 30
0.0
 10
30.241860
 20
33.151069
 30
0.0
 10
32.090686
 20
33.168398
 30
0.0
 10
33.730584
 20
33.189045
 30
0.0
  0
SPLINE
  5
16c
100
AcDbEntity
  8
Layer_1
 62
7
100
AcDbSpline
 70
8
 71
3
 72
8
 73
4
 74
0
 40
0
 40
0
 40
0
 40
0
 40
1
 40
1
 40
1
 40
1
 10
33.730584
 20
33.189045
 30
0.0
 10
36.335421
 20
33.221836
 30
0.0
 10
36.727151
 20
33.234302
 30
0.0
 10
36.830391
 20
33.287690
 30
0.0
  0
LWPOLYLINE
  5
16d
100
AcDbEntity
  8
Layer_1
 62
7
100
AcDbPolyline
 90
3
 70
0
 10
28.521564
 20
32.624787
 30
0.0
 10
28.495210
 20
33.149940
 30
0.0
 10
29.622080
 20
33.150787
 30
0.0
  0
SPLINE
  5
16e
100
AcDbEntity
  8
Layer_1
 62
7
100
AcDbSpline
 70
8
 71
3
 72
8
 73
4
 74
0
 40
0
 40
0
 40
0
 40
0
 40
1
 40
1
 40
1
 40
1
 10
37.194015
 20
33.105708
 30
0.0
 10
37.329013
 20
32.972008
 30
0.0
 10
37.484187
 20
32.798170
 30
0.0
 10
37.538845
 20
32.719402
 30
0.0
  0
SPLINE
  5
16f
100
AcDbEntity
  8
Layer_1
 62
7
100
AcDbSpline
 70
8
 71
3
 72
8
 73
4
 74
0
 40
0
 40
0
 40
0
 40
0
 40
1
 40
1
 40
1
 40
1
 10
37.538845
 20
32.719402
 30
0.0
 10
37.627229
 20
32.592032
 30
0.0
 10
37.633105
 20
32.563830
 30
0.0
 10
37.591957
 20
32.464485
 30
0.0
  0
SPLINE
  5
170
100
AcDbEntity
  8
Layer_1
 62
7
100
AcDbSpline
 70
8
 71
3
 72
8
 73
4
 74
0
 40
0
 40
0
 40
0
 40
0
 40
1
 40
1
 40
1
 40
1
 10
37.591957
 20
32.464485
 30
0.0
 10
37.566500
 20
32.403050
 30
0.0
 10
37.502199
 20
32.312277
 30
0.0
 10
37.449048
 20
32.262766
 30
0.0
  0
SPLINE
  5
171
100
AcDbEntity
  8
Layer_1
 62
7
100
AcDbSpline
 70
8
 71
3
 72
8
 73
4
 74
0
 40
0
 40
0
 40
0
 40
0
 40
1
 40
1
 40
1
 40
1
 10
37.449048
 20
32.262766
 30
0.0
 10
37.395894
 20
32.213253
 30
0.0
 10
37.285833
 20
32.040773
 30
0.0
 10
37.204471
 20
31.879477
 30
0.0
  0
SPLINE
  5
172
100
AcDbEntity
  8
Layer_1
 62
7
100
AcDbSpline
 70
8
 71
3
 72
8
 73
4
 74
0
 40
0
 40
0
 40
0
 40
0
 40
1
 40
1
 40
1
 40
1
 10
37.204471
 20
31.879477
 30
0.0
 10
36.891752
 20
31.259534
 30
0.0
 10
36.424406
 20
30.543124
 30
0.0
 10
35.909641
 20
29.894583
 30
0.0
  0
SPLINE
  5
173
100
AcDbEntity
  8
Layer_1
 62
7
100
AcDbSpline
 70
8
 71
3
 72
8
 73
4
 74
0
 40
0
 40
0
 40
0
 40
0
 40
1
 40
1
 40
1
 40
1
 10
35.909641
 20
29.894583
 30
0.0
 10
35.599589
 20
29.503954
 30
0.0
 10
34.867002
 20
28.733123
 30
0.0
 10
34.520256
 20
28.432666
 30
0.0
  0
LWPOLYLINE
  5
174
100
AcDbEntity
  8
Layer_1
 62
7
100
AcDbPolyline
 90
3
 70
0
 10
36.830391
 20
33.287690
 30
0.0
 10
36.948563
 20
33.348800
 30
0.0
 10
37.194015
 20
33.105708
 30
0.0
  0
SPLINE
  5
175
100
AcDbEntity
  8
Layer_1
 62
7
100
AcDbSpline
 70
8
 71
3
 72
8
 73
4
 74
0
 40
0
 40
0
 40
0
 40
0
 40
1
 40
1
 40
1
 40
1
 10
29.445860
 20
24.818277
 30
0.0
 10
29.319385
 20
25.041312
 30
0.0
 10
29.215903
 20
25.239565
 30
0.0
 10
29.215903
 20
25.258838
 30
0.0
  0
SPLINE
  5
176
100
AcDbEntity
  8
Layer_1
 62
7
100
AcDbSpline
 70
8
 71
3
 72
8
 73
4
 74
0
 40
0
 40
0
 40
0
 40
0
 40
1
 40
1
 40
1
 40
1
 10
29.215903
 20
25.258838
 30
0.0
 10
29.215903
 20
25.278113
 30
0.0
 10
29.440405
 20
25.384994
 30
0.0
 10
29.714796
 20
25.496350
 30
0.0
  0
SPLINE
  5
177
100
AcDbEntity
  8
Layer_1
 62
7
100
AcDbSpline
 70
8
 71
3
 72
8
 73
4
 74
0
 40
0
 40
0
 40
0
 40
0
 40
1
 40
1
 40
1
 40
1
 10
29.714796
 20
25.496350
 30
0.0
 10
31.097354
 20
26.057442
 30
0.0
 10
31.707914
 20
26.679132
 30
0.0
 10
32.021175
 20
27.844786
 30
0.0
  0
SPLINE
  5
178
100
AcDbEntity
  8
Layer_1
 62
7
100
AcDbSpline
 70
8
 71
3
 72
8
 73
4
 74
0
 40
0
 40
0
 40
0
 40
0
 40
1
 40
1
 40
1
 40
1
 10
32.021175
 20
27.844786
 30
0.0
 10
32.121804
 20
28.219227
 30
0.0
 10
32.123596
 20
28.247373
 30
0.0
 10
32.138763
 20
29.690999
 30
0.0
  0
LWPOLYLINE
  5
179
100
AcDbEntity
  8
Layer_1
 62
7
100
AcDbPolyline
 90
5
 70
0
 10
34.520256
 20
28.432666
 30
0.0
 10
34.305637
 20
28.246699
 30
0.0
 10
34.024882
 20
28.580858
 30
0.0
 10
34.024882
 20
28.580858
 30
0.0
 10
34.024882
 20
28.580734
 30
0.0
  0
SPLINE
  5
17a
100
AcDbEntity
  8
Layer_1
 62
7
100
AcDbSpline
 70
8
 71
3
 72
8
 73
4
 74
0
 40
0
 40
0
 40
0
 40
0
 40
1
 40
1
 40
1
 40
1
 10
33.219589
 20
30.783298
 30
0.0
 10
33.216231
 20
29.888625
 30
0.0
 10
33.142754
 20
28.311731
 30
0.0
 10
33.089623
 20
27.993924
 30
0.0
  0
SPLINE
  5
17b
100
AcDbEntity
  8
Layer_1
 62
7
100
AcDbSpline
 70
8
 71
3
 72
8
 73
4
 74
0
 40
0
 40
0
 40
0
 40
0
 40
1
 40
1
 40
1
 40
1
 10
33.089623
 20
27.993924
 30
0.0
 10
33.019471
 20
27.574290
 30
0.0
 10
32.878479
 20
27.078945
 30
0.0
 10
32.740864
 20
26.768628
 30
0.0
  0
SPLINE
  5
17c
100
AcDbEntity
  8
Layer_1
 62
7
100
AcDbSpline
 70
8
 71
3
 72
8
 73
4
 74
0
 40
0
 40
0
 40
0
 40
0
 40
1
 40
1
 40
1
 40
1
 10
32.740864
 20
26.768628
 30
0.0
 10
32.355151
 20
25.898850
 30
0.0
 10
31.524786
 20
25.200895
 30
0.0
 10
30.174059
 20
24.611126
 30
0.0
  0
SPLINE
  5
17d
100
AcDbEntity
  8
Layer_1
 62
7
100
AcDbSpline
 70
8
 71
3
 72
8
 73
4
 74
0
 40
0
 40
0
 40
0
 40
0
 40
1
 40
1
 40
1
 40
1
 10
30.174059
 20
24.611126
 30
0.0
 10
29.636569
 20
24.376442
 30
0.0
 10
29.707929
 20
24.356141
 30
0.0
 10
29.445860
 20
24.818277
 30
0.0
  0
LWPOLYLINE
  5
17e
100
AcDbEntity
  8
Layer_1
 62
7
100
AcDbPolyline
 90
5
 70
0
 10
32.138763
 20
29.690999
 30
0.0
 10
32.154172
 20
31.156977
 30
0.0
 10
32.687586
 20
31.156977
 30
0.0
 10
33.221000
 20
31.156977
 30
0.0
 10
33.219589
 20
30.783298
 30
0.0
  0
SPLINE
  5
17f
100
AcDbEntity
  8
Layer_1
 62
7
100
AcDbSpline
 70
8
 71
3
 72
8
 73
4
 74
0
 40
0
 40
0
 40
0
 40
0
 40
1
 40
1
 40
1
 40
1
 10
30.444199
 20
58.332484
 30
0.0
 10
30.366678
 20
58.422935
 30
0.0
 10
30.208168
 20
58.647527
 30
0.0
 10
30.091957
 20
58.831576
 30
0.0
  0
LWPOLYLINE
  5
180
100
AcDbEntity
  8
Layer_1
 62
7
100
AcDbPolyline
 90
2
 70
0
 10
29.445860
 20
24.818277
 30
0.0
 10
29.445860
 20
24.818277
 30
0.0
  0
SPLINE
  5
181
100
AcDbEntity
  8
Layer_1
 62
7
100
AcDbSpline
 70
8
 71
3
 72
8
 73
4
 74
0
 40
0
 40
0
 40
0
 40
0
 40
1
 40
1
 40
1
 40
1
 10
31.151078
 20
66.880796
 30
0.0
 10
31.150886
 20
66.548795
 30
0.0
 10
31.133185
 20
64.778016
 30
0.0
 10
31.111717
 20
62.945730
 30
0.0
  0
SPLINE
  5
182
100
AcDbEntity
  8
Layer_1
 62
7
100
AcDbSpline
 70
8
 71
3
 72
8
 73
4
 74
0
 40
0
 40
0
 40
0
 40
0
 40
1
 40
1
 40
1
 40
1
 10
31.111717
 20
62.945730
 30
0.0
 10
31.089534
 20
61.051534
 30
0.0
 10
31.087107
 20
59.599889
 30
0.0
 10
31.106100
 20
59.580892
 30
0.0
  0
SPLINE
  5
183
100
AcDbEntity
  8
Layer_1
 62
7
100
AcDbSpline
 70
8
 71
3
 72
8
 73
4
 74
0
 40
0
 40
0
 40
0
 40
0
 40
1
 40
1
 40
1
 40
1
 10
31.106100
 20
59.580892
 30
0.0
 10
31.158566
 20
59.528427
 30
0.0
 10
31.948712
 20
59.840208
 30
0.0
 10
32.646133
 20
60.188567
 30
0.0
  0
SPLINE
  5
184
100
AcDbEntity
  8
Layer_1
 62
7
100
AcDbSpline
 70
8
 71
3
 72
8
 73
4
 74
0
 40
0
 40
0
 40
0
 40
0
 40
1
 40
1
 40
1
 40
1
 10
32.646133
 20
60.188567
 30
0.0
 10
33.334064
 20
60.532185
 30
0.0
 10
34.054719
 20
60.991293
 30
0.0
 10
34.633980
 20
61.454969
 30
0.0
  0
SPLINE
  5
185
100
AcDbEntity
  8
Layer_1
 62
7
100
AcDbSpline
 70
8
 71
3
 72
8
 73
4
 74
0
 40
0
 40
0
 40
0
 40
0
 40
1
 40
1
 40
1
 40
1
 10
34.633980
 20
61.454969
 30
0.0
 10
35.315154
 20
62.000218
 30
0.0
 10
36.239491
 20
62.951695
 30
0.0
 10
36.829900
 20
63.715362
 30
0.0
  0
LWPOLYLINE
  5
186
100
AcDbEntity
  8
Layer_1
 62
7
100
AcDbPolyline
 90
9
 70
0
 10
30.091957
 20
58.831576
 30
0.0
 10
29.880666
 20
59.166211
 30
0.0
 10
29.984879
 20
59.255852
 30
0.0
 10
30.089096
 20
59.345493
 30
0.0
 10
30.108343
 20
63.414963
 30
0.0
 10
30.127591
 20
67.484433
 30
0.0
 10
30.639474
 20
67.484433
 30
0.0
 10
31.151360
 20
67.484433
 30
0.0
 10
31.151078
 20
66.880796
 30
0.0
  0
SPLINE
  5
187
100
AcDbEntity
  8
Layer_1
 62
7
100
AcDbSpline
 70
8
 71
3
 72
8
 73
4
 74
0
 40
0
 40
0
 40
0
 40
0
 40
1
 40
1
 40
1
 40
1
 10
37.394869
 20
63.571391
 30
0.0
 10
37.603223
 20
63.324394
 30
0.0
 10
37.736514
 20
63.134921
 30
0.0
 10
37.720334
 20
63.108743
 30
0.0
  0
SPLINE
  5
188
100
AcDbEntity
  8
Layer_1
 62
7
100
AcDbSpline
 70
8
 71
3
 72
8
 73
4
 74
0
 40
0
 40
0
 40
0
 40
0
 40
1
 40
1
 40
1
 40
1
 10
37.720334
 20
63.108743
 30
0.0
 10
37.638182
 20
62.975816
 30
0.0
 10
37.097565
 20
62.378053
 30
0.0
 10
36.638895
 20
61.912991
 30
0.0
  0
SPLINE
  5
189
100
AcDbEntity
  8
Layer_1
 62
7
100
AcDbSpline
 70
8
 71
3
 72
8
 73
4
 74
0
 40
0
 40
0
 40
0
 40
0
 40
1
 40
1
 40
1
 40
1
 10
36.638895
 20
61.912991
 30
0.0
 10
35.025899
 20
60.277510
 30
0.0
 10
33.489873
 20
59.295681
 30
0.0
 10
31.415029
 20
58.573894
 30
0.0
  0
SPLINE
  5
18a
100
AcDbEntity
  8
Layer_1
 62
7
100
AcDbSpline
 70
8
 71
3
 72
8
 73
4
 74
0
 40
0
 40
0
 40
0
 40
0
 40
1
 40
1
 40
1
 40
1
 10
31.415029
 20
58.573894
 30
0.0
 10
31.040851
 20
58.443726
 30
0.0
 10
30.919427
 20
58.387033
 30
0.0
 10
30.682939
 20
58.232080
 30
0.0
  0
SPLINE
  5
18b
100
AcDbEntity
  8
Layer_1
 62
7
100
AcDbSpline
 70
8
 71
3
 72
8
 73
4
 74
0
 40
0
 40
0
 40
0
 40
0
 40
1
 40
1
 40
1
 40
1
 10
30.682939
 20
58.232080
 30
0.0
 10
30.586335
 20
58.168783
 30
0.0
 10
30.583518
 20
58.169968
 30
0.0
 10
30.444233
 20
58.332484
 30
0.0
  0
LWPOLYLINE
  5
18c
100
AcDbEntity
  8
Layer_1
 62
7
100
AcDbPolyline
 90
3
 70
0
 10
36.829900
 20
63.715362
 30
0.0
 10
37.042001
 20
63.989704
 30
0.0
 10
37.394869
 20
63.571391
 30
0.0
  0
SPLINE
  5
18d
100
AcDbEntity
  8
Layer_1
 62
7
100
AcDbSpline
 70
8
 71
3
 72
8
 73
4
 74
0
 40
0
 40
0
 40
0
 40
0
 40
1
 40
1
 40
1
 40
1
 10
36.133782
 20
54.093754
 30
0.0
 10
35.693665
 20
54.205119
 30
0.0
 10
34.014745
 20
54.529344
 30
0.0
 10
33.297643
 20
54.641453
 30
0.0
  0
SPLINE
  5
18e
100
AcDbEntity
  8
Layer_1
 62
7
100
AcDbSpline
 70
8
 71
3
 72
8
 73
4
 74
0
 40
0
 40
0
 40
0
 40
0
 40
1
 40
1
 40
1
 40
1
 10
33.297643
 20
54.641453
 30
0.0
 10
31.999068
 20
54.844469
 30
0.0
 10
29.979001
 20
55.066746
 30
0.0
 10
29.432556
 20
55.066746
 30
0.0
  0
LWPOLYLINE
  5
18f
100
AcDbEntity
  8
Layer_1
 62
7
100
AcDbPolyline
 90
3
 70
0
 10
30.444233
 20
58.332484
 30
0.0
 10
30.444233
 20
58.332484
 30
0.0
 10
30.444199
 20
58.332484
 30
0.0
  0
SPLINE
  5
190
100
AcDbEntity
  8
Layer_1
 62
7
100
AcDbSpline
 70
8
 71
3
 72
8
 73
4
 74
0
 40
0
 40
0
 40
0
 40
0
 40
1
 40
1
 40
1
 40
1
 10
29.311534
 20
55.582575
 30
0.0
 10
29.345037
 20
55.866281
 30
0.0
 10
29.384429
 20
56.110386
 30
0.0
 10
29.399074
 20
56.125031
 30
0.0
  0
SPLINE
  5
191
100
AcDbEntity
  8
Layer_1
 62
7
100
AcDbSpline
 70
8
 71
3
 72
8
 73
4
 74
0
 40
0
 40
0
 40
0
 40
0
 40
1
 40
1
 40
1
 40
1
 10
29.399074
 20
56.125031
 30
0.0
 10
29.437306
 20
56.163263
 30
0.0
 10
31.464667
 20
55.933093
 30
0.0
 10
32.853753
 20
55.732814
 30
0.0
  0
SPLINE
  5
192
100
AcDbEntity
  8
Layer_1
 62
7
100
AcDbSpline
 70
8
 71
3
 72
8
 73
4
 74
0
 40
0
 40
0
 40
0
 40
0
 40
1
 40
1
 40
1
 40
1
 10
32.853753
 20
55.732814
 30
0.0
 10
34.079410
 20
55.556098
 30
0.0
 10
35.080342
 20
55.383391
 30
0.0
 10
36.080431
 20
55.176064
 30
0.0
  0
LWPOLYLINE
  5
193
100
AcDbEntity
  8
Layer_1
 62
7
100
AcDbPolyline
 90
3
 70
0
 10
29.432556
 20
55.066746
 30
0.0
 10
29.250622
 20
55.066746
 30
0.0
 10
29.311534
 20
55.582575
 30
0.0
  0
SPLINE
  5
194
100
AcDbEntity
  8
Layer_1
 62
7
100
AcDbSpline
 70
8
 71
3
 72
8
 73
4
 74
0
 40
0
 40
0
 40
0
 40
0
 40
1
 40
1
 40
1
 40
1
 10
36.566956
 20
54.687706
 30
0.0
 10
36.413047
 20
54.074888
 30
0.0
 10
36.400138
 20
54.031780
 30
0.0
 10
36.371845
 20
54.036177
 30
0.0
  0
SPLINE
  5
195
100
AcDbEntity
  8
Layer_1
 62
7
100
AcDbSpline
 70
8
 71
3
 72
8
 73
4
 74
0
 40
0
 40
0
 40
0
 40
0
 40
1
 40
1
 40
1
 40
1
 10
36.371845
 20
54.036177
 30
0.0
 10
36.356859
 20
54.038520
 30
0.0
 10
36.249719
 20
54.064417
 30
0.0
 10
36.133782
 20
54.093754
 30
0.0
  0
LWPOLYLINE
  5
196
100
AcDbEntity
  8
Layer_1
 62
7
100
AcDbPolyline
 90
3
 70
0
 10
36.080431
 20
55.176064
 30
0.0
 10
36.659460
 20
55.056026
 30
0.0
 10
36.566956
 20
54.687706
 30
0.0
  0
SPLINE
  5
197
100
AcDbEntity
  8
Layer_1
 62
7
100
AcDbSpline
 70
8
 71
3
 72
8
 73
4
 74
0
 40
0
 40
0
 40
0
 40
0
 40
1
 40
1
 40
1
 40
1
 10
35.597216
 20
50.976040
 30
0.0
 10
34.173749
 20
51.399574
 30
0.0
 10
32.267391
 20
51.774585
 30
0.0
 10
30.375272
 20
52.003277
 30
0.0
  0
SPLINE
  5
198
100
AcDbEntity
  8
Layer_1
 62
7
100
AcDbSpline
 70
8
 71
3
 72
8
 73
4
 74
0
 40
0
 40
0
 40
0
 40
0
 40
1
 40
1
 40
1
 40
1
 10
30.375272
 20
52.003277
 30
0.0
 10
29.920347
 20
52.058262
 30
0.0
 10
29.656655
 20
52.105943
 30
0.0
 10
29.656655
 20
52.133218
 30
0.0
  0
SPLINE
  5
199
100
AcDbEntity
  8
Layer_1
 62
7
100
AcDbSpline
 70
8
 71
3
 72
8
 73
4
 74
0
 40
0
 40
0
 40
0
 40
0
 40
1
 40
1
 40
1
 40
1
 10
29.656655
 20
52.133218
 30
0.0
 10
29.656655
 20
52.191714
 30
0.0
 10
29.774884
 20
53.089810
 30
0.0
 10
29.783751
 20
53.098678
 30
0.0
  0
SPLINE
  5
19a
100
AcDbEntity
  8
Layer_1
 62
7
100
AcDbSpline
 70
8
 71
3
 72
8
 73
4
 74
0
 40
0
 40
0
 40
0
 40
0
 40
1
 40
1
 40
1
 40
1
 10
29.783751
 20
53.098678
 30
0.0
 10
29.805623
 20
53.120541
 30
0.0
 10
31.482384
 20
52.898336
 30
0.0
 10
32.167022
 20
52.782847
 30
0.0
  0
SPLINE
  5
19b
100
AcDbEntity
  8
Layer_1
 62
7
100
AcDbSpline
 70
8
 71
3
 72
8
 73
4
 74
0
 40
0
 40
0
 40
0
 40
0
 40
1
 40
1
 40
1
 40
1
 10
32.167022
 20
52.782847
 30
0.0
 10
33.311430
 20
52.589800
 30
0.0
 10
36.009675
 20
51.986061
 30
0.0
 10
36.169506
 20
51.887282
 30
0.0
  0
SPLINE
  5
19c
100
AcDbEntity
  8
Layer_1
 62
7
100
AcDbSpline
 70
8
 71
3
 72
8
 73
4
 74
0
 40
0
 40
0
 40
0
 40
0
 40
1
 40
1
 40
1
 40
1
 10
36.169506
 20
51.887282
 30
0.0
 10
36.201995
 20
51.867201
 30
0.0
 10
36.179807
 20
51.725267
 30
0.0
 10
36.087695
 20
51.363720
 30
0.0
  0
LWPOLYLINE
  5
19d
100
AcDbEntity
  8
Layer_1
 62
7
100
AcDbPolyline
 90
2
 70
0
 10
36.133782
 20
54.093754
 30
0.0
 10
36.133782
 20
54.093754
 30
0.0
  0
SPLINE
  5
19e
100
AcDbEntity
  8
Layer_1
 62
7
100
AcDbSpline
 70
8
 71
3
 72
8
 73
4
 74
0
 40
0
 40
0
 40
0
 40
0
 40
1
 40
1
 40
1
 40
1
 10
36.287088
 20
47.102454
 30
0.0
 10
34.466695
 20
47.730635
 30
0.0
 10
31.955124
 20
48.230003
 30
0.0
 10
29.087622
 20
48.533903
 30
0.0
  0
LWPOLYLINE
  5
19f
100
AcDbEntity
  8
Layer_1
 62
7
100
AcDbPolyline
 90
4
 70
0
 10
36.087695
 20
51.363720
 30
0.0
 10
35.961313
 20
50.867707
 30
0.0
 10
35.597216
 20
50.976040
 30
0.0
 10
35.597216
 20
50.976040
 30
0.0
  0
SPLINE
  5
1a0
100
AcDbEntity
  8
Layer_1
 62
7
100
AcDbSpline
 70
8
 71
3
 72
8
 73
4
 74
0
 40
0
 40
0
 40
0
 40
0
 40
1
 40
1
 40
1
 40
1
 10
28.865527
 20
48.718375
 30
0.0
 10
28.877183
 20
48.805655
 30
0.0
 10
28.898143
 20
49.045222
 30
0.0
 10
28.912133
 20
49.250747
 30
0.0
  0
SPLINE
  5
1a1
100
AcDbEntity
  8
Layer_1
 62
7
100
AcDbSpline
 70
8
 71
3
 72
8
 73
4
 74
0
 40
0
 40
0
 40
0
 40
0
 40
1
 40
1
 40
1
 40
1
 10
28.912133
 20
49.250747
 30
0.0
 10
28.926131
 20
49.456271
 30
0.0
 10
28.948131
 20
49.624427
 30
0.0
 10
28.961039
 20
49.624427
 30
0.0
  0
SPLINE
  5
1a2
100
AcDbEntity
  8
Layer_1
 62
7
100
AcDbSpline
 70
8
 71
3
 72
8
 73
4
 74
0
 40
0
 40
0
 40
0
 40
0
 40
1
 40
1
 40
1
 40
1
 10
28.961039
 20
49.624427
 30
0.0
 10
28.973937
 20
49.624427
 30
0.0
 10
29.355640
 20
49.580470
 30
0.0
 10
29.809241
 20
49.526744
 30
0.0
  0
SPLINE
  5
1a3
100
AcDbEntity
  8
Layer_1
 62
7
100
AcDbSpline
 70
8
 71
3
 72
8
 73
4
 74
0
 40
0
 40
0
 40
0
 40
0
 40
1
 40
1
 40
1
 40
1
 10
29.809241
 20
49.526744
 30
0.0
 10
32.358447
 20
49.224809
 30
0.0
 10
34.455957
 20
48.799341
 30
0.0
 10
36.349733
 20
48.200044
 30
0.0
  0
LWPOLYLINE
  5
1a4
100
AcDbEntity
  8
Layer_1
 62
7
100
AcDbPolyline
 90
3
 70
0
 10
29.087622
 20
48.533903
 30
0.0
 10
28.844360
 20
48.559684
 30
0.0
 10
28.865527
 20
48.718375
 30
0.0
  0
SPLINE
  5
1a5
100
AcDbEntity
  8
Layer_1
 62
7
100
AcDbSpline
 70
8
 71
3
 72
8
 73
4
 74
0
 40
0
 40
0
 40
0
 40
0
 40
1
 40
1
 40
1
 40
1
 10
36.800874
 20
47.505718
 30
0.0
 10
36.708889
 20
47.231469
 30
0.0
 10
36.628955
 20
47.003248
 30
0.0
 10
36.623243
 20
46.998560
 30
0.0
  0
SPLINE
  5
1a6
100
AcDbEntity
  8
Layer_1
 62
7
100
AcDbSpline
 70
8
 71
3
 72
8
 73
4
 74
0
 40
0
 40
0
 40
0
 40
0
 40
1
 40
1
 40
1
 40
1
 10
36.623243
 20
46.998560
 30
0.0
 10
36.617542
 20
46.993872
 30
0.0
 10
36.466257
 20
47.040625
 30
0.0
 10
36.287082
 20
47.102454
 30
0.0
  0
LWPOLYLINE
  5
1a7
100
AcDbEntity
  8
Layer_1
 62
7
100
AcDbPolyline
 90
3
 70
0
 10
36.349733
 20
48.200044
 30
0.0
 10
36.968116
 20
48.004352
 30
0.0
 10
36.800874
 20
47.505718
 30
0.0
  0
LWPOLYLINE
  5
1a8
100
AcDbEntity
  8
Layer_1
 62
7
100
AcDbPolyline
 90
2
 70
0
 10
36.287082
 20
47.102454
 30
0.0
 10
36.287088
 20
47.102454
 30
0.0
  0
SPLINE
  5
1a9
100
AcDbEntity
  8
Layer_1
 62
7
100
AcDbSpline
 70
8
 71
3
 72
8
 73
4
 74
0
 40
0
 40
0
 40
0
 40
0
 40
1
 40
1
 40
1
 40
1
 10
31.449506
 20
36.196907
 30
0.0
 10
31.328904
 20
36.463187
 30
0.0
 10
31.239374
 20
36.695851
 30
0.0
 10
31.250553
 20
36.713938
 30
0.0
  0
SPLINE
  5
1aa
100
AcDbEntity
  8
Layer_1
 62
7
100
AcDbSpline
 70
8
 71
3
 72
8
 73
4
 74
0
 40
0
 40
0
 40
0
 40
0
 40
1
 40
1
 40
1
 40
1
 10
31.250553
 20
36.713938
 30
0.0
 10
31.261729
 20
36.732029
 30
0.0
 10
31.305293
 20
36.746826
 30
0.0
 10
31.347355
 20
36.746826
 30
0.0
  0
SPLINE
  5
1ab
100
AcDbEntity
  8
Layer_1
 62
7
100
AcDbSpline
 70
8
 71
3
 72
8
 73
4
 74
0
 40
0
 40
0
 40
0
 40
0
 40
1
 40
1
 40
1
 40
1
 10
31.347355
 20
36.746826
 30
0.0
 10
31.389418
 20
36.746826
 30
0.0
 10
31.642791
 20
36.798873
 30
0.0
 10
31.910406
 20
36.862489
 30
0.0
  0
SPLINE
  5
1ac
100
AcDbEntity
  8
Layer_1
 62
7
100
AcDbSpline
 70
8
 71
3
 72
8
 73
4
 74
0
 40
0
 40
0
 40
0
 40
0
 40
1
 40
1
 40
1
 40
1
 10
31.910406
 20
36.862489
 30
0.0
 10
33.475009
 20
37.234407
 30
0.0
 10
34.225141
 20
37.695157
 30
0.0
 10
34.625361
 20
38.530081
 30
0.0
  0
SPLINE
  5
1ad
100
AcDbEntity
  8
Layer_1
 62
7
100
AcDbSpline
 70
8
 71
3
 72
8
 73
4
 74
0
 40
0
 40
0
 40
0
 40
0
 40
1
 40
1
 40
1
 40
1
 10
34.625361
 20
38.530081
 30
0.0
 10
34.897657
 20
39.098138
 30
0.0
 10
34.944887
 20
39.710368
 30
0.0
 10
34.945333
 20
42.677804
 30
0.0
  0
LWPOLYLINE
  5
1ae
100
AcDbEntity
  8
Layer_1
 62
7
100
AcDbPolyline
 90
10
 70
0
 10
29.809961
 20
41.786720
 30
0.0
 10
29.809961
 20
44.680348
 30
0.0
 10
30.346528
 20
44.680348
 30
0.0
 10
30.883094
 20
44.680348
 30
0.0
 10
30.883094
 20
41.786720
 30
0.0
 10
30.883094
 20
38.893092
 30
0.0
 10
30.346528
 20
38.893092
 30
0.0
 10
29.809961
 20
38.893092
 30
0.0
 10
29.809961
 20
41.786720
 30
0.0
 10
29.809961
 20
41.786720
 30
0.0
  0
SPLINE
  5
1af
100
AcDbEntity
  8
Layer_1
 62
7
100
AcDbSpline
 70
8
 71
3
 72
8
 73
4
 74
0
 40
0
 40
0
 40
0
 40
0
 40
1
 40
1
 40
1
 40
1
 10
36.031115
 20
42.543662
 30
0.0
 10
36.014972
 20
39.993496
 30
0.0
 10
35.985144
 20
39.346194
 30
0.0
 10
35.861257
 20
38.856285
 30
0.0
  0
SPLINE
  5
1b0
100
AcDbEntity
  8
Layer_1
 62
7
100
AcDbSpline
 70
8
 71
3
 72
8
 73
4
 74
0
 40
0
 40
0
 40
0
 40
0
 40
1
 40
1
 40
1
 40
1
 10
35.861257
 20
38.856285
 30
0.0
 10
35.635835
 20
37.964860
 30
0.0
 10
35.138441
 20
37.238807
 30
0.0
 10
34.421249
 20
36.754282
 30
0.0
  0
SPLINE
  5
1b1
100
AcDbEntity
  8
Layer_1
 62
7
100
AcDbSpline
 70
8
 71
3
 72
8
 73
4
 74
0
 40
0
 40
0
 40
0
 40
0
 40
1
 40
1
 40
1
 40
1
 10
34.421249
 20
36.754282
 30
0.0
 10
34.067563
 20
36.515336
 30
0.0
 10
33.482747
 20
36.234739
 30
0.0
 10
32.969741
 20
36.057848
 30
0.0
  0
SPLINE
  5
1b2
100
AcDbEntity
  8
Layer_1
 62
7
100
AcDbSpline
 70
8
 71
3
 72
8
 73
4
 74
0
 40
0
 40
0
 40
0
 40
0
 40
1
 40
1
 40
1
 40
1
 10
32.969741
 20
36.057848
 30
0.0
 10
32.532093
 20
35.906941
 30
0.0
 10
31.825039
 20
35.711609
 30
0.0
 10
31.719271
 20
35.712391
 30
0.0
  0
SPLINE
  5
1b3
100
AcDbEntity
  8
Layer_1
 62
7
100
AcDbSpline
 70
8
 71
3
 72
8
 73
4
 74
0
 40
0
 40
0
 40
0
 40
0
 40
1
 40
1
 40
1
 40
1
 10
31.719271
 20
35.712391
 30
0.0
 10
31.691472
 20
35.712583
 30
0.0
 10
31.570054
 20
35.930631
 30
0.0
 10
31.449452
 20
36.196907
 30
0.0
  0
LWPOLYLINE
  5
1b4
100
AcDbEntity
  8
Layer_1
 62
7
100
AcDbPolyline
 90
5
 70
0
 10
34.945333
 20
42.677804
 30
0.0
 10
34.945615
 20
44.910305
 30
0.0
 10
35.495858
 20
44.910305
 30
0.0
 10
36.046101
 20
44.910305
 30
0.0
 10
36.031115
 20
42.543662
 30
0.0
  0
LWPOLYLINE
  5
1b5
100
AcDbEntity
  8
Layer_1
 62
7
100
AcDbPolyline
 90
3
 70
0
 10
31.449452
 20
36.196907
 30
0.0
 10
31.449452
 20
36.196907
 30
0.0
 10
31.449506
 20
36.196907
 30
0.0
  0
ENDSEC
  0
SECTION
  2
OBJECTS
  0
DICTIONARY
  5
C
330
0
100
AcDbDictionary
  3
ACAD_GROUP
350
D
  3
ACAD_MLINESTYLE
350
17
  0
DICTIONARY
  5
D
330
C
100
AcDbDictionary
  0
DICTIONARY
  5
1A
330
C
100
AcDbDictionary
  0
DICTIONARY
  5
17
330
C
100
AcDbDictionary
  3
STANDARD
350
18
  0
DICTIONARY
  5
19
330
C
100
AcDbDictionary
  0
ENDSEC
  0
EOF
