  0
SECTION
  2
HEADER
  9
$ACADVER
  1
AC1014
  9
$HANDSEED
  5
FFFF
  9
$MEASUREMENT
 70
     1
  0
ENDSEC
  0
SECTION
  2
TABLES
  0
TABLE
  2
VPORT
  5
8
330
0
100
AcDbSymbolTable
 70
     4
  0
VPORT
  5
2E
330
8
100
AcDbSymbolTableRecord
100
AcDbViewportTableRecord
  2
*ACTIVE
 70
     0
 10
0.0
 20
0.0
 11
1.0
 21
1.0
 12
210.0
 22
148.5
 13
0.0
 23
0.0
 14
10.0
 24
10.0
 15
10.0
 25
10.0
 16
0.0
 26
0.0
 36
1.0
 17
0.0
 27
0.0
 37
0.0
 40
341.0
 41
1.24
 42
50.0
 43
0.0
 44
0.0
 50
0.0
 51
0.0
 71
     0
 72
   100
 73
     1
 74
     3
 75
     0
 76
     0
 77
     0
 78
     0
  0
ENDTAB
  0
TABLE
  2
LTYPE
  5
5
330
0
100
AcDbSymbolTable
 70
     1
  0
LTYPE
  5
14
330
5
100
AcDbSymbolTableRecord
100
AcDbLinetypeTableRecord
  2
BYBLOCK
 70
     0
  3

 72
    65
 73
     0
 40
0.0
  0
LTYPE
  5
15
330
5
100
AcDbSymbolTableRecord
100
AcDbLinetypeTableRecord
  2
BYLAYER
 70
     0
  3

 72
    65
 73
     0
 40
0.0
  0
LTYPE
  5
16
330
5
100
AcDbSymbolTableRecord
100
AcDbLinetypeTableRecord
  2
CONTINUOUS
 70
     0
  3
Solid line
 72
    65
 73
     0
 40
0.0
  0
ENDTAB
  0
TABLE
  2
LAYER
  5
2
100
AcDbSymbolTable
 70
2
  0
LAYER
  5
50
100
AcDbSymbolTableRecord
100
AcDbLayerTableRecord
  2
0
 70
0
  6
CONTINUOUS
  0
LAYER
  5
51
100
AcDbSymbolTableRecord
100
AcDbLayerTableRecord
  2
Layer_1
 70
0
  6
CONTINUOUS
  0
ENDTAB
  0
TABLE
  2
STYLE
  5
3
330
0
100
AcDbSymbolTable
 70
     1
  0
STYLE
  5
11
330
3
100
AcDbSymbolTableRecord
100
AcDbTextStyleTableRecord
  2
STANDARD
 70
     0
 40
0.0
 41
1.0
 50
0.0
 71
     0
 42
2.5
  3
txt
  4

  0
ENDTAB
  0
TABLE
  2
VIEW
  5
6
330
0
100
AcDbSymbolTable
 70
     0
  0
ENDTAB
  0
TABLE
  2
UCS
  5
7
330
0
100
AcDbSymbolTable
 70
     0
  0
ENDTAB
  0
TABLE
  2
APPID
  5
9
330
0
100
AcDbSymbolTable
 70
     2
  0
APPID
  5
12
330
9
100
AcDbSymbolTableRecord
100
AcDbRegAppTableRecord
  2
ACAD
 70
     0
  0
ENDTAB
  0
TABLE
  2
DIMSTYLE
  5
A
330
0
100
AcDbSymbolTable
 70
     1
  0
DIMSTYLE
105
27
330
A
100
AcDbSymbolTableRecord
100
AcDbDimStyleTableRecord
  2
ISO-25
 70
     0
  3

  4

  5

  6

  7

 40
1.0
 41
2.5
 42
0.625
 43
3.75
 44
1.25
 45
0.0
 46
0.0
 47
0.0
 48
0.0
140
2.5
141
2.5
142
0.0
143
0.03937007874016
144
1.0
145
0.0
146
1.0
147
0.625
 71
     0
 72
     0
 73
     0
 74
     0
 75
     0
 76
     0
 77
     1
 78
     8
170
     0
171
     3
172
     1
173
     0
174
     0
175
     0
176
     0
177
     0
178
     0
270
     2
271
     2
272
     2
273
     2
274
     3
340
11
275
     0
280
     0
281
     0
282
     0
283
     0
284
     8
285
     0
286
     0
287
     3
288
     0
  0
ENDTAB
  0
TABLE
  2
BLOCK_RECORD
  5
1
330
0
100
AcDbSymbolTable
 70
     1
  0
BLOCK_RECORD
  5
1F
330
1
100
AcDbSymbolTableRecord
100
AcDbBlockTableRecord
  2
*MODEL_SPACE
  0
BLOCK_RECORD
  5
1B
330
1
100
AcDbSymbolTableRecord
100
AcDbBlockTableRecord
  2
*PAPER_SPACE
  0
ENDTAB
  0
ENDSEC
  0
SECTION
  2
BLOCKS
  0
BLOCK
  5
20
330
1F
100
AcDbEntity
  8
0
100
AcDbBlockBegin
  2
*MODEL_SPACE
 70
     0
 10
0.0
 20
0.0
 30
0.0
  3
*MODEL_SPACE
  1

  0
ENDBLK
  5
21
330
1F
100
AcDbEntity
  8
0
100
AcDbBlockEnd
  0
BLOCK
  5
1C
330
1B
100
AcDbEntity
 67
     1
  8
0
100
AcDbBlockBegin
  2
*PAPER_SPACE
  1

  0
ENDBLK
  5
1D
330
1B
100
AcDbEntity
 67
     1
  8
0
100
AcDbBlockEnd
  0
ENDSEC
  0
SECTION
  2
ENTITIES
  0
SPLINE
  5
100
100
AcDbEntity
  8
Layer_1
 62
7
100
AcDbSpline
 70
8
 71
3
 72
8
 73
4
 74
0
 40
0
 40
0
 40
0
 40
0
 40
1
 40
1
 40
1
 40
1
 10
1.486627
 20
13.276515
 30
0.0
 10
1.486627
 20
14.344729
 30
0.0
 10
1.470442
 20
15.217903
 30
0.0
 10
1.450660
 20
15.216902
 30
0.0
  0
SPLINE
  5
101
100
AcDbEntity
  8
Layer_1
 62
7
100
AcDbSpline
 70
8
 71
3
 72
8
 73
4
 74
0
 40
0
 40
0
 40
0
 40
0
 40
1
 40
1
 40
1
 40
1
 10
1.450660
 20
15.216902
 30
0.0
 10
1.430878
 20
15.215915
 30
0.0
 10
1.334424
 20
15.099430
 30
0.0
 10
1.236317
 20
14.958076
 30
0.0
  0
SPLINE
  5
102
100
AcDbEntity
  8
Layer_1
 62
7
100
AcDbSpline
 70
8
 71
3
 72
8
 73
4
 74
0
 40
0
 40
0
 40
0
 40
0
 40
1
 40
1
 40
1
 40
1
 10
1.236317
 20
14.958076
 30
0.0
 10
1.138210
 20
14.816722
 30
0.0
 10
0.922410
 20
14.537538
 30
0.0
 10
0.756760
 20
14.337666
 30
0.0
  0
SPLINE
  5
103
100
AcDbEntity
  8
Layer_1
 62
7
100
AcDbSpline
 70
8
 71
3
 72
8
 73
4
 74
0
 40
0
 40
0
 40
0
 40
0
 40
1
 40
1
 40
1
 40
1
 10
0.254175
 20
14.368703
 30
0.0
 10
0.143403
 20
14.585645
 30
0.0
 10
0.051688
 20
14.775556
 30
0.0
 10
0.050363
 20
14.790727
 30
0.0
  0
SPLINE
  5
104
100
AcDbEntity
  8
Layer_1
 62
7
100
AcDbSpline
 70
8
 71
3
 72
8
 73
4
 74
0
 40
0
 40
0
 40
0
 40
0
 40
1
 40
1
 40
1
 40
1
 10
0.050363
 20
14.790727
 30
0.0
 10
0.049039
 20
14.805899
 30
0.0
 10
0.148350
 20
14.946169
 30
0.0
 10
0.271055
 20
15.102439
 30
0.0
  0
SPLINE
  5
105
100
AcDbEntity
  8
Layer_1
 62
7
100
AcDbSpline
 70
8
 71
3
 72
8
 73
4
 74
0
 40
0
 40
0
 40
0
 40
0
 40
1
 40
1
 40
1
 40
1
 10
0.271055
 20
15.102439
 30
0.0
 10
1.083164
 20
16.136693
 30
0.0
 10
1.883405
 20
17.592768
 30
0.0
 10
2.368701
 20
18.919200
 30
0.0
  0
LWPOLYLINE
  5
106
100
AcDbEntity
  8
Layer_1
 62
7
100
AcDbPolyline
 90
3
 70
0
 10
0.756760
 20
14.337666
 30
0.0
 10
0.455579
 20
13.974264
 30
0.0
 10
0.254175
 20
14.368703
 30
0.0
  0
SPLINE
  5
107
100
AcDbEntity
  8
Layer_1
 62
7
100
AcDbSpline
 70
8
 71
3
 72
8
 73
4
 74
0
 40
0
 40
0
 40
0
 40
0
 40
1
 40
1
 40
1
 40
1
 10
2.819798
 20
19.020298
 30
0.0
 10
3.022890
 20
18.952873
 30
0.0
 10
3.197600
 20
18.890426
 30
0.0
 10
3.208044
 20
18.881525
 30
0.0
  0
SPLINE
  5
108
100
AcDbEntity
  8
Layer_1
 62
7
100
AcDbSpline
 70
8
 71
3
 72
8
 73
4
 74
0
 40
0
 40
0
 40
0
 40
0
 40
1
 40
1
 40
1
 40
1
 10
3.208044
 20
18.881525
 30
0.0
 10
3.237188
 20
18.856690
 30
0.0
 10
2.847053
 20
17.897212
 30
0.0
 10
2.559186
 20
17.285758
 30
0.0
  0
LWPOLYLINE
  5
109
100
AcDbEntity
  8
Layer_1
 62
7
100
AcDbPolyline
 90
3
 70
0
 10
2.368701
 20
18.919200
 30
0.0
 10
2.450541
 20
19.142888
 30
0.0
 10
2.819798
 20
19.020298
 30
0.0
  0
SPLINE
  5
10a
100
AcDbEntity
  8
Layer_1
 62
7
100
AcDbSpline
 70
8
 71
3
 72
8
 73
4
 74
0
 40
0
 40
0
 40
0
 40
0
 40
1
 40
1
 40
1
 40
1
 10
3.947017
 20
11.393170
 30
0.0
 10
3.837671
 20
11.535611
 30
0.0
 10
3.542162
 20
12.111024
 30
0.0
 10
3.566076
 20
12.134937
 30
0.0
  0
SPLINE
  5
10b
100
AcDbEntity
  8
Layer_1
 62
7
100
AcDbSpline
 70
8
 71
3
 72
8
 73
4
 74
0
 40
0
 40
0
 40
0
 40
0
 40
1
 40
1
 40
1
 40
1
 10
3.566076
 20
12.134937
 30
0.0
 10
3.580429
 20
12.149291
 30
0.0
 10
3.792801
 20
12.242297
 30
0.0
 10
4.038016
 20
12.341618
 30
0.0
  0
SPLINE
  5
10c
100
AcDbEntity
  8
Layer_1
 62
7
100
AcDbSpline
 70
8
 71
3
 72
8
 73
4
 74
0
 40
0
 40
0
 40
0
 40
0
 40
1
 40
1
 40
1
 40
1
 10
4.038016
 20
12.341618
 30
0.0
 10
4.639587
 20
12.585279
 30
0.0
 10
5.300623
 20
12.968337
 30
0.0
 10
5.722825
 20
13.317933
 30
0.0
  0
LWPOLYLINE
  5
10d
100
AcDbEntity
  8
Layer_1
 62
7
100
AcDbPolyline
 90
8
 70
0
 10
2.559186
 20
17.285758
 30
0.0
 10
2.301874
 20
16.739206
 30
0.0
 10
2.301874
 20
14.036757
 30
0.0
 10
2.301874
 20
11.334308
 30
0.0
 10
1.894251
 20
11.334308
 30
0.0
 10
1.486627
 20
11.334308
 30
0.0
 10
1.486627
 20
13.276515
 30
0.0
 10
1.486627
 20
13.276515
 30
0.0
  0
SPLINE
  5
10e
100
AcDbEntity
  8
Layer_1
 62
7
100
AcDbSpline
 70
8
 71
3
 72
8
 73
4
 74
0
 40
0
 40
0
 40
0
 40
0
 40
1
 40
1
 40
1
 40
1
 10
5.346252
 20
13.928993
 30
0.0
 10
5.064345
 20
14.203145
 30
0.0
 10
4.670035
 20
14.628758
 30
0.0
 10
4.470007
 20
14.874798
 30
0.0
  0
LWPOLYLINE
  5
10f
100
AcDbEntity
  8
Layer_1
 62
7
100
AcDbPolyline
 90
3
 70
0
 10
5.722825
 20
13.317933
 30
0.0
 10
5.858809
 20
13.430532
 30
0.0
 10
5.346252
 20
13.928993
 30
0.0
  0
SPLINE
  5
110
100
AcDbEntity
  8
Layer_1
 62
7
100
AcDbSpline
 70
8
 71
3
 72
8
 73
4
 74
0
 40
0
 40
0
 40
0
 40
0
 40
1
 40
1
 40
1
 40
1
 10
3.322102
 20
14.796147
 30
0.0
 10
3.231150
 20
14.883497
 30
0.0
 10
3.114932
 20
15.012977
 30
0.0
 10
3.063839
 20
15.083880
 30
0.0
  0
LWPOLYLINE
  5
111
100
AcDbEntity
  8
Layer_1
 62
7
100
AcDbPolyline
 90
5
 70
0
 10
4.470007
 20
14.874798
 30
0.0
 10
4.106319
 20
15.322143
 30
0.0
 10
3.796894
 20
14.979736
 30
0.0
 10
3.487468
 20
14.637329
 30
0.0
 10
3.322102
 20
14.796147
 30
0.0
  0
SPLINE
  5
112
100
AcDbEntity
  8
Layer_1
 62
7
100
AcDbSpline
 70
8
 71
3
 72
8
 73
4
 74
0
 40
0
 40
0
 40
0
 40
0
 40
1
 40
1
 40
1
 40
1
 10
3.326881
 20
15.668134
 30
0.0
 10
3.987952
 20
16.513822
 30
0.0
 10
4.561907
 20
17.560893
 30
0.0
 10
4.962946
 20
18.652825
 30
0.0
  0
LWPOLYLINE
  5
113
100
AcDbEntity
  8
Layer_1
 62
7
100
AcDbPolyline
 90
3
 70
0
 10
3.063839
 20
15.083880
 30
0.0
 10
2.970944
 20
15.212795
 30
0.0
 10
3.326881
 20
15.668134
 30
0.0
  0
SPLINE
  5
114
100
AcDbEntity
  8
Layer_1
 62
7
100
AcDbSpline
 70
8
 71
3
 72
8
 73
4
 74
0
 40
0
 40
0
 40
0
 40
0
 40
1
 40
1
 40
1
 40
1
 10
5.531771
 20
19.041234
 30
0.0
 10
5.746690
 20
18.988204
 30
0.0
 10
5.930126
 20
18.938677
 30
0.0
 10
5.939407
 20
18.931172
 30
0.0
  0
SPLINE
  5
115
100
AcDbEntity
  8
Layer_1
 62
7
100
AcDbSpline
 70
8
 71
3
 72
8
 73
4
 74
0
 40
0
 40
0
 40
0
 40
0
 40
1
 40
1
 40
1
 40
1
 10
5.939407
 20
18.931172
 30
0.0
 10
5.953371
 20
18.919880
 30
0.0
 10
5.854372
 20
18.585794
 30
0.0
 10
5.766549
 20
18.347833
 30
0.0
  0
SPLINE
  5
116
100
AcDbEntity
  8
Layer_1
 62
7
100
AcDbSpline
 70
8
 71
3
 72
8
 73
4
 74
0
 40
0
 40
0
 40
0
 40
0
 40
1
 40
1
 40
1
 40
1
 10
5.766549
 20
18.347833
 30
0.0
 10
5.749099
 20
18.300548
 30
0.0
 10
6.125291
 20
18.287889
 30
0.0
 10
7.547896
 20
18.287889
 30
0.0
  0
LWPOLYLINE
  5
117
100
AcDbEntity
  8
Layer_1
 62
7
100
AcDbPolyline
 90
3
 70
0
 10
4.962946
 20
18.652825
 30
0.0
 10
5.141011
 20
19.137650
 30
0.0
 10
5.531771
 20
19.041234
 30
0.0
  0
SPLINE
  5
118
100
AcDbEntity
  8
Layer_1
 62
7
100
AcDbSpline
 70
8
 71
3
 72
8
 73
4
 74
0
 40
0
 40
0
 40
0
 40
0
 40
1
 40
1
 40
1
 40
1
 10
9.351366
 20
17.913239
 30
0.0
 10
9.351366
 20
17.499482
 30
0.0
 10
9.253985
 20
17.160828
 30
0.0
 10
8.856788
 20
16.193297
 30
0.0
  0
SPLINE
  5
119
100
AcDbEntity
  8
Layer_1
 62
7
100
AcDbSpline
 70
8
 71
3
 72
8
 73
4
 74
0
 40
0
 40
0
 40
0
 40
0
 40
1
 40
1
 40
1
 40
1
 10
8.856788
 20
16.193297
 30
0.0
 10
8.446049
 20
15.192783
 30
0.0
 10
8.019872
 20
14.472528
 30
0.0
 10
7.443047
 20
13.804028
 30
0.0
  0
LWPOLYLINE
  5
11a
100
AcDbEntity
  8
Layer_1
 62
7
100
AcDbPolyline
 90
3
 70
0
 10
7.547896
 20
18.287889
 30
0.0
 10
9.351366
 20
18.287889
 30
0.0
 10
9.351366
 20
17.913239
 30
0.0
  0
SPLINE
  5
11b
100
AcDbEntity
  8
Layer_1
 62
7
100
AcDbSpline
 70
8
 71
3
 72
8
 73
4
 74
0
 40
0
 40
0
 40
0
 40
0
 40
1
 40
1
 40
1
 40
1
 10
7.401165
 20
13.312041
 30
0.0
 10
7.796289
 20
13.062794
 30
0.0
 10
9.048269
 20
12.456990
 30
0.0
 10
9.519211
 20
12.287168
 30
0.0
  0
SPLINE
  5
11c
100
AcDbEntity
  8
Layer_1
 62
7
100
AcDbSpline
 70
8
 71
3
 72
8
 73
4
 74
0
 40
0
 40
0
 40
0
 40
0
 40
1
 40
1
 40
1
 40
1
 10
9.519211
 20
12.287168
 30
0.0
 10
9.756592
 20
12.201568
 30
0.0
 10
9.970149
 20
12.115171
 30
0.0
 10
9.993783
 20
12.095176
 30
0.0
  0
SPLINE
  5
11d
100
AcDbEntity
  8
Layer_1
 62
7
100
AcDbSpline
 70
8
 71
3
 72
8
 73
4
 74
0
 40
0
 40
0
 40
0
 40
0
 40
1
 40
1
 40
1
 40
1
 10
9.993783
 20
12.095176
 30
0.0
 10
10.026056
 20
12.067871
 30
0.0
 10
9.725605
 20
11.478213
 30
0.0
 10
9.608283
 20
11.338603
 30
0.0
  0
SPLINE
  5
11e
100
AcDbEntity
  8
Layer_1
 62
7
100
AcDbSpline
 70
8
 71
3
 72
8
 73
4
 74
0
 40
0
 40
0
 40
0
 40
0
 40
1
 40
1
 40
1
 40
1
 10
9.608283
 20
11.338603
 30
0.0
 10
9.540612
 20
11.258076
 30
0.0
 10
7.756781
 20
12.126069
 30
0.0
 10
7.058755
 20
12.579176
 30
0.0
  0
SPLINE
  5
11f
100
AcDbEntity
  8
Layer_1
 62
7
100
AcDbSpline
 70
8
 71
3
 72
8
 73
4
 74
0
 40
0
 40
0
 40
0
 40
0
 40
1
 40
1
 40
1
 40
1
 10
7.058755
 20
12.579176
 30
0.0
 10
6.813280
 20
12.738519
 30
0.0
 10
6.595621
 20
12.868891
 30
0.0
 10
6.575067
 20
12.868891
 30
0.0
  0
SPLINE
  5
120
100
AcDbEntity
  8
Layer_1
 62
7
100
AcDbSpline
 70
8
 71
3
 72
8
 73
4
 74
0
 40
0
 40
0
 40
0
 40
0
 40
1
 40
1
 40
1
 40
1
 10
6.575067
 20
12.868891
 30
0.0
 10
6.554513
 20
12.868891
 30
0.0
 10
6.399285
 20
12.757403
 30
0.0
 10
6.230114
 20
12.621140
 30
0.0
  0
SPLINE
  5
121
100
AcDbEntity
  8
Layer_1
 62
7
100
AcDbSpline
 70
8
 71
3
 72
8
 73
4
 74
0
 40
0
 40
0
 40
0
 40
0
 40
1
 40
1
 40
1
 40
1
 10
6.230114
 20
12.621140
 30
0.0
 10
5.765370
 20
12.246799
 30
0.0
 10
5.109543
 20
11.828387
 30
0.0
 10
4.627727
 20
11.598831
 30
0.0
  0
SPLINE
  5
122
100
AcDbEntity
  8
Layer_1
 62
7
100
AcDbSpline
 70
8
 71
3
 72
8
 73
4
 74
0
 40
0
 40
0
 40
0
 40
0
 40
1
 40
1
 40
1
 40
1
 10
4.627727
 20
11.598831
 30
0.0
 10
4.086604
 20
11.341019
 30
0.0
 10
4.005794
 20
11.316604
 30
0.0
 10
3.947017
 20
11.393170
 30
0.0
  0
LWPOLYLINE
  5
123
100
AcDbEntity
  8
Layer_1
 62
7
100
AcDbPolyline
 90
3
 70
0
 10
7.443047
 20
13.804028
 30
0.0
 10
7.153392
 20
13.468338
 30
0.0
 10
7.401165
 20
13.312041
 30
0.0
  0
SPLINE
  5
124
100
AcDbEntity
  8
Layer_1
 62
7
100
AcDbSpline
 70
8
 71
3
 72
8
 73
4
 74
0
 40
0
 40
0
 40
0
 40
0
 40
1
 40
1
 40
1
 40
1
 10
7.017814
 20
14.619275
 30
0.0
 10
7.343820
 20
15.046536
 30
0.0
 10
7.624232
 20
15.511302
 30
0.0
 10
7.885823
 20
16.057947
 30
0.0
  0
SPLINE
  5
125
100
AcDbEntity
  8
Layer_1
 62
7
100
AcDbSpline
 70
8
 71
3
 72
8
 73
4
 74
0
 40
0
 40
0
 40
0
 40
0
 40
1
 40
1
 40
1
 40
1
 10
7.885823
 20
16.057947
 30
0.0
 10
8.092169
 20
16.489145
 30
0.0
 10
8.440207
 20
17.375966
 30
0.0
 10
8.440207
 20
17.470547
 30
0.0
  0
SPLINE
  5
126
100
AcDbEntity
  8
Layer_1
 62
7
100
AcDbSpline
 70
8
 71
3
 72
8
 73
4
 74
0
 40
0
 40
0
 40
0
 40
0
 40
1
 40
1
 40
1
 40
1
 10
8.440207
 20
17.470547
 30
0.0
 10
8.440207
 20
17.504293
 30
0.0
 10
7.944227
 20
17.520061
 30
0.0
 10
6.917613
 20
17.518952
 30
0.0
  0
LWPOLYLINE
  5
127
100
AcDbEntity
  8
Layer_1
 62
7
100
AcDbPolyline
 90
3
 70
0
 10
3.947017
 20
11.393170
 30
0.0
 10
3.947017
 20
11.393170
 30
0.0
 10
3.947017
 20
11.393170
 30
0.0
  0
SPLINE
  5
128
100
AcDbEntity
  8
Layer_1
 62
7
100
AcDbSpline
 70
8
 71
3
 72
8
 73
4
 74
0
 40
0
 40
0
 40
0
 40
0
 40
1
 40
1
 40
1
 40
1
 10
5.227745
 20
17.147303
 30
0.0
 10
5.135745
 20
16.943797
 30
0.0
 10
4.965900
 20
16.607708
 30
0.0
 10
4.850312
 20
16.400439
 30
0.0
  0
LWPOLYLINE
  5
129
100
AcDbEntity
  8
Layer_1
 62
7
100
AcDbPolyline
 90
3
 70
0
 10
6.917613
 20
17.518952
 30
0.0
 10
5.395019
 20
17.517315
 30
0.0
 10
5.227745
 20
17.147303
 30
0.0
  0
SPLINE
  5
12a
100
AcDbEntity
  8
Layer_1
 62
7
100
AcDbSpline
 70
8
 71
3
 72
8
 73
4
 74
0
 40
0
 40
0
 40
0
 40
0
 40
1
 40
1
 40
1
 40
1
 10
4.845478
 20
15.729059
 30
0.0
 10
5.186315
 20
15.240147
 30
0.0
 10
5.708156
 20
14.647289
 30
0.0
 10
6.107095
 20
14.295750
 30
0.0
  0
LWPOLYLINE
  5
12b
100
AcDbEntity
  8
Layer_1
 62
7
100
AcDbPolyline
 90
3
 70
0
 10
4.850312
 20
16.400439
 30
0.0
 10
4.640152
 20
16.023587
 30
0.0
 10
4.845478
 20
15.729059
 30
0.0
  0
SPLINE
  5
12c
100
AcDbEntity
  8
Layer_1
 62
7
100
AcDbSpline
 70
8
 71
3
 72
8
 73
4
 74
0
 40
0
 40
0
 40
0
 40
0
 40
1
 40
1
 40
1
 40
1
 10
6.622875
 20
14.123578
 30
0.0
 10
6.699217
 20
14.211586
 30
0.0
 10
6.876939
 20
14.434654
 30
0.0
 10
7.017814
 20
14.619284
 30
0.0
  0
LWPOLYLINE
  5
12d
100
AcDbEntity
  8
Layer_1
 62
7
100
AcDbPolyline
 90
3
 70
0
 10
6.107095
 20
14.295750
 30
0.0
 10
6.484071
 20
13.963563
 30
0.0
 10
6.622875
 20
14.123578
 30
0.0
  0
SPLINE
  5
12e
100
AcDbEntity
  8
Layer_1
 62
7
100
AcDbSpline
 70
8
 71
3
 72
8
 73
4
 74
0
 40
0
 40
0
 40
0
 40
0
 40
1
 40
1
 40
1
 40
1
 10
6.392846
 20
15.494467
 30
0.0
 10
6.287190
 20
15.619752
 30
0.0
 10
6.036812
 20
15.862528
 30
0.0
 10
5.836450
 20
16.033969
 30
0.0
  0
LWPOLYLINE
  5
12f
100
AcDbEntity
  8
Layer_1
 62
7
100
AcDbPolyline
 90
2
 70
0
 10
7.017814
 20
14.619284
 30
0.0
 10
7.017814
 20
14.619275
 30
0.0
  0
SPLINE
  5
130
100
AcDbEntity
  8
Layer_1
 62
7
100
AcDbSpline
 70
8
 71
3
 72
8
 73
4
 74
0
 40
0
 40
0
 40
0
 40
0
 40
1
 40
1
 40
1
 40
1
 10
5.719684
 20
16.597449
 30
0.0
 10
5.855824
 20
16.735921
 30
0.0
 10
5.986468
 20
16.849217
 30
0.0
 10
6.010005
 20
16.849217
 30
0.0
  0
SPLINE
  5
131
100
AcDbEntity
  8
Layer_1
 62
7
100
AcDbSpline
 70
8
 71
3
 72
8
 73
4
 74
0
 40
0
 40
0
 40
0
 40
0
 40
1
 40
1
 40
1
 40
1
 10
6.010005
 20
16.849217
 30
0.0
 10
6.074820
 20
16.849217
 30
0.0
 10
6.611580
 20
16.408297
 30
0.0
 10
6.874710
 20
16.138908
 30
0.0
  0
LWPOLYLINE
  5
132
100
AcDbEntity
  8
Layer_1
 62
7
100
AcDbPolyline
 90
3
 70
0
 10
5.836450
 20
16.033969
 30
0.0
 10
5.472157
 20
16.345681
 30
0.0
 10
5.719684
 20
16.597449
 30
0.0
  0
SPLINE
  5
133
100
AcDbEntity
  8
Layer_1
 62
7
100
AcDbSpline
 70
8
 71
3
 72
8
 73
4
 74
0
 40
0
 40
0
 40
0
 40
0
 40
1
 40
1
 40
1
 40
1
 10
6.874710
 20
15.585572
 30
0.0
 10
6.746647
 20
15.412348
 30
0.0
 10
6.629061
 20
15.269732
 30
0.0
 10
6.613408
 20
15.268648
 30
0.0
  0
SPLINE
  5
134
100
AcDbEntity
  8
Layer_1
 62
7
100
AcDbSpline
 70
8
 71
3
 72
8
 73
4
 74
0
 40
0
 40
0
 40
0
 40
0
 40
1
 40
1
 40
1
 40
1
 10
6.613408
 20
15.268648
 30
0.0
 10
6.597756
 20
15.267576
 30
0.0
 10
6.498502
 20
15.369183
 30
0.0
 10
6.392846
 20
15.494467
 30
0.0
  0
LWPOLYLINE
  5
135
100
AcDbEntity
  8
Layer_1
 62
7
100
AcDbPolyline
 90
3
 70
0
 10
6.874710
 20
16.138908
 30
0.0
 10
7.107552
 20
15.900527
 30
0.0
 10
6.874710
 20
15.585572
 30
0.0
  0
LWPOLYLINE
  5
136
100
AcDbEntity
  8
Layer_1
 62
7
100
AcDbPolyline
 90
2
 70
0
 10
6.392846
 20
15.494467
 30
0.0
 10
6.392846
 20
15.494467
 30
0.0
  0
SPLINE
  5
137
100
AcDbEntity
  8
Layer_1
 62
7
100
AcDbSpline
 70
8
 71
3
 72
8
 73
4
 74
0
 40
0
 40
0
 40
0
 40
0
 40
1
 40
1
 40
1
 40
1
 10
2.397786
 20
20.302029
 30
0.0
 10
3.663817
 20
20.302029
 30
0.0
 10
4.699661
 20
20.309440
 30
0.0
 10
4.699661
 20
20.318500
 30
0.0
  0
SPLINE
  5
138
100
AcDbEntity
  8
Layer_1
 62
7
100
AcDbSpline
 70
8
 71
3
 72
8
 73
4
 74
0
 40
0
 40
0
 40
0
 40
0
 40
1
 40
1
 40
1
 40
1
 10
4.699661
 20
20.318500
 30
0.0
 10
4.699661
 20
20.366498
 30
0.0
 10
4.508013
 20
20.881921
 30
0.0
 10
4.444495
 20
21.004754
 30
0.0
  0
LWPOLYLINE
  5
139
100
AcDbEntity
  8
Layer_1
 62
7
100
AcDbPolyline
 90
3
 70
0
 10
0.095911
 20
19.894406
 30
0.0
 10
0.095911
 20
20.302029
 30
0.0
 10
2.397786
 20
20.302029
 30
0.0
  0
SPLINE
  5
13a
100
AcDbEntity
  8
Layer_1
 62
7
100
AcDbSpline
 70
8
 71
3
 72
8
 73
4
 74
0
 40
0
 40
0
 40
0
 40
0
 40
1
 40
1
 40
1
 40
1
 10
4.765782
 20
21.276318
 30
0.0
 10
4.983125
 20
21.347100
 30
0.0
 10
5.183635
 20
21.405011
 30
0.0
 10
5.211359
 20
21.405011
 30
0.0
  0
SPLINE
  5
13b
100
AcDbEntity
  8
Layer_1
 62
7
100
AcDbSpline
 70
8
 71
3
 72
8
 73
4
 74
0
 40
0
 40
0
 40
0
 40
0
 40
1
 40
1
 40
1
 40
1
 10
5.211359
 20
21.405011
 30
0.0
 10
5.273824
 20
21.405011
 30
0.0
 10
5.542928
 20
20.906457
 30
0.0
 10
5.660149
 20
20.573563
 30
0.0
  0
LWPOLYLINE
  5
13c
100
AcDbEntity
  8
Layer_1
 62
7
100
AcDbPolyline
 90
3
 70
0
 10
4.444495
 20
21.004754
 30
0.0
 10
4.370612
 20
21.147626
 30
0.0
 10
4.765782
 20
21.276318
 30
0.0
  0
SPLINE
  5
13d
100
AcDbEntity
  8
Layer_1
 62
7
100
AcDbSpline
 70
8
 71
3
 72
8
 73
4
 74
0
 40
0
 40
0
 40
0
 40
0
 40
1
 40
1
 40
1
 40
1
 10
3.816187
 20
22.917914
 30
0.0
 10
3.695458
 20
23.090619
 30
0.0
 10
3.597144
 20
23.247075
 30
0.0
 10
3.597713
 20
23.265593
 30
0.0
  0
SPLINE
  5
13e
100
AcDbEntity
  8
Layer_1
 62
7
100
AcDbSpline
 70
8
 71
3
 72
8
 73
4
 74
0
 40
0
 40
0
 40
0
 40
0
 40
1
 40
1
 40
1
 40
1
 10
3.597713
 20
23.265593
 30
0.0
 10
3.598277
 20
23.284113
 30
0.0
 10
3.720860
 20
23.385583
 30
0.0
 10
3.870109
 20
23.491085
 30
0.0
  0
SPLINE
  5
13f
100
AcDbEntity
  8
Layer_1
 62
7
100
AcDbSpline
 70
8
 71
3
 72
8
 73
4
 74
0
 40
0
 40
0
 40
0
 40
0
 40
1
 40
1
 40
1
 40
1
 10
3.870109
 20
23.491085
 30
0.0
 10
4.272472
 20
23.775512
 30
0.0
 10
5.051325
 20
24.537103
 30
0.0
 10
5.362695
 20
24.950592
 30
0.0
  0
SPLINE
  5
140
100
AcDbEntity
  8
Layer_1
 62
7
100
AcDbSpline
 70
8
 71
3
 72
8
 73
4
 74
0
 40
0
 40
0
 40
0
 40
0
 40
1
 40
1
 40
1
 40
1
 10
5.362695
 20
24.950592
 30
0.0
 10
5.512959
 20
25.150138
 30
0.0
 10
5.725812
 20
25.486346
 30
0.0
 10
5.835702
 20
25.697721
 30
0.0
  0
SPLINE
  5
141
100
AcDbEntity
  8
Layer_1
 62
7
100
AcDbSpline
 70
8
 71
3
 72
8
 73
4
 74
0
 40
0
 40
0
 40
0
 40
0
 40
1
 40
1
 40
1
 40
1
 10
5.835702
 20
25.697721
 30
0.0
 10
6.017373
 20
26.047170
 30
0.0
 10
6.282200
 20
26.741539
 30
0.0
 10
6.282200
 20
26.868431
 30
0.0
  0
SPLINE
  5
142
100
AcDbEntity
  8
Layer_1
 62
7
100
AcDbSpline
 70
8
 71
3
 72
8
 73
4
 74
0
 40
0
 40
0
 40
0
 40
0
 40
1
 40
1
 40
1
 40
1
 10
6.282200
 20
26.868431
 30
0.0
 10
6.282200
 20
26.903792
 30
0.0
 10
5.891658
 20
26.919920
 30
0.0
 10
5.035351
 20
26.919920
 30
0.0
  0
LWPOLYLINE
  5
143
100
AcDbEntity
  8
Layer_1
 62
7
100
AcDbPolyline
 90
10
 70
0
 10
5.660149
 20
20.573563
 30
0.0
 10
5.747321
 20
20.326007
 30
0.0
 10
7.932990
 20
20.313533
 30
0.0
 10
10.118658
 20
20.301061
 30
0.0
 10
10.118658
 20
19.893921
 30
0.0
 10
10.118658
 20
19.486782
 30
0.0
 10
5.107284
 20
19.486782
 30
0.0
 10
0.095911
 20
19.486782
 30
0.0
 10
0.095911
 20
19.894405
 30
0.0
 10
0.095911
 20
19.894406
 30
0.0
  0
SPLINE
  5
144
100
AcDbEntity
  8
Layer_1
 62
7
100
AcDbSpline
 70
8
 71
3
 72
8
 73
4
 74
0
 40
0
 40
0
 40
0
 40
0
 40
1
 40
1
 40
1
 40
1
 10
7.762303
 20
31.008146
 30
0.0
 10
7.919954
 20
31.331247
 30
0.0
 10
8.128808
 20
31.827589
 30
0.0
 10
8.226424
 20
32.111127
 30
0.0
  0
SPLINE
  5
145
100
AcDbEntity
  8
Layer_1
 62
7
100
AcDbSpline
 70
8
 71
3
 72
8
 73
4
 74
0
 40
0
 40
0
 40
0
 40
0
 40
1
 40
1
 40
1
 40
1
 10
8.226424
 20
32.111127
 30
0.0
 10
8.324041
 20
32.394666
 30
0.0
 10
8.421499
 20
32.626652
 30
0.0
 10
8.442998
 20
32.626652
 30
0.0
  0
SPLINE
  5
146
100
AcDbEntity
  8
Layer_1
 62
7
100
AcDbSpline
 70
8
 71
3
 72
8
 73
4
 74
0
 40
0
 40
0
 40
0
 40
0
 40
1
 40
1
 40
1
 40
1
 10
8.442998
 20
32.626652
 30
0.0
 10
8.511214
 20
32.626652
 30
0.0
 10
9.266177
 20
32.440091
 30
0.0
 10
9.288567
 20
32.417701
 30
0.0
  0
SPLINE
  5
147
100
AcDbEntity
  8
Layer_1
 62
7
100
AcDbSpline
 70
8
 71
3
 72
8
 73
4
 74
0
 40
0
 40
0
 40
0
 40
0
 40
1
 40
1
 40
1
 40
1
 10
9.288567
 20
32.417701
 30
0.0
 10
9.327316
 20
32.378953
 30
0.0
 10
8.871708
 20
31.366941
 30
0.0
 10
8.617361
 20
30.926793
 30
0.0
  0
SPLINE
  5
148
100
AcDbEntity
  8
Layer_1
 62
7
100
AcDbSpline
 70
8
 71
3
 72
8
 73
4
 74
0
 40
0
 40
0
 40
0
 40
0
 40
1
 40
1
 40
1
 40
1
 10
8.617361
 20
30.926793
 30
0.0
 10
8.480363
 20
30.689718
 30
0.0
 10
8.361081
 20
30.478859
 30
0.0
 10
8.352289
 20
30.458218
 30
0.0
  0
SPLINE
  5
149
100
AcDbEntity
  8
Layer_1
 62
7
100
AcDbSpline
 70
8
 71
3
 72
8
 73
4
 74
0
 40
0
 40
0
 40
0
 40
0
 40
1
 40
1
 40
1
 40
1
 10
8.352289
 20
30.458218
 30
0.0
 10
8.343498
 20
30.437576
 30
0.0
 10
8.672593
 20
30.420688
 30
0.0
 10
9.083614
 20
30.420688
 30
0.0
  0
LWPOLYLINE
  5
14a
100
AcDbEntity
  8
Layer_1
 62
7
100
AcDbPolyline
 90
15
 70
0
 10
5.035351
 20
26.919920
 30
0.0
 10
3.788502
 20
26.919920
 30
0.0
 10
3.788502
 20
27.303566
 30
0.0
 10
3.788502
 20
27.687212
 30
0.0
 10
5.131262
 20
27.687212
 30
0.0
 10
6.474023
 20
27.687212
 30
0.0
 10
6.474023
 20
28.670304
 30
0.0
 10
6.474023
 20
29.653397
 30
0.0
 10
5.227174
 20
29.653397
 30
0.0
 10
3.980325
 20
29.653397
 30
0.0
 10
3.980325
 20
30.037042
 30
0.0
 10
3.980325
 20
30.420688
 30
0.0
 10
5.727996
 20
30.420688
 30
0.0
 10
7.475667
 20
30.420688
 30
0.0
 10
7.762303
 20
31.008146
 30
0.0
  0
SPLINE
  5
14b
100
AcDbEntity
  8
Layer_1
 62
7
100
AcDbSpline
 70
8
 71
3
 72
8
 73
4
 74
0
 40
0
 40
0
 40
0
 40
0
 40
1
 40
1
 40
1
 40
1
 10
7.288621
 20
28.778204
 30
0.0
 10
7.288254
 20
28.296849
 30
0.0
 10
7.274953
 20
27.854457
 30
0.0
 10
7.259050
 20
27.795112
 30
0.0
  0
LWPOLYLINE
  5
14c
100
AcDbEntity
  8
Layer_1
 62
7
100
AcDbPolyline
 90
7
 70
0
 10
9.083614
 20
30.420688
 30
0.0
 10
9.830924
 20
30.420688
 30
0.0
 10
9.830924
 20
30.037042
 30
0.0
 10
9.830924
 20
29.653397
 30
0.0
 10
8.560097
 20
29.653397
 30
0.0
 10
7.289270
 20
29.653397
 30
0.0
 10
7.288621
 20
28.778204
 30
0.0
  0
SPLINE
  5
14d
100
AcDbEntity
  8
Layer_1
 62
7
100
AcDbSpline
 70
8
 71
3
 72
8
 73
4
 74
0
 40
0
 40
0
 40
0
 40
0
 40
1
 40
1
 40
1
 40
1
 10
8.823859
 20
26.919920
 30
0.0
 10
8.111716
 20
26.919920
 30
0.0
 10
7.529054
 20
26.908651
 30
0.0
 10
7.529054
 20
26.894878
 30
0.0
  0
SPLINE
  5
14e
100
AcDbEntity
  8
Layer_1
 62
7
100
AcDbSpline
 70
8
 71
3
 72
8
 73
4
 74
0
 40
0
 40
0
 40
0
 40
0
 40
1
 40
1
 40
1
 40
1
 10
7.529054
 20
26.894878
 30
0.0
 10
7.529054
 20
26.810542
 30
0.0
 10
7.957983
 20
26.042214
 30
0.0
 10
8.240639
 20
25.620235
 30
0.0
  0
SPLINE
  5
14f
100
AcDbEntity
  8
Layer_1
 62
7
100
AcDbSpline
 70
8
 71
3
 72
8
 73
4
 74
0
 40
0
 40
0
 40
0
 40
0
 40
1
 40
1
 40
1
 40
1
 10
8.240639
 20
25.620235
 30
0.0
 10
8.780108
 20
24.814859
 30
0.0
 10
9.384764
 20
24.180987
 30
0.0
 10
10.033504
 20
23.740740
 30
0.0
  0
SPLINE
  5
150
100
AcDbEntity
  8
Layer_1
 62
7
100
AcDbSpline
 70
8
 71
3
 72
8
 73
4
 74
0
 40
0
 40
0
 40
0
 40
0
 40
1
 40
1
 40
1
 40
1
 10
10.033504
 20
23.740740
 30
0.0
 10
10.158109
 20
23.656182
 30
0.0
 10
10.260614
 20
23.570382
 30
0.0
 10
10.261294
 20
23.550073
 30
0.0
  0
SPLINE
  5
151
100
AcDbEntity
  8
Layer_1
 62
7
100
AcDbSpline
 70
8
 71
3
 72
8
 73
4
 74
0
 40
0
 40
0
 40
0
 40
0
 40
1
 40
1
 40
1
 40
1
 10
10.261294
 20
23.550073
 30
0.0
 10
10.263298
 20
23.489979
 30
0.0
 10
9.832706
 20
22.651861
 30
0.0
 10
9.799819
 20
22.651861
 30
0.0
  0
SPLINE
  5
152
100
AcDbEntity
  8
Layer_1
 62
7
100
AcDbSpline
 70
8
 71
3
 72
8
 73
4
 74
0
 40
0
 40
0
 40
0
 40
0
 40
1
 40
1
 40
1
 40
1
 10
9.799819
 20
22.651861
 30
0.0
 10
9.736213
 20
22.651861
 30
0.0
 10
9.102071
 20
23.201308
 30
0.0
 10
8.830000
 20
23.492153
 30
0.0
  0
SPLINE
  5
153
100
AcDbEntity
  8
Layer_1
 62
7
100
AcDbSpline
 70
8
 71
3
 72
8
 73
4
 74
0
 40
0
 40
0
 40
0
 40
0
 40
1
 40
1
 40
1
 40
1
 10
8.830000
 20
23.492153
 30
0.0
 10
8.249762
 20
24.112431
 30
0.0
 10
7.786848
 20
24.782542
 30
0.0
 10
7.308588
 20
25.694541
 30
0.0
  0
LWPOLYLINE
  5
154
100
AcDbEntity
  8
Layer_1
 62
7
100
AcDbPolyline
 90
7
 70
0
 10
7.259050
 20
27.795112
 30
0.0
 10
7.230134
 20
27.687212
 30
0.0
 10
8.674399
 20
27.687212
 30
0.0
 10
10.118663
 20
27.687212
 30
0.0
 10
10.118663
 20
27.303566
 30
0.0
 10
10.118663
 20
26.919920
 30
0.0
 10
8.823859
 20
26.919920
 30
0.0
  0
SPLINE
  5
155
100
AcDbEntity
  8
Layer_1
 62
7
100
AcDbSpline
 70
8
 71
3
 72
8
 73
4
 74
0
 40
0
 40
0
 40
0
 40
0
 40
1
 40
1
 40
1
 40
1
 10
6.948946
 20
26.126143
 30
0.0
 10
6.495441
 20
25.042850
 30
0.0
 10
6.024730
 20
24.309528
 30
0.0
 10
5.348669
 20
23.633068
 30
0.0
  0
SPLINE
  5
156
100
AcDbEntity
  8
Layer_1
 62
7
100
AcDbSpline
 70
8
 71
3
 72
8
 73
4
 74
0
 40
0
 40
0
 40
0
 40
0
 40
1
 40
1
 40
1
 40
1
 10
5.348669
 20
23.633068
 30
0.0
 10
4.894016
 20
23.178147
 30
0.0
 10
4.188104
 20
22.603905
 30
0.0
 10
4.083524
 20
22.603905
 30
0.0
  0
SPLINE
  5
157
100
AcDbEntity
  8
Layer_1
 62
7
100
AcDbSpline
 70
8
 71
3
 72
8
 73
4
 74
0
 40
0
 40
0
 40
0
 40
0
 40
1
 40
1
 40
1
 40
1
 10
4.083524
 20
22.603905
 30
0.0
 10
4.057221
 20
22.603905
 30
0.0
 10
3.936922
 20
22.745210
 30
0.0
 10
3.816193
 20
22.917915
 30
0.0
  0
LWPOLYLINE
  5
158
100
AcDbEntity
  8
Layer_1
 62
7
100
AcDbPolyline
 90
3
 70
0
 10
7.308588
 20
25.694541
 30
0.0
 10
7.008124
 20
26.267501
 30
0.0
 10
6.948946
 20
26.126143
 30
0.0
  0
LWPOLYLINE
  5
159
100
AcDbEntity
  8
Layer_1
 62
7
100
AcDbPolyline
 90
3
 70
0
 10
3.816193
 20
22.917915
 30
0.0
 10
3.816193
 20
22.917915
 30
0.0
 10
3.816187
 20
22.917914
 30
0.0
  0
LWPOLYLINE
  5
15a
100
AcDbEntity
  8
Layer_1
 62
7
100
AcDbPolyline
 90
18
 70
0
 10
0.383645
 20
28.070857
 30
0.0
 10
0.383645
 20
31.715493
 30
0.0
 10
1.846295
 20
31.715493
 30
0.0
 10
3.308945
 20
31.715493
 30
0.0
 10
3.308945
 20
28.262680
 30
0.0
 10
3.308945
 20
24.809868
 30
0.0
 10
2.901321
 20
24.809868
 30
0.0
 10
2.493697
 20
24.809868
 30
0.0
 10
2.493697
 20
25.170889
 30
0.0
 10
2.493697
 20
25.531910
 30
0.0
 10
1.834306
 20
25.518567
 30
0.0
 10
1.174915
 20
25.505223
 30
0.0
 10
1.161355
 20
24.965722
 30
0.0
 10
1.147796
 20
24.426220
 30
0.0
 10
0.765720
 20
24.426220
 30
0.0
 10
0.383645
 20
24.426220
 30
0.0
 10
0.383645
 20
28.070855
 30
0.0
 10
0.383645
 20
28.070857
 30
0.0
  0
SPLINE
  5
15b
100
AcDbEntity
  8
Layer_1
 62
7
100
AcDbSpline
 70
8
 71
3
 72
8
 73
4
 74
0
 40
0
 40
0
 40
0
 40
0
 40
1
 40
1
 40
1
 40
1
 10
5.298321
 20
31.019064
 30
0.0
 10
5.171750
 20
31.244581
 30
0.0
 10
4.923882
 20
31.608958
 30
0.0
 10
4.747504
 20
31.828789
 30
0.0
  0
LWPOLYLINE
  5
15c
100
AcDbEntity
  8
Layer_1
 62
7
100
AcDbPolyline
 90
10
 70
0
 10
2.493697
 20
28.622348
 30
0.0
 10
2.493697
 20
30.948201
 30
0.0
 10
1.822317
 20
30.948201
 30
0.0
 10
1.150937
 20
30.948201
 30
0.0
 10
1.150937
 20
28.622348
 30
0.0
 10
1.150937
 20
26.296495
 30
0.0
 10
1.822317
 20
26.296495
 30
0.0
 10
2.493697
 20
26.296495
 30
0.0
 10
2.493697
 20
28.622348
 30
0.0
 10
2.493697
 20
28.622348
 30
0.0
  0
SPLINE
  5
15d
100
AcDbEntity
  8
Layer_1
 62
7
100
AcDbSpline
 70
8
 71
3
 72
8
 73
4
 74
0
 40
0
 40
0
 40
0
 40
0
 40
1
 40
1
 40
1
 40
1
 10
5.239151
 20
32.497241
 30
0.0
 10
5.540795
 20
32.212389
 30
0.0
 10
6.282847
 20
31.191567
 30
0.0
 10
6.281879
 20
31.062787
 30
0.0
  0
SPLINE
  5
15e
100
AcDbEntity
  8
Layer_1
 62
7
100
AcDbSpline
 70
8
 71
3
 72
8
 73
4
 74
0
 40
0
 40
0
 40
0
 40
0
 40
1
 40
1
 40
1
 40
1
 10
6.281879
 20
31.062787
 30
0.0
 10
6.281634
 20
31.030437
 30
0.0
 10
5.784388
 20
30.728201
 30
0.0
 10
5.557935
 20
30.622761
 30
0.0
  0
SPLINE
  5
15f
100
AcDbEntity
  8
Layer_1
 62
7
100
AcDbSpline
 70
8
 71
3
 72
8
 73
4
 74
0
 40
0
 40
0
 40
0
 40
0
 40
1
 40
1
 40
1
 40
1
 10
5.557935
 20
30.622761
 30
0.0
 10
5.541718
 20
30.615211
 30
0.0
 10
5.424893
 20
30.793547
 30
0.0
 10
5.298321
 20
31.019064
 30
0.0
  0
LWPOLYLINE
  5
160
100
AcDbEntity
  8
Layer_1
 62
7
100
AcDbPolyline
 90
5
 70
0
 10
4.747504
 20
31.828789
 30
0.0
 10
4.426816
 20
32.228483
 30
0.0
 10
4.761851
 20
32.430035
 30
0.0
 10
5.096885
 20
32.631586
 30
0.0
 10
5.239151
 20
32.497241
 30
0.0
  0
LWPOLYLINE
  5
161
100
AcDbEntity
  8
Layer_1
 62
7
100
AcDbPolyline
 90
3
 70
0
 10
5.298321
 20
31.019064
 30
0.0
 10
5.298321
 20
31.019064
 30
0.0
 10
5.298321
 20
31.019064
 30
0.0
  0
SPLINE
  5
162
100
AcDbEntity
  8
Layer_1
 62
7
100
AcDbSpline
 70
8
 71
3
 72
8
 73
4
 74
0
 40
0
 40
0
 40
0
 40
0
 40
1
 40
1
 40
1
 40
1
 10
33.238028
 20
19.354904
 30
0.0
 10
33.120169
 20
19.727148
 30
0.0
 10
32.793311
 20
20.438201
 30
0.0
 10
32.589230
 20
20.766318
 30
0.0
  0
LWPOLYLINE
  5
163
100
AcDbEntity
  8
Layer_1
 62
7
100
AcDbPolyline
 90
26
 70
0
 10
32.897628
 20
25.529204
 30
0.0
 10
32.897628
 20
28.454503
 30
0.0
 10
30.643709
 20
28.454503
 30
0.0
 10
28.389792
 20
28.454503
 30
0.0
 10
28.389792
 20
28.862127
 30
0.0
 10
28.389792
 20
29.269751
 30
0.0
 10
30.643709
 20
29.269751
 30
0.0
 10
32.897628
 20
29.269751
 30
0.0
 10
32.897628
 20
30.972179
 30
0.0
 10
32.897628
 20
32.674607
 30
0.0
 10
33.305253
 20
32.674607
 30
0.0
 10
33.712875
 20
32.674607
 30
0.0
 10
33.712875
 20
30.972179
 30
0.0
 10
33.712875
 20
29.269751
 30
0.0
 10
36.014750
 20
29.269751
 30
0.0
 10
38.316625
 20
29.269751
 30
0.0
 10
38.316625
 20
28.862127
 30
0.0
 10
38.316625
 20
28.454503
 30
0.0
 10
36.014750
 20
28.454503
 30
0.0
 10
33.712875
 20
28.454503
 30
0.0
 10
33.712875
 20
25.529204
 30
0.0
 10
33.712875
 20
22.603904
 30
0.0
 10
33.305253
 20
22.603904
 30
0.0
 10
32.897628
 20
22.603904
 30
0.0
 10
32.897628
 20
25.529204
 30
0.0
 10
32.897628
 20
25.529204
 30
0.0
  0
SPLINE
  5
164
100
AcDbEntity
  8
Layer_1
 62
7
100
AcDbSpline
 70
8
 71
3
 72
8
 73
4
 74
0
 40
0
 40
0
 40
0
 40
0
 40
1
 40
1
 40
1
 40
1
 10
33.341499
 20
21.103904
 30
0.0
 10
33.469185
 20
20.942383
 30
0.0
 10
33.928157
 20
19.987728
 30
0.0
 10
34.067897
 20
19.593013
 30
0.0
  0
SPLINE
  5
165
100
AcDbEntity
  8
Layer_1
 62
7
100
AcDbSpline
 70
8
 71
3
 72
8
 73
4
 74
0
 40
0
 40
0
 40
0
 40
0
 40
1
 40
1
 40
1
 40
1
 10
34.067897
 20
19.593013
 30
0.0
 10
34.159421
 20
19.334494
 30
0.0
 10
34.176104
 20
19.238116
 30
0.0
 10
34.132060
 20
19.222324
 30
0.0
  0
SPLINE
  5
166
100
AcDbEntity
  8
Layer_1
 62
7
100
AcDbSpline
 70
8
 71
3
 72
8
 73
4
 74
0
 40
0
 40
0
 40
0
 40
0
 40
1
 40
1
 40
1
 40
1
 10
34.132060
 20
19.222324
 30
0.0
 10
33.949335
 20
19.156808
 30
0.0
 10
33.441739
 20
19.008371
 30
0.0
 10
33.398615
 20
19.007843
 30
0.0
  0
SPLINE
  5
167
100
AcDbEntity
  8
Layer_1
 62
7
100
AcDbSpline
 70
8
 71
3
 72
8
 73
4
 74
0
 40
0
 40
0
 40
0
 40
0
 40
1
 40
1
 40
1
 40
1
 10
33.398615
 20
19.007843
 30
0.0
 10
33.370845
 20
19.007505
 30
0.0
 10
33.298573
 20
19.163680
 30
0.0
 10
33.238028
 20
19.354904
 30
0.0
  0
LWPOLYLINE
  5
168
100
AcDbEntity
  8
Layer_1
 62
7
100
AcDbPolyline
 90
5
 70
0
 10
32.589230
 20
20.766318
 30
0.0
 10
32.464505
 20
20.966849
 30
0.0
 10
32.860900
 20
21.088635
 30
0.0
 10
33.257298
 20
21.210420
 30
0.0
 10
33.341499
 20
21.103904
 30
0.0
  0
LWPOLYLINE
  5
169
100
AcDbEntity
  8
Layer_1
 62
7
100
AcDbPolyline
 90
2
 70
0
 10
33.238028
 20
19.354904
 30
0.0
 10
33.238028
 20
19.354904
 30
0.0
  0
SPLINE
  5
16a
100
AcDbEntity
  8
Layer_1
 62
7
100
AcDbSpline
 70
8
 71
3
 72
8
 73
4
 74
0
 40
0
 40
0
 40
0
 40
0
 40
1
 40
1
 40
1
 40
1
 10
37.223200
 20
12.433547
 30
0.0
 10
36.536463
 20
13.583777
 30
0.0
 10
35.592357
 20
14.895020
 30
0.0
 10
34.781572
 20
15.824663
 30
0.0
  0
LWPOLYLINE
  5
16b
100
AcDbEntity
  8
Layer_1
 62
7
100
AcDbPolyline
 90
10
 70
0
 10
28.533657
 20
18.096066
 30
0.0
 10
28.533657
 20
18.479712
 30
0.0
 10
33.353208
 20
18.479712
 30
0.0
 10
38.172760
 20
18.479712
 30
0.0
 10
38.172760
 20
18.096066
 30
0.0
 10
38.172760
 20
17.712420
 30
0.0
 10
33.353208
 20
17.712420
 30
0.0
 10
28.533657
 20
17.712420
 30
0.0
 10
28.533657
 20
18.096066
 30
0.0
 10
28.533657
 20
18.096066
 30
0.0
  0
SPLINE
  5
16c
100
AcDbEntity
  8
Layer_1
 62
7
100
AcDbSpline
 70
8
 71
3
 72
8
 73
4
 74
0
 40
0
 40
0
 40
0
 40
0
 40
1
 40
1
 40
1
 40
1
 10
35.409609
 20
16.357885
 30
0.0
 10
35.802734
 20
15.939811
 30
0.0
 10
36.789953
 20
14.702364
 30
0.0
 10
37.224885
 20
14.082496
 30
0.0
  0
SPLINE
  5
16d
100
AcDbEntity
  8
Layer_1
 62
7
100
AcDbSpline
 70
8
 71
3
 72
8
 73
4
 74
0
 40
0
 40
0
 40
0
 40
0
 40
1
 40
1
 40
1
 40
1
 10
37.224885
 20
14.082496
 30
0.0
 10
37.702022
 20
13.402477
 30
0.0
 10
38.322617
 20
12.429519
 30
0.0
 10
38.305881
 20
12.387731
 30
0.0
  0
SPLINE
  5
16e
100
AcDbEntity
  8
Layer_1
 62
7
100
AcDbSpline
 70
8
 71
3
 72
8
 73
4
 74
0
 40
0
 40
0
 40
0
 40
0
 40
1
 40
1
 40
1
 40
1
 10
38.305881
 20
12.387731
 30
0.0
 10
38.298600
 20
12.369559
 30
0.0
 10
38.152378
 20
12.204347
 30
0.0
 10
37.980936
 20
12.020591
 30
0.0
  0
LWPOLYLINE
  5
16f
100
AcDbEntity
  8
Layer_1
 62
7
100
AcDbPolyline
 90
5
 70
0
 10
34.781572
 20
15.824663
 30
0.0
 10
34.481375
 20
16.168869
 30
0.0
 10
34.804471
 20
16.413346
 30
0.0
 10
35.127571
 20
16.657823
 30
0.0
 10
35.409609
 20
16.357885
 30
0.0
  0
SPLINE
  5
170
100
AcDbEntity
  8
Layer_1
 62
7
100
AcDbSpline
 70
8
 71
3
 72
8
 73
4
 74
0
 40
0
 40
0
 40
0
 40
0
 40
1
 40
1
 40
1
 40
1
 10
28.642067
 20
11.870617
 30
0.0
 10
28.490127
 20
12.007334
 30
0.0
 10
28.359738
 20
12.133461
 30
0.0
 10
28.352313
 20
12.150900
 30
0.0
  0
SPLINE
  5
171
100
AcDbEntity
  8
Layer_1
 62
7
100
AcDbSpline
 70
8
 71
3
 72
8
 73
4
 74
0
 40
0
 40
0
 40
0
 40
0
 40
1
 40
1
 40
1
 40
1
 10
28.352313
 20
12.150900
 30
0.0
 10
28.344890
 20
12.168339
 30
0.0
 10
28.558208
 20
12.417947
 30
0.0
 10
28.826358
 20
12.705584
 30
0.0
  0
SPLINE
  5
172
100
AcDbEntity
  8
Layer_1
 62
7
100
AcDbSpline
 70
8
 71
3
 72
8
 73
4
 74
0
 40
0
 40
0
 40
0
 40
0
 40
1
 40
1
 40
1
 40
1
 10
28.826358
 20
12.705584
 30
0.0
 10
29.797412
 20
13.747198
 30
0.0
 10
30.734748
 20
15.009159
 30
0.0
 10
31.387601
 20
16.153859
 30
0.0
  0
SPLINE
  5
173
100
AcDbEntity
  8
Layer_1
 62
7
100
AcDbSpline
 70
8
 71
3
 72
8
 73
4
 74
0
 40
0
 40
0
 40
0
 40
0
 40
1
 40
1
 40
1
 40
1
 10
31.387601
 20
16.153859
 30
0.0
 10
31.538031
 20
16.417615
 30
0.0
 10
31.666251
 20
16.639085
 30
0.0
 10
31.672538
 20
16.646014
 30
0.0
  0
SPLINE
  5
174
100
AcDbEntity
  8
Layer_1
 62
7
100
AcDbSpline
 70
8
 71
3
 72
8
 73
4
 74
0
 40
0
 40
0
 40
0
 40
0
 40
1
 40
1
 40
1
 40
1
 10
31.672538
 20
16.646014
 30
0.0
 10
31.678832
 20
16.652943
 30
0.0
 10
31.848292
 20
16.567068
 30
0.0
 10
32.049130
 20
16.455180
 30
0.0
  0
LWPOLYLINE
  5
175
100
AcDbEntity
  8
Layer_1
 62
7
100
AcDbPolyline
 90
4
 70
0
 10
37.980936
 20
12.020591
 30
0.0
 10
37.669224
 20
11.686490
 30
0.0
 10
37.223200
 20
12.433547
 30
0.0
 10
37.223200
 20
12.433547
 30
0.0
  0
SPLINE
  5
176
100
AcDbEntity
  8
Layer_1
 62
7
100
AcDbSpline
 70
8
 71
3
 72
8
 73
4
 74
0
 40
0
 40
0
 40
0
 40
0
 40
1
 40
1
 40
1
 40
1
 10
32.288982
 20
16.034958
 30
0.0
 10
31.700013
 20
15.016025
 30
0.0
 10
30.880287
 20
13.805326
 30
0.0
 10
30.228647
 20
12.991934
 30
0.0
  0
SPLINE
  5
177
100
AcDbEntity
  8
Layer_1
 62
7
100
AcDbSpline
 70
8
 71
3
 72
8
 73
4
 74
0
 40
0
 40
0
 40
0
 40
0
 40
1
 40
1
 40
1
 40
1
 10
30.228647
 20
12.991934
 30
0.0
 10
29.786687
 20
12.440271
 30
0.0
 10
29.029121
 20
11.622042
 30
0.0
 10
28.960318
 20
11.622042
 30
0.0
  0
SPLINE
  5
178
100
AcDbEntity
  8
Layer_1
 62
7
100
AcDbSpline
 70
8
 71
3
 72
8
 73
4
 74
0
 40
0
 40
0
 40
0
 40
0
 40
1
 40
1
 40
1
 40
1
 10
28.960318
 20
11.622042
 30
0.0
 10
28.937204
 20
11.622042
 30
0.0
 10
28.794004
 20
11.733901
 30
0.0
 10
28.642067
 20
11.870617
 30
0.0
  0
LWPOLYLINE
  5
179
100
AcDbEntity
  8
Layer_1
 62
7
100
AcDbPolyline
 90
3
 70
0
 10
32.049130
 20
16.455180
 30
0.0
 10
32.414292
 20
16.251748
 30
0.0
 10
32.288982
 20
16.034958
 30
0.0
  0
LWPOLYLINE
  5
17a
100
AcDbEntity
  8
Layer_1
 62
7
100
AcDbPolyline
 90
3
 70
0
 10
28.642067
 20
11.870617
 30
0.0
 10
28.642067
 20
11.870617
 30
0.0
 10
28.642067
 20
11.870617
 30
0.0
  0
SPLINE
  5
17b
100
AcDbEntity
  8
Layer_1
 62
7
100
AcDbSpline
 70
8
 71
3
 72
8
 73
4
 74
0
 40
0
 40
0
 40
0
 40
0
 40
1
 40
1
 40
1
 40
1
 10
32.882185
 20
9.169647
 30
0.0
 10
32.867086
 20
9.245114
 30
0.0
 10
32.796782
 20
9.429271
 30
0.0
 10
32.725944
 20
9.578884
 30
0.0
  0
SPLINE
  5
17c
100
AcDbEntity
  8
Layer_1
 62
7
100
AcDbSpline
 70
8
 71
3
 72
8
 73
4
 74
0
 40
0
 40
0
 40
0
 40
0
 40
1
 40
1
 40
1
 40
1
 10
32.725944
 20
9.578884
 30
0.0
 10
32.655106
 20
9.728498
 30
0.0
 10
32.605413
 20
9.858036
 30
0.0
 10
32.615513
 20
9.866747
 30
0.0
  0
SPLINE
  5
17d
100
AcDbEntity
  8
Layer_1
 62
7
100
AcDbSpline
 70
8
 71
3
 72
8
 73
4
 74
0
 40
0
 40
0
 40
0
 40
0
 40
1
 40
1
 40
1
 40
1
 10
32.615513
 20
9.866747
 30
0.0
 10
32.625617
 20
9.875456
 30
0.0
 10
32.815445
 20
9.942419
 30
0.0
 10
33.037359
 20
10.015550
 30
0.0
  0
SPLINE
  5
17e
100
AcDbEntity
  8
Layer_1
 62
7
100
AcDbSpline
 70
8
 71
3
 72
8
 73
4
 74
0
 40
0
 40
0
 40
0
 40
0
 40
1
 40
1
 40
1
 40
1
 10
33.037359
 20
10.015550
 30
0.0
 10
33.430021
 20
10.144951
 30
0.0
 10
33.442710
 20
10.146090
 30
0.0
 10
33.510674
 20
10.058042
 30
0.0
  0
SPLINE
  5
17f
100
AcDbEntity
  8
Layer_1
 62
7
100
AcDbSpline
 70
8
 71
3
 72
8
 73
4
 74
0
 40
0
 40
0
 40
0
 40
0
 40
1
 40
1
 40
1
 40
1
 10
33.510674
 20
10.058042
 30
0.0
 10
33.602964
 20
9.938484
 30
0.0
 10
33.888449
 20
9.329717
 30
0.0
 10
33.930158
 20
9.163532
 30
0.0
  0
LWPOLYLINE
  5
180
100
AcDbEntity
  8
Layer_1
 62
7
100
AcDbPolyline
 90
5
 70
0
 10
28.341834
 20
8.624809
 30
0.0
 10
28.341834
 20
9.032433
 30
0.0
 10
30.625725
 20
9.032433
 30
0.0
 10
32.909617
 20
9.032433
 30
0.0
 10
32.882185
 20
9.169647
 30
0.0
  0
LWPOLYLINE
  5
181
100
AcDbEntity
  8
Layer_1
 62
7
100
AcDbPolyline
 90
10
 70
0
 10
33.930158
 20
9.163532
 30
0.0
 10
33.963062
 20
9.032433
 30
0.0
 10
36.163826
 20
9.032433
 30
0.0
 10
38.364592
 20
9.032433
 30
0.0
 10
38.364592
 20
8.624809
 30
0.0
 10
38.364592
 20
8.217186
 30
0.0
 10
33.353217
 20
8.217186
 30
0.0
 10
28.341842
 20
8.217186
 30
0.0
 10
28.341842
 20
8.624809
 30
0.0
 10
28.341834
 20
8.624809
 30
0.0
  0
SPLINE
  5
182
100
AcDbEntity
  8
Layer_1
 62
7
100
AcDbSpline
 70
8
 71
3
 72
8
 73
4
 74
0
 40
0
 40
0
 40
0
 40
0
 40
1
 40
1
 40
1
 40
1
 10
32.048142
 20
0.974928
 30
0.0
 10
32.488251
 20
1.132307
 30
0.0
 10
33.151171
 20
1.474007
 30
0.0
 10
33.546226
 20
1.747108
 30
0.0
  0
SPLINE
  5
183
100
AcDbEntity
  8
Layer_1
 62
7
100
AcDbSpline
 70
8
 71
3
 72
8
 73
4
 74
0
 40
0
 40
0
 40
0
 40
0
 40
1
 40
1
 40
1
 40
1
 10
33.546226
 20
1.747108
 30
0.0
 10
34.135963
 20
2.154792
 30
0.0
 10
34.140854
 20
2.076800
 30
0.0
 10
33.484416
 20
2.732837
 30
0.0
  0
SPLINE
  5
184
100
AcDbEntity
  8
Layer_1
 62
7
100
AcDbSpline
 70
8
 71
3
 72
8
 73
4
 74
0
 40
0
 40
0
 40
0
 40
0
 40
1
 40
1
 40
1
 40
1
 10
33.484416
 20
2.732837
 30
0.0
 10
33.041141
 20
3.175847
 30
0.0
 10
32.530816
 20
3.757253
 30
0.0
 10
32.336740
 20
4.040370
 30
0.0
  0
SPLINE
  5
185
100
AcDbEntity
  8
Layer_1
 62
7
100
AcDbSpline
 70
8
 71
3
 72
8
 73
4
 74
0
 40
0
 40
0
 40
0
 40
0
 40
1
 40
1
 40
1
 40
1
 10
32.336740
 20
4.040370
 30
0.0
 10
32.329459
 20
4.050981
 30
0.0
 10
32.275108
 20
3.997040
 30
0.0
 10
32.215955
 20
3.920479
 30
0.0
  0
SPLINE
  5
186
100
AcDbEntity
  8
Layer_1
 62
7
100
AcDbSpline
 70
8
 71
3
 72
8
 73
4
 74
0
 40
0
 40
0
 40
0
 40
0
 40
1
 40
1
 40
1
 40
1
 10
32.215955
 20
3.920479
 30
0.0
 10
32.156804
 20
3.843920
 30
0.0
 10
32.016184
 20
3.684171
 30
0.0
 10
31.903464
 20
3.565480
 30
0.0
  0
LWPOLYLINE
  5
187
100
AcDbEntity
  8
Layer_1
 62
7
100
AcDbPolyline
 90
3
 70
0
 10
31.975253
 20
0.449103
 30
0.0
 10
31.750147
 20
0.868367
 30
0.0
 10
32.048142
 20
0.974928
 30
0.0
  0
SPLINE
  5
188
100
AcDbEntity
  8
Layer_1
 62
7
100
AcDbSpline
 70
8
 71
3
 72
8
 73
4
 74
0
 40
0
 40
0
 40
0
 40
0
 40
1
 40
1
 40
1
 40
1
 10
31.534046
 20
4.362346
 30
0.0
 10
32.175885
 20
5.183430
 30
0.0
 10
32.745909
 20
6.211400
 30
0.0
 10
33.139769
 20
7.258071
 30
0.0
  0
SPLINE
  5
189
100
AcDbEntity
  8
Layer_1
 62
7
100
AcDbSpline
 70
8
 71
3
 72
8
 73
4
 74
0
 40
0
 40
0
 40
0
 40
0
 40
1
 40
1
 40
1
 40
1
 10
33.139769
 20
7.258071
 30
0.0
 10
33.253909
 20
7.561391
 30
0.0
 10
33.354304
 20
7.818836
 30
0.0
 10
33.362869
 20
7.830171
 30
0.0
  0
SPLINE
  5
18a
100
AcDbEntity
  8
Layer_1
 62
7
100
AcDbSpline
 70
8
 71
3
 72
8
 73
4
 74
0
 40
0
 40
0
 40
0
 40
0
 40
1
 40
1
 40
1
 40
1
 10
33.362869
 20
7.830171
 30
0.0
 10
33.378137
 20
7.850359
 30
0.0
 10
34.088482
 20
7.696368
 30
0.0
 10
34.153534
 20
7.658773
 30
0.0
  0
SPLINE
  5
18b
100
AcDbEntity
  8
Layer_1
 62
7
100
AcDbSpline
 70
8
 71
3
 72
8
 73
4
 74
0
 40
0
 40
0
 40
0
 40
0
 40
1
 40
1
 40
1
 40
1
 10
34.153534
 20
7.658773
 30
0.0
 10
34.171709
 20
7.648271
 30
0.0
 10
34.144729
 20
7.518071
 30
0.0
 10
34.093590
 20
7.369435
 30
0.0
  0
SPLINE
  5
18c
100
AcDbEntity
  8
Layer_1
 62
7
100
AcDbSpline
 70
8
 71
3
 72
8
 73
4
 74
0
 40
0
 40
0
 40
0
 40
0
 40
1
 40
1
 40
1
 40
1
 10
34.093590
 20
7.369435
 30
0.0
 10
34.042452
 20
7.220800
 30
0.0
 10
34.000612
 20
7.070197
 30
0.0
 10
34.000612
 20
7.034763
 30
0.0
  0
SPLINE
  5
18d
100
AcDbEntity
  8
Layer_1
 62
7
100
AcDbSpline
 70
8
 71
3
 72
8
 73
4
 74
0
 40
0
 40
0
 40
0
 40
0
 40
1
 40
1
 40
1
 40
1
 10
34.000612
 20
7.034763
 30
0.0
 10
34.000612
 20
6.981977
 30
0.0
 10
34.325535
 20
6.970337
 30
0.0
 10
35.798952
 20
6.970337
 30
0.0
  0
LWPOLYLINE
  5
18e
100
AcDbEntity
  8
Layer_1
 62
7
100
AcDbPolyline
 90
5
 70
0
 10
31.903464
 20
3.565480
 30
0.0
 10
31.698523
 20
3.349679
 30
0.0
 10
31.442914
 20
3.634224
 30
0.0
 10
31.187303
 20
3.918771
 30
0.0
 10
31.534046
 20
4.362346
 30
0.0
  0
SPLINE
  5
18f
100
AcDbEntity
  8
Layer_1
 62
7
100
AcDbSpline
 70
8
 71
3
 72
8
 73
4
 74
0
 40
0
 40
0
 40
0
 40
0
 40
1
 40
1
 40
1
 40
1
 10
37.597292
 20
6.663676
 30
0.0
 10
37.597292
 20
6.312252
 30
0.0
 10
37.497123
 20
5.956470
 30
0.0
 10
37.159983
 20
5.110426
 30
0.0
  0
SPLINE
  5
190
100
AcDbEntity
  8
Layer_1
 62
7
100
AcDbSpline
 70
8
 71
3
 72
8
 73
4
 74
0
 40
0
 40
0
 40
0
 40
0
 40
1
 40
1
 40
1
 40
1
 10
37.159983
 20
5.110426
 30
0.0
 10
36.707716
 20
3.975470
 30
0.0
 10
36.203083
 20
3.111142
 30
0.0
 10
35.633039
 20
2.495107
 30
0.0
  0
SPLINE
  5
191
100
AcDbEntity
  8
Layer_1
 62
7
100
AcDbSpline
 70
8
 71
3
 72
8
 73
4
 74
0
 40
0
 40
0
 40
0
 40
0
 40
1
 40
1
 40
1
 40
1
 10
35.633039
 20
2.495107
 30
0.0
 10
35.380910
 20
2.222633
 30
0.0
 10
35.374699
 20
2.209560
 30
0.0
 10
35.465196
 20
2.141934
 30
0.0
  0
SPLINE
  5
192
100
AcDbEntity
  8
Layer_1
 62
7
100
AcDbSpline
 70
8
 71
3
 72
8
 73
4
 74
0
 40
0
 40
0
 40
0
 40
0
 40
1
 40
1
 40
1
 40
1
 10
35.465196
 20
2.141934
 30
0.0
 10
35.866519
 20
1.842048
 30
0.0
 10
37.138144
 20
1.212822
 30
0.0
 10
37.825720
 20
0.973898
 30
0.0
  0
LWPOLYLINE
  5
193
100
AcDbEntity
  8
Layer_1
 62
7
100
AcDbPolyline
 90
3
 70
0
 10
35.798952
 20
6.970337
 30
0.0
 10
37.597292
 20
6.970337
 30
0.0
 10
37.597292
 20
6.663676
 30
0.0
  0
SPLINE
  5
194
100
AcDbEntity
  8
Layer_1
 62
7
100
AcDbSpline
 70
8
 71
3
 72
8
 73
4
 74
0
 40
0
 40
0
 40
0
 40
0
 40
1
 40
1
 40
1
 40
1
 10
38.093994
 20
0.502068
 30
0.0
 10
37.802761
 20
-0.023382
 30
0.0
 10
37.872890
 20
0.005608
 30
0.0
 10
37.381490
 20
0.207510
 30
0.0
  0
SPLINE
  5
195
100
AcDbEntity
  8
Layer_1
 62
7
100
AcDbSpline
 70
8
 71
3
 72
8
 73
4
 74
0
 40
0
 40
0
 40
0
 40
0
 40
1
 40
1
 40
1
 40
1
 10
37.381490
 20
0.207510
 30
0.0
 10
36.578955
 20
0.537247
 30
0.0
 10
35.825803
 20
0.942230
 30
0.0
 10
34.861046
 20
1.562800
 30
0.0
  0
SPLINE
  5
196
100
AcDbEntity
  8
Layer_1
 62
7
100
AcDbSpline
 70
8
 71
3
 72
8
 73
4
 74
0
 40
0
 40
0
 40
0
 40
0
 40
1
 40
1
 40
1
 40
1
 10
34.861046
 20
1.562800
 30
0.0
 10
34.802741
 20
1.600302
 30
0.0
 10
34.696061
 20
1.538529
 30
0.0
 10
34.375113
 20
1.281371
 30
0.0
  0
SPLINE
  5
197
100
AcDbEntity
  8
Layer_1
 62
7
100
AcDbSpline
 70
8
 71
3
 72
8
 73
4
 74
0
 40
0
 40
0
 40
0
 40
0
 40
1
 40
1
 40
1
 40
1
 10
34.375113
 20
1.281371
 30
0.0
 10
33.878495
 20
0.883480
 30
0.0
 10
33.108161
 20
0.415174
 30
0.0
 10
32.584960
 20
0.193091
 30
0.0
  0
LWPOLYLINE
  5
198
100
AcDbEntity
  8
Layer_1
 62
7
100
AcDbPolyline
 90
3
 70
0
 10
37.825720
 20
0.973898
 30
0.0
 10
38.269951
 20
0.819534
 30
0.0
 10
38.093994
 20
0.502068
 30
0.0
  0
SPLINE
  5
199
100
AcDbEntity
  8
Layer_1
 62
7
100
AcDbSpline
 70
8
 71
3
 72
8
 73
4
 74
0
 40
0
 40
0
 40
0
 40
0
 40
1
 40
1
 40
1
 40
1
 10
35.195583
 20
3.277746
 30
0.0
 10
35.522143
 20
3.708739
 30
0.0
 10
35.802076
 20
4.151243
 30
0.0
 10
36.014973
 20
4.572988
 30
0.0
  0
SPLINE
  5
19a
100
AcDbEntity
  8
Layer_1
 62
7
100
AcDbSpline
 70
8
 71
3
 72
8
 73
4
 74
0
 40
0
 40
0
 40
0
 40
0
 40
1
 40
1
 40
1
 40
1
 10
36.014973
 20
4.572988
 30
0.0
 10
36.193448
 20
4.926544
 30
0.0
 10
36.560732
 20
5.824843
 30
0.0
 10
36.631276
 20
6.080328
 30
0.0
  0
LWPOLYLINE
  5
19b
100
AcDbEntity
  8
Layer_1
 62
7
100
AcDbPolyline
 90
5
 70
0
 10
32.584960
 20
0.193091
 30
0.0
 10
32.200359
 20
0.029839
 30
0.0
 10
31.975253
 20
0.449103
 30
0.0
 10
31.975253
 20
0.449103
 30
0.0
 10
31.975253
 20
0.449103
 30
0.0
  0
SPLINE
  5
19c
100
AcDbEntity
  8
Layer_1
 62
7
100
AcDbSpline
 70
8
 71
3
 72
8
 73
4
 74
0
 40
0
 40
0
 40
0
 40
0
 40
1
 40
1
 40
1
 40
1
 10
33.500658
 20
5.951277
 30
0.0
 10
33.429795
 20
5.786430
 30
0.0
 10
33.265121
 20
5.462898
 30
0.0
 10
33.134721
 20
5.232319
 30
0.0
  0
SPLINE
  5
19d
100
AcDbEntity
  8
Layer_1
 62
7
100
AcDbSpline
 70
8
 71
3
 72
8
 73
4
 74
0
 40
0
 40
0
 40
0
 40
0
 40
1
 40
1
 40
1
 40
1
 10
33.134721
 20
5.232319
 30
0.0
 10
33.004320
 20
5.001740
 30
0.0
 10
32.897628
 20
4.782084
 30
0.0
 10
32.897628
 20
4.744195
 30
0.0
  0
SPLINE
  5
19e
100
AcDbEntity
  8
Layer_1
 62
7
100
AcDbSpline
 70
8
 71
3
 72
8
 73
4
 74
0
 40
0
 40
0
 40
0
 40
0
 40
1
 40
1
 40
1
 40
1
 10
32.897628
 20
4.744195
 30
0.0
 10
32.897628
 20
4.657402
 30
0.0
 10
33.526837
 20
3.822556
 30
0.0
 10
33.865349
 20
3.460205
 30
0.0
  0
SPLINE
  5
19f
100
AcDbEntity
  8
Layer_1
 62
7
100
AcDbSpline
 70
8
 71
3
 72
8
 73
4
 74
0
 40
0
 40
0
 40
0
 40
0
 40
1
 40
1
 40
1
 40
1
 10
33.865349
 20
3.460205
 30
0.0
 10
34.005684
 20
3.309987
 30
0.0
 10
34.248279
 20
3.077710
 30
0.0
 10
34.404452
 20
2.944029
 30
0.0
  0
LWPOLYLINE
  5
1a0
100
AcDbEntity
  8
Layer_1
 62
7
100
AcDbPolyline
 90
5
 70
0
 10
36.631276
 20
6.080328
 30
0.0
 10
36.678402
 20
6.251001
 30
0.0
 10
35.153953
 20
6.251001
 30
0.0
 10
33.629501
 20
6.251001
 30
0.0
 10
33.500658
 20
5.951277
 30
0.0
  0
SPLINE
  5
1a1
100
AcDbEntity
  8
Layer_1
 62
7
100
AcDbSpline
 70
8
 71
3
 72
8
 73
4
 74
0
 40
0
 40
0
 40
0
 40
0
 40
1
 40
1
 40
1
 40
1
 10
34.805736
 20
2.809525
 30
0.0
 10
34.870269
 20
2.869229
 30
0.0
 10
35.045701
 20
3.079928
 30
0.0
 10
35.195583
 20
3.277746
 30
0.0
  0
LWPOLYLINE
  5
1a2
100
AcDbEntity
  8
Layer_1
 62
7
100
AcDbPolyline
 90
3
 70
0
 10
34.404452
 20
2.944029
 30
0.0
 10
34.688402
 20
2.700974
 30
0.0
 10
34.805736
 20
2.809525
 30
0.0
  0
LWPOLYLINE
  5
1a3
100
AcDbEntity
  8
Layer_1
 62
7
100
AcDbPolyline
 90
2
 70
0
 10
35.195583
 20
3.277746
 30
0.0
 10
35.195583
 20
3.277746
 30
0.0
  0
SPLINE
  5
1a4
100
AcDbEntity
  8
Layer_1
 62
7
100
AcDbSpline
 70
8
 71
3
 72
8
 73
4
 74
0
 40
0
 40
0
 40
0
 40
0
 40
1
 40
1
 40
1
 40
1
 10
34.489588
 20
5.398191
 30
0.0
 10
34.902174
 20
5.078524
 30
0.0
 10
35.312627
 20
4.639500
 30
0.0
 10
35.268256
 20
4.565325
 30
0.0
  0
SPLINE
  5
1a5
100
AcDbEntity
  8
Layer_1
 62
7
100
AcDbSpline
 70
8
 71
3
 72
8
 73
4
 74
0
 40
0
 40
0
 40
0
 40
0
 40
1
 40
1
 40
1
 40
1
 10
35.268256
 20
4.565325
 30
0.0
 10
35.169534
 20
4.400293
 30
0.0
 10
34.849071
 20
3.997940
 30
0.0
 10
34.822085
 20
4.005140
 30
0.0
  0
SPLINE
  5
1a6
100
AcDbEntity
  8
Layer_1
 62
7
100
AcDbSpline
 70
8
 71
3
 72
8
 73
4
 74
0
 40
0
 40
0
 40
0
 40
0
 40
1
 40
1
 40
1
 40
1
 10
34.822085
 20
4.005140
 30
0.0
 10
34.805462
 20
4.009571
 30
0.0
 10
34.550446
 20
4.254410
 30
0.0
 10
34.255357
 20
4.549221
 30
0.0
  0
LWPOLYLINE
  5
1a7
100
AcDbEntity
  8
Layer_1
 62
7
100
AcDbPolyline
 90
5
 70
0
 10
34.255357
 20
4.549221
 30
0.0
 10
33.718833
 20
5.085244
 30
0.0
 10
33.977044
 20
5.340246
 30
0.0
 10
34.235252
 20
5.595248
 30
0.0
 10
34.489588
 20
5.398191
 30
0.0
  0
LWPOLYLINE
  5
1a8
100
AcDbEntity
  8
Layer_1
 62
7
100
AcDbPolyline
 90
3
 70
0
 10
34.255357
 20
4.549221
 30
0.0
 10
34.255357
 20
4.549221
 30
0.0
 10
34.255357
 20
4.549221
 30
0.0
  0
SPLINE
  5
1a9
100
AcDbEntity
  8
Layer_1
 62
7
100
AcDbSpline
 70
8
 71
3
 72
8
 73
4
 74
0
 40
0
 40
0
 40
0
 40
0
 40
1
 40
1
 40
1
 40
1
 10
29.409511
 20
3.603828
 30
0.0
 10
29.271409
 20
3.411296
 30
0.0
 10
29.044818
 20
3.127612
 30
0.0
 10
28.905979
 20
2.973420
 30
0.0
  0
LWPOLYLINE
  5
1aa
100
AcDbEntity
  8
Layer_1
 62
7
100
AcDbPolyline
 90
3
 70
0
 10
29.673144
 20
2.009301
 30
0.0
 10
29.660613
 20
3.953891
 30
0.0
 10
29.409511
 20
3.603828
 30
0.0
  0
SPLINE
  5
1ab
100
AcDbEntity
  8
Layer_1
 62
7
100
AcDbSpline
 70
8
 71
3
 72
8
 73
4
 74
0
 40
0
 40
0
 40
0
 40
0
 40
1
 40
1
 40
1
 40
1
 10
28.518815
 20
3.860425
 30
0.0
 10
29.387916
 20
5.005725
 30
0.0
 10
30.120251
 20
6.320732
 30
0.0
 10
30.524487
 20
7.461883
 30
0.0
  0
SPLINE
  5
1ac
100
AcDbEntity
  8
Layer_1
 62
7
100
AcDbSpline
 70
8
 71
3
 72
8
 73
4
 74
0
 40
0
 40
0
 40
0
 40
0
 40
1
 40
1
 40
1
 40
1
 10
30.524487
 20
7.461883
 30
0.0
 10
30.596896
 20
7.666294
 30
0.0
 10
30.681509
 20
7.833540
 30
0.0
 10
30.712514
 20
7.833540
 30
0.0
  0
SPLINE
  5
1ad
100
AcDbEntity
  8
Layer_1
 62
7
100
AcDbSpline
 70
8
 71
3
 72
8
 73
4
 74
0
 40
0
 40
0
 40
0
 40
0
 40
1
 40
1
 40
1
 40
1
 10
30.712514
 20
7.833540
 30
0.0
 10
30.743522
 20
7.833540
 30
0.0
 10
30.918760
 20
7.782104
 30
0.0
 10
31.101930
 20
7.719238
 30
0.0
  0
SPLINE
  5
1ae
100
AcDbEntity
  8
Layer_1
 62
7
100
AcDbSpline
 70
8
 71
3
 72
8
 73
4
 74
0
 40
0
 40
0
 40
0
 40
0
 40
1
 40
1
 40
1
 40
1
 10
31.101930
 20
7.719238
 30
0.0
 10
31.321087
 20
7.644023
 30
0.0
 10
31.429779
 20
7.582527
 30
0.0
 10
31.419780
 20
7.539404
 30
0.0
  0
SPLINE
  5
1af
100
AcDbEntity
  8
Layer_1
 62
7
100
AcDbSpline
 70
8
 71
3
 72
8
 73
4
 74
0
 40
0
 40
0
 40
0
 40
0
 40
1
 40
1
 40
1
 40
1
 10
31.419780
 20
7.539404
 30
0.0
 10
31.386975
 20
7.397909
 30
0.0
 10
31.049239
 20
6.582476
 30
0.0
 10
30.805044
 20
6.055172
 30
0.0
  0
LWPOLYLINE
  5
1b0
100
AcDbEntity
  8
Layer_1
 62
7
100
AcDbPolyline
 90
5
 70
0
 10
28.905979
 20
2.973420
 30
0.0
 10
28.653542
 20
2.693075
 30
0.0
 10
28.452448
 20
3.100522
 30
0.0
 10
28.251356
 20
3.507969
 30
0.0
 10
28.518815
 20
3.860425
 30
0.0
  0
LWPOLYLINE
  5
1b1
100
AcDbEntity
  8
Layer_1
 62
7
100
AcDbPolyline
 90
9
 70
0
 10
30.805044
 20
6.055172
 30
0.0
 10
30.547793
 20
5.499676
 30
0.0
 10
30.547793
 20
2.782195
 30
0.0
 10
30.547793
 20
0.064711
 30
0.0
 10
30.116729
 20
0.064711
 30
0.0
 10
29.685666
 20
0.064711
 30
0.0
 10
29.673135
 20
2.009301
 30
0.0
 10
29.673135
 20
2.009301
 30
0.0
 10
29.673144
 20
2.009301
 30
0.0
  0
ENDSEC
  0
SECTION
  2
OBJECTS
  0
DICTIONARY
  5
C
330
0
100
AcDbDictionary
  3
ACAD_GROUP
350
D
  3
ACAD_MLINESTYLE
350
17
  0
DICTIONARY
  5
D
330
C
100
AcDbDictionary
  0
DICTIONARY
  5
1A
330
C
100
AcDbDictionary
  0
DICTIONARY
  5
17
330
C
100
AcDbDictionary
  3
STANDARD
350
18
  0
DICTIONARY
  5
19
330
C
100
AcDbDictionary
  0
ENDSEC
  0
EOF
