  0
SECTION
  2
HEADER
  9
$ACADVER
  1
AC1014
  9
$HANDSEED
  5
FFFF
  9
$MEASUREMENT
 70
     1
  0
ENDSEC
  0
SECTION
  2
TABLES
  0
TABLE
  2
VPORT
  5
8
330
0
100
AcDbSymbolTable
 70
     4
  0
VPORT
  5
2E
330
8
100
AcDbSymbolTableRecord
100
AcDbViewportTableRecord
  2
*ACTIVE
 70
     0
 10
0.0
 20
0.0
 11
1.0
 21
1.0
 12
210.0
 22
148.5
 13
0.0
 23
0.0
 14
10.0
 24
10.0
 15
10.0
 25
10.0
 16
0.0
 26
0.0
 36
1.0
 17
0.0
 27
0.0
 37
0.0
 40
341.0
 41
1.24
 42
50.0
 43
0.0
 44
0.0
 50
0.0
 51
0.0
 71
     0
 72
   100
 73
     1
 74
     3
 75
     0
 76
     0
 77
     0
 78
     0
  0
ENDTAB
  0
TABLE
  2
LTYPE
  5
5
330
0
100
AcDbSymbolTable
 70
     1
  0
LTYPE
  5
14
330
5
100
AcDbSymbolTableRecord
100
AcDbLinetypeTableRecord
  2
BYBLOCK
 70
     0
  3

 72
    65
 73
     0
 40
0.0
  0
LTYPE
  5
15
330
5
100
AcDbSymbolTableRecord
100
AcDbLinetypeTableRecord
  2
BYLAYER
 70
     0
  3

 72
    65
 73
     0
 40
0.0
  0
LTYPE
  5
16
330
5
100
AcDbSymbolTableRecord
100
AcDbLinetypeTableRecord
  2
CONTINUOUS
 70
     0
  3
Solid line
 72
    65
 73
     0
 40
0.0
  0
ENDTAB
  0
TABLE
  2
LAYER
  5
2
100
AcDbSymbolTable
 70
2
  0
LAYER
  5
50
100
AcDbSymbolTableRecord
100
AcDbLayerTableRecord
  2
0
 70
0
  6
CONTINUOUS
  0
LAYER
  5
51
100
AcDbSymbolTableRecord
100
AcDbLayerTableRecord
  2
Layer_1
 70
0
  6
CONTINUOUS
  0
ENDTAB
  0
TABLE
  2
STYLE
  5
3
330
0
100
AcDbSymbolTable
 70
     1
  0
STYLE
  5
11
330
3
100
AcDbSymbolTableRecord
100
AcDbTextStyleTableRecord
  2
STANDARD
 70
     0
 40
0.0
 41
1.0
 50
0.0
 71
     0
 42
2.5
  3
txt
  4

  0
ENDTAB
  0
TABLE
  2
VIEW
  5
6
330
0
100
AcDbSymbolTable
 70
     0
  0
ENDTAB
  0
TABLE
  2
UCS
  5
7
330
0
100
AcDbSymbolTable
 70
     0
  0
ENDTAB
  0
TABLE
  2
APPID
  5
9
330
0
100
AcDbSymbolTable
 70
     2
  0
APPID
  5
12
330
9
100
AcDbSymbolTableRecord
100
AcDbRegAppTableRecord
  2
ACAD
 70
     0
  0
ENDTAB
  0
TABLE
  2
DIMSTYLE
  5
A
330
0
100
AcDbSymbolTable
 70
     1
  0
DIMSTYLE
105
27
330
A
100
AcDbSymbolTableRecord
100
AcDbDimStyleTableRecord
  2
ISO-25
 70
     0
  3

  4

  5

  6

  7

 40
1.0
 41
2.5
 42
0.625
 43
3.75
 44
1.25
 45
0.0
 46
0.0
 47
0.0
 48
0.0
140
2.5
141
2.5
142
0.0
143
0.03937007874016
144
1.0
145
0.0
146
1.0
147
0.625
 71
     0
 72
     0
 73
     0
 74
     0
 75
     0
 76
     0
 77
     1
 78
     8
170
     0
171
     3
172
     1
173
     0
174
     0
175
     0
176
     0
177
     0
178
     0
270
     2
271
     2
272
     2
273
     2
274
     3
340
11
275
     0
280
     0
281
     0
282
     0
283
     0
284
     8
285
     0
286
     0
287
     3
288
     0
  0
ENDTAB
  0
TABLE
  2
BLOCK_RECORD
  5
1
330
0
100
AcDbSymbolTable
 70
     1
  0
BLOCK_RECORD
  5
1F
330
1
100
AcDbSymbolTableRecord
100
AcDbBlockTableRecord
  2
*MODEL_SPACE
  0
BLOCK_RECORD
  5
1B
330
1
100
AcDbSymbolTableRecord
100
AcDbBlockTableRecord
  2
*PAPER_SPACE
  0
ENDTAB
  0
ENDSEC
  0
SECTION
  2
BLOCKS
  0
BLOCK
  5
20
330
1F
100
AcDbEntity
  8
0
100
AcDbBlockBegin
  2
*MODEL_SPACE
 70
     0
 10
0.0
 20
0.0
 30
0.0
  3
*MODEL_SPACE
  1

  0
ENDBLK
  5
21
330
1F
100
AcDbEntity
  8
0
100
AcDbBlockEnd
  0
BLOCK
  5
1C
330
1B
100
AcDbEntity
 67
     1
  8
0
100
AcDbBlockBegin
  2
*PAPER_SPACE
  1

  0
ENDBLK
  5
1D
330
1B
100
AcDbEntity
 67
     1
  8
0
100
AcDbBlockEnd
  0
ENDSEC
  0
SECTION
  2
ENTITIES
  0
SPLINE
  5
100
100
AcDbEntity
  8
Layer_1
 62
7
100
AcDbSpline
 70
8
 71
3
 72
8
 73
4
 74
0
 40
0
 40
0
 40
0
 40
0
 40
1
 40
1
 40
1
 40
1
 10
0.155964
 20
12.102835
 30
0.0
 10
0.741678
 20
12.575236
 30
0.0
 10
0.921790
 20
12.743992
 30
0.0
 10
1.225856
 20
13.105271
 30
0.0
  0
SPLINE
  5
101
100
AcDbEntity
  8
Layer_1
 62
7
100
AcDbSpline
 70
8
 71
3
 72
8
 73
4
 74
0
 40
0
 40
0
 40
0
 40
0
 40
1
 40
1
 40
1
 40
1
 10
1.225856
 20
13.105271
 30
0.0
 10
1.419103
 20
13.334878
 30
0.0
 10
1.668218
 20
13.656747
 30
0.0
 10
1.779445
 20
13.820537
 30
0.0
  0
LWPOLYLINE
  5
102
100
AcDbEntity
  8
Layer_1
 62
7
100
AcDbPolyline
 90
3
 70
0
 10
0.291358
 20
11.667579
 30
0.0
 10
0.047868
 20
12.015650
 30
0.0
 10
0.155964
 20
12.102835
 30
0.0
  0
SPLINE
  5
103
100
AcDbEntity
  8
Layer_1
 62
7
100
AcDbSpline
 70
8
 71
3
 72
8
 73
4
 74
0
 40
0
 40
0
 40
0
 40
0
 40
1
 40
1
 40
1
 40
1
 10
1.506955
 20
14.581565
 30
0.0
 10
1.245859
 20
14.836342
 30
0.0
 10
0.897154
 20
15.162982
 30
0.0
 10
0.732055
 20
15.307432
 30
0.0
  0
LWPOLYLINE
  5
104
100
AcDbEntity
  8
Layer_1
 62
7
100
AcDbPolyline
 90
3
 70
0
 10
1.779445
 20
13.820537
 30
0.0
 10
1.981675
 20
14.118334
 30
0.0
 10
1.506955
 20
14.581565
 30
0.0
  0
SPLINE
  5
105
100
AcDbEntity
  8
Layer_1
 62
7
100
AcDbSpline
 70
8
 71
3
 72
8
 73
4
 74
0
 40
0
 40
0
 40
0
 40
0
 40
1
 40
1
 40
1
 40
1
 10
0.644065
 20
16.313429
 30
0.0
 10
0.901363
 20
17.214820
 30
0.0
 10
1.248283
 20
18.533199
 30
0.0
 10
1.248283
 20
18.609598
 30
0.0
  0
SPLINE
  5
106
100
AcDbEntity
  8
Layer_1
 62
7
100
AcDbSpline
 70
8
 71
3
 72
8
 73
4
 74
0
 40
0
 40
0
 40
0
 40
0
 40
1
 40
1
 40
1
 40
1
 10
1.248283
 20
18.609598
 30
0.0
 10
1.248283
 20
18.648815
 30
0.0
 10
1.064732
 20
18.665153
 30
0.0
 10
0.624142
 20
18.665153
 30
0.0
  0
LWPOLYLINE
  5
107
100
AcDbEntity
  8
Layer_1
 62
7
100
AcDbPolyline
 90
3
 70
0
 10
0.732055
 20
15.307432
 30
0.0
 10
0.431876
 20
15.570068
 30
0.0
 10
0.644065
 20
16.313429
 30
0.0
  0
SPLINE
  5
108
100
AcDbEntity
  8
Layer_1
 62
7
100
AcDbSpline
 70
8
 71
3
 72
8
 73
4
 74
0
 40
0
 40
0
 40
0
 40
0
 40
1
 40
1
 40
1
 40
1
 10
0.719249
 20
19.481338
 30
0.0
 10
1.425595
 20
19.481338
 30
0.0
 10
1.438953
 20
19.483276
 30
0.0
 10
1.463923
 20
19.589362
 30
0.0
  0
SPLINE
  5
109
100
AcDbEntity
  8
Layer_1
 62
7
100
AcDbSpline
 70
8
 71
3
 72
8
 73
4
 74
0
 40
0
 40
0
 40
0
 40
0
 40
1
 40
1
 40
1
 40
1
 10
1.463923
 20
19.589362
 30
0.0
 10
1.512784
 20
19.796958
 30
0.0
 10
1.872424
 20
21.415553
 30
0.0
 10
1.872424
 20
21.427861
 30
0.0
  0
SPLINE
  5
10a
100
AcDbEntity
  8
Layer_1
 62
7
100
AcDbSpline
 70
8
 71
3
 72
8
 73
4
 74
0
 40
0
 40
0
 40
0
 40
0
 40
1
 40
1
 40
1
 40
1
 10
1.872424
 20
21.427861
 30
0.0
 10
1.872424
 20
21.455441
 30
0.0
 10
2.523684
 20
21.292457
 30
0.0
 10
2.563923
 20
21.254807
 30
0.0
  0
SPLINE
  5
10b
100
AcDbEntity
  8
Layer_1
 62
7
100
AcDbSpline
 70
8
 71
3
 72
8
 73
4
 74
0
 40
0
 40
0
 40
0
 40
0
 40
1
 40
1
 40
1
 40
1
 10
2.563923
 20
21.254807
 30
0.0
 10
2.599374
 20
21.221637
 30
0.0
 10
2.374430
 20
19.908562
 30
0.0
 10
2.274503
 20
19.565357
 30
0.0
  0
SPLINE
  5
10c
100
AcDbEntity
  8
Layer_1
 62
7
100
AcDbSpline
 70
8
 71
3
 72
8
 73
4
 74
0
 40
0
 40
0
 40
0
 40
0
 40
1
 40
1
 40
1
 40
1
 10
2.274503
 20
19.565357
 30
0.0
 10
2.251810
 20
19.487415
 30
0.0
 10
2.316440
 20
19.481338
 30
0.0
 10
3.167986
 20
19.481338
 30
0.0
  0
LWPOLYLINE
  5
10d
100
AcDbEntity
  8
Layer_1
 62
7
100
AcDbPolyline
 90
5
 70
0
 10
0.624142
 20
18.665153
 30
0.0
 10
0.000001
 20
18.665153
 30
0.0
 10
0.000001
 20
19.073245
 30
0.0
 10
0.000001
 20
19.481338
 30
0.0
 10
0.719249
 20
19.481338
 30
0.0
  0
SPLINE
  5
10e
100
AcDbEntity
  8
Layer_1
 62
7
100
AcDbSpline
 70
8
 71
3
 72
8
 73
4
 74
0
 40
0
 40
0
 40
0
 40
0
 40
1
 40
1
 40
1
 40
1
 10
4.055549
 20
19.061243
 30
0.0
 10
3.912582
 20
17.084485
 30
0.0
 10
3.595451
 20
15.521861
 30
0.0
 10
3.115152
 20
14.427543
 30
0.0
  0
LWPOLYLINE
  5
10f
100
AcDbEntity
  8
Layer_1
 62
7
100
AcDbPolyline
 90
3
 70
0
 10
3.167986
 20
19.481338
 30
0.0
 10
4.085933
 20
19.481338
 30
0.0
 10
4.055549
 20
19.061243
 30
0.0
  0
SPLINE
  5
110
100
AcDbEntity
  8
Layer_1
 62
7
100
AcDbSpline
 70
8
 71
3
 72
8
 73
4
 74
0
 40
0
 40
0
 40
0
 40
0
 40
1
 40
1
 40
1
 40
1
 10
3.958465
 20
12.407730
 30
0.0
 10
3.780796
 20
12.271304
 30
0.0
 10
3.618841
 20
12.159683
 30
0.0
 10
3.598564
 20
12.159683
 30
0.0
  0
SPLINE
  5
111
100
AcDbEntity
  8
Layer_1
 62
7
100
AcDbSpline
 70
8
 71
3
 72
8
 73
4
 74
0
 40
0
 40
0
 40
0
 40
0
 40
1
 40
1
 40
1
 40
1
 10
3.598564
 20
12.159683
 30
0.0
 10
3.578287
 20
12.159683
 30
0.0
 10
3.399014
 20
12.375732
 30
0.0
 10
3.200179
 20
12.639791
 30
0.0
  0
SPLINE
  5
112
100
AcDbEntity
  8
Layer_1
 62
7
100
AcDbSpline
 70
8
 71
3
 72
8
 73
4
 74
0
 40
0
 40
0
 40
0
 40
0
 40
1
 40
1
 40
1
 40
1
 10
3.200179
 20
12.639791
 30
0.0
 10
3.001344
 20
12.903851
 30
0.0
 10
2.787058
 20
13.182563
 30
0.0
 10
2.723987
 20
13.259151
 30
0.0
  0
LWPOLYLINE
  5
113
100
AcDbEntity
  8
Layer_1
 62
7
100
AcDbPolyline
 90
5
 70
0
 10
3.115152
 20
14.427543
 30
0.0
 10
2.971863
 20
14.101073
 30
0.0
 10
3.626681
 20
13.378424
 30
0.0
 10
4.281498
 20
12.655775
 30
0.0
 10
3.958465
 20
12.407730
 30
0.0
  0
SPLINE
  5
114
100
AcDbEntity
  8
Layer_1
 62
7
100
AcDbSpline
 70
8
 71
3
 72
8
 73
4
 74
0
 40
0
 40
0
 40
0
 40
0
 40
1
 40
1
 40
1
 40
1
 10
2.372998
 20
13.091113
 30
0.0
 10
1.884326
 20
12.455675
 30
0.0
 10
1.220653
 20
11.793899
 30
0.0
 10
0.735530
 20
11.458326
 30
0.0
  0
LWPOLYLINE
  5
115
100
AcDbEntity
  8
Layer_1
 62
7
100
AcDbPolyline
 90
3
 70
0
 10
2.723987
 20
13.259151
 30
0.0
 10
2.609313
 20
13.398403
 30
0.0
 10
2.372998
 20
13.091113
 30
0.0
  0
SPLINE
  5
116
100
AcDbEntity
  8
Layer_1
 62
7
100
AcDbSpline
 70
8
 71
3
 72
8
 73
4
 74
0
 40
0
 40
0
 40
0
 40
0
 40
1
 40
1
 40
1
 40
1
 10
2.443748
 20
15.029120
 30
0.0
 10
2.802278
 20
15.865538
 30
0.0
 10
3.017473
 20
16.864144
 30
0.0
 10
3.188819
 20
18.486598
 30
0.0
  0
LWPOLYLINE
  5
117
100
AcDbEntity
  8
Layer_1
 62
7
100
AcDbPolyline
 90
5
 70
0
 10
0.735530
 20
11.458326
 30
0.0
 10
0.534848
 20
11.319509
 30
0.0
 10
0.291358
 20
11.667579
 30
0.0
 10
0.291358
 20
11.667579
 30
0.0
 10
0.291358
 20
11.667579
 30
0.0
  0
SPLINE
  5
118
100
AcDbEntity
  8
Layer_1
 62
7
100
AcDbSpline
 70
8
 71
3
 72
8
 73
4
 74
0
 40
0
 40
0
 40
0
 40
0
 40
1
 40
1
 40
1
 40
1
 10
1.839985
 20
17.632922
 30
0.0
 10
1.698360
 20
17.078397
 30
0.0
 10
1.527188
 20
16.443135
 30
0.0
 10
1.459602
 20
16.221228
 30
0.0
  0
LWPOLYLINE
  5
119
100
AcDbEntity
  8
Layer_1
 62
7
100
AcDbPolyline
 90
5
 70
0
 10
3.188819
 20
18.486598
 30
0.0
 10
3.207990
 20
18.668125
 30
0.0
 10
2.652738
 20
18.654637
 30
0.0
 10
2.097485
 20
18.641150
 30
0.0
 10
1.839985
 20
17.632922
 30
0.0
  0
SPLINE
  5
11a
100
AcDbEntity
  8
Layer_1
 62
7
100
AcDbSpline
 70
8
 71
3
 72
8
 73
4
 74
0
 40
0
 40
0
 40
0
 40
0
 40
1
 40
1
 40
1
 40
1
 10
1.831766
 20
15.321024
 30
0.0
 10
2.104041
 20
15.047819
 30
0.0
 10
2.333367
 20
14.824287
 30
0.0
 10
2.341379
 20
14.824287
 30
0.0
  0
SPLINE
  5
11b
100
AcDbEntity
  8
Layer_1
 62
7
100
AcDbSpline
 70
8
 71
3
 72
8
 73
4
 74
0
 40
0
 40
0
 40
0
 40
0
 40
1
 40
1
 40
1
 40
1
 10
2.341379
 20
14.824287
 30
0.0
 10
2.349391
 20
14.824287
 30
0.0
 10
2.395457
 20
14.916463
 30
0.0
 10
2.443748
 20
15.029123
 30
0.0
  0
LWPOLYLINE
  5
11c
100
AcDbEntity
  8
Layer_1
 62
7
100
AcDbPolyline
 90
3
 70
0
 10
1.459602
 20
16.221228
 30
0.0
 10
1.336719
 20
15.817762
 30
0.0
 10
1.831766
 20
15.321024
 30
0.0
  0
LWPOLYLINE
  5
11d
100
AcDbEntity
  8
Layer_1
 62
7
100
AcDbPolyline
 90
3
 70
0
 10
2.443748
 20
15.029123
 30
0.0
 10
2.443748
 20
15.029123
 30
0.0
 10
2.443748
 20
15.029120
 30
0.0
  0
SPLINE
  5
11e
100
AcDbEntity
  8
Layer_1
 62
7
100
AcDbSpline
 70
8
 71
3
 72
8
 73
4
 74
0
 40
0
 40
0
 40
0
 40
0
 40
1
 40
1
 40
1
 40
1
 10
4.711369
 20
12.413545
 30
0.0
 10
5.134171
 20
12.815895
 30
0.0
 10
5.526249
 20
13.343639
 30
0.0
 10
5.782242
 20
13.854955
 30
0.0
  0
SPLINE
  5
11f
100
AcDbEntity
  8
Layer_1
 62
7
100
AcDbSpline
 70
8
 71
3
 72
8
 73
4
 74
0
 40
0
 40
0
 40
0
 40
0
 40
1
 40
1
 40
1
 40
1
 10
5.782242
 20
13.854955
 30
0.0
 10
6.105851
 20
14.501327
 30
0.0
 10
6.408129
 20
15.609149
 30
0.0
 10
6.466136
 20
16.361361
 30
0.0
  0
LWPOLYLINE
  5
120
100
AcDbEntity
  8
Layer_1
 62
7
100
AcDbPolyline
 90
3
 70
0
 10
4.598479
 20
11.689249
 30
0.0
 10
4.282401
 20
12.005326
 30
0.0
 10
4.711369
 20
12.413545
 30
0.0
  0
SPLINE
  5
121
100
AcDbEntity
  8
Layer_1
 62
7
100
AcDbSpline
 70
8
 71
3
 72
8
 73
4
 74
0
 40
0
 40
0
 40
0
 40
0
 40
1
 40
1
 40
1
 40
1
 10
6.566354
 20
18.677153
 30
0.0
 10
6.573433
 20
19.304295
 30
0.0
 10
6.573433
 20
19.817396
 30
0.0
 10
6.566354
 20
19.817377
 30
0.0
  0
SPLINE
  5
122
100
AcDbEntity
  8
Layer_1
 62
7
100
AcDbSpline
 70
8
 71
3
 72
8
 73
4
 74
0
 40
0
 40
0
 40
0
 40
0
 40
1
 40
1
 40
1
 40
1
 10
6.566354
 20
19.817377
 30
0.0
 10
6.559276
 20
19.817359
 30
0.0
 10
6.166528
 20
19.763347
 30
0.0
 10
5.693584
 20
19.697350
 30
0.0
  0
SPLINE
  5
123
100
AcDbEntity
  8
Layer_1
 62
7
100
AcDbSpline
 70
8
 71
3
 72
8
 73
4
 74
0
 40
0
 40
0
 40
0
 40
0
 40
1
 40
1
 40
1
 40
1
 10
5.693584
 20
19.697350
 30
0.0
 10
5.220638
 20
19.631356
 30
0.0
 10
4.788541
 20
19.577464
 30
0.0
 10
4.733366
 20
19.577592
 30
0.0
  0
SPLINE
  5
124
100
AcDbEntity
  8
Layer_1
 62
7
100
AcDbSpline
 70
8
 71
3
 72
8
 73
4
 74
0
 40
0
 40
0
 40
0
 40
0
 40
1
 40
1
 40
1
 40
1
 10
4.733366
 20
19.577592
 30
0.0
 10
4.651751
 20
19.577781
 30
0.0
 10
4.608623
 20
19.646598
 30
0.0
 10
4.502040
 20
19.946697
 30
0.0
  0
SPLINE
  5
125
100
AcDbEntity
  8
Layer_1
 62
7
100
AcDbSpline
 70
8
 71
3
 72
8
 73
4
 74
0
 40
0
 40
0
 40
0
 40
0
 40
1
 40
1
 40
1
 40
1
 10
4.502040
 20
19.946697
 30
0.0
 10
4.429986
 20
20.149577
 30
0.0
 10
4.377365
 20
20.321903
 30
0.0
 10
4.385106
 20
20.329643
 30
0.0
  0
SPLINE
  5
126
100
AcDbEntity
  8
Layer_1
 62
7
100
AcDbSpline
 70
8
 71
3
 72
8
 73
4
 74
0
 40
0
 40
0
 40
0
 40
0
 40
1
 40
1
 40
1
 40
1
 10
4.385106
 20
20.329643
 30
0.0
 10
4.392847
 20
20.337383
 30
0.0
 10
4.743466
 20
20.387877
 30
0.0
 10
5.164260
 20
20.441852
 30
0.0
  0
SPLINE
  5
127
100
AcDbEntity
  8
Layer_1
 62
7
100
AcDbSpline
 70
8
 71
3
 72
8
 73
4
 74
0
 40
0
 40
0
 40
0
 40
0
 40
1
 40
1
 40
1
 40
1
 10
5.164260
 20
20.441852
 30
0.0
 10
6.497172
 20
20.612823
 30
0.0
 10
8.268033
 20
20.941414
 30
0.0
 10
9.170074
 20
21.185149
 30
0.0
  0
SPLINE
  5
128
100
AcDbEntity
  8
Layer_1
 62
7
100
AcDbSpline
 70
8
 71
3
 72
8
 73
4
 74
0
 40
0
 40
0
 40
0
 40
0
 40
1
 40
1
 40
1
 40
1
 10
9.170074
 20
21.185149
 30
0.0
 10
9.476240
 20
21.267876
 30
0.0
 10
9.468157
 20
21.273457
 30
0.0
 10
9.699873
 20
20.819372
 30
0.0
  0
LWPOLYLINE
  5
129
100
AcDbEntity
  8
Layer_1
 62
7
100
AcDbPolyline
 90
9
 70
0
 10
6.466136
 20
16.361361
 30
0.0
 10
6.495698
 20
16.744719
 30
0.0
 10
5.408338
 20
16.744719
 30
0.0
 10
4.320978
 20
16.744719
 30
0.0
 10
4.320978
 20
17.127921
 30
0.0
 10
4.320978
 20
17.511123
 30
0.0
 10
5.437230
 20
17.524009
 30
0.0
 10
6.553482
 20
17.536895
 30
0.0
 10
6.566354
 20
18.677153
 30
0.0
  0
SPLINE
  5
12a
100
AcDbEntity
  8
Layer_1
 62
7
100
AcDbSpline
 70
8
 71
3
 72
8
 73
4
 74
0
 40
0
 40
0
 40
0
 40
0
 40
1
 40
1
 40
1
 40
1
 10
9.275895
 20
20.399415
 30
0.0
 10
8.966836
 20
20.317119
 30
0.0
 10
8.427706
 20
20.190401
 30
0.0
 10
8.077827
 20
20.117819
 30
0.0
  0
LWPOLYLINE
  5
12b
100
AcDbEntity
  8
Layer_1
 62
7
100
AcDbPolyline
 90
3
 70
0
 10
9.699873
 20
20.819372
 30
0.0
 10
9.837820
 20
20.549043
 30
0.0
 10
9.275895
 20
20.399415
 30
0.0
  0
SPLINE
  5
12c
100
AcDbEntity
  8
Layer_1
 62
7
100
AcDbSpline
 70
8
 71
3
 72
8
 73
4
 74
0
 40
0
 40
0
 40
0
 40
0
 40
1
 40
1
 40
1
 40
1
 10
7.660994
 20
16.444651
 30
0.0
 10
7.812590
 20
15.728884
 30
0.0
 10
8.101896
 20
14.891743
 30
0.0
 10
8.408257
 20
14.282353
 30
0.0
  0
SPLINE
  5
12d
100
AcDbEntity
  8
Layer_1
 62
7
100
AcDbSpline
 70
8
 71
3
 72
8
 73
4
 74
0
 40
0
 40
0
 40
0
 40
0
 40
1
 40
1
 40
1
 40
1
 10
8.408257
 20
14.282353
 30
0.0
 10
8.828108
 20
13.447217
 30
0.0
 10
9.450659
 20
12.729347
 30
0.0
 10
10.169295
 20
12.251680
 30
0.0
  0
SPLINE
  5
12e
100
AcDbEntity
  8
Layer_1
 62
7
100
AcDbSpline
 70
8
 71
3
 72
8
 73
4
 74
0
 40
0
 40
0
 40
0
 40
0
 40
1
 40
1
 40
1
 40
1
 10
10.169295
 20
12.251680
 30
0.0
 10
10.177544
 20
12.246197
 30
0.0
 10
10.085068
 20
12.044142
 30
0.0
 10
9.963793
 20
11.802669
 30
0.0
  0
LWPOLYLINE
  5
12f
100
AcDbEntity
  8
Layer_1
 62
7
100
AcDbPolyline
 90
11
 70
0
 10
8.077827
 20
20.117819
 30
0.0
 10
7.441683
 20
19.985850
 30
0.0
 10
7.441683
 20
18.749371
 30
0.0
 10
7.441683
 20
17.512893
 30
0.0
 10
8.665960
 20
17.512893
 30
0.0
 10
9.890236
 20
17.512893
 30
0.0
 10
9.890236
 20
17.128806
 30
0.0
 10
9.890236
 20
16.744719
 30
0.0
 10
8.743839
 20
16.744719
 30
0.0
 10
7.597441
 20
16.744719
 30
0.0
 10
7.660994
 20
16.444651
 30
0.0
  0
SPLINE
  5
130
100
AcDbEntity
  8
Layer_1
 62
7
100
AcDbSpline
 70
8
 71
3
 72
8
 73
4
 74
0
 40
0
 40
0
 40
0
 40
0
 40
1
 40
1
 40
1
 40
1
 10
9.521866
 20
11.521601
 30
0.0
 10
9.170288
 20
11.772427
 30
0.0
 10
8.729931
 20
12.222083
 30
0.0
 10
8.404768
 20
12.662286
 30
0.0
  0
SPLINE
  5
131
100
AcDbEntity
  8
Layer_1
 62
7
100
AcDbSpline
 70
8
 71
3
 72
8
 73
4
 74
0
 40
0
 40
0
 40
0
 40
0
 40
1
 40
1
 40
1
 40
1
 10
8.404768
 20
12.662286
 30
0.0
 10
8.075368
 20
13.108227
 30
0.0
 10
7.569129
 20
14.102258
 30
0.0
 10
7.364835
 20
14.704258
 30
0.0
  0
SPLINE
  5
132
100
AcDbEntity
  8
Layer_1
 62
7
100
AcDbSpline
 70
8
 71
3
 72
8
 73
4
 74
0
 40
0
 40
0
 40
0
 40
0
 40
1
 40
1
 40
1
 40
1
 10
7.364835
 20
14.704258
 30
0.0
 10
7.293146
 20
14.915506
 30
0.0
 10
7.218869
 20
15.106296
 30
0.0
 10
7.199775
 20
15.128235
 30
0.0
  0
SPLINE
  5
133
100
AcDbEntity
  8
Layer_1
 62
7
100
AcDbSpline
 70
8
 71
3
 72
8
 73
4
 74
0
 40
0
 40
0
 40
0
 40
0
 40
1
 40
1
 40
1
 40
1
 10
7.199775
 20
15.128235
 30
0.0
 10
7.180680
 20
15.150175
 30
0.0
 10
7.137837
 20
15.052952
 30
0.0
 10
7.104568
 20
14.912186
 30
0.0
  0
SPLINE
  5
134
100
AcDbEntity
  8
Layer_1
 62
7
100
AcDbSpline
 70
8
 71
3
 72
8
 73
4
 74
0
 40
0
 40
0
 40
0
 40
0
 40
1
 40
1
 40
1
 40
1
 10
7.104568
 20
14.912186
 30
0.0
 10
6.789739
 20
13.580108
 30
0.0
 10
6.056496
 20
12.329257
 30
0.0
 10
5.141295
 20
11.563008
 30
0.0
  0
LWPOLYLINE
  5
135
100
AcDbEntity
  8
Layer_1
 62
7
100
AcDbPolyline
 90
3
 70
0
 10
9.963793
 20
11.802669
 30
0.0
 10
9.743294
 20
11.363627
 30
0.0
 10
9.521866
 20
11.521601
 30
0.0
  0
LWPOLYLINE
  5
136
100
AcDbEntity
  8
Layer_1
 62
7
100
AcDbPolyline
 90
5
 70
0
 10
5.141295
 20
11.563008
 30
0.0
 10
4.914557
 20
11.373171
 30
0.0
 10
4.598479
 20
11.689249
 30
0.0
 10
4.598479
 20
11.689249
 30
0.0
 10
4.598479
 20
11.689249
 30
0.0
  0
LWPOLYLINE
  5
137
100
AcDbEntity
  8
Layer_1
 62
7
100
AcDbPolyline
 90
42
 70
0
 10
0.912207
 20
6.926500
 30
0.0
 10
0.912207
 20
8.102766
 30
0.0
 10
1.896430
 20
8.102766
 30
0.0
 10
2.880652
 20
8.102766
 30
0.0
 10
2.880652
 20
8.438842
 30
0.0
 10
2.880652
 20
8.774918
 30
0.0
 10
1.464332
 20
8.774918
 30
0.0
 10
0.048012
 20
8.774918
 30
0.0
 10
0.048012
 20
9.134999
 30
0.0
 10
0.048012
 20
9.495080
 30
0.0
 10
1.464332
 20
9.495080
 30
0.0
 10
2.880652
 20
9.495080
 30
0.0
 10
2.880652
 20
9.831157
 30
0.0
 10
2.880652
 20
10.167233
 30
0.0
 10
3.288744
 20
10.167233
 30
0.0
 10
3.696837
 20
10.167233
 30
0.0
 10
3.696837
 20
9.831157
 30
0.0
 10
3.696837
 20
9.495080
 30
0.0
 10
5.089151
 20
9.495080
 30
0.0
 10
6.481466
 20
9.495080
 30
0.0
 10
6.481466
 20
9.831157
 30
0.0
 10
6.481466
 20
10.167233
 30
0.0
 10
6.841547
 20
10.167233
 30
0.0
 10
7.201629
 20
10.167233
 30
0.0
 10
7.201629
 20
9.831157
 30
0.0
 10
7.201629
 20
9.495080
 30
0.0
 10
8.641954
 20
9.495080
 30
0.0
 10
10.082280
 20
9.495080
 30
0.0
 10
10.082280
 20
9.134999
 30
0.0
 10
10.082280
 20
8.774918
 30
0.0
 10
8.641954
 20
8.774918
 30
0.0
 10
7.201629
 20
8.774918
 30
0.0
 10
7.201629
 20
8.438842
 30
0.0
 10
7.201629
 20
8.102766
 30
0.0
 10
8.161846
 20
8.102766
 30
0.0
 10
9.122063
 20
8.102766
 30
0.0
 10
9.122063
 20
6.926500
 30
0.0
 10
9.122063
 20
5.750234
 30
0.0
 10
5.017135
 20
5.750234
 30
0.0
 10
0.912207
 20
5.750234
 30
0.0
 10
0.912207
 20
6.926500
 30
0.0
 10
0.912207
 20
6.926500
 30
0.0
  0
LWPOLYLINE
  5
138
100
AcDbEntity
  8
Layer_1
 62
7
100
AcDbPolyline
 90
10
 70
0
 10
3.360761
 20
6.926500
 30
0.0
 10
3.360761
 20
7.334592
 30
0.0
 10
2.544576
 20
7.334592
 30
0.0
 10
1.728392
 20
7.334592
 30
0.0
 10
1.728392
 20
6.926500
 30
0.0
 10
1.728392
 20
6.518408
 30
0.0
 10
2.544576
 20
6.518408
 30
0.0
 10
3.360761
 20
6.518408
 30
0.0
 10
3.360761
 20
6.926500
 30
0.0
 10
3.360761
 20
6.926500
 30
0.0
  0
LWPOLYLINE
  5
139
100
AcDbEntity
  8
Layer_1
 62
7
100
AcDbPolyline
 90
10
 70
0
 10
5.905336
 20
6.926500
 30
0.0
 10
5.905336
 20
7.334592
 30
0.0
 10
5.041141
 20
7.334592
 30
0.0
 10
4.176945
 20
7.334592
 30
0.0
 10
4.176945
 20
6.926500
 30
0.0
 10
4.176945
 20
6.518408
 30
0.0
 10
5.041141
 20
6.518408
 30
0.0
 10
5.905336
 20
6.518408
 30
0.0
 10
5.905336
 20
6.926500
 30
0.0
 10
5.905336
 20
6.926500
 30
0.0
  0
LWPOLYLINE
  5
13a
100
AcDbEntity
  8
Layer_1
 62
7
100
AcDbPolyline
 90
10
 70
0
 10
8.353889
 20
6.926500
 30
0.0
 10
8.353889
 20
7.334592
 30
0.0
 10
7.513699
 20
7.334592
 30
0.0
 10
6.673509
 20
7.334592
 30
0.0
 10
6.673509
 20
6.926500
 30
0.0
 10
6.673509
 20
6.518408
 30
0.0
 10
7.513699
 20
6.518408
 30
0.0
 10
8.353889
 20
6.518408
 30
0.0
 10
8.353889
 20
6.926500
 30
0.0
 10
8.353889
 20
6.926500
 30
0.0
  0
SPLINE
  5
13b
100
AcDbEntity
  8
Layer_1
 62
7
100
AcDbSpline
 70
8
 71
3
 72
8
 73
4
 74
0
 40
0
 40
0
 40
0
 40
0
 40
1
 40
1
 40
1
 40
1
 10
1.201398
 20
0.418791
 30
0.0
 10
1.064193
 20
0.691679
 30
0.0
 10
1.024243
 20
0.813024
 30
0.0
 10
1.067158
 20
0.826537
 30
0.0
  0
SPLINE
  5
13c
100
AcDbEntity
  8
Layer_1
 62
7
100
AcDbSpline
 70
8
 71
3
 72
8
 73
4
 74
0
 40
0
 40
0
 40
0
 40
0
 40
1
 40
1
 40
1
 40
1
 10
1.067158
 20
0.826537
 30
0.0
 10
1.100762
 20
0.837118
 30
0.0
 10
1.382000
 20
0.892042
 30
0.0
 10
1.692132
 20
0.948591
 30
0.0
  0
SPLINE
  5
13d
100
AcDbEntity
  8
Layer_1
 62
7
100
AcDbSpline
 70
8
 71
3
 72
8
 73
4
 74
0
 40
0
 40
0
 40
0
 40
0
 40
1
 40
1
 40
1
 40
1
 10
1.692132
 20
0.948591
 30
0.0
 10
3.480628
 20
1.274703
 30
0.0
 10
5.191094
 20
1.804165
 30
0.0
 10
6.145390
 20
2.327066
 30
0.0
  0
SPLINE
  5
13e
100
AcDbEntity
  8
Layer_1
 62
7
100
AcDbSpline
 70
8
 71
3
 72
8
 73
4
 74
0
 40
0
 40
0
 40
0
 40
0
 40
1
 40
1
 40
1
 40
1
 10
6.145390
 20
2.327066
 30
0.0
 10
6.485048
 20
2.513179
 30
0.0
 10
7.054481
 20
2.919805
 30
0.0
 10
7.056400
 20
2.977608
 30
0.0
  0
SPLINE
  5
13f
100
AcDbEntity
  8
Layer_1
 62
7
100
AcDbSpline
 70
8
 71
3
 72
8
 73
4
 74
0
 40
0
 40
0
 40
0
 40
0
 40
1
 40
1
 40
1
 40
1
 10
7.056400
 20
2.977608
 30
0.0
 10
7.057049
 20
2.997411
 30
0.0
 10
6.185244
 20
3.013616
 30
0.0
 10
5.119035
 20
3.013616
 30
0.0
  0
SPLINE
  5
140
100
AcDbEntity
  8
Layer_1
 62
7
100
AcDbSpline
 70
8
 71
3
 72
8
 73
4
 74
0
 40
0
 40
0
 40
0
 40
0
 40
1
 40
1
 40
1
 40
1
 10
5.119035
 20
3.013616
 30
0.0
 10
3.382265
 20
3.013616
 30
0.0
 10
3.173684
 20
3.005434
 30
0.0
 10
3.115242
 20
2.935015
 30
0.0
  0
SPLINE
  5
141
100
AcDbEntity
  8
Layer_1
 62
7
100
AcDbSpline
 70
8
 71
3
 72
8
 73
4
 74
0
 40
0
 40
0
 40
0
 40
0
 40
1
 40
1
 40
1
 40
1
 10
3.115242
 20
2.935015
 30
0.0
 10
3.058699
 20
2.866885
 30
0.0
 10
3.065710
 20
2.846099
 30
0.0
 10
3.167878
 20
2.778980
 30
0.0
  0
SPLINE
  5
142
100
AcDbEntity
  8
Layer_1
 62
7
100
AcDbSpline
 70
8
 71
3
 72
8
 73
4
 74
0
 40
0
 40
0
 40
0
 40
0
 40
1
 40
1
 40
1
 40
1
 10
3.167878
 20
2.778980
 30
0.0
 10
3.232707
 20
2.736391
 30
0.0
 10
3.423293
 20
2.585205
 30
0.0
 10
3.591404
 20
2.443012
 30
0.0
  0
LWPOLYLINE
  5
143
100
AcDbEntity
  8
Layer_1
 62
7
100
AcDbPolyline
 90
10
 70
0
 10
6.471657
 20
8.426839
 30
0.0
 10
6.457461
 20
8.750912
 30
0.0
 10
5.077149
 20
8.763652
 30
0.0
 10
3.696837
 20
8.776391
 30
0.0
 10
3.696837
 20
8.439579
 30
0.0
 10
3.696837
 20
8.102767
 30
0.0
 10
5.091345
 20
8.102767
 30
0.0
 10
6.485854
 20
8.102767
 30
0.0
 10
6.471658
 20
8.426840
 30
0.0
 10
6.471657
 20
8.426839
 30
0.0
  0
SPLINE
  5
144
100
AcDbEntity
  8
Layer_1
 62
7
100
AcDbSpline
 70
8
 71
3
 72
8
 73
4
 74
0
 40
0
 40
0
 40
0
 40
0
 40
1
 40
1
 40
1
 40
1
 10
3.098207
 20
1.853607
 30
0.0
 10
2.818088
 20
2.122987
 30
0.0
 10
2.430698
 20
2.437486
 30
0.0
 10
2.379005
 20
2.437486
 30
0.0
  0
SPLINE
  5
145
100
AcDbEntity
  8
Layer_1
 62
7
100
AcDbSpline
 70
8
 71
3
 72
8
 73
4
 74
0
 40
0
 40
0
 40
0
 40
0
 40
1
 40
1
 40
1
 40
1
 10
2.379005
 20
2.437486
 30
0.0
 10
2.359395
 20
2.437486
 30
0.0
 10
2.275659
 20
2.389285
 30
0.0
 10
2.192924
 20
2.330373
 30
0.0
  0
SPLINE
  5
146
100
AcDbEntity
  8
Layer_1
 62
7
100
AcDbSpline
 70
8
 71
3
 72
8
 73
4
 74
0
 40
0
 40
0
 40
0
 40
0
 40
1
 40
1
 40
1
 40
1
 10
2.192924
 20
2.330373
 30
0.0
 10
2.110190
 20
2.271461
 30
0.0
 10
1.913915
 20
2.154559
 30
0.0
 10
1.756759
 20
2.070592
 30
0.0
  0
LWPOLYLINE
  5
147
100
AcDbEntity
  8
Layer_1
 62
7
100
AcDbPolyline
 90
5
 70
0
 10
3.591404
 20
2.443012
 30
0.0
 10
3.897061
 20
2.184478
 30
0.0
 10
3.618415
 20
1.902893
 30
0.0
 10
3.339768
 20
1.621308
 30
0.0
 10
3.098207
 20
1.853607
 30
0.0
  0
SPLINE
  5
148
100
AcDbEntity
  8
Layer_1
 62
7
100
AcDbSpline
 70
8
 71
3
 72
8
 73
4
 74
0
 40
0
 40
0
 40
0
 40
0
 40
1
 40
1
 40
1
 40
1
 10
1.239624
 20
2.223589
 30
0.0
 10
1.112357
 20
2.391705
 30
0.0
 10
1.008229
 20
2.547518
 30
0.0
 10
1.008229
 20
2.569840
 30
0.0
  0
SPLINE
  5
149
100
AcDbEntity
  8
Layer_1
 62
7
100
AcDbSpline
 70
8
 71
3
 72
8
 73
4
 74
0
 40
0
 40
0
 40
0
 40
0
 40
1
 40
1
 40
1
 40
1
 10
1.008229
 20
2.569840
 30
0.0
 10
1.008229
 20
2.592161
 30
0.0
 10
1.169367
 20
2.702105
 30
0.0
 10
1.366314
 20
2.814159
 30
0.0
  0
SPLINE
  5
14a
100
AcDbEntity
  8
Layer_1
 62
7
100
AcDbSpline
 70
8
 71
3
 72
8
 73
4
 74
0
 40
0
 40
0
 40
0
 40
0
 40
1
 40
1
 40
1
 40
1
 10
1.366314
 20
2.814159
 30
0.0
 10
2.137044
 20
3.252672
 30
0.0
 10
3.504793
 20
4.244830
 30
0.0
 10
3.504793
 20
4.365401
 30
0.0
  0
SPLINE
  5
14b
100
AcDbEntity
  8
Layer_1
 62
7
100
AcDbSpline
 70
8
 71
3
 72
8
 73
4
 74
0
 40
0
 40
0
 40
0
 40
0
 40
1
 40
1
 40
1
 40
1
 10
3.504793
 20
4.365401
 30
0.0
 10
3.504793
 20
4.388856
 30
0.0
 10
2.966668
 20
4.401885
 30
0.0
 10
2.292519
 20
4.394752
 30
0.0
  0
LWPOLYLINE
  5
14c
100
AcDbEntity
  8
Layer_1
 62
7
100
AcDbPolyline
 90
3
 70
0
 10
1.756759
 20
2.070592
 30
0.0
 10
1.471019
 20
1.917924
 30
0.0
 10
1.239624
 20
2.223589
 30
0.0
  0
SPLINE
  5
14d
100
AcDbEntity
  8
Layer_1
 62
7
100
AcDbSpline
 70
8
 71
3
 72
8
 73
4
 74
0
 40
0
 40
0
 40
0
 40
0
 40
1
 40
1
 40
1
 40
1
 10
7.909789
 20
2.599233
 30
0.0
 10
6.760865
 20
1.508107
 30
0.0
 10
4.755012
 20
0.707585
 30
0.0
 10
1.550561
 20
0.061308
 30
0.0
  0
SPLINE
  5
14e
100
AcDbEntity
  8
Layer_1
 62
7
100
AcDbSpline
 70
8
 71
3
 72
8
 73
4
 74
0
 40
0
 40
0
 40
0
 40
0
 40
1
 40
1
 40
1
 40
1
 10
1.550561
 20
0.061308
 30
0.0
 10
1.398318
 20
0.030603
 30
0.0
 10
1.394726
 20
0.034280
 30
0.0
 10
1.201398
 20
0.418791
 30
0.0
  0
LWPOLYLINE
  5
14f
100
AcDbEntity
  8
Layer_1
 62
7
100
AcDbPolyline
 90
25
 70
0
 10
2.292519
 20
4.394752
 30
0.0
 10
1.080245
 20
4.381925
 30
0.0
 10
1.066618
 20
3.865808
 30
0.0
 10
1.052991
 20
3.349692
 30
0.0
 10
0.670529
 20
3.349692
 30
0.0
 10
0.288066
 20
3.349692
 30
0.0
 10
0.288066
 20
4.237892
 30
0.0
 10
0.288066
 20
5.126093
 30
0.0
 10
5.065146
 20
5.126093
 30
0.0
 10
9.842225
 20
5.126093
 30
0.0
 10
9.842225
 20
4.261898
 30
0.0
 10
9.842225
 20
3.397703
 30
0.0
 10
9.458139
 20
3.397703
 30
0.0
 10
9.074052
 20
3.397703
 30
0.0
 10
9.074052
 20
3.901816
 30
0.0
 10
9.074052
 20
4.405930
 30
0.0
 10
6.870497
 20
4.405930
 30
0.0
 10
4.666942
 20
4.405930
 30
0.0
 10
4.368988
 20
4.069854
 30
0.0
 10
4.071034
 20
3.733779
 30
0.0
 10
6.164451
 20
3.733779
 30
0.0
 10
8.257867
 20
3.733779
 30
0.0
 10
8.257867
 20
3.331790
 30
0.0
 10
8.257867
 20
2.929801
 30
0.0
 10
7.909789
 20
2.599233
 30
0.0
  0
LWPOLYLINE
  5
150
100
AcDbEntity
  8
Layer_1
 62
7
100
AcDbPolyline
 90
3
 70
0
 10
1.201398
 20
0.418791
 30
0.0
 10
1.201398
 20
0.418791
 30
0.0
 10
1.201398
 20
0.418791
 30
0.0
  0
SPLINE
  5
151
100
AcDbEntity
  8
Layer_1
 62
7
100
AcDbSpline
 70
8
 71
3
 72
8
 73
4
 74
0
 40
0
 40
0
 40
0
 40
0
 40
1
 40
1
 40
1
 40
1
 10
29.510313
 20
8.990967
 30
0.0
 10
29.567423
 20
9.149403
 30
0.0
 10
29.653210
 20
9.468571
 30
0.0
 10
29.700948
 20
9.700231
 30
0.0
  0
SPLINE
  5
152
100
AcDbEntity
  8
Layer_1
 62
7
100
AcDbSpline
 70
8
 71
3
 72
8
 73
4
 74
0
 40
0
 40
0
 40
0
 40
0
 40
1
 40
1
 40
1
 40
1
 10
29.700948
 20
9.700231
 30
0.0
 10
29.750027
 20
9.938388
 30
0.0
 10
29.809262
 20
10.113358
 30
0.0
 10
29.837253
 20
10.102856
 30
0.0
  0
SPLINE
  5
153
100
AcDbEntity
  8
Layer_1
 62
7
100
AcDbSpline
 70
8
 71
3
 72
8
 73
4
 74
0
 40
0
 40
0
 40
0
 40
0
 40
1
 40
1
 40
1
 40
1
 10
29.837253
 20
10.102856
 30
0.0
 10
29.864487
 20
10.092639
 30
0.0
 10
30.051875
 20
10.045530
 30
0.0
 10
30.253686
 20
9.998167
 30
0.0
  0
LWPOLYLINE
  5
154
100
AcDbEntity
  8
Layer_1
 62
7
100
AcDbPolyline
 90
5
 70
0
 10
28.470437
 20
4.884300
 30
0.0
 10
28.470437
 20
8.675419
 30
0.0
 10
28.938454
 20
8.689161
 30
0.0
 10
29.406472
 20
8.702902
 30
0.0
 10
29.510313
 20
8.990967
 30
0.0
  0
SPLINE
  5
155
100
AcDbEntity
  8
Layer_1
 62
7
100
AcDbSpline
 70
8
 71
3
 72
8
 73
4
 74
0
 40
0
 40
0
 40
0
 40
0
 40
1
 40
1
 40
1
 40
1
 10
30.529651
 20
9.583804
 30
0.0
 10
30.479625
 20
9.403268
 30
0.0
 10
30.395534
 20
9.142012
 30
0.0
 10
30.342789
 20
9.003235
 30
0.0
  0
SPLINE
  5
156
100
AcDbEntity
  8
Layer_1
 62
7
100
AcDbSpline
 70
8
 71
3
 72
8
 73
4
 74
0
 40
0
 40
0
 40
0
 40
0
 40
1
 40
1
 40
1
 40
1
 10
30.342789
 20
9.003235
 30
0.0
 10
30.290042
 20
8.864458
 30
0.0
 10
30.246876
 20
8.734709
 30
0.0
 10
30.246862
 20
8.714905
 30
0.0
  0
SPLINE
  5
157
100
AcDbEntity
  8
Layer_1
 62
7
100
AcDbSpline
 70
8
 71
3
 72
8
 73
4
 74
0
 40
0
 40
0
 40
0
 40
0
 40
1
 40
1
 40
1
 40
1
 10
30.246862
 20
8.714905
 30
0.0
 10
30.246848
 20
8.695101
 30
0.0
 10
30.581713
 20
8.678896
 30
0.0
 10
30.991006
 20
8.678896
 30
0.0
  0
LWPOLYLINE
  5
158
100
AcDbEntity
  8
Layer_1
 62
7
100
AcDbPolyline
 90
3
 70
0
 10
30.253686
 20
9.998167
 30
0.0
 10
30.620614
 20
9.912052
 30
0.0
 10
30.529651
 20
9.583804
 30
0.0
  0
LWPOLYLINE
  5
159
100
AcDbEntity
  8
Layer_1
 62
7
100
AcDbPolyline
 90
12
 70
0
 10
30.991006
 20
8.678896
 30
0.0
 10
31.735172
 20
8.678896
 30
0.0
 10
31.735172
 20
5.318137
 30
0.0
 10
31.735172
 20
1.957377
 30
0.0
 10
30.486892
 20
1.957377
 30
0.0
 10
29.238609
 20
1.957377
 30
0.0
 10
29.238609
 20
1.525280
 30
0.0
 10
29.238609
 20
1.093182
 30
0.0
 10
28.854521
 20
1.093182
 30
0.0
 10
28.470437
 20
1.093182
 30
0.0
 10
28.470437
 20
4.884301
 30
0.0
 10
28.470437
 20
4.884300
 30
0.0
  0
LWPOLYLINE
  5
15a
100
AcDbEntity
  8
Layer_1
 62
7
100
AcDbPolyline
 90
10
 70
0
 10
30.918988
 20
3.853806
 30
0.0
 10
30.918988
 20
4.982061
 30
0.0
 10
30.078799
 20
4.982061
 30
0.0
 10
29.238609
 20
4.982061
 30
0.0
 10
29.238609
 20
3.853806
 30
0.0
 10
29.238609
 20
2.725551
 30
0.0
 10
30.078799
 20
2.725551
 30
0.0
 10
30.918988
 20
2.725551
 30
0.0
 10
30.918988
 20
3.853806
 30
0.0
 10
30.918988
 20
3.853806
 30
0.0
  0
SPLINE
  5
15b
100
AcDbEntity
  8
Layer_1
 62
7
100
AcDbSpline
 70
8
 71
3
 72
8
 73
4
 74
0
 40
0
 40
0
 40
0
 40
0
 40
1
 40
1
 40
1
 40
1
 10
31.946599
 20
0.311838
 30
0.0
 10
31.875061
 20
0.437908
 30
0.0
 10
31.778908
 20
0.603641
 30
0.0
 10
31.732923
 20
0.680133
 30
0.0
  0
LWPOLYLINE
  5
15c
100
AcDbEntity
  8
Layer_1
 62
7
100
AcDbPolyline
 90
10
 70
0
 10
30.918988
 20
6.806473
 30
0.0
 10
30.918988
 20
7.910722
 30
0.0
 10
30.078799
 20
7.910722
 30
0.0
 10
29.238609
 20
7.910722
 30
0.0
 10
29.238609
 20
6.806473
 30
0.0
 10
29.238609
 20
5.702224
 30
0.0
 10
30.078799
 20
5.702224
 30
0.0
 10
30.918988
 20
5.702224
 30
0.0
 10
30.918988
 20
6.806473
 30
0.0
 10
30.918988
 20
6.806473
 30
0.0
  0
SPLINE
  5
15d
100
AcDbEntity
  8
Layer_1
 62
7
100
AcDbSpline
 70
8
 71
3
 72
8
 73
4
 74
0
 40
0
 40
0
 40
0
 40
0
 40
1
 40
1
 40
1
 40
1
 10
31.944299
 20
1.013477
 30
0.0
 10
32.376412
 20
1.298053
 30
0.0
 10
33.027075
 20
1.968017
 30
0.0
 10
33.343159
 20
2.453833
 30
0.0
  0
SPLINE
  5
15e
100
AcDbEntity
  8
Layer_1
 62
7
100
AcDbSpline
 70
8
 71
3
 72
8
 73
4
 74
0
 40
0
 40
0
 40
0
 40
0
 40
1
 40
1
 40
1
 40
1
 10
33.343159
 20
2.453833
 30
0.0
 10
33.647053
 20
2.920909
 30
0.0
 10
33.920633
 20
3.548764
 30
0.0
 10
34.080131
 20
4.145140
 30
0.0
  0
SPLINE
  5
15f
100
AcDbEntity
  8
Layer_1
 62
7
100
AcDbSpline
 70
8
 71
3
 72
8
 73
4
 74
0
 40
0
 40
0
 40
0
 40
0
 40
1
 40
1
 40
1
 40
1
 10
34.080131
 20
4.145140
 30
0.0
 10
34.241624
 20
4.748985
 30
0.0
 10
34.322639
 20
4.693996
 30
0.0
 10
33.271519
 20
4.693996
 30
0.0
  0
LWPOLYLINE
  5
160
100
AcDbEntity
  8
Layer_1
 62
7
100
AcDbPolyline
 90
3
 70
0
 10
31.732923
 20
0.680133
 30
0.0
 10
31.649312
 20
0.819208
 30
0.0
 10
31.944299
 20
1.013477
 30
0.0
  0
SPLINE
  5
161
100
AcDbEntity
  8
Layer_1
 62
7
100
AcDbSpline
 70
8
 71
3
 72
8
 73
4
 74
0
 40
0
 40
0
 40
0
 40
0
 40
1
 40
1
 40
1
 40
1
 10
34.569521
 20
10.181640
 30
0.0
 10
34.740221
 20
10.147956
 30
0.0
 10
34.928697
 20
10.108866
 30
0.0
 10
34.988359
 20
10.094775
 30
0.0
  0
LWPOLYLINE
  5
162
100
AcDbEntity
  8
Layer_1
 62
7
100
AcDbPolyline
 90
9
 70
0
 10
33.271519
 20
4.693996
 30
0.0
 10
32.359315
 20
4.693996
 30
0.0
 10
32.359315
 20
6.950505
 30
0.0
 10
32.359315
 20
9.207015
 30
0.0
 10
33.054434
 20
9.207015
 30
0.0
 10
33.749556
 20
9.207015
 30
0.0
 10
34.004357
 20
9.724950
 30
0.0
 10
34.259162
 20
10.242884
 30
0.0
 10
34.569521
 20
10.181640
 30
0.0
  0
SPLINE
  5
163
100
AcDbEntity
  8
Layer_1
 62
7
100
AcDbSpline
 70
8
 71
3
 72
8
 73
4
 74
0
 40
0
 40
0
 40
0
 40
0
 40
1
 40
1
 40
1
 40
1
 10
35.003077
 20
9.885374
 30
0.0
 10
34.951509
 20
9.784294
 30
0.0
 10
34.832479
 20
9.600928
 30
0.0
 10
34.738567
 20
9.477894
 30
0.0
  0
SPLINE
  5
164
100
AcDbEntity
  8
Layer_1
 62
7
100
AcDbSpline
 70
8
 71
3
 72
8
 73
4
 74
0
 40
0
 40
0
 40
0
 40
0
 40
1
 40
1
 40
1
 40
1
 10
34.738567
 20
9.477894
 30
0.0
 10
34.644652
 20
9.354860
 30
0.0
 10
34.567814
 20
9.243580
 30
0.0
 10
34.567814
 20
9.230606
 30
0.0
  0
SPLINE
  5
165
100
AcDbEntity
  8
Layer_1
 62
7
100
AcDbSpline
 70
8
 71
3
 72
8
 73
4
 74
0
 40
0
 40
0
 40
0
 40
0
 40
1
 40
1
 40
1
 40
1
 10
34.567814
 20
9.230606
 30
0.0
 10
34.567814
 20
9.217632
 30
0.0
 10
35.194356
 20
9.207015
 30
0.0
 10
35.960129
 20
9.207015
 30
0.0
  0
LWPOLYLINE
  5
166
100
AcDbEntity
  8
Layer_1
 62
7
100
AcDbPolyline
 90
3
 70
0
 10
34.988359
 20
10.094775
 30
0.0
 10
35.096837
 20
10.069155
 30
0.0
 10
35.003077
 20
9.885374
 30
0.0
  0
SPLINE
  5
167
100
AcDbEntity
  8
Layer_1
 62
7
100
AcDbSpline
 70
8
 71
3
 72
8
 73
4
 74
0
 40
0
 40
0
 40
0
 40
0
 40
1
 40
1
 40
1
 40
1
 10
35.912117
 20
2.877024
 30
0.0
 10
35.912117
 20
0.750258
 30
0.0
 10
35.871582
 20
0.901350
 30
0.0
 10
36.451966
 20
0.864835
 30
0.0
  0
SPLINE
  5
168
100
AcDbEntity
  8
Layer_1
 62
7
100
AcDbSpline
 70
8
 71
3
 72
8
 73
4
 74
0
 40
0
 40
0
 40
0
 40
0
 40
1
 40
1
 40
1
 40
1
 10
36.451966
 20
0.864835
 30
0.0
 10
36.844230
 20
0.840154
 30
0.0
 10
37.340029
 20
0.916158
 30
0.0
 10
37.440193
 20
1.016323
 30
0.0
  0
SPLINE
  5
169
100
AcDbEntity
  8
Layer_1
 62
7
100
AcDbSpline
 70
8
 71
3
 72
8
 73
4
 74
0
 40
0
 40
0
 40
0
 40
0
 40
1
 40
1
 40
1
 40
1
 10
37.440193
 20
1.016323
 30
0.0
 10
37.476803
 20
1.052931
 30
0.0
 10
37.518241
 20
1.226598
 30
0.0
 10
37.532372
 20
1.402613
 30
0.0
  0
SPLINE
  5
16a
100
AcDbEntity
  8
Layer_1
 62
7
100
AcDbSpline
 70
8
 71
3
 72
8
 73
4
 74
0
 40
0
 40
0
 40
0
 40
0
 40
1
 40
1
 40
1
 40
1
 10
37.532372
 20
1.402613
 30
0.0
 10
37.548826
 20
1.607538
 30
0.0
 10
37.577161
 20
1.715385
 30
0.0
 10
37.611276
 20
1.702878
 30
0.0
  0
SPLINE
  5
16b
100
AcDbEntity
  8
Layer_1
 62
7
100
AcDbSpline
 70
8
 71
3
 72
8
 73
4
 74
0
 40
0
 40
0
 40
0
 40
0
 40
1
 40
1
 40
1
 40
1
 10
37.611276
 20
1.702878
 30
0.0
 10
37.640556
 20
1.692145
 30
0.0
 10
37.811899
 20
1.634713
 30
0.0
 10
37.992036
 20
1.575253
 30
0.0
  0
SPLINE
  5
16c
100
AcDbEntity
  8
Layer_1
 62
7
100
AcDbSpline
 70
8
 71
3
 72
8
 73
4
 74
0
 40
0
 40
0
 40
0
 40
0
 40
1
 40
1
 40
1
 40
1
 10
37.992036
 20
1.575253
 30
0.0
 10
38.172173
 20
1.515793
 30
0.0
 10
38.332427
 20
1.433607
 30
0.0
 10
38.348158
 20
1.392618
 30
0.0
  0
SPLINE
  5
16d
100
AcDbEntity
  8
Layer_1
 62
7
100
AcDbSpline
 70
8
 71
3
 72
8
 73
4
 74
0
 40
0
 40
0
 40
0
 40
0
 40
1
 40
1
 40
1
 40
1
 10
38.348158
 20
1.392618
 30
0.0
 10
38.387853
 20
1.289172
 30
0.0
 10
38.275678
 20
0.774899
 30
0.0
 10
38.166918
 20
0.561708
 30
0.0
  0
SPLINE
  5
16e
100
AcDbEntity
  8
Layer_1
 62
7
100
AcDbSpline
 70
8
 71
3
 72
8
 73
4
 74
0
 40
0
 40
0
 40
0
 40
0
 40
1
 40
1
 40
1
 40
1
 10
38.166918
 20
0.561708
 30
0.0
 10
38.102142
 20
0.434742
 30
0.0
 10
38.018920
 20
0.361890
 30
0.0
 10
37.870675
 20
0.302389
 30
0.0
  0
SPLINE
  5
16f
100
AcDbEntity
  8
Layer_1
 62
7
100
AcDbSpline
 70
8
 71
3
 72
8
 73
4
 74
0
 40
0
 40
0
 40
0
 40
0
 40
1
 40
1
 40
1
 40
1
 10
37.870675
 20
0.302389
 30
0.0
 10
37.597458
 20
0.192727
 30
0.0
 10
36.687816
 20
0.132547
 30
0.0
 10
36.089288
 20
0.184536
 30
0.0
  0
SPLINE
  5
170
100
AcDbEntity
  8
Layer_1
 62
7
100
AcDbSpline
 70
8
 71
3
 72
8
 73
4
 74
0
 40
0
 40
0
 40
0
 40
0
 40
1
 40
1
 40
1
 40
1
 10
36.089288
 20
0.184536
 30
0.0
 10
35.571639
 20
0.229499
 30
0.0
 10
35.347173
 20
0.324935
 30
0.0
 10
35.248209
 20
0.542136
 30
0.0
  0
SPLINE
  5
171
100
AcDbEntity
  8
Layer_1
 62
7
100
AcDbSpline
 70
8
 71
3
 72
8
 73
4
 74
0
 40
0
 40
0
 40
0
 40
0
 40
1
 40
1
 40
1
 40
1
 10
35.248209
 20
0.542136
 30
0.0
 10
35.208066
 20
0.630240
 30
0.0
 10
35.191954
 20
1.242478
 30
0.0
 10
35.191954
 20
2.679798
 30
0.0
  0
SPLINE
  5
172
100
AcDbEntity
  8
Layer_1
 62
7
100
AcDbSpline
 70
8
 71
3
 72
8
 73
4
 74
0
 40
0
 40
0
 40
0
 40
0
 40
1
 40
1
 40
1
 40
1
 10
35.191954
 20
2.679798
 30
0.0
 10
35.191954
 20
4.655531
 30
0.0
 10
35.190261
 20
4.693995
 30
0.0
 10
35.096848
 20
4.693995
 30
0.0
  0
SPLINE
  5
173
100
AcDbEntity
  8
Layer_1
 62
7
100
AcDbSpline
 70
8
 71
3
 72
8
 73
4
 74
0
 40
0
 40
0
 40
0
 40
0
 40
1
 40
1
 40
1
 40
1
 10
35.096848
 20
4.693995
 30
0.0
 10
34.996817
 20
4.693995
 30
0.0
 10
34.995104
 20
4.689567
 30
0.0
 10
34.902013
 20
4.189881
 30
0.0
  0
SPLINE
  5
174
100
AcDbEntity
  8
Layer_1
 62
7
100
AcDbSpline
 70
8
 71
3
 72
8
 73
4
 74
0
 40
0
 40
0
 40
0
 40
0
 40
1
 40
1
 40
1
 40
1
 10
34.902013
 20
4.189881
 30
0.0
 10
34.605570
 20
2.598633
 30
0.0
 10
33.717792
 20
1.233805
 30
0.0
 10
32.359366
 20
0.280923
 30
0.0
  0
LWPOLYLINE
  5
175
100
AcDbEntity
  8
Layer_1
 62
7
100
AcDbPolyline
 90
7
 70
0
 10
35.960129
 20
9.207015
 30
0.0
 10
37.352444
 20
9.207015
 30
0.0
 10
37.352444
 20
6.950505
 30
0.0
 10
37.352444
 20
4.693995
 30
0.0
 10
36.632281
 20
4.693995
 30
0.0
 10
35.912117
 20
4.693995
 30
0.0
 10
35.912117
 20
2.877024
 30
0.0
  0
SPLINE
  5
176
100
AcDbEntity
  8
Layer_1
 62
7
100
AcDbSpline
 70
8
 71
3
 72
8
 73
4
 74
0
 40
0
 40
0
 40
0
 40
0
 40
1
 40
1
 40
1
 40
1
 10
34.297888
 20
5.488201
 30
0.0
 10
34.313523
 20
5.528925
 30
0.0
 10
34.340679
 20
5.798986
 30
0.0
 10
34.358253
 20
6.088337
 30
0.0
  0
LWPOLYLINE
  5
177
100
AcDbEntity
  8
Layer_1
 62
7
100
AcDbPolyline
 90
5
 70
0
 10
32.359366
 20
0.280923
 30
0.0
 10
32.076664
 20
0.082619
 30
0.0
 10
31.946599
 20
0.311838
 30
0.0
 10
31.946599
 20
0.311838
 30
0.0
 10
31.946599
 20
0.311838
 30
0.0
  0
SPLINE
  5
178
100
AcDbEntity
  8
Layer_1
 62
7
100
AcDbSpline
 70
8
 71
3
 72
8
 73
4
 74
0
 40
0
 40
0
 40
0
 40
0
 40
1
 40
1
 40
1
 40
1
 10
33.698482
 20
5.414158
 30
0.0
 10
34.168687
 20
5.414158
 30
0.0
 10
34.274492
 20
5.427228
 30
0.0
 10
34.297888
 20
5.488201
 30
0.0
  0
LWPOLYLINE
  5
179
100
AcDbEntity
  8
Layer_1
 62
7
100
AcDbPolyline
 90
7
 70
0
 10
34.358253
 20
6.088337
 30
0.0
 10
34.390206
 20
6.614430
 30
0.0
 10
33.758846
 20
6.614430
 30
0.0
 10
33.127487
 20
6.614430
 30
0.0
 10
33.127487
 20
6.014294
 30
0.0
 10
33.127487
 20
5.414158
 30
0.0
 10
33.698482
 20
5.414158
 30
0.0
  0
LWPOLYLINE
  5
17a
100
AcDbEntity
  8
Layer_1
 62
7
100
AcDbPolyline
 90
3
 70
0
 10
34.297888
 20
5.488201
 30
0.0
 10
34.297888
 20
5.488201
 30
0.0
 10
34.297888
 20
5.488201
 30
0.0
  0
SPLINE
  5
17b
100
AcDbEntity
  8
Layer_1
 62
7
100
AcDbSpline
 70
8
 71
3
 72
8
 73
4
 74
0
 40
0
 40
0
 40
0
 40
0
 40
1
 40
1
 40
1
 40
1
 10
35.890945
 20
6.614430
 30
0.0
 10
35.509618
 20
6.614430
 30
0.0
 10
35.187842
 20
6.598227
 30
0.0
 10
35.175890
 20
6.578421
 30
0.0
  0
SPLINE
  5
17c
100
AcDbEntity
  8
Layer_1
 62
7
100
AcDbSpline
 70
8
 71
3
 72
8
 73
4
 74
0
 40
0
 40
0
 40
0
 40
0
 40
1
 40
1
 40
1
 40
1
 10
35.175890
 20
6.578421
 30
0.0
 10
35.163952
 20
6.558618
 30
0.0
 10
35.138467
 20
6.288556
 30
0.0
 10
35.119290
 20
5.978286
 30
0.0
  0
LWPOLYLINE
  5
17d
100
AcDbEntity
  8
Layer_1
 62
7
100
AcDbPolyline
 90
3
 70
0
 10
36.584269
 20
6.014294
 30
0.0
 10
36.584269
 20
6.614430
 30
0.0
 10
35.890945
 20
6.614430
 30
0.0
  0
SPLINE
  5
17e
100
AcDbEntity
  8
Layer_1
 62
7
100
AcDbSpline
 70
8
 71
3
 72
8
 73
4
 74
0
 40
0
 40
0
 40
0
 40
0
 40
1
 40
1
 40
1
 40
1
 10
34.440741
 20
7.653907
 30
0.0
 10
34.457815
 20
7.855936
 30
0.0
 10
34.471791
 20
8.125997
 30
0.0
 10
34.471791
 20
8.254042
 30
0.0
  0
LWPOLYLINE
  5
17f
100
AcDbEntity
  8
Layer_1
 62
7
100
AcDbPolyline
 90
6
 70
0
 10
35.119290
 20
5.978286
 30
0.0
 10
35.084419
 20
5.414158
 30
0.0
 10
35.834345
 20
5.414158
 30
0.0
 10
36.584269
 20
5.414158
 30
0.0
 10
36.584269
 20
6.014294
 30
0.0
 10
36.584269
 20
6.014294
 30
0.0
  0
LWPOLYLINE
  5
180
100
AcDbEntity
  8
Layer_1
 62
7
100
AcDbPolyline
 90
11
 70
0
 10
34.471791
 20
8.254042
 30
0.0
 10
34.471791
 20
8.486853
 30
0.0
 10
33.799639
 20
8.486853
 30
0.0
 10
33.127487
 20
8.486853
 30
0.0
 10
33.127487
 20
7.886717
 30
0.0
 10
33.127487
 20
7.286582
 30
0.0
 10
33.768589
 20
7.286582
 30
0.0
 10
34.409690
 20
7.286582
 30
0.0
 10
34.440741
 20
7.653907
 30
0.0
 10
34.440741
 20
7.653907
 30
0.0
 10
34.440741
 20
7.653907
 30
0.0
  0
SPLINE
  5
181
100
AcDbEntity
  8
Layer_1
 62
7
100
AcDbSpline
 70
8
 71
3
 72
8
 73
4
 74
0
 40
0
 40
0
 40
0
 40
0
 40
1
 40
1
 40
1
 40
1
 10
37.762646
 20
2.091298
 30
0.0
 10
37.748281
 20
2.105661
 30
0.0
 10
37.736540
 20
2.178627
 30
0.0
 10
37.736540
 20
2.253444
 30
0.0
  0
SPLINE
  5
182
100
AcDbEntity
  8
Layer_1
 62
7
100
AcDbSpline
 70
8
 71
3
 72
8
 73
4
 74
0
 40
0
 40
0
 40
0
 40
0
 40
1
 40
1
 40
1
 40
1
 10
37.736540
 20
2.253444
 30
0.0
 10
37.736540
 20
2.328261
 30
0.0
 10
37.719833
 20
2.389475
 30
0.0
 10
37.699431
 20
2.389475
 30
0.0
  0
SPLINE
  5
183
100
AcDbEntity
  8
Layer_1
 62
7
100
AcDbSpline
 70
8
 71
3
 72
8
 73
4
 74
0
 40
0
 40
0
 40
0
 40
0
 40
1
 40
1
 40
1
 40
1
 10
37.699431
 20
2.389475
 30
0.0
 10
37.679026
 20
2.389475
 30
0.0
 10
37.457572
 20
2.338143
 30
0.0
 10
37.207320
 20
2.275403
 30
0.0
  0
SPLINE
  5
184
100
AcDbEntity
  8
Layer_1
 62
7
100
AcDbSpline
 70
8
 71
3
 72
8
 73
4
 74
0
 40
0
 40
0
 40
0
 40
0
 40
1
 40
1
 40
1
 40
1
 10
37.207320
 20
2.275403
 30
0.0
 10
36.957071
 20
2.212663
 30
0.0
 10
36.653862
 20
2.147150
 30
0.0
 10
36.533526
 20
2.129817
 30
0.0
  0
LWPOLYLINE
  5
185
100
AcDbEntity
  8
Layer_1
 62
7
100
AcDbPolyline
 90
10
 70
0
 10
36.584269
 20
7.886717
 30
0.0
 10
36.584269
 20
8.486853
 30
0.0
 10
35.888112
 20
8.486853
 30
0.0
 10
35.191954
 20
8.486853
 30
0.0
 10
35.191954
 20
7.886717
 30
0.0
 10
35.191954
 20
7.286582
 30
0.0
 10
35.888112
 20
7.286582
 30
0.0
 10
36.584269
 20
7.286582
 30
0.0
 10
36.584269
 20
7.886717
 30
0.0
 10
36.584269
 20
7.886717
 30
0.0
  0
SPLINE
  5
186
100
AcDbEntity
  8
Layer_1
 62
7
100
AcDbSpline
 70
8
 71
3
 72
8
 73
4
 74
0
 40
0
 40
0
 40
0
 40
0
 40
1
 40
1
 40
1
 40
1
 10
36.318148
 20
2.975214
 30
0.0
 10
36.472760
 20
3.309856
 30
0.0
 10
36.728313
 20
4.097068
 30
0.0
 10
36.728313
 20
4.238705
 30
0.0
  0
SPLINE
  5
187
100
AcDbEntity
  8
Layer_1
 62
7
100
AcDbSpline
 70
8
 71
3
 72
8
 73
4
 74
0
 40
0
 40
0
 40
0
 40
0
 40
1
 40
1
 40
1
 40
1
 10
36.728313
 20
4.238705
 30
0.0
 10
36.728313
 20
4.288611
 30
0.0
 10
36.782479
 20
4.287136
 30
0.0
 10
37.004377
 20
4.231193
 30
0.0
  0
SPLINE
  5
188
100
AcDbEntity
  8
Layer_1
 62
7
100
AcDbSpline
 70
8
 71
3
 72
8
 73
4
 74
0
 40
0
 40
0
 40
0
 40
0
 40
1
 40
1
 40
1
 40
1
 10
37.004377
 20
4.231193
 30
0.0
 10
37.156209
 20
4.192912
 30
0.0
 10
37.307252
 20
4.152506
 30
0.0
 10
37.340024
 20
4.141400
 30
0.0
  0
SPLINE
  5
189
100
AcDbEntity
  8
Layer_1
 62
7
100
AcDbSpline
 70
8
 71
3
 72
8
 73
4
 74
0
 40
0
 40
0
 40
0
 40
0
 40
1
 40
1
 40
1
 40
1
 10
37.340024
 20
4.141400
 30
0.0
 10
37.408318
 20
4.118255
 30
0.0
 10
37.256311
 20
3.654377
 30
0.0
 10
36.990124
 20
3.073630
 30
0.0
  0
SPLINE
  5
18a
100
AcDbEntity
  8
Layer_1
 62
7
100
AcDbSpline
 70
8
 71
3
 72
8
 73
4
 74
0
 40
0
 40
0
 40
0
 40
0
 40
1
 40
1
 40
1
 40
1
 10
36.990124
 20
3.073630
 30
0.0
 10
36.871628
 20
2.815099
 30
0.0
 10
36.848175
 20
2.725551
 30
0.0
 10
36.898969
 20
2.725551
 30
0.0
  0
SPLINE
  5
18b
100
AcDbEntity
  8
Layer_1
 62
7
100
AcDbSpline
 70
8
 71
3
 72
8
 73
4
 74
0
 40
0
 40
0
 40
0
 40
0
 40
1
 40
1
 40
1
 40
1
 10
36.898969
 20
2.725551
 30
0.0
 10
36.961826
 20
2.725551
 30
0.0
 10
37.592508
 20
2.962544
 30
0.0
 10
37.592508
 20
2.986164
 30
0.0
  0
SPLINE
  5
18c
100
AcDbEntity
  8
Layer_1
 62
7
100
AcDbSpline
 70
8
 71
3
 72
8
 73
4
 74
0
 40
0
 40
0
 40
0
 40
0
 40
1
 40
1
 40
1
 40
1
 10
37.592508
 20
2.986164
 30
0.0
 10
37.592508
 20
2.991853
 30
0.0
 10
37.557670
 20
3.098753
 30
0.0
 10
37.515092
 20
3.223715
 30
0.0
  0
SPLINE
  5
18d
100
AcDbEntity
  8
Layer_1
 62
7
100
AcDbSpline
 70
8
 71
3
 72
8
 73
4
 74
0
 40
0
 40
0
 40
0
 40
0
 40
1
 40
1
 40
1
 40
1
 10
37.515092
 20
3.223715
 30
0.0
 10
37.472513
 20
3.348676
 30
0.0
 10
37.445507
 20
3.458334
 30
0.0
 10
37.455080
 20
3.467399
 30
0.0
  0
SPLINE
  5
18e
100
AcDbEntity
  8
Layer_1
 62
7
100
AcDbSpline
 70
8
 71
3
 72
8
 73
4
 74
0
 40
0
 40
0
 40
0
 40
0
 40
1
 40
1
 40
1
 40
1
 10
37.455080
 20
3.467399
 30
0.0
 10
37.464647
 20
3.476464
 30
0.0
 10
37.581425
 20
3.516007
 30
0.0
 10
37.714580
 20
3.555273
 30
0.0
  0
LWPOLYLINE
  5
18f
100
AcDbEntity
  8
Layer_1
 62
7
100
AcDbPolyline
 90
5
 70
0
 10
36.533526
 20
2.129817
 30
0.0
 10
36.314730
 20
2.098302
 30
0.0
 10
36.233267
 20
2.356740
 30
0.0
 10
36.151800
 20
2.615178
 30
0.0
 10
36.318148
 20
2.975214
 30
0.0
  0
SPLINE
  5
190
100
AcDbEntity
  8
Layer_1
 62
7
100
AcDbSpline
 70
8
 71
3
 72
8
 73
4
 74
0
 40
0
 40
0
 40
0
 40
0
 40
1
 40
1
 40
1
 40
1
 10
38.061632
 20
3.369557
 30
0.0
 10
38.175108
 20
3.091558
 30
0.0
 10
38.360683
 20
2.421845
 30
0.0
 10
38.360683
 20
2.290320
 30
0.0
  0
SPLINE
  5
191
100
AcDbEntity
  8
Layer_1
 62
7
100
AcDbSpline
 70
8
 71
3
 72
8
 73
4
 74
0
 40
0
 40
0
 40
0
 40
0
 40
1
 40
1
 40
1
 40
1
 10
38.360683
 20
2.290320
 30
0.0
 10
38.360683
 20
2.231370
 30
0.0
 10
38.282657
 20
2.189595
 30
0.0
 10
38.074727
 20
2.137217
 30
0.0
  0
SPLINE
  5
192
100
AcDbEntity
  8
Layer_1
 62
7
100
AcDbSpline
 70
8
 71
3
 72
8
 73
4
 74
0
 40
0
 40
0
 40
0
 40
0
 40
1
 40
1
 40
1
 40
1
 10
38.074727
 20
2.137217
 30
0.0
 10
37.917450
 20
2.097599
 30
0.0
 10
37.777019
 20
2.076936
 30
0.0
 10
37.762657
 20
2.091299
 30
0.0
  0
LWPOLYLINE
  5
193
100
AcDbEntity
  8
Layer_1
 62
7
100
AcDbPolyline
 90
3
 70
0
 10
37.714580
 20
3.555273
 30
0.0
 10
37.956679
 20
3.626668
 30
0.0
 10
38.061632
 20
3.369557
 30
0.0
  0
SPLINE
  5
194
100
AcDbEntity
  8
Layer_1
 62
7
100
AcDbSpline
 70
8
 71
3
 72
8
 73
4
 74
0
 40
0
 40
0
 40
0
 40
0
 40
1
 40
1
 40
1
 40
1
 10
37.762646
 20
13.373848
 30
0.0
 10
37.748281
 20
13.388211
 30
0.0
 10
37.736540
 20
13.461177
 30
0.0
 10
37.736540
 20
13.535994
 30
0.0
  0
SPLINE
  5
195
100
AcDbEntity
  8
Layer_1
 62
7
100
AcDbSpline
 70
8
 71
3
 72
8
 73
4
 74
0
 40
0
 40
0
 40
0
 40
0
 40
1
 40
1
 40
1
 40
1
 10
37.736540
 20
13.535994
 30
0.0
 10
37.736540
 20
13.610811
 30
0.0
 10
37.719833
 20
13.672025
 30
0.0
 10
37.699431
 20
13.672025
 30
0.0
  0
SPLINE
  5
196
100
AcDbEntity
  8
Layer_1
 62
7
100
AcDbSpline
 70
8
 71
3
 72
8
 73
4
 74
0
 40
0
 40
0
 40
0
 40
0
 40
1
 40
1
 40
1
 40
1
 10
37.699431
 20
13.672025
 30
0.0
 10
37.679026
 20
13.672025
 30
0.0
 10
37.457572
 20
13.620692
 30
0.0
 10
37.207320
 20
13.557953
 30
0.0
  0
SPLINE
  5
197
100
AcDbEntity
  8
Layer_1
 62
7
100
AcDbSpline
 70
8
 71
3
 72
8
 73
4
 74
0
 40
0
 40
0
 40
0
 40
0
 40
1
 40
1
 40
1
 40
1
 10
37.207320
 20
13.557953
 30
0.0
 10
36.957071
 20
13.495213
 30
0.0
 10
36.653862
 20
13.429700
 30
0.0
 10
36.533526
 20
13.412367
 30
0.0
  0
LWPOLYLINE
  5
198
100
AcDbEntity
  8
Layer_1
 62
7
100
AcDbPolyline
 90
3
 70
0
 10
37.762657
 20
2.091299
 30
0.0
 10
37.762657
 20
2.091299
 30
0.0
 10
37.762646
 20
2.091298
 30
0.0
  0
SPLINE
  5
199
100
AcDbEntity
  8
Layer_1
 62
7
100
AcDbSpline
 70
8
 71
3
 72
8
 73
4
 74
0
 40
0
 40
0
 40
0
 40
0
 40
1
 40
1
 40
1
 40
1
 10
36.318148
 20
14.257764
 30
0.0
 10
36.472760
 20
14.592406
 30
0.0
 10
36.728313
 20
15.379618
 30
0.0
 10
36.728313
 20
15.521255
 30
0.0
  0
SPLINE
  5
19a
100
AcDbEntity
  8
Layer_1
 62
7
100
AcDbSpline
 70
8
 71
3
 72
8
 73
4
 74
0
 40
0
 40
0
 40
0
 40
0
 40
1
 40
1
 40
1
 40
1
 10
36.728313
 20
15.521255
 30
0.0
 10
36.728313
 20
15.571161
 30
0.0
 10
36.782479
 20
15.569686
 30
0.0
 10
37.004377
 20
15.513743
 30
0.0
  0
SPLINE
  5
19b
100
AcDbEntity
  8
Layer_1
 62
7
100
AcDbSpline
 70
8
 71
3
 72
8
 73
4
 74
0
 40
0
 40
0
 40
0
 40
0
 40
1
 40
1
 40
1
 40
1
 10
37.004377
 20
15.513743
 30
0.0
 10
37.156209
 20
15.475462
 30
0.0
 10
37.307252
 20
15.435055
 30
0.0
 10
37.340024
 20
15.423950
 30
0.0
  0
SPLINE
  5
19c
100
AcDbEntity
  8
Layer_1
 62
7
100
AcDbSpline
 70
8
 71
3
 72
8
 73
4
 74
0
 40
0
 40
0
 40
0
 40
0
 40
1
 40
1
 40
1
 40
1
 10
37.340024
 20
15.423950
 30
0.0
 10
37.408318
 20
15.400805
 30
0.0
 10
37.256311
 20
14.936926
 30
0.0
 10
36.990124
 20
14.356180
 30
0.0
  0
SPLINE
  5
19d
100
AcDbEntity
  8
Layer_1
 62
7
100
AcDbSpline
 70
8
 71
3
 72
8
 73
4
 74
0
 40
0
 40
0
 40
0
 40
0
 40
1
 40
1
 40
1
 40
1
 10
36.990124
 20
14.356180
 30
0.0
 10
36.871628
 20
14.097649
 30
0.0
 10
36.848175
 20
14.008101
 30
0.0
 10
36.898969
 20
14.008101
 30
0.0
  0
SPLINE
  5
19e
100
AcDbEntity
  8
Layer_1
 62
7
100
AcDbSpline
 70
8
 71
3
 72
8
 73
4
 74
0
 40
0
 40
0
 40
0
 40
0
 40
1
 40
1
 40
1
 40
1
 10
36.898969
 20
14.008101
 30
0.0
 10
36.961826
 20
14.008101
 30
0.0
 10
37.592508
 20
14.245094
 30
0.0
 10
37.592508
 20
14.268713
 30
0.0
  0
SPLINE
  5
19f
100
AcDbEntity
  8
Layer_1
 62
7
100
AcDbSpline
 70
8
 71
3
 72
8
 73
4
 74
0
 40
0
 40
0
 40
0
 40
0
 40
1
 40
1
 40
1
 40
1
 10
37.592508
 20
14.268713
 30
0.0
 10
37.592508
 20
14.274403
 30
0.0
 10
37.557670
 20
14.381302
 30
0.0
 10
37.515092
 20
14.506264
 30
0.0
  0
SPLINE
  5
1a0
100
AcDbEntity
  8
Layer_1
 62
7
100
AcDbSpline
 70
8
 71
3
 72
8
 73
4
 74
0
 40
0
 40
0
 40
0
 40
0
 40
1
 40
1
 40
1
 40
1
 10
37.515092
 20
14.506264
 30
0.0
 10
37.472513
 20
14.631226
 30
0.0
 10
37.445507
 20
14.740884
 30
0.0
 10
37.455080
 20
14.749948
 30
0.0
  0
SPLINE
  5
1a1
100
AcDbEntity
  8
Layer_1
 62
7
100
AcDbSpline
 70
8
 71
3
 72
8
 73
4
 74
0
 40
0
 40
0
 40
0
 40
0
 40
1
 40
1
 40
1
 40
1
 10
37.455080
 20
14.749948
 30
0.0
 10
37.464647
 20
14.759013
 30
0.0
 10
37.581425
 20
14.798556
 30
0.0
 10
37.714580
 20
14.837823
 30
0.0
  0
LWPOLYLINE
  5
1a2
100
AcDbEntity
  8
Layer_1
 62
7
100
AcDbPolyline
 90
5
 70
0
 10
36.533526
 20
13.412367
 30
0.0
 10
36.314730
 20
13.380852
 30
0.0
 10
36.233267
 20
13.639290
 30
0.0
 10
36.151800
 20
13.897727
 30
0.0
 10
36.318148
 20
14.257764
 30
0.0
  0
SPLINE
  5
1a3
100
AcDbEntity
  8
Layer_1
 62
7
100
AcDbSpline
 70
8
 71
3
 72
8
 73
4
 74
0
 40
0
 40
0
 40
0
 40
0
 40
1
 40
1
 40
1
 40
1
 10
38.061632
 20
14.652107
 30
0.0
 10
38.175108
 20
14.374107
 30
0.0
 10
38.360683
 20
13.704395
 30
0.0
 10
38.360683
 20
13.572870
 30
0.0
  0
SPLINE
  5
1a4
100
AcDbEntity
  8
Layer_1
 62
7
100
AcDbSpline
 70
8
 71
3
 72
8
 73
4
 74
0
 40
0
 40
0
 40
0
 40
0
 40
1
 40
1
 40
1
 40
1
 10
38.360683
 20
13.572870
 30
0.0
 10
38.360683
 20
13.513919
 30
0.0
 10
38.282657
 20
13.472144
 30
0.0
 10
38.074727
 20
13.419766
 30
0.0
  0
SPLINE
  5
1a5
100
AcDbEntity
  8
Layer_1
 62
7
100
AcDbSpline
 70
8
 71
3
 72
8
 73
4
 74
0
 40
0
 40
0
 40
0
 40
0
 40
1
 40
1
 40
1
 40
1
 10
38.074727
 20
13.419766
 30
0.0
 10
37.917450
 20
13.380149
 30
0.0
 10
37.777019
 20
13.359485
 30
0.0
 10
37.762657
 20
13.373849
 30
0.0
  0
LWPOLYLINE
  5
1a6
100
AcDbEntity
  8
Layer_1
 62
7
100
AcDbPolyline
 90
3
 70
0
 10
37.714580
 20
14.837823
 30
0.0
 10
37.956679
 20
14.909217
 30
0.0
 10
38.061632
 20
14.652107
 30
0.0
  0
SPLINE
  5
1a7
100
AcDbEntity
  8
Layer_1
 62
7
100
AcDbSpline
 70
8
 71
3
 72
8
 73
4
 74
0
 40
0
 40
0
 40
0
 40
0
 40
1
 40
1
 40
1
 40
1
 10
31.946599
 20
11.594388
 30
0.0
 10
31.875061
 20
11.720458
 30
0.0
 10
31.778908
 20
11.886191
 30
0.0
 10
31.732923
 20
11.962683
 30
0.0
  0
LWPOLYLINE
  5
1a8
100
AcDbEntity
  8
Layer_1
 62
7
100
AcDbPolyline
 90
3
 70
0
 10
37.762657
 20
13.373849
 30
0.0
 10
37.762657
 20
13.373849
 30
0.0
 10
37.762646
 20
13.373848
 30
0.0
  0
SPLINE
  5
1a9
100
AcDbEntity
  8
Layer_1
 62
7
100
AcDbSpline
 70
8
 71
3
 72
8
 73
4
 74
0
 40
0
 40
0
 40
0
 40
0
 40
1
 40
1
 40
1
 40
1
 10
31.944299
 20
12.296027
 30
0.0
 10
32.376412
 20
12.580603
 30
0.0
 10
33.027075
 20
13.250567
 30
0.0
 10
33.343159
 20
13.736383
 30
0.0
  0
SPLINE
  5
1aa
100
AcDbEntity
  8
Layer_1
 62
7
100
AcDbSpline
 70
8
 71
3
 72
8
 73
4
 74
0
 40
0
 40
0
 40
0
 40
0
 40
1
 40
1
 40
1
 40
1
 10
33.343159
 20
13.736383
 30
0.0
 10
33.647053
 20
14.203459
 30
0.0
 10
33.920633
 20
14.831314
 30
0.0
 10
34.080131
 20
15.427690
 30
0.0
  0
SPLINE
  5
1ab
100
AcDbEntity
  8
Layer_1
 62
7
100
AcDbSpline
 70
8
 71
3
 72
8
 73
4
 74
0
 40
0
 40
0
 40
0
 40
0
 40
1
 40
1
 40
1
 40
1
 10
34.080131
 20
15.427690
 30
0.0
 10
34.241624
 20
16.031535
 30
0.0
 10
34.322639
 20
15.976546
 30
0.0
 10
33.271519
 20
15.976546
 30
0.0
  0
LWPOLYLINE
  5
1ac
100
AcDbEntity
  8
Layer_1
 62
7
100
AcDbPolyline
 90
3
 70
0
 10
31.732923
 20
11.962683
 30
0.0
 10
31.649312
 20
12.101758
 30
0.0
 10
31.944299
 20
12.296027
 30
0.0
  0
SPLINE
  5
1ad
100
AcDbEntity
  8
Layer_1
 62
7
100
AcDbSpline
 70
8
 71
3
 72
8
 73
4
 74
0
 40
0
 40
0
 40
0
 40
0
 40
1
 40
1
 40
1
 40
1
 10
34.569521
 20
21.464190
 30
0.0
 10
34.740221
 20
21.430506
 30
0.0
 10
34.928697
 20
21.391416
 30
0.0
 10
34.988359
 20
21.377325
 30
0.0
  0
LWPOLYLINE
  5
1ae
100
AcDbEntity
  8
Layer_1
 62
7
100
AcDbPolyline
 90
9
 70
0
 10
33.271519
 20
15.976546
 30
0.0
 10
32.359315
 20
15.976546
 30
0.0
 10
32.359315
 20
18.233056
 30
0.0
 10
32.359315
 20
20.489565
 30
0.0
 10
33.054434
 20
20.489565
 30
0.0
 10
33.749556
 20
20.489565
 30
0.0
 10
34.004357
 20
21.007500
 30
0.0
 10
34.259162
 20
21.525434
 30
0.0
 10
34.569521
 20
21.464190
 30
0.0
  0
SPLINE
  5
1af
100
AcDbEntity
  8
Layer_1
 62
7
100
AcDbSpline
 70
8
 71
3
 72
8
 73
4
 74
0
 40
0
 40
0
 40
0
 40
0
 40
1
 40
1
 40
1
 40
1
 10
35.003077
 20
21.167923
 30
0.0
 10
34.951509
 20
21.066843
 30
0.0
 10
34.832479
 20
20.883478
 30
0.0
 10
34.738567
 20
20.760444
 30
0.0
  0
SPLINE
  5
1b0
100
AcDbEntity
  8
Layer_1
 62
7
100
AcDbSpline
 70
8
 71
3
 72
8
 73
4
 74
0
 40
0
 40
0
 40
0
 40
0
 40
1
 40
1
 40
1
 40
1
 10
34.738567
 20
20.760444
 30
0.0
 10
34.644652
 20
20.637410
 30
0.0
 10
34.567814
 20
20.526130
 30
0.0
 10
34.567814
 20
20.513155
 30
0.0
  0
SPLINE
  5
1b1
100
AcDbEntity
  8
Layer_1
 62
7
100
AcDbSpline
 70
8
 71
3
 72
8
 73
4
 74
0
 40
0
 40
0
 40
0
 40
0
 40
1
 40
1
 40
1
 40
1
 10
34.567814
 20
20.513155
 30
0.0
 10
34.567814
 20
20.500181
 30
0.0
 10
35.194356
 20
20.489565
 30
0.0
 10
35.960129
 20
20.489565
 30
0.0
  0
LWPOLYLINE
  5
1b2
100
AcDbEntity
  8
Layer_1
 62
7
100
AcDbPolyline
 90
3
 70
0
 10
34.988359
 20
21.377325
 30
0.0
 10
35.096837
 20
21.351705
 30
0.0
 10
35.003077
 20
21.167923
 30
0.0
  0
SPLINE
  5
1b3
100
AcDbEntity
  8
Layer_1
 62
7
100
AcDbSpline
 70
8
 71
3
 72
8
 73
4
 74
0
 40
0
 40
0
 40
0
 40
0
 40
1
 40
1
 40
1
 40
1
 10
35.912117
 20
14.159574
 30
0.0
 10
35.912117
 20
12.032808
 30
0.0
 10
35.871582
 20
12.183900
 30
0.0
 10
36.451966
 20
12.147385
 30
0.0
  0
SPLINE
  5
1b4
100
AcDbEntity
  8
Layer_1
 62
7
100
AcDbSpline
 70
8
 71
3
 72
8
 73
4
 74
0
 40
0
 40
0
 40
0
 40
0
 40
1
 40
1
 40
1
 40
1
 10
36.451966
 20
12.147385
 30
0.0
 10
36.844230
 20
12.122705
 30
0.0
 10
37.340029
 20
12.198708
 30
0.0
 10
37.440193
 20
12.298874
 30
0.0
  0
SPLINE
  5
1b5
100
AcDbEntity
  8
Layer_1
 62
7
100
AcDbSpline
 70
8
 71
3
 72
8
 73
4
 74
0
 40
0
 40
0
 40
0
 40
0
 40
1
 40
1
 40
1
 40
1
 10
37.440193
 20
12.298874
 30
0.0
 10
37.476803
 20
12.335481
 30
0.0
 10
37.518241
 20
12.509149
 30
0.0
 10
37.532372
 20
12.685163
 30
0.0
  0
SPLINE
  5
1b6
100
AcDbEntity
  8
Layer_1
 62
7
100
AcDbSpline
 70
8
 71
3
 72
8
 73
4
 74
0
 40
0
 40
0
 40
0
 40
0
 40
1
 40
1
 40
1
 40
1
 10
37.532372
 20
12.685163
 30
0.0
 10
37.548826
 20
12.890089
 30
0.0
 10
37.577161
 20
12.997935
 30
0.0
 10
37.611276
 20
12.985428
 30
0.0
  0
SPLINE
  5
1b7
100
AcDbEntity
  8
Layer_1
 62
7
100
AcDbSpline
 70
8
 71
3
 72
8
 73
4
 74
0
 40
0
 40
0
 40
0
 40
0
 40
1
 40
1
 40
1
 40
1
 10
37.611276
 20
12.985428
 30
0.0
 10
37.640556
 20
12.974696
 30
0.0
 10
37.811899
 20
12.917263
 30
0.0
 10
37.992036
 20
12.857803
 30
0.0
  0
SPLINE
  5
1b8
100
AcDbEntity
  8
Layer_1
 62
7
100
AcDbSpline
 70
8
 71
3
 72
8
 73
4
 74
0
 40
0
 40
0
 40
0
 40
0
 40
1
 40
1
 40
1
 40
1
 10
37.992036
 20
12.857803
 30
0.0
 10
38.172173
 20
12.798343
 30
0.0
 10
38.332427
 20
12.716157
 30
0.0
 10
38.348158
 20
12.675169
 30
0.0
  0
SPLINE
  5
1b9
100
AcDbEntity
  8
Layer_1
 62
7
100
AcDbSpline
 70
8
 71
3
 72
8
 73
4
 74
0
 40
0
 40
0
 40
0
 40
0
 40
1
 40
1
 40
1
 40
1
 10
38.348158
 20
12.675169
 30
0.0
 10
38.387853
 20
12.571722
 30
0.0
 10
38.275678
 20
12.057449
 30
0.0
 10
38.166918
 20
11.844259
 30
0.0
  0
SPLINE
  5
1ba
100
AcDbEntity
  8
Layer_1
 62
7
100
AcDbSpline
 70
8
 71
3
 72
8
 73
4
 74
0
 40
0
 40
0
 40
0
 40
0
 40
1
 40
1
 40
1
 40
1
 10
38.166918
 20
11.844259
 30
0.0
 10
38.102142
 20
11.717293
 30
0.0
 10
38.018920
 20
11.644441
 30
0.0
 10
37.870675
 20
11.584940
 30
0.0
  0
SPLINE
  5
1bb
100
AcDbEntity
  8
Layer_1
 62
7
100
AcDbSpline
 70
8
 71
3
 72
8
 73
4
 74
0
 40
0
 40
0
 40
0
 40
0
 40
1
 40
1
 40
1
 40
1
 10
37.870675
 20
11.584940
 30
0.0
 10
37.597458
 20
11.475277
 30
0.0
 10
36.687816
 20
11.415097
 30
0.0
 10
36.089288
 20
11.467086
 30
0.0
  0
SPLINE
  5
1bc
100
AcDbEntity
  8
Layer_1
 62
7
100
AcDbSpline
 70
8
 71
3
 72
8
 73
4
 74
0
 40
0
 40
0
 40
0
 40
0
 40
1
 40
1
 40
1
 40
1
 10
36.089288
 20
11.467086
 30
0.0
 10
35.571639
 20
11.512050
 30
0.0
 10
35.347173
 20
11.607486
 30
0.0
 10
35.248209
 20
11.824687
 30
0.0
  0
SPLINE
  5
1bd
100
AcDbEntity
  8
Layer_1
 62
7
100
AcDbSpline
 70
8
 71
3
 72
8
 73
4
 74
0
 40
0
 40
0
 40
0
 40
0
 40
1
 40
1
 40
1
 40
1
 10
35.248209
 20
11.824687
 30
0.0
 10
35.208066
 20
11.912791
 30
0.0
 10
35.191954
 20
12.525029
 30
0.0
 10
35.191954
 20
13.962349
 30
0.0
  0
SPLINE
  5
1be
100
AcDbEntity
  8
Layer_1
 62
7
100
AcDbSpline
 70
8
 71
3
 72
8
 73
4
 74
0
 40
0
 40
0
 40
0
 40
0
 40
1
 40
1
 40
1
 40
1
 10
35.191954
 20
13.962349
 30
0.0
 10
35.191954
 20
15.938081
 30
0.0
 10
35.190261
 20
15.976545
 30
0.0
 10
35.096848
 20
15.976545
 30
0.0
  0
SPLINE
  5
1bf
100
AcDbEntity
  8
Layer_1
 62
7
100
AcDbSpline
 70
8
 71
3
 72
8
 73
4
 74
0
 40
0
 40
0
 40
0
 40
0
 40
1
 40
1
 40
1
 40
1
 10
35.096848
 20
15.976545
 30
0.0
 10
34.996817
 20
15.976545
 30
0.0
 10
34.995104
 20
15.972117
 30
0.0
 10
34.902013
 20
15.472431
 30
0.0
  0
SPLINE
  5
1c0
100
AcDbEntity
  8
Layer_1
 62
7
100
AcDbSpline
 70
8
 71
3
 72
8
 73
4
 74
0
 40
0
 40
0
 40
0
 40
0
 40
1
 40
1
 40
1
 40
1
 10
34.902013
 20
15.472431
 30
0.0
 10
34.605570
 20
13.881184
 30
0.0
 10
33.717792
 20
12.516355
 30
0.0
 10
32.359366
 20
11.563474
 30
0.0
  0
LWPOLYLINE
  5
1c1
100
AcDbEntity
  8
Layer_1
 62
7
100
AcDbPolyline
 90
7
 70
0
 10
35.960129
 20
20.489565
 30
0.0
 10
37.352444
 20
20.489565
 30
0.0
 10
37.352444
 20
18.233055
 30
0.0
 10
37.352444
 20
15.976545
 30
0.0
 10
36.632281
 20
15.976545
 30
0.0
 10
35.912117
 20
15.976545
 30
0.0
 10
35.912117
 20
14.159574
 30
0.0
  0
SPLINE
  5
1c2
100
AcDbEntity
  8
Layer_1
 62
7
100
AcDbSpline
 70
8
 71
3
 72
8
 73
4
 74
0
 40
0
 40
0
 40
0
 40
0
 40
1
 40
1
 40
1
 40
1
 10
34.297888
 20
16.770751
 30
0.0
 10
34.313523
 20
16.811475
 30
0.0
 10
34.340679
 20
17.081536
 30
0.0
 10
34.358253
 20
17.370887
 30
0.0
  0
LWPOLYLINE
  5
1c3
100
AcDbEntity
  8
Layer_1
 62
7
100
AcDbPolyline
 90
5
 70
0
 10
32.359366
 20
11.563474
 30
0.0
 10
32.076664
 20
11.365169
 30
0.0
 10
31.946599
 20
11.594388
 30
0.0
 10
31.946599
 20
11.594388
 30
0.0
 10
31.946599
 20
11.594388
 30
0.0
  0
SPLINE
  5
1c4
100
AcDbEntity
  8
Layer_1
 62
7
100
AcDbSpline
 70
8
 71
3
 72
8
 73
4
 74
0
 40
0
 40
0
 40
0
 40
0
 40
1
 40
1
 40
1
 40
1
 10
33.698482
 20
16.696708
 30
0.0
 10
34.168687
 20
16.696708
 30
0.0
 10
34.274492
 20
16.709778
 30
0.0
 10
34.297888
 20
16.770751
 30
0.0
  0
LWPOLYLINE
  5
1c5
100
AcDbEntity
  8
Layer_1
 62
7
100
AcDbPolyline
 90
7
 70
0
 10
34.358253
 20
17.370887
 30
0.0
 10
34.390206
 20
17.896979
 30
0.0
 10
33.758846
 20
17.896979
 30
0.0
 10
33.127487
 20
17.896979
 30
0.0
 10
33.127487
 20
17.296844
 30
0.0
 10
33.127487
 20
16.696708
 30
0.0
 10
33.698482
 20
16.696708
 30
0.0
  0
LWPOLYLINE
  5
1c6
100
AcDbEntity
  8
Layer_1
 62
7
100
AcDbPolyline
 90
3
 70
0
 10
34.297888
 20
16.770751
 30
0.0
 10
34.297888
 20
16.770751
 30
0.0
 10
34.297888
 20
16.770751
 30
0.0
  0
SPLINE
  5
1c7
100
AcDbEntity
  8
Layer_1
 62
7
100
AcDbSpline
 70
8
 71
3
 72
8
 73
4
 74
0
 40
0
 40
0
 40
0
 40
0
 40
1
 40
1
 40
1
 40
1
 10
35.890945
 20
17.896979
 30
0.0
 10
35.509618
 20
17.896979
 30
0.0
 10
35.187842
 20
17.880777
 30
0.0
 10
35.175890
 20
17.860971
 30
0.0
  0
SPLINE
  5
1c8
100
AcDbEntity
  8
Layer_1
 62
7
100
AcDbSpline
 70
8
 71
3
 72
8
 73
4
 74
0
 40
0
 40
0
 40
0
 40
0
 40
1
 40
1
 40
1
 40
1
 10
35.175890
 20
17.860971
 30
0.0
 10
35.163952
 20
17.841168
 30
0.0
 10
35.138467
 20
17.571106
 30
0.0
 10
35.119290
 20
17.260836
 30
0.0
  0
LWPOLYLINE
  5
1c9
100
AcDbEntity
  8
Layer_1
 62
7
100
AcDbPolyline
 90
3
 70
0
 10
36.584269
 20
17.296844
 30
0.0
 10
36.584269
 20
17.896979
 30
0.0
 10
35.890945
 20
17.896979
 30
0.0
  0
SPLINE
  5
1ca
100
AcDbEntity
  8
Layer_1
 62
7
100
AcDbSpline
 70
8
 71
3
 72
8
 73
4
 74
0
 40
0
 40
0
 40
0
 40
0
 40
1
 40
1
 40
1
 40
1
 10
34.440741
 20
18.936457
 30
0.0
 10
34.457815
 20
19.138485
 30
0.0
 10
34.471791
 20
19.408546
 30
0.0
 10
34.471791
 20
19.536592
 30
0.0
  0
LWPOLYLINE
  5
1cb
100
AcDbEntity
  8
Layer_1
 62
7
100
AcDbPolyline
 90
6
 70
0
 10
35.119290
 20
17.260836
 30
0.0
 10
35.084419
 20
16.696708
 30
0.0
 10
35.834345
 20
16.696708
 30
0.0
 10
36.584269
 20
16.696708
 30
0.0
 10
36.584269
 20
17.296844
 30
0.0
 10
36.584269
 20
17.296844
 30
0.0
  0
LWPOLYLINE
  5
1cc
100
AcDbEntity
  8
Layer_1
 62
7
100
AcDbPolyline
 90
11
 70
0
 10
34.471791
 20
19.536592
 30
0.0
 10
34.471791
 20
19.769403
 30
0.0
 10
33.799639
 20
19.769403
 30
0.0
 10
33.127487
 20
19.769403
 30
0.0
 10
33.127487
 20
19.169267
 30
0.0
 10
33.127487
 20
18.569131
 30
0.0
 10
33.768589
 20
18.569131
 30
0.0
 10
34.409690
 20
18.569131
 30
0.0
 10
34.440741
 20
18.936457
 30
0.0
 10
34.440741
 20
18.936457
 30
0.0
 10
34.440741
 20
18.936457
 30
0.0
  0
SPLINE
  5
1cd
100
AcDbEntity
  8
Layer_1
 62
7
100
AcDbSpline
 70
8
 71
3
 72
8
 73
4
 74
0
 40
0
 40
0
 40
0
 40
0
 40
1
 40
1
 40
1
 40
1
 10
31.315155
 20
12.987424
 30
0.0
 10
31.286004
 20
13.157611
 30
0.0
 10
31.253043
 20
13.305964
 30
0.0
 10
31.241910
 20
13.317097
 30
0.0
  0
SPLINE
  5
1ce
100
AcDbEntity
  8
Layer_1
 62
7
100
AcDbSpline
 70
8
 71
3
 72
8
 73
4
 74
0
 40
0
 40
0
 40
0
 40
0
 40
1
 40
1
 40
1
 40
1
 10
31.241910
 20
13.317097
 30
0.0
 10
31.230762
 20
13.328230
 30
0.0
 10
31.083349
 20
13.295078
 30
0.0
 10
30.914292
 20
13.243426
 30
0.0
  0
SPLINE
  5
1cf
100
AcDbEntity
  8
Layer_1
 62
7
100
AcDbSpline
 70
8
 71
3
 72
8
 73
4
 74
0
 40
0
 40
0
 40
0
 40
0
 40
1
 40
1
 40
1
 40
1
 10
30.914292
 20
13.243426
 30
0.0
 10
30.154595
 20
13.011315
 30
0.0
 10
28.560237
 20
12.680312
 30
0.0
 10
28.470138
 20
12.735997
 30
0.0
  0
SPLINE
  5
1d0
100
AcDbEntity
  8
Layer_1
 62
7
100
AcDbSpline
 70
8
 71
3
 72
8
 73
4
 74
0
 40
0
 40
0
 40
0
 40
0
 40
1
 40
1
 40
1
 40
1
 10
28.470138
 20
12.735997
 30
0.0
 10
28.454220
 20
12.745836
 30
0.0
 10
28.390181
 20
12.916539
 30
0.0
 10
28.327835
 20
13.115336
 30
0.0
  0
LWPOLYLINE
  5
1d1
100
AcDbEntity
  8
Layer_1
 62
7
100
AcDbPolyline
 90
10
 70
0
 10
36.584269
 20
19.169267
 30
0.0
 10
36.584269
 20
19.769403
 30
0.0
 10
35.888112
 20
19.769403
 30
0.0
 10
35.191954
 20
19.769403
 30
0.0
 10
35.191954
 20
19.169267
 30
0.0
 10
35.191954
 20
18.569131
 30
0.0
 10
35.888112
 20
18.569131
 30
0.0
 10
36.584269
 20
18.569131
 30
0.0
 10
36.584269
 20
19.169267
 30
0.0
 10
36.584269
 20
19.169267
 30
0.0
  0
SPLINE
  5
1d2
100
AcDbEntity
  8
Layer_1
 62
7
100
AcDbSpline
 70
8
 71
3
 72
8
 73
4
 74
0
 40
0
 40
0
 40
0
 40
0
 40
1
 40
1
 40
1
 40
1
 10
28.481280
 20
14.042510
 30
0.0
 10
28.786605
 20
14.689921
 30
0.0
 10
29.158500
 20
15.739452
 30
0.0
 10
29.405123
 20
16.649690
 30
0.0
  0
SPLINE
  5
1d3
100
AcDbEntity
  8
Layer_1
 62
7
100
AcDbSpline
 70
8
 71
3
 72
8
 73
4
 74
0
 40
0
 40
0
 40
0
 40
0
 40
1
 40
1
 40
1
 40
1
 10
29.405123
 20
16.649690
 30
0.0
 10
29.498380
 20
16.993899
 30
0.0
 10
29.574685
 20
17.285722
 30
0.0
 10
29.574685
 20
17.298187
 30
0.0
  0
SPLINE
  5
1d4
100
AcDbEntity
  8
Layer_1
 62
7
100
AcDbSpline
 70
8
 71
3
 72
8
 73
4
 74
0
 40
0
 40
0
 40
0
 40
0
 40
1
 40
1
 40
1
 40
1
 10
29.574685
 20
17.298187
 30
0.0
 10
29.574685
 20
17.310652
 30
0.0
 10
29.283019
 20
17.320849
 30
0.0
 10
28.926539
 20
17.320849
 30
0.0
  0
LWPOLYLINE
  5
1d5
100
AcDbEntity
  8
Layer_1
 62
7
100
AcDbPolyline
 90
3
 70
0
 10
28.327835
 20
13.115336
 30
0.0
 10
28.214479
 20
13.476784
 30
0.0
 10
28.481280
 20
14.042510
 30
0.0
  0
SPLINE
  5
1d6
100
AcDbEntity
  8
Layer_1
 62
7
100
AcDbSpline
 70
8
 71
3
 72
8
 73
4
 74
0
 40
0
 40
0
 40
0
 40
0
 40
1
 40
1
 40
1
 40
1
 10
30.389370
 20
17.068792
 30
0.0
 10
30.159734
 20
16.089215
 30
0.0
 10
29.719146
 20
14.858657
 30
0.0
 10
29.332202
 20
14.116125
 30
0.0
  0
LWPOLYLINE
  5
1d7
100
AcDbEntity
  8
Layer_1
 62
7
100
AcDbPolyline
 90
11
 70
0
 10
28.926539
 20
17.320849
 30
0.0
 10
28.278393
 20
17.320849
 30
0.0
 10
28.278393
 20
17.704936
 30
0.0
 10
28.278393
 20
18.089023
 30
0.0
 10
30.054793
 20
18.089023
 30
0.0
 10
31.831195
 20
18.089023
 30
0.0
 10
31.831195
 20
17.704936
 30
0.0
 10
31.831195
 20
17.320849
 30
0.0
 10
31.139827
 20
17.320849
 30
0.0
 10
30.448459
 20
17.320849
 30
0.0
 10
30.389370
 20
17.068792
 30
0.0
  0
SPLINE
  5
1d8
100
AcDbEntity
  8
Layer_1
 62
7
100
AcDbSpline
 70
8
 71
3
 72
8
 73
4
 74
0
 40
0
 40
0
 40
0
 40
0
 40
1
 40
1
 40
1
 40
1
 10
29.180683
 20
13.576341
 30
0.0
 10
29.488836
 20
13.577131
 30
0.0
 10
31.063020
 20
14.031105
 30
0.0
 10
31.063020
 20
14.119173
 30
0.0
  0
SPLINE
  5
1d9
100
AcDbEntity
  8
Layer_1
 62
7
100
AcDbSpline
 70
8
 71
3
 72
8
 73
4
 74
0
 40
0
 40
0
 40
0
 40
0
 40
1
 40
1
 40
1
 40
1
 10
31.063020
 20
14.119173
 30
0.0
 10
31.063020
 20
14.195115
 30
0.0
 10
30.768519
 20
15.175275
 30
0.0
 10
30.655412
 20
15.475768
 30
0.0
  0
LWPOLYLINE
  5
1da
100
AcDbEntity
  8
Layer_1
 62
7
100
AcDbPolyline
 90
3
 70
0
 10
29.332202
 20
14.116125
 30
0.0
 10
29.050739
 20
13.576003
 30
0.0
 10
29.180683
 20
13.576341
 30
0.0
  0
SPLINE
  5
1db
100
AcDbEntity
  8
Layer_1
 62
7
100
AcDbSpline
 70
8
 71
3
 72
8
 73
4
 74
0
 40
0
 40
0
 40
0
 40
0
 40
1
 40
1
 40
1
 40
1
 10
31.448067
 20
15.551104
 30
0.0
 10
31.698204
 20
14.860418
 30
0.0
 10
31.964136
 20
13.844217
 30
0.0
 10
32.091035
 20
13.094165
 30
0.0
  0
LWPOLYLINE
  5
1dc
100
AcDbEntity
  8
Layer_1
 62
7
100
AcDbPolyline
 90
5
 70
0
 10
30.655412
 20
15.475768
 30
0.0
 10
30.545515
 20
15.767741
 30
0.0
 10
30.921689
 20
15.866796
 30
0.0
 10
31.297866
 20
15.965850
 30
0.0
 10
31.448067
 20
15.551104
 30
0.0
  0
LWPOLYLINE
  5
1dd
100
AcDbEntity
  8
Layer_1
 62
7
100
AcDbPolyline
 90
7
 70
0
 10
32.091035
 20
13.094165
 30
0.0
 10
32.119759
 20
12.924394
 30
0.0
 10
31.743958
 20
12.801194
 30
0.0
 10
31.368159
 20
12.677995
 30
0.0
 10
31.315155
 20
12.987426
 30
0.0
 10
31.315155
 20
12.987426
 30
0.0
 10
31.315155
 20
12.987424
 30
0.0
  0
LWPOLYLINE
  5
1de
100
AcDbEntity
  8
Layer_1
 62
7
100
AcDbPolyline
 90
10
 70
0
 10
28.518445
 20
20.273517
 30
0.0
 10
28.518445
 20
20.633598
 30
0.0
 10
30.030787
 20
20.633598
 30
0.0
 10
31.543131
 20
20.633598
 30
0.0
 10
31.543131
 20
20.273517
 30
0.0
 10
31.543131
 20
19.913435
 30
0.0
 10
30.030787
 20
19.913435
 30
0.0
 10
28.518445
 20
19.913435
 30
0.0
 10
28.518445
 20
20.273517
 30
0.0
 10
28.518445
 20
20.273517
 30
0.0
  0
ENDSEC
  0
SECTION
  2
OBJECTS
  0
DICTIONARY
  5
C
330
0
100
AcDbDictionary
  3
ACAD_GROUP
350
D
  3
ACAD_MLINESTYLE
350
17
  0
DICTIONARY
  5
D
330
C
100
AcDbDictionary
  0
DICTIONARY
  5
1A
330
C
100
AcDbDictionary
  0
DICTIONARY
  5
17
330
C
100
AcDbDictionary
  3
STANDARD
350
18
  0
DICTIONARY
  5
19
330
C
100
AcDbDictionary
  0
ENDSEC
  0
EOF
