<?xml version="1.0" encoding="UTF-8" standalone="no"?>
<!-- Created with Inkscape (http://www.inkscape.org/) -->

<svg
   xmlns:dc="http://purl.org/dc/elements/1.1/"
   xmlns:cc="http://creativecommons.org/ns#"
   xmlns:rdf="http://www.w3.org/1999/02/22-rdf-syntax-ns#"
   xmlns:svg="http://www.w3.org/2000/svg"
   xmlns="http://www.w3.org/2000/svg"
   xmlns:sodipodi="http://sodipodi.sourceforge.net/DTD/sodipodi-0.dtd"
   xmlns:inkscape="http://www.inkscape.org/namespaces/inkscape"
   id="svg2"
   version="1.1"
   inkscape:version="0.48.4 r9939"
   width="302.21472"
   height="644.79535"
   sodipodi:docname="kanako.bmp">
  <metadata
     id="metadata8">
    <rdf:RDF>
      <cc:Work
         rdf:about="">
        <dc:format>image/svg+xml</dc:format>
        <dc:type
           rdf:resource="http://purl.org/dc/dcmitype/StillImage" />
        <dc:title></dc:title>
      </cc:Work>
    </rdf:RDF>
  </metadata>
  <defs
     id="defs6" />
  <sodipodi:namedview
     pagecolor="#ffffff"
     bordercolor="#666666"
     borderopacity="1"
     objecttolerance="10"
     gridtolerance="10"
     guidetolerance="10"
     inkscape:pageopacity="0"
     inkscape:pageshadow="2"
     inkscape:window-width="956"
     inkscape:window-height="1041"
     id="namedview4"
     showgrid="false"
     fit-margin-top="0"
     fit-margin-left="0"
     fit-margin-right="0"
     fit-margin-bottom="0"
     inkscape:zoom="1.2995461"
     inkscape:cx="122.54279"
     inkscape:cy="330.73089"
     inkscape:window-x="960"
     inkscape:window-y="18"
     inkscape:window-maximized="0"
     inkscape:current-layer="svg2" />
  <path
     style="fill:#ff0000"
     d="m 0.492061,642.33502 c 0.270628,-1.35314 0.707863,-4.29648 0.971633,-6.54074 0.263769,-2.24427 0.721711,-4.08049 1.017649,-4.08049 0.295937,0 1.191925,-5.5404 1.991083,-12.31199 0.799159,-6.7716 1.670556,-12.31199 1.936438,-12.31199 0.265881,0 0.945464,-4.1553 1.510183,-9.23399 0.56472,-5.0787 1.269074,-9.234 1.565231,-9.234 0.296157,0 0.962651,-3.46275 1.481098,-7.69499 0.518448,-4.23225 1.19957,-7.695 1.513607,-7.695 0.810023,0 2.586099,-15.81935 2.026431,-18.04924 -0.255393,-1.01757 -1.069811,-2.45558 -1.809819,-3.19559 -1.081366,-1.08137 -1.345469,-2.70308 -1.345469,-8.26181 0,-4.62614 0.300352,-7.01645 0.907058,-7.21868 0.498881,-0.16629 1.523419,-2.96535 2.276749,-6.22012 0.75333,-3.25477 1.611902,-6.0917 1.907938,-6.30428 0.296035,-0.21258 0.784891,-1.70124 1.086345,-3.30813 0.301454,-1.60689 0.958592,-3.33747 1.460308,-3.84574 0.501715,-0.50826 1.141671,-1.53009 1.422126,-2.27074 0.280455,-0.74064 0.953629,-1.34761 1.495942,-1.34884 0.542314,-10e-4 1.67857,-1.03904 2.52502,-2.30628 0.84645,-1.26724 1.96525,-2.30507 2.48622,-2.30628 0.52096,-0.002 1.16448,-0.8679 1.43004,-1.92597 0.26556,-1.05806 0.79157,-1.92374 1.16891,-1.92374 1.54685,0 0.53133,-3.44402 -1.62242,-5.50226 -2.06264,-1.97118 -2.3085,-2.69711 -2.3085,-6.81643 0,-2.53566 0.28368,-4.6103 0.6304,-4.6103 0.34672,0 1.10186,-1.73138 1.6781,-3.8475 0.57624,-2.11612 1.29028,-3.8475 1.58675,-3.8475 0.29648,0 0.93142,-1.55823 1.41098,-3.46274 0.47956,-1.90451 1.15811,-3.46275 1.5079,-3.46275 0.34978,0 1.06221,-1.90464 1.58317,-4.23253 0.52096,-2.32789 1.44175,-4.72708 2.04619,-5.33153 0.60446,-0.60445 1.099,-1.63818 1.099,-2.29717 0,-1.95044 1.81362,-8.14576 2.38458,-8.14576 0.28951,0 0.97377,-2.25078 1.52057,-5.00174 0.54681,-2.75096 1.27694,-5.00175 1.62252,-5.00175 0.34558,0 0.62833,-0.51941 0.62833,-1.15425 0,-0.63483 -0.25971,-1.15695 -0.57712,-1.16025 -0.69106,-0.007 -2.50088,-3.73349 -2.50088,-5.14915 0,-0.55046 -0.34627,-1.00084 -0.7695,-1.00084 -0.42322,0 -0.7695,-0.86569 -0.7695,-1.92375 0,-1.05806 0.30299,-1.92375 0.67332,-1.92375 0.37032,0 0.87207,-0.99383 1.11501,-2.20852 0.24294,-1.21467 1.97464,-3.74145 3.84824,-5.61504 1.92308,-1.92309 3.64227,-4.47984 3.94787,-5.87123 0.29774,-1.35559 0.81681,-2.4647 1.15351,-2.4647 0.33669,0 0.80357,-0.95698 1.0375,-2.12664 0.23393,-1.16965 1.1429,-2.95401 2.01993,-3.96524 0.87704,-1.01122 1.59461,-2.28539 1.59461,-2.83147 0,-0.54608 0.60598,-1.44535 1.34663,-1.99838 0.74064,-0.55303 1.86547,-2.04433 2.49961,-3.31401 0.63415,-1.26967 1.54695,-2.56333 2.02846,-2.87479 0.4815,-0.31146 1.10374,-1.78313 1.38275,-3.27037 0.279,-1.48725 0.78539,-2.70408 1.1253,-2.70408 0.78856,0 2.32264,-10.91497 2.92597,-20.81822 0.25644,-4.20929 0.76022,-7.65326 1.11951,-7.65326 0.3593,0 0.65326,-6.23294 0.65326,-13.85099 0,-8.05377 -0.30036,-13.85099 -0.71764,-13.85099 -0.39471,0 -0.93503,-0.68491 -1.20072,-1.52203 -0.29125,-0.91766 -1.68685,-1.88269 -3.5146,-2.4303 -1.66734,-0.49954 -3.03153,-1.12413 -3.03153,-1.38797 0,-0.26384 -1.55824,-0.9398 -3.46275,-1.50213 -1.90451,-0.56234 -3.46275,-1.27789 -3.46275,-1.59013 0,-0.31223 -1.36665,-1.18397 -3.037,-1.93719 -1.97866,-0.89225 -3.46611,-2.27377 -4.26835,-3.96437 -0.67724,-1.42717 -1.50595,-2.59486 -1.84158,-2.59486 -0.33562,0 -1.08397,-1.47167 -1.663,-3.27038 -0.57902,-1.7987 -1.41356,-3.51745 -1.85454,-3.81943 -1.12397,-0.7697 -1.06573,-17.4228 0.0634,-18.13936 0.47586,-0.30199 1.11014,-1.67802 1.40951,-3.05786 0.29936,-1.37982 0.96198,-2.93806 1.47249,-3.46274 0.5105,-0.52468 1.53728,-2.25249 2.28172,-3.83958 0.74444,-1.58709 1.68356,-2.88562 2.08693,-2.88562 0.40337,0 0.7334,-0.41024 0.7334,-0.91163 0,-0.5014 2.892,-3.76485 6.42667,-7.25212 6.10968,-6.02775 6.45061,-6.54263 6.91186,-10.43849 0.26685,-2.2539 0.98777,-4.46566 1.60205,-4.91503 0.61428,-0.44936 1.35661,-1.77221 1.64963,-2.93966 0.29301,-1.16746 1.18165,-2.52789 1.97476,-3.0232 0.79311,-0.4953 1.44201,-1.25123 1.44201,-1.67982 0,-0.42861 1.03883,-1.75976 2.3085,-2.95813 1.26967,-1.19837 2.3085,-2.53577 2.3085,-2.97202 0,-1.08138 6.30416,-6.77137 7.50228,-6.77137 0.52921,0 0.96221,-0.37582 0.96221,-0.83516 0,-0.45935 1.24237,-1.93101 2.7608,-3.27037 1.51845,-1.33937 4.09686,-3.70214 5.72981,-5.2506 1.63296,-1.54846 4.0171,-3.04558 5.29812,-3.32694 1.28101,-0.28136 3.45601,-1.56423 4.83332,-2.85084 2.015398,-1.88266 2.504208,-2.93764 2.504208,-5.40474 0,-1.8695 -0.46403,-3.41155 -1.18938,-3.95253 -0.654148,-0.48787 -1.683068,-2.01244 -2.286478,-3.38792 -0.6034,-1.37548 -1.33199,-2.50088 -1.61908,-2.50088 -0.28708,0 -0.94528,-1.29853 -1.46266,-2.88562 -0.51738,-1.58709 -1.2846,-3.10876 -1.70494,-3.38147 -0.79737,-0.51731 -0.069,-1.65771 3.10339,-4.85899 0.95226,-0.96093 1.73138,-2.10205 1.73138,-2.53583 0,-0.43379 1.54917,-1.24612 3.442598,-1.80519 3.3788,-0.99764 4.72324,-2.38599 3.7833,-3.90686 -0.26075,-0.4219 -1.17163,-0.58469 -2.02419,-0.36174 -1.29873,0.33963 -4.524498,-1.04508 -5.971208,-2.56324 -0.21161,-0.22206 -1.39414,-0.9226 -2.62783,-1.55676 -1.2337,-0.63417 -3.72767,-2.53813 -5.54214,-4.23103 -1.81448,-1.6929 -4.85334,-4.46309 -6.75303,-6.15599 -1.8997,-1.6929 -3.47447,-3.49121 -3.49949,-3.99624 -0.0662,-1.33519 -3.18213,-3.31401 -5.21846,-3.31401 -1.33547,0 -1.75253,0.43822 -1.75253,1.84142 0,1.48654 -1.2406,2.77558 -2.67125,2.77558 -0.13028,0 -0.69697,-1.55824 -1.25931,-3.46275 -0.56233,-1.90451 -1.26267,-3.46274 -1.55629,-3.46274 -0.29363,0 -0.76274,-1.47167 -1.04247,-3.27038 -0.73814,-4.74632 -1.16691,-5.96362 -2.10061,-5.96362 -0.97799,0 -0.16824,14.69219 0.84663,15.36129 0.34491,0.22739 0.8282,1.97169 1.07396,3.8762 0.4046,3.13535 0.34275,3.32152 -0.65415,1.96905 -0.60555,-0.82154 -1.10101,-2.12007 -1.10101,-2.88563 0,-0.76556 -0.30426,-1.39192 -0.67614,-1.39192 -0.37188,0 -1.10644,-1.03882 -1.63235,-2.3085 -0.52592,-1.26967 -1.20505,-2.3085 -1.50919,-2.3085 -0.30414,0 -1.00799,-1.37868 -1.56411,-3.06374 -1.03537,-3.13721 -2.66182,-4.27024 -4.89804,-3.41213 -0.97156,0.37283 -1.26266,0.022 -1.26266,-1.52154 0,-1.10335 0.26103,-2.00608 0.58005,-2.00608 0.31903,0 1.23565,-3.46275 2.03694,-7.69499 0.80128,-4.23225 1.69692,-7.695 1.99029,-7.695 0.29338,0 0.9903,-1.90451 1.54872,-4.23224 0.55841,-2.32774 1.30128,-4.23225 1.65082,-4.23225 0.34953,0 1.02789,-1.55824 1.50745,-3.46275 0.47956,-1.90451 1.0906,-3.46275 1.35785,-3.46275 0.26726,0 1.14979,-2.07764 1.96116,-4.61699 0.81138,-2.53935 1.70876,-4.617 1.99417,-4.617 0.28542,0 0.95829,-1.47167 1.49528,-3.27037 0.53699,-1.79871 1.37092,-3.5181 1.85318,-3.82088 1.16165,-0.72932 1.10203,-14.37168 -0.066,-15.09354 -0.48867,-0.30202 -1.21286,-5.4932 -1.71377,-12.284751 -0.74833,-10.146181 -1.08443,-11.978667 -2.44698,-13.341211 -1.05591,-1.055918 -1.42492,-2.129837 -1.11317,-3.239727 1.33221,-4.743074 1.36072,-8.032673 0.0865,-9.977422 -1.81439,-2.769099 -0.99975,-4.767179 3.91654,-9.606247 2.2756,-2.239847 4.13745,-4.428798 4.13745,-4.864335 0,-0.435538 0.50318,-1.295066 1.11817,-1.910063 0.615,-0.614997 1.35228,-3.187323 1.6384,-5.716281 0.28611,-2.528958 0.75248,-4.598106 1.03636,-4.598106 0.28388,0 0.96292,-2.163076 1.50898,-4.806836 0.54606,-2.643759 1.22133,-4.981113 1.50059,-5.194121 0.27925,-0.213006 1.20029,-1.753012 2.04674,-3.422234 l 1.539,-3.034948 0.23662,3.227323 c 0.13014,1.775028 0.53466,3.227324 0.89894,3.227324 1.51457,0 3.09669,-1.00262 3.09669,-1.962443 0,-0.565558 0.60598,-1.482538 1.34662,-2.037733 0.74064,-0.555195 1.92702,-2.040287 2.63638,-3.3002053 0.82027,-1.45688 2.22039,-2.53191 3.8463,-2.953226 1.4061,-0.364356 2.73021,-0.889978 2.94249,-1.16805 0.63737,-0.83495 5.173628,-3.198832 6.138508,-3.198832 0.49397,0 1.41753,-0.519412 2.05236,-1.154249 1.47869,-1.47868895 3.27662,-1.47868895 3.84405,0 0.49236,1.283074 2.58677,1.594591 2.58677,0.384749 0,-1.00591995 3.64483,-0.99518295 4.84185,0.01427 0.51116,0.43107 1.65432,1.383325 2.54032,2.116123 0.88602,0.732798 1.95897,2.371184 2.38434,3.640858 0.76224,2.275202 0.8494,2.307503 6.04292,2.239539 3.25852,-0.04265 5.38311,-0.409722 5.56716,-0.961874 0.35725,-1.07174 29.41037,-1.292556 29.41037,-0.223532 0,0.368161 2.07765,1.078136 4.617,1.577722 2.53934,0.4995873 4.61699,1.1506893 4.61699,1.4468933 0,0.296205 2.07765,1.202409 4.617,2.013787 2.53935,0.811378 4.617,1.721554 4.617,2.022614 0,0.30106 1.01394,0.967371 2.2532,1.480691 1.23926,0.513319 2.44036,1.421016 2.6691,2.017104 0.22874,0.596089 0.8596,1.089779 1.40192,1.097091 0.54231,0.0073 1.80148,0.872999 2.79816,1.923749 0.99668,1.050749 2.25538,1.910454 2.79712,1.910454 0.54175,0 1.55221,0.865686 2.24547,1.923748 0.69327,1.058062 1.73488,1.923749 2.31467,1.923749 0.5798,0 1.24097,0.48676 1.46927,1.081688 0.22829,0.594929 1.47731,1.314991 2.77557,1.600139 1.29827,0.285148 2.3605,0.802437 2.3605,1.149529 0,0.347093 1.73137,1.253671 3.84749,2.014618 2.11613,0.760948 3.8475,1.661411 3.8475,2.00103 0,0.339619 0.51941,0.617489 1.15425,0.617489 0.63484,0 1.77075,0.605981 2.52425,1.346624 0.7535,0.740643 2.25899,1.809751 3.34553,2.375794 1.08654,0.566044 2.43918,2.210849 3.00587,3.655123 0.56669,1.444273 1.30734,2.625952 1.64589,2.625952 0.94226,0 2.9447,5.296621 2.9447,7.788968 0,1.217989 0.34628,2.214524 0.7695,2.214524 0.42322,0 0.7695,1.211962 0.7695,2.693248 0,1.481286 -0.34628,2.693248 -0.7695,2.693248 -0.42322,0 -0.7695,0.69255 -0.7695,1.538999 0,0.846449 0.34628,1.538999 0.7695,1.538999 0.42322,0 0.7695,0.483067 0.7695,1.073482 0,0.590416 0.85971,1.888946 1.91045,2.885623 1.05075,0.996677 1.91644,2.255851 1.92375,2.798165 0.008,0.542314 0.48932,1.168691 1.07112,1.391949 0.5818,0.223258 1.67321,1.770626 2.42536,3.438595 0.75215,1.667975 1.63438,3.032675 1.9605,3.032675 0.32613,0 0.99294,1.211961 1.48181,2.693248 0.48887,1.481286 1.14364,2.693239 1.45506,2.693239 0.3114,0 1.04173,1.21197 1.62294,2.69325 0.58121,1.48129 1.29107,2.69325 1.57747,2.69325 0.2864,0 0.96773,2.10631 1.51405,4.6807 0.54632,2.57438 1.39495,5.08487 1.88586,5.57887 0.4909,0.49399 1.35051,3.06239 1.91022,5.70754 0.55973,2.64516 1.26933,4.80937 1.57689,4.80937 0.30756,0 1.01118,2.16422 1.56358,4.80938 0.55241,2.64515 1.33396,5.0287 1.73679,5.29678 1.10809,0.73744 1.12622,13.68025 0.0201,14.36611 -0.50147,0.31095 -1.1551,2.39972 -1.45251,4.64171 -0.29741,2.24199 -0.94057,4.48628 -1.42923,4.9873 -0.48866,0.50102 -1.37361,2.12291 -1.96655,3.6042 -0.59293,1.48128 -1.2947,2.86638 -1.55948,3.07799 -0.26479,0.21162 -1.07538,1.89298 -1.80134,3.73636 -0.72595,1.84339 -1.82751,3.8592 -2.44789,4.47959 -0.62039,0.62038 -1.12797,1.80666 -1.12797,2.63616 0,0.8295 -0.49522,1.69822 -1.10048,1.93048 -0.60526,0.23226 -1.46844,1.47784 -1.91818,2.76794 -0.66762,1.91514 -1.0195,2.17817 -1.91722,1.43313 -0.8518,-0.70694 -1.45984,-0.6875 -2.69882,0.0863 -0.87961,0.54932 -1.59929,1.36959 -1.59929,1.82282 0,0.45323 -0.61811,1.49533 -1.37355,2.31577 -0.75545,0.82045 -1.96741,2.34789 -2.69325,3.39432 -1.27967,1.84488 -1.3197,1.85209 -1.3197,0.23778 0,-2.29153 -0.81251,-2.60118 -4.30446,-1.64045 -1.80604,0.49689 -4.11616,2.02734 -5.78766,3.8343 -3.46975,3.75099 -5.29784,3.42187 -5.29784,-0.95381 0,-1.64761 0.37101,-2.99566 0.82447,-2.99566 0.45345,0 0.30505,-0.51942 -0.32979,-1.15425 -1.22546,-1.22546 -2.80318,-1.54555 -2.80318,-0.56872 0,0.32205 -1.20532,1.96685 -2.67849,3.65512 -1.47316,1.68828 -2.68512,3.3293 -2.69324,3.64672 -0.008,0.31741 -0.67489,0.57712 -1.48172,0.57712 -1.08811,0 -1.36302,-0.39745 -1.0645,-1.539 0.27989,-1.07031 0.0236,-1.539 -0.84154,-1.539 -0.6842,0 -1.244,-0.34627 -1.244,-0.7695 0,-0.42322 -0.86569,-0.7695 -1.92375,-0.7695 -1.05806,0 -1.92375,0.34628 -1.92375,0.7695 0,0.42323 -0.6301,0.7695 -1.40022,0.7695 -1.48124,0 -4.75577,3.25706 -4.75577,4.73039 0,0.47916 0.54238,1.26779 1.20529,1.75252 0.66291,0.48473 1.38444,2.25428 1.60341,3.93234 0.3124,2.39406 0.0529,3.41686 -1.20529,4.75019 -0.88187,0.93456 -1.60341,2.04211 -1.60341,2.46122 0,1.45683 3.48015,4.47291 6.34837,5.50183 1.58709,0.56934 2.88562,1.24835 2.88562,1.50891 0,0.26056 2.25079,0.92113 5.00175,1.46793 2.75096,0.5468 5.00174,1.26434 5.00174,1.59453 0,0.33019 1.20083,0.82563 2.66851,1.10096 1.46768,0.27534 3.11271,0.94481 3.65561,1.48771 0.5429,0.5429 2.70779,1.64424 4.81087,2.44741 4.26875,1.63025 3.96773,1.4012 11.97982,9.11554 4.24347,4.08576 6.05963,6.44845 6.76401,8.79948 0.52962,1.76771 1.25421,3.214 1.6102,3.214 0.81044,0 2.36896,6.04604 2.36896,9.19 0,1.29387 0.34627,2.35249 0.7695,2.35249 0.42322,0 0.7695,1.30805 0.7695,2.90678 0,2.84704 1.60398,6.10389 3.60867,7.32733 0.55458,0.33845 1.00832,1.06371 1.00832,1.61168 0,1.79026 3.39706,4.88106 6.54075,5.95108 1.6929,0.57622 3.25113,1.2423 3.46275,1.4802 0.21161,0.2379 1.51014,0.88774 2.88562,1.44408 2.28672,0.92493 2.50087,1.30007 2.50087,4.38094 0,1.85316 -0.2597,3.37209 -0.57712,3.37539 -0.68443,0.007 -2.50088,3.72775 -2.50088,5.12253 0,0.53582 2.25079,3.23611 5.00175,6.00064 2.75096,2.76454 5.00175,5.34845 5.00175,5.74202 0,0.39358 0.86568,1.39654 1.92375,2.22882 1.05806,0.83227 1.92374,1.86218 1.92374,2.28868 0,0.42651 1.72601,2.45431 3.83557,4.50625 2.10955,2.05193 3.84092,4.15145 3.84749,4.66559 0.007,0.51414 0.70449,1.30544 1.55094,1.75845 0.84645,0.453 1.539,1.34174 1.539,1.97497 0,0.63323 0.4877,1.33848 1.08379,1.56722 0.59609,0.22874 1.53093,1.5164 2.07742,2.86147 0.5465,1.34507 1.5896,2.87886 2.31802,3.40841 0.72842,0.52956 1.55247,2.00123 1.83122,3.27037 0.27875,1.26915 0.79873,2.30755 1.1555,2.30755 0.35678,0 1.04867,1.21196 1.53754,2.69324 0.48887,1.48129 1.18343,2.69325 1.54349,2.69325 0.36005,0 1.09091,1.99108 1.62412,4.42462 0.53322,2.43355 1.33717,4.6716 1.78656,4.97345 1.0972,0.73699 1.07371,12.8033 -0.0263,13.52123 -0.46386,0.30274 -1.06042,1.43884 -1.32567,2.52465 -0.26525,1.08583 -1.18426,2.78361 -2.04223,3.77287 -0.85798,0.98925 -1.55995,2.27594 -1.55995,2.8593 0,0.58336 -0.51942,1.25997 -1.15425,1.50358 -0.63484,0.24362 -1.15425,0.80894 -1.15425,1.25629 0,1.20699 -2.52857,6.71698 -3.08246,6.71698 -0.26279,0 -0.95333,1.21196 -1.53454,2.69325 -0.58121,1.48128 -1.32449,2.69325 -1.65173,2.69325 -0.32724,0 -1.00997,1.3851 -1.51718,3.07799 -0.5072,1.6929 -1.17888,3.078 -1.49261,3.078 -0.31372,0 -1.19301,1.73138 -1.95395,3.8475 -0.76095,2.11612 -1.60599,3.8475 -1.87786,3.8475 -0.27188,0 -0.95145,1.38509 -1.51016,3.07799 -0.55871,1.6929 -1.29278,3.078 -1.63128,3.078 -0.33849,0 -1.03043,1.3851 -1.53764,3.078 -0.5072,1.6929 -1.1666,3.078 -1.46534,3.078 -0.29873,0 -1.16442,1.6448 -1.92375,3.65512 -0.75933,2.01032 -1.61113,3.82826 -1.89288,4.03987 -0.28176,0.21161 -0.9645,2.02956 -1.5172,4.03987 -0.5527,2.01032 -1.24824,3.65513 -1.54565,3.65513 -0.2974,0 -1.20459,2.07764 -2.01596,4.61699 -0.81138,2.53935 -1.68769,4.617 -1.94737,4.617 -0.25966,0 -0.91303,2.07765 -1.45192,4.61699 -0.53889,2.53935 -1.23144,4.617 -1.539,4.617 -0.30756,0 -1.00011,2.07765 -1.539,4.617 -0.53888,2.53935 -1.27875,4.61699 -1.64414,4.61699 -0.3654,0 -0.66145,0.60598 -0.65789,1.34663 0.008,1.65181 -2.53628,11.97144 -3.08283,12.50436 -0.21702,0.21162 -0.86493,1.73008 -1.43977,3.37437 -0.57486,1.64429 -2.25674,4.06822 -3.73752,5.3865 -1.48079,1.31828 -4.47026,4.04168 -6.64328,6.052 -2.17302,2.01031 -4.34783,3.65512 -4.83291,3.65512 -1.23487,0 -1.8372,1.91391 -2.35819,7.49314 -0.24751,2.65036 -0.74621,4.81885 -1.10822,4.81885 -0.36203,0 -0.65823,0.51941 -0.65823,1.15425 0,0.63484 -0.34628,1.15425 -0.7695,1.15425 -0.42323,0 -0.7695,-0.34628 -0.7695,-0.7695 0,-1.48484 -4.25209,-0.80581 -5.409,0.86379 -0.62246,0.8983 -1.579,2.09994 -2.12566,2.67031 -0.54665,0.57037 -1.35964,2.08618 -1.80665,3.36846 -0.447,1.28229 -1.08312,2.33143 -1.4136,2.33143 -0.33048,0 -1.05831,1.1254 -1.6174,2.50088 -0.55908,1.37548 -1.63992,2.95335 -2.40185,3.50637 -0.76194,0.55303 -1.38533,1.51616 -1.38533,2.14028 0,0.62412 -0.50623,1.32903 -1.12495,1.56646 -0.61874,0.23742 -1.32237,1.05363 -1.56363,1.8138 -0.24127,0.76016 -1.31253,2.37298 -2.38058,3.58403 -1.06806,1.21106 -2.78835,3.16016 -3.82288,4.33134 -1.16759,1.32183 -1.8811,3.07285 -1.88133,4.617 -4.8e-4,3.12219 2.50162,14.41481 3.19387,14.41481 0.28283,0 0.95449,2.51049 1.49257,5.57887 0.53808,3.06838 1.27716,5.78177 1.64239,6.02976 0.36525,0.24797 1.04645,2.75847 1.51381,5.57887 0.46735,2.82039 1.10551,5.12799 1.41811,5.12799 0.31261,0 0.78797,1.6448 1.05636,3.65512 0.93473,7.00147 2.28147,13.27386 2.85,13.27386 0.31482,0 0.99135,2.59706 1.5034,5.77125 0.51205,3.17418 1.17398,5.77124 1.47093,5.77124 0.29696,0 0.99781,2.94334 1.55742,6.54075 0.55962,3.59741 1.24589,6.54074 1.52504,6.54074 0.48191,0 2.10309,8.36975 2.90644,15.00524 0.20497,1.6929 0.65882,3.26045 1.00859,3.48344 0.34976,0.22299 1.0455,3.59917 1.5461,7.50262 0.50059,3.90345 1.16611,7.09718 1.47893,7.09718 0.31281,0 0.77134,1.47167 1.01897,3.27037 0.24762,1.79871 0.68452,4.74204 0.97089,6.54075 l 0.52068,3.27037 -116.77667,0 -116.77667,0 0.492051,-2.46026 z M 181.64691,449.39969 c 0.15158,-0.45472 0.75395,-0.82676 1.33864,-0.82676 1.43334,0 2.65619,-2.45653 2.65619,-5.33591 0,-1.2975 0.29896,-2.35909 0.66436,-2.35909 0.36539,0 1.11632,-2.16421 1.66872,-4.80937 0.55241,-2.64515 1.22711,-4.98251 1.49934,-5.19412 0.27224,-0.21161 0.93152,-2.37708 1.46509,-4.81216 0.63459,-2.89618 1.48308,-4.70195 2.4533,-5.2212 0.81575,-0.43658 1.48319,-1.31188 1.48319,-1.9451 0,-0.63323 0.51941,-1.35065 1.15424,-1.59425 0.63484,-0.24362 1.15425,-0.90567 1.15425,-1.47122 0,-0.56556 0.66811,-1.49625 1.4847,-2.0682 0.81658,-0.57197 1.70412,-1.91422 1.97232,-2.9828 0.26819,-1.06857 1.33146,-2.92489 2.3628,-4.12515 1.03135,-1.20025 1.87518,-2.4217 1.87518,-2.71434 0,-0.29265 0.69255,-1.33059 1.539,-2.30656 0.84645,-0.97596 1.539,-2.2237 1.539,-2.77275 0,-0.54904 0.44273,-1.27518 0.98385,-1.61363 0.54111,-0.33845 1.63253,-2.08703 2.42536,-3.88573 0.79284,-1.79871 1.67978,-3.27038 1.97098,-3.27038 0.29121,0 0.98063,-1.36703 1.53205,-3.03784 0.55142,-1.67082 1.45342,-3.21086 2.00446,-3.42231 0.55103,-0.21145 1.23265,-1.61462 1.51472,-3.11815 0.28206,-1.50353 0.79276,-2.73369 1.13486,-2.73369 0.34211,0 1.19709,-1.73137 1.89996,-3.8475 0.70286,-2.11612 1.54095,-3.84749 1.86242,-3.84749 0.32147,0 1.04161,-1.3851 1.60032,-3.078 0.55871,-1.6929 1.30668,-3.078 1.66217,-3.078 0.35548,0 0.64633,-0.67211 0.64633,-1.49358 0,-0.82147 0.34628,-1.7076 0.7695,-1.96917 0.42322,-0.26156 0.7695,-1.14769 0.7695,-1.96916 0,-0.82147 0.27787,-1.49358 0.61749,-1.49358 0.33962,0 1.24008,-1.73138 2.00103,-3.8475 0.76094,-2.11612 1.65393,-3.8475 1.98441,-3.8475 0.33048,0 1.00323,-1.59795 1.49502,-3.55101 0.49179,-1.95306 1.39858,-4.05545 2.0151,-4.67197 1.88801,-1.88801 1.41115,-5.9722 -0.8916,-7.63635 -2.48281,-1.79425 -5.42509,-4.14968 -7.13538,-5.71217 -0.71024,-0.64887 -2.5784,-1.79051 -4.15146,-2.53697 -1.57306,-0.74647 -2.86011,-1.68724 -2.86011,-2.09061 0,-0.40337 -1.03882,-0.7334 -2.30849,-0.7334 -1.26968,0 -2.3085,0.31174 -2.3085,0.69275 0,1.02806 -7.42361,2.6202 -9.63233,2.06585 -1.05059,-0.26368 -1.91016,-0.94202 -1.91016,-1.50741 0,-1.84278 -4.74594,-5.09868 -7.43206,-5.09868 -3.2573,0 -6.9029,-3.46672 -7.61016,-7.23675 -0.85956,-4.58182 -2.6879,-3.40241 -4.65764,3.0045 -0.7807,2.53935 -1.62766,4.79013 -1.88213,5.00175 -0.25447,0.21161 -0.93654,2.11612 -1.51569,4.23224 -0.57915,2.11613 -1.47418,4.27348 -1.98894,4.79412 -0.51477,0.52065 -1.1711,2.33859 -1.45853,4.03987 -0.28744,1.70129 -0.7818,3.09325 -1.0986,3.09325 -0.31679,0 -1.20869,2.7702 -1.98198,6.156 -0.77329,3.3858 -1.64831,6.15599 -1.94447,6.15599 -0.29617,0 -0.99046,2.16422 -1.54286,4.80938 -0.5524,2.64515 -1.22255,4.9825 -1.48923,5.19412 -0.69579,0.55212 -2.33368,6.42056 -2.33368,8.36139 0,0.90316 -0.26286,1.6421 -0.58412,1.6421 -0.59791,0 -3.26444,10.84489 -3.26376,13.27386 2.1e-4,0.74065 -0.30357,1.34663 -0.67505,1.34663 -0.37148,0 -1.11482,2.85676 -1.65185,6.34837 -0.53703,3.4916 -1.35849,6.59545 -1.82545,6.89743 -0.53696,0.34725 -0.84902,3.76137 -0.84902,9.28895 0,7.16823 0.2331,8.97299 1.29622,10.03612 0.71291,0.71292 1.54242,2.07195 1.84335,3.02008 0.30092,0.94812 0.95937,2.07147 1.46323,2.49631 0.50385,0.42485 1.33305,2.24413 1.84266,4.04283 0.50961,1.79871 1.21783,3.27037 1.57383,3.27037 0.35599,0 1.03962,1.55824 1.51918,3.46275 0.47957,1.90451 1.21322,3.46275 1.63035,3.46275 0.41713,0 0.75842,1.3851 0.75842,3.078 0,1.6929 -0.3124,3.07799 -0.69422,3.07799 -0.69626,0 -2.38377,4.06412 -2.38377,5.74098 0,0.49188 0.7463,1.69539 1.65845,2.67446 1.48609,1.59514 2.14388,1.73612 6.32928,1.35661 2.56896,-0.23295 4.79485,-0.79558 4.94642,-1.25029 z M 117.92579,186.11721 c 0,-1.97196 -2.54691,-1.74825 -2.93321,0.25763 -0.17783,0.92339 0.23656,1.33779 1.33779,1.33779 1.10123,0 1.59542,-0.4942 1.59542,-1.59542 z M 90.993312,25.348248 c 0,-1.609246 -0.59654,-1.852352 -2.63031,-1.071921 -1.94615,0.746806 -1.44168,2.61092 0.70657,2.61092 1.41074,0 1.92374,-0.410399 1.92374,-1.538999 z"
     id="path2987"
     inkscape:connector-curvature="0" />
</svg>
