<?xml version="1.0" encoding="UTF-8" standalone="no"?>
<!-- Created with Inkscape (http://www.inkscape.org/) -->

<svg
   xmlns:dc="http://purl.org/dc/elements/1.1/"
   xmlns:cc="http://creativecommons.org/ns#"
   xmlns:rdf="http://www.w3.org/1999/02/22-rdf-syntax-ns#"
   xmlns:svg="http://www.w3.org/2000/svg"
   xmlns="http://www.w3.org/2000/svg"
   xmlns:sodipodi="http://sodipodi.sourceforge.net/DTD/sodipodi-0.dtd"
   xmlns:inkscape="http://www.inkscape.org/namespaces/inkscape"
   id="svg2"
   version="1.1"
   inkscape:version="0.48.4 r9939"
   width="735.32971"
   height="713.66254"
   sodipodi:docname="keine.bmp">
  <metadata
     id="metadata8">
    <rdf:RDF>
      <cc:Work
         rdf:about="">
        <dc:format>image/svg+xml</dc:format>
        <dc:type
           rdf:resource="http://purl.org/dc/dcmitype/StillImage" />
        <dc:title></dc:title>
      </cc:Work>
    </rdf:RDF>
  </metadata>
  <defs
     id="defs6" />
  <sodipodi:namedview
     pagecolor="#ffffff"
     bordercolor="#666666"
     borderopacity="1"
     objecttolerance="10"
     gridtolerance="10"
     guidetolerance="10"
     inkscape:pageopacity="0"
     inkscape:pageshadow="2"
     inkscape:window-width="956"
     inkscape:window-height="1041"
     id="namedview4"
     showgrid="false"
     fit-margin-top="0"
     fit-margin-left="0"
     fit-margin-right="0"
     fit-margin-bottom="0"
     inkscape:zoom="0.83333333"
     inkscape:cx="338.38255"
     inkscape:cy="358.56"
     inkscape:window-x="960"
     inkscape:window-y="18"
     inkscape:window-maximized="0"
     inkscape:current-layer="svg2" />
  <path
     style="fill:#ff0000"
     d="M 6.3104963e-6,712.16254 C 0.02450631,710.05618 3.2388563,701.05797 6.0315663,695.27771 c 1.29304,-2.67627 2.35098,-5.59249 2.35098,-6.48045 0,-0.88798 1.35,-4.2786 2.9999997,-7.53472 1.65,-3.25612 3,-6.54564 3,-7.31005 0,-1.76062 5.22714,-14.32095 9.06843,-21.79057 1.61236,-3.13535 2.93157,-6.29752 2.93157,-7.02704 0,-0.72952 2.46903,-5.71688 5.48673,-11.08302 3.0177,-5.36613 5.77024,-11.17417 6.11676,-12.90676 0.64633,-3.23168 -2.3883,-10.68256 -4.35084,-10.68256 -0.59715,0 -1.25829,-1.20948 -1.46919,-2.68774 -0.58847,-4.1247 -4.31649,-4.18905 -4.841,-0.0836 -0.23689,1.85429 -0.8741,-2.16362 -1.41603,-8.92862 -0.54192,-6.765 -1.46707,-12.3 -2.05587,-12.3 -0.58881,0 -1.07056,1.3846 -1.07056,3.0769 0,1.69228 -1.35,6.02829 -3,9.63555 -1.65,3.60727 -3.01186,7.48767 -3.02635,8.62312 -0.0145,1.13544 -1.11564,4.46561 -2.44697,7.40039 -1.33134,2.93478 -2.88707,7.25478 -3.45717,9.6 -0.57009,2.34522 -2.3664297,7.95915 -3.9918397,12.47541 -2.50493,6.95999 -3.04678,7.73285 -3.55556,5.07136 -0.33013,-1.72701 -0.0856,-3.45807 0.54336,-3.84681 0.62899,-0.38872 0.84205,-1.85995 0.47348,-3.26937 -0.36857,-1.40943 0.34954,-7.15348 1.5958,-12.76457 5.1196397,-23.05034 5.2617597,-24.46258 3.70994,-36.86648 -0.80751,-6.45453 -1.9579,-14.32708 -2.55644,-17.49456 -2.6496,-14.0218 -0.0509,-51.9419 4.7039697,-68.64094 5.56066,-19.52884 8.60778,-31.47522 8.60778,-33.74722 0,-1.33388 0.87073,-4.9807 1.93496,-8.10405 2.37944,-6.98326 1.34635,-8.40795 -2.6843,-3.70183 -2.14764,2.50754 -2.79069,2.84686 -2.18526,1.1531 3.37982,-9.45546 4.4733,-12.16499 6.46904,-16.02955 5.02394,-9.72839 8.43794,-18.10854 11.5579,-28.37045 1.80595,-5.94 4.34121,-13.77 5.63391,-17.4 3.75486,-10.54392 8.40613,-28.9911 10.28731,-40.8 0.6834,-4.29 2.04824,-11.85 3.03298,-16.8 2.49474,-12.54037 6.59118,-44.67913 7.96409,-62.4825 2.61231,-33.8756 8.71225,-64.43722 15.52784,-77.7969 1.35384,-2.65374 2.46153,-5.61506 2.46153,-6.58073 0,-0.96565 1.215,-3.28644 2.7,-5.15729 1.485,-1.87086 3.38744,-4.47729 4.22763,-5.79207 0.8402,-1.31478 2.69066,-4.2169 4.11214,-6.44915 1.42147,-2.23226 5.86404,-6.4113 9.872364,-9.28675 4.00833,-2.87547 8.38686,-6.31407 9.73007,-7.64136 1.34321,-1.32729 3.29286,-2.41325 4.33255,-2.41325 1.03968,0 3.87968,-1.35 6.31108,-3 2.43142,-1.65 4.93677,-3 5.56746,-3 0.63069,0 1.14671,-0.52902 1.14671,-1.17562 0,-0.64658 2.16,-2.27755 4.8,-3.62438 5.28439,-2.6959 6.14585,-5.61006 2.60551,-8.81401 -1.20697,-1.0923 -2.55572,-1.98599 -2.99723,-1.98599 -1.36825,0 -13.16802,-8.58832 -18.00719,-13.10631 -7.17496,-6.69878 -8.02329,-9.08339 -6.0062,-16.88318 0.93725,-3.624222 2.08682,-6.932542 2.5546,-7.351812 2.85634,-2.56015 17.56171,-6.41905 31.95493,-8.38542 9.18744,-1.25517 16.95774,-2.53544 17.26734,-2.84504 0.30961,-0.30961 -0.89467,-2.47391 -2.67617,-4.80958 l -3.23909,-4.24665 2.34224,-3.28601 c 4.4021,-6.17586 7.33651,-8.04706 12.41071,-7.91401 l 4.80821,0.12607 -0.68336,-5.54903 c -2.44728,-19.87298 -2.3462,-23.64675 0.81215,-30.32297 3.36973,-7.12304 13.27348,-17.2833702 18.00425,-18.4707202 4.40824,-1.10639 5.65115,2.12593 5.63935,14.6657702 -0.0114,12.11438 2.51815,39.97889 3.62928,39.97889 0.40863,0 1.95886,-3.70882 3.44495,-8.24183 1.48609,-4.533 3.96312,-10.73287 5.5045,-13.77748 3.24112,-6.40205 13.82427,-19.81214 15.71481,-19.91253 0.70599,-0.0375 2.45741,-1.41816 3.89207,-3.06816 1.43466,-1.65 3.17462,-3 3.86658,-3 0.69196,0 2.3303,-0.99889 3.64075,-2.21976 3.63214,-3.3838602 22.49812,-12.52101023 24.36982,-11.80277023 3.26168,1.25163003 0.45377,6.49928003 -8.65219,16.16987023 -5.06034,5.3741 -9.99222,10.70149 -10.95974,11.83862 -2.26207,2.65864 -13.47518,19.18943 -15.02544,22.15106 -0.6515,1.24464 -1.5874,2.26298 -2.07978,2.26298 -0.49238,0 -2.27438,2.565 -3.96,5.7 -1.68561,3.135 -4.18928,7.48044 -5.56369,9.65653 -2.89994,4.59145 -2.11819,6.41655 1.38894,3.24265 3.64558,-3.2992 6.86943,-5.03547 22.52567,-12.13166 3.47963,-1.57714 7.25963,-2.87449 8.4,-2.883 1.14038,-0.008 5.58342,-1.12602 9.87342,-2.48335 9.29702,-2.94151 27.18743,-5.05289 29.90134,-3.52887 1.46334,0.82175 -0.0274,1.93401 -6.50134,4.85107 -4.62,2.08167 -11.201,5.088 -14.62446,6.68074 -3.42346,1.59274 -6.81641,2.89589 -7.53989,2.89589 -0.72349,0 -3.97953,1.35 -7.23565,3 -3.25612,1.65 -6.65665,3 -7.55674,3 -0.90008,0 -4.29303,1.34774 -7.53988,2.99498 -3.24686,1.64724 -6.76736,2.99724 -7.82333,3 -1.05598,0.003 -4.20967,1.66369 -7.00823,3.69095 -4.88612,3.53948 -5.00597,3.77685 -3.01682,5.97485 1.1393,1.25891 4.96948,3.37322 8.51154,4.69847 9.88344,3.69787 20.15206,9.261612 33.5877,18.198472 5.92359,3.94015 12.18195,10.97338 13.13175,14.75764 0.94408,3.76152 -3.21729,13.12908 -6.90606,15.54605 -3.23529,2.11985 -18.5219,7.29442 -25.30928,8.56729 -8.66977,1.62588 -10.66644,9.20789 -3.85011,14.62014 2.3213,1.84314 7.03932,6.86116 10.4845,11.15116 3.44516,4.29 6.55192,8.07 6.90388,8.4 0.35196,0.33 1.30347,1.95 2.11446,3.6 0.81099,1.65 3.31749,5.43 5.57001,8.4 2.25251,2.97 5.82717,8.63534 7.94368,12.58964 3.63996,6.8006 3.85269,7.9045 3.93122,20.4 0.0748,11.88942 -0.23951,13.91481 -3.14263,20.25537 -1.77412,3.87476 -3.22566,8.21697 -3.22566,9.64938 0,2.5392 -8.44813,11.50561 -10.84056,11.50561 -0.63769,0 -1.15944,0.73717 -1.15944,1.63817 0,0.90099 -1.215,3.18308 -2.7,5.07132 -2.53411,3.22221 -2.71043,4.6514 -2.86966,23.26183 -0.34743,40.60751 -4.21934,83.33309 -9.51799,105.02868 -1.6119,6.6 -2.93485,15.51 -2.93991,19.8 -0.006,4.81711 -0.40371,7.17737 -1.04081,6.17189 -1.3326,-2.10311 -2.80659,0.11532 -1.80714,2.71982 0.87743,2.28653 2.43015,2.47735 3.32225,0.40829 0.3557,-0.825 0.34032,1.26581 -0.0342,4.64624 -0.42014,3.79221 -0.18983,6.44976 0.6013,6.93872 1.1689,0.72241 13.17286,-4.67844 14.58616,-6.56265 0.33,-0.43994 2.99615,-2.01503 5.92477,-3.50017 2.92863,-1.48514 6.07221,-3.44768 6.98572,-4.3612 0.91351,-0.91352 2.18424,-1.66094 2.82381,-1.66094 0.63959,0 2.76275,-1.18284 4.71815,-2.62853 1.95541,-1.44569 6.92854,-4.05662 11.05141,-5.80207 l 7.49614,-3.17356 0.95851,-14.29791 c 1.6378,-24.43075 3.0987,-33.14014 6.12215,-36.49793 3.66258,-4.06759 8.86876,-6.70326 16.70476,-8.45687 7.96723,-1.78299 10.56118,-1.16493 17.91458,4.26847 5.30677,3.92116 5.7,4.57805 5.7,9.52194 0,2.92062 0.6247,6.83038 1.38822,8.68834 0.76352,1.85797 1.78033,10.39812 2.25956,18.97812 0.47925,8.58 1.23402,16.47125 1.67728,17.53612 0.44327,1.06485 4.51714,3.39214 9.05306,5.17176 4.53592,1.77961 8.89257,4.01335 9.68144,4.96388 0.78886,0.95053 1.85397,1.72824 2.36689,1.72824 0.51291,0 4.36179,2.14036 8.55306,4.75634 10.03701,6.26463 20.40671,12.04366 21.61073,12.04366 0.53022,0 1.27694,-1.485 1.65938,-3.3 0.38244,-1.815 1.23373,-4.28731 1.89175,-5.49403 0.73456,-1.34705 0.77001,-2.73679 0.0918,-3.6 -0.60752,-0.77328 -1.43177,-5.45597 -1.83165,-10.40597 -0.39989,-4.95 -1.83755,-13.45531 -3.19482,-18.90068 -3.55808,-14.27513 -6.31436,-46.80453 -8.38883,-99.00443 -0.65047,-16.36781 -1.66799,-29.14162 -2.38969,-30 -0.69128,-0.82219 -2.81369,-3.52277 -4.71648,-6.00127 -1.9028,-2.47852 -6.06174,-6.25852 -9.24212,-8.4 -8.50045,-5.72376 -9.79771,-10.73986 -7.85151,-30.3595 1.71243,-17.2632 3.85007,-22.91882 15.16928,-40.13412 1.95281,-2.97 5.31952,-7.61562 7.48158,-10.32359 4.26942,-5.34741 4.94807,-8.93849 2.13103,-11.27641 -0.99,-0.82163 -1.8,-2.17163 -1.8,-3 0,-0.82837 -0.88377,-2.23961 -1.96395,-3.13607 -1.08017,-0.89647 -2.98377,-3.79759 -4.23021,-6.44694 -1.24642,-2.64935 -3.04478,-6.16699 -3.99632,-7.81699 -5.24678,-9.09799 -12.44494,-31.35487 -16.3,-50.400002 -4.2185,-20.84061 -4.34091,-49.49998 -0.26139,-61.2 0.86225,-2.47293 4.94119,9.09859 5.05887,14.35148 0.0827,3.69049 1.71052,10.51906 8.02139,33.64852 0.99045,3.63 2.23797,7.68 2.77227,9 0.5343,1.32 1.93066,5.37 3.10303,9.000002 1.17236,3.63 2.59613,7.113 3.16394,7.74 0.56781,0.627 1.03237,1.93671 1.03237,2.91047 0,2.42268 14.26289,30.94188 16.33425,32.66095 0.91616,0.76034 1.68158,1.99133 1.70093,2.73551 0.0193,0.74419 1.65477,3.13386 3.63428,5.31037 l 3.59911,3.9573 3.26572,-2.30033 c 7.71427,-5.43384 24.70425,-13.56393 35.71841,-17.09209 10.41128,-3.33503 13.57521,-3.81299 25.45892,-3.846 7.46359,-0.0208 13.87134,-0.525 14.23945,-1.12062 0.36811,-0.59561 -0.46028,-2.06261 -1.84088,-3.26 -1.38057,-1.19739 -2.51015,-2.51747 -2.51015,-2.93354 0,-0.41605 -1.94242,-2.7827 -4.31647,-5.25924 -7.46791,-7.79024 -8.26036,-9.4437 -6.10357,-12.73536 1.02078,-1.55792 4.30827,-4.45691 7.30552,-6.44222 4.51551,-2.990942 7.152,-3.749762 15.38205,-4.427172 14.20515,-1.16921 17.30843,-2.37712 18.95942,-7.37971 0.99993,-3.02978 1.01871,-5.7653 0.07,-10.18909 -1.66864,-7.78055 -1.74409,-31.54726 -0.0969,-30.52927 0.66,0.4079 1.2,1.57141 1.2,2.58558 0,1.01416 1.01363,3.27729 2.25251,5.02918 1.23889,1.75188 3.96597,7.50524 6.06019,12.78524 5.24699,13.22883 6.58507,15.63226 8.56949,15.39217 0.94479,-0.1143 4.72536,-0.88034 8.40125,-1.70229 5.98574,-1.33846 7.18173,-1.2564 11.45696,0.78609 4.6379,2.21577 11.26464,10.3878 11.25511,13.87971 -0.002,0.90438 -1.11051,3.458502 -2.46233,5.675822 -1.35182,2.21733 -3.33112,6.26733 -4.39846,9 -1.06736,2.73268 -2.63315,5.99631 -3.47956,7.25253 -1.46886,2.18005 -1.60495,2.13909 -2.98966,-0.9 -0.7979,-1.75122 -1.96111,-3.18403 -2.58489,-3.18403 -0.62379,0 -2.73853,-1.35 -4.69945,-3 -5.63386,-4.74058 -6.24922,-4.05862 -5.14331,5.7 1.25205,11.04821 1.25031,23.55298 -0.005,32.45466 -1.02755,7.29124 0.56695,12.84534 3.68798,12.84534 1.93692,0 14.83056,18.00335 18.29445,25.54446 4.92956,10.73201 8.77825,21.83629 9.86254,28.45554 0.59464,3.63 1.91464,9.57 2.93336,13.2 1.01871,3.63 2.35411,12.81 2.96756,20.4 0.61345,7.59 2.2107,21.36 3.54944,30.6 1.33875,9.24 2.44742,19.23 2.46372,22.2 0.0163,2.97 1.37475,11.33015 3.01877,18.57811 1.64403,7.24795 2.98913,14.46793 2.98913,16.04437 0,3.69852 5.20973,25.63166 9.02071,37.97752 1.62985,5.28 4.34863,14.19 6.04173,19.8 1.6931,5.61 4.19194,13.44 5.553,17.4 1.36105,3.96 2.76374,8.55 3.11708,10.2 0.35335,1.65 1.90808,5.01427 3.45497,7.47616 1.54688,2.46188 2.81251,4.98312 2.81251,5.60275 0,1.70555 4.0731,8.50484 5.1,8.51351 0.495,0.004 0.91717,1.22258 0.93816,2.70758 0.021,1.485 0.831,3.74821 1.8,5.02936 2.26064,2.98884 2.24549,4.38091 -0.0382,3.5046 -2.50144,-0.9599 -2.3006,0.97017 1.32839,12.76604 1.72591,5.61 4.50887,14.79 6.18433,20.4 1.67546,5.61 4.1045,13.44 5.39785,17.4 2.78124,8.51561 4.97659,29.55722 5.00805,48 0.0212,12.43706 -2.23821,39.9196 -3.3754,41.05678 -1.13446,1.13445 -4.273,-13.06582 -6.14172,-27.78806 -1.52878,-12.04406 -2.65152,-16.6918 -5.00048,-20.7 -1.66599,-2.8428 -3.51776,-5.16872 -4.11504,-5.16872 -1.40426,0 -1.42653,27.24788 -0.0229,28.11533 0.58464,0.36133 1.97334,4.30819 3.086,8.77081 2.38099,9.54968 3.89126,15.48403 4.88986,19.21386 0.53704,2.00591 1.60934,2.7 4.17118,2.7 1.89658,0 3.77313,0.52555 4.17011,1.16789 0.39699,0.64233 2.72386,2.03727 5.17083,3.09986 2.44696,1.06259 5.25902,2.40587 6.24902,2.98509 0.99,0.5792 6.12,3.50192 11.4,6.49492 10.03408,5.68787 23.63815,17.91934 35.41285,31.83978 3.62293,4.28315 8.11276,9.49743 9.97739,11.58729 3.97117,4.45083 6.37541,8.68842 17.11069,30.15852 4.38178,8.76333 8.38974,17.80833 8.90659,20.1 l 0.93974,4.16665 -149.14524,0 c -126.23282,0 -149.2436,-0.25628 -149.78542,-1.66828 -0.3521,-0.91755 0.14279,-9.15255 1.09975,-18.3 0.95697,-9.14744 2.25072,-26.6951 2.87502,-38.99479 0.6243,-12.29969 1.99425,-29.85822 3.04432,-39.01897 1.05007,-9.16074 1.74162,-19.61736 1.53677,-23.23693 l -0.37235,-6.58103 -4.52516,0.35508 c -3.16412,0.24828 -6.41247,-0.65404 -10.8,-3 -3.45117,-1.8453 -6.54484,-3.66072 -6.87484,-4.03428 -0.59352,-0.67186 -9.78542,-7.2415 -15,-10.7208 -7.64564,-5.10138 -14.44464,-10.16852 -14.8,-11.03015 -0.22,-0.53341 -1.16857,-0.96985 -2.10794,-0.96985 -0.93936,0 -2.88174,-1.35 -4.3164,-3 -1.43466,-1.65 -2.9902,-3 -3.45677,-3 -0.46656,0 -6.91007,-4.05 -14.31889,-9 -7.40882,-4.95 -13.62545,-9 -13.81471,-9 -1.15353,0 -13.89942,-9.20842 -17.51451,-12.65356 -3.57842,-3.41019 -4.90269,-6.1566 -7.63593,-15.83607 -5.84107,-20.68549 -11.20793,-30.89063 -12.41692,-23.61093 -0.21014,1.26531 -1.69514,5.05438 -3.3,8.42016 -1.60487,3.36579 -2.91793,7.45278 -2.91793,9.0822 0,10.40612 -7.36997,21.74895 -19.07951,29.36453 -16.73646,10.88499 -21.99777,14.24733 -25.08912,16.03367 -1.71324,0.99 -4.10718,2.66971 -5.31987,3.73271 -1.2127,1.06298 -5.28888,4.02569 -9.0582,6.5838 -3.76931,2.5581 -7.1233,4.92837 -7.4533,5.26729 -0.9187,0.9435 -9.82517,7.63313 -13.2,9.9145 -1.65,1.11538 -5.16,3.62626 -7.8,5.57974 -10.09085,7.46676 -19.56446,12.06633 -24.2802,11.78837 l -4.5198,-0.26641 0.12727,6 c 0.49071,23.13406 6.50625,54.9902 16.76849,88.8 1.60262,5.28 2.9117,10.41762 2.90905,11.41694 -0.002,0.99932 1.07519,4.7717 2.39519,8.38306 1.32,3.61136 2.4,8.05874 2.4,9.88306 l 0,3.31694 -109.8,0 c -87.049314,0 -109.79638369,-0.3108 -109.7825436895037,-1.5 z M 20.832546,561.11254 c 1.06951,-5.34752 0.92667,-10.65 -0.28689,-10.65 -0.91017,0 -2.56311,8.23369 -2.56311,12.76748 0,3.15656 2.10851,1.58998 2.85,-2.11748 z M 404.38255,505.387 c 0,-2.96382 -6.23942,-14.92446 -7.78554,-14.92446 -0.76786,0 -2.66436,-1.35 -4.21446,-3 -1.5501,-1.65 -3.48923,-3 -4.30918,-3 -0.81994,0 -1.67082,-0.49314 -1.89082,-1.09585 -0.34427,-0.94318 -3.42671,-3.41521 -17.2,-13.79394 -1.32,-0.99467 -4.02,-3.06953 -6,-4.6108 -5.4436,-4.23738 -10.34218,-7.15724 -10.96411,-6.53529 -0.82968,0.82966 -0.67188,21.08322 0.17493,22.45339 0.40196,0.65037 1.64396,1.18899 2.76,1.19695 1.11605,0.008 4.3793,1.35794 7.25166,3 2.87237,1.64204 5.91125,2.98554 6.75308,2.98554 0.84181,0 2.16418,0.76345 2.93859,1.69656 0.77442,0.93311 3.67554,2.8517 6.44694,4.26355 2.7714,1.41184 7.73891,4.16772 11.03891,6.12418 6.69379,3.96853 12.73577,6.99755 14.1,7.06874 0.495,0.0258 0.9,-0.79703 0.9,-1.82857 l 0,0 z m -158.79966,-3.64781 c 4.50982,-2.37785 9.00966,-4.94882 9.99966,-5.71327 1.64424,-1.26966 5.26723,-3.37642 12.34618,-7.17928 1.4596,-0.7841 4.15234,-2.43226 5.98388,-3.66258 1.83154,-1.23031 5.06606,-2.59198 7.18784,-3.02594 2.39576,-0.48998 4.42418,-1.90825 5.35226,-3.74228 1.76,-3.47804 2.0488,-18.69093 0.37448,-19.72571 -1.70418,-1.05324 -13.12656,6.40235 -17.88277,11.67241 -1.04239,1.155 -2.30145,2.1 -2.79791,2.1 -0.7997,0 -19.84178,14.87184 -21.36396,16.68522 -0.33,0.39313 -1.60308,1.26511 -2.82906,1.93774 -1.88002,1.03146 -6.76684,11.19279 -6.76997,14.07704 -10e-4,1.64078 2.11848,0.94283 10.39937,-3.42335 l 0,0 z M 413.74343,372.23044 c 1.45152,-2.98765 2.63912,-6.29971 2.63912,-7.36013 0,-2.30094 7.87382,-18.13194 10.48297,-21.07694 1.45121,-1.63801 1.66555,-3.77061 1.02863,-10.23433 -1.56523,-15.88467 -3.41999,-21.09483 -10.43387,-29.30964 -3.56275,-4.17278 -7.05631,-8.63472 -7.76346,-9.91544 -0.70716,-1.28072 -1.92216,-2.54072 -2.7,-2.79999 -1.67157,-0.5572 -1.79196,24.72145 -0.28447,59.72857 1.21453,28.20378 2.15419,31.00601 7.03108,20.9679 l 0,0 z m -182.82318,-8.0679 c 0.49015,-6.765 1.1076,-14.19 1.3721,-16.5 1.38007,-12.05258 1.95194,-54.89659 0.74272,-55.64394 -0.74046,-0.45762 -2.97422,1.62322 -5.17271,4.81864 -2.1282,3.09324 -5.86558,7.68092 -8.30526,10.19486 -3.75985,3.87427 -4.54588,5.62679 -5.15814,11.50061 -0.39727,3.8114 -1.27228,10.51111 -1.94443,14.88824 -1.14191,7.43613 -1.02796,8.30239 1.73637,13.2 4.08207,7.23222 5.85723,11.06356 9.79367,21.13768 1.86889,4.78285 3.99344,8.69785 4.72124,8.7 0.82078,0.002 1.66167,-4.6668 2.21444,-12.29609 l 0,0 z m 284.0126,-224.7 c 0.42116,-1.98 0.82963,-6.75 0.90773,-10.6 0.16681,-8.22452 -1.59118,-8.67712 -5.12331,-1.319 -1.2459,2.59544 -3.01801,6.27757 -3.93801,8.1825 -1.48229,3.06912 -1.43685,3.72418 0.39906,5.75282 3.01969,3.33672 6.82645,2.34689 7.75453,-2.01632 z"
     id="path2987"
     inkscape:connector-curvature="0" />
</svg>
