<?xml version="1.0" encoding="UTF-8" standalone="no"?>
<!-- Created with Inkscape (http://www.inkscape.org/) -->

<svg
   xmlns:dc="http://purl.org/dc/elements/1.1/"
   xmlns:cc="http://creativecommons.org/ns#"
   xmlns:rdf="http://www.w3.org/1999/02/22-rdf-syntax-ns#"
   xmlns:svg="http://www.w3.org/2000/svg"
   xmlns="http://www.w3.org/2000/svg"
   xmlns:sodipodi="http://sodipodi.sourceforge.net/DTD/sodipodi-0.dtd"
   xmlns:inkscape="http://www.inkscape.org/namespaces/inkscape"
   id="svg2"
   version="1.1"
   inkscape:version="0.48.4 r9939"
   width="940.68005"
   height="628.16724"
   sodipodi:docname="komachi.bmp">
  <metadata
     id="metadata8">
    <rdf:RDF>
      <cc:Work
         rdf:about="">
        <dc:format>image/svg+xml</dc:format>
        <dc:type
           rdf:resource="http://purl.org/dc/dcmitype/StillImage" />
        <dc:title></dc:title>
      </cc:Work>
    </rdf:RDF>
  </metadata>
  <defs
     id="defs6" />
  <sodipodi:namedview
     pagecolor="#ffffff"
     bordercolor="#666666"
     borderopacity="1"
     objecttolerance="10"
     gridtolerance="10"
     guidetolerance="10"
     inkscape:pageopacity="0"
     inkscape:pageshadow="2"
     inkscape:window-width="956"
     inkscape:window-height="1041"
     id="namedview4"
     showgrid="false"
     fit-margin-top="0"
     fit-margin-left="0"
     fit-margin-right="0"
     fit-margin-bottom="0"
     inkscape:zoom="0.83333333"
     inkscape:cx="478.68005"
     inkscape:cy="311.76"
     inkscape:window-x="960"
     inkscape:window-y="18"
     inkscape:window-maximized="0"
     inkscape:current-layer="svg2" />
  <path
     style="fill:#ff0000"
     d="m 83.820315,620.66724 c -0.0329,-4.125 -0.0145,-14.79 0.0408,-23.7 0.0804,-12.94646 -0.41203,-18.12802 -2.45167,-25.8 -1.40373,-5.28 -2.9583,-11.22 -3.45462,-13.2 -0.8162,-3.25616 -5.78594,-14.95108 -8.50335,-20.01034 -0.59389,-1.10569 -3.35484,-6.23569 -6.13546,-11.4 -2.78061,-5.16432 -6.86389,-12.89966 -9.07396,-17.18966 -2.21006,-4.29 -4.4617,-8.61 -5.00364,-9.6 -0.54194,-0.99 -1.51404,-2.88 -2.16023,-4.2 -0.64618,-1.32 -1.98901,-4.02 -2.98405,-6 C 29.733466,460.99147 14.721955,417.7299 11.862209,396.6783 11.360797,392.98722 9.8404165,384.29724 8.4835875,377.36724 2.8660055,348.67546 0.69922845,323.61898 0.16977845,281.22679 c -0.550692,-44.09299 -0.1325,-50.07005 7.00077705,-100.05955 1.373028,-9.62208 3.6707925,-20.76235 7.3015215,-35.4 1.391507,-5.61 2.973942,-12.63 3.516521,-15.6 0.542579,-2.97 2.085994,-8.91 3.42981,-13.2 1.343817,-4.29 2.447428,-8.91261 2.45247,-10.27246 0.005,-1.35986 1.266937,-5.68191 2.804212,-9.60456 1.537274,-3.92265 3.13626,-9.23475 3.553301,-11.80467 0.720897,-4.44237 0.435387,-4.99545 -5.795045,-11.22588 -5.305788,-5.30579 -6.553301,-7.31168 -6.553301,-10.53715 0,-2.19112 0.834301,-4.81815 1.854002,-5.83785 5.332878,-5.33288 21.512738,-5.33324 38.945998,-8.7e-4 5.61,1.71595 14.79,4.49874 20.4,6.18398 5.61,1.68524 13.72146,4.33204 18.02545,5.88177 4.304005,1.54973 8.340635,2.81769 8.970295,2.81769 2.40276,0 38.79196,14.22028 42.37404,16.55906 1.52339,0.99463 4.325,3.26121 6.22584,5.03684 3.25964,3.04498 15.67076,8.42841 19.32758,8.38352 0.92224,-0.0113 5.9968,1.29915 11.2768,2.91216 5.28,1.61302 14.73,4.3618 21,6.10842 6.27,1.74662 15.72,4.4954 21,6.10842 5.28,1.613 10.37784,2.92349 11.32854,2.91216 0.9507,-0.0108 6.0807,1.29758 11.4,2.90867 5.3193,1.61108 14.80146,4.27184 21.07146,5.91279 6.27,1.64097 14.64,3.88425 18.6,4.98508 22.517,6.25948 26.39008,6.42084 27.71182,1.1546 0.4116,-1.63994 1.21446,-2.98172 1.78414,-2.98172 1.02141,0 10.70404,-19.27102 10.70404,-21.30391 0,-0.57581 1.35,-3.84534 3,-7.26562 1.65,-3.42029 3,-6.52098 3,-6.89042 0,-2.42948 12.07543,-27.00737 14.83522,-30.19507 1.26423,-1.46026 2.8985,-3.69029 3.6317,-4.95562 0.73319,-1.26534 3.62808,-5.31252 6.43308,-8.99375 2.805,-3.68122 5.1,-7.13046 5.1,-7.66498 0,-1.55205 10.40032,-13.01241 15.40841,-16.97889 3.76448,-2.98152 6.34611,-3.84677 14.54498,-4.87482 5.48248,-0.68744 10.57079,-1.72557 11.30737,-2.30694 0.73659,-0.58137 3.34834,-1.41894 5.80391,-1.86126 2.45557,-0.44232 6.04353,-2.13273 7.97323,-3.75647 1.92971,-1.62374 3.84633,-2.95225 4.25918,-2.95225 0.41283,0 2.76488,-1.23708 5.22676,-2.74908 2.46189,-1.511989 9.33616,-4.346989 15.27616,-6.299997 9.42188,-3.09781203 12.52076,-3.54657303 24.2852,-3.51683603 14.38677,0.03637 12.61851,-0.463271 30.66098,8.66349303 6.46375,3.26968 8.71582,4.59676 15.83142,9.32897 8.51983,5.66609 11.12347,7.6623 13.66053,10.47345 1.04239,1.155 2.5584,2.1 3.36893,2.1 0.81053,0 1.90552,0.70759 2.43331,1.57243 0.5278,0.86483 2.21946,2.43208 3.75927,3.48277 l 2.79963,1.91034 -3.80024,0.83467 c -3.38452,0.74337 -3.71369,1.1796 -3.00892,3.98762 2.67492,10.65772 3.09067,16.02293 1.57641,20.34301 -0.86159,2.45804 -2.2612,5.0163 -3.11025,5.68504 -0.84905,0.66873 -2.31035,3.36873 -3.24733,6 -1.01424,2.84823 -1.74107,3.81296 -1.7962,2.38412 -0.0874,-2.26515 -0.22519,-2.24083 -2.45266,0.43294 -3.84238,4.61223 -2.98371,6.65909 4.35015,10.36968 6.48259,3.27989 6.67834,3.52063 5.77021,7.09622 -0.517,2.03564 -0.86156,6.13116 -0.76568,9.10116 0.0959,2.97 -0.61072,9.0166 -1.57021,13.43689 -0.95951,4.42029 -1.74455,10.20007 -1.74455,12.84397 0,3.76682 -0.65422,5.27367 -3.02309,6.96312 -1.66269,1.18581 -4.21197,3.13281 -5.66507,4.32666 -1.65787,1.36211 -3.54895,1.88164 -5.07691,1.39478 -6.89348,-2.19656 -8.13081,-1.13038 -6.0963,5.25304 0.78781,2.47181 0.58854,2.72015 -1.62017,2.01914 -2.2153,-0.70311 -2.51846,-0.31618 -2.51846,3.21453 0,4.36762 2.81538,9.34787 5.28443,9.34787 0.85159,0 2.84597,1.13153 4.43196,2.5145 4.77732,4.16583 8.92579,5.82482 20.57193,8.22682 12.50532,2.5792 15.31168,3.47842 15.31168,4.9062 0,0.54491 1.215,1.36924 2.7,1.83184 4.34124,1.35235 10.86268,7.08558 14.1,12.3958 4.27812,7.01747 5.21784,7.25112 84.6,21.03406 9.9,1.71892 25.03816,4.46754 33.64033,6.10804 19.17621,3.65706 21.52145,3.69963 23.81007,0.43218 1.38442,-1.97656 2.5126,-2.36831 5.013,-1.74076 1.77458,0.44539 4.0386,1.62188 5.03113,2.61443 2.45469,2.45468 6.65413,1.64945 8.05629,-1.54477 1.7407,-3.96544 6.19768,-5.57936 10.34194,-3.74493 1.87634,0.83056 3.56807,2.52172 3.7594,3.75814 0.32997,2.13255 0.51706,2.11435 3.6422,-0.35441 3.72881,-2.94566 7.3733,-2.44774 9.36829,1.27993 0.74381,1.38982 2.34121,2.26339 3.89873,2.1321 5.42887,-0.45764 6.67411,0.21634 8.03862,4.35083 1.60429,4.86104 2.56424,5.22498 4.21544,1.59816 0.65151,-1.43102 2.12795,-3.18224 3.28097,-3.89161 1.68209,-1.03485 2.63076,-0.68592 4.8,1.76547 1.48698,1.68039 3.3015,4.10661 4.03229,5.3916 1.53848,2.70526 20.45063,6.81101 40.6713,8.82957 6.6,0.65886 18.96014,2.30243 27.46698,3.65237 8.50684,1.34994 17.95684,2.45617 21,2.45827 3.04316,0.002 10.12302,0.79694 15.73302,1.76629 9.14153,1.57956 42.72862,5.42988 47.36587,5.42988 1.55813,0 1.83413,2.52773 1.83413,16.8 0,9.24 -0.405,16.78938 -0.9,16.7764 -3.48221,-0.0913 -30.39913,-5.63157 -55.60775,-11.44556 -6.98925,-1.61196 -13.89404,-2.93084 -15.34398,-2.93084 -1.44992,0 -8.69144,-1.29382 -16.09225,-2.87514 -7.40081,-1.58134 -21.55602,-4.3241 -31.45602,-6.09504 -9.9,-1.77094 -22.2522,-4.02792 -27.44934,-5.01552 -5.19713,-0.9876 -9.85966,-1.34983 -10.36117,-0.80496 -0.50152,0.54486 -2.90587,4.72618 -5.34303,9.2918 -5.65407,10.59208 -9.07485,15.13552 -18.33535,24.3528 -7.91757,7.88062 -19.74317,17.14606 -21.88371,17.14606 -0.70131,0 -3.41363,1.35 -6.0274,3 -2.61377,1.65 -5.27447,3 -5.91265,3 -0.6382,0 -3.69936,1.35 -6.80257,3 -3.10323,1.65 -6.1358,3 -6.73905,3 -0.60324,0 -3.89781,1.27843 -7.32127,2.84095 -3.42346,1.56252 -9.73446,4.3218 -14.02446,6.13174 -4.29,1.80992 -10.64696,4.5815 -14.12658,6.15905 -3.47963,1.57754 -6.88922,2.86826 -7.5769,2.86826 -0.68767,0 -4.20171,1.35 -7.80897,3 -3.60727,1.65 -6.98161,3 -7.49853,3 -0.51692,0 -3.73827,1.35 -7.15855,3 -3.42029,1.65 -6.96705,3 -7.88172,3 -0.91465,0 -5.24963,1.35 -9.63327,3 -11.60368,4.36762 -19.69332,4.07135 -32.76604,-1.2 -5.7287,-2.31 -10.71588,-4.2 -11.08264,-4.2 -0.36674,0 -0.66829,4.185 -0.67012,9.3 -0.002,6.61003 -0.5742,10.16773 -1.97705,12.3 -1.54845,2.35358 -1.96403,5.9436 -1.92868,16.66112 l 0.045,13.66114 7.35624,7.5025 c 9.05785,9.23794 10.80927,12.34959 9.88687,17.56558 -2.44346,13.81739 -3.44068,10.20447 9.38722,34.00966 2.87731,5.33954 8.90782,13.43214 15.2018,20.4 5.8287,6.45275 15.43187,19.22562 15.43187,20.52545 0,0.48707 0.7552,1.73809 1.67823,2.78006 1.87075,2.11182 4.90542,7.31481 11.74785,20.14186 4.42398,8.29334 4.51701,8.69865 2.27226,9.9 -3.10424,1.66134 -8.10159,1.50326 -13.50708,-0.42726 -6.93275,-2.47599 -7.92653,-1.00668 -5.35563,7.91835 1.19797,4.15884 2.45131,9.18154 2.78518,11.16154 0.33389,1.98 1.9058,7.81288 3.49313,12.96194 1.58734,5.14907 2.89531,10.81907 2.90663,12.6 0.0108,1.78094 1.10321,7.28806 2.42645,12.23806 2.17561,8.13862 3.50513,15.95926 5.55901,32.7 l 0.69932,5.7 -186.72694,0 -186.72695,0 1.40846,-3.3 c 0.77466,-1.815 2.78808,-4.7536 4.47427,-6.53021 1.6862,-1.77662 4.28081,-4.49561 5.76581,-6.0422 1.485,-1.5466 2.7,-3.14089 2.7,-3.54288 0,-0.402 1.70217,-2.54301 3.78259,-4.7578 2.08043,-2.2148 6.83068,-7.55826 10.55612,-11.87435 10.93352,-12.66696 60.24447,-63.55256 61.58596,-63.55256 0.63209,0 56.07538,-55.3309 56.07538,-55.9617 0,-0.23442 2.7,-3.77688 6,-7.87214 3.3,-4.09527 6,-7.95106 6,-8.56844 0,-0.61738 1.35,-2.37364 3,-3.90282 1.65,-1.52917 3,-3.30752 3,-3.95188 0,-0.64438 0.80036,-1.97195 1.77858,-2.95018 0.97823,-0.97822 4.29058,-5.4477 7.36076,-9.93218 3.0702,-4.48449 6.31984,-8.89127 7.22142,-9.79286 0.90159,-0.90157 1.63924,-2.35288 1.63924,-3.22513 0,-0.87224 0.78176,-1.88589 1.73725,-2.25254 6.36521,-2.44257 5.83487,-16.21621 -0.89676,-23.29013 -2.04121,-2.145 -4.14536,-3.9 -4.67589,-3.9 -0.53054,0 -1.96744,-0.945 -3.19313,-2.1 -1.22571,-1.155 -4.7925,-3.99 -7.92623,-6.3 -3.13373,-2.31 -6.91781,-5.415 -8.40907,-6.9 -1.49125,-1.485 -3.09766,-2.7 -3.56979,-2.7 -1.36749,0 -22.42387,-17.84699 -27.27999,-23.12202 -10.66743,-11.58762 -10.79789,-28.70446 -0.36798,-48.27798 5.84388,-10.96704 6.41742,-11.93402 12.02511,-20.27417 8.97159,-13.34317 9.20696,-13.88079 7.8194,-17.86116 -2.88586,-8.27838 -0.91581,-21.47319 3.71422,-24.87669 1.54583,-1.13633 2.19174,-6.56207 1.27358,-10.69826 -0.98457,-4.43534 -3.85072,-6.54154 -3.85072,-2.82972 0,3.12861 -2.31224,5.13659 -5.94,5.15837 -4.09745,0.0246 -5.2979,1.01706 -7.23523,5.98163 -2.12094,5.43506 -2.06938,5.38882 -4.11546,3.69072 -1.39121,-1.1546 -2.42019,-1.0113 -5.03339,0.70093 l -3.28469,2.15221 0.75931,-3.79657 c 0.69206,-3.46028 0.471,-3.82982 -2.49561,-4.17193 -2.26625,-0.26135 -3.15414,-0.98574 -2.92311,-2.38487 0.51911,-3.14366 -1.85971,-3.74355 -2.80716,-0.70791 -0.82699,2.64966 -2.60935,4.46198 -4.42466,4.49905 -0.495,0.01 -0.9,-3.53663 -0.9,-7.88163 0,-9.45868 -1.87829,-9.87794 -4.63986,-1.03566 -1.63138,5.22353 -1.90572,5.53974 -2.28667,2.63566 -0.24453,-1.86407 -1.18144,-3.3 -2.15317,-3.3 -2.20708,0 -2.17156,-0.39668 0.51468,-5.74781 1.22923,-2.44871 2.60983,-7.37767 3.068,-10.95326 l 0.83303,-6.50107 -5.16801,4.65678 c -2.8424,2.56122 -5.708,5.5129 -6.368,6.55928 -0.66,1.04639 -2.28,3.6279 -3.6,5.73671 -4.47407,7.14769 -3.99097,3.89505 1.43336,-9.65063 2.97333,-7.425 5.69232,-14.75263 6.04222,-16.28362 0.60308,-2.63883 0.399,-2.73913 -3.92377,-1.92817 l -4.55994,0.85546 2.65993,-3.73555 c 1.46297,-2.05455 3.16036,-4.04481 3.77196,-4.42281 1.64448,-1.01634 5.20477,-8.95677 4.38401,-9.77754 -0.38853,-0.38852 -2.39064,0.71079 -4.44916,2.44291 -2.05851,1.73213 -4.51131,3.14932 -5.45069,3.14932 -0.93936,0 -1.70792,0.48223 -1.70792,1.07161 0,1.33089 -3.6917,2.83669 -4.637,1.89139 -0.38142,-0.38143 0.10092,-1.19587 1.07175,-1.80987 1.30253,-0.82375 0.75022,-1.1212 -2.10709,-1.13476 -2.77382,-0.0132 -4.40666,0.79711 -5.75588,2.85629 -1.03595,1.58106 -2.93583,3.14983 -4.22195,3.48616 -1.96428,0.51367 -2.22252,0.14974 -1.61403,-2.27465 0.44876,-1.78799 0.20222,-2.88617 -0.64794,-2.88617 -0.9751,0 -1.02006,-0.65819 -0.1553,-2.27399 0.9036,-1.68839 0.75996,-2.65332 -0.55777,-3.74694 -0.97614,-0.81012 -1.78306,-2.62182 -1.79316,-4.026 -0.0233,-3.22719 -1.0233,-4.57767 -4.78163,-6.4571 -3.89489,-1.94772 -20.42442,-5.01127 -22.57852,-4.18468 -0.91503,0.35115 -2.07223,-0.0226 -2.57154,-0.83047 -0.7149,-1.15674 -2.48206,-1.15919 -8.31554,-0.012 -7.2572,1.42776 -10.74067,0.8359 -7.36374,-1.25117 2.49443,-1.54164 -2.77534,-5.50046 -9.57066,-7.1898 -2.97,-0.73835 -9.99,-2.64714 -15.6,-4.24177 -5.61,-1.59462 -15.33,-4.29223 -21.6,-5.99467 -6.27,-1.70245 -15.72,-4.43853 -21,-6.08017 -5.28,-1.64165 -10.24165,-2.96837 -11.0259,-2.94827 -0.78425,0.0202 -5.91425,-1.32178 -11.4,-2.98197 -5.48575,-1.66017 -14.43628,-4.33903 -19.89006,-5.95299 -5.45377,-1.61398 -14.56393,-4.40839 -20.24479,-6.20982 -8.97892,-2.84726 -12.15273,-3.25575 -24.28405,-3.12554 -7.67536,0.0824 -14.26018,0.18513 -14.63295,0.22833 -0.97298,0.11275 -4.72225,8.24377 -4.72225,10.24114 0,0.92463 -0.6232,3.20132 -1.38487,5.05928 -3.10591,7.57624 -9.65341,26.45204 -10.53734,30.37812 -0.52008,2.31 -2.1279,7.98 -3.57293,12.6 -15.998105,51.14863 -20.445325,83.99773 -20.469965,151.2 -0.0201,54.72089 3.07966,78.57192 14.503745,111.6 1.36973,3.96 2.9779,9.20855 3.57371,11.66342 0.59582,2.45489 2.0977,6.77489 3.33752,9.6 1.23981,2.82513 3.19807,7.83658 4.35168,11.13658 4.05686,11.60502 5.51821,15.3638 7.84747,20.18483 1.29304,2.67627 2.35098,5.28853 2.35098,5.805 0,0.51648 1.35,3.89045 3,7.49772 1.65,3.60726 3,7.13592 3,7.84145 0,0.70551 1.35,4.08118 3,7.50147 1.65,3.42028 3,6.66352 3,7.20719 0,0.54367 1.05091,3.27761 2.33536,6.07542 4.60198,10.02416 7.26464,19.51133 7.26464,25.88428 0,6.26648 -0.91643,9.97321 -6.57703,26.60264 -1.46031,4.29 -3.6466,11.04 -4.85842,15 -1.21182,3.96 -2.57417,7.74 -3.02745,8.4 -0.45329,0.66 -1.21289,3.36 -1.68802,6 -0.47512,2.64 -1.28106,5.34 -1.791,6 -0.50993,0.66 -1.2819,2.685 -1.71547,4.5 l -0.78833,3.30048 -22.77714,0 -22.777145,0 -0.0597,-7.5 z M 462.49066,342.51892 c 1.58406,-7.21215 -4.14933,-33.55168 -7.30326,-33.55168 -1.58772,0 -8.90735,6.75899 -8.90735,8.22509 0,0.46225 -1.62,2.262 -3.6,3.99942 -1.98,1.73742 -3.6,3.95413 -3.6,4.92603 0,1.81978 6.48858,8.75837 13.13826,14.04946 2.07366,1.65 4.42087,3.65446 5.21602,4.45435 2.4406,2.45519 4.21756,1.71623 5.05633,-2.10267 z m 161.88917,-39.061 c 3.9127,-1.58988 7.68445,-2.89068 8.38166,-2.89068 0.6972,0 4.7891,-1.26796 9.09311,-2.8177 7.3995,-2.66432 16.01502,-5.35825 39.62545,-12.39025 5.61,-1.67084 12.63,-3.8651 15.6,-4.87613 2.97,-1.01101 7.7535,-2.48103 10.63001,-3.2667 7.33904,-2.00452 9.58761,-5.90553 7.62776,-13.23321 -0.80177,-2.99775 -1.45777,-7.30729 -1.45777,-9.57677 0,-8.15682 -3.11191,-11.43772 -10.8,-11.38648 -3.08966,0.0206 -25.6714,-4.04367 -51,-9.17901 -7.92,-1.60577 -15.48,-2.89896 -16.8,-2.87375 -2.1892,0.0418 -11.5183,-1.75498 -43.81231,-8.43822 -6.27677,-1.29898 -11.77869,-2.36178 -12.22647,-2.36178 -0.44779,0 -1.18604,2.47987 -1.64056,5.51084 -0.73913,4.92886 -0.43008,6.07311 2.92647,10.83508 2.06407,2.92834 3.75287,6.29984 3.75287,7.49224 0,2.18203 7.70731,13.13484 10.5,14.92147 0.825,0.52779 1.5,1.48352 1.5,2.12384 0,0.64032 1.24867,3.17849 2.77482,5.64037 3.1809,5.1312 5.23837,13.82288 6.27481,26.5076 0.39688,4.85728 1.32815,10.16268 2.06949,11.78974 1.1849,2.60056 1.86297,2.86168 5.60727,2.15924 2.34267,-0.43948 7.46069,-2.09987 11.37339,-3.68974 z"
     id="path2987"
     inkscape:connector-curvature="0" />
</svg>
