<?xml version="1.0" encoding="UTF-8" standalone="no"?>
<!-- Created with Inkscape (http://www.inkscape.org/) -->

<svg
   xmlns:dc="http://purl.org/dc/elements/1.1/"
   xmlns:cc="http://creativecommons.org/ns#"
   xmlns:rdf="http://www.w3.org/1999/02/22-rdf-syntax-ns#"
   xmlns:svg="http://www.w3.org/2000/svg"
   xmlns="http://www.w3.org/2000/svg"
   xmlns:sodipodi="http://sodipodi.sourceforge.net/DTD/sodipodi-0.dtd"
   xmlns:inkscape="http://www.inkscape.org/namespaces/inkscape"
   id="svg2"
   version="1.1"
   inkscape:version="0.48.4 r9939"
   width="689.34387"
   height="930.82941"
   sodipodi:docname="Hong.Meiling.full.1015508.bmp">
  <metadata
     id="metadata8">
    <rdf:RDF>
      <cc:Work
         rdf:about="">
        <dc:format>image/svg+xml</dc:format>
        <dc:type
           rdf:resource="http://purl.org/dc/dcmitype/StillImage" />
        <dc:title></dc:title>
      </cc:Work>
    </rdf:RDF>
  </metadata>
  <defs
     id="defs6" />
  <sodipodi:namedview
     pagecolor="#ffffff"
     bordercolor="#666666"
     borderopacity="1"
     objecttolerance="10"
     gridtolerance="10"
     guidetolerance="10"
     inkscape:pageopacity="0"
     inkscape:pageshadow="2"
     inkscape:window-width="956"
     inkscape:window-height="1041"
     id="namedview4"
     showgrid="false"
     fit-margin-top="0"
     fit-margin-left="0"
     fit-margin-right="0"
     fit-margin-bottom="0"
     inkscape:zoom="0.92283291"
     inkscape:cx="344.67192"
     inkscape:cy="465.41471"
     inkscape:window-x="960"
     inkscape:window-y="18"
     inkscape:window-maximized="0"
     inkscape:current-layer="svg2" />
  <path
     style="fill:#ff0000"
     d="m 296.51346,929.64731 c -1.56455,-6.196 -5.72693,-28.3949 -7.73454,-41.25 -3.13562,-20.0779 -4.7343,-53.0123 -3.8744,-79.8167 0.681,-21.2278 1.22491,-25.8987 4.43953,-38.125 6.28578,-23.9069 9.03903,-30.4173 29.16713,-68.96945 6.24784,-11.96674 9.95342,-20.65289 13.84929,-32.46385 4.17614,-12.66058 8.27074,-27.72319 8.23295,-30.28615 -0.018,-1.21761 1.0844,-6.9951 2.44968,-12.83885 6.47017,-27.6942 9.5472,-52.5 6.51231,-52.5 -0.78614,0 -1.42779,0.70312 -1.42588,1.5625 0.002,0.85937 -1.12308,3.95312 -2.5,6.875 -4.1699,8.84874 -13.7128,31.01646 -20.31356,47.1875 -3.7075,9.08288 -6.50255,15.50022 -9.5276,21.875 -1.46809,3.09375 -2.6677,6.10655 -2.66579,6.6951 0.01,3.20867 -12.6259,9.4589 -24.37152,12.05475 -2.75,0.60776 -8.9375,2.6093 -13.75,4.44785 -4.8125,1.83856 -10.57813,3.97761 -12.8125,4.75344 -2.63635,0.9154 -4.0625,2.23295 -4.0625,3.75314 0,1.28839 -1.08911,5.79138 -2.42025,10.00663 -3.91809,12.40723 -7.57975,26.62496 -7.57975,29.43119 0,1.43435 -0.75733,2.6079 -1.68295,2.6079 -0.92563,0 -3.5975,0.9661 -5.9375,2.147 -2.48375,1.2534 -7.11601,2.147 -11.12955,2.147 -4.01354,0 -8.6458,-0.8936 -11.12955,-2.147 -2.34,-1.1808 -4.72166,-2.147 -5.29259,-2.147 -1.11427,0 -11.03321,-4.78054 -22.58499,-10.88506 l -7.13211,-3.76897 -2.55539,2.72008 c -1.40545,1.49604 -2.55537,3.29976 -2.55537,4.00827 0,0.70852 -1.125,2.30632 -2.5,3.55068 -1.375,1.24436 -2.5,2.91297 -2.5,3.70804 0,0.79505 -0.98438,2.56666 -2.1875,3.93696 -2.42816,2.7656 -3.94359,5.0469 -8.11191,12.212 -3.52678,6.0623 -4.47305,7.5587 -9.10113,14.3925 -2.04845,3.0247 -4.28696,6.3722 -4.97446,7.4388 -0.6875,1.0666 -3.07138,4.498 -5.29751,7.6255 -2.22613,3.1274 -4.95908,7.7956 -6.07323,10.3737 -1.11414,2.5781 -2.52714,4.6875 -3.13999,4.6875 -0.61285,0 -1.11427,0.8493 -1.11427,1.8873 0,1.0381 -2.29666,6.5224 -5.1037,12.1875 -2.80704,5.6651 -5.95446,12.0635 -6.99428,14.2187 -2.15017,4.4565 -3.95307,15.2335 -4.99059,29.8315 -0.72721,10.2319 0.70481,24.2744 4.10349,40.239 4.56845,21.4595 1.65086,29.6396 -15.95738,44.7402 -4.278846,3.6694 -15.529706,3.4603 -20.489576,-0.3809 -9.78777,-7.5802 -17.50235,-16.4062 -19.11542,-21.8693 -2.77005,-9.3816 -1.02107,-26.2381 3.8518,-37.1233 1.07241,-2.3957 2.6155,-9.5472 3.42909,-15.8924 1.75658,-13.6996 4.355,-24.1569 6.30141,-25.3598 0.7726,-0.4775 1.72618,-3.3399 2.11907,-6.3608 0.51202,-3.9371 1.90784,-6.7349 4.92839,-9.8787 2.31773,-2.4123 4.94761,-5.7873 5.84418,-7.5 0.89657,-1.7127 2.20728,-4.239 2.9127,-5.614 0.70542,-1.375 2.2093,-4.1875 3.34196,-6.25 1.13266,-2.0625 3.543926,-6.8437 5.358386,-10.625 1.81446,-3.7812 3.77784,-7.7187 4.36306,-8.75 2.54085,-4.4774 13.59741,-27.2249 13.59741,-27.975 0,-0.4545 2.30486,-5.7367 5.12192,-11.7382 2.81707,-6.0015 6.24584,-13.44305 7.61952,-16.5368 4.92498,-11.09194 7.02896,-15.73353 10.35963,-22.85449 3.33089,-7.12141 3.347,-7.27819 1.07768,-10.48782 -1.26706,-1.7921 -2.86625,-4.10865 -3.55375,-5.1479 -1.16084,-1.75478 -5.78065,-6.37584 -9.87533,-9.87801 -3.86273,-3.30382 -17.14348,-7.88224 -22.89951,-7.89443 -6.21272,-0.0131 -18.920426,3.62852 -26.770346,7.67164 -2.49986,1.28756 -5.31236,2.35352 -6.25,2.36881 -0.93765,0.0153 -3.11106,1.12777 -4.82981,2.4722 -1.71875,1.34442 -3.96875,2.46942 -5,2.5 -1.03125,0.0306 -3.28125,1.15557 -5,2.5 -1.71875,1.34442 -4.0625,2.45691 -5.20833,2.4722 -1.14584,0.0152 -2.27084,0.47266 -2.5,1.01639 -0.45673,1.08361 -11.99197,9.01141 -13.11196,9.01141 -0.78267,0 -9.5553,6.74059 -13.91993,10.6956 -5.10863,4.62919 -6.77392,13.9549 -7.42255,41.5666 -0.39701,16.9002 -0.11637,27.2936 0.83948,31.0896 0.78972,3.1363 1.19486,5.9433 0.90031,6.2378 -0.46973,0.4698 -6.19577,-8.0126 -10.2706304,-15.2146 -0.77797,-1.375 -2.68762,-4.75 -4.24365,-7.5 -1.55603,-2.75 -3.47233,-5.7896 -4.25845,-6.7546 -0.93628996,-1.1494 -1.42928996,-8.4791 -1.42928996,-21.25 0,-20.5128 -0.27552,-18.94558 8.04216996,-45.7454 1.28025,-4.125 3.0247904,-10.18636 3.8767504,-13.4697 0.85196,-3.28334 2.03435,-6.26966 2.62755,-6.63628 0.59319,-0.36661 1.07853,-1.75837 1.07853,-3.0928 0,-1.33442 0.50142,-2.42622 1.11427,-2.42622 0.61286,0 2.03372,-2.10938 3.15747,-4.6875 4.65302,-10.67498 17.30191,-30.3125 19.52484,-30.3125 0.66188,0 1.20342,-0.62069 1.20342,-1.37931 0,-2.44822 15.75008,-20.3482 22.98167,-26.11869 3.86008,-3.08018 7.01833,-6.0282 7.01833,-6.55116 0,-0.52296 0.5343,-0.95084 1.18733,-0.95084 1.09016,0 12.36875,-7.09189 13.81267,-8.6853 0.34375,-0.37934 1.89062,-1.39283 3.4375,-2.2522 l 5.625,-3.125 c 1.54687,-0.85938 3.67182,-2.23964 4.72211,-3.06725 1.050276,-0.82761 5.550276,-3.39901 9.999996,-5.71423 8.02183,-4.1738 14.616,-7.88778 21.84039,-12.30102 2.0625,-1.25994 5.71875,-3.4461 8.125,-4.85812 2.40625,-1.41204 6.0625,-3.66063 8.125,-4.99688 2.0625,-1.33625 5.93565,-3.71101 8.607,-5.27726 11.39981,-6.68389 19.518,-12.35674 19.518,-13.63885 0,-0.59614 0.63862,-1.08389 1.41916,-1.08389 0.78054,0 2.63126,-1.26563 4.11271,-2.8125 1.48147,-1.54688 6.56625,-6.1875 11.29955,-10.3125 18.1138,-15.78595 22.8045,-20.06356 31.07532,-28.33875 4.69245,-4.69494 8.8068,-8.53625 9.14298,-8.53625 1.3904,0 36.56112,-37.42784 44.84858,-47.72681 2.38912,-2.969 5.18937,-6.28913 6.22279,-7.37805 1.0334,-1.08893 1.87891,-2.6358 1.87891,-3.4375 0,-0.8017 0.49491,-1.45764 1.09981,-1.45764 0.6049,0 3.43879,-3.09794 6.29753,-6.8843 2.85873,-3.78638 7.9145,-9.68824 11.23505,-13.11528 4.18132,-4.31541 6.26382,-7.62658 6.77405,-10.77072 0.7956,-4.90268 3.93737,-9.2297 6.70152,-9.2297 2.79079,0 3.37033,-3.64965 0.99613,-6.27311 -1.79829,-1.98708 -1.91194,-2.77603 -0.62355,-4.32844 1.22848,-1.48024 1.24535,-2.29634 0.0766,-3.70465 -1.7166,-2.06838 -1.30534,-7.56099 0.5679,-7.58448 0.6875,-0.009 4.44945,-2.14951 8.3599,-4.75753 8.68086,-5.7896 12.83375,-13.18098 12.42604,-22.11612 -0.18241,-3.9978 0.34199,-6.34696 1.66125,-7.44185 1.0603,-0.87996 1.92781,-3.04407 1.92781,-4.80913 0,-4.8755 -2.59642,-18.0388 -4.11451,-20.85969 -0.73996,-1.375 -2.09734,-3.98769 -3.01638,-5.80598 -0.91903,-1.81827 -2.50306,-3.99652 -3.52005,-4.84055 -1.01698,-0.84402 -1.86301,-2.16883 -1.88005,-2.94402 -0.017,-0.7752 -1.99126,-4.08133 -4.38715,-7.34695 -3.50231,-4.77371 -5.08413,-5.9375 -8.07018,-5.9375 -2.91917,0 -3.88192,0.66881 -4.49838,3.125 -0.60567,2.41325 -1.59076,3.125 -4.32504,3.125 -1.9474,0 -3.88836,-0.5625 -4.31326,-1.25 -1.00587,-1.62754 -6.875,-1.62754 -6.875,0 0,0.6875 -0.58229,1.25 -1.29396,1.25 -0.71168,0 -6.84544,4.5 -13.63058,10 -6.78513,5.5 -12.90597,10 -13.60187,10 -0.69589,0 -1.45275,0.49001 -1.68193,1.08891 -0.58085,1.51789 -17.15834,13.91109 -18.6079,13.91109 -0.65109,0 -1.1838,0.469 -1.1838,1.04222 0,0.57323 -3.23438,3.23722 -7.1875,5.91997 -3.95313,2.68275 -7.63733,5.58875 -8.18711,6.45777 -0.54979,0.86901 -1.81542,1.58004 -2.8125,1.58004 -0.99709,0 -1.81289,0.52651 -1.81289,1.17002 0,0.6435 -2.25,2.43459 -5,3.98018 -2.75,1.54559 -5,3.26907 -5,3.82997 0,0.5609 -1.46881,1.01983 -3.26403,1.01983 -4.80903,0 -20.58387,-13.17364 -24.69752,-20.625 -1.13864,-2.0625 -2.587,-4.59375 -3.21858,-5.625 -1.38997,-2.26958 -5.5015,-13.34513 -12.52886,-33.75 -0.8287,-2.40625 -2.5155,-8.03125 -3.74844,-12.5 -1.23293,-4.46875 -2.82002,-9.8125 -3.52686,-11.875 -3.7191,-10.85216 -5.66051,-16.91095 -7.40994,-23.125 -3.97285,-14.11173 -5.3498,-18.38609 -9.2616,-28.75 -3.91988,-10.38536 -4.02227,-11.18095 -4.53972,-35.27409 -0.50368,-23.45196 -0.40251,-24.82727 2.08307,-28.31796 1.43687,-2.01789 2.61248,-4.45391 2.61248,-5.41341 0,-0.9595 0.51617,-2.27892 1.14706,-2.93204 2.14046,-2.21592 8.85294,-15.31382 8.85294,-17.27453 0,-1.07251 1.02229,-2.49713 2.27176,-3.16582 1.65968,-0.88823 2.67226,-3.846991 3.75826,-10.981481 0.81758,-5.37112 1.48278,-11.5938 1.47824,-13.82817 -0.006,-3.04568 0.53925,-4.05799 2.17924,-4.04449 2.9792,0.0245 9.0625,11.33051 9.0625,16.8429 0,3.77597 0.37652,4.31975 2.8125,4.06185 4.59887,-0.48689 4.4563,5.36613 -0.24524,10.067671 -3.79205,3.79205 -3.81726,3.90776 -3.81726,17.5199 0,8.72197 0.61645,15.16876 1.69596,17.73616 l 1.69596,4.03351 2.26895,-9.63479 c 1.73748,-7.37792 2.87743,-9.86893 4.86654,-10.63439 1.42868,-0.54979 3.0879,-0.53996 3.68718,0.0219 1.64885,1.54579 -1.12102,32.25496 -3.49218,38.71732 -1.13516,3.09375 -4.85149,8.71875 -8.25852,12.5 -3.93017,4.36185 -5.91345,7.5604 -5.42548,8.75 0.42301,1.03125 1.35228,3.5625 2.06503,5.625 2.8977,8.38509 14.21243,30.26495 20.2971,39.24949 2.04845,3.02472 4.28696,6.37596 4.97446,7.44721 0.6875,1.07125 1.93341,2.69506 2.7687,3.60849 0.83527,0.91342 2.50344,3.32781 3.70701,5.3653 1.20356,2.03747 2.62953,3.70451 3.1688,3.70451 0.53926,0 0.98049,0.75657 0.98049,1.68126 0,0.9247 1.00251,2.58853 2.2278,3.6974 1.22529,1.10886 3.61591,4.84355 5.3125,8.2993 1.69659,3.45574 3.80977,6.29191 4.69599,6.3026 1.93343,0.0234 9.55993,-7.43121 14.68672,-14.35556 2.03609,-2.75 4.26449,-5.67441 4.95199,-6.4987 5.18609,-6.21793 10.89871,-12.60443 16.05314,-17.94679 3.32922,-3.45061 5.79935,-6.95574 5.48915,-7.78917 -4.07349,-10.94487 -4.05529,-10.73513 -1.16452,-13.42829 1.51098,-1.40769 2.74723,-3.97171 2.74723,-5.69783 0,-1.7261 0.93299,-4.93856 2.0733,-7.1388 2.74687,-5.30006 4.28007,-12.34776 3.03644,-13.95766 -1.53225,-1.9835 -2.51699,-6.95501 -1.7655,-8.91332 0.37027,-0.96494 1.96663,-1.75444 3.54747,-1.75444 2.29493,0 2.73731,-0.52361 2.19488,-2.5979 -0.47897,-1.83153 0.4232,-3.60495 3.05818,-6.01164 2.29074,-2.09225 4.08613,-5.2717 4.63799,-8.2134 0.87641,-4.6717 4.76751,-9.30152 7.88796,-9.38547 0.85015,-0.0229 2.41884,-2.13125 3.48599,-4.68528 2.31756,-5.54674 3.698,-6.56194 8.95701,-6.58717 2.1938,-0.01 4.30732,-0.53462 4.69669,-1.16464 0.7926,-1.28245 -0.65509,-37.926491 -1.46631,-37.115271 -0.28401,0.28401 -0.97396,3.24325 -1.53323,6.576081 l -1.01682,6.05969 -0.27163,-5.625 c -0.23036,-4.770401 -0.42367,-5.150221 -1.27242,-2.500001 -0.55044,1.718751 -1.10521,6.218751 -1.23284,10.000001 -0.21319,6.31641 -0.33021,6.57031 -1.44021,3.125 -2.66123,-8.26012 1.53146,-29.246181 8.24556,-41.272281 3.67724,-6.58656 2.70531,-7.30416 -2.10139,-1.55149 -1.87212,2.24057 -3.419,3.31595 -3.4375,2.38973 -0.0512,-2.5657 16.3072,-18.941 18.92145,-18.941 2.78493,0 2.77964,0.10572 0.24829,-4.9685 -3.73184,-7.48063 -3.6585,-13.98889 0.2345,-20.81176 4.44165,-7.78443 7.74353,-11.47147 12.43714,-13.88792 2.0625,-1.06186 4.03125,-2.29822 4.375,-2.7474804 1.2177,-1.59145 14.46052,-7.38013 20.34261,-8.89212005 7.7266,-1.98612995 22.5319,-0.4195 41.53239,4.39479005 14.06811,3.56454 33.98517,12.2366404 35.25519,15.3504904 0.35051,0.85937 1.30526,1.5625 2.12168,1.5625 1.44992,0 8.07842,8.1329 12.73475,15.625 1.28185,2.0625 2.63014,4.03125 2.9962,4.375 3.47088,3.25929 7.44268,12.01826 8.26963,18.23691 1.20275,9.0446 1.0271,10.19524 -2.25415,14.76577 l -2.60435,3.62767 9.24052,8.90371 c 5.08229,4.89704 11.11724,10.29583 13.41099,11.99732 2.29375,1.701491 4.825,3.657111 5.625,4.345821 2.86436,2.46591 11.57409,7.7443 18.32954,11.10833 3.78125,1.88296 7.71875,3.92276 8.75,4.53288 1.03125,0.61012 7.5,3.69192 14.375,6.84845 6.875,3.15654 14.75,6.84186 17.5,8.18961 2.75,1.34777 5.5625,2.46799 6.25,2.48942 0.6875,0.0214 3.5,1.12576 6.25,2.45411 2.75,1.32835 5.55162,2.43426 6.22584,2.45759 0.67421,0.0234 4.04921,1.12856 7.5,2.45608 32.46905,12.49089 54.87913,17.03648 69.30317,14.05724 7.67965,-1.5862 12.18889,-1.89715 11.054,-0.76225 -1.26882,1.26881 -17.68917,4.29134 -23.31342,4.29134 -5.81128,0 -19.1472,-1.92196 -26.33103,-3.7948 -5.80471,-1.5133 -6.2314,-0.61538 -1.14204,2.40332 2.31192,1.37128 4.76598,2.94847 5.45348,3.50485 1.21224,0.98107 14.01934,9.73504 17.9388,12.26163 1.06651,0.6875 2.81032,2.13555 3.87515,3.2179 1.06482,1.08234 4.74855,4.1741 8.18605,6.87056 8.28782,6.5012 35.81852,33.97645 44.76031,44.67018 7.72751,9.24152 9.85239,14.34378 2.73969,6.57851 -2.40625,-2.62701 -4.38053,-5.12755 -4.38728,-5.55676 -0.007,-0.42922 -2.25122,-2.74914 -4.98772,-5.15539 -2.7365,-2.40625 -4.98098,-4.75446 -4.98773,-5.21826 -0.01,-0.69282 -7.16825,-7.94463 -20.11713,-20.38034 -3.68832,-3.54215 -3.9256,-1.92668 -0.33713,2.29517 6.29658,7.40795 7.94199,9.56402 7.94199,10.40679 0,0.45364 0.79797,1.71283 1.77326,2.79821 2.2234,2.47438 13.22674,23.96475 13.22674,25.83287 0,0.7598 0.9539,3.29361 2.11979,5.63067 1.16587,2.33706 2.55453,6.78286 3.08591,9.87955 2.31876,13.51318 4.7943,33.41604 4.7943,38.54533 0,6.14785 -3.84286,24.16903 -7.64151,35.83501 -2.02118,6.20717 -2.32235,6.63812 -1.74722,2.5 1.55882,-11.21578 2.1986,-25.62378 1.13689,-25.60258 -0.61774,0.0125 -2.46274,4.37172 -4.1,9.6875 -1.63726,5.31579 -4.08896,12.19633 -5.44822,15.29008 -3.8317,8.72115 -7.42447,16.56199 -9.20558,20.09021 -4.93064,9.76721 -5.67369,14.59339 -4.19931,27.27545 0.78459,6.74875 1.2202,13.61795 0.96804,15.26489 -0.25217,1.64695 -1.11865,-2.55655 -1.92553,-9.34111 -0.80686,-6.78457 -1.76134,-12.62988 -2.12104,-12.98959 -0.83045,-0.83044 -5.61941,4.85275 -5.67493,6.7346 -0.0229,0.77519 -0.96648,2.17702 -2.0969,3.11519 -1.84033,1.52735 -1.9543,1.37992 -1.0896,-1.40944 0.53112,-1.71336 2.01851,-5.20216 3.3053,-7.7529 2.95636,-5.86026 2.97275,-12.81579 0.0501,-21.25291 -1.25924,-3.63517 -3.56567,-10.82814 -5.1254,-15.98439 -5.0994,-16.85791 -9.9978,-26.26846 -13.66104,-26.24485 -0.43946,0.002 -0.88071,8.86221 -0.98056,19.6875 -0.14297,15.50024 -0.74057,21.8514 -2.8125,29.89061 -1.44702,5.61455 -2.63096,11.67918 -2.63096,13.47694 0,1.79776 -1.0609,6.4853 -2.35755,10.41674 -1.29665,3.93143 -2.77676,9.96056 -3.28913,13.39806 -0.51237,3.4375 -1.18041,5.56317 -1.48455,4.72372 -0.30412,-0.83945 0.30639,-7.02695 1.35669,-13.75 1.0503,-6.72305 2.29725,-20.50183 2.771,-30.61952 0.75878,-16.20474 0.52509,-20.15014 -1.96202,-33.125 -1.55287,-8.10106 -3.02527,-15.8542 -3.27202,-17.2292 -0.30546,-1.7022 -2.35358,-3.1533 -6.41802,-4.54719 -3.28318,-1.12594 -8.2194,-2.90371 -10.9694,-3.9506 -2.75,-1.04687 -5.19846,-1.70844 -5.44103,-1.47012 -0.24257,0.23832 1.06435,3.61542 2.90427,7.50467 1.83991,3.88926 3.00043,7.41623 2.57895,7.83771 -0.42149,0.4215 -1.09089,-0.47471 -1.48755,-1.99156 -0.39673,-1.51685 -1.14992,-2.75791 -1.67383,-2.75791 -0.52391,0 -1.64569,-1.67336 -2.49285,-3.71859 -0.84716,-2.04522 -2.57336,-4.90974 -3.83601,-6.36559 -1.26265,-1.45583 -2.46589,-3.03996 -2.67386,-3.52028 -0.20798,-0.48032 -7.9073,-4.68293 -17.10962,-9.33912 -9.20232,-4.6562 -17.4716,-9.20592 -18.37617,-10.1105 -0.90458,-0.90457 -3.61544,-2.0144 -6.02414,-2.46627 -3.14967,-0.59089 -4.18237,-1.3352 -3.6776,-2.65063 0.47354,-1.23403 -0.121,-1.82902 -1.82771,-1.82902 -1.39126,0 -2.71706,-0.44486 -2.94624,-0.98859 -0.5706,-1.35387 -12.13102,-9.01141 -13.6043,-9.01141 -0.65304,0 -1.18734,-0.42971 -1.18734,-0.95491 0,-0.5252 -2.25,-2.3455 -5,-4.04509 -2.75,-1.69959 -5,-3.51989 -5,-4.04509 0,-0.5252 -0.82396,-0.95491 -1.83103,-0.95491 -1.00706,0 -2.4331,-1.125 -3.16897,-2.5 -0.73588,-1.375 -2.16191,-2.5 -3.16898,-2.5 -1.00706,0 -1.83102,-0.44691 -1.83102,-0.99314 0,-0.54624 -2.81276,-3.13819 -6.2506,-5.75991 -3.43783,-2.62173 -9.43255,-7.79981 -13.32161,-11.50686 -3.88907,-3.70705 -7.43714,-6.74009 -7.88463,-6.74009 -0.44747,0 -2.46837,-2.2367 -4.49087,-4.97045 -2.02252,-2.73375 -4.09917,-4.98375 -4.61479,-5 -1.79583,-0.0566 -0.92033,3.26747 1.5625,5.93249 1.375,1.47588 2.5,3.15896 2.5,3.74016 0,0.9519 7.42195,8.60009 22.08947,22.76279 2.86797,2.76926 5.7609,5.03501 6.42877,5.03501 0.66786,0 1.53838,0.84459 1.93451,1.87685 0.39611,1.03227 2.7063,2.82396 5.13372,3.98152 2.42744,1.15757 4.41353,2.56298 4.41353,3.12314 0,0.56018 0.89565,1.01849 1.99034,1.01849 1.09468,0 3.42055,1.125 5.16857,2.5 1.74803,1.375 3.87725,2.5 4.7316,2.5 0.85436,0 2.28299,0.87912 3.17473,1.9536 1.42801,1.72065 1.18542,1.84449 -2.03445,1.03847 -2.01069,-0.50332 -5.34329,-1.94283 -7.40579,-3.19892 -2.0625,-1.2561 -4.59375,-2.29841 -5.625,-2.31628 -1.03125,-0.0179 -3.28125,-1.13245 -5,-2.47687 -1.71875,-1.34443 -3.85186,-2.45691 -4.74026,-2.4722 -0.88839,-0.0153 -2.29464,-0.62365 -3.125,-1.35193 -1.36507,-1.19722 -4.20653,-3.10318 -11.50974,-7.72035 -1.375,-0.86928 -2.78125,-1.88085 -3.125,-2.24791 -0.34375,-0.36706 -3.4375,-2.86954 -6.875,-5.56105 -3.4375,-2.69151 -6.8125,-5.48495 -7.5,-6.20761 -0.6875,-0.72268 -2.375,-2.1577 -3.75,-3.18895 -2.36958,-1.77719 -2.40219,-1.74955 -0.625,0.52959 1.03125,1.32253 6.33385,6.80118 11.78356,12.17478 5.4497,5.3736 9.56466,10.11408 9.14435,10.53439 -0.42031,0.42031 -2.34792,-0.73394 -4.28356,-2.56499 -4.30996,-4.07708 -9.26128,-7.05647 -7.17244,-4.31592 6.57599,8.62766 13.61915,16.94569 15.04374,17.76676 0.95389,0.54979 1.73435,1.5086 1.73435,2.13069 0,1.47024 6.02446,7.4947 7.4947,7.4947 0.62209,0 1.5809,0.78046 2.13069,1.73435 2.48305,4.30815 20.40285,17.15172 32.56211,23.33809 2.92187,1.48658 5.3125,2.96687 5.3125,3.28953 0,1.2999 -8.32018,-1.34078 -11.10608,-3.52487 -1.63958,-1.2854 -3.66178,-2.3371 -4.49376,-2.3371 -0.83199,0 -2.5308,-1.125 -3.77516,-2.5 -1.24436,-1.375 -2.80035,-2.5 -3.45776,-2.5 -3.10573,0 -28.03453,-23.2856 -36.63875,-34.22369 l -3.81413,-4.8487 0.50976,4.36641 c 1.04289,8.93309 -10.75276,26.76585 -19.78788,29.91552 -2.7602,0.96221 -3.80682,2.287 -4.42965,5.60706 -0.44855,2.39095 -0.32415,5.37861 0.27643,6.63925 1.27369,2.67349 15.85564,15.04415 17.73334,15.04415 0.70141,0 1.4628,0.44486 1.69198,0.98859 0.82066,1.9471 12.4654,9.01141 14.85432,9.01141 1.46159,0 2.46503,-0.87573 2.5065,-2.1875 0.11925,-3.77083 6.91636,-7.95833 14.6134,-9.00284 7.60828,-1.03246 11.56744,0.23788 11.56744,3.71155 0,1.48528 1.12936,1.81215 4.98924,1.44405 4.00838,-0.38226 5.13651,-0.0201 5.73835,1.84198 0.77167,2.3876 1.64782,4.68427 4.16988,10.93066 1.26064,3.12219 1.112,3.982 -1.09436,6.33056 -1.40421,1.49471 -2.55311,4.1681 -2.55311,5.94086 0,1.77277 -0.84375,3.54698 -1.875,3.94272 -1.03125,0.39572 -1.875,1.53502 -1.875,2.53178 0,3.7619 -7.90694,7.01618 -17.04729,7.01618 -7.20247,0 -9.75847,-0.61434 -15.47745,-3.72005 -3.76765,-2.04604 -8.95964,-4.63836 -11.53776,-5.76073 -2.57813,-1.12237 -4.6875,-2.50418 -4.6875,-3.07071 0,-0.56652 -1.26563,-1.43027 -2.8125,-1.91944 -1.54688,-0.48917 -4.19355,-1.7924 -5.8815,-2.89607 -1.68796,-1.10366 -4.83868,-2.61505 -7.00161,-3.35863 l -3.93259,-1.35196 1.71231,5.6896 c 0.94178,3.12928 2.54563,6.15593 3.5641,6.7259 1.01849,0.56998 1.85179,2.11358 1.85179,3.43023 0,1.31665 1.125,2.99598 2.5,3.73186 1.375,0.73587 2.5,2.10174 2.5,3.03524 0,0.93351 0.83746,2.01865 1.86101,2.41142 1.45456,0.55818 1.59108,1.42418 0.625,3.96511 -1.7293,4.54843 -1.83675,4.28484 4.57088,11.21323 5.02257,5.43076 7.87462,9.2793 13.54257,18.27426 0.70155,1.11335 2.3384,3.92585 3.63745,6.25 1.29906,2.32416 2.74938,4.50699 3.22293,4.85074 0.89532,0.64991 1.7966,2.31841 9.11538,16.875 4.86018,9.66659 18.79659,38.76039 21.85513,45.625 1.07211,2.40625 2.66976,5.80395 3.55032,7.55044 0.88058,1.74648 2.42478,5.40273 3.43155,8.125 1.00678,2.72226 3.35194,8.88706 5.21147,13.69956 1.85952,4.8125 3.83586,10.4375 4.39183,12.5 1.9595,7.26905 6.4663,18.68431 9.5976,24.30977 3.58645,6.44314 8.51234,11.31677 21.78687,21.55568 5.07375,3.91349 10.35001,8.21594 11.72501,9.561 6.13532,6.00171 16.875,20.46375 16.875,22.72385 0,0.64035 1.1229,3.006 2.49532,5.25699 1.37244,2.25098 2.49744,4.85145 2.5,5.7788 0.003,0.92735 0.82329,3.4586 1.82382,5.625 2.23438,4.83801 5.34731,13.33141 7.62852,20.81391 0.94321,3.09375 2.59529,8.4375 3.6713,11.875 1.076,3.4375 3.14504,10.1875 4.59785,15 5.49785,18.2119 7.68251,25.1887 9.7854,31.25 4.83494,13.93612 7.52243,22.58926 7.51044,24.18204 -0.008,0.92512 1.03442,3.17512 2.31417,5 1.27977,1.82487 2.7326,5.56796 3.22854,8.31796 0.49594,2.75 1.62879,6.6875 2.51744,8.75 2.41935,5.6151 5.60764,16.5991 6.49652,22.3812 0.4328,2.8153 1.7331,7.3688 2.88954,10.1188 4.89598,11.6425 7.72611,21.9326 6.95554,25.2895 -0.4369,1.9033 -2.07479,5.0361 -3.63976,6.9619 -5.79445,7.1302 -29.32288,6.8367 -36.11198,-0.4505 -1.84399,-1.9793 -2.5235,-4.3358 -2.4564,-8.5186 0.70659,-44.0429 0.52711,-53.6292 -1.05757,-56.4901 -0.9268,-1.67322 -1.73393,-3.32345 -1.7936,-3.6672 -0.0596,-0.34375 -0.55345,-4 -1.09727,-8.125 -0.54381,-4.125 -2.11267,-10.3125 -3.48636,-13.75 -10.07025,-25.19981 -12.96164,-31.88385 -21.29174,-49.22021 -4.08837,-8.50863 -9.35633,-18.20598 -11.70657,-21.54969 -2.35023,-3.3437 -4.27315,-6.61978 -4.27315,-7.28016 0,-0.6604 -0.71103,-1.65054 -1.58004,-2.20033 -0.86902,-0.54979 -3.77502,-4.23399 -6.45777,-8.18711 -2.68275,-3.95313 -5.34674,-7.1875 -5.91997,-7.1875 -0.57322,0 -1.04222,-0.71874 -1.04222,-1.5972 0,-0.87846 -0.98438,-2.49801 -2.1875,-3.599 -1.20313,-1.101 -3.59375,-3.87717 -5.3125,-6.16928 -4.93729,-6.58432 -12.61135,-13.63472 -14.83823,-13.63233 -1.98118,0.002 -17.66177,-15.65561 -17.66177,-17.63604 0,-0.54495 -1.82813,-3.60778 -4.0625,-6.80628 -2.23438,-3.1985 -4.625,-6.69296 -5.3125,-7.76547 -1.26164,-1.96817 -1.95725,-2.8657 -7.4942,-9.6694 -3.4904,-4.28895 -3.84181,-3.11914 -1.95288,6.50097 0.64785,3.29947 1.45844,9.37403 1.80129,13.49903 0.34286,4.125 1.46669,14.53125 2.4974,23.125 1.72431,14.37684 3.89839,56.90031 3.89839,76.25 0,19.52975 -2.11525,70.0824 -3.24279,77.5 -0.6793,4.4687 -1.49172,9.8125 -1.8054,11.875 l -0.57032,3.75 -12.22113,-0.4208 c -9.61752,-0.3312 -13.81247,0.102 -19.69075,2.0331 -4.10829,1.3497 -8.87586,2.7927 -10.59461,3.2067 -6.22989,1.5006 -9.75908,5.9376 -12.07491,15.181 -1.20573,4.8125 -3.20087,10.2431 -4.43365,12.068 -1.23279,1.8248 -2.25395,4.0748 -2.26924,5 -0.0153,0.9251 -1.12778,3.0883 -2.4722,4.807 -1.34443,1.7188 -2.45691,3.5187 -2.4722,3.9998 -0.05,1.574 -7.28533,11.6698 -12.14629,16.9485 -4.638,5.0365 -13.23616,11.5517 -15.24497,11.5517 -0.55135,0 -2.87908,0.9362 -5.17275,2.0804 -2.29368,1.1443 -6.86443,2.3393 -10.15723,2.6557 -4.32245,0.4153 -6.18382,1.1957 -6.69515,2.8067 -1.4681,4.6256 -4.29829,5.4329 -21.74035,6.2019 -15.22587,0.6712 -17.64331,1.0861 -21.45279,3.6825 -6.08493,4.1472 -14.25828,13.0323 -16.67692,18.1292 -1.13204,2.3856 -2.52698,4.6271 -3.09986,4.9812 -2.54063,1.5701 -17.62214,35.1469 -17.65968,39.3166 -0.01,1.1114 -0.90144,4.5521 -1.98095,7.6458 -1.07952,3.0938 -2.38162,9 -2.89357,13.125 -0.70548,5.6844 -1.12183,6.7435 -1.71989,4.375 l 0,0 z m 354.1126,-575.93796 c 0,-1.89089 0.82184,-7.36597 1.82631,-12.16684 1.00448,-4.80088 2.2057,-14.72445 2.66939,-22.0524 0.79012,-12.48676 0.68671,-13.40721 -1.64663,-14.65598 -2.38821,-1.27813 -2.55443,-0.7104 -4.07813,13.92787 -0.87364,8.39317 -2.02805,16.42722 -2.56535,17.85346 -1.10159,2.92409 1.31771,20.53185 2.82107,20.53185 0.53534,0 0.97334,-1.54709 0.97334,-3.43796 z m -5.01914,-29.37454 c -0.0215,-3.15744 -1.97187,-6.86315 -3.04657,-5.78845 -1.0374,1.03739 0.69672,8.60095 1.97196,8.60095 0.60156,0 1.08514,-1.26563 1.07461,-2.8125 z m -1.56275,-8.75 c -0.32965,-0.85938 -1.3231,-4.79688 -2.20765,-8.75 -1.38282,-6.1799 -2.0081,-7.1875 -4.46025,-7.1875 -2.7126,0 -2.76434,0.16796 -1.05879,3.4375 0.98625,1.89062 1.79664,4.39541 1.80088,5.56619 0.0127,3.50765 2.78235,8.49631 4.71707,8.49631 0.99445,0 1.53839,-0.70313 1.20874,-1.5625 l 0,0 z m -18.43725,-6.875 c -0.01,-0.51563 -0.56441,-1.78125 -1.23086,-2.8125 -0.97984,-1.5162 -1.21538,-1.3368 -1.23086,0.9375 -0.01,1.54687 0.54336,2.8125 1.23086,2.8125 0.6875,0 1.24139,-0.42188 1.23086,-0.9375 z m 50.01914,-5.3125 c 0,-2.0625 -0.5625,-3.75 -1.25,-3.75 -0.6875,0 -1.25,1.6875 -1.25,3.75 0,2.0625 0.5625,3.75 1.25,3.75 0.6875,0 1.25,-1.6875 1.25,-3.75 z m -67.91798,-3.03624 c -0.37698,-0.98242 -1.06227,-3.79492 -1.52285,-6.25 -0.5676,-3.02556 -1.51752,-4.46376 -2.94828,-4.46376 -1.16099,0 -2.78589,-0.675 -3.61089,-1.5 -1.16666,-1.16666 -1.52266,-0.81945 -1.60196,1.5625 -0.0942,2.82864 -0.23764,2.75227 -1.87859,-1 -0.97714,-2.23438 -2.5629,-4.0625 -3.52391,-4.0625 -0.96102,0 -4.73257,-1.38309 -8.38122,-3.07354 -3.64865,-1.69045 -6.8008,-2.90666 -7.00476,-2.7027 -1.01186,1.01188 2.57038,8.11836 4.40656,8.74181 2.25205,0.76465 7.80865,3.90783 13.49502,7.63368 2.32816,1.52547 3.64346,1.81194 3.95997,0.86242 0.26065,-0.78195 1.88628,0.25679 3.61251,2.3083 3.27622,3.89357 6.17992,5.02277 4.9984,1.94379 l 0,0 z m 44.89288,-15.51595 c -1.13294,-6.64005 -3.16588,-15.44781 -4.51765,-19.57281 -1.35178,-4.125 -2.47955,-8.34375 -2.50618,-9.375 -0.0266,-1.03125 -1.98523,-4.96875 -4.3525,-8.75 -2.36725,-3.78125 -4.89233,-8.21864 -5.6113,-9.86086 -0.71897,-1.64223 -1.6892,-2.60388 -2.15606,-2.13702 -0.46686,0.46687 0.33429,3.21675 1.78033,6.11087 1.44605,2.8941 3.94722,8.35576 5.55818,12.13701 1.61097,3.78125 3.49743,7.28826 4.19215,7.79336 0.81472,0.59234 0.75498,0.92515 -0.1683,0.9375 -0.98498,0.0131 -0.73795,2.26076 0.79212,7.20664 1.22293,3.95312 2.6292,11.83319 3.12502,17.51125 0.6644,7.60877 1.44229,10.62909 2.95789,11.48479 3.07245,1.73467 3.19419,-0.0768 0.9063,-13.48573 l 0,0 z m -14.88895,5.11469 c -0.99296,-1.89063 -5.0367,-10.04688 -8.98608,-18.125 -7.63132,-15.60921 -11.587,-19.33885 -9.94316,-9.375 0.48205,2.92187 1.73681,7 2.78836,9.0625 1.05154,2.0625 2.39408,4.73437 2.98342,5.9375 0.58933,1.20312 1.56838,3.17187 2.17567,4.375 0.60729,1.20312 1.83265,3.7443 2.72303,5.64705 0.9792,2.09259 3.13595,3.90021 5.45833,4.57476 2.11172,0.61338 4.0119,1.16595 4.22265,1.22795 0.21074,0.062 -0.42926,-1.43414 -1.42222,-3.32476 z m -68.25641,-11.25 c -2.76908,-4.81348 -6.06582,-7.69221 -13.82954,-12.07608 -9.40559,-5.31096 -10.56793,-6.0128 -20.36855,-12.29892 -4.01953,-2.57813 -7.78409,-4.6875 -8.36568,-4.6875 -0.58158,0 -1.30856,-0.70313 -1.61547,-1.5625 -0.30693,-0.85938 -0.94185,-1.20883 -1.41095,-0.77655 -0.76464,0.7046 6.95564,7.39872 14.2305,12.33905 1.51856,1.03125 6.07521,4.26562 10.12589,7.1875 4.05067,2.92187 7.93622,5.3125 8.63456,5.3125 0.69834,0 1.2697,0.47707 1.2697,1.06016 0,0.58308 2.25,2.07476 5,3.31484 2.75,1.24007 5,2.73176 5,3.31484 0,0.58308 0.58229,1.06016 1.29397,1.06016 0.87843,0 0.88985,-0.7025 0.0355,-2.1875 l 7e-5,0 z m 31.17046,-4.65406 c 0,-0.58115 -2.72835,-6.86615 -7.95673,-18.32902 -2.3305,-5.10947 -3.27381,-5.93982 -7.96836,-7.01408 -2.9287,-0.67018 -5.32491,-1.06763 -5.32491,-0.8832 0,0.18441 2.4775,5.26996 5.50554,11.3012 4.27188,8.50871 6.44262,11.44543 9.6875,13.10597 4.47353,2.2893 6.05696,2.76486 6.05696,1.81913 l 0,0 z M 580.9599,262.45981 c -0.72745,-1.89961 -3.1139,-5.76768 -7.90479,-12.8125 -0.70131,-1.03125 -1.68666,-2.54268 -2.18966,-3.35873 -1.0761,-1.74581 -12.06797,-6.64127 -14.91175,-6.64127 -1.74903,0 -1.73764,0.25135 0.10362,2.28592 1.13781,1.25727 2.06874,2.67558 2.06874,3.1518 0,2.48588 7.18665,11.1954 10.52675,12.75742 2.11654,0.9898 5.53575,2.88471 7.59825,4.2109 4.75196,3.0555 5.75649,3.14221 4.70884,0.40646 l 0,0 z m 38.41616,-10.86373 c 0,-0.30317 -0.5625,-0.89887 -1.25,-1.32377 -0.6875,-0.4249 -1.25,-0.17685 -1.25,0.55122 0,0.72808 0.5625,1.32378 1.25,1.32378 0.6875,0 1.25,-0.24805 1.25,-0.55123 z m -11.80178,-8.84132 c -1.07152,-2.56451 -1.95577,-5.57844 -1.96498,-6.6976 -0.0189,-2.29545 -3.39973,-6.86615 -10.29574,-13.91941 -2.57813,-2.63692 -4.6875,-5.34082 -4.6875,-6.00868 0,-0.66786 -0.85039,-1.54061 -1.88974,-1.93945 -1.87919,-0.72111 -1.1061,1.14111 3.76474,9.06858 0.6875,1.11892 3.62397,6.3324 6.52551,11.58548 5.16863,9.35757 8.85219,14.21759 9.94653,13.12325 0.30217,-0.30217 -0.32729,-2.64765 -1.39882,-5.21217 l 0,0 z m -73.88347,-9.97435 c -2.6823,-3.27339 -8.32369,-7.72358 -13.52119,-10.66616 -12.18201,-6.89687 -13.78511,-7.90565 -14.7881,-9.30574 -0.47824,-0.66759 -1.20691,-0.87641 -1.61929,-0.46405 -0.41236,0.41236 2.22894,3.05675 5.86954,5.87642 3.64061,2.81967 7.51023,5.98162 8.59915,7.02655 1.08893,1.04493 2.6358,1.89988 3.4375,1.89988 0.8017,0 1.45764,0.42971 1.45764,0.95491 0,0.5252 2.25,2.3455 5,4.04509 2.75,1.69959 5,3.47864 5,3.95342 0,0.4748 0.98437,1.12052 2.1875,1.43492 1.20312,0.31441 2.36579,0.63691 2.58369,0.71666 0.2179,0.0797 -1.675,-2.3826 -4.20644,-5.4719 l 0,0 z m 46.17437,3.83855 c -0.37533,-0.9781 -1.48267,-2.08544 -2.46077,-2.46078 -0.97809,-0.37532 -1.77835,-1.19613 -1.77835,-1.82402 0,-0.62789 -2.52525,-3.87993 -5.61166,-7.22674 -3.08643,-3.34681 -5.61768,-5.6395 -5.625,-5.09485 -0.007,0.54464 0.55708,1.66964 1.25426,2.5 2.66209,3.17059 7.4824,11.04975 7.4824,12.23053 0,0.67912 1.26562,1.74348 2.8125,2.36526 4.00761,1.61086 4.69947,1.52462 3.92662,-0.4894 z M 555.8277,224.95981 c -3.23298,-4.50188 -30.56169,-30.3125 -32.09538,-30.3125 -0.30555,0 -3.49695,-2.22626 -7.09199,-4.94725 -3.59505,-2.72099 -6.74708,-4.73661 -7.00452,-4.47916 -0.25745,0.25743 2.81316,3.79906 6.82359,7.87027 9.60788,9.75353 17.12255,18.07881 20.6661,22.8954 1.67548,2.27741 6.52542,5.68273 11.62121,8.15968 4.81011,2.33808 8.92654,4.25106 9.14762,4.25106 0.22108,0 -0.70891,-1.54688 -2.06663,-3.4375 z m -69.24173,-41.5625 c -0.8587,-1.375 -1.951,-2.5 -2.42731,-2.5 -0.47633,0 -3.42596,-2.6338 -6.55476,-5.85289 -3.1288,-3.21909 -6.04574,-5.49587 -6.48209,-5.05952 -0.93051,0.9305 1.06717,3.03577 9.89772,10.43078 7.44355,6.23349 7.67452,6.3572 5.56644,2.98163 z M 302.57272,161.52616 c 5.29919,-2.66911 10.50355,-4.37265 13.36584,-4.375 4.46005,-0.004 4.68615,-0.20098 4.6597,-4.06635 -0.0152,-2.23438 -1.12778,-5.46875 -2.4722,-7.1875 -1.34443,-1.71875 -2.45691,-3.82813 -2.4722,-4.6875 -0.053,-2.97628 -3.16151,-1.48804 -5.0966,2.44002 -1.25816,2.55399 -3.45691,4.45522 -6.23361,5.39013 -3.20378,1.0787 -4.57879,2.45191 -5.4312,5.4241 -0.75069,2.61749 -2.14687,4.2321 -4.07888,4.717 -2.05899,0.51677 -2.93751,1.63134 -2.93751,3.72676 0,1.64421 0.45412,2.98949 1.00916,2.98949 0.55505,0 4.91443,-1.96701 9.6875,-4.37115 l 0,0 z m 23.05334,-5.4726 c 0,-1.28906 0.29626,-4.24219 0.65835,-6.5625 0.48972,-3.1382 0.37119,-3.57843 -0.46284,-1.71875 -2.09764,4.67727 -2.96241,10.625 -1.54484,10.625 0.74214,0 1.34933,-1.05469 1.34933,-2.34375 z m -0.0951,-19.21875 c 0.0522,-1.89063 -0.39916,-3.4375 -1.00325,-3.4375 -2.12567,0 -4.1544,7.25502 -3.21013,11.47994 l 0.92642,4.14506 1.59594,-4.375 c 0.87776,-2.40625 1.63872,-5.92188 1.69102,-7.8125 z m -2.44266,-17.09632 c 1.20078,-2.89894 1.18108,-4.58374 -0.0949,-8.11236 -2.07312,-5.7331 -3.57262,-3.56246 -3.5982,5.20868 -0.0214,7.31257 1.403,8.43245 3.6931,2.90368 l -3e-5,0 z"
     id="path2987"
     inkscape:connector-curvature="0" />
</svg>
