<?xml version="1.0" encoding="UTF-8" standalone="no"?>
<!-- Created with Inkscape (http://www.inkscape.org/) -->

<svg
   xmlns:dc="http://purl.org/dc/elements/1.1/"
   xmlns:cc="http://creativecommons.org/ns#"
   xmlns:rdf="http://www.w3.org/1999/02/22-rdf-syntax-ns#"
   xmlns:svg="http://www.w3.org/2000/svg"
   xmlns="http://www.w3.org/2000/svg"
   xmlns:sodipodi="http://sodipodi.sourceforge.net/DTD/sodipodi-0.dtd"
   xmlns:inkscape="http://www.inkscape.org/namespaces/inkscape"
   id="svg2"
   version="1.1"
   inkscape:version="0.48.4 r9939"
   width="709.90033"
   height="631.20312"
   sodipodi:docname="ntori.bmp">
  <metadata
     id="metadata8">
    <rdf:RDF>
      <cc:Work
         rdf:about="">
        <dc:format>image/svg+xml</dc:format>
        <dc:type
           rdf:resource="http://purl.org/dc/dcmitype/StillImage" />
        <dc:title></dc:title>
      </cc:Work>
    </rdf:RDF>
  </metadata>
  <defs
     id="defs6" />
  <sodipodi:namedview
     pagecolor="#ffffff"
     bordercolor="#666666"
     borderopacity="1"
     objecttolerance="10"
     gridtolerance="10"
     guidetolerance="10"
     inkscape:pageopacity="0"
     inkscape:pageshadow="2"
     inkscape:window-width="956"
     inkscape:window-height="1041"
     id="namedview4"
     showgrid="false"
     fit-margin-top="0"
     fit-margin-left="0"
     fit-margin-right="0"
     fit-margin-bottom="0"
     inkscape:zoom="0.83333333"
     inkscape:cx="301.2"
     inkscape:cy="359.7596"
     inkscape:window-x="1860"
     inkscape:window-y="18"
     inkscape:window-maximized="0"
     inkscape:current-layer="svg2" />
  <path
     style="fill:#ff0000"
     d="m 380.4,630.63012 c 0,-0.31537 1.30067,-3.42037 2.89037,-6.9 3.92919,-8.60045 9.10963,-22.79017 9.10963,-24.9522 0,-0.97141 1.28892,-5.81804 2.86428,-10.77029 1.57535,-4.95225 3.51658,-12.24409 4.31383,-16.20409 0.79726,-3.96 2.16715,-9.36 3.0442,-12 0.87705,-2.64 1.96407,-6.69 2.41561,-9 0.45154,-2.31 1.84272,-5.88374 3.09152,-7.94164 1.24881,-2.0579 2.27056,-4.57102 2.27056,-5.58472 0,-1.75212 5.43356,-12.05699 10.11641,-19.18599 1.76018,-2.67962 2.15928,-5.64974 2.08933,-15.5489 -0.0475,-6.73012 0.39089,-12.81173 0.97429,-13.51469 0.58342,-0.70297 0.80292,-4.77596 0.48779,-9.0511 -0.31513,-4.27513 -0.87289,-17.7514 -1.23948,-29.94728 l -0.6665,-22.17431 -4.2163,-3.62569 c -2.31895,-1.99412 -9.58974,-8.96681 -16.1573,-15.49487 l -11.94104,-11.86919 -3.475,2.56919 c -1.91127,1.41306 -3.93506,2.56919 -4.49734,2.56919 -0.56227,0 -2.13622,1.03776 -3.49766,2.30614 -1.36145,1.26837 -6.0628,3.20583 -10.44746,4.30546 -6.68895,1.67753 -8.98269,1.76861 -14.25092,0.5659 -6.43666,-1.46947 -7.08049,-1.71085 -13.77882,-5.16587 -14.38602,-7.42034 -12.91769,-6.69589 -22.5,-11.10116 -3.96,-1.82053 -8.82,-4.12539 -10.8,-5.12189 -1.98,-0.99652 -4.41,-2.18309 -5.4,-2.63684 -0.99,-0.45375 -4.77,-2.18594 -8.4,-3.84929 -3.63,-1.66336 -8.14459,-3.38212 -10.03242,-3.81947 -1.88783,-0.43735 -5.66783,-1.75936 -8.4,-2.9378 -4.18002,-1.80293 -16.44187,-5.36357 -28.23872,-8.20005 -4.39775,-1.05741 -9.65265,-7.51742 -9.69369,-11.91674 -0.0431,-4.62348 -1.53702,-5.27153 -10.112,-4.38652 -3.76945,0.38904 -7.3414,0.16654 -8.20072,-0.51084 -0.83735,-0.66006 -3.09984,-1.57803 -5.02775,-2.03995 -1.9279,-0.46192 -4.83573,-1.88638 -6.46183,-3.16547 -1.62609,-1.27909 -3.55871,-2.34529 -4.2947,-2.36934 -0.736,-0.024 -2.80349,-1.97576 -4.59443,-4.33712 l -3.25627,-4.2934 2.95627,-5.55332 c 1.62594,-3.05434 2.95626,-6.33282 2.95626,-7.28554 0,-0.95271 1.20085,-3.01045 2.66856,-4.57275 2.95664,-3.14721 2.07504,-4.47166 -3.86856,-5.81177 -3.30234,-0.74458 -7.46221,-2.25553 -19.2,-6.97385 -4.29,-1.72448 -8.46932,-3.13386 -9.28738,-3.13196 -0.81805,0.002 -4.86805,-1.26711 -9,-2.81999 -15.96496,-6.00004 -45.52854,-14.58385 -53.57772,-15.55636 -7.22051,-0.87237 -9.35562,-3.14177 -7.39932,-7.86468 1.28686,-3.10675 1.18758,-4.02024 -0.72174,-6.64117 -1.21761,-1.67142 -3.09272,-3.05591 -4.16691,-3.07666 -1.07418,-0.0208 -2.65806,-0.88717 -3.51972,-1.92541 -0.86166,-1.03824 -3.67415,-3.06324 -6.24997,-4.5 -2.57582,-1.43676 -6.12194,-3.42446 -7.88027,-4.4171 -6.76735,-3.82044 -12.24097,-8.83829 -17.59282,-16.12793 -3.87994,-5.28476 -7.07737,-8.24556 -10.58203,-9.79888 -2.76216,-1.22422 -5.73569,-2.91044 -6.60783,-3.74713 -1.07336,-1.02972 -5.62923,-1.52125 -14.1,-1.52125 -6.88286,0 -12.50276,-0.405 -12.48867,-0.9 0.0644,-2.26145 9.60981,-7.5 13.66611,-7.5 2.88027,0 4.30827,-0.55346 4.30827,-1.6698 0,-1.6882 -13.71998,-5.47228 -20.2472,-5.58432 -1.73404,-0.0298 -4.76593,-0.74192 -6.73753,-1.58256 l -3.58474,-1.52842 5.7458,-3.36727 c 5.93564,-3.47851 5.92387,-3.47781 18.67655,-1.10459 2.91193,0.54191 3.91561,0.34242 3.56527,-0.70858 C 31.5169,195.95425 19.54539,192.00472 13.84606,191.99684 7.9598,191.98884 0,189.90648 0,188.3748 c 0,-0.61376 1.46218,-2.07338 3.24928,-3.2436 4.11356,-2.69359 20.55889,-2.97665 23.65496,-0.40712 1.38556,1.1499 2.3806,1.27462 3.2481,0.40712 1.48531,-1.48531 -5.0208,-5.12766 -9.15925,-5.12766 -2.85302,0 -10.33324,-4.5614 -11.04581,-6.73568 -0.24075,-0.73463 1.21583,-2.02061 3.23685,-2.85774 4.41186,-1.82746 14.97888,-0.015 24.61587,4.22224 10.866,4.77756 12.67535,5.37118 16.37131,5.37118 4.90058,0 9.16857,2.73343 14.22312,9.10919 2.30693,2.90995 4.56372,5.29081 5.01507,5.29081 0.99736,0 26.76561,25.53708 28.18356,27.93073 0.55382,0.9349 2.97009,3.40458 5.3695,5.48819 4.33072,3.7607 4.3829,3.7719 7.14734,1.53338 2.72408,-2.20581 2.89926,-2.2059 8.03692,-0.004 2.88869,1.23824 6.07078,2.25134 7.07132,2.25134 1.00053,0 3.52076,0.73411 5.6005,1.63136 8.22752,3.54954 10.57517,4.36892 12.53782,4.37603 1.12394,0.004 3.39354,0.69656 5.04354,1.53889 1.65,0.84233 5.43,2.25486 8.4,3.13896 17.24327,5.13294 25.68671,7.66307 34.8,10.42805 5.61,1.70208 14.52,4.35961 19.8,5.90562 5.28,1.54602 12.59053,3.70802 16.24562,4.80445 7.1325,2.13956 15.71298,2.04338 32.95438,-0.36942 5.28,-0.7389 15,-1.98785 21.6,-2.77544 13.83647,-1.65114 20.72384,-3.75022 23.00878,-7.01242 2.56563,-3.66295 12.31731,-5.03549 26.19122,-3.68638 6.6,0.64179 20.70932,1.77438 31.35406,2.51688 17.66372,1.23209 19.62882,1.16997 22.5,-0.71131 1.73026,-1.13371 3.14594,-2.82819 3.14594,-3.7655 0,-0.93732 0.89676,-3.07284 1.99279,-4.74559 1.86299,-2.8433 1.85374,-3.48538 -0.14209,-9.85779 -2.5777,-8.23029 -7.5201,-17.01643 -9.57211,-17.01643 -0.82134,0 -2.21175,1.485 -3.08979,3.3 -1.20642,2.49379 -1.70901,2.81663 -2.05723,1.32143 -0.68778,-2.95329 -7.76389,-3.85795 -13.01491,-1.66395 -2.42537,1.01339 -4.90201,1.84252 -5.50366,1.84252 -1.72383,0 -7.97466,-6.85177 -10.14552,-11.12092 -1.08488,-2.13349 -2.98388,-4.84512 -4.22,-6.02583 -1.23611,-1.18071 -2.24748,-3.11158 -2.24748,-4.29082 0,-1.17924 -1.35,-3.41233 -3,-4.96243 -1.65,-1.5501 -3,-4.11576 -3,-5.70149 0,-2.76527 -3.78985,-7.17992 -9.52775,-11.09851 -2.70504,-1.84735 -2.46079,-5.97721 0.35614,-6.02164 1.57491,-0.0248 9.17161,-8.81475 9.17161,-10.61221 0,-1.97293 -8.09803,-9.93323 -9.81066,-9.6438 -2.23189,0.3772 -8.18934,-1.40485 -8.18934,-2.44967 0,-0.47692 -1.35,-1.58962 -3,-2.47268 -1.65,-0.88306 -3,-2.11135 -3,-2.72954 0,-0.61821 -1.35,-2.72838 -3,-4.6893 -1.65,-1.96091 -3,-4.63068 -3,-5.93283 0,-1.30213 -0.77803,-3.87206 -1.72896,-5.71094 -1.39468,-2.69703 -1.49538,-5.02891 -0.52085,-12.06127 0.66445,-4.7948 0.82855,-9.06844 0.36467,-9.49697 -0.46388,-0.42853 -1.0845,-0.10415 -1.37915,0.72085 -0.29463,0.825 -1.03071,1.5 -1.63571,1.5 -1.8407,0 -1.23543,-3.98284 1.33373,-8.776348 l 2.43372,-4.54081 -3.76064,-3.4145 c -6.2556,-5.67978 -8.26432,-7.26785 -9.20681,-7.27875 -2.04031,-0.0236 -9.75972,-8.55886 -9.15828,-10.12621 0.82771,-2.15698 1.9348,-2.56223 18.45828,-6.75679 7.59,-1.92675 15.825,-4.06563 18.3,-4.75306 l 4.5,-1.24987 0,-8.91052 c 0,-7.94957 0.45877,-9.74515 4.25399,-16.6497 2.33969,-4.25655 5.03969,-8.39126 6,-9.18824 0.9603,-0.79699 1.74601,-1.86742 1.74601,-2.37874 0,-1.42517 6.38153,-8.37646 7.68988,-8.37646 0.63549,0 2.27024,-1.00357 3.63278,-2.23015 C 356.27888,7.4709489 379.84367,-0.00621412 391.86853,3.8755885e-6 407.67188,0.00820388 436.33558,7.8522749 453.98803,16.999612 c 1.20342,0.6236 4.26507,2.21643 6.80367,3.53962 5.8586,3.05368 22.46668,19.49457 26.4083,26.14246 1.65,2.78287 4.47517,7.32365 6.27816,10.09061 1.80299,2.76696 3.28799,5.90989 3.3,6.98429 0.0756,6.76636 6.81346,14.25486 15.98018,17.76059 1.45292,0.55566 7.23166,3.16161 12.84166,5.79102 22.53794,10.56352 26.46726,12.29496 27.9032,12.29547 2.9375,10e-4 19.44291,5.849498 16.71791,5.923748 -3.75277,0.10226 -7.42111,2.18953 -7.42111,4.22259 0,1.97632 6.13319,3.55345 9.57304,2.46169 1.8893,-0.59964 2.42696,-0.23318 2.42696,1.65417 0,1.77943 1.19724,2.75695 4.5,3.67417 2.475,0.68734 5.31,1.25995 6.3,1.27246 3.0518,0.0385 -17.67974,6.87011 -23.49496,7.74216 -8.3336,1.24969 -13.33779,7.71496 -6.13422,7.92522 2.28574,0.0667 2.15894,0.29761 -0.97082,1.76761 -1.98,0.92997 -5.895,2.26625 -8.7,2.96951 -4.88606,1.22501 -7.0588,3.58614 -3.3,3.58614 0.99,0 1.8,0.82158 1.8,1.82573 0,1.00415 1.34578,2.4389 2.99062,3.18834 3.72944,1.69925 2.2028,4.06488 -3.37354,5.22749 -2.09939,0.4377 -6.42512,1.62864 -9.61273,2.64654 -4.56417,1.45747 -5.67583,2.30893 -5.23175,4.00711 0.56398,2.15665 -4.1295,5.19152 -10.77905,6.96989 -4.34901,1.16311 -3.4178,3.02306 2.21823,4.4306 3.61695,0.90329 5.29546,1.99356 5.54233,3.6 0.25124,1.63483 2.86598,3.26776 9,5.62051 4.75524,1.82392 9.72589,3.37629 11.04589,3.44971 1.32,0.0734 -0.55369,0.5616 -4.16377,1.08484 -3.98554,0.57766 -7.43971,0.48256 -8.79377,-0.24211 -2.56591,-1.37323 -6.15299,-0.40552 -5.05889,1.36477 0.40463,0.65471 3.27387,2.46859 6.37606,4.03085 3.1022,1.56225 7.89711,3.99451 10.65536,5.40503 2.75824,1.41051 5.32925,3.55473 5.71336,4.76493 0.38409,1.21021 3.52735,4.58566 6.98501,7.501 3.45765,2.91534 7.63664,6.66573 9.28664,8.33421 4.01956,4.06457 9.0533,7.19056 11.57891,7.19056 4.44929,0 12.76866,5.38679 21.68477,14.04088 5.13498,4.98406 10.68632,9.92524 12.33632,10.9804 7.12643,4.55726 23.23914,18.98457 26.5072,23.73452 3.03628,4.4131 5.54176,6.74187 13.69172,12.72612 0.6606,0.48504 2.89903,2.24004 4.97431,3.9 2.07527,1.65994 4.07573,3.01808 4.44545,3.01808 0.36973,0 1.94003,1.215 3.48955,2.7 1.54953,1.485 5.21907,4.9245 8.15454,7.64333 8.72466,8.08074 20.33723,20.52011 20.33723,21.78518 0,0.64769 0.68506,1.74617 1.52234,2.44105 3.05409,2.53468 10.29465,19.06661 12.27687,28.03106 3.04227,13.75849 0.66745,30.8097 -6.26399,44.97553 -3.92051,8.01235 -5.23111,9.88568 -10.23522,14.62976 -1.815,1.72069 -3.3,3.52967 -3.3,4.01994 0,1.22032 -6.88423,8.17415 -8.09233,8.17415 -0.53527,0 -2.40179,1.485 -4.1478,3.3 -4.69131,4.87666 -7.03554,6.76112 -12.35987,9.93576 -2.64,1.57411 -4.98,3.29002 -5.2,3.81313 -0.22,0.52311 -1.17573,0.95111 -2.12385,0.95111 -0.94811,0 -3.86238,1.35 -6.47615,3 -2.61377,1.65 -5.20198,3 -5.75156,3 -0.5496,0 -3.79769,1.35 -7.21797,3 -3.42029,1.65 -6.89635,3.0081 -7.72459,3.01801 -0.82823,0.01 -5.82588,1.35983 -11.10588,2.99983 -5.28,1.64001 -11.29555,2.98191 -13.3679,2.98199 -2.07236,10e-5 -8.82236,1.02586 -15,2.27946 -6.17765,1.25362 -15.6871,2.65981 -21.1321,3.1249 -9.07877,0.77546 -9.89683,1.05921 -9.86184,3.42071 0.021,1.41631 0.831,3.62331 1.8,4.90446 0.96901,1.28114 1.76184,3.75489 1.76184,5.49722 0,2.15092 0.96307,3.68329 3,4.77342 1.65,0.88306 3,2.0543 3,2.60278 0,0.54847 0.5936,0.99722 1.31912,0.99722 1.69976,0 15.03728,8.21958 16.81679,10.36375 0.74687,0.89994 2.37184,1.63625 3.61102,1.63625 1.23919,0 2.25307,0.46824 2.25307,1.04053 0,0.57231 2.07955,2.41673 4.62122,4.09872 9.86853,6.53069 23.75626,21.75341 30.18125,33.08248 0.99136,1.74805 2.88136,4.80059 4.2,6.78342 3.74849,5.63658 5.11687,7.91707 8.99753,14.99485 4.29853,7.83995 5.71056,10.15154 9.29699,15.21994 1.48665,2.10096 2.70301,4.63408 2.70301,5.62917 0,0.99509 0.55027,2.14933 1.22282,2.56499 0.67254,0.41566 2.69754,3.46555 4.5,6.77753 5.54266,10.18458 7.00688,12.71609 9.38399,16.22417 1.26126,1.8613 2.56636,3.9242 2.90023,4.5842 2.43516,4.81379 8.82147,15.12319 9.70749,15.67079 0.59701,0.36896 1.08547,1.17899 1.08547,1.80003 0,0.69958 -57.29693,1.12918 -150.6,1.12918 -82.83,0 -150.6,-0.25804 -150.6,-0.57342 z M 355.85706,336.90354 c 0.45032,-1.485 1.80074,-3.78 3.00092,-5.1 1.20018,-1.32 2.77191,-3.75 3.49272,-5.4 0.72081,-1.65 2.65908,-4.8531 4.30726,-7.11802 1.64819,-2.2649 2.80009,-4.6949 2.5598,-5.4 -0.69602,-2.04234 -28.62559,-1.38492 -41.61776,0.97962 -6.27,1.14112 -17.01228,2.39982 -23.87173,2.79711 -10.82458,0.62695 -12.18102,0.93492 -10.27065,2.33181 1.2106,0.88522 3.04288,1.6128 4.07174,1.61687 1.02885,0.004 3.41924,0.81504 5.31198,1.80216 1.89272,0.98712 4.69218,2.02159 6.22099,2.29882 1.52881,0.27722 4.84021,1.41131 7.35866,2.52019 7.19241,3.16682 8.9437,3.82276 15.97901,5.9848 3.63,1.11554 7.95,2.76228 9.6,3.65941 1.65,0.89712 5.25862,1.65276 8.01913,1.67918 4.18395,0.0401 5.15538,-0.40123 5.83793,-2.65195 l 0,0 z M 340.8,148.20354 c 0,-0.99 -0.54,-1.8 -1.2,-1.8 -0.66,0 -1.2,0.81 -1.2,1.8 0,0.99 0.54,1.8 1.2,1.8 0.66,0 1.2,-0.81 1.2,-1.8 z m 213.6,-44.4 c 0,-1.31976 -1.37094,-1.8 -5.13848,-1.8 -2.82617,0 -8.09117,-0.81686 -11.7,-1.81525 C 526.92401,97.245402 523.2,96.741902 523.2,98.246532 c 0,0.74636 0.765,1.35701 1.7,1.35701 0.935,0 1.88,0.458998 2.1,1.019998 1.5524,3.9586 27.4,6.95843 27.4,3.18 z"
     id="path2987"
     inkscape:connector-curvature="0" />
</svg>
