<?xml version="1.0" encoding="UTF-8" standalone="no"?>
<!-- Created with Inkscape (http://www.inkscape.org/) -->

<svg
   xmlns:dc="http://purl.org/dc/elements/1.1/"
   xmlns:cc="http://creativecommons.org/ns#"
   xmlns:rdf="http://www.w3.org/1999/02/22-rdf-syntax-ns#"
   xmlns:svg="http://www.w3.org/2000/svg"
   xmlns="http://www.w3.org/2000/svg"
   xmlns:sodipodi="http://sodipodi.sourceforge.net/DTD/sodipodi-0.dtd"
   xmlns:inkscape="http://www.inkscape.org/namespaces/inkscape"
   id="svg2"
   version="1.1"
   inkscape:version="0.48.4 r9939"
   width="511.86615"
   height="793.65991"
   sodipodi:docname="sakuya_izayoi____bad_apple____by_adiyasa-d3bfu3a.bmp">
  <metadata
     id="metadata8">
    <rdf:RDF>
      <cc:Work
         rdf:about="">
        <dc:format>image/svg+xml</dc:format>
        <dc:type
           rdf:resource="http://purl.org/dc/dcmitype/StillImage" />
        <dc:title></dc:title>
      </cc:Work>
    </rdf:RDF>
  </metadata>
  <defs
     id="defs6" />
  <sodipodi:namedview
     pagecolor="#ffffff"
     bordercolor="#666666"
     borderopacity="1"
     objecttolerance="10"
     gridtolerance="10"
     guidetolerance="10"
     inkscape:pageopacity="0"
     inkscape:pageshadow="2"
     inkscape:window-width="956"
     inkscape:window-height="1041"
     id="namedview4"
     showgrid="false"
     fit-margin-top="0"
     fit-margin-left="0"
     fit-margin-right="0"
     fit-margin-bottom="0"
     inkscape:zoom="1.0823276"
     inkscape:cx="255.93307"
     inkscape:cy="396.82995"
     inkscape:window-x="960"
     inkscape:window-y="18"
     inkscape:window-maximized="0"
     inkscape:current-layer="svg2" />
  <path
     style="fill:#ff0000"
     d="m 58.636807,787.14892 c -1.21917,-3.5811 -2.52445,-6.5111 -2.90062,-6.5111 -0.37616,0 -0.95377,-1.0751 -1.28358,-2.3892 -0.84922,-3.3835 -8.57601,-19.01422 -10.77391,-21.79472 -1.01097,-1.27896 -4.42381,-6.30178 -7.58408,-11.16182 -3.16028,-4.86004 -6.8678,-10.00322 -8.23894,-11.42929 -1.37114,-1.42607 -3.07158,-3.72819 -3.77875,-5.11583 -1.47604,-2.89636 -7.56011,-12.52491 -8.35325,-13.21972 -2.1015,-1.84096 -12.0314199,-27.29741 -12.0314199,-30.84386 0,-0.94129 -0.37682,-1.71144 -0.83738,-1.71144 -0.83474,0 -3.40126001,-9.09353 -2.75025001,-9.74453 0.18843,-0.18843 9.75802001,-0.63077 21.26575991,-0.98295 20.27087,-0.62037 48.19498,0.42033 64.17519,2.39175 12.46197,1.53737 32.078303,4.8725 32.555293,5.53497 0.55889,0.77622 21.68922,5.53807 22.2523,5.01469 1.19547,-1.11118 -3.09063,-38.17275 -4.55885,-39.41998 -0.30111,-0.25579 -1.08726,-3.18577 -1.747,-6.51106 -2.23289,-11.25451 -9.68111,-35.84473 -11.26947,-37.20605 -0.54654,-0.46842 -1.09584,-1.75917 -6.53139,-15.3475 -4.70281,-11.75652 -6.78399,-16.27765 -7.49296,-16.27765 -0.3619,0 -1.09038,-1.56963 -1.61883,-3.48807 -0.52846,-1.91843 -2.25818,-7.04589 -3.84383,-11.39435 -1.58563,-4.34846 -3.781873,-11.25483 -4.880523,-15.3475 -1.09865,-4.09266 -2.30479,-7.65049 -2.68033,-7.90628 -1.18853,-0.80954 -3.7103,-15.90957 -4.30688,-25.78901 -0.61212,-10.13691 -0.27496,-9.32765 -8.43811,-20.25348 -3.82374,-5.11783 -6.24732,-16.89528 -5.35942,-26.04424 0.63384,-6.53116 3.45043,-16.16158 5.01483,-17.14662 0.45968,-0.28944 1.49723,-1.99125 2.30566,-3.78179 2.66634,-5.9055 8.44587,-14.33951 13.2863,-19.38855 7.388423,-7.70682 7.322023,-7.45074 5.702543,-21.99163 -1.28315,-11.52114 -2.25806,-15.52592 -3.17287,-13.03367 -0.18779,0.51158 -1.281543,2.36148 -2.430583,4.11087 -1.14903,1.74939 -2.55431,3.96294 -3.12286,4.91898 -0.56854,0.95605 -1.82425,2.33675 -2.79045,3.06823 -3.42932,2.59619 -3.90901,1.49702 -1.72789,-3.95926 4.68355,-11.71636 5.15827,-28.42662 1.39021,-48.93574 -2.73356,-14.87848 -7.41778,-31.80948 -9.16938,-33.14254 -0.34158,-0.25996 -1.53685,-2.3562 -2.65618,-4.65833 l -2.03514,-4.18568 -0.0577,3.8867 c -0.035,2.35955 0.51661,4.46102 1.40397,5.34837 0.80391,0.80392 1.05798,1.46167 0.56459,1.46167 -2.78984,0 -1.59271,5.88509 2.034,9.99913 2.72962,3.09642 0.0553,2.73673 -5.04084,-0.67801 -7.81387,-5.23573 -10.00163,-7.00344 -12.97495,-10.48381 -1.63895,-1.91844 -3.39808,-3.48807 -3.90918,-3.48807 -1.628,0 -16.55089,-7.28879 -16.55089,-8.08396 0,-0.41989 -1.28181,-1.33081 -2.84848,-2.02429 -4.95506,-2.19332 -13.52005,-11.57134 -15.56077,-17.03787 -1.90257,-5.09648 -8.56513,-32.68741 -8.56513,-35.46985 0,-0.86046 -0.41857,-1.56447 -0.93016,-1.56447 -0.51158,0 -0.93015,-2.30212 -0.93015,-5.11583 0,-2.81371 0.37104,-5.11583 0.82454,-5.11583 0.4535,0 1.1201,-1.97093 1.48133,-4.37983 0.56185,-3.74664 3.33551,-12.12397 9.47919,-28.63012 0.75952,-2.04059 1.73434,-3.92858 2.16626,-4.19552 0.9852,-0.60889 9.30247,-18.44059 9.30247,-19.94391 0,-0.60931 -2.40677,-2.08114 -5.34837,-3.27071 -8.69783,-3.5174 -10.88875,-5.22258 -13.6029,-10.587 -2.76896,-5.47276 -2.69323,-7.49677 0.52051,-13.91114 2.0635,-4.11857 7.94188,-10.88291 9.47001,-10.89729 0.57995,-0.006 2.97142,-1.78436 5.31436,-3.95314 3.83129,-3.54646 4.18551,-4.21865 3.52048,-6.68073 -1.24134,-4.59574 -8.13291,-13.81964 -12.89622,-17.26074 -4.29424,-3.10223 -4.43319,-3.33824 -2.95083,-5.01197 2.11452,-2.38752 15.61869,-8.859241 19.9261,-9.549371 1.91844,-0.30736 3.48807,-0.92392 3.48807,-1.37012 0,-0.44619 2.92997,-0.81127 6.51106,-0.81127 3.58108,0 6.51106,0.33449 6.51106,0.7433 0,0.40881 1.4756,1.27688 3.27912,1.92904 1.80352,0.65217 3.97896,2.30588 4.83431,3.67492 0.85536,1.369061 1.70463,2.686351 1.88729,2.927321 1.24234,1.63905 2.06685,-4.034571 2.09124,-14.390411 0.0157,-6.65058 0.39091,-12.66405 0.83388,-13.36327 1.44908,-2.28736 7.13381,0.45882 11.38414,5.49946 7.29374,8.64994 16.52893,11.14499 21.336463,5.76443 1.3849,-1.54997 2.8777,-3.41472 3.31733,-4.14388 1.70484,-2.82763 9.49781,-7.24393 12.78257,-7.24393 5.37403,0 12.66576,4.10953 12.66576,7.13827 0,0.6782 0.31393,1.15109 0.69762,1.05087 3.12381,-0.81596 63.29464,9.77524 64.41298,11.3379 0.25579,0.35742 1.72078,0.93798 3.25553,1.29012 12.30157,2.82262 36.72258,10.368871 37.67113,11.640621 0.25579,0.34294 3.60433,1.82843 7.44121,3.3011 7.85383,3.01444 19.64533,8.56485 20.41872,9.61133 0.83082,1.12423 8.29977,5.78811 9.26935,5.78811 1.83823,0 20.26363,19.22003 22.29237,23.25378 1.15783,2.30213 2.63485,4.60425 3.28228,5.11584 1.65439,1.30728 8.71156,16.52431 10.89219,23.48632 1.00148,3.19739 2.17174,5.81344 2.60058,5.81344 2.0729,0 12.16767,49.52406 12.16767,59.69353 0,1.44463 0.34913,2.62661 0.77583,2.62661 0.4267,0 1.2977,5.95652 1.93553,13.2367 1.45323,16.58701 3.83385,22.37499 12.01117,29.20258 2.90165,2.42271 5.90358,5.14131 6.67095,6.04134 0.76738,0.90001 3.68314,2.77527 6.47948,4.16723 4.29839,2.13966 4.80158,2.64134 3.25553,3.24574 -4.87438,1.90553 -22.18499,0.21969 -23.90557,-2.32811 -1.07545,-1.59251 -0.83776,2.28251 0.63054,10.27967 2.11143,11.49997 4.83968,40.3318 3.81646,40.3318 -0.20011,0 -0.87804,-1.55806 -1.50652,-3.46236 -0.62847,-1.9043 -1.70735,-4.02704 -2.39751,-4.7172 -0.69015,-0.69015 -1.25483,-1.76085 -1.25483,-2.37932 0,-3.20783 -9.09818,-22.0989 -11.71368,-24.32179 -0.60194,-0.51158 -1.321,-1.558 -1.59792,-2.32538 -1.65372,-4.58274 0.98506,12.42391 3.24729,20.92841 1.49691,5.62741 2.95757,11.17344 3.24589,12.3245 0.5968,2.38254 -1.26199,2.8118 -4.55174,1.05118 -1.92722,-1.03141 -1.94046,-0.95869 -1.3471,7.40071 0.32959,4.64329 1.0379,10.39967 1.57403,12.79197 0.53612,2.39229 0.76138,4.563 0.50057,4.82381 -0.86383,0.86383 -3.58131,-2.06473 -5.13827,-5.53736 -2.0445,-4.56004 -3.56743,-3.40633 -3.92882,2.97632 l -0.2885,5.09552 -2.26331,-7.20867 c -1.24482,-3.96477 -2.55071,-7.20867 -2.90198,-7.20867 -0.35126,0 -1.12749,-2.61605 -1.72496,-5.81345 -0.59746,-3.19739 -1.31303,-6.96451 -1.59015,-8.37136 -0.39289,-1.99463 -1.02922,-2.55792 -2.88958,-2.55792 l -2.38573,0 0.52761,6.97614 c 0.30427,4.02317 0.16424,6.97613 -0.33082,6.97613 -0.47213,0 -0.86484,0.94178 -0.87267,2.09285 -0.0279,4.10385 -1.56796,4.79701 -2.27573,1.02429 -0.36917,-1.96787 -0.97117,-3.78819 -1.33778,-4.04516 -0.36661,-0.25696 -1.32353,-3.81575 -2.12648,-7.90841 l -1.45991,-7.44121 -0.11353,7.47656 c -0.10013,6.59367 1.4009,21.58687 3.25569,32.51994 l 0.63121,3.72061 -2.03261,-1.80124 c -2.29758,-2.03605 -3.44338,-3.93162 -7.76333,-12.84331 -1.67251,-3.45026 -3.4595,-6.12942 -3.97109,-5.9537 -0.54197,0.18616 -0.87681,3.87164 -0.80234,8.83111 0.12119,8.07156 -0.50292,10.13987 -2.17443,7.20603 -0.40911,-0.71807 -3.07897,-3.78734 -5.93302,-6.82062 -2.85404,-3.03328 -5.57028,-6.31753 -6.03608,-7.29832 -1.2813,-2.69793 -1.63028,9.66903 -0.45262,16.03955 1.39984,7.57243 2.06932,8.10016 9.32584,7.35121 16.95391,-1.74982 16.60668,-1.75426 21.31867,0.27278 2.67621,1.15128 8.11249,2.28309 13.24919,2.75843 12.44739,1.15186 18.11358,4.519 26.88589,15.97694 1.76253,2.30212 3.52164,4.3252 3.90913,4.49573 0.38749,0.17053 0.70454,0.6194 0.70454,0.99751 0,0.37811 1.35113,3.16856 3.00253,6.20101 3.68532,6.76736 9.08943,19.02633 9.08943,20.61895 0,0.64474 0.36315,1.17225 0.80701,1.17225 0.44385,0 2.00557,3.13926 3.47048,6.97613 1.46491,3.83688 2.88683,6.97614 3.15981,6.97614 0.66039,0 10.3984,-13.72403 12.04495,-16.97527 0.71249,-1.40685 1.6035,-2.55791 1.98003,-2.55791 0.65963,0 5.51211,-7.70344 5.51211,-8.75063 0,-0.28219 -1.66342,-1.36169 -3.69649,-2.39888 -3.89459,-1.98688 -10.25578,-7.36833 -10.25578,-8.6762 0,-1.18822 2.5127,-3.42443 3.8867,-3.45902 1.66935,-0.042 -2.78901,-3.68966 -4.50971,-3.68966 -0.75345,0 -1.06475,-0.45683 -0.7064,-1.03664 0.42803,-0.69258 2.47805,-0.82876 6.17653,-0.41033 5.43611,0.61503 5.62402,0.55829 10.42942,-3.14904 2.69146,-2.07644 5.33332,-3.77535 5.87081,-3.77535 0.53748,0 1.20955,-0.60535 1.49347,-1.34523 0.28391,-0.73987 4.06158,-3.06129 8.39482,-5.1587 6.45175,-3.12282 8.05934,-4.33187 8.87646,-6.67588 0.54881,-1.57433 2.52372,-4.3015 4.38868,-6.06039 l 3.39085,-3.19798 -3.09972,-3.1981 c -1.70484,-1.75895 -4.77402,-4.34922 -6.82039,-5.75617 -2.04636,-1.40694 -4.74613,-3.49985 -5.99949,-4.65092 -1.25336,-1.15106 -2.71521,-2.09284 -3.24855,-2.09284 -0.53335,0 -0.0711,-0.83713 1.02709,-1.8603 2.5667,-2.39125 5.43936,-2.39125 6.06469,0 0.38909,1.48785 1.26874,1.8603 4.39369,1.8603 2.75242,0 3.77045,-0.34363 3.44449,-1.16269 -0.25448,-0.63948 -2.18282,-5.46142 -4.28519,-10.71543 -2.10237,-5.25401 -3.8225,-10.34659 -3.8225,-11.31684 0,-0.97026 -0.42799,-1.90676 -0.9511,-2.08113 -1.42242,-0.47414 -4.41347,-16.33524 -5.71544,-30.30821 -0.90599,-9.72316 -0.9097,-14.22774 -0.0175,-21.29144 1.06968,-8.46914 3.8213,-17.06085 5.46909,-17.0768 0.41245,-0.004 1.2115,-1.00328 1.77566,-2.22063 0.97794,-2.11023 0.30204,-4.8445 -1.51862,-6.14347 -1.35558,-0.96716 -3.63872,-12.66949 -3.10734,-15.92686 0.33332,-2.04331 0.1432,-3.62106 -0.48296,-4.00805 -1.66965,-1.0319 -1.18644,-6.106 0.90351,-9.48761 1.06489,-1.72303 2.32059,-3.13278 2.79045,-3.13278 0.46986,0 0.85429,-0.50031 0.85429,-1.11179 0,-0.61149 1.09812,-2.25798 2.44026,-3.65888 2.2213,-2.31854 2.38474,-2.99153 1.82143,-7.50012 -0.34036,-2.72417 -0.91528,-5.43025 -1.27758,-6.01352 -0.48445,-0.77992 -2.99658,-0.62482 -9.49517,0.58624 -17.32648,3.22894 -15.55672,3.21804 -17.16616,0.10572 -0.79032,-1.52823 -1.43691,-4.67219 -1.43691,-6.98658 0,-3.79613 0.2923,-4.35914 2.9864,-5.75232 3.96432,-2.05003 18.31053,-6.8748 20.44187,-6.8748 1.42016,0 1.68581,-0.79393 1.68581,-5.03833 0,-2.77107 -0.34829,-5.17783 -0.77398,-5.34837 -0.42569,-0.17052 -1.87729,-10.98353 -3.22578,-24.0289 -7.13839,-69.057081 -9.47309,-89.788621 -10.14329,-90.069661 -1.00409,-0.42106 -0.94672,-27.12941 0.0583,-27.12941 0.43871,0 1.06347,-2.61606 1.38837,-5.81345 1.05708,-10.40298 6.97947,-34.8253097 8.10843,-33.43695973 0.29031,0.35702 1.0825,2.95125003 1.76041,5.76496003 0.67791,2.81371 1.58298,5.3445897 2.01128,5.6241897 0.4283,0.2796 0.95117,2.79101 1.16196,5.58091 0.21077,2.7899 1.0269,8.83966 1.81362,13.44391 0.78672,4.60425 1.71023,10.98741 2.05226,14.18481 0.34203,3.19739 0.91147,5.81344 1.26541,5.81344 0.35395,0 1.17707,4.70889 1.82914,10.4642 0.65208,5.75532 2.37598,20.30056 3.83088,32.32276 1.45492,12.022211 3.59411,29.811361 4.75377,39.531441 1.15967,9.72008 2.3789,17.88216 2.70942,18.13795 0.33051,0.25579 1.3233,6.74359 2.20619,14.41734 0.8829,7.67375 1.81519,15.04498 2.07177,16.38051 l 0.4665,2.42823 8.55847,-1.76345 c 4.70718,-0.9699 10.65133,-1.64404 13.20924,-1.49809 4.49301,0.25637 4.67882,0.37894 5.47818,3.6133 0.45508,1.84135 0.55828,4.77133 0.22933,6.51106 -0.59665,3.15554 -0.6271,3.17193 -12.68912,6.83025 -6.65006,2.01691 -12.47157,3.9023 -12.93667,4.18974 -0.50265,0.31066 -0.43494,3.63343 0.16696,8.19232 l 1.0126,7.66968 4.45117,0 c 4.84675,0 13.8986,2.97224 17.44984,5.72977 3.15187,2.44742 4.50964,5.4876 5.2167,11.68069 0.83046,7.27389 4.2207,19.97113 5.73739,21.48781 0.67711,0.67712 1.23112,1.64158 1.23112,2.14325 0,0.50167 1.65245,4.22366 3.67211,8.27109 2.01966,4.04743 3.95916,8.94381 4.30999,10.88086 0.86158,4.75697 2.8584,8.48747 5.9237,11.06675 3.41762,2.87573 6.2933,10.74808 7.51372,20.56927 1.1718,9.42982 0.0692,25.79083 -2.95154,43.79717 -1.05661,6.2983 -1.70436,11.6682 -1.43944,11.93312 0.26491,0.26492 2.71574,0.69027 5.44629,0.94524 2.73055,0.25496 7.07511,1.41453 9.65458,2.57679 3.64089,1.64052 5.83367,2.01836 9.80313,1.68918 3.86224,-0.32028 5.40489,-0.0725 6.30549,1.01261 1.02858,1.23936 0.47695,1.76385 -4.01725,3.81954 -2.86526,1.31059 -5.59492,2.38289 -6.06593,2.38289 -0.471,0 -1.19108,0.54422 -1.60019,1.20937 -0.40911,0.66515 -2.20882,2.20314 -3.99936,3.41776 -4.99826,3.39056 -13.02212,10.3016 -13.02212,11.21606 0,0.44931 -1.02076,2.32109 -2.26834,4.15951 -1.2476,1.83843 -2.77324,4.89163 -3.39032,6.78491 -0.61709,1.89328 -1.48176,3.67746 -1.92149,3.96484 -1.65362,1.08077 -2.73556,15.54742 -1.75036,23.40447 0.52753,4.20714 0.95915,9.64853 0.95915,12.09197 0,2.44343 0.41856,4.44262 0.93015,4.44262 0.56372,0 0.93015,4.03065 0.93015,10.23166 0,5.62742 -0.36346,10.23167 -0.80768,10.23167 -0.44422,0 -1.03904,1.72495 -1.32183,3.83322 -0.28277,2.10828 -0.8611,4.17508 -1.28515,4.59289 -1.27866,1.2598 -9.85187,-2.24437 -13.30282,-5.43732 -1.77666,-1.64384 -3.69999,-2.98879 -4.27406,-2.98879 -0.57408,0 -1.81533,-0.85256 -2.75833,-1.89457 -1.71338,-1.89326 -1.71637,-1.89246 -4.32766,1.16269 -1.43721,1.68149 -2.61408,3.54299 -2.61528,4.13667 -9.3e-4,0.59367 -1.60212,3.94221 -3.5576,7.44121 -1.95548,3.49898 -4.0991,7.72214 -4.7636,9.38479 -0.66451,1.66264 -1.53503,3.02299 -1.9345,3.02299 -0.39946,0 -3.56148,5.75531 -7.02669,12.78958 -3.46522,7.03427 -6.6212,13.00859 -7.01329,13.27627 -0.39209,0.26768 -3.24438,5.49978 -6.33841,11.62689 -3.09404,6.12712 -6.04354,11.64071 -6.55446,12.25245 -0.51091,0.61173 -3.49038,6.05312 -6.62104,12.09197 -3.13066,6.03884 -5.96069,11.189 -6.28897,11.44479 -0.94097,0.73321 -8.50316,15.45676 -8.50316,16.55564 0,0.66479 0.95502,0.71348 2.9231,0.14905 l 2.92311,-0.83834 -0.54823,6.25163 c -0.30152,3.43841 -1.24116,8.25001 -2.08808,10.69246 -1.18417,3.41502 -1.28983,4.7421 -0.4574,5.74512 1.5404,1.85606 12.48687,5.93048 19.33859,7.19807 3.1974,0.59152 5.81345,1.42172 5.81345,1.84487 0,0.42315 0.94178,0.77171 2.09284,0.77456 8.11941,0.0201 18.55354,6.85564 23.78896,15.5844 6.11814,10.20051 6.46407,11.2844 4.18051,13.09884 -4.91277,3.90352 -5.44114,10.92479 -1.25681,16.70108 1.5187,2.09651 3.55948,4.23901 4.53506,4.76113 3.05949,1.63738 7.5861,9.66271 7.5861,13.44956 0,2.73024 -0.72176,4.17324 -3.48807,6.97371 -4.40692,4.46132 -8.33433,6.03423 -13.44833,5.38598 -2.19561,-0.27831 -5.03843,-0.63577 -6.31738,-0.79437 -2.99232,-0.37103 -3.45046,2.17065 -1.45219,8.05644 1.03996,3.06311 1.45219,7.92899 1.45219,17.14146 0,11.70715 -0.17775,13.09013 -1.97618,15.37646 -2.4015,3.05303 -7.50569,6.35568 -12.20863,7.89959 -1.91844,0.62979 -3.48807,1.49707 -3.48807,1.92726 0,0.43021 -2.71215,1.68473 -6.027,2.78784 -5.15345,1.71496 -6.43421,2.60902 -8.83644,6.16845 -1.54519,2.28954 -2.80944,4.36536 -2.80944,4.61294 0,0.24758 -2.46079,3.05193 -5.46844,6.23188 -3.00764,3.17994 -6.50883,6.93284 -7.78041,8.33964 -1.27158,1.4069 -2.60086,2.5579 -2.95395,2.5579 -0.3531,0 -3.0258,1.6155 -5.93933,3.5899 -2.91353,1.9743 -6.23911,3.8861 -7.39017,4.2483 -1.15106,0.3622 -2.09284,0.9747 -2.09284,1.3612 0,0.7149 -5.89022,3.8751 -10.38293,5.5707 -2.2577,0.852 -2.43188,1.2683 -1.97036,4.7092 l 0.50627,3.7745 -146.41032,0 -146.410303,0 -2.21668,-6.511 z M 116.83186,402.53704 c 1.46533,-0.76422 3.57114,-1.39207 4.67957,-1.39522 1.10842,-0.003 2.17428,-0.48258 2.36855,-1.06539 0.24331,-0.72994 6.65335,-1.2051 20.60061,-1.52707 17.45098,-0.40285 20.52515,-0.69233 22.25857,-2.09596 1.85278,-1.5003 1.90545,-1.82612 0.66864,-4.13712 -1.19372,-2.23047 -1.16551,-2.81701 0.25443,-5.29112 2.11994,-3.69379 2.10662,-5.83306 -0.0308,-4.94489 -10.64132,4.42188 -19.98185,4.04182 -25.04263,-1.01896 -2.75863,-2.75861 -3.09446,-2.78442 -3.09446,-0.23776 0,2.6016 -2.93922,11.94118 -3.75797,11.94118 -0.34527,0 -0.89009,-2.40677 -1.21068,-5.34837 -0.32061,-2.94161 -1.06179,-7.02265 -1.64708,-9.06898 l -1.06415,-3.72061 -1.50672,3.25553 c -0.8287,1.79055 -1.76511,3.46482 -2.08092,3.72061 -0.31581,0.25579 -2.31669,4.12755 -4.44638,8.6039 -2.1297,4.47635 -4.1742,8.13854 -4.54334,8.13821 -0.36914,-3.4e-4 -0.67605,-5.33708 -0.68204,-11.85943 -0.007,-6.66378 -0.55412,-14.09992 -1.25098,-16.97465 -3.96704,-16.36502 -5.68045,-14.88119 -5.70158,4.93764 -0.0104,9.80108 1.56185,29.47796 2.35546,29.47796 0.11531,0 1.40856,-0.62527 2.87389,-1.3895 l 0,0 z"
     id="path2987"
     inkscape:connector-curvature="0" />
</svg>
