<?xml version="1.0" encoding="UTF-8" standalone="no"?>
<!-- Created with Inkscape (http://www.inkscape.org/) -->

<svg
   xmlns:dc="http://purl.org/dc/elements/1.1/"
   xmlns:cc="http://creativecommons.org/ns#"
   xmlns:rdf="http://www.w3.org/1999/02/22-rdf-syntax-ns#"
   xmlns:svg="http://www.w3.org/2000/svg"
   xmlns="http://www.w3.org/2000/svg"
   xmlns:sodipodi="http://sodipodi.sourceforge.net/DTD/sodipodi-0.dtd"
   xmlns:inkscape="http://www.inkscape.org/namespaces/inkscape"
   id="svg2"
   version="1.1"
   inkscape:version="0.48.4 r9939"
   width="828.3172"
   height="1151.4169"
   sodipodi:docname="black_and_white_touhou_black_w_1600x1200_wallpaperno.com.bmp">
  <metadata
     id="metadata8">
    <rdf:RDF>
      <cc:Work
         rdf:about="">
        <dc:format>image/svg+xml</dc:format>
        <dc:type
           rdf:resource="http://purl.org/dc/dcmitype/StillImage" />
        <dc:title></dc:title>
      </cc:Work>
    </rdf:RDF>
  </metadata>
  <defs
     id="defs6" />
  <sodipodi:namedview
     pagecolor="#ffffff"
     bordercolor="#666666"
     borderopacity="1"
     objecttolerance="10"
     gridtolerance="10"
     guidetolerance="10"
     inkscape:pageopacity="0"
     inkscape:pageshadow="2"
     inkscape:window-width="956"
     inkscape:window-height="1041"
     id="namedview4"
     showgrid="false"
     fit-margin-top="0"
     fit-margin-left="0"
     fit-margin-right="0"
     fit-margin-bottom="0"
     inkscape:zoom="0.74603734"
     inkscape:cx="414.1586"
     inkscape:cy="575.70842"
     inkscape:window-x="960"
     inkscape:window-y="18"
     inkscape:window-maximized="0"
     inkscape:current-layer="svg2" />
  <path
     style="fill:#ff0000"
     d="m 110.36089,1149.8505 c 0,-0.8619 -0.9022,-7.934 -2.00489,-15.716 -3.99994,-28.2286 -5.50695,-60.8166 -3.70463,-80.1103 2.52221,-26.9999 3.53596,-32.7253 10.08776,-56.97233 1.94229,-7.1881 4.80499,-14.6168 9.79487,-25.4177 2.19891,-4.7596 4.607,-10.103 5.35129,-11.8742 0.7443,-1.7712 3.87084,-7.6208 6.94786,-12.9992 8.90713,-15.5688 17.81957,-34.1722 21.08157,-44.0047 3.68822,-11.1172 5.82443,-45.705 4.55124,-73.6903 l -0.84209,-18.5099 -6.42312,-0.021 c -8.53989,-0.027 -13.29332,-2.5485 -13.85,-7.3459 -0.46727,-4.0268 -2.16352,-4.4911 -14.00174,-3.833 -8.86324,0.4926 -18.3851,-5.0169 -18.3851,-10.6379 0,-4.2599 -5.80058,-8.0992 -10.467122,-6.928 -1.98982,0.4994 -3.50261,0.2757 -3.50261,-0.5179 0,-0.7683 -1.57159,-1.7914 -3.49243,-2.2735 -1.92084,-0.4821 -3.49243,-1.437 -3.49243,-2.1221 0,-0.685 -0.83673,-1.2455 -1.8594,-1.2455 -2.9367,0 -5.99635,-6.67276 -3.98289,-8.68624 1.2619,-1.2619 0.77161,-2.55644 -2.10565,-5.55966 -4.2263,-4.4113 -8.38129,-5.10691 -9.07229,-1.51885 -0.3322,1.72501 -1.86364,0.45372 -5.46924,-4.54017 -6.38905,-8.8491 -7.29957,-11.43334 -4.56711,-12.9625 3.87618,-2.16923 1.7069,-7.67469 -4.23684,-10.75275 -2.99717,-1.55215 -6.14036,-4.06954 -6.98486,-5.5942 -0.84451,-1.52467 -1.84978,-3.08644 -2.23395,-3.47061 -2.10627,-2.10627 -5.84316,-11.28954 -5.23689,-12.86946 0.38974,-1.01564 4.89538,-3.04393 10.01253,-4.50733 5.11716,-1.46339 10.76057,-4.0107 12.54092,-5.66067 1.78035,-1.64997 5.21315,-3.8185 7.62844,-4.81894 2.41529,-1.00045 4.39144,-2.31797 4.39144,-2.92782 0,-1.07937 3.65943,-5.7896 8.8475,-11.38805 3.1428,-3.39139 2.71566,-3.85347 -5.66625,-6.12974 -13.59869,-3.693 -33.79146,-12.29335 -39.10952,-16.65724 -0.93633,-0.76834 -3.72429,-2.96857 -6.19547,-4.88941 -10.45095,-8.1235 -16.48301,-15.71301 -22.674026,-28.52839 C 2.551809,604.53731 0,593.78214 0,573.44168 c 0,-16.19395 3.994217,-36.59571 9.188703,-46.93429 1.092896,-2.17519 1.987083,-4.54518 1.987083,-5.26665 0,-2.00088 10.818582,-23.49164 15.400312,-30.5922 2.231,-3.45751 5.08886,-8.11316 6.35081,-10.34589 1.26195,-2.23273 3.4849,-5.33729 4.93988,-6.89904 1.45499,-1.56174 2.64543,-3.34963 2.64543,-3.97308 0,-0.62346 1.10012,-2.24028 2.44471,-3.59291 1.34458,-1.35265 4.93851,-5.91027 7.9865,-10.12805 3.04799,-4.2178 5.8931,-7.98304 6.32247,-8.3672 0.42938,-0.38417 2.96,-3.52736 5.6236,-6.98487 2.66361,-3.45751 5.31907,-6.49592 5.90104,-6.75203 0.58197,-0.25612 1.05812,-1.35624 1.05812,-2.44471 0,-1.08847 0.4931,-1.97905 1.09578,-1.97905 0.60267,0 2.1963,-1.86304 3.54138,-4.14008 1.34509,-2.27705 3.20938,-4.94876 4.14288,-5.93714 3.64085,-3.8549 9.38062,-12.16301 9.38062,-13.57811 0,-0.81961 0.52964,-1.49018 1.17699,-1.49018 0.64734,0 2.36189,-2.20024 3.81011,-4.88941 1.44821,-2.68917 3.04548,-4.88941 3.54948,-4.88941 0.504,0 1.28575,-1.10011 1.73723,-2.4447 0.81698,-2.43315 3.732452,-7.39988 5.125162,-8.73108 1.87528,-1.79247 5.55534,-8.47202 5.55292,-10.07891 -0.002,-0.98745 -3.14467,-3.93683 -6.98486,-6.55417 -3.840192,-2.61734 -6.982172,-5.28905 -6.982172,-5.93713 0,-0.64809 -0.66762,-1.17834 -1.4836,-1.17834 -2.19933,0 -19.66095,-18.00547 -25.15828,-25.94185 -17.00439,-24.54889 -23.7034,-55.8988 -17.27321,-80.83496 3.84314,-14.90361 5.24795,-19.56884 6.96854,-23.1417 0.92502,-1.92083 2.52362,-5.27783 3.55244,-7.45999 1.02882,-2.18214 4.72007,-6.70256 8.20278,-10.04537 3.4827,-3.3428 9.94671,-9.57253 14.36446,-13.84386 4.41774,-4.27132 8.66105,-7.76603 9.42957,-7.76603 0.76852,0 1.3973,-0.6388 1.3973,-1.41957 0,-0.78077 2.23835,-2.48696 4.97412,-3.79157 3.931762,-1.87492 4.803162,-2.96797 4.158352,-5.21605 -0.44866,-1.56423 -1.42269,-5.8787 -2.16449,-9.58772 -0.74181,-3.70902 -1.73451,-7.36784 -2.206002,-8.13073 -0.47148,-0.76287 -2.02955,-5.90052 -3.46237,-11.41699 -1.43281,-5.51645 -3.62272,-13.48742 -4.86645,-17.71327 -3.95624,-13.44208 -4.95898,-18.57871 -3.82427,-19.59008 1.62555,-1.44885 13.574112,-4.15846 18.337562,-4.15846 2.26673,0 4.45747,-0.87596 4.86831,-1.94658 1.10677,-2.88421 15.2096,-3.99479 28.1899,-2.21992 12.46961,1.70504 28.19008,2.28608 29.38988,1.08627 0.43072,-0.43072 -0.72438,-3.00458 -2.56691,-5.71968 -3.46397,-5.10447 -4.0286,-8.62581 -6.03681,-37.64945 -1.03642,-14.97887 0.0242,-16.87568 4.96559,-8.88035 1.61127,2.60708 5.00249,6.32123 7.53605,8.25368 2.53358,1.93245 7.39576,6.06871 10.80486,9.19169 l 6.19837,5.67814 7.6416,-8.69317 c 4.20288,-4.78125 11.1179,-12.2194 15.36671,-16.52923 l 7.72511,-7.83604 11.87427,-0.83721 c 10.50573,-0.74072 24.87401,-4.40662 27.47811,-7.01073 0.50986,-0.50985 2.2964,-0.927 3.9701,-0.927 1.6737,0 4.16749,-1.24245 5.54177,-2.76101 2.86263,-3.16317 4.55097,-2.58033 6.36778,2.19822 0.8761,2.30432 2.36717,3.35673 4.75584,3.35673 1.9138,0 5.54401,0.88254 8.06717,1.9612 2.52316,1.07866 7.41643,2.71781 10.87394,3.64256 3.45751,0.92475 8.48662,2.51841 11.17579,3.54146 4.98432,1.89621 7.89935,2.77458 23.53103,7.09052 5.27486,1.4564 10.56591,4.03798 13.06974,6.3769 2.3138,2.16142 4.40795,3.92985 4.65364,3.92985 0.24568,0 5.2799,-4.6789 11.18715,-10.39757 10.83832,-10.49231 21.11796,-18.4876 22.27814,-17.32743 0.72479,0.72479 -1.57453,44.28296 -2.92793,55.46645 -0.8921,7.37164 -0.85538,7.47168 2.41719,6.58672 1.82768,-0.49424 5.68045,-1.50525 8.5617,-2.24669 2.88126,-0.74143 7.59604,-1.9911 10.4773,-2.77703 4.65097,-1.26866 34.61119,-5.51555 39.11525,-5.54463 3.75011,-0.0242 0.71061,45.65473 -4.28366,64.37711 -1.14598,4.29604 -3.4554,10.99977 -5.13202,14.89718 -2.95994,6.88056 -2.97396,7.16383 -0.48341,9.76099 5.1675,5.38873 8.85136,10.19412 8.85136,11.54615 0,0.76248 0.52965,1.38634 1.17699,1.38634 0.64735,0 2.36189,2.20024 3.81011,4.88941 1.44821,2.68917 3.11881,4.88941 3.71241,4.88941 0.59362,0 1.0793,0.89057 1.0793,1.97905 0,1.08846 0.47824,2.18858 1.06277,2.4447 0.58452,0.25611 4.80342,5.49476 9.37533,11.64144 4.57192,6.14668 8.80847,11.38533 9.41454,11.64144 0.60608,0.25612 1.10196,1.35623 1.10196,2.4447 0,1.08848 0.52774,1.97905 1.17273,1.97905 0.64501,0 1.88881,1.5716 2.76401,3.49243 1.50157,3.2956 5.84208,4.9544 5.84208,2.23265 0,-0.69289 1.80732,-2.42164 4.01627,-3.84168 2.20893,-1.42004 8.92971,-7.15767 14.93506,-12.7503 6.00534,-5.59263 12.21315,-10.42835 13.79514,-10.74606 1.58199,-0.3177 5.23373,-0.95667 8.11499,-1.41992 2.88126,-0.46325 5.23865,-1.4687 5.23865,-2.23436 0,-2.38242 4.78501,-6.66889 9.83497,-8.8103 2.65829,-1.12722 7.64763,-4.61742 11.08743,-7.75598 3.4398,-3.13857 8.3464,-7.42559 10.90357,-9.5267 2.55716,-2.10112 6.65781,-5.6043 9.11253,-7.78485 2.45472,-2.18053 7.80641,-6.89532 11.89263,-10.4773 4.08623,-3.58196 8.82926,-7.76995 10.54006,-9.30662 1.7108,-1.53667 6.85415,-5.3085 11.42965,-8.38184 4.57549,-3.07334 8.52861,-6.05937 8.78472,-6.63562 0.25612,-0.57625 1.35624,-1.04773 2.4447,-1.04773 1.08848,0 1.97906,-0.48072 1.97906,-1.06826 0,-0.58754 5.18626,-4.79998 11.52502,-9.36096 6.33877,-4.56098 11.73458,-8.79505 11.99069,-9.40903 0.25612,-0.61399 5.16515,-1.11635 10.90899,-1.11635 5.75139,0 10.09787,-0.55897 9.67439,-1.24416 -0.42291,-0.6843 0.9041,-2.34039 2.94892,-3.6802 2.76709,-1.81307 4.31535,-2.0629 6.05428,-0.97692 1.94697,1.21591 3.00416,0.3158 6.34244,-5.40012 4.45492,-7.62789 5.42844,-8.14154 7.63092,-4.02618 1.9659,3.67334 3.47619,2.60515 7.60188,-5.37663 1.85833,-3.59522 4.98956,-8.3633 6.9583,-10.59573 1.96874,-2.23242 3.57953,-4.58277 3.57953,-5.223 0,-0.64022 1.5716,-1.03397 3.49243,-0.875 1.92084,0.15898 3.49244,0.78057 3.49244,1.38133 0,0.60076 1.25727,1.09228 2.79394,1.09228 1.53667,0 2.79395,-0.8757 2.79395,-1.946 0,-1.0703 0.94296,-2.30784 2.09546,-2.7501 1.1525,-0.44226 2.09546,-1.64825 2.09546,-2.67999 0,-1.03174 1.1172,-3.09454 2.48267,-4.58401 1.36547,-1.48946 4.02823,-4.90835 5.91723,-7.59752 3.65669,-5.20562 5.97421,-8.11351 10.45924,-13.12364 1.53667,-1.71659 5.62282,-6.45045 9.08032,-10.51969 3.45751,-4.06925 7.87198,-9.05796 9.80994,-11.08603 1.93795,-2.02807 7.22382,-8.08787 11.7464,-13.46622 l 8.22283,-9.77881 18.98702,-0.8304 C 805.19275,2.51624 816.0943,1.66048 818.97556,1.07128 L 824.21421,0 l -0.0126,13.07747 c -0.007,7.19261 -0.40907,16.38213 -0.8942,20.42115 -0.8254,6.87193 -1.34063,7.67101 -8.02046,12.43937 -3.92612,2.80263 -7.34794,5.6272 -7.60404,6.27681 -0.25569,0.64962 -1.35581,1.18112 -2.44427,1.18112 -1.08848,0 -1.97905,0.52964 -1.97905,1.17699 0,0.64734 -2.20024,2.36189 -4.88941,3.81011 -2.68917,1.44821 -4.88941,2.9704 -4.88941,3.38263 0,0.41224 -2.51455,2.3036 -5.58789,4.20303 -3.07334,1.89943 -5.58789,3.93374 -5.58789,4.5207 0,0.58695 -0.94296,1.06719 -2.09546,1.06719 -1.1525,0 -2.09546,0.52964 -2.09546,1.17699 0,0.64735 -2.20023,2.36189 -4.88941,3.81011 -2.68917,1.44822 -4.8894,3.1188 -4.8894,3.71242 0,0.59361 2.20023,1.07929 4.8894,1.07929 7.29009,0 6.10427,3.09769 -2.98601,7.80022 -4.33147,2.24073 -10.68379,6.78639 -14.11624,10.10147 -3.43246,3.31508 -7.72893,6.59319 -9.54774,7.2847 -1.99614,0.75893 -3.63169,2.7996 -4.12632,5.14837 -0.45068,2.1401 -2.82563,8.05513 -5.27767,13.14453 -4.21904,8.75695 -4.83301,9.36932 -11.44311,11.41317 -11.05218,3.41736 -19.84455,5.17739 -25.86405,5.17739 -5.28311,0 -7.57928,1.88925 -3.82163,3.14439 1.83445,0.61274 2.35566,14.174 0.61178,15.91787 -0.51203,0.51205 -3.57405,-0.10729 -6.80446,-1.37619 -3.23042,-1.26894 -6.22321,-1.7773 -6.65064,-1.12966 -0.42745,0.64762 -8.71051,5.10928 -18.4068,9.91477 -21.57251,10.69135 -24.28375,13.04778 -26.32489,22.87983 -1.58752,7.64708 -4.72654,10.71884 -10.95352,10.71884 -2.1951,0 -14.02344,5.69137 -17.60717,8.47193 -6.98452,5.41915 -12.48594,10.48537 -21.26243,19.58037 -7.01228,7.26676 -11.99131,11.17497 -15.86595,12.45372 -3.10568,1.02496 -6.34331,2.70293 -7.19472,3.72883 -0.85141,1.02589 -2.97034,1.86527 -4.70874,1.86527 -1.73989,0 -4.09014,1.41845 -5.22824,3.15544 -1.13714,1.73548 -3.88114,4.09288 -6.0978,5.23865 -5.55789,2.8728 -13.02753,7.6683 -17.86486,11.46919 -7.53677,5.92195 -18.29272,15.50921 -18.77898,16.73855 -0.41392,1.04645 8.75541,15.86686 11.06237,17.88012 0.44021,0.38417 1.23429,1.64144 1.76463,2.79395 0.53033,1.1525 2.84794,5.23865 5.15025,9.08032 2.30229,3.84168 5.46388,9.68065 7.02574,12.9755 1.56185,3.29486 5.81252,8.9526 9.44592,12.57276 8.02221,7.99299 21.33979,19.85337 22.2926,19.85337 0.38087,0 2.02291,1.46255 3.64897,3.2501 3.56488,3.91892 20.4759,15.97615 27.75276,19.78719 2.88126,1.50897 5.23865,3.12865 5.23865,3.59928 0,0.47064 2.54607,1.69598 5.65793,2.72298 3.11185,1.02701 5.96743,2.36808 6.34572,2.98016 0.37828,0.61208 3.01848,2.12498 5.8671,3.36198 2.84863,1.23701 6.12227,2.82692 7.27477,3.53316 1.1525,0.70622 3.66706,1.94373 5.58789,2.75002 1.92084,0.8063 6.32131,2.74732 9.77882,4.3134 3.4575,1.56607 7.85797,3.47759 9.77881,4.2478 1.92084,0.77021 5.27213,2.2852 7.44732,3.36662 2.17518,1.08144 4.72843,1.96624 5.67389,1.96624 0.94546,0 8.59532,2.74134 16.99971,6.09185 8.40439,3.35052 16.8523,6.57901 18.77314,7.17444 1.92084,0.59543 9.77881,4.05108 17.46217,7.6792 7.68335,3.62814 14.91269,7.02499 16.06519,7.54856 1.1525,0.52359 3.35273,1.71311 4.88941,2.6434 1.53667,0.93028 6.56577,3.85015 11.17578,6.48859 4.61001,2.63843 8.69616,5.15298 9.08033,5.58789 0.38416,0.43491 4.47031,3.29128 9.08032,6.3475 13.07509,8.66817 18.94709,13.34471 27.24098,21.69505 12.75786,12.84468 17.41526,20.29165 23.93543,38.27167 4.87223,13.43567 5.15919,23.69362 1.07845,38.55101 -1.58273,5.76252 -3.24302,12.02867 -3.68952,13.92478 -0.82851,3.51843 -5.46768,8.29653 -8.13661,8.38032 -0.81425,0.0256 -4.9004,2.91801 -9.08033,6.42765 -11.19121,9.39662 -12.00223,10.02355 -15.13809,11.70182 -2.86617,1.53392 -26.30852,0.6577 -33.52163,-1.25299 -2.98064,-0.78952 -2.67883,-1.08975 2.79395,-2.77929 7.67498,-2.36939 19.37676,-7.39577 28.48711,-12.23637 11.30564,-6.00701 14.66821,-12.14401 14.66821,-26.77082 0,-34.46655 -19.22314,-65.76693 -57.22218,-93.17293 -8.93312,-6.44282 -23.96171,-15.39897 -27.97965,-16.67421 -1.54411,-0.49008 -2.80748,-1.47734 -2.80748,-2.1939 0,-0.71655 -0.70854,-1.30283 -1.57454,-1.30283 -0.86601,0 -6.05228,-2.13128 -11.52503,-4.73618 -14.45577,-6.88056 -24.03469,-11.0915 -35.09601,-15.42835 -5.37834,-2.1087 -11.66472,-4.63259 -13.96973,-5.60862 -2.305,-0.97604 -6.07683,-2.55757 -8.38184,-3.51451 -2.305,-0.95694 -6.07683,-2.52853 -8.38184,-3.49243 -2.305,-0.9639 -5.76251,-2.39989 -7.68335,-3.19109 -5.32385,-2.19293 -28.5437,-13.52712 -29.33644,-14.31986 -1.30077,-1.30078 -6.26511,-4.13966 -10.84618,-6.20246 -2.50789,-1.12927 -4.93253,-3.02456 -5.38811,-4.21177 -0.45557,-1.18718 -1.704,-2.15853 -2.77431,-2.15853 -1.07029,0 -1.946,-0.62864 -1.946,-1.39697 0,-0.76834 -0.88475,-1.39697 -1.96614,-1.39697 -2.33852,0 -30.56725,-27.62233 -36.40487,-35.62282 -2.24248,-3.07334 -4.77404,-6.21653 -5.62569,-6.98487 -1.78682,-1.61201 -21.10243,-28.19 -24.93282,-34.30717 -1.41531,-2.26028 -3.14407,-4.10959 -3.84167,-4.10959 -0.69761,0 -1.26839,-0.86599 -1.26839,-1.92442 0,-2.26632 -3.89177,-5.82525 -5.07556,-4.64147 -0.44942,0.44942 0.46544,2.61834 2.03303,4.8198 4.25462,5.97508 6.91807,13.78228 10.58894,31.03869 1.33357,6.26899 -3.86027,28.08546 -9.88399,41.51727 -1.78766,3.9862 -3.25031,8.1924 -3.25031,9.34714 0,1.15474 -0.58829,2.4631 -1.30731,2.90749 -2.12511,1.31338 -3.39585,-11.58029 -1.69445,-17.1929 6.19914,-20.44995 6.05886,-31.63235 -0.75136,-59.8918 -1.34677,-5.58847 -4.13253,-6.68698 -9.55389,-3.76739 -2.6695,1.43763 -4.85364,2.98222 -4.85364,3.43242 0,0.4502 -2.17405,1.67159 -4.83125,2.71418 -6.03013,2.36604 -6.52283,3.66982 -4.8638,12.87037 0.73476,4.07472 1.92365,11.50398 2.64197,16.50947 0.71832,5.00548 2.02786,12.23482 2.91008,16.06519 2.55368,11.08738 2.14541,64.7775 -0.58942,77.51144 -3.02641,14.09172 -2.90999,16.38017 0.89074,17.50863 4.38799,1.30283 27.70155,11.93913 28.9872,13.22478 0.38416,0.38417 4.15599,2.53882 8.38184,4.78811 15.98578,8.50877 33.67658,23.16745 47.34867,39.23335 4.90273,5.76114 16.49962,23.88115 19.21172,30.01812 6.89367,15.59903 8.87616,24.42875 8.87616,39.53317 0,19.06634 -3.48749,33.53676 -13.09285,54.32534 -2.01895,4.36957 -3.67083,8.32508 -3.67083,8.79005 0,0.46496 -0.64822,1.60465 -1.4405,2.53264 -2.39186,2.80155 -22.30804,31.55159 -22.30804,32.20279 0,0.33299 2.20023,1.01819 4.8894,1.52268 4.6518,0.87269 6.51737,3.81055 3.57463,5.62925 -0.72312,0.44692 -2.72046,3.62722 -4.43853,7.06732 -3.24557,6.49861 -3.4703,6.64864 -10.2431,6.83799 -3.89491,0.10882 -4.21637,0.57724 -5.83201,8.49707 -4.38691,21.50465 -3.8951,29.02567 3.49394,53.43009 1.28755,4.2525 8.36948,19.07613 12.84552,26.88783 3.12866,5.4601 18.8989,20.819 22.96338,22.3643 6.71025,2.5512 31.99615,-0.9598 41.52874,-5.7664 1.33417,-0.6727 3.27303,-1.2231 4.30857,-1.2231 1.03555,0 5.3629,-2.4378 9.61635,-5.4174 l 7.73352,-5.4173 0.72423,12.7514 c 0.39833,7.0133 1.14636,13.7747 1.66229,15.0253 1.16296,2.819 -4.46997,4.1827 -16.69189,4.0411 -9.75009,-0.113 -18.45596,-1.8666 -32.22576,-6.4911 -5.4308,-1.824 -11.86161,-3.3163 -14.2907,-3.3163 -6.80336,0 -20.76676,-5.6794 -27.16934,-11.0508 -6.05612,-5.0807 -12.22806,-11.5236 -12.22806,-12.765 0,-0.7313 -0.55373,-1.3297 -1.23052,-1.3297 -1.91377,0 -11.15342,-19.64264 -13.52801,-28.7593 -1.43083,-5.49339 -2.08798,-14.17358 -1.99746,-26.38427 0.0742,-10.00863 0.10282,-18.9833 0.0636,-19.94372 -0.0868,-2.12572 -7.55824,-2.32346 -11.33892,-0.3001 -2.83318,1.51627 -3.53141,6.25665 -1.41421,9.60102 1.566,2.47369 -0.65127,7.9281 -5.30523,13.05065 -4.15247,4.57056 -5.89284,4.79209 -8.23124,1.04773 -1.93775,-3.10285 -7.23563,-3.70556 -9.82361,-1.11758 -2.47204,2.47204 -2.04444,6.49534 1.11758,10.5152 4.91058,6.24281 2.95861,13.98735 -5.49548,21.80345 -3.17465,2.93507 -4.28333,3.38706 -4.28333,1.74622 0,-3.19611 -5.2026,-2.75012 -6.99535,0.59964 -0.82816,1.54744 -1.15127,4.84779 -0.71803,7.33416 0.9038,5.1867 0.44751,5.9795 -6.35737,11.0459 -6.51712,4.8521 -9.05975,5.2573 -11.65101,1.8565 -2.08332,-2.7342 -2.1298,-2.7184 -2.17328,0.7372 -0.0601,4.7718 -4.15251,7.95 -11.69278,9.0807 -5.46401,0.8194 -6.4647,0.5646 -7.83434,-1.9946 -0.86355,-1.6136 -2.77573,-2.9339 -4.24921,-2.9339 -4.06387,0 -9.7954,3.0032 -9.7954,5.1326 0,1.0396 -0.74491,3.083 -1.65536,4.5408 -1.28938,2.0646 -1.24086,3.9908 0.2194,8.7121 1.79859,5.8153 3.00366,11.2624 5.51326,24.9207 1.10278,6.0017 1.71999,8.9622 6.55301,31.4319 3.06271,14.2391 4.95638,20.0965 7.06205,21.8441 1.02589,0.8514 1.86527,2.414 1.86527,3.4724 0,1.0584 0.52964,1.9244 1.17699,1.9244 0.64734,0 2.36189,2.2003 3.8101,4.8894 1.44822,2.6892 3.11881,4.8894 3.71242,4.8894 0.59361,0 1.0793,0.5753 1.0793,1.2783 0,1.2158 3.38778,5.6551 8.73108,11.4412 1.34459,1.456 2.4447,3.2235 2.4447,3.9278 0,0.7043 0.49476,1.4901 1.09945,1.7462 0.60471,0.2561 3.27642,3.2946 5.93714,6.7521 2.66073,3.4575 5.2446,6.6007 5.74195,6.9848 0.49733,0.3842 5.0483,6.9849 10.11323,14.6682 5.06495,7.6834 9.8443,14.729 10.62078,15.657 0.77648,0.928 1.41178,2.0276 1.41178,2.4435 0,0.4159 3.77183,8.5142 8.38184,17.9961 4.61002,9.4819 8.38184,17.91813 8.38184,18.74713 0,0.8291 0.8848,3.287 1.96624,5.4622 1.08143,2.1752 2.57777,5.5265 3.32519,7.4473 0.74744,1.9209 2.45631,6.3213 3.79752,9.7788 1.3412,3.4576 3.24733,8.1723 4.23585,10.4773 0.98851,2.3051 2.56241,7.0198 3.49754,10.4773 0.93515,3.4576 2.49678,8.801 3.47029,11.8743 4.15501,13.1172 13.65898,53.4973 17.26179,73.3411 0.76724,4.2259 1.79656,9.7264 2.28739,12.2235 l 0.89241,4.5402 -12.34269,0 -12.34268,0 -3.22947,-7.3341 c -1.77621,-4.0338 -3.75899,-8.5914 -4.40618,-10.1281 -1.11463,-2.6465 -3.21277,-7.4375 -9.9415,-22.7008 -1.60889,-3.6496 -5.0664,-10.9435 -7.68335,-16.2087 -2.61694,-5.2652 -4.75808,-10.399 -4.75808,-11.4086 0,-1.0095 -0.50903,-2.0451 -1.13116,-2.3012 -0.62214,-0.2561 -2.70283,-3.6088 -4.62375,-7.4505 -5.45348,-10.9065 -14.98729,-28.237 -20.67584,-37.5844 -2.85032,-4.6837 -5.62135,-9.4587 -6.15783,-10.6112 -0.53648,-1.1525 -2.73911,-5.2386 -4.89472,-9.0803 -2.15562,-3.8417 -5.41375,-9.8138 -7.24029,-13.2713 -1.82656,-3.45753 -3.66929,-6.60073 -4.09498,-6.98483 -0.42568,-0.3842 -1.87023,-2.8988 -3.21006,-5.5879 -2.81064,-5.6412 -5.56908,-10.1712 -6.8052,-11.1758 -0.4727,-0.3842 -1.30085,-2.1129 -1.84036,-3.8417 -0.5395,-1.7287 -1.56718,-3.1432 -2.28375,-3.1432 -0.71655,0 -1.30283,-0.6588 -1.30283,-1.4641 0,-0.8052 -2.20023,-4.9036 -4.8894,-9.1074 -2.68918,-4.2039 -4.88941,-8.2074 -4.88941,-8.8968 0,-0.6894 -0.47148,-1.463 -1.04773,-1.7191 -0.86953,-0.3865 -5.23091,-6.7002 -14.314,-20.7218 -4.5334,-6.9981 -24.48676,-34.6039 -26.37562,-36.491 -1.24701,-1.2459 -4.43468,-4.9399 -7.08371,-8.209 -2.64901,-3.2692 -5.50565,-6.6503 -6.34808,-7.5137 -1.90051,-1.9477 -15.92353,-30.5135 -21.00106,-42.7804 -2.06719,-4.9942 -5.49915,-12.8522 -7.62655,-17.4622 -2.12741,-4.61 -4.30513,-9.8054 -4.83936,-11.5453 -0.53423,-1.7399 -1.5547,-2.8029 -2.26773,-2.3623 -0.71302,0.4407 -1.29639,-0.1788 -1.29639,-1.3767 0,-1.1978 -0.62864,-2.1779 -1.39698,-2.1779 -2.16595,0 -1.67576,23.5963 0.76119,36.6422 3.0244,16.1907 7.73441,33.5489 11.85323,43.6838 0.93676,2.305 2.32641,5.7625 3.08812,7.6833 0.76172,1.9209 1.94471,4.4354 2.6289,5.5879 0.68419,1.1525 1.61129,3.0385 2.06024,4.191 2.98604,7.6655 7.98683,18.5996 8.94476,19.5576 1.00089,1.0009 4.04012,5.9215 5.17702,8.3818 0.53257,1.1525 2.10015,3.3141 3.48353,4.8036 2.7409,2.9511 3.34128,6.3722 1.11826,6.3722 -0.76833,0 -1.39697,2.2002 -1.39697,4.8894 0,7.784 -2.62469,6.464 -12.96673,-6.5215 -2.85666,-3.5868 -5.19392,-7.2015 -5.19392,-8.0326 0,-0.8311 -0.51722,-1.5111 -1.14935,-1.5111 -0.63214,0 -2.54173,-2.6717 -4.24354,-5.9371 -1.70181,-3.2654 -3.62629,-6.8801 -4.27665,-8.0326 -2.39172,-4.2384 -7.69621,-18.4466 -9.90936,-26.5425 -0.94518,-3.4575 -2.5196,-9.1153 -3.49874,-12.5728 -5.02056,-17.7287 -5.81902,-44.5517 -2.20399,-74.0395 1.29735,-10.5824 0.16087,-12.8992 -6.03129,-12.2949 -3.10164,0.3027 -4.20363,1.0676 -3.93084,2.7285 0.29949,1.8234 -1.02003,2.4098 -6.28638,2.7939 -9.62045,0.7016 -14.34879,-0.09 -14.34879,-2.4007 0,-3.3352 -10.72558,-2.6602 -12.57276,0.7913 -1.02654,1.9181 -2.92501,2.794 -6.05613,2.794 -5.09139,0 -7.9136,-2.0925 -7.9136,-5.8673 0,-2.6508 -1.4809,-3.0155 -6.63562,-1.6341 -2.85113,0.7641 -4.5957,4.6923 -2.09546,4.7183 0.57625,0.01 1.72918,1.4204 2.56207,3.1432 0.83289,1.7228 4.52202,8.79 8.19807,15.7051 13.11472,24.6701 16.79698,37.9881 16.80178,60.7683 0.003,14.8444 -2.5714,37.3652 -4.76272,41.6621 -1.73853,3.4091 -4.27922,18.2812 -4.35231,25.4767 -0.0346,3.4113 -0.89796,8.0882 -1.91847,10.3932 l -1.85544,4.1909 -1.03632,-4.1909 c -0.56998,-2.305 -2.87539,-7.527 -5.12315,-11.6044 l -4.08683,-7.4135 2.92388,-2.3676 c 8.17643,-6.6209 12.5983,-41.7276 7.73511,-61.4118 -4.03746,-16.3419 -12.0584,-38.8372 -14.56017,-40.8348 -0.48111,-0.3842 -2.10053,-2.8987 -3.59872,-5.5879 -1.49818,-2.6892 -3.85558,-6.1081 -5.23865,-7.5975 -1.38307,-1.4895 -2.51468,-3.2183 -2.51468,-3.8417 0,-0.6235 -0.86669,-1.1336 -1.92598,-1.1336 -2.00119,0 -3.52806,3.2992 -6.46524,13.9698 -0.95172,3.4575 -2.5452,9.1152 -3.54108,12.5727 -0.99587,3.4575 -2.57666,9.7439 -3.51284,13.9697 -0.93618,4.2259 -2.48858,10.1979 -3.44977,13.2713 -0.9612,3.0733 -2.505,9.0454 -3.43069,13.2712 -0.92567,4.2259 -2.51881,10.8266 -3.54029,14.6683 -1.02148,3.8416 -2.61184,10.4423 -3.53413,14.6682 -2.21627,10.1547 -9.15782,31.1803 -12.39353,37.5393 -1.41845,2.7876 -5.95372,11.6754 -10.07839,19.7507 -4.12468,8.0753 -8.22273,16.5619 -9.10678,18.8591 -7.49434,19.4744 -10.80807,28.53833 -11.7417,32.11633 -0.60145,2.305 -2.4192,7.9627 -4.03945,12.5727 -3.31494,9.4318 -5.94617,17.9768 -8.38828,27.241 -0.91142,3.4575 -2.49792,9.1153 -3.52555,12.5728 -1.02764,3.4575 -2.61065,10.3725 -3.5178,15.3667 -0.90716,4.9942 -2.52362,13.1665 -3.59212,18.1606 -3.24155,15.151 -6.19542,37.1006 -6.19542,46.037 l 0,8.445 -15.36671,0 c -10.42433,0 -15.3667,-0.504 -15.3667,-1.5669 z M 542.66386,658.63253 c 2.27187,-3.64821 4.47211,-6.94744 4.88941,-7.33161 2.15455,-1.98349 10.075,-19.85056 11.76624,-26.54249 3.60456,-14.26257 3.87945,-20.42152 1.54033,-34.5103 -3.25733,-19.61926 -5.74868,-27.23328 -15.10537,-46.16491 -3.13284,-6.33876 -6.19641,-11.52503 -6.80792,-11.52503 -0.61153,0 -1.11186,-0.67057 -1.11186,-1.49018 0,-1.57258 -4.90767,-8.48426 -11.8305,-16.66135 -6.90506,-8.15611 -27.10131,-27.94858 -28.51875,-27.94858 -0.72992,0 -1.53665,-0.52233 -1.79278,-1.16073 -0.70406,-1.75504 -23.82051,-15.3829 -26.9252,-15.87327 -2.23644,-0.35322 -3.10835,1.03906 -4.9809,7.95367 -1.24844,4.61001 -3.0928,10.26775 -4.09856,12.57276 -1.00577,2.30501 -2.29875,5.4482 -2.8733,6.98487 -1.74137,4.65739 -8.41311,19.4184 -9.78684,21.65308 -0.70849,1.1525 -2.68054,4.76717 -4.38235,8.0326 -1.70181,3.26542 -3.6114,5.93713 -4.24354,5.93713 -0.63213,0 -1.14935,0.70891 -1.14935,1.57536 0,1.48654 -12.23201,18.78225 -16.76368,23.70333 -1.1525,1.25154 -5.02668,5.66257 -8.6093,9.80226 -3.58261,4.13971 -8.71956,9.98739 -11.41544,12.99487 l -4.90159,5.46814 5.12906,2.44722 c 11.58607,5.52806 21.68037,9.81191 44.2443,18.77653 32.82291,13.0405 51.68539,22.36363 59.99984,29.65604 1.97103,1.72876 3.92062,3.14319 4.33242,3.14319 0.83861,0 8.58307,6.83499 20.14951,17.78326 4.24516,4.01827 8.03279,7.3175 8.41695,7.33161 0.38417,0.0141 2.55729,-2.95925 4.82917,-6.60747 l 0,0 z m -429.50903,-8.40689 c 0,-0.59141 3.19272,-3.57744 7.09492,-6.63562 3.9022,-3.0582 8.64937,-6.97478 10.54927,-8.70354 1.8999,-1.72875 3.93207,-3.14319 4.51594,-3.14319 0.58388,0 2.28024,-1.12709 3.76971,-2.50464 2.35361,-2.17677 15.25753,-10.09934 21.53512,-13.22184 9.90676,-4.92765 13.41426,-8.10573 16.00774,-14.50424 1.51346,-3.73399 5.13278,-9.30362 8.04295,-12.37696 l 5.29117,-5.58789 -4.17756,-1.75023 c -4.7085,-1.97265 -4.97689,-2.76327 -2.2643,-6.67002 1.81788,-2.61816 2.50845,-5.70984 4.5159,-20.2177 0.82322,-5.94943 0.74905,-6.13663 -1.38371,-3.49244 -2.11568,2.623 -2.34322,2.64436 -3.71893,0.34925 -0.9627,-1.6061 -3.19502,-2.44471 -6.50765,-2.44471 -3.74734,0 -7.04814,-1.50366 -12.85259,-5.85491 -4.29566,-3.22019 -8.01984,-6.36338 -8.27595,-6.98486 -0.25612,-0.62148 -1.69683,-1.12996 -3.20161,-1.12996 -3.31552,0 -7.04732,-3.52294 -9.31835,-8.79681 -0.97685,-2.26849 -1.66173,-10.17877 -1.63284,-18.85914 0.0788,-23.66292 4.48765,-37.27147 16.16753,-49.90284 9.49502,-10.26851 11.12375,-12.23678 12.89259,-15.58024 0.88287,-1.66885 2.41462,-3.86908 3.40389,-4.8894 1.81197,-1.8689 7.99845,-11.9864 7.99845,-13.08084 0,-0.60781 -1.08591,-0.22016 -13.8184,4.93288 l -7.53203,3.04832 -3.24427,-3.96566 c -3.81866,-4.66772 -4.10585,-6.0611 -1.2493,-6.0611 1.1525,0 2.09546,-0.56594 2.09546,-1.25764 0,-2.05778 13.7518,-4.72723 20.02611,-3.8874 l 5.81789,0.77876 -5.38744,-4.79687 c -7.99854,-7.12173 -13.4717,-14.54427 -13.4717,-18.26991 0,-2.72361 -0.72044,-3.30035 -4.12276,-3.30035 -4.77839,0 -18.13977,-3.29733 -22.22852,-5.48557 -4.05516,-2.17025 -6.71934,-1.84619 -7.7725,0.9454 -1.7323,4.5918 -4.25574,8.73109 -5.32273,8.73109 -0.58614,0 -1.06571,0.63826 -1.06571,1.41836 0,1.42839 -13.28976,20.4283 -16.10772,23.02867 -0.83263,0.76833 -3.14165,3.5972 -5.13116,6.28638 -1.98951,2.68917 -5.411152,6.87534 -7.603642,9.3026 -2.19249,2.42725 -7.12954,8.03561 -10.97122,12.46302 -3.84167,4.42742 -8.3993,9.54224 -10.12805,11.36627 -1.72876,1.82402 -3.14319,3.91647 -3.14319,4.64988 0,0.73341 -0.62864,1.33348 -1.39698,1.33348 -0.76833,0 -1.39697,0.94296 -1.39697,2.09546 0,1.1525 -0.4931,2.09546 -1.09578,2.09546 -0.60267,0 -2.28408,2.04307 -3.73646,4.54016 -1.45238,2.49709 -3.03389,4.85448 -3.51446,5.23865 -1.36921,1.09454 -8.73239,13.76205 -13.8042,23.74855 -2.53638,4.99417 -5.1399,10.02328 -5.78561,11.17578 -2.37868,4.24564 -7.12915,15.69713 -9.15726,22.07447 -9.55501,30.04558 -13.33482,55.98638 -10.41359,71.46831 1.02047,5.40829 2.3832,9.83324 3.02829,9.83324 0.6451,0 1.1729,1.48888 1.1729,3.30862 0,7.09345 17.86612,20.34936 32.82887,24.35764 3.07334,0.82329 9.0454,2.42813 13.27125,3.5663 8.08814,2.17844 41.909192,3.1626 41.909192,1.21952 l 0,0 z m 268.80309,-72.41528 c 1.21535,-0.46636 2.20972,-1.43676 2.20972,-2.15642 0,-0.71967 1.57159,-3.00338 3.49243,-5.07493 3.51286,-3.78845 4.69421,-8.68438 2.09546,-8.68438 -0.76833,0 -1.39697,0.56049 -1.39697,1.24553 0,0.68505 -1.46945,1.61434 -3.26545,2.0651 -4.81716,1.20904 -10.70428,6.29475 -10.70428,9.24711 0,3.43499 3.41744,4.95113 7.56909,3.35799 l 0,0 z m 30.12553,-43.50595 c 12.16418,-20.27167 34.98049,-68.19923 34.93196,-73.37746 -0.0144,-1.53163 -5.23397,-4.36078 -15.35068,-8.32043 -1.92084,-0.75181 -5.37835,-2.20836 -7.68335,-3.2368 -2.30501,-1.02842 -7.28337,-2.87683 -11.06304,-4.10756 -3.77966,-1.23073 -7.55149,-2.67305 -8.38184,-3.20516 -4.48603,-2.87475 -29.33825,-10.48061 -38.97988,-11.92954 -5.04426,-0.75803 -5.45014,-0.53829 -7.33411,3.97068 -2.66069,6.36792 -2.55539,18.07461 0.20041,22.28049 1.74519,2.66351 1.86431,3.96703 0.5815,6.36397 -1.89224,3.5357 0.41184,10.70629 4.3635,13.57972 1.31499,0.95618 2.79018,4.10189 3.2782,6.99047 0.48802,2.88858 2.66506,10.59286 4.83787,17.12062 3.22296,9.68273 5.33368,13.3788 11.46029,20.06801 9.94763,10.86109 21.64662,21.6634 23.5978,21.78911 0.39674,0.0256 2.89037,-3.56819 5.54137,-7.98612 l 0,0 z M 161.65787,518.74896 c 8.61666,-4.3011 16.36201,-7.7552 20.22468,-9.01932 1.30431,-0.42686 3.05015,-3.29649 3.87963,-6.37696 0.8295,-3.08047 2.11971,-5.97881 2.86716,-6.44076 0.74747,-0.46196 1.35902,-2.03877 1.35902,-3.50403 0,-1.46525 1.0269,-4.81754 2.28201,-7.44954 2.2238,-4.66335 2.18886,-4.90754 -1.36956,-9.57288 -5.34127,-7.00276 -7.89731,-15.55526 -7.89731,-26.42434 0,-5.4708 -0.60114,-9.60317 -1.39698,-9.60317 -0.76833,0 -1.39697,0.71265 -1.39697,1.58368 0,0.87103 -1.4942,2.9141 -3.32045,4.54016 -4.86024,4.3275 -18.71229,22.78074 -19.81284,26.39402 -0.52015,1.70773 -1.70263,4.04791 -2.62772,5.20042 -5.36248,6.68063 -8.06467,37.1992 -3.75363,42.3932 2.39172,2.88155 1.44616,3.02994 10.96296,-1.72048 l 0,0 z m 31.77041,-76.99403 c -0.84307,-7.80039 -1.16901,-8.58804 -2.31235,-5.58789 -1.28251,3.36534 -0.53567,15.11524 1.42068,22.35157 0.81223,3.00433 1.0091,2.71149 1.40864,-2.09546 0.25545,-3.07334 0.0228,-9.67404 -0.51697,-14.66822 z m 261.79101,-12.22351 c 0.96747,-5.9546 2.66545,-16.16997 3.77329,-22.70082 2.63196,-15.51558 2.55506,-34.41943 -0.22447,-55.18044 -3.26212,-24.36556 -3.05091,-23.55355 -5.49159,-21.11287 -1.32219,1.3222 -2.05417,4.86311 -2.05417,9.93709 0,8.84272 -1.08315,10.46858 -10.16288,15.25476 -4.36512,2.30098 -6.01745,4.08518 -6.34439,6.8508 -0.50377,4.2612 -2.78895,5.77189 -10.7337,7.09579 -4.91531,0.81908 -19.75326,7.18575 -21.65309,9.2909 -0.69413,0.76916 -7.21499,4.29476 -19.89932,10.75887 -3.64545,1.85777 -6.9829,3.95186 -7.41656,4.65355 -0.43366,0.70167 -1.91121,1.27577 -3.28346,1.27577 -3.72064,0 -6.52997,3.96897 -9.05151,12.78776 -1.24209,4.3441 -2.25835,8.20705 -2.25835,8.58435 0,0.37729 2.3574,0.96703 5.23865,1.31051 2.88126,0.34348 8.38184,1.41374 12.22352,2.37836 10.63155,2.66952 21.59519,5.33113 29.33644,7.12194 3.84167,0.88871 9.81373,2.45432 13.27124,3.47912 3.45751,1.02482 9.11525,2.61106 12.57276,3.52497 3.45751,0.91391 8.48661,2.49653 11.17579,3.51692 8.69975,3.30105 9.05804,3.01304 10.9818,-8.82733 z M 174.81966,383.09477 c 2.1961,-2.29801 3.99292,-4.46967 3.99292,-4.8259 0,-0.35624 1.41443,-2.13793 3.14319,-3.9593 4.96237,-5.22824 8.03259,-9.31214 8.03259,-10.68469 0,-0.69553 0.47148,-1.47413 1.04773,-1.73025 1.25641,-0.5584 9.02759,-12.06197 10.39928,-15.39391 1.08514,-2.63588 -1.61191,-6.5666 -11.55687,-16.84308 -6.35386,-6.56569 -13.76145,-19.49085 -13.96615,-24.3689 -0.0584,-1.39295 -0.90889,-4.73287 -1.88986,-7.42205 l -1.78358,-4.8894 -0.88651,4.19092 c -1.3792,6.52006 -1.25817,13.453 0.34144,19.55762 0.8053,3.07334 1.44918,7.15949 1.43083,9.08033 -0.0426,4.46334 -2.62276,-3.15475 -6.27224,-18.51941 -2.69716,-11.3554 -2.64919,-12.10628 2.29802,-35.96255 3.32142,-16.01645 3.184,-22.80289 -0.69538,-34.34255 -5.55387,-16.52056 -6.39297,-19.3837 -6.54542,-22.33405 -0.10953,-2.11935 -0.37808,-1.94902 -1.25773,0.79767 -0.61515,1.92084 -1.17506,10.40745 -1.24424,18.85914 -0.0691,8.45169 -0.7913,21.65308 -1.60473,29.33644 -2.3006,21.73092 -5.53826,46.82104 -6.9991,54.23929 -0.73024,3.7082 -1.32771,8.64736 -1.32771,10.9759 0,5.05251 -3.39402,20.79333 -7.10495,32.95151 -1.47062,4.81823 -2.67386,9.29958 -2.67386,9.95858 0,0.65898 2.04307,2.03698 4.54016,3.06221 2.49709,1.02523 5.1688,2.41663 5.93713,3.09199 1.10508,0.97137 17.79888,8.62062 20.10488,9.21225 0.30098,0.0772 2.34405,-1.73979 4.54016,-4.03781 l 0,0 z M 123.04785,347.11 c 2.36588,-5.18627 4.80438,-10.68685 5.41889,-12.22352 3.73243,-9.33346 5.66744,-14.61297 7.1681,-19.55762 0.93273,-3.07334 2.47248,-8.10245 3.42164,-11.17579 0.94917,-3.07334 2.38024,-8.73108 3.18017,-12.57276 0.7999,-3.84167 2.38976,-11.38533 3.53298,-16.76368 2.47867,-11.66097 4.7255,-33.93576 5.86423,-58.13713 1.04227,-22.15149 -0.0691,-23.21345 -10.79983,-10.31895 -4.0827,4.90597 -7.94526,8.95702 -8.58347,9.00234 -0.63822,0.0453 -5.87011,-4.62733 -11.62643,-10.38366 -10.43511,-10.43511 -10.47592,-10.45884 -13.81317,-8.03259 -1.84093,1.33839 -3.36689,2.90492 -3.39104,3.48117 -0.0241,0.57625 -0.93447,1.04773 -2.02294,1.04773 -1.08848,0 -2.188592,0.56589 -2.444712,1.25754 -0.25611,0.69164 -3.39596,3.67767 -6.97745,6.63562 -6.95394,5.74324 -19.68415,20.83714 -24.12321,28.6023 -9.67207,16.91912 -10.56501,19.64688 -10.57045,32.29077 -0.004,9.91586 0.69101,13.98257 3.70201,21.65309 2.03899,5.19435 4.55354,10.43672 5.58789,11.64972 1.03435,1.21301 1.88063,2.94176 1.88063,3.84168 0,0.89991 0.62864,1.63622 1.39697,1.63622 0.76834,0 1.39698,0.62864 1.39698,1.39697 0,0.76834 1.10011,2.57373 2.4447,4.01198 1.34459,1.43827 4.64494,5.33061 7.33411,8.64968 8.65229,10.67894 33.399602,33.43846 36.358932,33.43846 0.74958,0 3.29859,-4.24331 5.66447,-9.42957 z m 86.12732,-8.60189 4.5186,-1.78445 -6.26481,-8.77934 c -3.44565,-4.82864 -6.2848,-9.64248 -6.30924,-10.6974 -0.0244,-1.05494 -0.9674,-3.13833 -2.09546,-4.62977 -1.12807,-1.49144 -2.05103,-4.16315 -2.05103,-5.93714 0,-1.77398 -0.62864,-3.22543 -1.39698,-3.22543 -1.84825,0 -1.74191,1.88312 0.67055,11.87428 1.11314,4.61001 2.04627,10.03381 2.07364,12.05291 0.0598,4.41044 3.95436,14.20422 5.34756,13.44765 0.54371,-0.29527 3.02194,-1.33986 5.50717,-2.32131 l 0,0 z m 13.89849,-16.17366 c -1.62712,-2.3164 -3.75104,-5.02847 -4.71979,-6.02682 -0.96875,-0.99834 -2.35673,-2.87903 -3.08439,-4.17928 -0.72767,-1.30026 -1.74574,-1.9414 -2.26238,-1.42475 -1.3293,1.32931 2.81774,18.6556 5.03275,21.0268 1.56805,1.67859 2.29298,1.44149 4.91575,-1.60767 l 3.07649,-3.57661 -2.95843,-4.21167 0,0 z m 166.2586,-37.90394 c 1.86425,-2.01158 3.03645,-4.57754 2.6049,-5.70216 -0.43156,-1.12462 -0.78465,-5.45086 -0.78465,-9.61387 0,-4.16299 -0.50068,-7.56909 -1.11262,-7.56909 -0.61195,0 -1.88317,4.2433 -2.82493,9.42957 -0.94177,5.18626 -2.08598,11.15832 -2.54266,13.27124 -1.04066,4.81462 0.3189,4.86838 4.65996,0.18431 l 0,0 z m 31.15668,-6.76821 c 0,-0.35573 -1.25727,-3.83651 -2.79394,-7.73507 -1.53667,-3.89856 -2.79395,-8.93267 -2.79395,-11.18691 0,-3.46272 0.92112,-4.52178 5.93714,-6.82615 l 5.93713,-2.72755 0.41307,8.97333 0.41308,8.97333 5.52406,0 c 3.03824,0 5.52407,-0.20594 5.52407,-0.45763 0,-0.65523 -6.86575,-17.46333 -8.27319,-20.25368 -0.64881,-1.28631 -1.82999,-3.91034 -2.62485,-5.83118 -0.79487,-1.92084 -4.28963,-9.48581 -7.76616,-16.81106 -3.47652,-7.32524 -6.97472,-15.03821 -7.7738,-17.13993 -1.27893,-3.36386 -1.78089,-3.61646 -4.19296,-2.1101 -2.25558,1.40864 -3.20568,1.2899 -5.37296,-0.67147 -4.54466,-4.11286 -5.28238,-2.80427 -4.71815,8.36921 0.29863,5.91354 -0.21411,22.62373 -1.13942,37.13377 -0.9253,14.51003 -1.36912,26.69514 -0.98625,27.07801 0.38286,0.38287 2.27027,-0.3353 4.19423,-1.59592 2.86061,-1.87435 4.4738,-2.02205 8.85228,-0.81048 2.94481,0.81487 6.29715,2.10074 7.44965,2.85751 2.23981,1.47075 4.19092,1.83013 4.19092,0.77197 l 0,0 z m 10.36304,-1.59816 c 3.1214,-1.19779 2.74651,-3.34297 -0.58422,-3.34297 -1.55219,0 -2.79395,0.93132 -2.79395,2.09546 0,2.35118 0.25586,2.44567 3.37817,1.24751 z m 23.16432,-19.78658 c 0,-0.59229 2.82887,-2.62224 6.28638,-4.51098 3.45751,-1.88875 6.28033,-3.76154 6.27296,-4.16174 -0.0205,-1.11505 -14.45404,-20.2215 -15.67576,-20.75095 -0.59098,-0.25612 -1.0745,-1.35624 -1.0745,-2.4447 0,-1.08848 -0.52965,-1.97905 -1.17699,-1.97905 -0.64734,0 -2.36189,-2.20024 -3.81011,-4.88941 -1.44821,-2.68917 -3.11881,-4.88941 -3.71241,-4.88941 -0.59362,0 -1.0793,-0.89057 -1.0793,-1.97905 0,-1.08846 -0.49062,-2.18858 -1.09026,-2.4447 -0.59965,-0.25611 -4.47465,-5.04581 -8.61116,-10.64379 -11.30154,-15.29454 -11.93426,-11.03741 -1.54979,10.42744 4.76593,9.85125 9.18193,18.89851 9.81333,20.10503 1.75456,3.3527 9.47606,22.54378 10.4993,26.09503 0.827,2.87015 4.90831,4.58829 4.90831,2.06628 l 0,0 z M 175.10828,230.11349 c 0.66335,-6.73467 0.29638,-9.34269 -1.86742,-13.27125 l -2.69302,-4.8894 -0.0585,12.10926 c -0.0895,18.5036 2.99447,22.54394 4.61898,6.05139 l -1e-5,0 z m -36.20953,-33.8766 c 4.63997,-4.89546 6.35902,-8.71013 3.94177,-8.74711 -0.57626,-0.008 -2.21999,-2.46377 -3.65277,-5.45546 l -2.60502,-5.43942 -5.79098,3.70924 c -3.18503,2.04007 -7.32064,4.79655 -9.19023,6.12549 l -3.39925,2.41627 3.41342,3.70672 c 2.70335,2.93565 10.7558,8.8917 12.05652,8.91769 0.14369,0.003 2.49563,-2.35216 5.22654,-5.23342 l 0,0 z m 260.3562,-4.81956 c 0.922,-0.922 1.67637,-2.75697 1.67637,-4.07771 0,-3.93502 -4.70434,-10.99127 -7.33411,-11.00077 -2.98014,-0.0112 -2.99378,0.42908 -0.29513,9.51643 2.23526,7.52691 3.14138,8.37354 5.95287,5.56205 l 0,0 z M 116.32997,174.93305 c 1.95356,-1.53667 4.23857,-2.79395 5.0778,-2.79395 0.83923,0 1.52588,-0.62864 1.52588,-1.39697 0,-0.76834 0.86598,-1.39697 1.9244,-1.39697 4.51678,0 5.10469,-3.57503 1.7432,-10.6001 -1.80592,-3.77414 -4.07397,-9.37662 -5.04011,-12.44996 -0.96615,-3.07334 -2.53195,-7.47381 -3.47958,-9.77882 -0.94762,-2.305 -2.56265,-7.49126 -3.58894,-11.52502 -1.02629,-4.03377 -2.24975,-7.33411 -2.71881,-7.33411 -1.96715,0 -4.16797,30.1287 -2.80624,38.41676 0.75742,4.61001 1.38078,11.36787 1.38523,15.01746 0.009,7.38411 0.81507,7.90219 5.97717,3.84168 l 0,0 z m 309.09592,-5.66171 c 5.08381,-10.19785 7.65674,-19.71622 7.53244,-27.86565 -0.12433,-8.15452 -0.41141,-7.76123 -4.07809,5.58789 -0.9497,3.45751 -3.51558,11.51671 -5.70198,17.90933 -4.21252,12.31663 -2.94387,14.78233 2.24763,4.36843 z M 147.24162,157.4746 c 5.51381,-2.52207 7.75094,-4.36065 8.07401,-6.63562 0.35994,-2.53469 1.73783,-3.3963 7.08251,-4.42877 3.7413,-0.72274 6.63562,-2.05224 6.63562,-3.04807 0,-1.58425 -7.00273,-7.54434 -8.86413,-7.54434 -0.4122,0 -5.97291,-2.41502 -12.35711,-5.36672 -15.31095,-7.07892 -20.62861,-9.12801 -21.4797,-8.27693 -1.54164,1.54165 7.56966,29.36219 10.61286,32.40539 0.74507,0.74507 1.35467,2.48622 1.35467,3.86922 0,3.17147 -0.16013,3.18892 8.94127,-0.97416 l 0,0 z m 270.40423,-5.94085 c 1.00096,-2.11293 2.28619,-5.09896 2.85606,-6.63563 0.56986,-1.53667 1.72979,-4.52319 2.57758,-6.63669 1.43866,-3.58648 1.19405,-4.0574 -3.66774,-7.06131 -2.86505,-1.7702 -8.61672,-4.60829 -12.78149,-6.30687 l -7.5723,-3.08832 -3.84195,3.92963 -3.84194,3.92964 6.52484,7.5029 c 3.58866,4.1266 8.2536,9.2618 10.36652,11.41156 2.11292,2.14976 3.84167,4.55848 3.84167,5.35271 0,2.94998 3.78072,1.31338 5.53875,-2.39762 l 0,0 z m 16.67358,-30.73341 c -0.14547,-6.93184 -0.99416,-10.60686 -3.37247,-14.60344 -1.52617,-2.56464 -2.15435,-2.49059 -22.59349,2.66308 -8.44197,2.12862 -8.59607,2.25102 -6.6236,5.2614 1.29951,1.98329 6.12393,4.46321 13.53245,6.95613 6.33216,2.13073 12.45596,4.41393 13.60846,5.07377 4.44393,2.54429 5.59069,1.41809 5.44865,-5.35094 l 0,0 z m -262.49172,1.11339 c 0,-1.95684 -1.45907,-3.13115 -5.1601,-4.15306 -5.38669,-1.48733 -8.28378,-0.88619 -3.87765,0.80461 1.39587,0.53564 3.68607,2.12203 5.08936,3.52531 3.2398,3.23981 3.94839,3.20807 3.94839,-0.17686 z"
     id="path2987"
     inkscape:connector-curvature="0" />
</svg>
