<?xml version="1.0" encoding="UTF-8" standalone="no"?>
<!-- Created with Inkscape (http://www.inkscape.org/) -->

<svg
   xmlns:dc="http://purl.org/dc/elements/1.1/"
   xmlns:cc="http://creativecommons.org/ns#"
   xmlns:rdf="http://www.w3.org/1999/02/22-rdf-syntax-ns#"
   xmlns:svg="http://www.w3.org/2000/svg"
   xmlns="http://www.w3.org/2000/svg"
   xmlns:sodipodi="http://sodipodi.sourceforge.net/DTD/sodipodi-0.dtd"
   xmlns:inkscape="http://www.inkscape.org/namespaces/inkscape"
   id="svg2"
   version="1.1"
   inkscape:version="0.48.4 r9939"
   width="708.94769"
   height="573.49799"
   sodipodi:docname="youmu.svg">
  <metadata
     id="metadata8">
    <rdf:RDF>
      <cc:Work
         rdf:about="">
        <dc:format>image/svg+xml</dc:format>
        <dc:type
           rdf:resource="http://purl.org/dc/dcmitype/StillImage" />
        <dc:title></dc:title>
      </cc:Work>
    </rdf:RDF>
  </metadata>
  <defs
     id="defs6" />
  <sodipodi:namedview
     pagecolor="#ffffff"
     bordercolor="#666666"
     borderopacity="1"
     objecttolerance="10"
     gridtolerance="10"
     guidetolerance="10"
     inkscape:pageopacity="0"
     inkscape:pageshadow="2"
     inkscape:window-width="956"
     inkscape:window-height="1041"
     id="namedview4"
     showgrid="false"
     inkscape:zoom="1.0723861"
     inkscape:cx="359.945"
     inkscape:cy="323.39103"
     inkscape:window-x="960"
     inkscape:window-y="18"
     inkscape:window-maximized="0"
     inkscape:current-layer="svg2"
     fit-margin-top="0"
     fit-margin-left="0"
     fit-margin-right="0"
     fit-margin-bottom="0" />
  <path
     style="fill:#ff0000"
     d="m 126.82,571.67848 c 0,-3.33405 2.57314,-11.75468 4.58743,-15.01242 1.95545,-3.16258 1.97837,-3.69767 1.35889,-31.72798 -0.4435,-20.06779 -0.30361,-30.83774 0.47237,-36.3675 1.3823,-9.85047 3.07661,-17.97154 3.87641,-18.5801 0.33702,-0.25644 2.02024,-5.08213 3.74048,-10.72375 4.07764,-13.37283 4.30263,-20.62446 0.75751,-24.41451 -1.80414,-1.92878 -2.62832,-4.05458 -3.09772,-7.98987 -0.35177,-2.94903 -1.029,-5.36187 -1.50497,-5.36187 -0.50102,0 -0.8654,-7.2638 -0.8654,-17.25125 0,-10.87917 0.34444,-17.25125 0.9325,-17.25125 0.51287,0 0.9325,-0.86595 0.9325,-1.92433 0,-4.68551 11.66594,-54.86935 12.99257,-55.89067 0.3331,-0.25644 1.34868,-3.82325 2.25685,-7.92625 0.90818,-4.103 2.21421,-9.97775 2.90229,-13.055 2.41381,-10.79518 2.46466,-11.64274 0.7081,-11.80315 -3.68805,-0.33681 -35.89086,4.97176 -44.35556,7.31193 -1.88006,0.51977 -4.34425,5.54293 -4.34425,8.85562 0,1.15265 1.15215,3.03639 2.56437,4.19266 l 2.56438,2.09962 -3.43202,0.0336 c -2.83668,0.0277 -3.48378,0.39748 -3.73045,2.13165 -0.3103,2.18151 -1.18822,2.35405 -5.79849,1.13956 -1.93712,-0.5103 -2.51626,-0.4093 -2.0431,0.35632 0.8156,1.31965 0.0429,1.36164 -2.27072,0.12341 -1.96333,-1.05075 -4.18039,-5.3932 -5.10842,-10.00565 -0.67275,-3.3436 -1.66614,-2.89124 -4.12894,1.88024 -1.86807,3.6192 -3.32786,2.65241 -3.32786,-2.20401 0,-4.07216 -0.0334,-4.11454 -3.46849,-4.39949 -1.90768,-0.15825 -9.41007,0.36628 -16.672,1.16562 -7.26192,0.79934 -15.05683,1.45335 -17.32201,1.45335 -3.09913,0 -4.67011,0.55159 -6.34704,2.22852 -1.55272,1.55272 -2.36595,1.87038 -2.68171,1.04751 -0.31862,-0.83031 -3.86706,-1.31017 -11.94972,-1.61598 C 10.921011,311.65968 6.737926,310.19897 2.763191,304.42189 1.243436,302.213 0,299.97157 0,299.44093 c 0,-1.97776 3.741729,-2.78385 19.615046,-4.22575 23.780694,-2.16019 28.138664,-2.90976 29.956924,-5.1525 1.83705,-2.26592 2.64803,-2.4224 2.64803,-0.51092 0,2.19253 4.51443,1.97429 31.43406,-1.51957 5.06895,-0.65789 8.34638,-1.59294 9.7008,-2.76763 1.12503,-0.97573 2.33118,-1.77405 2.68032,-1.77405 0.34916,0 2.27816,-2.39789 4.28669,-5.32863 2.00854,-2.93075 6.48435,-8.21413 9.94625,-11.74088 7.96685,-8.11603 8.15968,-9.87689 1.39875,-12.7727 -2.69259,-1.15328 -5.10543,-2.41666 -5.36187,-2.80752 -0.25644,-0.39084 -3.19381,-1.83307 -6.5275,-3.20492 -3.33369,-1.37186 -7.38354,-3.09753 -8.99968,-3.83482 -1.61613,-0.73729 -3.23369,-1.34053 -3.59457,-1.34053 -0.97572,0 -10.15741,-4.70269 -10.7089,-5.4849 -0.26158,-0.37101 -2.57372,-1.56885 -5.1381,-2.66184 -2.56437,-1.093 -8.33422,-3.71374 -12.82187,-5.82387 -7.5802,-3.56427 -8.15938,-4.03432 -8.15938,-6.62206 0,-5.76661 5.20012,-9.50468 8.55902,-6.1526 0.67773,0.67636 7.10698,4.08376 14.28723,7.57201 7.18025,3.48824 13.26481,6.61512 13.52125,6.94861 0.86086,1.11955 26.76841,12.22465 28.51939,12.22465 0.56939,0 2.00291,0.83925 3.18561,1.865 4.04563,3.50876 5.10623,2.62005 10.66087,-8.93312 2.8554,-5.93897 5.19163,-11.10515 5.19163,-11.48041 0,-0.37527 0.75375,-1.49577 1.675,-2.49001 0.92125,-0.99424 2.65119,-3.82987 3.84432,-6.3014 1.19312,-2.47153 3.16203,-5.67346 4.37534,-7.1154 1.21332,-1.44195 3.13454,-5.08472 4.26938,-8.09506 1.13484,-3.01035 2.42898,-5.72668 2.87584,-6.03631 1.851,-1.28253 2.80738,-8.67783 2.94203,-22.74954 0.12402,-12.96098 0.38266,-15.33334 1.9698,-18.06801 1.00487,-1.73141 2.35998,-4.11403 3.01135,-5.29471 0.65138,-1.18068 2.33462,-3.12108 3.74053,-4.31199 1.40591,-1.19091 4.54747,-4.75969 6.98125,-7.93062 5.06635,-6.60091 9.36403,-10.38207 15.22844,-13.39825 2.25732,-1.16098 4.10422,-2.37406 4.10422,-2.69572 0,-0.32167 1.25887,-1.32848 2.7975,-2.23737 1.53862,-0.90889 2.7975,-2.18097 2.7975,-2.82684 0,-0.64587 1.6785,-2.11768 3.73,-3.27069 4.75124,-2.67035 4.84681,-5.09869 0.41384,-10.51445 -3.47552,-4.246055 -7.85001,-8.235105 -9.03947,-8.242975 -0.38465,-0.003 -0.72486,1.77878 -0.756,3.95849 -0.0566,3.958805 -0.0615,3.952985 -4.56929,-5.33475 -2.48195,-5.11383 -5.4773,-10.50955 -6.65631,-11.99048 -1.92708,-2.42054 -2.20475,-2.51851 -2.74805,-0.96968 -0.4547,1.29625 -1.67889,-0.42016 -4.9433,-6.93088 -2.3864,-4.75959 -4.33892,-9.47585 -4.33892,-10.48057 0,-1.00472 -0.41963,-1.82676 -0.9325,-1.82676 -0.51288,0 -0.9325,-2.30794 -0.9325,-5.12875 0,-2.82081 0.41962,-5.12875 0.9325,-5.12875 0.51287,0 0.9325,-0.82729 0.9325,-1.83841 0,-3.21038 4.49854,-12.15861 8.61408,-17.13464 2.18607,-2.64313 4.28939,-4.94558 4.67404,-5.11653 0.38466,-0.17096 0.69938,-0.86642 0.69938,-1.54546 0,-1.96462 8.95114,-9.47907 14.02041,-11.77009 2.54627,-1.1507798 4.62959,-2.4024398 4.62959,-2.7814698 0,-1.08021 7.16528,-3.50196 15.99811,-5.4071 8.88365,-1.91610003 13.19924,-1.58307 23.69003,1.82817 l 5.6519,1.83779 8.80185,-2.95121 c 12.32802,-4.13351003 25.85586,-4.74371 38.86612,-1.75313 10.18423,2.34098 12.43161,3.30937 16.79386,7.23642 3.74341,3.3699298 3.99461,6.8648198 0.69938,9.7299898 -3.11675,2.70998 -2.93831,5.66786 0.55767,9.2442 2.38858,2.44348 2.78947,3.45261 2.31469,5.82654 -0.31584,1.57917 -1.61585,3.95842 -2.88892,5.28722 -1.27308,1.32881 -2.31469,2.74597 -2.31469,3.14925 0,0.40328 -1.44494,2.42133 -3.21097,4.48454 -1.76603,2.06321 -4.03492,5.50417 -5.04196,7.64657 -3.02743,6.44056 -13.08624,17.33985 -16.00273,17.33985 -1.38731,0 -1.14466,0.5978 1.40218,3.45449 6.16346,6.9133 6.08994,6.80301 4.53532,6.80301 -1.10651,0 -1.31994,0.58403 -0.86941,2.37909 0.57454,2.28915 0.4726,2.35573 -2.69641,1.76122 -2.3039,-0.43221 -3.29352,-0.27689 -3.29352,0.51692 0,0.62414 -1.04906,2.38154 -2.33125,3.90533 -1.28219,1.52379 -2.33125,3.36777 -2.33125,4.09774 0,2.08579 -1.58046,1.55065 -2.27683,-0.77093 -0.49341,-1.64493 -0.76868,-1.79599 -1.27438,-0.69937 -2.32762,5.04743 -5.04336,6.978485 -6.06607,4.31333 -0.27051,-0.70491 -1.81937,-1.74444 -3.44191,-2.31006 l -2.95008,-1.02841 0.64246,3.80271 c 0.57692,3.414795 0.46601,3.750095 -1.08724,3.286855 -5.98455,-1.784805 -7.17236,-1.834975 -6.57479,-0.27775 0.70358,1.8335 -0.44132,1.93923 -4.62339,0.42698 -3.91296,-1.41495 -4.56424,-0.71761 -2.69884,2.88969 1.43011,2.76553 1.41377,2.88416 -0.39748,2.88416 -1.03892,0 -1.88895,0.34751 -1.88895,0.77223 0,0.90364 13.43459,6.12795 22.21674,8.63942 3.35065,0.9582 6.33169,2.10259 6.62455,2.5431 0.29285,0.44051 5.55554,3.675 11.69487,7.18777 6.13933,3.51277 12.4337,7.46165 13.9875,8.77529 5.81496,4.9162 9.81884,9.51852 9.81884,11.28646 0,1.00415 0.366,1.82573 0.81332,1.82573 0.44733,0 1.07595,1.6424 1.39694,3.64979 0.32099,2.00738 1.6335,5.74004 2.91668,8.2948 1.28319,2.55475 2.33306,5.17677 2.33306,5.8267 0,1.44925 5.38722,9.96723 6.90365,10.91566 0.60395,0.37774 3.57573,3.72676 6.60396,7.44227 3.02823,3.71551 6.19957,6.97564 7.04741,7.24473 1.70088,0.53984 6.03975,5.67513 10.91096,12.91371 1.74237,2.58916 3.94321,5.25057 4.89075,5.91425 0.94754,0.66369 2.67689,2.78061 3.84299,4.70427 2.14495,3.53841 7.20335,10.097 10.62153,13.77159 1.02575,1.1027 3.03685,3.54331 4.46913,5.42356 1.53464,2.01466 3.40422,3.41867 4.55229,3.41867 2.73517,0 19.43664,17.10212 22.12521,22.65596 1.16792,2.4126 2.3639,4.38654 2.65775,4.38654 0.29384,0 2.38629,-1.08536 4.64989,-2.41191 3.88517,-2.27687 4.21313,-2.32366 5.85719,-0.83581 2.54924,2.30702 3.15202,6.35053 1.44018,9.66085 -2.25867,4.3678 -1.82099,5.7274 3.39591,10.54866 2.66959,2.46715 5.01453,4.48571 5.21098,4.48571 0.19646,0 3.14682,2.51775 6.55639,5.595 3.40955,3.07725 6.43569,5.595 6.72472,5.595 0.28905,0 3.23225,2.51319 6.54046,5.58487 3.30819,3.07168 6.33721,5.58943 6.73115,5.595 0.39394,0.006 3.53933,2.73769 6.98974,6.07138 3.45042,3.33369 6.69492,6.06221 7.21,6.06339 0.51508,9.3e-4 3.45426,2.41401 6.53151,5.36187 3.07725,2.94786 7.76779,7.03824 10.42343,9.08974 6.57218,5.07706 20.96078,17.19789 22.68032,19.10569 0.76931,0.85355 4.75116,4.24737 8.84856,7.54185 4.09739,3.29448 9.13289,7.52951 11.19,9.41117 2.0571,1.88167 5.41869,4.68467 7.47019,6.22889 2.0515,1.54422 5.19869,4.2387 6.99375,5.98774 1.79506,1.74903 5.57057,5.03059 8.39002,7.29236 2.81945,2.26176 6.69503,5.59896 8.61241,7.41598 1.91738,1.81701 5.97964,5.17401 9.02725,7.46 3.04761,2.28598 6.01538,4.99557 6.59505,6.02132 0.57966,1.02575 2.67589,2.87323 4.65826,4.1055 1.98238,1.23228 5.62964,4.18221 8.10504,6.5554 2.4754,2.37319 6.47077,5.88503 8.87859,7.8041 2.40783,1.91906 5.55502,4.64379 6.99375,6.05493 1.43874,1.41115 4.70188,4.23452 7.25144,6.27415 6.2458,4.9966 8.64774,7.01013 11.65425,9.76967 1.39695,1.28219 4.5364,4.00975 6.97656,6.06125 7.11209,5.9793 12.81703,11.0303 15.00852,13.28812 1.12006,1.15397 2.42154,2.09813 2.89217,2.09813 0.47063,0 2.73045,1.81413 5.02182,4.0314 2.29137,2.21727 7.16962,6.42946 10.84056,9.36041 3.67095,2.93095 6.89758,5.91046 7.17028,6.62111 0.27271,0.71067 2.85348,3.03383 5.73506,5.16257 2.88157,2.12874 6.78858,5.5171 8.68222,7.52969 1.89365,2.01259 3.77799,3.65994 4.18741,3.66079 0.40944,8.4e-4 6.17771,5.39632 12.81837,11.98996 8.87891,8.816 12.23105,12.77382 12.66757,14.95643 l 0.5936,2.96801 -2.68822,-1.17055 c -3.23508,-1.40867 -14.47045,-9.80043 -19.00698,-14.19641 -1.79506,-1.73945 -4.95742,-4.36008 -7.02747,-5.82364 -2.07005,-1.46356 -6.57114,-5.35105 -10.00243,-8.63887 -3.43129,-3.28782 -7.50747,-6.59232 -9.05816,-7.34335 -1.55069,-0.75102 -2.81944,-1.71755 -2.81944,-2.14784 0,-1.14883 -7.73937,-8.25909 -9.01956,-8.2864 -0.60132,-0.0128 -2.90926,-2.06452 -5.12875,-4.55934 -2.21949,-2.49481 -5.24352,-5.30609 -6.72007,-6.24729 -3.13703,-1.99964 -6.81118,-5.17542 -15.35976,-13.27635 -3.41034,-3.23176 -7.35458,-6.57433 -8.76499,-7.42793 -1.4104,-0.85361 -2.57565,-1.98606 -2.58945,-2.51658 -0.0138,-0.53051 -1.58739,-1.93107 -3.49688,-3.11235 -4.09991,-2.53637 -12.33054,-10.16239 -12.33054,-11.42476 0,-0.48466 -0.55229,-0.88121 -1.22731,-0.88121 -1.07081,0 -5.8749,-4.0488 -18.35519,-15.46946 -1.79506,-1.64264 -5.36188,-4.56324 -7.92625,-6.49021 -2.56438,-1.92695 -4.96653,-4.01236 -5.33813,-4.63422 -0.3716,-0.62186 -3.7286,-3.59985 -7.46,-6.61776 -3.7314,-3.01791 -8.30374,-6.95579 -10.16075,-8.75085 -1.857,-1.79506 -5.45306,-4.87405 -7.99124,-6.84218 -2.53818,-1.96815 -5.75749,-5.01043 -7.15401,-6.76063 -1.39652,-1.75021 -3.04577,-3.19094 -3.665,-3.20164 -0.61922,-0.0107 -3.9782,-2.73826 -7.46437,-6.06125 -3.48618,-3.32298 -6.63337,-6.04949 -6.99375,-6.05889 -0.36039,-0.009 -3.56791,-2.73696 -7.12784,-6.06125 -3.55993,-3.32429 -6.64436,-6.04416 -6.85429,-6.04416 -0.20993,0 -3.38183,-2.67918 -7.04866,-5.95375 -3.66683,-3.27456 -8.10036,-7.15609 -9.85231,-8.62563 -1.75193,-1.46952 -4.94604,-4.24546 -7.09803,-6.16875 -2.15197,-1.92328 -4.16265,-3.49687 -4.46815,-3.49687 -0.30552,0 -3.02059,-2.41284 -6.03349,-5.36188 -3.01291,-2.94903 -7.00562,-6.41093 -8.8727,-7.69312 -1.86708,-1.28219 -3.40624,-2.85578 -3.42036,-3.49688 -0.0141,-0.64109 -0.40725,-1.16562 -0.87363,-1.16562 -0.80217,0 -12.23681,-9.22155 -15.57935,-12.56409 -0.85594,-0.85595 -4.3625,-3.79532 -7.79234,-6.53193 -3.42984,-2.73662 -7.50788,-6.16863 -9.06231,-7.6267 -3.94461,-3.70007 -10.98713,-8.71228 -12.24141,-8.71228 -0.57591,0 -2.94305,1.33638 -5.2603,2.96973 l -4.2132,2.96974 -2.34157,-2.19978 c -1.70904,-1.60556 -2.34156,-3.16346 -2.34156,-5.76723 0,-2.94579 -0.32499,-3.56746 -1.865,-3.56746 -1.02575,0 -1.865,0.41962 -1.865,0.9325 0,1.9877 -3.96553,0.79568 -6.20434,-1.865 -1.29468,-1.53863 -3.13504,-2.7975 -4.08971,-2.7975 -2.35812,0 -3.70361,-2.64935 -2.69405,-5.3047 1.1065,-2.91034 0.15331,-4.9528 -2.31142,-4.9528 -2.74011,0 -4.28298,-1.70471 -4.28298,-4.73226 0,-2.631 -5.44453,-8.62763 -18.13955,-19.97899 -3.4415,-3.07725 -8.21634,-7.6533 -10.61074,-10.169 -2.3944,-2.51569 -4.92489,-5.03344 -5.62329,-5.595 -0.69841,-0.56155 -5.10447,-4.67823 -9.79125,-9.14818 -10.73812,-10.24131 -18.32709,-16.58407 -19.84247,-16.58407 -0.64626,0 -1.60783,-0.73434 -2.1368,-1.63188 -0.83883,-1.42326 -1.08134,-1.45306 -1.89706,-0.23312 -1.36205,2.03699 -1.1939,3.90674 1.02833,11.43493 1.72644,5.84862 3.7365,19.17967 3.03525,20.13033 -0.55607,0.75384 -2.38199,-1.16898 -5.44072,-5.72946 -1.79078,-2.67 -4.63341,-6.35518 -6.31695,-8.18928 -5.64166,-6.14617 -12.35684,-19.41378 -14.08816,-27.83485 -0.58775,-2.85886 -1.49428,-5.75611 -2.0145,-6.43833 -2.94541,-3.8627 -7.61595,-8.54799 -8.5224,-8.54931 -1.35114,-0.002 -2.21469,4.39421 -2.21469,11.27455 0,2.99636 -1.0934,12.07075 -2.42978,20.16531 -1.33638,8.09455 -2.53105,18.60904 -2.65481,23.36553 -0.22238,8.54659 -0.2623,8.68147 -3.39834,11.48132 -2.90828,2.5965 -3.17332,3.27794 -3.17332,8.15871 0,4.04229 0.4494,5.80384 1.865,7.3104 1.78068,1.89509 2.16011,1.93215 8.3925,0.81971 12.07492,-2.15528 35.43078,-7.2884 35.90125,-7.89033 0.25644,-0.32808 3.82325,-1.31146 7.92625,-2.18527 9.97745,-2.1249 30.28281,-6.88541 32.75181,-7.67852 2.61437,-0.83982 5.44733,3.12362 6.32186,8.84456 1.65478,10.8252 1.68494,11.73231 0.42359,12.73995 -1.28828,1.02914 -16.87247,4.47929 -27.84101,6.16367 -3.33369,0.51193 -6.27106,1.24499 -6.5275,1.62902 -0.25644,0.38403 -9.652,2.45825 -20.87904,4.6094 -11.22703,2.15113 -21.40293,4.28762 -22.61312,4.74773 -2.53387,0.96338 -2.83235,2.915 -0.7624,4.98496 0.79087,0.79086 2.49083,3.8187 3.77769,6.72853 1.28687,2.90983 3.57717,7.08912 5.08957,9.28731 1.51239,2.19818 2.7498,4.40495 2.7498,4.90391 0,1.17706 8.81807,9.6312 11.47556,11.00196 1.12513,0.58036 3.49061,1.36586 5.25661,1.74556 1.76601,0.37972 3.78497,1.26442 4.48656,1.96601 0.70159,0.70161 3.66275,1.94864 6.58033,2.77119 2.91757,0.82256 9.29113,2.88236 14.16344,4.57735 4.87231,1.69499 10.53725,3.60479 12.58875,4.244 2.0515,0.63921 3.93981,1.48085 4.19625,1.8703 0.25644,0.38945 5.29194,2.06277 11.19,3.71849 5.89806,1.65572 11.563,3.34517 12.58875,3.75433 5.52111,2.20234 11.65907,3.03456 15.10152,2.04756 1.95167,-0.55957 5.28751,-1.29177 7.41298,-1.62711 3.34848,-0.52831 4.06446,-0.32426 5.36188,1.52807 0.82355,1.17578 1.49737,2.88366 1.49737,3.7953 0,0.91163 0.35227,1.65751 0.78282,1.65751 1.02255,0 2.94718,4.25685 2.94718,6.5185 0,0.97253 -0.81362,2.33813 -1.80805,3.03465 -1.72393,1.2075 -2.83305,4.84631 -5.59087,18.34274 -1.16773,5.71466 -4.22286,11.26911 -6.19838,11.26911 -0.72749,0 -1.3227,0.41962 -1.3227,0.9325 0,0.51287 -0.53897,0.9325 -1.19769,0.9325 -1.73648,0 -4.39209,4.94729 -3.82325,7.12252 0.63944,2.44525 -6.05199,9.21944 -9.85889,9.98082 -2.80721,0.56145 -10.29767,7.00827 -10.29767,8.86292 0,2.69813 -12.99989,13.08447 -18.70071,14.94105 -1.82295,0.59369 -5.16316,2.75247 -7.42268,4.7973 -3.0727,2.78076 -4.89697,3.71789 -7.23747,3.71789 -2.94903,0 -6.63153,1.34338 -7.66914,2.7977 -0.25644,0.35943 -2.19966,1.739 -4.31828,3.06572 -2.11862,1.32671 -4.98419,3.46147 -6.36795,4.74389 -3.13832,2.90848 -13.84554,5.5196 -19.15342,4.67084 -3.47449,-0.5556 -3.72996,-0.44442 -3.72461,1.62079 0.003,1.21953 0.61021,3.37608 1.349,4.79236 2.14033,4.1031 5.90178,15.9175 7.41365,23.28561 2.45131,11.94652 3.35241,22.18767 3.42483,38.92363 0.10935,25.26627 1.09242,38.2563 2.97497,39.30982 1.57397,0.88084 5.34681,11.90455 5.34681,15.62265 0,2.0002 -0.15367,2.01809 -15.15313,1.76446 l -15.15312,-0.25622 -0.27533,-6.27682 c -0.15143,-3.45225 0.18096,-7.12941 0.73866,-8.17147 0.78613,-1.4689 0.26882,-5.50659 -2.3021,-17.96818 -1.82385,-8.84044 -3.93964,-19.12774 -4.70178,-22.86066 -0.76214,-3.73292 -1.3857,-8.03407 -1.3857,-9.55812 0,-1.52405 -0.35098,-2.771 -0.77997,-2.771 -0.42898,0 -1.49914,-4.51097 -2.37814,-10.02438 -3.77479,-23.677 -6.19155,-33.80312 -8.06769,-33.80312 -0.36792,0 -2.16625,0.62561 -3.9963,1.39026 -2.35028,0.98201 -6.05768,1.32429 -12.62519,1.16563 -8.40857,-0.20316 -9.5059,-0.032 -11.47339,1.79009 -1.19657,1.1081 -3.01482,2.13268 -4.04057,2.27683 -2.25805,0.31734 -6.06125,-0.86961 -6.06125,-1.89167 0,-0.406 -5.56003,-1.0316 -12.35563,-1.39022 -6.79559,-0.35862 -15.00431,-1.25703 -18.24161,-1.99648 -3.23729,-0.73944 -7.31247,-1.34444 -9.05593,-1.34444 -2.94706,0 -3.24194,0.27865 -4.19389,3.96312 -0.56317,2.17972 -1.19552,4.59257 -1.40522,5.36188 -0.2097,0.76931 -1.67226,11.46975 -3.25014,23.77875 -3.51233,27.39957 -6.29444,45.21569 -7.3609,47.13776 -2.15332,3.88094 -3.18757,12.14929 -2.10586,16.83552 0.59768,2.58926 1.08668,6.98368 1.08668,9.76536 l 0,5.05761 -14.92,0 c -14.17397,0 -14.92,-0.091 -14.92,-1.8195 z m 12.82187,-293.97786 c 6.85627,-1.16293 12.35563,-2.5402 12.35563,-3.09436 0,-1.12256 -6.34468,-3.7402 -8.18783,-3.37806 -0.65675,0.12903 -2.70852,1.26233 -4.5595,2.51844 -4.0842,2.77161 -6.01577,2.86987 -8.23392,0.41884 -2.33815,-2.58362 -3.90568,-2.33427 -5.57105,0.88619 -2.87596,5.5615 -2.92294,5.55273 14.19667,2.64895 l 0,0 z m 32.94335,-16.35702 c 2.61267,-2.92998 5.52228,-7.93975 5.52228,-9.50823 0,-1.09519 0.29592,-1.51166 4.21073,-5.92606 2.26188,-2.55052 2.98875,-6.54368 1.59113,-8.74106 -0.3834,-0.60278 -3.09656,-1.99373 -6.02925,-3.09099 -2.93268,-1.09726 -5.57501,-2.38795 -5.87181,-2.86819 -0.29682,-0.48025 0.95408,-3.63888 2.77977,-7.01917 1.82569,-3.3803 3.31943,-6.73683 3.31943,-7.45896 0,-0.72213 0.36796,-1.31296 0.81767,-1.31296 1.74362,0 7.53758,-16.25053 7.56376,-21.21438 0.0135,-2.55603 -1.78766,-2.70099 -4.31415,-0.3472 -1.03367,0.96301 -2.81399,2.04755 -3.95627,2.41009 -1.23468,0.39188 -2.90721,2.42334 -4.12456,5.00971 -1.12623,2.39279 -2.57223,4.90503 -3.21333,5.58276 -0.64109,0.67773 -1.16562,1.8203 -1.16562,2.53905 0,2.48549 -8.67321,18.13917 -12.24296,22.09648 -1.97076,2.18473 -3.58914,4.42363 -3.59637,4.97532 -0.007,0.55169 -1.06223,1.98861 -2.34442,3.19317 -2.04709,1.92314 -2.33125,2.96951 -2.33125,8.58432 0,5.24759 0.29263,6.49799 1.63187,6.97293 0.89754,0.3183 2.26132,1.11022 3.03063,1.75983 1.20894,1.02081 14.44801,6.74511 15.91116,6.87965 0.28871,0.0266 1.5539,-1.1057 2.81156,-2.51611 z"
     id="path2987"
     inkscape:connector-curvature="0" />
</svg>
